<?xml version="1.0" encoding="UTF-8"?>
<svg xmlns="http://www.w3.org/2000/svg" xmlns:xlink="http://www.w3.org/1999/xlink" version="1.1" width="800" height="600">
    <!-- 标题 -->
    <text x="400" y="30" font-family="Arial" font-size="20" text-anchor="middle" font-weight="bold">Quarterly Product Sales Analysis 2023</text>
    
    <!-- 坐标轴 -->
    <line x1="100" y1="500" x2="700" y2="500" stroke="black" stroke-width="2" />
    <line x1="100" y1="500" x2="100" y2="100" stroke="black" stroke-width="2" />
    
    <!-- Y轴刻度 -->
    <line x1="95" y1="500" x2="100" y2="500" stroke="black" stroke-width="2" />
    <text x="85" y="505" font-family="Arial" font-size="12" text-anchor="end">0</text>
    
    <line x1="95" y1="420" x2="100" y2="420" stroke="black" stroke-width="2" />
    <text x="85" y="425" font-family="Arial" font-size="12" text-anchor="end">200</text>
    
    <line x1="95" y1="340" x2="100" y2="340" stroke="black" stroke-width="2" />
    <text x="85" y="345" font-family="Arial" font-size="12" text-anchor="end">400</text>
    
    <line x1="95" y1="260" x2="100" y2="260" stroke="black" stroke-width="2" />
    <text x="85" y="265" font-family="Arial" font-size="12" text-anchor="end">600</text>
    
    <line x1="95" y1="180" x2="100" y2="180" stroke="black" stroke-width="2" />
    <text x="85" y="185" font-family="Arial" font-size="12" text-anchor="end">800</text>
    
    <line x1="95" y1="100" x2="100" y2="100" stroke="black" stroke-width="2" />
    <text x="85" y="105" font-family="Arial" font-size="12" text-anchor="end">1000</text>
    
    <!-- 网格线 -->
    <g stroke="#dddddd" stroke-dasharray="5,5">
        <line x1="100" y1="420" x2="700" y2="420" />
        <line x1="100" y1="340" x2="700" y2="340" />
        <line x1="100" y1="260" x2="700" y2="260" />
        <line x1="100" y1="180" x2="700" y2="180" />
        <line x1="100" y1="100" x2="700" y2="100" />
    </g>
    
    <!-- 轴标签 -->
    <text x="400" y="545" font-family="Arial" font-size="16" text-anchor="middle">Product Model</text>
    <text x="45" y="300" font-family="Arial" font-size="16" text-anchor="middle" transform="rotate(-90, 45, 300)">Sales (pcs)</text>
    
    <!-- 第一组柱状图（电子类产品，使用深色） -->
    <rect x="130" y="410" width="30" height="90" fill="red" />
    <rect x="230" y="400" width="30" height="100" fill="red" />
    <rect x="330" y="420" width="30" height="80" fill="red" />
    <rect x="430" y="400" width="30" height="100" fill="red" />
    <rect x="530" y="440" width="30" height="60" fill="red" />
    <rect x="630" y="390" width="30" height="110" fill="red" />
    
    <!-- 第二组柱状图（家居类产品，使用中等亮度） -->
    <rect x="170" y="180" width="30" height="320" fill="#4fc3f7" />
    <rect x="270" y="140" width="30" height="360" fill="#4fc3f7" />
    <rect x="370" y="220" width="30" height="280" fill="#4fc3f7" />
    <rect x="470" y="200" width="30" height="300" fill="#4fc3f7" />
    <rect x="570" y="120" width="30" height="380" fill="#4fc3f7" />
    <rect x="670" y="160" width="30" height="340" fill="#4fc3f7" />
    
    <!-- X轴标签 -->
    <text x="150" y="520" font-family="Arial" font-size="12" text-anchor="middle">Product A</text>
    <text x="250" y="520" font-family="Arial" font-size="12" text-anchor="middle">Product B</text>
    <text x="350" y="520" font-family="Arial" font-size="12" text-anchor="middle">Product C</text>
    <text x="450" y="520" font-family="Arial" font-size="12" text-anchor="middle">Product D</text>
    <text x="550" y="520" font-family="Arial" font-size="12" text-anchor="middle">Product E</text>
    <text x="650" y="520" font-family="Arial" font-size="12" text-anchor="middle">Product F</text>

</svg> 