<?xml version="1.0" encoding="UTF-8"?>
<svg xmlns="http://www.w3.org/2000/svg" xmlns:xlink="http://www.w3.org/1999/xlink" version="1.1" width="800" height="600">
    <!-- 标题 -->
    <text x="400" y="30" font-family="Arial" font-size="20" text-anchor="middle" font-weight="bold">Product Sales Trend Analysis 2023</text>
    <text x="400" y="60" font-family="Arial" font-size="14" text-anchor="middle">Data Source: Sales Department Monthly Report 2023</text>
    
    
    <!-- 连接线 (边) -->
    <!-- 普通连接 -->
    <line x1="200" y1="200" x2="280" y2="250" stroke="#cccccc" stroke-width="1" />
    <line x1="200" y1="200" x2="150" y2="300" stroke="#cccccc" stroke-width="1" />
    <line x1="200" y1="200" x2="300" y2="180" stroke="#cccccc" stroke-width="1" />
    <line x1="280" y1="250" x2="350" y2="220" stroke="#cccccc" stroke-width="1" />
    <line x1="280" y1="250" x2="320" y2="300" stroke="#cccccc" stroke-width="1" />
    <line x1="150" y1="300" x2="100" y2="350" stroke="#cccccc" stroke-width="1" />
    <line x1="150" y1="300" x2="220" y2="350" stroke="#cccccc" stroke-width="1" />
    <line x1="300" y1="180" x2="350" y2="150" stroke="#cccccc" stroke-width="1" />
    <line x1="300" y1="180" x2="350" y2="220" stroke="#cccccc" stroke-width="1" />
    <line x1="350" y1="220" x2="400" y2="180" stroke="#cccccc" stroke-width="1" />
    <line x1="350" y1="220" x2="400" y2="270" stroke="#cccccc" stroke-width="1" />
    <line x1="320" y1="300" x2="400" y2="270" stroke="#cccccc" stroke-width="1" />
    <line x1="320" y1="300" x2="270" y2="370" stroke="#cccccc" stroke-width="1" />
    <line x1="600" y1="250" x2="650" y2="200" stroke="#cccccc" stroke-width="1" />
    <line x1="600" y1="250" x2="550" y2="300" stroke="#cccccc" stroke-width="1" />
    <line x1="600" y1="250" x2="670" y2="300" stroke="#cccccc" stroke-width="1" />
    <line x1="650" y1="200" x2="700" y2="180" stroke="#cccccc" stroke-width="1" />
    <line x1="550" y1="300" x2="500" y2="350" stroke="#cccccc" stroke-width="1" />
    <line x1="670" y1="300" x2="720" y2="330" stroke="#cccccc" stroke-width="1" />
    
    <!-- 子图中的关键连接 (意见领袖区域) -->
    <line x1="400" y1="270" x2="450" y2="250" stroke="#cccccc" stroke-width="1" />
    <line x1="400" y1="270" x2="380" y2="330" stroke="#cccccc" stroke-width="1" />
    <line x1="400" y1="270" x2="450" y2="320" stroke="#cccccc" stroke-width="1" />
    <line x1="450" y1="250" x2="500" y2="230" stroke="#cccccc" stroke-width="1" />
    <line x1="450" y1="250" x2="450" y2="190" stroke="#cccccc" stroke-width="1" />
    <line x1="450" y1="250" x2="500" y2="300" stroke="#cccccc" stroke-width="1" />
    <line x1="380" y1="330" x2="450" y2="320" stroke="#cccccc" stroke-width="1" />
    <line x1="380" y1="330" x2="330" y2="380" stroke="#cccccc" stroke-width="1" />
    <line x1="450" y1="320" x2="500" y2="300" stroke="#cccccc" stroke-width="1" />
    <line x1="450" y1="320" x2="420" y2="380" stroke="#cccccc" stroke-width="1" />
    <line x1="500" y1="230" x2="550" y2="200" stroke="#cccccc" stroke-width="1" />
    <line x1="500" y1="230" x2="450" y2="190" stroke="#cccccc" stroke-width="1" />
    <line x1="500" y1="230" x2="550" y2="280" stroke="#cccccc" stroke-width="1" />
    <line x1="500" y1="300" x2="550" y2="280" stroke="#cccccc" stroke-width="1" />
    <line x1="500" y1="300" x2="550" y2="350" stroke="#cccccc" stroke-width="1" />
    <line x1="550" y1="200" x2="600" y2="250" stroke="#cccccc" stroke-width="1" />
    <line x1="550" y1="280" x2="550" y2="350" stroke="#cccccc" stroke-width="1" />
    <line x1="550" y1="280" x2="600" y2="250" stroke="#cccccc" stroke-width="1" />
    
    <!-- 额外连接 -->
    <line x1="400" y1="180" x2="450" y2="190" stroke="#cccccc" stroke-width="1" />
    <line x1="550" y1="350" x2="500" y2="350" stroke="#cccccc" stroke-width="1" />
    <line x1="270" y1="370" x2="330" y2="380" stroke="#cccccc" stroke-width="1" />
    <line x1="330" y1="380" x2="420" y2="380" stroke="#cccccc" stroke-width="1" />
    <line x1="120" y1="150" x2="200" y2="200" stroke="#cccccc" stroke-width="1" />
    <line x1="120" y1="150" x2="100" y2="200" stroke="#cccccc" stroke-width="1" />
    
    <!-- 所有节点（统一样式） -->
    <circle cx="200" cy="200" r="8" fill="#90caf9" stroke="#64b5f6" stroke-width="1.5" />
    <circle cx="150" cy="300" r="8" fill="#90caf9" stroke="#64b5f6" stroke-width="1.5" />
    <circle cx="280" cy="250" r="8" fill="#90caf9" stroke="#64b5f6" stroke-width="1.5" />
    <circle cx="300" cy="180" r="8" fill="#90caf9" stroke="#64b5f6" stroke-width="1.5" />
    <circle cx="350" cy="150" r="8" fill="#90caf9" stroke="#64b5f6" stroke-width="1.5" />
    <circle cx="350" cy="220" r="8" fill="#90caf9" stroke="#64b5f6" stroke-width="1.5" />
    <circle cx="400" cy="180" r="8" fill="#90caf9" stroke="#64b5f6" stroke-width="1.5" />
    <circle cx="320" cy="300" r="8" fill="#90caf9" stroke="#64b5f6" stroke-width="1.5" />
    <circle cx="100" cy="350" r="8" fill="#90caf9" stroke="#64b5f6" stroke-width="1.5" />
    <circle cx="220" cy="350" r="8" fill="#90caf9" stroke="#64b5f6" stroke-width="1.5" />
    <circle cx="270" cy="370" r="8" fill="#90caf9" stroke="#64b5f6" stroke-width="1.5" />
    <circle cx="330" cy="380" r="8" fill="#90caf9" stroke="#64b5f6" stroke-width="1.5" />
    <circle cx="420" cy="380" r="8" fill="#90caf9" stroke="#64b5f6" stroke-width="1.5" />
    <circle cx="600" cy="250" r="8" fill="#90caf9" stroke="#64b5f6" stroke-width="1.5" />
    <circle cx="650" cy="200" r="8" fill="#90caf9" stroke="#64b5f6" stroke-width="1.5" />
    <circle cx="550" cy="300" r="8" fill="#90caf9" stroke="#64b5f6" stroke-width="1.5" />
    <circle cx="670" cy="300" r="8" fill="#90caf9" stroke="#64b5f6" stroke-width="1.5" />
    <circle cx="700" cy="180" r="8" fill="#90caf9" stroke="#64b5f6" stroke-width="1.5" />
    <circle cx="500" cy="350" r="8" fill="#90caf9" stroke="#64b5f6" stroke-width="1.5" />
    <circle cx="720" cy="330" r="8" fill="#90caf9" stroke="#64b5f6" stroke-width="1.5" />
    <circle cx="120" cy="150" r="8" fill="#90caf9" stroke="#64b5f6" stroke-width="1.5" />
    <circle cx="100" cy="200" r="8" fill="#90caf9" stroke="#64b5f6" stroke-width="1.5" />
    <circle cx="400" cy="270" r="8" fill="#90caf9" stroke="#64b5f6" stroke-width="1.5" />
    <circle cx="450" cy="250" r="8" fill="#90caf9" stroke="#64b5f6" stroke-width="1.5" />
    <circle cx="380" cy="330" r="8" fill="#90caf9" stroke="#64b5f6" stroke-width="1.5" />
    <circle cx="450" cy="320" r="8" fill="#90caf9" stroke="#64b5f6" stroke-width="1.5" />
    <circle cx="500" cy="230" r="8" fill="#90caf9" stroke="#64b5f6" stroke-width="1.5" />
    <circle cx="450" cy="190" r="8" fill="#90caf9" stroke="#64b5f6" stroke-width="1.5" />
    <circle cx="500" cy="300" r="8" fill="#90caf9" stroke="#64b5f6" stroke-width="1.5" />
    <circle cx="550" cy="200" r="8" fill="#90caf9" stroke="#64b5f6" stroke-width="1.5" />
    <circle cx="550" cy="280" r="8" fill="#90caf9" stroke="#64b5f6" stroke-width="1.5" />
    <circle cx="550" cy="350" r="8" fill="#90caf9" stroke="#64b5f6" stroke-width="1.5" />
    
    
    <!-- 注解 -->
    <text x="400" y="450" font-family="Arial" font-size="12" text-anchor="middle">Data Source: Sales Department Monthly Report 2023</text>
</svg> 