<svg xmlns="http://www.w3.org/2000/svg" xmlns:xlink="http://www.w3.org/1999/xlink" aria-hidden="false" aria-label="Interactive chart" class="highcharts-root" height="400" id="svg" style="font-family: -apple-system, BlinkMacSystemFont, " tag_name="svg">
  Segoe UI", Roboto, Helvetica, Arial, "Apple Color Emoji", "Segoe UI Emoji", "Segoe UI Symbol", sans-serif; font-size: 1rem;" version="1.1" viewBox="0 0 600 400" width="600" id="svg" tag_name="svg">
  <rect aria-hidden="true" class="highcharts-background" fill="#ffffff" filter="none" height="400" id="rect_7" rx="0" ry="0" tag_name="svg/rect_7" width="600" x="0" y="0"/>
  <rect aria-hidden="true" class="highcharts-plot-background" fill="none" filter="none" height="260" id="rect_6" tag_name="svg/rect_6" width="454" x="73" y="51"/>
  <g aria-hidden="true" class="highcharts-grid highcharts-xaxis-grid" data-z-index="1" id="g_24" tag_name="svg/g_24">
    <path class="highcharts-grid-line" d="M 224.5 51 L 224.5 311" data-z-index="1" fill="none" id="path_28" opacity="1" stroke="#e6e6e6" tag_name="svg/g_24/path_28"/>
    <path class="highcharts-grid-line" d="M 375.5 51 L 375.5 311" data-z-index="1" fill="none" id="path_27" opacity="1" stroke="#e6e6e6" tag_name="svg/g_24/path_27"/>
    <path class="highcharts-grid-line" d="M 527.5 51 L 527.5 311" data-z-index="1" fill="none" id="path_26" opacity="1" stroke="#e6e6e6" tag_name="svg/g_24/path_26"/>
    <path class="highcharts-grid-line" d="M 73.5 51 L 73.5 311" data-z-index="1" fill="none" id="path_25" opacity="1" stroke="#e6e6e6" tag_name="svg/g_24/path_25"/>
  </g>
  <g aria-hidden="true" class="highcharts-grid highcharts-yaxis-grid" data-z-index="1" id="g_23" tag_name="svg/g_23">
    <path class="highcharts-grid-line" d="M 73 311.5 L 527 311.5" data-z-index="1" fill="none" id="path_24" opacity="1" stroke="#e6e6e6" tag_name="svg/g_23/path_24"/>
    <path class="highcharts-grid-line" d="M 73 246.5 L 527 246.5" data-z-index="1" fill="none" id="path_23" opacity="1" stroke="#e6e6e6" tag_name="svg/g_23/path_23"/>
    <path class="highcharts-grid-line" d="M 73 181.5 L 527 181.5" data-z-index="1" fill="none" id="path_22" opacity="1" stroke="#e6e6e6" tag_name="svg/g_23/path_22"/>
    <path class="highcharts-grid-line" d="M 73 116.5 L 527 116.5" data-z-index="1" fill="none" id="path_21" opacity="1" stroke="#e6e6e6" tag_name="svg/g_23/path_21"/>
    <path class="highcharts-grid-line" d="M 73 51.5 L 527 51.5" data-z-index="1" fill="none" id="path_20" opacity="1" stroke="#e6e6e6" tag_name="svg/g_23/path_20"/>
  </g>
  <g aria-hidden="true" class="highcharts-grid highcharts-yaxis-grid" data-z-index="1" id="g_22" tag_name="svg/g_22">
    <path class="highcharts-grid-line" d="M 73 311.5 L 527 311.5" data-z-index="1" fill="none" id="path_19" opacity="1" stroke="#e6e6e6" tag_name="svg/g_22/path_19"/>
    <path class="highcharts-grid-line" d="M 73 246.5 L 527 246.5" data-z-index="1" fill="none" id="path_18" opacity="1" stroke="#e6e6e6" tag_name="svg/g_22/path_18"/>
    <path class="highcharts-grid-line" d="M 73 181.5 L 527 181.5" data-z-index="1" fill="none" id="path_17" opacity="1" stroke="#e6e6e6" tag_name="svg/g_22/path_17"/>
    <path class="highcharts-grid-line" d="M 73 116.5 L 527 116.5" data-z-index="1" fill="none" id="path_16" opacity="1" stroke="#e6e6e6" tag_name="svg/g_22/path_16"/>
    <path class="highcharts-grid-line" d="M 73 51.5 L 527 51.5" data-z-index="1" fill="none" id="path_15" opacity="1" stroke="#e6e6e6" tag_name="svg/g_22/path_15"/>
  </g>
  <rect aria-hidden="true" class="highcharts-plot-border" data-z-index="1" fill="none" height="260" id="rect_5" stroke="#cccccc" tag_name="svg/rect_5" width="454" x="73" y="51"/>
  <g aria-hidden="true" class="highcharts-axis highcharts-xaxis" data-z-index="2" id="g_21" tag_name="svg/g_21">
    <path class="highcharts-axis-line" d="M 73 311.5 L 527 311.5" data-z-index="7" fill="none" id="path_14" stroke="#333333" tag_name="svg/g_21/path_14"/>
  </g>
  <g aria-hidden="true" class="highcharts-axis highcharts-yaxis" data-z-index="2" id="g_20" tag_name="svg/g_20">
    <text class="highcharts-axis-title" data-z-index="7" id="text_22" style="color: rgb(102, 102, 102); font-size: 0.8em; fill: rgb(102, 102, 102);" tag_name="svg/g_20/text_22" text-anchor="middle" transform="translate(0,0) rotate(270 25.755571365356445 181)" x="25.755571365356445" y="181">
      Employees
    </text>
    <path class="highcharts-axis-line" d="M 73 51 L 73 311" data-z-index="7" fill="none" id="path_13" stroke="#333333" tag_name="svg/g_20/path_13"/>
  </g>
  <g aria-hidden="true" class="highcharts-axis highcharts-yaxis" data-z-index="2" id="g_19" tag_name="svg/g_19">
    <text class="highcharts-axis-title" data-z-index="7" id="text_21" style="color: rgb(102, 102, 102); font-size: 0.8em; fill: rgb(102, 102, 102);" tag_name="svg/g_19/text_21" text-anchor="middle" transform="translate(0,0) rotate(90 574.2444286346436 181)" x="574.2444286346436" y="181">
      Profit (millions)
    </text>
    <path class="highcharts-axis-line" d="M 527 51 L 527 311" data-z-index="7" fill="none" id="path_12" stroke="#333333" tag_name="svg/g_19/path_12"/>
  </g>
  <g aria-hidden="false" class="highcharts-series-group" data-z-index="3" filter="none" id="g_10" tag_name="svg/g_10">
    <g aria-hidden="false" aria-label="Employees, bar series 1 of 4 with 3 bars. Y axis, Employees." class="highcharts-series highcharts-series-0 highcharts-column-series" clip-path="url(#highcharts-k8m5nk1-46-)" data-z-index="0.1" id="g_18" opacity="1" role="region" style="outline: none;" tabindex="-1" tag_name="svg/g_10/g_18" transform="translate(73,51) scale(1 1)">
      <path aria-label="Seattle HQ, 150. Employees." class="highcharts-point reveliogood_2 reveliogood_3" d="M 30 16 L 61 16 A 3 3 0 0 1 64 19 L 64 260 A 0 0 0 0 1 64 260 L 27 260 A 0 0 0 0 1 27 260 L 27 19 A 3 3 0 0 1 30 16 Z" fill="rgb(165,170,217)" fill-opacity="1" filter="none" id="path_11" opacity="1" role="img" style="outline: none;" tabindex="-1" tag_name="svg/g_10/g_18/path_11"/>
      <path aria-label="San Francisco, 73. Employees." class="highcharts-point reveliogood_2 reveliogood_4" d="M 182 141 L 213 141 A 3 3 0 0 1 216 144 L 216 260 A 0 0 0 0 1 216 260 L 179 260 A 0 0 0 0 1 179 260 L 179 144 A 3 3 0 0 1 182 141 Z" fill="rgb(165,170,217)" fill-opacity="1" filter="none" id="path_10" opacity="1" role="img" style="outline: none;" tabindex="-1" tag_name="svg/g_10/g_18/path_10"/>
      <path aria-label="Tokyo, 20. Employees." class="highcharts-point reveliogood_2 reveliogood_5" d="M 333 228 L 364 228 A 3 3 0 0 1 367 231 L 367 260 A 0 0 0 0 1 367 260 L 330 260 A 0 0 0 0 1 330 260 L 330 231 A 3 3 0 0 1 333 228 Z" fill="rgb(165,170,217)" fill-opacity="1" filter="none" id="path_9" opacity="1" role="img" style="outline: none;" tabindex="-1" tag_name="svg/g_10/g_18/path_9"/>
    </g>
    <g aria-hidden="true" class="highcharts-markers highcharts-series-0 highcharts-column-series" clip-path="none" data-z-index="0.1" id="g_17" opacity="1" tag_name="svg/g_10/g_17" transform="translate(73,51) scale(1 1)"/>
    <g aria-hidden="false" aria-label="Employees Optimized, bar series 2 of 4 with 3 bars. Y axis, Employees." class="highcharts-series highcharts-series-1 highcharts-column-series" clip-path="url(#highcharts-k8m5nk1-46-)" data-z-index="0.1" id="g_16" opacity="1" role="region" style="outline: none;" tabindex="-1" tag_name="svg/g_10/g_16" transform="translate(73,51) scale(1 1)">
      <path aria-label="Seattle HQ, 140. Employees Optimized." class="highcharts-point reveliogood_2 reveliogood_3" d="M 39 33 L 52 33 A 3 3 0 0 1 55 36 L 55 260 A 0 0 0 0 1 55 260 L 36 260 A 0 0 0 0 1 36 260 L 36 36 A 3 3 0 0 1 39 33 Z" fill="rgb(126,86,134)" fill-opacity=".9" filter="none" id="path_8" opacity="1" role="img" style="outline: none;" tabindex="-1" tag_name="svg/g_10/g_16/path_8"/>
      <path aria-label="San Francisco, 90. Employees Optimized." class="highcharts-point reveliogood_2 reveliogood_4" d="M 191 114 L 204 114 A 3 3 0 0 1 207 117 L 207 260 A 0 0 0 0 1 207 260 L 188 260 A 0 0 0 0 1 188 260 L 188 117 A 3 3 0 0 1 191 114 Z" fill="rgb(126,86,134)" fill-opacity=".9" filter="none" id="path_7" opacity="1" role="img" style="outline: none;" tabindex="-1" tag_name="svg/g_10/g_16/path_7"/>
      <path aria-label="Tokyo, 40. Employees Optimized." class="highcharts-point reveliogood_2 reveliogood_5" d="M 342 195 L 355 195 A 3 3 0 0 1 358 198 L 358 260 A 0 0 0 0 1 358 260 L 339 260 A 0 0 0 0 1 339 260 L 339 198 A 3 3 0 0 1 342 195 Z" fill="rgb(126,86,134)" fill-opacity=".9" filter="none" id="path_6" opacity="1" role="img" style="outline: none;" tabindex="-1" tag_name="svg/g_10/g_16/path_6"/>
    </g>
    <g aria-hidden="true" class="highcharts-markers highcharts-series-1 highcharts-column-series" clip-path="none" data-z-index="0.1" id="g_15" opacity="1" tag_name="svg/g_10/g_15" transform="translate(73,51) scale(1 1)"/>
    <g aria-hidden="false" aria-label="Profit, bar series 3 of 4 with 3 bars. Y axis, Profit (millions)." class="highcharts-series highcharts-series-2 highcharts-column-series" clip-path="url(#highcharts-k8m5nk1-53-)" data-z-index="0.1" id="g_14" opacity="1" role="region" style="outline: none;" tabindex="-1" tag_name="svg/g_10/g_14" transform="translate(73,51) scale(1 1)">
      <path aria-label="Seattle HQ, $183.6 M. Profit." class="highcharts-point reveliogood reveliogood_3" d="M 91 61 L 122 61 A 3 3 0 0 1 125 64 L 125 260 A 0 0 0 0 1 125 260 L 88 260 A 0 0 0 0 1 88 260 L 88 64 A 3 3 0 0 1 91 61 Z" fill="rgb(248,161,63)" fill-opacity="1" filter="none" id="path_5" opacity="1" role="img" style="outline: none;" tabindex="-1" tag_name="svg/g_10/g_14/path_5"/>
      <path aria-label="San Francisco, $178.8 M. Profit." class="highcharts-point reveliogood reveliogood_4" d="M 242 66 L 273 66 A 3 3 0 0 1 276 69 L 276 260 A 0 0 0 0 1 276 260 L 239 260 A 0 0 0 0 1 239 260 L 239 69 A 3 3 0 0 1 242 66 Z" fill="rgb(248,161,63)" fill-opacity="1" filter="none" id="path_4" opacity="1" role="img" style="outline: none;" tabindex="-1" tag_name="svg/g_10/g_14/path_4"/>
      <path aria-label="Tokyo, $198.5 M. Profit." class="highcharts-point reveliogood reveliogood_5" d="M 393 45 L 424 45 A 3 3 0 0 1 427 48 L 427 260 A 0 0 0 0 1 427 260 L 390 260 A 0 0 0 0 1 390 260 L 390 48 A 3 3 0 0 1 393 45 Z" fill="rgb(248,161,63)" fill-opacity="1" filter="none" id="path_3" opacity="1" role="img" style="outline: none;" tabindex="-1" tag_name="svg/g_10/g_14/path_3"/>
    </g>
    <g aria-hidden="true" class="highcharts-markers highcharts-series-2 highcharts-column-series" clip-path="none" data-z-index="0.1" id="g_13" opacity="1" tag_name="svg/g_10/g_13" transform="translate(73,51) scale(1 1)"/>
    <g aria-hidden="false" aria-label="Profit Optimized, bar series 4 of 4 with 3 bars. Y axis, Profit (millions)." class="highcharts-series highcharts-series-3 highcharts-column-series" clip-path="url(#highcharts-k8m5nk1-53-)" data-z-index="0.1" id="g_12" opacity="1" role="region" style="outline: none;" tabindex="-1" tag_name="svg/g_10/g_12" transform="translate(73,51) scale(1 1)">
      <path aria-label="Seattle HQ, $203.6 M. Profit Optimized." class="highcharts-point reveliogood reveliogood_3" d="M 100 39 L 113 39 A 3 3 0 0 1 116 42 L 116 260 A 0 0 0 0 1 116 260 L 97 260 A 0 0 0 0 1 97 260 L 97 42 A 3 3 0 0 1 100 39 Z" fill="rgb(186,60,61)" fill-opacity=".9" filter="none" id="path_2" opacity="1" role="img" style="outline: none;" tabindex="-1" tag_name="svg/g_10/g_12/path_2"/>
      <path aria-label="San Francisco, $198.8 M. Profit Optimized." class="highcharts-point reveliogood reveliogood_4" d="M 251 45 L 264 45 A 3 3 0 0 1 267 48 L 267 260 A 0 0 0 0 1 267 260 L 248 260 A 0 0 0 0 1 248 260 L 248 48 A 3 3 0 0 1 251 45 Z" fill="rgb(186,60,61)" fill-opacity=".9" filter="none" id="path_1" opacity="1" role="img" style="outline: none;" tabindex="-1" tag_name="svg/g_10/g_12/path_1"/>
      <path aria-label="Tokyo, $208.5 M. Profit Optimized." class="highcharts-point reveliogood reveliogood_5" d="M 403 34 L 416 34 A 3 3 0 0 1 419 37 L 419 260 A 0 0 0 0 1 419 260 L 400 260 A 0 0 0 0 1 400 260 L 400 37 A 3 3 0 0 1 403 34 Z" fill="rgb(186,60,61)" fill-opacity=".9" filter="none" id="path" opacity="1" role="img" style="outline: none;" tabindex="-1" tag_name="svg/g_10/g_12/path"/>
    </g>
    <g aria-hidden="true" class="highcharts-markers highcharts-series-3 highcharts-column-series" clip-path="none" data-z-index="0.1" id="g_11" opacity="1" tag_name="svg/g_10/g_11" transform="translate(73,51) scale(1 1)"/>
  </g>
  <text aria-hidden="true" class="highcharts-title" data-z-index="4" id="text_20" style="font-size: 1.2em; color: rgb(51, 51, 51); font-weight: bold; fill: rgb(51, 51, 51);" tag_name="svg/text_20" text-anchor="middle" transform="translate(0,0) scale(1 1)" transform-origin="162.8385467529297 22" x="300" y="25">
    Efficiency Optimization by Branch
  </text>
  <text aria-hidden="true" class="highcharts-subtitle" data-z-index="4" id="text_19" style="color: rgb(102, 102, 102); font-size: 0.8em; fill: rgb(102, 102, 102);" tag_name="svg/text_19" text-anchor="middle" transform="translate(0,0) scale(1 1)" transform-origin="10 15" x="300" y="50"/>
  <text aria-hidden="true" class="highcharts-caption" data-z-index="4" id="text_18" style="color: rgb(102, 102, 102); font-size: 0.8em; fill: rgb(102, 102, 102);" tag_name="svg/text_18" text-anchor="start" transform="translate(0,0) scale(1 1)" transform-origin="10 15" x="10" y="397"/>
  <g aria-hidden="true" class="highcharts-legend highcharts-no-tooltip" data-z-index="7" id="g_3" tag_name="svg/g_3" transform="translate(66,355)">
    <rect class="highcharts-legend-box" fill="none" filter="none" height="30" id="rect_4" rx="0" ry="0" stroke="#999999" tag_name="svg/g_3/rect_4" width="469" x="0" y="0"/>
    <g data-z-index="1" id="g_4" tag_name="svg/g_3/g_4">
      <g id="g_5" tag_name="svg/g_3/g_4/g_5">
        <g class="highcharts-legend-item highcharts-column-series highcharts-color-undefined highcharts-series-0" data-z-index="1" id="g_9" tag_name="svg/g_3/g_4/g_5/g_9" transform="translate(8,3)">
          <text data-z-index="2" id="text_17" style="color: rgb(51, 51, 51); cursor: pointer; font-size: 0.8em; text-decoration: none; fill: rgb(51, 51, 51);" tag_name="svg/g_3/g_4/g_5/g_9/text_17" text-anchor="start" x="21" y="17">
            Employees
          </text>
          <rect class="highcharts-point" data-z-index="3" fill="rgb(165,170,217)" fill-opacity="1" height="12" id="rect_3" rx="6" ry="6" tag_name="svg/g_3/g_4/g_5/g_9/rect_3" width="12" x="2" y="6"/>
        </g>
        <g class="highcharts-legend-item highcharts-column-series highcharts-color-undefined highcharts-series-1" data-z-index="1" id="g_8" tag_name="svg/g_3/g_4/g_5/g_8" transform="translate(109.76177215576172,3)">
          <text data-z-index="2" id="text_16" style="color: rgb(51, 51, 51); cursor: pointer; font-size: 0.8em; text-decoration: none; fill: rgb(51, 51, 51);" tag_name="svg/g_3/g_4/g_5/g_8/text_16" text-anchor="start" x="21" y="17">
            Employees Optimized
          </text>
          <rect class="highcharts-point" data-z-index="3" fill="rgb(126,86,134)" fill-opacity=".9" height="12" id="rect_2" rx="6" ry="6" tag_name="svg/g_3/g_4/g_5/g_8/rect_2" width="12" x="2" y="6"/>
        </g>
        <g class="highcharts-legend-item highcharts-column-series highcharts-color-undefined highcharts-series-2" data-z-index="1" id="g_7" tag_name="svg/g_3/g_4/g_5/g_7" transform="translate(273.90196228027344,3)">
          <text data-z-index="2" id="text_15" style="color: rgb(51, 51, 51); cursor: pointer; font-size: 0.8em; text-decoration: none; fill: rgb(51, 51, 51);" tag_name="svg/g_3/g_4/g_5/g_7/text_15" text-anchor="start" x="21" y="17">
            Profit
          </text>
          <rect class="highcharts-point" data-z-index="3" fill="rgb(248,161,63)" fill-opacity="1" height="12" id="rect_1" rx="6" ry="6" tag_name="svg/g_3/g_4/g_5/g_7/rect_1" width="12" x="2" y="6"/>
        </g>
        <g class="highcharts-legend-item highcharts-column-series highcharts-color-undefined highcharts-series-3" data-z-index="1" id="g_6" tag_name="svg/g_3/g_4/g_5/g_6" transform="translate(346.68249702453613,3)">
          <text data-z-index="2" id="text_14" style="color: rgb(51, 51, 51); cursor: pointer; font-size: 0.8em; text-decoration: none; fill: rgb(51, 51, 51);" tag_name="svg/g_3/g_4/g_5/g_6/text_14" text-anchor="start" x="21" y="17">
            Profit Optimized
          </text>
          <rect class="highcharts-point" data-z-index="3" fill="rgb(186,60,61)" fill-opacity=".9" height="12" id="rect" rx="6" ry="6" tag_name="svg/g_3/g_4/g_5/g_6/rect" width="12" x="2" y="6"/>
        </g>
      </g>
    </g>
  </g>
  <g aria-hidden="true" class="highcharts-axis-labels highcharts-xaxis-labels" data-z-index="7" id="g_2" tag_name="svg/g_2">
    <text id="text_13" opacity="1" style="color: rgb(51, 51, 51); cursor: default; font-size: 0.8em; fill: rgb(51, 51, 51);" tag_name="svg/g_2/text_13" text-anchor="middle" transform="translate(0,0)" x="148.66666666666333" y="338">
      Seattle HQ
    </text>
    <text id="text_12" opacity="1" style="color: rgb(51, 51, 51); cursor: default; font-size: 0.8em; fill: rgb(51, 51, 51);" tag_name="svg/g_2/text_12" text-anchor="middle" transform="translate(0,0)" x="300.0000000000033" y="338">
      San Francisco
    </text>
    <text id="text_11" opacity="1" style="color: rgb(51, 51, 51); cursor: default; font-size: 0.8em; fill: rgb(51, 51, 51);" tag_name="svg/g_2/text_11" text-anchor="middle" transform="translate(0,0)" x="451.3333333333333" y="338">
      Tokyo
    </text>
  </g>
  <g aria-hidden="true" class="highcharts-axis-labels highcharts-yaxis-labels" data-z-index="7" id="g_1" tag_name="svg/g_1">
    <text id="text_10" opacity="1" style="color: rgb(51, 51, 51); cursor: default; font-size: 0.8em; fill: rgb(51, 51, 51);" tag_name="svg/g_1/text_10" text-anchor="end" transform="translate(0,0)" x="58" y="315">
      0
    </text>
    <text id="text_9" opacity="1" style="color: rgb(51, 51, 51); cursor: default; font-size: 0.8em; fill: rgb(51, 51, 51);" tag_name="svg/g_1/text_9" text-anchor="end" transform="translate(0,0)" x="58" y="250">
      40
    </text>
    <text id="text_8" opacity="1" style="color: rgb(51, 51, 51); cursor: default; font-size: 0.8em; fill: rgb(51, 51, 51);" tag_name="svg/g_1/text_8" text-anchor="end" transform="translate(0,0)" x="58" y="185">
      80
    </text>
    <text id="text_7" opacity="1" style="color: rgb(51, 51, 51); cursor: default; font-size: 0.8em; fill: rgb(51, 51, 51);" tag_name="svg/g_1/text_7" text-anchor="end" transform="translate(0,0)" x="58" y="120">
      120
    </text>
    <text id="text_6" opacity="1" style="color: rgb(51, 51, 51); cursor: default; font-size: 0.8em; fill: rgb(51, 51, 51);" tag_name="svg/g_1/text_6" text-anchor="end" transform="translate(0,0)" x="58" y="55">
      160
    </text>
  </g>
  <g aria-hidden="true" class="highcharts-axis-labels highcharts-yaxis-labels" data-z-index="7" id="g" tag_name="svg/g">
    <text id="text_5" opacity="1" style="color: rgb(51, 51, 51); cursor: default; font-size: 0.8em; fill: rgb(51, 51, 51);" tag_name="svg/g/text_5" text-anchor="start" transform="translate(0,0)" x="542" y="315">
      0
    </text>
    <text id="text_4" opacity="1" style="color: rgb(51, 51, 51); cursor: default; font-size: 0.8em; fill: rgb(51, 51, 51);" tag_name="svg/g/text_4" text-anchor="start" transform="translate(0,0)" x="542" y="250">
      60
    </text>
    <text id="text_3" opacity="1" style="color: rgb(51, 51, 51); cursor: default; font-size: 0.8em; fill: rgb(51, 51, 51);" tag_name="svg/g/text_3" text-anchor="start" transform="translate(0,0)" x="542" y="185">
      120
    </text>
    <text id="text_2" opacity="1" style="color: rgb(51, 51, 51); cursor: default; font-size: 0.8em; fill: rgb(51, 51, 51);" tag_name="svg/g/text_2" text-anchor="start" transform="translate(0,0)" x="542" y="120">
      180
    </text>
    <text id="text_1" opacity="1" style="color: rgb(51, 51, 51); cursor: default; font-size: 0.8em; fill: rgb(51, 51, 51);" tag_name="svg/g/text_1" text-anchor="start" transform="translate(0,0)" x="542" y="55">
      240
    </text>
  </g>
</svg>