<?xml version="1.0" encoding="UTF-8"?>
<svg xmlns="http://www.w3.org/2000/svg" xmlns:xlink="http://www.w3.org/1999/xlink" version="1.1" width="800" height="600">
    <!-- 标题 -->
    <text x="400" y="30" font-family="Arial" font-size="20" text-anchor="middle" font-weight="bold">Github Project Contribution Heatmap 2023</text>
    
    <!-- 月份标签 -->
    <text x="120" y="80" font-family="Arial" font-size="12" text-anchor="middle">Jan</text>
    <text x="180" y="80" font-family="Arial" font-size="12" text-anchor="middle">Feb</text>
    <text x="240" y="80" font-family="Arial" font-size="12" text-anchor="middle">Mar</text>
    <text x="300" y="80" font-family="Arial" font-size="12" text-anchor="middle">Apr</text>
    <text x="360" y="80" font-family="Arial" font-size="12" text-anchor="middle">May</text>
    <text x="420" y="80" font-family="Arial" font-size="12" text-anchor="middle">Jun</text>
    <text x="480" y="80" font-family="Arial" font-size="12" text-anchor="middle">Jul</text>
    <text x="540" y="80" font-family="Arial" font-size="12" text-anchor="middle">Aug</text>
    <text x="600" y="80" font-family="Arial" font-size="12" text-anchor="middle">Sep</text>
    <text x="660" y="80" font-family="Arial" font-size="12" text-anchor="middle">Oct</text>
    <text x="720" y="80" font-family="Arial" font-size="12" text-anchor="middle">Nov</text>
    <text x="780" y="80" font-family="Arial" font-size="12" text-anchor="middle">Dec</text>
    
    <!-- 星期标签 -->
    <text x="70" y="120" font-family="Arial" font-size="12" text-anchor="end">Mon</text>
    <text x="70" y="150" font-family="Arial" font-size="12" text-anchor="end">Tue</text>
    <text x="70" y="180" font-family="Arial" font-size="12" text-anchor="end">Wed</text>
    <text x="70" y="210" font-family="Arial" font-size="12" text-anchor="end">Thu</text>
    <text x="70" y="240" font-family="Arial" font-size="12" text-anchor="end">Fri</text>
    <text x="70" y="270" font-family="Arial" font-size="12" text-anchor="end">Sat</text>
    <text x="70" y="300" font-family="Arial" font-size="12" text-anchor="end">Sun</text>
    
    <!-- 日历热力图 (按月份和星期生成单元格) -->
    <!-- 第1月 -->
    <rect x="90" y="100" width="20" height="20" fill="#c6e48b" />
    <rect x="90" y="130" width="20" height="20" fill="#7bc96f" />
    <rect x="90" y="160" width="20" height="20" fill="#239a3b" />
    <rect x="90" y="190" width="20" height="20" fill="#7bc96f" />
    <rect x="90" y="220" width="20" height="20" fill="#c6e48b" />
    <rect x="90" y="250" width="20" height="20" fill="#ebedf0" />
    <rect x="90" y="280" width="20" height="20" fill="#ebedf0" />
    
    <rect x="120" y="100" width="20" height="20" fill="#c6e48b" />
    <rect x="120" y="130" width="20" height="20" fill="#c6e48b" />
    <rect x="120" y="160" width="20" height="20" fill="#7bc96f" />
    <rect x="120" y="190" width="20" height="20" fill="#239a3b" />
    <rect x="120" y="220" width="20" height="20" fill="#c6e48b" />
    <rect x="120" y="250" width="20" height="20" fill="#ebedf0" />
    <rect x="120" y="280" width="20" height="20" fill="#ebedf0" />
    
    <!-- 第2月 -->
    <rect x="150" y="100" width="20" height="20" fill="#239a3b" />
    <rect x="150" y="130" width="20" height="20" fill="#7bc96f" />
    <rect x="150" y="160" width="20" height="20" fill="#c6e48b" />
    <rect x="150" y="190" width="20" height="20" fill="#c6e48b" />
    <rect x="150" y="220" width="20" height="20" fill="#7bc96f" />
    <rect x="150" y="250" width="20" height="20" fill="#ebedf0" />
    <rect x="150" y="280" width="20" height="20" fill="#ebedf0" />
    
    <rect x="180" y="100" width="20" height="20" fill="#c6e48b" />
    <rect x="180" y="130" width="20" height="20" fill="#c6e48b" />
    <rect x="180" y="160" width="20" height="20" fill="#7bc96f" />
    <rect x="180" y="190" width="20" height="20" fill="#239a3b" />
    <rect x="180" y="220" width="20" height="20" fill="#c6e48b" />
    <rect x="180" y="250" width="20" height="20" fill="#ebedf0" />
    <rect x="180" y="280" width="20" height="20" fill="#ebedf0" />
    
    <!-- 第3月 -->
    <rect x="210" y="100" width="20" height="20" fill="#c6e48b" />
    <rect x="210" y="130" width="20" height="20" fill="#7bc96f" />
    <rect x="210" y="160" width="20" height="20" fill="#239a3b" />
    <rect x="210" y="190" width="20" height="20" fill="#7bc96f" />
    <rect x="210" y="220" width="20" height="20" fill="#c6e48b" />
    <rect x="210" y="250" width="20" height="20" fill="#ebedf0" />
    <rect x="210" y="280" width="20" height="20" fill="#ebedf0" />
    
    <rect x="240" y="100" width="20" height="20" fill="#c6e48b" />
    <rect x="240" y="130" width="20" height="20" fill="#c6e48b" />
    <rect x="240" y="160" width="20" height="20" fill="#7bc96f" />
    <rect x="240" y="190" width="20" height="20" fill="#239a3b" />
    <rect x="240" y="220" width="20" height="20" fill="#c6e48b" />
    <rect x="240" y="250" width="20" height="20" fill="#ebedf0" />
    <rect x="240" y="280" width="20" height="20" fill="#ebedf0" />
    
    <!-- 第4月 -->
    <rect x="270" y="100" width="20" height="20" fill="#239a3b" />
    <rect x="270" y="130" width="20" height="20" fill="#7bc96f" />
    <rect x="270" y="160" width="20" height="20" fill="#c6e48b" />
    <rect x="270" y="190" width="20" height="20" fill="#c6e48b" />
    <rect x="270" y="220" width="20" height="20" fill="#7bc96f" />
    <rect x="270" y="250" width="20" height="20" fill="#ebedf0" />
    <rect x="270" y="280" width="20" height="20" fill="#ebedf0" />
    
    <rect x="300" y="100" width="20" height="20" fill="#c6e48b" />
    <rect x="300" y="130" width="20" height="20" fill="#c6e48b" />
    <rect x="300" y="160" width="20" height="20" fill="#7bc96f" />
    <rect x="300" y="190" width="20" height="20" fill="#239a3b" />
    <rect x="300" y="220" width="20" height="20" fill="#c6e48b" />
    <rect x="300" y="250" width="20" height="20" fill="#ebedf0" />
    <rect x="300" y="280" width="20" height="20" fill="#ebedf0" />
    
    <!-- 第5月（高活跃度月份） -->
    <rect x="330" y="100" width="20" height="20" fill="#239a3b" />
    <rect x="330" y="130" width="20" height="20" fill="#239a3b" />
    <rect x="330" y="160" width="20" height="20" fill="#239a3b" />
    <rect x="330" y="190" width="20" height="20" fill="#7bc96f" />
    <rect x="330" y="220" width="20" height="20" fill="#7bc96f" />
    <rect x="330" y="250" width="20" height="20" fill="#c6e48b" />
    <rect x="330" y="280" width="20" height="20" fill="#c6e48b" />
    
    <rect x="360" y="100" width="20" height="20" fill="#239a3b" />
    <rect x="360" y="130" width="20" height="20" fill="#239a3b" />
    <rect x="360" y="160" width="20" height="20" fill="#7bc96f" />
    <rect x="360" y="190" width="20" height="20" fill="#239a3b" />
    <rect x="360" y="220" width="20" height="20" fill="#7bc96f" />
    <rect x="360" y="250" width="20" height="20" fill="#c6e48b" />
    <rect x="360" y="280" width="20" height="20" fill="#c6e48b" />
    
    <!-- 图例 -->
    <text x="400" y="350" font-family="Arial" font-size="16" text-anchor="middle" font-weight="bold">Contribution Frequency</text>
    
    <rect x="300" y="370" width="20" height="20" fill="#ebedf0" />
    <text x="330" y="385" font-family="Arial" font-size="12" text-anchor="start">No contributions</text>
    
    <rect x="380" y="370" width="20" height="20" fill="#c6e48b" />
    <text x="410" y="385" font-family="Arial" font-size="12" text-anchor="start">1-3 contributions</text>
    
    <rect x="460" y="370" width="20" height="20" fill="#7bc96f" />
    <text x="490" y="385" font-family="Arial" font-size="12" text-anchor="start">4-6 contributions</text>
    
    <rect x="540" y="370" width="20" height="20" fill="#239a3b" />
    <text x="570" y="385" font-family="Arial" font-size="12" text-anchor="start">7+ contributions</text>
    
    <!-- 统计信息 -->
    <text x="400" y="420" font-family="Arial" font-size="14" text-anchor="middle">Total Contributions: 1,246 | Most Active Month: May | Weekly Average: 24</text>
    <text x="400" y="450" font-family="Arial" font-size="14" text-anchor="middle">Data Source: GitHub API</text>
</svg> 