<?xml version='1.0' encoding='utf-8'?>
<svg width="900" height="340" viewBox="0,0,800,300" id="svg">
  <line x1="185.5" y1="56.2" x2="580" y2="56.2" fill="none" stroke="#333333" stroke-width="2" id="line_8" />
  <line x1="135.5" y1="131.4" x2="604.8" y2="131.4" fill="none" stroke="#333333" stroke-width="2" id="line_7" />
  <line x1="369.5" y1="206.5" x2="662.8" y2="206.5" fill="none" stroke="#333333" stroke-width="2" id="line_6" />
  <rect x="241.2" y="40" width="120.7" height="32" fill="#ff6363" stroke="#333333" stroke-width="2" id="rect_5" />
  <rect x="361.7" y="40" width="81.7" height="32" fill="#e1a3a3" stroke="#333333" stroke-width="2" id="rect_4" />
  <rect x="157.2" y="115.5" width="244.7" height="32" fill="#ff6363" stroke="#333333" stroke-width="2" id="rect_3" />
  <rect x="402.2" y="115.5" width="130.7" height="32" fill="#e1a3a3" stroke="#333333" stroke-width="2" id="rect_2" />
  <rect x="483.2" y="191.5" width="81.7" height="32" fill="#ff6363" stroke="#333333" stroke-width="2" id="rect_1" />
  <rect x="565.2" y="191.5" width="51.7" height="32" fill="#e1a3a3" stroke="#333333" stroke-width="2" id="rect" />
  <line x1="185" y1="47.5" x2="185" y2="65" fill="none" stroke="#333333" stroke-width="2" id="line_5" />
  <line x1="134.5" y1="122.6" x2="134.5" y2="140.1" fill="none" stroke="#333333" stroke-width="2" id="line_4" />
  <line x1="368.5" y1="197.8" x2="368.5" y2="215.3" fill="none" stroke="#333333" stroke-width="2" id="line_3" />
  <line x1="663.2" y1="197.7" x2="663.2" y2="215.2" fill="none" stroke="#333333" stroke-width="2" id="line_2" />
  <line x1="605.7" y1="122.7" x2="605.7" y2="140.2" fill="none" stroke="#333333" stroke-width="2" id="line_1" />
  <line x1="579.9" y1="47.2" x2="579.9" y2="64.7" fill="none" stroke="#333333" stroke-width="2" id="line" />
</svg>