<?xml version='1.0' encoding='utf-8'?>
<svg width="900" height="340" viewBox="-70,-30,880,340" style="max-width: 100%; height: auto; font: 10px sans-serif;" id="svg">
  <g id="g_12">
    <line x1="306.3" y1="63" x2="264.8" y2="135.4" fill="none" stroke="#CCCCCC" id="line_119" />
    <line x1="306.3" y1="63" x2="404.8" y2="147" fill="none" stroke="#CCCCCC" id="line_118" />
    <line x1="404.8" y1="147" x2="482" y2="78.5" fill="none" stroke="#CCCCCC" id="line_117" />
    <line x1="482" y1="78.5" x2="510" y2="168.2" fill="none" stroke="#CCCCCC" id="line_116" />
    <line x1="404.8" y1="147" x2="363.3" y2="250.3" fill="none" stroke="#CCCCCC" id="line_115" />
    <line x1="363.3" y1="250.3" x2="107.5" y2="168.2" fill="none" stroke="#CCCCCC" id="line_114" />
    <line x1="107.5" y1="168.2" x2="136" y2="65.9" fill="none" stroke="#CCCCCC" id="line_113" />
    <line x1="107.5" y1="168.2" x2="128.8" y2="263.8" fill="none" stroke="#CCCCCC" id="line_112" />
    <line x1="510" y1="168.2" x2="556.3" y2="252.2" fill="none" stroke="#CCCCCC" id="line_111" />
    <line x1="556.3" y1="252.2" x2="624.8" y2="61.1" fill="none" stroke="#CCCCCC" id="line_110" />
    <line x1="624.8" y1="61.1" x2="588.9" y2="80.7" fill="none" stroke="#CCCCCC" id="line_109" />
    <line x1="624.8" y1="61.1" x2="586" y2="48.5" fill="none" stroke="#CCCCCC" id="line_108" />
    <line x1="624.8" y1="61.1" x2="606.6" y2="24.6" fill="none" stroke="#CCCCCC" id="line_107" />
    <line x1="624.8" y1="61.1" x2="638" y2="23" fill="none" stroke="#CCCCCC" id="line_106" />
    <line x1="624.8" y1="61.1" x2="659.3" y2="40.8" fill="none" stroke="#CCCCCC" id="line_105" />
    <line x1="624.8" y1="61.1" x2="663.1" y2="71.4" fill="none" stroke="#CCCCCC" id="line_104" />
    <line x1="624.8" y1="61.1" x2="645.8" y2="96.2" fill="none" stroke="#CCCCCC" id="line_103" />
    <line x1="482" y1="78.5" x2="448.9" y2="74.9" fill="none" stroke="#CCCCCC" id="line_102" />
    <line x1="482" y1="78.5" x2="466.6" y2="48.2" fill="none" stroke="#CCCCCC" id="line_101" />
    <line x1="482" y1="78.5" x2="498.1" y2="48.2" fill="none" stroke="#CCCCCC" id="line_100" />
    <line x1="482" y1="78.5" x2="515.8" y2="71.4" fill="none" stroke="#CCCCCC" id="line_99" />
    <line x1="482" y1="78.5" x2="510.3" y2="97.8" fill="none" stroke="#CCCCCC" id="line_98" />
    <line x1="510" y1="168.2" x2="542.5" y2="163.1" fill="none" stroke="#CCCCCC" id="line_97" />
    <line x1="510" y1="168.2" x2="479.4" y2="155.4" fill="none" stroke="#CCCCCC" id="line_96" />
    <line x1="510" y1="168.2" x2="488.1" y2="193" fill="none" stroke="#CCCCCC" id="line_95" />
    <line x1="556.3" y1="252.2" x2="510.6" y2="244.5" fill="none" stroke="#CCCCCC" id="line_94" />
    <line x1="556.3" y1="252.2" x2="515.5" y2="274.4" fill="none" stroke="#CCCCCC" id="line_93" />
    <line x1="556.3" y1="252.2" x2="538" y2="295" fill="none" stroke="#CCCCCC" id="line_92" />
    <line x1="556.3" y1="252.2" x2="562.8" y2="298.2" fill="none" stroke="#CCCCCC" id="line_91" />
    <line x1="556.3" y1="252.2" x2="586.2" y2="287.6" fill="none" stroke="#CCCCCC" id="line_90" />
    <line x1="556.3" y1="252.2" x2="600.7" y2="266.7" fill="none" stroke="#CCCCCC" id="line_89" />
    <line x1="555.7" y1="252.9" x2="601.4" y2="239.3" fill="none" stroke="#CCCCCC" id="line_88" />
    <line x1="363.3" y1="250.3" x2="344" y2="214.9" fill="none" stroke="#CCCCCC" id="line_87" />
    <line x1="363.3" y1="250.3" x2="325" y2="259.6" fill="none" stroke="#CCCCCC" id="line_86" />
    <line x1="363.3" y1="250.3" x2="345" y2="285.7" fill="none" stroke="#CCCCCC" id="line_85" />
    <line x1="363.3" y1="250.3" x2="378.7" y2="286.9" fill="none" stroke="#CCCCCC" id="line_84" />
    <line x1="363.3" y1="250.3" x2="401.3" y2="263.5" fill="none" stroke="#CCCCCC" id="line_83" />
    <line x1="363.3" y1="250.3" x2="398" y2="229.4" fill="none" stroke="#CCCCCC" id="line_82" />
    <line x1="404.8" y1="147" x2="430.5" y2="167.7" fill="none" stroke="#CCCCCC" id="line_81" />
    <line x1="404.8" y1="147" x2="406.7" y2="114.2" fill="none" stroke="#CCCCCC" id="line_80" />
    <line x1="128.8" y1="263.8" x2="160.3" y2="277" fill="none" stroke="#CCCCCC" id="line_79" />
    <line x1="128.8" y1="263.8" x2="156.3" y2="244.1" fill="none" stroke="#CCCCCC" id="line_78" />
    <line x1="128.8" y1="263.8" x2="134.6" y2="296.9" fill="none" stroke="#CCCCCC" id="line_77" />
    <line x1="128.8" y1="263.8" x2="99.8" y2="282.5" fill="none" stroke="#CCCCCC" id="line_76" />
    <line x1="128.8" y1="263.8" x2="96.6" y2="251.9" fill="none" stroke="#CCCCCC" id="line_75" />
    <line x1="107.5" y1="168.2" x2="141.6" y2="146.3" fill="none" stroke="#CCCCCC" id="line_74" />
    <line x1="107.5" y1="168.2" x2="83.5" y2="134.9" fill="none" stroke="#CCCCCC" id="line_73" />
    <line x1="107.5" y1="168.2" x2="66.3" y2="165.6" fill="none" stroke="#CCCCCC" id="line_72" />
    <line x1="107.5" y1="168.2" x2="77.6" y2="196.2" fill="none" stroke="#CCCCCC" id="line_71" />
    <line x1="136" y1="65.9" x2="102.8" y2="94.4" fill="none" stroke="#CCCCCC" id="line_70" />
    <line x1="136" y1="65.9" x2="92.2" y2="64.2" fill="none" stroke="#CCCCCC" id="line_69" />
    <line x1="136" y1="65.9" x2="101" y2="38.7" fill="none" stroke="#CCCCCC" id="line_68" />
    <line x1="125.1" y1="23.3" x2="136" y2="65.9" fill="none" stroke="#CCCCCC" id="line_67" />
    <line x1="136" y1="65.9" x2="156.3" y2="27.2" fill="none" stroke="#CCCCCC" id="line_66" />
    <line x1="176" y1="48.8" x2="136" y2="65.9" fill="none" stroke="#CCCCCC" id="line_65" />
    <line x1="178.5" y1="76.1" x2="136" y2="65.9" fill="none" stroke="#CCCCCC" id="line_64" />
    <line x1="136" y1="65.9" x2="157.9" y2="103.4" fill="none" stroke="#CCCCCC" id="line_63" />
    <line x1="264.8" y1="135.4" x2="298.6" y2="139.3" fill="none" stroke="#CCCCCC" id="line_62" />
    <line x1="279.3" y1="168.2" x2="264.8" y2="135.4" fill="none" stroke="#CCCCCC" id="line_61" />
    <line x1="264.8" y1="135.4" x2="244.3" y2="164.4" fill="none" stroke="#CCCCCC" id="line_60" />
    <line x1="264.8" y1="135.4" x2="228.2" y2="134.1" fill="none" stroke="#CCCCCC" id="line_59" />
    <line x1="247.5" y1="104.5" x2="264.8" y2="135.4" fill="none" stroke="#CCCCCC" id="line_58" />
    <line x1="306.3" y1="63" x2="271.6" y2="64.5" fill="none" stroke="#CCCCCC" id="line_57" />
    <line x1="287" y1="33.1" x2="306.3" y2="63" fill="none" stroke="#CCCCCC" id="line_56" />
    <line x1="306.3" y1="63" x2="323.7" y2="32.1" fill="none" stroke="#CCCCCC" id="line_55" />
    <line x1="342.1" y1="58.4" x2="306.3" y2="63" fill="none" stroke="#CCCCCC" id="line_54" />
    <line x1="83.5" y1="134.9" x2="81.5" y2="108.8" fill="none" stroke="#E6E6E6" id="line_53" />
    <line x1="92.2" y1="64.2" x2="65.9" y2="64.2" fill="none" stroke="#E6E6E6" id="line_52" />
    <line x1="92.2" y1="64.2" x2="71.4" y2="48.3" fill="none" stroke="#E6E6E6" id="line_51" />
    <line x1="81.9" y1="24" x2="101" y2="38.7" fill="none" stroke="#E6E6E6" id="line_50" />
    <line x1="182.1" y1="22.4" x2="156.3" y2="27.2" fill="none" stroke="#E6E6E6" id="line_49" />
    <line x1="200.3" y1="37.2" x2="176" y2="48.8" fill="none" stroke="#E6E6E6" id="line_48" />
    <line x1="176" y1="48.8" x2="201.7" y2="56.6" fill="none" stroke="#E6E6E6" id="line_47" />
    <line x1="178.5" y1="76.1" x2="201.5" y2="88" fill="none" stroke="#E6E6E6" id="line_46" />
    <line x1="157.9" y1="103.4" x2="182.6" y2="112.8" fill="none" stroke="#E6E6E6" id="line_45" />
    <line x1="157.9" y1="103.4" x2="163.1" y2="127.9" fill="none" stroke="#E6E6E6" id="line_44" />
    <line x1="141.6" y1="146.3" x2="166.6" y2="158.1" fill="none" stroke="#E6E6E6" id="line_43" />
    <line x1="77.6" y1="196.2" x2="54.4" y2="211.2" fill="none" stroke="#E6E6E6" id="line_42" />
    <line x1="244.3" y1="164.4" x2="228.8" y2="180.4" fill="none" stroke="#E6E6E6" id="line_41" />
    <line x1="244.3" y1="164.4" x2="250.7" y2="191.7" fill="none" stroke="#E6E6E6" id="line_40" />
    <line x1="279.3" y1="168.2" x2="296.1" y2="191.1" fill="none" stroke="#E6E6E6" id="line_39" />
    <line x1="298.6" y1="139.3" x2="318.7" y2="162.3" fill="none" stroke="#E6E6E6" id="line_38" />
    <line x1="328.7" y1="143.9" x2="298.6" y2="139.3" fill="none" stroke="#E6E6E6" id="line_37" />
    <line x1="298.6" y1="139.3" x2="322.3" y2="120.3" fill="none" stroke="#E6E6E6" id="line_36" />
    <line x1="260.2" y1="26.5" x2="287" y2="33.1" fill="none" stroke="#E6E6E6" id="line_35" />
    <line x1="342.1" y1="58.4" x2="361.5" y2="40.5" fill="none" stroke="#E6E6E6" id="line_34" />
    <line x1="342.1" y1="58.4" x2="369.7" y2="66.6" fill="none" stroke="#E6E6E6" id="line_33" />
    <line x1="406.7" y1="114.2" x2="388.4" y2="89.7" fill="none" stroke="#E6E6E6" id="line_32" />
    <line x1="406.7" y1="114.2" x2="410.7" y2="84.4" fill="none" stroke="#E6E6E6" id="line_31" />
    <line x1="406.7" y1="114.2" x2="430.7" y2="95.2" fill="none" stroke="#E6E6E6" id="line_30" />
    <line x1="466.6" y1="48.2" x2="445" y2="39.1" fill="none" stroke="#E6E6E6" id="line_29" />
    <line x1="465.1" y1="24.9" x2="466.6" y2="48.2" fill="none" stroke="#E6E6E6" id="line_28" />
    <line x1="515.8" y1="71.4" x2="537.5" y2="62.5" fill="none" stroke="#E6E6E6" id="line_27" />
    <line x1="510.3" y1="97.8" x2="534.1" y2="106.5" fill="none" stroke="#E6E6E6" id="line_26" />
    <line x1="645.8" y1="96.2" x2="650.1" y2="126.6" fill="none" stroke="#E6E6E6" id="line_25" />
    <line x1="650.1" y1="126.6" x2="659.1" y2="156.6" fill="none" stroke="#E6E6E6" id="line_24" />
    <line x1="645.8" y1="96.2" x2="669.6" y2="114.8" fill="none" stroke="#E6E6E6" id="line_23" />
    <line x1="542.5" y1="163.1" x2="553.9" y2="140.2" fill="none" stroke="#E6E6E6" id="line_22" />
    <line x1="542.5" y1="163.1" x2="565.5" y2="163.4" fill="none" stroke="#E6E6E6" id="line_21" />
    <line x1="488.1" y1="193" x2="468" y2="206.3" fill="none" stroke="#E6E6E6" id="line_20" />
    <line x1="99.8" y1="282.5" x2="73.7" y2="286.9" fill="none" stroke="#E6E6E6" id="line_19" />
    <line x1="73.7" y1="286.9" x2="45.4" y2="293.7" fill="none" stroke="#E6E6E6" id="line_18" />
    <line x1="156.3" y1="244.1" x2="151.8" y2="221" fill="none" stroke="#E6E6E6" id="line_17" />
    <line x1="156.3" y1="244.1" x2="173.3" y2="226.8" fill="none" stroke="#E6E6E6" id="line_16" />
    <line x1="156.3" y1="244.1" x2="180.2" y2="246.7" fill="none" stroke="#E6E6E6" id="line_15" />
    <line x1="160.3" y1="277" x2="190.9" y2="280.8" fill="none" stroke="#E6E6E6" id="line_14" />
    <line x1="160.3" y1="277" x2="179.9" y2="300.3" fill="none" stroke="#E6E6E6" id="line_13" />
    <line x1="180.2" y1="246.7" x2="221.7" y2="240.3" fill="none" stroke="#E6E6E6" id="line_12" />
    <line x1="216.1" y1="259.3" x2="180.2" y2="246.7" fill="none" stroke="#E6E6E6" id="line_11" />
    <line x1="325" y1="259.6" x2="300.4" y2="264.9" fill="none" stroke="#E6E6E6" id="line_10" />
    <line x1="300.4" y1="264.9" x2="280.6" y2="288.5" fill="none" stroke="#E6E6E6" id="line_9" />
    <line x1="328.1" y1="297.1" x2="345" y2="285.7" fill="none" stroke="#E6E6E6" id="line_8" />
    <line x1="401.3" y1="263.5" x2="429.9" y2="260.4" fill="none" stroke="#E6E6E6" id="line_7" />
    <line x1="421.7" y1="282.1" x2="401.3" y2="263.5" fill="none" stroke="#E6E6E6" id="line_6" />
    <line x1="510.6" y1="244.5" x2="484.9" y2="241.6" fill="none" stroke="#E6E6E6" id="line_5" />
    <line x1="515.5" y1="274.4" x2="491.2" y2="279.2" fill="none" stroke="#E6E6E6" id="line_4" />
    <line x1="601.4" y1="239.3" x2="627.3" y2="231.4" fill="none" stroke="#E6E6E6" id="line_3" />
    <line x1="627.3" y1="231.4" x2="648.5" y2="207.8" fill="none" stroke="#E6E6E6" id="line_2" />
    <line x1="600.7" y1="266.7" x2="640.3" y2="271" fill="none" stroke="#E6E6E6" id="line_1" />
    <line x1="600.7" y1="266.7" x2="632.6" y2="292.2" fill="none" stroke="#E6E6E6" id="line" />
  </g>
  <g id="g_11">
    <circle cx="306.3" cy="63" r="7.7" fill="#FF0000" id="circle_120" />
    <circle cx="264.8" cy="135.4" r="7.7" fill="#FF0000" id="circle_119" />
    <circle cx="107.5" cy="168.2" r="7.7" fill="#FF0000" id="circle_118" />
    <circle cx="128.8" cy="263.8" r="7.7" fill="#FF0000" id="circle_117" />
    <circle cx="136" cy="65.9" r="7.7" fill="#FF0000" id="circle_116" />
    <circle cx="404.8" cy="147" r="7.7" fill="#FF0000" id="circle_115" />
    <circle cx="363.3" cy="250.3" r="7.7" fill="#FF0000" id="circle_114" />
    <circle cx="556.3" cy="252.2" r="7.7" fill="#FF0000" id="circle_113" />
    <circle cx="482" cy="78.5" r="7.7" fill="#FF0000" id="circle_112" />
    <circle cx="510" cy="168.2" r="7.7" fill="#FF0000" id="circle_111" />
    <circle cx="624.8" cy="61.1" r="7.7" fill="#FF0000" id="circle_110" />
    <circle cx="271.6" cy="64.5" r="7.7" fill="#FF8080" id="circle_109" />
    <circle cx="323.7" cy="32.1" r="7.7" fill="#FF8080" id="circle_108" />
    <circle cx="287" cy="33.1" r="7.7" fill="#FF8080" id="circle_107" />
    <circle cx="342.1" cy="58.4" r="7.7" fill="#FF8080" id="circle_106" />
    <circle cx="244.3" cy="164.4" r="7.7" fill="#FF8080" id="circle_105" />
    <circle cx="279.3" cy="168.2" r="7.7" fill="#FF8080" id="circle_104" />
    <circle cx="298.6" cy="139.3" r="7.7" fill="#FF8080" id="circle_103" />
    <circle cx="247.5" cy="104.5" r="7.7" fill="#FF8080" id="circle_102" />
    <circle cx="157.9" cy="103.4" r="7.7" fill="#FF8080" id="circle_101" />
    <circle cx="178.5" cy="76.1" r="7.7" fill="#FF8080" id="circle_100" />
    <circle cx="176" cy="48.8" r="7.7" fill="#FF8080" id="circle_99" />
    <circle cx="156.3" cy="27.2" r="7.7" fill="#FF8080" id="circle_98" />
    <circle cx="125.1" cy="23.3" r="7.7" fill="#FF8080" id="circle_97" />
    <circle cx="101" cy="38.7" r="7.7" fill="#FF8080" id="circle_96" />
    <circle cx="92.2" cy="64.2" r="7.7" fill="#FF8080" id="circle_95" />
    <circle cx="66.2" cy="64.6" r="4.3" fill="#FFBFBF" id="circle_94" />
    <circle cx="81.5" cy="108.8" r="4.3" fill="#FFBFBF" id="circle_93" />
    <circle cx="81.9" cy="24" r="4.3" fill="#FFBFBF" id="circle_92" />
    <circle cx="182.1" cy="22.4" r="4.3" fill="#FFBFBF" id="circle_91" />
    <circle cx="200.3" cy="37.2" r="4.3" fill="#FFBFBF" id="circle_90" />
    <circle cx="201.7" cy="56.6" r="4.3" fill="#FFBFBF" id="circle_89" />
    <circle cx="201.5" cy="88" r="4.3" fill="#FFBFBF" id="circle_88" />
    <circle cx="182.6" cy="112.8" r="4.3" fill="#FFBFBF" id="circle_87" />
    <circle cx="163.1" cy="127.9" r="4.3" fill="#FFBFBF" id="circle_86" />
    <circle cx="166.6" cy="158.1" r="4.3" fill="#FFBFBF" id="circle_85" />
    <circle cx="54.4" cy="211.2" r="4.3" fill="#FFBFBF" id="circle_84" />
    <circle cx="180.2" cy="246.7" r="4.3" fill="#FFBFBF" id="circle_83" />
    <circle cx="216.1" cy="259.3" r="4.3" fill="#FFBFBF" id="circle_82" />
    <circle cx="221.7" cy="240.3" r="4.3" fill="#FFBFBF" id="circle_81" />
    <circle cx="228.8" cy="180.4" r="4.3" fill="#FFBFBF" id="circle_80" />
    <circle cx="250.7" cy="191.7" r="4.3" fill="#FFBFBF" id="circle_79" />
    <circle cx="296.1" cy="191.1" r="4.3" fill="#FFBFBF" id="circle_78" />
    <circle cx="300.4" cy="264.9" r="4.3" fill="#FFBFBF" id="circle_77" />
    <circle cx="280.6" cy="288.5" r="4.3" fill="#FFBFBF" id="circle_76" />
    <circle cx="328.1" cy="297.1" r="4.3" fill="#FFBFBF" id="circle_75" />
    <circle cx="421.7" cy="282.1" r="4.3" fill="#FFBFBF" id="circle_74" />
    <circle cx="429.9" cy="260.4" r="4.3" fill="#FFBFBF" id="circle_73" />
    <circle cx="484.9" cy="241.6" r="4.3" fill="#FFBFBF" id="circle_72" />
    <circle cx="468" cy="206.3" r="4.3" fill="#FFBFBF" id="circle_71" />
    <circle cx="491.2" cy="279.2" r="4.3" fill="#FFBFBF" id="circle_70" />
    <circle cx="318.7" cy="162.3" r="4.3" fill="#FFBFBF" id="circle_69" />
    <circle cx="328.7" cy="143.9" r="4.3" fill="#FFBFBF" id="circle_68" />
    <circle cx="322.3" cy="120.3" r="4.3" fill="#FFBFBF" id="circle_67" />
    <circle cx="260.2" cy="26.5" r="4.3" fill="#FFBFBF" id="circle_66" />
    <circle cx="361.5" cy="40.5" r="4.3" fill="#FFBFBF" id="circle_65" />
    <circle cx="369.7" cy="66.6" r="4.3" fill="#FFBFBF" id="circle_64" />
    <circle cx="388.4" cy="89.7" r="4.3" fill="#FFBFBF" id="circle_63" />
    <circle cx="410.7" cy="84.4" r="4.3" fill="#FFBFBF" id="circle_62" />
    <circle cx="445" cy="39.1" r="4.3" fill="#FFBFBF" id="circle_61" />
    <circle cx="465.1" cy="24.9" r="4.3" fill="#FFBFBF" id="circle_60" />
    <circle cx="537.5" cy="62.5" r="4.3" fill="#FFBFBF" id="circle_59" />
    <circle cx="534.1" cy="106.5" r="4.3" fill="#FFBFBF" id="circle_58" />
    <circle cx="553.9" cy="140.2" r="4.3" fill="#FFBFBF" id="circle_57" />
    <circle cx="565.5" cy="163.4" r="4.3" fill="#FFBFBF" id="circle_56" />
    <circle cx="632.6" cy="292.2" r="4.3" fill="#FFBFBF" id="circle_55" />
    <circle cx="640.3" cy="271" r="4.3" fill="#FFBFBF" id="circle_54" />
    <circle cx="627.3" cy="231.4" r="4.3" fill="#FFBFBF" id="circle_53" />
    <circle cx="648.5" cy="207.8" r="4.3" fill="#FFBFBF" id="circle_52" />
    <circle cx="650.1" cy="126.6" r="4.3" fill="#FFBFBF" id="circle_51" />
    <circle cx="669.6" cy="114.8" r="4.3" fill="#FFBFBF" id="circle_50" />
    <circle cx="659.1" cy="156.6" r="4.3" fill="#FFBFBF" id="circle_49" />
    <circle cx="430.7" cy="95.2" r="4.3" fill="#FFBFBF" id="circle_48" />
    <circle cx="179.9" cy="300.3" r="4.3" fill="#FFBFBF" id="circle_47" />
    <circle cx="190.9" cy="280.8" r="4.3" fill="#FFBFBF" id="circle_46" />
    <circle cx="73.7" cy="286.9" r="4.3" fill="#FFBFBF" id="circle_45" />
    <circle cx="45.4" cy="293.7" r="4.3" fill="#FFBFBF" id="circle_44" />
    <circle cx="173.3" cy="226.8" r="4.3" fill="#FFBFBF" id="circle_43" />
    <circle cx="151.8" cy="221" r="4.3" fill="#FFBFBF" id="circle_42" />
    <circle cx="71.4" cy="48.3" r="4.3" fill="#FFBFBF" id="circle_41" />
    <circle cx="102.8" cy="94.4" r="7.7" fill="#FF8080" id="circle_40" />
    <circle cx="83.5" cy="134.9" r="7.7" fill="#FF8080" id="circle_39" />
    <circle cx="66.3" cy="165.6" r="7.7" fill="#FF8080" id="circle_38" />
    <circle cx="77.6" cy="196.2" r="7.7" fill="#FF8080" id="circle_37" />
    <circle cx="96.6" cy="251.9" r="7.7" fill="#FF8080" id="circle_36" />
    <circle cx="99.8" cy="282.5" r="7.7" fill="#FF8080" id="circle_35" />
    <circle cx="134.6" cy="296.9" r="7.7" fill="#FF8080" id="circle_34" />
    <circle cx="160.3" cy="277" r="7.7" fill="#FF8080" id="circle_33" />
    <circle cx="156.3" cy="244.1" r="7.7" fill="#FF8080" id="circle_32" />
    <circle cx="325" cy="259.6" r="7.7" fill="#FF8080" id="circle_31" />
    <circle cx="344" cy="214.9" r="7.7" fill="#FF8080" id="circle_30" />
    <circle cx="406.7" cy="114.2" r="7.7" fill="#FF8080" id="circle_29" />
    <circle cx="466.6" cy="48.2" r="7.7" fill="#FF8080" id="circle_28" />
    <circle cx="498.1" cy="48.2" r="7.7" fill="#FF8080" id="circle_27" />
    <circle cx="515.8" cy="71.4" r="7.7" fill="#FF8080" id="circle_26" />
    <circle cx="510.3" cy="97.8" r="7.7" fill="#FF8080" id="circle_25" />
    <circle cx="542.5" cy="163.1" r="7.7" fill="#FF8080" id="circle_24" />
    <circle cx="488.1" cy="193" r="7.7" fill="#FF8080" id="circle_23" />
    <circle cx="510.6" cy="244.5" r="7.7" fill="#FF8080" id="circle_22" />
    <circle cx="515.5" cy="274.4" r="7.7" fill="#FF8080" id="circle_21" />
    <circle cx="538" cy="295" r="7.7" fill="#FF8080" id="circle_20" />
    <circle cx="562.8" cy="298.2" r="7.7" fill="#FF8080" id="circle_19" />
    <circle cx="586.2" cy="287.6" r="7.7" fill="#FF8080" id="circle_18" />
    <circle cx="600.7" cy="266.7" r="7.7" fill="#FF8080" id="circle_17" />
    <circle cx="600.7" cy="239.3" r="7.7" fill="#FF8080" id="circle_16" />
    <circle cx="588.9" cy="80.7" r="7.7" fill="#FF8080" id="circle_15" />
    <circle cx="586" cy="48.5" r="7.7" fill="#FF8080" id="circle_14" />
    <circle cx="606.6" cy="24.6" r="7.7" fill="#FF8080" id="circle_13" />
    <circle cx="638" cy="23" r="7.7" fill="#FF8080" id="circle_12" />
    <circle cx="659.3" cy="40.8" r="7.7" fill="#FF8080" id="circle_11" />
    <circle cx="663.1" cy="71.4" r="7.7" fill="#FF8080" id="circle_10" />
    <circle cx="645.8" cy="96.2" r="7.7" fill="#FF8080" id="circle_9" />
    <circle cx="479.4" cy="155.4" r="7.7" fill="#FF8080" id="circle_8" />
    <circle cx="448.9" cy="74.9" r="7.7" fill="#FF8080" id="circle_7" />
    <circle cx="430.5" cy="167.7" r="7.7" fill="#FF8080" id="circle_6" />
    <circle cx="398" cy="229.4" r="7.7" fill="#FF8080" id="circle_5" />
    <circle cx="401.3" cy="263.5" r="7.7" fill="#FF8080" id="circle_4" />
    <circle cx="378.7" cy="286.9" r="7.7" fill="#FF8080" id="circle_3" />
    <circle cx="345" cy="285.7" r="7.7" fill="#FF8080" id="circle_2" />
    <circle cx="141.6" cy="146.3" r="7.7" fill="#FF8080" id="circle_1" />
    <circle cx="228.2" cy="134.1" r="7.7" fill="#FF8080" id="circle" />
  </g>
  <g id="g">
    <g id="g_10">
	</g>
    <g id="g_9">
	</g>
    <g id="g_8">
	</g>
    <g id="g_7">
	</g>
    <g id="g_6">
	</g>
    <g id="g_5">
	</g>
    <g id="g_4">
	</g>
    <g id="g_3">
	</g>
    <g id="g_2">
	</g>
    <g id="g_1">
	</g>
  </g>
</svg>