<?xml version='1.0' encoding='us-ascii'?>
<svg xmlns="http://www.w3.org/2000/svg" width="880" height="340" viewBox="-440,-170,880,340" style="max-width: 100%; height: auto; font: 10px sans-serif;">
    <line x1="-400" y1="150" x2="400" y2="150" stroke="black" stroke-width="2" id="line_1" />
    <line x1="-400" y1="150" x2="-400" y2="-150" stroke="black" stroke-width="2" id="line" />
    <rect x="-380" y="100" width="100" height="30" fill="skyblue" rx="15" ry="15" id="rect_9" />
    <rect x="-280" y="60" width="150" height="30" fill="lightgreen" rx="15" ry="15" id="rect_8" />
    <rect x="-130" y="20" width="120" height="30" fill="salmon" rx="15" ry="15" id="rect_7" />
    <rect x="10" y="-20" width="160" height="30" fill="plum" rx="15" ry="15" id="rect_6" />
    <rect x="170" y="-60" width="200" height="30" fill="gold" rx="15" ry="15" id="rect_5" />
    <rect x="-380" y="100" width="100" height="30" fill="none" stroke="black" stroke-width="2" rx="15" ry="15" id="rect_4" />
    <rect x="-280" y="60" width="150" height="30" fill="none" stroke="black" stroke-width="2" rx="15" ry="15" id="rect_3" />
    <rect x="-130" y="20" width="120" height="30" fill="none" stroke="black" stroke-width="2" rx="15" ry="15" id="rect_2" />
    <rect x="10" y="-20" width="160" height="30" fill="none" stroke="black" stroke-width="2" rx="15" ry="15" id="rect_1" />
    <rect x="170" y="-60" width="200" height="30" fill="none" stroke="black" stroke-width="2" rx="15" ry="15" id="rect" />
</svg>