<?xml version='1.0' encoding='UTF-8'?>
<svg xmlns="http://www.w3.org/2000/svg" width="900" height="340" viewBox="0,0,850,400" id="svg" tag_name="svg">
  <g data-z-index="0.1" transform="translate(66,51) scale(1 1)" clip-path="url(#highcharts-bbwxnuf-14-)" aria-hidden="false" role="region" tabindex="-1" aria-label="BPL, bar series 1 of 3 with 4 bars." outline="none" opacity="1" id="g_2" tag_name="svg/g_2">
    <path d="M 54.5 112.5 L 134.5 112.5 A 3 3 0 0 1 137.5 115.5 L 137.5 138.5 A 0 0 0 0 1 137.5 138.5 L 51.5 138.5 A 0 0 0 0 1 51.5 138.5 L 51.5 115.5 A 3 3 0 0 1 54.5 112.5 Z" filter="none" tabindex="-1" role="img" aria-label="x, 0, 3. BPL." outline="none" fill="#2caffe" stroke="#ffffff" stroke-width="1" opacity="1" id="path_11" tag_name="svg/g_2/path_11"/>
    <path d="M 233.5 130.5 L 313.5 130.5 A 3 3 0 0 1 316.5 133.5 L 316.5 173.5 A 0 0 0 0 1 316.5 173.5 L 230.5 173.5 A 0 0 0 0 1 230.5 173.5 L 230.5 133.5 A 3 3 0 0 1 233.5 130.5 Z" filter="none" tabindex="-1" role="img" aria-label="x, 1, 5. BPL." outline="none" fill="#2caffe" stroke="#ffffff" stroke-width="1" opacity="1" id="path_10" tag_name="svg/g_2/path_10"/>
    <path d="M 411.5 130.5 L 491.5 130.5 A 3 3 0 0 1 494.5 133.5 L 494.5 138.5 A 0 0 0 0 1 494.5 138.5 L 408.5 138.5 A 0 0 0 0 1 408.5 138.5 L 408.5 133.5 A 3 3 0 0 1 411.5 130.5 Z" filter="none" tabindex="-1" role="img" aria-label="x, 2, 1. BPL." outline="none" fill="#2caffe" stroke="#ffffff" stroke-width="1" opacity="1" id="path_9" tag_name="svg/g_2/path_9"/>
    <path d="M 589.5 17.5 L 669.5 17.5 A 3 3 0 0 1 672.5 20.5 L 672.5 130.5 A 0 0 0 0 1 672.5 130.5 L 586.5 130.5 A 0 0 0 0 1 586.5 130.5 L 586.5 20.5 A 3 3 0 0 1 589.5 17.5 Z" filter="none" tabindex="-1" role="img" aria-label="x, 3, 13. BPL." outline="none" fill="#2caffe" stroke="#ffffff" stroke-width="1" opacity="1" id="path_8" tag_name="svg/g_2/path_8"/>
  </g>
  <g data-z-index="0.1" transform="translate(66,51) scale(1 1)" clip-path="url(#highcharts-bbwxnuf-14-)" aria-hidden="false" role="region" tabindex="-1" aria-label="FA Cup, bar series 2 of 3 with 4 bars." outline="none" opacity="1" id="g_1" tag_name="svg/g_1">
    <path d="M 51.5 138.5 L 137.5 138.5 A 0 0 0 0 1 137.5 138.5 L 137.5 260.5 A 0 0 0 0 1 137.5 260.5 L 51.5 260.5 A 0 0 0 0 1 51.5 260.5 L 51.5 138.5 A 0 0 0 0 1 51.5 138.5 Z" filter="none" tabindex="-1" role="img" aria-label="x, 0, 14. FA Cup." outline="none" fill="#544fc5" stroke="#ffffff" stroke-width="1" opacity="1" id="path_7" tag_name="svg/g_1/path_7"/>
    <path d="M 230.5 173.5 L 316.5 173.5 A 0 0 0 0 1 316.5 173.5 L 316.5 242.5 A 0 0 0 0 1 316.5 242.5 L 230.5 242.5 A 0 0 0 0 1 230.5 242.5 L 230.5 173.5 A 0 0 0 0 1 230.5 173.5 Z" filter="none" tabindex="-1" role="img" aria-label="x, 1, 8. FA Cup." outline="none" fill="#544fc5" stroke="#ffffff" stroke-width="1" opacity="1" id="path_6" tag_name="svg/g_1/path_6"/>
    <path d="M 408.5 138.5 L 494.5 138.5 A 0 0 0 0 1 494.5 138.5 L 494.5 208.5 A 0 0 0 0 1 494.5 208.5 L 408.5 208.5 A 0 0 0 0 1 408.5 208.5 L 408.5 138.5 A 0 0 0 0 1 408.5 138.5 Z" filter="none" tabindex="-1" role="img" aria-label="x, 2, 8. FA Cup." outline="none" fill="#544fc5" stroke="#ffffff" stroke-width="1" opacity="1" id="path_5" tag_name="svg/g_1/path_5"/>
    <path d="M 586.5 130.5 L 672.5 130.5 A 0 0 0 0 1 672.5 130.5 L 672.5 234.5 A 0 0 0 0 1 672.5 234.5 L 586.5 234.5 A 0 0 0 0 1 586.5 234.5 L 586.5 130.5 A 0 0 0 0 1 586.5 130.5 Z" filter="none" tabindex="-1" role="img" aria-label="x, 3, 12. FA Cup." outline="none" fill="#544fc5" stroke="#ffffff" stroke-width="1" opacity="1" id="path_4" tag_name="svg/g_1/path_4"/>
  </g>
  <g data-z-index="0.1" transform="translate(66,51) scale(1 1)" clip-path="url(#highcharts-bbwxnuf-14-)" aria-hidden="false" role="region" tabindex="-1" aria-label="CL, bar series 3 of 3 with 4 bars." outline="none" opacity="1" id="g" tag_name="svg/g">
    <path d="M 51.5 260.5 L 137.5 260.5 A 0 0 0 0 1 137.5 260.5 L 137.5 260.5 A 0 0 0 0 1 137.5 260.5 L 51.5 260.5 A 0 0 0 0 1 51.5 260.5 L 51.5 260.5 A 0 0 0 0 1 51.5 260.5 Z" filter="none" tabindex="-1" role="img" aria-label="x, 0, 0. CL." outline="none" fill="#00e272" stroke="#ffffff" stroke-width="1" opacity="1" id="path_3" tag_name="svg/g/path_3"/>
    <path d="M 230.5 242.5 L 316.5 242.5 A 0 0 0 0 1 316.5 242.5 L 316.5 260.5 A 0 0 0 0 1 316.5 260.5 L 230.5 260.5 A 0 0 0 0 1 230.5 260.5 L 230.5 242.5 A 0 0 0 0 1 230.5 242.5 Z" filter="none" tabindex="-1" role="img" aria-label="x, 1, 2. CL." outline="none" fill="#00e272" stroke="#ffffff" stroke-width="1" opacity="1" id="path_2" tag_name="svg/g/path_2"/>
    <path d="M 408.5 208.5 L 494.5 208.5 A 0 0 0 0 1 494.5 208.5 L 494.5 260.5 A 0 0 0 0 1 494.5 260.5 L 408.5 260.5 A 0 0 0 0 1 408.5 260.5 L 408.5 208.5 A 0 0 0 0 1 408.5 208.5 Z" filter="none" tabindex="-1" role="img" aria-label="x, 2, 6. CL." outline="none" fill="#00e272" stroke="#ffffff" stroke-width="1" opacity="1" id="path_1" tag_name="svg/g/path_1"/>
    <path d="M 586.5 234.5 L 672.5 234.5 A 0 0 0 0 1 672.5 234.5 L 672.5 260.5 A 0 0 0 0 1 672.5 260.5 L 586.5 260.5 A 0 0 0 0 1 586.5 260.5 L 586.5 234.5 A 0 0 0 0 1 586.5 234.5 Z" filter="none" tabindex="-1" role="img" aria-label="x, 3, 3. CL." outline="none" fill="#00e272" stroke="#ffffff" stroke-width="1" opacity="1" id="path" tag_name="svg/g/path"/>
  </g>
</svg>