<?xml version='1.0' encoding='UTF-8'?>
<svg xmlns="http://www.w3.org/2000/svg" width="900" height="340" viewBox="0,0,900,340" id="svg" tag_name="svg">
  <g id="g" tag_name="svg/g">
    <g fill="#fee08b" id="g_6" tag_name="svg/g/g_6">
      <rect x="371" y="45" width="104" height="30" id="rect_45" tag_name="svg/g/g_6/rect_45">
      </rect>
      <rect x="425" y="237" width="50" height="30" id="rect_44" tag_name="svg/g/g_6/rect_44">
      </rect>
      <rect x="309" y="109" width="166" height="30" id="rect_43" tag_name="svg/g/g_6/rect_43">
      </rect>
      <rect x="401" y="205" width="74" height="30" id="rect_42" tag_name="svg/g/g_6/rect_42">
      </rect>
      <rect x="350" y="77" width="125" height="30" id="rect_41" tag_name="svg/g/g_6/rect_41">
      </rect>
      <rect x="309" y="141" width="166" height="30" id="rect_40" tag_name="svg/g/g_6/rect_40">
      </rect>
      <rect x="437" y="301" width="38" height="30" id="rect_39" tag_name="svg/g/g_6/rect_39">
      </rect>
      <rect x="360" y="173" width="115" height="30" id="rect_38" tag_name="svg/g/g_6/rect_38">
      </rect>
      <rect x="433" y="269" width="42" height="30" id="rect_37" tag_name="svg/g/g_6/rect_37">
      </rect>
    </g>
    <g fill="#fc8d59" id="g_5" tag_name="svg/g/g_5">
      <rect x="157" y="45" width="214" height="30" id="rect_36" tag_name="svg/g/g_5/rect_36">
      </rect>
      <rect x="388" y="237" width="37" height="30" id="rect_35" tag_name="svg/g/g_5/rect_35">
      </rect>
      <rect x="239" y="109" width="70" height="30" id="rect_34" tag_name="svg/g/g_5/rect_34">
      </rect>
      <rect x="364" y="205" width="37" height="30" id="rect_33" tag_name="svg/g/g_5/rect_33">
      </rect>
      <rect x="194" y="77" width="156" height="30" id="rect_32" tag_name="svg/g/g_5/rect_32">
      </rect>
      <rect x="275" y="141" width="34" height="30" id="rect_31" tag_name="svg/g/g_5/rect_31">
      </rect>
      <rect x="398" y="301" width="39" height="30" id="rect_30" tag_name="svg/g/g_5/rect_30">
      </rect>
      <rect x="321" y="173" width="39" height="30" id="rect_29" tag_name="svg/g/g_5/rect_29">
      </rect>
      <rect x="392" y="269" width="41" height="30" id="rect_28" tag_name="svg/g/g_5/rect_28">
      </rect>
    </g>
    <g fill="#d53e4f" id="g_4" tag_name="svg/g/g_4">
      <rect x="80" y="45" width="77" height="30" id="rect_27" tag_name="svg/g/g_4/rect_27">
      </rect>
      <rect x="225" y="109" width="14" height="30" id="rect_26" tag_name="svg/g/g_4/rect_26">
      </rect>
    </g>
    <g fill="#e6f598" id="g_3" tag_name="svg/g/g_3">
      <rect x="475" y="45" width="58" height="30" id="rect_25" tag_name="svg/g/g_3/rect_25">
      </rect>
      <rect x="475" y="237" width="188" height="30" id="rect_24" tag_name="svg/g/g_3/rect_24">
      </rect>
      <rect x="475" y="109" width="70" height="30" id="rect_23" tag_name="svg/g/g_3/rect_23">
      </rect>
      <rect x="475" y="205" width="130" height="30" id="rect_22" tag_name="svg/g/g_3/rect_22">
      </rect>
      <rect x="475" y="77" width="63" height="30" id="rect_21" tag_name="svg/g/g_3/rect_21">
      </rect>
      <rect x="475" y="141" width="133" height="30" id="rect_20" tag_name="svg/g/g_3/rect_20">
      </rect>
      <rect x="475" y="301" width="115" height="30" id="rect_19" tag_name="svg/g/g_3/rect_19">
      </rect>
      <rect x="475" y="173" width="77" height="30" id="rect_18" tag_name="svg/g/g_3/rect_18">
      </rect>
      <rect x="475" y="269" width="125" height="30" id="rect_17" tag_name="svg/g/g_3/rect_17">
      </rect>
    </g>
    <g fill="#99d594" id="g_2" tag_name="svg/g/g_2">
      <rect x="533" y="45" width="27" height="30" id="rect_16" tag_name="svg/g/g_2/rect_16">
      </rect>
      <rect x="663" y="237" width="162" height="30" id="rect_15" tag_name="svg/g/g_2/rect_15">
      </rect>
      <rect x="545" y="109" width="124" height="30" id="rect_14" tag_name="svg/g/g_2/rect_14">
      </rect>
      <rect x="605" y="205" width="129" height="30" id="rect_13" tag_name="svg/g/g_2/rect_13">
      </rect>
      <rect x="538" y="77" width="156" height="30" id="rect_12" tag_name="svg/g/g_2/rect_12">
      </rect>
      <rect x="608" y="141" width="67" height="30" id="rect_11" tag_name="svg/g/g_2/rect_11">
      </rect>
      <rect x="590" y="301" width="154" height="30" id="rect_10" tag_name="svg/g/g_2/rect_10">
      </rect>
      <rect x="552" y="173" width="154" height="30" id="rect_9" tag_name="svg/g/g_2/rect_9">
      </rect>
      <rect x="600" y="269" width="167" height="30" id="rect_8" tag_name="svg/g/g_2/rect_8">
      </rect>
    </g>
    <g fill="#3288bd" id="g_1" tag_name="svg/g/g_1">
      <rect x="560" y="45" width="60" height="30" id="rect_7" tag_name="svg/g/g_1/rect_7">
      </rect>
      <rect x="825" y="237" width="62" height="30" id="rect_6" tag_name="svg/g/g_1/rect_6">
      </rect>
      <rect x="669" y="109" width="56" height="30" id="rect_5" tag_name="svg/g/g_1/rect_5">
      </rect>
      <rect x="734" y="205" width="130" height="30" id="rect_4" tag_name="svg/g/g_1/rect_4">
      </rect>
      <rect x="675" y="141" width="100" height="30" id="rect_3" tag_name="svg/g/g_1/rect_3">
      </rect>
      <rect x="744" y="301" width="154" height="30" id="rect_2" tag_name="svg/g/g_1/rect_2">
      </rect>
      <rect x="706" y="173" width="115" height="30" id="rect_1" tag_name="svg/g/g_1/rect_1">
      </rect>
      <rect x="767" y="269" width="125" height="30" id="rect" tag_name="svg/g/g_1/rect">
      </rect>
    </g>
  </g>
</svg>