<?xml version='1.0' encoding='UTF-8'?>
<svg xmlns="http://www.w3.org/2000/svg" width="900" height="340" viewBox="0,0,750,300" id="svg" tag_name="svg">
  <g id="g" tag_name="svg/g">
    <rect x="116" y="275.8" width="109.2" height="12.8" fill="#3996c9" id="rect_75" tag_name="svg/g/rect_75"/>
    <rect x="108.3" y="261.8" width="117" height="12.8" fill="#3996c9" id="rect_74" tag_name="svg/g/rect_74"/>
    <rect x="111" y="247.9" width="114.2" height="12.8" fill="#3996c9" id="rect_73" tag_name="svg/g/rect_73"/>
    <rect x="112.8" y="234" width="112.5" height="12.8" fill="#3996c9" id="rect_72" tag_name="svg/g/rect_72"/>
    <rect x="129.1" y="220.2" width="96.2" height="12.8" fill="#3996c9" id="rect_71" tag_name="svg/g/rect_71"/>
    <rect x="139.4" y="191" width="85.8" height="13.5" fill="#3996c9" id="rect_70" tag_name="svg/g/rect_70"/>
    <rect x="147.1" y="177.2" width="78.1" height="12.8" fill="#3996c9" id="rect_69" tag_name="svg/g/rect_69"/>
    <rect x="145.2" y="162.9" width="80.1" height="13" fill="#3996c9" id="rect_68" tag_name="svg/g/rect_68"/>
    <rect x="150.2" y="149.3" width="75.1" height="12.5" fill="#3996c9" id="rect_67" tag_name="svg/g/rect_67"/>
    <rect x="154.2" y="134.7" width="71.1" height="13.2" fill="#3996c9" id="rect_66" tag_name="svg/g/rect_66"/>
    <rect x="157.9" y="120.5" width="67.5" height="13" fill="#3996c9" id="rect_65" tag_name="svg/g/rect_65"/>
    <rect x="158.9" y="106.7" width="66.5" height="12.8" fill="#3996c9" id="rect_64" tag_name="svg/g/rect_64"/>
    <rect x="169.6" y="92.7" width="55.8" height="12.9" fill="#3996c9" id="rect_63" tag_name="svg/g/rect_63"/>
    <rect x="181.2" y="78.7" width="44.1" height="12.9" fill="#3996c9" id="rect_62" tag_name="svg/g/rect_62"/>
    <rect x="190.6" y="64.3" width="34.8" height="13.2" fill="#3996c9" id="rect_61" tag_name="svg/g/rect_61"/>
    <rect x="202.6" y="50" width="22.8" height="13.2" fill="#3996c9" id="rect_60" tag_name="svg/g/rect_60"/>
    <rect x="209.6" y="36.3" width="15.8" height="12.4" fill="#3996c9" id="rect_59" tag_name="svg/g/rect_59"/>
    <rect x="217.6" y="22.1" width="7.8" height="13" fill="#3996c9" id="rect_58" tag_name="svg/g/rect_58"/>
    <rect x="135.2" y="205.5" width="90" height="13.2" fill="#3996c9" id="rect_57" tag_name="svg/g/rect_57"/>
    <rect x="225.2" y="275.8" width="123.9" height="12.8" fill="#ed2d80" id="rect_56" tag_name="svg/g/rect_56"/>
    <rect x="225.2" y="261.8" width="114.7" height="12.8" fill="#ed2d80" id="rect_55" tag_name="svg/g/rect_55"/>
    <rect x="225.2" y="247.9" width="110.4" height="12.8" fill="#ed2d80" id="rect_54" tag_name="svg/g/rect_54"/>
    <rect x="225.2" y="234" width="104" height="12.8" fill="#ed2d80" id="rect_53" tag_name="svg/g/rect_53"/>
    <rect x="225.2" y="220.2" width="94.7" height="12.8" fill="#ed2d80" id="rect_52" tag_name="svg/g/rect_52"/>
    <rect x="225.2" y="191" width="83.8" height="13.5" fill="#ed2d80" id="rect_51" tag_name="svg/g/rect_51"/>
    <rect x="225.2" y="177.2" width="80.1" height="12.8" fill="#ed2d80" id="rect_50" tag_name="svg/g/rect_50"/>
    <rect x="225.2" y="162.9" width="82.6" height="13" fill="#ed2d80" id="rect_49" tag_name="svg/g/rect_49"/>
    <rect x="225.2" y="149.3" width="73.1" height="12.5" fill="#ed2d80" id="rect_48" tag_name="svg/g/rect_48"/>
    <rect x="225.2" y="134.7" width="68.1" height="13.2" fill="#ed2d80" id="rect_47" tag_name="svg/g/rect_47"/>
    <rect x="225.2" y="120.5" width="65" height="13" fill="#ed2d80" id="rect_46" tag_name="svg/g/rect_46"/>
    <rect x="225.2" y="106.7" width="61" height="12.8" fill="#ed2d80" id="rect_45" tag_name="svg/g/rect_45"/>
    <rect x="225.2" y="92.7" width="55.8" height="12.9" fill="#ed2d80" id="rect_44" tag_name="svg/g/rect_44"/>
    <rect x="225.2" y="78.7" width="50.3" height="12.9" fill="#ed2d80" id="rect_43" tag_name="svg/g/rect_43"/>
    <rect x="225.2" y="64.3" width="39.3" height="13.2" fill="#ed2d80" id="rect_42" tag_name="svg/g/rect_42"/>
    <rect x="225.2" y="50" width="29.1" height="13.2" fill="#ed2d80" id="rect_41" tag_name="svg/g/rect_41"/>
    <rect x="225.2" y="36.3" width="18.3" height="12.4" fill="#ed2d80" id="rect_40" tag_name="svg/g/rect_40"/>
    <rect x="225.3" y="22.1" width="11.1" height="13" fill="#ed2d80" id="rect_39" tag_name="svg/g/rect_39"/>
    <rect x="225.2" y="205.5" width="87" height="13.2" fill="#ed2d80" id="rect_38" tag_name="svg/g/rect_38"/>
    <rect x="461.8" y="275.8" width="85" height="12.8" fill="#3996c9" id="rect_37" tag_name="svg/g/rect_37"/>
    <rect x="458.8" y="261.8" width="88.1" height="12.8" fill="#3996c9" id="rect_36" tag_name="svg/g/rect_36"/>
    <rect x="459.2" y="247.9" width="87.7" height="12.8" fill="#3996c9" id="rect_35" tag_name="svg/g/rect_35"/>
    <rect x="460.5" y="234" width="86.3" height="12.8" fill="#3996c9" id="rect_34" tag_name="svg/g/rect_34"/>
    <rect x="463.9" y="220.2" width="83" height="12.8" fill="#3996c9" id="rect_33" tag_name="svg/g/rect_33"/>
    <rect x="444.6" y="191" width="102.2" height="13.5" fill="#3996c9" id="rect_32" tag_name="svg/g/rect_32"/>
    <rect x="449" y="177.2" width="97.8" height="12.8" fill="#3996c9" id="rect_31" tag_name="svg/g/rect_31"/>
    <rect x="446.7" y="162.9" width="100.3" height="13" fill="#3996c9" id="rect_30" tag_name="svg/g/rect_30"/>
    <rect x="449.9" y="149.3" width="97.1" height="12.5" fill="#3996c9" id="rect_29" tag_name="svg/g/rect_29"/>
    <rect x="459.3" y="134.7" width="87.7" height="13.2" fill="#3996c9" id="rect_28" tag_name="svg/g/rect_28"/>
    <rect x="467.4" y="120.5" width="79.6" height="13" fill="#3996c9" id="rect_27" tag_name="svg/g/rect_27"/>
    <rect x="468.6" y="106.7" width="78.4" height="12.8" fill="#3996c9" id="rect_26" tag_name="svg/g/rect_26"/>
    <rect x="480.6" y="92.7" width="66.4" height="12.9" fill="#3996c9" id="rect_25" tag_name="svg/g/rect_25"/>
    <rect x="497.3" y="78.7" width="49.7" height="12.9" fill="#3996c9" id="rect_24" tag_name="svg/g/rect_24"/>
    <rect x="511" y="64.3" width="36" height="13.2" fill="#3996c9" id="rect_23" tag_name="svg/g/rect_23"/>
    <rect x="523.4" y="50" width="23.6" height="13.2" fill="#3996c9" id="rect_22" tag_name="svg/g/rect_22"/>
    <rect x="533.7" y="36.3" width="13.3" height="12.4" fill="#3996c9" id="rect_21" tag_name="svg/g/rect_21"/>
    <rect x="541.3" y="22.1" width="5.7" height="13" fill="#3996c9" id="rect_20" tag_name="svg/g/rect_20"/>
    <rect x="451.7" y="205.5" width="95.2" height="13.2" fill="#3996c9" id="rect_19" tag_name="svg/g/rect_19"/>
    <rect x="546.9" y="275.8" width="88.1" height="12.8" fill="#ed2d80" id="rect_18" tag_name="svg/g/rect_18"/>
    <rect x="546.9" y="261.8" width="96.2" height="12.8" fill="#ed2d80" id="rect_17" tag_name="svg/g/rect_17"/>
    <rect x="546.9" y="247.9" width="90.7" height="12.8" fill="#ed2d80" id="rect_16" tag_name="svg/g/rect_16"/>
    <rect x="546.9" y="234" width="90.9" height="12.8" fill="#ed2d80" id="rect_15" tag_name="svg/g/rect_15"/>
    <rect x="546.9" y="220.2" width="87.3" height="12.8" fill="#ed2d80" id="rect_14" tag_name="svg/g/rect_14"/>
    <rect x="546.9" y="191" width="92.8" height="13.5" fill="#ed2d80" id="rect_13" tag_name="svg/g/rect_13"/>
    <rect x="546.9" y="177.2" width="99.2" height="12.8" fill="#ed2d80" id="rect_12" tag_name="svg/g/rect_12"/>
    <rect x="546.9" y="162.9" width="104.7" height="13" fill="#ed2d80" id="rect_11" tag_name="svg/g/rect_11"/>
    <rect x="546.9" y="149.3" width="95.4" height="12.5" fill="#ed2d80" id="rect_10" tag_name="svg/g/rect_10"/>
    <rect x="546.9" y="134.7" width="84" height="13.2" fill="#ed2d80" id="rect_9" tag_name="svg/g/rect_9"/>
    <rect x="546.9" y="120.5" width="76.8" height="13" fill="#ed2d80" id="rect_8" tag_name="svg/g/rect_8"/>
    <rect x="546.9" y="106.7" width="72.1" height="12.8" fill="#ed2d80" id="rect_7" tag_name="svg/g/rect_7"/>
    <rect x="546.9" y="92.7" width="65.4" height="12.9" fill="#ed2d80" id="rect_6" tag_name="svg/g/rect_6"/>
    <rect x="546.9" y="78.7" width="56.3" height="12.9" fill="#ed2d80" id="rect_5" tag_name="svg/g/rect_5"/>
    <rect x="546.9" y="64.3" width="46.8" height="13.2" fill="#ed2d80" id="rect_4" tag_name="svg/g/rect_4"/>
    <rect x="546.9" y="50" width="34.7" height="13.2" fill="#ed2d80" id="rect_3" tag_name="svg/g/rect_3"/>
    <rect x="546.9" y="36.3" width="21.8" height="12.4" fill="#ed2d80" id="rect_2" tag_name="svg/g/rect_2"/>
    <rect x="546.9" y="22.1" width="13.2" height="13" fill="#ed2d80" id="rect_1" tag_name="svg/g/rect_1"/>
    <rect x="546.9" y="205.5" width="88.9" height="13.2" fill="#ed2d80" id="rect" tag_name="svg/g/rect"/>
  </g>
</svg>