<?xml version='1.0' encoding='UTF-8'?>
<svg xmlns="http://www.w3.org/2000/svg" width="900" height="auto" viewBox="-90,-30,880,340" max-width="100%" font="10px sans-serif" id="svg" tag_name="svg">
  <g fill="#FF0000" id="g" tag_name="svg/g">
    <polygon points="105.6,14.6 109.3,25.9 121.1,25.9 111.6,32.8 115.2,44.1 105.6,37.1 96,44.1 99.7,32.8 90.1,25.9    102,25.9  " max-width="100%" height="auto" font="10px sans-serif" id="polygon_46" tag_name="svg/g/polygon_46"/>
    <polygon points="141.7,14.6 145.4,25.9 157.2,25.9 147.6,32.8 151.3,44.1 141.7,37.1 132.1,44.1 135.8,32.8    126.2,25.9 138,25.9  " max-width="100%" height="auto" font="10px sans-serif" id="polygon_45" tag_name="svg/g/polygon_45"/>
    <polygon points="177,14.6 180.6,25.9 192.5,25.9 182.9,32.8 186.6,44.1 177,37.1 167.4,44.1 171.1,32.8 161.5,25.9    173.3,25.9  " max-width="100%" height="auto" font="10px sans-serif" id="polygon_44" tag_name="svg/g/polygon_44"/>
    <polygon points="213.5,14.6 217.2,25.9 229,25.9 219.4,32.8 223.1,44.1 213.5,37.1 203.9,44.1 207.6,32.8 198,25.9    209.8,25.9  " max-width="100%" height="auto" font="10px sans-serif" id="polygon_43" tag_name="svg/g/polygon_43"/>
    <polygon points="250.5,14.6 254.2,25.9 266,25.9 256.4,32.8 260.1,44.1 250.5,37.1 240.9,44.1 244.6,32.8 235,25.9    246.8,25.9  " max-width="100%" height="auto" font="10px sans-serif" id="polygon_42" tag_name="svg/g/polygon_42"/>
    <polygon points="285.6,14.6 289.3,25.9 301.1,25.9 291.6,32.8 295.2,44.1 285.6,37.1 276,44.1 279.7,32.8 270.1,25.9    282,25.9  " max-width="100%" height="auto" font="10px sans-serif" id="polygon_41" tag_name="svg/g/polygon_41"/>
    <polygon points="319.3,14.6 323,25.9 334.8,25.9 325.2,32.8 328.9,44.1 319.3,37.1 309.7,44.1 313.4,32.8 303.8,25.9    315.6,25.9  " max-width="100%" height="auto" font="10px sans-serif" id="polygon_40" tag_name="svg/g/polygon_40"/>
    <polygon points="354.1,14.6 357.8,25.9 369.6,25.9 360,32.8 363.7,44.1 354.1,37.1 344.5,44.1 348.2,32.8 338.6,25.9    350.4,25.9  " max-width="100%" height="auto" font="10px sans-serif" id="polygon_39" tag_name="svg/g/polygon_39"/>
    <circle cx="105.6" cy="75.2" r="13.2" max-width="100%" height="auto" font="10px sans-serif" id="circle_15" tag_name="svg/g/circle_15"/>
    <circle cx="141.7" cy="75.2" r="13.2" max-width="100%" height="auto" font="10px sans-serif" id="circle_14" tag_name="svg/g/circle_14"/>
    <circle cx="177" cy="75.2" r="13.2" max-width="100%" height="auto" font="10px sans-serif" id="circle_13" tag_name="svg/g/circle_13"/>
    <circle cx="213.5" cy="75.2" r="13.2" max-width="100%" height="auto" font="10px sans-serif" id="circle_12" tag_name="svg/g/circle_12"/>
    <circle cx="250.5" cy="75.2" r="13.2" max-width="100%" height="auto" font="10px sans-serif" id="circle_11" tag_name="svg/g/circle_11"/>
    <circle cx="285.6" cy="75.2" r="13.2" max-width="100%" height="auto" font="10px sans-serif" id="circle_10" tag_name="svg/g/circle_10"/>
    <circle cx="319.3" cy="75.2" r="13.2" max-width="100%" height="auto" font="10px sans-serif" id="circle_9" tag_name="svg/g/circle_9"/>
    <ellipse cx="354.1" cy="75.2" rx="13.2" ry="13.2" max-width="100%" height="auto" font="10px sans-serif" id="ellipse" tag_name="svg/g/ellipse"/>
    <circle cx="389.1" cy="75.2" r="13.2" max-width="100%" height="auto" font="10px sans-serif" id="circle_8" tag_name="svg/g/circle_8"/>
    <circle cx="424.5" cy="75.2" r="13.2" max-width="100%" height="auto" font="10px sans-serif" id="circle_7" tag_name="svg/g/circle_7"/>
    <circle cx="459.8" cy="75.2" r="13.2" max-width="100%" height="auto" font="10px sans-serif" id="circle_6" tag_name="svg/g/circle_6"/>
    <circle cx="495.1" cy="75.2" r="13.2" max-width="100%" height="auto" font="10px sans-serif" id="circle_5" tag_name="svg/g/circle_5"/>
    <circle cx="530.4" cy="75.2" r="13.2" max-width="100%" height="auto" font="10px sans-serif" id="circle_4" tag_name="svg/g/circle_4"/>
    <circle cx="565.7" cy="75.2" r="13.2" max-width="100%" height="auto" font="10px sans-serif" id="circle_3" tag_name="svg/g/circle_3"/>
    <circle cx="601" cy="75.2" r="13.2" max-width="100%" height="auto" font="10px sans-serif" id="circle_2" tag_name="svg/g/circle_2"/>
    <circle cx="636.4" cy="75.2" r="13.2" max-width="100%" height="auto" font="10px sans-serif" id="circle_1" tag_name="svg/g/circle_1"/>
    <circle cx="671.4" cy="75.2" r="13.2" max-width="100%" height="auto" font="10px sans-serif" id="circle" tag_name="svg/g/circle"/>
    <polygon points="98.7,131.9 91.7,119.8 98.7,107.7 112.6,107.7 119.6,119.8 112.6,131.9  " max-width="100%" height="auto" font="10px sans-serif" id="polygon_38" tag_name="svg/g/polygon_38"/>
    <polygon points="134.7,131.9 127.7,119.8 134.7,107.7 148.7,107.7 155.6,119.8 148.7,131.9  " max-width="100%" height="auto" font="10px sans-serif" id="polygon_37" tag_name="svg/g/polygon_37"/>
    <polygon points="170,131.9 163,119.8 170,107.7 184,107.7 190.9,119.8 184,131.9  " max-width="100%" height="auto" font="10px sans-serif" id="polygon_36" tag_name="svg/g/polygon_36"/>
    <polygon points="206.5,131.9 199.6,119.8 206.5,107.7 220.5,107.7 227.5,119.8 220.5,131.9  " max-width="100%" height="auto" font="10px sans-serif" id="polygon_35" tag_name="svg/g/polygon_35"/>
    <polygon points="243.5,131.9 236.6,119.8 243.5,107.7 257.5,107.7 264.4,119.8 257.5,131.9  " max-width="100%" height="auto" font="10px sans-serif" id="polygon_34" tag_name="svg/g/polygon_34"/>
    <polygon points="92.2,173.5 105.6,150.3 119.1,173.5  " fill="#FF0000" id="polygon_33" tag_name="svg/g/polygon_33"/>
    <polygon points="128.3,173.5 141.7,150.3 155.1,173.5  " fill="#FF0000" id="polygon_32" tag_name="svg/g/polygon_32"/>
    <polygon points="163.6,173.5 177,150.3 190.4,173.5  " fill="#FF0000" id="polygon_31" tag_name="svg/g/polygon_31"/>
    <polygon points="200.1,173.5 213.5,150.3 226.9,173.5  " fill="#FF0000" id="polygon_30" tag_name="svg/g/polygon_30"/>
    <polygon points="237.1,173.5 250.5,150.3 263.9,173.5  " fill="#FF0000" id="polygon_29" tag_name="svg/g/polygon_29"/>
    <polygon points="272.2,173.5 285.6,150.3 299,173.5  " fill="#FF0000" id="polygon_28" tag_name="svg/g/polygon_28"/>
    <polygon points="305.9,173.5 319.3,150.3 332.7,173.5  " fill="#FF0000" id="polygon_27" tag_name="svg/g/polygon_27"/>
    <polygon points="340.7,173.5 354.1,150.3 367.5,173.5  " fill="#FF0000" id="polygon_26" tag_name="svg/g/polygon_26"/>
    <polygon points="376.8,173.5 390.2,150.3 403.6,173.5  " fill="#FF0000" id="polygon_25" tag_name="svg/g/polygon_25"/>
    <polygon points="412.4,173.5 425.9,150.3 439.3,173.5  " fill="#FF0000" id="polygon_24" tag_name="svg/g/polygon_24"/>
    <polygon points="448.1,173.5 461.5,150.3 475,173.5  " fill="#FF0000" id="polygon_23" tag_name="svg/g/polygon_23"/>
    <polygon points="483.2,173.5 496.7,150.3 510.1,173.5  " fill="#FF0000" id="polygon_22" tag_name="svg/g/polygon_22"/>
    <rect x="92.4" y="192" width="26.5" height="auto" max-width="100%" font="10px sans-serif" id="rect_9" tag_name="svg/g/rect_9"/>
    <rect x="128.4" y="192" width="26.5" height="auto" max-width="100%" font="10px sans-serif" id="rect_8" tag_name="svg/g/rect_8"/>
    <rect x="163.7" y="192" width="26.5" height="auto" max-width="100%" font="10px sans-serif" id="rect_7" tag_name="svg/g/rect_7"/>
    <rect x="200.3" y="192" width="26.5" height="auto" max-width="100%" font="10px sans-serif" id="rect_6" tag_name="svg/g/rect_6"/>
    <rect x="237.2" y="192" width="26.5" height="auto" max-width="100%" font="10px sans-serif" id="rect_5" tag_name="svg/g/rect_5"/>
    <rect x="272.4" y="192" width="26.5" height="auto" max-width="100%" font="10px sans-serif" id="rect_4" tag_name="svg/g/rect_4"/>
    <rect x="306.1" y="192" width="26.5" height="auto" max-width="100%" font="10px sans-serif" id="rect_3" tag_name="svg/g/rect_3"/>
    <rect x="340.8" y="192" width="26.5" height="auto" max-width="100%" font="10px sans-serif" id="rect_2" tag_name="svg/g/rect_2"/>
    <rect x="376.9" y="192" width="26.5" height="auto" max-width="100%" font="10px sans-serif" id="rect_1" tag_name="svg/g/rect_1"/>
    <rect x="412.6" y="192" width="26.5" height="auto" max-width="100%" font="10px sans-serif" id="rect" tag_name="svg/g/rect"/>
    <polygon points="105.6,232.6 108.5,242.6 118.6,240.1 111.4,247.6 118.6,255.1 108.5,252.6 105.6,262.6 102.8,252.6    92.6,255.1 99.9,247.6 92.6,240.1 102.8,242.6  " max-width="100%" height="auto" font="10px sans-serif" id="polygon_21" tag_name="svg/g/polygon_21"/>
    <polygon points="141.7,232.6 144.6,242.6 154.7,240.1 147.4,247.6 154.7,255.1 144.6,252.6 141.7,262.6 138.8,252.6    128.7,255.1 135.9,247.6 128.7,240.1 138.8,242.6  " max-width="100%" height="auto" font="10px sans-serif" id="polygon_20" tag_name="svg/g/polygon_20"/>
    <polygon points="177,232.6 179.9,242.6 190,240.1 182.7,247.6 190,255.1 179.9,252.6 177,262.6 174.1,252.6 164,255.1    171.2,247.6 164,240.1 174.1,242.6  " max-width="100%" height="auto" font="10px sans-serif" id="polygon_19" tag_name="svg/g/polygon_19"/>
    <polygon points="213.5,232.6 216.4,242.6 226.5,240.1 219.2,247.6 226.5,255.1 216.4,252.6 213.5,262.6 210.6,252.6    200.5,255.1 207.8,247.6 200.5,240.1 210.6,242.6  " max-width="100%" height="auto" font="10px sans-serif" id="polygon_18" tag_name="svg/g/polygon_18"/>
    <polygon points="250.5,232.6 253.4,242.6 263.5,240.1 256.2,247.6 263.5,255.1 253.4,252.6 250.5,262.6 247.6,252.6    237.5,255.1 244.8,247.6 237.5,240.1 247.6,242.6  " max-width="100%" height="auto" font="10px sans-serif" id="polygon_17" tag_name="svg/g/polygon_17"/>
    <polygon points="285.6,232.6 288.5,242.6 298.6,240.1 291.4,247.6 298.6,255.1 288.5,252.6 285.6,262.6 282.8,252.6    272.6,255.1 279.9,247.6 272.6,240.1 282.8,242.6  " max-width="100%" height="auto" font="10px sans-serif" id="polygon_16" tag_name="svg/g/polygon_16"/>
    <polygon points="319.3,232.6 322.2,242.6 332.3,240.1 325.1,247.6 332.3,255.1 322.2,252.6 319.3,262.6 316.4,252.6    306.3,255.1 313.6,247.6 306.3,240.1 316.4,242.6  " max-width="100%" height="auto" font="10px sans-serif" id="polygon_15" tag_name="svg/g/polygon_15"/>
    <polygon points="354.1,232.6 357,242.6 367.1,240.1 359.8,247.6 367.1,255.1 357,252.6 354.1,262.6 351.2,252.6    341.1,255.1 348.4,247.6 341.1,240.1 351.2,242.6  " max-width="100%" height="auto" font="10px sans-serif" id="polygon_14" tag_name="svg/g/polygon_14"/>
    <polygon points="97.7,300.3 92.8,285.2 105.6,275.8 118.5,285.2 113.6,300.3  " max-width="100%" height="auto" font="10px sans-serif" id="polygon_13" tag_name="svg/g/polygon_13"/>
    <polygon points="133.7,300.3 128.8,285.2 141.7,275.8 154.5,285.2 149.6,300.3  " max-width="100%" height="auto" font="10px sans-serif" id="polygon_12" tag_name="svg/g/polygon_12"/>
    <polygon points="169,300.3 164.1,285.2 177,275.8 189.8,285.2 184.9,300.3  " max-width="100%" height="auto" font="10px sans-serif" id="polygon_11" tag_name="svg/g/polygon_11"/>
    <polygon points="205.6,300.3 200.7,285.2 213.5,275.8 226.4,285.2 221.5,300.3  " max-width="100%" height="auto" font="10px sans-serif" id="polygon_10" tag_name="svg/g/polygon_10"/>
    <polygon points="242.6,300.3 237.6,285.2 250.5,275.8 263.4,285.2 258.4,300.3  " max-width="100%" height="auto" font="10px sans-serif" id="polygon_9" tag_name="svg/g/polygon_9"/>
    <polygon points="277.7,300.3 272.8,285.2 285.6,275.8 298.5,285.2 293.6,300.3  " max-width="100%" height="auto" font="10px sans-serif" id="polygon_8" tag_name="svg/g/polygon_8"/>
    <polygon points="311.4,300.3 306.5,285.2 319.3,275.8 332.2,285.2 327.3,300.3  " max-width="100%" height="auto" font="10px sans-serif" id="polygon_7" tag_name="svg/g/polygon_7"/>
    <polygon points="346.1,300.3 341.2,285.2 354.1,275.8 366.9,285.2 362,300.3  " max-width="100%" height="auto" font="10px sans-serif" id="polygon_6" tag_name="svg/g/polygon_6"/>
    <polygon points="382.2,300.3 377.3,285.2 390.2,275.8 403,285.2 398.1,300.3  " max-width="100%" height="auto" font="10px sans-serif" id="polygon_5" tag_name="svg/g/polygon_5"/>
    <polygon points="417.9,300.3 413,285.2 425.9,275.8 438.7,285.2 433.8,300.3  " max-width="100%" height="auto" font="10px sans-serif" id="polygon_4" tag_name="svg/g/polygon_4"/>
    <polygon points="453.6,300.3 448.7,285.2 461.6,275.8 474.4,285.2 469.5,300.3  " max-width="100%" height="auto" font="10px sans-serif" id="polygon_3" tag_name="svg/g/polygon_3"/>
    <polygon points="488.7,300.3 483.8,285.2 496.7,275.8 509.5,285.2 504.6,300.3  " max-width="100%" height="auto" font="10px sans-serif" id="polygon_2" tag_name="svg/g/polygon_2"/>
    <polygon points="523.6,300.3 518.7,285.2 531.6,275.8 544.4,285.2 539.5,300.3  " max-width="100%" height="auto" font="10px sans-serif" id="polygon_1" tag_name="svg/g/polygon_1"/>
    <polygon points="558.2,300.3 553.3,285.2 566.1,275.8 579,285.2 574.1,300.3  " max-width="100%" height="auto" font="10px sans-serif" id="polygon" tag_name="svg/g/polygon"/>
  </g>
</svg>