<?xml version='1.0' encoding='UTF-8'?>
<svg xmlns="http://www.w3.org/2000/svg" width="900" height="340" viewBox="0,0,750,300" id="svg" tag_name="svg">
  <rect x="63.2" y="273.2" width="34" height="11.2" fill="#e25959" id="rect_16" tag_name="svg/rect_16"/>
  <rect x="99.7" y="264.8" width="34" height="19.7" fill="#e25959" id="rect_15" tag_name="svg/rect_15"/>
  <rect x="136.4" y="267.6" width="34" height="16.9" fill="#e25959" id="rect_14" tag_name="svg/rect_14"/>
  <rect x="173.2" y="247.5" width="34" height="37" fill="#e25959" id="rect_13" tag_name="svg/rect_13"/>
  <rect x="210.4" y="200.1" width="34" height="84.4" fill="#e25959" id="rect_12" tag_name="svg/rect_12"/>
  <rect x="246.7" y="171" width="34" height="113.4" fill="#e25959" id="rect_11" tag_name="svg/rect_11"/>
  <rect x="283.8" y="178.5" width="34" height="105.9" fill="#e25959" id="rect_10" tag_name="svg/rect_10"/>
  <rect x="320.5" y="65.1" width="34" height="219.4" fill="#e25959" id="rect_9" tag_name="svg/rect_9"/>
  <rect x="357.3" y="31" width="34" height="253.5" fill="#e25959" id="rect_8" tag_name="svg/rect_8"/>
  <rect x="394" y="78.2" width="34" height="206.3" fill="#e25959" id="rect_7" tag_name="svg/rect_7"/>
  <rect x="430.7" y="88.5" width="34" height="195.9" fill="#e25959" id="rect_6" tag_name="svg/rect_6"/>
  <rect x="467.7" y="149.5" width="34" height="135" fill="#e25959" id="rect_5" tag_name="svg/rect_5"/>
  <rect x="504.2" y="209.5" width="34" height="75" fill="#e25959" id="rect_4" tag_name="svg/rect_4"/>
  <rect x="541.2" y="252.6" width="34" height="31.9" fill="#e25959" id="rect_3" tag_name="svg/rect_3"/>
  <rect x="578" y="262.9" width="34" height="21.6" fill="#e25959" id="rect_2" tag_name="svg/rect_2"/>
  <rect x="614.7" y="261" width="34" height="23.4" fill="#e25959" id="rect_1" tag_name="svg/rect_1"/>
  <rect x="651.4" y="269.5" width="34" height="15" fill="#e25959" id="rect" tag_name="svg/rect"/>
</svg>