<svg xmlns="http://www.w3.org/2000/svg" xmlns:xlink="http://www.w3.org/1999/xlink" aria-hidden="false" aria-label="Interactive chart" class="highcharts-root" height="400" style="font-family: -apple-system, BlinkMacSystemFont, ">
  Segoe UI", Roboto, Helvetica, Arial, "Apple Color Emoji", "Segoe UI Emoji", "Segoe UI Symbol", sans-serif; font-size: 1rem;" version="1.1" viewBox="0 0 600 400" width="600" id="svg" tag_name="svg">
  <g aria-hidden="false" class="highcharts-series-group" data-z-index="3" filter="none" id="g_8" tag_name="svg/g_8">
    <g aria-hidden="false" aria-label="Gold medals, bar series 1 of 3 with 5 bars." class="highcharts-series highcharts-series-0 highcharts-column-series highcharts-color-0" clip-path="url(#highcharts-h7b1ipc-47)" data-z-index="0.1" id="g_11" opacity="1" role="region" style="outline: none;" tabindex="-1" tag_name="svg/g_8/g_11" transform="translate(10,68) scale(1 1)">
      <path aria-label="Norway , 148. Gold medals." class="highcharts-point highcharts-color-0 reveliogood" d="M 290 30.174380504932557 A 6.545000000000002 6.545000000000002 0 0 1 296.9433913043478 23.64151670958063 A 114.07000000000001 114.07000000000001 0 0 1 403.356824771074 150.23558706224497 A 6.545000000000002 6.545000000000002 0 0 1 395.72746869992955 155.9523971967172 L 395.72746869992955 155.9523971967172 A 6.545000000000002 6.545000000000002 0 0 1 390.34866455144254 148.77412625182342 A 100.98 100.98 0 0 0 296.14660869565216 36.707244300284486 A 6.545000000000002 6.545000000000002 0 0 1 290 30.174380504932557 Z" fill="#FFD700" filter="none" id="path_14" opacity="1" role="img" style="outline: none;" tabindex="-1" tag_name="svg/g_8/g_11/path_14"/>
      <path aria-label="United States , 113. Gold medals." class="highcharts-point highcharts-color-0 reveliogood" d="M 290 48.916459768193945 A 6.545000000000002 6.545000000000002 0 0 1 297.02726315789477 42.389251540587196 A 95.37 95.37 0 0 1 380.72762360942363 108.10722513632382 A 6.545000000000002 6.545000000000002 0 0 1 376.0540981310608 116.48248837636206 L 376.0540981310608 116.48248837636206 A 6.545000000000002 6.545000000000002 0 0 1 368.2748125257773 112.1415275685931 A 82.28 82.28 0 0 0 296.06273684210527 55.44366799580072 A 6.545000000000002 6.545000000000002 0 0 1 290 48.916459768193945 Z" fill="#FFD700" filter="none" id="path_13" opacity="1" role="img" style="outline: none;" tabindex="-1" tag_name="svg/g_8/g_11/path_13"/>
      <path aria-label="Germany , 104. Gold medals." class="highcharts-point highcharts-color-0 reveliogood" d="M 290 67.68110141229668 A 6.545000000000002 6.545000000000002 0 0 1 297.15586666666667 61.164670877444365 A 76.67 76.67 0 0 1 359.39847977098475 104.90951203991844 A 6.545000000000002 6.545000000000002 0 0 1 355.6912589907354 113.84969149858446 L 355.6912589907354 113.84969149858446 A 6.545000000000002 6.545000000000002 0 0 1 347.54995883447515 110.47374169163967 A 63.58 63.58 0 0 0 295.9341333333333 74.197531947149 A 6.545000000000002 6.545000000000002 0 0 1 290 67.68110141229668 Z" fill="#FFD700" filter="none" id="path_12" opacity="1" role="img" style="outline: none;" tabindex="-1" tag_name="svg/g_8/g_11/path_12"/>
      <path aria-label="Austria , 71. Gold medals." class="highcharts-point highcharts-color-0 reveliogood" d="M 290 86.49320045327289 A 6.544999999999998 6.544999999999998 0 0 1 297.378 80.00142596550762 A 57.97 57.97 0 0 1 327.7353502402556 93.4935886234149 A 6.544999999999998 6.544999999999998 0 0 1 327.86073034375767 103.32020044182137 L 327.86073034375767 103.32020044182137 A 6.544999999999998 6.544999999999998 0 0 1 319.2144647021334 103.43052022457928 A 44.88 44.88 0 0 0 295.712 92.98497494103816 A 6.544999999999998 6.544999999999998 0 0 1 290 86.49320045327289 Z" fill="#FFD700" filter="none" id="path_11" opacity="1" role="img" style="outline: none;" tabindex="-1" tag_name="svg/g_8/g_11/path_11"/>
      <path aria-label="Canada , 77. Gold medals." class="highcharts-point highcharts-color-0 reveliogood reveliogood_4" d="M 290 105.4361792669682 A 6.544999999999998 6.544999999999998 0 0 1 297.854 99.02341512036185 A 39.269999999999996 39.269999999999996 0 0 1 315.4715184376244 107.61129563728534 A 6.544999999999998 6.544999999999998 0 0 1 315.2580197342028 117.74851805289985 L 315.2580197342028 117.74851805289985 A 6.544999999999998 6.544999999999998 0 0 1 306.9810122917496 117.57419709152356 A 26.18 26.18 0 0 0 295.236 111.84894341357456 A 6.544999999999998 6.544999999999998 0 0 1 290 105.4361792669682 Z" fill="#FFD700" filter="none" id="path_10" opacity="1" role="img" style="outline: none;" tabindex="-1" tag_name="svg/g_8/g_11/path_10"/>
    </g>
    <g aria-hidden="false" aria-label="Silver medals, bar series 2 of 3 with 5 bars." class="highcharts-series highcharts-series-1 highcharts-column-series highcharts-color-1" clip-path="url(#highcharts-h7b1ipc-53)" data-z-index="0.1" id="g_10" opacity="1" role="region" style="outline: none;" tabindex="-1" tag_name="svg/g_8/g_10" transform="translate(10,68) scale(1 1)">
      <path aria-label="Norway , 113. Silver medals." class="highcharts-point highcharts-color-1 reveliogood_2" d="M 395.72746869992955 155.9523971967172 A 6.545000000000002 6.545000000000002 0 0 1 400.96928273138525 163.915586120355 A 114.07000000000001 114.07000000000001 0 0 1 304.5233405671871 250.6416699486511 A 6.545000000000002 6.545000000000002 0 0 1 297.1596134175642 244.58654694083208 L 297.1596134175642 244.58654694083208 A 6.545000000000002 6.545000000000002 0 0 1 302.85672771521484 237.65819962667473 A 100.98 100.98 0 0 0 388.23510274581645 160.8842893524454 A 6.545000000000002 6.545000000000002 0 0 1 395.72746869992955 155.9523971967172 Z" fill="#C0C0C0" filter="none" id="path_9" opacity="1" role="img" style="outline: none;" tabindex="-1" tag_name="svg/g_8/g_10/path_9"/>
      <path aria-label="United States , 122. Silver medals." class="highcharts-point highcharts-color-1 reveliogood_2" d="M 376.0540981310608 116.48248837636206 A 6.545000000000002 6.545000000000002 0 0 1 384.06222921938064 121.76043411396942 A 95.37 95.37 0 0 1 331.2089544379942 223.5073193055528 A 6.545000000000002 6.545000000000002 0 0 1 322.2860871893512 219.9903156376651 L 322.2860871893512 219.9903156376651 A 6.545000000000002 6.545000000000002 0 0 1 325.55282343670086 211.7023931263593 A 82.28 82.28 0 0 0 371.15172716966174 123.92076668656185 A 6.545000000000002 6.545000000000002 0 0 1 376.0540981310608 116.48248837636206 Z" fill="#C0C0C0" filter="none" id="path_8" opacity="1" role="img" style="outline: none;" tabindex="-1" tag_name="svg/g_8/g_10/path_8"/>
      <path aria-label="Germany , 98. Silver medals." class="highcharts-point highcharts-color-1 reveliogood_2" d="M 355.6912589907354 113.84969149858446 A 6.545000000000002 6.545000000000002 0 0 1 364.2464065554233 118.37514670365293 A 76.67 76.67 0 0 1 347.86832446445 187.79459139586623 A 6.545000000000002 6.545000000000002 0 0 1 338.1925813419646 188.01884503428522 L 338.1925813419646 188.01884503428522 A 6.545000000000002 6.545000000000002 0 0 1 337.9883666290561 179.2077099380354 A 63.58 63.58 0 0 0 351.57019080205833 121.64036555912682 A 6.545000000000002 6.545000000000002 0 0 1 355.6912589907354 113.84969149858446 Z" fill="#C0C0C0" filter="none" id="path_7" opacity="1" role="img" style="outline: none;" tabindex="-1" tag_name="svg/g_8/g_10/path_7"/>
      <path aria-label="Austria , 88. Silver medals." class="highcharts-point highcharts-color-1 reveliogood_2" d="M 327.86073034375767 103.32020044182137 A 6.544999999999998 6.544999999999998 0 0 1 337.6233872620344 104.44649964541874 A 57.97 57.97 0 0 1 347.0870238395871 147.57931590627126 A 6.544999999999998 6.544999999999998 0 0 1 338.6926697298246 152.68938822277653 L 338.6926697298246 152.68938822277653 A 6.544999999999998 6.544999999999998 0 0 1 334.1964055532287 145.30334134679066 A 44.88 44.88 0 0 0 326.86971917060725 111.91019327387258 A 6.544999999999998 6.544999999999998 0 0 1 327.86073034375767 103.32020044182137 Z" fill="#C0C0C0" filter="none" id="path_6" opacity="1" role="img" style="outline: none;" tabindex="-1" tag_name="svg/g_8/g_10/path_6"/>
      <path aria-label="Canada , 72. Silver medals." class="highcharts-point highcharts-color-1 reveliogood_2 reveliogood_4" d="M 315.2580197342028 117.74851805289985 A 6.544999999999998 6.544999999999998 0 0 1 325.1477289244622 119.98514768967429 A 39.269999999999996 39.269999999999996 0 0 1 329.26446536999566 136.84071310614442 A 6.544999999999998 6.544999999999998 0 0 1 321.5192333949333 143.38443083022685 L 321.5192333949333 143.38443083022685 A 6.544999999999998 6.544999999999998 0 0 1 316.1763102466638 137.06047540409628 A 26.18 26.18 0 0 0 313.4318192829748 125.8234317931162 A 6.544999999999998 6.544999999999998 0 0 1 315.2580197342028 117.74851805289985 Z" fill="#C0C0C0" filter="none" id="path_5" opacity="1" role="img" style="outline: none;" tabindex="-1" tag_name="svg/g_8/g_10/path_5"/>
    </g>
    <g aria-hidden="false" aria-label="Bronze medals, bar series 3 of 3 with 5 bars." class="highcharts-series highcharts-series-2 highcharts-column-series highcharts-color-2" clip-path="url(#highcharts-h7b1ipc-59)" data-z-index="0.1" id="g_9" opacity="1" role="region" style="outline: none;" tabindex="-1" tag_name="svg/g_8/g_9" transform="translate(10,68) scale(1 1)">
      <path aria-label="Norway , 124. Bronze medals." class="highcharts-point highcharts-color-2 reveliogood_2 reveliogood_3" d="M 297.1596134175642 244.58654694083208 A 6.545000000000002 6.545000000000002 0 0 1 290.66749137964473 251.56804703885354 A 114.07000000000001 114.07000000000001 0 0 1 179.13530640792507 164.35115667406794 A 6.545000000000002 6.545000000000002 0 0 1 184.3458087323492 156.36744464888292 L 184.3458087323492 156.36744464888292 A 6.545000000000002 6.545000000000002 0 0 1 191.85748436111402 161.26987639999456 A 100.98 100.98 0 0 0 290.59089400821006 238.478271149149 A 6.545000000000002 6.545000000000002 0 0 1 297.1596134175642 244.58654694083208 Z" fill="#CD7F32" filter="none" id="path_4" opacity="1" role="img" style="outline: none;" tabindex="-1" tag_name="svg/g_8/g_9/path_4"/>
      <path aria-label="United States , 95. Bronze medals." class="highcharts-point highcharts-color-2 reveliogood_2 reveliogood_3" d="M 322.2860871893512 219.9903156376651 A 6.545000000000002 6.545000000000002 0 0 1 318.1211696317704 228.6297795374333 A 95.37 95.37 0 0 1 230.59903055412474 212.11207495365744 A 6.545000000000002 6.545000000000002 0 0 1 229.86942684870274 202.54888755771685 L 229.86942684870274 202.54888755771685 A 6.545000000000002 6.545000000000002 0 0 1 238.7521047917939 201.8712019208025 A 82.28 82.28 0 0 0 314.2614012509392 216.121770581315 A 6.545000000000002 6.545000000000002 0 0 1 322.2860871893512 219.9903156376651 Z" fill="#CD7F32" filter="none" id="path_3" opacity="1" role="img" style="outline: none;" tabindex="-1" tag_name="svg/g_8/g_9/path_3"/>
      <path aria-label="Germany , 65. Bronze medals." class="highcharts-point highcharts-color-2 reveliogood_2 reveliogood_3" d="M 338.1925813419646 188.01884503428522 A 6.545000000000002 6.545000000000002 0 0 1 337.512786736646 197.6732830791041 A 76.67 76.67 0 0 1 296.8560441244989 213.86284148041457 A 6.545000000000002 6.545000000000002 0 0 1 289.72582253108874 207.31836024081016 L 289.72582253108874 207.31836024081016 A 6.545000000000002 6.545000000000002 0 0 1 295.685500005682 200.82528317888037 A 63.58 63.58 0 0 0 329.40084753770645 187.39979572413512 A 6.545000000000002 6.545000000000002 0 0 1 338.1925813419646 188.01884503428522 Z" fill="#CD7F32" filter="none" id="path_2" opacity="1" role="img" style="outline: none;" tabindex="-1" tag_name="svg/g_8/g_9/path_2"/>
      <path aria-label="Austria , 91. Bronze medals." class="highcharts-point highcharts-color-2 reveliogood_2 reveliogood_3" d="M 338.6926697298246 152.68938822277653 A 6.544999999999998 6.544999999999998 0 0 1 342.692813369472 161.6658502687158 A 57.97 57.97 0 0 1 308.45364912267235 192.4543786613705 A 6.544999999999998 6.544999999999998 0 0 1 299.9509329485831 187.5267181959081 L 299.9509329485831 187.5267181959081 A 6.544999999999998 6.544999999999998 0 0 1 304.28669609497217 180.04532541525458 A 44.88 44.88 0 0 0 330.7944361570106 156.20904536932835 A 6.544999999999998 6.544999999999998 0 0 1 338.6926697298246 152.68938822277653 Z" fill="#CD7F32" filter="none" id="path_1" opacity="1" role="img" style="outline: none;" tabindex="-1" tag_name="svg/g_8/g_9/path_1"/>
      <path aria-label="Canada , 76. Bronze medals." class="highcharts-point highcharts-color-2 reveliogood_2 reveliogood_3 reveliogood_4" d="M 321.5192333949333 143.38443083022685 A 6.544999999999998 6.544999999999998 0 0 1 326.38169477784413 152.28192088640003 A 39.269999999999996 39.269999999999996 0 0 1 315.06434616666195 167.7309684138259 A 6.544999999999998 6.544999999999998 0 0 1 305.11478046372497 165.7777653207144 L 305.11478046372497 165.7777653207144 A 6.544999999999998 6.544999999999998 0 0 1 306.70956411110797 157.6539789425506 A 26.18 26.18 0 0 0 314.25446318522944 147.3546139242667 A 6.544999999999998 6.544999999999998 0 0 1 321.5192333949333 143.38443083022685 Z" fill="#CD7F32" filter="none" id="path" opacity="1" role="img" style="outline: none;" tabindex="-1" tag_name="svg/g_8/g_9/path"/>
    </g>
  </g>
  <text aria-hidden="true" class="highcharts-title" data-z-index="4" id="text_28" style="font-size: 1.2em; color: rgb(51, 51, 51); font-weight: bold; fill: rgb(51, 51, 51);" tag_name="svg/text_28" text-anchor="middle" transform="translate(0,0) scale(1 1)" transform-origin="246.18057250976562 22" x="300" y="25">
    Winter Olympic medals per existing country
        (TOP 5)
  </text>
  <text aria-hidden="true" class="highcharts-subtitle" data-z-index="4" id="text_27" style="color: rgb(102, 102, 102); font-size: 0.8em; fill: rgb(102, 102, 102);" tag_name="svg/text_27" text-anchor="middle" transform="translate(0,0) scale(1 1)" transform-origin="60.468719482421875 15" x="300" y="50">
    Source:
    <a id="a" tag_name="svg/text_27/a">
      <tspan id="tspan_10" tag_name="svg/text_27/a/tspan_10">
        Wikipedia
      </tspan>
    </a>
  </text>
  <text aria-hidden="true" class="highcharts-caption" data-z-index="4" id="text_26" style="color: rgb(102, 102, 102); font-size: 0.8em; fill: rgb(102, 102, 102);" tag_name="svg/text_26" text-anchor="start" transform="translate(0,0) scale(1 1)" transform-origin="10 15" x="10" y="397"/>
  <g aria-hidden="true" class="highcharts-legend highcharts-no-tooltip" data-z-index="7" id="g_2" tag_name="svg/g_2" transform="translate(127,355)">
    <g data-z-index="1" id="g_3" tag_name="svg/g_2/g_3">
      <g id="g_4" tag_name="svg/g_2/g_3/g_4">
        <g class="highcharts-legend-item highcharts-column-series highcharts-color-0 highcharts-series-0" data-z-index="1" id="g_7" tag_name="svg/g_2/g_3/g_4/g_7" transform="translate(8,3)">
          <text data-z-index="2" id="text_25" style="color: rgb(51, 51, 51); cursor: pointer; font-size: 0.8em; text-decoration: none; fill: rgb(51, 51, 51);" tag_name="svg/g_2/g_3/g_4/g_7/text_25" text-anchor="start" x="21" y="17">
            Gold medals
          </text>
          <rect class="highcharts-point" data-z-index="3" fill="#FFD700" height="12" id="rect_2" rx="6" ry="6" tag_name="svg/g_2/g_3/g_4/g_7/rect_2" width="12" x="2" y="6"/>
        </g>
        <g class="highcharts-legend-item highcharts-column-series highcharts-color-1 highcharts-series-1" data-z-index="1" id="g_6" tag_name="svg/g_2/g_3/g_4/g_6" transform="translate(119.8492431640625,3)">
          <text data-z-index="2" id="text_24" style="color: rgb(51, 51, 51); cursor: pointer; font-size: 0.8em; text-decoration: none; fill: rgb(51, 51, 51);" tag_name="svg/g_2/g_3/g_4/g_6/text_24" text-anchor="start" x="21" y="17">
            Silver medals
          </text>
          <rect class="highcharts-point" data-z-index="3" fill="#C0C0C0" height="12" id="rect_1" rx="6" ry="6" tag_name="svg/g_2/g_3/g_4/g_6/rect_1" width="12" x="2" y="6"/>
        </g>
        <g class="highcharts-legend-item highcharts-column-series highcharts-color-2 highcharts-series-2" data-z-index="1" id="g_5" tag_name="svg/g_2/g_3/g_4/g_5" transform="translate(235.05470275878906,3)">
          <text data-z-index="2" id="text_23" style="color: rgb(51, 51, 51); cursor: pointer; font-size: 0.8em; text-decoration: none; fill: rgb(51, 51, 51);" tag_name="svg/g_2/g_3/g_4/g_5/text_23" text-anchor="start" x="21" y="17">
            Bronze medals
          </text>
          <rect class="highcharts-point" data-z-index="3" fill="#CD7F32" height="12" id="rect" rx="6" ry="6" tag_name="svg/g_2/g_3/g_4/g_5/rect" width="12" x="2" y="6"/>
        </g>
      </g>
    </g>
  </g>
  <g aria-hidden="true" class="highcharts-axis-labels highcharts-xaxis-labels highcharts-radial-axis-labels" data-z-index="7" id="g_1" tag_name="svg/g_1">
    <text id="text_22" opacity="1" style="color: rgb(51, 51, 51); cursor: default; font-size: 13px; fill: rgb(51, 51, 51);" tag_name="svg/g_1/text_22" text-anchor="end" transform="translate(0,0)" x="297" y="100.975">
      Norway
      <tspan class="f16" id="tspan_8" tag_name="svg/g_1/text_22/tspan_8">
        <tspan class="flag no" id="tspan_9" tag_name="svg/g_1/text_22/tspan_8/tspan_9"/>
      </tspan>
    </text>
    <text id="text_21" opacity="1" style="color: rgb(51, 51, 51); cursor: default; font-size: 13px; fill: rgb(51, 51, 51);" tag_name="svg/g_1/text_21" text-anchor="end" transform="translate(0,0)" x="297" y="119.675">
      United States
      <tspan class="f16" id="tspan_6" tag_name="svg/g_1/text_21/tspan_6">
        <tspan class="flag us" id="tspan_7" tag_name="svg/g_1/text_21/tspan_6/tspan_7"/>
      </tspan>
    </text>
    <text id="text_20" opacity="1" style="color: rgb(51, 51, 51); cursor: default; font-size: 13px; fill: rgb(51, 51, 51);" tag_name="svg/g_1/text_20" text-anchor="end" transform="translate(0,0)" x="297" y="138.375">
      Germany
      <tspan class="f16" id="tspan_4" tag_name="svg/g_1/text_20/tspan_4">
        <tspan class="flag de" id="tspan_5" tag_name="svg/g_1/text_20/tspan_4/tspan_5"/>
      </tspan>
    </text>
    <text id="text_19" opacity="1" style="color: rgb(51, 51, 51); cursor: default; font-size: 13px; fill: rgb(51, 51, 51);" tag_name="svg/g_1/text_19" text-anchor="end" transform="translate(0,0)" x="297" y="157.075">
      Austria
      <tspan class="f16" id="tspan_2" tag_name="svg/g_1/text_19/tspan_2">
        <tspan class="flag at" id="tspan_3" tag_name="svg/g_1/text_19/tspan_2/tspan_3"/>
      </tspan>
    </text>
    <text id="text_18" opacity="1" style="color: rgb(51, 51, 51); cursor: default; font-size: 13px; fill: rgb(51, 51, 51);" tag_name="svg/g_1/text_18" text-anchor="end" transform="translate(0,0)" x="297" y="175.775">
      Canada
      <tspan class="f16" id="tspan" tag_name="svg/g_1/text_18/tspan">
        <tspan class="flag ca" id="tspan_1" tag_name="svg/g_1/text_18/tspan/tspan_1"/>
      </tspan>
    </text>
    <text id="text_17" style="color: rgb(51, 51, 51); cursor: default; font-size: 13px; fill: rgb(51, 51, 51);" tag_name="svg/g_1/text_17" text-anchor="end" transform="translate(0,0)" visibility="hidden" x="0">
      5
    </text>
  </g>
  <g aria-hidden="true" class="highcharts-axis-labels highcharts-yaxis-labels highcharts-radial-axis-labels" data-z-index="7" id="g" tag_name="svg/g">
    <text id="text_16" opacity="1" style="color: rgb(51, 51, 51); cursor: default; font-size: 0.8em; fill: rgb(51, 51, 51);" tag_name="svg/g/text_16" text-anchor="middle" transform="translate(0,0)" x="300" y="77.29166603088379">
      0
    </text>
    <text id="text_15" opacity="1" style="color: rgb(51, 51, 51); cursor: default; font-size: 0.8em; fill: rgb(51, 51, 51);" tag_name="svg/g/text_15" text-anchor="middle" transform="translate(0,0)" x="338.28129181293224" y="82.97015925619874">
      25
    </text>
    <text id="text_14" opacity="1" style="color: rgb(51, 51, 51); cursor: default; font-size: 0.8em; fill: rgb(51, 51, 51);" tag_name="svg/g/text_14" text-anchor="start" transform="translate(0,0)" x="373.26582447946004" y="99.51661090848563">
      50
    </text>
    <text id="text_13" opacity="1" style="color: rgb(51, 51, 51); cursor: default; font-size: 0.8em; fill: rgb(51, 51, 51);" tag_name="svg/g/text_13" text-anchor="start" transform="translate(0,0)" x="401.9407535372109" y="125.50605168180304">
      75
    </text>
    <text id="text_12" opacity="1" style="color: rgb(51, 51, 51); cursor: default; font-size: 0.8em; fill: rgb(51, 51, 51);" tag_name="svg/g/text_12" text-anchor="start" transform="translate(0,0)" x="421.8366133499259" y="158.70028838773757">
      100
    </text>
    <text id="text_11" opacity="1" style="color: rgb(51, 51, 51); cursor: default; font-size: 0.8em; fill: rgb(51, 51, 51);" tag_name="svg/g/text_11" text-anchor="start" transform="translate(0,0)" x="431.239985829896" y="196.24065564992296">
      125
    </text>
    <text id="text_10" opacity="1" style="color: rgb(51, 51, 51); cursor: default; font-size: 0.8em; fill: rgb(51, 51, 51);" tag_name="svg/g/text_10" text-anchor="start" transform="translate(0,0)" x="429.34105885317604" y="234.8942022467607">
      150
    </text>
    <text id="text_9" opacity="1" style="color: rgb(51, 51, 51); cursor: default; font-size: 0.8em; fill: rgb(51, 51, 51);" tag_name="svg/g/text_9" text-anchor="start" transform="translate(0,0)" x="416.30336673593933" y="271.3321106998122">
      175
    </text>
    <text id="text_8" opacity="1" style="color: rgb(51, 51, 51); cursor: default; font-size: 0.8em; fill: rgb(51, 51, 51);" tag_name="svg/g/text_8" text-anchor="start" transform="translate(0,0)" x="393.24970676897595" y="302.41637279985974">
      200
    </text>
    <text id="text_7" opacity="1" style="color: rgb(51, 51, 51); cursor: default; font-size: 0.8em; fill: rgb(51, 51, 51);" tag_name="svg/g/text_7" text-anchor="start" transform="translate(0,0)" x="362.16544466892844" y="325.4700327668231">
      225
    </text>
    <text id="text_6" opacity="1" style="color: rgb(51, 51, 51); cursor: default; font-size: 0.8em; fill: rgb(51, 51, 51);" tag_name="svg/g/text_6" text-anchor="middle" transform="translate(0,0)" x="325.72753621587697" y="338.5077248840598">
      250
    </text>
    <text id="text_5" opacity="1" style="color: rgb(51, 51, 51); cursor: default; font-size: 0.8em; fill: rgb(51, 51, 51);" tag_name="svg/g/text_5" text-anchor="middle" transform="translate(0,0)" x="287.07398961903925" y="340.4066518607798">
      275
    </text>
    <text id="text_4" opacity="1" style="color: rgb(51, 51, 51); cursor: default; font-size: 0.8em; fill: rgb(51, 51, 51);" tag_name="svg/g/text_4" text-anchor="end" transform="translate(0,0)" x="249.53362235685378" y="331.0032793808097">
      300
    </text>
    <text id="text_3" opacity="1" style="color: rgb(51, 51, 51); cursor: default; font-size: 0.8em; fill: rgb(51, 51, 51);" tag_name="svg/g/text_3" text-anchor="end" transform="translate(0,0)" x="216.33938565091927" y="311.10741956809477">
      325
    </text>
    <text id="text_2" opacity="1" style="color: rgb(51, 51, 51); cursor: default; font-size: 0.8em; fill: rgb(51, 51, 51);" tag_name="svg/g/text_2" text-anchor="end" transform="translate(0,0)" x="190.3499448776019" y="282.4324905103439">
      350
    </text>
    <text id="text_1" opacity="1" style="color: rgb(51, 51, 51); cursor: default; font-size: 0.8em; fill: rgb(51, 51, 51);" tag_name="svg/g/text_1" text-anchor="end" transform="translate(0,0)" x="173.80349322531498" y="247.44795784381603">
      375
    </text>
    <text id="text" opacity="1" style="color: rgb(51, 51, 51); cursor: default; font-size: 0.8em; fill: rgb(51, 51, 51);" tag_name="svg/g/text" text-anchor="end" transform="translate(0,0)" x="168.125" y="209.16666603088382">
      400
    </text>
  </g>
</svg>