<?xml version="1.0" encoding="utf-8" standalone="no"?>
<!DOCTYPE svg PUBLIC "-//W3C//DTD SVG 1.1//EN"
  "http://www.w3.org/Graphics/SVG/1.1/DTD/svg11.dtd">
<svg xmlns:xlink="http://www.w3.org/1999/xlink" width="617.540625pt" height="390.915pt" viewBox="0 0 617.540625 390.915" xmlns="http://www.w3.org/2000/svg" version="1.1">
 <metadata>
  <rdf:RDF xmlns:dc="http://purl.org/dc/elements/1.1/" xmlns:cc="http://creativecommons.org/ns#" xmlns:rdf="http://www.w3.org/1999/02/22-rdf-syntax-ns#">
   <cc:Work>
    <dc:type rdf:resource="http://purl.org/dc/dcmitype/StillImage"/>
    <dc:date>2025-01-10T09:47:06.836699</dc:date>
    <dc:format>image/svg+xml</dc:format>
    <dc:creator>
     <cc:Agent>
      <dc:title>Matplotlib v3.9.2, https://matplotlib.org/</dc:title>
     </cc:Agent>
    </dc:creator>
   </cc:Work>
  </rdf:RDF>
 </metadata>
 <defs>
  <style type="text/css">*{stroke-linejoin: round; stroke-linecap: butt}</style>
 </defs>
 <g id="figure_1">
  <g id="patch_1">
   <path d="M 0 390.915 
L 617.540625 390.915 
L 617.540625 0 
L 0 0 
z
" style="fill: #ffffff"/>
  </g>
  <g id="axes_1">
   <g id="patch_2">
    <path d="M 52.340625 355.449375 
L 610.340625 355.449375 
L 610.340625 22.809375 
L 52.340625 22.809375 
z
" style="fill: #ffffff"/>
   </g>
   <g id="PolyCollection_1">
    <defs>
     <path id="m6b40ad344b" d="M 77.704261 -201.781631 
L 77.704261 -201.781631 
L 82.828228 -217.028803 
L 87.952195 -232.120539 
L 93.076162 -246.90299 
L 98.200129 -261.225457 
L 103.324096 -274.941931 
L 108.448063 -287.912583 
L 113.57203 -300.005184 
L 118.695997 -311.096458 
L 123.819964 -321.073336 
L 128.943931 -329.834111 
L 134.067898 -337.289471 
L 139.191865 -343.363415 
L 144.315832 -347.994022 
L 149.439799 -351.134086 
L 154.563765 -352.751596 
L 159.687732 -352.830062 
L 164.811699 -351.368685 
L 169.935666 -348.382363 
L 175.059633 -343.901539 
L 180.1836 -337.971892 
L 185.307567 -330.653871 
L 190.431534 -322.02208 
L 195.555501 -312.164513 
L 200.679468 -301.181662 
L 205.803435 -289.18549 
L 210.927402 -276.298292 
L 216.051369 -262.651443 
L 221.175336 -248.384065 
L 226.299303 -233.641605 
L 231.42327 -218.574352 
L 236.547237 -203.335908 
L 241.671204 -188.081619 
L 246.79517 -172.966993 
L 251.919137 -158.146115 
L 257.043104 -143.770072 
L 262.167071 -129.985421 
L 267.291038 -116.932687 
L 272.415005 -104.744934 
L 277.538972 -93.54641 
L 282.662939 -83.451274 
L 287.786906 -74.562442 
L 292.910873 -66.97053 
L 298.03484 -60.752931 
L 303.158807 -55.973031 
L 308.282774 -52.679557 
L 313.406741 -50.906085 
L 318.530708 -50.670694 
L 323.654675 -51.975783 
L 328.778642 -54.808048 
L 333.902608 -59.138616 
L 339.026575 -64.92334 
L 344.150542 -72.103247 
L 349.274509 -80.605143 
L 354.398476 -90.342358 
L 359.522443 -101.215625 
L 364.64641 -113.114099 
L 369.770377 -125.916483 
L 374.894344 -139.492264 
L 380.018311 -153.703045 
L 385.142278 -168.403958 
L 390.266245 -183.445134 
L 395.390212 -198.67324 
L 400.514179 -213.933034 
L 405.638146 -229.068952 
L 410.762113 -243.926693 
L 415.88608 -258.354791 
L 421.010046 -272.206162 
L 426.134013 -285.3396 
L 431.25798 -297.621216 
L 436.381947 -308.925809 
L 441.505914 -319.138134 
L 446.629881 -328.154084 
L 451.753848 -335.881747 
L 456.877815 -342.242344 
L 462.001782 -347.171032 
L 467.125749 -350.617568 
L 472.249716 -352.546815 
L 477.373683 -352.939106 
L 482.49765 -351.790442 
L 487.621617 -349.112533 
L 492.745584 -344.932679 
L 497.869551 -339.29349 
L 502.993518 -332.252455 
L 508.117485 -323.881352 
L 513.241451 -314.265519 
L 518.365418 -303.502984 
L 523.489385 -291.703465 
L 528.613352 -278.987249 
L 533.737319 -265.48397 
L 538.861286 -251.331287 
L 543.985253 -236.673476 
L 549.10922 -221.659964 
L 554.233187 -206.443806 
L 559.357154 -191.18012 
L 564.481121 -176.024509 
L 569.605088 -161.131476 
L 574.729055 -146.652846 
L 579.853022 -132.736219 
L 584.976989 -119.523466 
L 584.976989 -201.781631 
L 584.976989 -201.781631 
L 579.853022 -201.781631 
L 574.729055 -201.781631 
L 569.605088 -201.781631 
L 564.481121 -201.781631 
L 559.357154 -201.781631 
L 554.233187 -201.781631 
L 549.10922 -201.781631 
L 543.985253 -201.781631 
L 538.861286 -201.781631 
L 533.737319 -201.781631 
L 528.613352 -201.781631 
L 523.489385 -201.781631 
L 518.365418 -201.781631 
L 513.241451 -201.781631 
L 508.117485 -201.781631 
L 502.993518 -201.781631 
L 497.869551 -201.781631 
L 492.745584 -201.781631 
L 487.621617 -201.781631 
L 482.49765 -201.781631 
L 477.373683 -201.781631 
L 472.249716 -201.781631 
L 467.125749 -201.781631 
L 462.001782 -201.781631 
L 456.877815 -201.781631 
L 451.753848 -201.781631 
L 446.629881 -201.781631 
L 441.505914 -201.781631 
L 436.381947 -201.781631 
L 431.25798 -201.781631 
L 426.134013 -201.781631 
L 421.010046 -201.781631 
L 415.88608 -201.781631 
L 410.762113 -201.781631 
L 405.638146 -201.781631 
L 400.514179 -201.781631 
L 395.390212 -201.781631 
L 390.266245 -201.781631 
L 385.142278 -201.781631 
L 380.018311 -201.781631 
L 374.894344 -201.781631 
L 369.770377 -201.781631 
L 364.64641 -201.781631 
L 359.522443 -201.781631 
L 354.398476 -201.781631 
L 349.274509 -201.781631 
L 344.150542 -201.781631 
L 339.026575 -201.781631 
L 333.902608 -201.781631 
L 328.778642 -201.781631 
L 323.654675 -201.781631 
L 318.530708 -201.781631 
L 313.406741 -201.781631 
L 308.282774 -201.781631 
L 303.158807 -201.781631 
L 298.03484 -201.781631 
L 292.910873 -201.781631 
L 287.786906 -201.781631 
L 282.662939 -201.781631 
L 277.538972 -201.781631 
L 272.415005 -201.781631 
L 267.291038 -201.781631 
L 262.167071 -201.781631 
L 257.043104 -201.781631 
L 251.919137 -201.781631 
L 246.79517 -201.781631 
L 241.671204 -201.781631 
L 236.547237 -201.781631 
L 231.42327 -201.781631 
L 226.299303 -201.781631 
L 221.175336 -201.781631 
L 216.051369 -201.781631 
L 210.927402 -201.781631 
L 205.803435 -201.781631 
L 200.679468 -201.781631 
L 195.555501 -201.781631 
L 190.431534 -201.781631 
L 185.307567 -201.781631 
L 180.1836 -201.781631 
L 175.059633 -201.781631 
L 169.935666 -201.781631 
L 164.811699 -201.781631 
L 159.687732 -201.781631 
L 154.563765 -201.781631 
L 149.439799 -201.781631 
L 144.315832 -201.781631 
L 139.191865 -201.781631 
L 134.067898 -201.781631 
L 128.943931 -201.781631 
L 123.819964 -201.781631 
L 118.695997 -201.781631 
L 113.57203 -201.781631 
L 108.448063 -201.781631 
L 103.324096 -201.781631 
L 98.200129 -201.781631 
L 93.076162 -201.781631 
L 87.952195 -201.781631 
L 82.828228 -201.781631 
L 77.704261 -201.781631 
z
" style="stroke: #4caf50; stroke-opacity: 0.3"/>
    </defs>
    <g clip-path="url(#pf9c070ab0c)">
     <use xlink:href="#m6b40ad344b" x="0" y="390.915" style="fill: #4caf50; fill-opacity: 0.3; stroke: #4caf50; stroke-opacity: 0.3"/>
    </g>
   </g>
   <g id="PolyCollection_2">
    <defs>
     <path id="m915d10d159" d="M 77.704261 -201.781631 
L 77.704261 -352.985625 
L 82.828228 -352.21491 
L 87.952195 -349.910624 
L 93.076162 -346.096255 
L 98.200129 -340.81069 
L 103.324096 -334.107812 
L 108.448063 -326.055952 
L 113.57203 -316.737194 
L 118.695997 -306.246536 
L 123.819964 -294.690925 
L 128.943931 -282.188162 
L 134.067898 -268.865705 
L 139.191865 -254.859369 
L 144.315832 -240.311938 
L 149.439799 -225.371716 
L 154.563765 -210.191007 
L 159.687732 -194.92457 
L 164.811699 -179.728037 
L 169.935666 -164.756326 
L 175.059633 -150.162064 
L 180.1836 -136.094032 
L 185.307567 -122.695643 
L 190.431534 -110.103485 
L 195.555501 -98.445929 
L 200.679468 -87.841814 
L 205.803435 -78.399245 
L 210.927402 -70.21448 
L 216.051369 -63.37096 
L 221.175336 -57.938449 
L 226.299303 -53.972328 
L 231.42327 -51.51303 
L 236.547237 -50.585625 
L 241.671204 -51.199568 
L 246.79517 -53.3486 
L 251.919137 -57.010813 
L 257.043104 -62.148873 
L 262.167071 -68.710401 
L 267.291038 -76.628506 
L 272.415005 -85.822468 
L 277.538972 -96.19856 
L 282.662939 -107.651005 
L 287.786906 -120.063052 
L 292.910873 -133.308169 
L 298.03484 -147.251329 
L 303.158807 -161.750392 
L 308.282774 -176.657547 
L 313.406741 -191.820827 
L 318.530708 -207.08565 
L 323.654675 -222.296403 
L 328.778642 -237.29802 
L 333.902608 -251.937571 
L 339.026575 -266.065813 
L 344.150542 -279.538719 
L 349.274509 -292.21894 
L 354.398476 -303.97721 
L 359.522443 -314.69366 
L 364.64641 -324.259044 
L 369.770377 -332.575848 
L 374.894344 -339.559287 
L 380.018311 -345.138171 
L 385.142278 -349.255624 
L 390.266245 -351.869674 
L 395.390212 -352.953671 
L 400.514179 -352.496565 
L 405.638146 -350.503015 
L 410.762113 -346.993344 
L 415.88608 -342.003332 
L 421.010046 -335.583848 
L 426.134013 -327.800335 
L 431.25798 -318.73214 
L 436.381947 -308.47171 
L 441.505914 -297.123641 
L 446.629881 -284.803621 
L 451.753848 -271.637244 
L 456.877815 -257.758733 
L 462.001782 -243.309571 
L 467.125749 -228.437058 
L 472.249716 -213.29281 
L 477.373683 -198.031212 
L 482.49765 -182.807848 
L 487.621617 -167.777909 
L 492.745584 -153.094617 
L 497.869551 -138.907658 
L 502.993518 -125.361659 
L 508.117485 -112.594714 
L 513.241451 -100.736973 
L 518.365418 -89.909319 
L 523.489385 -80.222132 
L 528.613352 -71.774168 
L 533.737319 -64.651547 
L 538.861286 -58.926881 
L 543.985253 -54.658529 
L 549.10922 -51.890004 
L 554.233187 -50.649529 
L 559.357154 -50.949751 
L 564.481121 -52.787609 
L 569.605088 -56.144366 
L 574.729055 -60.985803 
L 579.853022 -67.262565 
L 584.976989 -74.910664 
L 584.976989 -201.781631 
L 584.976989 -201.781631 
L 579.853022 -201.781631 
L 574.729055 -201.781631 
L 569.605088 -201.781631 
L 564.481121 -201.781631 
L 559.357154 -201.781631 
L 554.233187 -201.781631 
L 549.10922 -201.781631 
L 543.985253 -201.781631 
L 538.861286 -201.781631 
L 533.737319 -201.781631 
L 528.613352 -201.781631 
L 523.489385 -201.781631 
L 518.365418 -201.781631 
L 513.241451 -201.781631 
L 508.117485 -201.781631 
L 502.993518 -201.781631 
L 497.869551 -201.781631 
L 492.745584 -201.781631 
L 487.621617 -201.781631 
L 482.49765 -201.781631 
L 477.373683 -201.781631 
L 472.249716 -201.781631 
L 467.125749 -201.781631 
L 462.001782 -201.781631 
L 456.877815 -201.781631 
L 451.753848 -201.781631 
L 446.629881 -201.781631 
L 441.505914 -201.781631 
L 436.381947 -201.781631 
L 431.25798 -201.781631 
L 426.134013 -201.781631 
L 421.010046 -201.781631 
L 415.88608 -201.781631 
L 410.762113 -201.781631 
L 405.638146 -201.781631 
L 400.514179 -201.781631 
L 395.390212 -201.781631 
L 390.266245 -201.781631 
L 385.142278 -201.781631 
L 380.018311 -201.781631 
L 374.894344 -201.781631 
L 369.770377 -201.781631 
L 364.64641 -201.781631 
L 359.522443 -201.781631 
L 354.398476 -201.781631 
L 349.274509 -201.781631 
L 344.150542 -201.781631 
L 339.026575 -201.781631 
L 333.902608 -201.781631 
L 328.778642 -201.781631 
L 323.654675 -201.781631 
L 318.530708 -201.781631 
L 313.406741 -201.781631 
L 308.282774 -201.781631 
L 303.158807 -201.781631 
L 298.03484 -201.781631 
L 292.910873 -201.781631 
L 287.786906 -201.781631 
L 282.662939 -201.781631 
L 277.538972 -201.781631 
L 272.415005 -201.781631 
L 267.291038 -201.781631 
L 262.167071 -201.781631 
L 257.043104 -201.781631 
L 251.919137 -201.781631 
L 246.79517 -201.781631 
L 241.671204 -201.781631 
L 236.547237 -201.781631 
L 231.42327 -201.781631 
L 226.299303 -201.781631 
L 221.175336 -201.781631 
L 216.051369 -201.781631 
L 210.927402 -201.781631 
L 205.803435 -201.781631 
L 200.679468 -201.781631 
L 195.555501 -201.781631 
L 190.431534 -201.781631 
L 185.307567 -201.781631 
L 180.1836 -201.781631 
L 175.059633 -201.781631 
L 169.935666 -201.781631 
L 164.811699 -201.781631 
L 159.687732 -201.781631 
L 154.563765 -201.781631 
L 149.439799 -201.781631 
L 144.315832 -201.781631 
L 139.191865 -201.781631 
L 134.067898 -201.781631 
L 128.943931 -201.781631 
L 123.819964 -201.781631 
L 118.695997 -201.781631 
L 113.57203 -201.781631 
L 108.448063 -201.781631 
L 103.324096 -201.781631 
L 98.200129 -201.781631 
L 93.076162 -201.781631 
L 87.952195 -201.781631 
L 82.828228 -201.781631 
L 77.704261 -201.781631 
z
" style="stroke: #2196f3; stroke-opacity: 0.3"/>
    </defs>
    <g clip-path="url(#pf9c070ab0c)">
     <use xlink:href="#m915d10d159" x="0" y="390.915" style="fill: #2196f3; fill-opacity: 0.3; stroke: #2196f3; stroke-opacity: 0.3"/>
    </g>
   </g>
   <g id="matplotlib.axis_1">
    <g id="xtick_1">
     <g id="line2d_1">
      <path d="M 77.704261 355.449375 
L 77.704261 22.809375 
" clip-path="url(#pf9c070ab0c)" style="fill: none; stroke-dasharray: 2.96,1.28; stroke-dashoffset: 0; stroke: #b0b0b0; stroke-opacity: 0.7; stroke-width: 0.8"/>
     </g>
     <g id="line2d_2">
      <defs>
       <path id="m0a26f88833" d="M 0 0 
L 0 3.5 
" style="stroke: #000000; stroke-width: 0.8"/>
      </defs>
      <g>
       <use xlink:href="#m0a26f88833" x="77.704261" y="355.449375" style="stroke: #000000; stroke-width: 0.8"/>
      </g>
     </g>
     <g id="text_1">
      <!-- 0 -->
      <g transform="translate(75.204261 369.324375) scale(0.1 -0.1)">
       <defs>
        <path id="SimHei-30" d="M 225 2537 
Q 250 3200 412 3587 
Q 575 3975 875 4225 
Q 1175 4475 1612 4475 
Q 2050 4475 2375 4112 
Q 2700 3750 2800 3200 
Q 2900 2650 2862 1937 
Q 2825 1225 2612 775 
Q 2400 325 1975 150 
Q 1550 -25 1125 187 
Q 700 400 525 750 
Q 350 1100 275 1487 
Q 200 1875 225 2537 
z
M 750 2687 
Q 675 2000 800 1462 
Q 925 925 1212 700 
Q 1500 475 1800 612 
Q 2100 750 2237 1162 
Q 2375 1575 2375 2062 
Q 2375 2550 2337 2950 
Q 2300 3350 2112 3675 
Q 1925 4000 1612 4012 
Q 1300 4025 1062 3700 
Q 825 3375 750 2687 
z
" transform="scale(0.015625)"/>
       </defs>
       <use xlink:href="#SimHei-30"/>
      </g>
     </g>
    </g>
    <g id="xtick_2">
     <g id="line2d_3">
      <path d="M 179.158807 355.449375 
L 179.158807 22.809375 
" clip-path="url(#pf9c070ab0c)" style="fill: none; stroke-dasharray: 2.96,1.28; stroke-dashoffset: 0; stroke: #b0b0b0; stroke-opacity: 0.7; stroke-width: 0.8"/>
     </g>
     <g id="line2d_4">
      <g>
       <use xlink:href="#m0a26f88833" x="179.158807" y="355.449375" style="stroke: #000000; stroke-width: 0.8"/>
      </g>
     </g>
     <g id="text_2">
      <!-- 2 -->
      <g transform="translate(176.658807 369.324375) scale(0.1 -0.1)">
       <defs>
        <path id="SimHei-32" d="M 300 250 
Q 325 625 650 925 
Q 975 1225 1475 1862 
Q 1975 2500 2125 2850 
Q 2275 3200 2237 3450 
Q 2200 3700 2000 3862 
Q 1800 4025 1537 4000 
Q 1275 3975 1037 3800 
Q 800 3625 675 3275 
L 200 3350 
Q 400 3925 712 4187 
Q 1025 4450 1450 4475 
Q 1700 4500 1900 4462 
Q 2100 4425 2312 4287 
Q 2525 4150 2662 3875 
Q 2800 3600 2762 3212 
Q 2725 2825 2375 2287 
Q 2025 1750 1025 600 
L 2825 600 
L 2825 150 
L 300 150 
L 300 250 
z
" transform="scale(0.015625)"/>
       </defs>
       <use xlink:href="#SimHei-32"/>
      </g>
     </g>
    </g>
    <g id="xtick_3">
     <g id="line2d_5">
      <path d="M 280.613352 355.449375 
L 280.613352 22.809375 
" clip-path="url(#pf9c070ab0c)" style="fill: none; stroke-dasharray: 2.96,1.28; stroke-dashoffset: 0; stroke: #b0b0b0; stroke-opacity: 0.7; stroke-width: 0.8"/>
     </g>
     <g id="line2d_6">
      <g>
       <use xlink:href="#m0a26f88833" x="280.613352" y="355.449375" style="stroke: #000000; stroke-width: 0.8"/>
      </g>
     </g>
     <g id="text_3">
      <!-- 4 -->
      <g transform="translate(278.113352 369.324375) scale(0.1 -0.1)">
       <defs>
        <path id="SimHei-34" d="M 2000 1100 
L 75 1100 
L 75 1525 
L 2100 4450 
L 2475 4450 
L 2475 1525 
L 3075 1525 
L 3075 1100 
L 2475 1100 
L 2475 150 
L 2000 150 
L 2000 1100 
z
M 2000 1525 
L 2000 3500 
L 600 1525 
L 2000 1525 
z
" transform="scale(0.015625)"/>
       </defs>
       <use xlink:href="#SimHei-34"/>
      </g>
     </g>
    </g>
    <g id="xtick_4">
     <g id="line2d_7">
      <path d="M 382.067898 355.449375 
L 382.067898 22.809375 
" clip-path="url(#pf9c070ab0c)" style="fill: none; stroke-dasharray: 2.96,1.28; stroke-dashoffset: 0; stroke: #b0b0b0; stroke-opacity: 0.7; stroke-width: 0.8"/>
     </g>
     <g id="line2d_8">
      <g>
       <use xlink:href="#m0a26f88833" x="382.067898" y="355.449375" style="stroke: #000000; stroke-width: 0.8"/>
      </g>
     </g>
     <g id="text_4">
      <!-- 6 -->
      <g transform="translate(379.567898 369.324375) scale(0.1 -0.1)">
       <defs>
        <path id="SimHei-36" d="M 250 1612 
Q 275 1975 387 2225 
Q 500 2475 725 2850 
L 1750 4450 
L 2325 4450 
L 1275 2800 
Q 1950 2975 2350 2750 
Q 2750 2525 2887 2237 
Q 3025 1950 3037 1612 
Q 3050 1275 2937 950 
Q 2825 625 2537 362 
Q 2250 100 1737 75 
Q 1225 50 862 262 
Q 500 475 362 862 
Q 225 1250 250 1612 
z
M 1025 787 
Q 1250 550 1625 525 
Q 2000 500 2250 775 
Q 2500 1050 2500 1575 
Q 2500 2100 2187 2300 
Q 1875 2500 1487 2450 
Q 1100 2400 925 2075 
Q 750 1750 775 1387 
Q 800 1025 1025 787 
z
" transform="scale(0.015625)"/>
       </defs>
       <use xlink:href="#SimHei-36"/>
      </g>
     </g>
    </g>
    <g id="xtick_5">
     <g id="line2d_9">
      <path d="M 483.522443 355.449375 
L 483.522443 22.809375 
" clip-path="url(#pf9c070ab0c)" style="fill: none; stroke-dasharray: 2.96,1.28; stroke-dashoffset: 0; stroke: #b0b0b0; stroke-opacity: 0.7; stroke-width: 0.8"/>
     </g>
     <g id="line2d_10">
      <g>
       <use xlink:href="#m0a26f88833" x="483.522443" y="355.449375" style="stroke: #000000; stroke-width: 0.8"/>
      </g>
     </g>
     <g id="text_5">
      <!-- 8 -->
      <g transform="translate(481.022443 369.324375) scale(0.1 -0.1)">
       <defs>
        <path id="SimHei-38" d="M 175 1375 
Q 175 1675 325 1962 
Q 475 2250 825 2425 
Q 525 2600 425 2812 
Q 325 3025 312 3300 
Q 300 3575 387 3775 
Q 475 3975 650 4150 
Q 825 4325 1037 4387 
Q 1250 4450 1500 4450 
Q 1750 4450 1950 4400 
Q 2150 4350 2375 4187 
Q 2600 4025 2700 3725 
Q 2800 3425 2687 3025 
Q 2575 2625 2100 2400 
Q 2525 2275 2700 2012 
Q 2875 1750 2875 1375 
Q 2875 1000 2762 775 
Q 2650 550 2512 400 
Q 2375 250 2137 162 
Q 1900 75 1537 75 
Q 1175 75 912 162 
Q 650 250 475 425 
Q 300 600 237 837 
Q 175 1075 175 1375 
z
M 687 1400 
Q 675 1100 787 875 
Q 900 650 1200 587 
Q 1500 525 1825 600 
Q 2150 675 2275 950 
Q 2400 1225 2362 1500 
Q 2325 1775 2050 1962 
Q 1775 2150 1450 2125 
Q 1125 2100 912 1900 
Q 700 1700 687 1400 
z
M 775 3350 
Q 775 3100 950 2875 
Q 1125 2650 1500 2650 
Q 1875 2650 2062 2875 
Q 2250 3100 2237 3412 
Q 2225 3725 2012 3875 
Q 1800 4025 1437 4000 
Q 1075 3975 925 3787 
Q 775 3600 775 3350 
z
" transform="scale(0.015625)"/>
       </defs>
       <use xlink:href="#SimHei-38"/>
      </g>
     </g>
    </g>
    <g id="xtick_6">
     <g id="line2d_11">
      <path d="M 584.976989 355.449375 
L 584.976989 22.809375 
" clip-path="url(#pf9c070ab0c)" style="fill: none; stroke-dasharray: 2.96,1.28; stroke-dashoffset: 0; stroke: #b0b0b0; stroke-opacity: 0.7; stroke-width: 0.8"/>
     </g>
     <g id="line2d_12">
      <g>
       <use xlink:href="#m0a26f88833" x="584.976989" y="355.449375" style="stroke: #000000; stroke-width: 0.8"/>
      </g>
     </g>
     <g id="text_6">
      <!-- 10 -->
      <g transform="translate(579.976989 369.324375) scale(0.1 -0.1)">
       <defs>
        <path id="SimHei-31" d="M 1400 3600 
Q 1075 3275 575 2975 
L 575 3450 
Q 1200 3875 1600 4450 
L 1900 4450 
L 1900 150 
L 1400 150 
L 1400 3600 
z
" transform="scale(0.015625)"/>
       </defs>
       <use xlink:href="#SimHei-31"/>
       <use xlink:href="#SimHei-30" x="50"/>
      </g>
     </g>
    </g>
    <g id="text_7">
     <!-- X 轴 -->
     <g transform="translate(321.340625 382.465) scale(0.1 -0.1)">
      <defs>
       <path id="SimHei-58" d="M 3000 125 
L 2400 125 
L 1550 1875 
L 700 125 
L 100 125 
L 1275 2375 
L 225 4400 
L 825 4400 
L 1550 2850 
L 2275 4400 
L 2875 4400 
L 1825 2375 
L 3000 125 
z
" transform="scale(0.015625)"/>
       <path id="SimHei-20" transform="scale(0.015625)"/>
       <path id="SimHei-8f74" d="M 4200 3900 
Q 4200 4775 4175 5175 
L 4700 5175 
Q 4675 4800 4675 3900 
L 5950 3900 
Q 5925 3025 5925 1675 
Q 5925 325 5950 -525 
L 5450 -525 
L 5450 100 
L 3425 100 
L 3425 -575 
L 2950 -575 
Q 2975 325 2975 1675 
Q 2975 3025 2950 3900 
L 4200 3900 
z
M 2725 950 
Q 2250 900 2075 875 
Q 2075 200 2100 -600 
L 1575 -600 
Q 1600 200 1600 800 
Q 700 650 450 575 
Q 400 800 275 1075 
Q 700 1100 1600 1250 
L 1600 2075 
L 1100 2075 
Q 850 2075 525 2000 
L 300 2475 
Q 525 2600 700 3025 
Q 875 3450 1025 3925 
Q 700 3925 325 3900 
L 325 4350 
Q 700 4325 1125 4325 
Q 1300 4825 1375 5250 
Q 1625 5150 1925 5100 
Q 1825 4925 1600 4325 
Q 2175 4325 2750 4350 
L 2750 3900 
Q 2200 3925 1475 3925 
Q 1150 3000 925 2475 
L 1600 2475 
Q 1600 3050 1575 3400 
L 2100 3400 
Q 2075 3100 2075 2475 
Q 2425 2475 2625 2500 
L 2625 2050 
Q 2450 2075 2075 2075 
L 2075 1300 
L 2775 1400 
Q 2725 1175 2725 950 
z
M 4200 525 
L 4200 1850 
L 3425 1850 
L 3425 525 
L 4200 525 
z
M 5450 525 
L 5450 1850 
L 4675 1850 
L 4675 525 
L 5450 525 
z
M 4200 2250 
L 4200 3475 
L 3425 3475 
L 3425 2250 
L 4200 2250 
z
M 5450 2250 
L 5450 3475 
L 4675 3475 
L 4675 2250 
L 5450 2250 
z
" transform="scale(0.015625)"/>
      </defs>
      <use xlink:href="#SimHei-58"/>
      <use xlink:href="#SimHei-20" x="50"/>
      <use xlink:href="#SimHei-8f74" x="100"/>
     </g>
    </g>
   </g>
   <g id="matplotlib.axis_2">
    <g id="ytick_1">
     <g id="line2d_13">
      <path d="M 52.340625 340.337364 
L 610.340625 340.337364 
" clip-path="url(#pf9c070ab0c)" style="fill: none; stroke-dasharray: 2.96,1.28; stroke-dashoffset: 0; stroke: #b0b0b0; stroke-opacity: 0.7; stroke-width: 0.8"/>
     </g>
     <g id="line2d_14">
      <defs>
       <path id="mddea7d4889" d="M 0 0 
L -3.5 0 
" style="stroke: #000000; stroke-width: 0.8"/>
      </defs>
      <g>
       <use xlink:href="#mddea7d4889" x="52.340625" y="340.337364" style="stroke: #000000; stroke-width: 0.8"/>
      </g>
     </g>
     <g id="text_8">
      <!-- -1.00 -->
      <g transform="translate(20.340625 343.774864) scale(0.1 -0.1)">
       <defs>
        <path id="SimHei-2d" d="M 2975 2125 
L 125 2125 
L 125 2525 
L 2975 2525 
L 2975 2125 
z
" transform="scale(0.015625)"/>
        <path id="SimHei-2e" d="M 1075 125 
L 500 125 
L 500 675 
L 1075 675 
L 1075 125 
z
" transform="scale(0.015625)"/>
       </defs>
       <use xlink:href="#SimHei-2d"/>
       <use xlink:href="#SimHei-31" x="50"/>
       <use xlink:href="#SimHei-2e" x="100"/>
       <use xlink:href="#SimHei-30" x="150"/>
       <use xlink:href="#SimHei-30" x="200"/>
      </g>
     </g>
    </g>
    <g id="ytick_2">
     <g id="line2d_15">
      <path d="M 52.340625 302.536365 
L 610.340625 302.536365 
" clip-path="url(#pf9c070ab0c)" style="fill: none; stroke-dasharray: 2.96,1.28; stroke-dashoffset: 0; stroke: #b0b0b0; stroke-opacity: 0.7; stroke-width: 0.8"/>
     </g>
     <g id="line2d_16">
      <g>
       <use xlink:href="#mddea7d4889" x="52.340625" y="302.536365" style="stroke: #000000; stroke-width: 0.8"/>
      </g>
     </g>
     <g id="text_9">
      <!-- -0.75 -->
      <g transform="translate(20.340625 305.973865) scale(0.1 -0.1)">
       <defs>
        <path id="SimHei-37" d="M 850 150 
Q 1300 2050 2425 3925 
L 275 3925 
L 275 4375 
L 2950 4375 
L 2950 3950 
Q 1775 2050 1400 150 
L 850 150 
z
" transform="scale(0.015625)"/>
        <path id="SimHei-35" d="M 550 1325 
Q 725 650 1150 575 
Q 1575 500 1837 662 
Q 2100 825 2212 1087 
Q 2325 1350 2312 1675 
Q 2300 2000 2137 2225 
Q 1975 2450 1725 2525 
Q 1475 2600 1162 2525 
Q 850 2450 650 2175 
L 225 2225 
Q 275 2375 700 4375 
L 2675 4375 
L 2675 3925 
L 1075 3925 
Q 950 3250 825 2850 
Q 1200 3025 1525 3012 
Q 1850 3000 2150 2862 
Q 2450 2725 2587 2487 
Q 2725 2250 2787 2012 
Q 2850 1775 2837 1500 
Q 2825 1225 2725 937 
Q 2625 650 2425 462 
Q 2225 275 1937 162 
Q 1650 50 1275 75 
Q 900 100 562 350 
Q 225 600 100 1200 
L 550 1325 
z
" transform="scale(0.015625)"/>
       </defs>
       <use xlink:href="#SimHei-2d"/>
       <use xlink:href="#SimHei-30" x="50"/>
       <use xlink:href="#SimHei-2e" x="100"/>
       <use xlink:href="#SimHei-37" x="150"/>
       <use xlink:href="#SimHei-35" x="200"/>
      </g>
     </g>
    </g>
    <g id="ytick_3">
     <g id="line2d_17">
      <path d="M 52.340625 264.735367 
L 610.340625 264.735367 
" clip-path="url(#pf9c070ab0c)" style="fill: none; stroke-dasharray: 2.96,1.28; stroke-dashoffset: 0; stroke: #b0b0b0; stroke-opacity: 0.7; stroke-width: 0.8"/>
     </g>
     <g id="line2d_18">
      <g>
       <use xlink:href="#mddea7d4889" x="52.340625" y="264.735367" style="stroke: #000000; stroke-width: 0.8"/>
      </g>
     </g>
     <g id="text_10">
      <!-- -0.50 -->
      <g transform="translate(20.340625 268.172867) scale(0.1 -0.1)">
       <use xlink:href="#SimHei-2d"/>
       <use xlink:href="#SimHei-30" x="50"/>
       <use xlink:href="#SimHei-2e" x="100"/>
       <use xlink:href="#SimHei-35" x="150"/>
       <use xlink:href="#SimHei-30" x="200"/>
      </g>
     </g>
    </g>
    <g id="ytick_4">
     <g id="line2d_19">
      <path d="M 52.340625 226.934368 
L 610.340625 226.934368 
" clip-path="url(#pf9c070ab0c)" style="fill: none; stroke-dasharray: 2.96,1.28; stroke-dashoffset: 0; stroke: #b0b0b0; stroke-opacity: 0.7; stroke-width: 0.8"/>
     </g>
     <g id="line2d_20">
      <g>
       <use xlink:href="#mddea7d4889" x="52.340625" y="226.934368" style="stroke: #000000; stroke-width: 0.8"/>
      </g>
     </g>
     <g id="text_11">
      <!-- -0.25 -->
      <g transform="translate(20.340625 230.371868) scale(0.1 -0.1)">
       <use xlink:href="#SimHei-2d"/>
       <use xlink:href="#SimHei-30" x="50"/>
       <use xlink:href="#SimHei-2e" x="100"/>
       <use xlink:href="#SimHei-32" x="150"/>
       <use xlink:href="#SimHei-35" x="200"/>
      </g>
     </g>
    </g>
    <g id="ytick_5">
     <g id="line2d_21">
      <path d="M 52.340625 189.133369 
L 610.340625 189.133369 
" clip-path="url(#pf9c070ab0c)" style="fill: none; stroke-dasharray: 2.96,1.28; stroke-dashoffset: 0; stroke: #b0b0b0; stroke-opacity: 0.7; stroke-width: 0.8"/>
     </g>
     <g id="line2d_22">
      <g>
       <use xlink:href="#mddea7d4889" x="52.340625" y="189.133369" style="stroke: #000000; stroke-width: 0.8"/>
      </g>
     </g>
     <g id="text_12">
      <!-- 0.00 -->
      <g transform="translate(25.340625 192.570869) scale(0.1 -0.1)">
       <use xlink:href="#SimHei-30"/>
       <use xlink:href="#SimHei-2e" x="50"/>
       <use xlink:href="#SimHei-30" x="100"/>
       <use xlink:href="#SimHei-30" x="150"/>
      </g>
     </g>
    </g>
    <g id="ytick_6">
     <g id="line2d_23">
      <path d="M 52.340625 151.332371 
L 610.340625 151.332371 
" clip-path="url(#pf9c070ab0c)" style="fill: none; stroke-dasharray: 2.96,1.28; stroke-dashoffset: 0; stroke: #b0b0b0; stroke-opacity: 0.7; stroke-width: 0.8"/>
     </g>
     <g id="line2d_24">
      <g>
       <use xlink:href="#mddea7d4889" x="52.340625" y="151.332371" style="stroke: #000000; stroke-width: 0.8"/>
      </g>
     </g>
     <g id="text_13">
      <!-- 0.25 -->
      <g transform="translate(25.340625 154.769871) scale(0.1 -0.1)">
       <use xlink:href="#SimHei-30"/>
       <use xlink:href="#SimHei-2e" x="50"/>
       <use xlink:href="#SimHei-32" x="100"/>
       <use xlink:href="#SimHei-35" x="150"/>
      </g>
     </g>
    </g>
    <g id="ytick_7">
     <g id="line2d_25">
      <path d="M 52.340625 113.531372 
L 610.340625 113.531372 
" clip-path="url(#pf9c070ab0c)" style="fill: none; stroke-dasharray: 2.96,1.28; stroke-dashoffset: 0; stroke: #b0b0b0; stroke-opacity: 0.7; stroke-width: 0.8"/>
     </g>
     <g id="line2d_26">
      <g>
       <use xlink:href="#mddea7d4889" x="52.340625" y="113.531372" style="stroke: #000000; stroke-width: 0.8"/>
      </g>
     </g>
     <g id="text_14">
      <!-- 0.50 -->
      <g transform="translate(25.340625 116.968872) scale(0.1 -0.1)">
       <use xlink:href="#SimHei-30"/>
       <use xlink:href="#SimHei-2e" x="50"/>
       <use xlink:href="#SimHei-35" x="100"/>
       <use xlink:href="#SimHei-30" x="150"/>
      </g>
     </g>
    </g>
    <g id="ytick_8">
     <g id="line2d_27">
      <path d="M 52.340625 75.730374 
L 610.340625 75.730374 
" clip-path="url(#pf9c070ab0c)" style="fill: none; stroke-dasharray: 2.96,1.28; stroke-dashoffset: 0; stroke: #b0b0b0; stroke-opacity: 0.7; stroke-width: 0.8"/>
     </g>
     <g id="line2d_28">
      <g>
       <use xlink:href="#mddea7d4889" x="52.340625" y="75.730374" style="stroke: #000000; stroke-width: 0.8"/>
      </g>
     </g>
     <g id="text_15">
      <!-- 0.75 -->
      <g transform="translate(25.340625 79.167874) scale(0.1 -0.1)">
       <use xlink:href="#SimHei-30"/>
       <use xlink:href="#SimHei-2e" x="50"/>
       <use xlink:href="#SimHei-37" x="100"/>
       <use xlink:href="#SimHei-35" x="150"/>
      </g>
     </g>
    </g>
    <g id="ytick_9">
     <g id="line2d_29">
      <path d="M 52.340625 37.929375 
L 610.340625 37.929375 
" clip-path="url(#pf9c070ab0c)" style="fill: none; stroke-dasharray: 2.96,1.28; stroke-dashoffset: 0; stroke: #b0b0b0; stroke-opacity: 0.7; stroke-width: 0.8"/>
     </g>
     <g id="line2d_30">
      <g>
       <use xlink:href="#mddea7d4889" x="52.340625" y="37.929375" style="stroke: #000000; stroke-width: 0.8"/>
      </g>
     </g>
     <g id="text_16">
      <!-- 1.00 -->
      <g transform="translate(25.340625 41.366875) scale(0.1 -0.1)">
       <use xlink:href="#SimHei-31"/>
       <use xlink:href="#SimHei-2e" x="50"/>
       <use xlink:href="#SimHei-30" x="100"/>
       <use xlink:href="#SimHei-30" x="150"/>
      </g>
     </g>
    </g>
    <g id="text_17">
     <!-- Y 轴 -->
     <g transform="translate(15.090625 199.129375) rotate(-90) scale(0.1 -0.1)">
      <defs>
       <path id="SimHei-59" d="M 3025 4400 
L 1850 2050 
L 1850 125 
L 1275 125 
L 1275 2050 
L 100 4400 
L 675 4400 
L 1550 2575 
L 1575 2575 
L 2450 4400 
L 3025 4400 
z
" transform="scale(0.015625)"/>
      </defs>
      <use xlink:href="#SimHei-59"/>
      <use xlink:href="#SimHei-20" x="50"/>
      <use xlink:href="#SimHei-8f74" x="100"/>
     </g>
    </g>
   </g>
   <g id="line2d_31">
    <path d="M 77.704261 189.133369 
L 82.828228 173.886197 
L 87.952195 158.794461 
L 93.076162 144.01201 
L 98.200129 129.689543 
L 103.324096 115.973069 
L 108.448063 103.002417 
L 113.57203 90.909816 
L 118.695997 79.818542 
L 123.819964 69.841664 
L 128.943931 61.080889 
L 134.067898 53.625529 
L 139.191865 47.551585 
L 144.315832 42.920978 
L 149.439799 39.780914 
L 154.563765 38.163404 
L 159.687732 38.084938 
L 164.811699 39.546315 
L 169.935666 42.532637 
L 175.059633 47.013461 
L 180.1836 52.943108 
L 185.307567 60.261129 
L 190.431534 68.89292 
L 195.555501 78.750487 
L 200.679468 89.733338 
L 205.803435 101.72951 
L 210.927402 114.616708 
L 216.051369 128.263557 
L 221.175336 142.530935 
L 226.299303 157.273395 
L 231.42327 172.340648 
L 236.547237 187.579092 
L 241.671204 202.833381 
L 246.79517 217.948007 
L 251.919137 232.768885 
L 257.043104 247.144928 
L 262.167071 260.929579 
L 267.291038 273.982313 
L 272.415005 286.170066 
L 277.538972 297.36859 
L 282.662939 307.463726 
L 287.786906 316.352558 
L 292.910873 323.94447 
L 298.03484 330.162069 
L 303.158807 334.941969 
L 308.282774 338.235443 
L 313.406741 340.008915 
L 318.530708 340.244306 
L 323.654675 338.939217 
L 328.778642 336.106952 
L 333.902608 331.776384 
L 339.026575 325.99166 
L 344.150542 318.811753 
L 349.274509 310.309857 
L 354.398476 300.572642 
L 359.522443 289.699375 
L 364.64641 277.800901 
L 369.770377 264.998517 
L 374.894344 251.422736 
L 380.018311 237.211955 
L 385.142278 222.511042 
L 390.266245 207.469866 
L 395.390212 192.24176 
L 400.514179 176.981966 
L 405.638146 161.846048 
L 410.762113 146.988307 
L 415.88608 132.560209 
L 421.010046 118.708838 
L 426.134013 105.5754 
L 431.25798 93.293784 
L 436.381947 81.989191 
L 441.505914 71.776866 
L 446.629881 62.760916 
L 451.753848 55.033253 
L 456.877815 48.672656 
L 462.001782 43.743968 
L 467.125749 40.297432 
L 472.249716 38.368185 
L 477.373683 37.975894 
L 482.49765 39.124558 
L 487.621617 41.802467 
L 492.745584 45.982321 
L 497.869551 51.62151 
L 502.993518 58.662545 
L 508.117485 67.033648 
L 513.241451 76.649481 
L 518.365418 87.412016 
L 523.489385 99.211535 
L 528.613352 111.927751 
L 533.737319 125.43103 
L 538.861286 139.583713 
L 543.985253 154.241524 
L 549.10922 169.255036 
L 554.233187 184.471194 
L 559.357154 199.73488 
L 564.481121 214.890491 
L 569.605088 229.783524 
L 574.729055 244.262154 
L 579.853022 258.178781 
L 584.976989 271.391534 
" clip-path="url(#pf9c070ab0c)" style="fill: none; stroke: #4caf50; stroke-width: 1.5; stroke-linecap: square"/>
   </g>
   <g id="line2d_32">
    <path d="M 77.704261 37.929375 
L 82.828228 38.70009 
L 87.952195 41.004376 
L 93.076162 44.818745 
L 98.200129 50.10431 
L 103.324096 56.807188 
L 108.448063 64.859048 
L 113.57203 74.177806 
L 118.695997 84.668464 
L 123.819964 96.224075 
L 128.943931 108.726838 
L 134.067898 122.049295 
L 139.191865 136.055631 
L 144.315832 150.603062 
L 149.439799 165.543284 
L 154.563765 180.723993 
L 159.687732 195.99043 
L 164.811699 211.186963 
L 169.935666 226.158674 
L 175.059633 240.752936 
L 180.1836 254.820968 
L 185.307567 268.219357 
L 190.431534 280.811515 
L 195.555501 292.469071 
L 200.679468 303.073186 
L 205.803435 312.515755 
L 210.927402 320.70052 
L 216.051369 327.54404 
L 221.175336 332.976551 
L 226.299303 336.942672 
L 231.42327 339.40197 
L 236.547237 340.329375 
L 241.671204 339.715432 
L 246.79517 337.5664 
L 251.919137 333.904187 
L 257.043104 328.766127 
L 262.167071 322.204599 
L 267.291038 314.286494 
L 272.415005 305.092532 
L 277.538972 294.71644 
L 282.662939 283.263995 
L 287.786906 270.851948 
L 292.910873 257.606831 
L 298.03484 243.663671 
L 303.158807 229.164608 
L 308.282774 214.257453 
L 313.406741 199.094173 
L 318.530708 183.82935 
L 323.654675 168.618597 
L 328.778642 153.61698 
L 333.902608 138.977429 
L 339.026575 124.849187 
L 344.150542 111.376281 
L 349.274509 98.69606 
L 354.398476 86.93779 
L 359.522443 76.22134 
L 364.64641 66.655956 
L 369.770377 58.339152 
L 374.894344 51.355713 
L 380.018311 45.776829 
L 385.142278 41.659376 
L 390.266245 39.045326 
L 395.390212 37.961329 
L 400.514179 38.418435 
L 405.638146 40.411985 
L 410.762113 43.921656 
L 415.88608 48.911668 
L 421.010046 55.331152 
L 426.134013 63.114665 
L 431.25798 72.18286 
L 436.381947 82.44329 
L 441.505914 93.791359 
L 446.629881 106.111379 
L 451.753848 119.277756 
L 456.877815 133.156267 
L 462.001782 147.605429 
L 467.125749 162.477942 
L 472.249716 177.62219 
L 477.373683 192.883788 
L 482.49765 208.107152 
L 487.621617 223.137091 
L 492.745584 237.820383 
L 497.869551 252.007342 
L 502.993518 265.553341 
L 508.117485 278.320286 
L 513.241451 290.178027 
L 518.365418 301.005681 
L 523.489385 310.692868 
L 528.613352 319.140832 
L 533.737319 326.263453 
L 538.861286 331.988119 
L 543.985253 336.256471 
L 549.10922 339.024996 
L 554.233187 340.265471 
L 559.357154 339.965249 
L 564.481121 338.127391 
L 569.605088 334.770634 
L 574.729055 329.929197 
L 579.853022 323.652435 
L 584.976989 316.004336 
" clip-path="url(#pf9c070ab0c)" style="fill: none; stroke: #2196f3; stroke-width: 1.5; stroke-linecap: square"/>
   </g>
   <g id="patch_3">
    <path d="M 52.340625 355.449375 
L 52.340625 22.809375 
" style="fill: none; stroke: #000000; stroke-width: 0.8; stroke-linejoin: miter; stroke-linecap: square"/>
   </g>
   <g id="patch_4">
    <path d="M 610.340625 355.449375 
L 610.340625 22.809375 
" style="fill: none; stroke: #000000; stroke-width: 0.8; stroke-linejoin: miter; stroke-linecap: square"/>
   </g>
   <g id="patch_5">
    <path d="M 52.340625 355.449375 
L 610.340625 355.449375 
" style="fill: none; stroke: #000000; stroke-width: 0.8; stroke-linejoin: miter; stroke-linecap: square"/>
   </g>
   <g id="patch_6">
    <path d="M 52.340625 22.809375 
L 610.340625 22.809375 
" style="fill: none; stroke: #000000; stroke-width: 0.8; stroke-linejoin: miter; stroke-linecap: square"/>
   </g>
   <g id="text_18">
    <!-- 三角函数图表 -->
    <g transform="translate(295.340625 16.809375) scale(0.12 -0.12)">
     <defs>
      <path id="SimHei-4e09" d="M 6000 -200 
Q 5550 -175 5200 -175 
L 1300 -175 
Q 900 -175 375 -200 
L 375 350 
Q 850 325 1300 325 
L 5200 325 
Q 5575 325 6000 375 
L 6000 -200 
z
M 900 4600 
Q 1400 4575 1825 4575 
L 4600 4575 
Q 5075 4575 5475 4600 
L 5475 4075 
Q 5100 4100 4600 4100 
L 1800 4100 
Q 1375 4100 900 4075 
L 900 4600 
z
M 2075 2100 
Q 1700 2100 1275 2075 
L 1275 2625 
Q 1675 2600 2075 2600 
L 4225 2600 
Q 4600 2600 5050 2625 
L 5050 2075 
Q 4550 2100 4225 2100 
L 2075 2100 
z
" transform="scale(0.015625)"/>
      <path id="SimHei-89d2" d="M 3125 900 
L 1625 900 
Q 1475 125 875 -625 
Q 650 -400 400 -300 
Q 775 50 975 475 
Q 1175 900 1250 1575 
Q 1325 2250 1300 3325 
Q 1100 3125 825 2925 
Q 700 3125 425 3325 
Q 650 3425 1075 3737 
Q 1500 4050 1850 4512 
Q 2200 4975 2350 5275 
Q 2550 5125 2825 5000 
Q 2700 4875 2425 4525 
L 4825 4525 
Q 4700 4375 4050 3475 
L 5600 3475 
Q 5575 2925 5575 2500 
L 5575 25 
Q 5575 -350 5325 -450 
Q 5075 -550 4575 -600 
Q 4500 -325 4325 -50 
Q 4825 -50 4975 0 
Q 5125 50 5100 325 
L 5100 900 
L 3600 900 
L 3600 400 
Q 3600 25 3625 -500 
L 3075 -500 
Q 3125 0 3125 500 
L 3125 900 
z
M 3525 3475 
L 3975 4125 
L 2150 4125 
Q 1825 3775 1475 3475 
L 3525 3475 
z
M 5100 1300 
L 5100 2000 
L 3600 2000 
L 3600 1300 
L 5100 1300 
z
M 5100 2400 
L 5100 3050 
L 3600 3050 
L 3600 2400 
L 5100 2400 
z
M 3125 1300 
L 3125 2000 
L 1750 2000 
Q 1750 1625 1700 1300 
L 3125 1300 
z
M 3125 2400 
L 3125 3050 
L 1775 3050 
L 1775 2400 
L 3125 2400 
z
" transform="scale(0.015625)"/>
      <path id="SimHei-51fd" d="M 1200 200 
L 5200 200 
L 5200 2225 
Q 5200 2600 5150 3075 
L 5700 3075 
Q 5675 2500 5675 2225 
L 5675 50 
Q 5675 -275 5700 -625 
L 5200 -625 
L 5200 -225 
L 700 -225 
Q 725 50 725 1375 
Q 725 2700 700 3075 
L 1225 3075 
Q 1200 2800 1200 2475 
L 1200 200 
z
M 5450 4925 
L 5450 4450 
Q 5075 4325 4475 4037 
Q 3875 3750 3475 3575 
L 3475 1100 
Q 3475 700 3200 587 
Q 2925 475 2525 400 
Q 2475 675 2350 950 
Q 2750 950 2887 1000 
Q 3025 1050 3025 1375 
L 3025 3075 
Q 3025 3550 2975 3850 
Q 3225 3925 3700 4125 
Q 4175 4325 4500 4500 
L 1950 4500 
Q 1425 4500 1025 4475 
L 1025 4950 
Q 1525 4925 1950 4925 
L 5450 4925 
z
M 4500 1750 
Q 4700 1575 5000 1275 
Q 4825 1125 4650 900 
Q 4400 1175 4200 1375 
Q 4000 1575 3600 1925 
Q 3775 2100 3900 2275 
L 4500 1750 
z
M 2700 1800 
Q 2525 1675 2237 1487 
Q 1950 1300 1600 1000 
Q 1525 1175 1325 1425 
Q 1500 1500 1887 1737 
Q 2275 1975 2550 2225 
Q 2600 2025 2700 1800 
z
M 4975 3175 
Q 4800 3100 4562 2912 
Q 4325 2725 4000 2475 
Q 3875 2700 3750 2850 
Q 4025 3050 4200 3200 
Q 4375 3350 4600 3575 
Q 4775 3375 4975 3175 
z
M 2350 2550 
Q 2200 2750 2000 2937 
Q 1800 3125 1475 3350 
Q 1650 3525 1750 3700 
Q 2025 3500 2650 2950 
Q 2475 2725 2350 2550 
z
" transform="scale(0.015625)"/>
      <path id="SimHei-6570" d="M 4525 4925 
Q 4475 4800 4400 4587 
Q 4325 4375 4175 3825 
L 5325 3825 
Q 5575 3825 5925 3850 
L 5925 3400 
Q 5650 3425 5500 3425 
Q 5500 3025 5362 2162 
Q 5225 1300 4875 675 
Q 5125 375 5437 137 
Q 5750 -100 6025 -200 
Q 5725 -425 5625 -625 
Q 5325 -450 5075 -225 
Q 4825 0 4575 325 
Q 4300 25 3987 -187 
Q 3675 -400 3200 -650 
Q 3075 -425 2850 -300 
Q 3225 -150 3650 125 
Q 4075 400 4300 675 
Q 4125 1025 3962 1425 
Q 3800 1825 3675 2475 
Q 3600 2275 3425 1950 
Q 3250 2050 3000 2150 
Q 3400 2850 3650 3675 
Q 3900 4500 3975 5100 
Q 4275 4975 4525 4925 
z
M 2100 2250 
Q 2000 2150 1875 1925 
L 3250 1925 
Q 3100 1300 2725 675 
Q 3125 525 3350 400 
Q 3225 225 3125 25 
Q 2900 175 2450 325 
Q 1950 -225 725 -650 
Q 600 -375 400 -275 
Q 1575 0 2000 475 
Q 1300 650 850 775 
Q 1000 1000 1250 1525 
Q 1000 1525 425 1500 
L 425 1950 
Q 900 1925 1400 1925 
Q 1500 2150 1550 2425 
Q 1825 2325 2100 2250 
z
M 1775 3950 
Q 1775 4550 1750 5100 
L 2250 5100 
Q 2225 4575 2225 3950 
Q 3075 3950 3425 3975 
L 3425 3525 
Q 3075 3550 2225 3550 
Q 2225 2825 2250 2425 
L 1750 2425 
Q 1775 2775 1775 3300 
Q 1650 3100 1300 2787 
Q 950 2475 650 2300 
Q 525 2525 275 2625 
Q 500 2700 875 2975 
Q 1250 3250 1450 3550 
Q 950 3550 500 3525 
L 500 3975 
Q 925 3950 1775 3950 
z
M 3975 3175 
Q 4200 1700 4600 1125 
Q 4850 1700 4937 2287 
Q 5025 2875 5050 3425 
L 4075 3425 
L 3975 3175 
z
M 1450 1000 
Q 1750 925 2275 800 
Q 2475 1050 2650 1525 
L 1725 1525 
Q 1600 1275 1450 1000 
z
M 3325 4825 
Q 3200 4625 3125 4450 
Q 3050 4275 2925 4025 
Q 2725 4125 2525 4175 
Q 2725 4500 2900 5000 
Q 3150 4875 3325 4825 
z
M 2575 3375 
Q 2900 3050 3200 2725 
Q 3050 2600 2875 2425 
Q 2525 2850 2300 3100 
Q 2450 3225 2575 3375 
z
M 925 5000 
Q 1275 4650 1500 4300 
L 1125 4075 
Q 950 4425 600 4725 
Q 825 4875 925 5000 
z
" transform="scale(0.015625)"/>
      <path id="SimHei-56fe" d="M 5800 4975 
Q 5775 4350 5775 3600 
L 5775 925 
Q 5775 150 5800 -600 
L 5300 -600 
L 5300 -275 
L 1125 -275 
L 1125 -650 
L 625 -650 
Q 650 125 650 950 
L 650 3600 
Q 650 4325 625 4975 
L 5800 4975 
z
M 5300 150 
L 5300 4575 
L 1125 4575 
L 1125 150 
L 5300 150 
z
M 3225 4250 
Q 3075 4100 2950 3925 
L 4625 3925 
Q 4525 3700 4300 3375 
Q 4075 3050 3600 2600 
Q 4350 2225 5075 2150 
Q 4900 1925 4775 1675 
Q 3850 1950 3225 2350 
Q 2500 1875 1675 1650 
Q 1600 1875 1400 2075 
Q 2200 2200 2875 2600 
Q 2525 2925 2375 3150 
Q 2150 2900 1900 2650 
Q 1725 2850 1525 2950 
Q 1950 3300 2250 3737 
Q 2550 4175 2675 4475 
Q 2925 4350 3225 4250 
z
M 2450 1275 
Q 3550 950 4100 725 
Q 3975 525 3850 300 
Q 2825 725 2275 850 
Q 2375 1050 2450 1275 
z
M 2925 2050 
Q 3775 1700 4075 1600 
Q 3950 1400 3850 1150 
Q 3000 1550 2700 1650 
Q 2825 1825 2925 2050 
z
M 2625 3450 
Q 3000 3025 3275 2850 
Q 3600 3100 3875 3525 
L 2675 3525 
L 2625 3450 
z
" transform="scale(0.015625)"/>
      <path id="SimHei-8868" d="M 2950 4475 
Q 2950 4800 2925 5200 
L 3500 5200 
Q 3450 4900 3450 4475 
L 4975 4475 
Q 5325 4475 5725 4500 
L 5725 4025 
Q 5325 4075 5000 4075 
L 3450 4075 
L 3450 3600 
L 4675 3600 
Q 5075 3600 5450 3625 
L 5450 3175 
Q 5100 3200 4675 3200 
L 3450 3200 
L 3450 2650 
L 5225 2650 
Q 5675 2650 6075 2675 
L 6075 2200 
Q 5700 2250 5250 2250 
L 3075 2250 
Q 2900 2025 2525 1625 
L 2525 175 
Q 2975 425 3525 800 
Q 3575 500 3700 275 
Q 3225 50 2837 -200 
Q 2450 -450 2250 -625 
Q 2050 -375 1900 -175 
Q 2075 -50 2050 400 
L 2050 1200 
Q 1750 950 1425 737 
Q 1100 525 750 325 
Q 600 550 375 750 
Q 975 1000 1562 1425 
Q 2150 1850 2450 2250 
L 1275 2250 
Q 800 2250 350 2200 
L 350 2675 
Q 650 2650 1350 2650 
L 2950 2650 
L 2950 3200 
L 1825 3200 
Q 1400 3200 1125 3175 
L 1125 3625 
Q 1525 3600 1825 3600 
L 2950 3600 
L 2950 4075 
L 1700 4075 
Q 1225 4075 825 4025 
L 825 4525 
Q 1200 4475 1825 4475 
L 2950 4475 
z
M 3550 2125 
Q 3725 1600 4150 1050 
Q 4650 1450 5050 2000 
Q 5275 1775 5575 1575 
Q 5350 1500 5075 1262 
Q 4800 1025 4475 725 
Q 4725 475 5225 337 
Q 5725 200 6150 175 
Q 5925 -100 5875 -425 
Q 4600 -125 4012 500 
Q 3425 1125 3150 1950 
L 3550 2125 
z
" transform="scale(0.015625)"/>
     </defs>
     <use xlink:href="#SimHei-4e09"/>
     <use xlink:href="#SimHei-89d2" x="100"/>
     <use xlink:href="#SimHei-51fd" x="200"/>
     <use xlink:href="#SimHei-6570" x="300"/>
     <use xlink:href="#SimHei-56fe" x="400"/>
     <use xlink:href="#SimHei-8868" x="500"/>
    </g>
   </g>
   <g id="legend_1">
    <g id="patch_7">
     <path d="M 541.340625 57.91875 
L 603.340625 57.91875 
Q 605.340625 57.91875 605.340625 55.91875 
L 605.340625 29.809375 
Q 605.340625 27.809375 603.340625 27.809375 
L 541.340625 27.809375 
Q 539.340625 27.809375 539.340625 29.809375 
L 539.340625 55.91875 
Q 539.340625 57.91875 541.340625 57.91875 
z
" style="fill: #ffffff; opacity: 0.8; stroke: #cccccc; stroke-linejoin: miter"/>
    </g>
    <g id="line2d_33">
     <path d="M 543.340625 35.614062 
L 553.340625 35.614062 
L 563.340625 35.614062 
" style="fill: none; stroke: #4caf50; stroke-width: 1.5; stroke-linecap: square"/>
    </g>
    <g id="text_19">
     <!-- sin(x) -->
     <g transform="translate(571.340625 39.114062) scale(0.1 -0.1)">
      <defs>
       <path id="SimHei-73" d="M 2750 900 
Q 2750 500 2437 287 
Q 2125 75 1650 75 
Q 1050 75 725 312 
Q 400 550 400 1000 
L 900 1000 
Q 900 700 1112 600 
Q 1325 500 1625 500 
Q 1925 500 2075 612 
Q 2225 725 2225 900 
Q 2225 1025 2100 1150 
Q 1975 1275 1475 1350 
Q 900 1425 687 1637 
Q 475 1850 475 2200 
Q 475 2500 762 2737 
Q 1050 2975 1600 2975 
Q 2100 2975 2387 2750 
Q 2675 2525 2675 2150 
L 2175 2150 
Q 2175 2375 2012 2462 
Q 1850 2550 1600 2550 
Q 1275 2550 1137 2437 
Q 1000 2325 1000 2175 
Q 1000 2000 1125 1900 
Q 1250 1800 1650 1750 
Q 2300 1650 2525 1437 
Q 2750 1225 2750 900 
z
" transform="scale(0.015625)"/>
       <path id="SimHei-69" d="M 1800 3725 
L 1300 3725 
L 1300 4375 
L 1800 4375 
L 1800 3725 
z
M 1800 125 
L 1300 125 
L 1300 2925 
L 1800 2925 
L 1800 125 
z
" transform="scale(0.015625)"/>
       <path id="SimHei-6e" d="M 2800 125 
L 2300 125 
L 2300 1925 
Q 2300 2225 2150 2400 
Q 2000 2575 1750 2575 
Q 1425 2575 1137 2237 
Q 850 1900 850 1400 
L 850 125 
L 350 125 
L 350 2925 
L 850 2925 
L 850 2400 
Q 1050 2675 1287 2825 
Q 1525 2975 1900 2975 
Q 2350 2975 2575 2725 
Q 2800 2475 2800 2100 
L 2800 125 
z
" transform="scale(0.015625)"/>
       <path id="SimHei-28" d="M 2975 -200 
L 2700 -475 
Q 2075 125 1762 775 
Q 1450 1425 1450 2250 
Q 1450 3075 1762 3725 
Q 2075 4375 2700 5000 
L 2975 4725 
Q 2400 4175 2112 3587 
Q 1825 3000 1825 2250 
Q 1825 1500 2112 912 
Q 2400 325 2975 -200 
z
" transform="scale(0.015625)"/>
       <path id="SimHei-78" d="M 2875 125 
L 2275 125 
L 1550 1200 
L 825 125 
L 225 125 
L 1250 1550 
L 300 2925 
L 900 2925 
L 1550 1875 
L 2200 2925 
L 2800 2925 
L 1850 1550 
L 2875 125 
z
" transform="scale(0.015625)"/>
       <path id="SimHei-29" d="M 1675 2250 
Q 1675 1425 1362 775 
Q 1050 125 425 -475 
L 150 -200 
Q 725 325 1012 912 
Q 1300 1500 1300 2250 
Q 1300 3000 1012 3587 
Q 725 4175 150 4725 
L 425 5000 
Q 1050 4375 1362 3725 
Q 1675 3075 1675 2250 
z
" transform="scale(0.015625)"/>
      </defs>
      <use xlink:href="#SimHei-73"/>
      <use xlink:href="#SimHei-69" x="50"/>
      <use xlink:href="#SimHei-6e" x="100"/>
      <use xlink:href="#SimHei-28" x="150"/>
      <use xlink:href="#SimHei-78" x="200"/>
      <use xlink:href="#SimHei-29" x="250"/>
     </g>
    </g>
    <g id="line2d_34">
     <path d="M 543.340625 49.16875 
L 553.340625 49.16875 
L 563.340625 49.16875 
" style="fill: none; stroke: #2196f3; stroke-width: 1.5; stroke-linecap: square"/>
    </g>
    <g id="text_20">
     <!-- cos(x) -->
     <g transform="translate(571.340625 52.66875) scale(0.1 -0.1)">
      <defs>
       <path id="SimHei-63" d="M 2850 1250 
Q 2850 725 2487 400 
Q 2125 75 1575 75 
Q 1025 75 625 462 
Q 225 850 225 1525 
Q 225 2200 625 2587 
Q 1025 2975 1575 2975 
Q 2125 2975 2450 2687 
Q 2775 2400 2775 2000 
L 2225 2000 
Q 2200 2300 2012 2412 
Q 1825 2525 1575 2525 
Q 1275 2525 1025 2287 
Q 775 2050 775 1525 
Q 775 1000 1025 762 
Q 1275 525 1575 525 
Q 1900 525 2100 700 
Q 2300 875 2300 1250 
L 2850 1250 
z
" transform="scale(0.015625)"/>
       <path id="SimHei-6f" d="M 2925 1525 
Q 2925 875 2525 475 
Q 2125 75 1575 75 
Q 1025 75 625 475 
Q 225 875 225 1525 
Q 225 2175 625 2575 
Q 1025 2975 1575 2975 
Q 2125 2975 2525 2575 
Q 2925 2175 2925 1525 
z
M 2375 1525 
Q 2375 2025 2125 2275 
Q 1875 2525 1575 2525 
Q 1275 2525 1025 2275 
Q 775 2025 775 1525 
Q 775 1025 1025 775 
Q 1275 525 1575 525 
Q 1875 525 2125 775 
Q 2375 1025 2375 1525 
z
" transform="scale(0.015625)"/>
      </defs>
      <use xlink:href="#SimHei-63"/>
      <use xlink:href="#SimHei-6f" x="50"/>
      <use xlink:href="#SimHei-73" x="100"/>
      <use xlink:href="#SimHei-28" x="150"/>
      <use xlink:href="#SimHei-78" x="200"/>
      <use xlink:href="#SimHei-29" x="250"/>
     </g>
    </g>
   </g>
  </g>
 </g>
 <defs>
  <clipPath id="pf9c070ab0c">
   <rect x="52.340625" y="22.809375" width="558" height="332.64"/>
  </clipPath>
 </defs>
</svg>
