<?xml version='1.0' encoding='utf-8'?>
<svg width="900" height="auto" viewBox="-90,-30,880,340" max-width="100%" font="10px sans-serif" id="svg">
  <style type="text/css" id="style">
	.st0{opacity:0.7;}
	.st1{fill:#F15A24;}
	.st2{opacity:0.6;fill:#29ABE2;}
	.st3{opacity:0.7;fill:#FBB03B;}
	.st4{opacity:0.7;fill:#8CC63F;}
	.st5{fill:#0071BC;}
	.st6{opacity:0.7;fill:#9327C9;}
	.st7{opacity:0.7;fill:#ED1E79;}
	.st8{opacity:0.7;fill:#FCCC21;}
	.st9{fill:#8CC63F;}
	.st10{fill:#29ABE2;}
	.st11{fill:#666666;}
	.st12{fill:#F7931E;}
	.st13{fill:#FCCC21;}
	.st14{fill:#9327C9;}
	.st15{fill:#ED1E79;}
</style>
  <g id="g_11">
    <g max-width="100%" height="auto" font="10px sans-serif" id="g_17">
      <path class="st1" d="M69.7,123.6c0,0,1,0.4,3,1.1c2,0.7,4.8,1.8,8.5,2.9c3.7,1.2,8.1,2.6,13.2,4.1c5.1,1.5,10.9,3,17.2,4.6    c12.6,3.2,27.5,6.5,43.4,9.3c8,1.4,16.2,2.9,24.6,4.2c8.4,1.3,16.9,2.5,25.5,3.8c4.3,0.6,8.6,1.2,12.8,1.8    c2.1,0.3,4.3,0.5,6.4,0.8c2.1,0.2,4.3,0.5,6.4,0.8c8.5,1.2,16.8,2.2,25,3c8.1,1.1,16,2,23.5,2.7c1.9,0.2,3.7,0.4,5.6,0.5    c1.8,0.2,3.6,0.4,5.4,0.6c3.5,0.4,6.9,0.7,10.2,1.1c3.3,0.3,6.5,0.5,9.5,0.8c1.5,0.1,3,0.2,4.4,0.3c1.4,0.1,2.8,0.3,4.1,0.4    c5.4,0.4,10.1,0.7,14,0.9c7.8,0.4,12.4,0.2,12.4,0.2l-12.6,45.5c0,0-3.7-2.3-10.5-5.8c-3.4-1.8-7.5-3.8-12.2-6    c-2.4-1.1-4.9-2.3-7.6-3.4c-2.7-1.1-5.6-2.2-8.5-3.4c-3-1.2-6.1-2.3-9.3-3.5c-1.6-0.6-3.3-1.2-5-1.8c-1.7-0.6-3.4-1.1-5.2-1.6    c-7-2.1-14.4-4.3-22.1-6.3c-7.8-1.8-15.8-3.5-24.1-5.2c-4.1-0.9-8.3-1.4-12.5-2.1c-4.2-0.6-8.4-1.3-12.7-1.8    c-8.4-1.2-17-2-25.4-2.7c-8.4-0.7-16.7-1.3-24.7-1.7c-8.1-0.3-15.9-0.5-23.3-0.6c-7.4,0-14.4,0-20.9,0.3    c-6.5,0.2-12.5,0.5-17.8,0.9c-5.3,0.4-9.9,0.8-13.8,1.2c-3.8,0.4-12.1,1.6-12.1,1.6L69.7,123.6z" id="path_27" />
    </g>
    <g max-width="100%" height="auto" font="10px sans-serif" id="g_16">
      <path class="st1" d="M332.7,101.1c0,0-0.2,0.2-0.5,0.5c-0.3,0.3-0.8,0.8-1.5,1.3c-0.6,0.5-1.4,1.2-2.4,1.9c-0.5,0.4-1,0.8-1.5,1.2    c-0.6,0.4-1.1,0.8-1.8,1.2c-2.5,1.8-5.6,3.6-9.2,5.6c-3.6,1.9-7.8,3.7-12.5,5.2c-1.2,0.4-2.4,0.8-3.6,1.2c-1.2,0.3-2.5,0.7-3.7,1    c-1.3,0.3-2.6,0.6-3.9,0.8c-1.3,0.2-2.7,0.5-4,0.7c-5.5,0.8-11.3,1-17.2,0.5c-5.9-0.5-12-1.7-17.8-3.7c-5.9-2-11.5-4.9-16.7-8.4    c-5.2-3.6-9.9-7.8-13.8-12.6c-4-4.8-7.2-10-9.7-15.4c-2.5-5.4-4.2-11-5.2-16.4c-1-5.4-1.4-10.6-1.3-15.5c0.1-2.4,0.2-4.7,0.5-7    c0.3-2.2,0.7-4.3,1.1-6.2c0.5-2,0.9-3.7,1.5-5.4c0.6-1.6,1.1-3.1,1.7-4.4c0.6-1.3,1.1-2.4,1.7-3.4c0.5-0.9,1-1.7,1.5-2.2    c0.4-0.5,0.7-0.8,1-1l-28,1.5c-0.9,1.6-2.4,2.9-4.7,3.6c-6.8,2-13.7,3.9-20.7,5.3c-1.9,0.4-3.8,0.2-5.5-0.5    c-1.2,0.9-2.8,1.4-4.7,1.4c-1.2,0-2.2-0.2-3.2-0.6c0.7,1.5,1.5,3.3,2.5,5.2c1.7,3.5,3.7,7.6,6.1,12.2c1.2,2.3,2.4,4.7,3.8,7.2    c1.3,2.5,2.8,5.1,4.3,7.8c1.5,2.7,3.1,5.4,4.8,8.2c1.7,2.8,3.5,5.7,5.4,8.6c1.8,2.9,3.8,5.9,6,8.8c1,1.5,2.1,3,3.2,4.4    c1.1,1.5,2.2,3,3.4,4.4c4.6,5.9,9.7,11.7,15.3,17.2c5.5,5.5,11.7,10.7,18.1,15.5c6.4,4.7,13.3,8.9,20.2,12.6    c7,3.7,14.1,6.8,21.2,9.4c3.5,1.3,7,2.5,10.5,3.7c3.5,1.1,6.9,2.1,10.2,3c6.7,1.8,13,3.2,19.1,4.1c15.4,2.4,39.2,4.7,39.2,4.7    L332.7,101.1z" id="path_26" />
    </g>
    <path class="st2" d="M67,170.2l11.8,46.9l63.7-25.3c0,0,3.5-0.9,4.7,0.5c1.2,1.4-0.7,3.9-0.7,3.9l-49,43l36,36c0,0,40-50.7,20-87.3   C133.5,151.2,55.7,176.2,67,170.2z" id="path_25" />
    <path class="st3" d="M204,289.5c0,0,5-128.9-57-260.5L89.9,78.7c0,0,125.1,72.7,45.5,194c-1.8,2.5,29,20,29,20L204,289.5z" id="path_24" />
    <path class="st3" d="M69.7,123.6l11-31c0,0,133.8,86.7,129.7-74C210.3,18.7,241,29,241,29S217.1,171.9,69.7,123.6z" id="path_23" />
    <g max-width="100%" height="auto" font="10px sans-serif" id="g_15">
      <path class="st1" d="M78.7,224.7c0,0,0.2-0.1,0.7-0.4c0.3-0.1,0.6-0.3,1-0.6c0.3-0.2,0.7-0.4,1.2-0.7c1.8-1,4.4-2.3,7.7-3.9    c3.3-1.6,7.3-3.5,11.8-5.6c2.3-1,4.7-2.1,7.3-3.1c2.6-1.1,5.3-2.2,8.1-3.3c1.4-0.6,2.9-1.1,4.4-1.6c1.5-0.5,3-1.1,4.6-1.6    c3.1-1.1,6.3-2.3,9.6-3.3c3.3-1.1,6.8-2.1,10.3-3.1c1.7-0.5,3.5-1,5.3-1.5c1.8-0.5,3.6-1,5.4-1.4c3.7-0.8,7.4-1.8,11.3-2.4    c1.9-0.4,3.8-0.7,5.8-1.1c1.9-0.3,3.9-0.7,5.8-1c1-0.2,2-0.3,2.9-0.5l3-0.4c2-0.2,4-0.5,6-0.8c2-0.2,4-0.3,6-0.5    c1-0.1,2-0.1,3-0.3c1-0.1,2-0.2,3-0.2l6-0.3c1-0.1,2-0.1,3-0.2l3,0c2,0,4,0,6,0c2,0,4,0.1,6,0.2c2,0.1,4,0.2,5.9,0.2    c2,0.1,3.9,0.3,5.9,0.4c1.9,0.2,3.9,0.3,5.8,0.5c1.9,0.2,3.8,0.5,5.7,0.7c1.9,0.3,3.8,0.5,5.6,0.7c1.8,0.3,3.7,0.6,5.5,0.9    c1.8,0.3,3.6,0.6,5.4,0.9c1.8,0.3,3.5,0.8,5.2,1.1c6.8,1.4,13.2,3.2,19.2,4.7c2.9,0.9,5.7,1.9,8.4,2.6c1.3,0.4,2.6,0.8,3.9,1.2    c1.3,0.4,2.5,0.9,3.6,1.3c2.3,0.9,4.5,1.7,6.6,2.4c1,0.4,2,0.7,3,1c0.9,0.4,1.8,0.7,2.6,1.1c3.3,1.4,6,2.3,7.8,3.1    c1.8,0.7,2.8,1.1,2.8,1.1l-10,17.9c0,0-0.8-0.5-2.3-1.5c-1.5-1-3.7-2.5-6.5-4.2c-0.7-0.4-1.5-0.9-2.2-1.4    c-0.8-0.5-1.6-0.9-2.5-1.4c-1.8-1-3.7-2-5.7-3.1c-1-0.5-2.1-1.1-3.2-1.7c-1.1-0.5-2.3-1.1-3.5-1.6c-2.4-1.1-4.9-2.2-7.5-3.4    c-2.7-1-5.5-2.1-8.4-3.2c-0.7-0.3-1.5-0.6-2.2-0.8c-0.7-0.3-1.5-0.5-2.3-0.7c-1.5-0.5-3.1-0.9-4.7-1.4c-1.6-0.5-3.2-1-4.8-1.4    c-1.6-0.4-3.3-0.8-5-1.2c-1.7-0.4-3.4-0.8-5.1-1.2c-1.7-0.3-3.5-0.6-5.3-0.9c-1.8-0.3-3.6-0.6-5.4-0.9c-1.8-0.3-3.6-0.4-5.5-0.7    c-1.8-0.2-3.7-0.4-5.6-0.7c-1.9-0.1-3.8-0.2-5.7-0.3c-1.9-0.1-3.8-0.2-5.7-0.2c-1.9,0-3.8,0-5.7,0h-2.9c-1,0-1.9,0.1-2.9,0.1    l-5.8,0.3c-1.9,0.1-3.8,0.3-5.8,0.5c-1.9,0.2-3.8,0.4-5.7,0.7c-1.9,0.3-3.8,0.6-5.7,0.9l-2.8,0.4c-0.9,0.2-1.9,0.4-2.8,0.6    c-1.9,0.4-3.7,0.7-5.6,1.1c-1.8,0.4-3.6,0.9-5.4,1.4c-3.6,0.9-7.1,2-10.6,3.1c-1.7,0.5-3.4,1.1-5.1,1.7c-1.7,0.6-3.3,1.1-4.9,1.8    c-3.2,1.3-6.4,2.5-9.4,3.9c-3,1.3-5.9,2.7-8.7,4c-1.4,0.7-2.7,1.4-4,2.1c-1.3,0.7-2.6,1.4-3.9,2.1c-2.5,1.4-4.9,2.8-7.1,4.2    c-2.2,1.4-4.3,2.8-6.2,4.1c-3.8,2.6-7,5-9.6,7.1c-2.6,2-4.4,3.8-5.7,4.9c-0.3,0.3-0.6,0.5-0.8,0.8c-0.2,0.2-0.4,0.4-0.5,0.5    c-0.3,0.3-0.5,0.5-0.5,0.5L78.7,224.7z" id="path_22" />
    </g>
    <path class="st4" d="M94.1,88.8l-13.4,4.6C202.4,152.4,210,271.6,210.4,294.6c0.4,0.1,0.8,0.4,1.1,1c0.5,1,1.2,2,1.9,2.9   c2.1-0.1,4.2-0.1,6.2-0.1c0.7-1.2,0.8-2.1,1-2.4C207.9,150.7,94.1,88.8,94.1,88.8z" id="path_21" />
    <path class="st4" d="M221,296c0,0-20.6-110.8,21.4-271.5c0.7,0,31.7,12.9,31.7,12.9S192.3,148,252.3,286.7   C252.3,287.3,221,296,221,296z" id="path_20" />
    <path class="st4" d="M278.7,41.4c0,0-85.7,108.6-26.3,245.3l66.3-51.2c0,0-142-72.6,16.7-130.4C335.5,105.3,278.7,41.4,278.7,41.4z   " id="path_19" />
    <g max-width="100%" height="auto" font="10px sans-serif" id="g_14">
      <path class="st5" d="M490.1,24.7c0,0,0.4,1,1.1,3c0.7,1.9,1.8,4.8,2.9,8.5c1.2,3.7,2.6,8.1,4.1,13.2c1.5,5.1,3,10.9,4.6,17.2    c3.2,12.6,6.5,27.5,9.3,43.4c1.4,8,2.9,16.2,4.2,24.6c1.3,8.4,2.5,16.9,3.8,25.5c0.6,4.3,1.2,8.6,1.8,12.8    c0.3,2.1,0.5,4.3,0.8,6.4c0.2,2.1,0.5,4.3,0.8,6.4c1.2,8.5,2.2,16.8,3,25c1.1,8.1,2,16,2.7,23.5c0.2,1.9,0.4,3.7,0.5,5.6    c0.2,1.8,0.4,3.6,0.6,5.4c0.4,3.5,0.7,6.9,1.1,10.2c0.3,3.3,0.5,6.5,0.8,9.5c0.1,1.5,0.2,3,0.3,4.4c0.1,1.4,0.3,2.8,0.4,4.1    c0.4,5.4,0.7,10.1,0.9,14c0.4,7.8,0.2,12.4,0.2,12.4l45.5-12.6c0,0-2.3-3.7-5.8-10.5c-1.8-3.4-3.8-7.5-6-12.2    c-1.1-2.4-2.3-4.9-3.4-7.6c-1.1-2.7-2.2-5.6-3.4-8.5c-1.2-3-2.3-6.1-3.5-9.3c-0.6-1.6-1.2-3.3-1.8-5c-0.6-1.7-1.1-3.4-1.6-5.2    c-2.1-7-4.3-14.4-6.3-22.1c-1.8-7.8-3.5-15.8-5.2-24.1c-0.9-4.1-1.4-8.3-2.1-12.5c-0.6-4.2-1.3-8.4-1.8-12.7    c-1.2-8.4-2-17-2.7-25.4c-0.7-8.4-1.3-16.7-1.7-24.7c-0.3-8.1-0.5-15.9-0.6-23.3c0-7.4,0-14.4,0.3-20.9c0.2-6.5,0.5-12.5,0.9-17.8    c0.4-5.3,0.8-9.9,1.2-13.8c0.4-3.8,1.6-12.1,1.6-12.1L490.1,24.7z" id="path_18" />
    </g>
    <g max-width="100%" height="auto" font="10px sans-serif" id="g_13">
      <path class="st5" d="M467.6,287.7c0,0,0.2-0.2,0.5-0.5c0.3-0.3,0.8-0.8,1.3-1.5c0.5-0.6,1.2-1.4,1.9-2.4c0.4-0.5,0.8-1,1.2-1.5    c0.4-0.6,0.8-1.1,1.2-1.8c1.8-2.5,3.6-5.6,5.6-9.2c1.9-3.6,3.7-7.8,5.2-12.5c0.4-1.2,0.8-2.4,1.2-3.6c0.3-1.2,0.7-2.5,1-3.7    c0.3-1.3,0.6-2.6,0.8-3.9c0.2-1.3,0.5-2.7,0.7-4c0.8-5.5,1-11.3,0.5-17.2c-0.5-5.9-1.7-12-3.7-17.8c-2-5.9-4.9-11.5-8.4-16.7    c-3.6-5.2-7.8-9.9-12.6-13.8c-4.8-4-10-7.2-15.4-9.7c-5.4-2.5-11-4.2-16.4-5.2c-5.4-1-10.6-1.4-15.5-1.3c-2.4,0.1-4.7,0.2-7,0.5    c-2.2,0.3-4.3,0.7-6.2,1.1c-2,0.5-3.7,0.9-5.4,1.5c-1.6,0.6-3.1,1.1-4.4,1.7c-1.3,0.6-2.4,1.1-3.4,1.7c-0.9,0.5-1.7,1-2.2,1.5    c-0.5,0.4-0.8,0.7-1,1l1.5-28c1.6-0.9,2.9-2.4,3.6-4.7c2-6.8,3.9-13.7,5.3-20.7c0.4-1.9,0.2-3.8-0.5-5.5c0.9-1.2,1.4-2.8,1.4-4.7    c0-1.2-0.2-2.2-0.6-3.2c1.5,0.7,3.3,1.5,5.2,2.5c3.5,1.7,7.6,3.7,12.2,6.1c2.3,1.2,4.7,2.4,7.2,3.8c2.5,1.3,5.1,2.8,7.8,4.3    c2.7,1.5,5.4,3.1,8.2,4.8c2.8,1.7,5.7,3.5,8.6,5.4c2.9,1.8,5.9,3.8,8.8,6c1.5,1,3,2.1,4.4,3.2c1.5,1.1,3,2.2,4.4,3.4    c5.9,4.6,11.7,9.7,17.2,15.3c5.5,5.5,10.7,11.7,15.5,18.1c4.7,6.4,8.9,13.3,12.6,20.2c3.7,7,6.8,14.1,9.4,21.2    c1.3,3.5,2.5,7,3.7,10.5c1.1,3.5,2.1,6.9,3,10.2c1.8,6.7,3.2,13,4.1,19.1c2.4,15.4,4.7,39.2,4.7,39.2L467.6,287.7z" id="path_17" />
    </g>
    <path class="st6" d="M536.7,22l46.9,11.8l-25.3,63.7c0,0-0.9,3.5,0.5,4.7c1.4,1.2,3.9-0.7,3.9-0.7l43-49l36,36c0,0-50.7,40-87.3,20   C517.7,88.5,542.7,10.7,536.7,22z" id="path_16" />
    <path class="st7" d="M656,159c0,0-128.9,5-260.5-57l49.7-57.1c0,0,72.7,125.1,194,45.5c2.5-1.8,20,29,20,29L656,159z" id="path_15" />
    <path class="st7" d="M490.1,24.7l-31,11c0,0,86.7,133.8-74,129.7c0-0.1,10.3,30.6,10.3,30.6S538.4,172.1,490.1,24.7z" id="path_14" />
    <g max-width="100%" height="auto" font="10px sans-serif" id="g_12">
      <path class="st5" d="M591.2,33.7c0,0-0.1,0.2-0.4,0.7c-0.1,0.3-0.3,0.6-0.6,1c-0.2,0.3-0.4,0.7-0.7,1.2c-1,1.8-2.3,4.4-3.9,7.7    c-1.6,3.3-3.5,7.3-5.6,11.8c-1,2.3-2.1,4.7-3.1,7.3c-1.1,2.6-2.2,5.3-3.3,8.1c-0.6,1.4-1.1,2.9-1.6,4.4c-0.5,1.5-1.1,3-1.6,4.6    c-1.1,3.1-2.3,6.3-3.3,9.6c-1.1,3.3-2.1,6.8-3.1,10.3c-0.5,1.7-1,3.5-1.5,5.3c-0.5,1.8-1,3.6-1.4,5.4c-0.8,3.7-1.8,7.4-2.4,11.3    c-0.4,1.9-0.7,3.8-1.1,5.8c-0.3,1.9-0.7,3.9-1,5.8c-0.2,1-0.3,2-0.5,2.9l-0.4,3c-0.2,2-0.5,4-0.8,6c-0.2,2-0.3,4-0.5,6    c-0.1,1-0.1,2-0.3,3c-0.1,1-0.2,2-0.2,3l-0.3,6c-0.1,1-0.1,2-0.2,3l0,3c0,2,0,4,0,6c0,2,0.1,4,0.2,6c0.1,2,0.2,4,0.2,5.9    c0.1,2,0.3,3.9,0.4,5.9c0.2,1.9,0.3,3.9,0.5,5.8c0.2,1.9,0.5,3.8,0.7,5.7c0.3,1.9,0.5,3.8,0.7,5.6c0.3,1.8,0.6,3.7,0.9,5.5    c0.3,1.8,0.6,3.6,0.9,5.4c0.3,1.8,0.8,3.5,1.1,5.2c1.4,6.8,3.2,13.2,4.7,19.2c0.9,2.9,1.9,5.7,2.6,8.4c0.4,1.3,0.8,2.6,1.2,3.9    c0.4,1.3,0.9,2.5,1.3,3.6c0.9,2.3,1.7,4.5,2.4,6.6c0.4,1,0.7,2,1,3c0.4,0.9,0.7,1.8,1.1,2.6c1.4,3.3,2.3,6,3.1,7.8    c0.7,1.8,1.1,2.8,1.1,2.8l17.9-10c0,0-0.5-0.8-1.5-2.3c-1-1.5-2.5-3.7-4.2-6.5c-0.4-0.7-0.9-1.5-1.4-2.2c-0.5-0.8-0.9-1.6-1.4-2.5    c-1-1.8-2-3.7-3.1-5.7c-0.5-1-1.1-2.1-1.7-3.2c-0.5-1.1-1.1-2.3-1.6-3.5c-1.1-2.4-2.2-4.9-3.4-7.5c-1-2.7-2.1-5.5-3.2-8.4    c-0.3-0.7-0.6-1.5-0.8-2.2c-0.3-0.7-0.5-1.5-0.7-2.3c-0.5-1.5-0.9-3.1-1.4-4.7c-0.5-1.6-1-3.2-1.4-4.8c-0.4-1.6-0.8-3.3-1.2-5    c-0.4-1.7-0.8-3.4-1.2-5.1c-0.3-1.7-0.6-3.5-0.9-5.3c-0.3-1.8-0.6-3.6-0.9-5.4c-0.3-1.8-0.4-3.6-0.7-5.5c-0.2-1.8-0.4-3.7-0.7-5.6    c-0.1-1.9-0.2-3.8-0.3-5.7c-0.1-1.9-0.2-3.8-0.2-5.7c0-1.9,0-3.8,0-5.7v-2.9c0-1,0.1-1.9,0.1-2.9l0.3-5.8c0.1-1.9,0.3-3.8,0.5-5.8    c0.2-1.9,0.4-3.8,0.7-5.7c0.3-1.9,0.6-3.8,0.9-5.7l0.4-2.8c0.2-0.9,0.4-1.9,0.6-2.8c0.4-1.9,0.7-3.7,1.1-5.6    c0.4-1.8,0.9-3.6,1.4-5.4c0.9-3.6,2-7.1,3.1-10.6c0.5-1.7,1.1-3.4,1.7-5.1c0.6-1.7,1.1-3.3,1.8-4.9c1.3-3.2,2.5-6.4,3.9-9.4    c1.3-3,2.7-5.9,4-8.7c0.7-1.4,1.4-2.7,2.1-4c0.7-1.3,1.4-2.6,2.1-3.9c1.4-2.5,2.8-4.9,4.2-7.1c1.4-2.2,2.8-4.3,4.1-6.2    c2.6-3.8,5-7,7.1-9.6c2-2.6,3.8-4.4,4.9-5.7c0.3-0.3,0.5-0.6,0.8-0.8c0.2-0.2,0.4-0.4,0.5-0.5c0.3-0.3,0.5-0.5,0.5-0.5L591.2,33.7    z" id="path_13" />
    </g>
    <path class="st8" d="M455.2,49.1l4.6-13.4C518.9,157.4,638.1,165,661.1,165.4c0.1,0.4,0.4,0.8,1,1.1c1,0.5,2,1.2,2.9,1.9   c-0.1,2.1-0.1,4.2-0.1,6.2c-1.2,0.7-2.1,0.8-2.4,1C517.2,162.9,455.2,49.1,455.2,49.1z" id="path_12" />
    <path class="st8" d="M662.5,176c0,0-110.8-20.6-271.5,21.4c0,0.7,12.9,31.7,12.9,31.7s110.6-81.8,249.3-21.8   C653.8,207.3,662.5,176,662.5,176z" id="path_11" />
    <path class="st8" d="M407.9,233.7c0,0,108.6-85.7,245.3-26.3L602,273.6c0,0-72.6-142-130.4,16.7   C471.8,290.5,407.9,233.7,407.9,233.7z" id="path_10" />
  </g>
  <g id="g">
    <path class="st9" d="M312.4,231.6c-22.3,33.3-59.5,55.7-102,57.8l0.4,14c47.3-2.2,88.7-27.2,113.4-64.3L312.4,231.6z" id="path_9" />
    <path class="st1" d="M274.1,49c36.3,23.2,60.4,63.9,60.4,110c0,24.7-6.9,47.8-18.8,67.5l11.8,7.5c13.3-21.9,21-47.6,21-75   c0-51.2-26.8-96.3-67.2-122L274.1,49z" id="path_8" />
    <path class="st10" d="M73.5,159c0-25.8,7.6-50,20.6-70.2l-11.6-7.8c-14.5,22.5-22.9,49.3-22.9,78.1c0,22.1,5,43,13.9,61.7l12.5-6.2   C78,197.6,73.5,178.8,73.5,159z" id="path_7" />
    <path class="st11" d="M204.4,289.5c-0.1,0-0.3,0-0.4,0c-50,0-93.5-28.3-115.4-69.6l-12.5,6.2c24.2,46,72.5,77.4,127.9,77.4   c0.3,0,0.5,0,0.8,0L204.4,289.5z" id="path_6" />
    <path class="st12" d="M97.4,83.8C121.1,50.4,160,28.5,204,28.5c23.6,0,45.8,6.3,65,17.4l7.2-12C255,21.6,230.3,14.5,204,14.5   c-48.8,0-92,24.3-118.2,61.5L97.4,83.8z" id="path_5" />
    <path class="st13" d="M598,267.4c33.3-22.3,55.7-59.5,57.8-102l14,0.4c-2.2,47.3-27.2,88.7-64.3,113.4L598,267.4z" id="path_4" />
    <path class="st5" d="M415.5,229.1c23.2,36.3,63.9,60.4,110,60.4c24.7,0,47.8-6.9,67.5-18.8l7.5,11.8c-21.9,13.3-47.6,21-75,21   c-51.2,0-96.3-26.8-122-67.2L415.5,229.1z" id="path_3" />
    <path class="st14" d="M525.5,28.5c-25.8,0-50,7.6-70.2,20.6l-7.8-11.6c22.5-14.5,49.3-22.9,78.1-22.9c22.1,0,43,5,61.7,13.9   L581,40.9C564.1,33,545.3,28.5,525.5,28.5z" id="path_2" />
    <path class="st11" d="M656,159.4c0-0.1,0-0.3,0-0.4c0-50-28.3-93.5-69.6-115.4l6.2-12.5c46,24.2,77.4,72.5,77.4,127.9   c0,0.3,0,0.5,0,0.8L656,159.4z" id="path_1" />
    <path class="st15" d="M450.3,52.4C416.9,76.1,395,115,395,159c0,23.6,6.3,45.8,17.4,65l-12,7.2C388.1,210,381,185.3,381,159   c0-48.8,24.3-92,61.5-118.2L450.3,52.4z" id="path" />
    <g id="g_10">
	</g>
    <g id="g_9">
	</g>
    <g id="g_8">
	</g>
    <g id="g_7">
	</g>
    <g id="g_6">
	</g>
    <g id="g_5">
	</g>
    <g id="g_4">
	</g>
    <g id="g_3">
	</g>
    <g id="g_2">
	</g>
    <g id="g_1">
	</g>
  </g>
</svg>