<?xml version='1.0' encoding='UTF-8'?>
<svg width="900" height="340" viewBox="-70,-30,880,340" style="max-width: 100%; height: auto; font: 10px sans-serif;" id="svg" tag_name="svg">
  <g id="g_30" tag_name="svg/g_30">
    <line x1="80.5" y1="282" x2="80.5" y2="21.5" opacity="0.8" fill="none" stroke="#E6E6E6" id="line_39" tag_name="svg/g_30/line_39"/>
    <line x1="123.8" y1="282" x2="123.8" y2="21.5" opacity="0.8" fill="none" stroke="#E6E6E6" id="line_38" tag_name="svg/g_30/line_38"/>
    <line x1="167.1" y1="282" x2="167.1" y2="21.5" opacity="0.8" fill="none" stroke="#E6E6E6" id="line_37" tag_name="svg/g_30/line_37"/>
    <line x1="210.5" y1="282" x2="210.5" y2="21.5" opacity="0.8" fill="none" stroke="#E6E6E6" id="line_36" tag_name="svg/g_30/line_36"/>
    <line x1="253.8" y1="282" x2="253.8" y2="21.5" opacity="0.8" fill="none" stroke="#E6E6E6" id="line_35" tag_name="svg/g_30/line_35"/>
    <line x1="297.1" y1="282" x2="297.1" y2="21.5" opacity="0.8" fill="none" stroke="#E6E6E6" id="line_34" tag_name="svg/g_30/line_34"/>
    <line x1="340.4" y1="282" x2="340.4" y2="21.5" opacity="0.8" fill="none" stroke="#E6E6E6" id="line_33" tag_name="svg/g_30/line_33"/>
    <line x1="421.1" y1="282" x2="421.1" y2="21.5" opacity="0.8" fill="none" stroke="#E6E6E6" id="line_32" tag_name="svg/g_30/line_32"/>
    <line x1="451" y1="282" x2="451" y2="21.5" opacity="0.8" fill="none" stroke="#E6E6E6" id="line_31" tag_name="svg/g_30/line_31"/>
    <line x1="480.6" y1="282" x2="480.6" y2="21.5" opacity="0.8" fill="none" stroke="#E6E6E6" id="line_30" tag_name="svg/g_30/line_30"/>
    <line x1="510.3" y1="282" x2="510.3" y2="21.5" opacity="0.8" fill="none" stroke="#E6E6E6" id="line_29" tag_name="svg/g_30/line_29"/>
    <line x1="540" y1="282" x2="540" y2="21.5" opacity="0.8" fill="none" stroke="#E6E6E6" id="line_28" tag_name="svg/g_30/line_28"/>
    <line x1="569.7" y1="282" x2="569.7" y2="21.5" opacity="0.8" fill="none" stroke="#E6E6E6" id="line_27" tag_name="svg/g_30/line_27"/>
    <line x1="599.4" y1="282" x2="599.4" y2="21.5" opacity="0.8" fill="none" stroke="#E6E6E6" id="line_26" tag_name="svg/g_30/line_26"/>
    <line x1="629" y1="282" x2="629" y2="21.5" opacity="0.8" fill="none" stroke="#E6E6E6" id="line_25" tag_name="svg/g_30/line_25"/>
    <line x1="658.8" y1="282" x2="658.8" y2="21.5" opacity="0.8" fill="none" stroke="#E6E6E6" id="line_24" tag_name="svg/g_30/line_24"/>
    <line x1="688.4" y1="282" x2="688.4" y2="21.5" opacity="0.8" fill="none" stroke="#E6E6E6" id="line_23" tag_name="svg/g_30/line_23"/>
  </g>
  <g id="g" tag_name="svg/g">
    <g id="g_29" tag_name="svg/g/g_29">
      <path d="M43.8,292.6c0,2.4-0.9,3.8-2.5,3.8c-1.4,0-2.3-1.3-2.4-3.7c0-2.4,1-3.7,2.5-3.7    C42.9,289,43.8,290.3,43.8,292.6z M39.9,292.7c0,1.9,0.6,2.9,1.5,2.9c1,0,1.5-1.2,1.5-3c0-1.8-0.5-2.9-1.5-2.9    C40.5,289.7,39.9,290.7,39.9,292.7z" fill="#808080" id="path_56" tag_name="svg/g/g_29/path_56"/>
    </g>
    <g id="g_28" tag_name="svg/g/g_28">
      <path d="M80.9,290L80.9,290l-1.3,0.7l-0.2-0.7l1.6-0.8h0.8v7.2h-0.9V290z" fill="#808080" id="path_55" tag_name="svg/g/g_28/path_55"/>
    </g>
    <g id="g_27" tag_name="svg/g/g_27">
      <path d="M121.6,296.2v-0.6l0.8-0.7c1.8-1.7,2.7-2.7,2.7-3.7c0-0.7-0.4-1.4-1.4-1.4c-0.6,0-1.2,0.3-1.5,0.6l-0.3-0.7    c0.5-0.4,1.2-0.7,2-0.7c1.5,0,2.2,1.1,2.2,2.1c0,1.3-1,2.4-2.5,3.8l-0.6,0.5v0h3.2v0.8H121.6z" fill="#808080" id="path_54" tag_name="svg/g/g_27/path_54"/>
    </g>
    <g id="g_26" tag_name="svg/g/g_26">
      <path d="M165.6,295.1c0.3,0.2,0.9,0.5,1.6,0.5c1.2,0,1.6-0.8,1.6-1.4c0-1-0.9-1.4-1.8-1.4h-0.5V292h0.5    c0.7,0,1.6-0.4,1.6-1.2c0-0.6-0.4-1.1-1.3-1.1c-0.6,0-1.1,0.3-1.4,0.5l-0.3-0.7c0.4-0.3,1.1-0.6,1.9-0.6c1.4,0,2,0.8,2,1.7    c0,0.7-0.4,1.4-1.3,1.7v0c0.9,0.2,1.6,0.8,1.6,1.8c0,1.1-0.9,2.1-2.6,2.1c-0.8,0-1.5-0.3-1.9-0.5L165.6,295.1z" fill="#808080" id="path_53" tag_name="svg/g/g_26/path_53"/>
    </g>
    <g id="g_25" tag_name="svg/g/g_25">
      <path d="M211.1,296.2v-1.9h-3.3v-0.6l3.2-4.6h1v4.4h1v0.8h-1v1.9H211.1z M211.1,293.5v-2.4c0-0.4,0-0.7,0-1.1h0    c-0.2,0.4-0.4,0.7-0.6,1.1l-1.7,2.4v0H211.1z" fill="#808080" id="path_52" tag_name="svg/g/g_25/path_52"/>
    </g>
    <g id="g_24" tag_name="svg/g/g_24">
      <path d="M256.2,289.9h-2.7l-0.3,1.8c0.2,0,0.3,0,0.6,0c0.5,0,1.1,0.1,1.5,0.4c0.6,0.3,1,0.9,1,1.8    c0,1.4-1.1,2.4-2.7,2.4c-0.8,0-1.4-0.2-1.8-0.4l0.2-0.7c0.3,0.2,0.9,0.4,1.5,0.4c0.9,0,1.7-0.6,1.7-1.6c0-0.9-0.6-1.6-2.1-1.6    c-0.4,0-0.7,0-1,0.1l0.5-3.4h3.4V289.9z" fill="#808080" id="path_51" tag_name="svg/g/g_24/path_51"/>
    </g>
    <g id="g_23" tag_name="svg/g/g_23">
      <path d="M298.8,289.8c-0.2,0-0.5,0-0.7,0c-1.5,0.3-2.3,1.4-2.5,2.5h0c0.3-0.5,0.9-0.8,1.7-0.8c1.3,0,2.2,0.9,2.2,2.3    c0,1.3-0.9,2.5-2.4,2.5c-1.5,0-2.5-1.2-2.5-3c0-1.4,0.5-2.5,1.2-3.2c0.6-0.6,1.4-0.9,2.3-1.1c0.3,0,0.5-0.1,0.7-0.1V289.8z     M298.5,293.9c0-1-0.6-1.6-1.5-1.6c-0.6,0-1.1,0.4-1.4,0.9c-0.1,0.1-0.1,0.3-0.1,0.4c0,1.2,0.6,2,1.6,2    C297.9,295.6,298.5,294.9,298.5,293.9z" fill="#808080" id="path_50" tag_name="svg/g/g_23/path_50"/>
    </g>
    <g id="g_22" tag_name="svg/g/g_22">
      <path d="M341.6,289.1v0.6l-3.1,6.5h-1l3.1-6.3v0h-3.5v-0.8H341.6z" fill="#808080" id="path_49" tag_name="svg/g/g_22/path_49"/>
    </g>
    <line x1="43" y1="283" x2="341" y2="283" fill="none" stroke="#1A1A1A" id="line_22" tag_name="svg/g/line_22"/>
    <line x1="80.5" y1="283.3" x2="80.5" y2="279.2" fill="none" stroke="#1A1A1A" id="line_21" tag_name="svg/g/line_21"/>
    <line x1="123.8" y1="283.3" x2="123.8" y2="279.2" fill="none" stroke="#1A1A1A" id="line_20" tag_name="svg/g/line_20"/>
    <line x1="167.1" y1="283.3" x2="167.1" y2="279.2" fill="none" stroke="#1A1A1A" id="line_19" tag_name="svg/g/line_19"/>
    <line x1="210.5" y1="283.3" x2="210.5" y2="279.2" fill="none" stroke="#1A1A1A" id="line_18" tag_name="svg/g/line_18"/>
    <line x1="253.8" y1="283.3" x2="253.8" y2="279.2" fill="none" stroke="#1A1A1A" id="line_17" tag_name="svg/g/line_17"/>
    <line x1="297.1" y1="283.3" x2="297.1" y2="279.2" fill="none" stroke="#1A1A1A" id="line_16" tag_name="svg/g/line_16"/>
    <line x1="340.4" y1="283.1" x2="340.4" y2="279.2" fill="none" stroke="#1A1A1A" id="line_15" tag_name="svg/g/line_15"/>
    <polyline points="261.6,102.1 239.4,102.1 239.4,139.5 261.6,139.5 261.6,102.1  " fill="#FF0000" id="polyline_14" tag_name="svg/g/polyline_14"/>
    <path d="M207.2,139.5L207.2,139.5L207.2,139.5 M239.4,102.1h-32.2v37.3h32.2V102.1L239.4,102.1" fill="#FF5959" id="path_48" tag_name="svg/g/path_48"/>
    <path d="M126.8,139.5L126.8,139.5L126.8,139.5 M207.2,102.1h-80.3v37.3h80.3V102.1" fill="#FF8C8C" id="path_47" tag_name="svg/g/path_47"/>
    <polyline points="126.8,102.1 44,102.1 44,139.5 126.8,139.5 126.8,102.1  " fill="#FFB3B3" id="polyline_13" tag_name="svg/g/polyline_13"/>
    <polyline points="211.3,42 160.1,42 160.1,79.3 211.3,79.3 211.3,42  " fill="#FF0000" id="polyline_12" tag_name="svg/g/polyline_12"/>
    <path d="M107.7,79.3L107.7,79.3L107.7,79.3 M160.1,42h-52.4v37.3h52.4V42" fill="#FF5959" id="path_46" tag_name="svg/g/path_46"/>
    <path d="M71,79.3L71,79.3L71,79.3 M107.7,42H71v37.3h36.7V42" fill="#FF8C8C" id="path_45" tag_name="svg/g/path_45"/>
    <polyline points="71,42 44,42 44,79.3 71,79.3 71,42  " fill="#FFB3B3" id="polyline_11" tag_name="svg/g/polyline_11"/>
    <polyline points="317.6,222.3 208.9,222.3 208.9,259.7 317.6,259.7 317.6,222.3  " fill="#FF0000" id="polyline_10" tag_name="svg/g/polyline_10"/>
    <path d="M135,259.7L135,259.7L135,259.7 M208.9,222.3H135v37.3h73.9V222.3" fill="#FF5959" id="path_44" tag_name="svg/g/path_44"/>
    <path d="M95.1,259.7L95.1,259.7L95.1,259.7 M135,222.3H95.1v37.3H135V222.3" fill="#FF8C8C" id="path_43" tag_name="svg/g/path_43"/>
    <polyline points="95.1,222.3 44,222.3 44,259.7 95.1,259.7 95.1,222.3  " fill="#FFB3B3" id="polyline_9" tag_name="svg/g/polyline_9"/>
    <path d="M171.2,199.6L171.2,199.6L171.2,199.6 M240.9,162.2h-69.7v37.3h69.7V162.2" fill="#FF0000" id="path_42" tag_name="svg/g/path_42"/>
    <path d="M133.7,199.6L133.7,199.6L133.7,199.6 M171.2,162.2h-37.5v37.3h37.5L171.2,162.2L171.2,162.2L171.2,162.2" fill="#FF5959" id="path_41" tag_name="svg/g/path_41"/>
    <path d="M82,199.6L82,199.6L82,199.6 M133.6,162.2H82v37.3h51.6V162.2" fill="#FF8C8C" id="path_40" tag_name="svg/g/path_40"/>
    <polyline points="82,162.2 44,162.2 44,199.6 82,199.6 82,162.2  " fill="#FFB3B3" id="polyline_8" tag_name="svg/g/polyline_8"/>
    <line x1="40.9" y1="22.2" x2="46" y2="22.2" fill="none" stroke="#1A1A1A" id="line_14" tag_name="svg/g/line_14"/>
    <g id="g_21" tag_name="svg/g/g_21">
      <path d="M391.8,292.6c0,2.4-0.9,3.8-2.5,3.8c-1.4,0-2.3-1.3-2.4-3.7c0-2.4,1-3.7,2.5-3.7    C390.9,289,391.8,290.3,391.8,292.6z M387.9,292.7c0,1.9,0.6,2.9,1.5,2.9c1,0,1.5-1.2,1.5-3c0-1.8-0.5-2.9-1.5-2.9    C388.5,289.7,387.9,290.7,387.9,292.7z" fill="#808080" id="path_39" tag_name="svg/g/g_21/path_39"/>
    </g>
    <g id="g_20" tag_name="svg/g/g_20">
      <path d="M413.4,290L413.4,290l-1.3,0.7l-0.2-0.7l1.6-0.8h0.8v7.2h-0.9V290z" fill="#808080" id="path_38" tag_name="svg/g/g_20/path_38"/>
      <path d="M421.7,292.6c0,2.4-0.9,3.8-2.5,3.8c-1.4,0-2.3-1.3-2.4-3.7c0-2.4,1-3.7,2.5-3.7    C420.8,289,421.7,290.3,421.7,292.6z M417.8,292.7c0,1.9,0.6,2.9,1.5,2.9c1,0,1.5-1.2,1.5-3c0-1.8-0.5-2.9-1.5-2.9    C418.4,289.7,417.8,290.7,417.8,292.7z" fill="#808080" id="path_37" tag_name="svg/g/g_20/path_37"/>
      <path d="M425.8,291.1c0,1.5-0.8,2.3-1.7,2.3c-0.9,0-1.7-0.7-1.7-2.2c0-1.4,0.8-2.2,1.7-2.2    C425.1,289,425.8,289.7,425.8,291.1z M423.2,291.2c0,0.9,0.3,1.6,0.9,1.6c0.6,0,0.9-0.7,0.9-1.6c0-0.9-0.3-1.6-0.9-1.6    C423.5,289.5,423.2,290.3,423.2,291.2z M424,296.4l4.2-7.4h0.6l-4.2,7.4H424z M430.4,294.1c0,1.5-0.8,2.3-1.7,2.3    c-0.9,0-1.7-0.7-1.7-2.1c0-1.4,0.8-2.2,1.7-2.2C429.8,291.9,430.4,292.7,430.4,294.1z M427.8,294.1c0,0.9,0.3,1.6,0.9,1.6    c0.6,0,0.9-0.7,0.9-1.6c0-0.9-0.3-1.6-0.9-1.6C428.1,292.5,427.8,293.2,427.8,294.1z" fill="#808080" id="path_36" tag_name="svg/g/g_20/path_36"/>
    </g>
    <g id="g_19" tag_name="svg/g/g_19">
      <path d="M441.4,296.2v-0.6l0.8-0.7c1.8-1.7,2.7-2.7,2.7-3.7c0-0.7-0.4-1.4-1.4-1.4c-0.6,0-1.2,0.3-1.5,0.6l-0.3-0.7    c0.5-0.4,1.2-0.7,2-0.7c1.5,0,2.2,1.1,2.2,2.1c0,1.3-1,2.4-2.5,3.8l-0.6,0.5v0h3.2v0.8H441.4z" fill="#808080" id="path_35" tag_name="svg/g/g_19/path_35"/>
      <path d="M451.8,292.6c0,2.4-0.9,3.8-2.5,3.8c-1.4,0-2.3-1.3-2.4-3.7c0-2.4,1-3.7,2.5-3.7    C450.9,289,451.8,290.3,451.8,292.6z M447.9,292.7c0,1.9,0.6,2.9,1.5,2.9c1,0,1.5-1.2,1.5-3c0-1.8-0.5-2.9-1.5-2.9    C448.5,289.7,447.9,290.7,447.9,292.7z" fill="#808080" id="path_34" tag_name="svg/g/g_19/path_34"/>
      <path d="M455.9,291.1c0,1.5-0.8,2.3-1.7,2.3c-0.9,0-1.7-0.7-1.7-2.2c0-1.4,0.8-2.2,1.7-2.2    C455.2,289,455.9,289.7,455.9,291.1z M453.3,291.2c0,0.9,0.3,1.6,0.9,1.6c0.6,0,0.9-0.7,0.9-1.6c0-0.9-0.3-1.6-0.9-1.6    C453.6,289.5,453.3,290.3,453.3,291.2z M454.1,296.4l4.2-7.4h0.6l-4.2,7.4H454.1z M460.5,294.1c0,1.5-0.8,2.3-1.7,2.3    c-0.9,0-1.7-0.7-1.7-2.1c0-1.4,0.8-2.2,1.7-2.2C459.9,291.9,460.5,292.7,460.5,294.1z M457.9,294.1c0,0.9,0.3,1.6,0.9,1.6    c0.6,0,0.9-0.7,0.9-1.6c0-0.9-0.3-1.6-0.9-1.6C458.3,292.5,457.9,293.2,457.9,294.1z" fill="#808080" id="path_33" tag_name="svg/g/g_19/path_33"/>
    </g>
    <g id="g_18" tag_name="svg/g/g_18">
      <path d="M471.1,295.1c0.3,0.2,0.9,0.5,1.6,0.5c1.2,0,1.6-0.8,1.6-1.4c0-1-0.9-1.4-1.8-1.4h-0.5V292h0.5    c0.7,0,1.6-0.4,1.6-1.2c0-0.6-0.4-1.1-1.3-1.1c-0.6,0-1.1,0.3-1.4,0.5l-0.3-0.7c0.4-0.3,1.1-0.6,1.9-0.6c1.4,0,2,0.8,2,1.7    c0,0.7-0.4,1.4-1.3,1.7v0c0.9,0.2,1.6,0.8,1.6,1.8c0,1.1-0.9,2.1-2.6,2.1c-0.8,0-1.5-0.3-1.9-0.5L471.1,295.1z" fill="#808080" id="path_32" tag_name="svg/g/g_18/path_32"/>
      <path d="M481.3,292.6c0,2.4-0.9,3.8-2.5,3.8c-1.4,0-2.3-1.3-2.4-3.7c0-2.4,1-3.7,2.5-3.7    C480.4,289,481.3,290.3,481.3,292.6z M477.4,292.7c0,1.9,0.6,2.9,1.5,2.9c1,0,1.5-1.2,1.5-3c0-1.8-0.5-2.9-1.5-2.9    C478,289.7,477.4,290.7,477.4,292.7z" fill="#808080" id="path_31" tag_name="svg/g/g_18/path_31"/>
      <path d="M485.4,291.1c0,1.5-0.8,2.3-1.7,2.3c-0.9,0-1.7-0.7-1.7-2.2c0-1.4,0.8-2.2,1.7-2.2    C484.7,289,485.4,289.7,485.4,291.1z M482.8,291.2c0,0.9,0.3,1.6,0.9,1.6c0.6,0,0.9-0.7,0.9-1.6c0-0.9-0.3-1.6-0.9-1.6    C483.1,289.5,482.8,290.3,482.8,291.2z M483.6,296.4l4.2-7.4h0.6l-4.2,7.4H483.6z M490,294.1c0,1.5-0.8,2.3-1.7,2.3    c-0.9,0-1.7-0.7-1.7-2.1c0-1.4,0.8-2.2,1.7-2.2C489.4,291.9,490,292.7,490,294.1z M487.4,294.1c0,0.9,0.3,1.6,0.9,1.6    c0.6,0,0.9-0.7,0.9-1.6c0-0.9-0.3-1.6-0.9-1.6C487.8,292.5,487.4,293.2,487.4,294.1z" fill="#808080" id="path_30" tag_name="svg/g/g_18/path_30"/>
    </g>
    <g id="g_17" tag_name="svg/g/g_17">
      <path d="M503.4,296.2v-1.9h-3.3v-0.6l3.2-4.6h1v4.4h1v0.8h-1v1.9H503.4z M503.4,293.5v-2.4c0-0.4,0-0.7,0-1.1h0    c-0.2,0.4-0.4,0.7-0.6,1.1l-1.7,2.4v0H503.4z" fill="#808080" id="path_29" tag_name="svg/g/g_17/path_29"/>
      <path d="M510.8,292.6c0,2.4-0.9,3.8-2.5,3.8c-1.4,0-2.3-1.3-2.4-3.7c0-2.4,1-3.7,2.5-3.7    C509.9,289,510.8,290.3,510.8,292.6z M506.9,292.7c0,1.9,0.6,2.9,1.5,2.9c1,0,1.5-1.2,1.5-3c0-1.8-0.5-2.9-1.5-2.9    C507.5,289.7,506.9,290.7,506.9,292.7z" fill="#808080" id="path_28" tag_name="svg/g/g_17/path_28"/>
      <path d="M514.9,291.1c0,1.5-0.8,2.3-1.7,2.3c-0.9,0-1.7-0.7-1.7-2.2c0-1.4,0.8-2.2,1.7-2.2    C514.2,289,514.9,289.7,514.9,291.1z M512.3,291.2c0,0.9,0.3,1.6,0.9,1.6c0.6,0,0.9-0.7,0.9-1.6c0-0.9-0.3-1.6-0.9-1.6    C512.6,289.5,512.3,290.3,512.3,291.2z M513.1,296.4l4.2-7.4h0.6l-4.2,7.4H513.1z M519.5,294.1c0,1.5-0.8,2.3-1.7,2.3    c-0.9,0-1.7-0.7-1.7-2.1c0-1.4,0.8-2.2,1.7-2.2C518.9,291.9,519.5,292.7,519.5,294.1z M516.9,294.1c0,0.9,0.3,1.6,0.9,1.6    c0.6,0,0.9-0.7,0.9-1.6c0-0.9-0.3-1.6-0.9-1.6C517.3,292.5,516.9,293.2,516.9,294.1z" fill="#808080" id="path_27" tag_name="svg/g/g_17/path_27"/>
    </g>
    <g id="g_16" tag_name="svg/g/g_16">
      <path d="M534.4,289.9h-2.7l-0.3,1.8c0.2,0,0.3,0,0.6,0c0.6,0,1.1,0.1,1.5,0.4c0.6,0.3,1,0.9,1,1.8    c0,1.4-1.1,2.4-2.7,2.4c-0.8,0-1.4-0.2-1.8-0.4l0.2-0.7c0.3,0.2,0.9,0.4,1.5,0.4c0.9,0,1.7-0.6,1.7-1.6c0-0.9-0.6-1.6-2.1-1.6    c-0.4,0-0.7,0-1,0.1l0.5-3.4h3.4V289.9z" fill="#808080" id="path_26" tag_name="svg/g/g_16/path_26"/>
      <path d="M540.5,292.6c0,2.4-0.9,3.8-2.5,3.8c-1.4,0-2.3-1.3-2.4-3.7c0-2.4,1-3.7,2.5-3.7    C539.7,289,540.5,290.3,540.5,292.6z M536.6,292.7c0,1.9,0.6,2.9,1.5,2.9c1,0,1.5-1.2,1.5-3c0-1.8-0.5-2.9-1.5-2.9    C537.3,289.7,536.6,290.7,536.6,292.7z" fill="#808080" id="path_25" tag_name="svg/g/g_16/path_25"/>
      <path d="M544.6,291.1c0,1.5-0.8,2.3-1.7,2.3c-0.9,0-1.7-0.7-1.7-2.2c0-1.4,0.8-2.2,1.7-2.2    C544,289,544.6,289.7,544.6,291.1z M542,291.2c0,0.9,0.3,1.6,0.9,1.6c0.6,0,0.9-0.7,0.9-1.6c0-0.9-0.3-1.6-0.9-1.6    C542.3,289.5,542,290.3,542,291.2z M542.9,296.4l4.2-7.4h0.6l-4.2,7.4H542.9z M549.3,294.1c0,1.5-0.8,2.3-1.7,2.3    c-0.9,0-1.7-0.7-1.7-2.1c0-1.4,0.8-2.2,1.7-2.2C548.6,291.9,549.3,292.7,549.3,294.1z M546.7,294.1c0,0.9,0.3,1.6,0.9,1.6    c0.6,0,0.9-0.7,0.9-1.6c0-0.9-0.3-1.6-0.9-1.6C547,292.5,546.7,293.2,546.7,294.1z" fill="#808080" id="path_24" tag_name="svg/g/g_16/path_24"/>
    </g>
    <g id="g_15" tag_name="svg/g/g_15">
      <path d="M564.7,289.8c-0.2,0-0.5,0-0.7,0c-1.5,0.3-2.3,1.4-2.5,2.5h0c0.3-0.5,0.9-0.8,1.7-0.8c1.3,0,2.2,0.9,2.2,2.3    c0,1.3-0.9,2.5-2.4,2.5c-1.5,0-2.5-1.2-2.5-3c0-1.4,0.5-2.5,1.2-3.2c0.6-0.6,1.4-0.9,2.3-1.1c0.3,0,0.5-0.1,0.7-0.1V289.8z     M564.4,293.9c0-1-0.6-1.6-1.5-1.6c-0.6,0-1.1,0.4-1.4,0.9c-0.1,0.1-0.1,0.3-0.1,0.4c0,1.2,0.6,2,1.6,2    C563.9,295.6,564.4,294.9,564.4,293.9z" fill="#808080" id="path_23" tag_name="svg/g/g_15/path_23"/>
      <path d="M571,292.6c0,2.4-0.9,3.8-2.5,3.8c-1.4,0-2.3-1.3-2.4-3.7c0-2.4,1-3.7,2.5-3.7C570.2,289,571,290.3,571,292.6    z M567.1,292.7c0,1.9,0.6,2.9,1.5,2.9c1,0,1.5-1.2,1.5-3c0-1.8-0.5-2.9-1.5-2.9C567.8,289.7,567.1,290.7,567.1,292.7z" fill="#808080" id="path_22" tag_name="svg/g/g_15/path_22"/>
      <path d="M575.1,291.1c0,1.5-0.8,2.3-1.7,2.3c-0.9,0-1.7-0.7-1.7-2.2c0-1.4,0.8-2.2,1.7-2.2    C574.5,289,575.1,289.7,575.1,291.1z M572.5,291.2c0,0.9,0.3,1.6,0.9,1.6c0.6,0,0.9-0.7,0.9-1.6c0-0.9-0.3-1.6-0.9-1.6    C572.8,289.5,572.5,290.3,572.5,291.2z M573.4,296.4l4.2-7.4h0.6l-4.2,7.4H573.4z M579.8,294.1c0,1.5-0.8,2.3-1.7,2.3    c-0.9,0-1.7-0.7-1.7-2.1c0-1.4,0.8-2.2,1.7-2.2C579.1,291.9,579.8,292.7,579.8,294.1z M577.2,294.1c0,0.9,0.3,1.6,0.9,1.6    c0.6,0,0.9-0.7,0.9-1.6c0-0.9-0.3-1.6-0.9-1.6C577.5,292.5,577.2,293.2,577.2,294.1z" fill="#808080" id="path_21" tag_name="svg/g/g_15/path_21"/>
    </g>
    <g id="g_14" tag_name="svg/g/g_14">
      <path d="M594.8,289.1v0.6l-3.1,6.5h-1l3.1-6.3v0h-3.5v-0.8H594.8z" fill="#808080" id="path_20" tag_name="svg/g/g_14/path_20"/>
      <path d="M600.5,292.6c0,2.4-0.9,3.8-2.5,3.8c-1.4,0-2.3-1.3-2.4-3.7c0-2.4,1-3.7,2.5-3.7    C599.7,289,600.5,290.3,600.5,292.6z M596.6,292.7c0,1.9,0.6,2.9,1.5,2.9c1,0,1.5-1.2,1.5-3c0-1.8-0.5-2.9-1.5-2.9    C597.3,289.7,596.6,290.7,596.6,292.7z" fill="#808080" id="path_19" tag_name="svg/g/g_14/path_19"/>
      <path d="M604.6,291.1c0,1.5-0.8,2.3-1.7,2.3c-0.9,0-1.7-0.7-1.7-2.2c0-1.4,0.8-2.2,1.7-2.2    C604,289,604.6,289.7,604.6,291.1z M602,291.2c0,0.9,0.3,1.6,0.9,1.6c0.6,0,0.9-0.7,0.9-1.6c0-0.9-0.3-1.6-0.9-1.6    C602.3,289.5,602,290.3,602,291.2z M602.9,296.4l4.2-7.4h0.6l-4.2,7.4H602.9z M609.3,294.1c0,1.5-0.8,2.3-1.7,2.3    c-0.9,0-1.7-0.7-1.7-2.1c0-1.4,0.8-2.2,1.7-2.2C608.6,291.9,609.3,292.7,609.3,294.1z M606.7,294.1c0,0.9,0.3,1.6,0.9,1.6    c0.6,0,0.9-0.7,0.9-1.6c0-0.9-0.3-1.6-0.9-1.6C607,292.5,606.7,293.2,606.7,294.1z" fill="#808080" id="path_18" tag_name="svg/g/g_14/path_18"/>
    </g>
    <g id="g_13" tag_name="svg/g/g_13">
      <path d="M619,294.4c0-0.9,0.5-1.5,1.4-1.9l0,0c-0.8-0.4-1.1-1-1.1-1.6c0-1.1,1-1.9,2.2-1.9c1.4,0,2.1,0.9,2.1,1.8    c0,0.6-0.3,1.3-1.2,1.7v0c0.9,0.4,1.4,1,1.4,1.8c0,1.2-1.1,2.1-2.4,2.1C619.9,296.4,619,295.5,619,294.4z M622.9,294.4    c0-0.9-0.6-1.3-1.6-1.6c-0.8,0.2-1.3,0.8-1.3,1.5c0,0.7,0.5,1.4,1.4,1.4C622.3,295.7,622.9,295.1,622.9,294.4z M620.2,290.8    c0,0.7,0.5,1.1,1.4,1.3c0.6-0.2,1.1-0.6,1.1-1.3c0-0.6-0.3-1.2-1.2-1.2C620.7,289.7,620.2,290.2,620.2,290.8z" fill="#808080" id="path_17" tag_name="svg/g/g_13/path_17"/>
      <path d="M629.5,292.6c0,2.4-0.9,3.8-2.5,3.8c-1.4,0-2.3-1.3-2.4-3.7c0-2.4,1-3.7,2.5-3.7    C628.7,289,629.5,290.3,629.5,292.6z M625.6,292.7c0,1.9,0.6,2.9,1.5,2.9c1,0,1.5-1.2,1.5-3c0-1.8-0.5-2.9-1.5-2.9    C626.3,289.7,625.6,290.7,625.6,292.7z" fill="#808080" id="path_16" tag_name="svg/g/g_13/path_16"/>
      <path d="M633.6,291.1c0,1.5-0.8,2.3-1.7,2.3c-0.9,0-1.7-0.7-1.7-2.2c0-1.4,0.8-2.2,1.7-2.2    C633,289,633.6,289.7,633.6,291.1z M631,291.2c0,0.9,0.3,1.6,0.9,1.6c0.6,0,0.9-0.7,0.9-1.6c0-0.9-0.3-1.6-0.9-1.6    C631.3,289.5,631,290.3,631,291.2z M631.9,296.4l4.2-7.4h0.6l-4.2,7.4H631.9z M638.3,294.1c0,1.5-0.8,2.3-1.7,2.3    c-0.9,0-1.7-0.7-1.7-2.1c0-1.4,0.8-2.2,1.7-2.2C637.6,291.9,638.3,292.7,638.3,294.1z M635.7,294.1c0,0.9,0.3,1.6,0.9,1.6    c0.6,0,0.9-0.7,0.9-1.6c0-0.9-0.3-1.6-0.9-1.6C636,292.5,635.7,293.2,635.7,294.1z" fill="#808080" id="path_15" tag_name="svg/g/g_13/path_15"/>
    </g>
    <g id="g_12" tag_name="svg/g/g_12">
      <path d="M650.2,295.6c0.2,0,0.5,0,0.8,0c0.6-0.1,1.1-0.3,1.5-0.7c0.5-0.4,0.8-1.1,0.9-1.9h0c-0.4,0.5-1,0.8-1.7,0.8    c-1.3,0-2.1-1-2.1-2.2c0-1.4,1-2.5,2.4-2.5s2.4,1.2,2.4,3c0,1.6-0.5,2.7-1.2,3.4c-0.5,0.5-1.3,0.9-2.1,1c-0.4,0.1-0.7,0.1-0.9,0.1    V295.6z M650.5,291.4c0,0.9,0.5,1.5,1.4,1.5c0.6,0,1.2-0.3,1.4-0.7c0.1-0.1,0.1-0.2,0.1-0.4c0-1.2-0.5-2.2-1.5-2.2    C651.1,289.7,650.5,290.4,650.5,291.4z" fill="#808080" id="path_14" tag_name="svg/g/g_12/path_14"/>
      <path d="M660,292.6c0,2.4-0.9,3.8-2.5,3.8c-1.4,0-2.3-1.3-2.4-3.7c0-2.4,1-3.7,2.5-3.7C659.2,289,660,290.3,660,292.6    z M656.1,292.7c0,1.9,0.6,2.9,1.5,2.9c1,0,1.5-1.2,1.5-3c0-1.8-0.5-2.9-1.5-2.9C656.8,289.7,656.1,290.7,656.1,292.7z" fill="#808080" id="path_13" tag_name="svg/g/g_12/path_13"/>
      <path d="M664.1,291.1c0,1.5-0.8,2.3-1.7,2.3c-0.9,0-1.7-0.7-1.7-2.2c0-1.4,0.8-2.2,1.7-2.2    C663.5,289,664.1,289.7,664.1,291.1z M661.5,291.2c0,0.9,0.3,1.6,0.9,1.6c0.6,0,0.9-0.7,0.9-1.6c0-0.9-0.3-1.6-0.9-1.6    C661.8,289.5,661.5,290.3,661.5,291.2z M662.4,296.4l4.2-7.4h0.6l-4.2,7.4H662.4z M668.8,294.1c0,1.5-0.8,2.3-1.7,2.3    c-0.9,0-1.7-0.7-1.7-2.1c0-1.4,0.8-2.2,1.7-2.2C668.1,291.9,668.8,292.7,668.8,294.1z M666.2,294.1c0,0.9,0.3,1.6,0.9,1.6    c0.6,0,0.9-0.7,0.9-1.6c0-0.9-0.3-1.6-0.9-1.6C666.5,292.5,666.2,293.2,666.2,294.1z" fill="#808080" id="path_12" tag_name="svg/g/g_12/path_12"/>
    </g>
    <g id="g_11" tag_name="svg/g/g_11">
      <path d="M678.6,290L678.6,290l-1.3,0.7l-0.2-0.7l1.6-0.8h0.8v7.2h-0.9V290z" fill="#808080" id="path_11" tag_name="svg/g/g_11/path_11"/>
      <path d="M686.9,292.6c0,2.4-0.9,3.8-2.5,3.8c-1.4,0-2.3-1.3-2.4-3.7c0-2.4,1-3.7,2.5-3.7    C686,289,686.9,290.3,686.9,292.6z M683,292.7c0,1.9,0.6,2.9,1.5,2.9c1,0,1.5-1.2,1.5-3c0-1.8-0.5-2.9-1.5-2.9    C683.6,289.7,683,290.7,683,292.7z" fill="#808080" id="path_10" tag_name="svg/g/g_11/path_10"/>
      <path d="M692.5,292.6c0,2.4-0.9,3.8-2.5,3.8c-1.4,0-2.3-1.3-2.4-3.7c0-2.4,1-3.7,2.5-3.7    C691.7,289,692.5,290.3,692.5,292.6z M688.6,292.7c0,1.9,0.6,2.9,1.5,2.9c1,0,1.5-1.2,1.5-3c0-1.8-0.5-2.9-1.5-2.9    C689.2,289.7,688.6,290.7,688.6,292.7z" fill="#808080" id="path_9" tag_name="svg/g/g_11/path_9"/>
      <path d="M696.6,291.1c0,1.5-0.8,2.3-1.7,2.3c-0.9,0-1.7-0.7-1.7-2.2c0-1.4,0.8-2.2,1.7-2.2    C696,289,696.6,289.7,696.6,291.1z M694,291.2c0,0.9,0.3,1.6,0.9,1.6c0.6,0,0.9-0.7,0.9-1.6c0-0.9-0.3-1.6-0.9-1.6    C694.3,289.5,694,290.3,694,291.2z M694.8,296.4l4.2-7.4h0.6l-4.2,7.4H694.8z M701.3,294.1c0,1.5-0.8,2.3-1.7,2.3    c-0.9,0-1.7-0.7-1.7-2.1c0-1.4,0.8-2.2,1.7-2.2C700.6,291.9,701.3,292.7,701.3,294.1z M698.7,294.1c0,0.9,0.3,1.6,0.9,1.6    c0.6,0,0.9-0.7,0.9-1.6c0-0.9-0.3-1.6-0.9-1.6C699,292.5,698.7,293.2,698.7,294.1z" fill="#808080" id="path_8" tag_name="svg/g/g_11/path_8"/>
    </g>
    <line x1="391" y1="283" x2="689" y2="283" fill="none" stroke="#1A1A1A" id="line_13" tag_name="svg/g/line_13"/>
    <line x1="421.2" y1="283.3" x2="421.2" y2="279.2" fill="none" stroke="#1A1A1A" id="line_12" tag_name="svg/g/line_12"/>
    <line x1="450.9" y1="283.3" x2="450.9" y2="279.2" fill="none" stroke="#1A1A1A" id="line_11" tag_name="svg/g/line_11"/>
    <line x1="480.6" y1="283.3" x2="480.6" y2="279.2" fill="none" stroke="#1A1A1A" id="line_10" tag_name="svg/g/line_10"/>
    <line x1="510.3" y1="283.3" x2="510.3" y2="279.2" fill="none" stroke="#1A1A1A" id="line_9" tag_name="svg/g/line_9"/>
    <line x1="540" y1="283.3" x2="540" y2="279.2" fill="none" stroke="#1A1A1A" id="line_8" tag_name="svg/g/line_8"/>
    <line x1="569.7" y1="283.3" x2="569.7" y2="279.2" fill="none" stroke="#1A1A1A" id="line_7" tag_name="svg/g/line_7"/>
    <line x1="599.4" y1="283.3" x2="599.4" y2="279.2" fill="none" stroke="#1A1A1A" id="line_6" tag_name="svg/g/line_6"/>
    <line x1="629" y1="283.3" x2="629" y2="279.2" fill="none" stroke="#1A1A1A" id="line_5" tag_name="svg/g/line_5"/>
    <line x1="658.7" y1="283.3" x2="658.7" y2="279.2" fill="none" stroke="#1A1A1A" id="line_4" tag_name="svg/g/line_4"/>
    <line x1="688.4" y1="283.1" x2="688.4" y2="279.2" fill="none" stroke="#1A1A1A" id="line_3" tag_name="svg/g/line_3"/>
    <line x1="388.9" y1="22.2" x2="394" y2="22.2" fill="none" stroke="#1A1A1A" id="line_2" tag_name="svg/g/line_2"/>
    <polyline points="688.8,102.1 658.5,102.1 658.5,139.5 688.8,139.5 688.8,102.1  " fill="#FF0000" id="polyline_7" tag_name="svg/g/polyline_7"/>
    <path d="M614.6,139.5L614.6,139.5L614.6,139.5 M658.5,102.1h-43.9v37.3h43.9V102.1L658.5,102.1" fill="#FF5959" id="path_7" tag_name="svg/g/path_7"/>
    <path d="M505,139.5L505,139.5L505,139.5 M614.5,102.1H505v37.3h109.6V102.1" fill="#FF8C8C" id="path_6" tag_name="svg/g/path_6"/>
    <polyline points="504.9,102.1 392,102.1 392,139.5 504.9,139.5 504.9,102.1  " fill="#FFB3B3" id="polyline_6" tag_name="svg/g/polyline_6"/>
    <polyline points="688.8,42 597.9,42 597.9,79.3 688.8,79.3 688.8,42  " fill="#FF0000" id="polyline_5" tag_name="svg/g/polyline_5"/>
    <path d="M505,79.3L505,79.3L505,79.3 M597.9,42H505v37.3h92.9V42" fill="#FF5959" id="path_5" tag_name="svg/g/path_5"/>
    <path d="M439.9,79.3L439.9,79.3L439.9,79.3 M505,42h-65.1v37.3H505V42" fill="#FF8C8C" id="path_4" tag_name="svg/g/path_4"/>
    <polyline points="439.9,42 392,42 392,79.3 439.9,79.3 439.9,42  " fill="#FFB3B3" id="polyline_4" tag_name="svg/g/polyline_4"/>
    <polyline points="688.7,222.3 570.2,222.3 570.2,259.7 688.7,259.7 688.7,222.3  " fill="#FF0000" id="polyline_3" tag_name="svg/g/polyline_3"/>
    <path d="M490.3,259.7L490.3,259.7L490.3,259.7 M570.2,222.3h-79.8v37.3h79.8V222.3" fill="#FF5959" id="path_3" tag_name="svg/g/path_3"/>
    <path d="M447.2,259.7L447.2,259.7L447.2,259.7 M490.3,222.3h-43.1v37.3h43.1V222.3" fill="#FF8C8C" id="path_2" tag_name="svg/g/path_2"/>
    <polyline points="447.2,222.3 392,222.3 392,259.7 447.2,259.7 447.2,222.3  " fill="#FFB3B3" id="polyline_2" tag_name="svg/g/polyline_2"/>
    <polyline points="688.8,162.2 583.7,162.2 583.7,199.6 688.8,199.6 688.8,162.2  " fill="#FF0000" id="polyline_1" tag_name="svg/g/polyline_1"/>
    <path d="M527.2,199.6L527.2,199.6L527.2,199.6 M583.7,162.2h-56.6v37.3h56.6V162.2L583.7,162.2" fill="#FF5959" id="path_1" tag_name="svg/g/path_1"/>
    <path d="M449.3,199.6L449.3,199.6L449.3,199.6 M527.1,162.2h-77.8v37.3h77.8V162.2" fill="#FF8C8C" id="path" tag_name="svg/g/path"/>
    <polyline points="449.2,162.2 392,162.2 392,199.6 449.2,199.6 449.2,162.2  " fill="#FFB3B3" id="polyline" tag_name="svg/g/polyline"/>
    <line x1="43.5" y1="282.5" x2="43.5" y2="22.2" fill="none" stroke="#1A1A1A" id="line_1" tag_name="svg/g/line_1"/>
    <line x1="391.5" y1="282.5" x2="391.5" y2="22.2" fill="none" stroke="#1A1A1A" id="line" tag_name="svg/g/line"/>
    <g id="g_10" tag_name="svg/g/g_10">
	</g>
    <g id="g_9" tag_name="svg/g/g_9">
	</g>
    <g id="g_8" tag_name="svg/g/g_8">
	</g>
    <g id="g_7" tag_name="svg/g/g_7">
	</g>
    <g id="g_6" tag_name="svg/g/g_6">
	</g>
    <g id="g_5" tag_name="svg/g/g_5">
	</g>
    <g id="g_4" tag_name="svg/g/g_4">
	</g>
    <g id="g_3" tag_name="svg/g/g_3">
	</g>
    <g id="g_2" tag_name="svg/g/g_2">
	</g>
    <g id="g_1" tag_name="svg/g/g_1">
	</g>
  </g>
</svg>