<?xml version='1.0' encoding='UTF-8'?>
<svg width="900" height="340" viewBox="-70,-30,880,340" style="max-width: 100%; height: auto; font: 10px sans-serif;" id="svg" tag_name="svg">
  <g id="g_11" tag_name="svg/g_11">
    <g id="g_43" tag_name="svg/g_11/g_43">
      <path d="M61.2,274c-0.2-0.2-0.4-0.5-0.5-0.8c-0.2-0.6-0.3-1.3-0.3-2.1c0-1,0.2-1.9,0.5-2.4c0.4-0.7,1.1-1.1,2-1.1    c0.7,0,1.2,0.2,1.6,0.6c0.3,0.3,0.4,0.5,0.5,0.8c0.2,0.6,0.3,1.3,0.3,2.1c0,1.1-0.2,2.1-0.6,2.6c-0.5,0.6-1.1,0.9-1.9,0.9    C62.2,274.6,61.7,274.4,61.2,274z M61.8,268.6c-0.2,0.2-0.3,0.4-0.4,0.7c-0.2,0.5-0.3,1.2-0.3,1.8c0,0.8,0.2,1.7,0.4,2.1    c0.3,0.5,0.8,0.8,1.4,0.8c0.5,0,0.8-0.1,1.1-0.4c0.2-0.2,0.3-0.4,0.4-0.7c0.2-0.6,0.3-1.2,0.3-1.8c0-0.8-0.2-1.7-0.4-2.1    c-0.3-0.5-0.8-0.8-1.4-0.8C62.4,268.2,62.1,268.3,61.8,268.6z" fill="#666666" id="path_67" tag_name="svg/g_11/g_43/path_67"/>
    </g>
    <g id="g_42" tag_name="svg/g_11/g_42">
      <path d="M107,273.3c-0.2-0.2-0.4-0.5-0.5-0.8c-0.2-0.6-0.3-1.3-0.3-2.1c0-1,0.2-1.9,0.5-2.4c0.4-0.7,1.1-1.1,2-1.1    c0.7,0,1.2,0.2,1.6,0.6c0.3,0.3,0.4,0.5,0.5,0.8c0.2,0.6,0.3,1.3,0.3,2.1c0,1.1-0.2,2.1-0.6,2.6c-0.5,0.6-1.1,0.9-1.9,0.9    C108,274,107.4,273.7,107,273.3z M107.5,267.9c-0.2,0.2-0.3,0.4-0.4,0.7c-0.2,0.5-0.3,1.2-0.3,1.8c0,0.8,0.2,1.7,0.4,2.1    c0.3,0.5,0.8,0.8,1.4,0.8c0.5,0,0.8-0.1,1.1-0.4c0.2-0.2,0.3-0.4,0.4-0.7c0.2-0.6,0.3-1.2,0.3-1.8c0-0.8-0.2-1.7-0.4-2.1    c-0.3-0.5-0.8-0.8-1.4-0.8C108.2,267.5,107.8,267.6,107.5,267.9z" fill="#666666" id="path_66" tag_name="svg/g_11/g_42/path_66"/>
      <path d="M113.1,272.9v0.9h-0.9v-0.9H113.1z" fill="#666666" id="path_65" tag_name="svg/g_11/g_42/path_65"/>
      <path d="M115.7,273.8c-0.6,0-0.7,0-1,0c0.1-0.7,0.1-0.8,0.3-1.2c0.2-0.6,0.6-1.1,1.2-1.5c0.3-0.3,0.3-0.3,1.4-1    c0.9-0.6,1.2-1,1.2-1.5c0-0.7-0.6-1.1-1.5-1.1c-0.6,0-1,0.2-1.3,0.6c-0.2,0.2-0.3,0.5-0.3,0.9l-0.8-0.1c0.1-0.6,0.3-1,0.6-1.3    c0.4-0.5,1-0.7,1.8-0.7c1.4,0,2.2,0.7,2.2,1.7c0,0.5-0.2,0.9-0.5,1.3c-0.3,0.3-0.5,0.5-1.5,1.2c-0.7,0.5-1,0.7-1.3,1.1    c-0.3,0.4-0.4,0.6-0.5,1h2.9c0.5,0,0.8,0,1.1-0.1v0.8c-0.4,0-0.7-0.1-1.1-0.1H115.7z" fill="#666666" id="path_64" tag_name="svg/g_11/g_42/path_64"/>
    </g>
    <g id="g_41" tag_name="svg/g_11/g_41">
      <path d="M148.8,273.3c-0.2-0.2-0.4-0.5-0.5-0.8c-0.2-0.6-0.3-1.3-0.3-2.1c0-1,0.2-1.9,0.5-2.4c0.4-0.7,1.1-1.1,2-1.1    c0.7,0,1.2,0.2,1.6,0.6c0.3,0.3,0.4,0.5,0.5,0.8c0.2,0.6,0.3,1.3,0.3,2.1c0,1.1-0.2,2.1-0.6,2.6c-0.5,0.6-1.1,0.9-1.9,0.9    C149.8,274,149.2,273.7,148.8,273.3z M149.3,267.9c-0.2,0.2-0.3,0.4-0.4,0.7c-0.2,0.5-0.3,1.2-0.3,1.8c0,0.8,0.2,1.7,0.4,2.1    c0.3,0.5,0.8,0.8,1.4,0.8c0.5,0,0.8-0.1,1.1-0.4c0.2-0.2,0.3-0.4,0.4-0.7c0.2-0.6,0.3-1.2,0.3-1.8c0-0.8-0.2-1.7-0.4-2.1    c-0.3-0.5-0.8-0.8-1.4-0.8C150,267.5,149.6,267.6,149.3,267.9z" fill="#666666" id="path_63" tag_name="svg/g_11/g_41/path_63"/>
      <path d="M154.9,272.9v0.9H154v-0.9H154.9z" fill="#666666" id="path_62" tag_name="svg/g_11/g_41/path_62"/>
      <path d="M155.8,271.4c0.2-0.2,0.4-0.5,0.6-0.7l2.3-2.8c0.3-0.4,0.5-0.6,0.7-0.9h0.7c0,0.5-0.1,0.8-0.1,1.5v3h0.3    c0.4,0,0.6,0,0.9-0.1v0.7c-0.3,0-0.6-0.1-0.9-0.1H160v0.8c0,0.4,0,0.6,0.1,1h-0.8c0.1-0.3,0.1-0.6,0.1-1v-0.8h-2.4    c-0.5,0-0.8,0-1.1,0V271.4z M159.3,269.2c0-0.5,0-0.8,0.1-1.2c-0.2,0.3-0.4,0.6-0.7,0.9l-2.1,2.6h2.7V269.2z" fill="#666666" id="path_61" tag_name="svg/g_11/g_41/path_61"/>
    </g>
    <g id="g_40" tag_name="svg/g_11/g_40">
      <path d="M190.4,273.3c-0.2-0.2-0.4-0.5-0.5-0.8c-0.2-0.6-0.3-1.3-0.3-2.1c0-1,0.2-1.9,0.5-2.4c0.4-0.7,1.1-1.1,2-1.1    c0.7,0,1.2,0.2,1.6,0.6c0.3,0.3,0.4,0.5,0.5,0.8c0.2,0.6,0.3,1.3,0.3,2.1c0,1.1-0.2,2.1-0.6,2.6c-0.5,0.6-1.1,0.9-1.9,0.9    C191.4,274,190.8,273.7,190.4,273.3z M190.9,267.9c-0.2,0.2-0.3,0.4-0.4,0.7c-0.2,0.5-0.3,1.2-0.3,1.8c0,0.8,0.2,1.7,0.4,2.1    c0.3,0.5,0.8,0.8,1.4,0.8c0.5,0,0.8-0.1,1.1-0.4c0.2-0.2,0.3-0.4,0.4-0.7c0.2-0.6,0.3-1.2,0.3-1.8c0-0.8-0.2-1.7-0.4-2.1    c-0.3-0.5-0.8-0.8-1.4-0.8C191.6,267.5,191.2,267.6,190.9,267.9z" fill="#666666" id="path_60" tag_name="svg/g_11/g_40/path_60"/>
      <path d="M196.5,272.9v0.9h-0.9v-0.9H196.5z" fill="#666666" id="path_59" tag_name="svg/g_11/g_40/path_59"/>
      <path d="M201.7,268.5c-0.1-0.3-0.2-0.4-0.3-0.6c-0.3-0.3-0.6-0.5-1.1-0.5c-0.7,0-1.2,0.4-1.6,1.1    c-0.2,0.5-0.3,1-0.4,1.9c0.2-0.3,0.3-0.4,0.5-0.6c0.4-0.4,0.9-0.5,1.5-0.5c1.4,0,2.3,0.9,2.3,2.3c0,1.4-0.9,2.3-2.4,2.3    c-0.6,0-1.2-0.2-1.6-0.6c-0.6-0.5-0.9-1.5-0.9-2.8c0-1.1,0.3-2.1,0.7-2.7c0.5-0.6,1.1-1,1.9-1c0.5,0,1,0.1,1.4,0.4    c0.3,0.2,0.5,0.5,0.8,1L201.7,268.5z M200.2,270c-0.5,0-0.9,0.2-1.2,0.5c-0.3,0.3-0.5,0.7-0.5,1.1c0,1,0.7,1.7,1.7,1.7    c0.6,0,1.1-0.3,1.4-0.7c0.1-0.2,0.2-0.6,0.2-1C201.9,270.6,201.3,270,200.2,270z" fill="#666666" id="path_58" tag_name="svg/g_11/g_40/path_58"/>
    </g>
    <g id="g_39" tag_name="svg/g_11/g_39">
      <path d="M232,273.3c-0.2-0.2-0.4-0.5-0.5-0.8c-0.2-0.6-0.3-1.3-0.3-2.1c0-1,0.2-1.9,0.5-2.4c0.4-0.7,1.1-1.1,2-1.1    c0.7,0,1.2,0.2,1.6,0.6c0.3,0.3,0.4,0.5,0.5,0.8c0.2,0.6,0.3,1.3,0.3,2.1c0,1.1-0.2,2.1-0.6,2.6c-0.5,0.6-1.1,0.9-1.9,0.9    C232.9,274,232.4,273.7,232,273.3z M232.5,267.9c-0.2,0.2-0.3,0.4-0.4,0.7c-0.2,0.5-0.3,1.2-0.3,1.8c0,0.8,0.2,1.7,0.4,2.1    c0.3,0.5,0.8,0.8,1.4,0.8c0.5,0,0.8-0.1,1.1-0.4c0.2-0.2,0.3-0.4,0.4-0.7c0.2-0.6,0.3-1.2,0.3-1.8c0-0.8-0.2-1.7-0.4-2.1    c-0.3-0.5-0.8-0.8-1.4-0.8C233.1,267.5,232.8,267.6,232.5,267.9z" fill="#666666" id="path_57" tag_name="svg/g_11/g_39/path_57"/>
      <path d="M238.1,272.9v0.9h-0.9v-0.9H238.1z" fill="#666666" id="path_56" tag_name="svg/g_11/g_39/path_56"/>
      <path d="M243.5,270.6c0.5,0.3,0.7,0.8,0.7,1.4c0,1.2-0.9,1.9-2.5,1.9c-1.6,0-2.6-0.7-2.6-1.9c0-0.6,0.3-1.1,0.8-1.5    c0.3-0.2,0.5-0.3,0.8-0.3c-0.8-0.1-1.3-0.8-1.3-1.6c0-1.1,0.9-1.8,2.2-1.8c1.4,0,2.2,0.7,2.2,1.8c0,0.8-0.5,1.5-1.3,1.6    C243,270.3,243.2,270.4,243.5,270.6z M239.9,272c0,0.9,0.7,1.4,1.8,1.4c0.6,0,1.1-0.2,1.4-0.5c0.2-0.2,0.3-0.5,0.3-0.9    c0-0.9-0.7-1.4-1.8-1.4C240.6,270.6,239.9,271.1,239.9,272z M240.2,268.7c0,0.8,0.6,1.3,1.5,1.3s1.5-0.5,1.5-1.3    c0-0.8-0.6-1.2-1.5-1.2C240.8,267.4,240.2,267.9,240.2,268.7z" fill="#666666" id="path_55" tag_name="svg/g_11/g_39/path_55"/>
    </g>
    <g id="g_38" tag_name="svg/g_11/g_38">
      <path d="M273.7,266.9c0.2,0,0.4,0,0.7,0h0.6c0.3,0,0.5,0,0.7,0c-0.1,0.5-0.1,1-0.1,1.5v4.4c0,0.4,0,0.7,0.1,1h-0.9    c0.1-0.3,0.1-0.6,0.1-1v-5.2h-0.5c-0.3,0-0.5,0-0.8,0.1V266.9z" fill="#666666" id="path_54" tag_name="svg/g_11/g_38/path_54"/>
      <path d="M279.7,272.9v0.9h-0.9v-0.9H279.7z" fill="#666666" id="path_53" tag_name="svg/g_11/g_38/path_53"/>
      <path d="M281.6,273.3c-0.2-0.2-0.4-0.5-0.5-0.8c-0.2-0.6-0.3-1.3-0.3-2.1c0-1,0.2-1.9,0.5-2.4c0.4-0.7,1.1-1.1,2-1.1    c0.7,0,1.2,0.2,1.6,0.6c0.3,0.3,0.4,0.5,0.5,0.8c0.2,0.6,0.3,1.3,0.3,2.1c0,1.1-0.2,2.1-0.6,2.6c-0.5,0.6-1.1,0.9-1.9,0.9    C282.6,274,282,273.7,281.6,273.3z M282.1,267.9c-0.2,0.2-0.3,0.4-0.4,0.7c-0.2,0.5-0.3,1.2-0.3,1.8c0,0.8,0.2,1.7,0.4,2.1    c0.3,0.5,0.8,0.8,1.4,0.8c0.5,0,0.8-0.1,1.1-0.4c0.2-0.2,0.3-0.4,0.4-0.7c0.2-0.6,0.3-1.2,0.3-1.8c0-0.8-0.2-1.7-0.4-2.1    c-0.3-0.5-0.8-0.8-1.4-0.8C282.8,267.5,282.4,267.6,282.1,267.9z" fill="#666666" id="path_52" tag_name="svg/g_11/g_38/path_52"/>
    </g>
    <g id="g_37" tag_name="svg/g_11/g_37">
      <path d="M313.5,266.9c0.2,0,0.4,0,0.7,0h0.6c0.3,0,0.5,0,0.7,0c-0.1,0.5-0.1,1-0.1,1.5v4.4c0,0.4,0,0.7,0.1,1h-0.9    c0.1-0.3,0.1-0.6,0.1-1v-5.2h-0.5c-0.3,0-0.5,0-0.8,0.1V266.9z" fill="#666666" id="path_51" tag_name="svg/g_11/g_37/path_51"/>
      <path d="M319.5,272.9v0.9h-0.9v-0.9H319.5z" fill="#666666" id="path_50" tag_name="svg/g_11/g_37/path_50"/>
      <path d="M322.1,273.8c-0.6,0-0.7,0-1,0c0.1-0.7,0.1-0.8,0.3-1.2c0.2-0.6,0.6-1.1,1.2-1.5c0.3-0.3,0.3-0.3,1.4-1    c0.9-0.6,1.2-1,1.2-1.5c0-0.7-0.6-1.1-1.5-1.1c-0.6,0-1,0.2-1.3,0.6c-0.2,0.2-0.3,0.5-0.3,0.9l-0.8-0.1c0.1-0.6,0.3-1,0.6-1.3    c0.4-0.5,1-0.7,1.8-0.7c1.4,0,2.2,0.7,2.2,1.7c0,0.5-0.2,0.9-0.5,1.3c-0.3,0.3-0.5,0.5-1.5,1.2c-0.7,0.5-1,0.7-1.3,1.1    c-0.3,0.4-0.4,0.6-0.5,1h2.9c0.5,0,0.8,0,1.1-0.1v0.8c-0.4,0-0.7-0.1-1.1-0.1H322.1z" fill="#666666" id="path_49" tag_name="svg/g_11/g_37/path_49"/>
    </g>
    <line x1="70.9" y1="261.6" x2="321.3" y2="261.6" fill="none" stroke="#333333" stroke-miterlimit="10" id="line_25" tag_name="svg/g_11/line_25"/>
    <g id="g_35" tag_name="svg/g_11/g_35">
      <g id="g_36" tag_name="svg/g_11/g_35/g_36">
        <line x1="112.9" y1="261.6" x2="112.9" y2="256.4" fill="none" stroke="#333333" stroke-miterlimit="10" id="line_24" tag_name="svg/g_11/g_35/g_36/line_24"/>
        <line x1="154.5" y1="261.6" x2="154.5" y2="256.4" fill="none" stroke="#333333" stroke-miterlimit="10" id="line_23" tag_name="svg/g_11/g_35/g_36/line_23"/>
        <line x1="196.1" y1="261.6" x2="196.1" y2="256.4" fill="none" stroke="#333333" stroke-miterlimit="10" id="line_22" tag_name="svg/g_11/g_35/g_36/line_22"/>
        <line x1="237.6" y1="261.6" x2="237.6" y2="256.4" fill="none" stroke="#333333" stroke-miterlimit="10" id="line_21" tag_name="svg/g_11/g_35/g_36/line_21"/>
        <line x1="279.2" y1="261.6" x2="279.2" y2="256.4" fill="none" stroke="#333333" stroke-miterlimit="10" id="line_20" tag_name="svg/g_11/g_35/g_36/line_20"/>
        <line x1="320.8" y1="261.6" x2="320.8" y2="256.4" fill="none" stroke="#333333" stroke-miterlimit="10" id="line_19" tag_name="svg/g_11/g_35/g_36/line_19"/>
      </g>
    </g>
    <g id="g_34" tag_name="svg/g_11/g_34">
      <path d="M53.2,222.2c-0.2-0.2-0.4-0.5-0.5-0.8c-0.2-0.6-0.3-1.3-0.3-2.1c0-1,0.2-1.9,0.5-2.4c0.4-0.7,1.1-1.1,2-1.1    c0.7,0,1.2,0.2,1.6,0.6c0.3,0.3,0.4,0.5,0.5,0.8c0.2,0.6,0.3,1.3,0.3,2.1c0,1.1-0.2,2.1-0.6,2.6c-0.5,0.6-1.1,0.9-1.9,0.9    C54.2,222.9,53.7,222.7,53.2,222.2z M53.8,216.9c-0.2,0.2-0.3,0.4-0.4,0.7c-0.2,0.5-0.3,1.2-0.3,1.8c0,0.8,0.2,1.7,0.4,2.1    c0.3,0.5,0.8,0.8,1.4,0.8c0.5,0,0.8-0.1,1.1-0.4c0.2-0.2,0.3-0.4,0.4-0.7c0.2-0.6,0.3-1.2,0.3-1.8c0-0.8-0.2-1.7-0.4-2.1    c-0.3-0.5-0.8-0.8-1.4-0.8C54.4,216.4,54,216.6,53.8,216.9z" fill="#666666" id="path_48" tag_name="svg/g_11/g_34/path_48"/>
      <path d="M59.4,221.9v0.9h-0.9v-0.9H59.4z" fill="#666666" id="path_47" tag_name="svg/g_11/g_34/path_47"/>
      <path d="M62,222.8c-0.6,0-0.7,0-1,0c0.1-0.7,0.1-0.8,0.3-1.2c0.2-0.6,0.6-1.1,1.2-1.5c0.3-0.3,0.3-0.3,1.4-1    c0.9-0.6,1.2-1,1.2-1.5c0-0.7-0.6-1.1-1.5-1.1c-0.6,0-1,0.2-1.3,0.6c-0.2,0.2-0.3,0.5-0.3,0.9l-0.8-0.1c0.1-0.6,0.3-1,0.6-1.3    c0.4-0.5,1-0.7,1.8-0.7c1.4,0,2.2,0.7,2.2,1.7c0,0.5-0.2,0.9-0.5,1.3c-0.3,0.3-0.5,0.5-1.5,1.2c-0.7,0.5-1,0.7-1.3,1.1    c-0.3,0.4-0.4,0.6-0.5,1h2.9c0.5,0,0.8,0,1.1-0.1v0.8c-0.4,0-0.7-0.1-1.1-0.1H62z" fill="#666666" id="path_46" tag_name="svg/g_11/g_34/path_46"/>
    </g>
    <g id="g_33" tag_name="svg/g_11/g_33">
      <path d="M53.6,180.7c-0.2-0.2-0.4-0.5-0.5-0.8c-0.2-0.6-0.3-1.3-0.3-2.1c0-1,0.2-1.9,0.5-2.4c0.4-0.7,1.1-1.1,2-1.1    c0.7,0,1.2,0.2,1.6,0.6c0.3,0.3,0.4,0.5,0.5,0.8c0.2,0.6,0.3,1.3,0.3,2.1c0,1.1-0.2,2.1-0.6,2.6c-0.5,0.6-1.1,0.9-1.9,0.9    C54.6,181.3,54.1,181.1,53.6,180.7z M54.2,175.3c-0.2,0.2-0.3,0.4-0.4,0.7c-0.2,0.5-0.3,1.2-0.3,1.8c0,0.8,0.2,1.7,0.4,2.1    c0.3,0.5,0.8,0.8,1.4,0.8c0.5,0,0.8-0.1,1.1-0.4c0.2-0.2,0.3-0.4,0.4-0.7c0.2-0.6,0.3-1.2,0.3-1.8c0-0.8-0.2-1.7-0.4-2.1    c-0.3-0.5-0.8-0.8-1.4-0.8C54.8,174.8,54.5,175,54.2,175.3z" fill="#666666" id="path_45" tag_name="svg/g_11/g_33/path_45"/>
      <path d="M59.8,180.3v0.9h-0.9v-0.9H59.8z" fill="#666666" id="path_44" tag_name="svg/g_11/g_33/path_44"/>
      <path d="M60.7,178.8c0.2-0.2,0.4-0.5,0.6-0.7l2.3-2.8c0.3-0.4,0.5-0.6,0.7-0.9h0.7c0,0.5-0.1,0.8-0.1,1.5v3h0.3    c0.4,0,0.6,0,0.9-0.1v0.7c-0.3,0-0.6-0.1-0.9-0.1h-0.3v0.8c0,0.4,0,0.6,0.1,1h-0.8c0.1-0.3,0.1-0.6,0.1-1v-0.8h-2.4    c-0.5,0-0.8,0-1.1,0V178.8z M64.2,176.5c0-0.5,0-0.8,0.1-1.2c-0.2,0.3-0.4,0.6-0.7,0.9l-2.1,2.6h2.7V176.5z" fill="#666666" id="path_43" tag_name="svg/g_11/g_33/path_43"/>
    </g>
    <g id="g_32" tag_name="svg/g_11/g_32">
      <path d="M53.7,140c-0.2-0.2-0.4-0.5-0.5-0.8c-0.2-0.6-0.3-1.3-0.3-2.1c0-1,0.2-1.9,0.5-2.4c0.4-0.7,1.1-1.1,2-1.1    c0.7,0,1.2,0.2,1.6,0.6c0.3,0.3,0.4,0.5,0.5,0.8c0.2,0.6,0.3,1.3,0.3,2.1c0,1.1-0.2,2.1-0.6,2.6c-0.5,0.6-1.1,0.9-1.9,0.9    C54.7,140.6,54.1,140.4,53.7,140z M54.2,134.6c-0.2,0.2-0.3,0.4-0.4,0.7c-0.2,0.5-0.3,1.2-0.3,1.8c0,0.8,0.2,1.7,0.4,2.1    c0.3,0.5,0.8,0.8,1.4,0.8c0.5,0,0.8-0.1,1.1-0.4c0.2-0.2,0.3-0.4,0.4-0.7c0.2-0.6,0.3-1.2,0.3-1.8c0-0.8-0.2-1.7-0.4-2.1    c-0.3-0.5-0.8-0.8-1.4-0.8C54.9,134.1,54.5,134.3,54.2,134.6z" fill="#666666" id="path_42" tag_name="svg/g_11/g_32/path_42"/>
      <path d="M59.8,139.6v0.9h-0.9v-0.9H59.8z" fill="#666666" id="path_41" tag_name="svg/g_11/g_32/path_41"/>
      <path d="M65,135.1c-0.1-0.3-0.2-0.4-0.3-0.6c-0.3-0.3-0.6-0.5-1.1-0.5c-0.7,0-1.2,0.4-1.6,1.1c-0.2,0.5-0.3,1-0.4,1.9    c0.2-0.3,0.3-0.4,0.5-0.6c0.4-0.4,0.9-0.5,1.5-0.5c1.4,0,2.3,0.9,2.3,2.3c0,1.4-0.9,2.3-2.4,2.3c-0.6,0-1.2-0.2-1.6-0.6    c-0.6-0.5-0.9-1.5-0.9-2.8c0-1.1,0.3-2.1,0.7-2.7c0.5-0.6,1.1-1,1.9-1c0.5,0,1,0.1,1.4,0.4c0.3,0.2,0.5,0.5,0.8,1L65,135.1z     M63.5,136.6c-0.5,0-0.9,0.2-1.2,0.5c-0.3,0.3-0.5,0.7-0.5,1.1c0,1,0.7,1.7,1.7,1.7c0.6,0,1.1-0.3,1.4-0.7c0.1-0.2,0.2-0.6,0.2-1    C65.2,137.2,64.6,136.6,63.5,136.6z" fill="#666666" id="path_40" tag_name="svg/g_11/g_32/path_40"/>
    </g>
    <g id="g_31" tag_name="svg/g_11/g_31">
      <path d="M53.7,98.4c-0.2-0.2-0.4-0.5-0.5-0.8c-0.2-0.6-0.3-1.3-0.3-2.1c0-1,0.2-1.9,0.5-2.4c0.4-0.7,1.1-1.1,2-1.1    c0.7,0,1.2,0.2,1.6,0.6c0.3,0.3,0.4,0.5,0.5,0.8c0.2,0.6,0.3,1.3,0.3,2.1c0,1.1-0.2,2.1-0.6,2.6c-0.5,0.6-1.1,0.9-1.9,0.9    C54.7,99,54.1,98.8,53.7,98.4z M54.2,93c-0.2,0.2-0.3,0.4-0.4,0.7c-0.2,0.5-0.3,1.2-0.3,1.8c0,0.8,0.2,1.7,0.4,2.1    c0.3,0.5,0.8,0.8,1.4,0.8c0.5,0,0.8-0.1,1.1-0.4c0.2-0.2,0.3-0.4,0.4-0.7c0.2-0.6,0.3-1.2,0.3-1.8c0-0.8-0.2-1.7-0.4-2.1    c-0.3-0.5-0.8-0.8-1.4-0.8C54.9,92.5,54.5,92.7,54.2,93z" fill="#666666" id="path_39" tag_name="svg/g_11/g_31/path_39"/>
      <path d="M59.8,98v0.9h-0.9V98H59.8z" fill="#666666" id="path_38" tag_name="svg/g_11/g_31/path_38"/>
      <path d="M65.2,95.7c0.5,0.3,0.7,0.8,0.7,1.4c0,1.2-0.9,1.9-2.5,1.9c-1.6,0-2.6-0.7-2.6-1.9c0-0.6,0.3-1.1,0.8-1.5    c0.3-0.2,0.5-0.3,0.8-0.3c-0.8-0.1-1.3-0.8-1.3-1.6c0-1.1,0.9-1.8,2.2-1.8c1.4,0,2.2,0.7,2.2,1.8c0,0.8-0.5,1.5-1.3,1.6    C64.7,95.4,64.9,95.5,65.2,95.7z M61.6,97.1c0,0.9,0.7,1.4,1.8,1.4c0.6,0,1.1-0.2,1.4-0.5c0.2-0.2,0.3-0.5,0.3-0.9    c0-0.9-0.7-1.4-1.8-1.4C62.3,95.6,61.6,96.2,61.6,97.1z M61.9,93.7c0,0.8,0.6,1.3,1.5,1.3s1.5-0.5,1.5-1.3c0-0.8-0.6-1.2-1.5-1.2    C62.5,92.5,61.9,93,61.9,93.7z" fill="#666666" id="path_37" tag_name="svg/g_11/g_31/path_37"/>
    </g>
    <g id="g_30" tag_name="svg/g_11/g_30">
      <path d="M53.8,50.4c0.2,0,0.4,0,0.7,0h0.6c0.3,0,0.5,0,0.7,0c-0.1,0.5-0.1,1-0.1,1.5v4.4c0,0.4,0,0.7,0.1,1H55    c0.1-0.3,0.1-0.6,0.1-1v-5.2h-0.5c-0.3,0-0.5,0-0.8,0.1V50.4z" fill="#666666" id="path_36" tag_name="svg/g_11/g_30/path_36"/>
      <path d="M59.8,56.4v0.9h-0.9v-0.9H59.8z" fill="#666666" id="path_35" tag_name="svg/g_11/g_30/path_35"/>
      <path d="M61.8,56.8c-0.2-0.2-0.4-0.5-0.5-0.8c-0.2-0.6-0.3-1.3-0.3-2.1c0-1,0.2-1.9,0.5-2.4c0.4-0.7,1.1-1.1,2-1.1    c0.7,0,1.2,0.2,1.6,0.6c0.3,0.3,0.4,0.5,0.5,0.8c0.2,0.6,0.3,1.3,0.3,2.1c0,1.1-0.2,2.1-0.6,2.6c-0.5,0.6-1.1,0.9-1.9,0.9    C62.7,57.4,62.2,57.2,61.8,56.8z M62.3,51.4c-0.2,0.2-0.3,0.4-0.4,0.7c-0.2,0.5-0.3,1.2-0.3,1.8c0,0.8,0.2,1.7,0.4,2.1    c0.3,0.5,0.8,0.8,1.4,0.8c0.5,0,0.8-0.1,1.1-0.4c0.2-0.2,0.3-0.4,0.4-0.7c0.2-0.6,0.3-1.2,0.3-1.8c0-0.8-0.2-1.7-0.4-2.1    C64.5,51.2,64,51,63.4,51C62.9,51,62.6,51.1,62.3,51.4z" fill="#666666" id="path_34" tag_name="svg/g_11/g_30/path_34"/>
    </g>
    <line x1="71.3" y1="261.6" x2="71.3" y2="53.2" fill="none" stroke="#333333" stroke-miterlimit="10" id="line_18" tag_name="svg/g_11/line_18"/>
    <g id="g_28" tag_name="svg/g_11/g_28">
      <g id="g_29" tag_name="svg/g_11/g_28/g_29">
        <line x1="71.3" y1="220" x2="76.5" y2="220" fill="none" stroke="#333333" stroke-miterlimit="10" id="line_17" tag_name="svg/g_11/g_28/g_29/line_17"/>
        <line x1="71.3" y1="178.4" x2="76.5" y2="178.4" fill="none" stroke="#333333" stroke-miterlimit="10" id="line_16" tag_name="svg/g_11/g_28/g_29/line_16"/>
        <line x1="71.3" y1="136.9" x2="76.5" y2="136.9" fill="none" stroke="#333333" stroke-miterlimit="10" id="line_15" tag_name="svg/g_11/g_28/g_29/line_15"/>
        <line x1="71.3" y1="95.3" x2="76.5" y2="95.3" fill="none" stroke="#333333" stroke-miterlimit="10" id="line_14" tag_name="svg/g_11/g_28/g_29/line_14"/>
        <line x1="71.3" y1="53.7" x2="76.5" y2="53.7" fill="none" stroke="#333333" stroke-miterlimit="10" id="line_13" tag_name="svg/g_11/g_28/g_29/line_13"/>
      </g>
    </g>
    <g id="g_27" tag_name="svg/g_11/g_27">
      <path d="M413.3,273.1c-0.3-0.3-0.5-0.6-0.6-0.9c-0.2-0.7-0.4-1.5-0.4-2.3c0-1.1,0.2-2.1,0.6-2.7    c0.5-0.8,1.2-1.2,2.2-1.2c0.7,0,1.4,0.2,1.8,0.7c0.3,0.3,0.5,0.6,0.6,0.9c0.2,0.7,0.4,1.5,0.4,2.3c0,1.2-0.3,2.3-0.7,2.9    c-0.5,0.7-1.2,1-2.1,1C414.4,273.8,413.8,273.5,413.3,273.1z M413.9,267.1c-0.2,0.2-0.4,0.5-0.5,0.7c-0.2,0.6-0.3,1.3-0.3,2    c0,0.9,0.2,1.9,0.5,2.4c0.3,0.6,0.9,0.9,1.5,0.9c0.5,0,0.9-0.2,1.2-0.5c0.2-0.2,0.4-0.5,0.5-0.8c0.2-0.6,0.3-1.3,0.3-2    c0-0.9-0.2-1.9-0.4-2.3c-0.3-0.6-0.9-0.9-1.6-0.9C414.6,266.6,414.2,266.8,413.9,267.1z" fill="#666666" id="path_33" tag_name="svg/g_11/g_27/path_33"/>
    </g>
    <g id="g_26" tag_name="svg/g_11/g_26">
      <path d="M458.6,273.3c-0.3-0.3-0.5-0.6-0.6-0.9c-0.2-0.7-0.4-1.5-0.4-2.3c0-1.1,0.2-2.1,0.6-2.7    c0.5-0.8,1.2-1.2,2.2-1.2c0.7,0,1.4,0.2,1.8,0.7c0.3,0.3,0.5,0.6,0.6,0.9c0.2,0.7,0.4,1.5,0.4,2.3c0,1.2-0.3,2.3-0.7,2.9    c-0.5,0.7-1.2,1-2.1,1C459.7,274,459,273.7,458.6,273.3z M459.2,267.3c-0.2,0.2-0.4,0.5-0.5,0.7c-0.2,0.6-0.3,1.3-0.3,2    c0,0.9,0.2,1.9,0.5,2.4c0.3,0.6,0.9,0.9,1.5,0.9c0.5,0,0.9-0.2,1.2-0.5c0.2-0.2,0.4-0.5,0.5-0.8c0.2-0.6,0.3-1.3,0.3-2    c0-0.9-0.2-1.9-0.4-2.3c-0.3-0.6-0.9-0.9-1.6-0.9C459.9,266.8,459.5,266.9,459.2,267.3z" fill="#666666" id="path_32" tag_name="svg/g_11/g_26/path_32"/>
      <path d="M465.4,272.8v1h-1v-1H465.4z" fill="#666666" id="path_31" tag_name="svg/g_11/g_26/path_31"/>
      <path d="M468.3,273.8c-0.6,0-0.8,0-1.1,0c0.1-0.8,0.1-0.9,0.3-1.3c0.2-0.6,0.7-1.2,1.3-1.7c0.3-0.3,0.4-0.3,1.5-1.1    c1-0.7,1.3-1.1,1.3-1.7c0-0.8-0.6-1.2-1.7-1.2c-0.7,0-1.1,0.2-1.4,0.6c-0.2,0.3-0.3,0.5-0.3,1l-0.8-0.1c0.2-0.7,0.3-1.1,0.6-1.4    c0.4-0.5,1.1-0.8,2-0.8c1.5,0,2.5,0.8,2.5,1.9c0,0.5-0.2,1-0.6,1.4c-0.3,0.3-0.6,0.5-1.7,1.3c-0.8,0.5-1.1,0.8-1.4,1.2    c-0.3,0.4-0.5,0.7-0.6,1.2h3.2c0.5,0,0.8,0,1.2-0.1v0.8c-0.4,0-0.7-0.1-1.2-0.1H468.3z" fill="#666666" id="path_30" tag_name="svg/g_11/g_26/path_30"/>
    </g>
    <g id="g_25" tag_name="svg/g_11/g_25">
      <path d="M500.4,273.3c-0.3-0.3-0.5-0.6-0.6-0.9c-0.2-0.7-0.4-1.5-0.4-2.3c0-1.1,0.2-2.1,0.6-2.7    c0.5-0.8,1.2-1.2,2.2-1.2c0.7,0,1.4,0.2,1.8,0.7c0.3,0.3,0.5,0.6,0.6,0.9c0.2,0.7,0.4,1.5,0.4,2.3c0,1.2-0.3,2.3-0.7,2.9    c-0.5,0.7-1.2,1-2.1,1C501.5,274,500.8,273.7,500.4,273.3z M501,267.3c-0.2,0.2-0.4,0.5-0.5,0.7c-0.2,0.6-0.3,1.3-0.3,2    c0,0.9,0.2,1.9,0.5,2.4c0.3,0.6,0.9,0.9,1.5,0.9c0.5,0,0.9-0.2,1.2-0.5c0.2-0.2,0.4-0.5,0.5-0.8c0.2-0.6,0.3-1.3,0.3-2    c0-0.9-0.2-1.9-0.4-2.3c-0.3-0.6-0.9-0.9-1.6-0.9C501.7,266.8,501.3,266.9,501,267.3z" fill="#666666" id="path_29" tag_name="svg/g_11/g_25/path_29"/>
      <path d="M507.2,272.8v1h-1v-1H507.2z" fill="#666666" id="path_28" tag_name="svg/g_11/g_25/path_28"/>
      <path d="M508.2,271.2c0.2-0.2,0.4-0.5,0.7-0.8l2.5-3.2c0.3-0.4,0.5-0.7,0.7-1h0.8c0,0.6-0.1,0.9-0.1,1.7v3.3h0.4    c0.4,0,0.7,0,1-0.1v0.8c-0.4,0-0.6-0.1-1-0.1h-0.4v0.9c0,0.5,0,0.7,0.1,1.1H512c0.1-0.4,0.1-0.6,0.1-1.1v-0.9h-2.7    c-0.6,0-0.9,0-1.2,0V271.2z M512.1,268.7c0-0.5,0-0.8,0.1-1.4c-0.2,0.3-0.5,0.6-0.8,1l-2.3,2.9h3V268.7z" fill="#666666" id="path_27" tag_name="svg/g_11/g_25/path_27"/>
    </g>
    <g id="g_24" tag_name="svg/g_11/g_24">
      <path d="M542,273.3c-0.3-0.3-0.5-0.6-0.6-0.9c-0.2-0.7-0.4-1.5-0.4-2.3c0-1.1,0.2-2.1,0.6-2.7    c0.5-0.8,1.2-1.2,2.2-1.2c0.7,0,1.4,0.2,1.8,0.7c0.3,0.3,0.5,0.6,0.6,0.9c0.2,0.7,0.4,1.5,0.4,2.3c0,1.2-0.3,2.3-0.7,2.9    c-0.5,0.7-1.2,1-2.1,1C543.1,274,542.4,273.7,542,273.3z M542.6,267.3c-0.2,0.2-0.4,0.5-0.5,0.7c-0.2,0.6-0.3,1.3-0.3,2    c0,0.9,0.2,1.9,0.5,2.4c0.3,0.6,0.9,0.9,1.5,0.9c0.5,0,0.9-0.2,1.2-0.5c0.2-0.2,0.4-0.5,0.5-0.8c0.2-0.6,0.3-1.3,0.3-2    c0-0.9-0.2-1.9-0.4-2.3c-0.3-0.6-0.9-0.9-1.6-0.9C543.3,266.8,542.9,266.9,542.6,267.3z" fill="#666666" id="path_26" tag_name="svg/g_11/g_24/path_26"/>
      <path d="M548.8,272.8v1h-1v-1H548.8z" fill="#666666" id="path_25" tag_name="svg/g_11/g_24/path_25"/>
      <path d="M554.5,267.9c-0.1-0.3-0.2-0.5-0.4-0.6c-0.3-0.3-0.7-0.5-1.2-0.5c-0.8,0-1.4,0.4-1.7,1.2    c-0.3,0.6-0.3,1.1-0.4,2.1c0.2-0.3,0.3-0.4,0.5-0.6c0.5-0.4,1-0.6,1.7-0.6c1.5,0,2.5,1,2.5,2.5c0,1.5-1,2.6-2.6,2.6    c-0.7,0-1.4-0.2-1.8-0.6c-0.7-0.6-1-1.7-1-3.1c0-1.2,0.3-2.4,0.8-3c0.5-0.7,1.2-1.1,2.1-1.1c0.6,0,1.1,0.2,1.5,0.4    c0.3,0.2,0.5,0.5,0.8,1.1L554.5,267.9z M552.9,269.6c-0.5,0-1,0.2-1.4,0.6c-0.3,0.3-0.5,0.8-0.5,1.3c0,1.1,0.8,1.9,1.9,1.9    c0.6,0,1.2-0.3,1.6-0.8c0.2-0.3,0.3-0.7,0.3-1.1C554.7,270.2,554.1,269.6,552.9,269.6z" fill="#666666" id="path_24" tag_name="svg/g_11/g_24/path_24"/>
    </g>
    <g id="g_23" tag_name="svg/g_11/g_23">
      <path d="M583.6,273.3c-0.3-0.3-0.5-0.6-0.6-0.9c-0.2-0.7-0.4-1.5-0.4-2.3c0-1.1,0.2-2.1,0.6-2.7    c0.5-0.8,1.2-1.2,2.2-1.2c0.7,0,1.4,0.2,1.8,0.7c0.3,0.3,0.5,0.6,0.6,0.9c0.2,0.7,0.4,1.5,0.4,2.3c0,1.2-0.3,2.3-0.7,2.9    c-0.5,0.7-1.2,1-2.1,1C584.6,274,584,273.7,583.6,273.3z M584.1,267.3c-0.2,0.2-0.4,0.5-0.5,0.7c-0.2,0.6-0.3,1.3-0.3,2    c0,0.9,0.2,1.9,0.5,2.4c0.3,0.6,0.9,0.9,1.5,0.9c0.5,0,0.9-0.2,1.2-0.5c0.2-0.2,0.4-0.5,0.5-0.8c0.2-0.6,0.3-1.3,0.3-2    c0-0.9-0.2-1.9-0.4-2.3c-0.3-0.6-0.9-0.9-1.6-0.9C584.9,266.8,584.5,266.9,584.1,267.3z" fill="#666666" id="path_23" tag_name="svg/g_11/g_23/path_23"/>
      <path d="M590.4,272.8v1h-1v-1H590.4z" fill="#666666" id="path_22" tag_name="svg/g_11/g_23/path_22"/>
      <path d="M596.4,270.3c0.5,0.4,0.7,0.9,0.7,1.6c0,1.4-1,2.1-2.8,2.1c-1.8,0-2.8-0.8-2.8-2.1c0-0.7,0.3-1.3,0.9-1.7    c0.3-0.2,0.5-0.3,0.9-0.3c-0.9-0.2-1.4-0.9-1.4-1.8c0-1.2,0.9-2,2.5-2c1.5,0,2.5,0.7,2.5,2c0,0.9-0.6,1.6-1.4,1.8    C595.8,269.9,596.1,270,596.4,270.3z M592.4,271.8c0,0.9,0.7,1.5,2,1.5c0.7,0,1.3-0.2,1.6-0.5c0.2-0.2,0.4-0.6,0.4-1    c0-1-0.7-1.6-2-1.6S592.4,270.8,592.4,271.8z M592.7,268.1c0,0.9,0.6,1.4,1.7,1.4s1.7-0.5,1.7-1.4c0-0.8-0.7-1.4-1.7-1.4    C593.3,266.7,592.7,267.3,592.7,268.1z" fill="#666666" id="path_21" tag_name="svg/g_11/g_23/path_21"/>
    </g>
    <g id="g_22" tag_name="svg/g_11/g_22">
      <path d="M625.3,266.2c0.3,0,0.4,0,0.8,0h0.6c0.3,0,0.5,0,0.8,0c-0.1,0.6-0.1,1.1-0.1,1.7v4.9c0,0.5,0,0.8,0.1,1.1    h-0.9c0.1-0.4,0.1-0.7,0.1-1.1v-5.8h-0.5c-0.3,0-0.6,0-0.9,0.1V266.2z" fill="#666666" id="path_20" tag_name="svg/g_11/g_22/path_20"/>
      <path d="M631.9,272.8v1h-1v-1H631.9z" fill="#666666" id="path_19" tag_name="svg/g_11/g_22/path_19"/>
      <path d="M634.1,273.3c-0.3-0.3-0.5-0.6-0.6-0.9c-0.2-0.7-0.4-1.5-0.4-2.3c0-1.1,0.2-2.1,0.6-2.7    c0.5-0.8,1.2-1.2,2.2-1.2c0.7,0,1.4,0.2,1.8,0.7c0.3,0.3,0.5,0.6,0.6,0.9c0.2,0.7,0.4,1.5,0.4,2.3c0,1.2-0.3,2.3-0.7,2.9    c-0.5,0.7-1.2,1-2.1,1C635.2,274,634.6,273.7,634.1,273.3z M634.7,267.3c-0.2,0.2-0.4,0.5-0.5,0.7c-0.2,0.6-0.3,1.3-0.3,2    c0,0.9,0.2,1.9,0.5,2.4c0.3,0.6,0.9,0.9,1.5,0.9c0.5,0,0.9-0.2,1.2-0.5c0.2-0.2,0.4-0.5,0.5-0.8c0.2-0.6,0.3-1.3,0.3-2    c0-0.9-0.2-1.9-0.4-2.3c-0.3-0.6-0.9-0.9-1.6-0.9C635.4,266.8,635,266.9,634.7,267.3z" fill="#666666" id="path_18" tag_name="svg/g_11/g_22/path_18"/>
    </g>
    <g id="g_21" tag_name="svg/g_11/g_21">
      <path d="M665.1,266.2c0.3,0,0.4,0,0.8,0h0.6c0.3,0,0.5,0,0.8,0c-0.1,0.6-0.1,1.1-0.1,1.7v4.9c0,0.5,0,0.8,0.1,1.1    h-0.9c0.1-0.4,0.1-0.7,0.1-1.1v-5.8h-0.5c-0.3,0-0.6,0-0.9,0.1V266.2z" fill="#666666" id="path_17" tag_name="svg/g_11/g_21/path_17"/>
      <path d="M671.7,272.8v1h-1v-1H671.7z" fill="#666666" id="path_16" tag_name="svg/g_11/g_21/path_16"/>
      <path d="M674.6,273.8c-0.6,0-0.8,0-1.1,0c0.1-0.8,0.1-0.9,0.3-1.3c0.2-0.6,0.7-1.2,1.3-1.7c0.3-0.3,0.4-0.3,1.5-1.1    c1-0.7,1.3-1.1,1.3-1.7c0-0.8-0.6-1.2-1.7-1.2c-0.7,0-1.1,0.2-1.4,0.6c-0.2,0.3-0.3,0.5-0.3,1l-0.8-0.1c0.2-0.7,0.3-1.1,0.6-1.4    c0.4-0.5,1.1-0.8,2-0.8c1.5,0,2.5,0.8,2.5,1.9c0,0.5-0.2,1-0.6,1.4c-0.3,0.3-0.6,0.5-1.7,1.3c-0.8,0.5-1.1,0.8-1.4,1.2    c-0.3,0.4-0.5,0.7-0.6,1.2h3.2c0.5,0,0.8,0,1.2-0.1v0.8c-0.4,0-0.7-0.1-1.2-0.1H674.6z" fill="#666666" id="path_15" tag_name="svg/g_11/g_21/path_15"/>
    </g>
    <line x1="423.1" y1="261.6" x2="673.5" y2="261.6" fill="none" stroke="#333333" stroke-miterlimit="10" id="line_12" tag_name="svg/g_11/line_12"/>
    <g id="g_19" tag_name="svg/g_11/g_19">
      <g id="g_20" tag_name="svg/g_11/g_19/g_20">
        <line x1="465.1" y1="261.6" x2="465.1" y2="256.4" fill="none" stroke="#333333" stroke-miterlimit="10" id="line_11" tag_name="svg/g_11/g_19/g_20/line_11"/>
        <line x1="506.7" y1="261.6" x2="506.7" y2="256.4" fill="none" stroke="#333333" stroke-miterlimit="10" id="line_10" tag_name="svg/g_11/g_19/g_20/line_10"/>
        <line x1="548.3" y1="261.6" x2="548.3" y2="256.4" fill="none" stroke="#333333" stroke-miterlimit="10" id="line_9" tag_name="svg/g_11/g_19/g_20/line_9"/>
        <line x1="589.9" y1="261.6" x2="589.9" y2="256.4" fill="none" stroke="#333333" stroke-miterlimit="10" id="line_8" tag_name="svg/g_11/g_19/g_20/line_8"/>
        <line x1="631.5" y1="261.6" x2="631.5" y2="256.4" fill="none" stroke="#333333" stroke-miterlimit="10" id="line_7" tag_name="svg/g_11/g_19/g_20/line_7"/>
        <line x1="673" y1="261.6" x2="673" y2="256.4" fill="none" stroke="#333333" stroke-miterlimit="10" id="line_6" tag_name="svg/g_11/g_19/g_20/line_6"/>
      </g>
    </g>
    <g id="g_18" tag_name="svg/g_11/g_18">
      <path d="M404,222.2c-0.3-0.3-0.5-0.6-0.6-0.9c-0.2-0.7-0.4-1.5-0.4-2.3c0-1.1,0.2-2.1,0.6-2.7    c0.5-0.8,1.2-1.2,2.2-1.2c0.7,0,1.4,0.2,1.8,0.7c0.3,0.3,0.5,0.6,0.6,0.9c0.2,0.7,0.4,1.5,0.4,2.3c0,1.2-0.3,2.3-0.7,2.9    c-0.5,0.7-1.2,1-2.1,1C405.1,222.9,404.5,222.7,404,222.2z M404.6,216.2c-0.2,0.2-0.4,0.5-0.5,0.7c-0.2,0.6-0.3,1.3-0.3,2    c0,0.9,0.2,1.9,0.5,2.4c0.3,0.6,0.9,0.9,1.5,0.9c0.5,0,0.9-0.2,1.2-0.5c0.2-0.2,0.4-0.5,0.5-0.8c0.2-0.6,0.3-1.3,0.3-2    c0-0.9-0.2-1.9-0.4-2.3c-0.3-0.6-0.9-0.9-1.6-0.9C405.3,215.7,404.9,215.9,404.6,216.2z" fill="#666666" id="path_14" tag_name="svg/g_11/g_18/path_14"/>
      <path d="M410.8,221.8v1h-1v-1H410.8z" fill="#666666" id="path_13" tag_name="svg/g_11/g_18/path_13"/>
      <path d="M413.7,222.7c-0.6,0-0.8,0-1.1,0c0.1-0.8,0.1-0.9,0.3-1.3c0.2-0.6,0.7-1.2,1.3-1.7c0.3-0.3,0.4-0.3,1.5-1.1    c1-0.7,1.3-1.1,1.3-1.7c0-0.8-0.6-1.2-1.7-1.2c-0.7,0-1.1,0.2-1.4,0.6c-0.2,0.3-0.3,0.5-0.3,1l-0.8-0.1c0.2-0.7,0.3-1.1,0.6-1.4    c0.4-0.5,1.1-0.8,2-0.8c1.5,0,2.5,0.8,2.5,1.9c0,0.5-0.2,1-0.6,1.4c-0.3,0.3-0.6,0.5-1.7,1.3c-0.8,0.5-1.1,0.8-1.4,1.2    c-0.3,0.4-0.5,0.7-0.6,1.2h3.2c0.5,0,0.8,0,1.2-0.1v0.8c-0.4,0-0.7-0.1-1.2-0.1H413.7z" fill="#666666" id="path_12" tag_name="svg/g_11/g_18/path_12"/>
    </g>
    <g id="g_17" tag_name="svg/g_11/g_17">
      <path d="M404.5,180.6c-0.3-0.3-0.5-0.6-0.6-0.9c-0.2-0.7-0.4-1.5-0.4-2.3c0-1.1,0.2-2.1,0.6-2.7    c0.5-0.8,1.2-1.2,2.2-1.2c0.7,0,1.4,0.2,1.8,0.7c0.3,0.3,0.5,0.6,0.6,0.9c0.2,0.7,0.4,1.5,0.4,2.3c0,1.2-0.3,2.3-0.7,2.9    c-0.5,0.7-1.2,1-2.1,1C405.5,181.3,404.9,181.1,404.5,180.6z M405,174.6c-0.2,0.2-0.4,0.5-0.5,0.7c-0.2,0.6-0.3,1.3-0.3,2    c0,0.9,0.2,1.9,0.5,2.4c0.3,0.6,0.9,0.9,1.5,0.9c0.5,0,0.9-0.2,1.2-0.5c0.2-0.2,0.4-0.5,0.5-0.8c0.2-0.6,0.3-1.3,0.3-2    c0-0.9-0.2-1.9-0.4-2.3c-0.3-0.6-0.9-0.9-1.6-0.9C405.8,174.1,405.4,174.3,405,174.6z" fill="#666666" id="path_11" tag_name="svg/g_11/g_17/path_11"/>
      <path d="M411.3,180.2v1h-1v-1H411.3z" fill="#666666" id="path_10" tag_name="svg/g_11/g_17/path_10"/>
      <path d="M412.3,178.5c0.2-0.2,0.4-0.5,0.7-0.8l2.5-3.2c0.3-0.4,0.5-0.7,0.7-1h0.8c0,0.6-0.1,0.9-0.1,1.7v3.3h0.4    c0.4,0,0.7,0,1-0.1v0.8c-0.4,0-0.6-0.1-1-0.1h-0.4v0.9c0,0.5,0,0.7,0.1,1.1h-0.9c0.1-0.4,0.1-0.6,0.1-1.1v-0.9h-2.7    c-0.6,0-0.9,0-1.2,0V178.5z M416.2,176c0-0.5,0-0.8,0.1-1.4c-0.2,0.3-0.5,0.6-0.8,1l-2.3,2.9h3V176z" fill="#666666" id="path_9" tag_name="svg/g_11/g_17/path_9"/>
    </g>
    <g id="g_16" tag_name="svg/g_11/g_16">
      <path d="M404.5,139.9c-0.3-0.3-0.5-0.6-0.6-0.9c-0.2-0.7-0.4-1.5-0.4-2.3c0-1.1,0.2-2.1,0.6-2.7    c0.5-0.8,1.2-1.2,2.2-1.2c0.7,0,1.4,0.2,1.8,0.7c0.3,0.3,0.5,0.6,0.6,0.9c0.2,0.7,0.4,1.5,0.4,2.3c0,1.2-0.3,2.3-0.7,2.9    c-0.5,0.7-1.2,1-2.1,1C405.6,140.6,405,140.4,404.5,139.9z M405.1,133.9c-0.2,0.2-0.4,0.5-0.5,0.7c-0.2,0.6-0.3,1.3-0.3,2    c0,0.9,0.2,1.9,0.5,2.4c0.3,0.6,0.9,0.9,1.5,0.9c0.5,0,0.9-0.2,1.2-0.5c0.2-0.2,0.4-0.5,0.5-0.8c0.2-0.6,0.3-1.3,0.3-2    c0-0.9-0.2-1.9-0.4-2.3c-0.3-0.6-0.9-0.9-1.6-0.9C405.8,133.4,405.4,133.6,405.1,133.9z" fill="#666666" id="path_8" tag_name="svg/g_11/g_16/path_8"/>
      <path d="M411.3,139.5v1h-1v-1H411.3z" fill="#666666" id="path_7" tag_name="svg/g_11/g_16/path_7"/>
      <path d="M417,134.5c-0.1-0.3-0.2-0.5-0.4-0.6c-0.3-0.3-0.7-0.5-1.2-0.5c-0.8,0-1.4,0.4-1.7,1.2    c-0.3,0.6-0.3,1.1-0.4,2.1c0.2-0.3,0.3-0.4,0.5-0.6c0.5-0.4,1-0.6,1.7-0.6c1.5,0,2.5,1,2.5,2.5c0,1.5-1,2.6-2.6,2.6    c-0.7,0-1.4-0.2-1.8-0.6c-0.7-0.6-1-1.7-1-3.1c0-1.2,0.3-2.4,0.8-3c0.5-0.7,1.2-1.1,2.1-1.1c0.6,0,1.1,0.1,1.5,0.4    c0.3,0.2,0.5,0.5,0.8,1.1L417,134.5z M415.4,136.2c-0.5,0-1,0.2-1.4,0.6c-0.3,0.3-0.5,0.8-0.5,1.3c0,1.1,0.8,1.9,1.9,1.9    c0.6,0,1.2-0.3,1.6-0.8c0.2-0.3,0.3-0.7,0.3-1.1C417.3,136.9,416.6,136.2,415.4,136.2z" fill="#666666" id="path_6" tag_name="svg/g_11/g_16/path_6"/>
    </g>
    <g id="g_15" tag_name="svg/g_11/g_15">
      <path d="M404,98.3c-0.3-0.3-0.5-0.6-0.6-0.9c-0.2-0.7-0.4-1.5-0.4-2.3c0-1.1,0.2-2.1,0.6-2.7c0.5-0.8,1.2-1.2,2.2-1.2    c0.7,0,1.4,0.2,1.8,0.7c0.3,0.3,0.5,0.6,0.6,0.9c0.2,0.7,0.4,1.5,0.4,2.3c0,1.2-0.3,2.3-0.7,2.9c-0.5,0.7-1.2,1-2.1,1    C405.1,99,404.5,98.8,404,98.3z M404.6,92.3c-0.2,0.2-0.4,0.5-0.5,0.7c-0.2,0.6-0.3,1.3-0.3,2c0,0.9,0.2,1.9,0.5,2.4    c0.3,0.6,0.9,0.9,1.5,0.9c0.5,0,0.9-0.2,1.2-0.5c0.2-0.2,0.4-0.5,0.5-0.8c0.2-0.6,0.3-1.3,0.3-2c0-0.9-0.2-1.9-0.4-2.3    c-0.3-0.6-0.9-0.9-1.6-0.9C405.3,91.8,404.9,92,404.6,92.3z" fill="#666666" id="path_5" tag_name="svg/g_11/g_15/path_5"/>
      <path d="M410.8,97.9v1h-1v-1H410.8z" fill="#666666" id="path_4" tag_name="svg/g_11/g_15/path_4"/>
      <path d="M417.3,95.3c0.5,0.4,0.7,0.9,0.7,1.6c0,1.4-1,2.1-2.8,2.1c-1.8,0-2.8-0.8-2.8-2.1c0-0.7,0.3-1.3,0.9-1.7    c0.3-0.2,0.5-0.3,0.9-0.3c-0.9-0.2-1.4-0.9-1.4-1.8c0-1.2,0.9-2,2.5-2c1.5,0,2.5,0.8,2.5,2c0,0.9-0.6,1.6-1.4,1.8    C416.7,95,417,95.1,417.3,95.3z M413.3,96.8c0,0.9,0.7,1.5,2,1.5c0.7,0,1.3-0.2,1.6-0.5c0.2-0.2,0.4-0.6,0.4-1c0-1-0.7-1.6-2-1.6    S413.3,95.9,413.3,96.8z M413.6,93.2c0,0.9,0.6,1.4,1.7,1.4s1.7-0.5,1.7-1.4c0-0.8-0.7-1.4-1.7-1.4    C414.3,91.8,413.6,92.3,413.6,93.2z" fill="#666666" id="path_3" tag_name="svg/g_11/g_15/path_3"/>
    </g>
    <g id="g_14" tag_name="svg/g_11/g_14">
      <path d="M404.7,49.7c0.3,0,0.4,0,0.8,0h0.6c0.3,0,0.5,0,0.8,0c-0.1,0.6-0.1,1.1-0.1,1.7v4.9c0,0.5,0,0.8,0.1,1.1H406    c0.1-0.3,0.1-0.7,0.1-1.1v-5.8h-0.5c-0.3,0-0.6,0-0.9,0.1V49.7z" fill="#666666" id="path_2" tag_name="svg/g_11/g_14/path_2"/>
      <path d="M411.3,56.3v1h-1v-1H411.3z" fill="#666666" id="path_1" tag_name="svg/g_11/g_14/path_1"/>
      <path d="M413.5,56.7c-0.3-0.3-0.5-0.6-0.6-0.9c-0.2-0.7-0.4-1.5-0.4-2.3c0-1.1,0.2-2.1,0.6-2.7    c0.5-0.8,1.2-1.2,2.2-1.2c0.7,0,1.4,0.2,1.8,0.7c0.3,0.3,0.5,0.6,0.6,0.9c0.2,0.7,0.4,1.5,0.4,2.3c0,1.2-0.3,2.3-0.7,2.9    c-0.5,0.7-1.2,1-2.1,1C414.6,57.4,413.9,57.2,413.5,56.7z M414,50.8c-0.2,0.2-0.4,0.5-0.5,0.7c-0.2,0.6-0.3,1.3-0.3,2    c0,0.9,0.2,1.9,0.5,2.4c0.3,0.6,0.9,0.9,1.5,0.9c0.5,0,0.9-0.2,1.2-0.5c0.2-0.2,0.4-0.5,0.5-0.8c0.2-0.6,0.3-1.3,0.3-2    c0-0.9-0.2-1.9-0.4-2.3c-0.3-0.6-0.9-0.9-1.6-0.9C414.8,50.3,414.4,50.4,414,50.8z" fill="#666666" id="path" tag_name="svg/g_11/g_14/path"/>
    </g>
    <line x1="423.6" y1="261.6" x2="423.6" y2="53.2" fill="none" stroke="#333333" stroke-miterlimit="10" id="line_5" tag_name="svg/g_11/line_5"/>
    <g id="g_12" tag_name="svg/g_11/g_12">
      <g id="g_13" tag_name="svg/g_11/g_12/g_13">
        <line x1="423.6" y1="220" x2="428.8" y2="220" fill="none" stroke="#333333" stroke-miterlimit="10" id="line_4" tag_name="svg/g_11/g_12/g_13/line_4"/>
        <line x1="423.6" y1="178.4" x2="428.8" y2="178.4" fill="none" stroke="#333333" stroke-miterlimit="10" id="line_3" tag_name="svg/g_11/g_12/g_13/line_3"/>
        <line x1="423.6" y1="136.9" x2="428.8" y2="136.9" fill="none" stroke="#333333" stroke-miterlimit="10" id="line_2" tag_name="svg/g_11/g_12/g_13/line_2"/>
        <line x1="423.6" y1="95.3" x2="428.8" y2="95.3" fill="none" stroke="#333333" stroke-miterlimit="10" id="line_1" tag_name="svg/g_11/g_12/g_13/line_1"/>
        <line x1="423.6" y1="53.7" x2="428.8" y2="53.7" fill="none" stroke="#333333" stroke-miterlimit="10" id="line" tag_name="svg/g_11/g_12/g_13/line"/>
      </g>
    </g>
  </g>
  <g id="g" tag_name="svg/g">
    <circle cx="112.9" cy="209.2" r="2.6" fill="#FF0000" id="circle_43" tag_name="svg/g/circle_43"/>
    <circle cx="94.6" cy="229.9" r="2.6" fill="#FF0000" id="circle_42" tag_name="svg/g/circle_42"/>
    <circle cx="142.1" cy="223.9" r="2.6" fill="#FF0000" id="circle_41" tag_name="svg/g/circle_41"/>
    <circle cx="159.4" cy="185.9" r="2.6" fill="#FF0000" id="circle_40" tag_name="svg/g/circle_40"/>
    <circle cx="158.5" cy="153.1" r="2.6" fill="#FF0000" id="circle_39" tag_name="svg/g/circle_39"/>
    <circle cx="187.9" cy="183.3" r="2.6" fill="#FF0000" id="circle_38" tag_name="svg/g/circle_38"/>
    <circle cx="454.4" cy="236.8" r="2.6" fill="#FF0000" id="circle_37" tag_name="svg/g/circle_37"/>
    <circle cx="460.4" cy="167.7" r="2.6" fill="#FF0000" id="circle_36" tag_name="svg/g/circle_36"/>
    <circle cx="516.6" cy="229.1" r="2.6" fill="#FF0000" id="circle_35" tag_name="svg/g/circle_35"/>
    <circle cx="507.9" cy="149.6" r="2.6" fill="#FF0000" id="circle_34" tag_name="svg/g/circle_34"/>
    <circle cx="577.9" cy="213.5" r="2.6" fill="#FF0000" id="circle_33" tag_name="svg/g/circle_33"/>
    <circle cx="548.5" cy="95.2" r="2.6" fill="#FF0000" id="circle_32" tag_name="svg/g/circle_32"/>
    <circle cx="599.5" cy="161.7" r="2.6" fill="#FF0000" id="circle_31" tag_name="svg/g/circle_31"/>
    <circle cx="592.6" cy="102.1" r="2.6" fill="#FF0000" id="circle_30" tag_name="svg/g/circle_30"/>
    <circle cx="626.3" cy="134" r="2.6" fill="#FF0000" id="circle_29" tag_name="svg/g/circle_29"/>
    <circle cx="626.3" cy="126.3" r="2.6" fill="#FF0000" id="circle_28" tag_name="svg/g/circle_28"/>
    <circle cx="626.3" cy="65.8" r="2.6" fill="#FF0000" id="circle_27" tag_name="svg/g/circle_27"/>
    <circle cx="617.6" cy="236" r="2.6" fill="#FF0000" id="circle_26" tag_name="svg/g/circle_26"/>
    <circle cx="539" cy="162.6" r="2.6" fill="#FF0000" id="circle_25" tag_name="svg/g/circle_25"/>
    <circle cx="548.5" cy="134.9" r="2.6" fill="#FF0000" id="circle_24" tag_name="svg/g/circle_24"/>
    <circle cx="614.2" cy="95.2" r="2.6" fill="#FF0000" id="circle_23" tag_name="svg/g/circle_23"/>
    <circle cx="645.3" cy="77" r="2.6" fill="#FF0000" id="circle_22" tag_name="svg/g/circle_22"/>
    <circle cx="500.1" cy="204" r="2.6" fill="#FF0000" id="circle_21" tag_name="svg/g/circle_21"/>
    <circle cx="524.3" cy="202.3" r="2.6" fill="#FF0000" id="circle_20" tag_name="svg/g/circle_20"/>
    <circle cx="564.9" cy="138.4" r="2.6" fill="#FF0000" id="circle_19" tag_name="svg/g/circle_19"/>
    <circle cx="565.8" cy="179" r="2.6" fill="#FF0000" id="circle_18" tag_name="svg/g/circle_18"/>
    <circle cx="495.8" cy="182.4" r="2.6" fill="#FF0000" id="circle_17" tag_name="svg/g/circle_17"/>
    <circle cx="472.5" cy="217" r="2.6" fill="#FF0000" id="circle_16" tag_name="svg/g/circle_16"/>
    <circle cx="179.2" cy="161.7" r="2.6" fill="#FF0000" id="circle_15" tag_name="svg/g/circle_15"/>
    <circle cx="111" cy="226.5" r="2.6" fill="#FF0000" id="circle_14" tag_name="svg/g/circle_14"/>
    <circle cx="85.9" cy="248.1" r="2.6" fill="#FF0000" id="circle_13" tag_name="svg/g/circle_13"/>
    <circle cx="224.2" cy="156.5" r="2.6" fill="#FF0000" id="circle_12" tag_name="svg/g/circle_12"/>
    <circle cx="256.1" cy="130.6" r="2.6" fill="#FF0000" id="circle_11" tag_name="svg/g/circle_11"/>
    <circle cx="217.2" cy="132.3" r="2.6" fill="#FF0000" id="circle_10" tag_name="svg/g/circle_10"/>
    <circle cx="258.7" cy="115.9" r="2.6" fill="#FF0000" id="circle_9" tag_name="svg/g/circle_9"/>
    <circle cx="288.1" cy="112.5" r="2.6" fill="#FF0000" id="circle_8" tag_name="svg/g/circle_8"/>
    <circle cx="302.8" cy="122" r="2.6" fill="#FF0000" id="circle_7" tag_name="svg/g/circle_7"/>
    <circle cx="289.8" cy="90" r="2.6" fill="#FF0000" id="circle_6" tag_name="svg/g/circle_6"/>
    <circle cx="313.1" cy="57.2" r="2.6" fill="#FF0000" id="circle_5" tag_name="svg/g/circle_5"/>
    <circle cx="243.2" cy="162.6" r="2.6" fill="#FF0000" id="circle_4" tag_name="svg/g/circle_4"/>
    <circle cx="199.1" cy="143.6" r="2.6" fill="#FF0000" id="circle_3" tag_name="svg/g/circle_3"/>
    <circle cx="149" cy="198" r="2.6" fill="#FF0000" id="circle_2" tag_name="svg/g/circle_2"/>
    <circle cx="126.5" cy="190.2" r="2.6" fill="#FF0000" id="circle_1" tag_name="svg/g/circle_1"/>
    <circle cx="314.9" cy="80.5" r="2.6" fill="#FF0000" id="circle" tag_name="svg/g/circle"/>
    <g id="g_10" tag_name="svg/g/g_10">
	</g>
    <g id="g_9" tag_name="svg/g/g_9">
	</g>
    <g id="g_8" tag_name="svg/g/g_8">
	</g>
    <g id="g_7" tag_name="svg/g/g_7">
	</g>
    <g id="g_6" tag_name="svg/g/g_6">
	</g>
    <g id="g_5" tag_name="svg/g/g_5">
	</g>
    <g id="g_4" tag_name="svg/g/g_4">
	</g>
    <g id="g_3" tag_name="svg/g/g_3">
	</g>
    <g id="g_2" tag_name="svg/g/g_2">
	</g>
    <g id="g_1" tag_name="svg/g/g_1">
	</g>
  </g>
</svg>