<?xml version='1.0' encoding='UTF-8'?>
<svg width="900" height="340" viewBox="-70,-30,880,340" style="max-width: 100%; height: auto; font: 10px sans-serif;" id="svg" tag_name="svg">
  <g id="g_11" tag_name="svg/g_11">
    <polyline points="201.8,64.8 201.8,47 528,47 528,108.8  " fill="none" stroke="#B3B3B3" id="polyline_25" tag_name="svg/g_11/polyline_25"/>
    <line x1="364.2" y1="28.8" x2="364.2" y2="65.5" fill="none" stroke="#B3B3B3" id="line_15" tag_name="svg/g_11/line_15"/>
    <line x1="486.7" y1="198.1" x2="486.7" y2="47.2" fill="none" stroke="#B3B3B3" id="line_14" tag_name="svg/g_11/line_14"/>
    <line x1="446.2" y1="64.5" x2="446.2" y2="47.2" fill="none" stroke="#B3B3B3" id="line_13" tag_name="svg/g_11/line_13"/>
    <line x1="405.3" y1="64.5" x2="405.3" y2="47.2" fill="none" stroke="#B3B3B3" id="line_12" tag_name="svg/g_11/line_12"/>
    <line x1="323.7" y1="47.2" x2="323.7" y2="242.8" fill="none" stroke="#B3B3B3" id="line_11" tag_name="svg/g_11/line_11"/>
    <line x1="283.3" y1="65" x2="283.3" y2="46.5" fill="none" stroke="#B3B3B3" id="line_10" tag_name="svg/g_11/line_10"/>
    <line x1="242.2" y1="109.8" x2="242.2" y2="46.5" fill="none" stroke="#B3B3B3" id="line_9" tag_name="svg/g_11/line_9"/>
    <line x1="201.5" y1="72.2" x2="201.5" y2="110.8" fill="none" stroke="#B3B3B3" id="line_8" tag_name="svg/g_11/line_8"/>
    <polyline points="201.5,89.8 118.6,89.8 118.6,222.5  " fill="none" stroke="#B3B3B3" id="polyline_24" tag_name="svg/g_11/polyline_24"/>
    <polyline points="282.4,267 282.4,89.8 364.7,89.8 364.7,199.2  " fill="none" stroke="#B3B3B3" id="polyline_23" tag_name="svg/g_11/polyline_23"/>
    <polyline points="446.7,153.2 446.7,89.8 486.8,89.8  " fill="none" stroke="#B3B3B3" id="polyline_22" tag_name="svg/g_11/polyline_22"/>
    <line x1="159.5" y1="155.5" x2="159.5" y2="89.5" fill="none" stroke="#B3B3B3" id="line_7" tag_name="svg/g_11/line_7"/>
    <polyline points="528,89.8 651.7,89.8 651.7,110  " fill="none" stroke="#B3B3B3" id="polyline_21" tag_name="svg/g_11/polyline_21"/>
    <line x1="569.7" y1="109.2" x2="569.7" y2="89.5" fill="none" stroke="#B3B3B3" id="line_6" tag_name="svg/g_11/line_6"/>
    <line x1="610.7" y1="154.2" x2="610.7" y2="89.8" fill="none" stroke="#B3B3B3" id="line_5" tag_name="svg/g_11/line_5"/>
    <polyline points="118.8,134.5 35.8,134.5 35.8,152.8  " fill="none" stroke="#B3B3B3" id="polyline_20" tag_name="svg/g_11/polyline_20"/>
    <polyline points="76.5,134.8 76.5,222.5 35.8,222.5 35.8,241.8  " fill="none" stroke="#B3B3B3" id="polyline_19" tag_name="svg/g_11/polyline_19"/>
    <polyline points="159.2,134.5 200.4,134.5 200.4,286.7  " fill="none" stroke="#B3B3B3" id="polyline_18" tag_name="svg/g_11/polyline_18"/>
    <polyline points="364.6,134.5 405.7,134.5 405.7,153.8  " fill="none" stroke="#B3B3B3" id="polyline_17" tag_name="svg/g_11/polyline_17"/>
    <polyline points="652.7,199.8 652.7,134.5 570,134.5 570,222.2  " fill="none" stroke="#B3B3B3" id="polyline_16" tag_name="svg/g_11/polyline_16"/>
    <polyline points="101.2,286.5 101.2,222.1 134.2,222.2 134.2,242.8  " fill="none" stroke="#B3B3B3" id="polyline_15" tag_name="svg/g_11/polyline_15"/>
    <line x1="68.8" y1="241.4" x2="68.8" y2="222.2" fill="none" stroke="#B3B3B3" id="line_4" tag_name="svg/g_11/line_4"/>
    <polyline points="35.5,249.7 35.5,266.7 68.5,266.7 68.5,286.7  " fill="none" stroke="#B3B3B3" id="polyline_14" tag_name="svg/g_11/polyline_14"/>
    <line x1="35.5" y1="264.5" x2="35.5" y2="286.8" fill="none" stroke="#B3B3B3" id="line_3" tag_name="svg/g_11/line_3"/>
    <polyline points="167.5,286.3 167.5,222.3 233.3,222.3 233.3,286  " fill="none" stroke="#B3B3B3" id="polyline_13" tag_name="svg/g_11/polyline_13"/>
    <polyline points="282.5,178.2 241.2,178.2 241.2,199.2  " fill="none" stroke="#B3B3B3" id="polyline_12" tag_name="svg/g_11/polyline_12"/>
    <polyline points="299,287.5 299,267 266,267 266,288.8  " fill="none" stroke="#B3B3B3" id="polyline_11" tag_name="svg/g_11/polyline_11"/>
    <polyline points="323.8,222.5 361,222.5 361,265.8  " fill="none" stroke="#B3B3B3" id="polyline_10" tag_name="svg/g_11/polyline_10"/>
    <polyline points="376.5,288.2 376.5,265.8 343.5,265.8 343.5,286.5  " fill="none" stroke="#B3B3B3" id="polyline_9" tag_name="svg/g_11/polyline_9"/>
    <polyline points="447,222.2 447,179.5 529.5,179.5 529.5,198.5  " fill="none" stroke="#B3B3B3" id="polyline_8" tag_name="svg/g_11/polyline_8"/>
    <polyline points="652.5,178.2 693.6,178.2 693.6,287.8  " fill="none" stroke="#B3B3B3" id="polyline_7" tag_name="svg/g_11/polyline_7"/>
    <polyline points="397.5,242.2 397.5,222.2 496.2,222.2 496.2,286.8  " fill="none" stroke="#B3B3B3" id="polyline_6" tag_name="svg/g_11/polyline_6"/>
    <line x1="430.3" y1="286.6" x2="430.3" y2="221.9" fill="none" stroke="#B3B3B3" id="line_2" tag_name="svg/g_11/line_2"/>
    <line x1="462.8" y1="286.5" x2="462.8" y2="222.2" fill="none" stroke="#B3B3B3" id="line_1" tag_name="svg/g_11/line_1"/>
    <polyline points="496.2,266.3 528.7,266.3 528.7,286.2  " fill="none" stroke="#B3B3B3" id="polyline_5" tag_name="svg/g_11/polyline_5"/>
    <polyline points="553.8,242 553.8,222.3 587.3,222.3 587.3,266  " fill="none" stroke="#B3B3B3" id="polyline_4" tag_name="svg/g_11/polyline_4"/>
    <polyline points="693.5,266.2 628,266.2 628,287.7  " fill="none" stroke="#B3B3B3" id="polyline_3" tag_name="svg/g_11/polyline_3"/>
    <line x1="660.5" y1="266.2" x2="660.5" y2="287.2" fill="none" stroke="#B3B3B3" id="line" tag_name="svg/g_11/line"/>
    <polyline points="652.8,205 652.8,222.5 627.8,222.5 627.8,242  " fill="none" stroke="#B3B3B3" id="polyline_2" tag_name="svg/g_11/polyline_2"/>
    <polyline points="660.7,241.3 660.7,222.5 652.9,222.5  " fill="none" stroke="#B3B3B3" id="polyline_1" tag_name="svg/g_11/polyline_1"/>
    <polyline points="595,287.7 595,266.2 562.5,266.2 562.5,288.5  " fill="none" stroke="#B3B3B3" id="polyline" tag_name="svg/g_11/polyline"/>
  </g>
  <g id="g" tag_name="svg/g">
    <rect x="353.5" y="20" width="22" height="9" fill="#ff3131" id="rect_87" tag_name="svg/g/rect_87"/>
    <rect x="353.5" y="64.2" width="22" height="9" fill="#ff3131" id="rect_86" tag_name="svg/g/rect_86"/>
    <rect x="312.8" y="64.2" width="22" height="9" fill="#ff3131" id="rect_85" tag_name="svg/g/rect_85"/>
    <rect x="394.3" y="64.2" width="22" height="9" fill="#ff3131" id="rect_84" tag_name="svg/g/rect_84"/>
    <rect x="475.8" y="64.2" width="22" height="9" fill="#ff3131" id="rect_83" tag_name="svg/g/rect_83"/>
    <rect x="435" y="64.2" width="22" height="9" fill="#ff3131" id="rect_82" tag_name="svg/g/rect_82"/>
    <rect x="516.5" y="64.2" width="22" height="9" fill="#ff3131" id="rect_81" tag_name="svg/g/rect_81"/>
    <rect x="231.3" y="64.2" width="22" height="9" fill="#ff3131" id="rect_80" tag_name="svg/g/rect_80"/>
    <rect x="190.5" y="64.2" width="22" height="9" fill="#ff3131" id="rect_79" tag_name="svg/g/rect_79"/>
    <rect x="272" y="64.2" width="22" height="9" fill="#ff3131" id="rect_78" tag_name="svg/g/rect_78"/>
    <rect x="353.5" y="108.3" width="22" height="9" fill="#ff3131" id="rect_77" tag_name="svg/g/rect_77"/>
    <rect x="312.5" y="108.3" width="22" height="9" fill="#ff3131" id="rect_76" tag_name="svg/g/rect_76"/>
    <rect x="475.8" y="108.3" width="22" height="9" fill="#ff3131" id="rect_75" tag_name="svg/g/rect_75"/>
    <rect x="435.5" y="108.3" width="22" height="9" fill="#ff3131" id="rect_74" tag_name="svg/g/rect_74"/>
    <rect x="516.8" y="108.3" width="22" height="9" fill="#ff3131" id="rect_73" tag_name="svg/g/rect_73"/>
    <rect x="599.5" y="108.3" width="22" height="9" fill="#ff3131" id="rect_72" tag_name="svg/g/rect_72"/>
    <rect x="558.5" y="108.3" width="22" height="9" fill="#ff3131" id="rect_71" tag_name="svg/g/rect_71"/>
    <rect x="640.5" y="108.3" width="22" height="9" fill="#ff3131" id="rect_70" tag_name="svg/g/rect_70"/>
    <rect x="230.5" y="108.3" width="22" height="9" fill="#ff3131" id="rect_69" tag_name="svg/g/rect_69"/>
    <rect x="189.5" y="108.3" width="22" height="9" fill="#ff3131" id="rect_68" tag_name="svg/g/rect_68"/>
    <rect x="271.5" y="108.3" width="22" height="9" fill="#ff3131" id="rect_67" tag_name="svg/g/rect_67"/>
    <rect x="107.5" y="108.3" width="22" height="9" fill="#ff3131" id="rect_66" tag_name="svg/g/rect_66"/>
    <rect x="148.5" y="108.3" width="22" height="9" fill="#ff3131" id="rect_65" tag_name="svg/g/rect_65"/>
    <rect x="353.5" y="152.5" width="22" height="9" fill="#ff3131" id="rect_64" tag_name="svg/g/rect_64"/>
    <rect x="312.4" y="152.5" width="22" height="9" fill="#ff3131" id="rect_63" tag_name="svg/g/rect_63"/>
    <rect x="394.6" y="152.5" width="22" height="9" fill="#ff3131" id="rect_62" tag_name="svg/g/rect_62"/>
    <rect x="475.4" y="152.5" width="22" height="9" fill="#ff3131" id="rect_61" tag_name="svg/g/rect_61"/>
    <rect x="435.8" y="152.5" width="22" height="9" fill="#ff3131" id="rect_60" tag_name="svg/g/rect_60"/>
    <rect x="600.2" y="152.5" width="22" height="9" fill="#ff3131" id="rect_59" tag_name="svg/g/rect_59"/>
    <rect x="559.1" y="152.5" width="22" height="9" fill="#ff3131" id="rect_58" tag_name="svg/g/rect_58"/>
    <rect x="641.4" y="152.5" width="22" height="9" fill="#ff3131" id="rect_57" tag_name="svg/g/rect_57"/>
    <rect x="189" y="152.5" width="22" height="9" fill="#ff3131" id="rect_56" tag_name="svg/g/rect_56"/>
    <rect x="271.3" y="152.5" width="22" height="9" fill="#ff3131" id="rect_55" tag_name="svg/g/rect_55"/>
    <rect x="107.8" y="152.5" width="22" height="9" fill="#ff3131" id="rect_54" tag_name="svg/g/rect_54"/>
    <rect x="65.6" y="152.5" width="22" height="9" fill="#ff3131" id="rect_53" tag_name="svg/g/rect_53"/>
    <rect x="24.5" y="152.5" width="22" height="9" fill="#ff3131" id="rect_52" tag_name="svg/g/rect_52"/>
    <rect x="147.9" y="152.5" width="22" height="9" fill="#ff3131" id="rect_51" tag_name="svg/g/rect_51"/>
    <rect x="353.5" y="196.7" width="22" height="9" fill="#ff3131" id="rect_50" tag_name="svg/g/rect_50"/>
    <rect x="312.4" y="196.7" width="22" height="9" fill="#ff3131" id="rect_49" tag_name="svg/g/rect_49"/>
    <rect x="475.6" y="196.7" width="22" height="9" fill="#ff3131" id="rect_48" tag_name="svg/g/rect_48"/>
    <rect x="435.8" y="196.7" width="22" height="9" fill="#ff3131" id="rect_47" tag_name="svg/g/rect_47"/>
    <rect x="518" y="196.7" width="22" height="9" fill="#ff3131" id="rect_46" tag_name="svg/g/rect_46"/>
    <rect x="559.1" y="196.7" width="22" height="9" fill="#ff3131" id="rect_45" tag_name="svg/g/rect_45"/>
    <rect x="641.4" y="196.7" width="22" height="9" fill="#ff3131" id="rect_44" tag_name="svg/g/rect_44"/>
    <rect x="682.5" y="196.7" width="22" height="9" fill="#ff3131" id="rect_43" tag_name="svg/g/rect_43"/>
    <rect x="230.1" y="196.7" width="22" height="9" fill="#ff3131" id="rect_42" tag_name="svg/g/rect_42"/>
    <rect x="189" y="196.7" width="22" height="9" fill="#ff3131" id="rect_41" tag_name="svg/g/rect_41"/>
    <rect x="271.3" y="196.7" width="22" height="9" fill="#ff3131" id="rect_40" tag_name="svg/g/rect_40"/>
    <rect x="107.8" y="196.7" width="22" height="9" fill="#ff3131" id="rect_39" tag_name="svg/g/rect_39"/>
    <rect x="65.6" y="196.7" width="22" height="9" fill="#ff3131" id="rect_38" tag_name="svg/g/rect_38"/>
    <rect x="349.8" y="240.8" width="22" height="9" fill="#ff3131" id="rect_37" tag_name="svg/g/rect_37"/>
    <rect x="419.3" y="240.8" width="22" height="9" fill="#ff3131" id="rect_36" tag_name="svg/g/rect_36"/>
    <rect x="312.3" y="240.8" width="22" height="9" fill="#ff3131" id="rect_35" tag_name="svg/g/rect_35"/>
    <rect x="386.4" y="240.8" width="22" height="9" fill="#ff3131" id="rect_34" tag_name="svg/g/rect_34"/>
    <rect x="452.2" y="240.8" width="22" height="9" fill="#ff3131" id="rect_33" tag_name="svg/g/rect_33"/>
    <rect x="485.1" y="240.8" width="22" height="9" fill="#ff3131" id="rect_32" tag_name="svg/g/rect_32"/>
    <rect x="543.1" y="240.8" width="22" height="9" fill="#ff3131" id="rect_31" tag_name="svg/g/rect_31"/>
    <rect x="616.7" y="240.8" width="22" height="9" fill="#ff3131" id="rect_30" tag_name="svg/g/rect_30"/>
    <rect x="576" y="240.8" width="22" height="9" fill="#ff3131" id="rect_29" tag_name="svg/g/rect_29"/>
    <rect x="649.6" y="240.8" width="22" height="9" fill="#ff3131" id="rect_28" tag_name="svg/g/rect_28"/>
    <rect x="682.5" y="240.8" width="22" height="9" fill="#ff3131" id="rect_27" tag_name="svg/g/rect_27"/>
    <rect x="221.9" y="240.8" width="22" height="9" fill="#ff3131" id="rect_26" tag_name="svg/g/rect_26"/>
    <rect x="189" y="240.8" width="22" height="9" fill="#ff3131" id="rect_25" tag_name="svg/g/rect_25"/>
    <rect x="271.2" y="240.8" width="22" height="9" fill="#ff3131" id="rect_24" tag_name="svg/g/rect_24"/>
    <rect x="90.3" y="240.8" width="22" height="9" fill="#ff3131" id="rect_23" tag_name="svg/g/rect_23"/>
    <rect x="57.4" y="240.8" width="22" height="9" fill="#ff3131" id="rect_22" tag_name="svg/g/rect_22"/>
    <rect x="24.5" y="240.8" width="22" height="9" fill="#ff3131" id="rect_21" tag_name="svg/g/rect_21"/>
    <rect x="123.2" y="240.8" width="22" height="9" fill="#ff3131" id="rect_20" tag_name="svg/g/rect_20"/>
    <rect x="156.1" y="240.8" width="22" height="9" fill="#ff3131" id="rect_19" tag_name="svg/g/rect_19"/>
    <rect x="365.5" y="285" width="22" height="9" fill="#ff3131" id="rect_18" tag_name="svg/g/rect_18"/>
    <rect x="419.3" y="285" width="22" height="9" fill="#ff3131" id="rect_17" tag_name="svg/g/rect_17"/>
    <rect x="332.6" y="285" width="22" height="9" fill="#ff3131" id="rect_16" tag_name="svg/g/rect_16"/>
    <rect x="518" y="285" width="22" height="9" fill="#ff3131" id="rect_15" tag_name="svg/g/rect_15"/>
    <rect x="452.2" y="285" width="22" height="9" fill="#ff3131" id="rect_14" tag_name="svg/g/rect_14"/>
    <rect x="485.1" y="285" width="22" height="9" fill="#ff3131" id="rect_13" tag_name="svg/g/rect_13"/>
    <rect x="550.9" y="285" width="22" height="9" fill="#ff3131" id="rect_12" tag_name="svg/g/rect_12"/>
    <rect x="616.7" y="285" width="22" height="9" fill="#ff3131" id="rect_11" tag_name="svg/g/rect_11"/>
    <rect x="583.8" y="285" width="22" height="9" fill="#ff3131" id="rect_10" tag_name="svg/g/rect_10"/>
    <rect x="649.6" y="285" width="22" height="9" fill="#ff3131" id="rect_9" tag_name="svg/g/rect_9"/>
    <rect x="682.5" y="285" width="22" height="9" fill="#ff3131" id="rect_8" tag_name="svg/g/rect_8"/>
    <rect x="221.9" y="285" width="22" height="9" fill="#ff3131" id="rect_7" tag_name="svg/g/rect_7"/>
    <rect x="189" y="285" width="22" height="9" fill="#ff3131" id="rect_6" tag_name="svg/g/rect_6"/>
    <rect x="254.8" y="285" width="22" height="9" fill="#ff3131" id="rect_5" tag_name="svg/g/rect_5"/>
    <rect x="287.7" y="285" width="22" height="9" fill="#ff3131" id="rect_4" tag_name="svg/g/rect_4"/>
    <rect x="90.3" y="285" width="22" height="9" fill="#ff3131" id="rect_3" tag_name="svg/g/rect_3"/>
    <rect x="57.4" y="285" width="22" height="9" fill="#ff3131" id="rect_2" tag_name="svg/g/rect_2"/>
    <rect x="24.5" y="285" width="22" height="9" fill="#ff3131" id="rect_1" tag_name="svg/g/rect_1"/>
    <rect x="156.1" y="285" width="22" height="9" fill="#ff3131" id="rect" tag_name="svg/g/rect"/>
    <g id="g_10" tag_name="svg/g/g_10">
	</g>
    <g id="g_9" tag_name="svg/g/g_9">
	</g>
    <g id="g_8" tag_name="svg/g/g_8">
	</g>
    <g id="g_7" tag_name="svg/g/g_7">
	</g>
    <g id="g_6" tag_name="svg/g/g_6">
	</g>
    <g id="g_5" tag_name="svg/g/g_5">
	</g>
    <g id="g_4" tag_name="svg/g/g_4">
	</g>
    <g id="g_3" tag_name="svg/g/g_3">
	</g>
    <g id="g_2" tag_name="svg/g/g_2">
	</g>
    <g id="g_1" tag_name="svg/g/g_1">
	</g>
  </g>
</svg>