<?xml version='1.0' encoding='UTF-8'?>
<svg width="900" height="340" viewBox="-70,-30,880,340" style="max-width: 100%; height: auto; font: 10px sans-serif;" id="svg" tag_name="svg">
  <g id="g_99" tag_name="svg/g_99">
    <line x1="20.5" y1="20.4" x2="710.5" y2="20.4" fill="none" stroke="#CCCCCC" stroke-width="0.75" id="line_164" tag_name="svg/g_99/line_164"/>
    <line x1="20.5" y1="285.6" x2="710.5" y2="285.6" fill="none" stroke="#CCCCCC" stroke-width="0.75" id="line_163" tag_name="svg/g_99/line_163"/>
    <line x1="20.5" y1="263.5" x2="710.5" y2="263.5" fill="none" stroke="#CCCCCC" stroke-width="0.75" id="line_162" tag_name="svg/g_99/line_162"/>
    <line x1="20.5" y1="241.4" x2="710.5" y2="241.4" fill="none" stroke="#CCCCCC" stroke-width="0.75" id="line_161" tag_name="svg/g_99/line_161"/>
    <line x1="20.5" y1="219.3" x2="710.5" y2="219.3" fill="none" stroke="#CCCCCC" stroke-width="0.75" id="line_160" tag_name="svg/g_99/line_160"/>
    <line x1="20.5" y1="197.2" x2="710.5" y2="197.2" fill="none" stroke="#CCCCCC" stroke-width="0.75" id="line_159" tag_name="svg/g_99/line_159"/>
    <line x1="20.5" y1="175.1" x2="710.5" y2="175.1" fill="none" stroke="#CCCCCC" stroke-width="0.75" id="line_158" tag_name="svg/g_99/line_158"/>
    <line x1="20.5" y1="153" x2="710.5" y2="153" fill="none" stroke="#CCCCCC" stroke-width="0.75" id="line_157" tag_name="svg/g_99/line_157"/>
    <line x1="20.5" y1="130.9" x2="710.5" y2="130.9" fill="none" stroke="#CCCCCC" stroke-width="0.75" id="line_156" tag_name="svg/g_99/line_156"/>
    <line x1="20.5" y1="108.8" x2="710.5" y2="108.8" fill="none" stroke="#CCCCCC" stroke-width="0.75" id="line_155" tag_name="svg/g_99/line_155"/>
    <line x1="20.5" y1="86.7" x2="710.5" y2="86.7" fill="none" stroke="#CCCCCC" stroke-width="0.75" id="line_154" tag_name="svg/g_99/line_154"/>
    <line x1="20.5" y1="64.6" x2="710.5" y2="64.6" fill="none" stroke="#CCCCCC" stroke-width="0.75" id="line_153" tag_name="svg/g_99/line_153"/>
    <line x1="20.5" y1="42.5" x2="710.5" y2="42.5" fill="none" stroke="#CCCCCC" stroke-width="0.75" id="line_152" tag_name="svg/g_99/line_152"/>
    <line x1="681.8" y1="20.4" x2="681.8" y2="285.4" fill="none" stroke="#CCCCCC" stroke-width="0.75" id="line_151" tag_name="svg/g_99/line_151"/>
    <line x1="660" y1="20.4" x2="660" y2="285.4" fill="none" stroke="#CCCCCC" stroke-width="0.75" id="line_150" tag_name="svg/g_99/line_150"/>
    <line x1="638.1" y1="20.4" x2="638.1" y2="285.4" fill="none" stroke="#CCCCCC" stroke-width="0.75" id="line_149" tag_name="svg/g_99/line_149"/>
    <line x1="616.3" y1="20.4" x2="616.3" y2="285.4" fill="none" stroke="#CCCCCC" stroke-width="0.75" id="line_148" tag_name="svg/g_99/line_148"/>
    <line x1="594.4" y1="20.4" x2="594.4" y2="285.4" fill="none" stroke="#CCCCCC" stroke-width="0.75" id="line_147" tag_name="svg/g_99/line_147"/>
    <line x1="572.6" y1="20.4" x2="572.6" y2="285.4" fill="none" stroke="#CCCCCC" stroke-width="0.75" id="line_146" tag_name="svg/g_99/line_146"/>
    <line x1="550.7" y1="20.4" x2="550.7" y2="285.4" fill="none" stroke="#CCCCCC" stroke-width="0.75" id="line_145" tag_name="svg/g_99/line_145"/>
    <line x1="528.9" y1="20.4" x2="528.9" y2="285.4" fill="none" stroke="#CCCCCC" stroke-width="0.75" id="line_144" tag_name="svg/g_99/line_144"/>
    <line x1="507" y1="20.4" x2="507" y2="285.4" fill="none" stroke="#CCCCCC" stroke-width="0.75" id="line_143" tag_name="svg/g_99/line_143"/>
    <line x1="485.2" y1="20.4" x2="485.2" y2="285.4" fill="none" stroke="#CCCCCC" stroke-width="0.75" id="line_142" tag_name="svg/g_99/line_142"/>
    <line x1="463.3" y1="20.4" x2="463.3" y2="285.4" fill="none" stroke="#CCCCCC" stroke-width="0.75" id="line_141" tag_name="svg/g_99/line_141"/>
    <line x1="441.5" y1="20.4" x2="441.5" y2="285.4" fill="none" stroke="#CCCCCC" stroke-width="0.75" id="line_140" tag_name="svg/g_99/line_140"/>
    <line x1="419.6" y1="20.4" x2="419.6" y2="285.4" fill="none" stroke="#CCCCCC" stroke-width="0.75" id="line_139" tag_name="svg/g_99/line_139"/>
    <line x1="397.8" y1="20.4" x2="397.8" y2="285.4" fill="none" stroke="#CCCCCC" stroke-width="0.75" id="line_138" tag_name="svg/g_99/line_138"/>
    <line x1="375.9" y1="20.4" x2="375.9" y2="285.4" fill="none" stroke="#CCCCCC" stroke-width="0.75" id="line_137" tag_name="svg/g_99/line_137"/>
    <line x1="354.1" y1="20.4" x2="354.1" y2="285.4" fill="none" stroke="#CCCCCC" stroke-width="0.75" id="line_136" tag_name="svg/g_99/line_136"/>
    <line x1="332.2" y1="20.4" x2="332.2" y2="285.4" fill="none" stroke="#CCCCCC" stroke-width="0.75" id="line_135" tag_name="svg/g_99/line_135"/>
    <line x1="310.4" y1="20.4" x2="310.4" y2="285.4" fill="none" stroke="#CCCCCC" stroke-width="0.75" id="line_134" tag_name="svg/g_99/line_134"/>
    <line x1="288.5" y1="20.4" x2="288.5" y2="285.4" fill="none" stroke="#CCCCCC" stroke-width="0.75" id="line_133" tag_name="svg/g_99/line_133"/>
    <line x1="266.7" y1="20.4" x2="266.7" y2="285.4" fill="none" stroke="#CCCCCC" stroke-width="0.75" id="line_132" tag_name="svg/g_99/line_132"/>
    <line x1="244.8" y1="20.4" x2="244.8" y2="285.4" fill="none" stroke="#CCCCCC" stroke-width="0.75" id="line_131" tag_name="svg/g_99/line_131"/>
    <line x1="223" y1="20.4" x2="223" y2="285.4" fill="none" stroke="#CCCCCC" stroke-width="0.75" id="line_130" tag_name="svg/g_99/line_130"/>
    <line x1="201.1" y1="20.4" x2="201.1" y2="285.4" fill="none" stroke="#CCCCCC" stroke-width="0.75" id="line_129" tag_name="svg/g_99/line_129"/>
    <line x1="179.3" y1="20.4" x2="179.3" y2="285.4" fill="none" stroke="#CCCCCC" stroke-width="0.75" id="line_128" tag_name="svg/g_99/line_128"/>
    <line x1="157.4" y1="20.4" x2="157.4" y2="285.4" fill="none" stroke="#CCCCCC" stroke-width="0.75" id="line_127" tag_name="svg/g_99/line_127"/>
    <line x1="135.6" y1="20.4" x2="135.6" y2="285.4" fill="none" stroke="#CCCCCC" stroke-width="0.75" id="line_126" tag_name="svg/g_99/line_126"/>
    <line x1="113.8" y1="20.4" x2="113.8" y2="285.4" fill="none" stroke="#CCCCCC" stroke-width="0.75" id="line_125" tag_name="svg/g_99/line_125"/>
    <line x1="91.9" y1="20.4" x2="91.9" y2="285.4" fill="none" stroke="#CCCCCC" stroke-width="0.75" id="line_124" tag_name="svg/g_99/line_124"/>
    <line x1="70.1" y1="20.4" x2="70.1" y2="285.4" fill="none" stroke="#CCCCCC" stroke-width="0.75" id="line_123" tag_name="svg/g_99/line_123"/>
    <line x1="48.2" y1="20.4" x2="48.2" y2="285.4" fill="none" stroke="#CCCCCC" stroke-width="0.75" id="line_122" tag_name="svg/g_99/line_122"/>
    <line x1="81" y1="285.6" x2="81" y2="292.9" fill="none" stroke="#CCCCCC" stroke-width="0.75" id="line_121" tag_name="svg/g_99/line_121"/>
    <line x1="256.2" y1="285.6" x2="256.2" y2="292.9" fill="none" stroke="#CCCCCC" stroke-width="0.75" id="line_120" tag_name="svg/g_99/line_120"/>
    <line x1="409.1" y1="285.6" x2="409.1" y2="292.9" fill="none" stroke="#CCCCCC" stroke-width="0.75" id="line_119" tag_name="svg/g_99/line_119"/>
    <line x1="605.6" y1="285.6" x2="605.6" y2="292.9" fill="none" stroke="#CCCCCC" stroke-width="0.75" id="line_118" tag_name="svg/g_99/line_118"/>
  </g>
  <g id="g_70" tag_name="svg/g_70">
    <g id="g_98" tag_name="svg/g_70/g_98">
      <path d="M19.8,277.6c0.2-0.4,0.6-0.8,1.2-1.2l0.9-0.5c0.4-0.2,0.7-0.4,0.9-0.6c0.3-0.3,0.4-0.6,0.4-0.9    c0-0.4-0.1-0.7-0.4-1c-0.2-0.2-0.6-0.4-1-0.4c-0.6,0-1,0.2-1.2,0.7c-0.1,0.2-0.2,0.6-0.2,1h-0.9c0-0.6,0.1-1.1,0.3-1.5    c0.4-0.7,1-1,2-1c0.8,0,1.4,0.2,1.7,0.6c0.4,0.4,0.5,0.9,0.5,1.4c0,0.5-0.2,1-0.6,1.4c-0.2,0.2-0.6,0.5-1.2,0.8l-0.7,0.4    c-0.3,0.2-0.6,0.3-0.7,0.5c-0.3,0.3-0.5,0.6-0.6,0.9h3.7v0.8h-4.7C19.5,278.6,19.6,278.1,19.8,277.6z" fill="#666666" id="path_127" tag_name="svg/g_70/g_98/path_127"/>
      <path d="M25.3,277.6c0.2-0.4,0.6-0.8,1.2-1.2l0.9-0.5c0.4-0.2,0.7-0.4,0.9-0.6c0.3-0.3,0.4-0.6,0.4-0.9    c0-0.4-0.1-0.7-0.4-1c-0.2-0.2-0.6-0.4-1-0.4c-0.6,0-1,0.2-1.2,0.7c-0.1,0.2-0.2,0.6-0.2,1h-0.9c0-0.6,0.1-1.1,0.3-1.5    c0.4-0.7,1-1,2-1c0.8,0,1.4,0.2,1.7,0.6c0.4,0.4,0.5,0.9,0.5,1.4c0,0.5-0.2,1-0.6,1.4c-0.2,0.2-0.6,0.5-1.2,0.8l-0.7,0.4    c-0.3,0.2-0.6,0.3-0.7,0.5c-0.3,0.3-0.5,0.6-0.6,0.9h3.7v0.8h-4.7C25,278.6,25.1,278.1,25.3,277.6z" fill="#666666" id="path_126" tag_name="svg/g_70/g_98/path_126"/>
      <path d="M30.9,278.1h1v1h-1V278.1z" fill="#666666" id="path_125" tag_name="svg/g_70/g_98/path_125"/>
      <path d="M37.4,273.4c0.3,0.6,0.5,1.3,0.5,2.3c0,0.9-0.1,1.7-0.4,2.3c-0.4,0.9-1.1,1.3-2,1.3c-0.8,0-1.4-0.4-1.8-1.1    c-0.3-0.6-0.5-1.4-0.5-2.4c0-0.8,0.1-1.4,0.3-2c0.4-1,1.1-1.6,2-1.6C36.3,272.3,37,272.7,37.4,273.4z M36.5,278    c0.3-0.4,0.4-1.1,0.4-2.2c0-0.8-0.1-1.4-0.3-1.9c-0.2-0.5-0.6-0.8-1.1-0.8c-0.5,0-0.9,0.2-1.1,0.7c-0.2,0.5-0.4,1.2-0.4,2.1    c0,0.7,0.1,1.3,0.2,1.7c0.2,0.6,0.6,1,1.2,1C35.9,278.6,36.2,278.4,36.5,278z" fill="#666666" id="path_124" tag_name="svg/g_70/g_98/path_124"/>
      <path d="M42.8,273.4c0.3,0.6,0.5,1.3,0.5,2.3c0,0.9-0.1,1.7-0.4,2.3c-0.4,0.9-1.1,1.3-2,1.3c-0.8,0-1.4-0.4-1.8-1.1    c-0.3-0.6-0.5-1.4-0.5-2.4c0-0.8,0.1-1.4,0.3-2c0.4-1,1.1-1.6,2-1.6C41.8,272.3,42.4,272.7,42.8,273.4z M42,278    c0.3-0.4,0.4-1.1,0.4-2.2c0-0.8-0.1-1.4-0.3-1.9c-0.2-0.5-0.6-0.8-1.1-0.8c-0.5,0-0.9,0.2-1.1,0.7c-0.2,0.5-0.4,1.2-0.4,2.1    c0,0.7,0.1,1.3,0.2,1.7c0.2,0.6,0.6,1,1.2,1C41.3,278.6,41.7,278.4,42,278z" fill="#666666" id="path_123" tag_name="svg/g_70/g_98/path_123"/>
    </g>
    <g id="g_97" tag_name="svg/g_70/g_97">
      <path d="M79.3,297.9c0.3,0.6,0.5,1.3,0.5,2.3c0,0.9-0.1,1.7-0.4,2.3c-0.4,0.9-1.1,1.3-2,1.3c-0.8,0-1.4-0.4-1.8-1.1    c-0.3-0.6-0.5-1.4-0.5-2.4c0-0.8,0.1-1.4,0.3-2c0.4-1,1.1-1.6,2-1.6C78.2,296.8,78.9,297.2,79.3,297.9z M78.4,302.5    c0.3-0.4,0.4-1.1,0.4-2.2c0-0.8-0.1-1.4-0.3-1.9c-0.2-0.5-0.6-0.8-1.1-0.8c-0.5,0-0.9,0.2-1.1,0.7c-0.2,0.5-0.4,1.2-0.4,2.1    c0,0.7,0.1,1.3,0.2,1.7c0.2,0.6,0.6,1,1.2,1C77.8,303.1,78.2,302.9,78.4,302.5z" fill="#666666" id="path_122" tag_name="svg/g_70/g_97/path_122"/>
      <path d="M80.9,303.2c-0.4-0.4-0.5-1-0.5-1.6h0.9c0,0.4,0.1,0.8,0.2,1c0.2,0.4,0.6,0.5,1.2,0.5c0.5,0,0.8-0.1,1.1-0.4    c0.3-0.2,0.4-0.6,0.4-0.9c0-0.5-0.1-0.8-0.4-1c-0.3-0.2-0.7-0.3-1.2-0.3c-0.1,0-0.1,0-0.2,0s-0.1,0-0.2,0v-0.8c0.1,0,0.2,0,0.2,0    c0.1,0,0.1,0,0.2,0c0.3,0,0.6-0.1,0.8-0.2c0.4-0.2,0.5-0.5,0.5-1c0-0.3-0.1-0.6-0.4-0.8c-0.2-0.2-0.5-0.3-0.8-0.3    c-0.6,0-1,0.2-1.2,0.6c-0.1,0.2-0.2,0.5-0.2,0.9h-0.9c0-0.5,0.1-0.9,0.3-1.3c0.4-0.6,1-1,1.9-1c0.7,0,1.2,0.2,1.6,0.5    c0.4,0.3,0.6,0.8,0.6,1.4c0,0.4-0.1,0.8-0.3,1c-0.1,0.2-0.3,0.3-0.5,0.4c0.4,0.1,0.6,0.3,0.8,0.6s0.3,0.6,0.3,1    c0,0.7-0.2,1.2-0.6,1.6c-0.4,0.4-1,0.6-1.8,0.6C81.9,303.9,81.3,303.7,80.9,303.2z" fill="#666666" id="path_121" tag_name="svg/g_70/g_97/path_121"/>
    </g>
    <g id="g_96" tag_name="svg/g_70/g_96">
      <path d="M255.4,297.9c0.3,0.6,0.5,1.3,0.5,2.3c0,0.9-0.1,1.7-0.4,2.3c-0.4,0.9-1.1,1.3-2,1.3c-0.8,0-1.4-0.4-1.8-1.1    c-0.3-0.6-0.5-1.4-0.5-2.4c0-0.8,0.1-1.4,0.3-2c0.4-1,1.1-1.6,2-1.6C254.3,296.8,255,297.2,255.4,297.9z M254.5,302.5    c0.3-0.4,0.4-1.1,0.4-2.2c0-0.8-0.1-1.4-0.3-1.9c-0.2-0.5-0.6-0.8-1.1-0.8c-0.5,0-0.9,0.2-1.1,0.7c-0.2,0.5-0.4,1.2-0.4,2.1    c0,0.7,0.1,1.3,0.2,1.7c0.2,0.6,0.6,1,1.2,1C253.9,303.1,254.2,302.9,254.5,302.5z" fill="#666666" id="path_120" tag_name="svg/g_70/g_96/path_120"/>
      <path d="M261.4,296.9v0.8c-0.2,0.2-0.5,0.6-0.9,1.1c-0.4,0.5-0.7,1.1-1,1.7c-0.3,0.6-0.5,1.1-0.6,1.6    c-0.1,0.3-0.2,0.8-0.4,1.5h-1c0.2-1.3,0.7-2.6,1.4-3.9c0.4-0.8,0.9-1.4,1.4-2h-3.8v-0.9H261.4z" fill="#666666" id="path_119" tag_name="svg/g_70/g_96/path_119"/>
    </g>
    <g id="g_95" tag_name="svg/g_70/g_95">
      <path d="M404.4,298.8v-0.7c0.6-0.1,1.1-0.2,1.3-0.3c0.2-0.1,0.4-0.5,0.5-1h0.7v6.8H406v-4.9H404.4z" fill="#666666" id="path_118" tag_name="svg/g_70/g_95/path_118"/>
      <path d="M409.7,303.2c-0.4-0.4-0.5-1-0.5-1.6h0.9c0,0.4,0.1,0.8,0.2,1c0.2,0.4,0.6,0.5,1.2,0.5c0.5,0,0.8-0.1,1.1-0.4    s0.4-0.6,0.4-0.9c0-0.5-0.1-0.8-0.4-1c-0.3-0.2-0.7-0.3-1.2-0.3c-0.1,0-0.1,0-0.2,0c-0.1,0-0.1,0-0.2,0v-0.8c0.1,0,0.2,0,0.2,0    s0.1,0,0.2,0c0.3,0,0.6-0.1,0.8-0.2c0.4-0.2,0.5-0.5,0.5-1c0-0.3-0.1-0.6-0.4-0.8c-0.2-0.2-0.5-0.3-0.8-0.3c-0.6,0-1,0.2-1.2,0.6    c-0.1,0.2-0.2,0.5-0.2,0.9h-0.9c0-0.5,0.1-0.9,0.3-1.3c0.4-0.6,1-1,1.9-1c0.7,0,1.2,0.2,1.6,0.5c0.4,0.3,0.6,0.8,0.6,1.4    c0,0.4-0.1,0.8-0.3,1c-0.1,0.2-0.3,0.3-0.5,0.4c0.4,0.1,0.6,0.3,0.8,0.6c0.2,0.3,0.3,0.6,0.3,1c0,0.7-0.2,1.2-0.6,1.6    c-0.4,0.4-1,0.6-1.8,0.6C410.6,303.9,410.1,303.7,409.7,303.2z" fill="#666666" id="path_117" tag_name="svg/g_70/g_95/path_117"/>
    </g>
    <g id="g_94" tag_name="svg/g_70/g_94">
      <path d="M600.5,302.1c0.2-0.4,0.6-0.8,1.2-1.2l0.9-0.5c0.4-0.2,0.7-0.4,0.9-0.6c0.3-0.3,0.4-0.6,0.4-0.9    c0-0.4-0.1-0.7-0.4-1s-0.6-0.4-1-0.4c-0.6,0-1,0.2-1.2,0.7c-0.1,0.2-0.2,0.6-0.2,1h-0.9c0-0.6,0.1-1.1,0.3-1.5c0.4-0.7,1-1,2-1    c0.8,0,1.4,0.2,1.7,0.6c0.4,0.4,0.5,0.9,0.5,1.4c0,0.5-0.2,1-0.6,1.4c-0.2,0.2-0.6,0.5-1.2,0.8l-0.7,0.4c-0.3,0.2-0.6,0.3-0.7,0.5    c-0.3,0.3-0.5,0.6-0.6,0.9h3.7v0.8h-4.7C600.2,303.1,600.3,302.6,600.5,302.1z" fill="#666666" id="path_116" tag_name="svg/g_70/g_94/path_116"/>
      <path d="M608.5,303.7V302h-3v-0.8l3.1-4.4h0.7v4.4h1v0.8h-1v1.7H608.5z M608.5,301.3v-3.1l-2.2,3.1H608.5z" fill="#666666" id="path_115" tag_name="svg/g_70/g_94/path_115"/>
    </g>
    <g id="g_93" tag_name="svg/g_70/g_93">
      <path d="M19.8,254.6c0.2-0.4,0.6-0.8,1.2-1.2l0.9-0.5c0.4-0.2,0.7-0.4,0.9-0.6c0.3-0.3,0.4-0.6,0.4-0.9    c0-0.4-0.1-0.7-0.4-1c-0.2-0.2-0.6-0.4-1-0.4c-0.6,0-1,0.2-1.2,0.7c-0.1,0.2-0.2,0.6-0.2,1h-0.9c0-0.6,0.1-1.1,0.3-1.5    c0.4-0.7,1-1,2-1c0.8,0,1.4,0.2,1.7,0.6c0.4,0.4,0.5,0.9,0.5,1.4c0,0.5-0.2,1-0.6,1.4c-0.2,0.2-0.6,0.5-1.2,0.8l-0.7,0.4    c-0.3,0.2-0.6,0.3-0.7,0.5c-0.3,0.3-0.5,0.6-0.6,0.9h3.7v0.8h-4.7C19.5,255.6,19.6,255,19.8,254.6z" fill="#666666" id="path_114" tag_name="svg/g_70/g_93/path_114"/>
      <path d="M27.9,256.1v-1.7h-3v-0.8l3.1-4.4h0.7v4.4h1v0.8h-1v1.7H27.9z M27.9,253.7v-3.1l-2.2,3.1H27.9z" fill="#666666" id="path_113" tag_name="svg/g_70/g_93/path_113"/>
      <path d="M30.9,255.1h1v1h-1V255.1z" fill="#666666" id="path_112" tag_name="svg/g_70/g_93/path_112"/>
      <path d="M37.4,250.4c0.3,0.6,0.5,1.3,0.5,2.3c0,0.9-0.1,1.7-0.4,2.3c-0.4,0.9-1.1,1.3-2,1.3c-0.8,0-1.4-0.4-1.8-1.1    c-0.3-0.6-0.5-1.4-0.5-2.4c0-0.8,0.1-1.4,0.3-2c0.4-1,1.1-1.6,2-1.6C36.3,249.3,37,249.7,37.4,250.4z M36.5,255    c0.3-0.4,0.4-1.1,0.4-2.2c0-0.8-0.1-1.4-0.3-1.9c-0.2-0.5-0.6-0.8-1.1-0.8c-0.5,0-0.9,0.2-1.1,0.7c-0.2,0.5-0.4,1.2-0.4,2.1    c0,0.7,0.1,1.3,0.2,1.7c0.2,0.6,0.6,1,1.2,1C35.9,255.5,36.2,255.4,36.5,255z" fill="#666666" id="path_111" tag_name="svg/g_70/g_93/path_111"/>
      <path d="M42.8,250.4c0.3,0.6,0.5,1.3,0.5,2.3c0,0.9-0.1,1.7-0.4,2.3c-0.4,0.9-1.1,1.3-2,1.3c-0.8,0-1.4-0.4-1.8-1.1    c-0.3-0.6-0.5-1.4-0.5-2.4c0-0.8,0.1-1.4,0.3-2c0.4-1,1.1-1.6,2-1.6C41.8,249.3,42.4,249.7,42.8,250.4z M42,255    c0.3-0.4,0.4-1.1,0.4-2.2c0-0.8-0.1-1.4-0.3-1.9c-0.2-0.5-0.6-0.8-1.1-0.8c-0.5,0-0.9,0.2-1.1,0.7c-0.2,0.5-0.4,1.2-0.4,2.1    c0,0.7,0.1,1.3,0.2,1.7c0.2,0.6,0.6,1,1.2,1C41.3,255.5,41.7,255.4,42,255z" fill="#666666" id="path_110" tag_name="svg/g_70/g_93/path_110"/>
    </g>
    <g id="g_92" tag_name="svg/g_70/g_92">
      <path d="M19.8,233c0.2-0.4,0.6-0.8,1.2-1.2l0.9-0.5c0.4-0.2,0.7-0.4,0.9-0.6c0.3-0.3,0.4-0.6,0.4-0.9    c0-0.4-0.1-0.7-0.4-1c-0.2-0.2-0.6-0.4-1-0.4c-0.6,0-1,0.2-1.2,0.7c-0.1,0.2-0.2,0.6-0.2,1h-0.9c0-0.6,0.1-1.1,0.3-1.5    c0.4-0.7,1-1,2-1c0.8,0,1.4,0.2,1.7,0.6c0.4,0.4,0.5,0.9,0.5,1.4c0,0.5-0.2,1-0.6,1.4c-0.2,0.2-0.6,0.5-1.2,0.8l-0.7,0.4    c-0.3,0.2-0.6,0.3-0.7,0.5c-0.3,0.3-0.5,0.6-0.6,0.9h3.7v0.8h-4.7C19.5,234,19.6,233.5,19.8,233z" fill="#666666" id="path_109" tag_name="svg/g_70/g_92/path_109"/>
      <path d="M29.1,228.3c0.3,0.4,0.5,0.8,0.5,1.2h-0.9c-0.1-0.3-0.1-0.5-0.2-0.6c-0.2-0.3-0.5-0.4-0.9-0.4    c-0.5,0-0.9,0.2-1.1,0.7c-0.3,0.4-0.4,1.1-0.5,1.9c0.2-0.3,0.4-0.5,0.7-0.7c0.3-0.1,0.6-0.2,0.9-0.2c0.6,0,1.1,0.2,1.5,0.5    c0.4,0.4,0.6,0.9,0.6,1.6c0,0.6-0.2,1.2-0.6,1.7c-0.4,0.5-1,0.7-1.7,0.7c-0.6,0-1.2-0.2-1.7-0.7s-0.7-1.3-0.7-2.5    c0-0.9,0.1-1.6,0.3-2.2c0.4-1.1,1.1-1.7,2.2-1.7C28.3,227.7,28.8,227.9,29.1,228.3z M28.4,233.5c0.2-0.3,0.3-0.7,0.3-1.1    c0-0.4-0.1-0.7-0.3-1c-0.2-0.3-0.6-0.5-1.1-0.5c-0.4,0-0.7,0.1-1,0.4S26,232,26,232.5c0,0.4,0.1,0.8,0.4,1.1    c0.3,0.3,0.6,0.4,1.1,0.4C27.9,234,28.2,233.8,28.4,233.5z" fill="#666666" id="path_108" tag_name="svg/g_70/g_92/path_108"/>
      <path d="M30.9,233.5h1v1h-1V233.5z" fill="#666666" id="path_107" tag_name="svg/g_70/g_92/path_107"/>
      <path d="M37.4,228.8c0.3,0.6,0.5,1.3,0.5,2.3c0,0.9-0.1,1.7-0.4,2.3c-0.4,0.9-1.1,1.3-2,1.3c-0.8,0-1.4-0.4-1.8-1.1    c-0.3-0.6-0.5-1.4-0.5-2.4c0-0.8,0.1-1.4,0.3-2c0.4-1,1.1-1.6,2-1.6C36.3,227.7,37,228.1,37.4,228.8z M36.5,233.4    c0.3-0.4,0.4-1.1,0.4-2.2c0-0.8-0.1-1.4-0.3-1.9c-0.2-0.5-0.6-0.8-1.1-0.8c-0.5,0-0.9,0.2-1.1,0.7c-0.2,0.5-0.4,1.2-0.4,2.1    c0,0.7,0.1,1.3,0.2,1.7c0.2,0.6,0.6,1,1.2,1C35.9,234,36.2,233.8,36.5,233.4z" fill="#666666" id="path_106" tag_name="svg/g_70/g_92/path_106"/>
      <path d="M42.8,228.8c0.3,0.6,0.5,1.3,0.5,2.3c0,0.9-0.1,1.7-0.4,2.3c-0.4,0.9-1.1,1.3-2,1.3c-0.8,0-1.4-0.4-1.8-1.1    c-0.3-0.6-0.5-1.4-0.5-2.4c0-0.8,0.1-1.4,0.3-2c0.4-1,1.1-1.6,2-1.6C41.8,227.7,42.4,228.1,42.8,228.8z M42,233.4    c0.3-0.4,0.4-1.1,0.4-2.2c0-0.8-0.1-1.4-0.3-1.9c-0.2-0.5-0.6-0.8-1.1-0.8c-0.5,0-0.9,0.2-1.1,0.7c-0.2,0.5-0.4,1.2-0.4,2.1    c0,0.7,0.1,1.3,0.2,1.7c0.2,0.6,0.6,1,1.2,1C41.3,234,41.7,233.8,42,233.4z" fill="#666666" id="path_105" tag_name="svg/g_70/g_92/path_105"/>
    </g>
    <g id="g_91" tag_name="svg/g_70/g_91">
      <path d="M19.8,211c0.2-0.4,0.6-0.8,1.2-1.2l0.9-0.5c0.4-0.2,0.7-0.4,0.9-0.6c0.3-0.3,0.4-0.6,0.4-0.9    c0-0.4-0.1-0.7-0.4-1c-0.2-0.2-0.6-0.4-1-0.4c-0.6,0-1,0.2-1.2,0.7c-0.1,0.2-0.2,0.6-0.2,1h-0.9c0-0.6,0.1-1.1,0.3-1.5    c0.4-0.7,1-1,2-1c0.8,0,1.4,0.2,1.7,0.6c0.4,0.4,0.5,0.9,0.5,1.4c0,0.5-0.2,1-0.6,1.4c-0.2,0.2-0.6,0.5-1.2,0.8l-0.7,0.4    c-0.3,0.2-0.6,0.3-0.7,0.5c-0.3,0.3-0.5,0.6-0.6,0.9h3.7v0.8h-4.7C19.5,211.9,19.6,211.4,19.8,211z" fill="#666666" id="path_104" tag_name="svg/g_70/g_91/path_104"/>
      <path d="M25.6,208.5c-0.3-0.3-0.4-0.6-0.4-1c0-0.5,0.2-0.9,0.6-1.3c0.4-0.4,0.9-0.6,1.6-0.6c0.7,0,1.2,0.2,1.5,0.5    c0.4,0.3,0.6,0.8,0.6,1.2c0,0.4-0.1,0.8-0.3,1c-0.1,0.1-0.3,0.3-0.6,0.4c0.3,0.1,0.5,0.3,0.7,0.4c0.3,0.3,0.5,0.7,0.5,1.2    c0,0.6-0.2,1.1-0.6,1.5c-0.4,0.4-1,0.6-1.7,0.6c-0.7,0-1.2-0.2-1.7-0.5c-0.5-0.4-0.7-0.9-0.7-1.6c0-0.4,0.1-0.8,0.3-1.1    c0.2-0.3,0.5-0.5,0.9-0.7C25.9,208.8,25.7,208.7,25.6,208.5z M28.3,211.6c0.3-0.2,0.4-0.5,0.4-1c0-0.4-0.1-0.8-0.4-1    c-0.3-0.2-0.6-0.3-1-0.3c-0.4,0-0.7,0.1-1,0.4c-0.3,0.2-0.4,0.6-0.4,1c0,0.4,0.1,0.7,0.4,0.9c0.2,0.3,0.6,0.4,1.1,0.4    C27.7,211.9,28.1,211.8,28.3,211.6z M28.2,208.2c0.2-0.2,0.3-0.5,0.3-0.8c0-0.3-0.1-0.5-0.3-0.7c-0.2-0.2-0.5-0.3-0.9-0.3    c-0.4,0-0.7,0.1-0.9,0.3c-0.2,0.2-0.3,0.5-0.3,0.8c0,0.3,0.1,0.6,0.4,0.8c0.2,0.2,0.5,0.3,0.8,0.3C27.7,208.5,28,208.4,28.2,208.2    z" fill="#666666" id="path_103" tag_name="svg/g_70/g_91/path_103"/>
      <path d="M30.9,211.5h1v1h-1V211.5z" fill="#666666" id="path_102" tag_name="svg/g_70/g_91/path_102"/>
      <path d="M37.4,206.8c0.3,0.6,0.5,1.3,0.5,2.3c0,0.9-0.1,1.7-0.4,2.3c-0.4,0.9-1.1,1.3-2,1.3c-0.8,0-1.4-0.4-1.8-1.1    c-0.3-0.6-0.5-1.4-0.5-2.4c0-0.8,0.1-1.4,0.3-2c0.4-1,1.1-1.6,2-1.6C36.3,205.7,37,206,37.4,206.8z M36.5,211.3    c0.3-0.4,0.4-1.1,0.4-2.2c0-0.8-0.1-1.4-0.3-1.9c-0.2-0.5-0.6-0.8-1.1-0.8c-0.5,0-0.9,0.2-1.1,0.7c-0.2,0.5-0.4,1.2-0.4,2.1    c0,0.7,0.1,1.3,0.2,1.7c0.2,0.6,0.6,1,1.2,1C35.9,211.9,36.2,211.7,36.5,211.3z" fill="#666666" id="path_101" tag_name="svg/g_70/g_91/path_101"/>
      <path d="M42.8,206.8c0.3,0.6,0.5,1.3,0.5,2.3c0,0.9-0.1,1.7-0.4,2.3c-0.4,0.9-1.1,1.3-2,1.3c-0.8,0-1.4-0.4-1.8-1.1    c-0.3-0.6-0.5-1.4-0.5-2.4c0-0.8,0.1-1.4,0.3-2c0.4-1,1.1-1.6,2-1.6C41.8,205.7,42.4,206,42.8,206.8z M42,211.3    c0.3-0.4,0.4-1.1,0.4-2.2c0-0.8-0.1-1.4-0.3-1.9c-0.2-0.5-0.6-0.8-1.1-0.8c-0.5,0-0.9,0.2-1.1,0.7c-0.2,0.5-0.4,1.2-0.4,2.1    c0,0.7,0.1,1.3,0.2,1.7c0.2,0.6,0.6,1,1.2,1C41.3,211.9,41.7,211.7,42,211.3z" fill="#666666" id="path_100" tag_name="svg/g_70/g_91/path_100"/>
    </g>
    <g id="g_90" tag_name="svg/g_70/g_90">
      <path d="M19.9,190.5c-0.4-0.4-0.5-1-0.5-1.6h0.9c0,0.4,0.1,0.8,0.2,1c0.2,0.4,0.6,0.5,1.2,0.5c0.5,0,0.8-0.1,1.1-0.4    c0.3-0.2,0.4-0.6,0.4-0.9c0-0.5-0.1-0.8-0.4-1c-0.3-0.2-0.7-0.3-1.2-0.3c-0.1,0-0.1,0-0.2,0s-0.1,0-0.2,0V187c0.1,0,0.2,0,0.2,0    c0.1,0,0.1,0,0.2,0c0.3,0,0.6-0.1,0.8-0.2c0.4-0.2,0.5-0.5,0.5-1c0-0.3-0.1-0.6-0.4-0.8c-0.2-0.2-0.5-0.3-0.8-0.3    c-0.6,0-1,0.2-1.2,0.6c-0.1,0.2-0.2,0.5-0.2,0.9h-0.9c0-0.5,0.1-0.9,0.3-1.3c0.4-0.6,1-1,1.9-1c0.7,0,1.2,0.2,1.6,0.5    c0.4,0.3,0.6,0.8,0.6,1.4c0,0.4-0.1,0.8-0.3,1c-0.1,0.2-0.3,0.3-0.5,0.4c0.4,0.1,0.6,0.3,0.8,0.6s0.3,0.6,0.3,1    c0,0.7-0.2,1.2-0.6,1.6c-0.4,0.4-1,0.6-1.8,0.6C20.9,191.2,20.3,190.9,19.9,190.5z" fill="#666666" id="path_99" tag_name="svg/g_70/g_90/path_99"/>
      <path d="M29.2,185.2c0.3,0.6,0.5,1.3,0.5,2.3c0,0.9-0.1,1.7-0.4,2.3c-0.4,0.9-1.1,1.3-2,1.3c-0.8,0-1.4-0.4-1.8-1.1    c-0.3-0.6-0.5-1.4-0.5-2.4c0-0.8,0.1-1.4,0.3-2c0.4-1,1.1-1.6,2-1.6C28.2,184.1,28.8,184.5,29.2,185.2z M28.3,189.8    c0.3-0.4,0.4-1.1,0.4-2.2c0-0.8-0.1-1.4-0.3-1.9c-0.2-0.5-0.6-0.8-1.1-0.8c-0.5,0-0.9,0.2-1.1,0.7c-0.2,0.5-0.4,1.2-0.4,2.1    c0,0.7,0.1,1.3,0.2,1.7c0.2,0.6,0.6,1,1.2,1C27.7,190.4,28.1,190.2,28.3,189.8z" fill="#666666" id="path_98" tag_name="svg/g_70/g_90/path_98"/>
      <path d="M30.9,189.9h1v1h-1V189.9z" fill="#666666" id="path_97" tag_name="svg/g_70/g_90/path_97"/>
      <path d="M37.4,185.2c0.3,0.6,0.5,1.3,0.5,2.3c0,0.9-0.1,1.7-0.4,2.3c-0.4,0.9-1.1,1.3-2,1.3c-0.8,0-1.4-0.4-1.8-1.1    c-0.3-0.6-0.5-1.4-0.5-2.4c0-0.8,0.1-1.4,0.3-2c0.4-1,1.1-1.6,2-1.6C36.3,184.1,37,184.5,37.4,185.2z M36.5,189.8    c0.3-0.4,0.4-1.1,0.4-2.2c0-0.8-0.1-1.4-0.3-1.9c-0.2-0.5-0.6-0.8-1.1-0.8c-0.5,0-0.9,0.2-1.1,0.7c-0.2,0.5-0.4,1.2-0.4,2.1    c0,0.7,0.1,1.3,0.2,1.7c0.2,0.6,0.6,1,1.2,1C35.9,190.4,36.2,190.2,36.5,189.8z" fill="#666666" id="path_96" tag_name="svg/g_70/g_90/path_96"/>
      <path d="M42.8,185.2c0.3,0.6,0.5,1.3,0.5,2.3c0,0.9-0.1,1.7-0.4,2.3c-0.4,0.9-1.1,1.3-2,1.3c-0.8,0-1.4-0.4-1.8-1.1    c-0.3-0.6-0.5-1.4-0.5-2.4c0-0.8,0.1-1.4,0.3-2c0.4-1,1.1-1.6,2-1.6C41.8,184.1,42.4,184.5,42.8,185.2z M42,189.8    c0.3-0.4,0.4-1.1,0.4-2.2c0-0.8-0.1-1.4-0.3-1.9c-0.2-0.5-0.6-0.8-1.1-0.8c-0.5,0-0.9,0.2-1.1,0.7c-0.2,0.5-0.4,1.2-0.4,2.1    c0,0.7,0.1,1.3,0.2,1.7c0.2,0.6,0.6,1,1.2,1C41.3,190.4,41.7,190.2,42,189.8z" fill="#666666" id="path_95" tag_name="svg/g_70/g_90/path_95"/>
    </g>
    <g id="g_89" tag_name="svg/g_70/g_89">
      <path d="M19.9,167.4c-0.4-0.4-0.5-1-0.5-1.6h0.9c0,0.4,0.1,0.8,0.2,1c0.2,0.4,0.6,0.5,1.2,0.5c0.5,0,0.8-0.1,1.1-0.4    c0.3-0.2,0.4-0.6,0.4-0.9c0-0.5-0.1-0.8-0.4-1c-0.3-0.2-0.7-0.3-1.2-0.3c-0.1,0-0.1,0-0.2,0s-0.1,0-0.2,0V164c0.1,0,0.2,0,0.2,0    c0.1,0,0.1,0,0.2,0c0.3,0,0.6-0.1,0.8-0.2c0.4-0.2,0.5-0.5,0.5-1c0-0.3-0.1-0.6-0.4-0.8c-0.2-0.2-0.5-0.3-0.8-0.3    c-0.6,0-1,0.2-1.2,0.6c-0.1,0.2-0.2,0.5-0.2,0.9h-0.9c0-0.5,0.1-0.9,0.3-1.3c0.4-0.6,1-1,1.9-1c0.7,0,1.2,0.2,1.6,0.5    c0.4,0.3,0.6,0.8,0.6,1.4c0,0.4-0.1,0.8-0.3,1c-0.1,0.2-0.3,0.3-0.5,0.4c0.4,0.1,0.6,0.3,0.8,0.6s0.3,0.6,0.3,1    c0,0.7-0.2,1.2-0.6,1.6c-0.4,0.4-1,0.6-1.8,0.6C20.9,168.1,20.3,167.9,19.9,167.4z" fill="#666666" id="path_94" tag_name="svg/g_70/g_89/path_94"/>
      <path d="M25.3,166.4c0.2-0.4,0.6-0.8,1.2-1.2l0.9-0.5c0.4-0.2,0.7-0.4,0.9-0.6c0.3-0.3,0.4-0.6,0.4-0.9    c0-0.4-0.1-0.7-0.4-1c-0.2-0.2-0.6-0.4-1-0.4c-0.6,0-1,0.2-1.2,0.7c-0.1,0.2-0.2,0.6-0.2,1h-0.9c0-0.6,0.1-1.1,0.3-1.5    c0.4-0.7,1-1,2-1c0.8,0,1.4,0.2,1.7,0.6c0.4,0.4,0.5,0.9,0.5,1.4c0,0.5-0.2,1-0.6,1.4c-0.2,0.2-0.6,0.5-1.2,0.8l-0.7,0.4    c-0.3,0.2-0.6,0.3-0.7,0.5c-0.3,0.3-0.5,0.6-0.6,0.9h3.7v0.8h-4.7C25,167.3,25.1,166.8,25.3,166.4z" fill="#666666" id="path_93" tag_name="svg/g_70/g_89/path_93"/>
      <path d="M30.9,166.9h1v1h-1V166.9z" fill="#666666" id="path_92" tag_name="svg/g_70/g_89/path_92"/>
      <path d="M37.4,162.2c0.3,0.6,0.5,1.3,0.5,2.3c0,0.9-0.1,1.7-0.4,2.3c-0.4,0.9-1.1,1.3-2,1.3c-0.8,0-1.4-0.4-1.8-1.1    c-0.3-0.6-0.5-1.4-0.5-2.4c0-0.8,0.1-1.4,0.3-2c0.4-1,1.1-1.6,2-1.6C36.3,161.1,37,161.4,37.4,162.2z M36.5,166.7    c0.3-0.4,0.4-1.1,0.4-2.2c0-0.8-0.1-1.4-0.3-1.9c-0.2-0.5-0.6-0.8-1.1-0.8c-0.5,0-0.9,0.2-1.1,0.7c-0.2,0.5-0.4,1.2-0.4,2.1    c0,0.7,0.1,1.3,0.2,1.7c0.2,0.6,0.6,1,1.2,1C35.9,167.3,36.2,167.1,36.5,166.7z" fill="#666666" id="path_91" tag_name="svg/g_70/g_89/path_91"/>
      <path d="M42.8,162.2c0.3,0.6,0.5,1.3,0.5,2.3c0,0.9-0.1,1.7-0.4,2.3c-0.4,0.9-1.1,1.3-2,1.3c-0.8,0-1.4-0.4-1.8-1.1    c-0.3-0.6-0.5-1.4-0.5-2.4c0-0.8,0.1-1.4,0.3-2c0.4-1,1.1-1.6,2-1.6C41.8,161.1,42.4,161.4,42.8,162.2z M42,166.7    c0.3-0.4,0.4-1.1,0.4-2.2c0-0.8-0.1-1.4-0.3-1.9c-0.2-0.5-0.6-0.8-1.1-0.8c-0.5,0-0.9,0.2-1.1,0.7c-0.2,0.5-0.4,1.2-0.4,2.1    c0,0.7,0.1,1.3,0.2,1.7c0.2,0.6,0.6,1,1.2,1C41.3,167.3,41.7,167.1,42,166.7z" fill="#666666" id="path_90" tag_name="svg/g_70/g_89/path_90"/>
    </g>
    <g id="g_88" tag_name="svg/g_70/g_88">
      <path d="M19.9,145.9c-0.4-0.4-0.5-1-0.5-1.6h0.9c0,0.4,0.1,0.8,0.2,1c0.2,0.4,0.6,0.5,1.2,0.5c0.5,0,0.8-0.1,1.1-0.4    c0.3-0.2,0.4-0.6,0.4-0.9c0-0.5-0.1-0.8-0.4-1c-0.3-0.2-0.7-0.3-1.2-0.3c-0.1,0-0.1,0-0.2,0c-0.1,0-0.1,0-0.2,0v-0.8    c0.1,0,0.2,0,0.2,0c0.1,0,0.1,0,0.2,0c0.3,0,0.6-0.1,0.8-0.2c0.4-0.2,0.5-0.5,0.5-1c0-0.3-0.1-0.6-0.4-0.8s-0.5-0.3-0.8-0.3    c-0.6,0-1,0.2-1.2,0.6c-0.1,0.2-0.2,0.5-0.2,0.9h-0.9c0-0.5,0.1-0.9,0.3-1.3c0.4-0.6,1-1,1.9-1c0.7,0,1.2,0.2,1.6,0.5    s0.6,0.8,0.6,1.4c0,0.4-0.1,0.8-0.3,1c-0.1,0.2-0.3,0.3-0.5,0.4c0.4,0.1,0.6,0.3,0.8,0.6s0.3,0.6,0.3,1c0,0.7-0.2,1.2-0.6,1.6    s-1,0.6-1.8,0.6C20.9,146.6,20.3,146.3,19.9,145.9z" fill="#666666" id="path_89" tag_name="svg/g_70/g_88/path_89"/>
      <path d="M27.9,146.4v-1.7h-3v-0.8l3.1-4.4h0.7v4.4h1v0.8h-1v1.7H27.9z M27.9,143.9v-3.1l-2.2,3.1H27.9z" fill="#666666" id="path_88" tag_name="svg/g_70/g_88/path_88"/>
      <path d="M30.9,145.3h1v1h-1V145.3z" fill="#666666" id="path_87" tag_name="svg/g_70/g_88/path_87"/>
      <path d="M37.4,140.6c0.3,0.6,0.5,1.3,0.5,2.3c0,0.9-0.1,1.7-0.4,2.3c-0.4,0.9-1.1,1.3-2,1.3c-0.8,0-1.4-0.4-1.8-1.1    c-0.3-0.6-0.5-1.4-0.5-2.4c0-0.8,0.1-1.4,0.3-2c0.4-1,1.1-1.6,2-1.6C36.3,139.5,37,139.9,37.4,140.6z M36.5,145.2    c0.3-0.4,0.4-1.1,0.4-2.2c0-0.8-0.1-1.4-0.3-1.9s-0.6-0.8-1.1-0.8c-0.5,0-0.9,0.2-1.1,0.7c-0.2,0.5-0.4,1.2-0.4,2.1    c0,0.7,0.1,1.3,0.2,1.7c0.2,0.6,0.6,1,1.2,1C35.9,145.8,36.2,145.6,36.5,145.2z" fill="#666666" id="path_86" tag_name="svg/g_70/g_88/path_86"/>
      <path d="M42.8,140.6c0.3,0.6,0.5,1.3,0.5,2.3c0,0.9-0.1,1.7-0.4,2.3c-0.4,0.9-1.1,1.3-2,1.3c-0.8,0-1.4-0.4-1.8-1.1    c-0.3-0.6-0.5-1.4-0.5-2.4c0-0.8,0.1-1.4,0.3-2c0.4-1,1.1-1.6,2-1.6C41.8,139.5,42.4,139.9,42.8,140.6z M42,145.2    c0.3-0.4,0.4-1.1,0.4-2.2c0-0.8-0.1-1.4-0.3-1.9s-0.6-0.8-1.1-0.8c-0.5,0-0.9,0.2-1.1,0.7c-0.2,0.5-0.4,1.2-0.4,2.1    c0,0.7,0.1,1.3,0.2,1.7c0.2,0.6,0.6,1,1.2,1C41.3,145.8,41.7,145.6,42,145.2z" fill="#666666" id="path_85" tag_name="svg/g_70/g_88/path_85"/>
    </g>
    <g id="g_87" tag_name="svg/g_70/g_87">
      <path d="M19.9,123.7c-0.4-0.4-0.5-1-0.5-1.6h0.9c0,0.4,0.1,0.8,0.2,1c0.2,0.4,0.6,0.5,1.2,0.5c0.5,0,0.8-0.1,1.1-0.4    c0.3-0.2,0.4-0.6,0.4-0.9c0-0.5-0.1-0.8-0.4-1c-0.3-0.2-0.7-0.3-1.2-0.3c-0.1,0-0.1,0-0.2,0c-0.1,0-0.1,0-0.2,0v-0.8    c0.1,0,0.2,0,0.2,0c0.1,0,0.1,0,0.2,0c0.3,0,0.6-0.1,0.8-0.2c0.4-0.2,0.5-0.5,0.5-1c0-0.3-0.1-0.6-0.4-0.8s-0.5-0.3-0.8-0.3    c-0.6,0-1,0.2-1.2,0.6c-0.1,0.2-0.2,0.5-0.2,0.9h-0.9c0-0.5,0.1-0.9,0.3-1.3c0.4-0.6,1-1,1.9-1c0.7,0,1.2,0.2,1.6,0.5    s0.6,0.8,0.6,1.4c0,0.4-0.1,0.8-0.3,1c-0.1,0.2-0.3,0.3-0.5,0.4c0.4,0.1,0.6,0.3,0.8,0.6s0.3,0.6,0.3,1c0,0.7-0.2,1.2-0.6,1.6    s-1,0.6-1.8,0.6C20.9,124.3,20.3,124.1,19.9,123.7z" fill="#666666" id="path_84" tag_name="svg/g_70/g_87/path_84"/>
      <path d="M29.1,117.9c0.3,0.4,0.5,0.8,0.5,1.2h-0.9c-0.1-0.3-0.1-0.5-0.2-0.6c-0.2-0.3-0.5-0.4-0.9-0.4    c-0.5,0-0.9,0.2-1.1,0.7c-0.3,0.4-0.4,1.1-0.5,1.9c0.2-0.3,0.4-0.5,0.7-0.7c0.3-0.1,0.6-0.2,0.9-0.2c0.6,0,1.1,0.2,1.5,0.6    c0.4,0.4,0.6,0.9,0.6,1.6c0,0.6-0.2,1.2-0.6,1.7c-0.4,0.5-1,0.7-1.7,0.7c-0.6,0-1.2-0.2-1.7-0.7c-0.5-0.5-0.7-1.3-0.7-2.5    c0-0.9,0.1-1.6,0.3-2.2c0.4-1.1,1.1-1.7,2.2-1.7C28.3,117.3,28.8,117.5,29.1,117.9z M28.4,123.1c0.2-0.3,0.3-0.7,0.3-1.1    c0-0.4-0.1-0.7-0.3-1c-0.2-0.3-0.6-0.5-1.1-0.5c-0.4,0-0.7,0.1-1,0.4S26,121.5,26,122c0,0.4,0.1,0.8,0.4,1.1    c0.3,0.3,0.6,0.4,1.1,0.4C27.9,123.6,28.2,123.4,28.4,123.1z" fill="#666666" id="path_83" tag_name="svg/g_70/g_87/path_83"/>
      <path d="M30.9,123.1h1v1h-1V123.1z" fill="#666666" id="path_82" tag_name="svg/g_70/g_87/path_82"/>
      <path d="M37.4,118.4c0.3,0.6,0.5,1.3,0.5,2.3c0,0.9-0.1,1.7-0.4,2.3c-0.4,0.9-1.1,1.3-2,1.3c-0.8,0-1.4-0.4-1.8-1.1    c-0.3-0.6-0.5-1.4-0.5-2.4c0-0.8,0.1-1.4,0.3-2c0.4-1,1.1-1.6,2-1.6C36.3,117.3,37,117.7,37.4,118.4z M36.5,123    c0.3-0.4,0.4-1.1,0.4-2.2c0-0.8-0.1-1.4-0.3-1.9s-0.6-0.8-1.1-0.8c-0.5,0-0.9,0.2-1.1,0.7c-0.2,0.5-0.4,1.2-0.4,2.1    c0,0.7,0.1,1.3,0.2,1.7c0.2,0.6,0.6,1,1.2,1C35.9,123.5,36.2,123.4,36.5,123z" fill="#666666" id="path_81" tag_name="svg/g_70/g_87/path_81"/>
      <path d="M42.8,118.4c0.3,0.6,0.5,1.3,0.5,2.3c0,0.9-0.1,1.7-0.4,2.3c-0.4,0.9-1.1,1.3-2,1.3c-0.8,0-1.4-0.4-1.8-1.1    c-0.3-0.6-0.5-1.4-0.5-2.4c0-0.8,0.1-1.4,0.3-2c0.4-1,1.1-1.6,2-1.6C41.8,117.3,42.4,117.7,42.8,118.4z M42,123    c0.3-0.4,0.4-1.1,0.4-2.2c0-0.8-0.1-1.4-0.3-1.9s-0.6-0.8-1.1-0.8c-0.5,0-0.9,0.2-1.1,0.7c-0.2,0.5-0.4,1.2-0.4,2.1    c0,0.7,0.1,1.3,0.2,1.7c0.2,0.6,0.6,1,1.2,1C41.3,123.5,41.7,123.4,42,123z" fill="#666666" id="path_80" tag_name="svg/g_70/g_87/path_80"/>
    </g>
    <g id="g_86" tag_name="svg/g_70/g_86">
      <path d="M19.9,101.4c-0.4-0.4-0.5-1-0.5-1.6h0.9c0,0.4,0.1,0.8,0.2,1c0.2,0.4,0.6,0.5,1.2,0.5c0.5,0,0.8-0.1,1.1-0.4    c0.3-0.2,0.4-0.6,0.4-0.9c0-0.5-0.1-0.8-0.4-1c-0.3-0.2-0.7-0.3-1.2-0.3c-0.1,0-0.1,0-0.2,0c-0.1,0-0.1,0-0.2,0V98    c0.1,0,0.2,0,0.2,0c0.1,0,0.1,0,0.2,0c0.3,0,0.6-0.1,0.8-0.2c0.4-0.2,0.5-0.5,0.5-1c0-0.3-0.1-0.6-0.4-0.8s-0.5-0.3-0.8-0.3    c-0.6,0-1,0.2-1.2,0.6c-0.1,0.2-0.2,0.5-0.2,0.9h-0.9c0-0.5,0.1-0.9,0.3-1.3c0.4-0.6,1-1,1.9-1c0.7,0,1.2,0.2,1.6,0.5    s0.6,0.8,0.6,1.4c0,0.4-0.1,0.8-0.3,1c-0.1,0.2-0.3,0.3-0.5,0.4c0.4,0.1,0.6,0.3,0.8,0.6s0.3,0.6,0.3,1c0,0.7-0.2,1.2-0.6,1.6    s-1,0.6-1.8,0.6C20.9,102.1,20.3,101.9,19.9,101.4z" fill="#666666" id="path_79" tag_name="svg/g_70/g_86/path_79"/>
      <path d="M25.6,97.9c-0.3-0.3-0.4-0.6-0.4-1c0-0.5,0.2-0.9,0.6-1.3c0.4-0.4,0.9-0.6,1.6-0.6c0.7,0,1.2,0.2,1.5,0.5    c0.4,0.3,0.6,0.8,0.6,1.2c0,0.4-0.1,0.8-0.3,1c-0.1,0.1-0.3,0.3-0.6,0.4c0.3,0.1,0.5,0.3,0.7,0.5c0.3,0.3,0.5,0.7,0.5,1.2    c0,0.6-0.2,1.1-0.6,1.5s-1,0.6-1.7,0.6c-0.7,0-1.2-0.2-1.7-0.5c-0.5-0.4-0.7-0.9-0.7-1.6c0-0.4,0.1-0.8,0.3-1.1    c0.2-0.3,0.5-0.5,0.9-0.7C25.9,98.2,25.7,98.1,25.6,97.9z M28.3,101c0.3-0.2,0.4-0.5,0.4-1c0-0.4-0.1-0.8-0.4-1    c-0.3-0.2-0.6-0.3-1-0.3c-0.4,0-0.7,0.1-1,0.4c-0.3,0.2-0.4,0.6-0.4,1c0,0.4,0.1,0.7,0.4,0.9c0.2,0.3,0.6,0.4,1.1,0.4    C27.7,101.3,28.1,101.2,28.3,101z M28.2,97.6c0.2-0.2,0.3-0.5,0.3-0.8c0-0.3-0.1-0.5-0.3-0.7c-0.2-0.2-0.5-0.3-0.9-0.3    c-0.4,0-0.7,0.1-0.9,0.3s-0.3,0.5-0.3,0.8c0,0.3,0.1,0.6,0.4,0.8c0.2,0.2,0.5,0.3,0.8,0.3C27.7,97.9,28,97.8,28.2,97.6z" fill="#666666" id="path_78" tag_name="svg/g_70/g_86/path_78"/>
      <path d="M30.9,100.9h1v1h-1V100.9z" fill="#666666" id="path_77" tag_name="svg/g_70/g_86/path_77"/>
      <path d="M37.4,96.2c0.3,0.6,0.5,1.3,0.5,2.3c0,0.9-0.1,1.7-0.4,2.3c-0.4,0.9-1.1,1.3-2,1.3c-0.8,0-1.4-0.4-1.8-1.1    c-0.3-0.6-0.5-1.4-0.5-2.4c0-0.8,0.1-1.4,0.3-2c0.4-1,1.1-1.6,2-1.6C36.3,95.1,37,95.4,37.4,96.2z M36.5,100.7    c0.3-0.4,0.4-1.1,0.4-2.2c0-0.8-0.1-1.4-0.3-1.9s-0.6-0.8-1.1-0.8c-0.5,0-0.9,0.2-1.1,0.7C34.1,97,34,97.7,34,98.7    c0,0.7,0.1,1.3,0.2,1.7c0.2,0.6,0.6,1,1.2,1C35.9,101.3,36.2,101.1,36.5,100.7z" fill="#666666" id="path_76" tag_name="svg/g_70/g_86/path_76"/>
      <path d="M42.8,96.2c0.3,0.6,0.5,1.3,0.5,2.3c0,0.9-0.1,1.7-0.4,2.3c-0.4,0.9-1.1,1.3-2,1.3c-0.8,0-1.4-0.4-1.8-1.1    c-0.3-0.6-0.5-1.4-0.5-2.4c0-0.8,0.1-1.4,0.3-2c0.4-1,1.1-1.6,2-1.6C41.8,95.1,42.4,95.4,42.8,96.2z M42,100.7    c0.3-0.4,0.4-1.1,0.4-2.2c0-0.8-0.1-1.4-0.3-1.9s-0.6-0.8-1.1-0.8c-0.5,0-0.9,0.2-1.1,0.7c-0.2,0.5-0.4,1.2-0.4,2.1    c0,0.7,0.1,1.3,0.2,1.7c0.2,0.6,0.6,1,1.2,1C41.3,101.3,41.7,101.1,42,100.7z" fill="#666666" id="path_75" tag_name="svg/g_70/g_86/path_75"/>
    </g>
    <g id="g_85" tag_name="svg/g_70/g_85">
      <path d="M22.4,79.7V78h-3v-0.8l3.1-4.4h0.7v4.4h1V78h-1v1.7H22.4z M22.4,77.3v-3.1l-2.2,3.1H22.4z" fill="#666666" id="path_74" tag_name="svg/g_70/g_85/path_74"/>
      <path d="M29.2,74c0.3,0.6,0.5,1.3,0.5,2.3c0,0.9-0.1,1.7-0.4,2.3c-0.4,0.9-1.1,1.3-2,1.3c-0.8,0-1.4-0.4-1.8-1.1    c-0.3-0.6-0.5-1.4-0.5-2.4c0-0.8,0.1-1.4,0.3-2c0.4-1,1.1-1.6,2-1.6C28.2,72.9,28.8,73.2,29.2,74z M28.3,78.5    c0.3-0.4,0.4-1.1,0.4-2.2c0-0.8-0.1-1.4-0.3-1.9s-0.6-0.8-1.1-0.8c-0.5,0-0.9,0.2-1.1,0.7c-0.2,0.5-0.4,1.2-0.4,2.1    c0,0.7,0.1,1.3,0.2,1.7c0.2,0.6,0.6,1,1.2,1C27.7,79.1,28.1,78.9,28.3,78.5z" fill="#666666" id="path_73" tag_name="svg/g_70/g_85/path_73"/>
      <path d="M30.9,78.7h1v1h-1V78.7z" fill="#666666" id="path_72" tag_name="svg/g_70/g_85/path_72"/>
      <path d="M37.4,74c0.3,0.6,0.5,1.3,0.5,2.3c0,0.9-0.1,1.7-0.4,2.3c-0.4,0.9-1.1,1.3-2,1.3c-0.8,0-1.4-0.4-1.8-1.1    c-0.3-0.6-0.5-1.4-0.5-2.4c0-0.8,0.1-1.4,0.3-2c0.4-1,1.1-1.6,2-1.6C36.3,72.9,37,73.2,37.4,74z M36.5,78.5    c0.3-0.4,0.4-1.1,0.4-2.2c0-0.8-0.1-1.4-0.3-1.9s-0.6-0.8-1.1-0.8c-0.5,0-0.9,0.2-1.1,0.7c-0.2,0.5-0.4,1.2-0.4,2.1    c0,0.7,0.1,1.3,0.2,1.7c0.2,0.6,0.6,1,1.2,1C35.9,79.1,36.2,78.9,36.5,78.5z" fill="#666666" id="path_71" tag_name="svg/g_70/g_85/path_71"/>
      <path d="M42.8,74c0.3,0.6,0.5,1.3,0.5,2.3c0,0.9-0.1,1.7-0.4,2.3c-0.4,0.9-1.1,1.3-2,1.3c-0.8,0-1.4-0.4-1.8-1.1    c-0.3-0.6-0.5-1.4-0.5-2.4c0-0.8,0.1-1.4,0.3-2c0.4-1,1.1-1.6,2-1.6C41.8,72.9,42.4,73.2,42.8,74z M42,78.5    c0.3-0.4,0.4-1.1,0.4-2.2c0-0.8-0.1-1.4-0.3-1.9s-0.6-0.8-1.1-0.8c-0.5,0-0.9,0.2-1.1,0.7c-0.2,0.5-0.4,1.2-0.4,2.1    c0,0.7,0.1,1.3,0.2,1.7c0.2,0.6,0.6,1,1.2,1C41.3,79.1,41.7,78.9,42,78.5z" fill="#666666" id="path_70" tag_name="svg/g_70/g_85/path_70"/>
    </g>
    <g id="g_84" tag_name="svg/g_70/g_84">
      <path d="M22.4,58.1v-1.7h-3v-0.8l3.1-4.4h0.7v4.4h1v0.8h-1v1.7H22.4z M22.4,55.7v-3.1l-2.2,3.1H22.4z" fill="#666666" id="path_69" tag_name="svg/g_70/g_84/path_69"/>
      <path d="M25.3,56.6c0.2-0.4,0.6-0.8,1.2-1.2l0.9-0.5c0.4-0.2,0.7-0.4,0.9-0.6c0.3-0.3,0.4-0.6,0.4-0.9    c0-0.4-0.1-0.7-0.4-1c-0.2-0.2-0.6-0.4-1-0.4c-0.6,0-1,0.2-1.2,0.7C26,53,26,53.3,26,53.7h-0.9c0-0.6,0.1-1.1,0.3-1.5    c0.4-0.7,1-1,2-1c0.8,0,1.4,0.2,1.7,0.6c0.4,0.4,0.5,0.9,0.5,1.4c0,0.5-0.2,1-0.6,1.4c-0.2,0.2-0.6,0.5-1.2,0.8l-0.7,0.4    c-0.3,0.2-0.6,0.3-0.7,0.5c-0.3,0.3-0.5,0.6-0.6,0.9h3.7v0.8h-4.7C25,57.6,25.1,57,25.3,56.6z" fill="#666666" id="path_68" tag_name="svg/g_70/g_84/path_68"/>
      <path d="M30.9,57.1h1v1h-1V57.1z" fill="#666666" id="path_67" tag_name="svg/g_70/g_84/path_67"/>
      <path d="M37.4,52.4c0.3,0.6,0.5,1.3,0.5,2.3c0,0.9-0.1,1.7-0.4,2.3c-0.4,0.9-1.1,1.3-2,1.3c-0.8,0-1.4-0.4-1.8-1.1    c-0.3-0.6-0.5-1.4-0.5-2.4c0-0.8,0.1-1.4,0.3-2c0.4-1,1.1-1.6,2-1.6C36.3,51.3,37,51.7,37.4,52.4z M36.5,57    c0.3-0.4,0.4-1.1,0.4-2.2c0-0.8-0.1-1.4-0.3-1.9s-0.6-0.8-1.1-0.8c-0.5,0-0.9,0.2-1.1,0.7C34.1,53.3,34,54,34,54.9    c0,0.7,0.1,1.3,0.2,1.7c0.2,0.6,0.6,1,1.2,1C35.9,57.5,36.2,57.4,36.5,57z" fill="#666666" id="path_66" tag_name="svg/g_70/g_84/path_66"/>
      <path d="M42.8,52.4c0.3,0.6,0.5,1.3,0.5,2.3c0,0.9-0.1,1.7-0.4,2.3c-0.4,0.9-1.1,1.3-2,1.3c-0.8,0-1.4-0.4-1.8-1.1    c-0.3-0.6-0.5-1.4-0.5-2.4c0-0.8,0.1-1.4,0.3-2c0.4-1,1.1-1.6,2-1.6C41.8,51.3,42.4,51.7,42.8,52.4z M42,57    c0.3-0.4,0.4-1.1,0.4-2.2c0-0.8-0.1-1.4-0.3-1.9s-0.6-0.8-1.1-0.8c-0.5,0-0.9,0.2-1.1,0.7c-0.2,0.5-0.4,1.2-0.4,2.1    c0,0.7,0.1,1.3,0.2,1.7c0.2,0.6,0.6,1,1.2,1C41.3,57.5,41.7,57.4,42,57z" fill="#666666" id="path_65" tag_name="svg/g_70/g_84/path_65"/>
    </g>
    <g id="g_83" tag_name="svg/g_70/g_83">
      <path d="M22.4,35.3v-1.7h-3v-0.8l3.1-4.4h0.7v4.4h1v0.8h-1v1.7H22.4z M22.4,32.8v-3.1l-2.2,3.1H22.4z" fill="#666666" id="path_64" tag_name="svg/g_70/g_83/path_64"/>
      <path d="M27.9,35.3v-1.7h-3v-0.8l3.1-4.4h0.7v4.4h1v0.8h-1v1.7H27.9z M27.9,32.8v-3.1l-2.2,3.1H27.9z" fill="#666666" id="path_63" tag_name="svg/g_70/g_83/path_63"/>
      <path d="M30.9,34.2h1v1h-1V34.2z" fill="#666666" id="path_62" tag_name="svg/g_70/g_83/path_62"/>
      <path d="M37.4,29.5c0.3,0.6,0.5,1.3,0.5,2.3c0,0.9-0.1,1.7-0.4,2.3c-0.4,0.9-1.1,1.3-2,1.3c-0.8,0-1.4-0.4-1.8-1.1    c-0.3-0.6-0.5-1.4-0.5-2.4c0-0.8,0.1-1.4,0.3-2c0.4-1,1.1-1.6,2-1.6C36.3,28.4,37,28.8,37.4,29.5z M36.5,34.1    c0.3-0.4,0.4-1.1,0.4-2.2c0-0.8-0.1-1.4-0.3-1.9s-0.6-0.8-1.1-0.8c-0.5,0-0.9,0.2-1.1,0.7C34.1,30.4,34,31.1,34,32    c0,0.7,0.1,1.3,0.2,1.7c0.2,0.6,0.6,1,1.2,1C35.9,34.7,36.2,34.5,36.5,34.1z" fill="#666666" id="path_61" tag_name="svg/g_70/g_83/path_61"/>
      <path d="M42.8,29.5c0.3,0.6,0.5,1.3,0.5,2.3c0,0.9-0.1,1.7-0.4,2.3c-0.4,0.9-1.1,1.3-2,1.3c-0.8,0-1.4-0.4-1.8-1.1    c-0.3-0.6-0.5-1.4-0.5-2.4c0-0.8,0.1-1.4,0.3-2c0.4-1,1.1-1.6,2-1.6C41.8,28.4,42.4,28.8,42.8,29.5z M42,34.1    c0.3-0.4,0.4-1.1,0.4-2.2c0-0.8-0.1-1.4-0.3-1.9s-0.6-0.8-1.1-0.8c-0.5,0-0.9,0.2-1.1,0.7c-0.2,0.5-0.4,1.2-0.4,2.1    c0,0.7,0.1,1.3,0.2,1.7c0.2,0.6,0.6,1,1.2,1C41.3,34.7,41.7,34.5,42,34.1z" fill="#666666" id="path_60" tag_name="svg/g_70/g_83/path_60"/>
    </g>
    <g id="g_82" tag_name="svg/g_70/g_82">
      <path d="M688.3,277.6c0.2-0.4,0.6-0.8,1.2-1.2l0.9-0.5c0.4-0.2,0.7-0.4,0.9-0.6c0.3-0.3,0.4-0.6,0.4-0.9    c0-0.4-0.1-0.7-0.4-1s-0.6-0.4-1-0.4c-0.6,0-1,0.2-1.2,0.7c-0.1,0.2-0.2,0.6-0.2,1h-0.9c0-0.6,0.1-1.1,0.3-1.5c0.4-0.7,1-1,2-1    c0.8,0,1.4,0.2,1.7,0.6c0.4,0.4,0.5,0.9,0.5,1.4c0,0.5-0.2,1-0.6,1.4c-0.2,0.2-0.6,0.5-1.2,0.8l-0.7,0.4c-0.3,0.2-0.6,0.3-0.7,0.5    c-0.3,0.3-0.5,0.6-0.6,0.9h3.7v0.8H688C688,278.6,688.1,278.1,688.3,277.6z" fill="#666666" id="path_59" tag_name="svg/g_70/g_82/path_59"/>
      <path d="M693.8,277.6c0.2-0.4,0.6-0.8,1.2-1.2l0.9-0.5c0.4-0.2,0.7-0.4,0.9-0.6c0.3-0.3,0.4-0.6,0.4-0.9    c0-0.4-0.1-0.7-0.4-1s-0.6-0.4-1-0.4c-0.6,0-1,0.2-1.2,0.7c-0.1,0.2-0.2,0.6-0.2,1h-0.9c0-0.6,0.1-1.1,0.3-1.5c0.4-0.7,1-1,2-1    c0.8,0,1.4,0.2,1.7,0.6c0.4,0.4,0.5,0.9,0.5,1.4c0,0.5-0.2,1-0.6,1.4c-0.2,0.2-0.6,0.5-1.2,0.8l-0.7,0.4c-0.3,0.2-0.6,0.3-0.7,0.5    c-0.3,0.3-0.5,0.6-0.6,0.9h3.7v0.8h-4.7C693.5,278.6,693.6,278.1,693.8,277.6z" fill="#666666" id="path_58" tag_name="svg/g_70/g_82/path_58"/>
      <path d="M699.4,278.1h1v1h-1V278.1z" fill="#666666" id="path_57" tag_name="svg/g_70/g_82/path_57"/>
      <path d="M705.9,273.4c0.3,0.6,0.5,1.3,0.5,2.3c0,0.9-0.1,1.7-0.4,2.3c-0.4,0.9-1.1,1.3-2,1.3c-0.8,0-1.4-0.4-1.8-1.1    c-0.3-0.6-0.5-1.4-0.5-2.4c0-0.8,0.1-1.4,0.3-2c0.4-1,1.1-1.6,2-1.6C704.8,272.3,705.5,272.7,705.9,273.4z M705,278    c0.3-0.4,0.4-1.1,0.4-2.2c0-0.8-0.1-1.4-0.3-1.9c-0.2-0.5-0.6-0.8-1.1-0.8c-0.5,0-0.9,0.2-1.1,0.7c-0.2,0.5-0.4,1.2-0.4,2.1    c0,0.7,0.1,1.3,0.2,1.7c0.2,0.6,0.6,1,1.2,1C704.4,278.6,704.7,278.4,705,278z" fill="#666666" id="path_56" tag_name="svg/g_70/g_82/path_56"/>
      <path d="M711.3,273.4c0.3,0.6,0.5,1.3,0.5,2.3c0,0.9-0.1,1.7-0.4,2.3c-0.4,0.9-1.1,1.3-2,1.3c-0.8,0-1.4-0.4-1.8-1.1    c-0.3-0.6-0.5-1.4-0.5-2.4c0-0.8,0.1-1.4,0.3-2c0.4-1,1.1-1.6,2-1.6C710.3,272.3,710.9,272.7,711.3,273.4z M710.4,278    c0.3-0.4,0.4-1.1,0.4-2.2c0-0.8-0.1-1.4-0.3-1.9c-0.2-0.5-0.6-0.8-1.1-0.8c-0.5,0-0.9,0.2-1.1,0.7c-0.2,0.5-0.4,1.2-0.4,2.1    c0,0.7,0.1,1.3,0.2,1.7c0.2,0.6,0.6,1,1.2,1C709.8,278.6,710.2,278.4,710.4,278z" fill="#666666" id="path_55" tag_name="svg/g_70/g_82/path_55"/>
    </g>
    <g id="g_81" tag_name="svg/g_70/g_81">
      <path d="M688.3,254.6c0.2-0.4,0.6-0.8,1.2-1.2l0.9-0.5c0.4-0.2,0.7-0.4,0.9-0.6c0.3-0.3,0.4-0.6,0.4-0.9    c0-0.4-0.1-0.7-0.4-1s-0.6-0.4-1-0.4c-0.6,0-1,0.2-1.2,0.7c-0.1,0.2-0.2,0.6-0.2,1h-0.9c0-0.6,0.1-1.1,0.3-1.5c0.4-0.7,1-1,2-1    c0.8,0,1.4,0.2,1.7,0.6c0.4,0.4,0.5,0.9,0.5,1.4c0,0.5-0.2,1-0.6,1.4c-0.2,0.2-0.6,0.5-1.2,0.8l-0.7,0.4c-0.3,0.2-0.6,0.3-0.7,0.5    c-0.3,0.3-0.5,0.6-0.6,0.9h3.7v0.8H688C688,255.6,688.1,255,688.3,254.6z" fill="#666666" id="path_54" tag_name="svg/g_70/g_81/path_54"/>
      <path d="M696.4,256.1v-1.7h-3v-0.8l3.1-4.4h0.7v4.4h1v0.8h-1v1.7H696.4z M696.4,253.7v-3.1l-2.2,3.1H696.4z" fill="#666666" id="path_53" tag_name="svg/g_70/g_81/path_53"/>
      <path d="M699.4,255.1h1v1h-1V255.1z" fill="#666666" id="path_52" tag_name="svg/g_70/g_81/path_52"/>
      <path d="M705.9,250.4c0.3,0.6,0.5,1.3,0.5,2.3c0,0.9-0.1,1.7-0.4,2.3c-0.4,0.9-1.1,1.3-2,1.3c-0.8,0-1.4-0.4-1.8-1.1    c-0.3-0.6-0.5-1.4-0.5-2.4c0-0.8,0.1-1.4,0.3-2c0.4-1,1.1-1.6,2-1.6C704.8,249.3,705.5,249.7,705.9,250.4z M705,255    c0.3-0.4,0.4-1.1,0.4-2.2c0-0.8-0.1-1.4-0.3-1.9c-0.2-0.5-0.6-0.8-1.1-0.8c-0.5,0-0.9,0.2-1.1,0.7c-0.2,0.5-0.4,1.2-0.4,2.1    c0,0.7,0.1,1.3,0.2,1.7c0.2,0.6,0.6,1,1.2,1C704.4,255.5,704.7,255.4,705,255z" fill="#666666" id="path_51" tag_name="svg/g_70/g_81/path_51"/>
      <path d="M711.3,250.4c0.3,0.6,0.5,1.3,0.5,2.3c0,0.9-0.1,1.7-0.4,2.3c-0.4,0.9-1.1,1.3-2,1.3c-0.8,0-1.4-0.4-1.8-1.1    c-0.3-0.6-0.5-1.4-0.5-2.4c0-0.8,0.1-1.4,0.3-2c0.4-1,1.1-1.6,2-1.6C710.3,249.3,710.9,249.7,711.3,250.4z M710.4,255    c0.3-0.4,0.4-1.1,0.4-2.2c0-0.8-0.1-1.4-0.3-1.9c-0.2-0.5-0.6-0.8-1.1-0.8c-0.5,0-0.9,0.2-1.1,0.7c-0.2,0.5-0.4,1.2-0.4,2.1    c0,0.7,0.1,1.3,0.2,1.7c0.2,0.6,0.6,1,1.2,1C709.8,255.5,710.2,255.4,710.4,255z" fill="#666666" id="path_50" tag_name="svg/g_70/g_81/path_50"/>
    </g>
    <g id="g_80" tag_name="svg/g_70/g_80">
      <path d="M688.3,233c0.2-0.4,0.6-0.8,1.2-1.2l0.9-0.5c0.4-0.2,0.7-0.4,0.9-0.6c0.3-0.3,0.4-0.6,0.4-0.9    c0-0.4-0.1-0.7-0.4-1s-0.6-0.4-1-0.4c-0.6,0-1,0.2-1.2,0.7c-0.1,0.2-0.2,0.6-0.2,1h-0.9c0-0.6,0.1-1.1,0.3-1.5c0.4-0.7,1-1,2-1    c0.8,0,1.4,0.2,1.7,0.6c0.4,0.4,0.5,0.9,0.5,1.4c0,0.5-0.2,1-0.6,1.4c-0.2,0.2-0.6,0.5-1.2,0.8l-0.7,0.4c-0.3,0.2-0.6,0.3-0.7,0.5    c-0.3,0.3-0.5,0.6-0.6,0.9h3.7v0.8H688C688,234,688.1,233.5,688.3,233z" fill="#666666" id="path_49" tag_name="svg/g_70/g_80/path_49"/>
      <path d="M697.6,228.3c0.3,0.4,0.5,0.8,0.5,1.2h-0.9c-0.1-0.3-0.1-0.5-0.2-0.6c-0.2-0.3-0.5-0.4-0.9-0.4    c-0.5,0-0.9,0.2-1.1,0.7c-0.3,0.4-0.4,1.1-0.5,1.9c0.2-0.3,0.4-0.5,0.7-0.7c0.3-0.1,0.6-0.2,0.9-0.2c0.6,0,1.1,0.2,1.5,0.5    c0.4,0.4,0.6,0.9,0.6,1.6c0,0.6-0.2,1.2-0.6,1.7s-1,0.7-1.7,0.7c-0.6,0-1.2-0.2-1.7-0.7s-0.7-1.3-0.7-2.5c0-0.9,0.1-1.6,0.3-2.2    c0.4-1.1,1.1-1.7,2.2-1.7C696.7,227.7,697.3,227.9,697.6,228.3z M696.9,233.5c0.2-0.3,0.3-0.7,0.3-1.1c0-0.4-0.1-0.7-0.3-1    s-0.6-0.5-1.1-0.5c-0.4,0-0.7,0.1-1,0.4c-0.3,0.2-0.4,0.6-0.4,1.1c0,0.4,0.1,0.8,0.4,1.1c0.3,0.3,0.6,0.4,1.1,0.4    C696.4,234,696.7,233.8,696.9,233.5z" fill="#666666" id="path_48" tag_name="svg/g_70/g_80/path_48"/>
      <path d="M699.4,233.5h1v1h-1V233.5z" fill="#666666" id="path_47" tag_name="svg/g_70/g_80/path_47"/>
      <path d="M705.9,228.8c0.3,0.6,0.5,1.3,0.5,2.3c0,0.9-0.1,1.7-0.4,2.3c-0.4,0.9-1.1,1.3-2,1.3c-0.8,0-1.4-0.4-1.8-1.1    c-0.3-0.6-0.5-1.4-0.5-2.4c0-0.8,0.1-1.4,0.3-2c0.4-1,1.1-1.6,2-1.6C704.8,227.7,705.5,228.1,705.9,228.8z M705,233.4    c0.3-0.4,0.4-1.1,0.4-2.2c0-0.8-0.1-1.4-0.3-1.9c-0.2-0.5-0.6-0.8-1.1-0.8c-0.5,0-0.9,0.2-1.1,0.7c-0.2,0.5-0.4,1.2-0.4,2.1    c0,0.7,0.1,1.3,0.2,1.7c0.2,0.6,0.6,1,1.2,1C704.4,234,704.7,233.8,705,233.4z" fill="#666666" id="path_46" tag_name="svg/g_70/g_80/path_46"/>
      <path d="M711.3,228.8c0.3,0.6,0.5,1.3,0.5,2.3c0,0.9-0.1,1.7-0.4,2.3c-0.4,0.9-1.1,1.3-2,1.3c-0.8,0-1.4-0.4-1.8-1.1    c-0.3-0.6-0.5-1.4-0.5-2.4c0-0.8,0.1-1.4,0.3-2c0.4-1,1.1-1.6,2-1.6C710.3,227.7,710.9,228.1,711.3,228.8z M710.4,233.4    c0.3-0.4,0.4-1.1,0.4-2.2c0-0.8-0.1-1.4-0.3-1.9c-0.2-0.5-0.6-0.8-1.1-0.8c-0.5,0-0.9,0.2-1.1,0.7c-0.2,0.5-0.4,1.2-0.4,2.1    c0,0.7,0.1,1.3,0.2,1.7c0.2,0.6,0.6,1,1.2,1C709.8,234,710.2,233.8,710.4,233.4z" fill="#666666" id="path_45" tag_name="svg/g_70/g_80/path_45"/>
    </g>
    <g id="g_79" tag_name="svg/g_70/g_79">
      <path d="M688.3,211c0.2-0.4,0.6-0.8,1.2-1.2l0.9-0.5c0.4-0.2,0.7-0.4,0.9-0.6c0.3-0.3,0.4-0.6,0.4-0.9    c0-0.4-0.1-0.7-0.4-1s-0.6-0.4-1-0.4c-0.6,0-1,0.2-1.2,0.7c-0.1,0.2-0.2,0.6-0.2,1h-0.9c0-0.6,0.1-1.1,0.3-1.5c0.4-0.7,1-1,2-1    c0.8,0,1.4,0.2,1.7,0.6c0.4,0.4,0.5,0.9,0.5,1.4c0,0.5-0.2,1-0.6,1.4c-0.2,0.2-0.6,0.5-1.2,0.8l-0.7,0.4c-0.3,0.2-0.6,0.3-0.7,0.5    c-0.3,0.3-0.5,0.6-0.6,0.9h3.7v0.8H688C688,211.9,688.1,211.4,688.3,211z" fill="#666666" id="path_44" tag_name="svg/g_70/g_79/path_44"/>
      <path d="M694,208.5c-0.3-0.3-0.4-0.6-0.4-1c0-0.5,0.2-0.9,0.6-1.3c0.4-0.4,0.9-0.6,1.6-0.6c0.7,0,1.2,0.2,1.5,0.5    c0.4,0.3,0.6,0.8,0.6,1.2c0,0.4-0.1,0.8-0.3,1c-0.1,0.1-0.3,0.3-0.6,0.4c0.3,0.1,0.5,0.3,0.7,0.4c0.3,0.3,0.5,0.7,0.5,1.2    c0,0.6-0.2,1.1-0.6,1.5c-0.4,0.4-1,0.6-1.7,0.6c-0.7,0-1.2-0.2-1.7-0.5c-0.5-0.4-0.7-0.9-0.7-1.6c0-0.4,0.1-0.8,0.3-1.1    c0.2-0.3,0.5-0.5,0.9-0.7C694.4,208.8,694.2,208.7,694,208.5z M696.8,211.6c0.3-0.2,0.4-0.5,0.4-1c0-0.4-0.1-0.8-0.4-1    c-0.3-0.2-0.6-0.3-1-0.3c-0.4,0-0.7,0.1-1,0.4c-0.3,0.2-0.4,0.6-0.4,1c0,0.4,0.1,0.7,0.4,0.9c0.2,0.3,0.6,0.4,1.1,0.4    C696.2,211.9,696.6,211.8,696.8,211.6z M696.7,208.2c0.2-0.2,0.3-0.5,0.3-0.8c0-0.3-0.1-0.5-0.3-0.7c-0.2-0.2-0.5-0.3-0.9-0.3    c-0.4,0-0.7,0.1-0.9,0.3c-0.2,0.2-0.3,0.5-0.3,0.8c0,0.3,0.1,0.6,0.4,0.8c0.2,0.2,0.5,0.3,0.8,0.3    C696.2,208.5,696.5,208.4,696.7,208.2z" fill="#666666" id="path_43" tag_name="svg/g_70/g_79/path_43"/>
      <path d="M699.4,211.5h1v1h-1V211.5z" fill="#666666" id="path_42" tag_name="svg/g_70/g_79/path_42"/>
      <path d="M705.9,206.8c0.3,0.6,0.5,1.3,0.5,2.3c0,0.9-0.1,1.7-0.4,2.3c-0.4,0.9-1.1,1.3-2,1.3c-0.8,0-1.4-0.4-1.8-1.1    c-0.3-0.6-0.5-1.4-0.5-2.4c0-0.8,0.1-1.4,0.3-2c0.4-1,1.1-1.6,2-1.6C704.8,205.7,705.5,206,705.9,206.8z M705,211.3    c0.3-0.4,0.4-1.1,0.4-2.2c0-0.8-0.1-1.4-0.3-1.9c-0.2-0.5-0.6-0.8-1.1-0.8c-0.5,0-0.9,0.2-1.1,0.7c-0.2,0.5-0.4,1.2-0.4,2.1    c0,0.7,0.1,1.3,0.2,1.7c0.2,0.6,0.6,1,1.2,1C704.4,211.9,704.7,211.7,705,211.3z" fill="#666666" id="path_41" tag_name="svg/g_70/g_79/path_41"/>
      <path d="M711.3,206.8c0.3,0.6,0.5,1.3,0.5,2.3c0,0.9-0.1,1.7-0.4,2.3c-0.4,0.9-1.1,1.3-2,1.3c-0.8,0-1.4-0.4-1.8-1.1    c-0.3-0.6-0.5-1.4-0.5-2.4c0-0.8,0.1-1.4,0.3-2c0.4-1,1.1-1.6,2-1.6C710.3,205.7,710.9,206,711.3,206.8z M710.4,211.3    c0.3-0.4,0.4-1.1,0.4-2.2c0-0.8-0.1-1.4-0.3-1.9c-0.2-0.5-0.6-0.8-1.1-0.8c-0.5,0-0.9,0.2-1.1,0.7c-0.2,0.5-0.4,1.2-0.4,2.1    c0,0.7,0.1,1.3,0.2,1.7c0.2,0.6,0.6,1,1.2,1C709.8,211.9,710.2,211.7,710.4,211.3z" fill="#666666" id="path_40" tag_name="svg/g_70/g_79/path_40"/>
    </g>
    <g id="g_78" tag_name="svg/g_70/g_78">
      <path d="M688.4,190.5c-0.4-0.4-0.5-1-0.5-1.6h0.9c0,0.4,0.1,0.8,0.2,1c0.2,0.4,0.6,0.5,1.2,0.5c0.5,0,0.8-0.1,1.1-0.4    s0.4-0.6,0.4-0.9c0-0.5-0.1-0.8-0.4-1c-0.3-0.2-0.7-0.3-1.2-0.3c-0.1,0-0.1,0-0.2,0c-0.1,0-0.1,0-0.2,0V187c0.1,0,0.2,0,0.2,0    s0.1,0,0.2,0c0.3,0,0.6-0.1,0.8-0.2c0.4-0.2,0.5-0.5,0.5-1c0-0.3-0.1-0.6-0.4-0.8c-0.2-0.2-0.5-0.3-0.8-0.3c-0.6,0-1,0.2-1.2,0.6    c-0.1,0.2-0.2,0.5-0.2,0.9h-0.9c0-0.5,0.1-0.9,0.3-1.3c0.4-0.6,1-1,1.9-1c0.7,0,1.2,0.2,1.6,0.5c0.4,0.3,0.6,0.8,0.6,1.4    c0,0.4-0.1,0.8-0.3,1c-0.1,0.2-0.3,0.3-0.5,0.4c0.4,0.1,0.6,0.3,0.8,0.6c0.2,0.3,0.3,0.6,0.3,1c0,0.7-0.2,1.2-0.6,1.6    c-0.4,0.4-1,0.6-1.8,0.6C689.4,191.2,688.8,190.9,688.4,190.5z" fill="#666666" id="path_39" tag_name="svg/g_70/g_78/path_39"/>
      <path d="M697.7,185.2c0.3,0.6,0.5,1.3,0.5,2.3c0,0.9-0.1,1.7-0.4,2.3c-0.4,0.9-1.1,1.3-2,1.3c-0.8,0-1.4-0.4-1.8-1.1    c-0.3-0.6-0.5-1.4-0.5-2.4c0-0.8,0.1-1.4,0.3-2c0.4-1,1.1-1.6,2-1.6C696.7,184.1,697.3,184.5,697.7,185.2z M696.8,189.8    c0.3-0.4,0.4-1.1,0.4-2.2c0-0.8-0.1-1.4-0.3-1.9c-0.2-0.5-0.6-0.8-1.1-0.8c-0.5,0-0.9,0.2-1.1,0.7c-0.2,0.5-0.4,1.2-0.4,2.1    c0,0.7,0.1,1.3,0.2,1.7c0.2,0.6,0.6,1,1.2,1C696.2,190.4,696.6,190.2,696.8,189.8z" fill="#666666" id="path_38" tag_name="svg/g_70/g_78/path_38"/>
      <path d="M699.4,189.9h1v1h-1V189.9z" fill="#666666" id="path_37" tag_name="svg/g_70/g_78/path_37"/>
      <path d="M705.9,185.2c0.3,0.6,0.5,1.3,0.5,2.3c0,0.9-0.1,1.7-0.4,2.3c-0.4,0.9-1.1,1.3-2,1.3c-0.8,0-1.4-0.4-1.8-1.1    c-0.3-0.6-0.5-1.4-0.5-2.4c0-0.8,0.1-1.4,0.3-2c0.4-1,1.1-1.6,2-1.6C704.8,184.1,705.5,184.5,705.9,185.2z M705,189.8    c0.3-0.4,0.4-1.1,0.4-2.2c0-0.8-0.1-1.4-0.3-1.9c-0.2-0.5-0.6-0.8-1.1-0.8c-0.5,0-0.9,0.2-1.1,0.7c-0.2,0.5-0.4,1.2-0.4,2.1    c0,0.7,0.1,1.3,0.2,1.7c0.2,0.6,0.6,1,1.2,1C704.4,190.4,704.7,190.2,705,189.8z" fill="#666666" id="path_36" tag_name="svg/g_70/g_78/path_36"/>
      <path d="M711.3,185.2c0.3,0.6,0.5,1.3,0.5,2.3c0,0.9-0.1,1.7-0.4,2.3c-0.4,0.9-1.1,1.3-2,1.3c-0.8,0-1.4-0.4-1.8-1.1    c-0.3-0.6-0.5-1.4-0.5-2.4c0-0.8,0.1-1.4,0.3-2c0.4-1,1.1-1.6,2-1.6C710.3,184.1,710.9,184.5,711.3,185.2z M710.4,189.8    c0.3-0.4,0.4-1.1,0.4-2.2c0-0.8-0.1-1.4-0.3-1.9c-0.2-0.5-0.6-0.8-1.1-0.8c-0.5,0-0.9,0.2-1.1,0.7c-0.2,0.5-0.4,1.2-0.4,2.1    c0,0.7,0.1,1.3,0.2,1.7c0.2,0.6,0.6,1,1.2,1C709.8,190.4,710.2,190.2,710.4,189.8z" fill="#666666" id="path_35" tag_name="svg/g_70/g_78/path_35"/>
    </g>
    <g id="g_77" tag_name="svg/g_70/g_77">
      <path d="M688.4,167.4c-0.4-0.4-0.5-1-0.5-1.6h0.9c0,0.4,0.1,0.8,0.2,1c0.2,0.4,0.6,0.5,1.2,0.5c0.5,0,0.8-0.1,1.1-0.4    s0.4-0.6,0.4-0.9c0-0.5-0.1-0.8-0.4-1c-0.3-0.2-0.7-0.3-1.2-0.3c-0.1,0-0.1,0-0.2,0c-0.1,0-0.1,0-0.2,0V164c0.1,0,0.2,0,0.2,0    s0.1,0,0.2,0c0.3,0,0.6-0.1,0.8-0.2c0.4-0.2,0.5-0.5,0.5-1c0-0.3-0.1-0.6-0.4-0.8c-0.2-0.2-0.5-0.3-0.8-0.3c-0.6,0-1,0.2-1.2,0.6    c-0.1,0.2-0.2,0.5-0.2,0.9h-0.9c0-0.5,0.1-0.9,0.3-1.3c0.4-0.6,1-1,1.9-1c0.7,0,1.2,0.2,1.6,0.5c0.4,0.3,0.6,0.8,0.6,1.4    c0,0.4-0.1,0.8-0.3,1c-0.1,0.2-0.3,0.3-0.5,0.4c0.4,0.1,0.6,0.3,0.8,0.6c0.2,0.3,0.3,0.6,0.3,1c0,0.7-0.2,1.2-0.6,1.6    c-0.4,0.4-1,0.6-1.8,0.6C689.4,168.1,688.8,167.9,688.4,167.4z" fill="#666666" id="path_34" tag_name="svg/g_70/g_77/path_34"/>
      <path d="M693.8,166.4c0.2-0.4,0.6-0.8,1.2-1.2l0.9-0.5c0.4-0.2,0.7-0.4,0.9-0.6c0.3-0.3,0.4-0.6,0.4-0.9    c0-0.4-0.1-0.7-0.4-1s-0.6-0.4-1-0.4c-0.6,0-1,0.2-1.2,0.7c-0.1,0.2-0.2,0.6-0.2,1h-0.9c0-0.6,0.1-1.1,0.3-1.5c0.4-0.7,1-1,2-1    c0.8,0,1.4,0.2,1.7,0.6c0.4,0.4,0.5,0.9,0.5,1.4c0,0.5-0.2,1-0.6,1.4c-0.2,0.2-0.6,0.5-1.2,0.8l-0.7,0.4c-0.3,0.2-0.6,0.3-0.7,0.5    c-0.3,0.3-0.5,0.6-0.6,0.9h3.7v0.8h-4.7C693.5,167.3,693.6,166.8,693.8,166.4z" fill="#666666" id="path_33" tag_name="svg/g_70/g_77/path_33"/>
      <path d="M699.4,166.9h1v1h-1V166.9z" fill="#666666" id="path_32" tag_name="svg/g_70/g_77/path_32"/>
      <path d="M705.9,162.2c0.3,0.6,0.5,1.3,0.5,2.3c0,0.9-0.1,1.7-0.4,2.3c-0.4,0.9-1.1,1.3-2,1.3c-0.8,0-1.4-0.4-1.8-1.1    c-0.3-0.6-0.5-1.4-0.5-2.4c0-0.8,0.1-1.4,0.3-2c0.4-1,1.1-1.6,2-1.6C704.8,161.1,705.5,161.4,705.9,162.2z M705,166.7    c0.3-0.4,0.4-1.1,0.4-2.2c0-0.8-0.1-1.4-0.3-1.9c-0.2-0.5-0.6-0.8-1.1-0.8c-0.5,0-0.9,0.2-1.1,0.7c-0.2,0.5-0.4,1.2-0.4,2.1    c0,0.7,0.1,1.3,0.2,1.7c0.2,0.6,0.6,1,1.2,1C704.4,167.3,704.7,167.1,705,166.7z" fill="#666666" id="path_31" tag_name="svg/g_70/g_77/path_31"/>
      <path d="M711.3,162.2c0.3,0.6,0.5,1.3,0.5,2.3c0,0.9-0.1,1.7-0.4,2.3c-0.4,0.9-1.1,1.3-2,1.3c-0.8,0-1.4-0.4-1.8-1.1    c-0.3-0.6-0.5-1.4-0.5-2.4c0-0.8,0.1-1.4,0.3-2c0.4-1,1.1-1.6,2-1.6C710.3,161.1,710.9,161.4,711.3,162.2z M710.4,166.7    c0.3-0.4,0.4-1.1,0.4-2.2c0-0.8-0.1-1.4-0.3-1.9c-0.2-0.5-0.6-0.8-1.1-0.8c-0.5,0-0.9,0.2-1.1,0.7c-0.2,0.5-0.4,1.2-0.4,2.1    c0,0.7,0.1,1.3,0.2,1.7c0.2,0.6,0.6,1,1.2,1C709.8,167.3,710.2,167.1,710.4,166.7z" fill="#666666" id="path_30" tag_name="svg/g_70/g_77/path_30"/>
    </g>
    <g id="g_76" tag_name="svg/g_70/g_76">
      <path d="M688.4,145.9c-0.4-0.4-0.5-1-0.5-1.6h0.9c0,0.4,0.1,0.8,0.2,1c0.2,0.4,0.6,0.5,1.2,0.5c0.5,0,0.8-0.1,1.1-0.4    c0.3-0.2,0.4-0.6,0.4-0.9c0-0.5-0.1-0.8-0.4-1c-0.3-0.2-0.7-0.3-1.2-0.3c-0.1,0-0.1,0-0.2,0c-0.1,0-0.1,0-0.2,0v-0.8    c0.1,0,0.2,0,0.2,0c0.1,0,0.1,0,0.2,0c0.3,0,0.6-0.1,0.8-0.2c0.4-0.2,0.5-0.5,0.5-1c0-0.3-0.1-0.6-0.4-0.8    c-0.2-0.2-0.5-0.3-0.8-0.3c-0.6,0-1,0.2-1.2,0.6c-0.1,0.2-0.2,0.5-0.2,0.9h-0.9c0-0.5,0.1-0.9,0.3-1.3c0.4-0.6,1-1,1.9-1    c0.7,0,1.2,0.2,1.6,0.5s0.6,0.8,0.6,1.4c0,0.4-0.1,0.8-0.3,1c-0.1,0.2-0.3,0.3-0.5,0.4c0.4,0.1,0.6,0.3,0.8,0.6    c0.2,0.3,0.3,0.6,0.3,1c0,0.7-0.2,1.2-0.6,1.6s-1,0.6-1.8,0.6C689.4,146.6,688.8,146.3,688.4,145.9z" fill="#666666" id="path_29" tag_name="svg/g_70/g_76/path_29"/>
      <path d="M696.4,146.4v-1.7h-3v-0.8l3.1-4.4h0.7v4.4h1v0.8h-1v1.7H696.4z M696.4,143.9v-3.1l-2.2,3.1H696.4z" fill="#666666" id="path_28" tag_name="svg/g_70/g_76/path_28"/>
      <path d="M699.4,145.3h1v1h-1V145.3z" fill="#666666" id="path_27" tag_name="svg/g_70/g_76/path_27"/>
      <path d="M705.9,140.6c0.3,0.6,0.5,1.3,0.5,2.3c0,0.9-0.1,1.7-0.4,2.3c-0.4,0.9-1.1,1.3-2,1.3c-0.8,0-1.4-0.4-1.8-1.1    c-0.3-0.6-0.5-1.4-0.5-2.4c0-0.8,0.1-1.4,0.3-2c0.4-1,1.1-1.6,2-1.6C704.8,139.5,705.5,139.9,705.9,140.6z M705,145.2    c0.3-0.4,0.4-1.1,0.4-2.2c0-0.8-0.1-1.4-0.3-1.9c-0.2-0.5-0.6-0.8-1.1-0.8c-0.5,0-0.9,0.2-1.1,0.7c-0.2,0.5-0.4,1.2-0.4,2.1    c0,0.7,0.1,1.3,0.2,1.7c0.2,0.6,0.6,1,1.2,1C704.4,145.8,704.7,145.6,705,145.2z" fill="#666666" id="path_26" tag_name="svg/g_70/g_76/path_26"/>
      <path d="M711.3,140.6c0.3,0.6,0.5,1.3,0.5,2.3c0,0.9-0.1,1.7-0.4,2.3c-0.4,0.9-1.1,1.3-2,1.3c-0.8,0-1.4-0.4-1.8-1.1    c-0.3-0.6-0.5-1.4-0.5-2.4c0-0.8,0.1-1.4,0.3-2c0.4-1,1.1-1.6,2-1.6C710.3,139.5,710.9,139.9,711.3,140.6z M710.4,145.2    c0.3-0.4,0.4-1.1,0.4-2.2c0-0.8-0.1-1.4-0.3-1.9c-0.2-0.5-0.6-0.8-1.1-0.8c-0.5,0-0.9,0.2-1.1,0.7c-0.2,0.5-0.4,1.2-0.4,2.1    c0,0.7,0.1,1.3,0.2,1.7c0.2,0.6,0.6,1,1.2,1C709.8,145.8,710.2,145.6,710.4,145.2z" fill="#666666" id="path_25" tag_name="svg/g_70/g_76/path_25"/>
    </g>
    <g id="g_75" tag_name="svg/g_70/g_75">
      <path d="M688.4,123.7c-0.4-0.4-0.5-1-0.5-1.6h0.9c0,0.4,0.1,0.8,0.2,1c0.2,0.4,0.6,0.5,1.2,0.5c0.5,0,0.8-0.1,1.1-0.4    c0.3-0.2,0.4-0.6,0.4-0.9c0-0.5-0.1-0.8-0.4-1c-0.3-0.2-0.7-0.3-1.2-0.3c-0.1,0-0.1,0-0.2,0c-0.1,0-0.1,0-0.2,0v-0.8    c0.1,0,0.2,0,0.2,0c0.1,0,0.1,0,0.2,0c0.3,0,0.6-0.1,0.8-0.2c0.4-0.2,0.5-0.5,0.5-1c0-0.3-0.1-0.6-0.4-0.8    c-0.2-0.2-0.5-0.3-0.8-0.3c-0.6,0-1,0.2-1.2,0.6c-0.1,0.2-0.2,0.5-0.2,0.9h-0.9c0-0.5,0.1-0.9,0.3-1.3c0.4-0.6,1-1,1.9-1    c0.7,0,1.2,0.2,1.6,0.5s0.6,0.8,0.6,1.4c0,0.4-0.1,0.8-0.3,1c-0.1,0.2-0.3,0.3-0.5,0.4c0.4,0.1,0.6,0.3,0.8,0.6    c0.2,0.3,0.3,0.6,0.3,1c0,0.7-0.2,1.2-0.6,1.6s-1,0.6-1.8,0.6C689.4,124.3,688.8,124.1,688.4,123.7z" fill="#666666" id="path_24" tag_name="svg/g_70/g_75/path_24"/>
      <path d="M697.6,117.9c0.3,0.4,0.5,0.8,0.5,1.2h-0.9c-0.1-0.3-0.1-0.5-0.2-0.6c-0.2-0.3-0.5-0.4-0.9-0.4    c-0.5,0-0.9,0.2-1.1,0.7c-0.3,0.4-0.4,1.1-0.5,1.9c0.2-0.3,0.4-0.5,0.7-0.7c0.3-0.1,0.6-0.2,0.9-0.2c0.6,0,1.1,0.2,1.5,0.6    c0.4,0.4,0.6,0.9,0.6,1.6c0,0.6-0.2,1.2-0.6,1.7c-0.4,0.5-1,0.7-1.7,0.7c-0.6,0-1.2-0.2-1.7-0.7c-0.5-0.5-0.7-1.3-0.7-2.5    c0-0.9,0.1-1.6,0.3-2.2c0.4-1.1,1.1-1.7,2.2-1.7C696.7,117.3,697.3,117.5,697.6,117.9z M696.9,123.1c0.2-0.3,0.3-0.7,0.3-1.1    c0-0.4-0.1-0.7-0.3-1c-0.2-0.3-0.6-0.5-1.1-0.5c-0.4,0-0.7,0.1-1,0.4c-0.3,0.2-0.4,0.6-0.4,1.1c0,0.4,0.1,0.8,0.4,1.1    c0.3,0.3,0.6,0.4,1.1,0.4C696.4,123.6,696.7,123.4,696.9,123.1z" fill="#666666" id="path_23" tag_name="svg/g_70/g_75/path_23"/>
      <path d="M699.4,123.1h1v1h-1V123.1z" fill="#666666" id="path_22" tag_name="svg/g_70/g_75/path_22"/>
      <path d="M705.9,118.4c0.3,0.6,0.5,1.3,0.5,2.3c0,0.9-0.1,1.7-0.4,2.3c-0.4,0.9-1.1,1.3-2,1.3c-0.8,0-1.4-0.4-1.8-1.1    c-0.3-0.6-0.5-1.4-0.5-2.4c0-0.8,0.1-1.4,0.3-2c0.4-1,1.1-1.6,2-1.6C704.8,117.3,705.5,117.7,705.9,118.4z M705,123    c0.3-0.4,0.4-1.1,0.4-2.2c0-0.8-0.1-1.4-0.3-1.9c-0.2-0.5-0.6-0.8-1.1-0.8c-0.5,0-0.9,0.2-1.1,0.7c-0.2,0.5-0.4,1.2-0.4,2.1    c0,0.7,0.1,1.3,0.2,1.7c0.2,0.6,0.6,1,1.2,1C704.4,123.5,704.7,123.4,705,123z" fill="#666666" id="path_21" tag_name="svg/g_70/g_75/path_21"/>
      <path d="M711.3,118.4c0.3,0.6,0.5,1.3,0.5,2.3c0,0.9-0.1,1.7-0.4,2.3c-0.4,0.9-1.1,1.3-2,1.3c-0.8,0-1.4-0.4-1.8-1.1    c-0.3-0.6-0.5-1.4-0.5-2.4c0-0.8,0.1-1.4,0.3-2c0.4-1,1.1-1.6,2-1.6C710.3,117.3,710.9,117.7,711.3,118.4z M710.4,123    c0.3-0.4,0.4-1.1,0.4-2.2c0-0.8-0.1-1.4-0.3-1.9c-0.2-0.5-0.6-0.8-1.1-0.8c-0.5,0-0.9,0.2-1.1,0.7c-0.2,0.5-0.4,1.2-0.4,2.1    c0,0.7,0.1,1.3,0.2,1.7c0.2,0.6,0.6,1,1.2,1C709.8,123.5,710.2,123.4,710.4,123z" fill="#666666" id="path_20" tag_name="svg/g_70/g_75/path_20"/>
    </g>
    <g id="g_74" tag_name="svg/g_70/g_74">
      <path d="M688.4,101.4c-0.4-0.4-0.5-1-0.5-1.6h0.9c0,0.4,0.1,0.8,0.2,1c0.2,0.4,0.6,0.5,1.2,0.5c0.5,0,0.8-0.1,1.1-0.4    c0.3-0.2,0.4-0.6,0.4-0.9c0-0.5-0.1-0.8-0.4-1c-0.3-0.2-0.7-0.3-1.2-0.3c-0.1,0-0.1,0-0.2,0c-0.1,0-0.1,0-0.2,0V98    c0.1,0,0.2,0,0.2,0c0.1,0,0.1,0,0.2,0c0.3,0,0.6-0.1,0.8-0.2c0.4-0.2,0.5-0.5,0.5-1c0-0.3-0.1-0.6-0.4-0.8    c-0.2-0.2-0.5-0.3-0.8-0.3c-0.6,0-1,0.2-1.2,0.6c-0.1,0.2-0.2,0.5-0.2,0.9h-0.9c0-0.5,0.1-0.9,0.3-1.3c0.4-0.6,1-1,1.9-1    c0.7,0,1.2,0.2,1.6,0.5s0.6,0.8,0.6,1.4c0,0.4-0.1,0.8-0.3,1c-0.1,0.2-0.3,0.3-0.5,0.4c0.4,0.1,0.6,0.3,0.8,0.6    c0.2,0.3,0.3,0.6,0.3,1c0,0.7-0.2,1.2-0.6,1.6s-1,0.6-1.8,0.6C689.4,102.1,688.8,101.9,688.4,101.4z" fill="#666666" id="path_19" tag_name="svg/g_70/g_74/path_19"/>
      <path d="M694,97.9c-0.3-0.3-0.4-0.6-0.4-1c0-0.5,0.2-0.9,0.6-1.3c0.4-0.4,0.9-0.6,1.6-0.6c0.7,0,1.2,0.2,1.5,0.5    s0.6,0.8,0.6,1.2c0,0.4-0.1,0.8-0.3,1c-0.1,0.1-0.3,0.3-0.6,0.4c0.3,0.1,0.5,0.3,0.7,0.5c0.3,0.3,0.5,0.7,0.5,1.2    c0,0.6-0.2,1.1-0.6,1.5s-1,0.6-1.7,0.6c-0.7,0-1.2-0.2-1.7-0.5c-0.5-0.4-0.7-0.9-0.7-1.6c0-0.4,0.1-0.8,0.3-1.1    c0.2-0.3,0.5-0.5,0.9-0.7C694.4,98.2,694.2,98.1,694,97.9z M696.8,101c0.3-0.2,0.4-0.5,0.4-1c0-0.4-0.1-0.8-0.4-1    c-0.3-0.2-0.6-0.3-1-0.3c-0.4,0-0.7,0.1-1,0.4c-0.3,0.2-0.4,0.6-0.4,1c0,0.4,0.1,0.7,0.4,0.9c0.2,0.3,0.6,0.4,1.1,0.4    C696.2,101.3,696.6,101.2,696.8,101z M696.7,97.6c0.2-0.2,0.3-0.5,0.3-0.8c0-0.3-0.1-0.5-0.3-0.7s-0.5-0.3-0.9-0.3    c-0.4,0-0.7,0.1-0.9,0.3c-0.2,0.2-0.3,0.5-0.3,0.8c0,0.3,0.1,0.6,0.4,0.8c0.2,0.2,0.5,0.3,0.8,0.3    C696.2,97.9,696.5,97.8,696.7,97.6z" fill="#666666" id="path_18" tag_name="svg/g_70/g_74/path_18"/>
      <path d="M699.4,100.9h1v1h-1V100.9z" fill="#666666" id="path_17" tag_name="svg/g_70/g_74/path_17"/>
      <path d="M705.9,96.2c0.3,0.6,0.5,1.3,0.5,2.3c0,0.9-0.1,1.7-0.4,2.3c-0.4,0.9-1.1,1.3-2,1.3c-0.8,0-1.4-0.4-1.8-1.1    c-0.3-0.6-0.5-1.4-0.5-2.4c0-0.8,0.1-1.4,0.3-2c0.4-1,1.1-1.6,2-1.6C704.8,95.1,705.5,95.4,705.9,96.2z M705,100.7    c0.3-0.4,0.4-1.1,0.4-2.2c0-0.8-0.1-1.4-0.3-1.9c-0.2-0.5-0.6-0.8-1.1-0.8c-0.5,0-0.9,0.2-1.1,0.7c-0.2,0.5-0.4,1.2-0.4,2.1    c0,0.7,0.1,1.3,0.2,1.7c0.2,0.6,0.6,1,1.2,1C704.4,101.3,704.7,101.1,705,100.7z" fill="#666666" id="path_16" tag_name="svg/g_70/g_74/path_16"/>
      <path d="M711.3,96.2c0.3,0.6,0.5,1.3,0.5,2.3c0,0.9-0.1,1.7-0.4,2.3c-0.4,0.9-1.1,1.3-2,1.3c-0.8,0-1.4-0.4-1.8-1.1    c-0.3-0.6-0.5-1.4-0.5-2.4c0-0.8,0.1-1.4,0.3-2c0.4-1,1.1-1.6,2-1.6C710.3,95.1,710.9,95.4,711.3,96.2z M710.4,100.7    c0.3-0.4,0.4-1.1,0.4-2.2c0-0.8-0.1-1.4-0.3-1.9c-0.2-0.5-0.6-0.8-1.1-0.8c-0.5,0-0.9,0.2-1.1,0.7c-0.2,0.5-0.4,1.2-0.4,2.1    c0,0.7,0.1,1.3,0.2,1.7c0.2,0.6,0.6,1,1.2,1C709.8,101.3,710.2,101.1,710.4,100.7z" fill="#666666" id="path_15" tag_name="svg/g_70/g_74/path_15"/>
    </g>
    <g id="g_73" tag_name="svg/g_70/g_73">
      <path d="M690.9,79.7V78h-3v-0.8l3.1-4.4h0.7v4.4h1V78h-1v1.7H690.9z M690.9,77.3v-3.1l-2.2,3.1H690.9z" fill="#666666" id="path_14" tag_name="svg/g_70/g_73/path_14"/>
      <path d="M697.7,74c0.3,0.6,0.5,1.3,0.5,2.3c0,0.9-0.1,1.7-0.4,2.3c-0.4,0.9-1.1,1.3-2,1.3c-0.8,0-1.4-0.4-1.8-1.1    c-0.3-0.6-0.5-1.4-0.5-2.4c0-0.8,0.1-1.4,0.3-2c0.4-1,1.1-1.6,2-1.6C696.7,72.9,697.3,73.2,697.7,74z M696.8,78.5    c0.3-0.4,0.4-1.1,0.4-2.2c0-0.8-0.1-1.4-0.3-1.9c-0.2-0.5-0.6-0.8-1.1-0.8c-0.5,0-0.9,0.2-1.1,0.7c-0.2,0.5-0.4,1.2-0.4,2.1    c0,0.7,0.1,1.3,0.2,1.7c0.2,0.6,0.6,1,1.2,1C696.2,79.1,696.6,78.9,696.8,78.5z" fill="#666666" id="path_13" tag_name="svg/g_70/g_73/path_13"/>
      <path d="M699.4,78.7h1v1h-1V78.7z" fill="#666666" id="path_12" tag_name="svg/g_70/g_73/path_12"/>
      <path d="M705.9,74c0.3,0.6,0.5,1.3,0.5,2.3c0,0.9-0.1,1.7-0.4,2.3c-0.4,0.9-1.1,1.3-2,1.3c-0.8,0-1.4-0.4-1.8-1.1    c-0.3-0.6-0.5-1.4-0.5-2.4c0-0.8,0.1-1.4,0.3-2c0.4-1,1.1-1.6,2-1.6C704.8,72.9,705.5,73.2,705.9,74z M705,78.5    c0.3-0.4,0.4-1.1,0.4-2.2c0-0.8-0.1-1.4-0.3-1.9c-0.2-0.5-0.6-0.8-1.1-0.8c-0.5,0-0.9,0.2-1.1,0.7c-0.2,0.5-0.4,1.2-0.4,2.1    c0,0.7,0.1,1.3,0.2,1.7c0.2,0.6,0.6,1,1.2,1C704.4,79.1,704.7,78.9,705,78.5z" fill="#666666" id="path_11" tag_name="svg/g_70/g_73/path_11"/>
      <path d="M711.3,74c0.3,0.6,0.5,1.3,0.5,2.3c0,0.9-0.1,1.7-0.4,2.3c-0.4,0.9-1.1,1.3-2,1.3c-0.8,0-1.4-0.4-1.8-1.1    c-0.3-0.6-0.5-1.4-0.5-2.4c0-0.8,0.1-1.4,0.3-2c0.4-1,1.1-1.6,2-1.6C710.3,72.9,710.9,73.2,711.3,74z M710.4,78.5    c0.3-0.4,0.4-1.1,0.4-2.2c0-0.8-0.1-1.4-0.3-1.9c-0.2-0.5-0.6-0.8-1.1-0.8c-0.5,0-0.9,0.2-1.1,0.7c-0.2,0.5-0.4,1.2-0.4,2.1    c0,0.7,0.1,1.3,0.2,1.7c0.2,0.6,0.6,1,1.2,1C709.8,79.1,710.2,78.9,710.4,78.5z" fill="#666666" id="path_10" tag_name="svg/g_70/g_73/path_10"/>
    </g>
    <g id="g_72" tag_name="svg/g_70/g_72">
      <path d="M690.9,58.1v-1.7h-3v-0.8l3.1-4.4h0.7v4.4h1v0.8h-1v1.7H690.9z M690.9,55.7v-3.1l-2.2,3.1H690.9z" fill="#666666" id="path_9" tag_name="svg/g_70/g_72/path_9"/>
      <path d="M693.8,56.6c0.2-0.4,0.6-0.8,1.2-1.2l0.9-0.5c0.4-0.2,0.7-0.4,0.9-0.6c0.3-0.3,0.4-0.6,0.4-0.9    c0-0.4-0.1-0.7-0.4-1s-0.6-0.4-1-0.4c-0.6,0-1,0.2-1.2,0.7c-0.1,0.2-0.2,0.6-0.2,1h-0.9c0-0.6,0.1-1.1,0.3-1.5c0.4-0.7,1-1,2-1    c0.8,0,1.4,0.2,1.7,0.6c0.4,0.4,0.5,0.9,0.5,1.4c0,0.5-0.2,1-0.6,1.4c-0.2,0.2-0.6,0.5-1.2,0.8l-0.7,0.4c-0.3,0.2-0.6,0.3-0.7,0.5    c-0.3,0.3-0.5,0.6-0.6,0.9h3.7v0.8h-4.7C693.5,57.6,693.6,57,693.8,56.6z" fill="#666666" id="path_8" tag_name="svg/g_70/g_72/path_8"/>
      <path d="M699.4,57.1h1v1h-1V57.1z" fill="#666666" id="path_7" tag_name="svg/g_70/g_72/path_7"/>
      <path d="M705.9,52.4c0.3,0.6,0.5,1.3,0.5,2.3c0,0.9-0.1,1.7-0.4,2.3c-0.4,0.9-1.1,1.3-2,1.3c-0.8,0-1.4-0.4-1.8-1.1    c-0.3-0.6-0.5-1.4-0.5-2.4c0-0.8,0.1-1.4,0.3-2c0.4-1,1.1-1.6,2-1.6C704.8,51.3,705.5,51.7,705.9,52.4z M705,57    c0.3-0.4,0.4-1.1,0.4-2.2c0-0.8-0.1-1.4-0.3-1.9c-0.2-0.5-0.6-0.8-1.1-0.8c-0.5,0-0.9,0.2-1.1,0.7c-0.2,0.5-0.4,1.2-0.4,2.1    c0,0.7,0.1,1.3,0.2,1.7c0.2,0.6,0.6,1,1.2,1C704.4,57.5,704.7,57.4,705,57z" fill="#666666" id="path_6" tag_name="svg/g_70/g_72/path_6"/>
      <path d="M711.3,52.4c0.3,0.6,0.5,1.3,0.5,2.3c0,0.9-0.1,1.7-0.4,2.3c-0.4,0.9-1.1,1.3-2,1.3c-0.8,0-1.4-0.4-1.8-1.1    c-0.3-0.6-0.5-1.4-0.5-2.4c0-0.8,0.1-1.4,0.3-2c0.4-1,1.1-1.6,2-1.6C710.3,51.3,710.9,51.7,711.3,52.4z M710.4,57    c0.3-0.4,0.4-1.1,0.4-2.2c0-0.8-0.1-1.4-0.3-1.9c-0.2-0.5-0.6-0.8-1.1-0.8c-0.5,0-0.9,0.2-1.1,0.7c-0.2,0.5-0.4,1.2-0.4,2.1    c0,0.7,0.1,1.3,0.2,1.7c0.2,0.6,0.6,1,1.2,1C709.8,57.5,710.2,57.4,710.4,57z" fill="#666666" id="path_5" tag_name="svg/g_70/g_72/path_5"/>
    </g>
    <g id="g_71" tag_name="svg/g_70/g_71">
      <path d="M690.9,35.3v-1.7h-3v-0.8l3.1-4.4h0.7v4.4h1v0.8h-1v1.7H690.9z M690.9,32.8v-3.1l-2.2,3.1H690.9z" fill="#666666" id="path_4" tag_name="svg/g_70/g_71/path_4"/>
      <path d="M696.4,35.3v-1.7h-3v-0.8l3.1-4.4h0.7v4.4h1v0.8h-1v1.7H696.4z M696.4,32.8v-3.1l-2.2,3.1H696.4z" fill="#666666" id="path_3" tag_name="svg/g_70/g_71/path_3"/>
      <path d="M699.4,34.2h1v1h-1V34.2z" fill="#666666" id="path_2" tag_name="svg/g_70/g_71/path_2"/>
      <path d="M705.9,29.5c0.3,0.6,0.5,1.3,0.5,2.3c0,0.9-0.1,1.7-0.4,2.3c-0.4,0.9-1.1,1.3-2,1.3c-0.8,0-1.4-0.4-1.8-1.1    c-0.3-0.6-0.5-1.4-0.5-2.4c0-0.8,0.1-1.4,0.3-2c0.4-1,1.1-1.6,2-1.6C704.8,28.4,705.5,28.8,705.9,29.5z M705,34.1    c0.3-0.4,0.4-1.1,0.4-2.2c0-0.8-0.1-1.4-0.3-1.9c-0.2-0.5-0.6-0.8-1.1-0.8c-0.5,0-0.9,0.2-1.1,0.7c-0.2,0.5-0.4,1.2-0.4,2.1    c0,0.7,0.1,1.3,0.2,1.7c0.2,0.6,0.6,1,1.2,1C704.4,34.7,704.7,34.5,705,34.1z" fill="#666666" id="path_1" tag_name="svg/g_70/g_71/path_1"/>
      <path d="M711.3,29.5c0.3,0.6,0.5,1.3,0.5,2.3c0,0.9-0.1,1.7-0.4,2.3c-0.4,0.9-1.1,1.3-2,1.3c-0.8,0-1.4-0.4-1.8-1.1    c-0.3-0.6-0.5-1.4-0.5-2.4c0-0.8,0.1-1.4,0.3-2c0.4-1,1.1-1.6,2-1.6C710.3,28.4,710.9,28.8,711.3,29.5z M710.4,34.1    c0.3-0.4,0.4-1.1,0.4-2.2c0-0.8-0.1-1.4-0.3-1.9c-0.2-0.5-0.6-0.8-1.1-0.8c-0.5,0-0.9,0.2-1.1,0.7c-0.2,0.5-0.4,1.2-0.4,2.1    c0,0.7,0.1,1.3,0.2,1.7c0.2,0.6,0.6,1,1.2,1C709.8,34.7,710.2,34.5,710.4,34.1z" fill="#666666" id="path" tag_name="svg/g_70/g_71/path"/>
    </g>
  </g>
  <g id="g" tag_name="svg/g">
    <g id="g_69" tag_name="svg/g/g_69">
      <line x1="75.7" y1="170" x2="86.2" y2="158.7" fill="none" stroke="#8CC63F" stroke-width="3" stroke-linecap="round" id="line_117" tag_name="svg/g/g_69/line_117"/>
      <line x1="75.8" y1="158.7" x2="86.2" y2="170" fill="none" stroke="#8CC63F" stroke-width="3" stroke-linecap="round" id="line_116" tag_name="svg/g/g_69/line_116"/>
    </g>
    <g id="g_68" tag_name="svg/g/g_68">
      <line x1="119.8" y1="236.6" x2="130.3" y2="225.4" fill="none" stroke="#8CC63F" stroke-width="3" stroke-linecap="round" id="line_115" tag_name="svg/g/g_68/line_115"/>
      <line x1="119.9" y1="225.4" x2="130.3" y2="236.6" fill="none" stroke="#8CC63F" stroke-width="3" stroke-linecap="round" id="line_114" tag_name="svg/g/g_68/line_114"/>
    </g>
    <g id="g_67" tag_name="svg/g/g_67">
      <line x1="119.8" y1="214.6" x2="130.3" y2="203.3" fill="none" stroke="#8CC63F" stroke-width="3" stroke-linecap="round" id="line_113" tag_name="svg/g/g_67/line_113"/>
      <line x1="119.9" y1="203.3" x2="130.3" y2="214.6" fill="none" stroke="#8CC63F" stroke-width="3" stroke-linecap="round" id="line_112" tag_name="svg/g/g_67/line_112"/>
    </g>
    <g id="g_66" tag_name="svg/g/g_66">
      <line x1="119.8" y1="192" x2="130.3" y2="180.8" fill="none" stroke="#8CC63F" stroke-width="3" stroke-linecap="round" id="line_111" tag_name="svg/g/g_66/line_111"/>
      <line x1="119.9" y1="180.8" x2="130.3" y2="192" fill="none" stroke="#8CC63F" stroke-width="3" stroke-linecap="round" id="line_110" tag_name="svg/g/g_66/line_110"/>
    </g>
    <g id="g_65" tag_name="svg/g/g_65">
      <line x1="119.8" y1="170.5" x2="130.3" y2="159.2" fill="none" stroke="#8CC63F" stroke-width="3" stroke-linecap="round" id="line_109" tag_name="svg/g/g_65/line_109"/>
      <line x1="119.9" y1="159.2" x2="130.3" y2="170.5" fill="none" stroke="#8CC63F" stroke-width="3" stroke-linecap="round" id="line_108" tag_name="svg/g/g_65/line_108"/>
    </g>
    <g id="g_64" tag_name="svg/g/g_64">
      <line x1="293.8" y1="192" x2="304.3" y2="180.8" fill="none" stroke="#8CC63F" stroke-width="3" stroke-linecap="round" id="line_107" tag_name="svg/g/g_64/line_107"/>
      <line x1="293.9" y1="180.8" x2="304.3" y2="192" fill="none" stroke="#8CC63F" stroke-width="3" stroke-linecap="round" id="line_106" tag_name="svg/g/g_64/line_106"/>
    </g>
    <g id="g_63" tag_name="svg/g/g_63">
      <line x1="293.8" y1="169.5" x2="304.3" y2="158.2" fill="none" stroke="#8CC63F" stroke-width="3" stroke-linecap="round" id="line_105" tag_name="svg/g/g_63/line_105"/>
      <line x1="293.9" y1="158.2" x2="304.3" y2="169.5" fill="none" stroke="#8CC63F" stroke-width="3" stroke-linecap="round" id="line_104" tag_name="svg/g/g_63/line_104"/>
    </g>
    <g id="g_62" tag_name="svg/g/g_62">
      <line x1="293.8" y1="147.9" x2="304.3" y2="136.6" fill="none" stroke="#8CC63F" stroke-width="3" stroke-linecap="round" id="line_103" tag_name="svg/g/g_62/line_103"/>
      <line x1="293.9" y1="136.6" x2="304.3" y2="147.9" fill="none" stroke="#8CC63F" stroke-width="3" stroke-linecap="round" id="line_102" tag_name="svg/g/g_62/line_102"/>
    </g>
    <g id="g_61" tag_name="svg/g/g_61">
      <line x1="337.9" y1="214.1" x2="348.4" y2="202.8" fill="none" stroke="#8CC63F" stroke-width="3" stroke-linecap="round" id="line_101" tag_name="svg/g/g_61/line_101"/>
      <line x1="338" y1="202.8" x2="348.4" y2="214.1" fill="none" stroke="#8CC63F" stroke-width="3" stroke-linecap="round" id="line_100" tag_name="svg/g/g_61/line_100"/>
    </g>
    <g id="g_60" tag_name="svg/g/g_60">
      <line x1="337.9" y1="191.5" x2="348.4" y2="180.3" fill="none" stroke="#8CC63F" stroke-width="3" stroke-linecap="round" id="line_99" tag_name="svg/g/g_60/line_99"/>
      <line x1="338" y1="180.3" x2="348.4" y2="191.5" fill="none" stroke="#8CC63F" stroke-width="3" stroke-linecap="round" id="line_98" tag_name="svg/g/g_60/line_98"/>
    </g>
    <g id="g_59" tag_name="svg/g/g_59">
      <line x1="337.9" y1="170" x2="348.4" y2="158.7" fill="none" stroke="#8CC63F" stroke-width="3" stroke-linecap="round" id="line_97" tag_name="svg/g/g_59/line_97"/>
      <line x1="338" y1="158.7" x2="348.4" y2="170" fill="none" stroke="#8CC63F" stroke-width="3" stroke-linecap="round" id="line_96" tag_name="svg/g/g_59/line_96"/>
    </g>
    <g id="g_58" tag_name="svg/g/g_58">
      <line x1="382.4" y1="237" x2="392.8" y2="225.7" fill="none" stroke="#8CC63F" stroke-width="3" stroke-linecap="round" id="line_95" tag_name="svg/g/g_58/line_95"/>
      <line x1="382.4" y1="225.7" x2="392.9" y2="237" fill="none" stroke="#8CC63F" stroke-width="3" stroke-linecap="round" id="line_94" tag_name="svg/g/g_58/line_94"/>
    </g>
    <g id="g_57" tag_name="svg/g/g_57">
      <line x1="382.4" y1="214.4" x2="392.8" y2="203.1" fill="none" stroke="#8CC63F" stroke-width="3" stroke-linecap="round" id="line_93" tag_name="svg/g/g_57/line_93"/>
      <line x1="382.4" y1="203.1" x2="392.9" y2="214.4" fill="none" stroke="#8CC63F" stroke-width="3" stroke-linecap="round" id="line_92" tag_name="svg/g/g_57/line_92"/>
    </g>
    <g id="g_56" tag_name="svg/g/g_56">
      <line x1="425.2" y1="258.8" x2="435.6" y2="247.6" fill="none" stroke="#8CC63F" stroke-width="3" stroke-linecap="round" id="line_91" tag_name="svg/g/g_56/line_91"/>
      <line x1="425.2" y1="247.6" x2="435.7" y2="258.8" fill="none" stroke="#8CC63F" stroke-width="3" stroke-linecap="round" id="line_90" tag_name="svg/g/g_56/line_90"/>
    </g>
    <g id="g_55" tag_name="svg/g/g_55">
      <line x1="425.2" y1="236.3" x2="435.6" y2="225" fill="none" stroke="#8CC63F" stroke-width="3" stroke-linecap="round" id="line_89" tag_name="svg/g/g_55/line_89"/>
      <line x1="425.2" y1="225" x2="435.7" y2="236.3" fill="none" stroke="#8CC63F" stroke-width="3" stroke-linecap="round" id="line_88" tag_name="svg/g/g_55/line_88"/>
    </g>
    <g id="g_54" tag_name="svg/g/g_54">
      <line x1="469.3" y1="258.8" x2="479.7" y2="247.6" fill="none" stroke="#8CC63F" stroke-width="3" stroke-linecap="round" id="line_87" tag_name="svg/g/g_54/line_87"/>
      <line x1="469.3" y1="247.6" x2="479.8" y2="258.8" fill="none" stroke="#8CC63F" stroke-width="3" stroke-linecap="round" id="line_86" tag_name="svg/g/g_54/line_86"/>
    </g>
    <g id="g_53" tag_name="svg/g/g_53">
      <line x1="469.3" y1="236.3" x2="479.7" y2="225" fill="none" stroke="#8CC63F" stroke-width="3" stroke-linecap="round" id="line_85" tag_name="svg/g/g_53/line_85"/>
      <line x1="469.3" y1="225" x2="479.8" y2="236.3" fill="none" stroke="#8CC63F" stroke-width="3" stroke-linecap="round" id="line_84" tag_name="svg/g/g_53/line_84"/>
    </g>
    <g id="g_52" tag_name="svg/g/g_52">
      <line x1="469.3" y1="214.7" x2="479.7" y2="203.5" fill="none" stroke="#8CC63F" stroke-width="3" stroke-linecap="round" id="line_83" tag_name="svg/g/g_52/line_83"/>
      <line x1="469.3" y1="203.5" x2="479.8" y2="214.7" fill="none" stroke="#8CC63F" stroke-width="3" stroke-linecap="round" id="line_82" tag_name="svg/g/g_52/line_82"/>
    </g>
    <g id="g_51" tag_name="svg/g/g_51">
      <line x1="512.7" y1="236.2" x2="523.2" y2="224.9" fill="none" stroke="#8CC63F" stroke-width="3" stroke-linecap="round" id="line_81" tag_name="svg/g/g_51/line_81"/>
      <line x1="512.8" y1="224.9" x2="523.2" y2="236.2" fill="none" stroke="#8CC63F" stroke-width="3" stroke-linecap="round" id="line_80" tag_name="svg/g/g_51/line_80"/>
    </g>
    <g id="g_50" tag_name="svg/g/g_50">
      <line x1="512.7" y1="213.7" x2="523.2" y2="202.4" fill="none" stroke="#8CC63F" stroke-width="3" stroke-linecap="round" id="line_79" tag_name="svg/g/g_50/line_79"/>
      <line x1="512.8" y1="202.4" x2="523.2" y2="213.7" fill="none" stroke="#8CC63F" stroke-width="3" stroke-linecap="round" id="line_78" tag_name="svg/g/g_50/line_78"/>
    </g>
    <g id="g_49" tag_name="svg/g/g_49">
      <line x1="512.7" y1="192.1" x2="523.2" y2="180.8" fill="none" stroke="#8CC63F" stroke-width="3" stroke-linecap="round" id="line_77" tag_name="svg/g/g_49/line_77"/>
      <line x1="512.8" y1="180.8" x2="523.2" y2="192.1" fill="none" stroke="#8CC63F" stroke-width="3" stroke-linecap="round" id="line_76" tag_name="svg/g/g_49/line_76"/>
    </g>
    <g id="g_48" tag_name="svg/g/g_48">
      <line x1="512.7" y1="170.3" x2="523.2" y2="159" fill="none" stroke="#8CC63F" stroke-width="3" stroke-linecap="round" id="line_75" tag_name="svg/g/g_48/line_75"/>
      <line x1="512.8" y1="159" x2="523.2" y2="170.3" fill="none" stroke="#8CC63F" stroke-width="3" stroke-linecap="round" id="line_74" tag_name="svg/g/g_48/line_74"/>
    </g>
    <g id="g_47" tag_name="svg/g/g_47">
      <line x1="512.7" y1="148" x2="523.2" y2="136.7" fill="none" stroke="#8CC63F" stroke-width="3" stroke-linecap="round" id="line_73" tag_name="svg/g/g_47/line_73"/>
      <line x1="512.8" y1="136.7" x2="523.2" y2="148" fill="none" stroke="#8CC63F" stroke-width="3" stroke-linecap="round" id="line_72" tag_name="svg/g/g_47/line_72"/>
    </g>
    <g id="g_46" tag_name="svg/g/g_46">
      <line x1="557.3" y1="191.1" x2="567.8" y2="179.9" fill="none" stroke="#8CC63F" stroke-width="3" stroke-linecap="round" id="line_71" tag_name="svg/g/g_46/line_71"/>
      <line x1="557.4" y1="179.9" x2="567.8" y2="191.1" fill="none" stroke="#8CC63F" stroke-width="3" stroke-linecap="round" id="line_70" tag_name="svg/g/g_46/line_70"/>
    </g>
    <g id="g_45" tag_name="svg/g/g_45">
      <line x1="557.3" y1="168.6" x2="567.8" y2="157.3" fill="none" stroke="#8CC63F" stroke-width="3" stroke-linecap="round" id="line_69" tag_name="svg/g/g_45/line_69"/>
      <line x1="557.4" y1="157.3" x2="567.8" y2="168.6" fill="none" stroke="#8CC63F" stroke-width="3" stroke-linecap="round" id="line_68" tag_name="svg/g/g_45/line_68"/>
    </g>
    <g id="g_44" tag_name="svg/g/g_44">
      <line x1="557.3" y1="147" x2="567.8" y2="135.7" fill="none" stroke="#8CC63F" stroke-width="3" stroke-linecap="round" id="line_67" tag_name="svg/g/g_44/line_67"/>
      <line x1="557.4" y1="135.7" x2="567.8" y2="147" fill="none" stroke="#8CC63F" stroke-width="3" stroke-linecap="round" id="line_66" tag_name="svg/g/g_44/line_66"/>
    </g>
    <g id="g_43" tag_name="svg/g/g_43">
      <line x1="557.3" y1="125.2" x2="567.8" y2="113.9" fill="none" stroke="#8CC63F" stroke-width="3" stroke-linecap="round" id="line_65" tag_name="svg/g/g_43/line_65"/>
      <line x1="557.4" y1="113.9" x2="567.8" y2="125.2" fill="none" stroke="#8CC63F" stroke-width="3" stroke-linecap="round" id="line_64" tag_name="svg/g/g_43/line_64"/>
    </g>
    <g id="g_42" tag_name="svg/g/g_42">
      <line x1="600.3" y1="191.6" x2="610.8" y2="180.3" fill="none" stroke="#8CC63F" stroke-width="3" stroke-linecap="round" id="line_63" tag_name="svg/g/g_42/line_63"/>
      <line x1="600.3" y1="180.3" x2="610.8" y2="191.6" fill="none" stroke="#8CC63F" stroke-width="3" stroke-linecap="round" id="line_62" tag_name="svg/g/g_42/line_62"/>
    </g>
    <g id="g_41" tag_name="svg/g/g_41">
      <line x1="600.3" y1="169.1" x2="610.8" y2="157.8" fill="none" stroke="#8CC63F" stroke-width="3" stroke-linecap="round" id="line_61" tag_name="svg/g/g_41/line_61"/>
      <line x1="600.3" y1="157.8" x2="610.8" y2="169.1" fill="none" stroke="#8CC63F" stroke-width="3" stroke-linecap="round" id="line_60" tag_name="svg/g/g_41/line_60"/>
    </g>
    <g id="g_40" tag_name="svg/g/g_40">
      <line x1="600.3" y1="147.5" x2="610.8" y2="136.2" fill="none" stroke="#8CC63F" stroke-width="3" stroke-linecap="round" id="line_59" tag_name="svg/g/g_40/line_59"/>
      <line x1="600.3" y1="136.2" x2="610.8" y2="147.5" fill="none" stroke="#8CC63F" stroke-width="3" stroke-linecap="round" id="line_58" tag_name="svg/g/g_40/line_58"/>
    </g>
    <g id="g_39" tag_name="svg/g/g_39">
      <line x1="600.3" y1="125.7" x2="610.8" y2="114.4" fill="none" stroke="#8CC63F" stroke-width="3" stroke-linecap="round" id="line_57" tag_name="svg/g/g_39/line_57"/>
      <line x1="600.3" y1="114.4" x2="610.8" y2="125.7" fill="none" stroke="#8CC63F" stroke-width="3" stroke-linecap="round" id="line_56" tag_name="svg/g/g_39/line_56"/>
    </g>
    <g id="g_38" tag_name="svg/g/g_38">
      <line x1="600.3" y1="104" x2="610.8" y2="92.7" fill="none" stroke="#8CC63F" stroke-width="3" stroke-linecap="round" id="line_55" tag_name="svg/g/g_38/line_55"/>
      <line x1="600.3" y1="92.7" x2="610.8" y2="104" fill="none" stroke="#8CC63F" stroke-width="3" stroke-linecap="round" id="line_54" tag_name="svg/g/g_38/line_54"/>
    </g>
    <g id="g_37" tag_name="svg/g/g_37">
      <line x1="600.3" y1="81.6" x2="610.8" y2="70.3" fill="none" stroke="#8CC63F" stroke-width="3" stroke-linecap="round" id="line_53" tag_name="svg/g/g_37/line_53"/>
      <line x1="600.3" y1="70.3" x2="610.8" y2="81.6" fill="none" stroke="#8CC63F" stroke-width="3" stroke-linecap="round" id="line_52" tag_name="svg/g/g_37/line_52"/>
    </g>
    <g id="g_36" tag_name="svg/g/g_36">
      <line x1="644.1" y1="125" x2="654.5" y2="113.7" fill="none" stroke="#8CC63F" stroke-width="3" stroke-linecap="round" id="line_51" tag_name="svg/g/g_36/line_51"/>
      <line x1="644.1" y1="113.7" x2="654.6" y2="125" fill="none" stroke="#8CC63F" stroke-width="3" stroke-linecap="round" id="line_50" tag_name="svg/g/g_36/line_50"/>
    </g>
    <g id="g_35" tag_name="svg/g/g_35">
      <line x1="644.1" y1="103.4" x2="654.5" y2="92.1" fill="none" stroke="#8CC63F" stroke-width="3" stroke-linecap="round" id="line_49" tag_name="svg/g/g_35/line_49"/>
      <line x1="644.1" y1="92.1" x2="654.6" y2="103.4" fill="none" stroke="#8CC63F" stroke-width="3" stroke-linecap="round" id="line_48" tag_name="svg/g/g_35/line_48"/>
    </g>
    <g id="g_34" tag_name="svg/g/g_34">
      <line x1="644.1" y1="81.6" x2="654.5" y2="70.3" fill="none" stroke="#8CC63F" stroke-width="3" stroke-linecap="round" id="line_47" tag_name="svg/g/g_34/line_47"/>
      <line x1="644.1" y1="70.3" x2="654.6" y2="81.6" fill="none" stroke="#8CC63F" stroke-width="3" stroke-linecap="round" id="line_46" tag_name="svg/g/g_34/line_46"/>
    </g>
    <g id="g_33" tag_name="svg/g/g_33">
      <line x1="644.1" y1="59.9" x2="654.5" y2="48.6" fill="none" stroke="#8CC63F" stroke-width="3" stroke-linecap="round" id="line_45" tag_name="svg/g/g_33/line_45"/>
      <line x1="644.1" y1="48.6" x2="654.6" y2="59.9" fill="none" stroke="#8CC63F" stroke-width="3" stroke-linecap="round" id="line_44" tag_name="svg/g/g_33/line_44"/>
    </g>
    <g id="g_32" tag_name="svg/g/g_32">
      <line x1="644.1" y1="37.5" x2="654.5" y2="26.2" fill="none" stroke="#8CC63F" stroke-width="3" stroke-linecap="round" id="line_43" tag_name="svg/g/g_32/line_43"/>
      <line x1="644.1" y1="26.2" x2="654.6" y2="37.5" fill="none" stroke="#8CC63F" stroke-width="3" stroke-linecap="round" id="line_42" tag_name="svg/g/g_32/line_42"/>
    </g>
    <g id="g_31" tag_name="svg/g/g_31">
      <line x1="382.4" y1="192.8" x2="392.8" y2="181.6" fill="none" stroke="#8CC63F" stroke-width="3" stroke-linecap="round" id="line_41" tag_name="svg/g/g_31/line_41"/>
      <line x1="382.4" y1="181.6" x2="392.9" y2="192.8" fill="none" stroke="#8CC63F" stroke-width="3" stroke-linecap="round" id="line_40" tag_name="svg/g/g_31/line_40"/>
    </g>
    <g id="g_30" tag_name="svg/g/g_30">
      <line x1="382.4" y1="170" x2="392.8" y2="158.7" fill="none" stroke="#8CC63F" stroke-width="3" stroke-linecap="round" id="line_39" tag_name="svg/g/g_30/line_39"/>
      <line x1="382.4" y1="158.7" x2="392.9" y2="170" fill="none" stroke="#8CC63F" stroke-width="3" stroke-linecap="round" id="line_38" tag_name="svg/g/g_30/line_38"/>
    </g>
    <g id="g_29" tag_name="svg/g/g_29">
      <line x1="293.8" y1="126.4" x2="304.3" y2="115.1" fill="none" stroke="#8CC63F" stroke-width="3" stroke-linecap="round" id="line_37" tag_name="svg/g/g_29/line_37"/>
      <line x1="293.9" y1="115.1" x2="304.3" y2="126.4" fill="none" stroke="#8CC63F" stroke-width="3" stroke-linecap="round" id="line_36" tag_name="svg/g/g_29/line_36"/>
    </g>
    <g id="g_28" tag_name="svg/g/g_28">
      <line x1="163.2" y1="213.8" x2="173.7" y2="202.6" fill="none" stroke="#8CC63F" stroke-width="3" stroke-linecap="round" id="line_35" tag_name="svg/g/g_28/line_35"/>
      <line x1="163.2" y1="202.6" x2="173.7" y2="213.8" fill="none" stroke="#8CC63F" stroke-width="3" stroke-linecap="round" id="line_34" tag_name="svg/g/g_28/line_34"/>
    </g>
    <g id="g_27" tag_name="svg/g/g_27">
      <line x1="163.2" y1="191.8" x2="173.7" y2="180.5" fill="none" stroke="#8CC63F" stroke-width="3" stroke-linecap="round" id="line_33" tag_name="svg/g/g_27/line_33"/>
      <line x1="163.2" y1="180.5" x2="173.7" y2="191.8" fill="none" stroke="#8CC63F" stroke-width="3" stroke-linecap="round" id="line_32" tag_name="svg/g/g_27/line_32"/>
    </g>
    <g id="g_26" tag_name="svg/g/g_26">
      <line x1="163.2" y1="169.2" x2="173.7" y2="158" fill="none" stroke="#8CC63F" stroke-width="3" stroke-linecap="round" id="line_31" tag_name="svg/g/g_26/line_31"/>
      <line x1="163.2" y1="158" x2="173.7" y2="169.2" fill="none" stroke="#8CC63F" stroke-width="3" stroke-linecap="round" id="line_30" tag_name="svg/g/g_26/line_30"/>
    </g>
    <g id="g_25" tag_name="svg/g/g_25">
      <line x1="163.2" y1="147.7" x2="173.7" y2="136.4" fill="none" stroke="#8CC63F" stroke-width="3" stroke-linecap="round" id="line_29" tag_name="svg/g/g_25/line_29"/>
      <line x1="163.2" y1="136.4" x2="173.7" y2="147.7" fill="none" stroke="#8CC63F" stroke-width="3" stroke-linecap="round" id="line_28" tag_name="svg/g/g_25/line_28"/>
    </g>
    <g id="g_24" tag_name="svg/g/g_24">
      <line x1="163.2" y1="126.1" x2="173.7" y2="114.8" fill="none" stroke="#8CC63F" stroke-width="3" stroke-linecap="round" id="line_27" tag_name="svg/g/g_24/line_27"/>
      <line x1="163.2" y1="114.8" x2="173.7" y2="126.1" fill="none" stroke="#8CC63F" stroke-width="3" stroke-linecap="round" id="line_26" tag_name="svg/g/g_24/line_26"/>
    </g>
    <g id="g_23" tag_name="svg/g/g_23">
      <line x1="251" y1="81.8" x2="261.4" y2="70.6" fill="none" stroke="#8CC63F" stroke-width="3" stroke-linecap="round" id="line_25" tag_name="svg/g/g_23/line_25"/>
      <line x1="251" y1="70.6" x2="261.5" y2="81.8" fill="none" stroke="#8CC63F" stroke-width="3" stroke-linecap="round" id="line_24" tag_name="svg/g/g_23/line_24"/>
    </g>
    <g id="g_22" tag_name="svg/g/g_22">
      <line x1="251" y1="103.4" x2="261.4" y2="92.1" fill="none" stroke="#8CC63F" stroke-width="3" stroke-linecap="round" id="line_23" tag_name="svg/g/g_22/line_23"/>
      <line x1="251" y1="92.1" x2="261.5" y2="103.4" fill="none" stroke="#8CC63F" stroke-width="3" stroke-linecap="round" id="line_22" tag_name="svg/g/g_22/line_22"/>
    </g>
    <g id="g_21" tag_name="svg/g/g_21">
      <line x1="251" y1="59.3" x2="261.4" y2="48" fill="none" stroke="#8CC63F" stroke-width="3" stroke-linecap="round" id="line_21" tag_name="svg/g/g_21/line_21"/>
      <line x1="251" y1="48" x2="261.5" y2="59.3" fill="none" stroke="#8CC63F" stroke-width="3" stroke-linecap="round" id="line_20" tag_name="svg/g/g_21/line_20"/>
    </g>
    <g id="g_20" tag_name="svg/g/g_20">
      <line x1="251" y1="37" x2="261.4" y2="25.7" fill="none" stroke="#8CC63F" stroke-width="3" stroke-linecap="round" id="line_19" tag_name="svg/g/g_20/line_19"/>
      <line x1="251" y1="25.7" x2="261.5" y2="37" fill="none" stroke="#8CC63F" stroke-width="3" stroke-linecap="round" id="line_18" tag_name="svg/g/g_20/line_18"/>
    </g>
    <g id="g_19" tag_name="svg/g/g_19">
      <line x1="207.1" y1="170" x2="217.5" y2="158.7" fill="none" stroke="#8CC63F" stroke-width="3" stroke-linecap="round" id="line_17" tag_name="svg/g/g_19/line_17"/>
      <line x1="207.1" y1="158.7" x2="217.6" y2="170" fill="none" stroke="#8CC63F" stroke-width="3" stroke-linecap="round" id="line_16" tag_name="svg/g/g_19/line_16"/>
    </g>
    <g id="g_18" tag_name="svg/g/g_18">
      <line x1="207.1" y1="147.9" x2="217.5" y2="136.6" fill="none" stroke="#8CC63F" stroke-width="3" stroke-linecap="round" id="line_15" tag_name="svg/g/g_18/line_15"/>
      <line x1="207.1" y1="136.6" x2="217.6" y2="147.9" fill="none" stroke="#8CC63F" stroke-width="3" stroke-linecap="round" id="line_14" tag_name="svg/g/g_18/line_14"/>
    </g>
    <g id="g_17" tag_name="svg/g/g_17">
      <line x1="207.1" y1="125.4" x2="217.5" y2="114.1" fill="none" stroke="#8CC63F" stroke-width="3" stroke-linecap="round" id="line_13" tag_name="svg/g/g_17/line_13"/>
      <line x1="207.1" y1="114.1" x2="217.6" y2="125.4" fill="none" stroke="#8CC63F" stroke-width="3" stroke-linecap="round" id="line_12" tag_name="svg/g/g_17/line_12"/>
    </g>
    <g id="g_16" tag_name="svg/g/g_16">
      <line x1="207.1" y1="103.8" x2="217.5" y2="92.5" fill="none" stroke="#8CC63F" stroke-width="3" stroke-linecap="round" id="line_11" tag_name="svg/g/g_16/line_11"/>
      <line x1="207.1" y1="92.5" x2="217.6" y2="103.8" fill="none" stroke="#8CC63F" stroke-width="3" stroke-linecap="round" id="line_10" tag_name="svg/g/g_16/line_10"/>
    </g>
    <g id="g_15" tag_name="svg/g/g_15">
      <line x1="207.1" y1="81.5" x2="217.5" y2="70.2" fill="none" stroke="#8CC63F" stroke-width="3" stroke-linecap="round" id="line_9" tag_name="svg/g/g_15/line_9"/>
      <line x1="207.1" y1="70.2" x2="217.6" y2="81.5" fill="none" stroke="#8CC63F" stroke-width="3" stroke-linecap="round" id="line_8" tag_name="svg/g/g_15/line_8"/>
    </g>
    <g id="g_14" tag_name="svg/g/g_14">
      <line x1="207.1" y1="59.9" x2="217.5" y2="48.7" fill="none" stroke="#8CC63F" stroke-width="3" stroke-linecap="round" id="line_7" tag_name="svg/g/g_14/line_7"/>
      <line x1="207.1" y1="48.7" x2="217.6" y2="59.9" fill="none" stroke="#8CC63F" stroke-width="3" stroke-linecap="round" id="line_6" tag_name="svg/g/g_14/line_6"/>
    </g>
    <g id="g_13" tag_name="svg/g/g_13">
      <line x1="75.7" y1="148.6" x2="86.2" y2="137.3" fill="none" stroke="#8CC63F" stroke-width="3" stroke-linecap="round" id="line_5" tag_name="svg/g/g_13/line_5"/>
      <line x1="75.8" y1="137.3" x2="86.2" y2="148.6" fill="none" stroke="#8CC63F" stroke-width="3" stroke-linecap="round" id="line_4" tag_name="svg/g/g_13/line_4"/>
    </g>
    <g id="g_12" tag_name="svg/g/g_12">
      <line x1="75.7" y1="126.3" x2="86.2" y2="115" fill="none" stroke="#8CC63F" stroke-width="3" stroke-linecap="round" id="line_3" tag_name="svg/g/g_12/line_3"/>
      <line x1="75.8" y1="115" x2="86.2" y2="126.3" fill="none" stroke="#8CC63F" stroke-width="3" stroke-linecap="round" id="line_2" tag_name="svg/g/g_12/line_2"/>
    </g>
    <g id="g_11" tag_name="svg/g/g_11">
      <line x1="75.7" y1="104.1" x2="86.2" y2="92.8" fill="none" stroke="#8CC63F" stroke-width="3" stroke-linecap="round" id="line_1" tag_name="svg/g/g_11/line_1"/>
      <line x1="75.8" y1="92.8" x2="86.2" y2="104.1" fill="none" stroke="#8CC63F" stroke-width="3" stroke-linecap="round" id="line" tag_name="svg/g/g_11/line"/>
    </g>
    <circle cx="59.2" cy="186.7" r="5.7" fill="none" stroke="#F14D24" stroke-width="3" stroke-linecap="round" id="circle_58" tag_name="svg/g/circle_58"/>
    <circle cx="59.2" cy="164.8" r="5.7" fill="none" stroke="#F14D24" stroke-width="3" stroke-linecap="round" id="circle_57" tag_name="svg/g/circle_57"/>
    <circle cx="59.2" cy="142.9" r="5.7" fill="none" stroke="#F14D24" stroke-width="3" stroke-linecap="round" id="circle_56" tag_name="svg/g/circle_56"/>
    <circle cx="102.8" cy="120.7" r="5.7" fill="#FFFFFF" stroke="#F14D24" stroke-width="3" stroke-linecap="round" id="circle_55" tag_name="svg/g/circle_55"/>
    <circle cx="102.8" cy="142.5" r="5.7" fill="#FFFFFF" stroke="#F14D24" stroke-width="3" stroke-linecap="round" id="circle_54" tag_name="svg/g/circle_54"/>
    <circle cx="102.8" cy="164.3" r="5.7" fill="#FFFFFF" stroke="#F14D24" stroke-width="3" stroke-linecap="round" id="circle_53" tag_name="svg/g/circle_53"/>
    <circle cx="102.8" cy="186.8" r="5.7" fill="#FFFFFF" stroke="#F14D24" stroke-width="3" stroke-linecap="round" id="circle_52" tag_name="svg/g/circle_52"/>
    <circle cx="102.8" cy="208.4" r="5.7" fill="#FFFFFF" stroke="#F14D24" stroke-width="3" stroke-linecap="round" id="circle_51" tag_name="svg/g/circle_51"/>
    <circle cx="102.8" cy="230.9" r="5.7" fill="#FFFFFF" stroke="#F14D24" stroke-width="3" stroke-linecap="round" id="circle_50" tag_name="svg/g/circle_50"/>
    <circle cx="146.6" cy="185.8" r="5.7" fill="#FFFFFF" stroke="#F14D24" stroke-width="3" stroke-linecap="round" id="circle_49" tag_name="svg/g/circle_49"/>
    <circle cx="146.6" cy="208.4" r="5.7" fill="#FFFFFF" stroke="#F14D24" stroke-width="3" stroke-linecap="round" id="circle_48" tag_name="svg/g/circle_48"/>
    <circle cx="146.6" cy="230.6" r="5.7" fill="#FFFFFF" stroke="#F14D24" stroke-width="3" stroke-linecap="round" id="circle_47" tag_name="svg/g/circle_47"/>
    <circle cx="190.4" cy="163.9" r="5.7" fill="#FFFFFF" stroke="#F14D24" stroke-width="3" stroke-linecap="round" id="circle_46" tag_name="svg/g/circle_46"/>
    <circle cx="190.4" cy="142.2" r="5.7" fill="#FFFFFF" stroke="#F14D24" stroke-width="3" stroke-linecap="round" id="circle_45" tag_name="svg/g/circle_45"/>
    <circle cx="190.4" cy="186.4" r="5.7" fill="#FFFFFF" stroke="#F14D24" stroke-width="3" stroke-linecap="round" id="circle_44" tag_name="svg/g/circle_44"/>
    <circle cx="234.1" cy="97.9" r="5.7" fill="#FFFFFF" stroke="#F14D24" stroke-width="3" stroke-linecap="round" id="circle_43" tag_name="svg/g/circle_43"/>
    <circle cx="234.1" cy="76.2" r="5.7" fill="#FFFFFF" stroke="#F14D24" stroke-width="3" stroke-linecap="round" id="circle_42" tag_name="svg/g/circle_42"/>
    <circle cx="234.1" cy="120.4" r="5.7" fill="#FFFFFF" stroke="#F14D24" stroke-width="3" stroke-linecap="round" id="circle_41" tag_name="svg/g/circle_41"/>
    <circle cx="277.5" cy="75.6" r="5.7" fill="#FFFFFF" stroke="#F14D24" stroke-width="3" stroke-linecap="round" id="circle_40" tag_name="svg/g/circle_40"/>
    <circle cx="277.5" cy="54" r="5.7" fill="#FFFFFF" stroke="#F14D24" stroke-width="3" stroke-linecap="round" id="circle_39" tag_name="svg/g/circle_39"/>
    <circle cx="277.8" cy="97.7" r="5.7" fill="#FFFFFF" stroke="#F14D24" stroke-width="3" stroke-linecap="round" id="circle_38" tag_name="svg/g/circle_38"/>
    <circle cx="277.8" cy="120" r="5.7" fill="#FFFFFF" stroke="#F14D24" stroke-width="3" stroke-linecap="round" id="circle_37" tag_name="svg/g/circle_37"/>
    <circle cx="277.8" cy="142.3" r="5.7" fill="#FFFFFF" stroke="#F14D24" stroke-width="3" stroke-linecap="round" id="circle_36" tag_name="svg/g/circle_36"/>
    <circle cx="277.8" cy="164.1" r="5.7" fill="#FFFFFF" stroke="#F14D24" stroke-width="3" stroke-linecap="round" id="circle_35" tag_name="svg/g/circle_35"/>
    <circle cx="277.8" cy="186.2" r="5.7" fill="#FFFFFF" stroke="#F14D24" stroke-width="3" stroke-linecap="round" id="circle_34" tag_name="svg/g/circle_34"/>
    <circle cx="277.8" cy="208.7" r="5.7" fill="#FFFFFF" stroke="#F14D24" stroke-width="3" stroke-linecap="round" id="circle_33" tag_name="svg/g/circle_33"/>
    <circle cx="320.9" cy="142.3" r="5.7" fill="#FFFFFF" stroke="#F14D24" stroke-width="3" stroke-linecap="round" id="circle_32" tag_name="svg/g/circle_32"/>
    <circle cx="320.9" cy="164.1" r="5.7" fill="#FFFFFF" stroke="#F14D24" stroke-width="3" stroke-linecap="round" id="circle_31" tag_name="svg/g/circle_31"/>
    <circle cx="320.9" cy="186.2" r="5.7" fill="#FFFFFF" stroke="#F14D24" stroke-width="3" stroke-linecap="round" id="circle_30" tag_name="svg/g/circle_30"/>
    <circle cx="320.9" cy="208.7" r="5.7" fill="#FFFFFF" stroke="#F14D24" stroke-width="3" stroke-linecap="round" id="circle_29" tag_name="svg/g/circle_29"/>
    <circle cx="320.9" cy="231.2" r="5.7" fill="#FFFFFF" stroke="#F14D24" stroke-width="3" stroke-linecap="round" id="circle_28" tag_name="svg/g/circle_28"/>
    <circle cx="365" cy="186.2" r="5.7" fill="#FFFFFF" stroke="#F14D24" stroke-width="3" stroke-linecap="round" id="circle_27" tag_name="svg/g/circle_27"/>
    <circle cx="365" cy="208.7" r="5.7" fill="#FFFFFF" stroke="#F14D24" stroke-width="3" stroke-linecap="round" id="circle_26" tag_name="svg/g/circle_26"/>
    <circle cx="365" cy="231.2" r="5.7" fill="#FFFFFF" stroke="#F14D24" stroke-width="3" stroke-linecap="round" id="circle_25" tag_name="svg/g/circle_25"/>
    <circle cx="365" cy="252.7" r="5.7" fill="#FFFFFF" stroke="#F14D24" stroke-width="3" stroke-linecap="round" id="circle_24" tag_name="svg/g/circle_24"/>
    <circle cx="409.1" cy="186.2" r="5.7" fill="#FFFFFF" stroke="#F14D24" stroke-width="3" stroke-linecap="round" id="circle_23" tag_name="svg/g/circle_23"/>
    <circle cx="409.1" cy="208.7" r="5.7" fill="#FFFFFF" stroke="#F14D24" stroke-width="3" stroke-linecap="round" id="circle_22" tag_name="svg/g/circle_22"/>
    <circle cx="409.1" cy="231.2" r="5.7" fill="#FFFFFF" stroke="#F14D24" stroke-width="3" stroke-linecap="round" id="circle_21" tag_name="svg/g/circle_21"/>
    <circle cx="540" cy="164.6" r="5.7" fill="#FFFFFF" stroke="#F14D24" stroke-width="3" stroke-linecap="round" id="circle_20" tag_name="svg/g/circle_20"/>
    <circle cx="540" cy="187.1" r="5.7" fill="#FFFFFF" stroke="#F14D24" stroke-width="3" stroke-linecap="round" id="circle_19" tag_name="svg/g/circle_19"/>
    <circle cx="540" cy="209.7" r="5.7" fill="#FFFFFF" stroke="#F14D24" stroke-width="3" stroke-linecap="round" id="circle_18" tag_name="svg/g/circle_18"/>
    <circle cx="583.8" cy="141.9" r="5.7" fill="#FFFFFF" stroke="#F14D24" stroke-width="3" stroke-linecap="round" id="circle_17" tag_name="svg/g/circle_17"/>
    <circle cx="583.8" cy="164.5" r="5.7" fill="#FFFFFF" stroke="#F14D24" stroke-width="3" stroke-linecap="round" id="circle_16" tag_name="svg/g/circle_16"/>
    <circle cx="583.8" cy="187" r="5.7" fill="#FFFFFF" stroke="#F14D24" stroke-width="3" stroke-linecap="round" id="circle_15" tag_name="svg/g/circle_15"/>
    <circle cx="627.6" cy="96.8" r="5.7" fill="#FFFFFF" stroke="#F14D24" stroke-width="3" stroke-linecap="round" id="circle_14" tag_name="svg/g/circle_14"/>
    <circle cx="627.6" cy="119.4" r="5.7" fill="#FFFFFF" stroke="#F14D24" stroke-width="3" stroke-linecap="round" id="circle_13" tag_name="svg/g/circle_13"/>
    <circle cx="627.6" cy="141.9" r="5.7" fill="#FFFFFF" stroke="#F14D24" stroke-width="3" stroke-linecap="round" id="circle_12" tag_name="svg/g/circle_12"/>
    <circle cx="583.8" cy="208.6" r="5.7" fill="#FFFFFF" stroke="#F14D24" stroke-width="3" stroke-linecap="round" id="circle_11" tag_name="svg/g/circle_11"/>
    <circle cx="671.3" cy="52.8" r="5.7" fill="#FFFFFF" stroke="#F14D24" stroke-width="3" stroke-linecap="round" id="circle_10" tag_name="svg/g/circle_10"/>
    <circle cx="671.3" cy="75.3" r="5.7" fill="#FFFFFF" stroke="#F14D24" stroke-width="3" stroke-linecap="round" id="circle_9" tag_name="svg/g/circle_9"/>
    <circle cx="671.3" cy="97.8" r="5.7" fill="#FFFFFF" stroke="#F14D24" stroke-width="3" stroke-linecap="round" id="circle_8" tag_name="svg/g/circle_8"/>
    <circle cx="671.3" cy="119.4" r="5.7" fill="#FFFFFF" stroke="#F14D24" stroke-width="3" stroke-linecap="round" id="circle_7" tag_name="svg/g/circle_7"/>
    <circle cx="409.1" cy="252.7" r="5.7" fill="#FFFFFF" stroke="#F14D24" stroke-width="3" stroke-linecap="round" id="circle_6" tag_name="svg/g/circle_6"/>
    <circle cx="496.4" cy="231.2" r="5.7" fill="#FFFFFF" stroke="#F14D24" stroke-width="3" stroke-linecap="round" id="circle_5" tag_name="svg/g/circle_5"/>
    <circle cx="496.4" cy="252.7" r="5.7" fill="#FFFFFF" stroke="#F14D24" stroke-width="3" stroke-linecap="round" id="circle_4" tag_name="svg/g/circle_4"/>
    <circle cx="409.1" cy="274.3" r="5.7" fill="#FFFFFF" stroke="#F14D24" stroke-width="3" stroke-linecap="round" id="circle_3" tag_name="svg/g/circle_3"/>
    <circle cx="452.6" cy="252.7" r="5.7" fill="#FFFFFF" stroke="#F14D24" stroke-width="3" stroke-linecap="round" id="circle_2" tag_name="svg/g/circle_2"/>
    <circle cx="452.6" cy="274.3" r="5.7" fill="#FFFFFF" stroke="#F14D24" stroke-width="3" stroke-linecap="round" id="circle_1" tag_name="svg/g/circle_1"/>
    <circle cx="102.8" cy="252.7" r="5.7" fill="#FFFFFF" stroke="#F14D24" stroke-width="3" stroke-linecap="round" id="circle" tag_name="svg/g/circle"/>
    <g id="g_10" tag_name="svg/g/g_10">
	</g>
    <g id="g_9" tag_name="svg/g/g_9">
	</g>
    <g id="g_8" tag_name="svg/g/g_8">
	</g>
    <g id="g_7" tag_name="svg/g/g_7">
	</g>
    <g id="g_6" tag_name="svg/g/g_6">
	</g>
    <g id="g_5" tag_name="svg/g/g_5">
	</g>
    <g id="g_4" tag_name="svg/g/g_4">
	</g>
    <g id="g_3" tag_name="svg/g/g_3">
	</g>
    <g id="g_2" tag_name="svg/g/g_2">
	</g>
    <g id="g_1" tag_name="svg/g/g_1">
	</g>
  </g>
</svg>