<?xml version='1.0' encoding='UTF-8'?>
<svg width="900" height="340" viewBox="-70,-30,880,340" style="max-width: 100%; height: auto; font: 10px sans-serif;" id="svg" tag_name="svg">
  <g id="g_14" tag_name="svg/g_14">
    <g id="g_28" tag_name="svg/g_14/g_28">
      <path d="M98.8,256.2c0,2-0.7,3.1-2,3.1c-1.1,0-1.9-1.1-1.9-3c0-2,0.8-3,2-3C98.1,253.2,98.8,254.3,98.8,256.2z     M95.6,256.3c0,1.5,0.5,2.4,1.2,2.4c0.8,0,1.2-0.9,1.2-2.4c0-1.4-0.4-2.4-1.2-2.4C96.1,253.8,95.6,254.7,95.6,256.3z" fill="#808080" id="path_60" tag_name="svg/g_14/g_28/path_60"/>
    </g>
    <g id="g_27" tag_name="svg/g_14/g_27">
      <path d="M348.6,286.8l1.2,0.1c0,0.1-0.1,0.2-0.3,0.2v5.6h-1v-0.9h-9.1v0.9h-0.9v-5.9l1.2,0.1c0,0.1-0.1,0.2-0.3,0.2    v3.8h4v-5h-4.4V281l1.2,0.1c0,0.1-0.1,0.2-0.3,0.2v3.7h3.4v-5.2l1.2,0.1c0,0.1-0.1,0.2-0.3,0.2v4.9h3.6V281l1.2,0.1    c0,0.1-0.1,0.2-0.3,0.2v4.6h-4.6v5h4.2V286.8z" fill="#4D4D4D" id="path_59" tag_name="svg/g_14/g_27/path_59"/>
      <path d="M358.6,286.6h5.4v0.8h-10.6v-4.2c-0.4,0.6-0.9,1.1-1.4,1.5c-0.1-0.2-0.4-0.5-0.6-0.7c1.1-1,2.3-2.6,3-4.3    l1.1,0.4c-0.1,0.1-0.2,0.2-0.3,0.1c-0.2,0.4-0.4,0.8-0.6,1.2h3.1c0.3-0.5,0.6-1.2,0.7-1.7l1.1,0.4c0,0.1-0.1,0.1-0.3,0.1    c-0.2,0.3-0.4,0.8-0.6,1.2h4.7v0.7h-4.7v1h4v0.7h-4v1h4.1v0.7h-4.1V286.6z M353.5,292.7v-4.4h9.3v4.4h-1v-0.6h-7.4v0.6H353.5z     M357.7,283.1v-1h-3.4v1H357.7z M357.7,284.8v-1h-3.4v1H357.7z M354.3,285.5v1.1h3.4v-1.1H354.3z M361.9,289.2h-7.4v2.2h7.4V289.2    z" fill="#4D4D4D" id="path_58" tag_name="svg/g_14/g_27/path_58"/>
      <path d="M370.3,280.2v11.3c0,1.1-0.6,1.2-2.3,1.2c0-0.2-0.2-0.7-0.3-0.9c0.4,0,0.7,0,0.9,0c0.7,0,0.8,0,0.8-0.3v-3.7    h-2.2c-0.1,1.7-0.4,3.5-1.1,4.9c-0.2-0.2-0.5-0.4-0.8-0.5c1-2,1.1-4.8,1.1-6.9v-5.1H370.3z M367.3,285.3c0,0.5,0,1.1,0,1.6h2.1    v-2.5h-2.1V285.3z M369.4,281.1h-2.1v2.4h2.1V281.1z M372.9,281.1v0.9c0,1.2-0.3,2.7-1.8,3.8c-0.1-0.2-0.5-0.5-0.7-0.6    c1.4-0.9,1.6-2.1,1.6-3.1v-1.8h4.4v3.7c0,0.3,0,0.4,0.3,0.4h0.7c0.2,0,0.3-0.2,0.3-1.6c0.2,0.2,0.6,0.3,0.8,0.4    c-0.1,1.7-0.3,2.1-1,2.1h-1c-0.8,0-1-0.2-1-1.2v-2.8H372.9z M377,285.9l0.6,0.3c0,0.1-0.1,0.1-0.1,0.1c-0.5,1.6-1.3,2.9-2.4,3.9    c1,0.8,2.2,1.4,3.5,1.7c-0.2,0.2-0.5,0.6-0.7,0.8c-1.3-0.4-2.5-1.1-3.5-1.9c-1,0.9-2.2,1.5-3.5,1.9c-0.1-0.2-0.4-0.6-0.5-0.8    c1.2-0.3,2.3-0.9,3.3-1.7c-0.9-0.9-1.6-1.9-2.1-3.1l0.8-0.3h-1.4v-0.9h5.8L377,285.9z M372.6,286.8c0.4,1,1.1,2,1.9,2.8    c0.8-0.8,1.5-1.7,1.9-2.8H372.6z" fill="#4D4D4D" id="path_57" tag_name="svg/g_14/g_27/path_57"/>
      <path d="M392.5,283.2h-0.9c-0.3,2.3-0.8,4.2-1.6,5.8c0.6,1.3,1.5,2.3,2.5,2.9c-0.2,0.2-0.5,0.5-0.6,0.8    c-1-0.6-1.8-1.6-2.4-2.7c-0.7,1.1-1.6,2-2.8,2.7c-0.1-0.2-0.3-0.6-0.5-0.7c1.2-0.7,2.1-1.7,2.8-2.9c-0.5-1.2-0.9-2.6-1.2-4.1    c-0.3,0.6-0.5,1.2-0.9,1.7c-0.1-0.2-0.4-0.4-0.5-0.5v1.3h-3.1c0,0.1-0.1,0.1-0.3,0.1c-0.1,0.3-0.3,0.5-0.4,0.9    c1.4,0,3.1,0,4.7-0.1l0,0.7l-1.5,0l-0.1,0c-0.2,0.8-0.6,1.4-1.2,1.9c0.6,0.3,1.2,0.6,1.6,0.9l-0.6,0.6c-0.4-0.3-1-0.6-1.6-1    c-0.9,0.6-2.1,1-3.6,1.2c-0.1-0.3-0.2-0.6-0.4-0.8c1.3-0.2,2.3-0.4,3.1-0.9c-0.5-0.2-1-0.4-1.5-0.6l-0.3,0.4    c-0.4-0.2-0.6-0.2-0.8-0.2c0.3-0.4,0.6-0.9,0.9-1.5l-1.4,0c0,0.1-0.1,0.2-0.2,0.2l-0.3-1c0.6,0,1.4,0,2.2,0c0.2-0.3,0.4-0.6,0.5-1    h-2.1v-2.3h2.7v-0.7h-2.3v-1.5h-1v-0.7h1v-1.5h2.3v-1l1.1,0.1c0,0.1-0.1,0.2-0.3,0.2v0.7h2.5v1.5h1v0.7h-1v1.5h-2.5v0.7h2.8v0.8    c0.8-1.4,1.4-3.9,1.8-6.2l1.2,0.2c0,0.1-0.1,0.2-0.3,0.2c-0.1,0.7-0.3,1.5-0.4,2.2h3.8V283.2z M380.9,285.8v1h1.9v-1H380.9z     M382.8,281.3h-1.5v0.9h1.5V281.3z M381.3,283.8h1.5v-0.9h-1.5V283.8z M381.8,289.8c0.6,0.2,1.3,0.5,1.9,0.7    c0.5-0.4,0.8-0.9,1-1.5c-0.9,0-1.8,0-2.6,0.1L381.8,289.8z M385.3,281.3h-1.6v0.9h1.6V281.3z M383.7,283.8h1.6v-0.9h-1.6V283.8z     M385.6,286.8v-1h-2v1H385.6z M388.5,283.2l0,0.1c0.3,1.7,0.6,3.3,1.2,4.7c0.6-1.4,0.9-3,1.2-4.8H388.5z" fill="#4D4D4D" id="path_56" tag_name="svg/g_14/g_27/path_56"/>
    </g>
    <g id="g_26" tag_name="svg/g_14/g_26">
      <path d="M143.7,254h-2.2l-0.2,1.5c0.1,0,0.3,0,0.5,0c0.5,0,0.9,0.1,1.3,0.3c0.5,0.3,0.8,0.8,0.8,1.5    c0,1.1-0.9,2-2.2,2c-0.6,0-1.2-0.2-1.5-0.4l0.2-0.6c0.2,0.1,0.7,0.3,1.3,0.3c0.7,0,1.4-0.5,1.4-1.3c0-0.8-0.5-1.3-1.7-1.3    c-0.3,0-0.6,0-0.8,0.1l0.4-2.8h2.8V254z" fill="#808080" id="path_55" tag_name="svg/g_14/g_26/path_55"/>
      <path d="M148.7,256.2c0,2-0.7,3.1-2,3.1c-1.1,0-1.9-1.1-1.9-3c0-2,0.8-3,2-3C148,253.2,148.7,254.3,148.7,256.2z     M145.6,256.3c0,1.5,0.5,2.4,1.2,2.4c0.8,0,1.2-0.9,1.2-2.4c0-1.4-0.4-2.4-1.2-2.4C146.1,253.8,145.6,254.7,145.6,256.3z" fill="#808080" id="path_54" tag_name="svg/g_14/g_26/path_54"/>
      <path d="M153.4,256.2c0,2-0.7,3.1-2,3.1c-1.1,0-1.9-1.1-1.9-3c0-2,0.8-3,2-3C152.7,253.2,153.4,254.3,153.4,256.2z     M150.2,256.3c0,1.5,0.5,2.4,1.2,2.4c0.8,0,1.2-0.9,1.2-2.4c0-1.4-0.4-2.4-1.2-2.4C150.7,253.8,150.2,254.7,150.2,256.3z" fill="#808080" id="path_53" tag_name="svg/g_14/g_26/path_53"/>
    </g>
    <g id="g_25" tag_name="svg/g_14/g_25">
      <path d="M188.3,254.1L188.3,254.1l-1,0.5l-0.2-0.6l1.3-0.7h0.7v5.9h-0.8V254.1z" fill="#808080" id="path_52" tag_name="svg/g_14/g_25/path_52"/>
      <path d="M195.1,256.2c0,2-0.7,3.1-2,3.1c-1.1,0-1.9-1.1-1.9-3c0-2,0.8-3,2-3C194.4,253.2,195.1,254.3,195.1,256.2z     M191.9,256.3c0,1.5,0.5,2.4,1.2,2.4c0.8,0,1.2-0.9,1.2-2.4c0-1.4-0.4-2.4-1.2-2.4C192.4,253.8,191.9,254.7,191.9,256.3z" fill="#808080" id="path_51" tag_name="svg/g_14/g_25/path_51"/>
      <path d="M199.7,256.2c0,2-0.7,3.1-2,3.1c-1.1,0-1.9-1.1-1.9-3c0-2,0.8-3,2-3C199,253.2,199.7,254.3,199.7,256.2z     M196.5,256.3c0,1.5,0.5,2.4,1.2,2.4c0.8,0,1.2-0.9,1.2-2.4c0-1.4-0.4-2.4-1.2-2.4C197,253.8,196.5,254.7,196.5,256.3z" fill="#808080" id="path_50" tag_name="svg/g_14/g_25/path_50"/>
      <path d="M204.3,256.2c0,2-0.7,3.1-2,3.1c-1.1,0-1.9-1.1-1.9-3c0-2,0.8-3,2-3C203.6,253.2,204.3,254.3,204.3,256.2z     M201.1,256.3c0,1.5,0.5,2.4,1.2,2.4c0.8,0,1.2-0.9,1.2-2.4c0-1.4-0.4-2.4-1.2-2.4C201.6,253.8,201.1,254.7,201.1,256.3z" fill="#808080" id="path_49" tag_name="svg/g_14/g_25/path_49"/>
    </g>
    <g id="g_24" tag_name="svg/g_14/g_24">
      <path d="M238.9,254.1L238.9,254.1l-1,0.5l-0.2-0.6l1.3-0.7h0.7v5.9h-0.8V254.1z" fill="#808080" id="path_48" tag_name="svg/g_14/g_24/path_48"/>
      <path d="M245.3,254H243l-0.2,1.5c0.1,0,0.3,0,0.5,0c0.5,0,0.9,0.1,1.3,0.3c0.5,0.3,0.8,0.8,0.8,1.5c0,1.1-0.9,2-2.2,2    c-0.6,0-1.2-0.2-1.5-0.4l0.2-0.6c0.2,0.1,0.7,0.3,1.3,0.3c0.7,0,1.4-0.5,1.4-1.3c0-0.8-0.5-1.3-1.7-1.3c-0.3,0-0.6,0-0.8,0.1    l0.4-2.8h2.8V254z" fill="#808080" id="path_47" tag_name="svg/g_14/g_24/path_47"/>
      <path d="M250.3,256.2c0,2-0.7,3.1-2,3.1c-1.1,0-1.9-1.1-1.9-3c0-2,0.8-3,2-3C249.6,253.2,250.3,254.3,250.3,256.2z     M247.1,256.3c0,1.5,0.5,2.4,1.2,2.4c0.8,0,1.2-0.9,1.2-2.4c0-1.4-0.4-2.4-1.2-2.4C247.6,253.8,247.1,254.7,247.1,256.3z" fill="#808080" id="path_46" tag_name="svg/g_14/g_24/path_46"/>
      <path d="M254.9,256.2c0,2-0.7,3.1-2,3.1c-1.1,0-1.9-1.1-1.9-3c0-2,0.8-3,2-3C254.2,253.2,254.9,254.3,254.9,256.2z     M251.7,256.3c0,1.5,0.5,2.4,1.2,2.4c0.8,0,1.2-0.9,1.2-2.4c0-1.4-0.4-2.4-1.2-2.4C252.2,253.8,251.7,254.7,251.7,256.3z" fill="#808080" id="path_45" tag_name="svg/g_14/g_24/path_45"/>
    </g>
    <g id="g_23" tag_name="svg/g_14/g_23">
      <path d="M287.1,259.2v-0.5l0.6-0.6c1.5-1.4,2.2-2.2,2.2-3.1c0-0.6-0.3-1.1-1.2-1.1c-0.5,0-1,0.3-1.2,0.5l-0.3-0.6    c0.4-0.3,1-0.6,1.7-0.6c1.3,0,1.8,0.9,1.8,1.7c0,1.1-0.8,2-2,3.1l-0.5,0.4v0h2.6v0.7H287.1z" fill="#808080" id="path_44" tag_name="svg/g_14/g_23/path_44"/>
      <path d="M295.6,256.2c0,2-0.7,3.1-2,3.1c-1.1,0-1.9-1.1-1.9-3c0-2,0.8-3,2-3C294.9,253.2,295.6,254.3,295.6,256.2z     M292.4,256.3c0,1.5,0.5,2.4,1.2,2.4c0.8,0,1.2-0.9,1.2-2.4c0-1.4-0.4-2.4-1.2-2.4C292.9,253.8,292.4,254.7,292.4,256.3z" fill="#808080" id="path_43" tag_name="svg/g_14/g_23/path_43"/>
      <path d="M300.2,256.2c0,2-0.7,3.1-2,3.1c-1.1,0-1.9-1.1-1.9-3c0-2,0.8-3,2-3C299.5,253.2,300.2,254.3,300.2,256.2z     M297,256.3c0,1.5,0.5,2.4,1.2,2.4c0.8,0,1.2-0.9,1.2-2.4c0-1.4-0.4-2.4-1.2-2.4C297.5,253.8,297,254.7,297,256.3z" fill="#808080" id="path_42" tag_name="svg/g_14/g_23/path_42"/>
      <path d="M304.8,256.2c0,2-0.7,3.1-2,3.1c-1.1,0-1.9-1.1-1.9-3c0-2,0.8-3,2-3C304.1,253.2,304.8,254.3,304.8,256.2z     M301.6,256.3c0,1.5,0.5,2.4,1.2,2.4c0.8,0,1.2-0.9,1.2-2.4c0-1.4-0.4-2.4-1.2-2.4C302.1,253.8,301.6,254.7,301.6,256.3z" fill="#808080" id="path_41" tag_name="svg/g_14/g_23/path_41"/>
    </g>
    <g id="g_22" tag_name="svg/g_14/g_22">
      <path d="M335.8,259.2v-0.5l0.6-0.6c1.5-1.4,2.2-2.2,2.2-3.1c0-0.6-0.3-1.1-1.2-1.1c-0.5,0-1,0.3-1.2,0.5l-0.3-0.6    c0.4-0.3,1-0.6,1.7-0.6c1.3,0,1.8,0.9,1.8,1.7c0,1.1-0.8,2-2,3.1l-0.5,0.4v0h2.6v0.7H335.8z" fill="#808080" id="path_40" tag_name="svg/g_14/g_22/path_40"/>
      <path d="M343.9,254h-2.2l-0.2,1.5c0.1,0,0.3,0,0.5,0c0.5,0,0.9,0.1,1.3,0.3c0.5,0.3,0.8,0.8,0.8,1.5    c0,1.1-0.9,2-2.2,2c-0.6,0-1.2-0.2-1.5-0.4l0.2-0.6c0.2,0.1,0.7,0.3,1.3,0.3c0.7,0,1.4-0.5,1.4-1.3c0-0.8-0.5-1.3-1.7-1.3    c-0.3,0-0.6,0-0.8,0.1l0.4-2.8h2.8V254z" fill="#808080" id="path_39" tag_name="svg/g_14/g_22/path_39"/>
      <path d="M348.9,256.2c0,2-0.7,3.1-2,3.1c-1.1,0-1.9-1.1-1.9-3c0-2,0.8-3,2-3C348.2,253.2,348.9,254.3,348.9,256.2z     M345.8,256.3c0,1.5,0.5,2.4,1.2,2.4c0.8,0,1.2-0.9,1.2-2.4c0-1.4-0.4-2.4-1.2-2.4C346.3,253.8,345.8,254.7,345.8,256.3z" fill="#808080" id="path_38" tag_name="svg/g_14/g_22/path_38"/>
      <path d="M353.6,256.2c0,2-0.7,3.1-2,3.1c-1.1,0-1.9-1.1-1.9-3c0-2,0.8-3,2-3C352.9,253.2,353.6,254.3,353.6,256.2z     M350.4,256.3c0,1.5,0.5,2.4,1.2,2.4c0.8,0,1.2-0.9,1.2-2.4c0-1.4-0.4-2.4-1.2-2.4C350.9,253.8,350.4,254.7,350.4,256.3z" fill="#808080" id="path_37" tag_name="svg/g_14/g_22/path_37"/>
    </g>
    <g id="g_21" tag_name="svg/g_14/g_21">
      <path d="M384.7,258.3c0.2,0.1,0.7,0.4,1.3,0.4c1,0,1.3-0.6,1.3-1.1c0-0.8-0.7-1.2-1.5-1.2h-0.4v-0.6h0.4    c0.6,0,1.3-0.3,1.3-1c0-0.5-0.3-0.9-1-0.9c-0.5,0-0.9,0.2-1.2,0.4l-0.2-0.6c0.3-0.2,0.9-0.5,1.5-0.5c1.2,0,1.7,0.7,1.7,1.4    c0,0.6-0.4,1.1-1.1,1.4v0c0.7,0.1,1.3,0.7,1.3,1.5c0,0.9-0.7,1.8-2.1,1.8c-0.7,0-1.2-0.2-1.5-0.4L384.7,258.3z" fill="#808080" id="path_36" tag_name="svg/g_14/g_21/path_36"/>
      <path d="M393,256.2c0,2-0.7,3.1-2,3.1c-1.1,0-1.9-1.1-1.9-3c0-2,0.8-3,2-3C392.3,253.2,393,254.3,393,256.2z     M389.8,256.3c0,1.5,0.5,2.4,1.2,2.4c0.8,0,1.2-0.9,1.2-2.4c0-1.4-0.4-2.4-1.2-2.4C390.3,253.8,389.8,254.7,389.8,256.3z" fill="#808080" id="path_35" tag_name="svg/g_14/g_21/path_35"/>
      <path d="M397.6,256.2c0,2-0.7,3.1-2,3.1c-1.1,0-1.9-1.1-1.9-3c0-2,0.8-3,2-3C396.9,253.2,397.6,254.3,397.6,256.2z     M394.4,256.3c0,1.5,0.5,2.4,1.2,2.4c0.8,0,1.2-0.9,1.2-2.4c0-1.4-0.4-2.4-1.2-2.4C394.9,253.8,394.4,254.7,394.4,256.3z" fill="#808080" id="path_34" tag_name="svg/g_14/g_21/path_34"/>
      <path d="M402.2,256.2c0,2-0.7,3.1-2,3.1c-1.1,0-1.9-1.1-1.9-3c0-2,0.8-3,2-3C401.5,253.2,402.2,254.3,402.2,256.2z     M399,256.3c0,1.5,0.5,2.4,1.2,2.4c0.8,0,1.2-0.9,1.2-2.4c0-1.4-0.4-2.4-1.2-2.4C399.6,253.8,399,254.7,399,256.3z" fill="#808080" id="path_33" tag_name="svg/g_14/g_21/path_33"/>
    </g>
    <g id="g_20" tag_name="svg/g_14/g_20">
      <path d="M434.1,258.3c0.2,0.1,0.7,0.4,1.3,0.4c1,0,1.3-0.6,1.3-1.1c0-0.8-0.7-1.2-1.5-1.2h-0.4v-0.6h0.4    c0.6,0,1.3-0.3,1.3-1c0-0.5-0.3-0.9-1-0.9c-0.5,0-0.9,0.2-1.2,0.4l-0.2-0.6c0.3-0.2,0.9-0.5,1.5-0.5c1.2,0,1.7,0.7,1.7,1.4    c0,0.6-0.4,1.1-1.1,1.4v0c0.7,0.1,1.3,0.7,1.3,1.5c0,0.9-0.7,1.8-2.1,1.8c-0.7,0-1.2-0.2-1.5-0.4L434.1,258.3z" fill="#808080" id="path_32" tag_name="svg/g_14/g_20/path_32"/>
      <path d="M442,254h-2.2l-0.2,1.5c0.1,0,0.3,0,0.5,0c0.4,0,0.9,0.1,1.3,0.3c0.5,0.3,0.8,0.8,0.8,1.5c0,1.1-0.9,2-2.2,2    c-0.6,0-1.2-0.2-1.5-0.4l0.2-0.6c0.2,0.1,0.7,0.3,1.2,0.3c0.7,0,1.4-0.5,1.4-1.3c0-0.8-0.5-1.3-1.7-1.3c-0.3,0-0.6,0-0.8,0.1    l0.4-2.8h2.8V254z" fill="#808080" id="path_31" tag_name="svg/g_14/g_20/path_31"/>
      <path d="M447,256.2c0,2-0.7,3.1-2,3.1c-1.1,0-1.9-1.1-1.9-3c0-2,0.8-3,2-3C446.3,253.2,447,254.3,447,256.2z     M443.8,256.3c0,1.5,0.5,2.4,1.2,2.4c0.8,0,1.2-0.9,1.2-2.4c0-1.4-0.4-2.4-1.2-2.4C444.4,253.8,443.8,254.7,443.8,256.3z" fill="#808080" id="path_30" tag_name="svg/g_14/g_20/path_30"/>
      <path d="M451.6,256.2c0,2-0.7,3.1-2,3.1c-1.1,0-1.9-1.1-1.9-3c0-2,0.8-3,2-3C450.9,253.2,451.6,254.3,451.6,256.2z     M448.5,256.3c0,1.5,0.5,2.4,1.2,2.4c0.8,0,1.2-0.9,1.2-2.4c0-1.4-0.4-2.4-1.2-2.4C449,253.8,448.5,254.7,448.5,256.3z" fill="#808080" id="path_29" tag_name="svg/g_14/g_20/path_29"/>
    </g>
    <g id="g_19" tag_name="svg/g_14/g_19">
      <path d="M486.7,259.2v-1.6H484v-0.5l2.6-3.7h0.9v3.6h0.8v0.6h-0.8v1.6H486.7z M486.7,257v-2c0-0.3,0-0.6,0-0.9h0    c-0.2,0.3-0.3,0.6-0.5,0.9l-1.4,2v0H486.7z" fill="#808080" id="path_28" tag_name="svg/g_14/g_19/path_28"/>
      <path d="M492.7,256.2c0,2-0.7,3.1-2,3.1c-1.1,0-1.9-1.1-1.9-3c0-2,0.8-3,2-3C492,253.2,492.7,254.3,492.7,256.2z     M489.6,256.3c0,1.5,0.5,2.4,1.2,2.4c0.8,0,1.2-0.9,1.2-2.4c0-1.4-0.4-2.4-1.2-2.4C490.1,253.8,489.6,254.7,489.6,256.3z" fill="#808080" id="path_27" tag_name="svg/g_14/g_19/path_27"/>
      <path d="M497.4,256.2c0,2-0.7,3.1-2,3.1c-1.1,0-1.9-1.1-1.9-3c0-2,0.8-3,2-3C496.7,253.2,497.4,254.3,497.4,256.2z     M494.2,256.3c0,1.5,0.5,2.4,1.2,2.4c0.8,0,1.2-0.9,1.2-2.4c0-1.4-0.4-2.4-1.2-2.4C494.7,253.8,494.2,254.7,494.2,256.3z" fill="#808080" id="path_26" tag_name="svg/g_14/g_19/path_26"/>
      <path d="M502,256.2c0,2-0.7,3.1-2,3.1c-1.1,0-1.9-1.1-1.9-3c0-2,0.8-3,2-3C501.3,253.2,502,254.3,502,256.2z     M498.8,256.3c0,1.5,0.5,2.4,1.2,2.4c0.8,0,1.2-0.9,1.2-2.4c0-1.4-0.4-2.4-1.2-2.4C499.3,253.8,498.8,254.7,498.8,256.3z" fill="#808080" id="path_25" tag_name="svg/g_14/g_19/path_25"/>
    </g>
    <g id="g_18" tag_name="svg/g_14/g_18">
      <path d="M536,254h-2.2l-0.2,1.5c0.1,0,0.3,0,0.5,0c0.5,0,0.9,0.1,1.3,0.3c0.5,0.3,0.8,0.8,0.8,1.5c0,1.1-0.9,2-2.2,2    c-0.6,0-1.2-0.2-1.5-0.4l0.2-0.6c0.2,0.1,0.7,0.3,1.3,0.3c0.7,0,1.4-0.5,1.4-1.3c0-0.8-0.5-1.3-1.7-1.3c-0.3,0-0.6,0-0.8,0.1    l0.4-2.8h2.8V254z" fill="#808080" id="path_24" tag_name="svg/g_14/g_18/path_24"/>
      <path d="M541,256.2c0,2-0.7,3.1-2,3.1c-1.1,0-1.9-1.1-1.9-3c0-2,0.8-3,2-3C540.3,253.2,541,254.3,541,256.2z     M537.8,256.3c0,1.5,0.5,2.4,1.2,2.4c0.8,0,1.2-0.9,1.2-2.4c0-1.4-0.4-2.4-1.2-2.4C538.3,253.8,537.8,254.7,537.8,256.3z" fill="#808080" id="path_23" tag_name="svg/g_14/g_18/path_23"/>
      <path d="M545.6,256.2c0,2-0.7,3.1-2,3.1c-1.1,0-1.9-1.1-1.9-3c0-2,0.8-3,2-3C544.9,253.2,545.6,254.3,545.6,256.2z     M542.4,256.3c0,1.5,0.5,2.4,1.2,2.4c0.8,0,1.2-0.9,1.2-2.4c0-1.4-0.4-2.4-1.2-2.4C542.9,253.8,542.4,254.7,542.4,256.3z" fill="#808080" id="path_22" tag_name="svg/g_14/g_18/path_22"/>
      <path d="M550.2,256.2c0,2-0.7,3.1-2,3.1c-1.1,0-1.9-1.1-1.9-3c0-2,0.8-3,2-3C549.5,253.2,550.2,254.3,550.2,256.2z     M547,256.3c0,1.5,0.5,2.4,1.2,2.4c0.8,0,1.2-0.9,1.2-2.4c0-1.4-0.4-2.4-1.2-2.4C547.6,253.8,547,254.7,547,256.3z" fill="#808080" id="path_21" tag_name="svg/g_14/g_18/path_21"/>
    </g>
    <g id="g_17" tag_name="svg/g_14/g_17">
      <path d="M584.9,254h-2.2l-0.2,1.5c0.1,0,0.3,0,0.5,0c0.4,0,0.9,0.1,1.3,0.3c0.5,0.3,0.8,0.8,0.8,1.5    c0,1.1-0.9,2-2.2,2c-0.6,0-1.2-0.2-1.5-0.4l0.2-0.6c0.2,0.1,0.7,0.3,1.2,0.3c0.7,0,1.4-0.5,1.4-1.3c0-0.8-0.5-1.3-1.7-1.3    c-0.3,0-0.6,0-0.8,0.1l0.4-2.8h2.8V254z" fill="#808080" id="path_20" tag_name="svg/g_14/g_17/path_20"/>
      <path d="M589.5,254h-2.2l-0.2,1.5c0.1,0,0.3,0,0.5,0c0.4,0,0.9,0.1,1.3,0.3c0.5,0.3,0.8,0.8,0.8,1.5    c0,1.1-0.9,2-2.2,2c-0.6,0-1.2-0.2-1.5-0.4l0.2-0.6c0.2,0.1,0.7,0.3,1.2,0.3c0.7,0,1.4-0.5,1.4-1.3c0-0.8-0.5-1.3-1.7-1.3    c-0.3,0-0.6,0-0.8,0.1l0.4-2.8h2.8V254z" fill="#808080" id="path_19" tag_name="svg/g_14/g_17/path_19"/>
      <path d="M594.5,256.2c0,2-0.7,3.1-2,3.1c-1.1,0-1.9-1.1-1.9-3c0-2,0.8-3,2-3C593.8,253.2,594.5,254.3,594.5,256.2z     M591.3,256.3c0,1.5,0.5,2.4,1.2,2.4c0.8,0,1.2-0.9,1.2-2.4c0-1.4-0.4-2.4-1.2-2.4C591.9,253.8,591.3,254.7,591.3,256.3z" fill="#808080" id="path_18" tag_name="svg/g_14/g_17/path_18"/>
      <path d="M599.1,256.2c0,2-0.7,3.1-2,3.1c-1.1,0-1.9-1.1-1.9-3c0-2,0.8-3,2-3C598.4,253.2,599.1,254.3,599.1,256.2z     M596,256.3c0,1.5,0.5,2.4,1.2,2.4c0.8,0,1.2-0.9,1.2-2.4c0-1.4-0.4-2.4-1.2-2.4C596.5,253.8,596,254.7,596,256.3z" fill="#808080" id="path_17" tag_name="svg/g_14/g_17/path_17"/>
    </g>
    <g id="g_16" tag_name="svg/g_14/g_16">
      <path d="M634.5,253.9c-0.2,0-0.4,0-0.6,0c-1.2,0.2-1.9,1.1-2,2.1h0c0.3-0.4,0.8-0.7,1.4-0.7c1,0,1.8,0.7,1.8,1.9    c0,1.1-0.7,2.1-1.9,2.1c-1.3,0-2.1-1-2.1-2.5c0-1.2,0.4-2.1,1-2.6c0.5-0.5,1.1-0.8,1.9-0.9c0.2,0,0.4,0,0.6,0V253.9z M634.3,257.3    c0-0.8-0.5-1.3-1.2-1.3c-0.5,0-0.9,0.3-1.1,0.7c-0.1,0.1-0.1,0.2-0.1,0.4c0,1,0.5,1.7,1.3,1.7    C633.8,258.7,634.3,258.1,634.3,257.3z" fill="#808080" id="path_16" tag_name="svg/g_14/g_16/path_16"/>
      <path d="M639.7,256.2c0,2-0.7,3.1-2,3.1c-1.1,0-1.9-1.1-1.9-3c0-2,0.8-3,2-3C639,253.2,639.7,254.3,639.7,256.2z     M636.5,256.3c0,1.5,0.5,2.4,1.2,2.4c0.8,0,1.2-0.9,1.2-2.4c0-1.4-0.4-2.4-1.2-2.4C637,253.8,636.5,254.7,636.5,256.3z" fill="#808080" id="path_15" tag_name="svg/g_14/g_16/path_15"/>
      <path d="M644.3,256.2c0,2-0.7,3.1-2,3.1c-1.1,0-1.9-1.1-1.9-3c0-2,0.8-3,2-3C643.6,253.2,644.3,254.3,644.3,256.2z     M641.1,256.3c0,1.5,0.5,2.4,1.2,2.4c0.8,0,1.2-0.9,1.2-2.4c0-1.4-0.4-2.4-1.2-2.4C641.6,253.8,641.1,254.7,641.1,256.3z" fill="#808080" id="path_14" tag_name="svg/g_14/g_16/path_14"/>
      <path d="M648.9,256.2c0,2-0.7,3.1-2,3.1c-1.1,0-1.9-1.1-1.9-3c0-2,0.8-3,2-3C648.2,253.2,648.9,254.3,648.9,256.2z     M645.7,256.3c0,1.5,0.5,2.4,1.2,2.4c0.8,0,1.2-0.9,1.2-2.4c0-1.4-0.4-2.4-1.2-2.4C646.2,253.8,645.7,254.7,645.7,256.3z" fill="#808080" id="path_13" tag_name="svg/g_14/g_16/path_13"/>
    </g>
    <g id="g_15" tag_name="svg/g_14/g_15">
      <path d="M682.5,253.9c-0.2,0-0.4,0-0.6,0c-1.2,0.2-1.9,1.1-2,2.1h0c0.3-0.4,0.8-0.7,1.4-0.7c1,0,1.8,0.7,1.8,1.9    c0,1.1-0.7,2.1-1.9,2.1c-1.3,0-2.1-1-2.1-2.5c0-1.2,0.4-2.1,1-2.6c0.5-0.5,1.1-0.8,1.9-0.9c0.2,0,0.4,0,0.6,0V253.9z M682.3,257.3    c0-0.8-0.5-1.3-1.2-1.3c-0.5,0-0.9,0.3-1.1,0.7c-0.1,0.1-0.1,0.2-0.1,0.4c0,1,0.5,1.7,1.3,1.7    C681.8,258.7,682.3,258.1,682.3,257.3z" fill="#808080" id="path_12" tag_name="svg/g_14/g_15/path_12"/>
      <path d="M687.3,254H685l-0.2,1.5c0.1,0,0.3,0,0.5,0c0.5,0,0.9,0.1,1.3,0.3c0.5,0.3,0.8,0.8,0.8,1.5c0,1.1-0.9,2-2.2,2    c-0.6,0-1.2-0.2-1.5-0.4l0.2-0.6c0.2,0.1,0.7,0.3,1.3,0.3c0.7,0,1.4-0.5,1.4-1.3c0-0.8-0.5-1.3-1.7-1.3c-0.3,0-0.6,0-0.8,0.1    l0.4-2.8h2.8V254z" fill="#808080" id="path_11" tag_name="svg/g_14/g_15/path_11"/>
      <path d="M692.3,256.2c0,2-0.7,3.1-2,3.1c-1.1,0-1.9-1.1-1.9-3c0-2,0.8-3,2-3C691.6,253.2,692.3,254.3,692.3,256.2z     M689.1,256.3c0,1.5,0.5,2.4,1.2,2.4c0.8,0,1.2-0.9,1.2-2.4c0-1.4-0.4-2.4-1.2-2.4C689.6,253.8,689.1,254.7,689.1,256.3z" fill="#808080" id="path_10" tag_name="svg/g_14/g_15/path_10"/>
      <path d="M696.9,256.2c0,2-0.7,3.1-2,3.1c-1.1,0-1.9-1.1-1.9-3c0-2,0.8-3,2-3C696.2,253.2,696.9,254.3,696.9,256.2z     M693.7,256.3c0,1.5,0.5,2.4,1.2,2.4c0.8,0,1.2-0.9,1.2-2.4c0-1.4-0.4-2.4-1.2-2.4C694.2,253.8,693.7,254.7,693.7,256.3z" fill="#808080" id="path_9" tag_name="svg/g_14/g_15/path_9"/>
    </g>
    <line x1="147.7" y1="244.5" x2="147.7" y2="250.5" fill="none" stroke="#666666" id="line_20" tag_name="svg/g_14/line_20"/>
    <polyline points="96.5,250.5 96.5,244.5 98.5,244.5 688.5,244.5  " fill="none" stroke="#666666" id="polyline" tag_name="svg/g_14/polyline"/>
    <line x1="196.8" y1="244.5" x2="196.8" y2="250.5" fill="none" stroke="#666666" id="line_19" tag_name="svg/g_14/line_19"/>
    <line x1="246" y1="244.5" x2="246" y2="250.5" fill="none" stroke="#666666" id="line_18" tag_name="svg/g_14/line_18"/>
    <line x1="295.2" y1="244.5" x2="295.2" y2="250.5" fill="none" stroke="#666666" id="line_17" tag_name="svg/g_14/line_17"/>
    <line x1="344.3" y1="244.5" x2="344.3" y2="250.5" fill="none" stroke="#666666" id="line_16" tag_name="svg/g_14/line_16"/>
    <line x1="393.5" y1="244.5" x2="393.5" y2="250.5" fill="none" stroke="#666666" id="line_15" tag_name="svg/g_14/line_15"/>
    <line x1="442.7" y1="244.5" x2="442.7" y2="250.5" fill="none" stroke="#666666" id="line_14" tag_name="svg/g_14/line_14"/>
    <line x1="491.8" y1="244.5" x2="491.8" y2="250.5" fill="none" stroke="#666666" id="line_13" tag_name="svg/g_14/line_13"/>
    <line x1="541" y1="244.5" x2="541" y2="250.5" fill="none" stroke="#666666" id="line_12" tag_name="svg/g_14/line_12"/>
    <line x1="590.2" y1="244.5" x2="590.2" y2="250.5" fill="none" stroke="#666666" id="line_11" tag_name="svg/g_14/line_11"/>
    <line x1="639.3" y1="244.5" x2="639.3" y2="250.5" fill="none" stroke="#666666" id="line_10" tag_name="svg/g_14/line_10"/>
    <line x1="688.5" y1="244.5" x2="688.5" y2="250.5" fill="none" stroke="#666666" id="line_9" tag_name="svg/g_14/line_9"/>
  </g>
  <g id="g" tag_name="svg/g">
    <g id="g_13" tag_name="svg/g/g_13">
      <path d="M34.5,49.6c-0.1,0.2-0.2,0.2-0.4,0.7c-1.1,2.1-2.5,3.8-4.4,5.3c-0.2-0.3-0.4-0.5-0.7-0.8    c1.7-1.1,2.8-2.2,3.6-3.7c0.5-0.8,0.8-1.4,0.8-1.9L34.5,49.6z M30.3,59.8c0.3-0.1,0.5-0.1,0.6-0.2c0.7-0.8,1.8-2.4,2.5-3.7    c0.5-0.9,0.8-1.6,1-2.1c0.2-0.5,0.2-0.5,0.2-0.6l1.1,0.4c-0.1,0.1-0.1,0.2-0.3,0.4c-0.4,0.9-1.1,2.2-1.7,3.1    c-0.6,1-0.7,1.1-1.9,2.7c3.4-0.1,5.5-0.3,7.1-0.5c-0.1-0.2-0.1-0.2-0.4-0.7c-0.4-0.6-1-1.4-1.8-2.4l0.8-0.5    c1.4,1.7,2.5,3.4,3.4,5.1L40,61.4c-0.4-0.7-0.5-1-0.7-1.4c-1.8,0.3-4.4,0.5-8.1,0.7c-0.3,0-0.6,0.1-0.7,0.1L30.3,59.8z M37.4,49    c0.2,0.8,0.8,1.9,1.6,2.9c0.8,1.1,1.7,1.9,3.1,2.9c-0.3,0.3-0.5,0.5-0.7,0.9c-2.4-1.9-3.4-3.2-4.7-5.9c-0.1-0.2-0.1-0.3-0.2-0.4    L37.4,49z" fill="#4D4D4D" id="path_8" tag_name="svg/g/g_13/path_8"/>
      <path d="M43.7,51.8c0.4,0.1,0.8,0.1,1.3,0.1h6c0.5,0,0.9,0,1.3-0.1v1c-0.4-0.1-0.8-0.1-1.3-0.1H45    c-0.5,0-0.9,0-1.3,0.1V51.8z M51.2,57.6c0,0.4,0,0.7,0,1.1c-0.4,0-0.5,0-1.2,0h-4.6v1.3h-1c0.1-0.4,0.1-0.8,0.1-1.3v-3.2    c0-0.5,0-0.9-0.1-1.2c0.4,0,0.7,0,1.2,0h4.4c0.6,0,0.8,0,1.1,0c0,0.4,0,0.6,0,1.1V57.6z M54.9,60.2c0,1-0.3,1.2-1.6,1.2    c-0.6,0-1.1,0-2-0.1c0-0.4-0.1-0.6-0.2-1c0.9,0.2,1.5,0.2,2.3,0.2c0.4,0,0.5-0.1,0.5-0.4v-9.8h-7.8c-0.7,0-1.1,0-1.6,0.1v-1    c0.4,0.1,0.8,0.1,1.6,0.1h7.4c0.6,0,1,0,1.4-0.1c0,0.4-0.1,0.7-0.1,1.3V60.2z M45.5,57.9h4.8v-2.8h-4.8V57.9z" fill="#4D4D4D" id="path_7" tag_name="svg/g/g_13/path_7"/>
      <path d="M65.4,60.4c-0.1-0.5-0.3-1-0.4-1.4l-0.7-1.8h-4.9L58.6,59c-0.2,0.5-0.3,0.9-0.4,1.4h-1.5    c0.3-0.5,0.4-0.7,0.8-1.6l3.1-7.7c0.3-0.7,0.4-1,0.4-1.3h1.4c0.1,0.3,0.1,0.4,0.5,1.3l3.1,7.7c0.4,0.8,0.5,1.2,0.7,1.6H65.4z     M62.1,51.6c0-0.1,0-0.1-0.3-0.9c-0.1,0.2-0.1,0.4-0.2,0.5c-0.1,0.2-0.1,0.4-0.2,0.4l-1.8,4.6h4.2L62.1,51.6z" fill="#4D4D4D" id="path_6" tag_name="svg/g/g_13/path_6"/>
    </g>
    <line x1="185.5" y1="56.2" x2="580" y2="56.2" fill="none" stroke="#333333" stroke-width="2" id="line_8" tag_name="svg/g/line_8"/>
    <line x1="135.5" y1="131.4" x2="604.8" y2="131.4" fill="none" stroke="#333333" stroke-width="2" id="line_7" tag_name="svg/g/line_7"/>
    <line x1="369.5" y1="206.5" x2="662.8" y2="206.5" fill="none" stroke="#333333" stroke-width="2" id="line_6" tag_name="svg/g/line_6"/>
    <g id="g_12" tag_name="svg/g/g_12">
      <path d="M35.2,125.6c-0.1,0.2-0.2,0.2-0.4,0.7c-1.1,2.1-2.5,3.8-4.4,5.3c-0.2-0.3-0.4-0.5-0.7-0.8    c1.7-1.1,2.8-2.2,3.6-3.7c0.5-0.8,0.8-1.4,0.8-1.9L35.2,125.6z M31,135.8c0.3-0.1,0.5-0.1,0.6-0.2c0.7-0.8,1.8-2.4,2.5-3.7    c0.5-0.9,0.8-1.6,1-2.1c0.2-0.5,0.2-0.5,0.2-0.6l1.1,0.4c-0.1,0.1-0.1,0.2-0.3,0.4c-0.4,0.9-1.1,2.2-1.7,3.1    c-0.6,1-0.7,1.1-1.9,2.7c3.4-0.1,5.5-0.3,7.1-0.5c-0.1-0.2-0.1-0.2-0.4-0.7c-0.4-0.6-1-1.4-1.8-2.4l0.8-0.5    c1.4,1.7,2.5,3.4,3.4,5.1l-0.8,0.5c-0.4-0.7-0.5-1-0.7-1.4c-1.8,0.3-4.4,0.5-8.1,0.7c-0.3,0-0.6,0.1-0.7,0.1L31,135.8z M38.2,125    c0.2,0.8,0.8,1.9,1.6,2.9c0.8,1.1,1.7,1.9,3.1,2.9c-0.3,0.3-0.5,0.5-0.7,0.9c-2.4-1.9-3.4-3.2-4.7-5.9c-0.1-0.2-0.1-0.3-0.2-0.4    L38.2,125z" fill="#4D4D4D" id="path_5" tag_name="svg/g/g_12/path_5"/>
      <path d="M44.5,127.8c0.4,0.1,0.8,0.1,1.3,0.1h6c0.5,0,0.9,0,1.3-0.1v1c-0.4-0.1-0.8-0.1-1.3-0.1h-6.1    c-0.5,0-0.9,0-1.3,0.1V127.8z M52,133.6c0,0.4,0,0.7,0,1.1c-0.4,0-0.5,0-1.2,0h-4.6v1.3h-1c0.1-0.4,0.1-0.8,0.1-1.3v-3.2    c0-0.5,0-0.9-0.1-1.2c0.4,0,0.7,0,1.2,0H51c0.6,0,0.8,0,1.1,0c0,0.4,0,0.6,0,1.1V133.6z M55.6,136.2c0,1-0.3,1.2-1.6,1.2    c-0.6,0-1.1,0-2-0.1c0-0.4-0.1-0.6-0.2-1c0.9,0.2,1.5,0.2,2.3,0.2c0.4,0,0.5-0.1,0.5-0.4v-9.8h-7.8c-0.7,0-1.1,0-1.6,0.1v-1    c0.4,0.1,0.8,0.1,1.6,0.1h7.4c0.6,0,1,0,1.4-0.1c0,0.4-0.1,0.7-0.1,1.3V136.2z M46.3,133.9h4.8v-2.8h-4.8V133.9z" fill="#4D4D4D" id="path_4" tag_name="svg/g/g_12/path_4"/>
      <path d="M59.9,136.4c-0.6,0-1.1,0-1.5,0c0.1-0.6,0.1-0.9,0.1-1.7v-7.5c0-0.6,0-1-0.1-1.5c0.4,0,0.7,0,1.5,0h3    c2,0,3.2,0.9,3.2,2.6c0,0.8-0.3,1.4-0.8,1.9c-0.3,0.3-0.5,0.4-1.1,0.6c0.6,0.1,1,0.3,1.4,0.6c0.6,0.5,0.9,1.2,0.9,2.1    c0,1.9-1.2,2.9-3.4,2.9H59.9z M62.9,130.3c1.3,0,2.1-0.7,2.1-1.9c0-1.2-0.7-1.8-2.1-1.8h-3.3v3.6H62.9z M59.6,135.5h3.4    c1.5,0,2.3-0.7,2.3-2.1c0-1.4-0.8-2.1-2.4-2.1h-3.3V135.5z" fill="#4D4D4D" id="path_3" tag_name="svg/g/g_12/path_3"/>
    </g>
    <g id="g_11" tag_name="svg/g/g_11">
      <path d="M34.8,199.6c-0.1,0.2-0.2,0.2-0.4,0.7c-1.1,2.1-2.5,3.8-4.4,5.3c-0.2-0.3-0.4-0.5-0.7-0.8    c1.7-1.1,2.8-2.2,3.6-3.7c0.5-0.8,0.8-1.4,0.8-1.9L34.8,199.6z M30.6,209.8c0.3-0.1,0.5-0.1,0.6-0.2c0.7-0.8,1.8-2.4,2.5-3.7    c0.5-0.9,0.8-1.6,1-2.1c0.2-0.5,0.2-0.5,0.2-0.6l1.1,0.4c-0.1,0.1-0.1,0.2-0.3,0.4c-0.4,0.9-1.1,2.2-1.7,3.1    c-0.6,1-0.7,1.1-1.9,2.7c3.4-0.1,5.5-0.3,7.1-0.5c-0.1-0.2-0.1-0.2-0.4-0.7c-0.4-0.6-1-1.4-1.8-2.4l0.8-0.5    c1.4,1.7,2.5,3.4,3.4,5.1l-0.8,0.5c-0.4-0.7-0.5-1-0.7-1.4c-1.8,0.3-4.4,0.5-8.1,0.7c-0.3,0-0.6,0.1-0.7,0.1L30.6,209.8z     M37.8,199c0.2,0.8,0.8,1.9,1.6,2.9c0.8,1.1,1.7,1.9,3.1,2.9c-0.3,0.3-0.5,0.5-0.7,0.9c-2.4-1.9-3.4-3.2-4.7-5.9    c-0.1-0.2-0.1-0.3-0.2-0.4L37.8,199z" fill="#4D4D4D" id="path_2" tag_name="svg/g/g_11/path_2"/>
      <path d="M44,201.8c0.4,0.1,0.8,0.1,1.3,0.1h6c0.5,0,0.9,0,1.3-0.1v1c-0.4-0.1-0.8-0.1-1.3-0.1h-6.1    c-0.5,0-0.9,0-1.3,0.1V201.8z M51.6,207.6c0,0.4,0,0.7,0,1.1c-0.4,0-0.5,0-1.2,0h-4.6v1.3h-1c0.1-0.4,0.1-0.8,0.1-1.3v-3.2    c0-0.5,0-0.9-0.1-1.2c0.4,0,0.7,0,1.2,0h4.4c0.6,0,0.8,0,1.1,0c0,0.4,0,0.6,0,1.1V207.6z M55.2,210.2c0,1-0.3,1.2-1.6,1.2    c-0.6,0-1.1,0-2-0.1c0-0.4-0.1-0.6-0.2-1c0.9,0.2,1.5,0.2,2.3,0.2c0.4,0,0.5-0.1,0.5-0.4v-9.8h-7.8c-0.7,0-1.1,0-1.6,0.1v-1    c0.4,0.1,0.8,0.1,1.6,0.1h7.4c0.6,0,1,0,1.4-0.1c0,0.4-0.1,0.7-0.1,1.3V210.2z M45.9,207.9h4.8v-2.8h-4.8V207.9z" fill="#4D4D4D" id="path_1" tag_name="svg/g/g_11/path_1"/>
      <path d="M65.5,202.8c-0.2-0.6-0.4-0.9-0.7-1.2c-0.6-0.7-1.4-1-2.4-1c-2.3,0-3.7,1.7-3.7,4.5c0,2.8,1.4,4.5,3.7,4.5    c1.1,0,2-0.4,2.6-1.2c0.3-0.4,0.4-0.8,0.6-1.4l1.2,0.3c-0.2,0.8-0.4,1.2-0.8,1.7c-0.8,1.1-2.1,1.6-3.6,1.6c-1.3,0-2.5-0.4-3.3-1.2    c-1-1-1.5-2.5-1.5-4.3c0-1.8,0.6-3.3,1.6-4.4c0.8-0.8,1.9-1.2,3.2-1.2c1.3,0,2.4,0.4,3.1,1.1c0.5,0.5,0.8,0.9,1.1,1.8L65.5,202.8z    " fill="#4D4D4D" id="path" tag_name="svg/g/g_11/path"/>
    </g>
    <rect x="241.2" y="40" width="120.7" height="32" fill="#ff6363" stroke="#333333" stroke-width="2" id="rect_5" tag_name="svg/g/rect_5"/>
    <rect x="361.7" y="40" width="81.7" height="32" fill="#e1a3a3" stroke="#333333" stroke-width="2" id="rect_4" tag_name="svg/g/rect_4"/>
    <rect x="157.2" y="115.5" width="244.7" height="32" fill="#ff6363" stroke="#333333" stroke-width="2" id="rect_3" tag_name="svg/g/rect_3"/>
    <rect x="402.2" y="115.5" width="130.7" height="32" fill="#e1a3a3" stroke="#333333" stroke-width="2" id="rect_2" tag_name="svg/g/rect_2"/>
    <rect x="483.2" y="191.5" width="81.7" height="32" fill="#ff6363" stroke="#333333" stroke-width="2" id="rect_1" tag_name="svg/g/rect_1"/>
    <rect x="565.2" y="191.5" width="51.7" height="32" fill="#e1a3a3" stroke="#333333" stroke-width="2" id="rect" tag_name="svg/g/rect"/>
    <line x1="185" y1="47.5" x2="185" y2="65" fill="none" stroke="#333333" stroke-width="2" id="line_5" tag_name="svg/g/line_5"/>
    <line x1="134.5" y1="122.6" x2="134.5" y2="140.1" fill="none" stroke="#333333" stroke-width="2" id="line_4" tag_name="svg/g/line_4"/>
    <line x1="368.5" y1="197.8" x2="368.5" y2="215.3" fill="none" stroke="#333333" stroke-width="2" id="line_3" tag_name="svg/g/line_3"/>
    <line x1="663.2" y1="197.7" x2="663.2" y2="215.2" fill="none" stroke="#333333" stroke-width="2" id="line_2" tag_name="svg/g/line_2"/>
    <line x1="605.7" y1="122.7" x2="605.7" y2="140.2" fill="none" stroke="#333333" stroke-width="2" id="line_1" tag_name="svg/g/line_1"/>
    <line x1="579.9" y1="47.2" x2="579.9" y2="64.7" fill="none" stroke="#333333" stroke-width="2" id="line" tag_name="svg/g/line"/>
    <g id="g_10" tag_name="svg/g/g_10">
	</g>
    <g id="g_9" tag_name="svg/g/g_9">
	</g>
    <g id="g_8" tag_name="svg/g/g_8">
	</g>
    <g id="g_7" tag_name="svg/g/g_7">
	</g>
    <g id="g_6" tag_name="svg/g/g_6">
	</g>
    <g id="g_5" tag_name="svg/g/g_5">
	</g>
    <g id="g_4" tag_name="svg/g/g_4">
	</g>
    <g id="g_3" tag_name="svg/g/g_3">
	</g>
    <g id="g_2" tag_name="svg/g/g_2">
	</g>
    <g id="g_1" tag_name="svg/g/g_1">
	</g>
  </g>
</svg>