<?xml version='1.0' encoding='UTF-8'?>
<svg width="1000" height="380" viewBox="-50,-30,1100,520" style="max-width: 100%; height: auto; font: 10px sans-serif;" id="svg" tag_name="svg">
  <g transform="translate(0,0)" id="g" tag_name="svg/g">
    <text font-size="67" transform="translate(290,352) rotate(0)" id="text_249" tag_name="svg/g/text_249">xxxxxxx</text>
    <text font-size="58" transform="translate(206,285) rotate(0)" id="text_248" tag_name="svg/g/text_248">xxxxx</text>
    <text font-size="54" transform="translate(547,201) rotate(0)" id="text_247" tag_name="svg/g/text_247">xxx</text>
    <text font-size="54" transform="translate(359,295) rotate(0)" id="text_246" tag_name="svg/g/text_246">xxx</text>
    <text font-size="51" transform="translate(704,246) rotate(0)" id="text_245" tag_name="svg/g/text_245">xxxx</text>
    <text font-size="49" transform="translate(385,144) rotate(0)" id="text_244" tag_name="svg/g/text_244">xxxxxx</text>
    <text font-size="49" transform="translate(389,386) rotate(0)" id="text_243" tag_name="svg/g/text_243">xxx</text>
    <text font-size="49" transform="translate(338,200) rotate(0)" id="text_242" tag_name="svg/g/text_242">xxxxx</text>
    <text font-size="47" transform="translate(653,152) rotate(0)" id="text_241" tag_name="svg/g/text_241">xxxx</text>
    <text font-size="47" transform="translate(634,114) rotate(0)" id="text_240" tag_name="svg/g/text_240">xxxxx</text>
    <text font-size="45" transform="translate(303,105) rotate(0)" id="text_239" tag_name="svg/g/text_239">xxxxx</text>
    <text font-size="45" transform="translate(700,280) rotate(0)" id="text_238" tag_name="svg/g/text_238">xx</text>
    <text font-size="45" transform="translate(469,226) rotate(0)" id="text_237" tag_name="svg/g/text_237">xxxx</text>
    <text font-size="42" transform="translate(653,187) rotate(0)" id="text_236" tag_name="svg/g/text_236">xxxxxxx</text>
    <text font-size="42" transform="translate(562,169) rotate(0)" id="text_235" tag_name="svg/g/text_235">xxxx</text>
    <text font-size="42" transform="translate(471,114) rotate(0)" id="text_234" tag_name="svg/g/text_234">xxxxxxxxx</text>
    <text font-size="42" transform="translate(468,393) rotate(0)" id="text_233" tag_name="svg/g/text_233">xxxx</text>
    <text font-size="39" transform="translate(475,254) rotate(0)" id="text_232" tag_name="svg/g/text_232">xxxxxxxx</text>
    <text font-size="36" transform="translate(213,321) rotate(0)" id="text_231" tag_name="svg/g/text_231">xxxx</text>
    <text font-size="36" transform="translate(218,352) rotate(0)" id="text_230" tag_name="svg/g/text_230">xxx</text>
    <text font-size="36" transform="translate(634,351) rotate(0)" id="text_229" tag_name="svg/g/text_229">xxxxx</text>
    <text font-size="36" transform="translate(576,229) rotate(0)" id="text_228" tag_name="svg/g/text_228">xxx</text>
    <text font-size="33" transform="translate(344,243) rotate(0)" id="text_227" tag_name="svg/g/text_227">xxxxx</text>
    <text font-size="33" transform="translate(435,279) rotate(0)" id="text_226" tag_name="svg/g/text_226">xxxxx</text>
    <text font-size="33" transform="translate(767,153) rotate(0)" id="text_225" tag_name="svg/g/text_225">xxxx</text>
    <text font-size="33" transform="translate(265,224) rotate(0)" id="text_224" tag_name="svg/g/text_224">xxxxx</text>
    <text font-size="33" transform="translate(587,321) rotate(0)" id="text_223" tag_name="svg/g/text_223">xxxxxxx</text>
    <text font-size="33" transform="translate(722,348) rotate(0)" id="text_222" tag_name="svg/g/text_222">xxxx</text>
    <text font-size="33" transform="translate(449,80) rotate(0)" id="text_221" tag_name="svg/g/text_221">xxxxxxxx</text>
    <text font-size="33" transform="translate(308,154) rotate(0)" id="text_220" tag_name="svg/g/text_220">xxx</text>
    <text font-size="33" transform="translate(498,313) rotate(0)" id="text_219" tag_name="svg/g/text_219">xxxxx</text>
    <text font-size="30" transform="translate(796,205) rotate(0)" id="text_218" tag_name="svg/g/text_218">xxxxxxxx</text>
    <text font-size="30" transform="translate(543,277) rotate(0)" id="text_217" tag_name="svg/g/text_217">xxxx</text>
    <text font-size="30" transform="translate(452,171) rotate(0)" id="text_216" tag_name="svg/g/text_216">xxxxxxx</text>
    <text font-size="30" transform="translate(314,312) rotate(0)" id="text_215" tag_name="svg/g/text_215">xxxxx</text>
    <text font-size="30" transform="translate(747,118) rotate(0)" id="text_214" tag_name="svg/g/text_214">xxxxx</text>
    <text font-size="30" transform="translate(430,417) rotate(0)" id="text_213" tag_name="svg/g/text_213">xxxx</text>
    <text font-size="30" transform="translate(566,379) rotate(0)" id="text_212" tag_name="svg/g/text_212">xxxxx</text>
    <text font-size="30" transform="translate(330,378) rotate(0)" id="text_211" tag_name="svg/g/text_211">xxx</text>
    <text font-size="30" transform="translate(490,421) rotate(0)" id="text_210" tag_name="svg/g/text_210">xxxxxxxxxxx</text>
    <text font-size="30" transform="translate(262,132) rotate(0)" id="text_209" tag_name="svg/g/text_209">xxxxxxxx</text>
    <text font-size="25" transform="translate(595,300) rotate(0)" id="text_208" tag_name="svg/g/text_208">xxxx</text>
    <text font-size="25" transform="translate(762,282) rotate(0)" id="text_207" tag_name="svg/g/text_207">xxxxx</text>
    <text font-size="25" transform="translate(239,244) rotate(0)" id="text_206" tag_name="svg/g/text_206">xxxxxxxxx</text>
    <text font-size="25" transform="translate(380,221) rotate(0)" id="text_205" tag_name="svg/g/text_205">xxxxx</text>
    <text font-size="25" transform="translate(414,258) rotate(0)" id="text_204" tag_name="svg/g/text_204">xxxx</text>
    <text font-size="25" transform="translate(646,373) rotate(0)" id="text_203" tag_name="svg/g/text_203">xxxxxx</text>
    <text font-size="25" transform="translate(252,194) rotate(0)" id="text_202" tag_name="svg/g/text_202">xxxxxx</text>
    <text font-size="25" transform="translate(618,271) rotate(0)" id="text_201" tag_name="svg/g/text_201">xxxx</text>
    <text font-size="25" transform="translate(280,369) rotate(0)" id="text_200" tag_name="svg/g/text_200">xxxx</text>
    <text font-size="25" transform="translate(264,169) rotate(0)" id="text_199" tag_name="svg/g/text_199">xxxxxx</text>
    <text font-size="25" transform="translate(760,369) rotate(0)" id="text_198" tag_name="svg/g/text_198">xxxxxxxxxxx</text>
    <text font-size="25" transform="translate(822,170) rotate(0)" id="text_197" tag_name="svg/g/text_197">xxxxxxxxxx</text>
    <text font-size="25" transform="translate(142,302) rotate(0)" id="text_196" tag_name="svg/g/text_196">xxxxx</text>
    <text font-size="25" transform="translate(328,407) rotate(0)" id="text_195" tag_name="svg/g/text_195">xxxxxxx</text>
    <text font-size="25" transform="translate(168,216) rotate(0)" id="text_194" tag_name="svg/g/text_194">xxxxxxx</text>
    <text font-size="25" transform="translate(725,388) rotate(0)" id="text_193" tag_name="svg/g/text_193">xxxxx</text>
    <text font-size="25" transform="translate(155,247) rotate(0)" id="text_192" tag_name="svg/g/text_192">xxxxxx</text>
    <text font-size="25" transform="translate(252,391) rotate(0)" id="text_191" tag_name="svg/g/text_191">xxxx</text>
    <text font-size="25" transform="translate(725,316) rotate(0)" id="text_190" tag_name="svg/g/text_190">xxxx</text>
    <text font-size="25" transform="translate(635,248) rotate(0)" id="text_189" tag_name="svg/g/text_189">xxxx</text>
    <text font-size="21" transform="translate(205,149) rotate(0)" id="text_188" tag_name="svg/g/text_188">xxxxxxx</text>
    <text font-size="21" transform="translate(359,169) rotate(0)" id="text_187" tag_name="svg/g/text_187">xxxx</text>
    <text font-size="21" transform="translate(232,111) rotate(0)" id="text_186" tag_name="svg/g/text_186">xxxxxx</text>
    <text font-size="21" transform="translate(638,297) rotate(0)" id="text_185" tag_name="svg/g/text_185">xxx</text>
    <text font-size="21" transform="translate(547,332) rotate(0)" id="text_184" tag_name="svg/g/text_184">xxxx</text>
    <text font-size="21" transform="translate(509,439) rotate(0)" id="text_183" tag_name="svg/g/text_183">xxxxxxxxxxx</text>
    <text font-size="21" transform="translate(701,201) rotate(0)" id="text_182" tag_name="svg/g/text_182">xxxx</text>
    <text font-size="21" transform="translate(548,134) rotate(0)" id="text_181" tag_name="svg/g/text_181">xxxxxxxxxx</text>
    <text font-size="21" transform="translate(183,168) rotate(0)" id="text_180" tag_name="svg/g/text_180">xxxxxxx</text>
    <text font-size="21" transform="translate(558,353) rotate(0)" id="text_179" tag_name="svg/g/text_179">xxxxx</text>
    <text font-size="21" transform="translate(570,76) rotate(0)" id="text_178" tag_name="svg/g/text_178">xxxxxxxxxxxx</text>
    <text font-size="21" transform="translate(804,130) rotate(0)" id="text_177" tag_name="svg/g/text_177">xxxxx</text>
    <text font-size="21" transform="translate(139,324) rotate(0)" id="text_176" tag_name="svg/g/text_176">xxxxxx</text>
    <text font-size="21" transform="translate(338,64) rotate(0)" id="text_175" tag_name="svg/g/text_175">xxxxxxx</text>
    <text font-size="21" transform="translate(522,54) rotate(0)" id="text_174" tag_name="svg/g/text_174">xxxxxxx</text>
    <text font-size="21" transform="translate(412,103) rotate(0)" id="text_173" tag_name="svg/g/text_173">xxxxxx</text>
    <text font-size="21" transform="translate(163,188) rotate(0)" id="text_172" tag_name="svg/g/text_172">xxxxxxx</text>
    <text font-size="21" transform="translate(836,229) rotate(0)" id="text_171" tag_name="svg/g/text_171">xxxxxxxx</text>
    <text font-size="21" transform="translate(775,299) rotate(0)" id="text_170" tag_name="svg/g/text_170">xxxxxxxx</text>
    <text font-size="21" transform="translate(435,47) rotate(0)" id="text_169" tag_name="svg/g/text_169">xxxxxxx</text>
    <text font-size="21" transform="translate(650,216) rotate(0)" id="text_168" tag_name="svg/g/text_168">xxxxx</text>
    <text font-size="21" transform="translate(826,247) rotate(0)" id="text_167" tag_name="svg/g/text_167">xxxxxxxx</text>
    <text font-size="21" transform="translate(126,265) rotate(0)" id="text_166" tag_name="svg/g/text_166">xxxxxxxx</text>
    <text font-size="21" transform="translate(221,371) rotate(0)" id="text_165" tag_name="svg/g/text_165">xxxxx</text>
    <text font-size="21" transform="translate(673,84) rotate(0)" id="text_164" tag_name="svg/g/text_164">xxxxxxxx</text>
    <text font-size="21" transform="translate(623,56) rotate(0)" id="text_163" tag_name="svg/g/text_163">xxxxxxx</text>
    <text font-size="21" transform="translate(215,88) rotate(0)" id="text_162" tag_name="svg/g/text_162">xxxxxxx</text>
    <text font-size="21" transform="translate(529,41) rotate(0)" id="text_161" tag_name="svg/g/text_161">xxxx</text>
    <text font-size="21" transform="translate(389,432) rotate(0)" id="text_160" tag_name="svg/g/text_160">xxxxxx</text>
    <text font-size="21" transform="translate(128,347) rotate(0)" id="text_159" tag_name="svg/g/text_159">xxxxxxxxx</text>
    <text font-size="21" transform="translate(264,71) rotate(0)" id="text_158" tag_name="svg/g/text_158">xxxxxx</text>
    <text font-size="21" transform="translate(386,310) rotate(0)" id="text_157" tag_name="svg/g/text_157">xxxx</text>
    <text font-size="21" transform="translate(803,112) rotate(0)" id="text_156" tag_name="svg/g/text_156">xxxx</text>
    <text font-size="21" transform="translate(437,299) rotate(0)" id="text_155" tag_name="svg/g/text_155">xxxx</text>
    <text font-size="21" transform="translate(831,270) rotate(0)" id="text_154" tag_name="svg/g/text_154">xxxxxx</text>
    <text font-size="21" transform="translate(553,303) rotate(0)" id="text_153" tag_name="svg/g/text_153">xxxx</text>
    <text font-size="21" transform="translate(146,123) rotate(0)" id="text_152" tag_name="svg/g/text_152">xxxxxxxxx</text>
    <text font-size="21" transform="translate(488,196) rotate(0)" id="text_151" tag_name="svg/g/text_151">xxxx</text>
    <text font-size="21" transform="translate(318,430) rotate(0)" id="text_150" tag_name="svg/g/text_150">xxxxx</text>
    <text font-size="21" transform="translate(650,395) rotate(0)" id="text_149" tag_name="svg/g/text_149">xxxxxxx</text>
    <text font-size="21" transform="translate(96,287) rotate(0)" id="text_148" tag_name="svg/g/text_148">xxxxxxx</text>
    <text font-size="21" transform="translate(358,43) rotate(0)" id="text_147" tag_name="svg/g/text_147">xxxx</text>
    <text font-size="21" transform="translate(358,263) rotate(0)" id="text_146" tag_name="svg/g/text_146">xxxx</text>
    <text font-size="21" transform="translate(775,320) rotate(0)" id="text_145" tag_name="svg/g/text_145">xxxx</text>
    <text font-size="21" transform="translate(509,458) rotate(0)" id="text_144" tag_name="svg/g/text_144">xxxxxxx</text>
    <text font-size="21" transform="translate(543,393) rotate(0)" id="text_143" tag_name="svg/g/text_143">xxxx</text>
    <text font-size="21" transform="translate(147,366) rotate(0)" id="text_142" tag_name="svg/g/text_142">xxxxxx</text>
    <text font-size="21" transform="translate(758,89) rotate(0)" id="text_141" tag_name="svg/g/text_141">xxxx</text>
    <text font-size="21" transform="translate(866,140) rotate(0)" id="text_140" tag_name="svg/g/text_140">xxxx</text>
    <text font-size="21" transform="translate(592,42) rotate(0)" id="text_139" tag_name="svg/g/text_139">xxxxx</text>
    <text font-size="21" transform="translate(172,384) rotate(0)" id="text_138" tag_name="svg/g/text_138">xxxxx</text>
    <text font-size="21" transform="translate(644,417) rotate(0)" id="text_137" tag_name="svg/g/text_137">xxxx</text>
    <text font-size="21" transform="translate(793,341) rotate(0)" id="text_136" tag_name="svg/g/text_136">xxxxxx</text>
    <text font-size="21" transform="translate(99,241) rotate(0)" id="text_135" tag_name="svg/g/text_135">xxxxx</text>
    <text font-size="21" transform="translate(705,70) rotate(0)" id="text_134" tag_name="svg/g/text_134">xxxx</text>
    <text font-size="21" transform="translate(95,145) rotate(0)" id="text_133" tag_name="svg/g/text_133">xxxxxxxxxxxx</text>
    <text font-size="15" transform="translate(435,449) rotate(0)" id="text_132" tag_name="svg/g/text_132">xxxxx</text>
    <text font-size="15" transform="translate(505,27) rotate(0)" id="text_131" tag_name="svg/g/text_131">xxxxxxxx</text>
    <text font-size="15" transform="translate(348,455) rotate(0)" id="text_130" tag_name="svg/g/text_130">xxxxxxxxxxxxx</text>
    <text font-size="15" transform="translate(360,156) rotate(0)" id="text_129" tag_name="svg/g/text_129">xxxx</text>
    <text font-size="15" transform="translate(170,200) rotate(0)" id="text_128" tag_name="svg/g/text_128">xxxxx</text>
    <text font-size="15" transform="translate(212,297) rotate(0)" id="text_127" tag_name="svg/g/text_127">xxx</text>
    <text font-size="15" transform="translate(836,309) rotate(0)" id="text_126" tag_name="svg/g/text_126">xxxxxxxx</text>
    <text font-size="15" transform="translate(433,27) rotate(0)" id="text_125" tag_name="svg/g/text_125">xxxxxx</text>
    <text font-size="15" transform="translate(124,165) rotate(0)" id="text_124" tag_name="svg/g/text_124">xxxxxx</text>
    <text font-size="15" transform="translate(893,214) rotate(0)" id="text_123" tag_name="svg/g/text_123">xxxxxxxxxxxx</text>
    <text font-size="15" transform="translate(65,222) rotate(0)" id="text_122" tag_name="svg/g/text_122">xxxxxxxxxxxx</text>
    <text font-size="15" transform="translate(776,68) rotate(0)" id="text_121" tag_name="svg/g/text_121">xxxxxxxxx</text>
    <text font-size="15" transform="translate(597,445) rotate(0)" id="text_120" tag_name="svg/g/text_120">xxxxxx</text>
    <text font-size="15" transform="translate(360,29) rotate(0)" id="text_119" tag_name="svg/g/text_119">xxxxxx</text>
    <text font-size="15" transform="translate(784,184) rotate(0)" id="text_118" tag_name="svg/g/text_118">xxxxx</text>
    <text font-size="15" transform="translate(166,105) rotate(0)" id="text_117" tag_name="svg/g/text_117">xxxxxxxx</text>
    <text font-size="15" transform="translate(654,427) rotate(0)" id="text_116" tag_name="svg/g/text_116">xxxxxx</text>
    <text font-size="15" transform="translate(417,236) rotate(0)" id="text_115" tag_name="svg/g/text_115">xxxxxx</text>
    <text font-size="15" transform="translate(660,440) rotate(0)" id="text_114" tag_name="svg/g/text_114">xxxxxxxxx</text>
    <text font-size="15" transform="translate(235,403) rotate(0)" id="text_113" tag_name="svg/g/text_113">xxxxxx</text>
    <text font-size="15" transform="translate(292,41) rotate(0)" id="text_112" tag_name="svg/g/text_112">xxxxxxxx</text>
    <text font-size="15" transform="translate(213,70) rotate(0)" id="text_111" tag_name="svg/g/text_111">xxxxx</text>
    <text font-size="15" transform="translate(406,14) rotate(0)" id="text_110" tag_name="svg/g/text_110">xxxxxxxxx</text>
    <text font-size="15" transform="translate(818,148) rotate(0)" id="text_109" tag_name="svg/g/text_109">xxxxx</text>
    <text font-size="15" transform="translate(248,427) rotate(0)" id="text_108" tag_name="svg/g/text_108">xxxxxxxx</text>
    <text font-size="15" transform="translate(739,400) rotate(0)" id="text_107" tag_name="svg/g/text_107">xxxxxxxx</text>
    <text font-size="15" transform="translate(578,459) rotate(0)" id="text_106" tag_name="svg/g/text_106">xxxxxx</text>
    <text font-size="15" transform="translate(191,53) rotate(0)" id="text_105" tag_name="svg/g/text_105">xxxxxxxxxxxxxx</text>
    <text font-size="15" transform="translate(443,314) rotate(0)" id="text_104" tag_name="svg/g/text_104">xxxxx</text>
    <text font-size="15" transform="translate(861,292) rotate(0)" id="text_103" tag_name="svg/g/text_103">xxxxxx</text>
    <text font-size="15" transform="translate(173,398) rotate(0)" id="text_102" tag_name="svg/g/text_102">xxxxxx</text>
    <text font-size="15" transform="translate(665,40) rotate(0)" id="text_101" tag_name="svg/g/text_101">xxxxxxx</text>
    <text font-size="15" transform="translate(847,186) rotate(0)" id="text_100" tag_name="svg/g/text_100">xxxxx</text>
    <text font-size="15" transform="translate(634,232) rotate(0)" id="text_99" tag_name="svg/g/text_99">xxxx</text>
    <text font-size="15" transform="translate(155,92) rotate(0)" id="text_98" tag_name="svg/g/text_98">xxxxx</text>
    <text font-size="15" transform="translate(832,326) rotate(0)" id="text_97" tag_name="svg/g/text_97">xxxxxxxx</text>
    <text font-size="15" transform="translate(81,207) rotate(0)" id="text_96" tag_name="svg/g/text_96">xxxxxxxxxx</text>
    <text font-size="15" transform="translate(242,443) rotate(0)" id="text_95" tag_name="svg/g/text_95">xxxxxxxxxxx</text>
    <text font-size="15" transform="translate(202,416) rotate(0)" id="text_94" tag_name="svg/g/text_94">xxxxxxx</text>
    <text font-size="15" transform="translate(894,186) rotate(0)" id="text_93" tag_name="svg/g/text_93">xxxxxxx</text>
    <text font-size="15" transform="translate(585,395) rotate(0)" id="text_92" tag_name="svg/g/text_92">xxxxx</text>
    <text font-size="15" transform="translate(327,222) rotate(0)" id="text_91" tag_name="svg/g/text_91">xxxxx</text>
    <text font-size="15" transform="translate(79,187) rotate(0)" id="text_90" tag_name="svg/g/text_90">xxxxxxxxx</text>
    <text font-size="15" transform="translate(107,382) rotate(0)" id="text_89" tag_name="svg/g/text_89">xxxxxxxx</text>
    <text font-size="15" transform="translate(911,269) rotate(0)" id="text_88" tag_name="svg/g/text_88">xxxxxxxxx</text>
    <text font-size="15" transform="translate(477,182) rotate(0)" id="text_87" tag_name="svg/g/text_87">xxxxx</text>
    <text font-size="15" transform="translate(65,167) rotate(0)" id="text_86" tag_name="svg/g/text_86">xxxxxxx</text>
    <text font-size="15" transform="translate(344,468) rotate(0)" id="text_85" tag_name="svg/g/text_85">xxxxxxxxxx</text>
    <text font-size="15" transform="translate(571,23) rotate(0)" id="text_84" tag_name="svg/g/text_84">xxxxxxxx</text>
    <text font-size="15" transform="translate(790,216) rotate(0)" id="text_83" tag_name="svg/g/text_83">xxxxx</text>
    <text font-size="15" transform="translate(53,309) rotate(0)" id="text_82" tag_name="svg/g/text_82">xxxxxxxxxxx</text>
    <text font-size="15" transform="translate(917,249) rotate(0)" id="text_81" tag_name="svg/g/text_81">xxxxxxxxxxxx</text>
    <text font-size="15" transform="translate(62,323) rotate(0)" id="text_80" tag_name="svg/g/text_80">xxxxxxxxxxx</text>
    <text font-size="15" transform="translate(79,99) rotate(0)" id="text_79" tag_name="svg/g/text_79">xxxxxxxxxxxx</text>
    <text font-size="15" transform="translate(433,472) rotate(0)" id="text_78" tag_name="svg/g/text_78">xxxxxxx</text>
    <text font-size="15" transform="translate(628,284) rotate(0)" id="text_77" tag_name="svg/g/text_77">xxxx</text>
    <text font-size="15" transform="translate(713,295) rotate(0)" id="text_76" tag_name="svg/g/text_76">xxxx</text>
    <text font-size="15" transform="translate(914,229) rotate(0)" id="text_75" tag_name="svg/g/text_75">xxxxxxx</text>
    <text font-size="15" transform="translate(494,278) rotate(0)" id="text_74" tag_name="svg/g/text_74">xxx</text>
    <text font-size="15" transform="translate(261,147) rotate(0)" id="text_73" tag_name="svg/g/text_73">xxxx</text>
    <text font-size="15" transform="translate(832,87) rotate(0)" id="text_72" tag_name="svg/g/text_72">xxxxxxxxxx</text>
    <text font-size="15" transform="translate(127,81) rotate(0)" id="text_71" tag_name="svg/g/text_71">xxxxxxxxxxx</text>
    <text font-size="15" transform="translate(302,23) rotate(0)" id="text_70" tag_name="svg/g/text_70">xxxxxxx</text>
    <text font-size="15" transform="translate(794,383) rotate(0)" id="text_69" tag_name="svg/g/text_69">xxxxxxxxx</text>
    <text font-size="15" transform="translate(248,459) rotate(0)" id="text_68" tag_name="svg/g/text_68">xxxxxxx</text>
    <text font-size="15" transform="translate(502,473) rotate(0)" id="text_67" tag_name="svg/g/text_67">xxxxxxxxx</text>
    <text font-size="15" transform="translate(232,33) rotate(0)" id="text_66" tag_name="svg/g/text_66">xxxxxxx</text>
    <text font-size="15" transform="translate(689,410) rotate(0)" id="text_65" tag_name="svg/g/text_65">xxxxxxxx</text>
    <text font-size="15" transform="translate(67,366) rotate(0)" id="text_64" tag_name="svg/g/text_64">xxxxxxxxx</text>
    <text font-size="15" transform="translate(48,266) rotate(0)" id="text_63" tag_name="svg/g/text_63">xxxxxxx</text>
    <text font-size="15" transform="translate(115,399) rotate(0)" id="text_62" tag_name="svg/g/text_62">xxxxxxxx</text>
    <text font-size="15" transform="translate(329,443) rotate(0)" id="text_61" tag_name="svg/g/text_61">xxxxxx</text>
    <text font-size="15" transform="translate(157,435) rotate(0)" id="text_60" tag_name="svg/g/text_60">xxxxxxxxxx</text>
    <text font-size="15" transform="translate(147,412) rotate(0)" id="text_59" tag_name="svg/g/text_59">xxxxx</text>
    <text font-size="15" transform="translate(344,392) rotate(0)" id="text_58" tag_name="svg/g/text_58">xxx</text>
    <text font-size="15" transform="translate(62,123) rotate(0)" id="text_57" tag_name="svg/g/text_57">xxxxxx</text>
    <text font-size="15" transform="translate(286,474) rotate(0)" id="text_56" tag_name="svg/g/text_56">xxxx</text>
    <text font-size="15" transform="translate(871,345) rotate(0)" id="text_55" tag_name="svg/g/text_55">xxxxxxxx</text>
    <text font-size="15" transform="translate(709,423) rotate(0)" id="text_54" tag_name="svg/g/text_54">xxxxxx</text>
    <text font-size="15" transform="translate(771,413) rotate(0)" id="text_53" tag_name="svg/g/text_53">xxxxxxxxxxx</text>
    <text font-size="15" transform="translate(721,325) rotate(0)" id="text_52" tag_name="svg/g/text_52">xxxx</text>
    <text font-size="15" transform="translate(735,436) rotate(0)" id="text_51" tag_name="svg/g/text_51">xxxxxx</text>
    <text font-size="15" transform="translate(355,77) rotate(0)" id="text_50" tag_name="svg/g/text_50">xxxxxx</text>
    <text font-size="15" transform="translate(54,351) rotate(0)" id="text_49" tag_name="svg/g/text_49">xxxxxxxx</text>
    <text font-size="15" transform="translate(514,363) rotate(0)" id="text_48" tag_name="svg/g/text_48">xxxx</text>
    <text font-size="15" transform="translate(664,125) rotate(0)" id="text_47" tag_name="svg/g/text_47">xxxxxxxx</text>
    <text font-size="15" transform="translate(723,55) rotate(0)" id="text_46" tag_name="svg/g/text_46">xxxx</text>
    <text font-size="15" transform="translate(905,310) rotate(0)" id="text_45" tag_name="svg/g/text_45">xxxxxx</text>
    <text font-size="15" transform="translate(810,396) rotate(0)" id="text_44" tag_name="svg/g/text_44">xxxxxx</text>
    <text font-size="15" transform="translate(656,25) rotate(0)" id="text_43" tag_name="svg/g/text_43">xxxxxx</text>
    <text font-size="15" transform="translate(125,68) rotate(0)" id="text_42" tag_name="svg/g/text_42">xxxxxx</text>
    <text font-size="15" transform="translate(36,337) rotate(0)" id="text_41" tag_name="svg/g/text_41">xxxxxxx</text>
    <text font-size="15" transform="translate(661,202) rotate(0)" id="text_40" tag_name="svg/g/text_40">xxxx</text>
    <text font-size="15" transform="translate(76,421) rotate(0)" id="text_39" tag_name="svg/g/text_39">xxxxxxxxxxxxx</text>
    <text font-size="15" transform="translate(360,482) rotate(0)" id="text_38" tag_name="svg/g/text_38">xxxx</text>
    <text font-size="15" transform="translate(500,14) rotate(0)" id="text_37" tag_name="svg/g/text_37">xxxxxxxxxx</text>
    <text font-size="15" transform="translate(149,282) rotate(0)" id="text_36" tag_name="svg/g/text_36">xxxx</text>
    <text font-size="15" transform="translate(148,452) rotate(0)" id="text_35" tag_name="svg/g/text_35">xxxxxxxx</text>
    <text font-size="15" transform="translate(658,14) rotate(0)" id="text_34" tag_name="svg/g/text_34">xxxxxxxxx</text>
    <text font-size="15" transform="translate(856,366) rotate(0)" id="text_33" tag_name="svg/g/text_33">xxxx</text>
    <text font-size="15" transform="translate(49,406) rotate(0)" id="text_32" tag_name="svg/g/text_32">xxxxxxxx</text>
    <text font-size="15" transform="translate(866,379) rotate(0)" id="text_31" tag_name="svg/g/text_31">xxxxxx</text>
    <text font-size="15" transform="translate(852,117) rotate(0)" id="text_30" tag_name="svg/g/text_30">xxxx</text>
    <text font-size="15" transform="translate(353,312) rotate(0)" id="text_29" tag_name="svg/g/text_29">xxxx</text>
    <text font-size="15" transform="translate(263,13) rotate(0)" id="text_28" tag_name="svg/g/text_28">xxxxx</text>
    <text font-size="15" transform="translate(244,477) rotate(0)" id="text_27" tag_name="svg/g/text_27">xxxxx</text>
    <text font-size="15" transform="translate(623,457) rotate(0)" id="text_26" tag_name="svg/g/text_26">xxxxx</text>
    <text font-size="15" transform="translate(260,414) rotate(0)" id="text_25" tag_name="svg/g/text_25">xxxx</text>
    <text font-size="15" transform="translate(859,101) rotate(0)" id="text_24" tag_name="svg/g/text_24">xxxxxxx</text>
    <text font-size="15" transform="translate(882,199) rotate(0)" id="text_23" tag_name="svg/g/text_23">xxxxx</text>
    <text font-size="15" transform="translate(924,166) rotate(0)" id="text_22" tag_name="svg/g/text_22">xxxxxxxx</text>
    <text font-size="15" transform="translate(698,455) rotate(0)" id="text_21" tag_name="svg/g/text_21">xxxxxx</text>
    <text font-size="15" transform="translate(804,429) rotate(0)" id="text_20" tag_name="svg/g/text_20">xxxxxx</text>
    <text font-size="15" transform="translate(733,33) rotate(0)" id="text_19" tag_name="svg/g/text_19">xxxxxxxxxx</text>
    <text font-size="15" transform="translate(164,37) rotate(0)" id="text_18" tag_name="svg/g/text_18">xxxxxxxxxx</text>
    <text font-size="15" transform="translate(902,292) rotate(0)" id="text_17" tag_name="svg/g/text_17">xxxx</text>
    <text font-size="15" transform="translate(820,51) rotate(0)" id="text_16" tag_name="svg/g/text_16">xxxxxxxxxxxx</text>
    <text font-size="15" transform="translate(40,247) rotate(0)" id="text_15" tag_name="svg/g/text_15">xxxxxx</text>
    <text font-size="15" transform="translate(916,126) rotate(0)" id="text_14" tag_name="svg/g/text_14">xxxxxxxx</text>
    <text font-size="15" transform="translate(190,18) rotate(0)" id="text_13" tag_name="svg/g/text_13">xxxxxxxx</text>
    <text font-size="15" transform="translate(862,66) rotate(0)" id="text_12" tag_name="svg/g/text_12">xxxxxxxxxxx</text>
    <text font-size="15" transform="translate(505,486) rotate(0)" id="text_11" tag_name="svg/g/text_11">xxxxxxxxx</text>
    <text font-size="15" transform="translate(914,153) rotate(0)" id="text_10" tag_name="svg/g/text_10">xxxxxx</text>
    <text font-size="15" transform="translate(233,179) rotate(0)" id="text_9" tag_name="svg/g/text_9">xxxx</text>
    <text font-size="15" transform="translate(103,54) rotate(0)" id="text_8" tag_name="svg/g/text_8">xxxxx</text>
    <text font-size="15" transform="translate(749,215) rotate(0)" id="text_7" tag_name="svg/g/text_7">xxxx</text>
    <text font-size="15" transform="translate(919,283) rotate(0)" id="text_6" tag_name="svg/g/text_6">xxxxxxxxx</text>
    <text font-size="15" transform="translate(581,474) rotate(0)" id="text_5" tag_name="svg/g/text_5">xxxxxxx</text>
    <text font-size="15" transform="translate(675,468) rotate(0)" id="text_4" tag_name="svg/g/text_4">xxxxxxxx</text>
    <text font-size="15" transform="translate(412,485) rotate(0)" id="text_3" tag_name="svg/g/text_3">xxxxx</text>
    <text font-size="15" transform="translate(742,20) rotate(0)" id="text_2" tag_name="svg/g/text_2">xxxxxxx</text>
    <text font-size="15" transform="translate(724,162) rotate(0)" id="text_1" tag_name="svg/g/text_1">xxxx</text>
    <text font-size="15" transform="translate(857,412) rotate(0)" id="text" tag_name="svg/g/text">xxxxxxxxxxx</text>
  </g>
</svg>