<?xml version='1.0' encoding='UTF-8'?>
<svg width="880" height="340" viewBox="-70,-30,880,340" style="max-width: 100%; height: auto; font: 10px sans-serif;" id="svg" tag_name="svg">
  <g id="g_11" tag_name="svg/g_11">
    <g id="g_27" tag_name="svg/g_11/g_27">
      <path d="M35.7,294.2c0.3,0.5,0.4,1.2,0.4,2.1c0,0.9-0.1,1.6-0.4,2.1c-0.4,0.8-1,1.2-1.8,1.2c-0.8,0-1.3-0.3-1.7-1    c-0.3-0.5-0.5-1.3-0.5-2.2c0-0.7,0.1-1.3,0.3-1.8c0.3-1,1-1.4,1.9-1.4C34.7,293.2,35.3,293.5,35.7,294.2z M34.9,298.4    c0.2-0.4,0.4-1,0.4-2c0-0.7-0.1-1.3-0.3-1.8c-0.2-0.5-0.5-0.7-1-0.7c-0.5,0-0.8,0.2-1,0.7c-0.2,0.4-0.3,1.1-0.3,1.9    c0,0.6,0.1,1.2,0.2,1.5c0.2,0.6,0.6,0.9,1.1,0.9C34.3,299,34.7,298.8,34.9,298.4z" fill="#B3B3B3" id="path_86" tag_name="svg/g_11/g_27/path_86"/>
      <path d="M37.8,295v-0.6c0.6-0.1,1-0.1,1.2-0.3c0.2-0.1,0.4-0.4,0.5-0.9h0.6v6.3h-0.8V295H37.8z" fill="#B3B3B3" id="path_85" tag_name="svg/g_11/g_27/path_85"/>
      <path d="M43.4,294.9h0.9v1h-0.9V294.9z M43.4,298.5h0.9v1h-0.9V298.5z" fill="#B3B3B3" id="path_84" tag_name="svg/g_11/g_27/path_84"/>
      <path d="M49.6,294.2c0.3,0.5,0.4,1.2,0.4,2.1c0,0.9-0.1,1.6-0.4,2.1c-0.4,0.8-1,1.2-1.8,1.2c-0.8,0-1.3-0.3-1.7-1    c-0.3-0.5-0.5-1.3-0.5-2.2c0-0.7,0.1-1.3,0.3-1.8c0.3-1,1-1.4,1.9-1.4C48.6,293.2,49.2,293.5,49.6,294.2z M48.8,298.4    c0.2-0.4,0.4-1,0.4-2c0-0.7-0.1-1.3-0.3-1.8c-0.2-0.5-0.5-0.7-1-0.7c-0.5,0-0.8,0.2-1,0.7c-0.2,0.4-0.3,1.1-0.3,1.9    c0,0.6,0.1,1.2,0.2,1.5c0.2,0.6,0.6,0.9,1.1,0.9C48.2,299,48.5,298.8,48.8,298.4z" fill="#B3B3B3" id="path_83" tag_name="svg/g_11/g_27/path_83"/>
      <path d="M55,294.2c0.3,0.5,0.4,1.2,0.4,2.1c0,0.9-0.1,1.6-0.4,2.1c-0.4,0.8-1,1.2-1.8,1.2c-0.8,0-1.3-0.3-1.7-1    c-0.3-0.5-0.5-1.3-0.5-2.2c0-0.7,0.1-1.3,0.3-1.8c0.3-1,1-1.4,1.9-1.4C54.1,293.2,54.7,293.5,55,294.2z M54.2,298.4    c0.2-0.4,0.4-1,0.4-2c0-0.7-0.1-1.3-0.3-1.8c-0.2-0.5-0.5-0.7-1-0.7c-0.5,0-0.8,0.2-1,0.7c-0.2,0.4-0.3,1.1-0.3,1.9    c0,0.6,0.1,1.2,0.2,1.5c0.2,0.6,0.6,0.9,1.1,0.9C53.7,299,54,298.8,54.2,298.4z" fill="#B3B3B3" id="path_82" tag_name="svg/g_11/g_27/path_82"/>
    </g>
    <g id="g_26" tag_name="svg/g_11/g_26">
      <path d="M78,294.2c0.3,0.5,0.4,1.2,0.4,2.1c0,0.9-0.1,1.6-0.4,2.1c-0.4,0.8-1,1.2-1.8,1.2c-0.8,0-1.3-0.3-1.7-1    c-0.3-0.5-0.5-1.3-0.5-2.2c0-0.7,0.1-1.3,0.3-1.8c0.3-1,1-1.4,1.9-1.4C77,293.2,77.6,293.5,78,294.2z M77.2,298.4    c0.2-0.4,0.4-1,0.4-2c0-0.7-0.1-1.3-0.3-1.8c-0.2-0.5-0.5-0.7-1-0.7c-0.5,0-0.8,0.2-1,0.7c-0.2,0.4-0.3,1.1-0.3,1.9    c0,0.6,0.1,1.2,0.2,1.5c0.2,0.6,0.6,0.9,1.1,0.9C76.6,299,76.9,298.8,77.2,298.4z" fill="#B3B3B3" id="path_81" tag_name="svg/g_11/g_26/path_81"/>
      <path d="M79.8,298.1c0.2-0.4,0.6-0.8,1.1-1.1l0.8-0.5c0.4-0.2,0.6-0.4,0.8-0.6c0.2-0.2,0.4-0.5,0.4-0.8    c0-0.4-0.1-0.7-0.3-0.9s-0.5-0.3-0.9-0.3c-0.5,0-0.9,0.2-1.1,0.6c-0.1,0.2-0.2,0.5-0.2,0.9h-0.8c0-0.5,0.1-1,0.3-1.3    c0.3-0.6,0.9-0.9,1.8-0.9c0.7,0,1.2,0.2,1.6,0.6s0.5,0.8,0.5,1.3c0,0.5-0.2,0.9-0.5,1.3c-0.2,0.2-0.6,0.5-1.1,0.8l-0.6,0.3    c-0.3,0.2-0.5,0.3-0.7,0.5c-0.3,0.3-0.5,0.5-0.6,0.8h3.4v0.7h-4.3C79.5,299,79.6,298.5,79.8,298.1z" fill="#B3B3B3" id="path_80" tag_name="svg/g_11/g_26/path_80"/>
      <path d="M85.7,294.9h0.9v1h-0.9V294.9z M85.7,298.5h0.9v1h-0.9V298.5z" fill="#B3B3B3" id="path_79" tag_name="svg/g_11/g_26/path_79"/>
      <path d="M91.8,294.2c0.3,0.5,0.4,1.2,0.4,2.1c0,0.9-0.1,1.6-0.4,2.1c-0.4,0.8-1,1.2-1.8,1.2c-0.8,0-1.3-0.3-1.7-1    c-0.3-0.5-0.5-1.3-0.5-2.2c0-0.7,0.1-1.3,0.3-1.8c0.3-1,1-1.4,1.9-1.4C90.9,293.2,91.4,293.5,91.8,294.2z M91,298.4    c0.2-0.4,0.4-1,0.4-2c0-0.7-0.1-1.3-0.3-1.8c-0.2-0.5-0.5-0.7-1-0.7c-0.5,0-0.8,0.2-1,0.7c-0.2,0.4-0.3,1.1-0.3,1.9    c0,0.6,0.1,1.2,0.2,1.5c0.2,0.6,0.6,0.9,1.1,0.9C90.4,299,90.8,298.8,91,298.4z" fill="#B3B3B3" id="path_78" tag_name="svg/g_11/g_26/path_78"/>
      <path d="M97.3,294.2c0.3,0.5,0.4,1.2,0.4,2.1c0,0.9-0.1,1.6-0.4,2.1c-0.4,0.8-1,1.2-1.8,1.2c-0.8,0-1.3-0.3-1.7-1    c-0.3-0.5-0.5-1.3-0.5-2.2c0-0.7,0.1-1.3,0.3-1.8c0.3-1,1-1.4,1.9-1.4C96.3,293.2,96.9,293.5,97.3,294.2z M96.5,298.4    c0.2-0.4,0.4-1,0.4-2c0-0.7-0.1-1.3-0.3-1.8c-0.2-0.5-0.5-0.7-1-0.7c-0.5,0-0.8,0.2-1,0.7c-0.2,0.4-0.3,1.1-0.3,1.9    c0,0.6,0.1,1.2,0.2,1.5c0.2,0.6,0.6,0.9,1.1,0.9C95.9,299,96.2,298.8,96.5,298.4z" fill="#B3B3B3" id="path_77" tag_name="svg/g_11/g_26/path_77"/>
    </g>
    <g id="g_25" tag_name="svg/g_11/g_25">
      <path d="M121,294.2c0.3,0.5,0.4,1.2,0.4,2.1c0,0.9-0.1,1.6-0.4,2.1c-0.4,0.8-1,1.2-1.8,1.2c-0.8,0-1.3-0.3-1.7-1    c-0.3-0.5-0.5-1.3-0.5-2.2c0-0.7,0.1-1.3,0.3-1.8c0.3-1,1-1.4,1.9-1.4C120,293.2,120.6,293.5,121,294.2z M120.2,298.4    c0.2-0.4,0.4-1,0.4-2c0-0.7-0.1-1.3-0.3-1.8c-0.2-0.5-0.5-0.7-1-0.7c-0.5,0-0.8,0.2-1,0.7c-0.2,0.4-0.3,1.1-0.3,1.9    c0,0.6,0.1,1.2,0.2,1.5c0.2,0.6,0.6,0.9,1.1,0.9C119.6,299,119.9,298.8,120.2,298.4z" fill="#B3B3B3" id="path_76" tag_name="svg/g_11/g_25/path_76"/>
      <path d="M122.9,299.1c-0.3-0.4-0.5-0.9-0.5-1.5h0.8c0,0.4,0.1,0.7,0.2,0.9c0.2,0.3,0.6,0.5,1.1,0.5    c0.4,0,0.8-0.1,1-0.3s0.4-0.5,0.4-0.9c0-0.4-0.1-0.7-0.4-0.9c-0.3-0.2-0.6-0.3-1.1-0.3c-0.1,0-0.1,0-0.2,0c-0.1,0-0.1,0-0.2,0    v-0.7c0.1,0,0.2,0,0.2,0s0.1,0,0.2,0c0.3,0,0.5,0,0.7-0.1c0.3-0.2,0.5-0.5,0.5-0.9c0-0.3-0.1-0.6-0.3-0.7s-0.5-0.3-0.8-0.3    c-0.5,0-0.9,0.2-1.1,0.5c-0.1,0.2-0.2,0.5-0.2,0.8h-0.8c0-0.5,0.1-0.9,0.3-1.2c0.3-0.6,0.9-0.9,1.7-0.9c0.6,0,1.1,0.1,1.5,0.4    c0.4,0.3,0.5,0.7,0.5,1.2c0,0.4-0.1,0.7-0.3,0.9c-0.1,0.1-0.3,0.3-0.5,0.4c0.3,0.1,0.6,0.3,0.8,0.5c0.2,0.3,0.3,0.6,0.3,1    c0,0.6-0.2,1.1-0.6,1.5s-1,0.6-1.7,0.6C123.8,299.7,123.3,299.5,122.9,299.1z" fill="#B3B3B3" id="path_75" tag_name="svg/g_11/g_25/path_75"/>
      <path d="M128.7,294.9h0.9v1h-0.9V294.9z M128.7,298.5h0.9v1h-0.9V298.5z" fill="#B3B3B3" id="path_74" tag_name="svg/g_11/g_25/path_74"/>
      <path d="M134.8,294.2c0.3,0.5,0.4,1.2,0.4,2.1c0,0.9-0.1,1.6-0.4,2.1c-0.4,0.8-1,1.2-1.8,1.2c-0.8,0-1.3-0.3-1.7-1    c-0.3-0.5-0.5-1.3-0.5-2.2c0-0.7,0.1-1.3,0.3-1.8c0.3-1,1-1.4,1.9-1.4C133.9,293.2,134.4,293.5,134.8,294.2z M134,298.4    c0.2-0.4,0.4-1,0.4-2c0-0.7-0.1-1.3-0.3-1.8c-0.2-0.5-0.5-0.7-1-0.7c-0.5,0-0.8,0.2-1,0.7c-0.2,0.4-0.3,1.1-0.3,1.9    c0,0.6,0.1,1.2,0.2,1.5c0.2,0.6,0.6,0.9,1.1,0.9C133.4,299,133.8,298.8,134,298.4z" fill="#B3B3B3" id="path_73" tag_name="svg/g_11/g_25/path_73"/>
      <path d="M140.3,294.2c0.3,0.5,0.4,1.2,0.4,2.1c0,0.9-0.1,1.6-0.4,2.1c-0.4,0.8-1,1.2-1.8,1.2c-0.8,0-1.3-0.3-1.7-1    c-0.3-0.5-0.5-1.3-0.5-2.2c0-0.7,0.1-1.3,0.3-1.8c0.3-1,1-1.4,1.9-1.4C139.3,293.2,139.9,293.5,140.3,294.2z M139.5,298.4    c0.2-0.4,0.4-1,0.4-2c0-0.7-0.1-1.3-0.3-1.8c-0.2-0.5-0.5-0.7-1-0.7c-0.5,0-0.8,0.2-1,0.7c-0.2,0.4-0.3,1.1-0.3,1.9    c0,0.6,0.1,1.2,0.2,1.5c0.2,0.6,0.6,0.9,1.1,0.9C138.9,299,139.2,298.8,139.5,298.4z" fill="#B3B3B3" id="path_72" tag_name="svg/g_11/g_25/path_72"/>
    </g>
    <g id="g_24" tag_name="svg/g_11/g_24">
      <path d="M163.7,294.2c0.3,0.5,0.4,1.2,0.4,2.1c0,0.9-0.1,1.6-0.4,2.1c-0.4,0.8-1,1.2-1.8,1.2c-0.8,0-1.3-0.3-1.7-1    c-0.3-0.5-0.5-1.3-0.5-2.2c0-0.7,0.1-1.3,0.3-1.8c0.3-1,1-1.4,1.9-1.4C162.7,293.2,163.3,293.5,163.7,294.2z M162.9,298.4    c0.2-0.4,0.4-1,0.4-2c0-0.7-0.1-1.3-0.3-1.8c-0.2-0.5-0.5-0.7-1-0.7c-0.5,0-0.8,0.2-1,0.7c-0.2,0.4-0.3,1.1-0.3,1.9    c0,0.6,0.1,1.2,0.2,1.5c0.2,0.6,0.6,0.9,1.1,0.9C162.3,299,162.7,298.8,162.9,298.4z" fill="#B3B3B3" id="path_71" tag_name="svg/g_11/g_24/path_71"/>
      <path d="M167.9,299.5V298h-2.8v-0.8l2.9-4h0.7v4.1h0.9v0.7h-0.9v1.5H167.9z M167.9,297.3v-2.9l-2,2.9H167.9z" fill="#B3B3B3" id="path_70" tag_name="svg/g_11/g_24/path_70"/>
      <path d="M171.4,294.9h0.9v1h-0.9V294.9z M171.4,298.5h0.9v1h-0.9V298.5z" fill="#B3B3B3" id="path_69" tag_name="svg/g_11/g_24/path_69"/>
      <path d="M177.6,294.2c0.3,0.5,0.4,1.2,0.4,2.1c0,0.9-0.1,1.6-0.4,2.1c-0.4,0.8-1,1.2-1.8,1.2c-0.8,0-1.3-0.3-1.7-1    c-0.3-0.5-0.5-1.3-0.5-2.2c0-0.7,0.1-1.3,0.3-1.8c0.3-1,1-1.4,1.9-1.4C176.6,293.2,177.2,293.5,177.6,294.2z M176.8,298.4    c0.2-0.4,0.4-1,0.4-2c0-0.7-0.1-1.3-0.3-1.8c-0.2-0.5-0.5-0.7-1-0.7c-0.5,0-0.8,0.2-1,0.7c-0.2,0.4-0.3,1.1-0.3,1.9    c0,0.6,0.1,1.2,0.2,1.5c0.2,0.6,0.6,0.9,1.1,0.9C176.2,299,176.5,298.8,176.8,298.4z" fill="#B3B3B3" id="path_68" tag_name="svg/g_11/g_24/path_68"/>
      <path d="M183,294.2c0.3,0.5,0.4,1.2,0.4,2.1c0,0.9-0.1,1.6-0.4,2.1c-0.4,0.8-1,1.2-1.8,1.2c-0.8,0-1.3-0.3-1.7-1    c-0.3-0.5-0.5-1.3-0.5-2.2c0-0.7,0.1-1.3,0.3-1.8c0.3-1,1-1.4,1.9-1.4C182.1,293.2,182.7,293.5,183,294.2z M182.2,298.4    c0.2-0.4,0.4-1,0.4-2c0-0.7-0.1-1.3-0.3-1.8c-0.2-0.5-0.5-0.7-1-0.7c-0.5,0-0.8,0.2-1,0.7c-0.2,0.4-0.3,1.1-0.3,1.9    c0,0.6,0.1,1.2,0.2,1.5c0.2,0.6,0.6,0.9,1.1,0.9C181.7,299,182,298.8,182.2,298.4z" fill="#B3B3B3" id="path_67" tag_name="svg/g_11/g_24/path_67"/>
    </g>
    <g id="g_23" tag_name="svg/g_11/g_23">
      <path d="M206.7,294.2c0.3,0.5,0.4,1.2,0.4,2.1c0,0.9-0.1,1.6-0.4,2.1c-0.4,0.8-1,1.2-1.8,1.2c-0.8,0-1.3-0.3-1.7-1    c-0.3-0.5-0.5-1.3-0.5-2.2c0-0.7,0.1-1.3,0.3-1.8c0.3-1,1-1.4,1.9-1.4C205.7,293.2,206.3,293.5,206.7,294.2z M205.9,298.4    c0.2-0.4,0.4-1,0.4-2c0-0.7-0.1-1.3-0.3-1.8c-0.2-0.5-0.5-0.7-1-0.7c-0.5,0-0.8,0.2-1,0.7c-0.2,0.4-0.3,1.1-0.3,1.9    c0,0.6,0.1,1.2,0.2,1.5c0.2,0.6,0.6,0.9,1.1,0.9C205.3,299,205.7,298.8,205.9,298.4z" fill="#B3B3B3" id="path_66" tag_name="svg/g_11/g_23/path_66"/>
      <path d="M209.1,297.9c0.1,0.5,0.3,0.8,0.6,0.9c0.2,0.1,0.4,0.1,0.7,0.1c0.5,0,0.8-0.1,1-0.4s0.3-0.6,0.3-1    c0-0.4-0.1-0.8-0.4-1c-0.3-0.2-0.6-0.4-1-0.4c-0.3,0-0.5,0.1-0.7,0.2c-0.2,0.1-0.4,0.3-0.5,0.4l-0.7,0l0.5-3.4h3.3v0.8h-2.7    l-0.3,1.7c0.1-0.1,0.3-0.2,0.4-0.2c0.2-0.1,0.5-0.1,0.8-0.1c0.6,0,1.1,0.2,1.5,0.6c0.4,0.4,0.6,0.8,0.6,1.4c0,0.6-0.2,1.1-0.6,1.6    c-0.4,0.5-1,0.7-1.8,0.7c-0.5,0-1-0.1-1.4-0.4c-0.4-0.3-0.6-0.7-0.7-1.3H209.1z" fill="#B3B3B3" id="path_65" tag_name="svg/g_11/g_23/path_65"/>
      <path d="M214.4,294.9h0.9v1h-0.9V294.9z M214.4,298.5h0.9v1h-0.9V298.5z" fill="#B3B3B3" id="path_64" tag_name="svg/g_11/g_23/path_64"/>
      <path d="M220.6,294.2c0.3,0.5,0.4,1.2,0.4,2.1c0,0.9-0.1,1.6-0.4,2.1c-0.4,0.8-1,1.2-1.8,1.2c-0.8,0-1.3-0.3-1.7-1    c-0.3-0.5-0.5-1.3-0.5-2.2c0-0.7,0.1-1.3,0.3-1.8c0.3-1,1-1.4,1.9-1.4C219.6,293.2,220.2,293.5,220.6,294.2z M219.8,298.4    c0.2-0.4,0.4-1,0.4-2c0-0.7-0.1-1.3-0.3-1.8c-0.2-0.5-0.5-0.7-1-0.7c-0.5,0-0.8,0.2-1,0.7c-0.2,0.4-0.3,1.1-0.3,1.9    c0,0.6,0.1,1.2,0.2,1.5c0.2,0.6,0.6,0.9,1.1,0.9C219.2,299,219.5,298.8,219.8,298.4z" fill="#B3B3B3" id="path_63" tag_name="svg/g_11/g_23/path_63"/>
      <path d="M226,294.2c0.3,0.5,0.4,1.2,0.4,2.1c0,0.9-0.1,1.6-0.4,2.1c-0.4,0.8-1,1.2-1.8,1.2c-0.8,0-1.3-0.3-1.7-1    c-0.3-0.5-0.5-1.3-0.5-2.2c0-0.7,0.1-1.3,0.3-1.8c0.3-1,1-1.4,1.9-1.4C225.1,293.2,225.7,293.5,226,294.2z M225.2,298.4    c0.2-0.4,0.4-1,0.4-2c0-0.7-0.1-1.3-0.3-1.8c-0.2-0.5-0.5-0.7-1-0.7c-0.5,0-0.8,0.2-1,0.7c-0.2,0.4-0.3,1.1-0.3,1.9    c0,0.6,0.1,1.2,0.2,1.5c0.2,0.6,0.6,0.9,1.1,0.9C224.7,299,225,298.8,225.2,298.4z" fill="#B3B3B3" id="path_62" tag_name="svg/g_11/g_23/path_62"/>
    </g>
    <g id="g_22" tag_name="svg/g_11/g_22">
      <path d="M249.9,294.2c0.3,0.5,0.4,1.2,0.4,2.1c0,0.9-0.1,1.6-0.4,2.1c-0.4,0.8-1,1.2-1.8,1.2c-0.8,0-1.3-0.3-1.7-1    c-0.3-0.5-0.5-1.3-0.5-2.2c0-0.7,0.1-1.3,0.3-1.8c0.3-1,1-1.4,1.9-1.4C248.9,293.2,249.5,293.5,249.9,294.2z M249.1,298.4    c0.2-0.4,0.4-1,0.4-2c0-0.7-0.1-1.3-0.3-1.8c-0.2-0.5-0.5-0.7-1-0.7c-0.5,0-0.8,0.2-1,0.7c-0.2,0.4-0.3,1.1-0.3,1.9    c0,0.6,0.1,1.2,0.2,1.5c0.2,0.6,0.6,0.9,1.1,0.9C248.5,299,248.8,298.8,249.1,298.4z" fill="#B3B3B3" id="path_61" tag_name="svg/g_11/g_22/path_61"/>
      <path d="M255.2,293.7c0.3,0.4,0.4,0.7,0.4,1.1h-0.8c0-0.2-0.1-0.4-0.2-0.6c-0.2-0.3-0.5-0.4-0.9-0.4    c-0.4,0-0.8,0.2-1.1,0.6c-0.3,0.4-0.4,1-0.4,1.8c0.2-0.3,0.4-0.5,0.7-0.6c0.3-0.1,0.5-0.2,0.8-0.2c0.5,0,1,0.2,1.4,0.5    s0.6,0.8,0.6,1.5c0,0.6-0.2,1.1-0.6,1.5c-0.4,0.4-0.9,0.7-1.6,0.7c-0.6,0-1.1-0.2-1.5-0.7c-0.4-0.4-0.6-1.2-0.6-2.3    c0-0.8,0.1-1.4,0.3-2c0.4-1,1-1.6,2-1.6C254.5,293.2,254.9,293.4,255.2,293.7z M254.6,298.5c0.2-0.3,0.3-0.6,0.3-1    c0-0.3-0.1-0.6-0.3-0.9c-0.2-0.3-0.5-0.4-1-0.4c-0.3,0-0.6,0.1-0.9,0.3c-0.3,0.2-0.4,0.6-0.4,1c0,0.4,0.1,0.7,0.3,1    c0.2,0.3,0.6,0.4,1,0.4C254.1,299,254.4,298.8,254.6,298.5z" fill="#B3B3B3" id="path_60" tag_name="svg/g_11/g_22/path_60"/>
      <path d="M257.6,294.9h0.9v1h-0.9V294.9z M257.6,298.5h0.9v1h-0.9V298.5z" fill="#B3B3B3" id="path_59" tag_name="svg/g_11/g_22/path_59"/>
      <path d="M263.7,294.2c0.3,0.5,0.4,1.2,0.4,2.1c0,0.9-0.1,1.6-0.4,2.1c-0.4,0.8-1,1.2-1.8,1.2c-0.8,0-1.3-0.3-1.7-1    c-0.3-0.5-0.5-1.3-0.5-2.2c0-0.7,0.1-1.3,0.3-1.8c0.3-1,1-1.4,1.9-1.4C262.8,293.2,263.4,293.5,263.7,294.2z M262.9,298.4    c0.2-0.4,0.4-1,0.4-2c0-0.7-0.1-1.3-0.3-1.8c-0.2-0.5-0.5-0.7-1-0.7c-0.5,0-0.8,0.2-1,0.7c-0.2,0.4-0.3,1.1-0.3,1.9    c0,0.6,0.1,1.2,0.2,1.5c0.2,0.6,0.6,0.9,1.1,0.9C262.4,299,262.7,298.8,262.9,298.4z" fill="#B3B3B3" id="path_58" tag_name="svg/g_11/g_22/path_58"/>
      <path d="M269.2,294.2c0.3,0.5,0.4,1.2,0.4,2.1c0,0.9-0.1,1.6-0.4,2.1c-0.4,0.8-1,1.2-1.8,1.2c-0.8,0-1.3-0.3-1.7-1    c-0.3-0.5-0.5-1.3-0.5-2.2c0-0.7,0.1-1.3,0.3-1.8c0.3-1,1-1.4,1.9-1.4C268.2,293.2,268.8,293.5,269.2,294.2z M268.4,298.4    c0.2-0.4,0.4-1,0.4-2c0-0.7-0.1-1.3-0.3-1.8c-0.2-0.5-0.5-0.7-1-0.7c-0.5,0-0.8,0.2-1,0.7c-0.2,0.4-0.3,1.1-0.3,1.9    c0,0.6,0.1,1.2,0.2,1.5c0.2,0.6,0.6,0.9,1.1,0.9C267.8,299,268.1,298.8,268.4,298.4z" fill="#B3B3B3" id="path_57" tag_name="svg/g_11/g_22/path_57"/>
    </g>
    <g id="g_21" tag_name="svg/g_11/g_21">
      <path d="M292.8,294.2c0.3,0.5,0.4,1.2,0.4,2.1c0,0.9-0.1,1.6-0.4,2.1c-0.4,0.8-1,1.2-1.8,1.2c-0.8,0-1.3-0.3-1.7-1    c-0.3-0.5-0.5-1.3-0.5-2.2c0-0.7,0.1-1.3,0.3-1.8c0.3-1,1-1.4,1.9-1.4C291.9,293.2,292.5,293.5,292.8,294.2z M292,298.4    c0.2-0.4,0.4-1,0.4-2c0-0.7-0.1-1.3-0.3-1.8c-0.2-0.5-0.5-0.7-1-0.7c-0.5,0-0.8,0.2-1,0.7c-0.2,0.4-0.3,1.1-0.3,1.9    c0,0.6,0.1,1.2,0.2,1.5c0.2,0.6,0.6,0.9,1.1,0.9C291.5,299,291.8,298.8,292,298.4z" fill="#B3B3B3" id="path_56" tag_name="svg/g_11/g_21/path_56"/>
      <path d="M298.8,293.3v0.7c-0.2,0.2-0.5,0.5-0.8,1c-0.3,0.5-0.6,1-0.9,1.6c-0.3,0.5-0.4,1-0.6,1.5    c-0.1,0.3-0.2,0.8-0.3,1.4h-0.9c0.2-1.2,0.6-2.4,1.3-3.6c0.4-0.7,0.8-1.3,1.3-1.8h-3.5v-0.8H298.8z" fill="#B3B3B3" id="path_55" tag_name="svg/g_11/g_21/path_55"/>
      <path d="M300.5,294.9h0.9v1h-0.9V294.9z M300.5,298.5h0.9v1h-0.9V298.5z" fill="#B3B3B3" id="path_54" tag_name="svg/g_11/g_21/path_54"/>
      <path d="M306.7,294.2c0.3,0.5,0.4,1.2,0.4,2.1c0,0.9-0.1,1.6-0.4,2.1c-0.4,0.8-1,1.2-1.8,1.2c-0.8,0-1.3-0.3-1.7-1    c-0.3-0.5-0.5-1.3-0.5-2.2c0-0.7,0.1-1.3,0.3-1.8c0.3-1,1-1.4,1.9-1.4C305.7,293.2,306.3,293.5,306.7,294.2z M305.9,298.4    c0.2-0.4,0.4-1,0.4-2c0-0.7-0.1-1.3-0.3-1.8c-0.2-0.5-0.5-0.7-1-0.7c-0.5,0-0.8,0.2-1,0.7c-0.2,0.4-0.3,1.1-0.3,1.9    c0,0.6,0.1,1.2,0.2,1.5c0.2,0.6,0.6,0.9,1.1,0.9C305.3,299,305.6,298.8,305.9,298.4z" fill="#B3B3B3" id="path_53" tag_name="svg/g_11/g_21/path_53"/>
      <path d="M312.1,294.2c0.3,0.5,0.4,1.2,0.4,2.1c0,0.9-0.1,1.6-0.4,2.1c-0.4,0.8-1,1.2-1.8,1.2c-0.8,0-1.3-0.3-1.7-1    c-0.3-0.5-0.5-1.3-0.5-2.2c0-0.7,0.1-1.3,0.3-1.8c0.3-1,1-1.4,1.9-1.4C311.2,293.2,311.8,293.5,312.1,294.2z M311.3,298.4    c0.2-0.4,0.4-1,0.4-2c0-0.7-0.1-1.3-0.3-1.8c-0.2-0.5-0.5-0.7-1-0.7c-0.5,0-0.8,0.2-1,0.7c-0.2,0.4-0.3,1.1-0.3,1.9    c0,0.6,0.1,1.2,0.2,1.5c0.2,0.6,0.6,0.9,1.1,0.9C310.8,299,311.1,298.8,311.3,298.4z" fill="#B3B3B3" id="path_52" tag_name="svg/g_11/g_21/path_52"/>
    </g>
    <g id="g_20" tag_name="svg/g_11/g_20">
      <path d="M335.7,294.2c0.3,0.5,0.4,1.2,0.4,2.1c0,0.9-0.1,1.6-0.4,2.1c-0.4,0.8-1,1.2-1.8,1.2c-0.8,0-1.3-0.3-1.7-1    c-0.3-0.5-0.5-1.3-0.5-2.2c0-0.7,0.1-1.3,0.3-1.8c0.3-1,1-1.4,1.9-1.4C334.8,293.2,335.4,293.5,335.7,294.2z M334.9,298.4    c0.2-0.4,0.4-1,0.4-2c0-0.7-0.1-1.3-0.3-1.8c-0.2-0.5-0.5-0.7-1-0.7c-0.5,0-0.8,0.2-1,0.7c-0.2,0.4-0.3,1.1-0.3,1.9    c0,0.6,0.1,1.2,0.2,1.5c0.2,0.6,0.6,0.9,1.1,0.9C334.3,299,334.7,298.8,334.9,298.4z" fill="#B3B3B3" id="path_51" tag_name="svg/g_11/g_20/path_51"/>
      <path d="M337.8,295.8c-0.2-0.2-0.3-0.5-0.3-0.9c0-0.5,0.2-0.9,0.5-1.2c0.3-0.3,0.8-0.5,1.4-0.5c0.6,0,1.1,0.2,1.4,0.5    c0.3,0.3,0.5,0.7,0.5,1.1c0,0.4-0.1,0.7-0.3,1c-0.1,0.1-0.3,0.3-0.5,0.4c0.3,0.1,0.5,0.3,0.6,0.4c0.3,0.3,0.4,0.7,0.4,1.1    c0,0.6-0.2,1-0.6,1.4c-0.4,0.4-0.9,0.6-1.6,0.6c-0.6,0-1.1-0.2-1.6-0.5c-0.4-0.3-0.6-0.8-0.6-1.4c0-0.4,0.1-0.7,0.3-1    c0.2-0.3,0.5-0.5,0.8-0.6C338.1,296.1,338,295.9,337.8,295.8z M340.4,298.7c0.2-0.2,0.4-0.5,0.4-0.9c0-0.4-0.1-0.7-0.4-0.9    s-0.6-0.3-1-0.3c-0.4,0-0.7,0.1-0.9,0.3c-0.2,0.2-0.4,0.5-0.4,0.9c0,0.3,0.1,0.6,0.3,0.9c0.2,0.2,0.6,0.4,1,0.4    C339.8,299,340.1,298.9,340.4,298.7z M340.2,295.6c0.2-0.2,0.3-0.4,0.3-0.7c0-0.2-0.1-0.5-0.3-0.6c-0.2-0.2-0.5-0.3-0.9-0.3    c-0.4,0-0.7,0.1-0.8,0.3c-0.2,0.2-0.3,0.4-0.3,0.7c0,0.3,0.1,0.5,0.3,0.7c0.2,0.2,0.5,0.3,0.8,0.3    C339.8,295.8,340,295.7,340.2,295.6z" fill="#B3B3B3" id="path_50" tag_name="svg/g_11/g_20/path_50"/>
      <path d="M343.4,294.9h0.9v1h-0.9V294.9z M343.4,298.5h0.9v1h-0.9V298.5z" fill="#B3B3B3" id="path_49" tag_name="svg/g_11/g_20/path_49"/>
      <path d="M349.6,294.2c0.3,0.5,0.4,1.2,0.4,2.1c0,0.9-0.1,1.6-0.4,2.1c-0.4,0.8-1,1.2-1.8,1.2c-0.8,0-1.3-0.3-1.7-1    c-0.3-0.5-0.5-1.3-0.5-2.2c0-0.7,0.1-1.3,0.3-1.8c0.3-1,1-1.4,1.9-1.4C348.6,293.2,349.2,293.5,349.6,294.2z M348.8,298.4    c0.2-0.4,0.4-1,0.4-2c0-0.7-0.1-1.3-0.3-1.8c-0.2-0.5-0.5-0.7-1-0.7c-0.5,0-0.8,0.2-1,0.7c-0.2,0.4-0.3,1.1-0.3,1.9    c0,0.6,0.1,1.2,0.2,1.5c0.2,0.6,0.6,0.9,1.1,0.9C348.2,299,348.5,298.8,348.8,298.4z" fill="#B3B3B3" id="path_48" tag_name="svg/g_11/g_20/path_48"/>
      <path d="M355,294.2c0.3,0.5,0.4,1.2,0.4,2.1c0,0.9-0.1,1.6-0.4,2.1c-0.4,0.8-1,1.2-1.8,1.2c-0.8,0-1.3-0.3-1.7-1    c-0.3-0.5-0.5-1.3-0.5-2.2c0-0.7,0.1-1.3,0.3-1.8c0.3-1,1-1.4,1.9-1.4C354.1,293.2,354.7,293.5,355,294.2z M354.2,298.4    c0.2-0.4,0.4-1,0.4-2c0-0.7-0.1-1.3-0.3-1.8c-0.2-0.5-0.5-0.7-1-0.7c-0.5,0-0.8,0.2-1,0.7c-0.2,0.4-0.3,1.1-0.3,1.9    c0,0.6,0.1,1.2,0.2,1.5c0.2,0.6,0.6,0.9,1.1,0.9C353.7,299,354,298.8,354.2,298.4z" fill="#B3B3B3" id="path_47" tag_name="svg/g_11/g_20/path_47"/>
    </g>
    <g id="g_19" tag_name="svg/g_11/g_19">
      <path d="M378.6,294.2c0.3,0.5,0.4,1.2,0.4,2.1c0,0.9-0.1,1.6-0.4,2.1c-0.4,0.8-1,1.2-1.8,1.2c-0.8,0-1.3-0.3-1.7-1    c-0.3-0.5-0.5-1.3-0.5-2.2c0-0.7,0.1-1.3,0.3-1.8c0.3-1,1-1.4,1.9-1.4C377.7,293.2,378.2,293.5,378.6,294.2z M377.8,298.4    c0.2-0.4,0.4-1,0.4-2c0-0.7-0.1-1.3-0.3-1.8c-0.2-0.5-0.5-0.7-1-0.7c-0.5,0-0.8,0.2-1,0.7c-0.2,0.4-0.3,1.1-0.3,1.9    c0,0.6,0.1,1.2,0.2,1.5c0.2,0.6,0.6,0.9,1.1,0.9C377.2,299,377.6,298.8,377.8,298.4z" fill="#B3B3B3" id="path_46" tag_name="svg/g_11/g_19/path_46"/>
      <path d="M381.1,298c0,0.4,0.2,0.7,0.5,0.9c0.2,0.1,0.3,0.1,0.5,0.1c0.4,0,0.7-0.2,1-0.5c0.3-0.3,0.5-1,0.6-1.9    c-0.2,0.3-0.4,0.5-0.7,0.6c-0.3,0.1-0.5,0.2-0.8,0.2c-0.6,0-1.1-0.2-1.4-0.6c-0.4-0.4-0.5-0.9-0.5-1.5c0-0.6,0.2-1.1,0.5-1.5    c0.3-0.4,0.9-0.6,1.5-0.6c0.9,0,1.5,0.4,1.9,1.2c0.2,0.5,0.3,1,0.3,1.7c0,0.8-0.1,1.5-0.3,2c-0.4,1-1,1.5-2,1.5    c-0.6,0-1.1-0.2-1.4-0.5c-0.3-0.3-0.5-0.7-0.5-1.2H381.1z M383.1,296.4c0.3-0.2,0.4-0.6,0.4-1.1c0-0.5-0.1-0.8-0.3-1    c-0.2-0.2-0.5-0.3-0.9-0.3c-0.4,0-0.7,0.1-0.9,0.4c-0.2,0.3-0.3,0.6-0.3,1c0,0.4,0.1,0.7,0.3,1s0.5,0.4,1,0.4    C382.6,296.7,382.9,296.6,383.1,296.4z" fill="#B3B3B3" id="path_45" tag_name="svg/g_11/g_19/path_45"/>
      <path d="M386.3,294.9h0.9v1h-0.9V294.9z M386.3,298.5h0.9v1h-0.9V298.5z" fill="#B3B3B3" id="path_44" tag_name="svg/g_11/g_19/path_44"/>
      <path d="M392.5,294.2c0.3,0.5,0.4,1.2,0.4,2.1c0,0.9-0.1,1.6-0.4,2.1c-0.4,0.8-1,1.2-1.8,1.2c-0.8,0-1.3-0.3-1.7-1    c-0.3-0.5-0.5-1.3-0.5-2.2c0-0.7,0.1-1.3,0.3-1.8c0.3-1,1-1.4,1.9-1.4C391.5,293.2,392.1,293.5,392.5,294.2z M391.7,298.4    c0.2-0.4,0.4-1,0.4-2c0-0.7-0.1-1.3-0.3-1.8c-0.2-0.5-0.5-0.7-1-0.7c-0.5,0-0.8,0.2-1,0.7c-0.2,0.4-0.3,1.1-0.3,1.9    c0,0.6,0.1,1.2,0.2,1.5c0.2,0.6,0.6,0.9,1.1,0.9C391.1,299,391.4,298.8,391.7,298.4z" fill="#B3B3B3" id="path_43" tag_name="svg/g_11/g_19/path_43"/>
      <path d="M397.9,294.2c0.3,0.5,0.4,1.2,0.4,2.1c0,0.9-0.1,1.6-0.4,2.1c-0.4,0.8-1,1.2-1.8,1.2c-0.8,0-1.3-0.3-1.7-1    c-0.3-0.5-0.5-1.3-0.5-2.2c0-0.7,0.1-1.3,0.3-1.8c0.3-1,1-1.4,1.9-1.4C397,293.2,397.6,293.5,397.9,294.2z M397.1,298.4    c0.2-0.4,0.4-1,0.4-2c0-0.7-0.1-1.3-0.3-1.8c-0.2-0.5-0.5-0.7-1-0.7c-0.5,0-0.8,0.2-1,0.7c-0.2,0.4-0.3,1.1-0.3,1.9    c0,0.6,0.1,1.2,0.2,1.5c0.2,0.6,0.6,0.9,1.1,0.9C396.6,299,396.9,298.8,397.1,298.4z" fill="#B3B3B3" id="path_42" tag_name="svg/g_11/g_19/path_42"/>
    </g>
    <g id="g_18" tag_name="svg/g_11/g_18">
      <path d="M418.2,295v-0.6c0.6-0.1,1-0.1,1.2-0.3c0.2-0.1,0.4-0.4,0.5-0.9h0.6v6.3h-0.8V295H418.2z" fill="#B3B3B3" id="path_41" tag_name="svg/g_11/g_18/path_41"/>
      <path d="M427,294.2c0.3,0.5,0.4,1.2,0.4,2.1c0,0.9-0.1,1.6-0.4,2.1c-0.4,0.8-1,1.2-1.8,1.2c-0.8,0-1.3-0.3-1.7-1    c-0.3-0.5-0.5-1.3-0.5-2.2c0-0.7,0.1-1.3,0.3-1.8c0.3-1,1-1.4,1.9-1.4C426,293.2,426.6,293.5,427,294.2z M426.2,298.4    c0.2-0.4,0.4-1,0.4-2c0-0.7-0.1-1.3-0.3-1.8c-0.2-0.5-0.5-0.7-1-0.7c-0.5,0-0.8,0.2-1,0.7c-0.2,0.4-0.3,1.1-0.3,1.9    c0,0.6,0.1,1.2,0.2,1.5c0.2,0.6,0.6,0.9,1.1,0.9C425.6,299,425.9,298.8,426.2,298.4z" fill="#B3B3B3" id="path_40" tag_name="svg/g_11/g_18/path_40"/>
      <path d="M429.2,294.9h0.9v1h-0.9V294.9z M429.2,298.5h0.9v1h-0.9V298.5z" fill="#B3B3B3" id="path_39" tag_name="svg/g_11/g_18/path_39"/>
      <path d="M435.4,294.2c0.3,0.5,0.4,1.2,0.4,2.1c0,0.9-0.1,1.6-0.4,2.1c-0.4,0.8-1,1.2-1.8,1.2c-0.8,0-1.3-0.3-1.7-1    c-0.3-0.5-0.5-1.3-0.5-2.2c0-0.7,0.1-1.3,0.3-1.8c0.3-1,1-1.4,1.9-1.4C434.4,293.2,435,293.5,435.4,294.2z M434.6,298.4    c0.2-0.4,0.4-1,0.4-2c0-0.7-0.1-1.3-0.3-1.8c-0.2-0.5-0.5-0.7-1-0.7c-0.5,0-0.8,0.2-1,0.7c-0.2,0.4-0.3,1.1-0.3,1.9    c0,0.6,0.1,1.2,0.2,1.5c0.2,0.6,0.6,0.9,1.1,0.9C434,299,434.3,298.8,434.6,298.4z" fill="#B3B3B3" id="path_38" tag_name="svg/g_11/g_18/path_38"/>
      <path d="M440.8,294.2c0.3,0.5,0.4,1.2,0.4,2.1c0,0.9-0.1,1.6-0.4,2.1c-0.4,0.8-1,1.2-1.8,1.2c-0.8,0-1.3-0.3-1.7-1    c-0.3-0.5-0.5-1.3-0.5-2.2c0-0.7,0.1-1.3,0.3-1.8c0.3-1,1-1.4,1.9-1.4C439.9,293.2,440.5,293.5,440.8,294.2z M440,298.4    c0.2-0.4,0.4-1,0.4-2c0-0.7-0.1-1.3-0.3-1.8c-0.2-0.5-0.5-0.7-1-0.7c-0.5,0-0.8,0.2-1,0.7c-0.2,0.4-0.3,1.1-0.3,1.9    c0,0.6,0.1,1.2,0.2,1.5c0.2,0.6,0.6,0.9,1.1,0.9C439.5,299,439.8,298.8,440,298.4z" fill="#B3B3B3" id="path_37" tag_name="svg/g_11/g_18/path_37"/>
    </g>
    <g id="g_17" tag_name="svg/g_11/g_17">
      <path d="M461.4,295v-0.6c0.6-0.1,1-0.1,1.2-0.3c0.2-0.1,0.4-0.4,0.5-0.9h0.6v6.3h-0.8V295H461.4z" fill="#B3B3B3" id="path_36" tag_name="svg/g_11/g_17/path_36"/>
      <path d="M466.2,295v-0.6c0.6-0.1,1-0.1,1.2-0.3c0.2-0.1,0.4-0.4,0.5-0.9h0.6v6.3h-0.8V295H466.2z" fill="#B3B3B3" id="path_35" tag_name="svg/g_11/g_17/path_35"/>
      <path d="M471.8,294.9h0.9v1h-0.9V294.9z M471.8,298.5h0.9v1h-0.9V298.5z" fill="#B3B3B3" id="path_34" tag_name="svg/g_11/g_17/path_34"/>
      <path d="M477.9,294.2c0.3,0.5,0.4,1.2,0.4,2.1c0,0.9-0.1,1.6-0.4,2.1c-0.4,0.8-1,1.2-1.8,1.2c-0.8,0-1.3-0.3-1.7-1    c-0.3-0.5-0.5-1.3-0.5-2.2c0-0.7,0.1-1.3,0.3-1.8c0.3-1,1-1.4,1.9-1.4C477,293.2,477.6,293.5,477.9,294.2z M477.1,298.4    c0.2-0.4,0.4-1,0.4-2c0-0.7-0.1-1.3-0.3-1.8c-0.2-0.5-0.5-0.7-1-0.7c-0.5,0-0.8,0.2-1,0.7c-0.2,0.4-0.3,1.1-0.3,1.9    c0,0.6,0.1,1.2,0.2,1.5c0.2,0.6,0.6,0.9,1.1,0.9C476.6,299,476.9,298.8,477.1,298.4z" fill="#B3B3B3" id="path_33" tag_name="svg/g_11/g_17/path_33"/>
      <path d="M483.4,294.2c0.3,0.5,0.4,1.2,0.4,2.1c0,0.9-0.1,1.6-0.4,2.1c-0.4,0.8-1,1.2-1.8,1.2c-0.8,0-1.3-0.3-1.7-1    c-0.3-0.5-0.5-1.3-0.5-2.2c0-0.7,0.1-1.3,0.3-1.8c0.3-1,1-1.4,1.9-1.4C482.4,293.2,483,293.5,483.4,294.2z M482.6,298.4    c0.2-0.4,0.4-1,0.4-2c0-0.7-0.1-1.3-0.3-1.8c-0.2-0.5-0.5-0.7-1-0.7c-0.5,0-0.8,0.2-1,0.7c-0.2,0.4-0.3,1.1-0.3,1.9    c0,0.6,0.1,1.2,0.2,1.5c0.2,0.6,0.6,0.9,1.1,0.9C482,299,482.4,298.8,482.6,298.4z" fill="#B3B3B3" id="path_32" tag_name="svg/g_11/g_17/path_32"/>
    </g>
    <g id="g_16" tag_name="svg/g_11/g_16">
      <path d="M504,295v-0.6c0.6-0.1,1-0.1,1.2-0.3c0.2-0.1,0.4-0.4,0.5-0.9h0.6v6.3h-0.8V295H504z" fill="#B3B3B3" id="path_31" tag_name="svg/g_11/g_16/path_31"/>
      <path d="M509.2,298.1c0.2-0.4,0.6-0.8,1.1-1.1l0.8-0.5c0.4-0.2,0.6-0.4,0.8-0.6c0.2-0.2,0.4-0.5,0.4-0.8    c0-0.4-0.1-0.7-0.3-0.9c-0.2-0.2-0.5-0.3-0.9-0.3c-0.5,0-0.9,0.2-1.1,0.6c-0.1,0.2-0.2,0.5-0.2,0.9H509c0-0.5,0.1-1,0.3-1.3    c0.3-0.6,0.9-0.9,1.8-0.9c0.7,0,1.2,0.2,1.6,0.6c0.3,0.4,0.5,0.8,0.5,1.3c0,0.5-0.2,0.9-0.5,1.3c-0.2,0.2-0.6,0.5-1.1,0.8    l-0.6,0.3c-0.3,0.2-0.5,0.3-0.7,0.5c-0.3,0.3-0.5,0.5-0.6,0.8h3.4v0.7h-4.3C508.9,299,509,298.5,509.2,298.1z" fill="#B3B3B3" id="path_30" tag_name="svg/g_11/g_16/path_30"/>
      <path d="M515,294.9h0.9v1H515V294.9z M515,298.5h0.9v1H515V298.5z" fill="#B3B3B3" id="path_29" tag_name="svg/g_11/g_16/path_29"/>
      <path d="M521.2,294.2c0.3,0.5,0.4,1.2,0.4,2.1c0,0.9-0.1,1.6-0.4,2.1c-0.4,0.8-1,1.2-1.8,1.2c-0.8,0-1.3-0.3-1.7-1    c-0.3-0.5-0.5-1.3-0.5-2.2c0-0.7,0.1-1.3,0.3-1.8c0.3-1,1-1.4,1.9-1.4C520.2,293.2,520.8,293.5,521.2,294.2z M520.4,298.4    c0.2-0.4,0.4-1,0.4-2c0-0.7-0.1-1.3-0.3-1.8c-0.2-0.5-0.5-0.7-1-0.7c-0.5,0-0.8,0.2-1,0.7c-0.2,0.4-0.3,1.1-0.3,1.9    c0,0.6,0.1,1.2,0.2,1.5c0.2,0.6,0.6,0.9,1.1,0.9C519.8,299,520.1,298.8,520.4,298.4z" fill="#B3B3B3" id="path_28" tag_name="svg/g_11/g_16/path_28"/>
      <path d="M526.6,294.2c0.3,0.5,0.4,1.2,0.4,2.1c0,0.9-0.1,1.6-0.4,2.1c-0.4,0.8-1,1.2-1.8,1.2c-0.8,0-1.3-0.3-1.7-1    c-0.3-0.5-0.5-1.3-0.5-2.2c0-0.7,0.1-1.3,0.3-1.8c0.3-1,1-1.4,1.9-1.4C525.7,293.2,526.3,293.5,526.6,294.2z M525.8,298.4    c0.2-0.4,0.4-1,0.4-2c0-0.7-0.1-1.3-0.3-1.8c-0.2-0.5-0.5-0.7-1-0.7c-0.5,0-0.8,0.2-1,0.7c-0.2,0.4-0.3,1.1-0.3,1.9    c0,0.6,0.1,1.2,0.2,1.5c0.2,0.6,0.6,0.9,1.1,0.9C525.3,299,525.6,298.8,525.8,298.4z" fill="#B3B3B3" id="path_27" tag_name="svg/g_11/g_16/path_27"/>
    </g>
    <g id="g_15" tag_name="svg/g_11/g_15">
      <path d="M546.9,295v-0.6c0.6-0.1,1-0.1,1.2-0.3c0.2-0.1,0.4-0.4,0.5-0.9h0.6v6.3h-0.8V295H546.9z" fill="#B3B3B3" id="path_26" tag_name="svg/g_11/g_15/path_26"/>
      <path d="M552.2,299.1c-0.3-0.4-0.5-0.9-0.5-1.5h0.8c0,0.4,0.1,0.7,0.2,0.9c0.2,0.3,0.6,0.5,1.1,0.5    c0.4,0,0.8-0.1,1-0.3s0.4-0.5,0.4-0.9c0-0.4-0.1-0.7-0.4-0.9s-0.6-0.3-1.1-0.3c-0.1,0-0.1,0-0.2,0c-0.1,0-0.1,0-0.2,0v-0.7    c0.1,0,0.2,0,0.2,0s0.1,0,0.2,0c0.3,0,0.5,0,0.7-0.1c0.3-0.2,0.5-0.5,0.5-0.9c0-0.3-0.1-0.6-0.3-0.7s-0.5-0.3-0.8-0.3    c-0.5,0-0.9,0.2-1.1,0.5c-0.1,0.2-0.2,0.5-0.2,0.8h-0.8c0-0.5,0.1-0.9,0.3-1.2c0.3-0.6,0.9-0.9,1.7-0.9c0.6,0,1.1,0.1,1.5,0.4    c0.4,0.3,0.5,0.7,0.5,1.2c0,0.4-0.1,0.7-0.3,0.9c-0.1,0.1-0.3,0.3-0.5,0.4c0.3,0.1,0.6,0.3,0.8,0.5c0.2,0.3,0.3,0.6,0.3,1    c0,0.6-0.2,1.1-0.6,1.5s-1,0.6-1.7,0.6C553.1,299.7,552.5,299.5,552.2,299.1z" fill="#B3B3B3" id="path_25" tag_name="svg/g_11/g_15/path_25"/>
      <path d="M557.9,294.9h0.9v1h-0.9V294.9z M557.9,298.5h0.9v1h-0.9V298.5z" fill="#B3B3B3" id="path_24" tag_name="svg/g_11/g_15/path_24"/>
      <path d="M564.1,294.2c0.3,0.5,0.4,1.2,0.4,2.1c0,0.9-0.1,1.6-0.4,2.1c-0.4,0.8-1,1.2-1.8,1.2c-0.8,0-1.3-0.3-1.7-1    c-0.3-0.5-0.5-1.3-0.5-2.2c0-0.7,0.1-1.3,0.3-1.8c0.3-1,1-1.4,1.9-1.4C563.1,293.2,563.7,293.5,564.1,294.2z M563.3,298.4    c0.2-0.4,0.4-1,0.4-2c0-0.7-0.1-1.3-0.3-1.8c-0.2-0.5-0.5-0.7-1-0.7c-0.5,0-0.8,0.2-1,0.7c-0.2,0.4-0.3,1.1-0.3,1.9    c0,0.6,0.1,1.2,0.2,1.5c0.2,0.6,0.6,0.9,1.1,0.9C562.7,299,563,298.8,563.3,298.4z" fill="#B3B3B3" id="path_23" tag_name="svg/g_11/g_15/path_23"/>
      <path d="M569.5,294.2c0.3,0.5,0.4,1.2,0.4,2.1c0,0.9-0.1,1.6-0.4,2.1c-0.4,0.8-1,1.2-1.8,1.2c-0.8,0-1.3-0.3-1.7-1    c-0.3-0.5-0.5-1.3-0.5-2.2c0-0.7,0.1-1.3,0.3-1.8c0.3-1,1-1.4,1.9-1.4C568.6,293.2,569.2,293.5,569.5,294.2z M568.7,298.4    c0.2-0.4,0.4-1,0.4-2c0-0.7-0.1-1.3-0.3-1.8c-0.2-0.5-0.5-0.7-1-0.7c-0.5,0-0.8,0.2-1,0.7c-0.2,0.4-0.3,1.1-0.3,1.9    c0,0.6,0.1,1.2,0.2,1.5c0.2,0.6,0.6,0.9,1.1,0.9C568.2,299,568.5,298.8,568.7,298.4z" fill="#B3B3B3" id="path_22" tag_name="svg/g_11/g_15/path_22"/>
    </g>
    <g id="g_14" tag_name="svg/g_11/g_14">
      <path d="M589.8,295v-0.6c0.6-0.1,1-0.1,1.2-0.3c0.2-0.1,0.4-0.4,0.5-0.9h0.6v6.3h-0.8V295H589.8z" fill="#B3B3B3" id="path_21" tag_name="svg/g_11/g_14/path_21"/>
      <path d="M597.3,299.5V298h-2.8v-0.8l2.9-4h0.7v4.1h0.9v0.7h-0.9v1.5H597.3z M597.3,297.3v-2.9l-2,2.9H597.3z" fill="#B3B3B3" id="path_20" tag_name="svg/g_11/g_14/path_20"/>
      <path d="M600.8,294.9h0.9v1h-0.9V294.9z M600.8,298.5h0.9v1h-0.9V298.5z" fill="#B3B3B3" id="path_19" tag_name="svg/g_11/g_14/path_19"/>
      <path d="M607,294.2c0.3,0.5,0.4,1.2,0.4,2.1c0,0.9-0.1,1.6-0.4,2.1c-0.4,0.8-1,1.2-1.8,1.2c-0.8,0-1.3-0.3-1.7-1    c-0.3-0.5-0.5-1.3-0.5-2.2c0-0.7,0.1-1.3,0.3-1.8c0.3-1,1-1.4,1.9-1.4C606,293.2,606.6,293.5,607,294.2z M606.2,298.4    c0.2-0.4,0.4-1,0.4-2c0-0.7-0.1-1.3-0.3-1.8c-0.2-0.5-0.5-0.7-1-0.7c-0.5,0-0.8,0.2-1,0.7c-0.2,0.4-0.3,1.1-0.3,1.9    c0,0.6,0.1,1.2,0.2,1.5c0.2,0.6,0.6,0.9,1.1,0.9C605.6,299,605.9,298.8,606.2,298.4z" fill="#B3B3B3" id="path_18" tag_name="svg/g_11/g_14/path_18"/>
      <path d="M612.4,294.2c0.3,0.5,0.4,1.2,0.4,2.1c0,0.9-0.1,1.6-0.4,2.1c-0.4,0.8-1,1.2-1.8,1.2c-0.8,0-1.3-0.3-1.7-1    c-0.3-0.5-0.5-1.3-0.5-2.2c0-0.7,0.1-1.3,0.3-1.8c0.3-1,1-1.4,1.9-1.4C611.5,293.2,612.1,293.5,612.4,294.2z M611.6,298.4    c0.2-0.4,0.4-1,0.4-2c0-0.7-0.1-1.3-0.3-1.8c-0.2-0.5-0.5-0.7-1-0.7c-0.5,0-0.8,0.2-1,0.7c-0.2,0.4-0.3,1.1-0.3,1.9    c0,0.6,0.1,1.2,0.2,1.5c0.2,0.6,0.6,0.9,1.1,0.9C611,299,611.4,298.8,611.6,298.4z" fill="#B3B3B3" id="path_17" tag_name="svg/g_11/g_14/path_17"/>
    </g>
    <g id="g_13" tag_name="svg/g_11/g_13">
      <path d="M632.7,295v-0.6c0.6-0.1,1-0.1,1.2-0.3c0.2-0.1,0.4-0.4,0.5-0.9h0.6v6.3h-0.8V295H632.7z" fill="#B3B3B3" id="path_16" tag_name="svg/g_11/g_13/path_16"/>
      <path d="M638.4,297.9c0.1,0.5,0.3,0.8,0.6,0.9c0.2,0.1,0.4,0.1,0.7,0.1c0.5,0,0.8-0.1,1-0.4s0.3-0.6,0.3-1    c0-0.4-0.1-0.8-0.4-1s-0.6-0.4-1-0.4c-0.3,0-0.5,0.1-0.7,0.2s-0.4,0.3-0.5,0.4l-0.7,0l0.5-3.4h3.3v0.8h-2.7l-0.3,1.7    c0.1-0.1,0.3-0.2,0.4-0.2c0.2-0.1,0.5-0.1,0.8-0.1c0.6,0,1.1,0.2,1.5,0.6c0.4,0.4,0.6,0.8,0.6,1.4c0,0.6-0.2,1.1-0.6,1.6    c-0.4,0.5-1,0.7-1.8,0.7c-0.5,0-1-0.1-1.4-0.4c-0.4-0.3-0.6-0.7-0.7-1.3H638.4z" fill="#B3B3B3" id="path_15" tag_name="svg/g_11/g_13/path_15"/>
      <path d="M643.7,294.9h0.9v1h-0.9V294.9z M643.7,298.5h0.9v1h-0.9V298.5z" fill="#B3B3B3" id="path_14" tag_name="svg/g_11/g_13/path_14"/>
      <path d="M649.9,294.2c0.3,0.5,0.4,1.2,0.4,2.1c0,0.9-0.1,1.6-0.4,2.1c-0.4,0.8-1,1.2-1.8,1.2c-0.8,0-1.3-0.3-1.7-1    c-0.3-0.5-0.5-1.3-0.5-2.2c0-0.7,0.1-1.3,0.3-1.8c0.3-1,1-1.4,1.9-1.4C648.9,293.2,649.5,293.5,649.9,294.2z M649.1,298.4    c0.2-0.4,0.4-1,0.4-2c0-0.7-0.1-1.3-0.3-1.8c-0.2-0.5-0.5-0.7-1-0.7c-0.5,0-0.8,0.2-1,0.7c-0.2,0.4-0.3,1.1-0.3,1.9    c0,0.6,0.1,1.2,0.2,1.5c0.2,0.6,0.6,0.9,1.1,0.9C648.5,299,648.8,298.8,649.1,298.4z" fill="#B3B3B3" id="path_13" tag_name="svg/g_11/g_13/path_13"/>
      <path d="M655.3,294.2c0.3,0.5,0.4,1.2,0.4,2.1c0,0.9-0.1,1.6-0.4,2.1c-0.4,0.8-1,1.2-1.8,1.2c-0.8,0-1.3-0.3-1.7-1    c-0.3-0.5-0.5-1.3-0.5-2.2c0-0.7,0.1-1.3,0.3-1.8c0.3-1,1-1.4,1.9-1.4C654.4,293.2,654.9,293.5,655.3,294.2z M654.5,298.4    c0.2-0.4,0.4-1,0.4-2c0-0.7-0.1-1.3-0.3-1.8c-0.2-0.5-0.5-0.7-1-0.7c-0.5,0-0.8,0.2-1,0.7c-0.2,0.4-0.3,1.1-0.3,1.9    c0,0.6,0.1,1.2,0.2,1.5c0.2,0.6,0.6,0.9,1.1,0.9C653.9,299,654.3,298.8,654.5,298.4z" fill="#B3B3B3" id="path_12" tag_name="svg/g_11/g_13/path_12"/>
    </g>
    <g id="g_12" tag_name="svg/g_11/g_12">
      <path d="M675.6,295v-0.6c0.6-0.1,1-0.1,1.2-0.3c0.2-0.1,0.4-0.4,0.5-0.9h0.6v6.3H677V295H675.6z" fill="#B3B3B3" id="path_11" tag_name="svg/g_11/g_12/path_11"/>
      <path d="M684.2,293.7c0.3,0.4,0.4,0.7,0.4,1.1h-0.8c0-0.2-0.1-0.4-0.2-0.6c-0.2-0.3-0.5-0.4-0.9-0.4    c-0.4,0-0.8,0.2-1.1,0.6c-0.3,0.4-0.4,1-0.4,1.8c0.2-0.3,0.4-0.5,0.7-0.6c0.3-0.1,0.5-0.2,0.8-0.2c0.5,0,1,0.2,1.4,0.5    s0.6,0.8,0.6,1.5c0,0.6-0.2,1.1-0.6,1.5c-0.4,0.4-0.9,0.7-1.6,0.7c-0.6,0-1.1-0.2-1.5-0.7c-0.4-0.4-0.6-1.2-0.6-2.3    c0-0.8,0.1-1.4,0.3-2c0.4-1,1-1.6,2-1.6C683.5,293.2,684,293.4,684.2,293.7z M683.7,298.5c0.2-0.3,0.3-0.6,0.3-1    c0-0.3-0.1-0.6-0.3-0.9c-0.2-0.3-0.5-0.4-1-0.4c-0.3,0-0.6,0.1-0.9,0.3c-0.3,0.2-0.4,0.6-0.4,1c0,0.4,0.1,0.7,0.3,1    c0.2,0.3,0.6,0.4,1,0.4C683.1,299,683.4,298.8,683.7,298.5z" fill="#B3B3B3" id="path_10" tag_name="svg/g_11/g_12/path_10"/>
      <path d="M686.6,294.9h0.9v1h-0.9V294.9z M686.6,298.5h0.9v1h-0.9V298.5z" fill="#B3B3B3" id="path_9" tag_name="svg/g_11/g_12/path_9"/>
      <path d="M692.8,294.2c0.3,0.5,0.4,1.2,0.4,2.1c0,0.9-0.1,1.6-0.4,2.1c-0.4,0.8-1,1.2-1.8,1.2c-0.8,0-1.3-0.3-1.7-1    c-0.3-0.5-0.5-1.3-0.5-2.2c0-0.7,0.1-1.3,0.3-1.8c0.3-1,1-1.4,1.9-1.4C691.8,293.2,692.4,293.5,692.8,294.2z M692,298.4    c0.2-0.4,0.4-1,0.4-2c0-0.7-0.1-1.3-0.3-1.8c-0.2-0.5-0.5-0.7-1-0.7c-0.5,0-0.8,0.2-1,0.7c-0.2,0.4-0.3,1.1-0.3,1.9    c0,0.6,0.1,1.2,0.2,1.5c0.2,0.6,0.6,0.9,1.1,0.9C691.4,299,691.7,298.8,692,298.4z" fill="#B3B3B3" id="path_8" tag_name="svg/g_11/g_12/path_8"/>
      <path d="M698.2,294.2c0.3,0.5,0.4,1.2,0.4,2.1c0,0.9-0.1,1.6-0.4,2.1c-0.4,0.8-1,1.2-1.8,1.2c-0.8,0-1.3-0.3-1.7-1    c-0.3-0.5-0.5-1.3-0.5-2.2c0-0.7,0.1-1.3,0.3-1.8c0.3-1,1-1.4,1.9-1.4C697.3,293.2,697.8,293.5,698.2,294.2z M697.4,298.4    c0.2-0.4,0.4-1,0.4-2c0-0.7-0.1-1.3-0.3-1.8c-0.2-0.5-0.5-0.7-1-0.7c-0.5,0-0.8,0.2-1,0.7c-0.2,0.4-0.3,1.1-0.3,1.9    c0,0.6,0.1,1.2,0.2,1.5c0.2,0.6,0.6,0.9,1.1,0.9C696.8,299,697.2,298.8,697.4,298.4z" fill="#B3B3B3" id="path_7" tag_name="svg/g_11/g_12/path_7"/>
    </g>
  </g>
  <g id="g" tag_name="svg/g">
    <path d="M-1.8,110.3c29.3-2.7,69.5,2.8,92.4-16.7c17.3-14.7,29.6-22.2,49.4-7.6c16.6,12.3,40.7,19.7,59.1,6.2   c11.4-9.4,32.2-81.5,52.1-51.7C259,52,264.5,65,272,76.8c12.1,19.2,28.1,3.5,44.4-1.4c16.5-4.9,34,2.6,50.3-5.6   c9.2-4.7,18.9-10.9,29.3-12.4c11.6-1.6,22.1,9.4,31.4,14.7c17.5,10,25.8-3.7,37.4-16.1c14.7-15.9,25.6-1.5,35.2,10.3   c6.6,8.2,18.8,27.2,29.8,14.6c10.1-11.6,16.1-26.7,26.1-38.5c25.4-30,63.8,2.3,90.9,10.6c26.5,8.1,52.7,18.6,79.9,24.6   c11.2,2.5,10.7,36,12.5,47.3c-89.3-2.1-178.6-4.8-268-5.6c-90.8-0.8-183.3-5.7-273.9,0.2c-39,2.5-78,5.1-117,7.6   c-17.6,1.1-35.5,0.3-53.1,0.4c-8.8,0.1-17.6,0.1-26.5,0.2C-4.2,127.8-1.8,114.5-1.8,110.3z" fill="#FFADA1" id="path_6" tag_name="svg/g/path_6"/>
    <path d="M-2.2,111.8c13.8,1.6,27.8,3.4,41.7,4.1c23.6,1.2,37.5-0.7,56.1-15.2c18.8-14.7,27-16.6,46.5-1   c12.3,9.2,24.5,14.3,40,11.5c17.8-3.2,27.2-15.6,36-30c4.4-7.2,14.3-24.9,25.3-20.8c15.1,5.6,20.4,24.4,34.8,31.5   c15.7,7.7,27.6-7.5,43.1-7.5c12,0,27.9-2.2,39.3,1.8c13.6,4.8,27.5,9.5,41.8,11.4c18.5,2.4,34.1-0.5,49.5-10.8   c18.2-12.2,25.6-25.3,45.5-8.8c18.4,15.3,27.4,19.9,49.6,5.3c18.8-12.3,34.7,4.8,53.9,0.5c13-2.9,26.3-9.2,38.4-14.6   c12.9-5.7,28.2-6,41.6-10.3c15.9-5.1,31.4,12.2,45.1,17.7c4.1,1.6,12.9,19.6,7.2,21.5c-26.9,8.7-53.8,17.5-80.6,26.2   c-38,12.3-81.3,12.4-121.1,9.9c-22-1.4-43.4-3.9-65.3-1.3c-26.5,3.1-53,6.2-79.4,9.3c-35.7,4.2-73.2,2.6-109.3,2.6   c-63.3,0-126.6,0-189.9,0c-25.3,0-50.5,0-75.8,0c-4.6,0-9.2,0-13.8,0C-2,144.7-2.1,115-2.2,111.8z" fill="#FF727D" id="path_5" tag_name="svg/g/path_5"/>
    <path d="M-2.2,121.4c0,0,31.3,8,44.3,8s31-2.6,36-5.4c0,0,11.3-5.7,16.7-11.5c5.3-5.7,18-15.6,25-13.4   c7,2.2,20,12.8,29.7,23.9c0,0,6.3,5.7,15,5.7c0,0,7.7-0.6,14-5.1c6.3-4.5,21.7-9.9,21.7-9.9s25-5.1,39-0.3   c14,4.8,32.3,22.6,40.7,22.6c8.3,0,13,0.6,21.7-1.6c8.7-2.2,18.7-4.1,18.7-4.1s34.7-5.1,40-4.1c5.3,1,31.3,6.1,40.3,6.1   s34.3-8.6,39.7-11.8c5.3-3.2,29.3-25.2,40.7-25.2c11.3,0,29.7,17.5,40.3,21.4c0,0,11,1,16-0.3c5-1.3,20-2.6,24.7-1.3   c0,0,12.3,3.2,23.7,8c0,0,13,5.7,29.3-0.3c16.3-6.1,29-18.5,36.7-25.2c7.7-6.7,26.7-36.7,39.7-37c13-0.3,27.6,29.7,40.6,23.6v56.5   l-92.6,58.1l-77,12.8l-62.3-40.8L453.2,190l-80.7-5.1l-90-0.3l-35.7,24.9l-47-32.2l-98.3-10.8l-104.3,1.3L-2.2,121.4z" fill="#FF8DA1" id="path_4" tag_name="svg/g/path_4"/>
    <path d="M-1.2,177.4c0,1.2-0.4,11.2,0.1,11.3c5.8,0.9,11.5,1.8,17.3,2.6c8,1.1,16,2.2,24,2.8c11,0.8,22.5-0.7,33.3,1.8   c7.8,1.8,15.4,7.8,21.6,12.8c7,5.6,14.4,14.9,24.2,14.9c10.6,0,19-7.7,27-13.5c9-6.6,20.3-8.7,31.2-8.2   c16.5,0.6,24.5,9.4,32.1,22.8c7.1,12.7,12.1,29.8,22.7,40.2c12.9,12.7,23.2-11.6,28.1-20.6c6.6-12.3,12.4-29.8,28.6-30.2   c6.3-0.1,12,3,17,6.4c6.5,4.4,15.1,5.7,22.8,6.1c12.3-0.1,24.8-2,36.4,3.5c11.2,5.3,19.6,15.4,32.1,18.4c5.2,1.2,9.7-2.1,13.9-4.9   c8.4-5.5,16.5-19.2,27.2-19.5c15.9-0.5,28.8,35.1,44.6,27c11.8-6.1,18.8-19.8,27.5-29.3c13.8-15.1,28,12.2,34.4,21.8   c7.8,11.7,17.4,22,30.5,27.6c12.9,5.6,25,6.2,36.6-1.4c10.9-7.1,18.1-15.7,30.9-19.6c17.9-5.5,39.1-3.4,57.6-2.1   c10.5,0.7,20.8,3.2,31.1,5.3c-0.9-5.9,0.3-19.3-5.5-22c-10.9-5-21.8-10-32.7-15c-5.6-2.6-7.5-0.8-13.5,1.4   c-11.4,4.2-22.8,8.4-34.3,12.6c-11.6,4.3-23.2,8.5-34.8,12.8c-3.2,1.2-8.6,4.9-11.6,2.7c-18.2-13.7-36.4-27.4-54.7-41.1   c-7.3-5.5-14.7-11.1-22-16.6c-3.3-2.5-12.1,6.7-15,8.7c-9.7,7-19.4,14-29.1,20.9c-4.7,3.4-18-6.2-22.9-8.4   c-16.5-7.6-36.5-7.2-54.3-9.4c-14.3-1.7-28.1-3.9-42.5-3.8c-27.8,0.2-55.6,0.5-83.4,0.7c-5.4,0-12.8-2.1-15.9,2.8   c-6.1,9.8-12.2,19.6-18.4,29.4c-12.1-16.2-24.3-32.4-36.4-48.6c-2.3-3.1-4.8-2.3-8.7-2.6c-9.4-0.7-18.8-1.4-28.2-2.1   c-26.7-2-53.3-4-80-5.9c-13.2-1-27.7-3.9-40.9-2.8c-10.6,0.8-21.2,1.7-31.8,2.5c-4.4,0.4-8.8,0.7-13.2,1.1   C-1.5,170.8-0.7,174.5-1.2,177.4z" fill="#FF3045" id="path_3" tag_name="svg/g/path_3"/>
    <path d="M0,132.9c0,0,35.8,3.8,41.5,3.5c5.7-0.3,32-1,37.7-3.8c5.7-2.9,30.7-21.1,40.3-19.1c0,0,9.3-0.3,27,15   c0,0,13,11.8,31.7,0.6c0,0,18.3-12.4,34,0c0,0,22,16.3,27,17.9c5,1.6,18.7,6.4,40,5.7c21.3-0.6,67.7-9.3,75-10.8   c7.3-1.6,28.7,2.9,35.3,5.1c6.7,2.2,20-1.6,26.7-4.5c6.7-2.9,39-15.6,65-16.3c26-0.6,26.7,0.3,39.7,6.1c0,0,12.3,8.9,26,27.8   c0,0,10,10.5,12,11.8c2,1.3,11.3,6.4,31.3-3.2c20-9.6,43-23.9,51-34.8c0,0,30.3-38.9,36-50.1c0,0,5.7-10.2,15.3-8.9   c9.7,1.3,22,29.7,34.5,31.3l8.2,0V206h-170l-42.3-40.5h-94.3l-34.8,33.3h-84.5l-31.3-7.2l-34.3,23.3l-49.3-45.6l-73.7-0.3H43.2   H-2.2v-36.4L0,132.9z" fill="#FF74A1" id="path_2" tag_name="svg/g/path_2"/>
    <path d="M-1.8,134.8c0,0,30,6.1,43.3,5.7c13.3-0.3,33-3.5,36.7-3.8c3.7-0.3,33.7-4.1,41-4.1c7.3,0,28,8,39.7,6.1   c11.7-1.9,19-7.3,19-7.3s11.7-8.6,21.3-2.9c9.7,5.7,26,36,26,36s9.3,15,14,16c0,0,10.7,5.1,26-13.4c0,0,13-17.2,44.7-8   c0,0,18,2.2,36-8.9c0,0,16.7-9.6,42.7,5.4c0,0,16.7,5.7,39-9.3c0,0,18-9.9,53.3-11.5c0,0,28.3-4.6,45.7,10.4l11.7,16   c0,0,13.3,21.7,22,26.8c8.7,5.1,22.3,5.1,40.3-4.8c0,0,19-7.7,40.3-35.7c0,0,34.3-50.1,39.7-62.2c0,0,4.3-6.7,11.7-5.4   c0,0,4.4-0.7,11.3,7.3c7.9,9.1,18.8,27,23.5,27.5l3.8,0.6v94.4H549.2l-26-24.9h-179h-69.3L241,217.3l-46.8-44.8h-196L-1.8,134.8z" fill="#FF0900" id="path_1" tag_name="svg/g/path_1"/>
    <path d="M728.2,122.4c-8.7-3.8-27-36.7-27-36.7c-12.3-13.4-20.7,2.7-20.7,2.7c-6,13.4-39.8,65.3-39.8,65.3   c-17.2,27.5-40,39.2-40,39.2c-22.5,11.2-40.2-1.7-40.2-1.7c-5-2.9-33-41.9-33-41.9c-5.2-8.6-19-10.8-31.2-2.6   c-12.2,8.1-26.2,4.3-26.2,4.3c-17.5-6.5-29.8-4.3-29.8-4.3c-5.5,0.7-13.2,6.5-13.2,6.5c-16.5,13.9-27.2,15.3-27.2,15.3   c-7.5-0.2-14-5.3-14-5.3c-21.2-14.6-26-12.7-26-12.7c-7-1.2-19.2,7.2-19.2,7.2c-7.5,5.5-20.8,10-20.8,10   c-6.2,1.7-32.5-4.1-32.5-4.1c-11.2-1.7-24,14.4-24,14.4c-13.5,17.7-24.1,14.1-24.1,14.1c-8.7-4.8-19-27.8-19-27.8   c-15.3-32.2-21-32.2-21-32.2c-9.7-7.7-20.3,0.6-20.3,0.6c-8,5.4-19.7,8-19.7,8c-13,0.6-34-1.9-40-2.2c-6-0.3-29.3-0.6-40.7-0.3   c-11.3,0.3-25.3,4.8-37,4.5C29.8,142.5,0,136.7,0,136.7l-2.5-0.6v41.5c0,0,0.3,0,6.7,0.6c0,0,32.8,4,37.6,3.7   c4.8-0.2,12.5-1,18.8-2.6s13.5-2.9,18.5,0c5,2.9,10.5,6.5,24.2,18.7c13.8,12.2,12.5,9.6,15.5,9.8c3,0.2,10.5-0.2,26.2-12.4   c0,0,10.2-6.5,20.8-9.8c0,0,22-7.7,33.2,0.5c0,0,6.5,1.7,19.5,29.7c0,0,11.5,26.1,21,28.2c0,0,7.2,6,24.8-28.2c0,0,10-20.6,23-16.5   s16.8,16,32,18.4s21.5-17.5,41-17s25.8,20.3,39.8,20.8s26.5-13.4,40-12.4s24.2,18.9,40.5,18.9c21.5-10.5,23.5-34.2,39.5-33.7   c0,0,7.5-2.4,25.5,23.4c0,0,10.5,13.6,14.8,16.7c4.2,3.1,15.2,18.2,40.2,23.7c0,0,7.5,1,21.8-9.3c0,0,11.8-8.4,19-11.2   c0,0,34.2-12.7,39.5-12.9c0,0,16.2-3.1,23.8,3.1s19.5,19.6,27,17.7L728.2,122.4z" fill="#FF5787" id="path" tag_name="svg/g/path"/>
    <g id="g_10" tag_name="svg/g/g_10">
	</g>
    <g id="g_9" tag_name="svg/g/g_9">
	</g>
    <g id="g_8" tag_name="svg/g/g_8">
	</g>
    <g id="g_7" tag_name="svg/g/g_7">
	</g>
    <g id="g_6" tag_name="svg/g/g_6">
	</g>
    <g id="g_5" tag_name="svg/g/g_5">
	</g>
    <g id="g_4" tag_name="svg/g/g_4">
	</g>
    <g id="g_3" tag_name="svg/g/g_3">
	</g>
    <g id="g_2" tag_name="svg/g/g_2">
	</g>
    <g id="g_1" tag_name="svg/g/g_1">
	</g>
  </g>
</svg>