<?xml version='1.0' encoding='UTF-8'?>
<svg width="900" height="340" viewBox="-70,-30,880,340" style="max-width: 100%; height: auto; font: 10px sans-serif;" id="svg" tag_name="svg">
  <g id="g_25" tag_name="svg/g_25">
    <g id="g_94" tag_name="svg/g_25/g_94">
      <g id="g_95" tag_name="svg/g_25/g_94/g_95">
        <path d="M53.8,302.1c0.2-0.8,0.7-1.9,0.9-2.4l0.6-0.1c-0.2,0.6-0.5,1.6-0.6,2.3L53.8,302.1z" fill="#808080" id="path_122" tag_name="svg/g_25/g_94/g_95/path_122"/>
        <path d="M56.2,305.5c0.2,0.2,0.8,0.4,1.4,0.4c1.1,0,1.5-0.7,1.5-1.3c0-0.9-0.8-1.3-1.7-1.3H57v-0.7h0.5     c0.6,0,1.4-0.3,1.4-1.1c0-0.5-0.3-1-1.1-1c-0.5,0-1,0.2-1.3,0.4l-0.2-0.6c0.3-0.2,1-0.5,1.7-0.5c1.3,0,1.9,0.8,1.9,1.5     c0,0.7-0.4,1.2-1.2,1.5v0c0.8,0.2,1.4,0.8,1.4,1.7c0,1-0.8,1.9-2.4,1.9c-0.7,0-1.4-0.2-1.7-0.4L56.2,305.5z" fill="#808080" id="path_121" tag_name="svg/g_25/g_94/g_95/path_121"/>
        <path d="M61.7,305.9c0.2,0,0.4,0,0.7,0c0.5-0.1,1-0.3,1.4-0.6c0.4-0.4,0.7-1,0.9-1.7h0c-0.4,0.4-0.9,0.7-1.5,0.7     c-1.2,0-1.9-0.9-1.9-2c0-1.2,0.9-2.3,2.2-2.3c1.3,0,2.1,1.1,2.1,2.7c0,1.4-0.5,2.4-1.1,3c-0.5,0.5-1.2,0.8-1.9,0.9     c-0.3,0-0.6,0.1-0.8,0V305.9z M62,302.1c0,0.8,0.5,1.4,1.2,1.4c0.6,0,1-0.3,1.3-0.7c0-0.1,0.1-0.2,0.1-0.3c0-1.1-0.4-2-1.3-2     C62.5,300.6,62,301.2,62,302.1z" fill="#808080" id="path_120" tag_name="svg/g_25/g_94/g_95/path_120"/>
      </g>
    </g>
    <g id="g_92" tag_name="svg/g_25/g_92">
      <g id="g_93" tag_name="svg/g_25/g_92/g_93">
        <path d="M73,302.1c0.2-0.8,0.7-1.9,0.9-2.4l0.6-0.1c-0.2,0.6-0.5,1.6-0.6,2.3L73,302.1z" fill="#808080" id="path_119" tag_name="svg/g_25/g_92/g_93/path_119"/>
        <path d="M77.9,306.5v-1.8h-3v-0.6l2.9-4.1h0.9v4h0.9v0.7h-0.9v1.8H77.9z M77.9,304v-2.2c0-0.3,0-0.7,0-1h0     c-0.2,0.4-0.4,0.7-0.5,1l-1.6,2.2v0H77.9z" fill="#808080" id="path_118" tag_name="svg/g_25/g_92/g_93/path_118"/>
        <path d="M84.6,303.2c0,2.2-0.8,3.4-2.3,3.4c-1.3,0-2.1-1.2-2.1-3.3c0-2.2,0.9-3.4,2.3-3.4     C83.8,299.9,84.6,301.1,84.6,303.2z M81.1,303.3c0,1.7,0.5,2.6,1.3,2.6c0.9,0,1.3-1,1.3-2.7c0-1.6-0.4-2.6-1.3-2.6     C81.7,300.6,81.1,301.5,81.1,303.3z" fill="#808080" id="path_117" tag_name="svg/g_25/g_92/g_93/path_117"/>
      </g>
    </g>
    <g id="g_90" tag_name="svg/g_25/g_90">
      <g id="g_91" tag_name="svg/g_25/g_90/g_91">
        <path d="M91.8,302.1c0.2-0.8,0.7-1.9,0.9-2.4l0.6-0.1c-0.2,0.6-0.5,1.6-0.6,2.3L91.8,302.1z" fill="#808080" id="path_116" tag_name="svg/g_25/g_90/g_91/path_116"/>
        <path d="M96.7,306.5v-1.8h-3v-0.6l2.9-4.1h0.9v4h0.9v0.7h-0.9v1.8H96.7z M96.7,304v-2.2c0-0.3,0-0.7,0-1h0     c-0.2,0.4-0.4,0.7-0.5,1l-1.6,2.2v0H96.7z" fill="#808080" id="path_115" tag_name="svg/g_25/g_90/g_91/path_115"/>
        <path d="M101,300.8L101,300.8l-1.1,0.6l-0.2-0.7l1.4-0.8h0.7v6.5H101V300.8z" fill="#808080" id="path_114" tag_name="svg/g_25/g_90/g_91/path_114"/>
      </g>
    </g>
    <g id="g_88" tag_name="svg/g_25/g_88">
      <g id="g_89" tag_name="svg/g_25/g_88/g_89">
        <path d="M110.9,302.1c0.2-0.8,0.7-1.9,0.9-2.4l0.6-0.1c-0.2,0.6-0.5,1.6-0.6,2.3L110.9,302.1z" fill="#808080" id="path_113" tag_name="svg/g_25/g_88/g_89/path_113"/>
        <path d="M115.8,306.5v-1.8h-3v-0.6l2.9-4.1h0.9v4h0.9v0.7h-0.9v1.8H115.8z M115.8,304v-2.2c0-0.3,0-0.7,0-1h0     c-0.2,0.4-0.4,0.7-0.5,1l-1.6,2.2v0H115.8z" fill="#808080" id="path_112" tag_name="svg/g_25/g_88/g_89/path_112"/>
        <path d="M118.2,306.5V306l0.7-0.7c1.7-1.6,2.4-2.4,2.4-3.4c0-0.7-0.3-1.3-1.3-1.3c-0.6,0-1.1,0.3-1.4,0.5l-0.3-0.6     c0.4-0.4,1.1-0.7,1.8-0.7c1.4,0,2,1,2,1.9c0,1.2-0.9,2.2-2.2,3.5l-0.5,0.5v0h2.9v0.7H118.2z" fill="#808080" id="path_111" tag_name="svg/g_25/g_88/g_89/path_111"/>
      </g>
    </g>
    <g id="g_86" tag_name="svg/g_25/g_86">
      <g id="g_87" tag_name="svg/g_25/g_86/g_87">
        <path d="M129.5,302.1c0.2-0.8,0.7-1.9,0.9-2.4l0.6-0.1c-0.2,0.6-0.5,1.6-0.6,2.3L129.5,302.1z" fill="#808080" id="path_110" tag_name="svg/g_25/g_86/g_87/path_110"/>
        <path d="M134.4,306.5v-1.8h-3v-0.6l2.9-4.1h0.9v4h0.9v0.7h-0.9v1.8H134.4z M134.4,304v-2.2c0-0.3,0-0.7,0-1h0     c-0.2,0.4-0.4,0.7-0.5,1l-1.6,2.2v0H134.4z" fill="#808080" id="path_109" tag_name="svg/g_25/g_86/g_87/path_109"/>
        <path d="M137,305.5c0.2,0.2,0.8,0.4,1.4,0.4c1.1,0,1.5-0.7,1.5-1.3c0-0.9-0.8-1.3-1.7-1.3h-0.5v-0.7h0.5     c0.6,0,1.4-0.3,1.4-1.1c0-0.5-0.3-1-1.1-1c-0.5,0-1,0.2-1.3,0.4l-0.2-0.6c0.3-0.2,1-0.5,1.7-0.5c1.3,0,1.9,0.8,1.9,1.5     c0,0.7-0.4,1.2-1.2,1.5v0c0.8,0.2,1.4,0.8,1.4,1.7c0,1-0.8,1.9-2.4,1.9c-0.7,0-1.4-0.2-1.7-0.4L137,305.5z" fill="#808080" id="path_108" tag_name="svg/g_25/g_86/g_87/path_108"/>
      </g>
    </g>
    <g id="g_84" tag_name="svg/g_25/g_84">
      <g id="g_85" tag_name="svg/g_25/g_84/g_85">
        <path d="M148.6,302.1c0.2-0.8,0.7-1.9,0.9-2.4l0.6-0.1c-0.2,0.6-0.5,1.6-0.6,2.3L148.6,302.1z" fill="#808080" id="path_107" tag_name="svg/g_25/g_84/g_85/path_107"/>
        <path d="M153.5,306.5v-1.8h-3v-0.6l2.9-4.1h0.9v4h0.9v0.7h-0.9v1.8H153.5z M153.5,304v-2.2c0-0.3,0-0.7,0-1h0     c-0.2,0.4-0.4,0.7-0.5,1l-1.6,2.2v0H153.5z" fill="#808080" id="path_106" tag_name="svg/g_25/g_84/g_85/path_106"/>
        <path d="M158.7,306.5v-1.8h-3v-0.6l2.9-4.1h0.9v4h0.9v0.7h-0.9v1.8H158.7z M158.7,304v-2.2c0-0.3,0-0.7,0-1h0     c-0.2,0.4-0.4,0.7-0.5,1l-1.6,2.2v0H158.7z" fill="#808080" id="path_105" tag_name="svg/g_25/g_84/g_85/path_105"/>
      </g>
    </g>
    <g id="g_82" tag_name="svg/g_25/g_82">
      <g id="g_83" tag_name="svg/g_25/g_82/g_83">
        <path d="M166.6,302.1c0.2-0.8,0.7-1.9,0.9-2.4l0.6-0.1c-0.2,0.6-0.5,1.6-0.6,2.3L166.6,302.1z" fill="#808080" id="path_104" tag_name="svg/g_25/g_82/g_83/path_104"/>
        <path d="M171.5,306.5v-1.8h-3v-0.6l2.9-4.1h0.9v4h0.9v0.7h-0.9v1.8H171.5z M171.5,304v-2.2c0-0.3,0-0.7,0-1h0     c-0.2,0.4-0.4,0.7-0.5,1l-1.6,2.2v0H171.5z" fill="#808080" id="path_103" tag_name="svg/g_25/g_82/g_83/path_103"/>
        <path d="M177.8,300.7h-2.5l-0.2,1.7c0.1,0,0.3,0,0.5,0c0.5,0,1,0.1,1.4,0.3c0.5,0.3,0.9,0.8,0.9,1.7     c0,1.3-1,2.2-2.4,2.2c-0.7,0-1.3-0.2-1.6-0.4l0.2-0.7c0.3,0.2,0.8,0.4,1.4,0.4c0.8,0,1.5-0.5,1.5-1.4c0-0.8-0.6-1.4-1.9-1.4     c-0.4,0-0.7,0-0.9,0.1l0.4-3.1h3.1V300.7z" fill="#808080" id="path_102" tag_name="svg/g_25/g_82/g_83/path_102"/>
      </g>
    </g>
    <g id="g_80" tag_name="svg/g_25/g_80">
      <g id="g_81" tag_name="svg/g_25/g_80/g_81">
        <path d="M185.6,302.1c0.2-0.8,0.7-1.9,0.9-2.4l0.6-0.1c-0.2,0.6-0.5,1.6-0.6,2.3L185.6,302.1z" fill="#808080" id="path_101" tag_name="svg/g_25/g_80/g_81/path_101"/>
        <path d="M190.5,306.5v-1.8h-3v-0.6l2.9-4.1h0.9v4h0.9v0.7h-0.9v1.8H190.5z M190.5,304v-2.2c0-0.3,0-0.7,0-1h0     c-0.2,0.4-0.4,0.7-0.5,1l-1.6,2.2v0H190.5z" fill="#808080" id="path_100" tag_name="svg/g_25/g_80/g_81/path_100"/>
        <path d="M196.6,300.6c-0.2,0-0.4,0-0.7,0c-1.4,0.2-2.1,1.2-2.3,2.3h0c0.3-0.4,0.8-0.7,1.6-0.7c1.1,0,2,0.8,2,2.1     c0,1.2-0.8,2.3-2.2,2.3c-1.4,0-2.3-1.1-2.3-2.8c0-1.3,0.5-2.3,1.1-2.9c0.5-0.5,1.3-0.9,2.1-1c0.3,0,0.5,0,0.6,0V300.6z      M196.4,304.4c0-0.9-0.5-1.5-1.3-1.5c-0.5,0-1,0.3-1.3,0.8c-0.1,0.1-0.1,0.2-0.1,0.4c0,1.1,0.5,1.9,1.4,1.9     C195.9,305.9,196.4,305.3,196.4,304.4z" fill="#808080" id="path_99" tag_name="svg/g_25/g_80/g_81/path_99"/>
      </g>
    </g>
    <g id="g_78" tag_name="svg/g_25/g_78">
      <g id="g_79" tag_name="svg/g_25/g_78/g_79">
        <path d="M205.1,302.1c0.2-0.8,0.7-1.9,0.9-2.4l0.6-0.1c-0.2,0.6-0.5,1.6-0.6,2.3L205.1,302.1z" fill="#808080" id="path_98" tag_name="svg/g_25/g_78/g_79/path_98"/>
        <path d="M210,306.5v-1.8h-3v-0.6l2.9-4.1h0.9v4h0.9v0.7h-0.9v1.8H210z M210,304v-2.2c0-0.3,0-0.7,0-1h0     c-0.2,0.4-0.4,0.7-0.5,1l-1.6,2.2v0H210z" fill="#808080" id="path_97" tag_name="svg/g_25/g_78/g_79/path_97"/>
        <path d="M216.7,300v0.6l-2.8,5.9h-0.9l2.8-5.7v0h-3.2V300H216.7z" fill="#808080" id="path_96" tag_name="svg/g_25/g_78/g_79/path_96"/>
      </g>
    </g>
    <g id="g_76" tag_name="svg/g_25/g_76">
      <g id="g_77" tag_name="svg/g_25/g_76/g_77">
        <path d="M224.5,302.1c0.2-0.8,0.7-1.9,0.9-2.4l0.6-0.1c-0.2,0.6-0.5,1.6-0.6,2.3L224.5,302.1z" fill="#808080" id="path_95" tag_name="svg/g_25/g_76/g_77/path_95"/>
        <path d="M229.4,306.5v-1.8h-3v-0.6l2.9-4.1h0.9v4h0.9v0.7h-0.9v1.8H229.4z M229.4,304v-2.2c0-0.3,0-0.7,0-1h0     c-0.2,0.4-0.4,0.7-0.5,1l-1.6,2.2v0H229.4z" fill="#808080" id="path_94" tag_name="svg/g_25/g_76/g_77/path_94"/>
        <path d="M231.7,304.8c0-0.8,0.5-1.4,1.3-1.7l0,0c-0.7-0.3-1-0.9-1-1.5c0-1,0.9-1.7,2-1.7c1.3,0,1.9,0.8,1.9,1.6     c0,0.5-0.3,1.1-1.1,1.5v0c0.8,0.3,1.3,0.9,1.3,1.7c0,1.1-1,1.9-2.2,1.9C232.6,306.6,231.7,305.8,231.7,304.8z M235.2,304.8     c0-0.8-0.5-1.2-1.4-1.4c-0.8,0.2-1.2,0.7-1.2,1.3c0,0.7,0.5,1.2,1.3,1.2C234.7,306,235.2,305.5,235.2,304.8z M232.8,301.6     c0,0.6,0.5,1,1.2,1.2c0.6-0.2,1-0.6,1-1.2c0-0.5-0.3-1.1-1.1-1.1C233.2,300.5,232.8,301,232.8,301.6z" fill="#808080" id="path_93" tag_name="svg/g_25/g_76/g_77/path_93"/>
      </g>
    </g>
    <g id="g_74" tag_name="svg/g_25/g_74">
      <g id="g_75" tag_name="svg/g_25/g_74/g_75">
        <path d="M242.9,302.1c0.2-0.8,0.7-1.9,0.9-2.4l0.6-0.1c-0.2,0.6-0.5,1.6-0.6,2.3L242.9,302.1z" fill="#808080" id="path_92" tag_name="svg/g_25/g_74/g_75/path_92"/>
        <path d="M247.8,306.5v-1.8h-3v-0.6l2.9-4.1h0.9v4h0.9v0.7h-0.9v1.8H247.8z M247.8,304v-2.2c0-0.3,0-0.7,0-1h0     c-0.2,0.4-0.4,0.7-0.5,1l-1.6,2.2v0H247.8z" fill="#808080" id="path_91" tag_name="svg/g_25/g_74/g_75/path_91"/>
        <path d="M250.7,305.9c0.2,0,0.4,0,0.7,0c0.5-0.1,1-0.3,1.4-0.6c0.4-0.4,0.7-1,0.9-1.7h0c-0.4,0.4-0.9,0.7-1.5,0.7     c-1.2,0-1.9-0.9-1.9-2c0-1.2,0.9-2.3,2.2-2.3c1.3,0,2.1,1.1,2.1,2.7c0,1.4-0.5,2.4-1.1,3c-0.5,0.5-1.2,0.8-1.9,0.9     c-0.3,0-0.6,0.1-0.8,0V305.9z M251,302.1c0,0.8,0.5,1.4,1.2,1.4c0.6,0,1-0.3,1.3-0.7c0-0.1,0.1-0.2,0.1-0.3c0-1.1-0.4-2-1.3-2     C251.5,300.6,251,301.2,251,302.1z" fill="#808080" id="path_90" tag_name="svg/g_25/g_74/g_75/path_90"/>
      </g>
    </g>
    <g id="g_72" tag_name="svg/g_25/g_72">
      <g id="g_73" tag_name="svg/g_25/g_72/g_73">
        <path d="M261.9,302.1c0.2-0.8,0.7-1.9,0.9-2.4l0.6-0.1c-0.2,0.6-0.5,1.6-0.6,2.3L261.9,302.1z" fill="#808080" id="path_89" tag_name="svg/g_25/g_72/g_73/path_89"/>
        <path d="M267.9,300.7h-2.5l-0.2,1.7c0.1,0,0.3,0,0.5,0c0.5,0,1,0.1,1.4,0.3c0.5,0.3,0.9,0.8,0.9,1.7     c0,1.3-1,2.2-2.4,2.2c-0.7,0-1.3-0.2-1.6-0.4l0.2-0.7c0.3,0.2,0.8,0.4,1.4,0.4c0.8,0,1.5-0.5,1.5-1.4c0-0.8-0.6-1.4-1.9-1.4     c-0.4,0-0.7,0-0.9,0.1l0.4-3.1h3.1V300.7z" fill="#808080" id="path_88" tag_name="svg/g_25/g_72/g_73/path_88"/>
        <path d="M273.5,303.2c0,2.2-0.8,3.4-2.3,3.4c-1.3,0-2.1-1.2-2.1-3.3c0-2.2,0.9-3.4,2.3-3.4     C272.7,299.9,273.5,301.1,273.5,303.2z M270,303.3c0,1.7,0.5,2.6,1.3,2.6c0.9,0,1.3-1,1.3-2.7c0-1.6-0.4-2.6-1.3-2.6     C270.5,300.6,270,301.5,270,303.3z" fill="#808080" id="path_87" tag_name="svg/g_25/g_72/g_73/path_87"/>
      </g>
    </g>
    <g id="g_70" tag_name="svg/g_25/g_70">
      <g id="g_71" tag_name="svg/g_25/g_70/g_71">
        <path d="M280.6,302.1c0.2-0.8,0.7-1.9,0.9-2.4l0.6-0.1c-0.2,0.6-0.5,1.6-0.6,2.3L280.6,302.1z" fill="#808080" id="path_86" tag_name="svg/g_25/g_70/g_71/path_86"/>
        <path d="M286.7,300.7h-2.5l-0.2,1.7c0.1,0,0.3,0,0.5,0c0.5,0,1,0.1,1.4,0.3c0.5,0.3,0.9,0.8,0.9,1.7     c0,1.3-1,2.2-2.4,2.2c-0.7,0-1.3-0.2-1.6-0.4l0.2-0.7c0.3,0.2,0.8,0.4,1.4,0.4c0.8,0,1.5-0.5,1.5-1.4c0-0.8-0.6-1.4-1.9-1.4     c-0.4,0-0.7,0-0.9,0.1l0.4-3.1h3.1V300.7z" fill="#808080" id="path_85" tag_name="svg/g_25/g_70/g_71/path_85"/>
        <path d="M289.8,300.8L289.8,300.8l-1.1,0.6l-0.2-0.7l1.4-0.8h0.7v6.5h-0.8V300.8z" fill="#808080" id="path_84" tag_name="svg/g_25/g_70/g_71/path_84"/>
      </g>
    </g>
    <g id="g_68" tag_name="svg/g_25/g_68">
      <g id="g_69" tag_name="svg/g_25/g_68/g_69">
        <path d="M299.6,302.1c0.2-0.8,0.7-1.9,0.9-2.4l0.6-0.1c-0.2,0.6-0.5,1.6-0.6,2.3L299.6,302.1z" fill="#808080" id="path_83" tag_name="svg/g_25/g_68/g_69/path_83"/>
        <path d="M305.7,300.7h-2.5l-0.2,1.7c0.1,0,0.3,0,0.5,0c0.5,0,1,0.1,1.4,0.3c0.5,0.3,0.9,0.8,0.9,1.7     c0,1.3-1,2.2-2.4,2.2c-0.7,0-1.3-0.2-1.6-0.4l0.2-0.7c0.3,0.2,0.8,0.4,1.4,0.4c0.8,0,1.5-0.5,1.5-1.4c0-0.8-0.6-1.4-1.9-1.4     c-0.4,0-0.7,0-0.9,0.1l0.4-3.1h3.1V300.7z" fill="#808080" id="path_82" tag_name="svg/g_25/g_68/g_69/path_82"/>
        <path d="M306.9,306.5V306l0.7-0.7c1.7-1.6,2.4-2.4,2.4-3.4c0-0.7-0.3-1.3-1.3-1.3c-0.6,0-1.1,0.3-1.4,0.5l-0.3-0.6     c0.4-0.4,1.1-0.7,1.8-0.7c1.4,0,2,1,2,1.9c0,1.2-0.9,2.2-2.2,3.5l-0.5,0.5v0h2.9v0.7H306.9z" fill="#808080" id="path_81" tag_name="svg/g_25/g_68/g_69/path_81"/>
      </g>
    </g>
    <g id="g_66" tag_name="svg/g_25/g_66">
      <g id="g_67" tag_name="svg/g_25/g_66/g_67">
        <path d="M318.8,302.1c0.2-0.8,0.7-1.9,0.9-2.4l0.6-0.1c-0.2,0.6-0.5,1.6-0.6,2.3L318.8,302.1z" fill="#808080" id="path_80" tag_name="svg/g_25/g_66/g_67/path_80"/>
        <path d="M324.8,300.7h-2.5l-0.2,1.7c0.1,0,0.3,0,0.5,0c0.5,0,1,0.1,1.4,0.3c0.5,0.3,0.9,0.8,0.9,1.7     c0,1.3-1,2.2-2.4,2.2c-0.7,0-1.3-0.2-1.6-0.4l0.2-0.7c0.3,0.2,0.8,0.4,1.4,0.4c0.8,0,1.5-0.5,1.5-1.4c0-0.8-0.6-1.4-1.9-1.4     c-0.4,0-0.7,0-0.9,0.1l0.4-3.1h3.1V300.7z" fill="#808080" id="path_79" tag_name="svg/g_25/g_66/g_67/path_79"/>
        <path d="M326.3,305.5c0.2,0.2,0.8,0.4,1.4,0.4c1.1,0,1.5-0.7,1.5-1.3c0-0.9-0.8-1.3-1.7-1.3H327v-0.7h0.5     c0.6,0,1.4-0.3,1.4-1.1c0-0.5-0.3-1-1.1-1c-0.5,0-1,0.2-1.3,0.4l-0.2-0.6c0.3-0.2,1-0.5,1.7-0.5c1.3,0,1.9,0.8,1.9,1.5     c0,0.7-0.4,1.2-1.2,1.5v0c0.8,0.2,1.4,0.8,1.4,1.7c0,1-0.8,1.9-2.4,1.9c-0.7,0-1.4-0.2-1.7-0.4L326.3,305.5z" fill="#808080" id="path_78" tag_name="svg/g_25/g_66/g_67/path_78"/>
      </g>
    </g>
    <g id="g_64" tag_name="svg/g_25/g_64">
      <g id="g_65" tag_name="svg/g_25/g_64/g_65">
        <path d="M337.5,302.1c0.2-0.8,0.7-1.9,0.9-2.4l0.6-0.1c-0.2,0.6-0.5,1.6-0.6,2.3L337.5,302.1z" fill="#808080" id="path_77" tag_name="svg/g_25/g_64/g_65/path_77"/>
        <path d="M343.6,300.7h-2.5l-0.2,1.7c0.1,0,0.3,0,0.5,0c0.5,0,1,0.1,1.4,0.3c0.5,0.3,0.9,0.8,0.9,1.7     c0,1.3-1,2.2-2.4,2.2c-0.7,0-1.3-0.2-1.6-0.4l0.2-0.7c0.3,0.2,0.8,0.4,1.4,0.4c0.8,0,1.5-0.5,1.5-1.4c0-0.8-0.6-1.4-1.9-1.4     c-0.4,0-0.7,0-0.9,0.1l0.4-3.1h3.1V300.7z" fill="#808080" id="path_76" tag_name="svg/g_25/g_64/g_65/path_76"/>
        <path d="M347.5,306.5v-1.8h-3v-0.6l2.9-4.1h0.9v4h0.9v0.7h-0.9v1.8H347.5z M347.5,304v-2.2c0-0.3,0-0.7,0-1h0     c-0.2,0.4-0.4,0.7-0.5,1l-1.6,2.2v0H347.5z" fill="#808080" id="path_75" tag_name="svg/g_25/g_64/g_65/path_75"/>
      </g>
    </g>
    <g id="g_62" tag_name="svg/g_25/g_62">
      <g id="g_63" tag_name="svg/g_25/g_62/g_63">
        <path d="M355.8,302.1c0.2-0.8,0.7-1.9,0.9-2.4l0.6-0.1c-0.2,0.6-0.5,1.6-0.6,2.3L355.8,302.1z" fill="#808080" id="path_74" tag_name="svg/g_25/g_62/g_63/path_74"/>
        <path d="M361.8,300.7h-2.5l-0.2,1.7c0.1,0,0.3,0,0.5,0c0.5,0,1,0.1,1.4,0.3c0.5,0.3,0.9,0.8,0.9,1.7     c0,1.3-1,2.2-2.4,2.2c-0.7,0-1.3-0.2-1.6-0.4l0.2-0.7c0.3,0.2,0.8,0.4,1.4,0.4c0.8,0,1.5-0.5,1.5-1.4c0-0.8-0.6-1.4-1.9-1.4     c-0.4,0-0.7,0-0.9,0.1l0.4-3.1h3.1V300.7z" fill="#808080" id="path_73" tag_name="svg/g_25/g_62/g_63/path_73"/>
        <path d="M366.9,300.7h-2.5l-0.2,1.7c0.1,0,0.3,0,0.5,0c0.5,0,1,0.1,1.4,0.3c0.5,0.3,0.9,0.8,0.9,1.7     c0,1.3-1,2.2-2.4,2.2c-0.7,0-1.3-0.2-1.6-0.4l0.2-0.7c0.3,0.2,0.8,0.4,1.4,0.4c0.8,0,1.5-0.5,1.5-1.4c0-0.8-0.6-1.4-1.9-1.4     c-0.4,0-0.7,0-0.9,0.1l0.4-3.1h3.1V300.7z" fill="#808080" id="path_72" tag_name="svg/g_25/g_62/g_63/path_72"/>
      </g>
    </g>
    <g id="g_60" tag_name="svg/g_25/g_60">
      <g id="g_61" tag_name="svg/g_25/g_60/g_61">
        <path d="M374.9,302.1c0.2-0.8,0.7-1.9,0.9-2.4l0.6-0.1c-0.2,0.6-0.5,1.6-0.6,2.3L374.9,302.1z" fill="#808080" id="path_71" tag_name="svg/g_25/g_60/g_61/path_71"/>
        <path d="M380.9,300.7h-2.5l-0.2,1.7c0.1,0,0.3,0,0.5,0c0.5,0,1,0.1,1.4,0.3c0.5,0.3,0.9,0.8,0.9,1.7     c0,1.3-1,2.2-2.4,2.2c-0.7,0-1.3-0.2-1.6-0.4l0.2-0.7c0.3,0.2,0.8,0.4,1.4,0.4c0.8,0,1.5-0.5,1.5-1.4c0-0.8-0.6-1.4-1.9-1.4     c-0.4,0-0.7,0-0.9,0.1l0.4-3.1h3.1V300.7z" fill="#808080" id="path_70" tag_name="svg/g_25/g_60/g_61/path_70"/>
        <path d="M385.9,300.6c-0.2,0-0.4,0-0.7,0c-1.4,0.2-2.1,1.2-2.3,2.3h0c0.3-0.4,0.8-0.7,1.6-0.7c1.1,0,2,0.8,2,2.1     c0,1.2-0.8,2.3-2.2,2.3c-1.4,0-2.3-1.1-2.3-2.8c0-1.3,0.5-2.3,1.1-2.9c0.5-0.5,1.3-0.9,2.1-1c0.3,0,0.5,0,0.6,0V300.6z      M385.6,304.4c0-0.9-0.5-1.5-1.3-1.5c-0.5,0-1,0.3-1.3,0.8c-0.1,0.1-0.1,0.2-0.1,0.4c0,1.1,0.5,1.9,1.4,1.9     C385.1,305.9,385.6,305.3,385.6,304.4z" fill="#808080" id="path_69" tag_name="svg/g_25/g_60/g_61/path_69"/>
      </g>
    </g>
    <g id="g_58" tag_name="svg/g_25/g_58">
      <g id="g_59" tag_name="svg/g_25/g_58/g_59">
        <path d="M394.6,302.1c0.2-0.8,0.7-1.9,0.9-2.4l0.6-0.1c-0.2,0.6-0.5,1.6-0.6,2.3L394.6,302.1z" fill="#808080" id="path_68" tag_name="svg/g_25/g_58/g_59/path_68"/>
        <path d="M400.7,300.7h-2.5l-0.2,1.7c0.1,0,0.3,0,0.5,0c0.5,0,1,0.1,1.4,0.3c0.5,0.3,0.9,0.8,0.9,1.7     c0,1.3-1,2.2-2.4,2.2c-0.7,0-1.3-0.2-1.6-0.4l0.2-0.7c0.3,0.2,0.8,0.4,1.4,0.4c0.8,0,1.5-0.5,1.5-1.4c0-0.8-0.6-1.4-1.9-1.4     c-0.4,0-0.7,0-0.9,0.1l0.4-3.1h3.1V300.7z" fill="#808080" id="path_67" tag_name="svg/g_25/g_58/g_59/path_67"/>
        <path d="M406.2,300v0.6l-2.8,5.9h-0.9l2.8-5.7v0h-3.2V300H406.2z" fill="#808080" id="path_66" tag_name="svg/g_25/g_58/g_59/path_66"/>
      </g>
    </g>
    <g id="g_56" tag_name="svg/g_25/g_56">
      <g id="g_57" tag_name="svg/g_25/g_56/g_57">
        <path d="M413,302.1c0.2-0.8,0.7-1.9,0.9-2.4l0.6-0.1c-0.2,0.6-0.5,1.6-0.6,2.3L413,302.1z" fill="#808080" id="path_65" tag_name="svg/g_25/g_56/g_57/path_65"/>
        <path d="M419.1,300.7h-2.5l-0.2,1.7c0.1,0,0.3,0,0.5,0c0.5,0,1,0.1,1.4,0.3c0.5,0.3,0.9,0.8,0.9,1.7     c0,1.3-1,2.2-2.4,2.2c-0.7,0-1.3-0.2-1.6-0.4l0.2-0.7c0.3,0.2,0.8,0.4,1.4,0.4c0.8,0,1.5-0.5,1.5-1.4c0-0.8-0.6-1.4-1.9-1.4     c-0.4,0-0.7,0-0.9,0.1l0.4-3.1h3.1V300.7z" fill="#808080" id="path_64" tag_name="svg/g_25/g_56/g_57/path_64"/>
        <path d="M420.2,304.8c0-0.8,0.5-1.4,1.3-1.7l0,0c-0.7-0.3-1-0.9-1-1.5c0-1,0.9-1.7,2-1.7c1.3,0,1.9,0.8,1.9,1.6     c0,0.5-0.3,1.1-1.1,1.5v0c0.8,0.3,1.3,0.9,1.3,1.7c0,1.1-1,1.9-2.2,1.9C421.1,306.6,420.2,305.8,420.2,304.8z M423.7,304.8     c0-0.8-0.5-1.2-1.4-1.4c-0.8,0.2-1.2,0.7-1.2,1.3c0,0.7,0.5,1.2,1.3,1.2C423.2,306,423.7,305.5,423.7,304.8z M421.3,301.6     c0,0.6,0.5,1,1.2,1.2c0.6-0.2,1-0.6,1-1.2c0-0.5-0.3-1.1-1.1-1.1C421.7,300.5,421.3,301,421.3,301.6z" fill="#808080" id="path_63" tag_name="svg/g_25/g_56/g_57/path_63"/>
      </g>
    </g>
    <g id="g_54" tag_name="svg/g_25/g_54">
      <g id="g_55" tag_name="svg/g_25/g_54/g_55">
        <path d="M432.1,302.1c0.2-0.8,0.7-1.9,0.9-2.4l0.6-0.1c-0.2,0.6-0.5,1.6-0.6,2.3L432.1,302.1z" fill="#808080" id="path_62" tag_name="svg/g_25/g_54/g_55/path_62"/>
        <path d="M438.2,300.7h-2.5l-0.2,1.7c0.1,0,0.3,0,0.5,0c0.5,0,1,0.1,1.4,0.3c0.5,0.3,0.9,0.8,0.9,1.7     c0,1.3-1,2.2-2.4,2.2c-0.7,0-1.3-0.2-1.6-0.4l0.2-0.7c0.3,0.2,0.8,0.4,1.4,0.4c0.8,0,1.5-0.5,1.5-1.4c0-0.8-0.6-1.4-1.9-1.4     c-0.4,0-0.7,0-0.9,0.1l0.4-3.1h3.1V300.7z" fill="#808080" id="path_61" tag_name="svg/g_25/g_54/g_55/path_61"/>
        <path d="M439.9,305.9c0.2,0,0.4,0,0.7,0c0.5-0.1,1-0.3,1.4-0.6c0.4-0.4,0.7-1,0.9-1.7h0c-0.4,0.4-0.9,0.7-1.5,0.7     c-1.2,0-1.9-0.9-1.9-2c0-1.2,0.9-2.3,2.2-2.3c1.3,0,2.1,1.1,2.1,2.7c0,1.4-0.5,2.4-1.1,3c-0.5,0.5-1.2,0.8-1.9,0.9     c-0.3,0-0.6,0.1-0.8,0V305.9z M440.3,302.1c0,0.8,0.5,1.4,1.2,1.4c0.6,0,1-0.3,1.3-0.7c0-0.1,0.1-0.2,0.1-0.3c0-1.1-0.4-2-1.3-2     C440.8,300.6,440.3,301.2,440.3,302.1z" fill="#808080" id="path_60" tag_name="svg/g_25/g_54/g_55/path_60"/>
      </g>
    </g>
    <g id="g_52" tag_name="svg/g_25/g_52">
      <g id="g_53" tag_name="svg/g_25/g_52/g_53">
        <path d="M451.1,302.1c0.2-0.8,0.7-1.9,0.9-2.4l0.6-0.1c-0.2,0.6-0.5,1.6-0.6,2.3L451.1,302.1z" fill="#808080" id="path_59" tag_name="svg/g_25/g_52/g_53/path_59"/>
        <path d="M457,300.6c-0.2,0-0.4,0-0.7,0c-1.4,0.2-2.1,1.2-2.3,2.3h0c0.3-0.4,0.8-0.7,1.6-0.7c1.1,0,2,0.8,2,2.1     c0,1.2-0.8,2.3-2.2,2.3c-1.4,0-2.3-1.1-2.3-2.8c0-1.3,0.5-2.3,1.1-2.9c0.5-0.5,1.3-0.9,2.1-1c0.3,0,0.5,0,0.6,0V300.6z      M456.8,304.4c0-0.9-0.5-1.5-1.3-1.5c-0.5,0-1,0.3-1.3,0.8c-0.1,0.1-0.1,0.2-0.1,0.4c0,1.1,0.5,1.9,1.4,1.9     C456.3,305.9,456.8,305.3,456.8,304.4z" fill="#808080" id="path_58" tag_name="svg/g_25/g_52/g_53/path_58"/>
        <path d="M462.8,303.2c0,2.2-0.8,3.4-2.3,3.4c-1.3,0-2.1-1.2-2.1-3.3c0-2.2,0.9-3.4,2.3-3.4     C462,299.9,462.8,301.1,462.8,303.2z M459.2,303.3c0,1.7,0.5,2.6,1.3,2.6c0.9,0,1.3-1,1.3-2.7c0-1.6-0.4-2.6-1.3-2.6     C459.8,300.6,459.2,301.5,459.2,303.3z" fill="#808080" id="path_57" tag_name="svg/g_25/g_52/g_53/path_57"/>
      </g>
    </g>
    <g id="g_50" tag_name="svg/g_25/g_50">
      <g id="g_51" tag_name="svg/g_25/g_50/g_51">
        <path d="M469.8,302.1c0.2-0.8,0.7-1.9,0.9-2.4l0.6-0.1c-0.2,0.6-0.5,1.6-0.6,2.3L469.8,302.1z" fill="#808080" id="path_56" tag_name="svg/g_25/g_50/g_51/path_56"/>
        <path d="M475.6,300.6c-0.2,0-0.4,0-0.7,0c-1.4,0.2-2.1,1.2-2.3,2.3h0c0.3-0.4,0.8-0.7,1.6-0.7c1.1,0,2,0.8,2,2.1     c0,1.2-0.8,2.3-2.2,2.3c-1.4,0-2.3-1.1-2.3-2.8c0-1.3,0.5-2.3,1.1-2.9c0.5-0.5,1.3-0.9,2.1-1c0.3,0,0.5,0,0.6,0V300.6z      M475.4,304.4c0-0.9-0.5-1.5-1.3-1.5c-0.5,0-1,0.3-1.3,0.8c-0.1,0.1-0.1,0.2-0.1,0.4c0,1.1,0.5,1.9,1.4,1.9     C474.9,305.9,475.4,305.3,475.4,304.4z" fill="#808080" id="path_55" tag_name="svg/g_25/g_50/g_51/path_55"/>
        <path d="M479,300.8L479,300.8l-1.1,0.6l-0.2-0.7l1.4-0.8h0.8v6.5H479V300.8z" fill="#808080" id="path_54" tag_name="svg/g_25/g_50/g_51/path_54"/>
      </g>
    </g>
    <g id="g_48" tag_name="svg/g_25/g_48">
      <g id="g_49" tag_name="svg/g_25/g_48/g_49">
        <path d="M489.1,302.1c0.2-0.8,0.7-1.9,0.9-2.4l0.6-0.1c-0.2,0.6-0.5,1.6-0.6,2.3L489.1,302.1z" fill="#808080" id="path_53" tag_name="svg/g_25/g_48/g_49/path_53"/>
        <path d="M495,300.6c-0.2,0-0.4,0-0.7,0c-1.4,0.2-2.1,1.2-2.3,2.3h0c0.3-0.4,0.8-0.7,1.6-0.7c1.1,0,2,0.8,2,2.1     c0,1.2-0.8,2.3-2.2,2.3c-1.4,0-2.3-1.1-2.3-2.8c0-1.3,0.5-2.3,1.1-2.9c0.5-0.5,1.3-0.9,2.1-1c0.3,0,0.5,0,0.6,0V300.6z      M494.8,304.4c0-0.9-0.5-1.5-1.3-1.5c-0.5,0-1,0.3-1.3,0.8c-0.1,0.1-0.1,0.2-0.1,0.4c0,1.1,0.5,1.9,1.4,1.9     C494.3,305.9,494.8,305.3,494.8,304.4z" fill="#808080" id="path_52" tag_name="svg/g_25/g_48/g_49/path_52"/>
        <path d="M496.4,306.5V306l0.7-0.7c1.7-1.6,2.4-2.4,2.4-3.4c0-0.7-0.3-1.3-1.3-1.3c-0.6,0-1.1,0.3-1.4,0.5l-0.3-0.6     c0.5-0.4,1.1-0.7,1.8-0.7c1.4,0,2,1,2,1.9c0,1.2-0.9,2.2-2.2,3.5l-0.5,0.5v0h2.9v0.7H496.4z" fill="#808080" id="path_51" tag_name="svg/g_25/g_48/g_49/path_51"/>
      </g>
    </g>
    <g id="g_46" tag_name="svg/g_25/g_46">
      <g id="g_47" tag_name="svg/g_25/g_46/g_47">
        <path d="M508,302.1c0.2-0.8,0.7-1.9,0.9-2.4l0.6-0.1c-0.2,0.6-0.5,1.6-0.6,2.3L508,302.1z" fill="#808080" id="path_50" tag_name="svg/g_25/g_46/g_47/path_50"/>
        <path d="M513.9,300.6c-0.2,0-0.4,0-0.7,0c-1.4,0.2-2.1,1.2-2.3,2.3h0c0.3-0.4,0.8-0.7,1.6-0.7c1.1,0,2,0.8,2,2.1     c0,1.2-0.8,2.3-2.2,2.3c-1.4,0-2.3-1.1-2.3-2.8c0-1.3,0.5-2.3,1.1-2.9c0.5-0.5,1.3-0.9,2.1-1c0.3,0,0.5,0,0.6,0V300.6z      M513.6,304.4c0-0.9-0.5-1.5-1.3-1.5c-0.5,0-1,0.3-1.3,0.8c-0.1,0.1-0.1,0.2-0.1,0.4c0,1.1,0.5,1.9,1.4,1.9     C513.1,305.9,513.6,305.3,513.6,304.4z" fill="#808080" id="path_49" tag_name="svg/g_25/g_46/g_47/path_49"/>
        <path d="M515.5,305.5c0.2,0.2,0.8,0.4,1.4,0.4c1.1,0,1.5-0.7,1.5-1.3c0-0.9-0.8-1.3-1.7-1.3h-0.5v-0.7h0.5     c0.6,0,1.4-0.3,1.4-1.1c0-0.5-0.3-1-1.1-1c-0.5,0-1,0.2-1.3,0.4l-0.2-0.6c0.3-0.2,1-0.5,1.7-0.5c1.3,0,1.9,0.8,1.9,1.5     c0,0.7-0.4,1.2-1.2,1.5v0c0.8,0.2,1.4,0.8,1.4,1.7c0,1-0.8,1.9-2.4,1.9c-0.7,0-1.4-0.2-1.7-0.4L515.5,305.5z" fill="#808080" id="path_48" tag_name="svg/g_25/g_46/g_47/path_48"/>
      </g>
    </g>
    <g id="g_44" tag_name="svg/g_25/g_44">
      <g id="g_45" tag_name="svg/g_25/g_44/g_45">
        <path d="M526.1,302.1c0.2-0.8,0.7-1.9,0.9-2.4l0.6-0.1c-0.2,0.6-0.5,1.6-0.6,2.3L526.1,302.1z" fill="#808080" id="path_47" tag_name="svg/g_25/g_44/g_45/path_47"/>
        <path d="M532,300.6c-0.2,0-0.4,0-0.7,0c-1.4,0.2-2.1,1.2-2.3,2.3h0c0.3-0.4,0.8-0.7,1.6-0.7c1.1,0,2,0.8,2,2.1     c0,1.2-0.8,2.3-2.2,2.3c-1.4,0-2.3-1.1-2.3-2.8c0-1.3,0.5-2.3,1.1-2.9c0.5-0.5,1.3-0.9,2.1-1c0.3,0,0.5,0,0.6,0V300.6z      M531.8,304.4c0-0.9-0.5-1.5-1.3-1.5c-0.5,0-1,0.3-1.3,0.8c-0.1,0.1-0.1,0.2-0.1,0.4c0,1.1,0.5,1.9,1.4,1.9     C531.3,305.9,531.8,305.3,531.8,304.4z" fill="#808080" id="path_46" tag_name="svg/g_25/g_44/g_45/path_46"/>
        <path d="M536.2,306.5v-1.8h-3v-0.6l2.9-4.1h0.9v4h0.9v0.7H537v1.8H536.2z M536.2,304v-2.2c0-0.3,0-0.7,0-1h0     c-0.2,0.4-0.4,0.7-0.5,1L534,304v0H536.2z" fill="#808080" id="path_45" tag_name="svg/g_25/g_44/g_45/path_45"/>
      </g>
    </g>
    <g id="g_42" tag_name="svg/g_25/g_42">
      <g id="g_43" tag_name="svg/g_25/g_42/g_43">
        <path d="M545.4,302.1c0.2-0.8,0.7-1.9,0.9-2.4l0.6-0.1c-0.2,0.6-0.5,1.6-0.6,2.3L545.4,302.1z" fill="#808080" id="path_44" tag_name="svg/g_25/g_42/g_43/path_44"/>
        <path d="M551.3,300.6c-0.2,0-0.4,0-0.7,0c-1.4,0.2-2.1,1.2-2.3,2.3h0c0.3-0.4,0.8-0.7,1.6-0.7c1.1,0,2,0.8,2,2.1     c0,1.2-0.8,2.3-2.2,2.3c-1.4,0-2.3-1.1-2.3-2.8c0-1.3,0.5-2.3,1.1-2.9c0.5-0.5,1.3-0.9,2.1-1c0.3,0,0.5,0,0.6,0V300.6z      M551,304.4c0-0.9-0.5-1.5-1.3-1.5c-0.5,0-1,0.3-1.3,0.8c-0.1,0.1-0.1,0.2-0.1,0.4c0,1.1,0.5,1.9,1.4,1.9     C550.5,305.9,551,305.3,551,304.4z" fill="#808080" id="path_43" tag_name="svg/g_25/g_42/g_43/path_43"/>
        <path d="M556.6,300.7h-2.5l-0.2,1.7c0.2,0,0.3,0,0.5,0c0.5,0,1,0.1,1.4,0.3c0.5,0.3,0.9,0.8,0.9,1.7     c0,1.3-1,2.2-2.4,2.2c-0.7,0-1.3-0.2-1.6-0.4l0.2-0.7c0.3,0.2,0.8,0.4,1.4,0.4c0.8,0,1.5-0.5,1.5-1.4c0-0.8-0.6-1.4-1.9-1.4     c-0.4,0-0.7,0-0.9,0.1l0.4-3.1h3.1V300.7z" fill="#808080" id="path_42" tag_name="svg/g_25/g_42/g_43/path_42"/>
      </g>
    </g>
    <g id="g_40" tag_name="svg/g_25/g_40">
      <g id="g_41" tag_name="svg/g_25/g_40/g_41">
        <path d="M564.6,302.1c0.2-0.8,0.7-1.9,0.9-2.4l0.6-0.1c-0.2,0.6-0.5,1.6-0.6,2.3L564.6,302.1z" fill="#808080" id="path_41" tag_name="svg/g_25/g_40/g_41/path_41"/>
        <path d="M570.4,300.6c-0.2,0-0.4,0-0.7,0c-1.4,0.2-2.1,1.2-2.3,2.3h0c0.3-0.4,0.8-0.7,1.6-0.7c1.1,0,2,0.8,2,2.1     c0,1.2-0.8,2.3-2.2,2.3c-1.4,0-2.3-1.1-2.3-2.8c0-1.3,0.5-2.3,1.1-2.9c0.5-0.5,1.3-0.9,2.1-1c0.3,0,0.5,0,0.6,0V300.6z      M570.2,304.4c0-0.9-0.5-1.5-1.3-1.5c-0.5,0-1,0.3-1.3,0.8c-0.1,0.1-0.1,0.2-0.1,0.4c0,1.1,0.5,1.9,1.4,1.9     C569.7,305.9,570.2,305.3,570.2,304.4z" fill="#808080" id="path_40" tag_name="svg/g_25/g_40/g_41/path_40"/>
        <path d="M575.6,300.6c-0.2,0-0.4,0-0.7,0c-1.4,0.2-2.1,1.2-2.3,2.3h0c0.3-0.4,0.8-0.7,1.6-0.7c1.1,0,2,0.8,2,2.1     c0,1.2-0.8,2.3-2.2,2.3c-1.4,0-2.3-1.1-2.3-2.8c0-1.3,0.5-2.3,1.1-2.9c0.5-0.5,1.3-0.9,2.1-1c0.3,0,0.5,0,0.6,0V300.6z      M575.3,304.4c0-0.9-0.5-1.5-1.3-1.5c-0.5,0-1,0.3-1.3,0.8c-0.1,0.1-0.1,0.2-0.1,0.4c0,1.1,0.5,1.9,1.4,1.9     C574.8,305.9,575.3,305.3,575.3,304.4z" fill="#808080" id="path_39" tag_name="svg/g_25/g_40/g_41/path_39"/>
      </g>
    </g>
    <g id="g_38" tag_name="svg/g_25/g_38">
      <g id="g_39" tag_name="svg/g_25/g_38/g_39">
        <path d="M582.9,302.1c0.2-0.8,0.7-1.9,0.9-2.4l0.6-0.1c-0.2,0.6-0.5,1.6-0.6,2.3L582.9,302.1z" fill="#808080" id="path_38" tag_name="svg/g_25/g_38/g_39/path_38"/>
        <path d="M588.8,300.6c-0.2,0-0.4,0-0.7,0c-1.4,0.2-2.1,1.2-2.3,2.3h0c0.3-0.4,0.8-0.7,1.6-0.7c1.1,0,2,0.8,2,2.1     c0,1.2-0.8,2.3-2.2,2.3c-1.4,0-2.3-1.1-2.3-2.8c0-1.3,0.5-2.3,1.1-2.9c0.5-0.5,1.3-0.9,2.1-1c0.3,0,0.5,0,0.6,0V300.6z      M588.5,304.4c0-0.9-0.5-1.5-1.3-1.5c-0.5,0-1,0.3-1.3,0.8c-0.1,0.1-0.1,0.2-0.1,0.4c0,1.1,0.5,1.9,1.4,1.9     C588,305.9,588.5,305.3,588.5,304.4z" fill="#808080" id="path_37" tag_name="svg/g_25/g_38/g_39/path_37"/>
        <path d="M594.4,300v0.6l-2.8,5.9h-0.9l2.8-5.7v0h-3.2V300H594.4z" fill="#808080" id="path_36" tag_name="svg/g_25/g_38/g_39/path_36"/>
      </g>
    </g>
    <g id="g_36" tag_name="svg/g_25/g_36">
      <g id="g_37" tag_name="svg/g_25/g_36/g_37">
        <path d="M602.5,302.1c0.2-0.8,0.7-1.9,0.9-2.4l0.6-0.1c-0.2,0.6-0.5,1.6-0.6,2.3L602.5,302.1z" fill="#808080" id="path_35" tag_name="svg/g_25/g_36/g_37/path_35"/>
        <path d="M608.3,300.6c-0.2,0-0.4,0-0.7,0c-1.4,0.2-2.1,1.2-2.3,2.3h0c0.3-0.4,0.8-0.7,1.6-0.7c1.1,0,2,0.8,2,2.1     c0,1.2-0.8,2.3-2.2,2.3c-1.4,0-2.3-1.1-2.3-2.8c0-1.3,0.5-2.3,1.1-2.9c0.5-0.5,1.3-0.9,2.1-1c0.3,0,0.5,0,0.6,0V300.6z      M608.1,304.4c0-0.9-0.5-1.5-1.3-1.5c-0.5,0-1,0.3-1.3,0.8c-0.1,0.1-0.1,0.2-0.1,0.4c0,1.1,0.5,1.9,1.4,1.9     C607.6,305.9,608.1,305.3,608.1,304.4z" fill="#808080" id="path_34" tag_name="svg/g_25/g_36/g_37/path_34"/>
        <path d="M609.7,304.8c0-0.8,0.5-1.4,1.3-1.7l0,0c-0.7-0.3-1-0.9-1-1.5c0-1,0.9-1.7,2-1.7c1.3,0,1.9,0.8,1.9,1.6     c0,0.5-0.3,1.1-1.1,1.5v0c0.8,0.3,1.3,0.9,1.3,1.7c0,1.1-1,1.9-2.2,1.9C610.5,306.6,609.7,305.8,609.7,304.8z M613.2,304.8     c0-0.8-0.5-1.2-1.4-1.4c-0.8,0.2-1.2,0.7-1.2,1.3c0,0.7,0.5,1.2,1.3,1.2C612.7,306,613.2,305.5,613.2,304.8z M610.8,301.6     c0,0.6,0.5,1,1.2,1.2c0.6-0.2,1-0.6,1-1.2c0-0.5-0.3-1.1-1.1-1.1C611.2,300.5,610.8,301,610.8,301.6z" fill="#808080" id="path_33" tag_name="svg/g_25/g_36/g_37/path_33"/>
      </g>
    </g>
    <g id="g_34" tag_name="svg/g_25/g_34">
      <g id="g_35" tag_name="svg/g_25/g_34/g_35">
        <path d="M621.1,302.1c0.2-0.8,0.7-1.9,0.9-2.4l0.6-0.1c-0.2,0.6-0.5,1.6-0.6,2.3L621.1,302.1z" fill="#808080" id="path_32" tag_name="svg/g_25/g_34/g_35/path_32"/>
        <path d="M626.9,300.6c-0.2,0-0.4,0-0.7,0c-1.4,0.2-2.1,1.2-2.3,2.3h0c0.3-0.4,0.8-0.7,1.6-0.7c1.1,0,2,0.8,2,2.1     c0,1.2-0.8,2.3-2.2,2.3c-1.4,0-2.3-1.1-2.3-2.8c0-1.3,0.5-2.3,1.1-2.9c0.5-0.5,1.3-0.9,2.1-1c0.3,0,0.5,0,0.6,0V300.6z      M626.7,304.4c0-0.9-0.5-1.5-1.3-1.5c-0.5,0-1,0.3-1.3,0.8c-0.1,0.1-0.1,0.2-0.1,0.4c0,1.1,0.5,1.9,1.4,1.9     C626.2,305.9,626.7,305.3,626.7,304.4z" fill="#808080" id="path_31" tag_name="svg/g_25/g_34/g_35/path_31"/>
        <path d="M628.9,305.9c0.2,0,0.4,0,0.7,0c0.5-0.1,1-0.3,1.4-0.6c0.4-0.4,0.7-1,0.9-1.7h0c-0.4,0.4-0.9,0.7-1.5,0.7     c-1.2,0-1.9-0.9-1.9-2c0-1.2,0.9-2.3,2.2-2.3c1.3,0,2.1,1.1,2.1,2.7c0,1.4-0.5,2.4-1.1,3c-0.5,0.5-1.2,0.8-1.9,0.9     c-0.3,0-0.6,0.1-0.8,0V305.9z M629.2,302.1c0,0.8,0.5,1.4,1.2,1.4c0.6,0,1-0.3,1.3-0.7c0-0.1,0.1-0.2,0.1-0.3c0-1.1-0.4-2-1.3-2     C629.7,300.6,629.2,301.2,629.2,302.1z" fill="#808080" id="path_30" tag_name="svg/g_25/g_34/g_35/path_30"/>
      </g>
    </g>
    <g id="g_32" tag_name="svg/g_25/g_32">
      <g id="g_33" tag_name="svg/g_25/g_32/g_33">
        <path d="M640.1,302.1c0.2-0.8,0.7-1.9,0.9-2.4l0.6-0.1c-0.2,0.6-0.5,1.6-0.6,2.3L640.1,302.1z" fill="#808080" id="path_29" tag_name="svg/g_25/g_32/g_33/path_29"/>
        <path d="M646.4,300v0.6l-2.8,5.9h-0.9l2.8-5.7v0h-3.2V300H646.4z" fill="#808080" id="path_28" tag_name="svg/g_25/g_32/g_33/path_28"/>
        <path d="M651.7,303.2c0,2.2-0.8,3.4-2.3,3.4c-1.3,0-2.1-1.2-2.1-3.3c0-2.2,0.9-3.4,2.3-3.4     C650.9,299.9,651.7,301.1,651.7,303.2z M648.1,303.3c0,1.7,0.5,2.6,1.3,2.6c0.9,0,1.3-1,1.3-2.7c0-1.6-0.4-2.6-1.3-2.6     C648.7,300.6,648.1,301.5,648.1,303.3z" fill="#808080" id="path_27" tag_name="svg/g_25/g_32/g_33/path_27"/>
      </g>
    </g>
    <g id="g_30" tag_name="svg/g_25/g_30">
      <g id="g_31" tag_name="svg/g_25/g_30/g_31">
        <path d="M658.8,302.1c0.2-0.8,0.7-1.9,0.9-2.4l0.6-0.1c-0.2,0.6-0.5,1.6-0.6,2.3L658.8,302.1z" fill="#808080" id="path_26" tag_name="svg/g_25/g_30/g_31/path_26"/>
        <path d="M665.2,300v0.6l-2.8,5.9h-0.9l2.8-5.7v0h-3.2V300H665.2z" fill="#808080" id="path_25" tag_name="svg/g_25/g_30/g_31/path_25"/>
        <path d="M668,300.8L668,300.8l-1.1,0.6l-0.2-0.7l1.4-0.8h0.8v6.5H668V300.8z" fill="#808080" id="path_24" tag_name="svg/g_25/g_30/g_31/path_24"/>
      </g>
    </g>
    <g id="g_28" tag_name="svg/g_25/g_28">
      <g id="g_29" tag_name="svg/g_25/g_28/g_29">
        <path d="M678.3,302.1c0.2-0.8,0.7-1.9,0.9-2.4l0.6-0.1c-0.2,0.6-0.5,1.6-0.6,2.3L678.3,302.1z" fill="#808080" id="path_23" tag_name="svg/g_25/g_28/g_29/path_23"/>
        <path d="M684.7,300v0.6l-2.8,5.9H681l2.8-5.7v0h-3.2V300H684.7z" fill="#808080" id="path_22" tag_name="svg/g_25/g_28/g_29/path_22"/>
        <path d="M685.6,306.5V306l0.7-0.7c1.7-1.6,2.4-2.4,2.4-3.4c0-0.7-0.3-1.3-1.3-1.3c-0.6,0-1.1,0.3-1.4,0.5l-0.3-0.6     c0.5-0.4,1.1-0.7,1.8-0.7c1.4,0,2,1,2,1.9c0,1.2-0.9,2.2-2.2,3.5l-0.5,0.5v0h2.9v0.7H685.6z" fill="#808080" id="path_21" tag_name="svg/g_25/g_28/g_29/path_21"/>
      </g>
    </g>
    <g id="g_26" tag_name="svg/g_25/g_26">
      <g id="g_27" tag_name="svg/g_25/g_26/g_27">
        <path d="M696.3,302.1c0.2-0.8,0.7-1.9,0.9-2.4l0.6-0.1c-0.2,0.6-0.5,1.6-0.6,2.3L696.3,302.1z" fill="#808080" id="path_20" tag_name="svg/g_25/g_26/g_27/path_20"/>
        <path d="M702.7,300v0.6l-2.8,5.9H699l2.8-5.7v0h-3.2V300H702.7z" fill="#808080" id="path_19" tag_name="svg/g_25/g_26/g_27/path_19"/>
        <path d="M703.8,305.5c0.2,0.2,0.8,0.4,1.4,0.4c1.1,0,1.5-0.7,1.5-1.3c0-0.9-0.8-1.3-1.7-1.3h-0.5v-0.7h0.5     c0.6,0,1.4-0.3,1.4-1.1c0-0.5-0.3-1-1.1-1c-0.5,0-1,0.2-1.3,0.4l-0.2-0.6c0.3-0.2,1-0.5,1.7-0.5c1.3,0,1.9,0.8,1.9,1.5     c0,0.7-0.4,1.2-1.2,1.5v0c0.8,0.2,1.4,0.8,1.4,1.7c0,1-0.8,1.9-2.4,1.9c-0.7,0-1.4-0.2-1.7-0.4L703.8,305.5z" fill="#808080" id="path_18" tag_name="svg/g_25/g_26/g_27/path_18"/>
      </g>
    </g>
  </g>
  <g id="g_24" tag_name="svg/g_24">
    <polygon points="41.5,290.2 703.5,290.2 703.5,110 684.2,100 664.8,140 646,90 627.5,140 608,50          589.2,40 570.2,30 552.2,45 532.8,30 513.8,80 494.8,70 475.8,150 457.2,110 438,180 418.5,130 400.2,170          381,160 362.5,200 343.8,210 324.8,200 305.8,220 286.8,180 267.5,200 248.5,200 230.2,210 211,200 192.5,230          173.2,220 154.5,240 135.5,230 116.2,220 97.5,240 78.8,230 60,240 41.5,250 " opacity="0.6" fill="#0c63fa" id="polygon_1" tag_name="svg/g_24/polygon_1"/>
    <polygon points="41.5,290.2 703.5,290.2 703.5,133.5 684.2,118.2 664.8,170.2 646,149.4 627.5,170.2 608,94.4    589.2,86.3 570.2,64.3 552.2,71.8 532.8,64 513.8,117 494.8,95.4 475.8,169.7 457.2,135.3 438,215.4 418.5,156.7 400.2,187    381,172 362.5,213.4 343.8,221.2 324.8,217.9 305.8,232.2 286.8,195.1 267.5,217.4 248.5,213.4 230.2,221.4 211,218.2 192.5,248.1    173.2,237.5 154.5,259.4 135.5,243.8 116.2,240.5 97.5,259.9 78.8,252.1 60,255.3 41.5,262.9  " opacity="1" fill="#ea494e" id="polygon" tag_name="svg/g_24/polygon"/>
  </g>
  <g id="g" tag_name="svg/g">
    <g id="g_22" tag_name="svg/g/g_22">
      <g id="g_23" tag_name="svg/g/g_22/g_23">
        <polyline points="78.9,251.2 60.4,254.7 42.5,262.2    " fill="none" stroke="#ea494e" stroke-width="3" stroke-linecap="round" stroke-linejoin="round" id="polyline" tag_name="svg/g/g_22/g_23/polyline"/>
        <line x1="97.8" y1="258.9" x2="78.9" y2="251.2" fill="none" stroke="#ea494e" stroke-width="3" stroke-linecap="round" stroke-linejoin="round" id="line_75" tag_name="svg/g/g_22/g_23/line_75"/>
        <line x1="116.7" y1="239.8" x2="97.8" y2="258.9" fill="none" stroke="#ea494e" stroke-width="3" stroke-linecap="round" stroke-linejoin="round" id="line_74" tag_name="svg/g/g_22/g_23/line_74"/>
        <line x1="135.6" y1="243.6" x2="116.7" y2="239.8" fill="none" stroke="#ea494e" stroke-width="3" stroke-linecap="round" stroke-linejoin="round" id="line_73" tag_name="svg/g/g_22/g_23/line_73"/>
        <line x1="154.5" y1="258.9" x2="135.6" y2="243.6" fill="none" stroke="#ea494e" stroke-width="3" stroke-linecap="round" stroke-linejoin="round" id="line_72" tag_name="svg/g/g_22/g_23/line_72"/>
        <line x1="173.4" y1="236" x2="154.5" y2="258.9" fill="none" stroke="#ea494e" stroke-width="3" stroke-linecap="round" stroke-linejoin="round" id="line_71" tag_name="svg/g/g_22/g_23/line_71"/>
        <line x1="192.3" y1="247.4" x2="173.4" y2="236" fill="none" stroke="#ea494e" stroke-width="3" stroke-linecap="round" stroke-linejoin="round" id="line_70" tag_name="svg/g/g_22/g_23/line_70"/>
        <line x1="211.3" y1="216.9" x2="192.3" y2="247.4" fill="none" stroke="#ea494e" stroke-width="3" stroke-linecap="round" stroke-linejoin="round" id="line_69" tag_name="svg/g/g_22/g_23/line_69"/>
        <line x1="230.2" y1="220.7" x2="211.3" y2="216.9" fill="none" stroke="#ea494e" stroke-width="3" stroke-linecap="round" stroke-linejoin="round" id="line_68" tag_name="svg/g/g_22/g_23/line_68"/>
        <line x1="249.1" y1="213" x2="230.2" y2="220.7" fill="none" stroke="#ea494e" stroke-width="3" stroke-linecap="round" stroke-linejoin="round" id="line_67" tag_name="svg/g/g_22/g_23/line_67"/>
        <line x1="268" y1="216.9" x2="249.1" y2="213" fill="none" stroke="#ea494e" stroke-width="3" stroke-linecap="round" stroke-linejoin="round" id="line_66" tag_name="svg/g/g_22/g_23/line_66"/>
        <line x1="286.9" y1="193.9" x2="268" y2="216.9" fill="none" stroke="#ea494e" stroke-width="3" stroke-linecap="round" stroke-linejoin="round" id="line_65" tag_name="svg/g/g_22/g_23/line_65"/>
        <line x1="305.8" y1="232.1" x2="286.9" y2="193.9" fill="none" stroke="#ea494e" stroke-width="3" stroke-linecap="round" stroke-linejoin="round" id="line_64" tag_name="svg/g/g_22/g_23/line_64"/>
        <line x1="324.7" y1="216.9" x2="305.8" y2="232.1" fill="none" stroke="#ea494e" stroke-width="3" stroke-linecap="round" stroke-linejoin="round" id="line_63" tag_name="svg/g/g_22/g_23/line_63"/>
        <line x1="343.7" y1="220.7" x2="324.7" y2="216.9" fill="none" stroke="#ea494e" stroke-width="3" stroke-linecap="round" stroke-linejoin="round" id="line_62" tag_name="svg/g/g_22/g_23/line_62"/>
        <line x1="362.6" y1="213" x2="343.7" y2="220.7" fill="none" stroke="#ea494e" stroke-width="3" stroke-linecap="round" stroke-linejoin="round" id="line_61" tag_name="svg/g/g_22/g_23/line_61"/>
        <line x1="381.5" y1="171" x2="362.6" y2="213" fill="none" stroke="#ea494e" stroke-width="3" stroke-linecap="round" stroke-linejoin="round" id="line_60" tag_name="svg/g/g_22/g_23/line_60"/>
        <line x1="400.4" y1="186.3" x2="381.5" y2="171" fill="none" stroke="#ea494e" stroke-width="3" stroke-linecap="round" stroke-linejoin="round" id="line_59" tag_name="svg/g/g_22/g_23/line_59"/>
        <line x1="419.3" y1="155.7" x2="400.4" y2="186.3" fill="none" stroke="#ea494e" stroke-width="3" stroke-linecap="round" stroke-linejoin="round" id="line_58" tag_name="svg/g/g_22/g_23/line_58"/>
        <line x1="438.2" y1="216.9" x2="419.3" y2="155.7" fill="none" stroke="#ea494e" stroke-width="3" stroke-linecap="round" stroke-linejoin="round" id="line_57" tag_name="svg/g/g_22/g_23/line_57"/>
        <line x1="457.1" y1="132.8" x2="438.2" y2="216.9" fill="none" stroke="#ea494e" stroke-width="3" stroke-linecap="round" stroke-linejoin="round" id="line_56" tag_name="svg/g/g_22/g_23/line_56"/>
        <line x1="476" y1="171" x2="457.1" y2="132.8" fill="none" stroke="#ea494e" stroke-width="3" stroke-linecap="round" stroke-linejoin="round" id="line_55" tag_name="svg/g/g_22/g_23/line_55"/>
        <line x1="495" y1="94.6" x2="476" y2="171" fill="none" stroke="#ea494e" stroke-width="3" stroke-linecap="round" stroke-linejoin="round" id="line_54" tag_name="svg/g/g_22/g_23/line_54"/>
        <line x1="513.9" y1="117.5" x2="495" y2="94.6" fill="none" stroke="#ea494e" stroke-width="3" stroke-linecap="round" stroke-linejoin="round" id="line_53" tag_name="svg/g/g_22/g_23/line_53"/>
        <line x1="532.8" y1="64.1" x2="513.9" y2="117.5" fill="none" stroke="#ea494e" stroke-width="3" stroke-linecap="round" stroke-linejoin="round" id="line_52" tag_name="svg/g/g_22/g_23/line_52"/>
        <line x1="551.7" y1="71.7" x2="532.8" y2="64.1" fill="none" stroke="#ea494e" stroke-width="3" stroke-linecap="round" stroke-linejoin="round" id="line_51" tag_name="svg/g/g_22/g_23/line_51"/>
        <line x1="570.6" y1="64.1" x2="551.7" y2="71.7" fill="none" stroke="#ea494e" stroke-width="3" stroke-linecap="round" stroke-linejoin="round" id="line_50" tag_name="svg/g/g_22/g_23/line_50"/>
        <line x1="589.5" y1="87" x2="570.6" y2="64.1" fill="none" stroke="#ea494e" stroke-width="3" stroke-linecap="round" stroke-linejoin="round" id="line_49" tag_name="svg/g/g_22/g_23/line_49"/>
        <line x1="608.4" y1="94.6" x2="589.5" y2="87" fill="none" stroke="#ea494e" stroke-width="3" stroke-linecap="round" stroke-linejoin="round" id="line_48" tag_name="svg/g/g_22/g_23/line_48"/>
        <line x1="627.4" y1="171" x2="608.4" y2="94.6" fill="none" stroke="#ea494e" stroke-width="3" stroke-linecap="round" stroke-linejoin="round" id="line_47" tag_name="svg/g/g_22/g_23/line_47"/>
        <line x1="646.3" y1="148.1" x2="627.4" y2="171" fill="none" stroke="#ea494e" stroke-width="3" stroke-linecap="round" stroke-linejoin="round" id="line_46" tag_name="svg/g/g_22/g_23/line_46"/>
        <line x1="665.2" y1="171" x2="646.3" y2="148.1" fill="none" stroke="#ea494e" stroke-width="3" stroke-linecap="round" stroke-linejoin="round" id="line_45" tag_name="svg/g/g_22/g_23/line_45"/>
        <line x1="684.1" y1="117.5" x2="665.2" y2="171" fill="none" stroke="#ea494e" stroke-width="3" stroke-linecap="round" stroke-linejoin="round" id="line_44" tag_name="svg/g/g_22/g_23/line_44"/>
        <line x1="703" y1="132.8" x2="684.1" y2="117.5" fill="none" stroke="#ea494e" stroke-width="3" stroke-linecap="round" stroke-linejoin="round" id="line_43" tag_name="svg/g/g_22/g_23/line_43"/>
      </g>
    </g>
    <line x1="41.5" y1="290" x2="704" y2="290" fill="none" stroke="#666666" id="line_42" tag_name="svg/g/line_42"/>
    <g id="g_20" tag_name="svg/g/g_20">
      <g id="g_21" tag_name="svg/g/g_20/g_21">
        <line x1="60.4" y1="294.2" x2="60.4" y2="290.4" fill="none" stroke="#666666" id="line_41" tag_name="svg/g/g_20/g_21/line_41"/>
        <line x1="79.3" y1="294.2" x2="79.3" y2="290.4" fill="none" stroke="#666666" id="line_40" tag_name="svg/g/g_20/g_21/line_40"/>
        <line x1="98.2" y1="294.2" x2="98.2" y2="290.4" fill="none" stroke="#666666" id="line_39" tag_name="svg/g/g_20/g_21/line_39"/>
        <line x1="117.1" y1="294.2" x2="117.1" y2="290.4" fill="none" stroke="#666666" id="line_38" tag_name="svg/g/g_20/g_21/line_38"/>
        <line x1="136.1" y1="294.2" x2="136.1" y2="290.4" fill="none" stroke="#666666" id="line_37" tag_name="svg/g/g_20/g_21/line_37"/>
        <line x1="155" y1="294.2" x2="155" y2="290.4" fill="none" stroke="#666666" id="line_36" tag_name="svg/g/g_20/g_21/line_36"/>
        <line x1="173.9" y1="294.2" x2="173.9" y2="290.4" fill="none" stroke="#666666" id="line_35" tag_name="svg/g/g_20/g_21/line_35"/>
        <line x1="192.8" y1="294.2" x2="192.8" y2="290.4" fill="none" stroke="#666666" id="line_34" tag_name="svg/g/g_20/g_21/line_34"/>
        <line x1="211.7" y1="294.2" x2="211.7" y2="290.4" fill="none" stroke="#666666" id="line_33" tag_name="svg/g/g_20/g_21/line_33"/>
        <line x1="230.6" y1="294.2" x2="230.6" y2="290.4" fill="none" stroke="#666666" id="line_32" tag_name="svg/g/g_20/g_21/line_32"/>
        <line x1="249.5" y1="294.2" x2="249.5" y2="290.4" fill="none" stroke="#666666" id="line_31" tag_name="svg/g/g_20/g_21/line_31"/>
        <line x1="268.5" y1="294.2" x2="268.5" y2="290.4" fill="none" stroke="#666666" id="line_30" tag_name="svg/g/g_20/g_21/line_30"/>
        <line x1="287.4" y1="294.2" x2="287.4" y2="290.4" fill="none" stroke="#666666" id="line_29" tag_name="svg/g/g_20/g_21/line_29"/>
        <line x1="306.3" y1="294.2" x2="306.3" y2="290.4" fill="none" stroke="#666666" id="line_28" tag_name="svg/g/g_20/g_21/line_28"/>
        <line x1="325.2" y1="294.2" x2="325.2" y2="290.4" fill="none" stroke="#666666" id="line_27" tag_name="svg/g/g_20/g_21/line_27"/>
        <line x1="344.1" y1="294.2" x2="344.1" y2="290.4" fill="none" stroke="#666666" id="line_26" tag_name="svg/g/g_20/g_21/line_26"/>
        <line x1="363" y1="294.2" x2="363" y2="290.4" fill="none" stroke="#666666" id="line_25" tag_name="svg/g/g_20/g_21/line_25"/>
        <line x1="381.9" y1="294.2" x2="381.9" y2="290.4" fill="none" stroke="#666666" id="line_24" tag_name="svg/g/g_20/g_21/line_24"/>
        <line x1="400.9" y1="294.2" x2="400.9" y2="290.4" fill="none" stroke="#666666" id="line_23" tag_name="svg/g/g_20/g_21/line_23"/>
        <line x1="419.8" y1="294.2" x2="419.8" y2="290.4" fill="none" stroke="#666666" id="line_22" tag_name="svg/g/g_20/g_21/line_22"/>
        <line x1="438.7" y1="294.2" x2="438.7" y2="290.4" fill="none" stroke="#666666" id="line_21" tag_name="svg/g/g_20/g_21/line_21"/>
        <line x1="457.6" y1="294.2" x2="457.6" y2="290.4" fill="none" stroke="#666666" id="line_20" tag_name="svg/g/g_20/g_21/line_20"/>
        <line x1="476.5" y1="294.2" x2="476.5" y2="290.4" fill="none" stroke="#666666" id="line_19" tag_name="svg/g/g_20/g_21/line_19"/>
        <line x1="495.4" y1="294.2" x2="495.4" y2="290.4" fill="none" stroke="#666666" id="line_18" tag_name="svg/g/g_20/g_21/line_18"/>
        <line x1="514.3" y1="294.2" x2="514.3" y2="290.4" fill="none" stroke="#666666" id="line_17" tag_name="svg/g/g_20/g_21/line_17"/>
        <line x1="533.3" y1="294.2" x2="533.3" y2="290.4" fill="none" stroke="#666666" id="line_16" tag_name="svg/g/g_20/g_21/line_16"/>
        <line x1="552.2" y1="294.2" x2="552.2" y2="290.4" fill="none" stroke="#666666" id="line_15" tag_name="svg/g/g_20/g_21/line_15"/>
        <line x1="571.1" y1="294.2" x2="571.1" y2="290.4" fill="none" stroke="#666666" id="line_14" tag_name="svg/g/g_20/g_21/line_14"/>
        <line x1="590" y1="294.2" x2="590" y2="290.4" fill="none" stroke="#666666" id="line_13" tag_name="svg/g/g_20/g_21/line_13"/>
        <line x1="608.9" y1="294.2" x2="608.9" y2="290.4" fill="none" stroke="#666666" id="line_12" tag_name="svg/g/g_20/g_21/line_12"/>
        <line x1="627.8" y1="294.2" x2="627.8" y2="290.4" fill="none" stroke="#666666" id="line_11" tag_name="svg/g/g_20/g_21/line_11"/>
        <line x1="646.7" y1="294.2" x2="646.7" y2="290.4" fill="none" stroke="#666666" id="line_10" tag_name="svg/g/g_20/g_21/line_10"/>
        <line x1="665.7" y1="294.2" x2="665.7" y2="290.4" fill="none" stroke="#666666" id="line_9" tag_name="svg/g/g_20/g_21/line_9"/>
        <line x1="684.6" y1="294.2" x2="684.6" y2="290.4" fill="none" stroke="#666666" id="line_8" tag_name="svg/g/g_20/g_21/line_8"/>
        <line x1="703.5" y1="294.2" x2="703.5" y2="290.4" fill="none" stroke="#666666" id="line_7" tag_name="svg/g/g_20/g_21/line_7"/>
      </g>
    </g>
    <g id="g_12" tag_name="svg/g/g_12">
      <g id="g_19" tag_name="svg/g/g_12/g_19">
        <path d="M32.3,290.2c0,2.2-0.8,3.4-2.3,3.4c-1.3,0-2.1-1.2-2.1-3.3c0-2.2,0.9-3.4,2.3-3.4     C31.5,287,32.3,288.2,32.3,290.2z M28.8,290.3c0,1.7,0.5,2.6,1.3,2.6c0.9,0,1.3-1,1.3-2.7c0-1.6-0.4-2.6-1.3-2.6     C29.3,287.6,28.8,288.6,28.8,290.3z" fill="#808080" id="path_17" tag_name="svg/g/g_12/g_19/path_17"/>
      </g>
      <g id="g_18" tag_name="svg/g/g_12/g_18">
        <path d="M26.7,242.5h-2.5l-0.2,1.7c0.1,0,0.3,0,0.5,0c0.5,0,1,0.1,1.4,0.3c0.5,0.3,0.9,0.8,0.9,1.7     c0,1.3-1,2.2-2.4,2.2c-0.7,0-1.3-0.2-1.6-0.4l0.2-0.7c0.3,0.2,0.8,0.4,1.4,0.4c0.8,0,1.5-0.5,1.5-1.4c0-0.8-0.6-1.4-1.9-1.4     c-0.4,0-0.7,0-0.9,0.1l0.4-3.1h3.1V242.5z" fill="#808080" id="path_16" tag_name="svg/g/g_12/g_18/path_16"/>
        <path d="M32.3,244.9c0,2.2-0.8,3.4-2.3,3.4c-1.3,0-2.1-1.2-2.1-3.3c0-2.2,0.9-3.4,2.3-3.4     C31.5,241.6,32.3,242.8,32.3,244.9z M28.8,245c0,1.7,0.5,2.6,1.3,2.6c0.9,0,1.3-1,1.3-2.7c0-1.6-0.4-2.6-1.3-2.6     C29.3,242.3,28.8,243.2,28.8,245z" fill="#808080" id="path_15" tag_name="svg/g/g_12/g_18/path_15"/>
      </g>
      <g id="g_17" tag_name="svg/g/g_12/g_17">
        <path d="M19.6,197.2L19.6,197.2l-1.1,0.6l-0.2-0.7l1.4-0.8h0.7v6.5h-0.8V197.2z" fill="#808080" id="path_14" tag_name="svg/g/g_12/g_17/path_14"/>
        <path d="M27.2,199.6c0,2.2-0.8,3.4-2.3,3.4c-1.3,0-2.1-1.2-2.1-3.3c0-2.2,0.9-3.4,2.3-3.4     C26.4,196.3,27.2,197.5,27.2,199.6z M23.6,199.7c0,1.7,0.5,2.6,1.3,2.6c0.9,0,1.3-1,1.3-2.7c0-1.6-0.4-2.6-1.3-2.6     C24.2,197,23.6,197.9,23.6,199.7z" fill="#808080" id="path_13" tag_name="svg/g/g_12/g_17/path_13"/>
        <path d="M32.3,199.6c0,2.2-0.8,3.4-2.3,3.4c-1.3,0-2.1-1.2-2.1-3.3c0-2.2,0.9-3.4,2.3-3.4     C31.5,196.3,32.3,197.5,32.3,199.6z M28.8,199.7c0,1.7,0.5,2.6,1.3,2.6c0.9,0,1.3-1,1.3-2.7c0-1.6-0.4-2.6-1.3-2.6     C29.3,197,28.8,197.9,28.8,199.7z" fill="#808080" id="path_12" tag_name="svg/g/g_12/g_17/path_12"/>
      </g>
      <g id="g_16" tag_name="svg/g/g_12/g_16">
        <path d="M19.6,151.9L19.6,151.9l-1.1,0.6l-0.2-0.7l1.4-0.8h0.7v6.5h-0.8V151.9z" fill="#808080" id="path_11" tag_name="svg/g/g_12/g_16/path_11"/>
        <path d="M26.7,151.8h-2.5l-0.2,1.7c0.1,0,0.3,0,0.5,0c0.5,0,1,0.1,1.4,0.3c0.5,0.3,0.9,0.8,0.9,1.7     c0,1.3-1,2.2-2.4,2.2c-0.7,0-1.3-0.2-1.6-0.4l0.2-0.7c0.3,0.2,0.8,0.4,1.4,0.4c0.8,0,1.5-0.5,1.5-1.4c0-0.8-0.6-1.4-1.9-1.4     c-0.4,0-0.7,0-0.9,0.1l0.4-3.1h3.1V151.8z" fill="#808080" id="path_10" tag_name="svg/g/g_12/g_16/path_10"/>
        <path d="M32.3,154.2c0,2.2-0.8,3.4-2.3,3.4c-1.3,0-2.1-1.2-2.1-3.3c0-2.2,0.9-3.4,2.3-3.4     C31.5,151,32.3,152.2,32.3,154.2z M28.8,154.3c0,1.7,0.5,2.6,1.3,2.6c0.9,0,1.3-1,1.3-2.7c0-1.6-0.4-2.6-1.3-2.6     C29.3,151.6,28.8,152.6,28.8,154.3z" fill="#808080" id="path_9" tag_name="svg/g/g_12/g_16/path_9"/>
      </g>
      <g id="g_15" tag_name="svg/g/g_12/g_15">
        <path d="M17.7,112.2v-0.5l0.7-0.7c1.7-1.6,2.4-2.4,2.4-3.4c0-0.7-0.3-1.3-1.3-1.3c-0.6,0-1.1,0.3-1.4,0.5l-0.3-0.6     c0.4-0.4,1.1-0.7,1.8-0.7c1.4,0,2,1,2,1.9c0,1.2-0.9,2.2-2.2,3.5l-0.5,0.5v0h2.9v0.7H17.7z" fill="#808080" id="path_8" tag_name="svg/g/g_12/g_15/path_8"/>
        <path d="M27.2,108.9c0,2.2-0.8,3.4-2.3,3.4c-1.3,0-2.1-1.2-2.1-3.3c0-2.2,0.9-3.4,2.3-3.4     C26.4,105.6,27.2,106.8,27.2,108.9z M23.6,109c0,1.7,0.5,2.6,1.3,2.6c0.9,0,1.3-1,1.3-2.7c0-1.6-0.4-2.6-1.3-2.6     C24.2,106.3,23.6,107.2,23.6,109z" fill="#808080" id="path_7" tag_name="svg/g/g_12/g_15/path_7"/>
        <path d="M32.3,108.9c0,2.2-0.8,3.4-2.3,3.4c-1.3,0-2.1-1.2-2.1-3.3c0-2.2,0.9-3.4,2.3-3.4     C31.5,105.6,32.3,106.8,32.3,108.9z M28.8,109c0,1.7,0.5,2.6,1.3,2.6c0.9,0,1.3-1,1.3-2.7c0-1.6-0.4-2.6-1.3-2.6     C29.3,106.3,28.8,107.2,28.8,109z" fill="#808080" id="path_6" tag_name="svg/g/g_12/g_15/path_6"/>
      </g>
      <g id="g_14" tag_name="svg/g/g_12/g_14">
        <path d="M17.7,66.9v-0.5l0.7-0.7c1.7-1.6,2.4-2.4,2.4-3.4c0-0.7-0.3-1.3-1.3-1.3c-0.6,0-1.1,0.3-1.4,0.5l-0.3-0.6     c0.4-0.4,1.1-0.7,1.8-0.7c1.4,0,2,1,2,1.9c0,1.2-0.9,2.2-2.2,3.5l-0.5,0.5v0h2.9v0.7H17.7z" fill="#808080" id="path_5" tag_name="svg/g/g_12/g_14/path_5"/>
        <path d="M26.7,61.1h-2.5L24,62.8c0.1,0,0.3,0,0.5,0c0.5,0,1,0.1,1.4,0.4c0.5,0.3,0.9,0.8,0.9,1.7     c0,1.3-1,2.2-2.4,2.2c-0.7,0-1.3-0.2-1.6-0.4l0.2-0.7c0.3,0.2,0.8,0.4,1.4,0.4c0.8,0,1.5-0.5,1.5-1.4c0-0.8-0.6-1.4-1.9-1.4     c-0.4,0-0.7,0-0.9,0.1l0.4-3.1h3.1V61.1z" fill="#808080" id="path_4" tag_name="svg/g/g_12/g_14/path_4"/>
        <path d="M32.3,63.6c0,2.2-0.8,3.4-2.3,3.4c-1.3,0-2.1-1.2-2.1-3.3c0-2.2,0.9-3.4,2.3-3.4     C31.5,60.3,32.3,61.5,32.3,63.6z M28.8,63.7c0,1.7,0.5,2.6,1.3,2.6c0.9,0,1.3-1,1.3-2.7c0-1.6-0.4-2.6-1.3-2.6     C29.3,61,28.8,61.9,28.8,63.7z" fill="#808080" id="path_3" tag_name="svg/g/g_12/g_14/path_3"/>
      </g>
      <g id="g_13" tag_name="svg/g/g_12/g_13">
        <path d="M17.9,20.6c0.2,0.2,0.8,0.4,1.4,0.4c1.1,0,1.5-0.7,1.5-1.3c0-0.9-0.8-1.3-1.7-1.3h-0.5v-0.7h0.5     c0.6,0,1.4-0.3,1.4-1.1c0-0.5-0.3-1-1.1-1c-0.5,0-1,0.2-1.3,0.4l-0.2-0.6c0.3-0.2,1-0.5,1.7-0.5c1.3,0,1.9,0.8,1.9,1.5     c0,0.7-0.4,1.2-1.2,1.5v0c0.8,0.2,1.4,0.8,1.4,1.7c0,1-0.8,1.9-2.4,1.9c-0.7,0-1.4-0.2-1.7-0.4L17.9,20.6z" fill="#808080" id="path_2" tag_name="svg/g/g_12/g_13/path_2"/>
        <path d="M27.2,18.2c0,2.2-0.8,3.4-2.3,3.4c-1.3,0-2.1-1.2-2.1-3.3c0-2.2,0.9-3.4,2.3-3.4     C26.4,15,27.2,16.2,27.2,18.2z M23.6,18.3c0,1.7,0.5,2.6,1.3,2.6c0.9,0,1.3-1,1.3-2.7c0-1.6-0.4-2.6-1.3-2.6     C24.2,15.6,23.6,16.6,23.6,18.3z" fill="#808080" id="path_1" tag_name="svg/g/g_12/g_13/path_1"/>
        <path d="M32.3,18.2c0,2.2-0.8,3.4-2.3,3.4c-1.3,0-2.1-1.2-2.1-3.3c0-2.2,0.9-3.4,2.3-3.4     C31.5,15,32.3,16.2,32.3,18.2z M28.8,18.3c0,1.7,0.5,2.6,1.3,2.6c0.9,0,1.3-1,1.3-2.7c0-1.6-0.4-2.6-1.3-2.6     C29.3,15.6,28.8,16.6,28.8,18.3z" fill="#808080" id="path" tag_name="svg/g/g_12/g_13/path"/>
      </g>
    </g>
    <line x1="41.5" y1="290" x2="41.5" y2="18" fill="none" stroke="#666666" id="line_6" tag_name="svg/g/line_6"/>
    <g id="g_11" tag_name="svg/g/g_11">
      <line x1="35.9" y1="245.1" x2="41.9" y2="245.1" fill="none" stroke="#666666" id="line_5" tag_name="svg/g/g_11/line_5"/>
      <line x1="35.9" y1="199.7" x2="41.9" y2="199.7" fill="none" stroke="#666666" id="line_4" tag_name="svg/g/g_11/line_4"/>
      <line x1="35.9" y1="154.4" x2="41.9" y2="154.4" fill="none" stroke="#666666" id="line_3" tag_name="svg/g/g_11/line_3"/>
      <line x1="35.9" y1="109.1" x2="41.9" y2="109.1" fill="none" stroke="#666666" id="line_2" tag_name="svg/g/g_11/line_2"/>
      <line x1="35.9" y1="63.7" x2="41.9" y2="63.7" fill="none" stroke="#666666" id="line_1" tag_name="svg/g/g_11/line_1"/>
      <line x1="35.9" y1="18.4" x2="41.9" y2="18.4" fill="none" stroke="#666666" id="line" tag_name="svg/g/g_11/line"/>
    </g>
    <g id="g_10" tag_name="svg/g/g_10">
	</g>
    <g id="g_9" tag_name="svg/g/g_9">
	</g>
    <g id="g_8" tag_name="svg/g/g_8">
	</g>
    <g id="g_7" tag_name="svg/g/g_7">
	</g>
    <g id="g_6" tag_name="svg/g/g_6">
	</g>
    <g id="g_5" tag_name="svg/g/g_5">
	</g>
    <g id="g_4" tag_name="svg/g/g_4">
	</g>
    <g id="g_3" tag_name="svg/g/g_3">
	</g>
    <g id="g_2" tag_name="svg/g/g_2">
	</g>
    <g id="g_1" tag_name="svg/g/g_1">
	</g>
  </g>
</svg>