<?xml version='1.0' encoding='UTF-8'?>
<svg width="900" height="340" viewBox="-550,-100,900,300" style="max-width: 100%; height: auto; font: 10px sans-serif;" id="svg" tag_name="svg">
  <line x1="-400" y1="180" x2="250" y2="180" stroke="#000" stroke-width="2" id="line_1" tag_name="svg/line_1"/>
  <line x1="-400" y1="180" x2="-400" y2="-40" stroke="#000" stroke-width="2" id="line" tag_name="svg/line"/>
  <rect x="-350" y="80" width="20" height="100" fill="#3498db" id="rect_11" tag_name="svg/rect_11"/>
  <text x="-340" y="60" text-anchor="middle" fill="#000" id="text_17" tag_name="svg/text_17">xx</text>
  <rect x="-325" y="100" width="20" height="80" fill="#e74c3c" id="rect_10" tag_name="svg/rect_10"/>
  <text x="-315" y="80" text-anchor="middle" fill="#000" id="text_16" tag_name="svg/text_16">xx</text>
  <text x="-337.5" y="200" text-anchor="middle" fill="#333" id="text_15" tag_name="svg/text_15">xxxxxxxxx</text>
  <rect x="-250" y="30" width="20" height="150" fill="#3498db" id="rect_9" tag_name="svg/rect_9"/>
  <text x="-240" y="10" text-anchor="middle" fill="#000" id="text_14" tag_name="svg/text_14">xx</text>
  <rect x="-225" y="60" width="20" height="120" fill="#e74c3c" id="rect_8" tag_name="svg/rect_8"/>
  <text x="-215" y="40" text-anchor="middle" fill="#000" id="text_13" tag_name="svg/text_13">xx</text>
  <text x="-237.5" y="200" text-anchor="middle" fill="#333" id="text_12" tag_name="svg/text_12">xxxxxxxxx</text>
  <rect x="-150" y="-20" width="20" height="200" fill="#3498db" id="rect_7" tag_name="svg/rect_7"/>
  <text x="-140" y="-40" text-anchor="middle" fill="#000" id="text_11" tag_name="svg/text_11">xx</text>
  <rect x="-125" y="20" width="20" height="160" fill="#e74c3c" id="rect_6" tag_name="svg/rect_6"/>
  <text x="-115" y="0" text-anchor="middle" fill="#000" id="text_10" tag_name="svg/text_10">xx</text>
  <text x="-137.5" y="200" text-anchor="middle" fill="#333" id="text_9" tag_name="svg/text_9">xxxxxxxxx</text>
  <rect x="-50" y="50" width="20" height="130" fill="#3498db" id="rect_5" tag_name="svg/rect_5"/>
  <text x="-40" y="30" text-anchor="middle" fill="#000" id="text_8" tag_name="svg/text_8">xx</text>
  <rect x="-25" y="70" width="20" height="110" fill="#e74c3c" id="rect_4" tag_name="svg/rect_4"/>
  <text x="-15" y="50" text-anchor="middle" fill="#000" id="text_7" tag_name="svg/text_7">xx</text>
  <text x="-37.5" y="200" text-anchor="middle" fill="#333" id="text_6" tag_name="svg/text_6">xxxxxxxxx</text>
  <rect x="50" y="10" width="20" height="170" fill="#3498db" id="rect_3" tag_name="svg/rect_3"/>
  <text x="60" y="-10" text-anchor="middle" fill="#000" id="text_5" tag_name="svg/text_5">xx</text>
  <rect x="75" y="40" width="20" height="140" fill="#e74c3c" id="rect_2" tag_name="svg/rect_2"/>
  <text x="85" y="20" text-anchor="middle" fill="#000" id="text_4" tag_name="svg/text_4">xx</text>
  <text x="62.5" y="200" text-anchor="middle" fill="#333" id="text_3" tag_name="svg/text_3">xxxxxxxxx</text>
  <rect x="150" y="-30" width="20" height="210" fill="#3498db" id="rect_1" tag_name="svg/rect_1"/>
  <text x="160" y="-50" text-anchor="middle" fill="#000" id="text_2" tag_name="svg/text_2">xx</text>
  <rect x="175" y="-10" width="20" height="190" fill="#e74c3c" id="rect" tag_name="svg/rect"/>
  <text x="185" y="-30" text-anchor="middle" fill="#000" id="text_1" tag_name="svg/text_1">xx</text>
  <text x="162.5" y="200" text-anchor="middle" fill="#333" id="text" tag_name="svg/text">xxxxxxxxx</text>
</svg>