<?xml version='1.0' encoding='utf-8'?>
<svg width="900" height="340" viewBox="-70,-30,880,340" style="max-width: 100%; height: auto; font: 10px sans-serif;" id="svg">
  <g id="g_23">
</g>
  <g id="g">
    <circle cx="24.5" cy="247.1" r="5" fill="#216AFF" id="circle_649" />
    <circle cx="24.5" cy="259.5" r="5" fill="#216AFF" id="circle_648" />
    <circle cx="24.5" cy="271.9" r="5" fill="#FAAF3B" id="circle_647" />
    <circle cx="24.5" cy="284.2" r="5" fill="#8BC53F" id="circle_646" />
    <circle cx="24.5" cy="296.6" r="5" fill="#A57C52" id="circle_645" />
    <circle cx="36.9" cy="247.1" r="5" fill="#216AFF" id="circle_644" />
    <circle cx="36.9" cy="259.5" r="5" fill="#216AFF" id="circle_643" />
    <circle cx="36.9" cy="271.9" r="5" fill="#FAAF3B" id="circle_642" />
    <circle cx="36.9" cy="284.2" r="5" fill="#8BC53F" id="circle_641" />
    <circle cx="36.9" cy="296.6" r="5" fill="#A57C52" id="circle_640" />
    <circle cx="49.4" cy="247.1" r="5" fill="#216AFF" id="circle_639" />
    <circle cx="49.4" cy="259.5" r="5" fill="#216AFF" id="circle_638" />
    <circle cx="49.4" cy="271.9" r="5" fill="#FAAF3B" id="circle_637" />
    <circle cx="49.4" cy="284.2" r="5" fill="#8BC53F" id="circle_636" />
    <circle cx="49.4" cy="296.6" r="5" fill="#A57C52" id="circle_635" />
    <circle cx="61.7" cy="247.1" r="5" fill="#216AFF" id="circle_634" />
    <circle cx="61.7" cy="259.5" r="5" fill="#216AFF" id="circle_633" />
    <circle cx="61.7" cy="271.9" r="5" fill="#FAAF3B" id="circle_632" />
    <circle cx="61.7" cy="284.2" r="5" fill="#8BC53F" id="circle_631" />
    <circle cx="61.7" cy="296.6" r="5" fill="#A57C52" id="circle_630" />
    <circle cx="74.1" cy="247.1" r="5" fill="#216AFF" id="circle_629" />
    <circle cx="74.1" cy="259.5" r="5" fill="#216AFF" id="circle_628" />
    <circle cx="74.1" cy="271.9" r="5" fill="#FAAF3B" id="circle_627" />
    <circle cx="74.1" cy="284.2" r="5" fill="#8BC53F" id="circle_626" />
    <circle cx="74.1" cy="296.6" r="5" fill="#A57C52" id="circle_625" />
    <circle cx="86.5" cy="247.1" r="5" fill="#216AFF" id="circle_624" />
    <circle cx="86.5" cy="259.5" r="5" fill="#216AFF" id="circle_623" />
    <circle cx="86.5" cy="271.9" r="5" fill="#FAAF3B" id="circle_622" />
    <circle cx="86.5" cy="284.2" r="5" fill="#A57C52" id="circle_621" />
    <circle cx="86.5" cy="296.6" r="5" fill="#A57C52" id="circle_620" />
    <circle cx="98.7" cy="247.1" r="5" fill="#216AFF" id="circle_619" />
    <circle cx="98.7" cy="259.5" r="5" fill="#216AFF" id="circle_618" />
    <circle cx="98.7" cy="271.9" r="5" fill="#FAAF3B" id="circle_617" />
    <circle cx="98.7" cy="284.2" r="5" fill="#A57C52" id="circle_616" />
    <circle cx="98.7" cy="296.6" r="5" fill="#A57C52" id="circle_615" />
    <circle cx="111.1" cy="247.1" r="5" fill="#216AFF" id="circle_614" />
    <circle cx="111.1" cy="259.5" r="5" fill="#216AFF" id="circle_613" />
    <circle cx="111.1" cy="271.9" r="5" fill="#FAAF3B" id="circle_612" />
    <circle cx="111.1" cy="284.2" r="5" fill="#A57C52" id="circle_611" />
    <circle cx="111.1" cy="296.6" r="5" fill="#A57C52" id="circle_610" />
    <circle cx="123.5" cy="247.1" r="5" fill="#216AFF" id="circle_609" />
    <circle cx="123.5" cy="259.5" r="5" fill="#216AFF" id="circle_608" />
    <circle cx="123.5" cy="271.9" r="5" fill="#FAAF3B" id="circle_607" />
    <circle cx="123.5" cy="284.2" r="5" fill="#A57C52" id="circle_606" />
    <circle cx="123.5" cy="296.6" r="5" fill="#A57C52" id="circle_605" />
    <circle cx="135.8" cy="247.1" r="5" fill="#216AFF" id="circle_604" />
    <circle cx="135.8" cy="259.5" r="5" fill="#F05A42" id="circle_603" />
    <circle cx="135.8" cy="271.9" r="5" fill="#8BC53F" id="circle_602" />
    <circle cx="135.8" cy="284.2" r="5" fill="#A57C52" id="circle_601" />
    <circle cx="135.8" cy="296.6" r="5" fill="#A57C52" id="circle_600" />
    <circle cx="148.3" cy="247.1" r="5" fill="#216AFF" id="circle_599" />
    <circle cx="148.3" cy="259.5" r="5" fill="#F05A42" id="circle_598" />
    <circle cx="148.3" cy="271.9" r="5" fill="#8BC53F" id="circle_597" />
    <circle cx="148.3" cy="284.2" r="5" fill="#A57C52" id="circle_596" />
    <circle cx="148.3" cy="296.6" r="5" fill="#A57C52" id="circle_595" />
    <circle cx="160.7" cy="247.1" r="5" fill="#216AFF" id="circle_594" />
    <circle cx="160.7" cy="259.5" r="5" fill="#F05A42" id="circle_593" />
    <circle cx="160.7" cy="271.9" r="5" fill="#8BC53F" id="circle_592" />
    <circle cx="160.7" cy="284.2" r="5" fill="#A57C52" id="circle_591" />
    <circle cx="160.7" cy="296.6" r="5" fill="#A57C52" id="circle_590" />
    <circle cx="206.1" cy="247.1" r="5" fill="#216AFF" id="circle_589" />
    <circle cx="206.1" cy="259.5" r="5" fill="#216AFF" id="circle_588" />
    <circle cx="206.1" cy="271.9" r="5" fill="#216AFF" id="circle_587" />
    <circle cx="206.1" cy="284.2" r="5" fill="#F05A42" id="circle_586" />
    <circle cx="206.1" cy="296.6" r="5" fill="#FAAF3B" id="circle_585" />
    <circle cx="218.5" cy="247.1" r="5" fill="#216AFF" id="circle_584" />
    <circle cx="218.5" cy="259.5" r="5" fill="#216AFF" id="circle_583" />
    <circle cx="218.5" cy="271.9" r="5" fill="#216AFF" id="circle_582" />
    <circle cx="218.5" cy="284.2" r="5" fill="#F05A42" id="circle_581" />
    <circle cx="218.5" cy="296.6" r="5" fill="#FAAF3B" id="circle_580" />
    <circle cx="230.9" cy="247.1" r="5" fill="#216AFF" id="circle_579" />
    <circle cx="230.9" cy="259.5" r="5" fill="#216AFF" id="circle_578" />
    <circle cx="230.9" cy="271.9" r="5" fill="#216AFF" id="circle_577" />
    <circle cx="230.9" cy="284.2" r="5" fill="#F05A42" id="circle_576" />
    <circle cx="230.9" cy="296.6" r="5" fill="#FAAF3B" id="circle_575" />
    <circle cx="243.2" cy="247.1" r="5" fill="#216AFF" id="circle_574" />
    <circle cx="243.2" cy="259.5" r="5" fill="#216AFF" id="circle_573" />
    <circle cx="243.2" cy="271.9" r="5" fill="#216AFF" id="circle_572" />
    <circle cx="243.2" cy="284.2" r="5" fill="#F05A42" id="circle_571" />
    <circle cx="243.2" cy="296.6" r="5" fill="#FAAF3B" id="circle_570" />
    <circle cx="255.7" cy="247.1" r="5" fill="#216AFF" id="circle_569" />
    <circle cx="255.7" cy="259.5" r="5" fill="#216AFF" id="circle_568" />
    <circle cx="255.7" cy="271.9" r="5" fill="#216AFF" id="circle_567" />
    <circle cx="255.7" cy="284.2" r="5" fill="#F05A42" id="circle_566" />
    <circle cx="255.7" cy="296.6" r="5" fill="#8BC53F" id="circle_565" />
    <circle cx="268.1" cy="247.1" r="5" fill="#216AFF" id="circle_564" />
    <circle cx="268.1" cy="259.5" r="5" fill="#216AFF" id="circle_563" />
    <circle cx="268.1" cy="271.9" r="5" fill="#216AFF" id="circle_562" />
    <circle cx="268.1" cy="284.2" r="5" fill="#F05A42" id="circle_561" />
    <circle cx="268.1" cy="296.6" r="5" fill="#8BC53F" id="circle_560" />
    <circle cx="280.2" cy="247.1" r="5" fill="#216AFF" id="circle_559" />
    <circle cx="280.2" cy="259.5" r="5" fill="#216AFF" id="circle_558" />
    <circle cx="280.2" cy="271.9" r="5" fill="#216AFF" id="circle_557" />
    <circle cx="280.2" cy="284.2" r="5" fill="#F05A42" id="circle_556" />
    <circle cx="280.2" cy="296.6" r="5" fill="#8BC53F" id="circle_555" />
    <circle cx="292.7" cy="247.1" r="5" fill="#216AFF" id="circle_554" />
    <circle cx="292.7" cy="259.5" r="5" fill="#216AFF" id="circle_553" />
    <circle cx="292.7" cy="271.9" r="5" fill="#216AFF" id="circle_552" />
    <circle cx="292.7" cy="284.2" r="5" fill="#F05A42" id="circle_551" />
    <circle cx="292.7" cy="296.6" r="5" fill="#8BC53F" id="circle_550" />
    <circle cx="305.1" cy="247.1" r="5" fill="#216AFF" id="circle_549" />
    <circle cx="305.1" cy="259.5" r="5" fill="#216AFF" id="circle_548" />
    <circle cx="305.1" cy="271.9" r="5" fill="#216AFF" id="circle_547" />
    <circle cx="305.1" cy="284.2" r="5" fill="#F05A42" id="circle_546" />
    <circle cx="305.1" cy="296.6" r="5" fill="#A57C52" id="circle_545" />
    <circle cx="317.4" cy="247.1" r="5" fill="#216AFF" id="circle_544" />
    <circle cx="317.4" cy="259.5" r="5" fill="#216AFF" id="circle_543" />
    <circle cx="317.4" cy="271.9" r="5" fill="#216AFF" id="circle_542" />
    <circle cx="317.4" cy="284.2" r="5" fill="#F05A42" id="circle_541" />
    <circle cx="317.4" cy="296.6" r="5" fill="#A57C52" id="circle_540" />
    <circle cx="329.8" cy="247.1" r="5" fill="#216AFF" id="circle_539" />
    <circle cx="329.8" cy="259.5" r="5" fill="#216AFF" id="circle_538" />
    <circle cx="329.8" cy="271.9" r="5" fill="#216AFF" id="circle_537" />
    <circle cx="329.8" cy="284.2" r="5" fill="#F05A42" id="circle_536" />
    <circle cx="329.8" cy="296.6" r="5" fill="#A57C52" id="circle_535" />
    <circle cx="342.3" cy="247.1" r="5" fill="#216AFF" id="circle_534" />
    <circle cx="342.3" cy="259.5" r="5" fill="#216AFF" id="circle_533" />
    <circle cx="342.3" cy="271.9" r="5" fill="#F05A42" id="circle_532" />
    <circle cx="342.3" cy="284.2" r="5" fill="#F05A42" id="circle_531" />
    <circle cx="387.6" cy="247.1" r="5" fill="#216AFF" id="circle_530" />
    <circle cx="387.6" cy="259.5" r="5" fill="#216AFF" id="circle_529" />
    <circle cx="387.6" cy="271.9" r="5" fill="#216AFF" id="circle_528" />
    <circle cx="387.6" cy="284.2" r="5" fill="#FAAF3B" id="circle_527" />
    <circle cx="387.6" cy="296.6" r="5" fill="#8BC53F" id="circle_526" />
    <circle cx="400.1" cy="247.1" r="5" fill="#216AFF" id="circle_525" />
    <circle cx="400.1" cy="259.5" r="5" fill="#216AFF" id="circle_524" />
    <circle cx="400.1" cy="271.9" r="5" fill="#216AFF" id="circle_523" />
    <circle cx="400.1" cy="284.2" r="5" fill="#FAAF3B" id="circle_522" />
    <circle cx="400.1" cy="296.6" r="5" fill="#8BC53F" id="circle_521" />
    <circle cx="412.5" cy="247.1" r="5" fill="#216AFF" id="circle_520" />
    <circle cx="412.5" cy="259.5" r="5" fill="#216AFF" id="circle_519" />
    <circle cx="412.5" cy="271.9" r="5" fill="#216AFF" id="circle_518" />
    <circle cx="412.5" cy="284.2" r="5" fill="#FAAF3B" id="circle_517" />
    <circle cx="412.5" cy="296.6" r="5" fill="#8BC53F" id="circle_516" />
    <circle cx="424.8" cy="247.1" r="5" fill="#216AFF" id="circle_515" />
    <circle cx="424.8" cy="259.5" r="5" fill="#216AFF" id="circle_514" />
    <circle cx="424.8" cy="271.9" r="5" fill="#216AFF" id="circle_513" />
    <circle cx="424.8" cy="284.2" r="5" fill="#FAAF3B" id="circle_512" />
    <circle cx="424.8" cy="296.6" r="5" fill="#8BC53F" id="circle_511" />
    <circle cx="437.2" cy="247.1" r="5" fill="#216AFF" id="circle_510" />
    <circle cx="437.2" cy="259.5" r="5" fill="#216AFF" id="circle_509" />
    <circle cx="437.2" cy="271.9" r="5" fill="#216AFF" id="circle_508" />
    <circle cx="437.2" cy="284.2" r="5" fill="#FAAF3B" id="circle_507" />
    <circle cx="437.2" cy="296.6" r="5" fill="#8BC53F" id="circle_506" />
    <circle cx="449.7" cy="247.1" r="5" fill="#216AFF" id="circle_505" />
    <circle cx="449.7" cy="259.5" r="5" fill="#216AFF" id="circle_504" />
    <circle cx="449.7" cy="271.9" r="5" fill="#216AFF" id="circle_503" />
    <circle cx="449.7" cy="284.2" r="5" fill="#FAAF3B" id="circle_502" />
    <circle cx="449.7" cy="296.6" r="5" fill="#8BC53F" id="circle_501" />
    <circle cx="461.8" cy="247.1" r="5" fill="#216AFF" id="circle_500" />
    <circle cx="461.8" cy="259.5" r="5" fill="#216AFF" id="circle_499" />
    <circle cx="461.8" cy="271.9" r="5" fill="#216AFF" id="circle_498" />
    <circle cx="461.8" cy="284.2" r="5" fill="#FAAF3B" id="circle_497" />
    <circle cx="461.8" cy="296.6" r="5" fill="#8BC53F" id="circle_496" />
    <circle cx="474.2" cy="247.1" r="5" fill="#216AFF" id="circle_495" />
    <circle cx="474.2" cy="259.5" r="5" fill="#216AFF" id="circle_494" />
    <circle cx="474.2" cy="271.9" r="5" fill="#F05A42" id="circle_493" />
    <circle cx="474.2" cy="284.2" r="5" fill="#FAAF3B" id="circle_492" />
    <circle cx="474.2" cy="296.6" r="5" fill="#8BC53F" id="circle_491" />
    <circle cx="486.7" cy="247.1" r="5" fill="#216AFF" id="circle_490" />
    <circle cx="486.7" cy="259.5" r="5" fill="#216AFF" id="circle_489" />
    <circle cx="486.7" cy="271.9" r="5" fill="#F05A42" id="circle_488" />
    <circle cx="486.7" cy="284.2" r="5" fill="#FAAF3B" id="circle_487" />
    <circle cx="486.7" cy="296.6" r="5" fill="#8BC53F" id="circle_486" />
    <circle cx="498.9" cy="247.1" r="5" fill="#216AFF" id="circle_485" />
    <circle cx="498.9" cy="259.5" r="5" fill="#216AFF" id="circle_484" />
    <circle cx="498.9" cy="271.9" r="5" fill="#F05A42" id="circle_483" />
    <circle cx="498.9" cy="284.2" r="5" fill="#FAAF3B" id="circle_482" />
    <circle cx="498.9" cy="296.6" r="5" fill="#8BC53F" id="circle_481" />
    <circle cx="511.4" cy="247.1" r="5" fill="#216AFF" id="circle_480" />
    <circle cx="511.4" cy="259.5" r="5" fill="#216AFF" id="circle_479" />
    <circle cx="511.4" cy="271.9" r="5" fill="#FAAF3B" id="circle_478" />
    <circle cx="511.4" cy="284.2" r="5" fill="#FAAF3B" id="circle_477" />
    <circle cx="523.8" cy="247.1" r="5" fill="#216AFF" id="circle_476" />
    <circle cx="523.8" cy="259.5" r="5" fill="#216AFF" id="circle_475" />
    <circle cx="523.8" cy="271.9" r="5" fill="#FAAF3B" id="circle_474" />
    <circle cx="523.8" cy="284.2" r="5" fill="#FAAF3B" id="circle_473" />
    <circle cx="569.2" cy="247.1" r="5" fill="#216AFF" id="circle_472" />
    <circle cx="569.2" cy="259.5" r="5" fill="#F05A42" id="circle_471" />
    <circle cx="569.2" cy="271.9" r="5" fill="#F05A42" id="circle_470" />
    <circle cx="569.2" cy="284.2" r="5" fill="#FAAF3B" id="circle_469" />
    <circle cx="569.2" cy="296.6" r="5" fill="#8BC53F" id="circle_468" />
    <circle cx="581.6" cy="247.1" r="5" fill="#216AFF" id="circle_467" />
    <circle cx="581.6" cy="259.5" r="5" fill="#F05A42" id="circle_466" />
    <circle cx="581.6" cy="271.9" r="5" fill="#F05A42" id="circle_465" />
    <circle cx="581.6" cy="284.2" r="5" fill="#FAAF3B" id="circle_464" />
    <circle cx="581.6" cy="296.6" r="5" fill="#8BC53F" id="circle_463" />
    <circle cx="594" cy="247.1" r="5" fill="#216AFF" id="circle_462" />
    <circle cx="594" cy="259.5" r="5" fill="#F05A42" id="circle_461" />
    <circle cx="594" cy="271.9" r="5" fill="#F05A42" id="circle_460" />
    <circle cx="594" cy="284.2" r="5" fill="#FAAF3B" id="circle_459" />
    <circle cx="594" cy="296.6" r="5" fill="#8BC53F" id="circle_458" />
    <circle cx="606.3" cy="247.1" r="5" fill="#216AFF" id="circle_457" />
    <circle cx="606.3" cy="259.5" r="5" fill="#F05A42" id="circle_456" />
    <circle cx="606.3" cy="271.9" r="5" fill="#F05A42" id="circle_455" />
    <circle cx="606.3" cy="284.2" r="5" fill="#FAAF3B" id="circle_454" />
    <circle cx="606.3" cy="296.6" r="5" fill="#8BC53F" id="circle_453" />
    <circle cx="618.8" cy="247.1" r="5" fill="#216AFF" id="circle_452" />
    <circle cx="618.8" cy="259.5" r="5" fill="#F05A42" id="circle_451" />
    <circle cx="618.8" cy="271.9" r="5" fill="#F05A42" id="circle_450" />
    <circle cx="618.8" cy="284.2" r="5" fill="#FAAF3B" id="circle_449" />
    <circle cx="618.8" cy="296.6" r="5" fill="#A57C52" id="circle_448" />
    <circle cx="631.2" cy="247.1" r="5" fill="#216AFF" id="circle_447" />
    <circle cx="631.2" cy="259.5" r="5" fill="#F05A42" id="circle_446" />
    <circle cx="631.2" cy="271.9" r="5" fill="#F05A42" id="circle_445" />
    <circle cx="631.2" cy="284.2" r="5" fill="#FAAF3B" id="circle_444" />
    <circle cx="631.2" cy="296.6" r="5" fill="#A57C52" id="circle_443" />
    <circle cx="643.3" cy="247.1" r="5" fill="#F05A42" id="circle_442" />
    <circle cx="643.3" cy="259.5" r="5" fill="#F05A42" id="circle_441" />
    <circle cx="643.3" cy="271.9" r="5" fill="#F05A42" id="circle_440" />
    <circle cx="643.3" cy="284.2" r="5" fill="#FAAF3B" id="circle_439" />
    <circle cx="643.3" cy="296.6" r="5" fill="#A57C52" id="circle_438" />
    <circle cx="655.8" cy="247.1" r="5" fill="#F05A42" id="circle_437" />
    <circle cx="655.8" cy="259.5" r="5" fill="#F05A42" id="circle_436" />
    <circle cx="655.8" cy="271.9" r="5" fill="#F05A42" id="circle_435" />
    <circle cx="655.8" cy="284.2" r="5" fill="#FAAF3B" id="circle_434" />
    <circle cx="655.8" cy="296.6" r="5" fill="#A57C52" id="circle_433" />
    <circle cx="668.2" cy="247.1" r="5" fill="#F05A42" id="circle_432" />
    <circle cx="668.2" cy="259.5" r="5" fill="#F05A42" id="circle_431" />
    <circle cx="668.2" cy="271.9" r="5" fill="#F05A42" id="circle_430" />
    <circle cx="668.2" cy="284.2" r="5" fill="#FAAF3B" id="circle_429" />
    <circle cx="668.2" cy="296.6" r="5" fill="#A57C52" id="circle_428" />
    <circle cx="680.5" cy="247.1" r="5" fill="#F05A42" id="circle_427" />
    <circle cx="680.5" cy="259.5" r="5" fill="#F05A42" id="circle_426" />
    <circle cx="680.5" cy="271.9" r="5" fill="#F05A42" id="circle_425" />
    <circle cx="680.5" cy="284.2" r="5" fill="#FAAF3B" id="circle_424" />
    <circle cx="692.9" cy="247.1" r="5" fill="#F05A42" id="circle_423" />
    <circle cx="692.9" cy="259.5" r="5" fill="#F05A42" id="circle_422" />
    <circle cx="692.9" cy="271.9" r="5" fill="#F05A42" id="circle_421" />
    <circle cx="692.9" cy="284.2" r="5" fill="#8BC53F" id="circle_420" />
    <circle cx="705.4" cy="247.1" r="5" fill="#F05A42" id="circle_419" />
    <circle cx="705.4" cy="259.5" r="5" fill="#F05A42" id="circle_418" />
    <circle cx="705.4" cy="271.9" r="5" fill="#FAAF3B" id="circle_417" />
    <circle cx="705.4" cy="284.2" r="5" fill="#8BC53F" id="circle_416" />
    <g id="g_22">
      <path d="M20.9,228.6c-0.3,0-0.6,0-0.9,0v-0.7c0.2,0,0.5,0,0.9,0h0.3v-1.5c0-0.5,0-0.8-0.1-1.1h0.7    c0,0.3-0.1,0.6-0.1,1.1v1.5h0.2c0.4,0,0.6,0,0.8,0v0.6c-0.2,0-0.4,0-0.8,0h-0.2v2.9c0.3-0.1,0.4-0.2,0.8-0.4l0.1,0.6    c-0.8,0.4-1.1,0.5-2.3,1c-0.2,0.1-0.3,0.1-0.4,0.2l-0.2-0.7c0.3-0.1,0.5-0.1,1.3-0.4v-3.1H20.9z M24.1,229.4    c-0.2,0.4-0.5,0.8-0.9,1.2c-0.1-0.2-0.3-0.3-0.5-0.4c0.6-0.6,1-1.1,1.3-1.8c0-0.1,0.1-0.3,0.2-0.5l0.6,0.2l-0.2,0.4    c-0.1,0.2-0.1,0.3-0.2,0.4h3.1c0.5,0,0.7,0,1-0.1v0.7c-0.3,0-0.6-0.1-1-0.1h-1.4c0,0.6-0.1,0.9-0.1,1.4h2c0.4,0,0.8,0,1-0.1v0.7    c-0.3,0-0.6-0.1-1-0.1h-1.7c0.2,0.5,0.5,0.8,0.9,1.1c0.5,0.5,1.1,0.8,2,1.1c-0.2,0.2-0.2,0.4-0.4,0.6c-0.8-0.3-1.3-0.6-1.9-1    c-0.5-0.4-0.9-0.9-1.2-1.5c-0.2,0.5-0.4,0.9-0.8,1.3c-0.6,0.6-1.2,0.9-2.3,1.3c-0.1-0.2-0.2-0.4-0.4-0.6c1.2-0.3,1.7-0.6,2.2-1.1    c0.3-0.3,0.6-0.7,0.7-1.2H24c-0.4,0-0.7,0-1,0.1v-0.7c0.2,0,0.6,0.1,0.9,0.1h1.4c0.1-0.5,0.1-0.5,0.1-1.4H24.1z M25.9,225.3    c-0.5,0.8-0.5,0.8-1,1.3c-0.3,0.3-0.3,0.3-0.5,0.5c0.1,0,0.1,0,0.1,0c0.6,0,2.2-0.1,2.9-0.1c-0.3-0.4-0.5-0.6-1-1.1l0.5-0.3    c0.8,0.8,1.2,1.3,1.9,2.3l-0.5,0.4c-0.3-0.4-0.4-0.6-0.5-0.8c-1.1,0.1-2.2,0.1-3.6,0.2c-0.3,0-0.6,0-0.7,0l-0.1-0.6    c0,0,0.1,0,0.1,0c0.1,0,0.3,0,0.4-0.1c0.7-0.7,1.1-1.2,1.4-1.9L25.9,225.3z" fill="#666666" id="path_39" />
      <path d="M38.3,230c0.4,0,0.6,0,0.9-0.1v0.6c-0.3,0-0.5-0.1-0.9-0.1h-1.9c0.4,0.4,0.4,0.4,0.7,0.6    c0.7,0.5,1.3,0.8,2.3,1.1c-0.1,0.2-0.2,0.3-0.3,0.6c-1-0.4-1.4-0.6-2-1v0.6c-0.3,0-0.6,0-0.9,0H35v1h2.9c0.5,0,0.7,0,1-0.1v0.7    c-0.3,0-0.6-0.1-1.1-0.1h-6c-0.5,0-0.8,0-1.1,0.1v-0.7c0.3,0.1,0.5,0.1,1,0.1h2.8v-1h-1.2c-0.3,0-0.6,0-0.9,0v-0.6c0,0,0,0-0.1,0    c-0.5,0.3-0.9,0.6-1.8,1c-0.1-0.2-0.2-0.3-0.4-0.5c0.8-0.3,1.1-0.4,1.6-0.7c0.7-0.4,0.9-0.6,1.3-1h-1.7c-0.4,0-0.6,0-0.9,0.1v-0.6    c0.3,0,0.5,0.1,0.9,0.1h1.9v-0.8h-0.8c-0.5,0-0.6,0-0.8,0v-0.6c0.2,0,0.4,0,0.8,0h0.8v-0.8h-0.8c-0.4,0-0.6,0-0.9,0.1v-0.6    c0.2,0,0.4,0,0.9,0h0.9c0-0.3,0-0.3,0-0.6h0.7c0,0.2,0,0.4,0,0.6h2c0-0.3,0-0.5,0-0.6h0.7c0,0.2,0,0.4,0,0.6h0.9    c0.4,0,0.6,0,0.9,0v0.6c-0.3,0-0.5-0.1-0.9-0.1h-0.9v0.8h0.9c0.5,0,0.6,0,0.8,0v0.6c-0.2,0-0.4,0-0.8,0h-0.9v0.8H38.3z M37.9,226    c0.4,0,0.7,0,1,0c0,0.2,0,0.4,0,0.7v0.3c0,0.3,0,0.5,0,0.7h-0.6v-1.1h-7v1.1h-0.6c0-0.2,0-0.4,0-0.7v-0.3c0-0.3,0-0.5,0-0.7    c0.3,0,0.6,0,1,0h3c0,0-0.1-0.1-0.1-0.1c-0.1-0.1-0.2-0.2-0.5-0.5l0.4-0.4c0.5,0.3,0.7,0.5,0.9,0.9H37.9z M33.6,230.5    c-0.4,0.6-0.6,0.7-1.3,1.2c0.3,0,0.5,0.1,0.9,0.1h1.2v-0.2c0-0.4,0-0.5-0.1-0.8H35c0,0.2-0.1,0.4-0.1,0.8v0.2h1.2    c0.4,0,0.6,0,0.9-0.1c-0.6-0.4-0.9-0.7-1.4-1.2H33.6z M35.7,227.9h-2v0.8h2V227.9z M35.7,229.2h-2v0.8h2V229.2z" fill="#666666" id="path_38" />
      <path d="M48.2,226.4c0.5,0,0.7,0,1-0.1v0.7c-0.3,0-0.6,0-1,0h-3v1.1h2.2c0.3,0,0.5,0,0.7,0c0,0.2,0,0.5,0,0.8v1.3    c0,0.3,0,0.5,0,0.8c-0.2,0-0.4,0-0.7,0h-1.3v2.2c0,0.3,0.1,0.3,1.1,0.3c1,0,1.2,0,1.4-0.2c0.1-0.2,0.2-0.6,0.2-1.3    c0.2,0.2,0.4,0.2,0.6,0.3c-0.1,0.9-0.2,1.4-0.4,1.6c-0.2,0.2-0.6,0.3-1.8,0.3c-1.6,0-1.7-0.1-1.7-0.8v-2.3h-1.2    c-0.1,0.5-0.1,0.8-0.3,1.1c-0.5,1.1-1.3,1.7-3,2.2c-0.1-0.3-0.2-0.4-0.4-0.6c0.7-0.2,1.1-0.3,1.6-0.6c0.9-0.5,1.3-1.2,1.4-2.2h-1    c-0.3,0-0.5,0-0.7,0c0-0.2,0-0.5,0-0.8v-1.3c0-0.3,0-0.5,0-0.8c0.2,0,0.4,0,0.7,0h1.9V227h-2.8c-0.5,0-0.8,0-1,0v-0.7    c0.3,0,0.6,0.1,1,0.1h2.8V226c0-0.4,0-0.6-0.1-0.9h0.8c-0.1,0.2-0.1,0.5-0.1,0.9v0.3H48.2z M42.6,230.3h4.8v-1.7h-4.8V230.3z" fill="#666666" id="path_37" />
      <path d="M52.7,232.4c-0.5,0.8-0.7,1.1-1.6,1.7c-0.1-0.2-0.2-0.3-0.5-0.5c0.7-0.5,1.1-0.9,1.5-1.6L52.7,232.4z     M51.8,226.2c0-0.4,0-0.7-0.1-1h0.7c0,0.3-0.1,0.6-0.1,1v0.2h1.8v-0.2c0-0.5,0-0.7-0.1-1h0.7c0,0.2-0.1,0.5-0.1,1v0.2    c0.4,0,0.6,0,0.8-0.1v0.6c-0.2,0-0.2,0-0.8,0v4.3c0.4,0,0.6,0,0.8-0.1v0.6c-0.2,0-0.5,0-0.9,0h-3c-0.4,0-0.6,0-0.8,0.1v-0.7    c0.2,0,0.4,0.1,0.8,0.1h0.2V227h-0.1c-0.4,0-0.7,0-0.9,0v-0.6c0.2,0,0.4,0.1,0.9,0.1h0.1V226.2z M54.2,228v-1h-1.8v1H54.2z     M54.2,229.6v-1h-1.8v1H54.2z M54.2,231.2v-1.1h-1.8v1.1H54.2z M54,232.1c0.5,0.6,0.6,0.8,0.9,1.2l-0.4,0.4    c-0.1-0.1-0.2-0.2-0.2-0.3c-0.2-0.3-0.2-0.3-0.4-0.5c-0.1-0.2-0.2-0.3-0.3-0.4L54,232.1z M59,228.5c0.4,0,0.6,0,0.9,0v0.7    c-0.2,0-0.4-0.1-0.8-0.1h-0.3v4.1c0,0.5,0,0.8,0.1,1.1h-0.8c0-0.3,0.1-0.6,0.1-1.1v-4.1h-1.5c-0.1,1.7-0.1,2.1-0.2,2.8    c-0.2,0.9-0.5,1.6-1.2,2.4c-0.2-0.2-0.3-0.3-0.5-0.5c0.8-0.8,1-1.5,1.2-2.6c0.1-0.9,0.2-2.1,0.2-3.5c0-0.7,0-0.9-0.1-1.4    c1.2,0,2.6-0.4,3.3-0.9l0.5,0.6c-0.8,0.3-0.8,0.3-1.2,0.4c-0.6,0.2-1.1,0.3-1.9,0.4v1.1c0,0.3,0,0.4,0,0.6H59z" fill="#666666" id="path_36" />
    </g>
    <g id="g_21">
      <path d="M203,229.5c-0.1,1.3-0.2,1.9-0.8,2.9c-0.2-0.2-0.3-0.2-0.5-0.3c0.3-0.5,0.5-0.8,0.6-1.3    c0.1-0.4,0.1-0.6,0.2-1.3L203,229.5z M202.8,228.6c-0.4,0-0.6,0-0.8,0V228c0.3,0,0.5,0.1,0.8,0.1h1.2v-1.2h-0.9    c-0.4,0-0.6,0-0.8,0.1v-0.7c0.3,0,0.5,0.1,0.8,0.1h0.9v-0.5c0-0.3,0-0.5-0.1-0.7h0.7c0,0.2-0.1,0.4-0.1,0.7v0.5h0.7    c0.3,0,0.6,0,0.8-0.1v0.7c-0.2,0-0.5,0-0.8,0h-0.7v1.2h0.8c0.3,0,0.5,0,0.8-0.1v0.6c-0.2,0-0.4,0-0.8,0h-0.2v4.7    c0,0.6-0.2,0.7-1,0.7c-0.1,0-0.2,0-0.4,0c0-0.3-0.1-0.4-0.1-0.6c0.3,0,0.5,0.1,0.7,0.1c0.2,0,0.2,0,0.2-0.2v-4.6h-0.6l0,0.8    c0,1.3-0.2,2.3-0.5,3.1c-0.2,0.6-0.5,1.1-1.1,1.7c-0.2-0.3-0.3-0.3-0.5-0.5c1.1-1,1.5-2.1,1.5-4.3l0-0.8H202.8z M205.9,229.3    c0.2,0.7,0.3,1,0.4,1.7l-0.5,0.2c-0.1-0.7-0.2-1.2-0.4-1.8L205.9,229.3z M207.2,229.6c-0.1,1.5-0.2,2.1-0.8,3.1    c-0.2-0.2-0.3-0.2-0.5-0.3c0.3-0.5,0.4-0.7,0.5-1.1c0.2-0.5,0.2-0.9,0.2-1.8L207.2,229.6z M207.3,228.6c-0.4,0-0.6,0-0.8,0V228    c0.3,0,0.5,0.1,0.8,0.1h1v-1.2h-0.9c-0.4,0-0.6,0-0.8,0.1v-0.7c0.2,0,0.5,0.1,0.8,0.1h0.9v-0.5c0-0.3,0-0.5-0.1-0.7h0.7    c0,0.2-0.1,0.5-0.1,0.7v0.5h1.1c0.3,0,0.6,0,0.8-0.1v0.7c-0.3,0-0.5-0.1-0.8-0.1h-1.1v1.2h1.4c0.3,0,0.6,0,0.8-0.1v0.6    c-0.2,0-0.4,0-0.8,0h-0.8v4.8c0,0.3-0.1,0.5-0.2,0.6c-0.1,0.1-0.3,0.1-0.8,0.1c-0.1,0-0.2,0-0.4,0c0-0.2,0-0.4-0.1-0.6    c0.3,0.1,0.5,0.1,0.7,0.1c0.2,0,0.2,0,0.2-0.2v-4.7h-0.7l0,0.9c0,1.4-0.2,2.5-0.6,3.2c-0.3,0.6-0.6,1-1.2,1.5l-0.1-0.1    c-0.2-0.2-0.2-0.2-0.4-0.4c0.6-0.5,0.8-0.8,1.1-1.4c0.3-0.7,0.5-1.7,0.5-3l0-0.8H207.3z M210.4,229.5c0.3,1.2,0.4,1.9,0.6,3.1    l-0.5,0.1c-0.2-1.8-0.3-2.1-0.6-3.1L210.4,229.5z" fill="#666666" id="path_35" />
      <path d="M217,231.3h2.7c0.4,0,0.6,0,0.9,0v0.7c-0.3,0-0.5-0.1-0.9-0.1H217v1.4h3.1c0.5,0,0.8,0,1.1-0.1v0.7    c-0.3,0-0.7-0.1-1.1-0.1h-6.7c-0.4,0-0.7,0-1.1,0.1v-0.7c0.2,0,0.6,0.1,1.1,0.1h3v-1.4h-2.6c-0.4,0-0.6,0-0.9,0.1v-0.7    c0.2,0,0.5,0,0.9,0h2.6v-1.2h-1.9c-0.6,0-0.9,0-1.2,0.1c0-0.3,0-0.5,0-1.1v-2.3c0-0.6,0-0.8,0-1.1c0.2,0.1,0.5,0.1,1.1,0.1h4.7    c0.6,0,0.9,0,1.1-0.1c0,0.3,0,0.5,0,1.1v2.4c0,0.6,0,0.8,0,1.1c-0.3,0-0.6-0.1-1.1-0.1H217V231.3z M216.4,226.3H214v1.3h2.4V226.3    z M216.4,228.1H214v1.4h2.4V228.1z M219.5,227.6v-1.3H217v1.3H219.5z M219.5,229.5v-1.4H217v1.4H219.5z" fill="#666666" id="path_34" />
      <path d="M224.5,233.2c0,0.5,0,0.8,0.1,1.1h-0.7c0-0.3,0.1-0.7,0.1-1.1v-3c-0.3,0.3-0.7,0.7-1.3,1.2    c-0.1-0.3-0.2-0.4-0.4-0.5c0.8-0.5,1.2-1,1.8-1.6c0.5-0.6,0.8-1,1.1-1.8h-1.7c-0.2,0-0.5,0-0.8,0v-0.6c0.3,0,0.5,0,0.7,0h1.8    c0.2,0,0.4,0,0.5,0l0.3,0.4c-0.1,0.1-0.1,0.2-0.2,0.4c-0.3,0.7-0.5,1-1.1,1.8c0.1,0.1,0.2,0.1,0.4,0.3c0.3,0.2,0.5,0.4,0.9,0.8    l-0.4,0.5c-0.3-0.4-0.5-0.7-0.9-1.1V233.2z M223.9,225.1c0.4,0.4,0.6,0.7,1,1.4l-0.5,0.3c-0.3-0.6-0.5-1-0.9-1.4L223.9,225.1z     M225.7,225.5c0.3,0,0.6,0,1,0h3.7c0.4,0,0.7,0,1,0v0.7c-0.3,0-0.6,0-0.9,0h-3.8c-0.4,0-0.7,0-0.9,0V225.5z M230.3,229.9    c0.5,0,0.7,0,1,0c0,0.2,0,0.5,0,1v2.4c0,0.4,0,0.7,0.1,1h-0.7v-0.5h-4.1v0.5h-0.6c0-0.3,0.1-0.6,0.1-1v-2.4c0-0.4,0-0.7,0-1    c0.2,0,0.5,0,1,0H230.3z M226.4,227.7c0-0.4,0-0.6,0-0.8c0.3,0,0.5,0,0.9,0h2.5c0.4,0,0.7,0,0.9,0c0,0.3,0,0.4,0,0.8v0.6    c0,0.4,0,0.6,0,0.8c-0.3,0-0.5,0-0.9,0h-2.5c-0.4,0-0.7,0-0.9,0c0-0.2,0-0.5,0-0.8V227.7z M226.5,231.5h1.7v-1.1h-1.7V231.5z     M226.5,233.2h1.7V232h-1.7V233.2z M227,228.6h3.1v-1.2H227V228.6z M228.8,231.5h1.8v-1.1h-1.8V231.5z M228.8,233.2h1.8V232h-1.8    V233.2z" fill="#666666" id="path_33" />
      <path d="M233.7,230.7c0-0.4,0-0.7,0-1.2c-0.3,0.5-0.5,0.7-0.9,1.1c-0.1-0.3-0.2-0.3-0.4-0.5c0.7-0.5,1.2-1.1,1.7-1.9    c0.2-0.3,0.4-0.7,0.4-0.9l0.6,0.3c-0.1,0.1-0.1,0.2-0.3,0.5c-0.1,0.2-0.3,0.5-0.5,0.8v4.2c0,0.7,0,0.9,0,1.2h-0.7    c0-0.3,0.1-0.6,0.1-1.2V230.7z M235.2,225.5c-0.1,0.1-0.1,0.1-0.3,0.3c-0.6,0.7-1.2,1.3-1.9,1.8c-0.1-0.2-0.2-0.3-0.4-0.5    c0.5-0.3,0.8-0.5,1.2-0.9c0.5-0.4,0.7-0.8,0.9-1.1L235.2,225.5z M234.8,233.4c0.5-0.7,0.7-1.1,0.9-1.8l0.6,0.2    c-0.3,0.9-0.5,1.3-0.9,1.9L234.8,233.4z M235.2,230.4c0.3,0,0.5,0,1,0h4.6c0.5,0,0.7,0,1,0v0.6c-0.3,0-0.5,0-1,0h-4.6    c-0.4,0-0.6,0-1,0V230.4z M238.1,226c0.1-0.3,0.1-0.7,0.1-0.8c0,0,0-0.1,0-0.1l0.7,0.1c0,0.1,0,0.3-0.1,0.7c0,0.1,0,0.1,0,0.2h2.1    c0.5,0,0.7,0,1,0v0.6c-0.3,0-0.5,0-1,0h-2.2c0,0.1,0,0.1,0,0.2c0,0.1-0.1,0.3-0.1,0.6h2c0.4,0,0.7,0,0.9,0c0,0.2,0,0.4,0,0.7v0.9    c0,0.3,0,0.5,0,0.7c-0.2,0-0.5,0-0.9,0h-4.1c-0.4,0-0.6,0-0.9,0c0-0.2,0-0.3,0-0.6v-1c0-0.3,0-0.5,0-0.7c0.3,0,0.5,0,0.8,0h1.5    c0.1-0.3,0.1-0.5,0.2-0.8h-1.7c-0.4,0-0.6,0-1,0V226c0.3,0,0.5,0,1,0H238.1z M236.1,229.2h1.2v-1.3h-1.2V229.2z M237.4,233.2    c0,0.2,0.2,0.3,1.1,0.3c0.6,0,0.9,0,1-0.1c0.1-0.1,0.2-0.2,0.2-1c0.2,0.1,0.4,0.2,0.6,0.2c-0.1,0.7-0.2,1.1-0.5,1.2    c-0.2,0.1-0.7,0.2-1.6,0.2c-1.2,0-1.5-0.1-1.5-0.7v-1.1c0-0.3,0-0.6-0.1-0.8h0.7c0,0.2-0.1,0.5-0.1,0.8V233.2z M239,232.7    c-0.1-0.1-0.1-0.2-0.2-0.2c-0.4-0.5-0.5-0.5-1-1l0.4-0.3c0.5,0.4,0.8,0.6,1.3,1.1L239,232.7z M237.8,229.2h1.1v-1.3h-1.1V229.2z     M239.5,229.2h1.2v-1.3h-1.2V229.2z M241.4,233.6c-0.5-1-0.7-1.2-1.2-1.8l0.5-0.3c0.5,0.7,0.8,1,1.2,1.8L241.4,233.6z" fill="#666666" id="path_32" />
    </g>
    <g id="g_20">
      <path d="M384,229.5c-0.1,1.3-0.2,1.9-0.8,2.9c-0.2-0.2-0.3-0.2-0.5-0.3c0.3-0.5,0.5-0.8,0.6-1.3    c0.1-0.4,0.1-0.6,0.2-1.3L384,229.5z M383.8,228.6c-0.4,0-0.6,0-0.8,0V228c0.3,0,0.5,0.1,0.8,0.1h1.2v-1.2h-0.9    c-0.4,0-0.6,0-0.8,0.1v-0.7c0.3,0,0.5,0.1,0.8,0.1h0.9v-0.5c0-0.3,0-0.5-0.1-0.7h0.7c0,0.2-0.1,0.4-0.1,0.7v0.5h0.7    c0.3,0,0.6,0,0.8-0.1v0.7c-0.2,0-0.5,0-0.8,0h-0.7v1.2h0.8c0.3,0,0.5,0,0.8-0.1v0.6c-0.2,0-0.4,0-0.8,0h-0.2v4.7    c0,0.6-0.2,0.7-1,0.7c-0.2,0-0.2,0-0.4,0c0-0.3-0.1-0.4-0.1-0.6c0.3,0,0.5,0.1,0.7,0.1c0.2,0,0.2,0,0.2-0.2v-4.6h-0.6l0,0.8    c0,1.3-0.2,2.3-0.5,3.1c-0.2,0.6-0.5,1.1-1.1,1.7c-0.2-0.3-0.3-0.3-0.5-0.5c1.1-1,1.5-2.1,1.5-4.3l0-0.8H383.8z M386.9,229.3    c0.2,0.7,0.3,1,0.4,1.7l-0.5,0.2c-0.1-0.7-0.2-1.2-0.4-1.8L386.9,229.3z M388.2,229.6c-0.1,1.5-0.2,2.1-0.8,3.1    c-0.2-0.2-0.3-0.2-0.5-0.3c0.3-0.5,0.4-0.7,0.5-1.1c0.2-0.5,0.2-0.9,0.2-1.8L388.2,229.6z M388.3,228.6c-0.4,0-0.6,0-0.8,0V228    c0.3,0,0.5,0.1,0.8,0.1h1v-1.2h-0.9c-0.4,0-0.6,0-0.8,0.1v-0.7c0.2,0,0.5,0.1,0.8,0.1h0.9v-0.5c0-0.3,0-0.5-0.1-0.7h0.7    c0,0.2-0.1,0.5-0.1,0.7v0.5h1.1c0.3,0,0.6,0,0.8-0.1v0.7c-0.3,0-0.5-0.1-0.8-0.1h-1.1v1.2h1.4c0.3,0,0.6,0,0.8-0.1v0.6    c-0.2,0-0.4,0-0.8,0h-0.8v4.8c0,0.3-0.1,0.5-0.2,0.6c-0.1,0.1-0.3,0.1-0.8,0.1c-0.1,0-0.2,0-0.4,0c0-0.2,0-0.4-0.1-0.6    c0.3,0.1,0.5,0.1,0.7,0.1c0.2,0,0.2,0,0.2-0.2v-4.7h-0.7l0,0.9c0,1.4-0.2,2.5-0.6,3.2c-0.3,0.6-0.6,1-1.2,1.5l-0.1-0.1    c-0.2-0.2-0.2-0.2-0.4-0.4c0.6-0.5,0.8-0.8,1.1-1.4c0.3-0.7,0.5-1.7,0.5-3l0-0.8H388.3z M391.4,229.5c0.3,1.2,0.5,1.9,0.6,3.1    l-0.5,0.1c-0.2-1.8-0.3-2.1-0.6-3.1L391.4,229.5z" fill="#666666" id="path_31" />
      <path d="M394.9,227.3V226c0-0.3,0-0.6-0.1-0.8h0.8c0,0.3-0.1,0.5-0.1,0.8v1.3h0.2c0.4,0,0.6,0,0.9-0.1v0.7    c-0.3,0-0.5,0-0.8,0h-0.2v2c0.3-0.1,0.5-0.2,1-0.5l0,0.6l0,0c0.2,0,0.5,0,0.9,0h2.9v-1.2h-2.9c-0.5,0-0.7,0-1,0.1v-0.7    c0.3,0,0.6,0.1,1,0.1h1.4v-1.3h-1.1c-0.4,0-0.7,0-0.9,0v-0.7c0.2,0,0.5,0.1,0.9,0.1h1.1V226c0-0.3,0-0.6-0.1-0.8h0.7    c0,0.3-0.1,0.5-0.1,0.8v0.4h1.4c0.4,0,0.7,0,1-0.1v0.7c-0.3,0-0.6,0-1,0h-1.4v1.3h1.7c0.5,0,0.7,0,1-0.1v0.7c-0.3,0-0.6-0.1-1-0.1    H401v1.2h0.3c0.4,0,0.7,0,1-0.1v0.7c-0.3,0-0.6-0.1-1-0.1H401v2.8c0,0.6-0.2,0.7-1,0.7c-0.3,0-0.6,0-1,0c0-0.3-0.1-0.4-0.2-0.7    c0.5,0.1,0.9,0.1,1.1,0.1c0.4,0,0.4,0,0.4-0.3v-2.7h-2.9c-0.4,0-0.7,0-1,0.1V230c-0.3,0.2-0.3,0.2-0.9,0.5v2.8c0,0.4,0,0.7,0.1,1    h-0.8c0-0.3,0.1-0.6,0.1-1v-2.5c0,0-0.1,0-0.1,0c-0.9,0.4-1.2,0.5-1.4,0.6l-0.2-0.7c0.4-0.1,0.9-0.2,1.7-0.6v-2.2h-0.8    c-0.1,0.5-0.2,0.9-0.4,1.5c-0.2-0.1-0.3-0.2-0.5-0.3c0.2-0.6,0.4-1,0.5-1.6c0.1-0.5,0.1-0.9,0.1-1.3c0-0.1,0-0.1,0-0.3l0.6,0.1    c0,0.1,0,0.1,0,0.3c0,0.3-0.1,0.6-0.1,0.9H394.9z M397.7,230.9c0.6,0.6,1,1,1.4,1.6l-0.5,0.4c-0.4-0.7-0.8-1.1-1.4-1.7    L397.7,230.9z" fill="#666666" id="path_30" />
      <path d="M405.5,233.2c0,0.5,0,0.8,0.1,1.1h-0.7c0-0.3,0-0.7,0-1.1v-3c-0.3,0.3-0.7,0.7-1.3,1.2    c-0.1-0.3-0.2-0.4-0.4-0.5c0.8-0.5,1.2-1,1.8-1.6c0.5-0.6,0.8-1,1.1-1.8h-1.7c-0.2,0-0.5,0-0.8,0v-0.6c0.3,0,0.5,0,0.7,0h1.8    c0.2,0,0.4,0,0.5,0l0.3,0.4c-0.1,0.1-0.1,0.2-0.2,0.4c-0.3,0.7-0.5,1-1.1,1.8c0.2,0.1,0.2,0.1,0.4,0.3c0.3,0.2,0.5,0.4,0.9,0.8    l-0.4,0.5c-0.3-0.4-0.5-0.7-0.9-1.1V233.2z M404.9,225.1c0.4,0.4,0.6,0.7,1,1.4l-0.5,0.3c-0.3-0.6-0.5-1-0.9-1.4L404.9,225.1z     M406.7,225.5c0.3,0,0.6,0,1,0h3.7c0.4,0,0.7,0,1,0v0.7c-0.3,0-0.6,0-0.9,0h-3.8c-0.4,0-0.7,0-1,0V225.5z M411.3,229.9    c0.5,0,0.8,0,1,0c0,0.2,0,0.5,0,1v2.4c0,0.4,0,0.7,0.1,1h-0.7v-0.5h-4.1v0.5h-0.6c0-0.3,0.1-0.6,0.1-1v-2.4c0-0.4,0-0.7,0-1    c0.2,0,0.5,0,1,0H411.3z M407.4,227.7c0-0.4,0-0.6,0-0.8c0.3,0,0.5,0,0.9,0h2.5c0.4,0,0.7,0,0.9,0c0,0.3,0,0.4,0,0.8v0.6    c0,0.4,0,0.6,0,0.8c-0.3,0-0.5,0-1,0h-2.5c-0.4,0-0.7,0-0.9,0c0-0.2,0-0.5,0-0.8V227.7z M407.5,231.5h1.7v-1.1h-1.7V231.5z     M407.5,233.2h1.7V232h-1.7V233.2z M408,228.6h3.1v-1.2H408V228.6z M409.8,231.5h1.8v-1.1h-1.8V231.5z M409.8,233.2h1.8V232h-1.8    V233.2z" fill="#666666" id="path_29" />
      <path d="M414.7,230.7c0-0.4,0-0.7,0-1.2c-0.3,0.5-0.5,0.7-0.9,1.1c-0.1-0.3-0.2-0.3-0.4-0.5c0.7-0.5,1.2-1.1,1.7-1.9    c0.2-0.3,0.4-0.7,0.5-0.9l0.6,0.3c-0.1,0.1-0.1,0.2-0.3,0.5c-0.1,0.2-0.3,0.5-0.5,0.8v4.2c0,0.7,0,0.9,0,1.2h-0.7    c0-0.3,0.1-0.6,0.1-1.2V230.7z M416.2,225.5c-0.1,0.1-0.1,0.1-0.3,0.3c-0.6,0.7-1.2,1.3-1.9,1.8c-0.1-0.2-0.2-0.3-0.4-0.5    c0.5-0.3,0.8-0.5,1.2-0.9c0.5-0.4,0.7-0.8,0.9-1.1L416.2,225.5z M415.8,233.4c0.5-0.7,0.7-1.1,0.9-1.8l0.6,0.2    c-0.3,0.9-0.5,1.3-0.9,1.9L415.8,233.4z M416.2,230.4c0.3,0,0.5,0,1,0h4.6c0.5,0,0.7,0,1,0v0.6c-0.3,0-0.5,0-1,0h-4.6    c-0.4,0-0.6,0-1,0V230.4z M419.1,226c0.1-0.3,0.1-0.7,0.1-0.8c0,0,0-0.1,0-0.1l0.7,0.1c0,0.1,0,0.3-0.1,0.7c0,0.1,0,0.1,0,0.2h2.1    c0.5,0,0.7,0,1,0v0.6c-0.3,0-0.5,0-1,0h-2.2c0,0.1,0,0.1,0,0.2c0,0.1-0.1,0.3-0.1,0.6h2c0.4,0,0.7,0,0.9,0c0,0.2,0,0.4,0,0.7v0.9    c0,0.3,0,0.5,0,0.7c-0.2,0-0.5,0-0.9,0h-4.1c-0.4,0-0.6,0-0.9,0c0-0.2,0-0.3,0-0.6v-1c0-0.3,0-0.5,0-0.7c0.3,0,0.5,0,0.8,0h1.5    c0.1-0.3,0.1-0.5,0.2-0.8h-1.7c-0.4,0-0.7,0-1,0V226c0.3,0,0.5,0,1,0H419.1z M417.1,229.2h1.2v-1.3h-1.2V229.2z M418.4,233.2    c0,0.2,0.2,0.3,1.1,0.3c0.6,0,0.9,0,1-0.1c0.1-0.1,0.2-0.2,0.2-1c0.2,0.1,0.4,0.2,0.6,0.2c-0.1,0.7-0.2,1.1-0.5,1.2    c-0.2,0.1-0.7,0.2-1.6,0.2c-1.2,0-1.5-0.1-1.5-0.7v-1.1c0-0.3,0-0.6-0.1-0.8h0.7c0,0.2-0.1,0.5-0.1,0.8V233.2z M420,232.7    c-0.1-0.1-0.1-0.2-0.2-0.2c-0.4-0.5-0.5-0.5-1-1l0.4-0.3c0.5,0.4,0.8,0.6,1.3,1.1L420,232.7z M418.8,229.2h1.1v-1.3h-1.1V229.2z     M420.5,229.2h1.2v-1.3h-1.2V229.2z M422.4,233.6c-0.5-1-0.7-1.2-1.2-1.8l0.5-0.3c0.5,0.7,0.8,1,1.2,1.8L422.4,233.6z" fill="#666666" id="path_28" />
      <path d="M426,229.6c-0.1,0.4-0.2,0.6-0.4,1.1h2.2c0.3,0,0.5,0,0.7,0c0,0.2,0,0.4,0,0.8v1.9c0,0.4,0,0.7,0,0.9h-0.7    v-0.5h-2.1v0.6h-0.7c0-0.2,0-0.5,0-0.8v-1.1c0-0.4,0-0.6,0-0.9c-0.5,0.9-0.5,1-1,1.6c-0.2-0.2-0.3-0.4-0.5-0.5    c0.8-0.9,1.2-1.7,1.6-2.9h-0.3c-0.4,0-0.6,0-0.8,0.1v-0.6c0.2,0,0.5,0,0.8,0h0.4c0.1-0.3,0.2-0.7,0.2-1.2h-1c-0.3,0-0.6,0-0.9,0.1    v-0.7c0.3,0,0.5,0.1,0.9,0.1h1c0-0.3,0-0.3,0.1-1.2h-0.7c-0.3,0-0.5,0-0.8,0v-0.6c0.3,0,0.5,0,0.8,0h2.5c0.3,0,0.5,0,0.7,0    c0,0.2,0,0.4,0,0.6v1.2h0.1c0.3,0,0.4,0,0.6,0v0.6c-0.2,0-0.4,0-0.6,0h-0.1v1.1c0,0.2,0,0.4,0,0.6c-0.2,0-0.5,0-0.7,0H426z     M425.9,233.2h2.1v-2h-2.1V233.2z M428,229.1v-1.2h-1.6c0,0.4-0.1,0.8-0.2,1.2H428z M428,227.4v-1.2h-1.5c0,0.2,0,0.3,0,0.4    c0,0.4,0,0.4,0,0.8H428z M433,225.9c-0.1,0.2-0.1,0.2-0.2,0.4c-0.4,0.9-0.8,1.7-1.2,2.5c0.6,0.7,0.9,1,1.1,1.5    c0.2,0.4,0.3,0.9,0.3,1.4c0,0.6-0.2,1-0.6,1.1c-0.2,0.1-0.5,0.1-0.9,0.1c-0.3,0-0.5,0-0.8,0c0-0.3,0-0.5-0.1-0.7    c0.3,0.1,0.6,0.1,1,0.1c0.6,0,0.8-0.2,0.8-0.7c0-0.5-0.1-1-0.3-1.4c-0.2-0.4-0.5-0.8-1.1-1.3c0.6-1,0.9-1.7,1.3-2.8h-2v7.1    c0,0.5,0,0.8,0.1,1.1h-0.8c0-0.3,0.1-0.6,0.1-1.1v-6.7c0-0.3,0-0.6,0-0.9c0.2,0,0.5,0,0.8,0h1.6c0.4,0,0.6,0,0.8,0L433,225.9z" fill="#666666" id="path_27" />
    </g>
    <g id="g_19">
      <path d="M572.8,233.5c-0.3,0-0.6-0.1-1.2-0.1h-6.2c-0.5,0-0.9,0-1.2,0.1v-0.8c0.3,0,0.7,0.1,1.2,0.1h6.2    c0.5,0,0.8,0,1.2-0.1V233.5z M571.2,227.3c0.4,0,0.7,0,1-0.1v0.7c-0.3,0-0.6-0.1-1-0.1h-5.4c-0.4,0-0.7,0-1,0.1v-0.7    c0.3,0,0.6,0.1,1,0.1h3.3c0.5-0.9,0.8-1.4,1.1-2.2l0.7,0.2c-0.4,0.8-0.7,1.4-1,1.9H571.2z M565.5,229.8c0.3,0,0.6,0.1,1,0.1h3.9    c0.5,0,0.8,0,1-0.1v0.8c-0.3,0-0.6-0.1-1-0.1h-3.9c-0.5,0-0.8,0-1,0.1V229.8z M566.7,225.2c0.5,0.6,0.7,0.9,1.1,1.7l-0.6,0.3    c-0.4-0.8-0.6-1.1-1-1.7L566.7,225.2z" fill="#666666" id="path_26" />
      <path d="M580.7,229.2h1.4c0.4,0,0.8,0,1-0.1v0.7c-0.3,0-0.6-0.1-1-0.1h-1.4v3c0,0.5,0,0.8,0.1,1.2h-0.8    c0-0.3,0.1-0.7,0.1-1.2v-3h-2.4c0,1-0.2,1.7-0.5,2.4c-0.4,0.8-1,1.3-2.1,1.9c-0.1-0.2-0.3-0.4-0.5-0.6c1.8-0.8,2.4-1.7,2.5-3.6    h-1.4c-0.4,0-0.7,0-1,0.1v-0.7c0.3,0,0.6,0.1,1,0.1h1.4c0,0,0,0,0-0.2v-2.4h-1c-0.4,0-0.8,0-1,0.1V226c0.3,0,0.6,0.1,1,0.1h5.7    c0.4,0,0.8,0,1-0.1v0.7c-0.3,0-0.6-0.1-1-0.1h-1V229.2z M577.6,226.6v2.4c0,0.1,0,0.1,0,0.1h2.4v-2.6H577.6z" fill="#666666" id="path_25" />
      <path d="M591.8,231.5c-0.1,0.1-0.2,0.1-0.3,0.3c-0.4,0.4-1.1,0.9-1.7,1.2c1.3,0.5,2.5,0.7,3.8,0.7    c-0.2,0.2-0.2,0.4-0.3,0.6c-1.6-0.2-2.9-0.5-4.2-1c-1.4,0.6-2.6,0.9-4.4,1.1c-0.1-0.3-0.1-0.4-0.3-0.6c1.4-0.1,2.8-0.4,3.9-0.8    c-0.6-0.3-0.9-0.6-1.6-1.1c-0.6,0.5-1,0.7-1.9,1.1c-0.1-0.2-0.2-0.3-0.4-0.5c1.4-0.5,2.4-1.1,3-1.9h-0.6c-0.4,0-0.7,0-1,0.1    c0-0.2,0-0.5,0-1.1v-1.8c0-0.4,0-0.7,0-1c0.3,0,0.5,0,1.1,0h1.1c0.2-0.2,0.3-0.5,0.4-0.7h-2.9c-0.4,0-0.7,0-1,0.1v-0.7    c0.3,0,0.6,0.1,1,0.1h6.7c0.5,0,0.8,0,1-0.1v0.7c-0.3,0-0.6-0.1-1-0.1h-3.2c-0.1,0.2-0.3,0.5-0.4,0.7h2.2c0.6,0,0.8,0,1.1,0    c0,0.3,0,0.6,0,1v1.8c0,0.6,0,0.9,0,1.1c-0.3,0-0.7-0.1-1-0.1h-2.9c-0.2,0.2-0.2,0.2-0.6,0.6h2.9c0.5,0,0.7,0,0.9,0L591.8,231.5z     M586.5,227.8h5v-0.6h-5V227.8z M586.5,228.9h5v-0.6h-5V228.9z M586.5,230.1h5v-0.7h-5V230.1z M587.4,231.7c0.6,0.4,1,0.7,1.7,1    c0.8-0.3,1.2-0.6,1.7-1H587.4z" fill="#666666" id="path_24" />
      <path d="M596.8,229.6c-0.1,0.4-0.2,0.6-0.4,1.1h2.2c0.3,0,0.5,0,0.7,0c0,0.2,0,0.4,0,0.8v1.9c0,0.4,0,0.7,0,0.9h-0.7    v-0.5h-2.1v0.6h-0.7c0-0.2,0-0.5,0-0.8v-1.1c0-0.4,0-0.6,0-0.9c-0.5,0.9-0.5,1-1,1.6c-0.2-0.2-0.3-0.4-0.5-0.5    c0.8-0.9,1.2-1.7,1.6-2.9h-0.3c-0.4,0-0.6,0-0.8,0.1v-0.6c0.2,0,0.5,0,0.8,0h0.4c0.1-0.3,0.2-0.7,0.2-1.2h-1c-0.3,0-0.6,0-0.9,0.1    v-0.7c0.3,0,0.5,0.1,0.9,0.1h1c0-0.3,0-0.3,0.1-1.2H596c-0.3,0-0.5,0-0.8,0v-0.6c0.3,0,0.5,0,0.8,0h2.5c0.3,0,0.5,0,0.7,0    c0,0.2,0,0.4,0,0.6v1.2h0.1c0.3,0,0.4,0,0.6,0v0.6c-0.2,0-0.4,0-0.6,0h-0.1v1.1c0,0.2,0,0.4,0,0.6c-0.2,0-0.5,0-0.7,0H596.8z     M596.6,233.2h2.1v-2h-2.1V233.2z M598.7,229.1v-1.2h-1.6c0,0.4-0.1,0.8-0.2,1.2H598.7z M598.7,227.4v-1.2h-1.5c0,0.2,0,0.3,0,0.4    c0,0.4,0,0.4,0,0.8H598.7z M603.8,225.9c-0.1,0.2-0.1,0.2-0.2,0.4c-0.4,0.9-0.8,1.7-1.2,2.5c0.6,0.7,0.9,1,1.1,1.5    c0.2,0.4,0.3,0.9,0.3,1.4c0,0.6-0.2,1-0.6,1.1c-0.2,0.1-0.5,0.1-0.9,0.1c-0.3,0-0.5,0-0.8,0c0-0.3,0-0.5-0.1-0.7    c0.3,0.1,0.6,0.1,1,0.1c0.6,0,0.8-0.2,0.8-0.7c0-0.5-0.1-1-0.3-1.4c-0.2-0.4-0.5-0.8-1.1-1.3c0.6-1,0.9-1.7,1.3-2.8h-2v7.1    c0,0.5,0,0.8,0.1,1.1h-0.8c0-0.3,0.1-0.6,0.1-1.1v-6.7c0-0.3,0-0.6,0-0.9c0.2,0,0.5,0,0.8,0h1.6c0.4,0,0.6,0,0.8,0L603.8,225.9z" fill="#666666" id="path_23" />
    </g>
    <circle cx="24.5" cy="142.8" r="5" fill="#216AFF" id="circle_415" />
    <ellipse cx="24.5" cy="155.2" rx="5" ry="5" fill="#216AFF" id="ellipse_47" />
    <circle cx="24.5" cy="167.6" r="5" fill="#216AFF" id="circle_414" />
    <circle cx="24.5" cy="179.9" r="5" fill="#F05A42" id="circle_413" />
    <circle cx="24.5" cy="192.3" r="5" fill="#FAAF3B" id="circle_412" />
    <circle cx="36.9" cy="142.8" r="5" fill="#216AFF" id="circle_411" />
    <ellipse cx="36.9" cy="155.2" rx="5" ry="5" fill="#216AFF" id="ellipse_46" />
    <circle cx="36.9" cy="167.6" r="5" fill="#216AFF" id="circle_410" />
    <circle cx="36.9" cy="179.9" r="5" fill="#F05A42" id="circle_409" />
    <circle cx="36.9" cy="192.3" r="5" fill="#8BC53F" id="circle_408" />
    <circle cx="49.4" cy="142.8" r="5" fill="#216AFF" id="circle_407" />
    <ellipse cx="49.4" cy="155.2" rx="5" ry="5" fill="#216AFF" id="ellipse_45" />
    <circle cx="49.4" cy="167.6" r="5" fill="#216AFF" id="circle_406" />
    <circle cx="49.4" cy="179.9" r="5" fill="#F05A42" id="circle_405" />
    <circle cx="49.4" cy="192.3" r="5" fill="#8BC53F" id="circle_404" />
    <circle cx="61.7" cy="142.8" r="5" fill="#216AFF" id="circle_403" />
    <ellipse cx="61.7" cy="155.2" rx="5" ry="5" fill="#216AFF" id="ellipse_44" />
    <circle cx="61.7" cy="167.6" r="5" fill="#216AFF" id="circle_402" />
    <circle cx="61.7" cy="179.9" r="5" fill="#FAAF3B" id="circle_401" />
    <circle cx="61.7" cy="192.3" r="5" fill="#8BC53F" id="circle_400" />
    <circle cx="74.1" cy="142.8" r="5" fill="#216AFF" id="circle_399" />
    <ellipse cx="74.1" cy="155.2" rx="5" ry="5" fill="#216AFF" id="ellipse_43" />
    <circle cx="74.1" cy="167.6" r="5" fill="#216AFF" id="circle_398" />
    <circle cx="74.1" cy="179.9" r="5" fill="#FAAF3B" id="circle_397" />
    <circle cx="74.1" cy="192.3" r="5" fill="#8BC53F" id="circle_396" />
    <circle cx="86.5" cy="142.8" r="5" fill="#216AFF" id="circle_395" />
    <ellipse cx="86.5" cy="155.2" rx="5" ry="5" fill="#216AFF" id="ellipse_42" />
    <circle cx="86.5" cy="167.6" r="5" fill="#216AFF" id="circle_394" />
    <circle cx="86.5" cy="179.9" r="5" fill="#FAAF3B" id="circle_393" />
    <circle cx="86.5" cy="192.3" r="5" fill="#8BC53F" id="circle_392" />
    <circle cx="98.7" cy="142.8" r="5" fill="#216AFF" id="circle_391" />
    <ellipse cx="98.7" cy="155.2" rx="5" ry="5" fill="#216AFF" id="ellipse_41" />
    <circle cx="98.7" cy="167.6" r="5" fill="#216AFF" id="circle_390" />
    <circle cx="98.7" cy="179.9" r="5" fill="#FAAF3B" id="circle_389" />
    <circle cx="98.7" cy="192.3" r="5" fill="#A57C52" id="circle_388" />
    <circle cx="111.1" cy="142.8" r="5" fill="#216AFF" id="circle_387" />
    <ellipse cx="111.1" cy="155.2" rx="5" ry="5" fill="#216AFF" id="ellipse_40" />
    <circle cx="111.1" cy="167.6" r="5" fill="#F05A42" id="circle_386" />
    <circle cx="111.1" cy="179.9" r="5" fill="#FAAF3B" id="circle_385" />
    <circle cx="111.1" cy="192.3" r="5" fill="#A57C52" id="circle_384" />
    <circle cx="123.5" cy="142.8" r="5" fill="#216AFF" id="circle_383" />
    <ellipse cx="123.5" cy="155.2" rx="5" ry="5" fill="#216AFF" id="ellipse_39" />
    <circle cx="123.5" cy="167.6" r="5" fill="#F05A42" id="circle_382" />
    <circle cx="123.5" cy="179.9" r="5" fill="#FAAF3B" id="circle_381" />
    <circle cx="123.5" cy="192.3" r="5" fill="#A57C52" id="circle_380" />
    <circle cx="135.8" cy="142.8" r="5" fill="#216AFF" id="circle_379" />
    <ellipse cx="135.8" cy="155.2" rx="5" ry="5" fill="#216AFF" id="ellipse_38" />
    <circle cx="135.8" cy="167.6" r="5" fill="#F05A42" id="circle_378" />
    <circle cx="135.8" cy="179.9" r="5" fill="#FAAF3B" id="circle_377" />
    <circle cx="135.8" cy="192.3" r="5" fill="#A57C52" id="circle_376" />
    <circle cx="148.3" cy="142.8" r="5" fill="#216AFF" id="circle_375" />
    <ellipse cx="148.3" cy="155.2" rx="5" ry="5" fill="#216AFF" id="ellipse_37" />
    <circle cx="148.3" cy="167.6" r="5" fill="#F05A42" id="circle_374" />
    <circle cx="148.3" cy="179.9" r="5" fill="#FAAF3B" id="circle_373" />
    <circle cx="148.3" cy="192.3" r="5" fill="#A57C52" id="circle_372" />
    <circle cx="160.7" cy="142.8" r="5" fill="#216AFF" id="circle_371" />
    <ellipse cx="160.7" cy="155.2" rx="5" ry="5" fill="#216AFF" id="ellipse_36" />
    <circle cx="160.7" cy="167.6" r="5" fill="#F05A42" id="circle_370" />
    <circle cx="160.7" cy="179.9" r="5" fill="#FAAF3B" id="circle_369" />
    <circle cx="206.1" cy="142.8" r="5" fill="#216AFF" id="circle_368" />
    <ellipse cx="206.1" cy="155.2" rx="5" ry="5" fill="#216AFF" id="ellipse_35" />
    <circle cx="206.1" cy="167.6" r="5" fill="#216AFF" id="circle_367" />
    <circle cx="206.1" cy="179.9" r="5" fill="#FAAF3B" id="circle_366" />
    <circle cx="206.1" cy="192.3" r="5" fill="#FAAF3B" id="circle_365" />
    <circle cx="218.5" cy="142.8" r="5" fill="#216AFF" id="circle_364" />
    <ellipse cx="218.5" cy="155.2" rx="5" ry="5" fill="#216AFF" id="ellipse_34" />
    <circle cx="218.5" cy="167.6" r="5" fill="#216AFF" id="circle_363" />
    <circle cx="218.5" cy="179.9" r="5" fill="#FAAF3B" id="circle_362" />
    <circle cx="218.5" cy="192.3" r="5" fill="#FAAF3B" id="circle_361" />
    <circle cx="230.9" cy="142.8" r="5" fill="#216AFF" id="circle_360" />
    <ellipse cx="230.9" cy="155.2" rx="5" ry="5" fill="#216AFF" id="ellipse_33" />
    <circle cx="230.9" cy="167.6" r="5" fill="#216AFF" id="circle_359" />
    <circle cx="230.9" cy="179.9" r="5" fill="#FAAF3B" id="circle_358" />
    <circle cx="230.9" cy="192.3" r="5" fill="#FAAF3B" id="circle_357" />
    <circle cx="243.2" cy="142.8" r="5" fill="#216AFF" id="circle_356" />
    <ellipse cx="243.2" cy="155.2" rx="5" ry="5" fill="#216AFF" id="ellipse_32" />
    <circle cx="243.2" cy="167.6" r="5" fill="#F05A42" id="circle_355" />
    <circle cx="243.2" cy="179.9" r="5" fill="#FAAF3B" id="circle_354" />
    <circle cx="243.2" cy="192.3" r="5" fill="#FAAF3B" id="circle_353" />
    <circle cx="255.7" cy="142.8" r="5" fill="#216AFF" id="circle_352" />
    <ellipse cx="255.7" cy="155.2" rx="5" ry="5" fill="#216AFF" id="ellipse_31" />
    <circle cx="255.7" cy="167.6" r="5" fill="#F05A42" id="circle_351" />
    <circle cx="255.7" cy="179.9" r="5" fill="#FAAF3B" id="circle_350" />
    <circle cx="255.7" cy="192.3" r="5" fill="#FAAF3B" id="circle_349" />
    <circle cx="268.1" cy="142.8" r="5" fill="#216AFF" id="circle_348" />
    <ellipse cx="268.1" cy="155.2" rx="5" ry="5" fill="#216AFF" id="ellipse_30" />
    <circle cx="268.1" cy="167.6" r="5" fill="#F05A42" id="circle_347" />
    <circle cx="268.1" cy="179.9" r="5" fill="#FAAF3B" id="circle_346" />
    <circle cx="268.1" cy="192.3" r="5" fill="#FAAF3B" id="circle_345" />
    <circle cx="280.2" cy="142.8" r="5" fill="#216AFF" id="circle_344" />
    <ellipse cx="280.2" cy="155.2" rx="5" ry="5" fill="#216AFF" id="ellipse_29" />
    <circle cx="280.2" cy="167.6" r="5" fill="#F05A42" id="circle_343" />
    <circle cx="280.2" cy="179.9" r="5" fill="#FAAF3B" id="circle_342" />
    <circle cx="280.2" cy="192.3" r="5" fill="#FAAF3B" id="circle_341" />
    <circle cx="292.7" cy="142.8" r="5" fill="#216AFF" id="circle_340" />
    <ellipse cx="292.7" cy="155.2" rx="5" ry="5" fill="#216AFF" id="ellipse_28" />
    <circle cx="292.7" cy="167.6" r="5" fill="#F05A42" id="circle_339" />
    <circle cx="292.7" cy="179.9" r="5" fill="#FAAF3B" id="circle_338" />
    <circle cx="292.7" cy="192.3" r="5" fill="#8BC53F" id="circle_337" />
    <circle cx="305.1" cy="142.8" r="5" fill="#216AFF" id="circle_336" />
    <ellipse cx="305.1" cy="155.2" rx="5" ry="5" fill="#216AFF" id="ellipse_27" />
    <circle cx="305.1" cy="167.6" r="5" fill="#F05A42" id="circle_335" />
    <circle cx="305.1" cy="179.9" r="5" fill="#FAAF3B" id="circle_334" />
    <circle cx="305.1" cy="192.3" r="5" fill="#8BC53F" id="circle_333" />
    <circle cx="317.4" cy="142.8" r="5" fill="#216AFF" id="circle_332" />
    <ellipse cx="317.4" cy="155.2" rx="5" ry="5" fill="#216AFF" id="ellipse_26" />
    <circle cx="317.4" cy="167.6" r="5" fill="#F05A42" id="circle_331" />
    <circle cx="317.4" cy="179.9" r="5" fill="#FAAF3B" id="circle_330" />
    <circle cx="317.4" cy="192.3" r="5" fill="#8BC53F" id="circle_329" />
    <circle cx="329.8" cy="142.8" r="5" fill="#216AFF" id="circle_328" />
    <ellipse cx="329.8" cy="155.2" rx="5" ry="5" fill="#216AFF" id="ellipse_25" />
    <circle cx="329.8" cy="167.6" r="5" fill="#F05A42" id="circle_327" />
    <circle cx="329.8" cy="179.9" r="5" fill="#FAAF3B" id="circle_326" />
    <circle cx="329.8" cy="192.3" r="5" fill="#8BC53F" id="circle_325" />
    <circle cx="342.3" cy="142.8" r="5" fill="#216AFF" id="circle_324" />
    <ellipse cx="342.3" cy="155.2" rx="5" ry="5" fill="#216AFF" id="ellipse_24" />
    <circle cx="342.3" cy="167.6" r="5" fill="#FAAF3B" id="circle_323" />
    <circle cx="342.3" cy="179.9" r="5" fill="#FAAF3B" id="circle_322" />
    <circle cx="342.3" cy="192.3" r="5" fill="#A57C52" id="circle_321" />
    <circle cx="387.6" cy="142.8" r="5" fill="#216AFF" id="circle_320" />
    <ellipse cx="387.6" cy="155.2" rx="5" ry="5" fill="#FAAF3B" id="ellipse_23" />
    <circle cx="387.6" cy="167.6" r="5" fill="#FAAF3B" id="circle_319" />
    <circle cx="387.6" cy="179.9" r="5" fill="#8BC53F" id="circle_318" />
    <circle cx="387.6" cy="192.3" r="5" fill="#A57C52" id="circle_317" />
    <circle cx="400.1" cy="142.8" r="5" fill="#216AFF" id="circle_316" />
    <ellipse cx="400.1" cy="155.2" rx="5" ry="5" fill="#FAAF3B" id="ellipse_22" />
    <circle cx="400.1" cy="167.6" r="5" fill="#FAAF3B" id="circle_315" />
    <circle cx="400.1" cy="179.9" r="5" fill="#8BC53F" id="circle_314" />
    <circle cx="400.1" cy="192.3" r="5" fill="#A57C52" id="circle_313" />
    <circle cx="412.5" cy="142.8" r="5" fill="#216AFF" id="circle_312" />
    <ellipse cx="412.5" cy="155.2" rx="5" ry="5" fill="#FAAF3B" id="ellipse_21" />
    <circle cx="412.5" cy="167.6" r="5" fill="#FAAF3B" id="circle_311" />
    <circle cx="412.5" cy="179.9" r="5" fill="#8BC53F" id="circle_310" />
    <circle cx="412.5" cy="192.3" r="5" fill="#A57C52" id="circle_309" />
    <circle cx="424.8" cy="142.8" r="5" fill="#216AFF" id="circle_308" />
    <ellipse cx="424.8" cy="155.2" rx="5" ry="5" fill="#FAAF3B" id="ellipse_20" />
    <circle cx="424.8" cy="167.6" r="5" fill="#FAAF3B" id="circle_307" />
    <circle cx="424.8" cy="179.9" r="5" fill="#8BC53F" id="circle_306" />
    <circle cx="424.8" cy="192.3" r="5" fill="#A57C52" id="circle_305" />
    <circle cx="437.2" cy="142.8" r="5" fill="#216AFF" id="circle_304" />
    <ellipse cx="437.2" cy="155.2" rx="5" ry="5" fill="#FAAF3B" id="ellipse_19" />
    <circle cx="437.2" cy="167.6" r="5" fill="#FAAF3B" id="circle_303" />
    <circle cx="437.2" cy="179.9" r="5" fill="#8BC53F" id="circle_302" />
    <circle cx="437.2" cy="192.3" r="5" fill="#A57C52" id="circle_301" />
    <circle cx="449.7" cy="142.8" r="5" fill="#216AFF" id="circle_300" />
    <ellipse cx="449.7" cy="155.2" rx="5" ry="5" fill="#FAAF3B" id="ellipse_18" />
    <circle cx="449.7" cy="167.6" r="5" fill="#FAAF3B" id="circle_299" />
    <circle cx="449.7" cy="179.9" r="5" fill="#8BC53F" id="circle_298" />
    <circle cx="449.7" cy="192.3" r="5" fill="#A57C52" id="circle_297" />
    <circle cx="461.8" cy="142.8" r="5" fill="#216AFF" id="circle_296" />
    <ellipse cx="461.8" cy="155.2" rx="5" ry="5" fill="#FAAF3B" id="ellipse_17" />
    <circle cx="461.8" cy="167.6" r="5" fill="#FAAF3B" id="circle_295" />
    <circle cx="461.8" cy="179.9" r="5" fill="#8BC53F" id="circle_294" />
    <circle cx="461.8" cy="192.3" r="5" fill="#A57C52" id="circle_293" />
    <circle cx="474.2" cy="142.8" r="5" fill="#216AFF" id="circle_292" />
    <ellipse cx="474.2" cy="155.2" rx="5" ry="5" fill="#FAAF3B" id="ellipse_16" />
    <circle cx="474.2" cy="167.6" r="5" fill="#FAAF3B" id="circle_291" />
    <circle cx="474.2" cy="179.9" r="5" fill="#8BC53F" id="circle_290" />
    <circle cx="474.2" cy="192.3" r="5" fill="#A57C52" id="circle_289" />
    <circle cx="486.7" cy="142.8" r="5" fill="#F05A42" id="circle_288" />
    <ellipse cx="486.7" cy="155.2" rx="5" ry="5" fill="#FAAF3B" id="ellipse_15" />
    <circle cx="486.7" cy="167.6" r="5" fill="#8BC53F" id="circle_287" />
    <circle cx="486.7" cy="179.9" r="5" fill="#8BC53F" id="circle_286" />
    <circle cx="486.7" cy="192.3" r="5" fill="#A57C52" id="circle_285" />
    <circle cx="498.9" cy="142.8" r="5" fill="#F05A42" id="circle_284" />
    <ellipse cx="498.9" cy="155.2" rx="5" ry="5" fill="#FAAF3B" id="ellipse_14" />
    <circle cx="498.9" cy="167.6" r="5" fill="#8BC53F" id="circle_283" />
    <circle cx="498.9" cy="179.9" r="5" fill="#8BC53F" id="circle_282" />
    <circle cx="511.4" cy="142.8" r="5" fill="#F05A42" id="circle_281" />
    <ellipse cx="511.4" cy="155.2" rx="5" ry="5" fill="#FAAF3B" id="ellipse_13" />
    <circle cx="511.4" cy="167.6" r="5" fill="#8BC53F" id="circle_280" />
    <circle cx="511.4" cy="179.9" r="5" fill="#8BC53F" id="circle_279" />
    <circle cx="523.8" cy="142.8" r="5" fill="#F05A42" id="circle_278" />
    <ellipse cx="523.8" cy="155.2" rx="5" ry="5" fill="#FAAF3B" id="ellipse_12" />
    <circle cx="523.8" cy="167.6" r="5" fill="#8BC53F" id="circle_277" />
    <circle cx="523.8" cy="179.9" r="5" fill="#8BC53F" id="circle_276" />
    <circle cx="569.2" cy="142.8" r="5" fill="#216AFF" id="circle_275" />
    <ellipse cx="569.2" cy="155.2" rx="5" ry="5" fill="#F05A42" id="ellipse_11" />
    <circle cx="569.2" cy="167.6" r="5" fill="#F05A42" id="circle_274" />
    <circle cx="569.2" cy="179.9" r="5" fill="#FAAF3B" id="circle_273" />
    <circle cx="569.2" cy="192.3" r="5" fill="#8BC53F" id="circle_272" />
    <circle cx="581.6" cy="142.8" r="5" fill="#216AFF" id="circle_271" />
    <ellipse cx="581.6" cy="155.2" rx="5" ry="5" fill="#F05A42" id="ellipse_10" />
    <circle cx="581.6" cy="167.6" r="5" fill="#F05A42" id="circle_270" />
    <circle cx="581.6" cy="179.9" r="5" fill="#FAAF3B" id="circle_269" />
    <circle cx="581.6" cy="192.3" r="5" fill="#A57C52" id="circle_268" />
    <circle cx="594" cy="142.8" r="5" fill="#216AFF" id="circle_267" />
    <ellipse cx="594" cy="155.2" rx="5" ry="5" fill="#F05A42" id="ellipse_9" />
    <circle cx="594" cy="167.6" r="5" fill="#F05A42" id="circle_266" />
    <circle cx="594" cy="179.9" r="5" fill="#FAAF3B" id="circle_265" />
    <circle cx="594" cy="192.3" r="5" fill="#A57C52" id="circle_264" />
    <circle cx="606.3" cy="142.8" r="5" fill="#216AFF" id="circle_263" />
    <ellipse cx="606.3" cy="155.2" rx="5" ry="5" fill="#F05A42" id="ellipse_8" />
    <circle cx="606.3" cy="167.6" r="5" fill="#F05A42" id="circle_262" />
    <circle cx="606.3" cy="179.9" r="5" fill="#8BC53F" id="circle_261" />
    <circle cx="606.3" cy="192.3" r="5" fill="#A57C52" id="circle_260" />
    <circle cx="618.8" cy="142.8" r="5" fill="#216AFF" id="circle_259" />
    <ellipse cx="618.8" cy="155.2" rx="5" ry="5" fill="#F05A42" id="ellipse_7" />
    <circle cx="618.8" cy="167.6" r="5" fill="#F05A42" id="circle_258" />
    <circle cx="618.8" cy="179.9" r="5" fill="#8BC53F" id="circle_257" />
    <circle cx="618.8" cy="192.3" r="5" fill="#A57C52" id="circle_256" />
    <circle cx="631.2" cy="142.8" r="5" fill="#216AFF" id="circle_255" />
    <ellipse cx="631.2" cy="155.2" rx="5" ry="5" fill="#F05A42" id="ellipse_6" />
    <circle cx="631.2" cy="167.6" r="5" fill="#F05A42" id="circle_254" />
    <circle cx="631.2" cy="179.9" r="5" fill="#8BC53F" id="circle_253" />
    <circle cx="631.2" cy="192.3" r="5" fill="#A57C52" id="circle_252" />
    <circle cx="643.3" cy="142.8" r="5" fill="#216AFF" id="circle_251" />
    <ellipse cx="643.3" cy="155.2" rx="5" ry="5" fill="#F05A42" id="ellipse_5" />
    <circle cx="643.3" cy="167.6" r="5" fill="#F05A42" id="circle_250" />
    <circle cx="643.3" cy="179.9" r="5" fill="#8BC53F" id="circle_249" />
    <circle cx="643.3" cy="192.3" r="5" fill="#A57C52" id="circle_248" />
    <circle cx="655.8" cy="142.8" r="5" fill="#216AFF" id="circle_247" />
    <ellipse cx="655.8" cy="155.2" rx="5" ry="5" fill="#F05A42" id="ellipse_4" />
    <circle cx="655.8" cy="167.6" r="5" fill="#F05A42" id="circle_246" />
    <circle cx="655.8" cy="179.9" r="5" fill="#8BC53F" id="circle_245" />
    <circle cx="655.8" cy="192.3" r="5" fill="#A57C52" id="circle_244" />
    <circle cx="668.2" cy="142.8" r="5" fill="#216AFF" id="circle_243" />
    <ellipse cx="668.2" cy="155.2" rx="5" ry="5" fill="#F05A42" id="ellipse_3" />
    <circle cx="668.2" cy="167.6" r="5" fill="#F05A42" id="circle_242" />
    <circle cx="668.2" cy="179.9" r="5" fill="#8BC53F" id="circle_241" />
    <circle cx="680.5" cy="142.8" r="5" fill="#F05A42" id="circle_240" />
    <ellipse cx="680.5" cy="155.2" rx="5" ry="5" fill="#F05A42" id="ellipse_2" />
    <circle cx="680.5" cy="167.6" r="5" fill="#F05A42" id="circle_239" />
    <circle cx="680.5" cy="179.9" r="5" fill="#8BC53F" id="circle_238" />
    <circle cx="692.9" cy="142.8" r="5" fill="#F05A42" id="circle_237" />
    <ellipse cx="692.9" cy="155.2" rx="5" ry="5" fill="#F05A42" id="ellipse_1" />
    <circle cx="692.9" cy="167.6" r="5" fill="#F05A42" id="circle_236" />
    <circle cx="692.9" cy="179.9" r="5" fill="#8BC53F" id="circle_235" />
    <circle cx="705.4" cy="142.8" r="5" fill="#F05A42" id="circle_234" />
    <ellipse cx="705.4" cy="155.2" rx="5" ry="5" fill="#F05A42" id="ellipse" />
    <circle cx="705.4" cy="167.6" r="5" fill="#F05A42" id="circle_233" />
    <circle cx="705.4" cy="179.9" r="5" fill="#8BC53F" id="circle_232" />
    <g id="g_18">
      <path d="M21.4,122.1c0-0.5,0-0.8-0.1-1.1h0.7c0,0.3-0.1,0.6-0.1,1.1v1.5h0.2c0.3,0,0.6,0,0.8-0.1v0.7    c-0.3,0-0.5,0-0.8,0H22v2.9c0.5-0.2,0.6-0.3,1.1-0.6l0.1,0.6c-1,0.6-1.8,0.9-2.8,1.3c-0.1,0.1-0.1,0.1-0.2,0.1l-0.2-0.7    c0.2,0,0.8-0.2,1.4-0.5v-3.2H21c-0.3,0-0.6,0-0.9,0.1v-0.7c0.3,0,0.5,0.1,0.9,0.1h0.4V122.1z M25.9,123.5c0,0.1,0,0.4,0,0.6    c0,1.3,0.3,2.4,1,3.4c0.6,0.8,1.3,1.3,2.2,1.7c-0.2,0.2-0.3,0.3-0.4,0.6c-0.9-0.4-1.4-0.9-2-1.5c-0.6-0.7-0.9-1.4-1.2-2.4    c-0.2,0.8-0.3,1.2-0.7,1.8c-0.5,0.9-1.3,1.6-2.5,2.2c-0.1-0.2-0.2-0.4-0.4-0.6c0.6-0.3,0.9-0.5,1.3-0.8c1.3-1,1.9-2.4,1.9-4.4    c0-0.3,0-0.4,0-0.6H25.9z M24.7,122.9c-0.4,0.8-0.6,1.3-1.2,2.1c-0.1-0.1-0.3-0.3-0.5-0.4c0.6-0.7,0.8-1.1,1.1-1.8    c0.3-0.7,0.5-1.5,0.5-2l0.7,0.2c0,0.1,0,0.1-0.1,0.5c-0.1,0.3-0.2,0.7-0.2,0.9h2.8c0.4,0,0.6,0,0.8,0l0.4,0.4    c-0.1,0.1-0.1,0.1-0.2,0.5c-0.3,0.8-0.7,1.5-1.2,2.2c-0.2-0.1-0.3-0.2-0.6-0.3c0.6-0.7,0.9-1.3,1.2-2.1H24.7z" fill="#666666" id="path_22" />
      <path d="M33.9,123.1c-0.3,0.7-0.7,1.3-1.2,1.9h2.1v-0.2c0-0.5,0-0.8-0.1-1.1h0.8c0,0.3-0.1,0.5-0.1,1.1v0.2h2    c0.3,0,0.6,0,0.9-0.1c0,0.2,0,0.5,0,0.8v2.5c0,0.6-0.2,0.8-1.1,0.8c-0.3,0-0.5,0-0.9,0c0-0.3-0.1-0.4-0.2-0.7    c0.4,0.1,0.8,0.1,1.1,0.1c0.4,0,0.5-0.1,0.5-0.3v-2.5h-2.2v3.3c0,0.5,0,0.9,0.1,1.1h-0.8c0.1-0.3,0.1-0.6,0.1-1.1v-3.3h-2v2.6    c0,0.5,0,0.8,0,1.1h-0.7c0-0.3,0.1-0.6,0.1-1.1v-2.4c-0.5,0.5-0.7,0.7-1.6,1.4c-0.1-0.2-0.2-0.4-0.4-0.5c1.3-0.9,2.4-2.1,3.1-3.5    h-1.8c-0.5,0-0.8,0-1.1,0.1v-0.7c0.3,0,0.6,0.1,1.1,0.1h2.1c0.3-0.7,0.4-1.1,0.4-1.6l0.8,0.1c-0.1,0.1-0.1,0.2-0.2,0.5    c-0.1,0.3-0.2,0.7-0.3,1H38c0.5,0,0.9,0,1.1-0.1v0.7c-0.3,0-0.6-0.1-1.1-0.1H33.9z" fill="#666666" id="path_21" />
      <path d="M45.3,127h2.7c0.4,0,0.6,0,0.9,0v0.7c-0.3,0-0.5-0.1-0.9-0.1h-2.7v1.4h3.1c0.5,0,0.8,0,1.1-0.1v0.7    c-0.3,0-0.7-0.1-1.1-0.1h-6.7c-0.4,0-0.7,0-1.1,0.1v-0.7c0.2,0,0.6,0.1,1.1,0.1h3v-1.4h-2.6c-0.4,0-0.6,0-0.9,0.1v-0.7    c0.2,0,0.5,0,0.9,0h2.6v-1.2h-1.9c-0.6,0-0.9,0-1.2,0.1c0-0.3,0-0.5,0-1.1v-2.3c0-0.6,0-0.8,0-1.1c0.2,0,0.5,0.1,1.1,0.1h4.7    c0.6,0,0.9,0,1.1-0.1c0,0.3,0,0.5,0,1.1v2.4c0,0.6,0,0.8,0,1.1c-0.3-0.1-0.6-0.1-1.1-0.1h-2.1V127z M44.6,122h-2.4v1.3h2.4V122z     M44.6,123.8h-2.4v1.4h2.4V123.8z M47.8,123.3V122h-2.5v1.3H47.8z M47.8,125.2v-1.4h-2.5v1.4H47.8z" fill="#666666" id="path_20" />
      <path d="M51,121.5c0.3,0,0.6,0.1,1,0.1h6.5c0.4,0,0.7,0,1-0.1v0.7c-0.3,0-0.6-0.1-1-0.1h-2.1v6.6h2.2    c0.4,0,0.7,0,1-0.1v0.7c-0.3,0-0.6-0.1-1-0.1h-6.8c-0.4,0-0.7,0-1,0.1v-0.7c0.3,0,0.6,0.1,1,0.1h2.1v-6.6H52c-0.4,0-0.7,0-1,0.1    V121.5z M52,123.6c0.6,1.2,0.7,1.6,1.1,3.1l-0.6,0.2c-0.4-1.7-0.6-2-1.1-3.1L52,123.6z M55.8,128.7v-6.6h-1.3v6.6H55.8z M59,123.9    c-0.6,1.6-0.7,2-1.4,3.1l-0.6-0.3c0.6-1,0.9-1.8,1.3-3.1L59,123.9z" fill="#666666" id="path_19" />
    </g>
    <g id="g_17">
      <path d="M203,126.4c0-0.4,0-0.7,0-1.2c-0.3,0.4-0.5,0.7-0.9,1.1c-0.1-0.3-0.2-0.3-0.4-0.5c0.7-0.5,1.2-1.1,1.7-1.9    c0.2-0.3,0.4-0.7,0.4-0.9l0.6,0.3c-0.1,0.1-0.1,0.2-0.3,0.5c-0.1,0.2-0.3,0.5-0.5,0.8v4.2c0,0.6,0,0.9,0,1.2h-0.7    c0-0.3,0.1-0.6,0.1-1.2V126.4z M204.4,121.2c-0.1,0.1-0.1,0.1-0.3,0.3c-0.6,0.7-1.2,1.3-1.9,1.8c-0.1-0.2-0.2-0.3-0.4-0.5    c0.5-0.3,0.8-0.5,1.2-0.9c0.5-0.4,0.7-0.8,0.9-1.1L204.4,121.2z M204,129.1c0.5-0.7,0.7-1.1,0.9-1.8l0.6,0.2    c-0.3,0.9-0.5,1.3-0.9,1.9L204,129.1z M204.4,126.1c0.3,0,0.5,0,1,0h4.6c0.5,0,0.7,0,1,0v0.6c-0.3,0-0.5,0-1,0h-4.6    c-0.4,0-0.6,0-1,0V126.1z M207.3,121.7c0.1-0.3,0.1-0.7,0.1-0.8c0,0,0-0.1,0-0.1l0.7,0c0,0.1,0,0.3-0.1,0.7c0,0.1,0,0.1,0,0.2h2.1    c0.5,0,0.7,0,1,0v0.6c-0.3,0-0.5-0.1-1-0.1h-2.2c0,0.1,0,0.1,0,0.2c0,0.1-0.1,0.3-0.1,0.6h2c0.4,0,0.7,0,0.9,0c0,0.2,0,0.4,0,0.7    v0.9c0,0.3,0,0.5,0,0.7c-0.2,0-0.5,0-0.9,0h-4.1c-0.4,0-0.6,0-0.9,0c0-0.2,0-0.4,0-0.6v-1c0-0.3,0-0.5,0-0.7c0.3,0,0.5,0,0.8,0    h1.5c0.1-0.3,0.1-0.5,0.2-0.8h-1.7c-0.4,0-0.6,0-1,0v-0.6c0.3,0,0.5,0,1,0H207.3z M205.3,124.9h1.2v-1.3h-1.2V124.9z M206.7,128.9    c0,0.2,0.2,0.3,1.1,0.3c0.6,0,0.9,0,1-0.1c0.1-0.1,0.2-0.2,0.2-1c0.2,0.1,0.4,0.2,0.6,0.2c-0.1,0.7-0.2,1.1-0.5,1.2    c-0.2,0.1-0.7,0.2-1.6,0.2c-1.2,0-1.5-0.1-1.5-0.7V128c0-0.3,0-0.6-0.1-0.8h0.7c0,0.2-0.1,0.5-0.1,0.8V128.9z M208.2,128.4    c-0.1-0.1-0.1-0.2-0.2-0.2c-0.4-0.5-0.5-0.5-1-1l0.4-0.3c0.5,0.4,0.8,0.6,1.3,1.1L208.2,128.4z M207,124.9h1.1v-1.3H207V124.9z     M208.7,124.9h1.2v-1.3h-1.2V124.9z M210.6,129.3c-0.5-1-0.7-1.2-1.2-1.8l0.5-0.3c0.5,0.7,0.8,1,1.2,1.8L210.6,129.3z" fill="#666666" id="path_18" />
      <path d="M213.7,128.7c1.4-0.4,1.8-0.5,2.8-0.9l-0.1,0.7c-0.7,0.2-1.1,0.3-1.6,0.5c-1.1,0.3-1.2,0.4-1.8,0.6l-0.3-0.6    c0.2-0.1,0.3-0.2,0.3-0.5l0-6.3c0-0.4,0-0.7-0.1-1h0.8c0,0.3-0.1,0.5-0.1,1v1.9h1.9c0.4,0,0.7,0,0.9-0.1v0.7    c-0.2,0-0.5-0.1-0.9-0.1h-1.9V128.7z M217.7,128.7c0,0.3,0.1,0.3,1.2,0.3c1.1,0,1.3,0,1.5-0.2c0.2-0.2,0.2-0.8,0.2-1.9    c0.2,0.1,0.4,0.2,0.6,0.3c-0.1,1.2-0.2,1.8-0.4,2.1c-0.1,0.1-0.3,0.2-0.7,0.3c-0.2,0-0.6,0-1.3,0c-0.9,0-1.1,0-1.5-0.1    c-0.3-0.1-0.4-0.3-0.4-0.7v-6.7c0-0.5,0-0.8-0.1-1h0.8c0,0.3-0.1,0.6-0.1,1v2.7c1.1-0.6,1.6-1,2.2-1.5c0.3-0.3,0.5-0.5,0.7-0.7    l0.5,0.5c-0.1,0.1-0.3,0.2-0.4,0.3c-0.8,0.7-1.9,1.5-3,2.1V128.7z" fill="#666666" id="path_17" />
      <path d="M224.5,125.3c-0.1,0.4-0.2,0.6-0.4,1.1h2.2c0.3,0,0.5,0,0.7,0c0,0.2,0,0.4,0,0.8v1.9c0,0.4,0,0.7,0.1,0.9    h-0.7v-0.5h-2.1v0.6h-0.7c0-0.2,0-0.5,0-0.8V128c0-0.4,0-0.6,0-0.9c-0.5,0.9-0.5,1-1,1.6c-0.2-0.2-0.3-0.4-0.5-0.5    c0.8-0.9,1.2-1.7,1.6-2.9h-0.3c-0.4,0-0.6,0-0.8,0v-0.6c0.2,0,0.5,0,0.8,0h0.4c0.1-0.3,0.1-0.7,0.2-1.2h-1c-0.3,0-0.6,0-0.9,0V123    c0.3,0,0.5,0.1,0.9,0.1h1c0-0.3,0-0.3,0.1-1.2h-0.7c-0.3,0-0.5,0-0.8,0v-0.6c0.3,0,0.5,0,0.8,0h2.5c0.3,0,0.5,0,0.7,0    c0,0.2,0,0.4,0,0.6v1.2h0.1c0.3,0,0.4,0,0.6,0v0.6c-0.2,0-0.4,0-0.6,0H227v1.1c0,0.2,0,0.4,0,0.6c-0.2,0-0.5,0-0.7,0H224.5z     M224.4,128.9h2.1v-2h-2.1V128.9z M226.5,124.8v-1.2h-1.6c0,0.4-0.1,0.8-0.2,1.2H226.5z M226.5,123.1v-1.2H225c0,0.2,0,0.3,0,0.4    c0,0.4,0,0.4-0.1,0.8H226.5z M231.5,121.6c-0.1,0.2-0.1,0.2-0.2,0.4c-0.4,0.9-0.8,1.7-1.2,2.5c0.6,0.6,0.9,1,1.1,1.5    c0.2,0.4,0.3,0.9,0.3,1.4c0,0.6-0.2,1-0.6,1.1c-0.2,0.1-0.5,0.1-0.9,0.1c-0.3,0-0.5,0-0.8,0c0-0.3-0.1-0.5-0.1-0.7    c0.4,0.1,0.6,0.1,1,0.1c0.6,0,0.8-0.1,0.8-0.7c0-0.5-0.1-1-0.3-1.4c-0.2-0.4-0.5-0.7-1.1-1.3c0.6-1,0.9-1.7,1.3-2.8h-2v7.1    c0,0.5,0,0.8,0.1,1.1H228c0-0.3,0.1-0.6,0.1-1.1v-6.7c0-0.3,0-0.6,0-0.9c0.2,0,0.5,0,0.8,0h1.6c0.4,0,0.6,0,0.8,0L231.5,121.6z" fill="#666666" id="path_16" />
    </g>
    <g id="g_16">
      <path d="M384,126.4c0-0.4,0-0.7,0-1.2c-0.3,0.4-0.5,0.7-0.9,1.1c-0.1-0.3-0.2-0.3-0.4-0.5c0.7-0.5,1.2-1.1,1.7-1.9    c0.2-0.3,0.4-0.7,0.5-0.9l0.6,0.3c-0.1,0.1-0.1,0.2-0.3,0.5c-0.1,0.2-0.3,0.5-0.5,0.8v4.2c0,0.6,0,0.9,0,1.2h-0.7    c0-0.3,0.1-0.6,0.1-1.2V126.4z M385.4,121.2c-0.1,0.1-0.1,0.1-0.3,0.3c-0.6,0.7-1.2,1.3-1.9,1.8c-0.1-0.2-0.2-0.3-0.4-0.5    c0.5-0.3,0.8-0.5,1.2-0.9c0.5-0.4,0.7-0.8,0.9-1.1L385.4,121.2z M385,129.1c0.5-0.7,0.7-1.1,0.9-1.8l0.6,0.2    c-0.3,0.9-0.5,1.3-0.9,1.9L385,129.1z M385.4,126.1c0.3,0,0.5,0,1,0h4.6c0.5,0,0.7,0,1,0v0.6c-0.3,0-0.5,0-1,0h-4.6    c-0.4,0-0.6,0-1,0V126.1z M388.3,121.7c0.1-0.3,0.1-0.7,0.1-0.8c0,0,0-0.1,0-0.1l0.7,0c0,0.1,0,0.3-0.1,0.7c0,0.1,0,0.1,0,0.2h2.1    c0.5,0,0.7,0,1,0v0.6c-0.3,0-0.5-0.1-1-0.1h-2.2c0,0.1,0,0.1,0,0.2c0,0.1-0.1,0.3-0.1,0.6h2c0.4,0,0.7,0,0.9,0c0,0.2,0,0.4,0,0.7    v0.9c0,0.3,0,0.5,0,0.7c-0.2,0-0.5,0-0.9,0h-4.1c-0.4,0-0.6,0-0.9,0c0-0.2,0-0.4,0-0.6v-1c0-0.3,0-0.5,0-0.7c0.3,0,0.5,0,0.8,0    h1.5c0.1-0.3,0.1-0.5,0.2-0.8h-1.7c-0.4,0-0.7,0-1,0v-0.6c0.3,0,0.5,0,1,0H388.3z M386.3,124.9h1.2v-1.3h-1.2V124.9z M387.7,128.9    c0,0.2,0.2,0.3,1.1,0.3c0.6,0,0.9,0,1-0.1c0.1-0.1,0.2-0.2,0.2-1c0.2,0.1,0.4,0.2,0.6,0.2c-0.1,0.7-0.2,1.1-0.5,1.2    c-0.2,0.1-0.7,0.2-1.6,0.2c-1.2,0-1.5-0.1-1.5-0.7V128c0-0.3,0-0.6-0.1-0.8h0.7c0,0.2-0.1,0.5-0.1,0.8V128.9z M389.2,128.4    c-0.1-0.1-0.1-0.2-0.2-0.2c-0.4-0.5-0.5-0.5-1-1l0.4-0.3c0.5,0.4,0.8,0.6,1.3,1.1L389.2,128.4z M388,124.9h1.1v-1.3H388V124.9z     M389.7,124.9h1.2v-1.3h-1.2V124.9z M391.6,129.3c-0.5-1-0.7-1.2-1.2-1.8l0.5-0.3c0.5,0.7,0.8,1,1.2,1.8L391.6,129.3z" fill="#666666" id="path_15" />
      <path d="M394.4,123.2c-0.5,0-0.8,0-1.1,0.1v-0.7c0.3,0.1,0.7,0.1,1.1,0.1h3.3c-0.6-1-0.6-1-0.9-1.5l0.5-0.3    c0.6,0.8,0.6,0.8,1,1.5l-0.4,0.3h3.2c0.5,0,0.8,0,1.1-0.1v0.7c-0.3,0-0.6-0.1-1.1-0.1h-0.8c-0.3,1-0.3,1.1-0.6,1.6    c-0.4,0.8-0.9,1.5-1.5,2.1c0.6,0.5,1.1,0.9,1.8,1.3c0.8,0.4,1.3,0.6,2.3,0.9c-0.2,0.2-0.3,0.4-0.4,0.7c-1.7-0.6-3-1.3-4.2-2.4    c-1.2,1.1-2.5,1.9-4.2,2.4c-0.1-0.3-0.2-0.4-0.4-0.6c1.6-0.5,3-1.2,4.1-2.2c-0.5-0.5-0.9-1-1.2-1.6c-0.4-0.7-0.6-1.2-0.9-2.1    H394.4z M395.8,123.2c0.3,0.9,0.4,1.3,0.8,1.9c0.3,0.5,0.7,1,1.1,1.4c0.5-0.6,0.9-1.2,1.3-1.9c0.2-0.5,0.3-0.7,0.5-1.4H395.8z" fill="#666666" id="path_14" />
    </g>
    <g id="g_15">
      <path d="M566.1,127.8c0.1,0.1,0.1,0.1,0.2,0.2c0.3,0.4,0.6,0.6,1,0.7c0.3,0.1,1.2,0.2,1.8,0.2c0.6,0,2.3,0,2.6,0    c0.7,0,1-0.1,1.5-0.1c-0.2,0.4-0.2,0.4-0.2,0.7c-1,0-2.1,0.1-3.5,0.1c-0.6,0-1.4,0-1.9-0.1c-0.5-0.1-0.8-0.2-1.2-0.4    c-0.2-0.1-0.2-0.1-0.5-0.5c-0.1-0.1-0.2-0.1-0.3-0.1c-0.2,0-0.8,0.5-1.3,1.3l-0.4-0.5c0.4-0.5,0.8-0.8,1-1    c0.3-0.2,0.4-0.3,0.5-0.3v-2.4h-0.7c-0.3,0-0.5,0-0.7,0v-0.6c0.2,0,0.4,0.1,0.8,0.1h0.5c0.3,0,0.5,0,0.7-0.1c0,0.3,0,0.5,0,1    V127.8z M564.7,121.1c0.7,0.6,1,1,1.6,1.8l-0.5,0.4c-0.6-0.8-0.9-1.2-1.6-1.8L564.7,121.1z M572.4,127.9c-0.5-0.8-0.7-1.1-1.7-2.4    c-0.3-0.4-0.5-0.6-0.9-1.1c-0.2,0.8-0.5,1.5-1,2.1c-0.4,0.5-1,1-1.9,1.6c0-0.1,0-0.1-0.1-0.1c-0.1-0.2-0.1-0.3-0.3-0.5    c1-0.5,1.6-1,2.1-1.8c0.4-0.7,0.6-1.3,0.7-2.2h-1.6c-0.4,0-0.7,0-1,0.1v-0.7c0.3,0,0.6,0.1,1,0.1h1.6c0-0.5,0-0.7,0-1.1    c0-0.5,0-0.7,0-0.9h0.7c0,0.2,0,0.3,0,0.7c0,0.6,0,0.9,0,1.3h2c0.4,0,0.7,0,1-0.1v0.7c-0.2,0-0.6-0.1-1-0.1h-2c0,0.1,0,0.1,0,0.3    c1.3,1.3,2.2,2.6,3,3.7L572.4,127.9z" fill="#666666" id="path_13" />
      <path d="M576.8,124.4h0.7c0.5,0,0.7,0,0.9,0c0,0.2,0,0.4,0,0.8v0.8c0,0.5,0,0.6,0,0.8c-0.2,0-0.5,0-1,0h-0.6v0.9h0.8    c0.5,0,0.7,0,1,0v0.7c-0.3,0-0.5,0-1,0h-0.8v0.6c0,0.6,0,0.8,0.1,1.2h-0.7c0-0.3,0.1-0.6,0.1-1.1v-0.6h-0.9c-0.4,0-0.6,0-1,0.1    v-0.7c0.2,0,0.6,0,1,0h0.9v-0.9h-0.6c-0.4,0-0.7,0-1,0c0-0.2,0-0.5,0-0.8v-0.8c0-0.4,0-0.6,0-0.8c0.2,0,0.4,0,0.9,0h0.7v-0.7h-0.3    c-0.2,0-0.4,0-0.7,0c0-0.2,0-0.4,0-0.7v-0.7h0c-0.4,0-0.6,0-0.8,0.1v-0.6c0.2,0,0.4,0.1,0.8,0.1h0v-0.1c0-0.3,0-0.5,0-0.8h0.7    c0,0.2,0,0.4,0,0.8v0.1h1.4v-0.1c0-0.4,0-0.6,0-0.8h0.6c0,0.2,0,0.4,0,0.8v0.1c0.4,0,0.6,0,0.8-0.1v0.6c-0.2,0-0.5,0-0.8,0v0.7    c0,0.3,0,0.5,0,0.7c-0.5,0-0.5,0-0.8,0h-0.2V124.4z M576.2,124.9h-1v1.4h1V124.9z M575.8,122.3v0.9h1.4v-0.9H575.8z M577.8,126.3    v-1.4h-1v1.4H577.8z M580.8,123.7c-0.1,1.5-0.3,2.7-0.7,3.7c-0.4,1.1-0.9,1.7-1.7,2.5c-0.1-0.2-0.3-0.3-0.5-0.5    c0.6-0.5,0.9-0.9,1.2-1.4c0.5-0.9,0.8-2.1,1-3.4c0-0.4,0.1-0.8,0.1-1h-0.6c-0.5,0-0.7,0-0.9,0.1V123c0.2,0,0.4,0.1,0.9,0.1h0.6    c0-0.4,0-0.6,0-1c0-0.6,0-1-0.1-1.2h0.7c0,0.3-0.1,0.4-0.1,1.4c0,0.3,0,0.4,0,0.8h1.4c0.4,0,0.7,0,0.9,0c0,0.2,0,0.3-0.1,1.3    c-0.1,2.1-0.2,3.9-0.4,4.6c-0.2,0.6-0.4,0.7-1.2,0.7c-0.3,0-0.5,0-1-0.1c0-0.3,0-0.4-0.1-0.7c0.5,0.1,0.8,0.1,1.1,0.1    c0.3,0,0.5-0.1,0.6-0.4c0.1-0.4,0.2-1.1,0.3-2.3c0.1-0.9,0.1-0.9,0.1-2.8H580.8z" fill="#666666" id="path_12" />
      <path d="M585.3,123.5c-0.3,0-0.6,0-0.8,0.1v-0.7c0.2,0,0.4,0,0.9,0h0.3c0,0,0,0,0-0.1c0.1-0.6,0.2-1.5,0.2-1.9    c0,0,0-0.1,0-0.1l0.7,0.1c0,0.2-0.1,0.3-0.1,0.7c-0.1,0.5-0.2,1.1-0.2,1.3h0.6c0.5,0,0.6,0,0.9,0c0,0.2,0,0.2,0,0.5    c-0.1,1.7-0.4,2.7-0.9,3.8c0.4,0.3,0.5,0.4,0.9,0.8l-0.4,0.5c-0.3-0.4-0.5-0.5-0.8-0.8c-0.5,0.9-0.9,1.3-1.7,2    c-0.1-0.2-0.3-0.4-0.5-0.5c0.8-0.6,1.3-1.1,1.7-1.9c-0.5-0.4-0.7-0.6-1.3-1c0.4-1,0.5-1.5,0.8-2.9H585.3z M586.2,123.5    c-0.2,1.2-0.4,1.7-0.7,2.7c0.4,0.3,0.4,0.3,0.9,0.7c0.4-1,0.6-1.8,0.8-3.3H586.2z M587.8,124.5c0.2,0,0.4,0,0.7,0    c0.1-1.3,0.2-2.1,0.2-2.7c0-0.1,0-0.3,0-0.4c0.3,0,0.5,0,1,0h2.4c0.5,0,0.8,0,1,0c0,0.2,0,0.4-0.1,0.8c0,1,0,1-0.1,2.3    c0.3,0,0.6,0,0.8-0.1v0.7c-0.3,0-0.6-0.1-0.9-0.1c-0.1,1.4-0.1,1.8-0.2,2.5h0.1c0.4,0,0.5,0,0.8,0v0.7c-0.2,0-0.4,0-0.8,0h-0.1    c-0.2,1.4-0.4,1.6-1.3,1.6c-0.3,0-0.6,0-1,0c0-0.3,0-0.4-0.1-0.7c0.4,0.1,0.7,0.1,1,0.1c0.4,0,0.5-0.1,0.6-0.3    c0-0.1,0.1-0.2,0.2-0.7h-3.5c-0.2,0-0.2,0-0.3,0c-0.2,0-0.2,0-0.3,0c0.3-1.4,0.5-2.2,0.6-3.1c-0.3,0-0.4,0-0.6,0V124.5z     M592.1,127.7c0.1-0.6,0.1-1.3,0.2-2.5H589c-0.1,0.8-0.2,1.8-0.4,2.5H592.1z M592.3,124.6c0-1.3,0-1.3,0.1-2.5h-3.1    c-0.1,1.1-0.1,1.1-0.2,2.5H592.3z M590.9,127.4c-0.4-0.7-0.7-1.1-1.3-1.7l0.5-0.3c0.6,0.6,0.9,1,1.3,1.6L590.9,127.4z M591,124.2    c-0.4-0.7-0.6-1-1.1-1.6l0.5-0.3c0.5,0.6,0.8,0.9,1.2,1.6L591,124.2z" fill="#666666" id="path_11" />
    </g>
    <circle cx="24.5" cy="38.5" r="5" fill="#216AFF" id="circle_231" />
    <circle cx="24.5" cy="50.9" r="5" fill="#216AFF" id="circle_230" />
    <circle cx="24.5" cy="63.3" r="5" fill="#F05A42" id="circle_229" />
    <circle cx="24.5" cy="75.6" r="5" fill="#FAAF3B" id="circle_228" />
    <circle cx="24.5" cy="88" r="5" fill="#8BC53F" id="circle_227" />
    <circle cx="36.9" cy="38.5" r="5" fill="#216AFF" id="circle_226" />
    <circle cx="36.9" cy="50.9" r="5" fill="#216AFF" id="circle_225" />
    <circle cx="36.9" cy="63.3" r="5" fill="#F05A42" id="circle_224" />
    <circle cx="36.9" cy="75.6" r="5" fill="#FAAF3B" id="circle_223" />
    <circle cx="36.9" cy="88" r="5" fill="#8BC53F" id="circle_222" />
    <circle cx="49.4" cy="38.5" r="5" fill="#216AFF" id="circle_221" />
    <circle cx="49.4" cy="50.9" r="5" fill="#216AFF" id="circle_220" />
    <circle cx="49.4" cy="63.3" r="5" fill="#F05A42" id="circle_219" />
    <circle cx="49.4" cy="75.6" r="5" fill="#FAAF3B" id="circle_218" />
    <circle cx="49.4" cy="88" r="5" fill="#8BC53F" id="circle_217" />
    <circle cx="61.7" cy="38.5" r="5" fill="#216AFF" id="circle_216" />
    <circle cx="61.7" cy="50.9" r="5" fill="#216AFF" id="circle_215" />
    <circle cx="61.7" cy="63.3" r="5" fill="#F05A42" id="circle_214" />
    <circle cx="61.7" cy="75.6" r="5" fill="#FAAF3B" id="circle_213" />
    <circle cx="61.7" cy="88" r="5" fill="#8BC53F" id="circle_212" />
    <circle cx="74.1" cy="38.5" r="5" fill="#216AFF" id="circle_211" />
    <circle cx="74.1" cy="50.9" r="5" fill="#216AFF" id="circle_210" />
    <circle cx="74.1" cy="63.3" r="5" fill="#F05A42" id="circle_209" />
    <circle cx="74.1" cy="75.6" r="5" fill="#FAAF3B" id="circle_208" />
    <circle cx="74.1" cy="88" r="5" fill="#A57C52" id="circle_207" />
    <circle cx="86.5" cy="38.5" r="5" fill="#216AFF" id="circle_206" />
    <circle cx="86.5" cy="50.9" r="5" fill="#F05A42" id="circle_205" />
    <circle cx="86.5" cy="63.3" r="5" fill="#F05A42" id="circle_204" />
    <circle cx="86.5" cy="75.6" r="5" fill="#FAAF3B" id="circle_203" />
    <circle cx="86.5" cy="88" r="5" fill="#A57C52" id="circle_202" />
    <circle cx="98.7" cy="38.5" r="5" fill="#216AFF" id="circle_201" />
    <circle cx="98.7" cy="50.9" r="5" fill="#F05A42" id="circle_200" />
    <circle cx="98.7" cy="63.3" r="5" fill="#F05A42" id="circle_199" />
    <circle cx="98.7" cy="75.6" r="5" fill="#FAAF3B" id="circle_198" />
    <circle cx="98.7" cy="88" r="5" fill="#A57C52" id="circle_197" />
    <circle cx="111.1" cy="38.5" r="5" fill="#216AFF" id="circle_196" />
    <circle cx="111.1" cy="50.9" r="5" fill="#F05A42" id="circle_195" />
    <circle cx="111.1" cy="63.3" r="5" fill="#F05A42" id="circle_194" />
    <circle cx="111.1" cy="75.6" r="5" fill="#FAAF3B" id="circle_193" />
    <circle cx="111.1" cy="88" r="5" fill="#A57C52" id="circle_192" />
    <circle cx="123.5" cy="38.5" r="5" fill="#216AFF" id="circle_191" />
    <circle cx="123.5" cy="50.9" r="5" fill="#F05A42" id="circle_190" />
    <circle cx="123.5" cy="63.3" r="5" fill="#F05A42" id="circle_189" />
    <circle cx="123.5" cy="75.6" r="5" fill="#8BC53F" id="circle_188" />
    <circle cx="123.5" cy="88" r="5" fill="#A57C52" id="circle_187" />
    <circle cx="135.8" cy="38.5" r="5" fill="#216AFF" id="circle_186" />
    <circle cx="135.8" cy="50.9" r="5" fill="#F05A42" id="circle_185" />
    <circle cx="135.8" cy="63.3" r="5" fill="#F05A42" id="circle_184" />
    <circle cx="135.8" cy="75.6" r="5" fill="#8BC53F" id="circle_183" />
    <circle cx="135.8" cy="88" r="5" fill="#A57C52" id="circle_182" />
    <circle cx="148.3" cy="38.5" r="5" fill="#216AFF" id="circle_181" />
    <circle cx="148.3" cy="50.9" r="5" fill="#F05A42" id="circle_180" />
    <circle cx="148.3" cy="63.3" r="5" fill="#F05A42" id="circle_179" />
    <circle cx="148.3" cy="75.6" r="5" fill="#8BC53F" id="circle_178" />
    <circle cx="160.7" cy="38.5" r="5" fill="#216AFF" id="circle_177" />
    <circle cx="160.7" cy="50.9" r="5" fill="#F05A42" id="circle_176" />
    <circle cx="160.7" cy="63.3" r="5" fill="#FAAF3B" id="circle_175" />
    <circle cx="160.7" cy="75.6" r="5" fill="#8BC53F" id="circle_174" />
    <circle cx="206.1" cy="38.5" r="5" fill="#216AFF" id="circle_173" />
    <circle cx="206.1" cy="50.9" r="5" fill="#216AFF" id="circle_172" />
    <circle cx="206.1" cy="63.3" r="5" fill="#F05A42" id="circle_171" />
    <circle cx="206.1" cy="75.6" r="5" fill="#F05A42" id="circle_170" />
    <circle cx="206.1" cy="88" r="5" fill="#8BC53F" id="circle_169" />
    <circle cx="218.5" cy="38.5" r="5" fill="#216AFF" id="circle_168" />
    <circle cx="218.5" cy="50.9" r="5" fill="#216AFF" id="circle_167" />
    <circle cx="218.5" cy="63.3" r="5" fill="#F05A42" id="circle_166" />
    <circle cx="218.5" cy="75.6" r="5" fill="#F05A42" id="circle_165" />
    <circle cx="218.5" cy="88" r="5" fill="#8BC53F" id="circle_164" />
    <circle cx="230.9" cy="38.5" r="5" fill="#216AFF" id="circle_163" />
    <circle cx="230.9" cy="50.9" r="5" fill="#216AFF" id="circle_162" />
    <circle cx="230.9" cy="63.3" r="5" fill="#F05A42" id="circle_161" />
    <circle cx="230.9" cy="75.6" r="5" fill="#F05A42" id="circle_160" />
    <circle cx="230.9" cy="88" r="5" fill="#8BC53F" id="circle_159" />
    <circle cx="243.2" cy="38.5" r="5" fill="#216AFF" id="circle_158" />
    <circle cx="243.2" cy="50.9" r="5" fill="#216AFF" id="circle_157" />
    <circle cx="243.2" cy="63.3" r="5" fill="#F05A42" id="circle_156" />
    <circle cx="243.2" cy="75.6" r="5" fill="#FAAF3B" id="circle_155" />
    <circle cx="243.2" cy="88" r="5" fill="#8BC53F" id="circle_154" />
    <circle cx="255.7" cy="38.5" r="5" fill="#216AFF" id="circle_153" />
    <circle cx="255.7" cy="50.9" r="5" fill="#216AFF" id="circle_152" />
    <circle cx="255.7" cy="63.3" r="5" fill="#F05A42" id="circle_151" />
    <circle cx="255.7" cy="75.6" r="5" fill="#FAAF3B" id="circle_150" />
    <circle cx="255.7" cy="88" r="5" fill="#8BC53F" id="circle_149" />
    <circle cx="268.1" cy="38.5" r="5" fill="#216AFF" id="circle_148" />
    <circle cx="268.1" cy="50.9" r="5" fill="#216AFF" id="circle_147" />
    <circle cx="268.1" cy="63.3" r="5" fill="#F05A42" id="circle_146" />
    <circle cx="268.1" cy="75.6" r="5" fill="#FAAF3B" id="circle_145" />
    <circle cx="268.1" cy="88" r="5" fill="#8BC53F" id="circle_144" />
    <circle cx="280.2" cy="38.5" r="5" fill="#216AFF" id="circle_143" />
    <circle cx="280.2" cy="50.9" r="5" fill="#216AFF" id="circle_142" />
    <circle cx="280.2" cy="63.3" r="5" fill="#F05A42" id="circle_141" />
    <circle cx="280.2" cy="75.6" r="5" fill="#FAAF3B" id="circle_140" />
    <circle cx="280.2" cy="88" r="5" fill="#8BC53F" id="circle_139" />
    <circle cx="292.7" cy="38.5" r="5" fill="#216AFF" id="circle_138" />
    <circle cx="292.7" cy="50.9" r="5" fill="#216AFF" id="circle_137" />
    <circle cx="292.7" cy="63.3" r="5" fill="#F05A42" id="circle_136" />
    <circle cx="292.7" cy="75.6" r="5" fill="#FAAF3B" id="circle_135" />
    <circle cx="292.7" cy="88" r="5" fill="#8BC53F" id="circle_134" />
    <circle cx="305.1" cy="38.5" r="5" fill="#216AFF" id="circle_133" />
    <circle cx="305.1" cy="50.9" r="5" fill="#216AFF" id="circle_132" />
    <circle cx="305.1" cy="63.3" r="5" fill="#F05A42" id="circle_131" />
    <circle cx="305.1" cy="75.6" r="5" fill="#FAAF3B" id="circle_130" />
    <circle cx="305.1" cy="88" r="5" fill="#8BC53F" id="circle_129" />
    <circle cx="317.4" cy="38.5" r="5" fill="#216AFF" id="circle_128" />
    <circle cx="317.4" cy="50.9" r="5" fill="#216AFF" id="circle_127" />
    <circle cx="317.4" cy="63.3" r="5" fill="#F05A42" id="circle_126" />
    <circle cx="317.4" cy="75.6" r="5" fill="#FAAF3B" id="circle_125" />
    <circle cx="317.4" cy="88" r="5" fill="#A57C52" id="circle_124" />
    <circle cx="329.8" cy="38.5" r="5" fill="#216AFF" id="circle_123" />
    <circle cx="329.8" cy="50.9" r="5" fill="#216AFF" id="circle_122" />
    <circle cx="329.8" cy="63.3" r="5" fill="#F05A42" id="circle_121" />
    <circle cx="329.8" cy="75.6" r="5" fill="#FAAF3B" id="circle_120" />
    <circle cx="329.8" cy="88" r="5" fill="#A57C52" id="circle_119" />
    <circle cx="342.3" cy="38.5" r="5" fill="#216AFF" id="circle_118" />
    <circle cx="342.3" cy="50.9" r="5" fill="#F05A42" id="circle_117" />
    <circle cx="342.3" cy="63.3" r="5" fill="#F05A42" id="circle_116" />
    <circle cx="342.3" cy="75.6" r="5" fill="#FAAF3B" id="circle_115" />
    <circle cx="387.6" cy="38.5" r="5" fill="#216AFF" id="circle_114" />
    <circle cx="387.6" cy="50.9" r="5" fill="#F05A42" id="circle_113" />
    <circle cx="387.6" cy="63.3" r="5" fill="#F05A42" id="circle_112" />
    <circle cx="387.6" cy="75.6" r="5" fill="#FAAF3B" id="circle_111" />
    <circle cx="387.6" cy="88" r="5" fill="#8BC53F" id="circle_110" />
    <circle cx="400.1" cy="38.5" r="5" fill="#216AFF" id="circle_109" />
    <circle cx="400.1" cy="50.9" r="5" fill="#F05A42" id="circle_108" />
    <circle cx="400.1" cy="63.3" r="5" fill="#F05A42" id="circle_107" />
    <circle cx="400.1" cy="75.6" r="5" fill="#FAAF3B" id="circle_106" />
    <circle cx="400.1" cy="88" r="5" fill="#8BC53F" id="circle_105" />
    <circle cx="412.5" cy="38.5" r="5" fill="#216AFF" id="circle_104" />
    <circle cx="412.5" cy="50.9" r="5" fill="#F05A42" id="circle_103" />
    <circle cx="412.5" cy="63.3" r="5" fill="#F05A42" id="circle_102" />
    <circle cx="412.5" cy="75.6" r="5" fill="#FAAF3B" id="circle_101" />
    <circle cx="412.5" cy="88" r="5" fill="#A57C52" id="circle_100" />
    <circle cx="424.8" cy="38.5" r="5" fill="#216AFF" id="circle_99" />
    <circle cx="424.8" cy="50.9" r="5" fill="#F05A42" id="circle_98" />
    <circle cx="424.8" cy="63.3" r="5" fill="#F05A42" id="circle_97" />
    <circle cx="424.8" cy="75.6" r="5" fill="#FAAF3B" id="circle_96" />
    <circle cx="424.8" cy="88" r="5" fill="#A57C52" id="circle_95" />
    <circle cx="437.2" cy="38.5" r="5" fill="#F05A42" id="circle_94" />
    <circle cx="437.2" cy="50.9" r="5" fill="#F05A42" id="circle_93" />
    <circle cx="437.2" cy="63.3" r="5" fill="#F05A42" id="circle_92" />
    <circle cx="437.2" cy="75.6" r="5" fill="#FAAF3B" id="circle_91" />
    <circle cx="437.2" cy="88" r="5" fill="#A57C52" id="circle_90" />
    <circle cx="449.7" cy="38.5" r="5" fill="#F05A42" id="circle_89" />
    <circle cx="449.7" cy="50.9" r="5" fill="#F05A42" id="circle_88" />
    <circle cx="449.7" cy="63.3" r="5" fill="#F05A42" id="circle_87" />
    <circle cx="449.7" cy="75.6" r="5" fill="#FAAF3B" id="circle_86" />
    <circle cx="449.7" cy="88" r="5" fill="#A57C52" id="circle_85" />
    <circle cx="461.8" cy="38.5" r="5" fill="#F05A42" id="circle_84" />
    <circle cx="461.8" cy="50.9" r="5" fill="#F05A42" id="circle_83" />
    <circle cx="461.8" cy="63.3" r="5" fill="#F05A42" id="circle_82" />
    <circle cx="461.8" cy="75.6" r="5" fill="#FAAF3B" id="circle_81" />
    <circle cx="461.8" cy="88" r="5" fill="#A57C52" id="circle_80" />
    <circle cx="474.2" cy="38.5" r="5" fill="#F05A42" id="circle_79" />
    <circle cx="474.2" cy="50.9" r="5" fill="#F05A42" id="circle_78" />
    <circle cx="474.2" cy="63.3" r="5" fill="#F05A42" id="circle_77" />
    <circle cx="474.2" cy="75.6" r="5" fill="#FAAF3B" id="circle_76" />
    <circle cx="486.7" cy="38.5" r="5" fill="#F05A42" id="circle_75" />
    <circle cx="486.7" cy="50.9" r="5" fill="#F05A42" id="circle_74" />
    <circle cx="486.7" cy="63.3" r="5" fill="#F05A42" id="circle_73" />
    <circle cx="486.7" cy="75.6" r="5" fill="#FAAF3B" id="circle_72" />
    <circle cx="498.9" cy="38.5" r="5" fill="#F05A42" id="circle_71" />
    <circle cx="498.9" cy="50.9" r="5" fill="#F05A42" id="circle_70" />
    <circle cx="498.9" cy="63.3" r="5" fill="#F05A42" id="circle_69" />
    <circle cx="498.9" cy="75.6" r="5" fill="#FAAF3B" id="circle_68" />
    <circle cx="511.4" cy="38.5" r="5" fill="#F05A42" id="circle_67" />
    <circle cx="511.4" cy="50.9" r="5" fill="#F05A42" id="circle_66" />
    <circle cx="511.4" cy="63.3" r="5" fill="#F05A42" id="circle_65" />
    <circle cx="511.4" cy="75.6" r="5" fill="#8BC53F" id="circle_64" />
    <circle cx="523.8" cy="38.5" r="5" fill="#F05A42" id="circle_63" />
    <circle cx="523.8" cy="50.9" r="5" fill="#F05A42" id="circle_62" />
    <circle cx="523.8" cy="63.3" r="5" fill="#FAAF3B" id="circle_61" />
    <circle cx="523.8" cy="75.6" r="5" fill="#8BC53F" id="circle_60" />
    <circle cx="569.2" cy="38.5" r="5" fill="#216AFF" id="circle_59" />
    <circle cx="569.2" cy="50.9" r="5" fill="#216AFF" id="circle_58" />
    <circle cx="569.2" cy="63.3" r="5" fill="#F05A42" id="circle_57" />
    <circle cx="569.2" cy="75.6" r="5" fill="#8BC53F" id="circle_56" />
    <circle cx="569.2" cy="88" r="5" fill="#FAAF3B" id="circle_55" />
    <circle cx="581.6" cy="38.5" r="5" fill="#216AFF" id="circle_54" />
    <circle cx="581.6" cy="50.9" r="5" fill="#216AFF" id="circle_53" />
    <circle cx="581.6" cy="63.3" r="5" fill="#F05A42" id="circle_52" />
    <circle cx="581.6" cy="75.6" r="5" fill="#8BC53F" id="circle_51" />
    <circle cx="581.6" cy="88" r="5" fill="#FAAF3B" id="circle_50" />
    <circle cx="594" cy="38.5" r="5" fill="#216AFF" id="circle_49" />
    <circle cx="594" cy="50.9" r="5" fill="#216AFF" id="circle_48" />
    <circle cx="594" cy="63.3" r="5" fill="#F05A42" id="circle_47" />
    <circle cx="594" cy="75.6" r="5" fill="#8BC53F" id="circle_46" />
    <circle cx="594" cy="88" r="5" fill="#FAAF3B" id="circle_45" />
    <circle cx="606.3" cy="38.5" r="5" fill="#216AFF" id="circle_44" />
    <circle cx="606.3" cy="50.9" r="5" fill="#216AFF" id="circle_43" />
    <circle cx="606.3" cy="63.3" r="5" fill="#F05A42" id="circle_42" />
    <circle cx="606.3" cy="75.6" r="5" fill="#8BC53F" id="circle_41" />
    <circle cx="606.3" cy="88" r="5" fill="#FAAF3B" id="circle_40" />
    <circle cx="618.8" cy="38.5" r="5" fill="#216AFF" id="circle_39" />
    <circle cx="618.8" cy="50.9" r="5" fill="#216AFF" id="circle_38" />
    <circle cx="618.8" cy="63.3" r="5" fill="#F05A42" id="circle_37" />
    <circle cx="618.8" cy="75.6" r="5" fill="#8BC53F" id="circle_36" />
    <circle cx="618.8" cy="88" r="5" fill="#FAAF3B" id="circle_35" />
    <circle cx="631.2" cy="38.5" r="5" fill="#216AFF" id="circle_34" />
    <circle cx="631.2" cy="50.9" r="5" fill="#216AFF" id="circle_33" />
    <circle cx="631.2" cy="63.3" r="5" fill="#F05A42" id="circle_32" />
    <circle cx="631.2" cy="75.6" r="5" fill="#8BC53F" id="circle_31" />
    <circle cx="631.2" cy="88" r="5" fill="#FAAF3B" id="circle_30" />
    <circle cx="643.3" cy="38.5" r="5" fill="#216AFF" id="circle_29" />
    <circle cx="643.3" cy="50.9" r="5" fill="#216AFF" id="circle_28" />
    <circle cx="643.3" cy="63.3" r="5" fill="#F05A42" id="circle_27" />
    <circle cx="643.3" cy="75.6" r="5" fill="#8BC53F" id="circle_26" />
    <circle cx="643.3" cy="88" r="5" fill="#FAAF3B" id="circle_25" />
    <circle cx="655.8" cy="38.5" r="5" fill="#216AFF" id="circle_24" />
    <circle cx="655.8" cy="50.9" r="5" fill="#216AFF" id="circle_23" />
    <circle cx="655.8" cy="63.3" r="5" fill="#F05A42" id="circle_22" />
    <circle cx="655.8" cy="75.6" r="5" fill="#FAAF3B" id="circle_21" />
    <circle cx="655.8" cy="88" r="5" fill="#FAAF3B" id="circle_20" />
    <circle cx="668.2" cy="38.5" r="5" fill="#216AFF" id="circle_19" />
    <circle cx="668.2" cy="50.9" r="5" fill="#216AFF" id="circle_18" />
    <circle cx="668.2" cy="63.3" r="5" fill="#F05A42" id="circle_17" />
    <circle cx="668.2" cy="75.6" r="5" fill="#FAAF3B" id="circle_16" />
    <circle cx="668.2" cy="88" r="5" fill="#FAAF3B" id="circle_15" />
    <circle cx="680.5" cy="38.5" r="5" fill="#216AFF" id="circle_14" />
    <circle cx="680.5" cy="50.9" r="5" fill="#216AFF" id="circle_13" />
    <circle cx="680.5" cy="63.3" r="5" fill="#F05A42" id="circle_12" />
    <circle cx="680.5" cy="75.6" r="5" fill="#FAAF3B" id="circle_11" />
    <circle cx="680.5" cy="88" r="5" fill="#FAAF3B" id="circle_10" />
    <circle cx="692.9" cy="38.5" r="5" fill="#216AFF" id="circle_9" />
    <circle cx="692.9" cy="50.9" r="5" fill="#216AFF" id="circle_8" />
    <circle cx="692.9" cy="63.3" r="5" fill="#F05A42" id="circle_7" />
    <circle cx="692.9" cy="75.6" r="5" fill="#FAAF3B" id="circle_6" />
    <circle cx="692.9" cy="88" r="5" fill="#A57C52" id="circle_5" />
    <circle cx="705.4" cy="38.5" r="5" fill="#216AFF" id="circle_4" />
    <circle cx="705.4" cy="50.9" r="5" fill="#216AFF" id="circle_3" />
    <circle cx="705.4" cy="63.3" r="5" fill="#F05A42" id="circle_2" />
    <circle cx="705.4" cy="75.6" r="5" fill="#FAAF3B" id="circle_1" />
    <circle cx="705.4" cy="88" r="5" fill="#A57C52" id="circle" />
    <g id="g_14">
      <path d="M24.8,18.1c0,0.3-0.1,0.5-0.1,1.5c0,1.4-0.1,2.1-0.3,2.7c-0.2,0.6-0.7,1.2-1.3,1.6c-0.5,0.3-1.2,0.7-1.8,1    c-0.2,0.1-0.5,0.2-0.9,0.3c-0.1-0.3-0.2-0.4-0.4-0.6c0.9-0.2,1.4-0.4,2.1-0.8c0.9-0.5,1.5-1.2,1.7-1.9c0.1-0.5,0.2-1.2,0.2-2v-0.5    c0-0.2,0-0.4,0-0.6c0-0.4,0-0.6,0-0.8H24.8z M21.3,22.6c0.1-0.3,0.1-0.6,0.1-1.1v-3.8c0-0.6,0-0.8,0-1.1c0.3,0,0.6,0,1.1,0h4    c0.5,0,0.8,0,1.1,0c0,0.2,0,0.5,0,1v3.8c0,0.6,0,0.9,0,1.1h-0.8c0-0.3,0.1-0.6,0.1-1.1v-4.2H22v4.2c0,0.6,0,0.9,0,1.1H21.3z     M28.2,25.2c-0.5-0.4-0.5-0.4-1.8-1c-0.8-0.4-1-0.5-1.7-0.8l0.3-0.5c1,0.4,1.1,0.5,1.8,0.8c1.2,0.6,1.4,0.7,1.8,0.9L28.2,25.2z" fill="#666666" id="path_10" />
      <path d="M31.2,21.7c0-0.4,0-0.7,0-1.2c-0.3,0.4-0.5,0.7-0.9,1.1c-0.1-0.3-0.2-0.3-0.4-0.5c0.7-0.5,1.2-1.1,1.7-1.9    c0.2-0.3,0.4-0.7,0.4-0.9l0.6,0.3c-0.1,0.1-0.1,0.2-0.3,0.5c-0.1,0.2-0.3,0.5-0.5,0.8V24c0,0.6,0,0.9,0,1.2h-0.7    c0-0.3,0.1-0.6,0.1-1.2V21.7z M32.7,16.5c-0.1,0.1-0.1,0.1-0.3,0.3c-0.6,0.7-1.2,1.3-1.9,1.8c-0.1-0.2-0.2-0.3-0.4-0.5    c0.5-0.3,0.8-0.5,1.2-0.9c0.5-0.4,0.7-0.8,0.9-1.1L32.7,16.5z M32.3,24.4c0.5-0.7,0.7-1.1,0.9-1.8l0.6,0.2    c-0.3,0.9-0.5,1.3-0.9,1.9L32.3,24.4z M32.7,21.4c0.3,0,0.5,0,1,0h4.6c0.5,0,0.7,0,1,0V22c-0.3,0-0.5,0-1,0h-4.6c-0.4,0-0.6,0-1,0    V21.4z M35.6,17c0.1-0.3,0.1-0.7,0.1-0.8c0,0,0-0.1,0-0.1l0.7,0c0,0.1,0,0.3-0.1,0.7c0,0.1,0,0.1,0,0.2h2.1c0.5,0,0.7,0,1,0v0.6    c-0.3,0-0.5-0.1-1-0.1h-2.2c0,0.1,0,0.1,0,0.2c0,0.1-0.1,0.3-0.1,0.6h2c0.4,0,0.7,0,0.9,0c0,0.2,0,0.4,0,0.7V20c0,0.3,0,0.5,0,0.7    c-0.2,0-0.5,0-0.9,0h-4.1c-0.4,0-0.6,0-0.9,0c0-0.2,0-0.4,0-0.6v-1c0-0.3,0-0.5,0-0.7c0.3,0,0.5,0,0.8,0h1.5    c0.1-0.3,0.1-0.5,0.2-0.8h-1.7c-0.4,0-0.6,0-1,0V17c0.3,0,0.5,0,1,0H35.6z M33.6,20.2h1.2v-1.3h-1.2V20.2z M34.9,24.2    c0,0.2,0.2,0.3,1.1,0.3c0.6,0,0.9,0,1-0.1c0.1-0.1,0.2-0.2,0.2-1c0.2,0.1,0.4,0.2,0.6,0.2c-0.1,0.7-0.2,1.1-0.5,1.2    c-0.2,0.1-0.7,0.2-1.6,0.2c-1.2,0-1.5-0.1-1.5-0.7v-1.1c0-0.3,0-0.6-0.1-0.8H35c0,0.2-0.1,0.5-0.1,0.8V24.2z M36.5,23.7    c-0.1-0.1-0.1-0.2-0.2-0.2c-0.4-0.5-0.5-0.5-1-1l0.4-0.3c0.5,0.4,0.8,0.6,1.3,1.1L36.5,23.7z M35.3,20.2h1.1v-1.3h-1.1V20.2z     M37,20.2h1.2v-1.3H37V20.2z M38.9,24.6c-0.5-1-0.7-1.2-1.2-1.8l0.5-0.3c0.5,0.7,0.8,1,1.2,1.8L38.9,24.6z" fill="#666666" id="path_9" />
      <path d="M42.5,24.2c0,0.5,0,0.8,0.1,1h-0.7c0-0.3,0.1-0.7,0.1-1v-3c-0.3,0.3-0.7,0.7-1.3,1.2    c-0.1-0.3-0.2-0.4-0.4-0.5c0.8-0.5,1.2-1,1.8-1.6c0.5-0.6,0.8-1,1.1-1.8h-1.7c-0.2,0-0.5,0-0.8,0v-0.6c0.3,0,0.5,0,0.7,0h1.8    c0.2,0,0.4,0,0.5,0l0.3,0.4c-0.1,0.1-0.1,0.2-0.2,0.4c-0.3,0.7-0.5,1-1.1,1.8c0.1,0.1,0.2,0.1,0.4,0.3c0.3,0.2,0.5,0.4,0.9,0.8    L43.4,22c-0.3-0.4-0.5-0.7-0.9-1.1V24.2z M41.9,16.1c0.4,0.4,0.6,0.7,1,1.4l-0.5,0.3c-0.3-0.6-0.5-1-0.9-1.4L41.9,16.1z     M43.7,16.5c0.3,0,0.6,0,1,0h3.7c0.4,0,0.7,0,1,0v0.7c-0.3,0-0.6,0-0.9,0h-3.8c-0.4,0-0.7,0-0.9,0V16.5z M48.3,20.9    c0.5,0,0.7,0,1,0c0,0.2,0,0.5,0,1v2.4c0,0.4,0,0.7,0.1,1h-0.7v-0.5h-4.1v0.5h-0.6c0-0.3,0.1-0.6,0.1-1v-2.4c0-0.4,0-0.7,0-1    c0.2,0,0.5,0,1,0H48.3z M44.4,18.7c0-0.4,0-0.6,0-0.8c0.3,0,0.5,0,0.9,0h2.5c0.4,0,0.7,0,0.9,0c0,0.3,0,0.4,0,0.8v0.6    c0,0.4,0,0.6,0,0.8c-0.3,0-0.5,0-0.9,0h-2.5c-0.4,0-0.7,0-0.9,0c0-0.2,0-0.5,0-0.8V18.7z M44.5,22.5h1.7v-1.1h-1.7V22.5z     M44.5,24.2h1.7V23h-1.7V24.2z M45,19.6h3.1v-1.2H45V19.6z M46.8,22.5h1.8v-1.1h-1.8V22.5z M46.8,24.2h1.8V23h-1.8V24.2z" fill="#666666" id="path_8" />
      <path d="M51.7,21.7c0-0.4,0-0.7,0-1.2c-0.3,0.4-0.5,0.7-0.9,1.1c-0.1-0.3-0.2-0.3-0.4-0.5c0.7-0.5,1.2-1.1,1.7-1.9    c0.2-0.3,0.4-0.7,0.4-0.9l0.6,0.3c-0.1,0.1-0.1,0.2-0.3,0.5c-0.1,0.2-0.3,0.5-0.5,0.8V24c0,0.6,0,0.9,0,1.2h-0.7    c0-0.3,0.1-0.6,0.1-1.2V21.7z M53.2,16.5c-0.1,0.1-0.1,0.1-0.3,0.3c-0.6,0.7-1.2,1.3-1.9,1.8c-0.1-0.2-0.2-0.3-0.4-0.5    c0.5-0.3,0.8-0.5,1.2-0.9c0.5-0.4,0.7-0.8,0.9-1.1L53.2,16.5z M52.8,24.4c0.5-0.7,0.7-1.1,0.9-1.8l0.6,0.2    c-0.3,0.9-0.5,1.3-0.9,1.9L52.8,24.4z M53.2,21.4c0.3,0,0.5,0,1,0h4.6c0.5,0,0.7,0,1,0V22c-0.3,0-0.5,0-1,0h-4.6c-0.4,0-0.6,0-1,0    V21.4z M56.1,17c0.1-0.3,0.1-0.7,0.1-0.8c0,0,0-0.1,0-0.1l0.7,0c0,0.1,0,0.3-0.1,0.7c0,0.1,0,0.1,0,0.2h2.1c0.5,0,0.7,0,1,0v0.6    c-0.3,0-0.5-0.1-1-0.1h-2.2c0,0.1,0,0.1,0,0.2c0,0.1-0.1,0.3-0.1,0.6h2c0.4,0,0.7,0,0.9,0c0,0.2,0,0.4,0,0.7V20c0,0.3,0,0.5,0,0.7    c-0.2,0-0.5,0-0.9,0h-4.1c-0.4,0-0.6,0-0.9,0c0-0.2,0-0.4,0-0.6v-1c0-0.3,0-0.5,0-0.7c0.3,0,0.5,0,0.8,0h1.5    c0.1-0.3,0.1-0.5,0.2-0.8h-1.7c-0.4,0-0.6,0-1,0V17c0.3,0,0.5,0,1,0H56.1z M54.1,20.2h1.2v-1.3h-1.2V20.2z M55.4,24.2    c0,0.2,0.2,0.3,1.1,0.3c0.6,0,0.9,0,1-0.1c0.1-0.1,0.2-0.2,0.2-1c0.2,0.1,0.4,0.2,0.6,0.2c-0.1,0.7-0.2,1.1-0.5,1.2    c-0.2,0.1-0.7,0.2-1.6,0.2c-1.2,0-1.5-0.1-1.5-0.7v-1.1c0-0.3,0-0.6-0.1-0.8h0.7c0,0.2-0.1,0.5-0.1,0.8V24.2z M57,23.7    c-0.1-0.1-0.1-0.2-0.2-0.2c-0.4-0.5-0.5-0.5-1-1l0.4-0.3c0.5,0.4,0.8,0.6,1.3,1.1L57,23.7z M55.8,20.2h1.1v-1.3h-1.1V20.2z     M57.5,20.2h1.2v-1.3h-1.2V20.2z M59.4,24.6c-0.5-1-0.7-1.2-1.2-1.8l0.5-0.3c0.5,0.7,0.8,1,1.2,1.8L59.4,24.6z" fill="#666666" id="path_7" />
    </g>
    <g id="g_13">
      <path d="M207.3,19.6c-1.2-1.4-1.5-1.7-2.5-2.6c-0.2,0.4-0.3,0.5-0.5,0.8c-0.6,0.9-1.2,1.4-2.2,2.1    c-0.1-0.2-0.2-0.3-0.4-0.5c0.8-0.6,1.1-0.8,1.6-1.4c0.6-0.7,0.9-1.1,1.3-2l0.6,0.2c-0.1,0.1-0.1,0.2-0.1,0.3    c0.1,0.1,0.2,0.2,0.6,0.5c1.3,1.2,1.3,1.2,1.5,1.4c0.1,0.1,0.1,0.1,0.6,0.7L207.3,19.6z M207.1,20.6c0,0.1-0.1,0.1-0.1,0.2    c-0.1,0.2-0.1,0.2-0.2,0.5c-0.3,0.9-0.5,1.4-1.1,2.3c0.5-0.1,0.7-0.2,1.4-0.4v0.6c-1.5,0.5-2.3,0.7-4.6,1.1c-0.1,0-0.1,0-0.2,0.1    l-0.1-0.7c0,0,0,0,0.1,0c0.4,0,1.6-0.2,2.6-0.5c0.6-1,1.2-2.5,1.4-3.4L207.1,20.6z M203.2,23.2c-0.2-1-0.3-1.5-0.6-2.4l0.6-0.2    c0.3,0.8,0.5,1.5,0.7,2.4L203.2,23.2z M203.2,19.1c0.3,0,0.4,0,0.8,0h1.7c0.4,0,0.5,0,0.8,0v0.6c-0.2,0-0.4,0-0.8,0H204    c-0.4,0-0.6,0-0.8,0V19.1z M204.6,22.8c-0.1-0.9-0.2-1.5-0.5-2.4l0.6-0.1c0.2,1,0.4,1.6,0.5,2.4L204.6,22.8z M208.6,17    c-0.1,0.2-0.1,0.5-0.1,1.1v3.8c0,0.7,0,0.9,0,1.1h-0.7c0-0.3,0-0.5,0-1.1v-3.8c0-0.5,0-0.8-0.1-1.1H208.6z M210.7,16.3    c0,0.3-0.1,0.6-0.1,1.2v6.7c0,0.7-0.2,0.9-1,0.9c-0.2,0-0.6,0-1.1,0c0-0.3-0.1-0.4-0.2-0.6c0.5,0.1,0.9,0.1,1.3,0.1    c0.4,0,0.4-0.1,0.4-0.3v-6.7c0-0.5,0-0.9-0.1-1.2H210.7z" fill="#666666" id="path_6" />
      <path d="M214.3,24.1c0,0.5,0,0.9,0.1,1.2h-0.7c0-0.3,0.1-0.6,0.1-1.2v-2.8c0-0.3,0-0.8,0-1.6c-0.4,1.3-0.7,2-1.3,2.8    c-0.1-0.2-0.2-0.3-0.4-0.5c0.7-0.9,1.2-1.9,1.6-3.4H213c-0.3,0-0.5,0-0.7,0v-0.6c0.2,0,0.4,0,0.7,0h0.7v-0.9c0-0.6,0-0.8-0.1-1    h0.7c0,0.3,0,0.5,0,1v0.9h0.6c0.3,0,0.4,0,0.6,0v0.6c-0.2,0-0.4,0-0.6,0h-0.6v0.4c0.6,0.7,0.9,1,1.3,1.5l-0.4,0.4    c-0.3-0.5-0.5-0.8-0.8-1.2V24.1z M217.6,18.6c0.1-0.4,0.2-0.8,0.3-1.3c-0.9,0.1-1.1,0.1-1.6,0.1c0-0.2-0.1-0.3-0.2-0.6    c1.9,0,3.6-0.3,4.2-0.7l0.3,0.5c-1.3,0.3-1.3,0.3-2.1,0.5c-0.1,0.6-0.2,0.8-0.3,1.3h2.1c0.4,0,0.7,0,1-0.1v0.7c-0.3,0-0.7,0-1,0    h-0.8c0.2,0.4,0.4,0.7,0.7,0.9c0.3,0.4,0.6,0.5,1.3,0.9c-0.1,0.2-0.2,0.3-0.3,0.6c-0.5-0.3-0.8-0.6-1.2-1c0,0.2,0,0.5,0,1v2.4    c0,0.4,0,0.7,0.1,1.1h-0.8c0-0.3,0.1-0.6,0.1-1v-2.4c0-0.4,0-0.7-0.1-1h0.7c0,0,0,0-0.1-0.1c-0.4-0.4-0.6-0.8-1-1.5H218    c-0.3,0.6-0.5,1.1-1,1.6h0.7c0,0.2-0.1,0.3-0.1,0.8c0,1.1-0.2,1.8-0.5,2.4c-0.3,0.5-0.8,0.9-1.5,1.3c-0.1-0.2-0.3-0.4-0.4-0.5    c0.6-0.2,1-0.5,1.3-0.9c0.4-0.5,0.6-1.2,0.6-2.2c0-0.4,0-0.7-0.1-0.8c-0.4,0.4-0.6,0.6-1.2,1c-0.1-0.3-0.2-0.4-0.4-0.6    c0.7-0.4,1.1-0.7,1.4-1.2c0.2-0.3,0.3-0.4,0.5-0.8h-0.8c-0.4,0-0.7,0-0.9,0v-0.7c0.2,0,0.4,0,0.9,0H217.6z" fill="#666666" id="path_5" />
    </g>
    <g id="g_12">
      <path d="M389.1,21.9c1,1,2.1,1.6,4,2.1c-0.2,0.2-0.3,0.3-0.4,0.6c-1.9-0.7-3-1.4-4-2.5c0,0.6,0,0.9,0,1.1v0.8    c0,0.6,0,0.8,0,1.1h-0.7c0-0.3,0.1-0.6,0.1-1.1v-0.8c0-0.2,0-0.6,0-1.1c-0.9,1-2.1,1.8-3.8,2.5c-0.1-0.2-0.2-0.4-0.4-0.6    c1.6-0.5,2.9-1.2,3.8-2.2h-2.4c-0.4,0-0.8,0-1.1,0.1v-0.7c0.3,0,0.6,0.1,1.1,0.1h2.8v-0.3c0-0.4,0-0.4,0-0.7h0.7    c0,0.2,0,0.4,0,0.7v0.3h2.9c0.5,0,0.8,0,1.1-0.1V22c-0.3,0-0.7-0.1-1.1-0.1H389.1z M388,17.6c0.5,0,0.6,0,0.8-0.1v0.7    c-0.3,0-0.5-0.1-0.8-0.1h-0.9v1.5c0.5-0.1,0.8-0.1,1.7-0.3v0.5c-1.2,0.3-2.3,0.5-4,0.7c-0.3,0-0.5,0.1-0.7,0.1L384,20    c0.3,0,0.5,0,0.9,0v-2c0-0.4,0-0.6-0.1-0.9h0.7c-0.1,0.2-0.1,0.5-0.1,0.9v1.9c0.4-0.1,0.4-0.1,1.1-0.2v-2.5c0-0.5,0-0.7-0.1-0.9    h0.7c0,0.2-0.1,0.5-0.1,0.9v0.4H388z M389.9,19.6c0,0.3,0.2,0.3,1.1,0.3c0.7,0,1,0,1.1-0.2c0.1-0.1,0.2-0.5,0.2-1    c0.2,0.1,0.3,0.2,0.6,0.3c-0.2,1.4-0.3,1.5-2.1,1.5c-1.2,0-1.5-0.1-1.5-0.7v-2.6c0-0.4,0-0.6-0.1-0.9h0.7c0,0.2-0.1,0.4-0.1,0.9    v0.7c1-0.2,1.8-0.6,2.4-0.9l0.4,0.5c-0.1,0-0.1,0-0.2,0.1c-0.8,0.4-1.4,0.6-2.6,0.9V19.6z" fill="#666666" id="path_4" />
      <path d="M396.3,20.6c-0.1,0.4-0.2,0.6-0.4,1.1h2.2c0.3,0,0.5,0,0.7,0c0,0.2,0,0.4,0,0.8v1.9c0,0.4,0,0.7,0,0.9h-0.7    v-0.5h-2.1v0.6h-0.7c0-0.2,0-0.5,0-0.8v-1.1c0-0.4,0-0.6,0-0.9c-0.5,0.9-0.5,1-1,1.6c-0.2-0.2-0.3-0.4-0.5-0.5    c0.8-0.9,1.2-1.7,1.6-2.9h-0.3c-0.4,0-0.6,0-0.8,0v-0.6c0.2,0,0.5,0,0.8,0h0.4c0.1-0.3,0.2-0.7,0.2-1.2h-1c-0.3,0-0.6,0-0.9,0    v-0.7c0.3,0,0.5,0.1,0.9,0.1h1c0-0.3,0-0.3,0.1-1.2h-0.7c-0.3,0-0.5,0-0.8,0v-0.6c0.3,0,0.5,0,0.8,0h2.5c0.3,0,0.5,0,0.7,0    c0,0.2,0,0.4,0,0.6v1.2h0.1c0.3,0,0.4,0,0.6,0v0.6c-0.2,0-0.4,0-0.6,0h-0.1v1.1c0,0.2,0,0.4,0,0.6c-0.2,0-0.5,0-0.7,0H396.3z     M396.1,24.2h2.1v-2h-2.1V24.2z M398.2,20.1v-1.2h-1.6c0,0.4-0.1,0.8-0.2,1.2H398.2z M398.2,18.4v-1.2h-1.5c0,0.2,0,0.3,0,0.4    c0,0.4,0,0.4,0,0.8H398.2z M403.3,16.9c-0.1,0.2-0.1,0.2-0.2,0.4c-0.4,0.9-0.8,1.7-1.2,2.5c0.6,0.6,0.9,1,1.1,1.5    c0.2,0.4,0.3,0.9,0.3,1.4c0,0.6-0.2,1-0.6,1.1c-0.2,0.1-0.5,0.1-0.9,0.1c-0.3,0-0.5,0-0.8,0c0-0.3,0-0.5-0.1-0.7    c0.3,0.1,0.6,0.1,1,0.1c0.6,0,0.8-0.1,0.8-0.7c0-0.5-0.1-1-0.3-1.4c-0.2-0.4-0.5-0.7-1.1-1.3c0.6-1,0.9-1.7,1.3-2.8h-2v7.1    c0,0.5,0,0.8,0.1,1.1h-0.8c0-0.3,0.1-0.6,0.1-1.1v-6.7c0-0.3,0-0.6,0-0.9c0.2,0,0.5,0,0.8,0h1.6c0.4,0,0.6,0,0.8,0L403.3,16.9z" fill="#666666" id="path_3" />
    </g>
    <g id="g_11">
      <path d="M569.7,18.9h-1.7c-0.3,0-0.5,0-0.8,0v-0.6c0.2,0,0.4,0.1,0.8,0.1h1.7c0-0.3,0-0.4,0-0.6h0.7    c0,0.2,0,0.2,0,0.6h1.9c0.4,0,0.6,0,0.9,0c0,0.2,0,0.4,0,0.7v0.6h0.3c0.4,0,0.6,0,0.8,0v0.6c-0.2,0-0.5,0-0.8,0h-0.3v0.6    c0,0.4,0,0.5,0,0.7c-0.4,0-0.5,0-0.7,0h-1.8c0,0,0,0.1,0.1,0.1c0.2,0.5,0.5,0.8,0.9,1.2c0.7-0.5,1.1-0.8,1.5-1.3l0.5,0.4    c-0.6,0.6-1.1,1-1.7,1.3c0.6,0.6,1.2,0.9,2.2,1.3c-0.1,0.1-0.3,0.3-0.4,0.5c-1-0.5-1.5-0.9-2.1-1.5c-0.5-0.5-0.8-1-1.3-1.8    c0,0.3,0,0.8,0,1v1.6c0,0.6-0.2,0.7-1,0.7c-0.3,0-0.5,0-0.9,0c0-0.3-0.1-0.4-0.1-0.7c0.4,0.1,0.7,0.1,1.1,0.1s0.4,0,0.4-0.2v-1    c-1.3,0.6-1.5,0.7-2.6,1.1c-0.2,0.1-0.3,0.1-0.4,0.2l-0.3-0.6c0.2,0,0.3-0.1,0.8-0.2c0.9-0.3,1.3-0.5,2.5-1v-1.3h-1.8    c-0.3,0-0.6,0-0.8,0v-0.6c0.2,0,0.4,0,0.8,0h1.8v-0.8h-3.2c-0.1,2.5-0.3,3.7-1,5.1c-0.2-0.2-0.3-0.3-0.5-0.5    c0.4-0.7,0.5-1.1,0.6-1.8c0.2-1.1,0.3-2.8,0.3-4.9c0-0.6,0-0.8,0-1.1c0.3,0,0.6,0,1.1,0h2.8c-0.1-0.1-0.1-0.1-0.2-0.2    c-0.1-0.1-0.2-0.2-0.5-0.4l0.4-0.3c0.4,0.3,0.6,0.4,1,0.9h2.5c0.5,0,0.8,0,1-0.1v0.6c-0.3,0-0.6,0-0.9,0h-6.5c0,0.9,0,0.9,0,2.1    h3.2V18.9z M567.5,21.6c0.5,0.3,0.9,0.6,1.4,1l-0.4,0.4c-0.5-0.5-0.8-0.7-1.4-1.1L567.5,21.6z M572.4,18.9h-2.1v0.7h2.1V18.9z     M570.2,20.1v0.8h2.1v-0.8H570.2z" fill="#666666" id="path_2" />
      <path d="M575.5,18.7c0.7,0.4,1.2,0.7,1.7,1.2l-0.4,0.5c-0.6-0.6-1-0.9-1.7-1.3L575.5,18.7z M577.3,22    c-0.4,1.1-0.7,1.8-1.3,2.6l-0.3,0.4l-0.5-0.5c0.1-0.1,0.2-0.2,0.3-0.4c0.5-0.7,0.9-1.5,1.3-2.6L577.3,22z M576.1,16.4    c0.7,0.5,1.1,0.8,1.6,1.4l-0.4,0.5c-0.5-0.6-0.9-0.9-1.6-1.4L576.1,16.4z M581.1,20.5c0.2,0.8,0.6,1.4,1,2    c0.3,0.5,0.7,0.9,1.2,1.2c0.4,0.3,0.6,0.5,1.1,0.7c-0.2,0.2-0.3,0.4-0.4,0.6c-0.7-0.4-1.1-0.7-1.6-1.3c-0.6-0.6-0.9-1.2-1.3-1.9    c-0.2-0.3-0.3-0.6-0.4-0.9c-0.3,1.2-0.7,2.1-1.4,2.8c-0.5,0.5-1,0.9-1.8,1.3c-0.1-0.2-0.2-0.4-0.5-0.6c1.8-0.8,2.7-2,3.1-4.1h-1.5    c-0.4,0-0.8,0-1,0.1v-0.7c0.2,0,0.6,0.1,1,0.1h1.6c0.1-0.7,0.1-0.8,0.1-2.1c-0.6,0.1-1.3,0.2-2,0.3c-0.1-0.2-0.1-0.4-0.3-0.6    c2-0.1,4.3-0.6,5.1-1.2l0.5,0.6c-0.1,0-0.1,0-0.2,0.1c-0.9,0.3-1.4,0.5-2.4,0.7c0,1.6,0,1.6-0.1,2.3h2.3c0.4,0,0.8,0,1-0.1v0.7    c-0.3,0-0.7-0.1-1-0.1H581.1z" fill="#666666" id="path_1" />
      <path d="M587.7,18.5c-0.5,0.9-1,1.5-1.7,2.2c-0.2-0.2-0.3-0.3-0.5-0.5c0.9-0.8,1.6-1.8,2.1-3c0.2-0.4,0.2-0.6,0.3-0.9    l0.7,0.2c-0.1,0.1-0.1,0.2-0.2,0.5c-0.2,0.4-0.2,0.4-0.5,1h5.1c0.4,0,0.6,0,0.8,0l0.4,0.4c0,0.1-0.2,0.3-0.3,0.4    c-0.3,0.6-0.6,0.9-1,1.4c-0.2-0.2-0.3-0.3-0.5-0.4c0.5-0.5,0.7-0.7,1-1.2h-2.9v5.8c0,0.6-0.2,0.8-1.1,0.8c-0.4,0-0.7,0-1.2-0.1    c0-0.3-0.1-0.4-0.2-0.7c0.6,0.1,1,0.1,1.4,0.1c0.3,0,0.4,0,0.4-0.2v-5.7H587.7z M588.6,20.4c-0.5,1.2-0.6,1.4-0.9,2    c-0.4,0.7-0.8,1.1-1.3,1.7c-0.2-0.2-0.3-0.3-0.5-0.5c0.6-0.5,0.9-0.9,1.3-1.6c0.4-0.6,0.6-1,0.8-1.8L588.6,20.4z M593.7,24.1    c-0.3-0.7-0.3-0.7-1.1-2c-0.4-0.7-0.6-1-1-1.7l0.6-0.3c0.3,0.5,0.4,0.6,0.7,1.2c0.2,0.4,0.4,0.7,0.6,1c0.5,0.8,0.5,0.9,0.8,1.4    L593.7,24.1z" fill="#666666" id="path" />
    </g>
    <g id="g_10">
	</g>
    <g id="g_9">
	</g>
    <g id="g_8">
	</g>
    <g id="g_7">
	</g>
    <g id="g_6">
	</g>
    <g id="g_5">
	</g>
    <g id="g_4">
	</g>
    <g id="g_3">
	</g>
    <g id="g_2">
	</g>
    <g id="g_1">
	</g>
  </g>
</svg>