<?xml version='1.0' encoding='us-ascii'?>
<svg xmlns="http://www.w3.org/2000/svg" width="880" height="340" viewBox="-440,-170,880,340" style="max-width: 100%; height: auto; font: 10px sans-serif;">
    <line x1="-400" y1="140" x2="400" y2="140" stroke="black" stroke-width="2" id="line_1" />
    <line x1="-400" y1="140" x2="-400" y2="-140" stroke="black" stroke-width="2" id="line" />
    <circle cx="-350" cy="100" r="8" fill="skyblue" id="circle_30" />
    <circle cx="-300" cy="60" r="8" fill="lightgreen" id="circle_29" />
    <circle cx="-250" cy="20" r="8" fill="salmon" id="circle_28" />
    <circle cx="-200" cy="-20" r="8" fill="plum" id="circle_27" />
    <circle cx="-150" cy="-60" r="8" fill="gold" id="circle_26" />
    <circle cx="-100" cy="-20" r="8" fill="coral" id="circle_25" />
    <circle cx="-50" cy="20" r="8" fill="skyblue" id="circle_24" />
    <circle cx="0" cy="60" r="8" fill="lightgreen" id="circle_23" />
    <circle cx="50" cy="100" r="8" fill="salmon" id="circle_22" />
    <circle cx="100" cy="140" r="8" fill="plum" id="circle_21" />
    <circle cx="150" cy="100" r="8" fill="gold" id="circle_20" />
    <circle cx="200" cy="60" r="8" fill="coral" id="circle_19" />
    <circle cx="250" cy="20" r="8" fill="skyblue" id="circle_18" />
    <circle cx="300" cy="-20" r="8" fill="lightgreen" id="circle_17" />
    <circle cx="350" cy="-60" r="8" fill="salmon" id="circle_16" />
    <circle cx="400" cy="-100" r="8" fill="plum" id="circle_15" />
    <circle cx="-350" cy="-120" r="8" fill="gold" id="circle_14" />
    <circle cx="-300" cy="-80" r="8" fill="coral" id="circle_13" />
    <circle cx="-250" cy="-40" r="8" fill="skyblue" id="circle_12" />
    <circle cx="-200" cy="0" r="8" fill="lightgreen" id="circle_11" />
    <circle cx="-150" cy="40" r="8" fill="salmon" id="circle_10" />
    <circle cx="-100" cy="80" r="8" fill="plum" id="circle_9" />
    <circle cx="-50" cy="120" r="8" fill="gold" id="circle_8" />
    <circle cx="0" cy="160" r="8" fill="coral" id="circle_7" />
    <circle cx="50" cy="120" r="8" fill="skyblue" id="circle_6" />
    <circle cx="100" cy="80" r="8" fill="lightgreen" id="circle_5" />
    <circle cx="150" cy="40" r="8" fill="salmon" id="circle_4" />
    <circle cx="200" cy="0" r="8" fill="plum" id="circle_3" />
    <circle cx="250" cy="-40" r="8" fill="gold" id="circle_2" />
    <circle cx="300" cy="-80" r="8" fill="coral" id="circle_1" />
    <circle cx="350" cy="-120" r="8" fill="skyblue" id="circle" />
</svg>