<?xml version='1.0' encoding='UTF-8'?>
<svg xmlns="http://www.w3.org/2000/svg" height="340" style="max-width: 100%; height: auto; font: 10px sans-serif;" viewBox="-70,-30,880,340" width="900">
  <g id="Layer_2">
    <circle cx="364.5" cy="350.5" r="375" opacity="0.25" fill="hsl(214, 100%, 57%)" fill-opacity="0.8" stroke="hsl(202, 81%, 52%)"/>
    <circle cx="270" cy="484" r="212.5" opacity="0.25" fill="hsl(214, 100%, 57%)" fill-opacity="0.8" stroke="hsl(202, 81%, 52%)"/>
    <circle cx="436.6" cy="282.6" r="47.6" opacity="0.25" fill="hsl(214, 100%, 57%)" fill-opacity="0.8" stroke="hsl(202, 81%, 52%)"/>
    <circle cx="219.6" cy="67.6" r="57.4" opacity="0.25" fill="hsl(214, 100%, 57%)" fill-opacity="0.8" stroke="hsl(202, 81%, 52%)"/>
    <circle cx="95.1" cy="231.6" r="50.4" opacity="0.25" fill="hsl(214, 100%, 57%)" fill-opacity="0.8" stroke="hsl(202, 81%, 52%)"/>
    <circle cx="187.6" cy="225.6" r="42.4" opacity="0.25" fill="hsl(214, 100%, 57%)" fill-opacity="0.8" stroke="hsl(202, 81%, 52%)"/>
    <circle cx="333.2" cy="176.7" r="99.7" opacity="0.25" fill="hsl(214, 100%, 57%)" fill-opacity="0.8" stroke="hsl(202, 81%, 52%)"/>
    <circle cx="134.5" cy="201.8" r="100" opacity="0.25" fill="hsl(214, 100%, 57%)" fill-opacity="0.8" stroke="hsl(202, 81%, 52%)"/>
    <circle cx="492.3" cy="87.3" r="82.2" opacity="0.25" fill="hsl(214, 100%, 57%)" fill-opacity="0.8" stroke="hsl(202, 81%, 52%)"/>
    <circle cx="478" cy="207" r="37.5" opacity="0.25" fill="hsl(214, 100%, 57%)" fill-opacity="0.8" stroke="hsl(202, 81%, 52%)"/>
    <circle cx="615.3" cy="183" r="72.8" opacity="0.25" fill="hsl(214, 100%, 57%)" fill-opacity="0.8" stroke="hsl(202, 81%, 52%)"/>
    <circle cx="533.6" cy="256.6" r="35.9" opacity="0.25" fill="hsl(214, 100%, 57%)" fill-opacity="0.8" stroke="hsl(202, 81%, 52%)"/>
    <ellipse cx="613" cy="323.5" rx="67.5" ry="67" opacity="0.25" fill="hsl(214, 100%, 57%)" fill-opacity="0.8" stroke="hsl(202, 81%, 52%)"/>
    <circle cx="509.5" cy="325.5" r="36.2" opacity="0.25" fill="hsl(214, 100%, 57%)" fill-opacity="0.8" stroke="hsl(202, 81%, 52%)"/>
    <circle cx="487.4" cy="254.1" r="9.8" opacity="0.25" fill="hsl(214, 100%, 57%)" fill-opacity="0.8" stroke="hsl(202, 81%, 52%)"/>
    <ellipse cx="302" cy="376" rx="100" ry="100" opacity="0.25" fill="hsl(214, 100%, 57%)" fill-opacity="0.8" stroke="hsl(202, 81%, 52%)"/>
    <circle cx="341.5" cy="308" r="21" opacity="0.25" fill="hsl(214, 100%, 57%)" fill-opacity="0.8" stroke="hsl(202, 81%, 52%)"/>
    <circle cx="282" cy="319" r="39.5" opacity="0.25" fill="hsl(214, 100%, 57%)" fill-opacity="0.8" stroke="hsl(202, 81%, 52%)"/>
    <circle cx="185.5" cy="321" r="28.5" opacity="0.25" fill="hsl(214, 100%, 57%)" fill-opacity="0.8" stroke="hsl(202, 81%, 52%)"/>
    <circle cx="513.6" cy="115.1" r="47.6" opacity="0.25" fill="hsl(214, 100%, 57%)" fill-opacity="0.8" stroke="hsl(202, 81%, 52%)"/>
    <circle cx="461" cy="53.2" r="33.2" opacity="0.25" fill="hsl(214, 100%, 57%)" fill-opacity="0.8" stroke="hsl(202, 81%, 52%)"/>
    <circle cx="342.5" cy="247" r="29" opacity="0.25" fill="hsl(214, 100%, 57%)" fill-opacity="0.8" stroke="hsl(202, 81%, 52%)"/>
    <circle cx="393.3" cy="216.2" r="28.8" opacity="0.25" fill="hsl(214, 100%, 57%)" fill-opacity="0.8" stroke="hsl(202, 81%, 52%)"/>
    <circle cx="649.5" cy="165.2" r="35" opacity="0.25" fill="hsl(214, 100%, 57%)" fill-opacity="0.8" stroke="hsl(202, 81%, 52%)"/>
    <circle cx="452" cy="279" r="32" opacity="0.25" fill="hsl(214, 100%, 57%)" fill-opacity="0.8" stroke="hsl(202, 81%, 52%)"/>
    <circle cx="598.5" cy="296.5" r="37.5" opacity="0.25" fill="hsl(214, 100%, 57%)" fill-opacity="0.8" stroke="hsl(202, 81%, 52%)"/>
    <circle cx="318" cy="151" r="70" opacity="0.25" fill="hsl(214, 100%, 57%)" fill-opacity="0.8" stroke="hsl(202, 81%, 52%)"/>
    <circle cx="656.8" cy="311.2" r="21.8" opacity="0.25" fill="hsl(214, 100%, 57%)" fill-opacity="0.8" stroke="hsl(202, 81%, 52%)"/>
  </g>
  <g id="Layer_3">
    <circle cx="346" cy="261.2" r="14.3" fill="hsl(0, 0%, 100%)" stroke="hsl(206, 98%, 57%)" stroke-width="0.75"/>
    <circle cx="275.9" cy="295.8" r="15.5" fill="hsl(0, 0%, 100%)" stroke="hsl(206, 98%, 57%)" stroke-width="0.75"/>
    <circle cx="260" cy="323.4" r="16.1" fill="hsl(0, 0%, 100%)" stroke="hsl(206, 98%, 57%)" stroke-width="0.75"/>
    <ellipse cx="190" cy="213.4" rx="20.1" ry="19.8" fill="hsl(0, 0%, 100%)" stroke="hsl(206, 98%, 57%)" stroke-width="0.75"/>
    <circle cx="328" cy="135.8" r="14.3" fill="hsl(0, 0%, 100%)" stroke="hsl(206, 98%, 57%)" stroke-width="0.75"/>
    <circle cx="234" cy="40.8" r="12.7" fill="hsl(0, 0%, 100%)" stroke="hsl(206, 98%, 57%)" stroke-width="0.75"/>
    <circle cx="256.2" cy="76.7" r="10.8" fill="hsl(0, 0%, 100%)" stroke="hsl(206, 98%, 57%)" stroke-width="0.75"/>
    <circle cx="348.8" cy="154.3" r="13.1" fill="hsl(0, 0%, 100%)" stroke="hsl(206, 98%, 57%)" stroke-width="0.75"/>
    <circle cx="321.6" cy="181" r="11.7" fill="hsl(0, 0%, 100%)" stroke="hsl(206, 98%, 57%)" stroke-width="0.75"/>
    <circle cx="298.1" cy="167.2" r="15.2" fill="hsl(0, 0%, 100%)" stroke="hsl(206, 98%, 57%)" stroke-width="0.75"/>
    <circle cx="178.6" cy="61" r="15.7" fill="hsl(0, 0%, 100%)" stroke="hsl(206, 98%, 57%)" stroke-width="0.75"/>
    <circle cx="245.5" cy="100.2" r="15.2" fill="hsl(0, 0%, 100%)" stroke="hsl(206, 98%, 57%)" stroke-width="0.75"/>
    <circle cx="273.7" cy="184.8" r="14.3" fill="hsl(0, 0%, 100%)" stroke="hsl(206, 98%, 57%)" stroke-width="0.75"/>
    <circle cx="317.3" cy="206.5" r="14.3" fill="hsl(0, 0%, 100%)" stroke="hsl(206, 98%, 57%)" stroke-width="0.75"/>
    <circle cx="368.3" cy="173.8" r="14.3" fill="hsl(0, 0%, 100%)" stroke="hsl(206, 98%, 57%)" stroke-width="0.75"/>
    <circle cx="376.4" cy="149.3" r="11.1" fill="hsl(0, 0%, 100%)" stroke="hsl(206, 98%, 57%)" stroke-width="0.75"/>
    <circle cx="291.7" cy="203.7" r="11.1" fill="hsl(0, 0%, 100%)" stroke="hsl(206, 98%, 57%)" stroke-width="0.75"/>
    <circle cx="359.7" cy="123.2" r="19.3" fill="hsl(0, 0%, 100%)" stroke="hsl(206, 98%, 57%)" stroke-width="0.75"/>
    <circle cx="346.5" cy="195.7" r="16.5" fill="hsl(0, 0%, 100%)" stroke="hsl(206, 98%, 57%)" stroke-width="0.75"/>
    <circle cx="454.5" cy="291.3" r="18.5" fill="hsl(0, 0%, 100%)" stroke="hsl(206, 98%, 57%)" stroke-width="0.75"/>
    <circle cx="468.5" cy="224" r="18.5" fill="hsl(0, 0%, 100%)" stroke="hsl(206, 98%, 57%)" stroke-width="0.75"/>
    <circle cx="484.2" cy="190" r="18.5" fill="hsl(0, 0%, 100%)" stroke="hsl(206, 98%, 57%)" stroke-width="0.75"/>
    <circle cx="544.5" cy="247.3" r="18.5" fill="hsl(0, 0%, 100%)" stroke="hsl(206, 98%, 57%)" stroke-width="0.75"/>
    <circle cx="589.5" cy="157.3" r="24.2" fill="hsl(0, 0%, 100%)" stroke="hsl(206, 98%, 57%)" stroke-width="0.75"/>
    <circle cx="569.2" cy="197" r="19.8" fill="hsl(0, 0%, 100%)" stroke="hsl(206, 98%, 57%)" stroke-width="0.75"/>
    <circle cx="605.2" cy="194.7" r="15.8" fill="hsl(0, 0%, 100%)" stroke="hsl(206, 98%, 57%)" stroke-width="0.75"/>
    <circle cx="444.8" cy="261.3" r="12.5" fill="hsl(0, 0%, 100%)" stroke="hsl(206, 98%, 57%)" stroke-width="0.75"/>
    <circle cx="513.2" cy="253.3" r="12.5" fill="hsl(0, 0%, 100%)" stroke="hsl(206, 98%, 57%)" stroke-width="0.75"/>
    <circle cx="499.7" cy="315.4" r="12.5" fill="hsl(0, 0%, 100%)" stroke="hsl(206, 98%, 57%)" stroke-width="0.75"/>
    <circle cx="520.9" cy="309.7" r="9" fill="hsl(0, 0%, 100%)" stroke="hsl(206, 98%, 57%)" stroke-width="0.75"/>
    <circle cx="267.3" cy="150.8" r="19.3" fill="hsl(0, 0%, 100%)" stroke="hsl(206, 98%, 57%)" stroke-width="0.75"/>
    <circle cx="287.8" cy="114.3" r="21.8" fill="hsl(0, 0%, 100%)" stroke="hsl(206, 98%, 57%)" stroke-width="0.75"/>
    <circle cx="203.7" cy="94.5" r="26.3" fill="hsl(0, 0%, 100%)" stroke="hsl(206, 98%, 57%)" stroke-width="0.75"/>
    <circle cx="143.7" cy="180.5" r="19.3" fill="hsl(0, 0%, 100%)" stroke="hsl(206, 98%, 57%)" stroke-width="0.75"/>
    <circle cx="74.7" cy="255.2" r="18.3" fill="hsl(0, 0%, 100%)" stroke="hsl(206, 98%, 57%)" stroke-width="0.75"/>
    <circle cx="124" cy="233.5" r="12" fill="hsl(0, 0%, 100%)" stroke="hsl(206, 98%, 57%)" stroke-width="0.75"/>
    <circle cx="178.7" cy="244.2" r="12" fill="hsl(0, 0%, 100%)" stroke="hsl(206, 98%, 57%)" stroke-width="0.75"/>
    <circle cx="104.7" cy="248.5" r="12" fill="hsl(0, 0%, 100%)" stroke="hsl(206, 98%, 57%)" stroke-width="0.75"/>
    <circle cx="203.7" cy="242.8" r="12" fill="hsl(0, 0%, 100%)" stroke="hsl(206, 98%, 57%)" stroke-width="0.75"/>
    <circle cx="90.3" cy="211.2" r="27.7" fill="hsl(0, 0%, 100%)" stroke="hsl(206, 98%, 57%)" stroke-width="0.75"/>
    <circle cx="391.8" cy="72.7" r="19" fill="hsl(0, 0%, 100%)" stroke="hsl(206, 98%, 57%)" stroke-width="0.75"/>
    <circle cx="531.8" cy="136.3" r="19" fill="hsl(0, 0%, 100%)" stroke="hsl(206, 98%, 57%)" stroke-width="0.75"/>
    <circle cx="496.8" cy="135.3" r="15.7" fill="hsl(0, 0%, 100%)" stroke="hsl(206, 98%, 57%)" stroke-width="0.75"/>
    <circle cx="480.5" cy="111" r="13.7" fill="hsl(0, 0%, 100%)" stroke="hsl(206, 98%, 57%)" stroke-width="0.75"/>
    <circle cx="491.2" cy="89" r="10.7" fill="hsl(0, 0%, 100%)" stroke="hsl(206, 98%, 57%)" stroke-width="0.75"/>
    <circle cx="509.2" cy="81.3" r="8.3" fill="hsl(0, 0%, 100%)" stroke="hsl(206, 98%, 57%)" stroke-width="0.75"/>
    <circle cx="524.8" cy="84" r="7.3" fill="hsl(0, 0%, 100%)" stroke="hsl(206, 98%, 57%)" stroke-width="0.75"/>
    <circle cx="537.2" cy="89" r="6" fill="hsl(0, 0%, 100%)" stroke="hsl(206, 98%, 57%)" stroke-width="0.75"/>
    <circle cx="540.2" cy="100.3" r="5.7" fill="hsl(0, 0%, 100%)" stroke="hsl(206, 98%, 57%)" stroke-width="0.75"/>
    <circle cx="537.2" cy="112" r="5.7" fill="hsl(0, 0%, 100%)" stroke="hsl(206, 98%, 57%)" stroke-width="0.75"/>
    <circle cx="512.5" cy="120.3" r="5.7" fill="hsl(0, 0%, 100%)" stroke="hsl(206, 98%, 57%)" stroke-width="0.75"/>
    <circle cx="516.2" cy="91.8" r="3.7" fill="hsl(0, 0%, 100%)" stroke="hsl(206, 98%, 57%)" stroke-width="0.75"/>
    <circle cx="508" cy="104.3" r="2.8" fill="hsl(0, 0%, 100%)" stroke="hsl(206, 98%, 57%)" stroke-width="0.75"/>
    <circle cx="522.2" cy="93.7" r="2.2" fill="hsl(0, 0%, 100%)" stroke="hsl(206, 98%, 57%)" stroke-width="0.75"/>
    <circle cx="525.8" cy="102.8" r="2.2" fill="hsl(0, 0%, 100%)" stroke="hsl(206, 98%, 57%)" stroke-width="0.75"/>
    <circle cx="513.7" cy="104.3" r="2.2" fill="hsl(0, 0%, 100%)" stroke="hsl(206, 98%, 57%)" stroke-width="0.75"/>
    <circle cx="511" cy="108.8" r="2.2" fill="hsl(0, 0%, 100%)" stroke="hsl(206, 98%, 57%)" stroke-width="0.75"/>
    <circle cx="515.5" cy="112.2" r="2.2" fill="hsl(0, 0%, 100%)" stroke="hsl(206, 98%, 57%)" stroke-width="0.75"/>
    <circle cx="520.3" cy="104.7" r="2.2" fill="hsl(0, 0%, 100%)" stroke="hsl(206, 98%, 57%)" stroke-width="0.75"/>
    <circle cx="515.8" cy="107.8" r="1.3" fill="hsl(0, 0%, 100%)" stroke="hsl(206, 98%, 57%)" stroke-width="0.75"/>
    <circle cx="509.8" cy="113.5" r="1.3" fill="hsl(0, 0%, 100%)" stroke="hsl(206, 98%, 57%)" stroke-width="0.75"/>
    <circle cx="519.8" cy="109.3" r="1.3" fill="hsl(0, 0%, 100%)" stroke="hsl(206, 98%, 57%)" stroke-width="0.75"/>
    <circle cx="532.2" cy="98.5" r="1.3" fill="hsl(0, 0%, 100%)" stroke="hsl(206, 98%, 57%)" stroke-width="0.75"/>
    <circle cx="528.7" cy="94.3" r="3.7" fill="hsl(0, 0%, 100%)" stroke="hsl(206, 98%, 57%)" stroke-width="0.75"/>
    <circle cx="531.5" cy="104.7" r="3.7" fill="hsl(0, 0%, 100%)" stroke="hsl(206, 98%, 57%)" stroke-width="0.75"/>
    <circle cx="521.4" cy="115.8" r="4.1" fill="hsl(0, 0%, 100%)" stroke="hsl(206, 98%, 57%)" stroke-width="0.75"/>
    <circle cx="498.2" cy="113" r="3.7" fill="hsl(0, 0%, 100%)" stroke="hsl(206, 98%, 57%)" stroke-width="0.75"/>
    <circle cx="503.8" cy="117.5" r="3" fill="hsl(0, 0%, 100%)" stroke="hsl(206, 98%, 57%)" stroke-width="0.75"/>
    <circle cx="505.3" cy="110.8" r="3" fill="hsl(0, 0%, 100%)" stroke="hsl(206, 98%, 57%)" stroke-width="0.75"/>
    <circle cx="515" cy="98.8" r="3" fill="hsl(0, 0%, 100%)" stroke="hsl(206, 98%, 57%)" stroke-width="0.75"/>
    <circle cx="525" cy="108.3" r="3" fill="hsl(0, 0%, 100%)" stroke="hsl(206, 98%, 57%)" stroke-width="0.75"/>
    <circle cx="521.3" cy="99.2" r="3" fill="hsl(0, 0%, 100%)" stroke="hsl(206, 98%, 57%)" stroke-width="0.75"/>
    <circle cx="528.5" cy="114.3" r="3" fill="hsl(0, 0%, 100%)" stroke="hsl(206, 98%, 57%)" stroke-width="0.75"/>
    <circle cx="506.8" cy="95.3" r="5.7" fill="hsl(0, 0%, 100%)" stroke="hsl(206, 98%, 57%)" stroke-width="0.75"/>
    <circle cx="498.8" cy="103.3" r="5.7" fill="hsl(0, 0%, 100%)" stroke="hsl(206, 98%, 57%)" stroke-width="0.75"/>
    <ellipse cx="651.8" cy="141.9" rx="10.7" ry="10.7" transform="matrix(0.9456 -0.3254 0.3254 0.9456 -10.7194 219.8014)" fill="hsl(0, 0%, 100%)" stroke="hsl(206, 98%, 57%)" stroke-width="0.75"/>
    <ellipse cx="633.5" cy="225.7" rx="10.7" ry="10.7" transform="matrix(0.9456 -0.3254 0.3254 0.9456 -38.9636 218.4207)" fill="hsl(0, 0%, 100%)" stroke="hsl(206, 98%, 57%)" stroke-width="0.75"/>
    <ellipse cx="664.9" cy="156.5" rx="8.3" ry="8.3" transform="matrix(0.9456 -0.3254 0.3254 0.9456 -14.7331 224.8499)" fill="hsl(0, 0%, 100%)" stroke="hsl(206, 98%, 57%)" stroke-width="0.75"/>
    <ellipse cx="667.5" cy="172.2" rx="7.3" ry="7.3" transform="matrix(0.9456 -0.3254 0.3254 0.9456 -19.6964 226.5332)" fill="hsl(0, 0%, 100%)" stroke="hsl(206, 98%, 57%)" stroke-width="0.75"/>
    <ellipse cx="666.7" cy="185.4" rx="6" ry="6" transform="matrix(0.9456 -0.3254 0.3254 0.9456 -24.058 227.0446)" fill="hsl(0, 0%, 100%)" stroke="hsl(206, 98%, 57%)" stroke-width="0.75"/>
    <ellipse cx="657" cy="192" rx="5.7" ry="5.7" transform="matrix(0.9456 -0.3254 0.3254 0.9456 -26.7116 224.2084)" fill="hsl(0, 0%, 100%)" stroke="hsl(206, 98%, 57%)" stroke-width="0.75"/>
    <ellipse cx="645" cy="192.9" rx="5.7" ry="5.7" transform="matrix(0.9456 -0.3254 0.3254 0.9456 -27.6757 220.3737)" fill="hsl(0, 0%, 100%)" stroke="hsl(206, 98%, 57%)" stroke-width="0.75"/>
    <ellipse cx="629.1" cy="172.3" rx="5.7" ry="5.7" transform="matrix(0.9456 -0.3254 0.3254 0.9456 -21.8352 214.0583)" fill="hsl(0, 0%, 100%)" stroke="hsl(206, 98%, 57%)" stroke-width="0.75"/>
    <ellipse cx="657.2" cy="166.5" rx="3.7" ry="3.7" transform="matrix(0.9456 -0.3254 0.3254 0.9456 -18.4122 222.9322)" fill="hsl(0, 0%, 100%)" stroke="hsl(206, 98%, 57%)" stroke-width="0.75"/>
    <ellipse cx="642.7" cy="162.9" rx="2.8" ry="2.8" transform="matrix(0.9457 -0.3252 0.3252 0.9457 -18.0253 217.8466)" fill="hsl(0, 0%, 100%)" stroke="hsl(206, 98%, 57%)" stroke-width="0.75"/>
    <ellipse cx="657.4" cy="172.8" rx="2.2" ry="2.2" transform="matrix(0.9456 -0.3254 0.3254 0.9456 -20.44 223.3492)" fill="hsl(0, 0%, 100%)" stroke="hsl(206, 98%, 57%)" stroke-width="0.75"/>
    <ellipse cx="650" cy="179.2" rx="2.2" ry="2.2" transform="matrix(0.9456 -0.3254 0.3254 0.9456 -22.9456 221.2677)" fill="hsl(0, 0%, 100%)" stroke="hsl(206, 98%, 57%)" stroke-width="0.75"/>
    <ellipse cx="644.6" cy="168.2" rx="2.2" ry="2.2" transform="matrix(0.9456 -0.3253 0.3253 0.9456 -19.657 218.8683)" fill="hsl(0, 0%, 100%)" stroke="hsl(206, 98%, 57%)" stroke-width="0.75"/>
    <ellipse cx="639.5" cy="167.2" rx="2.2" ry="2.2" transform="matrix(0.9456 -0.3253 0.3253 0.9456 -19.5916 217.144)" fill="hsl(0, 0%, 100%)" stroke="hsl(206, 98%, 57%)" stroke-width="0.75"/>
    <ellipse cx="637.8" cy="172.5" rx="2.2" ry="2.2" transform="matrix(0.9456 -0.3253 0.3253 0.9456 -21.4207 216.8854)" fill="hsl(0, 0%, 100%)" stroke="hsl(206, 98%, 57%)" stroke-width="0.75"/>
    <ellipse cx="646.4" cy="174.6" rx="2.2" ry="2.2" transform="matrix(0.9456 -0.3253 0.3253 0.9456 -21.6425 219.8205)" fill="hsl(0, 0%, 100%)" stroke="hsl(206, 98%, 57%)" stroke-width="0.75"/>
    <ellipse cx="642" cy="171.4" rx="1.3" ry="1.3" transform="matrix(0.9456 -0.3253 0.3253 0.9456 -20.8378 218.1895)" fill="hsl(0, 0%, 100%)" stroke="hsl(206, 98%, 57%)" stroke-width="0.75"/>
    <ellipse cx="634.7" cy="167.6" rx="1.3" ry="1.3" transform="matrix(0.9456 -0.3255 0.3255 0.9456 -19.9836 215.683)" fill="hsl(0, 0%, 100%)" stroke="hsl(206, 98%, 57%)" stroke-width="0.75"/>
    <ellipse cx="641.9" cy="175.7" rx="1.3" ry="1.3" transform="matrix(0.9456 -0.3253 0.3253 0.9456 -22.2335 218.3838)" fill="hsl(0, 0%, 100%)" stroke="hsl(206, 98%, 57%)" stroke-width="0.75"/>
    <ellipse cx="656.1" cy="183.8" rx="1.3" ry="1.3" transform="matrix(0.9456 -0.3253 0.3253 0.9456 -24.1065 223.4406)" fill="hsl(0, 0%, 100%)" stroke="hsl(206, 98%, 57%)" stroke-width="0.75"/>
    <ellipse cx="621.2" cy="228.1" rx="1.3" ry="1.3" transform="matrix(0.9456 -0.3253 0.3253 0.9456 -40.4007 214.5124)" fill="hsl(0, 0%, 100%)" stroke="hsl(206, 98%, 57%)" stroke-width="0.75"/>
    <ellipse cx="658.9" cy="179.1" rx="3.7" ry="3.7" transform="matrix(0.9456 -0.3254 0.3254 0.9456 -22.4311 224.1639)" fill="hsl(0, 0%, 100%)" stroke="hsl(206, 98%, 57%)" stroke-width="0.75"/>
    <ellipse cx="650.1" cy="185.2" rx="3.7" ry="3.7" transform="matrix(0.9456 -0.3254 0.3254 0.9456 -24.8797 221.592)" fill="hsl(0, 0%, 100%)" stroke="hsl(206, 98%, 57%)" stroke-width="0.75"/>
    <ellipse cx="636.3" cy="179.3" rx="4.1" ry="4.1" transform="matrix(0.9456 -0.3253 0.3253 0.9456 -23.7008 216.7663)" fill="hsl(0, 0%, 100%)" stroke="hsl(206, 98%, 57%)" stroke-width="0.75"/>
    <ellipse cx="631.4" cy="156.4" rx="3.7" ry="3.7" transform="matrix(0.9456 -0.3254 0.3254 0.9456 -16.5239 213.946)" fill="hsl(0, 0%, 100%)" stroke="hsl(206, 98%, 57%)" stroke-width="0.75"/>
    <ellipse cx="628.9" cy="163.2" rx="3" ry="3" transform="matrix(0.9456 -0.3253 0.3253 0.9456 -18.8811 213.459)" fill="hsl(0, 0%, 100%)" stroke="hsl(206, 98%, 57%)" stroke-width="0.75"/>
    <ellipse cx="635.7" cy="162.4" rx="3" ry="3" transform="matrix(0.9456 -0.3254 0.3254 0.9456 -18.2593 215.7272)" fill="hsl(0, 0%, 100%)" stroke="hsl(206, 98%, 57%)" stroke-width="0.75"/>
    <ellipse cx="650.2" cy="167.7" rx="3" ry="3" transform="matrix(0.9456 -0.3254 0.3254 0.9456 -19.174 220.7362)" fill="hsl(0, 0%, 100%)" stroke="hsl(206, 98%, 57%)" stroke-width="0.75"/>
    <ellipse cx="644.5" cy="180.2" rx="3" ry="3" transform="matrix(0.9456 -0.3253 0.3253 0.9456 -23.575 219.458)" fill="hsl(0, 0%, 100%)" stroke="hsl(206, 98%, 57%)" stroke-width="0.75"/>
    <ellipse cx="652" cy="173.8" rx="3" ry="3" transform="matrix(0.9456 -0.3253 0.3253 0.9456 -21.07 221.5383)" fill="hsl(0, 0%, 100%)" stroke="hsl(206, 98%, 57%)" stroke-width="0.75"/>
    <ellipse cx="640" cy="185.5" rx="3" ry="3" transform="matrix(0.9456 -0.3254 0.3254 0.9456 -25.5281 218.3741)" fill="hsl(0, 0%, 100%)" stroke="hsl(206, 98%, 57%)" stroke-width="0.75"/>
    <ellipse cx="650.9" cy="158.8" rx="5.7" ry="5.7" transform="matrix(0.9456 -0.3253 0.3253 0.9456 -16.2607 220.3946)" fill="hsl(0, 0%, 100%)" stroke="hsl(206, 98%, 57%)" stroke-width="0.75"/>
    <ellipse cx="640.7" cy="153.9" rx="5.7" ry="5.7" transform="matrix(0.9456 -0.3254 0.3254 0.9456 -15.1969 216.8449)" fill="hsl(0, 0%, 100%)" stroke="hsl(206, 98%, 57%)" stroke-width="0.75"/>
    <circle cx="447.3" cy="58.5" r="15.8" fill="hsl(0, 0%, 100%)" stroke="hsl(206, 98%, 57%)" stroke-width="0.75"/>
    <circle cx="469.5" cy="41.7" r="12" fill="hsl(0, 0%, 100%)" stroke="hsl(206, 98%, 57%)" stroke-width="0.75"/>
    <circle cx="327.3" cy="101.8" r="19.3" fill="hsl(0, 0%, 100%)" stroke="hsl(206, 98%, 57%)" stroke-width="0.75"/>
    <circle cx="202.3" cy="34.8" r="19.3" fill="hsl(0, 0%, 100%)" stroke="hsl(206, 98%, 57%)" stroke-width="0.75"/>
    <circle cx="399.7" cy="223.8" r="9" fill="hsl(0, 0%, 100%)" stroke="hsl(206, 98%, 57%)" stroke-width="0.75"/>
    <circle cx="304.5" cy="142" r="10" fill="hsl(0, 0%, 100%)" stroke="hsl(206, 98%, 57%)" stroke-width="0.75"/>
    <circle cx="303.3" cy="189.2" r="6.8" fill="hsl(0, 0%, 100%)" stroke="hsl(206, 98%, 57%)" stroke-width="0.75"/>
    <circle cx="524.7" cy="212.3" r="9" fill="hsl(0, 0%, 100%)" stroke="hsl(206, 98%, 57%)" stroke-width="0.75"/>
    <circle cx="495" cy="215.3" r="9" fill="hsl(0, 0%, 100%)" stroke="hsl(206, 98%, 57%)" stroke-width="0.75"/>
    <circle cx="527.3" cy="269.3" r="9" fill="hsl(0, 0%, 100%)" stroke="hsl(206, 98%, 57%)" stroke-width="0.75"/>
    <circle cx="591.3" cy="215.7" r="9" fill="hsl(0, 0%, 100%)" stroke="hsl(206, 98%, 57%)" stroke-width="0.75"/>
    <circle cx="664.7" cy="307.7" r="9" fill="hsl(0, 0%, 100%)" stroke="hsl(206, 98%, 57%)" stroke-width="0.75"/>
    <circle cx="608" cy="217.7" r="7.3" fill="hsl(0, 0%, 100%)" stroke="hsl(206, 98%, 57%)" stroke-width="0.75"/>
    <circle cx="621.7" cy="211" r="7.3" fill="hsl(0, 0%, 100%)" stroke="hsl(206, 98%, 57%)" stroke-width="0.75"/>
    <circle cx="578.7" cy="219.3" r="4" fill="hsl(0, 0%, 100%)" stroke="hsl(206, 98%, 57%)" stroke-width="0.75"/>
    <circle cx="599.7" cy="225.3" r="4" fill="hsl(0, 0%, 100%)" stroke="hsl(206, 98%, 57%)" stroke-width="0.75"/>
    <circle cx="618.7" cy="222.3" r="4" fill="hsl(0, 0%, 100%)" stroke="hsl(206, 98%, 57%)" stroke-width="0.75"/>
    <circle cx="459.7" cy="198.7" r="7.5" fill="hsl(0, 0%, 100%)" stroke="hsl(206, 98%, 57%)" stroke-width="0.75"/>
    <circle cx="390.3" cy="212.2" r="5.3" fill="hsl(0, 0%, 100%)" stroke="hsl(206, 98%, 57%)" stroke-width="0.75"/>
    <circle cx="327.7" cy="241.2" r="13" fill="hsl(0, 0%, 100%)" stroke="hsl(206, 98%, 57%)" stroke-width="0.75"/>
    <circle cx="178.2" cy="304.3" r="10.8" fill="hsl(0, 0%, 100%)" stroke="hsl(206, 98%, 57%)" stroke-width="0.75"/>
    <circle cx="186.8" cy="326.7" r="12.7" fill="hsl(0, 0%, 100%)" stroke="hsl(206, 98%, 57%)" stroke-width="0.75"/>
    <circle cx="347.7" cy="239.9" r="6.8" fill="hsl(0, 0%, 100%)" stroke="hsl(206, 98%, 57%)" stroke-width="0.75"/>
    <circle cx="408.3" cy="311.3" r="8.1" fill="hsl(0, 0%, 100%)" stroke="hsl(206, 98%, 57%)" stroke-width="0.75"/>
    <circle cx="425.3" cy="309.6" r="8.1" fill="hsl(0, 0%, 100%)" stroke="hsl(206, 98%, 57%)" stroke-width="0.75"/>
    <circle cx="282.7" cy="317.7" r="6.8" fill="hsl(0, 0%, 100%)" stroke="hsl(206, 98%, 57%)" stroke-width="0.75"/>
    <circle cx="300.2" cy="314.2" r="6.2" fill="hsl(0, 0%, 100%)" stroke="hsl(206, 98%, 57%)" stroke-width="0.75"/>
    <circle cx="298.2" cy="292.2" r="6.8" fill="hsl(0, 0%, 100%)" stroke="hsl(206, 98%, 57%)" stroke-width="0.75"/>
    <circle cx="196.3" cy="302.9" r="6.8" fill="hsl(0, 0%, 100%)" stroke="hsl(206, 98%, 57%)" stroke-width="0.75"/>
    <circle cx="326.9" cy="258.9" r="4.5" fill="hsl(0, 0%, 100%)" stroke="hsl(206, 98%, 57%)" stroke-width="0.75"/>
    <circle cx="357.7" cy="245.4" r="4.5" fill="hsl(0, 0%, 100%)" stroke="hsl(206, 98%, 57%)" stroke-width="0.75"/>
    <circle cx="407.3" cy="296.1" r="6.2" fill="hsl(0, 0%, 100%)" stroke="hsl(206, 98%, 57%)" stroke-width="0.75"/>
    <circle cx="461.7" cy="254.1" r="4.8" fill="hsl(0, 0%, 100%)" stroke="hsl(206, 98%, 57%)" stroke-width="0.75"/>
    <circle cx="487.2" cy="249.3" r="4.8" fill="hsl(0, 0%, 100%)" stroke="hsl(206, 98%, 57%)" stroke-width="0.75"/>
    <circle cx="469" cy="266.1" r="4.8" fill="hsl(0, 0%, 100%)" stroke="hsl(206, 98%, 57%)" stroke-width="0.75"/>
    <circle cx="515.4" cy="322.4" r="4.8" fill="hsl(0, 0%, 100%)" stroke="hsl(206, 98%, 57%)" stroke-width="0.75"/>
    <circle cx="541.4" cy="271.1" r="4.8" fill="hsl(0, 0%, 100%)" stroke="hsl(206, 98%, 57%)" stroke-width="0.75"/>
    <circle cx="330.9" cy="296.9" r="4.5" fill="hsl(0, 0%, 100%)" stroke="hsl(206, 98%, 57%)" stroke-width="0.75"/>
    <circle cx="356.9" cy="314.2" r="4.5" fill="hsl(0, 0%, 100%)" stroke="hsl(206, 98%, 57%)" stroke-width="0.75"/>
    <circle cx="325.7" cy="304.7" r="4.5" fill="hsl(0, 0%, 100%)" stroke="hsl(206, 98%, 57%)" stroke-width="0.75"/>
    <circle cx="352.9" cy="295.7" r="4.5" fill="hsl(0, 0%, 100%)" stroke="hsl(206, 98%, 57%)" stroke-width="0.75"/>
    <circle cx="336.3" cy="322.3" r="5.9" fill="hsl(0, 0%, 100%)" stroke="hsl(206, 98%, 57%)" stroke-width="0.75"/>
    <circle cx="341.4" cy="229.7" r="4.5" fill="hsl(0, 0%, 100%)" stroke="hsl(206, 98%, 57%)" stroke-width="0.75"/>
    <circle cx="349.4" cy="229.7" r="3.2" fill="hsl(0, 0%, 100%)" stroke="hsl(206, 98%, 57%)" stroke-width="0.75"/>
    <circle cx="164.1" cy="309.3" r="3.8" fill="hsl(0, 0%, 100%)" stroke="hsl(206, 98%, 57%)" stroke-width="0.75"/>
    <circle cx="171.4" cy="229.3" r="3.8" fill="hsl(0, 0%, 100%)" stroke="hsl(206, 98%, 57%)" stroke-width="0.75"/>
    <circle cx="209.8" cy="227.3" r="3.8" fill="hsl(0, 0%, 100%)" stroke="hsl(206, 98%, 57%)" stroke-width="0.75"/>
    <circle cx="121.4" cy="250" r="3.8" fill="hsl(0, 0%, 100%)" stroke="hsl(206, 98%, 57%)" stroke-width="0.75"/>
    <circle cx="96.1" cy="262.3" r="3.8" fill="hsl(0, 0%, 100%)" stroke="hsl(206, 98%, 57%)" stroke-width="0.75"/>
    <ellipse cx="579.7" cy="279.9" rx="11.3" ry="11.3" transform="matrix(0.1342 -0.991 0.991 0.1342 224.5813 816.774)" fill="hsl(0, 0%, 100%)" stroke="hsl(206, 98%, 57%)" stroke-width="0.75"/>
    <ellipse cx="588.8" cy="311.7" rx="7.4" ry="7.4" transform="matrix(0.1341 -0.991 0.991 0.1341 200.9651 853.4176)" fill="hsl(0, 0%, 100%)" stroke="hsl(206, 98%, 57%)" stroke-width="0.75"/>
    <ellipse cx="581.3" cy="298.7" rx="7.4" ry="7.4" transform="matrix(0.1341 -0.991 0.991 0.1341 207.3081 834.6556)" fill="hsl(0, 0%, 100%)" stroke="hsl(206, 98%, 57%)" stroke-width="0.75"/>
    <ellipse cx="595.6" cy="272.4" rx="6" ry="6" transform="matrix(0.1341 -0.991 0.991 0.1341 245.8303 826.0695)" fill="hsl(0, 0%, 100%)" stroke="hsl(206, 98%, 57%)" stroke-width="0.75"/>
    <ellipse cx="650.3" cy="303.4" rx="6" ry="6" transform="matrix(0.1341 -0.991 0.991 0.1341 262.4406 907.0818)" fill="hsl(0, 0%, 100%)" stroke="hsl(206, 98%, 57%)" stroke-width="0.75"/>
    <ellipse cx="605.2" cy="293" rx="17" ry="17" transform="matrix(0.1341 -0.991 0.991 0.1341 233.6314 853.4752)" fill="hsl(0, 0%, 100%)" stroke="hsl(206, 98%, 57%)" stroke-width="0.75"/>
    <ellipse cx="579" cy="308.8" rx="2.4" ry="2.4" transform="matrix(0.1343 -0.9909 0.9909 0.1343 195.2586 841.0579)" fill="hsl(0, 0%, 100%)" stroke="hsl(206, 98%, 57%)" stroke-width="0.75"/>
    <ellipse cx="573.6" cy="292.3" rx="2.4" ry="2.4" transform="matrix(0.1343 -0.9909 0.9909 0.1343 206.8778 821.4474)" fill="hsl(0, 0%, 100%)" stroke="hsl(206, 98%, 57%)" stroke-width="0.75"/>
    <ellipse cx="605.2" cy="273" rx="2.4" ry="2.4" transform="matrix(0.1343 -0.9909 0.9909 0.1343 253.4523 836.0894)" fill="hsl(0, 0%, 100%)" stroke="hsl(206, 98%, 57%)" stroke-width="0.75"/>
    <ellipse cx="598.6" cy="312" rx="2.4" ry="2.4" transform="matrix(0.1343 -0.9909 0.9909 0.1343 209.0235 863.2402)" fill="hsl(0, 0%, 100%)" stroke="hsl(206, 98%, 57%)" stroke-width="0.75"/>
    <circle cx="190.8" cy="311.2" r="3" fill="hsl(0, 0%, 100%)" stroke="hsl(206, 98%, 57%)" stroke-width="0.75"/>
    <circle cx="205.7" cy="305.3" r="2.2" fill="hsl(0, 0%, 100%)" stroke="hsl(206, 98%, 57%)" stroke-width="0.75"/>
    <circle cx="189.3" cy="296.2" r="2.2" fill="hsl(0, 0%, 100%)" stroke="hsl(206, 98%, 57%)" stroke-width="0.75"/>
    <circle cx="211.5" cy="221" r="2.2" fill="hsl(0, 0%, 100%)" stroke="hsl(206, 98%, 57%)" stroke-width="0.75"/>
    <circle cx="357.6" cy="237.2" r="3.2" fill="hsl(0, 0%, 100%)" stroke="hsl(206, 98%, 57%)" stroke-width="0.75"/>
    <ellipse cx="337.2" cy="291.2" rx="3.3" ry="3.2" fill="hsl(0, 0%, 100%)" stroke="hsl(206, 98%, 57%)" stroke-width="0.75"/>
    <ellipse cx="345.2" cy="291.5" rx="3.8" ry="4" transform="matrix(2.486900e-02 -0.9997 0.9997 2.486900e-02 45.1716 629.3943)" fill="hsl(0, 0%, 100%)" stroke="hsl(206, 98%, 57%)" stroke-width="0.75"/>
    <ellipse cx="352.2" cy="304.3" rx="3.8" ry="3.8" transform="matrix(2.495031e-02 -0.9997 0.9997 2.495031e-02 39.196 648.7827)" fill="hsl(0, 0%, 100%)" stroke="hsl(206, 98%, 57%)" stroke-width="0.75"/>
    <ellipse cx="345.8" cy="299.5" rx="3.5" ry="3.5" transform="matrix(2.492874e-02 -0.9997 0.9997 2.492874e-02 37.792 637.7217)" fill="hsl(0, 0%, 100%)" stroke="hsl(206, 98%, 57%)" stroke-width="0.75"/>
    <ellipse cx="334.1" cy="304.7" rx="3.5" ry="3.5" transform="matrix(2.492877e-02 -0.9997 0.9997 2.492877e-02 21.2099 631.096)" fill="hsl(0, 0%, 100%)" stroke="hsl(206, 98%, 57%)" stroke-width="0.75"/>
    <circle cx="294.3" cy="301.9" r="3.2" fill="hsl(0, 0%, 100%)" stroke="hsl(206, 98%, 57%)" stroke-width="0.75"/>
    <circle cx="305.3" cy="305.7" r="3.2" fill="hsl(0, 0%, 100%)" stroke="hsl(206, 98%, 57%)" stroke-width="0.75"/>
    <circle cx="305.1" cy="299.7" r="2.7" fill="hsl(0, 0%, 100%)" stroke="hsl(206, 98%, 57%)" stroke-width="0.75"/>
    <circle cx="308.8" cy="310.9" r="2.7" fill="hsl(0, 0%, 100%)" stroke="hsl(206, 98%, 57%)" stroke-width="0.75"/>
    <circle cx="290.8" cy="309.2" r="4.4" fill="hsl(0, 0%, 100%)" stroke="hsl(206, 98%, 57%)" stroke-width="0.75"/>
    <circle cx="399.6" cy="211.2" r="3.2" fill="hsl(0, 0%, 100%)" stroke="hsl(206, 98%, 57%)" stroke-width="0.75"/>
    <circle cx="460.9" cy="262.5" r="3.2" fill="hsl(0, 0%, 100%)" stroke="hsl(206, 98%, 57%)" stroke-width="0.75"/>
    <circle cx="491.7" cy="257.5" r="3.2" fill="hsl(0, 0%, 100%)" stroke="hsl(206, 98%, 57%)" stroke-width="0.75"/>
    <circle cx="462" cy="187.8" r="3.2" fill="hsl(0, 0%, 100%)" stroke="hsl(206, 98%, 57%)" stroke-width="0.75"/>
    <circle cx="501" cy="204.5" r="3.2" fill="hsl(0, 0%, 100%)" stroke="hsl(206, 98%, 57%)" stroke-width="0.75"/>
    <circle cx="490" cy="226.2" r="3.2" fill="hsl(0, 0%, 100%)" stroke="hsl(206, 98%, 57%)" stroke-width="0.75"/>
    <circle cx="416.2" cy="289.5" r="4.2" fill="hsl(0, 0%, 100%)" stroke="hsl(206, 98%, 57%)" stroke-width="0.75"/>
    <circle cx="460.9" cy="269.8" r="3.2" fill="hsl(0, 0%, 100%)" stroke="hsl(206, 98%, 57%)" stroke-width="0.75"/>
    <circle cx="523.4" cy="321.8" r="3.2" fill="hsl(0, 0%, 100%)" stroke="hsl(206, 98%, 57%)" stroke-width="0.75"/>
    <circle cx="536.5" cy="278.3" r="3.2" fill="hsl(0, 0%, 100%)" stroke="hsl(206, 98%, 57%)" stroke-width="0.75"/>
    <circle cx="550.5" cy="268.7" r="3.2" fill="hsl(0, 0%, 100%)" stroke="hsl(206, 98%, 57%)" stroke-width="0.75"/>
    <circle cx="523.2" cy="240.7" r="3.2" fill="hsl(0, 0%, 100%)" stroke="hsl(206, 98%, 57%)" stroke-width="0.75"/>
    <circle cx="292.6" cy="188.2" r="3.9" fill="hsl(0, 0%, 100%)" stroke="hsl(206, 98%, 57%)" stroke-width="0.75"/>
    <circle cx="210.6" cy="58.2" r="2.3" fill="hsl(0, 0%, 100%)" stroke="hsl(206, 98%, 57%)" stroke-width="0.75"/>
    <circle cx="223.9" cy="63.7" r="2.3" fill="hsl(0, 0%, 100%)" stroke="hsl(206, 98%, 57%)" stroke-width="0.75"/>
    <circle cx="211.3" cy="65.5" r="3.1" fill="hsl(0, 0%, 100%)" stroke="hsl(206, 98%, 57%)" stroke-width="0.75"/>
    <circle cx="223.2" cy="70.4" r="3.8" fill="hsl(0, 0%, 100%)" stroke="hsl(206, 98%, 57%)" stroke-width="0.75"/>
    <circle cx="310.6" cy="128.4" r="4.7" fill="hsl(0, 0%, 100%)" stroke="hsl(206, 98%, 57%)" stroke-width="0.75"/>
    <circle cx="467.9" cy="58.8" r="4.7" fill="hsl(0, 0%, 100%)" stroke="hsl(206, 98%, 57%)" stroke-width="0.75"/>
    <circle cx="347.6" cy="173.7" r="5.7" fill="hsl(0, 0%, 100%)" stroke="hsl(206, 98%, 57%)" stroke-width="0.75"/>
    <circle cx="335.8" cy="169.4" r="5.9" fill="hsl(0, 0%, 100%)" stroke="hsl(206, 98%, 57%)" stroke-width="0.75"/>
    <circle cx="316.3" cy="154.2" r="6.7" fill="hsl(0, 0%, 100%)" stroke="hsl(206, 98%, 57%)" stroke-width="0.75"/>
    <circle cx="480.3" cy="58.8" r="7.7" fill="hsl(0, 0%, 100%)" stroke="hsl(206, 98%, 57%)" stroke-width="0.75"/>
    <circle cx="201.3" cy="61.2" r="6.7" fill="hsl(0, 0%, 100%)" stroke="hsl(206, 98%, 57%)" stroke-width="0.75"/>
    <circle cx="219.7" cy="55.2" r="6.7" fill="hsl(0, 0%, 100%)" stroke="hsl(206, 98%, 57%)" stroke-width="0.75"/>
    <circle cx="245" cy="62.8" r="6.7" fill="hsl(0, 0%, 100%)" stroke="hsl(206, 98%, 57%)" stroke-width="0.75"/>
    <circle cx="232.3" cy="60.2" r="6.3" fill="hsl(0, 0%, 100%)" stroke="hsl(206, 98%, 57%)" stroke-width="0.75"/>
    <circle cx="235.8" cy="77" r="9.8" fill="hsl(0, 0%, 100%)" stroke="hsl(206, 98%, 57%)" stroke-width="0.75"/>
    <circle cx="291.1" cy="148.2" r="4.7" fill="hsl(0, 0%, 100%)" stroke="hsl(206, 98%, 57%)" stroke-width="0.75"/>
    <circle cx="354" cy="233" r="2" fill="hsl(0, 0%, 100%)" stroke="hsl(206, 98%, 57%)" stroke-width="0.75"/>
    <circle cx="421.7" cy="296.7" r="2" fill="hsl(0, 0%, 100%)" stroke="hsl(206, 98%, 57%)" stroke-width="0.75"/>
    <circle cx="417" cy="299.7" r="2.8" fill="hsl(0, 0%, 100%)" stroke="hsl(206, 98%, 57%)" stroke-width="0.75"/>
    <circle cx="261" cy="305" r="2" fill="hsl(0, 0%, 100%)" stroke="hsl(206, 98%, 57%)" stroke-width="0.75"/>
    <circle cx="297" cy="306.3" r="2" fill="hsl(0, 0%, 100%)" stroke="hsl(206, 98%, 57%)" stroke-width="0.75"/>
    <circle cx="323.6" cy="312.1" r="2.4" fill="hsl(0, 0%, 100%)" stroke="hsl(206, 98%, 57%)" stroke-width="0.75"/>
    <circle cx="357.9" cy="301.1" r="2.4" fill="hsl(0, 0%, 100%)" stroke="hsl(206, 98%, 57%)" stroke-width="0.75"/>
    <circle cx="358.9" cy="306.8" r="2.7" fill="hsl(0, 0%, 100%)" stroke="hsl(206, 98%, 57%)" stroke-width="0.75"/>
    <circle cx="352.9" cy="320.9" r="2.7" fill="hsl(0, 0%, 100%)" stroke="hsl(206, 98%, 57%)" stroke-width="0.75"/>
    <circle cx="349.5" cy="316.1" r="2.7" fill="hsl(0, 0%, 100%)" stroke="hsl(206, 98%, 57%)" stroke-width="0.75"/>
    <circle cx="344.7" cy="319.3" r="2.4" fill="hsl(0, 0%, 100%)" stroke="hsl(206, 98%, 57%)" stroke-width="0.75"/>
    <circle cx="340.8" cy="304" r="2.4" fill="hsl(0, 0%, 100%)" stroke="hsl(206, 98%, 57%)" stroke-width="0.75"/>
    <circle cx="345.7" cy="305.8" r="2.1" fill="hsl(0, 0%, 100%)" stroke="hsl(206, 98%, 57%)" stroke-width="0.75"/>
    <circle cx="333.6" cy="313.8" r="2.3" fill="hsl(0, 0%, 100%)" stroke="hsl(206, 98%, 57%)" stroke-width="0.75"/>
    <circle cx="327.8" cy="317" r="3.6" fill="hsl(0, 0%, 100%)" stroke="hsl(206, 98%, 57%)" stroke-width="0.75"/>
    <circle cx="299.8" cy="301" r="2" fill="hsl(0, 0%, 100%)" stroke="hsl(206, 98%, 57%)" stroke-width="0.75"/>
    <circle cx="291.8" cy="316" r="2" fill="hsl(0, 0%, 100%)" stroke="hsl(206, 98%, 57%)" stroke-width="0.75"/>
    <circle cx="300.5" cy="304.8" r="1.2" fill="hsl(0, 0%, 100%)" stroke="hsl(206, 98%, 57%)" stroke-width="0.75"/>
    <circle cx="354.9" cy="308.5" r="0.8" fill="hsl(0, 0%, 100%)" stroke="hsl(206, 98%, 57%)" stroke-width="0.75"/>
    <circle cx="340.6" cy="294.2" r="0.6" fill="hsl(0, 0%, 100%)" stroke="hsl(206, 98%, 57%)" stroke-width="0.75"/>
    <circle cx="351.2" cy="312.4" r="0.8" fill="hsl(0, 0%, 100%)" stroke="hsl(206, 98%, 57%)" stroke-width="0.75"/>
    <circle cx="348.9" cy="311.9" r="0.8" fill="hsl(0, 0%, 100%)" stroke="hsl(206, 98%, 57%)" stroke-width="0.75"/>
    <circle cx="336.5" cy="309.1" r="0.8" fill="hsl(0, 0%, 100%)" stroke="hsl(206, 98%, 57%)" stroke-width="0.75"/>
    <circle cx="339.2" cy="312.4" r="0.8" fill="hsl(0, 0%, 100%)" stroke="hsl(206, 98%, 57%)" stroke-width="0.75"/>
    <circle cx="339" cy="310.2" r="0.9" fill="hsl(0, 0%, 100%)" stroke="hsl(206, 98%, 57%)" stroke-width="0.75"/>
    <circle cx="336.9" cy="311.6" r="1" fill="hsl(0, 0%, 100%)" stroke="hsl(206, 98%, 57%)" stroke-width="0.75"/>
    <circle cx="346.7" cy="312.9" r="0.9" fill="hsl(0, 0%, 100%)" stroke="hsl(206, 98%, 57%)" stroke-width="0.75"/>
    <circle cx="342" cy="308.7" r="1.7" fill="hsl(0, 0%, 100%)" stroke="hsl(206, 98%, 57%)" stroke-width="0.75"/>
    <circle cx="345.5" cy="309.9" r="1.2" fill="hsl(0, 0%, 100%)" stroke="hsl(206, 98%, 57%)" stroke-width="0.75"/>
    <circle cx="330.1" cy="312.7" r="0.7" fill="hsl(0, 0%, 100%)" stroke="hsl(206, 98%, 57%)" stroke-width="0.75"/>
    <circle cx="329.6" cy="308.7" r="0.7" fill="hsl(0, 0%, 100%)" stroke="hsl(206, 98%, 57%)" stroke-width="0.75"/>
    <circle cx="331.3" cy="308.1" r="0.7" fill="hsl(0, 0%, 100%)" stroke="hsl(206, 98%, 57%)" stroke-width="0.75"/>
    <circle cx="344.4" cy="312.4" r="0.9" fill="hsl(0, 0%, 100%)" stroke="hsl(206, 98%, 57%)" stroke-width="0.75"/>
    <circle cx="341.6" cy="312.3" r="1.2" fill="hsl(0, 0%, 100%)" stroke="hsl(206, 98%, 57%)" stroke-width="0.75"/>
    <circle cx="331.2" cy="310.4" r="1.3" fill="hsl(0, 0%, 100%)" stroke="hsl(206, 98%, 57%)" stroke-width="0.75"/>
    <circle cx="334.1" cy="309.8" r="0.9" fill="hsl(0, 0%, 100%)" stroke="hsl(206, 98%, 57%)" stroke-width="0.75"/>
    <circle cx="338.6" cy="307.6" r="1.1" fill="hsl(0, 0%, 100%)" stroke="hsl(206, 98%, 57%)" stroke-width="0.75"/>
    <circle cx="336.2" cy="300.1" r="0.9" fill="hsl(0, 0%, 100%)" stroke="hsl(206, 98%, 57%)" stroke-width="0.75"/>
    <circle cx="340.8" cy="298.8" r="0.8" fill="hsl(0, 0%, 100%)" stroke="hsl(206, 98%, 57%)" stroke-width="0.75"/>
    <circle cx="352" cy="309.9" r="1.3" fill="hsl(0, 0%, 100%)" stroke="hsl(206, 98%, 57%)" stroke-width="0.75"/>
    <circle cx="348.7" cy="309" r="1.4" fill="hsl(0, 0%, 100%)" stroke="hsl(206, 98%, 57%)" stroke-width="0.75"/>
    <circle cx="337.7" cy="314.6" r="1.3" fill="hsl(0, 0%, 100%)" stroke="hsl(206, 98%, 57%)" stroke-width="0.75"/>
    <circle cx="345" cy="315.1" r="1.2" fill="hsl(0, 0%, 100%)" stroke="hsl(206, 98%, 57%)" stroke-width="0.75"/>
    <circle cx="338.8" cy="300.4" r="1.1" fill="hsl(0, 0%, 100%)" stroke="hsl(206, 98%, 57%)" stroke-width="0.75"/>
    <circle cx="341.4" cy="315.7" r="1.8" fill="hsl(0, 0%, 100%)" stroke="hsl(206, 98%, 57%)" stroke-width="0.75"/>
    <circle cx="341.7" cy="296.1" r="1.1" fill="hsl(0, 0%, 100%)" stroke="hsl(206, 98%, 57%)" stroke-width="0.75"/>
    <circle cx="338" cy="296.8" r="2" fill="hsl(0, 0%, 100%)" stroke="hsl(206, 98%, 57%)" stroke-width="0.75"/>
    <circle cx="308.2" cy="315.3" r="1.2" fill="hsl(0, 0%, 100%)" stroke="hsl(206, 98%, 57%)" stroke-width="0.75"/>
    <circle cx="310" cy="306.5" r="1.2" fill="hsl(0, 0%, 100%)" stroke="hsl(206, 98%, 57%)" stroke-width="0.75"/>
    <circle cx="327.9" cy="311" r="1.6" fill="hsl(0, 0%, 100%)" stroke="hsl(206, 98%, 57%)" stroke-width="0.75"/>
    <circle cx="360.3" cy="251.8" r="2" fill="hsl(0, 0%, 100%)" stroke="hsl(206, 98%, 57%)" stroke-width="0.75"/>
    <circle cx="346.5" cy="224.7" r="2" fill="hsl(0, 0%, 100%)" stroke="hsl(206, 98%, 57%)" stroke-width="0.75"/>
    <circle cx="339.4" cy="177.3" r="2.4" fill="hsl(0, 0%, 100%)" stroke="hsl(206, 98%, 57%)" stroke-width="0.75"/>
    <circle cx="334.7" cy="227.3" r="2" fill="hsl(0, 0%, 100%)" stroke="hsl(206, 98%, 57%)" stroke-width="0.75"/>
    <g>
</g>
    <g>
</g>
    <g>
</g>
    <g>
</g>
    <g>
</g>
    <g>
</g>
    <g>
</g>
    <g>
</g>
    <g>
</g>
    <g>
</g>
  </g>
</svg>
