<?xml version='1.0' encoding='UTF-8'?>
<svg xmlns="http://www.w3.org/2000/svg" height="340" style="max-width: 100%; height: auto; font: 10px sans-serif;" viewBox="-70,-30,880,340" width="900">
  <g id="Layer_1">
    <g>
      <g>
        <g>
          <path d="M195.4,161.5l-84.3,116C47.1,230.9,32.9,141.3,79.4,77.2c27.9-38.4,68.5-59.1,116-59.1V161.5z" fill="hsl(36, 100%, 56%)" stroke="hsl(0, 0%, 98%)" stroke-width="3"/>
        </g>
      </g>
      <g>
        <g>
          <path d="M195.4,161.5l136.4,44.3c-24.5,75.3-105.4,116.5-180.7,92.1c-15.1-4.9-27.2-11.1-40-20.4L195.4,161.5z" fill="hsl(32, 100%, 51%)" stroke="hsl(0, 0%, 91%)" stroke-width="3"/>
        </g>
      </g>
      <g>
        <g>
          <path d="M195.4,161.5l84.3-116c51.3,37.2,71.7,100.1,52.1,160.3L195.4,161.5z" fill="hsl(16, 85%, 58%)" stroke="hsl(0, 0%, 94%)" stroke-width="3"/>
        </g>
      </g>
      <g>
        <g>
          <path d="M195.4,161.5V18.1c31.7,0,58.7,8.8,84.3,27.4L195.4,161.5z" fill="hsl(1, 100%, 62%)" stroke="hsl(0, 0%, 95%)" stroke-width="3"/>
        </g>
      </g>
    </g>
    <g opacity="0.2">
      <g>
        <path d="M532.3,161.1L454.2,40.9c24.1-15.7,49.4-23.1,78.1-23.1V161.1z" fill="hsl(179, 100%, 18%)" stroke="hsl(0, 0%, 90%)" stroke-width="3"/>
      </g>
    </g>
    <g opacity="0.3">
      <g>
        <path d="M532.3,161.1l-141.6,22.4c-9-56.9,15.2-111.3,63.5-142.7L532.3,161.1z" fill="hsl(197, 100%, 17%)" stroke="hsl(0, 0%, 100%)" stroke-width="3"/>
      </g>
    </g>
    <g opacity="0.45">
      <g>
        <path d="M532.3,161.1l-76,121.6c-36.6-22.9-58.9-56.5-65.6-99.2L532.3,161.1z" fill="hsl(223, 90%, 19%)" stroke="hsl(0, 0%, 100%)" stroke-width="3"/>
      </g>
    </g>
    <g opacity="0.65">
      <g>
        <path d="M532.3,161.1l78.1,120.3c-48.3,31.4-105.3,31.9-154.1,1.3L532.3,161.1z" fill="hsl(202, 94%, 19%)" stroke="hsl(0, 0%, 97%)" stroke-width="3"/>
      </g>
    </g>
    <g opacity="0.75">
      <g>
        <path d="M532.3,161.1l130-60.6c30.4,65.2,8.5,141.7-51.9,180.9L532.3,161.1z" fill="hsl(243, 100%, 17%)" stroke="hsl(0, 0%, 90%)" stroke-width="3"/>
      </g>
    </g>
    <g opacity="0.85">
      <g>
        <path d="M532.3,161.1l76-121.6c24.4,15.2,41.8,35,54,61L532.3,161.1z" fill="hsl(243, 100%, 17%)" stroke="hsl(0, 0%, 90%)" stroke-width="3"/>
      </g>
    </g>
    <g>
      <g>
        <path d="M532.3,161.1V17.7c28.8,0,51.6,6.6,76,21.8L532.3,161.1z" fill="hsl(243, 100%, 17%)" stroke="hsl(0, 0%, 90%)" stroke-width="3"/>
      </g>
    </g>
  </g>
  <g id="Layer_2">
    <circle cx="195.4" cy="160.2" r="91.6" fill="hsl(0, 0%, 93%)"/>
    <circle cx="532.2" cy="160.2" r="91.6" fill="hsl(0, 0%, 93%)"/>
  </g>
  <g id="Layer_3">
    <g>
      <path d="M209.3,86.7L209.3,86.7l-1.4,0.7l-0.2-0.8l1.7-0.9h0.9v7.8h-1V86.7z" fill="hsl(0, 0%, 45%)"/>
      <path d="M213.8,93.5v-0.6l0.8-0.8c2-1.9,2.9-2.9,2.9-4.1c0-0.8-0.4-1.5-1.5-1.5c-0.7,0-1.3,0.4-1.7,0.7l-0.3-0.7    c0.5-0.5,1.3-0.8,2.2-0.8c1.7,0,2.4,1.2,2.4,2.3c0,1.4-1,2.6-2.7,4.2l-0.6,0.6v0h3.5v0.9H213.8z" fill="hsl(0, 0%, 45%)"/>
      <path d="M224.1,87.9c0,1.6-0.9,2.5-1.9,2.5c-1,0-1.8-0.8-1.8-2.4c0-1.6,0.9-2.4,1.9-2.4    C223.3,85.6,224.1,86.4,224.1,87.9z M221.2,88c0,1,0.3,1.8,1,1.8c0.7,0,1-0.7,1-1.8c0-0.9-0.3-1.7-1-1.7    C221.6,86.2,221.2,87,221.2,88z M222.1,93.6l4.6-8.1h0.7l-4.6,8.1H222.1z M229.1,91.1c0,1.6-0.9,2.5-1.9,2.5c-1,0-1.8-0.8-1.8-2.3    c0-1.6,0.9-2.4,1.9-2.4C228.4,88.8,229.1,89.6,229.1,91.1z M226.3,91.2c0,1,0.4,1.8,1,1.8c0.7,0,1-0.7,1-1.8c0-0.9-0.3-1.7-1-1.7    C226.6,89.4,226.3,90.2,226.3,91.2z" fill="hsl(0, 0%, 45%)"/>
    </g>
    <g>
      <path d="M546.7,91.8c0.2,0,0.5,0,0.9,0c0.6-0.1,1.2-0.3,1.6-0.8c0.5-0.5,0.9-1.2,1-2.1h0c-0.4,0.5-1.1,0.8-1.8,0.8    c-1.4,0-2.3-1.1-2.3-2.4c0-1.5,1.1-2.8,2.7-2.8c1.6,0,2.6,1.3,2.6,3.3c0,1.7-0.6,2.9-1.3,3.7c-0.6,0.6-1.4,0.9-2.3,1    c-0.4,0.1-0.7,0.1-1,0.1V91.8z M547,87.3c0,1,0.6,1.7,1.5,1.7c0.7,0,1.3-0.3,1.5-0.8c0.1-0.1,0.1-0.2,0.1-0.4    c0-1.3-0.5-2.4-1.6-2.4C547.7,85.4,547,86.2,547,87.3z" fill="hsl(0, 0%, 45%)"/>
      <path d="M556.3,86.9c0,1.6-0.9,2.5-1.9,2.5c-1,0-1.8-0.8-1.8-2.4c0-1.6,0.9-2.4,1.9-2.4    C555.6,84.6,556.3,85.4,556.3,86.9z M553.5,87c0,1,0.3,1.8,1,1.8c0.7,0,1-0.7,1-1.8c0-0.9-0.3-1.7-1-1.7    C553.8,85.2,553.5,86,553.5,87z M554.4,92.6l4.6-8.1h0.7l-4.6,8.1H554.4z M561.4,90.1c0,1.6-0.9,2.5-1.9,2.5c-1,0-1.8-0.8-1.8-2.3    c0-1.6,0.9-2.4,1.9-2.4C560.7,87.8,561.4,88.6,561.4,90.1z M558.5,90.2c0,1,0.4,1.8,1,1.8c0.7,0,1-0.7,1-1.8c0-0.9-0.3-1.7-1-1.7    C558.9,88.4,558.5,89.2,558.5,90.2z" fill="hsl(0, 0%, 45%)"/>
    </g>
    <g>
      <path d="M251,141.5v-0.6l0.8-0.8c2-1.9,2.9-2.9,2.9-4.1c0-0.8-0.4-1.5-1.5-1.5c-0.7,0-1.3,0.4-1.7,0.7l-0.3-0.7    c0.5-0.5,1.3-0.8,2.2-0.8c1.7,0,2.4,1.2,2.4,2.3c0,1.4-1,2.6-2.7,4.2l-0.6,0.6v0h3.5v0.9H251z" fill="hsl(0, 0%, 45%)"/>
      <path d="M263,137.5c0,2.7-1,4.1-2.7,4.1c-1.5,0-2.6-1.4-2.6-4c0-2.6,1.1-4.1,2.7-4.1C262,133.6,263,135,263,137.5z     M258.7,137.6c0,2,0.6,3.2,1.6,3.2c1.1,0,1.6-1.3,1.6-3.2c0-1.9-0.5-3.2-1.6-3.2C259.4,134.4,258.7,135.5,258.7,137.6z" fill="hsl(0, 0%, 45%)"/>
      <path d="M268.1,135.9c0,1.6-0.9,2.5-1.9,2.5c-1,0-1.8-0.8-1.8-2.4c0-1.6,0.9-2.4,1.9-2.4    C267.3,133.6,268.1,134.4,268.1,135.9z M265.2,136c0,1,0.3,1.8,1,1.8c0.7,0,1-0.7,1-1.8c0-0.9-0.3-1.7-1-1.7    C265.6,134.2,265.2,135,265.2,136z M266.1,141.6l4.6-8.1h0.7l-4.6,8.1H266.1z M273.1,139.1c0,1.6-0.9,2.5-1.9,2.5    c-1,0-1.8-0.8-1.8-2.3c0-1.6,0.9-2.4,1.9-2.4C272.4,136.8,273.1,137.6,273.1,139.1z M270.3,139.2c0,1,0.4,1.8,1,1.8    c0.7,0,1-0.7,1-1.8c0-0.9-0.3-1.7-1-1.7C270.6,137.4,270.3,138.2,270.3,139.2z" fill="hsl(0, 0%, 45%)"/>
    </g>
    <g>
      <path d="M209.7,232.5v-0.6l0.8-0.8c2-1.9,2.9-2.9,2.9-4.1c0-0.8-0.4-1.5-1.5-1.5c-0.7,0-1.3,0.4-1.7,0.7l-0.3-0.7    c0.5-0.5,1.3-0.8,2.2-0.8c1.7,0,2.4,1.2,2.4,2.3c0,1.4-1,2.6-2.7,4.2l-0.6,0.6v0h3.5v0.9H209.7z" fill="hsl(0, 0%, 45%)"/>
      <path d="M216.4,230.5c0-1,0.6-1.7,1.5-2.1l0,0c-0.9-0.4-1.2-1.1-1.2-1.8c0-1.2,1-2.1,2.4-2.1c1.5,0,2.3,0.9,2.3,1.9    c0,0.7-0.3,1.4-1.3,1.8v0c1,0.4,1.6,1.1,1.6,2c0,1.4-1.2,2.3-2.7,2.3C217.3,232.6,216.4,231.7,216.4,230.5z M220.6,230.5    c0-0.9-0.7-1.4-1.7-1.7c-0.9,0.3-1.4,0.9-1.4,1.6c0,0.8,0.6,1.5,1.6,1.5C220,231.9,220.6,231.3,220.6,230.5z M217.7,226.6    c0,0.8,0.6,1.2,1.5,1.4c0.7-0.2,1.2-0.7,1.2-1.4c0-0.6-0.4-1.3-1.3-1.3C218.1,225.3,217.7,225.9,217.7,226.6z" fill="hsl(0, 0%, 45%)"/>
      <path d="M226.7,226.9c0,1.6-0.9,2.5-1.9,2.5c-1,0-1.8-0.8-1.8-2.4c0-1.6,0.9-2.4,1.9-2.4    C226,224.6,226.7,225.4,226.7,226.9z M223.9,227c0,1,0.3,1.8,1,1.8c0.7,0,1-0.7,1-1.8c0-0.9-0.3-1.7-1-1.7    C224.2,225.2,223.9,226,223.9,227z M224.8,232.6l4.6-8.1h0.7l-4.6,8.1H224.8z M231.8,230.1c0,1.6-0.9,2.5-1.9,2.5    c-1,0-1.8-0.8-1.8-2.3c0-1.6,0.9-2.4,1.9-2.4C231.1,227.8,231.8,228.6,231.8,230.1z M228.9,230.2c0,1,0.4,1.8,1,1.8    c0.7,0,1-0.7,1-1.8c0-0.9-0.3-1.7-1-1.7C229.3,228.4,228.9,229.2,228.9,230.2z" fill="hsl(0, 0%, 45%)"/>
    </g>
    <g>
      <path d="M120,141.8v-2.1h-3.6V139l3.5-5h1.1v4.8h1.1v0.8H121v2.1H120z M120,138.9v-2.6c0-0.4,0-0.8,0-1.2h0    c-0.2,0.5-0.4,0.8-0.6,1.2l-1.9,2.7v0H120z" fill="hsl(0, 0%, 45%)"/>
      <path d="M128.6,137.9c0,2.7-1,4.1-2.7,4.1c-1.5,0-2.6-1.4-2.6-4c0-2.6,1.1-4.1,2.7-4.1    C127.7,133.9,128.6,135.4,128.6,137.9z M124.4,138c0,2,0.6,3.2,1.6,3.2c1.1,0,1.6-1.3,1.6-3.2c0-1.9-0.5-3.2-1.6-3.2    C125.1,134.7,124.4,135.9,124.4,138z" fill="hsl(0, 0%, 45%)"/>
      <path d="M133.7,136.2c0,1.6-0.9,2.5-1.9,2.5c-1,0-1.8-0.8-1.8-2.4c0-1.6,0.9-2.4,1.9-2.4    C133,133.9,133.7,134.7,133.7,136.2z M130.9,136.3c0,1,0.3,1.8,1,1.8c0.7,0,1-0.7,1-1.8c0-0.9-0.3-1.7-1-1.7    C131.2,134.5,130.9,135.3,130.9,136.3z M131.8,142l4.6-8.1h0.7l-4.6,8.1H131.8z M138.8,139.5c0,1.6-0.9,2.5-1.9,2.5    c-1,0-1.8-0.8-1.8-2.3c0-1.6,0.9-2.4,1.9-2.4C138.1,137.1,138.8,138,138.8,139.5z M135.9,139.5c0,1,0.4,1.8,1,1.8    c0.7,0,1-0.7,1-1.8c0-0.9-0.3-1.7-1-1.7C136.3,137.8,135.9,138.5,135.9,139.5z" fill="hsl(0, 0%, 45%)"/>
    </g>
    <g>
      <path d="M227.8,51.2l-1,3h-1.3l3.2-9.4h1.5l3.2,9.4h-1.3l-1-3H227.8z M230.9,50.2l-0.9-2.7c-0.2-0.6-0.4-1.2-0.5-1.7    h0c-0.1,0.6-0.3,1.1-0.5,1.7l-0.9,2.7H230.9z" fill="hsl(0, 0%, 93%)"/>
    </g>
    <g>
      <path d="M302.2,120.9c0.5-0.1,1.4-0.2,2.2-0.2c1.2,0,2,0.2,2.6,0.7c0.5,0.4,0.8,0.9,0.8,1.7c0,0.9-0.6,1.7-1.6,2.1v0    c0.9,0.2,1.9,1,1.9,2.4c0,0.8-0.3,1.4-0.8,1.9c-0.7,0.6-1.7,0.9-3.3,0.9c-0.8,0-1.5-0.1-1.9-0.1V120.9z M303.4,124.7h1.1    c1.3,0,2-0.7,2-1.6c0-1.1-0.8-1.5-2.1-1.5c-0.6,0-0.9,0-1.1,0.1V124.7z M303.4,129.2c0.2,0,0.6,0.1,1,0.1c1.3,0,2.4-0.5,2.4-1.8    c0-1.3-1.1-1.8-2.4-1.8h-1V129.2z" fill="hsl(0, 0%, 93%)"/>
    </g>
    <g>
      <path d="M237.8,275.5c-0.4,0.2-1.3,0.4-2.5,0.4c-2.7,0-4.7-1.7-4.7-4.8c0-3,2-5,4.9-5c1.2,0,1.9,0.3,2.2,0.4l-0.3,1    c-0.5-0.2-1.1-0.4-1.9-0.4c-2.2,0-3.7,1.4-3.7,3.9c0,2.3,1.3,3.8,3.6,3.8c0.7,0,1.5-0.2,2-0.4L237.8,275.5z" fill="hsl(0, 0%, 93%)"/>
    </g>
    <g>
      <path d="M84.9,112.2c0.7-0.1,1.6-0.2,2.6-0.2c1.8,0,3,0.4,3.8,1.2c0.8,0.8,1.3,1.9,1.3,3.4c0,1.5-0.5,2.8-1.4,3.7    c-0.9,0.9-2.3,1.4-4.2,1.4c-0.9,0-1.6,0-2.2-0.1V112.2z M86.1,120.5c0.3,0.1,0.8,0.1,1.2,0.1c2.6,0,4-1.5,4-4    c0-2.2-1.2-3.6-3.8-3.6c-0.6,0-1.1,0.1-1.4,0.1V120.5z" fill="hsl(0, 0%, 93%)"/>
    </g>
    <g>
      <path d="M570.4,52.5c-0.5,0.9-1.2,1.3-1.8,1.3c-0.7,0-1.5-0.6-1.7-2.6h0c-0.8,1.7-2.2,2.6-3.1,2.6    c-1.7,0-3.4-1.9-3.4-4.3c0-1.9,1-3.4,2.2-4.4c0.8-0.7,1.7-1,2.2-1c0.8,0,1.7,0.7,2.2,2.2h0.1c0.1-0.5,0.1-0.9,0.3-1.2    c0.3-0.3,0.9-0.7,1.3-0.9l0.3,0.2c-0.2,0.5-0.6,2.9-0.7,5c0,2.2,0.5,3,1.1,3c0.3,0,0.6-0.1,0.8-0.3L570.4,52.5z M562,48.7    c0,2.2,1.2,3.6,2.2,3.6c1.3,0,2.4-1.7,2.4-3.4c0-0.2,0-0.4,0-0.6c0-1.7-1.1-3.3-2.6-3.3C562.8,45.1,562,46.8,562,48.7z" fill="hsl(0, 0%, 93%)"/>
    </g>
    <g>
      <path d="M616,81.8c0-2.9,0.4-4.5,1.4-5.7c0.9-1,1.9-1.5,2.9-1.5c1.8,0,3,1.3,3,3.2c0,1.7-1.3,2.6-2.2,3.3    c0.8,0.2,1.6,0.5,2.1,1c0.8,0.7,1.2,1.6,1.2,2.8c0,3.2-3.5,5-5,5c-0.6,0-1.2-0.4-1.8-0.9c0,2.1,0.2,5,0.2,5.9l-0.2,0.2    c-0.5,0-1.4-0.4-1.7-0.8V81.8z M619.3,81c0.6,0,1-0.1,1.4-0.4c0.5-0.4,1.1-1.2,1.1-2.4c0-1.6-0.9-2.8-2.2-2.8c-2,0-2,2.9-2,5.7    c0,2,0,4.6,0.1,6.6c0.9,0.6,1.7,0.8,2.3,0.8c1.8,0,2.8-0.8,2.8-3.1c0-2.1-1.5-3.4-3.3-3.4c-0.1,0-0.3,0-0.5,0L619.3,81z" fill="hsl(0, 0%, 93%)"/>
    </g>
    <g>
      <path d="M646.6,189.3c0.8-1.6,2.1-4.5,2.1-6.2c0-0.4-0.1-0.9-0.3-1.2c0-0.1,0-0.2,0.1-0.3c0.3-0.3,0.7-0.6,1-0.6    c0.4,0,0.6,0.6,0.6,1.3c0,1.4-0.8,3.1-2.5,6.2c-0.4,0.8-0.9,2-1.1,2.3c0,1.1,0.2,3.3,0.2,4.2c-0.3,0.4-1.3,0.8-1.8,0.9l-0.3-0.3    c0.1-0.9,0.6-3.8,0.7-4.8c-0.1-1.6-0.8-5.1-2.2-7.3c-0.6-1-1-1.2-2.3-1l-0.1-0.5c0.6-0.4,1.8-0.9,2.5-0.9c0.6,0,1.3,0.7,1.9,2.4    C646,185.6,646.3,187.6,646.6,189.3L646.6,189.3z" fill="hsl(0, 0%, 93%)"/>
    </g>
    <g>
      <path d="M539.7,271.6c-1.5-1.3-3-2-4.2-2c-0.8,0-1.1,0.3-1.1,0.6c0,0.4,0.8,1.4,2.4,2.9c2.3,2,3.3,3.4,3.3,5.8    c0,3.1-2.3,4.8-4.5,4.8c-2.8,0-4.4-2.4-4.4-4.7c0-2.5,1.6-4.1,4.1-4.9c-1.4-1.5-2.1-2.3-2.1-3.1c0-1.2,1.4-2.5,2.9-2.5    c2.1,0,3.3,1.6,3.7,2.6L539.7,271.6z M535.9,274.6c-1.8,0.5-2.6,2-2.6,4.2c0,2.4,1.2,4.2,2.7,4.2c1.3,0,2.4-1.1,2.4-3.7    C538.4,277.1,536.9,275.5,535.9,274.6z" fill="hsl(0, 0%, 93%)"/>
    </g>
    <g>
      <path d="M438.7,226.5c-0.8,1.4-2.1,2.3-3.8,2.3c-2,0-3.5-1-3.5-2.8c0-1.4,1.3-1.9,2.3-2.3v0c-1.2-0.2-1.9-0.9-1.9-2    c0-1.5,1.6-2.5,3.6-2.5c2,0,2.8,0.9,2.8,1.6c0,0.4-0.4,0.8-0.9,0.8c-0.2,0-0.4-0.1-0.5-0.3c-0.3-0.9-0.8-1.4-1.7-1.4    c-1,0-1.7,0.7-1.7,1.7c0,0.8,0.7,1.5,1.9,1.5c0.5,0,1,0,1.3-0.1l0.1,0.2l-0.5,1c-0.3,0-0.6-0.1-1-0.1c-1.4,0-2,0.6-2,1.4    c0,1.2,1.1,2,2.3,2c1.2,0,2-0.5,2.8-1.4L438.7,226.5z" fill="hsl(0, 0%, 93%)"/>
    </g>
    <g>
      <path d="M425.6,107.1c0,1.2,0.9,2.1,1.9,2.1c0.8-0.7,1.8-1.4,2.5-1.4c0.3,0,0.4,0.1,0.4,0.3c0,0.6-0.4,1.2-0.9,1.4    c-0.5,0.3-1.1,0.4-1.7,0.5c-1.4,1.5-2.8,4.1-2.8,7.2c0,2,0.6,3.1,2,3.5c0.4,0.1,0.7,0.2,1,0.3c1.1,0.3,2,0.8,2,2.1    c0,1.5-1.2,2.7-1.5,3l-0.5-0.4c0.2-0.5,0.5-1.2,0.5-1.8c0-0.7-0.4-1.2-1.4-1.4c-0.4-0.1-0.8-0.2-1.2-0.3c-1.7-0.5-2.7-1.8-2.7-4.3    c0-3.1,1.6-5.9,3.6-7.9c-1.4-0.1-2.5-0.8-2.6-1.6c0-0.4,0.3-0.9,0.9-1.3L425.6,107.1z" fill="hsl(0, 0%, 93%)"/>
    </g>
    <g>
      <path d="M505.6,57.9c-0.5,0-1.3-0.4-1.7-0.7c0-3.5,0.1-6.9,0.1-10.3c0-1.4-0.5-2.5-1.8-2.5c-0.9,0-1.8,0.7-2.2,1.1    v7.1c-0.6,0.1-1.2,0.1-1.8,0.2c0.1-1,0.1-2,0.1-3.1v-3.7c0-1.3-0.1-1.3-1.3-1.6v-0.5c0.3-0.1,1.8-0.7,2.6-0.8    c0.2,0.3,0.4,1,0.4,1.6c0.4-0.3,0.8-0.6,1.3-1c0.6-0.4,1.1-0.6,1.7-0.6c1.7,0,2.6,1.1,2.6,3.4v2.7c0,4,0.1,7.4,0.1,8.5L505.6,57.9    z" fill="hsl(0, 0%, 93%)"/>
    </g>
    <g>
      <g>
        <path d="M576.3,106.7L576.3,106.7l-1.4,0.7l-0.2-0.8l1.7-0.9h0.9v7.8h-1V106.7z" fill="hsl(0, 0%, 45%)"/>
        <path d="M586,109.5c0,2.7-1,4.1-2.7,4.1c-1.5,0-2.6-1.4-2.6-4c0-2.6,1.1-4.1,2.7-4.1C585,105.6,586,107,586,109.5z      M581.7,109.6c0,2,0.6,3.2,1.6,3.2c1.1,0,1.6-1.3,1.6-3.2c0-1.9-0.5-3.2-1.6-3.2C582.4,106.4,581.7,107.5,581.7,109.6z" fill="hsl(0, 0%, 45%)"/>
        <path d="M591.1,107.9c0,1.6-0.9,2.5-1.9,2.5c-1,0-1.8-0.8-1.8-2.4c0-1.6,0.9-2.4,1.9-2.4     C590.3,105.6,591.1,106.4,591.1,107.9z M588.2,108c0,1,0.3,1.8,1,1.8c0.7,0,1-0.7,1-1.8c0-0.9-0.3-1.7-1-1.7     C588.6,106.2,588.2,107,588.2,108z M589.1,113.6l4.6-8.1h0.7l-4.6,8.1H589.1z M596.1,111.1c0,1.6-0.9,2.5-1.9,2.5     c-1,0-1.8-0.8-1.8-2.3c0-1.6,0.9-2.4,1.9-2.4C595.4,108.8,596.1,109.6,596.1,111.1z M593.3,111.2c0,1,0.4,1.8,1,1.8     c0.7,0,1-0.7,1-1.8c0-0.9-0.3-1.7-1-1.7C593.6,109.4,593.3,110.2,593.3,111.2z" fill="hsl(0, 0%, 45%)"/>
      </g>
    </g>
    <g>
      <g>
        <path d="M591,182.5v-0.6l0.8-0.8c2-1.9,2.9-2.9,2.9-4.1c0-0.8-0.4-1.5-1.5-1.5c-0.7,0-1.3,0.4-1.7,0.7l-0.3-0.7     c0.5-0.5,1.3-0.8,2.2-0.8c1.7,0,2.4,1.2,2.4,2.3c0,1.4-1,2.6-2.7,4.2l-0.6,0.6v0h3.5v0.9H591z" fill="hsl(0, 0%, 45%)"/>
        <path d="M597.8,182.5v-0.6l0.8-0.8c2-1.9,2.9-2.9,2.9-4.1c0-0.8-0.4-1.5-1.5-1.5c-0.7,0-1.3,0.4-1.7,0.7l-0.3-0.7     c0.5-0.5,1.3-0.8,2.2-0.8c1.7,0,2.4,1.2,2.4,2.3c0,1.4-1,2.6-2.7,4.2l-0.6,0.6v0h3.5v0.9H597.8z" fill="hsl(0, 0%, 45%)"/>
        <path d="M608.1,176.9c0,1.6-0.9,2.5-1.9,2.5c-1,0-1.8-0.8-1.8-2.4c0-1.6,0.9-2.4,1.9-2.4     C607.3,174.6,608.1,175.4,608.1,176.9z M605.2,177c0,1,0.3,1.8,1,1.8c0.7,0,1-0.7,1-1.8c0-0.9-0.3-1.7-1-1.7     C605.6,175.2,605.2,176,605.2,177z M606.1,182.6l4.6-8.1h0.7l-4.6,8.1H606.1z M613.1,180.1c0,1.6-0.9,2.5-1.9,2.5     c-1,0-1.8-0.8-1.8-2.3c0-1.6,0.9-2.4,1.9-2.4C612.4,177.8,613.1,178.6,613.1,180.1z M610.3,180.2c0,1,0.4,1.8,1,1.8     c0.7,0,1-0.7,1-1.8c0-0.9-0.3-1.7-1-1.7C610.6,178.4,610.3,179.2,610.3,180.2z" fill="hsl(0, 0%, 45%)"/>
      </g>
    </g>
    <g>
      <g>
        <path d="M527.3,232.7L527.3,232.7l-1.4,0.7l-0.2-0.8l1.7-0.9h0.9v7.8h-1V232.7z" fill="hsl(0, 0%, 45%)"/>
        <path d="M536.9,231.7v0.7l-3.4,7.1h-1.1l3.4-6.9v0h-3.8v-0.9H536.9z" fill="hsl(0, 0%, 45%)"/>
        <path d="M542.1,233.9c0,1.6-0.9,2.5-1.9,2.5c-1,0-1.8-0.8-1.8-2.4c0-1.6,0.9-2.4,1.9-2.4     C541.3,231.6,542.1,232.4,542.1,233.9z M539.2,234c0,1,0.3,1.8,1,1.8c0.7,0,1-0.7,1-1.8c0-0.9-0.3-1.7-1-1.7     C539.6,232.2,539.2,233,539.2,234z M540.1,239.6l4.6-8.1h0.7l-4.6,8.1H540.1z M547.1,237.1c0,1.6-0.9,2.5-1.9,2.5     c-1,0-1.8-0.8-1.8-2.3c0-1.6,0.9-2.4,1.9-2.4C546.4,234.8,547.1,235.6,547.1,237.1z M544.3,237.2c0,1,0.4,1.8,1,1.8     c0.7,0,1-0.7,1-1.8c0-0.9-0.3-1.7-1-1.7C544.6,235.4,544.3,236.2,544.3,237.2z" fill="hsl(0, 0%, 45%)"/>
      </g>
    </g>
    <g>
      <g>
        <path d="M464.3,198.7L464.3,198.7l-1.4,0.7l-0.2-0.8l1.7-0.9h0.9v7.8h-1V198.7z" fill="hsl(0, 0%, 45%)"/>
        <path d="M472.1,205.5v-2.1h-3.6v-0.7l3.5-5h1.1v4.8h1.1v0.8h-1.1v2.1H472.1z M472.1,202.5v-2.6c0-0.4,0-0.8,0-1.2h0     c-0.2,0.5-0.4,0.8-0.6,1.2l-1.9,2.7v0H472.1z" fill="hsl(0, 0%, 45%)"/>
        <path d="M479.1,199.9c0,1.6-0.9,2.5-1.9,2.5c-1,0-1.8-0.8-1.8-2.4c0-1.6,0.9-2.4,1.9-2.4     C478.3,197.6,479.1,198.4,479.1,199.9z M476.2,200c0,1,0.3,1.8,1,1.8c0.7,0,1-0.7,1-1.8c0-0.9-0.3-1.7-1-1.7     C476.6,198.2,476.2,199,476.2,200z M477.1,205.6l4.6-8.1h0.7l-4.6,8.1H477.1z M484.1,203.1c0,1.6-0.9,2.5-1.9,2.5     c-1,0-1.8-0.8-1.8-2.3c0-1.6,0.9-2.4,1.9-2.4C483.4,200.8,484.1,201.6,484.1,203.1z M481.3,203.2c0,1,0.4,1.8,1,1.8     c0.7,0,1-0.7,1-1.8c0-0.9-0.3-1.7-1-1.7C481.6,201.4,481.3,202.2,481.3,203.2z" fill="hsl(0, 0%, 45%)"/>
      </g>
    </g>
    <g>
      <g>
        <path d="M457.3,126.7L457.3,126.7l-1.4,0.7l-0.2-0.8l1.7-0.9h0.9v7.8h-1V126.7z" fill="hsl(0, 0%, 45%)"/>
        <path d="M461.7,131.5c0-1,0.6-1.7,1.5-2.1l0,0c-0.9-0.4-1.2-1.1-1.2-1.8c0-1.2,1-2.1,2.4-2.1c1.5,0,2.3,0.9,2.3,1.9     c0,0.7-0.3,1.4-1.3,1.8v0c1,0.4,1.6,1.1,1.6,2c0,1.4-1.2,2.3-2.7,2.3C462.7,133.6,461.7,132.7,461.7,131.5z M465.9,131.5     c0-0.9-0.7-1.4-1.7-1.7c-0.9,0.3-1.4,0.9-1.4,1.6c0,0.8,0.6,1.5,1.6,1.5C465.3,132.9,465.9,132.3,465.9,131.5z M463,127.6     c0,0.8,0.6,1.2,1.5,1.4c0.7-0.2,1.2-0.7,1.2-1.4c0-0.6-0.4-1.3-1.3-1.3C463.5,126.3,463,126.9,463,127.6z" fill="hsl(0, 0%, 45%)"/>
        <path d="M472.1,127.9c0,1.6-0.9,2.5-1.9,2.5c-1,0-1.8-0.8-1.8-2.4c0-1.6,0.9-2.4,1.9-2.4     C471.3,125.6,472.1,126.4,472.1,127.9z M469.2,128c0,1,0.3,1.8,1,1.8c0.7,0,1-0.7,1-1.8c0-0.9-0.3-1.7-1-1.7     C469.6,126.2,469.2,127,469.2,128z M470.1,133.6l4.6-8.1h0.7l-4.6,8.1H470.1z M477.1,131.1c0,1.6-0.9,2.5-1.9,2.5     c-1,0-1.8-0.8-1.8-2.3c0-1.6,0.9-2.4,1.9-2.4C476.4,128.8,477.1,129.6,477.1,131.1z M474.3,131.2c0,1,0.4,1.8,1,1.8     c0.7,0,1-0.7,1-1.8c0-0.9-0.3-1.7-1-1.7C474.6,129.4,474.3,130.2,474.3,131.2z" fill="hsl(0, 0%, 45%)"/>
      </g>
    </g>
    <g>
      <g>
        <path d="M502.3,82.7L502.3,82.7l-1.4,0.7l-0.2-0.8l1.7-0.9h0.9v7.8h-1V82.7z" fill="hsl(0, 0%, 45%)"/>
        <path d="M512,85.5c0,2.7-1,4.1-2.7,4.1c-1.5,0-2.6-1.4-2.6-4c0-2.6,1.1-4.1,2.7-4.1C511,81.6,512,83,512,85.5z      M507.7,85.6c0,2,0.6,3.2,1.6,3.2c1.1,0,1.6-1.3,1.6-3.2c0-1.9-0.5-3.2-1.6-3.2C508.4,82.4,507.7,83.5,507.7,85.6z" fill="hsl(0, 0%, 45%)"/>
        <path d="M517.1,83.9c0,1.6-0.9,2.5-1.9,2.5c-1,0-1.8-0.8-1.8-2.4c0-1.6,0.9-2.4,1.9-2.4     C516.3,81.6,517.1,82.4,517.1,83.9z M514.2,84c0,1,0.3,1.8,1,1.8c0.7,0,1-0.7,1-1.8c0-0.9-0.3-1.7-1-1.7     C514.6,82.2,514.2,83,514.2,84z M515.1,89.6l4.6-8.1h0.7l-4.6,8.1H515.1z M522.1,87.1c0,1.6-0.9,2.5-1.9,2.5     c-1,0-1.8-0.8-1.8-2.3c0-1.6,0.9-2.4,1.9-2.4C521.4,84.8,522.1,85.6,522.1,87.1z M519.3,87.2c0,1,0.4,1.8,1,1.8     c0.7,0,1-0.7,1-1.8c0-0.9-0.3-1.7-1-1.7C519.6,85.4,519.3,86.2,519.3,87.2z" fill="hsl(0, 0%, 45%)"/>
      </g>
    </g>
  </g>
</svg>
