<?xml version='1.0' encoding='UTF-8'?>
<svg xmlns="http://www.w3.org/2000/svg" height="340" style="max-width: 100%; height: auto; font: 10px sans-serif;" viewBox="-70,-30,880,340" width="900">
  <g id="Layer_2">
    <rect height="53.3" width="131.3" x="509.6" y="22.5" fill="hsl(5, 82%, 53%)" stroke="hsl(0, 0%, 100%)"/>
    <rect height="67.3" width="66.6" x="640.9" y="22.5" fill="hsl(5, 82%, 53%)" stroke="hsl(0, 0%, 100%)"/>
    <rect height="52.5" width="196.9" x="312.7" y="49.6" fill="hsl(333, 90%, 61%)" stroke="hsl(0, 0%, 94%)"/>
    <rect height="52.5" width="196.9" x="312.7" y="22.4" fill="hsl(5, 82%, 53%)" stroke="hsl(0, 0%, 100%)"/>
    <rect height="78.3" width="66.6" x="640.9" y="154" fill="hsl(266, 42%, 86%)" stroke="hsl(0, 0%, 96%)"/>
    <rect height="65.5" width="66.6" x="640.9" y="88.5" fill="hsl(333, 90%, 61%)" stroke="hsl(0, 0%, 94%)"/>
    <rect height="13.6" width="262.5" x="50.1" y="22.5" fill="hsl(5, 82%, 53%)" stroke="hsl(0, 0%, 100%)"/>
    <rect height="78.3" width="131.3" x="509.6" y="127.9" fill="hsl(266, 42%, 86%)" stroke="hsl(0, 0%, 96%)"/>
    <rect height="52.2" width="131.3" x="509.6" y="75.7" fill="hsl(333, 90%, 61%)" stroke="hsl(0, 0%, 94%)"/>
    <rect height="78.3" width="196.9" x="312.7" y="101.8" fill="hsl(266, 42%, 86%)" stroke="hsl(0, 0%, 96%)"/>
    <rect height="64.9" width="262.5" x="50.1" y="63" fill="hsl(266, 42%, 86%)" stroke="hsl(0, 0%, 96%)"/>
    <rect height="27.2" width="262.5" x="50.1" y="35.8" fill="hsl(333, 90%, 61%)" stroke="hsl(0, 0%, 94%)"/>
    <rect height="52.2" width="67.5" x="640" y="232.3" fill="hsl(210, 71%, 58%)" stroke="hsl(0, 0%, 97%)"/>
    <rect height="104.4" width="196.9" x="312.7" y="180.1" fill="hsl(210, 71%, 58%)" stroke="hsl(0, 0%, 97%)"/>
    <rect height="78.3" width="131.3" x="509.6" y="206.2" fill="hsl(210, 71%, 58%)" stroke="hsl(0, 0%, 97%)"/>
    <rect height="156.6" width="262.5" x="50.1" y="127.9" fill="hsl(210, 71%, 58%)" stroke="hsl(0, 0%, 97%)"/>
  </g>
</svg>
