<?xml version='1.0' encoding='UTF-8'?>
<svg xmlns="http://www.w3.org/2000/svg" height="340" style="max-width: 100%; height: auto; font: 10px sans-serif;" viewBox="-600,-270,1300,520" width="900">
  <g stroke="white">
    <path d="M0,-249A249,249,0,0,1,95.881,-229.8L0,0Z" fill="hsl(196, 43%, 48%)">
      <title>&lt;5: 19,912,018</title>
    </path>
    <path d="M95.881,-229.8A249,249,0,0,1,179.014,-173.075L0,0Z" fill="hsl(172, 38%, 46%)">
      <title>5-9: 20,501,982</title>
    </path>
    <path d="M179.014,-173.075A249,249,0,0,1,233.212,-87.253L0,0Z" fill="hsl(156, 40%, 57%)">
      <title>10-14: 20,679,786</title>
    </path>
    <path d="M233.212,-87.253A249,249,0,0,1,248.46,16.396L0,0Z" fill="hsl(159, 42%, 70%)">
      <title>15-19: 21,354,481</title>
    </path>
    <path d="M248.46,16.396A249,249,0,0,1,216.75,122.558L0,0Z" fill="hsl(112, 46%, 79%)">
      <title>20-24: 22,604,232</title>
    </path>
    <path d="M216.75,122.558A249,249,0,0,1,145.78,201.864L0,0Z" fill="hsl(87, 54%, 74%)">
      <title>25-29: 21,698,010</title>
    </path>
    <path d="M145.78,201.864A249,249,0,0,1,50.671,243.79L0,0Z" fill="hsl(70, 73%, 83%)">
      <title>30-34: 21,183,639</title>
    </path>
    <path d="M50.671,243.79A249,249,0,0,1,-46.837,244.555L0,0Z" fill="hsl(70, 89%, 79%)">
      <title>35-39: 19,855,782</title>
    </path>
    <path d="M-46.837,244.555A249,249,0,0,1,-141.018,205.219L0,0Z" fill="hsl(60, 90%, 80%)">
      <title>40-44: 20,796,128</title>
    </path>
    <path d="M-141.018,205.219A249,249,0,0,1,-212.989,128.983L0,0Z" fill="hsl(50, 93%, 86%)">
      <title>45-49: 21,370,368</title>
    </path>
    <path d="M-212.989,128.983A249,249,0,0,1,-247.821,24.204L0,0Z" fill="hsl(49, 100%, 72%)">
      <title>50-54: 22,525,490</title>
    </path>
    <path d="M-247.821,24.204A249,249,0,0,1,-236.394,-78.222L0,0Z" fill="hsl(35, 100%, 78%)">
      <title>55-59: 21,001,947</title>
    </path>
    <path d="M-236.394,-78.222A249,249,0,0,1,-192.81,-157.56L0,0Z" fill="hsl(30, 96%, 65%)">
      <title>60-64: 18,415,681</title>
    </path>
    <path d="M-192.81,-157.56A249,249,0,0,1,-139.955,-205.946L0,0Z" fill="hsl(28, 88%, 64%)">
      <title>65-69: 14,547,446</title>
    </path>
    <path d="M-139.955,-205.946A249,249,0,0,1,-93.908,-230.613L0,0Z" fill="hsl(19, 99%, 63%)">
      <title>70-74: 10,587,721</title>
    </path>
    <path d="M-93.908,-230.613A249,249,0,0,1,-57.555,-242.257L0,0Z" fill="hsl(11, 85%, 62%)">
      <title>75-79: 7,730,129</title>
    </path>
    <path d="M-57.555,-242.257A249,249,0,0,1,-29.287,-247.272L0,0Z" fill="hsl(4, 73%, 53%)">
      <title>80-84: 5,811,429</title>
    </path>
    <path d="M-29.287,-247.272A249,249,0,0,1,0,-249L0,0Z" fill="hsl(351, 67%, 51%)">
      <title>≥85: 5,938,752</title>
    </path>
  </g>
  <g text-anchor="middle">
    <text transform="translate(39.11372237762645,-195.3221869674973)">
      <tspan font-weight="bold" y="-0.4em">&lt;5</tspan>
      <tspan fill-opacity="0.7" x="0" y="0.7em">19,912,018</tspan>
    </text>
    <text transform="translate(112.27451466634166,-164.54504962604446)">
      <tspan font-weight="bold" y="-0.4em">5-9</tspan>
      <tspan fill-opacity="0.7" x="0" y="0.7em">20,501,982</tspan>
    </text>
    <text transform="translate(168.42593997920625,-106.36419859201132)">
      <tspan font-weight="bold" y="-0.4em">10-14</tspan>
      <tspan fill-opacity="0.7" x="0" y="0.7em">20,679,786</tspan>
    </text>
    <text transform="translate(197.07897516160085,-28.99168069038295)">
      <tspan font-weight="bold" y="-0.4em">15-19</tspan>
      <tspan fill-opacity="0.7" x="0" y="0.7em">21,354,481</tspan>
    </text>
    <text transform="translate(190.86758926714663,57.010554876687735)">
      <tspan font-weight="bold" y="-0.4em">20-24</tspan>
      <tspan fill-opacity="0.7" x="0" y="0.7em">22,604,232</tspan>
    </text>
    <text transform="translate(148.44124679741742,132.8376311488135)">
      <tspan font-weight="bold" y="-0.4em">25-29</tspan>
      <tspan fill-opacity="0.7" x="0" y="0.7em">21,698,010</tspan>
    </text>
    <text transform="translate(80.35012137280007,182.27588429459422)">
      <tspan font-weight="bold" y="-0.4em">30-34</tspan>
      <tspan fill-opacity="0.7" x="0" y="0.7em">21,183,639</tspan>
    </text>
    <text transform="translate(1.5638158378033475,199.19386155207053)">
      <tspan font-weight="bold" y="-0.4em">35-39</tspan>
      <tspan fill-opacity="0.7" x="0" y="0.7em">19,855,782</tspan>
    </text>
    <text transform="translate(-76.7719797123452,183.81159683503995)">
      <tspan font-weight="bold" y="-0.4em">40-44</tspan>
      <tspan fill-opacity="0.7" x="0" y="0.7em">20,796,128</tspan>
    </text>
    <text transform="translate(-144.84942167794674,136.74532913253157)">
      <tspan font-weight="bold" y="-0.4em">45-49</tspan>
      <tspan fill-opacity="0.7" x="0" y="0.7em">21,370,368</tspan>
    </text>
    <text transform="translate(-189.02900335378692,62.83849052192471)">
      <tspan font-weight="bold" y="-0.4em">50-54</tspan>
      <tspan fill-opacity="0.7" x="0" y="0.7em">22,525,490</tspan>
    </text>
    <text transform="translate(-197.97189389578836,-22.085498122404186)">
      <tspan font-weight="bold" y="-0.4em">55-59</tspan>
      <tspan fill-opacity="0.7" x="0" y="0.7em">21,001,947</tspan>
    </text>
    <text transform="translate(-174.59031274493717,-95.91070167413557)">
      <tspan font-weight="bold" y="-0.4em">60-64</tspan>
      <tspan fill-opacity="0.7" x="0" y="0.7em">18,415,681</tspan>
    </text>
    <text transform="translate(-134.505825498966,-146.9313544034823)">
      <tspan font-weight="bold" y="-0.4em">65-69</tspan>
      <tspan fill-opacity="0.7" x="0" y="0.7em">14,547,446</tspan>
    </text>
    <text transform="translate(-94.06412677226238,-175.59208425943282)">
      <tspan font-weight="bold" y="-0.4em">70-74</tspan>
    </text>
    <text transform="translate(-60.76397910153224,-189.70603270257)">
      <tspan font-weight="bold" y="-0.4em">75-79</tspan>
    </text>
    <text transform="translate(-34.79469030600643,-196.13762904274412)">
      <tspan font-weight="bold" y="-0.4em">80-84</tspan>
    </text>
    <text transform="translate(-11.735147265593108,-198.8540326939709)">
      <tspan font-weight="bold" y="-0.4em">≥85</tspan>
    </text>
  </g>
</svg>
