<?xml version='1.0' encoding='UTF-8'?>
<svg xmlns="http://www.w3.org/2000/svg" height="340" style="max-width: 100%; height: auto; font: 10px sans-serif;" viewBox="-70,-30,880,340" width="900">
  <g id="Layer_1">
    <polyline points="201.8,64.8 201.8,47 528,47 528,108.8  " fill="none" stroke="hsl(0, 0%, 73%)"/>
    <line x1="364.2" x2="364.2" y1="28.8" y2="65.5" fill="none" stroke="hsl(0, 0%, 73%)"/>
    <line x1="486.7" x2="486.7" y1="198.1" y2="47.2" fill="none" stroke="hsl(0, 0%, 73%)"/>
    <line x1="446.2" x2="446.2" y1="64.5" y2="47.2" fill="none" stroke="hsl(0, 0%, 73%)"/>
    <line x1="405.3" x2="405.3" y1="64.5" y2="47.2" fill="none" stroke="hsl(0, 0%, 73%)"/>
    <line x1="323.7" x2="323.7" y1="47.2" y2="242.8" fill="none" stroke="hsl(0, 0%, 73%)"/>
    <line x1="283.3" x2="283.3" y1="65" y2="46.5" fill="none" stroke="hsl(0, 0%, 73%)"/>
    <line x1="242.2" x2="242.2" y1="109.8" y2="46.5" fill="none" stroke="hsl(0, 0%, 73%)"/>
    <line x1="201.5" x2="201.5" y1="72.2" y2="110.8" fill="none" stroke="hsl(0, 0%, 73%)"/>
    <polyline points="201.5,89.8 118.6,89.8 118.6,222.5  " fill="none" stroke="hsl(0, 0%, 73%)"/>
    <polyline points="282.4,267 282.4,89.8 364.7,89.8 364.7,199.2  " fill="none" stroke="hsl(0, 0%, 73%)"/>
    <polyline points="446.7,153.2 446.7,89.8 486.8,89.8  " fill="none" stroke="hsl(0, 0%, 73%)"/>
    <line x1="159.5" x2="159.5" y1="155.5" y2="89.5" fill="none" stroke="hsl(0, 0%, 73%)"/>
    <polyline points="528,89.8 651.7,89.8 651.7,110  " fill="none" stroke="hsl(0, 0%, 73%)"/>
    <line x1="569.7" x2="569.7" y1="109.2" y2="89.5" fill="none" stroke="hsl(0, 0%, 73%)"/>
    <line x1="610.7" x2="610.7" y1="154.2" y2="89.8" fill="none" stroke="hsl(0, 0%, 73%)"/>
    <polyline points="118.8,134.5 35.8,134.5 35.8,152.8  " fill="none" stroke="hsl(0, 0%, 73%)"/>
    <polyline points="76.5,134.8 76.5,222.5 35.8,222.5 35.8,241.8  " fill="none" stroke="hsl(0, 0%, 73%)"/>
    <polyline points="159.2,134.5 200.4,134.5 200.4,286.7  " fill="none" stroke="hsl(0, 0%, 73%)"/>
    <polyline points="364.6,134.5 405.7,134.5 405.7,153.8  " fill="none" stroke="hsl(0, 0%, 73%)"/>
    <polyline points="652.7,199.8 652.7,134.5 570,134.5 570,222.2  " fill="none" stroke="hsl(0, 0%, 73%)"/>
    <polyline points="101.2,286.5 101.2,222.1 134.2,222.2 134.2,242.8  " fill="none" stroke="hsl(0, 0%, 73%)"/>
    <line x1="68.8" x2="68.8" y1="241.4" y2="222.2" fill="none" stroke="hsl(0, 0%, 73%)"/>
    <polyline points="35.5,249.7 35.5,266.7 68.5,266.7 68.5,286.7  " fill="none" stroke="hsl(0, 0%, 73%)"/>
    <line x1="35.5" x2="35.5" y1="264.5" y2="286.8" fill="none" stroke="hsl(0, 0%, 73%)"/>
    <polyline points="167.5,286.3 167.5,222.3 233.3,222.3 233.3,286  " fill="none" stroke="hsl(0, 0%, 73%)"/>
    <polyline points="282.5,178.2 241.2,178.2 241.2,199.2  " fill="none" stroke="hsl(0, 0%, 73%)"/>
    <polyline points="299,287.5 299,267 266,267 266,288.8  " fill="none" stroke="hsl(0, 0%, 73%)"/>
    <polyline points="323.8,222.5 361,222.5 361,265.8  " fill="none" stroke="hsl(0, 0%, 73%)"/>
    <polyline points="376.5,288.2 376.5,265.8 343.5,265.8 343.5,286.5  " fill="none" stroke="hsl(0, 0%, 73%)"/>
    <polyline points="447,222.2 447,179.5 529.5,179.5 529.5,198.5  " fill="none" stroke="hsl(0, 0%, 73%)"/>
    <polyline points="652.5,178.2 693.6,178.2 693.6,287.8  " fill="none" stroke="hsl(0, 0%, 73%)"/>
    <polyline points="397.5,242.2 397.5,222.2 496.2,222.2 496.2,286.8  " fill="none" stroke="hsl(0, 0%, 73%)"/>
    <line x1="430.3" x2="430.3" y1="286.6" y2="221.9" fill="none" stroke="hsl(0, 0%, 73%)"/>
    <line x1="462.8" x2="462.8" y1="286.5" y2="222.2" fill="none" stroke="hsl(0, 0%, 73%)"/>
    <polyline points="496.2,266.3 528.7,266.3 528.7,286.2  " fill="none" stroke="hsl(0, 0%, 73%)"/>
    <polyline points="553.8,242 553.8,222.3 587.3,222.3 587.3,266  " fill="none" stroke="hsl(0, 0%, 73%)"/>
    <polyline points="693.5,266.2 628,266.2 628,287.7  " fill="none" stroke="hsl(0, 0%, 73%)"/>
    <line x1="660.5" x2="660.5" y1="266.2" y2="287.2" fill="none" stroke="hsl(0, 0%, 73%)"/>
    <polyline points="652.8,205 652.8,222.5 627.8,222.5 627.8,242  " fill="none" stroke="hsl(0, 0%, 73%)"/>
    <polyline points="660.7,241.3 660.7,222.5 652.9,222.5  " fill="none" stroke="hsl(0, 0%, 73%)"/>
    <polyline points="595,287.7 595,266.2 562.5,266.2 562.5,288.5  " fill="none" stroke="hsl(0, 0%, 73%)"/>
  </g>
  <g id="Layer_2">
    <rect height="9" width="22" x="353.5" y="20" fill="hsl(0, 100%, 55%)"/>
    <rect height="9" width="22" x="353.5" y="64.2" fill="hsl(0, 100%, 55%)"/>
    <rect height="9" width="22" x="312.8" y="64.2" fill="hsl(0, 100%, 55%)"/>
    <rect height="9" width="22" x="394.3" y="64.2" fill="hsl(0, 100%, 55%)"/>
    <rect height="9" width="22" x="475.8" y="64.2" fill="hsl(0, 100%, 55%)"/>
    <rect height="9" width="22" x="435" y="64.2" fill="hsl(0, 100%, 55%)"/>
    <rect height="9" width="22" x="516.5" y="64.2" fill="hsl(0, 100%, 55%)"/>
    <rect height="9" width="22" x="231.3" y="64.2" fill="hsl(0, 100%, 55%)"/>
    <rect height="9" width="22" x="190.5" y="64.2" fill="hsl(0, 100%, 55%)"/>
    <rect height="9" width="22" x="272" y="64.2" fill="hsl(0, 100%, 55%)"/>
    <rect height="9" width="22" x="353.5" y="108.3" fill="hsl(0, 100%, 55%)"/>
    <rect height="9" width="22" x="312.5" y="108.3" fill="hsl(0, 100%, 55%)"/>
    <rect height="9" width="22" x="475.8" y="108.3" fill="hsl(0, 100%, 55%)"/>
    <rect height="9" width="22" x="435.5" y="108.3" fill="hsl(0, 100%, 55%)"/>
    <rect height="9" width="22" x="516.8" y="108.3" fill="hsl(0, 100%, 55%)"/>
    <rect height="9" width="22" x="599.5" y="108.3" fill="hsl(0, 100%, 55%)"/>
    <rect height="9" width="22" x="558.5" y="108.3" fill="hsl(0, 100%, 55%)"/>
    <rect height="9" width="22" x="640.5" y="108.3" fill="hsl(0, 100%, 55%)"/>
    <rect height="9" width="22" x="230.5" y="108.3" fill="hsl(0, 100%, 55%)"/>
    <rect height="9" width="22" x="189.5" y="108.3" fill="hsl(0, 100%, 55%)"/>
    <rect height="9" width="22" x="271.5" y="108.3" fill="hsl(0, 100%, 55%)"/>
    <rect height="9" width="22" x="107.5" y="108.3" fill="hsl(0, 100%, 55%)"/>
    <rect height="9" width="22" x="148.5" y="108.3" fill="hsl(0, 100%, 55%)"/>
    <rect height="9" width="22" x="353.5" y="152.5" fill="hsl(0, 100%, 55%)"/>
    <rect height="9" width="22" x="312.4" y="152.5" fill="hsl(0, 100%, 55%)"/>
    <rect height="9" width="22" x="394.6" y="152.5" fill="hsl(0, 100%, 55%)"/>
    <rect height="9" width="22" x="475.4" y="152.5" fill="hsl(0, 100%, 55%)"/>
    <rect height="9" width="22" x="435.8" y="152.5" fill="hsl(0, 100%, 55%)"/>
    <rect height="9" width="22" x="600.2" y="152.5" fill="hsl(0, 100%, 55%)"/>
    <rect height="9" width="22" x="559.1" y="152.5" fill="hsl(0, 100%, 55%)"/>
    <rect height="9" width="22" x="641.4" y="152.5" fill="hsl(0, 100%, 55%)"/>
    <rect height="9" width="22" x="189" y="152.5" fill="hsl(0, 100%, 55%)"/>
    <rect height="9" width="22" x="271.3" y="152.5" fill="hsl(0, 100%, 55%)"/>
    <rect height="9" width="22" x="107.8" y="152.5" fill="hsl(0, 100%, 55%)"/>
    <rect height="9" width="22" x="65.6" y="152.5" fill="hsl(0, 100%, 55%)"/>
    <rect height="9" width="22" x="24.5" y="152.5" fill="hsl(0, 100%, 55%)"/>
    <rect height="9" width="22" x="147.9" y="152.5" fill="hsl(0, 100%, 55%)"/>
    <rect height="9" width="22" x="353.5" y="196.7" fill="hsl(0, 100%, 55%)"/>
    <rect height="9" width="22" x="312.4" y="196.7" fill="hsl(0, 100%, 55%)"/>
    <rect height="9" width="22" x="475.6" y="196.7" fill="hsl(0, 100%, 55%)"/>
    <rect height="9" width="22" x="435.8" y="196.7" fill="hsl(0, 100%, 55%)"/>
    <rect height="9" width="22" x="518" y="196.7" fill="hsl(0, 100%, 55%)"/>
    <rect height="9" width="22" x="559.1" y="196.7" fill="hsl(0, 100%, 55%)"/>
    <rect height="9" width="22" x="641.4" y="196.7" fill="hsl(0, 100%, 55%)"/>
    <rect height="9" width="22" x="682.5" y="196.7" fill="hsl(0, 100%, 55%)"/>
    <rect height="9" width="22" x="230.1" y="196.7" fill="hsl(0, 100%, 55%)"/>
    <rect height="9" width="22" x="189" y="196.7" fill="hsl(0, 100%, 55%)"/>
    <rect height="9" width="22" x="271.3" y="196.7" fill="hsl(0, 100%, 55%)"/>
    <rect height="9" width="22" x="107.8" y="196.7" fill="hsl(0, 100%, 55%)"/>
    <rect height="9" width="22" x="65.6" y="196.7" fill="hsl(0, 100%, 55%)"/>
    <rect height="9" width="22" x="349.8" y="240.8" fill="hsl(0, 100%, 55%)"/>
    <rect height="9" width="22" x="419.3" y="240.8" fill="hsl(0, 100%, 55%)"/>
    <rect height="9" width="22" x="312.3" y="240.8" fill="hsl(0, 100%, 55%)"/>
    <rect height="9" width="22" x="386.4" y="240.8" fill="hsl(0, 100%, 55%)"/>
    <rect height="9" width="22" x="452.2" y="240.8" fill="hsl(0, 100%, 55%)"/>
    <rect height="9" width="22" x="485.1" y="240.8" fill="hsl(0, 100%, 55%)"/>
    <rect height="9" width="22" x="543.1" y="240.8" fill="hsl(0, 100%, 55%)"/>
    <rect height="9" width="22" x="616.7" y="240.8" fill="hsl(0, 100%, 55%)"/>
    <rect height="9" width="22" x="576" y="240.8" fill="hsl(0, 100%, 55%)"/>
    <rect height="9" width="22" x="649.6" y="240.8" fill="hsl(0, 100%, 55%)"/>
    <rect height="9" width="22" x="682.5" y="240.8" fill="hsl(0, 100%, 55%)"/>
    <rect height="9" width="22" x="221.9" y="240.8" fill="hsl(0, 100%, 55%)"/>
    <rect height="9" width="22" x="189" y="240.8" fill="hsl(0, 100%, 55%)"/>
    <rect height="9" width="22" x="271.2" y="240.8" fill="hsl(0, 100%, 55%)"/>
    <rect height="9" width="22" x="90.3" y="240.8" fill="hsl(0, 100%, 55%)"/>
    <rect height="9" width="22" x="57.4" y="240.8" fill="hsl(0, 100%, 55%)"/>
    <rect height="9" width="22" x="24.5" y="240.8" fill="hsl(0, 100%, 55%)"/>
    <rect height="9" width="22" x="123.2" y="240.8" fill="hsl(0, 100%, 55%)"/>
    <rect height="9" width="22" x="156.1" y="240.8" fill="hsl(0, 100%, 55%)"/>
    <rect height="9" width="22" x="365.5" y="285" fill="hsl(0, 100%, 55%)"/>
    <rect height="9" width="22" x="419.3" y="285" fill="hsl(0, 100%, 55%)"/>
    <rect height="9" width="22" x="332.6" y="285" fill="hsl(0, 100%, 55%)"/>
    <rect height="9" width="22" x="518" y="285" fill="hsl(0, 100%, 55%)"/>
    <rect height="9" width="22" x="452.2" y="285" fill="hsl(0, 100%, 55%)"/>
    <rect height="9" width="22" x="485.1" y="285" fill="hsl(0, 100%, 55%)"/>
    <rect height="9" width="22" x="550.9" y="285" fill="hsl(0, 100%, 55%)"/>
    <rect height="9" width="22" x="616.7" y="285" fill="hsl(0, 100%, 55%)"/>
    <rect height="9" width="22" x="583.8" y="285" fill="hsl(0, 100%, 55%)"/>
    <rect height="9" width="22" x="649.6" y="285" fill="hsl(0, 100%, 55%)"/>
    <rect height="9" width="22" x="682.5" y="285" fill="hsl(0, 100%, 55%)"/>
    <rect height="9" width="22" x="221.9" y="285" fill="hsl(0, 100%, 55%)"/>
    <rect height="9" width="22" x="189" y="285" fill="hsl(0, 100%, 55%)"/>
    <rect height="9" width="22" x="254.8" y="285" fill="hsl(0, 100%, 55%)"/>
    <rect height="9" width="22" x="287.7" y="285" fill="hsl(0, 100%, 55%)"/>
    <rect height="9" width="22" x="90.3" y="285" fill="hsl(0, 100%, 55%)"/>
    <rect height="9" width="22" x="57.4" y="285" fill="hsl(0, 100%, 55%)"/>
    <rect height="9" width="22" x="24.5" y="285" fill="hsl(0, 100%, 55%)"/>
    <rect height="9" width="22" x="156.1" y="285" fill="hsl(0, 100%, 55%)"/>
  </g>
</svg>
