<?xml version='1.0' encoding='UTF-8'?>
<svg xmlns="http://www.w3.org/2000/svg" height="340" style="max-width: 100%; height: auto; font: 10px sans-serif;" viewBox="-70,-30,880,340" width="900">
  <g id="Layer_1">
    <g opacity="0.2">
      <g id="Australia:Victoria_State">
        <path d="M485.4,269.7l-0.3-0.1l0,0l-0.2-0.2l-0.1-0.1l0-0.1l0,0l-0.4-1l-0.2-0.2l-0.1-0.1l-0.1-0.2l-0.2-0.2     l-0.1-0.1l-0.2-0.2l-0.2-0.1l-0.1-0.1l-0.1-0.1l-0.1,0l-0.2-0.1l-0.2,0l-0.1,0l-0.1,0l-0.1,0l-0.1,0l0,0l0,0l-0.1,0.2l0,0l0,0.1     L481,267l-0.7-1.2l0.1-0.2l0.1,0l0,0l0-0.1l-0.2-0.4l0,0l-0.1,0l-0.2,0l-0.1,0l-0.2,0l-0.2,0l-0.1,0l-0.3,0.2l-0.1,0.1l-0.1,0.1     l-0.1,0.1l-0.1,0l-0.4,0l-0.1,0l-0.3-0.1l0,0l-0.1-0.1l-1.3-1.1l0-0.2l0.1-0.7l0.5-0.2l0.1,0l0.1,0l0.1,0l0,0l0.2-0.3l0.1-0.1     l0-0.1l0,0l-0.6-1.1l0,0l-0.3-0.2l-0.1,0l-1.6,0.1l-0.1,0l0,0l-0.4,1l-1.6,1.3l-0.1,0l-0.8,0.1l-0.3,0l0,0l-1.3-1.2l0.2,0     l0.2,0.1l0.1,0l0.2,0l0.3,0l0.1,0l0.2-0.1l0.3-0.1l0.4-0.1l0,0l0,0l1.2-1.5l0.1-0.1l0-0.1l0-0.1l0-0.1l-0.2-0.5l-0.1-0.2     l-0.1-0.1l-1.1-1.3l0,0l-0.2-0.1l-0.1,0l-0.1,0l-0.1,0l-0.1,0l-0.1,0l-0.7,0.2l0,0l0,0l-0.1,0.1l-0.6,0.5l-0.5,0.3l-0.1,0.1     l-0.2,0.1l-1.2,0.7l-1.2,0.1l-0.1,0l-0.1,0l0,0l0,0l-0.1,0.1l0,0.1l0,0l0,0.1l0.1,0.1l0.1,0l0.1,0l0.9,0.1l0.1,0l0.2,0l0.1,0     l0.3-0.1l0.1-0.1l0.1-0.1l0,0l0.1-0.1l0,0l0.1,0l0.1,0l0.2,0l0.1,0l0.2,0.1l0.1,0.1l0.1,0.1l0.1,0.1l0,0.1l-0.1,0.3l-0.5,0.6     l-0.2,0.1l-0.2,0l-0.1,0l-0.1,0l0,0l-0.1,0l-0.1,0l-0.1,0l-0.1,0l-1.3,0.2l-0.1,0l-0.2,0.1l-2.7,1.5l0,0l-0.5,0.4l0,0l0,0l0,0.1     l-0.7,0.8l0,0l-0.1,0.1l-0.5,0.4l0,0l-0.6,0.1l-0.3,0l-0.2,0l-0.1,0.1l-0.1,0.1l0,0l-0.1,0.1l-0.1,0.2l0,0.1l0,0l0,0l-1,0.6     l-0.1,0l-0.1,0L459,267l-0.1,0l0,0l-0.2-0.1l-0.3-0.3l-0.1-0.1l-0.1-0.1l0,0l-0.4-0.2l-0.4-0.1l-0.1,0l-0.1,0l-1.4-0.4l-0.4-0.3     l-0.1-0.1l-0.3-0.2l-0.4-0.2l-0.1,0l-0.2-0.1l-0.1,0l-0.2,0l-0.1,0l-0.1,0l-1-0.3l-0.5-0.2l-0.1,0l-0.4-0.3l-0.2-0.1l-1.2-0.7     L450,263l-1.3-0.4l-0.1,0l-0.9,0.1l-0.1,0l0,0l0,0l0,0l0,0.1l0,0l0,0l-0.1,0l-0.1,0l-0.1,0l-0.5,0l-0.1,0l-0.1,0l-0.1,0l-0.6-0.3     l-0.2-0.1l-0.6-0.4L445,262l-0.1-0.1l-0.1,0l-1.3-0.2l-0.6,0l-0.1,0l-0.2,0l-0.3,0.1l-0.1,0l-0.4,0.2l-0.1,0.1l-0.1,0.1l0,0     l0,0.1l0,0l0.1,0.1l0,0l0.1,0.1l0.1,0.1l0,0.1l0,0.1l0,0l-0.1,0l-0.7,0.1l-1.1-0.4l-0.5-0.4l-0.1-0.1l-0.1-0.1l-0.2-0.2l-0.7-0.6     l-0.5-0.3l-0.4-0.3l-0.4-0.2l-0.2-0.1l-0.2-0.1l-0.7-0.3l-0.2-0.1l-0.3-0.1l0-0.4l0-0.5l0-0.9l0-5.7l0-18.1l0-5l0-6.8l0,0     l0.1,0.1l0.2,0.2l0.3,0.2l0.1,0.1l0.1,0l0.2,0l0.2,0l0.3,0l0.3,0l0.9,0.1l1.5,0.6l0.1,0l1,0.5l0.1,0.1l0.1,0.1l0.1,0l0.1,0     l0.3-0.2l0.1-0.1l0,0l0.1-0.2l0.3-0.3l0.1,0l0.2-0.1l0.5-0.2l0.1,0l0.2,0l0.3,0.1l0.8,0.1l0.8-0.1l0.1,0l0,0l0.2-0.1l0,0l0.1,0     l0.1,0l0.1,0l1,0.4l0,0l0.7,0.4l0.1,0.1l1.2,1.8l0,0.2l0,1l0,0l0,0l0.1,0.1l0.2,0.1l0.3,0.2l0.1,0.1l0.1,0.1l0,0.1l0.5,1l0,0.1     l0,0.1l0.1,0.2l0.1,0.1l0.1,0.1l0.2,0.1l0.6,0.1l0.1,0l0.1,0l0,0l0.3-0.4l0.1-0.4l0.2-0.6l0-0.1l0.1-0.1l0.1-0.1l0.4-0.1l0.1,0     l0.1,0l0.4,0.3l0.1,0.1l0,0l0.1,0.2l1.1,0.4l0.5,0l0.4,0l0.1,0l0.1,0l0.1,0l0.1,0l0.1,0l1.2,0.5l0.1,0l0.7,0.3l0,0l0.1,0.1l0,0.1     l0,0.5l0,0.1l0,0.1l0,0l0,0l0,0.1l0,0.6l0,0.1l0.1,0.7l0.1,0.2l0,0.1l0.1,0.1l0.3,0.6l0.1,0.1l0.1,0.1l0.5,0.2l0.1,0l0.3,0     l0.4,0.1l0.1,0l0,0l0.3,0.4l0,0l0,0.1l0,0.1l-0.1,0.1l-0.1,0.1l0,0l0,0.1l0,0.1l0,0l0.1,0.1l0.1,0.1l0.1,0.1l0.3,0.2l0.2,0.1     l0.1,0l0.3-0.1l0.1,0l0.1,0l0.5,0.2l0.1,0.1l1.4,0.8l1.2,0.5l0.2,0.1l0.2,0.1l0.2,0.2l0.1,0.1l0.2,0.2l0.3,0.3l0.1,0.1l0.8,0.6     l0.1,0.1l0.3,0l0.1,0l0.1,0.1l0.1,0.1l0.1,0.2l0.1,0.2l0.1,0.2l0.1,0.1l0.1,0.2l1.7,1.7l0.2,0.2l0,0l1.1,0.5l0.1,0l0.3,0.1     l0.3-0.1l1.3-0.3l-0.1-0.7l0,0l0-0.1l0-0.1l0.3-0.9l0-0.1l0.1-0.1l0.1-0.1l0,0l0.1,0l0.9-0.2l0.2,0l1.1,0l0.1,0l0.1,0.1l0.1,0.1     l0.1,0l0.2,0l0.6,0l0.1,0l0.2-0.1l0.2-0.2l0.2-0.1l0.2,0l0.5-0.1l0.1,0l0.1,0l0.1,0l0.1,0l0.1,0.1l0.6,0.4l0.4,0.3l0.1,0.1     l0.1,0.1l0.4,0.3l0.1,0.1l0.6,0.2l2.6,0.4l1.9,0.1l0.9-0.3l0.1-0.1l0.2-0.2l0.2,0l0.5,0h0.1l0.8,0.1l0.1,0l0.5,0.4l0.3,0.2     l1.6,0.4l0.4,0.1l1.2,0.1l0.1,0l0.1,0l1.4-0.4l0.8-0.1l0.4-0.4l0-0.1l0.3-0.4l0.1-0.1l0.1,0l0.7-0.1l0.1,0l0.1,0l0,0l0.1,0.1     l1.1,0.1l0.5-0.2l0.1,0l0.1,0l0.1,0l1.5,0.5l0.2,0.1l0.8,0.4l0.1,0.1l0.2,1.5l0.2,1.5l0,0.1l0.1,0.1l0.1,0.1l0.1,0.1l0.1,0.1     l0.1,0.1l0,0l0.1,0.1l0.7,1.3l0,0l0,0.1l0,0.1l0,0.2L502,247l-0.1,0.1l-0.2,0.2l-0.2,0.2l-0.1,0.1l-0.3,0.5l0.4,0.1l0.1,0l0.3,0     l0.1,0l1,0.4l0.5,0.2l0.8,0.4l1.1,0.4l2.5,1l2.1,0.9l1.6,0.6l2.4,1l2,0.8l2.1,0.8l0.1,0l0,0.1l0,0l-0.6,0.2l-0.1,0l-0.7,0l-0.3,0     h-0.2l-0.3,0.4l-0.6,0.8l0,0l-0.1,0.1l-0.8,0.3l-0.1,0l-0.1,0L514,257l-0.4,0.2l-1.4,0.1l-0.5,0l-1.6,0l-2.3,0l-0.1,0l-0.3,0     l-0.2,0l-0.1,0l-0.9,0l-1.5,0l-1.7,0.1l-0.3,0l-0.7,0.1l-2.1,0.5l-0.2,0l-0.2,0.1l-0.8,0.3L498,259l-0.1,0l-0.2,0.1l-0.7,0.4     l-0.6,0.4l-0.4,0.3l-1,0.7l-0.5,0.4l-1.5,1.1l-0.2,0.2l-0.1,0.1l0,0l-0.6,0.6l-1.1,1l-0.1,0.1l-0.1,0.1l-0.9,0.6l-0.3,0.1l0,0     l-0.1,0l-0.1,0l-1.5,0.1l-0.1,0l-1.3,0.2l-0.6,0.2l-0.6-0.1l-0.1-0.1l-0.1,0l-0.1,0l-0.7,0.1l-0.2,0l-0.1,0l-0.1,0.1l-0.1,0.1     l-0.3,0.3l0,0l0,0l0.9,1.4l0,0l0.1,0l0.1,0l0.1,0l0.1,0l0.9-0.5l0,0l0,0l0-0.2l0.1-0.3l0,0l0.1,0l0.2,0l0,0l0,0l0,0l0,0.1     l0.1,2.4l0,0.1l-0.5,0.5l0,0l-0.1,0.1L485.4,269.7L485.4,269.7z" fill="hsl(230, 100%, 61%)" stroke="hsl(0, 0%, 91%)"/>
        <path d="M475.7,263.1l-0.4-0.2l0,0l-0.1-0.3l0-0.1l0.2-0.6l0,0l0.1,0l1.3,0.2l0.1,0l0,0l0.3,0.2l0.1,0.1l0,0l0,0.1     l0,0l-0.1,0l-0.2,0l-0.3,0l-0.1,0l-0.1,0.1l-0.4,0.4l-0.1,0.1L475.7,263.1z" fill="hsl(230, 100%, 61%)" stroke="hsl(0, 0%, 91%)"/>
        <path d="M475.7,264.2l-0.1-0.1l-0.1,0l-0.1,0l-0.2-0.1l-0.2,0l-0.1,0l-0.1,0l-0.4,0l-0.5,0l-0.1,0l0,0l0.1-0.1     l0.4-0.3l0.2-0.1l0.1,0l0.1,0l0.6-0.1l0.1,0l0.1,0l0.1,0l0.1,0.1l0,0l0.5,0.9l0,0l-0.1,0L475.7,264.2z" fill="hsl(230, 100%, 61%)" stroke="hsl(0, 0%, 91%)"/>
        <path d="M486.7,266.5l-0.4-0.2l-0.1,0l-0.1-0.1l-0.1-0.1l0,0l0,0l0.1,0l0.1,0l0.8,0l0.1,0l0.6,0.1l0.1,0l0,0l0,0.1     l0,0l-0.1,0l-0.1,0l-0.1,0l-0.2,0l-0.1,0l-0.1,0.1l-0.2,0.2L486.7,266.5z" fill="hsl(230, 100%, 61%)" stroke="hsl(0, 0%, 91%)"/>
      </g>
      <g id="Australia:South_Australia_State">
        <path d="M386.8,231.2l-0.2-0.3l-0.1-0.3l-0.2-0.2l-1-1.1l-1.3-1.1l-0.1-0.1l-0.7-0.4l-0.1,0l-0.2-0.1l-0.1,0l-0.1,0     l-0.1,0l-0.5,0.1l0,0l0,0l-0.1,0.1l-0.1,0.1l-0.1,0l-0.1,0l0,0l0-0.1l0.1-0.1l0.4-0.7l0.5-0.6l0,0l0.1,0l0,0l0,0.2l0,0.1l0,0.1     l0,0.2l0,0l0,0l1.2,1l0.4,0.3l0.1,0l0.1,0l0.1,0l0.8-0.2l0.1,0l0,0l0-0.1l0,0l-0.1,0l-0.1,0l-0.4,0l-0.1,0l-0.4-0.1l-0.1-0.1     l-0.1-0.2l0,0l0-0.1l0,0l0-0.1l0-0.1l0.1-0.1l0,0l0-0.1l0-0.1l-0.4-1.8l-0.4-0.9l-0.3-0.6l0-0.1l-0.1-0.9l0-0.1l0-0.1l-0.6-0.7     l-1.3-1.2l-0.2-0.2l-0.5-0.3l-0.4-0.2l-0.1-0.1l-0.8-0.5l0,0l0.1-0.3l0-0.1l0.1-0.2l0,0l0-0.1l0-0.1l0-0.1l0-0.4l0-0.2l-0.3-0.7     l-0.2-0.4l-0.9-1.6l0,0l-0.1-0.1l-0.1,0l-0.8-0.2l-1.6,0.2l-0.1,0l0,0l-0.1,0.1l-0.1,0.1l-0.5,0.2l-0.1,0l-0.1,0l0,0l-0.5-0.4     l0-0.1l0-0.1l0-0.1l0-0.1l0-0.1l-0.6-1.4l0-0.1l0,0l-0.1-0.1l-0.5-0.9l-0.5-1l0,0l0-0.1l0,0l0.1,0l0.1,0l0.6,0.1l0.4,0.2l0,0.1     l0,0.1l0,0.1l0,0.2l0,0.1l0,0l0,0l0.1,0l0,0l0.1-0.2l0.4-0.5l0.1-0.1l0.2-0.4l0,0l-0.1-0.7l0-0.1l-0.1-0.1l-0.5-0.5l-0.2-0.2     l-0.2-0.2l-0.4-0.3l-0.2,0l-0.1,0l-1.4,0.4l-0.4,0.4l0,0l-0.1,0l-0.1,0l-0.1,0l-0.2,0l-0.1,0l0,0l0-0.1l0-0.7l0-0.1l0.2-0.4l0,0     l0,0l0.1,0l0,0l0.1,0.1l0,0.1l0.1,0l0.2,0l0.1,0l0,0l0.1-0.1l0-0.1l0-0.1l0,0l-0.4-0.6l-0.3-0.3l-0.4-0.4l-0.6-0.3l-0.3-0.1     l-0.3-0.2l-0.3-0.2l0,0l0,0l0,0l0.1-0.2l0-0.1l0,0l0,0l0,0l-0.4-0.1l-0.1,0l-0.1,0l0,0l0,0l-0.1,0.1l0,0.1l0,0.3l0,0.1l0,0l0,0     l-0.1,0.1l-0.6,0.3l-0.1,0l-0.1,0l-0.6,0l-1.8-0.1l-0.5-0.1l-0.3,0l0,0l-0.4-0.4l-0.1-0.1l-0.1-0.1l-0.1-0.1l-0.1-0.1l-0.2-0.1     l-0.1,0l-0.4-0.1l-1-0.8l-0.2-0.2l0,0l-0.4-0.2l-0.1,0l-0.1,0l-1.6-0.1l-0.4,0l-0.3,0.1l-0.3,0.1l-0.2,0.1l-0.1,0.1l0,0l0,0     l-0.3,0.3l-0.8,0.2l-0.1,0l-0.5,0l-0.6-0.1l-0.1-0.1l-0.1-0.1l-0.1-0.1l-0.1-0.1l-0.2-0.2l-1-0.8l-1.9-1.2l-0.4-0.2l-0.9-0.5     l-1.6-0.7l-0.2-0.1l-1-0.4l-0.8-0.3l-0.9-0.3l-0.1,0l-0.1,0l-0.1,0l-0.2,0l-0.1,0l-0.1,0l-0.2,0.1l-0.2,0.2l-0.2,0.2l-0.1,0.1     l-0.2,0.1l-0.1,0l-1.4,0.5l-0.1,0l-0.4,0l-0.2,0l-0.2,0l-0.2,0l-0.3,0l-0.5,0l-3.5-0.3l-0.2,0l-0.8,0l-2,0.1l-0.3,0l-0.1,0     l-0.1,0l0,0l-0.1,0l-0.4,0.1l-1.3,0.1l-2.1,0.2L328,201l-1.6,0.2l-0.3,0l-0.3,0l0-1.2l0-1.9l0-3l0-4l0-8.6l0-1.3l0-7.4l0-3.7     l0-13.4l0-2.3l0.1-5.5l0.3,0l2.5,0l5.5,0l4.9,0l7.9,0l23.9,0l22,0l4.6,0l8.6,0h2.4h0.9l5.5,0l4.6,0l16.5,0l0,3l0,2.7l0,19.8     l0,1.8l0,0.3l0,0.9l0,3.4l0,4l0,5.8l0,0.2l0,12.2l0,19.2l0,0.5l-0.2-0.2l-0.1-0.1l0,0l0,0.2l0,7l0,5.2l0,18l0,5.4l0,1.3l0,0.4     l-0.2,0l-0.2,0l-0.7,0l-0.1,0l-0.1,0l-0.1,0l-0.4,0.1l-0.7,0l-0.2,0l-0.1,0l-0.8-0.3l-0.5-0.3l-1.6-1.2l0-0.1l-0.1-0.3l-0.1-0.1     l-0.9-1.3l-1-1.2l-0.1-0.1l-0.3-0.2l-0.2-0.1l-0.2-0.1l-0.1,0l-0.1,0l0,0l0,0.1l-0.2,0l-1.4-1.5l-0.2-0.3l-0.2-0.2l-0.4-0.7     l0-0.3h0.1l0.1,0l0,0l0,0l0,0l0,0l0-0.1l0-0.4l-0.4-0.8l0-0.1l0.2-0.8l0.3-0.2l0.1-0.1l0.2-0.1l0.1-0.1l0.1-0.2l0.1-0.1l0-0.1     l0.1-0.2l0-0.1l0-0.2l0-0.1l0-0.2l0-0.6l0-0.1l-0.1-0.2l-0.3-0.5l0-0.2l0-0.1l-1.3-2.7l-0.2-0.4l-1.3-1.4l-0.1-0.2l-0.6-0.6     l-0.1-0.1l-0.1-0.1L421,240l-0.4-0.4l-0.3-0.3l-0.9-0.8l-1-0.6l0,0l0,0l0.1,0l0.1,0l0,0l0,0l0.1,0.1l0.1,0l0.1,0l1.9,1.3l0.6,0.4     l0.6,0.6l0,0l0.9,1.1l0.1,0.1l0.2,0.3l0.3,0.5l0.1,0.2l0.1,0.2l0,0l0,0l0-0.2l0-0.2l-0.1-0.4l-0.4-1L423,241l-0.2-0.2l-0.1-0.1     l-0.2-0.2l-0.5-0.4l-0.4-0.3l-1.4-1l-1-0.9l-0.3-0.2l-0.2-0.2l-0.1,0l-0.2-0.1l0,0l0-0.1l0-0.1l0,0l-0.1-0.7l0.1-0.1l0.2-0.1l0,0     l0.1,0l0.1,0l0.1,0l0.6,0.4l0,0l0,0l0,0l0,0.1l0,0.2l0,0.1l0,0l-0.1,0.7l0,0.1l0,0l0,0.1l0,0l0.1,0l0.1,0l0.7,0l0.1,0l0,0l0,0     l0-0.1l0.2-0.7l0.1-1.2l0-0.1l0,0l-0.1-0.8l0,0l-1-0.4l-0.2-0.1l-0.1,0l-0.3,0l0,0l0,0.1l0.2,0.1l0,0.1l-0.5,0.3l-0.1,0l-0.4,0.1     l-0.1,0l-0.2,0l-0.2,0l-0.1,0l-0.2,0l-0.1,0l-0.1,0.1l-0.1,0.1l-0.1,0.1l0,0l0,0.1l0,0.1l0,0.1l0.1,0.1l0,0l0.1,0l0.1,0l0.1,0     l0.1,0l0.1,0l0.1,0.1l0,0.1l0,0.1l0,0l-0.3,0.3l0,0l-0.1,0l-0.2,0l-0.6-0.1l-0.6-0.1l-0.2-0.1l-0.1,0l-0.2,0l-0.6,0.1l-0.5,0.2     l-0.1,0l-0.1,0.1l-0.1,0.1l-0.1,0.1l-0.1,0.1l-0.1,0.1l-0.1,0.1l-0.3,0.2l-0.1,0.1l-0.1,0l-3,0.1l-0.2,0l-0.1,0l-0.1,0l-0.2-0.1     l0,0l-0.4-0.3l0,0l0,0l0.3-0.5l0.1-0.1l0.1-0.1l0.1,0l0.3-0.1l0.2-0.1l0.4-0.2l0.2-0.1l0.1-0.1l1.2-1.1l0.1-0.1l0,0l0-0.1     l0.2-0.9l0-0.2l0,0l0-0.1l0-0.1l0-0.1l0-0.1l0-0.1l0.1-0.5l0-0.1l0.1-0.2l0.1-0.2l0,0l0.1-0.2l0-0.1l0-0.1l0-0.2l-0.1-0.6     l-0.1-0.4l0-0.3l0-0.1l0.1-0.7l0-0.1l0.1-0.1l0,0l0.1,0l-0.2-0.4l-0.6-0.8l-0.1-0.1l-0.2-0.1l-1-1L411,227l-0.1-0.1l-0.1-0.1     l-0.1-0.1l-0.2-0.7l-0.1-0.2l-0.1-0.3l0-0.1l0-0.1l-0.6-0.9l-0.5-0.6l0,0l-0.1-0.1l-0.1,0l-0.1,0l-0.1,0.1l0,0l-0.5,0.9l0,0.1     l0,0.1l0,0.1l0,0l0,0l0,0l0.1,0l0,0l0,0l0,0.1l0,0.1l-0.1,0.3l0,0l-0.3,0.2l-0.2,0.1l-0.3,0.2l-0.1,0.1l-0.1,0.1l-0.1,0.1     l-0.3,0.8l0,0.1l0,0.6l0,0l0,0l0,0.5l-0.1,0.5l-0.4,1l-0.1,0.1l-0.1,0.1l-0.1,0.2l-0.6,1.6l0,0.4l0,0.1l0,0.2l0,0.1l-0.1,0.1     l-0.5,0.4l0,0l-0.1,0l-0.2,0l-0.1,0l-0.1,0l-0.1-0.1l-0.3-0.2l-0.2-0.1l-0.1,0l-0.3-0.1l-0.6-0.1l-0.2,0l-0.3,0.1l-1.7,0.5     l-0.1,0l-0.1,0.1l-0.1,0.1l0,0.1l-0.1,0.1l-0.1,0.1l-0.1,0.1l-0.1,0.1l-0.1,0l-0.1,0l-0.2,0l-0.2,0l-0.3-0.1l-0.1,0l-0.1,0     l-0.2,0l-0.1,0l-0.1,0.1l-0.3,0.2l-0.1,0.1l-0.1,0.1l-0.1,0.1l-0.4,0.1l-0.1,0l-0.3-0.1l-0.3-0.3l0-0.1l0.2-0.4l0.1,0l0.1,0     l0.1,0l0.1-0.1l0,0l0.4-0.4l0.2-0.4l0-0.1l0-0.1l0-0.2l0-0.1l0,0l-0.1-0.1l0.2-0.8l0.1-0.1l0.3-0.5l0,0l0.1,0l0.1,0l0.2,0.1     l0.2,0.1l0.2,0.1l0.1,0l0.1,0l0.1,0l0.4-0.1l0.1,0l0.7-0.1l0.1,0l0.1,0l0,0l0,0.1l0,0.1l0,0l0.7,0.3l0.2,0l0.2-0.1l0.1-0.1     l0.1-0.1l0.1-0.1l0-0.1l0.4-2.2l-0.2-1.7l0.1-1.7l-0.1-0.4l-0.1-0.4l0-0.1l-0.1-0.2l0-0.1l0,0l0-0.1l0,0l0.1,0l0.1,0l0.1,0     l0.2,0.1l0.1,0l0,0l0.2-0.4l0,0l0.1-0.3l0.4-1l0.1-0.6l0-0.1l0.3-0.3l1.3-1.4l0.1-0.1l0.9-0.8l0.1-0.1l0.1,0l0,0l0.2,0l0.1-0.2     l0-0.1l0-0.1l-0.1-0.4l-0.2-0.6l-0.6-1.1l-0.3-0.3l0,0l0-0.1l0.1-0.4l0.1-0.1l0.1-0.1l0,0l0.1-0.1l0.5-0.3l0.5-0.2l0.5,0l0.1,0     l0.1,0l0.1-0.1l0.1-0.1l0,0l0-0.1l-0.1-0.4l-0.2-0.4l0,0l-0.1-0.1l-0.1,0l-0.2,0l-0.1,0l-0.1-0.1l0-0.1l-0.5-2l-0.5-0.9l-0.1-0.5     l-0.1-0.5l0-0.1l0,0l-0.4-0.4l-0.1,0l0,0l0,0.1l0,0.1l0,0.2l0,1l0,0.1l0,0l0,0l0.1,0l0,0l0.1,0.1l0.1,0.1l0,0l0.1,0.1l0,0.9     l0,0.1l-0.2,1.2l0,0l0,0l-0.1,0l-0.4,0l-1.2,0.3l-1,0.9l-0.4,0.6l-0.5,0.9l-0.1,0.1l0,0.1l0,0.2l0,0.1l0,0.2l0,0.1l0,0.1     l-0.1,0.3l0,0.1l0,0.1l-0.7,1.1l-0.1,0.1l-0.4,0.7l-0.2,0.2l-0.4,0.3l-0.1,0.1l-0.1,0l-0.2,0l-0.9,0.1l-0.1,0l-0.1,0l0,0l0,0l0,0     l-0.3-0.1l0-0.1l0,0l0,0l-0.1,0l-0.1,0l-0.1,0l0,0l0,0l-0.5,0.6l0,0l0,0.1l0,0.1l0,0l0,0l0,0l0.1,0l0.1,0l-0.4,0.3l-1.9,0.8     l-0.7,0.4l-1.5,1l-0.1,0.1l-0.4,0.3l-0.1,0.1l0,0l0,0.1l0,0.1l0,0.1l0,0.1l-0.3,0.5l0,0.1l-0.1,0.1l-0.4,0.7l-0.1,0.1l-0.1,0.1     l-0.2,0.3l-0.1,0.1l0,0l-0.1,0l-0.1,0l-0.3,0.1l-0.1,0l-0.1,0.1l-0.1,0.1l0,0l-0.7,1.1l0,0l-0.6,0.3l-0.1,0l-0.2,0.1l0,0     l-0.1,0.1l-0.5,0.9l-0.7,1.6l0,0.1l0,0l0.1,0l0.1,0l0.3,0l0.2,0l0.1-0.1l0.1-0.1l0.4-0.3l0.3-0.3l0.1,0l0.1,0l0,0l0,0l0,0.1     l0,0.3l-0.1,1.8l0,0.1l-0.1,0l-0.3,0.1l0,0h-0.1l-0.1-0.1l-0.1-0.2l0-0.1l0-0.1l0,0l0,0l-0.7-0.6l-0.2-0.1l-0.2-0.1l-0.2-0.1     l-0.2,0l-0.1,0l-0.1,0l-0.1,0l0,0l-0.1,0.1l-0.1,0.1l0,0.1l0,0.2l-0.1,0.4l0,0l0,0l-0.1,0l-0.1,0L386.8,231.2z" fill="hsl(230, 100%, 61%)" stroke="hsl(0, 0%, 91%)"/>
        <path d="M367.6,207.1L367.6,207.1l-0.1-0.1l0-0.1l0,0l0.2-0.2l0,0l0.6-0.2l0.3-0.1l0.1,0l0,0l0,0l-0.4,0.3L368,207     l-0.2,0.1L367.6,207.1z" fill="hsl(230, 100%, 61%)" stroke="hsl(0, 0%, 91%)"/>
        <path d="M376,220.5L376,220.5l0.1-0.6l0,0l0.5-0.1l0.1,0l0,0.1l0.1,0.2l0,0l0,0.1l0,0l-0.6,0.3L376,220.5L376,220.5z     " fill="hsl(230, 100%, 61%)" stroke="hsl(0, 0%, 91%)"/>
        <path d="M402.4,227.4L402.4,227.4L402.4,227.4l-0.1-0.1l0-0.1l0-0.1l0,0l0.1-0.2l0,0l0,0l0,0l0,0.1l0,0l0,0.1l0,0.1     l-0.1,0.1l-0.1,0.1L402.4,227.4L402.4,227.4z" fill="hsl(230, 100%, 61%)" stroke="hsl(0, 0%, 91%)"/>
        <path d="M391.8,232.4l-0.3-0.1l0,0l-0.7-0.9l0-0.1l0-0.1l0.1-0.1l0.1,0l0,0l0,0l0.1,0.1l0.6,0.7l0,0l0,0l0.1,0.3     l0,0.1l0,0L391.8,232.4L391.8,232.4z" fill="hsl(230, 100%, 61%)" stroke="hsl(0, 0%, 91%)"/>
        <path d="M394.2,233.2l-0.1,0l0,0l0-0.1l0,0l0.2-0.2l0.1,0l0,0l0.1,0.1l0.1,0.2l0,0.1l0,0L394.2,233.2z" fill="hsl(230, 100%, 61%)" stroke="hsl(0, 0%, 91%)"/>
        <path d="M408.1,238.4l0.5,0.1l0.1,0l0.2,0.1l0.1,0.1l0.4,0.5l0,0.5l-0.6,0.5l0,0l-0.1,0l-0.1,0l-0.4-0.1l-0.1,0     l-0.2-0.1l-0.3-0.1l-0.1,0l-0.8-0.1l-0.3,0l-0.2,0l-0.1,0l-0.1,0l-1.2,0.5l-0.1,0.1l0,0l0,0.1l0,0.1l0,0.1l0.1,0.1l0,0l0,0.1     l0,0.1l0,0.1l0,0.1l-0.1,0.1l-0.2,0.1l-0.9,0.4l-0.2,0.1l-0.1,0l-0.1,0l0,0l-0.4-0.3l-0.1-0.1l-0.2-0.2l-0.1-0.1l0,0l-0.1,0     l-1.1-0.1l-0.1,0l-0.2,0l-0.1,0l0,0l0,0l0,0.1l0,0.1l0,0.2l0,0l-0.1,0.1l-0.1,0l-0.1,0l-1-0.1l-1.2,0.2l-1.4,0.1l-0.3,0l-0.3-0.3     l-0.1-0.1l-0.6-0.4l-0.3-0.2l-0.4-0.2l0,0l0,0l0-0.2l0-0.1l0.3-0.9l0,0l0,0l0,0l0.1,0l0.2,0l2.8-0.6l0.3-0.1l0.5,0l0.1,0l0.1,0     l0.1,0l0.3,0l0.5-0.1l1-0.3l0.8-0.3l0.1,0l0.1,0l0.1,0l1.7,0.1l0.5,0.4l0,0.7l0,0.1l0.1,0.1l0.1,0l0.8,0.1l0.8,0.4l0,0.1l0,0     l0.1,0l0.1,0l0.2,0l0.2,0l0,0l0.1-0.1l0.1-0.1l0.1-0.1l0.1-0.1l0.2-0.3L408.1,238.4z" fill="hsl(230, 100%, 61%)" stroke="hsl(0, 0%, 91%)"/>
      </g>
      <g id="Australia:Tasmania_State">
        <path d="M493.6,272.8L493.6,272.8l0.1-0.4l0,0l0.1,0l0.1,0l0,0l0,0.1l-0.1,0.3l0,0.1l0,0l-0.1,0L493.6,272.8     L493.6,272.8z" fill="hsl(230, 100%, 61%)" stroke="hsl(0, 0%, 91%)"/>
        <path d="M494.3,272.9L494.3,272.9L494.3,272.9l-0.1,0l-0.3-0.1l0-0.1l0.1-0.1l0.1-0.1l0.2-0.1l0.1,0l0.1,0l0.1,0.1     l0,0l0,0.1l0,0L494.3,272.9L494.3,272.9L494.3,272.9z" fill="hsl(230, 100%, 61%)" stroke="hsl(0, 0%, 91%)"/>
        <path d="M462.7,278.8l-0.2-0.1l0,0l0,0l-0.1-0.4l0.1-0.1l0.1,0l0,0l0-0.6l0-0.1l0-0.1l0,0l-0.1-0.1l-0.2-0.1L462,277     l0,0l0,0l0-0.1l0-0.5l0.2-1.5l0,0l0.1-0.1l0.3-0.1l0.2-0.1l0.1-0.1l0.1-0.1l0.1-0.1l0,0l0-0.1l0-0.1l-0.1-0.2l0-0.1l0-0.1l0,0     l0.1,0l0.3-0.1l0.1,0l0.1,0l0.7,0.3l0,0l0.4,0.4l0,0.1l0.1,1.3l0.2,1l0,0l0,0.1l-0.1,0.4l0,0l-0.3,0.4l0,0l-0.9,0.5l-0.5,0.2     L462.7,278.8L462.7,278.8z" fill="hsl(230, 100%, 61%)" stroke="hsl(0, 0%, 91%)"/>
        <path d="M501.2,280l-0.1,0l-0.3-0.1l-0.1-0.1l-0.1-0.1l0,0l-0.2-0.6l0-0.1l0-0.1l0,0l0-0.1l-1.1-1.5l-0.8-0.5l-0.1,0     l0,0l-0.3-0.2l-0.1-0.1l0,0l0,0l0.2-0.2l0.9-0.9l0.4-0.2l0.4-0.1l0,0.1l0.1,0.1l0.8,0.9l0.9,0.8l0.1,0.1l0.1,0.1l0,0l0.1,0     l0.3,0.1l0.1,0l0.3,0l0.1,0.3l0.4,1.8l0,0.2l0,0.1l-0.1,0.1l-0.1,0l-0.1,0l-0.1,0l-1.1,0.2l-0.4,0.2L501.2,280z" fill="hsl(230, 100%, 61%)" stroke="hsl(0, 0%, 91%)"/>
        <path d="M503.3,281.8l0-0.1l0-0.1l0,0l-0.1,0l-0.2,0l-1.5,0.1l-0.1,0l-0.1,0.1l-0.1,0l-0.1,0l-0.1,0l-0.6-0.2l0,0     l0-0.1l0-0.2l0-0.1l0.1-0.1l0,0l0.5-0.3l0.1,0l0.1,0l0.1,0l0.2,0l0.1,0l0.1,0l0.3,0.1l0.1,0l0.1,0l0.1,0l0.8-0.3l0.2-0.1l0.2-0.1     l0.1,0l0.1,0l0,0l0.1,0.1l1.1,1l0,0l0,0.1l0,0l-0.1,0l0,0l0,0l-0.4,0.2l-0.1,0l-0.4,0.2l-0.2,0.1L503.3,281.8z" fill="hsl(230, 100%, 61%)" stroke="hsl(0, 0%, 91%)"/>
        <path d="M471.5,281.9l-0.1,0l0,0l-0.1-0.1l-0.1-0.2l0.4-0.5l0,0l0.1,0l0.6,0.1l0.1,0l0.1,0.1l0,0l0,0.1l-0.1,0.4     l-0.1,0l-0.5,0.1L471.5,281.9z" fill="hsl(230, 100%, 61%)" stroke="hsl(0, 0%, 91%)"/>
        <path d="M470.3,283L470.3,283l-0.2-0.2l0-0.1l0-0.6l0.5-0.8l0,0l0.1,0l0,0l0,0.5l0,0.2l0,0.1l-0.2,0.6l-0.1,0.2l0,0     L470.3,283L470.3,283z" fill="hsl(230, 100%, 61%)" stroke="hsl(0, 0%, 91%)"/>
        <path d="M501.8,283l-0.5-0.2l0,0l-0.2-0.2l0,0l0,0l0.4-0.2l0,0l0.6,0l0.1,0.2l-0.2,0.6l0,0.1l0,0l-0.2,0L501.8,283z" fill="hsl(230, 100%, 61%)" stroke="hsl(0, 0%, 91%)"/>
        <path d="M471.6,284.2L471.6,284.2L471.6,284.2l-0.1-0.1l0-0.4l0-0.1l0.5-0.5l0,0l0.1,0l0.6,0.5l0.2,0.3l-0.8,0.2     L471.6,284.2L471.6,284.2z" fill="hsl(230, 100%, 61%)" stroke="hsl(0, 0%, 91%)"/>
        <path d="M489.8,310.9l-0.3,0.1l-0.1-0.2l0,0l0,0l-0.1,0l-0.1,0l-0.2,0l-0.1,0l-0.7-0.1l-0.8-0.4l-0.1-0.1l-0.7-0.1     l-2-0.1l-0.1,0l-0.1-0.1l-0.1-0.1l0-0.1l0-0.1l0,0l0,0l0,0l-0.2,0l-0.1,0l-1,0.2l-0.1,0l-0.6-0.2l-1-1.1l0,0l0-0.1l0,0l0.5-0.2     l0.9,0.1l0.1,0l0.1,0l0.1,0l0.4,0.2l0.6,0.1l0.1,0l0,0l0-0.1l0-0.5l0,0l-0.6-0.4l-0.1,0l-0.1,0.1l-0.1,0.2l0,0.1l-0.1,0.1l-0.1,0     l-0.1,0l-2.3-0.2l-0.1,0l-0.1-0.1l-0.1-0.1l-0.7-1l-0.3-0.5l-1.2-1.4l-0.1-0.1l-0.1,0l-0.1,0l-0.1,0l-0.1,0l-0.1,0l-0.2,0.1     l-0.1,0l-0.1,0l0,0l0,0l-0.3-0.5l-0.3-0.5l0,0l-0.2-0.6l-0.4-1l0,0l0,0l-0.4-0.3l-0.4-0.1l-0.1,0l0,0l0-0.1l-0.2-1.4l-0.3-1.3     l0-0.1l0.1-0.5l0.2-0.2l0.2,0.3l0.1,0.1l0.6,0.4l0.5,0.3l0.4,0.2l0.1,0.1l0.1,0.1l0,0.1l0,0.1l0,0.1l0,0.3l0,0.2l0.1,0.3l0,0.1     l0,0l0.1,0.1l0.1,0l0.7-1.5l0-0.1l0-0.1l-0.4-0.2l-0.1,0l-0.1,0l-0.1,0l0,0l-0.2,0l-1.6-1.3l-0.2-0.3l0-0.2l0-0.1l0-0.1l0-0.2     l0-0.1l-0.1-0.3l-0.1-0.1l-0.5-0.8l0,0l-1.2-0.8l-0.9-1.2l-0.9-1.5l-0.7-1.4l-0.5-0.8l-0.4-0.7l0,0l0-0.1l0,0l0,0l0-0.1l0-0.1     l0-0.1l-0.2-0.9l0-0.1l0,0l-0.1-0.2l-0.2-0.1l-0.2-0.9l0,0l0.2-0.2l0,0l0.2,0l0.1,0l0.1-0.1l0,0l0-0.1l0-0.2l0-0.3l-0.1-0.6     l0.6-0.3l2,0.2l0.1,0l0,0l0.4,0.3l0.3,0.2l0.1,0.1l0.2,0.1l0.2,0l1.4-0.2l0.5,0.3l0.2,0.1l1.8,0.4l1.9,0.9l1.1,0.5l2.7,1l0.2,0.1     l0.1,0l0.3,0l1.3,0.1l0.3,0l0.1,0l0.3,0l0.1,0l0.3-0.1l0.2-0.1l0.5,0.3l0.2,0.1l0-0.3l0-0.1l0,0l0.7-0.5l0,0l0.5-0.2l0.2,0l0.2,0     l0.1,0l0,0l0,0l0,0l0.1,0.2l0.1,0.2l0,0.1l-0.1,0.1l0,0.1l0,0l0.1,0l0.1,0l0.4,0l0.8,0l0,0l0,0l-0.2-0.2l-0.1-0.1l0,0l-0.1,0     l-0.1,0l-0.2,0l-0.2,0l-0.1,0l-0.1-0.1l0,0l0,0l0-0.1l0-0.3l0-0.1l0,0l0.3-0.2l0.1,0l0.1,0l1.3-0.4l0.1,0l0.6,0.1l0.2,0.1     l0.2,0.1l0.1,0l0.2,0l0.2,0l0.2-0.1l1.4-0.2l0.5,0.4l0.5-0.1l0.2-0.1l0,0l0.1-0.1l0.2-0.2l0.2-0.3l0.3-0.4l0-0.1l0.1-0.2l0,0     l0.2-0.1l0.1,0l0.5-0.1l0.1,0l0.1,0.2l0,0l0.1,0.1l0,0l0.8,0.2l0.1,0l0.2,0l0.1,0l0.2-0.1l0.2-0.1l0.1-0.1l0.1-0.1l0.1-0.2     l0.1-0.1l0.1-0.1l0.1-0.1l0-0.1l0-0.2l0-0.1l0.1-0.1l0,0l0,0l0.1,0l0.2,0l0.2,0l0.5,0.2l1.3,0.7l0,0l0.5,0.5l0.3,0.5l0.1,0.1     l0.1,0.1l0.1,0.1l0,0.1l-0.2,0.7l-0.1,0.3l-0.1,0.1l-0.1,0.1l-0.1,0.2l0,0.1l0,0.1l0,0.2l0,0.2l0,0l0.1,0.1l0.2,0.2l0.1,0.1     l0,0.1l0,0.6l-0.3,0.8l-0.1,0.2l0,0l0,0.1l0.1,0.6l0,0.1l0,0.1l0.1,0.1l0.1,0.1l0.1,0.1l0,0.1l0,0.1l0,0.1l-0.2,1l-0.2,0.4     l-0.1,0.1l0,0.2l0,0.1l0.3,2l0.1,0.2l0.1,0.1l0.1,0.1l0.1,0.1l0.1,0.1l0.1,0.1l0,0l0,0l0,0.9l0,0.1l0,0l-0.1,0.2l-0.1,0.1     l-0.1,0.1l-0.1,0l-0.1,0l-0.3-0.2l0-0.2l0.2-0.1l0.1-0.1l0,0l0-0.1l0.1-0.5l-0.6-1.3l0,0l-0.3-0.4l0,0l-0.1,0l-0.1,0l0,0     l-0.9,1.5l0,0l0,0.1l-0.7,3.7l0,0l-0.4,0.3l-0.1,0l-0.1,0.5l0.1,0.4l0,0.2l0,0.4l-0.2,0.2l-0.1,0.1l-0.1,0.1l-0.1,0.1l-0.1,0.1     l-0.1,0.1l-0.3,0.9l0,0.1l0,0l0.1,0.1l0.1,0l0.1,0l0.2,0l0.1,0l0,0l0,0l-0.1,0l-0.1,0l0,0l-0.1-0.1l0,0l0-0.1l0,0l0.1-0.1l0.1,0     l0.1,0l0.1,0l0.4,0.2l0.1,0l0,0l0.2,0.3l0,0l0.1,0.6l0,0l0,0l-0.2,0.1l-0.1,0l0,0l-0.1,0.1l0,0l-0.1,0.6l0,0.1l0,0l0.2,0.4     l0.2,0.4l-0.1,0.5l0,0.1l0,0l-0.1,0l-0.1,0l-0.1,0l-0.1,0l-0.5-0.3l0,0l0,0l0-0.1l0-0.1l-0.6,0.3l-0.3,0.4l-0.8-0.8l-0.6-0.9     l-0.1-0.4l0-0.1l0,0l0.5-0.6l0,0l0,0l0.1,0l0.2,0l0.1,0l0.1,0.1l0.1,0.1l0,0.1l0,0.1l-0.1,0.1l-0.1,0.1l0,0.1l0,0l0.4,0.2l0.1,0     l0.1,0.1l0.1,0l0.1,0l0.2,0l0.4-0.1l0.1,0l0.2-0.1l0,0l0,0l-0.7-0.8l-2-0.9l-0.1,0l-0.1,0l-0.1,0l-0.2,0l-0.4,0.2l-0.1,0.1l0,0     l0,0.1l0.2,0.5l0.1,0.1l0.1,0.1l0.1,0.2l0,0l0,0.1l-0.2,0.3l-0.1,0.1l-0.1,0l-0.3,0.1l-0.4,0.1l-0.1,0l-0.1,0l0,0l-0.1-0.3l0-0.1     l0-0.1l0,0l0.1,0l0.1,0l0.1,0l0,0l-0.2-1l-0.5-0.3l-0.3-0.1l0.3,0.5l-0.1,0.4l-0.1,0.5l-0.3,0.2l-0.2,0.3l-0.2,0.7l0,0.1l0,0.1     l0,0.1l0,0.1l0.2,0.3l0,0.1l0,0.1l0,0.2l-0.1,0.3l0,0.1l0,0l0,0l-0.2,0.1l-0.1,0l-0.1,0l-0.2,0l-0.1,0l-0.7-0.3l-0.5-0.4     l-0.1-0.1l-0.1-0.1l0,0l0-0.1l0-0.2l0-0.2l0,0l-0.1-0.1l0,0l-0.1,0l0,0l-0.1,0.1l-0.1,0.1l0,0l0,0.2l0,0.1l0,0.1l0,0.1l0,0     l0.2,0.1l0.1,0.1l0.1,0.1l0.2,0.1l0.3,0.2l0.3,0.2l0,0l0,0l0,0.1l0,0l-0.4,0.6l-0.5,0.5l0,0l-0.4,0.9l-0.1,0.6l0,0.1l-0.1,0.1     l-0.1,0.1L489.8,310.9z" fill="hsl(230, 100%, 61%)" stroke="hsl(0, 0%, 91%)"/>
        <path d="M502.5,298.9L502.5,298.9l-0.1-0.2l0-0.1l0,0l0.1,0l0.1,0l0.4,0.1l0.2,0.1l0,0l0.1,0.3l0,0l0,0l0,0l-0.1,0     L502.5,298.9z" fill="hsl(230, 100%, 61%)" stroke="hsl(0, 0%, 91%)"/>
        <path d="M500.3,302.6l0-0.7l0-0.2l0-0.1l0,0l0,0l0.5-0.3l0.1,0l0.4,0l0.1,0l0,0l0.4,0.6l0,0.1l0,0l0,0l-0.1,0l-0.1,0     l-0.5,0l-0.5,0.6l-0.3,0.2L500.3,302.6z" fill="hsl(230, 100%, 61%)" stroke="hsl(0, 0%, 91%)"/>
        <path d="M493.7,306.6l0-0.1l0.3-0.4l0,0l0.2-0.2l0.1,0l0.3,0.4l0,0l0.3,0.8l0,0.1l0,0.2l0,0.1l-0.6,0.1L493.7,306.6z     " fill="hsl(230, 100%, 61%)" stroke="hsl(0, 0%, 91%)"/>
        <path d="M493.2,309.6l-0.6,0.1l-0.5-0.7l0.6-0.6l0.9-0.8l0,0l0.1,0l0.1,0.1l0.5,1l0,0.1l0,0.1l-0.4,0.9l0,0l-0.1,0.1     l-0.1,0L493.2,309.6z" fill="hsl(230, 100%, 61%)" stroke="hsl(0, 0%, 91%)"/>
      </g>
      <g id="Australia:Queensland_State">
        <path d="M446.4,4L446.4,4L446,3.6l0,0l0-0.1l0.1-0.2l0.3-0.4l0,0l0,0l0.1,0l0.1,0l0,0l0.2,0.2l0.1,0.1l0.1,0.1l0,0.1     l0,0.1l0,0.4l0,0l0,0L446.7,4l0,0l0,0L446.4,4L446.4,4z" fill="hsl(230, 100%, 61%)" stroke="hsl(0, 0%, 91%)"/>
        <path d="M447.1,4.5L447.1,4.5L447,4.4l-0.1-0.2l0.2-0.4l0,0l0.1-0.1l0.1,0l0.5-0.1l0.1,0l0.3,0.1l0.1,0.2l0.1,0.2     l0,0.1l-0.4,0.5l-0.1,0.1l0,0L447.1,4.5z" fill="hsl(230, 100%, 61%)" stroke="hsl(0, 0%, 91%)"/>
        <path d="M447.9,7.3L447.9,7.3l-0.1-0.1l0,0L448,7l0.1,0.1l0,0.1l0,0l0,0.1l0,0l0,0L447.9,7.3L447.9,7.3z" fill="hsl(230, 100%, 61%)" stroke="hsl(0, 0%, 91%)"/>
        <path d="M447.3,7.2L447.3,7.2l-0.1,0.3L447,7.6l0,0l0,0l0-0.1l0-0.1l0.1-0.1l0,0l0.2-0.2l0.1,0L447.3,7.2L447.3,7.2z     " fill="hsl(230, 100%, 61%)" stroke="hsl(0, 0%, 91%)"/>
        <path d="M448.1,7.9L448.1,7.9l0,0.1L448,8.1l-0.1,0.1l-0.2,0.1l-0.1,0l-0.1,0l0,0l0,0L447.4,8l0-0.1l0-0.1l0-0.1     l0-0.1l0,0l0,0l0,0l0.1,0l0.2,0l0.1,0l0,0l0.1,0l0.1,0.1L448.1,7.9L448.1,7.9z" fill="hsl(230, 100%, 61%)" stroke="hsl(0, 0%, 91%)"/>
        <path d="M446.5,9.2l-0.3-0.3l0-0.1l0-0.1l0-0.4l0-0.1l0,0l0,0l0,0l0.5-0.2l0.4-0.1l0.4,0.7l0,0.4l-0.1,0L447.1,9l0,0     l0,0L447,9.1l-0.1,0.1l-0.1,0.1L446.5,9.2z" fill="hsl(230, 100%, 61%)" stroke="hsl(0, 0%, 91%)"/>
        <path d="M436,176.3l0-1.8l0-5.1l0-14.8l0-5.5l-12.2,0l-8.9,0l-3.7,0h-2.7l0-0.3l0-9.2l0-5.2l0-3.7l0-1.8l0-3.4l0-1.5     l0-1.8l0-3.1l0-0.9l0-3.1l0-1.8l0-8.3l0-4l0-1.5l0-4.3l0-25.1l0-0.9L409,63l0.5,0.4l0.3,0.2l0.4,0.3l0.1,0l0.8,0.3l1.3,0.3     l0.3,0.1l0.2,0l0.2,0l0.7,0l0.4,0l0.1,0l0.1,0l0.1,0.1l0.2,0.2l0.1,0.1l1.3,0.5l0.1,0l0.2,0l0.4,0l0.2,0l0.4,0l0.1,0l0.1,0     l0.1,0.1l0.1,0.1l0.1,0.1l1,1.4l0,0.4l0,0.1l0,0.1l0,0.1l0,0.1l0.1,0.3l0.4,0.7l0.1,0.1l0.1,0.1l0.2,0.2l0.1,0.1l0.2,0.1l0.4,0.1     l0.1,0l0.2,0l0.2,0l0.1,0l0.1,0l0.1,0l0.1,0l0.8,0.5l0,0l0.1,0.1L423,71L423,71l0.2,0.2l0.1,0.1l0.1,0.1l0.1,0l0.2,0l0.3,0.1     l0.5,0.1l0.3,0.1l0.3,0l0.6,0.4l0.6,0.4l0.1,0.2l0.1,0.1l0,0l0.1,0.1l0.1,0l0.2,0.1l0.3,0l0.1,0l0.6,0l2.2-0.4l0.2-0.1l0.9-0.3     l0.4-0.2l0.7-0.4l0.1-0.1l0.1-0.1l0.2-0.2l0.9-0.6l0.2-0.1l0.1,0l0.1,0l0.2,0l0.1,0l0,0l0.2-0.4l0.2-0.3l0.1-0.2l0.5-1.9l0.1-0.5     l0-0.2l0-0.1l0,0l-0.1-0.2l0-0.1l0-0.1l0-0.1l0.1-0.1l0.1-0.2l0.7-0.9l1.1-1.4l0.1-0.1l0.1-0.2l0.2-0.3l0-0.1l0.5-1.1l0.2-0.4     l0.1-0.2l0-0.2l0-0.1l0-0.1l0-0.1l0,0l0.2-0.7l0.1-0.2l0.2-0.7l0.6-1.4l0.1-0.2l0,0l0-0.1l0-0.1l-0.2-1.4l0.2-1.5l0.1-0.6l0-0.2     l0.2-1.1l0.1-0.3l0.9-2.1l0.6-1.2l0,0l0.3-1l0-0.2l0-0.1l0-0.1l-0.2-0.4l-0.1-0.2l-0.1-0.1l0-0.1l-0.1-0.1l-0.1-0.2l-0.3-0.9     l0-0.1l-0.4-2.5l0-0.1l0-0.2l0-0.1l0.1-0.4l0.1-0.2l0.2-0.5l0.2-0.4l0-0.1l0-0.1l0-0.2l0-0.5l0-0.4l0-0.2l0-0.2l0-0.1l-0.1-0.2     l-0.1-0.1l-0.2-0.2l-0.2-0.2l-0.1-0.1l-0.1-0.2l-0.2-0.3l0-0.1l0-0.1l0-0.2l0-0.1l0-0.2l0-0.2l0-0.4l0-0.3l0.1-0.3l0.2-0.8     l0.1-0.3l0.1-0.3l0-0.2l0.2-0.6l0.1-0.3l0-0.1l0.1-0.1l0.4-0.7l0.6-1.2l0-0.1l0-0.1l0-0.1l0-0.1l0-0.1l0-0.1l0,0l0,0l-0.2-0.1     l0,0l-0.2-0.3l0,0l-0.4-1.4l0-0.1l0-0.1l0.1-0.2l0.1-0.2l0-0.1l0.2-0.2l0,0l0,0l0,0l0.1,0l0.1,0l0.5-0.3l0.1-0.1l0.1-0.1l0.2-0.3     l0.1-0.2l0.1-0.1l0-0.1l0.2-0.5l0-0.1l0-0.2l0-0.1l0.2,0.1l0,0l0,0l0,0l0.2,0.1l0,0l0,0l0,0l0,0l0.1,0.2l0.2,0.3l0,0.2l0,0.2     l0,0.2l0,0.1l0,0.1l0,0.1l0.4,0.5l0.1,0.1l0.1-0.3l0-0.1l0-0.1l-0.5-1.4l-0.4-0.3l-0.6-0.9l-0.4-0.5l-0.1-0.2l0.2-0.1l0.1-0.1     l0,0l-0.1-0.1l-0.2-0.1l-0.6-0.1l-0.1,0l0,0.1l-0.1,0.4l0,0.1l0,0.1l0,0l0,0l0.1,0l0.1,0.2l-0.5,0.2l-0.1,0l-0.2-0.1l0,0l0,0     l0-0.1l0-0.1l0.1-0.2l0.1-0.2l0.4-0.7l0.1-0.2l0.2-0.5l0.6-0.8l0.2-0.3l-0.1-0.3l0.4-1.1l0.1-0.1l0-0.1l0.1-0.1l0.2-0.3l0.1-0.1     l0.2-0.1l0.2-0.1l0.1,0l0,0l0,0l0,0l-0.1,0.1l0,0.1l0,0.1l0.2,0.9l0.9-0.2l0.1,0l0,0l0,0l0-0.1l0-0.1l0-0.1l0,0l-0.4-0.5l-0.1,0     l-0.1,0l-0.1-0.1l0,0l0,0l0,0l0,0l0-0.1l0-0.3l0.1-0.7l0.1-0.4l0,0l0.8-2.3l0.2-0.6l0.2-0.4l0.2-0.6l0-0.1l0-0.3l0.3-1.7l0-0.5     l0-0.3l0-0.1l0-0.1l0-0.1l0-0.1l-0.1-0.4l0-0.1l0-0.1l0-0.1l0,0l0.2-0.2l0.1-0.1l0,0l0.1,0l0.1,0l0.1,0l0.1,0l0.1,0l0.7-0.2     l0.3-0.1l0.1-0.1l0.5-0.6l0.1-0.1l0.1-0.2l0,0l0-0.2l0-0.1l0-0.2l0-0.1l0.1-0.2l0,0l0.7,0l0.3,0.1l0.5,0.2l0,0l0,0l0,0.1     l-0.2,0.3l-0.1,0l-0.1,0l0,0l-0.5,0.4l-0.1,0.1l0,0l0,0.1l-0.1,0.8l0,0l0,0l0,0l0,0l0.1-0.1l0.1-0.1l0.1-0.3l0-0.1l0-0.1l0.1-0.1     l0,0l0.1,0l0.1,0l0,0l0.1,0l0.1,0.1l0.9,0.7l0,0l0.1,0.2l0.1,0.1l0.3,0.8l0.1,0.1l0.1,0.7l0.5,1.8l0.1,0.2l0,0.1l0,0.1l-0.2,1     l0,0l0.1,1l0.1,0.9l0,0.2l-0.1,0.3l0,0.3l0,0.2l0,0l0,0.1l0.1,0.1l0.1,0.1L454,20l0.1,0.1l0.1,0l0.1,0l0.1,0l0.1,0l0.2,0l0.2-0.1     l0,0l0.1-0.1l0.1-0.1l0.4,0.1l0,0l0.6,0.7l-0.3,0.5l-0.1,0.2l-0.4,0.7l-0.2,0.8l-0.1,0.6l0,0.2l0,0.2l0,0l0,0l0.4,0.1l0.1,0     l0.1-0.1l0.1,0l0.1,0l0.1,0l0.2,0.1l0.1,0.1l0.1,0.1l0,0l0,0l0.2,0l0.1,0l0,0l0.2,0.2l0,0.1l0,0.3l0,0.1l0,0.1l0,0.1l0,0.1l0,0.1     l0,0.2l0,0l0,0.1l0.3,0.3l0.1,0.1l0.1,0l0.1,0l0.2,0l0.1,0l0.1,0l0.4,0.2l0,0l0.1,0.2l0,0l-0.2,0.5l-0.2,0.3l-0.1,0.1l-0.1,0.1     l0,0.1l0,0.1l0,0.2l0,0.1l0,0.3l0,0.1l0,0.1l0,0.2l0.4,0.1l0.1,0l0.6-0.1l0.3,0l0.1,0.2l0,1.1l0,0.4l0,0.2l0,0l0,0l0,0.1l0,0.2     l0.2,1.6l0,0.3l0,0.3l0,0.1l0,0.1l0,0l0.1,0.1l0.1,0l0.1,0l0,0l0.2,0.4l0,0.1l0,0.1l-0.1,0.8l-0.1,0.3l-0.2,0.7l-0.2,1l0,0.1     l0.1,0.4l0.5,1.2l0.1,0.2l0.2,0.2l0.1,0.1l0.1,0.1l0.1,0.1l0.1,0.1l0,0l0,0l0,0.1l0,0.3l0.1,0.6l0,0.1l0,0.2l0,0.1l0,0.1l0,0.1     l0.1,0.4l0.2,0.7l0.1,0.1l0.3,0.6l0.1,0.2l0.1,0.2l0.2,0.2l0.3,0.2l0.1,0.1l0.1,0l0.2,0l0.3,0l0.3,0l0.3,0l0.1,0l0,0l0.6-0.4     l0.1-0.1l0.5-0.5l1.7-0.7l0.4-0.2l0.4-0.2l0.1-0.1l0.1-0.1l0.1-0.2l0.1-0.1l0-0.1l0-0.2l0,0l0.3,0.1l0,0l0,0l0.4,0.5l0.2,0.2l0,0     l0,0l0,0.1l-0.1,0.2l0,0.1l0,0.4l0.4,1.1l0,0.1l0.5,0.6l0,0l1,0.4l0.4,0.1l0.1,0l0.1,0l0.1,0l0.2,0l0.1,0l0.1,0l0,0l0,0l0.1,0.1     l0.2,0.5l0,0.1l0.1,0.3l0,0.1l0.1,0.1l0,0l0.1,0l0.3,0.1l0.7,0.3l1.2,0.5l1,0.8l0,0.5l-0.1,0.1l-0.2,0.2l-0.1,0.2l-0.2,0.2     l-0.1,0.2l-0.1,0.2l0,0.2l0,0.2l0,0.2l0.4,0.6l0.1,0.4l0,0.2l-0.4,1.1l0.3,0.4l0.3,0.6l0.5,1.6l0,0.1l0,0.2l0,0.5l0,0.6l0,0.2     l0,0.1l0,0.1l0,0l0.1,0l0,0l0.1,0.1l0.1,0.1l0.1,0.2l0.3,0.6l0.1,0.1l0.1,0.3l0,0.1l-0.1,1.8l-0.1,0.1l-0.2,0.2l-0.1,0.1l0,0.1     l0,0.1l0,0.9l0,0.1l0,0.2l0,0l0.1,0.1l0.1,0l0.4,0.2l0.4,0.5l1,1.3l0.5,0.4l0.6,0.7l0.4,0.6l0,0l0.3,0.2l0.3-0.2l0,0l0.7-0.1     l0.1,0l0.1,0l0,0l0.1,0.1l0.1,0.1l0,0l0,0.1l0,0l0,0l-0.4,0.6l-0.1,0.2l-0.2,0.4l0,0l0,0.2l0,0.1l0,0l0.6,1l0.7,1.6l0.5,1.7     l0.2,1.2l0,0.1l-0.1,0.8l0.1,0.9l-0.1,0.6l0,0.1l-0.1,0.2l0,0l-0.1,0.1l0,0l-0.1,0.1l0,0.1l-0.2,0.4l-0.3,0.7l0,0.1l0,0.1l0,0.2     l0.1,0.6l0.1,0.3l0,0l1.7,2l0.1,0.1l0.3,0.1l0.3,0l0.3,0.1l0.1,0.1l0,0l0,0.1l0,0.2l0,0.5l0,0.2l0,0.1l-0.2,0.2l0,0.1l-0.1,0.2     l-0.1,0.3l0,0.2l-0.1,0.8l0,0.2l0,0.2l0,0l0.1,0.1l0.5,0.6l0,0l0.4,0.3l0.4,0.3l0.2,0.3l0,0.1l0,0l1,0.6l0.6,0.3l0.2,0.1l0.3,0.1     l0.2,0l0,0l0.2-0.1l0,0l0.1,0l0.1,0l0,0l0.1,0.1l0.4,0.5l0.5,0.5l0.1,0l0.1,0l0.6,0l1.1,0.3l0.4,0.4l0.2,0.1l1,0.2l1.5-0.1l0.1,0     l0,0l0.1-0.2l0-0.1l0-0.1l0-0.1l0,0l-0.1-0.1l-0.1-0.1l-0.2-0.2l0,0l0-0.1l0,0l0.1,0l0.1,0l0.2,0.2l0.3,0.4l0,0.1l0.8,1.5l0,0     l0.1,0.4l0.1,0.4l0.1,0.5l0.1,0.5l0.2,0.4l0,0.1l0.4,0.4l0,0l0.4,0.1l0.1,0l0.4,0l0-0.2l0-0.1l0-0.1l-0.1-0.5l0-0.3l0.1-0.1     l0.4,0l0.1,0l0,0l0.2,0.2l0,0l0,0.1l0,0.1l0,0.5l0,0.2l0,0.1l0.1,0.1l0,0l0.1,0.1l0.4,0.3l0.2,0.1l0.1,0l0.2,0l0.1,0l0.2,0l0.1,0     l0.8-0.1l1.1,0.3l0.5,0.4l0.3,0.4l0,0.1l-0.1,0l-0.1,0l-0.1,0l-0.1,0l0,0.1l0.1,0.2l0.5,0.6l0.6,0.5l0.1,0.1l0,0l0.4-0.2l0,0l0,0     l0.1-0.4l0-0.1l0,0l-0.1-0.1l-0.1-0.1l-0.1-0.1l0,0l0-0.1l0-0.1l0-0.1l0.1-0.1l0.1,0l0.1,0l0.6,0.2l0.4,0.3l0.7,0.6l0.3,0.3     l0.7,0.2l0,0l0,0l0.1,0l0,0l0,0l0,0l0.2,0.4l0.3,0.9l0,0l0,0.1l0.1,0.1l0.2,0.3l0,0l0.1,0.1l0,0l0.1,0l0.1,0l0.1,0l0,0l0.3,0.7     l0,0l-0.2,0l-0.3-0.1l-0.2-0.1l-0.2-0.3l-0.4-0.2l-0.5,0.2l-0.7,0.8l0.2,0.6l0.3,0.8l0,0.1l0,0l1.1,1.1l0.7,0.4l1,0.3l1.2,0.9     l0.5,0.6l-0.1,0.7l0.3,1.1l0.5,0.4l0,0.2l0.3,0.9l0.5,0.9l0.5,0.5l0,0.4l-0.1,1.2l0,0.1l0,0.1l0.4,1.2l0.5,1.5l0.6,1.4l0.6,0.8     l0.4,0.3l0,0l0,0.2l0,0.1l0,0.5l0,0.1l0,0.1l-0.3,0.2l-0.1,0.1l0,0.1l0,0l0.1,0l0,0l0.3-0.2l0,0l0.2-0.1l0.4-0.3l0,0l0,0l0.1-0.3     l0,0l0,0l0.1,0l0,0l0.1,0.1l1.2,1.3l0,0l0.1,0.1l0,0.1l0,0.1l0,0.1l0.5,0.4l0.1,0.1l0-0.1l0-0.1l-0.3-0.9l-0.2-0.6l-0.3-0.6     l-0.3-0.5l0-0.1l0-0.4l0-0.1l0.3-0.8l0.1-0.2l0.1-0.1l0.1-0.1l0,0l0.3-0.1l0.2,0l0.2,0.1l0,0l0.7,1l0.3,0.6l0,0.1l0,0.1l-0.1,0.1     l0,0.1l0.1,0.1l0.1,0.1l0,0l0.2,0.1l0.1,0l0.1,0l0.7,0.2l0.6,0.3l0.1,0l0.1,0.1l0,0l0.1,0.1l0.5,0.3l0.7,0.4l0.3,0.1l-0.5-1.1     l0,0l0-0.1l0-0.5l0-0.1l0.1-0.1l0.1-0.3l0.1-0.1l0.1,0l0.6,0.1l0.1,0l0,0l0,0l0.6,0.9l-0.1,0.5l-0.1,0l-0.1,0l0,0l0,0l0,0l0,0     l0,0.1l0.1,0.3l0.5,0.7l0.7,0.9l-0.1,0.5l-0.1,0.7l-0.2,1.1l-0.2,1.3l0,0.1l0,0.1l0,0l0.5,0.9l-0.1,0.6l-0.1,0.3l0,0.3l0,0.1     l0,0.1l0.6,1.1l0.6,0.4l0.1-0.1l0.1,0l0.5,0.1l0.1,0l0,0l0.1,0.2l0.1,0.3l0.6,0.4l0.1,0.1l0.1,0.3l0.1,0.1l0.1,0.4l0,0.2l0,0.1     l0,0.1l0,0l0.1,0.1l0.5,0.3l0.2,0l0.2,0l0.1,0l0.4,0.3l0.7,0.8l0.3,0.3l0.3,0.2l0,0l0,0l0.1,0l0.1,0l0.1,0l0.1,0l0.4,0.3l0,0     l0,0.1l0,0l0,0l-0.1,0.1l0,0.1l0,0.1l0,0.1l0,0l0.1,0.1l0.1,0l0.1,0l0,0l0.4-0.4l0-0.4l0-0.1l0,0l0,0l0,0l0.2-0.2l0.1,0l0.4,0.1     l1,1l0.9,0.8l0.2,0.1l0.2,0.2l0.1,0.1l0.1,0.1l0.3,0.9l0,0.1l0.1,0.2l0.1,0.3l0,0.1l0.1,0.1l0.1,0.3l0.3,0.5l0.7,0.9l0.1,0.1     l0.6,0.5l0.1,0.1l0.6,0.4l0.3,0.2l0.3,0.1l0.1,0l0.3,0l0.1,0l0.2,0.1l0.2,0.2l0.1,0.1l0.2,0.2l0.2,0.2l0,0.1l0.1,0.2l0,0.2l0,0.2     l0,0.1l0,0.2l0,0.3l0,0.1l0.1,0.2l0.2,0.3l0.3,0.5l1,1.4l0.1,0l0.4,0.1l0.8,0.2l0.1,0l0.4,0l0.4,0l0.1,0l0,0l0,0l0.3,1.3     l-0.1,0.8l0,0l-0.3,0.3l0,0l0.1,1.1l0.2,0.5l0.1,0.1l0.2,0.2l0,0l0.1,0l0.1,0l0.1,0l0.1,0l0,0l0,0l0,0l0.3,0.5l0,0l0.1,0.4l0,0.1     l0.2,0.1l0.3,0.1l0.8,0.4l0,0.2l-0.4,0.9l-0.3,1l-0.1,0.4l-0.2,0.7l0,0.2l0,0.2l0,0.1l0,0.1l0.1,0.1l0.1,0.1l0.1,1.2l0.1,1.4     l0,0.1l0,0.1l0,0l0.1,0l0.1,0.4l0.1,2.1l0,1.2l-0.5,0.1l-0.1,0.1l-0.1,0.1l-0.1,0.1l-0.1,0.1l-0.1,0.2l0,0.1l0,0.1l0.2,1.1l0,0.1     l0,0l0.1,0.1l0.1,0.1l0.8,0.5l0.7,0.8l0.1,0.2l0,0.1l0.3,0.9l0.1,0.4l0,0.2l0,0l0.5,0.7l0.2,0.2l0.1,0.1l0.2,0.6l0,0.6l-0.1,0     l-0.1,0.6l0.3,0.8l0,0.1l0.1,0.1l0.2,0.4l0,0l0.1,0.1l-0.3,0.2l-0.2,0.2l-0.2,0.1l-1,0.3l-0.1,0l-0.3,0l-0.8,0.1l-0.1,0.1     l-0.1,0.1l-0.2,0.3l-0.2,0.3l0,0l-0.1,0.1l-0.1,0.1l-1.4-0.1l-1.2,0.1l-0.1,0l-0.1,0l-0.3,0l-0.1,0l-1.5-0.3l-0.5-0.5l0,0     l-0.1-0.1l0,0l-0.1,0l-0.1,0l-0.1,0l-0.1,0l-0.1,0l-0.5,0.4l0,0l-0.1,0.3l0,0l-0.1,0.1l-0.2,0.1l-0.1,0l-0.1,0l-0.8,0.2l-0.9,0.3     l0,0l-1,0.4l-0.8,0.5l-0.1,0.1l0,0l0,0.1l0,0.1l0,0.1l0.4,0.6l0.1,0.1l0.4,0.8l-0.2,1.4l0,0.1l0,0l-0.1,0.1l-1.6,0.7l-0.1,0     l-0.4-0.2l-0.1,0l-0.1-0.1l-0.1-0.2l-0.1-0.3l0,0l-1.5,0.6l-0.1,0.1l-0.1,0.2l-0.1,0.2l-0.1,0.1l-0.1,0.2l0,0.1l-0.4,0.6     l-0.1,0.1l-0.4,0.4l-0.5,0.1l-0.1,0l-0.1,0l0,0l-0.1-0.1l-0.1-0.1l-0.3-0.6l-0.1-0.6l0-0.2l0-0.1l-0.1-0.6l0,0l-0.6-0.4l-1.6-1.3     l0,0l0,0l-2.2-0.9l-0.1,0l-0.1,0l-0.1,0l-0.1,0l-0.2,0.1l-0.3,0.1l-0.5,0.1l-0.1,0l-1.3,0l-0.2,0l-0.1,0l-0.5-0.3l-0.1-0.1     l-0.1-0.1l-0.1-0.1l-0.5-0.4l-0.1-0.1l-0.1,0l-0.1,0l-1.1,0.1l-0.2,0l-0.1,0.1l-0.1,0.1l-0.1,0.1l-0.1,0l-0.7,0.2l-0.2,0l-0.1,0     l-0.9,0l-1.7,0.2l-0.7-0.1l-0.1,0l0,0l0-0.2l-0.1-0.1l-0.1-0.1l-0.2,0l-0.3,0l-0.2,0.1l-0.4,0.1l-0.1,0l-0.1,0.1l-1.3,1.1     l-0.6,0.4l-0.9,0.7l-0.8,0.9l-0.1,0.1l-0.1,0.1l-0.1,0.1l0,0l-0.6,0.3l0,0l-3.1,0l-0.3,0l-11.9,0l-0.3,0l-8.3,0l-3.7,0l-3,0l-1,0     l-0.5,0l-7.2,0l-9.1,0l-0.4,0l-4.5,0l-0.3,0l-8,0l-2.3,0l-3.6,0l-4.6,0l-1,0H436L436,176.3z" fill="hsl(230, 100%, 61%)" stroke="hsl(0, 0%, 91%)"/>
        <path d="M418.9,64.3L418.9,64.3l0-0.4l0.2-1l0-0.1l0.5-0.7l0.5-0.4l0.1-0.1l0.2-0.1l0.1,0l1.2-0.1l0.3,0l0.5-0.3     l1.8,0.3l0,0l0,0.1l0,0.2l0,0.1l0,0.1l0,0.1l0,0l-0.4,0.2l-0.6,0.1l-0.4-0.3l-0.8,0.3l0.1,0.3l-0.5,0.8l0,0l-0.1,0.1l-1,0.4     l-0.9,0.2l-0.4,0.1L418.9,64.3L418.9,64.3z" fill="hsl(230, 100%, 61%)" stroke="hsl(0, 0%, 91%)"/>
        <path d="M418.4,65L418.4,65L418.4,65l0.3-0.2l0.1,0l0.1,0l0.1,0.1l0,0l0,0l-0.4,0.3l-0.2,0L418.4,65z" fill="hsl(230, 100%, 61%)" stroke="hsl(0, 0%, 91%)"/>
        <path d="M421.5,67.8l-0.1-0.1l-0.1-0.1l-0.1-0.2l0,0l0.9-0.8l0.3,0.2l0.1,0.1l0,0l0,0l0.2,0.6l-0.1,0.1l-0.1,0     l-0.4,0l-0.4-0.1l-0.1,0l-0.1,0l-0.1,0l-0.1,0.1l-0.1,0.1l0,0.1L421.5,67.8L421.5,67.8L421.5,67.8z" fill="hsl(230, 100%, 61%)" stroke="hsl(0, 0%, 91%)"/>
        <path d="M484,80.1L484,80.1l-0.1-0.1l-0.1-0.1l-0.1-0.1l0-0.1l0-0.1l0-0.2l0-0.1l0-0.1l0-0.1l-0.1-0.1l-0.3-0.4l0,0     l0,0l0,0l-0.2-0.1l-0.1,0l-0.1-0.1l-0.1-0.2l-0.1-0.2l0,0l0,0l0.1,0l0.2,0l0.1,0l0.9,0.3l0.4,0.3l0.8,1l0,0.1l0,0l-0.3,0.5     l-0.2,0.1l-0.1,0L484,80.1z" fill="hsl(230, 100%, 61%)" stroke="hsl(0, 0%, 91%)"/>
        <path d="M489.3,86.5L489.3,86.5l-0.3-0.3l0,0l0-0.1l0,0l0,0l0,0l0.7-0.1l0,0l0,0l0,0.1l0,0.1l0,0.3l-0.4,0.2     L489.3,86.5z" fill="hsl(230, 100%, 61%)" stroke="hsl(0, 0%, 91%)"/>
        <path d="M504.4,94.4L504.4,94.4l-0.1-0.1l0-0.4l0-0.1l0-0.1l0,0l0.1,0l0.1,0.1l0.2,0.3l0,0l-0.1,0.3l0,0l0,0     L504.4,94.4L504.4,94.4z" fill="hsl(230, 100%, 61%)" stroke="hsl(0, 0%, 91%)"/>
        <path d="M508.3,95.5L508.3,95.5l0-0.1l0-0.1l0.3-0.6l0,0l0,0l0.4-0.1l0.1,0l0,0l0,0.1l0,0.1l0,0.1l-0.2,0.6l0,0     l-0.1,0.2l-0.1,0.1L508.3,95.5z" fill="hsl(230, 100%, 61%)" stroke="hsl(0, 0%, 91%)"/>
        <path d="M509,96.7l0-0.7l0-0.4l0.1-0.1l0,0l0,0l0,0l0.1,0.3l0.4,0.8l-0.3,0.4l-0.3,0.1L509,96.7z" fill="hsl(230, 100%, 61%)" stroke="hsl(0, 0%, 91%)"/>
        <path d="M509.8,98.9L509.8,98.9L509.8,98.9l-0.1-0.1l0-0.1l0-0.1l0,0l0,0l0.3-0.1l0.1,0.1l-0.1,0.2l0,0l0,0     L509.8,98.9L509.8,98.9z" fill="hsl(230, 100%, 61%)" stroke="hsl(0, 0%, 91%)"/>
        <path d="M520.8,109.4L520.8,109.4l0-0.3l0.1-0.1l0.3,0.1l0.1,0l0,0l0,0l0,0.1l0,0l-0.2,0.1l0,0L520.8,109.4z" fill="hsl(230, 100%, 61%)" stroke="hsl(0, 0%, 91%)"/>
        <path d="M521.2,110.1L521.2,110.1l0.2-0.1l0.4,0l0,0l-0.1,0.2l0,0.1l0,0l0,0l0,0l-0.1,0L521.2,110.1z" fill="hsl(230, 100%, 61%)" stroke="hsl(0, 0%, 91%)"/>
        <path d="M517.5,114.5L517.5,114.5l-0.1-0.1l0-0.3l0-0.1l0.1-0.7l0.1-0.3l0,0l0.1-0.1l0.1-0.1l0,0l0,0l0.1,0l0.1,0.7     l0,0.1l-0.1,0.5l0,0.1l0,0l-0.1,0.2l0,0l0,0L517.5,114.5z" fill="hsl(230, 100%, 61%)" stroke="hsl(0, 0%, 91%)"/>
        <path d="M522.9,115.6L522.9,115.6l-0.2-0.4l0-0.1l0.1-0.6l0-0.1l0,0l0,0l0.1,0l0.1,0l0.1,0.1l0.5,0.6l0,0l0,0.1l0,0     l0,0l-0.3,0.3l-0.1,0.1l-0.2,0L522.9,115.6L522.9,115.6z" fill="hsl(230, 100%, 61%)" stroke="hsl(0, 0%, 91%)"/>
        <path d="M515.9,116.4L515.9,116.4l-0.1-0.1l0-0.3l0-0.3l0,0l0,0l0.1,0l0,0l0,0l0.2,0.2l0,0l-0.1,0.4l-0.1,0.1     L515.9,116.4L515.9,116.4z" fill="hsl(230, 100%, 61%)" stroke="hsl(0, 0%, 91%)"/>
        <path d="M527.2,123.4v-0.1l0-0.1l0,0l0.2-0.2l0,0l0.1,0l0,0l0,0.1l0,0.2l0,0.1l0,0l0,0H527.2L527.2,123.4z" fill="hsl(230, 100%, 61%)" stroke="hsl(0, 0%, 91%)"/>
        <path d="M529.7,128.8L529.7,128.8l-0.4-0.3l-0.1-0.1l-0.1-0.3l-0.2-0.4l-0.6-0.5l-0.2-0.3l-0.1-0.2l-0.1-0.3     l-0.1-0.6l0,0l0.4-0.1l0.1,0l0.6,0.3l0.7,0.4l0.2,0.3l0.6,1l0,0l0.1,0.6l0,0.1l0,0l-0.2,0.2l-0.1,0L529.7,128.8L529.7,128.8z" fill="hsl(230, 100%, 61%)" stroke="hsl(0, 0%, 91%)"/>
        <path d="M531.1,129.7L531.1,129.7L531.1,129.7l-0.4-0.6l0,0l-0.1-0.3l0-0.1l0-0.1l0,0l0.1,0l0,0l0.4,0.7l0.1,0.2     l0,0.2l0,0.1l0,0l0,0L531.1,129.7L531.1,129.7z" fill="hsl(230, 100%, 61%)" stroke="hsl(0, 0%, 91%)"/>
        <path d="M546.8,147.2L546.8,147.2l-0.2,0l-0.1-0.1l0,0l-0.4-0.4l0-0.1l-0.4-1l-0.1-0.3l0-0.1l0-0.1l0.5-1l0-0.1     l0.1-0.2l0.1-0.1l0.1-0.1l0,0l0.2-0.3l0-0.1l0.1-0.1l0-0.1l0-0.8l0-0.1l0,0l-0.1,0l0.4-0.7l0.4-0.3l0.3-0.3l0.2-0.2l0.2-0.2     l0.1-0.1l0.1-0.2l0.1-0.1l0-0.1l0.1-0.3l0-0.1l0-0.1l0-0.1l-0.1-0.2l-0.1-0.1l-0.4-0.6l-0.1-0.1l-0.1-0.1l-0.1,0l-0.1,0l0.1-0.3     l0.1-0.2l0.1-0.1l0.2-0.2l0.2-0.1l0.1-0.1l0.3-0.1l0,0.2l0,0.3l0,0.2l0,0.2l0,0.1l0,0.3l0,0.1l0,0.2l0.1,0.2l0,0.1l0,0l0.2,0.2     l0.1,0.1l0.1,0.1l0.1,0.1l0.1,0l0,0l0,0l0,0l0.1,0.2l0,0.1l0,0.2l-0.6,1.3l-0.4,0.9l-0.2,0.3l-0.5,1l-0.5,1.2l-0.4,1.1l0,0.1     l0,0.2l0,0.1l0,0l0.1,0.2l0,0.2l0,0.2l0,0.2L546.8,147.2L546.8,147.2L546.8,147.2z" fill="hsl(230, 100%, 61%)" stroke="hsl(0, 0%, 91%)"/>
        <path d="M546,143L546,143l-0.3-0.3l0,0l0-0.1l0-0.1l0.1-0.1l0,0l0.1,0.1l0.2,0.2l0.1,0.1l0,0.1l0,0.1l0,0L546,143     L546,143z" fill="hsl(230, 100%, 61%)" stroke="hsl(0, 0%, 91%)"/>
        <path d="M549.8,161l-0.2-0.3l-0.1-0.2l-0.1-0.2l-0.1-0.2l0-0.1l0-1.2l0-0.1l0,0l0.1-0.1l0.7-0.3l0.1,0l0.1,0l0,0l0,0     l0,0.1l0,0.2l0,0.1l-0.1,0.2l-0.1,0.1l-0.2,0.6l0,0.1l0,0.1l0,0.1l0,0.1l0,0.2l0.1,1.1L549.8,161z" fill="hsl(230, 100%, 61%)" stroke="hsl(0, 0%, 91%)"/>
        <path d="M549.7,165L549.7,165l-0.1-0.2l0-0.1l0.1-0.8l0-0.1l0.1-0.7l0.2-1l0.4-0.1l0.6,0.1l0,0l0,0.1l-0.1,0.3     l-0.1,0.3l-0.2,0.6l-0.1,0.4l-0.1,0.4l0,0.3l0,0.3l0,0.1l0,0L549.7,165L549.7,165z" fill="hsl(230, 100%, 61%)" stroke="hsl(0, 0%, 91%)"/>
      </g>
      <g id="Australia:Northern_Territory_Territory">
        <path d="M394.7,15.6L394.7,15.6l0.1-0.4l0,0l1.2-1.8l0.8-1.5l0,0l0.1-0.1l0.2-0.1l0,0l0,0l0,0l0,0l0,0.1l0,0.1     l-0.4,1.4l0,0.1l-1.5,2.1l-0.1,0.1l-0.1,0.1l0,0L394.7,15.6L394.7,15.6z" fill="hsl(230, 100%, 61%)" stroke="hsl(0, 0%, 91%)"/>
        <path d="M358.8,14.6l-0.1-0.1l-0.1-0.1l-0.3-0.9l-0.2-0.7l-0.1-0.8l0.7-0.3l0.2,0.4l0.2,0.5l0.1,0.6l0,0.4l0,0.4     l0,0.1L358.8,14.6L358.8,14.6z" fill="hsl(230, 100%, 61%)" stroke="hsl(0, 0%, 91%)"/>
        <path d="M390.5,24.9l0.3-0.1l0.6-0.1l0,0l0,0l0,0l0,0.1l0,0.1l0,0l0.1,0l0.5,0l0,0l0.1-0.1l0.4-0.3l0.1-0.1l0.5-1.1     l0.1-0.4l0-0.1l0-0.1l-0.1-0.1l-0.2-0.2l-0.1,0l-0.1,0l-0.1,0.1l-0.1,0l-0.1,0l-0.3,0l-0.1,0l-0.1,0l-0.5-0.2l-0.1-0.1l0-0.2     l0-0.1l0.9-0.9l1.6-1l1-0.2l-0.2,0.7l0.5,1.5l0.1,0.1l0.1,0.2l0.5,0.7l0,0l0.1,0.1l0,0l0.3,0l0.1,0l0.1,0l0.2-0.1L397,23l0,0     l0-0.1l0-0.1l0,0l0,0l-0.1-0.1l-0.1-0.1l-0.1,0l-0.1,0l-0.1,0l-0.1,0l0,0l0-0.1l0-0.1l0.1-0.1l0,0l0.6-0.2l0.1,0l0.1,0l0.8,0.4     l0,0l0,0l0.5,0.5l0.5,0.5l0,0l0,0.1l0,0l-0.1,0.1l-0.1,0.1l-1.4,0.9l-0.5,0.6l-0.9,1.5l-0.2,1.1l-1.2-0.4l-0.1,0.6l0.6,1l0,0.9     l-0.2,0.9l-0.5,0.6l-0.2,0.4l0-0.2l0,0l0,0l-0.3,0.2l0,0l-0.4,0.1l0-0.7l0-0.8l0-0.1l0,0l-0.1-0.1l0,0l-0.1,0l-0.1,0l-0.1,0     l-0.1,0.1l-0.1,0.1l0,0.1l0,0.1l0,0.1l0,0l0,0l-0.2,0.5l-0.4,0.4l-0.4,0.3l-0.1,0.1l-0.3,0l0,0l-0.1-0.3l0-0.1l0-0.1l0-0.1     l-0.4-0.1l-0.9,0.4l0,0l-0.5,0.4l-0.1,0.1l0,0l-0.3,0.5l0,0l0,0.1l0.1,0.1l0,0l0.3,0.2l-0.2,0.5l-0.4,0.3l-0.2,0.8l0,0.1l0,0.2     l0.3,1.1l0,0l0.1,0.1l0.1,0.1l0.1,0.1l0.1,0l0.1,0l0.1,0l0.2,0l0.2-0.1l0.1-0.1l0.2-0.1l0,0l0.1-0.2l-0.1,0.7l-0.3,1l-0.6,0.9     l-0.2,1l-0.1,0.7l-0.2,0.5l-0.1,0l-0.6,0.3l-0.2,0.1l-0.1,0.1l-0.1,0.1l-1.2,1.5l0,0l-0.5,0.8L386,44l-0.1,0.2l-0.1,0.3l0,0.2     l0,0.1l0.1,0.2l-0.3,0.2l-0.9,0.6l-0.4,0l0.3,0.9l0.1,0.2l0.2,0.4l0,0.1l0.1,0.2l0.1,0.2l0.1,0.1l0.1,0.1l0.1,0.1l0.5,0.4l0,0     l0.3,0.1l0.2,0.1l0.1,0l0.6,0.2l1.7,1L389,50l0.2,0.2l0.1,0.1l0.1,0.2l0,0l0.1,0.1l1,0.5l1.4,0.7l0.3,0.2l0,0l0.1,0.5l0.1,0.5     l0,0.1l0.1,0.1l0.1,0.1l0,0l0.3,0.3l0.1,0.1l0.2,0.1l1.1,0.4l1,0.6l0.3,0.2l0.7,0.6l0.4,0.5l0,0.1l0.4,0.3l0.9,0.1l0.5-0.1l1,0.1     l1,0.5l1.3,0.8l0.1,0.1l0.1,0.1l0.1,0.1l0.3,0.2l0.2,0.2l0.1,0l0.6,0.2l0.4,0.2l0.2,0l0.1,0l0.1,0l0.2,0l0.1,0l0.4,0.1l0.6,0.2     l0.8,0.3l0,0l0.1,0.1l0.3,0.4l0.1,0.2l0.1,0.1l0.2,0.3l0,0.1l0.4,0.5l0,0l0.2,0.2l0.4,0.3l0.3,0.3l0.3,0.3l0,7.7l0,15.3l0,12.5     l0,3.1l0,4l0,6.7l0,3.4l0,3.1l0,0.9l0,3.1l0,1.8l0,1.5l0,3.4l0,1.8l0,1.2l0,4.3l0,5.8l0,7h-1.2l-9.8,0l-1.2,0l-3.7,0l-26.9,0     l-19.3,0l-8.6,0l-9.2,0l-0.6,0l-2.1,0l-0.1,0l0-0.1l0-7.4l0-2.4l0-3l0-5.1l0-4.4l0-3.1l0-4.5l0-1.4l0-5.2l0-0.4l0-0.3l0-12.5     l0-0.9l0-2.9l0-11l0-15.6l0-9.6l0-7.5l0-2.4l0-2.1l0-0.3l0.6,0.1l0.2,0.1l0.8,0.7l0,0l0,0l0,0l-0.1,1.6l0.2,0.2l0.6-0.7l-0.2-0.9     l0-0.1l-0.2-1.2l0-0.1l0-0.1l0.1,0l0.1,0l0.9,0.2l0.1,0l1.1,0.5l0.1,0.1l0.1,0.1l0.1,0.1l1.3,1.4l0.3,0.4l0,0.1l0,0.3l0,0l0,0     l0,0l0.1,0l0.1,0l0.4-0.1l0,0l0-0.1l0,0l-0.1-0.1l-0.3-0.4l-0.1-0.1l-0.2-0.2l-0.1,0l-0.1,0l0,0l-0.3-0.6l0,0l-0.1-0.6l0-0.1     l0-0.1l0.2-0.3l0.1-0.3l0-0.3l0,0l0,0l0.1,0l0.4,0.2l0.8,0.1l0.1,0l0.1,0l0.5-0.2l0.6-0.5l0.1-0.2l-1.3,0.4l-0.3,0.1l-0.1,0     l-0.1,0l-0.4-0.2l0,0l-0.3-0.2L332,46l0,0l-0.6-0.8l0-0.1l-0.1-0.3l0-0.1l0-0.1l0.2-0.1l0.1,0l0.1,0l0.1,0l0.1,0l0.2,0l0.3,0     l0.1,0l0.5-0.4l0.1-0.1L333,44l0-0.1l0,0l-0.1,0l-0.1,0l-0.5,0.2l-0.4,0.1l-0.1,0l0,0l0,0l-0.6,0l-0.4-0.2l0,0l-0.8-0.4l-0.9-0.7     l0-0.1l0-0.1l0.1-0.7l0.6-1l0.6-0.7l0.8-0.5l1-0.5l0.1-0.1l0,0l0.1-0.1l0.1-0.1l0.1-0.3l0.4-2l-0.1-0.3l0-0.2l0.1-0.2l0.4-1.4     l0,0l0.5-0.6l0.1-0.1l0,0l0,0l0,0l0,0.4l0,0.1l0.1,0.1l0.2,0.1l0.1,0l0.1,0l0.2,0l0.1,0l0.3-0.1l0.1,0l0.1-0.1l0.6-0.4l0.5-0.3     l0.9-1l-0.1-0.3l-0.5-0.7l-0.1-0.1l-0.1-0.1l-0.1-0.1l0,0l-0.1,0l-0.1,0l-0.1,0l0,0l0,0l0-0.1l0-0.1l0.1-1.5l0-0.1l0.1-0.3l0-0.1     l0,0l0.3-0.1l0,0l0.1,0l0,0l0,0.1l0,0.1l0,0l0.1,0.1l0,0l0.1,0l0.3-0.1l0.1-0.1l0.2-0.1l0.1-0.1l0.2-0.1l0.1-0.1l0.1-0.1l0.1-0.2     l0-0.2l0-0.1l0-0.7l0-0.2l-0.1-0.1l0-0.1l0-0.1l0.1-0.3l0-0.1l1.3-0.6l0.1,0l0.1,0l0.1,0.1l0.3,0.4l0,0l0,0.1l0.4,0.4l0.1,0     l0.2,0l0.4,0l0.2,0l0,0l0,0l0-0.1l0,0l-0.4-0.1l-0.4,0l-0.2-0.4l-0.1-0.4l0-0.1l0.1-0.1l0.1-0.2l0.1-0.2l0-0.2l0.1-0.6l0,0l0,0     l-0.1-0.1l-0.1-0.1l0,0l0-0.1l0.1-0.1l0,0l0.1,0l0.2,0l0.2,0l0.2,0l1,0.4l0.1,0l1.1,1.9l0-0.3l0.5-0.7l-0.9-0.7l0,0l0,0l-0.2,0     l-0.1-0.1l0.1-0.4l0.2-0.3l0,0l0.3-0.2l0.3-0.1l0.1,0l0.5,0.1l0.4,0l0.1-0.3l-0.1-0.7l0-0.1l0-0.1l-0.1-0.1l-0.1-0.1l0-0.1l0,0     l0-0.1l0-0.1l0.1-0.1l0-0.1l0.1-0.1l0.1,0l0.7,0l0.1,0l0.1,0.1l0.5,0.3l0.4,0.2l1.2,0.1l0.2,0.2l0.3,0.2l0.1,0.1l0.1,0l0.1,0     l0.1,0l0.1,0l0.2,0l1.7-0.1l0.5,0l0.2,0l0.2,0l0.1,0l1.3-0.1l0,0l0.4,0.2l0.7,0.2l0.1,0l0,0l0,0l1.4-1l1.2,0l0.1,0l0,0l0.1,0.2     l0.1,0.1l0.2,0.5l0.1,0.2l0,0.1l0,0l-0.1,0.1l0,0l-0.1,0.1l0,0.1l0,0.1l0,0.1l0.1,0l0.1-0.1l0.2-0.2l0,0l0.1-0.1l-0.1-0.5l0-0.1     l0-0.1l0-0.1l0-0.1l0-0.3l0-0.1l0.1-0.2l0.1-0.1l0,0l0.1,0l1.1-0.4l0,0l0.1,0.1l0.1,0.1l0,0l0.7,0.2l0.2,0l0.1,0l0.1,0l0.2,0     l0.1,0l0,0l-0.1,0l-0.3,0l-0.1,0l0,0l-0.5-0.4l-0.1-0.1l0,0l-0.1-0.1l0-0.2l0-0.2l0-2l0.1-0.6l0.1-0.2l0.4-0.6l0-0.1l-0.3-0.2     l0,0l-1.1-0.8l-0.5-0.6l-0.3-0.2l-0.1,0l-0.1,0l-0.4-0.1l-0.2,0l-1.3,0.2l-0.1,0l-0.5,0.2l0,0l-0.5,0.3l-0.2,0l-0.1,0l-0.1-0.1     l-0.1-0.1l-0.6-0.7l-0.2-0.5l0,0l0,0l0-0.1l0-0.1l0,0l0,0l0,0l-0.6-0.2l-0.3-0.1l-0.1,0l-0.3,0l-0.2,0.1l-0.2,0l-0.2,0l0,0l0,0     l0,0l0.1-0.1l0.9-1.1l0.9-0.5l0.1,0l0.1,0l0.1,0l0.1,0l0.8,0.9l0.6,1.5l0.1,0.1l0,0l0,0l0.2,0l0,0l0,0l0.3-0.5l-0.4-1.2l-0.2-0.3     l-0.2-0.3l0,0l0-0.1l0-0.1l0,0l0.1,0l0.2,0l0.1,0l0.8,0.3l0.1-0.1l0.5-0.3l0.1,0l1.1,0.8l0.4,0.4l0,0l0.1,0.4l0,0.1l1.2,1.6     l0.1,0.1l0.1,0.1l0,0l0,0l0.4,0.1l0.1,0l0,0l0.3-0.3l0.6-0.8l0.3-0.5l0-0.1l0-0.1l0,0l0.1,0l0.4,0.1l0.2,0.2l0.5,0.5l0.1,0.1     l0.5,0.7l0.2,0.4l0,0.1l0,0.1l0.2,0.4l0.4,0.7l0.1,0.1l0.1,0.1l0.1,0.1l0.2,0.1l0.2,0.1l0.3,0.1l0.1,0l0.5-0.3l0.3-0.1l0.1,0     l0.1,0.1l0,0.1l0,0.1l0,0l0.4,0.6l1.3,0.5l0.6,0l0.1,0l0.4-0.1l0.9-0.5l0.1,0l0.1-0.1l0.1-0.1l0.1-0.2l0,0l0.3,0l0.7,0.2l0.1,0.3     l-0.6,0.3l-0.1,0l-0.1,0.1l0,0l0,0l0,0.1l0,0l0,0.1l0.1,0.1l0.2,0.2l0.5,0.3l0.1,0l0.1,0l0.3-0.2l0.1,0l0,0l0.1-0.1l0-0.1l0,0     l0.1-0.1l0.1-0.1l0.1,0l0.1,0l1.2,0.9l-0.1,0.2l0.1,0.7l0.2,0.1l1.5-0.2l0.2,0.1l0.2,0.1l0.1,0l0.5,0.1l0.2,0l0.1,0l0.8-0.1     l0.6-0.4l0.1-0.1l0,0l0.9,0l0,0l0.3,0.4l0.5,0.7l0.1,0.1l0,0l0.2,0l0.2,0l0.8,0.5l0.8,0.6l1,0.1l0.4,0.2l0-0.2l0.1-0.5l0.2-0.5     l0.6-0.6l0.5-0.2l0.3,0l0.1,0.1l0,0l0,0.1l0,0l0.1,0l1.3-0.2l0.6-0.4l0,0l0,0l0,0l0-0.1l0-0.1l0,0l0,0l-0.1,0l-0.1,0l0,0     l-0.1,0.1l-0.1,0.1l-0.2,0.2l0,0l-0.1,0l0-0.1l0,0l0-0.1l0-0.1l0-0.1l0.2-0.5l0,0l0,0l0.8-0.2l0.2,0l0,0l0.2,0l0.1,0l0.1,0     l0.1-0.1l0.7-0.5l0.3-0.2l0.1-0.1l0-0.1l0,0l0-0.2l0-0.1l-0.1-0.1l-0.1-0.1l0,0l0,0l0-0.1l0,0l0,0l0,0l0,0l0.1,0l0.1,0l0.1,0     l0.1,0.1l0.1,0.1l0,0.1l-0.3,0.5l-0.6,0.4l-1,0.8l0,0l0,0l0,0.1l0,0l0.1,0l0.3,0.4l-1,1l-0.1,0.1l0,0l0,0.1l0,0.1l0,0.1l0,0.1     l0,0.1l0.1,0.1l0.1,0.1l0.4,0.4l0.4-0.1l0-0.1l0.1-0.2l0.1-0.1l0,0l0.7-0.5l0,0l1.3-0.4l-0.7,0.8l-0.1,0.1l0,0.1l0,0.1l0,0.1     l0.2,0.3l0,0l0,0l0.1,0l0.1,0l0.1,0l0,0l0.1-0.1l0-0.1l0.1-0.1l0.1-0.1l0.1,0l0.1,0l0.1,0l0.1,0.1l0,0.1l0,0.1l0,0l0,0l-0.6,0.8     l-0.1,0.1l0,0l0,0.1l0,0l0.3,0.5l0.2,0.2l0.1,0L390.5,24.9z" fill="hsl(230, 100%, 61%)" stroke="hsl(0, 0%, 91%)"/>
        <path d="M343.1,19.5l-0.1-0.1l-0.1-0.1l-0.2,0l-0.2,0l-1.2-0.6l-0.1-0.1l-1.5-1.1l-0.1-0.1l0-0.1l0-0.1l-0.6-1.7     l-0.5-1.8l0-0.3l0-0.1l0.1-0.3l0.1-0.1l0.1-0.1l0.1,0l0,0l1.2,1.1l0.4,0.6l1.2,0.4l1-0.2l0.2-0.1l0.1-0.1l0.1,0l0.1-0.1l0.2-0.3     l0,0l0.6,0.2l0.4,0.2l0.5-0.4l0,0l0.5-0.4l0.1,0l0.1,0l0.1,0l0.1,0l0.1,0.1l0,0.1l0,0.2l0,0.2l0.1,0.2l0,0.1l0.4,0.7l0.1,0l0,0     l0,0l0-0.1l0-0.1l-0.1-0.2l-0.2-0.5l0.1-0.4l0-0.1l0.2-0.2l0.2-0.1l0.1,0l0,0l0.1,0l0.1,0l1.2,0.5l0.1,0l0.1,0.1L349,15l0,0.1     l0,0l0,0.3l0,0.3l0,0.1l0,0.1l0,0l0,0l0,0l-0.5,0.7l-1.6,1.6l0,0l-0.3,0l0,0l-0.1,0l-1,0.7l-0.7,0.6L344,20l-0.1,0l-0.1,0     L343.1,19.5z" fill="hsl(230, 100%, 61%)" stroke="hsl(0, 0%, 91%)"/>
        <path d="M338.1,18.6L338.1,18.6l-0.1,0l-0.1,0l-0.7,0.1l-0.1,0l-0.2,0.1l-0.2,0.1l-0.1,0l-0.5,0.1l-0.3,0l-0.5-0.1     l0,0l-0.1-0.2l0-0.1l-0.1-0.1l0-0.1l0.5-0.9l0,0l0.1,0l0,0l0.1,0.1l0.1,0.1l0.1,0.1l0,0l0.3,0l0,0l0.1-0.1l0,0l0.1-0.1l0.1-0.1     l0-0.1l-0.1-1.2l-0.2-0.4l0.7-1.3l0,0l0.8-0.2l0,0l0.5,1l0,0.1l0,0.1l0.3,1l0.5,1.2l0.6,0.2l0.2,0.1l0.2,0.2l0.1,0.1l0.1,0.1     l0.1,0.1l0,0l0,0.1l-0.1,0.1l-0.1,0.3l0,0l-0.4,0.1l-0.7,0.1L338.1,18.6z" fill="hsl(230, 100%, 61%)" stroke="hsl(0, 0%, 91%)"/>
        <path d="M366.2,16.1l0.6-0.4l0,0l0.1,0l0,0l0.2,0.4l0,0l0,0l0,0l-0.4,0l0,0l0,0l-0.1,0l-0.1,0l0,0l-0.2,0.1l-0.2,0.2     L366.2,16.1z" fill="hsl(230, 100%, 61%)" stroke="hsl(0, 0%, 91%)"/>
        <path d="M391.7,17.8l0-0.4l0.1-0.1l0.8-0.6l0.1,0l0.1,0l0,0l0,0l0.5-0.1l0.6-0.4l0.1-0.1l0.2-0.2l0.3-0.2l0,0     l-0.1,0.3l0,0.1l0,0l0,0l-0.9,0.7l-0.3,0.2l-0.7,0.4l-0.6,0.3L391.7,17.8L391.7,17.8z" fill="hsl(230, 100%, 61%)" stroke="hsl(0, 0%, 91%)"/>
        <path d="M366,17.6L366,17.6L366,17.6l-0.1-0.4l0,0l0.1-0.1l0.4-0.3l0.1,0l0.5,0l0.1,0l0,0.1l0,0.2l-0.9,0.5H366z" fill="hsl(230, 100%, 61%)" stroke="hsl(0, 0%, 91%)"/>
        <path d="M358.5,18.1L358.5,18.1L358.5,18.1l-0.4-0.4l0,0l0,0l0-0.1l0-0.1l0.1-0.1l0,0l0,0l0.1,0l0.1,0l0.9,0.1l0,0     l0,0l0,0.2l0,0.1l-0.1,0.2l0,0l0,0l-0.1,0L358.5,18.1L358.5,18.1z" fill="hsl(230, 100%, 61%)" stroke="hsl(0, 0%, 91%)"/>
        <path d="M389.8,18.1L389.8,18.1l-0.2-0.1l0,0l0-0.1l0,0l0,0l0.1-0.1l0,0l0,0l0.4-0.2l0,0l0.2,0l0,0l0,0l0,0l-0.3,0.4     l-0.1,0.1l-0.1,0L389.8,18.1z" fill="hsl(230, 100%, 61%)" stroke="hsl(0, 0%, 91%)"/>
        <path d="M394.8,18.8L394.8,18.8L394.8,18.8l0.1-0.2l0,0l0,0l0.7-0.3l0,0l0.1,0l0,0l-0.1,0.1l-0.3,0.2L394.8,18.8     L394.8,18.8z" fill="hsl(230, 100%, 61%)" stroke="hsl(0, 0%, 91%)"/>
        <path d="M394.3,19.8L394.3,19.8l0.1-0.6l0-0.1l0-0.2l0-0.1l0,0l0,0l0.1,0l0,0l0,0.1l0,0.1l-0.2,0.7l0,0.1l0,0     L394.3,19.8L394.3,19.8L394.3,19.8z" fill="hsl(230, 100%, 61%)" stroke="hsl(0, 0%, 91%)"/>
        <path d="M381.4,20.2L381.4,20.2V20l0-0.1l0,0l0,0l0,0l0.4,0l0.1,0l0,0l0,0l0,0.1l0,0.1L382,20L381.4,20.2L381.4,20.2     z" fill="hsl(230, 100%, 61%)" stroke="hsl(0, 0%, 91%)"/>
        <path d="M391.5,21.3l0-0.3l1.1-0.5l0.1,0l0.1,0l0.1,0l0,0l0,0l0,0.1l0,0.1l0,0l0,0l-0.2,0.2l0,0l0,0l-0.8,0.4     L391.5,21.3z" fill="hsl(230, 100%, 61%)" stroke="hsl(0, 0%, 91%)"/>
        <path d="M380.4,21.2l-0.2-0.3l0,0l0,0l0.1,0l0.2,0l0.2,0l0,0l0.2,0.1l0,0l0,0.1l0,0L380.4,21.2L380.4,21.2z" fill="hsl(230, 100%, 61%)" stroke="hsl(0, 0%, 91%)"/>
        <path d="M379.9,21.8l-0.1-0.1l0-0.1l-0.1-0.4l0.1-0.1l0.3,0.1l0,0l0,0l0,0l0,0l0,0.2l0,0l0,0l-0.1,0.1l-0.1,0.1     L379.9,21.8L379.9,21.8z" fill="hsl(230, 100%, 61%)" stroke="hsl(0, 0%, 91%)"/>
        <path d="M357,21.9L357,21.9L357,21.9l-0.2-0.1l-0.3-0.2l0,0l0,0l0,0l0,0l0.4-0.2l0.1,0l0,0l0,0l0.1,0.2l0,0l0,0.1     l0,0.1l0,0l-0.1,0.1L357,21.9L357,21.9z" fill="hsl(230, 100%, 61%)" stroke="hsl(0, 0%, 91%)"/>
        <path d="M397.5,21.9L397.5,21.9L397.5,21.9l-0.1-0.4l0-0.1l0,0l0.2-0.2l0,0.1l0,0.3l0,0.1l0,0l0,0L397.5,21.9     L397.5,21.9L397.5,21.9z" fill="hsl(230, 100%, 61%)" stroke="hsl(0, 0%, 91%)"/>
        <path d="M391.2,34.3l-0.3-1.1l0,0l0.1,0l0.1,0l0.1,0l0.1,0.1l0.1,0.1l0.3,0.5l-0.1,0.1l-0.2,0.1l0,0l0,0.1l0.1,0.4     L391.2,34.3z" fill="hsl(230, 100%, 61%)" stroke="hsl(0, 0%, 91%)"/>
        <path d="M398.4,40.6l0.1-0.2l0.4,0l0.1,0l0,0l-0.3,1.1l-0.1,0.1l-0.2,0.1l-0.1,0l-0.1,0l0,0l0,0l0,0l0,0l0,0l-1-0.1     l-0.1,0l-0.1,0l-0.2,0l-0.1,0l-0.6,0.1l-2.3-0.6l0.3-1.6l-0.1-0.7l0-0.1L394,38l0.2-0.4l0.1,0l0.9-0.2l0.4-0.1l0.3-0.2l0,0l0-0.1     l0-0.1l-0.3-0.4l0.8-0.6l0.3-0.1l0,0l0,0l0,0l0,0.1l0,0.1l-0.1,0.2l-0.1,0.1l-0.2,0.1l0,0l-0.1,0.1l0,0.1l0,0.1l0,0l0.3,0.8l0,0     l0.7,0.1l0.1,0l0.1,0l0.2-0.1l0.1-0.1l0,0l0-0.1l0,0l0-0.1l0-0.1l0,0l0,0l-0.1,0l0-0.1l0.2-0.2l0.3-0.1l0.1,0l0.1,0.1l0.1,0.1     l0,0l0,0l0,0.1l0.1,0.2l0,0l-0.4,0.4l-0.5,0.5l-0.1,0l0,0l-0.1,0.1l-0.1,0.1l-0.1,0.1l0,0l-0.6,1.2l-0.1,0.4l0,0.1l0.1,0.4l0,0     l0.1,0.1l0.1,0.1l0.1,0l0.4,0.1l0.8,0.1l0.1,0l0.1-0.1l0,0l0.1-0.1L398.4,40.6L398.4,40.6z" fill="hsl(230, 100%, 61%)" stroke="hsl(0, 0%, 91%)"/>
        <path d="M392,37.4L392,37.4L392,37.4l-0.2-0.4l0-0.1l0,0l-0.1,0l-0.1,0l0,0l-0.1,0.1l0,0.1l0,0.1l0,0.1l0.1,0.1l0,0     l0,0.1l0,0l0,0l-0.1,0l-0.3,0l0,0l-0.1-0.1l0-0.1l0.1-0.7l0-0.1l0,0l0.6-0.5l0.1-0.1l0.1,0l0.3,0.1l0,0l0.3,0.3l0,0l0,0.1l0,0.1     l-0.1,0.5l0,0l-0.3,0.5l-0.3,0.1l0,0l-0.1,0L392,37.4z" fill="hsl(230, 100%, 61%)" stroke="hsl(0, 0%, 91%)"/>
        <path d="M331,47.5l-0.1-0.2l-0.2-0.4l-0.1-0.3l-0.1-0.2l0-0.1l0-0.1l0.1,0l0.1,0l0.1,0.1l0.3,0.4l0.1,0.2l0.1,0.3     l0,0.1l0,0.5L331,47.5z" fill="hsl(230, 100%, 61%)" stroke="hsl(0, 0%, 91%)"/>
        <path d="M331.5,47L331.5,47l-0.2-0.3l0-0.1l0-0.1l0-0.1l0,0l0.1,0l0,0l0.2,0.2l0.1,0.1l0.1,0.1l0.1,0.1l0,0l0,0.1     l0,0l0,0L331.5,47L331.5,47z" fill="hsl(230, 100%, 61%)" stroke="hsl(0, 0%, 91%)"/>
        <path d="M387.5,46.7L387.5,46.7L387.5,46.7l0.1-0.1l0.1,0l0.1,0l0.1,0l0.1,0.1l0.1,0.1l0,0.2l0,0.1l0,0l0,0l-0.6,0     L387.5,46.7z" fill="hsl(230, 100%, 61%)" stroke="hsl(0, 0%, 91%)"/>
        <path d="M397.8,53.9l-0.1-0.2l0-0.1l0.1-0.4l0-0.1l0.2-0.2l0.1-0.1l0,0l0,0l0,0.6l0,0.2l-0.1,0.3l0,0L397.8,53.9     L397.8,53.9L397.8,53.9z" fill="hsl(230, 100%, 61%)" stroke="hsl(0, 0%, 91%)"/>
        <path d="M394.8,54.1l-0.2-0.1l0.2-0.8l0.5-0.3l0,0l0.2,0.1l0,0l0,0.2l-0.1,0.6l0,0.1l-0.1,0.2l-0.5,0.1L394.8,54.1     L394.8,54.1z" fill="hsl(230, 100%, 61%)" stroke="hsl(0, 0%, 91%)"/>
        <path d="M399.6,55.8l-0.3-0.3l-0.1-0.1l-0.5-0.6l-0.1-0.2l0-0.1l0,0l0.2-0.3l0.4-0.5l0.1-0.1l0.1,0l0,0l0.4,0.5     l0.2,0.4l0.2,0.7l0,0.2l0,0l-0.2,0.4l-0.1,0L399.6,55.8z" fill="hsl(230, 100%, 61%)" stroke="hsl(0, 0%, 91%)"/>
        <path d="M396.8,55.1l0-0.1l0-0.8l0-0.1l0,0l0.2,0l0.3,0l0.1,0l0.2,0.2l0,0l0,0.1l0,0.1l0,0.1l-0.2,0.3l-0.3,0.2     l-0.2,0.1L396.8,55.1L396.8,55.1z" fill="hsl(230, 100%, 61%)" stroke="hsl(0, 0%, 91%)"/>
        <path d="M396,55.2L396,55.2l-0.2-0.3l0-0.1l0-0.1l0-0.2l0.1-0.2l0,0l0.3,0l0.4,0.2l0,0l0,0l0,0l-0.3,0.5l-0.1,0.1     l0,0L396,55.2z" fill="hsl(230, 100%, 61%)" stroke="hsl(0, 0%, 91%)"/>
      </g>
      <g id="Australia:Australian_Capital_Territory_Territory">
        <path d="M508.9,239.8L508.9,239.8l-0.2-0.1l0,0l-0.1-0.1l-1.2-1.4l0,0l-0.2-0.5l0-1.3l0-0.2l0.3-1.3l0,0l0-0.1l0-0.1     l0.1-0.1l0.2-0.1l0.3-0.2l2-1.1l1,0.3l0,0.1l0,0.1l0,0l0.1,0.1l0.4,0.4l0.5,0.2l0.1,0l0.1,0l0.1,0l0.1,0l0.5,0.2l0,0l0,0     l-0.1,0.1l-0.1,0.1l-0.2,0.1l0,0l-0.1,0l-0.1,0l-0.2-0.1l-0.4-0.1l-0.1,0l-0.1,0l-0.5,0.2l0,0l-0.1,0.1l-0.1,0.1l-0.3,0.4     l-0.1,0.1l-0.5,1.6l0,0.1l0,0.1l0,0.1l0.1,0.2l0.1,0.7l0,0.9l-0.1,0.2l0,0.1l-0.4,0.5l0,0l-0.1,0L508.9,239.8z" fill="hsl(230, 100%, 61%)" stroke="hsl(0, 0%, 91%)"/>
      </g>
      <g id="Australia:Western_Australia_State">
        <path d="M190,117.1l1.6-0.6l0.1-0.6l0-0.2l0-0.1l0.1-0.2l0.1-0.2l0.5-1.1l0.5-0.9l1-1.5l0,0l0-0.1l0-0.2l0-0.2l0-0.1     l0-0.1l0.1-0.1l0.1-0.1l0.4-0.2l0.4-0.1l0.9-0.5l0.8-0.5l0.1,0l0.1,0l0.1,0l0.2,0l0.3,0l0.1,0l0.1,0l0.2-0.1l1-0.5l0.8-0.4     l0.8-0.2l1-0.4l0.1-0.1l0.1-0.1l0.2-0.3l0.2-0.3l0.3-0.3l0.6-0.7l0.1-0.1l0.4-0.3l0.1,0l0.5-0.2l0.4-0.2l0.1,0l0.1,0l0.1-0.1     l0.1-0.1l0.1-0.3l0.2-0.4l0.1-0.2l0.3-0.3l0.1-0.1l0.1-0.1l0,0l0.2-0.1l0.3-0.1l0.2-0.1l1-0.4l0.1-0.1l0.2-0.1l0.1-0.1l0.1-0.1     l0.1-0.4l0.6-0.3l0.6-0.1l1.5-0.5l1-0.6l0.2-0.1l0.1-0.1l0.9-0.7l0.7,0l0,0.1l0,0.1l0,0l0.1,0.1l0.3,0.2l0.1,0l0.3,0.1l0.1,0     l0.2,0l0.1,0l0.2-0.1l0.1,0l0.1-0.1l0.1-0.1l0.1-0.1l0.3-0.2l0.4-0.2l0.1,0l0.2,0l0.8,0.2l0,0.1l0.1,0.1l0.1,0.2l0.1,0.1l0.1,0     l0.5,0.2l0.1,0l0.1,0l0.2,0l0.1,0l0.2,0l0.1,0l0.3,0l0.2,0l0.1,0l0.6-0.1l1.8-0.4l0,0l0.5-0.2l0.8-0.3l0.1,0l0.1-0.1l0.6-0.5     l0.1-0.1l0.1-0.1l0-0.1l0.6-0.5l0.6-0.5l0.6-0.4l0.1-0.1l0.2-0.1l0.1,0l0,0l0,0l0,0.1l0.1,0.1l0.4,0l1.5-0.2l1.4-0.2l0.9,0l0.1,0     l0.1,0l0.1,0l1.2-0.4l0.2-0.1l0,0l1.1-1.4l0.1-0.1l0.1-0.2l0.1-0.4l0-0.1l0,0l0,0l0,0l0.9-0.6l0,0l0.8-0.1l0.2,0l1.6,0.4l0.6,0.2     l1,0.4l0.1,0l0.2,0l0.1,0l0.2,0l0.8-0.4l0.3-0.2l0.6-0.2l2.2-0.4l1.2-0.1l0.1,0l0.3,0l0.3,0l0.1,0l0.8-0.2l0.1,0l2-0.8l2.9-1.2     l0.3-0.1l0.7-0.3l0.1-0.1l0.2-0.1l0.4-0.3l0.4-0.3l0.1-0.1l0.7-0.5l0.2-0.1l0.1-0.1l0.3-0.4l0.4-0.4l0.1-0.1l1.4-1.9l0.1-0.2     l0.5-0.9l0.8-1.6l1.2-1.4l0-0.1l0,0l0-0.1l0,0l0,0l-0.1-0.1l0-0.1l0,0l0,0l0.1-0.4l0.3-0.7l0.1-0.2l0,0l0,0l0.1,0l0.1,0l0,0     l0.1,0.1l0.1,0l0.3,0l0.1,0l0.4-0.2l0.5-0.3l0.1-0.1l0.1-0.1l0.1-0.1l0.1-0.2l0.2-0.3l0.2,0l0.1-0.1l0.1-0.1l0.2-0.1l1.7-1.2     l0.1-0.1l0.2-0.2l0.1-0.2l0-0.1l0.1-0.2l0-0.2l0-0.1l-0.1-0.3l0-0.1l0-0.1l-0.1-0.1l-0.1,0l-0.7-0.2l-0.4-0.5l0-0.1l-0.1-1.6     l0-0.1l0-0.1l-0.1-0.1l-0.1-0.1l0-0.1l-0.2-0.6l0-0.1l0-0.2l0-0.3l0-1.5l0.3-1.1l0.7-1.2l0.1-0.1l0.2-0.2l0.1-0.1l0.7-0.6     l0.2-0.1l0.2-0.1l0.4-0.2l0.1,0l0,0l0.7,0l0.5,0l-0.1-0.1l-0.4-0.7l-0.1-0.1l0-0.1l0,0l0.3-0.4l0.1-0.1l0.1-0.1l0.1,0l0.1,0l0,0     l0.1,0.1l0,0l0,0l0.1,0l0.1,0l0.3-0.1l0.7-0.2l0.1-0.3l-0.2-0.3l0,0l0-0.1l0.2-0.8l0-0.1l0.1-0.1l0.1-0.1l0,0l0.1,0l0.1,0l0.1,0     l0.1-0.1l0.1-0.1l0.4-0.4l0-0.1l0-0.1l0-0.2l0-0.1l0.1-0.1l0,0l0.1-0.2l0,0l0.6-0.2l0.6,0.5l0,0l0,0.1l0,0.1l-0.1,0.1l0,0l0,0     l-0.1,0l0,0l0,0l-0.1,0l-0.1,0l-0.1,0l0,0l0,0l0,0l-0.3,0.9l0,0l0.2,0.3l0.1,0.1l0.4,0.4l0.4,0.2l0.2,0.1l0.2,0.2l0.2,0.7     l0.8,1.5l0.9,1.7l0.6,1l0.6,0.9l0.4,0.6l0.5,0.8l0.2,0.2l0,0l0.2,0.7l0,0l0,0l0-0.1l0.1-0.6l0,0l-0.2-0.3l-0.1-0.2l0-0.1l0-0.7     l0.5-1.4l0-0.1l-0.4-1.1l0-0.2l0-0.2l0-0.1l0-0.1l0.1-0.2l0.1-0.1l0.5,0l0.1,0l0,0l0.6,0.6l0.3,0.4l0.1,0.2l0.1,0.1l0.6,0.5     l0.1,0.1l0.1,0.1l0.1,0l0.1,0l0.1,0l0.1,0l0,0l0-0.1l0,0l-0.2-0.1l-0.1,0l0,0l-0.3-0.4l-0.1-0.1l0,0l0-0.1l-0.2-0.8l-0.1-0.3     l0-0.2l0.4-0.4l0.5-0.5l-0.3-0.2l-0.7,0.2l-0.1,0l-0.1-0.1l-0.1-0.1l-0.3-0.7l-1-1.1l0.1-1l-0.6,0l0,0l-0.3,0l-0.1,0l-0.1,0     l-0.3-0.2l-0.3-0.3l0,0l0-0.1l0,0l0.6,0l0.6,0.2l0.4,0.1l0.1,0l0.2,0l0.6-0.9l0.1-0.5l0-0.3l0,0l0,0l-0.2-0.1l-0.1,0l-0.1,0     l-0.6-0.1l0,0l-0.1-0.1l-0.3-0.3l0-0.7l0-0.2L276,59l0,0l0,0l0.3-0.1l0,0l1.1-0.2l0.1,0l0.6,0.4l0,0l0,0l0,0l0,0.1l-0.2,0.4     l-0.4,0.1l0,0l0,0l1,1l0.5,0.1l0-0.3l0-0.1l0.6-0.8l1.1,0.1l0.1,0l0.2,0.1l0.2,0.1l0.2,0.1l0.1,0.1l0.1,0.3l0.1,0.3l0.1,0.1l0,0     l0,0l0.1,0.1l0.1,0l0.1,0l0.8,0l0.1,0l0-0.1l0-0.1l0.2-0.3l0.1-0.1l0,0l0.1,0l0.2,0.1l0.6,0.3l0.9,0.1l0.1,0l0.7-0.1l0.5-0.1     l0.2,0l0.1,0l0.2,0l0.1,0l0.6,0.3l0.1,0l0.4-0.1l0.1,0l0,0l0,0l0,0l-0.1,0l-0.3,0l0,0l-0.1,0l-0.1,0l-0.1,0l-0.6-0.2l-0.4-0.2     l-0.1-0.1l-0.1-0.1l-0.1,0l-0.6-0.1l-0.1,0l-0.4,0l-0.1,0l-0.4,0.1l-0.1,0l-0.2,0.1l-0.5,0l-0.1,0l0,0l-0.1-0.2l-0.2-0.4     l-0.1-0.6l0.1-0.4l0,0l0.3-0.6l0.4-0.1l0.3,0.5l0.1,0.2l0.1,0l0.6-0.5l-0.1-0.8l0.1-0.6l0.1-0.3l0.5-0.5l0.5-0.4l0,0l0,0     l-0.3-0.1l-0.2-0.1l-0.1,0l-0.4,0.1l-0.1,0l-0.1,0.1l-0.3,0.4l-0.2,0.2l-0.1,0.2l-0.1,0.3l-0.4,0l-0.8-0.6l0,0l0-0.1l-0.2-1.1     l-0.1-0.6l0-0.1l0.7-1.6l0.1-0.1l0.1,0l0.2-0.1l0,0l0.1,0l0.3,0.1l0.1,0.1l0,0.1l0,0l0.3,0.2l0,0l0.2-0.1l0.5-0.3l0.2-0.2l-0.1,0     l-0.1-1l0-0.6l0-0.2l0,0l0,0l0.3,0l0.1,0l1.9,0.9l0.3,0.2l0,0L289,52l0.1,0.1l0,0.1l1.7,0.7l0-0.1l0,0l-0.1-0.1l-0.5-0.4     l-0.2-0.1l-0.2-0.1l-0.1-0.1l0,0l0-0.1l0-0.1l0-0.1l0.1-0.4l0.1-0.1l0.1-0.1l0.1-0.1l0.1,0l0-0.1l-0.2-0.1l-0.1-0.1l-0.7,0     L289,51l-0.2,0.1l0,0l-0.3,0.1l0,0l0,0l-0.1,0l-0.1-0.1l-0.1-0.4l0,0l0,0l0,0l0.1-0.1l0.3-0.4l0.3-0.2l0,0l0.1,0l0.1,0.1l0,0     l0.1,0.1l0,0l0.1,0l0,0l0.3-0.5l0,0l0,0l0,0l-0.1,0l-0.3,0l-0.7,0.4l0,0l-0.3,0.2l0,0l-0.1,0.1l0,0l0,0l-0.2,0l-0.3-0.6l0-0.1     l0-0.1l0.3-0.3l0.4-0.2l0.1,0l0.5,0.1l0.2-0.1l0.4-0.2l0.1-0.1l0-0.1l0,0l-0.1-0.2l0.6-0.4l0.6,1.4l0.1,0.1l0,0l0.1-0.4l0-0.1     l-0.1-0.3l0-0.4l0.5,0.3l0.3,0.2l0.2,0.1l0,0l0,0l0,0.2l0,0.1l0,0l0.1,0.1l0.1,0.1l0.1,0l0.1,0l0.7,0l0.1-0.1l0.1-0.1l0,0l0-0.1     l0-0.1l0,0l-0.1,0l-0.1,0l0,0l-0.1,0l-0.1,0l0,0l-0.2-0.1l0,0l0-0.1l0.3-0.2l-0.2-0.2l-0.7-0.5l-0.1,0l-0.9-0.4l0-0.1l0,0     l0.3-0.3l0,0l0.2-0.1l-0.4-0.4l-0.1-0.1l-0.6-0.8l0,0l0-0.1l0-0.1l1-1.3l0.2-0.2l0.7-0.5l0.5,0.2l1.4,0.1l0.1,0l0.1,0l0.2-0.1     l0.1-0.5l0-0.6l-0.2-1l0-0.1l0-0.4l0.1-0.2l0.1-0.2l0.1,0l0.1,0l0.9,0.4l0,0l0,0.1l-0.1,0.5l0,0.1l0,0l0,0l0,0l-0.6,2.5l0,0.1     l0,0.1l0,0l0,0l0.1,0l0,0l0,0l0.1-0.2l0.4-1.1l0-0.1l0.1-0.3l0-0.1l0-0.1l0-0.1l0,0l0,0l0,0l0.1,0l0.9,0.5l0.1,0.1l0,0.1l-0.1,0     l-0.1,0.9l0,0.1l0.2,0.3l0,0l0.5,0.3l0.1,0l0.1-0.3l0.6-0.6l0.4-0.3l0,0l0,0l0.2-1.5l0.7-1.4l0-0.1l0-0.5l-0.5-1.4l0,0l0,0     l-0.1-0.1l-0.1-0.1l-0.2-0.1l-0.1-0.1l0,0l0,0l0,0l0,0l0.4,0l0.7,0.1l0.6,0.3l0,0.6l0,0.1l-0.1,0.1l-0.1,0l-0.1,0l0,0l-0.2,0.1     l0,0l0,0l0.3,0.9l0,0l0,0l0.1,0.1l0.2,0l0.1,0l0.3,0.2l0.1,0.1l0,0l0,0.1l0.2-0.4l-0.2-0.5l0-0.1l0.1-0.4l0,0l0.2-0.3l0,0     l0.9-0.7l0.7-0.1l-0.1,0.4l-0.3,0.5l0,0l0,0.1l0,0.1l0,0l1,1.3l0.3,0.1l0.9-1l0,0l0.8-1.4l-0.2-1.2l-0.2-0.4l0,0l1-0.4l0.1,0     l0.8-0.2l0,0l0.5,0.4l0.5,0.5l0,0l0,0l0,0.1l0,0.1l-0.1,0.2l0,0l0,0.1l0.5,0.6l0.1,0.1l0,0l0.1,0l0.1,0l0,0l0.1-0.4l0-0.3l0.8,0     l1,0.3l0.6,0.2l0,0l0,0l0.2,0.3l0,0.1l0,0l0.6,0.8l1.2,0.8l0.1,0.1l0.6,0.8l0.3,0.3l0.2,0.3l0.9,1.3l0.7,0.9l0.1,0.1l0,0l0.1,0     l0.1,0l0,0l0.1-0.1l0,0l0.1-0.1l0.1,0l0.3,0.2l0.8,0.6l0.1,0.1l0.4,0.4l0.1,0.4l0.1,0.5L318,47l-0.5,1.4l-0.2,0.6l0,0.1l0,0.2     l0,0.1l0,0l0.1,0.5l0,0l0,0l0,0.1l-0.1,1.6l0,0.1l-0.1,0.2l0,0.1l-0.1,0.1l-0.2,0.2l-0.1,0.1l-0.1,0.1l-0.1,0.1l0,0l0.1,0l0.1,0     l0.2-0.1l0.2-0.1l0.1-0.1l0.1-0.1l0.1-0.1l0,0l0.1-0.1l0.1-0.2l0.1-0.5l0-0.5l0.1-0.2l0-0.1l-0.1-0.1l0,0l0.1-0.3l0,0l0,0l0,0     l0,0l0.4,0.2l0.3,0.3l0.1,0.1l0.3,0.2l0,0.1l0,0.2l0,0.1l0,0.1l0.1,0.4l0,0l0,0l0-0.2l0-0.4l0-0.3l0-0.2l0-0.1l0-0.1l-0.3-0.4     l0,0l0,0l-0.1-0.1l-0.1-0.1l0-0.1l0-0.1l-0.3-1l0-0.1l0-0.1l0.1-0.2l0.1-0.2l0.1-0.1l0.7-0.8l0,0l0.1-0.1l0,0l0.1,0l0,0l0,0.1     l0,0.1l0,0.1l0,0.2l0.1,0.5l0,0.1l0,0.1l0,0.1l0,0l0.1,0l0.7,0l0.1,0l0,0l0,0l0.1-0.3l0,0l0-0.1l-0.2-0.2l-0.1-0.1l0-0.1     l-0.1-0.2l-0.1-0.2l0-0.1l-0.2-0.8l0-0.1l0.1-0.1l0.1,0l1-0.3l0.2,0l0.1,0l1.1,0.2l2.2,0.5l0.9,0.3l0,0.3l0,2.1l0,2.4l0,4.9     l0,12.2l0,0.6l0,22.3l0,5.2l0,2.2l0,8l0,4.8l0,0.4l0,5.2l0,1.4l0,3.2l0,2.8l0,2.7l0,8.5l0,3l0,2.4l0,1.3l0,6.2l0.1,0l-0.1,0.1     l0,7.6l0,2.3l0,14.7l0,3.7l0,5.1l0,8.6l0,4l0,3l0,1.9l0,1.2l-0.1,0l-0.2,0l-0.2,0l-1.5,0.6l-0.2,0.1l-0.6,0.3l-1.4,0.7l-3.4,1.3     l-1.5,0.5l-0.2,0l-0.5,0.1l-1.1,0.2l-0.8,0.1l-1,0.3l-0.8,0.3l-1.9,0.6l-0.6,0.1l-0.9,0.1l-0.4,0l-0.9,0l-0.3,0l-2.8,0.1l-0.4,0     l-0.6,0l-1.1-0.1l-0.5-0.1l-0.6-0.2l-0.2-0.1l-0.2-0.1l-0.2,0l-0.2,0l-0.3-0.1l-0.2,0l-0.1,0l-0.1,0l-0.2,0l-0.1,0l-0.1,0.1     l-0.2,0.2l-0.1,0.1l-0.1,0l-0.2,0l-0.1,0l-0.3-0.1l-0.3-0.1l-0.1,0l-0.1,0l-0.1,0l-1.4,0.7l0,0l-1.7,1.1l-0.2,0.2l-0.1,0.1l0,0     l0,0l-0.1,0.1l-0.1,0.1l-0.1,0.1l-0.2,0.1l-0.1,0.1l-0.5,0.2l-0.1,0l-0.4,0.1l-0.2,0l-0.4,0.1l-0.3,0.1l-0.1,0l-0.5,0.2l-2.3,1.1     l0,0l-0.5,0.3l0,0l-0.1,0.1l-0.1,0.1l-0.1,0.1l-0.1,0.1l-0.1,0.1l-0.1,0.1l-1.1,0.6l-0.1,0l-0.3,0.1l-0.4,0.1l-0.8,0.1l-0.8,0.1     l-0.4,0l-0.5,0l-0.5,0.1L283,213l-0.2,0.1l-0.2,0.1l-0.8,0.5l-0.1,0.1l-0.2,0.2l-0.1,0.1l0,0l-0.3,0.4l-0.1,0.2l0,0.1l-0.8,2.1     l-0.3,1.3l0,0.1l0,0.1l-0.1,0.1l-0.1,0.1l-0.2,0.1l-0.5,0.3l-0.6,0.6l-0.2,0.2l-0.2,0.2l-0.1,0.2l0,0.1l0,0l0,0.1l0,0.1l-0.4,0.4     l-0.4,0.2l-1,0.5l-0.6,0l0,0l-0.1,0l-0.1,0l-0.1,0l-0.2,0l-0.3,0l-0.1,0l-0.1,0l-0.1,0.1l0,0l-0.3,0.3l-0.1,0.2l0,0l0,0l-0.1,0.1     l-0.3,0.2l-0.6,0.2l-0.3-0.6l-0.3-0.5l-0.1-0.1l-0.1-0.1l-0.1,0l-0.4-0.1l-0.1,0l-0.1,0l-0.9,0.3l-0.6,0.2l-0.1,0l-0.1,0l-0.1,0     l-0.8-0.1l-1.1,0l-0.1,0l-0.1,0l0,0l-0.1,0.1l0,0.1l-1.2,0.1l-0.1,0l-0.4-0.1l-0.1,0l-0.2,0l-0.4,0.1l-0.1,0l0,0l-0.2,0.2l0,0.1     l0,0.1l0,0.3l0,0.1l0,0l0,0l0,0l-0.1,0l-1.1,0l-0.2-0.1l-0.1,0l0,0l0-0.1l0.1-0.2l0,0l0.1,0l0,0l0-0.1l-0.2-0.4l-0.1-0.3l0-0.1     l-0.2-0.2l-0.1-0.1l-0.2-0.2l-0.1-0.1l-0.1,0l-0.1,0l-0.6,0.1l-0.2,0.1l-0.1,0.1l-0.1,0.1l0,0.1l-0.2,0.1l-0.2,0.1l-0.1,0     l-0.4,0.1l-0.1,0l-0.1,0l-0.9-0.3l-1.3-0.3l-0.1,0l-0.5,0l-0.8,0l-0.3,0l-0.1,0l-1,0.2l-1.5,0.2l-1.1,0.1l-0.3,0l-0.1,0l-0.1,0     l-0.1,0l-0.2,0.1l-0.2,0.1l-0.1,0.1l-0.1,0l-0.1,0l-0.6,0l-0.3,0l-1.4,0.2l-0.5,0.3l-0.4,0.2l-0.2,0l-0.1,0h-0.1l-0.1,0l-0.4-0.1     l-0.7-0.2l-0.3-0.1l-0.2,0l-1.8-0.1l-0.1,0l-0.2,0l-0.2,0l-1.5,0.4l-0.1,0l-0.1,0.1l-0.1,0.1l-0.1,0.1l-0.1,0.2l-0.1,0.1     l-0.1,0.1l-0.2,0.1l-0.1,0.1l-0.3,0.1l-0.3,0.1l-0.3,0.1l-0.4,0.4l-0.1,0.1l-0.7,1l0,0.1l0,0.1l-0.1,0.4l0,0.1l-1.3,1l-1.1,0.5     l-0.2-0.1l-0.7-0.2l-0.3-0.1l-1.3-0.1l-0.1,0l-0.2,0l-0.2,0.1l-1.1,0.6l-0.1,0.1l-0.2,0.1l-0.2,0.2l0,0l0.3,0.3l-0.1,0.1     l-0.1,0.1l-0.1,0.1l-0.2,0.1l-0.5,0.2l-0.1,0l-0.1,0l-0.2,0l-0.2,0l-0.2,0l-0.5,0.1l-0.4,0.1l0,0l-0.2,0.1l-0.1,0.1l-0.1,0.1     l-0.2,0.2l-0.2,0.2l-0.1,0.2l0,0.1l0,0.1l-1,0.5l-1.8,0.8l-2.2,0.3l-0.1,0l0,0l0,0l0,0.1l0,0.1l0,0l0.1,0.1l0.1,0.1l0.2,0.1     l0.1,0l0.5,0.1l0.1,0l0.1,0l0.3-0.1l0.1,0l0.1,0.1l0,0l0,0l-0.5,0.2l-0.1,0l-0.1,0l-0.5-0.1l-0.1,0l-0.1,0l-0.1-0.1l-0.3-0.2     l-0.2-0.1l-0.3-0.1l-0.1,0l-0.1,0l-0.4,0l-0.1,0l-0.1,0l-0.1,0l-0.1,0.1l-0.1,0.1l-0.1,0.1l-0.1,0.2l-0.1,0.4l-0.5-0.4l-0.2-0.1     l-1.6-0.6l-0.2-0.1l-0.1,0l-1.4-0.1l-2.1,0h-0.1l-0.1,0l-0.2,0.1L215,232l0,0l-0.1,0.1l0,0l-0.1,0l-0.1,0l-0.3-0.1l-0.1,0     L214,232l-0.8-0.2l-0.6,0.1l-0.5,0l-1.3-0.3l-0.1,0l-0.8-0.5l-0.5-0.3l-0.5-0.3l-0.2-0.1l-0.3-0.1l-0.4-0.1l-0.8-0.1l-1.1-0.2     l-0.2-0.5l-0.1-0.2l-0.3-0.4l-0.1-0.1l-0.9-0.8l-0.2-0.2l-0.1-0.1l-1.2-1L202,226l-0.1,0l-0.9-0.4l-0.1,0l-0.6-0.2l-0.1,0     l-0.6-0.1l-0.1,0l-0.3,0l-0.2,0l-0.1,0l-0.1,0l-0.1,0.1l0,0l-0.1,0.1l0,0.2l0,0l-0.2,0.1l-0.1,0l-0.4-0.4l-0.5-0.5l-0.1-0.1l0,0     l0-0.2l0-0.2l0-0.1l0-0.1l0-0.1l0-0.1l-0.3-1.4l-0.2-1.4l0-1.6l0-0.1l0.3-1.5l0-0.1l0.1,0l0.1,0l0.2,0.1l0.1,0.1l0.2,0.2l0.1,0.1     l0,0l0,0.1l0,0.1l0,0.1l0,0l0,0l0.1,0.1l0.4,0.2l0.5,0.2l0.1,0l0.4,0l0.2,0l0.2,0l0.1,0l0.4-0.1l0.3-0.1l0.3-0.1l0,0l2.1-2.7     l0.1,0l0.1,0l0.1-0.1l0.1-0.1l0-0.1l0-0.1l0-0.1l0-0.1l0-0.1l-0.4-2.4l-0.2-0.5l-0.2-0.5l-0.1-0.5l0-0.1l-0.2-1.1l0-0.1l0-0.1     l0.2-0.5l0,0l0,0l0.5-0.6l0,0l0.1-0.1l0.1,0l0,0l0,0.2l0,0.1l0,0l-0.1,0l0,0l-0.3,0.3l-0.1,0.1l-0.1,0.1l0,0.2l0,0.1l0.3,0.8l0,0     l0.1,0.3l0.1,0.1l0.1,0l0.1,0l0,0l0,0l0-0.1l0-0.1l0-0.4l0.2-0.7l0.3-0.7l-0.2-1.1l-0.1-1.2l0-0.5l0.1-0.1l0.2-0.6l-0.2-0.9     l0.1-1.4l0-0.2l0-0.2l0-0.1l0-0.2l0,0l-0.3-1.3l0-0.1l-0.1-0.2l-0.1-0.2l-0.4-0.6l-0.7-1l-1.1-1.7l-0.1-0.2l0-0.1l-0.4-0.8     l-0.2-0.6l-0.1-0.2l-0.5-1l-0.1-0.1l-0.6-0.8l-0.3-0.3l0,0l-0.1-0.1l-0.3-0.6l-0.8-1.7l-0.3-0.7l0-0.1l0-0.1l0-0.1l0-0.1l0-0.1     l-0.3-1.8l-0.3-1.2l0,0l-0.2-0.5l0-0.1l0,0l-0.1-0.1l0,0l0,0l0-2.9l0-0.2l0-0.5l0-0.3l0-0.1l0.1-0.5l0-0.1l0.1-0.2l0,0l0-0.2     l0-0.2l0-0.1l-0.4-1.3l0-0.1l0-0.1l-0.2-0.3l0-0.3l0-0.1l0-0.1l-0.1-0.4l0-0.1l-0.4-0.9l-0.1-0.1l-1-1.1l-0.3-0.2l-0.2-0.2l0,0     l-0.1-0.1l-0.1-0.1l-0.2-0.3l-0.1-0.1l-0.1-0.2l0-0.2l0-0.2l0-0.2l0,0l0-0.1l0-0.3l0-0.1l0-0.4l0-0.4l-0.1-0.1l-0.5-0.9l-0.1-0.2     l-0.1-0.2l-1.2-1.5l-0.5-0.8l0,0l0,0l-0.1,0l-0.2-0.1l-0.1,0l-0.1-0.1l-0.2-0.1l-0.2-0.2l-0.1-0.1l-0.1-0.1l-0.4-0.5l-0.1-0.1     l0-0.1l-0.3-1.1l-0.2-0.8l0-0.1l0-0.2l0-0.1l0.1-0.3l0.1-0.3l0-0.1l0.1-0.1l0-0.1l0-0.1l-0.1-0.4l-0.1-0.5l-0.3-0.9l-0.2-0.5     l-0.4-0.8l-0.8-1.5l-1.3-2.1l-0.1-0.2l-0.9-1.2l-0.9-1.1l-0.5-0.5l-0.2-0.2l-0.1-0.1l-0.1-0.1l-0.4-0.3l-1.5-1.4l0-0.1l-0.5-1.4     l0.3-0.4l0.1-0.2l0-0.1l0-0.1l0-0.1l0-0.4l-0.1-0.2l0-0.2l0-0.1l0-0.1l0-0.1l0,0l0.1,0l0.1,0.1l0,0.1l0.1,0.8l0,0.4l0,0.5     l0.3,0.5l0.2-0.8l0.1-0.6l1.4,1.5l0,0l0.2,0.4l0,0.1l0,0.5l0.1,1l0.2,0.6l0.7,0.8l0,0l0.2,0l0.1,0l0-0.2l0.6-0.4l0.3,0l0,0l0,0     l0.1,0l0,0l0.2-0.3l0.4-0.6l0.1-0.2l0-0.2l0-1.1l0-0.1l-0.2-0.3l0-0.1l-0.1-0.1l-0.3-0.3l-0.4-0.2l-0.8-0.5l-0.9-0.8l0-0.1     l-0.2-0.7l-0.3-1.1l-0.1-0.1l-0.4-0.5l-0.3-0.5l-0.1-0.1l-0.1-0.1l0-0.1l0-0.2l0-0.1l0-0.2l0.1-0.2l0-0.1l0.1-0.1l0.5-0.6     l0.3,0.2l0.3,0.6l0.5,0.7l0.1,0.1l0.1,0.1l0.5,0.4l0.3,0.2l0.1,0l0,0l0,0l0.3,0.7l0,0.1l-0.2,1l0,0l0,0l-0.2,0.1l-0.1,0.2     l0.1,0.6l0,0.2l0.2,0.6l0,0l0.3,0.1l0.1,0l0.1-0.1l0.2-0.2l0.1-0.1l0.1-0.1l0.2-0.3l0.4-0.7l0,0l0.1-0.2l0.2,0.9l0.2,0.8l0,0.5     l0,0.1l0.2,0.6l1,1.2l0.1,0l1.1-0.8l0,0l0,0l0.2-0.6l0-0.1l0-0.2l-0.1-0.1l-0.1-0.1l-0.1-0.1l0,0l-0.1-0.2l-0.1-0.3l0-0.1     l0.2-1.4l0.1-0.4l0.3,0.1l0.2-0.3l0-1l0-0.1l0,0l-1.1-1l-0.8-0.7l-0.1-0.1l-0.1-0.1l-0.7-1.2l-0.3-0.5l-0.1-0.1l-0.4-0.9     l-0.3-0.7l-0.2-0.6l-0.1-0.1l0,0l-0.1-0.1l-0.4-0.2l-0.3-0.1l-0.1,0l0,0l0-0.1l-0.4-0.8l0-0.1l-0.3-1.1l-0.1-0.3l0-0.2l0.1-0.1     l0-0.2l0-0.4l0-0.1l-0.1-0.1l-0.3-0.4l-0.2-0.3l-0.4-0.5l-0.2-0.2l-0.2-0.2l-0.1-0.1l-0.3-0.3l0,0l-0.2-0.5l-0.1-0.2l0-0.2     l-0.1-1.7l0-0.1l0,0l0,0l0.3-0.8l0.2-1.1l0.4-1.2l0.4-1.1l0.6-1.1l0,0l0.3-0.3l0,0l0.2-0.1l0.1,0l0,0l0.1-0.1l0.5-0.4l0,0     l0.1-0.1l0.2-0.4l0-0.3l0.1-0.9l0-0.2l0-0.1l-0.2-1.1l0.2-0.8l0.2-0.2l0.1-0.2l0-0.1l0-0.2l-0.1-0.9l-0.1-0.2l-0.3-0.8l-0.1-0.1     l-0.1-0.1l0-0.1l0-0.1l-0.1-0.1l-0.1-0.1l-0.2-0.2l-0.1-0.1l-0.3-0.5l-0.1-0.7l0.2-0.5l0.1,0l0.1-0.1l0.3-0.5l0.6-1.3l0.2-0.5     l0.2-0.4l0.2-0.7l0.3-0.9l0-0.1l0.3-0.7l0.6-0.9l0.1-0.2l0.1-0.1l0.1-0.1l0.5-0.3l0.1,0l0.5-0.2l0.1,0l0.1,0.1l0,0l0,0.1l0,0.1     l-0.1,0.1l-0.1,0.1l-0.1,0.2l-0.1,0.1l-0.1,0.2l-0.5,2.3l0,0.2l0,0.1l0,0.1l0.3,0.7l0.2,0.3l-0.2,0.8l0,0l0,0l0,0.1l-0.1,0.7     l0,0.1l0.1,0.2l0.1,0.1l0.1,0.1l0.1,0L190,117.1z" fill="hsl(230, 100%, 61%)" stroke="hsl(0, 0%, 91%)"/>
        <path d="M303.7,38.1l-0.2,0l-0.1,0l-0.1,0l-0.1,0l-0.2,0.1l-0.1,0l0,0l-0.1-0.2l0-0.1l0,0l0,0l0.3,0l0.1,0l0.5,0.2     l0,0l0,0l-0.1,0.1L303.7,38.1z" fill="hsl(230, 100%, 61%)" stroke="hsl(0, 0%, 91%)"/>
        <path d="M290.4,44.9l-0.4-0.2l0,0l0-0.1l0-0.1L290,44l0.2-0.5l0,0l0.3-0.4l0,0l0,0l0.1,0l0.1,0.1l0.3,0.3l0,0l0,0.1     l-0.2,1l-0.3,0.1l0,0l0,0L290.4,44.9L290.4,44.9z" fill="hsl(230, 100%, 61%)" stroke="hsl(0, 0%, 91%)"/>
        <path d="M320.5,48.4l-0.5-0.6l-0.1-0.6l0-0.2l0-0.1l0,0l0.1,0l0,0l0.1,0.1l0.1,0.1l0.1,0.1l0.1,0.1l0.3,0.6l0.1,0.1     l0,0.3l0,0L320.5,48.4z" fill="hsl(230, 100%, 61%)" stroke="hsl(0, 0%, 91%)"/>
        <path d="M288.5,48.5l-0.1,0l0,0l-0.5-0.3l0,0l0-0.1l0.1-0.1l0.1-0.1l0,0l0.4-0.1l0,0l0,0l0.2,0.6l0,0.1l0,0     L288.5,48.5L288.5,48.5z" fill="hsl(230, 100%, 61%)" stroke="hsl(0, 0%, 91%)"/>
        <path d="M317.8,49.5L317.8,49.5L317.8,49.5l-0.1-0.1l0-0.1l0-0.7l0,0l0,0l0.1,0l0.1,0l0.1,0.1l0.4,0.6l0,0.1l0,0.4     l0,0.1l0,0l0,0l-0.1,0L317.8,49.5z" fill="hsl(230, 100%, 61%)" stroke="hsl(0, 0%, 91%)"/>
        <path d="M287.3,50.8L287.3,50.8l0-0.2l0-0.1l0,0l0,0l0.1,0l0.2,0l0.1,0l0,0l0,0l0,0.1l0,0l-0.1,0.1l-0.1,0.1l0,0     L287.3,50.8L287.3,50.8z" fill="hsl(230, 100%, 61%)" stroke="hsl(0, 0%, 91%)"/>
        <path d="M283.4,51.1l-0.2-0.1l-0.2-0.1l0,0l0-0.1l0,0l0,0l0.8-0.4l0,0l0.1,0l0,0l0,0l0,0.1l0,0.1l-0.1,0.3l-0.1,0.1     l0,0L283.4,51.1L283.4,51.1z" fill="hsl(230, 100%, 61%)" stroke="hsl(0, 0%, 91%)"/>
        <path d="M284.7,52l-0.5-0.4l0,0l0.1-0.4l0,0l0.2-0.3l0,0l0,0l0.4-0.2l0.2,0l0.8,1.3l0,0l-0.1,0.1l-0.1,0l-0.9,0.3     L284.7,52z" fill="hsl(230, 100%, 61%)" stroke="hsl(0, 0%, 91%)"/>
        <path d="M200.7,102L200.7,102l-0.2-0.1l-0.1,0l0,0l-0.1,0.2l0,0l-0.1,0l0,0l0,0l0-0.1l0-0.2l0-0.1l0,0l0.1-0.1     l0.3-0.3l0.6-0.7l0.1-0.1l0.2-0.1l0,0l0,0l0.1,0l0,0l0,0l0.1,0.6l0,0.2l0,0.1l0,0.1l-0.5,0.7l-0.2,0.2l-0.1,0L200.7,102z" fill="hsl(230, 100%, 61%)" stroke="hsl(0, 0%, 91%)"/>
        <path d="M180,139.6l0.1-0.9l0-0.1l0.2-0.9l0,0l0.1,0.1l0,0l0,0.2l0,0.1l-0.2,1.2l-0.2,0.6L180,139.6z" fill="hsl(230, 100%, 61%)" stroke="hsl(0, 0%, 91%)"/>
        <path d="M179.6,142.4L179.6,142.4l-0.1-0.2l0-0.1l0-0.1l0.3-1l0.2-0.2l-0.3,1.2L179.6,142.4L179.6,142.4z" fill="hsl(230, 100%, 61%)" stroke="hsl(0, 0%, 91%)"/>
        <path d="M180.6,150.2l-1.4-1.9l-0.7-1.2l0,0l-0.4-1.4l0-0.4l0-0.2l0.1-0.2l0-0.1l0,0l0.2-0.3l0.1-0.1l0.1,0l0.4,0.1     l0.1,0l0,0l0,0l-0.1,0.1l-0.1,0.1l0,0l0,0.1l0,0.2l0,0.1l0.4,0.8l0.5,1.2l0.2,0.6l0.1,0.2l0.5,0.9l0.2,0.2l0.1,0.1l0.1,0.1     l0.1,0.2l0.2,0.5l0,0.1l-0.2,0.3l0,0L180.6,150.2z" fill="hsl(230, 100%, 61%)" stroke="hsl(0, 0%, 91%)"/>
        <path d="M203.4,206.3l-0.1-0.5l0,0l0-0.1l0-0.1l0,0l0.1,0l0.2,0.6l0,0.1l-0.1,0.1L203.4,206.3z" fill="hsl(230, 100%, 61%)" stroke="hsl(0, 0%, 91%)"/>
        <path d="M272.4,223.6l0-0.2l0,0l0.3-0.1l0.1,0l0,0.1l0,0.1l0,0.1l0,0L272.4,223.6L272.4,223.6z" fill="hsl(230, 100%, 61%)" stroke="hsl(0, 0%, 91%)"/>
        <path d="M263.8,223.9L263.8,223.9L263.8,223.9l-0.1-0.3l0-0.1l0,0l0.1,0l0.1,0.1l0,0l0,0.1l-0.1,0.2L263.8,223.9     L263.8,223.9z" fill="hsl(230, 100%, 61%)" stroke="hsl(0, 0%, 91%)"/>
        <path d="M229.1,231.1L229.1,231.1l-0.2-0.1l-0.1-0.1l0,0l0-0.1l0,0l0.1,0l0.1,0l0.2,0.1l0.1,0l0,0l0,0l0,0.1l0,0l0,0     L229.1,231.1L229.1,231.1z" fill="hsl(230, 100%, 61%)" stroke="hsl(0, 0%, 91%)"/>
      </g>
      <g id="Australia:New_South_Wales_State">
        <path d="M539,209.9l-0.9,0.5l-0.1,0.4l0.2,0.4l-1.4,0.4l-0.4,0.1l0,0l-1,0.4l-0.2,0.1l-0.1,0.1l-0.1,0.1l0,0     l-1.3,1.6l-0.1,0.1l-0.3,0.8l-0.3,0.6l-0.2,0.3l-0.2,0.2l0-0.1l0,0l0,0l-0.1,0l-0.1,0l-0.2,0.1l-0.4,0.3l0,0l-0.1,0.3l0,0.1l0,0     l0,0l0,0l0.1,0l0.1,0l0,0.2l0,0l0,0l0,0l0,0l0,0l-0.3,0.9l0,0l-1,1.2l-0.4,2.5l-0.2,0.7l-0.2,0.2l0,0l0,0l0,0l0,0l0,0l-0.5,0     l-0.7,0.1l0,0l0,0l0,0.1l0,0l0.4,0.1l0.1,0l0,0l0-0.1l0,0l0.1,0l0.2,0.3l0,0l0.1,0l0,0l0,0l0,0l0,0l-0.7,0.9l-0.1,0.1l-0.2,0.1     l-0.1,0.1l-0.1,0.1l-0.2,0.2l-0.1,0.1l-0.1,0.1l-0.4,0.5l-0.2,0.2l-0.2,0.3l-0.9,2.1l0.3,0.2l0.1,0.1l-0.1,0.6l-0.3,1l0,0.1l0,0     l-0.1,0l-0.2,0l-0.1,0l-0.1,0l-0.1,0.1l-0.1,0.1l-0.1,0.1l-0.1,0.1l-0.1,0.3l0,0.1l0.3,0.7l0.5,0.5l0.1,0l0,0l0,0l0,0.1l-0.1,0.5     l0,0l0,0l-0.2,0.1l0,0l-0.1,0l-0.3-0.2l0,0l0-0.1l0,0l0,0l0-0.1l0,0l-0.1-0.3l0,0l0,0l-0.1,0l-0.1,0l-0.1,0l-0.1,0l-0.4,0.2l0,0     l0,0l0,0l0,0l0,0.1l0,0.2l0.2,0.5l-0.5,0.5l-0.3,0.1l-0.4,0.1l-0.1,0.1l0,0l0,0l-0.1,0.1l-0.5,0.7l0,0.1l0,0.3l0,0l-0.7,1.6     l-0.5,0.6l-0.7,1.3l-1,1.9l-0.2,1.6l0,1.2l0,0.1l0,0.1l0,0.5l0,0.1l0,0.1l-0.1,0.1l-0.2,0.1l-0.1,0.1l-0.1,0.2l0,0.1l-0.1,0.3     l-0.1,0.6l0,0.1l-0.3,1.1l-0.4,1.1l-0.1,0.1l-0.1,0.2l-0.3,0.6l-0.3,0.6l0,1.3l0.3,0.4l0.1,0l0.1,0l0.5,0.4l0,0.1l0.1,0.6l0,0.3     l-0.2-0.1l-0.1,0l-0.3,0.2l-0.1,0.1l0,0l0,0l0.1,0.9l0,0.2l0,0.2l0,0.1l0.2,0.3l0,0.1l0,0.2l0,0.1l0,0.1l-0.1,0l-2.1-0.8l-2-0.8     l-2.4-1l-1.6-0.6l-2.1-0.9l-2.5-1l-1.1-0.4l-0.8-0.4l-0.5-0.2l-1-0.4l-0.1,0l-0.3,0l-0.1,0l-0.4-0.1l0.3-0.5l0.1-0.1l0.2-0.2     l0.2-0.2l0.1-0.1l0.1-0.2l0-0.2l0-0.1l0-0.1l0,0l-0.7-1.3l-0.1-0.1l0,0l-0.1-0.1l-0.1-0.1l-0.1-0.1l-0.1-0.1l-0.1-0.1l0-0.1     l-0.2-1.5l-0.2-1.5l-0.1-0.1l-0.8-0.4l-0.2-0.1l-1.5-0.5l-0.1,0l-0.1,0l-0.1,0l-0.5,0.2l-1.1-0.1l-0.1-0.1l0,0l-0.1,0l-0.1,0     l-0.7,0.1l-0.1,0l-0.1,0.1l-0.3,0.4l0,0.1l-0.4,0.4l-0.8,0.1l-1.4,0.4l-0.1,0l-0.1,0l-1.2-0.1l-0.4-0.1l-1.6-0.4l-0.3-0.2     l-0.5-0.4l-0.1,0l-0.8-0.1h-0.1l-0.5,0l-0.2,0l-0.2,0.2l-0.1,0.1l-0.9,0.3l-1.9-0.1l-2.6-0.4l-0.6-0.2l-0.1-0.1l-0.4-0.3     l-0.1-0.1l-0.1-0.1l-0.4-0.3l-0.6-0.4l-0.1-0.1l-0.1,0l-0.1,0l-0.1,0l-0.1,0l-0.5,0.1l-0.2,0l-0.2,0.1l-0.2,0.2l-0.2,0.1l-0.1,0     l-0.6,0l-0.2,0l-0.1,0l-0.1-0.1l-0.1-0.1l-0.1,0l-1.1,0l-0.2,0l-0.9,0.2l-0.1,0l0,0l-0.1,0.1l-0.1,0.1l0,0.1l-0.3,0.9l0,0.1     l0,0.1l0,0l0.1,0.7l-1.3,0.3l-0.3,0.1l-0.3-0.1l-0.1,0l-1.1-0.5l0,0l-0.2-0.2l-1.7-1.7l-0.1-0.2l-0.1-0.1l-0.1-0.2l-0.1-0.2     l-0.1-0.2l-0.1-0.1l-0.1-0.1l-0.1,0l-0.3,0l-0.1-0.1l-0.8-0.6l-0.1-0.1l-0.3-0.3l-0.2-0.2l-0.1-0.1l-0.2-0.2l-0.2-0.1l-0.2-0.1     l-1.2-0.5l-1.4-0.8l-0.1-0.1l-0.5-0.2l-0.1,0l-0.1,0l-0.2,0.1l-0.1,0l-0.2-0.1l-0.3-0.2l-0.1-0.1l-0.1-0.1l-0.1-0.1l0,0l0-0.1     l0-0.1l0,0l0.1-0.1l0.1-0.1l0-0.1l0-0.1l0,0l-0.3-0.4l0,0l-0.1,0l-0.4-0.1l-0.3,0l-0.1,0l-0.5-0.2l-0.1-0.1l-0.1-0.1l-0.3-0.6     l-0.1-0.1l0-0.1l-0.1-0.2l-0.1-0.7l0-0.1l0-0.6l0-0.1l0,0l0,0l0-0.1l0-0.1l0-0.5l0-0.1l-0.1-0.1l0,0l-0.7-0.3l-0.1,0l-1.2-0.5     l-0.1,0l-0.1,0l-0.1,0l-0.1,0l-0.1,0l-0.4,0l-0.5,0l-1.1-0.4l-0.1-0.2l0,0l-0.1-0.1l-0.4-0.3l-0.1,0l-0.1,0l-0.4,0.1l-0.1,0.1     l-0.1,0.1l0,0.1l-0.2,0.6l-0.1,0.5l-0.3,0.4l0,0l-0.1,0l-0.1,0l-0.6-0.1l-0.2-0.1l-0.1-0.1l-0.1-0.1l-0.1-0.1l0-0.2l0-0.1l-0.5-1     l0-0.1l-0.1-0.1l-0.1-0.1l-0.3-0.2l-0.2-0.1l-0.1-0.1l0,0l0,0l0-1l0-0.2l-1.2-1.8l-0.1-0.1l-0.7-0.4l0,0l-1-0.4l-0.1,0l-0.1,0     l-0.1,0l0,0l-0.2,0.1l0,0l-0.1,0l-0.7,0.1l-0.8-0.1l-0.3-0.1l-0.2,0l-0.1,0l-0.5,0.2l-0.2,0.1l-0.1,0l-0.3,0.3l-0.1,0.2l0,0     l-0.1,0.1l-0.3,0.2l-0.1,0l-0.1,0l-0.1-0.1l-0.1-0.1l-1-0.5l-0.1,0l-1.5-0.6l-0.9-0.1l-0.3,0l-0.3,0l-0.2,0l-0.2,0l-0.1,0     l-0.1-0.1l-0.3-0.2l0-0.2l0-1l0-18.8l0-12.1l0-0.3l0-5.9l0-7l0-0.9h0.1l1,0l1.5,0l5.5,0l3.4,0l3.4,0l4.8,0l1.2,0l3.7,0l0.4,0     l13.4,0l3,0l1,0l1.4,0l2.2,0l4,0l7.7,0l0.4,0l11.7,0l0.6,0l2.6,0l0.6-0.3l0,0l0.1-0.1l0.1-0.1l0.1-0.1l0.8-0.9l0.9-0.7l0.6-0.4     l1.3-1.1l0.1-0.1l0.1,0l0.4-0.1l0.2-0.1l0.3,0l0.2,0l0.1,0.1l0.1,0.1l0,0.2l0,0l0.1,0l0.7,0.1l1.7-0.2l0.9,0l0.1,0l0.2,0l0.7-0.2     l0.1,0l0.1-0.1l0.1-0.1l0.1-0.1l0.2,0l1.1-0.1l0.1,0l0.1,0l0.1,0.1l0.5,0.4l0.1,0.1l0.1,0.1l0.1,0.1l0.5,0.3l0.1,0l0.2,0l1.3,0     l0.1,0l0.5-0.1l0.3-0.1l0.2-0.1l0.1,0l0.1,0l0.1,0l0.1,0l2.2,0.9l0,0l0,0l1.6,1.3l0.6,0.4l0,0l0.1,0.6l0,0.1l0,0.1l0.1,0.6     l0.3,0.6l0.1,0.1l0.1,0.1l0,0l0.1,0l0.1,0l0.5-0.1l0.4-0.4l0.1-0.1l0.4-0.6l0-0.1l0.1-0.2l0.1-0.1l0.1-0.2l0.1-0.2l0.1-0.1     l1.5-0.6l0,0l0.1,0.3l0.1,0.2l0.1,0.1l0.1,0l0.4,0.2l0.1,0l1.6-0.7l0.1-0.1l0,0l0-0.1l0.2-1.4l-0.4-0.8l-0.1-0.1l-0.4-0.6l0-0.1     l0-0.1l0-0.1l0,0l0.1-0.1l0.8-0.5l1-0.4l0,0l0.9-0.3l0.8-0.2l0.1,0l0.1,0l0.2-0.1l0.1-0.1l0,0l0.1-0.3l0,0l0.5-0.4l0.1,0l0.1,0     l0.1,0l0.1,0l0.1,0l0,0l0.1,0.1l0,0l0.5,0.5l1.5,0.3l0.1,0l0.3,0l0.1,0l0.1,0l1.2-0.1l1.4,0.1l0.1-0.1l0.1-0.1l0,0l0.2-0.3     l0.2-0.3l0.1-0.1l0.1-0.1l0.8-0.1l0.1,0l0.2,0l1-0.3l0.2-0.1l0.2-0.2l0.3-0.2l0.1,0.2l0,0l0,0l0.1,0l0.1,0l0.1,0l0.1,0l0,0     l0.1,0.2l0,0.1l0.1,0.5l0,0.1l-0.1,0.7l0,0.1l0,0.3l0,0.2l-0.1,0.2l-0.1,0.2l0,0.2l0,0.4l0.1,0.4l0,0.1l0,0.1l0,0.1l0.1,0.1     l0.1,0.1l0.1,0.1l0.1,0.1l0,0.1l-0.2,1.8l0,0.1l0,0.1l0,0l-0.2,0.2l-0.1,0.1l-0.1,0.1l-0.3,0.2l-0.1,0.1l-0.2,0.3l-0.1,0.1     l-0.1,0.1l-0.2,0.3l-0.1,0.1l-0.1,0.2l-0.7,1.8l-0.1,0.2l-0.1,0.1l0,0.1l0,0.2l0,0.1l0,0.1l0,0l0.1,0.1l0,0l0,0l0.1,0.1l0,0     l0,0.1l-0.2,1.2l-0.5,2.3l-0.4,1.6l-0.4,1.5l-0.3,0.8l-0.3,0.5l-1,2.3l0,0.1l-0.1,0.5l0,0.4l-0.1,1l0,0.5l0,0.1l0,0.3l0,0.1     l0.1,0.4l0,0.1l0,0l0.2,0l0.2,0l0.1,0.6l-0.2,0.8l-0.7,1.9l-0.2,1.1l-0.6,1.6l-0.2,0.6l-0.1,0.5l-0.2,0.4l-0.6,1l-0.7,0.7     l-0.2,0.2l-0.1,0.1l-0.2,0.2l-0.3,0.3l-0.3,0.4l-0.4,0.8l0,0.1l0,0l0.3,1.2l-0.1,1.3l-1.2,0.9l-0.2,0.1l-0.2,0.2l-0.3,0.2     l-0.4,0.4L539,209.9z" fill="hsl(230, 100%, 61%)" stroke="hsl(0, 0%, 91%)"/>
        <path d="M509.8,240.1L509.8,240.1l0.4-0.5l0-0.1l0.1-0.2l0-0.9l-0.1-0.7l-0.1-0.2l0-0.1l0-0.1l0-0.1l0.5-1.6l0.1-0.1     l0.3-0.4l0.1-0.1l0.1-0.1l0,0l0.5-0.2l0.1,0l0.1,0l0.4,0.1l0.2,0.1l0.1,0l0.1,0l0,0l0.2-0.1l0.1-0.1l0.1-0.1l0,0l0,0l-0.5-0.2     l-0.1,0l-0.1,0l-0.1,0l-0.1,0l-0.5-0.2l-0.4-0.4l-0.1-0.1l0,0l0-0.1l0-0.1l-1-0.3l-2,1.1l-0.3,0.2l-0.2,0.1l-0.1,0.1l0,0.1l0,0.1     l0,0l-0.3,1.3l0,0.2l0,1.3l0.2,0.5l0,0l1.2,1.4l0.1,0.1l0,0l0.1,0.1l0.1,0L509.8,240.1L509.8,240.1z" fill="hsl(230, 100%, 61%)" stroke="hsl(0, 0%, 91%)"/>
      </g>
    </g>
  </g>
  <g id="Layer_2">
    <circle cx="265.1" cy="152.6" r="39.5" fill="hsl(0, 87%, 43%)"/>
    <circle cx="367.4" cy="95" r="23" fill="hsl(0, 87%, 43%)"/>
    <g>
      <circle cx="468.4" cy="125.5" r="25.2" fill="hsl(0, 87%, 43%)"/>
    </g>
    <g>
      <circle cx="382.6" cy="179.6" r="12.7" fill="hsl(0, 87%, 43%)"/>
    </g>
    <g>
      <circle cx="486.1" cy="297.1" r="7.1" fill="hsl(0, 87%, 43%)"/>
    </g>
    <g>
      <circle cx="486.1" cy="206.6" r="5.6" fill="hsl(0, 87%, 43%)"/>
    </g>
    <g>
      <circle cx="469.6" cy="253.6" r="13.5" fill="hsl(0, 87%, 43%)"/>
    </g>
    <g>
      <path d="M264.7,148.7c-0.3,0-0.6,0-0.9,0.1c-2,0.3-3,1.7-3.2,3.2h0c0.4-0.6,1.2-1.1,2.2-1.1c1.6,0,2.8,1.2,2.8,3    c0,1.7-1.1,3.2-3.1,3.2c-1.9,0-3.2-1.5-3.2-3.9c0-1.8,0.6-3.2,1.6-4.1c0.8-0.7,1.8-1.2,2.9-1.4c0.4-0.1,0.7-0.1,0.9-0.1V148.7z     M264.3,154c0-1.3-0.7-2.1-1.9-2.1c-0.7,0-1.5,0.5-1.8,1.1c-0.1,0.1-0.1,0.3-0.1,0.5c0,1.5,0.7,2.6,2,2.6    C263.6,156.2,264.3,155.3,264.3,154z" fill="hsl(0, 0%, 94%)"/>
      <path d="M272.6,147.8v0.8l-4,8.3h-1.3l4-8.1v0h-4.5v-1H272.6z" fill="hsl(0, 0%, 94%)"/>
    </g>
    <g>
      <g>
        <path d="M376.4,183.9v-0.8l1-0.9c2.3-2.2,3.4-3.4,3.4-4.8c0-0.9-0.4-1.8-1.8-1.8c-0.8,0-1.5,0.4-1.9,0.8l-0.4-0.9     c0.6-0.5,1.5-0.9,2.6-0.9c2,0,2.8,1.4,2.8,2.7c0,1.7-1.2,3.1-3.2,4.9l-0.7,0.7v0h4.1v1H376.4z" fill="hsl(0, 0%, 94%)"/>
        <path d="M386.3,175.9L386.3,175.9l-1.6,0.9l-0.2-0.9l2-1.1h1.1v9.2h-1.2V175.9z" fill="hsl(0, 0%, 94%)"/>
      </g>
    </g>
    <g>
      <g>
        <path d="M463,258.6v-0.8l1-0.9c2.3-2.2,3.4-3.4,3.4-4.8c0-0.9-0.4-1.8-1.8-1.8c-0.8,0-1.5,0.4-1.9,0.8l-0.4-0.9     c0.6-0.5,1.5-0.9,2.6-0.9c2,0,2.8,1.4,2.8,2.7c0,1.7-1.2,3.1-3.2,4.9l-0.7,0.7v0h4.1v1H463z" fill="hsl(0, 0%, 94%)"/>
        <path d="M470.5,257.2c0.4,0.2,1.2,0.6,2,0.6c1.6,0,2.1-1,2.1-1.8c0-1.3-1.2-1.8-2.4-1.8h-0.7v-0.9h0.7     c0.9,0,2-0.5,2-1.6c0-0.7-0.5-1.4-1.6-1.4c-0.7,0-1.4,0.3-1.8,0.6l-0.3-0.9c0.5-0.4,1.4-0.7,2.4-0.7c1.8,0,2.6,1.1,2.6,2.2     c0,1-0.6,1.8-1.7,2.2v0c1.1,0.2,2,1.1,2,2.3c0,1.5-1.2,2.8-3.3,2.8c-1,0-1.9-0.3-2.4-0.6L470.5,257.2z" fill="hsl(0, 0%, 94%)"/>
      </g>
    </g>
    <g>
      <g>
        <path d="M465.9,129.8v-2.5h-4.3v-0.8l4.1-5.9h1.3v5.7h1.3v1h-1.3v2.5H465.9z M465.9,126.4v-3.1c0-0.5,0-1,0-1.4h0     c-0.3,0.5-0.5,0.9-0.8,1.4l-2.2,3.1v0H465.9z" fill="hsl(0, 0%, 94%)"/>
        <path d="M469.3,129.8v-0.8l1-0.9c2.3-2.2,3.4-3.4,3.4-4.8c0-0.9-0.4-1.8-1.8-1.8c-0.8,0-1.5,0.4-1.9,0.8l-0.4-0.9     c0.6-0.5,1.5-0.9,2.6-0.9c2,0,2.8,1.4,2.8,2.7c0,1.7-1.2,3.1-3.2,4.9l-0.7,0.7v0h4.1v1H469.3z" fill="hsl(0, 0%, 94%)"/>
      </g>
    </g>
    <g>
      <g>
        <path d="M361.4,98.2c0.4,0.2,1.2,0.6,2,0.6c1.6,0,2.1-1,2.1-1.8c0-1.3-1.2-1.8-2.4-1.8h-0.7v-0.9h0.7     c0.9,0,2-0.5,2-1.6c0-0.7-0.5-1.4-1.6-1.4c-0.7,0-1.4,0.3-1.8,0.6l-0.3-0.9c0.5-0.4,1.4-0.7,2.4-0.7c1.8,0,2.6,1.1,2.6,2.2     c0,1-0.6,1.8-1.7,2.2v0c1.1,0.2,2,1.1,2,2.3c0,1.5-1.2,2.7-3.3,2.7c-1,0-1.9-0.3-2.4-0.6L361.4,98.2z" fill="hsl(0, 0%, 94%)"/>
        <path d="M369.1,98.7c0.3,0,0.6,0,1,0c0.7-0.1,1.4-0.4,1.9-0.9c0.6-0.5,1-1.4,1.2-2.4h0c-0.5,0.6-1.2,1-2.2,1     c-1.6,0-2.7-1.2-2.7-2.8c0-1.7,1.3-3.3,3.1-3.3s3,1.5,3,3.9c0,2-0.7,3.4-1.6,4.3c-0.7,0.7-1.7,1.1-2.7,1.2     c-0.5,0.1-0.8,0.1-1.1,0.1V98.7z M369.5,93.5c0,1.1,0.7,1.9,1.8,1.9c0.8,0,1.5-0.4,1.8-1c0.1-0.1,0.1-0.3,0.1-0.5     c0-1.6-0.6-2.8-1.9-2.8C370.3,91.2,369.5,92.2,369.5,93.5z" fill="hsl(0, 0%, 94%)"/>
      </g>
    </g>
    <g>
      <g>
        <path d="M483.4,294.7L483.4,294.7l-1.1,0.6l-0.2-0.6l1.3-0.7h0.7v6.1h-0.8V294.7z" fill="hsl(0, 0%, 94%)"/>
        <path d="M485.7,300v-0.5l0.6-0.6c1.6-1.5,2.3-2.3,2.3-3.2c0-0.6-0.3-1.2-1.2-1.2c-0.6,0-1,0.3-1.3,0.5l-0.3-0.6     c0.4-0.3,1-0.6,1.7-0.6c1.3,0,1.9,0.9,1.9,1.8c0,1.1-0.8,2-2.1,3.3l-0.5,0.5v0h2.7v0.7H485.7z" fill="hsl(0, 0%, 94%)"/>
      </g>
    </g>
    <g>
      <g>
        <path d="M484.5,209.2c0.2,0,0.4,0,0.7,0c0.5-0.1,0.9-0.3,1.3-0.6c0.4-0.4,0.7-0.9,0.8-1.6h0     c-0.3,0.4-0.8,0.6-1.4,0.6c-1.1,0-1.8-0.8-1.8-1.9c0-1.2,0.8-2.2,2.1-2.2c1.3,0,2,1,2,2.6c0,1.3-0.5,2.3-1.1,2.9     c-0.5,0.5-1.1,0.7-1.8,0.8c-0.3,0-0.6,0.1-0.8,0V209.2z M484.8,205.7c0,0.8,0.5,1.3,1.2,1.3c0.6,0,1-0.3,1.2-0.6     c0-0.1,0.1-0.2,0.1-0.3c0-1-0.4-1.8-1.3-1.8C485.3,204.2,484.8,204.8,484.8,205.7z" fill="hsl(0, 0%, 94%)"/>
      </g>
    </g>
    <g>
</g>
    <g>
</g>
    <g>
</g>
    <g>
</g>
    <g>
</g>
    <g>
</g>
    <g>
</g>
    <g>
</g>
    <g>
</g>
    <g>
</g>
  </g>
</svg>
