<?xml version='1.0' encoding='UTF-8'?>
<svg xmlns="http://www.w3.org/2000/svg" height="340" style="max-width: 100%; height: auto; font: 10px sans-serif;" viewBox="-70,-30,880,340" width="900">
  <g id="scales">
    <line x1="50.2" x2="50.2" y1="292" y2="21" fill="none" stroke="hsl(0, 0%, 38%)"/>
    <line x1="44.5" x2="50.7" y1="21.5" y2="21.5" fill="none" stroke="hsl(0, 0%, 38%)"/>
    <line x1="44.5" x2="50.7" y1="35.7" y2="35.7" fill="none" stroke="hsl(0, 0%, 38%)"/>
    <line x1="44.5" x2="50.7" y1="49.3" y2="49.3" fill="none" stroke="hsl(0, 0%, 38%)"/>
    <line x1="44.5" x2="50.7" y1="63.7" y2="63.7" fill="none" stroke="hsl(0, 0%, 38%)"/>
    <line x1="44.5" x2="50.7" y1="78.1" y2="78.1" fill="none" stroke="hsl(0, 0%, 38%)"/>
    <line x1="44.5" x2="50.7" y1="92.1" y2="92.1" fill="none" stroke="hsl(0, 0%, 38%)"/>
    <line x1="44.5" x2="50.7" y1="106.1" y2="106.1" fill="none" stroke="hsl(0, 0%, 38%)"/>
    <line x1="44.5" x2="50.7" y1="120" y2="120" fill="none" stroke="hsl(0, 0%, 38%)"/>
    <line x1="44.5" x2="50.7" y1="134.1" y2="134.1" fill="none" stroke="hsl(0, 0%, 38%)"/>
    <line x1="44.5" x2="50.7" y1="148.6" y2="148.6" fill="none" stroke="hsl(0, 0%, 38%)"/>
    <line x1="44.5" x2="50.7" y1="162.3" y2="162.3" fill="none" stroke="hsl(0, 0%, 38%)"/>
    <line x1="44.5" x2="50.7" y1="176.6" y2="176.6" fill="none" stroke="hsl(0, 0%, 38%)"/>
    <line x1="44.5" x2="50.7" y1="190.5" y2="190.5" fill="none" stroke="hsl(0, 0%, 38%)"/>
    <line x1="44.5" x2="50.7" y1="204.8" y2="204.8" fill="none" stroke="hsl(0, 0%, 38%)"/>
    <line x1="44.5" x2="50.7" y1="219.5" y2="219.5" fill="none" stroke="hsl(0, 0%, 38%)"/>
    <line x1="44.5" x2="50.7" y1="233.5" y2="233.5" fill="none" stroke="hsl(0, 0%, 38%)"/>
    <line x1="44.5" x2="50.7" y1="247.5" y2="247.5" fill="none" stroke="hsl(0, 0%, 38%)"/>
    <line x1="44.5" x2="50.7" y1="261.5" y2="261.5" fill="none" stroke="hsl(0, 0%, 38%)"/>
    <line x1="44.5" x2="50.7" y1="275.3" y2="275.3" fill="none" stroke="hsl(0, 0%, 38%)"/>
    <line x1="242.9" x2="242.9" y1="289" y2="293.3" fill="none" stroke="hsl(0, 0%, 38%)"/>
    <line x1="225.5" x2="225.5" y1="289" y2="293.3" fill="none" stroke="hsl(0, 0%, 38%)"/>
    <line x1="261" x2="261" y1="289" y2="293.3" fill="none" stroke="hsl(0, 0%, 38%)"/>
    <line x1="279.5" x2="279.5" y1="289" y2="293.3" fill="none" stroke="hsl(0, 0%, 38%)"/>
    <line x1="297.6" x2="297.6" y1="289" y2="293.3" fill="none" stroke="hsl(0, 0%, 38%)"/>
    <line x1="315" x2="315" y1="289" y2="293.3" fill="none" stroke="hsl(0, 0%, 38%)"/>
    <line x1="333.5" x2="333.5" y1="289" y2="293.3" fill="none" stroke="hsl(0, 0%, 38%)"/>
    <line x1="351.8" x2="351.8" y1="289" y2="293.3" fill="none" stroke="hsl(0, 0%, 38%)"/>
    <line x1="116" x2="116" y1="289" y2="293.3" fill="none" stroke="hsl(0, 0%, 38%)"/>
    <line x1="98.7" x2="98.7" y1="289" y2="293.3" fill="none" stroke="hsl(0, 0%, 38%)"/>
    <line x1="134.2" x2="134.2" y1="289" y2="293.3" fill="none" stroke="hsl(0, 0%, 38%)"/>
    <line x1="152.6" x2="152.6" y1="289" y2="293.3" fill="none" stroke="hsl(0, 0%, 38%)"/>
    <line x1="170.7" x2="170.7" y1="289" y2="293.3" fill="none" stroke="hsl(0, 0%, 38%)"/>
    <line x1="188.2" x2="188.2" y1="289" y2="293.3" fill="none" stroke="hsl(0, 0%, 38%)"/>
    <line x1="206.7" x2="206.7" y1="289" y2="293.3" fill="none" stroke="hsl(0, 0%, 38%)"/>
    <line x1="564.6" x2="564.6" y1="289" y2="293.3" fill="none" stroke="hsl(0, 0%, 38%)"/>
    <line x1="547.2" x2="547.2" y1="289" y2="293.3" fill="none" stroke="hsl(0, 0%, 38%)"/>
    <line x1="582.7" x2="582.7" y1="289" y2="293.3" fill="none" stroke="hsl(0, 0%, 38%)"/>
    <line x1="601.1" x2="601.1" y1="289" y2="293.3" fill="none" stroke="hsl(0, 0%, 38%)"/>
    <line x1="619.3" x2="619.3" y1="289" y2="293.3" fill="none" stroke="hsl(0, 0%, 38%)"/>
    <line x1="636.7" x2="636.7" y1="289" y2="293.3" fill="none" stroke="hsl(0, 0%, 38%)"/>
    <line x1="655.2" x2="655.2" y1="289" y2="293.3" fill="none" stroke="hsl(0, 0%, 38%)"/>
    <line x1="673.5" x2="673.5" y1="289" y2="293.3" fill="none" stroke="hsl(0, 0%, 38%)"/>
    <line x1="437.7" x2="437.7" y1="289" y2="293.3" fill="none" stroke="hsl(0, 0%, 38%)"/>
    <line x1="420.4" x2="420.4" y1="289" y2="293.3" fill="none" stroke="hsl(0, 0%, 38%)"/>
    <line x1="455.9" x2="455.9" y1="289" y2="293.3" fill="none" stroke="hsl(0, 0%, 38%)"/>
    <line x1="474.3" x2="474.3" y1="289" y2="293.3" fill="none" stroke="hsl(0, 0%, 38%)"/>
    <line x1="492.4" x2="492.4" y1="289" y2="293.3" fill="none" stroke="hsl(0, 0%, 38%)"/>
    <line x1="509.9" x2="509.9" y1="289" y2="293.3" fill="none" stroke="hsl(0, 0%, 38%)"/>
    <line x1="528.3" x2="528.3" y1="289" y2="293.3" fill="none" stroke="hsl(0, 0%, 38%)"/>
  </g>
  <g id="Layer_2">
    <rect height="12.8" width="109.2" x="116" y="275.8" fill="hsl(189, 53%, 51%)"/>
    <rect height="12.8" width="117" x="108.3" y="261.8" fill="hsl(189, 53%, 51%)"/>
    <rect height="12.8" width="114.2" x="111" y="247.9" fill="hsl(189, 53%, 51%)"/>
    <rect height="12.8" width="112.5" x="112.8" y="234" fill="hsl(189, 53%, 51%)"/>
    <rect height="12.8" width="96.2" x="129.1" y="220.2" fill="hsl(189, 53%, 51%)"/>
    <rect height="13.5" width="85.8" x="139.4" y="191" fill="hsl(189, 53%, 51%)"/>
    <rect height="12.8" width="78.1" x="147.1" y="177.2" fill="hsl(189, 53%, 51%)"/>
    <rect height="13" width="80.1" x="145.2" y="162.9" fill="hsl(189, 53%, 51%)"/>
    <rect height="12.5" width="75.1" x="150.2" y="149.3" fill="hsl(189, 53%, 51%)"/>
    <rect height="13.2" width="71.1" x="154.2" y="134.7" fill="hsl(189, 53%, 51%)"/>
    <rect height="13" width="67.5" x="157.9" y="120.5" fill="hsl(189, 53%, 51%)"/>
    <rect height="12.8" width="66.5" x="158.9" y="106.7" fill="hsl(189, 53%, 51%)"/>
    <rect height="12.9" width="55.8" x="169.6" y="92.7" fill="hsl(189, 53%, 51%)"/>
    <rect height="12.9" width="44.1" x="181.2" y="78.7" fill="hsl(189, 53%, 51%)"/>
    <rect height="13.2" width="34.8" x="190.6" y="64.3" fill="hsl(189, 53%, 51%)"/>
    <rect height="13.2" width="22.8" x="202.6" y="50" fill="hsl(189, 53%, 51%)"/>
    <rect height="12.4" width="15.8" x="209.6" y="36.3" fill="hsl(189, 53%, 51%)"/>
    <rect height="13" width="7.8" x="217.6" y="22.1" fill="hsl(189, 53%, 51%)"/>
    <rect height="13.2" width="90" x="135.2" y="205.5" fill="hsl(189, 53%, 51%)"/>
    <rect height="12.8" width="123.9" x="225.2" y="275.8" fill="hsl(340, 92%, 50%)"/>
    <rect height="12.8" width="114.7" x="225.2" y="261.8" fill="hsl(340, 92%, 50%)"/>
    <rect height="12.8" width="110.4" x="225.2" y="247.9" fill="hsl(340, 92%, 50%)"/>
    <rect height="12.8" width="104" x="225.2" y="234" fill="hsl(340, 92%, 50%)"/>
    <rect height="12.8" width="94.7" x="225.2" y="220.2" fill="hsl(340, 92%, 50%)"/>
    <rect height="13.5" width="83.8" x="225.2" y="191" fill="hsl(340, 92%, 50%)"/>
    <rect height="12.8" width="80.1" x="225.2" y="177.2" fill="hsl(340, 92%, 50%)"/>
    <rect height="13" width="82.6" x="225.2" y="162.9" fill="hsl(340, 92%, 50%)"/>
    <rect height="12.5" width="73.1" x="225.2" y="149.3" fill="hsl(340, 92%, 50%)"/>
    <rect height="13.2" width="68.1" x="225.2" y="134.7" fill="hsl(340, 92%, 50%)"/>
    <rect height="13" width="65" x="225.2" y="120.5" fill="hsl(340, 92%, 50%)"/>
    <rect height="12.8" width="61" x="225.2" y="106.7" fill="hsl(340, 92%, 50%)"/>
    <rect height="12.9" width="55.8" x="225.2" y="92.7" fill="hsl(340, 92%, 50%)"/>
    <rect height="12.9" width="50.3" x="225.2" y="78.7" fill="hsl(340, 92%, 50%)"/>
    <rect height="13.2" width="39.3" x="225.2" y="64.3" fill="hsl(340, 92%, 50%)"/>
    <rect height="13.2" width="29.1" x="225.2" y="50" fill="hsl(340, 92%, 50%)"/>
    <rect height="12.4" width="18.3" x="225.2" y="36.3" fill="hsl(340, 92%, 50%)"/>
    <rect height="13" width="11.1" x="225.3" y="22.1" fill="hsl(340, 92%, 50%)"/>
    <rect height="13.2" width="87" x="225.2" y="205.5" fill="hsl(340, 92%, 50%)"/>
    <rect height="12.8" width="85" x="461.8" y="275.8" fill="hsl(189, 53%, 51%)"/>
    <rect height="12.8" width="88.1" x="458.8" y="261.8" fill="hsl(189, 53%, 51%)"/>
    <rect height="12.8" width="87.7" x="459.2" y="247.9" fill="hsl(189, 53%, 51%)"/>
    <rect height="12.8" width="86.3" x="460.5" y="234" fill="hsl(189, 53%, 51%)"/>
    <rect height="12.8" width="83" x="463.9" y="220.2" fill="hsl(189, 53%, 51%)"/>
    <rect height="13.5" width="102.2" x="444.6" y="191" fill="hsl(189, 53%, 51%)"/>
    <rect height="12.8" width="97.8" x="449" y="177.2" fill="hsl(189, 53%, 51%)"/>
    <rect height="13" width="100.3" x="446.7" y="162.9" fill="hsl(189, 53%, 51%)"/>
    <rect height="12.5" width="97.1" x="449.9" y="149.3" fill="hsl(189, 53%, 51%)"/>
    <rect height="13.2" width="87.7" x="459.3" y="134.7" fill="hsl(189, 53%, 51%)"/>
    <rect height="13" width="79.6" x="467.4" y="120.5" fill="hsl(189, 53%, 51%)"/>
    <rect height="12.8" width="78.4" x="468.6" y="106.7" fill="hsl(189, 53%, 51%)"/>
    <rect height="12.9" width="66.4" x="480.6" y="92.7" fill="hsl(189, 53%, 51%)"/>
    <rect height="12.9" width="49.7" x="497.3" y="78.7" fill="hsl(189, 53%, 51%)"/>
    <rect height="13.2" width="36" x="511" y="64.3" fill="hsl(189, 53%, 51%)"/>
    <rect height="13.2" width="23.6" x="523.4" y="50" fill="hsl(189, 53%, 51%)"/>
    <rect height="12.4" width="13.3" x="533.7" y="36.3" fill="hsl(189, 53%, 51%)"/>
    <rect height="13" width="5.7" x="541.3" y="22.1" fill="hsl(189, 53%, 51%)"/>
    <rect height="13.2" width="95.2" x="451.7" y="205.5" fill="hsl(189, 53%, 51%)"/>
    <rect height="12.8" width="88.1" x="546.9" y="275.8" fill="hsl(340, 92%, 50%)"/>
    <rect height="12.8" width="96.2" x="546.9" y="261.8" fill="hsl(340, 92%, 50%)"/>
    <rect height="12.8" width="90.7" x="546.9" y="247.9" fill="hsl(340, 92%, 50%)"/>
    <rect height="12.8" width="90.9" x="546.9" y="234" fill="hsl(340, 92%, 50%)"/>
    <rect height="12.8" width="87.3" x="546.9" y="220.2" fill="hsl(340, 92%, 50%)"/>
    <rect height="13.5" width="92.8" x="546.9" y="191" fill="hsl(340, 92%, 50%)"/>
    <rect height="12.8" width="99.2" x="546.9" y="177.2" fill="hsl(340, 92%, 50%)"/>
    <rect height="13" width="104.7" x="546.9" y="162.9" fill="hsl(340, 92%, 50%)"/>
    <rect height="12.5" width="95.4" x="546.9" y="149.3" fill="hsl(340, 92%, 50%)"/>
    <rect height="13.2" width="84" x="546.9" y="134.7" fill="hsl(340, 92%, 50%)"/>
    <rect height="13" width="76.8" x="546.9" y="120.5" fill="hsl(340, 92%, 50%)"/>
    <rect height="12.8" width="72.1" x="546.9" y="106.7" fill="hsl(340, 92%, 50%)"/>
    <rect height="12.9" width="65.4" x="546.9" y="92.7" fill="hsl(340, 92%, 50%)"/>
    <rect height="12.9" width="56.3" x="546.9" y="78.7" fill="hsl(340, 92%, 50%)"/>
    <rect height="13.2" width="46.8" x="546.9" y="64.3" fill="hsl(340, 92%, 50%)"/>
    <rect height="13.2" width="34.7" x="546.9" y="50" fill="hsl(340, 92%, 50%)"/>
    <rect height="12.4" width="21.8" x="546.9" y="36.3" fill="hsl(340, 92%, 50%)"/>
    <rect height="13" width="13.2" x="546.9" y="22.1" fill="hsl(340, 92%, 50%)"/>
    <rect height="13.2" width="88.9" x="546.9" y="205.5" fill="hsl(340, 92%, 50%)"/>
  </g>
</svg>
