<?xml version='1.0' encoding='UTF-8'?>
<svg xmlns="http://www.w3.org/2000/svg" height="340" style="max-width: 100%; height: auto; font: 10px sans-serif;" viewBox="-70,-30,880,340" width="900">
  <g id="Layer_2">
    <rect height="23" width="54.2" x="55" y="12.1" fill="hsl(231, 80%, 80%)" stroke="hsl(0, 0%, 100%)" stroke-width="0.5"/>
    <rect height="23" width="54.2" x="55" y="35.1" fill="hsl(237, 78%, 73%)" stroke="hsl(0, 0%, 92%)" stroke-width="0.5"/>
    <rect height="23" width="54.2" x="55" y="58.1" fill="hsl(237, 78%, 73%)" stroke="hsl(0, 0%, 92%)" stroke-width="0.5"/>
    <rect height="23" width="54.2" x="55" y="81.1" fill="hsl(236, 46%, 81%)" stroke="hsl(0, 0%, 100%)" stroke-width="0.5"/>
    <rect height="23" width="54.2" x="55" y="104.1" fill="hsl(231, 80%, 80%)" stroke="hsl(0, 0%, 100%)" stroke-width="0.5"/>
    <rect height="23" width="54.2" x="55" y="127.1" fill="hsl(246, 79%, 64%)" stroke="hsl(0, 0%, 100%)" stroke-width="0.5"/>
    <rect height="23" width="54.2" x="55" y="150.1" fill="hsl(212, 70%, 63%)" stroke="hsl(0, 0%, 97%)" stroke-width="0.5"/>
    <rect height="23" width="54.2" x="55" y="173.1" fill="hsl(237, 78%, 73%)" stroke="hsl(0, 0%, 92%)" stroke-width="0.5"/>
    <rect height="23" width="54.2" x="55" y="196.1" fill="hsl(231, 80%, 80%)" stroke="hsl(0, 0%, 100%)" stroke-width="0.5"/>
    <rect height="23" width="54.2" x="55" y="219.1" fill="hsl(206, 82%, 64%)" stroke="hsl(0, 0%, 100%)" stroke-width="0.5"/>
    <rect height="23" width="54.2" x="55" y="242.1" fill="hsl(231, 80%, 80%)" stroke="hsl(0, 0%, 100%)" stroke-width="0.5"/>
    <rect height="23" width="54.2" x="55" y="265.1" fill="hsl(231, 80%, 80%)" stroke="hsl(0, 0%, 100%)" stroke-width="0.5"/>
    <rect height="23" width="54.2" x="109.2" y="12.1" fill="hsl(236, 46%, 81%)" stroke="hsl(0, 0%, 100%)" stroke-width="0.5"/>
    <rect height="23" width="54.2" x="109.2" y="35.1" fill="hsl(237, 78%, 73%)" stroke="hsl(0, 0%, 92%)" stroke-width="0.5"/>
    <rect height="23" width="54.2" x="109.2" y="58.1" fill="hsl(231, 80%, 80%)" stroke="hsl(0, 0%, 100%)" stroke-width="0.5"/>
    <rect height="23" width="54.2" x="109.2" y="81.1" fill="hsl(258, 23%, 78%)" stroke="hsl(0, 0%, 94%)" stroke-width="0.5"/>
    <rect height="23" width="54.2" x="109.2" y="104.1" fill="hsl(236, 46%, 81%)" stroke="hsl(0, 0%, 100%)" stroke-width="0.5"/>
    <rect height="23" width="54.2" x="109.2" y="127.1" fill="hsl(237, 78%, 73%)" stroke="hsl(0, 0%, 92%)" stroke-width="0.5"/>
    <rect height="23" width="54.2" x="109.2" y="150.1" fill="hsl(246, 79%, 64%)" stroke="hsl(0, 0%, 100%)" stroke-width="0.5"/>
    <rect height="23" width="54.2" x="109.2" y="173.1" fill="hsl(231, 80%, 80%)" stroke="hsl(0, 0%, 100%)" stroke-width="0.5"/>
    <rect height="23" width="54.2" x="109.2" y="196.1" fill="hsl(231, 80%, 80%)" stroke="hsl(0, 0%, 100%)" stroke-width="0.5"/>
    <rect height="23" width="54.2" x="109.2" y="219.1" fill="hsl(237, 78%, 73%)" stroke="hsl(0, 0%, 92%)" stroke-width="0.5"/>
    <rect height="23" width="54.2" x="109.2" y="242.1" fill="hsl(236, 46%, 81%)" stroke="hsl(0, 0%, 100%)" stroke-width="0.5"/>
    <rect height="23" width="54.2" x="109.2" y="265.1" fill="hsl(236, 46%, 81%)" stroke="hsl(0, 0%, 100%)" stroke-width="0.5"/>
    <rect height="23" width="54.2" x="163.3" y="12.1" fill="hsl(236, 46%, 81%)" stroke="hsl(0, 0%, 100%)" stroke-width="0.5"/>
    <rect height="23" width="54.2" x="163.3" y="35.1" fill="hsl(231, 80%, 80%)" stroke="hsl(0, 0%, 100%)" stroke-width="0.5"/>
    <rect height="23" width="54.2" x="163.3" y="58.1" fill="hsl(236, 46%, 81%)" stroke="hsl(0, 0%, 100%)" stroke-width="0.5"/>
    <rect height="23" width="54.2" x="163.3" y="81.1" fill="hsl(258, 23%, 78%)" stroke="hsl(0, 0%, 94%)" stroke-width="0.5"/>
    <rect height="23" width="54.2" x="163.3" y="104.1" fill="hsl(258, 23%, 78%)" stroke="hsl(0, 0%, 94%)" stroke-width="0.5"/>
    <rect height="23" width="54.2" x="163.3" y="127.1" fill="hsl(230, 76%, 81%)" stroke="hsl(0, 0%, 91%)" stroke-width="0.5"/>
    <rect height="23" width="54.2" x="163.3" y="150.1" fill="hsl(231, 80%, 80%)" stroke="hsl(0, 0%, 100%)" stroke-width="0.5"/>
    <rect height="23" width="54.2" x="163.3" y="173.1" fill="hsl(258, 23%, 78%)" stroke="hsl(0, 0%, 94%)" stroke-width="0.5"/>
    <rect height="23" width="54.2" x="163.3" y="196.1" fill="hsl(236, 46%, 81%)" stroke="hsl(0, 0%, 100%)" stroke-width="0.5"/>
    <rect height="23" width="54.2" x="163.3" y="219.1" fill="hsl(231, 80%, 80%)" stroke="hsl(0, 0%, 100%)" stroke-width="0.5"/>
    <rect height="23" width="54.2" x="163.3" y="242.1" fill="hsl(311, 8%, 65%)" stroke="hsl(0, 0%, 97%)" stroke-width="0.5"/>
    <rect height="23" width="54.2" x="163.3" y="265.1" fill="hsl(236, 46%, 81%)" stroke="hsl(0, 0%, 100%)" stroke-width="0.5"/>
    <rect height="23" width="54.2" x="217.5" y="12.1" fill="hsl(311, 8%, 65%)" stroke="hsl(0, 0%, 97%)" stroke-width="0.5"/>
    <rect height="23" width="54.2" x="217.5" y="35.1" fill="hsl(236, 46%, 81%)" stroke="hsl(0, 0%, 100%)" stroke-width="0.5"/>
    <rect height="23" width="54.2" x="217.5" y="58.1" fill="hsl(311, 8%, 65%)" stroke="hsl(0, 0%, 97%)" stroke-width="0.5"/>
    <rect height="23" width="54.2" x="217.5" y="81.1" fill="hsl(15, 19%, 66%)" stroke="hsl(0, 0%, 100%)" stroke-width="0.5"/>
    <rect height="23" width="54.2" x="217.5" y="104.1" fill="hsl(258, 23%, 78%)" stroke="hsl(0, 0%, 94%)" stroke-width="0.5"/>
    <rect height="23" width="54.2" x="217.5" y="127.1" fill="hsl(231, 80%, 80%)" stroke="hsl(0, 0%, 100%)" stroke-width="0.5"/>
    <rect height="23" width="54.2" x="217.5" y="150.1" fill="hsl(236, 46%, 81%)" stroke="hsl(0, 0%, 100%)" stroke-width="0.5"/>
    <rect height="23" width="54.2" x="217.5" y="173.1" fill="hsl(15, 19%, 66%)" stroke="hsl(0, 0%, 100%)" stroke-width="0.5"/>
    <rect height="23" width="54.2" x="217.5" y="196.1" fill="hsl(258, 23%, 78%)" stroke="hsl(0, 0%, 94%)" stroke-width="0.5"/>
    <rect height="23" width="54.2" x="217.5" y="219.1" fill="hsl(236, 46%, 81%)" stroke="hsl(0, 0%, 100%)" stroke-width="0.5"/>
    <rect height="23" width="54.2" x="217.5" y="242.1" fill="hsl(30, 59%, 70%)" stroke="hsl(0, 0%, 100%)" stroke-width="0.5"/>
    <rect height="23" width="54.2" x="217.5" y="265.1" fill="hsl(311, 8%, 65%)" stroke="hsl(0, 0%, 97%)" stroke-width="0.5"/>
    <rect height="23" width="54.2" x="271.7" y="12.1" fill="hsl(311, 8%, 65%)" stroke="hsl(0, 0%, 97%)" stroke-width="0.5"/>
    <rect height="23" width="54.2" x="271.7" y="35.1" fill="hsl(258, 23%, 78%)" stroke="hsl(0, 0%, 94%)" stroke-width="0.5"/>
    <rect height="23" width="54.2" x="271.7" y="58.1" fill="hsl(15, 19%, 66%)" stroke="hsl(0, 0%, 100%)" stroke-width="0.5"/>
    <rect height="23" width="54.2" x="271.7" y="81.1" fill="hsl(15, 19%, 66%)" stroke="hsl(0, 0%, 100%)" stroke-width="0.5"/>
    <rect height="23" width="54.2" x="271.7" y="104.1" fill="hsl(258, 23%, 78%)" stroke="hsl(0, 0%, 94%)" stroke-width="0.5"/>
    <rect height="23" width="54.2" x="271.7" y="127.1" fill="hsl(236, 46%, 81%)" stroke="hsl(0, 0%, 100%)" stroke-width="0.5"/>
    <rect height="23" width="54.2" x="271.7" y="150.1" fill="hsl(311, 8%, 65%)" stroke="hsl(0, 0%, 97%)" stroke-width="0.5"/>
    <rect height="23" width="54.2" x="271.7" y="173.1" fill="hsl(15, 19%, 66%)" stroke="hsl(0, 0%, 100%)" stroke-width="0.5"/>
    <rect height="23" width="54.2" x="271.7" y="196.1" fill="hsl(15, 19%, 66%)" stroke="hsl(0, 0%, 100%)" stroke-width="0.5"/>
    <rect height="23" width="54.2" x="271.7" y="219.1" fill="hsl(236, 46%, 81%)" stroke="hsl(0, 0%, 100%)" stroke-width="0.5"/>
    <rect height="23" width="54.2" x="271.7" y="242.1" fill="hsl(35, 72%, 62%)" stroke="hsl(0, 0%, 100%)" stroke-width="0.5"/>
    <rect height="23" width="54.2" x="271.7" y="265.1" fill="hsl(311, 8%, 65%)" stroke="hsl(0, 0%, 97%)" stroke-width="0.5"/>
    <rect height="23" width="54.2" x="325.8" y="12.1" fill="hsl(15, 19%, 66%)" stroke="hsl(0, 0%, 100%)" stroke-width="0.5"/>
    <rect height="23" width="54.2" x="325.8" y="35.1" fill="hsl(311, 8%, 65%)" stroke="hsl(0, 0%, 97%)" stroke-width="0.5"/>
    <rect height="23" width="54.2" x="325.8" y="58.1" fill="hsl(27, 40%, 71%)" stroke="hsl(0, 0%, 100%)" stroke-width="0.5"/>
    <rect height="23" width="54.2" x="325.8" y="81.1" fill="hsl(35, 72%, 62%)" stroke="hsl(0, 0%, 100%)" stroke-width="0.5"/>
    <rect height="23" width="54.2" x="325.8" y="104.1" fill="hsl(15, 19%, 66%)" stroke="hsl(0, 0%, 100%)" stroke-width="0.5"/>
    <rect height="23" width="54.2" x="325.8" y="127.1" fill="hsl(311, 8%, 65%)" stroke="hsl(0, 0%, 97%)" stroke-width="0.5"/>
    <rect height="23" width="54.2" x="325.8" y="150.1" fill="hsl(27, 40%, 71%)" stroke="hsl(0, 0%, 100%)" stroke-width="0.5"/>
    <rect height="23" width="54.2" x="325.8" y="173.1" fill="hsl(35, 72%, 62%)" stroke="hsl(0, 0%, 100%)" stroke-width="0.5"/>
    <rect height="23" width="54.2" x="325.8" y="196.1" fill="hsl(15, 19%, 66%)" stroke="hsl(0, 0%, 100%)" stroke-width="0.5"/>
    <rect height="23" width="54.2" x="325.8" y="219.1" fill="hsl(258, 23%, 78%)" stroke="hsl(0, 0%, 94%)" stroke-width="0.5"/>
    <rect height="23" width="54.2" x="325.8" y="242.1" fill="hsl(35, 72%, 62%)" stroke="hsl(0, 0%, 100%)" stroke-width="0.5"/>
    <rect height="23" width="54.2" x="325.8" y="265.1" fill="hsl(15, 19%, 66%)" stroke="hsl(0, 0%, 100%)" stroke-width="0.5"/>
    <rect height="23" width="54.2" x="380" y="12.1" fill="hsl(35, 72%, 62%)" stroke="hsl(0, 0%, 100%)" stroke-width="0.5"/>
    <rect height="23" width="54.2" x="380" y="35.1" fill="hsl(30, 59%, 70%)" stroke="hsl(0, 0%, 100%)" stroke-width="0.5"/>
    <rect height="23" width="54.2" x="380" y="58.1" fill="hsl(35, 93%, 69%)" stroke="hsl(0, 0%, 100%)" stroke-width="0.5"/>
    <rect height="23" width="54.2" x="380" y="81.1" fill="hsl(38, 98%, 64%)" stroke="hsl(0, 0%, 100%)" stroke-width="0.5"/>
    <rect height="23" width="54.2" x="380" y="104.1" fill="hsl(27, 40%, 71%)" stroke="hsl(0, 0%, 100%)" stroke-width="0.5"/>
    <rect height="23" width="54.2" x="380" y="127.1" fill="hsl(311, 8%, 65%)" stroke="hsl(0, 0%, 97%)" stroke-width="0.5"/>
    <rect height="23" width="54.2" x="380" y="150.1" fill="hsl(30, 59%, 70%)" stroke="hsl(0, 0%, 100%)" stroke-width="0.5"/>
    <rect height="23" width="54.2" x="380" y="173.1" fill="hsl(35, 93%, 69%)" stroke="hsl(0, 0%, 100%)" stroke-width="0.5"/>
    <rect height="23" width="54.2" x="380" y="196.1" fill="hsl(27, 40%, 71%)" stroke="hsl(0, 0%, 100%)" stroke-width="0.5"/>
    <rect height="23" width="54.2" x="380" y="219.1" fill="hsl(311, 8%, 65%)" stroke="hsl(0, 0%, 97%)" stroke-width="0.5"/>
    <rect height="23" width="54.2" x="380" y="242.1" fill="hsl(38, 98%, 64%)" stroke="hsl(0, 0%, 100%)" stroke-width="0.5"/>
    <rect height="23" width="54.2" x="380" y="265.1" fill="hsl(30, 59%, 70%)" stroke="hsl(0, 0%, 100%)" stroke-width="0.5"/>
    <rect height="23" width="54.2" x="434.2" y="12.1" fill="hsl(15, 19%, 66%)" stroke="hsl(0, 0%, 100%)" stroke-width="0.5"/>
    <rect height="23" width="54.2" x="434.2" y="35.1" fill="hsl(27, 40%, 71%)" stroke="hsl(0, 0%, 100%)" stroke-width="0.5"/>
    <rect height="23" width="54.2" x="434.2" y="58.1" fill="hsl(30, 59%, 70%)" stroke="hsl(0, 0%, 100%)" stroke-width="0.5"/>
    <rect height="23" width="54.2" x="434.2" y="81.1" fill="hsl(35, 93%, 69%)" stroke="hsl(0, 0%, 100%)" stroke-width="0.5"/>
    <rect height="23" width="54.2" x="434.2" y="104.1" fill="hsl(27, 40%, 71%)" stroke="hsl(0, 0%, 100%)" stroke-width="0.5"/>
    <rect height="23" width="54.2" x="434.2" y="127.1" fill="hsl(311, 8%, 65%)" stroke="hsl(0, 0%, 97%)" stroke-width="0.5"/>
    <rect height="23" width="54.2" x="434.2" y="150.1" fill="hsl(15, 19%, 66%)" stroke="hsl(0, 0%, 100%)" stroke-width="0.5"/>
    <rect height="23" width="54.2" x="434.2" y="173.1" fill="hsl(30, 59%, 70%)" stroke="hsl(0, 0%, 100%)" stroke-width="0.5"/>
    <rect height="23" width="54.2" x="434.2" y="196.1" fill="hsl(15, 19%, 66%)" stroke="hsl(0, 0%, 100%)" stroke-width="0.5"/>
    <rect height="23" width="54.2" x="434.2" y="219.1" fill="hsl(258, 23%, 78%)" stroke="hsl(0, 0%, 94%)" stroke-width="0.5"/>
    <rect height="23" width="54.2" x="434.2" y="242.1" fill="hsl(35, 93%, 69%)" stroke="hsl(0, 0%, 100%)" stroke-width="0.5"/>
    <rect height="23" width="54.2" x="434.2" y="265.1" fill="hsl(27, 40%, 71%)" stroke="hsl(0, 0%, 100%)" stroke-width="0.5"/>
    <rect height="23" width="54.2" x="488.3" y="12.1" fill="hsl(311, 8%, 65%)" stroke="hsl(0, 0%, 97%)" stroke-width="0.5"/>
    <rect height="23" width="54.2" x="488.3" y="35.1" fill="hsl(311, 8%, 65%)" stroke="hsl(0, 0%, 97%)" stroke-width="0.5"/>
    <rect height="23" width="54.2" x="488.3" y="58.1" fill="hsl(15, 19%, 66%)" stroke="hsl(0, 0%, 100%)" stroke-width="0.5"/>
    <rect height="23" width="54.2" x="488.3" y="81.1" fill="hsl(30, 59%, 70%)" stroke="hsl(0, 0%, 100%)" stroke-width="0.5"/>
    <rect height="23" width="54.2" x="488.3" y="104.1" fill="hsl(311, 8%, 65%)" stroke="hsl(0, 0%, 97%)" stroke-width="0.5"/>
    <rect height="23" width="54.2" x="488.3" y="127.1" fill="hsl(258, 23%, 78%)" stroke="hsl(0, 0%, 94%)" stroke-width="0.5"/>
    <rect height="23" width="54.2" x="488.3" y="150.1" fill="hsl(311, 8%, 65%)" stroke="hsl(0, 0%, 97%)" stroke-width="0.5"/>
    <rect height="23" width="54.2" x="488.3" y="173.1" fill="hsl(15, 19%, 66%)" stroke="hsl(0, 0%, 100%)" stroke-width="0.5"/>
    <rect height="23" width="54.2" x="488.3" y="196.1" fill="hsl(311, 8%, 65%)" stroke="hsl(0, 0%, 97%)" stroke-width="0.5"/>
    <rect height="23" width="54.2" x="488.3" y="219.1" fill="hsl(258, 23%, 78%)" stroke="hsl(0, 0%, 94%)" stroke-width="0.5"/>
    <rect height="23" width="54.2" x="488.3" y="242.1" fill="hsl(30, 59%, 70%)" stroke="hsl(0, 0%, 100%)" stroke-width="0.5"/>
    <rect height="23" width="54.2" x="488.3" y="265.1" fill="hsl(311, 8%, 65%)" stroke="hsl(0, 0%, 97%)" stroke-width="0.5"/>
    <rect height="23" width="54.2" x="542.5" y="12.1" fill="hsl(258, 23%, 78%)" stroke="hsl(0, 0%, 94%)" stroke-width="0.5"/>
    <rect height="23" width="54.2" x="542.5" y="35.1" fill="hsl(236, 46%, 81%)" stroke="hsl(0, 0%, 100%)" stroke-width="0.5"/>
    <rect height="23" width="54.2" x="542.5" y="58.1" fill="hsl(258, 23%, 78%)" stroke="hsl(0, 0%, 94%)" stroke-width="0.5"/>
    <rect height="23" width="54.2" x="542.5" y="81.1" fill="hsl(15, 19%, 66%)" stroke="hsl(0, 0%, 100%)" stroke-width="0.5"/>
    <rect height="23" width="54.2" x="542.5" y="104.1" fill="hsl(258, 23%, 78%)" stroke="hsl(0, 0%, 94%)" stroke-width="0.5"/>
    <rect height="23" width="54.2" x="542.5" y="127.1" fill="hsl(236, 46%, 81%)" stroke="hsl(0, 0%, 100%)" stroke-width="0.5"/>
    <rect height="23" width="54.2" x="542.5" y="150.1" fill="hsl(231, 80%, 80%)" stroke="hsl(0, 0%, 100%)" stroke-width="0.5"/>
    <rect height="23" width="54.2" x="542.5" y="173.1" fill="hsl(258, 23%, 78%)" stroke="hsl(0, 0%, 94%)" stroke-width="0.5"/>
    <rect height="23" width="54.2" x="542.5" y="196.1" fill="hsl(236, 46%, 81%)" stroke="hsl(0, 0%, 100%)" stroke-width="0.5"/>
    <rect height="23" width="54.2" x="542.5" y="219.1" fill="hsl(231, 80%, 80%)" stroke="hsl(0, 0%, 100%)" stroke-width="0.5"/>
    <rect height="23" width="54.2" x="542.5" y="242.1" fill="hsl(15, 19%, 66%)" stroke="hsl(0, 0%, 100%)" stroke-width="0.5"/>
    <rect height="23" width="54.2" x="542.5" y="265.1" fill="hsl(311, 8%, 65%)" stroke="hsl(0, 0%, 97%)" stroke-width="0.5"/>
    <rect height="23" width="54.2" x="596.7" y="12.1" fill="hsl(236, 46%, 81%)" stroke="hsl(0, 0%, 100%)" stroke-width="0.5"/>
    <rect height="23" width="54.2" x="596.7" y="35.1" fill="hsl(231, 80%, 80%)" stroke="hsl(0, 0%, 100%)" stroke-width="0.5"/>
    <rect height="23" width="54.2" x="596.7" y="58.1" fill="hsl(258, 23%, 78%)" stroke="hsl(0, 0%, 94%)" stroke-width="0.5"/>
    <rect height="23" width="54.2" x="596.7" y="81.1" fill="hsl(258, 23%, 78%)" stroke="hsl(0, 0%, 94%)" stroke-width="0.5"/>
    <rect height="23" width="54.2" x="596.7" y="104.1" fill="hsl(236, 46%, 81%)" stroke="hsl(0, 0%, 100%)" stroke-width="0.5"/>
    <rect height="23" width="54.2" x="596.7" y="127.1" fill="hsl(231, 80%, 80%)" stroke="hsl(0, 0%, 100%)" stroke-width="0.5"/>
    <rect height="23" width="54.2" x="596.7" y="150.1" fill="hsl(230, 76%, 81%)" stroke="hsl(0, 0%, 91%)" stroke-width="0.5"/>
    <rect height="23" width="54.2" x="596.7" y="173.1" fill="hsl(236, 46%, 81%)" stroke="hsl(0, 0%, 100%)" stroke-width="0.5"/>
    <rect height="23" width="54.2" x="596.7" y="196.1" fill="hsl(231, 80%, 80%)" stroke="hsl(0, 0%, 100%)" stroke-width="0.5"/>
    <rect height="23" width="54.2" x="596.7" y="219.1" fill="hsl(231, 80%, 80%)" stroke="hsl(0, 0%, 100%)" stroke-width="0.5"/>
    <rect height="23" width="54.2" x="596.7" y="242.1" fill="hsl(258, 23%, 78%)" stroke="hsl(0, 0%, 94%)" stroke-width="0.5"/>
    <rect height="23" width="54.2" x="596.7" y="265.1" fill="hsl(236, 46%, 81%)" stroke="hsl(0, 0%, 100%)" stroke-width="0.5"/>
    <rect height="23" width="54.2" x="650.8" y="12.1" fill="hsl(236, 46%, 81%)" stroke="hsl(0, 0%, 100%)" stroke-width="0.5"/>
    <rect height="23" width="54.2" x="650.8" y="35.1" fill="hsl(237, 78%, 73%)" stroke="hsl(0, 0%, 92%)" stroke-width="0.5"/>
    <rect height="23" width="54.2" x="650.8" y="58.1" fill="hsl(231, 80%, 80%)" stroke="hsl(0, 0%, 100%)" stroke-width="0.5"/>
    <rect height="23" width="54.2" x="650.8" y="81.1" fill="hsl(258, 23%, 78%)" stroke="hsl(0, 0%, 94%)" stroke-width="0.5"/>
    <rect height="23" width="54.2" x="650.8" y="104.1" fill="hsl(236, 46%, 81%)" stroke="hsl(0, 0%, 100%)" stroke-width="0.5"/>
    <rect height="23" width="54.2" x="650.8" y="127.1" fill="hsl(230, 76%, 81%)" stroke="hsl(0, 0%, 91%)" stroke-width="0.5"/>
    <rect height="23" width="54.2" x="650.8" y="150.1" fill="hsl(237, 78%, 73%)" stroke="hsl(0, 0%, 92%)" stroke-width="0.5"/>
    <rect height="23" width="54.2" x="650.8" y="173.1" fill="hsl(231, 80%, 80%)" stroke="hsl(0, 0%, 100%)" stroke-width="0.5"/>
    <rect height="23" width="54.2" x="650.8" y="196.1" fill="hsl(231, 80%, 80%)" stroke="hsl(0, 0%, 100%)" stroke-width="0.5"/>
    <rect height="23" width="54.2" x="650.8" y="219.1" fill="hsl(237, 78%, 73%)" stroke="hsl(0, 0%, 92%)" stroke-width="0.5"/>
    <rect height="23" width="54.2" x="650.8" y="242.1" fill="hsl(231, 80%, 80%)" stroke="hsl(0, 0%, 100%)" stroke-width="0.5"/>
    <rect height="23" width="54.2" x="650.8" y="265.1" fill="hsl(231, 80%, 80%)" stroke="hsl(0, 0%, 100%)" stroke-width="0.5"/>
  </g>
</svg>
