<?xml version='1.0' encoding='UTF-8'?>
<svg xmlns="http://www.w3.org/2000/svg" height="340" style="max-width: 100%; height: auto; font: 10px sans-serif;" viewBox="-70,-30,880,340" width="900">
  <g id="Layer_2">
    <rect height="23" width="54.2" x="55" y="12.1" fill="hsl(211, 88%, 74%)" stroke="hsl(0, 0%, 92%)" stroke-width="0.5"/>
    <rect height="23" width="54.2" x="55" y="35.1" fill="hsl(218, 77%, 78%)" stroke="hsl(0, 0%, 94%)" stroke-width="0.5"/>
    <rect height="23" width="54.2" x="55" y="58.1" fill="hsl(218, 77%, 78%)" stroke="hsl(0, 0%, 94%)" stroke-width="0.5"/>
    <rect height="23" width="54.2" x="55" y="81.1" fill="hsl(219, 55%, 69%)" stroke="hsl(0, 0%, 98%)" stroke-width="0.5"/>
    <rect height="23" width="54.2" x="55" y="104.1" fill="hsl(211, 88%, 74%)" stroke="hsl(0, 0%, 92%)" stroke-width="0.5"/>
    <rect height="23" width="54.2" x="55" y="127.1" fill="hsl(204, 83%, 63%)" stroke="hsl(0, 0%, 92%)" stroke-width="0.5"/>
    <rect height="23" width="54.2" x="55" y="150.1" fill="hsl(237, 77%, 65%)" stroke="hsl(0, 0%, 100%)" stroke-width="0.5"/>
    <rect height="23" width="54.2" x="55" y="173.1" fill="hsl(218, 77%, 78%)" stroke="hsl(0, 0%, 94%)" stroke-width="0.5"/>
    <rect height="23" width="54.2" x="55" y="196.1" fill="hsl(211, 88%, 74%)" stroke="hsl(0, 0%, 92%)" stroke-width="0.5"/>
    <rect height="23" width="54.2" x="55" y="219.1" fill="hsl(229, 68%, 64%)" stroke="hsl(0, 0%, 100%)" stroke-width="0.5"/>
    <rect height="23" width="54.2" x="55" y="242.1" fill="hsl(211, 88%, 74%)" stroke="hsl(0, 0%, 92%)" stroke-width="0.5"/>
    <rect height="23" width="54.2" x="55" y="265.1" fill="hsl(211, 88%, 74%)" stroke="hsl(0, 0%, 92%)" stroke-width="0.5"/>
    <rect height="23" width="54.2" x="109.2" y="12.1" fill="hsl(219, 55%, 69%)" stroke="hsl(0, 0%, 98%)" stroke-width="0.5"/>
    <rect height="23" width="54.2" x="109.2" y="35.1" fill="hsl(218, 77%, 78%)" stroke="hsl(0, 0%, 94%)" stroke-width="0.5"/>
    <rect height="23" width="54.2" x="109.2" y="58.1" fill="hsl(211, 88%, 74%)" stroke="hsl(0, 0%, 92%)" stroke-width="0.5"/>
    <rect height="23" width="54.2" x="109.2" y="81.1" fill="hsl(242, 23%, 76%)" stroke="hsl(0, 0%, 100%)" stroke-width="0.5"/>
    <rect height="23" width="54.2" x="109.2" y="104.1" fill="hsl(219, 55%, 69%)" stroke="hsl(0, 0%, 98%)" stroke-width="0.5"/>
    <rect height="23" width="54.2" x="109.2" y="127.1" fill="hsl(218, 77%, 78%)" stroke="hsl(0, 0%, 94%)" stroke-width="0.5"/>
    <rect height="23" width="54.2" x="109.2" y="150.1" fill="hsl(204, 83%, 63%)" stroke="hsl(0, 0%, 92%)" stroke-width="0.5"/>
    <rect height="23" width="54.2" x="109.2" y="173.1" fill="hsl(211, 88%, 74%)" stroke="hsl(0, 0%, 92%)" stroke-width="0.5"/>
    <rect height="23" width="54.2" x="109.2" y="196.1" fill="hsl(211, 88%, 74%)" stroke="hsl(0, 0%, 92%)" stroke-width="0.5"/>
    <rect height="23" width="54.2" x="109.2" y="219.1" fill="hsl(218, 77%, 78%)" stroke="hsl(0, 0%, 94%)" stroke-width="0.5"/>
    <rect height="23" width="54.2" x="109.2" y="242.1" fill="hsl(219, 55%, 69%)" stroke="hsl(0, 0%, 98%)" stroke-width="0.5"/>
    <rect height="23" width="54.2" x="109.2" y="265.1" fill="hsl(219, 55%, 69%)" stroke="hsl(0, 0%, 98%)" stroke-width="0.5"/>
    <rect height="23" width="54.2" x="163.3" y="12.1" fill="hsl(219, 55%, 69%)" stroke="hsl(0, 0%, 98%)" stroke-width="0.5"/>
    <rect height="23" width="54.2" x="163.3" y="35.1" fill="hsl(211, 88%, 74%)" stroke="hsl(0, 0%, 92%)" stroke-width="0.5"/>
    <rect height="23" width="54.2" x="163.3" y="58.1" fill="hsl(219, 55%, 69%)" stroke="hsl(0, 0%, 98%)" stroke-width="0.5"/>
    <rect height="23" width="54.2" x="163.3" y="81.1" fill="hsl(242, 23%, 76%)" stroke="hsl(0, 0%, 100%)" stroke-width="0.5"/>
    <rect height="23" width="54.2" x="163.3" y="104.1" fill="hsl(242, 23%, 76%)" stroke="hsl(0, 0%, 100%)" stroke-width="0.5"/>
    <rect height="23" width="54.2" x="163.3" y="127.1" fill="hsl(204, 82%, 71%)" stroke="hsl(0, 0%, 94%)" stroke-width="0.5"/>
    <rect height="23" width="54.2" x="163.3" y="150.1" fill="hsl(211, 88%, 74%)" stroke="hsl(0, 0%, 92%)" stroke-width="0.5"/>
    <rect height="23" width="54.2" x="163.3" y="173.1" fill="hsl(242, 23%, 76%)" stroke="hsl(0, 0%, 100%)" stroke-width="0.5"/>
    <rect height="23" width="54.2" x="163.3" y="196.1" fill="hsl(219, 55%, 69%)" stroke="hsl(0, 0%, 98%)" stroke-width="0.5"/>
    <rect height="23" width="54.2" x="163.3" y="219.1" fill="hsl(211, 88%, 74%)" stroke="hsl(0, 0%, 92%)" stroke-width="0.5"/>
    <rect height="23" width="54.2" x="163.3" y="242.1" fill="hsl(302, 8%, 65%)" stroke="hsl(0, 0%, 100%)" stroke-width="0.5"/>
    <rect height="23" width="54.2" x="163.3" y="265.1" fill="hsl(219, 55%, 69%)" stroke="hsl(0, 0%, 98%)" stroke-width="0.5"/>
    <rect height="23" width="54.2" x="217.5" y="12.1" fill="hsl(302, 8%, 65%)" stroke="hsl(0, 0%, 100%)" stroke-width="0.5"/>
    <rect height="23" width="54.2" x="217.5" y="35.1" fill="hsl(219, 55%, 69%)" stroke="hsl(0, 0%, 98%)" stroke-width="0.5"/>
    <rect height="23" width="54.2" x="217.5" y="58.1" fill="hsl(302, 8%, 65%)" stroke="hsl(0, 0%, 100%)" stroke-width="0.5"/>
    <rect height="23" width="54.2" x="217.5" y="81.1" fill="hsl(17, 21%, 77%)" stroke="hsl(0, 0%, 99%)" stroke-width="0.5"/>
    <rect height="23" width="54.2" x="217.5" y="104.1" fill="hsl(242, 23%, 76%)" stroke="hsl(0, 0%, 100%)" stroke-width="0.5"/>
    <rect height="23" width="54.2" x="217.5" y="127.1" fill="hsl(211, 88%, 74%)" stroke="hsl(0, 0%, 92%)" stroke-width="0.5"/>
    <rect height="23" width="54.2" x="217.5" y="150.1" fill="hsl(219, 55%, 69%)" stroke="hsl(0, 0%, 98%)" stroke-width="0.5"/>
    <rect height="23" width="54.2" x="217.5" y="173.1" fill="hsl(17, 21%, 77%)" stroke="hsl(0, 0%, 99%)" stroke-width="0.5"/>
    <rect height="23" width="54.2" x="217.5" y="196.1" fill="hsl(242, 23%, 76%)" stroke="hsl(0, 0%, 100%)" stroke-width="0.5"/>
    <rect height="23" width="54.2" x="217.5" y="219.1" fill="hsl(219, 55%, 69%)" stroke="hsl(0, 0%, 98%)" stroke-width="0.5"/>
    <rect height="23" width="54.2" x="217.5" y="242.1" fill="hsl(29, 54%, 72%)" stroke="hsl(0, 0%, 95%)" stroke-width="0.5"/>
    <rect height="23" width="54.2" x="217.5" y="265.1" fill="hsl(302, 8%, 65%)" stroke="hsl(0, 0%, 100%)" stroke-width="0.5"/>
    <rect height="23" width="54.2" x="271.7" y="12.1" fill="hsl(302, 8%, 65%)" stroke="hsl(0, 0%, 100%)" stroke-width="0.5"/>
    <rect height="23" width="54.2" x="271.7" y="35.1" fill="hsl(242, 23%, 76%)" stroke="hsl(0, 0%, 100%)" stroke-width="0.5"/>
    <rect height="23" width="54.2" x="271.7" y="58.1" fill="hsl(17, 21%, 77%)" stroke="hsl(0, 0%, 99%)" stroke-width="0.5"/>
    <rect height="23" width="54.2" x="271.7" y="81.1" fill="hsl(17, 21%, 77%)" stroke="hsl(0, 0%, 99%)" stroke-width="0.5"/>
    <rect height="23" width="54.2" x="271.7" y="104.1" fill="hsl(242, 23%, 76%)" stroke="hsl(0, 0%, 100%)" stroke-width="0.5"/>
    <rect height="23" width="54.2" x="271.7" y="127.1" fill="hsl(219, 55%, 69%)" stroke="hsl(0, 0%, 98%)" stroke-width="0.5"/>
    <rect height="23" width="54.2" x="271.7" y="150.1" fill="hsl(302, 8%, 65%)" stroke="hsl(0, 0%, 100%)" stroke-width="0.5"/>
    <rect height="23" width="54.2" x="271.7" y="173.1" fill="hsl(17, 21%, 77%)" stroke="hsl(0, 0%, 99%)" stroke-width="0.5"/>
    <rect height="23" width="54.2" x="271.7" y="196.1" fill="hsl(17, 21%, 77%)" stroke="hsl(0, 0%, 99%)" stroke-width="0.5"/>
    <rect height="23" width="54.2" x="271.7" y="219.1" fill="hsl(219, 55%, 69%)" stroke="hsl(0, 0%, 98%)" stroke-width="0.5"/>
    <rect height="23" width="54.2" x="271.7" y="242.1" fill="hsl(36, 76%, 63%)" stroke="hsl(0, 0%, 95%)" stroke-width="0.5"/>
    <rect height="23" width="54.2" x="271.7" y="265.1" fill="hsl(302, 8%, 65%)" stroke="hsl(0, 0%, 100%)" stroke-width="0.5"/>
    <rect height="23" width="54.2" x="325.8" y="12.1" fill="hsl(17, 21%, 77%)" stroke="hsl(0, 0%, 99%)" stroke-width="0.5"/>
    <rect height="23" width="54.2" x="325.8" y="35.1" fill="hsl(302, 8%, 65%)" stroke="hsl(0, 0%, 100%)" stroke-width="0.5"/>
    <rect height="23" width="54.2" x="325.8" y="58.1" fill="hsl(27, 41%, 65%)" stroke="hsl(0, 0%, 99%)" stroke-width="0.5"/>
    <rect height="23" width="54.2" x="325.8" y="81.1" fill="hsl(36, 76%, 63%)" stroke="hsl(0, 0%, 95%)" stroke-width="0.5"/>
    <rect height="23" width="54.2" x="325.8" y="104.1" fill="hsl(17, 21%, 77%)" stroke="hsl(0, 0%, 99%)" stroke-width="0.5"/>
    <rect height="23" width="54.2" x="325.8" y="127.1" fill="hsl(302, 8%, 65%)" stroke="hsl(0, 0%, 100%)" stroke-width="0.5"/>
    <rect height="23" width="54.2" x="325.8" y="150.1" fill="hsl(27, 41%, 65%)" stroke="hsl(0, 0%, 99%)" stroke-width="0.5"/>
    <rect height="23" width="54.2" x="325.8" y="173.1" fill="hsl(36, 76%, 63%)" stroke="hsl(0, 0%, 95%)" stroke-width="0.5"/>
    <rect height="23" width="54.2" x="325.8" y="196.1" fill="hsl(17, 21%, 77%)" stroke="hsl(0, 0%, 99%)" stroke-width="0.5"/>
    <rect height="23" width="54.2" x="325.8" y="219.1" fill="hsl(242, 23%, 76%)" stroke="hsl(0, 0%, 100%)" stroke-width="0.5"/>
    <rect height="23" width="54.2" x="325.8" y="242.1" fill="hsl(36, 76%, 63%)" stroke="hsl(0, 0%, 95%)" stroke-width="0.5"/>
    <rect height="23" width="54.2" x="325.8" y="265.1" fill="hsl(17, 21%, 77%)" stroke="hsl(0, 0%, 99%)" stroke-width="0.5"/>
    <rect height="23" width="54.2" x="380" y="12.1" fill="hsl(36, 76%, 63%)" stroke="hsl(0, 0%, 95%)" stroke-width="0.5"/>
    <rect height="23" width="54.2" x="380" y="35.1" fill="hsl(29, 54%, 72%)" stroke="hsl(0, 0%, 95%)" stroke-width="0.5"/>
    <rect height="23" width="54.2" x="380" y="58.1" fill="hsl(36, 93%, 59%)" stroke="hsl(0, 0%, 95%)" stroke-width="0.5"/>
    <rect height="23" width="54.2" x="380" y="81.1" fill="hsl(33, 100%, 60%)" stroke="hsl(0, 0%, 93%)" stroke-width="0.5"/>
    <rect height="23" width="54.2" x="380" y="104.1" fill="hsl(27, 41%, 65%)" stroke="hsl(0, 0%, 99%)" stroke-width="0.5"/>
    <rect height="23" width="54.2" x="380" y="127.1" fill="hsl(302, 8%, 65%)" stroke="hsl(0, 0%, 100%)" stroke-width="0.5"/>
    <rect height="23" width="54.2" x="380" y="150.1" fill="hsl(29, 54%, 72%)" stroke="hsl(0, 0%, 95%)" stroke-width="0.5"/>
    <rect height="23" width="54.2" x="380" y="173.1" fill="hsl(36, 93%, 59%)" stroke="hsl(0, 0%, 95%)" stroke-width="0.5"/>
    <rect height="23" width="54.2" x="380" y="196.1" fill="hsl(27, 41%, 65%)" stroke="hsl(0, 0%, 99%)" stroke-width="0.5"/>
    <rect height="23" width="54.2" x="380" y="219.1" fill="hsl(302, 8%, 65%)" stroke="hsl(0, 0%, 100%)" stroke-width="0.5"/>
    <rect height="23" width="54.2" x="380" y="242.1" fill="hsl(33, 100%, 60%)" stroke="hsl(0, 0%, 93%)" stroke-width="0.5"/>
    <rect height="23" width="54.2" x="380" y="265.1" fill="hsl(29, 54%, 72%)" stroke="hsl(0, 0%, 95%)" stroke-width="0.5"/>
    <rect height="23" width="54.2" x="434.2" y="12.1" fill="hsl(17, 21%, 77%)" stroke="hsl(0, 0%, 99%)" stroke-width="0.5"/>
    <rect height="23" width="54.2" x="434.2" y="35.1" fill="hsl(27, 41%, 65%)" stroke="hsl(0, 0%, 99%)" stroke-width="0.5"/>
    <rect height="23" width="54.2" x="434.2" y="58.1" fill="hsl(29, 54%, 72%)" stroke="hsl(0, 0%, 95%)" stroke-width="0.5"/>
    <rect height="23" width="54.2" x="434.2" y="81.1" fill="hsl(36, 93%, 59%)" stroke="hsl(0, 0%, 95%)" stroke-width="0.5"/>
    <rect height="23" width="54.2" x="434.2" y="104.1" fill="hsl(27, 41%, 65%)" stroke="hsl(0, 0%, 99%)" stroke-width="0.5"/>
    <rect height="23" width="54.2" x="434.2" y="127.1" fill="hsl(302, 8%, 65%)" stroke="hsl(0, 0%, 100%)" stroke-width="0.5"/>
    <rect height="23" width="54.2" x="434.2" y="150.1" fill="hsl(17, 21%, 77%)" stroke="hsl(0, 0%, 99%)" stroke-width="0.5"/>
    <rect height="23" width="54.2" x="434.2" y="173.1" fill="hsl(29, 54%, 72%)" stroke="hsl(0, 0%, 95%)" stroke-width="0.5"/>
    <rect height="23" width="54.2" x="434.2" y="196.1" fill="hsl(17, 21%, 77%)" stroke="hsl(0, 0%, 99%)" stroke-width="0.5"/>
    <rect height="23" width="54.2" x="434.2" y="219.1" fill="hsl(242, 23%, 76%)" stroke="hsl(0, 0%, 100%)" stroke-width="0.5"/>
    <rect height="23" width="54.2" x="434.2" y="242.1" fill="hsl(36, 93%, 59%)" stroke="hsl(0, 0%, 95%)" stroke-width="0.5"/>
    <rect height="23" width="54.2" x="434.2" y="265.1" fill="hsl(27, 41%, 65%)" stroke="hsl(0, 0%, 99%)" stroke-width="0.5"/>
    <rect height="23" width="54.2" x="488.3" y="12.1" fill="hsl(302, 8%, 65%)" stroke="hsl(0, 0%, 100%)" stroke-width="0.5"/>
    <rect height="23" width="54.2" x="488.3" y="35.1" fill="hsl(302, 8%, 65%)" stroke="hsl(0, 0%, 100%)" stroke-width="0.5"/>
    <rect height="23" width="54.2" x="488.3" y="58.1" fill="hsl(17, 21%, 77%)" stroke="hsl(0, 0%, 99%)" stroke-width="0.5"/>
    <rect height="23" width="54.2" x="488.3" y="81.1" fill="hsl(29, 54%, 72%)" stroke="hsl(0, 0%, 95%)" stroke-width="0.5"/>
    <rect height="23" width="54.2" x="488.3" y="104.1" fill="hsl(302, 8%, 65%)" stroke="hsl(0, 0%, 100%)" stroke-width="0.5"/>
    <rect height="23" width="54.2" x="488.3" y="127.1" fill="hsl(242, 23%, 76%)" stroke="hsl(0, 0%, 100%)" stroke-width="0.5"/>
    <rect height="23" width="54.2" x="488.3" y="150.1" fill="hsl(302, 8%, 65%)" stroke="hsl(0, 0%, 100%)" stroke-width="0.5"/>
    <rect height="23" width="54.2" x="488.3" y="173.1" fill="hsl(17, 21%, 77%)" stroke="hsl(0, 0%, 99%)" stroke-width="0.5"/>
    <rect height="23" width="54.2" x="488.3" y="196.1" fill="hsl(302, 8%, 65%)" stroke="hsl(0, 0%, 100%)" stroke-width="0.5"/>
    <rect height="23" width="54.2" x="488.3" y="219.1" fill="hsl(242, 23%, 76%)" stroke="hsl(0, 0%, 100%)" stroke-width="0.5"/>
    <rect height="23" width="54.2" x="488.3" y="242.1" fill="hsl(29, 54%, 72%)" stroke="hsl(0, 0%, 95%)" stroke-width="0.5"/>
    <rect height="23" width="54.2" x="488.3" y="265.1" fill="hsl(302, 8%, 65%)" stroke="hsl(0, 0%, 100%)" stroke-width="0.5"/>
    <rect height="23" width="54.2" x="542.5" y="12.1" fill="hsl(242, 23%, 76%)" stroke="hsl(0, 0%, 100%)" stroke-width="0.5"/>
    <rect height="23" width="54.2" x="542.5" y="35.1" fill="hsl(219, 55%, 69%)" stroke="hsl(0, 0%, 98%)" stroke-width="0.5"/>
    <rect height="23" width="54.2" x="542.5" y="58.1" fill="hsl(242, 23%, 76%)" stroke="hsl(0, 0%, 100%)" stroke-width="0.5"/>
    <rect height="23" width="54.2" x="542.5" y="81.1" fill="hsl(17, 21%, 77%)" stroke="hsl(0, 0%, 99%)" stroke-width="0.5"/>
    <rect height="23" width="54.2" x="542.5" y="104.1" fill="hsl(242, 23%, 76%)" stroke="hsl(0, 0%, 100%)" stroke-width="0.5"/>
    <rect height="23" width="54.2" x="542.5" y="127.1" fill="hsl(219, 55%, 69%)" stroke="hsl(0, 0%, 98%)" stroke-width="0.5"/>
    <rect height="23" width="54.2" x="542.5" y="150.1" fill="hsl(211, 88%, 74%)" stroke="hsl(0, 0%, 92%)" stroke-width="0.5"/>
    <rect height="23" width="54.2" x="542.5" y="173.1" fill="hsl(242, 23%, 76%)" stroke="hsl(0, 0%, 100%)" stroke-width="0.5"/>
    <rect height="23" width="54.2" x="542.5" y="196.1" fill="hsl(219, 55%, 69%)" stroke="hsl(0, 0%, 98%)" stroke-width="0.5"/>
    <rect height="23" width="54.2" x="542.5" y="219.1" fill="hsl(211, 88%, 74%)" stroke="hsl(0, 0%, 92%)" stroke-width="0.5"/>
    <rect height="23" width="54.2" x="542.5" y="242.1" fill="hsl(17, 21%, 77%)" stroke="hsl(0, 0%, 99%)" stroke-width="0.5"/>
    <rect height="23" width="54.2" x="542.5" y="265.1" fill="hsl(302, 8%, 65%)" stroke="hsl(0, 0%, 100%)" stroke-width="0.5"/>
    <rect height="23" width="54.2" x="596.7" y="12.1" fill="hsl(219, 55%, 69%)" stroke="hsl(0, 0%, 98%)" stroke-width="0.5"/>
    <rect height="23" width="54.2" x="596.7" y="35.1" fill="hsl(211, 88%, 74%)" stroke="hsl(0, 0%, 92%)" stroke-width="0.5"/>
    <rect height="23" width="54.2" x="596.7" y="58.1" fill="hsl(242, 23%, 76%)" stroke="hsl(0, 0%, 100%)" stroke-width="0.5"/>
    <rect height="23" width="54.2" x="596.7" y="81.1" fill="hsl(242, 23%, 76%)" stroke="hsl(0, 0%, 100%)" stroke-width="0.5"/>
    <rect height="23" width="54.2" x="596.7" y="104.1" fill="hsl(219, 55%, 69%)" stroke="hsl(0, 0%, 98%)" stroke-width="0.5"/>
    <rect height="23" width="54.2" x="596.7" y="127.1" fill="hsl(211, 88%, 74%)" stroke="hsl(0, 0%, 92%)" stroke-width="0.5"/>
    <rect height="23" width="54.2" x="596.7" y="150.1" fill="hsl(204, 82%, 71%)" stroke="hsl(0, 0%, 94%)" stroke-width="0.5"/>
    <rect height="23" width="54.2" x="596.7" y="173.1" fill="hsl(219, 55%, 69%)" stroke="hsl(0, 0%, 98%)" stroke-width="0.5"/>
    <rect height="23" width="54.2" x="596.7" y="196.1" fill="hsl(211, 88%, 74%)" stroke="hsl(0, 0%, 92%)" stroke-width="0.5"/>
    <rect height="23" width="54.2" x="596.7" y="219.1" fill="hsl(211, 88%, 74%)" stroke="hsl(0, 0%, 92%)" stroke-width="0.5"/>
    <rect height="23" width="54.2" x="596.7" y="242.1" fill="hsl(242, 23%, 76%)" stroke="hsl(0, 0%, 100%)" stroke-width="0.5"/>
    <rect height="23" width="54.2" x="596.7" y="265.1" fill="hsl(219, 55%, 69%)" stroke="hsl(0, 0%, 98%)" stroke-width="0.5"/>
    <rect height="23" width="54.2" x="650.8" y="12.1" fill="hsl(219, 55%, 69%)" stroke="hsl(0, 0%, 98%)" stroke-width="0.5"/>
    <rect height="23" width="54.2" x="650.8" y="35.1" fill="hsl(218, 77%, 78%)" stroke="hsl(0, 0%, 94%)" stroke-width="0.5"/>
    <rect height="23" width="54.2" x="650.8" y="58.1" fill="hsl(211, 88%, 74%)" stroke="hsl(0, 0%, 92%)" stroke-width="0.5"/>
    <rect height="23" width="54.2" x="650.8" y="81.1" fill="hsl(242, 23%, 76%)" stroke="hsl(0, 0%, 100%)" stroke-width="0.5"/>
    <rect height="23" width="54.2" x="650.8" y="104.1" fill="hsl(219, 55%, 69%)" stroke="hsl(0, 0%, 98%)" stroke-width="0.5"/>
    <rect height="23" width="54.2" x="650.8" y="127.1" fill="hsl(204, 82%, 71%)" stroke="hsl(0, 0%, 94%)" stroke-width="0.5"/>
    <rect height="23" width="54.2" x="650.8" y="150.1" fill="hsl(218, 77%, 78%)" stroke="hsl(0, 0%, 94%)" stroke-width="0.5"/>
    <rect height="23" width="54.2" x="650.8" y="173.1" fill="hsl(211, 88%, 74%)" stroke="hsl(0, 0%, 92%)" stroke-width="0.5"/>
    <rect height="23" width="54.2" x="650.8" y="196.1" fill="hsl(211, 88%, 74%)" stroke="hsl(0, 0%, 92%)" stroke-width="0.5"/>
    <rect height="23" width="54.2" x="650.8" y="219.1" fill="hsl(218, 77%, 78%)" stroke="hsl(0, 0%, 94%)" stroke-width="0.5"/>
    <rect height="23" width="54.2" x="650.8" y="242.1" fill="hsl(211, 88%, 74%)" stroke="hsl(0, 0%, 92%)" stroke-width="0.5"/>
    <rect height="23" width="54.2" x="650.8" y="265.1" fill="hsl(211, 88%, 74%)" stroke="hsl(0, 0%, 92%)" stroke-width="0.5"/>
  </g>
</svg>
