<?xml version='1.0' encoding='UTF-8'?>
<svg xmlns="http://www.w3.org/2000/svg" height="340" style="max-width: 100%; height: auto; font: 10px sans-serif;" viewBox="-70,-30,880,340" width="900">
  <g id="Layer_3">
    <rect height="126.1" width="42" x="438.7" y="143.4" opacity="0.7" fill="hsl(0, 100%, 45%)"/>
    <rect height="172.6" width="42" x="484.9" y="97" opacity="0.7" fill="hsl(0, 100%, 45%)"/>
    <rect height="73.2" width="42" x="531.1" y="196.3" opacity="0.7" fill="hsl(0, 100%, 45%)"/>
    <rect height="109.6" width="42" x="577.3" y="160" opacity="0.7" fill="hsl(0, 100%, 45%)"/>
    <rect height="94.1" width="42" x="623.6" y="175.4" opacity="0.7" fill="hsl(0, 100%, 45%)"/>
  </g>
  <g id="Layer_2">
    <line x1="58.9" x2="337.8" y1="270.5" y2="270.5" fill="none" stroke="hsl(0, 0%, 86%)" stroke-width="2" stroke-miterlimit="10"/>
    <g>
      <line x1="105.7" x2="105.7" y1="270.5" y2="264.7" fill="none" stroke="hsl(0, 0%, 86%)" stroke-width="2" stroke-miterlimit="10"/>
      <line x1="151.9" x2="151.9" y1="270.5" y2="264.7" fill="none" stroke="hsl(0, 0%, 86%)" stroke-width="2" stroke-miterlimit="10"/>
      <line x1="198.1" x2="198.1" y1="270.5" y2="264.7" fill="none" stroke="hsl(0, 0%, 86%)" stroke-width="2" stroke-miterlimit="10"/>
      <line x1="244.3" x2="244.3" y1="270.5" y2="264.7" fill="none" stroke="hsl(0, 0%, 86%)" stroke-width="2" stroke-miterlimit="10"/>
      <line x1="290.6" x2="290.6" y1="270.5" y2="264.7" fill="none" stroke="hsl(0, 0%, 86%)" stroke-width="2" stroke-miterlimit="10"/>
      <line x1="336.8" x2="336.8" y1="270.5" y2="264.7" fill="none" stroke="hsl(0, 0%, 86%)" stroke-width="2" stroke-miterlimit="10"/>
    </g>
    <line x1="59.4" x2="59.4" y1="270.5" y2="38.8" fill="none" stroke="hsl(0, 0%, 86%)" stroke-width="2" stroke-miterlimit="10"/>
    <g>
      <line x1="59.4" x2="65.2" y1="224.2" y2="224.2" fill="none" stroke="hsl(0, 0%, 86%)" stroke-width="2" stroke-miterlimit="10"/>
      <line x1="59.4" x2="65.2" y1="178" y2="178" fill="none" stroke="hsl(0, 0%, 86%)" stroke-width="2" stroke-miterlimit="10"/>
      <line x1="59.4" x2="65.2" y1="131.8" y2="131.8" fill="none" stroke="hsl(0, 0%, 86%)" stroke-width="2" stroke-miterlimit="10"/>
      <line x1="59.4" x2="65.2" y1="85.6" y2="85.6" fill="none" stroke="hsl(0, 0%, 86%)" stroke-width="2" stroke-miterlimit="10"/>
      <line x1="59.4" x2="65.2" y1="39.3" y2="39.3" fill="none" stroke="hsl(0, 0%, 86%)" stroke-width="2" stroke-miterlimit="10"/>
    </g>
    <line x1="412.9" x2="688.8" y1="270.5" y2="270.5" fill="none" stroke="hsl(0, 0%, 86%)" stroke-width="2" stroke-miterlimit="10"/>
    <g>
      <line x1="459.7" x2="459.7" y1="270.5" y2="264.7" fill="none" stroke="hsl(0, 0%, 86%)" stroke-width="2" stroke-miterlimit="10"/>
      <line x1="505.9" x2="505.9" y1="270.5" y2="264.7" fill="none" stroke="hsl(0, 0%, 86%)" stroke-width="2" stroke-miterlimit="10"/>
      <line x1="552.1" x2="552.1" y1="270.5" y2="264.7" fill="none" stroke="hsl(0, 0%, 86%)" stroke-width="2" stroke-miterlimit="10"/>
      <line x1="598.3" x2="598.3" y1="270.5" y2="264.7" fill="none" stroke="hsl(0, 0%, 86%)" stroke-width="2" stroke-miterlimit="10"/>
      <line x1="644.6" x2="644.6" y1="270.5" y2="264.7" fill="none" stroke="hsl(0, 0%, 86%)" stroke-width="2" stroke-miterlimit="10"/>
    </g>
    <line x1="413.4" x2="413.4" y1="270.5" y2="38.8" fill="none" stroke="hsl(0, 0%, 86%)" stroke-width="2" stroke-miterlimit="10"/>
    <g>
      <line x1="413.4" x2="419.2" y1="224.2" y2="224.2" fill="none" stroke="hsl(0, 0%, 86%)" stroke-width="2" stroke-miterlimit="10"/>
      <line x1="413.4" x2="419.2" y1="178" y2="178" fill="none" stroke="hsl(0, 0%, 86%)" stroke-width="2" stroke-miterlimit="10"/>
      <line x1="413.4" x2="419.2" y1="131.8" y2="131.8" fill="none" stroke="hsl(0, 0%, 86%)" stroke-width="2" stroke-miterlimit="10"/>
      <line x1="413.4" x2="419.2" y1="85.6" y2="85.6" fill="none" stroke="hsl(0, 0%, 86%)" stroke-width="2" stroke-miterlimit="10"/>
      <line x1="413.4" x2="419.2" y1="39.3" y2="39.3" fill="none" stroke="hsl(0, 0%, 86%)" stroke-width="2" stroke-miterlimit="10"/>
    </g>
  </g>
  <g id="Layer_1">
    <circle cx="105.3" cy="199.8" r="3.5" fill="hsl(0, 0%, 19%)"/>
    <circle cx="184.5" cy="108" r="3.5" fill="hsl(0, 0%, 19%)"/>
    <circle cx="282.3" cy="85" r="3.5" fill="hsl(0, 0%, 19%)"/>
    <circle cx="228" cy="205.5" r="3.5" fill="hsl(0, 0%, 19%)"/>
    <circle cx="119.5" cy="69.5" r="3.5" fill="hsl(0, 0%, 19%)"/>
    <circle cx="297" cy="180.7" r="3.5" fill="hsl(0, 0%, 19%)"/>
    <g>
      <g>
        <line x1="95" x2="144" y1="69.5" y2="69.5" fill="none" stroke="hsl(0, 0%, 20%)" stroke-width="2" stroke-miterlimit="10"/>
        <g>
          <rect height="13" width="2" x="94" y="63" fill="hsl(0, 0%, 19%)"/>
        </g>
        <g>
          <rect height="13" width="2" x="143" y="63" fill="hsl(0, 0%, 19%)"/>
        </g>
      </g>
    </g>
    <g>
      <g>
        <line x1="119.5" x2="119.5" y1="50.4" y2="88.6" fill="none" stroke="hsl(0, 0%, 20%)" stroke-width="2" stroke-miterlimit="10"/>
        <g>
          <rect height="2" width="13" x="113" y="49.4" fill="hsl(0, 0%, 19%)"/>
        </g>
        <g>
          <rect height="2" width="13" x="113" y="87.6" fill="hsl(0, 0%, 19%)"/>
        </g>
      </g>
    </g>
    <g>
      <g>
        <line x1="184.5" x2="184.5" y1="66.5" y2="149.5" fill="none" stroke="hsl(0, 0%, 20%)" stroke-width="2" stroke-miterlimit="10"/>
        <g>
          <rect height="2" width="13" x="178" y="65.5" fill="hsl(0, 0%, 19%)"/>
        </g>
        <g>
          <rect height="2" width="13" x="178" y="148.5" fill="hsl(0, 0%, 19%)"/>
        </g>
      </g>
    </g>
    <g>
      <g>
        <line x1="162.5" x2="206.5" y1="108" y2="108" fill="none" stroke="hsl(0, 0%, 20%)" stroke-width="2" stroke-miterlimit="10"/>
        <g>
          <rect height="13" width="2" x="161.5" y="101.5" fill="hsl(0, 0%, 19%)"/>
        </g>
        <g>
          <rect height="13" width="2" x="205.5" y="101.5" fill="hsl(0, 0%, 19%)"/>
        </g>
      </g>
    </g>
    <g>
      <g>
        <line x1="85.5" x2="125.2" y1="199.8" y2="199.8" fill="none" stroke="hsl(0, 0%, 20%)" stroke-width="2" stroke-miterlimit="10"/>
        <g>
          <rect height="13" width="2" x="84.5" y="193.3" fill="hsl(0, 0%, 19%)"/>
        </g>
        <g>
          <rect height="13" width="2" x="124.2" y="193.3" fill="hsl(0, 0%, 19%)"/>
        </g>
      </g>
    </g>
    <g>
      <g>
        <line x1="105.3" x2="105.3" y1="176.4" y2="223.2" fill="none" stroke="hsl(0, 0%, 20%)" stroke-width="2" stroke-miterlimit="10"/>
        <g>
          <rect height="2" width="13" x="98.8" y="175.4" fill="hsl(0, 0%, 19%)"/>
        </g>
        <g>
          <rect height="2" width="13" x="98.8" y="222.2" fill="hsl(0, 0%, 19%)"/>
        </g>
      </g>
    </g>
    <g>
      <g>
        <line x1="195" x2="261" y1="205.5" y2="205.5" fill="none" stroke="hsl(0, 0%, 20%)" stroke-width="2" stroke-miterlimit="10"/>
        <g>
          <rect height="13" width="2" x="194" y="199" fill="hsl(0, 0%, 19%)"/>
        </g>
        <g>
          <rect height="13" width="2" x="260" y="199" fill="hsl(0, 0%, 19%)"/>
        </g>
      </g>
    </g>
    <g>
      <g>
        <line x1="228" x2="228" y1="167" y2="244" fill="none" stroke="hsl(0, 0%, 20%)" stroke-width="2" stroke-miterlimit="10"/>
        <g>
          <rect height="2" width="13" x="221.5" y="166" fill="hsl(0, 0%, 19%)"/>
        </g>
        <g>
          <rect height="2" width="13" x="221.5" y="243" fill="hsl(0, 0%, 19%)"/>
        </g>
      </g>
    </g>
    <g>
      <g>
        <line x1="297" x2="297" y1="165.9" y2="195.5" fill="none" stroke="hsl(0, 0%, 20%)" stroke-width="2" stroke-miterlimit="10"/>
        <g>
          <rect height="2" width="13" x="290.5" y="164.9" fill="hsl(0, 0%, 19%)"/>
        </g>
        <g>
          <rect height="2" width="13" x="290.5" y="194.5" fill="hsl(0, 0%, 19%)"/>
        </g>
      </g>
    </g>
    <g>
      <g>
        <line x1="284" x2="310" y1="180.7" y2="180.7" fill="none" stroke="hsl(0, 0%, 20%)" stroke-width="2" stroke-miterlimit="10"/>
        <g>
          <rect height="13" width="2" x="283" y="174.2" fill="hsl(0, 0%, 19%)"/>
        </g>
        <g>
          <rect height="13" width="2" x="309" y="174.2" fill="hsl(0, 0%, 19%)"/>
        </g>
      </g>
    </g>
    <g>
      <g>
        <line x1="282.3" x2="282.3" y1="59.5" y2="110.5" fill="none" stroke="hsl(0, 0%, 20%)" stroke-width="2" stroke-miterlimit="10"/>
        <g>
          <rect height="2" width="13" x="275.8" y="58.5" fill="hsl(0, 0%, 19%)"/>
        </g>
        <g>
          <rect height="2" width="13" x="275.8" y="109.5" fill="hsl(0, 0%, 19%)"/>
        </g>
      </g>
    </g>
    <g>
      <g>
        <line x1="459.7" x2="459.7" y1="117.9" y2="168.9" fill="none" stroke="hsl(0, 0%, 20%)" stroke-width="2" stroke-miterlimit="10"/>
        <g>
          <rect height="2" width="13" x="453.2" y="116.9" fill="hsl(0, 0%, 19%)"/>
        </g>
        <g>
          <rect height="2" width="13" x="453.2" y="167.9" fill="hsl(0, 0%, 19%)"/>
        </g>
      </g>
    </g>
    <g>
      <g>
        <line x1="505.9" x2="505.9" y1="82.5" y2="111.5" fill="none" stroke="hsl(0, 0%, 20%)" stroke-width="2" stroke-miterlimit="10"/>
        <g>
          <rect height="2" width="13" x="499.4" y="81.5" fill="hsl(0, 0%, 19%)"/>
        </g>
        <g>
          <rect height="2" width="13" x="499.4" y="110.5" fill="hsl(0, 0%, 19%)"/>
        </g>
      </g>
    </g>
    <g>
      <g>
        <line x1="552.1" x2="552.1" y1="151.5" y2="241.6" fill="none" stroke="hsl(0, 0%, 20%)" stroke-width="2" stroke-miterlimit="10"/>
        <g>
          <rect height="2" width="13" x="545.6" y="150.5" fill="hsl(0, 0%, 19%)"/>
        </g>
        <g>
          <rect height="2" width="13" x="545.6" y="240.6" fill="hsl(0, 0%, 19%)"/>
        </g>
      </g>
    </g>
    <g>
      <g>
        <line x1="598.3" x2="598.3" y1="117.9" y2="202.1" fill="none" stroke="hsl(0, 0%, 20%)" stroke-width="2" stroke-miterlimit="10"/>
        <g>
          <rect height="2" width="13" x="591.8" y="116.9" fill="hsl(0, 0%, 19%)"/>
        </g>
        <g>
          <rect height="2" width="13" x="591.8" y="201.1" fill="hsl(0, 0%, 19%)"/>
        </g>
      </g>
    </g>
    <g>
      <g>
        <line x1="644.6" x2="644.6" y1="161" y2="189.8" fill="none" stroke="hsl(0, 0%, 20%)" stroke-width="2" stroke-miterlimit="10"/>
        <g>
          <rect height="2" width="13" x="638.1" y="160" fill="hsl(0, 0%, 19%)"/>
        </g>
        <g>
          <rect height="2" width="13" x="638.1" y="188.8" fill="hsl(0, 0%, 19%)"/>
        </g>
      </g>
    </g>
    <g>
      <g>
        <line x1="265.8" x2="298.8" y1="85" y2="85" fill="none" stroke="hsl(0, 0%, 20%)" stroke-width="2" stroke-miterlimit="10"/>
        <g>
          <rect height="13" width="2" x="264.8" y="78.5" fill="hsl(0, 0%, 19%)"/>
        </g>
        <g>
          <rect height="13" width="2" x="297.8" y="78.5" fill="hsl(0, 0%, 19%)"/>
        </g>
      </g>
    </g>
  </g>
</svg>
