<?xml version='1.0' encoding='UTF-8'?>
<svg xmlns="http://www.w3.org/2000/svg" height="340" style="max-width: 100%; height: auto; font: 10px sans-serif;" viewBox="-70,-30,880,340" width="900">
  <g id="Layer_1">
    <line x1="87.5" x2="87.5" y1="275.5" y2="21.5" fill="none" stroke="hsl(0, 0%, 10%)"/>
    <line x1="180.4" x2="180.4" y1="275.5" y2="21.5" fill="none" stroke="hsl(0, 0%, 47%)" stroke-width="0.5"/>
    <line x1="134" x2="134" y1="275.5" y2="21.5" fill="none" stroke="hsl(0, 0%, 47%)" stroke-width="0.5"/>
    <line x1="226.9" x2="226.9" y1="275.5" y2="21.5" fill="none" stroke="hsl(0, 0%, 47%)" stroke-width="0.5"/>
    <line x1="273.3" x2="273.3" y1="275.5" y2="21.5" fill="none" stroke="hsl(0, 0%, 47%)" stroke-width="0.5"/>
    <line x1="319.8" x2="319.8" y1="275.5" y2="21.5" fill="none" stroke="hsl(0, 0%, 47%)" stroke-width="0.5"/>
    <line x1="366.3" x2="366.3" y1="275.5" y2="21.5" fill="none" stroke="hsl(0, 0%, 47%)" stroke-width="0.5"/>
    <line x1="412.7" x2="412.7" y1="275.5" y2="21.5" fill="none" stroke="hsl(0, 0%, 47%)" stroke-width="0.5"/>
    <line x1="459.2" x2="459.2" y1="275.5" y2="21.5" fill="none" stroke="hsl(0, 0%, 47%)" stroke-width="0.5"/>
    <line x1="505.7" x2="505.7" y1="275.5" y2="21.5" fill="none" stroke="hsl(0, 0%, 47%)" stroke-width="0.5"/>
    <line x1="552.1" x2="552.1" y1="275.5" y2="21.5" fill="none" stroke="hsl(0, 0%, 47%)" stroke-width="0.5"/>
    <line x1="598.6" x2="598.6" y1="275.5" y2="21.5" fill="none" stroke="hsl(0, 0%, 47%)" stroke-width="0.5"/>
    <line x1="645" x2="645" y1="275.5" y2="21.5" fill="none" stroke="hsl(0, 0%, 47%)" stroke-width="0.5"/>
    <line x1="691.5" x2="691.5" y1="275.5" y2="21.5" fill="none" stroke="hsl(0, 0%, 47%)" stroke-width="0.5"/>
    <rect height="28" width="158" x="111.5" y="29.5" fill="hsl(0, 100%, 51%)"/>
    <rect height="28" width="135" x="342.5" y="191.5" fill="hsl(0, 100%, 51%)"/>
    <rect height="28" width="271" x="382.5" y="233.5" fill="hsl(0, 100%, 51%)"/>
    <rect height="28" width="273" x="245.5" y="70.5" fill="hsl(0, 100%, 51%)"/>
    <rect height="28" width="129" x="536.5" y="151.5" fill="hsl(0, 100%, 51%)"/>
    <rect height="28" width="51" x="493.5" y="110.5" fill="hsl(0, 100%, 51%)"/>
  </g>
</svg>
