<?xml version='1.0' encoding='UTF-8'?>
<svg xmlns="http://www.w3.org/2000/svg" height="340" id="svg" style="max-width: 100%; height: auto; font: 10px sans-serif;" viewBox="-550,-100,900,300" width="900">
  <line x1="-400" x2="250" y1="180" y2="180" stroke="hsl(0, 0%, 0%)" stroke-width="2"/>
  <line x1="-400" x2="-400" y1="180" y2="-40" stroke="hsl(0, 0%, 0%)" stroke-width="2"/>
  <rect height="100" width="20" x="-350" y="80" fill="hsl(192, 75%, 49%)"/>
  <text text-anchor="middle" x="-340" y="60" fill="hsl(0, 0%, 0%)">20</text>
  <rect height="80" width="20" x="-325" y="100" fill="hsl(6, 76%, 57%)"/>
  <text text-anchor="middle" x="-315" y="80" fill="hsl(0, 0%, 0%)">18</text>
  <text text-anchor="middle" x="-337.5" y="200" fill="hsl(0, 0%, 18%)">Product A</text>
  <rect height="150" width="20" x="-250" y="30" fill="hsl(192, 75%, 49%)"/>
  <text text-anchor="middle" x="-240" y="10" fill="hsl(0, 0%, 0%)">35</text>
  <rect height="120" width="20" x="-225" y="60" fill="hsl(6, 76%, 57%)"/>
  <text text-anchor="middle" x="-215" y="40" fill="hsl(0, 0%, 0%)">32</text>
  <text text-anchor="middle" x="-237.5" y="200" fill="hsl(0, 0%, 18%)">Product B</text>
  <rect height="200" width="20" x="-150" y="-20" fill="hsl(192, 75%, 49%)"/>
  <text text-anchor="middle" x="-140" y="-40" fill="hsl(0, 0%, 0%)">50</text>
  <rect height="160" width="20" x="-125" y="20" fill="hsl(6, 76%, 57%)"/>
  <text text-anchor="middle" x="-115" y="0" fill="hsl(0, 0%, 0%)">45</text>
  <text text-anchor="middle" x="-137.5" y="200" fill="hsl(0, 0%, 18%)">Product C</text>
  <rect height="130" width="20" x="-50" y="50" fill="hsl(192, 75%, 49%)"/>
  <text text-anchor="middle" x="-40" y="30" fill="hsl(0, 0%, 0%)">28</text>
  <rect height="110" width="20" x="-25" y="70" fill="hsl(6, 76%, 57%)"/>
  <text text-anchor="middle" x="-15" y="50" fill="hsl(0, 0%, 0%)">22</text>
  <text text-anchor="middle" x="-37.5" y="200" fill="hsl(0, 0%, 18%)">Product D</text>
  <rect height="170" width="20" x="50" y="10" fill="hsl(192, 75%, 49%)"/>
  <text text-anchor="middle" x="60" y="-10" fill="hsl(0, 0%, 0%)">38</text>
  <rect height="140" width="20" x="75" y="40" fill="hsl(6, 76%, 57%)"/>
  <text text-anchor="middle" x="85" y="20" fill="hsl(0, 0%, 0%)">34</text>
  <text text-anchor="middle" x="62.5" y="200" fill="hsl(0, 0%, 18%)">Product E</text>
  <rect height="210" width="20" x="150" y="-30" fill="hsl(192, 75%, 49%)"/>
  <text text-anchor="middle" x="160" y="-50" fill="hsl(0, 0%, 0%)">42</text>
  <rect height="190" width="20" x="175" y="-10" fill="hsl(6, 76%, 57%)"/>
  <text text-anchor="middle" x="185" y="-30" fill="hsl(0, 0%, 0%)">40</text>
  <text text-anchor="middle" x="162.5" y="200" fill="hsl(0, 0%, 18%)">Product F</text>
</svg>
