<?xml version='1.0' encoding='utf-8'?>
<svg version="1.1" baseProfile="full" width="600" height="400" >
  <g id="g" transform="scale(0.35)">
    <path d="M108.3905 912.1789l34.2781 0l0 55.0669l-34.2781 0Z" fill="#5470c6" id="path_11" />
    <path d="M108.3905 746.2239l44.2321 0l0 55.0669l-44.2321 0Z" fill="#5470c6" id="path_10" />
    <path d="M108.3905 580.2689l54.6739 0l0 55.0669l-54.6739 0Z" fill="#5470c6" id="path_9" />
    <path d="M108.3905 414.3139l197.6689 0l0 55.0669l-197.6689 0Z" fill="#5470c6" id="path_8" />
    <path d="M108.3905 248.3589l248.087 0l0 55.0669l-248.087 0Z" fill="rgb(84,112,198)" id="path_7" />
    <path d="M108.3905 82.4039l1186.7856 0l0 55.0669l-1186.7856 0Z" fill="rgb(84,112,198)" id="path_6" />
    <path d="M108.3905 978.2592l36.3909 0l0 55.0669l-36.3909 0Z" fill="#91cc75" id="path_5" />
    <path d="M108.3905 812.3042l44.1361 0l0 55.0669l-44.1361 0Z" fill="#91cc75" id="path_4" />
    <path d="M108.3905 646.3492l58.3761 0l0 55.0669l-58.3761 0Z" fill="#91cc75" id="path_3" />
    <path d="M108.3905 480.3942l228.9736 0l0 55.0669l-228.9736 0Z" fill="#91cc75" id="path_2" />
    <path d="M108.3905 314.4392l252.6008 0l0 55.0669l-252.6008 0Z" fill="rgb(145,204,117)" id="path_1" />
    <path d="M108.3905 148.4842l1283.9102 0l0 55.0669l-1283.9102 0Z" fill="rgb(145,204,117)" id="path" />
  </g>
</svg>