<?xml version='1.0' encoding='us-ascii'?>
<svg xmlns="http://www.w3.org/2000/svg" width="880" height="340" viewBox="-440,-170,880,340" style="max-width: 100%; height: auto; font: 10px sans-serif;">
    <rect x="-400" y="-160" width="80" height="80" fill="skyblue" stroke="black" stroke-width="1" id="rect_39" />
    <rect x="-320" y="-160" width="80" height="80" fill="lightgreen" stroke="black" stroke-width="1" id="rect_38" />
    <rect x="-240" y="-160" width="80" height="80" fill="salmon" stroke="black" stroke-width="1" id="rect_37" />
    <rect x="-160" y="-160" width="80" height="80" fill="plum" stroke="black" stroke-width="1" id="rect_36" />
    <rect x="-80" y="-160" width="80" height="80" fill="gold" stroke="black" stroke-width="1" id="rect_35" />
    <rect x="0" y="-160" width="80" height="80" fill="coral" stroke="black" stroke-width="1" id="rect_34" />
    <rect x="80" y="-160" width="80" height="80" fill="lightblue" stroke="black" stroke-width="1" id="rect_33" />
    <rect x="160" y="-160" width="80" height="80" fill="lightgreen" stroke="black" stroke-width="1" id="rect_32" />
    <rect x="240" y="-160" width="80" height="80" fill="salmon" stroke="black" stroke-width="1" id="rect_31" />
    <rect x="320" y="-160" width="80" height="80" fill="plum" stroke="black" stroke-width="1" id="rect_30" />
    <rect x="-400" y="-80" width="80" height="80" fill="gold" stroke="black" stroke-width="1" id="rect_29" />
    <rect x="-320" y="-80" width="80" height="80" fill="coral" stroke="black" stroke-width="1" id="rect_28" />
    <rect x="-240" y="-80" width="80" height="80" fill="lightblue" stroke="black" stroke-width="1" id="rect_27" />
    <rect x="-160" y="-80" width="80" height="80" fill="lightgreen" stroke="black" stroke-width="1" id="rect_26" />
    <rect x="-80" y="-80" width="80" height="80" fill="salmon" stroke="black" stroke-width="1" id="rect_25" />
    <rect x="0" y="-80" width="80" height="80" fill="plum" stroke="black" stroke-width="1" id="rect_24" />
    <rect x="80" y="-80" width="80" height="80" fill="gold" stroke="black" stroke-width="1" id="rect_23" />
    <rect x="160" y="-80" width="80" height="80" fill="coral" stroke="black" stroke-width="1" id="rect_22" />
    <rect x="240" y="-80" width="80" height="80" fill="lightblue" stroke="black" stroke-width="1" id="rect_21" />
    <rect x="320" y="-80" width="80" height="80" fill="lightgreen" stroke="black" stroke-width="1" id="rect_20" />
    <rect x="-400" y="0" width="80" height="80" fill="salmon" stroke="black" stroke-width="1" id="rect_19" />
    <rect x="-320" y="0" width="80" height="80" fill="plum" stroke="black" stroke-width="1" id="rect_18" />
    <rect x="-240" y="0" width="80" height="80" fill="gold" stroke="black" stroke-width="1" id="rect_17" />
    <rect x="-160" y="0" width="80" height="80" fill="coral" stroke="black" stroke-width="1" id="rect_16" />
    <rect x="-80" y="0" width="80" height="80" fill="lightblue" stroke="black" stroke-width="1" id="rect_15" />
    <rect x="0" y="0" width="80" height="80" fill="lightgreen" stroke="black" stroke-width="1" id="rect_14" />
    <rect x="80" y="0" width="80" height="80" fill="salmon" stroke="black" stroke-width="1" id="rect_13" />
    <rect x="160" y="0" width="80" height="80" fill="plum" stroke="black" stroke-width="1" id="rect_12" />
    <rect x="240" y="0" width="80" height="80" fill="gold" stroke="black" stroke-width="1" id="rect_11" />
    <rect x="320" y="0" width="80" height="80" fill="coral" stroke="black" stroke-width="1" id="rect_10" />
    <rect x="-400" y="80" width="80" height="80" fill="lightblue" stroke="black" stroke-width="1" id="rect_9" />
    <rect x="-320" y="80" width="80" height="80" fill="lightgreen" stroke="black" stroke-width="1" id="rect_8" />
    <rect x="-240" y="80" width="80" height="80" fill="salmon" stroke="black" stroke-width="1" id="rect_7" />
    <rect x="-160" y="80" width="80" height="80" fill="plum" stroke="black" stroke-width="1" id="rect_6" />
    <rect x="-80" y="80" width="80" height="80" fill="gold" stroke="black" stroke-width="1" id="rect_5" />
    <rect x="0" y="80" width="80" height="80" fill="coral" stroke="black" stroke-width="1" id="rect_4" />
    <rect x="80" y="80" width="80" height="80" fill="lightblue" stroke="black" stroke-width="1" id="rect_3" />
    <rect x="160" y="80" width="80" height="80" fill="lightgreen" stroke="black" stroke-width="1" id="rect_2" />
    <rect x="240" y="80" width="80" height="80" fill="salmon" stroke="black" stroke-width="1" id="rect_1" />
    <rect x="320" y="80" width="80" height="80" fill="plum" stroke="black" stroke-width="1" id="rect" />
</svg>