<?xml version='1.0' encoding='us-ascii'?>
<svg xmlns="http://www.w3.org/2000/svg" width="880" height="340" viewBox="-440,-170,880,340" style="max-width: 100%; height: auto; font: 10px sans-serif;">
    <line x1="-400" y1="140" x2="400" y2="140" stroke="black" stroke-width="2" id="line_1" />
    <line x1="-400" y1="140" x2="-400" y2="-140" stroke="black" stroke-width="2" id="line" />
    <rect x="-380" y="50" width="30" height="90" fill="skyblue" rx="10" ry="10" id="rect_19" />
    <rect x="-340" y="10" width="30" height="130" fill="lightgreen" rx="10" ry="10" id="rect_18" />
    <rect x="-300" y="30" width="30" height="110" fill="salmon" rx="10" ry="10" id="rect_17" />
    <rect x="-260" y="-40" width="30" height="180" fill="plum" rx="10" ry="10" id="rect_16" />
    <rect x="-220" y="20" width="30" height="120" fill="gold" rx="10" ry="10" id="rect_15" />
    <rect x="-180" y="-60" width="30" height="200" fill="coral" rx="10" ry="10" id="rect_14" />
    <rect x="-140" y="-20" width="30" height="160" fill="lightblue" rx="10" ry="10" id="rect_13" />
    <rect x="-100" y="40" width="30" height="100" fill="skyblue" rx="10" ry="10" id="rect_12" />
    <rect x="-60" y="0" width="30" height="140" fill="lightgreen" rx="10" ry="10" id="rect_11" />
    <rect x="-20" y="60" width="30" height="80" fill="salmon" rx="10" ry="10" id="rect_10" />
    <rect x="20" y="-30" width="30" height="170" fill="plum" rx="10" ry="10" id="rect_9" />
    <rect x="60" y="20" width="30" height="120" fill="gold" rx="10" ry="10" id="rect_8" />
    <rect x="100" y="30" width="30" height="110" fill="coral" rx="10" ry="10" id="rect_7" />
    <rect x="140" y="10" width="30" height="130" fill="lightblue" rx="10" ry="10" id="rect_6" />
    <rect x="180" y="50" width="30" height="90" fill="skyblue" rx="10" ry="10" id="rect_5" />
    <rect x="220" y="10" width="30" height="130" fill="lightgreen" rx="10" ry="10" id="rect_4" />
    <rect x="260" y="30" width="30" height="110" fill="salmon" rx="10" ry="10" id="rect_3" />
    <rect x="300" y="-40" width="30" height="180" fill="plum" rx="10" ry="10" id="rect_2" />
    <rect x="340" y="20" width="30" height="120" fill="gold" rx="10" ry="10" id="rect_1" />
</svg>