<?xml version='1.0' encoding='UTF-8'?>
<svg xmlns="http://www.w3.org/2000/svg" width="900" height="340" viewBox="0,0,750,300" id="svg">
  <rect x="63.2" y="273.2" width="34" height="11.2" fill="#e25959"/>
  <rect x="99.7" y="264.8" width="34" height="19.7" fill="#e25959"/>
  <rect x="136.4" y="267.6" width="34" height="16.9" fill="#e25959"/>
  <rect x="173.2" y="247.5" width="34" height="37" fill="#e25959"/>
  <rect x="210.4" y="200.1" width="34" height="84.4" fill="#e25959"/>
  <rect x="246.7" y="171" width="34" height="113.4" fill="#e25959"/>
  <rect x="283.8" y="178.5" width="34" height="105.9" fill="#e25959"/>
  <rect x="320.5" y="65.1" width="34" height="219.4" fill="#e25959"/>
  <rect x="357.3" y="31" width="34" height="253.5" fill="#e25959"/>
  <rect x="394" y="78.2" width="34" height="206.3" fill="#e25959"/>
  <rect x="430.7" y="88.5" width="34" height="195.9" fill="#e25959"/>
  <rect x="467.7" y="149.5" width="34" height="135" fill="#e25959"/>
  <rect x="504.2" y="209.5" width="34" height="75" fill="#e25959"/>
  <rect x="541.2" y="252.6" width="34" height="31.9" fill="#e25959"/>
  <rect x="578" y="262.9" width="34" height="21.6" fill="#e25959"/>
  <rect x="614.7" y="261" width="34" height="23.4" fill="#e25959"/>
  <rect x="651.4" y="269.5" width="34" height="15" fill="#e25959"/>
</svg>
