<svg width="900" height="340" viewBox="-20,-30,1000,340" style="max-width: 100%; height: auto; font: 10px sans-serif;" id="svg" xmlns="http://www.w3.org/2000/svg">
  <style>.st0 {max-width: 100%; height: auto; font: 10px sans-serif;}
.st1  {fill: hsl(44, 93%, 76%);;}
.st2  {fill: hsl(20, 99%, 64%);;}
.st3  {fill: hsl(331, 60%, 56%);;}
.st4  {fill: hsl(74, 87%, 76%);;}
.st5  {fill: hsl(112, 41%, 76%);;}
.st6  {fill: hsl(188, 53%, 47%);;}
.st7  {fill: none;;}
.st8 {opacity:1;}
.st9 {stroke:currentColor;}
.st10  {fill: currentColor;;}</style>
  <g>
    <g class="st1">
      <rect x="371" y="45" width="104" height="30">
        <title>Donald Trump
                    21% Mostly false</title>
      </rect>
      <rect x="425" y="237" width="50" height="30">
        <title>Bernie Sanders
                    10% Mostly false</title>
      </rect>
      <rect x="309" y="109" width="166" height="30">
        <title>Joe Biden
                    33% Mostly false</title>
      </rect>
      <rect x="401" y="205" width="74" height="30">
        <title>Elizabeth Warren
                    15% Mostly false</title>
      </rect>
      <rect x="350" y="77" width="125" height="30">
        <title>Kamala Harris
                    25% Mostly false</title>
      </rect>
      <rect x="309" y="141" width="166" height="30">
        <title>Pete Buttigieg
                    33% Mostly false</title>
      </rect>
      <rect x="437" y="301" width="38" height="30">
        <title>Amy Klobuchar
                    8% Mostly false</title>
      </rect>
      <rect x="360" y="173" width="115" height="30">
        <title>Beto O'Rourke
                    23% Mostly false</title>
      </rect>
      <rect x="433" y="269" width="42" height="30">
        <title>Michael Bloomberg
                    8% Mostly false</title>
      </rect>
    </g>
    <g class="st2">
      <rect x="157" y="45" width="214" height="30">
        <title>Donald Trump
                    43% False</title>
      </rect>
      <rect x="388" y="237" width="37" height="30">
        <title>Bernie Sanders
                    8% False</title>
      </rect>
      <rect x="239" y="109" width="70" height="30">
        <title>Joe Biden
                    14% False</title>
      </rect>
      <rect x="364" y="205" width="37" height="30">
        <title>Elizabeth Warren
                    7% False</title>
      </rect>
      <rect x="194" y="77" width="156" height="30">
        <title>Kamala Harris
                    31% False</title>
      </rect>
      <rect x="275" y="141" width="34" height="30">
        <title>Pete Buttigieg
                    7% False</title>
      </rect>
      <rect x="398" y="301" width="39" height="30">
        <title>Amy Klobuchar
                    8% False</title>
      </rect>
      <rect x="321" y="173" width="39" height="30">
        <title>Beto O'Rourke
                    8% False</title>
      </rect>
      <rect x="392" y="269" width="41" height="30">
        <title>Michael Bloomberg
                    8% False</title>
      </rect>
    </g>
    <g class="st3">
      <rect x="80" y="45" width="77" height="30">
        <title>Donald Trump
                    16% Pants on fire!</title>
      </rect>
      <rect x="475" y="237" width="0" height="30">
        <title>Bernie Sanders
                    NaN% Pants on fire!</title>
      </rect>
      <rect x="225" y="109" width="14" height="30">
        <title>Joe Biden
                    3% Pants on fire!</title>
      </rect>
      <rect x="475" y="205" width="0" height="30">
        <title>Elizabeth Warren
                    NaN% Pants on fire!</title>
      </rect>
      <rect x="475" y="77" width="0" height="30">
        <title>Kamala Harris
                    NaN% Pants on fire!</title>
      </rect>
      <rect x="475" y="141" width="0" height="30">
        <title>Pete Buttigieg
                    NaN% Pants on fire!</title>
      </rect>
      <rect x="475" y="301" width="0" height="30">
        <title>Amy Klobuchar
                    NaN% Pants on fire!</title>
      </rect>
      <rect x="475" y="173" width="0" height="30">
        <title>Beto O'Rourke
                    NaN% Pants on fire!</title>
      </rect>
      <rect x="475" y="269" width="0" height="30">
        <title>Michael Bloomberg
                    NaN% Pants on fire!</title>
      </rect>
    </g>
    <g class="st4">
      <rect x="475" y="45" width="58" height="30">
        <title>Donald Trump
                    12% Half true</title>
      </rect>
      <rect x="475" y="237" width="188" height="30">
        <title>Bernie Sanders
                    38% Half true</title>
      </rect>
      <rect x="475" y="109" width="70" height="30">
        <title>Joe Biden
                    14% Half true</title>
      </rect>
      <rect x="475" y="205" width="130" height="30">
        <title>Elizabeth Warren
                    26% Half true</title>
      </rect>
      <rect x="475" y="77" width="63" height="30">
        <title>Kamala Harris
                    13% Half true</title>
      </rect>
      <rect x="475" y="141" width="133" height="30">
        <title>Pete Buttigieg
                    27% Half true</title>
      </rect>
      <rect x="475" y="301" width="115" height="30">
        <title>Amy Klobuchar
                    23% Half true</title>
      </rect>
      <rect x="475" y="173" width="77" height="30">
        <title>Beto O'Rourke
                    15% Half true</title>
      </rect>
      <rect x="475" y="269" width="125" height="30">
        <title>Michael Bloomberg
                    25% Half true</title>
      </rect>
    </g>
    <g class="st5">
      <rect x="533" y="45" width="27" height="30">
        <title>Donald Trump
                    5% Mostly true</title>
      </rect>
      <rect x="663" y="237" width="162" height="30">
        <title>Bernie Sanders
                    33% Mostly true</title>
      </rect>
      <rect x="545" y="109" width="124" height="30">
        <title>Joe Biden
                    25% Mostly true</title>
      </rect>
      <rect x="605" y="205" width="129" height="30">
        <title>Elizabeth Warren
                    26% Mostly true</title>
      </rect>
      <rect x="538" y="77" width="156" height="30">
        <title>Kamala Harris
                    31% Mostly true</title>
      </rect>
      <rect x="608" y="141" width="67" height="30">
        <title>Pete Buttigieg
                    13% Mostly true</title>
      </rect>
      <rect x="590" y="301" width="154" height="30">
        <title>Amy Klobuchar
                    31% Mostly true</title>
      </rect>
      <rect x="552" y="173" width="154" height="30">
        <title>Beto O'Rourke
                    31% Mostly true</title>
      </rect>
      <rect x="600" y="269" width="167" height="30">
        <title>Michael Bloomberg
                    33% Mostly true</title>
      </rect>
    </g>
    <g class="st6">
      <rect x="560" y="45" width="20" height="30">
        <title>Donald Trump
                    4% True</title>
      </rect>
      <rect x="825" y="237" width="62" height="30">
        <title>Bernie Sanders
                    13% True</title>
      </rect>
      <rect x="669" y="109" width="56" height="30">
        <title>Joe Biden
                    11% True</title>
      </rect>
      <rect x="734" y="205" width="130" height="30">
        <title>Elizabeth Warren
                    26% True</title>
      </rect>
      <rect x="475" y="77" width="0" height="30">
        <title>Kamala Harris
                    NaN% True</title>
      </rect>
      <rect x="675" y="141" width="100" height="30">
        <title>Pete Buttigieg
                    20% True</title>
      </rect>
      <rect x="744" y="301" width="154" height="30">
        <title>Amy Klobuchar
                    31% True</title>
      </rect>
      <rect x="706" y="173" width="115" height="30">
        <title>Beto O'Rourke
                    23% True</title>
      </rect>
      <rect x="767" y="269" width="125" height="30">
        <title>Michael Bloomberg
                    25% True</title>
      </rect>
    </g>
  </g>
  <g transform="translate(0,40)" font-size="10" font-family="sans-serif" text-anchor="middle" class="st7">
    <g class="st8" transform="translate(125,0)">
      <line y2="-6" class="st9" />
      <text y="-9" dy="0em" class="st10">70%</text>
    </g>
    <g class="st8" transform="translate(175,0)">
      <line y2="-6" class="st9" />
      <text y="-9" dy="0em" class="st10">60%</text>
    </g>
    <g class="st8" transform="translate(225,0)">
      <line y2="-6" class="st9" />
      <text y="-9" dy="0em" class="st10">50%</text>
    </g>
    <g class="st8" transform="translate(275,0)">
      <line y2="-6" class="st9" />
      <text y="-9" dy="0em" class="st10">40%</text>
    </g>
    <g class="st8" transform="translate(325,0)">
      <line y2="-6" class="st9" />
      <text y="-9" dy="0em" class="st10">30%</text>
    </g>
    <g class="st8" transform="translate(375,0)">
      <line y2="-6" class="st9" />
      <text y="-9" dy="0em" class="st10">20%</text>
    </g>
    <g class="st8" transform="translate(425,0)">
      <line y2="-6" class="st9" />
      <text y="-9" dy="0em" class="st10">10%</text>
    </g>
    <g class="st8" transform="translate(475,0)">
      <line y2="-6" class="st9" />
      <text y="-9" dy="0em" class="st10">0%</text>
    </g>
    <g class="st8" transform="translate(525,0)">
      <line y2="-6" class="st9" />
      <text y="-9" dy="0em" class="st10">10%</text>
    </g>
    <g class="st8" transform="translate(575,0)">
      <line y2="-6" class="st9" />
      <text y="-9" dy="0em" class="st10">20%</text>
    </g>
    <g class="st8" transform="translate(625,0)">
      <line y2="-6" class="st9" />
      <text y="-9" dy="0em" class="st10">30%</text>
    </g>
    <g class="st8" transform="translate(675,0)">
      <line y2="-6" class="st9" />
      <text y="-9" dy="0em" class="st10">40%</text>
    </g>
    <g class="st8" transform="translate(725,0)">
      <line y2="-6" class="st9" />
      <text y="-9" dy="0em" class="st10">50%</text>
    </g>
    <g class="st8" transform="translate(775,0)">
      <line y2="-6" class="st9" />
      <text y="-9" dy="0em" class="st10">60%</text>
    </g>
    <g class="st8" transform="translate(825,0)">
      <line y2="-6" class="st9" />
      <text y="-9" dy="0em" class="st10">70%</text>
    </g>
    <g class="st8" transform="translate(875,0)">
      <line y2="-6" class="st9" />
      <text y="-9" dy="0em" class="st10">80%</text>
    </g>
    <text x="495" y="-24" text-anchor="start" class="st10">More truths &#8594;</text>
    <text x="455" y="-24" text-anchor="end" class="st10">&#8592; More falsehoods</text>
  </g>
  <g font-size="10" font-family="sans-serif" text-anchor="end" class="st7">
    <path class="st9" d="M0,40V337" transform="translate(475,0)" />
    <g class="st8" transform="translate(80,60)">
      <line x2="-6" class="st9" />
      <text x="-9" dy="0.32em" class="st10">Donald Trump</text>
    </g>
    <g class="st8" transform="translate(194,92)">
      <line x2="-6" class="st9" />
      <text x="-9" dy="0.32em" class="st10">Kamala Harris</text>
    </g>
    <g class="st8" transform="translate(225,124)">
      <line x2="-6" class="st9" />
      <text x="-9" dy="0.32em" class="st10">Joe Biden</text>
    </g>
    <g class="st8" transform="translate(275,156)">
      <line x2="-6" class="st9" />
      <text x="-9" dy="0.32em" class="st10">Pete Buttigieg</text>
    </g>
    <g class="st8" transform="translate(321,188)">
      <line x2="-6" class="st9" />
      <text x="-9" dy="0.32em" class="st10">Beto O'Rourke</text>
    </g>
    <g class="st8" transform="translate(364,220)">
      <line x2="-6" class="st9" />
      <text x="-9" dy="0.32em" class="st10">Elizabeth Warren</text>
    </g>
    <g class="st8" transform="translate(388,252)">
      <line x2="-6" class="st9" />
      <text x="-9" dy="0.32em" class="st10">Bernie Sanders</text>
    </g>
    <g class="st8" transform="translate(392,284)">
      <line x2="-6" class="st9" />
      <text x="-9" dy="0.32em" class="st10">Michael Bloomberg</text>
    </g>
    <g class="st8" transform="translate(398,316)">
      <line x2="-6" class="st9" />
      <text x="-9" dy="0.32em" class="st10">Amy Klobuchar</text>
    </g>
  </g>
</svg>