<svg width="900" height="340" viewBox="-70,-30,880,340" style="max-width: 100%; height: auto; font: 10px sans-serif;" xmlns="http://www.w3.org/2000/svg">

<style type="text/css">.st0 {fill: none;stroke:#B3B3B3;;}
	.st1 {fill: hsl(0, 0%, 54%);;}
	.st2 {fill: hsl(13, 92%, 48%);;}
	.st3 {fill: hsl(126, 77%, 22%);;}</style>
<g id="Layer_2">
	<polyline class="st0" points="17.5,300.5 672.5,300.5 672.5,15.5  " />
	<g>
		<path class="st1" d="M683.8,14.7c0-0.3,0-0.6,0.1-0.9c0.1-0.3,0.2-0.5,0.4-0.7c0.2-0.2,0.4-0.3,0.7-0.4c0.3-0.1,0.5-0.1,0.9-0.1    c0.3,0,0.6,0,0.8,0.1c0.2,0.1,0.4,0.2,0.6,0.4c0.2,0.2,0.3,0.3,0.4,0.6c0.1,0.2,0.1,0.4,0.1,0.7c0,0.3,0,0.5-0.1,0.7    c-0.1,0.2-0.2,0.4-0.4,0.6c-0.2,0.2-0.3,0.3-0.5,0.5s-0.4,0.3-0.6,0.4c-0.2,0.1-0.4,0.2-0.6,0.3c-0.2,0.1-0.4,0.2-0.5,0.3    c-0.1,0.1-0.2,0.2-0.3,0.2c-0.1,0.1-0.2,0.2-0.3,0.3c-0.1,0.1-0.1,0.2-0.2,0.3s-0.1,0.3-0.1,0.4h3.5v0.5h-4.1c0-0.3,0-0.6,0.1-0.8    c0.1-0.2,0.2-0.5,0.4-0.7c0.2-0.3,0.5-0.5,0.7-0.6c0.2-0.2,0.5-0.3,0.7-0.5c0.2-0.1,0.4-0.3,0.6-0.4s0.4-0.2,0.5-0.4    c0.2-0.1,0.3-0.3,0.4-0.5c0.1-0.2,0.1-0.4,0.1-0.6c0-0.2,0-0.4-0.1-0.5c-0.1-0.2-0.2-0.3-0.3-0.4c-0.1-0.1-0.3-0.2-0.4-0.3    s-0.4-0.1-0.5-0.1c-0.2,0-0.4,0-0.6,0.1c-0.2,0.1-0.3,0.2-0.4,0.3s-0.2,0.3-0.3,0.5c-0.1,0.2-0.1,0.4-0.1,0.6H683.8z" />
		<path class="st1" d="M690.9,14.2h-1.6v-0.4c0.2,0,0.5,0,0.7-0.1c0.2,0,0.4-0.1,0.5-0.2c0.1-0.1,0.3-0.2,0.4-0.4    c0.1-0.2,0.2-0.4,0.2-0.6h0.5v6.3h-0.6V14.2z" />
		<path class="st1" d="M694.1,17.3c0.1,0.4,0.2,0.8,0.5,1c0.3,0.2,0.6,0.3,1,0.3c0.2,0,0.4,0,0.6-0.1c0.2-0.1,0.3-0.2,0.5-0.3    s0.2-0.3,0.3-0.5c0.1-0.2,0.1-0.4,0.1-0.6c0-0.2,0-0.5-0.1-0.6c-0.1-0.2-0.2-0.4-0.3-0.5c-0.1-0.1-0.3-0.3-0.5-0.3    c-0.2-0.1-0.4-0.1-0.7-0.1c-0.3,0-0.5,0.1-0.8,0.2c-0.2,0.1-0.4,0.3-0.6,0.5l-0.5-0.1l0.5-3.3h3.2v0.5h-2.7l-0.4,2.1    c0.1-0.1,0.2-0.1,0.3-0.2c0.1-0.1,0.2-0.1,0.3-0.1c0.1,0,0.2-0.1,0.3-0.1c0.1,0,0.2,0,0.4,0c0.3,0,0.6,0,0.8,0.1    c0.2,0.1,0.5,0.2,0.6,0.4c0.2,0.2,0.3,0.4,0.4,0.7c0.1,0.3,0.1,0.6,0.1,0.9c0,0.3-0.1,0.6-0.2,0.9c-0.1,0.3-0.3,0.5-0.4,0.7    c-0.2,0.2-0.4,0.3-0.6,0.4c-0.2,0.1-0.5,0.1-0.8,0.1c-0.3,0-0.6,0-0.8-0.1c-0.3-0.1-0.5-0.2-0.7-0.3c-0.2-0.1-0.4-0.3-0.5-0.5    s-0.2-0.5-0.2-0.8H694.1z" />
		<path class="st1" d="M699.1,17.3c0.1,0.4,0.2,0.8,0.5,1c0.3,0.2,0.6,0.3,1,0.3c0.2,0,0.4,0,0.6-0.1c0.2-0.1,0.3-0.2,0.5-0.3    s0.2-0.3,0.3-0.5c0.1-0.2,0.1-0.4,0.1-0.6c0-0.2,0-0.5-0.1-0.6c-0.1-0.2-0.2-0.4-0.3-0.5c-0.1-0.1-0.3-0.3-0.5-0.3    c-0.2-0.1-0.4-0.1-0.7-0.1c-0.3,0-0.5,0.1-0.8,0.2c-0.2,0.1-0.4,0.3-0.6,0.5l-0.5-0.1l0.5-3.3h3.2v0.5h-2.7l-0.4,2.1    c0.1-0.1,0.2-0.1,0.3-0.2c0.1-0.1,0.2-0.1,0.3-0.1c0.1,0,0.2-0.1,0.3-0.1c0.1,0,0.2,0,0.4,0c0.3,0,0.6,0,0.8,0.1    c0.2,0.1,0.5,0.2,0.6,0.4c0.2,0.2,0.3,0.4,0.4,0.7c0.1,0.3,0.1,0.6,0.1,0.9c0,0.3-0.1,0.6-0.2,0.9c-0.1,0.3-0.3,0.5-0.4,0.7    c-0.2,0.2-0.4,0.3-0.6,0.4c-0.2,0.1-0.5,0.1-0.8,0.1c-0.3,0-0.6,0-0.8-0.1c-0.3-0.1-0.5-0.2-0.7-0.3c-0.2-0.1-0.4-0.3-0.5-0.5    s-0.2-0.5-0.2-0.8H699.1z" />
		<path class="st1" d="M704.1,18.9v-0.8h0.7v0.8H704.1z" />
		<path class="st1" d="M708.2,12.6c0.3,0,0.6,0,0.8,0.1c0.2,0.1,0.4,0.2,0.6,0.4c0.2,0.2,0.3,0.4,0.4,0.6c0.1,0.2,0.2,0.4,0.2,0.7    c0.1,0.2,0.1,0.5,0.1,0.8c0,0.3,0,0.5,0,0.8c0,0.4,0,0.8-0.1,1.2c-0.1,0.4-0.2,0.7-0.3,1s-0.4,0.5-0.7,0.7    c-0.3,0.2-0.6,0.3-1.1,0.3c-0.4,0-0.8-0.1-1.1-0.3c-0.3-0.2-0.5-0.4-0.7-0.7c-0.2-0.3-0.3-0.6-0.3-1c-0.1-0.4-0.1-0.8-0.1-1.2    c0-0.4,0-0.8,0.1-1.2c0.1-0.4,0.2-0.7,0.3-1c0.2-0.3,0.4-0.5,0.7-0.7C707.4,12.7,707.7,12.6,708.2,12.6z M709.8,15.8    c0-0.3,0-0.7-0.1-1s-0.1-0.6-0.2-0.9c-0.1-0.3-0.3-0.5-0.5-0.6c-0.2-0.2-0.5-0.2-0.8-0.2c-0.3,0-0.6,0.1-0.8,0.2    c-0.2,0.2-0.4,0.4-0.5,0.6c-0.1,0.3-0.2,0.6-0.2,0.9s-0.1,0.7-0.1,1c0,0.4,0,0.8,0.1,1.1c0.1,0.3,0.1,0.6,0.3,0.9    c0.1,0.2,0.3,0.4,0.5,0.5c0.2,0.1,0.5,0.2,0.8,0.2c0.3,0,0.6-0.1,0.8-0.3s0.4-0.4,0.5-0.6c0.1-0.3,0.2-0.6,0.2-0.9    S709.8,16.1,709.8,15.8z" />
		<path class="st1" d="M713.2,12.6c0.3,0,0.6,0,0.8,0.1c0.2,0.1,0.4,0.2,0.6,0.4c0.2,0.2,0.3,0.4,0.4,0.6c0.1,0.2,0.2,0.4,0.2,0.7    c0.1,0.2,0.1,0.5,0.1,0.8c0,0.3,0,0.5,0,0.8c0,0.4,0,0.8-0.1,1.2c-0.1,0.4-0.2,0.7-0.3,1s-0.4,0.5-0.7,0.7    c-0.3,0.2-0.6,0.3-1.1,0.3c-0.4,0-0.8-0.1-1.1-0.3c-0.3-0.2-0.5-0.4-0.7-0.7c-0.2-0.3-0.3-0.6-0.3-1c-0.1-0.4-0.1-0.8-0.1-1.2    c0-0.4,0-0.8,0.1-1.2c0.1-0.4,0.2-0.7,0.3-1c0.2-0.3,0.4-0.5,0.7-0.7C712.4,12.7,712.7,12.6,713.2,12.6z M714.8,15.8    c0-0.3,0-0.7-0.1-1s-0.1-0.6-0.2-0.9c-0.1-0.3-0.3-0.5-0.5-0.6c-0.2-0.2-0.5-0.2-0.8-0.2c-0.3,0-0.6,0.1-0.8,0.2    c-0.2,0.2-0.4,0.4-0.5,0.6c-0.1,0.3-0.2,0.6-0.2,0.9s-0.1,0.7-0.1,1c0,0.4,0,0.8,0.1,1.1c0.1,0.3,0.1,0.6,0.3,0.9    c0.1,0.2,0.3,0.4,0.5,0.5c0.2,0.1,0.5,0.2,0.8,0.2c0.3,0,0.6-0.1,0.8-0.3s0.4-0.4,0.5-0.6c0.1-0.3,0.2-0.6,0.2-0.9    S714.8,16.1,714.8,15.8z" />
		<path class="st1" d="M683.8,35.7c0-0.3,0-0.6,0.1-0.9c0.1-0.3,0.2-0.5,0.4-0.7c0.2-0.2,0.4-0.3,0.7-0.4c0.3-0.1,0.5-0.1,0.9-0.1    c0.3,0,0.6,0,0.8,0.1c0.2,0.1,0.4,0.2,0.6,0.4c0.2,0.2,0.3,0.3,0.4,0.6c0.1,0.2,0.1,0.4,0.1,0.7c0,0.3,0,0.5-0.1,0.7    c-0.1,0.2-0.2,0.4-0.4,0.6c-0.2,0.2-0.3,0.3-0.5,0.5s-0.4,0.3-0.6,0.4c-0.2,0.1-0.4,0.2-0.6,0.3c-0.2,0.1-0.4,0.2-0.5,0.3    c-0.1,0.1-0.2,0.2-0.3,0.2c-0.1,0.1-0.2,0.2-0.3,0.3c-0.1,0.1-0.1,0.2-0.2,0.3s-0.1,0.3-0.1,0.4h3.5v0.5h-4.1c0-0.3,0-0.6,0.1-0.8    c0.1-0.2,0.2-0.5,0.4-0.7c0.2-0.3,0.5-0.5,0.7-0.6c0.2-0.2,0.5-0.3,0.7-0.5c0.2-0.1,0.4-0.3,0.6-0.4s0.4-0.2,0.5-0.4    c0.2-0.1,0.3-0.3,0.4-0.5c0.1-0.2,0.1-0.4,0.1-0.6c0-0.2,0-0.4-0.1-0.5c-0.1-0.2-0.2-0.3-0.3-0.4c-0.1-0.1-0.3-0.2-0.4-0.3    s-0.4-0.1-0.5-0.1c-0.2,0-0.4,0-0.6,0.1c-0.2,0.1-0.3,0.2-0.4,0.3s-0.2,0.3-0.3,0.5c-0.1,0.2-0.1,0.4-0.1,0.6H683.8z" />
		<path class="st1" d="M690.9,35.2h-1.6v-0.4c0.2,0,0.5,0,0.7-0.1c0.2,0,0.4-0.1,0.5-0.2c0.1-0.1,0.3-0.2,0.4-0.4    c0.1-0.2,0.2-0.4,0.2-0.6h0.5v6.3h-0.6V35.2z" />
		<path class="st1" d="M694.1,38.3c0.1,0.4,0.2,0.8,0.5,1c0.3,0.2,0.6,0.3,1,0.3c0.2,0,0.4,0,0.6-0.1c0.2-0.1,0.3-0.2,0.5-0.3    s0.2-0.3,0.3-0.5c0.1-0.2,0.1-0.4,0.1-0.6c0-0.2,0-0.5-0.1-0.6c-0.1-0.2-0.2-0.4-0.3-0.5c-0.1-0.1-0.3-0.3-0.5-0.3    c-0.2-0.1-0.4-0.1-0.7-0.1c-0.3,0-0.5,0.1-0.8,0.2c-0.2,0.1-0.4,0.3-0.6,0.5l-0.5-0.1l0.5-3.3h3.2v0.5h-2.7l-0.4,2.1    c0.1-0.1,0.2-0.1,0.3-0.2c0.1-0.1,0.2-0.1,0.3-0.1c0.1,0,0.2-0.1,0.3-0.1c0.1,0,0.2,0,0.4,0c0.3,0,0.6,0,0.8,0.1    c0.2,0.1,0.5,0.2,0.6,0.4c0.2,0.2,0.3,0.4,0.4,0.7c0.1,0.3,0.1,0.6,0.1,0.9c0,0.3-0.1,0.6-0.2,0.9c-0.1,0.3-0.3,0.5-0.4,0.7    c-0.2,0.2-0.4,0.3-0.6,0.4c-0.2,0.1-0.5,0.1-0.8,0.1c-0.3,0-0.6,0-0.8-0.1c-0.3-0.1-0.5-0.2-0.7-0.3c-0.2-0.1-0.4-0.3-0.5-0.5    s-0.2-0.5-0.2-0.8H694.1z" />
		<path class="st1" d="M700.7,33.6c0.3,0,0.6,0,0.8,0.1c0.2,0.1,0.4,0.2,0.6,0.4c0.2,0.2,0.3,0.4,0.4,0.6c0.1,0.2,0.2,0.4,0.2,0.7    c0.1,0.2,0.1,0.5,0.1,0.8c0,0.3,0,0.5,0,0.8c0,0.4,0,0.8-0.1,1.2c-0.1,0.4-0.2,0.7-0.3,1s-0.4,0.5-0.7,0.7    c-0.3,0.2-0.6,0.3-1.1,0.3c-0.4,0-0.8-0.1-1.1-0.3c-0.3-0.2-0.5-0.4-0.7-0.7c-0.2-0.3-0.3-0.6-0.3-1c-0.1-0.4-0.1-0.8-0.1-1.2    c0-0.4,0-0.8,0.1-1.2c0.1-0.4,0.2-0.7,0.3-1c0.2-0.3,0.4-0.5,0.7-0.7C699.9,33.7,700.2,33.6,700.7,33.6z M702.2,36.8    c0-0.3,0-0.7-0.1-1s-0.1-0.6-0.2-0.9c-0.1-0.3-0.3-0.5-0.5-0.6c-0.2-0.2-0.5-0.2-0.8-0.2c-0.3,0-0.6,0.1-0.8,0.2    c-0.2,0.2-0.4,0.4-0.5,0.6c-0.1,0.3-0.2,0.6-0.2,0.9s-0.1,0.7-0.1,1c0,0.4,0,0.8,0.1,1.1c0.1,0.3,0.1,0.6,0.3,0.9    c0.1,0.2,0.3,0.4,0.5,0.5c0.2,0.1,0.5,0.2,0.8,0.2c0.3,0,0.6-0.1,0.8-0.3s0.4-0.4,0.5-0.6c0.1-0.3,0.2-0.6,0.2-0.9    S702.2,37.1,702.2,36.8z" />
		<path class="st1" d="M704.1,39.9v-0.8h0.7v0.8H704.1z" />
		<path class="st1" d="M708.2,33.6c0.3,0,0.6,0,0.8,0.1c0.2,0.1,0.4,0.2,0.6,0.4c0.2,0.2,0.3,0.4,0.4,0.6c0.1,0.2,0.2,0.4,0.2,0.7    c0.1,0.2,0.1,0.5,0.1,0.8c0,0.3,0,0.5,0,0.8c0,0.4,0,0.8-0.1,1.2c-0.1,0.4-0.2,0.7-0.3,1s-0.4,0.5-0.7,0.7    c-0.3,0.2-0.6,0.3-1.1,0.3c-0.4,0-0.8-0.1-1.1-0.3c-0.3-0.2-0.5-0.4-0.7-0.7c-0.2-0.3-0.3-0.6-0.3-1c-0.1-0.4-0.1-0.8-0.1-1.2    c0-0.4,0-0.8,0.1-1.2c0.1-0.4,0.2-0.7,0.3-1c0.2-0.3,0.4-0.5,0.7-0.7C707.4,33.7,707.7,33.6,708.2,33.6z M709.8,36.8    c0-0.3,0-0.7-0.1-1s-0.1-0.6-0.2-0.9c-0.1-0.3-0.3-0.5-0.5-0.6c-0.2-0.2-0.5-0.2-0.8-0.2c-0.3,0-0.6,0.1-0.8,0.2    c-0.2,0.2-0.4,0.4-0.5,0.6c-0.1,0.3-0.2,0.6-0.2,0.9s-0.1,0.7-0.1,1c0,0.4,0,0.8,0.1,1.1c0.1,0.3,0.1,0.6,0.3,0.9    c0.1,0.2,0.3,0.4,0.5,0.5c0.2,0.1,0.5,0.2,0.8,0.2c0.3,0,0.6-0.1,0.8-0.3s0.4-0.4,0.5-0.6c0.1-0.3,0.2-0.6,0.2-0.9    S709.8,37.1,709.8,36.8z" />
		<path class="st1" d="M713.2,33.6c0.3,0,0.6,0,0.8,0.1c0.2,0.1,0.4,0.2,0.6,0.4c0.2,0.2,0.3,0.4,0.4,0.6c0.1,0.2,0.2,0.4,0.2,0.7    c0.1,0.2,0.1,0.5,0.1,0.8c0,0.3,0,0.5,0,0.8c0,0.4,0,0.8-0.1,1.2c-0.1,0.4-0.2,0.7-0.3,1s-0.4,0.5-0.7,0.7    c-0.3,0.2-0.6,0.3-1.1,0.3c-0.4,0-0.8-0.1-1.1-0.3c-0.3-0.2-0.5-0.4-0.7-0.7c-0.2-0.3-0.3-0.6-0.3-1c-0.1-0.4-0.1-0.8-0.1-1.2    c0-0.4,0-0.8,0.1-1.2c0.1-0.4,0.2-0.7,0.3-1c0.2-0.3,0.4-0.5,0.7-0.7C712.4,33.7,712.7,33.6,713.2,33.6z M714.8,36.8    c0-0.3,0-0.7-0.1-1s-0.1-0.6-0.2-0.9c-0.1-0.3-0.3-0.5-0.5-0.6c-0.2-0.2-0.5-0.2-0.8-0.2c-0.3,0-0.6,0.1-0.8,0.2    c-0.2,0.2-0.4,0.4-0.5,0.6c-0.1,0.3-0.2,0.6-0.2,0.9s-0.1,0.7-0.1,1c0,0.4,0,0.8,0.1,1.1c0.1,0.3,0.1,0.6,0.3,0.9    c0.1,0.2,0.3,0.4,0.5,0.5c0.2,0.1,0.5,0.2,0.8,0.2c0.3,0,0.6-0.1,0.8-0.3s0.4-0.4,0.5-0.6c0.1-0.3,0.2-0.6,0.2-0.9    S714.8,37.1,714.8,36.8z" />
		<path class="st1" d="M683.8,56.7c0-0.3,0-0.6,0.1-0.9c0.1-0.3,0.2-0.5,0.4-0.7c0.2-0.2,0.4-0.3,0.7-0.4c0.3-0.1,0.5-0.1,0.9-0.1    c0.3,0,0.6,0,0.8,0.1c0.2,0.1,0.4,0.2,0.6,0.4c0.2,0.2,0.3,0.3,0.4,0.6c0.1,0.2,0.1,0.4,0.1,0.7c0,0.3,0,0.5-0.1,0.7    c-0.1,0.2-0.2,0.4-0.4,0.6c-0.2,0.2-0.3,0.3-0.5,0.5s-0.4,0.3-0.6,0.4c-0.2,0.1-0.4,0.2-0.6,0.3c-0.2,0.1-0.4,0.2-0.5,0.3    c-0.1,0.1-0.2,0.2-0.3,0.2c-0.1,0.1-0.2,0.2-0.3,0.3c-0.1,0.1-0.1,0.2-0.2,0.3s-0.1,0.3-0.1,0.4h3.5v0.5h-4.1c0-0.3,0-0.6,0.1-0.8    c0.1-0.2,0.2-0.5,0.4-0.7c0.2-0.3,0.5-0.5,0.7-0.6c0.2-0.2,0.5-0.3,0.7-0.5c0.2-0.1,0.4-0.3,0.6-0.4s0.4-0.2,0.5-0.4    c0.2-0.1,0.3-0.3,0.4-0.5c0.1-0.2,0.1-0.4,0.1-0.6c0-0.2,0-0.4-0.1-0.5c-0.1-0.2-0.2-0.3-0.3-0.4c-0.1-0.1-0.3-0.2-0.4-0.3    s-0.4-0.1-0.5-0.1c-0.2,0-0.4,0-0.6,0.1c-0.2,0.1-0.3,0.2-0.4,0.3s-0.2,0.3-0.3,0.5c-0.1,0.2-0.1,0.4-0.1,0.6H683.8z" />
		<path class="st1" d="M690.9,56.2h-1.6v-0.4c0.2,0,0.5,0,0.7-0.1c0.2,0,0.4-0.1,0.5-0.2c0.1-0.1,0.3-0.2,0.4-0.4    c0.1-0.2,0.2-0.4,0.2-0.6h0.5v6.3h-0.6V56.2z" />
		<path class="st1" d="M696.4,59.4h-2.9v-0.5l3-4.2h0.5v4.2h0.9v0.5H697v1.6h-0.6V59.4z M694.1,58.9h2.3v-3.4L694.1,58.9z" />
		<path class="st1" d="M699.1,59.3c0.1,0.4,0.2,0.8,0.5,1c0.3,0.2,0.6,0.3,1,0.3c0.2,0,0.4,0,0.6-0.1c0.2-0.1,0.3-0.2,0.5-0.3    s0.2-0.3,0.3-0.5c0.1-0.2,0.1-0.4,0.1-0.6c0-0.2,0-0.5-0.1-0.6c-0.1-0.2-0.2-0.4-0.3-0.5c-0.1-0.1-0.3-0.3-0.5-0.3    c-0.2-0.1-0.4-0.1-0.7-0.1c-0.3,0-0.5,0.1-0.8,0.2c-0.2,0.1-0.4,0.3-0.6,0.5l-0.5-0.1l0.5-3.3h3.2v0.5h-2.7l-0.4,2.1    c0.1-0.1,0.2-0.1,0.3-0.2c0.1-0.1,0.2-0.1,0.3-0.1c0.1,0,0.2-0.1,0.3-0.1c0.1,0,0.2,0,0.4,0c0.3,0,0.6,0,0.8,0.1    c0.2,0.1,0.5,0.2,0.6,0.4c0.2,0.2,0.3,0.4,0.4,0.7c0.1,0.3,0.1,0.6,0.1,0.9c0,0.3-0.1,0.6-0.2,0.9c-0.1,0.3-0.3,0.5-0.4,0.7    c-0.2,0.2-0.4,0.3-0.6,0.4c-0.2,0.1-0.5,0.1-0.8,0.1c-0.3,0-0.6,0-0.8-0.1c-0.3-0.1-0.5-0.2-0.7-0.3c-0.2-0.1-0.4-0.3-0.5-0.5    s-0.2-0.5-0.2-0.8H699.1z" />
		<path class="st1" d="M704.1,60.9v-0.8h0.7v0.8H704.1z" />
		<path class="st1" d="M708.2,54.6c0.3,0,0.6,0,0.8,0.1c0.2,0.1,0.4,0.2,0.6,0.4c0.2,0.2,0.3,0.4,0.4,0.6c0.1,0.2,0.2,0.4,0.2,0.7    c0.1,0.2,0.1,0.5,0.1,0.8c0,0.3,0,0.5,0,0.8c0,0.4,0,0.8-0.1,1.2c-0.1,0.4-0.2,0.7-0.3,1s-0.4,0.5-0.7,0.7    c-0.3,0.2-0.6,0.3-1.1,0.3c-0.4,0-0.8-0.1-1.1-0.3c-0.3-0.2-0.5-0.4-0.7-0.7c-0.2-0.3-0.3-0.6-0.3-1c-0.1-0.4-0.1-0.8-0.1-1.2    c0-0.4,0-0.8,0.1-1.2c0.1-0.4,0.2-0.7,0.3-1c0.2-0.3,0.4-0.5,0.7-0.7C707.4,54.7,707.7,54.6,708.2,54.6z M709.8,57.8    c0-0.3,0-0.7-0.1-1s-0.1-0.6-0.2-0.9c-0.1-0.3-0.3-0.5-0.5-0.6c-0.2-0.2-0.5-0.2-0.8-0.2c-0.3,0-0.6,0.1-0.8,0.2    c-0.2,0.2-0.4,0.4-0.5,0.6c-0.1,0.3-0.2,0.6-0.2,0.9s-0.1,0.7-0.1,1c0,0.4,0,0.8,0.1,1.1c0.1,0.3,0.1,0.6,0.3,0.9    c0.1,0.2,0.3,0.4,0.5,0.5c0.2,0.1,0.5,0.2,0.8,0.2c0.3,0,0.6-0.1,0.8-0.3s0.4-0.4,0.5-0.6c0.1-0.3,0.2-0.6,0.2-0.9    S709.8,58.1,709.8,57.8z" />
		<path class="st1" d="M713.2,54.6c0.3,0,0.6,0,0.8,0.1c0.2,0.1,0.4,0.2,0.6,0.4c0.2,0.2,0.3,0.4,0.4,0.6c0.1,0.2,0.2,0.4,0.2,0.7    c0.1,0.2,0.1,0.5,0.1,0.8c0,0.3,0,0.5,0,0.8c0,0.4,0,0.8-0.1,1.2c-0.1,0.4-0.2,0.7-0.3,1s-0.4,0.5-0.7,0.7    c-0.3,0.2-0.6,0.3-1.1,0.3c-0.4,0-0.8-0.1-1.1-0.3c-0.3-0.2-0.5-0.4-0.7-0.7c-0.2-0.3-0.3-0.6-0.3-1c-0.1-0.4-0.1-0.8-0.1-1.2    c0-0.4,0-0.8,0.1-1.2c0.1-0.4,0.2-0.7,0.3-1c0.2-0.3,0.4-0.5,0.7-0.7C712.4,54.7,712.7,54.6,713.2,54.6z M714.8,57.8    c0-0.3,0-0.7-0.1-1s-0.1-0.6-0.2-0.9c-0.1-0.3-0.3-0.5-0.5-0.6c-0.2-0.2-0.5-0.2-0.8-0.2c-0.3,0-0.6,0.1-0.8,0.2    c-0.2,0.2-0.4,0.4-0.5,0.6c-0.1,0.3-0.2,0.6-0.2,0.9s-0.1,0.7-0.1,1c0,0.4,0,0.8,0.1,1.1c0.1,0.3,0.1,0.6,0.3,0.9    c0.1,0.2,0.3,0.4,0.5,0.5c0.2,0.1,0.5,0.2,0.8,0.2c0.3,0,0.6-0.1,0.8-0.3s0.4-0.4,0.5-0.6c0.1-0.3,0.2-0.6,0.2-0.9    S714.8,58.1,714.8,57.8z" />
		<path class="st1" d="M683.8,77.7c0-0.3,0-0.6,0.1-0.9c0.1-0.3,0.2-0.5,0.4-0.7c0.2-0.2,0.4-0.3,0.7-0.4c0.3-0.1,0.5-0.1,0.9-0.1    c0.3,0,0.6,0,0.8,0.1c0.2,0.1,0.4,0.2,0.6,0.4c0.2,0.2,0.3,0.3,0.4,0.6c0.1,0.2,0.1,0.4,0.1,0.7c0,0.3,0,0.5-0.1,0.7    c-0.1,0.2-0.2,0.4-0.4,0.6c-0.2,0.2-0.3,0.3-0.5,0.5s-0.4,0.3-0.6,0.4c-0.2,0.1-0.4,0.2-0.6,0.3c-0.2,0.1-0.4,0.2-0.5,0.3    c-0.1,0.1-0.2,0.2-0.3,0.2c-0.1,0.1-0.2,0.2-0.3,0.3c-0.1,0.1-0.1,0.2-0.2,0.3s-0.1,0.3-0.1,0.4h3.5v0.5h-4.1c0-0.3,0-0.6,0.1-0.8    c0.1-0.2,0.2-0.5,0.4-0.7c0.2-0.3,0.5-0.5,0.7-0.6c0.2-0.2,0.5-0.3,0.7-0.5c0.2-0.1,0.4-0.3,0.6-0.4s0.4-0.2,0.5-0.4    c0.2-0.1,0.3-0.3,0.4-0.5c0.1-0.2,0.1-0.4,0.1-0.6c0-0.2,0-0.4-0.1-0.5c-0.1-0.2-0.2-0.3-0.3-0.4c-0.1-0.1-0.3-0.2-0.4-0.3    s-0.4-0.1-0.5-0.1c-0.2,0-0.4,0-0.6,0.1c-0.2,0.1-0.3,0.2-0.4,0.3s-0.2,0.3-0.3,0.5c-0.1,0.2-0.1,0.4-0.1,0.6H683.8z" />
		<path class="st1" d="M690.9,77.2h-1.6v-0.4c0.2,0,0.5,0,0.7-0.1c0.2,0,0.4-0.1,0.5-0.2c0.1-0.1,0.3-0.2,0.4-0.4    c0.1-0.2,0.2-0.4,0.2-0.6h0.5v6.3h-0.6V77.2z" />
		<path class="st1" d="M696.4,80.4h-2.9v-0.5l3-4.2h0.5v4.2h0.9v0.5H697v1.6h-0.6V80.4z M694.1,79.9h2.3v-3.4L694.1,79.9z" />
		<path class="st1" d="M700.7,75.6c0.3,0,0.6,0,0.8,0.1c0.2,0.1,0.4,0.2,0.6,0.4c0.2,0.2,0.3,0.4,0.4,0.6c0.1,0.2,0.2,0.4,0.2,0.7    c0.1,0.2,0.1,0.5,0.1,0.8c0,0.3,0,0.5,0,0.8c0,0.4,0,0.8-0.1,1.2c-0.1,0.4-0.2,0.7-0.3,1s-0.4,0.5-0.7,0.7    c-0.3,0.2-0.6,0.3-1.1,0.3c-0.4,0-0.8-0.1-1.1-0.3c-0.3-0.2-0.5-0.4-0.7-0.7c-0.2-0.3-0.3-0.6-0.3-1c-0.1-0.4-0.1-0.8-0.1-1.2    c0-0.4,0-0.8,0.1-1.2c0.1-0.4,0.2-0.7,0.3-1c0.2-0.3,0.4-0.5,0.7-0.7C699.9,75.7,700.2,75.6,700.7,75.6z M702.2,78.8    c0-0.3,0-0.7-0.1-1s-0.1-0.6-0.2-0.9c-0.1-0.3-0.3-0.5-0.5-0.6c-0.2-0.2-0.5-0.2-0.8-0.2c-0.3,0-0.6,0.1-0.8,0.2    c-0.2,0.2-0.4,0.4-0.5,0.6c-0.1,0.3-0.2,0.6-0.2,0.9s-0.1,0.7-0.1,1c0,0.4,0,0.8,0.1,1.1c0.1,0.3,0.1,0.6,0.3,0.9    c0.1,0.2,0.3,0.4,0.5,0.5c0.2,0.1,0.5,0.2,0.8,0.2c0.3,0,0.6-0.1,0.8-0.3s0.4-0.4,0.5-0.6c0.1-0.3,0.2-0.6,0.2-0.9    S702.2,79.1,702.2,78.8z" />
		<path class="st1" d="M704.1,81.9v-0.8h0.7v0.8H704.1z" />
		<path class="st1" d="M708.2,75.6c0.3,0,0.6,0,0.8,0.1c0.2,0.1,0.4,0.2,0.6,0.4c0.2,0.2,0.3,0.4,0.4,0.6c0.1,0.2,0.2,0.4,0.2,0.7    c0.1,0.2,0.1,0.5,0.1,0.8c0,0.3,0,0.5,0,0.8c0,0.4,0,0.8-0.1,1.2c-0.1,0.4-0.2,0.7-0.3,1s-0.4,0.5-0.7,0.7    c-0.3,0.2-0.6,0.3-1.1,0.3c-0.4,0-0.8-0.1-1.1-0.3c-0.3-0.2-0.5-0.4-0.7-0.7c-0.2-0.3-0.3-0.6-0.3-1c-0.1-0.4-0.1-0.8-0.1-1.2    c0-0.4,0-0.8,0.1-1.2c0.1-0.4,0.2-0.7,0.3-1c0.2-0.3,0.4-0.5,0.7-0.7C707.4,75.7,707.7,75.6,708.2,75.6z M709.8,78.8    c0-0.3,0-0.7-0.1-1s-0.1-0.6-0.2-0.9c-0.1-0.3-0.3-0.5-0.5-0.6c-0.2-0.2-0.5-0.2-0.8-0.2c-0.3,0-0.6,0.1-0.8,0.2    c-0.2,0.2-0.4,0.4-0.5,0.6c-0.1,0.3-0.2,0.6-0.2,0.9s-0.1,0.7-0.1,1c0,0.4,0,0.8,0.1,1.1c0.1,0.3,0.1,0.6,0.3,0.9    c0.1,0.2,0.3,0.4,0.5,0.5c0.2,0.1,0.5,0.2,0.8,0.2c0.3,0,0.6-0.1,0.8-0.3s0.4-0.4,0.5-0.6c0.1-0.3,0.2-0.6,0.2-0.9    S709.8,79.1,709.8,78.8z" />
		<path class="st1" d="M713.2,75.6c0.3,0,0.6,0,0.8,0.1c0.2,0.1,0.4,0.2,0.6,0.4c0.2,0.2,0.3,0.4,0.4,0.6c0.1,0.2,0.2,0.4,0.2,0.7    c0.1,0.2,0.1,0.5,0.1,0.8c0,0.3,0,0.5,0,0.8c0,0.4,0,0.8-0.1,1.2c-0.1,0.4-0.2,0.7-0.3,1s-0.4,0.5-0.7,0.7    c-0.3,0.2-0.6,0.3-1.1,0.3c-0.4,0-0.8-0.1-1.1-0.3c-0.3-0.2-0.5-0.4-0.7-0.7c-0.2-0.3-0.3-0.6-0.3-1c-0.1-0.4-0.1-0.8-0.1-1.2    c0-0.4,0-0.8,0.1-1.2c0.1-0.4,0.2-0.7,0.3-1c0.2-0.3,0.4-0.5,0.7-0.7C712.4,75.7,712.7,75.6,713.2,75.6z M714.8,78.8    c0-0.3,0-0.7-0.1-1s-0.1-0.6-0.2-0.9c-0.1-0.3-0.3-0.5-0.5-0.6c-0.2-0.2-0.5-0.2-0.8-0.2c-0.3,0-0.6,0.1-0.8,0.2    c-0.2,0.2-0.4,0.4-0.5,0.6c-0.1,0.3-0.2,0.6-0.2,0.9s-0.1,0.7-0.1,1c0,0.4,0,0.8,0.1,1.1c0.1,0.3,0.1,0.6,0.3,0.9    c0.1,0.2,0.3,0.4,0.5,0.5c0.2,0.1,0.5,0.2,0.8,0.2c0.3,0,0.6-0.1,0.8-0.3s0.4-0.4,0.5-0.6c0.1-0.3,0.2-0.6,0.2-0.9    S714.8,79.1,714.8,78.8z" />
		<path class="st1" d="M683.8,98.7c0-0.3,0-0.6,0.1-0.9c0.1-0.3,0.2-0.5,0.4-0.7c0.2-0.2,0.4-0.3,0.7-0.4c0.3-0.1,0.5-0.1,0.9-0.1    c0.3,0,0.6,0,0.8,0.1c0.2,0.1,0.4,0.2,0.6,0.4c0.2,0.2,0.3,0.3,0.4,0.6c0.1,0.2,0.1,0.4,0.1,0.7c0,0.3,0,0.5-0.1,0.7    c-0.1,0.2-0.2,0.4-0.4,0.6c-0.2,0.2-0.3,0.3-0.5,0.5s-0.4,0.3-0.6,0.4c-0.2,0.1-0.4,0.2-0.6,0.3c-0.2,0.1-0.4,0.2-0.5,0.3    c-0.1,0.1-0.2,0.2-0.3,0.2c-0.1,0.1-0.2,0.2-0.3,0.3c-0.1,0.1-0.1,0.2-0.2,0.3s-0.1,0.3-0.1,0.4h3.5v0.5h-4.1c0-0.3,0-0.6,0.1-0.8    c0.1-0.2,0.2-0.5,0.4-0.7c0.2-0.3,0.5-0.5,0.7-0.6c0.2-0.2,0.5-0.3,0.7-0.5c0.2-0.1,0.4-0.3,0.6-0.4s0.4-0.2,0.5-0.4    c0.2-0.1,0.3-0.3,0.4-0.5c0.1-0.2,0.1-0.4,0.1-0.6c0-0.2,0-0.4-0.1-0.5c-0.1-0.2-0.2-0.3-0.3-0.4c-0.1-0.1-0.3-0.2-0.4-0.3    s-0.4-0.1-0.5-0.1c-0.2,0-0.4,0-0.6,0.1c-0.2,0.1-0.3,0.2-0.4,0.3s-0.2,0.3-0.3,0.5c-0.1,0.2-0.1,0.4-0.1,0.6H683.8z" />
		<path class="st1" d="M690.9,98.2h-1.6v-0.4c0.2,0,0.5,0,0.7-0.1c0.2,0,0.4-0.1,0.5-0.2c0.1-0.1,0.3-0.2,0.4-0.4    c0.1-0.2,0.2-0.4,0.2-0.6h0.5v6.3h-0.6V98.2z" />
		<path class="st1" d="M695.2,99.4c0.3,0,0.5,0,0.7,0c0.2,0,0.4-0.1,0.6-0.2c0.2-0.1,0.3-0.2,0.4-0.4c0.1-0.2,0.1-0.4,0.1-0.6    c0-0.2,0-0.4-0.1-0.5s-0.2-0.3-0.3-0.3c-0.1-0.1-0.3-0.2-0.4-0.2s-0.3-0.1-0.5-0.1c-0.2,0-0.4,0-0.6,0.1c-0.2,0.1-0.3,0.2-0.4,0.3    s-0.2,0.3-0.3,0.4c-0.1,0.2-0.1,0.3-0.1,0.5h-0.6c0-0.3,0-0.5,0.1-0.8c0.1-0.2,0.3-0.4,0.5-0.6c0.2-0.2,0.4-0.3,0.7-0.3    c0.2-0.1,0.5-0.1,0.8-0.1c0.3,0,0.5,0,0.7,0.1s0.4,0.2,0.6,0.3c0.2,0.1,0.3,0.3,0.4,0.5c0.1,0.2,0.1,0.4,0.1,0.7    c0,0.3-0.1,0.6-0.2,0.9c-0.1,0.2-0.4,0.4-0.7,0.6c0.2,0.1,0.4,0.2,0.6,0.3c0.1,0.1,0.3,0.2,0.3,0.4c0.1,0.1,0.1,0.3,0.2,0.4    c0,0.2,0,0.3,0,0.5c0,0.3,0,0.5-0.1,0.7c-0.1,0.2-0.2,0.4-0.4,0.6c-0.2,0.2-0.4,0.3-0.6,0.4s-0.5,0.2-0.9,0.2c-0.4,0-0.7,0-1-0.1    c-0.3-0.1-0.5-0.2-0.7-0.3c-0.2-0.2-0.3-0.4-0.4-0.6c-0.1-0.2-0.2-0.6-0.2-0.9h0.6c0,0.5,0.1,0.9,0.4,1.1s0.7,0.4,1.1,0.4    c0.2,0,0.4,0,0.6-0.1c0.2-0.1,0.4-0.2,0.5-0.3s0.2-0.3,0.3-0.5s0.1-0.4,0.1-0.5c0-0.3-0.1-0.5-0.2-0.6c-0.1-0.2-0.3-0.3-0.4-0.4    c-0.2-0.1-0.4-0.2-0.6-0.2c-0.2,0-0.5,0-0.8,0V99.4z" />
		<path class="st1" d="M699.1,101.3c0.1,0.4,0.2,0.8,0.5,1c0.3,0.2,0.6,0.3,1,0.3c0.2,0,0.4,0,0.6-0.1c0.2-0.1,0.3-0.2,0.5-0.3    s0.2-0.3,0.3-0.5c0.1-0.2,0.1-0.4,0.1-0.6c0-0.2,0-0.5-0.1-0.6c-0.1-0.2-0.2-0.4-0.3-0.5c-0.1-0.1-0.3-0.3-0.5-0.3    c-0.2-0.1-0.4-0.1-0.7-0.1c-0.3,0-0.5,0.1-0.8,0.2c-0.2,0.1-0.4,0.3-0.6,0.5l-0.5-0.1l0.5-3.3h3.2v0.5h-2.7l-0.4,2.1    c0.1-0.1,0.2-0.1,0.3-0.2c0.1-0.1,0.2-0.1,0.3-0.1c0.1,0,0.2-0.1,0.3-0.1c0.1,0,0.2,0,0.4,0c0.3,0,0.6,0,0.8,0.1    c0.2,0.1,0.5,0.2,0.6,0.4c0.2,0.2,0.3,0.4,0.4,0.7c0.1,0.3,0.1,0.6,0.1,0.9c0,0.3-0.1,0.6-0.2,0.9c-0.1,0.3-0.3,0.5-0.4,0.7    c-0.2,0.2-0.4,0.3-0.6,0.4c-0.2,0.1-0.5,0.1-0.8,0.1c-0.3,0-0.6,0-0.8-0.1c-0.3-0.1-0.5-0.2-0.7-0.3c-0.2-0.1-0.4-0.3-0.5-0.5    s-0.2-0.5-0.2-0.8H699.1z" />
		<path class="st1" d="M704.1,102.9v-0.8h0.7v0.8H704.1z" />
		<path class="st1" d="M708.2,96.6c0.3,0,0.6,0,0.8,0.1c0.2,0.1,0.4,0.2,0.6,0.4c0.2,0.2,0.3,0.4,0.4,0.6c0.1,0.2,0.2,0.4,0.2,0.7    c0.1,0.2,0.1,0.5,0.1,0.8c0,0.3,0,0.5,0,0.8c0,0.4,0,0.8-0.1,1.2c-0.1,0.4-0.2,0.7-0.3,1s-0.4,0.5-0.7,0.7    c-0.3,0.2-0.6,0.3-1.1,0.3c-0.4,0-0.8-0.1-1.1-0.3c-0.3-0.2-0.5-0.4-0.7-0.7c-0.2-0.3-0.3-0.6-0.3-1c-0.1-0.4-0.1-0.8-0.1-1.2    c0-0.4,0-0.8,0.1-1.2c0.1-0.4,0.2-0.7,0.3-1c0.2-0.3,0.4-0.5,0.7-0.7C707.4,96.7,707.7,96.6,708.2,96.6z M709.8,99.8    c0-0.3,0-0.7-0.1-1s-0.1-0.6-0.2-0.9c-0.1-0.3-0.3-0.5-0.5-0.6c-0.2-0.2-0.5-0.2-0.8-0.2c-0.3,0-0.6,0.1-0.8,0.2    c-0.2,0.2-0.4,0.4-0.5,0.6c-0.1,0.3-0.2,0.6-0.2,0.9s-0.1,0.7-0.1,1c0,0.4,0,0.8,0.1,1.1c0.1,0.3,0.1,0.6,0.3,0.9    c0.1,0.2,0.3,0.4,0.5,0.5c0.2,0.1,0.5,0.2,0.8,0.2c0.3,0,0.6-0.1,0.8-0.3s0.4-0.4,0.5-0.6c0.1-0.3,0.2-0.6,0.2-0.9    S709.8,100.1,709.8,99.8z" />
		<path class="st1" d="M713.2,96.6c0.3,0,0.6,0,0.8,0.1c0.2,0.1,0.4,0.2,0.6,0.4c0.2,0.2,0.3,0.4,0.4,0.6c0.1,0.2,0.2,0.4,0.2,0.7    c0.1,0.2,0.1,0.5,0.1,0.8c0,0.3,0,0.5,0,0.8c0,0.4,0,0.8-0.1,1.2c-0.1,0.4-0.2,0.7-0.3,1s-0.4,0.5-0.7,0.7    c-0.3,0.2-0.6,0.3-1.1,0.3c-0.4,0-0.8-0.1-1.1-0.3c-0.3-0.2-0.5-0.4-0.7-0.7c-0.2-0.3-0.3-0.6-0.3-1c-0.1-0.4-0.1-0.8-0.1-1.2    c0-0.4,0-0.8,0.1-1.2c0.1-0.4,0.2-0.7,0.3-1c0.2-0.3,0.4-0.5,0.7-0.7C712.4,96.7,712.7,96.6,713.2,96.6z M714.8,99.8    c0-0.3,0-0.7-0.1-1s-0.1-0.6-0.2-0.9c-0.1-0.3-0.3-0.5-0.5-0.6c-0.2-0.2-0.5-0.2-0.8-0.2c-0.3,0-0.6,0.1-0.8,0.2    c-0.2,0.2-0.4,0.4-0.5,0.6c-0.1,0.3-0.2,0.6-0.2,0.9s-0.1,0.7-0.1,1c0,0.4,0,0.8,0.1,1.1c0.1,0.3,0.1,0.6,0.3,0.9    c0.1,0.2,0.3,0.4,0.5,0.5c0.2,0.1,0.5,0.2,0.8,0.2c0.3,0,0.6-0.1,0.8-0.3s0.4-0.4,0.5-0.6c0.1-0.3,0.2-0.6,0.2-0.9    S714.8,100.1,714.8,99.8z" />
		<path class="st1" d="M683.8,119.7c0-0.3,0-0.6,0.1-0.9c0.1-0.3,0.2-0.5,0.4-0.7c0.2-0.2,0.4-0.3,0.7-0.4c0.3-0.1,0.5-0.1,0.9-0.1    c0.3,0,0.6,0,0.8,0.1c0.2,0.1,0.4,0.2,0.6,0.4c0.2,0.2,0.3,0.3,0.4,0.6c0.1,0.2,0.1,0.4,0.1,0.7c0,0.3,0,0.5-0.1,0.7    c-0.1,0.2-0.2,0.4-0.4,0.6c-0.2,0.2-0.3,0.3-0.5,0.5s-0.4,0.3-0.6,0.4c-0.2,0.1-0.4,0.2-0.6,0.3c-0.2,0.1-0.4,0.2-0.5,0.3    c-0.1,0.1-0.2,0.2-0.3,0.2c-0.1,0.1-0.2,0.2-0.3,0.3c-0.1,0.1-0.1,0.2-0.2,0.3s-0.1,0.3-0.1,0.4h3.5v0.5h-4.1c0-0.3,0-0.6,0.1-0.8    c0.1-0.2,0.2-0.5,0.4-0.7c0.2-0.3,0.5-0.5,0.7-0.6c0.2-0.2,0.5-0.3,0.7-0.5c0.2-0.1,0.4-0.3,0.6-0.4s0.4-0.2,0.5-0.4    c0.2-0.1,0.3-0.3,0.4-0.5c0.1-0.2,0.1-0.4,0.1-0.6c0-0.2,0-0.4-0.1-0.5c-0.1-0.2-0.2-0.3-0.3-0.4c-0.1-0.1-0.3-0.2-0.4-0.3    s-0.4-0.1-0.5-0.1c-0.2,0-0.4,0-0.6,0.1c-0.2,0.1-0.3,0.2-0.4,0.3s-0.2,0.3-0.3,0.5c-0.1,0.2-0.1,0.4-0.1,0.6H683.8z" />
		<path class="st1" d="M690.9,119.2h-1.6v-0.4c0.2,0,0.5,0,0.7-0.1c0.2,0,0.4-0.1,0.5-0.2c0.1-0.1,0.3-0.2,0.4-0.4    c0.1-0.2,0.2-0.4,0.2-0.6h0.5v6.3h-0.6V119.2z" />
		<path class="st1" d="M695.2,120.4c0.3,0,0.5,0,0.7,0c0.2,0,0.4-0.1,0.6-0.2c0.2-0.1,0.3-0.2,0.4-0.4c0.1-0.2,0.1-0.4,0.1-0.6    c0-0.2,0-0.4-0.1-0.5s-0.2-0.3-0.3-0.3c-0.1-0.1-0.3-0.2-0.4-0.2s-0.3-0.1-0.5-0.1c-0.2,0-0.4,0-0.6,0.1c-0.2,0.1-0.3,0.2-0.4,0.3    s-0.2,0.3-0.3,0.4c-0.1,0.2-0.1,0.3-0.1,0.5h-0.6c0-0.3,0-0.5,0.1-0.8c0.1-0.2,0.3-0.4,0.5-0.6c0.2-0.2,0.4-0.3,0.7-0.3    c0.2-0.1,0.5-0.1,0.8-0.1c0.3,0,0.5,0,0.7,0.1s0.4,0.2,0.6,0.3c0.2,0.1,0.3,0.3,0.4,0.5c0.1,0.2,0.1,0.4,0.1,0.7    c0,0.3-0.1,0.6-0.2,0.9c-0.1,0.2-0.4,0.4-0.7,0.6c0.2,0.1,0.4,0.2,0.6,0.3c0.1,0.1,0.3,0.2,0.3,0.4c0.1,0.1,0.1,0.3,0.2,0.4    c0,0.2,0,0.3,0,0.5c0,0.3,0,0.5-0.1,0.7c-0.1,0.2-0.2,0.4-0.4,0.6c-0.2,0.2-0.4,0.3-0.6,0.4s-0.5,0.2-0.9,0.2c-0.4,0-0.7,0-1-0.1    c-0.3-0.1-0.5-0.2-0.7-0.3c-0.2-0.2-0.3-0.4-0.4-0.6c-0.1-0.2-0.2-0.6-0.2-0.9h0.6c0,0.5,0.1,0.9,0.4,1.1s0.7,0.4,1.1,0.4    c0.2,0,0.4,0,0.6-0.1c0.2-0.1,0.4-0.2,0.5-0.3s0.2-0.3,0.3-0.5s0.1-0.4,0.1-0.5c0-0.3-0.1-0.5-0.2-0.6c-0.1-0.2-0.3-0.3-0.4-0.4    c-0.2-0.1-0.4-0.2-0.6-0.2c-0.2,0-0.5,0-0.8,0V120.4z" />
		<path class="st1" d="M700.7,117.6c0.3,0,0.6,0,0.8,0.1c0.2,0.1,0.4,0.2,0.6,0.4c0.2,0.2,0.3,0.4,0.4,0.6c0.1,0.2,0.2,0.4,0.2,0.7    c0.1,0.2,0.1,0.5,0.1,0.8c0,0.3,0,0.5,0,0.8c0,0.4,0,0.8-0.1,1.2c-0.1,0.4-0.2,0.7-0.3,1s-0.4,0.5-0.7,0.7    c-0.3,0.2-0.6,0.3-1.1,0.3c-0.4,0-0.8-0.1-1.1-0.3c-0.3-0.2-0.5-0.4-0.7-0.7c-0.2-0.3-0.3-0.6-0.3-1c-0.1-0.4-0.1-0.8-0.1-1.2    c0-0.4,0-0.8,0.1-1.2c0.1-0.4,0.2-0.7,0.3-1c0.2-0.3,0.4-0.5,0.7-0.7C699.9,117.7,700.2,117.6,700.7,117.6z M702.2,120.8    c0-0.3,0-0.7-0.1-1s-0.1-0.6-0.2-0.9c-0.1-0.3-0.3-0.5-0.5-0.6c-0.2-0.2-0.5-0.2-0.8-0.2c-0.3,0-0.6,0.1-0.8,0.2    c-0.2,0.2-0.4,0.4-0.5,0.6c-0.1,0.3-0.2,0.6-0.2,0.9s-0.1,0.7-0.1,1c0,0.4,0,0.8,0.1,1.1c0.1,0.3,0.1,0.6,0.3,0.9    c0.1,0.2,0.3,0.4,0.5,0.5c0.2,0.1,0.5,0.2,0.8,0.2c0.3,0,0.6-0.1,0.8-0.3s0.4-0.4,0.5-0.6c0.1-0.3,0.2-0.6,0.2-0.9    S702.2,121.1,702.2,120.8z" />
		<path class="st1" d="M704.1,123.9v-0.8h0.7v0.8H704.1z" />
		<path class="st1" d="M708.2,117.6c0.3,0,0.6,0,0.8,0.1c0.2,0.1,0.4,0.2,0.6,0.4c0.2,0.2,0.3,0.4,0.4,0.6c0.1,0.2,0.2,0.4,0.2,0.7    c0.1,0.2,0.1,0.5,0.1,0.8c0,0.3,0,0.5,0,0.8c0,0.4,0,0.8-0.1,1.2c-0.1,0.4-0.2,0.7-0.3,1s-0.4,0.5-0.7,0.7    c-0.3,0.2-0.6,0.3-1.1,0.3c-0.4,0-0.8-0.1-1.1-0.3c-0.3-0.2-0.5-0.4-0.7-0.7c-0.2-0.3-0.3-0.6-0.3-1c-0.1-0.4-0.1-0.8-0.1-1.2    c0-0.4,0-0.8,0.1-1.2c0.1-0.4,0.2-0.7,0.3-1c0.2-0.3,0.4-0.5,0.7-0.7C707.4,117.7,707.7,117.6,708.2,117.6z M709.8,120.8    c0-0.3,0-0.7-0.1-1s-0.1-0.6-0.2-0.9c-0.1-0.3-0.3-0.5-0.5-0.6c-0.2-0.2-0.5-0.2-0.8-0.2c-0.3,0-0.6,0.1-0.8,0.2    c-0.2,0.2-0.4,0.4-0.5,0.6c-0.1,0.3-0.2,0.6-0.2,0.9s-0.1,0.7-0.1,1c0,0.4,0,0.8,0.1,1.1c0.1,0.3,0.1,0.6,0.3,0.9    c0.1,0.2,0.3,0.4,0.5,0.5c0.2,0.1,0.5,0.2,0.8,0.2c0.3,0,0.6-0.1,0.8-0.3s0.4-0.4,0.5-0.6c0.1-0.3,0.2-0.6,0.2-0.9    S709.8,121.1,709.8,120.8z" />
		<path class="st1" d="M713.2,117.6c0.3,0,0.6,0,0.8,0.1c0.2,0.1,0.4,0.2,0.6,0.4c0.2,0.2,0.3,0.4,0.4,0.6c0.1,0.2,0.2,0.4,0.2,0.7    c0.1,0.2,0.1,0.5,0.1,0.8c0,0.3,0,0.5,0,0.8c0,0.4,0,0.8-0.1,1.2c-0.1,0.4-0.2,0.7-0.3,1s-0.4,0.5-0.7,0.7    c-0.3,0.2-0.6,0.3-1.1,0.3c-0.4,0-0.8-0.1-1.1-0.3c-0.3-0.2-0.5-0.4-0.7-0.7c-0.2-0.3-0.3-0.6-0.3-1c-0.1-0.4-0.1-0.8-0.1-1.2    c0-0.4,0-0.8,0.1-1.2c0.1-0.4,0.2-0.7,0.3-1c0.2-0.3,0.4-0.5,0.7-0.7C712.4,117.7,712.7,117.6,713.2,117.6z M714.8,120.8    c0-0.3,0-0.7-0.1-1s-0.1-0.6-0.2-0.9c-0.1-0.3-0.3-0.5-0.5-0.6c-0.2-0.2-0.5-0.2-0.8-0.2c-0.3,0-0.6,0.1-0.8,0.2    c-0.2,0.2-0.4,0.4-0.5,0.6c-0.1,0.3-0.2,0.6-0.2,0.9s-0.1,0.7-0.1,1c0,0.4,0,0.8,0.1,1.1c0.1,0.3,0.1,0.6,0.3,0.9    c0.1,0.2,0.3,0.4,0.5,0.5c0.2,0.1,0.5,0.2,0.8,0.2c0.3,0,0.6-0.1,0.8-0.3s0.4-0.4,0.5-0.6c0.1-0.3,0.2-0.6,0.2-0.9    S714.8,121.1,714.8,120.8z" />
		<path class="st1" d="M683.8,140.7c0-0.3,0-0.6,0.1-0.9c0.1-0.3,0.2-0.5,0.4-0.7c0.2-0.2,0.4-0.3,0.7-0.4c0.3-0.1,0.5-0.1,0.9-0.1    c0.3,0,0.6,0,0.8,0.1c0.2,0.1,0.4,0.2,0.6,0.4c0.2,0.2,0.3,0.3,0.4,0.6c0.1,0.2,0.1,0.4,0.1,0.7c0,0.3,0,0.5-0.1,0.7    c-0.1,0.2-0.2,0.4-0.4,0.6c-0.2,0.2-0.3,0.3-0.5,0.5s-0.4,0.3-0.6,0.4c-0.2,0.1-0.4,0.2-0.6,0.3c-0.2,0.1-0.4,0.2-0.5,0.3    c-0.1,0.1-0.2,0.2-0.3,0.2c-0.1,0.1-0.2,0.2-0.3,0.3c-0.1,0.1-0.1,0.2-0.2,0.3s-0.1,0.3-0.1,0.4h3.5v0.5h-4.1c0-0.3,0-0.6,0.1-0.8    c0.1-0.2,0.2-0.5,0.4-0.7c0.2-0.3,0.5-0.5,0.7-0.6c0.2-0.2,0.5-0.3,0.7-0.5c0.2-0.1,0.4-0.3,0.6-0.4s0.4-0.2,0.5-0.4    c0.2-0.1,0.3-0.3,0.4-0.5c0.1-0.2,0.1-0.4,0.1-0.6c0-0.2,0-0.4-0.1-0.5c-0.1-0.2-0.2-0.3-0.3-0.4c-0.1-0.1-0.3-0.2-0.4-0.3    s-0.4-0.1-0.5-0.1c-0.2,0-0.4,0-0.6,0.1c-0.2,0.1-0.3,0.2-0.4,0.3s-0.2,0.3-0.3,0.5c-0.1,0.2-0.1,0.4-0.1,0.6H683.8z" />
		<path class="st1" d="M690.9,140.2h-1.6v-0.4c0.2,0,0.5,0,0.7-0.1c0.2,0,0.4-0.1,0.5-0.2c0.1-0.1,0.3-0.2,0.4-0.4    c0.1-0.2,0.2-0.4,0.2-0.6h0.5v6.3h-0.6V140.2z" />
		<path class="st1" d="M693.8,140.7c0-0.3,0-0.6,0.1-0.9c0.1-0.3,0.2-0.5,0.4-0.7c0.2-0.2,0.4-0.3,0.7-0.4c0.3-0.1,0.5-0.1,0.9-0.1    c0.3,0,0.6,0,0.8,0.1c0.2,0.1,0.4,0.2,0.6,0.4c0.2,0.2,0.3,0.3,0.4,0.6c0.1,0.2,0.1,0.4,0.1,0.7c0,0.3,0,0.5-0.1,0.7    c-0.1,0.2-0.2,0.4-0.4,0.6c-0.2,0.2-0.3,0.3-0.5,0.5s-0.4,0.3-0.6,0.4c-0.2,0.1-0.4,0.2-0.6,0.3c-0.2,0.1-0.4,0.2-0.5,0.3    c-0.1,0.1-0.2,0.2-0.3,0.2c-0.1,0.1-0.2,0.2-0.3,0.3c-0.1,0.1-0.1,0.2-0.2,0.3s-0.1,0.3-0.1,0.4h3.5v0.5h-4.1c0-0.3,0-0.6,0.1-0.8    c0.1-0.2,0.2-0.5,0.4-0.7c0.2-0.3,0.5-0.5,0.7-0.6c0.2-0.2,0.5-0.3,0.7-0.5c0.2-0.1,0.4-0.3,0.6-0.4s0.4-0.2,0.5-0.4    c0.2-0.1,0.3-0.3,0.4-0.5c0.1-0.2,0.1-0.4,0.1-0.6c0-0.2,0-0.4-0.1-0.5c-0.1-0.2-0.2-0.3-0.3-0.4c-0.1-0.1-0.3-0.2-0.4-0.3    s-0.4-0.1-0.5-0.1c-0.2,0-0.4,0-0.6,0.1c-0.2,0.1-0.3,0.2-0.4,0.3s-0.2,0.3-0.3,0.5c-0.1,0.2-0.1,0.4-0.1,0.6H693.8z" />
		<path class="st1" d="M699.1,143.3c0.1,0.4,0.2,0.8,0.5,1c0.3,0.2,0.6,0.3,1,0.3c0.2,0,0.4,0,0.6-0.1c0.2-0.1,0.3-0.2,0.5-0.3    s0.2-0.3,0.3-0.5c0.1-0.2,0.1-0.4,0.1-0.6c0-0.2,0-0.5-0.1-0.6c-0.1-0.2-0.2-0.4-0.3-0.5c-0.1-0.1-0.3-0.3-0.5-0.3    c-0.2-0.1-0.4-0.1-0.7-0.1c-0.3,0-0.5,0.1-0.8,0.2c-0.2,0.1-0.4,0.3-0.6,0.5l-0.5-0.1l0.5-3.3h3.2v0.5h-2.7l-0.4,2.1    c0.1-0.1,0.2-0.1,0.3-0.2c0.1-0.1,0.2-0.1,0.3-0.1c0.1,0,0.2-0.1,0.3-0.1c0.1,0,0.2,0,0.4,0c0.3,0,0.6,0,0.8,0.1    c0.2,0.1,0.5,0.2,0.6,0.4c0.2,0.2,0.3,0.4,0.4,0.7c0.1,0.3,0.1,0.6,0.1,0.9c0,0.3-0.1,0.6-0.2,0.9c-0.1,0.3-0.3,0.5-0.4,0.7    c-0.2,0.2-0.4,0.3-0.6,0.4c-0.2,0.1-0.5,0.1-0.8,0.1c-0.3,0-0.6,0-0.8-0.1c-0.3-0.1-0.5-0.2-0.7-0.3c-0.2-0.1-0.4-0.3-0.5-0.5    s-0.2-0.5-0.2-0.8H699.1z" />
		<path class="st1" d="M704.1,144.9v-0.8h0.7v0.8H704.1z" />
		<path class="st1" d="M708.2,138.6c0.3,0,0.6,0,0.8,0.1c0.2,0.1,0.4,0.2,0.6,0.4c0.2,0.2,0.3,0.4,0.4,0.6c0.1,0.2,0.2,0.4,0.2,0.7    c0.1,0.2,0.1,0.5,0.1,0.8c0,0.3,0,0.5,0,0.8c0,0.4,0,0.8-0.1,1.2c-0.1,0.4-0.2,0.7-0.3,1s-0.4,0.5-0.7,0.7    c-0.3,0.2-0.6,0.3-1.1,0.3c-0.4,0-0.8-0.1-1.1-0.3c-0.3-0.2-0.5-0.4-0.7-0.7c-0.2-0.3-0.3-0.6-0.3-1c-0.1-0.4-0.1-0.8-0.1-1.2    c0-0.4,0-0.8,0.1-1.2c0.1-0.4,0.2-0.7,0.3-1c0.2-0.3,0.4-0.5,0.7-0.7C707.4,138.7,707.7,138.6,708.2,138.6z M709.8,141.8    c0-0.3,0-0.7-0.1-1s-0.1-0.6-0.2-0.9c-0.1-0.3-0.3-0.5-0.5-0.6c-0.2-0.2-0.5-0.2-0.8-0.2c-0.3,0-0.6,0.1-0.8,0.2    c-0.2,0.2-0.4,0.4-0.5,0.6c-0.1,0.3-0.2,0.6-0.2,0.9s-0.1,0.7-0.1,1c0,0.4,0,0.8,0.1,1.1c0.1,0.3,0.1,0.6,0.3,0.9    c0.1,0.2,0.3,0.4,0.5,0.5c0.2,0.1,0.5,0.2,0.8,0.2c0.3,0,0.6-0.1,0.8-0.3s0.4-0.4,0.5-0.6c0.1-0.3,0.2-0.6,0.2-0.9    S709.8,142.1,709.8,141.8z" />
		<path class="st1" d="M713.2,138.6c0.3,0,0.6,0,0.8,0.1c0.2,0.1,0.4,0.2,0.6,0.4c0.2,0.2,0.3,0.4,0.4,0.6c0.1,0.2,0.2,0.4,0.2,0.7    c0.1,0.2,0.1,0.5,0.1,0.8c0,0.3,0,0.5,0,0.8c0,0.4,0,0.8-0.1,1.2c-0.1,0.4-0.2,0.7-0.3,1s-0.4,0.5-0.7,0.7    c-0.3,0.2-0.6,0.3-1.1,0.3c-0.4,0-0.8-0.1-1.1-0.3c-0.3-0.2-0.5-0.4-0.7-0.7c-0.2-0.3-0.3-0.6-0.3-1c-0.1-0.4-0.1-0.8-0.1-1.2    c0-0.4,0-0.8,0.1-1.2c0.1-0.4,0.2-0.7,0.3-1c0.2-0.3,0.4-0.5,0.7-0.7C712.4,138.7,712.7,138.6,713.2,138.6z M714.8,141.8    c0-0.3,0-0.7-0.1-1s-0.1-0.6-0.2-0.9c-0.1-0.3-0.3-0.5-0.5-0.6c-0.2-0.2-0.5-0.2-0.8-0.2c-0.3,0-0.6,0.1-0.8,0.2    c-0.2,0.2-0.4,0.4-0.5,0.6c-0.1,0.3-0.2,0.6-0.2,0.9s-0.1,0.7-0.1,1c0,0.4,0,0.8,0.1,1.1c0.1,0.3,0.1,0.6,0.3,0.9    c0.1,0.2,0.3,0.4,0.5,0.5c0.2,0.1,0.5,0.2,0.8,0.2c0.3,0,0.6-0.1,0.8-0.3s0.4-0.4,0.5-0.6c0.1-0.3,0.2-0.6,0.2-0.9    S714.8,142.1,714.8,141.8z" />
		<path class="st1" d="M683.8,161.7c0-0.3,0-0.6,0.1-0.9c0.1-0.3,0.2-0.5,0.4-0.7c0.2-0.2,0.4-0.3,0.7-0.4c0.3-0.1,0.5-0.1,0.9-0.1    c0.3,0,0.6,0,0.8,0.1c0.2,0.1,0.4,0.2,0.6,0.4s0.3,0.3,0.4,0.6c0.1,0.2,0.1,0.4,0.1,0.7c0,0.3,0,0.5-0.1,0.7    c-0.1,0.2-0.2,0.4-0.4,0.6c-0.2,0.2-0.3,0.3-0.5,0.4c-0.2,0.1-0.4,0.3-0.6,0.4s-0.4,0.2-0.6,0.3c-0.2,0.1-0.4,0.2-0.5,0.3    c-0.1,0.1-0.2,0.2-0.3,0.2c-0.1,0.1-0.2,0.2-0.3,0.3c-0.1,0.1-0.1,0.2-0.2,0.3s-0.1,0.3-0.1,0.4h3.5v0.5h-4.1c0-0.3,0-0.6,0.1-0.8    c0.1-0.2,0.2-0.5,0.4-0.7c0.2-0.3,0.5-0.5,0.7-0.6c0.2-0.2,0.5-0.3,0.7-0.5c0.2-0.1,0.4-0.3,0.6-0.4s0.4-0.2,0.5-0.4    c0.2-0.1,0.3-0.3,0.4-0.5s0.1-0.4,0.1-0.6c0-0.2,0-0.4-0.1-0.5c-0.1-0.2-0.2-0.3-0.3-0.4c-0.1-0.1-0.3-0.2-0.4-0.3    s-0.4-0.1-0.5-0.1c-0.2,0-0.4,0-0.6,0.1c-0.2,0.1-0.3,0.2-0.4,0.3c-0.1,0.1-0.2,0.3-0.3,0.5c-0.1,0.2-0.1,0.4-0.1,0.6H683.8z" />
		<path class="st1" d="M690.9,161.2h-1.6v-0.4c0.2,0,0.5,0,0.7-0.1s0.4-0.1,0.5-0.2c0.1-0.1,0.3-0.2,0.4-0.4    c0.1-0.2,0.2-0.4,0.2-0.6h0.5v6.3h-0.6V161.2z" />
		<path class="st1" d="M693.8,161.7c0-0.3,0-0.6,0.1-0.9c0.1-0.3,0.2-0.5,0.4-0.7c0.2-0.2,0.4-0.3,0.7-0.4c0.3-0.1,0.5-0.1,0.9-0.1    c0.3,0,0.6,0,0.8,0.1c0.2,0.1,0.4,0.2,0.6,0.4s0.3,0.3,0.4,0.6c0.1,0.2,0.1,0.4,0.1,0.7c0,0.3,0,0.5-0.1,0.7    c-0.1,0.2-0.2,0.4-0.4,0.6c-0.2,0.2-0.3,0.3-0.5,0.4c-0.2,0.1-0.4,0.3-0.6,0.4s-0.4,0.2-0.6,0.3c-0.2,0.1-0.4,0.2-0.5,0.3    c-0.1,0.1-0.2,0.2-0.3,0.2c-0.1,0.1-0.2,0.2-0.3,0.3c-0.1,0.1-0.1,0.2-0.2,0.3s-0.1,0.3-0.1,0.4h3.5v0.5h-4.1c0-0.3,0-0.6,0.1-0.8    c0.1-0.2,0.2-0.5,0.4-0.7c0.2-0.3,0.5-0.5,0.7-0.6c0.2-0.2,0.5-0.3,0.7-0.5c0.2-0.1,0.4-0.3,0.6-0.4s0.4-0.2,0.5-0.4    c0.2-0.1,0.3-0.3,0.4-0.5s0.1-0.4,0.1-0.6c0-0.2,0-0.4-0.1-0.5c-0.1-0.2-0.2-0.3-0.3-0.4c-0.1-0.1-0.3-0.2-0.4-0.3    s-0.4-0.1-0.5-0.1c-0.2,0-0.4,0-0.6,0.1c-0.2,0.1-0.3,0.2-0.4,0.3c-0.1,0.1-0.2,0.3-0.3,0.5c-0.1,0.2-0.1,0.4-0.1,0.6H693.8z" />
		<path class="st1" d="M700.7,159.6c0.3,0,0.6,0,0.8,0.1c0.2,0.1,0.4,0.2,0.6,0.4s0.3,0.4,0.4,0.6c0.1,0.2,0.2,0.4,0.2,0.7    c0.1,0.2,0.1,0.5,0.1,0.8c0,0.3,0,0.5,0,0.8c0,0.4,0,0.8-0.1,1.2c-0.1,0.4-0.2,0.7-0.3,1s-0.4,0.5-0.7,0.7    c-0.3,0.2-0.6,0.3-1.1,0.3c-0.4,0-0.8-0.1-1.1-0.3c-0.3-0.2-0.5-0.4-0.7-0.7s-0.3-0.6-0.3-1c-0.1-0.4-0.1-0.8-0.1-1.2    c0-0.4,0-0.8,0.1-1.2c0.1-0.4,0.2-0.7,0.3-1c0.2-0.3,0.4-0.5,0.7-0.7C699.9,159.7,700.2,159.6,700.7,159.6z M702.2,162.8    c0-0.3,0-0.7-0.1-1c0-0.3-0.1-0.6-0.2-0.9c-0.1-0.3-0.3-0.5-0.5-0.6s-0.5-0.2-0.8-0.2c-0.3,0-0.6,0.1-0.8,0.2    c-0.2,0.2-0.4,0.4-0.5,0.6c-0.1,0.3-0.2,0.6-0.2,0.9s-0.1,0.7-0.1,1c0,0.4,0,0.8,0.1,1.1c0.1,0.3,0.1,0.6,0.3,0.9    c0.1,0.2,0.3,0.4,0.5,0.5s0.5,0.2,0.8,0.2c0.3,0,0.6-0.1,0.8-0.3s0.4-0.4,0.5-0.6c0.1-0.3,0.2-0.6,0.2-0.9    C702.2,163.4,702.2,163.1,702.2,162.8z" />
		<path class="st1" d="M704.1,165.9v-0.8h0.7v0.8H704.1z" />
		<path class="st1" d="M708.2,159.6c0.3,0,0.6,0,0.8,0.1c0.2,0.1,0.4,0.2,0.6,0.4s0.3,0.4,0.4,0.6c0.1,0.2,0.2,0.4,0.2,0.7    c0.1,0.2,0.1,0.5,0.1,0.8c0,0.3,0,0.5,0,0.8c0,0.4,0,0.8-0.1,1.2c-0.1,0.4-0.2,0.7-0.3,1s-0.4,0.5-0.7,0.7    c-0.3,0.2-0.6,0.3-1.1,0.3c-0.4,0-0.8-0.1-1.1-0.3c-0.3-0.2-0.5-0.4-0.7-0.7s-0.3-0.6-0.3-1c-0.1-0.4-0.1-0.8-0.1-1.2    c0-0.4,0-0.8,0.1-1.2c0.1-0.4,0.2-0.7,0.3-1c0.2-0.3,0.4-0.5,0.7-0.7C707.4,159.7,707.7,159.6,708.2,159.6z M709.8,162.8    c0-0.3,0-0.7-0.1-1c0-0.3-0.1-0.6-0.2-0.9c-0.1-0.3-0.3-0.5-0.5-0.6s-0.5-0.2-0.8-0.2c-0.3,0-0.6,0.1-0.8,0.2    c-0.2,0.2-0.4,0.4-0.5,0.6c-0.1,0.3-0.2,0.6-0.2,0.9s-0.1,0.7-0.1,1c0,0.4,0,0.8,0.1,1.1c0.1,0.3,0.1,0.6,0.3,0.9    c0.1,0.2,0.3,0.4,0.5,0.5s0.5,0.2,0.8,0.2c0.3,0,0.6-0.1,0.8-0.3s0.4-0.4,0.5-0.6c0.1-0.3,0.2-0.6,0.2-0.9    C709.7,163.4,709.8,163.1,709.8,162.8z" />
		<path class="st1" d="M713.2,159.6c0.3,0,0.6,0,0.8,0.1c0.2,0.1,0.4,0.2,0.6,0.4s0.3,0.4,0.4,0.6c0.1,0.2,0.2,0.4,0.2,0.7    c0.1,0.2,0.1,0.5,0.1,0.8c0,0.3,0,0.5,0,0.8c0,0.4,0,0.8-0.1,1.2c-0.1,0.4-0.2,0.7-0.3,1s-0.4,0.5-0.7,0.7    c-0.3,0.2-0.6,0.3-1.1,0.3c-0.4,0-0.8-0.1-1.1-0.3c-0.3-0.2-0.5-0.4-0.7-0.7s-0.3-0.6-0.3-1c-0.1-0.4-0.1-0.8-0.1-1.2    c0-0.4,0-0.8,0.1-1.2c0.1-0.4,0.2-0.7,0.3-1c0.2-0.3,0.4-0.5,0.7-0.7C712.4,159.7,712.7,159.6,713.2,159.6z M714.8,162.8    c0-0.3,0-0.7-0.1-1c0-0.3-0.1-0.6-0.2-0.9c-0.1-0.3-0.3-0.5-0.5-0.6s-0.5-0.2-0.8-0.2c-0.3,0-0.6,0.1-0.8,0.2    c-0.2,0.2-0.4,0.4-0.5,0.6c-0.1,0.3-0.2,0.6-0.2,0.9s-0.1,0.7-0.1,1c0,0.4,0,0.8,0.1,1.1c0.1,0.3,0.1,0.6,0.3,0.9    c0.1,0.2,0.3,0.4,0.5,0.5s0.5,0.2,0.8,0.2c0.3,0,0.6-0.1,0.8-0.3s0.4-0.4,0.5-0.6c0.1-0.3,0.2-0.6,0.2-0.9    C714.7,163.4,714.8,163.1,714.8,162.8z" />
		<path class="st1" d="M683.8,182.7c0-0.3,0-0.6,0.1-0.9c0.1-0.3,0.2-0.5,0.4-0.7c0.2-0.2,0.4-0.3,0.7-0.4c0.3-0.1,0.5-0.1,0.9-0.1    c0.3,0,0.6,0,0.8,0.1c0.2,0.1,0.4,0.2,0.6,0.4s0.3,0.3,0.4,0.6c0.1,0.2,0.1,0.4,0.1,0.7c0,0.3,0,0.5-0.1,0.7    c-0.1,0.2-0.2,0.4-0.4,0.6c-0.2,0.2-0.3,0.3-0.5,0.4c-0.2,0.1-0.4,0.3-0.6,0.4s-0.4,0.2-0.6,0.3c-0.2,0.1-0.4,0.2-0.5,0.3    c-0.1,0.1-0.2,0.2-0.3,0.2c-0.1,0.1-0.2,0.2-0.3,0.3c-0.1,0.1-0.1,0.2-0.2,0.3s-0.1,0.3-0.1,0.4h3.5v0.5h-4.1c0-0.3,0-0.6,0.1-0.8    c0.1-0.2,0.2-0.5,0.4-0.7c0.2-0.3,0.5-0.5,0.7-0.6c0.2-0.2,0.5-0.3,0.7-0.5c0.2-0.1,0.4-0.3,0.6-0.4s0.4-0.2,0.5-0.4    c0.2-0.1,0.3-0.3,0.4-0.5s0.1-0.4,0.1-0.6c0-0.2,0-0.4-0.1-0.5c-0.1-0.2-0.2-0.3-0.3-0.4c-0.1-0.1-0.3-0.2-0.4-0.3    s-0.4-0.1-0.5-0.1c-0.2,0-0.4,0-0.6,0.1c-0.2,0.1-0.3,0.2-0.4,0.3c-0.1,0.1-0.2,0.3-0.3,0.5c-0.1,0.2-0.1,0.4-0.1,0.6H683.8z" />
		<path class="st1" d="M690.9,182.2h-1.6v-0.4c0.2,0,0.5,0,0.7-0.1s0.4-0.1,0.5-0.2c0.1-0.1,0.3-0.2,0.4-0.4    c0.1-0.2,0.2-0.4,0.2-0.6h0.5v6.3h-0.6V182.2z" />
		<path class="st1" d="M695.9,182.2h-1.6v-0.4c0.2,0,0.5,0,0.7-0.1s0.4-0.1,0.5-0.2c0.1-0.1,0.3-0.2,0.4-0.4    c0.1-0.2,0.2-0.4,0.2-0.6h0.5v6.3h-0.6V182.2z" />
		<path class="st1" d="M699.1,185.3c0.1,0.4,0.2,0.8,0.5,1s0.6,0.3,1,0.3c0.2,0,0.4,0,0.6-0.1c0.2-0.1,0.3-0.2,0.5-0.3    c0.1-0.1,0.2-0.3,0.3-0.5c0.1-0.2,0.1-0.4,0.1-0.6c0-0.2,0-0.4-0.1-0.6s-0.2-0.4-0.3-0.5c-0.1-0.1-0.3-0.3-0.5-0.3    c-0.2-0.1-0.4-0.1-0.7-0.1c-0.3,0-0.5,0.1-0.8,0.2c-0.2,0.1-0.4,0.3-0.6,0.5l-0.5-0.1l0.5-3.3h3.2v0.5h-2.7l-0.4,2.1    c0.1-0.1,0.2-0.1,0.3-0.2c0.1-0.1,0.2-0.1,0.3-0.1c0.1,0,0.2-0.1,0.3-0.1c0.1,0,0.2,0,0.4,0c0.3,0,0.6,0,0.8,0.1    c0.2,0.1,0.5,0.2,0.6,0.4c0.2,0.2,0.3,0.4,0.4,0.7c0.1,0.3,0.1,0.6,0.1,0.9c0,0.3-0.1,0.6-0.2,0.9c-0.1,0.3-0.3,0.5-0.4,0.7    c-0.2,0.2-0.4,0.3-0.6,0.4c-0.2,0.1-0.5,0.1-0.8,0.1c-0.3,0-0.6,0-0.8-0.1c-0.3-0.1-0.5-0.2-0.7-0.3c-0.2-0.1-0.4-0.3-0.5-0.5    s-0.2-0.5-0.2-0.8H699.1z" />
		<path class="st1" d="M704.1,186.9v-0.8h0.7v0.8H704.1z" />
		<path class="st1" d="M708.2,180.6c0.3,0,0.6,0,0.8,0.1c0.2,0.1,0.4,0.2,0.6,0.4s0.3,0.4,0.4,0.6c0.1,0.2,0.2,0.4,0.2,0.7    c0.1,0.2,0.1,0.5,0.1,0.8c0,0.3,0,0.5,0,0.8c0,0.4,0,0.8-0.1,1.2c-0.1,0.4-0.2,0.7-0.3,1s-0.4,0.5-0.7,0.7    c-0.3,0.2-0.6,0.3-1.1,0.3c-0.4,0-0.8-0.1-1.1-0.3c-0.3-0.2-0.5-0.4-0.7-0.7s-0.3-0.6-0.3-1c-0.1-0.4-0.1-0.8-0.1-1.2    c0-0.4,0-0.8,0.1-1.2c0.1-0.4,0.2-0.7,0.3-1c0.2-0.3,0.4-0.5,0.7-0.7C707.4,180.7,707.7,180.6,708.2,180.6z M709.8,183.8    c0-0.3,0-0.7-0.1-1c0-0.3-0.1-0.6-0.2-0.9c-0.1-0.3-0.3-0.5-0.5-0.6s-0.5-0.2-0.8-0.2c-0.3,0-0.6,0.1-0.8,0.2    c-0.2,0.2-0.4,0.4-0.5,0.6c-0.1,0.3-0.2,0.6-0.2,0.9s-0.1,0.7-0.1,1c0,0.4,0,0.8,0.1,1.1c0.1,0.3,0.1,0.6,0.3,0.9    c0.1,0.2,0.3,0.4,0.5,0.5s0.5,0.2,0.8,0.2c0.3,0,0.6-0.1,0.8-0.3s0.4-0.4,0.5-0.6c0.1-0.3,0.2-0.6,0.2-0.9    C709.7,184.4,709.8,184.1,709.8,183.8z" />
		<path class="st1" d="M713.2,180.6c0.3,0,0.6,0,0.8,0.1c0.2,0.1,0.4,0.2,0.6,0.4s0.3,0.4,0.4,0.6c0.1,0.2,0.2,0.4,0.2,0.7    c0.1,0.2,0.1,0.5,0.1,0.8c0,0.3,0,0.5,0,0.8c0,0.4,0,0.8-0.1,1.2c-0.1,0.4-0.2,0.7-0.3,1s-0.4,0.5-0.7,0.7    c-0.3,0.2-0.6,0.3-1.1,0.3c-0.4,0-0.8-0.1-1.1-0.3c-0.3-0.2-0.5-0.4-0.7-0.7s-0.3-0.6-0.3-1c-0.1-0.4-0.1-0.8-0.1-1.2    c0-0.4,0-0.8,0.1-1.2c0.1-0.4,0.2-0.7,0.3-1c0.2-0.3,0.4-0.5,0.7-0.7C712.4,180.7,712.7,180.6,713.2,180.6z M714.8,183.8    c0-0.3,0-0.7-0.1-1c0-0.3-0.1-0.6-0.2-0.9c-0.1-0.3-0.3-0.5-0.5-0.6s-0.5-0.2-0.8-0.2c-0.3,0-0.6,0.1-0.8,0.2    c-0.2,0.2-0.4,0.4-0.5,0.6c-0.1,0.3-0.2,0.6-0.2,0.9s-0.1,0.7-0.1,1c0,0.4,0,0.8,0.1,1.1c0.1,0.3,0.1,0.6,0.3,0.9    c0.1,0.2,0.3,0.4,0.5,0.5s0.5,0.2,0.8,0.2c0.3,0,0.6-0.1,0.8-0.3s0.4-0.4,0.5-0.6c0.1-0.3,0.2-0.6,0.2-0.9    C714.7,184.4,714.8,184.1,714.8,183.8z" />
		<path class="st1" d="M683.8,203.7c0-0.3,0-0.6,0.1-0.9c0.1-0.3,0.2-0.5,0.4-0.7c0.2-0.2,0.4-0.3,0.7-0.4c0.3-0.1,0.5-0.1,0.9-0.1    c0.3,0,0.6,0,0.8,0.1c0.2,0.1,0.4,0.2,0.6,0.4s0.3,0.3,0.4,0.6c0.1,0.2,0.1,0.4,0.1,0.7c0,0.3,0,0.5-0.1,0.7    c-0.1,0.2-0.2,0.4-0.4,0.6c-0.2,0.2-0.3,0.3-0.5,0.4c-0.2,0.1-0.4,0.3-0.6,0.4s-0.4,0.2-0.6,0.3c-0.2,0.1-0.4,0.2-0.5,0.3    c-0.1,0.1-0.2,0.2-0.3,0.2c-0.1,0.1-0.2,0.2-0.3,0.3c-0.1,0.1-0.1,0.2-0.2,0.3s-0.1,0.3-0.1,0.4h3.5v0.5h-4.1c0-0.3,0-0.6,0.1-0.8    c0.1-0.2,0.2-0.5,0.4-0.7c0.2-0.3,0.5-0.5,0.7-0.6c0.2-0.2,0.5-0.3,0.7-0.5c0.2-0.1,0.4-0.3,0.6-0.4s0.4-0.2,0.5-0.4    c0.2-0.1,0.3-0.3,0.4-0.5s0.1-0.4,0.1-0.6c0-0.2,0-0.4-0.1-0.5c-0.1-0.2-0.2-0.3-0.3-0.4c-0.1-0.1-0.3-0.2-0.4-0.3    s-0.4-0.1-0.5-0.1c-0.2,0-0.4,0-0.6,0.1c-0.2,0.1-0.3,0.2-0.4,0.3c-0.1,0.1-0.2,0.3-0.3,0.5c-0.1,0.2-0.1,0.4-0.1,0.6H683.8z" />
		<path class="st1" d="M690.9,203.2h-1.6v-0.4c0.2,0,0.5,0,0.7-0.1s0.4-0.1,0.5-0.2c0.1-0.1,0.3-0.2,0.4-0.4    c0.1-0.2,0.2-0.4,0.2-0.6h0.5v6.3h-0.6V203.2z" />
		<path class="st1" d="M695.9,203.2h-1.6v-0.4c0.2,0,0.5,0,0.7-0.1s0.4-0.1,0.5-0.2c0.1-0.1,0.3-0.2,0.4-0.4    c0.1-0.2,0.2-0.4,0.2-0.6h0.5v6.3h-0.6V203.2z" />
		<path class="st1" d="M700.7,201.6c0.3,0,0.6,0,0.8,0.1c0.2,0.1,0.4,0.2,0.6,0.4s0.3,0.4,0.4,0.6c0.1,0.2,0.2,0.4,0.2,0.7    c0.1,0.2,0.1,0.5,0.1,0.8c0,0.3,0,0.5,0,0.8c0,0.4,0,0.8-0.1,1.2c-0.1,0.4-0.2,0.7-0.3,1s-0.4,0.5-0.7,0.7    c-0.3,0.2-0.6,0.3-1.1,0.3c-0.4,0-0.8-0.1-1.1-0.3c-0.3-0.2-0.5-0.4-0.7-0.7s-0.3-0.6-0.3-1c-0.1-0.4-0.1-0.8-0.1-1.2    c0-0.4,0-0.8,0.1-1.2c0.1-0.4,0.2-0.7,0.3-1c0.2-0.3,0.4-0.5,0.7-0.7C699.9,201.7,700.2,201.6,700.7,201.6z M702.2,204.8    c0-0.3,0-0.7-0.1-1c0-0.3-0.1-0.6-0.2-0.9c-0.1-0.3-0.3-0.5-0.5-0.6s-0.5-0.2-0.8-0.2c-0.3,0-0.6,0.1-0.8,0.2    c-0.2,0.2-0.4,0.4-0.5,0.6c-0.1,0.3-0.2,0.6-0.2,0.9s-0.1,0.7-0.1,1c0,0.4,0,0.8,0.1,1.1c0.1,0.3,0.1,0.6,0.3,0.9    c0.1,0.2,0.3,0.4,0.5,0.5s0.5,0.2,0.8,0.2c0.3,0,0.6-0.1,0.8-0.3s0.4-0.4,0.5-0.6c0.1-0.3,0.2-0.6,0.2-0.9    C702.2,205.4,702.2,205.1,702.2,204.8z" />
		<path class="st1" d="M704.1,207.9v-0.8h0.7v0.8H704.1z" />
		<path class="st1" d="M708.2,201.6c0.3,0,0.6,0,0.8,0.1c0.2,0.1,0.4,0.2,0.6,0.4s0.3,0.4,0.4,0.6c0.1,0.2,0.2,0.4,0.2,0.7    c0.1,0.2,0.1,0.5,0.1,0.8c0,0.3,0,0.5,0,0.8c0,0.4,0,0.8-0.1,1.2c-0.1,0.4-0.2,0.7-0.3,1s-0.4,0.5-0.7,0.7    c-0.3,0.2-0.6,0.3-1.1,0.3c-0.4,0-0.8-0.1-1.1-0.3c-0.3-0.2-0.5-0.4-0.7-0.7s-0.3-0.6-0.3-1c-0.1-0.4-0.1-0.8-0.1-1.2    c0-0.4,0-0.8,0.1-1.2c0.1-0.4,0.2-0.7,0.3-1c0.2-0.3,0.4-0.5,0.7-0.7C707.4,201.7,707.7,201.6,708.2,201.6z M709.8,204.8    c0-0.3,0-0.7-0.1-1c0-0.3-0.1-0.6-0.2-0.9c-0.1-0.3-0.3-0.5-0.5-0.6s-0.5-0.2-0.8-0.2c-0.3,0-0.6,0.1-0.8,0.2    c-0.2,0.2-0.4,0.4-0.5,0.6c-0.1,0.3-0.2,0.6-0.2,0.9s-0.1,0.7-0.1,1c0,0.4,0,0.8,0.1,1.1c0.1,0.3,0.1,0.6,0.3,0.9    c0.1,0.2,0.3,0.4,0.5,0.5s0.5,0.2,0.8,0.2c0.3,0,0.6-0.1,0.8-0.3s0.4-0.4,0.5-0.6c0.1-0.3,0.2-0.6,0.2-0.9    C709.7,205.4,709.8,205.1,709.8,204.8z" />
		<path class="st1" d="M713.2,201.6c0.3,0,0.6,0,0.8,0.1c0.2,0.1,0.4,0.2,0.6,0.4s0.3,0.4,0.4,0.6c0.1,0.2,0.2,0.4,0.2,0.7    c0.1,0.2,0.1,0.5,0.1,0.8c0,0.3,0,0.5,0,0.8c0,0.4,0,0.8-0.1,1.2c-0.1,0.4-0.2,0.7-0.3,1s-0.4,0.5-0.7,0.7    c-0.3,0.2-0.6,0.3-1.1,0.3c-0.4,0-0.8-0.1-1.1-0.3c-0.3-0.2-0.5-0.4-0.7-0.7s-0.3-0.6-0.3-1c-0.1-0.4-0.1-0.8-0.1-1.2    c0-0.4,0-0.8,0.1-1.2c0.1-0.4,0.2-0.7,0.3-1c0.2-0.3,0.4-0.5,0.7-0.7C712.4,201.7,712.7,201.6,713.2,201.6z M714.8,204.8    c0-0.3,0-0.7-0.1-1c0-0.3-0.1-0.6-0.2-0.9c-0.1-0.3-0.3-0.5-0.5-0.6s-0.5-0.2-0.8-0.2c-0.3,0-0.6,0.1-0.8,0.2    c-0.2,0.2-0.4,0.4-0.5,0.6c-0.1,0.3-0.2,0.6-0.2,0.9s-0.1,0.7-0.1,1c0,0.4,0,0.8,0.1,1.1c0.1,0.3,0.1,0.6,0.3,0.9    c0.1,0.2,0.3,0.4,0.5,0.5s0.5,0.2,0.8,0.2c0.3,0,0.6-0.1,0.8-0.3s0.4-0.4,0.5-0.6c0.1-0.3,0.2-0.6,0.2-0.9    C714.7,205.4,714.8,205.1,714.8,204.8z" />
		<path class="st1" d="M683.8,224.7c0-0.3,0-0.6,0.1-0.9c0.1-0.3,0.2-0.5,0.4-0.7c0.2-0.2,0.4-0.3,0.7-0.4c0.3-0.1,0.5-0.1,0.9-0.1    c0.3,0,0.6,0,0.8,0.1c0.2,0.1,0.4,0.2,0.6,0.4s0.3,0.3,0.4,0.6c0.1,0.2,0.1,0.4,0.1,0.7c0,0.3,0,0.5-0.1,0.7    c-0.1,0.2-0.2,0.4-0.4,0.6c-0.2,0.2-0.3,0.3-0.5,0.4c-0.2,0.1-0.4,0.3-0.6,0.4s-0.4,0.2-0.6,0.3c-0.2,0.1-0.4,0.2-0.5,0.3    c-0.1,0.1-0.2,0.2-0.3,0.2c-0.1,0.1-0.2,0.2-0.3,0.3c-0.1,0.1-0.1,0.2-0.2,0.3s-0.1,0.3-0.1,0.4h3.5v0.5h-4.1c0-0.3,0-0.6,0.1-0.8    c0.1-0.2,0.2-0.5,0.4-0.7c0.2-0.3,0.5-0.5,0.7-0.6c0.2-0.2,0.5-0.3,0.7-0.5c0.2-0.1,0.4-0.3,0.6-0.4s0.4-0.2,0.5-0.4    c0.2-0.1,0.3-0.3,0.4-0.5s0.1-0.4,0.1-0.6c0-0.2,0-0.4-0.1-0.5c-0.1-0.2-0.2-0.3-0.3-0.4c-0.1-0.1-0.3-0.2-0.4-0.3    s-0.4-0.1-0.5-0.1c-0.2,0-0.4,0-0.6,0.1c-0.2,0.1-0.3,0.2-0.4,0.3c-0.1,0.1-0.2,0.3-0.3,0.5c-0.1,0.2-0.1,0.4-0.1,0.6H683.8z" />
		<path class="st1" d="M690.9,224.2h-1.6v-0.4c0.2,0,0.5,0,0.7-0.1s0.4-0.1,0.5-0.2c0.1-0.1,0.3-0.2,0.4-0.4    c0.1-0.2,0.2-0.4,0.2-0.6h0.5v6.3h-0.6V224.2z" />
		<path class="st1" d="M695.7,222.6c0.3,0,0.6,0,0.8,0.1c0.2,0.1,0.4,0.2,0.6,0.4s0.3,0.4,0.4,0.6c0.1,0.2,0.2,0.4,0.2,0.7    c0.1,0.2,0.1,0.5,0.1,0.8c0,0.3,0,0.5,0,0.8c0,0.4,0,0.8-0.1,1.2c-0.1,0.4-0.2,0.7-0.3,1s-0.4,0.5-0.7,0.7    c-0.3,0.2-0.6,0.3-1.1,0.3c-0.4,0-0.8-0.1-1.1-0.3c-0.3-0.2-0.5-0.4-0.7-0.7s-0.3-0.6-0.3-1c-0.1-0.4-0.1-0.8-0.1-1.2    c0-0.4,0-0.8,0.1-1.2c0.1-0.4,0.2-0.7,0.3-1c0.2-0.3,0.4-0.5,0.7-0.7C694.9,222.7,695.2,222.6,695.7,222.6z M697.2,225.8    c0-0.3,0-0.7-0.1-1c0-0.3-0.1-0.6-0.2-0.9c-0.1-0.3-0.3-0.5-0.5-0.6s-0.5-0.2-0.8-0.2c-0.3,0-0.6,0.1-0.8,0.2    c-0.2,0.2-0.4,0.4-0.5,0.6c-0.1,0.3-0.2,0.6-0.2,0.9s-0.1,0.7-0.1,1c0,0.4,0,0.8,0.1,1.1c0.1,0.3,0.1,0.6,0.3,0.9    c0.1,0.2,0.3,0.4,0.5,0.5s0.5,0.2,0.8,0.2c0.3,0,0.6-0.1,0.8-0.3s0.4-0.4,0.5-0.6c0.1-0.3,0.2-0.6,0.2-0.9    C697.2,226.4,697.2,226.1,697.2,225.8z" />
		<path class="st1" d="M699.1,227.3c0.1,0.4,0.2,0.8,0.5,1s0.6,0.3,1,0.3c0.2,0,0.4,0,0.6-0.1c0.2-0.1,0.3-0.2,0.5-0.3    c0.1-0.1,0.2-0.3,0.3-0.5c0.1-0.2,0.1-0.4,0.1-0.6c0-0.2,0-0.4-0.1-0.6s-0.2-0.4-0.3-0.5c-0.1-0.1-0.3-0.3-0.5-0.3    c-0.2-0.1-0.4-0.1-0.7-0.1c-0.3,0-0.5,0.1-0.8,0.2c-0.2,0.1-0.4,0.3-0.6,0.5l-0.5-0.1l0.5-3.3h3.2v0.5h-2.7l-0.4,2.1    c0.1-0.1,0.2-0.1,0.3-0.2c0.1-0.1,0.2-0.1,0.3-0.1c0.1,0,0.2-0.1,0.3-0.1c0.1,0,0.2,0,0.4,0c0.3,0,0.6,0,0.8,0.1    c0.2,0.1,0.5,0.2,0.6,0.4c0.2,0.2,0.3,0.4,0.4,0.7c0.1,0.3,0.1,0.6,0.1,0.9c0,0.3-0.1,0.6-0.2,0.9c-0.1,0.3-0.3,0.5-0.4,0.7    c-0.2,0.2-0.4,0.3-0.6,0.4c-0.2,0.1-0.5,0.1-0.8,0.1c-0.3,0-0.6,0-0.8-0.1c-0.3-0.1-0.5-0.2-0.7-0.3c-0.2-0.1-0.4-0.3-0.5-0.5    s-0.2-0.5-0.2-0.8H699.1z" />
		<path class="st1" d="M704.1,228.9v-0.8h0.7v0.8H704.1z" />
		<path class="st1" d="M708.2,222.6c0.3,0,0.6,0,0.8,0.1c0.2,0.1,0.4,0.2,0.6,0.4s0.3,0.4,0.4,0.6c0.1,0.2,0.2,0.4,0.2,0.7    c0.1,0.2,0.1,0.5,0.1,0.8c0,0.3,0,0.5,0,0.8c0,0.4,0,0.8-0.1,1.2c-0.1,0.4-0.2,0.7-0.3,1s-0.4,0.5-0.7,0.7    c-0.3,0.2-0.6,0.3-1.1,0.3c-0.4,0-0.8-0.1-1.1-0.3c-0.3-0.2-0.5-0.4-0.7-0.7s-0.3-0.6-0.3-1c-0.1-0.4-0.1-0.8-0.1-1.2    c0-0.4,0-0.8,0.1-1.2c0.1-0.4,0.2-0.7,0.3-1c0.2-0.3,0.4-0.5,0.7-0.7C707.4,222.7,707.7,222.6,708.2,222.6z M709.8,225.8    c0-0.3,0-0.7-0.1-1c0-0.3-0.1-0.6-0.2-0.9c-0.1-0.3-0.3-0.5-0.5-0.6s-0.5-0.2-0.8-0.2c-0.3,0-0.6,0.1-0.8,0.2    c-0.2,0.2-0.4,0.4-0.5,0.6c-0.1,0.3-0.2,0.6-0.2,0.9s-0.1,0.7-0.1,1c0,0.4,0,0.8,0.1,1.1c0.1,0.3,0.1,0.6,0.3,0.9    c0.1,0.2,0.3,0.4,0.5,0.5s0.5,0.2,0.8,0.2c0.3,0,0.6-0.1,0.8-0.3s0.4-0.4,0.5-0.6c0.1-0.3,0.2-0.6,0.2-0.9    C709.7,226.4,709.8,226.1,709.8,225.8z" />
		<path class="st1" d="M713.2,222.6c0.3,0,0.6,0,0.8,0.1c0.2,0.1,0.4,0.2,0.6,0.4s0.3,0.4,0.4,0.6c0.1,0.2,0.2,0.4,0.2,0.7    c0.1,0.2,0.1,0.5,0.1,0.8c0,0.3,0,0.5,0,0.8c0,0.4,0,0.8-0.1,1.2c-0.1,0.4-0.2,0.7-0.3,1s-0.4,0.5-0.7,0.7    c-0.3,0.2-0.6,0.3-1.1,0.3c-0.4,0-0.8-0.1-1.1-0.3c-0.3-0.2-0.5-0.4-0.7-0.7s-0.3-0.6-0.3-1c-0.1-0.4-0.1-0.8-0.1-1.2    c0-0.4,0-0.8,0.1-1.2c0.1-0.4,0.2-0.7,0.3-1c0.2-0.3,0.4-0.5,0.7-0.7C712.4,222.7,712.7,222.6,713.2,222.6z M714.8,225.8    c0-0.3,0-0.7-0.1-1c0-0.3-0.1-0.6-0.2-0.9c-0.1-0.3-0.3-0.5-0.5-0.6s-0.5-0.2-0.8-0.2c-0.3,0-0.6,0.1-0.8,0.2    c-0.2,0.2-0.4,0.4-0.5,0.6c-0.1,0.3-0.2,0.6-0.2,0.9s-0.1,0.7-0.1,1c0,0.4,0,0.8,0.1,1.1c0.1,0.3,0.1,0.6,0.3,0.9    c0.1,0.2,0.3,0.4,0.5,0.5s0.5,0.2,0.8,0.2c0.3,0,0.6-0.1,0.8-0.3s0.4-0.4,0.5-0.6c0.1-0.3,0.2-0.6,0.2-0.9    C714.7,226.4,714.8,226.1,714.8,225.8z" />
		<path class="st1" d="M683.8,245.7c0-0.3,0-0.6,0.1-0.9c0.1-0.3,0.2-0.5,0.4-0.7c0.2-0.2,0.4-0.3,0.7-0.4c0.3-0.1,0.5-0.1,0.9-0.1    c0.3,0,0.6,0,0.8,0.1c0.2,0.1,0.4,0.2,0.6,0.4s0.3,0.3,0.4,0.6c0.1,0.2,0.1,0.4,0.1,0.7c0,0.3,0,0.5-0.1,0.7    c-0.1,0.2-0.2,0.4-0.4,0.6c-0.2,0.2-0.3,0.3-0.5,0.4c-0.2,0.1-0.4,0.3-0.6,0.4s-0.4,0.2-0.6,0.3c-0.2,0.1-0.4,0.2-0.5,0.3    c-0.1,0.1-0.2,0.2-0.3,0.2c-0.1,0.1-0.2,0.2-0.3,0.3c-0.1,0.1-0.1,0.2-0.2,0.3s-0.1,0.3-0.1,0.4h3.5v0.5h-4.1c0-0.3,0-0.6,0.1-0.8    c0.1-0.2,0.2-0.5,0.4-0.7c0.2-0.3,0.5-0.5,0.7-0.6c0.2-0.2,0.5-0.3,0.7-0.5c0.2-0.1,0.4-0.3,0.6-0.4s0.4-0.2,0.5-0.4    c0.2-0.1,0.3-0.3,0.4-0.5s0.1-0.4,0.1-0.6c0-0.2,0-0.4-0.1-0.5c-0.1-0.2-0.2-0.3-0.3-0.4c-0.1-0.1-0.3-0.2-0.4-0.3    s-0.4-0.1-0.5-0.1c-0.2,0-0.4,0-0.6,0.1c-0.2,0.1-0.3,0.2-0.4,0.3c-0.1,0.1-0.2,0.3-0.3,0.5c-0.1,0.2-0.1,0.4-0.1,0.6H683.8z" />
		<path class="st1" d="M690.9,245.2h-1.6v-0.4c0.2,0,0.5,0,0.7-0.1s0.4-0.1,0.5-0.2c0.1-0.1,0.3-0.2,0.4-0.4    c0.1-0.2,0.2-0.4,0.2-0.6h0.5v6.3h-0.6V245.2z" />
		<path class="st1" d="M695.7,243.6c0.3,0,0.6,0,0.8,0.1c0.2,0.1,0.4,0.2,0.6,0.4s0.3,0.4,0.4,0.6c0.1,0.2,0.2,0.4,0.2,0.7    c0.1,0.2,0.1,0.5,0.1,0.8c0,0.3,0,0.5,0,0.8c0,0.4,0,0.8-0.1,1.2c-0.1,0.4-0.2,0.7-0.3,1s-0.4,0.5-0.7,0.7    c-0.3,0.2-0.6,0.3-1.1,0.3c-0.4,0-0.8-0.1-1.1-0.3c-0.3-0.2-0.5-0.4-0.7-0.7s-0.3-0.6-0.3-1c-0.1-0.4-0.1-0.8-0.1-1.2    c0-0.4,0-0.8,0.1-1.2c0.1-0.4,0.2-0.7,0.3-1c0.2-0.3,0.4-0.5,0.7-0.7C694.9,243.7,695.2,243.6,695.7,243.6z M697.2,246.8    c0-0.3,0-0.7-0.1-1c0-0.3-0.1-0.6-0.2-0.9c-0.1-0.3-0.3-0.5-0.5-0.6s-0.5-0.2-0.8-0.2c-0.3,0-0.6,0.1-0.8,0.2    c-0.2,0.2-0.4,0.4-0.5,0.6c-0.1,0.3-0.2,0.6-0.2,0.9s-0.1,0.7-0.1,1c0,0.4,0,0.8,0.1,1.1c0.1,0.3,0.1,0.6,0.3,0.9    c0.1,0.2,0.3,0.4,0.5,0.5s0.5,0.2,0.8,0.2c0.3,0,0.6-0.1,0.8-0.3s0.4-0.4,0.5-0.6c0.1-0.3,0.2-0.6,0.2-0.9    C697.2,247.4,697.2,247.1,697.2,246.8z" />
		<path class="st1" d="M700.7,243.6c0.3,0,0.6,0,0.8,0.1c0.2,0.1,0.4,0.2,0.6,0.4s0.3,0.4,0.4,0.6c0.1,0.2,0.2,0.4,0.2,0.7    c0.1,0.2,0.1,0.5,0.1,0.8c0,0.3,0,0.5,0,0.8c0,0.4,0,0.8-0.1,1.2c-0.1,0.4-0.2,0.7-0.3,1s-0.4,0.5-0.7,0.7    c-0.3,0.2-0.6,0.3-1.1,0.3c-0.4,0-0.8-0.1-1.1-0.3c-0.3-0.2-0.5-0.4-0.7-0.7s-0.3-0.6-0.3-1c-0.1-0.4-0.1-0.8-0.1-1.2    c0-0.4,0-0.8,0.1-1.2c0.1-0.4,0.2-0.7,0.3-1c0.2-0.3,0.4-0.5,0.7-0.7C699.9,243.7,700.2,243.6,700.7,243.6z M702.2,246.8    c0-0.3,0-0.7-0.1-1c0-0.3-0.1-0.6-0.2-0.9c-0.1-0.3-0.3-0.5-0.5-0.6s-0.5-0.2-0.8-0.2c-0.3,0-0.6,0.1-0.8,0.2    c-0.2,0.2-0.4,0.4-0.5,0.6c-0.1,0.3-0.2,0.6-0.2,0.9s-0.1,0.7-0.1,1c0,0.4,0,0.8,0.1,1.1c0.1,0.3,0.1,0.6,0.3,0.9    c0.1,0.2,0.3,0.4,0.5,0.5s0.5,0.2,0.8,0.2c0.3,0,0.6-0.1,0.8-0.3s0.4-0.4,0.5-0.6c0.1-0.3,0.2-0.6,0.2-0.9    C702.2,247.4,702.2,247.1,702.2,246.8z" />
		<path class="st1" d="M704.1,249.9v-0.8h0.7v0.8H704.1z" />
		<path class="st1" d="M708.2,243.6c0.3,0,0.6,0,0.8,0.1c0.2,0.1,0.4,0.2,0.6,0.4s0.3,0.4,0.4,0.6c0.1,0.2,0.2,0.4,0.2,0.7    c0.1,0.2,0.1,0.5,0.1,0.8c0,0.3,0,0.5,0,0.8c0,0.4,0,0.8-0.1,1.2c-0.1,0.4-0.2,0.7-0.3,1s-0.4,0.5-0.7,0.7    c-0.3,0.2-0.6,0.3-1.1,0.3c-0.4,0-0.8-0.1-1.1-0.3c-0.3-0.2-0.5-0.4-0.7-0.7s-0.3-0.6-0.3-1c-0.1-0.4-0.1-0.8-0.1-1.2    c0-0.4,0-0.8,0.1-1.2c0.1-0.4,0.2-0.7,0.3-1c0.2-0.3,0.4-0.5,0.7-0.7C707.4,243.7,707.7,243.6,708.2,243.6z M709.8,246.8    c0-0.3,0-0.7-0.1-1c0-0.3-0.1-0.6-0.2-0.9c-0.1-0.3-0.3-0.5-0.5-0.6s-0.5-0.2-0.8-0.2c-0.3,0-0.6,0.1-0.8,0.2    c-0.2,0.2-0.4,0.4-0.5,0.6c-0.1,0.3-0.2,0.6-0.2,0.9s-0.1,0.7-0.1,1c0,0.4,0,0.8,0.1,1.1c0.1,0.3,0.1,0.6,0.3,0.9    c0.1,0.2,0.3,0.4,0.5,0.5s0.5,0.2,0.8,0.2c0.3,0,0.6-0.1,0.8-0.3s0.4-0.4,0.5-0.6c0.1-0.3,0.2-0.6,0.2-0.9    C709.7,247.4,709.8,247.1,709.8,246.8z" />
		<path class="st1" d="M713.2,243.6c0.3,0,0.6,0,0.8,0.1c0.2,0.1,0.4,0.2,0.6,0.4s0.3,0.4,0.4,0.6c0.1,0.2,0.2,0.4,0.2,0.7    c0.1,0.2,0.1,0.5,0.1,0.8c0,0.3,0,0.5,0,0.8c0,0.4,0,0.8-0.1,1.2c-0.1,0.4-0.2,0.7-0.3,1s-0.4,0.5-0.7,0.7    c-0.3,0.2-0.6,0.3-1.1,0.3c-0.4,0-0.8-0.1-1.1-0.3c-0.3-0.2-0.5-0.4-0.7-0.7s-0.3-0.6-0.3-1c-0.1-0.4-0.1-0.8-0.1-1.2    c0-0.4,0-0.8,0.1-1.2c0.1-0.4,0.2-0.7,0.3-1c0.2-0.3,0.4-0.5,0.7-0.7C712.4,243.7,712.7,243.6,713.2,243.6z M714.8,246.8    c0-0.3,0-0.7-0.1-1c0-0.3-0.1-0.6-0.2-0.9c-0.1-0.3-0.3-0.5-0.5-0.6s-0.5-0.2-0.8-0.2c-0.3,0-0.6,0.1-0.8,0.2    c-0.2,0.2-0.4,0.4-0.5,0.6c-0.1,0.3-0.2,0.6-0.2,0.9s-0.1,0.7-0.1,1c0,0.4,0,0.8,0.1,1.1c0.1,0.3,0.1,0.6,0.3,0.9    c0.1,0.2,0.3,0.4,0.5,0.5s0.5,0.2,0.8,0.2c0.3,0,0.6-0.1,0.8-0.3s0.4-0.4,0.5-0.6c0.1-0.3,0.2-0.6,0.2-0.9    C714.7,247.4,714.8,247.1,714.8,246.8z" />
		<path class="st1" d="M683.8,266.7c0-0.3,0-0.6,0.1-0.9c0.1-0.3,0.2-0.5,0.4-0.7c0.2-0.2,0.4-0.3,0.7-0.4c0.3-0.1,0.5-0.1,0.9-0.1    c0.3,0,0.6,0,0.8,0.1c0.2,0.1,0.4,0.2,0.6,0.4s0.3,0.3,0.4,0.6c0.1,0.2,0.1,0.4,0.1,0.7c0,0.3,0,0.5-0.1,0.7    c-0.1,0.2-0.2,0.4-0.4,0.6c-0.2,0.2-0.3,0.3-0.5,0.4c-0.2,0.1-0.4,0.3-0.6,0.4s-0.4,0.2-0.6,0.3c-0.2,0.1-0.4,0.2-0.5,0.3    c-0.1,0.1-0.2,0.2-0.3,0.2c-0.1,0.1-0.2,0.2-0.3,0.3c-0.1,0.1-0.1,0.2-0.2,0.3s-0.1,0.3-0.1,0.4h3.5v0.5h-4.1c0-0.3,0-0.6,0.1-0.8    c0.1-0.2,0.2-0.5,0.4-0.7c0.2-0.3,0.5-0.5,0.7-0.6c0.2-0.2,0.5-0.3,0.7-0.5c0.2-0.1,0.4-0.3,0.6-0.4s0.4-0.2,0.5-0.4    c0.2-0.1,0.3-0.3,0.4-0.5s0.1-0.4,0.1-0.6c0-0.2,0-0.4-0.1-0.5c-0.1-0.2-0.2-0.3-0.3-0.4c-0.1-0.1-0.3-0.2-0.4-0.3    s-0.4-0.1-0.5-0.1c-0.2,0-0.4,0-0.6,0.1c-0.2,0.1-0.3,0.2-0.4,0.3c-0.1,0.1-0.2,0.3-0.3,0.5c-0.1,0.2-0.1,0.4-0.1,0.6H683.8z" />
		<path class="st1" d="M690.7,264.6c0.3,0,0.6,0,0.8,0.1c0.2,0.1,0.4,0.2,0.6,0.4s0.3,0.4,0.4,0.6c0.1,0.2,0.2,0.4,0.2,0.7    c0.1,0.2,0.1,0.5,0.1,0.8c0,0.3,0,0.5,0,0.8c0,0.4,0,0.8-0.1,1.2c-0.1,0.4-0.2,0.7-0.3,1s-0.4,0.5-0.7,0.7    c-0.3,0.2-0.6,0.3-1.1,0.3c-0.4,0-0.8-0.1-1.1-0.3c-0.3-0.2-0.5-0.4-0.7-0.7s-0.3-0.6-0.3-1c-0.1-0.4-0.1-0.8-0.1-1.2    c0-0.4,0-0.8,0.1-1.2c0.1-0.4,0.2-0.7,0.3-1c0.2-0.3,0.4-0.5,0.7-0.7C689.8,264.7,690.2,264.6,690.7,264.6z M692.2,267.8    c0-0.3,0-0.7-0.1-1c0-0.3-0.1-0.6-0.2-0.9c-0.1-0.3-0.3-0.5-0.5-0.6s-0.5-0.2-0.8-0.2c-0.3,0-0.6,0.1-0.8,0.2    c-0.2,0.2-0.4,0.4-0.5,0.6c-0.1,0.3-0.2,0.6-0.2,0.9s-0.1,0.7-0.1,1c0,0.4,0,0.8,0.1,1.1c0.1,0.3,0.1,0.6,0.3,0.9    c0.1,0.2,0.3,0.4,0.5,0.5s0.5,0.2,0.8,0.2c0.3,0,0.6-0.1,0.8-0.3s0.4-0.4,0.5-0.6c0.1-0.3,0.2-0.6,0.2-0.9    C692.2,268.4,692.2,268.1,692.2,267.8z" />
		<path class="st1" d="M694.2,269.5c0.1,0.3,0.2,0.6,0.4,0.8c0.2,0.2,0.5,0.3,0.8,0.3c0.4,0,0.7-0.1,0.9-0.3    c0.2-0.2,0.4-0.4,0.5-0.7s0.2-0.6,0.3-0.9c0-0.3,0.1-0.6,0.1-0.9l0,0c-0.2,0.3-0.4,0.6-0.7,0.7s-0.6,0.3-1,0.3    c-0.3,0-0.6,0-0.8-0.1c-0.2-0.1-0.4-0.2-0.6-0.4c-0.2-0.2-0.3-0.4-0.4-0.6c-0.1-0.3-0.1-0.5-0.1-0.8c0-0.3,0-0.6,0.1-0.8    c0.1-0.3,0.2-0.5,0.4-0.7c0.2-0.2,0.4-0.3,0.6-0.4c0.3-0.1,0.6-0.2,0.9-0.2c0.4,0,0.8,0.1,1.1,0.3s0.5,0.4,0.7,0.7    c0.2,0.3,0.3,0.6,0.4,1c0.1,0.4,0.1,0.8,0.1,1.3c0,0.5-0.1,1-0.2,1.4s-0.3,0.7-0.5,1c-0.2,0.3-0.5,0.5-0.7,0.6s-0.6,0.2-0.9,0.2    c-0.2,0-0.5,0-0.7-0.1s-0.4-0.2-0.6-0.3c-0.2-0.1-0.3-0.3-0.4-0.5c-0.1-0.2-0.2-0.4-0.2-0.7H694.2z M695.6,265.1    c-0.5,0-0.9,0.2-1.1,0.5c-0.2,0.3-0.4,0.7-0.4,1.2c0,0.5,0.1,0.9,0.4,1.1c0.3,0.3,0.6,0.4,1.1,0.4c0.2,0,0.4,0,0.6-0.1    c0.2-0.1,0.3-0.2,0.5-0.3c0.1-0.1,0.2-0.3,0.3-0.5c0.1-0.2,0.1-0.4,0.1-0.6c0-0.5-0.1-0.8-0.4-1.1S696,265.1,695.6,265.1z" />
		<path class="st1" d="M699.1,269.3c0.1,0.4,0.2,0.8,0.5,1s0.6,0.3,1,0.3c0.2,0,0.4,0,0.6-0.1c0.2-0.1,0.3-0.2,0.5-0.3    c0.1-0.1,0.2-0.3,0.3-0.5c0.1-0.2,0.1-0.4,0.1-0.6c0-0.2,0-0.4-0.1-0.6s-0.2-0.4-0.3-0.5c-0.1-0.1-0.3-0.3-0.5-0.3    c-0.2-0.1-0.4-0.1-0.7-0.1c-0.3,0-0.5,0.1-0.8,0.2c-0.2,0.1-0.4,0.3-0.6,0.5l-0.5-0.1l0.5-3.3h3.2v0.5h-2.7l-0.4,2.1    c0.1-0.1,0.2-0.1,0.3-0.2c0.1-0.1,0.2-0.1,0.3-0.1c0.1,0,0.2-0.1,0.3-0.1c0.1,0,0.2,0,0.4,0c0.3,0,0.6,0,0.8,0.1    c0.2,0.1,0.5,0.2,0.6,0.4c0.2,0.2,0.3,0.4,0.4,0.7c0.1,0.3,0.1,0.6,0.1,0.9c0,0.3-0.1,0.6-0.2,0.9c-0.1,0.3-0.3,0.5-0.4,0.7    c-0.2,0.2-0.4,0.3-0.6,0.4c-0.2,0.1-0.5,0.1-0.8,0.1c-0.3,0-0.6,0-0.8-0.1c-0.3-0.1-0.5-0.2-0.7-0.3c-0.2-0.1-0.4-0.3-0.5-0.5    s-0.2-0.5-0.2-0.8H699.1z" />
		<path class="st1" d="M704.1,270.9v-0.8h0.7v0.8H704.1z" />
		<path class="st1" d="M708.2,264.6c0.3,0,0.6,0,0.8,0.1c0.2,0.1,0.4,0.2,0.6,0.4s0.3,0.4,0.4,0.6c0.1,0.2,0.2,0.4,0.2,0.7    c0.1,0.2,0.1,0.5,0.1,0.8c0,0.3,0,0.5,0,0.8c0,0.4,0,0.8-0.1,1.2c-0.1,0.4-0.2,0.7-0.3,1s-0.4,0.5-0.7,0.7    c-0.3,0.2-0.6,0.3-1.1,0.3c-0.4,0-0.8-0.1-1.1-0.3c-0.3-0.2-0.5-0.4-0.7-0.7s-0.3-0.6-0.3-1c-0.1-0.4-0.1-0.8-0.1-1.2    c0-0.4,0-0.8,0.1-1.2c0.1-0.4,0.2-0.7,0.3-1c0.2-0.3,0.4-0.5,0.7-0.7C707.4,264.7,707.7,264.6,708.2,264.6z M709.8,267.8    c0-0.3,0-0.7-0.1-1c0-0.3-0.1-0.6-0.2-0.9c-0.1-0.3-0.3-0.5-0.5-0.6s-0.5-0.2-0.8-0.2c-0.3,0-0.6,0.1-0.8,0.2    c-0.2,0.2-0.4,0.4-0.5,0.6c-0.1,0.3-0.2,0.6-0.2,0.9s-0.1,0.7-0.1,1c0,0.4,0,0.8,0.1,1.1c0.1,0.3,0.1,0.6,0.3,0.9    c0.1,0.2,0.3,0.4,0.5,0.5s0.5,0.2,0.8,0.2c0.3,0,0.6-0.1,0.8-0.3s0.4-0.4,0.5-0.6c0.1-0.3,0.2-0.6,0.2-0.9    C709.7,268.4,709.8,268.1,709.8,267.8z" />
		<path class="st1" d="M713.2,264.6c0.3,0,0.6,0,0.8,0.1c0.2,0.1,0.4,0.2,0.6,0.4s0.3,0.4,0.4,0.6c0.1,0.2,0.2,0.4,0.2,0.7    c0.1,0.2,0.1,0.5,0.1,0.8c0,0.3,0,0.5,0,0.8c0,0.4,0,0.8-0.1,1.2c-0.1,0.4-0.2,0.7-0.3,1s-0.4,0.5-0.7,0.7    c-0.3,0.2-0.6,0.3-1.1,0.3c-0.4,0-0.8-0.1-1.1-0.3c-0.3-0.2-0.5-0.4-0.7-0.7s-0.3-0.6-0.3-1c-0.1-0.4-0.1-0.8-0.1-1.2    c0-0.4,0-0.8,0.1-1.2c0.1-0.4,0.2-0.7,0.3-1c0.2-0.3,0.4-0.5,0.7-0.7C712.4,264.7,712.7,264.6,713.2,264.6z M714.8,267.8    c0-0.3,0-0.7-0.1-1c0-0.3-0.1-0.6-0.2-0.9c-0.1-0.3-0.3-0.5-0.5-0.6s-0.5-0.2-0.8-0.2c-0.3,0-0.6,0.1-0.8,0.2    c-0.2,0.2-0.4,0.4-0.5,0.6c-0.1,0.3-0.2,0.6-0.2,0.9s-0.1,0.7-0.1,1c0,0.4,0,0.8,0.1,1.1c0.1,0.3,0.1,0.6,0.3,0.9    c0.1,0.2,0.3,0.4,0.5,0.5s0.5,0.2,0.8,0.2c0.3,0,0.6-0.1,0.8-0.3s0.4-0.4,0.5-0.6c0.1-0.3,0.2-0.6,0.2-0.9    C714.7,268.4,714.8,268.1,714.8,267.8z" />
		<path class="st1" d="M683.8,287.7c0-0.3,0-0.6,0.1-0.9c0.1-0.3,0.2-0.5,0.4-0.7c0.2-0.2,0.4-0.3,0.7-0.4c0.3-0.1,0.5-0.1,0.9-0.1    c0.3,0,0.6,0,0.8,0.1c0.2,0.1,0.4,0.2,0.6,0.4s0.3,0.3,0.4,0.6c0.1,0.2,0.1,0.4,0.1,0.7c0,0.3,0,0.5-0.1,0.7    c-0.1,0.2-0.2,0.4-0.4,0.6c-0.2,0.2-0.3,0.3-0.5,0.4c-0.2,0.1-0.4,0.3-0.6,0.4s-0.4,0.2-0.6,0.3c-0.2,0.1-0.4,0.2-0.5,0.3    c-0.1,0.1-0.2,0.2-0.3,0.2c-0.1,0.1-0.2,0.2-0.3,0.3c-0.1,0.1-0.1,0.2-0.2,0.3s-0.1,0.3-0.1,0.4h3.5v0.5h-4.1c0-0.3,0-0.6,0.1-0.8    c0.1-0.2,0.2-0.5,0.4-0.7c0.2-0.3,0.5-0.5,0.7-0.6c0.2-0.2,0.5-0.3,0.7-0.5c0.2-0.1,0.4-0.3,0.6-0.4s0.4-0.2,0.5-0.4    c0.2-0.1,0.3-0.3,0.4-0.5s0.1-0.4,0.1-0.6c0-0.2,0-0.4-0.1-0.5c-0.1-0.2-0.2-0.3-0.3-0.4c-0.1-0.1-0.3-0.2-0.4-0.3    s-0.4-0.1-0.5-0.1c-0.2,0-0.4,0-0.6,0.1c-0.2,0.1-0.3,0.2-0.4,0.3c-0.1,0.1-0.2,0.3-0.3,0.5c-0.1,0.2-0.1,0.4-0.1,0.6H683.8z" />
		<path class="st1" d="M690.7,285.6c0.3,0,0.6,0,0.8,0.1c0.2,0.1,0.4,0.2,0.6,0.4s0.3,0.4,0.4,0.6c0.1,0.2,0.2,0.4,0.2,0.7    c0.1,0.2,0.1,0.5,0.1,0.8c0,0.3,0,0.5,0,0.8c0,0.4,0,0.8-0.1,1.2c-0.1,0.4-0.2,0.7-0.3,1s-0.4,0.5-0.7,0.7    c-0.3,0.2-0.6,0.3-1.1,0.3c-0.4,0-0.8-0.1-1.1-0.3c-0.3-0.2-0.5-0.4-0.7-0.7s-0.3-0.6-0.3-1c-0.1-0.4-0.1-0.8-0.1-1.2    c0-0.4,0-0.8,0.1-1.2c0.1-0.4,0.2-0.7,0.3-1c0.2-0.3,0.4-0.5,0.7-0.7C689.8,285.7,690.2,285.6,690.7,285.6z M692.2,288.8    c0-0.3,0-0.7-0.1-1c0-0.3-0.1-0.6-0.2-0.9c-0.1-0.3-0.3-0.5-0.5-0.6s-0.5-0.2-0.8-0.2c-0.3,0-0.6,0.1-0.8,0.2    c-0.2,0.2-0.4,0.4-0.5,0.6c-0.1,0.3-0.2,0.6-0.2,0.9s-0.1,0.7-0.1,1c0,0.4,0,0.8,0.1,1.1c0.1,0.3,0.1,0.6,0.3,0.9    c0.1,0.2,0.3,0.4,0.5,0.5s0.5,0.2,0.8,0.2c0.3,0,0.6-0.1,0.8-0.3s0.4-0.4,0.5-0.6c0.1-0.3,0.2-0.6,0.2-0.9    C692.2,289.4,692.2,289.1,692.2,288.8z" />
		<path class="st1" d="M694.2,290.5c0.1,0.3,0.2,0.6,0.4,0.8c0.2,0.2,0.5,0.3,0.8,0.3c0.4,0,0.7-0.1,0.9-0.3    c0.2-0.2,0.4-0.4,0.5-0.7s0.2-0.6,0.3-0.9c0-0.3,0.1-0.6,0.1-0.9l0,0c-0.2,0.3-0.4,0.6-0.7,0.7s-0.6,0.3-1,0.3    c-0.3,0-0.6,0-0.8-0.1c-0.2-0.1-0.4-0.2-0.6-0.4c-0.2-0.2-0.3-0.4-0.4-0.6c-0.1-0.3-0.1-0.5-0.1-0.8c0-0.3,0-0.6,0.1-0.8    c0.1-0.3,0.2-0.5,0.4-0.7c0.2-0.2,0.4-0.3,0.6-0.4c0.3-0.1,0.6-0.2,0.9-0.2c0.4,0,0.8,0.1,1.1,0.3s0.5,0.4,0.7,0.7    c0.2,0.3,0.3,0.6,0.4,1c0.1,0.4,0.1,0.8,0.1,1.3c0,0.5-0.1,1-0.2,1.4s-0.3,0.7-0.5,1c-0.2,0.3-0.5,0.5-0.7,0.6s-0.6,0.2-0.9,0.2    c-0.2,0-0.5,0-0.7-0.1s-0.4-0.2-0.6-0.3c-0.2-0.1-0.3-0.3-0.4-0.5c-0.1-0.2-0.2-0.4-0.2-0.7H694.2z M695.6,286.1    c-0.5,0-0.9,0.2-1.1,0.5c-0.2,0.3-0.4,0.7-0.4,1.2c0,0.5,0.1,0.9,0.4,1.1c0.3,0.3,0.6,0.4,1.1,0.4c0.2,0,0.4,0,0.6-0.1    c0.2-0.1,0.3-0.2,0.5-0.3c0.1-0.1,0.2-0.3,0.3-0.5c0.1-0.2,0.1-0.4,0.1-0.6c0-0.5-0.1-0.8-0.4-1.1S696,286.1,695.6,286.1z" />
		<path class="st1" d="M700.7,285.6c0.3,0,0.6,0,0.8,0.1c0.2,0.1,0.4,0.2,0.6,0.4s0.3,0.4,0.4,0.6c0.1,0.2,0.2,0.4,0.2,0.7    c0.1,0.2,0.1,0.5,0.1,0.8c0,0.3,0,0.5,0,0.8c0,0.4,0,0.8-0.1,1.2c-0.1,0.4-0.2,0.7-0.3,1s-0.4,0.5-0.7,0.7    c-0.3,0.2-0.6,0.3-1.1,0.3c-0.4,0-0.8-0.1-1.1-0.3c-0.3-0.2-0.5-0.4-0.7-0.7s-0.3-0.6-0.3-1c-0.1-0.4-0.1-0.8-0.1-1.2    c0-0.4,0-0.8,0.1-1.2c0.1-0.4,0.2-0.7,0.3-1c0.2-0.3,0.4-0.5,0.7-0.7C699.9,285.7,700.2,285.6,700.7,285.6z M702.2,288.8    c0-0.3,0-0.7-0.1-1c0-0.3-0.1-0.6-0.2-0.9c-0.1-0.3-0.3-0.5-0.5-0.6s-0.5-0.2-0.8-0.2c-0.3,0-0.6,0.1-0.8,0.2    c-0.2,0.2-0.4,0.4-0.5,0.6c-0.1,0.3-0.2,0.6-0.2,0.9s-0.1,0.7-0.1,1c0,0.4,0,0.8,0.1,1.1c0.1,0.3,0.1,0.6,0.3,0.9    c0.1,0.2,0.3,0.4,0.5,0.5s0.5,0.2,0.8,0.2c0.3,0,0.6-0.1,0.8-0.3s0.4-0.4,0.5-0.6c0.1-0.3,0.2-0.6,0.2-0.9    C702.2,289.4,702.2,289.1,702.2,288.8z" />
		<path class="st1" d="M704.1,291.9v-0.8h0.7v0.8H704.1z" />
		<path class="st1" d="M708.2,285.6c0.3,0,0.6,0,0.8,0.1c0.2,0.1,0.4,0.2,0.6,0.4s0.3,0.4,0.4,0.6c0.1,0.2,0.2,0.4,0.2,0.7    c0.1,0.2,0.1,0.5,0.1,0.8c0,0.3,0,0.5,0,0.8c0,0.4,0,0.8-0.1,1.2c-0.1,0.4-0.2,0.7-0.3,1s-0.4,0.5-0.7,0.7    c-0.3,0.2-0.6,0.3-1.1,0.3c-0.4,0-0.8-0.1-1.1-0.3c-0.3-0.2-0.5-0.4-0.7-0.7s-0.3-0.6-0.3-1c-0.1-0.4-0.1-0.8-0.1-1.2    c0-0.4,0-0.8,0.1-1.2c0.1-0.4,0.2-0.7,0.3-1c0.2-0.3,0.4-0.5,0.7-0.7C707.4,285.7,707.7,285.6,708.2,285.6z M709.8,288.8    c0-0.3,0-0.7-0.1-1c0-0.3-0.1-0.6-0.2-0.9c-0.1-0.3-0.3-0.5-0.5-0.6s-0.5-0.2-0.8-0.2c-0.3,0-0.6,0.1-0.8,0.2    c-0.2,0.2-0.4,0.4-0.5,0.6c-0.1,0.3-0.2,0.6-0.2,0.9s-0.1,0.7-0.1,1c0,0.4,0,0.8,0.1,1.1c0.1,0.3,0.1,0.6,0.3,0.9    c0.1,0.2,0.3,0.4,0.5,0.5s0.5,0.2,0.8,0.2c0.3,0,0.6-0.1,0.8-0.3s0.4-0.4,0.5-0.6c0.1-0.3,0.2-0.6,0.2-0.9    C709.7,289.4,709.8,289.1,709.8,288.8z" />
		<path class="st1" d="M713.2,285.6c0.3,0,0.6,0,0.8,0.1c0.2,0.1,0.4,0.2,0.6,0.4s0.3,0.4,0.4,0.6c0.1,0.2,0.2,0.4,0.2,0.7    c0.1,0.2,0.1,0.5,0.1,0.8c0,0.3,0,0.5,0,0.8c0,0.4,0,0.8-0.1,1.2c-0.1,0.4-0.2,0.7-0.3,1s-0.4,0.5-0.7,0.7    c-0.3,0.2-0.6,0.3-1.1,0.3c-0.4,0-0.8-0.1-1.1-0.3c-0.3-0.2-0.5-0.4-0.7-0.7s-0.3-0.6-0.3-1c-0.1-0.4-0.1-0.8-0.1-1.2    c0-0.4,0-0.8,0.1-1.2c0.1-0.4,0.2-0.7,0.3-1c0.2-0.3,0.4-0.5,0.7-0.7C712.4,285.7,712.7,285.6,713.2,285.6z M714.8,288.8    c0-0.3,0-0.7-0.1-1c0-0.3-0.1-0.6-0.2-0.9c-0.1-0.3-0.3-0.5-0.5-0.6s-0.5-0.2-0.8-0.2c-0.3,0-0.6,0.1-0.8,0.2    c-0.2,0.2-0.4,0.4-0.5,0.6c-0.1,0.3-0.2,0.6-0.2,0.9s-0.1,0.7-0.1,1c0,0.4,0,0.8,0.1,1.1c0.1,0.3,0.1,0.6,0.3,0.9    c0.1,0.2,0.3,0.4,0.5,0.5s0.5,0.2,0.8,0.2c0.3,0,0.6-0.1,0.8-0.3s0.4-0.4,0.5-0.6c0.1-0.3,0.2-0.6,0.2-0.9    C714.7,289.4,714.8,289.1,714.8,288.8z" />
	</g>
	<line class="st0" x1="672.1" y1="15.5" x2="679.3" y2="15.5" />
	<line class="st0" x1="672.1" y1="36.8" x2="679.3" y2="36.8" />
	<line class="st0" x1="672.1" y1="57.9" x2="679.3" y2="57.9" />
	<line class="st0" x1="672.1" y1="78.5" x2="679.3" y2="78.5" />
	<line class="st0" x1="672.1" y1="99.8" x2="679.3" y2="99.8" />
	<line class="st0" x1="672.1" y1="120.2" x2="679.3" y2="120.2" />
	<line class="st0" x1="672.1" y1="141.8" x2="679.3" y2="141.8" />
	<line class="st0" x1="672.1" y1="162.8" x2="679.3" y2="162.8" />
	<line class="st0" x1="672.1" y1="183.6" x2="679.3" y2="183.6" />
	<line class="st0" x1="672.1" y1="204.6" x2="679.3" y2="204.6" />
	<line class="st0" x1="672.1" y1="225.8" x2="679.3" y2="225.8" />
	<line class="st0" x1="672.1" y1="246.5" x2="679.3" y2="246.5" />
	<line class="st0" x1="672.1" y1="267.6" x2="679.3" y2="267.6" />
	<line class="st0" x1="672.1" y1="288.6" x2="679.3" y2="288.6" />
</g>
<g id="Layer_3">
	<g>
		<polygon class="st2" points="28.6,278.8 19.4,278.8 19.4,236 21.4,236 21.4,276.8 26.6,276.8 26.6,236.6 28.6,236.6   " />
	</g>
	<g>
		<polygon class="st2" points="68.5,285.5 60.2,285.5 60.2,266.6 55,266.6 55,278.9 46.2,278.9 46.2,268.9 48.2,268.9 48.2,276.9     53,276.9 53,264.6 62.2,264.6 62.2,283.5 66.5,283.5 66.5,266 68.5,266   " />
	</g>
	<g>
		<polygon class="st2" points="135,216 126.5,216 126.5,188.2 128.5,188.2 128.5,214 133,214 133,173.8 135,173.8   " />
	</g>
	<g>
		<polygon class="st2" points="202.1,193.7 193,193.7 193,190.9 195,190.9 195,191.7 200.1,191.7 200.1,178.8 202.1,178.8   " />
	</g>
	<g>
		<polygon class="st2" points="255.1,218.1 246.8,218.1 246.8,174.4 242.6,174.4 242.6,196.4 233.6,196.4 233.6,172.6 228.7,172.6     228.7,187.1 220.2,187.1 220.2,164.9 215.4,164.9 215.4,218.1 206.4,218.1 206.4,193.1 208.4,193.1 208.4,216.1 213.4,216.1     213.4,162.9 222.2,162.9 222.2,185.1 226.7,185.1 226.7,170.6 235.6,170.6 235.6,194.4 240.6,194.4 240.6,172.4 248.8,172.4     248.8,216.1 253.1,216.1 253.1,172.3 262.2,172.3 262.2,191.6 266.4,191.6 266.4,173.6 268.4,173.6 268.4,193.6 260.2,193.6     260.2,174.3 255.1,174.3   " />
	</g>
	<g>
		<polygon class="st2" points="295.7,215.9 286.7,215.9 286.7,176.5 288.7,176.5 288.7,213.9 293.7,213.9 293.7,153.4 302.7,153.4     302.7,172.2 306.9,172.2 306.9,153.4 315.2,153.4 315.2,194.5 320.3,194.5 320.3,154.7 322.3,154.7 322.3,196.5 313.2,196.5     313.2,155.4 308.9,155.4 308.9,174.2 300.7,174.2 300.7,155.4 295.7,155.4   " />
	</g>
	<g>
		<polygon class="st2" points="348.8,116.5 340.3,116.5 340.3,113.6 342.3,113.6 342.3,114.5 346.8,114.5 346.8,87.1 348.8,87.1       " />
	</g>
	<g>
		<polygon class="st2" points="375.5,135.9 367.2,135.9 367.2,115.9 369.2,115.9 369.2,133.9 373.5,133.9 373.5,84.7 375.5,84.7       " />
	</g>
	<g>
		<polygon class="st2" points="402.1,99.7 393.5,99.7 393.5,55.8 395.5,55.8 395.5,97.7 400.1,97.7 400.1,66.2 408.9,66.2     408.9,88.3 414.1,88.3 414.1,67.6 416.1,67.6 416.1,90.3 406.9,90.3 406.9,68.2 402.1,68.2   " />
	</g>
	<g>
		<polygon class="st2" points="469.1,114.2 460.2,114.2 460.2,94.9 455.8,94.9 455.8,109.3 446.8,109.3 446.8,94.8 441.9,94.8     441.9,106.9 433.6,106.9 433.6,76.8 435.6,76.8 435.6,104.9 439.9,104.9 439.9,92.8 448.8,92.8 448.8,107.3 453.8,107.3     453.8,92.9 462.2,92.9 462.2,112.2 467.1,112.2 467.1,94.2 469.1,94.2   " />
	</g>
	<g>
		<polygon class="st2" points="536.3,153.1 527.2,153.1 527.2,133.8 522.3,133.8 522.3,148.1 513.9,148.1 513.9,107.1 509,107.1     509,125.9 499.8,125.9 499.8,96.5 501.8,96.5 501.8,123.9 507,123.9 507,105.1 515.9,105.1 515.9,146.1 520.3,146.1 520.3,131.8     529.2,131.8 529.2,151.1 534.3,151.1 534.3,133.1 536.3,133.1   " />
	</g>
	<g>
		<polygon class="st2" points="576.1,125.9 567.1,125.9 567.1,123.7 569.1,123.7 569.1,123.9 574.1,123.9 574.1,108.6 576.1,108.6       " />
	</g>
	<g>
		<polygon class="st2" points="629.2,198.7 620.3,198.7 620.3,164.8 615.8,164.8 615.8,176.9 607.6,176.9 607.6,118.7 609.6,118.7     609.6,174.9 613.8,174.9 613.8,162.8 622.3,162.8 622.3,196.7 627.2,196.7 627.2,175 636.2,175 636.2,191.6 640.5,191.6     640.5,176.6 642.5,176.6 642.5,193.6 634.2,193.6 634.2,177 629.2,177   " />
	</g>
</g>
<g id="Layer_4">
	<g>
		<polygon class="st3" points="656.7,177.3 646.8,177.3 646.8,165.4 642.5,165.4 642.5,176.7 639.5,176.7 639.5,162.4 649.8,162.4     649.8,174.3 653.7,174.3 653.7,150.5 663,150.5 663,171.9 660,171.9 660,153.5 656.7,153.5   " />
	</g>
	<g>
		<polygon class="st3" points="589.5,126.2 579.5,126.2 579.5,100.4 576.1,100.4 576.1,108.6 573.1,108.6 573.1,97.4 582.5,97.4     582.5,123.2 586.5,123.2 586.5,102.2 596.5,102.2 596.5,116.4 599.8,116.4 599.8,104.5 609.7,104.5 609.7,118.8 606.7,118.8     606.7,107.5 602.8,107.5 602.8,119.4 593.5,119.4 593.5,105.2 589.5,105.2   " />
	</g>
	<g>
		<polygon class="st3" points="549.7,136.2 539.6,136.2 539.6,119.8 536.3,119.8 536.3,133.1 533.3,133.1 533.3,116.8 542.6,116.8     542.6,133.2 546.7,133.2 546.7,77.8 555.9,77.8 555.9,121.5 559.2,121.5 559.2,106.7 569.1,106.7 569.1,123.7 566.1,123.7     566.1,109.7 562.2,109.7 562.2,124.5 552.9,124.5 552.9,80.8 549.7,80.8   " />
	</g>
	<g>
		<polygon class="st3" points="482.5,100 473.2,100 473.2,73.5 469.1,73.5 469.1,94.2 466.1,94.2 466.1,70.5 476.2,70.5 476.2,97     479.5,97 479.5,73.4 489.7,73.4 489.7,94.3 492.9,94.3 492.9,73.3 501.8,73.3 501.8,96.5 498.8,96.5 498.8,76.3 495.9,76.3     495.9,97.3 486.7,97.3 486.7,76.4 482.5,76.4   " />
	</g>
	<g>
		<polygon class="st3" points="429.5,77.8 419.3,77.8 419.3,46.8 416.1,46.8 416.1,67.6 413.1,67.6 413.1,43.8 422.3,43.8     422.3,74.8 426.5,74.8 426.5,48.8 435.6,48.8 435.6,76.8 432.6,76.8 432.6,51.8 429.5,51.8   " />
	</g>
	<g>
		<polygon class="st3" points="375.5,84.7 372.5,84.7 372.5,41.5 382.5,41.5 382.5,53.7 386,53.7 386,31.7 395.5,31.7 395.5,55.8     392.5,55.8 392.5,34.7 389,34.7 389,56.7 379.5,56.7 379.5,44.5 375.5,44.5   " />
	</g>
	<g>
		<polygon class="st3" points="363.1,116.6 353,116.6 353,82.8 348.8,82.8 348.8,87.1 345.8,87.1 345.8,79.8 356,79.8 356,113.6     360.1,113.6 360.1,82.7 369.2,82.7 369.2,115.9 366.2,115.9 366.2,85.7 363.1,85.7   " />
	</g>
	<g>
		<polygon class="st3" points="322.3,154.8 319.3,154.8 319.3,58.3 328.7,58.3 328.7,111.5 332.8,111.5 332.8,85 342.4,85     342.4,113.6 339.4,113.6 339.4,88 335.8,88 335.8,114.5 325.7,114.5 325.7,61.3 322.3,61.3   " />
	</g>
	<g>
		<polygon class="st3" points="282.6,177.4 272.6,177.4 272.6,139.1 268.4,139.1 268.4,173.6 265.4,173.6 265.4,136.1 275.6,136.1     275.6,174.4 279.6,174.4 279.6,145.5 288.7,145.5 288.7,176.5 285.7,176.5 285.7,148.5 282.6,148.5   " />
	</g>
	<g>
		<polygon class="st3" points="208.4,193.1 205.4,193.1 205.4,160.2 202.1,160.2 202.1,178.8 199.1,178.8 199.1,157.2 208.4,157.2       " />
	</g>
	<g>
		<polygon class="st3" points="148.4,204 139.1,204 139.1,155.8 135.1,155.8 135.1,173.8 132.1,173.8 132.1,152.8 142.1,152.8     142.1,201 145.4,201 145.4,174.2 155.3,174.2 155.3,198.7 159.2,198.7 159.2,184.4 168.6,184.4 168.6,196.1 172.7,196.1     172.7,176.8 182.6,176.8 182.6,188.6 185.9,188.6 185.9,176.8 195,176.8 195,191 192,191 192,179.8 188.9,179.8 188.9,191.6     179.6,191.6 179.6,179.8 175.7,179.8 175.7,199.1 165.6,199.1 165.6,187.4 162.2,187.4 162.2,201.7 152.3,201.7 152.3,177.2     148.4,177.2   " />
	</g>
	<g>
		<polygon class="st3" points="81.9,266.9 71.9,266.9 71.9,250.2 68.5,250.2 68.5,266.2 65.5,266.2 65.5,247.2 74.9,247.2     74.9,263.9 78.9,263.9 78.9,234.4 88.1,234.4 88.1,253.7 92.2,253.7 92.2,171.6 101.9,171.6 101.9,191 105.4,191 105.4,174.3     115.4,174.3 115.4,186 119.3,186 119.3,171.7 128.5,171.7 128.5,188.3 125.5,188.3 125.5,174.7 122.3,174.7 122.3,189 112.4,189     112.4,177.3 108.4,177.3 108.4,194 98.9,194 98.9,174.6 95.2,174.6 95.2,256.7 85.1,256.7 85.1,237.4 81.9,237.4   " />
	</g>
	<g>
		<polygon class="st3" points="42,269.7 32,269.7 32,216.4 28.7,216.4 28.7,236.8 25.7,236.8 25.7,213.4 35,213.4 35,266.7     39,266.7 39,242.4 48.3,242.4 48.3,269.2 45.3,269.2 45.3,245.4 42,245.4   " />
	</g>
	<g>
	</g>
	<g>
	</g>
	<g>
	</g>
	<g>
	</g>
	<g>
	</g>
	<g>
	</g>
	<g>
	</g>
	<g>
	</g>
	<g>
	</g>
	<g>
	</g>
</g>
</svg>