<svg width="900" height="340" viewBox="-550,-100,900,300" style="max-width: 100%; height: auto; font: 10px sans-serif;" id="svg" xmlns="http://www.w3.org/2000/svg">
  <style>.st0 {max-width: 100%; height: auto; font: 10px sans-serif;}
.st1 {stroke:#000; stroke-width:2;}
.st2  {fill: hsl(212, 72%, 54%);;}
.st3  {fill: hsl(0, 0%, 0%);;}
.st4  {fill: hsl(5, 83%, 60%);;}
.st5  {fill: hsl(0, 0%, 20%);;}</style>
  <line x1="-400" y1="180" x2="250" y2="180" class="st1" />
  <line x1="-400" y1="180" x2="-400" y2="-40" class="st1" />
  <rect x="-350" y="80" width="20" height="100" class="st2" />
  <text x="-340" y="60" text-anchor="middle" class="st3">20</text>
  <rect x="-325" y="100" width="20" height="80" class="st4" />
  <text x="-315" y="80" text-anchor="middle" class="st3">18</text>
  <text x="-337.5" y="200" text-anchor="middle" class="st5">Product A</text>
  <rect x="-250" y="30" width="20" height="150" class="st2" />
  <text x="-240" y="10" text-anchor="middle" class="st3">35</text>
  <rect x="-225" y="60" width="20" height="120" class="st4" />
  <text x="-215" y="40" text-anchor="middle" class="st3">32</text>
  <text x="-237.5" y="200" text-anchor="middle" class="st5">Product B</text>
  <rect x="-150" y="-20" width="20" height="200" class="st2" />
  <text x="-140" y="-40" text-anchor="middle" class="st3">50</text>
  <rect x="-125" y="20" width="20" height="160" class="st4" />
  <text x="-115" y="0" text-anchor="middle" class="st3">45</text>
  <text x="-137.5" y="200" text-anchor="middle" class="st5">Product C</text>
  <rect x="-50" y="50" width="20" height="130" class="st2" />
  <text x="-40" y="30" text-anchor="middle" class="st3">28</text>
  <rect x="-25" y="70" width="20" height="110" class="st4" />
  <text x="-15" y="50" text-anchor="middle" class="st3">22</text>
  <text x="-37.5" y="200" text-anchor="middle" class="st5">Product D</text>
  <rect x="50" y="10" width="20" height="170" class="st2" />
  <text x="60" y="-10" text-anchor="middle" class="st3">38</text>
  <rect x="75" y="40" width="20" height="140" class="st4" />
  <text x="85" y="20" text-anchor="middle" class="st3">34</text>
  <text x="62.5" y="200" text-anchor="middle" class="st5">Product E</text>
  <rect x="150" y="-30" width="20" height="210" class="st2" />
  <text x="160" y="-50" text-anchor="middle" class="st3">42</text>
  <rect x="175" y="-10" width="20" height="190" class="st4" />
  <text x="185" y="-30" text-anchor="middle" class="st3">40</text>
  <text x="162.5" y="200" text-anchor="middle" class="st5">Product F</text>
</svg>