<svg width="900" height="340" viewBox="-90,-30,880,340" style="max-width: 100%; height: auto; font: 10px sans-serif;" xmlns="http://www.w3.org/2000/svg">

<style type="text/css">.st0 {opacity:0.6;fill: none;stroke:#FF0000;stroke-width:3;;}
	.st2 {opacity:0.6;fill: none;stroke:#e5ff00;stroke-width:3;;}
	.st1 {fill: hsl(0, 0%, 29%);;}</style>
<g id="Layer_1">
	<path class="st2" d="M26,293.5c0-16.9,13.7-30.5,30.5-30.5c16.9,0,30.5,13.7,30.5,30.5" />
	<path class="st2" d="M87.4,293.5c0-16.9,13.7-30.5,30.5-30.5c16.9,0,30.5,13.7,30.5,30.5" />
	<path class="st2" d="M270.3,293.5c0-16.9,13.7-30.5,30.5-30.5s30.5,13.7,30.5,30.5" />
	<path class="st2" d="M393.3,293.5c0-16.9,13.7-30.5,30.5-30.5c16.9,0,30.5,13.7,30.5,30.5" />
	<path class="st2" d="M423.8,293.5c0-16.9,13.7-30.5,30.5-30.5c16.9,0,30.5,13.7,30.5,30.5" />
	<path class="st2" d="M545.8,293.5c0-16.9,13.7-30.5,30.5-30.5c16.9,0,30.5,13.7,30.5,30.5" />
	<path class="st2" d="M545.8,293.7c0-25.3,20.5-45.8,45.8-45.8c25.3,0,45.8,20.5,45.8,45.8" />
	<path class="st2" d="M576.3,293.7c0-33.9,27.4-61.3,61.3-61.3c33.8,0,61.3,27.4,61.3,61.3" />
	<path class="st2" d="M270.5,293.6c0-8.6,7-15.5,15.5-15.5c8.6,0,15.5,7,15.5,15.5" />
	<path class="st2" d="M362.5,293.6c0-8.6,7-15.5,15.5-15.5c8.6,0,15.5,7,15.5,15.5" />
	<path class="st2" d="M515,293.6c0-8.6,7-15.5,15.5-15.5s15.5,7,15.5,15.5" />
	<path class="st2" d="M117.9,293.5c0-33.7,27.3-61,61-61c33.7,0,61,27.3,61,61" />
	<path class="st2" d="M393.2,293.5c0-33.7,27.3-61,61-61c33.7,0,61,27.3,61,61" />
	<path class="st2" d="M179,293.8c0-118.1,95.8-213.9,213.9-213.9c118.1,0,213.9,95.8,213.9,213.9" />
	<path class="st2" d="M149,293.3C149,150,265.2,33.9,408.4,33.9S667.8,150,667.8,293.3" />
	<path class="st2" d="M26,293.8c0-50.6,41-91.5,91.5-91.5c50.6,0,91.5,41,91.5,91.5" />
	<path class="st0" d="M271.4,293.8c0-50.6,41-91.5,91.5-91.5c50.6,0,91.5,41,91.5,91.5" />
	<path class="st0" d="M483.9,293.5c0-59.3,48-107.3,107.3-107.3c59.3,0,107.3,48,107.3,107.3" />
	<path class="st0" d="M239.4,293.3c0-84.5,68.5-153,153-153c84.5,0,153,68.5,153,153" />
	<path class="st0" d="M56.7,293.6c0-58.9,47.8-106.7,106.7-106.7c58.9,0,106.7,47.8,106.7,106.7" />
</g>
<g id="Layer_2">
	<path class="st1" d="M698.5,290c-1.6,0-2.9,1.1-3.3,2.5h-23.9c-0.4-1.4-1.8-2.5-3.3-2.5s-2.9,1.1-3.3,2.5h-23.9   c-0.4-1.4-1.8-2.5-3.3-2.5s-2.9,1.1-3.3,2.5h-23.9c-0.4-1.4-1.8-2.5-3.3-2.5s-2.9,1.1-3.3,2.5h-23.9c-0.4-1.4-1.8-2.5-3.3-2.5   s-2.9,1.1-3.3,2.5H549c-0.4-1.4-1.8-2.5-3.3-2.5s-2.9,1.1-3.3,2.5h-23.9c-0.4-1.4-1.8-2.5-3.3-2.5c-1.6,0-2.9,1.1-3.3,2.5h-23.9   c-0.4-1.4-1.8-2.5-3.3-2.5c-1.6,0-2.9,1.1-3.3,2.5h-23.9c-0.4-1.4-1.8-2.5-3.3-2.5s-2.9,1.1-3.3,2.5h-23.9   c-0.4-1.4-1.8-2.5-3.3-2.5c-1.6,0-2.9,1.1-3.3,2.5h-23.9c-0.4-1.4-1.8-2.5-3.3-2.5c-1.6,0-2.9,1.1-3.3,2.5h-23.9   c-0.4-1.4-1.8-2.5-3.3-2.5s-2.9,1.1-3.3,2.5H335c-0.4-1.4-1.8-2.5-3.3-2.5s-2.9,1.1-3.3,2.5h-23.9c-0.4-1.4-1.8-2.5-3.3-2.5   s-2.9,1.1-3.3,2.5h-23.9c-0.4-1.4-1.8-2.5-3.3-2.5s-2.9,1.1-3.3,2.5h-23.9c-0.4-1.4-1.8-2.5-3.3-2.5s-2.9,1.1-3.3,2.5h-23.9   c-0.4-1.4-1.8-2.5-3.3-2.5s-2.9,1.1-3.3,2.5h-23.9c-0.4-1.4-1.8-2.5-3.3-2.5s-2.9,1.1-3.3,2.5h-23.9c-0.4-1.4-1.8-2.5-3.3-2.5   c-1.6,0-2.9,1.1-3.3,2.5H121c-0.4-1.4-1.8-2.5-3.3-2.5s-2.9,1.1-3.3,2.5H90.5c-0.4-1.4-1.8-2.5-3.3-2.5s-2.9,1.1-3.3,2.5H59.9   c-0.4-1.4-1.8-2.5-3.3-2.5s-2.9,1.1-3.3,2.5H29.3c-0.4-1.4-1.8-2.5-3.3-2.5c-1.9,0-3.5,1.6-3.5,3.5s1.6,3.5,3.5,3.5   c1.6,0,2.9-1.1,3.3-2.5h23.9c0.4,1.4,1.8,2.5,3.3,2.5s2.9-1.1,3.3-2.5h23.9c0.4,1.4,1.8,2.5,3.3,2.5s2.9-1.1,3.3-2.5h23.9   c0.4,1.4,1.8,2.5,3.3,2.5s2.9-1.1,3.3-2.5h23.9c0.4,1.4,1.8,2.5,3.3,2.5c1.6,0,2.9-1.1,3.3-2.5h23.9c0.4,1.4,1.8,2.5,3.3,2.5   s2.9-1.1,3.3-2.5h23.9c0.4,1.4,1.8,2.5,3.3,2.5s2.9-1.1,3.3-2.5h23.9c0.4,1.4,1.8,2.5,3.3,2.5s2.9-1.1,3.3-2.5h23.9   c0.4,1.4,1.8,2.5,3.3,2.5s2.9-1.1,3.3-2.5h23.9c0.4,1.4,1.8,2.5,3.3,2.5s2.9-1.1,3.3-2.5h23.9c0.4,1.4,1.8,2.5,3.3,2.5   s2.9-1.1,3.3-2.5h23.9c0.4,1.4,1.8,2.5,3.3,2.5s2.9-1.1,3.3-2.5h23.9c0.4,1.4,1.8,2.5,3.3,2.5c1.6,0,2.9-1.1,3.3-2.5H420   c0.4,1.4,1.8,2.5,3.3,2.5c1.6,0,2.9-1.1,3.3-2.5h23.9c0.4,1.4,1.8,2.5,3.3,2.5s2.9-1.1,3.3-2.5h23.9c0.4,1.4,1.8,2.5,3.3,2.5   c1.6,0,2.9-1.1,3.3-2.5h23.9c0.4,1.4,1.8,2.5,3.3,2.5c1.6,0,2.9-1.1,3.3-2.5h23.9c0.4,1.4,1.8,2.5,3.3,2.5s2.9-1.1,3.3-2.5h23.9   c0.4,1.4,1.8,2.5,3.3,2.5s2.9-1.1,3.3-2.5h23.9c0.4,1.4,1.8,2.5,3.3,2.5s2.9-1.1,3.3-2.5H634c0.4,1.4,1.8,2.5,3.3,2.5   s2.9-1.1,3.3-2.5h23.9c0.4,1.4,1.8,2.5,3.3,2.5s2.9-1.1,3.3-2.5h23.9c0.4,1.4,1.8,2.5,3.3,2.5c1.9,0,3.5-1.6,3.5-3.5   S700.4,290,698.5,290z" />
	<g>
	</g>
	<g>
	</g>
	<g>
	</g>
	<g>
	</g>
	<g>
	</g>
	<g>
	</g>
	<g>
	</g>
	<g>
	</g>
	<g>
	</g>
	<g>
	</g>
</g>
</svg>