<svg width="900" height="340" viewBox="-70,-30,880,340" style="max-width: 100%; height: auto; font: 10px sans-serif;" xmlns="http://www.w3.org/2000/svg">

<style type="text/css">.st0 {fill: hsl(0, 0%, 43%);;}
	.st1 {fill: none;stroke:#333333;stroke-miterlimit:10;;}
	.st2 {fill: hsl(0, 100%, 45%);;}</style>
<g id="Layer_2">
	<g>
		<path class="st0" d="M61.2,274c-0.2-0.2-0.4-0.5-0.5-0.8c-0.2-0.6-0.3-1.3-0.3-2.1c0-1,0.2-1.9,0.5-2.4c0.4-0.7,1.1-1.1,2-1.1    c0.7,0,1.2,0.2,1.6,0.6c0.3,0.3,0.4,0.5,0.5,0.8c0.2,0.6,0.3,1.3,0.3,2.1c0,1.1-0.2,2.1-0.6,2.6c-0.5,0.6-1.1,0.9-1.9,0.9    C62.2,274.6,61.7,274.4,61.2,274z M61.8,268.6c-0.2,0.2-0.3,0.4-0.4,0.7c-0.2,0.5-0.3,1.2-0.3,1.8c0,0.8,0.2,1.7,0.4,2.1    c0.3,0.5,0.8,0.8,1.4,0.8c0.5,0,0.8-0.1,1.1-0.4c0.2-0.2,0.3-0.4,0.4-0.7c0.2-0.6,0.3-1.2,0.3-1.8c0-0.8-0.2-1.7-0.4-2.1    c-0.3-0.5-0.8-0.8-1.4-0.8C62.4,268.2,62.1,268.3,61.8,268.6z" />
	</g>
	<g>
		<path class="st0" d="M107,273.3c-0.2-0.2-0.4-0.5-0.5-0.8c-0.2-0.6-0.3-1.3-0.3-2.1c0-1,0.2-1.9,0.5-2.4c0.4-0.7,1.1-1.1,2-1.1    c0.7,0,1.2,0.2,1.6,0.6c0.3,0.3,0.4,0.5,0.5,0.8c0.2,0.6,0.3,1.3,0.3,2.1c0,1.1-0.2,2.1-0.6,2.6c-0.5,0.6-1.1,0.9-1.9,0.9    C108,274,107.4,273.7,107,273.3z M107.5,267.9c-0.2,0.2-0.3,0.4-0.4,0.7c-0.2,0.5-0.3,1.2-0.3,1.8c0,0.8,0.2,1.7,0.4,2.1    c0.3,0.5,0.8,0.8,1.4,0.8c0.5,0,0.8-0.1,1.1-0.4c0.2-0.2,0.3-0.4,0.4-0.7c0.2-0.6,0.3-1.2,0.3-1.8c0-0.8-0.2-1.7-0.4-2.1    c-0.3-0.5-0.8-0.8-1.4-0.8C108.2,267.5,107.8,267.6,107.5,267.9z" />
		<path class="st0" d="M113.1,272.9v0.9h-0.9v-0.9H113.1z" />
		<path class="st0" d="M115.7,273.8c-0.6,0-0.7,0-1,0c0.1-0.7,0.1-0.8,0.3-1.2c0.2-0.6,0.6-1.1,1.2-1.5c0.3-0.3,0.3-0.3,1.4-1    c0.9-0.6,1.2-1,1.2-1.5c0-0.7-0.6-1.1-1.5-1.1c-0.6,0-1,0.2-1.3,0.6c-0.2,0.2-0.3,0.5-0.3,0.9l-0.8-0.1c0.1-0.6,0.3-1,0.6-1.3    c0.4-0.5,1-0.7,1.8-0.7c1.4,0,2.2,0.7,2.2,1.7c0,0.5-0.2,0.9-0.5,1.3c-0.3,0.3-0.5,0.5-1.5,1.2c-0.7,0.5-1,0.7-1.3,1.1    c-0.3,0.4-0.4,0.6-0.5,1h2.9c0.5,0,0.8,0,1.1-0.1v0.8c-0.4,0-0.7-0.1-1.1-0.1H115.7z" />
	</g>
	<g>
		<path class="st0" d="M148.8,273.3c-0.2-0.2-0.4-0.5-0.5-0.8c-0.2-0.6-0.3-1.3-0.3-2.1c0-1,0.2-1.9,0.5-2.4c0.4-0.7,1.1-1.1,2-1.1    c0.7,0,1.2,0.2,1.6,0.6c0.3,0.3,0.4,0.5,0.5,0.8c0.2,0.6,0.3,1.3,0.3,2.1c0,1.1-0.2,2.1-0.6,2.6c-0.5,0.6-1.1,0.9-1.9,0.9    C149.8,274,149.2,273.7,148.8,273.3z M149.3,267.9c-0.2,0.2-0.3,0.4-0.4,0.7c-0.2,0.5-0.3,1.2-0.3,1.8c0,0.8,0.2,1.7,0.4,2.1    c0.3,0.5,0.8,0.8,1.4,0.8c0.5,0,0.8-0.1,1.1-0.4c0.2-0.2,0.3-0.4,0.4-0.7c0.2-0.6,0.3-1.2,0.3-1.8c0-0.8-0.2-1.7-0.4-2.1    c-0.3-0.5-0.8-0.8-1.4-0.8C150,267.5,149.6,267.6,149.3,267.9z" />
		<path class="st0" d="M154.9,272.9v0.9H154v-0.9H154.9z" />
		<path class="st0" d="M155.8,271.4c0.2-0.2,0.4-0.5,0.6-0.7l2.3-2.8c0.3-0.4,0.5-0.6,0.7-0.9h0.7c0,0.5-0.1,0.8-0.1,1.5v3h0.3    c0.4,0,0.6,0,0.9-0.1v0.7c-0.3,0-0.6-0.1-0.9-0.1H160v0.8c0,0.4,0,0.6,0.1,1h-0.8c0.1-0.3,0.1-0.6,0.1-1v-0.8h-2.4    c-0.5,0-0.8,0-1.1,0V271.4z M159.3,269.2c0-0.5,0-0.8,0.1-1.2c-0.2,0.3-0.4,0.6-0.7,0.9l-2.1,2.6h2.7V269.2z" />
	</g>
	<g>
		<path class="st0" d="M190.4,273.3c-0.2-0.2-0.4-0.5-0.5-0.8c-0.2-0.6-0.3-1.3-0.3-2.1c0-1,0.2-1.9,0.5-2.4c0.4-0.7,1.1-1.1,2-1.1    c0.7,0,1.2,0.2,1.6,0.6c0.3,0.3,0.4,0.5,0.5,0.8c0.2,0.6,0.3,1.3,0.3,2.1c0,1.1-0.2,2.1-0.6,2.6c-0.5,0.6-1.1,0.9-1.9,0.9    C191.4,274,190.8,273.7,190.4,273.3z M190.9,267.9c-0.2,0.2-0.3,0.4-0.4,0.7c-0.2,0.5-0.3,1.2-0.3,1.8c0,0.8,0.2,1.7,0.4,2.1    c0.3,0.5,0.8,0.8,1.4,0.8c0.5,0,0.8-0.1,1.1-0.4c0.2-0.2,0.3-0.4,0.4-0.7c0.2-0.6,0.3-1.2,0.3-1.8c0-0.8-0.2-1.7-0.4-2.1    c-0.3-0.5-0.8-0.8-1.4-0.8C191.6,267.5,191.2,267.6,190.9,267.9z" />
		<path class="st0" d="M196.5,272.9v0.9h-0.9v-0.9H196.5z" />
		<path class="st0" d="M201.7,268.5c-0.1-0.3-0.2-0.4-0.3-0.6c-0.3-0.3-0.6-0.5-1.1-0.5c-0.7,0-1.2,0.4-1.6,1.1    c-0.2,0.5-0.3,1-0.4,1.9c0.2-0.3,0.3-0.4,0.5-0.6c0.4-0.4,0.9-0.5,1.5-0.5c1.4,0,2.3,0.9,2.3,2.3c0,1.4-0.9,2.3-2.4,2.3    c-0.6,0-1.2-0.2-1.6-0.6c-0.6-0.5-0.9-1.5-0.9-2.8c0-1.1,0.3-2.1,0.7-2.7c0.5-0.6,1.1-1,1.9-1c0.5,0,1,0.1,1.4,0.4    c0.3,0.2,0.5,0.5,0.8,1L201.7,268.5z M200.2,270c-0.5,0-0.9,0.2-1.2,0.5c-0.3,0.3-0.5,0.7-0.5,1.1c0,1,0.7,1.7,1.7,1.7    c0.6,0,1.1-0.3,1.4-0.7c0.1-0.2,0.2-0.6,0.2-1C201.9,270.6,201.3,270,200.2,270z" />
	</g>
	<g>
		<path class="st0" d="M232,273.3c-0.2-0.2-0.4-0.5-0.5-0.8c-0.2-0.6-0.3-1.3-0.3-2.1c0-1,0.2-1.9,0.5-2.4c0.4-0.7,1.1-1.1,2-1.1    c0.7,0,1.2,0.2,1.6,0.6c0.3,0.3,0.4,0.5,0.5,0.8c0.2,0.6,0.3,1.3,0.3,2.1c0,1.1-0.2,2.1-0.6,2.6c-0.5,0.6-1.1,0.9-1.9,0.9    C232.9,274,232.4,273.7,232,273.3z M232.5,267.9c-0.2,0.2-0.3,0.4-0.4,0.7c-0.2,0.5-0.3,1.2-0.3,1.8c0,0.8,0.2,1.7,0.4,2.1    c0.3,0.5,0.8,0.8,1.4,0.8c0.5,0,0.8-0.1,1.1-0.4c0.2-0.2,0.3-0.4,0.4-0.7c0.2-0.6,0.3-1.2,0.3-1.8c0-0.8-0.2-1.7-0.4-2.1    c-0.3-0.5-0.8-0.8-1.4-0.8C233.1,267.5,232.8,267.6,232.5,267.9z" />
		<path class="st0" d="M238.1,272.9v0.9h-0.9v-0.9H238.1z" />
		<path class="st0" d="M243.5,270.6c0.5,0.3,0.7,0.8,0.7,1.4c0,1.2-0.9,1.9-2.5,1.9c-1.6,0-2.6-0.7-2.6-1.9c0-0.6,0.3-1.1,0.8-1.5    c0.3-0.2,0.5-0.3,0.8-0.3c-0.8-0.1-1.3-0.8-1.3-1.6c0-1.1,0.9-1.8,2.2-1.8c1.4,0,2.2,0.7,2.2,1.8c0,0.8-0.5,1.5-1.3,1.6    C243,270.3,243.2,270.4,243.5,270.6z M239.9,272c0,0.9,0.7,1.4,1.8,1.4c0.6,0,1.1-0.2,1.4-0.5c0.2-0.2,0.3-0.5,0.3-0.9    c0-0.9-0.7-1.4-1.8-1.4C240.6,270.6,239.9,271.1,239.9,272z M240.2,268.7c0,0.8,0.6,1.3,1.5,1.3s1.5-0.5,1.5-1.3    c0-0.8-0.6-1.2-1.5-1.2C240.8,267.4,240.2,267.9,240.2,268.7z" />
	</g>
	<g>
		<path class="st0" d="M273.7,266.9c0.2,0,0.4,0,0.7,0h0.6c0.3,0,0.5,0,0.7,0c-0.1,0.5-0.1,1-0.1,1.5v4.4c0,0.4,0,0.7,0.1,1h-0.9    c0.1-0.3,0.1-0.6,0.1-1v-5.2h-0.5c-0.3,0-0.5,0-0.8,0.1V266.9z" />
		<path class="st0" d="M279.7,272.9v0.9h-0.9v-0.9H279.7z" />
		<path class="st0" d="M281.6,273.3c-0.2-0.2-0.4-0.5-0.5-0.8c-0.2-0.6-0.3-1.3-0.3-2.1c0-1,0.2-1.9,0.5-2.4c0.4-0.7,1.1-1.1,2-1.1    c0.7,0,1.2,0.2,1.6,0.6c0.3,0.3,0.4,0.5,0.5,0.8c0.2,0.6,0.3,1.3,0.3,2.1c0,1.1-0.2,2.1-0.6,2.6c-0.5,0.6-1.1,0.9-1.9,0.9    C282.6,274,282,273.7,281.6,273.3z M282.1,267.9c-0.2,0.2-0.3,0.4-0.4,0.7c-0.2,0.5-0.3,1.2-0.3,1.8c0,0.8,0.2,1.7,0.4,2.1    c0.3,0.5,0.8,0.8,1.4,0.8c0.5,0,0.8-0.1,1.1-0.4c0.2-0.2,0.3-0.4,0.4-0.7c0.2-0.6,0.3-1.2,0.3-1.8c0-0.8-0.2-1.7-0.4-2.1    c-0.3-0.5-0.8-0.8-1.4-0.8C282.8,267.5,282.4,267.6,282.1,267.9z" />
	</g>
	<g>
		<path class="st0" d="M313.5,266.9c0.2,0,0.4,0,0.7,0h0.6c0.3,0,0.5,0,0.7,0c-0.1,0.5-0.1,1-0.1,1.5v4.4c0,0.4,0,0.7,0.1,1h-0.9    c0.1-0.3,0.1-0.6,0.1-1v-5.2h-0.5c-0.3,0-0.5,0-0.8,0.1V266.9z" />
		<path class="st0" d="M319.5,272.9v0.9h-0.9v-0.9H319.5z" />
		<path class="st0" d="M322.1,273.8c-0.6,0-0.7,0-1,0c0.1-0.7,0.1-0.8,0.3-1.2c0.2-0.6,0.6-1.1,1.2-1.5c0.3-0.3,0.3-0.3,1.4-1    c0.9-0.6,1.2-1,1.2-1.5c0-0.7-0.6-1.1-1.5-1.1c-0.6,0-1,0.2-1.3,0.6c-0.2,0.2-0.3,0.5-0.3,0.9l-0.8-0.1c0.1-0.6,0.3-1,0.6-1.3    c0.4-0.5,1-0.7,1.8-0.7c1.4,0,2.2,0.7,2.2,1.7c0,0.5-0.2,0.9-0.5,1.3c-0.3,0.3-0.5,0.5-1.5,1.2c-0.7,0.5-1,0.7-1.3,1.1    c-0.3,0.4-0.4,0.6-0.5,1h2.9c0.5,0,0.8,0,1.1-0.1v0.8c-0.4,0-0.7-0.1-1.1-0.1H322.1z" />
	</g>
	<line class="st1" x1="70.9" y1="261.6" x2="321.3" y2="261.6" />
	<g>
		<g>
			<line class="st1" x1="112.9" y1="261.6" x2="112.9" y2="256.4" />
			<line class="st1" x1="154.5" y1="261.6" x2="154.5" y2="256.4" />
			<line class="st1" x1="196.1" y1="261.6" x2="196.1" y2="256.4" />
			<line class="st1" x1="237.6" y1="261.6" x2="237.6" y2="256.4" />
			<line class="st1" x1="279.2" y1="261.6" x2="279.2" y2="256.4" />
			<line class="st1" x1="320.8" y1="261.6" x2="320.8" y2="256.4" />
		</g>
	</g>
	<g>
		<path class="st0" d="M53.2,222.2c-0.2-0.2-0.4-0.5-0.5-0.8c-0.2-0.6-0.3-1.3-0.3-2.1c0-1,0.2-1.9,0.5-2.4c0.4-0.7,1.1-1.1,2-1.1    c0.7,0,1.2,0.2,1.6,0.6c0.3,0.3,0.4,0.5,0.5,0.8c0.2,0.6,0.3,1.3,0.3,2.1c0,1.1-0.2,2.1-0.6,2.6c-0.5,0.6-1.1,0.9-1.9,0.9    C54.2,222.9,53.7,222.7,53.2,222.2z M53.8,216.9c-0.2,0.2-0.3,0.4-0.4,0.7c-0.2,0.5-0.3,1.2-0.3,1.8c0,0.8,0.2,1.7,0.4,2.1    c0.3,0.5,0.8,0.8,1.4,0.8c0.5,0,0.8-0.1,1.1-0.4c0.2-0.2,0.3-0.4,0.4-0.7c0.2-0.6,0.3-1.2,0.3-1.8c0-0.8-0.2-1.7-0.4-2.1    c-0.3-0.5-0.8-0.8-1.4-0.8C54.4,216.4,54,216.6,53.8,216.9z" />
		<path class="st0" d="M59.4,221.9v0.9h-0.9v-0.9H59.4z" />
		<path class="st0" d="M62,222.8c-0.6,0-0.7,0-1,0c0.1-0.7,0.1-0.8,0.3-1.2c0.2-0.6,0.6-1.1,1.2-1.5c0.3-0.3,0.3-0.3,1.4-1    c0.9-0.6,1.2-1,1.2-1.5c0-0.7-0.6-1.1-1.5-1.1c-0.6,0-1,0.2-1.3,0.6c-0.2,0.2-0.3,0.5-0.3,0.9l-0.8-0.1c0.1-0.6,0.3-1,0.6-1.3    c0.4-0.5,1-0.7,1.8-0.7c1.4,0,2.2,0.7,2.2,1.7c0,0.5-0.2,0.9-0.5,1.3c-0.3,0.3-0.5,0.5-1.5,1.2c-0.7,0.5-1,0.7-1.3,1.1    c-0.3,0.4-0.4,0.6-0.5,1h2.9c0.5,0,0.8,0,1.1-0.1v0.8c-0.4,0-0.7-0.1-1.1-0.1H62z" />
	</g>
	<g>
		<path class="st0" d="M53.6,180.7c-0.2-0.2-0.4-0.5-0.5-0.8c-0.2-0.6-0.3-1.3-0.3-2.1c0-1,0.2-1.9,0.5-2.4c0.4-0.7,1.1-1.1,2-1.1    c0.7,0,1.2,0.2,1.6,0.6c0.3,0.3,0.4,0.5,0.5,0.8c0.2,0.6,0.3,1.3,0.3,2.1c0,1.1-0.2,2.1-0.6,2.6c-0.5,0.6-1.1,0.9-1.9,0.9    C54.6,181.3,54.1,181.1,53.6,180.7z M54.2,175.3c-0.2,0.2-0.3,0.4-0.4,0.7c-0.2,0.5-0.3,1.2-0.3,1.8c0,0.8,0.2,1.7,0.4,2.1    c0.3,0.5,0.8,0.8,1.4,0.8c0.5,0,0.8-0.1,1.1-0.4c0.2-0.2,0.3-0.4,0.4-0.7c0.2-0.6,0.3-1.2,0.3-1.8c0-0.8-0.2-1.7-0.4-2.1    c-0.3-0.5-0.8-0.8-1.4-0.8C54.8,174.8,54.5,175,54.2,175.3z" />
		<path class="st0" d="M59.8,180.3v0.9h-0.9v-0.9H59.8z" />
		<path class="st0" d="M60.7,178.8c0.2-0.2,0.4-0.5,0.6-0.7l2.3-2.8c0.3-0.4,0.5-0.6,0.7-0.9h0.7c0,0.5-0.1,0.8-0.1,1.5v3h0.3    c0.4,0,0.6,0,0.9-0.1v0.7c-0.3,0-0.6-0.1-0.9-0.1h-0.3v0.8c0,0.4,0,0.6,0.1,1h-0.8c0.1-0.3,0.1-0.6,0.1-1v-0.8h-2.4    c-0.5,0-0.8,0-1.1,0V178.8z M64.2,176.5c0-0.5,0-0.8,0.1-1.2c-0.2,0.3-0.4,0.6-0.7,0.9l-2.1,2.6h2.7V176.5z" />
	</g>
	<g>
		<path class="st0" d="M53.7,140c-0.2-0.2-0.4-0.5-0.5-0.8c-0.2-0.6-0.3-1.3-0.3-2.1c0-1,0.2-1.9,0.5-2.4c0.4-0.7,1.1-1.1,2-1.1    c0.7,0,1.2,0.2,1.6,0.6c0.3,0.3,0.4,0.5,0.5,0.8c0.2,0.6,0.3,1.3,0.3,2.1c0,1.1-0.2,2.1-0.6,2.6c-0.5,0.6-1.1,0.9-1.9,0.9    C54.7,140.6,54.1,140.4,53.7,140z M54.2,134.6c-0.2,0.2-0.3,0.4-0.4,0.7c-0.2,0.5-0.3,1.2-0.3,1.8c0,0.8,0.2,1.7,0.4,2.1    c0.3,0.5,0.8,0.8,1.4,0.8c0.5,0,0.8-0.1,1.1-0.4c0.2-0.2,0.3-0.4,0.4-0.7c0.2-0.6,0.3-1.2,0.3-1.8c0-0.8-0.2-1.7-0.4-2.1    c-0.3-0.5-0.8-0.8-1.4-0.8C54.9,134.1,54.5,134.3,54.2,134.6z" />
		<path class="st0" d="M59.8,139.6v0.9h-0.9v-0.9H59.8z" />
		<path class="st0" d="M65,135.1c-0.1-0.3-0.2-0.4-0.3-0.6c-0.3-0.3-0.6-0.5-1.1-0.5c-0.7,0-1.2,0.4-1.6,1.1c-0.2,0.5-0.3,1-0.4,1.9    c0.2-0.3,0.3-0.4,0.5-0.6c0.4-0.4,0.9-0.5,1.5-0.5c1.4,0,2.3,0.9,2.3,2.3c0,1.4-0.9,2.3-2.4,2.3c-0.6,0-1.2-0.2-1.6-0.6    c-0.6-0.5-0.9-1.5-0.9-2.8c0-1.1,0.3-2.1,0.7-2.7c0.5-0.6,1.1-1,1.9-1c0.5,0,1,0.1,1.4,0.4c0.3,0.2,0.5,0.5,0.8,1L65,135.1z     M63.5,136.6c-0.5,0-0.9,0.2-1.2,0.5c-0.3,0.3-0.5,0.7-0.5,1.1c0,1,0.7,1.7,1.7,1.7c0.6,0,1.1-0.3,1.4-0.7c0.1-0.2,0.2-0.6,0.2-1    C65.2,137.2,64.6,136.6,63.5,136.6z" />
	</g>
	<g>
		<path class="st0" d="M53.7,98.4c-0.2-0.2-0.4-0.5-0.5-0.8c-0.2-0.6-0.3-1.3-0.3-2.1c0-1,0.2-1.9,0.5-2.4c0.4-0.7,1.1-1.1,2-1.1    c0.7,0,1.2,0.2,1.6,0.6c0.3,0.3,0.4,0.5,0.5,0.8c0.2,0.6,0.3,1.3,0.3,2.1c0,1.1-0.2,2.1-0.6,2.6c-0.5,0.6-1.1,0.9-1.9,0.9    C54.7,99,54.1,98.8,53.7,98.4z M54.2,93c-0.2,0.2-0.3,0.4-0.4,0.7c-0.2,0.5-0.3,1.2-0.3,1.8c0,0.8,0.2,1.7,0.4,2.1    c0.3,0.5,0.8,0.8,1.4,0.8c0.5,0,0.8-0.1,1.1-0.4c0.2-0.2,0.3-0.4,0.4-0.7c0.2-0.6,0.3-1.2,0.3-1.8c0-0.8-0.2-1.7-0.4-2.1    c-0.3-0.5-0.8-0.8-1.4-0.8C54.9,92.5,54.5,92.7,54.2,93z" />
		<path class="st0" d="M59.8,98v0.9h-0.9V98H59.8z" />
		<path class="st0" d="M65.2,95.7c0.5,0.3,0.7,0.8,0.7,1.4c0,1.2-0.9,1.9-2.5,1.9c-1.6,0-2.6-0.7-2.6-1.9c0-0.6,0.3-1.1,0.8-1.5    c0.3-0.2,0.5-0.3,0.8-0.3c-0.8-0.1-1.3-0.8-1.3-1.6c0-1.1,0.9-1.8,2.2-1.8c1.4,0,2.2,0.7,2.2,1.8c0,0.8-0.5,1.5-1.3,1.6    C64.7,95.4,64.9,95.5,65.2,95.7z M61.6,97.1c0,0.9,0.7,1.4,1.8,1.4c0.6,0,1.1-0.2,1.4-0.5c0.2-0.2,0.3-0.5,0.3-0.9    c0-0.9-0.7-1.4-1.8-1.4C62.3,95.6,61.6,96.2,61.6,97.1z M61.9,93.7c0,0.8,0.6,1.3,1.5,1.3s1.5-0.5,1.5-1.3c0-0.8-0.6-1.2-1.5-1.2    C62.5,92.5,61.9,93,61.9,93.7z" />
	</g>
	<g>
		<path class="st0" d="M53.8,50.4c0.2,0,0.4,0,0.7,0h0.6c0.3,0,0.5,0,0.7,0c-0.1,0.5-0.1,1-0.1,1.5v4.4c0,0.4,0,0.7,0.1,1H55    c0.1-0.3,0.1-0.6,0.1-1v-5.2h-0.5c-0.3,0-0.5,0-0.8,0.1V50.4z" />
		<path class="st0" d="M59.8,56.4v0.9h-0.9v-0.9H59.8z" />
		<path class="st0" d="M61.8,56.8c-0.2-0.2-0.4-0.5-0.5-0.8c-0.2-0.6-0.3-1.3-0.3-2.1c0-1,0.2-1.9,0.5-2.4c0.4-0.7,1.1-1.1,2-1.1    c0.7,0,1.2,0.2,1.6,0.6c0.3,0.3,0.4,0.5,0.5,0.8c0.2,0.6,0.3,1.3,0.3,2.1c0,1.1-0.2,2.1-0.6,2.6c-0.5,0.6-1.1,0.9-1.9,0.9    C62.7,57.4,62.2,57.2,61.8,56.8z M62.3,51.4c-0.2,0.2-0.3,0.4-0.4,0.7c-0.2,0.5-0.3,1.2-0.3,1.8c0,0.8,0.2,1.7,0.4,2.1    c0.3,0.5,0.8,0.8,1.4,0.8c0.5,0,0.8-0.1,1.1-0.4c0.2-0.2,0.3-0.4,0.4-0.7c0.2-0.6,0.3-1.2,0.3-1.8c0-0.8-0.2-1.7-0.4-2.1    C64.5,51.2,64,51,63.4,51C62.9,51,62.6,51.1,62.3,51.4z" />
	</g>
	<line class="st1" x1="71.3" y1="261.6" x2="71.3" y2="53.2" />
	<g>
		<g>
			<line class="st1" x1="71.3" y1="220" x2="76.5" y2="220" />
			<line class="st1" x1="71.3" y1="178.4" x2="76.5" y2="178.4" />
			<line class="st1" x1="71.3" y1="136.9" x2="76.5" y2="136.9" />
			<line class="st1" x1="71.3" y1="95.3" x2="76.5" y2="95.3" />
			<line class="st1" x1="71.3" y1="53.7" x2="76.5" y2="53.7" />
		</g>
	</g>
	<g>
		<path class="st0" d="M413.3,273.1c-0.3-0.3-0.5-0.6-0.6-0.9c-0.2-0.7-0.4-1.5-0.4-2.3c0-1.1,0.2-2.1,0.6-2.7    c0.5-0.8,1.2-1.2,2.2-1.2c0.7,0,1.4,0.2,1.8,0.7c0.3,0.3,0.5,0.6,0.6,0.9c0.2,0.7,0.4,1.5,0.4,2.3c0,1.2-0.3,2.3-0.7,2.9    c-0.5,0.7-1.2,1-2.1,1C414.4,273.8,413.8,273.5,413.3,273.1z M413.9,267.1c-0.2,0.2-0.4,0.5-0.5,0.7c-0.2,0.6-0.3,1.3-0.3,2    c0,0.9,0.2,1.9,0.5,2.4c0.3,0.6,0.9,0.9,1.5,0.9c0.5,0,0.9-0.2,1.2-0.5c0.2-0.2,0.4-0.5,0.5-0.8c0.2-0.6,0.3-1.3,0.3-2    c0-0.9-0.2-1.9-0.4-2.3c-0.3-0.6-0.9-0.9-1.6-0.9C414.6,266.6,414.2,266.8,413.9,267.1z" />
	</g>
	<g>
		<path class="st0" d="M458.6,273.3c-0.3-0.3-0.5-0.6-0.6-0.9c-0.2-0.7-0.4-1.5-0.4-2.3c0-1.1,0.2-2.1,0.6-2.7    c0.5-0.8,1.2-1.2,2.2-1.2c0.7,0,1.4,0.2,1.8,0.7c0.3,0.3,0.5,0.6,0.6,0.9c0.2,0.7,0.4,1.5,0.4,2.3c0,1.2-0.3,2.3-0.7,2.9    c-0.5,0.7-1.2,1-2.1,1C459.7,274,459,273.7,458.6,273.3z M459.2,267.3c-0.2,0.2-0.4,0.5-0.5,0.7c-0.2,0.6-0.3,1.3-0.3,2    c0,0.9,0.2,1.9,0.5,2.4c0.3,0.6,0.9,0.9,1.5,0.9c0.5,0,0.9-0.2,1.2-0.5c0.2-0.2,0.4-0.5,0.5-0.8c0.2-0.6,0.3-1.3,0.3-2    c0-0.9-0.2-1.9-0.4-2.3c-0.3-0.6-0.9-0.9-1.6-0.9C459.9,266.8,459.5,266.9,459.2,267.3z" />
		<path class="st0" d="M465.4,272.8v1h-1v-1H465.4z" />
		<path class="st0" d="M468.3,273.8c-0.6,0-0.8,0-1.1,0c0.1-0.8,0.1-0.9,0.3-1.3c0.2-0.6,0.7-1.2,1.3-1.7c0.3-0.3,0.4-0.3,1.5-1.1    c1-0.7,1.3-1.1,1.3-1.7c0-0.8-0.6-1.2-1.7-1.2c-0.7,0-1.1,0.2-1.4,0.6c-0.2,0.3-0.3,0.5-0.3,1l-0.8-0.1c0.2-0.7,0.3-1.1,0.6-1.4    c0.4-0.5,1.1-0.8,2-0.8c1.5,0,2.5,0.8,2.5,1.9c0,0.5-0.2,1-0.6,1.4c-0.3,0.3-0.6,0.5-1.7,1.3c-0.8,0.5-1.1,0.8-1.4,1.2    c-0.3,0.4-0.5,0.7-0.6,1.2h3.2c0.5,0,0.8,0,1.2-0.1v0.8c-0.4,0-0.7-0.1-1.2-0.1H468.3z" />
	</g>
	<g>
		<path class="st0" d="M500.4,273.3c-0.3-0.3-0.5-0.6-0.6-0.9c-0.2-0.7-0.4-1.5-0.4-2.3c0-1.1,0.2-2.1,0.6-2.7    c0.5-0.8,1.2-1.2,2.2-1.2c0.7,0,1.4,0.2,1.8,0.7c0.3,0.3,0.5,0.6,0.6,0.9c0.2,0.7,0.4,1.5,0.4,2.3c0,1.2-0.3,2.3-0.7,2.9    c-0.5,0.7-1.2,1-2.1,1C501.5,274,500.8,273.7,500.4,273.3z M501,267.3c-0.2,0.2-0.4,0.5-0.5,0.7c-0.2,0.6-0.3,1.3-0.3,2    c0,0.9,0.2,1.9,0.5,2.4c0.3,0.6,0.9,0.9,1.5,0.9c0.5,0,0.9-0.2,1.2-0.5c0.2-0.2,0.4-0.5,0.5-0.8c0.2-0.6,0.3-1.3,0.3-2    c0-0.9-0.2-1.9-0.4-2.3c-0.3-0.6-0.9-0.9-1.6-0.9C501.7,266.8,501.3,266.9,501,267.3z" />
		<path class="st0" d="M507.2,272.8v1h-1v-1H507.2z" />
		<path class="st0" d="M508.2,271.2c0.2-0.2,0.4-0.5,0.7-0.8l2.5-3.2c0.3-0.4,0.5-0.7,0.7-1h0.8c0,0.6-0.1,0.9-0.1,1.7v3.3h0.4    c0.4,0,0.7,0,1-0.1v0.8c-0.4,0-0.6-0.1-1-0.1h-0.4v0.9c0,0.5,0,0.7,0.1,1.1H512c0.1-0.4,0.1-0.6,0.1-1.1v-0.9h-2.7    c-0.6,0-0.9,0-1.2,0V271.2z M512.1,268.7c0-0.5,0-0.8,0.1-1.4c-0.2,0.3-0.5,0.6-0.8,1l-2.3,2.9h3V268.7z" />
	</g>
	<g>
		<path class="st0" d="M542,273.3c-0.3-0.3-0.5-0.6-0.6-0.9c-0.2-0.7-0.4-1.5-0.4-2.3c0-1.1,0.2-2.1,0.6-2.7    c0.5-0.8,1.2-1.2,2.2-1.2c0.7,0,1.4,0.2,1.8,0.7c0.3,0.3,0.5,0.6,0.6,0.9c0.2,0.7,0.4,1.5,0.4,2.3c0,1.2-0.3,2.3-0.7,2.9    c-0.5,0.7-1.2,1-2.1,1C543.1,274,542.4,273.7,542,273.3z M542.6,267.3c-0.2,0.2-0.4,0.5-0.5,0.7c-0.2,0.6-0.3,1.3-0.3,2    c0,0.9,0.2,1.9,0.5,2.4c0.3,0.6,0.9,0.9,1.5,0.9c0.5,0,0.9-0.2,1.2-0.5c0.2-0.2,0.4-0.5,0.5-0.8c0.2-0.6,0.3-1.3,0.3-2    c0-0.9-0.2-1.9-0.4-2.3c-0.3-0.6-0.9-0.9-1.6-0.9C543.3,266.8,542.9,266.9,542.6,267.3z" />
		<path class="st0" d="M548.8,272.8v1h-1v-1H548.8z" />
		<path class="st0" d="M554.5,267.9c-0.1-0.3-0.2-0.5-0.4-0.6c-0.3-0.3-0.7-0.5-1.2-0.5c-0.8,0-1.4,0.4-1.7,1.2    c-0.3,0.6-0.3,1.1-0.4,2.1c0.2-0.3,0.3-0.4,0.5-0.6c0.5-0.4,1-0.6,1.7-0.6c1.5,0,2.5,1,2.5,2.5c0,1.5-1,2.6-2.6,2.6    c-0.7,0-1.4-0.2-1.8-0.6c-0.7-0.6-1-1.7-1-3.1c0-1.2,0.3-2.4,0.8-3c0.5-0.7,1.2-1.1,2.1-1.1c0.6,0,1.1,0.2,1.5,0.4    c0.3,0.2,0.5,0.5,0.8,1.1L554.5,267.9z M552.9,269.6c-0.5,0-1,0.2-1.4,0.6c-0.3,0.3-0.5,0.8-0.5,1.3c0,1.1,0.8,1.9,1.9,1.9    c0.6,0,1.2-0.3,1.6-0.8c0.2-0.3,0.3-0.7,0.3-1.1C554.7,270.2,554.1,269.6,552.9,269.6z" />
	</g>
	<g>
		<path class="st0" d="M583.6,273.3c-0.3-0.3-0.5-0.6-0.6-0.9c-0.2-0.7-0.4-1.5-0.4-2.3c0-1.1,0.2-2.1,0.6-2.7    c0.5-0.8,1.2-1.2,2.2-1.2c0.7,0,1.4,0.2,1.8,0.7c0.3,0.3,0.5,0.6,0.6,0.9c0.2,0.7,0.4,1.5,0.4,2.3c0,1.2-0.3,2.3-0.7,2.9    c-0.5,0.7-1.2,1-2.1,1C584.6,274,584,273.7,583.6,273.3z M584.1,267.3c-0.2,0.2-0.4,0.5-0.5,0.7c-0.2,0.6-0.3,1.3-0.3,2    c0,0.9,0.2,1.9,0.5,2.4c0.3,0.6,0.9,0.9,1.5,0.9c0.5,0,0.9-0.2,1.2-0.5c0.2-0.2,0.4-0.5,0.5-0.8c0.2-0.6,0.3-1.3,0.3-2    c0-0.9-0.2-1.9-0.4-2.3c-0.3-0.6-0.9-0.9-1.6-0.9C584.9,266.8,584.5,266.9,584.1,267.3z" />
		<path class="st0" d="M590.4,272.8v1h-1v-1H590.4z" />
		<path class="st0" d="M596.4,270.3c0.5,0.4,0.7,0.9,0.7,1.6c0,1.4-1,2.1-2.8,2.1c-1.8,0-2.8-0.8-2.8-2.1c0-0.7,0.3-1.3,0.9-1.7    c0.3-0.2,0.5-0.3,0.9-0.3c-0.9-0.2-1.4-0.9-1.4-1.8c0-1.2,0.9-2,2.5-2c1.5,0,2.5,0.7,2.5,2c0,0.9-0.6,1.6-1.4,1.8    C595.8,269.9,596.1,270,596.4,270.3z M592.4,271.8c0,0.9,0.7,1.5,2,1.5c0.7,0,1.3-0.2,1.6-0.5c0.2-0.2,0.4-0.6,0.4-1    c0-1-0.7-1.6-2-1.6S592.4,270.8,592.4,271.8z M592.7,268.1c0,0.9,0.6,1.4,1.7,1.4s1.7-0.5,1.7-1.4c0-0.8-0.7-1.4-1.7-1.4    C593.3,266.7,592.7,267.3,592.7,268.1z" />
	</g>
	<g>
		<path class="st0" d="M625.3,266.2c0.3,0,0.4,0,0.8,0h0.6c0.3,0,0.5,0,0.8,0c-0.1,0.6-0.1,1.1-0.1,1.7v4.9c0,0.5,0,0.8,0.1,1.1    h-0.9c0.1-0.4,0.1-0.7,0.1-1.1v-5.8h-0.5c-0.3,0-0.6,0-0.9,0.1V266.2z" />
		<path class="st0" d="M631.9,272.8v1h-1v-1H631.9z" />
		<path class="st0" d="M634.1,273.3c-0.3-0.3-0.5-0.6-0.6-0.9c-0.2-0.7-0.4-1.5-0.4-2.3c0-1.1,0.2-2.1,0.6-2.7    c0.5-0.8,1.2-1.2,2.2-1.2c0.7,0,1.4,0.2,1.8,0.7c0.3,0.3,0.5,0.6,0.6,0.9c0.2,0.7,0.4,1.5,0.4,2.3c0,1.2-0.3,2.3-0.7,2.9    c-0.5,0.7-1.2,1-2.1,1C635.2,274,634.6,273.7,634.1,273.3z M634.7,267.3c-0.2,0.2-0.4,0.5-0.5,0.7c-0.2,0.6-0.3,1.3-0.3,2    c0,0.9,0.2,1.9,0.5,2.4c0.3,0.6,0.9,0.9,1.5,0.9c0.5,0,0.9-0.2,1.2-0.5c0.2-0.2,0.4-0.5,0.5-0.8c0.2-0.6,0.3-1.3,0.3-2    c0-0.9-0.2-1.9-0.4-2.3c-0.3-0.6-0.9-0.9-1.6-0.9C635.4,266.8,635,266.9,634.7,267.3z" />
	</g>
	<g>
		<path class="st0" d="M665.1,266.2c0.3,0,0.4,0,0.8,0h0.6c0.3,0,0.5,0,0.8,0c-0.1,0.6-0.1,1.1-0.1,1.7v4.9c0,0.5,0,0.8,0.1,1.1    h-0.9c0.1-0.4,0.1-0.7,0.1-1.1v-5.8h-0.5c-0.3,0-0.6,0-0.9,0.1V266.2z" />
		<path class="st0" d="M671.7,272.8v1h-1v-1H671.7z" />
		<path class="st0" d="M674.6,273.8c-0.6,0-0.8,0-1.1,0c0.1-0.8,0.1-0.9,0.3-1.3c0.2-0.6,0.7-1.2,1.3-1.7c0.3-0.3,0.4-0.3,1.5-1.1    c1-0.7,1.3-1.1,1.3-1.7c0-0.8-0.6-1.2-1.7-1.2c-0.7,0-1.1,0.2-1.4,0.6c-0.2,0.3-0.3,0.5-0.3,1l-0.8-0.1c0.2-0.7,0.3-1.1,0.6-1.4    c0.4-0.5,1.1-0.8,2-0.8c1.5,0,2.5,0.8,2.5,1.9c0,0.5-0.2,1-0.6,1.4c-0.3,0.3-0.6,0.5-1.7,1.3c-0.8,0.5-1.1,0.8-1.4,1.2    c-0.3,0.4-0.5,0.7-0.6,1.2h3.2c0.5,0,0.8,0,1.2-0.1v0.8c-0.4,0-0.7-0.1-1.2-0.1H674.6z" />
	</g>
	<line class="st1" x1="423.1" y1="261.6" x2="673.5" y2="261.6" />
	<g>
		<g>
			<line class="st1" x1="465.1" y1="261.6" x2="465.1" y2="256.4" />
			<line class="st1" x1="506.7" y1="261.6" x2="506.7" y2="256.4" />
			<line class="st1" x1="548.3" y1="261.6" x2="548.3" y2="256.4" />
			<line class="st1" x1="589.9" y1="261.6" x2="589.9" y2="256.4" />
			<line class="st1" x1="631.5" y1="261.6" x2="631.5" y2="256.4" />
			<line class="st1" x1="673" y1="261.6" x2="673" y2="256.4" />
		</g>
	</g>
	<g>
		<path class="st0" d="M404,222.2c-0.3-0.3-0.5-0.6-0.6-0.9c-0.2-0.7-0.4-1.5-0.4-2.3c0-1.1,0.2-2.1,0.6-2.7    c0.5-0.8,1.2-1.2,2.2-1.2c0.7,0,1.4,0.2,1.8,0.7c0.3,0.3,0.5,0.6,0.6,0.9c0.2,0.7,0.4,1.5,0.4,2.3c0,1.2-0.3,2.3-0.7,2.9    c-0.5,0.7-1.2,1-2.1,1C405.1,222.9,404.5,222.7,404,222.2z M404.6,216.2c-0.2,0.2-0.4,0.5-0.5,0.7c-0.2,0.6-0.3,1.3-0.3,2    c0,0.9,0.2,1.9,0.5,2.4c0.3,0.6,0.9,0.9,1.5,0.9c0.5,0,0.9-0.2,1.2-0.5c0.2-0.2,0.4-0.5,0.5-0.8c0.2-0.6,0.3-1.3,0.3-2    c0-0.9-0.2-1.9-0.4-2.3c-0.3-0.6-0.9-0.9-1.6-0.9C405.3,215.7,404.9,215.9,404.6,216.2z" />
		<path class="st0" d="M410.8,221.8v1h-1v-1H410.8z" />
		<path class="st0" d="M413.7,222.7c-0.6,0-0.8,0-1.1,0c0.1-0.8,0.1-0.9,0.3-1.3c0.2-0.6,0.7-1.2,1.3-1.7c0.3-0.3,0.4-0.3,1.5-1.1    c1-0.7,1.3-1.1,1.3-1.7c0-0.8-0.6-1.2-1.7-1.2c-0.7,0-1.1,0.2-1.4,0.6c-0.2,0.3-0.3,0.5-0.3,1l-0.8-0.1c0.2-0.7,0.3-1.1,0.6-1.4    c0.4-0.5,1.1-0.8,2-0.8c1.5,0,2.5,0.8,2.5,1.9c0,0.5-0.2,1-0.6,1.4c-0.3,0.3-0.6,0.5-1.7,1.3c-0.8,0.5-1.1,0.8-1.4,1.2    c-0.3,0.4-0.5,0.7-0.6,1.2h3.2c0.5,0,0.8,0,1.2-0.1v0.8c-0.4,0-0.7-0.1-1.2-0.1H413.7z" />
	</g>
	<g>
		<path class="st0" d="M404.5,180.6c-0.3-0.3-0.5-0.6-0.6-0.9c-0.2-0.7-0.4-1.5-0.4-2.3c0-1.1,0.2-2.1,0.6-2.7    c0.5-0.8,1.2-1.2,2.2-1.2c0.7,0,1.4,0.2,1.8,0.7c0.3,0.3,0.5,0.6,0.6,0.9c0.2,0.7,0.4,1.5,0.4,2.3c0,1.2-0.3,2.3-0.7,2.9    c-0.5,0.7-1.2,1-2.1,1C405.5,181.3,404.9,181.1,404.5,180.6z M405,174.6c-0.2,0.2-0.4,0.5-0.5,0.7c-0.2,0.6-0.3,1.3-0.3,2    c0,0.9,0.2,1.9,0.5,2.4c0.3,0.6,0.9,0.9,1.5,0.9c0.5,0,0.9-0.2,1.2-0.5c0.2-0.2,0.4-0.5,0.5-0.8c0.2-0.6,0.3-1.3,0.3-2    c0-0.9-0.2-1.9-0.4-2.3c-0.3-0.6-0.9-0.9-1.6-0.9C405.8,174.1,405.4,174.3,405,174.6z" />
		<path class="st0" d="M411.3,180.2v1h-1v-1H411.3z" />
		<path class="st0" d="M412.3,178.5c0.2-0.2,0.4-0.5,0.7-0.8l2.5-3.2c0.3-0.4,0.5-0.7,0.7-1h0.8c0,0.6-0.1,0.9-0.1,1.7v3.3h0.4    c0.4,0,0.7,0,1-0.1v0.8c-0.4,0-0.6-0.1-1-0.1h-0.4v0.9c0,0.5,0,0.7,0.1,1.1h-0.9c0.1-0.4,0.1-0.6,0.1-1.1v-0.9h-2.7    c-0.6,0-0.9,0-1.2,0V178.5z M416.2,176c0-0.5,0-0.8,0.1-1.4c-0.2,0.3-0.5,0.6-0.8,1l-2.3,2.9h3V176z" />
	</g>
	<g>
		<path class="st0" d="M404.5,139.9c-0.3-0.3-0.5-0.6-0.6-0.9c-0.2-0.7-0.4-1.5-0.4-2.3c0-1.1,0.2-2.1,0.6-2.7    c0.5-0.8,1.2-1.2,2.2-1.2c0.7,0,1.4,0.2,1.8,0.7c0.3,0.3,0.5,0.6,0.6,0.9c0.2,0.7,0.4,1.5,0.4,2.3c0,1.2-0.3,2.3-0.7,2.9    c-0.5,0.7-1.2,1-2.1,1C405.6,140.6,405,140.4,404.5,139.9z M405.1,133.9c-0.2,0.2-0.4,0.5-0.5,0.7c-0.2,0.6-0.3,1.3-0.3,2    c0,0.9,0.2,1.9,0.5,2.4c0.3,0.6,0.9,0.9,1.5,0.9c0.5,0,0.9-0.2,1.2-0.5c0.2-0.2,0.4-0.5,0.5-0.8c0.2-0.6,0.3-1.3,0.3-2    c0-0.9-0.2-1.9-0.4-2.3c-0.3-0.6-0.9-0.9-1.6-0.9C405.8,133.4,405.4,133.6,405.1,133.9z" />
		<path class="st0" d="M411.3,139.5v1h-1v-1H411.3z" />
		<path class="st0" d="M417,134.5c-0.1-0.3-0.2-0.5-0.4-0.6c-0.3-0.3-0.7-0.5-1.2-0.5c-0.8,0-1.4,0.4-1.7,1.2    c-0.3,0.6-0.3,1.1-0.4,2.1c0.2-0.3,0.3-0.4,0.5-0.6c0.5-0.4,1-0.6,1.7-0.6c1.5,0,2.5,1,2.5,2.5c0,1.5-1,2.6-2.6,2.6    c-0.7,0-1.4-0.2-1.8-0.6c-0.7-0.6-1-1.7-1-3.1c0-1.2,0.3-2.4,0.8-3c0.5-0.7,1.2-1.1,2.1-1.1c0.6,0,1.1,0.1,1.5,0.4    c0.3,0.2,0.5,0.5,0.8,1.1L417,134.5z M415.4,136.2c-0.5,0-1,0.2-1.4,0.6c-0.3,0.3-0.5,0.8-0.5,1.3c0,1.1,0.8,1.9,1.9,1.9    c0.6,0,1.2-0.3,1.6-0.8c0.2-0.3,0.3-0.7,0.3-1.1C417.3,136.9,416.6,136.2,415.4,136.2z" />
	</g>
	<g>
		<path class="st0" d="M404,98.3c-0.3-0.3-0.5-0.6-0.6-0.9c-0.2-0.7-0.4-1.5-0.4-2.3c0-1.1,0.2-2.1,0.6-2.7c0.5-0.8,1.2-1.2,2.2-1.2    c0.7,0,1.4,0.2,1.8,0.7c0.3,0.3,0.5,0.6,0.6,0.9c0.2,0.7,0.4,1.5,0.4,2.3c0,1.2-0.3,2.3-0.7,2.9c-0.5,0.7-1.2,1-2.1,1    C405.1,99,404.5,98.8,404,98.3z M404.6,92.3c-0.2,0.2-0.4,0.5-0.5,0.7c-0.2,0.6-0.3,1.3-0.3,2c0,0.9,0.2,1.9,0.5,2.4    c0.3,0.6,0.9,0.9,1.5,0.9c0.5,0,0.9-0.2,1.2-0.5c0.2-0.2,0.4-0.5,0.5-0.8c0.2-0.6,0.3-1.3,0.3-2c0-0.9-0.2-1.9-0.4-2.3    c-0.3-0.6-0.9-0.9-1.6-0.9C405.3,91.8,404.9,92,404.6,92.3z" />
		<path class="st0" d="M410.8,97.9v1h-1v-1H410.8z" />
		<path class="st0" d="M417.3,95.3c0.5,0.4,0.7,0.9,0.7,1.6c0,1.4-1,2.1-2.8,2.1c-1.8,0-2.8-0.8-2.8-2.1c0-0.7,0.3-1.3,0.9-1.7    c0.3-0.2,0.5-0.3,0.9-0.3c-0.9-0.2-1.4-0.9-1.4-1.8c0-1.2,0.9-2,2.5-2c1.5,0,2.5,0.8,2.5,2c0,0.9-0.6,1.6-1.4,1.8    C416.7,95,417,95.1,417.3,95.3z M413.3,96.8c0,0.9,0.7,1.5,2,1.5c0.7,0,1.3-0.2,1.6-0.5c0.2-0.2,0.4-0.6,0.4-1c0-1-0.7-1.6-2-1.6    S413.3,95.9,413.3,96.8z M413.6,93.2c0,0.9,0.6,1.4,1.7,1.4s1.7-0.5,1.7-1.4c0-0.8-0.7-1.4-1.7-1.4    C414.3,91.8,413.6,92.3,413.6,93.2z" />
	</g>
	<g>
		<path class="st0" d="M404.7,49.7c0.3,0,0.4,0,0.8,0h0.6c0.3,0,0.5,0,0.8,0c-0.1,0.6-0.1,1.1-0.1,1.7v4.9c0,0.5,0,0.8,0.1,1.1H406    c0.1-0.3,0.1-0.7,0.1-1.1v-5.8h-0.5c-0.3,0-0.6,0-0.9,0.1V49.7z" />
		<path class="st0" d="M411.3,56.3v1h-1v-1H411.3z" />
		<path class="st0" d="M413.5,56.7c-0.3-0.3-0.5-0.6-0.6-0.9c-0.2-0.7-0.4-1.5-0.4-2.3c0-1.1,0.2-2.1,0.6-2.7    c0.5-0.8,1.2-1.2,2.2-1.2c0.7,0,1.4,0.2,1.8,0.7c0.3,0.3,0.5,0.6,0.6,0.9c0.2,0.7,0.4,1.5,0.4,2.3c0,1.2-0.3,2.3-0.7,2.9    c-0.5,0.7-1.2,1-2.1,1C414.6,57.4,413.9,57.2,413.5,56.7z M414,50.8c-0.2,0.2-0.4,0.5-0.5,0.7c-0.2,0.6-0.3,1.3-0.3,2    c0,0.9,0.2,1.9,0.5,2.4c0.3,0.6,0.9,0.9,1.5,0.9c0.5,0,0.9-0.2,1.2-0.5c0.2-0.2,0.4-0.5,0.5-0.8c0.2-0.6,0.3-1.3,0.3-2    c0-0.9-0.2-1.9-0.4-2.3c-0.3-0.6-0.9-0.9-1.6-0.9C414.8,50.3,414.4,50.4,414,50.8z" />
	</g>
	<line class="st1" x1="423.6" y1="261.6" x2="423.6" y2="53.2" />
	<g>
		<g>
			<line class="st1" x1="423.6" y1="220" x2="428.8" y2="220" />
			<line class="st1" x1="423.6" y1="178.4" x2="428.8" y2="178.4" />
			<line class="st1" x1="423.6" y1="136.9" x2="428.8" y2="136.9" />
			<line class="st1" x1="423.6" y1="95.3" x2="428.8" y2="95.3" />
			<line class="st1" x1="423.6" y1="53.7" x2="428.8" y2="53.7" />
		</g>
	</g>
</g>
<g id="Layer_1">
	<circle class="st2" cx="112.9" cy="209.2" r="2.6" />
	<circle class="st2" cx="94.6" cy="229.9" r="2.6" />
	<circle class="st2" cx="142.1" cy="223.9" r="2.6" />
	<circle class="st2" cx="159.4" cy="185.9" r="2.6" />
	<circle class="st2" cx="158.5" cy="153.1" r="2.6" />
	<circle class="st2" cx="187.9" cy="183.3" r="2.6" />
	<circle class="st2" cx="454.4" cy="236.8" r="2.6" />
	<circle class="st2" cx="460.4" cy="167.7" r="2.6" />
	<circle class="st2" cx="516.6" cy="229.1" r="2.6" />
	<circle class="st2" cx="507.9" cy="149.6" r="2.6" />
	<circle class="st2" cx="577.9" cy="213.5" r="2.6" />
	<circle class="st2" cx="548.5" cy="95.2" r="2.6" />
	<circle class="st2" cx="599.5" cy="161.7" r="2.6" />
	<circle class="st2" cx="592.6" cy="102.1" r="2.6" />
	<circle class="st2" cx="626.3" cy="134" r="2.6" />
	<circle class="st2" cx="626.3" cy="126.3" r="2.6" />
	<circle class="st2" cx="626.3" cy="65.8" r="2.6" />
	<circle class="st2" cx="617.6" cy="236" r="2.6" />
	<circle class="st2" cx="539" cy="162.6" r="2.6" />
	<circle class="st2" cx="548.5" cy="134.9" r="2.6" />
	<circle class="st2" cx="614.2" cy="95.2" r="2.6" />
	<circle class="st2" cx="645.3" cy="77" r="2.6" />
	<circle class="st2" cx="500.1" cy="204" r="2.6" />
	<circle class="st2" cx="524.3" cy="202.3" r="2.6" />
	<circle class="st2" cx="564.9" cy="138.4" r="2.6" />
	<circle class="st2" cx="565.8" cy="179" r="2.6" />
	<circle class="st2" cx="495.8" cy="182.4" r="2.6" />
	<circle class="st2" cx="472.5" cy="217" r="2.6" />
	<circle class="st2" cx="179.2" cy="161.7" r="2.6" />
	<circle class="st2" cx="111" cy="226.5" r="2.6" />
	<circle class="st2" cx="85.9" cy="248.1" r="2.6" />
	<circle class="st2" cx="224.2" cy="156.5" r="2.6" />
	<circle class="st2" cx="256.1" cy="130.6" r="2.6" />
	<circle class="st2" cx="217.2" cy="132.3" r="2.6" />
	<circle class="st2" cx="258.7" cy="115.9" r="2.6" />
	<circle class="st2" cx="288.1" cy="112.5" r="2.6" />
	<circle class="st2" cx="302.8" cy="122" r="2.6" />
	<circle class="st2" cx="289.8" cy="90" r="2.6" />
	<circle class="st2" cx="313.1" cy="57.2" r="2.6" />
	<circle class="st2" cx="243.2" cy="162.6" r="2.6" />
	<circle class="st2" cx="199.1" cy="143.6" r="2.6" />
	<circle class="st2" cx="149" cy="198" r="2.6" />
	<circle class="st2" cx="126.5" cy="190.2" r="2.6" />
	<circle class="st2" cx="314.9" cy="80.5" r="2.6" />
	<g>
	</g>
	<g>
	</g>
	<g>
	</g>
	<g>
	</g>
	<g>
	</g>
	<g>
	</g>
	<g>
	</g>
	<g>
	</g>
	<g>
	</g>
	<g>
	</g>
</g>
</svg>