<svg width="900" height="340" viewBox="-70,-30,880,340" style="max-width: 100%; height: auto; font: 10px sans-serif;" xmlns="http://www.w3.org/2000/svg">

<style type="text/css">.st0 {fill: none;stroke:#B3B3B3;;}
	.st1 {fill: hsl(0, 96%, 56%);;}</style>
<g id="Layer_1">
	<polyline class="st0" points="201.8,64.8 201.8,47 528,47 528,108.8  " />
	<line class="st0" x1="364.2" y1="28.8" x2="364.2" y2="65.5" />
	<line class="st0" x1="486.7" y1="198.1" x2="486.7" y2="47.2" />
	<line class="st0" x1="446.2" y1="64.5" x2="446.2" y2="47.2" />
	<line class="st0" x1="405.3" y1="64.5" x2="405.3" y2="47.2" />
	<line class="st0" x1="323.7" y1="47.2" x2="323.7" y2="242.8" />
	<line class="st0" x1="283.3" y1="65" x2="283.3" y2="46.5" />
	<line class="st0" x1="242.2" y1="109.8" x2="242.2" y2="46.5" />
	<line class="st0" x1="201.5" y1="72.2" x2="201.5" y2="110.8" />
	<polyline class="st0" points="201.5,89.8 118.6,89.8 118.6,222.5  " />
	<polyline class="st0" points="282.4,267 282.4,89.8 364.7,89.8 364.7,199.2  " />
	<polyline class="st0" points="446.7,153.2 446.7,89.8 486.8,89.8  " />
	<line class="st0" x1="159.5" y1="155.5" x2="159.5" y2="89.5" />
	<polyline class="st0" points="528,89.8 651.7,89.8 651.7,110  " />
	<line class="st0" x1="569.7" y1="109.2" x2="569.7" y2="89.5" />
	<line class="st0" x1="610.7" y1="154.2" x2="610.7" y2="89.8" />
	<polyline class="st0" points="118.8,134.5 35.8,134.5 35.8,152.8  " />
	<polyline class="st0" points="76.5,134.8 76.5,222.5 35.8,222.5 35.8,241.8  " />
	<polyline class="st0" points="159.2,134.5 200.4,134.5 200.4,286.7  " />
	<polyline class="st0" points="364.6,134.5 405.7,134.5 405.7,153.8  " />
	<polyline class="st0" points="652.7,199.8 652.7,134.5 570,134.5 570,222.2  " />
	<polyline class="st0" points="101.2,286.5 101.2,222.1 134.2,222.2 134.2,242.8  " />
	<line class="st0" x1="68.8" y1="241.4" x2="68.8" y2="222.2" />
	<polyline class="st0" points="35.5,249.7 35.5,266.7 68.5,266.7 68.5,286.7  " />
	<line class="st0" x1="35.5" y1="264.5" x2="35.5" y2="286.8" />
	<polyline class="st0" points="167.5,286.3 167.5,222.3 233.3,222.3 233.3,286  " />
	<polyline class="st0" points="282.5,178.2 241.2,178.2 241.2,199.2  " />
	<polyline class="st0" points="299,287.5 299,267 266,267 266,288.8  " />
	<polyline class="st0" points="323.8,222.5 361,222.5 361,265.8  " />
	<polyline class="st0" points="376.5,288.2 376.5,265.8 343.5,265.8 343.5,286.5  " />
	<polyline class="st0" points="447,222.2 447,179.5 529.5,179.5 529.5,198.5  " />
	<polyline class="st0" points="652.5,178.2 693.6,178.2 693.6,287.8  " />
	<polyline class="st0" points="397.5,242.2 397.5,222.2 496.2,222.2 496.2,286.8  " />
	<line class="st0" x1="430.3" y1="286.6" x2="430.3" y2="221.9" />
	<line class="st0" x1="462.8" y1="286.5" x2="462.8" y2="222.2" />
	<polyline class="st0" points="496.2,266.3 528.7,266.3 528.7,286.2  " />
	<polyline class="st0" points="553.8,242 553.8,222.3 587.3,222.3 587.3,266  " />
	<polyline class="st0" points="693.5,266.2 628,266.2 628,287.7  " />
	<line class="st0" x1="660.5" y1="266.2" x2="660.5" y2="287.2" />
	<polyline class="st0" points="652.8,205 652.8,222.5 627.8,222.5 627.8,242  " />
	<polyline class="st0" points="660.7,241.3 660.7,222.5 652.9,222.5  " />
	<polyline class="st0" points="595,287.7 595,266.2 562.5,266.2 562.5,288.5  " />
</g>
<g id="Layer_2">
	<rect x="353.5" y="20" class="st1" width="22" height="9" />
	<rect x="353.5" y="64.2" class="st1" width="22" height="9" />
	<rect x="312.8" y="64.2" class="st1" width="22" height="9" />
	<rect x="394.3" y="64.2" class="st1" width="22" height="9" />
	<rect x="475.8" y="64.2" class="st1" width="22" height="9" />
	<rect x="435" y="64.2" class="st1" width="22" height="9" />
	<rect x="516.5" y="64.2" class="st1" width="22" height="9" />
	<rect x="231.3" y="64.2" class="st1" width="22" height="9" />
	<rect x="190.5" y="64.2" class="st1" width="22" height="9" />
	<rect x="272" y="64.2" class="st1" width="22" height="9" />
	<rect x="353.5" y="108.3" class="st1" width="22" height="9" />
	<rect x="312.5" y="108.3" class="st1" width="22" height="9" />
	<rect x="475.8" y="108.3" class="st1" width="22" height="9" />
	<rect x="435.5" y="108.3" class="st1" width="22" height="9" />
	<rect x="516.8" y="108.3" class="st1" width="22" height="9" />
	<rect x="599.5" y="108.3" class="st1" width="22" height="9" />
	<rect x="558.5" y="108.3" class="st1" width="22" height="9" />
	<rect x="640.5" y="108.3" class="st1" width="22" height="9" />
	<rect x="230.5" y="108.3" class="st1" width="22" height="9" />
	<rect x="189.5" y="108.3" class="st1" width="22" height="9" />
	<rect x="271.5" y="108.3" class="st1" width="22" height="9" />
	<rect x="107.5" y="108.3" class="st1" width="22" height="9" />
	<rect x="148.5" y="108.3" class="st1" width="22" height="9" />
	<rect x="353.5" y="152.5" class="st1" width="22" height="9" />
	<rect x="312.4" y="152.5" class="st1" width="22" height="9" />
	<rect x="394.6" y="152.5" class="st1" width="22" height="9" />
	<rect x="475.4" y="152.5" class="st1" width="22" height="9" />
	<rect x="435.8" y="152.5" class="st1" width="22" height="9" />
	<rect x="600.2" y="152.5" class="st1" width="22" height="9" />
	<rect x="559.1" y="152.5" class="st1" width="22" height="9" />
	<rect x="641.4" y="152.5" class="st1" width="22" height="9" />
	<rect x="189" y="152.5" class="st1" width="22" height="9" />
	<rect x="271.3" y="152.5" class="st1" width="22" height="9" />
	<rect x="107.8" y="152.5" class="st1" width="22" height="9" />
	<rect x="65.6" y="152.5" class="st1" width="22" height="9" />
	<rect x="24.5" y="152.5" class="st1" width="22" height="9" />
	<rect x="147.9" y="152.5" class="st1" width="22" height="9" />
	<rect x="353.5" y="196.7" class="st1" width="22" height="9" />
	<rect x="312.4" y="196.7" class="st1" width="22" height="9" />
	<rect x="475.6" y="196.7" class="st1" width="22" height="9" />
	<rect x="435.8" y="196.7" class="st1" width="22" height="9" />
	<rect x="518" y="196.7" class="st1" width="22" height="9" />
	<rect x="559.1" y="196.7" class="st1" width="22" height="9" />
	<rect x="641.4" y="196.7" class="st1" width="22" height="9" />
	<rect x="682.5" y="196.7" class="st1" width="22" height="9" />
	<rect x="230.1" y="196.7" class="st1" width="22" height="9" />
	<rect x="189" y="196.7" class="st1" width="22" height="9" />
	<rect x="271.3" y="196.7" class="st1" width="22" height="9" />
	<rect x="107.8" y="196.7" class="st1" width="22" height="9" />
	<rect x="65.6" y="196.7" class="st1" width="22" height="9" />
	<rect x="349.8" y="240.8" class="st1" width="22" height="9" />
	<rect x="419.3" y="240.8" class="st1" width="22" height="9" />
	<rect x="312.3" y="240.8" class="st1" width="22" height="9" />
	<rect x="386.4" y="240.8" class="st1" width="22" height="9" />
	<rect x="452.2" y="240.8" class="st1" width="22" height="9" />
	<rect x="485.1" y="240.8" class="st1" width="22" height="9" />
	<rect x="543.1" y="240.8" class="st1" width="22" height="9" />
	<rect x="616.7" y="240.8" class="st1" width="22" height="9" />
	<rect x="576" y="240.8" class="st1" width="22" height="9" />
	<rect x="649.6" y="240.8" class="st1" width="22" height="9" />
	<rect x="682.5" y="240.8" class="st1" width="22" height="9" />
	<rect x="221.9" y="240.8" class="st1" width="22" height="9" />
	<rect x="189" y="240.8" class="st1" width="22" height="9" />
	<rect x="271.2" y="240.8" class="st1" width="22" height="9" />
	<rect x="90.3" y="240.8" class="st1" width="22" height="9" />
	<rect x="57.4" y="240.8" class="st1" width="22" height="9" />
	<rect x="24.5" y="240.8" class="st1" width="22" height="9" />
	<rect x="123.2" y="240.8" class="st1" width="22" height="9" />
	<rect x="156.1" y="240.8" class="st1" width="22" height="9" />
	<rect x="365.5" y="285" class="st1" width="22" height="9" />
	<rect x="419.3" y="285" class="st1" width="22" height="9" />
	<rect x="332.6" y="285" class="st1" width="22" height="9" />
	<rect x="518" y="285" class="st1" width="22" height="9" />
	<rect x="452.2" y="285" class="st1" width="22" height="9" />
	<rect x="485.1" y="285" class="st1" width="22" height="9" />
	<rect x="550.9" y="285" class="st1" width="22" height="9" />
	<rect x="616.7" y="285" class="st1" width="22" height="9" />
	<rect x="583.8" y="285" class="st1" width="22" height="9" />
	<rect x="649.6" y="285" class="st1" width="22" height="9" />
	<rect x="682.5" y="285" class="st1" width="22" height="9" />
	<rect x="221.9" y="285" class="st1" width="22" height="9" />
	<rect x="189" y="285" class="st1" width="22" height="9" />
	<rect x="254.8" y="285" class="st1" width="22" height="9" />
	<rect x="287.7" y="285" class="st1" width="22" height="9" />
	<rect x="90.3" y="285" class="st1" width="22" height="9" />
	<rect x="57.4" y="285" class="st1" width="22" height="9" />
	<rect x="24.5" y="285" class="st1" width="22" height="9" />
	<rect x="156.1" y="285" class="st1" width="22" height="9" />
	<g>
	</g>
	<g>
	</g>
	<g>
	</g>
	<g>
	</g>
	<g>
	</g>
	<g>
	</g>
	<g>
	</g>
	<g>
	</g>
	<g>
	</g>
	<g>
	</g>
</g>
</svg>