<svg width="900" height="340" viewBox="-70,-30,880,340" style="max-width: 100%; height: auto; font: 10px sans-serif;" xmlns="http://www.w3.org/2000/svg">

<style type="text/css">.st0 {opacity:0.4;fill: none;stroke:#CCCCCC;;}
	.st1 {fill: none;stroke:#666666;;}
	.st2 {fill: hsl(0, 0%, 49%);;}
	.st3 {opacity:0.8;fill: hsl(142, 71%, 42%);;}
	.st4 {opacity:0.8;fill: hsl(15, 88%, 49%);;}
	.st5 {fill: none;stroke:#000000;stroke-width:0.5;;}</style>
<g id="Layer_2">
	<line class="st0" x1="51.2" y1="23.6" x2="691.4" y2="23.6" />
	<line class="st0" x1="51.2" y1="67.2" x2="691.4" y2="67.2" />
	<line class="st0" x1="51.2" y1="110.9" x2="691.4" y2="110.9" />
	<line class="st0" x1="51.2" y1="154.5" x2="691.4" y2="154.5" />
	<line class="st0" x1="51.2" y1="198.4" x2="691.4" y2="198.4" />
	<line class="st0" x1="51.2" y1="241.8" x2="691.4" y2="241.8" />
	<line class="st0" x1="89.6" y1="285.3" x2="89.6" y2="23.6" />
	<line class="st0" x1="129.6" y1="285.5" x2="129.6" y2="23.8" />
	<line class="st0" x1="169.7" y1="285.3" x2="169.7" y2="23.6" />
	<line class="st0" x1="209.8" y1="285.3" x2="209.8" y2="23.6" />
	<line class="st0" x1="249.8" y1="285.3" x2="249.8" y2="23.6" />
	<line class="st0" x1="289.9" y1="285.3" x2="289.9" y2="23.6" />
	<line class="st0" x1="329.9" y1="285.3" x2="329.9" y2="23.6" />
	<line class="st0" x1="370" y1="285.3" x2="370" y2="23.6" />
	<line class="st0" x1="410.1" y1="285.3" x2="410.1" y2="23.6" />
	<line class="st0" x1="450.1" y1="285.3" x2="450.1" y2="23.6" />
	<line class="st0" x1="490.2" y1="285.3" x2="490.2" y2="23.6" />
	<line class="st0" x1="530.3" y1="285.3" x2="530.3" y2="23.6" />
	<line class="st0" x1="570.3" y1="285.3" x2="570.3" y2="23.6" />
	<line class="st0" x1="610.4" y1="285.3" x2="610.4" y2="23.6" />
	<line class="st0" x1="650.4" y1="285.3" x2="650.4" y2="23.6" />
	<line class="st0" x1="691.5" y1="285.3" x2="691.5" y2="23.6" />
</g>
<g id="Layer_1">
	<line class="st1" x1="52.6" y1="285.4" x2="691.9" y2="285.4" />
	<line class="st1" x1="89.6" y1="289.4" x2="89.6" y2="285.7" />
	<line class="st1" x1="129.7" y1="289.4" x2="129.7" y2="285.7" />
	<line class="st1" x1="169.7" y1="289.4" x2="169.7" y2="285.7" />
	<line class="st1" x1="209.8" y1="289.4" x2="209.8" y2="285.7" />
	<line class="st1" x1="249.8" y1="289.4" x2="249.8" y2="285.7" />
	<line class="st1" x1="289.9" y1="289.4" x2="289.9" y2="285.7" />
	<line class="st1" x1="330" y1="289.4" x2="330" y2="285.7" />
	<line class="st1" x1="370" y1="289.4" x2="370" y2="285.7" />
	<line class="st1" x1="410.1" y1="289.4" x2="410.1" y2="285.7" />
	<line class="st1" x1="450.1" y1="289.4" x2="450.1" y2="285.7" />
	<line class="st1" x1="490.1" y1="289.4" x2="490.1" y2="285.7" />
	<line class="st1" x1="530.2" y1="289.4" x2="530.2" y2="285.7" />
	<line class="st1" x1="570.4" y1="289.4" x2="570.4" y2="285.7" />
	<line class="st1" x1="610.4" y1="289.4" x2="610.4" y2="285.7" />
	<line class="st1" x1="650.4" y1="289.4" x2="650.4" y2="285.7" />
	<line class="st1" x1="691.4" y1="289.4" x2="691.4" y2="285.7" />
	<g>
		<g>
			<path class="st2" d="M44.2,285.6c0,2.1-0.8,3.3-2.2,3.3c-1.2,0-2.1-1.1-2.1-3.2c0-2.1,0.9-3.3,2.2-3.3     C43.5,282.5,44.2,283.6,44.2,285.6z M40.8,285.7c0,1.6,0.5,2.6,1.3,2.6c0.9,0,1.3-1,1.3-2.6c0-1.5-0.4-2.6-1.3-2.6     C41.4,283.1,40.8,284,40.8,285.7z" />
		</g>
		<g>
			<path class="st2" d="M43.8,239.6h-2.4l-0.2,1.6c0.1,0,0.3,0,0.5,0c0.5,0,1,0.1,1.4,0.3c0.5,0.3,0.9,0.8,0.9,1.6     c0,1.2-1,2.1-2.3,2.1c-0.7,0-1.3-0.2-1.6-0.4l0.2-0.6c0.3,0.2,0.8,0.3,1.3,0.3c0.8,0,1.5-0.5,1.5-1.4c0-0.8-0.5-1.4-1.8-1.4     c-0.4,0-0.6,0-0.9,0.1l0.4-3h3V239.6z" />
		</g>
		<g>
			<path class="st2" d="M36.9,195.9L36.9,195.9l-1.1,0.6l-0.2-0.6l1.4-0.7h0.7v6.3h-0.8V195.9z" />
			<path class="st2" d="M44.2,198.2c0,2.1-0.8,3.3-2.2,3.3c-1.2,0-2.1-1.1-2.1-3.2c0-2.1,0.9-3.3,2.2-3.3     C43.5,195,44.2,196.2,44.2,198.2z M40.8,198.3c0,1.6,0.5,2.6,1.3,2.6c0.9,0,1.3-1,1.3-2.6c0-1.5-0.4-2.6-1.3-2.6     C41.4,195.7,40.8,196.6,40.8,198.3z" />
		</g>
		<g>
			<path class="st2" d="M36.9,152.2L36.9,152.2l-1.1,0.6l-0.2-0.6l1.4-0.7h0.7v6.3h-0.8V152.2z" />
			<path class="st2" d="M43.8,152.1h-2.4l-0.2,1.6c0.1,0,0.3,0,0.5,0c0.5,0,1,0.1,1.4,0.3c0.5,0.3,0.9,0.8,0.9,1.6     c0,1.2-1,2.1-2.3,2.1c-0.7,0-1.3-0.2-1.6-0.4l0.2-0.6c0.3,0.2,0.8,0.3,1.3,0.3c0.8,0,1.5-0.5,1.5-1.4c0-0.8-0.5-1.4-1.8-1.4     c-0.4,0-0.6,0-0.9,0.1l0.4-3h3V152.1z" />
		</g>
		<g>
			<path class="st2" d="M35.1,114v-0.5l0.7-0.6c1.6-1.5,2.3-2.3,2.3-3.3c0-0.6-0.3-1.2-1.2-1.2c-0.6,0-1,0.3-1.3,0.5l-0.3-0.6     c0.4-0.4,1.1-0.6,1.8-0.6c1.4,0,1.9,0.9,1.9,1.8c0,1.2-0.8,2.1-2.2,3.4l-0.5,0.5v0h2.8v0.7H35.1z" />
			<path class="st2" d="M44.2,110.8c0,2.1-0.8,3.3-2.2,3.3c-1.2,0-2.1-1.1-2.1-3.2c0-2.1,0.9-3.3,2.2-3.3     C43.5,107.6,44.2,108.8,44.2,110.8z M40.8,110.9c0,1.6,0.5,2.6,1.3,2.6c0.9,0,1.3-1,1.3-2.6c0-1.5-0.4-2.6-1.3-2.6     C41.4,108.3,40.8,109.2,40.8,110.9z" />
		</g>
		<g>
			<path class="st2" d="M35.1,70.3v-0.5l0.7-0.6c1.6-1.5,2.3-2.3,2.3-3.3c0-0.6-0.3-1.2-1.2-1.2c-0.6,0-1,0.3-1.3,0.5l-0.3-0.6     c0.4-0.4,1.1-0.6,1.8-0.6c1.4,0,1.9,0.9,1.9,1.8c0,1.2-0.8,2.1-2.2,3.4l-0.5,0.5v0h2.8v0.7H35.1z" />
			<path class="st2" d="M43.8,64.7h-2.4l-0.2,1.6c0.1,0,0.3,0,0.5,0c0.5,0,1,0.1,1.4,0.3c0.5,0.3,0.9,0.8,0.9,1.6     c0,1.2-1,2.1-2.3,2.1c-0.7,0-1.3-0.2-1.6-0.4l0.2-0.6c0.3,0.2,0.8,0.3,1.3,0.3c0.8,0,1.5-0.5,1.5-1.4c0-0.8-0.5-1.4-1.8-1.4     c-0.4,0-0.6,0-0.9,0.1l0.4-3h3V64.7z" />
		</g>
		<g>
			<path class="st2" d="M35.3,25.6c0.2,0.2,0.8,0.4,1.4,0.4c1.1,0,1.4-0.7,1.4-1.2c0-0.9-0.8-1.3-1.6-1.3H36v-0.6h0.5     c0.6,0,1.4-0.3,1.4-1.1c0-0.5-0.3-0.9-1.1-0.9c-0.5,0-1,0.2-1.3,0.4l-0.2-0.6c0.3-0.2,1-0.5,1.6-0.5c1.2,0,1.8,0.7,1.8,1.5     c0,0.6-0.4,1.2-1.2,1.5v0c0.8,0.2,1.4,0.7,1.4,1.6c0,1-0.8,1.9-2.3,1.9c-0.7,0-1.3-0.2-1.6-0.4L35.3,25.6z" />
			<path class="st2" d="M44.2,23.4c0,2.1-0.8,3.3-2.2,3.3c-1.2,0-2.1-1.1-2.1-3.2c0-2.1,0.9-3.3,2.2-3.3     C43.5,20.2,44.2,21.4,44.2,23.4z M40.8,23.5c0,1.6,0.5,2.6,1.3,2.6c0.9,0,1.3-1,1.3-2.6c0-1.5-0.4-2.6-1.3-2.6     C41.4,20.8,40.8,21.8,40.8,23.5z" />
		</g>
	</g>
	<line class="st1" x1="53.1" y1="285.4" x2="53.1" y2="23.1" />
	<g>
		<line class="st1" x1="47.7" y1="242.1" x2="53.5" y2="242.1" />
		<line class="st1" x1="47.7" y1="198.4" x2="53.5" y2="198.4" />
		<line class="st1" x1="47.7" y1="154.7" x2="53.5" y2="154.7" />
		<line class="st1" x1="47.7" y1="111" x2="53.5" y2="111" />
		<line class="st1" x1="47.7" y1="67.2" x2="53.5" y2="67.2" />
		<line class="st1" x1="47.7" y1="23.5" x2="53.5" y2="23.5" />
	</g>
	<g>
		<path class="st2" d="M90.7,296.5h-2.4l-0.2,1.6c0.1,0,0.3,0,0.5,0c0.5,0,1,0.1,1.4,0.3c0.5,0.3,0.9,0.8,0.9,1.6    c0,1.2-1,2.1-2.3,2.1c-0.7,0-1.3-0.2-1.6-0.4l0.2-0.6c0.3,0.2,0.8,0.3,1.3,0.3c0.8,0,1.5-0.5,1.5-1.4c0-0.8-0.5-1.4-1.8-1.4    c-0.4,0-0.6,0-0.9,0.1l0.4-3h3V296.5z" />
	</g>
	<g>
		<path class="st2" d="M126.9,296.5L126.9,296.5l-1.1,0.6l-0.2-0.6l1.4-0.7h0.7v6.3h-0.8V296.5z" />
		<path class="st2" d="M134.2,298.8c0,2.1-0.8,3.3-2.2,3.3c-1.2,0-2.1-1.1-2.1-3.2c0-2.1,0.9-3.3,2.2-3.3    C133.4,295.6,134.2,296.8,134.2,298.8z M130.8,298.9c0,1.6,0.5,2.6,1.3,2.6c0.9,0,1.3-1,1.3-2.6c0-1.5-0.4-2.6-1.3-2.6    C131.3,296.3,130.8,297.2,130.8,298.9z" />
	</g>
	<g>
		<path class="st2" d="M167.1,296.5L167.1,296.5l-1.1,0.6l-0.2-0.6l1.4-0.7h0.7v6.3h-0.8V296.5z" />
		<path class="st2" d="M173.9,296.5h-2.4l-0.2,1.6c0.1,0,0.3,0,0.5,0c0.5,0,1,0.1,1.4,0.3c0.5,0.3,0.9,0.8,0.9,1.6    c0,1.2-1,2.1-2.3,2.1c-0.7,0-1.3-0.2-1.6-0.4l0.2-0.6c0.3,0.2,0.8,0.3,1.3,0.3c0.8,0,1.5-0.5,1.5-1.4c0-0.8-0.5-1.4-1.8-1.4    c-0.4,0-0.6,0-0.9,0.1l0.4-3h3V296.5z" />
	</g>
	<g>
		<path class="st2" d="M205.6,302v-0.5l0.7-0.6c1.6-1.5,2.3-2.3,2.3-3.3c0-0.6-0.3-1.2-1.2-1.2c-0.6,0-1,0.3-1.3,0.5l-0.3-0.6    c0.4-0.4,1.1-0.6,1.8-0.6c1.4,0,1.9,0.9,1.9,1.8c0,1.2-0.8,2.1-2.2,3.4l-0.5,0.5v0h2.8v0.7H205.6z" />
		<path class="st2" d="M214.7,298.8c0,2.1-0.8,3.3-2.2,3.3c-1.2,0-2.1-1.1-2.1-3.2c0-2.1,0.9-3.3,2.2-3.3    C213.9,295.6,214.7,296.8,214.7,298.8z M211.3,298.9c0,1.6,0.5,2.6,1.3,2.6c0.9,0,1.3-1,1.3-2.6c0-1.5-0.4-2.6-1.3-2.6    C211.8,296.3,211.3,297.2,211.3,298.9z" />
	</g>
	<g>
		<path class="st2" d="M245.3,302v-0.5l0.7-0.6c1.6-1.5,2.3-2.3,2.3-3.3c0-0.6-0.3-1.2-1.2-1.2c-0.6,0-1,0.3-1.3,0.5l-0.3-0.6    c0.4-0.4,1.1-0.6,1.8-0.6c1.4,0,1.9,0.9,1.9,1.8c0,1.2-0.8,2.1-2.2,3.4l-0.5,0.5v0h2.8v0.7H245.3z" />
		<path class="st2" d="M253.9,296.5h-2.4l-0.2,1.6c0.1,0,0.3,0,0.5,0c0.5,0,1,0.1,1.4,0.3c0.5,0.3,0.9,0.8,0.9,1.6    c0,1.2-1,2.1-2.3,2.1c-0.7,0-1.3-0.2-1.6-0.4l0.2-0.6c0.3,0.2,0.8,0.3,1.3,0.3c0.8,0,1.5-0.5,1.5-1.4c0-0.8-0.5-1.4-1.8-1.4    c-0.4,0-0.6,0-0.9,0.1l0.4-3h3V296.5z" />
	</g>
	<g>
		<path class="st2" d="M285.5,301c0.2,0.2,0.8,0.4,1.4,0.4c1.1,0,1.4-0.7,1.4-1.2c0-0.9-0.8-1.3-1.6-1.3h-0.5v-0.6h0.5    c0.6,0,1.4-0.3,1.4-1.1c0-0.5-0.3-0.9-1.1-0.9c-0.5,0-1,0.2-1.3,0.4l-0.2-0.6c0.3-0.2,1-0.5,1.6-0.5c1.2,0,1.8,0.7,1.8,1.5    c0,0.6-0.4,1.2-1.2,1.5v0c0.8,0.2,1.4,0.7,1.4,1.6c0,1-0.8,1.9-2.3,1.9c-0.7,0-1.3-0.2-1.6-0.4L285.5,301z" />
		<path class="st2" d="M294.4,298.8c0,2.1-0.8,3.3-2.2,3.3c-1.2,0-2.1-1.1-2.1-3.2c0-2.1,0.9-3.3,2.2-3.3    C293.6,295.6,294.4,296.8,294.4,298.8z M291,298.9c0,1.6,0.5,2.6,1.3,2.6c0.9,0,1.3-1,1.3-2.6c0-1.5-0.4-2.6-1.3-2.6    C291.5,296.3,291,297.2,291,298.9z" />
	</g>
	<g>
		<path class="st2" d="M326,301c0.2,0.2,0.8,0.4,1.4,0.4c1.1,0,1.4-0.7,1.4-1.2c0-0.9-0.8-1.3-1.6-1.3h-0.5v-0.6h0.5    c0.6,0,1.4-0.3,1.4-1.1c0-0.5-0.3-0.9-1.1-0.9c-0.5,0-1,0.2-1.3,0.4l-0.2-0.6c0.3-0.2,1-0.5,1.6-0.5c1.2,0,1.8,0.7,1.8,1.5    c0,0.6-0.4,1.2-1.2,1.5v0c0.8,0.2,1.4,0.7,1.4,1.6c0,1-0.8,1.9-2.3,1.9c-0.7,0-1.3-0.2-1.6-0.4L326,301z" />
		<path class="st2" d="M334.5,296.5h-2.4l-0.2,1.6c0.1,0,0.3,0,0.5,0c0.5,0,1,0.1,1.4,0.3c0.5,0.3,0.9,0.8,0.9,1.6    c0,1.2-1,2.1-2.3,2.1c-0.7,0-1.3-0.2-1.6-0.4l0.2-0.6c0.3,0.2,0.8,0.3,1.3,0.3c0.8,0,1.5-0.5,1.5-1.4c0-0.8-0.5-1.4-1.8-1.4    c-0.4,0-0.6,0-0.9,0.1l0.4-3h3V296.5z" />
	</g>
	<g>
		<path class="st2" d="M368.2,302v-1.7h-2.9v-0.6l2.8-4h0.9v3.9h0.9v0.7H369v1.7H368.2z M368.2,299.6v-2.1c0-0.3,0-0.7,0-1h0    c-0.2,0.4-0.3,0.6-0.5,0.9l-1.5,2.1v0H368.2z" />
		<path class="st2" d="M374.7,298.8c0,2.1-0.8,3.3-2.2,3.3c-1.2,0-2.1-1.1-2.1-3.2c0-2.1,0.9-3.3,2.2-3.3    C374,295.6,374.7,296.8,374.7,298.8z M371.3,298.9c0,1.6,0.5,2.6,1.3,2.6c0.9,0,1.3-1,1.3-2.6c0-1.5-0.4-2.6-1.3-2.6    C371.9,296.3,371.3,297.2,371.3,298.9z" />
	</g>
	<g>
		<path class="st2" d="M408.3,302v-1.7h-2.9v-0.6l2.8-4h0.9v3.9h0.9v0.7h-0.9v1.7H408.3z M408.3,299.6v-2.1c0-0.3,0-0.7,0-1h0    c-0.2,0.4-0.3,0.6-0.5,0.9l-1.5,2.1v0H408.3z" />
		<path class="st2" d="M414.3,296.5h-2.4l-0.2,1.6c0.1,0,0.3,0,0.5,0c0.5,0,1,0.1,1.4,0.3c0.5,0.3,0.9,0.8,0.9,1.6    c0,1.2-1,2.1-2.3,2.1c-0.7,0-1.3-0.2-1.6-0.4l0.2-0.6c0.3,0.2,0.8,0.3,1.3,0.3c0.8,0,1.5-0.5,1.5-1.4c0-0.8-0.5-1.4-1.8-1.4    c-0.4,0-0.6,0-0.9,0.1l0.4-3h3V296.5z" />
	</g>
	<g>
		<path class="st2" d="M448.9,296.5h-2.4l-0.2,1.6c0.1,0,0.3,0,0.5,0c0.5,0,1,0.1,1.4,0.3c0.5,0.3,0.9,0.8,0.9,1.6    c0,1.2-1,2.1-2.3,2.1c-0.7,0-1.3-0.2-1.6-0.4l0.2-0.6c0.3,0.2,0.8,0.3,1.3,0.3c0.8,0,1.5-0.5,1.5-1.4c0-0.8-0.5-1.4-1.8-1.4    c-0.4,0-0.6,0-0.9,0.1l0.4-3h3V296.5z" />
		<path class="st2" d="M454.3,298.8c0,2.1-0.8,3.3-2.2,3.3c-1.2,0-2.1-1.1-2.1-3.2c0-2.1,0.9-3.3,2.2-3.3    C453.5,295.6,454.3,296.8,454.3,298.8z M450.9,298.9c0,1.6,0.5,2.6,1.3,2.6c0.9,0,1.3-1,1.3-2.6c0-1.5-0.4-2.6-1.3-2.6    C451.4,296.3,450.9,297.2,450.9,298.9z" />
	</g>
	<g>
		<path class="st2" d="M489.4,296.5H487l-0.2,1.6c0.1,0,0.3,0,0.5,0c0.5,0,1,0.1,1.4,0.3c0.5,0.3,0.9,0.8,0.9,1.6    c0,1.2-1,2.1-2.3,2.1c-0.7,0-1.3-0.2-1.6-0.4l0.2-0.6c0.3,0.2,0.8,0.3,1.3,0.3c0.8,0,1.5-0.5,1.5-1.4c0-0.8-0.5-1.4-1.8-1.4    c-0.4,0-0.6,0-0.9,0.1l0.4-3h3V296.5z" />
		<path class="st2" d="M494.4,296.5H492l-0.2,1.6c0.1,0,0.3,0,0.5,0c0.5,0,1,0.1,1.4,0.3c0.5,0.3,0.9,0.8,0.9,1.6    c0,1.2-1,2.1-2.3,2.1c-0.7,0-1.3-0.2-1.6-0.4l0.2-0.6c0.3,0.2,0.8,0.3,1.3,0.3c0.8,0,1.5-0.5,1.5-1.4c0-0.8-0.5-1.4-1.8-1.4    c-0.4,0-0.6,0-0.9,0.1l0.4-3h3V296.5z" />
	</g>
	<g>
		<path class="st2" d="M529.4,296.3c-0.2,0-0.4,0-0.6,0c-1.3,0.2-2,1.2-2.2,2.2h0c0.3-0.4,0.8-0.7,1.5-0.7c1.1,0,1.9,0.8,1.9,2    c0,1.1-0.8,2.2-2.1,2.2c-1.3,0-2.2-1-2.2-2.7c0-1.2,0.4-2.2,1.1-2.8c0.5-0.5,1.2-0.8,2-0.9c0.3,0,0.5,0,0.6,0V296.3z M529.2,300    c0-0.9-0.5-1.4-1.3-1.4c-0.5,0-1,0.3-1.2,0.8c-0.1,0.1-0.1,0.2-0.1,0.4c0,1,0.5,1.8,1.4,1.8C528.7,301.5,529.2,300.9,529.2,300z" />
		<path class="st2" d="M535,298.8c0,2.1-0.8,3.3-2.2,3.3c-1.2,0-2.1-1.1-2.1-3.2c0-2.1,0.9-3.3,2.2-3.3    C534.2,295.6,535,296.8,535,298.8z M531.6,298.9c0,1.6,0.5,2.6,1.3,2.6c0.9,0,1.3-1,1.3-2.6c0-1.5-0.4-2.6-1.3-2.6    C532.1,296.3,531.6,297.2,531.6,298.9z" />
	</g>
	<g>
		<path class="st2" d="M569.3,296.3c-0.2,0-0.4,0-0.6,0c-1.3,0.2-2,1.2-2.2,2.2h0c0.3-0.4,0.8-0.7,1.5-0.7c1.1,0,1.9,0.8,1.9,2    c0,1.1-0.8,2.2-2.1,2.2c-1.3,0-2.2-1-2.2-2.7c0-1.2,0.4-2.2,1.1-2.8c0.5-0.5,1.2-0.8,2-0.9c0.3,0,0.5,0,0.6,0V296.3z M569,300    c0-0.9-0.5-1.4-1.3-1.4c-0.5,0-1,0.3-1.2,0.8c-0.1,0.1-0.1,0.2-0.1,0.4c0,1,0.5,1.8,1.4,1.8C568.5,301.5,569,300.9,569,300z" />
		<path class="st2" d="M574.4,296.5H572l-0.2,1.6c0.1,0,0.3,0,0.5,0c0.5,0,1,0.1,1.4,0.3c0.5,0.3,0.9,0.8,0.9,1.6    c0,1.2-1,2.1-2.3,2.1c-0.7,0-1.3-0.2-1.6-0.4l0.2-0.6c0.3,0.2,0.8,0.3,1.3,0.3c0.8,0,1.5-0.5,1.5-1.4c0-0.8-0.5-1.4-1.8-1.4    c-0.4,0-0.6,0-0.9,0.1l0.4-3h3V296.5z" />
	</g>
	<g>
		<path class="st2" d="M610.3,295.7v0.6l-2.7,5.7h-0.9l2.7-5.5v0h-3.1v-0.7H610.3z" />
		<path class="st2" d="M615.3,298.8c0,2.1-0.8,3.3-2.2,3.3c-1.2,0-2.1-1.1-2.1-3.2c0-2.1,0.9-3.3,2.2-3.3    C614.6,295.6,615.3,296.8,615.3,298.8z M611.9,298.9c0,1.6,0.5,2.6,1.3,2.6c0.9,0,1.3-1,1.3-2.6c0-1.5-0.4-2.6-1.3-2.6    C612.4,296.3,611.9,297.2,611.9,298.9z" />
	</g>
	<g>
		<path class="st2" d="M649.6,295.7v0.6l-2.7,5.7H646l2.7-5.5v0h-3.1v-0.7H649.6z" />
		<path class="st2" d="M654.3,296.5h-2.4l-0.2,1.6c0.1,0,0.3,0,0.5,0c0.5,0,1,0.1,1.4,0.3c0.5,0.3,0.9,0.8,0.9,1.6    c0,1.2-1,2.1-2.3,2.1c-0.7,0-1.3-0.2-1.6-0.4l0.2-0.6c0.3,0.2,0.8,0.3,1.3,0.3c0.8,0,1.5-0.5,1.5-1.4c0-0.8-0.5-1.4-1.8-1.4    c-0.4,0-0.6,0-0.9,0.1l0.4-3h3V296.5z" />
	</g>
	<g>
		<path class="st2" d="M686.8,300.4c0-0.8,0.5-1.4,1.2-1.7l0,0c-0.7-0.3-1-0.9-1-1.4c0-1,0.8-1.7,1.9-1.7c1.2,0,1.8,0.8,1.8,1.5    c0,0.5-0.3,1.1-1,1.5v0c0.8,0.3,1.3,0.9,1.3,1.6c0,1.1-0.9,1.8-2.1,1.8C687.6,302.1,686.8,301.3,686.8,300.4z M690.2,300.4    c0-0.8-0.5-1.1-1.4-1.4c-0.7,0.2-1.1,0.7-1.1,1.3c0,0.6,0.5,1.2,1.3,1.2C689.7,301.5,690.2,301,690.2,300.4z M687.8,297.2    c0,0.6,0.5,1,1.2,1.2c0.5-0.2,1-0.6,1-1.1c0-0.5-0.3-1-1.1-1C688.2,296.2,687.8,296.7,687.8,297.2z" />
		<path class="st2" d="M696,298.8c0,2.1-0.8,3.3-2.2,3.3c-1.2,0-2.1-1.1-2.1-3.2c0-2.1,0.9-3.3,2.2-3.3    C695.2,295.6,696,296.8,696,298.8z M692.6,298.9c0,1.6,0.5,2.6,1.3,2.6c0.9,0,1.3-1,1.3-2.6c0-1.5-0.4-2.6-1.3-2.6    C693.1,296.3,692.6,297.2,692.6,298.9z" />
	</g>
</g>
<g id="Layer_3">
	<circle class="st3" cx="141.9" cy="223.5" r="21.1" />
	<circle class="st4" cx="188.6" cy="186.1" r="33.9" />
	<circle class="st4" cx="284.9" cy="171.8" r="24.1" />
	<circle class="st4" cx="431" cy="115.7" r="36.5" />
	<circle class="st3" cx="541.4" cy="160.7" r="25.4" />
	<circle class="st4" cx="591.3" cy="106.8" r="28.5" />
	<circle class="st4" cx="630.5" cy="70.2" r="24.1" />
	<circle class="st4" cx="520.1" cy="106.8" r="16.7" />
	<circle class="st3" cx="342.8" cy="152.2" r="33.9" />
	<circle class="st4" cx="237.6" cy="147.8" r="12.9" />
	<circle class="st4" cx="222.5" cy="208.3" r="15.1" />
	<circle class="st4" cx="90.6" cy="260.9" r="8" />
	<circle class="st4" cx="129.8" cy="252.9" r="16" />
	<circle class="st4" cx="178.8" cy="228.8" r="12.7" />
	<circle class="st3" cx="237.6" cy="171.8" r="21.4" />
	<circle class="st4" cx="299.1" cy="115.7" r="12.5" />
	<circle class="st4" cx="348.1" cy="78.3" r="11.8" />
	<circle class="st4" cx="129.8" cy="123.8" r="11.8" />
	<circle class="st3" cx="414" cy="228.8" r="13" />
	<circle class="st4" cx="474.9" cy="152.2" r="28.5" />
	<circle class="st4" cx="389.1" cy="152.2" r="8.5" />
	<circle class="st4" cx="394.4" cy="90.1" r="13.1" />
	<circle class="st3" cx="467.5" cy="94.3" r="12.5" />
	<circle class="st4" cx="562.8" cy="163.8" r="16.9" />
	<circle class="st4" cx="573.5" cy="79.2" r="18.7" />
	<circle class="st3" cx="606.5" cy="118.4" r="9.8" />
	<circle class="st3" cx="649.1" cy="54.9" r="11.7" />
	<circle class="st4" cx="365" cy="208.3" r="11.6" />
	<circle class="st4" cx="320.5" cy="202.3" r="6.3" />
	<circle class="st3" cx="178.8" cy="118.4" r="5.4" />
	<circle class="st4" cx="611.8" cy="208.3" r="7.5" />
	<circle class="st3" cx="280.4" cy="90.1" r="7.8" />
	<circle class="st4" cx="363.9" cy="171.8" r="17.5" />
	<g>
		<line class="st5" x1="90.6" y1="257.8" x2="90.6" y2="264" />
		<line class="st5" x1="87.5" y1="260.9" x2="93.8" y2="260.9" />
	</g>
	<g>
		<line class="st5" x1="129.8" y1="249.8" x2="129.8" y2="256" />
		<line class="st5" x1="126.7" y1="252.9" x2="133" y2="252.9" />
	</g>
	<g>
		<line class="st5" x1="141.9" y1="220.4" x2="141.9" y2="226.6" />
		<line class="st5" x1="138.7" y1="223.5" x2="145" y2="223.5" />
	</g>
	<g>
		<line class="st5" x1="178.8" y1="225.7" x2="178.8" y2="231.9" />
		<line class="st5" x1="175.7" y1="228.8" x2="181.9" y2="228.8" />
	</g>
	<g>
		<line class="st5" x1="188.6" y1="182.9" x2="188.6" y2="189.2" />
		<line class="st5" x1="185.5" y1="186.1" x2="191.8" y2="186.1" />
	</g>
	<g>
		<line class="st5" x1="237.6" y1="168.7" x2="237.6" y2="174.9" />
		<line class="st5" x1="234.5" y1="171.8" x2="240.8" y2="171.8" />
	</g>
	<g>
		<line class="st5" x1="284.9" y1="168.7" x2="284.9" y2="174.9" />
		<line class="st5" x1="281.7" y1="171.8" x2="288" y2="171.8" />
	</g>
	<g>
		<line class="st5" x1="299.1" y1="112.6" x2="299.1" y2="118.8" />
		<line class="st5" x1="296" y1="115.7" x2="302.2" y2="115.7" />
	</g>
	<g>
		<line class="st5" x1="342.8" y1="149.1" x2="342.8" y2="155.3" />
		<line class="st5" x1="339.7" y1="152.2" x2="345.9" y2="152.2" />
	</g>
	<g>
		<line class="st5" x1="364" y1="168.7" x2="364" y2="174.9" />
		<line class="st5" x1="360.9" y1="171.8" x2="367.1" y2="171.8" />
	</g>
	<g>
		<line class="st5" x1="365" y1="205.2" x2="365" y2="211.5" />
		<line class="st5" x1="361.9" y1="208.3" x2="368.2" y2="208.3" />
	</g>
	<g>
		<line class="st5" x1="414" y1="225.7" x2="414" y2="231.9" />
		<line class="st5" x1="410.9" y1="228.8" x2="417.2" y2="228.8" />
	</g>
	<g>
		<line class="st5" x1="394.4" y1="87" x2="394.4" y2="93.2" />
		<line class="st5" x1="391.3" y1="90.1" x2="397.6" y2="90.1" />
	</g>
	<g>
		<line class="st5" x1="431" y1="112.6" x2="431" y2="118.8" />
		<line class="st5" x1="427.9" y1="115.7" x2="434.1" y2="115.7" />
	</g>
	<g>
		<line class="st5" x1="474.9" y1="149.1" x2="474.9" y2="155.3" />
		<line class="st5" x1="471.8" y1="152.2" x2="478" y2="152.2" />
	</g>
	<g>
		<line class="st5" x1="541.4" y1="157.8" x2="541.4" y2="164" />
		<line class="st5" x1="538.3" y1="160.9" x2="544.6" y2="160.9" />
	</g>
	<g>
		<line class="st5" x1="591.3" y1="103.7" x2="591.3" y2="109.9" />
		<line class="st5" x1="588.2" y1="106.8" x2="594.5" y2="106.8" />
	</g>
	<g>
		<line class="st5" x1="630.5" y1="67.1" x2="630.5" y2="73.4" />
		<line class="st5" x1="627.4" y1="70.2" x2="633.7" y2="70.2" />
	</g>
	<g>
		<line class="st5" x1="649.1" y1="51.8" x2="649.1" y2="58.1" />
		<line class="st5" x1="646" y1="54.9" x2="652.2" y2="54.9" />
	</g>
	<g>
		<line class="st5" x1="606.5" y1="115.7" x2="606.5" y2="121.9" />
		<line class="st5" x1="603.4" y1="118.8" x2="609.6" y2="118.8" />
	</g>
	<g>
		<line class="st5" x1="573.5" y1="76" x2="573.5" y2="82.3" />
		<line class="st5" x1="570.4" y1="79.2" x2="576.6" y2="79.2" />
	</g>
	<g>
		<line class="st5" x1="562.8" y1="160.9" x2="562.8" y2="167.1" />
		<line class="st5" x1="559.7" y1="164" x2="565.9" y2="164" />
	</g>
	<g>
		<line class="st5" x1="520.1" y1="103.7" x2="520.1" y2="109.9" />
		<line class="st5" x1="516.9" y1="106.8" x2="523.2" y2="106.8" />
	</g>
	<g>
		<line class="st5" x1="467.5" y1="91.2" x2="467.5" y2="97.4" />
		<line class="st5" x1="464.4" y1="94.3" x2="470.6" y2="94.3" />
	</g>
	<g>
		<line class="st5" x1="348.1" y1="75.2" x2="348.1" y2="81.4" />
		<line class="st5" x1="345" y1="78.3" x2="351.2" y2="78.3" />
	</g>
	<g>
		<line class="st5" x1="237.6" y1="144.6" x2="237.6" y2="150.9" />
		<line class="st5" x1="234.5" y1="147.8" x2="240.8" y2="147.8" />
	</g>
	<g>
		<line class="st5" x1="129.8" y1="120.6" x2="129.8" y2="126.9" />
		<line class="st5" x1="126.7" y1="123.8" x2="133" y2="123.8" />
	</g>
	<g>
		<line class="st5" x1="178.8" y1="116.6" x2="178.8" y2="120.1" />
		<line class="st5" x1="177" y1="118.4" x2="180.6" y2="118.4" />
	</g>
	<g>
		<line class="st5" x1="280.4" y1="88.3" x2="280.4" y2="91.9" />
		<line class="st5" x1="278.6" y1="90.1" x2="282.2" y2="90.1" />
	</g>
	<g>
		<line class="st5" x1="320.5" y1="200.6" x2="320.5" y2="204.1" />
		<line class="st5" x1="318.7" y1="202.3" x2="322.3" y2="202.3" />
	</g>
	<g>
		<line class="st5" x1="389.1" y1="150.4" x2="389.1" y2="154" />
		<line class="st5" x1="387.3" y1="152.2" x2="390.9" y2="152.2" />
	</g>
	<circle class="st4" cx="551.6" cy="215.8" r="13.3" />
	<g>
		<line class="st5" x1="551.6" y1="214.1" x2="551.6" y2="217.6" />
		<line class="st5" x1="549.8" y1="215.8" x2="553.3" y2="215.8" />
	</g>
	<g>
		<line class="st5" x1="611.8" y1="206.6" x2="611.8" y2="210.1" />
		<line class="st5" x1="610" y1="208.3" x2="613.6" y2="208.3" />
	</g>
	<g>
		<line class="st5" x1="222.5" y1="205.2" x2="222.5" y2="211.5" />
		<line class="st5" x1="219.4" y1="208.3" x2="225.6" y2="208.3" />
	</g>
	<g>
	</g>
	<g>
	</g>
	<g>
	</g>
	<g>
	</g>
	<g>
	</g>
	<g>
	</g>
	<g>
	</g>
	<g>
	</g>
	<g>
	</g>
	<g>
	</g>
</g>
</svg>