<svg width="900" height="340" viewBox="-70,-30,880,340" style="max-width: 100%; height: auto; font: 10px sans-serif;" xmlns="http://www.w3.org/2000/svg">

<style type="text/css">.st0 {fill: hsl(0, 0%, 54%);;}
	.st1 {fill: hsl(227, 76%, 75%);stroke:#FFFFFF;stroke-width:0.5;;}
	.st2 {fill: hsl(206, 85%, 73%);stroke:#FFFFFF;stroke-width:0.5;;}
	.st3 {fill: hsl(231, 52%, 81%);stroke:#FFFFFF;stroke-width:0.5;;}
	.st4 {fill: hsl(212, 88%, 67%);stroke:#FFFFFF;stroke-width:0.5;;}
	.st5 {fill: hsl(220, 80%, 66%);stroke:#FFFFFF;stroke-width:0.5;;}
	.st6 {fill: hsl(227, 68%, 67%);stroke:#FFFFFF;stroke-width:0.5;;}
	.st7 {fill: hsl(252, 26%, 80%);stroke:#FFFFFF;stroke-width:0.5;;}
	.st8 {fill: hsl(211, 79%, 73%);stroke:#FFFFFF;stroke-width:0.5;;}
	.st9 {fill: hsl(305, 7%, 65%);stroke:#FFFFFF;stroke-width:0.5;;}
	.st10 {fill: hsl(16, 18%, 71%);stroke:#FFFFFF;stroke-width:0.5;;}
	.st11 {fill: hsl(33, 50%, 66%);stroke:#FFFFFF;stroke-width:0.5;;}
	.st12 {fill: hsl(36, 67%, 65%);stroke:#FFFFFF;stroke-width:0.5;;}
	.st13 {fill: hsl(30, 37%, 71%);stroke:#FFFFFF;stroke-width:0.5;;}
	.st14 {fill: hsl(37, 93%, 63%);stroke:#FFFFFF;stroke-width:0.5;;}
	.st15 {fill: hsl(38, 90%, 59%);stroke:#FFFFFF;stroke-width:0.5;;}</style>
<g id="Layer_1">
</g>
<g id="Layer_2">
	<g>
		<path class="st0" d="M24.9,19.7c-0.4,0.8-0.7,1.2-1.2,1.8c-0.1-0.3-0.3-0.5-0.5-0.7c0.6-0.6,1.1-1.4,1.5-2.4    c0.1-0.3,0.2-0.6,0.3-0.9l0.9,0.2c-0.1,0.3-0.1,0.3-0.3,0.6c-0.1,0.2-0.2,0.5-0.3,0.6h1.3c0.6,0,1,0,1.2-0.1v0.9    c-0.3-0.1-0.7-0.1-1.2-0.1H24.9z M25,21.9c-0.3,0-0.6,0-0.9,0.1v-0.8c0.2,0,0.5,0.1,0.9,0.1h1.9c0.4,0,0.6,0,0.9-0.1V22    c-0.3,0-0.5-0.1-0.9-0.1h-0.7v1.9h0.7c0.5,0,0.8,0,1.2-0.1v0.9c-0.4-0.1-0.7-0.1-1.2-0.1h-0.7v3c0.8-0.4,1.1-0.6,1.7-1l0,0.8    c-0.6,0.4-0.7,0.4-1.3,0.7c-0.7,0.3-0.8,0.4-1.2,0.6l-0.3-0.8c0.2-0.2,0.3-0.4,0.3-0.6v-2.8h-0.7c-0.5,0-0.9,0-1.2,0.1v-0.9    c0.3,0,0.7,0.1,1.2,0.1h0.7v-1.9H25z M31,27.7c-0.9,0.7-1.7,1.1-2.9,1.5c0-0.1-0.1-0.1-0.1-0.1c-0.1-0.2-0.1-0.2-0.4-0.5    c1.4-0.4,1.9-0.7,2.7-1.4L31,27.7z M34.2,26.2c0.5,0,0.7,0,1-0.1V27c-0.4-0.1-0.7-0.1-1.3-0.1h-4.6c-0.5,0-0.9,0-1.2,0.1v-0.8    c0.3,0,0.4,0.1,0.8,0.1v-4.9c0-0.4,0-0.7-0.1-1c0.3,0,0.6,0,1,0h1c0.1-0.7,0.1-0.9,0.1-1h-1.6c-0.5,0-0.9,0-1.3,0.1v-0.8    c0.3,0.1,0.7,0.1,1.3,0.1h1.6c0-0.4,0-0.9,0-1c0-0.1,0-0.1,0-0.2l0.9,0.1C32,17.8,32,17.9,32,18.3c0,0.1,0,0.2,0,0.3h1.8    c0.6,0,0.9,0,1.2-0.1v0.8c-0.4-0.1-0.7-0.1-1.2-0.1h-1.9c0,0.1-0.1,0.4-0.1,1h1.5c0.5,0,0.8,0,1,0c0,0.3-0.1,0.6-0.1,1V26.2z     M29.7,21.8h3.8v-0.9h-3.8V21.8z M29.7,23.2h3.8v-0.9h-3.8V23.2z M33.5,23.8h-3.8v0.9h3.8V23.8z M33.5,25.3h-3.8v0.9h3.8V25.3z     M34.7,29.2c-0.8-0.5-1.8-1.1-2.6-1.5l0.5-0.5c1.1,0.5,1.8,0.9,2.6,1.4L34.7,29.2z" />
		<path class="st0" d="M44,28.2c-0.1-0.5-0.2-0.9-0.4-1.3l-0.7-1.7h-4.5l-0.7,1.7c-0.2,0.5-0.3,0.9-0.4,1.3h-1.4    c0.3-0.4,0.4-0.6,0.7-1.5l2.9-7.2c0.2-0.6,0.4-0.9,0.4-1.2h1.3c0.1,0.2,0.1,0.4,0.4,1.2l2.9,7.2c0.3,0.8,0.5,1.2,0.7,1.5H44z     M40.9,20c0-0.1,0-0.1-0.3-0.8c-0.1,0.2-0.1,0.3-0.1,0.4c-0.1,0.2-0.1,0.4-0.1,0.4l-1.7,4.3h3.9L40.9,20z" />
	</g>
	<g>
		<path class="st0" d="M25.3,42.7c-0.4,0.8-0.8,1.2-1.3,1.8c-0.1-0.3-0.3-0.5-0.5-0.7c0.6-0.6,1.1-1.4,1.6-2.4    c0.1-0.3,0.2-0.6,0.3-0.9l0.9,0.2c-0.1,0.3-0.1,0.3-0.3,0.6c-0.1,0.2-0.2,0.5-0.3,0.6H27c0.6,0,1,0,1.3-0.1v0.9    c-0.3-0.1-0.7-0.1-1.3-0.1H25.3z M25.4,44.9c-0.3,0-0.6,0-0.9,0.1v-0.8c0.2,0,0.5,0.1,0.9,0.1h1.9c0.4,0,0.6,0,0.9-0.1V45    c-0.3,0-0.5-0.1-0.9-0.1h-0.7v1.9h0.7c0.5,0,0.8,0,1.2-0.1v0.9c-0.4-0.1-0.7-0.1-1.2-0.1h-0.7v3c0.9-0.4,1.1-0.6,1.8-1l0,0.8    c-0.6,0.4-0.8,0.4-1.3,0.7c-0.7,0.3-0.8,0.4-1.2,0.6l-0.3-0.8c0.3-0.2,0.3-0.4,0.3-0.6v-2.8h-0.7c-0.5,0-0.9,0-1.3,0.1v-0.9    c0.3,0,0.7,0.1,1.3,0.1h0.7v-1.9H25.4z M31.6,50.7c-1,0.7-1.8,1.1-3,1.5c0-0.1-0.1-0.1-0.1-0.1c-0.1-0.2-0.1-0.2-0.4-0.5    c1.4-0.4,2-0.7,2.8-1.4L31.6,50.7z M34.9,49.2c0.5,0,0.7,0,1.1-0.1V50c-0.4-0.1-0.8-0.1-1.3-0.1H30c-0.5,0-0.9,0-1.3,0.1v-0.8    c0.3,0,0.4,0.1,0.8,0.1v-4.9c0-0.4,0-0.7-0.1-1c0.3,0,0.6,0,1.1,0h1c0.1-0.7,0.1-0.9,0.1-1h-1.6c-0.5,0-0.9,0-1.3,0.1v-0.8    c0.3,0.1,0.7,0.1,1.3,0.1h1.7c0-0.4,0-0.9,0-1c0-0.1,0-0.1,0-0.2l0.9,0.1c-0.1,0.4-0.1,0.5-0.1,0.9c0,0.1,0,0.2,0,0.3h1.9    c0.6,0,0.9,0,1.3-0.1v0.8c-0.4-0.1-0.7-0.1-1.3-0.1h-2c0,0.1-0.1,0.4-0.1,1h1.5c0.5,0,0.8,0,1.1,0c0,0.3-0.1,0.6-0.1,1V49.2z     M30.3,44.8h3.9v-0.9h-3.9V44.8z M30.3,46.2h3.9v-0.9h-3.9V46.2z M34.2,46.8h-3.9v0.9h3.9V46.8z M34.2,48.3h-3.9v0.9h3.9V48.3z     M35.4,52.2c-0.8-0.5-1.9-1.1-2.7-1.5l0.5-0.5c1.2,0.5,1.8,0.9,2.7,1.4L35.4,52.2z" />
		<path class="st0" d="M39,51.2c-0.6,0-1,0-1.5,0c0.1-0.5,0.1-0.9,0.1-1.6v-7c0-0.6,0-0.9-0.1-1.4c0.4,0,0.7,0,1.5,0h2.8    c1.9,0,3,0.9,3,2.4c0,0.8-0.2,1.3-0.7,1.7c-0.3,0.2-0.5,0.4-1.1,0.5c0.6,0.1,0.9,0.2,1.3,0.5c0.5,0.5,0.8,1.1,0.8,2    c0,1.7-1.2,2.7-3.2,2.7H39z M41.8,45.5c1.2,0,2-0.6,2-1.7c0-1.1-0.7-1.6-2-1.6h-3.1v3.4H41.8z M38.7,50.3h3.2    c1.5,0,2.2-0.7,2.2-1.9c0-1.3-0.8-2-2.3-2h-3.2V50.3z" />
	</g>
	<g>
		<path class="st0" d="M24.7,65.2c-0.4,0.8-0.8,1.2-1.3,1.8c-0.1-0.3-0.3-0.5-0.5-0.7c0.6-0.6,1.1-1.4,1.6-2.4    c0.1-0.3,0.2-0.6,0.3-0.9l0.9,0.2c-0.1,0.3-0.1,0.3-0.3,0.6c-0.1,0.2-0.2,0.5-0.3,0.6h1.3c0.6,0,1,0,1.3-0.1v0.9    c-0.3-0.1-0.7-0.1-1.3-0.1H24.7z M24.8,67.4c-0.3,0-0.6,0-0.9,0.1v-0.8c0.2,0,0.5,0.1,0.9,0.1h1.9c0.4,0,0.6,0,0.9-0.1v0.8    c-0.3,0-0.5-0.1-0.9-0.1H26v1.9h0.7c0.5,0,0.8,0,1.2-0.1v0.9C27.6,70,27.2,70,26.7,70H26v3c0.9-0.4,1.1-0.6,1.8-1l0,0.8    c-0.6,0.4-0.8,0.4-1.3,0.7c-0.7,0.3-0.8,0.4-1.2,0.6l-0.3-0.8c0.3-0.2,0.3-0.4,0.3-0.6V70h-0.7c-0.5,0-0.9,0-1.3,0.1v-0.9    c0.3,0,0.7,0.1,1.3,0.1h0.7v-1.9H24.8z M31,73.2c-1,0.7-1.8,1.1-3,1.5c0-0.1-0.1-0.1-0.1-0.1c-0.1-0.2-0.1-0.2-0.4-0.5    c1.4-0.4,2-0.7,2.8-1.4L31,73.2z M34.3,71.7c0.5,0,0.7,0,1.1-0.1v0.8c-0.4-0.1-0.8-0.1-1.3-0.1h-4.7c-0.5,0-0.9,0-1.3,0.1v-0.8    c0.3,0,0.4,0.1,0.8,0.1v-4.9c0-0.4,0-0.7-0.1-1c0.3,0,0.6,0,1.1,0h1c0.1-0.7,0.1-0.9,0.1-1h-1.6c-0.5,0-0.9,0-1.3,0.1V64    c0.3,0.1,0.7,0.1,1.3,0.1h1.7c0-0.4,0-0.9,0-1c0-0.1,0-0.1,0-0.2l0.9,0.1c-0.1,0.4-0.1,0.5-0.1,0.9c0,0.1,0,0.2,0,0.3h1.9    c0.6,0,0.9,0,1.3-0.1v0.8c-0.4-0.1-0.7-0.1-1.3-0.1h-2c0,0.1-0.1,0.4-0.1,1h1.5c0.5,0,0.8,0,1.1,0c0,0.3-0.1,0.6-0.1,1V71.7z     M29.7,67.3h3.9v-0.9h-3.9V67.3z M29.7,68.7h3.9v-0.9h-3.9V68.7z M33.6,69.3h-3.9v0.9h3.9V69.3z M33.6,70.8h-3.9v0.9h3.9V70.8z     M34.8,74.7c-0.8-0.5-1.9-1.1-2.7-1.5l0.5-0.5c1.2,0.5,1.8,0.9,2.7,1.4L34.8,74.7z" />
		<path class="st0" d="M44.1,66.6c-0.2-0.6-0.3-0.8-0.6-1.1c-0.5-0.6-1.3-0.9-2.3-0.9c-2.2,0-3.5,1.6-3.5,4.2c0,2.6,1.4,4.2,3.5,4.2    c1.1,0,2-0.4,2.5-1.1c0.3-0.4,0.4-0.7,0.5-1.3l1.1,0.3c-0.2,0.8-0.4,1.1-0.7,1.5c-0.7,1-2,1.5-3.5,1.5c-1.3,0-2.4-0.4-3.1-1.1    c-0.9-0.9-1.4-2.3-1.4-4c0-1.7,0.5-3.1,1.5-4c0.8-0.7,1.8-1.1,3.1-1.1c1.3,0,2.3,0.4,3,1.1c0.5,0.4,0.7,0.8,1,1.6L44.1,66.6z" />
	</g>
	<g>
		<path class="st0" d="M24.7,88.2c-0.4,0.8-0.8,1.2-1.3,1.8c-0.1-0.3-0.3-0.5-0.5-0.7c0.6-0.6,1.1-1.4,1.6-2.4    c0.1-0.3,0.2-0.6,0.3-0.9l0.9,0.2c-0.1,0.3-0.1,0.3-0.3,0.6c-0.1,0.2-0.2,0.5-0.3,0.6h1.3c0.6,0,1,0,1.3-0.1v0.9    c-0.3-0.1-0.7-0.1-1.3-0.1H24.7z M24.8,90.4c-0.3,0-0.6,0-0.9,0.1v-0.8c0.2,0,0.5,0.1,0.9,0.1h1.9c0.4,0,0.6,0,0.9-0.1v0.8    c-0.3,0-0.5-0.1-0.9-0.1H26v1.9h0.7c0.5,0,0.8,0,1.2-0.1v0.9C27.5,93,27.2,93,26.7,93H26v3c0.9-0.4,1.1-0.6,1.8-1l0,0.8    c-0.6,0.4-0.8,0.4-1.3,0.7c-0.7,0.3-0.8,0.4-1.2,0.6l-0.3-0.8c0.3-0.2,0.3-0.4,0.3-0.6V93h-0.7c-0.5,0-0.9,0-1.3,0.1v-0.9    c0.3,0,0.7,0.1,1.3,0.1h0.7v-1.9H24.8z M31,96.2c-1,0.7-1.8,1.1-3,1.5c0-0.1-0.1-0.1-0.1-0.1c-0.1-0.2-0.1-0.2-0.4-0.5    c1.4-0.4,2-0.7,2.8-1.4L31,96.2z M34.3,94.7c0.5,0,0.7,0,1.1-0.1v0.8c-0.4-0.1-0.8-0.1-1.3-0.1h-4.7c-0.5,0-0.9,0-1.3,0.1v-0.8    c0.3,0,0.4,0.1,0.8,0.1v-4.9c0-0.4,0-0.7-0.1-1c0.3,0,0.6,0,1.1,0h1c0.1-0.7,0.1-0.9,0.1-1h-1.6c-0.5,0-0.9,0-1.3,0.1V87    c0.3,0.1,0.7,0.1,1.3,0.1h1.7c0-0.4,0-0.9,0-1c0-0.1,0-0.1,0-0.2l0.9,0.1C32,86.3,32,86.4,32,86.8c0,0.1,0,0.2,0,0.3h1.9    c0.6,0,0.9,0,1.3-0.1v0.8c-0.4-0.1-0.7-0.1-1.3-0.1h-2c0,0.1-0.1,0.4-0.1,1h1.5c0.5,0,0.8,0,1.1,0c0,0.3-0.1,0.6-0.1,1V94.7z     M29.6,90.3h3.9v-0.9h-3.9V90.3z M29.6,91.7h3.9v-0.9h-3.9V91.7z M33.5,92.3h-3.9v0.9h3.9V92.3z M33.5,93.8h-3.9v0.9h3.9V93.8z     M34.8,97.7c-0.8-0.5-1.9-1.1-2.7-1.5l0.5-0.5c1.2,0.5,1.8,0.9,2.7,1.4L34.8,97.7z" />
		<path class="st0" d="M37,88.2c0-0.6,0-0.9-0.1-1.5c0.5,0,0.8,0,1.5,0h2.3c3,0,4.7,1.8,4.7,4.9c0,1.6-0.5,3-1.4,3.8    c-0.8,0.8-1.9,1.2-3.2,1.2h-2.3c-0.6,0-1,0-1.5,0c0.1-0.5,0.1-0.9,0.1-1.5V88.2z M40.6,95.8c1.1,0,1.9-0.3,2.5-0.9    c0.7-0.7,1.1-1.8,1.1-3.2c0-1.4-0.3-2.4-1.1-3.1c-0.6-0.6-1.4-0.9-2.5-0.9H38v8.1H40.6z" />
	</g>
	<g>
		<path class="st0" d="M26.2,111.9c-0.4,0.8-0.8,1.2-1.3,1.8c-0.1-0.3-0.3-0.5-0.5-0.7c0.6-0.6,1.1-1.4,1.6-2.4    c0.1-0.3,0.2-0.6,0.3-0.9l0.9,0.2c-0.1,0.3-0.1,0.3-0.3,0.6c-0.1,0.2-0.2,0.5-0.3,0.6H28c0.6,0,1,0,1.3-0.1v0.9    c-0.3-0.1-0.7-0.1-1.3-0.1H26.2z M26.3,114.2c-0.3,0-0.6,0-0.9,0.1v-0.8c0.2,0,0.5,0.1,0.9,0.1h1.9c0.4,0,0.6,0,0.9-0.1v0.8    c-0.3,0-0.5-0.1-0.9-0.1h-0.7v1.9h0.7c0.5,0,0.8,0,1.2-0.1v0.9c-0.4-0.1-0.7-0.1-1.2-0.1h-0.7v3c0.9-0.4,1.1-0.6,1.8-1l0,0.8    c-0.6,0.4-0.8,0.4-1.3,0.7c-0.7,0.3-0.8,0.4-1.2,0.6l-0.3-0.8c0.3-0.2,0.3-0.4,0.3-0.6v-2.8H26c-0.5,0-0.9,0-1.3,0.1V116    c0.3,0,0.7,0.1,1.3,0.1h0.7v-1.9H26.3z M32.5,119.9c-1,0.7-1.8,1.1-3,1.5c0-0.1-0.1-0.1-0.1-0.1c-0.1-0.2-0.1-0.2-0.4-0.5    c1.4-0.4,2-0.7,2.8-1.4L32.5,119.9z M35.8,118.4c0.5,0,0.7,0,1.1-0.1v0.8c-0.4-0.1-0.8-0.1-1.3-0.1h-4.7c-0.5,0-0.9,0-1.3,0.1    v-0.8c0.3,0,0.4,0.1,0.8,0.1v-4.9c0-0.4,0-0.7-0.1-1c0.3,0,0.6,0,1.1,0h1c0.1-0.7,0.1-0.9,0.1-1H31c-0.5,0-0.9,0-1.3,0.1v-0.8    c0.3,0.1,0.7,0.1,1.3,0.1h1.7c0-0.4,0-0.9,0-1c0-0.1,0-0.1,0-0.2l0.9,0.1c-0.1,0.4-0.1,0.5-0.1,0.9c0,0.1,0,0.2,0,0.3h1.9    c0.6,0,0.9,0,1.3-0.1v0.8c-0.4-0.1-0.7-0.1-1.3-0.1h-2c0,0.1-0.1,0.4-0.1,1h1.5c0.5,0,0.8,0,1.1,0c0,0.3-0.1,0.6-0.1,1V118.4z     M31.2,114h3.9v-0.9h-3.9V114z M31.2,115.5h3.9v-0.9h-3.9V115.5z M35.1,116.1h-3.9v0.9h3.9V116.1z M35.1,117.5h-3.9v0.9h3.9V117.5    z M36.3,121.5c-0.8-0.5-1.9-1.1-2.7-1.5l0.5-0.5c1.2,0.5,1.8,0.9,2.7,1.4L36.3,121.5z" />
		<path class="st0" d="M45.3,120.5c-0.4-0.1-0.8-0.1-1.5-0.1h-3.9c-0.6,0-1,0-1.5,0c0.1-0.5,0.1-0.9,0.1-1.5V112    c0-0.6,0-0.9-0.1-1.5c0.5,0,0.8,0,1.5,0h3.8c0.6,0,1,0,1.5-0.1v1.1c-0.5-0.1-0.8-0.1-1.5-0.1h-4.1v3.3h3.5c0.6,0,1,0,1.5-0.1v1.1    c-0.5-0.1-0.8-0.1-1.5-0.1h-3.5v3.8h4.2c0.6,0,1,0,1.5-0.1V120.5z" />
	</g>
	<g>
		<path class="st0" d="M26.8,134.9c-0.4,0.8-0.8,1.2-1.3,1.8c-0.1-0.3-0.3-0.5-0.5-0.7c0.6-0.6,1.1-1.4,1.6-2.4    c0.1-0.3,0.2-0.6,0.3-0.9l0.9,0.2c-0.1,0.3-0.1,0.3-0.3,0.6c-0.1,0.2-0.2,0.5-0.3,0.6h1.3c0.6,0,1,0,1.3-0.1v0.9    c-0.3-0.1-0.7-0.1-1.3-0.1H26.8z M26.8,137.2c-0.3,0-0.6,0-0.9,0.1v-0.8c0.2,0,0.5,0.1,0.9,0.1h1.9c0.4,0,0.6,0,0.9-0.1v0.8    c-0.3,0-0.5-0.1-0.9-0.1H28v1.9h0.7c0.5,0,0.8,0,1.2-0.1v0.9c-0.4-0.1-0.7-0.1-1.2-0.1H28v3c0.9-0.4,1.1-0.6,1.8-1l0,0.8    c-0.6,0.4-0.8,0.4-1.3,0.7c-0.7,0.3-0.8,0.4-1.2,0.6l-0.3-0.8c0.3-0.2,0.3-0.4,0.3-0.6v-2.8h-0.7c-0.5,0-0.9,0-1.3,0.1V139    c0.3,0,0.7,0.1,1.3,0.1h0.7v-1.9H26.8z M33,142.9c-1,0.7-1.8,1.1-3,1.5c0-0.1-0.1-0.1-0.1-0.1c-0.1-0.2-0.1-0.2-0.4-0.5    c1.4-0.4,2-0.7,2.8-1.4L33,142.9z M36.4,141.4c0.5,0,0.7,0,1.1-0.1v0.8c-0.4-0.1-0.8-0.1-1.3-0.1h-4.7c-0.5,0-0.9,0-1.3,0.1v-0.8    c0.3,0,0.4,0.1,0.8,0.1v-4.9c0-0.4,0-0.7-0.1-1c0.3,0,0.6,0,1.1,0h1c0.1-0.7,0.1-0.9,0.1-1h-1.6c-0.5,0-0.9,0-1.3,0.1v-0.8    c0.3,0.1,0.7,0.1,1.3,0.1h1.7c0-0.4,0-0.9,0-1c0-0.1,0-0.1,0-0.2l0.9,0.1c-0.1,0.4-0.1,0.5-0.1,0.9c0,0.1,0,0.2,0,0.3h1.9    c0.6,0,0.9,0,1.3-0.1v0.8c-0.4-0.1-0.7-0.1-1.3-0.1h-2c0,0.1-0.1,0.4-0.1,1h1.5c0.5,0,0.8,0,1.1,0c0,0.3-0.1,0.6-0.1,1V141.4z     M31.7,137h3.9v-0.9h-3.9V137z M31.7,138.5h3.9v-0.9h-3.9V138.5z M35.6,139.1h-3.9v0.9h3.9V139.1z M35.6,140.5h-3.9v0.9h3.9V140.5    z M36.9,144.5c-0.8-0.5-1.9-1.1-2.7-1.5l0.5-0.5c1.2,0.5,1.8,0.9,2.7,1.4L36.9,144.5z" />
		<path class="st0" d="M40.1,141.9c0,0.7,0,1.1,0.1,1.5H39c0.1-0.4,0.1-0.8,0.1-1.5V135c0-0.6,0-1-0.1-1.5c0.5,0,0.8,0,1.5,0H44    c0.7,0,1,0,1.5-0.1v1.1c-0.4-0.1-0.8-0.1-1.5-0.1h-3.8v3.4h3.1c0.6,0,1,0,1.5-0.1v1.1c-0.4-0.1-0.8-0.1-1.5-0.1h-3.1V141.9z" />
	</g>
	<g>
		<path class="st0" d="M24.7,157.4c-0.4,0.8-0.8,1.2-1.3,1.8c-0.1-0.3-0.3-0.5-0.5-0.7c0.6-0.6,1.1-1.4,1.6-2.4    c0.1-0.3,0.2-0.6,0.3-0.9l0.9,0.2c-0.1,0.3-0.1,0.3-0.3,0.6c-0.1,0.2-0.2,0.5-0.3,0.6h1.3c0.6,0,1,0,1.3-0.1v0.9    c-0.3-0.1-0.7-0.1-1.3-0.1H24.7z M24.8,159.7c-0.3,0-0.6,0-0.9,0.1v-0.8c0.2,0,0.5,0.1,0.9,0.1h1.9c0.4,0,0.6,0,0.9-0.1v0.8    c-0.3,0-0.5-0.1-0.9-0.1H26v1.9h0.7c0.5,0,0.8,0,1.2-0.1v0.9c-0.4-0.1-0.7-0.1-1.2-0.1H26v3c0.9-0.4,1.1-0.6,1.8-1l0,0.8    c-0.6,0.4-0.8,0.4-1.3,0.7c-0.7,0.3-0.8,0.4-1.2,0.6l-0.3-0.8c0.3-0.2,0.3-0.4,0.3-0.6v-2.8h-0.7c-0.5,0-0.9,0-1.3,0.1v-0.9    c0.3,0,0.7,0.1,1.3,0.1h0.7v-1.9H24.8z M31,165.4c-1,0.7-1.8,1.1-3,1.5c0-0.1-0.1-0.1-0.1-0.1c-0.1-0.2-0.1-0.2-0.4-0.5    c1.4-0.4,2-0.7,2.8-1.4L31,165.4z M34.3,163.9c0.5,0,0.7,0,1.1-0.1v0.8c-0.4-0.1-0.8-0.1-1.3-0.1h-4.7c-0.5,0-0.9,0-1.3,0.1v-0.8    c0.3,0,0.4,0.1,0.8,0.1V159c0-0.4,0-0.7-0.1-1c0.3,0,0.6,0,1.1,0h1c0.1-0.7,0.1-0.9,0.1-1h-1.6c-0.5,0-0.9,0-1.3,0.1v-0.8    c0.3,0.1,0.7,0.1,1.3,0.1h1.7c0-0.4,0-0.9,0-1c0-0.1,0-0.1,0-0.2l0.9,0.1c-0.1,0.4-0.1,0.5-0.1,0.9c0,0.1,0,0.2,0,0.3h1.9    c0.6,0,0.9,0,1.3-0.1v0.8c-0.4-0.1-0.7-0.1-1.3-0.1h-2c0,0.1-0.1,0.4-0.1,1h1.5c0.5,0,0.8,0,1.1,0c0,0.3-0.1,0.6-0.1,1V163.9z     M29.7,159.5h3.9v-0.9h-3.9V159.5z M29.7,161h3.9v-0.9h-3.9V161z M33.6,161.6h-3.9v0.9h3.9V161.6z M33.6,163h-3.9v0.9h3.9V163z     M34.9,167c-0.8-0.5-1.9-1.1-2.7-1.5l0.5-0.5c1.2,0.5,1.8,0.9,2.7,1.4L34.9,167z" />
		<path class="st0" d="M43.2,161.9c-0.7,0-1,0-1.4,0.1v-1.1c0.4,0.1,0.7,0.1,1.5,0.1h0.4c0.6,0,1,0,1.4-0.1    c-0.1,0.5-0.1,0.9-0.1,1.5v1.2c0,0.6,0,0.9,0.1,1.4c-0.8,0.5-1.2,0.6-1.8,0.8c-0.6,0.2-1.3,0.2-2,0.2c-1.3,0-2.3-0.3-3-1    c-1-0.9-1.6-2.4-1.6-4.1c0-3.1,1.8-5.1,4.7-5.1c1.2,0,2.2,0.3,2.9,1c0.4,0.4,0.7,0.8,1,1.5l-1,0.3c-0.5-1.3-1.4-1.9-2.8-1.9    c-2.2,0-3.6,1.6-3.6,4.2c0,1.4,0.4,2.5,1.1,3.3c0.6,0.6,1.4,0.9,2.5,0.9c1.1,0,1.9-0.2,2.7-0.7v-2.6H43.2z" />
	</g>
	<g>
		<path class="st0" d="M24.4,180.2c-0.4,0.8-0.8,1.2-1.3,1.8c-0.1-0.3-0.3-0.5-0.5-0.7c0.6-0.6,1.1-1.4,1.6-2.4    c0.1-0.3,0.2-0.6,0.3-0.9l0.9,0.2c-0.1,0.3-0.1,0.3-0.3,0.6c-0.1,0.2-0.2,0.5-0.3,0.6h1.3c0.6,0,1,0,1.3-0.1v0.9    c-0.3-0.1-0.7-0.1-1.3-0.1H24.4z M24.5,182.4c-0.3,0-0.6,0-0.9,0.1v-0.8c0.2,0,0.5,0.1,0.9,0.1h1.9c0.4,0,0.6,0,0.9-0.1v0.8    c-0.3,0-0.5-0.1-0.9-0.1h-0.7v1.9h0.7c0.5,0,0.8,0,1.2-0.1v0.9c-0.4-0.1-0.7-0.1-1.2-0.1h-0.7v3c0.9-0.4,1.1-0.6,1.8-1l0,0.8    c-0.6,0.4-0.8,0.4-1.3,0.7c-0.7,0.3-0.8,0.4-1.2,0.6l-0.3-0.8c0.3-0.2,0.3-0.4,0.3-0.6V185h-0.7c-0.5,0-0.9,0-1.3,0.1v-0.9    c0.3,0,0.7,0.1,1.3,0.1h0.7v-1.9H24.5z M30.7,188.2c-1,0.7-1.8,1.1-3,1.5c0-0.1-0.1-0.1-0.1-0.1c-0.1-0.2-0.1-0.2-0.4-0.5    c1.4-0.4,2-0.7,2.8-1.4L30.7,188.2z M34,186.7c0.5,0,0.7,0,1.1-0.1v0.8c-0.4-0.1-0.8-0.1-1.3-0.1h-4.7c-0.5,0-0.9,0-1.3,0.1v-0.8    c0.3,0,0.4,0.1,0.8,0.1v-4.9c0-0.4,0-0.7-0.1-1c0.3,0,0.6,0,1.1,0h1c0.1-0.7,0.1-0.9,0.1-1h-1.6c-0.5,0-0.9,0-1.3,0.1V179    c0.3,0.1,0.7,0.1,1.3,0.1h1.7c0-0.4,0-0.9,0-1c0-0.1,0-0.1,0-0.2l0.9,0.1c-0.1,0.4-0.1,0.5-0.1,0.9c0,0.1,0,0.2,0,0.3h1.9    c0.6,0,0.9,0,1.3-0.1v0.8c-0.4-0.1-0.7-0.1-1.3-0.1h-2c0,0.1-0.1,0.4-0.1,1H33c0.5,0,0.8,0,1.1,0c0,0.3-0.1,0.6-0.1,1V186.7z     M29.4,182.3h3.9v-0.9h-3.9V182.3z M29.4,183.7h3.9v-0.9h-3.9V183.7z M33.3,184.3h-3.9v0.9h3.9V184.3z M33.3,185.8h-3.9v0.9h3.9    V185.8z M34.5,189.7c-0.8-0.5-1.9-1.1-2.7-1.5l0.5-0.5c1.2,0.5,1.8,0.9,2.7,1.4L34.5,189.7z" />
		<path class="st0" d="M45,178.8c-0.1,0.5-0.1,0.8-0.1,1.4v7c0,0.6,0,0.9,0.1,1.5h-1.3c0.1-0.5,0.1-0.8,0.1-1.5v-3.3h-6v3.3    c0,0.6,0,1,0.1,1.5h-1.3c0.1-0.4,0.1-0.8,0.1-1.5v-7c0-0.6,0-1-0.1-1.5h1.3c-0.1,0.5-0.1,0.8-0.1,1.4v2.8h6v-2.8    c0-0.6,0-1-0.1-1.5H45z" />
	</g>
	<g>
		<path class="st0" d="M31.5,203.2c-0.4,0.8-0.8,1.2-1.3,1.8c-0.1-0.3-0.3-0.5-0.5-0.7c0.6-0.6,1.1-1.4,1.6-2.4    c0.1-0.3,0.2-0.6,0.3-0.9l0.9,0.2c-0.1,0.3-0.1,0.3-0.3,0.6c-0.1,0.2-0.2,0.5-0.3,0.6h1.3c0.6,0,1,0,1.3-0.1v0.9    c-0.3-0.1-0.7-0.1-1.3-0.1H31.5z M31.6,205.4c-0.3,0-0.6,0-0.9,0.1v-0.8c0.2,0,0.5,0.1,0.9,0.1h1.9c0.4,0,0.6,0,0.9-0.1v0.8    c-0.3,0-0.5-0.1-0.9-0.1h-0.7v1.9h0.7c0.5,0,0.8,0,1.2-0.1v0.9c-0.4-0.1-0.7-0.1-1.2-0.1h-0.7v3c0.9-0.4,1.1-0.6,1.8-1l0,0.8    c-0.6,0.4-0.8,0.4-1.3,0.7c-0.7,0.3-0.8,0.4-1.2,0.6l-0.3-0.8c0.3-0.2,0.3-0.4,0.3-0.6V208h-0.7c-0.5,0-0.9,0-1.3,0.1v-0.9    c0.3,0,0.7,0.1,1.3,0.1H32v-1.9H31.6z M37.8,211.2c-1,0.7-1.8,1.1-3,1.5c0-0.1-0.1-0.1-0.1-0.1c-0.1-0.2-0.1-0.2-0.4-0.5    c1.4-0.4,2-0.7,2.8-1.4L37.8,211.2z M41.1,209.7c0.5,0,0.7,0,1.1-0.1v0.8c-0.4-0.1-0.8-0.1-1.3-0.1h-4.7c-0.5,0-0.9,0-1.3,0.1    v-0.8c0.3,0,0.4,0.1,0.8,0.1v-4.9c0-0.4,0-0.7-0.1-1c0.3,0,0.6,0,1.1,0h1c0.1-0.7,0.1-0.9,0.1-1h-1.6c-0.5,0-0.9,0-1.3,0.1V202    c0.3,0.1,0.7,0.1,1.3,0.1H38c0-0.4,0-0.9,0-1c0-0.1,0-0.1,0-0.2l0.9,0.1c-0.1,0.4-0.1,0.5-0.1,0.9c0,0.1,0,0.2,0,0.3h1.9    c0.6,0,0.9,0,1.3-0.1v0.8c-0.4-0.1-0.7-0.1-1.3-0.1h-2c0,0.1-0.1,0.4-0.1,1h1.5c0.5,0,0.8,0,1.1,0c0,0.3-0.1,0.6-0.1,1V209.7z     M36.4,205.3h3.9v-0.9h-3.9V205.3z M36.4,206.7h3.9v-0.9h-3.9V206.7z M40.3,207.3h-3.9v0.9h3.9V207.3z M40.3,208.8h-3.9v0.9h3.9    V208.8z M41.6,212.7c-0.8-0.5-1.9-1.1-2.7-1.5l0.5-0.5c1.2,0.5,1.8,0.9,2.7,1.4L41.6,212.7z" />
		<path class="st0" d="M45,201.8c-0.1,0.4-0.1,0.9-0.1,1.5v7c0,0.6,0,1,0.1,1.5h-1.3c0.1-0.5,0.1-0.8,0.1-1.5v-7c0-0.7,0-1-0.1-1.5    H45z" />
	</g>
	<g>
		<path class="st0" d="M28,226.7c-0.4,0.8-0.8,1.2-1.3,1.8c-0.1-0.3-0.3-0.5-0.5-0.7c0.6-0.6,1.1-1.4,1.6-2.4    c0.1-0.3,0.2-0.6,0.3-0.9l0.9,0.2c-0.1,0.3-0.1,0.3-0.3,0.6c-0.1,0.2-0.2,0.5-0.3,0.6h1.3c0.6,0,1,0,1.3-0.1v0.9    c-0.3-0.1-0.7-0.1-1.3-0.1H28z M28.1,228.9c-0.3,0-0.6,0-0.9,0.1v-0.8c0.2,0,0.5,0.1,0.9,0.1H30c0.4,0,0.6,0,0.9-0.1v0.8    c-0.3,0-0.5-0.1-0.9-0.1h-0.7v1.9H30c0.5,0,0.8,0,1.2-0.1v0.9c-0.4-0.1-0.7-0.1-1.2-0.1h-0.7v3c0.9-0.4,1.1-0.6,1.8-1l0,0.8    c-0.6,0.4-0.8,0.4-1.3,0.7c-0.7,0.3-0.8,0.4-1.2,0.6l-0.3-0.8c0.3-0.2,0.3-0.4,0.3-0.6v-2.8h-0.7c-0.5,0-0.9,0-1.3,0.1v-0.9    c0.3,0,0.7,0.1,1.3,0.1h0.7v-1.9H28.1z M34.3,234.7c-1,0.7-1.8,1.1-3,1.5c0-0.1-0.1-0.1-0.1-0.1c-0.1-0.2-0.1-0.2-0.4-0.5    c1.4-0.4,2-0.7,2.8-1.4L34.3,234.7z M37.6,233.2c0.5,0,0.7,0,1.1-0.1v0.8c-0.4-0.1-0.8-0.1-1.3-0.1h-4.7c-0.5,0-0.9,0-1.3,0.1    v-0.8c0.3,0,0.4,0.1,0.8,0.1v-4.9c0-0.4,0-0.7-0.1-1c0.3,0,0.6,0,1.1,0h1c0.1-0.7,0.1-0.9,0.1-1h-1.6c-0.5,0-0.9,0-1.3,0.1v-0.8    c0.3,0.1,0.7,0.1,1.3,0.1h1.7c0-0.4,0-0.9,0-1c0-0.1,0-0.1,0-0.2l0.9,0.1c-0.1,0.4-0.1,0.5-0.1,0.9c0,0.1,0,0.2,0,0.3h1.9    c0.6,0,0.9,0,1.3-0.1v0.8c-0.4-0.1-0.7-0.1-1.3-0.1h-2c0,0.1-0.1,0.4-0.1,1h1.5c0.5,0,0.8,0,1.1,0c0,0.3-0.1,0.6-0.1,1V233.2z     M33,228.8h3.9v-0.9H33V228.8z M33,230.2h3.9v-0.9H33V230.2z M36.9,230.8H33v0.9h3.9V230.8z M36.9,232.3H33v0.9h3.9V232.3z     M38.1,236.2c-0.8-0.5-1.9-1.1-2.7-1.5l0.5-0.5c1.2,0.5,1.8,0.9,2.7,1.4L38.1,236.2z" />
		<path class="st0" d="M45,225.3c-0.1,0.5-0.1,0.8-0.1,1.5v5.8c0,0.9-0.2,1.5-0.5,2c-0.4,0.5-1.2,0.8-2.2,0.8    c-0.9,0-1.7-0.3-2.2-0.8c-0.3-0.2-0.4-0.5-0.7-1l1.1-0.4c0.2,0.4,0.3,0.6,0.5,0.8c0.3,0.3,0.8,0.5,1.4,0.5c1.1,0,1.6-0.6,1.6-1.9    v-5.8c0-0.6,0-1-0.1-1.5H45z" />
	</g>
	<g>
		<path class="st0" d="M25.3,248.9c-0.4,0.8-0.8,1.2-1.3,1.8c-0.1-0.3-0.3-0.5-0.5-0.7c0.6-0.6,1.1-1.4,1.6-2.4    c0.1-0.3,0.2-0.6,0.3-0.9l0.9,0.2c-0.1,0.3-0.1,0.3-0.3,0.6c-0.1,0.2-0.2,0.5-0.3,0.6H27c0.6,0,1,0,1.3-0.1v0.9    c-0.3-0.1-0.7-0.1-1.3-0.1H25.3z M25.4,251.2c-0.3,0-0.6,0-0.9,0.1v-0.8c0.2,0,0.5,0.1,0.9,0.1h1.9c0.4,0,0.6,0,0.9-0.1v0.8    c-0.3,0-0.5-0.1-0.9-0.1h-0.7v1.9h0.7c0.5,0,0.8,0,1.2-0.1v0.9c-0.4-0.1-0.7-0.1-1.2-0.1h-0.7v3c0.9-0.4,1.1-0.6,1.8-1l0,0.8    c-0.6,0.4-0.8,0.4-1.3,0.7c-0.7,0.3-0.8,0.4-1.2,0.6l-0.3-0.8c0.3-0.2,0.3-0.4,0.3-0.6v-2.8h-0.7c-0.5,0-0.9,0-1.3,0.1V253    c0.3,0,0.7,0.1,1.3,0.1h0.7v-1.9H25.4z M31.6,256.9c-1,0.7-1.8,1.1-3,1.5c0-0.1-0.1-0.1-0.1-0.1c-0.1-0.2-0.1-0.2-0.4-0.5    c1.4-0.4,2-0.7,2.8-1.4L31.6,256.9z M34.9,255.4c0.5,0,0.7,0,1.1-0.1v0.8c-0.4-0.1-0.8-0.1-1.3-0.1H30c-0.5,0-0.9,0-1.3,0.1v-0.8    c0.3,0,0.4,0.1,0.8,0.1v-4.9c0-0.4,0-0.7-0.1-1c0.3,0,0.6,0,1.1,0h1c0.1-0.7,0.1-0.9,0.1-1h-1.6c-0.5,0-0.9,0-1.3,0.1v-0.8    c0.3,0.1,0.7,0.1,1.3,0.1h1.7c0-0.4,0-0.9,0-1c0-0.1,0-0.1,0-0.2l0.9,0.1c-0.1,0.4-0.1,0.5-0.1,0.9c0,0.1,0,0.2,0,0.3h1.9    c0.6,0,0.9,0,1.3-0.1v0.8c-0.4-0.1-0.7-0.1-1.3-0.1h-2c0,0.1-0.1,0.4-0.1,1h1.5c0.5,0,0.8,0,1.1,0c0,0.3-0.1,0.6-0.1,1V255.4z     M30.3,251h3.9v-0.9h-3.9V251z M30.3,252.5h3.9v-0.9h-3.9V252.5z M34.2,253.1h-3.9v0.9h3.9V253.1z M34.2,254.5h-3.9v0.9h3.9V254.5    z M35.4,258.5c-0.8-0.5-1.9-1.1-2.7-1.5l0.5-0.5c1.2,0.5,1.8,0.9,2.7,1.4L35.4,258.5z" />
		<path class="st0" d="M44.4,256c0.8,0.9,0.9,1.1,1.3,1.4h-1.6c-0.2-0.3-0.4-0.7-0.8-1.1l-3.2-4l-1.6,1.5v2.1c0,0.7,0,1,0.1,1.5    h-1.2c0.1-0.4,0.1-0.9,0.1-1.5v-7c0-0.6,0-1-0.1-1.5h1.2c-0.1,0.4-0.1,0.8-0.1,1.5v3.6l4.1-4c0.5-0.5,0.7-0.8,0.9-1.1h1.6    c-0.2,0.2-0.2,0.2-0.3,0.3c-0.2,0.2-0.4,0.4-0.6,0.6c-0.2,0.2-0.4,0.4-0.4,0.4l-2.9,2.8L44.4,256z" />
	</g>
	<g>
		<path class="st0" d="M26.6,272.4c-0.4,0.8-0.8,1.2-1.3,1.8c-0.1-0.3-0.3-0.5-0.5-0.7c0.6-0.6,1.1-1.4,1.6-2.4    c0.1-0.3,0.2-0.6,0.3-0.9l0.9,0.2c-0.1,0.3-0.1,0.3-0.3,0.6c-0.1,0.2-0.2,0.5-0.3,0.6h1.3c0.6,0,1,0,1.3-0.1v0.9    c-0.3-0.1-0.7-0.1-1.3-0.1H26.6z M26.7,274.7c-0.3,0-0.6,0-0.9,0.1v-0.8c0.2,0,0.5,0.1,0.9,0.1h1.9c0.4,0,0.6,0,0.9-0.1v0.8    c-0.3,0-0.5-0.1-0.9-0.1h-0.7v1.9h0.7c0.5,0,0.8,0,1.2-0.1v0.9c-0.4-0.1-0.7-0.1-1.2-0.1h-0.7v3c0.9-0.4,1.1-0.6,1.8-1l0,0.8    c-0.6,0.4-0.8,0.4-1.3,0.7c-0.7,0.3-0.8,0.4-1.2,0.6l-0.3-0.8c0.3-0.2,0.3-0.4,0.3-0.6v-2.8h-0.7c-0.5,0-0.9,0-1.3,0.1v-0.9    c0.3,0,0.7,0.1,1.3,0.1h0.7v-1.9H26.7z M32.9,280.4c-1,0.7-1.8,1.1-3,1.5c0-0.1-0.1-0.1-0.1-0.1c-0.1-0.2-0.1-0.2-0.4-0.5    c1.4-0.4,2-0.7,2.8-1.4L32.9,280.4z M36.2,278.9c0.5,0,0.7,0,1.1-0.1v0.8c-0.4-0.1-0.8-0.1-1.3-0.1h-4.7c-0.5,0-0.9,0-1.3,0.1    v-0.8c0.3,0,0.4,0.1,0.8,0.1V274c0-0.4,0-0.7-0.1-1c0.3,0,0.6,0,1.1,0h1c0.1-0.7,0.1-0.9,0.1-1h-1.6c-0.5,0-0.9,0-1.3,0.1v-0.8    c0.3,0.1,0.7,0.1,1.3,0.1h1.7c0-0.4,0-0.9,0-1c0-0.1,0-0.1,0-0.2l0.9,0.1c-0.1,0.4-0.1,0.5-0.1,0.9c0,0.1,0,0.2,0,0.3h1.9    c0.6,0,0.9,0,1.3-0.1v0.8c-0.4-0.1-0.7-0.1-1.3-0.1h-2c0,0.1-0.1,0.4-0.1,1h1.5c0.5,0,0.8,0,1.1,0c0,0.3-0.1,0.6-0.1,1V278.9z     M31.6,274.5h3.9v-0.9h-3.9V274.5z M31.6,276h3.9v-0.9h-3.9V276z M35.5,276.6h-3.9v0.9h3.9V276.6z M35.5,278h-3.9v0.9h3.9V278z     M36.7,282c-0.8-0.5-1.9-1.1-2.7-1.5l0.5-0.5c1.2,0.5,1.8,0.9,2.7,1.4L36.7,282z" />
		<path class="st0" d="M40.3,280.9c-0.6,0-1,0-1.5,0c0.1-0.5,0.1-0.9,0.1-1.5v-6.8c0-0.7,0-1.1-0.1-1.5h1.3    c-0.1,0.5-0.1,0.8-0.1,1.5v7.4h4.2c0.7,0,1,0,1.6-0.1v1.1c-0.4-0.1-0.8-0.1-1.6-0.1H40.3z" />
	</g>
	<g>
		<path class="st0" d="M78.2,301.8c-0.4-0.1-0.8-0.1-1.5-0.1h-7c-0.6,0-1.1,0-1.5,0.1v-0.9c0.4,0.1,0.8,0.1,1.5,0.1h7    c0.7,0,1.2,0,1.5-0.1V301.8z" />
		<path class="st0" d="M82.1,302.9c-0.1,0.6-0.2,1.2-0.5,1.7c-0.3,0.7-0.6,1.2-1.2,1.9c-0.2-0.3-0.4-0.4-0.6-0.6    c0.7-0.7,1.1-1.3,1.3-2.2c0.3-1.1,0.4-2.4,0.4-4.9c0-0.9,0-1.4,0-1.8c0.4,0,0.7,0.1,1.2,0.1h4.3c0.5,0,0.8,0,1.2-0.1    c0,0.3,0,0.6,0,1.1v7.2c0,0.4-0.1,0.6-0.3,0.8c-0.2,0.1-0.4,0.1-0.9,0.1c-0.4,0-0.8,0-1.3,0c0-0.3-0.1-0.5-0.2-0.7    c0.6,0.1,1.1,0.1,1.6,0.1c0.3,0,0.4-0.1,0.4-0.3v-2.4H82.1z M87.3,300.2h-5c0,0.6,0,1.1-0.1,2h5.2V300.2z M87.3,297.8h-5l0,1.6    v0.3h5V297.8z" />
	</g>
	<g>
		<path class="st0" d="M135.4,305.2c-0.4-0.1-0.8-0.1-1.5-0.1h-6.7c-0.7,0-1.1,0-1.5,0.1v-0.9c0.4,0.1,0.7,0.1,1.5,0.1h6.7    c0.8,0,1.1,0,1.5-0.1V305.2z M126.7,297.8c0.4,0.1,0.8,0.1,1.5,0.1h4.6c0.8,0,1.1,0,1.5-0.1v0.9c-0.4-0.1-0.8-0.1-1.5-0.1h-4.6    c-0.7,0-1.1,0-1.5,0.1V297.8z" />
		<path class="st0" d="M139.4,302.9c-0.1,0.6-0.2,1.2-0.5,1.7c-0.3,0.7-0.6,1.2-1.2,1.9c-0.2-0.3-0.4-0.4-0.6-0.6    c0.7-0.7,1.1-1.3,1.3-2.2c0.3-1.1,0.4-2.4,0.4-4.9c0-0.9,0-1.4,0-1.8c0.4,0,0.7,0.1,1.2,0.1h4.3c0.5,0,0.8,0,1.2-0.1    c0,0.3,0,0.6,0,1.1v7.2c0,0.4-0.1,0.6-0.3,0.8c-0.2,0.1-0.4,0.1-0.9,0.1c-0.4,0-0.8,0-1.3,0c0-0.3-0.1-0.5-0.2-0.7    c0.6,0.1,1.1,0.1,1.6,0.1c0.3,0,0.4-0.1,0.4-0.3v-2.4H139.4z M144.6,300.2h-5c0,0.6,0,1.1-0.1,2h5.2V300.2z M144.6,297.8h-5l0,1.6    v0.3h5V297.8z" />
	</g>
	<g>
		<path class="st0" d="M189.6,305.7c-0.4-0.1-0.7-0.1-1.3-0.1h-7.1c-0.6,0-1,0-1.4,0.1v-0.9c0.4,0,0.8,0.1,1.4,0.1h7.1    c0.6,0,0.9,0,1.3-0.1V305.7z M180.7,297.3c0.3,0.1,0.7,0.1,1.3,0.1h5.4c0.6,0,1,0,1.4-0.1v0.9c-0.4,0-0.7-0.1-1.4-0.1H182    c-0.6,0-0.9,0-1.3,0.1V297.3z M181.4,300.9c0.3,0,0.6,0.1,1.2,0.1h4.3c0.5,0,0.9,0,1.2-0.1v0.8c-0.4,0-0.6-0.1-1.2-0.1h-4.3    c-0.6,0-0.9,0-1.2,0.1V300.9z" />
		<path class="st0" d="M193.6,302.9c-0.1,0.6-0.2,1.2-0.5,1.7c-0.3,0.7-0.6,1.2-1.2,1.9c-0.2-0.3-0.4-0.4-0.6-0.6    c0.7-0.7,1.1-1.3,1.3-2.2c0.3-1.1,0.4-2.4,0.4-4.9c0-0.9,0-1.4,0-1.8c0.4,0,0.7,0.1,1.2,0.1h4.3c0.5,0,0.8,0,1.2-0.1    c0,0.3,0,0.6,0,1.1v7.2c0,0.4-0.1,0.6-0.3,0.8c-0.2,0.1-0.4,0.1-0.9,0.1c-0.4,0-0.8,0-1.3,0c0-0.3-0.1-0.5-0.2-0.7    c0.6,0.1,1.1,0.1,1.6,0.1c0.3,0,0.4-0.1,0.4-0.3v-2.4H193.6z M198.8,300.2h-5c0,0.6,0,1.1-0.1,2h5.2V300.2z M198.8,297.8h-5l0,1.6    v0.3h5V297.8z" />
	</g>
	<g>
		<path class="st0" d="M234.3,298.7c0-0.5,0-1-0.1-1.4c0.4,0,0.7,0.1,1.3,0.1h6.8c0.6,0,0.9,0,1.3-0.1c0,0.4-0.1,0.8-0.1,1.4v6.1    c0,0.7,0,1,0.1,1.3h-0.8v-0.7H235v0.7h-0.8c0.1-0.3,0.1-0.6,0.1-1.3V298.7z M238,298c0,1.6-0.2,2.7-0.6,3.4    c-0.3,0.7-0.9,1.4-1.8,1.9c-0.1-0.2-0.3-0.4-0.5-0.6c0.9-0.5,1.4-1,1.7-1.8c0.3-0.7,0.4-1.5,0.5-3H235v6.7h7.8V298h-2.5v3.7    c0,0.3,0,0.3,0.6,0.3c0.5,0,0.8,0,1.6-0.1v0.7c-0.5,0.1-0.9,0.1-1.6,0.1c-1.1,0-1.3-0.1-1.3-0.8V298H238z" />
		<path class="st0" d="M247.7,302.9c-0.1,0.6-0.2,1.2-0.5,1.7c-0.3,0.7-0.6,1.2-1.2,1.9c-0.2-0.3-0.4-0.4-0.6-0.6    c0.7-0.7,1.1-1.3,1.3-2.2c0.3-1.1,0.4-2.4,0.4-4.9c0-0.9,0-1.4,0-1.8c0.4,0,0.7,0.1,1.2,0.1h4.3c0.5,0,0.8,0,1.2-0.1    c0,0.3,0,0.6,0,1.1v7.2c0,0.4-0.1,0.6-0.3,0.8c-0.2,0.1-0.4,0.1-0.9,0.1c-0.4,0-0.8,0-1.3,0c0-0.3-0.1-0.5-0.2-0.7    c0.6,0.1,1.1,0.1,1.6,0.1c0.3,0,0.4-0.1,0.4-0.3v-2.4H247.7z M253,300.2h-5c0,0.6,0,1.1-0.1,2h5.2V300.2z M253,297.8h-5l0,1.6v0.3    h5V297.8z" />
	</g>
	<g>
		<path class="st0" d="M296.9,305.2c0.6,0,0.9,0,1.3-0.1v0.8c-0.4-0.1-0.7-0.1-1.3-0.1h-7.5c-0.5,0-0.9,0-1.3,0.1v-0.8    c0.4,0.1,0.7,0.1,1.3,0.1h1.3c0.5-1.5,0.8-2.5,1.1-4h-1.3c-0.5,0-0.8,0-1.1,0.1v-0.8c0.3,0,0.6,0.1,1.2,0.1h1.4    c0.2-1,0.3-1.5,0.4-2.7H290c-0.5,0-0.9,0-1.3,0.1v-0.8c0.4,0,0.7,0.1,1.2,0.1h6.4c0.6,0,0.9,0,1.3-0.1v0.8c-0.4,0-0.7-0.1-1.3-0.1    H293c-0.1,1.1-0.2,1.8-0.4,2.7h2.2c0.5,0,0.9,0,1.3,0c0,0.4-0.1,0.7-0.1,1.2v3.4H296.9z M295.3,301.2h-2.8c0,0.1,0,0.1-0.1,0.3    c-0.2,1.2-0.6,2.4-1,3.7h3.9V301.2z" />
		<path class="st0" d="M301.9,302.9c-0.1,0.6-0.2,1.2-0.5,1.7c-0.3,0.7-0.6,1.2-1.2,1.9c-0.2-0.3-0.4-0.4-0.6-0.6    c0.7-0.7,1.1-1.3,1.3-2.2c0.3-1.1,0.4-2.4,0.4-4.9c0-0.9,0-1.4,0-1.8c0.4,0,0.7,0.1,1.2,0.1h4.3c0.5,0,0.8,0,1.2-0.1    c0,0.3,0,0.6,0,1.1v7.2c0,0.4-0.1,0.6-0.3,0.8c-0.2,0.1-0.4,0.1-0.9,0.1c-0.4,0-0.8,0-1.3,0c0-0.3-0.1-0.5-0.2-0.7    c0.6,0.1,1.1,0.1,1.6,0.1c0.3,0,0.4-0.1,0.4-0.3v-2.4H301.9z M307.1,300.2h-5c0,0.6,0,1.1-0.1,2h5.2V300.2z M307.1,297.8h-5l0,1.6    v0.3h5V297.8z" />
	</g>
	<g>
		<path class="st0" d="M345.9,301c0,0.1,0,0.1-0.1,0.3c-0.7,2-1.7,3.7-3,5c-0.2-0.2-0.4-0.4-0.7-0.5c1.1-0.9,2-2.3,2.6-3.8    c0.2-0.5,0.4-1,0.4-1.3L345.9,301z M350.9,298.7c0.6,0,0.9,0,1.3-0.1v0.8c-0.1,0-0.2,0-0.2,0c-0.3,0-0.3,0-1.1,0h-7.3    c-0.6,0-0.9,0-1.3,0.1v-0.8c0.4,0,0.8,0.1,1.3,0.1h3.5c-0.3-0.7-0.6-1.1-1.2-1.9l0.7-0.4c0.7,0.9,0.9,1.3,1.4,2.2H350.9z     M349.2,300.7c1.3,2.2,2.2,3.8,3,5.2l-0.7,0.5c-1-1.9-2-3.7-3-5.3L349.2,300.7z" />
		<path class="st0" d="M356.1,302.9c-0.1,0.6-0.2,1.2-0.5,1.7c-0.3,0.7-0.6,1.2-1.2,1.9c-0.2-0.3-0.4-0.4-0.6-0.6    c0.7-0.7,1.1-1.3,1.3-2.2c0.3-1.1,0.4-2.4,0.4-4.9c0-0.9,0-1.4,0-1.8c0.4,0,0.7,0.1,1.2,0.1h4.3c0.5,0,0.8,0,1.2-0.1    c0,0.3,0,0.6,0,1.1v7.2c0,0.4-0.1,0.6-0.3,0.8c-0.2,0.1-0.4,0.1-0.9,0.1c-0.4,0-0.8,0-1.3,0c0-0.3-0.1-0.5-0.2-0.7    c0.6,0.1,1.1,0.1,1.6,0.1c0.3,0,0.4-0.1,0.4-0.3v-2.4H356.1z M361.3,300.2h-5c0,0.6,0,1.1-0.1,2h5.2V300.2z M361.3,297.8h-5l0,1.6    v0.3h5V297.8z" />
	</g>
	<g>
		<path class="st0" d="M400.7,304.8c0,0.2,0,0.3,0.2,0.4c0.2,0.1,0.9,0.1,1.7,0.1c0.7,0,1.4-0.1,1.6-0.1c0.2-0.1,0.3-0.2,0.4-0.4    c0.1-0.4,0.2-0.9,0.3-1.8c0.3,0.2,0.5,0.2,0.8,0.3c-0.2,1.3-0.4,1.9-0.6,2.2c-0.3,0.3-0.9,0.4-2.6,0.4c-1.1,0-1.8-0.1-2.1-0.2    c-0.3-0.1-0.4-0.4-0.4-0.8V301l-2.3,0.4c-0.7,0.1-0.9,0.2-1.2,0.3l-0.2-0.8c0.4,0,0.7-0.1,1.2-0.2l2.4-0.4v-2.3    c0-0.5,0-0.9-0.1-1.2h0.9c0,0.3-0.1,0.7-0.1,1.2v2.2l4.2-0.8c0.5-0.1,0.9-0.2,1.2-0.3l0.2,0.8c-0.4,0-0.7,0-1.2,0.1l-4.3,0.8    V304.8z" />
		<path class="st0" d="M410.2,302.9c-0.1,0.6-0.2,1.2-0.5,1.7c-0.3,0.7-0.6,1.2-1.2,1.9c-0.2-0.3-0.4-0.4-0.6-0.6    c0.7-0.7,1.1-1.3,1.3-2.2c0.3-1.1,0.4-2.4,0.4-4.9c0-0.9,0-1.4,0-1.8c0.4,0,0.7,0.1,1.2,0.1h4.3c0.5,0,0.8,0,1.2-0.1    c0,0.3,0,0.6,0,1.1v7.2c0,0.4-0.1,0.6-0.3,0.8c-0.2,0.1-0.4,0.1-0.9,0.1c-0.4,0-0.8,0-1.3,0c0-0.3-0.1-0.5-0.2-0.7    c0.6,0.1,1.1,0.1,1.6,0.1c0.3,0,0.4-0.1,0.4-0.3v-2.4H410.2z M415.5,300.2h-5c0,0.6,0,1.1-0.1,2h5.2V300.2z M415.5,297.8h-5l0,1.6    v0.3h5V297.8z" />
	</g>
	<g>
		<path class="st0" d="M454.2,297.3c-0.1,0.2-0.1,0.5-0.2,1.1c-0.2,1.7-0.3,2.3-0.5,3.2c-0.3,1.1-0.8,2.2-1.5,3.3    c-0.3,0.4-0.5,0.7-1,1.3c-0.2-0.2-0.4-0.4-0.7-0.5c0.9-0.8,1.7-1.9,2.2-3.2c0.4-0.9,0.6-1.9,0.7-3.1c0.1-0.4,0.1-1.4,0.1-1.6    c0-0.2,0-0.4,0-0.5L454.2,297.3z M457.6,296.7c0,0.2,0,0.3,0,0.3c0,0.7,0.1,1.9,0.3,2.8c0.3,1.4,0.8,2.7,1.6,4    c0.5,0.8,0.8,1.2,1.4,1.7c-0.2,0.2-0.4,0.3-0.6,0.6c-0.9-0.9-1.7-2.1-2.3-3.4c-0.4-1-0.7-1.9-0.9-3c-0.1-0.5-0.1-0.5-0.3-2.1    c0-0.4-0.1-0.5-0.1-0.8L457.6,296.7z" />
		<path class="st0" d="M464.4,302.9c-0.1,0.6-0.2,1.2-0.5,1.7c-0.3,0.7-0.6,1.2-1.2,1.9c-0.2-0.3-0.4-0.4-0.6-0.6    c0.7-0.7,1.1-1.3,1.3-2.2c0.3-1.1,0.4-2.4,0.4-4.9c0-0.9,0-1.4,0-1.8c0.4,0,0.7,0.1,1.2,0.1h4.3c0.5,0,0.8,0,1.2-0.1    c0,0.3,0,0.6,0,1.1v7.2c0,0.4-0.1,0.6-0.3,0.8c-0.2,0.1-0.4,0.1-0.9,0.1c-0.4,0-0.8,0-1.3,0c0-0.3-0.1-0.5-0.2-0.7    c0.6,0.1,1.1,0.1,1.6,0.1c0.3,0,0.4-0.1,0.4-0.3v-2.4H464.4z M469.6,300.2h-5c0,0.6,0,1.1-0.1,2h5.2V300.2z M469.6,297.8h-5l0,1.6    v0.3h5V297.8z" />
	</g>
	<g>
		<path class="st0" d="M506.5,299.7c-0.7,0-1,0-1.3,0.1V299c0.3,0,0.7,0.1,1.3,0.1h1.8c0-0.7,0.1-1.1,0.1-1.5c0-0.4,0-0.6,0-0.9h0.9    c0,0.3,0,0.4-0.1,0.9c0,0.4-0.1,1.3-0.1,1.6h2.1c0.5,0,0.9,0,1.3-0.1c0,0.4-0.1,0.7-0.1,1.2l0,5c0,0.3,0,0.3,0.8,0.3    s0.9-0.1,1-0.4c0.1-0.3,0.2-1,0.2-2c0.3,0.2,0.5,0.2,0.7,0.3c-0.1,1.3-0.2,2-0.5,2.3c-0.2,0.3-0.6,0.4-1.6,0.4    c-1.1,0-1.4-0.1-1.4-0.8l0-5.7H509c-0.1,1.1-0.1,1.3-0.3,1.9c-0.5,2.2-1.6,3.6-3.6,4.8c-0.2-0.3-0.3-0.4-0.5-0.6    c0.7-0.4,1-0.6,1.4-1c1-0.9,1.6-1.8,1.9-3.2c0.1-0.6,0.2-1.2,0.3-1.8H506.5z" />
		<path class="st0" d="M518.6,302.9c-0.1,0.6-0.2,1.2-0.5,1.7c-0.3,0.7-0.6,1.2-1.2,1.9c-0.2-0.3-0.4-0.4-0.6-0.6    c0.7-0.7,1.1-1.3,1.3-2.2c0.3-1.1,0.4-2.4,0.4-4.9c0-0.9,0-1.4,0-1.8c0.4,0,0.7,0.1,1.2,0.1h4.3c0.5,0,0.8,0,1.2-0.1    c0,0.3,0,0.6,0,1.1v7.2c0,0.4-0.1,0.6-0.3,0.8c-0.2,0.1-0.4,0.1-0.9,0.1c-0.4,0-0.8,0-1.3,0c0-0.3-0.1-0.5-0.2-0.7    c0.6,0.1,1.1,0.1,1.6,0.1c0.3,0,0.4-0.1,0.4-0.3v-2.4H518.6z M523.8,300.2h-5c0,0.6,0,1.1-0.1,2h5.2V300.2z M523.8,297.8h-5l0,1.6    v0.3h5V297.8z" />
	</g>
	<g>
		<path class="st0" d="M567.7,300.5c0.6,0,0.9,0,1.3-0.1v0.9c-0.4,0-0.7-0.1-1.3-0.1h-3.5v4c0,0.6,0,0.9,0.1,1.3h-1    c0.1-0.4,0.1-0.8,0.1-1.3v-4h-3.2c-0.5,0-0.9,0-1.3,0.1v-0.9c0.4,0,0.7,0.1,1.3,0.1h3.2v-2.8c0-0.5,0-0.8-0.1-1.2h0.9    c0,0.3-0.1,0.7-0.1,1.2v2.8H567.7z" />
		<path class="st0" d="M572.7,302.9c-0.1,0.6-0.2,1.2-0.5,1.7c-0.3,0.7-0.6,1.2-1.2,1.9c-0.2-0.3-0.4-0.4-0.6-0.6    c0.7-0.7,1.1-1.3,1.3-2.2c0.3-1.1,0.4-2.4,0.4-4.9c0-0.9,0-1.4,0-1.8c0.4,0,0.7,0.1,1.2,0.1h4.3c0.5,0,0.8,0,1.2-0.1    c0,0.3,0,0.6,0,1.1v7.2c0,0.4-0.1,0.6-0.3,0.8c-0.2,0.1-0.4,0.1-0.9,0.1c-0.4,0-0.8,0-1.3,0c0-0.3-0.1-0.5-0.2-0.7    c0.6,0.1,1.1,0.1,1.6,0.1c0.3,0,0.4-0.1,0.4-0.3v-2.4H572.7z M578,300.2h-5c0,0.6,0,1.1-0.1,2h5.2V300.2z M578,297.8h-5l0,1.6v0.3    h5V297.8z" />
	</g>
	<g>
		<path class="st0" d="M616.2,300.5c0.6,0,0.9,0,1.3-0.1v0.9c-0.4,0-0.7-0.1-1.3-0.1h-3.5v4c0,0.6,0,0.9,0.1,1.3h-1    c0.1-0.4,0.1-0.8,0.1-1.3v-4h-3.2c-0.5,0-0.9,0-1.3,0.1v-0.9c0.4,0,0.7,0.1,1.3,0.1h3.2v-2.8c0-0.5,0-0.8-0.1-1.2h0.9    c0,0.3-0.1,0.7-0.1,1.2v2.8H616.2z" />
		<path class="st0" d="M628.7,301.8c-0.4-0.1-0.8-0.1-1.5-0.1h-7c-0.6,0-1.1,0-1.5,0.1v-0.9c0.4,0.1,0.8,0.1,1.5,0.1h7    c0.7,0,1.2,0,1.5-0.1V301.8z" />
		<path class="st0" d="M632.5,302.9c-0.1,0.6-0.2,1.2-0.5,1.7c-0.3,0.7-0.6,1.2-1.2,1.9c-0.2-0.3-0.4-0.4-0.6-0.6    c0.7-0.7,1.1-1.3,1.3-2.2c0.3-1.1,0.4-2.4,0.4-4.9c0-0.9,0-1.4,0-1.8c0.4,0,0.7,0.1,1.2,0.1h4.3c0.5,0,0.8,0,1.2-0.1    c0,0.3,0,0.6,0,1.1v7.2c0,0.4-0.1,0.6-0.3,0.8c-0.2,0.1-0.4,0.1-0.9,0.1c-0.4,0-0.8,0-1.3,0c0-0.3-0.1-0.5-0.2-0.7    c0.6,0.1,1.1,0.1,1.6,0.1c0.3,0,0.4-0.1,0.4-0.3v-2.4H632.5z M637.8,300.2h-5c0,0.6,0,1.1-0.1,2h5.2V300.2z M637.8,297.8h-5l0,1.6    v0.3h5V297.8z" />
	</g>
	<g>
		<path class="st0" d="M669.3,300.5c0.6,0,0.9,0,1.3-0.1v0.9c-0.4,0-0.7-0.1-1.3-0.1h-3.5v4c0,0.6,0,0.9,0.1,1.3h-1    c0.1-0.4,0.1-0.8,0.1-1.3v-4h-3.2c-0.5,0-0.9,0-1.3,0.1v-0.9c0.4,0,0.7,0.1,1.3,0.1h3.2v-2.8c0-0.5,0-0.8-0.1-1.2h0.9    c0,0.3-0.1,0.7-0.1,1.2v2.8H669.3z" />
		<path class="st0" d="M681.8,305.2c-0.4-0.1-0.8-0.1-1.5-0.1h-6.7c-0.7,0-1.1,0-1.5,0.1v-0.9c0.4,0.1,0.7,0.1,1.5,0.1h6.7    c0.8,0,1.1,0,1.5-0.1V305.2z M673.1,297.8c0.4,0.1,0.8,0.1,1.5,0.1h4.6c0.8,0,1.1,0,1.5-0.1v0.9c-0.4-0.1-0.8-0.1-1.5-0.1h-4.6    c-0.7,0-1.1,0-1.5,0.1V297.8z" />
		<path class="st0" d="M685.7,302.9c-0.1,0.6-0.2,1.2-0.5,1.7c-0.3,0.7-0.6,1.2-1.2,1.9c-0.2-0.3-0.4-0.4-0.6-0.6    c0.7-0.7,1.1-1.3,1.3-2.2c0.3-1.1,0.4-2.4,0.4-4.9c0-0.9,0-1.4,0-1.8c0.4,0,0.7,0.1,1.2,0.1h4.3c0.5,0,0.8,0,1.2-0.1    c0,0.3,0,0.6,0,1.1v7.2c0,0.4-0.1,0.6-0.3,0.8c-0.2,0.1-0.4,0.1-0.9,0.1c-0.4,0-0.8,0-1.3,0c0-0.3-0.1-0.5-0.2-0.7    c0.6,0.1,1.1,0.1,1.6,0.1c0.3,0,0.4-0.1,0.4-0.3v-2.4H685.7z M691,300.2h-5c0,0.6,0,1.1-0.1,2h5.2V300.2z M691,297.8h-5l0,1.6v0.3    h5V297.8z" />
	</g>
	<rect x="55" y="12.1" class="st1" width="54.2" height="23" />
	<rect x="55" y="35.1" class="st2" width="54.2" height="23" />
	<rect x="55" y="58.1" class="st2" width="54.2" height="23" />
	<rect x="55" y="81.1" class="st3" width="54.2" height="23" />
	<rect x="55" y="104.1" class="st1" width="54.2" height="23" />
	<rect x="55" y="127.1" class="st4" width="54.2" height="23" />
	<rect x="55" y="150.1" class="st5" width="54.2" height="23" />
	<rect x="55" y="173.1" class="st2" width="54.2" height="23" />
	<rect x="55" y="196.1" class="st1" width="54.2" height="23" />
	<rect x="55" y="219.1" class="st6" width="54.2" height="23" />
	<rect x="55" y="242.1" class="st1" width="54.2" height="23" />
	<rect x="55" y="265.1" class="st1" width="54.2" height="23" />
	<rect x="109.2" y="12.1" class="st3" width="54.2" height="23" />
	<rect x="109.2" y="35.1" class="st2" width="54.2" height="23" />
	<rect x="109.2" y="58.1" class="st1" width="54.2" height="23" />
	<rect x="109.2" y="81.1" class="st7" width="54.2" height="23" />
	<rect x="109.2" y="104.1" class="st3" width="54.2" height="23" />
	<rect x="109.2" y="127.1" class="st2" width="54.2" height="23" />
	<rect x="109.2" y="150.1" class="st4" width="54.2" height="23" />
	<rect x="109.2" y="173.1" class="st1" width="54.2" height="23" />
	<rect x="109.2" y="196.1" class="st1" width="54.2" height="23" />
	<rect x="109.2" y="219.1" class="st2" width="54.2" height="23" />
	<rect x="109.2" y="242.1" class="st3" width="54.2" height="23" />
	<rect x="109.2" y="265.1" class="st3" width="54.2" height="23" />
	<rect x="163.3" y="12.1" class="st3" width="54.2" height="23" />
	<rect x="163.3" y="35.1" class="st1" width="54.2" height="23" />
	<rect x="163.3" y="58.1" class="st3" width="54.2" height="23" />
	<rect x="163.3" y="81.1" class="st7" width="54.2" height="23" />
	<rect x="163.3" y="104.1" class="st7" width="54.2" height="23" />
	<rect x="163.3" y="127.1" class="st8" width="54.2" height="23" />
	<rect x="163.3" y="150.1" class="st1" width="54.2" height="23" />
	<rect x="163.3" y="173.1" class="st7" width="54.2" height="23" />
	<rect x="163.3" y="196.1" class="st3" width="54.2" height="23" />
	<rect x="163.3" y="219.1" class="st1" width="54.2" height="23" />
	<rect x="163.3" y="242.1" class="st9" width="54.2" height="23" />
	<rect x="163.3" y="265.1" class="st3" width="54.2" height="23" />
	<rect x="217.5" y="12.1" class="st9" width="54.2" height="23" />
	<rect x="217.5" y="35.1" class="st3" width="54.2" height="23" />
	<rect x="217.5" y="58.1" class="st9" width="54.2" height="23" />
	<rect x="217.5" y="81.1" class="st10" width="54.2" height="23" />
	<rect x="217.5" y="104.1" class="st7" width="54.2" height="23" />
	<rect x="217.5" y="127.1" class="st1" width="54.2" height="23" />
	<rect x="217.5" y="150.1" class="st3" width="54.2" height="23" />
	<rect x="217.5" y="173.1" class="st10" width="54.2" height="23" />
	<rect x="217.5" y="196.1" class="st7" width="54.2" height="23" />
	<rect x="217.5" y="219.1" class="st3" width="54.2" height="23" />
	<rect x="217.5" y="242.1" class="st11" width="54.2" height="23" />
	<rect x="217.5" y="265.1" class="st9" width="54.2" height="23" />
	<rect x="271.7" y="12.1" class="st9" width="54.2" height="23" />
	<rect x="271.7" y="35.1" class="st7" width="54.2" height="23" />
	<rect x="271.7" y="58.1" class="st10" width="54.2" height="23" />
	<rect x="271.7" y="81.1" class="st10" width="54.2" height="23" />
	<rect x="271.7" y="104.1" class="st7" width="54.2" height="23" />
	<rect x="271.7" y="127.1" class="st3" width="54.2" height="23" />
	<rect x="271.7" y="150.1" class="st9" width="54.2" height="23" />
	<rect x="271.7" y="173.1" class="st10" width="54.2" height="23" />
	<rect x="271.7" y="196.1" class="st10" width="54.2" height="23" />
	<rect x="271.7" y="219.1" class="st3" width="54.2" height="23" />
	<rect x="271.7" y="242.1" class="st12" width="54.2" height="23" />
	<rect x="271.7" y="265.1" class="st9" width="54.2" height="23" />
	<rect x="325.8" y="12.1" class="st10" width="54.2" height="23" />
	<rect x="325.8" y="35.1" class="st9" width="54.2" height="23" />
	<rect x="325.8" y="58.1" class="st13" width="54.2" height="23" />
	<rect x="325.8" y="81.1" class="st12" width="54.2" height="23" />
	<rect x="325.8" y="104.1" class="st10" width="54.2" height="23" />
	<rect x="325.8" y="127.1" class="st9" width="54.2" height="23" />
	<rect x="325.8" y="150.1" class="st13" width="54.2" height="23" />
	<rect x="325.8" y="173.1" class="st12" width="54.2" height="23" />
	<rect x="325.8" y="196.1" class="st10" width="54.2" height="23" />
	<rect x="325.8" y="219.1" class="st7" width="54.2" height="23" />
	<rect x="325.8" y="242.1" class="st12" width="54.2" height="23" />
	<rect x="325.8" y="265.1" class="st10" width="54.2" height="23" />
	<rect x="380" y="12.1" class="st12" width="54.2" height="23" />
	<rect x="380" y="35.1" class="st11" width="54.2" height="23" />
	<rect x="380" y="58.1" class="st14" width="54.2" height="23" />
	<rect x="380" y="81.1" class="st15" width="54.2" height="23" />
	<rect x="380" y="104.1" class="st13" width="54.2" height="23" />
	<rect x="380" y="127.1" class="st9" width="54.2" height="23" />
	<rect x="380" y="150.1" class="st11" width="54.2" height="23" />
	<rect x="380" y="173.1" class="st14" width="54.2" height="23" />
	<rect x="380" y="196.1" class="st13" width="54.2" height="23" />
	<rect x="380" y="219.1" class="st9" width="54.2" height="23" />
	<rect x="380" y="242.1" class="st15" width="54.2" height="23" />
	<rect x="380" y="265.1" class="st11" width="54.2" height="23" />
	<rect x="434.2" y="12.1" class="st10" width="54.2" height="23" />
	<rect x="434.2" y="35.1" class="st13" width="54.2" height="23" />
	<rect x="434.2" y="58.1" class="st11" width="54.2" height="23" />
	<rect x="434.2" y="81.1" class="st14" width="54.2" height="23" />
	<rect x="434.2" y="104.1" class="st13" width="54.2" height="23" />
	<rect x="434.2" y="127.1" class="st9" width="54.2" height="23" />
	<rect x="434.2" y="150.1" class="st10" width="54.2" height="23" />
	<rect x="434.2" y="173.1" class="st11" width="54.2" height="23" />
	<rect x="434.2" y="196.1" class="st10" width="54.2" height="23" />
	<rect x="434.2" y="219.1" class="st7" width="54.2" height="23" />
	<rect x="434.2" y="242.1" class="st14" width="54.2" height="23" />
	<rect x="434.2" y="265.1" class="st13" width="54.2" height="23" />
	<rect x="488.3" y="12.1" class="st9" width="54.2" height="23" />
	<rect x="488.3" y="35.1" class="st9" width="54.2" height="23" />
	<rect x="488.3" y="58.1" class="st10" width="54.2" height="23" />
	<rect x="488.3" y="81.1" class="st11" width="54.2" height="23" />
	<rect x="488.3" y="104.1" class="st9" width="54.2" height="23" />
	<rect x="488.3" y="127.1" class="st7" width="54.2" height="23" />
	<rect x="488.3" y="150.1" class="st9" width="54.2" height="23" />
	<rect x="488.3" y="173.1" class="st10" width="54.2" height="23" />
	<rect x="488.3" y="196.1" class="st9" width="54.2" height="23" />
	<rect x="488.3" y="219.1" class="st7" width="54.2" height="23" />
	<rect x="488.3" y="242.1" class="st11" width="54.2" height="23" />
	<rect x="488.3" y="265.1" class="st9" width="54.2" height="23" />
	<rect x="542.5" y="12.1" class="st7" width="54.2" height="23" />
	<rect x="542.5" y="35.1" class="st3" width="54.2" height="23" />
	<rect x="542.5" y="58.1" class="st7" width="54.2" height="23" />
	<rect x="542.5" y="81.1" class="st10" width="54.2" height="23" />
	<rect x="542.5" y="104.1" class="st7" width="54.2" height="23" />
	<rect x="542.5" y="127.1" class="st3" width="54.2" height="23" />
	<rect x="542.5" y="150.1" class="st1" width="54.2" height="23" />
	<rect x="542.5" y="173.1" class="st7" width="54.2" height="23" />
	<rect x="542.5" y="196.1" class="st3" width="54.2" height="23" />
	<rect x="542.5" y="219.1" class="st1" width="54.2" height="23" />
	<rect x="542.5" y="242.1" class="st10" width="54.2" height="23" />
	<rect x="542.5" y="265.1" class="st9" width="54.2" height="23" />
	<rect x="596.7" y="12.1" class="st3" width="54.2" height="23" />
	<rect x="596.7" y="35.1" class="st1" width="54.2" height="23" />
	<rect x="596.7" y="58.1" class="st7" width="54.2" height="23" />
	<rect x="596.7" y="81.1" class="st7" width="54.2" height="23" />
	<rect x="596.7" y="104.1" class="st3" width="54.2" height="23" />
	<rect x="596.7" y="127.1" class="st1" width="54.2" height="23" />
	<rect x="596.7" y="150.1" class="st8" width="54.2" height="23" />
	<rect x="596.7" y="173.1" class="st3" width="54.2" height="23" />
	<rect x="596.7" y="196.1" class="st1" width="54.2" height="23" />
	<rect x="596.7" y="219.1" class="st1" width="54.2" height="23" />
	<rect x="596.7" y="242.1" class="st7" width="54.2" height="23" />
	<rect x="596.7" y="265.1" class="st3" width="54.2" height="23" />
	<rect x="650.8" y="12.1" class="st3" width="54.2" height="23" />
	<rect x="650.8" y="35.1" class="st2" width="54.2" height="23" />
	<rect x="650.8" y="58.1" class="st1" width="54.2" height="23" />
	<rect x="650.8" y="81.1" class="st7" width="54.2" height="23" />
	<rect x="650.8" y="104.1" class="st3" width="54.2" height="23" />
	<rect x="650.8" y="127.1" class="st8" width="54.2" height="23" />
	<rect x="650.8" y="150.1" class="st2" width="54.2" height="23" />
	<rect x="650.8" y="173.1" class="st1" width="54.2" height="23" />
	<rect x="650.8" y="196.1" class="st1" width="54.2" height="23" />
	<rect x="650.8" y="219.1" class="st2" width="54.2" height="23" />
	<rect x="650.8" y="242.1" class="st1" width="54.2" height="23" />
	<rect x="650.8" y="265.1" class="st1" width="54.2" height="23" />
	<g>
	</g>
	<g>
	</g>
	<g>
	</g>
	<g>
	</g>
	<g>
	</g>
	<g>
	</g>
	<g>
	</g>
	<g>
	</g>
	<g>
	</g>
	<g>
	</g>
</g>
</svg>