<svg width="900" height="340" viewBox="-70,-30,880,340" style="max-width: 100%; height: auto; font: 10px sans-serif;" xmlns="http://www.w3.org/2000/svg">

<style type="text/css">.st0 {fill: none;stroke:#CCCCCC;;}
	.st1 {fill: hsl(0, 0%, 56%);;}
	.st2 {fill: none;stroke:#333333;;}
	.st3 {fill: hsl(345, 77%, 60%);;}
	.st4 {fill: hsl(80, 48%, 49%);;}</style>
<g id="Layer_3">
</g>
<g id="Layer_2">
	<polyline class="st0" points="51.7,26 51.7,284.9 703.6,284.9  " />
	<line class="st0" x1="52.2" y1="26" x2="45.9" y2="26" />
	<line class="st0" x1="51.7" y1="54.5" x2="45.9" y2="54.5" />
	<line class="st0" x1="51.7" y1="82.9" x2="45.9" y2="82.9" />
	<line class="st0" x1="51.7" y1="111.4" x2="45.9" y2="111.4" />
	<line class="st0" x1="51.7" y1="139.7" x2="45.9" y2="139.7" />
	<line class="st0" x1="51.7" y1="167.9" x2="45.9" y2="167.9" />
	<line class="st0" x1="51.7" y1="196.4" x2="45.9" y2="196.4" />
	<line class="st0" x1="51.7" y1="224.4" x2="45.9" y2="224.4" />
	<line class="st0" x1="51.7" y1="253" x2="45.9" y2="253" />
	<line class="st0" x1="96.4" y1="290.8" x2="96.4" y2="284.9" />
	<line class="st0" x1="446.1" y1="290.8" x2="446.1" y2="284.9" />
	<line class="st0" x1="51.7" y1="284.9" x2="45.9" y2="284.9" />
	<g>
		<path class="st1" d="M33.6,288.4c-0.8-0.1-1.2-0.2-1.6-0.6c-0.3-0.3-0.5-0.7-0.6-1.3l0.7-0.1c0,0.5,0.1,0.8,0.4,1    c0.2,0.3,0.5,0.4,1,0.4v-2.6c-0.7-0.1-0.9-0.2-1.3-0.5c-0.4-0.3-0.7-0.7-0.7-1.3c0-0.6,0.3-1.1,0.7-1.4c0.3-0.2,0.6-0.3,1.2-0.4    v-0.4h0.5v0.4c0.7,0.1,1,0.2,1.4,0.6c0.3,0.3,0.4,0.6,0.5,1.1l-0.7,0.1c-0.1-0.4-0.2-0.6-0.4-0.8c-0.2-0.2-0.4-0.3-0.8-0.3v2.3    c0.8,0.2,1.1,0.3,1.4,0.5c0.4,0.3,0.6,0.7,0.6,1.3c0,0.7-0.3,1.2-0.8,1.5c-0.3,0.2-0.6,0.3-1.3,0.4v0.8h-0.5V288.4z M33.6,282.4    c-0.4,0.1-0.6,0.1-0.9,0.3c-0.3,0.2-0.4,0.5-0.4,0.9c0,0.4,0.2,0.7,0.6,0.9c0.2,0.1,0.3,0.1,0.6,0.2V282.4z M34.1,287.9    c0.5-0.1,0.7-0.1,0.9-0.3c0.3-0.2,0.5-0.6,0.5-1c0-0.4-0.1-0.7-0.4-0.9c-0.2-0.1-0.4-0.2-1-0.3V287.9z" />
		<path class="st1" d="M38.2,288c-0.2-0.2-0.4-0.5-0.5-0.8c-0.2-0.6-0.3-1.3-0.3-2c0-0.9,0.2-1.9,0.5-2.4c0.4-0.7,1.1-1.1,2-1.1    c0.6,0,1.2,0.2,1.6,0.6c0.2,0.2,0.4,0.5,0.5,0.8c0.2,0.6,0.3,1.3,0.3,2c0,1.1-0.2,2-0.6,2.5c-0.4,0.6-1,0.9-1.9,0.9    C39.1,288.6,38.6,288.4,38.2,288z M38.7,282.7c-0.2,0.2-0.3,0.4-0.4,0.6c-0.2,0.5-0.3,1.1-0.3,1.8c0,0.8,0.2,1.7,0.4,2.1    c0.3,0.5,0.8,0.8,1.4,0.8c0.4,0,0.8-0.1,1.1-0.4c0.2-0.2,0.3-0.4,0.4-0.7c0.2-0.5,0.3-1.1,0.3-1.8c0-0.8-0.2-1.6-0.4-2    c-0.3-0.5-0.8-0.8-1.4-0.8C39.3,282.3,39,282.4,38.7,282.7z" />
	</g>
	<g>
		<path class="st1" d="M93.1,303.4c-0.3-0.1-0.7-0.1-1.2-0.1h-6.7c-0.6,0-0.9,0-1.3,0.1v-0.9c0.4,0,0.7,0.1,1.3,0.1h6.7    c0.6,0,0.9,0,1.2-0.1V303.4z M84.7,295.3c0.3,0.1,0.6,0.1,1.2,0.1H91c0.6,0,0.9,0,1.3-0.1v0.8c-0.4,0-0.7-0.1-1.3-0.1h-5.1    c-0.6,0-0.9,0-1.2,0.1V295.3z M85.3,298.7c0.3,0,0.6,0.1,1.1,0.1h4.1c0.5,0,0.8,0,1.1-0.1v0.8c-0.3,0-0.6-0.1-1.1-0.1h-4.1    c-0.5,0-0.8,0-1.1,0.1V298.7z" />
		<path class="st1" d="M100.9,300.7c-0.1,0.6-0.2,1.1-0.4,1.7c-0.3,0.7-0.6,1.2-1.2,1.9c-0.2-0.2-0.3-0.4-0.6-0.6    c0.7-0.7,1-1.2,1.3-2.1c0.3-1,0.4-2.3,0.4-4.8c0-0.9,0-1.3,0-1.7c0.4,0,0.7,0.1,1.1,0.1h4c0.5,0,0.7,0,1.1-0.1c0,0.3,0,0.6,0,1.1    v7c0,0.4-0.1,0.6-0.3,0.7c-0.2,0.1-0.4,0.1-0.9,0.1c-0.4,0-0.8,0-1.3,0c0-0.3-0.1-0.4-0.2-0.7c0.5,0.1,1,0.1,1.5,0.1    c0.3,0,0.4-0.1,0.4-0.3v-2.4H100.9z M105.8,298.1h-4.8c0,0.6,0,1-0.1,1.9h4.9V298.1z M105.8,295.7h-4.8l0,1.5v0.3h4.8V295.7z" />
	</g>
	<g>
		<path class="st1" d="M434.5,296.6c0-0.5,0-0.9-0.1-1.3c0.4,0,0.7,0.1,1.2,0.1h6.4c0.6,0,0.9,0,1.3-0.1c0,0.4-0.1,0.7-0.1,1.3v5.9    c0,0.7,0,0.9,0.1,1.2h-0.8v-0.6h-7.4v0.6h-0.8c0.1-0.3,0.1-0.6,0.1-1.2V296.6z M438,296c0,1.5-0.2,2.6-0.6,3.3    c-0.3,0.7-0.9,1.3-1.7,1.8c-0.1-0.2-0.3-0.4-0.5-0.5c0.8-0.5,1.3-1,1.6-1.7c0.3-0.7,0.4-1.5,0.4-2.9h-2.2v6.5h7.4V296h-2.4v3.6    c0,0.3,0,0.3,0.5,0.3c0.4,0,0.8,0,1.5-0.1v0.7c-0.5,0.1-0.8,0.1-1.5,0.1c-1.1,0-1.2-0.1-1.2-0.7V296H438z" />
		<path class="st1" d="M451.3,300.7c-0.1,0.6-0.2,1.1-0.4,1.7c-0.3,0.7-0.6,1.2-1.2,1.9c-0.2-0.2-0.3-0.4-0.6-0.6    c0.7-0.7,1-1.2,1.3-2.1c0.3-1,0.4-2.3,0.4-4.8c0-0.9,0-1.3,0-1.7c0.4,0,0.7,0.1,1.1,0.1h4c0.5,0,0.7,0,1.1-0.1c0,0.3,0,0.6,0,1.1    v7c0,0.4-0.1,0.6-0.3,0.7c-0.2,0.1-0.4,0.1-0.9,0.1c-0.4,0-0.8,0-1.3,0c0-0.3-0.1-0.4-0.2-0.7c0.5,0.1,1,0.1,1.5,0.1    c0.3,0,0.4-0.1,0.4-0.3v-2.4H451.3z M456.2,298.1h-4.8c0,0.6,0,1-0.1,1.9h4.9V298.1z M456.2,295.7h-4.8l0,1.5v0.3h4.8V295.7z" />
	</g>
	<g>
		<path class="st1" d="M27.7,256.5c-0.8-0.1-1.2-0.2-1.6-0.6c-0.3-0.3-0.5-0.7-0.6-1.3l0.7-0.1c0,0.5,0.1,0.8,0.4,1    c0.2,0.3,0.5,0.4,1,0.4v-2.6c-0.7-0.1-0.9-0.2-1.3-0.5c-0.4-0.3-0.7-0.7-0.7-1.3c0-0.6,0.3-1.1,0.7-1.4c0.3-0.2,0.6-0.3,1.2-0.4    v-0.4h0.5v0.4c0.7,0.1,1,0.2,1.4,0.6c0.3,0.3,0.4,0.6,0.5,1.1l-0.7,0.1c-0.1-0.4-0.2-0.6-0.4-0.8c-0.2-0.2-0.4-0.3-0.8-0.3v2.3    c0.8,0.2,1.1,0.3,1.4,0.5c0.4,0.3,0.6,0.7,0.6,1.3c0,0.7-0.3,1.2-0.8,1.5c-0.3,0.2-0.6,0.3-1.3,0.4v0.8h-0.5V256.5z M27.7,250.5    c-0.4,0.1-0.6,0.1-0.9,0.3c-0.3,0.2-0.4,0.5-0.4,0.9c0,0.4,0.2,0.7,0.6,0.9c0.2,0.1,0.3,0.1,0.6,0.2V250.5z M28.1,256    c0.5-0.1,0.7-0.1,0.9-0.3c0.3-0.2,0.5-0.6,0.5-1c0-0.4-0.1-0.7-0.4-0.9c-0.2-0.1-0.4-0.2-1-0.3V256z" />
		<path class="st1" d="M32.3,249.8c0.2,0,0.4,0,0.7,0h0.6c0.3,0,0.4,0,0.7,0c-0.1,0.5-0.1,1-0.1,1.5v4.2c0,0.4,0,0.7,0.1,1h-0.8    c0.1-0.3,0.1-0.6,0.1-1v-5.1h-0.5c-0.3,0-0.5,0-0.8,0.1V249.8z" />
		<path class="st1" d="M38.2,256c-0.2-0.2-0.4-0.5-0.5-0.8c-0.2-0.6-0.3-1.3-0.3-2c0-0.9,0.2-1.9,0.5-2.4c0.4-0.7,1.1-1.1,2-1.1    c0.6,0,1.2,0.2,1.6,0.6c0.2,0.2,0.4,0.5,0.5,0.8c0.2,0.6,0.3,1.3,0.3,2c0,1.1-0.2,2-0.6,2.5c-0.4,0.6-1,0.9-1.9,0.9    C39.1,256.7,38.6,256.5,38.2,256z M38.7,250.8c-0.2,0.2-0.3,0.4-0.4,0.6c-0.2,0.5-0.3,1.1-0.3,1.8c0,0.8,0.2,1.7,0.4,2.1    c0.3,0.5,0.8,0.8,1.4,0.8c0.4,0,0.8-0.1,1.1-0.4c0.2-0.2,0.3-0.4,0.4-0.7c0.2-0.5,0.3-1.1,0.3-1.8c0-0.8-0.2-1.6-0.4-2    c-0.3-0.5-0.8-0.8-1.4-0.8C39.3,250.4,39,250.5,38.7,250.8z" />
	</g>
	<g>
		<path class="st1" d="M27.7,228.2c-0.8-0.1-1.2-0.2-1.6-0.6c-0.3-0.3-0.5-0.7-0.6-1.3l0.7-0.1c0,0.5,0.1,0.8,0.4,1    c0.2,0.3,0.5,0.4,1,0.4V225c-0.7-0.1-0.9-0.2-1.3-0.5c-0.4-0.3-0.7-0.7-0.7-1.3c0-0.6,0.3-1.1,0.7-1.4c0.3-0.2,0.6-0.3,1.2-0.4    v-0.4h0.5v0.4c0.7,0.1,1,0.2,1.4,0.6c0.3,0.3,0.4,0.6,0.5,1.1l-0.7,0.1c-0.1-0.4-0.2-0.6-0.4-0.8c-0.2-0.2-0.4-0.3-0.8-0.3v2.3    c0.8,0.2,1.1,0.3,1.4,0.5c0.4,0.3,0.6,0.7,0.6,1.3c0,0.7-0.3,1.2-0.8,1.5c-0.3,0.2-0.6,0.3-1.3,0.4v0.8h-0.5V228.2z M27.7,222.1    c-0.4,0.1-0.6,0.1-0.9,0.3c-0.3,0.2-0.4,0.5-0.4,0.9c0,0.4,0.2,0.7,0.6,0.9c0.2,0.1,0.3,0.1,0.6,0.2V222.1z M28.1,227.6    c0.5-0.1,0.7-0.1,0.9-0.3c0.3-0.2,0.5-0.6,0.5-1c0-0.4-0.1-0.7-0.4-0.9c-0.2-0.1-0.4-0.2-1-0.3V227.6z" />
		<path class="st1" d="M32.4,228.2c-0.6,0-0.7,0-1,0c0.1-0.7,0.1-0.8,0.3-1.2c0.2-0.6,0.6-1,1.1-1.5c0.3-0.3,0.3-0.3,1.3-1    c0.9-0.6,1.2-1,1.2-1.5c0-0.7-0.6-1.1-1.5-1.1c-0.6,0-1,0.2-1.3,0.6c-0.2,0.2-0.2,0.4-0.3,0.9l-0.7-0.1c0.1-0.6,0.3-0.9,0.6-1.3    c0.4-0.4,1-0.7,1.8-0.7c1.3,0,2.2,0.7,2.2,1.7c0,0.4-0.2,0.9-0.5,1.2c-0.3,0.3-0.5,0.5-1.5,1.1c-0.7,0.5-1,0.7-1.3,1.1    c-0.3,0.4-0.4,0.6-0.5,1h2.8c0.4,0,0.7,0,1.1-0.1v0.7c-0.3,0-0.6-0.1-1.1-0.1H32.4z" />
		<path class="st1" d="M38.2,227.7c-0.2-0.2-0.4-0.5-0.5-0.8c-0.2-0.6-0.3-1.3-0.3-2c0-0.9,0.2-1.9,0.5-2.4c0.4-0.7,1.1-1.1,2-1.1    c0.6,0,1.2,0.2,1.6,0.6c0.2,0.2,0.4,0.5,0.5,0.8c0.2,0.6,0.3,1.3,0.3,2c0,1.1-0.2,2-0.6,2.5c-0.4,0.6-1,0.9-1.9,0.9    C39.1,228.3,38.6,228.1,38.2,227.7z M38.7,222.5c-0.2,0.2-0.3,0.4-0.4,0.6c-0.2,0.5-0.3,1.1-0.3,1.8c0,0.8,0.2,1.7,0.4,2.1    c0.3,0.5,0.8,0.8,1.4,0.8c0.4,0,0.8-0.1,1.1-0.4c0.2-0.2,0.3-0.4,0.4-0.7c0.2-0.5,0.3-1.1,0.3-1.8c0-0.8-0.2-1.6-0.4-2    c-0.3-0.5-0.8-0.8-1.4-0.8C39.3,222,39,222.2,38.7,222.5z" />
	</g>
	<g>
		<path class="st1" d="M27.7,199.8c-0.8-0.1-1.2-0.2-1.6-0.6c-0.3-0.3-0.5-0.7-0.6-1.3l0.7-0.1c0,0.5,0.1,0.8,0.4,1    c0.2,0.3,0.5,0.4,1,0.4v-2.6c-0.7-0.1-0.9-0.2-1.3-0.5c-0.4-0.3-0.7-0.7-0.7-1.3c0-0.6,0.3-1.1,0.7-1.4c0.3-0.2,0.6-0.3,1.2-0.4    v-0.4h0.5v0.4c0.7,0.1,1,0.2,1.4,0.6c0.3,0.3,0.4,0.6,0.5,1.1l-0.7,0.1c-0.1-0.4-0.2-0.6-0.4-0.8c-0.2-0.2-0.4-0.3-0.8-0.3v2.3    c0.8,0.2,1.1,0.3,1.4,0.5c0.4,0.3,0.6,0.7,0.6,1.3c0,0.7-0.3,1.2-0.8,1.5c-0.3,0.2-0.6,0.3-1.3,0.4v0.8h-0.5V199.8z M27.7,193.8    c-0.4,0.1-0.6,0.1-0.9,0.3c-0.3,0.2-0.4,0.5-0.4,0.9c0,0.4,0.2,0.7,0.6,0.9c0.2,0.1,0.3,0.1,0.6,0.2V193.8z M28.1,199.3    c0.5-0.1,0.7-0.1,0.9-0.3c0.3-0.2,0.5-0.6,0.5-1c0-0.4-0.1-0.7-0.4-0.9c-0.2-0.1-0.4-0.2-1-0.3V199.3z" />
		<path class="st1" d="M32.1,198.2c0.1,0.5,0.3,0.6,0.5,0.8c0.3,0.2,0.7,0.3,1.1,0.3c1,0,1.7-0.5,1.7-1.4c0-0.9-0.6-1.3-1.8-1.3    c-0.2,0-0.5,0-0.7,0V196c0.2,0,0.4,0.1,0.6,0.1c0.6,0,1-0.1,1.3-0.4c0.2-0.2,0.4-0.5,0.4-0.8c0-0.8-0.5-1.2-1.4-1.2    c-0.5,0-0.9,0.1-1.2,0.5c-0.1,0.2-0.2,0.3-0.3,0.6l-0.7-0.2c0.1-0.4,0.3-0.6,0.5-0.9c0.4-0.4,1-0.6,1.7-0.6c1.3,0,2.1,0.7,2.1,1.7    c0,0.5-0.2,1-0.6,1.3c-0.2,0.2-0.4,0.2-0.8,0.3c0.5,0.1,0.8,0.1,1.1,0.4c0.4,0.3,0.6,0.8,0.6,1.3c0,1.2-0.9,1.9-2.4,1.9    c-0.9,0-1.5-0.2-2-0.7c-0.2-0.2-0.3-0.4-0.4-0.8L32.1,198.2z" />
		<path class="st1" d="M38.2,199.3c-0.2-0.2-0.4-0.5-0.5-0.8c-0.2-0.6-0.3-1.3-0.3-2c0-0.9,0.2-1.9,0.5-2.4c0.4-0.7,1.1-1.1,2-1.1    c0.6,0,1.2,0.2,1.6,0.6c0.2,0.2,0.4,0.5,0.5,0.8c0.2,0.6,0.3,1.3,0.3,2c0,1.1-0.2,2-0.6,2.5c-0.4,0.6-1,0.9-1.9,0.9    C39.1,200,38.6,199.8,38.2,199.3z M38.7,194.1c-0.2,0.2-0.3,0.4-0.4,0.6c-0.2,0.5-0.3,1.1-0.3,1.8c0,0.8,0.2,1.7,0.4,2.1    c0.3,0.5,0.8,0.8,1.4,0.8c0.4,0,0.8-0.1,1.1-0.4c0.2-0.2,0.3-0.4,0.4-0.7c0.2-0.5,0.3-1.1,0.3-1.8c0-0.8-0.2-1.6-0.4-2    c-0.3-0.5-0.8-0.8-1.4-0.8C39.3,193.7,39,193.8,38.7,194.1z" />
	</g>
	<g>
		<path class="st1" d="M27.6,171.5c-0.8-0.1-1.2-0.2-1.6-0.6c-0.3-0.3-0.5-0.7-0.6-1.3l0.7-0.1c0,0.5,0.1,0.8,0.4,1    c0.2,0.3,0.5,0.4,1,0.4v-2.6c-0.7-0.1-0.9-0.2-1.3-0.5c-0.4-0.3-0.7-0.7-0.7-1.3c0-0.6,0.3-1.1,0.7-1.4c0.3-0.2,0.6-0.3,1.2-0.4    v-0.4h0.5v0.4c0.7,0.1,1,0.2,1.4,0.6c0.3,0.3,0.4,0.6,0.5,1.1l-0.7,0.1c-0.1-0.4-0.2-0.6-0.4-0.8c-0.2-0.2-0.4-0.3-0.8-0.3v2.3    c0.8,0.2,1.1,0.3,1.4,0.5c0.4,0.3,0.6,0.7,0.6,1.3c0,0.7-0.3,1.2-0.8,1.5c-0.3,0.2-0.6,0.3-1.3,0.4v0.8h-0.5V171.5z M27.6,165.4    c-0.4,0.1-0.6,0.1-0.9,0.3c-0.3,0.2-0.4,0.5-0.4,0.9c0,0.4,0.2,0.7,0.6,0.9c0.2,0.1,0.3,0.1,0.6,0.2V165.4z M28.1,170.9    c0.5-0.1,0.7-0.1,0.9-0.3c0.3-0.2,0.5-0.6,0.5-1c0-0.4-0.1-0.7-0.4-0.9c-0.2-0.1-0.4-0.2-1-0.3V170.9z" />
		<path class="st1" d="M31.2,169.2c0.2-0.2,0.4-0.5,0.6-0.7l2.2-2.8c0.3-0.4,0.5-0.6,0.7-0.9h0.7c0,0.5-0.1,0.8-0.1,1.5v2.9h0.3    c0.4,0,0.6,0,0.9-0.1v0.7c-0.3,0-0.5-0.1-0.9-0.1h-0.3v0.8c0,0.4,0,0.6,0.1,0.9h-0.8c0.1-0.3,0.1-0.6,0.1-0.9v-0.8h-2.3    c-0.5,0-0.8,0-1,0V169.2z M34.6,167c0-0.5,0-0.7,0.1-1.2c-0.2,0.3-0.4,0.6-0.7,0.9l-2,2.5h2.6V167z" />
		<path class="st1" d="M38.2,171c-0.2-0.2-0.4-0.5-0.5-0.8c-0.2-0.6-0.3-1.3-0.3-2c0-0.9,0.2-1.9,0.5-2.4c0.4-0.7,1.1-1.1,2-1.1    c0.6,0,1.2,0.2,1.6,0.6c0.2,0.2,0.4,0.5,0.5,0.8c0.2,0.6,0.3,1.3,0.3,2c0,1.1-0.2,2-0.6,2.5c-0.4,0.6-1,0.9-1.9,0.9    C39.1,171.6,38.6,171.4,38.2,171z M38.7,165.8c-0.2,0.2-0.3,0.4-0.4,0.6c-0.2,0.5-0.3,1.1-0.3,1.8c0,0.8,0.2,1.7,0.4,2.1    c0.3,0.5,0.8,0.8,1.4,0.8c0.4,0,0.8-0.1,1.1-0.4c0.2-0.2,0.3-0.4,0.4-0.7c0.2-0.5,0.3-1.1,0.3-1.8c0-0.8-0.2-1.6-0.4-2    c-0.3-0.5-0.8-0.8-1.4-0.8C39.3,165.3,39,165.5,38.7,165.8z" />
	</g>
	<g>
		<path class="st1" d="M27.7,143.1c-0.8-0.1-1.2-0.2-1.6-0.6c-0.3-0.3-0.5-0.7-0.6-1.3l0.7-0.1c0,0.5,0.1,0.8,0.4,1    c0.2,0.3,0.5,0.4,1,0.4V140c-0.7-0.1-0.9-0.2-1.3-0.5c-0.4-0.3-0.7-0.7-0.7-1.3c0-0.6,0.3-1.1,0.7-1.4c0.3-0.2,0.6-0.3,1.2-0.4    v-0.4h0.5v0.4c0.7,0.1,1,0.2,1.4,0.6c0.3,0.3,0.4,0.6,0.5,1.1l-0.7,0.1c-0.1-0.4-0.2-0.6-0.4-0.8c-0.2-0.2-0.4-0.3-0.8-0.3v2.3    c0.8,0.2,1.1,0.3,1.4,0.5c0.4,0.3,0.6,0.7,0.6,1.3c0,0.7-0.3,1.2-0.8,1.5c-0.3,0.2-0.6,0.3-1.3,0.4v0.8h-0.5V143.1z M27.7,137.1    c-0.4,0.1-0.6,0.1-0.9,0.3c-0.3,0.2-0.4,0.5-0.4,0.9c0,0.4,0.2,0.7,0.6,0.9c0.2,0.1,0.3,0.1,0.6,0.2V137.1z M28.1,142.6    c0.5-0.1,0.7-0.1,0.9-0.3c0.3-0.2,0.5-0.6,0.5-1c0-0.4-0.1-0.7-0.4-0.9c-0.2-0.1-0.4-0.2-1-0.3V142.6z" />
		<path class="st1" d="M32.5,139c0,0.2,0,0.2-0.1,0.4c0.4-0.4,0.9-0.6,1.5-0.6c0.6,0,1.2,0.2,1.6,0.6c0.4,0.4,0.6,0.9,0.6,1.5    c0,1.4-0.9,2.3-2.4,2.3c-0.7,0-1.3-0.2-1.7-0.6c-0.2-0.2-0.3-0.4-0.6-0.8l0.7-0.2c0.1,0.2,0.1,0.4,0.3,0.5    c0.3,0.3,0.7,0.5,1.2,0.5c1,0,1.6-0.7,1.6-1.7c0-1-0.6-1.6-1.5-1.6c-0.4,0-0.8,0.1-1.1,0.4c-0.2,0.2-0.3,0.3-0.4,0.5l-0.7-0.1    c0.1-0.3,0.1-0.5,0.1-0.9l0.2-2c0-0.3,0-0.4,0-0.5c0-0.1,0-0.2,0-0.4c0.3,0,0.4,0,0.9,0h1.8c0.5,0,0.7,0,1-0.1v0.7    c-0.3-0.1-0.6-0.1-1-0.1h-2.1L32.5,139z" />
		<path class="st1" d="M38.2,142.6c-0.2-0.2-0.4-0.5-0.5-0.8c-0.2-0.6-0.3-1.3-0.3-2c0-0.9,0.2-1.9,0.5-2.4c0.4-0.7,1.1-1.1,2-1.1    c0.6,0,1.2,0.2,1.6,0.6c0.2,0.2,0.4,0.5,0.5,0.8c0.2,0.6,0.3,1.3,0.3,2c0,1.1-0.2,2-0.6,2.5c-0.4,0.6-1,0.9-1.9,0.9    C39.1,143.3,38.6,143.1,38.2,142.6z M38.7,137.4c-0.2,0.2-0.3,0.4-0.4,0.6c-0.2,0.5-0.3,1.1-0.3,1.8c0,0.8,0.2,1.7,0.4,2.1    c0.3,0.5,0.8,0.8,1.4,0.8c0.4,0,0.8-0.1,1.1-0.4c0.2-0.2,0.3-0.4,0.4-0.7c0.2-0.5,0.3-1.1,0.3-1.8c0-0.8-0.2-1.6-0.4-2    c-0.3-0.5-0.8-0.8-1.4-0.8C39.3,137,39,137.1,38.7,137.4z" />
	</g>
	<g>
		<path class="st1" d="M27.7,114.8c-0.8-0.1-1.2-0.2-1.6-0.6c-0.3-0.3-0.5-0.7-0.6-1.3l0.7-0.1c0,0.5,0.1,0.8,0.4,1    c0.2,0.3,0.5,0.4,1,0.4v-2.6c-0.7-0.1-0.9-0.2-1.3-0.5c-0.4-0.3-0.7-0.7-0.7-1.3c0-0.6,0.3-1.1,0.7-1.4c0.3-0.2,0.6-0.3,1.2-0.4    v-0.4h0.5v0.4c0.7,0.1,1,0.2,1.4,0.6c0.3,0.3,0.4,0.6,0.5,1.1l-0.7,0.1c-0.1-0.4-0.2-0.6-0.4-0.8c-0.2-0.2-0.4-0.3-0.8-0.3v2.3    c0.8,0.2,1.1,0.3,1.4,0.5c0.4,0.3,0.6,0.7,0.6,1.3c0,0.7-0.3,1.2-0.8,1.5c-0.3,0.2-0.6,0.3-1.3,0.4v0.8h-0.5V114.8z M27.7,108.7    c-0.4,0.1-0.6,0.1-0.9,0.3c-0.3,0.2-0.4,0.5-0.4,0.9c0,0.4,0.2,0.7,0.6,0.9c0.2,0.1,0.3,0.1,0.6,0.2V108.7z M28.1,114.2    c0.5-0.1,0.7-0.1,0.9-0.3c0.3-0.2,0.5-0.6,0.5-1c0-0.4-0.1-0.7-0.4-0.9c-0.2-0.1-0.4-0.2-1-0.3V114.2z" />
		<path class="st1" d="M35.3,109.6c-0.1-0.3-0.2-0.4-0.3-0.6c-0.3-0.3-0.6-0.4-1-0.4c-0.7,0-1.2,0.4-1.5,1.1    c-0.2,0.5-0.3,0.9-0.4,1.9c0.2-0.3,0.2-0.4,0.4-0.6c0.4-0.4,0.9-0.5,1.5-0.5c1.4,0,2.2,0.8,2.2,2.2c0,1.4-0.9,2.2-2.3,2.2    c-0.6,0-1.2-0.2-1.6-0.6c-0.6-0.5-0.9-1.5-0.9-2.7c0-1.1,0.2-2.1,0.7-2.6c0.5-0.6,1.1-1,1.8-1c0.5,0,1,0.1,1.3,0.4    c0.3,0.2,0.5,0.5,0.7,1L35.3,109.6z M33.9,111.1c-0.4,0-0.9,0.2-1.2,0.5c-0.3,0.3-0.4,0.7-0.4,1.1c0,0.9,0.7,1.6,1.7,1.6    c0.6,0,1.1-0.3,1.4-0.7c0.1-0.2,0.2-0.6,0.2-0.9C35.5,111.6,34.9,111.1,33.9,111.1z" />
		<path class="st1" d="M38.2,114.3c-0.2-0.2-0.4-0.5-0.5-0.8c-0.2-0.6-0.3-1.3-0.3-2c0-0.9,0.2-1.9,0.5-2.4c0.4-0.7,1.1-1.1,2-1.1    c0.6,0,1.2,0.2,1.6,0.6c0.2,0.2,0.4,0.5,0.5,0.8c0.2,0.6,0.3,1.3,0.3,2c0,1.1-0.2,2-0.6,2.5c-0.4,0.6-1,0.9-1.9,0.9    C39.1,114.9,38.6,114.7,38.2,114.3z M38.7,109.1c-0.2,0.2-0.3,0.4-0.4,0.6c-0.2,0.5-0.3,1.1-0.3,1.8c0,0.8,0.2,1.7,0.4,2.1    c0.3,0.5,0.8,0.8,1.4,0.8c0.4,0,0.8-0.1,1.1-0.4c0.2-0.2,0.3-0.4,0.4-0.7c0.2-0.5,0.3-1.1,0.3-1.8c0-0.8-0.2-1.6-0.4-2    c-0.3-0.5-0.8-0.8-1.4-0.8C39.3,108.6,39,108.8,38.7,109.1z" />
	</g>
	<g>
		<path class="st1" d="M27.7,86.4c-0.8-0.1-1.2-0.2-1.6-0.6c-0.3-0.3-0.5-0.7-0.6-1.3l0.7-0.1c0,0.5,0.1,0.8,0.4,1    c0.2,0.3,0.5,0.4,1,0.4v-2.6c-0.7-0.1-0.9-0.2-1.3-0.5c-0.4-0.3-0.7-0.7-0.7-1.3c0-0.6,0.3-1.1,0.7-1.4c0.3-0.2,0.6-0.3,1.2-0.4    v-0.4h0.5v0.4c0.7,0.1,1,0.2,1.4,0.6c0.3,0.3,0.4,0.6,0.5,1.1l-0.7,0.1c-0.1-0.4-0.2-0.6-0.4-0.8c-0.2-0.2-0.4-0.3-0.8-0.3v2.3    c0.8,0.2,1.1,0.3,1.4,0.5c0.4,0.3,0.6,0.7,0.6,1.3c0,0.7-0.3,1.2-0.8,1.5c-0.3,0.2-0.6,0.3-1.3,0.4v0.8h-0.5V86.4z M27.7,80.4    c-0.4,0.1-0.6,0.1-0.9,0.3c-0.3,0.2-0.4,0.5-0.4,0.9c0,0.4,0.2,0.7,0.6,0.9c0.2,0.1,0.3,0.1,0.6,0.2V80.4z M28.1,85.8    c0.5-0.1,0.7-0.1,0.9-0.3c0.3-0.2,0.5-0.6,0.5-1c0-0.4-0.1-0.7-0.4-0.9c-0.2-0.1-0.4-0.2-1-0.3V85.8z" />
		<path class="st1" d="M36.1,80.4c-0.2,0.1-0.3,0.3-0.6,0.8c-0.8,1.2-1.2,2-1.5,3c-0.2,0.7-0.3,1.2-0.5,2.2h-0.8    c0.3-1.6,0.5-2.4,1.1-3.5c0.4-0.9,0.8-1.5,1.6-2.5h-2.8c-0.4,0-0.7,0-1,0.1v-0.7c0.3,0,0.6,0.1,1,0.1h2.6c0.5,0,0.7,0,1,0V80.4z" />
		<path class="st1" d="M38.2,85.9c-0.2-0.2-0.4-0.5-0.5-0.8c-0.2-0.6-0.3-1.3-0.3-2c0-0.9,0.2-1.9,0.5-2.4c0.4-0.7,1.1-1.1,2-1.1    c0.6,0,1.2,0.2,1.6,0.6c0.2,0.2,0.4,0.5,0.5,0.8c0.2,0.6,0.3,1.3,0.3,2c0,1.1-0.2,2-0.6,2.5c-0.4,0.6-1,0.9-1.9,0.9    C39.1,86.6,38.6,86.3,38.2,85.9z M38.7,80.7c-0.2,0.2-0.3,0.4-0.4,0.6c-0.2,0.5-0.3,1.1-0.3,1.8c0,0.8,0.2,1.7,0.4,2.1    c0.3,0.5,0.8,0.8,1.4,0.8c0.4,0,0.8-0.1,1.1-0.4c0.2-0.2,0.3-0.4,0.4-0.7c0.2-0.5,0.3-1.1,0.3-1.8c0-0.8-0.2-1.6-0.4-2    c-0.3-0.5-0.8-0.8-1.4-0.8C39.3,80.3,39,80.4,38.7,80.7z" />
	</g>
	<g>
		<path class="st1" d="M27.7,58.1c-0.8-0.1-1.2-0.2-1.6-0.6c-0.3-0.3-0.5-0.7-0.6-1.3l0.7-0.1c0,0.5,0.1,0.8,0.4,1    c0.2,0.3,0.5,0.4,1,0.4v-2.6c-0.7-0.1-0.9-0.2-1.3-0.5c-0.4-0.3-0.7-0.7-0.7-1.3c0-0.6,0.3-1.1,0.7-1.4c0.3-0.2,0.6-0.3,1.2-0.4    V51h0.5v0.4c0.7,0.1,1,0.2,1.4,0.6c0.3,0.3,0.4,0.6,0.5,1.1l-0.7,0.1c-0.1-0.4-0.2-0.6-0.4-0.8c-0.2-0.2-0.4-0.3-0.8-0.3v2.3    c0.8,0.2,1.1,0.3,1.4,0.5c0.4,0.3,0.6,0.7,0.6,1.3c0,0.7-0.3,1.2-0.8,1.5c-0.3,0.2-0.6,0.3-1.3,0.4v0.8h-0.5V58.1z M27.7,52    c-0.4,0.1-0.6,0.1-0.9,0.3c-0.3,0.2-0.4,0.5-0.4,0.9c0,0.4,0.2,0.7,0.6,0.9c0.2,0.1,0.3,0.1,0.6,0.2V52z M28.1,57.5    c0.5-0.1,0.7-0.1,0.9-0.3c0.3-0.2,0.5-0.6,0.5-1c0-0.4-0.1-0.7-0.4-0.9c-0.2-0.1-0.4-0.2-1-0.3V57.5z" />
		<path class="st1" d="M35.6,55c0.4,0.3,0.7,0.8,0.7,1.4c0,1.2-0.9,1.9-2.4,1.9c-1.6,0-2.5-0.7-2.5-1.9c0-0.6,0.3-1.1,0.8-1.5    c0.3-0.2,0.5-0.2,0.8-0.3c-0.8-0.1-1.3-0.8-1.3-1.6c0-1.1,0.8-1.7,2.2-1.7c1.3,0,2.2,0.7,2.2,1.7c0,0.8-0.5,1.4-1.3,1.6    C35.1,54.6,35.3,54.7,35.6,55z M32.1,56.3c0,0.8,0.6,1.3,1.7,1.3c0.6,0,1.1-0.2,1.4-0.5c0.2-0.2,0.3-0.5,0.3-0.9    c0-0.9-0.7-1.4-1.7-1.4C32.7,54.9,32.1,55.4,32.1,56.3z M32.3,53.1c0,0.8,0.6,1.3,1.5,1.3s1.5-0.5,1.5-1.3c0-0.7-0.6-1.2-1.5-1.2    C32.9,51.9,32.3,52.3,32.3,53.1z" />
		<path class="st1" d="M38.2,57.6c-0.2-0.2-0.4-0.5-0.5-0.8c-0.2-0.6-0.3-1.3-0.3-2c0-0.9,0.2-1.9,0.5-2.4c0.4-0.7,1.1-1.1,2-1.1    c0.6,0,1.2,0.2,1.6,0.6c0.2,0.2,0.4,0.5,0.5,0.8c0.2,0.6,0.3,1.3,0.3,2c0,1.1-0.2,2-0.6,2.5c-0.4,0.6-1,0.9-1.9,0.9    C39.1,58.2,38.6,58,38.2,57.6z M38.7,52.4c-0.2,0.2-0.3,0.4-0.4,0.6c-0.2,0.5-0.3,1.1-0.3,1.8c0,0.8,0.2,1.7,0.4,2.1    c0.3,0.5,0.8,0.8,1.4,0.8c0.4,0,0.8-0.1,1.1-0.4c0.2-0.2,0.3-0.4,0.4-0.7c0.2-0.5,0.3-1.1,0.3-1.8c0-0.8-0.2-1.6-0.4-2    c-0.3-0.5-0.8-0.8-1.4-0.8C39.3,51.9,39,52.1,38.7,52.4z" />
	</g>
	<g>
		<path class="st1" d="M27.7,29.7c-0.8-0.1-1.2-0.2-1.6-0.6c-0.3-0.3-0.5-0.7-0.6-1.3l0.7-0.1c0,0.5,0.1,0.8,0.4,1    c0.2,0.3,0.5,0.4,1,0.4v-2.6c-0.7-0.1-0.9-0.2-1.3-0.5c-0.4-0.3-0.7-0.7-0.7-1.3c0-0.6,0.3-1.1,0.7-1.4c0.3-0.2,0.6-0.3,1.2-0.4    v-0.4h0.5v0.4c0.7,0.1,1,0.2,1.4,0.6c0.3,0.3,0.4,0.6,0.5,1.1l-0.7,0.1c-0.1-0.4-0.2-0.6-0.4-0.8c-0.2-0.2-0.4-0.3-0.8-0.3V26    c0.8,0.2,1.1,0.3,1.4,0.5c0.4,0.3,0.6,0.7,0.6,1.3c0,0.7-0.3,1.2-0.8,1.5c-0.3,0.2-0.6,0.3-1.3,0.4v0.8h-0.5V29.7z M27.7,23.7    c-0.4,0.1-0.6,0.1-0.9,0.3c-0.3,0.2-0.4,0.5-0.4,0.9c0,0.4,0.2,0.7,0.6,0.9c0.2,0.1,0.3,0.1,0.6,0.2V23.7z M28.1,29.1    c0.5-0.1,0.7-0.1,0.9-0.3c0.3-0.2,0.5-0.6,0.5-1c0-0.4-0.1-0.7-0.4-0.9c-0.2-0.1-0.4-0.2-1-0.3V29.1z" />
		<path class="st1" d="M32.2,28.3c0.1,0.3,0.2,0.4,0.3,0.6c0.2,0.3,0.6,0.4,1.1,0.4c0.6,0,1.1-0.3,1.4-0.8c0.2-0.3,0.3-0.7,0.4-1.1    c0-0.2,0.1-0.6,0.1-1c-0.1,0.2-0.2,0.3-0.3,0.5c-0.4,0.4-0.9,0.6-1.6,0.6c-0.6,0-1.2-0.2-1.6-0.6s-0.6-1-0.6-1.6    c0-1.4,0.9-2.3,2.4-2.3c1,0,1.8,0.6,2.1,1.5c0.2,0.5,0.3,1.1,0.3,1.8c0,1.2-0.3,2.2-0.7,2.8c-0.4,0.6-1,0.8-1.8,0.8    c-0.6,0-1.1-0.2-1.5-0.5c-0.2-0.2-0.4-0.4-0.6-0.9L32.2,28.3z M35.3,25.2c0-0.9-0.7-1.7-1.6-1.7c-0.6,0-1.1,0.3-1.4,0.7    c-0.1,0.2-0.2,0.6-0.2,0.9c0,1,0.6,1.6,1.6,1.6C34.6,26.8,35.3,26.1,35.3,25.2z" />
		<path class="st1" d="M38.2,29.2c-0.2-0.2-0.4-0.5-0.5-0.8c-0.2-0.6-0.3-1.3-0.3-2c0-0.9,0.2-1.9,0.5-2.4c0.4-0.7,1.1-1.1,2-1.1    c0.6,0,1.2,0.2,1.6,0.6c0.2,0.2,0.4,0.5,0.5,0.8c0.2,0.6,0.3,1.3,0.3,2c0,1.1-0.2,2-0.6,2.5c-0.4,0.6-1,0.9-1.9,0.9    C39.1,29.9,38.6,29.6,38.2,29.2z M38.7,24c-0.2,0.2-0.3,0.4-0.4,0.6c-0.2,0.5-0.3,1.1-0.3,1.8c0,0.8,0.2,1.7,0.4,2.1    c0.3,0.5,0.8,0.8,1.4,0.8c0.4,0,0.8-0.1,1.1-0.4c0.2-0.2,0.3-0.4,0.4-0.7c0.2-0.5,0.3-1.1,0.3-1.8c0-0.8-0.2-1.6-0.4-2    c-0.3-0.5-0.8-0.8-1.4-0.8C39.3,23.6,39,23.7,38.7,24z" />
	</g>
</g>
<g id="Layer_4">
	<line class="st2" x1="61.4" y1="186" x2="61.4" y2="145.5" />
	<line class="st2" x1="73.1" y1="167.9" x2="73.1" y2="196.4" />
	<line class="st2" x1="84.7" y1="167.9" x2="84.7" y2="196.4" />
	<line class="st2" x1="96.4" y1="209.7" x2="96.4" y2="241.5" />
	<line class="st2" x1="131.4" y1="189.5" x2="131.4" y2="243.5" />
	<line class="st2" x1="178" y1="89.2" x2="178" y2="133.4" />
	<line class="st2" x1="213" y1="157.4" x2="213" y2="191.8" />
	<line class="st2" x1="224.6" y1="168.8" x2="224.6" y2="206.9" />
	<line class="st2" x1="248" y1="200.6" x2="248" y2="236" />
	<line class="st2" x1="282.9" y1="136.9" x2="282.9" y2="175.9" />
	<line class="st2" x1="294.6" y1="164" x2="294.6" y2="203.1" />
	<line class="st2" x1="376.2" y1="144.6" x2="376.2" y2="191.2" />
	<line class="st2" x1="387.8" y1="165.1" x2="387.8" y2="195" />
	<line class="st2" x1="399.5" y1="147.6" x2="399.5" y2="184.3" />
	<line class="st2" x1="306.2" y1="146.5" x2="306.2" y2="218.3" />
	<line class="st2" x1="329.6" y1="131.3" x2="329.6" y2="194" />
	<line class="st2" x1="352.9" y1="78.3" x2="352.9" y2="126.1" />
	<line class="st2" x1="341.2" y1="107.4" x2="341.2" y2="184.5" />
	<line class="st2" x1="364.5" y1="95.8" x2="364.5" y2="183.6" />
	<line class="st2" x1="317.9" y1="138" x2="317.9" y2="199" />
	<line class="st2" x1="259.6" y1="200.6" x2="259.6" y2="254.8" />
	<line class="st2" x1="271.3" y1="221.1" x2="271.3" y2="280.7" />
	<line class="st2" x1="236.3" y1="187.8" x2="236.3" y2="222.4" />
	<line class="st2" x1="189.7" y1="72.7" x2="189.7" y2="111.3" />
	<line class="st2" x1="201.3" y1="86.5" x2="201.3" y2="176.1" />
	<line class="st2" x1="154.7" y1="138.3" x2="154.7" y2="253.1" />
	<line class="st2" x1="166.3" y1="120.9" x2="166.3" y2="195.7" />
	<line class="st2" x1="119.7" y1="239.3" x2="119.7" y2="265" />
	<line class="st2" x1="143" y1="213.4" x2="143" y2="243.5" />
	<line class="st2" x1="108.1" y1="237.2" x2="108.1" y2="269" />
	<line class="st2" x1="411.2" y1="166" x2="411.2" y2="204.5" />
	<line class="st2" x1="422.8" y1="182" x2="422.8" y2="204.5" />
	<line class="st2" x1="434.5" y1="202" x2="434.5" y2="166" />
	<line class="st2" x1="446.1" y1="180" x2="446.1" y2="204.5" />
	<line class="st2" x1="457.8" y1="158.2" x2="457.8" y2="221.8" />
	<line class="st2" x1="469.4" y1="202" x2="469.4" y2="163.8" />
	<line class="st2" x1="481.1" y1="236.7" x2="481.1" y2="175.8" />
	<line class="st2" x1="492.8" y1="261.6" x2="492.8" y2="218.9" />
	<line class="st2" x1="504.4" y1="252.2" x2="504.4" y2="283.3" />
	<line class="st2" x1="516.1" y1="281.5" x2="516.1" y2="218.9" />
	<line class="st2" x1="527.7" y1="243.8" x2="527.7" y2="218.9" />
	<line class="st2" x1="539.4" y1="272.1" x2="539.4" y2="233.1" />
	<line class="st2" x1="551.1" y1="278.6" x2="551.1" y2="247.7" />
	<line class="st2" x1="562.7" y1="236.7" x2="562.7" y2="193.3" />
	<line class="st2" x1="574.4" y1="192.3" x2="574.4" y2="229.6" />
	<line class="st2" x1="586" y1="228.2" x2="586" y2="175.8" />
	<line class="st2" x1="597.7" y1="194" x2="597.7" y2="229.6" />
	<line class="st2" x1="609.3" y1="204.5" x2="609.3" y2="152.2" />
	<line class="st2" x1="621" y1="156.5" x2="621" y2="115.8" />
	<line class="st2" x1="632.7" y1="121.4" x2="632.7" y2="155.5" />
	<line class="st2" x1="644.3" y1="132.2" x2="644.3" y2="198.6" />
	<line class="st2" x1="656" y1="114.8" x2="656" y2="90.6" />
	<line class="st2" x1="667.6" y1="67" x2="667.6" y2="129.1" />
	<line class="st2" x1="679.3" y1="52.1" x2="679.3" y2="94.2" />
	<line class="st2" x1="690.9" y1="36.6" x2="690.9" y2="76.4" />
	<line class="st2" x1="702.6" y1="58.1" x2="702.6" y2="110.1" />
</g>
<g id="Layer_1">
	<rect x="58" y="153.6" class="st3" width="6.8" height="28.5" />
	<rect x="69.7" y="170.1" class="st4" width="6.8" height="12" />
	<rect x="81.3" y="174" class="st3" width="6.8" height="50.4" />
	<rect x="197.9" y="92.6" class="st3" width="6.8" height="77.6" />
	<rect x="104.7" y="225.6" class="st3" width="6.8" height="38" />
	<rect x="116.3" y="246.1" class="st4" width="6.8" height="14.1" />
	<rect x="128" y="222.9" class="st4" width="6.8" height="9.4" />
	<rect x="139.6" y="216.2" class="st3" width="6.8" height="14" />
	<rect x="221.2" y="174" class="st3" width="6.8" height="21.4" />
	<rect x="279.5" y="149.4" class="st3" width="6.8" height="21.4" />
	<rect x="326.2" y="145.8" class="st3" width="6.8" height="7.4" />
	<rect x="384.4" y="169.3" class="st3" width="6.8" height="7.4" />
	<rect x="407.8" y="168.3" class="st3" width="6.8" height="25.7" />
	<rect x="431.1" y="183.6" class="st3" width="6.8" height="9.1" />
	<rect x="454.4" y="186" class="st3" width="6.8" height="8" />
	<rect x="547.7" y="266.7" class="st3" width="6.8" height="8" />
	<rect x="629.3" y="125.9" class="st3" width="6.8" height="6.2" />
	<rect x="699.2" y="65.6" class="st3" width="6.8" height="16.3" />
	<rect x="524.3" y="225.1" class="st3" width="6.8" height="11.6" />
	<rect x="477.7" y="200.6" class="st3" width="6.8" height="24.6" />
	<rect x="489.4" y="225.7" class="st3" width="6.8" height="30.9" />
	<rect x="536" y="241.2" class="st3" width="6.8" height="27.3" />
	<rect x="582.6" y="199.2" class="st3" width="6.8" height="25.8" />
	<rect x="640.9" y="136.2" class="st3" width="6.8" height="58.7" />
	<rect x="594.3" y="197" class="st4" width="6.8" height="25.8" />
	<rect x="605.9" y="160.1" class="st4" width="6.8" height="38.8" />
	<rect x="617.6" y="122.7" class="st4" width="6.8" height="31.1" />
	<rect x="652.6" y="98.4" class="st4" width="6.8" height="55.4" />
	<rect x="664.2" y="73.7" class="st4" width="6.8" height="30.9" />
	<rect x="687.5" y="42.7" class="st4" width="6.8" height="31" />
	<rect x="675.9" y="63.8" class="st4" width="6.8" height="9.9" />
	<rect x="501" y="254.8" class="st3" width="6.8" height="23.8" />
	<rect x="512.7" y="223.2" class="st4" width="6.8" height="48.9" />
	<rect x="559.3" y="199" class="st4" width="6.8" height="31.9" />
	<rect x="571" y="195.1" class="st4" width="6.8" height="7" />
	<rect x="466" y="195" class="st3" width="6.8" height="4" />
	<rect x="349.5" y="107.4" class="st3" width="6.8" height="10.4" />
	<rect x="361.1" y="112.6" class="st3" width="6.8" height="67.6" />
	<rect x="337.8" y="114.8" class="st4" width="6.8" height="44.1" />
	<rect x="291.2" y="167.9" class="st3" width="6.8" height="24.8" />
	<rect x="314.5" y="143.2" class="st4" width="6.8" height="44.3" />
	<rect x="302.8" y="190.7" class="st3" width="6.8" height="1.1" />
	<rect x="372.8" y="168.3" class="st4" width="6.8" height="1.1" />
	<rect x="396.1" y="175.8" class="st4" width="6.8" height="2.2" />
	<rect x="419.4" y="183.6" class="st4" width="6.8" height="7" />
	<rect x="442.7" y="182" class="st4" width="6.8" height="9.6" />
	<rect x="232.9" y="192.7" class="st3" width="6.8" height="28.4" />
	<rect x="244.6" y="206.9" class="st4" width="6.8" height="18.7" />
	<rect x="256.2" y="206.9" class="st3" width="6.8" height="16.4" />
	<rect x="267.9" y="230.2" class="st3" width="6.8" height="29.9" />
	<rect x="151.3" y="164.5" class="st4" width="6.8" height="69.7" />
	<rect x="162.9" y="125.9" class="st4" width="6.8" height="45.6" />
	<rect x="174.6" y="100" class="st4" width="6.8" height="14.8" />
	<rect x="186.3" y="94.8" class="st4" width="6.8" height="3.2" />
	<rect x="93" y="222.9" class="st3" width="6.8" height="5.4" />
	<rect x="209.6" y="168.9" class="st3" width="6.8" height="2.6" />
	<g>
	</g>
	<g>
	</g>
	<g>
	</g>
	<g>
	</g>
	<g>
	</g>
	<g>
	</g>
	<g>
	</g>
	<g>
	</g>
	<g>
	</g>
	<g>
	</g>
</g>
</svg>