<?xml version='1.0' encoding='UTF-8'?>
<svg xmlns="http://www.w3.org/2000/svg" xmlns:xlink="http://www.w3.org/1999/xlink" version="1.1" baseProfile="full" width="1486" height="1109" class="st0">
  <style>.st0 {position: absolute; left: 0px; top: 0px; user-select: none;}
.st1 {fill:none; stroke:#E0E6F1;}
.st2 {fill:none; stroke:#6E7079;}
.st3 {fill:rgb(84,112,198);}
.st4 {fill:rgb(169,0,0);}
.st5 {fill:#5470c6;}</style>
  <g>
    <path d="M148.6 1039.5L1337.4 1039.5" class="st1"/>
    <path d="M148.6 794.5L1337.4 794.5" class="st1"/>
    <path d="M148.6 549.5L1337.4 549.5" class="st1"/>
    <path d="M148.6 305.5L1337.4 305.5" class="st1"/>
    <path d="M148.6 60.5L1337.4 60.5" class="st1"/>
    <path d="M148.6 1039.5L1337.4 1039.5" stroke-linecap="round" class="st2"/>
    <path d="M148.5 1039L148.5 1044" class="st2"/>
    <path d="M318.5 1039L318.5 1044" class="st2"/>
    <path d="M488.5 1039L488.5 1044" class="st2"/>
    <path d="M658.5 1039L658.5 1044" class="st2"/>
    <path d="M828.5 1039L828.5 1044" class="st2"/>
    <path d="M997.5 1039L997.5 1044" class="st2"/>
    <path d="M1167.5 1039L1167.5 1044" class="st2"/>
    <path d="M1337.5 1039L1337.5 1044" class="st2"/>
    <path d="M174.9234 1039l117.1817 0l0 -587.4l-117.1817 0Z" class="st3"/>
    <path d="M344.752 1039l117.1817 0l0 -979l-117.1817 0Z" class="st4"/>
    <path d="M514.5806 1039l117.1817 0l0 -734.25l-117.1817 0Z" class="st3"/>
    <path d="M684.4091 1039l117.1817 0l0 -391.6l-117.1817 0Z" class="st5"/>
    <path d="M854.2377 1039l117.1817 0l0 -342.65l-117.1817 0Z" class="st5"/>
    <path d="M1024.0663 1039l117.1817 0l0 -538.45l-117.1817 0Z" class="st5"/>
    <path d="M1193.8949 1039l117.1817 0l0 -636.35l-117.1817 0Z" class="st5"/>
  </g>
</svg>
