<?xml version='1.0' encoding='UTF-8'?>
<svg xmlns="http://www.w3.org/2000/svg" xmlns:xlink="http://www.w3.org/1999/xlink" version="1.1" baseProfile="full" width="1486" height="1109">
  <style>.st0 {fill:rgb(225,161,130);}
.st1 {fill:rgb(242,223,159);}
.st2 {fill:rgb(246,239,166);}
.st3 {fill:rgb(237,208,151);}
.st4 {fill:rgb(229,177,137);}
.st5 {fill:rgb(233,192,144);}
.st6 {fill:rgb(220,146,122);}
.st7 {fill:rgb(216,130,115);}
.st8 {fill:rgb(209,112,104);}
.st9 {fill:rgb(202,95,93);}
.st10 {fill:rgb(212,121,109);}
.st11 {fill:rgb(198,86,87);}
.st12 {fill:rgb(205,103,98);}
.st13 {fill:rgb(191,68,76);}
.st14 {fill:rgb(195,77,82);}</style>
  <g>
    <path d="M734.7284 491.6707A63.3714 63.3714 0 0 1 751.2716 491.6707L743 554.5Z" class="st0"/>
    <path d="M751.2716 491.6707A63.3714 63.3714 0 0 1 767.2512 495.9524L743 554.5Z" class="st1"/>
    <path d="M767.2512 495.9524A63.3714 63.3714 0 0 1 781.5781 504.2241L743 554.5Z" class="st2"/>
    <path d="M781.5781 504.2241A63.3714 63.3714 0 0 1 793.2759 515.9219L743 554.5Z" class="st2"/>
    <path d="M793.2759 515.9219A63.3714 63.3714 0 0 1 801.5476 530.2488L743 554.5Z" class="st2"/>
    <path d="M801.5476 530.2488A63.3714 63.3714 0 0 1 805.8293 546.2284L743 554.5Z" class="st2"/>
    <path d="M805.8293 546.2284A63.3714 63.3714 0 0 1 805.8293 562.7716L743 554.5Z" class="st2"/>
    <path d="M805.8293 562.7716A63.3714 63.3714 0 0 1 801.5476 578.7512L743 554.5Z" class="st2"/>
    <path d="M801.5476 578.7512A63.3714 63.3714 0 0 1 793.2759 593.0781L743 554.5Z" class="st2"/>
    <path d="M793.2759 593.0781A63.3714 63.3714 0 0 1 781.5781 604.7759L743 554.5Z" class="st2"/>
    <path d="M781.5781 604.7759A63.3714 63.3714 0 0 1 767.2512 613.0476L743 554.5Z" class="st2"/>
    <path d="M767.2512 613.0476A63.3714 63.3714 0 0 1 751.2716 617.3293L743 554.5Z" class="st3"/>
    <path d="M751.2716 617.3293A63.3714 63.3714 0 0 1 734.7284 617.3293L743 554.5Z" class="st4"/>
    <path d="M734.7284 617.3293A63.3714 63.3714 0 0 1 718.7488 613.0476L743 554.5Z" class="st1"/>
    <path d="M718.7488 613.0476A63.3714 63.3714 0 0 1 704.4219 604.7759L743 554.5Z" class="st1"/>
    <path d="M704.4219 604.7759A63.3714 63.3714 0 0 1 692.7241 593.0781L743 554.5Z" class="st5"/>
    <path d="M692.7241 593.0781A63.3714 63.3714 0 0 1 684.4524 578.7512L743 554.5Z" class="st4"/>
    <path d="M684.4524 578.7512A63.3714 63.3714 0 0 1 680.1707 562.7716L743 554.5Z" class="st6"/>
    <path d="M680.1707 562.7716A63.3714 63.3714 0 0 1 680.1707 546.2284L743 554.5Z" class="st4"/>
    <path d="M680.1707 546.2284A63.3714 63.3714 0 0 1 684.4524 530.2488L743 554.5Z" class="st4"/>
    <path d="M684.4524 530.2488A63.3714 63.3714 0 0 1 692.7241 515.9219L743 554.5Z" class="st5"/>
    <path d="M692.7241 515.9219A63.3714 63.3714 0 0 1 704.4219 504.2241L743 554.5Z" class="st5"/>
    <path d="M704.4219 504.2241A63.3714 63.3714 0 0 1 718.7488 495.9524L743 554.5Z" class="st3"/>
    <path d="M718.7488 495.9524A63.3714 63.3714 0 0 1 734.7284 491.6707L743 554.5Z" class="st0"/>
    <path d="M726.4567 428.8414A126.7429 126.7429 0 0 1 759.5433 428.8414L751.2716 491.6707A63.3714 63.3714 0 0 0 734.7284 491.6707Z" class="st7"/>
    <path d="M759.5433 428.8414A126.7429 126.7429 0 0 1 791.5024 437.4049L767.2512 495.9524A63.3714 63.3714 0 0 0 751.2716 491.6707Z" class="st2"/>
    <path d="M791.5024 437.4049A126.7429 126.7429 0 0 1 820.1562 453.9481L781.5781 504.2241A63.3714 63.3714 0 0 0 767.2512 495.9524Z" class="st2"/>
    <path d="M820.1562 453.9481A126.7429 126.7429 0 0 1 843.5519 477.3438L793.2759 515.9219A63.3714 63.3714 0 0 0 781.5781 504.2241Z" class="st2"/>
    <path d="M843.5519 477.3438A126.7429 126.7429 0 0 1 860.0951 505.9976L801.5476 530.2488A63.3714 63.3714 0 0 0 793.2759 515.9219Z" class="st2"/>
    <path d="M860.0951 505.9976A126.7429 126.7429 0 0 1 868.6586 537.9567L805.8293 546.2284A63.3714 63.3714 0 0 0 801.5476 530.2488Z" class="st2"/>
    <path d="M868.6586 537.9567A126.7429 126.7429 0 0 1 868.6586 571.0433L805.8293 562.7716A63.3714 63.3714 0 0 0 805.8293 546.2284Z" class="st2"/>
    <path d="M868.6586 571.0433A126.7429 126.7429 0 0 1 860.0951 603.0024L801.5476 578.7512A63.3714 63.3714 0 0 0 805.8293 562.7716Z" class="st2"/>
    <path d="M860.0951 603.0024A126.7429 126.7429 0 0 1 843.5519 631.6562L793.2759 593.0781A63.3714 63.3714 0 0 0 801.5476 578.7512Z" class="st2"/>
    <path d="M843.5519 631.6562A126.7429 126.7429 0 0 1 820.1562 655.0519L781.5781 604.7759A63.3714 63.3714 0 0 0 793.2759 593.0781Z" class="st2"/>
    <path d="M820.1562 655.0519A126.7429 126.7429 0 0 1 791.5024 671.5951L767.2512 613.0476A63.3714 63.3714 0 0 0 781.5781 604.7759Z" class="st0"/>
    <path d="M791.5024 671.5951A126.7429 126.7429 0 0 1 759.5433 680.1586L751.2716 617.3293A63.3714 63.3714 0 0 0 767.2512 613.0476Z" class="st3"/>
    <path d="M759.5433 680.1586A126.7429 126.7429 0 0 1 726.4567 680.1586L734.7284 617.3293A63.3714 63.3714 0 0 0 751.2716 617.3293Z" class="st3"/>
    <path d="M726.4567 680.1586A126.7429 126.7429 0 0 1 694.4976 671.5951L718.7488 613.0476A63.3714 63.3714 0 0 0 734.7284 617.3293Z" class="st6"/>
    <path d="M694.4976 671.5951A126.7429 126.7429 0 0 1 665.8438 655.0519L704.4219 604.7759A63.3714 63.3714 0 0 0 718.7488 613.0476Z" class="st8"/>
    <path d="M665.8438 655.0519A126.7429 126.7429 0 0 1 642.4481 631.6562L692.7241 593.0781A63.3714 63.3714 0 0 0 704.4219 604.7759Z" class="st9"/>
    <path d="M642.4481 631.6562A126.7429 126.7429 0 0 1 625.9049 603.0024L684.4524 578.7512A63.3714 63.3714 0 0 0 692.7241 593.0781Z" class="st6"/>
    <path d="M625.9049 603.0024A126.7429 126.7429 0 0 1 617.3414 571.0433L680.1707 562.7716A63.3714 63.3714 0 0 0 684.4524 578.7512Z" class="st7"/>
    <path d="M617.3414 571.0433A126.7429 126.7429 0 0 1 617.3414 537.9567L680.1707 546.2284A63.3714 63.3714 0 0 0 680.1707 562.7716Z" class="st10"/>
    <path d="M617.3414 537.9567A126.7429 126.7429 0 0 1 625.9049 505.9976L684.4524 530.2488A63.3714 63.3714 0 0 0 680.1707 546.2284Z" class="st11"/>
    <path d="M625.9049 505.9976A126.7429 126.7429 0 0 1 642.4481 477.3438L692.7241 515.9219A63.3714 63.3714 0 0 0 684.4524 530.2488Z" class="st0"/>
    <path d="M642.4481 477.3438A126.7429 126.7429 0 0 1 665.8438 453.9481L704.4219 504.2241A63.3714 63.3714 0 0 0 692.7241 515.9219Z" class="st0"/>
    <path d="M665.8438 453.9481A126.7429 126.7429 0 0 1 694.4976 437.4049L718.7488 495.9524A63.3714 63.3714 0 0 0 704.4219 504.2241Z" class="st7"/>
    <path d="M694.4976 437.4049A126.7429 126.7429 0 0 1 726.4567 428.8414L734.7284 491.6707A63.3714 63.3714 0 0 0 718.7488 495.9524Z" class="st3"/>
    <path d="M718.1851 366.0122A190.1143 190.1143 0 0 1 767.8149 366.0122L759.5433 428.8414A126.7429 126.7429 0 0 0 726.4567 428.8414Z" class="st1"/>
    <path d="M767.8149 366.0122A190.1143 190.1143 0 0 1 815.7536 378.8573L791.5024 437.4049A126.7429 126.7429 0 0 0 759.5433 428.8414Z" class="st1"/>
    <path d="M815.7536 378.8573A190.1143 190.1143 0 0 1 858.7342 403.6722L820.1562 453.9481A126.7429 126.7429 0 0 0 791.5024 437.4049Z" class="st2"/>
    <path d="M858.7342 403.6722A190.1143 190.1143 0 0 1 893.8278 438.7658L843.5519 477.3438A126.7429 126.7429 0 0 0 820.1562 453.9481Z" class="st2"/>
    <path d="M893.8278 438.7658A190.1143 190.1143 0 0 1 918.6427 481.7464L860.0951 505.9976A126.7429 126.7429 0 0 0 843.5519 477.3438Z" class="st2"/>
    <path d="M918.6427 481.7464A190.1143 190.1143 0 0 1 931.4878 529.6851L868.6586 537.9567A126.7429 126.7429 0 0 0 860.0951 505.9976Z" class="st2"/>
    <path d="M931.4878 529.6851A190.1143 190.1143 0 0 1 931.4878 579.3149L868.6586 571.0433A126.7429 126.7429 0 0 0 868.6586 537.9567Z" class="st2"/>
    <path d="M931.4878 579.3149A190.1143 190.1143 0 0 1 918.6427 627.2536L860.0951 603.0024A126.7429 126.7429 0 0 0 868.6586 571.0433Z" class="st2"/>
    <path d="M918.6427 627.2536A190.1143 190.1143 0 0 1 893.8278 670.2342L843.5519 631.6562A126.7429 126.7429 0 0 0 860.0951 603.0024Z" class="st2"/>
    <path d="M893.8278 670.2342A190.1143 190.1143 0 0 1 858.7342 705.3278L820.1562 655.0519A126.7429 126.7429 0 0 0 843.5519 631.6562Z" class="st2"/>
    <path d="M858.7342 705.3278A190.1143 190.1143 0 0 1 815.7536 730.1427L791.5024 671.5951A126.7429 126.7429 0 0 0 820.1562 655.0519Z" class="st5"/>
    <path d="M815.7536 730.1427A190.1143 190.1143 0 0 1 767.8149 742.9878L759.5433 680.1586A126.7429 126.7429 0 0 0 791.5024 671.5951Z" class="st3"/>
    <path d="M767.8149 742.9878A190.1143 190.1143 0 0 1 718.1851 742.9878L726.4567 680.1586A126.7429 126.7429 0 0 0 759.5433 680.1586Z" class="st1"/>
    <path d="M718.1851 742.9878A190.1143 190.1143 0 0 1 670.2464 730.1427L694.4976 671.5951A126.7429 126.7429 0 0 0 726.4567 680.1586Z" class="st8"/>
    <path d="M670.2464 730.1427A190.1143 190.1143 0 0 1 627.2658 705.3278L665.8438 655.0519A126.7429 126.7429 0 0 0 694.4976 671.5951Z" class="st10"/>
    <path d="M627.2658 705.3278A190.1143 190.1143 0 0 1 592.1722 670.2342L642.4481 631.6562A126.7429 126.7429 0 0 0 665.8438 655.0519Z" class="st12"/>
    <path d="M592.1722 670.2342A190.1143 190.1143 0 0 1 567.3573 627.2536L625.9049 603.0024A126.7429 126.7429 0 0 0 642.4481 631.6562Z" class="st6"/>
    <path d="M567.3573 627.2536A190.1143 190.1143 0 0 1 554.5122 579.3149L617.3414 571.0433A126.7429 126.7429 0 0 0 625.9049 603.0024Z" class="st0"/>
    <path d="M554.5122 579.3149A190.1143 190.1143 0 0 1 554.5122 529.6851L617.3414 537.9567A126.7429 126.7429 0 0 0 617.3414 571.0433Z" class="st0"/>
    <path d="M554.5122 529.6851A190.1143 190.1143 0 0 1 567.3573 481.7464L625.9049 505.9976A126.7429 126.7429 0 0 0 617.3414 537.9567Z" class="st0"/>
    <path d="M567.3573 481.7464A190.1143 190.1143 0 0 1 592.1722 438.7658L642.4481 477.3438A126.7429 126.7429 0 0 0 625.9049 505.9976Z" class="st7"/>
    <path d="M592.1722 438.7658A190.1143 190.1143 0 0 1 627.2658 403.6722L665.8438 453.9481A126.7429 126.7429 0 0 0 642.4481 477.3438Z" class="st4"/>
    <path d="M627.2658 403.6722A190.1143 190.1143 0 0 1 670.2464 378.8573L694.4976 437.4049A126.7429 126.7429 0 0 0 665.8438 453.9481Z" class="st3"/>
    <path d="M670.2464 378.8573A190.1143 190.1143 0 0 1 718.1851 366.0122L726.4567 428.8414A126.7429 126.7429 0 0 0 694.4976 437.4049Z" class="st4"/>
    <path d="M709.9135 303.1829A253.4857 253.4857 0 0 1 776.0865 303.1829L767.8149 366.0122A190.1143 190.1143 0 0 0 718.1851 366.0122Z" class="st7"/>
    <path d="M776.0865 303.1829A253.4857 253.4857 0 0 1 840.0048 320.3097L815.7536 378.8573A190.1143 190.1143 0 0 0 767.8149 366.0122Z" class="st5"/>
    <path d="M840.0048 320.3097A253.4857 253.4857 0 0 1 897.3123 353.3963L858.7342 403.6722A190.1143 190.1143 0 0 0 815.7536 378.8573Z" class="st2"/>
    <path d="M897.3123 353.3963A253.4857 253.4857 0 0 1 944.1037 400.1877L893.8278 438.7658A190.1143 190.1143 0 0 0 858.7342 403.6722Z" class="st2"/>
    <path d="M944.1037 400.1877A253.4857 253.4857 0 0 1 977.1903 457.4952L918.6427 481.7464A190.1143 190.1143 0 0 0 893.8278 438.7658Z" class="st2"/>
    <path d="M977.1903 457.4952A253.4857 253.4857 0 0 1 994.3171 521.4135L931.4878 529.6851A190.1143 190.1143 0 0 0 918.6427 481.7464Z" class="st2"/>
    <path d="M994.3171 521.4135A253.4857 253.4857 0 0 1 994.3171 587.5865L931.4878 579.3149A190.1143 190.1143 0 0 0 931.4878 529.6851Z" class="st2"/>
    <path d="M994.3171 587.5865A253.4857 253.4857 0 0 1 977.1903 651.5048L918.6427 627.2536A190.1143 190.1143 0 0 0 931.4878 579.3149Z" class="st2"/>
    <path d="M977.1903 651.5048A253.4857 253.4857 0 0 1 944.1037 708.8123L893.8278 670.2342A190.1143 190.1143 0 0 0 918.6427 627.2536Z" class="st1"/>
    <path d="M944.1037 708.8123A253.4857 253.4857 0 0 1 897.3123 755.6037L858.7342 705.3278A190.1143 190.1143 0 0 0 893.8278 670.2342Z" class="st2"/>
    <path d="M897.3123 755.6037A253.4857 253.4857 0 0 1 840.0048 788.6903L815.7536 730.1427A190.1143 190.1143 0 0 0 858.7342 705.3278Z" class="st0"/>
    <path d="M840.0048 788.6903A253.4857 253.4857 0 0 1 776.0865 805.8171L767.8149 742.9878A190.1143 190.1143 0 0 0 815.7536 730.1427Z" class="st4"/>
    <path d="M776.0865 805.8171A253.4857 253.4857 0 0 1 709.9135 805.8171L718.1851 742.9878A190.1143 190.1143 0 0 0 767.8149 742.9878Z" class="st7"/>
    <path d="M709.9135 805.8171A253.4857 253.4857 0 0 1 645.9952 788.6903L670.2464 730.1427A190.1143 190.1143 0 0 0 718.1851 742.9878Z" class="st13"/>
    <path d="M645.9952 788.6903A253.4857 253.4857 0 0 1 588.6877 755.6037L627.2658 705.3278A190.1143 190.1143 0 0 0 670.2464 730.1427Z" class="st14"/>
    <path d="M588.6877 755.6037A253.4857 253.4857 0 0 1 541.8963 708.8123L592.1722 670.2342A190.1143 190.1143 0 0 0 627.2658 705.3278Z" class="st11"/>
    <path d="M541.8963 708.8123A253.4857 253.4857 0 0 1 508.8097 651.5048L567.3573 627.2536A190.1143 190.1143 0 0 0 592.1722 670.2342Z" class="st8"/>
    <path d="M508.8097 651.5048A253.4857 253.4857 0 0 1 491.6829 587.5865L554.5122 579.3149A190.1143 190.1143 0 0 0 567.3573 627.2536Z" class="st0"/>
    <path d="M491.6829 587.5865A253.4857 253.4857 0 0 1 491.6829 521.4135L554.5122 529.6851A190.1143 190.1143 0 0 0 554.5122 579.3149Z" class="st0"/>
    <path d="M491.6829 521.4135A253.4857 253.4857 0 0 1 508.8097 457.4952L567.3573 481.7464A190.1143 190.1143 0 0 0 554.5122 529.6851Z" class="st12"/>
    <path d="M508.8097 457.4952A253.4857 253.4857 0 0 1 541.8963 400.1877L592.1722 438.7658A190.1143 190.1143 0 0 0 567.3573 481.7464Z" class="st6"/>
    <path d="M541.8963 400.1877A253.4857 253.4857 0 0 1 588.6877 353.3963L627.2658 403.6722A190.1143 190.1143 0 0 0 592.1722 438.7658Z" class="st4"/>
    <path d="M588.6877 353.3963A253.4857 253.4857 0 0 1 645.9952 320.3097L670.2464 378.8573A190.1143 190.1143 0 0 0 627.2658 403.6722Z" class="st4"/>
    <path d="M645.9952 320.3097A253.4857 253.4857 0 0 1 709.9135 303.1829L718.1851 366.0122A190.1143 190.1143 0 0 0 670.2464 378.8573Z" class="st1"/>
    <path d="M701.6418 240.3536A316.8571 316.8571 0 0 1 784.3582 240.3536L776.0865 303.1829A253.4857 253.4857 0 0 0 709.9135 303.1829Z" class="st1"/>
    <path d="M784.3582 240.3536A316.8571 316.8571 0 0 1 864.256 261.7622L840.0048 320.3097A253.4857 253.4857 0 0 0 776.0865 303.1829Z" class="st5"/>
    <path d="M864.256 261.7622A316.8571 316.8571 0 0 1 935.8904 303.1203L897.3123 353.3963A253.4857 253.4857 0 0 0 840.0048 320.3097Z" class="st2"/>
    <path d="M935.8904 303.1203A316.8571 316.8571 0 0 1 994.3797 361.6096L944.1037 400.1877A253.4857 253.4857 0 0 0 897.3123 353.3963Z" class="st2"/>
    <path d="M994.3797 361.6096A316.8571 316.8571 0 0 1 1035.7378 433.244L977.1903 457.4952A253.4857 253.4857 0 0 0 944.1037 400.1877Z" class="st2"/>
    <path d="M1035.7378 433.244A316.8571 316.8571 0 0 1 1057.1464 513.1418L994.3171 521.4135A253.4857 253.4857 0 0 0 977.1903 457.4952Z" class="st1"/>
    <path d="M1057.1464 513.1418A316.8571 316.8571 0 0 1 1057.1464 595.8582L994.3171 587.5865A253.4857 253.4857 0 0 0 994.3171 521.4135Z" class="st2"/>
    <path d="M1057.1464 595.8582A316.8571 316.8571 0 0 1 1035.7378 675.756L977.1903 651.5048A253.4857 253.4857 0 0 0 994.3171 587.5865Z" class="st2"/>
    <path d="M1035.7378 675.756A316.8571 316.8571 0 0 1 994.3797 747.3904L944.1037 708.8123A253.4857 253.4857 0 0 0 977.1903 651.5048Z" class="st2"/>
    <path d="M994.3797 747.3904A316.8571 316.8571 0 0 1 935.8904 805.8797L897.3123 755.6037A253.4857 253.4857 0 0 0 944.1037 708.8123Z" class="st3"/>
    <path d="M935.8904 805.8797A316.8571 316.8571 0 0 1 864.256 847.2378L840.0048 788.6903A253.4857 253.4857 0 0 0 897.3123 755.6037Z" class="st4"/>
    <path d="M864.256 847.2378A316.8571 316.8571 0 0 1 784.3582 868.6464L776.0865 805.8171A253.4857 253.4857 0 0 0 840.0048 788.6903Z" class="st4"/>
    <path d="M784.3582 868.6464A316.8571 316.8571 0 0 1 701.6418 868.6464L709.9135 805.8171A253.4857 253.4857 0 0 0 776.0865 805.8171Z" class="st3"/>
    <path d="M701.6418 868.6464A316.8571 316.8571 0 0 1 621.744 847.2378L645.9952 788.6903A253.4857 253.4857 0 0 0 709.9135 805.8171Z" class="st4"/>
    <path d="M621.744 847.2378A316.8571 316.8571 0 0 1 550.1096 805.8797L588.6877 755.6037A253.4857 253.4857 0 0 0 645.9952 788.6903Z" class="st4"/>
    <path d="M550.1096 805.8797A316.8571 316.8571 0 0 1 491.6203 747.3904L541.8963 708.8123A253.4857 253.4857 0 0 0 588.6877 755.6037Z" class="st13"/>
    <path d="M491.6203 747.3904A316.8571 316.8571 0 0 1 450.2622 675.756L508.8097 651.5048A253.4857 253.4857 0 0 0 541.8963 708.8123Z" class="st11"/>
    <path d="M450.2622 675.756A316.8571 316.8571 0 0 1 428.8536 595.8582L491.6829 587.5865A253.4857 253.4857 0 0 0 508.8097 651.5048Z" class="st1"/>
    <path d="M428.8536 595.8582A316.8571 316.8571 0 0 1 428.8536 513.1418L491.6829 521.4135A253.4857 253.4857 0 0 0 491.6829 587.5865Z" class="st10"/>
    <path d="M428.8536 513.1418A316.8571 316.8571 0 0 1 450.2622 433.244L508.8097 457.4952A253.4857 253.4857 0 0 0 491.6829 521.4135Z" class="st0"/>
    <path d="M450.2622 433.244A316.8571 316.8571 0 0 1 491.6203 361.6096L541.8963 400.1877A253.4857 253.4857 0 0 0 508.8097 457.4952Z" class="st5"/>
    <path d="M491.6203 361.6096A316.8571 316.8571 0 0 1 550.1096 303.1203L588.6877 353.3963A253.4857 253.4857 0 0 0 541.8963 400.1877Z" class="st7"/>
    <path d="M550.1096 303.1203A316.8571 316.8571 0 0 1 621.744 261.7622L645.9952 320.3097A253.4857 253.4857 0 0 0 588.6877 353.3963Z" class="st5"/>
    <path d="M621.744 261.7622A316.8571 316.8571 0 0 1 701.6418 240.3536L709.9135 303.1829A253.4857 253.4857 0 0 0 645.9952 320.3097Z" class="st2"/>
    <path d="M693.3702 177.5243A380.2286 380.2286 0 0 1 792.6298 177.5243L784.3582 240.3536A316.8571 316.8571 0 0 0 701.6418 240.3536Z" class="st3"/>
    <path d="M792.6298 177.5243A380.2286 380.2286 0 0 1 888.5072 203.2146L864.256 261.7622A316.8571 316.8571 0 0 0 784.3582 240.3536Z" class="st1"/>
    <path d="M888.5072 203.2146A380.2286 380.2286 0 0 1 974.4685 252.8444L935.8904 303.1203A316.8571 316.8571 0 0 0 864.256 261.7622Z" class="st2"/>
    <path d="M974.4685 252.8444A380.2286 380.2286 0 0 1 1044.6556 323.0315L994.3797 361.6096A316.8571 316.8571 0 0 0 935.8904 303.1203Z" class="st5"/>
    <path d="M1044.6556 323.0315A380.2286 380.2286 0 0 1 1094.2854 408.9928L1035.7378 433.244A316.8571 316.8571 0 0 0 994.3797 361.6096Z" class="st2"/>
    <path d="M1094.2854 408.9928A380.2286 380.2286 0 0 1 1119.9757 504.8702L1057.1464 513.1418A316.8571 316.8571 0 0 0 1035.7378 433.244Z" class="st2"/>
    <path d="M1119.9757 504.8702A380.2286 380.2286 0 0 1 1119.9757 604.1298L1057.1464 595.8582A316.8571 316.8571 0 0 0 1057.1464 513.1418Z" class="st2"/>
    <path d="M1119.9757 604.1298A380.2286 380.2286 0 0 1 1094.2854 700.0072L1035.7378 675.756A316.8571 316.8571 0 0 0 1057.1464 595.8582Z" class="st2"/>
    <path d="M1094.2854 700.0072A380.2286 380.2286 0 0 1 1044.6556 785.9685L994.3797 747.3904A316.8571 316.8571 0 0 0 1035.7378 675.756Z" class="st3"/>
    <path d="M1044.6556 785.9685A380.2286 380.2286 0 0 1 974.4685 856.1556L935.8904 805.8797A316.8571 316.8571 0 0 0 994.3797 747.3904Z" class="st2"/>
    <path d="M974.4685 856.1556A380.2286 380.2286 0 0 1 888.5072 905.7854L864.256 847.2378A316.8571 316.8571 0 0 0 935.8904 805.8797Z" class="st4"/>
    <path d="M888.5072 905.7854A380.2286 380.2286 0 0 1 792.6298 931.4757L784.3582 868.6464A316.8571 316.8571 0 0 0 864.256 847.2378Z" class="st1"/>
    <path d="M792.6298 931.4757A380.2286 380.2286 0 0 1 693.3702 931.4757L701.6418 868.6464A316.8571 316.8571 0 0 0 784.3582 868.6464Z" class="st0"/>
    <path d="M693.3702 931.4757A380.2286 380.2286 0 0 1 597.4928 905.7854L621.744 847.2378A316.8571 316.8571 0 0 0 701.6418 868.6464Z" class="st12"/>
    <path d="M597.4928 905.7854A380.2286 380.2286 0 0 1 511.5315 856.1556L550.1096 805.8797A316.8571 316.8571 0 0 0 621.744 847.2378Z" class="st0"/>
    <path d="M511.5315 856.1556A380.2286 380.2286 0 0 1 441.3444 785.9685L491.6203 747.3904A316.8571 316.8571 0 0 0 550.1096 805.8797Z" class="st7"/>
    <path d="M441.3444 785.9685A380.2286 380.2286 0 0 1 391.7146 700.0072L450.2622 675.756A316.8571 316.8571 0 0 0 491.6203 747.3904Z" class="st9"/>
    <path d="M391.7146 700.0072A380.2286 380.2286 0 0 1 366.0243 604.1298L428.8536 595.8582A316.8571 316.8571 0 0 0 450.2622 675.756Z" class="st6"/>
    <path d="M366.0243 604.1298A380.2286 380.2286 0 0 1 366.0243 504.8702L428.8536 513.1418A316.8571 316.8571 0 0 0 428.8536 595.8582Z" class="st2"/>
    <path d="M366.0243 504.8702A380.2286 380.2286 0 0 1 391.7146 408.9928L450.2622 433.244A316.8571 316.8571 0 0 0 428.8536 513.1418Z" class="st0"/>
    <path d="M391.7146 408.9928A380.2286 380.2286 0 0 1 441.3444 323.0315L491.6203 361.6096A316.8571 316.8571 0 0 0 450.2622 433.244Z" class="st5"/>
    <path d="M441.3444 323.0315A380.2286 380.2286 0 0 1 511.5315 252.8444L550.1096 303.1203A316.8571 316.8571 0 0 0 491.6203 361.6096Z" class="st4"/>
    <path d="M511.5315 252.8444A380.2286 380.2286 0 0 1 597.4928 203.2146L621.744 261.7622A316.8571 316.8571 0 0 0 550.1096 303.1203Z" class="st3"/>
    <path d="M597.4928 203.2146A380.2286 380.2286 0 0 1 693.3702 177.5243L701.6418 240.3536A316.8571 316.8571 0 0 0 621.744 261.7622Z" class="st2"/>
    <path d="M685.0986 114.6951A443.6 443.6 0 0 1 800.9014 114.6951L792.6298 177.5243A380.2286 380.2286 0 0 0 693.3702 177.5243Z" class="st1"/>
    <path d="M800.9014 114.6951A443.6 443.6 0 0 1 912.7584 144.667L888.5072 203.2146A380.2286 380.2286 0 0 0 792.6298 177.5243Z" class="st2"/>
    <path d="M912.7584 144.667A443.6 443.6 0 0 1 1013.0466 202.5685L974.4685 252.8444A380.2286 380.2286 0 0 0 888.5072 203.2146Z" class="st2"/>
    <path d="M1013.0466 202.5685A443.6 443.6 0 0 1 1094.9315 284.4534L1044.6556 323.0315A380.2286 380.2286 0 0 0 974.4685 252.8444Z" class="st2"/>
    <path d="M1094.9315 284.4534A443.6 443.6 0 0 1 1152.833 384.7416L1094.2854 408.9928A380.2286 380.2286 0 0 0 1044.6556 323.0315Z" class="st2"/>
    <path d="M1152.833 384.7416A443.6 443.6 0 0 1 1182.8049 496.5986L1119.9757 504.8702A380.2286 380.2286 0 0 0 1094.2854 408.9928Z" class="st2"/>
    <path d="M1182.8049 496.5986A443.6 443.6 0 0 1 1182.8049 612.4014L1119.9757 604.1298A380.2286 380.2286 0 0 0 1119.9757 504.8702Z" class="st2"/>
    <path d="M1182.8049 612.4014A443.6 443.6 0 0 1 1152.833 724.2584L1094.2854 700.0072A380.2286 380.2286 0 0 0 1119.9757 604.1298Z" class="st2"/>
    <path d="M1152.833 724.2584A443.6 443.6 0 0 1 1094.9315 824.5466L1044.6556 785.9685A380.2286 380.2286 0 0 0 1094.2854 700.0072Z" class="st2"/>
    <path d="M1094.9315 824.5466A443.6 443.6 0 0 1 1013.0466 906.4315L974.4685 856.1556A380.2286 380.2286 0 0 0 1044.6556 785.9685Z" class="st2"/>
    <path d="M1013.0466 906.4315A443.6 443.6 0 0 1 912.7584 964.333L888.5072 905.7854A380.2286 380.2286 0 0 0 974.4685 856.1556Z" class="st1"/>
    <path d="M912.7584 964.333A443.6 443.6 0 0 1 800.9014 994.3049L792.6298 931.4757A380.2286 380.2286 0 0 0 888.5072 905.7854Z" class="st2"/>
    <path d="M800.9014 994.3049A443.6 443.6 0 0 1 685.0986 994.3049L693.3702 931.4757A380.2286 380.2286 0 0 0 792.6298 931.4757Z" class="st3"/>
    <path d="M685.0986 994.3049A443.6 443.6 0 0 1 573.2416 964.333L597.4928 905.7854A380.2286 380.2286 0 0 0 693.3702 931.4757Z" class="st1"/>
    <path d="M573.2416 964.333A443.6 443.6 0 0 1 472.9534 906.4315L511.5315 856.1556A380.2286 380.2286 0 0 0 597.4928 905.7854Z" class="st5"/>
    <path d="M472.9534 906.4315A443.6 443.6 0 0 1 391.0685 824.5466L441.3444 785.9685A380.2286 380.2286 0 0 0 511.5315 856.1556Z" class="st4"/>
    <path d="M391.0685 824.5466A443.6 443.6 0 0 1 333.167 724.2584L391.7146 700.0072A380.2286 380.2286 0 0 0 441.3444 785.9685Z" class="st2"/>
    <path d="M333.167 724.2584A443.6 443.6 0 0 1 303.1951 612.4014L366.0243 604.1298A380.2286 380.2286 0 0 0 391.7146 700.0072Z" class="st2"/>
    <path d="M303.1951 612.4014A443.6 443.6 0 0 1 303.1951 496.5986L366.0243 504.8702A380.2286 380.2286 0 0 0 366.0243 604.1298Z" class="st2"/>
    <path d="M303.1951 496.5986A443.6 443.6 0 0 1 333.167 384.7416L391.7146 408.9928A380.2286 380.2286 0 0 0 366.0243 504.8702Z" class="st2"/>
    <path d="M333.167 384.7416A443.6 443.6 0 0 1 391.0685 284.4534L441.3444 323.0315A380.2286 380.2286 0 0 0 391.7146 408.9928Z" class="st1"/>
    <path d="M391.0685 284.4534A443.6 443.6 0 0 1 472.9534 202.5685L511.5315 252.8444A380.2286 380.2286 0 0 0 441.3444 323.0315Z" class="st3"/>
    <path d="M472.9534 202.5685A443.6 443.6 0 0 1 573.2416 144.667L597.4928 203.2146A380.2286 380.2286 0 0 0 511.5315 252.8444Z" class="st3"/>
    <path d="M573.2416 144.667A443.6 443.6 0 0 1 685.0986 114.6951L693.3702 177.5243A380.2286 380.2286 0 0 0 597.4928 203.2146Z" class="st6"/>
  </g>
</svg>
