<?xml version='1.0' encoding='UTF-8'?>
<svg xmlns="http://www.w3.org/2000/svg" version="1.1" width="1000" height="600" viewBox="0 0 1000 600" aria-hidden="false" aria-label="Interactive chart">
  <style>.st0 {opacity:1;}
.st1 {pointer-events: none; fill:#2caffe;}
.st2 {pointer-events: none; fill:#544fc5;}
.st3 {fill:#544fc5;}
.st4 {pointer-events: none; fill:#00e272;}
.st5 {outline: none; opacity:1;}
.st6 {fill:#00e272;}
.st7 {pointer-events: none; fill:#fe6a35;}
.st8 {pointer-events: none; fill:#6b8abc;}
.st9 {fill:#6b8abc;}
.st10 {pointer-events: none; fill:#d568fb;}
.st11 {fill:#d568fb;}
.st12 {opacity:0;}
.st13 {cursor: default;}
.st14 {fill:#ffffff; stroke:#333333; stroke-width:1;}
.st15 {color: rgb(51, 51, 51); font-size: 0.8em; fill: rgb(51, 51, 51);}
.st16 {font-size: 1.2em;}
.st17 {fill:#ffffff; stroke:#2caffe; stroke-width:1;}
.st18 {font-weight: bold;}
.st19 {fill:#ffffff; stroke:#00e272; stroke-width:1;}
.st20 {fill:#ffffff; stroke:#544fc5; stroke-width:1;}</style>
  <g class="highcharts-series-group" data-z-index="3" filter="none" aria-hidden="false">
    <g class="st0" data-z-index="0.1" transform="translate(84,100) scale(1 1)" clip-path="url(#highcharts-y8dw89k-19-)" aria-hidden="true">
      <path d="M 0 380.175 L 18.875 375.0375 L 37.75 372.46875 L 56.625 367.33125 L 75.5 367.33125 L 94.375 346.78125 L 113.25 357.05625 L 132.125 354.4875 L 151 351.91875 L 169.875 362.19375 L 188.75 367.33125 L 207.625 372.46875 L 226.5 377.60625 L 245.375 385.7491875 L 264.25 390.6298125 L 283.125 397.33425 L 302 405.34875 L 320.875 408.790875 L 339.75 410.2550625 L 358.625 410.640375 L 377.5 410.7174375 L 396.375 410.537625 L 415.25 410.3578125 L 434.125 410.07525 L 453 410.1523125 L 471.875 410.126625 L 490.75 410.178 L 509.625 410.28075 L 528.5 410.3064375 L 547.375 410.4605625 L 566.25 410.434875 L 585.125 410.5119375 L 604 410.640375 L 622.875 410.589 L 641.75 410.4091875 L 660.625 409.5358125 L 679.5 409.356 L 698.375 408.7138125 L 717.25 407.9431875 L 736.125 406.8643125 L 755 405.5799375 L 773.875 404.73225 L 792.75 402.4460625 L 811.625 401.8809375 L 830.5 401.0075625 L 849.375 400.2369375 L 868.25 398.67 L 887.125 394.45725 L 906 385.3125 L 906 411 L 887.125 411 L 868.25 411 L 849.375 411 L 830.5 411 L 811.625 411 L 792.75 411 L 773.875 411 L 755 411 L 736.125 411 L 717.25 411 L 698.375 411 L 679.5 411 L 660.625 411 L 641.75 411 L 622.875 411 L 604 411 L 585.125 411 L 566.25 411 L 547.375 411 L 528.5 411 L 509.625 411 L 490.75 411 L 471.875 411 L 453 411 L 434.125 411 L 415.25 411 L 396.375 411 L 377.5 411 L 358.625 411 L 339.75 411 L 320.875 411 L 302 411 L 283.125 411 L 264.25 411 L 245.375 411 L 226.5 411 L 207.625 411 L 188.75 411 L 169.875 411 L 151 411 L 132.125 411 L 113.25 411 L 94.375 411 L 75.5 411 L 56.625 411 L 37.75 411 L 18.875 411 L 0 411 Z" class="st1" data-z-index="0" fill-opacity="0.75"/>
    </g>
    <g class="st0" data-z-index="0.1" transform="translate(84,100) scale(1 1)" clip-path="url(#highcharts-y8dw89k-19-)" aria-hidden="true">
      <path d="M 0 375.294375 L 18.875 370.054125 L 37.75 367.023 L 56.625 361.0378125 L 75.5 361.0378125 L 94.375 340.1025 L 113.25 347.962875 L 132.125 348.065625 L 151 345.34275 L 169.875 354.9241875 L 188.75 360.4213125 L 207.625 364.7881875 L 226.5 370.3880625 L 245.375 379.8924375 L 264.25 385.41525 L 283.125 392.7105 L 302 402.369 L 320.875 406.37625 L 339.75 408.6110625 L 358.625 408.945 L 377.5 409.407375 L 396.375 409.3303125 L 415.25 409.1505 L 434.125 408.84225 L 453 410.1523125 L 453 410.1523125 L 453 410.1523125 L 453 410.1523125 L 434.125 410.07525 L 415.25 410.3578125 L 396.375 410.537625 L 377.5 410.7174375 L 358.625 410.640375 L 339.75 410.2550625 L 320.875 408.790875 L 302 405.34875 L 283.125 397.33425 L 264.25 390.6298125 L 245.375 385.7491875 L 226.5 377.60625 L 207.625 372.46875 L 188.75 367.33125 L 169.875 362.19375 L 151 351.91875 L 132.125 354.4875 L 113.25 357.05625 L 94.375 346.78125 L 75.5 367.33125 L 56.625 367.33125 L 37.75 372.46875 L 18.875 375.0375 L 0 380.175 Z" class="st2" data-z-index="0" fill-opacity="0.75"/>
    </g>
    <g transform="translate(84,100) scale(1 1)">
      <path d="M 0.5 375.294375 A 0 0 0 1 1 0.5 375.294375 Z" class="st3" data-z-index="-1" fill-opacity="0.25" visibility="hidden">
            </path>
    </g>
    <g class="st0" data-z-index="0.1" transform="translate(84,100) scale(1 1)" clip-path="url(#highcharts-y8dw89k-19-)" aria-hidden="true">
      <path d="M 0 373.342125 L 18.875 367.8193125 L 37.75 364.4799375 L 56.625 357.2874375 L 75.5 357.2874375 L 94.375 328.543125 L 113.25 333.0384375 L 132.125 329.9559375 L 151 317.0865 L 169.875 318.9616875 L 188.75 314.1838125 L 207.625 303.1381875 L 226.5 308.7380625 L 245.375 315.6736875 L 264.25 308.35275 L 283.125 305.373 L 302 317.60025 L 320.875 316.47 L 339.75 331.5485625 L 358.625 329.31375 L 377.5 334.913625 L 396.375 332.2678125 L 415.25 350.06925 L 434.125 360.036 L 453 371.6210625 L 471.875 374.164125 L 490.75 381.92175 L 509.625 394.200375 L 528.5 400.981875 L 547.375 405.0661875 L 566.25 407.660625 L 585.125 409.921125 L 585.125 410.5119375 L 585.125 410.5119375 L 585.125 410.5119375 L 566.25 410.434875 L 547.375 410.4605625 L 528.5 410.3064375 L 509.625 410.28075 L 490.75 410.178 L 471.875 410.126625 L 453 410.1523125 L 434.125 408.84225 L 415.25 409.1505 L 396.375 409.3303125 L 377.5 409.407375 L 358.625 408.945 L 339.75 408.6110625 L 320.875 406.37625 L 302 402.369 L 283.125 392.7105 L 264.25 385.41525 L 245.375 379.8924375 L 226.5 370.3880625 L 207.625 364.7881875 L 188.75 360.4213125 L 169.875 354.9241875 L 151 345.34275 L 132.125 348.065625 L 113.25 347.962875 L 94.375 340.1025 L 75.5 361.0378125 L 56.625 361.0378125 L 37.75 367.023 L 18.875 370.054125 L 0 375.294375 Z" class="st4" data-z-index="0" fill-opacity="0.75"/>
    </g>
    <g class="st5" data-z-index="0.1" transform="translate(84,100) scale(1 1)" clip-path="none" aria-hidden="false" role="region" tabindex="-1" aria-label="Cassette, series 3 of 6 with 50 data points.">
      <path d="M 0.5 373.342125 A 0 0 0 1 1 0.5 373.342125 Z" class="st6" data-z-index="-1" fill-opacity="0.25" visibility="hidden">
            </path>
    </g>
    <g class="st5" data-z-index="0.1" transform="translate(84,100) scale(1 1)" clip-path="url(#highcharts-y8dw89k-19-)" aria-hidden="false" role="region" tabindex="-1" aria-label="CD, series 4 of 6 with 9 data points.">
      <path d="M 169.875 318.9616875 L 188.75 313.747125 L 207.625 300.492375 L 226.5 298.7199375 L 245.375 291.7843125 L 264.25 267.25275 L 283.125 251.42925 L 302 250.81275 L 320.875 226.56375 L 339.75 221.0923125 L 358.625 193.17 L 377.5 167.944875 L 396.375 113.9240625 L 415.25 108.60675 L 434.125 105.72975 L 453 117.3148125 L 471.875 81.326625 L 490.75 53.12175 L 509.625 55.125375 L 528.5 69.613125 L 547.375 96.8161875 L 566.25 119.960625 L 585.125 117.083625 L 585.125 117.6744375 L 604 140.921625 L 622.875 169.1265 L 641.75 217.7529375 L 660.625 268.2545625 L 679.5 298.89975 L 698.375 321.3763125 L 717.25 328.3119375 L 736.125 342.6455625 L 755 351.6361875 L 773.875 358.49475 L 792.75 366.4835625 L 811.625 373.6246875 L 830.5 375.3200625 L 849.375 382.3584375 L 868.25 374.7549375 L 887.125 382.0501875 L 906 370.311 L 906 385.3125 L 887.125 394.45725 L 868.25 398.67 L 849.375 400.2369375 L 830.5 401.0075625 L 811.625 401.8809375 L 792.75 402.4460625 L 773.875 404.73225 L 755 405.5799375 L 736.125 406.8643125 L 717.25 407.9431875 L 698.375 408.7138125 L 679.5 409.356 L 660.625 409.5358125 L 641.75 410.4091875 L 622.875 410.589 L 604 410.640375 L 585.125 410.5119375 L 585.125 409.921125 L 566.25 407.660625 L 547.375 405.0661875 L 528.5 400.981875 L 509.625 394.200375 L 490.75 381.92175 L 471.875 374.164125 L 453 371.6210625 L 434.125 360.036 L 415.25 350.06925 L 396.375 332.2678125 L 377.5 334.913625 L 358.625 329.31375 L 339.75 331.5485625 L 320.875 316.47 L 302 317.60025 L 283.125 305.373 L 264.25 308.35275 L 245.375 315.6736875 L 226.5 308.7380625 L 207.625 303.1381875 L 188.75 314.1838125 L 169.875 318.9616875 Z" class="st7" data-z-index="0" fill-opacity="0.75"/>
    </g>
  </g>
  <g class="st5" data-z-index="0.1" transform="translate(84,100) scale(1 1)" clip-path="url(#highcharts-y8dw89k-19-)" aria-hidden="false" role="region" tabindex="-1" aria-label="Downloads, series 5 of 6 with 30 data points.">
    <path d="M 566.25 119.960625 L 585.125 113.53875 L 585.125 114.1295625 L 604 117.2634375 L 622.875 127.2301875 L 641.75 155.8974375 L 660.625 201.1588125 L 679.5 230.9049375 L 698.375 254.0750625 L 717.25 254.4346875 L 736.125 266.9701875 L 755 277.1938125 L 773.875 294.276 L 792.75 307.4023125 L 811.625 328.1835 L 830.5 341.4639375 L 849.375 358.08375 L 868.25 354.847125 L 887.125 366.0725625 L 906 356.491125 L 906 370.311 L 887.125 382.0501875 L 868.25 374.7549375 L 849.375 382.3584375 L 830.5 375.3200625 L 811.625 373.6246875 L 792.75 366.4835625 L 773.875 358.49475 L 755 351.6361875 L 736.125 342.6455625 L 717.25 328.3119375 L 698.375 321.3763125 L 679.5 298.89975 L 660.625 268.2545625 L 641.75 217.7529375 L 622.875 169.1265 L 604 140.921625 L 585.125 117.6744375 L 585.125 117.083625 L 566.25 119.960625 Z" class="st8" data-z-index="0" fill-opacity="0.75"/>
  </g>
  <g class="st5" data-z-index="0.1" transform="translate(84,100) scale(1 1)" clip-path="none" aria-hidden="false" role="region" tabindex="-1" aria-label="Downloads, series 5 of 6 with 50 data points.">
    <path d="M 566.5 119.960625 A 0 0 0 1 1 566.5 119.960625 Z" class="st9" data-z-index="-1" fill-opacity="0.25" visibility="hidden">
        </path>
  </g>
  <g class="st5" data-z-index="0.1" transform="translate(84,100) scale(1 1)" clip-path="url(#highcharts-y8dw89k-19-)" aria-hidden="false" role="region" tabindex="-1" aria-label="Streams, series 6 of 6 with 30 data points.">
    <path d="M 585.125 113.53875 L 585.125 114.1295625 L 604 113.436 L 622.875 121.9385625 L 641.75 149.8865625 L 660.625 192.913125 L 679.5 221.6060625 L 698.375 242.233125 L 717.25 237.6350625 L 736.125 240.435 L 755 239.8441875 L 773.875 247.3449375 L 792.75 246.3945 L 811.625 230.108625 L 830.5 201.235875 L 849.375 171.7209375 L 868.25 127.4356875 L 887.125 107.1939375 L 906 35.1661875 L 906 356.491125 L 887.125 366.0725625 L 868.25 354.847125 L 849.375 358.08375 L 830.5 341.4639375 L 811.625 328.1835 L 792.75 307.4023125 L 773.875 294.276 L 755 277.1938125 L 736.125 266.9701875 L 717.25 254.4346875 L 698.375 254.0750625 L 679.5 230.9049375 L 660.625 201.1588125 L 641.75 155.8974375 L 622.875 127.2301875 L 604 117.2634375 L 585.125 114.1295625 L 585.125 113.53875 Z" class="st10" data-z-index="0" fill-opacity="0.75"/>
  </g>
  <g class="st5" data-z-index="0.1" transform="translate(84,100) scale(1 1)" clip-path="none" aria-hidden="false" role="region" tabindex="-1" aria-label="Streams, series 6 of 6 with 50 data points.">
    <path d="M 604.5 113.436 A 0 0 0 1 1 604.5 113.436 Z" class="st11" data-z-index="-1" fill-opacity="0.25" visibility="hidden">
        </path>
  </g>
  <g class="st12" data-z-index="8" filter="url(#highcharts-drop-shadow-0)" aria-hidden="true" visibility="hidden">
    <g class="st13" transform="translate(59,510)">
      <path class="st14" d="M 3.5 0.5 L 18.5 0.5 L 24.5 -5.5 L 30.5 0.5 L 46 0.5 A 3 3 0 0 1 49.5 3.5 L 49.5 34.5 A 3 3 0 0 1 46.5 37.5 L 3.5 37.5 A 3 3 0 0 1 0.5 34.5 L 0.5 3.5 A 3 3 0 0 1 3.5 0.5 Z"/>
      <text x="8" data-z-index="1" y="20" class="st15">
        <tspan class="st16">1973</tspan>
      </text>
    </g>
    <g class="st13" transform="translate(100,476)">
      <path class="st17" d="M 3.5 0.5 L 129.5 0.5 A 3 3 0 0 1 132.5 3.5 L 132.5 30.5 A 3 3 0 0 1 129.5 33.5 L 3.5 33.5 A 3 3 0 0 1 0.5 30.5 L 0.5 16.5 L -16.5 4.175000000000011 L 0.5 16.5 L 0.5 3.5 A 3 3 0 0 1 3.5 0.5 Z"/>
      <text x="8" data-z-index="1" y="20" class="st15">LpEp: <tspan class="st18">$1.2 B</tspan> (81.9%)</text>
    </g>
    <g class="st13" transform="translate(100,408)">
      <path class="st19" d="M 3.5 0.5 L 142.5 0.5 A 3 3 0 0 1 145.5 3.5 L 145.5 30.5 A 3 3 0 0 1 142.5 33.5 L 3.5 33.5 A 3 3 0 0 1 0.5 30.5 L 0.5 16.5 L -16.5 65.34212500000001 L 0.5 16.5 L 0.5 3.5 A 3 3 0 0 1 3.5 0.5 Z"/>
      <text x="8" data-z-index="1" y="20" class="st15">Cassette: <tspan class="st18">$0.1 B</tspan> (5.2%)</text>
    </g>
    <g class="st13" transform="translate(100,442)">
      <path class="st20" d="M 3.5 0.5 L 130.5 0.5 A 3 3 0 0 1 133.5 3.5 L 133.5 30.5 A 3 3 0 0 1 130.5 33.5 L 3.5 33.5 A 3 3 0 0 1 0.5 30.5 L 0.5 16.5 L -16.5 33.294375 L 0.5 16.5 L 0.5 3.5 A 3 3 0 0 1 3.5 0.5 Z"/>
      <text x="8" data-z-index="1" y="20" class="st15">Vinyl: <tspan class="st18">$0.2 B</tspan> (13.0%)</text>
    </g>
  </g>
</svg>
