<?xml version='1.0' encoding='UTF-8'?>
<svg xmlns="http://www.w3.org/2000/svg" xmlns:xlink="http://www.w3.org/1999/xlink" version="1.1" baseProfile="full" width="1486" height="1109">
  <style>.st0 {fill:rgb(250,250,250);}
.st1 {fill:rgb(210,219,238);}
.st2 {fill:none; stroke:#6E7079;}
.st3 {fill:rgb(216,130,115);}
.st4 {fill:rgb(240,217,156);}
.st5 {fill:rgb(234,195,146);}
.st6 {fill:rgb(222,152,125);}
.st7 {fill:rgb(228,174,135);}
.st8 {fill:rgb(211,118,107);}
.st9 {fill:rgb(206,105,99);}
.st10 {fill:rgb(196,80,84);}
.st11 {fill:rgb(191,68,76);}
.st12 {fill:rgb(201,93,92);}</style>
  <path d="M148.6 665.4l1188.8 0l0 -79.2143l-1188.8 0Z" fill-opacity="0.2" class="st0"/>
  <path d="M148.6 586.1857l1188.8 0l0 -79.2143l-1188.8 0Z" fill-opacity="0.2" class="st1"/>
  <path d="M148.6 506.9714l1188.8 0l0 -79.2143l-1188.8 0Z" fill-opacity="0.2" class="st0"/>
  <path d="M148.6 427.7571l1188.8 0l0 -79.2143l-1188.8 0Z" fill-opacity="0.2" class="st1"/>
  <path d="M148.6 348.5429l1188.8 0l0 -79.2143l-1188.8 0Z" fill-opacity="0.2" class="st0"/>
  <path d="M148.6 269.3286l1188.8 0l0 -79.2143l-1188.8 0Z" fill-opacity="0.2" class="st1"/>
  <path d="M148.6 190.1143l1188.8 0l0 -79.2143l-1188.8 0Z" fill-opacity="0.2" class="st0"/>
  <path d="M148.6 110.9l49.5333 0l0 554.5l-49.5333 0Z" fill-opacity="0.2" class="st0"/>
  <path d="M198.1333 110.9l49.5333 0l0 554.5l-49.5333 0Z" fill-opacity="0.2" class="st1"/>
  <path d="M247.6667 110.9l49.5333 0l0 554.5l-49.5333 0Z" fill-opacity="0.2" class="st0"/>
  <path d="M297.2 110.9l49.5333 0l0 554.5l-49.5333 0Z" fill-opacity="0.2" class="st1"/>
  <path d="M346.7333 110.9l49.5333 0l0 554.5l-49.5333 0Z" fill-opacity="0.2" class="st0"/>
  <path d="M396.2667 110.9l49.5333 0l0 554.5l-49.5333 0Z" fill-opacity="0.2" class="st1"/>
  <path d="M445.8 110.9l49.5333 0l0 554.5l-49.5333 0Z" fill-opacity="0.2" class="st0"/>
  <path d="M495.3333 110.9l49.5333 0l0 554.5l-49.5333 0Z" fill-opacity="0.2" class="st1"/>
  <path d="M544.8667 110.9l49.5333 0l0 554.5l-49.5333 0Z" fill-opacity="0.2" class="st0"/>
  <path d="M594.4 110.9l49.5333 0l0 554.5l-49.5333 0Z" fill-opacity="0.2" class="st1"/>
  <path d="M643.9333 110.9l49.5333 0l0 554.5l-49.5333 0Z" fill-opacity="0.2" class="st0"/>
  <path d="M693.4667 110.9l49.5333 0l0 554.5l-49.5333 0Z" fill-opacity="0.2" class="st1"/>
  <path d="M743 110.9l49.5333 0l0 554.5l-49.5333 0Z" fill-opacity="0.2" class="st0"/>
  <path d="M792.5333 110.9l49.5333 0l0 554.5l-49.5333 0Z" fill-opacity="0.2" class="st1"/>
  <path d="M842.0667 110.9l49.5333 0l0 554.5l-49.5333 0Z" fill-opacity="0.2" class="st0"/>
  <path d="M891.6 110.9l49.5333 0l0 554.5l-49.5333 0Z" fill-opacity="0.2" class="st1"/>
  <path d="M941.1333 110.9l49.5333 0l0 554.5l-49.5333 0Z" fill-opacity="0.2" class="st0"/>
  <path d="M990.6667 110.9l49.5333 0l0 554.5l-49.5333 0Z" fill-opacity="0.2" class="st1"/>
  <path d="M1040.2 110.9l49.5333 0l0 554.5l-49.5333 0Z" fill-opacity="0.2" class="st0"/>
  <path d="M1089.7333 110.9l49.5333 0l0 554.5l-49.5333 0Z" fill-opacity="0.2" class="st1"/>
  <path d="M1139.2667 110.9l49.5333 0l0 554.5l-49.5333 0Z" fill-opacity="0.2" class="st0"/>
  <path d="M1188.8 110.9l49.5333 0l0 554.5l-49.5333 0Z" fill-opacity="0.2" class="st1"/>
  <path d="M1238.3333 110.9l49.5333 0l0 554.5l-49.5333 0Z" fill-opacity="0.2" class="st0"/>
  <path d="M1287.8667 110.9l49.5333 0l0 554.5l-49.5333 0Z" fill-opacity="0.2" class="st1"/>
  <path d="M148.6 665.5L143.6 665.5" class="st2"/>
  <path d="M148.6 586.5L143.6 586.5" class="st2"/>
  <path d="M148.6 507.5L143.6 507.5" class="st2"/>
  <path d="M148.6 428.5L143.6 428.5" class="st2"/>
  <path d="M148.6 348.5L143.6 348.5" class="st2"/>
  <path d="M148.6 269.5L143.6 269.5" class="st2"/>
  <path d="M148.6 190.5L143.6 190.5" class="st2"/>
  <path d="M148.6 111.5L143.6 111.5" class="st2"/>
  <path d="M148.5 665.4L148.5 670.4" class="st2"/>
  <path d="M198.5 665.4L198.5 670.4" class="st2"/>
  <path d="M247.5 665.4L247.5 670.4" class="st2"/>
  <path d="M297.5 665.4L297.5 670.4" class="st2"/>
  <path d="M346.5 665.4L346.5 670.4" class="st2"/>
  <path d="M396.5 665.4L396.5 670.4" class="st2"/>
  <path d="M446.5 665.4L446.5 670.4" class="st2"/>
  <path d="M495.5 665.4L495.5 670.4" class="st2"/>
  <path d="M545.5 665.4L545.5 670.4" class="st2"/>
  <path d="M594.5 665.4L594.5 670.4" class="st2"/>
  <path d="M644.5 665.4L644.5 670.4" class="st2"/>
  <path d="M693.5 665.4L693.5 670.4" class="st2"/>
  <path d="M743.5 665.4L743.5 670.4" class="st2"/>
  <path d="M792.5 665.4L792.5 670.4" class="st2"/>
  <path d="M842.5 665.4L842.5 670.4" class="st2"/>
  <path d="M891.5 665.4L891.5 670.4" class="st2"/>
  <path d="M941.5 665.4L941.5 670.4" class="st2"/>
  <path d="M990.5 665.4L990.5 670.4" class="st2"/>
  <path d="M1040.5 665.4L1040.5 670.4" class="st2"/>
  <path d="M1089.5 665.4L1089.5 670.4" class="st2"/>
  <path d="M1139.5 665.4L1139.5 670.4" class="st2"/>
  <path d="M1189.5 665.4L1189.5 670.4" class="st2"/>
  <path d="M1238.5 665.4L1238.5 670.4" class="st2"/>
  <path d="M1288.5 665.4L1288.5 670.4" class="st2"/>
  <path d="M1337.5 665.4L1337.5 670.4" class="st2"/>
  <path d="M148.35 585.9357l50.0333 0l0 79.7143l-50.0333 0Z" class="st3"/>
  <path d="M197.8833 585.9357l50.0333 0l0 79.7143l-50.0333 0Z" class="st4"/>
  <path d="M693.2167 585.9357l50.0333 0l0 79.7143l-50.0333 0Z" class="st5"/>
  <path d="M742.75 585.9357l50.0333 0l0 79.7143l-50.0333 0Z" class="st6"/>
  <path d="M792.2833 585.9357l50.0333 0l0 79.7143l-50.0333 0Z" class="st4"/>
  <path d="M841.8167 585.9357l50.0333 0l0 79.7143l-50.0333 0Z" class="st4"/>
  <path d="M891.35 585.9357l50.0333 0l0 79.7143l-50.0333 0Z" class="st7"/>
  <path d="M940.8833 585.9357l50.0333 0l0 79.7143l-50.0333 0Z" class="st6"/>
  <path d="M990.4167 585.9357l50.0333 0l0 79.7143l-50.0333 0Z" class="st8"/>
  <path d="M1039.95 585.9357l50.0333 0l0 79.7143l-50.0333 0Z" class="st6"/>
  <path d="M1089.4833 585.9357l50.0333 0l0 79.7143l-50.0333 0Z" class="st6"/>
  <path d="M1139.0167 585.9357l50.0333 0l0 79.7143l-50.0333 0Z" class="st7"/>
  <path d="M1188.55 585.9357l50.0333 0l0 79.7143l-50.0333 0Z" class="st7"/>
  <path d="M1238.0833 585.9357l50.0333 0l0 79.7143l-50.0333 0Z" class="st5"/>
  <path d="M1287.6167 585.9357l50.0333 0l0 79.7143l-50.0333 0Z" class="st3"/>
  <path d="M148.35 506.7214l50.0333 0l0 79.7143l-50.0333 0Z" class="st9"/>
  <path d="M643.6833 506.7214l50.0333 0l0 79.7143l-50.0333 0Z" class="st3"/>
  <path d="M693.2167 506.7214l50.0333 0l0 79.7143l-50.0333 0Z" class="st5"/>
  <path d="M742.75 506.7214l50.0333 0l0 79.7143l-50.0333 0Z" class="st5"/>
  <path d="M792.2833 506.7214l50.0333 0l0 79.7143l-50.0333 0Z" class="st8"/>
  <path d="M841.8167 506.7214l50.0333 0l0 79.7143l-50.0333 0Z" class="st10"/>
  <path d="M891.35 506.7214l50.0333 0l0 79.7143l-50.0333 0Z" class="st11"/>
  <path d="M940.8833 506.7214l50.0333 0l0 79.7143l-50.0333 0Z" class="st8"/>
  <path d="M990.4167 506.7214l50.0333 0l0 79.7143l-50.0333 0Z" class="st9"/>
  <path d="M1039.95 506.7214l50.0333 0l0 79.7143l-50.0333 0Z" class="st12"/>
  <path d="M1089.4833 506.7214l50.0333 0l0 79.7143l-50.0333 0Z" class="st11"/>
  <path d="M1139.0167 506.7214l50.0333 0l0 79.7143l-50.0333 0Z" class="st3"/>
  <path d="M1188.55 506.7214l50.0333 0l0 79.7143l-50.0333 0Z" class="st3"/>
  <path d="M1238.0833 506.7214l50.0333 0l0 79.7143l-50.0333 0Z" class="st9"/>
  <path d="M1287.6167 506.7214l50.0333 0l0 79.7143l-50.0333 0Z" class="st5"/>
  <path d="M148.35 427.5071l50.0333 0l0 79.7143l-50.0333 0Z" class="st4"/>
  <path d="M197.8833 427.5071l50.0333 0l0 79.7143l-50.0333 0Z" class="st4"/>
  <path d="M643.6833 427.5071l50.0333 0l0 79.7143l-50.0333 0Z" class="st7"/>
  <path d="M693.2167 427.5071l50.0333 0l0 79.7143l-50.0333 0Z" class="st5"/>
  <path d="M742.75 427.5071l50.0333 0l0 79.7143l-50.0333 0Z" class="st4"/>
  <path d="M792.2833 427.5071l50.0333 0l0 79.7143l-50.0333 0Z" class="st10"/>
  <path d="M841.8167 427.5071l50.0333 0l0 79.7143l-50.0333 0Z" class="st12"/>
  <path d="M891.35 427.5071l50.0333 0l0 79.7143l-50.0333 0Z" class="st11"/>
  <path d="M940.8833 427.5071l50.0333 0l0 79.7143l-50.0333 0Z" class="st8"/>
  <path d="M990.4167 427.5071l50.0333 0l0 79.7143l-50.0333 0Z" class="st3"/>
  <path d="M1039.95 427.5071l50.0333 0l0 79.7143l-50.0333 0Z" class="st3"/>
  <path d="M1089.4833 427.5071l50.0333 0l0 79.7143l-50.0333 0Z" class="st3"/>
  <path d="M1139.0167 427.5071l50.0333 0l0 79.7143l-50.0333 0Z" class="st9"/>
  <path d="M1188.55 427.5071l50.0333 0l0 79.7143l-50.0333 0Z" class="st6"/>
  <path d="M1238.0833 427.5071l50.0333 0l0 79.7143l-50.0333 0Z" class="st5"/>
  <path d="M1287.6167 427.5071l50.0333 0l0 79.7143l-50.0333 0Z" class="st6"/>
  <path d="M148.35 348.2929l50.0333 0l0 79.7143l-50.0333 0Z" class="st9"/>
  <path d="M197.8833 348.2929l50.0333 0l0 79.7143l-50.0333 0Z" class="st7"/>
  <path d="M544.6167 348.2929l50.0333 0l0 79.7143l-50.0333 0Z" class="st4"/>
  <path d="M643.6833 348.2929l50.0333 0l0 79.7143l-50.0333 0Z" class="st3"/>
  <path d="M693.2167 348.2929l50.0333 0l0 79.7143l-50.0333 0Z" class="st6"/>
  <path d="M742.75 348.2929l50.0333 0l0 79.7143l-50.0333 0Z" class="st9"/>
  <path d="M792.2833 348.2929l50.0333 0l0 79.7143l-50.0333 0Z" class="st11"/>
  <path d="M841.8167 348.2929l50.0333 0l0 79.7143l-50.0333 0Z" class="st11"/>
  <path d="M891.35 348.2929l50.0333 0l0 79.7143l-50.0333 0Z" class="st11"/>
  <path d="M940.8833 348.2929l50.0333 0l0 79.7143l-50.0333 0Z" class="st10"/>
  <path d="M990.4167 348.2929l50.0333 0l0 79.7143l-50.0333 0Z" class="st3"/>
  <path d="M1039.95 348.2929l50.0333 0l0 79.7143l-50.0333 0Z" class="st3"/>
  <path d="M1089.4833 348.2929l50.0333 0l0 79.7143l-50.0333 0Z" class="st11"/>
  <path d="M1139.0167 348.2929l50.0333 0l0 79.7143l-50.0333 0Z" class="st8"/>
  <path d="M1188.55 348.2929l50.0333 0l0 79.7143l-50.0333 0Z" class="st6"/>
  <path d="M1238.0833 348.2929l50.0333 0l0 79.7143l-50.0333 0Z" class="st6"/>
  <path d="M1287.6167 348.2929l50.0333 0l0 79.7143l-50.0333 0Z" class="st4"/>
  <path d="M148.35 269.0786l50.0333 0l0 79.7143l-50.0333 0Z" class="st4"/>
  <path d="M197.8833 269.0786l50.0333 0l0 79.7143l-50.0333 0Z" class="st7"/>
  <path d="M396.0167 269.0786l50.0333 0l0 79.7143l-50.0333 0Z" class="st4"/>
  <path d="M594.15 269.0786l50.0333 0l0 79.7143l-50.0333 0Z" class="st5"/>
  <path d="M643.6833 269.0786l50.0333 0l0 79.7143l-50.0333 0Z" class="st6"/>
  <path d="M693.2167 269.0786l50.0333 0l0 79.7143l-50.0333 0Z" class="st6"/>
  <path d="M742.75 269.0786l50.0333 0l0 79.7143l-50.0333 0Z" class="st5"/>
  <path d="M792.2833 269.0786l50.0333 0l0 79.7143l-50.0333 0Z" class="st6"/>
  <path d="M841.8167 269.0786l50.0333 0l0 79.7143l-50.0333 0Z" class="st6"/>
  <path d="M891.35 269.0786l50.0333 0l0 79.7143l-50.0333 0Z" class="st11"/>
  <path d="M940.8833 269.0786l50.0333 0l0 79.7143l-50.0333 0Z" class="st11"/>
  <path d="M990.4167 269.0786l50.0333 0l0 79.7143l-50.0333 0Z" class="st4"/>
  <path d="M1039.95 269.0786l50.0333 0l0 79.7143l-50.0333 0Z" class="st12"/>
  <path d="M1089.4833 269.0786l50.0333 0l0 79.7143l-50.0333 0Z" class="st3"/>
  <path d="M1139.0167 269.0786l50.0333 0l0 79.7143l-50.0333 0Z" class="st7"/>
  <path d="M1188.55 269.0786l50.0333 0l0 79.7143l-50.0333 0Z" class="st9"/>
  <path d="M1238.0833 269.0786l50.0333 0l0 79.7143l-50.0333 0Z" class="st7"/>
  <path d="M148.35 189.8643l50.0333 0l0 79.7143l-50.0333 0Z" class="st5"/>
  <path d="M197.8833 189.8643l50.0333 0l0 79.7143l-50.0333 0Z" class="st4"/>
  <path d="M296.95 189.8643l50.0333 0l0 79.7143l-50.0333 0Z" class="st7"/>
  <path d="M544.6167 189.8643l50.0333 0l0 79.7143l-50.0333 0Z" class="st5"/>
  <path d="M643.6833 189.8643l50.0333 0l0 79.7143l-50.0333 0Z" class="st6"/>
  <path d="M693.2167 189.8643l50.0333 0l0 79.7143l-50.0333 0Z" class="st4"/>
  <path d="M742.75 189.8643l50.0333 0l0 79.7143l-50.0333 0Z" class="st3"/>
  <path d="M792.2833 189.8643l50.0333 0l0 79.7143l-50.0333 0Z" class="st11"/>
  <path d="M841.8167 189.8643l50.0333 0l0 79.7143l-50.0333 0Z" class="st3"/>
  <path d="M891.35 189.8643l50.0333 0l0 79.7143l-50.0333 0Z" class="st9"/>
  <path d="M940.8833 189.8643l50.0333 0l0 79.7143l-50.0333 0Z" class="st11"/>
  <path d="M990.4167 189.8643l50.0333 0l0 79.7143l-50.0333 0Z" class="st8"/>
  <path d="M1089.4833 189.8643l50.0333 0l0 79.7143l-50.0333 0Z" class="st3"/>
  <path d="M1139.0167 189.8643l50.0333 0l0 79.7143l-50.0333 0Z" class="st7"/>
  <path d="M1188.55 189.8643l50.0333 0l0 79.7143l-50.0333 0Z" class="st6"/>
  <path d="M1238.0833 189.8643l50.0333 0l0 79.7143l-50.0333 0Z" class="st5"/>
  <path d="M148.35 110.65l50.0333 0l0 79.7143l-50.0333 0Z" class="st4"/>
  <path d="M643.6833 110.65l50.0333 0l0 79.7143l-50.0333 0Z" class="st4"/>
  <path d="M742.75 110.65l50.0333 0l0 79.7143l-50.0333 0Z" class="st5"/>
  <path d="M792.2833 110.65l50.0333 0l0 79.7143l-50.0333 0Z" class="st4"/>
  <path d="M841.8167 110.65l50.0333 0l0 79.7143l-50.0333 0Z" class="st7"/>
  <path d="M891.35 110.65l50.0333 0l0 79.7143l-50.0333 0Z" class="st6"/>
  <path d="M1139.0167 110.65l50.0333 0l0 79.7143l-50.0333 0Z" class="st4"/>
  <path d="M1188.55 110.65l50.0333 0l0 79.7143l-50.0333 0Z" class="st5"/>
  <path d="M1238.0833 110.65l50.0333 0l0 79.7143l-50.0333 0Z" class="st5"/>
  <path d="M1287.6167 110.65l50.0333 0l0 79.7143l-50.0333 0Z" class="st8"/>
</svg>
