<svg data-v-4798a89b="" class="overview-svg" width="712px" height="50px"><!-- 将连接线组放在最后，确保它绘制在最上层 -->
    <g data-v-4798a89b="" class="clusters-group">
        <g data-v-4798a89b="" class="cluster-item cluster-core" data-node-id="revelioGood_core_0"
            data-cluster-id="core" data-index="0">
            <rect data-v-4798a89b="" width="32" height="32" x="0" y="20" rx="3" ry="3"
                style="fill: #905F29; fill-opacity: 0.98; stroke: none;"></rect><!-- 移除小圆点标记 -->
        </g>
        <g data-v-4798a89b="" class="cluster-item cluster-core" data-node-id="revelioGood_core_3"
            data-cluster-id="core" data-index="1">
            <rect data-v-4798a89b="" width="32" height="32" x="40" y="20" rx="3" ry="3"
                style="fill: #905F29; fill-opacity: 0.906; stroke: none;"></rect><!-- 移除小圆点标记 -->
        </g>
        <g data-v-4798a89b="" class="cluster-item cluster-core" data-node-id="revelioGood_core_5"
            data-cluster-id="core" data-index="2">
            <rect data-v-4798a89b="" width="32" height="32" x="80" y="20" rx="3" ry="3"
                style="fill: #905F29; fill-opacity: 0.835; stroke: none;"></rect><!-- 移除小圆点标记 -->
        </g>
        <g data-v-4798a89b="" class="cluster-item cluster-core cluster-visible"
            data-node-id="revelioGood_core_6" data-cluster-id="core" data-index="3">
            <rect data-v-4798a89b="" width="32" height="32" x="120" y="20" rx="3" ry="3"
                style="fill: #905F29; fill-opacity: 0.83; stroke: none;"></rect><!-- 移除小圆点标记 -->
        </g>
        <g data-v-4798a89b="" class="cluster-item cluster-core cluster-visible"
            data-node-id="revelioGood_core_1" data-cluster-id="core" data-index="4">
            <rect data-v-4798a89b="" width="32" height="32" x="160" y="20" rx="3" ry="3"
                style="fill: #905F29; fill-opacity: 0.83; stroke: none;"></rect><!-- 移除小圆点标记 -->
        </g>
        <g data-v-4798a89b="" class="cluster-item cluster-core cluster-visible"
            data-node-id="revelioGood_core_2" data-cluster-id="core" data-index="5">
            <rect data-v-4798a89b="" width="32" height="32" x="200" y="20" rx="3" ry="3"
                style="fill: #905F29; fill-opacity: 0.824; stroke: none;"></rect><!-- 移除小圆点标记 -->
        </g>
        <g data-v-4798a89b="" class="cluster-item cluster-core cluster-visible"
            data-node-id="standalone_ext_6_1" data-cluster-id="ext" data-index="6">
            <rect data-v-4798a89b="" width="32" height="32" x="240" y="20" rx="3" ry="3"
                style="fill: #905F29; fill-opacity: 0.733; stroke: none;"></rect><!-- 移除小圆点标记 -->
        </g>
        <g data-v-4798a89b="" class="cluster-item cluster-core cluster-visible"
            data-node-id="revelioGood_core_4" data-cluster-id="core" data-index="7">
            <rect data-v-4798a89b="" width="32" height="32" x="280" y="20" rx="3" ry="3"
                style="fill: #905F29; fill-opacity: 0.73; stroke: none;"></rect><!-- 移除小圆点标记 -->
        </g>
        <g data-v-4798a89b="" class="cluster-item cluster-core" data-node-id="core_5"
            data-cluster-id="5" data-index="8">
            <rect data-v-4798a89b="" width="32" height="32" x="320" y="20" rx="3" ry="3"
                style="fill: #905F29; fill-opacity: 0.718; stroke: none;"></rect><!-- 移除小圆点标记 -->
        </g>
        <g data-v-4798a89b="" class="cluster-item cluster-core" data-node-id="core_4"
            data-cluster-id="4" data-index="9">
            <rect data-v-4798a89b="" width="32" height="32" x="360" y="20" rx="3" ry="3"
                style="fill: #905F29; fill-opacity: 0.718; stroke: none;"></rect><!-- 移除小圆点标记 -->
        </g>
        <g data-v-4798a89b="" class="cluster-item cluster-core" data-node-id="core_3"
            data-cluster-id="3" data-index="10">
            <rect data-v-4798a89b="" width="32" height="32" x="400" y="20" rx="3" ry="3"
                style="fill: #905F29; fill-opacity: 0.718; stroke: none;"></rect><!-- 移除小圆点标记 -->
        </g>
        <g data-v-4798a89b="" class="cluster-item cluster-extension" data-node-id="ext_0_0"
            data-cluster-id="0" data-index="11">
            <rect data-v-4798a89b="" width="32" height="32" x="440" y="20" rx="3" ry="3"
                style="fill: #905F29; fill-opacity: 0.718; stroke: none;"></rect><!-- 移除小圆点标记 -->
        </g>
        <g data-v-4798a89b="" class="cluster-item cluster-core" data-node-id="core_0"
            data-cluster-id="0" data-index="12">
            <rect data-v-4798a89b="" width="32" height="32" x="480" y="20" rx="3" ry="3"
                style="fill: #905F29; fill-opacity: 0.718; stroke: none;"></rect><!-- 移除小圆点标记 -->
        </g>
        <g data-v-4798a89b="" class="cluster-item cluster-core" data-node-id="core_9"
            data-cluster-id="9" data-index="13">
            <rect data-v-4798a89b="" width="32" height="32" x="520" y="20" rx="3" ry="3"
                style="fill: #905F29; fill-opacity: 0.718; stroke: none;"></rect><!-- 移除小圆点标记 -->
        </g>
        <g data-v-4798a89b="" class="cluster-item cluster-extension" data-node-id="ext_0_1"
            data-cluster-id="0" data-index="14">
            <rect data-v-4798a89b="" width="32" height="32" x="560" y="20" rx="3" ry="3"
                style="fill: #905F29; fill-opacity: 0.714; stroke: none;"></rect><!-- 移除小圆点标记 -->
        </g>
        <g data-v-4798a89b="" class="cluster-item cluster-core" data-node-id="core_10"
            data-cluster-id="10" data-index="15">
            <rect data-v-4798a89b="" width="32" height="32" x="600" y="20" rx="3" ry="3"
                style="fill: #905F29; fill-opacity: 0.714; stroke: none;"></rect><!-- 移除小圆点标记 -->
        </g>
        <g data-v-4798a89b="" class="cluster-item cluster-core" data-node-id="core_11"
            data-cluster-id="11" data-index="16">
            <rect data-v-4798a89b="" width="32" height="32" x="640" y="20" rx="3" ry="3"
                style="fill: #905F29; fill-opacity: 0.714; stroke: none;"></rect><!-- 移除小圆点标记 -->
        </g>
        <g data-v-4798a89b="" class="cluster-item cluster-core" data-node-id="core_13"
            data-cluster-id="13" data-index="17">
            <rect data-v-4798a89b="" width="32" height="32" x="680" y="20" rx="3" ry="3"
                style="fill: #905F29; fill-opacity: 0.714; stroke: none;"></rect><!-- 移除小圆点标记 -->
        </g>
    </g>
    <g data-v-4798a89b="" class="connection-lines">
        <path
            d="M 496 20 
                L 496 15 
                Q 496 11 491 11 
                L 461 11 
                Q 456 11 456 16 
                L 456 20"
            fill="none" stroke="#905F29" stroke-width="1.5" stroke-opacity="0.7"
            data-ext-id="ext_0_0" data-core-id="core_0"
            style="pointer-events: none; overflow: visible;"></path>
        <polygon points="0,-3 6,0 0,3" fill="#905F29" transform="translate(476, 11) rotate(180)"
            style="pointer-events: none;"></polygon>
        <path
            d="M 496 20 
                L 496 15 
                Q 496 9 501 9 
                L 571 9 
                Q 576 9 576 14 
                L 576 20"
            fill="none" stroke="#905F29" stroke-width="1.5" stroke-opacity="0.7"
            data-ext-id="ext_0_1" data-core-id="core_0"
            style="pointer-events: none; overflow: visible;"></path>
        <polygon points="0,-3 6,0 0,3" fill="#905F29" transform="translate(536, 9) rotate(0)"
            style="pointer-events: none;"></polygon>
        <path
            d="M 56 20 
                L 56 15 
                Q 56 1 61 1 
                L 211 1 
                Q 216 1 216 6 
                L 216 20"
            fill="none" stroke="#905F29" stroke-width="1.5" stroke-opacity="0.7"
            data-ext-id="revelioGood_core_2" data-core-id="revelioGood_core_3"
            data-reveliogood="true" style="pointer-events: none; overflow: visible;"></path>
        <polygon points="0,-3 6,0 0,3" fill="#905F29" transform="translate(136, 1) rotate(0)"
            data-reveliogood="true" style="pointer-events: none;"></polygon>
        <path
            d="M 256 20 
                L 256 15 
                Q 256 9 251 9 
                L 181 9 
                Q 176 9 176 14 
                L 176 20"
            fill="none" stroke="#905F29" stroke-width="1.5" stroke-opacity="0.7"
            data-ext-id="revelioGood_core_1" data-core-id="standalone_ext_6_1"
            data-reveliogood="true" style="pointer-events: none; overflow: visible;"></path>
        <polygon points="0,-3 6,0 0,3" fill="#905F29" transform="translate(216, 9) rotate(180)"
            data-reveliogood="true" style="pointer-events: none;"></polygon>
        <path
            d="M 256 20 
                L 256 15 
                Q 256 11 261 11 
                L 291 11 
                Q 296 11 296 16 
                L 296 20"
            fill="none" stroke="#905F29" stroke-width="1.5" stroke-opacity="0.7"
            data-ext-id="revelioGood_core_4" data-core-id="standalone_ext_6_1"
            data-reveliogood="true" style="pointer-events: none; overflow: visible;"></path>
        <polygon points="0,-3 6,0 0,3" fill="#905F29" transform="translate(276, 11) rotate(0)"
            data-reveliogood="true" style="pointer-events: none;"></polygon>
    </g>
</svg>