<?xml version='1.0' encoding='utf-8'?>
<svg width="900" height="340" viewBox="0,0,1100,700" id="svg">
  <rect x="844.9869791666667" y="642.7222222222223" width="36.77777777777778" height="36.77777777777778" fill="#1f77b4" id="rect_251" />
  <rect x="807.2092013888889" y="642.7222222222223" width="36.77777777777778" height="36.77777777777778" fill="#1f77b4" id="rect_250" />
  <rect x="769.4314236111111" y="642.7222222222223" width="36.77777777777778" height="36.77777777777778" fill="#1f77b4" id="rect_249" />
  <rect x="731.6536458333333" y="642.7222222222223" width="36.77777777777778" height="36.77777777777778" fill="#1f77b4" id="rect_248" />
  <rect x="693.8758680555555" y="642.7222222222223" width="36.77777777777778" height="36.77777777777778" fill="#1f77b4" id="rect_247" />
  <rect x="656.0980902777778" y="642.7222222222223" width="36.77777777777778" height="36.77777777777778" fill="#1f77b4" id="rect_246" />
  <rect x="618.3203125" y="642.7222222222223" width="36.77777777777778" height="36.77777777777778" fill="#1f77b4" id="rect_245" />
  <rect x="580.5425347222222" y="642.7222222222223" width="36.77777777777778" height="36.77777777777778" fill="#1f77b4" id="rect_244" />
  <rect x="542.7647569444445" y="642.7222222222223" width="36.77777777777778" height="36.77777777777778" fill="#1f77b4" id="rect_243" />
  <rect x="504.98697916666663" y="642.7222222222223" width="36.77777777777778" height="36.77777777777778" fill="#1f77b4" id="rect_242" />
  <rect x="467.2092013888889" y="642.7222222222223" width="36.77777777777778" height="36.77777777777778" fill="#1f77b4" id="rect_241" />
  <rect x="429.4314236111111" y="642.7222222222223" width="36.77777777777778" height="36.77777777777778" fill="#1f77b4" id="rect_240" />
  <rect x="391.6536458333333" y="642.7222222222223" width="36.77777777777778" height="36.77777777777778" fill="#1f77b4" id="rect_239" />
  <rect x="353.87586805555554" y="642.7222222222223" width="36.77777777777778" height="36.77777777777778" fill="#1f77b4" id="rect_238" />
  <rect x="844.9869791666667" y="604.9444444444445" width="36.77777777777778" height="36.77777777777778" fill="#1f77b4" id="rect_237" />
  <rect x="807.2092013888889" y="604.9444444444445" width="36.77777777777778" height="36.77777777777778" fill="#1f77b4" id="rect_236" />
  <rect x="769.4314236111111" y="604.9444444444445" width="36.77777777777778" height="36.77777777777778" fill="#1f77b4" id="rect_235" />
  <rect x="731.6536458333333" y="604.9444444444445" width="36.77777777777778" height="36.77777777777778" fill="#1f77b4" id="rect_234" />
  <rect x="693.8758680555555" y="604.9444444444445" width="36.77777777777778" height="36.77777777777778" fill="#1f77b4" id="rect_233" />
  <rect x="656.0980902777778" y="604.9444444444445" width="36.77777777777778" height="36.77777777777778" fill="#1f77b4" id="rect_232" />
  <rect x="618.3203125" y="604.9444444444445" width="36.77777777777778" height="36.77777777777778" fill="#1f77b4" id="rect_231" />
  <rect x="580.5425347222222" y="604.9444444444445" width="36.77777777777778" height="36.77777777777778" fill="#1f77b4" id="rect_230" />
  <rect x="542.7647569444445" y="604.9444444444445" width="36.77777777777778" height="36.77777777777778" fill="#1f77b4" id="rect_229" />
  <rect x="504.98697916666663" y="604.9444444444445" width="36.77777777777778" height="36.77777777777778" fill="#1f77b4" id="rect_228" />
  <rect x="467.2092013888889" y="604.9444444444445" width="36.77777777777778" height="36.77777777777778" fill="#1f77b4" id="rect_227" />
  <rect x="429.4314236111111" y="604.9444444444445" width="36.77777777777778" height="36.77777777777778" fill="#1f77b4" id="rect_226" />
  <rect x="391.6536458333333" y="604.9444444444445" width="36.77777777777778" height="36.77777777777778" fill="#1f77b4" id="rect_225" />
  <rect x="353.87586805555554" y="604.9444444444445" width="36.77777777777778" height="36.77777777777778" fill="#1f77b4" id="rect_224" />
  <rect x="844.9869791666667" y="567.1666666666666" width="36.77777777777778" height="36.77777777777778" fill="#1f77b4" id="rect_223" />
  <rect x="807.2092013888889" y="567.1666666666666" width="36.77777777777778" height="36.77777777777778" fill="#1f77b4" id="rect_222" />
  <rect x="769.4314236111111" y="567.1666666666666" width="36.77777777777778" height="36.77777777777778" fill="#1f77b4" id="rect_221" />
  <rect x="731.6536458333333" y="567.1666666666666" width="36.77777777777778" height="36.77777777777778" fill="#1f77b4" id="rect_220" />
  <rect x="693.8758680555555" y="567.1666666666666" width="36.77777777777778" height="36.77777777777778" fill="#1f77b4" id="rect_219" />
  <rect x="656.0980902777778" y="567.1666666666666" width="36.77777777777778" height="36.77777777777778" fill="#1f77b4" id="rect_218" />
  <rect x="618.3203125" y="567.1666666666666" width="36.77777777777778" height="36.77777777777778" fill="#1f77b4" id="rect_217" />
  <rect x="580.5425347222222" y="567.1666666666666" width="36.77777777777778" height="36.77777777777778" fill="#1f77b4" id="rect_216" />
  <rect x="542.7647569444445" y="567.1666666666666" width="36.77777777777778" height="36.77777777777778" fill="#1f77b4" id="rect_215" />
  <rect x="504.98697916666663" y="567.1666666666666" width="36.77777777777778" height="36.77777777777778" fill="#1f77b4" id="rect_214" />
  <rect x="467.2092013888889" y="567.1666666666666" width="36.77777777777778" height="36.77777777777778" fill="#1f77b4" id="rect_213" />
  <rect x="429.4314236111111" y="567.1666666666666" width="36.77777777777778" height="36.77777777777778" fill="#1f77b4" id="rect_212" />
  <rect x="391.6536458333333" y="567.1666666666666" width="36.77777777777778" height="36.77777777777778" fill="#1f77b4" id="rect_211" />
  <rect x="353.87586805555554" y="567.1666666666666" width="36.77777777777778" height="36.77777777777778" fill="#ff7f0e" id="rect_210" />
  <rect x="844.9869791666667" y="529.3888888888889" width="36.77777777777778" height="36.77777777777778" fill="#ff7f0e" id="rect_209" />
  <rect x="807.2092013888889" y="529.3888888888889" width="36.77777777777778" height="36.77777777777778" fill="#ff7f0e" id="rect_208" />
  <rect x="769.4314236111111" y="529.3888888888889" width="36.77777777777778" height="36.77777777777778" fill="#ff7f0e" id="rect_207" />
  <rect x="731.6536458333333" y="529.3888888888889" width="36.77777777777778" height="36.77777777777778" fill="#ff7f0e" id="rect_206" />
  <rect x="693.8758680555555" y="529.3888888888889" width="36.77777777777778" height="36.77777777777778" fill="#ff7f0e" id="rect_205" />
  <rect x="656.0980902777778" y="529.3888888888889" width="36.77777777777778" height="36.77777777777778" fill="#ff7f0e" id="rect_204" />
  <rect x="618.3203125" y="529.3888888888889" width="36.77777777777778" height="36.77777777777778" fill="#ff7f0e" id="rect_203" />
  <rect x="580.5425347222222" y="529.3888888888889" width="36.77777777777778" height="36.77777777777778" fill="#ff7f0e" id="rect_202" />
  <rect x="542.7647569444445" y="529.3888888888889" width="36.77777777777778" height="36.77777777777778" fill="#ff7f0e" id="rect_201" />
  <rect x="504.98697916666663" y="529.3888888888889" width="36.77777777777778" height="36.77777777777778" fill="#ff7f0e" id="rect_200" />
  <rect x="467.2092013888889" y="529.3888888888889" width="36.77777777777778" height="36.77777777777778" fill="#ff7f0e" id="rect_199" />
  <rect x="429.4314236111111" y="529.3888888888889" width="36.77777777777778" height="36.77777777777778" fill="#ff7f0e" id="rect_198" />
  <rect x="391.6536458333333" y="529.3888888888889" width="36.77777777777778" height="36.77777777777778" fill="#ff7f0e" id="rect_197" />
  <rect x="353.87586805555554" y="529.3888888888889" width="36.77777777777778" height="36.77777777777778" fill="#ff7f0e" id="rect_196" />
  <rect x="844.9869791666667" y="491.61111111111114" width="36.77777777777778" height="36.77777777777778" fill="#ff7f0e" id="rect_195" />
  <rect x="807.2092013888889" y="491.61111111111114" width="36.77777777777778" height="36.77777777777778" fill="#ff7f0e" id="rect_194" />
  <rect x="769.4314236111111" y="491.61111111111114" width="36.77777777777778" height="36.77777777777778" fill="#ff7f0e" id="rect_193" />
  <rect x="731.6536458333333" y="491.61111111111114" width="36.77777777777778" height="36.77777777777778" fill="#ff7f0e" id="rect_192" />
  <rect x="693.8758680555555" y="491.61111111111114" width="36.77777777777778" height="36.77777777777778" fill="#ff7f0e" id="rect_191" />
  <rect x="656.0980902777778" y="491.61111111111114" width="36.77777777777778" height="36.77777777777778" fill="#ff7f0e" id="rect_190" />
  <rect x="618.3203125" y="491.61111111111114" width="36.77777777777778" height="36.77777777777778" fill="#ff7f0e" id="rect_189" />
  <rect x="580.5425347222222" y="491.61111111111114" width="36.77777777777778" height="36.77777777777778" fill="#ff7f0e" id="rect_188" />
  <rect x="542.7647569444445" y="491.61111111111114" width="36.77777777777778" height="36.77777777777778" fill="#ff7f0e" id="rect_187" />
  <rect x="504.98697916666663" y="491.61111111111114" width="36.77777777777778" height="36.77777777777778" fill="#ff7f0e" id="rect_186" />
  <rect x="467.2092013888889" y="491.61111111111114" width="36.77777777777778" height="36.77777777777778" fill="#ff7f0e" id="rect_185" />
  <rect x="429.4314236111111" y="491.61111111111114" width="36.77777777777778" height="36.77777777777778" fill="#ff7f0e" id="rect_184" />
  <rect x="391.6536458333333" y="491.61111111111114" width="36.77777777777778" height="36.77777777777778" fill="#ff7f0e" id="rect_183" />
  <rect x="353.87586805555554" y="491.61111111111114" width="36.77777777777778" height="36.77777777777778" fill="#ff7f0e" id="rect_182" />
  <rect x="844.9869791666667" y="453.83333333333337" width="36.77777777777778" height="36.77777777777778" fill="#ff7f0e" id="rect_181" />
  <rect x="807.2092013888889" y="453.83333333333337" width="36.77777777777778" height="36.77777777777778" fill="#ff7f0e" id="rect_180" />
  <rect x="769.4314236111111" y="453.83333333333337" width="36.77777777777778" height="36.77777777777778" fill="#ff7f0e" id="rect_179" />
  <rect x="731.6536458333333" y="453.83333333333337" width="36.77777777777778" height="36.77777777777778" fill="#ff7f0e" id="rect_178" />
  <rect x="693.8758680555555" y="453.83333333333337" width="36.77777777777778" height="36.77777777777778" fill="#ff7f0e" id="rect_177" />
  <rect x="656.0980902777778" y="453.83333333333337" width="36.77777777777778" height="36.77777777777778" fill="#ff7f0e" id="rect_176" />
  <rect x="618.3203125" y="453.83333333333337" width="36.77777777777778" height="36.77777777777778" fill="#ff7f0e" id="rect_175" />
  <rect x="580.5425347222222" y="453.83333333333337" width="36.77777777777778" height="36.77777777777778" fill="#ff7f0e" id="rect_174" />
  <rect x="542.7647569444445" y="453.83333333333337" width="36.77777777777778" height="36.77777777777778" fill="#ff7f0e" id="rect_173" />
  <rect x="504.98697916666663" y="453.83333333333337" width="36.77777777777778" height="36.77777777777778" fill="#ff7f0e" id="rect_172" />
  <rect x="467.2092013888889" y="453.83333333333337" width="36.77777777777778" height="36.77777777777778" fill="#ff7f0e" id="rect_171" />
  <rect x="429.4314236111111" y="453.83333333333337" width="36.77777777777778" height="36.77777777777778" fill="#ff7f0e" id="rect_170" />
  <rect x="391.6536458333333" y="453.83333333333337" width="36.77777777777778" height="36.77777777777778" fill="#ff7f0e" id="rect_169" />
  <rect x="353.87586805555554" y="453.83333333333337" width="36.77777777777778" height="36.77777777777778" fill="#ff7f0e" id="rect_168" />
  <rect x="844.9869791666667" y="416.05555555555554" width="36.77777777777778" height="36.77777777777778" fill="#ff7f0e" id="rect_167" />
  <rect x="807.2092013888889" y="416.05555555555554" width="36.77777777777778" height="36.77777777777778" fill="#2ca02c" id="rect_166" />
  <rect x="769.4314236111111" y="416.05555555555554" width="36.77777777777778" height="36.77777777777778" fill="#2ca02c" id="rect_165" />
  <rect x="731.6536458333333" y="416.05555555555554" width="36.77777777777778" height="36.77777777777778" fill="#2ca02c" id="rect_164" />
  <rect x="693.8758680555555" y="416.05555555555554" width="36.77777777777778" height="36.77777777777778" fill="#2ca02c" id="rect_163" />
  <rect x="656.0980902777778" y="416.05555555555554" width="36.77777777777778" height="36.77777777777778" fill="#2ca02c" id="rect_162" />
  <rect x="618.3203125" y="416.05555555555554" width="36.77777777777778" height="36.77777777777778" fill="#2ca02c" id="rect_161" />
  <rect x="580.5425347222222" y="416.05555555555554" width="36.77777777777778" height="36.77777777777778" fill="#2ca02c" id="rect_160" />
  <rect x="542.7647569444445" y="416.05555555555554" width="36.77777777777778" height="36.77777777777778" fill="#2ca02c" id="rect_159" />
  <rect x="504.98697916666663" y="416.05555555555554" width="36.77777777777778" height="36.77777777777778" fill="#2ca02c" id="rect_158" />
  <rect x="467.2092013888889" y="416.05555555555554" width="36.77777777777778" height="36.77777777777778" fill="#2ca02c" id="rect_157" />
  <rect x="429.4314236111111" y="416.05555555555554" width="36.77777777777778" height="36.77777777777778" fill="#2ca02c" id="rect_156" />
  <rect x="391.6536458333333" y="416.05555555555554" width="36.77777777777778" height="36.77777777777778" fill="#2ca02c" id="rect_155" />
  <rect x="353.87586805555554" y="416.05555555555554" width="36.77777777777778" height="36.77777777777778" fill="#2ca02c" id="rect_154" />
  <rect x="844.9869791666667" y="378.27777777777777" width="36.77777777777778" height="36.77777777777778" fill="#2ca02c" id="rect_153" />
  <rect x="807.2092013888889" y="378.27777777777777" width="36.77777777777778" height="36.77777777777778" fill="#2ca02c" id="rect_152" />
  <rect x="769.4314236111111" y="378.27777777777777" width="36.77777777777778" height="36.77777777777778" fill="#2ca02c" id="rect_151" />
  <rect x="731.6536458333333" y="378.27777777777777" width="36.77777777777778" height="36.77777777777778" fill="#2ca02c" id="rect_150" />
  <rect x="693.8758680555555" y="378.27777777777777" width="36.77777777777778" height="36.77777777777778" fill="#2ca02c" id="rect_149" />
  <rect x="656.0980902777778" y="378.27777777777777" width="36.77777777777778" height="36.77777777777778" fill="#2ca02c" id="rect_148" />
  <rect x="618.3203125" y="378.27777777777777" width="36.77777777777778" height="36.77777777777778" fill="#2ca02c" id="rect_147" />
  <rect x="580.5425347222222" y="378.27777777777777" width="36.77777777777778" height="36.77777777777778" fill="#2ca02c" id="rect_146" />
  <rect x="542.7647569444445" y="378.27777777777777" width="36.77777777777778" height="36.77777777777778" fill="#2ca02c" id="rect_145" />
  <rect x="504.98697916666663" y="378.27777777777777" width="36.77777777777778" height="36.77777777777778" fill="#2ca02c" id="rect_144" />
  <rect x="467.2092013888889" y="378.27777777777777" width="36.77777777777778" height="36.77777777777778" fill="#2ca02c" id="rect_143" />
  <rect x="429.4314236111111" y="378.27777777777777" width="36.77777777777778" height="36.77777777777778" fill="#2ca02c" id="rect_142" />
  <rect x="391.6536458333333" y="378.27777777777777" width="36.77777777777778" height="36.77777777777778" fill="#2ca02c" id="rect_141" />
  <rect x="353.87586805555554" y="378.27777777777777" width="36.77777777777778" height="36.77777777777778" fill="#2ca02c" id="rect_140" />
  <rect x="844.9869791666667" y="340.5" width="36.77777777777778" height="36.77777777777778" fill="#2ca02c" id="rect_139" />
  <rect x="807.2092013888889" y="340.5" width="36.77777777777778" height="36.77777777777778" fill="#2ca02c" id="rect_138" />
  <rect x="769.4314236111111" y="340.5" width="36.77777777777778" height="36.77777777777778" fill="#2ca02c" id="rect_137" />
  <rect x="731.6536458333333" y="340.5" width="36.77777777777778" height="36.77777777777778" fill="#2ca02c" id="rect_136" />
  <rect x="693.8758680555555" y="340.5" width="36.77777777777778" height="36.77777777777778" fill="#2ca02c" id="rect_135" />
  <rect x="656.0980902777778" y="340.5" width="36.77777777777778" height="36.77777777777778" fill="#2ca02c" id="rect_134" />
  <rect x="618.3203125" y="340.5" width="36.77777777777778" height="36.77777777777778" fill="#2ca02c" id="rect_133" />
  <rect x="580.5425347222222" y="340.5" width="36.77777777777778" height="36.77777777777778" fill="#2ca02c" id="rect_132" />
  <rect x="542.7647569444445" y="340.5" width="36.77777777777778" height="36.77777777777778" fill="#2ca02c" id="rect_131" />
  <rect x="504.98697916666663" y="340.5" width="36.77777777777778" height="36.77777777777778" fill="#2ca02c" id="rect_130" />
  <rect x="467.2092013888889" y="340.5" width="36.77777777777778" height="36.77777777777778" fill="#2ca02c" id="rect_129" />
  <rect x="429.4314236111111" y="340.5" width="36.77777777777778" height="36.77777777777778" fill="#2ca02c" id="rect_128" />
  <rect x="391.6536458333333" y="340.5" width="36.77777777777778" height="36.77777777777778" fill="#2ca02c" id="rect_127" />
  <rect x="353.87586805555554" y="340.5" width="36.77777777777778" height="36.77777777777778" fill="#2ca02c" id="rect_126" />
  <rect x="844.9869791666667" y="302.72222222222223" width="36.77777777777778" height="36.77777777777778" fill="#2ca02c" id="rect_125" />
  <rect x="807.2092013888889" y="302.72222222222223" width="36.77777777777778" height="36.77777777777778" fill="#2ca02c" id="rect_124" />
  <rect x="769.4314236111111" y="302.72222222222223" width="36.77777777777778" height="36.77777777777778" fill="#2ca02c" id="rect_123" />
  <rect x="731.6536458333333" y="302.72222222222223" width="36.77777777777778" height="36.77777777777778" fill="#2ca02c" id="rect_122" />
  <rect x="693.8758680555555" y="302.72222222222223" width="36.77777777777778" height="36.77777777777778" fill="#2ca02c" id="rect_121" />
  <rect x="656.0980902777778" y="302.72222222222223" width="36.77777777777778" height="36.77777777777778" fill="#2ca02c" id="rect_120" />
  <rect x="618.3203125" y="302.72222222222223" width="36.77777777777778" height="36.77777777777778" fill="#2ca02c" id="rect_119" />
  <rect x="580.5425347222222" y="302.72222222222223" width="36.77777777777778" height="36.77777777777778" fill="#2ca02c" id="rect_118" />
  <rect x="542.7647569444445" y="302.72222222222223" width="36.77777777777778" height="36.77777777777778" fill="#2ca02c" id="rect_117" />
  <rect x="504.98697916666663" y="302.72222222222223" width="36.77777777777778" height="36.77777777777778" fill="#2ca02c" id="rect_116" />
  <rect x="467.2092013888889" y="302.72222222222223" width="36.77777777777778" height="36.77777777777778" fill="#2ca02c" id="rect_115" />
  <rect x="429.4314236111111" y="302.72222222222223" width="36.77777777777778" height="36.77777777777778" fill="#2ca02c" id="rect_114" />
  <rect x="391.6536458333333" y="302.72222222222223" width="36.77777777777778" height="36.77777777777778" fill="#2ca02c" id="rect_113" />
  <rect x="353.87586805555554" y="302.72222222222223" width="36.77777777777778" height="36.77777777777778" fill="#2ca02c" id="rect_112" />
  <rect x="844.9869791666667" y="264.94444444444446" width="36.77777777777778" height="36.77777777777778" fill="#2ca02c" id="rect_111" />
  <rect x="807.2092013888889" y="264.94444444444446" width="36.77777777777778" height="36.77777777777778" fill="#2ca02c" id="rect_110" />
  <rect x="769.4314236111111" y="264.94444444444446" width="36.77777777777778" height="36.77777777777778" fill="#2ca02c" id="rect_109" />
  <rect x="731.6536458333333" y="264.94444444444446" width="36.77777777777778" height="36.77777777777778" fill="#2ca02c" id="rect_108" />
  <rect x="693.8758680555555" y="264.94444444444446" width="36.77777777777778" height="36.77777777777778" fill="#2ca02c" id="rect_107" />
  <rect x="656.0980902777778" y="264.94444444444446" width="36.77777777777778" height="36.77777777777778" fill="#2ca02c" id="rect_106" />
  <rect x="618.3203125" y="264.94444444444446" width="36.77777777777778" height="36.77777777777778" fill="#2ca02c" id="rect_105" />
  <rect x="580.5425347222222" y="264.94444444444446" width="36.77777777777778" height="36.77777777777778" fill="#2ca02c" id="rect_104" />
  <rect x="542.7647569444445" y="264.94444444444446" width="36.77777777777778" height="36.77777777777778" fill="#2ca02c" id="rect_103" />
  <rect x="504.98697916666663" y="264.94444444444446" width="36.77777777777778" height="36.77777777777778" fill="#2ca02c" id="rect_102" />
  <rect x="467.2092013888889" y="264.94444444444446" width="36.77777777777778" height="36.77777777777778" fill="#2ca02c" id="rect_101" />
  <rect x="429.4314236111111" y="264.94444444444446" width="36.77777777777778" height="36.77777777777778" fill="#2ca02c" id="rect_100" />
  <rect x="391.6536458333333" y="264.94444444444446" width="36.77777777777778" height="36.77777777777778" fill="#2ca02c" id="rect_99" />
  <rect x="353.87586805555554" y="264.94444444444446" width="36.77777777777778" height="36.77777777777778" fill="#2ca02c" id="rect_98" />
  <rect x="844.9869791666667" y="227.16666666666669" width="36.77777777777778" height="36.77777777777778" fill="#2ca02c" id="rect_97" />
  <rect x="807.2092013888889" y="227.16666666666669" width="36.77777777777778" height="36.77777777777778" fill="#2ca02c" id="rect_96" />
  <rect x="769.4314236111111" y="227.16666666666669" width="36.77777777777778" height="36.77777777777778" fill="#2ca02c" id="rect_95" />
  <rect x="731.6536458333333" y="227.16666666666669" width="36.77777777777778" height="36.77777777777778" fill="#2ca02c" id="rect_94" />
  <rect x="693.8758680555555" y="227.16666666666669" width="36.77777777777778" height="36.77777777777778" fill="#2ca02c" id="rect_93" />
  <rect x="656.0980902777778" y="227.16666666666669" width="36.77777777777778" height="36.77777777777778" fill="#2ca02c" id="rect_92" />
  <rect x="618.3203125" y="227.16666666666669" width="36.77777777777778" height="36.77777777777778" fill="#2ca02c" id="rect_91" />
  <rect x="580.5425347222222" y="227.16666666666669" width="36.77777777777778" height="36.77777777777778" fill="#2ca02c" id="rect_90" />
  <rect x="542.7647569444445" y="227.16666666666669" width="36.77777777777778" height="36.77777777777778" fill="#2ca02c" id="rect_89" />
  <rect x="504.98697916666663" y="227.16666666666669" width="36.77777777777778" height="36.77777777777778" fill="#2ca02c" id="rect_88" />
  <rect x="467.2092013888889" y="227.16666666666669" width="36.77777777777778" height="36.77777777777778" fill="#2ca02c" id="rect_87" />
  <rect x="429.4314236111111" y="227.16666666666669" width="36.77777777777778" height="36.77777777777778" fill="#cccccc" id="rect_86" />
  <rect x="391.6536458333333" y="227.16666666666669" width="36.77777777777778" height="36.77777777777778" fill="#cccccc" id="rect_85" />
  <rect x="353.87586805555554" y="227.16666666666669" width="36.77777777777778" height="36.77777777777778" fill="#cccccc" id="rect_84" />
  <rect x="844.9869791666667" y="189.38888888888889" width="36.77777777777778" height="36.77777777777778" fill="#cccccc" id="rect_83" />
  <rect x="807.2092013888889" y="189.38888888888889" width="36.77777777777778" height="36.77777777777778" fill="#cccccc" id="rect_82" />
  <rect x="769.4314236111111" y="189.38888888888889" width="36.77777777777778" height="36.77777777777778" fill="#cccccc" id="rect_81" />
  <rect x="731.6536458333333" y="189.38888888888889" width="36.77777777777778" height="36.77777777777778" fill="#cccccc" id="rect_80" />
  <rect x="693.8758680555555" y="189.38888888888889" width="36.77777777777778" height="36.77777777777778" fill="#cccccc" id="rect_79" />
  <rect x="656.0980902777778" y="189.38888888888889" width="36.77777777777778" height="36.77777777777778" fill="#cccccc" id="rect_78" />
  <rect x="618.3203125" y="189.38888888888889" width="36.77777777777778" height="36.77777777777778" fill="#cccccc" id="rect_77" />
  <rect x="580.5425347222222" y="189.38888888888889" width="36.77777777777778" height="36.77777777777778" fill="#cccccc" id="rect_76" />
  <rect x="542.7647569444445" y="189.38888888888889" width="36.77777777777778" height="36.77777777777778" fill="#cccccc" id="rect_75" />
  <rect x="504.98697916666663" y="189.38888888888889" width="36.77777777777778" height="36.77777777777778" fill="#cccccc" id="rect_74" />
  <rect x="467.2092013888889" y="189.38888888888889" width="36.77777777777778" height="36.77777777777778" fill="#cccccc" id="rect_73" />
  <rect x="429.4314236111111" y="189.38888888888889" width="36.77777777777778" height="36.77777777777778" fill="#cccccc" id="rect_72" />
  <rect x="391.6536458333333" y="189.38888888888889" width="36.77777777777778" height="36.77777777777778" fill="#cccccc" id="rect_71" />
  <rect x="353.87586805555554" y="189.38888888888889" width="36.77777777777778" height="36.77777777777778" fill="#cccccc" id="rect_70" />
  <rect x="844.9869791666667" y="151.61111111111111" width="36.77777777777778" height="36.77777777777778" fill="#cccccc" id="rect_69" />
  <rect x="807.2092013888889" y="151.61111111111111" width="36.77777777777778" height="36.77777777777778" fill="#cccccc" id="rect_68" />
  <rect x="769.4314236111111" y="151.61111111111111" width="36.77777777777778" height="36.77777777777778" fill="#cccccc" id="rect_67" />
  <rect x="731.6536458333333" y="151.61111111111111" width="36.77777777777778" height="36.77777777777778" fill="#cccccc" id="rect_66" />
  <rect x="693.8758680555555" y="151.61111111111111" width="36.77777777777778" height="36.77777777777778" fill="#cccccc" id="rect_65" />
  <rect x="656.0980902777778" y="151.61111111111111" width="36.77777777777778" height="36.77777777777778" fill="#cccccc" id="rect_64" />
  <rect x="618.3203125" y="151.61111111111111" width="36.77777777777778" height="36.77777777777778" fill="#cccccc" id="rect_63" />
  <rect x="580.5425347222222" y="151.61111111111111" width="36.77777777777778" height="36.77777777777778" fill="#cccccc" id="rect_62" />
  <rect x="542.7647569444445" y="151.61111111111111" width="36.77777777777778" height="36.77777777777778" fill="#cccccc" id="rect_61" />
  <rect x="504.98697916666663" y="151.61111111111111" width="36.77777777777778" height="36.77777777777778" fill="#cccccc" id="rect_60" />
  <rect x="467.2092013888889" y="151.61111111111111" width="36.77777777777778" height="36.77777777777778" fill="#cccccc" id="rect_59" />
  <rect x="429.4314236111111" y="151.61111111111111" width="36.77777777777778" height="36.77777777777778" fill="#cccccc" id="rect_58" />
  <rect x="391.6536458333333" y="151.61111111111111" width="36.77777777777778" height="36.77777777777778" fill="#cccccc" id="rect_57" />
  <rect x="353.87586805555554" y="151.61111111111111" width="36.77777777777778" height="36.77777777777778" fill="#cccccc" id="rect_56" />
  <rect x="844.9869791666667" y="113.83333333333334" width="36.77777777777778" height="36.77777777777778" fill="#cccccc" id="rect_55" />
  <rect x="807.2092013888889" y="113.83333333333334" width="36.77777777777778" height="36.77777777777778" fill="#cccccc" id="rect_54" />
  <rect x="769.4314236111111" y="113.83333333333334" width="36.77777777777778" height="36.77777777777778" fill="#cccccc" id="rect_53" />
  <rect x="731.6536458333333" y="113.83333333333334" width="36.77777777777778" height="36.77777777777778" fill="#cccccc" id="rect_52" />
  <rect x="693.8758680555555" y="113.83333333333334" width="36.77777777777778" height="36.77777777777778" fill="#cccccc" id="rect_51" />
  <rect x="656.0980902777778" y="113.83333333333334" width="36.77777777777778" height="36.77777777777778" fill="#cccccc" id="rect_50" />
  <rect x="618.3203125" y="113.83333333333334" width="36.77777777777778" height="36.77777777777778" fill="#cccccc" id="rect_49" />
  <rect x="580.5425347222222" y="113.83333333333334" width="36.77777777777778" height="36.77777777777778" fill="#cccccc" id="rect_48" />
  <rect x="542.7647569444445" y="113.83333333333334" width="36.77777777777778" height="36.77777777777778" fill="#cccccc" id="rect_47" />
  <rect x="504.98697916666663" y="113.83333333333334" width="36.77777777777778" height="36.77777777777778" fill="#cccccc" id="rect_46" />
  <rect x="467.2092013888889" y="113.83333333333334" width="36.77777777777778" height="36.77777777777778" fill="#cccccc" id="rect_45" />
  <rect x="429.4314236111111" y="113.83333333333334" width="36.77777777777778" height="36.77777777777778" fill="#cccccc" id="rect_44" />
  <rect x="391.6536458333333" y="113.83333333333334" width="36.77777777777778" height="36.77777777777778" fill="#cccccc" id="rect_43" />
  <rect x="353.87586805555554" y="113.83333333333334" width="36.77777777777778" height="36.77777777777778" fill="#cccccc" id="rect_42" />
  <rect x="844.9869791666667" y="76.05555555555556" width="36.77777777777778" height="36.77777777777778" fill="#cccccc" id="rect_41" />
  <rect x="807.2092013888889" y="76.05555555555556" width="36.77777777777778" height="36.77777777777778" fill="#cccccc" id="rect_40" />
  <rect x="769.4314236111111" y="76.05555555555556" width="36.77777777777778" height="36.77777777777778" fill="#cccccc" id="rect_39" />
  <rect x="731.6536458333333" y="76.05555555555556" width="36.77777777777778" height="36.77777777777778" fill="#cccccc" id="rect_38" />
  <rect x="693.8758680555555" y="76.05555555555556" width="36.77777777777778" height="36.77777777777778" fill="#cccccc" id="rect_37" />
  <rect x="656.0980902777778" y="76.05555555555556" width="36.77777777777778" height="36.77777777777778" fill="#cccccc" id="rect_36" />
  <rect x="618.3203125" y="76.05555555555556" width="36.77777777777778" height="36.77777777777778" fill="#cccccc" id="rect_35" />
  <rect x="580.5425347222222" y="76.05555555555556" width="36.77777777777778" height="36.77777777777778" fill="#cccccc" id="rect_34" />
  <rect x="542.7647569444445" y="76.05555555555556" width="36.77777777777778" height="36.77777777777778" fill="#cccccc" id="rect_33" />
  <rect x="504.98697916666663" y="76.05555555555556" width="36.77777777777778" height="36.77777777777778" fill="#cccccc" id="rect_32" />
  <rect x="467.2092013888889" y="76.05555555555556" width="36.77777777777778" height="36.77777777777778" fill="#cccccc" id="rect_31" />
  <rect x="429.4314236111111" y="76.05555555555556" width="36.77777777777778" height="36.77777777777778" fill="#cccccc" id="rect_30" />
  <rect x="391.6536458333333" y="76.05555555555556" width="36.77777777777778" height="36.77777777777778" fill="#cccccc" id="rect_29" />
  <rect x="353.87586805555554" y="76.05555555555556" width="36.77777777777778" height="36.77777777777778" fill="#cccccc" id="rect_28" />
  <rect x="844.9869791666667" y="38.27777777777778" width="36.77777777777778" height="36.77777777777778" fill="#cccccc" id="rect_27" />
  <rect x="807.2092013888889" y="38.27777777777778" width="36.77777777777778" height="36.77777777777778" fill="#cccccc" id="rect_26" />
  <rect x="769.4314236111111" y="38.27777777777778" width="36.77777777777778" height="36.77777777777778" fill="#cccccc" id="rect_25" />
  <rect x="731.6536458333333" y="38.27777777777778" width="36.77777777777778" height="36.77777777777778" fill="#cccccc" id="rect_24" />
  <rect x="693.8758680555555" y="38.27777777777778" width="36.77777777777778" height="36.77777777777778" fill="#cccccc" id="rect_23" />
  <rect x="656.0980902777778" y="38.27777777777778" width="36.77777777777778" height="36.77777777777778" fill="#cccccc" id="rect_22" />
  <rect x="618.3203125" y="38.27777777777778" width="36.77777777777778" height="36.77777777777778" fill="#cccccc" id="rect_21" />
  <rect x="580.5425347222222" y="38.27777777777778" width="36.77777777777778" height="36.77777777777778" fill="#cccccc" id="rect_20" />
  <rect x="542.7647569444445" y="38.27777777777778" width="36.77777777777778" height="36.77777777777778" fill="#cccccc" id="rect_19" />
  <rect x="504.98697916666663" y="38.27777777777778" width="36.77777777777778" height="36.77777777777778" fill="#cccccc" id="rect_18" />
  <rect x="467.2092013888889" y="38.27777777777778" width="36.77777777777778" height="36.77777777777778" fill="#cccccc" id="rect_17" />
  <rect x="429.4314236111111" y="38.27777777777778" width="36.77777777777778" height="36.77777777777778" fill="#cccccc" id="rect_16" />
  <rect x="391.6536458333333" y="38.27777777777778" width="36.77777777777778" height="36.77777777777778" fill="#cccccc" id="rect_15" />
  <rect x="353.87586805555554" y="38.27777777777778" width="36.77777777777778" height="36.77777777777778" fill="#cccccc" id="rect_14" />
  <rect x="844.9869791666667" y="0.5" width="36.77777777777778" height="36.77777777777778" fill="#cccccc" id="rect_13" />
  <rect x="807.2092013888889" y="0.5" width="36.77777777777778" height="36.77777777777778" fill="#cccccc" id="rect_12" />
  <rect x="769.4314236111111" y="0.5" width="36.77777777777778" height="36.77777777777778" fill="#cccccc" id="rect_11" />
  <rect x="731.6536458333333" y="0.5" width="36.77777777777778" height="36.77777777777778" fill="#cccccc" id="rect_10" />
  <rect x="693.8758680555555" y="0.5" width="36.77777777777778" height="36.77777777777778" fill="#cccccc" id="rect_9" />
  <rect x="656.0980902777778" y="0.5" width="36.77777777777778" height="36.77777777777778" fill="#cccccc" id="rect_8" />
  <rect x="618.3203125" y="0.5" width="36.77777777777778" height="36.77777777777778" fill="#cccccc" id="rect_7" />
  <rect x="580.5425347222222" y="0.5" width="36.77777777777778" height="36.77777777777778" fill="#cccccc" id="rect_6" />
  <rect x="542.7647569444445" y="0.5" width="36.77777777777778" height="36.77777777777778" fill="#cccccc" id="rect_5" />
  <rect x="504.98697916666663" y="0.5" width="36.77777777777778" height="36.77777777777778" fill="#cccccc" id="rect_4" />
  <rect x="467.2092013888889" y="0.5" width="36.77777777777778" height="36.77777777777778" fill="#cccccc" id="rect_3" />
  <rect x="429.4314236111111" y="0.5" width="36.77777777777778" height="36.77777777777778" fill="#cccccc" id="rect_2" />
  <rect x="391.6536458333333" y="0.5" width="36.77777777777778" height="36.77777777777778" fill="#cccccc" id="rect_1" />
  <rect x="353.87586805555554" y="0.5" width="36.77777777777778" height="36.77777777777778" fill="#cccccc" id="rect" />
</svg>