<?xml version='1.0' encoding='utf-8'?>
<svg width="900" height="340" viewBox="-70,-30,880,340" style="max-width: 100%; height: auto; font: 10px sans-serif;" id="svg">
  <g id="g_11">
    <g id="g_53">
      <path d="M39.1,291.1c0,2.7-1,4.1-2.7,4.1c-1.5,0-2.6-1.4-2.6-4c0-2.6,1.1-4.1,2.7-4.1    C38.2,287.1,39.1,288.6,39.1,291.1z M34.9,291.2c0,2,0.6,3.2,1.6,3.2c1.1,0,1.6-1.3,1.6-3.2c0-1.9-0.5-3.2-1.6-3.2    C35.6,287.9,34.9,289.1,34.9,291.2z" fill="#808080" id="path_32" />
    </g>
    <g id="g_52">
      <path d="M32.3,217.4h-3l-0.3,2c0.2,0,0.3,0,0.6,0c0.6,0,1.2,0.1,1.7,0.4c0.6,0.3,1.1,1,1.1,2c0,1.5-1.2,2.7-2.9,2.7    c-0.9,0-1.6-0.2-1.9-0.5l0.3-0.8c0.3,0.2,1,0.4,1.7,0.4c1,0,1.8-0.6,1.8-1.7c0-1-0.7-1.7-2.2-1.7c-0.4,0-0.8,0-1.1,0.1l0.5-3.7    h3.7V217.4z" fill="#808080" id="path_31" />
    </g>
    <g id="g_51">
      <path d="M23.8,152.7L23.8,152.7l-1.4,0.7l-0.2-0.8l1.7-0.9h0.9v7.8h-1V152.7z" fill="#808080" id="path_30" />
      <path d="M32.8,155.6c0,2.7-1,4.1-2.7,4.1c-1.5,0-2.6-1.4-2.6-4c0-2.6,1.1-4.1,2.7-4.1    C31.9,151.6,32.8,153.1,32.8,155.6z M28.6,155.7c0,2,0.6,3.2,1.6,3.2c1.1,0,1.6-1.3,1.6-3.2c0-1.9-0.5-3.2-1.6-3.2    C29.2,152.4,28.6,153.6,28.6,155.7z" fill="#808080" id="path_29" />
    </g>
    <g id="g_50">
      <path d="M23.8,89.7L23.8,89.7l-1.4,0.7l-0.2-0.8l1.7-0.9h0.9v7.8h-1V89.7z" fill="#808080" id="path_28" />
      <path d="M32.3,89.6h-3l-0.3,2c0.2,0,0.3,0,0.6,0c0.6,0,1.2,0.1,1.7,0.4c0.6,0.3,1.1,1,1.1,2c0,1.5-1.2,2.7-2.9,2.7    c-0.9,0-1.6-0.2-1.9-0.5l0.3-0.8c0.3,0.2,1,0.4,1.7,0.4c1,0,1.8-0.6,1.8-1.7c0-1-0.7-1.7-2.2-1.7c-0.4,0-0.8,0-1.1,0.1l0.5-3.7    h3.7V89.6z" fill="#808080" id="path_27" />
    </g>
    <g id="g_49">
      <path d="M21.5,32.1v-0.6l0.8-0.8c2-1.9,2.9-2.9,2.9-4.1c0-0.8-0.4-1.5-1.5-1.5c-0.7,0-1.3,0.4-1.7,0.7l-0.3-0.7    c0.5-0.5,1.3-0.8,2.2-0.8c1.7,0,2.4,1.2,2.4,2.3c0,1.4-1,2.6-2.7,4.2l-0.6,0.6v0h3.5v0.9H21.5z" fill="#808080" id="path_26" />
      <path d="M32.8,28.1c0,2.7-1,4.1-2.7,4.1c-1.5,0-2.6-1.4-2.6-4c0-2.6,1.1-4.1,2.7-4.1C31.9,24.1,32.8,25.6,32.8,28.1z     M28.6,28.2c0,2,0.6,3.2,1.6,3.2c1.1,0,1.6-1.3,1.6-3.2c0-1.9-0.5-3.2-1.6-3.2C29.2,24.9,28.6,26.1,28.6,28.2z" fill="#808080" id="path_25" />
    </g>
    <line x1="43.2" y1="285" x2="43.2" y2="29" fill="none" stroke="#666666" id="line_22" />
    <g id="g_47">
      <g id="g_48">
        <line x1="36.5" y1="221" x2="42.9" y2="221" fill="none" stroke="#666666" id="line_21" />
        <line x1="36.5" y1="157" x2="42.9" y2="157" fill="none" stroke="#666666" id="line_20" />
        <line x1="36.5" y1="93" x2="42.9" y2="93" fill="none" stroke="#666666" id="line_19" />
        <line x1="36.5" y1="29" x2="42.9" y2="29" fill="none" stroke="#666666" id="line_18" />
      </g>
    </g>
    <g id="g_46">
      <line x1="42.7" y1="285" x2="701.5" y2="285" fill="none" stroke="#666666" id="line_17" />
    </g>
    <line x1="80" y1="285" x2="80" y2="292.5" fill="none" stroke="#666666" id="line_16" />
    <line x1="116.8" y1="285" x2="116.8" y2="292.5" fill="none" stroke="#666666" id="line_15" />
    <line x1="153.6" y1="285" x2="153.6" y2="292.5" fill="none" stroke="#666666" id="line_14" />
    <line x1="190.4" y1="285" x2="190.4" y2="292.5" fill="none" stroke="#666666" id="line_13" />
    <line x1="227.2" y1="285" x2="227.2" y2="292.5" fill="none" stroke="#666666" id="line_12" />
    <line x1="264" y1="285" x2="264" y2="292.5" fill="none" stroke="#666666" id="line_11" />
    <line x1="300.8" y1="285" x2="300.8" y2="292.5" fill="none" stroke="#666666" id="line_10" />
    <line x1="337.6" y1="285" x2="337.6" y2="292.5" fill="none" stroke="#666666" id="line_9" />
    <line x1="374.4" y1="285" x2="374.4" y2="292.5" fill="none" stroke="#666666" id="line_8" />
    <line x1="411.1" y1="285" x2="411.1" y2="292.5" fill="none" stroke="#666666" id="line_7" />
    <line x1="447.9" y1="285" x2="447.9" y2="292.5" fill="none" stroke="#666666" id="line_6" />
    <line x1="484.7" y1="285" x2="484.7" y2="292.5" fill="none" stroke="#666666" id="line_5" />
    <line x1="521.5" y1="285" x2="521.5" y2="292.5" fill="none" stroke="#666666" id="line_4" />
    <line x1="558.3" y1="285" x2="558.3" y2="292.5" fill="none" stroke="#666666" id="line_3" />
    <line x1="595.1" y1="285" x2="595.1" y2="292.5" fill="none" stroke="#666666" id="line_2" />
    <line x1="631.9" y1="285" x2="631.9" y2="292.5" fill="none" stroke="#666666" id="line_1" />
    <line x1="668.7" y1="285" x2="668.7" y2="292.5" fill="none" stroke="#666666" id="line" />
    <g id="g_44">
      <g id="g_45">
        <path d="M80,300.2L80,300.2l-1.4,0.7l-0.2-0.8l1.7-0.9H81v7.8h-1V300.2z" fill="#808080" id="path_24" />
      </g>
    </g>
    <g id="g_42">
      <g id="g_43">
        <path d="M114,307v-0.6l0.8-0.8c2-1.9,2.9-2.9,2.9-4.1c0-0.8-0.4-1.5-1.5-1.5c-0.7,0-1.3,0.4-1.7,0.7l-0.3-0.7     c0.5-0.5,1.3-0.8,2.2-0.8c1.7,0,2.4,1.2,2.4,2.3c0,1.4-1,2.6-2.7,4.2l-0.6,0.6v0h3.5v0.9H114z" fill="#808080" id="path_23" />
      </g>
    </g>
    <g id="g_40">
      <g id="g_41">
        <path d="M151.6,305.8c0.3,0.2,1,0.5,1.7,0.5c1.4,0,1.8-0.9,1.8-1.5c0-1.1-1-1.6-2-1.6h-0.6v-0.8h0.6     c0.8,0,1.7-0.4,1.7-1.3c0-0.6-0.4-1.2-1.4-1.2c-0.6,0-1.2,0.3-1.6,0.5l-0.3-0.8c0.4-0.3,1.2-0.6,2-0.6c1.5,0,2.2,0.9,2.2,1.9     c0,0.8-0.5,1.5-1.4,1.8v0c1,0.2,1.7,0.9,1.7,2c0,1.2-1,2.3-2.8,2.3c-0.9,0-1.6-0.3-2-0.5L151.6,305.8z" fill="#808080" id="path_22" />
      </g>
    </g>
    <g id="g_38">
      <g id="g_39">
        <path d="M190.6,307v-2.1H187v-0.7l3.5-5h1.1v4.8h1.1v0.8h-1.1v2.1H190.6z M190.6,304.1v-2.6c0-0.4,0-0.8,0-1.2h0     c-0.2,0.5-0.4,0.8-0.6,1.2l-1.9,2.7v0H190.6z" fill="#808080" id="path_21" />
      </g>
    </g>
    <g id="g_36">
      <g id="g_37">
        <path d="M229.7,300.1h-3l-0.3,2c0.2,0,0.3,0,0.6,0c0.6,0,1.2,0.1,1.7,0.4c0.6,0.3,1.1,1,1.1,2c0,1.5-1.2,2.7-2.9,2.7     c-0.9,0-1.6-0.2-1.9-0.5l0.3-0.8c0.3,0.2,1,0.4,1.7,0.4c1,0,1.8-0.6,1.8-1.7c0-1-0.7-1.7-2.2-1.7c-0.4,0-0.8,0-1.1,0.1l0.5-3.7     h3.7V300.1z" fill="#808080" id="path_20" />
      </g>
    </g>
    <g id="g_34">
      <g id="g_35">
        <path d="M265.5,300c-0.2,0-0.5,0-0.8,0c-1.7,0.3-2.5,1.5-2.7,2.8h0c0.4-0.5,1-0.9,1.9-0.9c1.4,0,2.4,1,2.4,2.5     c0,1.4-1,2.7-2.6,2.7c-1.7,0-2.8-1.3-2.8-3.3c0-1.5,0.6-2.7,1.3-3.5c0.6-0.6,1.5-1,2.5-1.2c0.3,0,0.6-0.1,0.8-0.1V300z      M265.2,304.5c0-1.1-0.6-1.8-1.6-1.8c-0.6,0-1.2,0.4-1.5,1c-0.1,0.1-0.1,0.3-0.1,0.5c0,1.3,0.6,2.2,1.7,2.2     C264.6,306.3,265.2,305.6,265.2,304.5z" fill="#808080" id="path_19" />
      </g>
    </g>
    <g id="g_32">
      <g id="g_33">
        <path d="M303.1,299.2v0.7l-3.4,7.1h-1.1l3.4-6.9v0h-3.8v-0.9H303.1z" fill="#808080" id="path_18" />
      </g>
    </g>
    <g id="g_30">
      <g id="g_31">
        <path d="M334.4,305c0-1,0.6-1.7,1.5-2.1l0,0c-0.9-0.4-1.2-1.1-1.2-1.8c0-1.2,1-2.1,2.4-2.1c1.5,0,2.3,0.9,2.3,1.9     c0,0.7-0.3,1.4-1.3,1.8v0c1,0.4,1.6,1.1,1.6,2c0,1.4-1.2,2.3-2.7,2.3C335.4,307.1,334.4,306.2,334.4,305z M338.6,305     c0-0.9-0.7-1.4-1.7-1.7c-0.9,0.3-1.4,0.9-1.4,1.6c0,0.8,0.6,1.5,1.6,1.5C338,306.4,338.6,305.8,338.6,305z M335.7,301.1     c0,0.8,0.6,1.2,1.5,1.4c0.7-0.2,1.2-0.7,1.2-1.4c0-0.6-0.4-1.3-1.3-1.3C336.2,299.8,335.7,300.4,335.7,301.1z" fill="#808080" id="path_17" />
      </g>
    </g>
    <g id="g_28">
      <g id="g_29">
        <path d="M372.7,306.3c0.2,0,0.5,0,0.9,0c0.6-0.1,1.2-0.3,1.6-0.8c0.5-0.5,0.9-1.2,1-2.1h0c-0.4,0.5-1.1,0.8-1.8,0.8     c-1.4,0-2.3-1.1-2.3-2.4c0-1.5,1.1-2.8,2.7-2.8s2.6,1.3,2.6,3.3c0,1.7-0.6,2.9-1.3,3.7c-0.6,0.6-1.4,0.9-2.3,1     c-0.4,0.1-0.7,0.1-1,0.1V306.3z M373,301.8c0,1,0.6,1.7,1.5,1.7c0.7,0,1.3-0.3,1.5-0.8c0.1-0.1,0.1-0.2,0.1-0.4     c0-1.3-0.5-2.4-1.6-2.4C373.7,299.9,373,300.7,373,301.8z" fill="#808080" id="path_16" />
      </g>
    </g>
    <g id="g_26">
      <g id="g_27">
        <path d="M407.3,300.2L407.3,300.2l-1.4,0.7l-0.2-0.8l1.7-0.9h0.9v7.8h-1V300.2z" fill="#808080" id="path_15" />
        <path d="M416.4,303c0,2.7-1,4.1-2.7,4.1c-1.5,0-2.6-1.4-2.6-4c0-2.6,1.1-4.1,2.7-4.1     C415.4,299.1,416.4,300.5,416.4,303z M412.1,303.1c0,2,0.6,3.2,1.6,3.2c1.1,0,1.6-1.3,1.6-3.2c0-1.9-0.5-3.2-1.6-3.2     C412.8,299.9,412.1,301,412.1,303.1z" fill="#808080" id="path_14" />
      </g>
    </g>
    <g id="g_24">
      <g id="g_25">
        <path d="M444.3,300.2L444.3,300.2l-1.4,0.7l-0.2-0.8l1.7-0.9h0.9v7.8h-1V300.2z" fill="#808080" id="path_13" />
        <path d="M450.5,300.2L450.5,300.2l-1.4,0.7l-0.2-0.8l1.7-0.9h0.9v7.8h-1V300.2z" fill="#808080" id="path_12" />
      </g>
    </g>
    <g id="g_22">
      <g id="g_23">
        <path d="M481.3,300.2L481.3,300.2l-1.4,0.7l-0.2-0.8l1.7-0.9h0.9v7.8h-1V300.2z" fill="#808080" id="path_11" />
        <path d="M485.2,307v-0.6l0.8-0.8c2-1.9,2.9-2.9,2.9-4.1c0-0.8-0.4-1.5-1.5-1.5c-0.7,0-1.3,0.4-1.7,0.7l-0.3-0.7     c0.5-0.5,1.3-0.8,2.2-0.8c1.7,0,2.4,1.2,2.4,2.3c0,1.4-1,2.6-2.7,4.2l-0.6,0.6v0h3.5v0.9H485.2z" fill="#808080" id="path_10" />
      </g>
    </g>
    <g id="g_20">
      <g id="g_21">
        <path d="M518.3,300.2L518.3,300.2l-1.4,0.7l-0.2-0.8l1.7-0.9h0.9v7.8h-1V300.2z" fill="#808080" id="path_9" />
        <path d="M522.4,305.8c0.3,0.2,1,0.5,1.7,0.5c1.4,0,1.8-0.9,1.8-1.5c0-1.1-1-1.6-2-1.6h-0.6v-0.8h0.6     c0.8,0,1.7-0.4,1.7-1.3c0-0.6-0.4-1.2-1.4-1.2c-0.6,0-1.2,0.3-1.6,0.5l-0.3-0.8c0.4-0.3,1.2-0.6,2-0.6c1.5,0,2.2,0.9,2.2,1.9     c0,0.8-0.5,1.5-1.4,1.8v0c1,0.2,1.7,0.9,1.7,2c0,1.2-1,2.3-2.8,2.3c-0.9,0-1.6-0.3-2-0.5L522.4,305.8z" fill="#808080" id="path_8" />
      </g>
    </g>
    <g id="g_18">
      <g id="g_19">
        <path d="M554.3,300.2L554.3,300.2l-1.4,0.7l-0.2-0.8l1.7-0.9h0.9v7.8h-1V300.2z" fill="#808080" id="path_7" />
        <path d="M561.5,307v-2.1h-3.6v-0.7l3.5-5h1.1v4.8h1.1v0.8h-1.1v2.1H561.5z M561.5,304.1v-2.6c0-0.4,0-0.8,0-1.2h0     c-0.2,0.5-0.4,0.8-0.6,1.2l-1.9,2.7v0H561.5z" fill="#808080" id="path_6" />
      </g>
    </g>
    <g id="g_16">
      <g id="g_17">
        <path d="M591.8,300.2L591.8,300.2l-1.4,0.7l-0.2-0.8l1.7-0.9h0.9v7.8h-1V300.2z" fill="#808080" id="path_5" />
        <path d="M600.3,300.1h-3l-0.3,2c0.2,0,0.3,0,0.6,0c0.6,0,1.2,0.1,1.7,0.4c0.6,0.3,1.1,1,1.1,2c0,1.5-1.2,2.7-2.9,2.7     c-0.9,0-1.6-0.2-1.9-0.5l0.3-0.8c0.3,0.2,1,0.4,1.7,0.4c1,0,1.8-0.6,1.8-1.7c0-1-0.7-1.7-2.2-1.7c-0.4,0-0.8,0-1.1,0.1l0.5-3.7     h3.7V300.1z" fill="#808080" id="path_4" />
      </g>
    </g>
    <g id="g_14">
      <g id="g_15">
        <path d="M628.8,300.2L628.8,300.2l-1.4,0.7l-0.2-0.8l1.7-0.9h0.9v7.8h-1V300.2z" fill="#808080" id="path_3" />
        <path d="M637.1,300c-0.2,0-0.5,0-0.8,0c-1.7,0.3-2.5,1.5-2.7,2.8h0c0.4-0.5,1-0.9,1.9-0.9c1.4,0,2.4,1,2.4,2.5     c0,1.4-1,2.7-2.6,2.7c-1.7,0-2.8-1.3-2.8-3.3c0-1.5,0.6-2.7,1.3-3.5c0.6-0.6,1.5-1,2.5-1.2c0.3,0,0.6-0.1,0.8-0.1V300z      M636.8,304.5c0-1.1-0.6-1.8-1.6-1.8c-0.6,0-1.2,0.4-1.5,1c-0.1,0.1-0.1,0.3-0.1,0.5c0,1.3,0.6,2.2,1.7,2.2     C636.2,306.3,636.8,305.6,636.8,304.5z" fill="#808080" id="path_2" />
      </g>
    </g>
    <g id="g_12">
      <g id="g_13">
        <path d="M664.8,300.2L664.8,300.2l-1.4,0.7l-0.2-0.8l1.7-0.9h0.9v7.8h-1V300.2z" fill="#808080" id="path_1" />
        <path d="M673.8,299.2v0.7l-3.4,7.1h-1.1l3.4-6.9v0h-3.8v-0.9H673.8z" fill="#808080" id="path" />
      </g>
    </g>
  </g>
  <g id="g">
    <rect x="63.2" y="273.2" width="34" height="11.2" fill="#e25959" id="rect_16" />
    <rect x="99.7" y="264.8" width="34" height="19.7" fill="#e25959" id="rect_15" />
    <rect x="136.4" y="267.6" width="34" height="16.9" fill="#e25959" id="rect_14" />
    <rect x="173.2" y="247.5" width="34" height="37" fill="#e25959" id="rect_13" />
    <rect x="210.4" y="200.1" width="34" height="84.4" fill="#e25959" id="rect_12" />
    <rect x="246.7" y="171" width="34" height="113.4" fill="#e25959" id="rect_11" />
    <rect x="283.8" y="178.5" width="34" height="105.9" fill="#e25959" id="rect_10" />
    <rect x="320.5" y="65.1" width="34" height="219.4" fill="#e25959" id="rect_9" />
    <rect x="357.3" y="31" width="34" height="253.5" fill="#e25959" id="rect_8" />
    <rect x="394" y="78.2" width="34" height="206.3" fill="#e25959" id="rect_7" />
    <rect x="430.7" y="88.5" width="34" height="195.9" fill="#e25959" id="rect_6" />
    <rect x="467.7" y="149.5" width="34" height="135" fill="#e25959" id="rect_5" />
    <rect x="504.2" y="209.5" width="34" height="75" fill="#e25959" id="rect_4" />
    <rect x="541.2" y="252.6" width="34" height="31.9" fill="#e25959" id="rect_3" />
    <rect x="578" y="262.9" width="34" height="21.6" fill="#e25959" id="rect_2" />
    <rect x="614.7" y="261" width="34" height="23.4" fill="#e25959" id="rect_1" />
    <rect x="651.4" y="269.5" width="34" height="15" fill="#e25959" id="rect" />
    <g id="g_10">
	</g>
    <g id="g_9">
	</g>
    <g id="g_8">
	</g>
    <g id="g_7">
	</g>
    <g id="g_6">
	</g>
    <g id="g_5">
	</g>
    <g id="g_4">
	</g>
    <g id="g_3">
	</g>
    <g id="g_2">
	</g>
    <g id="g_1">
	</g>
  </g>
</svg>