<?xml version='1.0' encoding='UTF-8'?>
<svg width="900" height="340" viewBox="-70,-30,880,340" style="max-width: 100%; height: auto; font: 10px sans-serif;" id="svg" tag_name="svg">
  <g id="g_12" tag_name="svg/g_12">
    <g id="g_31" tag_name="svg/g_12/g_31">
      <path d="M23.1,218.7v0.8h-3v-0.8H23.1z" fill="#808080" id="path_24" tag_name="svg/g_12/g_31/path_24"/>
      <path d="M29.2,218.3c0,2.7-1,4.1-2.7,4.1c-1.5,0-2.6-1.4-2.6-4c0-2.6,1.1-4.1,2.7-4.1    C28.2,214.4,29.2,215.8,29.2,218.3z M24.9,218.4c0,2,0.6,3.2,1.6,3.2c1.1,0,1.6-1.3,1.6-3.2c0-1.9-0.5-3.2-1.6-3.2    C25.6,215.2,24.9,216.3,24.9,218.4z" fill="#808080" id="path_23" tag_name="svg/g_12/g_31/path_23"/>
      <path d="M30.2,221.7c0-0.4,0.3-0.8,0.7-0.8s0.7,0.3,0.7,0.8c0,0.4-0.3,0.8-0.7,0.8C30.5,222.4,30.2,222.1,30.2,221.7z    " fill="#808080" id="path_22" tag_name="svg/g_12/g_31/path_22"/>
      <path d="M37.3,215.4h-3l-0.3,2c0.2,0,0.3,0,0.6,0c0.6,0,1.2,0.1,1.7,0.4c0.6,0.3,1.1,1,1.1,2c0,1.5-1.2,2.7-2.9,2.7    c-0.9,0-1.6-0.2-1.9-0.5l0.3-0.8c0.3,0.2,1,0.4,1.7,0.4c1,0,1.8-0.6,1.8-1.7c0-1-0.7-1.7-2.2-1.7c-0.4,0-0.8,0-1.1,0.1l0.5-3.7    h3.7V215.4z" fill="#808080" id="path_21" tag_name="svg/g_12/g_31/path_21"/>
    </g>
    <g id="g_30" tag_name="svg/g_12/g_30">
      <path d="M29.2,153.6c0,2.7-1,4.1-2.7,4.1c-1.5,0-2.6-1.4-2.6-4c0-2.6,1.1-4.1,2.7-4.1    C28.2,149.6,29.2,151.1,29.2,153.6z M24.9,153.7c0,2,0.6,3.2,1.6,3.2c1.1,0,1.6-1.3,1.6-3.2c0-1.9-0.5-3.2-1.6-3.2    C25.6,150.5,24.9,151.6,24.9,153.7z" fill="#808080" id="path_20" tag_name="svg/g_12/g_30/path_20"/>
      <path d="M30.2,156.9c0-0.4,0.3-0.8,0.7-0.8s0.7,0.3,0.7,0.8c0,0.4-0.3,0.8-0.7,0.8C30.5,157.7,30.2,157.4,30.2,156.9z    " fill="#808080" id="path_19" tag_name="svg/g_12/g_30/path_19"/>
      <path d="M37.8,153.6c0,2.7-1,4.1-2.7,4.1c-1.5,0-2.6-1.4-2.6-4c0-2.6,1.1-4.1,2.7-4.1    C36.9,149.6,37.8,151.1,37.8,153.6z M33.6,153.7c0,2,0.6,3.2,1.6,3.2c1.1,0,1.6-1.3,1.6-3.2c0-1.9-0.5-3.2-1.6-3.2    C34.2,150.5,33.6,151.6,33.6,153.7z" fill="#808080" id="path_18" tag_name="svg/g_12/g_30/path_18"/>
    </g>
    <g id="g_29" tag_name="svg/g_12/g_29">
      <path d="M29.2,90.5c0,2.7-1,4.1-2.7,4.1c-1.5,0-2.6-1.4-2.6-4c0-2.6,1.1-4.1,2.7-4.1C28.2,86.5,29.2,88,29.2,90.5z     M24.9,90.6c0,2,0.6,3.2,1.6,3.2c1.1,0,1.6-1.3,1.6-3.2c0-1.9-0.5-3.2-1.6-3.2C25.6,87.4,24.9,88.5,24.9,90.6z" fill="#808080" id="path_17" tag_name="svg/g_12/g_29/path_17"/>
      <path d="M30.2,93.9c0-0.4,0.3-0.8,0.7-0.8s0.7,0.3,0.7,0.8c0,0.4-0.3,0.8-0.7,0.8C30.5,94.6,30.2,94.3,30.2,93.9z" fill="#808080" id="path_16" tag_name="svg/g_12/g_29/path_16"/>
      <path d="M37.3,87.6h-3l-0.3,2c0.2,0,0.3,0,0.6,0c0.6,0,1.2,0.1,1.7,0.4c0.6,0.3,1.1,1,1.1,2c0,1.5-1.2,2.7-2.9,2.7    c-0.9,0-1.6-0.2-1.9-0.5l0.3-0.8c0.3,0.2,1,0.4,1.7,0.4c1,0,1.8-0.6,1.8-1.7c0-1-0.7-1.7-2.2-1.7c-0.4,0-0.8,0-1.1,0.1l0.5-3.7    h3.7V87.6z" fill="#808080" id="path_15" tag_name="svg/g_12/g_29/path_15"/>
    </g>
    <g id="g_28" tag_name="svg/g_12/g_28">
      <path d="M26.3,23.2L26.3,23.2L24.9,24l-0.2-0.8l1.7-0.9h0.9v7.8h-1V23.2z" fill="#808080" id="path_14" tag_name="svg/g_12/g_28/path_14"/>
      <path d="M30.2,29.4c0-0.4,0.3-0.8,0.7-0.8s0.7,0.3,0.7,0.8c0,0.4-0.3,0.8-0.7,0.8C30.5,30.2,30.2,29.9,30.2,29.4z" fill="#808080" id="path_13" tag_name="svg/g_12/g_28/path_13"/>
      <path d="M37.8,26.1c0,2.7-1,4.1-2.7,4.1c-1.5,0-2.6-1.4-2.6-4c0-2.6,1.1-4.1,2.7-4.1C36.9,22.1,37.8,23.6,37.8,26.1z     M33.6,26.2c0,2,0.6,3.2,1.6,3.2c1.1,0,1.6-1.3,1.6-3.2c0-1.9-0.5-3.2-1.6-3.2C34.2,22.9,33.6,24.1,33.6,26.2z" fill="#808080" id="path_12" tag_name="svg/g_12/g_28/path_12"/>
    </g>
    <g id="g_26" tag_name="svg/g_12/g_26">
      <g id="g_27" tag_name="svg/g_12/g_26/g_27">
        <line x1="43.5" y1="219" x2="706" y2="219" fill="none" stroke="#999999" stroke-width="0.5" id="line_16" tag_name="svg/g_12/g_26/g_27/line_16"/>
        <line x1="43.5" y1="155" x2="706" y2="155" fill="none" stroke="#999999" stroke-width="0.5" id="line_15" tag_name="svg/g_12/g_26/g_27/line_15"/>
        <line x1="43.5" y1="91" x2="706" y2="91" fill="none" stroke="#999999" stroke-width="0.5" id="line_14" tag_name="svg/g_12/g_26/g_27/line_14"/>
        <line x1="43.5" y1="27" x2="706" y2="27" fill="none" stroke="#999999" stroke-width="0.5" id="line_13" tag_name="svg/g_12/g_26/g_27/line_13"/>
      </g>
    </g>
    <g id="g_25" tag_name="svg/g_12/g_25">
      <line x1="47.7" y1="283" x2="706.5" y2="283" fill="none" stroke="#666666" id="line_12" tag_name="svg/g_12/g_25/line_12"/>
    </g>
    <line x1="119.8" y1="283" x2="119.8" y2="290.5" fill="none" stroke="#666666" id="line_11" tag_name="svg/g_12/line_11"/>
    <line x1="223.1" y1="283" x2="223.1" y2="290.5" fill="none" stroke="#666666" id="line_10" tag_name="svg/g_12/line_10"/>
    <line x1="326.3" y1="283" x2="326.3" y2="290.5" fill="none" stroke="#666666" id="line_9" tag_name="svg/g_12/line_9"/>
    <line x1="429.5" y1="283" x2="429.5" y2="290.5" fill="none" stroke="#666666" id="line_8" tag_name="svg/g_12/line_8"/>
    <line x1="532.8" y1="283" x2="532.8" y2="290.5" fill="none" stroke="#666666" id="line_7" tag_name="svg/g_12/line_7"/>
    <line x1="636" y1="283" x2="636" y2="290.5" fill="none" stroke="#666666" id="line_6" tag_name="svg/g_12/line_6"/>
    <g id="g_23" tag_name="svg/g_12/g_23">
      <g id="g_24" tag_name="svg/g_12/g_23/g_24">
        <path d="M118.4,302.5l-0.8,2.5h-1.1l2.7-8.1h1.3l2.8,8.1h-1.1l-0.9-2.5H118.4z M121,301.6l-0.8-2.3     c-0.2-0.5-0.3-1-0.4-1.5h0c-0.1,0.5-0.3,1-0.4,1.5l-0.8,2.3H121z" fill="#808080" id="path_11" tag_name="svg/g_12/g_23/g_24/path_11"/>
      </g>
    </g>
    <g id="g_21" tag_name="svg/g_12/g_21">
      <g id="g_22" tag_name="svg/g_12/g_21/g_22">
        <path d="M220.7,297c0.5-0.1,1.2-0.2,1.9-0.2c1,0,1.7,0.2,2.2,0.6c0.4,0.3,0.7,0.8,0.7,1.4c0,0.8-0.5,1.5-1.4,1.8v0     c0.8,0.2,1.7,0.8,1.7,2c0,0.7-0.3,1.2-0.7,1.6c-0.6,0.5-1.5,0.8-2.8,0.8c-0.7,0-1.3,0-1.6-0.1V297z M221.8,300.3h0.9     c1.1,0,1.8-0.6,1.8-1.4c0-0.9-0.7-1.3-1.8-1.3c-0.5,0-0.8,0-0.9,0.1V300.3z M221.8,304.2c0.2,0,0.5,0,0.9,0     c1.1,0,2.1-0.4,2.1-1.6c0-1.1-0.9-1.6-2.1-1.6h-0.9V304.2z" fill="#808080" id="path_10" tag_name="svg/g_12/g_21/g_22/path_10"/>
      </g>
    </g>
    <g id="g_19" tag_name="svg/g_12/g_19">
      <g id="g_20" tag_name="svg/g_12/g_19/g_20">
        <path d="M328.9,304.7c-0.4,0.2-1.2,0.4-2.1,0.4c-2.3,0-4-1.4-4-4.1c0-2.5,1.7-4.2,4.2-4.2c1,0,1.6,0.2,1.9,0.4     l-0.3,0.9c-0.4-0.2-1-0.3-1.6-0.3c-1.9,0-3.2,1.2-3.2,3.3c0,2,1.1,3.2,3.1,3.2c0.6,0,1.3-0.1,1.7-0.3L328.9,304.7z" fill="#808080" id="path_9" tag_name="svg/g_12/g_19/g_20/path_9"/>
      </g>
    </g>
    <g id="g_17" tag_name="svg/g_12/g_17">
      <g id="g_18" tag_name="svg/g_12/g_17/g_18">
        <path d="M426.7,297c0.6-0.1,1.4-0.2,2.2-0.2c1.5,0,2.6,0.3,3.3,1c0.7,0.7,1.1,1.6,1.1,2.9c0,1.3-0.4,2.4-1.2,3.1     c-0.8,0.8-2,1.2-3.6,1.2c-0.7,0-1.4,0-1.9-0.1V297z M427.8,304.2c0.3,0,0.6,0.1,1.1,0.1c2.2,0,3.4-1.2,3.4-3.4     c0-1.9-1.1-3.1-3.3-3.1c-0.5,0-0.9,0-1.2,0.1V304.2z" fill="#808080" id="path_8" tag_name="svg/g_12/g_17/g_18/path_8"/>
      </g>
    </g>
    <g id="g_15" tag_name="svg/g_12/g_15">
      <g id="g_16" tag_name="svg/g_12/g_15/g_16">
        <path d="M534.9,301.2h-3.1v2.9h3.5v0.9h-4.5v-8.1h4.4v0.9h-3.3v2.6h3.1V301.2z" fill="#808080" id="path_7" tag_name="svg/g_12/g_15/g_16/path_7"/>
      </g>
    </g>
    <g id="g_13" tag_name="svg/g_12/g_13">
      <g id="g_14" tag_name="svg/g_12/g_13/g_14">
        <path d="M633.7,296.9h4.4v0.9h-3.3v2.7h3.1v0.9h-3.1v3.7h-1V296.9z" fill="#808080" id="path_6" tag_name="svg/g_12/g_13/g_14/path_6"/>
      </g>
    </g>
  </g>
  <g id="g_11" tag_name="svg/g_11">
    <path d="M222.6,243.6c0,0-0.2-0.4-0.5-0.7c-0.3-0.3-0.8-0.8-1.4-1.3c-0.3-0.3-0.6-0.6-1-0.9c-0.3-0.3-0.7-0.7-1.1-1.1   c-0.8-0.8-1.6-1.7-2.5-2.6c-1.7-2-3.8-4.4-5.6-7.1c-0.9-1.4-1.9-2.8-2.7-4.4c-0.9-1.5-1.2-3.2-1.3-4.8c-0.1-1.7,0-3.4-0.6-5.3   c-0.2-0.5-0.3-0.9-0.5-1.4c-0.3-0.5-0.8-0.9-1.4-1.4c-0.6-0.5-1.2-0.9-1.7-1.4c-0.5-0.5-0.7-1-0.7-1.4c0.2-1.9,1.8-3.9,3.8-5.9   c1-1,2-2,2.6-3.1c0.7-1,1-2.1,1.1-3.1c0.3-2.1,0.1-4.3-1.2-6.4c-0.3-0.5-0.7-1.1-1.1-1.6c-0.4-0.5-0.8-1.1-1.3-1.6   c-0.9-1.1-1.8-2.2-3.1-3.3c-4.6-4.4-13.1-8.9-18.7-13.4c-2.8-2.2-4.6-4.5-5.3-6.7c-0.8-2.2-0.2-4.5,0.5-6.7   c0.8-2.2,2.1-4.4,3.9-6.6c1.8-2.2,4.1-4.3,6.7-6.4c1.2-1.1,2.7-2.1,4-3.1c1.4-1,2.8-2.1,4.2-3.1c1.4-1,2.7-2,4-3   c1.3-1,2.6-2,3.8-2.9c1.1-1,2.4-1.9,3.4-2.9c1-0.9,2.1-1.9,2.9-2.8c0.4-0.5,0.9-0.9,1.3-1.4c0.4-0.4,0.8-0.9,1.2-1.3   c0.7-0.9,1.5-1.7,2-2.6c1-1.7,1-3.3,0.6-4.8c-0.4-1.5-0.7-3-0.4-4.4c0.7-2.7,1.7-5.1,2.6-7.1c0.9-2,1.8-3.5,2.5-4.6   c0.3-0.5,0.6-0.7,0.8-1c0.2-0.3,0.3-0.2,0.3-0.2h1c0,0,0.1-0.1,0.3,0.2c0.2,0.3,0.5,0.6,0.8,1.1c0.7,1.1,1.6,2.5,2.5,4.5   c0.9,2,1.9,4.3,2.6,7.1c0.3,1.4-0.1,2.8-0.4,4.4c-0.4,1.5-0.5,3.1,0.6,4.8c0.5,0.8,1.3,1.7,2,2.6c0.4,0.4,0.8,0.9,1.2,1.3   c0.4,0.4,0.9,0.9,1.3,1.4c0.9,0.9,1.9,1.8,2.9,2.8c1,0.9,2.2,1.9,3.4,2.9c1.2,1,2.5,1.9,3.8,2.9c1.3,1,2.6,2,4,3   c1.4,1,2.8,2,4.2,3.1c1.3,1,2.7,2.1,4,3.1c2.6,2.1,4.9,4.3,6.7,6.4c1.8,2.2,3.1,4.4,3.9,6.6c0.8,2.2,1.3,4.4,0.5,6.7   c-0.7,2.2-2.5,4.5-5.3,6.7c-5.6,4.5-14.1,9-18.7,13.4c-1.3,1.1-2.2,2.2-3.1,3.3c-0.4,0.5-0.9,1.1-1.3,1.6c-0.4,0.5-0.8,1.1-1.1,1.6   c-1.3,2.2-1.6,4.3-1.2,6.4c0.1,1.1,0.5,2.1,1.1,3.1c0.6,1,1.6,2.1,2.6,3.1c2,2,3.6,4,3.8,5.9c0,0.5-0.2,1-0.7,1.4   c-0.5,0.5-1.2,0.9-1.7,1.4c-0.6,0.5-1.1,0.9-1.4,1.4c-0.3,0.5-0.4,0.9-0.5,1.4c-0.6,1.8-0.5,3.6-0.6,5.3c-0.1,1.7-0.4,3.3-1.3,4.8   c-0.9,1.5-1.8,3-2.7,4.4c-1.9,2.7-3.9,5.1-5.6,7.1c-0.9,1-1.7,1.9-2.5,2.6c-0.4,0.4-0.7,0.7-1.1,1.1c-0.4,0.3-0.7,0.6-1,0.9   c-0.6,0.5-1.1,1.2-1.4,1.5c-0.3,0.3-0.5,0.7-0.5,0.7H222.6z" fill="#FF8080" stroke="#FF0000" stroke-width="0.5" stroke-miterlimit="10" id="path_5" tag_name="svg/g_11/path_5"/>
    <path d="M119.3,171.3c0,0-0.3-2-1.4-5.5c-1.1-3.5-3-8.4-6-14.4c-0.8-1.5-1.6-3-2.5-4.6c-0.4-0.8-0.9-1.6-1.4-2.4   c-0.3-0.4-0.5-0.8-0.9-1.3c-0.3-0.4-0.6-0.8-1-1.3c-0.4-0.4-0.7-0.9-1.1-1.3c-0.4-0.4-0.8-0.9-1.2-1.3c-0.9-0.9-1.8-1.8-2.7-2.7   c-1.9-1.8-3.9-3.6-5.5-5.5c-1.6-1.9-2.8-3.8-3.4-5.7c-0.7-1.9-0.5-3.9-0.5-5.8c0.1-3.9,0.5-7.9,1.3-11.8c0.8-4,2-7.9,3.5-11.8   c1.5-3.9,3.1-7.8,4.7-11.5c0.8-1.9,1.5-3.7,2.3-5.5c0.8-1.8,1.5-3.5,2.1-5.2c0.7-1.7,1.3-3.4,1.8-5c0.5-1.6,1.3-3.2,2.3-4.6   c1-1.5,2-2.9,3-4.3c0.9-1.4,1.6-2.6,2.2-3.9c1.2-2.4,2-4.5,2.7-6.3c0.7-1.7,1.1-3.1,1.3-4c0.3-0.9,0.3-1.4,0.3-1.4   c0-0.3,0.3-0.5,0.6-0.4c0.2,0,0.4,0.2,0.4,0.4c0,0,0.1,0.5,0.3,1.4c0.3,0.9,0.7,2.3,1.3,4c0.6,1.7,1.5,3.8,2.7,6.3   c0.5,1.2,1.3,2.5,2.2,3.9c1,1.4,2,2.8,3,4.3c1,1.5,1.7,3,2.3,4.6c0.6,1.6,1.2,3.3,1.8,5c0.6,1.7,1.4,3.5,2.1,5.2   c0.7,1.8,1.5,3.6,2.3,5.5c1.6,3.7,3.3,7.6,4.7,11.5c1.5,3.9,2.7,7.9,3.5,11.8c0.8,4,1.2,7.9,1.3,11.8c0,2,0.2,3.9-0.5,5.8   c-0.6,1.9-1.8,3.8-3.4,5.7c-1.6,1.9-3.7,3.7-5.5,5.5c-0.9,0.9-1.8,1.8-2.7,2.7c-0.4,0.4-0.8,0.9-1.2,1.3c-0.4,0.4-0.7,0.9-1.1,1.3   c-0.4,0.4-0.6,0.8-1,1.3c-0.3,0.4-0.6,0.8-0.9,1.3c-0.5,0.8-1,1.6-1.4,2.4c-0.9,1.6-1.7,3.2-2.5,4.6c-3,6-5,10.9-6,14.4   c-1.1,3.5-1.4,5.5-1.4,5.5c0,0.3-0.3,0.5-0.6,0.4C119.5,171.7,119.4,171.6,119.3,171.3z" fill="#FF8080" stroke="#FF0000" stroke-width="0.5" stroke-miterlimit="10" id="path_4" tag_name="svg/g_11/path_4"/>
    <path d="M326.8,58c0,0,0,0.5,0.1,1.4c0.1,0.9,0.4,2.3,1,4c0.6,1.7,1.5,3.8,2.8,6.2c0.7,1.2,1.4,2.5,2.4,3.8   c0.5,0.7,1,1.4,1.6,2.1c0.3,0.4,0.6,0.7,0.9,1.1c0.3,0.4,0.7,0.7,1,1.1c2.8,2.9,7,6.1,10.8,9.5c2,1.7,3.7,3.4,5.1,5.2   c1.4,1.8,2.3,3.6,2.8,5.4c0.2,0.9,0.5,1.8,0.2,2.8c-0.3,0.9-1.1,1.9-2.4,2.8c-0.6,0.5-1.3,0.9-2.1,1.4c-0.8,0.5-1.7,1-2.5,1.4   c-1.7,1-3.5,1.9-4.9,2.9c-1.4,1-2.4,1.9-3,2.9c-0.6,1-0.5,1.9-0.4,2.9c0.3,2,1.3,3.9,3.1,5.9c1.6,2,4,3.9,6.1,5.9   c2.2,2,4.2,3.9,5.3,5.8c1.2,1.9,1.6,3.8,1.3,5.7c-0.3,1.9-1,3.8-2.1,5.6c-2.2,3.7-6.2,7.2-10.1,10.6c-1,0.8-1.9,1.7-2.8,2.5   c-0.9,0.8-1.8,1.6-2.6,2.4c-0.4,0.4-0.8,0.8-1.1,1.2c-0.3,0.4-0.7,0.8-1,1.2c-0.7,0.8-1.3,1.5-1.8,2.3c-1.1,1.5-1.9,2.9-2.6,4.2   c-0.4,0.7-0.7,1.3-1,2c-0.3,0.6-0.6,1.3-0.9,1.8c-1.1,2.4-1.8,4.5-2.3,6.2c-1,3.4-0.8,5.4-0.8,5.4c0,0.3-0.2,0.5-0.5,0.5   c-0.3,0-0.5-0.2-0.5-0.5c0,0,0,0,0-0.1c0,0,0.1-2-0.8-5.4c-0.5-1.7-1.2-3.8-2.3-6.2c-0.3-0.6-0.6-1.2-0.9-1.8c-0.3-0.6-0.7-1.3-1-2   c-0.8-1.3-1.5-2.8-2.6-4.2c-0.6-0.7-1.1-1.5-1.8-2.3c-0.3-0.4-0.7-0.8-1-1.2c-0.4-0.4-0.8-0.8-1.1-1.2c-0.7-0.8-1.7-1.6-2.6-2.4   c-0.9-0.8-1.8-1.6-2.8-2.5c-3.9-3.4-7.9-6.9-10.1-10.6c-1.1-1.8-1.8-3.7-2.1-5.6c-0.3-1.9,0.1-3.8,1.3-5.7c1.1-1.9,3.1-3.9,5.3-5.8   c2.1-2,4.5-3.9,6.1-5.9c1.7-2,2.8-3.9,3.1-5.9c0.2-1,0.2-2-0.4-2.9c-0.6-1-1.6-1.9-3-2.9c-1.4-1-3.2-1.9-4.9-2.9   c-0.8-0.5-1.7-1-2.5-1.4c-0.8-0.5-1.5-1-2.1-1.4c-1.3-0.9-2-1.9-2.4-2.8c-0.4-0.9-0.1-1.9,0.2-2.8c0.5-1.8,1.5-3.6,2.8-5.4   c1.4-1.8,3.1-3.5,5.1-5.2c3.8-3.4,8-6.6,10.8-9.5c0.3-0.4,0.7-0.7,1-1.1c0.3-0.4,0.6-0.7,0.9-1.1c0.6-0.7,1.1-1.4,1.6-2.1   c0.9-1.3,1.7-2.6,2.4-3.8c1.4-2.4,2.2-4.5,2.8-6.2c0.6-1.7,0.9-3.1,1-4c0.1-0.9,0.1-1.4,0.1-1.4c0-0.3,0.2-0.5,0.5-0.5   C326.5,57.4,326.8,57.6,326.8,58C326.8,57.9,326.8,58,326.8,58z" fill="#FF8080" stroke="#FF0000" stroke-width="0.5" stroke-miterlimit="10" id="path_3" tag_name="svg/g_11/path_3"/>
    <path d="M429,272.4c0,0-0.3-0.2-0.9-0.5c-0.6-0.4-1.5-0.9-2.6-1.6c-0.5-0.3-1.1-0.7-1.8-1.2c-0.6-0.4-1.3-0.9-2-1.4   c-1.5-1-3-2.2-4.7-3.5c-3.4-2.6-7.3-5.7-11.1-9.4c-0.9-0.9-1.9-1.8-2.9-2.8c-0.9-1-1.9-1.9-2.9-3c-0.9-1-2-2.1-2.9-3.1   c-0.5-0.5-1-1.1-1.5-1.6c-0.5-0.5-0.9-1.1-1.4-1.7c-1.9-2.2-3.3-4.5-4.2-6.9c-0.4-1.2-0.7-2.4-0.9-3.7c-0.2-1.2-0.3-2.5-0.1-3.8   c0.2-1.3,0.8-2.6,1.6-3.9c0.4-0.7,0.9-1.3,1.4-2c0.5-0.7,1.1-1.3,1.6-2c1.1-1.3,2.1-2.7,2.9-4.1c0.7-1.4,1.2-2.7,1.2-4.1   c0-1.4-0.2-2.8-1.4-4.2c-1.2-1.4-3.2-2.8-5.6-4.3c-2.4-1.4-5-2.9-6.9-4.3c-1.9-1.4-3-2.9-3.1-4.4c0-0.4,0-0.7,0.1-1.1   c0.1-0.4,0.2-0.7,0.7-1.1c0.9-0.7,2.9-1.5,5.9-2.2l1-0.3l1.2-0.3l2.5-0.6l5.1-1.1l2.3-0.6l1.2-0.3l0.6-0.1l0.5-0.1   c0.7-0.2,1.4-0.4,1.9-0.6c0.6-0.2,1.2-0.4,1.6-0.6c2-0.7,2.9-1.5,3.1-2.2c0.2-0.7-0.6-1.5-1.7-2.2c-0.5-0.4-1.1-0.7-1.7-1.1   c-0.3-0.2-0.5-0.4-0.7-0.6c-0.2-0.2-0.4-0.4-0.5-0.6c-0.2-0.4-0.3-0.7-0.2-1.1c0.1-0.4,0.5-0.7,0.8-1.1c0.6-0.7,1.4-1.5,2.3-2.2   c0.9-0.7,1.9-1.5,3.1-2.2l1.7-1.1l1.9-1.1l3.7-2.2c2.5-1.5,4.5-3,6-4.4c0.8-0.7,1.4-1.5,1.9-2.2c0.5-0.7,0.4-1.5-0.3-2.2   c-0.6-0.7-1.7-1.5-2.6-2.2c-0.9-0.7-1.6-1.5-1.8-2.2c-0.2-0.7-0.2-1.4-0.1-2.2c0.2-0.7,0.5-1.4,0.6-2.2c0.3-1.4,0.1-2.9-1.5-4.3   c-0.7-0.7-1.6-1.4-2.2-2.1c-0.6-0.7-0.9-1.4-0.9-2.1c-0.1-1.4,0.3-2.8,0.9-4.1c0.6-1.4,1.5-2.7,2.1-4.1c0.6-1.3,0.8-2.7,0.7-4   c-0.1-0.7-0.2-1.3-0.6-2c-0.2-0.3-0.5-0.6-0.8-1c-0.3-0.3-0.7-0.6-1.1-1c-0.8-0.6-1.9-1.3-2.9-1.9c-0.5-0.3-1-0.6-1.5-0.9l-0.7-0.5   l-0.6-0.5c-1.7-1.2-2.2-2.5-1.9-3.7c0.3-1.2,1.3-2.4,2.9-3.5c0.4-0.3,0.8-0.6,1.3-0.9c0.5-0.3,0.9-0.6,1.4-0.9   c0.9-0.6,1.9-1.1,2.9-1.7c0.8-0.6,1.8-1.1,2.5-1.7c0.4-0.3,0.7-0.5,1-0.8c0.3-0.3,0.6-0.5,0.9-0.8c0.5-0.5,0.9-1.1,1.1-1.6   c0.2-0.5,0.3-1,0.1-1.5c-0.3-1-1.5-2-2.3-3c-0.8-1-1.2-1.9-0.9-2.8c0.2-0.9,0.8-1.8,1.6-2.6c0.8-0.8,1.7-1.7,2.6-2.4   c0.8-0.8,1.5-1.5,1.9-2.2c0.2-0.4,0.4-0.7,0.5-1.1c0-0.3-0.1-0.7-0.4-1c-0.3-0.3-0.6-0.6-0.8-0.9c-0.2-0.3-0.3-0.6-0.3-0.9   c0.1-0.6,0.2-1.1,0.4-1.6c0.3-1,0.7-1.9,1.1-2.6c0.4-0.7,0.8-1.2,1.1-1.6c0.3-0.4,0.5-0.5,0.5-0.5c0.3-0.3,0.7-0.3,1,0   c0,0,0.2,0.2,0.5,0.5c0.3,0.4,0.7,0.9,1.1,1.6c0.4,0.7,0.8,1.6,1.1,2.6c0.1,0.5,0.3,1,0.4,1.6c0,0.3-0.1,0.6-0.3,0.9   c-0.2,0.3-0.6,0.6-0.8,0.9c-0.3,0.3-0.4,0.7-0.4,1c0,0.3,0.3,0.7,0.5,1.1c0.4,0.7,1.1,1.5,1.9,2.2c0.8,0.8,1.8,1.6,2.6,2.4   c0.8,0.8,1.3,1.7,1.6,2.6c0.3,0.9-0.1,1.8-0.9,2.8c-0.8,1-1.9,1.9-2.3,3c-0.2,0.5-0.1,1,0.1,1.5c0.3,0.5,0.6,1,1.1,1.6   c0.2,0.3,0.5,0.5,0.9,0.8c0.3,0.3,0.7,0.5,1,0.8c0.7,0.5,1.7,1.1,2.5,1.7c0.9,0.6,1.9,1.1,2.9,1.7c0.5,0.3,0.9,0.6,1.4,0.9   c0.5,0.3,0.9,0.6,1.3,0.9c1.6,1.2,2.6,2.3,2.9,3.5c0.4,1.2-0.2,2.4-1.9,3.7l-0.6,0.5l-0.7,0.5c-0.5,0.3-1,0.6-1.5,0.9   c-1,0.6-2.1,1.3-2.9,1.9c-0.4,0.3-0.8,0.6-1.1,1c-0.3,0.3-0.6,0.6-0.8,1c-0.4,0.6-0.5,1.3-0.6,2c-0.2,1.3,0.1,2.6,0.7,4   c0.6,1.3,1.4,2.7,2.1,4.1c0.6,1.4,1,2.7,0.9,4.1c0,0.7-0.3,1.4-0.9,2.1c-0.6,0.7-1.5,1.4-2.2,2.1c-1.5,1.4-1.8,2.8-1.5,4.3   c0.2,0.7,0.5,1.4,0.6,2.2c0.2,0.7,0.1,1.4-0.1,2.2c-0.2,0.7-0.9,1.4-1.8,2.2c-0.8,0.7-2,1.5-2.6,2.2c-0.6,0.7-0.7,1.5-0.3,2.2   c0.5,0.7,1.1,1.5,1.9,2.2c1.5,1.5,3.6,2.9,6,4.4l3.7,2.2l1.9,1.1l1.7,1.1c1.2,0.7,2.2,1.5,3.1,2.2c0.9,0.7,1.7,1.5,2.3,2.2   c0.3,0.4,0.7,0.7,0.8,1.1c0.1,0.4,0.1,0.7-0.2,1.1c-0.1,0.2-0.3,0.4-0.5,0.6c-0.2,0.2-0.4,0.4-0.7,0.6c-0.5,0.4-1.1,0.7-1.7,1.1   c-1.1,0.7-1.9,1.5-1.7,2.2c0.2,0.7,1.2,1.5,3.1,2.2c0.4,0.2,1,0.4,1.6,0.6c0.5,0.2,1.3,0.4,1.9,0.6l0.5,0.1l0.6,0.1l1.2,0.3   l2.3,0.6l5.1,1.1l2.5,0.6l1.2,0.3l1,0.3c3,0.7,5,1.5,5.9,2.2c0.5,0.4,0.6,0.7,0.7,1.1c0.1,0.4,0.2,0.7,0.1,1.1   c-0.1,1.5-1.1,2.9-3.1,4.4c-1.9,1.4-4.5,2.9-6.9,4.3c-2.4,1.4-4.4,2.9-5.6,4.3c-1.2,1.4-1.4,2.8-1.4,4.2c0,1.4,0.4,2.8,1.2,4.1   c0.8,1.4,1.8,2.7,2.9,4.1c0.5,0.7,1.1,1.3,1.6,2c0.5,0.7,1,1.3,1.4,2c0.8,1.3,1.3,2.6,1.6,3.9c0.2,1.3,0.1,2.5-0.1,3.8   c-0.2,1.2-0.5,2.5-0.9,3.7c-0.9,2.4-2.3,4.7-4.2,6.9c-0.5,0.6-0.9,1.1-1.4,1.7c-0.5,0.5-1,1.1-1.5,1.6c-1,1.1-2,2.1-2.9,3.1   c-1,1-2,2-2.9,3c-1,1-2,1.9-2.9,2.8c-3.8,3.6-7.7,6.8-11.1,9.4c-1.7,1.3-3.2,2.5-4.7,3.5c-0.7,0.5-1.4,1-2,1.4   c-0.7,0.4-1.3,0.8-1.8,1.2c-1,0.7-2,1.2-2.6,1.6c-0.6,0.4-0.9,0.5-0.9,0.5C429.7,272.6,429.3,272.6,429,272.4z" fill="#FF8080" stroke="#FF0000" stroke-width="0.5" stroke-miterlimit="10" id="path_2" tag_name="svg/g_11/path_2"/>
    <path d="M533.3,50.3c0,0,0,0.3,0,1c0.1,0.6,0.2,1.6,0.6,2.8c0.4,1.2,1,2.6,1.9,4.3c0.2,0.4,0.5,0.8,0.7,1.3   c0.2,0.4,0.6,0.9,1,1.4c0.9,0.9,2.4,1.9,4.5,2.9c0.9,0.5,2.1,1,3.2,1.6c1.1,0.5,2.3,1.1,3.4,1.6c2.2,1.1,3.9,2.2,4.8,3.4   c0.5,0.6,0.6,1.2,0.9,1.8c0.2,0.6,0.4,1.2,0.6,1.8c0.4,1.2,0.8,2.5,1.1,3.8c0.6,2.6,1,5.2,0.9,7.9c0,2.7-0.4,5.4-1,8.1   c-0.6,2.7-1.4,5.5-2.1,8.1c-0.7,2.7-1.6,5.3-2.8,7.9c-1.2,2.6-2.7,5-4.3,7.4c-1.6,2.3-3.2,4.6-4.7,6.6c-1.4,2-2.7,3.9-3.7,5.6   c-1,1.7-1.9,3.1-2.6,4.3c-0.7,1.2-1.3,2.1-1.7,2.8c-0.4,0.6-0.6,1-0.6,1c-0.2,0.3-0.5,0.4-0.8,0.2c-0.1,0-0.1-0.1-0.2-0.2   c0,0-0.2-0.3-0.6-1c-0.4-0.6-1-1.6-1.7-2.8c-0.7-1.2-1.6-2.6-2.6-4.3c-1-1.7-2.3-3.5-3.7-5.6c-1.5-2-3-4.3-4.7-6.6   c-1.6-2.3-3.1-4.8-4.3-7.4c-1.2-2.6-2.1-5.2-2.8-7.9c-0.8-2.7-1.5-5.4-2.1-8.1c-0.6-2.7-1-5.5-1-8.1c0-2.7,0.3-5.3,0.9-7.9   c0.3-1.3,0.7-2.5,1.1-3.8c0.2-0.6,0.4-1.2,0.6-1.8c0.2-0.6,0.4-1.2,0.9-1.8c0.9-1.2,2.7-2.3,4.8-3.4c1.2-0.6,2.3-1.1,3.4-1.6   c1.1-0.5,2.3-1.1,3.2-1.6c2.1-1,3.5-2,4.5-2.9c0.5-0.5,0.8-0.9,1-1.4c0.3-0.4,0.5-0.9,0.7-1.3c0.9-1.7,1.5-3.1,1.9-4.3   c0.4-1.2,0.5-2.1,0.6-2.8c0-0.6,0-1,0-1c0-0.3,0.2-0.5,0.4-0.6c0.3,0,0.5,0.2,0.6,0.4C533.3,50.2,533.3,50.3,533.3,50.3z" fill="#FF8080" stroke="#FF0000" stroke-width="0.5" stroke-miterlimit="10" id="path_1" tag_name="svg/g_11/path_1"/>
    <path d="M635.5,231c0,0-1-0.6-2.5-1.7c-1.6-1.1-3.6-2.7-5.7-4.8c-2.1-2.1-4.3-4.6-6.3-7.5c-2-2.9-3.7-6.2-5-9.7   c-1.3-3.6-1.8-7.4-2.2-11.5c-0.2-2-0.4-4.1-0.7-6.3c-0.3-2.1-0.8-4.3-1.4-6.6c-0.6-2.2-1.3-4.5-2.1-6.8c-0.8-2.3-1.7-4.6-2.5-6.9   c-1.8-4.7-3.5-9.4-4.6-14.2c-0.3-1.2-0.5-2.4-0.8-3.6c-0.2-1.2-0.4-2.4-0.6-3.6c-0.4-2.4-0.9-4.7-1.4-7.1c-1-4.7-2.2-9.3-2-13.7   c0.1-4.5,1.3-8.8,3.3-12.8c1.9-4.1,4.3-7.9,7-11.5c2.7-3.6,5.7-6.8,8.7-9.7c3-2.9,6.1-5.4,8.8-7.5c2.8-2.1,5.2-3.7,7.1-4.8   c0.9-0.6,1.6-1,2.1-1.3c0.5-0.3,0.8-0.4,0.8-0.4c0.3-0.2,0.7-0.2,1,0c0,0,0.3,0.1,0.8,0.4c0.5,0.3,1.2,0.7,2.1,1.3   c1.8,1.1,4.3,2.7,7.1,4.8c2.7,2.1,5.8,4.6,8.8,7.5c3,2.9,6,6.2,8.7,9.7c2.7,3.6,5.1,7.4,7,11.5c1.9,4.1,3.2,8.4,3.3,12.8   c0.1,4.5-1,9.1-2,13.7c-0.5,2.3-1,4.7-1.4,7.1c-0.2,1.2-0.4,2.4-0.6,3.6c-0.2,1.2-0.5,2.4-0.8,3.6c-1.1,4.8-2.9,9.5-4.6,14.2   c-0.9,2.3-1.8,4.7-2.5,6.9c-0.8,2.3-1.5,4.6-2.1,6.8c-0.6,2.2-1.1,4.4-1.4,6.6c-0.3,2.1-0.5,4.2-0.7,6.3c-0.3,4.1-0.9,7.9-2.2,11.5   c-1.3,3.6-3,6.8-5,9.7c-2,2.9-4.2,5.4-6.3,7.5c-2.1,2.1-4.2,3.7-5.7,4.8c-1.5,1.1-2.5,1.7-2.5,1.7   C636.2,231.2,635.8,231.2,635.5,231z" fill="#FF8080" stroke="#FF0000" stroke-width="0.5" stroke-miterlimit="10" id="path" tag_name="svg/g_11/path"/>
  </g>
  <g id="g" tag_name="svg/g">
    <line x1="223.1" y1="99.1" x2="223.1" y2="239.2" fill="none" stroke="#000000" stroke-width="0.5" stroke-miterlimit="10" id="line_5" tag_name="svg/g/line_5"/>
    <rect x="219.1" y="147.2" width="8" height="50.2" fill="#262626" id="rect_5" tag_name="svg/g/rect_5"/>
    <circle cx="223.1" cy="171.6" r="2.6" fill="#FFFFFF" id="circle_5" tag_name="svg/g/circle_5"/>
    <line x1="326.3" y1="66.5" x2="326.3" y2="175" fill="none" stroke="#000000" stroke-width="0.5" stroke-miterlimit="10" id="line_4" tag_name="svg/g/line_4"/>
    <rect x="322.3" y="87.7" width="8" height="40.7" fill="#262626" id="rect_4" tag_name="svg/g/rect_4"/>
    <circle cx="326.3" cy="108" r="2.6" fill="#FFFFFF" id="circle_4" tag_name="svg/g/circle_4"/>
    <line x1="532.8" y1="56.5" x2="532.8" y2="137.9" fill="none" stroke="#000000" stroke-width="0.5" stroke-miterlimit="10" id="line_3" tag_name="svg/g/line_3"/>
    <rect x="528.8" y="78.9" width="8" height="30.9" fill="#262626" id="rect_3" tag_name="svg/g/rect_3"/>
    <circle cx="532.8" cy="94.3" r="2.6" fill="#FFFFFF" id="circle_3" tag_name="svg/g/circle_3"/>
    <line x1="636" y1="78.9" x2="636" y2="227.5" fill="none" stroke="#000000" stroke-width="0.5" stroke-miterlimit="10" id="line_2" tag_name="svg/g/line_2"/>
    <rect x="632" y="109.7" width="8" height="71.8" fill="#262626" id="rect_2" tag_name="svg/g/rect_2"/>
    <circle cx="636" cy="145.6" r="2.6" fill="#FFFFFF" id="circle_2" tag_name="svg/g/circle_2"/>
    <line x1="429.5" y1="83.1" x2="429.5" y2="272.4" fill="none" stroke="#000000" stroke-width="0.5" stroke-miterlimit="10" id="line_1" tag_name="svg/g/line_1"/>
    <rect x="425.5" y="183.5" width="8" height="71" fill="#262626" id="rect_1" tag_name="svg/g/rect_1"/>
    <circle cx="429.5" cy="219" r="2.6" fill="#FFFFFF" id="circle_1" tag_name="svg/g/circle_1"/>
    <line x1="119.8" y1="48" x2="119.8" y2="167" fill="none" stroke="#000000" stroke-width="0.5" stroke-miterlimit="10" id="line" tag_name="svg/g/line"/>
    <rect x="115.8" y="96.5" width="8" height="36.4" fill="#262626" id="rect" tag_name="svg/g/rect"/>
    <circle cx="119.8" cy="114" r="2.6" fill="#FFFFFF" id="circle" tag_name="svg/g/circle"/>
    <g id="g_10" tag_name="svg/g/g_10">
	</g>
    <g id="g_9" tag_name="svg/g/g_9">
	</g>
    <g id="g_8" tag_name="svg/g/g_8">
	</g>
    <g id="g_7" tag_name="svg/g/g_7">
	</g>
    <g id="g_6" tag_name="svg/g/g_6">
	</g>
    <g id="g_5" tag_name="svg/g/g_5">
	</g>
    <g id="g_4" tag_name="svg/g/g_4">
	</g>
    <g id="g_3" tag_name="svg/g/g_3">
	</g>
    <g id="g_2" tag_name="svg/g/g_2">
	</g>
    <g id="g_1" tag_name="svg/g/g_1">
	</g>
  </g>
</svg>