<?xml version='1.0' encoding='UTF-8'?>
<svg width="900" height="340" viewBox="-600,-270,1300,520" style="max-width: 100%; height: auto; font: 10px sans-serif;" id="svg" tag_name="svg">
  <g stroke="white" id="g_1" tag_name="svg/g_1">
    <path d="M0,-249A249,249,0,0,1,95.881,-229.8L0,0Z" fill="rgb(66, 136, 181)" id="path_17" tag_name="svg/g_1/path_17">
      <title id="title_17" tag_name="svg/g_1/path_17/title_17">xxxxxxxxxxxxxx</title>
    </path>
    <path d="M95.881,-229.8A249,249,0,0,1,179.014,-173.075L0,0Z" fill="rgb(77, 163, 177)" id="path_16" tag_name="svg/g_1/path_16">
      <title id="title_16" tag_name="svg/g_1/path_16/title_16">xxxxxxxxxxxxxxx</title>
    </path>
    <path d="M179.014,-173.075A249,249,0,0,1,233.212,-87.253L0,0Z" fill="rgb(101, 186, 170)" id="path_15" tag_name="svg/g_1/path_15">
      <title id="title_15" tag_name="svg/g_1/path_15/title_15">xxxxxxxxxxxxxxxxx</title>
    </path>
    <path d="M233.212,-87.253A249,249,0,0,1,248.46,16.396L0,0Z" fill="rgb(131, 204, 165)" id="path_14" tag_name="svg/g_1/path_14">
      <title id="title_14" tag_name="svg/g_1/path_14/title_14">xxxxxxxxxxxxxxxxx</title>
    </path>
    <path d="M248.46,16.396A249,249,0,0,1,216.75,122.558L0,0Z" fill="rgb(162, 217, 163)" id="path_13" tag_name="svg/g_1/path_13">
      <title id="title_13" tag_name="svg/g_1/path_13/title_13">xxxxxxxxxxxxxxxxx</title>
    </path>
    <path d="M216.75,122.558A249,249,0,0,1,145.78,201.864L0,0Z" fill="rgb(191, 229, 160)" id="path_12" tag_name="svg/g_1/path_12">
      <title id="title_12" tag_name="svg/g_1/path_12/title_12">xxxxxxxxxxxxxxxxx</title>
    </path>
    <path d="M145.78,201.864A249,249,0,0,1,50.671,243.79L0,0Z" fill="rgb(216, 239, 159)" id="path_11" tag_name="svg/g_1/path_11">
      <title id="title_11" tag_name="svg/g_1/path_11/title_11">xxxxxxxxxxxxxxxxx</title>
    </path>
    <path d="M50.671,243.79A249,249,0,0,1,-46.837,244.555L0,0Z" fill="rgb(235, 247, 166)" id="path_10" tag_name="svg/g_1/path_10">
      <title id="title_10" tag_name="svg/g_1/path_10/title_10">xxxxxxxxxxxxxxxxx</title>
    </path>
    <path d="M-46.837,244.555A249,249,0,0,1,-141.018,205.219L0,0Z" fill="rgb(247, 250, 175)" id="path_9" tag_name="svg/g_1/path_9">
      <title id="title_9" tag_name="svg/g_1/path_9/title_9">xxxxxxxxxxxxxxxxx</title>
    </path>
    <path d="M-141.018,205.219A249,249,0,0,1,-212.989,128.983L0,0Z" fill="rgb(253, 245, 172)" id="path_8" tag_name="svg/g_1/path_8">
      <title id="title_8" tag_name="svg/g_1/path_8/title_8">xxxxxxxxxxxxxxxxx</title>
    </path>
    <path d="M-212.989,128.983A249,249,0,0,1,-247.821,24.204L0,0Z" fill="rgb(254, 232, 154)" id="path_7" tag_name="svg/g_1/path_7">
      <title id="title_7" tag_name="svg/g_1/path_7/title_7">xxxxxxxxxxxxxxxxx</title>
    </path>
    <path d="M-247.821,24.204A249,249,0,0,1,-236.394,-78.222L0,0Z" fill="rgb(254, 213, 133)" id="path_6" tag_name="svg/g_1/path_6">
      <title id="title_6" tag_name="svg/g_1/path_6/title_6">xxxxxxxxxxxxxxxxx</title>
    </path>
    <path d="M-236.394,-78.222A249,249,0,0,1,-192.81,-157.56L0,0Z" fill="rgb(253, 191, 112)" id="path_5" tag_name="svg/g_1/path_5">
      <title id="title_5" tag_name="svg/g_1/path_5/title_5">xxxxxxxxxxxxxxxxx</title>
    </path>
    <path d="M-192.81,-157.56A249,249,0,0,1,-139.955,-205.946L0,0Z" fill="rgb(251, 165, 95)" id="path_4" tag_name="svg/g_1/path_4">
      <title id="title_4" tag_name="svg/g_1/path_4/title_4">xxxxxxxxxxxxxxxxx</title>
    </path>
    <path d="M-139.955,-205.946A249,249,0,0,1,-93.908,-230.613L0,0Z" fill="rgb(247, 136, 81)" id="path_3" tag_name="svg/g_1/path_3">
      <title id="title_3" tag_name="svg/g_1/path_3/title_3">xxxxxxxxxxxxxxxxx</title>
    </path>
    <path d="M-93.908,-230.613A249,249,0,0,1,-57.555,-242.257L0,0Z" fill="rgb(239, 109, 74)" id="path_2" tag_name="svg/g_1/path_2">
      <title id="title_2" tag_name="svg/g_1/path_2/title_2">xxxxxxxxxxxxxxxx</title>
    </path>
    <path d="M-57.555,-242.257A249,249,0,0,1,-29.287,-247.272L0,0Z" fill="rgb(227, 84, 73)" id="path_1" tag_name="svg/g_1/path_1">
      <title id="title_1" tag_name="svg/g_1/path_1/title_1">xxxxxxxxxxxxxxxx</title>
    </path>
    <path d="M-29.287,-247.272A249,249,0,0,1,0,-249L0,0Z" fill="rgb(209, 60, 75)" id="path" tag_name="svg/g_1/path">
      <title id="title" tag_name="svg/g_1/path/title">xxxxxxxxxxxxxx</title>
    </path>
  </g>
  <g text-anchor="middle" id="g" tag_name="svg/g">
    <text transform="translate(39.11372237762645,-195.3221869674973)" id="text_17" tag_name="svg/g/text_17">
      <tspan y="-0.4em" font-weight="bold" id="tspan_31" tag_name="svg/g/text_17/tspan_31">xx</tspan>
      <tspan x="0" y="0.7em" fill-opacity="0.7" id="tspan_30" tag_name="svg/g/text_17/tspan_30">xxxxxxxxxx</tspan>
    </text>
    <text transform="translate(112.27451466634166,-164.54504962604446)" id="text_16" tag_name="svg/g/text_16">
      <tspan y="-0.4em" font-weight="bold" id="tspan_29" tag_name="svg/g/text_16/tspan_29">xxx</tspan>
      <tspan x="0" y="0.7em" fill-opacity="0.7" id="tspan_28" tag_name="svg/g/text_16/tspan_28">xxxxxxxxxx</tspan>
    </text>
    <text transform="translate(168.42593997920625,-106.36419859201132)" id="text_15" tag_name="svg/g/text_15">
      <tspan y="-0.4em" font-weight="bold" id="tspan_27" tag_name="svg/g/text_15/tspan_27">xxxxx</tspan>
      <tspan x="0" y="0.7em" fill-opacity="0.7" id="tspan_26" tag_name="svg/g/text_15/tspan_26">xxxxxxxxxx</tspan>
    </text>
    <text transform="translate(197.07897516160085,-28.99168069038295)" id="text_14" tag_name="svg/g/text_14">
      <tspan y="-0.4em" font-weight="bold" id="tspan_25" tag_name="svg/g/text_14/tspan_25">xxxxx</tspan>
      <tspan x="0" y="0.7em" fill-opacity="0.7" id="tspan_24" tag_name="svg/g/text_14/tspan_24">xxxxxxxxxx</tspan>
    </text>
    <text transform="translate(190.86758926714663,57.010554876687735)" id="text_13" tag_name="svg/g/text_13">
      <tspan y="-0.4em" font-weight="bold" id="tspan_23" tag_name="svg/g/text_13/tspan_23">xxxxx</tspan>
      <tspan x="0" y="0.7em" fill-opacity="0.7" id="tspan_22" tag_name="svg/g/text_13/tspan_22">xxxxxxxxxx</tspan>
    </text>
    <text transform="translate(148.44124679741742,132.8376311488135)" id="text_12" tag_name="svg/g/text_12">
      <tspan y="-0.4em" font-weight="bold" id="tspan_21" tag_name="svg/g/text_12/tspan_21">xxxxx</tspan>
      <tspan x="0" y="0.7em" fill-opacity="0.7" id="tspan_20" tag_name="svg/g/text_12/tspan_20">xxxxxxxxxx</tspan>
    </text>
    <text transform="translate(80.35012137280007,182.27588429459422)" id="text_11" tag_name="svg/g/text_11">
      <tspan y="-0.4em" font-weight="bold" id="tspan_19" tag_name="svg/g/text_11/tspan_19">xxxxx</tspan>
      <tspan x="0" y="0.7em" fill-opacity="0.7" id="tspan_18" tag_name="svg/g/text_11/tspan_18">xxxxxxxxxx</tspan>
    </text>
    <text transform="translate(1.5638158378033475,199.19386155207053)" id="text_10" tag_name="svg/g/text_10">
      <tspan y="-0.4em" font-weight="bold" id="tspan_17" tag_name="svg/g/text_10/tspan_17">xxxxx</tspan>
      <tspan x="0" y="0.7em" fill-opacity="0.7" id="tspan_16" tag_name="svg/g/text_10/tspan_16">xxxxxxxxxx</tspan>
    </text>
    <text transform="translate(-76.7719797123452,183.81159683503995)" id="text_9" tag_name="svg/g/text_9">
      <tspan y="-0.4em" font-weight="bold" id="tspan_15" tag_name="svg/g/text_9/tspan_15">xxxxx</tspan>
      <tspan x="0" y="0.7em" fill-opacity="0.7" id="tspan_14" tag_name="svg/g/text_9/tspan_14">xxxxxxxxxx</tspan>
    </text>
    <text transform="translate(-144.84942167794674,136.74532913253157)" id="text_8" tag_name="svg/g/text_8">
      <tspan y="-0.4em" font-weight="bold" id="tspan_13" tag_name="svg/g/text_8/tspan_13">xxxxx</tspan>
      <tspan x="0" y="0.7em" fill-opacity="0.7" id="tspan_12" tag_name="svg/g/text_8/tspan_12">xxxxxxxxxx</tspan>
    </text>
    <text transform="translate(-189.02900335378692,62.83849052192471)" id="text_7" tag_name="svg/g/text_7">
      <tspan y="-0.4em" font-weight="bold" id="tspan_11" tag_name="svg/g/text_7/tspan_11">xxxxx</tspan>
      <tspan x="0" y="0.7em" fill-opacity="0.7" id="tspan_10" tag_name="svg/g/text_7/tspan_10">xxxxxxxxxx</tspan>
    </text>
    <text transform="translate(-197.97189389578836,-22.085498122404186)" id="text_6" tag_name="svg/g/text_6">
      <tspan y="-0.4em" font-weight="bold" id="tspan_9" tag_name="svg/g/text_6/tspan_9">xxxxx</tspan>
      <tspan x="0" y="0.7em" fill-opacity="0.7" id="tspan_8" tag_name="svg/g/text_6/tspan_8">xxxxxxxxxx</tspan>
    </text>
    <text transform="translate(-174.59031274493717,-95.91070167413557)" id="text_5" tag_name="svg/g/text_5">
      <tspan y="-0.4em" font-weight="bold" id="tspan_7" tag_name="svg/g/text_5/tspan_7">xxxxx</tspan>
      <tspan x="0" y="0.7em" fill-opacity="0.7" id="tspan_6" tag_name="svg/g/text_5/tspan_6">xxxxxxxxxx</tspan>
    </text>
    <text transform="translate(-134.505825498966,-146.9313544034823)" id="text_4" tag_name="svg/g/text_4">
      <tspan y="-0.4em" font-weight="bold" id="tspan_5" tag_name="svg/g/text_4/tspan_5">xxxxx</tspan>
      <tspan x="0" y="0.7em" fill-opacity="0.7" id="tspan_4" tag_name="svg/g/text_4/tspan_4">xxxxxxxxxx</tspan>
    </text>
    <text transform="translate(-94.06412677226238,-175.59208425943282)" id="text_3" tag_name="svg/g/text_3">
      <tspan y="-0.4em" font-weight="bold" id="tspan_3" tag_name="svg/g/text_3/tspan_3">xxxxx</tspan>
    </text>
    <text transform="translate(-60.76397910153224,-189.70603270257)" id="text_2" tag_name="svg/g/text_2">
      <tspan y="-0.4em" font-weight="bold" id="tspan_2" tag_name="svg/g/text_2/tspan_2">xxxxx</tspan>
    </text>
    <text transform="translate(-34.79469030600643,-196.13762904274412)" id="text_1" tag_name="svg/g/text_1">
      <tspan y="-0.4em" font-weight="bold" id="tspan_1" tag_name="svg/g/text_1/tspan_1">xxxxx</tspan>
    </text>
    <text transform="translate(-11.735147265593108,-198.8540326939709)" id="text" tag_name="svg/g/text">
      <tspan y="-0.4em" font-weight="bold" id="tspan" tag_name="svg/g/text/tspan">xxx</tspan>
    </text>
  </g>
</svg>