<?xml version='1.0' encoding='UTF-8'?>
<svg width="900" height="340" viewBox="-70,-30,880,340" style="max-width: 100%; height: auto; font: 10px sans-serif;" id="svg" tag_name="svg">
  <g id="g_49" tag_name="svg/g_49">
    <g id="g_53" tag_name="svg/g_49/g_53">
      <g id="g_55" tag_name="svg/g_49/g_53/g_55">
        <path d="M523,33.7c-70.2,0-127,56.8-127,127s56.8,127,127,127c70.2,0,127-56.8,127-127S593.2,33.7,523,33.7z" fill="none" stroke="#CCCCCC" id="path_42" tag_name="svg/g_49/g_53/g_55/path_42"/>
        <path d="M628.9,160.7c0,58.5-47.4,105.8-105.9,105.8c-58.5,0-105.9-47.3-105.9-105.8S464.6,54.9,523,54.9     C581.5,54.9,628.9,102.2,628.9,160.7z" fill="none" stroke="#CCCCCC" id="path_41" tag_name="svg/g_49/g_53/g_55/path_41"/>
        <path d="M523,76c-46.8,0-84.6,38-84.6,84.7s37.8,84.7,84.6,84.7c46.8,0,84.6-38,84.6-84.7S569.9,76,523,76z" fill="none" stroke="#CCCCCC" id="path_40" tag_name="svg/g_49/g_53/g_55/path_40"/>
        <path d="M586.5,160.7c0,35.1-28.4,63.5-63.5,63.5c-35.1,0-63.5-28.4-63.5-63.5s28.4-63.5,63.5-63.5     C558.1,97.2,586.5,125.6,586.5,160.7z" fill="none" stroke="#CCCCCC" id="path_39" tag_name="svg/g_49/g_53/g_55/path_39"/>
        <path d="M523,118.4c-23.4,0-42.4,18.9-42.4,42.3c0,23.4,19,42.3,42.4,42.3c23.4,0,42.4-18.9,42.4-42.3     C565.4,137.3,546.4,118.4,523,118.4z" fill="none" stroke="#CCCCCC" id="path_38" tag_name="svg/g_49/g_53/g_55/path_38"/>
        <path d="M544.2,160.7c0,11.7-9.4,21.2-21.1,21.2c-11.7,0-21.1-9.5-21.1-21.2c0-11.7,9.4-21.2,21.1-21.2     C534.8,139.5,544.2,149,544.2,160.7z" fill="none" stroke="#CCCCCC" id="path_37" tag_name="svg/g_49/g_53/g_55/path_37"/>
      </g>
      <g id="g_54" tag_name="svg/g_49/g_53/g_54">
        <line x1="523" y1="160.7" x2="523" y2="33.7" fill="none" stroke="#CCCCCC" id="line_14" tag_name="svg/g_49/g_53/g_54/line_14"/>
        <line x1="523" y1="160.7" x2="643.8" y2="121.5" fill="none" stroke="#CCCCCC" id="line_13" tag_name="svg/g_49/g_53/g_54/line_13"/>
        <line x1="523" y1="160.7" x2="597.7" y2="263.4" fill="none" stroke="#CCCCCC" id="line_12" tag_name="svg/g_49/g_53/g_54/line_12"/>
        <line x1="523" y1="160.7" x2="448.4" y2="263.4" fill="none" stroke="#CCCCCC" id="line_11" tag_name="svg/g_49/g_53/g_54/line_11"/>
        <line x1="523" y1="160.7" x2="402.2" y2="121.5" fill="none" stroke="#CCCCCC" id="line_10" tag_name="svg/g_49/g_53/g_54/line_10"/>
      </g>
    </g>
    <g id="g_50" tag_name="svg/g_49/g_50">
      <g id="g_52" tag_name="svg/g_49/g_50/g_52">
        <path d="M201.8,33.7c-70.2,0-127,56.8-127,127c0,70.2,56.8,127,127,127c70.2,0,127-56.8,127-127     C328.8,90.5,272,33.7,201.8,33.7z" fill="none" stroke="#CCCCCC" id="path_36" tag_name="svg/g_49/g_50/g_52/path_36"/>
        <path d="M307.7,160.7c0,58.5-47.4,105.8-105.9,105.8C143.3,266.5,96,219.2,96,160.7c0-58.5,47.4-105.8,105.9-105.8     C260.3,54.9,307.7,102.2,307.7,160.7z" fill="none" stroke="#CCCCCC" id="path_35" tag_name="svg/g_49/g_50/g_52/path_35"/>
        <path d="M201.8,76c-46.8,0-84.6,38-84.6,84.7c0,46.8,37.8,84.7,84.6,84.7c46.8,0,84.6-38,84.6-84.7     C286.5,114,248.6,76,201.8,76z" fill="none" stroke="#CCCCCC" id="path_34" tag_name="svg/g_49/g_50/g_52/path_34"/>
        <path d="M265.3,160.7c0,35.1-28.4,63.5-63.5,63.5c-35.1,0-63.5-28.4-63.5-63.5c0-35.1,28.4-63.5,63.5-63.5     C236.9,97.2,265.3,125.6,265.3,160.7z" fill="none" stroke="#CCCCCC" id="path_33" tag_name="svg/g_49/g_50/g_52/path_33"/>
        <path d="M201.8,118.4c-23.4,0-42.4,18.9-42.4,42.3c0,23.4,19,42.3,42.4,42.3s42.4-18.9,42.4-42.3     C244.2,137.3,225.2,118.4,201.8,118.4z" fill="none" stroke="#CCCCCC" id="path_32" tag_name="svg/g_49/g_50/g_52/path_32"/>
        <path d="M223,160.7c0,11.7-9.4,21.2-21.1,21.2c-11.7,0-21.1-9.6-21.1-21.2c0-11.7,9.4-21.2,21.1-21.2     C213.5,139.5,223,149,223,160.7z" fill="none" stroke="#CCCCCC" id="path_31" tag_name="svg/g_49/g_50/g_52/path_31"/>
      </g>
      <g id="g_51" tag_name="svg/g_49/g_50/g_51">
        <line x1="201.8" y1="160.7" x2="201.8" y2="33.7" fill="none" stroke="#CCCCCC" id="line_9" tag_name="svg/g_49/g_50/g_51/line_9"/>
        <line x1="201.8" y1="160.7" x2="276.5" y2="58" fill="none" stroke="#CCCCCC" id="line_8" tag_name="svg/g_49/g_50/g_51/line_8"/>
        <line x1="201.8" y1="160.7" x2="322.6" y2="121.5" fill="none" stroke="#CCCCCC" id="line_7" tag_name="svg/g_49/g_50/g_51/line_7"/>
        <line x1="201.8" y1="160.7" x2="322.6" y2="199.9" fill="none" stroke="#CCCCCC" id="line_6" tag_name="svg/g_49/g_50/g_51/line_6"/>
        <line x1="201.8" y1="160.7" x2="276.5" y2="263.4" fill="none" stroke="#CCCCCC" id="line_5" tag_name="svg/g_49/g_50/g_51/line_5"/>
        <line x1="201.8" y1="160.7" x2="201.8" y2="287.7" fill="none" stroke="#CCCCCC" id="line_4" tag_name="svg/g_49/g_50/g_51/line_4"/>
        <line x1="201.8" y1="160.7" x2="127.2" y2="263.4" fill="none" stroke="#CCCCCC" id="line_3" tag_name="svg/g_49/g_50/g_51/line_3"/>
        <line x1="201.8" y1="160.7" x2="81" y2="199.9" fill="none" stroke="#CCCCCC" id="line_2" tag_name="svg/g_49/g_50/g_51/line_2"/>
        <line x1="201.8" y1="160.7" x2="81" y2="121.5" fill="none" stroke="#CCCCCC" id="line_1" tag_name="svg/g_49/g_50/g_51/line_1"/>
        <line x1="201.8" y1="160.7" x2="127.2" y2="58" fill="none" stroke="#CCCCCC" id="line" tag_name="svg/g_49/g_50/g_51/line"/>
      </g>
    </g>
  </g>
  <g id="g_21" tag_name="svg/g_21">
    <rect x="239.2" y="153.3" width="9.5" height="13.3" fill="#FFFFFF" id="rect_20" tag_name="svg/g_21/rect_20"/>
    <rect x="260.6" y="153.3" width="9.5" height="13.3" fill="#FFFFFF" id="rect_19" tag_name="svg/g_21/rect_19"/>
    <rect x="281.7" y="153.3" width="9.5" height="13.3" fill="#FFFFFF" id="rect_18" tag_name="svg/g_21/rect_18"/>
    <rect x="302.9" y="153.3" width="9.5" height="13.3" fill="#FFFFFF" id="rect_17" tag_name="svg/g_21/rect_17"/>
    <rect x="324.1" y="153.3" width="9.5" height="13.3" fill="#FFFFFF" id="rect_16" tag_name="svg/g_21/rect_16"/>
    <rect x="219.3" y="155.7" width="7.3" height="9.2" fill="#FFFFFF" id="rect_15" tag_name="svg/g_21/rect_15"/>
    <g id="g_48" tag_name="svg/g_21/g_48">
      <path d="M199.8,23.3l-1.1,3.4h-1.4l3.7-10.8h1.7l3.7,10.8h-1.5l-1.2-3.4H199.8z M203.3,22.2l-1.1-3.1    c-0.2-0.7-0.4-1.3-0.6-2h0c-0.2,0.6-0.3,1.3-0.5,2l-1.1,3.1H203.3z" fill="#666666" id="path_30" tag_name="svg/g_21/g_48/path_30"/>
    </g>
    <g id="g_47" tag_name="svg/g_21/g_47">
      <path d="M279.7,42.9c0.6-0.1,1.6-0.2,2.5-0.2c1.4,0,2.3,0.2,3,0.8c0.6,0.4,0.9,1.1,0.9,1.9c0,1-0.7,2-1.8,2.4v0    c1,0.3,2.2,1.1,2.2,2.7c0,0.9-0.4,1.6-0.9,2.2c-0.8,0.7-2,1-3.7,1c-1,0-1.7-0.1-2.2-0.1V42.9z M281.1,47.3h1.3    c1.5,0,2.3-0.8,2.3-1.8c0-1.3-1-1.8-2.4-1.8c-0.6,0-1,0-1.2,0.1V47.3z M281.1,52.4c0.3,0,0.7,0.1,1.2,0.1c1.4,0,2.8-0.5,2.8-2.1    c0-1.5-1.3-2.1-2.8-2.1h-1.2V52.4z" fill="#666666" id="path_29" tag_name="svg/g_21/g_47/path_29"/>
    </g>
    <g id="g_46" tag_name="svg/g_21/g_46">
      <path d="M336.9,124.2c-0.5,0.3-1.5,0.5-2.8,0.5c-3,0-5.3-1.9-5.3-5.5c0-3.4,2.3-5.7,5.6-5.7c1.3,0,2.2,0.3,2.6,0.5    l-0.3,1.1c-0.5-0.3-1.3-0.4-2.2-0.4c-2.5,0-4.2,1.6-4.2,4.4c0,2.6,1.5,4.3,4.1,4.3c0.8,0,1.7-0.2,2.3-0.4L336.9,124.2z" fill="#666666" id="path_28" tag_name="svg/g_21/g_46/path_28"/>
    </g>
    <g id="g_45" tag_name="svg/g_21/g_45">
      <path d="M329.4,196.5c0.8-0.1,1.9-0.2,3-0.2c2,0,3.4,0.5,4.4,1.3c1,0.9,1.5,2.1,1.5,3.9c0,1.8-0.5,3.2-1.6,4.2    c-1,1-2.7,1.6-4.8,1.6c-1,0-1.8,0-2.5-0.1V196.5z M330.8,206.1c0.4,0.1,0.9,0.1,1.4,0.1c3,0,4.6-1.7,4.6-4.6    c0-2.5-1.4-4.2-4.4-4.2c-0.7,0-1.3,0.1-1.6,0.1V206.1z" fill="#666666" id="path_27" tag_name="svg/g_21/g_45/path_27"/>
    </g>
    <g id="g_44" tag_name="svg/g_21/g_44">
      <path d="M285.3,273.1h-4.2v3.9h4.7v1.2h-6.1v-10.8h5.8v1.2h-4.4v3.4h4.2V273.1z" fill="#666666" id="path_26" tag_name="svg/g_21/g_44/path_26"/>
    </g>
    <g id="g_43" tag_name="svg/g_21/g_43">
      <path d="M199.1,294.4h5.8v1.2h-4.4v3.6h4.1v1.2h-4.1v4.9h-1.4V294.4z" fill="#666666" id="path_25" tag_name="svg/g_21/g_43/path_25"/>
    </g>
    <g id="g_42" tag_name="svg/g_21/g_42">
      <path d="M521.2,23.4l-1.1,3.4h-1.4l3.7-10.8h1.7l3.7,10.8h-1.5l-1.2-3.4H521.2z M524.8,22.4l-1.1-3.1    c-0.2-0.7-0.4-1.3-0.6-2h0c-0.2,0.6-0.3,1.3-0.5,2l-1.1,3.1H524.8z" fill="#666666" id="path_24" tag_name="svg/g_21/g_42/path_24"/>
    </g>
    <g id="g_41" tag_name="svg/g_21/g_41">
      <path d="M650.2,113.9c0.6-0.1,1.6-0.2,2.5-0.2c1.4,0,2.3,0.2,3,0.8c0.6,0.4,0.9,1.1,0.9,1.9c0,1-0.7,2-1.8,2.4v0    c1,0.3,2.2,1.1,2.2,2.7c0,0.9-0.4,1.6-0.9,2.2c-0.8,0.7-2,1-3.7,1c-1,0-1.7-0.1-2.2-0.1V113.9z M651.6,118.3h1.3    c1.5,0,2.3-0.8,2.3-1.8c0-1.3-1-1.8-2.4-1.8c-0.6,0-1,0-1.2,0.1V118.3z M651.6,123.5c0.3,0,0.7,0.1,1.2,0.1c1.4,0,2.8-0.5,2.8-2.1    c0-1.5-1.3-2.1-2.8-2.1h-1.2V123.5z" fill="#666666" id="path_23" tag_name="svg/g_21/g_41/path_23"/>
    </g>
    <g id="g_40" tag_name="svg/g_21/g_40">
      <path d="M607.5,276.8c-0.5,0.3-1.5,0.5-2.8,0.5c-3,0-5.3-1.9-5.3-5.5c0-3.4,2.3-5.7,5.6-5.7c1.3,0,2.2,0.3,2.6,0.5    l-0.3,1.1c-0.5-0.3-1.3-0.4-2.2-0.4c-2.5,0-4.2,1.6-4.2,4.5c0,2.6,1.5,4.3,4.1,4.3c0.8,0,1.7-0.2,2.3-0.4L607.5,276.8z" fill="#666666" id="path_22" tag_name="svg/g_21/g_40/path_22"/>
    </g>
    <g id="g_39" tag_name="svg/g_21/g_39">
      <path d="M437.6,266.5c0.8-0.1,1.9-0.2,3-0.2c2,0,3.4,0.5,4.4,1.3c1,0.9,1.5,2.1,1.5,3.9c0,1.8-0.5,3.2-1.6,4.2    c-1,1-2.7,1.6-4.8,1.6c-1,0-1.8,0-2.5-0.1V266.5z M439,276.1c0.4,0.1,0.9,0.1,1.4,0.1c3,0,4.6-1.7,4.6-4.6c0-2.5-1.4-4.2-4.4-4.2    c-0.7,0-1.3,0.1-1.6,0.1V276.1z" fill="#666666" id="path_21" tag_name="svg/g_21/g_39/path_21"/>
    </g>
    <g id="g_38" tag_name="svg/g_21/g_38">
      <path d="M396.1,117.4h-4.2v3.9h4.7v1.2h-6.1v-10.8h5.8v1.2h-4.4v3.4h4.2V117.4z" fill="#666666" id="path_20" tag_name="svg/g_21/g_38/path_20"/>
    </g>
    <g id="g_37" tag_name="svg/g_21/g_37">
      <path d="M125.6,278.7c-0.6,0.2-1.9,0.6-3.3,0.6c-1.6,0-3-0.4-4-1.4c-0.9-0.9-1.5-2.3-1.5-4c0-3.2,2.2-5.6,5.8-5.6    c1.2,0,2.2,0.3,2.7,0.5l-0.3,1.1c-0.6-0.3-1.3-0.5-2.4-0.5c-2.6,0-4.3,1.6-4.3,4.3c0,2.7,1.6,4.4,4.2,4.4c0.9,0,1.5-0.1,1.9-0.3    v-3.2h-2.2v-1.1h3.6V278.7z" fill="#666666" id="path_19" tag_name="svg/g_21/g_37/path_19"/>
    </g>
    <g id="g_36" tag_name="svg/g_21/g_36">
      <path d="M68.1,198.4v4.5h5.2v-4.5h1.4v10.8h-1.4v-5.1h-5.2v5.1h-1.4v-10.8H68.1z" fill="#666666" id="path_18" tag_name="svg/g_21/g_36/path_18"/>
    </g>
    <g id="g_35" tag_name="svg/g_21/g_35">
      <path d="M72.8,112.1v10.8h-1.4v-10.8H72.8z" fill="#666666" id="path_17" tag_name="svg/g_21/g_35/path_17"/>
    </g>
    <g id="g_34" tag_name="svg/g_21/g_34">
      <path d="M121.6,42.1h1.4v7.2c0,2.9-1.4,3.7-3.3,3.7c-0.5,0-1.1-0.1-1.5-0.3l0.2-1.1c0.3,0.1,0.7,0.2,1.2,0.2    c1.2,0,2-0.6,2-2.7V42.1z" fill="#666666" id="path_16" tag_name="svg/g_21/g_34/path_16"/>
    </g>
    <g id="g_33" tag_name="svg/g_21/g_33">
      <path d="M220.8,163.5V163l0.7-0.7c1.7-1.6,2.4-2.4,2.4-3.4c0-0.7-0.3-1.3-1.3-1.3c-0.6,0-1.1,0.3-1.4,0.5l-0.3-0.6    c0.4-0.4,1.1-0.7,1.8-0.7c1.4,0,2,1,2,1.9c0,1.2-0.9,2.2-2.2,3.5l-0.5,0.5v0h2.9v0.7H220.8z" fill="#999999" id="path_15" tag_name="svg/g_21/g_33/path_15"/>
    </g>
    <g id="g_32" tag_name="svg/g_21/g_32">
      <path d="M244.6,163.5v-1.8h-3v-0.6l2.9-4.1h0.9v4h0.9v0.7h-0.9v1.8H244.6z M244.6,161v-2.2c0-0.3,0-0.7,0-1h0    c-0.2,0.4-0.4,0.7-0.5,1l-1.6,2.2v0H244.6z" fill="#999999" id="path_14" tag_name="svg/g_21/g_32/path_14"/>
    </g>
    <g id="g_31" tag_name="svg/g_21/g_31">
      <path d="M266.8,157.6c-0.2,0-0.4,0-0.7,0c-1.4,0.2-2.1,1.2-2.3,2.3h0c0.3-0.4,0.8-0.8,1.6-0.8c1.1,0,2,0.8,2,2.1    c0,1.2-0.8,2.3-2.2,2.3c-1.4,0-2.3-1.1-2.3-2.8c0-1.3,0.5-2.3,1.1-2.9c0.5-0.5,1.3-0.9,2.1-1c0.3,0,0.5,0,0.6,0V157.6z     M266.5,161.4c0-0.9-0.5-1.5-1.3-1.5c-0.5,0-1,0.3-1.3,0.8c-0.1,0.1-0.1,0.2-0.1,0.4c0,1.1,0.5,1.9,1.4,1.9    C266,162.9,266.5,162.3,266.5,161.4z" fill="#999999" id="path_13" tag_name="svg/g_21/g_31/path_13"/>
    </g>
    <g id="g_30" tag_name="svg/g_21/g_30">
      <path d="M284.3,161.9c0-0.8,0.5-1.4,1.3-1.7l0,0c-0.7-0.3-1-0.9-1-1.5c0-1,0.9-1.7,2-1.7c1.3,0,1.9,0.8,1.9,1.6    c0,0.5-0.3,1.1-1.1,1.5v0c0.8,0.3,1.3,0.9,1.3,1.7c0,1.1-1,1.9-2.2,1.9C285.2,163.6,284.3,162.8,284.3,161.9z M287.8,161.8    c0-0.8-0.5-1.2-1.4-1.4c-0.8,0.2-1.2,0.7-1.2,1.3c0,0.7,0.5,1.2,1.3,1.2C287.3,163,287.8,162.5,287.8,161.8z M285.4,158.6    c0,0.6,0.5,1,1.2,1.2c0.6-0.2,1-0.6,1-1.2c0-0.5-0.3-1.1-1.1-1.1C285.8,157.5,285.4,158,285.4,158.6z" fill="#999999" id="path_12" tag_name="svg/g_21/g_30/path_12"/>
    </g>
    <g id="g_29" tag_name="svg/g_21/g_29">
      <path d="M305.5,157.8L305.5,157.8l-1.1,0.6l-0.2-0.7l1.4-0.8h0.7v6.5h-0.8V157.8z" fill="#999999" id="path_11" tag_name="svg/g_21/g_29/path_11"/>
      <path d="M312.5,160.2c0,2.2-0.8,3.4-2.3,3.4c-1.3,0-2.1-1.2-2.1-3.3c0-2.2,0.9-3.4,2.3-3.4    C311.8,156.9,312.5,158.1,312.5,160.2z M309,160.3c0,1.7,0.5,2.6,1.3,2.6c0.9,0,1.3-1,1.3-2.7c0-1.6-0.4-2.6-1.3-2.6    C309.6,157.6,309,158.5,309,160.3z" fill="#999999" id="path_10" tag_name="svg/g_21/g_29/path_10"/>
    </g>
    <g id="g_28" tag_name="svg/g_21/g_28">
      <path d="M326.5,157.8L326.5,157.8l-1.1,0.6l-0.2-0.7l1.4-0.8h0.7v6.5h-0.8V157.8z" fill="#999999" id="path_9" tag_name="svg/g_21/g_28/path_9"/>
      <path d="M329.2,163.5V163l0.7-0.7c1.7-1.6,2.4-2.4,2.4-3.4c0-0.7-0.3-1.3-1.3-1.3c-0.6,0-1.1,0.3-1.4,0.5l-0.3-0.6    c0.4-0.4,1.1-0.7,1.8-0.7c1.4,0,2,1,2,1.9c0,1.2-0.9,2.2-2.2,3.5l-0.5,0.5v0h2.9v0.7H329.2z" fill="#999999" id="path_8" tag_name="svg/g_21/g_28/path_8"/>
    </g>
    <rect x="560.3" y="151.3" width="9.5" height="13.3" fill="#FFFFFF" id="rect_14" tag_name="svg/g_21/rect_14"/>
    <rect x="581.7" y="151.3" width="9.5" height="13.3" fill="#FFFFFF" id="rect_13" tag_name="svg/g_21/rect_13"/>
    <rect x="602.9" y="151.3" width="9.5" height="13.3" fill="#FFFFFF" id="rect_12" tag_name="svg/g_21/rect_12"/>
    <rect x="624.1" y="151.3" width="9.5" height="14.2" fill="#FFFFFF" id="rect_11" tag_name="svg/g_21/rect_11"/>
    <rect x="645.2" y="151.3" width="9.5" height="14.2" fill="#FFFFFF" id="rect_10" tag_name="svg/g_21/rect_10"/>
    <polygon points="539.6,163.7 546.9,163.7 547.8,153.7 540.5,155.7  " fill="#FFFFFF" id="polygon_1" tag_name="svg/g_21/polygon_1"/>
    <g id="g_27" tag_name="svg/g_21/g_27">
      <path d="M542.3,158.5v0.6h-2.5v-0.6H542.3z" fill="#999999" id="path_7" tag_name="svg/g_21/g_27/path_7"/>
      <path d="M543,161.5V161l0.7-0.7c1.7-1.6,2.4-2.4,2.4-3.4c0-0.7-0.3-1.3-1.3-1.3c-0.6,0-1.1,0.3-1.4,0.5l-0.3-0.6    c0.5-0.4,1.1-0.7,1.8-0.7c1.4,0,2,1,2,1.9c0,1.2-0.9,2.2-2.2,3.5l-0.5,0.5v0h2.9v0.7H543z" fill="#999999" id="path_6" tag_name="svg/g_21/g_27/path_6"/>
    </g>
    <g id="g_26" tag_name="svg/g_21/g_26">
      <path d="M564.4,158.5v0.6h-2.5v-0.6H564.4z" fill="#999999" id="path_5" tag_name="svg/g_21/g_26/path_5"/>
      <path d="M567,155.8L567,155.8l-1.1,0.6l-0.2-0.7l1.4-0.8h0.7v6.5H567V155.8z" fill="#999999" id="path_4" tag_name="svg/g_21/g_26/path_4"/>
    </g>
    <g id="g_25" tag_name="svg/g_21/g_25">
      <path d="M588.6,158.2c0,2.2-0.8,3.4-2.3,3.4c-1.3,0-2.1-1.2-2.1-3.3c0-2.2,0.9-3.4,2.3-3.4    C587.8,154.9,588.6,156.1,588.6,158.2z M585,158.3c0,1.7,0.5,2.6,1.3,2.6c0.9,0,1.3-1,1.3-2.7c0-1.6-0.4-2.6-1.3-2.6    C585.6,155.6,585,156.5,585,158.3z" fill="#999999" id="path_3" tag_name="svg/g_21/g_25/path_3"/>
    </g>
    <g id="g_24" tag_name="svg/g_21/g_24">
      <path d="M607.5,155.8L607.5,155.8l-1.1,0.6l-0.2-0.7l1.4-0.8h0.8v6.5h-0.8V155.8z" fill="#999999" id="path_2" tag_name="svg/g_21/g_24/path_2"/>
    </g>
    <g id="g_23" tag_name="svg/g_21/g_23">
      <path d="M626.8,161.5V161l0.7-0.7c1.7-1.6,2.4-2.4,2.4-3.4c0-0.7-0.3-1.3-1.3-1.3c-0.6,0-1.1,0.3-1.4,0.5l-0.3-0.6    c0.5-0.4,1.1-0.7,1.8-0.7c1.4,0,2,1,2,1.9c0,1.2-0.9,2.2-2.2,3.5l-0.5,0.5v0h2.9v0.7H626.8z" fill="#999999" id="path_1" tag_name="svg/g_21/g_23/path_1"/>
    </g>
    <g id="g_22" tag_name="svg/g_21/g_22">
      <path d="M648,160.5c0.2,0.2,0.8,0.4,1.4,0.4c1.1,0,1.5-0.7,1.5-1.3c0-0.9-0.8-1.3-1.7-1.3h-0.5v-0.7h0.5    c0.6,0,1.4-0.3,1.4-1.1c0-0.5-0.3-1-1.1-1c-0.5,0-1,0.2-1.3,0.4l-0.2-0.6c0.3-0.2,1-0.5,1.7-0.5c1.3,0,1.9,0.8,1.9,1.5    c0,0.7-0.4,1.2-1.2,1.5v0c0.8,0.2,1.4,0.8,1.4,1.7c0,1-0.8,1.9-2.4,1.9c-0.7,0-1.4-0.2-1.7-0.4L648,160.5z" fill="#999999" id="path" tag_name="svg/g_21/g_22/path"/>
    </g>
  </g>
  <g id="g" tag_name="svg/g">
    <polygon points="298.2,184.1 226.1,160.7 252.9,152 248.3,137.7 221.5,146.5 263.4,88.7 251.3,79.9 209.3,137.6    209.3,46.8 194.3,46.8 194.3,137.6 161.7,92.8 149.6,101.6 182.2,146.5 113.8,124.3 109.2,138.5 177.5,160.7 159.2,166.6    163.8,180.9 182.2,175 141.3,231.2 153.5,240 194.3,183.8 194.3,277.2 209.3,277.2 209.3,183.7 233.1,216.5 245.3,207.6 221.5,175    293.6,198.4  " fill="#FF0000" id="polygon" tag_name="svg/g/polygon"/>
    <g id="g_20" tag_name="svg/g/g_20">
      <rect x="582.1" y="127.8" transform="matrix(0.9516 -0.3074 0.3074 0.9516 -11.3274 193.6555)" width="53.8" height="10" fill="#FF8C8C" id="rect_9" tag_name="svg/g/g_20/rect_9"/>
    </g>
    <g id="g_19" tag_name="svg/g/g_19">
      <rect x="551.1" y="141.2" transform="matrix(0.9506 -0.3104 0.3104 0.9506 -17.339 183.4059)" width="33.1" height="10" fill="#FF0000" id="rect_8" tag_name="svg/g/g_19/rect_8"/>
    </g>
    <g id="g_18" tag_name="svg/g/g_18">
      <rect x="518" y="35.8" width="10" height="61.5" fill="#FF8C8C" id="rect_7" tag_name="svg/g/g_18/rect_7"/>
    </g>
    <g id="g_17" tag_name="svg/g/g_17">
      <rect x="518" y="97.2" width="10" height="56.5" fill="#FF0000" id="rect_6" tag_name="svg/g/g_17/rect_6"/>
    </g>
    <g id="g_16" tag_name="svg/g/g_16">
      <rect x="561.6" y="210" transform="matrix(0.8088 -0.588 0.588 0.8088 -21.4111 375.3483)" width="10" height="21.3" fill="#FF8C8C" id="rect_5" tag_name="svg/g/g_16/rect_5"/>
    </g>
    <g id="g_15" tag_name="svg/g/g_15">
      <rect x="452" y="224.2" transform="matrix(0.5854 -0.8108 0.8108 0.5854 10.4029 478.6534)" width="42.3" height="10" fill="#FF8C8C" id="rect_4" tag_name="svg/g/g_15/rect_4"/>
    </g>
    <g id="g_14" tag_name="svg/g/g_14">
      <rect x="443.9" y="122.5" transform="matrix(0.2873 -0.9578 0.9578 0.2873 188.7566 527.5117)" width="10" height="28.8" fill="#FF8C8C" id="rect_3" tag_name="svg/g/g_14/rect_3"/>
    </g>
    <g id="g_13" tag_name="svg/g/g_13">
      <rect x="462.1" y="137.8" transform="matrix(0.3148 -0.9492 0.9492 0.3148 184.7875 541.059)" width="10" height="9.5" fill="#FF0000" id="rect_2" tag_name="svg/g/g_13/rect_2"/>
    </g>
    <g id="g_12" tag_name="svg/g/g_12">
      <rect x="480.4" y="196.7" transform="matrix(0.5926 -0.8055 0.8055 0.5926 38.3921 479.3898)" width="25.5" height="10" fill="#FF0000" id="rect_1" tag_name="svg/g/g_12/rect_1"/>
    </g>
    <g id="g_11" tag_name="svg/g/g_11">
      <rect x="542.3" y="171.9" transform="matrix(0.8088 -0.5881 0.5881 0.8088 -9.497 358.9578)" width="10" height="44.3" fill="#FF0000" id="rect" tag_name="svg/g/g_11/rect"/>
    </g>
    <g id="g_10" tag_name="svg/g/g_10">
	</g>
    <g id="g_9" tag_name="svg/g/g_9">
	</g>
    <g id="g_8" tag_name="svg/g/g_8">
	</g>
    <g id="g_7" tag_name="svg/g/g_7">
	</g>
    <g id="g_6" tag_name="svg/g/g_6">
	</g>
    <g id="g_5" tag_name="svg/g/g_5">
	</g>
    <g id="g_4" tag_name="svg/g/g_4">
	</g>
    <g id="g_3" tag_name="svg/g/g_3">
	</g>
    <g id="g_2" tag_name="svg/g/g_2">
	</g>
    <g id="g_1" tag_name="svg/g/g_1">
	</g>
  </g>
</svg>