<?xml version='1.0' encoding='UTF-8'?>
<svg width="900" height="340" viewBox="-70,-30,880,340" style="max-width: 100%; height: auto; font: 10px sans-serif;" id="svg" tag_name="svg">
  <g id="g_73" tag_name="svg/g_73">
    <rect x="30.3" y="53.7" width="316.6" height="17" opacity="0.2" fill="#EC1C24" id="rect_73" tag_name="svg/g_73/rect_73"/>
    <rect x="30.3" y="54.1" width="45.2" height="61.8" fill="none" stroke="#E6E6E6" stroke-width="0.5" id="rect_72" tag_name="svg/g_73/rect_72"/>
    <rect x="75.6" y="54.1" width="45.2" height="61.8" fill="none" stroke="#E6E6E6" stroke-width="0.5" id="rect_71" tag_name="svg/g_73/rect_71"/>
    <rect x="120.8" y="54.1" width="45.2" height="61.8" fill="none" stroke="#E6E6E6" stroke-width="0.5" id="rect_70" tag_name="svg/g_73/rect_70"/>
    <rect x="166.1" y="54.1" width="45.2" height="61.8" fill="none" stroke="#E6E6E6" stroke-width="0.5" id="rect_69" tag_name="svg/g_73/rect_69"/>
    <rect x="211.3" y="54.1" width="45.2" height="61.8" fill="none" stroke="#E6E6E6" stroke-width="0.5" id="rect_68" tag_name="svg/g_73/rect_68"/>
    <rect x="256.6" y="54.1" width="45.2" height="61.8" fill="none" stroke="#E6E6E6" stroke-width="0.5" id="rect_67" tag_name="svg/g_73/rect_67"/>
    <rect x="301.8" y="54.1" width="45.2" height="61.8" fill="none" stroke="#E6E6E6" stroke-width="0.5" id="rect_66" tag_name="svg/g_73/rect_66"/>
    <rect x="30.3" y="116.1" width="45.2" height="45.2" fill="none" stroke="#E6E6E6" stroke-width="0.5" id="rect_65" tag_name="svg/g_73/rect_65"/>
    <rect x="75.6" y="116.1" width="45.2" height="45.2" fill="none" stroke="#E6E6E6" stroke-width="0.5" id="rect_64" tag_name="svg/g_73/rect_64"/>
    <rect x="120.8" y="116.1" width="45.2" height="45.2" fill="none" stroke="#E6E6E6" stroke-width="0.5" id="rect_63" tag_name="svg/g_73/rect_63"/>
    <rect x="166.1" y="116.1" width="45.2" height="45.2" fill="none" stroke="#E6E6E6" stroke-width="0.5" id="rect_62" tag_name="svg/g_73/rect_62"/>
    <rect x="211.3" y="116.1" width="45.2" height="45.2" fill="none" stroke="#E6E6E6" stroke-width="0.5" id="rect_61" tag_name="svg/g_73/rect_61"/>
    <rect x="256.6" y="116.1" width="45.2" height="45.2" fill="none" stroke="#E6E6E6" stroke-width="0.5" id="rect_60" tag_name="svg/g_73/rect_60"/>
    <rect x="301.8" y="116.1" width="45.2" height="45.2" fill="none" stroke="#E6E6E6" stroke-width="0.5" id="rect_59" tag_name="svg/g_73/rect_59"/>
    <rect x="30.3" y="161.5" width="45.2" height="45.2" fill="none" stroke="#E6E6E6" stroke-width="0.5" id="rect_58" tag_name="svg/g_73/rect_58"/>
    <rect x="75.6" y="161.5" width="45.2" height="45.2" fill="none" stroke="#E6E6E6" stroke-width="0.5" id="rect_57" tag_name="svg/g_73/rect_57"/>
    <rect x="120.8" y="161.5" width="45.2" height="45.2" fill="none" stroke="#E6E6E6" stroke-width="0.5" id="rect_56" tag_name="svg/g_73/rect_56"/>
    <rect x="166.1" y="161.5" width="45.2" height="45.2" fill="none" stroke="#E6E6E6" stroke-width="0.5" id="rect_55" tag_name="svg/g_73/rect_55"/>
    <rect x="211.3" y="161.5" width="45.2" height="45.2" fill="none" stroke="#E6E6E6" stroke-width="0.5" id="rect_54" tag_name="svg/g_73/rect_54"/>
    <rect x="256.6" y="161.5" width="45.2" height="45.2" fill="none" stroke="#E6E6E6" stroke-width="0.5" id="rect_53" tag_name="svg/g_73/rect_53"/>
    <rect x="301.8" y="161.5" width="45.2" height="45.2" fill="none" stroke="#E6E6E6" stroke-width="0.5" id="rect_52" tag_name="svg/g_73/rect_52"/>
    <rect x="30.3" y="207" width="45.2" height="45.2" fill="none" stroke="#E6E6E6" stroke-width="0.5" id="rect_51" tag_name="svg/g_73/rect_51"/>
    <rect x="75.6" y="207" width="45.2" height="45.2" fill="none" stroke="#E6E6E6" stroke-width="0.5" id="rect_50" tag_name="svg/g_73/rect_50"/>
    <rect x="120.8" y="207" width="45.2" height="45.2" fill="none" stroke="#E6E6E6" stroke-width="0.5" id="rect_49" tag_name="svg/g_73/rect_49"/>
    <rect x="166.1" y="207" width="45.2" height="45.2" fill="none" stroke="#E6E6E6" stroke-width="0.5" id="rect_48" tag_name="svg/g_73/rect_48"/>
    <rect x="211.3" y="207" width="45.2" height="45.2" fill="none" stroke="#E6E6E6" stroke-width="0.5" id="rect_47" tag_name="svg/g_73/rect_47"/>
    <rect x="256.6" y="207" width="45.2" height="45.2" fill="none" stroke="#E6E6E6" stroke-width="0.5" id="rect_46" tag_name="svg/g_73/rect_46"/>
    <rect x="301.8" y="207" width="45.2" height="45.2" fill="none" stroke="#E6E6E6" stroke-width="0.5" id="rect_45" tag_name="svg/g_73/rect_45"/>
    <rect x="30.3" y="252.4" width="45.2" height="45.2" fill="none" stroke="#E6E6E6" stroke-width="0.5" id="rect_44" tag_name="svg/g_73/rect_44"/>
    <rect x="75.6" y="252.4" width="45.2" height="45.2" fill="none" stroke="#E6E6E6" stroke-width="0.5" id="rect_43" tag_name="svg/g_73/rect_43"/>
    <rect x="120.8" y="252.4" width="45.2" height="45.2" fill="none" stroke="#E6E6E6" stroke-width="0.5" id="rect_42" tag_name="svg/g_73/rect_42"/>
    <rect x="166.1" y="252.4" width="45.2" height="45.2" fill="none" stroke="#E6E6E6" stroke-width="0.5" id="rect_41" tag_name="svg/g_73/rect_41"/>
    <rect x="211.3" y="252.4" width="45.2" height="45.2" fill="none" stroke="#E6E6E6" stroke-width="0.5" id="rect_40" tag_name="svg/g_73/rect_40"/>
    <rect x="256.6" y="252.4" width="45.2" height="45.2" fill="none" stroke="#E6E6E6" stroke-width="0.5" id="rect_39" tag_name="svg/g_73/rect_39"/>
    <rect x="301.8" y="252.4" width="45.2" height="45.2" fill="none" stroke="#E6E6E6" stroke-width="0.5" id="rect_38" tag_name="svg/g_73/rect_38"/>
    <rect x="30" y="22.3" width="317.3" height="31.5" fill="#EC3940" id="rect_37" tag_name="svg/g_73/rect_37"/>
    <g id="g_87" tag_name="svg/g_73/g_87">
      <path d="M41.7,62.9v-0.2c0-0.3,0-0.5,0-0.7h0.7c0,0.2,0,0.4,0,0.7v0.2h2.6c0.4,0,0.7,0,1-0.1v0.7    c-0.3,0-0.6-0.1-1-0.1h-2.6v0.9h2.1c0.5,0,0.7,0,1-0.1V65c-0.3,0-0.6-0.1-1-0.1h-2.1V66h2.9c0.4,0,0.7,0,1-0.1v0.7    c-0.3,0-0.6-0.1-1-0.1h-6.5c-0.4,0-0.7,0-1,0.1v-0.7c0.3,0,0.6,0.1,1,0.1h3v-1.1h-1.8c-0.4,0-0.7,0-0.9,0v-0.6c0.2,0,0.5,0,0.9,0    h1.8v-0.9h-2.3c-0.4,0.5-0.7,0.9-1.2,1.3c-0.2-0.2-0.2-0.3-0.5-0.5c0.5-0.3,0.9-0.7,1.2-1.1c0.3-0.5,0.5-0.7,0.6-1.2l0.6,0.2    c-0.2,0.3-0.2,0.5-0.4,0.7H41.7z M39.7,61.8c-0.4,0-0.7,0-0.9,0c0-0.2,0-0.5,0-0.8v-1.6c0-0.4,0-0.6,0-0.9c0.3,0,0.6,0,0.9,0h4.5    c0.4,0,0.7,0,0.9,0c0,0.2,0,0.4,0,0.8V61c0,0.4,0,0.6,0,0.9c-0.2,0-0.5,0-0.9,0H39.7z M39.4,59.9h5.1v-0.8h-5.1V59.9z M39.4,61.3    h5.1v-0.9h-5.1V61.3z" fill="#1A1A1A" id="path_145" tag_name="svg/g_73/g_87/path_145"/>
      <path d="M50.1,59.2c0-0.4,0-0.6-0.1-0.9h0.7c0,0.2,0,0.5,0,0.9v0.2h1.8v-0.2c0-0.4,0-0.7,0-0.9h0.7    c0,0.2-0.1,0.5-0.1,0.9v0.2c0.3,0,0.6,0,0.8-0.1v0.6c-0.2,0-0.5,0-0.8,0V64c0.3,0,0.6,0,0.8,0v0.6c-0.2,0-0.5,0-0.9,0h-3    c-0.4,0-0.6,0-0.8,0v-0.6c0.2,0,0.4,0,0.8,0h0.3v-4.1h-0.1c-0.4,0-0.6,0-0.8,0v-0.6c0.2,0,0.4,0.1,0.8,0.1h0.1V59.2z M51.1,65.1    c-0.5,0.7-0.8,1.1-1.5,1.7c-0.1-0.2-0.2-0.3-0.4-0.5c0.7-0.5,1.1-0.9,1.4-1.5L51.1,65.1z M52.5,60.9v-1h-1.8v1H52.5z M52.5,62.4    v-1h-1.8v1H52.5z M52.5,64v-1.1h-1.8V64H52.5z M52.8,66.3c-0.4-0.5-0.6-0.7-1-1.1l0.4-0.4c0.4,0.4,0.5,0.5,1,1L52.8,66.3z     M54.8,63.7c-0.1,1.4-0.4,2.2-1.1,3.1c-0.2-0.3-0.2-0.3-0.5-0.4c0.6-0.7,0.8-1.2,1-2.2c0.1-0.7,0.2-2.4,0.2-4.5c0-0.6,0-0.9,0-1.1    c0.3,0,0.5,0,0.9,0h1.3c0.4,0,0.7,0,0.9,0c0,0.2,0,0.5,0,0.9v6.5c0,0.3-0.1,0.5-0.3,0.6c-0.1,0.1-0.4,0.1-0.8,0.1    c-0.2,0-0.3,0-0.8,0c0-0.3-0.1-0.4-0.2-0.7c0.5,0.1,0.8,0.1,1.1,0.1c0.2,0,0.3-0.1,0.3-0.2v-2.2H54.8z M56.8,63.2v-1.8h-1.9    c0,1,0,1.3-0.1,1.8H56.8z M56.8,60.9v-1.7h-1.9v1.3c0,0.3,0,0.3,0,0.4H56.8z" fill="#1A1A1A" id="path_144" tag_name="svg/g_73/g_87/path_144"/>
      <path d="M64.5,61.5c0.1-0.7,0.1-0.8,0.1-2.1h-2.4c-0.4,0-0.7,0-1,0.1v-0.7c0.3,0,0.6,0.1,1,0.1h5.7c0.4,0,0.7,0,1-0.1    v0.7c-0.3,0-0.6-0.1-1-0.1h-2.6c0,1.1,0,1.3-0.1,2.1h3.1c0.5,0,0.8,0,1.1-0.1v0.7c-0.3,0-0.6-0.1-1.1-0.1h-2.8    c0.2,0.7,0.5,1.2,0.9,1.7c0.7,1,1.8,1.7,3.2,2.2c-0.2,0.2-0.3,0.4-0.4,0.6c-1.2-0.5-2.1-1.2-2.8-2c-0.5-0.6-0.9-1.3-1.2-2.2    c-0.3,1.1-0.8,1.9-1.5,2.6c-0.6,0.6-1.3,1-2.4,1.5c-0.1-0.3-0.2-0.4-0.4-0.6c1.2-0.4,2.2-1.1,2.8-1.9c0.5-0.6,0.7-1.2,0.9-2.1    h-2.5c-0.5,0-0.8,0-1.1,0.1v-0.7c0.2,0,0.6,0.1,1.1,0.1H64.5z" fill="#1A1A1A" id="path_143" tag_name="svg/g_73/g_87/path_143"/>
    </g>
    <g id="g_86" tag_name="svg/g_73/g_86">
      <path d="M87.2,62.9v-0.2c0-0.3,0-0.5,0-0.7h0.7c0,0.2,0,0.4,0,0.7v0.2h2.6c0.4,0,0.7,0,1-0.1v0.7    c-0.3,0-0.6-0.1-1-0.1h-2.6v0.9H90c0.5,0,0.7,0,1-0.1V65c-0.3,0-0.6-0.1-1-0.1h-2.1V66h2.9c0.4,0,0.7,0,1-0.1v0.7    c-0.3,0-0.6-0.1-1-0.1h-6.5c-0.4,0-0.7,0-1,0.1v-0.7c0.3,0,0.6,0.1,1,0.1h3v-1.1h-1.8c-0.4,0-0.7,0-0.9,0v-0.6c0.2,0,0.5,0,0.9,0    h1.8v-0.9h-2.3c-0.4,0.5-0.7,0.9-1.2,1.3c-0.2-0.2-0.2-0.3-0.5-0.5c0.5-0.3,0.9-0.7,1.2-1.1c0.3-0.5,0.5-0.7,0.6-1.2l0.6,0.2    c-0.2,0.3-0.2,0.5-0.4,0.7H87.2z M85.3,61.8c-0.4,0-0.7,0-0.9,0c0-0.2,0-0.5,0-0.8v-1.6c0-0.4,0-0.6,0-0.9c0.3,0,0.6,0,0.9,0h4.5    c0.4,0,0.7,0,0.9,0c0,0.2,0,0.4,0,0.8V61c0,0.4,0,0.6,0,0.9c-0.2,0-0.5,0-0.9,0H85.3z M84.9,59.9H90v-0.8h-5.1V59.9z M84.9,61.3    H90v-0.9h-5.1V61.3z" fill="#1A1A1A" id="path_142" tag_name="svg/g_73/g_86/path_142"/>
      <path d="M95.7,59.2c0-0.4,0-0.6-0.1-0.9h0.7c0,0.2,0,0.5,0,0.9v0.2h1.8v-0.2c0-0.4,0-0.7,0-0.9h0.7    c0,0.2-0.1,0.5-0.1,0.9v0.2c0.3,0,0.6,0,0.8-0.1v0.6c-0.2,0-0.5,0-0.8,0V64c0.3,0,0.6,0,0.8,0v0.6c-0.2,0-0.5,0-0.9,0h-3    c-0.4,0-0.6,0-0.8,0v-0.6c0.2,0,0.4,0,0.8,0h0.3v-4.1h-0.1c-0.4,0-0.6,0-0.8,0v-0.6c0.2,0,0.4,0.1,0.8,0.1h0.1V59.2z M96.7,65.1    c-0.5,0.7-0.8,1.1-1.5,1.7c-0.1-0.2-0.2-0.3-0.4-0.5c0.7-0.5,1.1-0.9,1.4-1.5L96.7,65.1z M98.1,60.9v-1h-1.8v1H98.1z M98.1,62.4    v-1h-1.8v1H98.1z M98.1,64v-1.1h-1.8V64H98.1z M98.4,66.3c-0.4-0.5-0.6-0.7-1-1.1l0.4-0.4c0.4,0.4,0.5,0.5,1,1L98.4,66.3z     M100.4,63.7c-0.1,1.4-0.4,2.2-1.1,3.1c-0.2-0.3-0.2-0.3-0.5-0.4c0.6-0.7,0.8-1.2,1-2.2c0.1-0.7,0.2-2.4,0.2-4.5    c0-0.6,0-0.9,0-1.1c0.3,0,0.5,0,0.9,0h1.3c0.4,0,0.7,0,0.9,0c0,0.2,0,0.5,0,0.9v6.5c0,0.3-0.1,0.5-0.3,0.6    c-0.1,0.1-0.4,0.1-0.8,0.1c-0.2,0-0.3,0-0.8,0c0-0.3-0.1-0.4-0.2-0.7c0.5,0.1,0.8,0.1,1.1,0.1c0.2,0,0.3-0.1,0.3-0.2v-2.2H100.4z     M102.4,63.2v-1.8h-1.9c0,1,0,1.3-0.1,1.8H102.4z M102.4,60.9v-1.7h-1.9v1.3c0,0.3,0,0.3,0,0.4H102.4z" fill="#1A1A1A" id="path_141" tag_name="svg/g_73/g_86/path_141"/>
      <path d="M114.8,62.8c-0.3,0-0.7-0.1-1.3-0.1h-5.9c-0.5,0-1,0-1.3,0.1V62c0.3,0,0.7,0.1,1.3,0.1h5.9c0.6,0,1,0,1.3-0.1    V62.8z" fill="#1A1A1A" id="path_140" tag_name="svg/g_73/g_86/path_140"/>
    </g>
    <g id="g_85" tag_name="svg/g_73/g_85">
      <path d="M131.9,62.9v-0.2c0-0.3,0-0.5,0-0.7h0.7c0,0.2,0,0.4,0,0.7v0.2h2.6c0.4,0,0.7,0,1-0.1v0.7    c-0.3,0-0.6-0.1-1-0.1h-2.6v0.9h2.1c0.5,0,0.7,0,1-0.1V65c-0.3,0-0.6-0.1-1-0.1h-2.1V66h2.9c0.4,0,0.7,0,1-0.1v0.7    c-0.3,0-0.6-0.1-1-0.1h-6.5c-0.4,0-0.7,0-1,0.1v-0.7c0.3,0,0.6,0.1,1,0.1h3v-1.1h-1.8c-0.4,0-0.7,0-0.9,0v-0.6c0.2,0,0.5,0,0.9,0    h1.8v-0.9h-2.3c-0.4,0.5-0.7,0.9-1.2,1.3c-0.2-0.2-0.2-0.3-0.5-0.5c0.5-0.3,0.9-0.7,1.2-1.1c0.3-0.5,0.5-0.7,0.6-1.2l0.6,0.2    c-0.2,0.3-0.2,0.5-0.4,0.7H131.9z M129.9,61.8c-0.4,0-0.7,0-0.9,0c0-0.2,0-0.5,0-0.8v-1.6c0-0.4,0-0.6,0-0.9c0.3,0,0.6,0,0.9,0    h4.5c0.4,0,0.7,0,0.9,0c0,0.2,0,0.4,0,0.8V61c0,0.4,0,0.6,0,0.9c-0.2,0-0.5,0-0.9,0H129.9z M129.6,59.9h5.1v-0.8h-5.1V59.9z     M129.6,61.3h5.1v-0.9h-5.1V61.3z" fill="#1A1A1A" id="path_139" tag_name="svg/g_73/g_85/path_139"/>
      <path d="M140.3,59.2c0-0.4,0-0.6-0.1-0.9h0.7c0,0.2,0,0.5,0,0.9v0.2h1.8v-0.2c0-0.4,0-0.7,0-0.9h0.7    c0,0.2-0.1,0.5-0.1,0.9v0.2c0.3,0,0.6,0,0.8-0.1v0.6c-0.2,0-0.5,0-0.8,0V64c0.3,0,0.6,0,0.8,0v0.6c-0.2,0-0.5,0-0.9,0h-3    c-0.4,0-0.6,0-0.8,0v-0.6c0.2,0,0.4,0,0.8,0h0.3v-4.1h-0.1c-0.4,0-0.6,0-0.8,0v-0.6c0.2,0,0.4,0.1,0.8,0.1h0.1V59.2z M141.3,65.1    c-0.5,0.7-0.8,1.1-1.5,1.7c-0.1-0.2-0.2-0.3-0.4-0.5c0.7-0.5,1.1-0.9,1.4-1.5L141.3,65.1z M142.7,60.9v-1h-1.8v1H142.7z     M142.7,62.4v-1h-1.8v1H142.7z M142.7,64v-1.1h-1.8V64H142.7z M143,66.3c-0.4-0.5-0.6-0.7-1-1.1l0.4-0.4c0.4,0.4,0.5,0.5,1,1    L143,66.3z M145,63.7c-0.1,1.4-0.4,2.2-1.1,3.1c-0.2-0.3-0.2-0.3-0.5-0.4c0.6-0.7,0.8-1.2,1-2.2c0.1-0.7,0.2-2.4,0.2-4.5    c0-0.6,0-0.9,0-1.1c0.3,0,0.5,0,0.9,0h1.3c0.4,0,0.7,0,0.9,0c0,0.2,0,0.5,0,0.9v6.5c0,0.3-0.1,0.5-0.3,0.6    c-0.1,0.1-0.4,0.1-0.8,0.1c-0.2,0-0.3,0-0.8,0c0-0.3-0.1-0.4-0.2-0.7c0.5,0.1,0.8,0.1,1.1,0.1c0.2,0,0.3-0.1,0.3-0.2v-2.2H145z     M147,63.2v-1.8h-1.9c0,1,0,1.3-0.1,1.8H147z M147,60.9v-1.7h-1.9v1.3c0,0.3,0,0.3,0,0.4H147z" fill="#1A1A1A" id="path_138" tag_name="svg/g_73/g_85/path_138"/>
      <path d="M159.3,65.7c-0.3,0-0.7-0.1-1.3-0.1h-5.7c-0.6,0-0.9,0-1.3,0.1v-0.8c0.3,0,0.6,0.1,1.3,0.1h5.7    c0.6,0,0.9,0,1.3-0.1V65.7z M151.9,59.3c0.3,0,0.7,0.1,1.2,0.1h4c0.6,0,0.9,0,1.3-0.1v0.8c-0.4,0-0.6-0.1-1.3-0.1h-4    c-0.6,0-0.9,0-1.2,0.1V59.3z" fill="#1A1A1A" id="path_137" tag_name="svg/g_73/g_85/path_137"/>
    </g>
    <g id="g_84" tag_name="svg/g_73/g_84">
      <path d="M176.6,62.9v-0.2c0-0.3,0-0.5,0-0.7h0.7c0,0.2,0,0.4,0,0.7v0.2h2.6c0.4,0,0.7,0,1-0.1v0.7    c-0.3,0-0.6-0.1-1-0.1h-2.6v0.9h2.1c0.5,0,0.7,0,1-0.1V65c-0.3,0-0.6-0.1-1-0.1h-2.1V66h2.9c0.4,0,0.7,0,1-0.1v0.7    c-0.3,0-0.6-0.1-1-0.1h-6.5c-0.4,0-0.7,0-1,0.1v-0.7c0.3,0,0.6,0.1,1,0.1h3v-1.1h-1.8c-0.4,0-0.7,0-0.9,0v-0.6c0.2,0,0.5,0,0.9,0    h1.8v-0.9h-2.3c-0.4,0.5-0.7,0.9-1.2,1.3c-0.2-0.2-0.2-0.3-0.5-0.5c0.5-0.3,0.9-0.7,1.2-1.1c0.3-0.5,0.5-0.7,0.6-1.2l0.6,0.2    c-0.2,0.3-0.2,0.5-0.4,0.7H176.6z M174.6,61.8c-0.4,0-0.7,0-0.9,0c0-0.2,0-0.5,0-0.8v-1.6c0-0.4,0-0.6,0-0.9c0.3,0,0.6,0,0.9,0    h4.5c0.4,0,0.7,0,0.9,0c0,0.2,0,0.4,0,0.8V61c0,0.4,0,0.6,0,0.9c-0.2,0-0.5,0-0.9,0H174.6z M174.3,59.9h5.1v-0.8h-5.1V59.9z     M174.3,61.3h5.1v-0.9h-5.1V61.3z" fill="#1A1A1A" id="path_136" tag_name="svg/g_73/g_84/path_136"/>
      <path d="M185.1,59.2c0-0.4,0-0.6-0.1-0.9h0.7c0,0.2,0,0.5,0,0.9v0.2h1.8v-0.2c0-0.4,0-0.7,0-0.9h0.7    c0,0.2-0.1,0.5-0.1,0.9v0.2c0.3,0,0.6,0,0.8-0.1v0.6c-0.2,0-0.5,0-0.8,0V64c0.3,0,0.6,0,0.8,0v0.6c-0.2,0-0.5,0-0.9,0h-3    c-0.4,0-0.6,0-0.8,0v-0.6c0.2,0,0.4,0,0.8,0h0.3v-4.1H185c-0.4,0-0.6,0-0.8,0v-0.6c0.2,0,0.4,0.1,0.8,0.1h0.1V59.2z M186,65.1    c-0.5,0.7-0.8,1.1-1.5,1.7c-0.1-0.2-0.2-0.3-0.4-0.5c0.7-0.5,1.1-0.9,1.4-1.5L186,65.1z M187.4,60.9v-1h-1.8v1H187.4z M187.4,62.4    v-1h-1.8v1H187.4z M187.4,64v-1.1h-1.8V64H187.4z M187.8,66.3c-0.4-0.5-0.6-0.7-1-1.1l0.4-0.4c0.4,0.4,0.5,0.5,1,1L187.8,66.3z     M189.7,63.7c-0.1,1.4-0.4,2.2-1.1,3.1c-0.2-0.3-0.2-0.3-0.5-0.4c0.6-0.7,0.8-1.2,1-2.2c0.1-0.7,0.2-2.4,0.2-4.5    c0-0.6,0-0.9,0-1.1c0.3,0,0.5,0,0.9,0h1.3c0.4,0,0.7,0,0.9,0c0,0.2,0,0.5,0,0.9v6.5c0,0.3-0.1,0.5-0.3,0.6    c-0.1,0.1-0.4,0.1-0.8,0.1c-0.2,0-0.3,0-0.8,0c0-0.3-0.1-0.4-0.2-0.7c0.5,0.1,0.8,0.1,1.1,0.1c0.2,0,0.3-0.1,0.3-0.2v-2.2H189.7z     M191.7,63.2v-1.8h-1.9c0,1,0,1.3-0.1,1.8H191.7z M191.7,60.9v-1.7h-1.9v1.3c0,0.3,0,0.3,0,0.4H191.7z" fill="#1A1A1A" id="path_135" tag_name="svg/g_73/g_84/path_135"/>
      <path d="M204.1,66.2c-0.3,0-0.6-0.1-1.1-0.1h-6c-0.5,0-0.8,0-1.2,0.1v-0.8c0.3,0,0.6,0.1,1.2,0.1h6    c0.5,0,0.8,0,1.1-0.1V66.2z M196.5,58.8c0.3,0,0.6,0.1,1.1,0.1h4.6c0.5,0,0.8,0,1.2-0.1v0.8c-0.3,0-0.6-0.1-1.2-0.1h-4.6    c-0.5,0-0.8,0-1.1,0.1V58.8z M197.1,62c0.2,0,0.5,0.1,1,0.1h3.7c0.5,0,0.7,0,1-0.1v0.7c-0.3,0-0.5,0-1,0h-3.7c-0.5,0-0.7,0-1,0V62    z" fill="#1A1A1A" id="path_134" tag_name="svg/g_73/g_84/path_134"/>
    </g>
    <g id="g_83" tag_name="svg/g_73/g_83">
      <path d="M222.6,62.9v-0.2c0-0.3,0-0.5,0-0.7h0.7c0,0.2,0,0.4,0,0.7v0.2h2.6c0.4,0,0.7,0,1-0.1v0.7    c-0.3,0-0.6-0.1-1-0.1h-2.6v0.9h2.1c0.5,0,0.7,0,1-0.1V65c-0.3,0-0.6-0.1-1-0.1h-2.1V66h2.9c0.4,0,0.7,0,1-0.1v0.7    c-0.3,0-0.6-0.1-1-0.1h-6.5c-0.4,0-0.7,0-1,0.1v-0.7c0.3,0,0.6,0.1,1,0.1h3v-1.1h-1.8c-0.4,0-0.7,0-0.9,0v-0.6c0.2,0,0.5,0,0.9,0    h1.8v-0.9h-2.3c-0.4,0.5-0.7,0.9-1.2,1.3c-0.2-0.2-0.2-0.3-0.5-0.5c0.5-0.3,0.9-0.7,1.2-1.1c0.3-0.5,0.5-0.7,0.6-1.2l0.6,0.2    c-0.2,0.3-0.2,0.5-0.4,0.7H222.6z M220.7,61.8c-0.4,0-0.7,0-0.9,0c0-0.2,0-0.5,0-0.8v-1.6c0-0.4,0-0.6,0-0.9c0.3,0,0.6,0,0.9,0    h4.5c0.4,0,0.7,0,0.9,0c0,0.2,0,0.4,0,0.8V61c0,0.4,0,0.6,0,0.9c-0.2,0-0.5,0-0.9,0H220.7z M220.3,59.9h5.1v-0.8h-5.1V59.9z     M220.3,61.3h5.1v-0.9h-5.1V61.3z" fill="#1A1A1A" id="path_133" tag_name="svg/g_73/g_83/path_133"/>
      <path d="M231.1,59.2c0-0.4,0-0.6-0.1-0.9h0.7c0,0.2,0,0.5,0,0.9v0.2h1.8v-0.2c0-0.4,0-0.7,0-0.9h0.7    c0,0.2-0.1,0.5-0.1,0.9v0.2c0.3,0,0.6,0,0.8-0.1v0.6c-0.2,0-0.5,0-0.8,0V64c0.3,0,0.6,0,0.8,0v0.6c-0.2,0-0.5,0-0.9,0h-3    c-0.4,0-0.6,0-0.8,0v-0.6c0.2,0,0.4,0,0.8,0h0.3v-4.1h-0.1c-0.4,0-0.6,0-0.8,0v-0.6c0.2,0,0.4,0.1,0.8,0.1h0.1V59.2z M232.1,65.1    c-0.5,0.7-0.8,1.1-1.5,1.7c-0.1-0.2-0.2-0.3-0.4-0.5c0.7-0.5,1.1-0.9,1.4-1.5L232.1,65.1z M233.4,60.9v-1h-1.8v1H233.4z     M233.4,62.4v-1h-1.8v1H233.4z M233.4,64v-1.1h-1.8V64H233.4z M233.8,66.3c-0.4-0.5-0.6-0.7-1-1.1l0.4-0.4c0.4,0.4,0.5,0.5,1,1    L233.8,66.3z M235.8,63.7c-0.1,1.4-0.4,2.2-1.1,3.1c-0.2-0.3-0.2-0.3-0.5-0.4c0.6-0.7,0.8-1.2,1-2.2c0.1-0.7,0.2-2.4,0.2-4.5    c0-0.6,0-0.9,0-1.1c0.3,0,0.5,0,0.9,0h1.3c0.4,0,0.7,0,0.9,0c0,0.2,0,0.5,0,0.9v6.5c0,0.3-0.1,0.5-0.3,0.6    c-0.1,0.1-0.4,0.1-0.8,0.1c-0.2,0-0.3,0-0.8,0c0-0.3-0.1-0.4-0.2-0.7c0.5,0.1,0.8,0.1,1.1,0.1c0.2,0,0.3-0.1,0.3-0.2v-2.2H235.8z     M237.8,63.2v-1.8h-1.9c0,1,0,1.3-0.1,1.8H237.8z M237.8,60.9v-1.7h-1.9v1.3c0,0.3,0,0.3,0,0.4H237.8z" fill="#1A1A1A" id="path_132" tag_name="svg/g_73/g_83/path_132"/>
      <path d="M242,60c0-0.5,0-0.8-0.1-1.2c0.3,0,0.6,0,1.1,0h5.8c0.5,0,0.8,0,1.1,0c0,0.4-0.1,0.7-0.1,1.2v5.3    c0,0.6,0,0.8,0.1,1.1h-0.7v-0.6h-6.7v0.6H242c0-0.3,0.1-0.5,0.1-1.1V60z M245.2,59.5c0,1.4-0.2,2.3-0.5,3    c-0.3,0.6-0.8,1.2-1.5,1.7c-0.1-0.2-0.2-0.3-0.4-0.5c0.8-0.5,1.2-0.9,1.4-1.6c0.3-0.6,0.4-1.3,0.4-2.6h-1.9v5.8h6.7v-5.8h-2.2v3.3    c0,0.2,0,0.3,0.5,0.3c0.4,0,0.7,0,1.4-0.1v0.6c-0.4,0-0.8,0.1-1.3,0.1c-1,0-1.1-0.1-1.1-0.7v-3.4H245.2z" fill="#1A1A1A" id="path_131" tag_name="svg/g_73/g_83/path_131"/>
    </g>
    <g id="g_82" tag_name="svg/g_73/g_82">
      <path d="M267.8,62.9v-0.2c0-0.3,0-0.5,0-0.7h0.7c0,0.2,0,0.4,0,0.7v0.2h2.6c0.4,0,0.7,0,1-0.1v0.7    c-0.3,0-0.6-0.1-1-0.1h-2.6v0.9h2.1c0.5,0,0.7,0,1-0.1V65c-0.3,0-0.6-0.1-1-0.1h-2.1V66h2.9c0.4,0,0.7,0,1-0.1v0.7    c-0.3,0-0.6-0.1-1-0.1h-6.5c-0.4,0-0.7,0-1,0.1v-0.7c0.3,0,0.6,0.1,1,0.1h3v-1.1H266c-0.4,0-0.7,0-0.9,0v-0.6c0.2,0,0.5,0,0.9,0    h1.8v-0.9h-2.3c-0.4,0.5-0.7,0.9-1.2,1.3c-0.2-0.2-0.2-0.3-0.5-0.5c0.5-0.3,0.9-0.7,1.2-1.1c0.3-0.5,0.5-0.7,0.6-1.2l0.6,0.2    c-0.2,0.3-0.2,0.5-0.4,0.7H267.8z M265.8,61.8c-0.4,0-0.7,0-0.9,0c0-0.2,0-0.5,0-0.8v-1.6c0-0.4,0-0.6,0-0.9c0.3,0,0.6,0,0.9,0    h4.5c0.4,0,0.7,0,0.9,0c0,0.2,0,0.4,0,0.8V61c0,0.4,0,0.6,0,0.9c-0.2,0-0.5,0-0.9,0H265.8z M265.5,59.9h5.1v-0.8h-5.1V59.9z     M265.5,61.3h5.1v-0.9h-5.1V61.3z" fill="#1A1A1A" id="path_130" tag_name="svg/g_73/g_82/path_130"/>
      <path d="M276.3,59.2c0-0.4,0-0.6-0.1-0.9h0.7c0,0.2,0,0.5,0,0.9v0.2h1.8v-0.2c0-0.4,0-0.7,0-0.9h0.7    c0,0.2-0.1,0.5-0.1,0.9v0.2c0.3,0,0.6,0,0.8-0.1v0.6c-0.2,0-0.5,0-0.8,0V64c0.3,0,0.6,0,0.8,0v0.6c-0.2,0-0.5,0-0.9,0h-3    c-0.4,0-0.6,0-0.8,0v-0.6c0.2,0,0.4,0,0.8,0h0.3v-4.1h-0.1c-0.4,0-0.6,0-0.8,0v-0.6c0.2,0,0.4,0.1,0.8,0.1h0.1V59.2z M277.3,65.1    c-0.5,0.7-0.8,1.1-1.5,1.7c-0.1-0.2-0.2-0.3-0.4-0.5c0.7-0.5,1.1-0.9,1.4-1.5L277.3,65.1z M278.6,60.9v-1h-1.8v1H278.6z     M278.6,62.4v-1h-1.8v1H278.6z M278.6,64v-1.1h-1.8V64H278.6z M279,66.3c-0.4-0.5-0.6-0.7-1-1.1l0.4-0.4c0.4,0.4,0.5,0.5,1,1    L279,66.3z M280.9,63.7c-0.1,1.4-0.4,2.2-1.1,3.1c-0.2-0.3-0.2-0.3-0.5-0.4c0.6-0.7,0.8-1.2,1-2.2c0.1-0.7,0.2-2.4,0.2-4.5    c0-0.6,0-0.9,0-1.1c0.3,0,0.5,0,0.9,0h1.3c0.4,0,0.7,0,0.9,0c0,0.2,0,0.5,0,0.9v6.5c0,0.3-0.1,0.5-0.3,0.6    c-0.1,0.1-0.4,0.1-0.8,0.1c-0.2,0-0.3,0-0.8,0c0-0.3-0.1-0.4-0.2-0.7c0.5,0.1,0.8,0.1,1.1,0.1c0.2,0,0.3-0.1,0.3-0.2v-2.2H280.9z     M282.9,63.2v-1.8H281c0,1,0,1.3-0.1,1.8H282.9z M282.9,60.9v-1.7H281v1.3c0,0.3,0,0.3,0,0.4H282.9z" fill="#1A1A1A" id="path_129" tag_name="svg/g_73/g_82/path_129"/>
      <path d="M294.4,65.7c0.5,0,0.8,0,1.1-0.1v0.7c-0.3,0-0.6-0.1-1.1-0.1H288c-0.5,0-0.8,0-1.1,0.1v-0.7    c0.3,0,0.6,0.1,1.1,0.1h1.1c0.4-1.3,0.7-2.2,0.9-3.5h-1.1c-0.4,0-0.7,0-1,0.1v-0.7c0.2,0,0.5,0.1,1,0.1h1.2    c0.2-0.9,0.2-1.3,0.3-2.3h-1.9c-0.5,0-0.8,0-1.1,0.1v-0.7c0.3,0,0.6,0.1,1.1,0.1h5.4c0.5,0,0.8,0,1.1-0.1v0.7    c-0.3,0-0.6-0.1-1.1-0.1h-2.9c-0.1,0.9-0.2,1.6-0.3,2.3h1.9c0.5,0,0.7,0,1.1,0c0,0.3,0,0.7,0,1.1v3H294.4z M293,62.2h-2.4    c0,0.1,0,0.1,0,0.2c-0.2,1.1-0.5,2.1-0.8,3.2h3.3V62.2z" fill="#1A1A1A" id="path_128" tag_name="svg/g_73/g_82/path_128"/>
    </g>
    <g id="g_81" tag_name="svg/g_73/g_81">
      <path d="M312.2,62.9v-0.2c0-0.3,0-0.5,0-0.7h0.7c0,0.2,0,0.4,0,0.7v0.2h2.6c0.4,0,0.7,0,1-0.1v0.7    c-0.3,0-0.6-0.1-1-0.1h-2.6v0.9h2.1c0.5,0,0.7,0,1-0.1V65c-0.3,0-0.6-0.1-1-0.1h-2.1V66h2.9c0.4,0,0.7,0,1-0.1v0.7    c-0.3,0-0.6-0.1-1-0.1h-6.5c-0.4,0-0.7,0-1,0.1v-0.7c0.3,0,0.6,0.1,1,0.1h3v-1.1h-1.8c-0.4,0-0.7,0-0.9,0v-0.6c0.2,0,0.5,0,0.9,0    h1.8v-0.9h-2.3c-0.4,0.5-0.7,0.9-1.2,1.3c-0.2-0.2-0.2-0.3-0.5-0.5c0.5-0.3,0.9-0.7,1.2-1.1c0.3-0.5,0.5-0.7,0.6-1.2l0.6,0.2    c-0.2,0.3-0.2,0.5-0.4,0.7H312.2z M310.2,61.8c-0.4,0-0.7,0-0.9,0c0-0.2,0-0.5,0-0.8v-1.6c0-0.4,0-0.6,0-0.9c0.3,0,0.6,0,0.9,0    h4.5c0.4,0,0.7,0,0.9,0c0,0.2,0,0.4,0,0.8V61c0,0.4,0,0.6,0,0.9c-0.2,0-0.5,0-0.9,0H310.2z M309.9,59.9h5.1v-0.8h-5.1V59.9z     M309.9,61.3h5.1v-0.9h-5.1V61.3z" fill="#1A1A1A" id="path_127" tag_name="svg/g_73/g_81/path_127"/>
      <path d="M320.7,59.2c0-0.4,0-0.6-0.1-0.9h0.7c0,0.2,0,0.5,0,0.9v0.2h1.8v-0.2c0-0.4,0-0.7,0-0.9h0.7    c0,0.2-0.1,0.5-0.1,0.9v0.2c0.3,0,0.6,0,0.8-0.1v0.6c-0.2,0-0.5,0-0.8,0V64c0.3,0,0.6,0,0.8,0v0.6c-0.2,0-0.5,0-0.9,0h-3    c-0.4,0-0.6,0-0.8,0v-0.6c0.2,0,0.4,0,0.8,0h0.3v-4.1h-0.1c-0.4,0-0.6,0-0.8,0v-0.6c0.2,0,0.4,0.1,0.8,0.1h0.1V59.2z M321.7,65.1    c-0.5,0.7-0.8,1.1-1.5,1.7c-0.1-0.2-0.2-0.3-0.4-0.5c0.7-0.5,1.1-0.9,1.4-1.5L321.7,65.1z M323,60.9v-1h-1.8v1H323z M323,62.4v-1    h-1.8v1H323z M323,64v-1.1h-1.8V64H323z M323.4,66.3c-0.4-0.5-0.6-0.7-1-1.1l0.4-0.4c0.4,0.4,0.5,0.5,1,1L323.4,66.3z M325.3,63.7    c-0.1,1.4-0.4,2.2-1.1,3.1c-0.2-0.3-0.2-0.3-0.5-0.4c0.6-0.7,0.8-1.2,1-2.2c0.1-0.7,0.2-2.4,0.2-4.5c0-0.6,0-0.9,0-1.1    c0.3,0,0.5,0,0.9,0h1.3c0.4,0,0.7,0,0.9,0c0,0.2,0,0.5,0,0.9v6.5c0,0.3-0.1,0.5-0.3,0.6c-0.1,0.1-0.4,0.1-0.8,0.1    c-0.2,0-0.3,0-0.8,0c0-0.3-0.1-0.4-0.2-0.7c0.5,0.1,0.8,0.1,1.1,0.1c0.2,0,0.3-0.1,0.3-0.2v-2.2H325.3z M327.3,63.2v-1.8h-1.9    c0,1,0,1.3-0.1,1.8H327.3z M327.3,60.9v-1.7h-1.9v1.3c0,0.3,0,0.3,0,0.4H327.3z" fill="#1A1A1A" id="path_126" tag_name="svg/g_73/g_81/path_126"/>
      <path d="M334.4,62c0,0.1,0,0.1-0.1,0.3c-0.6,1.8-1.4,3.3-2.5,4.4c-0.2-0.2-0.3-0.3-0.6-0.5c0.9-0.8,1.7-2,2.2-3.3    c0.2-0.5,0.3-0.9,0.4-1.2L334.4,62z M338.6,60.1c0.5,0,0.8,0,1.1-0.1v0.7c-0.1,0-0.1,0-0.2,0c-0.2,0-0.2,0-1,0h-6.2    c-0.5,0-0.8,0-1.1,0.1V60c0.3,0,0.7,0.1,1.1,0.1h3c-0.3-0.6-0.5-1-1-1.6l0.6-0.3c0.6,0.8,0.7,1.1,1.2,2H338.6z M337.2,61.8    c1.1,1.9,1.9,3.3,2.5,4.5l-0.6,0.4c-0.9-1.7-1.7-3.3-2.5-4.6L337.2,61.8z" fill="#1A1A1A" id="path_125" tag_name="svg/g_73/g_81/path_125"/>
    </g>
    <rect x="380.5" y="53.7" width="316.6" height="17" opacity="0.2" fill="#EC1C24" id="rect_36" tag_name="svg/g_73/rect_36"/>
    <rect x="380.5" y="54.1" width="45.2" height="61.8" fill="none" stroke="#E6E6E6" stroke-width="0.5" id="rect_35" tag_name="svg/g_73/rect_35"/>
    <rect x="425.8" y="54.1" width="45.2" height="61.8" fill="none" stroke="#E6E6E6" stroke-width="0.5" id="rect_34" tag_name="svg/g_73/rect_34"/>
    <rect x="471" y="54.1" width="45.2" height="61.8" fill="none" stroke="#E6E6E6" stroke-width="0.5" id="rect_33" tag_name="svg/g_73/rect_33"/>
    <rect x="516.3" y="54.1" width="45.2" height="61.8" fill="none" stroke="#E6E6E6" stroke-width="0.5" id="rect_32" tag_name="svg/g_73/rect_32"/>
    <rect x="561.5" y="54.1" width="45.2" height="61.8" fill="none" stroke="#E6E6E6" stroke-width="0.5" id="rect_31" tag_name="svg/g_73/rect_31"/>
    <rect x="606.8" y="54.1" width="45.2" height="61.8" fill="none" stroke="#E6E6E6" stroke-width="0.5" id="rect_30" tag_name="svg/g_73/rect_30"/>
    <rect x="652" y="54.1" width="45.2" height="61.8" fill="none" stroke="#E6E6E6" stroke-width="0.5" id="rect_29" tag_name="svg/g_73/rect_29"/>
    <rect x="380.5" y="116.1" width="45.2" height="45.2" fill="none" stroke="#E6E6E6" stroke-width="0.5" id="rect_28" tag_name="svg/g_73/rect_28"/>
    <rect x="425.8" y="116.1" width="45.2" height="45.2" fill="none" stroke="#E6E6E6" stroke-width="0.5" id="rect_27" tag_name="svg/g_73/rect_27"/>
    <rect x="471" y="116.1" width="45.2" height="45.2" fill="none" stroke="#E6E6E6" stroke-width="0.5" id="rect_26" tag_name="svg/g_73/rect_26"/>
    <rect x="516.3" y="116.1" width="45.2" height="45.2" fill="none" stroke="#E6E6E6" stroke-width="0.5" id="rect_25" tag_name="svg/g_73/rect_25"/>
    <rect x="561.5" y="116.1" width="45.2" height="45.2" fill="none" stroke="#E6E6E6" stroke-width="0.5" id="rect_24" tag_name="svg/g_73/rect_24"/>
    <rect x="606.8" y="116.1" width="45.2" height="45.2" fill="none" stroke="#E6E6E6" stroke-width="0.5" id="rect_23" tag_name="svg/g_73/rect_23"/>
    <rect x="652" y="116.1" width="45.2" height="45.2" fill="none" stroke="#E6E6E6" stroke-width="0.5" id="rect_22" tag_name="svg/g_73/rect_22"/>
    <rect x="380.5" y="161.5" width="45.2" height="45.2" fill="none" stroke="#E6E6E6" stroke-width="0.5" id="rect_21" tag_name="svg/g_73/rect_21"/>
    <rect x="425.8" y="161.5" width="45.2" height="45.2" fill="none" stroke="#E6E6E6" stroke-width="0.5" id="rect_20" tag_name="svg/g_73/rect_20"/>
    <rect x="471" y="161.5" width="45.2" height="45.2" fill="none" stroke="#E6E6E6" stroke-width="0.5" id="rect_19" tag_name="svg/g_73/rect_19"/>
    <rect x="516.3" y="161.5" width="45.2" height="45.2" fill="none" stroke="#E6E6E6" stroke-width="0.5" id="rect_18" tag_name="svg/g_73/rect_18"/>
    <rect x="561.5" y="161.5" width="45.2" height="45.2" fill="none" stroke="#E6E6E6" stroke-width="0.5" id="rect_17" tag_name="svg/g_73/rect_17"/>
    <rect x="606.8" y="161.5" width="45.2" height="45.2" fill="none" stroke="#E6E6E6" stroke-width="0.5" id="rect_16" tag_name="svg/g_73/rect_16"/>
    <rect x="652" y="161.5" width="45.2" height="45.2" fill="none" stroke="#E6E6E6" stroke-width="0.5" id="rect_15" tag_name="svg/g_73/rect_15"/>
    <rect x="380.5" y="207" width="45.2" height="45.2" fill="none" stroke="#E6E6E6" stroke-width="0.5" id="rect_14" tag_name="svg/g_73/rect_14"/>
    <rect x="425.8" y="207" width="45.2" height="45.2" fill="none" stroke="#E6E6E6" stroke-width="0.5" id="rect_13" tag_name="svg/g_73/rect_13"/>
    <rect x="471" y="207" width="45.2" height="45.2" fill="none" stroke="#E6E6E6" stroke-width="0.5" id="rect_12" tag_name="svg/g_73/rect_12"/>
    <rect x="516.3" y="207" width="45.2" height="45.2" fill="none" stroke="#E6E6E6" stroke-width="0.5" id="rect_11" tag_name="svg/g_73/rect_11"/>
    <rect x="561.5" y="207" width="45.2" height="45.2" fill="none" stroke="#E6E6E6" stroke-width="0.5" id="rect_10" tag_name="svg/g_73/rect_10"/>
    <rect x="606.8" y="207" width="45.2" height="45.2" fill="none" stroke="#E6E6E6" stroke-width="0.5" id="rect_9" tag_name="svg/g_73/rect_9"/>
    <rect x="652" y="207" width="45.2" height="45.2" fill="none" stroke="#E6E6E6" stroke-width="0.5" id="rect_8" tag_name="svg/g_73/rect_8"/>
    <rect x="380.5" y="252.4" width="45.2" height="45.2" fill="none" stroke="#E6E6E6" stroke-width="0.5" id="rect_7" tag_name="svg/g_73/rect_7"/>
    <rect x="425.8" y="252.4" width="45.2" height="45.2" fill="none" stroke="#E6E6E6" stroke-width="0.5" id="rect_6" tag_name="svg/g_73/rect_6"/>
    <rect x="471" y="252.4" width="45.2" height="45.2" fill="none" stroke="#E6E6E6" stroke-width="0.5" id="rect_5" tag_name="svg/g_73/rect_5"/>
    <rect x="516.3" y="252.4" width="45.2" height="45.2" fill="none" stroke="#E6E6E6" stroke-width="0.5" id="rect_4" tag_name="svg/g_73/rect_4"/>
    <rect x="561.5" y="252.4" width="45.2" height="45.2" fill="none" stroke="#E6E6E6" stroke-width="0.5" id="rect_3" tag_name="svg/g_73/rect_3"/>
    <rect x="606.8" y="252.4" width="45.2" height="45.2" fill="none" stroke="#E6E6E6" stroke-width="0.5" id="rect_2" tag_name="svg/g_73/rect_2"/>
    <rect x="652" y="252.4" width="45.2" height="45.2" fill="none" stroke="#E6E6E6" stroke-width="0.5" id="rect_1" tag_name="svg/g_73/rect_1"/>
    <rect x="380.2" y="22.3" width="317.3" height="31.5" fill="#EC3940" id="rect" tag_name="svg/g_73/rect"/>
    <g id="g_80" tag_name="svg/g_73/g_80">
      <path d="M391.4,62.9v-0.2c0-0.3,0-0.5,0-0.7h0.7c0,0.2,0,0.4,0,0.7v0.2h2.6c0.4,0,0.7,0,1-0.1v0.7    c-0.3,0-0.6-0.1-1-0.1H392v0.9h2.1c0.5,0,0.7,0,1-0.1V65c-0.3,0-0.6-0.1-1-0.1H392V66h2.9c0.4,0,0.7,0,1-0.1v0.7    c-0.3,0-0.6-0.1-1-0.1h-6.5c-0.4,0-0.7,0-1,0.1v-0.7c0.3,0,0.6,0.1,1,0.1h3v-1.1h-1.8c-0.4,0-0.7,0-0.9,0v-0.6c0.2,0,0.5,0,0.9,0    h1.8v-0.9h-2.3c-0.4,0.5-0.7,0.9-1.2,1.3c-0.2-0.2-0.2-0.3-0.5-0.5c0.5-0.3,0.9-0.7,1.2-1.1c0.3-0.5,0.5-0.7,0.6-1.2l0.6,0.2    c-0.2,0.3-0.2,0.5-0.4,0.7H391.4z M389.4,61.8c-0.4,0-0.7,0-0.9,0c0-0.2,0-0.5,0-0.8v-1.6c0-0.4,0-0.6,0-0.9c0.3,0,0.6,0,0.9,0    h4.5c0.4,0,0.7,0,0.9,0c0,0.2,0,0.4,0,0.8V61c0,0.4,0,0.6,0,0.9c-0.2,0-0.5,0-0.9,0H389.4z M389.1,59.9h5.1v-0.8h-5.1V59.9z     M389.1,61.3h5.1v-0.9h-5.1V61.3z" fill="#1A1A1A" id="path_124" tag_name="svg/g_73/g_80/path_124"/>
      <path d="M399.9,59.2c0-0.4,0-0.6-0.1-0.9h0.7c0,0.2,0,0.5,0,0.9v0.2h1.8v-0.2c0-0.4,0-0.7,0-0.9h0.7    c0,0.2-0.1,0.5-0.1,0.9v0.2c0.3,0,0.6,0,0.8-0.1v0.6c-0.2,0-0.5,0-0.8,0V64c0.3,0,0.6,0,0.8,0v0.6c-0.2,0-0.5,0-0.9,0h-3    c-0.4,0-0.6,0-0.8,0v-0.6c0.2,0,0.4,0,0.8,0h0.3v-4.1h-0.1c-0.4,0-0.6,0-0.8,0v-0.6c0.2,0,0.4,0.1,0.8,0.1h0.1V59.2z M400.9,65.1    c-0.5,0.7-0.8,1.1-1.5,1.7c-0.1-0.2-0.2-0.3-0.4-0.5c0.7-0.5,1.1-0.9,1.4-1.5L400.9,65.1z M402.2,60.9v-1h-1.8v1H402.2z     M402.2,62.4v-1h-1.8v1H402.2z M402.2,64v-1.1h-1.8V64H402.2z M402.6,66.3c-0.4-0.5-0.6-0.7-1-1.1l0.4-0.4c0.4,0.4,0.5,0.5,1,1    L402.6,66.3z M404.5,63.7c-0.1,1.4-0.4,2.2-1.1,3.1c-0.2-0.3-0.2-0.3-0.5-0.4c0.6-0.7,0.8-1.2,1-2.2c0.1-0.7,0.2-2.4,0.2-4.5    c0-0.6,0-0.9,0-1.1c0.3,0,0.5,0,0.9,0h1.3c0.4,0,0.7,0,0.9,0c0,0.2,0,0.5,0,0.9v6.5c0,0.3-0.1,0.5-0.3,0.6    c-0.1,0.1-0.4,0.1-0.8,0.1c-0.2,0-0.3,0-0.8,0c0-0.3-0.1-0.4-0.2-0.7c0.5,0.1,0.8,0.1,1.1,0.1c0.2,0,0.3-0.1,0.3-0.2v-2.2H404.5z     M406.6,63.2v-1.8h-1.9c0,1,0,1.3-0.1,1.8H406.6z M406.6,60.9v-1.7h-1.9v1.3c0,0.3,0,0.3,0,0.4H406.6z" fill="#1A1A1A" id="path_123" tag_name="svg/g_73/g_80/path_123"/>
      <path d="M414.2,61.5c0.1-0.7,0.1-0.8,0.1-2.1h-2.4c-0.4,0-0.7,0-1,0.1v-0.7c0.3,0,0.6,0.1,1,0.1h5.7    c0.4,0,0.7,0,1-0.1v0.7c-0.3,0-0.6-0.1-1-0.1H415c0,1.1,0,1.3-0.1,2.1h3.1c0.5,0,0.8,0,1.1-0.1v0.7c-0.3,0-0.6-0.1-1.1-0.1h-2.8    c0.2,0.7,0.5,1.2,0.9,1.7c0.7,1,1.8,1.7,3.2,2.2c-0.2,0.2-0.3,0.4-0.4,0.6c-1.2-0.5-2.1-1.2-2.8-2c-0.5-0.6-0.9-1.3-1.2-2.2    c-0.3,1.1-0.8,1.9-1.5,2.6c-0.6,0.6-1.3,1-2.4,1.5c-0.1-0.3-0.2-0.4-0.4-0.6c1.2-0.4,2.2-1.1,2.8-1.9c0.5-0.6,0.7-1.2,0.9-2.1    h-2.5c-0.5,0-0.8,0-1.1,0.1v-0.7c0.2,0,0.6,0.1,1.1,0.1H414.2z" fill="#1A1A1A" id="path_122" tag_name="svg/g_73/g_80/path_122"/>
    </g>
    <g id="g_79" tag_name="svg/g_73/g_79">
      <path d="M437,62.9v-0.2c0-0.3,0-0.5,0-0.7h0.7c0,0.2,0,0.4,0,0.7v0.2h2.6c0.4,0,0.7,0,1-0.1v0.7c-0.3,0-0.6-0.1-1-0.1    h-2.6v0.9h2.1c0.5,0,0.7,0,1-0.1V65c-0.3,0-0.6-0.1-1-0.1h-2.1V66h2.9c0.4,0,0.7,0,1-0.1v0.7c-0.3,0-0.6-0.1-1-0.1H434    c-0.4,0-0.7,0-1,0.1v-0.7c0.3,0,0.6,0.1,1,0.1h3v-1.1h-1.8c-0.4,0-0.7,0-0.9,0v-0.6c0.2,0,0.5,0,0.9,0h1.8v-0.9h-2.3    c-0.4,0.5-0.7,0.9-1.2,1.3c-0.2-0.2-0.2-0.3-0.5-0.5c0.5-0.3,0.9-0.7,1.2-1.1c0.3-0.5,0.5-0.7,0.6-1.2l0.6,0.2    c-0.2,0.3-0.2,0.5-0.4,0.7H437z M435,61.8c-0.4,0-0.7,0-0.9,0c0-0.2,0-0.5,0-0.8v-1.6c0-0.4,0-0.6,0-0.9c0.3,0,0.6,0,0.9,0h4.5    c0.4,0,0.7,0,0.9,0c0,0.2,0,0.4,0,0.8V61c0,0.4,0,0.6,0,0.9c-0.2,0-0.5,0-0.9,0H435z M434.7,59.9h5.1v-0.8h-5.1V59.9z M434.7,61.3    h5.1v-0.9h-5.1V61.3z" fill="#1A1A1A" id="path_121" tag_name="svg/g_73/g_79/path_121"/>
      <path d="M445.5,59.2c0-0.4,0-0.6-0.1-0.9h0.7c0,0.2,0,0.5,0,0.9v0.2h1.8v-0.2c0-0.4,0-0.7,0-0.9h0.7    c0,0.2-0.1,0.5-0.1,0.9v0.2c0.3,0,0.6,0,0.8-0.1v0.6c-0.2,0-0.5,0-0.8,0V64c0.3,0,0.6,0,0.8,0v0.6c-0.2,0-0.5,0-0.9,0h-3    c-0.4,0-0.6,0-0.8,0v-0.6c0.2,0,0.4,0,0.8,0h0.3v-4.1h-0.1c-0.4,0-0.6,0-0.8,0v-0.6c0.2,0,0.4,0.1,0.8,0.1h0.1V59.2z M446.5,65.1    c-0.5,0.7-0.8,1.1-1.5,1.7c-0.1-0.2-0.2-0.3-0.4-0.5c0.7-0.5,1.1-0.9,1.4-1.5L446.5,65.1z M447.8,60.9v-1H446v1H447.8z     M447.8,62.4v-1H446v1H447.8z M447.8,64v-1.1H446V64H447.8z M448.2,66.3c-0.4-0.5-0.6-0.7-1-1.1l0.4-0.4c0.4,0.4,0.5,0.5,1,1    L448.2,66.3z M450.1,63.7c-0.1,1.4-0.4,2.2-1.1,3.1c-0.2-0.3-0.2-0.3-0.5-0.4c0.6-0.7,0.8-1.2,1-2.2c0.1-0.7,0.2-2.4,0.2-4.5    c0-0.6,0-0.9,0-1.1c0.3,0,0.5,0,0.9,0h1.3c0.4,0,0.7,0,0.9,0c0,0.2,0,0.5,0,0.9v6.5c0,0.3-0.1,0.5-0.3,0.6    c-0.1,0.1-0.4,0.1-0.8,0.1c-0.2,0-0.3,0-0.8,0c0-0.3-0.1-0.4-0.2-0.7c0.5,0.1,0.8,0.1,1.1,0.1c0.2,0,0.3-0.1,0.3-0.2v-2.2H450.1z     M452.1,63.2v-1.8h-1.9c0,1,0,1.3-0.1,1.8H452.1z M452.1,60.9v-1.7h-1.9v1.3c0,0.3,0,0.3,0,0.4H452.1z" fill="#1A1A1A" id="path_120" tag_name="svg/g_73/g_79/path_120"/>
      <path d="M464.6,62.8c-0.3,0-0.7-0.1-1.3-0.1h-5.9c-0.5,0-1,0-1.3,0.1V62c0.3,0,0.7,0.1,1.3,0.1h5.9c0.6,0,1,0,1.3-0.1    V62.8z" fill="#1A1A1A" id="path_119" tag_name="svg/g_73/g_79/path_119"/>
    </g>
    <g id="g_78" tag_name="svg/g_73/g_78">
      <path d="M481.6,62.9v-0.2c0-0.3,0-0.5,0-0.7h0.7c0,0.2,0,0.4,0,0.7v0.2h2.6c0.4,0,0.7,0,1-0.1v0.7    c-0.3,0-0.6-0.1-1-0.1h-2.6v0.9h2.1c0.5,0,0.7,0,1-0.1V65c-0.3,0-0.6-0.1-1-0.1h-2.1V66h2.9c0.4,0,0.7,0,1-0.1v0.7    c-0.3,0-0.6-0.1-1-0.1h-6.5c-0.4,0-0.7,0-1,0.1v-0.7c0.3,0,0.6,0.1,1,0.1h3v-1.1h-1.8c-0.4,0-0.7,0-0.9,0v-0.6c0.2,0,0.5,0,0.9,0    h1.8v-0.9h-2.3c-0.4,0.5-0.7,0.9-1.2,1.3c-0.2-0.2-0.2-0.3-0.5-0.5c0.5-0.3,0.9-0.7,1.2-1.1c0.3-0.5,0.5-0.7,0.6-1.2l0.6,0.2    c-0.2,0.3-0.2,0.5-0.4,0.7H481.6z M479.6,61.8c-0.4,0-0.7,0-0.9,0c0-0.2,0-0.5,0-0.8v-1.6c0-0.4,0-0.6,0-0.9c0.3,0,0.6,0,0.9,0    h4.5c0.4,0,0.7,0,0.9,0c0,0.2,0,0.4,0,0.8V61c0,0.4,0,0.6,0,0.9c-0.2,0-0.5,0-0.9,0H479.6z M479.3,59.9h5.1v-0.8h-5.1V59.9z     M479.3,61.3h5.1v-0.9h-5.1V61.3z" fill="#1A1A1A" id="path_118" tag_name="svg/g_73/g_78/path_118"/>
      <path d="M490.1,59.2c0-0.4,0-0.6-0.1-0.9h0.7c0,0.2,0,0.5,0,0.9v0.2h1.8v-0.2c0-0.4,0-0.7,0-0.9h0.7    c0,0.2-0.1,0.5-0.1,0.9v0.2c0.3,0,0.6,0,0.8-0.1v0.6c-0.2,0-0.5,0-0.8,0V64c0.3,0,0.6,0,0.8,0v0.6c-0.2,0-0.5,0-0.9,0h-3    c-0.4,0-0.6,0-0.8,0v-0.6c0.2,0,0.4,0,0.8,0h0.3v-4.1H490c-0.4,0-0.6,0-0.8,0v-0.6c0.2,0,0.4,0.1,0.8,0.1h0.1V59.2z M491.1,65.1    c-0.5,0.7-0.8,1.1-1.5,1.7c-0.1-0.2-0.2-0.3-0.4-0.5c0.7-0.5,1.1-0.9,1.4-1.5L491.1,65.1z M492.4,60.9v-1h-1.8v1H492.4z     M492.4,62.4v-1h-1.8v1H492.4z M492.4,64v-1.1h-1.8V64H492.4z M492.8,66.3c-0.4-0.5-0.6-0.7-1-1.1l0.4-0.4c0.4,0.4,0.5,0.5,1,1    L492.8,66.3z M494.7,63.7c-0.1,1.4-0.4,2.2-1.1,3.1c-0.2-0.3-0.2-0.3-0.5-0.4c0.6-0.7,0.8-1.2,1-2.2c0.1-0.7,0.2-2.4,0.2-4.5    c0-0.6,0-0.9,0-1.1c0.3,0,0.5,0,0.9,0h1.3c0.4,0,0.7,0,0.9,0c0,0.2,0,0.5,0,0.9v6.5c0,0.3-0.1,0.5-0.3,0.6    c-0.1,0.1-0.4,0.1-0.8,0.1c-0.2,0-0.3,0-0.8,0c0-0.3-0.1-0.4-0.2-0.7c0.5,0.1,0.8,0.1,1.1,0.1c0.2,0,0.3-0.1,0.3-0.2v-2.2H494.7z     M496.8,63.2v-1.8h-1.9c0,1,0,1.3-0.1,1.8H496.8z M496.8,60.9v-1.7h-1.9v1.3c0,0.3,0,0.3,0,0.4H496.8z" fill="#1A1A1A" id="path_117" tag_name="svg/g_73/g_78/path_117"/>
      <path d="M509.1,65.7c-0.3,0-0.7-0.1-1.3-0.1h-5.7c-0.6,0-0.9,0-1.3,0.1v-0.8c0.3,0,0.6,0.1,1.3,0.1h5.7    c0.6,0,0.9,0,1.3-0.1V65.7z M501.7,59.3c0.3,0,0.7,0.1,1.2,0.1h4c0.6,0,0.9,0,1.3-0.1v0.8c-0.4,0-0.6-0.1-1.3-0.1h-4    c-0.6,0-0.9,0-1.2,0.1V59.3z" fill="#1A1A1A" id="path_116" tag_name="svg/g_73/g_78/path_116"/>
    </g>
    <g id="g_77" tag_name="svg/g_73/g_77">
      <path d="M526.3,62.9v-0.2c0-0.3,0-0.5,0-0.7h0.7c0,0.2,0,0.4,0,0.7v0.2h2.6c0.4,0,0.7,0,1-0.1v0.7    c-0.3,0-0.6-0.1-1-0.1h-2.6v0.9h2.1c0.5,0,0.7,0,1-0.1V65c-0.3,0-0.6-0.1-1-0.1h-2.1V66h2.9c0.4,0,0.7,0,1-0.1v0.7    c-0.3,0-0.6-0.1-1-0.1h-6.5c-0.4,0-0.7,0-1,0.1v-0.7c0.3,0,0.6,0.1,1,0.1h3v-1.1h-1.8c-0.4,0-0.7,0-0.9,0v-0.6c0.2,0,0.5,0,0.9,0    h1.8v-0.9H524c-0.4,0.5-0.7,0.9-1.2,1.3c-0.2-0.2-0.2-0.3-0.5-0.5c0.5-0.3,0.9-0.7,1.2-1.1c0.3-0.5,0.5-0.7,0.6-1.2l0.6,0.2    c-0.2,0.3-0.2,0.5-0.4,0.7H526.3z M524.4,61.8c-0.4,0-0.7,0-0.9,0c0-0.2,0-0.5,0-0.8v-1.6c0-0.4,0-0.6,0-0.9c0.3,0,0.6,0,0.9,0    h4.5c0.4,0,0.7,0,0.9,0c0,0.2,0,0.4,0,0.8V61c0,0.4,0,0.6,0,0.9c-0.2,0-0.5,0-0.9,0H524.4z M524,59.9h5.1v-0.8H524V59.9z     M524,61.3h5.1v-0.9H524V61.3z" fill="#1A1A1A" id="path_115" tag_name="svg/g_73/g_77/path_115"/>
      <path d="M534.8,59.2c0-0.4,0-0.6-0.1-0.9h0.7c0,0.2,0,0.5,0,0.9v0.2h1.8v-0.2c0-0.4,0-0.7,0-0.9h0.7    c0,0.2-0.1,0.5-0.1,0.9v0.2c0.3,0,0.6,0,0.8-0.1v0.6c-0.2,0-0.5,0-0.8,0V64c0.3,0,0.6,0,0.8,0v0.6c-0.2,0-0.5,0-0.9,0h-3    c-0.4,0-0.6,0-0.8,0v-0.6c0.2,0,0.4,0,0.8,0h0.3v-4.1h-0.1c-0.4,0-0.6,0-0.8,0v-0.6c0.2,0,0.4,0.1,0.8,0.1h0.1V59.2z M535.8,65.1    c-0.5,0.7-0.8,1.1-1.5,1.7c-0.1-0.2-0.2-0.3-0.4-0.5c0.7-0.5,1.1-0.9,1.4-1.5L535.8,65.1z M537.1,60.9v-1h-1.8v1H537.1z     M537.1,62.4v-1h-1.8v1H537.1z M537.1,64v-1.1h-1.8V64H537.1z M537.5,66.3c-0.4-0.5-0.6-0.7-1-1.1l0.4-0.4c0.4,0.4,0.5,0.5,1,1    L537.5,66.3z M539.5,63.7c-0.1,1.4-0.4,2.2-1.1,3.1c-0.2-0.3-0.2-0.3-0.5-0.4c0.6-0.7,0.8-1.2,1-2.2c0.1-0.7,0.2-2.4,0.2-4.5    c0-0.6,0-0.9,0-1.1c0.3,0,0.5,0,0.9,0h1.3c0.4,0,0.7,0,0.9,0c0,0.2,0,0.5,0,0.9v6.5c0,0.3-0.1,0.5-0.3,0.6    c-0.1,0.1-0.4,0.1-0.8,0.1c-0.2,0-0.3,0-0.8,0c0-0.3-0.1-0.4-0.2-0.7c0.5,0.1,0.8,0.1,1.1,0.1c0.2,0,0.3-0.1,0.3-0.2v-2.2H539.5z     M541.5,63.2v-1.8h-1.9c0,1,0,1.3-0.1,1.8H541.5z M541.5,60.9v-1.7h-1.9v1.3c0,0.3,0,0.3,0,0.4H541.5z" fill="#1A1A1A" id="path_114" tag_name="svg/g_73/g_77/path_114"/>
      <path d="M553.8,66.2c-0.3,0-0.6-0.1-1.1-0.1h-6c-0.5,0-0.8,0-1.2,0.1v-0.8c0.3,0,0.6,0.1,1.2,0.1h6    c0.5,0,0.8,0,1.1-0.1V66.2z M546.3,58.8c0.3,0,0.6,0.1,1.1,0.1h4.6c0.5,0,0.8,0,1.2-0.1v0.8c-0.3,0-0.6-0.1-1.2-0.1h-4.6    c-0.5,0-0.8,0-1.1,0.1V58.8z M546.8,62c0.2,0,0.5,0.1,1,0.1h3.7c0.5,0,0.7,0,1-0.1v0.7c-0.3,0-0.5,0-1,0h-3.7c-0.5,0-0.7,0-1,0V62    z" fill="#1A1A1A" id="path_113" tag_name="svg/g_73/g_77/path_113"/>
    </g>
    <g id="g_76" tag_name="svg/g_73/g_76">
      <path d="M572.4,62.9v-0.2c0-0.3,0-0.5,0-0.7h0.7c0,0.2,0,0.4,0,0.7v0.2h2.6c0.4,0,0.7,0,1-0.1v0.7    c-0.3,0-0.6-0.1-1-0.1H573v0.9h2.1c0.5,0,0.7,0,1-0.1V65c-0.3,0-0.6-0.1-1-0.1H573V66h2.9c0.4,0,0.7,0,1-0.1v0.7    c-0.3,0-0.6-0.1-1-0.1h-6.5c-0.4,0-0.7,0-1,0.1v-0.7c0.3,0,0.6,0.1,1,0.1h3v-1.1h-1.8c-0.4,0-0.7,0-0.9,0v-0.6c0.2,0,0.5,0,0.9,0    h1.8v-0.9h-2.3c-0.4,0.5-0.7,0.9-1.2,1.3c-0.2-0.2-0.2-0.3-0.5-0.5c0.5-0.3,0.9-0.7,1.2-1.1c0.3-0.5,0.5-0.7,0.6-1.2l0.6,0.2    c-0.2,0.3-0.2,0.5-0.4,0.7H572.4z M570.4,61.8c-0.4,0-0.7,0-0.9,0c0-0.2,0-0.5,0-0.8v-1.6c0-0.4,0-0.6,0-0.9c0.3,0,0.6,0,0.9,0    h4.5c0.4,0,0.7,0,0.9,0c0,0.2,0,0.4,0,0.8V61c0,0.4,0,0.6,0,0.9c-0.2,0-0.5,0-0.9,0H570.4z M570.1,59.9h5.1v-0.8h-5.1V59.9z     M570.1,61.3h5.1v-0.9h-5.1V61.3z" fill="#1A1A1A" id="path_112" tag_name="svg/g_73/g_76/path_112"/>
      <path d="M580.9,59.2c0-0.4,0-0.6-0.1-0.9h0.7c0,0.2,0,0.5,0,0.9v0.2h1.8v-0.2c0-0.4,0-0.7,0-0.9h0.7    c0,0.2-0.1,0.5-0.1,0.9v0.2c0.3,0,0.6,0,0.8-0.1v0.6c-0.2,0-0.5,0-0.8,0V64c0.3,0,0.6,0,0.8,0v0.6c-0.2,0-0.5,0-0.9,0h-3    c-0.4,0-0.6,0-0.8,0v-0.6c0.2,0,0.4,0,0.8,0h0.3v-4.1h-0.1c-0.4,0-0.6,0-0.8,0v-0.6c0.2,0,0.4,0.1,0.8,0.1h0.1V59.2z M581.9,65.1    c-0.5,0.7-0.8,1.1-1.5,1.7c-0.1-0.2-0.2-0.3-0.4-0.5c0.7-0.5,1.1-0.9,1.4-1.5L581.9,65.1z M583.2,60.9v-1h-1.8v1H583.2z     M583.2,62.4v-1h-1.8v1H583.2z M583.2,64v-1.1h-1.8V64H583.2z M583.6,66.3c-0.4-0.5-0.6-0.7-1-1.1l0.4-0.4c0.4,0.4,0.5,0.5,1,1    L583.6,66.3z M585.5,63.7c-0.1,1.4-0.4,2.2-1.1,3.1c-0.2-0.3-0.2-0.3-0.5-0.4c0.6-0.7,0.8-1.2,1-2.2c0.1-0.7,0.2-2.4,0.2-4.5    c0-0.6,0-0.9,0-1.1c0.3,0,0.5,0,0.9,0h1.3c0.4,0,0.7,0,0.9,0c0,0.2,0,0.5,0,0.9v6.5c0,0.3-0.1,0.5-0.3,0.6    c-0.1,0.1-0.4,0.1-0.8,0.1c-0.2,0-0.3,0-0.8,0c0-0.3-0.1-0.4-0.2-0.7c0.5,0.1,0.8,0.1,1.1,0.1c0.2,0,0.3-0.1,0.3-0.2v-2.2H585.5z     M587.5,63.2v-1.8h-1.9c0,1,0,1.3-0.1,1.8H587.5z M587.5,60.9v-1.7h-1.9v1.3c0,0.3,0,0.3,0,0.4H587.5z" fill="#1A1A1A" id="path_111" tag_name="svg/g_73/g_76/path_111"/>
      <path d="M591.8,60c0-0.5,0-0.8-0.1-1.2c0.3,0,0.6,0,1.1,0h5.8c0.5,0,0.8,0,1.1,0c0,0.4-0.1,0.7-0.1,1.2v5.3    c0,0.6,0,0.8,0.1,1.1h-0.7v-0.6h-6.7v0.6h-0.7c0-0.3,0.1-0.5,0.1-1.1V60z M595,59.5c0,1.4-0.2,2.3-0.5,3c-0.3,0.6-0.8,1.2-1.5,1.7    c-0.1-0.2-0.2-0.3-0.4-0.5c0.8-0.5,1.2-0.9,1.4-1.6c0.3-0.6,0.4-1.3,0.4-2.6h-1.9v5.8h6.7v-5.8h-2.2v3.3c0,0.2,0,0.3,0.5,0.3    c0.4,0,0.7,0,1.4-0.1v0.6c-0.4,0-0.8,0.1-1.3,0.1c-1,0-1.1-0.1-1.1-0.7v-3.4H595z" fill="#1A1A1A" id="path_110" tag_name="svg/g_73/g_76/path_110"/>
    </g>
    <g id="g_75" tag_name="svg/g_73/g_75">
      <path d="M617.6,62.9v-0.2c0-0.3,0-0.5,0-0.7h0.7c0,0.2,0,0.4,0,0.7v0.2h2.6c0.4,0,0.7,0,1-0.1v0.7    c-0.3,0-0.6-0.1-1-0.1h-2.6v0.9h2.1c0.5,0,0.7,0,1-0.1V65c-0.3,0-0.6-0.1-1-0.1h-2.1V66h2.9c0.4,0,0.7,0,1-0.1v0.7    c-0.3,0-0.6-0.1-1-0.1h-6.5c-0.4,0-0.7,0-1,0.1v-0.7c0.3,0,0.6,0.1,1,0.1h3v-1.1h-1.8c-0.4,0-0.7,0-0.9,0v-0.6c0.2,0,0.5,0,0.9,0    h1.8v-0.9h-2.3c-0.4,0.5-0.7,0.9-1.2,1.3c-0.2-0.2-0.2-0.3-0.5-0.5c0.5-0.3,0.9-0.7,1.2-1.1c0.3-0.5,0.5-0.7,0.6-1.2l0.6,0.2    c-0.2,0.3-0.2,0.5-0.4,0.7H617.6z M615.6,61.8c-0.4,0-0.7,0-0.9,0c0-0.2,0-0.5,0-0.8v-1.6c0-0.4,0-0.6,0-0.9c0.3,0,0.6,0,0.9,0    h4.5c0.4,0,0.7,0,0.9,0c0,0.2,0,0.4,0,0.8V61c0,0.4,0,0.6,0,0.9c-0.2,0-0.5,0-0.9,0H615.6z M615.3,59.9h5.1v-0.8h-5.1V59.9z     M615.3,61.3h5.1v-0.9h-5.1V61.3z" fill="#1A1A1A" id="path_109" tag_name="svg/g_73/g_75/path_109"/>
      <path d="M626,59.2c0-0.4,0-0.6-0.1-0.9h0.7c0,0.2,0,0.5,0,0.9v0.2h1.8v-0.2c0-0.4,0-0.7,0-0.9h0.7    c0,0.2-0.1,0.5-0.1,0.9v0.2c0.3,0,0.6,0,0.8-0.1v0.6c-0.2,0-0.5,0-0.8,0V64c0.3,0,0.6,0,0.8,0v0.6c-0.2,0-0.5,0-0.9,0h-3    c-0.4,0-0.6,0-0.8,0v-0.6c0.2,0,0.4,0,0.8,0h0.3v-4.1H626c-0.4,0-0.6,0-0.8,0v-0.6c0.2,0,0.4,0.1,0.8,0.1h0.1V59.2z M627,65.1    c-0.5,0.7-0.8,1.1-1.5,1.7c-0.1-0.2-0.2-0.3-0.4-0.5c0.7-0.5,1.1-0.9,1.4-1.5L627,65.1z M628.4,60.9v-1h-1.8v1H628.4z M628.4,62.4    v-1h-1.8v1H628.4z M628.4,64v-1.1h-1.8V64H628.4z M628.7,66.3c-0.4-0.5-0.6-0.7-1-1.1l0.4-0.4c0.4,0.4,0.5,0.5,1,1L628.7,66.3z     M630.7,63.7c-0.1,1.4-0.4,2.2-1.1,3.1c-0.2-0.3-0.2-0.3-0.5-0.4c0.6-0.7,0.8-1.2,1-2.2c0.1-0.7,0.2-2.4,0.2-4.5    c0-0.6,0-0.9,0-1.1c0.3,0,0.5,0,0.9,0h1.3c0.4,0,0.7,0,0.9,0c0,0.2,0,0.5,0,0.9v6.5c0,0.3-0.1,0.5-0.3,0.6    c-0.1,0.1-0.4,0.1-0.8,0.1c-0.2,0-0.3,0-0.8,0c0-0.3-0.1-0.4-0.2-0.7c0.5,0.1,0.8,0.1,1.1,0.1c0.2,0,0.3-0.1,0.3-0.2v-2.2H630.7z     M632.7,63.2v-1.8h-1.9c0,1,0,1.3-0.1,1.8H632.7z M632.7,60.9v-1.7h-1.9v1.3c0,0.3,0,0.3,0,0.4H632.7z" fill="#1A1A1A" id="path_108" tag_name="svg/g_73/g_75/path_108"/>
      <path d="M644.1,65.7c0.5,0,0.8,0,1.1-0.1v0.7c-0.3,0-0.6-0.1-1.1-0.1h-6.4c-0.5,0-0.8,0-1.1,0.1v-0.7    c0.3,0,0.6,0.1,1.1,0.1h1.1c0.4-1.3,0.7-2.2,0.9-3.5h-1.1c-0.4,0-0.7,0-1,0.1v-0.7c0.2,0,0.5,0.1,1,0.1h1.2    c0.2-0.9,0.2-1.3,0.3-2.3h-1.9c-0.5,0-0.8,0-1.1,0.1v-0.7c0.3,0,0.6,0.1,1.1,0.1h5.4c0.5,0,0.8,0,1.1-0.1v0.7    c-0.3,0-0.6-0.1-1.1-0.1h-2.9c-0.1,0.9-0.2,1.6-0.3,2.3h1.9c0.5,0,0.8,0,1.1,0c0,0.3,0,0.7,0,1.1v3H644.1z M642.8,62.2h-2.4    c0,0.1,0,0.1,0,0.2c-0.2,1.1-0.5,2.1-0.8,3.2h3.3V62.2z" fill="#1A1A1A" id="path_107" tag_name="svg/g_73/g_75/path_107"/>
    </g>
    <g id="g_74" tag_name="svg/g_73/g_74">
      <path d="M661.9,62.9v-0.2c0-0.3,0-0.5,0-0.7h0.7c0,0.2,0,0.4,0,0.7v0.2h2.6c0.4,0,0.7,0,1-0.1v0.7    c-0.3,0-0.6-0.1-1-0.1h-2.6v0.9h2.1c0.5,0,0.7,0,1-0.1V65c-0.3,0-0.6-0.1-1-0.1h-2.1V66h2.9c0.4,0,0.7,0,1-0.1v0.7    c-0.3,0-0.6-0.1-1-0.1h-6.5c-0.4,0-0.7,0-1,0.1v-0.7c0.3,0,0.6,0.1,1,0.1h3v-1.1h-1.8c-0.4,0-0.7,0-0.9,0v-0.6c0.2,0,0.5,0,0.9,0    h1.8v-0.9h-2.3c-0.4,0.5-0.7,0.9-1.2,1.3c-0.2-0.2-0.2-0.3-0.5-0.5c0.5-0.3,0.9-0.7,1.2-1.1c0.3-0.5,0.5-0.7,0.6-1.2l0.6,0.2    c-0.2,0.3-0.2,0.5-0.4,0.7H661.9z M660,61.8c-0.4,0-0.7,0-0.9,0c0-0.2,0-0.5,0-0.8v-1.6c0-0.4,0-0.6,0-0.9c0.3,0,0.6,0,0.9,0h4.5    c0.4,0,0.7,0,0.9,0c0,0.2,0,0.4,0,0.8V61c0,0.4,0,0.6,0,0.9c-0.2,0-0.5,0-0.9,0H660z M659.6,59.9h5.1v-0.8h-5.1V59.9z M659.6,61.3    h5.1v-0.9h-5.1V61.3z" fill="#1A1A1A" id="path_106" tag_name="svg/g_73/g_74/path_106"/>
      <path d="M670.4,59.2c0-0.4,0-0.6-0.1-0.9h0.7c0,0.2,0,0.5,0,0.9v0.2h1.8v-0.2c0-0.4,0-0.7,0-0.9h0.7    c0,0.2-0.1,0.5-0.1,0.9v0.2c0.3,0,0.6,0,0.8-0.1v0.6c-0.2,0-0.5,0-0.8,0V64c0.3,0,0.6,0,0.8,0v0.6c-0.2,0-0.5,0-0.9,0h-3    c-0.4,0-0.6,0-0.8,0v-0.6c0.2,0,0.4,0,0.8,0h0.3v-4.1h-0.1c-0.4,0-0.6,0-0.8,0v-0.6c0.2,0,0.4,0.1,0.8,0.1h0.1V59.2z M671.4,65.1    c-0.5,0.7-0.8,1.1-1.5,1.7c-0.1-0.2-0.2-0.3-0.4-0.5c0.7-0.5,1.1-0.9,1.4-1.5L671.4,65.1z M672.8,60.9v-1H671v1H672.8z     M672.8,62.4v-1H671v1H672.8z M672.8,64v-1.1H671V64H672.8z M673.1,66.3c-0.4-0.5-0.6-0.7-1-1.1l0.4-0.4c0.4,0.4,0.5,0.5,1,1    L673.1,66.3z M675.1,63.7c-0.1,1.4-0.4,2.2-1.1,3.1c-0.2-0.3-0.2-0.3-0.5-0.4c0.6-0.7,0.8-1.2,1-2.2c0.1-0.7,0.2-2.4,0.2-4.5    c0-0.6,0-0.9,0-1.1c0.3,0,0.5,0,0.9,0h1.3c0.4,0,0.7,0,0.9,0c0,0.2,0,0.5,0,0.9v6.5c0,0.3-0.1,0.5-0.3,0.6    c-0.1,0.1-0.4,0.1-0.8,0.1c-0.2,0-0.3,0-0.8,0c0-0.3-0.1-0.4-0.2-0.7c0.5,0.1,0.8,0.1,1.1,0.1c0.2,0,0.3-0.1,0.3-0.2v-2.2H675.1z     M677.1,63.2v-1.8h-1.9c0,1,0,1.3-0.1,1.8H677.1z M677.1,60.9v-1.7h-1.9v1.3c0,0.3,0,0.3,0,0.4H677.1z" fill="#1A1A1A" id="path_105" tag_name="svg/g_73/g_74/path_105"/>
      <path d="M684.1,62c0,0.1,0,0.1-0.1,0.3c-0.6,1.8-1.4,3.3-2.5,4.4c-0.2-0.2-0.3-0.3-0.6-0.5c0.9-0.8,1.7-2,2.2-3.3    c0.2-0.5,0.3-0.9,0.4-1.2L684.1,62z M688.4,60.1c0.5,0,0.8,0,1.1-0.1v0.7c-0.1,0-0.1,0-0.2,0c-0.2,0-0.2,0-1,0h-6.2    c-0.5,0-0.8,0-1.1,0.1V60c0.3,0,0.7,0.1,1.1,0.1h3c-0.3-0.6-0.5-1-1-1.6l0.6-0.3c0.6,0.8,0.7,1.1,1.2,2H688.4z M687,61.8    c1.1,1.9,1.9,3.3,2.5,4.5l-0.6,0.4c-0.9-1.7-1.7-3.3-2.5-4.6L687,61.8z" fill="#1A1A1A" id="path_104" tag_name="svg/g_73/g_74/path_104"/>
    </g>
  </g>
  <g id="g_72" tag_name="svg/g_72">
    <circle cx="279.6" cy="95.1" r="12.5" opacity="0.3" fill="#EC1C24" id="circle_7" tag_name="svg/g_72/circle_7"/>
    <circle cx="495.5" cy="139.3" r="12.5" opacity="0.3" fill="#EC1C24" id="circle_6" tag_name="svg/g_72/circle_6"/>
    <circle cx="540.6" cy="139.3" r="12.5" opacity="0.3" fill="#EC1C24" id="circle_5" tag_name="svg/g_72/circle_5"/>
    <circle cx="584.8" cy="231.6" r="12.5" opacity="0.3" fill="#EC1C24" id="circle_4" tag_name="svg/g_72/circle_4"/>
    <circle cx="401.3" cy="276.7" r="12.5" opacity="0.3" fill="#EC1C24" id="circle_3" tag_name="svg/g_72/circle_3"/>
    <circle cx="97" cy="139.3" r="12.5" opacity="0.3" fill="#EC1C24" id="circle_2" tag_name="svg/g_72/circle_2"/>
    <circle cx="234.4" cy="231.6" r="12.5" opacity="0.3" fill="#EC1C24" id="circle_1" tag_name="svg/g_72/circle_1"/>
    <circle cx="188.3" cy="231.6" r="12.5" opacity="0.3" fill="#EC1C24" id="circle" tag_name="svg/g_72/circle"/>
  </g>
  <g id="g" tag_name="svg/g">
    <g id="g_71" tag_name="svg/g/g_71">
      <path d="M231.8,91.2c0.3,0,0.5,0.1,1,0.1h0.7c0.4,0,0.6,0,1-0.1c-0.1,0.7-0.1,1.3-0.1,1.9v5.6c0,0.5,0,0.9,0.1,1.3    h-1.1c0.1-0.4,0.1-0.8,0.1-1.3v-6.7h-0.6c-0.4,0-0.7,0-1,0.1V91.2z" fill="#1A1A1A" id="path_103" tag_name="svg/g/g_71/path_103"/>
    </g>
    <g id="g_70" tag_name="svg/g/g_70">
      <path d="M47.6,141.4c0.2-0.3,0.5-0.6,0.8-0.9l2.9-3.6c0.4-0.5,0.6-0.8,0.9-1.2H53c-0.1,0.7-0.1,1-0.1,1.9v3.8h0.4    c0.5,0,0.8,0,1.2-0.1v1c-0.4-0.1-0.7-0.1-1.2-0.1h-0.4v1c0,0.6,0,0.8,0.1,1.2h-1c0.1-0.4,0.1-0.7,0.1-1.2v-1H49c-0.6,0-1,0-1.4,0    V141.4z M52.1,138.5c0-0.6,0-1,0.1-1.6c-0.2,0.3-0.5,0.7-0.9,1.2l-2.7,3.3h3.4V138.5z" fill="#1A1A1A" id="path_102" tag_name="svg/g/g_70/path_102"/>
    </g>
    <g id="g_69" tag_name="svg/g/g_69">
      <path d="M95,139c0,0.2,0,0.2-0.1,0.5c0.6-0.5,1.2-0.8,2-0.8c0.8,0,1.6,0.3,2.1,0.8c0.5,0.5,0.8,1.2,0.8,2    c0,1.9-1.2,3-3.1,3c-0.9,0-1.6-0.3-2.2-0.8c-0.3-0.3-0.5-0.5-0.7-1.1l0.9-0.3c0.1,0.3,0.2,0.5,0.4,0.7c0.4,0.4,1,0.7,1.6,0.7    c1.3,0,2.2-0.9,2.2-2.2c0-1.3-0.8-2.1-2-2.1c-0.6,0-1.1,0.2-1.5,0.5c-0.3,0.2-0.4,0.4-0.5,0.7l-0.9-0.1c0.1-0.4,0.1-0.7,0.2-1.2    l0.3-2.6c0-0.3,0-0.5,0-0.7c0-0.2,0-0.2,0-0.5c0.4,0,0.5,0.1,1.2,0.1H98c0.6,0,0.9,0,1.3-0.1v1c-0.4-0.1-0.8-0.1-1.3-0.1h-2.7    L95,139z" fill="#1A1A1A" id="path_101" tag_name="svg/g/g_69/path_101"/>
    </g>
    <g id="g_68" tag_name="svg/g/g_68">
      <path d="M144.6,137.6c-0.1-0.4-0.2-0.5-0.4-0.7c-0.3-0.4-0.8-0.6-1.4-0.6c-0.9,0-1.6,0.5-2,1.4    c-0.3,0.7-0.4,1.2-0.5,2.5c0.2-0.4,0.3-0.5,0.6-0.7c0.5-0.5,1.2-0.7,1.9-0.7c1.8,0,2.9,1.1,2.9,2.9c0,1.8-1.2,3-3,3    c-0.8,0-1.6-0.3-2.1-0.7c-0.8-0.7-1.2-2-1.2-3.6c0-1.4,0.3-2.7,0.9-3.5c0.6-0.8,1.4-1.3,2.4-1.3c0.7,0,1.3,0.2,1.8,0.5    c0.4,0.3,0.6,0.6,1,1.3L144.6,137.6z M142.7,139.5c-0.6,0-1.2,0.3-1.6,0.7c-0.4,0.4-0.6,0.9-0.6,1.5c0,1.2,0.9,2.2,2.2,2.2    c0.7,0,1.4-0.4,1.8-0.9c0.2-0.3,0.3-0.8,0.3-1.2C144.8,140.3,144,139.5,142.7,139.5z" fill="#1A1A1A" id="path_100" tag_name="svg/g/g_68/path_100"/>
    </g>
    <g id="g_67" tag_name="svg/g/g_67">
      <path d="M191,136.5c-0.2,0.2-0.4,0.4-0.9,1.1c-1,1.6-1.5,2.6-2,4c-0.3,1-0.4,1.5-0.6,2.9h-1.1    c0.4-2.1,0.7-3.1,1.4-4.6c0.6-1.2,1-1.9,2.1-3.3h-3.7c-0.5,0-0.9,0-1.3,0.1v-1c0.4,0.1,0.8,0.1,1.3,0.1h3.5c0.7,0,0.9,0,1.3-0.1    V136.5z" fill="#1A1A1A" id="path_99" tag_name="svg/g/g_67/path_99"/>
    </g>
    <g id="g_66" tag_name="svg/g/g_66">
      <path d="M235.8,140.3c0.6,0.4,0.9,1,0.9,1.8c0,1.6-1.2,2.5-3.2,2.5c-2.1,0-3.3-0.9-3.3-2.5c0-0.8,0.3-1.5,1-1.9    c0.4-0.2,0.6-0.3,1-0.4c-1-0.2-1.7-1-1.7-2.1c0-1.4,1.1-2.3,2.8-2.3c1.8,0,2.8,0.9,2.8,2.3c0,1.1-0.6,1.9-1.7,2.1    C235.1,139.9,235.4,140,235.8,140.3z M231.1,142.1c0,1.1,0.8,1.7,2.3,1.7c0.8,0,1.5-0.2,1.9-0.6c0.3-0.3,0.4-0.7,0.4-1.1    c0-1.1-0.9-1.8-2.3-1.8S231.1,141,231.1,142.1z M231.5,137.8c0,1,0.7,1.6,1.9,1.6c1.2,0,1.9-0.6,1.9-1.6c0-1-0.8-1.6-1.9-1.6    C232.2,136.3,231.5,136.9,231.5,137.8z" fill="#1A1A1A" id="path_98" tag_name="svg/g/g_66/path_98"/>
    </g>
    <g id="g_65" tag_name="svg/g/g_65">
      <path d="M276.7,142.5c0.1,0.4,0.2,0.5,0.4,0.7c0.3,0.4,0.8,0.5,1.5,0.5c0.8,0,1.4-0.3,1.9-1.1    c0.2-0.4,0.4-0.9,0.5-1.5c0-0.3,0.1-0.8,0.1-1.3c-0.2,0.3-0.3,0.4-0.5,0.6c-0.6,0.6-1.2,0.8-2.1,0.8c-0.9,0-1.6-0.3-2.1-0.8    s-0.8-1.3-0.8-2.1c0-1.8,1.2-3,3.1-3c1.3,0,2.4,0.7,2.8,1.9c0.2,0.6,0.3,1.4,0.3,2.4c0,1.6-0.3,2.9-1,3.7    c-0.6,0.7-1.3,1.1-2.4,1.1c-0.8,0-1.4-0.2-1.9-0.6c-0.3-0.3-0.5-0.5-0.8-1.1L276.7,142.5z M280.9,138.5c0-1.2-0.9-2.2-2.2-2.2    c-0.8,0-1.5,0.4-1.8,1c-0.2,0.3-0.3,0.8-0.3,1.2c0,1.3,0.8,2.1,2.1,2.1C279.9,140.6,280.9,139.7,280.9,138.5z" fill="#1A1A1A" id="path_97" tag_name="svg/g/g_65/path_97"/>
    </g>
    <g id="g_64" tag_name="svg/g/g_64">
      <path d="M317.9,135.6c0.3,0,0.5,0.1,1,0.1h0.7c0.4,0,0.6,0,1-0.1c-0.1,0.7-0.1,1.3-0.1,1.9v5.6c0,0.5,0,0.9,0.1,1.3    h-1.1c0.1-0.4,0.1-0.8,0.1-1.3v-6.7h-0.6c-0.4,0-0.7,0-1,0.1V135.6z" fill="#1A1A1A" id="path_96" tag_name="svg/g/g_64/path_96"/>
      <path d="M324.8,143.8c-0.3-0.3-0.6-0.7-0.7-1.1c-0.3-0.8-0.4-1.7-0.4-2.7c0-1.2,0.3-2.5,0.7-3.1    c0.6-0.9,1.4-1.4,2.6-1.4c0.9,0,1.6,0.3,2.1,0.8c0.3,0.3,0.6,0.7,0.7,1.1c0.3,0.8,0.4,1.7,0.4,2.7c0,1.4-0.3,2.6-0.8,3.3    c-0.6,0.8-1.4,1.2-2.4,1.2C326,144.6,325.3,144.3,324.8,143.8z M325.4,136.9c-0.2,0.3-0.4,0.6-0.5,0.8c-0.2,0.7-0.4,1.5-0.4,2.3    c0,1.1,0.2,2.2,0.5,2.7c0.4,0.7,1,1,1.8,1c0.6,0,1.1-0.2,1.4-0.5c0.3-0.3,0.4-0.6,0.5-0.9c0.2-0.7,0.4-1.5,0.4-2.3    c0-1-0.2-2.1-0.5-2.7c-0.4-0.7-1-1-1.8-1C326.3,136.3,325.8,136.5,325.4,136.9z" fill="#1A1A1A" id="path_95" tag_name="svg/g/g_64/path_95"/>
    </g>
    <g id="g_63" tag_name="svg/g/g_63">
      <path d="M47,181.2c0.3,0,0.5,0.1,1,0.1h0.7c0.4,0,0.6,0,1-0.1c-0.1,0.7-0.1,1.3-0.1,1.9v5.6c0,0.5,0,0.9,0.1,1.3h-1.1    c0.1-0.4,0.1-0.8,0.1-1.3v-6.7H48c-0.4,0-0.7,0-1,0.1V181.2z" fill="#1A1A1A" id="path_94" tag_name="svg/g/g_63/path_94"/>
      <path d="M53.4,181.2c0.3,0,0.5,0.1,1,0.1h0.7c0.4,0,0.6,0,1-0.1c-0.1,0.7-0.1,1.3-0.1,1.9v5.6c0,0.5,0,0.9,0.1,1.3H55    c0.1-0.4,0.1-0.8,0.1-1.3v-6.7h-0.6c-0.4,0-0.7,0-1,0.1V181.2z" fill="#1A1A1A" id="path_93" tag_name="svg/g/g_63/path_93"/>
    </g>
    <g id="g_62" tag_name="svg/g/g_62">
      <path d="M46.1,226.9c0.3,0,0.5,0.1,1,0.1h0.7c0.4,0,0.6,0,1-0.1c-0.1,0.7-0.1,1.3-0.1,1.9v5.6c0,0.5,0,0.9,0.1,1.3    h-1.1c0.1-0.4,0.1-0.8,0.1-1.3v-6.7h-0.6c-0.4,0-0.7,0-1,0.1V226.9z" fill="#1A1A1A" id="path_92" tag_name="svg/g/g_62/path_92"/>
      <path d="M56.8,231.6c0.6,0.4,0.9,1,0.9,1.8c0,1.6-1.2,2.5-3.2,2.5c-2.1,0-3.3-0.9-3.3-2.5c0-0.8,0.3-1.5,1-1.9    c0.4-0.2,0.6-0.3,1-0.4c-1-0.2-1.7-1-1.7-2.1c0-1.4,1.1-2.3,2.8-2.3c1.8,0,2.8,0.9,2.8,2.3c0,1.1-0.6,1.9-1.7,2.1    C56.1,231.2,56.4,231.3,56.8,231.6z M52.1,233.4c0,1.1,0.8,1.7,2.3,1.7c0.8,0,1.5-0.2,1.9-0.6c0.3-0.3,0.4-0.7,0.4-1.1    c0-1.1-0.9-1.8-2.3-1.8S52.1,232.2,52.1,233.4z M52.5,229.1c0,1,0.7,1.7,1.9,1.7c1.2,0,1.9-0.6,1.9-1.7c0-1-0.8-1.6-1.9-1.6    C53.2,227.5,52.5,228.2,52.5,229.1z" fill="#1A1A1A" id="path_91" tag_name="svg/g/g_62/path_91"/>
    </g>
    <g id="g_61" tag_name="svg/g/g_61">
      <path d="M91.3,226.9c0.3,0,0.5,0.1,1,0.1H93c0.4,0,0.6,0,1-0.1c-0.1,0.7-0.1,1.3-0.1,1.9v5.6c0,0.5,0,0.9,0.1,1.3    h-1.1c0.1-0.4,0.1-0.8,0.1-1.3v-6.7h-0.6c-0.4,0-0.7,0-1,0.1V226.9z" fill="#1A1A1A" id="path_90" tag_name="svg/g/g_61/path_90"/>
      <path d="M97.5,233.8c0.1,0.4,0.2,0.5,0.4,0.7c0.3,0.4,0.8,0.5,1.5,0.5c0.8,0,1.4-0.3,1.9-1.1c0.2-0.4,0.4-0.9,0.5-1.5    c0-0.3,0.1-0.8,0.1-1.3c-0.2,0.3-0.3,0.4-0.5,0.6c-0.6,0.6-1.2,0.8-2.1,0.8c-0.9,0-1.6-0.3-2.1-0.8s-0.8-1.3-0.8-2.1    c0-1.8,1.2-3,3.1-3c1.3,0,2.4,0.7,2.8,1.9c0.2,0.6,0.3,1.4,0.3,2.4c0,1.6-0.3,2.9-1,3.7c-0.6,0.7-1.3,1.1-2.4,1.1    c-0.8,0-1.4-0.2-1.9-0.6c-0.3-0.3-0.5-0.5-0.8-1.1L97.5,233.8z M101.6,229.7c0-1.2-0.9-2.2-2.2-2.2c-0.8,0-1.5,0.4-1.8,1    c-0.2,0.3-0.3,0.8-0.3,1.2c0,1.3,0.8,2.1,2.1,2.1C100.7,231.9,101.6,231,101.6,229.7z" fill="#1A1A1A" id="path_89" tag_name="svg/g/g_61/path_89"/>
    </g>
    <g id="g_60" tag_name="svg/g/g_60">
      <path d="M137.4,235.7c-0.7,0-0.9,0-1.3,0.1c0.1-0.9,0.2-1.1,0.3-1.5c0.3-0.7,0.8-1.4,1.5-2c0.4-0.3,0.4-0.4,1.8-1.3    c1.1-0.8,1.5-1.3,1.5-2c0-0.9-0.7-1.4-1.9-1.4c-0.8,0-1.3,0.3-1.7,0.8c-0.2,0.3-0.3,0.6-0.4,1.2l-1-0.2c0.2-0.8,0.3-1.2,0.7-1.7    c0.5-0.6,1.3-0.9,2.3-0.9c1.7,0,2.9,0.9,2.9,2.2c0,0.6-0.2,1.1-0.7,1.6c-0.3,0.4-0.6,0.6-2,1.5c-0.9,0.6-1.3,0.9-1.7,1.4    c-0.4,0.5-0.5,0.8-0.7,1.3h3.7c0.6,0,1,0,1.4-0.1v1c-0.5,0-0.8-0.1-1.4-0.1H137.4z" fill="#1A1A1A" id="path_88" tag_name="svg/g/g_60/path_88"/>
      <path d="M144.7,235.1c-0.3-0.3-0.6-0.7-0.7-1.1c-0.3-0.8-0.4-1.7-0.4-2.7c0-1.2,0.3-2.5,0.7-3.1    c0.6-0.9,1.4-1.4,2.6-1.4c0.9,0,1.6,0.3,2.1,0.8c0.3,0.3,0.6,0.7,0.7,1.1c0.3,0.8,0.4,1.7,0.4,2.7c0,1.4-0.3,2.6-0.8,3.3    c-0.6,0.8-1.4,1.2-2.4,1.2C146,235.9,145.2,235.6,144.7,235.1z M145.4,228.2c-0.2,0.3-0.4,0.6-0.5,0.8c-0.2,0.7-0.4,1.5-0.4,2.3    c0,1.1,0.2,2.2,0.5,2.7c0.4,0.7,1,1,1.8,1c0.6,0,1.1-0.2,1.4-0.5c0.3-0.3,0.4-0.6,0.5-0.9c0.2-0.7,0.4-1.5,0.4-2.3    c0-1-0.2-2.1-0.5-2.7c-0.4-0.7-1-1-1.8-1C146.2,227.6,145.7,227.8,145.4,228.2z" fill="#1A1A1A" id="path_87" tag_name="svg/g/g_60/path_87"/>
    </g>
    <g id="g_59" tag_name="svg/g/g_59">
      <path d="M183.2,235.7c-0.7,0-0.9,0-1.3,0.1c0.1-0.9,0.2-1.1,0.3-1.5c0.3-0.7,0.8-1.4,1.5-2c0.4-0.3,0.4-0.4,1.8-1.3    c1.1-0.8,1.5-1.3,1.5-2c0-0.9-0.7-1.4-1.9-1.4c-0.8,0-1.3,0.3-1.7,0.8c-0.2,0.3-0.3,0.6-0.4,1.2l-1-0.2c0.2-0.8,0.3-1.2,0.7-1.7    c0.5-0.6,1.3-0.9,2.3-0.9c1.7,0,2.9,0.9,2.9,2.2c0,0.6-0.2,1.1-0.7,1.6c-0.3,0.4-0.6,0.6-2,1.5c-0.9,0.6-1.3,0.9-1.7,1.4    c-0.4,0.5-0.5,0.8-0.7,1.3h3.7c0.6,0,1,0,1.4-0.1v1c-0.5,0-0.8-0.1-1.4-0.1H183.2z" fill="#1A1A1A" id="path_86" tag_name="svg/g/g_59/path_86"/>
      <path d="M190.5,226.9c0.3,0,0.5,0.1,1,0.1h0.7c0.4,0,0.6,0,1-0.1c-0.1,0.7-0.1,1.3-0.1,1.9v5.6c0,0.5,0,0.9,0.1,1.3    h-1.1c0.1-0.4,0.1-0.8,0.1-1.3v-6.7h-0.6c-0.4,0-0.7,0-1,0.1V226.9z" fill="#1A1A1A" id="path_85" tag_name="svg/g/g_59/path_85"/>
    </g>
    <g id="g_58" tag_name="svg/g/g_58">
      <path d="M228.3,235.7c-0.7,0-0.9,0-1.3,0.1c0.1-0.9,0.2-1.1,0.3-1.5c0.3-0.7,0.8-1.4,1.5-2c0.4-0.3,0.4-0.4,1.8-1.3    c1.1-0.8,1.5-1.3,1.5-2c0-0.9-0.7-1.4-1.9-1.4c-0.8,0-1.3,0.3-1.7,0.8c-0.2,0.3-0.3,0.6-0.4,1.2l-1-0.2c0.2-0.8,0.3-1.2,0.7-1.7    c0.5-0.6,1.3-0.9,2.3-0.9c1.7,0,2.9,0.9,2.9,2.2c0,0.6-0.2,1.1-0.7,1.6c-0.3,0.4-0.6,0.6-2,1.5c-0.9,0.6-1.3,0.9-1.7,1.4    c-0.4,0.5-0.5,0.8-0.7,1.3h3.7c0.6,0,1,0,1.4-0.1v1c-0.5,0-0.8-0.1-1.4-0.1H228.3z" fill="#1A1A1A" id="path_84" tag_name="svg/g/g_58/path_84"/>
      <path d="M235.7,235.7c-0.7,0-0.9,0-1.3,0.1c0.1-0.9,0.2-1.1,0.3-1.5c0.3-0.7,0.8-1.4,1.5-2c0.4-0.3,0.4-0.4,1.8-1.3    c1.1-0.8,1.5-1.3,1.5-2c0-0.9-0.7-1.4-1.9-1.4c-0.8,0-1.3,0.3-1.7,0.8c-0.2,0.3-0.3,0.6-0.4,1.2l-1-0.2c0.2-0.8,0.3-1.2,0.7-1.7    c0.5-0.6,1.3-0.9,2.3-0.9c1.7,0,2.9,0.9,2.9,2.2c0,0.6-0.2,1.1-0.7,1.6c-0.3,0.4-0.6,0.6-2,1.5c-0.9,0.6-1.3,0.9-1.7,1.4    c-0.4,0.5-0.5,0.8-0.7,1.3h3.7c0.6,0,1,0,1.4-0.1v1c-0.5,0-0.8-0.1-1.4-0.1H235.7z" fill="#1A1A1A" id="path_83" tag_name="svg/g/g_58/path_83"/>
    </g>
    <g id="g_57" tag_name="svg/g/g_57">
      <path d="M46.6,281.2c-0.7,0-0.9,0-1.3,0.1c0.1-0.9,0.2-1.1,0.3-1.5c0.3-0.7,0.8-1.4,1.5-2c0.4-0.3,0.4-0.4,1.8-1.3    c1.1-0.8,1.5-1.3,1.5-2c0-0.9-0.7-1.4-1.9-1.4c-0.8,0-1.3,0.3-1.7,0.7c-0.2,0.3-0.3,0.6-0.4,1.2l-1-0.2c0.2-0.8,0.3-1.2,0.7-1.7    c0.5-0.6,1.3-0.9,2.3-0.9c1.7,0,2.9,0.9,2.9,2.2c0,0.6-0.2,1.1-0.7,1.6c-0.3,0.4-0.6,0.6-2,1.5c-0.9,0.6-1.3,0.9-1.7,1.4    c-0.4,0.5-0.5,0.8-0.7,1.3h3.7c0.6,0,1,0,1.4-0.1v1c-0.5,0-0.8-0.1-1.4-0.1H46.6z" fill="#1A1A1A" id="path_82" tag_name="svg/g/g_57/path_82"/>
      <path d="M54.1,275.8c0,0.2,0,0.2-0.1,0.5c0.6-0.5,1.2-0.8,2-0.8c0.8,0,1.6,0.3,2.1,0.8c0.5,0.5,0.8,1.2,0.8,2    c0,1.9-1.2,3-3.1,3c-0.9,0-1.6-0.3-2.2-0.8c-0.3-0.3-0.5-0.5-0.7-1.1l0.9-0.3c0.1,0.3,0.2,0.5,0.4,0.7c0.4,0.4,1,0.7,1.6,0.7    c1.3,0,2.2-0.9,2.2-2.2c0-1.3-0.8-2.1-2-2.1c-0.6,0-1.1,0.2-1.5,0.5c-0.3,0.2-0.4,0.4-0.5,0.7l-0.9-0.1c0.1-0.5,0.1-0.7,0.2-1.2    l0.3-2.6c0-0.3,0-0.5,0-0.7c0-0.2,0-0.2,0-0.5c0.4,0,0.5,0.1,1.2,0.1h2.4c0.6,0,0.9,0,1.3-0.1v1c-0.4-0.1-0.8-0.1-1.3-0.1h-2.7    L54.1,275.8z" fill="#1A1A1A" id="path_81" tag_name="svg/g/g_57/path_81"/>
    </g>
    <g id="g_56" tag_name="svg/g/g_56">
      <path d="M91.6,281.2c-0.7,0-0.9,0-1.3,0.1c0.1-0.9,0.2-1.1,0.3-1.5c0.3-0.7,0.8-1.4,1.5-2c0.4-0.3,0.4-0.4,1.8-1.3    c1.1-0.8,1.5-1.3,1.5-2c0-0.9-0.7-1.4-1.9-1.4c-0.8,0-1.3,0.3-1.7,0.7c-0.2,0.3-0.3,0.6-0.4,1.2l-1-0.2c0.2-0.8,0.3-1.2,0.7-1.7    c0.5-0.6,1.3-0.9,2.3-0.9c1.7,0,2.9,0.9,2.9,2.2c0,0.6-0.2,1.1-0.7,1.6c-0.3,0.4-0.6,0.6-2,1.5c-0.9,0.6-1.3,0.9-1.7,1.4    c-0.4,0.5-0.5,0.8-0.7,1.3h3.7c0.6,0,1,0,1.4-0.1v1c-0.5,0-0.8-0.1-1.4-0.1H91.6z" fill="#1A1A1A" id="path_80" tag_name="svg/g/g_56/path_80"/>
      <path d="M103,274.4c-0.1-0.4-0.2-0.5-0.4-0.7c-0.3-0.4-0.8-0.6-1.4-0.6c-0.9,0-1.6,0.5-2,1.4    c-0.3,0.7-0.4,1.2-0.5,2.5c0.2-0.4,0.3-0.5,0.6-0.7c0.5-0.5,1.2-0.7,1.9-0.7c1.8,0,2.9,1.1,2.9,2.9c0,1.8-1.2,3-3,3    c-0.8,0-1.6-0.3-2.1-0.7c-0.8-0.7-1.2-2-1.2-3.6c0-1.4,0.3-2.7,0.9-3.5c0.6-0.8,1.4-1.3,2.4-1.3c0.7,0,1.3,0.2,1.8,0.5    c0.4,0.3,0.6,0.6,1,1.3L103,274.4z M101.2,276.3c-0.6,0-1.2,0.3-1.6,0.7c-0.4,0.4-0.6,0.9-0.6,1.5c0,1.2,0.9,2.2,2.2,2.2    c0.7,0,1.4-0.4,1.8-0.9c0.2-0.3,0.3-0.8,0.3-1.2C103.3,277.1,102.5,276.3,101.2,276.3z" fill="#1A1A1A" id="path_79" tag_name="svg/g/g_56/path_79"/>
    </g>
    <g id="g_55" tag_name="svg/g/g_55">
      <path d="M137.6,281.2c-0.7,0-0.9,0-1.3,0.1c0.1-0.9,0.2-1.1,0.3-1.5c0.3-0.7,0.8-1.4,1.5-2c0.4-0.3,0.4-0.4,1.8-1.3    c1.1-0.8,1.5-1.3,1.5-2c0-0.9-0.7-1.4-1.9-1.4c-0.8,0-1.3,0.3-1.7,0.7c-0.2,0.3-0.3,0.6-0.4,1.2l-1-0.2c0.2-0.8,0.3-1.2,0.7-1.7    c0.5-0.6,1.3-0.9,2.3-0.9c1.7,0,2.9,0.9,2.9,2.2c0,0.6-0.2,1.1-0.7,1.6c-0.3,0.4-0.6,0.6-2,1.5c-0.9,0.6-1.3,0.9-1.7,1.4    c-0.4,0.5-0.5,0.8-0.7,1.3h3.7c0.6,0,1,0,1.4-0.1v1c-0.5,0-0.8-0.1-1.4-0.1H137.6z" fill="#1A1A1A" id="path_78" tag_name="svg/g/g_55/path_78"/>
      <path d="M150.1,273.2c-0.2,0.2-0.4,0.4-0.9,1.1c-1,1.6-1.5,2.6-2,4c-0.3,1-0.4,1.5-0.6,2.9h-1.1    c0.4-2.1,0.7-3.1,1.4-4.6c0.6-1.2,1-1.9,2.1-3.3h-3.7c-0.5,0-0.9,0-1.3,0.1v-1c0.4,0.1,0.8,0.1,1.3,0.1h3.5c0.7,0,0.9,0,1.3-0.1    V273.2z" fill="#1A1A1A" id="path_77" tag_name="svg/g/g_55/path_77"/>
    </g>
    <g id="g_54" tag_name="svg/g/g_54">
      <path d="M182.3,281.2c-0.7,0-0.9,0-1.3,0.1c0.1-0.9,0.2-1.1,0.3-1.5c0.3-0.7,0.8-1.4,1.5-2c0.4-0.3,0.4-0.4,1.8-1.3    c1.1-0.8,1.5-1.3,1.5-2c0-0.9-0.7-1.4-1.9-1.4c-0.8,0-1.3,0.3-1.7,0.7c-0.2,0.3-0.3,0.6-0.4,1.2l-1-0.2c0.2-0.8,0.3-1.2,0.7-1.7    c0.5-0.6,1.3-0.9,2.3-0.9c1.7,0,2.9,0.9,2.9,2.2c0,0.6-0.2,1.1-0.7,1.6c-0.3,0.4-0.6,0.6-2,1.5c-0.9,0.6-1.3,0.9-1.7,1.4    c-0.4,0.5-0.5,0.8-0.7,1.3h3.7c0.6,0,1,0,1.4-0.1v1c-0.5,0-0.8-0.1-1.4-0.1H182.3z" fill="#1A1A1A" id="path_76" tag_name="svg/g/g_54/path_76"/>
      <path d="M194,277.1c0.6,0.4,0.9,1,0.9,1.8c0,1.6-1.2,2.5-3.2,2.5c-2.1,0-3.3-0.9-3.3-2.5c0-0.8,0.3-1.5,1-1.9    c0.4-0.2,0.6-0.3,1-0.4c-1-0.2-1.7-1-1.7-2.1c0-1.4,1.1-2.3,2.8-2.3c1.8,0,2.8,0.9,2.8,2.3c0,1.1-0.6,1.9-1.7,2.1    C193.3,276.7,193.6,276.8,194,277.1z M189.3,278.9c0,1.1,0.8,1.7,2.3,1.7c0.8,0,1.5-0.2,1.9-0.6c0.3-0.3,0.4-0.7,0.4-1.1    c0-1.1-0.9-1.8-2.3-1.8S189.3,277.8,189.3,278.9z M189.7,274.6c0,1,0.7,1.7,1.9,1.7c1.2,0,1.9-0.6,1.9-1.7c0-1-0.8-1.6-1.9-1.6    C190.5,273,189.7,273.7,189.7,274.6z" fill="#1A1A1A" id="path_75" tag_name="svg/g/g_54/path_75"/>
    </g>
    <g id="g_53" tag_name="svg/g/g_53">
      <path d="M273.4,235.7c-0.7,0-0.9,0-1.3,0.1c0.1-0.9,0.2-1.1,0.3-1.5c0.3-0.7,0.8-1.4,1.5-2c0.4-0.3,0.4-0.4,1.8-1.3    c1.1-0.8,1.5-1.3,1.5-2c0-0.9-0.7-1.4-1.9-1.4c-0.8,0-1.3,0.3-1.7,0.8c-0.2,0.3-0.3,0.6-0.4,1.2l-1-0.2c0.2-0.8,0.3-1.2,0.7-1.7    c0.5-0.6,1.3-0.9,2.3-0.9c1.7,0,2.9,0.9,2.9,2.2c0,0.6-0.2,1.1-0.7,1.6c-0.3,0.4-0.6,0.6-2,1.5c-0.9,0.6-1.3,0.9-1.7,1.4    c-0.4,0.5-0.5,0.8-0.7,1.3h3.7c0.6,0,1,0,1.4-0.1v1c-0.5,0-0.8-0.1-1.4-0.1H273.4z" fill="#1A1A1A" id="path_74" tag_name="svg/g/g_53/path_74"/>
      <path d="M280.6,233.6c0.2,0.6,0.3,0.8,0.7,1.1c0.4,0.3,0.9,0.4,1.5,0.4c1.3,0,2.2-0.7,2.2-1.8c0-1.1-0.8-1.8-2.4-1.8    c-0.3,0-0.6,0-0.9,0.1v-0.9c0.3,0,0.5,0.1,0.9,0.1c0.8,0,1.3-0.2,1.7-0.5c0.3-0.3,0.5-0.7,0.5-1.1c0-1-0.7-1.6-1.9-1.6    c-0.7,0-1.2,0.2-1.5,0.6c-0.2,0.2-0.2,0.4-0.4,0.8l-1-0.2c0.2-0.6,0.3-0.9,0.6-1.2c0.5-0.6,1.3-0.8,2.3-0.8c1.7,0,2.7,0.9,2.7,2.3    c0,0.7-0.3,1.3-0.8,1.7c-0.3,0.2-0.6,0.3-1.1,0.4c0.7,0.1,1,0.2,1.4,0.5c0.5,0.4,0.8,1,0.8,1.7c0,1.6-1.2,2.5-3.1,2.5    c-1.2,0-2-0.3-2.6-0.9c-0.2-0.3-0.4-0.5-0.6-1.1L280.6,233.6z" fill="#1A1A1A" id="path_73" tag_name="svg/g/g_53/path_73"/>
    </g>
    <g id="g_52" tag_name="svg/g/g_52">
      <path d="M318,235.7c-0.7,0-0.9,0-1.3,0.1c0.1-0.9,0.2-1.1,0.3-1.5c0.3-0.7,0.8-1.4,1.5-2c0.4-0.3,0.4-0.4,1.8-1.3    c1.1-0.8,1.5-1.3,1.5-2c0-0.9-0.7-1.4-1.9-1.4c-0.8,0-1.3,0.3-1.7,0.8c-0.2,0.3-0.3,0.6-0.4,1.2l-1-0.2c0.2-0.8,0.3-1.2,0.7-1.7    c0.5-0.6,1.3-0.9,2.3-0.9c1.7,0,2.9,0.9,2.9,2.2c0,0.6-0.2,1.1-0.7,1.6c-0.3,0.4-0.6,0.6-2,1.5c-0.9,0.6-1.3,0.9-1.7,1.4    c-0.4,0.5-0.5,0.8-0.7,1.3h3.7c0.6,0,1,0,1.4-0.1v1c-0.5,0-0.8-0.1-1.4-0.1H318z" fill="#1A1A1A" id="path_72" tag_name="svg/g/g_52/path_72"/>
      <path d="M323.7,232.7c0.2-0.3,0.5-0.6,0.8-0.9l2.9-3.6c0.4-0.5,0.6-0.8,0.9-1.2h0.9c-0.1,0.7-0.1,1-0.1,1.9v3.8h0.4    c0.5,0,0.8,0,1.2-0.1v1c-0.4-0.1-0.7-0.1-1.2-0.1H329v1c0,0.6,0,0.8,0.1,1.2h-1c0.1-0.4,0.1-0.7,0.1-1.2v-1H325c-0.6,0-1,0-1.4,0    V232.7z M328.1,229.8c0-0.6,0-1,0.1-1.6c-0.2,0.3-0.5,0.7-0.9,1.2l-2.7,3.3h3.4V229.8z" fill="#1A1A1A" id="path_71" tag_name="svg/g/g_52/path_71"/>
    </g>
    <g id="g_51" tag_name="svg/g/g_51">
      <path d="M90.9,181.2c0.3,0,0.5,0.1,1,0.1h0.7c0.4,0,0.6,0,1-0.1c-0.1,0.7-0.1,1.3-0.1,1.9v5.6c0,0.5,0,0.9,0.1,1.3    h-1.1c0.1-0.4,0.1-0.8,0.1-1.3v-6.7h-0.6c-0.4,0-0.7,0-1,0.1V181.2z" fill="#1A1A1A" id="path_70" tag_name="svg/g/g_51/path_70"/>
      <path d="M97.4,190.1c-0.7,0-0.9,0-1.3,0.1c0.1-0.9,0.2-1.1,0.3-1.5c0.3-0.7,0.8-1.4,1.5-2c0.4-0.3,0.4-0.4,1.8-1.3    c1.1-0.8,1.5-1.3,1.5-2c0-0.9-0.7-1.4-1.9-1.4c-0.8,0-1.3,0.3-1.7,0.8c-0.2,0.3-0.3,0.6-0.4,1.2l-1-0.2c0.2-0.8,0.3-1.2,0.7-1.7    c0.5-0.6,1.3-0.9,2.3-0.9c1.7,0,2.9,0.9,2.9,2.2c0,0.6-0.2,1.1-0.7,1.6c-0.3,0.4-0.6,0.6-2,1.5c-0.9,0.6-1.3,0.9-1.7,1.4    c-0.4,0.5-0.5,0.8-0.7,1.3h3.7c0.6,0,1,0,1.4-0.1v1c-0.5,0-0.8-0.1-1.4-0.1H97.4z" fill="#1A1A1A" id="path_69" tag_name="svg/g/g_51/path_69"/>
    </g>
    <g id="g_50" tag_name="svg/g/g_50">
      <path d="M136.5,181.2c0.3,0,0.5,0.1,1,0.1h0.7c0.4,0,0.6,0,1-0.1c-0.1,0.7-0.1,1.3-0.1,1.9v5.6c0,0.5,0,0.9,0.1,1.3    H138c0.1-0.4,0.1-0.8,0.1-1.3v-6.7h-0.6c-0.4,0-0.7,0-1,0.1V181.2z" fill="#1A1A1A" id="path_68" tag_name="svg/g/g_50/path_68"/>
      <path d="M142.6,187.9c0.2,0.6,0.3,0.8,0.7,1.1c0.4,0.3,0.9,0.4,1.5,0.4c1.3,0,2.2-0.7,2.2-1.8c0-1.1-0.8-1.8-2.4-1.8    c-0.3,0-0.6,0-0.9,0.1V185c0.3,0,0.5,0.1,0.9,0.1c0.8,0,1.3-0.2,1.7-0.5c0.3-0.3,0.5-0.7,0.5-1.1c0-1-0.7-1.6-1.9-1.6    c-0.7,0-1.2,0.2-1.5,0.6c-0.2,0.2-0.2,0.4-0.4,0.8l-1-0.2c0.2-0.6,0.3-0.9,0.6-1.2c0.5-0.6,1.3-0.8,2.3-0.8c1.7,0,2.7,0.9,2.7,2.3    c0,0.7-0.3,1.3-0.8,1.7c-0.3,0.2-0.6,0.3-1.1,0.4c0.7,0.1,1,0.2,1.4,0.5c0.5,0.4,0.8,1,0.8,1.7c0,1.6-1.2,2.5-3.1,2.5    c-1.2,0-2-0.3-2.6-0.9c-0.2-0.3-0.4-0.5-0.6-1.1L142.6,187.9z" fill="#1A1A1A" id="path_67" tag_name="svg/g/g_50/path_67"/>
    </g>
    <g id="g_49" tag_name="svg/g/g_49">
      <path d="M182.5,181.2c0.3,0,0.5,0.1,1,0.1h0.7c0.4,0,0.6,0,1-0.1c-0.1,0.7-0.1,1.3-0.1,1.9v5.6c0,0.5,0,0.9,0.1,1.3    h-1.1c0.1-0.4,0.1-0.8,0.1-1.3v-6.7h-0.6c-0.4,0-0.7,0-1,0.1V181.2z" fill="#1A1A1A" id="path_66" tag_name="svg/g/g_49/path_66"/>
      <path d="M187.5,187c0.2-0.3,0.5-0.6,0.8-0.9l2.9-3.6c0.4-0.5,0.6-0.8,0.9-1.2h0.9c-0.1,0.7-0.1,1-0.1,1.9v3.8h0.4    c0.5,0,0.8,0,1.2-0.1v1c-0.4-0.1-0.7-0.1-1.2-0.1h-0.4v1c0,0.6,0,0.8,0.1,1.2h-1c0.1-0.4,0.1-0.7,0.1-1.2v-1h-3.1    c-0.6,0-1,0-1.4,0V187z M191.9,184.1c0-0.6,0-1,0.1-1.6c-0.2,0.3-0.5,0.7-0.9,1.2l-2.7,3.3h3.4V184.1z" fill="#1A1A1A" id="path_65" tag_name="svg/g/g_49/path_65"/>
    </g>
    <g id="g_48" tag_name="svg/g/g_48">
      <path d="M227.4,181.2c0.3,0,0.5,0.1,1,0.1h0.7c0.4,0,0.6,0,1-0.1c-0.1,0.7-0.1,1.3-0.1,1.9v5.6c0,0.5,0,0.9,0.1,1.3    h-1.1c0.1-0.4,0.1-0.8,0.1-1.3v-6.7h-0.6c-0.4,0-0.7,0-1,0.1V181.2z" fill="#1A1A1A" id="path_64" tag_name="svg/g/g_48/path_64"/>
      <path d="M234,184.7c0,0.2,0,0.2-0.1,0.5c0.6-0.5,1.2-0.8,2-0.8c0.8,0,1.6,0.3,2.1,0.8c0.5,0.5,0.8,1.2,0.8,2    c0,1.9-1.2,3-3.1,3c-0.9,0-1.6-0.3-2.2-0.8c-0.3-0.3-0.5-0.5-0.7-1.1l0.9-0.3c0.1,0.3,0.2,0.5,0.4,0.7c0.4,0.4,1,0.7,1.6,0.7    c1.3,0,2.2-0.9,2.2-2.2c0-1.3-0.8-2.1-2-2.1c-0.6,0-1.1,0.2-1.5,0.5c-0.3,0.2-0.4,0.4-0.5,0.7l-0.9-0.1c0.1-0.5,0.1-0.7,0.2-1.2    l0.3-2.6c0-0.3,0-0.5,0-0.7c0-0.2,0-0.2,0-0.5c0.4,0,0.5,0.1,1.2,0.1h2.4c0.6,0,0.9,0,1.3-0.1v1c-0.4-0.1-0.8-0.1-1.3-0.1h-2.7    L234,184.7z" fill="#1A1A1A" id="path_63" tag_name="svg/g/g_48/path_63"/>
    </g>
    <g id="g_47" tag_name="svg/g/g_47">
      <path d="M274.1,181.2c0.3,0,0.5,0.1,1,0.1h0.7c0.4,0,0.6,0,1-0.1c-0.1,0.7-0.1,1.3-0.1,1.9v5.6c0,0.5,0,0.9,0.1,1.3    h-1.1c0.1-0.4,0.1-0.8,0.1-1.3v-6.7h-0.6c-0.4,0-0.7,0-1,0.1V181.2z" fill="#1A1A1A" id="path_62" tag_name="svg/g/g_47/path_62"/>
      <path d="M284.5,183.2c-0.1-0.4-0.2-0.5-0.4-0.7c-0.3-0.4-0.8-0.6-1.4-0.6c-0.9,0-1.6,0.5-2,1.4    c-0.3,0.7-0.4,1.2-0.5,2.5c0.2-0.4,0.3-0.5,0.6-0.7c0.5-0.5,1.2-0.7,1.9-0.7c1.8,0,2.9,1.1,2.9,2.9c0,1.8-1.2,3-3,3    c-0.8,0-1.6-0.3-2.1-0.7c-0.8-0.7-1.2-2-1.2-3.6c0-1.4,0.3-2.7,0.9-3.5c0.6-0.8,1.4-1.3,2.4-1.3c0.7,0,1.3,0.2,1.8,0.5    c0.4,0.3,0.6,0.6,1,1.3L284.5,183.2z M282.6,185.2c-0.6,0-1.2,0.3-1.6,0.7c-0.4,0.4-0.6,0.9-0.6,1.5c0,1.2,0.9,2.2,2.2,2.2    c0.7,0,1.4-0.4,1.8-0.9c0.2-0.3,0.3-0.8,0.3-1.2C284.7,185.9,283.9,185.2,282.6,185.2z" fill="#1A1A1A" id="path_61" tag_name="svg/g/g_47/path_61"/>
    </g>
    <g id="g_46" tag_name="svg/g/g_46">
      <path d="M317.9,181.2c0.3,0,0.5,0.1,1,0.1h0.7c0.4,0,0.6,0,1-0.1c-0.1,0.7-0.1,1.3-0.1,1.9v5.6c0,0.5,0,0.9,0.1,1.3    h-1.1c0.1-0.4,0.1-0.8,0.1-1.3v-6.7h-0.6c-0.4,0-0.7,0-1,0.1V181.2z" fill="#1A1A1A" id="path_60" tag_name="svg/g/g_46/path_60"/>
      <path d="M329.3,182.1c-0.2,0.2-0.4,0.4-0.9,1.1c-1,1.6-1.5,2.6-2,4c-0.3,1-0.4,1.5-0.6,2.9h-1.1    c0.4-2.1,0.7-3.1,1.4-4.6c0.6-1.2,1-1.9,2.1-3.3h-3.7c-0.5,0-0.9,0-1.3,0.1v-1c0.4,0.1,0.8,0.1,1.3,0.1h3.5c0.7,0,0.9,0,1.3-0.1    V182.1z" fill="#1A1A1A" id="path_59" tag_name="svg/g/g_46/path_59"/>
    </g>
    <g id="g_45" tag_name="svg/g/g_45">
      <path d="M277.2,100.1c-0.7,0-0.9,0-1.3,0.1c0.1-0.9,0.2-1.1,0.3-1.5c0.3-0.7,0.8-1.4,1.5-2c0.4-0.3,0.4-0.4,1.8-1.3    c1.1-0.8,1.5-1.3,1.5-2c0-0.9-0.7-1.4-1.9-1.4c-0.8,0-1.3,0.3-1.7,0.8c-0.2,0.3-0.3,0.6-0.4,1.2l-1-0.2c0.2-0.8,0.3-1.2,0.7-1.7    c0.5-0.6,1.3-0.9,2.3-0.9c1.7,0,2.9,0.9,2.9,2.2c0,0.6-0.2,1.1-0.7,1.6c-0.3,0.4-0.6,0.6-2,1.5c-0.9,0.6-1.3,0.9-1.7,1.4    c-0.4,0.5-0.5,0.8-0.7,1.3h3.7c0.6,0,1,0,1.4-0.1v1c-0.5,0-0.8-0.1-1.4-0.1H277.2z" fill="#1A1A1A" id="path_58" tag_name="svg/g/g_45/path_58"/>
    </g>
    <g id="g_44" tag_name="svg/g/g_44">
      <path d="M322.1,97.9c0.2,0.6,0.3,0.8,0.7,1.1c0.4,0.3,0.9,0.4,1.5,0.4c1.3,0,2.2-0.7,2.2-1.8c0-1.1-0.8-1.8-2.4-1.8    c-0.3,0-0.6,0-0.9,0.1V95c0.3,0,0.5,0.1,0.9,0.1c0.8,0,1.3-0.2,1.7-0.5c0.3-0.3,0.5-0.7,0.5-1.1c0-1-0.7-1.6-1.9-1.6    c-0.7,0-1.2,0.2-1.5,0.6c-0.2,0.2-0.2,0.4-0.4,0.8l-1-0.2c0.2-0.6,0.3-0.9,0.6-1.2c0.5-0.6,1.3-0.8,2.3-0.8c1.7,0,2.7,0.9,2.7,2.3    c0,0.7-0.3,1.3-0.8,1.7c-0.3,0.2-0.6,0.3-1.1,0.4c0.7,0.1,1,0.2,1.4,0.5c0.5,0.4,0.8,1,0.8,1.7c0,1.6-1.2,2.5-3.1,2.5    c-1.2,0-2-0.3-2.6-0.9c-0.2-0.3-0.4-0.5-0.6-1.1L322.1,97.9z" fill="#1A1A1A" id="path_57" tag_name="svg/g/g_44/path_57"/>
    </g>
    <g id="g_43" tag_name="svg/g/g_43">
      <path d="M538,91.2c0.3,0,0.5,0.1,1,0.1h0.7c0.4,0,0.6,0,1-0.1c-0.1,0.7-0.1,1.3-0.1,1.9v5.6c0,0.5,0,0.9,0.1,1.3h-1.1    c0.1-0.4,0.1-0.8,0.1-1.3v-6.7H539c-0.4,0-0.7,0-1,0.1V91.2z" fill="#1A1A1A" id="path_56" tag_name="svg/g/g_43/path_56"/>
    </g>
    <g id="g_42" tag_name="svg/g/g_42">
      <path d="M672.8,97.2c0.2-0.3,0.5-0.6,0.8-0.9l2.9-3.6c0.4-0.5,0.6-0.8,0.9-1.2h0.9c-0.1,0.7-0.1,1-0.1,1.9v3.8h0.4    c0.5,0,0.8,0,1.2-0.1v1c-0.4-0.1-0.7-0.1-1.2-0.1h-0.4v1c0,0.6,0,0.8,0.1,1.2h-1c0.1-0.4,0.1-0.7,0.1-1.2v-1h-3.1    c-0.6,0-1,0-1.4,0V97.2z M677.3,94.3c0-0.6,0-1,0.1-1.6c-0.2,0.3-0.5,0.7-0.9,1.2l-2.7,3.3h3.4V94.3z" fill="#1A1A1A" id="path_55" tag_name="svg/g/g_42/path_55"/>
    </g>
    <g id="g_41" tag_name="svg/g/g_41">
      <path d="M401.2,139c0,0.2,0,0.2-0.1,0.5c0.6-0.5,1.2-0.8,2-0.8c0.8,0,1.6,0.3,2.1,0.8c0.5,0.5,0.8,1.2,0.8,2    c0,1.9-1.2,3-3.1,3c-0.9,0-1.6-0.3-2.2-0.8c-0.3-0.3-0.5-0.5-0.7-1.1l0.9-0.3c0.1,0.3,0.2,0.5,0.4,0.7c0.4,0.4,1,0.7,1.6,0.7    c1.3,0,2.2-0.9,2.2-2.2c0-1.3-0.8-2.1-2-2.1c-0.6,0-1.1,0.2-1.5,0.5c-0.3,0.2-0.4,0.4-0.5,0.7l-0.9-0.1c0.1-0.4,0.1-0.7,0.2-1.2    l0.3-2.6c0-0.3,0-0.5,0-0.7c0-0.2,0-0.2,0-0.5c0.4,0,0.5,0.1,1.2,0.1h2.4c0.6,0,0.9,0,1.3-0.1v1c-0.4-0.1-0.8-0.1-1.3-0.1h-2.7    L401.2,139z" fill="#1A1A1A" id="path_54" tag_name="svg/g/g_41/path_54"/>
    </g>
    <g id="g_40" tag_name="svg/g/g_40">
      <path d="M450.7,137.6c-0.2-0.4-0.2-0.5-0.4-0.7c-0.3-0.4-0.8-0.6-1.4-0.6c-0.9,0-1.6,0.5-2,1.4    c-0.3,0.7-0.4,1.2-0.5,2.5c0.2-0.4,0.3-0.5,0.6-0.7c0.5-0.5,1.2-0.7,1.9-0.7c1.8,0,2.9,1.1,2.9,2.9c0,1.8-1.2,3-3,3    c-0.8,0-1.6-0.3-2.1-0.7c-0.8-0.7-1.2-2-1.2-3.6c0-1.4,0.3-2.7,0.9-3.5c0.6-0.8,1.4-1.3,2.4-1.3c0.7,0,1.3,0.2,1.8,0.5    c0.4,0.3,0.6,0.6,1,1.3L450.7,137.6z M448.9,139.5c-0.6,0-1.2,0.3-1.6,0.7c-0.4,0.4-0.6,0.9-0.6,1.5c0,1.2,0.9,2.2,2.2,2.2    c0.8,0,1.4-0.4,1.8-0.9c0.2-0.3,0.3-0.8,0.3-1.2C451,140.3,450.2,139.5,448.9,139.5z" fill="#1A1A1A" id="path_53" tag_name="svg/g/g_40/path_53"/>
    </g>
    <g id="g_39" tag_name="svg/g/g_39">
      <path d="M498.2,136.5c-0.2,0.2-0.4,0.4-0.9,1.1c-1,1.6-1.5,2.6-2,4c-0.3,1-0.4,1.5-0.6,2.9h-1.1    c0.4-2.1,0.7-3.1,1.4-4.6c0.6-1.2,1-1.9,2.1-3.3h-3.7c-0.5,0-0.9,0-1.3,0.1v-1c0.5,0.1,0.8,0.1,1.3,0.1h3.5c0.7,0,0.9,0,1.3-0.1    V136.5z" fill="#1A1A1A" id="path_52" tag_name="svg/g/g_39/path_52"/>
    </g>
    <g id="g_38" tag_name="svg/g/g_38">
      <path d="M542,140.3c0.6,0.4,0.9,1,0.9,1.8c0,1.6-1.2,2.5-3.2,2.5c-2.1,0-3.3-0.9-3.3-2.5c0-0.8,0.3-1.5,1-1.9    c0.4-0.2,0.6-0.3,1-0.4c-1-0.2-1.7-1-1.7-2.1c0-1.4,1.1-2.3,2.8-2.3c1.8,0,2.8,0.9,2.8,2.3c0,1.1-0.6,1.9-1.7,2.1    C541.3,139.9,541.6,140,542,140.3z M537.3,142.1c0,1.1,0.8,1.7,2.3,1.7c0.8,0,1.5-0.2,1.9-0.6c0.3-0.3,0.4-0.7,0.4-1.1    c0-1.1-0.9-1.8-2.3-1.8C538.2,140.3,537.3,141,537.3,142.1z M537.7,137.8c0,1,0.7,1.6,1.9,1.6c1.2,0,1.9-0.6,1.9-1.6    c0-1-0.8-1.6-2-1.6C538.4,136.3,537.7,136.9,537.7,137.8z" fill="#1A1A1A" id="path_51" tag_name="svg/g/g_38/path_51"/>
    </g>
    <g id="g_37" tag_name="svg/g/g_37">
      <path d="M582.9,142.5c0.1,0.4,0.2,0.5,0.4,0.7c0.3,0.4,0.8,0.5,1.5,0.5c0.8,0,1.4-0.3,1.9-1.1    c0.2-0.4,0.4-0.9,0.5-1.5c0-0.3,0.1-0.8,0.1-1.3c-0.2,0.3-0.3,0.4-0.5,0.6c-0.6,0.6-1.2,0.8-2.1,0.8c-0.9,0-1.6-0.3-2.1-0.8    c-0.5-0.5-0.8-1.3-0.8-2.1c0-1.8,1.2-3,3.1-3c1.3,0,2.4,0.7,2.8,1.9c0.2,0.6,0.3,1.4,0.3,2.4c0,1.6-0.3,2.9-1,3.7    c-0.6,0.7-1.3,1.1-2.4,1.1c-0.8,0-1.4-0.2-1.9-0.6c-0.3-0.3-0.5-0.5-0.8-1.1L582.9,142.5z M587,138.5c0-1.2-0.9-2.2-2.2-2.2    c-0.8,0-1.5,0.4-1.8,1c-0.2,0.3-0.3,0.8-0.3,1.2c0,1.3,0.8,2.1,2.1,2.1C586.1,140.6,587,139.7,587,138.5z" fill="#1A1A1A" id="path_50" tag_name="svg/g/g_37/path_50"/>
    </g>
    <g id="g_36" tag_name="svg/g/g_36">
      <path d="M624.1,135.6c0.3,0,0.5,0.1,1,0.1h0.7c0.4,0,0.6,0,1-0.1c-0.1,0.7-0.1,1.3-0.1,1.9v5.6c0,0.5,0,0.9,0.1,1.3    h-1.1c0.1-0.4,0.1-0.8,0.1-1.3v-6.7h-0.6c-0.4,0-0.7,0-1,0.1V135.6z" fill="#1A1A1A" id="path_49" tag_name="svg/g/g_36/path_49"/>
      <path d="M630.9,143.8c-0.3-0.3-0.6-0.7-0.7-1.1c-0.3-0.8-0.4-1.7-0.4-2.7c0-1.2,0.3-2.5,0.7-3.1    c0.6-0.9,1.4-1.4,2.6-1.4c0.9,0,1.6,0.3,2.1,0.8c0.3,0.3,0.6,0.7,0.7,1.1c0.3,0.8,0.4,1.7,0.4,2.7c0,1.4-0.3,2.6-0.8,3.3    c-0.6,0.8-1.4,1.2-2.4,1.2C632.2,144.6,631.5,144.3,630.9,143.8z M631.6,136.9c-0.2,0.3-0.4,0.6-0.5,0.8c-0.2,0.7-0.4,1.5-0.4,2.3    c0,1.1,0.2,2.2,0.5,2.7c0.4,0.7,1,1,1.8,1c0.6,0,1.1-0.2,1.4-0.5c0.3-0.3,0.4-0.6,0.5-0.9c0.2-0.7,0.4-1.5,0.4-2.3    c0-1-0.2-2.1-0.5-2.7c-0.4-0.7-1-1-1.8-1C632.5,136.3,632,136.5,631.6,136.9z" fill="#1A1A1A" id="path_48" tag_name="svg/g/g_36/path_48"/>
    </g>
    <g id="g_35" tag_name="svg/g/g_35">
      <path d="M669.3,135.1c0.3,0,0.5,0.1,1,0.1h0.7c0.4,0,0.6,0,1-0.1c-0.1,0.7-0.1,1.3-0.1,1.9v5.6c0,0.5,0,0.9,0.1,1.3    h-1.1c0.1-0.4,0.1-0.8,0.1-1.3V136h-0.6c-0.4,0-0.7,0-1,0.1V135.1z" fill="#1A1A1A" id="path_47" tag_name="svg/g/g_35/path_47"/>
      <path d="M675.8,135.1c0.3,0,0.5,0.1,1,0.1h0.7c0.4,0,0.6,0,1-0.1c-0.1,0.7-0.1,1.3-0.1,1.9v5.6c0,0.5,0,0.9,0.1,1.3    h-1.1c0.1-0.4,0.1-0.8,0.1-1.3V136h-0.6c-0.4,0-0.7,0-1,0.1V135.1z" fill="#1A1A1A" id="path_46" tag_name="svg/g/g_35/path_46"/>
    </g>
    <g id="g_34" tag_name="svg/g/g_34">
      <path d="M668.4,181.7c0.3,0,0.5,0.1,1,0.1h0.7c0.4,0,0.6,0,1-0.1c-0.1,0.7-0.1,1.3-0.1,1.9v5.6c0,0.5,0,0.9,0.1,1.3    h-1.1c0.1-0.4,0.1-0.8,0.1-1.3v-6.7h-0.6c-0.4,0-0.7,0-1,0.1V181.7z" fill="#1A1A1A" id="path_45" tag_name="svg/g/g_34/path_45"/>
      <path d="M679.1,186.5c0.6,0.4,0.9,1,0.9,1.8c0,1.6-1.2,2.5-3.2,2.5c-2.1,0-3.3-0.9-3.3-2.5c0-0.8,0.3-1.5,1-1.9    c0.4-0.2,0.6-0.3,1-0.4c-1-0.2-1.7-1-1.7-2.1c0-1.4,1.1-2.3,2.8-2.3c1.8,0,2.8,0.9,2.8,2.3c0,1.1-0.6,1.9-1.7,2.1    C678.4,186,678.7,186.2,679.1,186.5z M674.4,188.2c0,1.1,0.8,1.7,2.3,1.7c0.8,0,1.5-0.2,1.9-0.6c0.3-0.3,0.4-0.7,0.4-1.1    c0-1.1-0.9-1.8-2.3-1.8C675.3,186.4,674.4,187.1,674.4,188.2z M674.8,183.9c0,1,0.7,1.7,1.9,1.7c1.2,0,1.9-0.6,1.9-1.7    c0-1-0.8-1.6-2-1.6C675.6,182.4,674.8,183,674.8,183.9z" fill="#1A1A1A" id="path_44" tag_name="svg/g/g_34/path_44"/>
    </g>
    <g id="g_33" tag_name="svg/g/g_33">
      <path d="M397.5,226.9c0.3,0,0.5,0.1,1,0.1h0.7c0.4,0,0.6,0,1-0.1c-0.1,0.7-0.1,1.3-0.1,1.9v5.6c0,0.5,0,0.9,0.1,1.3    H399c0.1-0.4,0.1-0.8,0.1-1.3v-6.7h-0.6c-0.4,0-0.7,0-1,0.1V226.9z" fill="#1A1A1A" id="path_43" tag_name="svg/g/g_33/path_43"/>
      <path d="M403.7,233.8c0.1,0.4,0.2,0.5,0.4,0.7c0.3,0.4,0.8,0.5,1.5,0.5c0.8,0,1.4-0.3,1.9-1.1    c0.2-0.4,0.4-0.9,0.5-1.5c0-0.3,0.1-0.8,0.1-1.3c-0.2,0.3-0.3,0.4-0.5,0.6c-0.6,0.6-1.2,0.8-2.1,0.8c-0.9,0-1.6-0.3-2.1-0.8    c-0.5-0.5-0.8-1.3-0.8-2.1c0-1.8,1.2-3,3.1-3c1.3,0,2.4,0.7,2.8,1.9c0.2,0.6,0.3,1.4,0.3,2.4c0,1.6-0.3,2.9-1,3.7    c-0.6,0.7-1.3,1.1-2.4,1.1c-0.8,0-1.4-0.2-1.9-0.6c-0.3-0.3-0.5-0.5-0.8-1.1L403.7,233.8z M407.8,229.7c0-1.2-0.9-2.2-2.2-2.2    c-0.8,0-1.5,0.4-1.8,1c-0.2,0.3-0.3,0.8-0.3,1.2c0,1.3,0.8,2.1,2.1,2.1C406.9,231.9,407.8,231,407.8,229.7z" fill="#1A1A1A" id="path_42" tag_name="svg/g/g_33/path_42"/>
    </g>
    <g id="g_32" tag_name="svg/g/g_32">
      <path d="M443.6,235.7c-0.7,0-0.9,0-1.3,0.1c0.1-0.9,0.2-1.1,0.3-1.5c0.3-0.7,0.8-1.4,1.5-2c0.4-0.3,0.4-0.4,1.8-1.3    c1.1-0.8,1.5-1.3,1.5-2c0-0.9-0.7-1.4-1.9-1.4c-0.8,0-1.3,0.3-1.7,0.8c-0.2,0.3-0.3,0.6-0.4,1.2l-1-0.2c0.2-0.8,0.3-1.2,0.7-1.7    c0.5-0.6,1.3-0.9,2.3-0.9c1.7,0,2.9,0.9,2.9,2.2c0,0.6-0.2,1.1-0.7,1.6c-0.3,0.4-0.6,0.6-2,1.5c-0.9,0.6-1.3,0.9-1.7,1.4    c-0.4,0.5-0.5,0.8-0.7,1.3h3.7c0.6,0,1,0,1.4-0.1v1c-0.5,0-0.8-0.1-1.4-0.1H443.6z" fill="#1A1A1A" id="path_41" tag_name="svg/g/g_32/path_41"/>
      <path d="M450.9,235.1c-0.3-0.3-0.6-0.7-0.7-1.1c-0.3-0.8-0.4-1.7-0.4-2.7c0-1.2,0.3-2.5,0.7-3.1    c0.6-0.9,1.4-1.4,2.6-1.4c0.9,0,1.6,0.3,2.1,0.8c0.3,0.3,0.6,0.7,0.7,1.1c0.3,0.8,0.4,1.7,0.4,2.7c0,1.4-0.3,2.6-0.8,3.3    c-0.6,0.8-1.4,1.2-2.4,1.2C452.1,235.9,451.4,235.6,450.9,235.1z M451.6,228.2c-0.2,0.3-0.4,0.6-0.5,0.8c-0.2,0.7-0.4,1.5-0.4,2.3    c0,1.1,0.2,2.2,0.5,2.7c0.4,0.7,1,1,1.8,1c0.6,0,1.1-0.2,1.4-0.5c0.3-0.3,0.4-0.6,0.5-0.9c0.2-0.7,0.4-1.5,0.4-2.3    c0-1-0.2-2.1-0.5-2.7c-0.4-0.7-1-1-1.8-1C452.4,227.6,451.9,227.8,451.6,228.2z" fill="#1A1A1A" id="path_40" tag_name="svg/g/g_32/path_40"/>
    </g>
    <g id="g_31" tag_name="svg/g/g_31">
      <path d="M489.4,235.7c-0.7,0-0.9,0-1.3,0.1c0.1-0.9,0.2-1.1,0.3-1.5c0.3-0.7,0.8-1.4,1.5-2c0.4-0.3,0.4-0.4,1.8-1.3    c1.1-0.8,1.5-1.3,1.5-2c0-0.9-0.7-1.4-1.9-1.4c-0.8,0-1.3,0.3-1.7,0.8c-0.2,0.3-0.3,0.6-0.4,1.2l-1-0.2c0.2-0.8,0.3-1.2,0.7-1.7    c0.5-0.6,1.3-0.9,2.3-0.9c1.7,0,2.9,0.9,2.9,2.2c0,0.6-0.2,1.1-0.7,1.6c-0.3,0.4-0.6,0.6-2,1.5c-0.9,0.6-1.3,0.9-1.7,1.4    c-0.4,0.5-0.5,0.8-0.7,1.3h3.7c0.6,0,1,0,1.4-0.1v1c-0.5,0-0.8-0.1-1.4-0.1H489.4z" fill="#1A1A1A" id="path_39" tag_name="svg/g/g_31/path_39"/>
      <path d="M496.7,226.9c0.3,0,0.5,0.1,1,0.1h0.7c0.4,0,0.6,0,1-0.1c-0.1,0.7-0.1,1.3-0.1,1.9v5.6c0,0.5,0,0.9,0.1,1.3    h-1.1c0.1-0.4,0.1-0.8,0.1-1.3v-6.7h-0.6c-0.4,0-0.7,0-1,0.1V226.9z" fill="#1A1A1A" id="path_38" tag_name="svg/g/g_31/path_38"/>
    </g>
    <g id="g_30" tag_name="svg/g/g_30">
      <path d="M534.5,235.7c-0.7,0-0.9,0-1.3,0.1c0.1-0.9,0.2-1.1,0.3-1.5c0.3-0.7,0.8-1.4,1.5-2c0.4-0.3,0.4-0.4,1.8-1.3    c1.1-0.8,1.5-1.3,1.5-2c0-0.9-0.7-1.4-1.9-1.4c-0.8,0-1.3,0.3-1.7,0.8c-0.2,0.3-0.3,0.6-0.4,1.2l-1-0.2c0.2-0.8,0.3-1.2,0.7-1.7    c0.5-0.6,1.3-0.9,2.3-0.9c1.7,0,2.9,0.9,2.9,2.2c0,0.6-0.2,1.1-0.7,1.6c-0.3,0.4-0.6,0.6-2,1.5c-0.9,0.6-1.3,0.9-1.7,1.4    c-0.4,0.5-0.5,0.8-0.7,1.3h3.7c0.6,0,1,0,1.4-0.1v1c-0.5,0-0.8-0.1-1.4-0.1H534.5z" fill="#1A1A1A" id="path_37" tag_name="svg/g/g_30/path_37"/>
      <path d="M541.9,235.7c-0.7,0-0.9,0-1.3,0.1c0.1-0.9,0.2-1.1,0.3-1.5c0.3-0.7,0.8-1.4,1.5-2c0.4-0.3,0.4-0.4,1.8-1.3    c1.1-0.8,1.5-1.3,1.5-2c0-0.9-0.7-1.4-1.9-1.4c-0.8,0-1.3,0.3-1.7,0.8c-0.2,0.3-0.3,0.6-0.4,1.2l-1-0.2c0.2-0.8,0.3-1.2,0.7-1.7    c0.5-0.6,1.3-0.9,2.3-0.9c1.7,0,2.9,0.9,2.9,2.2c0,0.6-0.2,1.1-0.7,1.6c-0.3,0.4-0.6,0.6-2,1.5c-0.9,0.6-1.3,0.9-1.7,1.4    c-0.4,0.5-0.5,0.8-0.7,1.3h3.7c0.6,0,1,0,1.4-0.1v1c-0.5,0-0.8-0.1-1.4-0.1H541.9z" fill="#1A1A1A" id="path_36" tag_name="svg/g/g_30/path_36"/>
    </g>
    <g id="g_29" tag_name="svg/g/g_29">
      <path d="M668.9,235.1c-0.7,0-0.9,0-1.3,0.1c0.1-0.9,0.2-1.1,0.3-1.5c0.3-0.7,0.8-1.4,1.5-2c0.4-0.3,0.4-0.4,1.8-1.3    c1.1-0.8,1.5-1.3,1.5-2c0-0.9-0.7-1.4-1.9-1.4c-0.8,0-1.3,0.3-1.7,0.7c-0.2,0.3-0.3,0.6-0.4,1.2l-1-0.2c0.2-0.8,0.3-1.2,0.7-1.7    c0.5-0.6,1.3-0.9,2.3-0.9c1.7,0,2.9,0.9,2.9,2.2c0,0.6-0.2,1.1-0.7,1.6c-0.3,0.4-0.6,0.6-2,1.5c-0.9,0.6-1.3,0.9-1.7,1.4    c-0.4,0.5-0.5,0.8-0.7,1.3h3.7c0.6,0,1,0,1.4-0.1v1c-0.5,0-0.8-0.1-1.4-0.1H668.9z" fill="#1A1A1A" id="path_35" tag_name="svg/g/g_29/path_35"/>
      <path d="M676.4,229.7c0,0.2,0,0.2-0.1,0.5c0.6-0.5,1.2-0.8,2-0.8c0.8,0,1.6,0.3,2.1,0.8c0.5,0.5,0.8,1.2,0.8,2    c0,1.9-1.2,3-3.1,3c-0.9,0-1.6-0.3-2.2-0.8c-0.3-0.3-0.5-0.5-0.7-1.1l0.9-0.3c0.1,0.3,0.2,0.5,0.4,0.7c0.4,0.4,1,0.7,1.6,0.7    c1.3,0,2.2-0.9,2.2-2.2c0-1.3-0.8-2.1-2-2.1c-0.6,0-1.1,0.2-1.5,0.5c-0.3,0.2-0.4,0.4-0.5,0.7l-0.9-0.1c0.1-0.5,0.1-0.7,0.2-1.2    l0.3-2.6c0-0.3,0-0.5,0-0.7c0-0.2,0-0.2,0-0.5c0.4,0,0.5,0.1,1.2,0.1h2.4c0.6,0,0.9,0,1.3-0.1v1c-0.4-0.1-0.8-0.1-1.3-0.1h-2.7    L676.4,229.7z" fill="#1A1A1A" id="path_34" tag_name="svg/g/g_29/path_34"/>
    </g>
    <g id="g_28" tag_name="svg/g/g_28">
      <path d="M395.9,281.2c-0.7,0-0.9,0-1.3,0.1c0.1-0.9,0.2-1.1,0.3-1.5c0.3-0.7,0.8-1.4,1.5-2c0.4-0.3,0.4-0.4,1.8-1.3    c1.1-0.8,1.5-1.3,1.5-2c0-0.9-0.7-1.4-1.9-1.4c-0.8,0-1.3,0.3-1.7,0.7c-0.2,0.3-0.3,0.6-0.4,1.2l-1-0.2c0.2-0.8,0.3-1.2,0.7-1.7    c0.5-0.6,1.3-0.9,2.3-0.9c1.7,0,2.9,0.9,2.9,2.2c0,0.6-0.2,1.1-0.7,1.6c-0.3,0.4-0.6,0.6-2,1.5c-0.9,0.6-1.3,0.9-1.7,1.4    c-0.4,0.5-0.5,0.8-0.7,1.3h3.7c0.6,0,1,0,1.4-0.1v1c-0.5,0-0.8-0.1-1.4-0.1H395.9z" fill="#1A1A1A" id="path_33" tag_name="svg/g/g_28/path_33"/>
      <path d="M407.3,274.4c-0.2-0.4-0.2-0.5-0.4-0.7c-0.3-0.4-0.8-0.6-1.4-0.6c-0.9,0-1.6,0.5-2,1.4    c-0.3,0.7-0.4,1.2-0.5,2.5c0.2-0.4,0.3-0.5,0.6-0.7c0.5-0.5,1.2-0.7,1.9-0.7c1.8,0,2.9,1.1,2.9,2.9c0,1.8-1.2,3-3,3    c-0.8,0-1.6-0.3-2.1-0.7c-0.8-0.7-1.2-2-1.2-3.6c0-1.4,0.3-2.7,0.9-3.5c0.6-0.8,1.4-1.3,2.4-1.3c0.7,0,1.3,0.2,1.8,0.5    c0.4,0.3,0.6,0.6,1,1.3L407.3,274.4z M405.5,276.3c-0.6,0-1.2,0.3-1.6,0.7c-0.4,0.4-0.6,0.9-0.6,1.5c0,1.2,0.9,2.2,2.2,2.2    c0.8,0,1.4-0.4,1.8-0.9c0.2-0.3,0.3-0.8,0.3-1.2C407.6,277.1,406.8,276.3,405.5,276.3z" fill="#1A1A1A" id="path_32" tag_name="svg/g/g_28/path_32"/>
    </g>
    <g id="g_27" tag_name="svg/g/g_27">
      <path d="M441.9,281.2c-0.7,0-0.9,0-1.3,0.1c0.1-0.9,0.2-1.1,0.3-1.5c0.3-0.7,0.8-1.4,1.5-2c0.4-0.3,0.4-0.4,1.8-1.3    c1.1-0.8,1.5-1.3,1.5-2c0-0.9-0.7-1.4-1.9-1.4c-0.8,0-1.3,0.3-1.7,0.7c-0.2,0.3-0.3,0.6-0.4,1.2l-1-0.2c0.2-0.8,0.3-1.2,0.7-1.7    c0.5-0.6,1.3-0.9,2.3-0.9c1.7,0,2.9,0.9,2.9,2.2c0,0.6-0.2,1.1-0.7,1.6c-0.3,0.4-0.6,0.6-2,1.5c-0.9,0.6-1.3,0.9-1.7,1.4    c-0.4,0.5-0.5,0.8-0.7,1.3h3.7c0.6,0,1,0,1.4-0.1v1c-0.5,0-0.8-0.1-1.4-0.1H441.9z" fill="#1A1A1A" id="path_31" tag_name="svg/g/g_27/path_31"/>
      <path d="M454.3,273.2c-0.2,0.2-0.4,0.4-0.9,1.1c-1,1.6-1.5,2.6-2,4c-0.3,1-0.4,1.5-0.6,2.9h-1.1    c0.4-2.1,0.7-3.1,1.4-4.6c0.6-1.2,1-1.9,2.1-3.3h-3.7c-0.5,0-0.9,0-1.3,0.1v-1c0.5,0.1,0.8,0.1,1.3,0.1h3.5c0.7,0,0.9,0,1.3-0.1    V273.2z" fill="#1A1A1A" id="path_30" tag_name="svg/g/g_27/path_30"/>
    </g>
    <g id="g_26" tag_name="svg/g/g_26">
      <path d="M486.6,281.2c-0.7,0-0.9,0-1.3,0.1c0.1-0.9,0.2-1.1,0.3-1.5c0.3-0.7,0.8-1.4,1.5-2c0.4-0.3,0.4-0.4,1.8-1.3    c1.1-0.8,1.5-1.3,1.5-2c0-0.9-0.7-1.4-1.9-1.4c-0.8,0-1.3,0.3-1.7,0.7c-0.2,0.3-0.3,0.6-0.4,1.2l-1-0.2c0.2-0.8,0.3-1.2,0.7-1.7    c0.5-0.6,1.3-0.9,2.3-0.9c1.7,0,2.9,0.9,2.9,2.2c0,0.6-0.2,1.1-0.7,1.6c-0.3,0.4-0.6,0.6-2,1.5c-0.9,0.6-1.3,0.9-1.7,1.4    c-0.4,0.5-0.5,0.8-0.7,1.3h3.7c0.6,0,1,0,1.4-0.1v1c-0.5,0-0.8-0.1-1.4-0.1H486.6z" fill="#1A1A1A" id="path_29" tag_name="svg/g/g_26/path_29"/>
      <path d="M498.3,277.1c0.6,0.4,0.9,1,0.9,1.8c0,1.6-1.2,2.5-3.2,2.5c-2.1,0-3.3-0.9-3.3-2.5c0-0.8,0.3-1.5,1-1.9    c0.4-0.2,0.6-0.3,1-0.4c-1-0.2-1.7-1-1.7-2.1c0-1.4,1.1-2.3,2.8-2.3c1.8,0,2.8,0.9,2.8,2.3c0,1.1-0.6,1.9-1.7,2.1    C497.6,276.7,497.9,276.8,498.3,277.1z M493.6,278.9c0,1.1,0.8,1.7,2.3,1.7c0.8,0,1.5-0.2,1.9-0.6c0.3-0.3,0.4-0.7,0.4-1.1    c0-1.1-0.9-1.8-2.3-1.8C494.5,277.1,493.6,277.8,493.6,278.9z M494,274.6c0,1,0.7,1.7,1.9,1.7c1.2,0,1.9-0.6,1.9-1.7    c0-1-0.8-1.6-2-1.6C494.7,273,494,273.7,494,274.6z" fill="#1A1A1A" id="path_28" tag_name="svg/g/g_26/path_28"/>
    </g>
    <g id="g_25" tag_name="svg/g/g_25">
      <path d="M532.7,281.2c-0.7,0-0.9,0-1.3,0.1c0.1-0.9,0.2-1.1,0.3-1.5c0.3-0.7,0.8-1.4,1.5-2c0.4-0.3,0.4-0.4,1.8-1.3    c1.1-0.8,1.5-1.3,1.5-2c0-0.9-0.7-1.4-1.9-1.4c-0.8,0-1.3,0.3-1.7,0.7c-0.2,0.3-0.3,0.6-0.4,1.2l-1-0.2c0.2-0.8,0.3-1.2,0.7-1.7    c0.5-0.6,1.3-0.9,2.3-0.9c1.7,0,2.9,0.9,2.9,2.2c0,0.6-0.2,1.1-0.7,1.6c-0.3,0.4-0.6,0.6-2,1.5c-0.9,0.6-1.3,0.9-1.7,1.4    c-0.4,0.5-0.5,0.8-0.7,1.3h3.7c0.6,0,1,0,1.4-0.1v1c-0.5,0-0.8-0.1-1.4-0.1H532.7z" fill="#1A1A1A" id="path_27" tag_name="svg/g/g_25/path_27"/>
      <path d="M539.9,279.3c0.1,0.4,0.2,0.5,0.4,0.7c0.3,0.4,0.8,0.5,1.5,0.5c0.8,0,1.4-0.3,1.9-1.1    c0.2-0.4,0.4-0.9,0.5-1.5c0-0.3,0.1-0.8,0.1-1.3c-0.2,0.3-0.3,0.4-0.5,0.6c-0.6,0.6-1.2,0.8-2.1,0.8c-0.9,0-1.6-0.3-2.1-0.8    c-0.5-0.5-0.8-1.3-0.8-2.1c0-1.8,1.2-3,3.1-3c1.3,0,2.4,0.7,2.8,1.9c0.2,0.6,0.3,1.4,0.3,2.4c0,1.6-0.3,2.9-1,3.7    c-0.6,0.7-1.3,1.1-2.4,1.1c-0.8,0-1.4-0.2-1.9-0.6c-0.3-0.3-0.5-0.5-0.8-1.1L539.9,279.3z M544,275.2c0-1.2-0.9-2.2-2.2-2.2    c-0.8,0-1.5,0.4-1.8,1c-0.2,0.3-0.3,0.8-0.3,1.2c0,1.3,0.8,2.1,2.1,2.1C543,277.4,544,276.5,544,275.2z" fill="#1A1A1A" id="path_26" tag_name="svg/g/g_25/path_26"/>
    </g>
    <g id="g_24" tag_name="svg/g/g_24">
      <path d="M577.6,279.1c0.2,0.6,0.3,0.8,0.7,1.1c0.4,0.3,0.9,0.4,1.5,0.4c1.3,0,2.2-0.7,2.2-1.8c0-1.1-0.8-1.8-2.4-1.8    c-0.3,0-0.6,0-0.9,0.1v-0.9c0.3,0,0.5,0.1,0.9,0.1c0.8,0,1.3-0.2,1.7-0.5c0.3-0.3,0.5-0.7,0.5-1.1c0-1-0.7-1.6-1.9-1.6    c-0.7,0-1.2,0.2-1.5,0.6c-0.2,0.2-0.2,0.4-0.4,0.8l-1-0.2c0.2-0.6,0.3-0.9,0.6-1.2c0.5-0.6,1.3-0.8,2.3-0.8c1.7,0,2.7,0.9,2.7,2.3    c0,0.7-0.3,1.3-0.8,1.7c-0.3,0.2-0.6,0.3-1.1,0.4c0.7,0.1,1,0.2,1.4,0.5c0.5,0.4,0.8,1,0.8,1.7c0,1.6-1.2,2.5-3.1,2.5    c-1.2,0-2-0.3-2.6-0.9c-0.2-0.3-0.4-0.5-0.6-1.1L577.6,279.1z" fill="#1A1A1A" id="path_25" tag_name="svg/g/g_24/path_25"/>
      <path d="M585.3,280.6c-0.3-0.3-0.6-0.7-0.7-1.1c-0.3-0.8-0.4-1.7-0.4-2.7c0-1.2,0.3-2.5,0.7-3.1    c0.6-0.9,1.4-1.4,2.6-1.4c0.9,0,1.6,0.3,2.1,0.8c0.3,0.3,0.6,0.7,0.7,1.1c0.3,0.8,0.4,1.7,0.4,2.7c0,1.4-0.3,2.6-0.8,3.3    c-0.6,0.8-1.4,1.2-2.4,1.2C586.5,281.4,585.8,281.1,585.3,280.6z M585.9,273.7c-0.2,0.3-0.4,0.6-0.5,0.8c-0.2,0.7-0.4,1.5-0.4,2.3    c0,1.1,0.2,2.2,0.5,2.7c0.4,0.7,1,1,1.8,1c0.6,0,1.1-0.2,1.4-0.5c0.3-0.3,0.4-0.6,0.5-0.9c0.2-0.7,0.4-1.5,0.4-2.3    c0-1-0.2-2.1-0.5-2.7c-0.4-0.7-1-1-1.8-1C586.8,273.1,586.3,273.3,585.9,273.7z" fill="#1A1A1A" id="path_24" tag_name="svg/g/g_24/path_24"/>
    </g>
    <g id="g_23" tag_name="svg/g/g_23">
      <path d="M624,279.1c0.2,0.6,0.3,0.8,0.7,1.1c0.4,0.3,0.9,0.4,1.5,0.4c1.3,0,2.2-0.7,2.2-1.8c0-1.1-0.8-1.8-2.4-1.8    c-0.3,0-0.6,0-0.9,0.1v-0.9c0.3,0,0.5,0.1,0.9,0.1c0.8,0,1.3-0.2,1.7-0.5c0.3-0.3,0.5-0.7,0.5-1.1c0-1-0.7-1.6-1.9-1.6    c-0.7,0-1.2,0.2-1.5,0.6c-0.2,0.2-0.2,0.4-0.4,0.8l-1-0.2c0.2-0.6,0.3-0.9,0.6-1.2c0.5-0.6,1.3-0.8,2.3-0.8c1.7,0,2.7,0.9,2.7,2.3    c0,0.7-0.3,1.3-0.8,1.7c-0.3,0.2-0.6,0.3-1.1,0.4c0.7,0.1,1,0.2,1.4,0.5c0.5,0.4,0.8,1,0.8,1.7c0,1.6-1.2,2.5-3.1,2.5    c-1.2,0-2-0.3-2.6-0.9c-0.2-0.3-0.4-0.5-0.6-1.1L624,279.1z" fill="#1A1A1A" id="path_23" tag_name="svg/g/g_23/path_23"/>
      <path d="M631.8,272.4c0.3,0,0.5,0.1,1,0.1h0.7c0.4,0,0.6,0,1-0.1c-0.1,0.7-0.1,1.3-0.1,1.9v5.6c0,0.5,0,0.9,0.1,1.3    h-1.1c0.1-0.4,0.1-0.8,0.1-1.3v-6.7h-0.6c-0.4,0-0.7,0-1,0.1V272.4z" fill="#1A1A1A" id="path_22" tag_name="svg/g/g_23/path_22"/>
    </g>
    <g id="g_22" tag_name="svg/g/g_22">
      <path d="M579.6,235.7c-0.7,0-0.9,0-1.3,0.1c0.1-0.9,0.2-1.1,0.3-1.5c0.3-0.7,0.8-1.4,1.5-2c0.4-0.3,0.4-0.4,1.8-1.3    c1.1-0.8,1.5-1.3,1.5-2c0-0.9-0.7-1.4-1.9-1.4c-0.8,0-1.3,0.3-1.7,0.8c-0.2,0.3-0.3,0.6-0.4,1.2l-1-0.2c0.2-0.8,0.3-1.2,0.7-1.7    c0.5-0.6,1.3-0.9,2.3-0.9c1.7,0,2.9,0.9,2.9,2.2c0,0.6-0.2,1.1-0.7,1.6c-0.3,0.4-0.6,0.6-2,1.5c-0.9,0.6-1.3,0.9-1.7,1.4    c-0.4,0.5-0.5,0.8-0.7,1.3h3.7c0.6,0,1,0,1.4-0.1v1c-0.5,0-0.8-0.1-1.4-0.1H579.6z" fill="#1A1A1A" id="path_21" tag_name="svg/g/g_22/path_21"/>
      <path d="M586.8,233.6c0.2,0.6,0.3,0.8,0.7,1.1c0.4,0.3,0.9,0.4,1.5,0.4c1.3,0,2.2-0.7,2.2-1.8c0-1.1-0.8-1.8-2.4-1.8    c-0.3,0-0.6,0-0.9,0.1v-0.9c0.3,0,0.5,0.1,0.9,0.1c0.8,0,1.3-0.2,1.7-0.5c0.3-0.3,0.5-0.7,0.5-1.1c0-1-0.7-1.6-1.9-1.6    c-0.7,0-1.2,0.2-1.5,0.6c-0.2,0.2-0.2,0.4-0.4,0.8l-1-0.2c0.2-0.6,0.3-0.9,0.6-1.2c0.5-0.6,1.3-0.8,2.3-0.8c1.7,0,2.7,0.9,2.7,2.3    c0,0.7-0.3,1.3-0.8,1.7c-0.3,0.2-0.6,0.3-1.1,0.4c0.7,0.1,1,0.2,1.4,0.5c0.5,0.4,0.8,1,0.8,1.7c0,1.6-1.2,2.5-3.1,2.5    c-1.2,0-2-0.3-2.6-0.9c-0.2-0.3-0.4-0.5-0.6-1.1L586.8,233.6z" fill="#1A1A1A" id="path_20" tag_name="svg/g/g_22/path_20"/>
    </g>
    <g id="g_21" tag_name="svg/g/g_21">
      <path d="M624.2,235.7c-0.7,0-0.9,0-1.3,0.1c0.1-0.9,0.2-1.1,0.3-1.5c0.3-0.7,0.8-1.4,1.5-2c0.4-0.3,0.4-0.4,1.8-1.3    c1.1-0.8,1.5-1.3,1.5-2c0-0.9-0.7-1.4-1.9-1.4c-0.8,0-1.3,0.3-1.7,0.8c-0.2,0.3-0.3,0.6-0.4,1.2l-1-0.2c0.2-0.8,0.3-1.2,0.7-1.7    c0.5-0.6,1.3-0.9,2.3-0.9c1.7,0,2.9,0.9,2.9,2.2c0,0.6-0.2,1.1-0.7,1.6c-0.3,0.4-0.6,0.6-2,1.5c-0.9,0.6-1.3,0.9-1.7,1.4    c-0.4,0.5-0.5,0.8-0.7,1.3h3.7c0.6,0,1,0,1.4-0.1v1c-0.5,0-0.8-0.1-1.4-0.1H624.2z" fill="#1A1A1A" id="path_19" tag_name="svg/g/g_21/path_19"/>
      <path d="M629.9,232.7c0.2-0.3,0.5-0.6,0.8-0.9l2.9-3.6c0.4-0.5,0.6-0.8,0.9-1.2h0.9c-0.1,0.7-0.1,1-0.1,1.9v3.8h0.4    c0.5,0,0.8,0,1.2-0.1v1c-0.4-0.1-0.7-0.1-1.2-0.1h-0.4v1c0,0.6,0,0.8,0.1,1.2h-1c0.1-0.4,0.1-0.7,0.1-1.2v-1h-3.1    c-0.6,0-1,0-1.4,0V232.7z M634.3,229.8c0-0.6,0-1,0.1-1.6c-0.2,0.3-0.5,0.7-0.9,1.2l-2.7,3.3h3.4V229.8z" fill="#1A1A1A" id="path_18" tag_name="svg/g/g_21/path_18"/>
    </g>
    <g id="g_20" tag_name="svg/g/g_20">
      <path d="M397.1,181.2c0.3,0,0.5,0.1,1,0.1h0.7c0.4,0,0.6,0,1-0.1c-0.1,0.7-0.1,1.3-0.1,1.9v5.6c0,0.5,0,0.9,0.1,1.3    h-1.1c0.1-0.4,0.1-0.8,0.1-1.3v-6.7h-0.6c-0.4,0-0.7,0-1,0.1V181.2z" fill="#1A1A1A" id="path_17" tag_name="svg/g/g_20/path_17"/>
      <path d="M403.6,190.1c-0.7,0-0.9,0-1.3,0.1c0.1-0.9,0.2-1.1,0.3-1.5c0.3-0.7,0.8-1.4,1.5-2c0.4-0.3,0.4-0.4,1.8-1.3    c1.1-0.8,1.5-1.3,1.5-2c0-0.9-0.7-1.4-1.9-1.4c-0.8,0-1.3,0.3-1.7,0.8c-0.2,0.3-0.3,0.6-0.4,1.2l-1-0.2c0.2-0.8,0.3-1.2,0.7-1.7    c0.5-0.6,1.3-0.9,2.3-0.9c1.7,0,2.9,0.9,2.9,2.2c0,0.6-0.2,1.1-0.7,1.6c-0.3,0.4-0.6,0.6-2,1.5c-0.9,0.6-1.3,0.9-1.7,1.4    c-0.4,0.5-0.5,0.8-0.7,1.3h3.7c0.6,0,1,0,1.4-0.1v1c-0.5,0-0.8-0.1-1.4-0.1H403.6z" fill="#1A1A1A" id="path_16" tag_name="svg/g/g_20/path_16"/>
    </g>
    <g id="g_19" tag_name="svg/g/g_19">
      <path d="M442.7,181.2c0.3,0,0.5,0.1,1,0.1h0.7c0.4,0,0.6,0,1-0.1c-0.1,0.7-0.1,1.3-0.1,1.9v5.6c0,0.5,0,0.9,0.1,1.3    h-1.1c0.1-0.4,0.1-0.8,0.1-1.3v-6.7h-0.6c-0.4,0-0.7,0-1,0.1V181.2z" fill="#1A1A1A" id="path_15" tag_name="svg/g/g_19/path_15"/>
      <path d="M448.7,187.9c0.2,0.6,0.3,0.8,0.7,1.1c0.4,0.3,0.9,0.4,1.5,0.4c1.3,0,2.2-0.7,2.2-1.8c0-1.1-0.8-1.8-2.4-1.8    c-0.3,0-0.6,0-0.9,0.1V185c0.3,0,0.5,0.1,0.9,0.1c0.8,0,1.3-0.2,1.7-0.5c0.3-0.3,0.5-0.7,0.5-1.1c0-1-0.7-1.6-1.9-1.6    c-0.7,0-1.2,0.2-1.5,0.6c-0.2,0.2-0.2,0.4-0.4,0.8l-1-0.2c0.2-0.6,0.3-0.9,0.6-1.2c0.5-0.6,1.3-0.8,2.3-0.8c1.7,0,2.7,0.9,2.7,2.3    c0,0.7-0.3,1.3-0.8,1.7c-0.3,0.2-0.6,0.3-1.1,0.4c0.7,0.1,1,0.2,1.4,0.5c0.5,0.4,0.8,1,0.8,1.7c0,1.6-1.2,2.5-3.1,2.5    c-1.2,0-2-0.3-2.6-0.9c-0.2-0.3-0.4-0.5-0.6-1.1L448.7,187.9z" fill="#1A1A1A" id="path_14" tag_name="svg/g/g_19/path_14"/>
    </g>
    <g id="g_18" tag_name="svg/g/g_18">
      <path d="M488.7,181.2c0.3,0,0.5,0.1,1,0.1h0.7c0.4,0,0.6,0,1-0.1c-0.1,0.7-0.1,1.3-0.1,1.9v5.6c0,0.5,0,0.9,0.1,1.3    h-1.1c0.1-0.4,0.1-0.8,0.1-1.3v-6.7h-0.6c-0.4,0-0.7,0-1,0.1V181.2z" fill="#1A1A1A" id="path_13" tag_name="svg/g/g_18/path_13"/>
      <path d="M493.6,187c0.2-0.3,0.5-0.6,0.8-0.9l2.9-3.6c0.4-0.5,0.6-0.8,0.9-1.2h0.9c-0.1,0.7-0.1,1-0.1,1.9v3.8h0.4    c0.5,0,0.8,0,1.2-0.1v1c-0.4-0.1-0.7-0.1-1.2-0.1H499v1c0,0.6,0,0.8,0.1,1.2h-1c0.1-0.4,0.1-0.7,0.1-1.2v-1H495c-0.6,0-1,0-1.4,0    V187z M498.1,184.1c0-0.6,0-1,0.1-1.6c-0.2,0.3-0.5,0.7-0.9,1.2l-2.7,3.3h3.4V184.1z" fill="#1A1A1A" id="path_12" tag_name="svg/g/g_18/path_12"/>
    </g>
    <g id="g_17" tag_name="svg/g/g_17">
      <path d="M533.6,181.2c0.3,0,0.5,0.1,1,0.1h0.7c0.4,0,0.6,0,1-0.1c-0.1,0.7-0.1,1.3-0.1,1.9v5.6c0,0.5,0,0.9,0.1,1.3    h-1.1c0.1-0.4,0.1-0.8,0.1-1.3v-6.7h-0.6c-0.4,0-0.7,0-1,0.1V181.2z" fill="#1A1A1A" id="path_11" tag_name="svg/g/g_17/path_11"/>
      <path d="M540.2,184.7c0,0.2,0,0.2-0.1,0.5c0.6-0.5,1.2-0.8,2-0.8c0.8,0,1.6,0.3,2.1,0.8c0.5,0.5,0.8,1.2,0.8,2    c0,1.9-1.2,3-3.1,3c-0.9,0-1.6-0.3-2.2-0.8c-0.3-0.3-0.5-0.5-0.7-1.1l0.9-0.3c0.1,0.3,0.2,0.5,0.4,0.7c0.4,0.4,1,0.7,1.6,0.7    c1.3,0,2.2-0.9,2.2-2.2c0-1.3-0.8-2.1-2-2.1c-0.6,0-1.1,0.2-1.5,0.5c-0.3,0.2-0.4,0.4-0.5,0.7l-0.9-0.1c0.1-0.5,0.1-0.7,0.2-1.2    l0.3-2.6c0-0.3,0-0.5,0-0.7c0-0.2,0-0.2,0-0.5c0.4,0,0.5,0.1,1.2,0.1h2.4c0.6,0,0.9,0,1.3-0.1v1c-0.4-0.1-0.8-0.1-1.3-0.1h-2.7    L540.2,184.7z" fill="#1A1A1A" id="path_10" tag_name="svg/g/g_17/path_10"/>
    </g>
    <g id="g_16" tag_name="svg/g/g_16">
      <path d="M580.3,181.2c0.3,0,0.5,0.1,1,0.1h0.7c0.4,0,0.6,0,1-0.1c-0.1,0.7-0.1,1.3-0.1,1.9v5.6c0,0.5,0,0.9,0.1,1.3    h-1.1c0.1-0.4,0.1-0.8,0.1-1.3v-6.7h-0.6c-0.4,0-0.7,0-1,0.1V181.2z" fill="#1A1A1A" id="path_9" tag_name="svg/g/g_16/path_9"/>
      <path d="M590.6,183.2c-0.2-0.4-0.2-0.5-0.4-0.7c-0.3-0.4-0.8-0.6-1.4-0.6c-0.9,0-1.6,0.5-2,1.4    c-0.3,0.7-0.4,1.2-0.5,2.5c0.2-0.4,0.3-0.5,0.6-0.7c0.5-0.5,1.2-0.7,1.9-0.7c1.8,0,2.9,1.1,2.9,2.9c0,1.8-1.2,3-3,3    c-0.8,0-1.6-0.3-2.1-0.7c-0.8-0.7-1.2-2-1.2-3.6c0-1.4,0.3-2.7,0.9-3.5c0.6-0.8,1.4-1.3,2.4-1.3c0.7,0,1.3,0.2,1.8,0.5    c0.4,0.3,0.6,0.6,1,1.3L590.6,183.2z M588.8,185.2c-0.6,0-1.2,0.3-1.6,0.7c-0.4,0.4-0.6,0.9-0.6,1.5c0,1.2,0.9,2.2,2.2,2.2    c0.8,0,1.4-0.4,1.8-0.9c0.2-0.3,0.3-0.8,0.3-1.2C590.9,185.9,590.1,185.2,588.8,185.2z" fill="#1A1A1A" id="path_8" tag_name="svg/g/g_16/path_8"/>
    </g>
    <g id="g_15" tag_name="svg/g/g_15">
      <path d="M624.1,181.2c0.3,0,0.5,0.1,1,0.1h0.7c0.4,0,0.6,0,1-0.1c-0.1,0.7-0.1,1.3-0.1,1.9v5.6c0,0.5,0,0.9,0.1,1.3    h-1.1c0.1-0.4,0.1-0.8,0.1-1.3v-6.7h-0.6c-0.4,0-0.7,0-1,0.1V181.2z" fill="#1A1A1A" id="path_7" tag_name="svg/g/g_15/path_7"/>
      <path d="M635.5,182.1c-0.2,0.2-0.4,0.4-0.9,1.1c-1,1.6-1.5,2.6-2,4c-0.3,1-0.4,1.5-0.6,2.9H631    c0.4-2.1,0.7-3.1,1.4-4.6c0.6-1.2,1-1.9,2.1-3.3h-3.7c-0.5,0-0.9,0-1.3,0.1v-1c0.5,0.1,0.8,0.1,1.3,0.1h3.5c0.7,0,0.9,0,1.3-0.1    V182.1z" fill="#1A1A1A" id="path_6" tag_name="svg/g/g_15/path_6"/>
    </g>
    <g id="g_14" tag_name="svg/g/g_14">
      <path d="M583.4,100.1c-0.7,0-0.9,0-1.3,0.1c0.1-0.9,0.2-1.1,0.3-1.5c0.3-0.7,0.8-1.4,1.5-2c0.4-0.3,0.4-0.4,1.8-1.3    c1.1-0.8,1.5-1.3,1.5-2c0-0.9-0.7-1.4-1.9-1.4c-0.8,0-1.3,0.3-1.7,0.8c-0.2,0.3-0.3,0.6-0.4,1.2l-1-0.2c0.2-0.8,0.3-1.2,0.7-1.7    c0.5-0.6,1.3-0.9,2.3-0.9c1.7,0,2.9,0.9,2.9,2.2c0,0.6-0.2,1.1-0.7,1.6c-0.3,0.4-0.6,0.6-2,1.5c-0.9,0.6-1.3,0.9-1.7,1.4    c-0.4,0.5-0.5,0.8-0.7,1.3h3.7c0.6,0,1,0,1.4-0.1v1c-0.5,0-0.8-0.1-1.4-0.1H583.4z" fill="#1A1A1A" id="path_5" tag_name="svg/g/g_14/path_5"/>
    </g>
    <g id="g_13" tag_name="svg/g/g_13">
      <path d="M628.3,97.9c0.2,0.6,0.3,0.8,0.7,1.1c0.4,0.3,0.9,0.4,1.5,0.4c1.3,0,2.2-0.7,2.2-1.8c0-1.1-0.8-1.8-2.4-1.8    c-0.3,0-0.6,0-0.9,0.1V95c0.3,0,0.5,0.1,0.9,0.1c0.8,0,1.3-0.2,1.7-0.5c0.3-0.3,0.5-0.7,0.5-1.1c0-1-0.7-1.6-1.9-1.6    c-0.7,0-1.2,0.2-1.5,0.6c-0.2,0.2-0.2,0.4-0.4,0.8l-1-0.2c0.2-0.6,0.3-0.9,0.6-1.2c0.5-0.6,1.3-0.8,2.3-0.8c1.7,0,2.7,0.9,2.7,2.3    c0,0.7-0.3,1.3-0.8,1.7c-0.3,0.2-0.6,0.3-1.1,0.4c0.7,0.1,1,0.2,1.4,0.5c0.5,0.4,0.8,1,0.8,1.7c0,1.6-1.2,2.5-3.1,2.5    c-1.2,0-2-0.3-2.6-0.9c-0.2-0.3-0.4-0.5-0.6-1.1L628.3,97.9z" fill="#1A1A1A" id="path_4" tag_name="svg/g/g_13/path_4"/>
    </g>
    <g id="g_12" tag_name="svg/g/g_12">
      <path d="M189.7,44.2c-0.7-0.1-1.2-0.1-2.3-0.1h-10.5c-1.1,0-1.7,0-2.5,0.1V42c0.7,0.1,1.3,0.1,2.4,0.1h10.5    c1,0,1.7,0,2.4-0.1V44.2z M175.6,30.2c0.6,0.1,1.1,0.1,2.2,0.1h8.4c1.1,0,1.6,0,2.3-0.1v2.2c-0.7-0.1-1.3-0.1-2.3-0.1h-8.4    c-1.1,0-1.6,0-2.2,0.1V30.2z M176.7,35.8c0.5,0.1,1.1,0.1,2,0.1h6.7c0.8,0,1.4,0,2-0.1V38c-0.7-0.1-1.2-0.1-2-0.1h-6.7    c-0.9,0-1.4,0-2,0.1V35.8z" fill="#FFFFFF" id="path_3" tag_name="svg/g/g_12/path_3"/>
      <path d="M196.6,39.8c-0.2,1-0.3,1.4-0.5,2.1c-0.5,1.3-1.1,2.3-2,3.4c-0.5-0.7-0.9-1.1-1.6-1.6c1-1,1.5-1.7,1.9-3    c0.5-1.6,0.7-3.7,0.7-8.1c0-1.2,0-2-0.1-2.6c0.7,0.1,1.1,0.1,2,0.1h7.2c1,0,1.4,0,2-0.1c-0.1,0.5-0.1,0.9-0.1,2V43    c0,0.9-0.2,1.4-0.6,1.7c-0.4,0.2-0.9,0.3-2,0.3c-0.6,0-1.1,0-2-0.1c-0.1-0.8-0.2-1.2-0.5-1.9c0.9,0.1,1.8,0.2,2.5,0.2    c0.5,0,0.6-0.1,0.6-0.5v-3H196.6z M204.1,35.7h-7.2c0,0.6-0.1,1.4-0.1,2.3h7.3V35.7z M204.1,31.8h-7.1v2.2h7.1V31.8z" fill="#FFFFFF" id="path_2" tag_name="svg/g/g_12/path_2"/>
    </g>
    <g id="g_11" tag_name="svg/g/g_11">
      <path d="M522.7,32.3c0-0.7,0-1.4-0.1-2.1c0.6,0.1,1.1,0.1,2,0.1h10.9c0.8,0,1.4,0,2-0.1c-0.1,0.6-0.1,1.2-0.1,2.1    v10.4c0,1,0,1.5,0.1,2h-2v-1h-10.9v1h-2c0.1-0.6,0.1-1,0.1-2V32.3z M529,32c0,1.8-0.1,2.1-0.2,3c-0.3,2.3-1.2,3.9-3,5.3    c-0.4-0.6-0.8-1-1.2-1.4v2.9h10.9V32h-2.9v5.3c0,0.4,0.1,0.5,0.7,0.5c0.7,0,1.3,0,1.8-0.1l-0.1,1.8c-1,0.1-1.6,0.1-2.4,0.1    c-1,0-1.3-0.1-1.6-0.3c-0.3-0.2-0.3-0.5-0.3-1.2v-6H529z M524.6,38.8c1.9-1.3,2.6-3,2.6-6.8h-2.6V38.8z" fill="#FFFFFF" id="path_1" tag_name="svg/g/g_11/path_1"/>
      <path d="M544.5,39.8c-0.2,1-0.3,1.4-0.5,2.1c-0.5,1.3-1.1,2.3-2,3.4c-0.5-0.7-0.9-1.1-1.6-1.6c1-1,1.5-1.7,1.9-3    c0.5-1.6,0.7-3.7,0.7-8.1c0-1.2,0-2-0.1-2.6c0.7,0.1,1.1,0.1,2,0.1h7.2c1,0,1.4,0,2-0.1c-0.1,0.5-0.1,0.9-0.1,2V43    c0,0.9-0.2,1.4-0.6,1.7c-0.4,0.2-0.9,0.3-2,0.3c-0.6,0-1.1,0-2-0.1c-0.1-0.8-0.2-1.2-0.5-1.9c0.9,0.1,1.8,0.2,2.5,0.2    c0.5,0,0.6-0.1,0.6-0.5v-3H544.5z M552,35.7h-7.2c0,0.6-0.1,1.4-0.1,2.3h7.3V35.7z M552,31.8h-7.1v2.2h7.1V31.8z" fill="#FFFFFF" id="path" tag_name="svg/g/g_11/path"/>
    </g>
    <g id="g_10" tag_name="svg/g/g_10">
	</g>
    <g id="g_9" tag_name="svg/g/g_9">
	</g>
    <g id="g_8" tag_name="svg/g/g_8">
	</g>
    <g id="g_7" tag_name="svg/g/g_7">
	</g>
    <g id="g_6" tag_name="svg/g/g_6">
	</g>
    <g id="g_5" tag_name="svg/g/g_5">
	</g>
    <g id="g_4" tag_name="svg/g/g_4">
	</g>
    <g id="g_3" tag_name="svg/g/g_3">
	</g>
    <g id="g_2" tag_name="svg/g/g_2">
	</g>
    <g id="g_1" tag_name="svg/g/g_1">
	</g>
  </g>
</svg>