<?xml version='1.0' encoding='UTF-8'?>
<svg width="900" height="340" viewBox="-70,-30,880,340" style="max-width: 100%; height: auto; font: 10px sans-serif;" id="svg" tag_name="svg">
  <g id="g_33" tag_name="svg/g_33">
    <rect x="509.6" y="22.5" width="131.3" height="53.3" fill="#ef2f1a" stroke="#FFFFFF" id="rect_15" tag_name="svg/g_33/rect_15"/>
    <rect x="640.9" y="22.5" width="66.6" height="67.3" fill="#ef2f1a" stroke="#FFFFFF" id="rect_14" tag_name="svg/g_33/rect_14"/>
    <rect x="312.7" y="49.6" width="196.9" height="52.5" fill="#f02f6d" stroke="#FFFFFF" id="rect_13" tag_name="svg/g_33/rect_13"/>
    <rect x="312.7" y="22.4" width="196.9" height="52.5" fill="#ef2f1a" stroke="#FFFFFF" id="rect_12" tag_name="svg/g_33/rect_12"/>
    <rect x="640.9" y="154" width="66.6" height="78.3" fill="#d4c8e9" stroke="#FFFFFF" id="rect_11" tag_name="svg/g_33/rect_11"/>
    <rect x="640.9" y="88.5" width="66.6" height="65.5" fill="#f02f6d" stroke="#FFFFFF" id="rect_10" tag_name="svg/g_33/rect_10"/>
    <rect x="50.1" y="22.5" width="262.5" height="13.6" fill="#ef2f1a" stroke="#FFFFFF" id="rect_9" tag_name="svg/g_33/rect_9"/>
    <rect x="509.6" y="127.9" width="131.3" height="78.3" fill="#d4c8e9" stroke="#FFFFFF" id="rect_8" tag_name="svg/g_33/rect_8"/>
    <rect x="509.6" y="75.7" width="131.3" height="52.2" fill="#f02f6d" stroke="#FFFFFF" id="rect_7" tag_name="svg/g_33/rect_7"/>
    <rect x="312.7" y="101.8" width="196.9" height="78.3" fill="#d4c8e9" stroke="#FFFFFF" id="rect_6" tag_name="svg/g_33/rect_6"/>
    <rect x="50.1" y="63" width="262.5" height="64.9" fill="#d4c8e9" stroke="#FFFFFF" id="rect_5" tag_name="svg/g_33/rect_5"/>
    <rect x="50.1" y="35.8" width="262.5" height="27.2" fill="#f02f6d" stroke="#FFFFFF" id="rect_4" tag_name="svg/g_33/rect_4"/>
    <rect x="640" y="232.3" width="67.5" height="52.2" fill="#328ce0" stroke="#FFFFFF" id="rect_3" tag_name="svg/g_33/rect_3"/>
    <rect x="312.7" y="180.1" width="196.9" height="104.4" fill="#328ce0" stroke="#FFFFFF" id="rect_2" tag_name="svg/g_33/rect_2"/>
    <rect x="509.6" y="206.2" width="131.3" height="78.3" fill="#328ce0" stroke="#FFFFFF" id="rect_1" tag_name="svg/g_33/rect_1"/>
    <rect x="50.1" y="127.9" width="262.5" height="156.6" fill="#328ce0" stroke="#FFFFFF" id="rect" tag_name="svg/g_33/rect"/>
  </g>
  <g id="g" tag_name="svg/g">
    <polyline points="707.5,284.5 50.5,284.5 50.5,22.5  " fill="none" stroke="#333333" stroke-width="2" id="polyline" tag_name="svg/g/polyline"/>
    <line x1="50.1" y1="284.5" x2="50.1" y2="291.5" fill="none" stroke="#333333" stroke-width="2" id="line_21" tag_name="svg/g/line_21"/>
    <line x1="50.1" y1="284.5" x2="43.1" y2="284.5" fill="none" stroke="#333333" stroke-width="2" id="line_20" tag_name="svg/g/line_20"/>
    <line x1="50.1" y1="258.4" x2="43.1" y2="258.4" fill="none" stroke="#333333" stroke-width="2" id="line_19" tag_name="svg/g/line_19"/>
    <line x1="50.1" y1="232.3" x2="43.1" y2="232.3" fill="none" stroke="#333333" stroke-width="2" id="line_18" tag_name="svg/g/line_18"/>
    <line x1="50.1" y1="206.2" x2="43.1" y2="206.2" fill="none" stroke="#333333" stroke-width="2" id="line_17" tag_name="svg/g/line_17"/>
    <line x1="50.1" y1="180.1" x2="43.1" y2="180.1" fill="none" stroke="#333333" stroke-width="2" id="line_16" tag_name="svg/g/line_16"/>
    <line x1="50.1" y1="154" x2="43.1" y2="154" fill="none" stroke="#333333" stroke-width="2" id="line_15" tag_name="svg/g/line_15"/>
    <line x1="50.1" y1="127.9" x2="43.1" y2="127.9" fill="none" stroke="#333333" stroke-width="2" id="line_14" tag_name="svg/g/line_14"/>
    <line x1="50.1" y1="101.8" x2="43.1" y2="101.8" fill="none" stroke="#333333" stroke-width="2" id="line_13" tag_name="svg/g/line_13"/>
    <line x1="50.1" y1="75.7" x2="43.1" y2="75.7" fill="none" stroke="#333333" stroke-width="2" id="line_12" tag_name="svg/g/line_12"/>
    <line x1="50.1" y1="49.6" x2="43.1" y2="49.6" fill="none" stroke="#333333" stroke-width="2" id="line_11" tag_name="svg/g/line_11"/>
    <line x1="50.1" y1="23.5" x2="43.1" y2="23.5" fill="none" stroke="#333333" stroke-width="2" id="line_10" tag_name="svg/g/line_10"/>
    <line x1="115.8" y1="284.5" x2="115.8" y2="291.5" fill="none" stroke="#333333" stroke-width="2" id="line_9" tag_name="svg/g/line_9"/>
    <line x1="181.4" y1="284.5" x2="181.4" y2="291.5" fill="none" stroke="#333333" stroke-width="2" id="line_8" tag_name="svg/g/line_8"/>
    <line x1="247" y1="284.5" x2="247" y2="291.5" fill="none" stroke="#333333" stroke-width="2" id="line_7" tag_name="svg/g/line_7"/>
    <line x1="312.7" y1="284.5" x2="312.7" y2="291.5" fill="none" stroke="#333333" stroke-width="2" id="line_6" tag_name="svg/g/line_6"/>
    <line x1="378.3" y1="284.5" x2="378.3" y2="291.5" fill="none" stroke="#333333" stroke-width="2" id="line_5" tag_name="svg/g/line_5"/>
    <line x1="444" y1="284.5" x2="444" y2="291.5" fill="none" stroke="#333333" stroke-width="2" id="line_4" tag_name="svg/g/line_4"/>
    <line x1="509.6" y1="284.5" x2="509.6" y2="291.5" fill="none" stroke="#333333" stroke-width="2" id="line_3" tag_name="svg/g/line_3"/>
    <line x1="575.2" y1="284.5" x2="575.2" y2="291.5" fill="none" stroke="#333333" stroke-width="2" id="line_2" tag_name="svg/g/line_2"/>
    <line x1="640.9" y1="284.5" x2="640.9" y2="291.5" fill="none" stroke="#333333" stroke-width="2" id="line_1" tag_name="svg/g/line_1"/>
    <line x1="706.5" y1="284.5" x2="706.5" y2="291.5" fill="none" stroke="#333333" stroke-width="2" id="line" tag_name="svg/g/line"/>
    <g id="g_32" tag_name="svg/g/g_32">
      <path d="M47.9,298.7c0,2.2-0.8,3.4-2.3,3.4c-1.3,0-2.1-1.2-2.1-3.3c0-2.2,0.9-3.4,2.3-3.4    C47.1,295.4,47.9,296.6,47.9,298.7z M44.4,298.8c0,1.7,0.5,2.6,1.3,2.6c0.9,0,1.3-1,1.3-2.7c0-1.6-0.4-2.6-1.3-2.6    C44.9,296.1,44.4,297,44.4,298.8z" fill="#4D4D4D" id="path_65" tag_name="svg/g/g_32/path_65"/>
      <path d="M52.6,297.3c0,1.4-0.7,2-1.6,2c-0.8,0-1.5-0.7-1.5-2c0-1.3,0.7-2,1.6-2C52,295.4,52.6,296.1,52.6,297.3z     M50.3,297.4c0,0.8,0.3,1.5,0.8,1.5c0.6,0,0.8-0.6,0.8-1.5c0-0.8-0.2-1.4-0.8-1.4C50.5,295.9,50.3,296.6,50.3,297.4z M51,302.1    l3.8-6.7h0.6l-3.8,6.7H51z M56.9,300c0,1.4-0.7,2-1.5,2c-0.8,0-1.5-0.7-1.5-1.9c0-1.3,0.7-2,1.6-2C56.3,298.1,56.9,298.8,56.9,300    z M54.5,300.1c0,0.8,0.3,1.5,0.8,1.5c0.6,0,0.8-0.6,0.8-1.5c0-0.8-0.2-1.4-0.8-1.4C54.8,298.6,54.5,299.3,54.5,300.1z" fill="#4D4D4D" id="path_64" tag_name="svg/g/g_32/path_64"/>
    </g>
    <g id="g_31" tag_name="svg/g/g_31">
      <path d="M30.7,284.7c0,2.2-0.8,3.4-2.3,3.4c-1.3,0-2.1-1.2-2.1-3.3c0-2.2,0.9-3.4,2.3-3.4    C29.9,281.4,30.7,282.6,30.7,284.7z M27.2,284.8c0,1.7,0.5,2.6,1.3,2.6c0.9,0,1.3-1,1.3-2.7c0-1.6-0.4-2.6-1.3-2.6    C27.8,282.1,27.2,283,27.2,284.8z" fill="#4D4D4D" id="path_63" tag_name="svg/g/g_31/path_63"/>
      <path d="M35.5,283.3c0,1.4-0.7,2-1.6,2c-0.8,0-1.5-0.7-1.5-2c0-1.3,0.7-2,1.6-2C34.9,281.4,35.5,282.1,35.5,283.3z     M33.1,283.4c0,0.8,0.3,1.5,0.8,1.5c0.6,0,0.8-0.6,0.8-1.5c0-0.8-0.2-1.4-0.8-1.4C33.4,281.9,33.1,282.6,33.1,283.4z M33.8,288.1    l3.8-6.7h0.6l-3.8,6.7H33.8z M39.7,286c0,1.4-0.7,2-1.5,2c-0.8,0-1.5-0.7-1.5-1.9c0-1.3,0.7-2,1.6-2    C39.1,284.1,39.7,284.8,39.7,286z M37.3,286.1c0,0.8,0.3,1.5,0.8,1.5c0.6,0,0.8-0.6,0.8-1.5c0-0.8-0.2-1.4-0.8-1.4    C37.6,284.6,37.3,285.3,37.3,286.1z" fill="#4D4D4D" id="path_62" tag_name="svg/g/g_31/path_62"/>
    </g>
    <g id="g_30" tag_name="svg/g/g_30">
      <path d="M108,296.3L108,296.3l-1.1,0.6l-0.2-0.7l1.4-0.8h0.7v6.5H108V296.3z" fill="#4D4D4D" id="path_61" tag_name="svg/g/g_30/path_61"/>
      <path d="M115.5,298.7c0,2.2-0.8,3.4-2.3,3.4c-1.3,0-2.1-1.2-2.1-3.3c0-2.2,0.9-3.4,2.3-3.4    C114.8,295.4,115.5,296.6,115.5,298.7z M112,298.8c0,1.7,0.5,2.6,1.3,2.6c0.9,0,1.3-1,1.3-2.7c0-1.6-0.4-2.6-1.3-2.6    C112.6,296.1,112,297,112,298.8z" fill="#4D4D4D" id="path_60" tag_name="svg/g/g_30/path_60"/>
      <path d="M120.3,297.3c0,1.4-0.7,2-1.6,2c-0.8,0-1.5-0.7-1.5-2c0-1.3,0.7-2,1.6-2C119.7,295.4,120.3,296.1,120.3,297.3    z M117.9,297.4c0,0.8,0.3,1.5,0.8,1.5c0.6,0,0.8-0.6,0.8-1.5c0-0.8-0.2-1.4-0.8-1.4C118.2,295.9,117.9,296.6,117.9,297.4z     M118.7,302.1l3.8-6.7h0.6l-3.8,6.7H118.7z M124.5,300c0,1.4-0.7,2-1.5,2c-0.8,0-1.5-0.7-1.5-1.9c0-1.3,0.7-2,1.6-2    C123.9,298.1,124.5,298.8,124.5,300z M122.1,300.1c0,0.8,0.3,1.5,0.8,1.5c0.6,0,0.8-0.6,0.8-1.5c0-0.8-0.2-1.4-0.8-1.4    C122.4,298.6,122.1,299.3,122.1,300.1z" fill="#4D4D4D" id="path_59" tag_name="svg/g/g_30/path_59"/>
    </g>
    <g id="g_29" tag_name="svg/g/g_29">
      <path d="M22.2,255.8L22.2,255.8l-1.1,0.6l-0.2-0.7l1.4-0.8h0.7v6.5h-0.8V255.8z" fill="#4D4D4D" id="path_58" tag_name="svg/g/g_29/path_58"/>
      <path d="M29.8,258.2c0,2.2-0.8,3.4-2.3,3.4c-1.3,0-2.1-1.2-2.1-3.3c0-2.2,0.9-3.4,2.3-3.4    C29,254.9,29.8,256.1,29.8,258.2z M26.2,258.3c0,1.7,0.5,2.6,1.3,2.6c0.9,0,1.3-1,1.3-2.7c0-1.6-0.4-2.6-1.3-2.6    C26.8,255.6,26.2,256.5,26.2,258.3z" fill="#4D4D4D" id="path_57" tag_name="svg/g/g_29/path_57"/>
      <path d="M34.5,256.8c0,1.4-0.7,2-1.6,2c-0.8,0-1.5-0.7-1.5-2c0-1.3,0.7-2,1.6-2C33.9,254.9,34.5,255.6,34.5,256.8z     M32.1,256.9c0,0.8,0.3,1.5,0.8,1.5c0.6,0,0.8-0.6,0.8-1.5c0-0.8-0.2-1.4-0.8-1.4C32.4,255.4,32.1,256.1,32.1,256.9z M32.9,261.6    l3.8-6.7h0.6l-3.8,6.7H32.9z M38.7,259.5c0,1.4-0.7,2-1.5,2c-0.8,0-1.5-0.7-1.5-1.9c0-1.3,0.7-2,1.6-2    C38.2,257.6,38.7,258.3,38.7,259.5z M36.4,259.6c0,0.8,0.3,1.5,0.8,1.5c0.6,0,0.8-0.6,0.8-1.5c0-0.8-0.2-1.4-0.8-1.4    C36.7,258.1,36.4,258.8,36.4,259.6z" fill="#4D4D4D" id="path_56" tag_name="svg/g/g_29/path_56"/>
    </g>
    <g id="g_28" tag_name="svg/g/g_28">
      <path d="M20.3,234.5V234l0.7-0.7c1.7-1.6,2.4-2.4,2.4-3.4c0-0.7-0.3-1.3-1.3-1.3c-0.6,0-1.1,0.3-1.4,0.5l-0.3-0.6    c0.4-0.4,1.1-0.7,1.8-0.7c1.4,0,2,1,2,1.9c0,1.2-0.9,2.2-2.2,3.5l-0.5,0.5v0h2.9v0.7H20.3z" fill="#4D4D4D" id="path_55" tag_name="svg/g/g_28/path_55"/>
      <path d="M29.8,231.2c0,2.2-0.8,3.4-2.3,3.4c-1.3,0-2.1-1.2-2.1-3.3c0-2.2,0.9-3.4,2.3-3.4    C29,227.9,29.8,229.1,29.8,231.2z M26.2,231.3c0,1.7,0.5,2.6,1.3,2.6c0.9,0,1.3-1,1.3-2.7c0-1.6-0.4-2.6-1.3-2.6    C26.8,228.6,26.2,229.5,26.2,231.3z" fill="#4D4D4D" id="path_54" tag_name="svg/g/g_28/path_54"/>
      <path d="M34.5,229.8c0,1.4-0.7,2-1.6,2c-0.8,0-1.5-0.7-1.5-2c0-1.3,0.7-2,1.6-2C33.9,227.9,34.5,228.6,34.5,229.8z     M32.1,229.9c0,0.8,0.3,1.5,0.8,1.5c0.6,0,0.8-0.6,0.8-1.5c0-0.8-0.2-1.4-0.8-1.4C32.4,228.4,32.1,229.1,32.1,229.9z M32.9,234.6    l3.8-6.7h0.6l-3.8,6.7H32.9z M38.7,232.5c0,1.4-0.7,2-1.5,2c-0.8,0-1.5-0.7-1.5-1.9c0-1.3,0.7-2,1.6-2    C38.2,230.6,38.7,231.3,38.7,232.5z M36.4,232.6c0,0.8,0.3,1.5,0.8,1.5c0.6,0,0.8-0.6,0.8-1.5c0-0.8-0.2-1.4-0.8-1.4    C36.7,231.1,36.4,231.8,36.4,232.6z" fill="#4D4D4D" id="path_53" tag_name="svg/g/g_28/path_53"/>
    </g>
    <g id="g_27" tag_name="svg/g/g_27">
      <path d="M20.5,208.2c0.2,0.2,0.8,0.4,1.4,0.4c1.1,0,1.5-0.7,1.5-1.3c0-0.9-0.8-1.3-1.7-1.3h-0.5v-0.7h0.5    c0.6,0,1.4-0.3,1.4-1.1c0-0.5-0.3-1-1.1-1c-0.5,0-1,0.2-1.3,0.4l-0.2-0.6c0.3-0.2,1-0.5,1.7-0.5c1.3,0,1.9,0.8,1.9,1.5    c0,0.7-0.4,1.2-1.2,1.5v0c0.8,0.2,1.4,0.8,1.4,1.7c0,1-0.8,1.9-2.4,1.9c-0.7,0-1.4-0.2-1.7-0.4L20.5,208.2z" fill="#4D4D4D" id="path_52" tag_name="svg/g/g_27/path_52"/>
      <path d="M29.8,205.9c0,2.2-0.8,3.4-2.3,3.4c-1.3,0-2.1-1.2-2.1-3.3c0-2.2,0.9-3.4,2.3-3.4    C29,202.6,29.8,203.9,29.8,205.9z M26.2,206c0,1.7,0.5,2.6,1.3,2.6c0.9,0,1.3-1,1.3-2.7c0-1.6-0.4-2.6-1.3-2.6    C26.8,203.3,26.2,204.3,26.2,206z" fill="#4D4D4D" id="path_51" tag_name="svg/g/g_27/path_51"/>
      <path d="M34.5,204.6c0,1.4-0.7,2-1.6,2c-0.8,0-1.5-0.7-1.5-2c0-1.3,0.7-2,1.6-2C33.9,202.6,34.5,203.3,34.5,204.6z     M32.1,204.6c0,0.8,0.3,1.5,0.8,1.5c0.6,0,0.8-0.6,0.8-1.5c0-0.8-0.2-1.4-0.8-1.4C32.4,203.2,32.1,203.8,32.1,204.6z M32.9,209.4    l3.8-6.7h0.6l-3.8,6.7H32.9z M38.7,207.3c0,1.4-0.7,2-1.5,2c-0.8,0-1.5-0.7-1.5-1.9c0-1.3,0.7-2,1.6-2    C38.2,205.3,38.7,206,38.7,207.3z M36.4,207.3c0,0.8,0.3,1.5,0.8,1.5c0.6,0,0.8-0.6,0.8-1.5c0-0.8-0.2-1.4-0.8-1.4    C36.7,205.9,36.4,206.5,36.4,207.3z" fill="#4D4D4D" id="path_50" tag_name="svg/g/g_27/path_50"/>
    </g>
    <g id="g_26" tag_name="svg/g/g_26">
      <path d="M23,183.5v-1.8h-3v-0.6l2.9-4.1h0.9v4h0.9v0.7h-0.9v1.8H23z M23,181v-2.2c0-0.3,0-0.7,0-1h0    c-0.2,0.4-0.4,0.7-0.5,1l-1.6,2.2v0H23z" fill="#4D4D4D" id="path_49" tag_name="svg/g/g_26/path_49"/>
      <path d="M29.8,180.2c0,2.2-0.8,3.4-2.3,3.4c-1.3,0-2.1-1.2-2.1-3.3c0-2.2,0.9-3.4,2.3-3.4    C29,176.9,29.8,178.1,29.8,180.2z M26.2,180.3c0,1.7,0.5,2.6,1.3,2.6c0.9,0,1.3-1,1.3-2.7c0-1.6-0.4-2.6-1.3-2.6    C26.8,177.6,26.2,178.5,26.2,180.3z" fill="#4D4D4D" id="path_48" tag_name="svg/g/g_26/path_48"/>
      <path d="M34.5,178.8c0,1.4-0.7,2-1.6,2c-0.8,0-1.5-0.7-1.5-2c0-1.3,0.7-2,1.6-2C33.9,176.9,34.5,177.6,34.5,178.8z     M32.1,178.9c0,0.8,0.3,1.5,0.8,1.5c0.6,0,0.8-0.6,0.8-1.5c0-0.8-0.2-1.4-0.8-1.4C32.4,177.4,32.1,178.1,32.1,178.9z M32.9,183.6    l3.8-6.7h0.6l-3.8,6.7H32.9z M38.7,181.5c0,1.4-0.7,2-1.5,2c-0.8,0-1.5-0.7-1.5-1.9c0-1.3,0.7-2,1.6-2    C38.2,179.6,38.7,180.3,38.7,181.5z M36.4,181.6c0,0.8,0.3,1.5,0.8,1.5c0.6,0,0.8-0.6,0.8-1.5c0-0.8-0.2-1.4-0.8-1.4    C36.7,180.1,36.4,180.8,36.4,181.6z" fill="#4D4D4D" id="path_47" tag_name="svg/g/g_26/path_47"/>
    </g>
    <g id="g_25" tag_name="svg/g/g_25">
      <path d="M24.2,151.2h-2.5l-0.2,1.7c0.1,0,0.3,0,0.5,0c0.5,0,1,0.1,1.4,0.3c0.5,0.3,0.9,0.8,0.9,1.7    c0,1.3-1,2.2-2.4,2.2c-0.7,0-1.3-0.2-1.6-0.4l0.2-0.7c0.3,0.2,0.8,0.4,1.4,0.4c0.8,0,1.5-0.5,1.5-1.4c0-0.8-0.6-1.4-1.9-1.4    c-0.4,0-0.7,0-0.9,0.1l0.4-3.1h3.1V151.2z" fill="#4D4D4D" id="path_46" tag_name="svg/g/g_25/path_46"/>
      <path d="M29.8,153.7c0,2.2-0.8,3.4-2.3,3.4c-1.3,0-2.1-1.2-2.1-3.3c0-2.2,0.9-3.4,2.3-3.4    C29,150.4,29.8,151.6,29.8,153.7z M26.2,153.8c0,1.7,0.5,2.6,1.3,2.6c0.9,0,1.3-1,1.3-2.7c0-1.6-0.4-2.6-1.3-2.6    C26.8,151.1,26.2,152,26.2,153.8z" fill="#4D4D4D" id="path_45" tag_name="svg/g/g_25/path_45"/>
      <path d="M34.5,152.3c0,1.4-0.7,2-1.6,2c-0.8,0-1.5-0.7-1.5-2c0-1.3,0.7-2,1.6-2C33.9,150.4,34.5,151.1,34.5,152.3z     M32.1,152.4c0,0.8,0.3,1.5,0.8,1.5c0.6,0,0.8-0.6,0.8-1.5c0-0.8-0.2-1.4-0.8-1.4C32.4,150.9,32.1,151.6,32.1,152.4z M32.9,157.1    l3.8-6.7h0.6l-3.8,6.7H32.9z M38.7,155c0,1.4-0.7,2-1.5,2c-0.8,0-1.5-0.7-1.5-1.9c0-1.3,0.7-2,1.6-2    C38.2,153.1,38.7,153.8,38.7,155z M36.4,155.1c0,0.8,0.3,1.5,0.8,1.5c0.6,0,0.8-0.6,0.8-1.5c0-0.8-0.2-1.4-0.8-1.4    C36.7,153.6,36.4,154.3,36.4,155.1z" fill="#4D4D4D" id="path_44" tag_name="svg/g/g_25/path_44"/>
    </g>
    <g id="g_24" tag_name="svg/g/g_24">
      <path d="M24,125.4c-0.2,0-0.4,0-0.7,0c-1.4,0.2-2.1,1.2-2.3,2.3h0c0.3-0.4,0.8-0.7,1.6-0.7c1.1,0,2,0.8,2,2.1    c0,1.2-0.8,2.3-2.2,2.3c-1.4,0-2.3-1.1-2.3-2.8c0-1.3,0.5-2.3,1.1-2.9c0.5-0.5,1.3-0.9,2.1-1c0.3,0,0.5,0,0.6,0V125.4z     M23.8,129.1c0-0.9-0.5-1.5-1.3-1.5c-0.5,0-1,0.3-1.3,0.8c-0.1,0.1-0.1,0.2-0.1,0.4c0,1.1,0.5,1.9,1.4,1.9    C23.3,130.7,23.8,130.1,23.8,129.1z" fill="#4D4D4D" id="path_43" tag_name="svg/g/g_24/path_43"/>
      <path d="M29.8,127.9c0,2.2-0.8,3.4-2.3,3.4c-1.3,0-2.1-1.2-2.1-3.3c0-2.2,0.9-3.4,2.3-3.4    C29,124.6,29.8,125.9,29.8,127.9z M26.2,128c0,1.7,0.5,2.6,1.3,2.6c0.9,0,1.3-1,1.3-2.7c0-1.6-0.4-2.6-1.3-2.6    C26.8,125.3,26.2,126.3,26.2,128z" fill="#4D4D4D" id="path_42" tag_name="svg/g/g_24/path_42"/>
      <path d="M34.5,126.6c0,1.4-0.7,2-1.6,2c-0.8,0-1.5-0.7-1.5-2c0-1.3,0.7-2,1.6-2C33.9,124.6,34.5,125.3,34.5,126.6z     M32.1,126.6c0,0.8,0.3,1.5,0.8,1.5c0.6,0,0.8-0.6,0.8-1.5c0-0.8-0.2-1.4-0.8-1.4C32.4,125.2,32.1,125.8,32.1,126.6z M32.9,131.4    l3.8-6.7h0.6l-3.8,6.7H32.9z M38.7,129.3c0,1.4-0.7,2-1.5,2c-0.8,0-1.5-0.7-1.5-1.9c0-1.3,0.7-2,1.6-2    C38.2,127.3,38.7,128,38.7,129.3z M36.4,129.3c0,0.8,0.3,1.5,0.8,1.5c0.6,0,0.8-0.6,0.8-1.5c0-0.8-0.2-1.4-0.8-1.4    C36.7,127.9,36.4,128.5,36.4,129.3z" fill="#4D4D4D" id="path_41" tag_name="svg/g/g_24/path_41"/>
    </g>
    <g id="g_23" tag_name="svg/g/g_23">
      <path d="M24.5,98v0.6l-2.8,5.9h-0.9l2.8-5.7v0h-3.2V98H24.5z" fill="#4D4D4D" id="path_40" tag_name="svg/g/g_23/path_40"/>
      <path d="M29.8,101.2c0,2.2-0.8,3.4-2.3,3.4c-1.3,0-2.1-1.2-2.1-3.3c0-2.2,0.9-3.4,2.3-3.4    C29,97.9,29.8,99.1,29.8,101.2z M26.2,101.3c0,1.7,0.5,2.6,1.3,2.6c0.9,0,1.3-1,1.3-2.7c0-1.6-0.4-2.6-1.3-2.6    C26.8,98.6,26.2,99.5,26.2,101.3z" fill="#4D4D4D" id="path_39" tag_name="svg/g/g_23/path_39"/>
      <path d="M34.5,99.8c0,1.4-0.7,2-1.6,2c-0.8,0-1.5-0.7-1.5-2c0-1.3,0.7-2,1.6-2C33.9,97.9,34.5,98.6,34.5,99.8z     M32.1,99.9c0,0.8,0.3,1.5,0.8,1.5c0.6,0,0.8-0.6,0.8-1.5c0-0.8-0.2-1.4-0.8-1.4C32.4,98.4,32.1,99.1,32.1,99.9z M32.9,104.6    l3.8-6.7h0.6l-3.8,6.7H32.9z M38.7,102.5c0,1.4-0.7,2-1.5,2c-0.8,0-1.5-0.7-1.5-1.9c0-1.3,0.7-2,1.6-2    C38.2,100.6,38.7,101.3,38.7,102.5z M36.4,102.6c0,0.8,0.3,1.5,0.8,1.5c0.6,0,0.8-0.6,0.8-1.5c0-0.8-0.2-1.4-0.8-1.4    C36.7,101.1,36.4,101.8,36.4,102.6z" fill="#4D4D4D" id="path_38" tag_name="svg/g/g_23/path_38"/>
    </g>
    <g id="g_22" tag_name="svg/g/g_22">
      <path d="M20.2,77.1c0-0.8,0.5-1.4,1.3-1.7l0,0c-0.7-0.3-1-0.9-1-1.5c0-1,0.9-1.7,2-1.7c1.3,0,1.9,0.8,1.9,1.6    c0,0.5-0.3,1.1-1.1,1.5v0c0.8,0.3,1.3,0.9,1.3,1.7c0,1.1-1,1.9-2.2,1.9C21.1,78.9,20.2,78.1,20.2,77.1z M23.7,77.1    c0-0.8-0.5-1.2-1.4-1.4c-0.8,0.2-1.2,0.7-1.2,1.3c0,0.7,0.5,1.2,1.3,1.2C23.2,78.2,23.7,77.7,23.7,77.1z M21.3,73.8    c0,0.6,0.5,1,1.2,1.2c0.6-0.2,1-0.6,1-1.2c0-0.5-0.3-1.1-1.1-1.1C21.7,72.8,21.3,73.3,21.3,73.8z" fill="#4D4D4D" id="path_37" tag_name="svg/g/g_22/path_37"/>
      <path d="M29.8,75.4c0,2.2-0.8,3.4-2.3,3.4c-1.3,0-2.1-1.2-2.1-3.3c0-2.2,0.9-3.4,2.3-3.4C29,72.1,29.8,73.4,29.8,75.4    z M26.2,75.5c0,1.7,0.5,2.6,1.3,2.6c0.9,0,1.3-1,1.3-2.7c0-1.6-0.4-2.6-1.3-2.6C26.8,72.8,26.2,73.8,26.2,75.5z" fill="#4D4D4D" id="path_36" tag_name="svg/g/g_22/path_36"/>
      <path d="M34.5,74.1c0,1.4-0.7,2-1.6,2c-0.8,0-1.5-0.7-1.5-2c0-1.3,0.7-2,1.6-2C33.9,72.1,34.5,72.8,34.5,74.1z     M32.1,74.1c0,0.8,0.3,1.5,0.8,1.5c0.6,0,0.8-0.6,0.8-1.5c0-0.8-0.2-1.4-0.8-1.4C32.4,72.7,32.1,73.3,32.1,74.1z M32.9,78.9    l3.8-6.7h0.6l-3.8,6.7H32.9z M38.7,76.8c0,1.4-0.7,2-1.5,2c-0.8,0-1.5-0.7-1.5-1.9c0-1.3,0.7-2,1.6-2    C38.2,74.8,38.7,75.5,38.7,76.8z M36.4,76.8c0,0.8,0.3,1.5,0.8,1.5c0.6,0,0.8-0.6,0.8-1.5c0-0.8-0.2-1.4-0.8-1.4    C36.7,75.4,36.4,76,36.4,76.8z" fill="#4D4D4D" id="path_35" tag_name="svg/g/g_22/path_35"/>
    </g>
    <g id="g_21" tag_name="svg/g/g_21">
      <path d="M20.8,52.1c0.2,0,0.4,0,0.7,0c0.5-0.1,1-0.3,1.4-0.6c0.4-0.4,0.7-1,0.9-1.7h0c-0.4,0.4-0.9,0.7-1.5,0.7    c-1.2,0-1.9-0.9-1.9-2c0-1.2,0.9-2.3,2.2-2.3c1.3,0,2.1,1.1,2.1,2.7c0,1.4-0.5,2.4-1.1,3c-0.5,0.5-1.2,0.8-1.9,0.9    c-0.3,0-0.6,0.1-0.8,0V52.1z M21.2,48.4c0,0.8,0.5,1.4,1.2,1.4c0.6,0,1-0.3,1.3-0.7c0-0.1,0.1-0.2,0.1-0.3c0-1.1-0.4-2-1.3-2    C21.7,46.8,21.2,47.5,21.2,48.4z" fill="#4D4D4D" id="path_34" tag_name="svg/g/g_21/path_34"/>
      <path d="M29.8,49.4c0,2.2-0.8,3.4-2.3,3.4c-1.3,0-2.1-1.2-2.1-3.3c0-2.2,0.9-3.4,2.3-3.4C29,46.1,29.8,47.4,29.8,49.4    z M26.2,49.5c0,1.7,0.5,2.6,1.3,2.6c0.9,0,1.3-1,1.3-2.7c0-1.6-0.4-2.6-1.3-2.6C26.8,46.8,26.2,47.8,26.2,49.5z" fill="#4D4D4D" id="path_33" tag_name="svg/g/g_21/path_33"/>
      <path d="M34.5,48.1c0,1.4-0.7,2-1.6,2c-0.8,0-1.5-0.7-1.5-2c0-1.3,0.7-2,1.6-2C33.9,46.1,34.5,46.8,34.5,48.1z     M32.1,48.1c0,0.8,0.3,1.5,0.8,1.5c0.6,0,0.8-0.6,0.8-1.5c0-0.8-0.2-1.4-0.8-1.4C32.4,46.7,32.1,47.3,32.1,48.1z M32.9,52.9    l3.8-6.7h0.6l-3.8,6.7H32.9z M38.7,50.8c0,1.4-0.7,2-1.5,2c-0.8,0-1.5-0.7-1.5-1.9c0-1.3,0.7-2,1.6-2    C38.2,48.8,38.7,49.5,38.7,50.8z M36.4,50.8c0,0.8,0.3,1.5,0.8,1.5c0.6,0,0.8-0.6,0.8-1.5c0-0.8-0.2-1.4-0.8-1.4    C36.7,49.4,36.4,50,36.4,50.8z" fill="#4D4D4D" id="path_32" tag_name="svg/g/g_21/path_32"/>
    </g>
    <g id="g_20" tag_name="svg/g/g_20">
      <path d="M17.2,20.6L17.2,20.6l-1.1,0.6l-0.2-0.7l1.4-0.8h0.7v6.5h-0.8V20.6z" fill="#4D4D4D" id="path_31" tag_name="svg/g/g_20/path_31"/>
      <path d="M24.8,22.9c0,2.2-0.8,3.4-2.3,3.4c-1.3,0-2.1-1.2-2.1-3.3c0-2.2,0.9-3.4,2.3-3.4C24,19.6,24.8,20.9,24.8,22.9    z M21.2,23c0,1.7,0.5,2.6,1.3,2.6c0.9,0,1.3-1,1.3-2.7c0-1.6-0.4-2.6-1.3-2.6C21.8,20.3,21.2,21.3,21.2,23z" fill="#4D4D4D" id="path_30" tag_name="svg/g/g_20/path_30"/>
      <path d="M29.9,22.9c0,2.2-0.8,3.4-2.3,3.4c-1.3,0-2.1-1.2-2.1-3.3c0-2.2,0.9-3.4,2.3-3.4    C29.1,19.6,29.9,20.9,29.9,22.9z M26.4,23c0,1.7,0.5,2.6,1.3,2.6c0.9,0,1.3-1,1.3-2.7c0-1.6-0.4-2.6-1.3-2.6    C26.9,20.3,26.4,21.3,26.4,23z" fill="#4D4D4D" id="path_29" tag_name="svg/g/g_20/path_29"/>
      <path d="M34.6,21.6c0,1.4-0.7,2-1.6,2c-0.8,0-1.5-0.7-1.5-2c0-1.3,0.7-2,1.6-2C34,19.6,34.6,20.3,34.6,21.6z     M32.3,21.6c0,0.8,0.3,1.5,0.8,1.5c0.6,0,0.8-0.6,0.8-1.5c0-0.8-0.2-1.4-0.8-1.4C32.6,20.2,32.3,20.8,32.3,21.6z M33,26.4l3.8-6.7    h0.6l-3.8,6.7H33z M38.9,24.3c0,1.4-0.7,2-1.5,2c-0.8,0-1.5-0.7-1.5-1.9c0-1.3,0.7-2,1.6-2C38.3,22.3,38.9,23,38.9,24.3z     M36.5,24.3c0,0.8,0.3,1.5,0.8,1.5c0.6,0,0.8-0.6,0.8-1.5c0-0.8-0.2-1.4-0.8-1.4C36.8,22.9,36.5,23.5,36.5,24.3z" fill="#4D4D4D" id="path_28" tag_name="svg/g/g_20/path_28"/>
    </g>
    <g id="g_19" tag_name="svg/g/g_19">
      <path d="M171.7,302v-0.5l0.7-0.7c1.7-1.6,2.4-2.4,2.4-3.4c0-0.7-0.3-1.3-1.3-1.3c-0.6,0-1.1,0.3-1.4,0.5l-0.3-0.6    c0.4-0.4,1.1-0.7,1.8-0.7c1.4,0,2,1,2,1.9c0,1.2-0.9,2.2-2.2,3.5l-0.5,0.5v0h2.9v0.7H171.7z" fill="#4D4D4D" id="path_27" tag_name="svg/g/g_19/path_27"/>
      <path d="M181.2,298.7c0,2.2-0.8,3.4-2.3,3.4c-1.3,0-2.1-1.2-2.1-3.3c0-2.2,0.9-3.4,2.3-3.4    C180.4,295.4,181.2,296.6,181.2,298.7z M177.7,298.8c0,1.7,0.5,2.6,1.3,2.6c0.9,0,1.3-1,1.3-2.7c0-1.6-0.4-2.6-1.3-2.6    C178.2,296.1,177.7,297,177.7,298.8z" fill="#4D4D4D" id="path_26" tag_name="svg/g/g_19/path_26"/>
      <path d="M185.9,297.3c0,1.4-0.7,2-1.6,2c-0.8,0-1.5-0.7-1.5-2c0-1.3,0.7-2,1.6-2C185.3,295.4,185.9,296.1,185.9,297.3    z M183.6,297.4c0,0.8,0.3,1.5,0.8,1.5c0.6,0,0.8-0.6,0.8-1.5c0-0.8-0.2-1.4-0.8-1.4C183.8,295.9,183.6,296.6,183.6,297.4z     M184.3,302.1l3.8-6.7h0.6l-3.8,6.7H184.3z M190.2,300c0,1.4-0.7,2-1.5,2c-0.8,0-1.5-0.7-1.5-1.9c0-1.3,0.7-2,1.6-2    C189.6,298.1,190.2,298.8,190.2,300z M187.8,300.1c0,0.8,0.3,1.5,0.8,1.5c0.6,0,0.8-0.6,0.8-1.5c0-0.8-0.2-1.4-0.8-1.4    C188.1,298.6,187.8,299.3,187.8,300.1z" fill="#4D4D4D" id="path_25" tag_name="svg/g/g_19/path_25"/>
    </g>
    <g id="g_18" tag_name="svg/g/g_18">
      <path d="M238.6,301c0.2,0.2,0.8,0.4,1.4,0.4c1.1,0,1.5-0.7,1.5-1.3c0-0.9-0.8-1.3-1.7-1.3h-0.5v-0.7h0.5    c0.6,0,1.4-0.3,1.4-1.1c0-0.5-0.3-1-1.1-1c-0.5,0-1,0.2-1.3,0.4l-0.2-0.6c0.3-0.2,1-0.5,1.7-0.5c1.3,0,1.9,0.8,1.9,1.5    c0,0.7-0.4,1.2-1.2,1.5v0c0.8,0.2,1.4,0.8,1.4,1.7c0,1-0.8,1.9-2.4,1.9c-0.7,0-1.4-0.2-1.7-0.4L238.6,301z" fill="#4D4D4D" id="path_24" tag_name="svg/g/g_18/path_24"/>
      <path d="M247.8,298.7c0,2.2-0.8,3.4-2.3,3.4c-1.3,0-2.1-1.2-2.1-3.3c0-2.2,0.9-3.4,2.3-3.4    C247.1,295.4,247.8,296.6,247.8,298.7z M244.3,298.8c0,1.7,0.5,2.6,1.3,2.6c0.9,0,1.3-1,1.3-2.7c0-1.6-0.4-2.6-1.3-2.6    C244.9,296.1,244.3,297,244.3,298.8z" fill="#4D4D4D" id="path_23" tag_name="svg/g/g_18/path_23"/>
      <path d="M252.6,297.3c0,1.4-0.7,2-1.6,2c-0.8,0-1.5-0.7-1.5-2c0-1.3,0.7-2,1.6-2C252,295.4,252.6,296.1,252.6,297.3z     M250.2,297.4c0,0.8,0.3,1.5,0.8,1.5c0.6,0,0.8-0.6,0.8-1.5c0-0.8-0.2-1.4-0.8-1.4C250.5,295.9,250.2,296.6,250.2,297.4z     M251,302.1l3.8-6.7h0.6l-3.8,6.7H251z M256.8,300c0,1.4-0.7,2-1.5,2c-0.8,0-1.5-0.7-1.5-1.9c0-1.3,0.7-2,1.6-2    C256.2,298.1,256.8,298.8,256.8,300z M254.4,300.1c0,0.8,0.3,1.5,0.8,1.5c0.6,0,0.8-0.6,0.8-1.5c0-0.8-0.2-1.4-0.8-1.4    C254.7,298.6,254.4,299.3,254.4,300.1z" fill="#4D4D4D" id="path_22" tag_name="svg/g/g_18/path_22"/>
    </g>
    <g id="g_17" tag_name="svg/g/g_17">
      <path d="M306.8,302v-1.8h-3v-0.6l2.9-4.1h0.9v4h0.9v0.7h-0.9v1.8H306.8z M306.8,299.5v-2.2c0-0.3,0-0.7,0-1h0    c-0.2,0.4-0.4,0.7-0.5,1l-1.6,2.2v0H306.8z" fill="#4D4D4D" id="path_21" tag_name="svg/g/g_17/path_21"/>
      <path d="M313.5,298.7c0,2.2-0.8,3.4-2.3,3.4c-1.3,0-2.1-1.2-2.1-3.3c0-2.2,0.9-3.4,2.3-3.4    C312.7,295.4,313.5,296.6,313.5,298.7z M310,298.8c0,1.7,0.5,2.6,1.3,2.6c0.9,0,1.3-1,1.3-2.7c0-1.6-0.4-2.6-1.3-2.6    C310.5,296.1,310,297,310,298.8z" fill="#4D4D4D" id="path_20" tag_name="svg/g/g_17/path_20"/>
      <path d="M318.2,297.3c0,1.4-0.7,2-1.6,2c-0.8,0-1.5-0.7-1.5-2c0-1.3,0.7-2,1.6-2C317.6,295.4,318.2,296.1,318.2,297.3    z M315.9,297.4c0,0.8,0.3,1.5,0.8,1.5c0.6,0,0.8-0.6,0.8-1.5c0-0.8-0.2-1.4-0.8-1.4C316.1,295.9,315.9,296.6,315.9,297.4z     M316.6,302.1l3.8-6.7h0.6l-3.8,6.7H316.6z M322.5,300c0,1.4-0.7,2-1.5,2c-0.8,0-1.5-0.7-1.5-1.9c0-1.3,0.7-2,1.6-2    C321.9,298.1,322.5,298.8,322.5,300z M320.1,300.1c0,0.8,0.3,1.5,0.8,1.5c0.6,0,0.8-0.6,0.8-1.5c0-0.8-0.2-1.4-0.8-1.4    C320.4,298.6,320.1,299.3,320.1,300.1z" fill="#4D4D4D" id="path_19" tag_name="svg/g/g_17/path_19"/>
    </g>
    <g id="g_16" tag_name="svg/g/g_16">
      <path d="M373.6,296.2h-2.5l-0.2,1.7c0.2,0,0.3,0,0.5,0c0.5,0,1,0.1,1.4,0.3c0.5,0.3,0.9,0.8,0.9,1.7    c0,1.3-1,2.2-2.4,2.2c-0.7,0-1.3-0.2-1.6-0.4l0.2-0.7c0.3,0.2,0.8,0.4,1.4,0.4c0.8,0,1.5-0.5,1.5-1.4c0-0.8-0.6-1.4-1.9-1.4    c-0.4,0-0.7,0-0.9,0.1l0.4-3.1h3.1V296.2z" fill="#4D4D4D" id="path_18" tag_name="svg/g/g_16/path_18"/>
      <path d="M379.1,298.7c0,2.2-0.8,3.4-2.3,3.4c-1.3,0-2.1-1.2-2.1-3.3c0-2.2,0.9-3.4,2.3-3.4    C378.4,295.4,379.1,296.6,379.1,298.7z M375.6,298.8c0,1.7,0.5,2.6,1.3,2.6c0.9,0,1.3-1,1.3-2.7c0-1.6-0.4-2.6-1.3-2.6    C376.2,296.1,375.6,297,375.6,298.8z" fill="#4D4D4D" id="path_17" tag_name="svg/g/g_16/path_17"/>
      <path d="M383.9,297.3c0,1.4-0.7,2-1.6,2c-0.8,0-1.5-0.7-1.5-2c0-1.3,0.7-2,1.6-2C383.3,295.4,383.9,296.1,383.9,297.3    z M381.5,297.4c0,0.8,0.3,1.5,0.8,1.5c0.6,0,0.8-0.6,0.8-1.5c0-0.8-0.2-1.4-0.8-1.4C381.8,295.9,381.5,296.6,381.5,297.4z     M382.3,302.1l3.8-6.7h0.6l-3.8,6.7H382.3z M388.1,300c0,1.4-0.7,2-1.5,2c-0.8,0-1.5-0.7-1.5-1.9c0-1.3,0.7-2,1.6-2    C387.5,298.1,388.1,298.8,388.1,300z M385.7,300.1c0,0.8,0.3,1.5,0.8,1.5c0.6,0,0.8-0.6,0.8-1.5c0-0.8-0.2-1.4-0.8-1.4    C386,298.6,385.7,299.3,385.7,300.1z" fill="#4D4D4D" id="path_16" tag_name="svg/g/g_16/path_16"/>
    </g>
    <g id="g_15" tag_name="svg/g/g_15">
      <path d="M438.1,296.1c-0.2,0-0.4,0-0.7,0c-1.4,0.2-2.1,1.2-2.3,2.3h0c0.3-0.4,0.8-0.7,1.6-0.7c1.1,0,2,0.8,2,2.1    c0,1.2-0.8,2.3-2.2,2.3c-1.4,0-2.3-1.1-2.3-2.8c0-1.3,0.5-2.3,1.1-2.9c0.5-0.5,1.3-0.9,2.1-1c0.3,0,0.5,0,0.6,0V296.1z     M437.8,299.9c0-0.9-0.5-1.5-1.3-1.5c-0.5,0-1,0.3-1.3,0.8c-0.1,0.1-0.1,0.2-0.1,0.4c0,1.1,0.5,1.9,1.4,1.9    C437.3,301.4,437.8,300.8,437.8,299.9z" fill="#4D4D4D" id="path_15" tag_name="svg/g/g_15/path_15"/>
      <path d="M443.8,298.7c0,2.2-0.8,3.4-2.3,3.4c-1.3,0-2.1-1.2-2.1-3.3c0-2.2,0.9-3.4,2.3-3.4    C443,295.4,443.8,296.6,443.8,298.7z M440.3,298.8c0,1.7,0.5,2.6,1.3,2.6c0.9,0,1.3-1,1.3-2.7c0-1.6-0.4-2.6-1.3-2.6    C440.8,296.1,440.3,297,440.3,298.8z" fill="#4D4D4D" id="path_14" tag_name="svg/g/g_15/path_14"/>
      <path d="M448.5,297.3c0,1.4-0.7,2-1.6,2c-0.8,0-1.5-0.7-1.5-2c0-1.3,0.7-2,1.6-2C447.9,295.4,448.5,296.1,448.5,297.3    z M446.2,297.4c0,0.8,0.3,1.5,0.8,1.5c0.6,0,0.8-0.6,0.8-1.5c0-0.8-0.2-1.4-0.8-1.4C446.4,295.9,446.2,296.6,446.2,297.4z     M446.9,302.1l3.8-6.7h0.6l-3.8,6.7H446.9z M452.8,300c0,1.4-0.7,2-1.5,2c-0.8,0-1.5-0.7-1.5-1.9c0-1.3,0.7-2,1.6-2    C452.2,298.1,452.8,298.8,452.8,300z M450.4,300.1c0,0.8,0.3,1.5,0.8,1.5c0.6,0,0.8-0.6,0.8-1.5c0-0.8-0.2-1.4-0.8-1.4    C450.7,298.6,450.4,299.3,450.4,300.1z" fill="#4D4D4D" id="path_13" tag_name="svg/g/g_15/path_13"/>
    </g>
    <g id="g_14" tag_name="svg/g/g_14">
      <path d="M504.2,295.5v0.6l-2.8,5.9h-0.9l2.8-5.7v0h-3.2v-0.7H504.2z" fill="#4D4D4D" id="path_12" tag_name="svg/g/g_14/path_12"/>
      <path d="M509.4,298.7c0,2.2-0.8,3.4-2.3,3.4c-1.3,0-2.1-1.2-2.1-3.3c0-2.2,0.9-3.4,2.3-3.4    C508.7,295.4,509.4,296.6,509.4,298.7z M505.9,298.8c0,1.7,0.5,2.6,1.3,2.6c0.9,0,1.3-1,1.3-2.7c0-1.6-0.4-2.6-1.3-2.6    C506.5,296.1,505.9,297,505.9,298.8z" fill="#4D4D4D" id="path_11" tag_name="svg/g/g_14/path_11"/>
      <path d="M514.2,297.3c0,1.4-0.7,2-1.6,2c-0.8,0-1.5-0.7-1.5-2c0-1.3,0.7-2,1.6-2C513.6,295.4,514.2,296.1,514.2,297.3    z M511.8,297.4c0,0.8,0.3,1.5,0.8,1.5c0.6,0,0.8-0.6,0.8-1.5c0-0.8-0.2-1.4-0.8-1.4C512.1,295.9,511.8,296.6,511.8,297.4z     M512.6,302.1l3.8-6.7h0.6l-3.8,6.7H512.6z M518.4,300c0,1.4-0.7,2-1.5,2c-0.8,0-1.5-0.7-1.5-1.9c0-1.3,0.7-2,1.6-2    C517.8,298.1,518.4,298.8,518.4,300z M516,300.1c0,0.8,0.3,1.5,0.8,1.5c0.6,0,0.8-0.6,0.8-1.5c0-0.8-0.2-1.4-0.8-1.4    C516.3,298.6,516,299.3,516,300.1z" fill="#4D4D4D" id="path_10" tag_name="svg/g/g_14/path_10"/>
    </g>
    <g id="g_13" tag_name="svg/g/g_13">
      <path d="M566.6,300.4c0-0.8,0.5-1.4,1.3-1.7l0,0c-0.7-0.3-1-0.9-1-1.5c0-1,0.9-1.7,2-1.7c1.3,0,1.9,0.8,1.9,1.6    c0,0.5-0.3,1.1-1.1,1.5v0c0.8,0.3,1.3,0.9,1.3,1.7c0,1.1-1,1.9-2.2,1.9C567.4,302.1,566.6,301.3,566.6,300.4z M570.1,300.3    c0-0.8-0.5-1.2-1.4-1.4c-0.8,0.2-1.2,0.7-1.2,1.3c0,0.7,0.5,1.2,1.3,1.2C569.6,301.5,570.1,301,570.1,300.3z M567.6,297.1    c0,0.6,0.5,1,1.2,1.2c0.6-0.2,1-0.6,1-1.2c0-0.5-0.3-1.1-1.1-1.1C568,296,567.6,296.5,567.6,297.1z" fill="#4D4D4D" id="path_9" tag_name="svg/g/g_13/path_9"/>
      <path d="M576.1,298.7c0,2.2-0.8,3.4-2.3,3.4c-1.3,0-2.1-1.2-2.1-3.3c0-2.2,0.9-3.4,2.3-3.4    C575.3,295.4,576.1,296.6,576.1,298.7z M572.6,298.8c0,1.7,0.5,2.6,1.3,2.6c0.9,0,1.3-1,1.3-2.7c0-1.6-0.4-2.6-1.3-2.6    C573.1,296.1,572.6,297,572.6,298.8z" fill="#4D4D4D" id="path_8" tag_name="svg/g/g_13/path_8"/>
      <path d="M580.8,297.3c0,1.4-0.7,2-1.6,2c-0.8,0-1.5-0.7-1.5-2c0-1.3,0.7-2,1.6-2C580.2,295.4,580.8,296.1,580.8,297.3    z M578.5,297.4c0,0.8,0.3,1.5,0.8,1.5c0.6,0,0.8-0.6,0.8-1.5c0-0.8-0.2-1.4-0.8-1.4C578.7,295.9,578.5,296.6,578.5,297.4z     M579.2,302.1l3.8-6.7h0.6l-3.8,6.7H579.2z M585.1,300c0,1.4-0.7,2-1.5,2c-0.8,0-1.5-0.7-1.5-1.9c0-1.3,0.7-2,1.6-2    C584.5,298.1,585.1,298.8,585.1,300z M582.7,300.1c0,0.8,0.3,1.5,0.8,1.5c0.6,0,0.8-0.6,0.8-1.5c0-0.8-0.2-1.4-0.8-1.4    C583,298.6,582.7,299.3,582.7,300.1z" fill="#4D4D4D" id="path_7" tag_name="svg/g/g_13/path_7"/>
    </g>
    <g id="g_12" tag_name="svg/g/g_12">
      <path d="M632.8,301.4c0.2,0,0.4,0,0.7,0c0.5-0.1,1-0.3,1.4-0.6c0.4-0.4,0.7-1,0.9-1.7h0c-0.4,0.4-0.9,0.7-1.5,0.7    c-1.2,0-1.9-0.9-1.9-2c0-1.2,0.9-2.3,2.2-2.3c1.3,0,2.1,1.1,2.1,2.7c0,1.4-0.5,2.4-1.1,3c-0.5,0.5-1.2,0.8-1.9,0.9    c-0.3,0-0.6,0.1-0.8,0V301.4z M633.1,297.6c0,0.8,0.5,1.4,1.2,1.4c0.6,0,1-0.3,1.3-0.7c0-0.1,0.1-0.2,0.1-0.3c0-1.1-0.4-2-1.3-2    C633.7,296.1,633.1,296.7,633.1,297.6z" fill="#4D4D4D" id="path_6" tag_name="svg/g/g_12/path_6"/>
      <path d="M641.7,298.7c0,2.2-0.8,3.4-2.3,3.4c-1.3,0-2.1-1.2-2.1-3.3c0-2.2,0.9-3.4,2.3-3.4    C641,295.4,641.7,296.6,641.7,298.7z M638.2,298.8c0,1.7,0.5,2.6,1.3,2.6c0.9,0,1.3-1,1.3-2.7c0-1.6-0.4-2.6-1.3-2.6    C638.8,296.1,638.2,297,638.2,298.8z" fill="#4D4D4D" id="path_5" tag_name="svg/g/g_12/path_5"/>
      <path d="M646.5,297.3c0,1.4-0.7,2-1.6,2c-0.8,0-1.5-0.7-1.5-2c0-1.3,0.7-2,1.6-2C645.9,295.4,646.5,296.1,646.5,297.3    z M644.1,297.4c0,0.8,0.3,1.5,0.8,1.5c0.6,0,0.8-0.6,0.8-1.5c0-0.8-0.2-1.4-0.8-1.4C644.4,295.9,644.1,296.6,644.1,297.4z     M644.9,302.1l3.8-6.7h0.6l-3.8,6.7H644.9z M650.7,300c0,1.4-0.7,2-1.5,2c-0.8,0-1.5-0.7-1.5-1.9c0-1.3,0.7-2,1.6-2    C650.1,298.1,650.7,298.8,650.7,300z M648.3,300.1c0,0.8,0.3,1.5,0.8,1.5c0.6,0,0.8-0.6,0.8-1.5c0-0.8-0.2-1.4-0.8-1.4    C648.6,298.6,648.3,299.3,648.3,300.1z" fill="#4D4D4D" id="path_4" tag_name="svg/g/g_12/path_4"/>
    </g>
    <g id="g_11" tag_name="svg/g/g_11">
      <path d="M697.9,296.3L697.9,296.3l-1.2,0.6l-0.2-0.7l1.4-0.8h0.7v6.5h-0.8V296.3z" fill="#4D4D4D" id="path_3" tag_name="svg/g/g_11/path_3"/>
      <path d="M705.4,298.7c0,2.2-0.8,3.4-2.3,3.4c-1.3,0-2.1-1.2-2.1-3.3c0-2.2,0.9-3.4,2.3-3.4    C704.6,295.4,705.4,296.6,705.4,298.7z M701.9,298.8c0,1.7,0.5,2.6,1.3,2.6c0.9,0,1.3-1,1.3-2.7c0-1.6-0.4-2.6-1.3-2.6    C702.4,296.1,701.9,297,701.9,298.8z" fill="#4D4D4D" id="path_2" tag_name="svg/g/g_11/path_2"/>
      <path d="M710.5,298.7c0,2.2-0.8,3.4-2.3,3.4c-1.3,0-2.1-1.2-2.1-3.3c0-2.2,0.9-3.4,2.3-3.4    C709.7,295.4,710.5,296.6,710.5,298.7z M707,298.8c0,1.7,0.5,2.6,1.3,2.6c0.9,0,1.3-1,1.3-2.7c0-1.6-0.4-2.6-1.3-2.6    C707.6,296.1,707,297,707,298.8z" fill="#4D4D4D" id="path_1" tag_name="svg/g/g_11/path_1"/>
      <path d="M715.3,297.3c0,1.4-0.7,2-1.6,2c-0.8,0-1.5-0.7-1.5-2c0-1.3,0.7-2,1.6-2C714.7,295.4,715.3,296.1,715.3,297.3    z M712.9,297.4c0,0.8,0.3,1.5,0.8,1.5c0.6,0,0.8-0.6,0.8-1.5c0-0.8-0.2-1.4-0.8-1.4C713.2,295.9,712.9,296.6,712.9,297.4z     M713.6,302.1l3.8-6.7h0.6l-3.8,6.7H713.6z M719.5,300c0,1.4-0.7,2-1.5,2c-0.8,0-1.5-0.7-1.5-1.9c0-1.3,0.7-2,1.6-2    C718.9,298.1,719.5,298.8,719.5,300z M717.1,300.1c0,0.8,0.3,1.5,0.8,1.5c0.6,0,0.8-0.6,0.8-1.5c0-0.8-0.2-1.4-0.8-1.4    C717.4,298.6,717.1,299.3,717.1,300.1z" fill="#4D4D4D" id="path" tag_name="svg/g/g_11/path"/>
    </g>
    <g id="g_10" tag_name="svg/g/g_10">
	</g>
    <g id="g_9" tag_name="svg/g/g_9">
	</g>
    <g id="g_8" tag_name="svg/g/g_8">
	</g>
    <g id="g_7" tag_name="svg/g/g_7">
	</g>
    <g id="g_6" tag_name="svg/g/g_6">
	</g>
    <g id="g_5" tag_name="svg/g/g_5">
	</g>
    <g id="g_4" tag_name="svg/g/g_4">
	</g>
    <g id="g_3" tag_name="svg/g/g_3">
	</g>
    <g id="g_2" tag_name="svg/g/g_2">
	</g>
    <g id="g_1" tag_name="svg/g/g_1">
	</g>
  </g>
</svg>