<?xml version='1.0' encoding='UTF-8'?>
<svg width="900" height="340" viewBox="-70,-30,880,340" style="max-width: 100%; height: auto; font: 10px sans-serif;" id="svg" tag_name="svg">
  <circle cx="193.1" cy="163.6" r="143" fill="none" stroke="#CCCCCC" stroke-width="0.5" stroke-miterlimit="10" id="circle_27" tag_name="svg/circle_27"/>
  <g id="g_104" tag_name="svg/g_104">
    <g id="g_105" tag_name="svg/g_104/g_105">
      <line x1="193" y1="164.2" x2="193" y2="11.6" fill="none" stroke="#999999" stroke-miterlimit="10" id="line_24" tag_name="svg/g_104/g_105/line_24"/>
      <g id="g_106" tag_name="svg/g_104/g_105/g_106">
        <polygon points="198,15.6 197.1,16.4 193,12 189,16.4 188.1,15.6 193,10.3    " fill="#999999" id="polygon_20" tag_name="svg/g_104/g_105/g_106/polygon_20"/>
      </g>
    </g>
  </g>
  <g id="g_102" tag_name="svg/g_102">
    <g id="g_103" tag_name="svg/g_102/g_103">
      <circle cx="193.1" cy="163.6" r="28.6" fill="none" stroke="#CCCCCC" stroke-width="0.5" stroke-miterlimit="10" id="circle_26" tag_name="svg/g_102/g_103/circle_26"/>
      <circle cx="193.1" cy="163.6" r="57.2" fill="none" stroke="#CCCCCC" stroke-width="0.5" stroke-miterlimit="10" id="circle_25" tag_name="svg/g_102/g_103/circle_25"/>
      <circle cx="193.1" cy="163.6" r="85.8" fill="none" stroke="#CCCCCC" stroke-width="0.5" stroke-miterlimit="10" id="circle_24" tag_name="svg/g_102/g_103/circle_24"/>
      <circle cx="193.1" cy="163.6" r="114.4" fill="none" stroke="#CCCCCC" stroke-width="0.5" stroke-miterlimit="10" id="circle_23" tag_name="svg/g_102/g_103/circle_23"/>
    </g>
  </g>
  <g id="g_99" tag_name="svg/g_99">
    <g id="g_100" tag_name="svg/g_99/g_100">
      <line x1="193" y1="164.2" x2="311.6" y2="68.1" fill="none" stroke="#999999" stroke-miterlimit="10" id="line_23" tag_name="svg/g_99/g_100/line_23"/>
      <g id="g_101" tag_name="svg/g_99/g_100/g_101">
        <polygon points="311.6,74.5 310.4,74.3 311.3,68.4 305.4,68 305.4,66.8 312.6,67.3    " fill="#999999" id="polygon_19" tag_name="svg/g_99/g_100/g_101/polygon_19"/>
      </g>
    </g>
  </g>
  <g id="g_96" tag_name="svg/g_96">
    <g id="g_97" tag_name="svg/g_96/g_97">
      <line x1="193" y1="164.2" x2="342.3" y2="195.9" fill="none" stroke="#999999" stroke-miterlimit="10" id="line_22" tag_name="svg/g_96/g_97/line_22"/>
      <g id="g_98" tag_name="svg/g_96/g_97/g_98">
        <polygon points="337.4,199.9 336.8,198.8 341.8,195.8 338.4,190.9 339.4,190.3 343.6,196.2    " fill="#999999" id="polygon_18" tag_name="svg/g_96/g_97/g_98/polygon_18"/>
      </g>
    </g>
  </g>
  <g id="g_93" tag_name="svg/g_93">
    <g id="g_94" tag_name="svg/g_93/g_94">
      <line x1="193" y1="164.2" x2="259.9" y2="301.3" fill="none" stroke="#999999" stroke-miterlimit="10" id="line_21" tag_name="svg/g_93/g_94/line_21"/>
      <g id="g_95" tag_name="svg/g_93/g_94/g_95">
        <polygon points="253.8,299.9 254.2,298.8 259.7,300.9 261.4,295.2 262.6,295.6 260.5,302.5    " fill="#999999" id="polygon_17" tag_name="svg/g_93/g_94/g_95/polygon_17"/>
      </g>
    </g>
  </g>
  <g id="g_90" tag_name="svg/g_90">
    <g id="g_91" tag_name="svg/g_90/g_91">
      <line x1="193" y1="164.2" x2="128.6" y2="302.4" fill="none" stroke="#999999" stroke-miterlimit="10" id="line_20" tag_name="svg/g_90/g_91/line_20"/>
      <g id="g_92" tag_name="svg/g_90/g_91/g_92">
        <polygon points="125.8,296.8 126.9,296.4 128.8,302 134.2,299.8 134.7,300.9 128,303.6    " fill="#999999" id="polygon_16" tag_name="svg/g_90/g_91/g_92/polygon_16"/>
      </g>
    </g>
  </g>
  <g id="g_87" tag_name="svg/g_87">
    <g id="g_88" tag_name="svg/g_87/g_88">
      <line x1="193" y1="164.2" x2="44.4" y2="198.5" fill="none" stroke="#999999" stroke-miterlimit="10" id="line_19" tag_name="svg/g_87/g_88/line_19"/>
      <g id="g_89" tag_name="svg/g_87/g_88/g_89">
        <polygon points="47.1,192.8 48.1,193.5 44.8,198.4 50,201.3 49.4,202.4 43.1,198.8    " fill="#999999" id="polygon_15" tag_name="svg/g_87/g_88/g_89/polygon_15"/>
      </g>
    </g>
  </g>
  <g id="g_84" tag_name="svg/g_84">
    <g id="g_85" tag_name="svg/g_84/g_85">
      <line x1="193" y1="164.2" x2="72.8" y2="70.2" fill="none" stroke="#999999" stroke-miterlimit="10" id="line_18" tag_name="svg/g_84/g_85/line_18"/>
      <g id="g_86" tag_name="svg/g_84/g_85/g_86">
        <polygon points="79,68.8 79.1,70 73.2,70.5 74.1,76.3 72.9,76.5 71.8,69.4    " fill="#999999" id="polygon_14" tag_name="svg/g_84/g_85/g_86/polygon_14"/>
      </g>
    </g>
  </g>
  <g id="g_82" tag_name="svg/g_82">
    <g id="g_83" tag_name="svg/g_82/g_83">
      <line x1="226.4" y1="136.7" x2="193.1" y2="142.2" fill="none" stroke="#F15A24" stroke-width="3" stroke-linecap="round" stroke-miterlimit="10" id="line_17" tag_name="svg/g_82/g_83/line_17"/>
      <line x1="263" y1="178.5" x2="226.4" y2="136.7" fill="none" stroke="#F15A24" stroke-width="3" stroke-linecap="round" stroke-miterlimit="10" id="line_16" tag_name="svg/g_82/g_83/line_16"/>
      <line x1="218.1" y1="215" x2="263" y2="178.5" fill="none" stroke="#F15A24" stroke-width="3" stroke-linecap="round" stroke-miterlimit="10" id="line_15" tag_name="svg/g_82/g_83/line_15"/>
      <line x1="144.7" y1="267.3" x2="218.1" y2="215" fill="none" stroke="#F15A24" stroke-width="3" stroke-linecap="round" stroke-miterlimit="10" id="line_14" tag_name="svg/g_82/g_83/line_14"/>
      <line x1="158.2" y1="171.7" x2="144.7" y2="267.3" fill="none" stroke="#F15A24" stroke-width="3" stroke-linecap="round" stroke-miterlimit="10" id="line_13" tag_name="svg/g_82/g_83/line_13"/>
      <line x1="86" y1="80" x2="158.2" y2="171.7" fill="none" stroke="#F15A24" stroke-width="3" stroke-linecap="round" stroke-miterlimit="10" id="line_12" tag_name="svg/g_82/g_83/line_12"/>
      <line x1="193.1" y1="142.2" x2="86" y2="80" fill="none" stroke="#F15A24" stroke-width="3" stroke-linecap="round" stroke-miterlimit="10" id="line_11" tag_name="svg/g_82/g_83/line_11"/>
    </g>
  </g>
  <g opacity="0.6" id="g_80" tag_name="svg/g_80">
    <g id="g_81" tag_name="svg/g_80/g_81">
      <polygon points="158.2,170.4 144.7,266 218.1,213.8 263,177.2 226.4,135.4 193.1,140.9 86,78.8   " fill="#FF0000" id="polygon_13" tag_name="svg/g_80/g_81/polygon_13"/>
    </g>
  </g>
  <g id="g_79" tag_name="svg/g_79">
    <circle cx="193.1" cy="142.2" r="5.3" fill="#FF0000" id="circle_22" tag_name="svg/g_79/circle_22"/>
  </g>
  <g id="g_78" tag_name="svg/g_78">
    <circle cx="226.4" cy="136.7" r="5.3" fill="#FF0000" id="circle_21" tag_name="svg/g_78/circle_21"/>
  </g>
  <g id="g_77" tag_name="svg/g_77">
    <circle cx="263" cy="178.5" r="5.3" fill="#FF0000" id="circle_20" tag_name="svg/g_77/circle_20"/>
  </g>
  <g id="g_76" tag_name="svg/g_76">
    <circle cx="218.1" cy="215" r="5.3" fill="#FF0000" id="circle_19" tag_name="svg/g_76/circle_19"/>
  </g>
  <g id="g_75" tag_name="svg/g_75">
    <circle cx="144.7" cy="267.3" r="5.3" fill="#FF0000" id="circle_18" tag_name="svg/g_75/circle_18"/>
  </g>
  <g id="g_74" tag_name="svg/g_74">
    <circle cx="158.2" cy="171.7" r="5.3" fill="#FF0000" id="circle_17" tag_name="svg/g_74/circle_17"/>
  </g>
  <g id="g_73" tag_name="svg/g_73">
    <circle cx="86" cy="80" r="5.3" fill="#FF0000" id="circle_16" tag_name="svg/g_73/circle_16"/>
  </g>
  <circle cx="536.9" cy="163.6" r="143" fill="none" stroke="#CCCCCC" stroke-width="0.5" stroke-miterlimit="10" id="circle_15" tag_name="svg/circle_15"/>
  <g id="g_70" tag_name="svg/g_70">
    <g id="g_71" tag_name="svg/g_70/g_71">
      <line x1="536.9" y1="163.8" x2="536.9" y2="12.8" fill="none" stroke="#999999" stroke-miterlimit="10" id="line_10" tag_name="svg/g_70/g_71/line_10"/>
      <g id="g_72" tag_name="svg/g_70/g_71/g_72">
        <polygon points="541.8,16.8 540.9,17.6 536.9,13.2 532.9,17.6 532,16.8 536.9,11.5    " fill="#999999" id="polygon_12" tag_name="svg/g_70/g_71/g_72/polygon_12"/>
      </g>
    </g>
  </g>
  <g id="g_68" tag_name="svg/g_68">
    <g id="g_69" tag_name="svg/g_68/g_69">
      <circle cx="536.9" cy="163.6" r="28.6" fill="none" stroke="#CCCCCC" stroke-width="0.5" stroke-miterlimit="10" id="circle_14" tag_name="svg/g_68/g_69/circle_14"/>
      <circle cx="536.9" cy="163.6" r="57.2" fill="none" stroke="#CCCCCC" stroke-width="0.5" stroke-miterlimit="10" id="circle_13" tag_name="svg/g_68/g_69/circle_13"/>
      <circle cx="536.9" cy="163.6" r="85.8" fill="none" stroke="#CCCCCC" stroke-width="0.5" stroke-miterlimit="10" id="circle_12" tag_name="svg/g_68/g_69/circle_12"/>
      <circle cx="536.9" cy="163.6" r="114.4" fill="none" stroke="#CCCCCC" stroke-width="0.5" stroke-miterlimit="10" id="circle_11" tag_name="svg/g_68/g_69/circle_11"/>
    </g>
  </g>
  <g id="g_65" tag_name="svg/g_65">
    <g id="g_66" tag_name="svg/g_65/g_66">
      <line x1="536.9" y1="163.8" x2="617" y2="35.7" fill="none" stroke="#999999" stroke-miterlimit="10" id="line_9" tag_name="svg/g_65/g_66/line_9"/>
      <g id="g_67" tag_name="svg/g_65/g_66/g_67">
        <polygon points="619,41.7 617.8,41.9 616.7,36.1 611,37.7 610.7,36.5 617.6,34.6    " fill="#999999" id="polygon_11" tag_name="svg/g_65/g_66/g_67/polygon_11"/>
      </g>
    </g>
  </g>
  <g id="g_62" tag_name="svg/g_62">
    <g id="g_63" tag_name="svg/g_62/g_63">
      <line x1="536.9" y1="163.8" x2="673.8" y2="100" fill="none" stroke="#999999" stroke-miterlimit="10" id="line_8" tag_name="svg/g_62/g_63/line_8"/>
      <g id="g_64" tag_name="svg/g_62/g_63/g_64">
        <polygon points="672.3,106.1 671.2,105.7 673.4,100.2 667.8,98.4 668.1,97.2 675,99.4    " fill="#999999" id="polygon_10" tag_name="svg/g_62/g_63/g_64/polygon_10"/>
      </g>
    </g>
  </g>
  <g id="g_59" tag_name="svg/g_59">
    <g id="g_60" tag_name="svg/g_59/g_60">
      <line x1="536.9" y1="163.8" x2="686.5" y2="184.9" fill="none" stroke="#999999" stroke-miterlimit="10" id="line_7" tag_name="svg/g_59/g_60/line_7"/>
      <g id="g_61" tag_name="svg/g_59/g_60/g_61">
        <polygon points="681.9,189.2 681.2,188.2 686,184.8 682.3,180.2 683.2,179.4 687.8,185    " fill="#999999" id="polygon_9" tag_name="svg/g_59/g_60/g_61/polygon_9"/>
      </g>
    </g>
  </g>
  <g id="g_56" tag_name="svg/g_56">
    <g id="g_57" tag_name="svg/g_56/g_57">
      <line x1="536.9" y1="163.8" x2="652.6" y2="260.9" fill="none" stroke="#999999" stroke-miterlimit="10" id="line_6" tag_name="svg/g_56/g_57/line_6"/>
      <g id="g_58" tag_name="svg/g_56/g_57/g_58">
        <polygon points="646.4,262.1 646.4,260.9 652.3,260.6 651.5,254.8 652.7,254.6 653.6,261.8    " fill="#999999" id="polygon_8" tag_name="svg/g_56/g_57/g_58/polygon_8"/>
      </g>
    </g>
  </g>
  <g id="g_53" tag_name="svg/g_53">
    <g id="g_54" tag_name="svg/g_53/g_54">
      <line x1="536.9" y1="163.8" x2="581.1" y2="308.3" fill="none" stroke="#999999" stroke-miterlimit="10" id="line_5" tag_name="svg/g_53/g_54/line_5"/>
      <g id="g_55" tag_name="svg/g_53/g_54/g_55">
        <polygon points="575.2,305.9 575.8,304.9 580.9,307.8 583.5,302.5 584.6,303 581.4,309.5    " fill="#999999" id="polygon_7" tag_name="svg/g_53/g_54/g_55/polygon_7"/>
      </g>
    </g>
  </g>
  <g id="g_50" tag_name="svg/g_50">
    <g id="g_51" tag_name="svg/g_50/g_51">
      <line x1="536.9" y1="163.8" x2="495.3" y2="309" fill="none" stroke="#999999" stroke-miterlimit="10" id="line_4" tag_name="svg/g_50/g_51/line_4"/>
      <g id="g_52" tag_name="svg/g_50/g_51/g_52">
        <polygon points="491.6,303.9 492.7,303.3 495.4,308.6 500.5,305.5 501.1,306.6 494.9,310.3    " fill="#999999" id="polygon_6" tag_name="svg/g_50/g_51/g_52/polygon_6"/>
      </g>
    </g>
  </g>
  <g id="g_47" tag_name="svg/g_47">
    <g id="g_48" tag_name="svg/g_47/g_48">
      <line x1="536.9" y1="163.8" x2="422.9" y2="262.9" fill="none" stroke="#999999" stroke-miterlimit="10" id="line_3" tag_name="svg/g_47/g_48/line_3"/>
      <g id="g_49" tag_name="svg/g_47/g_48/g_49">
        <polygon points="422.7,256.6 423.9,256.7 423.2,262.6 429.2,262.8 429.1,264 421.9,263.8    " fill="#999999" id="polygon_5" tag_name="svg/g_47/g_48/g_49/polygon_5"/>
      </g>
    </g>
  </g>
  <g id="g_44" tag_name="svg/g_44">
    <g id="g_45" tag_name="svg/g_44/g_45">
      <line x1="536.9" y1="163.8" x2="387.7" y2="187.5" fill="none" stroke="#999999" stroke-miterlimit="10" id="line_2" tag_name="svg/g_44/g_45/line_2"/>
      <g id="g_46" tag_name="svg/g_44/g_45/g_46">
        <polygon points="390.9,182 391.8,182.7 388.2,187.4 393.1,190.7 392.4,191.7 386.4,187.7    " fill="#999999" id="polygon_4" tag_name="svg/g_44/g_45/g_46/polygon_4"/>
      </g>
    </g>
  </g>
  <g id="g_41" tag_name="svg/g_41">
    <g id="g_42" tag_name="svg/g_41/g_42">
      <line x1="536.9" y1="163.8" x2="398.9" y2="102.4" fill="none" stroke="#999999" stroke-miterlimit="10" id="line_1" tag_name="svg/g_41/g_42/line_1"/>
      <g id="g_43" tag_name="svg/g_41/g_42/g_43">
        <polygon points="404.5,99.5 404.9,100.7 399.3,102.6 401.7,108 400.5,108.5 397.7,101.9    " fill="#999999" id="polygon_3" tag_name="svg/g_41/g_42/g_43/polygon_3"/>
      </g>
    </g>
  </g>
  <g id="g_38" tag_name="svg/g_38">
    <g id="g_39" tag_name="svg/g_38/g_39">
      <line x1="536.9" y1="163.8" x2="454.6" y2="37.1" fill="none" stroke="#999999" stroke-miterlimit="10" id="line" tag_name="svg/g_38/g_39/line"/>
      <g id="g_40" tag_name="svg/g_38/g_39/g_40">
        <polygon points="460.9,37.8 460.6,39 454.9,37.5 453.9,43.4 452.7,43.2 453.9,36.1    " fill="#999999" id="polygon_2" tag_name="svg/g_38/g_39/g_40/polygon_2"/>
      </g>
    </g>
  </g>
  <g id="g_31" tag_name="svg/g_31">
    <g id="g_32" tag_name="svg/g_31/g_32">
      <g id="g_37" tag_name="svg/g_31/g_32/g_37">
        <path d="M546.9,137.9v-0.5l0.6-0.6c1.5-1.4,2.2-2.2,2.2-3.1c0-0.6-0.3-1.1-1.2-1.1c-0.5,0-1,0.3-1.2,0.5l-0.3-0.6     c0.4-0.3,1-0.6,1.7-0.6c1.3,0,1.8,0.9,1.8,1.7c0,1.1-0.8,2-2,3.1l-0.5,0.4v0h2.6v0.7H546.9z" fill="#333333" id="path_11" tag_name="svg/g_31/g_32/g_37/path_11"/>
      </g>
      <g id="g_36" tag_name="svg/g_31/g_32/g_36">
        <path d="M549.3,109.3v-1.6h-2.7v-0.5l2.6-3.7h0.9v3.6h0.8v0.6h-0.8v1.6H549.3z M549.3,107.1v-2c0-0.3,0-0.6,0-0.9h0     c-0.2,0.3-0.3,0.6-0.5,0.9l-1.4,2v0H549.3z" fill="#333333" id="path_10" tag_name="svg/g_31/g_32/g_36/path_10"/>
      </g>
      <g id="g_35" tag_name="svg/g_31/g_32/g_35">
        <path d="M550.2,75.5c-0.2,0-0.4,0-0.6,0c-1.2,0.2-1.9,1.1-2,2.1h0c0.3-0.4,0.8-0.7,1.4-0.7c1,0,1.8,0.7,1.8,1.9     c0,1.1-0.7,2.1-1.9,2.1c-1.3,0-2.1-1-2.1-2.5c0-1.2,0.4-2.1,1-2.6c0.5-0.5,1.1-0.8,1.9-0.9c0.2,0,0.4,0,0.6,0V75.5z M550,78.8     c0-0.8-0.5-1.3-1.2-1.3c-0.5,0-0.9,0.3-1.1,0.7c-0.1,0.1-0.1,0.2-0.1,0.4c0,1,0.5,1.7,1.3,1.7C549.6,80.2,550,79.7,550,78.8z" fill="#333333" id="path_9" tag_name="svg/g_31/g_32/g_35/path_9"/>
      </g>
      <g id="g_34" tag_name="svg/g_31/g_32/g_34">
        <path d="M546.8,50.7c0-0.7,0.4-1.3,1.2-1.6l0,0c-0.6-0.3-0.9-0.8-0.9-1.3c0-0.9,0.8-1.6,1.8-1.6     c1.1,0,1.7,0.7,1.7,1.4c0,0.5-0.2,1-1,1.4v0c0.7,0.3,1.2,0.8,1.2,1.5c0,1-0.9,1.7-2,1.7C547.6,52.3,546.8,51.5,546.8,50.7z      M550,50.6c0-0.7-0.5-1.1-1.3-1.3c-0.7,0.2-1.1,0.6-1.1,1.2c0,0.6,0.4,1.1,1.2,1.1C549.5,51.7,550,51.2,550,50.6z M547.8,47.7     c0,0.6,0.4,0.9,1.1,1.1c0.5-0.2,0.9-0.5,0.9-1.1c0-0.5-0.3-1-1-1C548.2,46.8,547.8,47.2,547.8,47.7z" fill="#333333" id="path_8" tag_name="svg/g_31/g_32/g_34/path_8"/>
      </g>
      <g id="g_33" tag_name="svg/g_31/g_32/g_33">
        <path d="M548.6,18.5L548.6,18.5l-1,0.5l-0.2-0.6l1.3-0.7h0.7v5.9h-0.8V18.5z" fill="#333333" id="path_7" tag_name="svg/g_31/g_32/g_33/path_7"/>
        <path d="M555.4,20.6c0,2-0.7,3.1-2,3.1c-1.1,0-1.9-1.1-1.9-3c0-2,0.8-3,2-3C554.7,17.6,555.4,18.7,555.4,20.6z      M552.2,20.7c0,1.5,0.5,2.4,1.2,2.4c0.8,0,1.2-0.9,1.2-2.4c0-1.4-0.4-2.4-1.2-2.4C552.7,18.2,552.2,19.1,552.2,20.7z" fill="#333333" id="path_6" tag_name="svg/g_31/g_32/g_33/path_6"/>
      </g>
    </g>
  </g>
  <g opacity="0.6" id="g_29" tag_name="svg/g_29">
    <g id="g_30" tag_name="svg/g_29/g_30">
      <polygon points="432.9,117.1 466.7,174.8 515.8,182.4 501.9,287.3 562.4,245.7 614,228 572.7,168.6 641,115.3     560.1,127.3 537.3,27.8 510.1,121.7   " fill="#FFD500" id="polygon_1" tag_name="svg/g_29/g_30/polygon_1"/>
    </g>
  </g>
  <g id="g_27" tag_name="svg/g_27">
    <g id="g_28" tag_name="svg/g_27/g_28">
      <polygon points="432.4,117.1 466.3,174.8 515.3,182.4 501.5,287.3 562,245.7 613.6,228 572.3,168.6 640.6,115.3     559.6,127.3 536.9,27.8 509.7,121.7   " fill="none" stroke="#FCCB00" stroke-width="3" stroke-linecap="round" stroke-miterlimit="10" id="polygon" tag_name="svg/g_27/g_28/polygon"/>
    </g>
  </g>
  <g id="g_26" tag_name="svg/g_26">
    <circle cx="536.9" cy="27.8" r="5.3" fill="#FCD000" id="circle_10" tag_name="svg/g_26/circle_10"/>
  </g>
  <g id="g_25" tag_name="svg/g_25">
    <circle cx="559.6" cy="127.3" r="5.3" fill="#FCD000" id="circle_9" tag_name="svg/g_25/circle_9"/>
  </g>
  <g id="g_24" tag_name="svg/g_24">
    <circle cx="640.6" cy="115.3" r="5.3" fill="#FCD000" id="circle_8" tag_name="svg/g_24/circle_8"/>
  </g>
  <g id="g_23" tag_name="svg/g_23">
    <circle cx="572.3" cy="168.6" r="5.3" fill="#FCD000" id="circle_7" tag_name="svg/g_23/circle_7"/>
  </g>
  <g id="g_22" tag_name="svg/g_22">
    <circle cx="613.6" cy="228" r="5.3" fill="#FCD000" id="circle_6" tag_name="svg/g_22/circle_6"/>
  </g>
  <g id="g_21" tag_name="svg/g_21">
    <circle cx="562" cy="245.7" r="5.3" fill="#FCD000" id="circle_5" tag_name="svg/g_21/circle_5"/>
  </g>
  <g id="g_20" tag_name="svg/g_20">
    <circle cx="501.5" cy="287.3" r="5.3" fill="#FCD000" id="circle_4" tag_name="svg/g_20/circle_4"/>
  </g>
  <g id="g_19" tag_name="svg/g_19">
    <circle cx="515.3" cy="182.4" r="5.3" fill="#FCD000" id="circle_3" tag_name="svg/g_19/circle_3"/>
  </g>
  <g id="g_18" tag_name="svg/g_18">
    <circle cx="466.3" cy="174.8" r="5.3" fill="#FCD000" id="circle_2" tag_name="svg/g_18/circle_2"/>
  </g>
  <g id="g_17" tag_name="svg/g_17">
    <circle cx="432.4" cy="117.1" r="5.3" fill="#FCD000" id="circle_1" tag_name="svg/g_17/circle_1"/>
  </g>
  <g id="g_16" tag_name="svg/g_16">
    <circle cx="509.7" cy="121.7" r="5.3" fill="#FCD000" id="circle" tag_name="svg/g_16/circle"/>
  </g>
  <g id="g_10" tag_name="svg/g_10">
    <g id="g_15" tag_name="svg/g_10/g_15">
      <path d="M201,137.9v-0.5l0.6-0.6c1.5-1.4,2.2-2.2,2.2-3.1c0-0.6-0.3-1.1-1.2-1.1c-0.5,0-1,0.3-1.2,0.5l-0.3-0.6    c0.4-0.3,1-0.6,1.7-0.6c1.3,0,1.8,0.9,1.8,1.7c0,1.1-0.8,2-2,3.1l-0.5,0.4v0h2.6v0.7H201z" fill="#333333" id="path_5" tag_name="svg/g_10/g_15/path_5"/>
    </g>
    <g id="g_14" tag_name="svg/g_10/g_14">
      <path d="M203.5,109.3v-1.6h-2.7v-0.5l2.6-3.7h0.9v3.6h0.8v0.6h-0.8v1.6H203.5z M203.5,107.1v-2c0-0.3,0-0.6,0-0.9h0    c-0.2,0.3-0.3,0.6-0.5,0.9l-1.4,2v0H203.5z" fill="#333333" id="path_4" tag_name="svg/g_10/g_14/path_4"/>
    </g>
    <g id="g_13" tag_name="svg/g_10/g_13">
      <path d="M204.4,75.5c-0.2,0-0.4,0-0.6,0c-1.2,0.2-1.9,1.1-2,2.1h0c0.3-0.4,0.8-0.7,1.4-0.7c1,0,1.8,0.7,1.8,1.9    c0,1.1-0.7,2.1-1.9,2.1c-1.3,0-2.1-1-2.1-2.5c0-1.2,0.4-2.1,1-2.6c0.5-0.5,1.1-0.8,1.9-0.9c0.2,0,0.4,0,0.6,0V75.5z M204.2,78.8    c0-0.8-0.5-1.3-1.2-1.3c-0.5,0-0.9,0.3-1.1,0.7c-0.1,0.1-0.1,0.2-0.1,0.4c0,1,0.5,1.7,1.3,1.7C203.7,80.2,204.2,79.7,204.2,78.8z" fill="#333333" id="path_3" tag_name="svg/g_10/g_13/path_3"/>
    </g>
    <g id="g_12" tag_name="svg/g_10/g_12">
      <path d="M201,50.7c0-0.7,0.4-1.3,1.2-1.6l0,0c-0.6-0.3-0.9-0.8-0.9-1.3c0-0.9,0.8-1.6,1.8-1.6c1.1,0,1.7,0.7,1.7,1.4    c0,0.5-0.2,1-1,1.4v0c0.7,0.3,1.2,0.8,1.2,1.5c0,1-0.9,1.7-2,1.7C201.7,52.3,201,51.5,201,50.7z M204.1,50.6    c0-0.7-0.5-1.1-1.3-1.3c-0.7,0.2-1.1,0.6-1.1,1.2c0,0.6,0.4,1.1,1.2,1.1C203.7,51.7,204.1,51.2,204.1,50.6z M201.9,47.7    c0,0.6,0.4,0.9,1.1,1.1c0.5-0.2,0.9-0.5,0.9-1.1c0-0.5-0.3-1-1-1C202.3,46.8,201.9,47.2,201.9,47.7z" fill="#333333" id="path_2" tag_name="svg/g_10/g_12/path_2"/>
    </g>
    <g id="g_11" tag_name="svg/g_10/g_11">
      <path d="M202.8,18.5L202.8,18.5l-1,0.5l-0.2-0.6l1.3-0.7h0.7v5.9h-0.8V18.5z" fill="#333333" id="path_1" tag_name="svg/g_10/g_11/path_1"/>
      <path d="M209.5,20.6c0,2-0.7,3.1-2,3.1c-1.1,0-1.9-1.1-1.9-3c0-2,0.8-3,2-3C208.8,17.6,209.5,18.7,209.5,20.6z     M206.4,20.7c0,1.5,0.5,2.4,1.2,2.4c0.8,0,1.2-0.9,1.2-2.4c0-1.4-0.4-2.4-1.2-2.4C206.9,18.2,206.4,19.1,206.4,20.7z" fill="#333333" id="path" tag_name="svg/g_10/g_11/path"/>
    </g>
  </g>
  <g id="g_9" tag_name="svg/g_9">
</g>
  <g id="g_8" tag_name="svg/g_8">
</g>
  <g id="g_7" tag_name="svg/g_7">
</g>
  <g id="g_6" tag_name="svg/g_6">
</g>
  <g id="g_5" tag_name="svg/g_5">
</g>
  <g id="g_4" tag_name="svg/g_4">
</g>
  <g id="g_3" tag_name="svg/g_3">
</g>
  <g id="g_2" tag_name="svg/g_2">
</g>
  <g id="g_1" tag_name="svg/g_1">
</g>
  <g id="g" tag_name="svg/g">
</g>
</svg>