<?xml version='1.0' encoding='UTF-8'?>
<svg xmlns="http://www.w3.org/2000/svg" width="900" height="340" viewBox="0,20,1100,300" id="svg" tag_name="svg">
  <rect x="150" y="40" width="800" height="40" fill="#c7e9c0" id="rect_11" tag_name="svg/rect_11"/>
  <rect x="150" y="40" width="600" height="40" fill="#fdae6b" id="rect_10" tag_name="svg/rect_10"/>
  <rect x="150" y="40" width="400" height="40" fill="#fb6a4a" id="rect_9" tag_name="svg/rect_9"/>
  <rect x="150" y="140" width="800" height="40" fill="#c7e9c0" id="rect_8" tag_name="svg/rect_8"/>
  <rect x="150" y="140" width="600" height="40" fill="#fdae6b" id="rect_7" tag_name="svg/rect_7"/>
  <rect x="150" y="140" width="400" height="40" fill="#fb6a4a" id="rect_6" tag_name="svg/rect_6"/>
  <rect x="150" y="240" width="800" height="40" fill="#c7e9c0" id="rect_5" tag_name="svg/rect_5"/>
  <rect x="150" y="240" width="600" height="40" fill="#fdae6b" id="rect_4" tag_name="svg/rect_4"/>
  <rect x="150" y="240" width="400" height="40" fill="#fb6a4a" id="rect_3" tag_name="svg/rect_3"/>
  <rect x="150" y="50" width="400" height="20" fill="red" id="rect_2" tag_name="svg/rect_2"/>
  <rect x="150" y="150" width="600" height="20" fill="red" id="rect_1" tag_name="svg/rect_1"/>
  <rect x="150" y="250" width="500" height="20" fill="red" id="rect" tag_name="svg/rect"/>
  <line x1="500" y1="30" x2="500" y2="90" stroke="#800000" stroke-width="2" id="line_2" tag_name="svg/line_2"/>
  <line x1="800" y1="130" x2="800" y2="190" stroke="#800000" stroke-width="2" id="line_1" tag_name="svg/line_1"/>
  <line x1="700" y1="230" x2="700" y2="290" stroke="#800000" stroke-width="2" id="line" tag_name="svg/line"/>
</svg>