<?xml version='1.0' encoding='UTF-8'?>
<svg xmlns="http://www.w3.org/2000/svg" width="900" height="340" viewBox="50,0,800,400" id="svg" tag_name="svg">
  <rect x="184" y="369" width="13" height="35" fill="#3366cc" id="rect_24" tag_name="svg/rect_24"/>
  <rect x="299" y="375" width="14" height="29" fill="#3366cc" id="rect_23" tag_name="svg/rect_23"/>
  <rect x="415" y="370" width="13" height="34" fill="#3366cc" id="rect_22" tag_name="svg/rect_22"/>
  <rect x="530" y="374" width="14" height="30" fill="#3366cc" id="rect_21" tag_name="svg/rect_21"/>
  <rect x="646" y="375" width="13" height="29" fill="#3366cc" id="rect_20" tag_name="svg/rect_20"/>
  <rect x="198" y="199" width="14" height="205" fill="#dc3912" id="rect_19" tag_name="svg/rect_19"/>
  <rect x="314" y="159" width="13" height="245" fill="#dc3912" id="rect_18" tag_name="svg/rect_18"/>
  <rect x="429" y="148" width="14" height="256" fill="#dc3912" id="rect_17" tag_name="svg/rect_17"/>
  <rect x="545" y="161" width="13" height="243" fill="#dc3912" id="rect_16" tag_name="svg/rect_16"/>
  <rect x="660" y="253" width="14" height="151" fill="#dc3912" id="rect_15" tag_name="svg/rect_15"/>
  <rect x="213" y="290" width="13" height="114" fill="#ff9900" id="rect_14" tag_name="svg/rect_14"/>
  <rect x="328" y="273" width="14" height="131" fill="#ff9900" id="rect_13" tag_name="svg/rect_13"/>
  <rect x="444" y="276" width="13" height="128" fill="#ff9900" id="rect_12" tag_name="svg/rect_12"/>
  <rect x="559" y="270" width="14" height="134" fill="#ff9900" id="rect_11" tag_name="svg/rect_11"/>
  <rect x="675" y="267" width="13" height="137" fill="#ff9900" id="rect_10" tag_name="svg/rect_10"/>
  <rect x="227" y="185" width="14" height="219" fill="#109618" id="rect_9" tag_name="svg/rect_9"/>
  <rect x="343" y="126" width="13" height="278" fill="#109618" id="rect_8" tag_name="svg/rect_8"/>
  <rect x="458" y="227" width="14" height="177" fill="#109618" id="rect_7" tag_name="svg/rect_7"/>
  <rect x="574" y="192" width="13" height="212" fill="#109618" id="rect_6" tag_name="svg/rect_6"/>
  <rect x="689" y="179" width="14" height="225" fill="#109618" id="rect_5" tag_name="svg/rect_5"/>
  <rect x="242" y="306" width="13" height="98" fill="#990099" id="rect_4" tag_name="svg/rect_4"/>
  <rect x="357" y="342" width="14" height="62" fill="#990099" id="rect_3" tag_name="svg/rect_3"/>
  <rect x="473" y="318" width="13" height="86" fill="#990099" id="rect_2" tag_name="svg/rect_2"/>
  <rect x="588" y="358" width="14" height="46" fill="#990099" id="rect_1" tag_name="svg/rect_1"/>
  <rect x="704" y="324" width="13" height="80" fill="#990099" id="rect" tag_name="svg/rect"/>
</svg>