<?xml version='1.0' encoding='UTF-8'?>
<svg xmlns="http://www.w3.org/2000/svg" width="900" height="340" viewBox="-70,-30,880,340" id="svg" tag_name="svg">
  <circle cx="141.9" cy="223.5" r="21.1" fill="#22B573" opacity="0.8" id="circle_32" tag_name="svg/circle_32"/>
  <circle cx="188.6" cy="186.1" r="33.9" fill="#F15A24" opacity="0.8" id="circle_31" tag_name="svg/circle_31"/>
  <circle cx="284.9" cy="171.8" r="24.1" fill="#F15A24" opacity="0.8" id="circle_30" tag_name="svg/circle_30"/>
  <circle cx="431" cy="115.7" r="36.5" fill="#F15A24" opacity="0.8" id="circle_29" tag_name="svg/circle_29"/>
  <circle cx="541.4" cy="160.7" r="25.4" fill="#22B573" opacity="0.8" id="circle_28" tag_name="svg/circle_28"/>
  <circle cx="591.3" cy="106.8" r="28.5" fill="#F15A24" opacity="0.8" id="circle_27" tag_name="svg/circle_27"/>
  <circle cx="630.5" cy="70.2" r="24.1" fill="#F15A24" opacity="0.8" id="circle_26" tag_name="svg/circle_26"/>
  <circle cx="520.1" cy="106.8" r="16.7" fill="#F15A24" opacity="0.8" id="circle_25" tag_name="svg/circle_25"/>
  <circle cx="342.8" cy="152.2" r="33.9" fill="#22B573" opacity="0.8" id="circle_24" tag_name="svg/circle_24"/>
  <circle cx="237.6" cy="147.8" r="12.9" fill="#F15A24" opacity="0.8" id="circle_23" tag_name="svg/circle_23"/>
  <circle cx="222.5" cy="208.3" r="15.1" fill="#F15A24" opacity="0.8" id="circle_22" tag_name="svg/circle_22"/>
  <circle cx="90.6" cy="260.9" r="8" fill="#F15A24" opacity="0.8" id="circle_21" tag_name="svg/circle_21"/>
  <circle cx="129.8" cy="252.9" r="16" fill="#F15A24" opacity="0.8" id="circle_20" tag_name="svg/circle_20"/>
  <circle cx="178.8" cy="228.8" r="12.7" fill="#F15A24" opacity="0.8" id="circle_19" tag_name="svg/circle_19"/>
  <circle cx="237.6" cy="171.8" r="21.4" fill="#22B573" opacity="0.8" id="circle_18" tag_name="svg/circle_18"/>
  <circle cx="299.1" cy="115.7" r="12.5" fill="#F15A24" opacity="0.8" id="circle_17" tag_name="svg/circle_17"/>
  <circle cx="348.1" cy="78.3" r="11.8" fill="#F15A24" opacity="0.8" id="circle_16" tag_name="svg/circle_16"/>
  <circle cx="129.8" cy="123.8" r="11.8" fill="#F15A24" opacity="0.8" id="circle_15" tag_name="svg/circle_15"/>
  <circle cx="414" cy="228.8" r="13" fill="#22B573" opacity="0.8" id="circle_14" tag_name="svg/circle_14"/>
  <circle cx="474.9" cy="152.2" r="28.5" fill="#F15A24" opacity="0.8" id="circle_13" tag_name="svg/circle_13"/>
  <circle cx="389.1" cy="152.2" r="8.5" fill="#F15A24" opacity="0.8" id="circle_12" tag_name="svg/circle_12"/>
  <circle cx="394.4" cy="90.1" r="13.1" fill="#F15A24" opacity="0.8" id="circle_11" tag_name="svg/circle_11"/>
  <circle cx="467.5" cy="94.3" r="12.5" fill="#22B573" opacity="0.8" id="circle_10" tag_name="svg/circle_10"/>
  <circle cx="562.8" cy="163.8" r="16.9" fill="#F15A24" opacity="0.8" id="circle_9" tag_name="svg/circle_9"/>
  <circle cx="573.5" cy="79.2" r="18.7" fill="#F15A24" opacity="0.8" id="circle_8" tag_name="svg/circle_8"/>
  <circle cx="606.5" cy="118.4" r="9.8" fill="#22B573" opacity="0.8" id="circle_7" tag_name="svg/circle_7"/>
  <circle cx="649.1" cy="54.9" r="11.7" fill="#22B573" opacity="0.8" id="circle_6" tag_name="svg/circle_6"/>
  <circle cx="365" cy="208.3" r="11.6" fill="#F15A24" opacity="0.8" id="circle_5" tag_name="svg/circle_5"/>
  <circle cx="320.5" cy="202.3" r="6.3" fill="#F15A24" opacity="0.8" id="circle_4" tag_name="svg/circle_4"/>
  <circle cx="178.8" cy="118.4" r="5.4" fill="#22B573" opacity="0.8" id="circle_3" tag_name="svg/circle_3"/>
  <circle cx="611.8" cy="208.3" r="7.5" fill="#F15A24" opacity="0.8" id="circle_2" tag_name="svg/circle_2"/>
  <circle cx="280.4" cy="90.1" r="7.8" fill="#22B573" opacity="0.8" id="circle_1" tag_name="svg/circle_1"/>
  <circle cx="363.9" cy="171.8" r="17.5" fill="#F15A24" opacity="0.8" id="circle" tag_name="svg/circle"/>
</svg>