<?xml version='1.0' encoding='UTF-8'?>
<svg xmlns="http://www.w3.org/2000/svg" width="900" height="340" viewBox="0,0,1100,700" id="svg" tag_name="svg">
  <rect x="844.9869791666667" y="642.7222222222223" width="36.77777777777778" height="36.77777777777778" fill="#1f77b4" id="rect_251" tag_name="svg/rect_251"/>
  <rect x="807.2092013888889" y="642.7222222222223" width="36.77777777777778" height="36.77777777777778" fill="#1f77b4" id="rect_250" tag_name="svg/rect_250"/>
  <rect x="769.4314236111111" y="642.7222222222223" width="36.77777777777778" height="36.77777777777778" fill="#1f77b4" id="rect_249" tag_name="svg/rect_249"/>
  <rect x="731.6536458333333" y="642.7222222222223" width="36.77777777777778" height="36.77777777777778" fill="#1f77b4" id="rect_248" tag_name="svg/rect_248"/>
  <rect x="693.8758680555555" y="642.7222222222223" width="36.77777777777778" height="36.77777777777778" fill="#1f77b4" id="rect_247" tag_name="svg/rect_247"/>
  <rect x="656.0980902777778" y="642.7222222222223" width="36.77777777777778" height="36.77777777777778" fill="#1f77b4" id="rect_246" tag_name="svg/rect_246"/>
  <rect x="618.3203125" y="642.7222222222223" width="36.77777777777778" height="36.77777777777778" fill="#1f77b4" id="rect_245" tag_name="svg/rect_245"/>
  <rect x="580.5425347222222" y="642.7222222222223" width="36.77777777777778" height="36.77777777777778" fill="#1f77b4" id="rect_244" tag_name="svg/rect_244"/>
  <rect x="542.7647569444445" y="642.7222222222223" width="36.77777777777778" height="36.77777777777778" fill="#1f77b4" id="rect_243" tag_name="svg/rect_243"/>
  <rect x="504.98697916666663" y="642.7222222222223" width="36.77777777777778" height="36.77777777777778" fill="#1f77b4" id="rect_242" tag_name="svg/rect_242"/>
  <rect x="467.2092013888889" y="642.7222222222223" width="36.77777777777778" height="36.77777777777778" fill="#1f77b4" id="rect_241" tag_name="svg/rect_241"/>
  <rect x="429.4314236111111" y="642.7222222222223" width="36.77777777777778" height="36.77777777777778" fill="#1f77b4" id="rect_240" tag_name="svg/rect_240"/>
  <rect x="391.6536458333333" y="642.7222222222223" width="36.77777777777778" height="36.77777777777778" fill="#1f77b4" id="rect_239" tag_name="svg/rect_239"/>
  <rect x="353.87586805555554" y="642.7222222222223" width="36.77777777777778" height="36.77777777777778" fill="#1f77b4" id="rect_238" tag_name="svg/rect_238"/>
  <rect x="844.9869791666667" y="604.9444444444445" width="36.77777777777778" height="36.77777777777778" fill="#1f77b4" id="rect_237" tag_name="svg/rect_237"/>
  <rect x="807.2092013888889" y="604.9444444444445" width="36.77777777777778" height="36.77777777777778" fill="#1f77b4" id="rect_236" tag_name="svg/rect_236"/>
  <rect x="769.4314236111111" y="604.9444444444445" width="36.77777777777778" height="36.77777777777778" fill="#1f77b4" id="rect_235" tag_name="svg/rect_235"/>
  <rect x="731.6536458333333" y="604.9444444444445" width="36.77777777777778" height="36.77777777777778" fill="#1f77b4" id="rect_234" tag_name="svg/rect_234"/>
  <rect x="693.8758680555555" y="604.9444444444445" width="36.77777777777778" height="36.77777777777778" fill="#1f77b4" id="rect_233" tag_name="svg/rect_233"/>
  <rect x="656.0980902777778" y="604.9444444444445" width="36.77777777777778" height="36.77777777777778" fill="#1f77b4" id="rect_232" tag_name="svg/rect_232"/>
  <rect x="618.3203125" y="604.9444444444445" width="36.77777777777778" height="36.77777777777778" fill="#1f77b4" id="rect_231" tag_name="svg/rect_231"/>
  <rect x="580.5425347222222" y="604.9444444444445" width="36.77777777777778" height="36.77777777777778" fill="#1f77b4" id="rect_230" tag_name="svg/rect_230"/>
  <rect x="542.7647569444445" y="604.9444444444445" width="36.77777777777778" height="36.77777777777778" fill="#1f77b4" id="rect_229" tag_name="svg/rect_229"/>
  <rect x="504.98697916666663" y="604.9444444444445" width="36.77777777777778" height="36.77777777777778" fill="#1f77b4" id="rect_228" tag_name="svg/rect_228"/>
  <rect x="467.2092013888889" y="604.9444444444445" width="36.77777777777778" height="36.77777777777778" fill="#1f77b4" id="rect_227" tag_name="svg/rect_227"/>
  <rect x="429.4314236111111" y="604.9444444444445" width="36.77777777777778" height="36.77777777777778" fill="#1f77b4" id="rect_226" tag_name="svg/rect_226"/>
  <rect x="391.6536458333333" y="604.9444444444445" width="36.77777777777778" height="36.77777777777778" fill="#1f77b4" id="rect_225" tag_name="svg/rect_225"/>
  <rect x="353.87586805555554" y="604.9444444444445" width="36.77777777777778" height="36.77777777777778" fill="#1f77b4" id="rect_224" tag_name="svg/rect_224"/>
  <rect x="844.9869791666667" y="567.1666666666666" width="36.77777777777778" height="36.77777777777778" fill="#1f77b4" id="rect_223" tag_name="svg/rect_223"/>
  <rect x="807.2092013888889" y="567.1666666666666" width="36.77777777777778" height="36.77777777777778" fill="#1f77b4" id="rect_222" tag_name="svg/rect_222"/>
  <rect x="769.4314236111111" y="567.1666666666666" width="36.77777777777778" height="36.77777777777778" fill="#1f77b4" id="rect_221" tag_name="svg/rect_221"/>
  <rect x="731.6536458333333" y="567.1666666666666" width="36.77777777777778" height="36.77777777777778" fill="#1f77b4" id="rect_220" tag_name="svg/rect_220"/>
  <rect x="693.8758680555555" y="567.1666666666666" width="36.77777777777778" height="36.77777777777778" fill="#1f77b4" id="rect_219" tag_name="svg/rect_219"/>
  <rect x="656.0980902777778" y="567.1666666666666" width="36.77777777777778" height="36.77777777777778" fill="#1f77b4" id="rect_218" tag_name="svg/rect_218"/>
  <rect x="618.3203125" y="567.1666666666666" width="36.77777777777778" height="36.77777777777778" fill="#1f77b4" id="rect_217" tag_name="svg/rect_217"/>
  <rect x="580.5425347222222" y="567.1666666666666" width="36.77777777777778" height="36.77777777777778" fill="#1f77b4" id="rect_216" tag_name="svg/rect_216"/>
  <rect x="542.7647569444445" y="567.1666666666666" width="36.77777777777778" height="36.77777777777778" fill="#1f77b4" id="rect_215" tag_name="svg/rect_215"/>
  <rect x="504.98697916666663" y="567.1666666666666" width="36.77777777777778" height="36.77777777777778" fill="#1f77b4" id="rect_214" tag_name="svg/rect_214"/>
  <rect x="467.2092013888889" y="567.1666666666666" width="36.77777777777778" height="36.77777777777778" fill="#1f77b4" id="rect_213" tag_name="svg/rect_213"/>
  <rect x="429.4314236111111" y="567.1666666666666" width="36.77777777777778" height="36.77777777777778" fill="#1f77b4" id="rect_212" tag_name="svg/rect_212"/>
  <rect x="391.6536458333333" y="567.1666666666666" width="36.77777777777778" height="36.77777777777778" fill="#1f77b4" id="rect_211" tag_name="svg/rect_211"/>
  <rect x="353.87586805555554" y="567.1666666666666" width="36.77777777777778" height="36.77777777777778" fill="#ff7f0e" id="rect_210" tag_name="svg/rect_210"/>
  <rect x="844.9869791666667" y="529.3888888888889" width="36.77777777777778" height="36.77777777777778" fill="#ff7f0e" id="rect_209" tag_name="svg/rect_209"/>
  <rect x="807.2092013888889" y="529.3888888888889" width="36.77777777777778" height="36.77777777777778" fill="#ff7f0e" id="rect_208" tag_name="svg/rect_208"/>
  <rect x="769.4314236111111" y="529.3888888888889" width="36.77777777777778" height="36.77777777777778" fill="#ff7f0e" id="rect_207" tag_name="svg/rect_207"/>
  <rect x="731.6536458333333" y="529.3888888888889" width="36.77777777777778" height="36.77777777777778" fill="#ff7f0e" id="rect_206" tag_name="svg/rect_206"/>
  <rect x="693.8758680555555" y="529.3888888888889" width="36.77777777777778" height="36.77777777777778" fill="#ff7f0e" id="rect_205" tag_name="svg/rect_205"/>
  <rect x="656.0980902777778" y="529.3888888888889" width="36.77777777777778" height="36.77777777777778" fill="#ff7f0e" id="rect_204" tag_name="svg/rect_204"/>
  <rect x="618.3203125" y="529.3888888888889" width="36.77777777777778" height="36.77777777777778" fill="#ff7f0e" id="rect_203" tag_name="svg/rect_203"/>
  <rect x="580.5425347222222" y="529.3888888888889" width="36.77777777777778" height="36.77777777777778" fill="#ff7f0e" id="rect_202" tag_name="svg/rect_202"/>
  <rect x="542.7647569444445" y="529.3888888888889" width="36.77777777777778" height="36.77777777777778" fill="#ff7f0e" id="rect_201" tag_name="svg/rect_201"/>
  <rect x="504.98697916666663" y="529.3888888888889" width="36.77777777777778" height="36.77777777777778" fill="#ff7f0e" id="rect_200" tag_name="svg/rect_200"/>
  <rect x="467.2092013888889" y="529.3888888888889" width="36.77777777777778" height="36.77777777777778" fill="#ff7f0e" id="rect_199" tag_name="svg/rect_199"/>
  <rect x="429.4314236111111" y="529.3888888888889" width="36.77777777777778" height="36.77777777777778" fill="#ff7f0e" id="rect_198" tag_name="svg/rect_198"/>
  <rect x="391.6536458333333" y="529.3888888888889" width="36.77777777777778" height="36.77777777777778" fill="#ff7f0e" id="rect_197" tag_name="svg/rect_197"/>
  <rect x="353.87586805555554" y="529.3888888888889" width="36.77777777777778" height="36.77777777777778" fill="#ff7f0e" id="rect_196" tag_name="svg/rect_196"/>
  <rect x="844.9869791666667" y="491.61111111111114" width="36.77777777777778" height="36.77777777777778" fill="#ff7f0e" id="rect_195" tag_name="svg/rect_195"/>
  <rect x="807.2092013888889" y="491.61111111111114" width="36.77777777777778" height="36.77777777777778" fill="#ff7f0e" id="rect_194" tag_name="svg/rect_194"/>
  <rect x="769.4314236111111" y="491.61111111111114" width="36.77777777777778" height="36.77777777777778" fill="#ff7f0e" id="rect_193" tag_name="svg/rect_193"/>
  <rect x="731.6536458333333" y="491.61111111111114" width="36.77777777777778" height="36.77777777777778" fill="#ff7f0e" id="rect_192" tag_name="svg/rect_192"/>
  <rect x="693.8758680555555" y="491.61111111111114" width="36.77777777777778" height="36.77777777777778" fill="#ff7f0e" id="rect_191" tag_name="svg/rect_191"/>
  <rect x="656.0980902777778" y="491.61111111111114" width="36.77777777777778" height="36.77777777777778" fill="#ff7f0e" id="rect_190" tag_name="svg/rect_190"/>
  <rect x="618.3203125" y="491.61111111111114" width="36.77777777777778" height="36.77777777777778" fill="#ff7f0e" id="rect_189" tag_name="svg/rect_189"/>
  <rect x="580.5425347222222" y="491.61111111111114" width="36.77777777777778" height="36.77777777777778" fill="#ff7f0e" id="rect_188" tag_name="svg/rect_188"/>
  <rect x="542.7647569444445" y="491.61111111111114" width="36.77777777777778" height="36.77777777777778" fill="#ff7f0e" id="rect_187" tag_name="svg/rect_187"/>
  <rect x="504.98697916666663" y="491.61111111111114" width="36.77777777777778" height="36.77777777777778" fill="#ff7f0e" id="rect_186" tag_name="svg/rect_186"/>
  <rect x="467.2092013888889" y="491.61111111111114" width="36.77777777777778" height="36.77777777777778" fill="#ff7f0e" id="rect_185" tag_name="svg/rect_185"/>
  <rect x="429.4314236111111" y="491.61111111111114" width="36.77777777777778" height="36.77777777777778" fill="#ff7f0e" id="rect_184" tag_name="svg/rect_184"/>
  <rect x="391.6536458333333" y="491.61111111111114" width="36.77777777777778" height="36.77777777777778" fill="#ff7f0e" id="rect_183" tag_name="svg/rect_183"/>
  <rect x="353.87586805555554" y="491.61111111111114" width="36.77777777777778" height="36.77777777777778" fill="#ff7f0e" id="rect_182" tag_name="svg/rect_182"/>
  <rect x="844.9869791666667" y="453.83333333333337" width="36.77777777777778" height="36.77777777777778" fill="#ff7f0e" id="rect_181" tag_name="svg/rect_181"/>
  <rect x="807.2092013888889" y="453.83333333333337" width="36.77777777777778" height="36.77777777777778" fill="#ff7f0e" id="rect_180" tag_name="svg/rect_180"/>
  <rect x="769.4314236111111" y="453.83333333333337" width="36.77777777777778" height="36.77777777777778" fill="#ff7f0e" id="rect_179" tag_name="svg/rect_179"/>
  <rect x="731.6536458333333" y="453.83333333333337" width="36.77777777777778" height="36.77777777777778" fill="#ff7f0e" id="rect_178" tag_name="svg/rect_178"/>
  <rect x="693.8758680555555" y="453.83333333333337" width="36.77777777777778" height="36.77777777777778" fill="#ff7f0e" id="rect_177" tag_name="svg/rect_177"/>
  <rect x="656.0980902777778" y="453.83333333333337" width="36.77777777777778" height="36.77777777777778" fill="#ff7f0e" id="rect_176" tag_name="svg/rect_176"/>
  <rect x="618.3203125" y="453.83333333333337" width="36.77777777777778" height="36.77777777777778" fill="#ff7f0e" id="rect_175" tag_name="svg/rect_175"/>
  <rect x="580.5425347222222" y="453.83333333333337" width="36.77777777777778" height="36.77777777777778" fill="#ff7f0e" id="rect_174" tag_name="svg/rect_174"/>
  <rect x="542.7647569444445" y="453.83333333333337" width="36.77777777777778" height="36.77777777777778" fill="#ff7f0e" id="rect_173" tag_name="svg/rect_173"/>
  <rect x="504.98697916666663" y="453.83333333333337" width="36.77777777777778" height="36.77777777777778" fill="#ff7f0e" id="rect_172" tag_name="svg/rect_172"/>
  <rect x="467.2092013888889" y="453.83333333333337" width="36.77777777777778" height="36.77777777777778" fill="#ff7f0e" id="rect_171" tag_name="svg/rect_171"/>
  <rect x="429.4314236111111" y="453.83333333333337" width="36.77777777777778" height="36.77777777777778" fill="#ff7f0e" id="rect_170" tag_name="svg/rect_170"/>
  <rect x="391.6536458333333" y="453.83333333333337" width="36.77777777777778" height="36.77777777777778" fill="#ff7f0e" id="rect_169" tag_name="svg/rect_169"/>
  <rect x="353.87586805555554" y="453.83333333333337" width="36.77777777777778" height="36.77777777777778" fill="#ff7f0e" id="rect_168" tag_name="svg/rect_168"/>
  <rect x="844.9869791666667" y="416.05555555555554" width="36.77777777777778" height="36.77777777777778" fill="#ff7f0e" id="rect_167" tag_name="svg/rect_167"/>
  <rect x="807.2092013888889" y="416.05555555555554" width="36.77777777777778" height="36.77777777777778" fill="#2ca02c" id="rect_166" tag_name="svg/rect_166"/>
  <rect x="769.4314236111111" y="416.05555555555554" width="36.77777777777778" height="36.77777777777778" fill="#2ca02c" id="rect_165" tag_name="svg/rect_165"/>
  <rect x="731.6536458333333" y="416.05555555555554" width="36.77777777777778" height="36.77777777777778" fill="#2ca02c" id="rect_164" tag_name="svg/rect_164"/>
  <rect x="693.8758680555555" y="416.05555555555554" width="36.77777777777778" height="36.77777777777778" fill="#2ca02c" id="rect_163" tag_name="svg/rect_163"/>
  <rect x="656.0980902777778" y="416.05555555555554" width="36.77777777777778" height="36.77777777777778" fill="#2ca02c" id="rect_162" tag_name="svg/rect_162"/>
  <rect x="618.3203125" y="416.05555555555554" width="36.77777777777778" height="36.77777777777778" fill="#2ca02c" id="rect_161" tag_name="svg/rect_161"/>
  <rect x="580.5425347222222" y="416.05555555555554" width="36.77777777777778" height="36.77777777777778" fill="#2ca02c" id="rect_160" tag_name="svg/rect_160"/>
  <rect x="542.7647569444445" y="416.05555555555554" width="36.77777777777778" height="36.77777777777778" fill="#2ca02c" id="rect_159" tag_name="svg/rect_159"/>
  <rect x="504.98697916666663" y="416.05555555555554" width="36.77777777777778" height="36.77777777777778" fill="#2ca02c" id="rect_158" tag_name="svg/rect_158"/>
  <rect x="467.2092013888889" y="416.05555555555554" width="36.77777777777778" height="36.77777777777778" fill="#2ca02c" id="rect_157" tag_name="svg/rect_157"/>
  <rect x="429.4314236111111" y="416.05555555555554" width="36.77777777777778" height="36.77777777777778" fill="#2ca02c" id="rect_156" tag_name="svg/rect_156"/>
  <rect x="391.6536458333333" y="416.05555555555554" width="36.77777777777778" height="36.77777777777778" fill="#2ca02c" id="rect_155" tag_name="svg/rect_155"/>
  <rect x="353.87586805555554" y="416.05555555555554" width="36.77777777777778" height="36.77777777777778" fill="#2ca02c" id="rect_154" tag_name="svg/rect_154"/>
  <rect x="844.9869791666667" y="378.27777777777777" width="36.77777777777778" height="36.77777777777778" fill="#2ca02c" id="rect_153" tag_name="svg/rect_153"/>
  <rect x="807.2092013888889" y="378.27777777777777" width="36.77777777777778" height="36.77777777777778" fill="#2ca02c" id="rect_152" tag_name="svg/rect_152"/>
  <rect x="769.4314236111111" y="378.27777777777777" width="36.77777777777778" height="36.77777777777778" fill="#2ca02c" id="rect_151" tag_name="svg/rect_151"/>
  <rect x="731.6536458333333" y="378.27777777777777" width="36.77777777777778" height="36.77777777777778" fill="#2ca02c" id="rect_150" tag_name="svg/rect_150"/>
  <rect x="693.8758680555555" y="378.27777777777777" width="36.77777777777778" height="36.77777777777778" fill="#2ca02c" id="rect_149" tag_name="svg/rect_149"/>
  <rect x="656.0980902777778" y="378.27777777777777" width="36.77777777777778" height="36.77777777777778" fill="#2ca02c" id="rect_148" tag_name="svg/rect_148"/>
  <rect x="618.3203125" y="378.27777777777777" width="36.77777777777778" height="36.77777777777778" fill="#2ca02c" id="rect_147" tag_name="svg/rect_147"/>
  <rect x="580.5425347222222" y="378.27777777777777" width="36.77777777777778" height="36.77777777777778" fill="#2ca02c" id="rect_146" tag_name="svg/rect_146"/>
  <rect x="542.7647569444445" y="378.27777777777777" width="36.77777777777778" height="36.77777777777778" fill="#2ca02c" id="rect_145" tag_name="svg/rect_145"/>
  <rect x="504.98697916666663" y="378.27777777777777" width="36.77777777777778" height="36.77777777777778" fill="#2ca02c" id="rect_144" tag_name="svg/rect_144"/>
  <rect x="467.2092013888889" y="378.27777777777777" width="36.77777777777778" height="36.77777777777778" fill="#2ca02c" id="rect_143" tag_name="svg/rect_143"/>
  <rect x="429.4314236111111" y="378.27777777777777" width="36.77777777777778" height="36.77777777777778" fill="#2ca02c" id="rect_142" tag_name="svg/rect_142"/>
  <rect x="391.6536458333333" y="378.27777777777777" width="36.77777777777778" height="36.77777777777778" fill="#2ca02c" id="rect_141" tag_name="svg/rect_141"/>
  <rect x="353.87586805555554" y="378.27777777777777" width="36.77777777777778" height="36.77777777777778" fill="#2ca02c" id="rect_140" tag_name="svg/rect_140"/>
  <rect x="844.9869791666667" y="340.5" width="36.77777777777778" height="36.77777777777778" fill="#2ca02c" id="rect_139" tag_name="svg/rect_139"/>
  <rect x="807.2092013888889" y="340.5" width="36.77777777777778" height="36.77777777777778" fill="#2ca02c" id="rect_138" tag_name="svg/rect_138"/>
  <rect x="769.4314236111111" y="340.5" width="36.77777777777778" height="36.77777777777778" fill="#2ca02c" id="rect_137" tag_name="svg/rect_137"/>
  <rect x="731.6536458333333" y="340.5" width="36.77777777777778" height="36.77777777777778" fill="#2ca02c" id="rect_136" tag_name="svg/rect_136"/>
  <rect x="693.8758680555555" y="340.5" width="36.77777777777778" height="36.77777777777778" fill="#2ca02c" id="rect_135" tag_name="svg/rect_135"/>
  <rect x="656.0980902777778" y="340.5" width="36.77777777777778" height="36.77777777777778" fill="#2ca02c" id="rect_134" tag_name="svg/rect_134"/>
  <rect x="618.3203125" y="340.5" width="36.77777777777778" height="36.77777777777778" fill="#2ca02c" id="rect_133" tag_name="svg/rect_133"/>
  <rect x="580.5425347222222" y="340.5" width="36.77777777777778" height="36.77777777777778" fill="#2ca02c" id="rect_132" tag_name="svg/rect_132"/>
  <rect x="542.7647569444445" y="340.5" width="36.77777777777778" height="36.77777777777778" fill="#2ca02c" id="rect_131" tag_name="svg/rect_131"/>
  <rect x="504.98697916666663" y="340.5" width="36.77777777777778" height="36.77777777777778" fill="#2ca02c" id="rect_130" tag_name="svg/rect_130"/>
  <rect x="467.2092013888889" y="340.5" width="36.77777777777778" height="36.77777777777778" fill="#2ca02c" id="rect_129" tag_name="svg/rect_129"/>
  <rect x="429.4314236111111" y="340.5" width="36.77777777777778" height="36.77777777777778" fill="#2ca02c" id="rect_128" tag_name="svg/rect_128"/>
  <rect x="391.6536458333333" y="340.5" width="36.77777777777778" height="36.77777777777778" fill="#2ca02c" id="rect_127" tag_name="svg/rect_127"/>
  <rect x="353.87586805555554" y="340.5" width="36.77777777777778" height="36.77777777777778" fill="#2ca02c" id="rect_126" tag_name="svg/rect_126"/>
  <rect x="844.9869791666667" y="302.72222222222223" width="36.77777777777778" height="36.77777777777778" fill="#2ca02c" id="rect_125" tag_name="svg/rect_125"/>
  <rect x="807.2092013888889" y="302.72222222222223" width="36.77777777777778" height="36.77777777777778" fill="#2ca02c" id="rect_124" tag_name="svg/rect_124"/>
  <rect x="769.4314236111111" y="302.72222222222223" width="36.77777777777778" height="36.77777777777778" fill="#2ca02c" id="rect_123" tag_name="svg/rect_123"/>
  <rect x="731.6536458333333" y="302.72222222222223" width="36.77777777777778" height="36.77777777777778" fill="#2ca02c" id="rect_122" tag_name="svg/rect_122"/>
  <rect x="693.8758680555555" y="302.72222222222223" width="36.77777777777778" height="36.77777777777778" fill="#2ca02c" id="rect_121" tag_name="svg/rect_121"/>
  <rect x="656.0980902777778" y="302.72222222222223" width="36.77777777777778" height="36.77777777777778" fill="#2ca02c" id="rect_120" tag_name="svg/rect_120"/>
  <rect x="618.3203125" y="302.72222222222223" width="36.77777777777778" height="36.77777777777778" fill="#2ca02c" id="rect_119" tag_name="svg/rect_119"/>
  <rect x="580.5425347222222" y="302.72222222222223" width="36.77777777777778" height="36.77777777777778" fill="#2ca02c" id="rect_118" tag_name="svg/rect_118"/>
  <rect x="542.7647569444445" y="302.72222222222223" width="36.77777777777778" height="36.77777777777778" fill="#2ca02c" id="rect_117" tag_name="svg/rect_117"/>
  <rect x="504.98697916666663" y="302.72222222222223" width="36.77777777777778" height="36.77777777777778" fill="#2ca02c" id="rect_116" tag_name="svg/rect_116"/>
  <rect x="467.2092013888889" y="302.72222222222223" width="36.77777777777778" height="36.77777777777778" fill="#2ca02c" id="rect_115" tag_name="svg/rect_115"/>
  <rect x="429.4314236111111" y="302.72222222222223" width="36.77777777777778" height="36.77777777777778" fill="#2ca02c" id="rect_114" tag_name="svg/rect_114"/>
  <rect x="391.6536458333333" y="302.72222222222223" width="36.77777777777778" height="36.77777777777778" fill="#2ca02c" id="rect_113" tag_name="svg/rect_113"/>
  <rect x="353.87586805555554" y="302.72222222222223" width="36.77777777777778" height="36.77777777777778" fill="#2ca02c" id="rect_112" tag_name="svg/rect_112"/>
  <rect x="844.9869791666667" y="264.94444444444446" width="36.77777777777778" height="36.77777777777778" fill="#2ca02c" id="rect_111" tag_name="svg/rect_111"/>
  <rect x="807.2092013888889" y="264.94444444444446" width="36.77777777777778" height="36.77777777777778" fill="#2ca02c" id="rect_110" tag_name="svg/rect_110"/>
  <rect x="769.4314236111111" y="264.94444444444446" width="36.77777777777778" height="36.77777777777778" fill="#2ca02c" id="rect_109" tag_name="svg/rect_109"/>
  <rect x="731.6536458333333" y="264.94444444444446" width="36.77777777777778" height="36.77777777777778" fill="#2ca02c" id="rect_108" tag_name="svg/rect_108"/>
  <rect x="693.8758680555555" y="264.94444444444446" width="36.77777777777778" height="36.77777777777778" fill="#2ca02c" id="rect_107" tag_name="svg/rect_107"/>
  <rect x="656.0980902777778" y="264.94444444444446" width="36.77777777777778" height="36.77777777777778" fill="#2ca02c" id="rect_106" tag_name="svg/rect_106"/>
  <rect x="618.3203125" y="264.94444444444446" width="36.77777777777778" height="36.77777777777778" fill="#2ca02c" id="rect_105" tag_name="svg/rect_105"/>
  <rect x="580.5425347222222" y="264.94444444444446" width="36.77777777777778" height="36.77777777777778" fill="#2ca02c" id="rect_104" tag_name="svg/rect_104"/>
  <rect x="542.7647569444445" y="264.94444444444446" width="36.77777777777778" height="36.77777777777778" fill="#2ca02c" id="rect_103" tag_name="svg/rect_103"/>
  <rect x="504.98697916666663" y="264.94444444444446" width="36.77777777777778" height="36.77777777777778" fill="#2ca02c" id="rect_102" tag_name="svg/rect_102"/>
  <rect x="467.2092013888889" y="264.94444444444446" width="36.77777777777778" height="36.77777777777778" fill="#2ca02c" id="rect_101" tag_name="svg/rect_101"/>
  <rect x="429.4314236111111" y="264.94444444444446" width="36.77777777777778" height="36.77777777777778" fill="#2ca02c" id="rect_100" tag_name="svg/rect_100"/>
  <rect x="391.6536458333333" y="264.94444444444446" width="36.77777777777778" height="36.77777777777778" fill="#2ca02c" id="rect_99" tag_name="svg/rect_99"/>
  <rect x="353.87586805555554" y="264.94444444444446" width="36.77777777777778" height="36.77777777777778" fill="#2ca02c" id="rect_98" tag_name="svg/rect_98"/>
  <rect x="844.9869791666667" y="227.16666666666669" width="36.77777777777778" height="36.77777777777778" fill="#2ca02c" id="rect_97" tag_name="svg/rect_97"/>
  <rect x="807.2092013888889" y="227.16666666666669" width="36.77777777777778" height="36.77777777777778" fill="#2ca02c" id="rect_96" tag_name="svg/rect_96"/>
  <rect x="769.4314236111111" y="227.16666666666669" width="36.77777777777778" height="36.77777777777778" fill="#2ca02c" id="rect_95" tag_name="svg/rect_95"/>
  <rect x="731.6536458333333" y="227.16666666666669" width="36.77777777777778" height="36.77777777777778" fill="#2ca02c" id="rect_94" tag_name="svg/rect_94"/>
  <rect x="693.8758680555555" y="227.16666666666669" width="36.77777777777778" height="36.77777777777778" fill="#2ca02c" id="rect_93" tag_name="svg/rect_93"/>
  <rect x="656.0980902777778" y="227.16666666666669" width="36.77777777777778" height="36.77777777777778" fill="#2ca02c" id="rect_92" tag_name="svg/rect_92"/>
  <rect x="618.3203125" y="227.16666666666669" width="36.77777777777778" height="36.77777777777778" fill="#2ca02c" id="rect_91" tag_name="svg/rect_91"/>
  <rect x="580.5425347222222" y="227.16666666666669" width="36.77777777777778" height="36.77777777777778" fill="#2ca02c" id="rect_90" tag_name="svg/rect_90"/>
  <rect x="542.7647569444445" y="227.16666666666669" width="36.77777777777778" height="36.77777777777778" fill="#2ca02c" id="rect_89" tag_name="svg/rect_89"/>
  <rect x="504.98697916666663" y="227.16666666666669" width="36.77777777777778" height="36.77777777777778" fill="#2ca02c" id="rect_88" tag_name="svg/rect_88"/>
  <rect x="467.2092013888889" y="227.16666666666669" width="36.77777777777778" height="36.77777777777778" fill="#2ca02c" id="rect_87" tag_name="svg/rect_87"/>
  <rect x="429.4314236111111" y="227.16666666666669" width="36.77777777777778" height="36.77777777777778" fill="#cccccc" id="rect_86" tag_name="svg/rect_86"/>
  <rect x="391.6536458333333" y="227.16666666666669" width="36.77777777777778" height="36.77777777777778" fill="#cccccc" id="rect_85" tag_name="svg/rect_85"/>
  <rect x="353.87586805555554" y="227.16666666666669" width="36.77777777777778" height="36.77777777777778" fill="#cccccc" id="rect_84" tag_name="svg/rect_84"/>
  <rect x="844.9869791666667" y="189.38888888888889" width="36.77777777777778" height="36.77777777777778" fill="#cccccc" id="rect_83" tag_name="svg/rect_83"/>
  <rect x="807.2092013888889" y="189.38888888888889" width="36.77777777777778" height="36.77777777777778" fill="#cccccc" id="rect_82" tag_name="svg/rect_82"/>
  <rect x="769.4314236111111" y="189.38888888888889" width="36.77777777777778" height="36.77777777777778" fill="#cccccc" id="rect_81" tag_name="svg/rect_81"/>
  <rect x="731.6536458333333" y="189.38888888888889" width="36.77777777777778" height="36.77777777777778" fill="#cccccc" id="rect_80" tag_name="svg/rect_80"/>
  <rect x="693.8758680555555" y="189.38888888888889" width="36.77777777777778" height="36.77777777777778" fill="#cccccc" id="rect_79" tag_name="svg/rect_79"/>
  <rect x="656.0980902777778" y="189.38888888888889" width="36.77777777777778" height="36.77777777777778" fill="#cccccc" id="rect_78" tag_name="svg/rect_78"/>
  <rect x="618.3203125" y="189.38888888888889" width="36.77777777777778" height="36.77777777777778" fill="#cccccc" id="rect_77" tag_name="svg/rect_77"/>
  <rect x="580.5425347222222" y="189.38888888888889" width="36.77777777777778" height="36.77777777777778" fill="#cccccc" id="rect_76" tag_name="svg/rect_76"/>
  <rect x="542.7647569444445" y="189.38888888888889" width="36.77777777777778" height="36.77777777777778" fill="#cccccc" id="rect_75" tag_name="svg/rect_75"/>
  <rect x="504.98697916666663" y="189.38888888888889" width="36.77777777777778" height="36.77777777777778" fill="#cccccc" id="rect_74" tag_name="svg/rect_74"/>
  <rect x="467.2092013888889" y="189.38888888888889" width="36.77777777777778" height="36.77777777777778" fill="#cccccc" id="rect_73" tag_name="svg/rect_73"/>
  <rect x="429.4314236111111" y="189.38888888888889" width="36.77777777777778" height="36.77777777777778" fill="#cccccc" id="rect_72" tag_name="svg/rect_72"/>
  <rect x="391.6536458333333" y="189.38888888888889" width="36.77777777777778" height="36.77777777777778" fill="#cccccc" id="rect_71" tag_name="svg/rect_71"/>
  <rect x="353.87586805555554" y="189.38888888888889" width="36.77777777777778" height="36.77777777777778" fill="#cccccc" id="rect_70" tag_name="svg/rect_70"/>
  <rect x="844.9869791666667" y="151.61111111111111" width="36.77777777777778" height="36.77777777777778" fill="#cccccc" id="rect_69" tag_name="svg/rect_69"/>
  <rect x="807.2092013888889" y="151.61111111111111" width="36.77777777777778" height="36.77777777777778" fill="#cccccc" id="rect_68" tag_name="svg/rect_68"/>
  <rect x="769.4314236111111" y="151.61111111111111" width="36.77777777777778" height="36.77777777777778" fill="#cccccc" id="rect_67" tag_name="svg/rect_67"/>
  <rect x="731.6536458333333" y="151.61111111111111" width="36.77777777777778" height="36.77777777777778" fill="#cccccc" id="rect_66" tag_name="svg/rect_66"/>
  <rect x="693.8758680555555" y="151.61111111111111" width="36.77777777777778" height="36.77777777777778" fill="#cccccc" id="rect_65" tag_name="svg/rect_65"/>
  <rect x="656.0980902777778" y="151.61111111111111" width="36.77777777777778" height="36.77777777777778" fill="#cccccc" id="rect_64" tag_name="svg/rect_64"/>
  <rect x="618.3203125" y="151.61111111111111" width="36.77777777777778" height="36.77777777777778" fill="#cccccc" id="rect_63" tag_name="svg/rect_63"/>
  <rect x="580.5425347222222" y="151.61111111111111" width="36.77777777777778" height="36.77777777777778" fill="#cccccc" id="rect_62" tag_name="svg/rect_62"/>
  <rect x="542.7647569444445" y="151.61111111111111" width="36.77777777777778" height="36.77777777777778" fill="#cccccc" id="rect_61" tag_name="svg/rect_61"/>
  <rect x="504.98697916666663" y="151.61111111111111" width="36.77777777777778" height="36.77777777777778" fill="#cccccc" id="rect_60" tag_name="svg/rect_60"/>
  <rect x="467.2092013888889" y="151.61111111111111" width="36.77777777777778" height="36.77777777777778" fill="#cccccc" id="rect_59" tag_name="svg/rect_59"/>
  <rect x="429.4314236111111" y="151.61111111111111" width="36.77777777777778" height="36.77777777777778" fill="#cccccc" id="rect_58" tag_name="svg/rect_58"/>
  <rect x="391.6536458333333" y="151.61111111111111" width="36.77777777777778" height="36.77777777777778" fill="#cccccc" id="rect_57" tag_name="svg/rect_57"/>
  <rect x="353.87586805555554" y="151.61111111111111" width="36.77777777777778" height="36.77777777777778" fill="#cccccc" id="rect_56" tag_name="svg/rect_56"/>
  <rect x="844.9869791666667" y="113.83333333333334" width="36.77777777777778" height="36.77777777777778" fill="#cccccc" id="rect_55" tag_name="svg/rect_55"/>
  <rect x="807.2092013888889" y="113.83333333333334" width="36.77777777777778" height="36.77777777777778" fill="#cccccc" id="rect_54" tag_name="svg/rect_54"/>
  <rect x="769.4314236111111" y="113.83333333333334" width="36.77777777777778" height="36.77777777777778" fill="#cccccc" id="rect_53" tag_name="svg/rect_53"/>
  <rect x="731.6536458333333" y="113.83333333333334" width="36.77777777777778" height="36.77777777777778" fill="#cccccc" id="rect_52" tag_name="svg/rect_52"/>
  <rect x="693.8758680555555" y="113.83333333333334" width="36.77777777777778" height="36.77777777777778" fill="#cccccc" id="rect_51" tag_name="svg/rect_51"/>
  <rect x="656.0980902777778" y="113.83333333333334" width="36.77777777777778" height="36.77777777777778" fill="#cccccc" id="rect_50" tag_name="svg/rect_50"/>
  <rect x="618.3203125" y="113.83333333333334" width="36.77777777777778" height="36.77777777777778" fill="#cccccc" id="rect_49" tag_name="svg/rect_49"/>
  <rect x="580.5425347222222" y="113.83333333333334" width="36.77777777777778" height="36.77777777777778" fill="#cccccc" id="rect_48" tag_name="svg/rect_48"/>
  <rect x="542.7647569444445" y="113.83333333333334" width="36.77777777777778" height="36.77777777777778" fill="#cccccc" id="rect_47" tag_name="svg/rect_47"/>
  <rect x="504.98697916666663" y="113.83333333333334" width="36.77777777777778" height="36.77777777777778" fill="#cccccc" id="rect_46" tag_name="svg/rect_46"/>
  <rect x="467.2092013888889" y="113.83333333333334" width="36.77777777777778" height="36.77777777777778" fill="#cccccc" id="rect_45" tag_name="svg/rect_45"/>
  <rect x="429.4314236111111" y="113.83333333333334" width="36.77777777777778" height="36.77777777777778" fill="#cccccc" id="rect_44" tag_name="svg/rect_44"/>
  <rect x="391.6536458333333" y="113.83333333333334" width="36.77777777777778" height="36.77777777777778" fill="#cccccc" id="rect_43" tag_name="svg/rect_43"/>
  <rect x="353.87586805555554" y="113.83333333333334" width="36.77777777777778" height="36.77777777777778" fill="#cccccc" id="rect_42" tag_name="svg/rect_42"/>
  <rect x="844.9869791666667" y="76.05555555555556" width="36.77777777777778" height="36.77777777777778" fill="#cccccc" id="rect_41" tag_name="svg/rect_41"/>
  <rect x="807.2092013888889" y="76.05555555555556" width="36.77777777777778" height="36.77777777777778" fill="#cccccc" id="rect_40" tag_name="svg/rect_40"/>
  <rect x="769.4314236111111" y="76.05555555555556" width="36.77777777777778" height="36.77777777777778" fill="#cccccc" id="rect_39" tag_name="svg/rect_39"/>
  <rect x="731.6536458333333" y="76.05555555555556" width="36.77777777777778" height="36.77777777777778" fill="#cccccc" id="rect_38" tag_name="svg/rect_38"/>
  <rect x="693.8758680555555" y="76.05555555555556" width="36.77777777777778" height="36.77777777777778" fill="#cccccc" id="rect_37" tag_name="svg/rect_37"/>
  <rect x="656.0980902777778" y="76.05555555555556" width="36.77777777777778" height="36.77777777777778" fill="#cccccc" id="rect_36" tag_name="svg/rect_36"/>
  <rect x="618.3203125" y="76.05555555555556" width="36.77777777777778" height="36.77777777777778" fill="#cccccc" id="rect_35" tag_name="svg/rect_35"/>
  <rect x="580.5425347222222" y="76.05555555555556" width="36.77777777777778" height="36.77777777777778" fill="#cccccc" id="rect_34" tag_name="svg/rect_34"/>
  <rect x="542.7647569444445" y="76.05555555555556" width="36.77777777777778" height="36.77777777777778" fill="#cccccc" id="rect_33" tag_name="svg/rect_33"/>
  <rect x="504.98697916666663" y="76.05555555555556" width="36.77777777777778" height="36.77777777777778" fill="#cccccc" id="rect_32" tag_name="svg/rect_32"/>
  <rect x="467.2092013888889" y="76.05555555555556" width="36.77777777777778" height="36.77777777777778" fill="#cccccc" id="rect_31" tag_name="svg/rect_31"/>
  <rect x="429.4314236111111" y="76.05555555555556" width="36.77777777777778" height="36.77777777777778" fill="#cccccc" id="rect_30" tag_name="svg/rect_30"/>
  <rect x="391.6536458333333" y="76.05555555555556" width="36.77777777777778" height="36.77777777777778" fill="#cccccc" id="rect_29" tag_name="svg/rect_29"/>
  <rect x="353.87586805555554" y="76.05555555555556" width="36.77777777777778" height="36.77777777777778" fill="#cccccc" id="rect_28" tag_name="svg/rect_28"/>
  <rect x="844.9869791666667" y="38.27777777777778" width="36.77777777777778" height="36.77777777777778" fill="#cccccc" id="rect_27" tag_name="svg/rect_27"/>
  <rect x="807.2092013888889" y="38.27777777777778" width="36.77777777777778" height="36.77777777777778" fill="#cccccc" id="rect_26" tag_name="svg/rect_26"/>
  <rect x="769.4314236111111" y="38.27777777777778" width="36.77777777777778" height="36.77777777777778" fill="#cccccc" id="rect_25" tag_name="svg/rect_25"/>
  <rect x="731.6536458333333" y="38.27777777777778" width="36.77777777777778" height="36.77777777777778" fill="#cccccc" id="rect_24" tag_name="svg/rect_24"/>
  <rect x="693.8758680555555" y="38.27777777777778" width="36.77777777777778" height="36.77777777777778" fill="#cccccc" id="rect_23" tag_name="svg/rect_23"/>
  <rect x="656.0980902777778" y="38.27777777777778" width="36.77777777777778" height="36.77777777777778" fill="#cccccc" id="rect_22" tag_name="svg/rect_22"/>
  <rect x="618.3203125" y="38.27777777777778" width="36.77777777777778" height="36.77777777777778" fill="#cccccc" id="rect_21" tag_name="svg/rect_21"/>
  <rect x="580.5425347222222" y="38.27777777777778" width="36.77777777777778" height="36.77777777777778" fill="#cccccc" id="rect_20" tag_name="svg/rect_20"/>
  <rect x="542.7647569444445" y="38.27777777777778" width="36.77777777777778" height="36.77777777777778" fill="#cccccc" id="rect_19" tag_name="svg/rect_19"/>
  <rect x="504.98697916666663" y="38.27777777777778" width="36.77777777777778" height="36.77777777777778" fill="#cccccc" id="rect_18" tag_name="svg/rect_18"/>
  <rect x="467.2092013888889" y="38.27777777777778" width="36.77777777777778" height="36.77777777777778" fill="#cccccc" id="rect_17" tag_name="svg/rect_17"/>
  <rect x="429.4314236111111" y="38.27777777777778" width="36.77777777777778" height="36.77777777777778" fill="#cccccc" id="rect_16" tag_name="svg/rect_16"/>
  <rect x="391.6536458333333" y="38.27777777777778" width="36.77777777777778" height="36.77777777777778" fill="#cccccc" id="rect_15" tag_name="svg/rect_15"/>
  <rect x="353.87586805555554" y="38.27777777777778" width="36.77777777777778" height="36.77777777777778" fill="#cccccc" id="rect_14" tag_name="svg/rect_14"/>
  <rect x="844.9869791666667" y="0.5" width="36.77777777777778" height="36.77777777777778" fill="#cccccc" id="rect_13" tag_name="svg/rect_13"/>
  <rect x="807.2092013888889" y="0.5" width="36.77777777777778" height="36.77777777777778" fill="#cccccc" id="rect_12" tag_name="svg/rect_12"/>
  <rect x="769.4314236111111" y="0.5" width="36.77777777777778" height="36.77777777777778" fill="#cccccc" id="rect_11" tag_name="svg/rect_11"/>
  <rect x="731.6536458333333" y="0.5" width="36.77777777777778" height="36.77777777777778" fill="#cccccc" id="rect_10" tag_name="svg/rect_10"/>
  <rect x="693.8758680555555" y="0.5" width="36.77777777777778" height="36.77777777777778" fill="#cccccc" id="rect_9" tag_name="svg/rect_9"/>
  <rect x="656.0980902777778" y="0.5" width="36.77777777777778" height="36.77777777777778" fill="#cccccc" id="rect_8" tag_name="svg/rect_8"/>
  <rect x="618.3203125" y="0.5" width="36.77777777777778" height="36.77777777777778" fill="#cccccc" id="rect_7" tag_name="svg/rect_7"/>
  <rect x="580.5425347222222" y="0.5" width="36.77777777777778" height="36.77777777777778" fill="#cccccc" id="rect_6" tag_name="svg/rect_6"/>
  <rect x="542.7647569444445" y="0.5" width="36.77777777777778" height="36.77777777777778" fill="#cccccc" id="rect_5" tag_name="svg/rect_5"/>
  <rect x="504.98697916666663" y="0.5" width="36.77777777777778" height="36.77777777777778" fill="#cccccc" id="rect_4" tag_name="svg/rect_4"/>
  <rect x="467.2092013888889" y="0.5" width="36.77777777777778" height="36.77777777777778" fill="#cccccc" id="rect_3" tag_name="svg/rect_3"/>
  <rect x="429.4314236111111" y="0.5" width="36.77777777777778" height="36.77777777777778" fill="#cccccc" id="rect_2" tag_name="svg/rect_2"/>
  <rect x="391.6536458333333" y="0.5" width="36.77777777777778" height="36.77777777777778" fill="#cccccc" id="rect_1" tag_name="svg/rect_1"/>
  <rect x="353.87586805555554" y="0.5" width="36.77777777777778" height="36.77777777777778" fill="#cccccc" id="rect" tag_name="svg/rect"/>
</svg>