<?xml version='1.0' encoding='UTF-8'?>
<svg xmlns="http://www.w3.org/2000/svg" width="900" height="340" viewBox="0,0,800,400" id="svg">
  <path d="M 3.5 48.5 L 21.5 48.5 A 4 4 0 0 1 25.5 52.5 L 25.5 358.5 A 0 0 0 0 1 25.5 358.5 L -0.5 358.5 A 0 0 0 0 1 -0.5 358.5 L -0.5 52.5 A 4 4 0 0 1 3.5 48.5 Z" aria-label="Norway, y: 51.9, z: 448,716." fill="rgb(44,175,254)" stroke="#ffffff" stroke-width="1"/>
  <path d="M 29.5 71.5 L 42.5 71.5 A 4 4 0 0 1 46.5 75.5 L 46.5 358.5 A 0 0 0 0 1 46.5 358.5 L 25.5 358.5 A 0 0 0 0 1 25.5 358.5 L 25.5 75.5 A 4 4 0 0 1 29.5 71.5 Z" aria-label="Denmark, y: 48.1, z: 376,430." fill="#544fc5" stroke="#ffffff" stroke-width="1"/>
  <path d="M 50.5 76.5 L 74.5 76.5 A 4 4 0 0 1 78.5 80.5 L 78.5 358.5 A 0 0 0 0 1 78.5 358.5 L 46.5 358.5 A 0 0 0 0 1 46.5 358.5 L 46.5 80.5 A 4 4 0 0 1 50.5 76.5 Z" aria-label="Belgium, y: 47.1, z: 584,699." fill="rgb(0,226,114)" stroke="#ffffff" stroke-width="1"/>
  <path d="M 82.5 99.5 L 132.5 99.5 A 4 4 0 0 1 136.5 103.5 L 136.5 358.5 A 0 0 0 0 1 136.5 358.5 L 78.5 358.5 A 0 0 0 0 1 78.5 358.5 L 78.5 103.5 A 4 4 0 0 1 82.5 99.5 Z" aria-label="Netherlands, y: 43.3, z: 1,034,086." fill="rgb(254,106,53)" stroke="#ffffff" stroke-width="1"/>
  <path d="M 140.5 106.5 L 290.5 106.5 A 4 4 0 0 1 294.5 110.5 L 294.5 358.5 A 0 0 0 0 1 294.5 358.5 L 136.5 358.5 A 0 0 0 0 1 136.5 358.5 L 136.5 110.5 A 4 4 0 0 1 140.5 106.5 Z" aria-label="France, y: 42.2, z: 2,822,455." fill="#6b8abc" stroke="#ffffff" stroke-width="1"/>
  <path d="M 298.5 111.5 L 521.5 111.5 A 4 4 0 0 1 525.5 115.5 L 525.5 358.5 A 0 0 0 0 1 525.5 358.5 L 294.5 358.5 A 0 0 0 0 1 294.5 358.5 L 294.5 115.5 A 4 4 0 0 1 298.5 111.5 Z" aria-label="Germany, y: 41.3, z: 4,122,210." fill="#d568fb" stroke="#ffffff" stroke-width="1"/>
  <path d="M 529.5 113.5 L 547.5 113.5 A 4 4 0 0 1 551.5 117.5 L 551.5 358.5 A 0 0 0 0 1 551.5 358.5 L 525.5 358.5 A 0 0 0 0 1 525.5 358.5 L 525.5 117.5 A 4 4 0 0 1 529.5 113.5 Z" aria-label="Austria, y: 40.9, z: 478,190." fill="#2ee0ca" stroke="#ffffff" stroke-width="1"/>
  <path d="M 555.5 118.5 L 576.5 118.5 A 4 4 0 0 1 580.5 122.5 L 580.5 358.5 A 0 0 0 0 1 580.5 358.5 L 551.5 358.5 A 0 0 0 0 1 551.5 358.5 L 551.5 122.5 A 4 4 0 0 1 555.5 118.5 Z" aria-label="Ireland, y: 40.2, z: 504,620." fill="#fa4b42" stroke="#ffffff" stroke-width="1"/>
  <path d="M 584.5 125.5 L 606.5 125.5 A 4 4 0 0 1 610.5 129.5 L 610.5 358.5 A 0 0 0 0 1 610.5 358.5 L 580.5 358.5 A 0 0 0 0 1 580.5 358.5 L 580.5 129.5 A 4 4 0 0 1 584.5 125.5 Z" aria-label="Sweden, y: 38.9, z: 540,651." fill="#feb56a" stroke="#ffffff" stroke-width="1"/>
  <path d="M 614.5 136.5 L 621.5 136.5 A 4 4 0 0 1 625.5 140.5 L 625.5 358.5 A 0 0 0 0 1 625.5 358.5 L 610.5 358.5 A 0 0 0 0 1 610.5 358.5 L 610.5 140.5 A 4 4 0 0 1 614.5 136.5 Z" aria-label="Finland, y: 37.1, z: 274,880." fill="#91e8e1" stroke="#ffffff" stroke-width="1"/>
  <path d="M 629.5 180.5 L 738.5 180.5 A 4 4 0 0 1 742.5 184.5 L 742.5 358.5 A 0 0 0 0 1 742.5 358.5 L 625.5 358.5 A 0 0 0 0 1 625.5 358.5 L 625.5 184.5 A 4 4 0 0 1 629.5 180.5 Z" aria-label="Italy, y: 29.8, z: 2,085,375." fill="#2caffe" stroke="#ffffff" stroke-width="1"/>
  <path d="M 746.5 211.5 L 820.5 211.5 A 4 4 0 0 1 824.5 215.5 L 824.5 358.5 A 0 0 0 0 1 824.5 358.5 L 742.5 358.5 A 0 0 0 0 1 742.5 358.5 L 742.5 215.5 A 4 4 0 0 1 746.5 211.5 Z" aria-label="Spain, y: 24.6, z: 1,461,889." fill="#544fc5" stroke="#ffffff" stroke-width="1"/>
</svg>
