<?xml version='1.0' encoding='UTF-8'?>
<svg xmlns="http://www.w3.org/2000/svg" width="900" height="340" viewBox="-420,-170,880,340" style="max-width: 100%; height: auto; font: 10px sans-serif;">
  <style>.st0 {max-width: 100%; height: auto; font: 10px sans-serif;}
.st1 {stroke:#000; stroke-width:1.5;}
.st2 {fill:#1f77b4; stroke:#000; stroke-width:1.5; opacity:0.7;}
.st3 {stroke:#000; stroke-width:2;}
.st4 {fill:#1f77b4;}
.st5 {fill:#ff7f0e; stroke:#000; stroke-width:1.5; opacity:0.7;}
.st6 {fill:#ff7f0e;}
.st7 {fill:#2ca02c; stroke:#000; stroke-width:1.5; opacity:0.7;}
.st8 {fill:#2ca02c;}
.st9 {fill:#d62728; stroke:#000; stroke-width:1.5; opacity:0.7;}
.st10 {fill:#d62728;}
.st11 {fill:#9467bd; stroke:#000; stroke-width:1.5; opacity:0.7;}
.st12 {fill:#9467bd;}
.st13 {fill:#8c564b; stroke:#000; stroke-width:1.5; opacity:0.7;}
.st14 {fill:#8c564b;}
.st15 {fill:#e377c2; stroke:#000; stroke-width:1.5; opacity:0.7;}
.st16 {fill:#e377c2;}
.st17 {fill:#7f7f7f; stroke:#000; stroke-width:1.5; opacity:0.7;}
.st18 {fill:#7f7f7f;}
.st19 {fill:#bcbd22; stroke:#000; stroke-width:1.5; opacity:0.7;}
.st20 {fill:#bcbd22;}
.st21 {fill:#17becf; stroke:#000; stroke-width:1.5; opacity:0.7;}
.st22 {fill:#17becf;}
.st23 {fill:#000;}
.st24 {fill:#1f77b4; opacity:0.7;}
.st25 {fill:#ff7f0e; opacity:0.7;}
.st26 {fill:#2ca02c; opacity:0.7;}
.st27 {fill:#d62728; opacity:0.7;}
.st28 {fill:#9467bd; opacity:0.7;}</style>
  <line x1="-380" y1="-40" x2="-380" y2="70" class="st1"/>
  <rect x="-400" y="10" width="40" height="30" class="st2"/>
  <line x1="-400" y1="20" x2="-360" y2="20" class="st3"/>
  <line x1="-400" y1="-40" x2="-360" y2="-40" class="st1"/>
  <line x1="-400" y1="70" x2="-360" y2="70" class="st1"/>
  <circle cx="-380" cy="80" r="3" class="st4"/>
  <line x1="-330" y1="-30" x2="-330" y2="80" class="st1"/>
  <rect x="-350" y="5" width="40" height="50" class="st5"/>
  <line x1="-350" y1="25" x2="-310" y2="25" class="st3"/>
  <line x1="-350" y1="-30" x2="-310" y2="-30" class="st1"/>
  <line x1="-350" y1="80" x2="-310" y2="80" class="st1"/>
  <circle cx="-330" cy="90" r="3" class="st6"/>
  <line x1="-260" y1="-50" x2="-260" y2="60" class="st1"/>
  <rect x="-280" y="-5" width="40" height="60" class="st7"/>
  <line x1="-280" y1="15" x2="-240" y2="15" class="st3"/>
  <line x1="-280" y1="-50" x2="-240" y2="-50" class="st1"/>
  <line x1="-280" y1="60" x2="-240" y2="60" class="st1"/>
  <circle cx="-260" cy="70" r="3" class="st8"/>
  <circle cx="-260" cy="80" r="3" class="st8"/>
  <line x1="-210" y1="-60" x2="-210" y2="50" class="st1"/>
  <rect x="-230" y="0" width="40" height="40" class="st9"/>
  <line x1="-230" y1="20" x2="-190" y2="20" class="st3"/>
  <line x1="-230" y1="-60" x2="-190" y2="-60" class="st1"/>
  <line x1="-230" y1="50" x2="-190" y2="50" class="st1"/>
  <circle cx="-210" cy="-80" r="3" class="st10"/>
  <line x1="-140" y1="-20" x2="-140" y2="80" class="st1"/>
  <rect x="-160" y="20" width="40" height="50" class="st11"/>
  <line x1="-160" y1="40" x2="-120" y2="40" class="st3"/>
  <line x1="-160" y1="-20" x2="-120" y2="-20" class="st1"/>
  <line x1="-160" y1="80" x2="-120" y2="80" class="st1"/>
  <circle cx="-140" cy="90" r="3" class="st12"/>
  <line x1="-90" y1="-40" x2="-90" y2="70" class="st1"/>
  <rect x="-110" y="10" width="40" height="50" class="st13"/>
  <line x1="-110" y1="30" x2="-70" y2="30" class="st3"/>
  <line x1="-110" y1="-40" x2="-70" y2="-40" class="st1"/>
  <line x1="-110" y1="70" x2="-70" y2="70" class="st1"/>
  <circle cx="-90" cy="80" r="3" class="st14"/>
  <line x1="-20" y1="-30" x2="-20" y2="60" class="st1"/>
  <rect x="-40" y="0" width="40" height="50" class="st15"/>
  <line x1="-40" y1="35" x2="0" y2="35" class="st3"/>
  <line x1="-40" y1="-30" x2="0" y2="-30" class="st1"/>
  <line x1="-40" y1="60" x2="0" y2="60" class="st1"/>
  <circle cx="-20" cy="70" r="3" class="st16"/>
  <line x1="30" y1="-50" x2="30" y2="50" class="st1"/>
  <rect x="10" y="5" width="40" height="40" class="st17"/>
  <line x1="10" y1="25" x2="50" y2="25" class="st3"/>
  <line x1="10" y1="-50" x2="50" y2="-50" class="st1"/>
  <line x1="10" y1="50" x2="50" y2="50" class="st1"/>
  <circle cx="30" cy="60" r="3" class="st18"/>
  <line x1="100" y1="-30" x2="100" y2="70" class="st1"/>
  <rect x="80" y="0" width="40" height="70" class="st19"/>
  <line x1="80" y1="50" x2="120" y2="50" class="st3"/>
  <line x1="80" y1="-30" x2="120" y2="-30" class="st1"/>
  <line x1="80" y1="70" x2="120" y2="70" class="st1"/>
  <circle cx="100" cy="80" r="3" class="st20"/>
  <line x1="150" y1="-40" x2="150" y2="60" class="st1"/>
  <rect x="130" y="0" width="40" height="40" class="st21"/>
  <line x1="130" y1="15" x2="170" y2="15" class="st3"/>
  <line x1="130" y1="-40" x2="170" y2="-40" class="st1"/>
  <line x1="130" y1="60" x2="170" y2="60" class="st1"/>
  <circle cx="150" cy="70" r="3" class="st22"/>
</svg>
