<?xml version="1.0" encoding="utf-8"?>
<!-- Generator: Adobe Illustrator 21.0.0, SVG Export Plug-In . SVG Version: 6.00 Build 0)  -->
<svg xmlns="http://www.w3.org/2000/svg" width="900" height="340" viewBox="-70,-30,880,340"
	style="max-width: 100%; height: auto; font: 10px sans-serif;">

	<style type="text/css">
		.st0 {
			opacity: 0.4;
			fill: none;
			stroke: #666666;
			stroke-width: 0.5;
		}

		.st1 {
			fill: #808080;
		}

		.st2 {
			fill: none;
			stroke: #FF0000;
			stroke-width: 3;
			stroke-linecap: round;
		}

		.st3 {
			fill: none;
			stroke: #FFB3B3;
			stroke-width: 3;
			stroke-linecap: round;
		}

		.st4 {
			fill: none;
			stroke: #666666;
		}
	</style>
	<line class="st0" x1="55.7" y1="28.6" x2="682.1" y2="28.6" />
	<line class="st0" x1="55.7" y1="71.3" x2="682.1" y2="71.3" />
	<line class="st0" x1="55.7" y1="113.9" x2="682.1" y2="113.9" />
	<line class="st0" x1="55.7" y1="156.6" x2="682.1" y2="156.6" />
	<line class="st0" x1="55.7" y1="199.6" x2="682.1" y2="199.6" />
	<line class="st0" x1="55.7" y1="242" x2="682.1" y2="242" />
	<g>
		<g>
			<polyline class="st2" points="92.8,246.2 75.4,250 58.5,258.5 		" />
			<line class="st2" x1="110.6" y1="254.8" x2="92.8" y2="246.2" />
			<line class="st2" x1="128.5" y1="233.4" x2="110.6" y2="254.8" />
			<line class="st2" x1="146.3" y1="237.7" x2="128.5" y2="233.4" />
			<line class="st2" x1="164.2" y1="254.8" x2="146.3" y2="237.7" />
			<line class="st2" x1="182" y1="229.1" x2="164.2" y2="254.8" />
			<line class="st2" x1="199.9" y1="241.9" x2="182" y2="229.1" />
			<line class="st2" x1="217.7" y1="207.7" x2="199.9" y2="241.9" />
			<line class="st2" x1="235.6" y1="212" x2="217.7" y2="207.7" />
			<line class="st2" x1="253.4" y1="203.4" x2="235.6" y2="212" />
			<line class="st2" x1="271.2" y1="207.7" x2="253.4" y2="203.4" />
			<line class="st2" x1="289.1" y1="182.1" x2="271.2" y2="207.7" />
			<line class="st2" x1="306.9" y1="224.8" x2="289.1" y2="182.1" />
			<line class="st2" x1="324.8" y1="207.7" x2="306.9" y2="224.8" />
			<line class="st2" x1="342.6" y1="212" x2="324.8" y2="207.7" />
			<line class="st2" x1="360.5" y1="203.4" x2="342.6" y2="212" />
			<line class="st2" x1="378.3" y1="156.4" x2="360.5" y2="203.4" />
			<line class="st2" x1="396.1" y1="173.5" x2="378.3" y2="156.4" />
			<line class="st2" x1="414" y1="139.3" x2="396.1" y2="173.5" />
			<line class="st2" x1="431.8" y1="207.7" x2="414" y2="139.3" />
			<line class="st2" x1="449.7" y1="113.6" x2="431.8" y2="207.7" />
			<line class="st2" x1="467.5" y1="156.4" x2="449.7" y2="113.6" />
			<line class="st2" x1="485.4" y1="70.9" x2="467.5" y2="156.4" />
			<line class="st2" x1="503.2" y1="96.5" x2="485.4" y2="70.9" />
			<line class="st2" x1="521" y1="36.6" x2="503.2" y2="96.5" />
			<line class="st2" x1="538.9" y1="45.2" x2="521" y2="36.6" />
			<line class="st2" x1="556.7" y1="36.6" x2="538.9" y2="45.2" />
			<line class="st2" x1="574.6" y1="62.3" x2="556.7" y2="36.6" />
			<line class="st2" x1="592.4" y1="70.9" x2="574.6" y2="62.3" />
			<line class="st2" x1="610.3" y1="156.4" x2="592.4" y2="70.9" />
			<line class="st2" x1="628.1" y1="130.7" x2="610.3" y2="156.4" />
			<line class="st2" x1="645.9" y1="156.4" x2="628.1" y2="130.7" />
			<line class="st2" x1="663.8" y1="96.5" x2="645.9" y2="156.4" />
			<line class="st2" x1="681.6" y1="113.6" x2="663.8" y2="96.5" />
		</g>
	</g>
	<g>
		<g>
			<polyline class="st3" points="93.2,279.3 75.1,281.5 58.9,284 		" />
			<line class="st3" x1="110.7" y1="279" x2="92.8" y2="279.3" />
			<line class="st3" x1="128.5" y1="279.6" x2="110.7" y2="279" />
			<line class="st3" x1="146.3" y1="283" x2="128.5" y2="279.6" />
			<line class="st3" x1="164.2" y1="282.1" x2="146.3" y2="283" />
			<line class="st3" x1="182" y1="283" x2="164.2" y2="282.1" />
			<line class="st3" x1="199.9" y1="277" x2="182" y2="283" />
			<line class="st3" x1="217.7" y1="278.7" x2="199.9" y2="277" />
			<line class="st3" x1="235.6" y1="276.1" x2="217.7" y2="278.7" />
			<line class="st3" x1="253.4" y1="276.1" x2="235.6" y2="276.1" />
			<line class="st3" x1="271.2" y1="280.4" x2="253.4" y2="276.1" />
			<line class="st3" x1="289.1" y1="271.9" x2="271.2" y2="280.4" />
			<line class="st3" x1="306.9" y1="273.6" x2="289.1" y2="271.9" />
			<line class="st3" x1="324.8" y1="267.6" x2="306.9" y2="273.6" />
			<line class="st3" x1="342.6" y1="275.3" x2="324.8" y2="267.6" />
			<line class="st3" x1="360.5" y1="273.6" x2="342.6" y2="275.3" />
			<line class="st3" x1="378.3" y1="278.7" x2="360.5" y2="273.6" />
			<line class="st3" x1="396.1" y1="265.9" x2="378.3" y2="278.7" />
			<line class="st3" x1="414" y1="268.4" x2="396.1" y2="265.9" />
			<line class="st3" x1="431.8" y1="259" x2="414" y2="268.4" />
			<line class="st3" x1="449.7" y1="263.3" x2="431.8" y2="259" />
			<line class="st3" x1="467.5" y1="241.9" x2="449.7" y2="263.3" />
			<line class="st3" x1="485.4" y1="250.5" x2="467.5" y2="241.9" />
			<line class="st3" x1="503.2" y1="216.3" x2="485.4" y2="250.5" />
			<line class="st3" x1="521" y1="233.4" x2="503.2" y2="216.3" />
			<line class="st3" x1="538.9" y1="224.8" x2="521" y2="233.4" />
			<line class="st3" x1="556.7" y1="250.5" x2="538.9" y2="224.8" />
			<line class="st3" x1="574.6" y1="246.2" x2="556.7" y2="250.5" />
			<line class="st3" x1="592.4" y1="248.8" x2="574.6" y2="246.2" />
			<line class="st3" x1="610.3" y1="244.5" x2="592.4" y2="248.8" />
			<line class="st3" x1="628.1" y1="246.2" x2="610.3" y2="244.5" />
			<line class="st3" x1="645.9" y1="207.7" x2="628.1" y2="246.2" />
			<line class="st3" x1="663.8" y1="212" x2="645.9" y2="207.7" />
			<line class="st3" x1="681.6" y1="182.1" x2="663.8" y2="212" />
		</g>
	</g>
	<line class="st4" x1="57.6" y1="284.7" x2="682.6" y2="284.7" />
	<g>
		<g>
			<line class="st4" x1="93.2" y1="288.6" x2="93.2" y2="285" />
			<line class="st4" x1="128.9" y1="288.6" x2="128.9" y2="285" />
			<line class="st4" x1="164.6" y1="288.6" x2="164.6" y2="285" />
			<line class="st4" x1="200.3" y1="288.6" x2="200.3" y2="285" />
			<line class="st4" x1="236" y1="288.6" x2="236" y2="285" />
			<line class="st4" x1="271.7" y1="288.6" x2="271.7" y2="285" />
			<line class="st4" x1="307.4" y1="288.6" x2="307.4" y2="285" />
			<line class="st4" x1="343.1" y1="288.6" x2="343.1" y2="285" />
			<line class="st4" x1="378.7" y1="288.6" x2="378.7" y2="285" />
			<line class="st4" x1="414.4" y1="288.6" x2="414.4" y2="285" />
			<line class="st4" x1="450.1" y1="288.6" x2="450.1" y2="285" />
			<line class="st4" x1="485.8" y1="288.6" x2="485.8" y2="285" />
			<line class="st4" x1="521.5" y1="288.6" x2="521.5" y2="285" />
			<line class="st4" x1="557.2" y1="288.6" x2="557.2" y2="285" />
			<line class="st4" x1="592.9" y1="288.6" x2="592.9" y2="285" />
			<line class="st4" x1="628.5" y1="288.6" x2="628.5" y2="285" />
			<line class="st4" x1="664.2" y1="288.6" x2="664.2" y2="285" />
		</g>
	</g>
	<line class="st4" x1="57.6" y1="284.7" x2="57.6" y2="28.1" />
	<g>
		<line class="st4" x1="52.2" y1="242.3" x2="57.9" y2="242.3" />
		<line class="st4" x1="52.2" y1="199.6" x2="57.9" y2="199.6" />
		<line class="st4" x1="52.2" y1="156.8" x2="57.9" y2="156.8" />
		<line class="st4" x1="52.2" y1="114" x2="57.9" y2="114" />
		<line class="st4" x1="52.2" y1="71.3" x2="57.9" y2="71.3" />
		<line class="st4" x1="52.2" y1="28.5" x2="57.9" y2="28.5" />
	</g>
</svg>