<?xml version="1.0" encoding="utf-8"?>
<svg xmlns="http://www.w3.org/2000/svg" width="900" height="340" viewBox="-70,-30,880,340"
	style="max-width: 100%; height: auto; font: 10px sans-serif;">

	<style type="text/css">
		.st0 {
			fill: #808080;
		}

		.st1 {
			fill: #94ABF5;
			stroke: #FFFFFF;
			stroke-width: 0.5;
		}

		.st2 {
			fill: #7F9BF5;
			stroke: #FFFFFF;
			stroke-width: 0.5;
		}

		.st3 {
			fill: #A0ACE1;
			stroke: #FFFFFF;
			stroke-width: 0.5;
		}

		.st4 {
			fill: #6E8EF5;
			stroke: #FFFFFF;
			stroke-width: 0.5;
		}

		.st5 {
			fill: #6383EB;
			stroke: #FFFFFF;
			stroke-width: 0.5;
		}

		.st6 {
			fill: #6C8AEB;
			stroke: #FFFFFF;
			stroke-width: 0.5;
		}

		.st7 {
			fill: #ACADCE;
			stroke: #FFFFFF;
			stroke-width: 0.5;
		}

		.st8 {
			fill: #849FF5;
			stroke: #FFFFFF;
			stroke-width: 0.5;
		}

		.st9 {
			fill: #B8AEBA;
			stroke: #FFFFFF;
			stroke-width: 0.5;
		}

		.st10 {
			fill: #C4AFA7;
			stroke: #FFFFFF;
			stroke-width: 0.5;
		}

		.st11 {
			fill: #DBB080;
			stroke: #FFFFFF;
			stroke-width: 0.5;
		}

		.st12 {
			fill: #E7B16C;
			stroke: #FFFFFF;
			stroke-width: 0.5;
		}

		.st13 {
			fill: #CFAF93;
			stroke: #FFFFFF;
			stroke-width: 0.5;
		}

		.st14 {
			fill: #F3B259;
			stroke: #FFFFFF;
			stroke-width: 0.5;
		}

		.st15 {
			fill: #FFB345;
			stroke: #FFFFFF;
			stroke-width: 0.5;
		}
	</style>

	<g id="Layer_2">
		<rect x="55" y="12.1" class="st1" width="54.2" height="23" />
		<rect x="55" y="35.1" class="st2" width="54.2" height="23" />
		<rect x="55" y="58.1" class="st2" width="54.2" height="23" />
		<rect x="55" y="81.1" class="st3" width="54.2" height="23" />
		<rect x="55" y="104.1" class="st1" width="54.2" height="23" />
		<rect x="55" y="127.1" class="st4" width="54.2" height="23" />
		<rect x="55" y="150.1" class="st5" width="54.2" height="23" />
		<rect x="55" y="173.1" class="st2" width="54.2" height="23" />
		<rect x="55" y="196.1" class="st1" width="54.2" height="23" />
		<rect x="55" y="219.1" class="st6" width="54.2" height="23" />
		<rect x="55" y="242.1" class="st1" width="54.2" height="23" />
		<rect x="55" y="265.1" class="st1" width="54.2" height="23" />
		<rect x="109.2" y="12.1" class="st3" width="54.2" height="23" />
		<rect x="109.2" y="35.1" class="st2" width="54.2" height="23" />
		<rect x="109.2" y="58.1" class="st1" width="54.2" height="23" />
		<rect x="109.2" y="81.1" class="st7" width="54.2" height="23" />
		<rect x="109.2" y="104.1" class="st3" width="54.2" height="23" />
		<rect x="109.2" y="127.1" class="st2" width="54.2" height="23" />
		<rect x="109.2" y="150.1" class="st4" width="54.2" height="23" />
		<rect x="109.2" y="173.1" class="st1" width="54.2" height="23" />
		<rect x="109.2" y="196.1" class="st1" width="54.2" height="23" />
		<rect x="109.2" y="219.1" class="st2" width="54.2" height="23" />
		<rect x="109.2" y="242.1" class="st3" width="54.2" height="23" />
		<rect x="109.2" y="265.1" class="st3" width="54.2" height="23" />
		<rect x="163.3" y="12.1" class="st3" width="54.2" height="23" />
		<rect x="163.3" y="35.1" class="st1" width="54.2" height="23" />
		<rect x="163.3" y="58.1" class="st3" width="54.2" height="23" />
		<rect x="163.3" y="81.1" class="st7" width="54.2" height="23" />
		<rect x="163.3" y="104.1" class="st7" width="54.2" height="23" />
		<rect x="163.3" y="127.1" class="st8" width="54.2" height="23" />
		<rect x="163.3" y="150.1" class="st1" width="54.2" height="23" />
		<rect x="163.3" y="173.1" class="st7" width="54.2" height="23" />
		<rect x="163.3" y="196.1" class="st3" width="54.2" height="23" />
		<rect x="163.3" y="219.1" class="st1" width="54.2" height="23" />
		<rect x="163.3" y="242.1" class="st9" width="54.2" height="23" />
		<rect x="163.3" y="265.1" class="st3" width="54.2" height="23" />
		<rect x="217.5" y="12.1" class="st9" width="54.2" height="23" />
		<rect x="217.5" y="35.1" class="st3" width="54.2" height="23" />
		<rect x="217.5" y="58.1" class="st9" width="54.2" height="23" />
		<rect x="217.5" y="81.1" class="st10" width="54.2" height="23" />
		<rect x="217.5" y="104.1" class="st7" width="54.2" height="23" />
		<rect x="217.5" y="127.1" class="st1" width="54.2" height="23" />
		<rect x="217.5" y="150.1" class="st3" width="54.2" height="23" />
		<rect x="217.5" y="173.1" class="st10" width="54.2" height="23" />
		<rect x="217.5" y="196.1" class="st7" width="54.2" height="23" />
		<rect x="217.5" y="219.1" class="st3" width="54.2" height="23" />
		<rect x="217.5" y="242.1" class="st11" width="54.2" height="23" />
		<rect x="217.5" y="265.1" class="st9" width="54.2" height="23" />
		<rect x="271.7" y="12.1" class="st9" width="54.2" height="23" />
		<rect x="271.7" y="35.1" class="st7" width="54.2" height="23" />
		<rect x="271.7" y="58.1" class="st10" width="54.2" height="23" />
		<rect x="271.7" y="81.1" class="st10" width="54.2" height="23" />
		<rect x="271.7" y="104.1" class="st7" width="54.2" height="23" />
		<rect x="271.7" y="127.1" class="st3" width="54.2" height="23" />
		<rect x="271.7" y="150.1" class="st9" width="54.2" height="23" />
		<rect x="271.7" y="173.1" class="st10" width="54.2" height="23" />
		<rect x="271.7" y="196.1" class="st10" width="54.2" height="23" />
		<rect x="271.7" y="219.1" class="st3" width="54.2" height="23" />
		<rect x="271.7" y="242.1" class="st12" width="54.2" height="23" />
		<rect x="271.7" y="265.1" class="st9" width="54.2" height="23" />
		<rect x="325.8" y="12.1" class="st10" width="54.2" height="23" />
		<rect x="325.8" y="35.1" class="st9" width="54.2" height="23" />
		<rect x="325.8" y="58.1" class="st13" width="54.2" height="23" />
		<rect x="325.8" y="81.1" class="st12" width="54.2" height="23" />
		<rect x="325.8" y="104.1" class="st10" width="54.2" height="23" />
		<rect x="325.8" y="127.1" class="st9" width="54.2" height="23" />
		<rect x="325.8" y="150.1" class="st13" width="54.2" height="23" />
		<rect x="325.8" y="173.1" class="st12" width="54.2" height="23" />
		<rect x="325.8" y="196.1" class="st10" width="54.2" height="23" />
		<rect x="325.8" y="219.1" class="st7" width="54.2" height="23" />
		<rect x="325.8" y="242.1" class="st12" width="54.2" height="23" />
		<rect x="325.8" y="265.1" class="st10" width="54.2" height="23" />
		<rect x="380" y="12.1" class="st12" width="54.2" height="23" />
		<rect x="380" y="35.1" class="st11" width="54.2" height="23" />
		<rect x="380" y="58.1" class="st14" width="54.2" height="23" />
		<rect x="380" y="81.1" class="st15" width="54.2" height="23" />
		<rect x="380" y="104.1" class="st13" width="54.2" height="23" />
		<rect x="380" y="127.1" class="st9" width="54.2" height="23" />
		<rect x="380" y="150.1" class="st11" width="54.2" height="23" />
		<rect x="380" y="173.1" class="st14" width="54.2" height="23" />
		<rect x="380" y="196.1" class="st13" width="54.2" height="23" />
		<rect x="380" y="219.1" class="st9" width="54.2" height="23" />
		<rect x="380" y="242.1" class="st15" width="54.2" height="23" />
		<rect x="380" y="265.1" class="st11" width="54.2" height="23" />
		<rect x="434.2" y="12.1" class="st10" width="54.2" height="23" />
		<rect x="434.2" y="35.1" class="st13" width="54.2" height="23" />
		<rect x="434.2" y="58.1" class="st11" width="54.2" height="23" />
		<rect x="434.2" y="81.1" class="st14" width="54.2" height="23" />
		<rect x="434.2" y="104.1" class="st13" width="54.2" height="23" />
		<rect x="434.2" y="127.1" class="st9" width="54.2" height="23" />
		<rect x="434.2" y="150.1" class="st10" width="54.2" height="23" />
		<rect x="434.2" y="173.1" class="st11" width="54.2" height="23" />
		<rect x="434.2" y="196.1" class="st10" width="54.2" height="23" />
		<rect x="434.2" y="219.1" class="st7" width="54.2" height="23" />
		<rect x="434.2" y="242.1" class="st14" width="54.2" height="23" />
		<rect x="434.2" y="265.1" class="st13" width="54.2" height="23" />
		<rect x="488.3" y="12.1" class="st9" width="54.2" height="23" />
		<rect x="488.3" y="35.1" class="st9" width="54.2" height="23" />
		<rect x="488.3" y="58.1" class="st10" width="54.2" height="23" />
		<rect x="488.3" y="81.1" class="st11" width="54.2" height="23" />
		<rect x="488.3" y="104.1" class="st9" width="54.2" height="23" />
		<rect x="488.3" y="127.1" class="st7" width="54.2" height="23" />
		<rect x="488.3" y="150.1" class="st9" width="54.2" height="23" />
		<rect x="488.3" y="173.1" class="st10" width="54.2" height="23" />
		<rect x="488.3" y="196.1" class="st9" width="54.2" height="23" />
		<rect x="488.3" y="219.1" class="st7" width="54.2" height="23" />
		<rect x="488.3" y="242.1" class="st11" width="54.2" height="23" />
		<rect x="488.3" y="265.1" class="st9" width="54.2" height="23" />
		<rect x="542.5" y="12.1" class="st7" width="54.2" height="23" />
		<rect x="542.5" y="35.1" class="st3" width="54.2" height="23" />
		<rect x="542.5" y="58.1" class="st7" width="54.2" height="23" />
		<rect x="542.5" y="81.1" class="st10" width="54.2" height="23" />
		<rect x="542.5" y="104.1" class="st7" width="54.2" height="23" />
		<rect x="542.5" y="127.1" class="st3" width="54.2" height="23" />
		<rect x="542.5" y="150.1" class="st1" width="54.2" height="23" />
		<rect x="542.5" y="173.1" class="st7" width="54.2" height="23" />
		<rect x="542.5" y="196.1" class="st3" width="54.2" height="23" />
		<rect x="542.5" y="219.1" class="st1" width="54.2" height="23" />
		<rect x="542.5" y="242.1" class="st10" width="54.2" height="23" />
		<rect x="542.5" y="265.1" class="st9" width="54.2" height="23" />
		<rect x="596.7" y="12.1" class="st3" width="54.2" height="23" />
		<rect x="596.7" y="35.1" class="st1" width="54.2" height="23" />
		<rect x="596.7" y="58.1" class="st7" width="54.2" height="23" />
		<rect x="596.7" y="81.1" class="st7" width="54.2" height="23" />
		<rect x="596.7" y="104.1" class="st3" width="54.2" height="23" />
		<rect x="596.7" y="127.1" class="st1" width="54.2" height="23" />
		<rect x="596.7" y="150.1" class="st8" width="54.2" height="23" />
		<rect x="596.7" y="173.1" class="st3" width="54.2" height="23" />
		<rect x="596.7" y="196.1" class="st1" width="54.2" height="23" />
		<rect x="596.7" y="219.1" class="st1" width="54.2" height="23" />
		<rect x="596.7" y="242.1" class="st7" width="54.2" height="23" />
		<rect x="596.7" y="265.1" class="st3" width="54.2" height="23" />
		<rect x="650.8" y="12.1" class="st3" width="54.2" height="23" />
		<rect x="650.8" y="35.1" class="st2" width="54.2" height="23" />
		<rect x="650.8" y="58.1" class="st1" width="54.2" height="23" />
		<rect x="650.8" y="81.1" class="st7" width="54.2" height="23" />
		<rect x="650.8" y="104.1" class="st3" width="54.2" height="23" />
		<rect x="650.8" y="127.1" class="st8" width="54.2" height="23" />
		<rect x="650.8" y="150.1" class="st2" width="54.2" height="23" />
		<rect x="650.8" y="173.1" class="st1" width="54.2" height="23" />
		<rect x="650.8" y="196.1" class="st1" width="54.2" height="23" />
		<rect x="650.8" y="219.1" class="st2" width="54.2" height="23" />
		<rect x="650.8" y="242.1" class="st1" width="54.2" height="23" />
		<rect x="650.8" y="265.1" class="st1" width="54.2" height="23" />
	</g>
</svg>