<?xml version="1.0" encoding="utf-8"?>
<svg xmlns="http://www.w3.org/2000/svg" width="900" height="340" viewBox="-70,-30,880,340"
	style="max-width: 100%; height: auto; font: 10px sans-serif;">

	<style type="text/css">
		.st0 {
			fill: #808080;
		}

		.st1 {
			fill: none;
			stroke: #666666;
		}

		.st2 {
			fill: #e25959;
		}
	</style>
	<g id="Layer_1">
		<line class="st1" x1="43.2" y1="285" x2="43.2" y2="29" />
		<g>
			<g>
				<line class="st1" x1="36.5" y1="221" x2="42.9" y2="221" />
				<line class="st1" x1="36.5" y1="157" x2="42.9" y2="157" />
				<line class="st1" x1="36.5" y1="93" x2="42.9" y2="93" />
				<line class="st1" x1="36.5" y1="29" x2="42.9" y2="29" />
			</g>
		</g>
		<g>
			<line class="st1" x1="42.7" y1="285" x2="701.5" y2="285" />
		</g>
		<line class="st1" x1="80" y1="285" x2="80" y2="292.5" />
		<line class="st1" x1="116.8" y1="285" x2="116.8" y2="292.5" />
		<line class="st1" x1="153.6" y1="285" x2="153.6" y2="292.5" />
		<line class="st1" x1="190.4" y1="285" x2="190.4" y2="292.5" />
		<line class="st1" x1="227.2" y1="285" x2="227.2" y2="292.5" />
		<line class="st1" x1="264" y1="285" x2="264" y2="292.5" />
		<line class="st1" x1="300.8" y1="285" x2="300.8" y2="292.5" />
		<line class="st1" x1="337.6" y1="285" x2="337.6" y2="292.5" />
		<line class="st1" x1="374.4" y1="285" x2="374.4" y2="292.5" />
		<line class="st1" x1="411.1" y1="285" x2="411.1" y2="292.5" />
		<line class="st1" x1="447.9" y1="285" x2="447.9" y2="292.5" />
		<line class="st1" x1="484.7" y1="285" x2="484.7" y2="292.5" />
		<line class="st1" x1="521.5" y1="285" x2="521.5" y2="292.5" />
		<line class="st1" x1="558.3" y1="285" x2="558.3" y2="292.5" />
		<line class="st1" x1="595.1" y1="285" x2="595.1" y2="292.5" />
		<line class="st1" x1="631.9" y1="285" x2="631.9" y2="292.5" />
		<line class="st1" x1="668.7" y1="285" x2="668.7" y2="292.5" />
	</g>
	<g id="Layer_2">
		<rect x="63.2" y="273.2" class="st2" width="34" height="11.2" />
		<rect x="99.7" y="264.8" class="st2" width="34" height="19.7" />
		<rect x="136.4" y="267.6" class="st2" width="34" height="16.9" />
		<rect x="173.2" y="247.5" class="st2" width="34" height="37" />
		<rect x="210.4" y="200.1" class="st2" width="34" height="84.4" />
		<rect x="246.7" y="171" class="st2" width="34" height="113.4" />
		<rect x="283.8" y="178.5" class="st2" width="34" height="105.9" />
		<rect x="320.5" y="65.1" class="st2" width="34" height="219.4" />
		<rect x="357.3" y="31" class="st2" width="34" height="253.5" />
		<rect x="394" y="78.2" class="st2" width="34" height="206.3" />
		<rect x="430.7" y="88.5" class="st2" width="34" height="195.9" />
		<rect x="467.7" y="149.5" class="st2" width="34" height="135" />
		<rect x="504.2" y="209.5" class="st2" width="34" height="75" />
		<rect x="541.2" y="252.6" class="st2" width="34" height="31.9" />
		<rect x="578" y="262.9" class="st2" width="34" height="21.6" />
		<rect x="614.7" y="261" class="st2" width="34" height="23.4" />
		<rect x="651.4" y="269.5" class="st2" width="34" height="15" />
	</g>
</svg>