<?xml version="1.0" encoding="utf-8"?>
<svg xmlns="http://www.w3.org/2000/svg" width="900" height="340" viewBox="-70,-30,880,340"
	style="max-width: 100%; height: auto; font: 10px sans-serif;">

	<style type="text/css">
		.st0 {
			opacity: 0.7;
			fill: #FF0000;
		}

		.st1 {
			fill: #B3B3B3;
		}

		.st2 {
			fill: none;
			stroke: #CCCCCC;
			stroke-width: 2;
			stroke-miterlimit: 10;
		}

		.st3 {
			fill: #333333;
		}

		.st4 {
			fill: none;
			stroke: #333333;
			stroke-width: 2;
			stroke-miterlimit: 10;
		}
	</style>
	<g id="Layer_3">
		<rect x="438.7" y="143.4" class="st0" width="42" height="126.1" />
		<rect x="484.9" y="97" class="st0" width="42" height="172.6" />
		<rect x="531.1" y="196.3" class="st0" width="42" height="73.2" />
		<rect x="577.3" y="160" class="st0" width="42" height="109.6" />
		<rect x="623.6" y="175.4" class="st0" width="42" height="94.1" />
	</g>
	<g id="Layer_2">
		<line class="st2" x1="58.9" y1="270.5" x2="337.8" y2="270.5" />
		<g>
			<line class="st2" x1="105.7" y1="270.5" x2="105.7" y2="264.7" />
			<line class="st2" x1="151.9" y1="270.5" x2="151.9" y2="264.7" />
			<line class="st2" x1="198.1" y1="270.5" x2="198.1" y2="264.7" />
			<line class="st2" x1="244.3" y1="270.5" x2="244.3" y2="264.7" />
			<line class="st2" x1="290.6" y1="270.5" x2="290.6" y2="264.7" />
			<line class="st2" x1="336.8" y1="270.5" x2="336.8" y2="264.7" />
		</g>

		<line class="st2" x1="59.4" y1="270.5" x2="59.4" y2="38.8" />
		<g>
			<line class="st2" x1="59.4" y1="224.2" x2="65.2" y2="224.2" />
			<line class="st2" x1="59.4" y1="178" x2="65.2" y2="178" />
			<line class="st2" x1="59.4" y1="131.8" x2="65.2" y2="131.8" />
			<line class="st2" x1="59.4" y1="85.6" x2="65.2" y2="85.6" />
			<line class="st2" x1="59.4" y1="39.3" x2="65.2" y2="39.3" />
		</g>

		<line class="st2" x1="412.9" y1="270.5" x2="688.8" y2="270.5" />
		<g>
			<line class="st2" x1="459.7" y1="270.5" x2="459.7" y2="264.7" />
			<line class="st2" x1="505.9" y1="270.5" x2="505.9" y2="264.7" />
			<line class="st2" x1="552.1" y1="270.5" x2="552.1" y2="264.7" />
			<line class="st2" x1="598.3" y1="270.5" x2="598.3" y2="264.7" />
			<line class="st2" x1="644.6" y1="270.5" x2="644.6" y2="264.7" />
		</g>


		<line class="st2" x1="413.4" y1="270.5" x2="413.4" y2="38.8" />
		<g>
			<line class="st2" x1="413.4" y1="224.2" x2="419.2" y2="224.2" />
			<line class="st2" x1="413.4" y1="178" x2="419.2" y2="178" />
			<line class="st2" x1="413.4" y1="131.8" x2="419.2" y2="131.8" />
			<line class="st2" x1="413.4" y1="85.6" x2="419.2" y2="85.6" />
			<line class="st2" x1="413.4" y1="39.3" x2="419.2" y2="39.3" />
		</g>
	</g>
	<g id="Layer_1">
		<circle class="st3" cx="105.3" cy="199.8" r="3.5" />
		<circle class="st3" cx="184.5" cy="108" r="3.5" />
		<circle class="st3" cx="282.3" cy="85" r="3.5" />
		<circle class="st3" cx="228" cy="205.5" r="3.5" />
		<circle class="st3" cx="119.5" cy="69.5" r="3.5" />
		<circle class="st3" cx="297" cy="180.7" r="3.5" />
		<g>
			<g>
				<line class="st4" x1="95" y1="69.5" x2="144" y2="69.5" />
				<g>
					<rect x="94" y="63" class="st3" width="2" height="13" />
				</g>
				<g>
					<rect x="143" y="63" class="st3" width="2" height="13" />
				</g>
			</g>
		</g>
		<g>
			<g>
				<line class="st4" x1="119.5" y1="50.4" x2="119.5" y2="88.6" />
				<g>
					<rect x="113" y="49.4" class="st3" width="13" height="2" />
				</g>
				<g>
					<rect x="113" y="87.6" class="st3" width="13" height="2" />
				</g>
			</g>
		</g>
		<g>
			<g>
				<line class="st4" x1="184.5" y1="66.5" x2="184.5" y2="149.5" />
				<g>
					<rect x="178" y="65.5" class="st3" width="13" height="2" />
				</g>
				<g>
					<rect x="178" y="148.5" class="st3" width="13" height="2" />
				</g>
			</g>
		</g>
		<g>
			<g>
				<line class="st4" x1="162.5" y1="108" x2="206.5" y2="108" />
				<g>
					<rect x="161.5" y="101.5" class="st3" width="2" height="13" />
				</g>
				<g>
					<rect x="205.5" y="101.5" class="st3" width="2" height="13" />
				</g>
			</g>
		</g>
		<g>
			<g>
				<line class="st4" x1="85.5" y1="199.8" x2="125.2" y2="199.8" />
				<g>
					<rect x="84.5" y="193.3" class="st3" width="2" height="13" />
				</g>
				<g>
					<rect x="124.2" y="193.3" class="st3" width="2" height="13" />
				</g>
			</g>
		</g>
		<g>
			<g>
				<line class="st4" x1="105.3" y1="176.4" x2="105.3" y2="223.2" />
				<g>
					<rect x="98.8" y="175.4" class="st3" width="13" height="2" />
				</g>
				<g>
					<rect x="98.8" y="222.2" class="st3" width="13" height="2" />
				</g>
			</g>
		</g>
		<g>
			<g>
				<line class="st4" x1="195" y1="205.5" x2="261" y2="205.5" />
				<g>
					<rect x="194" y="199" class="st3" width="2" height="13" />
				</g>
				<g>
					<rect x="260" y="199" class="st3" width="2" height="13" />
				</g>
			</g>
		</g>
		<g>
			<g>
				<line class="st4" x1="228" y1="167" x2="228" y2="244" />
				<g>
					<rect x="221.5" y="166" class="st3" width="13" height="2" />
				</g>
				<g>
					<rect x="221.5" y="243" class="st3" width="13" height="2" />
				</g>
			</g>
		</g>
		<g>
			<g>
				<line class="st4" x1="297" y1="165.9" x2="297" y2="195.5" />
				<g>
					<rect x="290.5" y="164.9" class="st3" width="13" height="2" />
				</g>
				<g>
					<rect x="290.5" y="194.5" class="st3" width="13" height="2" />
				</g>
			</g>
		</g>
		<g>
			<g>
				<line class="st4" x1="284" y1="180.7" x2="310" y2="180.7" />
				<g>
					<rect x="283" y="174.2" class="st3" width="2" height="13" />
				</g>
				<g>
					<rect x="309" y="174.2" class="st3" width="2" height="13" />
				</g>
			</g>
		</g>
		<g>
			<g>
				<line class="st4" x1="282.3" y1="59.5" x2="282.3" y2="110.5" />
				<g>
					<rect x="275.8" y="58.5" class="st3" width="13" height="2" />
				</g>
				<g>
					<rect x="275.8" y="109.5" class="st3" width="13" height="2" />
				</g>
			</g>
		</g>
		<g>
			<g>
				<line class="st4" x1="459.7" y1="117.9" x2="459.7" y2="168.9" />
				<g>
					<rect x="453.2" y="116.9" class="st3" width="13" height="2" />
				</g>
				<g>
					<rect x="453.2" y="167.9" class="st3" width="13" height="2" />
				</g>
			</g>
		</g>
		<g>
			<g>
				<line class="st4" x1="505.9" y1="82.5" x2="505.9" y2="111.5" />
				<g>
					<rect x="499.4" y="81.5" class="st3" width="13" height="2" />
				</g>
				<g>
					<rect x="499.4" y="110.5" class="st3" width="13" height="2" />
				</g>
			</g>
		</g>
		<g>
			<g>
				<line class="st4" x1="552.1" y1="151.5" x2="552.1" y2="241.6" />
				<g>
					<rect x="545.6" y="150.5" class="st3" width="13" height="2" />
				</g>
				<g>
					<rect x="545.6" y="240.6" class="st3" width="13" height="2" />
				</g>
			</g>
		</g>
		<g>
			<g>
				<line class="st4" x1="598.3" y1="117.9" x2="598.3" y2="202.1" />
				<g>
					<rect x="591.8" y="116.9" class="st3" width="13" height="2" />
				</g>
				<g>
					<rect x="591.8" y="201.1" class="st3" width="13" height="2" />
				</g>
			</g>
		</g>
		<g>
			<g>
				<line class="st4" x1="644.6" y1="161" x2="644.6" y2="189.8" />
				<g>
					<rect x="638.1" y="160" class="st3" width="13" height="2" />
				</g>
				<g>
					<rect x="638.1" y="188.8" class="st3" width="13" height="2" />
				</g>
			</g>
		</g>
		<g>
			<g>
				<line class="st4" x1="265.8" y1="85" x2="298.8" y2="85" />
				<g>
					<rect x="264.8" y="78.5" class="st3" width="2" height="13" />
				</g>
				<g>
					<rect x="297.8" y="78.5" class="st3" width="2" height="13" />
				</g>
			</g>
		</g>
	</g>
</svg>