<?xml version='1.0' encoding='utf-8'?>
<svg width="900" height="340" viewBox="0,0,750,600" id="svg">
  <g id="g">
    <g transform="translate(10,63) rotate(90 120 560) scale(-1 1)" id="g_1">
      <path d="M 143 271 L 118 271 L 104.11111111111111 246 L 118 221 L 143 221 L 156.88888888888889 246 Z" filter="none" tabindex="-1" role="img" aria-label="1. Alabama, 5108468." outline="none" fill="#FF7987" stroke="#FF7987" stroke-width="0" opacity="1" id="path_51" />
      <path d="M 411 650 L 385 650 L 371.037037037037 624 L 385 599 L 411 599 L 423.962962962963 624 Z" filter="none" tabindex="-1" role="img" aria-label="2. Alaska, 733406." id="path_50" outline="none" fill="rgb(249,237,179)" stroke="#F9EDB3" stroke-width="0" opacity="1" />
      <path d="M 188 514 L 162 514 L 148.11111111111111 489 L 162 464 L 188 464 L 201.88888888888889 489 Z" filter="none" tabindex="-1" role="img" aria-label="3. Arizona, 7431344." outline="none" fill="#FF7987" stroke="#FF7987" stroke-width="0" opacity="1" id="path_49" />
      <path d="M 188 352 L 162 352 L 148.11111111111111 327 L 162 302 L 188 302 L 201.88888888888889 327 Z" filter="none" tabindex="-1" role="img" aria-label="4. Arkansas, 3067732." outline="none" fill="#FFC428" stroke="#FFC428" stroke-width="0" opacity="1" id="path_48" />
      <path d="M 188 568 L 162 568 L 148.11111111111111 543 L 162 518 L 188 518 L 201.88888888888889 543 Z" filter="none" tabindex="-1" role="img" aria-label="5. California, 38965193." outline="none" fill="#FF2371" stroke="#FF2371" stroke-width="0" opacity="1" id="path_47" />
      <path d="M 232 487 L 207 487 L 193.11111111111111 462 L 207 437 L 232 437 L 245.88888888888889 462 Z" filter="none" tabindex="-1" role="img" aria-label="6. Colorado, 5877610." outline="none" fill="#FF7987" stroke="#FF7987" stroke-width="0" opacity="1" id="path_46" />
      <path d="M 277 82 L 251 82 L 237.11111111111111 57 L 251 32 L 277 32 L 290.8888888888889 57 Z" filter="none" tabindex="-1" role="img" aria-label="7. Connecticut, 3617176." outline="none" fill="#FFC428" stroke="#FFC428" stroke-width="0" opacity="1" id="path_45" />
      <path d="M 232 163 L 207 163 L 193.11111111111111 138 L 207 113 L 232 113 L 245.88888888888889 138 Z" filter="none" tabindex="-1" role="img" aria-label="8. Delaware, 1031890." outline="none" fill="#FFC428" stroke="#FFC428" stroke-width="0" opacity="1" id="path_44" />
      <path d="M 232 109 L 207 109 L 193.11111111111111 84 L 207 59 L 232 59 L 245.88888888888889 84 Z" filter="none" tabindex="-1" role="img" aria-label="9. District of Columbia, 678972." outline="none" fill="#F9EDB3" stroke="#F9EDB3" stroke-width="0" opacity="1" id="path_43" />
      <path d="M 54 217 L 28 217 L 15.11111111111111 192 L 28 167 L 54 167 L 67.88888888888889 192 Z" filter="none" tabindex="-1" role="img" aria-label="10. Florida, 22610726." outline="none" fill="#FF2371" stroke="#FF2371" stroke-width="0" opacity="1" id="path_42" />
      <path d="M 99 244 L 73 244 L 59.111111111111114 219 L 73 194 L 99 194 L 112.88888888888889 219 Z" filter="none" tabindex="-1" role="img" aria-label="11. Georgia, 11029227." outline="none" fill="#FF7987" stroke="#FF7987" stroke-width="0" opacity="1" id="path_41" />
      <path d="M 54 650 L 28 650 L 15.11111111111111 624 L 28 599 L 54 599 L 67.88888888888889 624 Z" filter="none" tabindex="-1" role="img" aria-label="12. Hawaii, 1435138." id="path_40" outline="none" fill="rgb(255,196,40)" stroke="#FFC428" stroke-width="0" opacity="1" />
      <path d="M 277 568 L 251 568 L 237.11111111111111 543 L 251 518 L 277 518 L 290.8888888888889 543 Z" filter="none" tabindex="-1" role="img" aria-label="13. Idaho, 1964726." outline="none" fill="#FFC428" stroke="#FFC428" stroke-width="0" opacity="1" id="path_39" />
      <path d="M 277 352 L 251 352 L 237.11111111111111 327 L 251 302 L 277 302 L 290.8888888888889 327 Z" filter="none" tabindex="-1" role="img" aria-label="14. Illinois, 12549689." outline="none" fill="#FF7987" stroke="#FF7987" stroke-width="0" opacity="1" id="path_38" />
      <path d="M 277 298 L 251 298 L 237.11111111111111 273 L 251 248 L 277 248 L 290.8888888888889 273 Z" filter="none" tabindex="-1" role="img" aria-label="15. Indiana, 6862199." outline="none" fill="#FF7987" stroke="#FF7987" stroke-width="0" opacity="1" id="path_37" />
      <path d="M 277 406 L 251 406 L 237.11111111111111 381 L 251 356 L 277 356 L 290.8888888888889 381 Z" filter="none" tabindex="-1" role="img" aria-label="16. Iowa, 3207004." outline="none" fill="#FFC428" stroke="#FFC428" stroke-width="0" opacity="1" id="path_36" />
      <path d="M 188 406 L 162 406 L 148.11111111111111 381 L 162 356 L 188 356 L 201.88888888888889 381 Z" filter="none" tabindex="-1" role="img" aria-label="17. Kansas, 2940546." outline="none" fill="#FFC428" stroke="#FFC428" stroke-width="0" opacity="1" id="path_35" />
      <path d="M 232 325 L 207 325 L 193.11111111111111 300 L 207 275 L 232 275 L 245.88888888888889 300 Z" filter="none" tabindex="-1" role="img" aria-label="18. Kentucky, 4526154." outline="none" fill="#FFC428" stroke="#FFC428" stroke-width="0" opacity="1" id="path_34" />
      <path d="M 143 379 L 118 379 L 104.11111111111111 354 L 118 329 L 143 329 L 156.88888888888889 354 Z" filter="none" tabindex="-1" role="img" aria-label="19. Louisiana, 4573749." outline="none" fill="#FFC428" stroke="#FFC428" stroke-width="0" opacity="1" id="path_33" />
      <path d="M 411 55 L 385 55 L 371.037037037037 30 L 385 5 L 411 5 L 423.962962962963 30 Z" filter="none" tabindex="-1" role="img" aria-label="20. Maine, 1395722." outline="none" fill="#FFC428" stroke="#FFC428" stroke-width="0" opacity="1" id="path_32" />
      <path d="M 232 217 L 207 217 L 193.11111111111111 192 L 207 167 L 232 167 L 245.88888888888889 192 Z" filter="none" tabindex="-1" role="img" aria-label="21. Maryland, 6180253." outline="none" fill="#FF7987" stroke="#FF7987" stroke-width="0" opacity="1" id="path_31" />
      <path d="M 321 109 L 296 109 L 282.1111111111111 84 L 296 59 L 321 59 L 334.8888888888889 84 Z" filter="none" tabindex="-1" role="img" aria-label="22. Massachusetts, 7001399." outline="none" fill="#FF7987" stroke="#FF7987" stroke-width="0" opacity="1" id="path_30" />
      <path d="M 321 271 L 296 271 L 282.1111111111111 246 L 296 221 L 321 221 L 334.8888888888889 246 Z" filter="none" tabindex="-1" role="img" aria-label="23. Michigan, 1037261." outline="none" fill="#FFC428" stroke="#FFC428" stroke-width="0" opacity="1" id="path_29" />
      <path d="M 321 433 L 296 433 L 282.1111111111111 408 L 296 383 L 321 383 L 334.8888888888889 408 Z" filter="none" tabindex="-1" role="img" aria-label="24. Minnesota, 5737915." outline="none" fill="#FF7987" stroke="#FF7987" stroke-width="0" opacity="1" id="path_28" />
      <path d="M 143 325 L 118 325 L 104.11111111111111 300 L 118 275 L 143 275 L 156.88888888888889 300 Z" filter="none" tabindex="-1" role="img" aria-label="25. Mississippi, 2939690." outline="none" fill="#FFC428" stroke="#FFC428" stroke-width="0" opacity="1" id="path_27" />
      <path d="M 232 379 L 207 379 L 193.11111111111111 354 L 207 329 L 232 329 L 245.88888888888889 354 Z" filter="none" tabindex="-1" role="img" aria-label="26. Missouri, 6196156." outline="none" fill="#FF7987" stroke="#FF7987" stroke-width="0" opacity="1" id="path_26" />
      <path d="M 321 541 L 296 541 L 282.1111111111111 516 L 296 491 L 321 491 L 334.8888888888889 516 Z" filter="none" tabindex="-1" role="img" aria-label="27. Montana, 1132182." outline="none" fill="#FFC428" stroke="#FFC428" stroke-width="0" opacity="1" id="path_25" />
      <path d="M 232 433 L 207 433 L 193.11111111111111 408 L 207 383 L 232 383 L 245.88888888888889 408 Z" filter="none" tabindex="-1" role="img" aria-label="28. Nebraska, 1978379." outline="none" fill="#FFC428" stroke="#FFC428" stroke-width="0" opacity="1" id="path_24" />
      <path d="M 232 541 L 207 541 L 193.11111111111111 516 L 207 491 L 232 491 L 245.88888888888889 516 Z" filter="none" tabindex="-1" role="img" aria-label="29. Nevada, 3194176." outline="none" fill="#FFC428" stroke="#FFC428" stroke-width="0" opacity="1" id="path_23" />
      <path d="M 366 82 L 340 82 L 326.1111111111111 57 L 340 32 L 366 32 L 379.8888888888889 57 Z" filter="none" tabindex="-1" role="img" aria-label="30. New Hampshire, 1402054." outline="none" fill="#FFC428" stroke="#FFC428" stroke-width="0" opacity="1" id="path_22" />
      <path d="M 277 136 L 251 136 L 237.11111111111111 111 L 251 86 L 277 86 L 290.8888888888889 111 Z" filter="none" tabindex="-1" role="img" aria-label="31. New Jersey, 9290841." outline="none" fill="#FF7987" stroke="#FF7987" stroke-width="0" opacity="1" id="path_21" />
      <path d="M 143 487 L 118 487 L 104.11111111111111 462 L 118 437 L 143 437 L 156.88888888888889 462 Z" filter="none" tabindex="-1" role="img" aria-label="32. New Mexico, 2114371." outline="none" fill="#FFC428" stroke="#FFC428" stroke-width="0" opacity="1" id="path_20" />
      <path d="M 321 163 L 296 163 L 282.1111111111111 138 L 296 113 L 321 113 L 334.8888888888889 138 Z" filter="none" tabindex="-1" role="img" aria-label="33. New York, 19571216." outline="none" fill="#FF7987" stroke="#FF7987" stroke-width="0" opacity="1" id="path_19" />
      <path d="M 188 190 L 162 190 L 148.11111111111111 165 L 162 140 L 188 140 L 201.88888888888889 165 Z" filter="none" tabindex="-1" role="img" aria-label="34. North Carolina, 10835491." outline="none" fill="#FF7987" stroke="#FF7987" stroke-width="0" opacity="1" id="path_18" />
      <path d="M 321 487 L 296 487 L 282.1111111111111 462 L 296 437 L 321 437 L 334.8888888888889 462 Z" filter="none" tabindex="-1" role="img" aria-label="35. North Dakota, 783926." outline="none" fill="#F9EDB3" stroke="#F9EDB3" stroke-width="0" opacity="1" id="path_17" />
      <path d="M 277 244 L 251 244 L 237.11111111111111 219 L 251 194 L 277 194 L 290.8888888888889 219 Z" filter="none" tabindex="-1" role="img" aria-label="36. Ohio, 11785935." outline="none" fill="#FF7987" stroke="#FF7987" stroke-width="0" opacity="1" id="path_16" />
      <path d="M 143 433 L 118 433 L 104.11111111111111 408 L 118 383 L 143 383 L 156.88888888888889 408 Z" filter="none" tabindex="-1" role="img" aria-label="37. Oklahoma, 4053824." outline="none" fill="#FFC428" stroke="#FFC428" stroke-width="0" opacity="1" id="path_15" />
      <path d="M 232 595 L 207 595 L 193.11111111111111 570 L 207 545 L 232 545 L 245.88888888888889 570 Z" filter="none" tabindex="-1" role="img" aria-label="38. Oregon, 4233358." outline="none" fill="#FFC428" stroke="#FFC428" stroke-width="0" opacity="1" id="path_14" />
      <path d="M 277 190 L 251 190 L 237.11111111111111 165 L 251 140 L 277 140 L 290.8888888888889 165 Z" filter="none" tabindex="-1" role="img" aria-label="39. Pennsylvania, 12961683." outline="none" fill="#FF7987" stroke="#FF7987" stroke-width="0" opacity="1" id="path_13" />
      <path d="M 321 55 L 296 55 L 282.1111111111111 30 L 296 5 L 321 5 L 334.8888888888889 30 Z" filter="none" tabindex="-1" role="img" aria-label="40. Rhode Island, 1095926." outline="none" fill="#FFC428" stroke="#FFC428" stroke-width="0" opacity="1" id="path_12" />
      <path d="M 143 217 L 118 217 L 104.11111111111111 192 L 118 167 L 143 167 L 156.88888888888889 192 Z" filter="none" tabindex="-1" role="img" aria-label="41. South Carolina, 5373555." outline="none" fill="#FF7987" stroke="#FF7987" stroke-width="0" opacity="1" id="path_11" />
      <path d="M 277 460 L 251 460 L 237.11111111111111 435 L 251 410 L 277 410 L 290.8888888888889 435 Z" filter="none" tabindex="-1" role="img" aria-label="42. South Dakota, 919318." outline="none" fill="#F9EDB3" stroke="#F9EDB3" stroke-width="0" opacity="1" id="path_10" />
      <path d="M 188 298 L 162 298 L 148.11111111111111 273 L 162 248 L 188 248 L 201.88888888888889 273 Z" filter="none" tabindex="-1" role="img" aria-label="43. Tennessee, 7126489." outline="none" fill="#FF7987" stroke="#FF7987" stroke-width="0" opacity="1" id="path_9" />
      <path d="M 99 460 L 73 460 L 59.111111111111114 435 L 73 410 L 99 410 L 112.88888888888889 435 Z" filter="none" tabindex="-1" role="img" aria-label="44. Texas, 30503301." outline="none" fill="#FF2371" stroke="#FF2371" stroke-width="0" opacity="1" id="path_8" />
      <path d="M 188 460 L 162 460 L 148.11111111111111 435 L 162 410 L 188 410 L 201.88888888888889 435 Z" filter="none" tabindex="-1" role="img" aria-label="45. Utah, 3417734." outline="none" fill="#FFC428" stroke="#FFC428" stroke-width="0" opacity="1" id="path_7" />
      <path d="M 366 136 L 340 136 L 326.1111111111111 111 L 340 86 L 366 86 L 379.8888888888889 111 Z" filter="none" tabindex="-1" role="img" aria-label="46. Vermont, 647464." outline="none" fill="#F9EDB3" stroke="#F9EDB3" stroke-width="0" opacity="1" id="path_6" />
      <path d="M 188 244 L 162 244 L 148.11111111111111 219 L 162 194 L 188 194 L 201.88888888888889 219 Z" filter="none" tabindex="-1" role="img" aria-label="47. Virginia, 8715698." outline="none" fill="#FF7987" stroke="#FF7987" stroke-width="0" opacity="1" id="path_5" />
      <path d="M 321 595 L 296 595 L 282.1111111111111 570 L 296 545 L 321 545 L 334.8888888888889 570 Z" filter="none" tabindex="-1" role="img" aria-label="48. Washington, 7812880." outline="none" fill="#FF7987" stroke="#FF7987" stroke-width="0" opacity="1" id="path_4" />
      <path d="M 232 271 L 207 271 L 193.11111111111111 246 L 207 221 L 232 221 L 245.88888888888889 246 Z" filter="none" tabindex="-1" role="img" aria-label="49. West Virginia, 1770071." outline="none" fill="#FFC428" stroke="#FFC428" stroke-width="0" opacity="1" id="path_3" />
      <path d="M 321 379 L 296 379 L 282.1111111111111 354 L 296 329 L 321 329 L 334.8888888888889 354 Z" filter="none" tabindex="-1" role="img" aria-label="50. Wisconsin, 5910955." outline="none" fill="#FF7987" stroke="#FF7987" stroke-width="0" opacity="1" id="path_2" />
      <path d="M 277 514 L 251 514 L 237.11111111111111 489 L 251 464 L 277 464 L 290.8888888888889 489 Z" filter="none" tabindex="-1" role="img" aria-label="51. Wyoming, 584057." outline="none" fill="#F9EDB3" stroke="#F9EDB3" stroke-width="0" opacity="1" id="path_1" />
      <path d="M 0 0" data-z-index="3" fill-opacity="0.5" visibility="hidden" fill="#FFC428" id="path" />
    </g>
  </g>
</svg>