<svg width="800" height="340" viewBox="0,0,1300,800" id="svg" xmlns="http://www.w3.org/2000/svg">
    <circle cx="662.8203125" cy="330" r="330" fill="#E8C1A0" stroke="#E8C1A0"
    ></circle>
    <circle cx="716.4209778465477" cy="400.5972336944523" r="112.281169861559" fill="#f47560"
    ></circle>
    <circle cx="858.695588324668" cy="400.5972336944523" r="29.99344061656133" fill="#f47560"
    ></circle>
    <circle cx="867.1002216752555" cy="496.6133949742958" r="66.3898623392656" fill="#f47560"
    ></circle>
    <circle cx="862.2159091047716" cy="312.72934575662157" r="57.94493774607398" fill="#f47560"
    ></circle>
    <circle cx="763.4410045604998" cy="207.82261731575898" r="86.14497668201817" fill="#f47560"
    ></circle>
    <circle cx="759.1400522255121" cy="574.3483392436049" r="66.64441801046188" fill="#f47560"
    ></circle>
    <circle cx="525.1526442319821" cy="217.71642947691313" r="152.34869238937182" fill="#f47560"
    ></circle>
    <circle cx="635.9141643122489" cy="400.5972336944523" r="31.774356327260186" fill="#F1E15B"
    ></circle>
    <circle cx="748.1953341738079" cy="400.5972336944523" r="80.50681353429879" fill="#F1E15B"
    ></circle>
    <circle cx="843.0250040895019" cy="400.5972336944523" r="14.322856381395084" fill="#F1E15B"
    ></circle>
    <circle cx="873.0184447060632" cy="400.5972336944523" r="15.670584235166245" fill="#F1E15B"
    ></circle>
    <circle cx="834.8533833480565" cy="498.8809108212276" r="17.413439580213087" fill="#F1E15B"
    ></circle>
    <circle cx="873.1963041747076" cy="498.8809108212276" r="20.92948124643812" fill="#F1E15B"
    ></circle>
    <circle cx="850.1465107555504" cy="536.4211058462446" r="23.122297595989348" fill="#F1E15B"
    ></circle>
    <circle cx="850.9980975167064" cy="472.12549430138563" r="13.835626145623253" fill="#F1E15B"
    ></circle>
    <circle cx="886.5191162466836" cy="530.8219801631745" r="13.678743674991317" fill="#F1E15B"
    ></circle>
    <circle cx="884.1717897031431" cy="456.52895284811285" r="22.821514476417967" fill="#F1E15B"
    ></circle>
    <circle cx="823.1286701338202" cy="469.57571840984946" r="14.150197761259165" fill="#F1E15B"
    ></circle>
    <circle cx="848.667579274269" cy="307.0699926526882" r="23.239858034923675" fill="#F1E15B"
    ></circle>
    <circle cx="895.5701923400702" cy="307.0699926526882" r="23.66275503087759" fill="#F1E15B"
    ></circle>
    <circle cx="871.7033532518101" cy="346.7413018808718" r="22.634531973255456" fill="#F1E15B"
    ></circle>
    <circle cx="871.8097596063708" cy="282.0617006478239" r="10.833227817755917" fill="#F1E15B"
    ></circle>
    <circle cx="850.3355894687603" cy="270.1390649665925" r="13.728718861740223" fill="#F1E15B"
    ></circle>
    <circle cx="747.2537909491663" cy="195.97980404033152" r="15.730131601944432" fill="#F1E15B"
    ></circle>
    <circle cx="779.0730686230912" cy="195.97980404033152" r="16.089146071980508" fill="#F1E15B"
    ></circle>
    <circle cx="762.7234135765682" cy="231.5831599350899" r="23.088783570984525" fill="#F1E15B"
    ></circle>
    <circle cx="762.8035895967714" cy="168.34078842348376" r="15.982821938358587" fill="#F1E15B"
    ></circle>
    <circle cx="732.2774475552093" cy="169.63855719785482" r="14.570893903308757" fill="#F1E15B"
    ></circle>
    <circle cx="799.9283157273991" cy="164.95196639982743" r="21.296252687792364" fill="#F1E15B"
    ></circle>
    <circle cx="784.8382937448054" cy="215.49441310421295" r="4.2592638811378984" fill="#F1E15B"
    ></circle>
    <circle cx="739.5729164876022" cy="215.40229668168564" r="5.155965517856597" fill="#F1E15B"
    ></circle>
    <circle cx="809.050240759296" cy="215.9988285095964" r="19.957936888845623" fill="#F1E15B"
    ></circle>
    <circle cx="712.6232984853561" cy="211.23933681388505" r="22.11328722819244" fill="#F1E15B"
    ></circle>
    <circle cx="701.9199890094819" cy="174.48215334092586" r="16.17053926030167" fill="#F1E15B"
    ></circle>
    <circle cx="830.2615124444374" cy="186.83300456635396" r="16.1053870398925" fill="#F1E15B"
    ></circle>
    <circle cx="800.5829604816149" cy="258.4639676128713" r="23.343135550082412" fill="#F1E15B"
    ></circle>
    <circle cx="746.5961773406455" cy="582.4233109082024" r="16.70370810388875" fill="#F1E15B"
    ></circle>
    <circle cx="784.1711743675244" cy="582.4233109082024" r="20.871288922990207" fill="#F1E15B"
    ></circle>
    <circle cx="761.0143894920329" cy="616.8345800525395" r="20.60607996528176" fill="#F1E15B"
    ></circle>
    <circle cx="761.8990280861284" cy="557.3973532612017" r="12.630159644637068" fill="#F1E15B"
    ></circle>
    <circle cx="794.5433000682611" cy="614.6603422055753" r="12.993252686482014" fill="#F1E15B"
    ></circle>
    <circle cx="791.1724387311197" cy="541.4314990258359" r="20.71412130810258" fill="#F1E15B"
    ></circle>
    <circle cx="731.4248559187926" cy="550.5387179586867" r="18.60629417933813" fill="#F1E15B"
    ></circle>
    <circle cx="723.7117711647929" cy="608.1150071535852" r="17.702095214540073" fill="#F1E15B"
    ></circle>
    <circle cx="807.2840693472549" cy="565.1668226743724" r="7.9729878144904145" fill="#F1E15B"
    ></circle>
    <circle cx="461.44710819877344" cy="131.515638099833" r="45.1620712311632" fill="#F1E15B"
    ></circle>
    <circle cx="524.9027327429607" cy="131.515638099833" r="18.293553313024013" fill="#F1E15B"
    ></circle>
    <circle cx="551.9943706066256" cy="254.03631938750388" r="107.18662115820861" fill="#F1E15B"
    ></circle>
    <circle cx="622.2479949184465" cy="405.1091059358015" r="17.382651180810043" fill="#E8A838"
        stroke="#E8A838"></circle>
    <circle cx="653.3197730696104" cy="405.1091059358015" r="13.689126970353847" fill="#E8A838"
        stroke="#E8A838"></circle>
    <circle cx="640.6444582340278" cy="423.3565183092319" r="8.528696156747497" fill="#E8A838"
        stroke="#E8A838"></circle>
    <circle cx="641.1112110137814" cy="381.9902888737414" r="12.455254640616202" fill="#E8A838"
        stroke="#E8A838"></circle>
    <circle cx="725.9441404123334" cy="400.5972336944523" r="58.25561977282427" fill="#E8A838"
        stroke="#E8A838"></circle>
    <circle cx="806.4509539466321" cy="400.5972336944523" r="22.25119376147452" fill="#E8A838"
        stroke="#E8A838"></circle>
    <circle cx="446.37670618921743" cy="149.7955702245848" r="21.470871700215834" fill="#E8A838"
        stroke="#E8A838"></circle>
    <circle cx="479.2485251268522" cy="149.7955702245848" r="11.400947237418908" fill="#E8A838"
        stroke="#E8A838"></circle>
    <circle cx="470.0811720503524" cy="166.08537529631013" r="7.291246633393046" fill="#E8A838"
        stroke="#E8A838"></circle>
    <circle cx="475.1051193769399" cy="114.94889242591718" r="23.691199530947376" fill="#E8A838"
        stroke="#E8A838"></circle>
    <circle cx="560.4363799434126" cy="234.753733026552" r="2.2578720506956524" fill="#E8A838"
        stroke="#E8A838"></circle>
    <circle cx="609.3606044570422" cy="234.753733026552" r="46.66635246293389" fill="#E8A838"
        stroke="#E8A838"></circle>
    <circle cx="507.760051327345" cy="268.9048583235744" r="60.52026869527471" fill="#E8A838"
        stroke="#E8A838"></circle>
    <circle cx="706.3937376747006" cy="400.5972336944523" r="38.70521703519143" fill="#61CDBB"
        stroke="#61CDBB"></circle>
    <circle cx="764.6493574475248" cy="400.5972336944523" r="19.550402737632833" fill="#61CDBB"
        stroke="#61CDBB"></circle>
    <circle cx="750.0831196993687" cy="432.1015684533022" r="15.158362592373999" fill="#61CDBB"
        stroke="#61CDBB"></circle>
    <circle cx="586.6087923277584" cy="242.17127554909337" r="22.73593474322128" fill="#61CDBB"
        stroke="#61CDBB"></circle>
    <circle cx="626.0921845838185" cy="242.17127554909337" r="16.747457512838846" fill="#61CDBB"
        stroke="#61CDBB"></circle>
    <circle cx="611.3416536129706" cy="268.1952681892285" r="13.16619082459651" fill="#61CDBB"
        stroke="#61CDBB"></circle>
    <circle cx="612.3655263769481" cy="208.17351289398096" r="19.91681680265252" fill="#61CDBB"
        stroke="#61CDBB"></circle>
    <circle cx="488.9129385453519" cy="260.7882364382251" r="8.622803271631032" fill="#61CDBB"
        stroke="#61CDBB"></circle>
    <circle cx="512.8869062108656" cy="260.7882364382251" r="15.351164393882744" fill="#61CDBB"
        stroke="#61CDBB"></circle>
    <circle cx="497.32522340714314" cy="264.92161628265416" r="0.7501026563218678"
        fill="#61CDBB" stroke="#61CDBB"></circle>
    <circle cx="491.83303130599995" cy="231.99366954397948" r="20.319449998596152"
        fill="#61CDBB" stroke="#61CDBB"></circle>
    <circle cx="490.8513867466074" cy="293.17024076063916" r="23.817168759272345" fill="#61CDBB"
        stroke="#61CDBB"></circle>
    <circle cx="526.6344879449024" cy="234.23052491169386" r="14.55381922190394" fill="#61CDBB"
        stroke="#61CDBB"></circle>
    <circle cx="538.022662519588" cy="290.3330819366719" r="23.43935172460387" fill="#61CDBB"
        stroke="#61CDBB"></circle>
    <circle cx="464.92518771016904" cy="256.113300649789" r="15.816247748341453" fill="#61CDBB"
        stroke="#61CDBB"></circle>
    <circle cx="481.7132314176504" cy="268.8365137539719" r="2.1758332384030123" fill="#61CDBB"
        stroke="#61CDBB"></circle>
    <circle cx="692.9543304580434" cy="388.0666588953917" r="20.33042530494345" fill="#97E3D5"
        stroke="#97E3D5"></circle>
    <circle cx="727.4700540354231" cy="388.0666588953917" r="14.185298272436262" fill="#97E3D5"
        stroke="#97E3D5"></circle>
    <circle cx="716.5159453757611" cy="418.48874234806937" r="18.148827015397988" fill="#97E3D5"
        stroke="#97E3D5"></circle>
</svg>