<svg width="900" height="340" viewBox="0,00,550,350" id="svg" xmlns="http://www.w3.org/2000/svg">
    <rect x="426.5" y="245.5" width="19" height="17" fill="#2caffe" stroke="#e6e6e6"
    ></rect>
    <rect x="445.5" y="226.5" width="4" height="36" fill="#2caffe" stroke="#e6e6e6"
    ></rect>
    <rect x="426.5" y="226.5" width="19" height="19" fill="#2caffe" stroke="#e6e6e6"
    ></rect>
    <rect x="477.5" y="309.5" width="3" height="4" fill="#2caffe" stroke="#e6e6e6"
    ></rect>
    <rect x="477.5" y="301.5" width="3" height="4" fill="#2caffe" stroke="#e6e6e6"
    ></rect>
    <rect x="477.5" y="308.5" width="3" height="1" fill="#2caffe" stroke="#e6e6e6"
    ></rect>
    <rect x="477.5" y="305.5" width="3" height="3" fill="#2caffe" stroke="#e6e6e6"
    ></rect>
    <rect x="418.5" y="279.5" width="8" height="25" fill="#2caffe" stroke="#e6e6e6"
    ></rect>
    <rect x="418.5" y="304.5" width="8" height="12" fill="#2caffe" stroke="#e6e6e6"
    ></rect>
    <rect x="379.5" y="279.5" width="39" height="37" fill="#2caffe" stroke="#e6e6e6"
    ></rect>
    <rect x="453.5" y="187.5" width="3" height="39" fill="#2caffe" stroke="#e6e6e6"
    ></rect>
    <rect x="426.5" y="221.5" width="27" height="5" fill="#2caffe" stroke="#e6e6e6"
    ></rect>
    <rect x="426.5" y="187.5" width="27" height="34" fill="#2caffe" stroke="#e6e6e6"
    ></rect>
    <rect x="445.5" y="262.5" width="4" height="27" fill="#2caffe" stroke="#e6e6e6"
    ></rect>
    <rect x="426.5" y="280.5" width="19" height="9" fill="#2caffe" stroke="#e6e6e6"
    ></rect>
    <rect x="426.5" y="262.5" width="19" height="18" fill="#2caffe" stroke="#e6e6e6"
    ></rect>
    <rect x="468.5" y="310.5" width="8" height="1" fill="#2caffe" stroke="#e6e6e6"
    ></rect>
    <rect x="476.5" y="301.5" width="1" height="10" fill="#2caffe" stroke="#e6e6e6"
    ></rect>
    <rect x="468.5" y="301.5" width="8" height="9" fill="#2caffe" stroke="#e6e6e6"
    ></rect>
    <rect x="477.5" y="300.5" width="3" height="1" fill="#2caffe" stroke="#e6e6e6"
    ></rect>
    <rect x="480.5" y="291.5" width="0" height="10" fill="#2caffe" stroke="#e6e6e6"
    ></rect>
    <rect x="477.5" y="291.5" width="3" height="9" fill="#2caffe" stroke="#e6e6e6"
    ></rect>
    <rect x="477.5" y="277.5" width="0" height="12" fill="#2caffe" stroke="#e6e6e6"
    ></rect>
    <rect x="468.5" y="288.5" width="9" height="1" fill="#2caffe" stroke="#e6e6e6"
    ></rect>
    <rect x="468.5" y="277.5" width="9" height="11" fill="#2caffe" stroke="#e6e6e6"
    ></rect>
    <rect x="476.5" y="289.5" width="1" height="12" fill="#2caffe" stroke="#e6e6e6"
    ></rect>
    <rect x="468.5" y="299.5" width="8" height="2" fill="#2caffe" stroke="#e6e6e6"
    ></rect>
    <rect x="468.5" y="289.5" width="8" height="10" fill="#2caffe" stroke="#e6e6e6"
    ></rect>
    <rect x="426.5" y="312.5" width="21" height="4" fill="#2caffe" stroke="#e6e6e6"
    ></rect>
    <rect x="447.5" y="289.5" width="2" height="27" fill="#2caffe" stroke="#e6e6e6"
    ></rect>
    <rect x="426.5" y="289.5" width="21" height="23" fill="#2caffe" stroke="#e6e6e6"
    ></rect>
    <rect x="477.5" y="286.5" width="3" height="2" fill="#2caffe" stroke="#e6e6e6"
    ></rect>
    <rect x="477.5" y="288.5" width="3" height="3" fill="#2caffe" stroke="#e6e6e6"
    ></rect>
    <rect x="477.5" y="277.5" width="3" height="9" fill="#2caffe" stroke="#e6e6e6"
    ></rect>
    <rect x="379.5" y="244.5" width="43" height="35" fill="#2caffe" stroke="#e6e6e6"
    ></rect>
    <rect x="422.5" y="187.5" width="4" height="92" fill="#2caffe" stroke="#e6e6e6"
    ></rect>
    <rect x="379.5" y="187.5" width="43" height="57" fill="#2caffe" stroke="#e6e6e6"
    ></rect>
    <rect x="477.5" y="315.5" width="3" height="1" fill="#2caffe" stroke="#e6e6e6"
    ></rect>
    <rect x="477.5" y="313.5" width="3" height="2" fill="#2caffe" stroke="#e6e6e6"
    ></rect>
    <rect x="463.5" y="309.5" width="5" height="7" fill="#2caffe" stroke="#e6e6e6"
    ></rect>
    <rect x="463.5" y="300.5" width="5" height="9" fill="#2caffe" stroke="#e6e6e6"
    ></rect>
    <rect x="449.5" y="300.5" width="14" height="16" fill="#2caffe" stroke="#e6e6e6"
    ></rect>
    <rect x="449.5" y="257.5" width="18" height="16" fill="#2caffe" stroke="#e6e6e6"
    ></rect>
    <rect x="467.5" y="257.5" width="1" height="22" fill="#2caffe" stroke="#e6e6e6"
    ></rect>
    <rect x="449.5" y="273.5" width="18" height="6" fill="#2caffe" stroke="#e6e6e6"
    ></rect>
    <rect x="449.5" y="279.5" width="17" height="14" fill="#2caffe" stroke="#e6e6e6"
    ></rect>
    <rect x="466.5" y="279.5" width="2" height="21" fill="#2caffe" stroke="#e6e6e6"
    ></rect>
    <rect x="449.5" y="293.5" width="17" height="7" fill="#2caffe" stroke="#e6e6e6"
    ></rect>
    <rect x="456.5" y="210.5" width="21" height="16" fill="#2caffe" stroke="#e6e6e6"
    ></rect>
    <rect x="477.5" y="187.5" width="3" height="39" fill="#2caffe" stroke="#e6e6e6"
    ></rect>
    <rect x="456.5" y="187.5" width="21" height="23" fill="#2caffe" stroke="#e6e6e6"
    ></rect>
    <rect x="465.5" y="255.5" width="15" height="2" fill="#2caffe" stroke="#e6e6e6"
    ></rect>
    <rect x="465.5" y="241.5" width="15" height="14" fill="#2caffe" stroke="#e6e6e6"
    ></rect>
    <rect x="465.5" y="226.5" width="15" height="15" fill="#2caffe" stroke="#e6e6e6"
    ></rect>
    <rect x="468.5" y="275.5" width="11" height="2" fill="#2caffe" stroke="#e6e6e6"
    ></rect>
    <rect x="479.5" y="257.5" width="1" height="20" fill="#2caffe" stroke="#e6e6e6"
    ></rect>
    <rect x="468.5" y="257.5" width="11" height="18" fill="#2caffe" stroke="#e6e6e6"
    ></rect>
    <rect x="475.5" y="315.5" width="2" height="1" fill="#2caffe" stroke="#e6e6e6"
    ></rect>
    <rect x="475.5" y="311.5" width="2" height="4" fill="#2caffe" stroke="#e6e6e6"
    ></rect>
    <rect x="468.5" y="311.5" width="7" height="5" fill="#2caffe" stroke="#e6e6e6"
    ></rect>
    <rect x="449.5" y="248.5" width="14" height="9" fill="#2caffe" stroke="#e6e6e6"
    ></rect>
    <rect x="463.5" y="226.5" width="2" height="31" fill="#2caffe" stroke="#e6e6e6"
    ></rect>
    <rect x="449.5" y="226.5" width="14" height="22" fill="#2caffe" stroke="#e6e6e6"
    ></rect>
    <rect x="573.5" y="311.5" width="5" height="0" fill="#544fc5" stroke="#e6e6e6"
    ></rect>
    <rect x="578.5" y="306.5" width="0" height="5" fill="#544fc5" stroke="#e6e6e6"
    ></rect>
    <rect x="573.5" y="306.5" width="5" height="5" fill="#544fc5" stroke="#e6e6e6"
    ></rect>
    <rect x="573.5" y="305.5" width="5" height="1" fill="#544fc5" stroke="#e6e6e6"
    ></rect>
    <rect x="578.5" y="298.5" width="0" height="8" fill="#544fc5" stroke="#e6e6e6"
    ></rect>
    <rect x="573.5" y="298.5" width="5" height="7" fill="#544fc5" stroke="#e6e6e6"
    ></rect>
    <rect x="565.5" y="286.5" width="0" height="11" fill="#544fc5" stroke="#e6e6e6"
    ></rect>
    <rect x="555.5" y="297.5" width="10" height="0" fill="#544fc5" stroke="#e6e6e6"
    ></rect>
    <rect x="555.5" y="286.5" width="10" height="11" fill="#544fc5" stroke="#e6e6e6"
    ></rect>
    <rect x="555.5" y="306.5" width="9" height="1" fill="#544fc5" stroke="#e6e6e6"
    ></rect>
    <rect x="564.5" y="297.5" width="1" height="10" fill="#544fc5" stroke="#e6e6e6"
    ></rect>
    <rect x="555.5" y="297.5" width="9" height="9" fill="#544fc5" stroke="#e6e6e6"
    ></rect>
    <rect x="555.5" y="264.5" width="0" height="14" fill="#544fc5" stroke="#e6e6e6"
    ></rect>
    <rect x="542.5" y="277.5" width="13" height="1" fill="#544fc5" stroke="#e6e6e6"
    ></rect>
    <rect x="542.5" y="264.5" width="13" height="13" fill="#544fc5" stroke="#e6e6e6"
    ></rect>
    <rect x="555.5" y="243.5" width="12" height="0" fill="#544fc5" stroke="#e6e6e6"
    ></rect>
    <rect x="567.5" y="231.5" width="0" height="12" fill="#544fc5" stroke="#e6e6e6"
    ></rect>
    <rect x="555.5" y="231.5" width="12" height="12" fill="#544fc5" stroke="#e6e6e6"
    ></rect>
    <rect x="579.5" y="254.5" width="0" height="8" fill="#544fc5" stroke="#e6e6e6"
    ></rect>
    <rect x="573.5" y="261.5" width="6" height="1" fill="#544fc5" stroke="#e6e6e6"
    ></rect>
    <rect x="573.5" y="254.5" width="6" height="7" fill="#544fc5" stroke="#e6e6e6"
    ></rect>
    <rect x="567.5" y="243.5" width="12" height="0" fill="#544fc5" stroke="#e6e6e6"
    ></rect>
    <rect x="579.5" y="231.5" width="0" height="12" fill="#544fc5" stroke="#e6e6e6"
    ></rect>
    <rect x="567.5" y="231.5" width="12" height="12" fill="#544fc5" stroke="#e6e6e6"
    ></rect>
    <rect x="572.5" y="243.5" width="0" height="11" fill="#544fc5" stroke="#e6e6e6"
    ></rect>
    <rect x="565.5" y="253.5" width="7" height="1" fill="#544fc5" stroke="#e6e6e6"
    ></rect>
    <rect x="565.5" y="243.5" width="7" height="10" fill="#544fc5" stroke="#e6e6e6"
    ></rect>
    <rect x="578.5" y="296.5" width="1" height="7" fill="#544fc5" stroke="#e6e6e6"
    ></rect>
    <rect x="554.5" y="304.5" width="1" height="7" fill="#544fc5" stroke="#e6e6e6"
    ></rect>
    <rect x="554.5" y="311.5" width="1" height="5" fill="#544fc5" stroke="#e6e6e6"
    ></rect>
    <rect x="542.5" y="304.5" width="12" height="12" fill="#544fc5" stroke="#e6e6e6"
    ></rect>
    <rect x="565.5" y="262.5" width="7" height="0" fill="#544fc5" stroke="#e6e6e6"
    ></rect>
    <rect x="572.5" y="254.5" width="1" height="8" fill="#544fc5" stroke="#e6e6e6"
    ></rect>
    <rect x="565.5" y="254.5" width="7" height="8" fill="#544fc5" stroke="#e6e6e6"
    ></rect>
    <rect x="578.5" y="295.5" width="1" height="1" fill="#544fc5" stroke="#e6e6e6"
    ></rect>
    <rect x="578.5" y="281.5" width="1" height="14" fill="#544fc5" stroke="#e6e6e6"
    ></rect>
    <rect x="579.5" y="243.5" width="0" height="11" fill="#544fc5" stroke="#e6e6e6"
    ></rect>
    <rect x="572.5" y="253.5" width="7" height="1" fill="#544fc5" stroke="#e6e6e6"
    ></rect>
    <rect x="572.5" y="243.5" width="7" height="10" fill="#544fc5" stroke="#e6e6e6"
    ></rect>
    <rect x="518.5" y="244.5" width="23" height="2" fill="#544fc5" stroke="#e6e6e6"
    ></rect>
    <rect x="541.5" y="214.5" width="1" height="32" fill="#544fc5" stroke="#e6e6e6"
    ></rect>
    <rect x="518.5" y="214.5" width="23" height="30" fill="#544fc5" stroke="#e6e6e6"
    ></rect>
    <rect x="573.5" y="271.5" width="0" height="8" fill="#544fc5" stroke="#e6e6e6"
    ></rect>
    <rect x="565.5" y="279.5" width="8" height="0" fill="#544fc5" stroke="#e6e6e6"
    ></rect>
    <rect x="565.5" y="271.5" width="8" height="8" fill="#544fc5" stroke="#e6e6e6"
    ></rect>
    <rect x="515.5" y="260.5" width="3" height="17" fill="#544fc5" stroke="#e6e6e6"
    ></rect>
    <rect x="515.5" y="277.5" width="3" height="15" fill="#544fc5" stroke="#e6e6e6"
    ></rect>
    <rect x="480.5" y="260.5" width="35" height="32" fill="#544fc5" stroke="#e6e6e6"
    ></rect>
    <rect x="542.5" y="304.5" width="13" height="0" fill="#544fc5" stroke="#e6e6e6"
    ></rect>
    <rect x="555.5" y="291.5" width="0" height="13" fill="#544fc5" stroke="#e6e6e6"
    ></rect>
    <rect x="542.5" y="291.5" width="13" height="13" fill="#544fc5" stroke="#e6e6e6"
    ></rect>
    <rect x="555.5" y="278.5" width="0" height="13" fill="#544fc5" stroke="#e6e6e6"
    ></rect>
    <rect x="542.5" y="291.5" width="13" height="0" fill="#544fc5" stroke="#e6e6e6"
    ></rect>
    <rect x="542.5" y="278.5" width="13" height="13" fill="#544fc5" stroke="#e6e6e6"
    ></rect>
    <rect x="578.5" y="315.5" width="1" height="1" fill="#544fc5" stroke="#e6e6e6"
    ></rect>
    <rect x="573.5" y="290.5" width="5" height="0" fill="#544fc5" stroke="#e6e6e6"
    ></rect>
    <rect x="578.5" y="282.5" width="0" height="8" fill="#544fc5" stroke="#e6e6e6"
    ></rect>
    <rect x="573.5" y="282.5" width="5" height="8" fill="#544fc5" stroke="#e6e6e6"
    ></rect>
    <rect x="572.5" y="295.5" width="1" height="5" fill="#544fc5" stroke="#e6e6e6"
    ></rect>
    <rect x="572.5" y="300.5" width="1" height="2" fill="#544fc5" stroke="#e6e6e6"
    ></rect>
    <rect x="565.5" y="295.5" width="7" height="7" fill="#544fc5" stroke="#e6e6e6"
    ></rect>
    <rect x="547.5" y="187.5" width="3" height="15" fill="#544fc5" stroke="#e6e6e6"
    ></rect>
    <rect x="547.5" y="202.5" width="3" height="12" fill="#544fc5" stroke="#e6e6e6"
    ></rect>
    <rect x="518.5" y="187.5" width="29" height="27" fill="#544fc5" stroke="#e6e6e6"
    ></rect>
    <rect x="554.5" y="231.5" width="1" height="17" fill="#544fc5" stroke="#e6e6e6"
    ></rect>
    <rect x="542.5" y="246.5" width="12" height="2" fill="#544fc5" stroke="#e6e6e6"
    ></rect>
    <rect x="542.5" y="231.5" width="12" height="15" fill="#544fc5" stroke="#e6e6e6"
    ></rect>
    <rect x="573.5" y="281.5" width="5" height="1" fill="#544fc5" stroke="#e6e6e6"
    ></rect>
    <rect x="578.5" y="272.5" width="0" height="10" fill="#544fc5" stroke="#e6e6e6"
    ></rect>
    <rect x="573.5" y="272.5" width="5" height="9" fill="#544fc5" stroke="#e6e6e6"
    ></rect>
    <rect x="578.5" y="290.5" width="0" height="8" fill="#544fc5" stroke="#e6e6e6"
    ></rect>
    <rect x="573.5" y="297.5" width="5" height="1" fill="#544fc5" stroke="#e6e6e6"
    ></rect>
    <rect x="573.5" y="290.5" width="5" height="7" fill="#544fc5" stroke="#e6e6e6"
    ></rect>
    <rect x="572.5" y="308.5" width="1" height="1" fill="#544fc5" stroke="#e6e6e6"
    ></rect>
    <rect x="572.5" y="302.5" width="1" height="6" fill="#544fc5" stroke="#e6e6e6"
    ></rect>
    <rect x="565.5" y="302.5" width="7" height="7" fill="#544fc5" stroke="#e6e6e6"
    ></rect>
    <rect x="578.5" y="309.5" width="1" height="3" fill="#544fc5" stroke="#e6e6e6"
    ></rect>
    <rect x="578.5" y="312.5" width="1" height="3" fill="#544fc5" stroke="#e6e6e6"
    ></rect>
    <rect x="578.5" y="303.5" width="1" height="6" fill="#544fc5" stroke="#e6e6e6"
    ></rect>
    <rect x="542.5" y="263.5" width="12" height="1" fill="#544fc5" stroke="#e6e6e6"
    ></rect>
    <rect x="554.5" y="248.5" width="1" height="16" fill="#544fc5" stroke="#e6e6e6"
    ></rect>
    <rect x="542.5" y="248.5" width="12" height="15" fill="#544fc5" stroke="#e6e6e6"
    ></rect>
    <rect x="573.5" y="271.5" width="5" height="1" fill="#544fc5" stroke="#e6e6e6"
    ></rect>
    <rect x="578.5" y="262.5" width="0" height="10" fill="#544fc5" stroke="#e6e6e6"
    ></rect>
    <rect x="573.5" y="262.5" width="5" height="9" fill="#544fc5" stroke="#e6e6e6"
    ></rect>
    <rect x="540.5" y="308.5" width="2" height="8" fill="#544fc5" stroke="#e6e6e6"
    ></rect>
    <rect x="540.5" y="294.5" width="2" height="14" fill="#544fc5" stroke="#e6e6e6"
    ></rect>
    <rect x="518.5" y="294.5" width="22" height="22" fill="#544fc5" stroke="#e6e6e6"
    ></rect>
    <rect x="555.5" y="272.5" width="9" height="1" fill="#544fc5" stroke="#e6e6e6"
    ></rect>
    <rect x="564.5" y="259.5" width="1" height="14" fill="#544fc5" stroke="#e6e6e6"
    ></rect>
    <rect x="555.5" y="259.5" width="9" height="13" fill="#544fc5" stroke="#e6e6e6"
    ></rect>
    <rect x="572.5" y="287.5" width="1" height="4" fill="#544fc5" stroke="#e6e6e6"
    ></rect>
    <rect x="572.5" y="291.5" width="1" height="4" fill="#544fc5" stroke="#e6e6e6"
    ></rect>
    <rect x="565.5" y="287.5" width="7" height="8" fill="#544fc5" stroke="#e6e6e6"
    ></rect>
    <rect x="562.5" y="214.5" width="2" height="10" fill="#544fc5" stroke="#e6e6e6"
    ></rect>
    <rect x="562.5" y="224.5" width="2" height="7" fill="#544fc5" stroke="#e6e6e6"
    ></rect>
    <rect x="542.5" y="214.5" width="20" height="17" fill="#544fc5" stroke="#e6e6e6"
    ></rect>
    <rect x="516.5" y="187.5" width="2" height="73" fill="#544fc5" stroke="#e6e6e6"
    ></rect>
    <rect x="480.5" y="254.5" width="36" height="6" fill="#544fc5" stroke="#e6e6e6"
    ></rect>
    <rect x="480.5" y="187.5" width="36" height="67" fill="#544fc5" stroke="#e6e6e6"
    ></rect>
    <rect x="555.5" y="258.5" width="10" height="1" fill="#544fc5" stroke="#e6e6e6"
    ></rect>
    <rect x="565.5" y="243.5" width="0" height="16" fill="#544fc5" stroke="#e6e6e6"
    ></rect>
    <rect x="555.5" y="243.5" width="10" height="15" fill="#544fc5" stroke="#e6e6e6"
    ></rect>
    <rect x="572.5" y="262.5" width="1" height="9" fill="#544fc5" stroke="#e6e6e6"
    ></rect>
    <rect x="565.5" y="270.5" width="7" height="1" fill="#544fc5" stroke="#e6e6e6"
    ></rect>
    <rect x="565.5" y="262.5" width="7" height="8" fill="#544fc5" stroke="#e6e6e6"
    ></rect>
    <rect x="573.5" y="316.5" width="5" height="0" fill="#544fc5" stroke="#e6e6e6"
    ></rect>
    <rect x="578.5" y="311.5" width="0" height="5" fill="#544fc5" stroke="#e6e6e6"
    ></rect>
    <rect x="573.5" y="311.5" width="5" height="5" fill="#544fc5" stroke="#e6e6e6"
    ></rect>
    <rect x="540.5" y="272.5" width="2" height="12" fill="#544fc5" stroke="#e6e6e6"
    ></rect>
    <rect x="540.5" y="284.5" width="2" height="10" fill="#544fc5" stroke="#e6e6e6"
    ></rect>
    <rect x="518.5" y="272.5" width="22" height="22" fill="#544fc5" stroke="#e6e6e6"
    ></rect>
    <rect x="555.5" y="285.5" width="9" height="1" fill="#544fc5" stroke="#e6e6e6"
    ></rect>
    <rect x="564.5" y="273.5" width="1" height="13" fill="#544fc5" stroke="#e6e6e6"
    ></rect>
    <rect x="555.5" y="273.5" width="9" height="12" fill="#544fc5" stroke="#e6e6e6"
    ></rect>
    <rect x="564.5" y="307.5" width="1" height="9" fill="#544fc5" stroke="#e6e6e6"
    ></rect>
    <rect x="555.5" y="316.5" width="9" height="0" fill="#544fc5" stroke="#e6e6e6"
    ></rect>
    <rect x="555.5" y="307.5" width="9" height="9" fill="#544fc5" stroke="#e6e6e6"
    ></rect>
    <rect x="565.5" y="285.5" width="7" height="2" fill="#544fc5" stroke="#e6e6e6"
    ></rect>
    <rect x="572.5" y="279.5" width="1" height="8" fill="#544fc5" stroke="#e6e6e6"
    ></rect>
    <rect x="565.5" y="279.5" width="7" height="6" fill="#544fc5" stroke="#e6e6e6"
    ></rect>
    <rect x="578.5" y="280.5" width="1" height="1" fill="#544fc5" stroke="#e6e6e6"
    ></rect>
    <rect x="578.5" y="262.5" width="1" height="18" fill="#544fc5" stroke="#e6e6e6"
    ></rect>
    <rect x="541.5" y="246.5" width="1" height="26" fill="#544fc5" stroke="#e6e6e6"
    ></rect>
    <rect x="518.5" y="270.5" width="23" height="2" fill="#544fc5" stroke="#e6e6e6"
    ></rect>
    <rect x="518.5" y="246.5" width="23" height="24" fill="#544fc5" stroke="#e6e6e6"
    ></rect>
    <rect x="571.5" y="309.5" width="2" height="5" fill="#544fc5" stroke="#e6e6e6"
    ></rect>
    <rect x="571.5" y="314.5" width="2" height="2" fill="#544fc5" stroke="#e6e6e6"
    ></rect>
    <rect x="565.5" y="309.5" width="6" height="7" fill="#544fc5" stroke="#e6e6e6"
    ></rect>
    <rect x="514.5" y="308.5" width="4" height="8" fill="#544fc5" stroke="#e6e6e6"
    ></rect>
    <rect x="514.5" y="292.5" width="4" height="16" fill="#544fc5" stroke="#e6e6e6"
    ></rect>
    <rect x="480.5" y="292.5" width="34" height="24" fill="#544fc5" stroke="#e6e6e6"
    ></rect>
    <rect x="576.5" y="187.5" width="3" height="18" fill="#544fc5" stroke="#e6e6e6"
    ></rect>
    <rect x="576.5" y="205.5" width="3" height="9" fill="#544fc5" stroke="#e6e6e6"
    ></rect>
    <rect x="550.5" y="187.5" width="26" height="27" fill="#544fc5" stroke="#e6e6e6"
    ></rect>
    <rect x="564.5" y="229.5" width="14" height="2" fill="#544fc5" stroke="#e6e6e6"
    ></rect>
    <rect x="578.5" y="214.5" width="1" height="17" fill="#544fc5" stroke="#e6e6e6"
    ></rect>
    <rect x="564.5" y="214.5" width="14" height="15" fill="#544fc5" stroke="#e6e6e6"
    ></rect>
    <rect x="328.5" y="277.5" width="13" height="4" fill="#00e272" stroke="#e6e6e6"
    ></rect>
    <rect x="341.5" y="261.5" width="2" height="20" fill="#00e272" stroke="#e6e6e6"
    ></rect>
    <rect x="328.5" y="261.5" width="13" height="16" fill="#00e272" stroke="#e6e6e6"
    ></rect>
    <rect x="308.5" y="245.5" width="17" height="18" fill="#00e272" stroke="#e6e6e6"
    ></rect>
    <rect x="325.5" y="245.5" width="3" height="26" fill="#00e272" stroke="#e6e6e6"
    ></rect>
    <rect x="308.5" y="263.5" width="17" height="8" fill="#00e272" stroke="#e6e6e6"
    ></rect>
    <rect x="356.5" y="266.5" width="9" height="8" fill="#00e272" stroke="#e6e6e6"
    ></rect>
    <rect x="365.5" y="266.5" width="1" height="14" fill="#00e272" stroke="#e6e6e6"
    ></rect>
    <rect x="356.5" y="274.5" width="9" height="6" fill="#00e272" stroke="#e6e6e6"
    ></rect>
    <rect x="374.5" y="295.5" width="3" height="4" fill="#00e272" stroke="#e6e6e6"
    ></rect>
    <rect x="377.5" y="295.5" width="1" height="6" fill="#00e272" stroke="#e6e6e6"
    ></rect>
    <rect x="374.5" y="299.5" width="3" height="2" fill="#00e272" stroke="#e6e6e6"
    ></rect>
    <rect x="343.5" y="252.5" width="11" height="11" fill="#00e272" stroke="#e6e6e6"
    ></rect>
    <rect x="354.5" y="252.5" width="2" height="18" fill="#00e272" stroke="#e6e6e6"
    ></rect>
    <rect x="343.5" y="263.5" width="11" height="7" fill="#00e272" stroke="#e6e6e6"
    ></rect>
    <rect x="368.5" y="252.5" width="10" height="9" fill="#00e272" stroke="#e6e6e6"
    ></rect>
    <rect x="378.5" y="252.5" width="1" height="14" fill="#00e272" stroke="#e6e6e6"
    ></rect>
    <rect x="368.5" y="261.5" width="10" height="5" fill="#00e272" stroke="#e6e6e6"
    ></rect>
    <rect x="364.5" y="214.5" width="13" height="15" fill="#00e272" stroke="#e6e6e6"
    ></rect>
    <rect x="377.5" y="214.5" width="2" height="24" fill="#00e272" stroke="#e6e6e6"
    ></rect>
    <rect x="364.5" y="229.5" width="13" height="9" fill="#00e272" stroke="#e6e6e6"
    ></rect>
    <rect x="378.5" y="312.5" width="1" height="1" fill="#00e272" stroke="#e6e6e6"
    ></rect>
    <rect x="378.5" y="310.5" width="1" height="2" fill="#00e272" stroke="#e6e6e6"
    ></rect>
    <rect x="366.5" y="266.5" width="8" height="8" fill="#00e272" stroke="#e6e6e6"
    ></rect>
    <rect x="374.5" y="272.5" width="5" height="2" fill="#00e272" stroke="#e6e6e6"
    ></rect>
    <rect x="374.5" y="266.5" width="5" height="6" fill="#00e272" stroke="#e6e6e6"
    ></rect>
    <rect x="328.5" y="281.5" width="13" height="13" fill="#00e272" stroke="#e6e6e6"
    ></rect>
    <rect x="341.5" y="281.5" width="2" height="18" fill="#00e272" stroke="#e6e6e6"
    ></rect>
    <rect x="328.5" y="294.5" width="13" height="5" fill="#00e272" stroke="#e6e6e6"
    ></rect>
    <rect x="378.5" y="303.5" width="1" height="3" fill="#00e272" stroke="#e6e6e6"
    ></rect>
    <rect x="378.5" y="308.5" width="1" height="2" fill="#00e272" stroke="#e6e6e6"
    ></rect>
    <rect x="378.5" y="306.5" width="1" height="2" fill="#00e272" stroke="#e6e6e6"
    ></rect>
    <rect x="366.5" y="296.5" width="7" height="4" fill="#00e272" stroke="#e6e6e6"
    ></rect>
    <rect x="373.5" y="296.5" width="1" height="7" fill="#00e272" stroke="#e6e6e6"
    ></rect>
    <rect x="366.5" y="300.5" width="7" height="3" fill="#00e272" stroke="#e6e6e6"
    ></rect>
    <rect x="346.5" y="214.5" width="16" height="14" fill="#00e272" stroke="#e6e6e6"
    ></rect>
    <rect x="362.5" y="214.5" width="2" height="24" fill="#00e272" stroke="#e6e6e6"
    ></rect>
    <rect x="346.5" y="228.5" width="16" height="10" fill="#00e272" stroke="#e6e6e6"
    ></rect>
    <rect x="273.5" y="284.5" width="31" height="22" fill="#00e272" stroke="#e6e6e6"
    ></rect>
    <rect x="304.5" y="284.5" width="4" height="32" fill="#00e272" stroke="#e6e6e6"
    ></rect>
    <rect x="273.5" y="306.5" width="31" height="10" fill="#00e272" stroke="#e6e6e6"
    ></rect>
    <rect x="378.5" y="294.5" width="1" height="4" fill="#00e272" stroke="#e6e6e6"
    ></rect>
    <rect x="378.5" y="302.5" width="1" height="1" fill="#00e272" stroke="#e6e6e6"
    ></rect>
    <rect x="378.5" y="298.5" width="1" height="4" fill="#00e272" stroke="#e6e6e6"
    ></rect>
    <rect x="366.5" y="303.5" width="7" height="4" fill="#00e272" stroke="#e6e6e6"
    ></rect>
    <rect x="373.5" y="303.5" width="1" height="7" fill="#00e272" stroke="#e6e6e6"
    ></rect>
    <rect x="366.5" y="307.5" width="7" height="3" fill="#00e272" stroke="#e6e6e6"
    ></rect>
    <rect x="308.5" y="187.5" width="20" height="27" fill="#00e272" stroke="#e6e6e6"
    ></rect>
    <rect x="328.5" y="208.5" width="20" height="6" fill="#00e272" stroke="#e6e6e6"
    ></rect>
    <rect x="328.5" y="187.5" width="20" height="21" fill="#00e272" stroke="#e6e6e6"
    ></rect>
    <rect x="374.5" y="307.5" width="3" height="3" fill="#00e272" stroke="#e6e6e6"
    ></rect>
    <rect x="377.5" y="307.5" width="1" height="5" fill="#00e272" stroke="#e6e6e6"
    ></rect>
    <rect x="374.5" y="310.5" width="3" height="2" fill="#00e272" stroke="#e6e6e6"
    ></rect>
    <rect x="374.5" y="301.5" width="3" height="4" fill="#00e272" stroke="#e6e6e6"
    ></rect>
    <rect x="377.5" y="301.5" width="1" height="6" fill="#00e272" stroke="#e6e6e6"
    ></rect>
    <rect x="374.5" y="305.5" width="3" height="2" fill="#00e272" stroke="#e6e6e6"
    ></rect>
    <rect x="328.5" y="238.5" width="13" height="12" fill="#00e272" stroke="#e6e6e6"
    ></rect>
    <rect x="341.5" y="238.5" width="2" height="23" fill="#00e272" stroke="#e6e6e6"
    ></rect>
    <rect x="328.5" y="250.5" width="13" height="11" fill="#00e272" stroke="#e6e6e6"
    ></rect>
    <rect x="343.5" y="302.5" width="11" height="10" fill="#00e272" stroke="#e6e6e6"
    ></rect>
    <rect x="354.5" y="302.5" width="2" height="14" fill="#00e272" stroke="#e6e6e6"
    ></rect>
    <rect x="343.5" y="312.5" width="11" height="4" fill="#00e272" stroke="#e6e6e6"
    ></rect>
    <rect x="374.5" y="282.5" width="3" height="5" fill="#00e272" stroke="#e6e6e6"
    ></rect>
    <rect x="377.5" y="282.5" width="1" height="7" fill="#00e272" stroke="#e6e6e6"
    ></rect>
    <rect x="374.5" y="287.5" width="3" height="2" fill="#00e272" stroke="#e6e6e6"
    ></rect>
    <rect x="308.5" y="271.5" width="17" height="15" fill="#00e272" stroke="#e6e6e6"
    ></rect>
    <rect x="325.5" y="271.5" width="3" height="24" fill="#00e272" stroke="#e6e6e6"
    ></rect>
    <rect x="308.5" y="286.5" width="17" height="9" fill="#00e272" stroke="#e6e6e6"
    ></rect>
    <rect x="374.5" y="274.5" width="5" height="6" fill="#00e272" stroke="#e6e6e6"
    ></rect>
    <rect x="379.5" y="274.5" width="0" height="8" fill="#00e272" stroke="#e6e6e6"
    ></rect>
    <rect x="374.5" y="280.5" width="5" height="2" fill="#00e272" stroke="#e6e6e6"
    ></rect>
    <rect x="366.5" y="288.5" width="7" height="5" fill="#00e272" stroke="#e6e6e6"
    ></rect>
    <rect x="373.5" y="288.5" width="1" height="8" fill="#00e272" stroke="#e6e6e6"
    ></rect>
    <rect x="366.5" y="293.5" width="7" height="3" fill="#00e272" stroke="#e6e6e6"
    ></rect>
    <rect x="362.5" y="238.5" width="8" height="14" fill="#00e272" stroke="#e6e6e6"
    ></rect>
    <rect x="370.5" y="249.5" width="9" height="3" fill="#00e272" stroke="#e6e6e6"
    ></rect>
    <rect x="370.5" y="238.5" width="9" height="11" fill="#00e272" stroke="#e6e6e6"
    ></rect>
    <rect x="343.5" y="270.5" width="12" height="11" fill="#00e272" stroke="#e6e6e6"
    ></rect>
    <rect x="355.5" y="270.5" width="1" height="17" fill="#00e272" stroke="#e6e6e6"
    ></rect>
    <rect x="343.5" y="281.5" width="12" height="6" fill="#00e272" stroke="#e6e6e6"
    ></rect>
    <rect x="328.5" y="299.5" width="13" height="11" fill="#00e272" stroke="#e6e6e6"
    ></rect>
    <rect x="341.5" y="299.5" width="2" height="17" fill="#00e272" stroke="#e6e6e6"
    ></rect>
    <rect x="328.5" y="310.5" width="13" height="6" fill="#00e272" stroke="#e6e6e6"
    ></rect>
    <rect x="366.5" y="310.5" width="7" height="4" fill="#00e272" stroke="#e6e6e6"
    ></rect>
    <rect x="373.5" y="310.5" width="1" height="6" fill="#00e272" stroke="#e6e6e6"
    ></rect>
    <rect x="366.5" y="314.5" width="7" height="2" fill="#00e272" stroke="#e6e6e6"
    ></rect>
    <rect x="378.5" y="292.5" width="1" height="2" fill="#00e272" stroke="#e6e6e6"
    ></rect>
    <rect x="379.5" y="282.5" width="0" height="12" fill="#00e272" stroke="#e6e6e6"
    ></rect>
    <rect x="378.5" y="282.5" width="1" height="10" fill="#00e272" stroke="#e6e6e6"
    ></rect>
    <rect x="328.5" y="214.5" width="16" height="15" fill="#00e272" stroke="#e6e6e6"
    ></rect>
    <rect x="344.5" y="214.5" width="2" height="24" fill="#00e272" stroke="#e6e6e6"
    ></rect>
    <rect x="328.5" y="229.5" width="16" height="9" fill="#00e272" stroke="#e6e6e6"
    ></rect>
    <rect x="374.5" y="289.5" width="3" height="3" fill="#00e272" stroke="#e6e6e6"
    ></rect>
    <rect x="377.5" y="289.5" width="1" height="6" fill="#00e272" stroke="#e6e6e6"
    ></rect>
    <rect x="374.5" y="292.5" width="3" height="3" fill="#00e272" stroke="#e6e6e6"
    ></rect>
    <rect x="343.5" y="238.5" width="12" height="14" fill="#00e272" stroke="#e6e6e6"
    ></rect>
    <rect x="355.5" y="248.5" width="7" height="4" fill="#00e272" stroke="#e6e6e6"
    ></rect>
    <rect x="355.5" y="238.5" width="7" height="10" fill="#00e272" stroke="#e6e6e6"
    ></rect>
    <rect x="273.5" y="187.5" width="32" height="70" fill="#00e272" stroke="#e6e6e6"
    ></rect>
    <rect x="305.5" y="187.5" width="3" height="97" fill="#00e272" stroke="#e6e6e6"
    ></rect>
    <rect x="273.5" y="257.5" width="32" height="27" fill="#00e272" stroke="#e6e6e6"
    ></rect>
    <rect x="356.5" y="312.5" width="9" height="4" fill="#00e272" stroke="#e6e6e6"
    ></rect>
    <rect x="365.5" y="306.5" width="1" height="10" fill="#00e272" stroke="#e6e6e6"
    ></rect>
    <rect x="356.5" y="306.5" width="9" height="6" fill="#00e272" stroke="#e6e6e6"
    ></rect>
    <rect x="378.5" y="313.5" width="1" height="1" fill="#00e272" stroke="#e6e6e6"
    ></rect>
    <rect x="378.5" y="314.5" width="1" height="1" fill="#00e272" stroke="#e6e6e6"
    ></rect>
    <rect x="356.5" y="280.5" width="9" height="7" fill="#00e272" stroke="#e6e6e6"
    ></rect>
    <rect x="365.5" y="280.5" width="1" height="13" fill="#00e272" stroke="#e6e6e6"
    ></rect>
    <rect x="356.5" y="287.5" width="9" height="6" fill="#00e272" stroke="#e6e6e6"
    ></rect>
    <rect x="378.5" y="315.5" width="1" height="1" fill="#00e272" stroke="#e6e6e6"
    ></rect>
    <rect x="356.5" y="293.5" width="9" height="9" fill="#00e272" stroke="#e6e6e6"
    ></rect>
    <rect x="365.5" y="293.5" width="1" height="13" fill="#00e272" stroke="#e6e6e6"
    ></rect>
    <rect x="356.5" y="302.5" width="9" height="4" fill="#00e272" stroke="#e6e6e6"
    ></rect>
    <rect x="363.5" y="187.5" width="16" height="23" fill="#00e272" stroke="#e6e6e6"
    ></rect>
    <rect x="363.5" y="210.5" width="16" height="4" fill="#00e272" stroke="#e6e6e6"
    ></rect>
    <rect x="348.5" y="187.5" width="15" height="27" fill="#00e272" stroke="#e6e6e6"
    ></rect>
    <rect x="374.5" y="312.5" width="3" height="2" fill="#00e272" stroke="#e6e6e6"
    ></rect>
    <rect x="377.5" y="312.5" width="1" height="4" fill="#00e272" stroke="#e6e6e6"
    ></rect>
    <rect x="374.5" y="314.5" width="3" height="2" fill="#00e272" stroke="#e6e6e6"
    ></rect>
    <rect x="366.5" y="274.5" width="7" height="8" fill="#00e272" stroke="#e6e6e6"
    ></rect>
    <rect x="373.5" y="274.5" width="1" height="14" fill="#00e272" stroke="#e6e6e6"
    ></rect>
    <rect x="366.5" y="282.5" width="7" height="6" fill="#00e272" stroke="#e6e6e6"
    ></rect>
    <rect x="308.5" y="295.5" width="17" height="13" fill="#00e272" stroke="#e6e6e6"
    ></rect>
    <rect x="325.5" y="295.5" width="3" height="21" fill="#00e272" stroke="#e6e6e6"
    ></rect>
    <rect x="308.5" y="308.5" width="17" height="8" fill="#00e272" stroke="#e6e6e6"
    ></rect>
    <rect x="308.5" y="214.5" width="17" height="19" fill="#00e272" stroke="#e6e6e6"
    ></rect>
    <rect x="325.5" y="214.5" width="3" height="31" fill="#00e272" stroke="#e6e6e6"
    ></rect>
    <rect x="308.5" y="233.5" width="17" height="12" fill="#00e272" stroke="#e6e6e6"
    ></rect>
    <rect x="343.5" y="287.5" width="11" height="10" fill="#00e272" stroke="#e6e6e6"
    ></rect>
    <rect x="354.5" y="287.5" width="2" height="15" fill="#00e272" stroke="#e6e6e6"
    ></rect>
    <rect x="343.5" y="297.5" width="11" height="5" fill="#00e272" stroke="#e6e6e6"
    ></rect>
    <rect x="356.5" y="252.5" width="12" height="9" fill="#00e272" stroke="#e6e6e6"
    ></rect>
    <rect x="356.5" y="261.5" width="12" height="5" fill="#00e272" stroke="#e6e6e6"
    ></rect>
    <rect x="557.5" y="26.5" width="21" height="4" fill="#fe6a35" stroke="#e6e6e6"
    ></rect>
    <rect x="578.5" y="-0.5" width="1" height="31" fill="#fe6a35" stroke="#e6e6e6"
    ></rect>
    <rect x="557.5" y="-0.5" width="21" height="27" fill="#fe6a35" stroke="#e6e6e6"
    ></rect>
    <rect x="578.5" y="176.5" width="1" height="4" fill="#fe6a35" stroke="#e6e6e6"
    ></rect>
    <rect x="578.5" y="170.5" width="1" height="6" fill="#fe6a35" stroke="#e6e6e6"
    ></rect>
    <rect x="578.5" y="180.5" width="1" height="2" fill="#fe6a35" stroke="#e6e6e6"
    ></rect>
    <rect x="571.5" y="112.5" width="6" height="5" fill="#fe6a35" stroke="#e6e6e6"
    ></rect>
    <rect x="577.5" y="98.5" width="1" height="19" fill="#fe6a35" stroke="#e6e6e6"
    ></rect>
    <rect x="571.5" y="98.5" width="6" height="14" fill="#fe6a35" stroke="#e6e6e6"
    ></rect>
    <rect x="506.5" y="153.5" width="44" height="9" fill="#fe6a35" stroke="#e6e6e6"
    ></rect>
    <rect x="550.5" y="109.5" width="7" height="53" fill="#fe6a35" stroke="#e6e6e6"
    ></rect>
    <rect x="506.5" y="109.5" width="44" height="44" fill="#fe6a35" stroke="#e6e6e6"
    ></rect>
    <rect x="570.5" y="30.5" width="1" height="38" fill="#fe6a35" stroke="#e6e6e6"
    ></rect>
    <rect x="557.5" y="65.5" width="13" height="3" fill="#fe6a35" stroke="#e6e6e6"
    ></rect>
    <rect x="557.5" y="30.5" width="13" height="35" fill="#fe6a35" stroke="#e6e6e6"
    ></rect>
    <rect x="557.5" y="172.5" width="13" height="1" fill="#fe6a35" stroke="#e6e6e6"
    ></rect>
    <rect x="570.5" y="157.5" width="1" height="16" fill="#fe6a35" stroke="#e6e6e6"
    ></rect>
    <rect x="557.5" y="157.5" width="13" height="15" fill="#fe6a35" stroke="#e6e6e6"
    ></rect>
    <rect x="569.5" y="68.5" width="2" height="37" fill="#fe6a35" stroke="#e6e6e6"
    ></rect>
    <rect x="557.5" y="98.5" width="12" height="7" fill="#fe6a35" stroke="#e6e6e6"
    ></rect>
    <rect x="557.5" y="68.5" width="12" height="30" fill="#fe6a35" stroke="#e6e6e6"
    ></rect>
    <rect x="577.5" y="181.5" width="1" height="3" fill="#fe6a35" stroke="#e6e6e6"
    ></rect>
    <rect x="577.5" y="184.5" width="1" height="3" fill="#fe6a35" stroke="#e6e6e6"
    ></rect>
    <rect x="571.5" y="181.5" width="6" height="6" fill="#fe6a35" stroke="#e6e6e6"
    ></rect>
    <rect x="557.5" y="186.5" width="13" height="1" fill="#fe6a35" stroke="#e6e6e6"
    ></rect>
    <rect x="570.5" y="173.5" width="1" height="14" fill="#fe6a35" stroke="#e6e6e6"
    ></rect>
    <rect x="557.5" y="173.5" width="13" height="13" fill="#fe6a35" stroke="#e6e6e6"
    ></rect>
    <rect x="571.5" y="131.5" width="6" height="3" fill="#fe6a35" stroke="#e6e6e6"
    ></rect>
    <rect x="577.5" y="117.5" width="1" height="17" fill="#fe6a35" stroke="#e6e6e6"
    ></rect>
    <rect x="571.5" y="117.5" width="6" height="14" fill="#fe6a35" stroke="#e6e6e6"
    ></rect>
    <rect x="571.5" y="94.5" width="6" height="4" fill="#fe6a35" stroke="#e6e6e6"
    ></rect>
    <rect x="577.5" y="75.5" width="1" height="23" fill="#fe6a35" stroke="#e6e6e6"
    ></rect>
    <rect x="571.5" y="75.5" width="6" height="19" fill="#fe6a35" stroke="#e6e6e6"
    ></rect>
    <rect x="577.5" y="134.5" width="1" height="11" fill="#fe6a35" stroke="#e6e6e6"
    ></rect>
    <rect x="571.5" y="143.5" width="6" height="2" fill="#fe6a35" stroke="#e6e6e6"
    ></rect>
    <rect x="571.5" y="134.5" width="6" height="9" fill="#fe6a35" stroke="#e6e6e6"
    ></rect>
    <rect x="578.5" y="182.5" width="1" height="2" fill="#fe6a35" stroke="#e6e6e6"
    ></rect>
    <rect x="571.5" y="68.5" width="6" height="7" fill="#fe6a35" stroke="#e6e6e6"
    ></rect>
    <rect x="577.5" y="52.5" width="1" height="23" fill="#fe6a35" stroke="#e6e6e6"
    ></rect>
    <rect x="571.5" y="52.5" width="6" height="16" fill="#fe6a35" stroke="#e6e6e6"
    ></rect>
    <rect x="578.5" y="159.5" width="1" height="2" fill="#fe6a35" stroke="#e6e6e6"
    ></rect>
    <rect x="578.5" y="161.5" width="1" height="2" fill="#fe6a35" stroke="#e6e6e6"
    ></rect>
    <rect x="578.5" y="151.5" width="1" height="8" fill="#fe6a35" stroke="#e6e6e6"
    ></rect>
    <rect x="571.5" y="44.5" width="7" height="8" fill="#fe6a35" stroke="#e6e6e6"
    ></rect>
    <rect x="578.5" y="30.5" width="1" height="22" fill="#fe6a35" stroke="#e6e6e6"
    ></rect>
    <rect x="571.5" y="30.5" width="7" height="14" fill="#fe6a35" stroke="#e6e6e6"
    ></rect>
    <rect x="577.5" y="145.5" width="1" height="10" fill="#fe6a35" stroke="#e6e6e6"
    ></rect>
    <rect x="571.5" y="152.5" width="6" height="3" fill="#fe6a35" stroke="#e6e6e6"
    ></rect>
    <rect x="571.5" y="145.5" width="6" height="7" fill="#fe6a35" stroke="#e6e6e6"
    ></rect>
    <rect x="578.5" y="119.5" width="1" height="3" fill="#fe6a35" stroke="#e6e6e6"
    ></rect>
    <rect x="578.5" y="122.5" width="1" height="4" fill="#fe6a35" stroke="#e6e6e6"
    ></rect>
    <rect x="578.5" y="90.5" width="1" height="29" fill="#fe6a35" stroke="#e6e6e6"
    ></rect>
    <rect x="546.5" y="175.5" width="11" height="12" fill="#fe6a35" stroke="#e6e6e6"
    ></rect>
    <rect x="546.5" y="162.5" width="11" height="13" fill="#fe6a35" stroke="#e6e6e6"
    ></rect>
    <rect x="506.5" y="162.5" width="40" height="25" fill="#fe6a35" stroke="#e6e6e6"
    ></rect>
    <rect x="571.5" y="180.5" width="7" height="1" fill="#fe6a35" stroke="#e6e6e6"
    ></rect>
    <rect x="578.5" y="173.5" width="0" height="8" fill="#fe6a35" stroke="#e6e6e6"
    ></rect>
    <rect x="571.5" y="173.5" width="7" height="7" fill="#fe6a35" stroke="#e6e6e6"
    ></rect>
    <rect x="578.5" y="80.5" width="1" height="6" fill="#fe6a35" stroke="#e6e6e6"
    ></rect>
    <rect x="578.5" y="86.5" width="1" height="4" fill="#fe6a35" stroke="#e6e6e6"
    ></rect>
    <rect x="578.5" y="52.5" width="1" height="28" fill="#fe6a35" stroke="#e6e6e6"
    ></rect>
    <rect x="571.5" y="163.5" width="7" height="1" fill="#fe6a35" stroke="#e6e6e6"
    ></rect>
    <rect x="578.5" y="155.5" width="0" height="9" fill="#fe6a35" stroke="#e6e6e6"
    ></rect>
    <rect x="571.5" y="155.5" width="7" height="8" fill="#fe6a35" stroke="#e6e6e6"
    ></rect>
    <rect x="557.5" y="151.5" width="12" height="6" fill="#fe6a35" stroke="#e6e6e6"
    ></rect>
    <rect x="569.5" y="132.5" width="2" height="25" fill="#fe6a35" stroke="#e6e6e6"
    ></rect>
    <rect x="557.5" y="132.5" width="12" height="19" fill="#fe6a35" stroke="#e6e6e6"
    ></rect>
    <rect x="578.5" y="184.5" width="1" height="2" fill="#fe6a35" stroke="#e6e6e6"
    ></rect>
    <rect x="578.5" y="186.5" width="1" height="1" fill="#fe6a35" stroke="#e6e6e6"
    ></rect>
    <rect x="578.5" y="168.5" width="1" height="2" fill="#fe6a35" stroke="#e6e6e6"
    ></rect>
    <rect x="578.5" y="163.5" width="1" height="5" fill="#fe6a35" stroke="#e6e6e6"
    ></rect>
    <rect x="578.5" y="147.5" width="1" height="2" fill="#fe6a35" stroke="#e6e6e6"
    ></rect>
    <rect x="578.5" y="149.5" width="1" height="2" fill="#fe6a35" stroke="#e6e6e6"
    ></rect>
    <rect x="578.5" y="126.5" width="1" height="21" fill="#fe6a35" stroke="#e6e6e6"
    ></rect>
    <rect x="554.5" y="-0.5" width="3" height="110" fill="#fe6a35" stroke="#e6e6e6"
    ></rect>
    <rect x="506.5" y="102.5" width="48" height="7" fill="#fe6a35" stroke="#e6e6e6"
    ></rect>
    <rect x="506.5" y="-0.5" width="48" height="103" fill="#fe6a35" stroke="#e6e6e6"
    ></rect>
    <rect x="571.5" y="173.5" width="7" height="0" fill="#fe6a35" stroke="#e6e6e6"
    ></rect>
    <rect x="578.5" y="164.5" width="0" height="9" fill="#fe6a35" stroke="#e6e6e6"
    ></rect>
    <rect x="571.5" y="164.5" width="7" height="9" fill="#fe6a35" stroke="#e6e6e6"
    ></rect>
    <rect x="569.5" y="105.5" width="2" height="27" fill="#fe6a35" stroke="#e6e6e6"
    ></rect>
    <rect x="557.5" y="126.5" width="12" height="6" fill="#fe6a35" stroke="#e6e6e6"
    ></rect>
    <rect x="557.5" y="105.5" width="12" height="21" fill="#fe6a35" stroke="#e6e6e6"
    ></rect>
    <rect x="506.5" y="72.5" width="0" height="30" fill="#6b8abc" stroke="#e6e6e6"
    ></rect>
    <rect x="489.5" y="100.5" width="17" height="2" fill="#6b8abc" stroke="#e6e6e6"
    ></rect>
    <rect x="489.5" y="72.5" width="17" height="28" fill="#6b8abc" stroke="#e6e6e6"
    ></rect>
    <rect x="506.5" y="130.5" width="0" height="10" fill="#6b8abc" stroke="#e6e6e6"
    ></rect>
    <rect x="489.5" y="154.5" width="12" height="8" fill="#6b8abc" stroke="#e6e6e6"
    ></rect>
    <rect x="501.5" y="139.5" width="2" height="23" fill="#6b8abc" stroke="#e6e6e6"
    ></rect>
    <rect x="489.5" y="139.5" width="12" height="15" fill="#6b8abc" stroke="#e6e6e6"
    ></rect>
    <rect x="440.5" y="-0.5" width="7" height="188" fill="#6b8abc" stroke="#e6e6e6"
    ></rect>
    <rect x="273.5" y="174.5" width="167" height="13" fill="#6b8abc" stroke="#e6e6e6"
    ></rect>
    <rect x="273.5" y="-0.5" width="167" height="175" fill="#6b8abc" stroke="#e6e6e6"
    ></rect>
    <rect x="503.5" y="183.5" width="3" height="1" fill="#6b8abc" stroke="#e6e6e6"
    ></rect>
    <rect x="503.5" y="178.5" width="3" height="5" fill="#6b8abc" stroke="#e6e6e6"
    ></rect>
    <rect x="447.5" y="62.5" width="56" height="10" fill="#6b8abc" stroke="#e6e6e6"
    ></rect>
    <rect x="503.5" y="-0.5" width="3" height="73" fill="#6b8abc" stroke="#e6e6e6"
    ></rect>
    <rect x="447.5" y="-0.5" width="56" height="63" fill="#6b8abc" stroke="#e6e6e6"
    ></rect>
    <rect x="506.5" y="140.5" width="0" height="9" fill="#6b8abc" stroke="#e6e6e6"
    ></rect>
    <rect x="497.5" y="176.5" width="6" height="9" fill="#6b8abc" stroke="#e6e6e6"
    ></rect>
    <rect x="497.5" y="185.5" width="6" height="2" fill="#6b8abc" stroke="#e6e6e6"
    ></rect>
    <rect x="489.5" y="176.5" width="8" height="11" fill="#6b8abc" stroke="#e6e6e6"
    ></rect>
    <rect x="489.5" y="131.5" width="13" height="8" fill="#6b8abc" stroke="#e6e6e6"
    ></rect>
    <rect x="502.5" y="102.5" width="1" height="37" fill="#6b8abc" stroke="#e6e6e6"
    ></rect>
    <rect x="489.5" y="102.5" width="13" height="29" fill="#6b8abc" stroke="#e6e6e6"
    ></rect>
    <rect x="506.5" y="149.5" width="0" height="10" fill="#6b8abc" stroke="#e6e6e6"
    ></rect>
    <rect x="503.5" y="176.5" width="3" height="2" fill="#6b8abc" stroke="#e6e6e6"
    ></rect>
    <rect x="506.5" y="158.5" width="0" height="20" fill="#6b8abc" stroke="#e6e6e6"
    ></rect>
    <rect x="503.5" y="158.5" width="3" height="18" fill="#6b8abc" stroke="#e6e6e6"
    ></rect>
    <rect x="506.5" y="102.5" width="0" height="28" fill="#6b8abc" stroke="#e6e6e6"
    ></rect>
    <rect x="503.5" y="128.5" width="3" height="2" fill="#6b8abc" stroke="#e6e6e6"
    ></rect>
    <rect x="503.5" y="102.5" width="3" height="26" fill="#6b8abc" stroke="#e6e6e6"
    ></rect>
    <rect x="489.5" y="170.5" width="13" height="6" fill="#6b8abc" stroke="#e6e6e6"
    ></rect>
    <rect x="502.5" y="162.5" width="1" height="14" fill="#6b8abc" stroke="#e6e6e6"
    ></rect>
    <rect x="489.5" y="162.5" width="13" height="8" fill="#6b8abc" stroke="#e6e6e6"
    ></rect>
    <rect x="447.5" y="110.5" width="40" height="14" fill="#6b8abc" stroke="#e6e6e6"
    ></rect>
    <rect x="487.5" y="72.5" width="2" height="52" fill="#6b8abc" stroke="#e6e6e6"
    ></rect>
    <rect x="447.5" y="72.5" width="40" height="38" fill="#6b8abc" stroke="#e6e6e6"
    ></rect>
    <rect x="480.5" y="178.5" width="9" height="9" fill="#6b8abc" stroke="#e6e6e6"
    ></rect>
    <rect x="480.5" y="166.5" width="9" height="12" fill="#6b8abc" stroke="#e6e6e6"
    ></rect>
    <rect x="447.5" y="166.5" width="33" height="21" fill="#6b8abc" stroke="#e6e6e6"
    ></rect>
    <rect x="506.5" y="159.5" width="0" height="9" fill="#6b8abc" stroke="#e6e6e6"
    ></rect>
    <rect x="503.5" y="151.5" width="3" height="6" fill="#6b8abc" stroke="#e6e6e6"
    ></rect>
    <rect x="503.5" y="157.5" width="3" height="1" fill="#6b8abc" stroke="#e6e6e6"
    ></rect>
    <rect x="503.5" y="130.5" width="3" height="21" fill="#6b8abc" stroke="#e6e6e6"
    ></rect>
    <rect x="505.5" y="184.5" width="1" height="3" fill="#6b8abc" stroke="#e6e6e6"
    ></rect>
    <rect x="503.5" y="184.5" width="2" height="3" fill="#6b8abc" stroke="#e6e6e6"
    ></rect>
    <rect x="506.5" y="168.5" width="0" height="10" fill="#6b8abc" stroke="#e6e6e6"
    ></rect>
    <rect x="506.5" y="178.5" width="0" height="9" fill="#6b8abc" stroke="#e6e6e6"
    ></rect>
    <rect x="447.5" y="160.5" width="38" height="6" fill="#6b8abc" stroke="#e6e6e6"
    ></rect>
    <rect x="485.5" y="124.5" width="4" height="42" fill="#6b8abc" stroke="#e6e6e6"
    ></rect>
    <rect x="447.5" y="124.5" width="38" height="36" fill="#6b8abc" stroke="#e6e6e6"
    ></rect>
    <rect x="225.5" y="81.5" width="45" height="31" fill="#d568fb" stroke="#e6e6e6"
    ></rect>
    <rect x="270.5" y="-0.5" width="3" height="113" fill="#d568fb" stroke="#e6e6e6"
    ></rect>
    <rect x="225.5" y="-0.5" width="45" height="82" fill="#d568fb" stroke="#e6e6e6"
    ></rect>
    <rect x="273.5" y="270.5" width="0" height="15" fill="#d568fb" stroke="#e6e6e6"
    ></rect>
    <rect x="273.5" y="285.5" width="0" height="16" fill="#d568fb" stroke="#e6e6e6"
    ></rect>
    <rect x="273.5" y="223.5" width="0" height="47" fill="#d568fb" stroke="#e6e6e6"
    ></rect>
    <rect x="225.5" y="311.5" width="35" height="5" fill="#d568fb" stroke="#e6e6e6"
    ></rect>
    <rect x="260.5" y="277.5" width="3" height="39" fill="#d568fb" stroke="#e6e6e6"
    ></rect>
    <rect x="225.5" y="277.5" width="35" height="34" fill="#d568fb" stroke="#e6e6e6"
    ></rect>
    <rect x="-0.5" y="181.5" width="201" height="84" fill="#d568fb" stroke="#e6e6e6"
    ></rect>
    <rect x="200.5" y="-0.5" width="25" height="266" fill="#d568fb" stroke="#e6e6e6"
    ></rect>
    <rect x="-0.5" y="-0.5" width="201" height="182" fill="#d568fb" stroke="#e6e6e6"
    ></rect>
    <rect x="164.5" y="265.5" width="48" height="51" fill="#d568fb" stroke="#e6e6e6"
    ></rect>
    <rect x="212.5" y="265.5" width="13" height="51" fill="#d568fb" stroke="#e6e6e6"
    ></rect>
    <rect x="-0.5" y="265.5" width="165" height="51" fill="#d568fb" stroke="#e6e6e6"
    ></rect>
    <rect x="273.5" y="301.5" width="0" height="15" fill="#d568fb" stroke="#e6e6e6"
    ></rect>
    <rect x="225.5" y="259.5" width="35" height="18" fill="#d568fb" stroke="#e6e6e6"
    ></rect>
    <rect x="260.5" y="205.5" width="3" height="72" fill="#d568fb" stroke="#e6e6e6"
    ></rect>
    <rect x="225.5" y="205.5" width="35" height="54" fill="#d568fb" stroke="#e6e6e6"
    ></rect>
    <rect x="263.5" y="184.5" width="10" height="27" fill="#d568fb" stroke="#e6e6e6"
    ></rect>
    <rect x="263.5" y="211.5" width="10" height="12" fill="#d568fb" stroke="#e6e6e6"
    ></rect>
    <rect x="263.5" y="112.5" width="10" height="72" fill="#d568fb" stroke="#e6e6e6"
    ></rect>
    <rect x="263.5" y="304.5" width="10" height="7" fill="#d568fb" stroke="#e6e6e6"
    ></rect>
    <rect x="263.5" y="293.5" width="10" height="11" fill="#d568fb" stroke="#e6e6e6"
    ></rect>
    <rect x="263.5" y="223.5" width="10" height="70" fill="#d568fb" stroke="#e6e6e6"
    ></rect>
    <rect x="225.5" y="186.5" width="34" height="19" fill="#d568fb" stroke="#e6e6e6"
    ></rect>
    <rect x="259.5" y="112.5" width="4" height="93" fill="#d568fb" stroke="#e6e6e6"
    ></rect>
    <rect x="225.5" y="112.5" width="34" height="74" fill="#d568fb" stroke="#e6e6e6"
    ></rect>
    <rect x="263.5" y="311.5" width="4" height="5" fill="#d568fb" stroke="#e6e6e6"
    ></rect>
    <rect x="272.5" y="311.5" width="1" height="5" fill="#d568fb" stroke="#e6e6e6"
    ></rect>
    <rect x="267.5" y="311.5" width="5" height="5" fill="#d568fb" stroke="#e6e6e6"
    ></rect>
</svg>