<svg width="900" height="340" viewBox="0,0,1400,750" id="svg" xmlns="http://www.w3.org/2000/svg">

    <g transform="translate(90,50)">
        <g transform="translate(0,0)">
            <g transform="translate(0,0)">
                <rect x="0" y="0" width="49" height="60.8" fill="rgb(105, 72, 183)" stroke-width="0"
                    stroke="rgb(105, 72, 183)"></rect>
                <rect x="49" y="0" width="445" height="60.8" fill="rgb(33, 176, 213)"
                    stroke-width="0" stroke="rgb(33, 176, 213)"></rect>
                <rect x="494" y="0" width="148" height="60.8" fill="rgb(25, 210, 182)"
                    stroke-width="0" stroke="rgb(25, 210, 182)"></rect>
                <rect x="642" y="0" width="544" height="60.8" fill="rgba(175, 240, 91, 1)"
                    stroke-width="0" stroke="rgb(175, 240, 91)"></rect>
            </g>
            <g transform="translate(0,24.32)">
                <rect x="0" y="0" width="850" height="12.16" fill="rgb(186, 18, 134)"
                    stroke-width="0" stroke="rgb(186, 18, 134)"></rect>
            </g>
        </g>
        <g transform="translate(0,134.8)">
            <g transform="translate(0,0)">
                <rect x="0" y="0" width="110" height="60.8" fill="rgb(98, 83, 198)" stroke-width="0"
                    stroke="rgb(98, 83, 198)"></rect>
                <rect x="110" y="0" width="15" height="60.8" fill="rgb(95, 86, 201)"
                    stroke-width="0" stroke="rgb(95, 86, 201)"></rect>
                <rect x="125" y="0" width="329" height="60.8" fill="rgb(38, 166, 219)"
                    stroke-width="0" stroke="rgb(38, 166, 219)"></rect>
                <rect x="454" y="0" width="732" height="60.8" fill="rgb(175, 240, 91)"
                    stroke-width="0" stroke="rgb(175, 240, 91)"></rect>
            </g>
            <g transform="translate(0,24.32)">
                <rect x="0" y="0" width="9" height="12.16" fill="rgb(255, 246, 242)"
                    stroke-width="0" stroke="rgb(255, 246, 242)"></rect>
                <rect x="9" y="0" width="1115" height="12.16" fill="rgb(94, 0, 111)"
                    stroke-width="0" stroke="rgb(94, 0, 111)"></rect>
            </g>
        </g>
        <g transform="translate(0,269.6)">
            <g transform="translate(0,0)">
                <rect x="0" y="0" width="40" height="60.8" fill="rgb(106, 70, 181)" stroke-width="0"
                    stroke="rgb(106, 70, 181)"></rect>
                <rect x="40" y="0" width="296" height="60.8" fill="rgb(58, 135, 225)"
                    stroke-width="0" stroke="rgb(58, 135, 225)"></rect>
                <rect x="336" y="0" width="20" height="60.8" fill="rgb(54, 140, 225)"
                    stroke-width="0" stroke="rgb(54, 140, 225)"></rect>
                <rect x="356" y="0" width="98" height="60.8" fill="rgb(38, 166, 219)"
                    stroke-width="0" stroke="rgb(38, 166, 219)"></rect>
                <rect x="454" y="0" width="40" height="60.8" fill="rgb(33, 176, 213)"
                    stroke-width="0" stroke="rgb(33, 176, 213)"></rect>
                <rect x="494" y="0" width="296" height="60.8" fill="rgb(40, 234, 141)"
                    stroke-width="0" stroke="rgb(40, 234, 141)"></rect>
                <rect x="790" y="0" width="396" height="60.8" fill="rgb(175, 240, 91)"
                    stroke-width="0" stroke="rgb(175, 240, 91)"></rect>
            </g>
            <g transform="translate(0,24.32)">
                <rect x="0" y="0" width="138" height="12.16" fill="rgb(253, 225, 222)"
                    stroke-width="0" stroke="rgb(253, 225, 222)"></rect>
            </g>
        </g>
        <g transform="translate(0,404.4)">
            <g transform="translate(0,0)">
                <rect x="0" y="0" width="109" height="60.8" fill="rgb(98, 83, 198)" stroke-width="0"
                    stroke="rgb(98, 83, 198)"></rect>
                <rect x="109" y="0" width="476" height="60.8" fill="rgb(26, 198, 196)"
                    stroke-width="0" stroke="rgb(26, 198, 196)"></rect>
                <rect x="585" y="0" width="323" height="60.8" fill="rgb(69, 244, 111)"
                    stroke-width="0" stroke="rgb(69, 244, 111)"></rect>
                <rect x="908" y="0" width="278" height="60.8" fill="rgb(175, 240, 91)"
                    stroke-width="0" stroke="rgb(175, 240, 91)"></rect>
            </g>
            <g transform="translate(0,24.32)">
                <rect x="0" y="0" width="414" height="12.16" fill="rgb(250, 165, 183)"
                    stroke-width="0" stroke="rgb(250, 165, 183)"></rect>
                <rect x="414" y="0" width="156" height="12.16" fill="rgb(245, 113, 165)"
                    stroke-width="0" stroke="rgb(245, 113, 165)"></rect>
            </g>
        </g>
        <g transform="translate(0,539.2)">
            <g transform="translate(0,0)">
                <rect x="0" y="0" width="970" height="60.8" fill="rgb(90, 246, 99)" stroke-width="0"
                    stroke="rgb(90, 246, 99)"></rect>
                <rect x="970" y="0" width="216" height="60.8" fill="rgb(175, 240, 91)"
                    stroke-width="0" stroke="rgb(175, 240, 91)"></rect>
            </g>
            <g transform="translate(0,24.32)">
                <rect x="0" y="0" width="216" height="12.16" fill="rgb(253, 211, 208)"
                    stroke-width="0" stroke="rgb(253, 211, 208)"></rect>
            </g>
            <line transform="rotate(0, 1151, 30.4)" x1="1151" x2="1151" y1="12.16" y2="48.64"
                fill="none" stroke="rgb(84, 0, 109)" stroke-width="5"></line>
            <line transform="rotate(0, 716, 30.4)" x1="716" x2="716" y1="12.16" y2="48.64"
                fill="none" stroke="rgb(223, 61, 151)" stroke-width="5"></line>
        </g>
    </g>
</svg>