<?xml version='1.0' encoding='UTF-8'?>
<svg width="900" height="340" viewBox="0,20,1100,300" id="svg" xmlns="http://www.w3.org/2000/svg">
  <rect x="150" y="40" width="800" height="40" fill="#c7e9c0"/>
  <rect x="150" y="40" width="600" height="40" fill="#fdae6b"/>
  <rect x="150" y="40" width="400" height="40" fill="#fb6a4a"/>
  <rect x="150" y="140" width="800" height="40" fill="#c7e9c0"/>
  <rect x="150" y="140" width="600" height="40" fill="#fdae6b"/>
  <rect x="150" y="140" width="400" height="40" fill="#fb6a4a"/>
  <rect x="150" y="240" width="800" height="40" fill="#c7e9c0"/>
  <rect x="150" y="240" width="600" height="40" fill="#fdae6b"/>
  <rect x="150" y="240" width="400" height="40" fill="#fb6a4a"/>
  <rect x="150" y="50" width="400" height="20" fill="red"/>
  <rect x="150" y="150" width="600" height="20" fill="red"/>
  <rect x="150" y="250" width="500" height="20" fill="red"/>
  <line x1="500" y1="30" x2="500" y2="90" stroke="#800000" stroke-width="2"/>
  <line x1="800" y1="130" x2="800" y2="190" stroke="#800000" stroke-width="2"/>
  <line x1="700" y1="230" x2="700" y2="290" stroke="#800000" stroke-width="2"/>
</svg>
