<svg width="900" height="340" viewBox="100,0,1000,600" id="svg" xmlns="http://www.w3.org/2000/svg">

    <g transform="translate(602.8203125,310)">
        <path
            d="M0,-116.994A2,2,0,0,1,2.034,-118.994A119.011,119.011,0,1,1,-118.994,2.034A2,2,0,0,1,-116.994,0L-83.93,0A2,2,0,0,1,-81.931,1.952A81.954,81.954,0,1,0,1.952,-81.931A2,2,0,0,1,0,-83.93Z"
            opacity="1" fill="rgba(0, 0, 0, .15)" stroke="none"></path>
        <path
            d="M0,-174.011A2,2,0,0,1,2.023,-176.011A176.023,176.023,0,1,1,-176.011,2.023A2,2,0,0,1,-174.011,0L-140.951,0A2,2,0,0,1,-138.952,1.972A138.966,138.966,0,1,0,1.972,-138.952A2,2,0,0,1,0,-140.951Z"
            opacity="1" fill="rgba(0, 0, 0, .15)" stroke="none"></path>
        <path
            d="M0,-231.026A2,2,0,0,1,2.017,-233.026A233.034,233.034,0,1,1,-233.026,2.017A2,2,0,0,1,-231.026,0L-197.967,0A2,2,0,0,1,-195.967,1.98A195.977,195.977,0,1,0,1.98,-195.967A2,2,0,0,1,0,-197.967Z"
            opacity="1" fill="rgba(0, 0, 0, .15)" stroke="none"></path>
        <path
            d="M0,-288.039A2,2,0,0,1,2.014,-290.039A290.046,290.046,0,1,1,-290.039,2.014A2,2,0,0,1,-288.039,0L-254.981,0A2,2,0,0,1,-252.981,1.984A252.989,252.989,0,1,0,1.984,-252.981A2,2,0,0,1,0,-254.981Z"
            opacity="1" fill="rgba(0, 0, 0, .15)" stroke="none"></path>
    </g>
    <g transform="translate(602.8203125,310)">
        <path
            d="M0,-116.994A2,2,0,0,1,2.034,-118.994A119.011,119.011,0,0,1,116.783,-22.921A2,2,0,0,1,115.172,-20.567L82.623,-14.755A2,2,0,0,1,80.312,-16.325A81.954,81.954,0,0,0,1.952,-81.931A2,2,0,0,1,0,-83.93Z"
            opacity="1" fill="#e8c1a0"></path>
        <path
            d="M115.172,-20.567A2,2,0,0,1,117.499,-18.916A119.011,119.011,0,0,1,87.978,80.147A2,2,0,0,1,85.128,80.255L61.07,57.574A2,2,0,0,1,60.954,54.782A81.954,81.954,0,0,0,80.998,-12.481A2,2,0,0,1,82.623,-14.755Z"
            opacity="1" fill="#f47560"></path>
        <path
            d="M85.128,80.255A2,2,0,0,1,85.187,83.107A119.011,119.011,0,0,1,-54.299,105.902A2,2,0,0,1,-55.151,103.18L-39.564,74.02A2,2,0,0,1,-36.9,73.177A81.954,81.954,0,0,0,58.275,57.623A2,2,0,0,1,61.07,57.574Z"
            opacity="1" fill="#f1e15b"></path>
        <path
            d="M0,-174.011A2,2,0,0,1,2.023,-176.011A176.023,176.023,0,0,1,171.488,-39.697A2,2,0,0,1,169.968,-37.292L137.676,-30.207A2,2,0,0,1,135.301,-31.704A138.966,138.966,0,0,0,1.972,-138.952A2,2,0,0,1,0,-140.951Z"
            opacity="1" fill="#e8c1a0"></path>
        <path
            d="M169.968,-37.292A2,2,0,0,1,172.355,-35.745A176.023,176.023,0,0,1,110.556,136.972A2,2,0,0,1,107.729,136.654L87.262,110.691A2,2,0,0,1,87.572,107.9A138.966,138.966,0,0,0,136.146,-27.853A2,2,0,0,1,137.676,-30.207Z"
            opacity="1" fill="#f47560"></path>
        <path
            d="M107.729,136.654A2,2,0,0,1,107.379,139.477A176.023,176.023,0,0,1,-63.88,164.022A2,2,0,0,1,-65.01,161.412L-52.659,130.745A2,2,0,0,1,-50.083,129.627A138.966,138.966,0,0,0,84.476,110.342A2,2,0,0,1,87.262,110.691Z"
            opacity="1" fill="#f1e15b"></path>
        <path
            d="M0,-231.026A2,2,0,0,1,2.017,-233.026A233.034,233.034,0,0,1,178.852,-149.389A2,2,0,0,1,178.585,-146.561L153.03,-125.589A2,2,0,0,1,150.229,-125.851A195.977,195.977,0,0,0,1.98,-195.967A2,2,0,0,1,0,-197.967Z"
            opacity="1" fill="#e8c1a0"></path>
        <path
            d="M178.585,-146.561A2,2,0,0,1,181.411,-146.271A233.034,233.034,0,0,1,228.044,47.969A2,2,0,0,1,225.658,49.511L193.367,42.426A2,2,0,0,1,191.838,40.064A195.977,195.977,0,0,0,152.741,-122.79A2,2,0,0,1,153.03,-125.589Z"
            opacity="1" fill="#f47560"></path>
        <path
            d="M225.658,49.511A2,2,0,0,1,227.179,51.91A233.034,233.034,0,0,1,-217.925,82.547A2,2,0,0,1,-216.746,79.962L-185.731,68.52A2,2,0,0,1,-183.169,69.685A195.977,195.977,0,0,0,190.99,43.931A2,2,0,0,1,193.367,42.426Z"
            opacity="1" fill="#f1e15b"></path>
        <path
            d="M0,-288.039A2,2,0,0,1,2.014,-290.039A290.046,290.046,0,0,1,287.028,-41.734A2,2,0,0,1,285.323,-39.465L252.576,-34.935A2,2,0,0,1,250.323,-36.627A252.989,252.989,0,0,0,1.984,-252.981A2,2,0,0,1,0,-254.981Z"
            opacity="1" fill="#e8c1a0"></path>
        <path
            d="M285.323,-39.465A2,2,0,0,1,287.58,-37.744A290.046,290.046,0,0,1,-40.565,287.195A2,2,0,0,1,-42.264,284.921L-37.413,252.221A2,2,0,0,1,-35.157,250.534A252.989,252.989,0,0,0,250.867,-32.696A2,2,0,0,1,252.576,-34.935Z"
            opacity="1" fill="#f47560"></path>
        <path
            d="M-42.264,284.921A2,2,0,0,1,-44.55,286.604A290.046,290.046,0,0,1,-290.039,2.014A2,2,0,0,1,-288.039,0L-254.981,0A2,2,0,0,1,-252.981,1.984A252.989,252.989,0,0,0,-39.083,249.951A2,2,0,0,1,-37.413,252.221Z"
            opacity="1" fill="#f1e15b"></path>
    </g>
</svg>