<svg width="900" height="340" viewBox="0,0,1300,600" id="svg" xmlns="http://www.w3.org/2000/svg">
    <g transform="translate(672.8203125,340)">
        <path
            d="M0,-196.299A196.299,196.299,0,0,1,120.026,-155.329L84.871,-109.834A138.804,138.804,0,0,0,0,-138.804Z"
            opacity="1" fill="#e8c1a0" stroke="#ffffff" stroke-width="1"></path>
        <path
            d="M120.026,-155.329A196.299,196.299,0,0,1,165.803,-105.085L117.24,-74.306A138.804,138.804,0,0,0,84.871,-109.834Z"
            opacity="1" fill="#f47560" stroke="#ffffff" stroke-width="1"></path>
        <path
            d="M165.803,-105.085A196.299,196.299,0,0,1,196.216,5.7L138.746,4.031A138.804,138.804,0,0,0,117.24,-74.306Z"
            opacity="1" fill="#f1e15b" stroke="#ffffff" stroke-width="1"></path>
        <path
            d="M196.216,5.7A196.299,196.299,0,0,1,180.046,78.211L127.311,55.303A138.804,138.804,0,0,0,138.746,4.031Z"
            opacity="1" fill="#e8a838" stroke="#ffffff" stroke-width="1"></path>
        <path
            d="M180.046,78.211A196.299,196.299,0,0,1,-23.032,194.943L-16.286,137.846A138.804,138.804,0,0,0,127.311,55.303Z"
            opacity="1" fill="#61cdbb" stroke="#ffffff" stroke-width="1"></path>
        <path
            d="M-23.032,194.943A196.299,196.299,0,0,1,-150.998,125.431L-106.772,88.693A138.804,138.804,0,0,0,-16.286,137.846Z"
            opacity="1" fill="#97e3d5" stroke="#ffffff" stroke-width="1"></path>
        <path
            d="M-150.998,125.431A196.299,196.299,0,0,1,0,-196.299L0,-138.804A138.804,138.804,0,0,0,-106.772,88.693Z"
            opacity="1" fill="#e8c1a0" stroke="#ffffff" stroke-width="1"></path>
        <path
            d="M0,-240.416A240.416,240.416,0,0,1,57.901,-233.34L47.276,-190.521A196.299,196.299,0,0,0,0,-196.299Z"
            opacity="1" fill="rgb(240, 200, 166)" stroke="#ffffff" stroke-width="1"></path>
        <path
            d="M57.901,-233.34A240.416,240.416,0,0,1,147.001,-190.239L120.026,-155.329A196.299,196.299,0,0,0,47.276,-190.521Z"
            opacity="1" fill="rgb(240, 200, 166)" stroke="#ffffff" stroke-width="1"></path>
        <path
            d="M147.001,-190.239A240.416,240.416,0,0,1,176.886,-162.823L144.427,-132.945A196.299,196.299,0,0,0,120.026,-155.329Z"
            opacity="1" fill="rgb(253, 121, 99)" stroke="#ffffff" stroke-width="1"></path>
        <path
            d="M176.886,-162.823A240.416,240.416,0,0,1,203.066,-128.702L165.803,-105.085A196.299,196.299,0,0,0,144.427,-132.945Z"
            opacity="1" fill="rgb(253, 121, 99)" stroke="#ffffff" stroke-width="1"></path>
        <path
            d="M203.066,-128.702A240.416,240.416,0,0,1,225.239,-84.067L183.907,-68.64A196.299,196.299,0,0,0,165.803,-105.085Z"
            opacity="1" fill="rgb(250, 233, 94)" stroke="#ffffff" stroke-width="1"></path>
        <path
            d="M225.239,-84.067A240.416,240.416,0,0,1,228.056,-76.095L186.207,-62.131A196.299,196.299,0,0,0,183.907,-68.64Z"
            opacity="1" fill="rgb(250, 233, 94)" stroke="#ffffff" stroke-width="1"></path>
        <path
            d="M228.056,-76.095A240.416,240.416,0,0,1,229.051,-73.047L187.019,-59.643A196.299,196.299,0,0,0,186.207,-62.131Z"
            opacity="1" fill="rgb(250, 233, 94)" stroke="#ffffff" stroke-width="1"></path>
        <path
            d="M229.051,-73.047A240.416,240.416,0,0,1,238.397,-31.097L194.65,-25.39A196.299,196.299,0,0,0,187.019,-59.643Z"
            opacity="1" fill="rgb(250, 233, 94)" stroke="#ffffff" stroke-width="1"></path>
        <path
            d="M238.397,-31.097A240.416,240.416,0,0,1,239.706,-18.463L195.719,-15.075A196.299,196.299,0,0,0,194.65,-25.39Z"
            opacity="1" fill="rgb(250, 233, 94)" stroke="#ffffff" stroke-width="1"></path>
        <path
            d="M239.706,-18.463A240.416,240.416,0,0,1,240.321,6.78L196.221,5.536A196.299,196.299,0,0,0,195.719,-15.075Z"
            opacity="1" fill="rgb(250, 233, 94)" stroke="#ffffff" stroke-width="1"></path>
        <path
            d="M240.321,6.78A240.416,240.416,0,0,1,240.315,6.981L196.216,5.7A196.299,196.299,0,0,0,196.221,5.536Z"
            opacity="1" fill="rgb(250, 233, 94)" stroke="#ffffff" stroke-width="1"></path>
        <path
            d="M240.315,6.981A240.416,240.416,0,0,1,236.667,42.292L193.238,34.531A196.299,196.299,0,0,0,196.216,5.7Z"
            opacity="1" fill="rgb(240, 174, 58)" stroke="#ffffff" stroke-width="1"></path>
        <path
            d="M236.667,42.292A240.416,240.416,0,0,1,234.136,54.591L191.172,44.573A196.299,196.299,0,0,0,193.238,34.531Z"
            opacity="1" fill="rgb(240, 174, 58)" stroke="#ffffff" stroke-width="1"></path>
        <path
            d="M234.136,54.591A240.416,240.416,0,0,1,233.641,56.673L190.767,46.274A196.299,196.299,0,0,0,191.172,44.573Z"
            opacity="1" fill="rgb(240, 174, 58)" stroke="#ffffff" stroke-width="1"></path>
        <path
            d="M233.641,56.673A240.416,240.416,0,0,1,228.181,75.718L186.309,61.824A196.299,196.299,0,0,0,190.767,46.274Z"
            opacity="1" fill="rgb(240, 174, 58)" stroke="#ffffff" stroke-width="1"></path>
        <path
            d="M228.181,75.718A240.416,240.416,0,0,1,220.51,95.788L180.046,78.211A196.299,196.299,0,0,0,186.309,61.824Z"
            opacity="1" fill="rgb(240, 174, 58)" stroke="#ffffff" stroke-width="1"></path>
        <path
            d="M220.51,95.788A240.416,240.416,0,0,1,207.598,121.257L169.503,99.006A196.299,196.299,0,0,0,180.046,78.211Z"
            opacity="1" fill="rgb(101, 212, 194)" stroke="#ffffff" stroke-width="1"></path>
        <path
            d="M207.598,121.257A240.416,240.416,0,0,1,186.511,151.703L152.286,123.865A196.299,196.299,0,0,0,169.503,99.006Z"
            opacity="1" fill="rgb(101, 212, 194)" stroke="#ffffff" stroke-width="1"></path>
        <path
            d="M186.511,151.703A240.416,240.416,0,0,1,180.536,158.766L147.407,129.632A196.299,196.299,0,0,0,152.286,123.865Z"
            opacity="1" fill="rgb(101, 212, 194)" stroke="#ffffff" stroke-width="1"></path>
        <path
            d="M180.536,158.766A240.416,240.416,0,0,1,150.43,187.539L122.826,153.125A196.299,196.299,0,0,0,147.407,129.632Z"
            opacity="1" fill="rgb(101, 212, 194)" stroke="#ffffff" stroke-width="1"></path>
        <path
            d="M150.43,187.539A240.416,240.416,0,0,1,137.927,196.917L112.617,160.782A196.299,196.299,0,0,0,122.826,153.125Z"
            opacity="1" fill="rgb(101, 212, 194)" stroke="#ffffff" stroke-width="1"></path>
        <path
            d="M137.927,196.917A240.416,240.416,0,0,1,115.627,210.785L94.409,172.105A196.299,196.299,0,0,0,112.617,160.782Z"
            opacity="1" fill="rgb(101, 212, 194)" stroke="#ffffff" stroke-width="1"></path>
        <path
            d="M115.627,210.785A240.416,240.416,0,0,1,106.086,215.745L86.619,176.155A196.299,196.299,0,0,0,94.409,172.105Z"
            opacity="1" fill="rgb(101, 212, 194)" stroke="#ffffff" stroke-width="1"></path>
        <path
            d="M106.086,215.745A240.416,240.416,0,0,1,89.273,223.227L72.891,182.264A196.299,196.299,0,0,0,86.619,176.155Z"
            opacity="1" fill="rgb(101, 212, 194)" stroke="#ffffff" stroke-width="1"></path>
        <path
            d="M89.273,223.227A240.416,240.416,0,0,1,74.219,228.673L60.599,186.711A196.299,196.299,0,0,0,72.891,182.264Z"
            opacity="1" fill="rgb(101, 212, 194)" stroke="#ffffff" stroke-width="1"></path>
        <path
            d="M74.219,228.673A240.416,240.416,0,0,1,44.561,236.251L36.384,192.898A196.299,196.299,0,0,0,60.599,186.711Z"
            opacity="1" fill="rgb(101, 212, 194)" stroke="#ffffff" stroke-width="1"></path>
        <path
            d="M44.561,236.251A240.416,240.416,0,0,1,-1.734,240.41L-1.416,196.294A196.299,196.299,0,0,0,36.384,192.898Z"
            opacity="1" fill="rgb(101, 212, 194)" stroke="#ffffff" stroke-width="1"></path>
        <path
            d="M-1.734,240.41A240.416,240.416,0,0,1,-5.058,240.363L-4.13,196.256A196.299,196.299,0,0,0,-1.416,196.294Z"
            opacity="1" fill="rgb(101, 212, 194)" stroke="#ffffff" stroke-width="1"></path>
        <path
            d="M-5.058,240.363A240.416,240.416,0,0,1,-28.208,238.756L-23.032,194.943A196.299,196.299,0,0,0,-4.13,196.256Z"
            opacity="1" fill="rgb(101, 212, 194)" stroke="#ffffff" stroke-width="1"></path>
        <path
            d="M-28.208,238.756A240.416,240.416,0,0,1,-54.054,234.261L-44.135,191.273A196.299,196.299,0,0,0,-23.032,194.943Z"
            opacity="1" fill="rgb(156, 235, 221)" stroke="#ffffff" stroke-width="1"></path>
        <path
            d="M-54.054,234.261A240.416,240.416,0,0,1,-76.592,227.89L-62.537,186.071A196.299,196.299,0,0,0,-44.135,191.273Z"
            opacity="1" fill="rgb(156, 235, 221)" stroke="#ffffff" stroke-width="1"></path>
        <path
            d="M-76.592,227.89A240.416,240.416,0,0,1,-91.444,222.347L-74.664,181.545A196.299,196.299,0,0,0,-62.537,186.071Z"
            opacity="1" fill="rgb(156, 235, 221)" stroke="#ffffff" stroke-width="1"></path>
        <path
            d="M-91.444,222.347A240.416,240.416,0,0,1,-91.709,222.237L-74.88,181.456A196.299,196.299,0,0,0,-74.664,181.545Z"
            opacity="1" fill="rgb(156, 235, 221)" stroke="#ffffff" stroke-width="1"></path>
        <path
            d="M-91.709,222.237A240.416,240.416,0,0,1,-95.765,220.52L-78.192,180.054A196.299,196.299,0,0,0,-74.88,181.456Z"
            opacity="1" fill="rgb(156, 235, 221)" stroke="#ffffff" stroke-width="1"></path>
        <path
            d="M-95.765,220.52A240.416,240.416,0,0,1,-122.04,207.138L-99.645,169.128A196.299,196.299,0,0,0,-78.192,180.054Z"
            opacity="1" fill="rgb(156, 235, 221)" stroke="#ffffff" stroke-width="1"></path>
        <path
            d="M-122.04,207.138A240.416,240.416,0,0,1,-150.172,187.745L-122.615,153.293A196.299,196.299,0,0,0,-99.645,169.128Z"
            opacity="1" fill="rgb(156, 235, 221)" stroke="#ffffff" stroke-width="1"></path>
        <path
            d="M-150.172,187.745A240.416,240.416,0,0,1,-171.672,168.312L-140.169,137.426A196.299,196.299,0,0,0,-122.615,153.293Z"
            opacity="1" fill="rgb(156, 235, 221)" stroke="#ffffff" stroke-width="1"></path>
        <path
            d="M-171.672,168.312A240.416,240.416,0,0,1,-184.934,153.621L-150.998,125.431A196.299,196.299,0,0,0,-140.169,137.426Z"
            opacity="1" fill="rgb(156, 235, 221)" stroke="#ffffff" stroke-width="1"></path>
        <path
            d="M-184.934,153.621A240.416,240.416,0,0,1,-230.018,69.94L-187.809,57.106A196.299,196.299,0,0,0,-150.998,125.431Z"
            opacity="1" fill="rgb(240, 200, 166)" stroke="#ffffff" stroke-width="1"></path>
        <path
            d="M-230.018,69.94A240.416,240.416,0,0,1,-237.125,39.644L-193.612,32.369A196.299,196.299,0,0,0,-187.809,57.106Z"
            opacity="1" fill="rgb(240, 200, 166)" stroke="#ffffff" stroke-width="1"></path>
        <path
            d="M-237.125,39.644A240.416,240.416,0,0,1,0,-240.416L0,-196.299A196.299,196.299,0,0,0,-193.612,32.369Z"
            opacity="1" fill="rgb(240, 200, 166)" stroke="#ffffff" stroke-width="1"></path>
        <path
            d="M0,-277.609A277.609,277.609,0,0,1,20.919,-276.82L18.117,-239.733A240.416,240.416,0,0,0,0,-240.416Z"
            opacity="1" fill="rgb(249, 207, 172)" stroke="#ffffff" stroke-width="1"></path>
        <path
            d="M20.919,-276.82A277.609,277.609,0,0,1,30.984,-275.874L26.833,-238.914A240.416,240.416,0,0,0,18.117,-239.733Z"
            opacity="1" fill="rgb(249, 207, 172)" stroke="#ffffff" stroke-width="1"></path>
        <path
            d="M30.984,-275.874A277.609,277.609,0,0,1,54.854,-272.136L47.505,-235.676A240.416,240.416,0,0,0,26.833,-238.914Z"
            opacity="1" fill="rgb(249, 207, 172)" stroke="#ffffff" stroke-width="1"></path>
        <path
            d="M54.854,-272.136A277.609,277.609,0,0,1,66.859,-269.438L57.901,-233.34A240.416,240.416,0,0,0,47.505,-235.676Z"
            opacity="1" fill="rgb(249, 207, 172)" stroke="#ffffff" stroke-width="1"></path>
        <path
            d="M66.859,-269.438A277.609,277.609,0,0,1,139.574,-239.97L120.875,-207.82A240.416,240.416,0,0,0,57.901,-233.34Z"
            opacity="1" fill="rgb(249, 207, 172)" stroke="#ffffff" stroke-width="1"></path>
        <path
            d="M139.574,-239.97A277.609,277.609,0,0,1,169.742,-219.669L147.001,-190.239A240.416,240.416,0,0,0,120.875,-207.82Z"
            opacity="1" fill="rgb(249, 207, 172)" stroke="#ffffff" stroke-width="1"></path>
        <path
            d="M-213.543,177.387A277.609,277.609,0,0,1,-218.572,171.151L-189.289,148.221A240.416,240.416,0,0,0,-184.934,153.621Z"
            opacity="1" fill="rgb(249, 207, 172)" stroke="#ffffff" stroke-width="1"></path>
        <path
            d="M-218.572,171.151A277.609,277.609,0,0,1,-238.051,142.822L-206.159,123.688A240.416,240.416,0,0,0,-189.289,148.221Z"
            opacity="1" fill="rgb(249, 207, 172)" stroke="#ffffff" stroke-width="1"></path>
        <path
            d="M-238.051,142.822A277.609,277.609,0,0,1,-244.635,131.227L-211.86,113.646A240.416,240.416,0,0,0,-206.159,123.688Z"
            opacity="1" fill="rgb(249, 207, 172)" stroke="#ffffff" stroke-width="1"></path>
        <path
            d="M-244.635,131.227A277.609,277.609,0,0,1,-265.602,80.76L-230.018,69.94A240.416,240.416,0,0,0,-211.86,113.646Z"
            opacity="1" fill="rgb(249, 207, 172)" stroke="#ffffff" stroke-width="1"></path>
        <path
            d="M-273.809,45.777A277.609,277.609,0,0,1,-277.576,-4.302L-240.387,-3.725A240.416,240.416,0,0,0,-237.125,39.644Z"
            opacity="1" fill="rgb(249, 207, 172)" stroke="#ffffff" stroke-width="1"></path>
        <path
            d="M-277.576,-4.302A277.609,277.609,0,0,1,-234.578,-148.458L-203.151,-128.568A240.416,240.416,0,0,0,-240.387,-3.725Z"
            opacity="1" fill="rgb(249, 207, 172)" stroke="#ffffff" stroke-width="1"></path>
        <path
            d="M-234.578,-148.458A277.609,277.609,0,0,1,0,-277.609L0,-240.416A240.416,240.416,0,0,0,-203.151,-128.568Z"
            opacity="1" fill="rgb(249, 207, 172)" stroke="#ffffff" stroke-width="1"></path>
        <path
            d="M74.75,-301.24A310.376,310.376,0,0,1,99.059,-294.144L88.601,-263.09A277.609,277.609,0,0,0,66.859,-269.438Z"
            opacity="1" fill="rgb(255, 215, 178)" stroke="#ffffff" stroke-width="1"></path>
        <path
            d="M99.059,-294.144A310.376,310.376,0,0,1,153.612,-269.697L137.395,-241.225A277.609,277.609,0,0,0,88.601,-263.09Z"
            opacity="1" fill="rgb(255, 215, 178)" stroke="#ffffff" stroke-width="1"></path>
        <path
            d="M153.612,-269.697A310.376,310.376,0,0,1,156.049,-268.295L139.574,-239.97A277.609,277.609,0,0,0,137.395,-241.225Z"
            opacity="1" fill="rgb(255, 215, 178)" stroke="#ffffff" stroke-width="1"></path>
        <path
            d="M-310.339,-4.809A310.376,310.376,0,0,1,-307.637,-41.143L-275.159,-36.8A277.609,277.609,0,0,0,-277.576,-4.302Z"
            opacity="1" fill="rgb(255, 215, 178)" stroke="#ffffff" stroke-width="1"></path>
        <path
            d="M-307.637,-41.143A310.376,310.376,0,0,1,-301.199,-74.916L-269.401,-67.007A277.609,277.609,0,0,0,-275.159,-36.8Z"
            opacity="1" fill="rgb(255, 215, 178)" stroke="#ffffff" stroke-width="1"></path>
        <path
            d="M-301.199,-74.916A310.376,310.376,0,0,1,-286.868,-118.49L-256.583,-105.98A277.609,277.609,0,0,0,-269.401,-67.007Z"
            opacity="1" fill="rgb(255, 215, 178)" stroke="#ffffff" stroke-width="1"></path>
        <path
            d="M-286.868,-118.49A310.376,310.376,0,0,1,-262.266,-165.981L-234.578,-148.458A277.609,277.609,0,0,0,-256.583,-105.98Z"
            opacity="1" fill="rgb(255, 215, 178)" stroke="#ffffff" stroke-width="1"></path>
        <path
            d="M-262.266,-165.981A310.376,310.376,0,0,1,-253.918,-178.49L-227.112,-159.646A277.609,277.609,0,0,0,-234.578,-148.458Z"
            opacity="1" fill="rgb(255, 215, 178)" stroke="#ffffff" stroke-width="1"></path>
        <path
            d="M-253.918,-178.49A310.376,310.376,0,0,1,-239.877,-196.958L-214.552,-176.165A277.609,277.609,0,0,0,-227.112,-159.646Z"
            opacity="1" fill="rgb(255, 215, 178)" stroke="#ffffff" stroke-width="1"></path>
        <path
            d="M-239.877,-196.958A310.376,310.376,0,0,1,-212.52,-226.205L-190.084,-202.324A277.609,277.609,0,0,0,-214.552,-176.165Z"
            opacity="1" fill="rgb(255, 215, 178)" stroke="#ffffff" stroke-width="1"></path>
        <path
            d="M-212.52,-226.205A310.376,310.376,0,0,1,-162.527,-264.421L-145.368,-236.505A277.609,277.609,0,0,0,-190.084,-202.324Z"
            opacity="1" fill="rgb(255, 215, 178)" stroke="#ffffff" stroke-width="1"></path>
        <path
            d="M-162.527,-264.421A310.376,310.376,0,0,1,-116.82,-287.553L-104.487,-257.195A277.609,277.609,0,0,0,-145.368,-236.505Z"
            opacity="1" fill="rgb(255, 215, 178)" stroke="#ffffff" stroke-width="1"></path>
        <path
            d="M-116.82,-287.553A310.376,310.376,0,0,1,-94.66,-295.589L-84.667,-264.383A277.609,277.609,0,0,0,-104.487,-257.195Z"
            opacity="1" fill="rgb(255, 215, 178)" stroke="#ffffff" stroke-width="1"></path>
        <path
            d="M-94.66,-295.589A310.376,310.376,0,0,1,-64.693,-303.559L-57.863,-271.512A277.609,277.609,0,0,0,-84.667,-264.383Z"
            opacity="1" fill="rgb(255, 215, 178)" stroke="#ffffff" stroke-width="1"></path>
        <path
            d="M-64.693,-303.559A310.376,310.376,0,0,1,-33.211,-308.594L-29.704,-276.015A277.609,277.609,0,0,0,-57.863,-271.512Z"
            opacity="1" fill="rgb(255, 215, 178)" stroke="#ffffff" stroke-width="1"></path>
        <path
            d="M-33.211,-308.594A310.376,310.376,0,0,1,0,-310.376L0,-277.609A277.609,277.609,0,0,0,-29.704,-276.015Z"
            opacity="1" fill="rgb(255, 215, 178)" stroke="#ffffff" stroke-width="1"></path>
        <path
            d="M81.885,-329.992A340,340,0,0,1,100.179,-324.906L91.451,-296.598A310.376,310.376,0,0,0,74.75,-301.24Z"
            opacity="1" fill="rgb(255, 223, 184)" stroke="#ffffff" stroke-width="1"></path>
        <path
            d="M100.179,-324.906A340,340,0,0,1,108.333,-322.279L98.894,-294.199A310.376,310.376,0,0,0,91.451,-296.598Z"
            opacity="1" fill="rgb(255, 223, 184)" stroke="#ffffff" stroke-width="1"></path>
        <path
            d="M108.333,-322.279A340,340,0,0,1,108.514,-322.219L99.059,-294.144A310.376,310.376,0,0,0,98.894,-294.199Z"
            opacity="1" fill="rgb(255, 223, 184)" stroke="#ffffff" stroke-width="1"></path>
    </g>
</svg>