<svg width="900" height="340" viewBox="50,0,800,400" id="svg" xmlns="http://www.w3.org/2000/svg">

    <rect x="184" y="369" width="13" height="35" 
        fill="#3366cc"></rect>
    <rect x="299" y="375" width="14" height="29" 
        fill="#3366cc"></rect>
    <rect x="415" y="370" width="13" height="34" 
        fill="#3366cc"></rect>
    <rect x="530" y="374" width="14" height="30" 
        fill="#3366cc"></rect>
    <rect x="646" y="375" width="13" height="29" 
        fill="#3366cc"></rect>
    <rect x="198" y="199" width="14" height="205" 
        fill="#dc3912"></rect>
    <rect x="314" y="159" width="13" height="245" 
        fill="#dc3912"></rect>
    <rect x="429" y="148" width="14" height="256" 
        fill="#dc3912"></rect>
    <rect x="545" y="161" width="13" height="243" 
        fill="#dc3912"></rect>
    <rect x="660" y="253" width="14" height="151" 
        fill="#dc3912"></rect>
    <rect x="213" y="290" width="13" height="114" 
        fill="#ff9900"></rect>
    <rect x="328" y="273" width="14" height="131" 
        fill="#ff9900"></rect>
    <rect x="444" y="276" width="13" height="128" 
        fill="#ff9900"></rect>
    <rect x="559" y="270" width="14" height="134" 
        fill="#ff9900"></rect>
    <rect x="675" y="267" width="13" height="137" 
        fill="#ff9900"></rect>
    <rect x="227" y="185" width="14" height="219" 
        fill="#109618"></rect>
    <rect x="343" y="126" width="13" height="278" 
        fill="#109618"></rect>
    <rect x="458" y="227" width="14" height="177" 
        fill="#109618"></rect>
    <rect x="574" y="192" width="13" height="212" 
        fill="#109618"></rect>
    <rect x="689" y="179" width="14" height="225" 
        fill="#109618"></rect>
    <rect x="242" y="306" width="13" height="98" 
        fill="#990099"></rect>
    <rect x="357" y="342" width="14" height="62" 
        fill="#990099"></rect>
    <rect x="473" y="318" width="13" height="86" 
        fill="#990099"></rect>
    <rect x="588" y="358" width="14" height="46" 
        fill="#990099"></rect>
    <rect x="704" y="324" width="13" height="80" 
        fill="#990099"></rect>

</svg>