<svg width="900" height="340" viewBox="0,0,850,300" id="svg" xmlns="http://www.w3.org/2000/svg">
    <g
        class="highcharts-series highcharts-series-0 highcharts-column-series highcharts-color-0 highcharts-tracker"
        data-z-index="0.1" opacity="1" transform="translate(73,51) scale(1 1)"
        clip-path="url(#highcharts-nun5adp-13-)" aria-hidden="false" role="region" tabindex="-1"
        aria-label="Boys, bar series 1 of 2 with 6 bars." style="outline: none;">
        <path fill="#2caffe"
            d="M 35.5 75.5 L 58.5 75.5 A 3 3 0 0 1 61.5 78.5 L 61.5 260.5 A 0 0 0 0 1 61.5 260.5 L 32.5 260.5 A 0 0 0 0 1 32.5 260.5 L 32.5 78.5 A 3 3 0 0 1 35.5 75.5 Z"
            stroke="#ffffff" stroke-width="1" opacity="1" filter="none"
            class="highcharts-point highcharts-color-0" tabindex="-1" role="img"
            aria-label="x, 2018, 28,430. Boys." style="outline: none;"></path>
        <path fill="#2caffe"
            d="M 153.5 77.5 L 176.5 77.5 A 3 3 0 0 1 179.5 80.5 L 179.5 260.5 A 0 0 0 0 1 179.5 260.5 L 150.5 260.5 A 0 0 0 0 1 150.5 260.5 L 150.5 80.5 A 3 3 0 0 1 153.5 77.5 Z"
            stroke="#ffffff" stroke-width="1" opacity="1" filter="none"
            class="highcharts-point highcharts-color-0" tabindex="-1" role="img"
            aria-label="x, 2019, 28,042. Boys." style="outline: none;"></path>
        <path fill="#2caffe"
            d="M 270.5 84.5 L 293.5 84.5 A 3 3 0 0 1 296.5 87.5 L 296.5 260.5 A 0 0 0 0 1 296.5 260.5 L 267.5 260.5 A 0 0 0 0 1 267.5 260.5 L 267.5 87.5 A 3 3 0 0 1 270.5 84.5 Z"
            stroke="#ffffff" stroke-width="1" opacity="1" filter="none"
            class="highcharts-point highcharts-color-0" tabindex="-1" role="img"
            aria-label="x, 2020, 27,063. Boys." style="outline: none;"></path>
        <path fill="rgb(44,175,254)"
            d="M 388.5 73.5 L 411.5 73.5 A 3 3 0 0 1 414.5 76.5 L 414.5 260.5 A 0 0 0 0 1 414.5 260.5 L 385.5 260.5 A 0 0 0 0 1 385.5 260.5 L 385.5 76.5 A 3 3 0 0 1 388.5 73.5 Z"
            stroke="#ffffff" stroke-width="1" opacity="1" filter="none"
            class="highcharts-point highcharts-color-0" tabindex="-1" role="img"
            aria-label="x, 2021, 28,684. Boys." style="outline: none;"></path>
        <path fill="#2caffe"
            d="M 506.5 88.5 L 529.5 88.5 A 3 3 0 0 1 532.5 91.5 L 532.5 260.5 A 0 0 0 0 1 532.5 260.5 L 503.5 260.5 A 0 0 0 0 1 503.5 260.5 L 503.5 91.5 A 3 3 0 0 1 506.5 88.5 Z"
            stroke="#ffffff" stroke-width="1" opacity="1" filter="none"
            class="highcharts-point highcharts-color-0" tabindex="-1" role="img"
            aria-label="x, 2022, 26,445. Boys." style="outline: none;"></path>
        <path fill="#2caffe"
            d="M 623.5 87.5 L 646.5 87.5 A 3 3 0 0 1 649.5 90.5 L 649.5 260.5 A 0 0 0 0 1 649.5 260.5 L 620.5 260.5 A 0 0 0 0 1 620.5 260.5 L 620.5 90.5 A 3 3 0 0 1 623.5 87.5 Z"
            stroke="#ffffff" stroke-width="1" opacity="1" filter="none"
            class="highcharts-point highcharts-color-0" tabindex="-1" role="img"
            aria-label="x, 2023, 26,564. Boys." style="outline: none;"></path>
    </g>
    <g
        class="highcharts-series highcharts-series-1 highcharts-column-series highcharts-color-1 highcharts-tracker"
        data-z-index="0.1" opacity="1" transform="translate(73,51) scale(1 1)"
        clip-path="url(#highcharts-nun5adp-13-)" aria-hidden="false" role="region" tabindex="-1"
        aria-label="Girls, bar series 2 of 2 with 6 bars." style="outline: none;">
        <path fill="#544fc5"
            d="M 71.5 86.5 L 94.5 86.5 A 3 3 0 0 1 97.5 89.5 L 97.5 260.5 A 0 0 0 0 1 97.5 260.5 L 68.5 260.5 A 0 0 0 0 1 68.5 260.5 L 68.5 89.5 A 3 3 0 0 1 71.5 86.5 Z"
            stroke="#ffffff" stroke-width="1" opacity="1" filter="none"
            class="highcharts-point highcharts-color-1" tabindex="-1" role="img"
            aria-label="x, 2018, 26,690. Girls." style="outline: none;"></path>
        <path fill="#544fc5"
            d="M 188.5 88.5 L 211.5 88.5 A 3 3 0 0 1 214.5 91.5 L 214.5 260.5 A 0 0 0 0 1 214.5 260.5 L 185.5 260.5 A 0 0 0 0 1 185.5 260.5 L 185.5 91.5 A 3 3 0 0 1 188.5 88.5 Z"
            stroke="#ffffff" stroke-width="1" opacity="1" filter="none"
            class="highcharts-point highcharts-color-1" tabindex="-1" role="img"
            aria-label="x, 2019, 26,453. Girls." style="outline: none;"></path>
        <path fill="rgb(84,79,197)"
            d="M 306.5 91.5 L 329.5 91.5 A 3 3 0 0 1 332.5 94.5 L 332.5 260.5 A 0 0 0 0 1 332.5 260.5 L 303.5 260.5 A 0 0 0 0 1 303.5 260.5 L 303.5 94.5 A 3 3 0 0 1 306.5 91.5 Z"
            stroke="#ffffff" stroke-width="1" opacity="1" filter="none"
            class="highcharts-point highcharts-color-1" tabindex="-1" role="img"
            aria-label="x, 2020, 25,916. Girls." style="outline: none;"></path>
        <path fill="#544fc5"
            d="M 423.5 82.5 L 446.5 82.5 A 3 3 0 0 1 449.5 85.5 L 449.5 260.5 A 0 0 0 0 1 449.5 260.5 L 420.5 260.5 A 0 0 0 0 1 420.5 260.5 L 420.5 85.5 A 3 3 0 0 1 423.5 82.5 Z"
            stroke="#ffffff" stroke-width="1" opacity="1" filter="none"
            class="highcharts-point highcharts-color-1" tabindex="-1" role="img"
            aria-label="x, 2021, 27,376. Girls." style="outline: none;"></path>
        <path fill="#544fc5"
            d="M 541.5 97.5 L 564.5 97.5 A 3 3 0 0 1 567.5 100.5 L 567.5 260.5 A 0 0 0 0 1 567.5 260.5 L 538.5 260.5 A 0 0 0 0 1 538.5 260.5 L 538.5 100.5 A 3 3 0 0 1 541.5 97.5 Z"
            stroke="#ffffff" stroke-width="1" opacity="1" filter="none"
            class="highcharts-point highcharts-color-1" tabindex="-1" role="img"
            aria-label="x, 2022, 25,035. Girls." style="outline: none;"></path>
        <path fill="#544fc5"
            d="M 658.5 94.5 L 681.5 94.5 A 3 3 0 0 1 684.5 97.5 L 684.5 260.5 A 0 0 0 0 1 684.5 260.5 L 655.5 260.5 A 0 0 0 0 1 655.5 260.5 L 655.5 97.5 A 3 3 0 0 1 658.5 94.5 Z"
            stroke="#ffffff" stroke-width="1" opacity="1" filter="none"
            class="highcharts-point highcharts-color-1" tabindex="-1" role="img"
            aria-label="x, 2023, 25,416. Girls." style="outline: none;"></path>
    </g>
</svg>