<?xml version='1.0' encoding='UTF-8'?>
<svg version="1.1" baseProfile="full" width="600" height="400" id="svg" tag_name="svg">
  <g id="g" transform="scale(0.4)" tag_name="svg/g">
    <path d="M148.6 1039.5L1337.4 1039.5" fill="none" stroke="#E0E6F1" id="path_20" tag_name="svg/g/path_20"/>
    <path d="M148.6 794.5L1337.4 794.5" fill="none" stroke="#E0E6F1" id="path_19" tag_name="svg/g/path_19"/>
    <path d="M148.6 549.5L1337.4 549.5" fill="none" stroke="#E0E6F1" id="path_18" tag_name="svg/g/path_18"/>
    <path d="M148.6 305.5L1337.4 305.5" fill="none" stroke="#E0E6F1" id="path_17" tag_name="svg/g/path_17"/>
    <path d="M148.6 60.5L1337.4 60.5" fill="none" stroke="#E0E6F1" id="path_16" tag_name="svg/g/path_16"/>
    <path d="M148.6 1039.5L1337.4 1039.5" stroke-linecap="round" fill="none" stroke="#6E7079" id="path_15" tag_name="svg/g/path_15"/>
    <path d="M148.5 1039L148.5 1044" fill="none" stroke="#6E7079" id="path_14" tag_name="svg/g/path_14"/>
    <path d="M318.5 1039L318.5 1044" fill="none" stroke="#6E7079" id="path_13" tag_name="svg/g/path_13"/>
    <path d="M488.5 1039L488.5 1044" fill="none" stroke="#6E7079" id="path_12" tag_name="svg/g/path_12"/>
    <path d="M658.5 1039L658.5 1044" fill="none" stroke="#6E7079" id="path_11" tag_name="svg/g/path_11"/>
    <path d="M828.5 1039L828.5 1044" fill="none" stroke="#6E7079" id="path_10" tag_name="svg/g/path_10"/>
    <path d="M997.5 1039L997.5 1044" fill="none" stroke="#6E7079" id="path_9" tag_name="svg/g/path_9"/>
    <path d="M1167.5 1039L1167.5 1044" fill="none" stroke="#6E7079" id="path_8" tag_name="svg/g/path_8"/>
    <path d="M1337.5 1039L1337.5 1044" fill="none" stroke="#6E7079" id="path_7" tag_name="svg/g/path_7"/>
    <path d="M174.9234 1039l117.1817 0l0 -587.4l-117.1817 0Z" fill="rgb(84,112,198)" id="path_6" tag_name="svg/g/path_6"/>
    <path d="M344.752 1039l117.1817 0l0 -979l-117.1817 0Z" fill="rgb(169,0,0)" id="path_5" tag_name="svg/g/path_5"/>
    <path d="M514.5806 1039l117.1817 0l0 -734.25l-117.1817 0Z" fill="rgb(84,112,198)" id="path_4" tag_name="svg/g/path_4"/>
    <path d="M684.4091 1039l117.1817 0l0 -391.6l-117.1817 0Z" fill="#5470c6" id="path_3" tag_name="svg/g/path_3"/>
    <path d="M854.2377 1039l117.1817 0l0 -342.65l-117.1817 0Z" fill="#5470c6" id="path_2" tag_name="svg/g/path_2"/>
    <path d="M1024.0663 1039l117.1817 0l0 -538.45l-117.1817 0Z" fill="#5470c6" id="path_1" tag_name="svg/g/path_1"/>
    <path d="M1193.8949 1039l117.1817 0l0 -636.35l-117.1817 0Z" fill="#5470c6" id="path" tag_name="svg/g/path"/>
  </g>
</svg>