<?xml version='1.0' encoding='UTF-8'?>
<svg version="1.1" baseProfile="full" width="600" height="400" id="svg" tag_name="svg">
  <g id="g" transform="scale(0.35)" tag_name="svg/g">
    <path d="M108.5 60L108.5 1055.73" fill="none" stroke="#E0E6F1" id="path_27" tag_name="svg/g/path_27"/>
    <path d="M296.5 60L296.5 1055.73" fill="none" stroke="#E0E6F1" id="path_26" tag_name="svg/g/path_26"/>
    <path d="M485.5 60L485.5 1055.73" fill="none" stroke="#E0E6F1" id="path_25" tag_name="svg/g/path_25"/>
    <path d="M673.5 60L673.5 1055.73" fill="none" stroke="#E0E6F1" id="path_24" tag_name="svg/g/path_24"/>
    <path d="M861.5 60L861.5 1055.73" fill="none" stroke="#E0E6F1" id="path_23" tag_name="svg/g/path_23"/>
    <path d="M1050.5 60L1050.5 1055.73" fill="none" stroke="#E0E6F1" id="path_22" tag_name="svg/g/path_22"/>
    <path d="M1238.5 60L1238.5 1055.73" fill="none" stroke="#E0E6F1" id="path_21" tag_name="svg/g/path_21"/>
    <path d="M1426.5 60L1426.5 1055.73" fill="none" stroke="#E0E6F1" id="path_20" tag_name="svg/g/path_20"/>
    <path d="M108.5 1055.73L108.5 60" stroke-linecap="round" fill="none" stroke="#6E7079" id="path_19" tag_name="svg/g/path_19"/>
    <path d="M108.3905 1055.5L103.3905 1055.5" fill="none" stroke="#6E7079" id="path_18" tag_name="svg/g/path_18"/>
    <path d="M108.3905 890.5L103.3905 890.5" fill="none" stroke="#6E7079" id="path_17" tag_name="svg/g/path_17"/>
    <path d="M108.3905 724.5L103.3905 724.5" fill="none" stroke="#6E7079" id="path_16" tag_name="svg/g/path_16"/>
    <path d="M108.3905 558.5L103.3905 558.5" fill="none" stroke="#6E7079" id="path_15" tag_name="svg/g/path_15"/>
    <path d="M108.3905 392.5L103.3905 392.5" fill="none" stroke="#6E7079" id="path_14" tag_name="svg/g/path_14"/>
    <path d="M108.3905 226.5L103.3905 226.5" fill="none" stroke="#6E7079" id="path_13" tag_name="svg/g/path_13"/>
    <path d="M108.3905 60.5L103.3905 60.5" fill="none" stroke="#6E7079" id="path_12" tag_name="svg/g/path_12"/>
    <path d="M108.3905 912.1789l34.2781 0l0 55.0669l-34.2781 0Z" fill="#5470c6" id="path_11" tag_name="svg/g/path_11"/>
    <path d="M108.3905 746.2239l44.2321 0l0 55.0669l-44.2321 0Z" fill="#5470c6" id="path_10" tag_name="svg/g/path_10"/>
    <path d="M108.3905 580.2689l54.6739 0l0 55.0669l-54.6739 0Z" fill="#5470c6" id="path_9" tag_name="svg/g/path_9"/>
    <path d="M108.3905 414.3139l197.6689 0l0 55.0669l-197.6689 0Z" fill="#5470c6" id="path_8" tag_name="svg/g/path_8"/>
    <path d="M108.3905 248.3589l248.087 0l0 55.0669l-248.087 0Z" fill="rgb(84,112,198)" id="path_7" tag_name="svg/g/path_7"/>
    <path d="M108.3905 82.4039l1186.7856 0l0 55.0669l-1186.7856 0Z" fill="rgb(84,112,198)" id="path_6" tag_name="svg/g/path_6"/>
    <path d="M108.3905 978.2592l36.3909 0l0 55.0669l-36.3909 0Z" fill="#91cc75" id="path_5" tag_name="svg/g/path_5"/>
    <path d="M108.3905 812.3042l44.1361 0l0 55.0669l-44.1361 0Z" fill="#91cc75" id="path_4" tag_name="svg/g/path_4"/>
    <path d="M108.3905 646.3492l58.3761 0l0 55.0669l-58.3761 0Z" fill="#91cc75" id="path_3" tag_name="svg/g/path_3"/>
    <path d="M108.3905 480.3942l228.9736 0l0 55.0669l-228.9736 0Z" fill="#91cc75" id="path_2" tag_name="svg/g/path_2"/>
    <path d="M108.3905 314.4392l252.6008 0l0 55.0669l-252.6008 0Z" fill="rgb(145,204,117)" id="path_1" tag_name="svg/g/path_1"/>
    <path d="M108.3905 148.4842l1283.9102 0l0 55.0669l-1283.9102 0Z" fill="rgb(145,204,117)" id="path" tag_name="svg/g/path"/>
  </g>
</svg>