<?xml version='1.0' encoding='UTF-8'?>
<svg xmlns="http://www.w3.org/2000/svg" width="900" height="340" viewBox="-600,-270,1300,520">
  <style>.st0 {stroke:white;}
.st1 {fill:rgb(66, 136, 181);}
.st2 {fill:rgb(77, 163, 177);}
.st3 {fill:rgb(101, 186, 170);}
.st4 {fill:rgb(131, 204, 165);}
.st5 {fill:rgb(162, 217, 163);}
.st6 {fill:rgb(191, 229, 160);}
.st7 {fill:rgb(216, 239, 159);}
.st8 {fill:rgb(235, 247, 166);}
.st9 {fill:rgb(247, 250, 175);}
.st10 {fill:rgb(253, 245, 172);}
.st11 {fill:rgb(254, 232, 154);}
.st12 {fill:rgb(254, 213, 133);}
.st13 {fill:rgb(253, 191, 112);}
.st14 {fill:rgb(251, 165, 95);}
.st15 {fill:rgb(247, 136, 81);}
.st16 {fill:rgb(239, 109, 74);}
.st17 {fill:rgb(227, 84, 73);}
.st18 {fill:rgb(209, 60, 75);}</style>
  <g class="st0">
    <path d="M0,-249A249,249,0,0,1,95.881,-229.8L0,0Z" class="st1">
    </path>
    <path d="M95.881,-229.8A249,249,0,0,1,179.014,-173.075L0,0Z" class="st2">
    </path>
    <path d="M179.014,-173.075A249,249,0,0,1,233.212,-87.253L0,0Z" class="st3">
    </path>
    <path d="M233.212,-87.253A249,249,0,0,1,248.46,16.396L0,0Z" class="st4">
    </path>
    <path d="M248.46,16.396A249,249,0,0,1,216.75,122.558L0,0Z" class="st5">
    </path>
    <path d="M216.75,122.558A249,249,0,0,1,145.78,201.864L0,0Z" class="st6">
    </path>
    <path d="M145.78,201.864A249,249,0,0,1,50.671,243.79L0,0Z" class="st7">
    </path>
    <path d="M50.671,243.79A249,249,0,0,1,-46.837,244.555L0,0Z" class="st8">
    </path>
    <path d="M-46.837,244.555A249,249,0,0,1,-141.018,205.219L0,0Z" class="st9">
    </path>
    <path d="M-141.018,205.219A249,249,0,0,1,-212.989,128.983L0,0Z" class="st10">
    </path>
    <path d="M-212.989,128.983A249,249,0,0,1,-247.821,24.204L0,0Z" class="st11">
    </path>
    <path d="M-247.821,24.204A249,249,0,0,1,-236.394,-78.222L0,0Z" class="st12">
    </path>
    <path d="M-236.394,-78.222A249,249,0,0,1,-192.81,-157.56L0,0Z" class="st13">
    </path>
    <path d="M-192.81,-157.56A249,249,0,0,1,-139.955,-205.946L0,0Z" class="st14">
    </path>
    <path d="M-139.955,-205.946A249,249,0,0,1,-93.908,-230.613L0,0Z" class="st15">
    </path>
    <path d="M-93.908,-230.613A249,249,0,0,1,-57.555,-242.257L0,0Z" class="st16">
    </path>
    <path d="M-57.555,-242.257A249,249,0,0,1,-29.287,-247.272L0,0Z" class="st17">
    </path>
    <path d="M-29.287,-247.272A249,249,0,0,1,0,-249L0,0Z" class="st18">
    </path>
  </g>
</svg>
