<?xml version='1.0' encoding='UTF-8'?>
<svg xmlns="http://www.w3.org/2000/svg" width="900" height="340" viewBox="50,0,800,400" id="svg">
  <style>.st0 {fill:#3366cc;}
.st1 {fill:#dc3912;}
.st2 {fill:#ff9900;}
.st3 {fill:#109618;}
.st4 {fill:#990099;}</style>
  <rect x="184" y="369" width="13" height="35" class="st0"/>
  <rect x="299" y="375" width="14" height="29" class="st0"/>
  <rect x="415" y="370" width="13" height="34" class="st0"/>
  <rect x="530" y="374" width="14" height="30" class="st0"/>
  <rect x="646" y="375" width="13" height="29" class="st0"/>
  <rect x="198" y="199" width="14" height="205" class="st1"/>
  <rect x="314" y="159" width="13" height="245" class="st1"/>
  <rect x="429" y="148" width="14" height="256" class="st1"/>
  <rect x="545" y="161" width="13" height="243" class="st1"/>
  <rect x="660" y="253" width="14" height="151" class="st1"/>
  <rect x="213" y="290" width="13" height="114" class="st2"/>
  <rect x="328" y="273" width="14" height="131" class="st2"/>
  <rect x="444" y="276" width="13" height="128" class="st2"/>
  <rect x="559" y="270" width="14" height="134" class="st2"/>
  <rect x="675" y="267" width="13" height="137" class="st2"/>
  <rect x="227" y="185" width="14" height="219" class="st3"/>
  <rect x="343" y="126" width="13" height="278" class="st3"/>
  <rect x="458" y="227" width="14" height="177" class="st3"/>
  <rect x="574" y="192" width="13" height="212" class="st3"/>
  <rect x="689" y="179" width="14" height="225" class="st3"/>
  <rect x="242" y="306" width="13" height="98" class="st4"/>
  <rect x="357" y="342" width="14" height="62" class="st4"/>
  <rect x="473" y="318" width="13" height="86" class="st4"/>
  <rect x="588" y="358" width="14" height="46" class="st4"/>
  <rect x="704" y="324" width="13" height="80" class="st4"/>
</svg>
