<?xml version='1.0' encoding='UTF-8'?>
<svg xmlns="http://www.w3.org/2000/svg" width="900" height="340" viewBox="0,0,900,340" id="svg">
  <style>.st0 {fill:#fee08b;}
.st1 {fill:#fc8d59;}
.st2 {fill:#d53e4f;}
.st3 {fill:#e6f598;}
.st4 {fill:#99d594;}
.st5 {fill:#3288bd;}</style>
  <g>
    <g class="st0">
      <rect x="371" y="45" width="104" height="30">
      </rect>
      <rect x="425" y="237" width="50" height="30">
      </rect>
      <rect x="309" y="109" width="166" height="30">
      </rect>
      <rect x="401" y="205" width="74" height="30">
      </rect>
      <rect x="350" y="77" width="125" height="30">
      </rect>
      <rect x="309" y="141" width="166" height="30">
      </rect>
      <rect x="437" y="301" width="38" height="30">
      </rect>
      <rect x="360" y="173" width="115" height="30">
      </rect>
      <rect x="433" y="269" width="42" height="30">
      </rect>
    </g>
    <g class="st1">
      <rect x="157" y="45" width="214" height="30">
      </rect>
      <rect x="388" y="237" width="37" height="30">
      </rect>
      <rect x="239" y="109" width="70" height="30">
      </rect>
      <rect x="364" y="205" width="37" height="30">
      </rect>
      <rect x="194" y="77" width="156" height="30">
      </rect>
      <rect x="275" y="141" width="34" height="30">
      </rect>
      <rect x="398" y="301" width="39" height="30">
      </rect>
      <rect x="321" y="173" width="39" height="30">
      </rect>
      <rect x="392" y="269" width="41" height="30">
      </rect>
    </g>
    <g class="st2">
      <rect x="80" y="45" width="77" height="30">
      </rect>
      <rect x="225" y="109" width="14" height="30">
      </rect>
    </g>
    <g class="st3">
      <rect x="475" y="45" width="58" height="30">
      </rect>
      <rect x="475" y="237" width="188" height="30">
      </rect>
      <rect x="475" y="109" width="70" height="30">
      </rect>
      <rect x="475" y="205" width="130" height="30">
      </rect>
      <rect x="475" y="77" width="63" height="30">
      </rect>
      <rect x="475" y="141" width="133" height="30">
      </rect>
      <rect x="475" y="301" width="115" height="30">
      </rect>
      <rect x="475" y="173" width="77" height="30">
      </rect>
      <rect x="475" y="269" width="125" height="30">
      </rect>
    </g>
    <g class="st4">
      <rect x="533" y="45" width="27" height="30">
      </rect>
      <rect x="663" y="237" width="162" height="30">
      </rect>
      <rect x="545" y="109" width="124" height="30">
      </rect>
      <rect x="605" y="205" width="129" height="30">
      </rect>
      <rect x="538" y="77" width="156" height="30">
      </rect>
      <rect x="608" y="141" width="67" height="30">
      </rect>
      <rect x="590" y="301" width="154" height="30">
      </rect>
      <rect x="552" y="173" width="154" height="30">
      </rect>
      <rect x="600" y="269" width="167" height="30">
      </rect>
    </g>
    <g class="st5">
      <rect x="560" y="45" width="60" height="30">
      </rect>
      <rect x="825" y="237" width="62" height="30">
      </rect>
      <rect x="669" y="109" width="56" height="30">
      </rect>
      <rect x="734" y="205" width="130" height="30">
      </rect>
      <rect x="675" y="141" width="100" height="30">
      </rect>
      <rect x="744" y="301" width="154" height="30">
      </rect>
      <rect x="706" y="173" width="115" height="30">
      </rect>
      <rect x="767" y="269" width="125" height="30">
      </rect>
    </g>
  </g>
</svg>
