<?xml version='1.0' encoding='UTF-8'?>
<svg xmlns="http://www.w3.org/2000/svg" width="900" height="340" viewBox="0,0,750,300" id="svg">
  <style>.st0 {fill:#ef2f1a; stroke:#FFFFFF;}
.st1 {fill:#f02f6d; stroke:#FFFFFF;}
.st2 {fill:#ef2f1a; stroke:#FFFFFF; opacity:1;}
.st3 {fill:#d4c8e9; stroke:#FFFFFF;}
.st4 {fill:#328ce0; stroke:#FFFFFF;}</style>
  <rect x="509.6" y="22.5" width="131.3" height="53.3" class="st0"/>
  <rect x="640.9" y="22.5" width="66.6" height="67.3" class="st0"/>
  <rect x="312.7" y="73.6" width="196.9" height="27.5" class="st1"/>
  <rect x="312.7" y="22.4" width="196.9" height="52.5" class="st2"/>
  <rect x="640.9" y="154" width="66.6" height="78.3" class="st3"/>
  <rect x="640.9" y="88.5" width="66.6" height="65.5" class="st1"/>
  <rect x="50.1" y="22.5" width="262.5" height="13.6" class="st0"/>
  <rect x="509.6" y="127.9" width="131.3" height="78.3" class="st3"/>
  <rect x="509.6" y="75.7" width="131.3" height="52.2" class="st1"/>
  <rect x="312.7" y="101.8" width="196.9" height="78.3" class="st3"/>
  <rect x="50.1" y="63" width="262.5" height="64.9" class="st3"/>
  <rect x="50.1" y="35.8" width="262.5" height="27.2" class="st1"/>
  <rect x="640" y="232.3" width="67.5" height="52.2" class="st4"/>
  <rect x="312.7" y="180.1" width="196.9" height="104.4" class="st4"/>
  <rect x="509.6" y="206.2" width="131.3" height="78.3" class="st4"/>
  <rect x="50.1" y="127.9" width="262.5" height="156.6" class="st4"/>
</svg>
