<?xml version='1.0' encoding='UTF-8'?>
<svg xmlns="http://www.w3.org/2000/svg" width="900" height="340" viewBox="300,100,800,600" id="svg">
  <style>.st0 {mix-blend-mode: multiply; stroke:rgb(244, 117, 96); stroke-width:4;}
.st1 {mix-blend-mode: multiply; stroke:rgb(97, 205, 187); stroke-width:2;}
.st2 {mix-blend-mode: multiply; stroke:rgb(97, 205, 187); stroke-width:4;}
.st3 {fill:rgb(97, 205, 187); stroke:rgb(97, 205, 187);}
.st4 {fill:rgb(244, 117, 96); stroke:rgb(244, 117, 96);}
.st5 {fill:rgb(232, 193, 160); stroke:rgb(232, 193, 160);}</style>
  <line data-testid="link.Node 0.Node 1" stroke-linecap="round" x1="681.2591169613406" y1="350.0491430136193" x2="584.9038536747067" y2="265.8356041757961" class="st0"/>
  <line data-testid="link.Node 1.Node 1.0" stroke-linecap="round" x1="584.9038536747067" y1="265.8356041757961" x2="513.0824790196132" y2="240.8158789426584" class="st1"/>
  <line data-testid="link.Node 1.Node 1.1" stroke-linecap="round" x1="584.9038536747067" y1="265.8356041757961" x2="538.2723450310289" y2="213.5907829456891" class="st1"/>
  <line data-testid="link.Node 1.Node 1.2" stroke-linecap="round" x1="584.9038536747067" y1="265.8356041757961" x2="546.0010474294763" y2="190.56150643587787" class="st1"/>
  <line data-testid="link.Node 1.Node 1.3" stroke-linecap="round" x1="584.9038536747067" y1="265.8356041757961" x2="508.0811728123808" y2="220.93004555089794" class="st1"/>
  <line data-testid="link.Node 1.Node 1.4" stroke-linecap="round" x1="584.9038536747067" y1="265.8356041757961" x2="519.9429669744533" y2="200.38473542951886" class="st1"/>
  <line data-testid="link.Node 0.Node 2" stroke-linecap="round" x1="681.2591169613406" y1="350.0491430136193" x2="638.7551038616103" y2="460.97228800011715" class="st0"/>
  <line data-testid="link.Node 2.Node 2.0" stroke-linecap="round" x1="638.7551038616103" y1="460.97228800011715" x2="610.0146217604473" y2="518.540159411235" class="st1"/>
  <line data-testid="link.Node 2.Node 2.1" stroke-linecap="round" x1="638.7551038616103" y1="460.97228800011715" x2="591.4745864426097" y2="535.8207987787524" class="st1"/>
  <line data-testid="link.Node 2.Node 2.2" stroke-linecap="round" x1="638.7551038616103" y1="460.97228800011715" x2="614.780279257223" y2="541.2342114028446" class="st1"/>
  <line data-testid="link.Node 2.Node 2.3" stroke-linecap="round" x1="638.7551038616103" y1="460.97228800011715" x2="583.2271245620205" y2="512.5966928813591" class="st1"/>
  <line data-testid="link.Node 2.Node 2.4" stroke-linecap="round" x1="638.7551038616103" y1="460.97228800011715" x2="648.6995897843038" y2="529.9597101790149" class="st1"/>
  <line data-testid="link.Node 2.Node 2.5" stroke-linecap="round" x1="638.7551038616103" y1="460.97228800011715" x2="581.212555170055" y2="483.0037484595431" class="st1"/>
  <line data-testid="link.Node 2.Node 2.6" stroke-linecap="round" x1="638.7551038616103" y1="460.97228800011715" x2="634.7256075565456" y2="546.7193385460371" class="st1"/>
  <line data-testid="link.Node 0.Node 3" stroke-linecap="round" x1="681.2591169613406" y1="350.0491430136193" x2="724.8673458196452" y2="246.36850013982703" class="st0"/>
  <line data-testid="link.Node 3.Node 3.0" stroke-linecap="round" x1="724.8673458196452" y1="246.36850013982703" x2="766.953521704701" y2="185.19718079278974" class="st1"/>
  <line data-testid="link.Node 3.Node 3.1" stroke-linecap="round" x1="724.8673458196452" y1="246.36850013982703" x2="737.9356895294853" y2="172.55180956243137" class="st1"/>
  <line data-testid="link.Node 3.Node 3.2" stroke-linecap="round" x1="724.8673458196452" y1="246.36850013982703" x2="759.4384024997653" y2="163.03274907309083" class="st1"/>
  <line data-testid="link.Node 0.Node 4" stroke-linecap="round" x1="681.2591169613406" y1="350.0491430136193" x2="573.4638591383276" y2="417.6740761143781" class="st0"/>
  <line data-testid="link.Node 4.Node 11" stroke-linecap="round" x1="573.4638591383276" y1="417.6740761143781" x2="563.7885929052836" y2="338.2611119905541" class="st2"/>
  <line data-testid="link.Node 4.Node 4.0" stroke-linecap="round" x1="573.4638591383276" y1="417.6740761143781" x2="496.00025391692435" y2="425.52076202199385" class="st1"/>
  <line data-testid="link.Node 4.Node 4.1" stroke-linecap="round" x1="573.4638591383276" y1="417.6740761143781" x2="510.8914365006316" y2="450.03450768040733" class="st1"/>
  <line data-testid="link.Node 4.Node 4.2" stroke-linecap="round" x1="573.4638591383276" y1="417.6740761143781" x2="525.6731045997966" y2="471.16907174553415" class="st1"/>
  <line data-testid="link.Node 4.Node 4.3" stroke-linecap="round" x1="573.4638591383276" y1="417.6740761143781" x2="488.72951832966896" y2="447.91395581354504" class="st1"/>
  <line data-testid="link.Node 4.Node 4.4" stroke-linecap="round" x1="573.4638591383276" y1="417.6740761143781" x2="500.3313820930498" y2="473.31466963486855" class="st1"/>
  <line data-testid="link.Node 4.Node 4.5" stroke-linecap="round" x1="573.4638591383276" y1="417.6740761143781" x2="527.9767513833881" y2="490.7433171282289" class="st1"/>
  <line data-testid="link.Node 0.Node 5" stroke-linecap="round" x1="681.2591169613406" y1="350.0491430136193" x2="717.7871664984064" y2="466.7317072080521" class="st0"/>
  <line data-testid="link.Node 5.Node 2" stroke-linecap="round" x1="717.7871664984064" y1="466.7317072080521" x2="638.7551038616103" y2="460.97228800011715" class="st2"/>
  <line data-testid="link.Node 5.Node 5.0" stroke-linecap="round" x1="717.7871664984064" y1="466.7317072080521" x2="699.1726431338168" y2="532.2913981108481" class="st1"/>
  <line data-testid="link.Node 5.Node 5.1" stroke-linecap="round" x1="717.7871664984064" y1="466.7317072080521" x2="771.0023457140774" y2="508.9295722481461" class="st1"/>
  <line data-testid="link.Node 5.Node 5.2" stroke-linecap="round" x1="717.7871664984064" y1="466.7317072080521" x2="733.8297727481654" y2="530.5860708962448" class="st1"/>
  <line data-testid="link.Node 5.Node 5.3" stroke-linecap="round" x1="717.7871664984064" y1="466.7317072080521" x2="709.8763496206761" y2="549.7207223982762" class="st1"/>
  <line data-testid="link.Node 5.Node 5.4" stroke-linecap="round" x1="717.7871664984064" y1="466.7317072080521" x2="765.2270832069603" y2="529.0119065346522" class="st1"/>
  <line data-testid="link.Node 5.Node 5.5" stroke-linecap="round" x1="717.7871664984064" y1="466.7317072080521" x2="733.0617707955689" y2="554.0389631232522" class="st1"/>
  <line data-testid="link.Node 5.Node 5.6" stroke-linecap="round" x1="717.7871664984064" y1="466.7317072080521" x2="756.1599834702486" y2="547.1463797949491" class="st1"/>
  <line data-testid="link.Node 0.Node 6" stroke-linecap="round" x1="681.2591169613406" y1="350.0491430136193" x2="783.0495876290165" y2="423.5769484965932" class="st0"/>
  <line data-testid="link.Node 6.Node 6.0" stroke-linecap="round" x1="783.0495876290165" y1="423.5769484965932" x2="854.7722744423277" y2="425.93422215952296" class="st1"/>
  <line data-testid="link.Node 6.Node 6.1" stroke-linecap="round" x1="783.0495876290165" y1="423.5769484965932" x2="812.4923160627899" y2="490.48050727015897" class="st1"/>
  <line data-testid="link.Node 6.Node 6.2" stroke-linecap="round" x1="783.0495876290165" y1="423.5769484965932" x2="830.4971967095357" y2="472.5387325067046" class="st1"/>
  <line data-testid="link.Node 6.Node 6.3" stroke-linecap="round" x1="783.0495876290165" y1="423.5769484965932" x2="845.1880127874869" y2="452.22427412478726" class="st1"/>
  <line data-testid="link.Node 6.Node 6.4" stroke-linecap="round" x1="783.0495876290165" y1="423.5769484965932" x2="838.8465748984281" y2="493.09737980129967" class="st1"/>
  <line data-testid="link.Node 6.Node 6.5" stroke-linecap="round" x1="783.0495876290165" y1="423.5769484965932" x2="857.1136435185376" y2="473.9996114697612" class="st1"/>
  <line data-testid="link.Node 6.Node 6.6" stroke-linecap="round" x1="783.0495876290165" y1="423.5769484965932" x2="867.6209059515439" y2="448.0162436114893" class="st1"/>
  <line data-testid="link.Node 0.Node 7" stroke-linecap="round" x1="681.2591169613406" y1="350.0491430136193" x2="800.7396334421264" y2="355.95645978757653" class="st0"/>
  <line data-testid="link.Node 7.Node 7.0" stroke-linecap="round" x1="800.7396334421264" y1="355.95645978757653" x2="865.7306468324521" y2="370.11920225712845" class="st1"/>
  <line data-testid="link.Node 7.Node 7.1" stroke-linecap="round" x1="800.7396334421264" y1="355.95645978757653" x2="865.8268169630703" y2="332.59407885596056" class="st1"/>
  <line data-testid="link.Node 7.Node 7.2" stroke-linecap="round" x1="800.7396334421264" y1="355.95645978757653" x2="879.124896679563" y2="386.586726495379" class="st1"/>
  <line data-testid="link.Node 7.Node 7.3" stroke-linecap="round" x1="800.7396334421264" y1="355.95645978757653" x2="886.763753531715" y2="338.2123116247303" class="st1"/>
  <line data-testid="link.Node 7.Node 7.4" stroke-linecap="round" x1="800.7396334421264" y1="355.95645978757653" x2="888.9028399636231" y2="361.2303127505886" class="st1"/>
  <line data-testid="link.Node 0.Node 8" stroke-linecap="round" x1="681.2591169613406" y1="350.0491430136193" x2="786.9813295403992" y2="276.9779784826671" class="st0"/>
  <line data-testid="link.Node 8.Node 8.0" stroke-linecap="round" x1="786.9813295403992" y1="276.9779784826671" x2="865.6567717756271" y2="267.35732465409455" class="st1"/>
  <line data-testid="link.Node 8.Node 8.1" stroke-linecap="round" x1="786.9813295403992" y1="276.9779784826671" x2="854.5784241197629" y2="285.6190058805463" class="st1"/>
  <line data-testid="link.Node 8.Node 8.2" stroke-linecap="round" x1="786.9813295403992" y1="276.9779784826671" x2="845.6306626695412" y2="248.12454215745962" class="st1"/>
  <line data-testid="link.Node 8.Node 8.3" stroke-linecap="round" x1="786.9813295403992" y1="276.9779784826671" x2="803.1350591763976" y2="210.17152818031082" class="st1"/>
  <line data-testid="link.Node 8.Node 8.4" stroke-linecap="round" x1="786.9813295403992" y1="276.9779784826671" x2="871.9308930216556" y2="246.918584064141" class="st1"/>
  <line data-testid="link.Node 8.Node 8.5" stroke-linecap="round" x1="786.9813295403992" y1="276.9779784826671" x2="828.4267468681766" y2="225.57651178901733" class="st1"/>
  <line data-testid="link.Node 8.Node 8.6" stroke-linecap="round" x1="786.9813295403992" y1="276.9779784826671" x2="860.4400824987302" y2="227.58808314358805" class="st1"/>
  <line data-testid="link.Node 8.Node 8.7" stroke-linecap="round" x1="786.9813295403992" y1="276.9779784826671" x2="846.9416860289797" y2="210.17943620496322" class="st1"/>
  <line data-testid="link.Node 8.Node 8.8" stroke-linecap="round" x1="786.9813295403992" y1="276.9779784826671" x2="825.0408827595841" y2="200.7168950511638" class="st1"/>
  <line data-testid="link.Node 0.Node 9" stroke-linecap="round" x1="681.2591169613406" y1="350.0491430136193" x2="678.2715500928082" y2="226.00242019696586" class="st0"/>
  <line data-testid="link.Node 9.Node 9.0" stroke-linecap="round" x1="678.2715500928082" y1="226.00242019696586" x2="705.0826915672857" y2="152.67154011060336" class="st1"/>
  <line data-testid="link.Node 9.Node 9.1" stroke-linecap="round" x1="678.2715500928082" y1="226.00242019696586" x2="677.2072111278908" y2="156.94279993938824" class="st1"/>
  <line data-testid="link.Node 9.Node 9.2" stroke-linecap="round" x1="678.2715500928082" y1="226.00242019696586" x2="647.9735258797994" y2="158.00220168532235" class="st1"/>
  <line data-testid="link.Node 9.Node 9.3" stroke-linecap="round" x1="678.2715500928082" y1="226.00242019696586" x2="687.4932239114124" y2="135.96422262932137" class="st1"/>
  <line data-testid="link.Node 9.Node 9.4" stroke-linecap="round" x1="678.2715500928082" y1="226.00242019696586" x2="660.2370601271268" y2="138.3752043438908" class="st1"/>
  <line data-testid="link.Node 0.Node 10" stroke-linecap="round" x1="681.2591169613406" y1="350.0491430136193" x2="632.1047829057349" y2="250.48623291543987" class="st0"/>
  <line data-testid="link.Node 10.Node 10.0" stroke-linecap="round" x1="632.1047829057349" y1="250.48623291543987" x2="617.8783684154437" y2="180.52588872531507" class="st1"/>
  <line data-testid="link.Node 10.Node 10.1" stroke-linecap="round" x1="632.1047829057349" y1="250.48623291543987" x2="596.9478893369151" y2="169.92386497724635" class="st1"/>
  <line data-testid="link.Node 10.Node 10.2" stroke-linecap="round" x1="632.1047829057349" y1="250.48623291543987" x2="587.5588917369417" y2="192.8824467580511" class="st1"/>
  <line data-testid="link.Node 0.Node 11" stroke-linecap="round" x1="681.2591169613406" y1="350.0491430136193" x2="563.7885929052836" y2="338.2611119905541" class="st0"/>
  <line data-testid="link.Node 11.Node 11.0" stroke-linecap="round" x1="563.7885929052836" y1="338.2611119905541" x2="518.6141493823086" y2="289.7972809184091" class="st1"/>
  <line data-testid="link.Node 11.Node 11.1" stroke-linecap="round" x1="563.7885929052836" y1="338.2611119905541" x2="495.98729814545237" y2="347.1736789979106" class="st1"/>
  <line data-testid="link.Node 11.Node 11.2" stroke-linecap="round" x1="563.7885929052836" y1="338.2611119905541" x2="499.4443082007127" y2="323.09116317726756" class="st1"/>
  <line data-testid="link.Node 11.Node 11.3" stroke-linecap="round" x1="563.7885929052836" y1="338.2611119905541" x2="496.9083220305256" y2="296.81833145114905" class="st1"/>
  <line data-testid="link.Node 11.Node 11.4" stroke-linecap="round" x1="563.7885929052836" y1="338.2611119905541" x2="511.7432172759849" y2="376.47479978200926" class="st1"/>
  <line data-testid="link.Node 11.Node 11.5" stroke-linecap="round" x1="563.7885929052836" y1="338.2611119905541" x2="488.2526043829178" y2="367.5168251094088" class="st1"/>
  <line data-testid="link.Node 11.Node 11.6" stroke-linecap="round" x1="563.7885929052836" y1="338.2611119905541" x2="479.0009066331521" y2="313.0062736472856" class="st1"/>
  <line data-testid="link.Node 11.Node 11.7" stroke-linecap="round" x1="563.7885929052836" y1="338.2611119905541" x2="474.4194435718722" y2="339.3325492524313" class="st1"/>
  <circle data-testid="node.Node 1" transform="translate(584.9038536747067,265.8356041757961) scale(1)" r="12" class="st3"/>
  <circle data-testid="node.Node 2" transform="translate(638.7551038616103,460.97228800011715) scale(1)" r="12" class="st3"/>
  <circle data-testid="node.Node 3" transform="translate(724.8673458196452,246.36850013982703) scale(1)" r="12" class="st3"/>
  <circle data-testid="node.Node 4" transform="translate(573.4638591383276,417.6740761143781) scale(1)" r="12" class="st3"/>
  <circle data-testid="node.Node 5" transform="translate(717.7871664984064,466.7317072080521) scale(1)" r="12" class="st3"/>
  <circle data-testid="node.Node 6" transform="translate(783.0495876290165,423.5769484965932) scale(1)" r="12" class="st3"/>
  <circle data-testid="node.Node 7" transform="translate(800.7396334421264,355.95645978757653) scale(1)" r="12" class="st3"/>
  <circle data-testid="node.Node 8" transform="translate(786.9813295403992,276.9779784826671) scale(1)" r="12" class="st3"/>
  <circle data-testid="node.Node 9" transform="translate(678.2715500928082,226.00242019696586) scale(1)" r="12" class="st3"/>
  <circle data-testid="node.Node 10" transform="translate(632.1047829057349,250.48623291543987) scale(1)" r="12" class="st3"/>
  <circle data-testid="node.Node 11" transform="translate(563.7885929052836,338.2611119905541) scale(1)" r="12" class="st3"/>
  <circle data-testid="node.Node 0" transform="translate(681.2591169613406,350.0491430136193) scale(1)" r="16" class="st4"/>
  <circle data-testid="node.Node 1.0" transform="translate(513.0824790196132,240.8158789426584) scale(1)" r="6" class="st5"/>
  <circle data-testid="node.Node 1.1" transform="translate(538.2723450310289,213.5907829456891) scale(1)" r="6" class="st5"/>
  <circle data-testid="node.Node 1.2" transform="translate(546.0010474294763,190.56150643587787) scale(1)" r="6" class="st5"/>
  <circle data-testid="node.Node 1.3" transform="translate(508.0811728123808,220.93004555089794) scale(1)" r="6" class="st5"/>
  <circle data-testid="node.Node 1.4" transform="translate(519.9429669744533,200.38473542951886) scale(1)" r="6" class="st5"/>
  <circle data-testid="node.Node 2.0" transform="translate(610.0146217604473,518.540159411235) scale(1)" r="6" class="st5"/>
  <circle data-testid="node.Node 2.1" transform="translate(591.4745864426097,535.8207987787524) scale(1)" r="6" class="st5"/>
  <circle data-testid="node.Node 2.2" transform="translate(614.780279257223,541.2342114028446) scale(1)" r="6" class="st5"/>
  <circle data-testid="node.Node 2.3" transform="translate(583.2271245620205,512.5966928813591) scale(1)" r="6" class="st5"/>
  <circle data-testid="node.Node 2.4" transform="translate(648.6995897843038,529.9597101790149) scale(1)" r="6" class="st5"/>
  <circle data-testid="node.Node 2.5" transform="translate(581.212555170055,483.0037484595431) scale(1)" r="6" class="st5"/>
  <circle data-testid="node.Node 2.6" transform="translate(634.7256075565456,546.7193385460371) scale(1)" r="6" class="st5"/>
  <circle data-testid="node.Node 3.0" transform="translate(766.953521704701,185.19718079278974) scale(1)" r="6" class="st5"/>
  <circle data-testid="node.Node 3.1" transform="translate(737.9356895294853,172.55180956243137) scale(1)" r="6" class="st5"/>
  <circle data-testid="node.Node 3.2" transform="translate(759.4384024997653,163.03274907309083) scale(1)" r="6" class="st5"/>
  <circle data-testid="node.Node 4.0" transform="translate(496.00025391692435,425.52076202199385) scale(1)" r="6" class="st5"/>
  <circle data-testid="node.Node 4.1" transform="translate(510.8914365006316,450.03450768040733) scale(1)" r="6" class="st5"/>
  <circle data-testid="node.Node 4.2" transform="translate(525.6731045997966,471.16907174553415) scale(1)" r="6" class="st5"/>
  <circle data-testid="node.Node 4.3" transform="translate(488.72951832966896,447.91395581354504) scale(1)" r="6" class="st5"/>
  <circle data-testid="node.Node 4.4" transform="translate(500.3313820930498,473.31466963486855) scale(1)" r="6" class="st5"/>
  <circle data-testid="node.Node 4.5" transform="translate(527.9767513833881,490.7433171282289) scale(1)" r="6" class="st5"/>
  <circle data-testid="node.Node 5.0" transform="translate(699.1726431338168,532.2913981108481) scale(1)" r="6" class="st5"/>
  <circle data-testid="node.Node 5.1" transform="translate(771.0023457140774,508.9295722481461) scale(1)" r="6" class="st5"/>
  <circle data-testid="node.Node 5.2" transform="translate(733.8297727481654,530.5860708962448) scale(1)" r="6" class="st5"/>
  <circle data-testid="node.Node 5.3" transform="translate(709.8763496206761,549.7207223982762) scale(1)" r="6" class="st5"/>
  <circle data-testid="node.Node 5.4" transform="translate(765.2270832069603,529.0119065346522) scale(1)" r="6" class="st5"/>
  <circle data-testid="node.Node 5.5" transform="translate(733.0617707955689,554.0389631232522) scale(1)" r="6" class="st5"/>
  <circle data-testid="node.Node 5.6" transform="translate(756.1599834702486,547.1463797949491) scale(1)" r="6" class="st5"/>
  <circle data-testid="node.Node 6.0" transform="translate(854.7722744423277,425.93422215952296) scale(1)" r="6" class="st5"/>
  <circle data-testid="node.Node 6.1" transform="translate(812.4923160627899,490.48050727015897) scale(1)" r="6" class="st5"/>
  <circle data-testid="node.Node 6.2" transform="translate(830.4971967095357,472.5387325067046) scale(1)" r="6" class="st5"/>
  <circle data-testid="node.Node 6.3" transform="translate(845.1880127874869,452.22427412478726) scale(1)" r="6" class="st5"/>
  <circle data-testid="node.Node 6.4" transform="translate(838.8465748984281,493.09737980129967) scale(1)" r="6" class="st5"/>
  <circle data-testid="node.Node 6.5" transform="translate(857.1136435185376,473.9996114697612) scale(1)" r="6" class="st5"/>
  <circle data-testid="node.Node 6.6" transform="translate(867.6209059515439,448.0162436114893) scale(1)" r="6" class="st5"/>
  <circle data-testid="node.Node 7.0" transform="translate(865.7306468324521,370.11920225712845) scale(1)" r="6" class="st5"/>
  <circle data-testid="node.Node 7.1" transform="translate(865.8268169630703,332.59407885596056) scale(1)" r="6" class="st5"/>
  <circle data-testid="node.Node 7.2" transform="translate(879.124896679563,386.586726495379) scale(1)" r="6" class="st5"/>
  <circle data-testid="node.Node 7.3" transform="translate(886.763753531715,338.2123116247303) scale(1)" r="6" class="st5"/>
  <circle data-testid="node.Node 7.4" transform="translate(888.9028399636231,361.2303127505886) scale(1)" r="6" class="st5"/>
  <circle data-testid="node.Node 8.0" transform="translate(865.6567717756271,267.35732465409455) scale(1)" r="6" class="st5"/>
  <circle data-testid="node.Node 8.1" transform="translate(854.5784241197629,285.6190058805463) scale(1)" r="6" class="st5"/>
  <circle data-testid="node.Node 8.2" transform="translate(845.6306626695412,248.12454215745962) scale(1)" r="6" class="st5"/>
  <circle data-testid="node.Node 8.3" transform="translate(803.1350591763976,210.17152818031082) scale(1)" r="6" class="st5"/>
  <circle data-testid="node.Node 8.4" transform="translate(871.9308930216556,246.918584064141) scale(1)" r="6" class="st5"/>
  <circle data-testid="node.Node 8.5" transform="translate(828.4267468681766,225.57651178901733) scale(1)" r="6" class="st5"/>
  <circle data-testid="node.Node 8.6" transform="translate(860.4400824987302,227.58808314358805) scale(1)" r="6" class="st5"/>
  <circle data-testid="node.Node 8.7" transform="translate(846.9416860289797,210.17943620496322) scale(1)" r="6" class="st5"/>
  <circle data-testid="node.Node 8.8" transform="translate(825.0408827595841,200.7168950511638) scale(1)" r="6" class="st5"/>
  <circle data-testid="node.Node 9.0" transform="translate(705.0826915672857,152.67154011060336) scale(1)" r="6" class="st5"/>
  <circle data-testid="node.Node 9.1" transform="translate(677.2072111278908,156.94279993938824) scale(1)" r="6" class="st5"/>
  <circle data-testid="node.Node 9.2" transform="translate(647.9735258797994,158.00220168532235) scale(1)" r="6" class="st5"/>
  <circle data-testid="node.Node 9.3" transform="translate(687.4932239114124,135.96422262932137) scale(1)" r="6" class="st5"/>
  <circle data-testid="node.Node 9.4" transform="translate(660.2370601271268,138.3752043438908) scale(1)" r="6" class="st5"/>
  <circle data-testid="node.Node 10.0" transform="translate(617.8783684154437,180.52588872531507) scale(1)" r="6" class="st5"/>
  <circle data-testid="node.Node 10.1" transform="translate(596.9478893369151,169.92386497724635) scale(1)" r="6" class="st5"/>
  <circle data-testid="node.Node 10.2" transform="translate(587.5588917369417,192.8824467580511) scale(1)" r="6" class="st5"/>
  <circle data-testid="node.Node 11.0" transform="translate(518.6141493823086,289.7972809184091) scale(1)" r="6" class="st5"/>
  <circle data-testid="node.Node 11.1" transform="translate(495.98729814545237,347.1736789979106) scale(1)" r="6" class="st5"/>
  <circle data-testid="node.Node 11.2" transform="translate(499.4443082007127,323.09116317726756) scale(1)" r="6" class="st5"/>
  <circle data-testid="node.Node 11.3" transform="translate(496.9083220305256,296.81833145114905) scale(1)" r="6" class="st5"/>
  <circle data-testid="node.Node 11.4" transform="translate(511.7432172759849,376.47479978200926) scale(1)" r="6" class="st5"/>
  <circle data-testid="node.Node 11.5" transform="translate(488.2526043829178,367.5168251094088) scale(1)" r="6" class="st5"/>
  <circle data-testid="node.Node 11.6" transform="translate(479.0009066331521,313.0062736472856) scale(1)" r="6" class="st5"/>
  <circle data-testid="node.Node 11.7" transform="translate(474.4194435718722,339.3325492524313) scale(1)" r="6" class="st5"/>
</svg>
