<?xml version='1.0' encoding='utf-8'?>
<svg width="900" height="340" viewBox="0,0,750,300" id="svg">
  <g id="g">
    <rect x="55" y="12.1" width="54.2" height="23" fill="#94ABF5" stroke="#FFFFFF" stroke-width="0.5" id="rect_143" />
    <rect x="55" y="35.1" width="54.2" height="23" fill="#7F9BF5" stroke="#FFFFFF" stroke-width="0.5" id="rect_142" />
    <rect x="55" y="58.1" width="54.2" height="23" fill="#7F9BF5" stroke="#FFFFFF" stroke-width="0.5" id="rect_141" />
    <rect x="55" y="81.1" width="54.2" height="23" fill="#A0ACE1" stroke="#FFFFFF" stroke-width="0.5" id="rect_140" />
    <rect x="55" y="104.1" width="54.2" height="23" fill="#94ABF5" stroke="#FFFFFF" stroke-width="0.5" id="rect_139" />
    <rect x="55" y="127.1" width="54.2" height="23" fill="#6E8EF5" stroke="#FFFFFF" stroke-width="0.5" id="rect_138" />
    <rect x="55" y="150.1" width="54.2" height="23" fill="#6383EB" stroke="#FFFFFF" stroke-width="0.5" id="rect_137" />
    <rect x="55" y="173.1" width="54.2" height="23" fill="#7F9BF5" stroke="#FFFFFF" stroke-width="0.5" id="rect_136" />
    <rect x="55" y="196.1" width="54.2" height="23" fill="#94ABF5" stroke="#FFFFFF" stroke-width="0.5" id="rect_135" />
    <rect x="55" y="219.1" width="54.2" height="23" fill="#6C8AEB" stroke="#FFFFFF" stroke-width="0.5" id="rect_134" />
    <rect x="55" y="242.1" width="54.2" height="23" fill="#94ABF5" stroke="#FFFFFF" stroke-width="0.5" id="rect_133" />
    <rect x="55" y="265.1" width="54.2" height="23" fill="#94ABF5" stroke="#FFFFFF" stroke-width="0.5" id="rect_132" />
    <rect x="109.2" y="12.1" width="54.2" height="23" fill="#A0ACE1" stroke="#FFFFFF" stroke-width="0.5" id="rect_131" />
    <rect x="109.2" y="35.1" width="54.2" height="23" fill="#7F9BF5" stroke="#FFFFFF" stroke-width="0.5" id="rect_130" />
    <rect x="109.2" y="58.1" width="54.2" height="23" fill="#94ABF5" stroke="#FFFFFF" stroke-width="0.5" id="rect_129" />
    <rect x="109.2" y="81.1" width="54.2" height="23" fill="#ACADCE" stroke="#FFFFFF" stroke-width="0.5" id="rect_128" />
    <rect x="109.2" y="104.1" width="54.2" height="23" fill="#A0ACE1" stroke="#FFFFFF" stroke-width="0.5" id="rect_127" />
    <rect x="109.2" y="127.1" width="54.2" height="23" fill="#7F9BF5" stroke="#FFFFFF" stroke-width="0.5" id="rect_126" />
    <rect x="109.2" y="150.1" width="54.2" height="23" fill="#6E8EF5" stroke="#FFFFFF" stroke-width="0.5" id="rect_125" />
    <rect x="109.2" y="173.1" width="54.2" height="23" fill="#94ABF5" stroke="#FFFFFF" stroke-width="0.5" id="rect_124" />
    <rect x="109.2" y="196.1" width="54.2" height="23" fill="#94ABF5" stroke="#FFFFFF" stroke-width="0.5" id="rect_123" />
    <rect x="109.2" y="219.1" width="54.2" height="23" fill="#7F9BF5" stroke="#FFFFFF" stroke-width="0.5" id="rect_122" />
    <rect x="109.2" y="242.1" width="54.2" height="23" fill="#A0ACE1" stroke="#FFFFFF" stroke-width="0.5" id="rect_121" />
    <rect x="109.2" y="265.1" width="54.2" height="23" fill="#A0ACE1" stroke="#FFFFFF" stroke-width="0.5" id="rect_120" />
    <rect x="163.3" y="12.1" width="54.2" height="23" fill="#A0ACE1" stroke="#FFFFFF" stroke-width="0.5" id="rect_119" />
    <rect x="163.3" y="35.1" width="54.2" height="23" fill="#94ABF5" stroke="#FFFFFF" stroke-width="0.5" id="rect_118" />
    <rect x="163.3" y="58.1" width="54.2" height="23" fill="#A0ACE1" stroke="#FFFFFF" stroke-width="0.5" id="rect_117" />
    <rect x="163.3" y="81.1" width="54.2" height="23" fill="#ACADCE" stroke="#FFFFFF" stroke-width="0.5" id="rect_116" />
    <rect x="163.3" y="104.1" width="54.2" height="23" fill="#ACADCE" stroke="#FFFFFF" stroke-width="0.5" id="rect_115" />
    <rect x="163.3" y="127.1" width="54.2" height="23" fill="#849FF5" stroke="#FFFFFF" stroke-width="0.5" id="rect_114" />
    <rect x="163.3" y="150.1" width="54.2" height="23" fill="#94ABF5" stroke="#FFFFFF" stroke-width="0.5" id="rect_113" />
    <rect x="163.3" y="173.1" width="54.2" height="23" fill="#ACADCE" stroke="#FFFFFF" stroke-width="0.5" id="rect_112" />
    <rect x="163.3" y="196.1" width="54.2" height="23" fill="#A0ACE1" stroke="#FFFFFF" stroke-width="0.5" id="rect_111" />
    <rect x="163.3" y="219.1" width="54.2" height="23" fill="#94ABF5" stroke="#FFFFFF" stroke-width="0.5" id="rect_110" />
    <rect x="163.3" y="242.1" width="54.2" height="23" fill="#B8AEBA" stroke="#FFFFFF" stroke-width="0.5" id="rect_109" />
    <rect x="163.3" y="265.1" width="54.2" height="23" fill="#A0ACE1" stroke="#FFFFFF" stroke-width="0.5" id="rect_108" />
    <rect x="217.5" y="12.1" width="54.2" height="23" fill="#B8AEBA" stroke="#FFFFFF" stroke-width="0.5" id="rect_107" />
    <rect x="217.5" y="35.1" width="54.2" height="23" fill="#A0ACE1" stroke="#FFFFFF" stroke-width="0.5" id="rect_106" />
    <rect x="217.5" y="58.1" width="54.2" height="23" fill="#B8AEBA" stroke="#FFFFFF" stroke-width="0.5" id="rect_105" />
    <rect x="217.5" y="81.1" width="54.2" height="23" fill="#C4AFA7" stroke="#FFFFFF" stroke-width="0.5" id="rect_104" />
    <rect x="217.5" y="104.1" width="54.2" height="23" fill="#ACADCE" stroke="#FFFFFF" stroke-width="0.5" id="rect_103" />
    <rect x="217.5" y="127.1" width="54.2" height="23" fill="#94ABF5" stroke="#FFFFFF" stroke-width="0.5" id="rect_102" />
    <rect x="217.5" y="150.1" width="54.2" height="23" fill="#A0ACE1" stroke="#FFFFFF" stroke-width="0.5" id="rect_101" />
    <rect x="217.5" y="173.1" width="54.2" height="23" fill="#C4AFA7" stroke="#FFFFFF" stroke-width="0.5" id="rect_100" />
    <rect x="217.5" y="196.1" width="54.2" height="23" fill="#ACADCE" stroke="#FFFFFF" stroke-width="0.5" id="rect_99" />
    <rect x="217.5" y="219.1" width="54.2" height="23" fill="#A0ACE1" stroke="#FFFFFF" stroke-width="0.5" id="rect_98" />
    <rect x="217.5" y="242.1" width="54.2" height="23" fill="#DBB080" stroke="#FFFFFF" stroke-width="0.5" id="rect_97" />
    <rect x="217.5" y="265.1" width="54.2" height="23" fill="#B8AEBA" stroke="#FFFFFF" stroke-width="0.5" id="rect_96" />
    <rect x="271.7" y="12.1" width="54.2" height="23" fill="#B8AEBA" stroke="#FFFFFF" stroke-width="0.5" id="rect_95" />
    <rect x="271.7" y="35.1" width="54.2" height="23" fill="#ACADCE" stroke="#FFFFFF" stroke-width="0.5" id="rect_94" />
    <rect x="271.7" y="58.1" width="54.2" height="23" fill="#C4AFA7" stroke="#FFFFFF" stroke-width="0.5" id="rect_93" />
    <rect x="271.7" y="81.1" width="54.2" height="23" fill="#C4AFA7" stroke="#FFFFFF" stroke-width="0.5" id="rect_92" />
    <rect x="271.7" y="104.1" width="54.2" height="23" fill="#ACADCE" stroke="#FFFFFF" stroke-width="0.5" id="rect_91" />
    <rect x="271.7" y="127.1" width="54.2" height="23" fill="#A0ACE1" stroke="#FFFFFF" stroke-width="0.5" id="rect_90" />
    <rect x="271.7" y="150.1" width="54.2" height="23" fill="#B8AEBA" stroke="#FFFFFF" stroke-width="0.5" id="rect_89" />
    <rect x="271.7" y="173.1" width="54.2" height="23" fill="#C4AFA7" stroke="#FFFFFF" stroke-width="0.5" id="rect_88" />
    <rect x="271.7" y="196.1" width="54.2" height="23" fill="#C4AFA7" stroke="#FFFFFF" stroke-width="0.5" id="rect_87" />
    <rect x="271.7" y="219.1" width="54.2" height="23" fill="#A0ACE1" stroke="#FFFFFF" stroke-width="0.5" id="rect_86" />
    <rect x="271.7" y="242.1" width="54.2" height="23" fill="#E7B16C" stroke="#FFFFFF" stroke-width="0.5" id="rect_85" />
    <rect x="271.7" y="265.1" width="54.2" height="23" fill="#B8AEBA" stroke="#FFFFFF" stroke-width="0.5" id="rect_84" />
    <rect x="325.8" y="12.1" width="54.2" height="23" fill="#C4AFA7" stroke="#FFFFFF" stroke-width="0.5" id="rect_83" />
    <rect x="325.8" y="35.1" width="54.2" height="23" fill="#B8AEBA" stroke="#FFFFFF" stroke-width="0.5" id="rect_82" />
    <rect x="325.8" y="58.1" width="54.2" height="23" fill="#CFAF93" stroke="#FFFFFF" stroke-width="0.5" id="rect_81" />
    <rect x="325.8" y="81.1" width="54.2" height="23" fill="#E7B16C" stroke="#FFFFFF" stroke-width="0.5" id="rect_80" />
    <rect x="325.8" y="104.1" width="54.2" height="23" fill="#C4AFA7" stroke="#FFFFFF" stroke-width="0.5" id="rect_79" />
    <rect x="325.8" y="127.1" width="54.2" height="23" fill="#B8AEBA" stroke="#FFFFFF" stroke-width="0.5" id="rect_78" />
    <rect x="325.8" y="150.1" width="54.2" height="23" fill="#CFAF93" stroke="#FFFFFF" stroke-width="0.5" id="rect_77" />
    <rect x="325.8" y="173.1" width="54.2" height="23" fill="#E7B16C" stroke="#FFFFFF" stroke-width="0.5" id="rect_76" />
    <rect x="325.8" y="196.1" width="54.2" height="23" fill="#C4AFA7" stroke="#FFFFFF" stroke-width="0.5" id="rect_75" />
    <rect x="325.8" y="219.1" width="54.2" height="23" fill="#ACADCE" stroke="#FFFFFF" stroke-width="0.5" id="rect_74" />
    <rect x="325.8" y="242.1" width="54.2" height="23" fill="#E7B16C" stroke="#FFFFFF" stroke-width="0.5" id="rect_73" />
    <rect x="325.8" y="265.1" width="54.2" height="23" fill="#C4AFA7" stroke="#FFFFFF" stroke-width="0.5" id="rect_72" />
    <rect x="380" y="12.1" width="54.2" height="23" fill="#E7B16C" stroke="#FFFFFF" stroke-width="0.5" id="rect_71" />
    <rect x="380" y="35.1" width="54.2" height="23" fill="#DBB080" stroke="#FFFFFF" stroke-width="0.5" id="rect_70" />
    <rect x="380" y="58.1" width="54.2" height="23" fill="#F3B259" stroke="#FFFFFF" stroke-width="0.5" id="rect_69" />
    <rect x="380" y="81.1" width="54.2" height="23" fill="#FFB345" stroke="#FFFFFF" stroke-width="0.5" id="rect_68" />
    <rect x="380" y="104.1" width="54.2" height="23" fill="#CFAF93" stroke="#FFFFFF" stroke-width="0.5" id="rect_67" />
    <rect x="380" y="127.1" width="54.2" height="23" fill="#B8AEBA" stroke="#FFFFFF" stroke-width="0.5" id="rect_66" />
    <rect x="380" y="150.1" width="54.2" height="23" fill="#DBB080" stroke="#FFFFFF" stroke-width="0.5" id="rect_65" />
    <rect x="380" y="173.1" width="54.2" height="23" fill="#F3B259" stroke="#FFFFFF" stroke-width="0.5" id="rect_64" />
    <rect x="380" y="196.1" width="54.2" height="23" fill="#CFAF93" stroke="#FFFFFF" stroke-width="0.5" id="rect_63" />
    <rect x="380" y="219.1" width="54.2" height="23" fill="#B8AEBA" stroke="#FFFFFF" stroke-width="0.5" id="rect_62" />
    <rect x="380" y="242.1" width="54.2" height="23" fill="#FFB345" stroke="#FFFFFF" stroke-width="0.5" id="rect_61" />
    <rect x="380" y="265.1" width="54.2" height="23" fill="#DBB080" stroke="#FFFFFF" stroke-width="0.5" id="rect_60" />
    <rect x="434.2" y="12.1" width="54.2" height="23" fill="#C4AFA7" stroke="#FFFFFF" stroke-width="0.5" id="rect_59" />
    <rect x="434.2" y="35.1" width="54.2" height="23" fill="#CFAF93" stroke="#FFFFFF" stroke-width="0.5" id="rect_58" />
    <rect x="434.2" y="58.1" width="54.2" height="23" fill="#DBB080" stroke="#FFFFFF" stroke-width="0.5" id="rect_57" />
    <rect x="434.2" y="81.1" width="54.2" height="23" fill="#F3B259" stroke="#FFFFFF" stroke-width="0.5" id="rect_56" />
    <rect x="434.2" y="104.1" width="54.2" height="23" fill="#CFAF93" stroke="#FFFFFF" stroke-width="0.5" id="rect_55" />
    <rect x="434.2" y="127.1" width="54.2" height="23" fill="#B8AEBA" stroke="#FFFFFF" stroke-width="0.5" id="rect_54" />
    <rect x="434.2" y="150.1" width="54.2" height="23" fill="#C4AFA7" stroke="#FFFFFF" stroke-width="0.5" id="rect_53" />
    <rect x="434.2" y="173.1" width="54.2" height="23" fill="#DBB080" stroke="#FFFFFF" stroke-width="0.5" id="rect_52" />
    <rect x="434.2" y="196.1" width="54.2" height="23" fill="#C4AFA7" stroke="#FFFFFF" stroke-width="0.5" id="rect_51" />
    <rect x="434.2" y="219.1" width="54.2" height="23" fill="#ACADCE" stroke="#FFFFFF" stroke-width="0.5" id="rect_50" />
    <rect x="434.2" y="242.1" width="54.2" height="23" fill="#F3B259" stroke="#FFFFFF" stroke-width="0.5" id="rect_49" />
    <rect x="434.2" y="265.1" width="54.2" height="23" fill="#CFAF93" stroke="#FFFFFF" stroke-width="0.5" id="rect_48" />
    <rect x="488.3" y="12.1" width="54.2" height="23" fill="#B8AEBA" stroke="#FFFFFF" stroke-width="0.5" id="rect_47" />
    <rect x="488.3" y="35.1" width="54.2" height="23" fill="#B8AEBA" stroke="#FFFFFF" stroke-width="0.5" id="rect_46" />
    <rect x="488.3" y="58.1" width="54.2" height="23" fill="#C4AFA7" stroke="#FFFFFF" stroke-width="0.5" id="rect_45" />
    <rect x="488.3" y="81.1" width="54.2" height="23" fill="#DBB080" stroke="#FFFFFF" stroke-width="0.5" id="rect_44" />
    <rect x="488.3" y="104.1" width="54.2" height="23" fill="#B8AEBA" stroke="#FFFFFF" stroke-width="0.5" id="rect_43" />
    <rect x="488.3" y="127.1" width="54.2" height="23" fill="#ACADCE" stroke="#FFFFFF" stroke-width="0.5" id="rect_42" />
    <rect x="488.3" y="150.1" width="54.2" height="23" fill="#B8AEBA" stroke="#FFFFFF" stroke-width="0.5" id="rect_41" />
    <rect x="488.3" y="173.1" width="54.2" height="23" fill="#C4AFA7" stroke="#FFFFFF" stroke-width="0.5" id="rect_40" />
    <rect x="488.3" y="196.1" width="54.2" height="23" fill="#B8AEBA" stroke="#FFFFFF" stroke-width="0.5" id="rect_39" />
    <rect x="488.3" y="219.1" width="54.2" height="23" fill="#ACADCE" stroke="#FFFFFF" stroke-width="0.5" id="rect_38" />
    <rect x="488.3" y="242.1" width="54.2" height="23" fill="#DBB080" stroke="#FFFFFF" stroke-width="0.5" id="rect_37" />
    <rect x="488.3" y="265.1" width="54.2" height="23" fill="#B8AEBA" stroke="#FFFFFF" stroke-width="0.5" id="rect_36" />
    <rect x="542.5" y="12.1" width="54.2" height="23" fill="#ACADCE" stroke="#FFFFFF" stroke-width="0.5" id="rect_35" />
    <rect x="542.5" y="35.1" width="54.2" height="23" fill="#A0ACE1" stroke="#FFFFFF" stroke-width="0.5" id="rect_34" />
    <rect x="542.5" y="58.1" width="54.2" height="23" fill="#ACADCE" stroke="#FFFFFF" stroke-width="0.5" id="rect_33" />
    <rect x="542.5" y="81.1" width="54.2" height="23" fill="#C4AFA7" stroke="#FFFFFF" stroke-width="0.5" id="rect_32" />
    <rect x="542.5" y="104.1" width="54.2" height="23" fill="#ACADCE" stroke="#FFFFFF" stroke-width="0.5" id="rect_31" />
    <rect x="542.5" y="127.1" width="54.2" height="23" fill="#A0ACE1" stroke="#FFFFFF" stroke-width="0.5" id="rect_30" />
    <rect x="542.5" y="150.1" width="54.2" height="23" fill="#94ABF5" stroke="#FFFFFF" stroke-width="0.5" id="rect_29" />
    <rect x="542.5" y="173.1" width="54.2" height="23" fill="#ACADCE" stroke="#FFFFFF" stroke-width="0.5" id="rect_28" />
    <rect x="542.5" y="196.1" width="54.2" height="23" fill="#A0ACE1" stroke="#FFFFFF" stroke-width="0.5" id="rect_27" />
    <rect x="542.5" y="219.1" width="54.2" height="23" fill="#94ABF5" stroke="#FFFFFF" stroke-width="0.5" id="rect_26" />
    <rect x="542.5" y="242.1" width="54.2" height="23" fill="#C4AFA7" stroke="#FFFFFF" stroke-width="0.5" id="rect_25" />
    <rect x="542.5" y="265.1" width="54.2" height="23" fill="#B8AEBA" stroke="#FFFFFF" stroke-width="0.5" id="rect_24" />
    <rect x="596.7" y="12.1" width="54.2" height="23" fill="#A0ACE1" stroke="#FFFFFF" stroke-width="0.5" id="rect_23" />
    <rect x="596.7" y="35.1" width="54.2" height="23" fill="#94ABF5" stroke="#FFFFFF" stroke-width="0.5" id="rect_22" />
    <rect x="596.7" y="58.1" width="54.2" height="23" fill="#ACADCE" stroke="#FFFFFF" stroke-width="0.5" id="rect_21" />
    <rect x="596.7" y="81.1" width="54.2" height="23" fill="#ACADCE" stroke="#FFFFFF" stroke-width="0.5" id="rect_20" />
    <rect x="596.7" y="104.1" width="54.2" height="23" fill="#A0ACE1" stroke="#FFFFFF" stroke-width="0.5" id="rect_19" />
    <rect x="596.7" y="127.1" width="54.2" height="23" fill="#94ABF5" stroke="#FFFFFF" stroke-width="0.5" id="rect_18" />
    <rect x="596.7" y="150.1" width="54.2" height="23" fill="#849FF5" stroke="#FFFFFF" stroke-width="0.5" id="rect_17" />
    <rect x="596.7" y="173.1" width="54.2" height="23" fill="#A0ACE1" stroke="#FFFFFF" stroke-width="0.5" id="rect_16" />
    <rect x="596.7" y="196.1" width="54.2" height="23" fill="#94ABF5" stroke="#FFFFFF" stroke-width="0.5" id="rect_15" />
    <rect x="596.7" y="219.1" width="54.2" height="23" fill="#94ABF5" stroke="#FFFFFF" stroke-width="0.5" id="rect_14" />
    <rect x="596.7" y="242.1" width="54.2" height="23" fill="#ACADCE" stroke="#FFFFFF" stroke-width="0.5" id="rect_13" />
    <rect x="596.7" y="265.1" width="54.2" height="23" fill="#A0ACE1" stroke="#FFFFFF" stroke-width="0.5" id="rect_12" />
    <rect x="650.8" y="12.1" width="54.2" height="23" fill="#A0ACE1" stroke="#FFFFFF" stroke-width="0.5" id="rect_11" />
    <rect x="650.8" y="35.1" width="54.2" height="23" fill="#7F9BF5" stroke="#FFFFFF" stroke-width="0.5" id="rect_10" />
    <rect x="650.8" y="58.1" width="54.2" height="23" fill="#94ABF5" stroke="#FFFFFF" stroke-width="0.5" id="rect_9" />
    <rect x="650.8" y="81.1" width="54.2" height="23" fill="#ACADCE" stroke="#FFFFFF" stroke-width="0.5" id="rect_8" />
    <rect x="650.8" y="104.1" width="54.2" height="23" fill="#A0ACE1" stroke="#FFFFFF" stroke-width="0.5" id="rect_7" />
    <rect x="650.8" y="127.1" width="54.2" height="23" fill="#849FF5" stroke="#FFFFFF" stroke-width="0.5" id="rect_6" />
    <rect x="650.8" y="150.1" width="54.2" height="23" fill="#7F9BF5" stroke="#FFFFFF" stroke-width="0.5" id="rect_5" />
    <rect x="650.8" y="173.1" width="54.2" height="23" fill="#94ABF5" stroke="#FFFFFF" stroke-width="0.5" id="rect_4" />
    <rect x="650.8" y="196.1" width="54.2" height="23" fill="#94ABF5" stroke="#FFFFFF" stroke-width="0.5" id="rect_3" />
    <rect x="650.8" y="219.1" width="54.2" height="23" fill="#7F9BF5" stroke="#FFFFFF" stroke-width="0.5" id="rect_2" />
    <rect x="650.8" y="242.1" width="54.2" height="23" fill="#94ABF5" stroke="#FFFFFF" stroke-width="0.5" id="rect_1" />
    <rect x="650.8" y="265.1" width="54.2" height="23" fill="#94ABF5" stroke="#FFFFFF" stroke-width="0.5" id="rect" />
  </g>
</svg>