<?xml version='1.0' encoding='us-ascii'?>
<svg xmlns="http://www.w3.org/2000/svg" width="880" height="340" viewBox="-440,-170,880,340" style="max-width: 100%; height: auto; font: 10px sans-serif;">
    <circle cx="0" cy="0" r="100" fill="lightgray" id="circle" />
    <path d="M0,0 L0,-100 A100,100 0 0,1 86,-50 Z" fill="skyblue" id="path_5" />
    <path d="M0,0 L86,-50 A100,100 0 0,1 100,0 Z" fill="lightgreen" id="path_4" />
    <path d="M0,0 L100,0 A100,100 0 0,1 50,86 Z" fill="salmon" id="path_3" />
    <path d="M0,0 L50,86 A100,100 0 0,1 -50,86 Z" fill="plum" id="path_2" />
    <path d="M0,0 L-50,86 A100,100 0 0,1 -86,-50 Z" fill="gold" id="path_1" />
    <path d="M0,0 L-86,-50 A100,100 0 0,1 0,-100 Z" fill="coral" id="path" />
</svg>