<?xml version='1.0' encoding='UTF-8'?>
<svg xmlns="http://www.w3.org/2000/svg" xmlns:xlink="http://www.w3.org/1999/xlink" xmlns:data="ApexChartsNS" version="1.1" class="apexcharts-svg apexcharts-zoomable" transform="translate(0, 0)" width="650" height="350">
  <g class="apexcharts-yaxis-texts-g">
    <text x="20" y="57.666666666666664" text-anchor="end" dominant-baseline="auto" font-size="11px" font-family="Helvetica, Arial, sans-serif" font-weight="400" fill="#373d3f">
      <tspan>70</tspan>
      <title>70</title>
    </text>
    <text x="20" y="91.14495238095239" text-anchor="end" dominant-baseline="auto" font-size="11px" font-family="Helvetica, Arial, sans-serif" font-weight="400" fill="#373d3f">
      <tspan>60</tspan>
      <title>60</title>
    </text>
    <text x="20" y="124.62323809523811" text-anchor="end" dominant-baseline="auto" font-size="11px" font-family="Helvetica, Arial, sans-serif" font-weight="400" fill="#373d3f">
      <tspan>50</tspan>
      <title>50</title>
    </text>
    <text x="20" y="158.10152380952383" text-anchor="end" dominant-baseline="auto" font-size="11px" font-family="Helvetica, Arial, sans-serif" font-weight="400" fill="#373d3f">
      <tspan>40</tspan>
      <title>40</title>
    </text>
    <text x="20" y="191.57980952380956" text-anchor="end" dominant-baseline="auto" font-size="11px" font-family="Helvetica, Arial, sans-serif" font-weight="400" fill="#373d3f">
      <tspan>30</tspan>
      <title>30</title>
    </text>
    <text x="20" y="225.0580952380953" text-anchor="end" dominant-baseline="auto" font-size="11px" font-family="Helvetica, Arial, sans-serif" font-weight="400" fill="#373d3f">
      <tspan>20</tspan>
      <title>20</title>
    </text>
    <text x="20" y="258.536380952381" text-anchor="end" dominant-baseline="auto" font-size="11px" font-family="Helvetica, Arial, sans-serif" font-weight="400" fill="#373d3f">
      <tspan>10</tspan>
      <title>10</title>
    </text>
    <text x="20" y="292.01466666666676" text-anchor="end" dominant-baseline="auto" font-size="11px" font-family="Helvetica, Arial, sans-serif" font-weight="400" fill="#373d3f">
      <tspan>0</tspan>
      <title>0</title>
    </text>
  </g>
  <g class="apexcharts-inner apexcharts-graphical" transform="translate(39.25, 54)">
    <defs>
      <clipPath id="gridRectMask15q6agl6j">
        <rect width="595.576171875" height="240.348" x="-3" y="-3" rx="0" ry="0" stroke-dasharray="0" fill="#fff" stroke="none" stroke-width="0" opacity="1"/>
      </clipPath>
      <clipPath id="gridRectBarMask15q6agl6j">
        <rect width="595.576171875" height="240.348" x="-3" y="-3" rx="0" ry="0" stroke-dasharray="0" fill="#fff" stroke="none" stroke-width="0" opacity="1"/>
      </clipPath>
      <clipPath id="gridRectMarkerMask15q6agl6j">
        <rect width="589.576171875" height="234.348" x="0" y="0" rx="0" ry="0" stroke-dasharray="0" fill="#fff" stroke="none" stroke-width="0" opacity="1"/>
      </clipPath>
      <clipPath id="forecastMask15q6agl6j"/>
      <clipPath id="nonForecastMask15q6agl6j"/>
    </defs>
    <rect width="0" height="234.348" x="-500" y="0" rx="0" ry="0" stroke-dasharray="3" y2="234.348" filter="none" fill-opacity="0.9" x1="-500" x2="-500" fill="#b1b9c4" stroke="#b6b6b6" stroke-width="1" opacity="1"/>
    <line x1="0" y1="234.348" x2="0" y2="240.348" stroke-dasharray="0" stroke-linecap="butt" stroke="#e0e0e0"/>
    <line x1="49.13134765625" y1="234.348" x2="49.13134765625" y2="240.348" stroke-dasharray="0" stroke-linecap="butt" stroke="#e0e0e0"/>
    <line x1="98.2626953125" y1="234.348" x2="98.2626953125" y2="240.348" stroke-dasharray="0" stroke-linecap="butt" stroke="#e0e0e0"/>
    <line x1="147.39404296875" y1="234.348" x2="147.39404296875" y2="240.348" stroke-dasharray="0" stroke-linecap="butt" stroke="#e0e0e0"/>
    <line x1="196.525390625" y1="234.348" x2="196.525390625" y2="240.348" stroke-dasharray="0" stroke-linecap="butt" stroke="#e0e0e0"/>
    <line x1="245.65673828125" y1="234.348" x2="245.65673828125" y2="240.348" stroke-dasharray="0" stroke-linecap="butt" stroke="#e0e0e0"/>
    <line x1="294.7880859375" y1="234.348" x2="294.7880859375" y2="240.348" stroke-dasharray="0" stroke-linecap="butt" stroke="#e0e0e0"/>
    <line x1="343.91943359375" y1="234.348" x2="343.91943359375" y2="240.348" stroke-dasharray="0" stroke-linecap="butt" stroke="#e0e0e0"/>
    <line x1="393.05078125" y1="234.348" x2="393.05078125" y2="240.348" stroke-dasharray="0" stroke-linecap="butt" stroke="#e0e0e0"/>
    <line x1="442.18212890625" y1="234.348" x2="442.18212890625" y2="240.348" stroke-dasharray="0" stroke-linecap="butt" stroke="#e0e0e0"/>
    <line x1="491.3134765625" y1="234.348" x2="491.3134765625" y2="240.348" stroke-dasharray="0" stroke-linecap="butt" stroke="#e0e0e0"/>
    <line x1="540.44482421875" y1="234.348" x2="540.44482421875" y2="240.348" stroke-dasharray="0" stroke-linecap="butt" stroke="#e0e0e0"/>
    <line x1="589.576171875" y1="234.348" x2="589.576171875" y2="240.348" stroke-dasharray="0" stroke-linecap="butt" stroke="#e0e0e0"/>
    <g class="apexcharts-grid">
      <g class="apexcharts-gridlines-horizontal">
        <line x1="0" y1="33.47828571428572" x2="589.576171875" y2="33.47828571428572" stroke-dasharray="0" stroke-linecap="butt" stroke="#e0e0e0"/>
        <line x1="0" y1="66.95657142857144" x2="589.576171875" y2="66.95657142857144" stroke-dasharray="0" stroke-linecap="butt" stroke="#e0e0e0"/>
        <line x1="0" y1="100.43485714285715" x2="589.576171875" y2="100.43485714285715" stroke-dasharray="0" stroke-linecap="butt" stroke="#e0e0e0"/>
        <line x1="0" y1="133.91314285714287" x2="589.576171875" y2="133.91314285714287" stroke-dasharray="0" stroke-linecap="butt" stroke="#e0e0e0"/>
        <line x1="0" y1="167.3914285714286" x2="589.576171875" y2="167.3914285714286" stroke-dasharray="0" stroke-linecap="butt" stroke="#e0e0e0"/>
        <line x1="0" y1="200.86971428571434" x2="589.576171875" y2="200.86971428571434" stroke-dasharray="0" stroke-linecap="butt" stroke="#e0e0e0"/>
        <line x1="0" y1="234.34800000000007" x2="589.576171875" y2="234.34800000000007" stroke-dasharray="0" stroke-linecap="butt" stroke="#e0e0e0"/>
      </g>
      <g class="apexcharts-gridlines-vertical"/>
      <line x1="0" y1="234.348" x2="589.576171875" y2="234.348" stroke-dasharray="0" stroke-linecap="butt" stroke="transparent"/>
      <line x1="0" y1="1" x2="0" y2="234.348" stroke-dasharray="0" stroke-linecap="butt" stroke="transparent"/>
    </g>
    <g class="apexcharts-grid-borders">
      <line x1="0" y1="0" x2="589.576171875" y2="0" stroke-dasharray="0" stroke-linecap="butt" stroke="#e0e0e0"/>
      <line x1="0" y1="234.348" x2="589.576171875" y2="234.348" stroke-dasharray="0" stroke-linecap="butt" stroke="#e0e0e0" stroke-width="1"/>
    </g>
    <g class="apexcharts-bubble-series apexcharts-plot-series">
      <g class="apexcharts-series" zIndex="0" seriesName="Bubble1" data:longestSeries="true" rel="1" data:realIndex="0">
        <g class="apexcharts-series-markers-wrap" data:realIndex="0">
          <g class="apexcharts-series-markers apexcharts-series-bubble" clip-path="url(#gridRectMarkerMask15q6agl6j)">
            <path d="M 0, 113.82617142857144 &#10;           m -14.899280172413793, 0 &#10;           a 14.899280172413793,14.899280172413793 0 1,0 29.798560344827585,0 &#10;           a 14.899280172413793,14.899280172413793 0 1,0 -29.798560344827585,0" fill-opacity="1" stroke-opacity="0.9" stroke-linecap="butt" stroke-dasharray="0" cx="0" cy="113.82617142857144" shape="circle" rel="0" j="0" index="0" default-marker-size="14.899280172413793" fill="rgba(0,143,251,0.8)" stroke="#ffffff" stroke-width="2"/>
            <path d="M 155.9013501468121, 137.26097142857145 &#10;           m -6.5657844827586205, 0 &#10;           a 6.5657844827586205,6.5657844827586205 0 1,0 13.131568965517241,0 &#10;           a 6.5657844827586205,6.5657844827586205 0 1,0 -13.131568965517241,0" fill-opacity="1" stroke-opacity="0.9" stroke-linecap="butt" stroke-dasharray="0" cx="155.9013501468121" cy="137.26097142857145" shape="circle" rel="1" j="1" index="0" default-marker-size="6.5657844827586205" fill="rgba(0,143,251,0.8)" stroke="#ffffff" stroke-width="2"/>
          </g>
          <g class="apexcharts-series-markers apexcharts-series-bubble" clip-path="url(#gridRectMarkerMask15q6agl6j)">
            <path d="M 578.4968881082215, 113.82617142857144 &#10;           m -11.868918103448276, 0 &#10;           a 11.868918103448276,11.868918103448276 0 1,0 23.737836206896553,0 &#10;           a 11.868918103448276,11.868918103448276 0 1,0 -23.737836206896553,0" fill-opacity="1" stroke-opacity="0.9" stroke-linecap="butt" stroke-dasharray="0" cx="578.4968881082215" cy="113.82617142857144" shape="circle" rel="2" j="2" index="0" default-marker-size="11.868918103448276" fill="rgba(0,143,251,0.8)" stroke="#ffffff" stroke-width="2"/>
          </g>
          <g class="apexcharts-series-markers apexcharts-series-bubble" clip-path="url(#gridRectMarkerMask15q6agl6j)">
            <path d="M 151.94446308724832, 184.13057142857144 &#10;           m -16.16193103448276, 0 &#10;           a 16.16193103448276,16.16193103448276 0 1,0 32.32386206896552,0 &#10;           a 16.16193103448276,16.16193103448276 0 1,0 -32.32386206896552,0" fill-opacity="1" stroke-opacity="0.9" stroke-linecap="butt" stroke-dasharray="0" cx="151.94446308724832" cy="184.13057142857144" shape="circle" rel="3" j="3" index="0" default-marker-size="16.16193103448276" fill="rgba(0,143,251,0.8)" stroke="#ffffff" stroke-width="2"/>
          </g>
          <g class="apexcharts-series-markers apexcharts-series-bubble" clip-path="url(#gridRectMarkerMask15q6agl6j)">
            <path d="M 534.1797530411073, 123.86965714285716 &#10;           m -7.323375, 0 &#10;           a 7.323375,7.323375 0 1,0 14.64675,0 &#10;           a 7.323375,7.323375 0 1,0 -14.64675,0" fill-opacity="1" stroke-opacity="0.9" stroke-linecap="butt" stroke-dasharray="0" cx="534.1797530411073" cy="123.86965714285716" shape="circle" rel="4" j="4" index="0" default-marker-size="7.323375" fill="rgba(0,143,251,0.8)" stroke="#ffffff" stroke-width="2"/>
          </g>
          <g class="apexcharts-series-markers apexcharts-series-bubble" clip-path="url(#gridRectMarkerMask15q6agl6j)">
            <path d="M 146.40482120385906, 170.73925714285716 &#10;           m -8.586025862068965, 0 &#10;           a 8.586025862068965,8.586025862068965 0 1,0 17.17205172413793,0 &#10;           a 8.586025862068965,8.586025862068965 0 1,0 -17.17205172413793,0" fill-opacity="1" stroke-opacity="0.9" stroke-linecap="butt" stroke-dasharray="0" cx="146.40482120385906" cy="170.73925714285716" shape="circle" rel="5" j="5" index="0" default-marker-size="8.586025862068965" fill="rgba(0,143,251,0.8)" stroke="#ffffff" stroke-width="2"/>
          </g>
          <g class="apexcharts-series-markers apexcharts-series-bubble" clip-path="url(#gridRectMarkerMask15q6agl6j)">
            <path d="M 60.93606071728188, 63.608742857142886 &#10;           m -11.868918103448276, 0 &#10;           a 11.868918103448276,11.868918103448276 0 1,0 23.737836206896553,0 &#10;           a 11.868918103448276,11.868918103448276 0 1,0 -23.737836206896553,0" fill-opacity="1" stroke-opacity="0.9" stroke-linecap="butt" stroke-dasharray="0" cx="60.93606071728188" cy="63.608742857142886" shape="circle" rel="6" j="6" index="0" default-marker-size="11.868918103448276" fill="rgba(0,143,251,0.8)" stroke="#ffffff" stroke-width="2"/>
          </g>
          <g class="apexcharts-series-markers apexcharts-series-bubble" clip-path="url(#gridRectMarkerMask15q6agl6j)">
            <path d="M 500.9419017407718, 77.00005714285717 &#10;           m -4.798073275862069, 0 &#10;           a 4.798073275862069,4.798073275862069 0 1,0 9.596146551724138,0 &#10;           a 4.798073275862069,4.798073275862069 0 1,0 -9.596146551724138,0" fill-opacity="1" stroke-opacity="0.9" stroke-linecap="butt" stroke-dasharray="0" cx="500.9419017407718" cy="77.00005714285717" shape="circle" rel="7" j="7" index="0" default-marker-size="4.798073275862069" fill="rgba(0,143,251,0.8)" stroke="#ffffff" stroke-width="2"/>
          </g>
          <g class="apexcharts-series-markers apexcharts-series-bubble" clip-path="url(#gridRectMarkerMask15q6agl6j)">
            <path d="M 319.71647441275167, 180.78274285714286 &#10;           m -16.919521551724138, 0 &#10;           a 16.919521551724138,16.919521551724138 0 1,0 33.839043103448276,0 &#10;           a 16.919521551724138,16.919521551724138 0 1,0 -33.839043103448276,0" fill-opacity="1" stroke-opacity="0.9" stroke-linecap="butt" stroke-dasharray="0" cx="319.71647441275167" cy="180.78274285714286" shape="circle" rel="8" j="8" index="0" default-marker-size="16.919521551724138" fill="rgba(0,143,251,0.8)" stroke="#ffffff" stroke-width="2"/>
          </g>
          <g class="apexcharts-series-markers apexcharts-series-bubble" clip-path="url(#gridRectMarkerMask15q6agl6j)">
            <path d="M 275.3993393456376, 120.52182857142859 &#10;           m -10.60626724137931, 0 &#10;           a 10.60626724137931,10.60626724137931 0 1,0 21.21253448275862,0 &#10;           a 10.60626724137931,10.60626724137931 0 1,0 -21.21253448275862,0" fill-opacity="1" stroke-opacity="0.9" stroke-linecap="butt" stroke-dasharray="0" cx="275.3993393456376" cy="120.52182857142859" shape="circle" rel="9" j="9" index="0" default-marker-size="10.60626724137931" fill="rgba(0,143,251,0.8)" stroke="#ffffff" stroke-width="2"/>
          </g>
          <g class="apexcharts-series-markers apexcharts-series-bubble" clip-path="url(#gridRectMarkerMask15q6agl6j)">
            <path d="M 138.49104708473155, 200.8697142857143 &#10;           m -4.04048275862069, 0 &#10;           a 4.04048275862069,4.04048275862069 0 1,0 8.08096551724138,0 &#10;           a 4.04048275862069,4.04048275862069 0 1,0 -8.08096551724138,0" fill-opacity="1" stroke-opacity="0.9" stroke-linecap="butt" stroke-dasharray="0" cx="138.49104708473155" cy="200.8697142857143" shape="circle" rel="10" j="10" index="0" default-marker-size="4.04048275862069" fill="rgba(0,143,251,0.8)" stroke="#ffffff" stroke-width="2"/>
          </g>
          <g class="apexcharts-series-markers apexcharts-series-bubble" clip-path="url(#gridRectMarkerMask15q6agl6j)">
            <path d="M 589.576171875, 46.86960000000002 &#10;           m -15.656870689655173, 0 &#10;           a 15.656870689655173,15.656870689655173 0 1,0 31.313741379310347,0 &#10;           a 15.656870689655173,15.656870689655173 0 1,0 -31.313741379310347,0" fill-opacity="1" stroke-opacity="0.9" stroke-linecap="butt" stroke-dasharray="0" cx="589.576171875" cy="46.86960000000002" shape="circle" rel="11" j="11" index="0" default-marker-size="15.656870689655173" fill="rgba(0,143,251,0.8)" stroke="#ffffff" stroke-width="2"/>
          </g>
          <g class="apexcharts-series-markers apexcharts-series-bubble" clip-path="url(#gridRectMarkerMask15q6agl6j)">
            <path d="M 338.70953229865773, 70.30440000000002 &#10;           m -13.384099137931035, 0 &#10;           a 13.384099137931035,13.384099137931035 0 1,0 26.76819827586207,0 &#10;           a 13.384099137931035,13.384099137931035 0 1,0 -26.76819827586207,0" fill-opacity="1" stroke-opacity="0.9" stroke-linecap="butt" stroke-dasharray="0" cx="338.70953229865773" cy="70.30440000000002" shape="circle" rel="12" j="12" index="0" default-marker-size="13.384099137931035" fill="rgba(0,143,251,0.8)" stroke="#ffffff" stroke-width="2"/>
          </g>
          <g class="apexcharts-series-markers apexcharts-series-bubble" clip-path="url(#gridRectMarkerMask15q6agl6j)">
            <path d="M 204.17537227348993, 137.26097142857145 &#10;           m -7.828435344827587, 0 &#10;           a 7.828435344827587,7.828435344827587 0 1,0 15.656870689655173,0 &#10;           a 7.828435344827587,7.828435344827587 0 1,0 -15.656870689655173,0" fill-opacity="1" stroke-opacity="0.9" stroke-linecap="butt" stroke-dasharray="0" cx="204.17537227348993" cy="137.26097142857145" shape="circle" rel="13" j="13" index="0" default-marker-size="7.828435344827587" fill="rgba(0,143,251,0.8)" stroke="#ffffff" stroke-width="2"/>
          </g>
          <g class="apexcharts-series-markers apexcharts-series-bubble" clip-path="url(#gridRectMarkerMask15q6agl6j)">
            <path d="M 208.1322593330537, 93.73920000000001 &#10;           m -9.343616379310346, 0 &#10;           a 9.343616379310346,9.343616379310346 0 1,0 18.68723275862069,0 &#10;           a 9.343616379310346,9.343616379310346 0 1,0 -18.68723275862069,0" fill-opacity="1" stroke-opacity="0.9" stroke-linecap="butt" stroke-dasharray="0" cx="208.1322593330537" cy="93.73920000000001" shape="circle" rel="14" j="14" index="0" default-marker-size="9.343616379310346" fill="rgba(0,143,251,0.8)" stroke="#ffffff" stroke-width="2"/>
          </g>
          <g class="apexcharts-series-markers apexcharts-series-bubble" clip-path="url(#gridRectMarkerMask15q6agl6j)">
            <path d="M 30.863719064597316, 113.82617142857144 &#10;           m -6.060724137931034, 0 &#10;           a 6.060724137931034,6.060724137931034 0 1,0 12.121448275862068,0 &#10;           a 6.060724137931034,6.060724137931034 0 1,0 -12.121448275862068,0" fill-opacity="1" stroke-opacity="0.9" stroke-linecap="butt" stroke-dasharray="0" cx="30.863719064597316" cy="113.82617142857144" shape="circle" rel="15" j="15" index="0" default-marker-size="6.060724137931034" fill="rgba(0,143,251,0.8)" stroke="#ffffff" stroke-width="2"/>
          </g>
          <g class="apexcharts-series-markers apexcharts-series-bubble" clip-path="url(#gridRectMarkerMask15q6agl6j)">
            <path d="M 269.06832005033556, 147.30445714285716 &#10;           m -6.5657844827586205, 0 &#10;           a 6.5657844827586205,6.5657844827586205 0 1,0 13.131568965517241,0 &#10;           a 6.5657844827586205,6.5657844827586205 0 1,0 -13.131568965517241,0" fill-opacity="1" stroke-opacity="0.9" stroke-linecap="butt" stroke-dasharray="0" cx="269.06832005033556" cy="147.30445714285716" shape="circle" rel="16" j="16" index="0" default-marker-size="6.5657844827586205" fill="rgba(0,143,251,0.8)" stroke="#ffffff" stroke-width="2"/>
          </g>
          <g class="apexcharts-series-markers apexcharts-series-bubble" clip-path="url(#gridRectMarkerMask15q6agl6j)">
            <path d="M 37.98611577181208, 33.47828571428573 &#10;           m -12.121448275862068, 0 &#10;           a 12.121448275862068,12.121448275862068 0 1,0 24.242896551724137,0 &#10;           a 12.121448275862068,12.121448275862068 0 1,0 -24.242896551724137,0" fill-opacity="1" stroke-opacity="0.9" stroke-linecap="butt" stroke-dasharray="0" cx="37.98611577181208" cy="33.47828571428573" shape="circle" rel="17" j="17" index="0" default-marker-size="12.121448275862068" fill="rgba(0,143,251,0.8)" stroke="#ffffff" stroke-width="2"/>
          </g>
          <g class="apexcharts-series-markers apexcharts-series-bubble" clip-path="url(#gridRectMarkerMask15q6agl6j)">
            <path d="M 52.23090918624161, 33.47828571428573 &#10;           m -10.353737068965517, 0 &#10;           a 10.353737068965517,10.353737068965517 0 1,0 20.707474137931033,0 &#10;           a 10.353737068965517,10.353737068965517 0 1,0 -20.707474137931033,0" fill-opacity="1" stroke-opacity="0.9" stroke-linecap="butt" stroke-dasharray="0" cx="52.23090918624161" cy="33.47828571428573" shape="circle" rel="18" j="18" index="0" default-marker-size="10.353737068965517" fill="rgba(0,143,251,0.8)" stroke="#ffffff" stroke-width="2"/>
          </g>
          <g class="apexcharts-series-markers apexcharts-series-bubble" clip-path="url(#gridRectMarkerMask15q6agl6j)">
            <path d="M 416.2645186661074, 170.73925714285716 &#10;           m -12.121448275862068, 0 &#10;           a 12.121448275862068,12.121448275862068 0 1,0 24.242896551724137,0 &#10;           a 12.121448275862068,12.121448275862068 0 1,0 -24.242896551724137,0" fill-opacity="1" stroke-opacity="0.9" stroke-linecap="butt" stroke-dasharray="0" cx="416.2645186661074" cy="170.73925714285716" shape="circle" rel="19" j="19" index="0" default-marker-size="12.121448275862068" fill="rgba(0,143,251,0.8)" stroke="#ffffff" stroke-width="2"/>
          </g>
          <g class="apexcharts-series-markers">
            <path d="M 0, 0 &#10;           m -0, 0 &#10;           a 0,0 0 1,0 0,0 &#10;           a 0,0 0 1,0 -0,0" fill-opacity="1" stroke-opacity="0.9" stroke-linecap="butt" stroke-dasharray="0" cx="0" cy="0" shape="circle" default-marker-size="0" fill="#008ffb" stroke="#ffffff" stroke-width="2"/>
          </g>
        </g>
      </g>
      <g class="apexcharts-series apexcharts-series-collapsed" zIndex="1" seriesName="Bubble2" data:longestSeries="false" rel="2" data:realIndex="1">
        <g class="apexcharts-series-markers-wrap" data:realIndex="1">
          <g class="apexcharts-series-markers">
            <path d="M 0, 0 &#10;           m -0, 0 &#10;           a 0,0 0 1,0 0,0 &#10;           a 0,0 0 1,0 -0,0" fill-opacity="1" stroke-opacity="0.9" stroke-linecap="butt" stroke-dasharray="0" cx="0" cy="0" shape="circle" default-marker-size="0" fill="#00e396" stroke="#ffffff" stroke-width="2"/>
          </g>
        </g>
      </g>
      <g class="apexcharts-series apexcharts-series-collapsed" zIndex="2" seriesName="Bubble3" data:longestSeries="false" rel="3" data:realIndex="2">
        <g class="apexcharts-series-markers-wrap" data:realIndex="2">
          <g class="apexcharts-series-markers">
            <path d="M 0, 0 &#10;           m -0, 0 &#10;           a 0,0 0 1,0 0,0 &#10;           a 0,0 0 1,0 -0,0" fill-opacity="1" stroke-opacity="0.9" stroke-linecap="butt" stroke-dasharray="0" cx="0" cy="0" shape="circle" default-marker-size="0" fill="#feb019" stroke="#ffffff" stroke-width="2"/>
          </g>
        </g>
      </g>
      <g class="apexcharts-series" zIndex="3" seriesName="Bubble4" data:longestSeries="true" rel="4" data:realIndex="3">
        <g class="apexcharts-series-markers-wrap" data:realIndex="3">
          <g class="apexcharts-series-markers apexcharts-series-bubble" clip-path="url(#gridRectMarkerMask15q6agl6j)">
            <path d="M 403.60248007550337, 33.47828571428573 &#10;           m -18.68723275862069, 0 &#10;           a 18.68723275862069,18.68723275862069 0 1,0 37.37446551724138,0 &#10;           a 18.68723275862069,18.68723275862069 0 1,0 -37.37446551724138,0" fill-opacity="1" stroke-opacity="0.9" stroke-linecap="butt" stroke-dasharray="0" cx="403.60248007550337" cy="33.47828571428573" shape="circle" rel="0" j="0" index="3" default-marker-size="18.68723275862069" fill="rgba(255,69,96,0.8)" stroke="#ffffff" stroke-width="2"/>
            <path d="M 76.76360895553691, 140.60880000000003 &#10;           m -4.2930129310344824, 0 &#10;           a 4.2930129310344824,4.2930129310344824 0 1,0 8.586025862068965,0 &#10;           a 4.2930129310344824,4.2930129310344824 0 1,0 -8.586025862068965,0" fill-opacity="1" stroke-opacity="0.9" stroke-linecap="butt" stroke-dasharray="0" cx="76.76360895553691" cy="140.60880000000003" shape="circle" rel="1" j="1" index="3" default-marker-size="4.2930129310344824" fill="rgba(255,69,96,0.8)" stroke="#ffffff" stroke-width="2"/>
          </g>
          <g class="apexcharts-series-markers apexcharts-series-bubble" clip-path="url(#gridRectMarkerMask15q6agl6j)">
            <path d="M 322.09060664848994, 174.08708571428573 &#10;           m -11.36385775862069, 0 &#10;           a 11.36385775862069,11.36385775862069 0 1,0 22.72771551724138,0 &#10;           a 11.36385775862069,11.36385775862069 0 1,0 -22.72771551724138,0" fill-opacity="1" stroke-opacity="0.9" stroke-linecap="butt" stroke-dasharray="0" cx="322.09060664848994" cy="174.08708571428573" shape="circle" rel="2" j="2" index="3" default-marker-size="11.36385775862069" fill="rgba(255,69,96,0.8)" stroke="#ffffff" stroke-width="2"/>
          </g>
          <g class="apexcharts-series-markers apexcharts-series-bubble" clip-path="url(#gridRectMarkerMask15q6agl6j)">
            <path d="M 92.59115719379194, 66.95657142857144 &#10;           m -7.575905172413793, 0 &#10;           a 7.575905172413793,7.575905172413793 0 1,0 15.151810344827586,0 &#10;           a 7.575905172413793,7.575905172413793 0 1,0 -15.151810344827586,0" fill-opacity="1" stroke-opacity="0.9" stroke-linecap="butt" stroke-dasharray="0" cx="92.59115719379194" cy="66.95657142857144" shape="circle" rel="3" j="3" index="3" default-marker-size="7.575905172413793" fill="rgba(255,69,96,0.8)" stroke="#ffffff" stroke-width="2"/>
          </g>
          <g class="apexcharts-series-markers apexcharts-series-bubble" clip-path="url(#gridRectMarkerMask15q6agl6j)">
            <path d="M 128.20314072986577, 143.95662857142858 &#10;           m -15.151810344827586, 0 &#10;           a 15.151810344827586,15.151810344827586 0 1,0 30.303620689655173,0 &#10;           a 15.151810344827586,15.151810344827586 0 1,0 -30.303620689655173,0" fill-opacity="1" stroke-opacity="0.9" stroke-linecap="butt" stroke-dasharray="0" cx="128.20314072986577" cy="143.95662857142858" shape="circle" rel="4" j="4" index="3" default-marker-size="15.151810344827586" fill="rgba(255,69,96,0.8)" stroke="#ffffff" stroke-width="2"/>
          </g>
          <g class="apexcharts-series-markers apexcharts-series-bubble" clip-path="url(#gridRectMarkerMask15q6agl6j)">
            <path d="M 245.32699769295303, 40.17394285714286 &#10;           m -12.626508620689656, 0 &#10;           a 12.626508620689656,12.626508620689656 0 1,0 25.25301724137931,0 &#10;           a 12.626508620689656,12.626508620689656 0 1,0 -25.25301724137931,0" fill-opacity="1" stroke-opacity="0.9" stroke-linecap="butt" stroke-dasharray="0" cx="245.32699769295303" cy="40.17394285714286" shape="circle" rel="5" j="5" index="3" default-marker-size="12.626508620689656" fill="rgba(255,69,96,0.8)" stroke="#ffffff" stroke-width="2"/>
          </g>
          <g class="apexcharts-series-markers apexcharts-series-bubble" clip-path="url(#gridRectMarkerMask15q6agl6j)">
            <path d="M 267.48556522651006, 93.73920000000001 &#10;           m -18.182172413793104, 0 &#10;           a 18.182172413793104,18.182172413793104 0 1,0 36.36434482758621,0 &#10;           a 18.182172413793104,18.182172413793104 0 1,0 -36.36434482758621,0" fill-opacity="1" stroke-opacity="0.9" stroke-linecap="butt" stroke-dasharray="0" cx="267.48556522651006" cy="93.73920000000001" shape="circle" rel="6" j="6" index="3" default-marker-size="18.182172413793104" fill="rgba(255,69,96,0.8)" stroke="#ffffff" stroke-width="2"/>
          </g>
          <g class="apexcharts-series-markers apexcharts-series-bubble" clip-path="url(#gridRectMarkerMask15q6agl6j)">
            <path d="M 292.0182649958054, 123.86965714285716 &#10;           m -5.050603448275862, 0 &#10;           a 5.050603448275862,5.050603448275862 0 1,0 10.101206896551725,0 &#10;           a 5.050603448275862,5.050603448275862 0 1,0 -10.101206896551725,0" fill-opacity="1" stroke-opacity="0.9" stroke-linecap="butt" stroke-dasharray="0" cx="292.0182649958054" cy="123.86965714285716" shape="circle" rel="7" j="7" index="3" default-marker-size="5.050603448275862" fill="rgba(255,69,96,0.8)" stroke="#ffffff" stroke-width="2"/>
          </g>
          <g class="apexcharts-series-markers apexcharts-series-bubble" clip-path="url(#gridRectMarkerMask15q6agl6j)">
            <path d="M 446.33686031879193, 177.43491428571429 &#10;           m -12.373978448275862, 0 &#10;           a 12.373978448275862,12.373978448275862 0 1,0 24.747956896551724,0 &#10;           a 12.373978448275862,12.373978448275862 0 1,0 -24.747956896551724,0" fill-opacity="1" stroke-opacity="0.9" stroke-linecap="butt" stroke-dasharray="0" cx="446.33686031879193" cy="177.43491428571429" shape="circle" rel="8" j="8" index="3" default-marker-size="12.373978448275862" fill="rgba(255,69,96,0.8)" stroke="#ffffff" stroke-width="2"/>
          </g>
          <g class="apexcharts-series-markers apexcharts-series-bubble" clip-path="url(#gridRectMarkerMask15q6agl6j)">
            <path d="M 359.2853450083893, 143.95662857142858 &#10;           m -9.596146551724138, 0 &#10;           a 9.596146551724138,9.596146551724138 0 1,0 19.192293103448275,0 &#10;           a 9.596146551724138,9.596146551724138 0 1,0 -19.192293103448275,0" fill-opacity="1" stroke-opacity="0.9" stroke-linecap="butt" stroke-dasharray="0" cx="359.2853450083893" cy="143.95662857142858" shape="circle" rel="9" j="9" index="3" default-marker-size="9.596146551724138" fill="rgba(255,69,96,0.8)" stroke="#ffffff" stroke-width="2"/>
          </g>
          <g class="apexcharts-series-markers apexcharts-series-bubble" clip-path="url(#gridRectMarkerMask15q6agl6j)">
            <path d="M 131.3686503775168, 63.608742857142886 &#10;           m -11.111327586206897, 0 &#10;           a 11.111327586206897,11.111327586206897 0 1,0 22.222655172413795,0 &#10;           a 11.111327586206897,11.111327586206897 0 1,0 -22.222655172413795,0" fill-opacity="1" stroke-opacity="0.9" stroke-linecap="butt" stroke-dasharray="0" cx="131.3686503775168" cy="63.608742857142886" shape="circle" rel="10" j="10" index="3" default-marker-size="11.111327586206897" fill="rgba(255,69,96,0.8)" stroke="#ffffff" stroke-width="2"/>
          </g>
          <g class="apexcharts-series-markers apexcharts-series-bubble" clip-path="url(#gridRectMarkerMask15q6agl6j)">
            <path d="M 385.4007996015101, 117.17400000000002 &#10;           m -4.545543103448276, 0 &#10;           a 4.545543103448276,4.545543103448276 0 1,0 9.091086206896552,0 &#10;           a 4.545543103448276,4.545543103448276 0 1,0 -9.091086206896552,0" fill-opacity="1" stroke-opacity="0.9" stroke-linecap="butt" stroke-dasharray="0" cx="385.4007996015101" cy="117.17400000000002" shape="circle" rel="11" j="11" index="3" default-marker-size="4.545543103448276" fill="rgba(255,69,96,0.8)" stroke="#ffffff" stroke-width="2"/>
          </g>
          <g class="apexcharts-series-markers apexcharts-series-bubble" clip-path="url(#gridRectMarkerMask15q6agl6j)">
            <path d="M 373.5301384228188, 87.04354285714288 &#10;           m -6.060724137931034, 0 &#10;           a 6.060724137931034,6.060724137931034 0 1,0 12.121448275862068,0 &#10;           a 6.060724137931034,6.060724137931034 0 1,0 -12.121448275862068,0" fill-opacity="1" stroke-opacity="0.9" stroke-linecap="butt" stroke-dasharray="0" cx="373.5301384228188" cy="87.04354285714288" shape="circle" rel="12" j="12" index="3" default-marker-size="6.060724137931034" fill="rgba(255,69,96,0.8)" stroke="#ffffff" stroke-width="2"/>
          </g>
          <g class="apexcharts-series-markers apexcharts-series-bubble" clip-path="url(#gridRectMarkerMask15q6agl6j)">
            <path d="M 475.61782455956376, 167.3914285714286 &#10;           m -4.545543103448276, 0 &#10;           a 4.545543103448276,4.545543103448276 0 1,0 9.091086206896552,0 &#10;           a 4.545543103448276,4.545543103448276 0 1,0 -9.091086206896552,0" fill-opacity="1" stroke-opacity="0.9" stroke-linecap="butt" stroke-dasharray="0" cx="475.61782455956376" cy="167.3914285714286" shape="circle" rel="13" j="13" index="3" default-marker-size="4.545543103448276" fill="rgba(255,69,96,0.8)" stroke="#ffffff" stroke-width="2"/>
          </g>
          <g class="apexcharts-series-markers apexcharts-series-bubble" clip-path="url(#gridRectMarkerMask15q6agl6j)">
            <path d="M 272.2338296979866, 77.00005714285717 &#10;           m -18.434702586206896, 0 &#10;           a 18.434702586206896,18.434702586206896 0 1,0 36.86940517241379,0 &#10;           a 18.434702586206896,18.434702586206896 0 1,0 -36.86940517241379,0" fill-opacity="1" stroke-opacity="0.9" stroke-linecap="butt" stroke-dasharray="0" cx="272.2338296979866" cy="77.00005714285717" shape="circle" rel="14" j="14" index="3" default-marker-size="18.434702586206896" fill="rgba(255,69,96,0.8)" stroke="#ffffff" stroke-width="2"/>
          </g>
          <g class="apexcharts-series-markers apexcharts-series-bubble" clip-path="url(#gridRectMarkerMask15q6agl6j)">
            <path d="M 317.34234217701345, 194.17405714285715 &#10;           m -13.636629310344828, 0 &#10;           a 13.636629310344828,13.636629310344828 0 1,0 27.273258620689656,0 &#10;           a 13.636629310344828,13.636629310344828 0 1,0 -27.273258620689656,0" fill-opacity="1" stroke-opacity="0.9" stroke-linecap="butt" stroke-dasharray="0" cx="317.34234217701345" cy="194.17405714285715" shape="circle" rel="15" j="15" index="3" default-marker-size="13.636629310344828" fill="rgba(255,69,96,0.8)" stroke="#ffffff" stroke-width="2"/>
          </g>
          <g class="apexcharts-series-markers apexcharts-series-bubble" clip-path="url(#gridRectMarkerMask15q6agl6j)">
            <path d="M 225.54256239513424, 117.17400000000002 &#10;           m -9.343616379310346, 0 &#10;           a 9.343616379310346,9.343616379310346 0 1,0 18.68723275862069,0 &#10;           a 9.343616379310346,9.343616379310346 0 1,0 -18.68723275862069,0" fill-opacity="1" stroke-opacity="0.9" stroke-linecap="butt" stroke-dasharray="0" cx="225.54256239513424" cy="117.17400000000002" shape="circle" rel="16" j="16" index="3" default-marker-size="9.343616379310346" fill="rgba(255,69,96,0.8)" stroke="#ffffff" stroke-width="2"/>
          </g>
          <g class="apexcharts-series-markers apexcharts-series-bubble" clip-path="url(#gridRectMarkerMask15q6agl6j)">
            <path d="M 225.54256239513424, 56.91308571428573 &#10;           m -16.666991379310346, 0 &#10;           a 16.666991379310346,16.666991379310346 0 1,0 33.33398275862069,0 &#10;           a 16.666991379310346,16.666991379310346 0 1,0 -33.33398275862069,0" fill-opacity="1" stroke-opacity="0.9" stroke-linecap="butt" stroke-dasharray="0" cx="225.54256239513424" cy="56.91308571428573" shape="circle" rel="17" j="17" index="3" default-marker-size="16.666991379310346" fill="rgba(255,69,96,0.8)" stroke="#ffffff" stroke-width="2"/>
          </g>
          <g class="apexcharts-series-markers apexcharts-series-bubble" clip-path="url(#gridRectMarkerMask15q6agl6j)">
            <path d="M 542.0935271602349, 107.1305142857143 &#10;           m -4.545543103448276, 0 &#10;           a 4.545543103448276,4.545543103448276 0 1,0 9.091086206896552,0 &#10;           a 4.545543103448276,4.545543103448276 0 1,0 -9.091086206896552,0" fill-opacity="1" stroke-opacity="0.9" stroke-linecap="butt" stroke-dasharray="0" cx="542.0935271602349" cy="107.1305142857143" shape="circle" rel="18" j="18" index="3" default-marker-size="4.545543103448276" fill="rgba(255,69,96,0.8)" stroke="#ffffff" stroke-width="2"/>
          </g>
          <g class="apexcharts-series-markers apexcharts-series-bubble" clip-path="url(#gridRectMarkerMask15q6agl6j)">
            <path d="M 434.4661991401007, 157.34794285714287 &#10;           m -13.131568965517241, 0 &#10;           a 13.131568965517241,13.131568965517241 0 1,0 26.263137931034482,0 &#10;           a 13.131568965517241,13.131568965517241 0 1,0 -26.263137931034482,0" fill-opacity="1" stroke-opacity="0.9" stroke-linecap="butt" stroke-dasharray="0" cx="434.4661991401007" cy="157.34794285714287" shape="circle" rel="19" j="19" index="3" default-marker-size="13.131568965517241" fill="rgba(255,69,96,0.8)" stroke="#ffffff" stroke-width="2"/>
          </g>
          <g class="apexcharts-series-markers">
            <path d="M 0, 0 &#10;           m -0, 0 &#10;           a 0,0 0 1,0 0,0 &#10;           a 0,0 0 1,0 -0,0" fill-opacity="1" stroke-opacity="0.9" stroke-linecap="butt" stroke-dasharray="0" cx="0" cy="0" shape="circle" default-marker-size="0" fill="#ff4560" stroke="#ffffff" stroke-width="2"/>
          </g>
        </g>
      </g>
      <g class="apexcharts-datalabels" data:realIndex="0"/>
      <g class="apexcharts-datalabels" data:realIndex="1"/>
      <g class="apexcharts-datalabels" data:realIndex="2"/>
      <g class="apexcharts-datalabels" data:realIndex="3"/>
    </g>
    <line x1="0" y1="-100" x2="589.576171875" y2="-100" stroke-dasharray="0" stroke-linecap="butt" y="-100" stroke="#b6b6b6" stroke-width="1"/>
    <line x1="0" y1="0" x2="589.576171875" y2="0" stroke-dasharray="0" stroke-linecap="butt" stroke="#b6b6b6" stroke-width="0"/>
    <g class="apexcharts-xaxis" transform="translate(0, 0)">
      <g class="apexcharts-xaxis-texts-g" transform="translate(0, -4)">
        <text x="0" y="262.348" text-anchor="middle" dominant-baseline="auto" font-size="12px" font-family="Helvetica, Arial, sans-serif" font-weight="400" fill="#373d3f">
          <tspan>1</tspan>
          <title>1</title>
        </text>
        <text x="49.13134765625" y="262.348" text-anchor="middle" dominant-baseline="auto" font-size="12px" font-family="Helvetica, Arial, sans-serif" font-weight="400" fill="#373d3f">
          <tspan>63</tspan>
          <title>63</title>
        </text>
        <text x="98.2626953125" y="262.348" text-anchor="middle" dominant-baseline="auto" font-size="12px" font-family="Helvetica, Arial, sans-serif" font-weight="400" fill="#373d3f">
          <tspan>125</tspan>
          <title>125</title>
        </text>
        <text x="147.39404296875" y="262.348" text-anchor="middle" dominant-baseline="auto" font-size="12px" font-family="Helvetica, Arial, sans-serif" font-weight="400" fill="#373d3f">
          <tspan>187</tspan>
          <title>187</title>
        </text>
        <text x="196.525390625" y="262.348" text-anchor="middle" dominant-baseline="auto" font-size="12px" font-family="Helvetica, Arial, sans-serif" font-weight="400" fill="#373d3f">
          <tspan>249</tspan>
          <title>249</title>
        </text>
        <text x="245.65673828125" y="262.348" text-anchor="middle" dominant-baseline="auto" font-size="12px" font-family="Helvetica, Arial, sans-serif" font-weight="400" fill="#373d3f">
          <tspan>311</tspan>
          <title>311</title>
        </text>
        <text x="294.7880859375" y="262.348" text-anchor="middle" dominant-baseline="auto" font-size="12px" font-family="Helvetica, Arial, sans-serif" font-weight="400" fill="#373d3f">
          <tspan>373</tspan>
          <title>373</title>
        </text>
        <text x="343.91943359375" y="262.348" text-anchor="middle" dominant-baseline="auto" font-size="12px" font-family="Helvetica, Arial, sans-serif" font-weight="400" fill="#373d3f">
          <tspan>435</tspan>
          <title>435</title>
        </text>
        <text x="393.05078125" y="262.348" text-anchor="middle" dominant-baseline="auto" font-size="12px" font-family="Helvetica, Arial, sans-serif" font-weight="400" fill="#373d3f">
          <tspan>497</tspan>
          <title>497</title>
        </text>
        <text x="442.18212890625" y="262.348" text-anchor="middle" dominant-baseline="auto" font-size="12px" font-family="Helvetica, Arial, sans-serif" font-weight="400" fill="#373d3f">
          <tspan>559</tspan>
          <title>559</title>
        </text>
        <text x="491.3134765625" y="262.348" text-anchor="middle" dominant-baseline="auto" font-size="12px" font-family="Helvetica, Arial, sans-serif" font-weight="400" fill="#373d3f">
          <tspan>622</tspan>
          <title>622</title>
        </text>
        <text x="540.44482421875" y="262.348" text-anchor="middle" dominant-baseline="auto" font-size="12px" font-family="Helvetica, Arial, sans-serif" font-weight="400" fill="#373d3f">
          <tspan>684</tspan>
          <title>684</title>
        </text>
        <text x="589.576171875" y="262.348" text-anchor="middle" dominant-baseline="auto" font-size="12px" font-family="Helvetica, Arial, sans-serif" font-weight="400" fill="#373d3f">
          <tspan>746</tspan>
          <title>746</title>
        </text>
      </g>
    </g>
    <g class="apexcharts-yaxis-annotations"/>
    <g class="apexcharts-xaxis-annotations"/>
    <g class="apexcharts-point-annotations"/>
  </g>
  <rect width="0" height="0" x="0" y="0" rx="0" ry="0" stroke-dasharray="0" fill="#fefefe" stroke="none" stroke-width="0" opacity="1"/>
  <rect width="0" height="0" x="0" y="0" rx="0" ry="0" stroke-dasharray="0" fill="#fefefe" stroke="none" stroke-width="0" opacity="1"/>
</svg>
