<?xml version='1.0' encoding='utf-8'?>
<svg width="900" height="340" viewBox="-600,-270,1300,520" id="svg">
  <g stroke="white" id="g">
    <path d="M0,-249A249,249,0,0,1,95.881,-229.8L0,0Z" fill="rgb(66, 136, 181)" id="path_17">
    </path>
    <path d="M95.881,-229.8A249,249,0,0,1,179.014,-173.075L0,0Z" fill="rgb(77, 163, 177)" id="path_16">
    </path>
    <path d="M179.014,-173.075A249,249,0,0,1,233.212,-87.253L0,0Z" fill="rgb(101, 186, 170)" id="path_15">
    </path>
    <path d="M233.212,-87.253A249,249,0,0,1,248.46,16.396L0,0Z" fill="rgb(131, 204, 165)" id="path_14">
    </path>
    <path d="M248.46,16.396A249,249,0,0,1,216.75,122.558L0,0Z" fill="rgb(162, 217, 163)" id="path_13">
    </path>
    <path d="M216.75,122.558A249,249,0,0,1,145.78,201.864L0,0Z" fill="rgb(191, 229, 160)" id="path_12">
    </path>
    <path d="M145.78,201.864A249,249,0,0,1,50.671,243.79L0,0Z" fill="rgb(216, 239, 159)" id="path_11">
    </path>
    <path d="M50.671,243.79A249,249,0,0,1,-46.837,244.555L0,0Z" fill="rgb(235, 247, 166)" id="path_10">
    </path>
    <path d="M-46.837,244.555A249,249,0,0,1,-141.018,205.219L0,0Z" fill="rgb(247, 250, 175)" id="path_9">
    </path>
    <path d="M-141.018,205.219A249,249,0,0,1,-212.989,128.983L0,0Z" fill="rgb(253, 245, 172)" id="path_8">
    </path>
    <path d="M-212.989,128.983A249,249,0,0,1,-247.821,24.204L0,0Z" fill="rgb(254, 232, 154)" id="path_7">
    </path>
    <path d="M-247.821,24.204A249,249,0,0,1,-236.394,-78.222L0,0Z" fill="rgb(254, 213, 133)" id="path_6">
    </path>
    <path d="M-236.394,-78.222A249,249,0,0,1,-192.81,-157.56L0,0Z" fill="rgb(253, 191, 112)" id="path_5">
    </path>
    <path d="M-192.81,-157.56A249,249,0,0,1,-139.955,-205.946L0,0Z" fill="rgb(251, 165, 95)" id="path_4">
    </path>
    <path d="M-139.955,-205.946A249,249,0,0,1,-93.908,-230.613L0,0Z" fill="rgb(247, 136, 81)" id="path_3">
    </path>
    <path d="M-93.908,-230.613A249,249,0,0,1,-57.555,-242.257L0,0Z" fill="rgb(239, 109, 74)" id="path_2">
    </path>
    <path d="M-57.555,-242.257A249,249,0,0,1,-29.287,-247.272L0,0Z" fill="rgb(227, 84, 73)" id="path_1">
    </path>
    <path d="M-29.287,-247.272A249,249,0,0,1,0,-249L0,0Z" fill="rgb(209, 60, 75)" id="path">
    </path>
  </g>
</svg>