<?xml version='1.0' encoding='utf-8'?>
<svg width="900" height="340" viewBox="-70,-30,880,340" style="max-width: 100%; height: auto; font: 10px sans-serif;" id="svg">
  <line x1="55.7" y1="28.6" x2="682.1" y2="28.6" opacity="0.4" fill="none" stroke="#666666" stroke-width="0.5" id="line_96" />
  <line x1="55.7" y1="71.3" x2="682.1" y2="71.3" opacity="0.4" fill="none" stroke="#666666" stroke-width="0.5" id="line_95" />
  <line x1="55.7" y1="113.9" x2="682.1" y2="113.9" opacity="0.4" fill="none" stroke="#666666" stroke-width="0.5" id="line_94" />
  <line x1="55.7" y1="156.6" x2="682.1" y2="156.6" opacity="0.4" fill="none" stroke="#666666" stroke-width="0.5" id="line_93" />
  <line x1="55.7" y1="199.6" x2="682.1" y2="199.6" opacity="0.4" fill="none" stroke="#666666" stroke-width="0.5" id="line_92" />
  <line x1="55.7" y1="242" x2="682.1" y2="242" opacity="0.4" fill="none" stroke="#666666" stroke-width="0.5" id="line_91" />
  <g id="g_57">
    <g id="g_58">
      <path d="M87.3,296.1c0.2-0.8,0.6-1.8,0.9-2.2l0.5-0.1c-0.2,0.6-0.5,1.5-0.6,2.2L87.3,296.1z" fill="#808080" id="path_68" />
      <path d="M91.9,300.3v-1.7h-2.8v-0.5l2.7-3.9h0.9v3.8h0.9v0.7h-0.9v1.7H91.9z M91.9,298v-2c0-0.3,0-0.6,0-1h0    c-0.2,0.4-0.3,0.6-0.5,0.9l-1.5,2.1v0H91.9z" fill="#808080" id="path_67" />
      <path d="M98.2,297.1c0,2.1-0.8,3.2-2.1,3.2c-1.2,0-2-1.1-2-3.1c0-2.1,0.9-3.2,2.1-3.2C97.5,294,98.2,295.2,98.2,297.1    z M94.9,297.2c0,1.6,0.5,2.5,1.2,2.5c0.8,0,1.3-1,1.3-2.6c0-1.5-0.4-2.5-1.2-2.5C95.4,294.7,94.9,295.6,94.9,297.2z" fill="#808080" id="path_66" />
    </g>
  </g>
  <g id="g_55">
    <g id="g_56">
      <path d="M123,296.1c0.2-0.8,0.6-1.8,0.9-2.2l0.5-0.1c-0.2,0.6-0.5,1.5-0.6,2.2L123,296.1z" fill="#808080" id="path_65" />
      <path d="M127.6,300.3v-1.7h-2.8v-0.5l2.7-3.9h0.9v3.8h0.9v0.7h-0.9v1.7H127.6z M127.6,298v-2c0-0.3,0-0.6,0-1h0    c-0.2,0.4-0.3,0.6-0.5,0.9l-1.5,2.1v0H127.6z" fill="#808080" id="path_64" />
      <path d="M129.9,300.3v-0.5l0.7-0.6c1.6-1.5,2.3-2.3,2.3-3.2c0-0.6-0.3-1.2-1.2-1.2c-0.6,0-1,0.3-1.3,0.5l-0.3-0.6    c0.4-0.4,1-0.6,1.7-0.6c1.3,0,1.9,0.9,1.9,1.8c0,1.1-0.8,2-2.1,3.3l-0.5,0.5v0h2.8v0.7H129.9z" fill="#808080" id="path_63" />
    </g>
  </g>
  <g id="g_53">
    <g id="g_54">
      <path d="M158.6,296.1c0.2-0.8,0.6-1.8,0.9-2.2l0.5-0.1c-0.2,0.6-0.5,1.5-0.6,2.2L158.6,296.1z" fill="#808080" id="path_62" />
      <path d="M163.2,300.3v-1.7h-2.8v-0.5l2.7-3.9h0.9v3.8h0.9v0.7H164v1.7H163.2z M163.2,298v-2c0-0.3,0-0.6,0-1h0    c-0.2,0.4-0.3,0.6-0.5,0.9l-1.5,2.1v0H163.2z" fill="#808080" id="path_61" />
      <path d="M168.1,300.3v-1.7h-2.8v-0.5l2.7-3.9h0.9v3.8h0.9v0.7h-0.9v1.7H168.1z M168.1,298v-2c0-0.3,0-0.6,0-1h0    c-0.2,0.4-0.3,0.6-0.5,0.9l-1.5,2.1v0H168.1z" fill="#808080" id="path_60" />
    </g>
  </g>
  <g id="g_51">
    <g id="g_52">
      <path d="M193.5,296.1c0.2-0.8,0.6-1.8,0.9-2.2l0.5-0.1c-0.2,0.6-0.5,1.5-0.6,2.2L193.5,296.1z" fill="#808080" id="path_59" />
      <path d="M198.2,300.3v-1.7h-2.8v-0.5l2.7-3.9h0.9v3.8h0.9v0.7h-0.9v1.7H198.2z M198.2,298v-2c0-0.3,0-0.6,0-1h0    c-0.2,0.4-0.3,0.6-0.5,0.9l-1.5,2.1v0H198.2z" fill="#808080" id="path_58" />
      <path d="M203.9,294.7c-0.2,0-0.4,0-0.6,0c-1.3,0.2-2,1.2-2.1,2.2h0c0.3-0.4,0.8-0.7,1.5-0.7c1.1,0,1.8,0.8,1.8,2    c0,1.1-0.8,2.2-2,2.2c-1.3,0-2.2-1-2.2-2.6c0-1.2,0.4-2.2,1-2.8c0.5-0.5,1.2-0.8,2-0.9c0.2,0,0.5,0,0.6,0V294.7z M203.7,298.3    c0-0.9-0.5-1.4-1.3-1.4c-0.5,0-1,0.3-1.2,0.8c-0.1,0.1-0.1,0.2-0.1,0.4c0,1,0.5,1.8,1.3,1.8C203.2,299.7,203.7,299.1,203.7,298.3z    " fill="#808080" id="path_57" />
    </g>
  </g>
  <g id="g_49">
    <g id="g_50">
      <path d="M230.2,296.1c0.2-0.8,0.6-1.8,0.9-2.2l0.5-0.1c-0.2,0.6-0.5,1.5-0.6,2.2L230.2,296.1z" fill="#808080" id="path_56" />
      <path d="M234.8,300.3v-1.7H232v-0.5l2.7-3.9h0.9v3.8h0.9v0.7h-0.9v1.7H234.8z M234.8,298v-2c0-0.3,0-0.6,0-1h0    c-0.2,0.4-0.3,0.6-0.5,0.9l-1.5,2.1v0H234.8z" fill="#808080" id="path_55" />
      <path d="M237,298.7c0-0.8,0.5-1.3,1.2-1.6l0,0c-0.7-0.3-1-0.8-1-1.4c0-1,0.8-1.6,1.9-1.6c1.2,0,1.8,0.7,1.8,1.5    c0,0.5-0.3,1.1-1,1.4v0c0.8,0.3,1.2,0.8,1.2,1.6c0,1.1-0.9,1.8-2.1,1.8C237.8,300.4,237,299.6,237,298.7z M240.3,298.7    c0-0.7-0.5-1.1-1.3-1.3c-0.7,0.2-1.1,0.7-1.1,1.3c0,0.6,0.4,1.2,1.2,1.2C239.8,299.8,240.3,299.3,240.3,298.7z M238,295.6    c0,0.6,0.5,0.9,1.2,1.1c0.5-0.2,0.9-0.6,0.9-1.1c0-0.5-0.3-1-1-1C238.4,294.6,238,295.1,238,295.6z" fill="#808080" id="path_54" />
    </g>
  </g>
  <g id="g_47">
    <g id="g_48">
      <path d="M265.5,296.1c0.2-0.8,0.6-1.8,0.9-2.2l0.5-0.1c-0.2,0.6-0.5,1.5-0.6,2.2L265.5,296.1z" fill="#808080" id="path_53" />
      <path d="M271.2,294.8h-2.3l-0.2,1.6c0.1,0,0.3,0,0.5,0c0.5,0,0.9,0.1,1.3,0.3c0.5,0.3,0.9,0.8,0.9,1.6    c0,1.2-1,2.1-2.3,2.1c-0.7,0-1.2-0.2-1.5-0.4l0.2-0.6c0.3,0.2,0.8,0.3,1.3,0.3c0.8,0,1.5-0.5,1.5-1.3c0-0.8-0.5-1.4-1.8-1.4    c-0.3,0-0.6,0-0.8,0.1l0.4-2.9h2.9V294.8z" fill="#808080" id="path_52" />
      <path d="M276.4,297.1c0,2.1-0.8,3.2-2.1,3.2c-1.2,0-2-1.1-2-3.1c0-2.1,0.9-3.2,2.1-3.2    C275.7,294,276.4,295.2,276.4,297.1z M273.1,297.2c0,1.6,0.5,2.5,1.2,2.5c0.8,0,1.3-1,1.3-2.6c0-1.5-0.4-2.5-1.2-2.5    C273.6,294.7,273.1,295.6,273.1,297.2z" fill="#808080" id="path_51" />
    </g>
  </g>
  <g id="g_45">
    <g id="g_46">
      <path d="M301.1,296.1c0.2-0.8,0.6-1.8,0.9-2.2l0.5-0.1c-0.2,0.6-0.5,1.5-0.6,2.2L301.1,296.1z" fill="#808080" id="path_50" />
      <path d="M306.8,294.8h-2.3l-0.2,1.6c0.1,0,0.3,0,0.5,0c0.5,0,0.9,0.1,1.3,0.3c0.5,0.3,0.9,0.8,0.9,1.6    c0,1.2-1,2.1-2.3,2.1c-0.7,0-1.2-0.2-1.5-0.4l0.2-0.6c0.3,0.2,0.8,0.3,1.3,0.3c0.8,0,1.5-0.5,1.5-1.3c0-0.8-0.5-1.4-1.8-1.4    c-0.3,0-0.6,0-0.8,0.1l0.4-2.9h2.9V294.8z" fill="#808080" id="path_49" />
      <path d="M308,300.3v-0.5l0.7-0.6c1.6-1.5,2.3-2.3,2.3-3.2c0-0.6-0.3-1.2-1.2-1.2c-0.6,0-1,0.3-1.3,0.5l-0.3-0.6    c0.4-0.4,1-0.6,1.7-0.6c1.3,0,1.9,0.9,1.9,1.8c0,1.1-0.8,2-2.1,3.3l-0.5,0.5v0h2.8v0.7H308z" fill="#808080" id="path_48" />
    </g>
  </g>
  <g id="g_43">
    <g id="g_44">
      <path d="M336.8,296.1c0.2-0.8,0.6-1.8,0.9-2.2l0.5-0.1c-0.2,0.6-0.5,1.5-0.6,2.2L336.8,296.1z" fill="#808080" id="path_47" />
      <path d="M342.5,294.8h-2.3l-0.2,1.6c0.1,0,0.3,0,0.5,0c0.5,0,0.9,0.1,1.3,0.3c0.5,0.3,0.9,0.8,0.9,1.6    c0,1.2-1,2.1-2.3,2.1c-0.7,0-1.2-0.2-1.5-0.4l0.2-0.6c0.3,0.2,0.8,0.3,1.3,0.3c0.8,0,1.5-0.5,1.5-1.3c0-0.8-0.5-1.4-1.8-1.4    c-0.3,0-0.6,0-0.8,0.1l0.4-2.9h2.9V294.8z" fill="#808080" id="path_46" />
      <path d="M346.3,300.3v-1.7h-2.8v-0.5l2.7-3.9h0.9v3.8h0.9v0.7h-0.9v1.7H346.3z M346.3,298v-2c0-0.3,0-0.6,0-1h0    c-0.2,0.4-0.3,0.6-0.5,0.9l-1.5,2.1v0H346.3z" fill="#808080" id="path_45" />
    </g>
  </g>
  <g id="g_41">
    <g id="g_42">
      <path d="M372.1,296.1c0.2-0.8,0.6-1.8,0.9-2.2l0.5-0.1c-0.2,0.6-0.5,1.5-0.6,2.2L372.1,296.1z" fill="#808080" id="path_44" />
      <path d="M377.8,294.8h-2.3l-0.2,1.6c0.1,0,0.3,0,0.5,0c0.5,0,0.9,0.1,1.3,0.3c0.5,0.3,0.9,0.8,0.9,1.6    c0,1.2-1,2.1-2.3,2.1c-0.7,0-1.2-0.2-1.5-0.4l0.2-0.6c0.3,0.2,0.8,0.3,1.3,0.3c0.8,0,1.5-0.5,1.5-1.3c0-0.8-0.5-1.4-1.8-1.4    c-0.3,0-0.6,0-0.8,0.1l0.4-2.9h2.9V294.8z" fill="#808080" id="path_43" />
      <path d="M382.5,294.7c-0.2,0-0.4,0-0.6,0c-1.3,0.2-2,1.2-2.1,2.2h0c0.3-0.4,0.8-0.7,1.5-0.7c1.1,0,1.8,0.8,1.8,2    c0,1.1-0.8,2.2-2,2.2c-1.3,0-2.2-1-2.2-2.6c0-1.2,0.4-2.2,1-2.8c0.5-0.5,1.2-0.8,2-0.9c0.2,0,0.5,0,0.6,0V294.7z M382.2,298.3    c0-0.9-0.5-1.4-1.3-1.4c-0.5,0-1,0.3-1.2,0.8c-0.1,0.1-0.1,0.2-0.1,0.4c0,1,0.5,1.8,1.3,1.8C381.7,299.7,382.2,299.1,382.2,298.3z    " fill="#808080" id="path_42" />
    </g>
  </g>
  <g id="g_39">
    <g id="g_40">
      <path d="M408,296.1c0.2-0.8,0.6-1.8,0.9-2.2l0.5-0.1c-0.2,0.6-0.5,1.5-0.6,2.2L408,296.1z" fill="#808080" id="path_41" />
      <path d="M413.8,294.8h-2.3l-0.2,1.6c0.1,0,0.3,0,0.5,0c0.5,0,0.9,0.1,1.3,0.3c0.5,0.3,0.9,0.8,0.9,1.6    c0,1.2-1,2.1-2.3,2.1c-0.7,0-1.2-0.2-1.5-0.4l0.2-0.6c0.3,0.2,0.8,0.3,1.3,0.3c0.8,0,1.5-0.5,1.5-1.3c0-0.8-0.5-1.4-1.8-1.4    c-0.3,0-0.6,0-0.8,0.1l0.4-2.9h2.9V294.8z" fill="#808080" id="path_40" />
      <path d="M414.9,298.7c0-0.8,0.5-1.3,1.2-1.6l0,0c-0.7-0.3-1-0.8-1-1.4c0-1,0.8-1.6,1.9-1.6c1.2,0,1.8,0.7,1.8,1.5    c0,0.5-0.3,1.1-1,1.4v0c0.8,0.3,1.2,0.8,1.2,1.6c0,1.1-0.9,1.8-2.1,1.8C415.6,300.4,414.9,299.6,414.9,298.7z M418.2,298.7    c0-0.7-0.5-1.1-1.3-1.3c-0.7,0.2-1.1,0.7-1.1,1.3c0,0.6,0.4,1.2,1.2,1.2C417.7,299.8,418.2,299.3,418.2,298.7z M415.9,295.6    c0,0.6,0.5,0.9,1.2,1.1c0.5-0.2,0.9-0.6,0.9-1.1c0-0.5-0.3-1-1-1C416.3,294.6,415.9,295.1,415.9,295.6z" fill="#808080" id="path_39" />
    </g>
  </g>
  <g id="g_37">
    <g id="g_38">
      <path d="M444,296.1c0.2-0.8,0.6-1.8,0.9-2.2l0.5-0.1c-0.2,0.6-0.5,1.5-0.6,2.2L444,296.1z" fill="#808080" id="path_38" />
      <path d="M449.6,294.7c-0.2,0-0.4,0-0.6,0c-1.3,0.2-2,1.2-2.1,2.2h0c0.3-0.4,0.8-0.7,1.5-0.7c1.1,0,1.8,0.8,1.8,2    c0,1.1-0.8,2.2-2,2.2c-1.3,0-2.2-1-2.2-2.6c0-1.2,0.4-2.2,1-2.8c0.5-0.5,1.2-0.8,2-0.9c0.2,0,0.5,0,0.6,0V294.7z M449.3,298.3    c0-0.9-0.5-1.4-1.3-1.4c-0.5,0-1,0.3-1.2,0.8c-0.1,0.1-0.1,0.2-0.1,0.4c0,1,0.5,1.8,1.3,1.8C448.8,299.7,449.3,299.1,449.3,298.3z    " fill="#808080" id="path_37" />
      <path d="M455,297.1c0,2.1-0.8,3.2-2.1,3.2c-1.2,0-2-1.1-2-3.1c0-2.1,0.9-3.2,2.1-3.2C454.2,294,455,295.2,455,297.1z     M451.6,297.2c0,1.6,0.5,2.5,1.2,2.5c0.8,0,1.3-1,1.3-2.6c0-1.5-0.4-2.5-1.2-2.5C452.2,294.7,451.6,295.6,451.6,297.2z" fill="#808080" id="path_36" />
    </g>
  </g>
  <g id="g_35">
    <g id="g_36">
      <path d="M479.9,296.1c0.2-0.8,0.6-1.8,0.9-2.2l0.5-0.1c-0.2,0.6-0.5,1.5-0.6,2.2L479.9,296.1z" fill="#808080" id="path_35" />
      <path d="M485.4,294.7c-0.2,0-0.4,0-0.6,0c-1.3,0.2-2,1.2-2.1,2.2h0c0.3-0.4,0.8-0.7,1.5-0.7c1.1,0,1.8,0.8,1.8,2    c0,1.1-0.8,2.2-2,2.2c-1.3,0-2.2-1-2.2-2.6c0-1.2,0.4-2.2,1-2.8c0.5-0.5,1.2-0.8,2-0.9c0.2,0,0.5,0,0.6,0V294.7z M485.2,298.3    c0-0.9-0.5-1.4-1.3-1.4c-0.5,0-1,0.3-1.2,0.8c-0.1,0.1-0.1,0.2-0.1,0.4c0,1,0.5,1.8,1.3,1.8C484.7,299.7,485.2,299.1,485.2,298.3z    " fill="#808080" id="path_34" />
      <path d="M486.8,300.3v-0.5l0.7-0.6c1.6-1.5,2.3-2.3,2.3-3.2c0-0.6-0.3-1.2-1.2-1.2c-0.6,0-1,0.3-1.3,0.5l-0.3-0.6    c0.4-0.4,1-0.6,1.7-0.6c1.3,0,1.9,0.9,1.9,1.8c0,1.1-0.8,2-2.1,3.3l-0.5,0.5v0h2.8v0.7H486.8z" fill="#808080" id="path_33" />
    </g>
  </g>
  <g id="g_33">
    <g id="g_34">
      <path d="M514.8,296.1c0.2-0.8,0.6-1.8,0.9-2.2l0.5-0.1c-0.2,0.6-0.5,1.5-0.6,2.2L514.8,296.1z" fill="#808080" id="path_32" />
      <path d="M520.3,294.7c-0.2,0-0.4,0-0.6,0c-1.3,0.2-2,1.2-2.1,2.2h0c0.3-0.4,0.8-0.7,1.5-0.7c1.1,0,1.8,0.8,1.8,2    c0,1.1-0.8,2.2-2,2.2c-1.3,0-2.2-1-2.2-2.6c0-1.2,0.4-2.2,1-2.8c0.5-0.5,1.2-0.8,2-0.9c0.2,0,0.5,0,0.6,0V294.7z M520.1,298.3    c0-0.9-0.5-1.4-1.3-1.4c-0.5,0-1,0.3-1.2,0.8c-0.1,0.1-0.1,0.2-0.1,0.4c0,1,0.5,1.8,1.3,1.8C519.6,299.7,520.1,299.1,520.1,298.3z    " fill="#808080" id="path_31" />
      <path d="M524.2,300.3v-1.7h-2.8v-0.5l2.7-3.9h0.9v3.8h0.9v0.7H525v1.7H524.2z M524.2,298v-2c0-0.3,0-0.6,0-1h0    c-0.2,0.4-0.3,0.6-0.5,0.9l-1.5,2.1v0H524.2z" fill="#808080" id="path_30" />
    </g>
  </g>
  <g id="g_31">
    <g id="g_32">
      <path d="M551,296.1c0.2-0.8,0.6-1.8,0.9-2.2l0.5-0.1c-0.2,0.6-0.5,1.5-0.6,2.2L551,296.1z" fill="#808080" id="path_29" />
      <path d="M556.6,294.7c-0.2,0-0.4,0-0.6,0c-1.3,0.2-2,1.2-2.1,2.2h0c0.3-0.4,0.8-0.7,1.5-0.7c1.1,0,1.8,0.8,1.8,2    c0,1.1-0.8,2.2-2,2.2c-1.3,0-2.2-1-2.2-2.6c0-1.2,0.4-2.2,1-2.8c0.5-0.5,1.2-0.8,2-0.9c0.2,0,0.5,0,0.6,0V294.7z M556.3,298.3    c0-0.9-0.5-1.4-1.3-1.4c-0.5,0-1,0.3-1.2,0.8c-0.1,0.1-0.1,0.2-0.1,0.4c0,1,0.5,1.8,1.3,1.8C555.8,299.7,556.3,299.1,556.3,298.3z    " fill="#808080" id="path_28" />
      <path d="M561.4,294.7c-0.2,0-0.4,0-0.6,0c-1.3,0.2-2,1.2-2.1,2.2h0c0.3-0.4,0.8-0.7,1.5-0.7c1.1,0,1.8,0.8,1.8,2    c0,1.1-0.8,2.2-2,2.2c-1.3,0-2.2-1-2.2-2.6c0-1.2,0.4-2.2,1-2.8c0.5-0.5,1.2-0.8,2-0.9c0.2,0,0.5,0,0.6,0V294.7z M561.2,298.3    c0-0.9-0.5-1.4-1.3-1.4c-0.5,0-1,0.3-1.2,0.8c-0.1,0.1-0.1,0.2-0.1,0.4c0,1,0.5,1.8,1.3,1.8C560.7,299.7,561.2,299.1,561.2,298.3z    " fill="#808080" id="path_27" />
    </g>
  </g>
  <g id="g_29">
    <g id="g_30">
      <path d="M586.8,296.1c0.2-0.8,0.6-1.8,0.9-2.2l0.5-0.1c-0.2,0.6-0.5,1.5-0.6,2.2L586.8,296.1z" fill="#808080" id="path_26" />
      <path d="M592.3,294.7c-0.2,0-0.4,0-0.6,0c-1.3,0.2-2,1.2-2.1,2.2h0c0.3-0.4,0.8-0.7,1.5-0.7c1.1,0,1.8,0.8,1.8,2    c0,1.1-0.8,2.2-2,2.2c-1.3,0-2.2-1-2.2-2.6c0-1.2,0.4-2.2,1-2.8c0.5-0.5,1.2-0.8,2-0.9c0.2,0,0.5,0,0.6,0V294.7z M592.1,298.3    c0-0.9-0.5-1.4-1.3-1.4c-0.5,0-1,0.3-1.2,0.8c-0.1,0.1-0.1,0.2-0.1,0.4c0,1,0.5,1.8,1.3,1.8C591.6,299.7,592.1,299.1,592.1,298.3z    " fill="#808080" id="path_25" />
      <path d="M593.6,298.7c0-0.8,0.5-1.3,1.2-1.6l0,0c-0.7-0.3-1-0.8-1-1.4c0-1,0.8-1.6,1.9-1.6c1.2,0,1.8,0.7,1.8,1.5    c0,0.5-0.3,1.1-1,1.4v0c0.8,0.3,1.2,0.8,1.2,1.6c0,1.1-0.9,1.8-2.1,1.8C594.4,300.4,593.6,299.6,593.6,298.7z M596.9,298.7    c0-0.7-0.5-1.1-1.3-1.3c-0.7,0.2-1.1,0.7-1.1,1.3c0,0.6,0.4,1.2,1.2,1.2C596.4,299.8,596.9,299.3,596.9,298.7z M594.6,295.6    c0,0.6,0.5,0.9,1.2,1.1c0.5-0.2,0.9-0.6,0.9-1.1c0-0.5-0.3-1-1-1C595,294.6,594.6,295.1,594.6,295.6z" fill="#808080" id="path_24" />
    </g>
  </g>
  <g id="g_27">
    <g id="g_28">
      <path d="M622.2,296.1c0.2-0.8,0.6-1.8,0.9-2.2l0.5-0.1c-0.2,0.6-0.5,1.5-0.6,2.2L622.2,296.1z" fill="#808080" id="path_23" />
      <path d="M628.3,294.1v0.5l-2.7,5.6h-0.9l2.7-5.4v0h-3v-0.7H628.3z" fill="#808080" id="path_22" />
      <path d="M633.2,297.1c0,2.1-0.8,3.2-2.1,3.2c-1.2,0-2-1.1-2-3.1c0-2.1,0.9-3.2,2.1-3.2    C632.5,294,633.2,295.2,633.2,297.1z M629.9,297.2c0,1.6,0.5,2.5,1.2,2.5c0.8,0,1.3-1,1.3-2.6c0-1.5-0.4-2.5-1.2-2.5    C630.4,294.7,629.9,295.6,629.9,297.2z" fill="#808080" id="path_21" />
    </g>
  </g>
  <g id="g_25">
    <g id="g_26">
      <path d="M658.3,296.1c0.2-0.8,0.6-1.8,0.9-2.2l0.5-0.1c-0.2,0.6-0.5,1.5-0.6,2.2L658.3,296.1z" fill="#808080" id="path_20" />
      <path d="M664.4,294.1v0.5l-2.7,5.6h-0.9l2.7-5.4v0h-3v-0.7H664.4z" fill="#808080" id="path_19" />
      <path d="M665.2,300.3v-0.5l0.7-0.6c1.6-1.5,2.3-2.3,2.3-3.2c0-0.6-0.3-1.2-1.2-1.2c-0.6,0-1,0.3-1.3,0.5l-0.3-0.6    c0.4-0.4,1-0.6,1.7-0.6c1.3,0,1.9,0.9,1.9,1.8c0,1.1-0.8,2-2.1,3.3l-0.5,0.5v0h2.8v0.7H665.2z" fill="#808080" id="path_18" />
    </g>
  </g>
  <g id="g_23">
    <g id="g_24">
      <polyline points="92.8,246.2 75.4,250 58.5,258.5   " fill="none" stroke="#FF0000" stroke-width="3" stroke-linecap="round" id="polyline_1" />
      <line x1="110.6" y1="254.8" x2="92.8" y2="246.2" fill="none" stroke="#FF0000" stroke-width="3" stroke-linecap="round" id="line_90" />
      <line x1="128.5" y1="233.4" x2="110.6" y2="254.8" fill="none" stroke="#FF0000" stroke-width="3" stroke-linecap="round" id="line_89" />
      <line x1="146.3" y1="237.7" x2="128.5" y2="233.4" fill="none" stroke="#FF0000" stroke-width="3" stroke-linecap="round" id="line_88" />
      <line x1="164.2" y1="254.8" x2="146.3" y2="237.7" fill="none" stroke="#FF0000" stroke-width="3" stroke-linecap="round" id="line_87" />
      <line x1="182" y1="229.1" x2="164.2" y2="254.8" fill="none" stroke="#FF0000" stroke-width="3" stroke-linecap="round" id="line_86" />
      <line x1="199.9" y1="241.9" x2="182" y2="229.1" fill="none" stroke="#FF0000" stroke-width="3" stroke-linecap="round" id="line_85" />
      <line x1="217.7" y1="207.7" x2="199.9" y2="241.9" fill="none" stroke="#FF0000" stroke-width="3" stroke-linecap="round" id="line_84" />
      <line x1="235.6" y1="212" x2="217.7" y2="207.7" fill="none" stroke="#FF0000" stroke-width="3" stroke-linecap="round" id="line_83" />
      <line x1="253.4" y1="203.4" x2="235.6" y2="212" fill="none" stroke="#FF0000" stroke-width="3" stroke-linecap="round" id="line_82" />
      <line x1="271.2" y1="207.7" x2="253.4" y2="203.4" fill="none" stroke="#FF0000" stroke-width="3" stroke-linecap="round" id="line_81" />
      <line x1="289.1" y1="182.1" x2="271.2" y2="207.7" fill="none" stroke="#FF0000" stroke-width="3" stroke-linecap="round" id="line_80" />
      <line x1="306.9" y1="224.8" x2="289.1" y2="182.1" fill="none" stroke="#FF0000" stroke-width="3" stroke-linecap="round" id="line_79" />
      <line x1="324.8" y1="207.7" x2="306.9" y2="224.8" fill="none" stroke="#FF0000" stroke-width="3" stroke-linecap="round" id="line_78" />
      <line x1="342.6" y1="212" x2="324.8" y2="207.7" fill="none" stroke="#FF0000" stroke-width="3" stroke-linecap="round" id="line_77" />
      <line x1="360.5" y1="203.4" x2="342.6" y2="212" fill="none" stroke="#FF0000" stroke-width="3" stroke-linecap="round" id="line_76" />
      <line x1="378.3" y1="156.4" x2="360.5" y2="203.4" fill="none" stroke="#FF0000" stroke-width="3" stroke-linecap="round" id="line_75" />
      <line x1="396.1" y1="173.5" x2="378.3" y2="156.4" fill="none" stroke="#FF0000" stroke-width="3" stroke-linecap="round" id="line_74" />
      <line x1="414" y1="139.3" x2="396.1" y2="173.5" fill="none" stroke="#FF0000" stroke-width="3" stroke-linecap="round" id="line_73" />
      <line x1="431.8" y1="207.7" x2="414" y2="139.3" fill="none" stroke="#FF0000" stroke-width="3" stroke-linecap="round" id="line_72" />
      <line x1="449.7" y1="113.6" x2="431.8" y2="207.7" fill="none" stroke="#FF0000" stroke-width="3" stroke-linecap="round" id="line_71" />
      <line x1="467.5" y1="156.4" x2="449.7" y2="113.6" fill="none" stroke="#FF0000" stroke-width="3" stroke-linecap="round" id="line_70" />
      <line x1="485.4" y1="70.9" x2="467.5" y2="156.4" fill="none" stroke="#FF0000" stroke-width="3" stroke-linecap="round" id="line_69" />
      <line x1="503.2" y1="96.5" x2="485.4" y2="70.9" fill="none" stroke="#FF0000" stroke-width="3" stroke-linecap="round" id="line_68" />
      <line x1="521" y1="36.6" x2="503.2" y2="96.5" fill="none" stroke="#FF0000" stroke-width="3" stroke-linecap="round" id="line_67" />
      <line x1="538.9" y1="45.2" x2="521" y2="36.6" fill="none" stroke="#FF0000" stroke-width="3" stroke-linecap="round" id="line_66" />
      <line x1="556.7" y1="36.6" x2="538.9" y2="45.2" fill="none" stroke="#FF0000" stroke-width="3" stroke-linecap="round" id="line_65" />
      <line x1="574.6" y1="62.3" x2="556.7" y2="36.6" fill="none" stroke="#FF0000" stroke-width="3" stroke-linecap="round" id="line_64" />
      <line x1="592.4" y1="70.9" x2="574.6" y2="62.3" fill="none" stroke="#FF0000" stroke-width="3" stroke-linecap="round" id="line_63" />
      <line x1="610.3" y1="156.4" x2="592.4" y2="70.9" fill="none" stroke="#FF0000" stroke-width="3" stroke-linecap="round" id="line_62" />
      <line x1="628.1" y1="130.7" x2="610.3" y2="156.4" fill="none" stroke="#FF0000" stroke-width="3" stroke-linecap="round" id="line_61" />
      <line x1="645.9" y1="156.4" x2="628.1" y2="130.7" fill="none" stroke="#FF0000" stroke-width="3" stroke-linecap="round" id="line_60" />
      <line x1="663.8" y1="96.5" x2="645.9" y2="156.4" fill="none" stroke="#FF0000" stroke-width="3" stroke-linecap="round" id="line_59" />
      <line x1="681.6" y1="113.6" x2="663.8" y2="96.5" fill="none" stroke="#FF0000" stroke-width="3" stroke-linecap="round" id="line_58" />
    </g>
  </g>
  <g id="g_21">
    <g id="g_22">
      <polyline points="93.2,279.3 75.1,281.5 58.9,284   " fill="none" stroke="#FFB3B3" stroke-width="3" stroke-linecap="round" id="polyline" />
      <line x1="110.7" y1="279" x2="92.8" y2="279.3" fill="none" stroke="#FFB3B3" stroke-width="3" stroke-linecap="round" id="line_57" />
      <line x1="128.5" y1="279.6" x2="110.7" y2="279" fill="none" stroke="#FFB3B3" stroke-width="3" stroke-linecap="round" id="line_56" />
      <line x1="146.3" y1="283" x2="128.5" y2="279.6" fill="none" stroke="#FFB3B3" stroke-width="3" stroke-linecap="round" id="line_55" />
      <line x1="164.2" y1="282.1" x2="146.3" y2="283" fill="none" stroke="#FFB3B3" stroke-width="3" stroke-linecap="round" id="line_54" />
      <line x1="182" y1="283" x2="164.2" y2="282.1" fill="none" stroke="#FFB3B3" stroke-width="3" stroke-linecap="round" id="line_53" />
      <line x1="199.9" y1="277" x2="182" y2="283" fill="none" stroke="#FFB3B3" stroke-width="3" stroke-linecap="round" id="line_52" />
      <line x1="217.7" y1="278.7" x2="199.9" y2="277" fill="none" stroke="#FFB3B3" stroke-width="3" stroke-linecap="round" id="line_51" />
      <line x1="235.6" y1="276.1" x2="217.7" y2="278.7" fill="none" stroke="#FFB3B3" stroke-width="3" stroke-linecap="round" id="line_50" />
      <line x1="253.4" y1="276.1" x2="235.6" y2="276.1" fill="none" stroke="#FFB3B3" stroke-width="3" stroke-linecap="round" id="line_49" />
      <line x1="271.2" y1="280.4" x2="253.4" y2="276.1" fill="none" stroke="#FFB3B3" stroke-width="3" stroke-linecap="round" id="line_48" />
      <line x1="289.1" y1="271.9" x2="271.2" y2="280.4" fill="none" stroke="#FFB3B3" stroke-width="3" stroke-linecap="round" id="line_47" />
      <line x1="306.9" y1="273.6" x2="289.1" y2="271.9" fill="none" stroke="#FFB3B3" stroke-width="3" stroke-linecap="round" id="line_46" />
      <line x1="324.8" y1="267.6" x2="306.9" y2="273.6" fill="none" stroke="#FFB3B3" stroke-width="3" stroke-linecap="round" id="line_45" />
      <line x1="342.6" y1="275.3" x2="324.8" y2="267.6" fill="none" stroke="#FFB3B3" stroke-width="3" stroke-linecap="round" id="line_44" />
      <line x1="360.5" y1="273.6" x2="342.6" y2="275.3" fill="none" stroke="#FFB3B3" stroke-width="3" stroke-linecap="round" id="line_43" />
      <line x1="378.3" y1="278.7" x2="360.5" y2="273.6" fill="none" stroke="#FFB3B3" stroke-width="3" stroke-linecap="round" id="line_42" />
      <line x1="396.1" y1="265.9" x2="378.3" y2="278.7" fill="none" stroke="#FFB3B3" stroke-width="3" stroke-linecap="round" id="line_41" />
      <line x1="414" y1="268.4" x2="396.1" y2="265.9" fill="none" stroke="#FFB3B3" stroke-width="3" stroke-linecap="round" id="line_40" />
      <line x1="431.8" y1="259" x2="414" y2="268.4" fill="none" stroke="#FFB3B3" stroke-width="3" stroke-linecap="round" id="line_39" />
      <line x1="449.7" y1="263.3" x2="431.8" y2="259" fill="none" stroke="#FFB3B3" stroke-width="3" stroke-linecap="round" id="line_38" />
      <line x1="467.5" y1="241.9" x2="449.7" y2="263.3" fill="none" stroke="#FFB3B3" stroke-width="3" stroke-linecap="round" id="line_37" />
      <line x1="485.4" y1="250.5" x2="467.5" y2="241.9" fill="none" stroke="#FFB3B3" stroke-width="3" stroke-linecap="round" id="line_36" />
      <line x1="503.2" y1="216.3" x2="485.4" y2="250.5" fill="none" stroke="#FFB3B3" stroke-width="3" stroke-linecap="round" id="line_35" />
      <line x1="521" y1="233.4" x2="503.2" y2="216.3" fill="none" stroke="#FFB3B3" stroke-width="3" stroke-linecap="round" id="line_34" />
      <line x1="538.9" y1="224.8" x2="521" y2="233.4" fill="none" stroke="#FFB3B3" stroke-width="3" stroke-linecap="round" id="line_33" />
      <line x1="556.7" y1="250.5" x2="538.9" y2="224.8" fill="none" stroke="#FFB3B3" stroke-width="3" stroke-linecap="round" id="line_32" />
      <line x1="574.6" y1="246.2" x2="556.7" y2="250.5" fill="none" stroke="#FFB3B3" stroke-width="3" stroke-linecap="round" id="line_31" />
      <line x1="592.4" y1="248.8" x2="574.6" y2="246.2" fill="none" stroke="#FFB3B3" stroke-width="3" stroke-linecap="round" id="line_30" />
      <line x1="610.3" y1="244.5" x2="592.4" y2="248.8" fill="none" stroke="#FFB3B3" stroke-width="3" stroke-linecap="round" id="line_29" />
      <line x1="628.1" y1="246.2" x2="610.3" y2="244.5" fill="none" stroke="#FFB3B3" stroke-width="3" stroke-linecap="round" id="line_28" />
      <line x1="645.9" y1="207.7" x2="628.1" y2="246.2" fill="none" stroke="#FFB3B3" stroke-width="3" stroke-linecap="round" id="line_27" />
      <line x1="663.8" y1="212" x2="645.9" y2="207.7" fill="none" stroke="#FFB3B3" stroke-width="3" stroke-linecap="round" id="line_26" />
      <line x1="681.6" y1="182.1" x2="663.8" y2="212" fill="none" stroke="#FFB3B3" stroke-width="3" stroke-linecap="round" id="line_25" />
    </g>
  </g>
  <line x1="57.6" y1="284.7" x2="682.6" y2="284.7" fill="none" stroke="#666666" id="line_24" />
  <g id="g_19">
    <g id="g_20">
      <line x1="93.2" y1="288.6" x2="93.2" y2="285" fill="none" stroke="#666666" id="line_23" />
      <line x1="128.9" y1="288.6" x2="128.9" y2="285" fill="none" stroke="#666666" id="line_22" />
      <line x1="164.6" y1="288.6" x2="164.6" y2="285" fill="none" stroke="#666666" id="line_21" />
      <line x1="200.3" y1="288.6" x2="200.3" y2="285" fill="none" stroke="#666666" id="line_20" />
      <line x1="236" y1="288.6" x2="236" y2="285" fill="none" stroke="#666666" id="line_19" />
      <line x1="271.7" y1="288.6" x2="271.7" y2="285" fill="none" stroke="#666666" id="line_18" />
      <line x1="307.4" y1="288.6" x2="307.4" y2="285" fill="none" stroke="#666666" id="line_17" />
      <line x1="343.1" y1="288.6" x2="343.1" y2="285" fill="none" stroke="#666666" id="line_16" />
      <line x1="378.7" y1="288.6" x2="378.7" y2="285" fill="none" stroke="#666666" id="line_15" />
      <line x1="414.4" y1="288.6" x2="414.4" y2="285" fill="none" stroke="#666666" id="line_14" />
      <line x1="450.1" y1="288.6" x2="450.1" y2="285" fill="none" stroke="#666666" id="line_13" />
      <line x1="485.8" y1="288.6" x2="485.8" y2="285" fill="none" stroke="#666666" id="line_12" />
      <line x1="521.5" y1="288.6" x2="521.5" y2="285" fill="none" stroke="#666666" id="line_11" />
      <line x1="557.2" y1="288.6" x2="557.2" y2="285" fill="none" stroke="#666666" id="line_10" />
      <line x1="592.9" y1="288.6" x2="592.9" y2="285" fill="none" stroke="#666666" id="line_9" />
      <line x1="628.5" y1="288.6" x2="628.5" y2="285" fill="none" stroke="#666666" id="line_8" />
      <line x1="664.2" y1="288.6" x2="664.2" y2="285" fill="none" stroke="#666666" id="line_7" />
    </g>
  </g>
  <g id="g_11">
    <g id="g_18">
      <path d="M48.9,284.9c0,2.1-0.8,3.2-2.1,3.2c-1.2,0-2-1.1-2-3.1c0-2.1,0.9-3.2,2.1-3.2C48.1,281.8,48.9,283,48.9,284.9    z M45.5,285c0,1.6,0.5,2.5,1.2,2.5c0.8,0,1.3-1,1.3-2.6c0-1.5-0.4-2.5-1.2-2.5C46.1,282.5,45.5,283.4,45.5,285z" fill="#808080" id="path_17" />
    </g>
    <g id="g_17">
      <path d="M43.6,239.9h-2.3l-0.2,1.6c0.1,0,0.3,0,0.5,0c0.5,0,0.9,0.1,1.3,0.3c0.5,0.3,0.9,0.8,0.9,1.6    c0,1.2-1,2.1-2.3,2.1c-0.7,0-1.2-0.2-1.5-0.4l0.2-0.6c0.3,0.2,0.8,0.3,1.3,0.3c0.8,0,1.5-0.5,1.5-1.3c0-0.8-0.5-1.4-1.8-1.4    c-0.3,0-0.6,0-0.8,0.1l0.4-2.9h2.9V239.9z" fill="#808080" id="path_16" />
      <path d="M48.9,242.2c0,2.1-0.8,3.2-2.1,3.2c-1.2,0-2-1.1-2-3.1c0-2.1,0.9-3.2,2.1-3.2    C48.1,239.1,48.9,240.2,48.9,242.2z M45.5,242.3c0,1.6,0.5,2.5,1.2,2.5c0.8,0,1.3-1,1.3-2.6c0-1.5-0.4-2.5-1.2-2.5    C46.1,239.7,45.5,240.6,45.5,242.3z" fill="#808080" id="path_15" />
    </g>
    <g id="g_16">
      <path d="M36.9,197.2L36.9,197.2l-1.1,0.6l-0.2-0.6l1.3-0.7h0.7v6.1h-0.8V197.2z" fill="#808080" id="path_14" />
      <path d="M44,199.4c0,2.1-0.8,3.2-2.1,3.2c-1.2,0-2-1.1-2-3.1c0-2.1,0.9-3.2,2.1-3.2C43.3,196.3,44,197.4,44,199.4z     M40.7,199.5c0,1.6,0.5,2.5,1.2,2.5c0.8,0,1.3-1,1.3-2.6c0-1.5-0.4-2.5-1.2-2.5C41.2,196.9,40.7,197.8,40.7,199.5z" fill="#808080" id="path_13" />
      <path d="M48.9,199.4c0,2.1-0.8,3.2-2.1,3.2c-1.2,0-2-1.1-2-3.1c0-2.1,0.9-3.2,2.1-3.2    C48.1,196.3,48.9,197.4,48.9,199.4z M45.5,199.5c0,1.6,0.5,2.5,1.2,2.5c0.8,0,1.3-1,1.3-2.6c0-1.5-0.4-2.5-1.2-2.5    C46.1,196.9,45.5,197.8,45.5,199.5z" fill="#808080" id="path_12" />
    </g>
    <g id="g_15">
      <path d="M36.9,154.4L36.9,154.4l-1.1,0.6l-0.2-0.6l1.3-0.7h0.7v6.1h-0.8V154.4z" fill="#808080" id="path_11" />
      <path d="M43.6,154.3h-2.3l-0.2,1.6c0.1,0,0.3,0,0.5,0c0.5,0,0.9,0.1,1.3,0.3c0.5,0.3,0.9,0.8,0.9,1.6    c0,1.2-1,2.1-2.3,2.1c-0.7,0-1.2-0.2-1.5-0.4l0.2-0.6c0.3,0.2,0.8,0.3,1.3,0.3c0.8,0,1.5-0.5,1.5-1.3c0-0.8-0.5-1.4-1.8-1.4    c-0.3,0-0.6,0-0.8,0.1l0.4-2.9h2.9V154.3z" fill="#808080" id="path_10" />
      <path d="M48.9,156.6c0,2.1-0.8,3.2-2.1,3.2c-1.2,0-2-1.1-2-3.1c0-2.1,0.9-3.2,2.1-3.2    C48.1,153.5,48.9,154.7,48.9,156.6z M45.5,156.7c0,1.6,0.5,2.5,1.2,2.5c0.8,0,1.3-1,1.3-2.6c0-1.5-0.4-2.5-1.2-2.5    C46.1,154.2,45.5,155.1,45.5,156.7z" fill="#808080" id="path_9" />
    </g>
    <g id="g_14">
      <path d="M35.1,117v-0.5l0.7-0.6c1.6-1.5,2.3-2.3,2.3-3.2c0-0.6-0.3-1.2-1.2-1.2c-0.6,0-1,0.3-1.3,0.5l-0.3-0.6    c0.4-0.4,1-0.6,1.7-0.6c1.3,0,1.9,0.9,1.9,1.8c0,1.1-0.8,2-2.1,3.3l-0.5,0.5v0H39v0.7H35.1z" fill="#808080" id="path_8" />
      <path d="M44,113.9c0,2.1-0.8,3.2-2.1,3.2c-1.2,0-2-1.1-2-3.1c0-2.1,0.9-3.2,2.1-3.2C43.3,110.8,44,111.9,44,113.9z     M40.7,114c0,1.6,0.5,2.5,1.2,2.5c0.8,0,1.3-1,1.3-2.6c0-1.5-0.4-2.5-1.2-2.5C41.2,111.4,40.7,112.3,40.7,114z" fill="#808080" id="path_7" />
      <path d="M48.9,113.9c0,2.1-0.8,3.2-2.1,3.2c-1.2,0-2-1.1-2-3.1c0-2.1,0.9-3.2,2.1-3.2    C48.1,110.8,48.9,111.9,48.9,113.9z M45.5,114c0,1.6,0.5,2.5,1.2,2.5c0.8,0,1.3-1,1.3-2.6c0-1.5-0.4-2.5-1.2-2.5    C46.1,111.4,45.5,112.3,45.5,114z" fill="#808080" id="path_6" />
    </g>
    <g id="g_13">
      <path d="M35.1,74.2v-0.5l0.7-0.6c1.6-1.5,2.3-2.3,2.3-3.2c0-0.6-0.3-1.2-1.2-1.2c-0.6,0-1,0.3-1.3,0.5l-0.3-0.6    c0.4-0.4,1-0.6,1.7-0.6c1.3,0,1.9,0.9,1.9,1.8c0,1.1-0.8,2-2.1,3.3l-0.5,0.5v0H39v0.7H35.1z" fill="#808080" id="path_5" />
      <path d="M43.6,68.8h-2.3L41,70.4c0.1,0,0.3,0,0.5,0c0.5,0,0.9,0.1,1.3,0.3c0.5,0.3,0.9,0.8,0.9,1.6    c0,1.2-1,2.1-2.3,2.1c-0.7,0-1.2-0.2-1.5-0.4l0.2-0.6c0.3,0.2,0.8,0.3,1.3,0.3c0.8,0,1.5-0.5,1.5-1.3c0-0.8-0.5-1.4-1.8-1.4    c-0.3,0-0.6,0-0.8,0.1l0.4-2.9h2.9V68.8z" fill="#808080" id="path_4" />
      <path d="M48.9,71.1c0,2.1-0.8,3.2-2.1,3.2c-1.2,0-2-1.1-2-3.1c0-2.1,0.9-3.2,2.1-3.2C48.1,68,48.9,69.1,48.9,71.1z     M45.5,71.2c0,1.6,0.5,2.5,1.2,2.5c0.8,0,1.3-1,1.3-2.6c0-1.5-0.4-2.5-1.2-2.5C46.1,68.6,45.5,69.5,45.5,71.2z" fill="#808080" id="path_3" />
    </g>
    <g id="g_12">
      <path d="M35.3,30.5c0.2,0.2,0.8,0.4,1.4,0.4c1.1,0,1.4-0.7,1.4-1.2c0-0.9-0.8-1.2-1.6-1.2H36v-0.6h0.5    c0.6,0,1.4-0.3,1.4-1c0-0.5-0.3-0.9-1.1-0.9c-0.5,0-1,0.2-1.2,0.4l-0.2-0.6c0.3-0.2,0.9-0.5,1.6-0.5c1.2,0,1.8,0.7,1.8,1.5    c0,0.6-0.4,1.2-1.1,1.4v0c0.8,0.2,1.4,0.7,1.4,1.6c0,1-0.8,1.8-2.2,1.8c-0.7,0-1.3-0.2-1.6-0.4L35.3,30.5z" fill="#808080" id="path_2" />
      <path d="M44,28.3c0,2.1-0.8,3.2-2.1,3.2c-1.2,0-2-1.1-2-3.1c0-2.1,0.9-3.2,2.1-3.2C43.3,25.2,44,26.4,44,28.3z     M40.7,28.4c0,1.6,0.5,2.5,1.2,2.5c0.8,0,1.3-1,1.3-2.6c0-1.5-0.4-2.5-1.2-2.5C41.2,25.9,40.7,26.7,40.7,28.4z" fill="#808080" id="path_1" />
      <path d="M48.9,28.3c0,2.1-0.8,3.2-2.1,3.2c-1.2,0-2-1.1-2-3.1c0-2.1,0.9-3.2,2.1-3.2C48.1,25.2,48.9,26.4,48.9,28.3z     M45.5,28.4c0,1.6,0.5,2.5,1.2,2.5c0.8,0,1.3-1,1.3-2.6c0-1.5-0.4-2.5-1.2-2.5C46.1,25.9,45.5,26.7,45.5,28.4z" fill="#808080" id="path" />
    </g>
  </g>
  <line x1="57.6" y1="284.7" x2="57.6" y2="28.1" fill="none" stroke="#666666" id="line_6" />
  <g id="g_10">
    <line x1="52.2" y1="242.3" x2="57.9" y2="242.3" fill="none" stroke="#666666" id="line_5" />
    <line x1="52.2" y1="199.6" x2="57.9" y2="199.6" fill="none" stroke="#666666" id="line_4" />
    <line x1="52.2" y1="156.8" x2="57.9" y2="156.8" fill="none" stroke="#666666" id="line_3" />
    <line x1="52.2" y1="114" x2="57.9" y2="114" fill="none" stroke="#666666" id="line_2" />
    <line x1="52.2" y1="71.3" x2="57.9" y2="71.3" fill="none" stroke="#666666" id="line_1" />
    <line x1="52.2" y1="28.5" x2="57.9" y2="28.5" fill="none" stroke="#666666" id="line" />
  </g>
  <g id="g_9">
</g>
  <g id="g_8">
</g>
  <g id="g_7">
</g>
  <g id="g_6">
</g>
  <g id="g_5">
</g>
  <g id="g_4">
</g>
  <g id="g_3">
</g>
  <g id="g_2">
</g>
  <g id="g_1">
</g>
  <g id="g">
</g>
</svg>