<?xml version='1.0' encoding='us-ascii'?>
<svg xmlns="http://www.w3.org/2000/svg" width="880" height="340" viewBox="-440,-170,880,340" style="max-width: 100%; height: auto; font: 10px sans-serif;">
    <line x1="-400" y1="140" x2="400" y2="140" stroke="black" stroke-width="2" id="line_15" />
    <line x1="-400" y1="140" x2="-400" y2="-140" stroke="black" stroke-width="2" id="line_14" />
    <rect x="-380" y="50" width="20" height="60" fill="lightgreen" id="rect_13" />
    <line x1="-370" y1="30" x2="-370" y2="110" stroke="black" stroke-width="2" id="line_13" />
    <rect x="-340" y="30" width="20" height="40" fill="salmon" id="rect_12" />
    <line x1="-330" y1="20" x2="-330" y2="90" stroke="black" stroke-width="2" id="line_12" />
    <rect x="-300" y="70" width="20" height="50" fill="lightgreen" id="rect_11" />
    <line x1="-290" y1="50" x2="-290" y2="140" stroke="black" stroke-width="2" id="line_11" />
    <rect x="-260" y="40" width="20" height="40" fill="salmon" id="rect_10" />
    <line x1="-250" y1="20" x2="-250" y2="100" stroke="black" stroke-width="2" id="line_10" />
    <rect x="-220" y="80" width="20" height="50" fill="lightgreen" id="rect_9" />
    <line x1="-210" y1="60" x2="-210" y2="140" stroke="black" stroke-width="2" id="line_9" />
    <rect x="-180" y="10" width="20" height="60" fill="salmon" id="rect_8" />
    <line x1="-170" y1="-10" x2="-170" y2="80" stroke="black" stroke-width="2" id="line_8" />
    <rect x="-140" y="20" width="20" height="40" fill="lightgreen" id="rect_7" />
    <line x1="-130" y1="0" x2="-130" y2="80" stroke="black" stroke-width="2" id="line_7" />
    <rect x="-100" y="30" width="20" height="50" fill="salmon" id="rect_6" />
    <line x1="-90" y1="10" x2="-90" y2="100" stroke="black" stroke-width="2" id="line_6" />
    <rect x="-60" y="40" width="20" height="40" fill="lightgreen" id="rect_5" />
    <line x1="-50" y1="20" x2="-50" y2="100" stroke="black" stroke-width="2" id="line_5" />
    <rect x="-20" y="10" width="20" height="60" fill="salmon" id="rect_4" />
    <line x1="-10" y1="-10" x2="-10" y2="80" stroke="black" stroke-width="2" id="line_4" />
    <rect x="20" y="50" width="20" height="50" fill="lightgreen" id="rect_3" />
    <line x1="30" y1="30" x2="30" y2="110" stroke="black" stroke-width="2" id="line_3" />
    <rect x="60" y="40" width="20" height="60" fill="salmon" id="rect_2" />
    <line x1="70" y1="20" x2="70" y2="100" stroke="black" stroke-width="2" id="line_2" />
    <rect x="100" y="20" width="20" height="50" fill="lightgreen" id="rect_1" />
    <line x1="110" y1="0" x2="110" y2="80" stroke="black" stroke-width="2" id="line_1" />
    <rect x="140" y="30" width="20" height="40" fill="salmon" id="rect" />
    <line x1="150" y1="10" x2="150" y2="90" stroke="black" stroke-width="2" id="line" />
</svg>