<?xml version='1.0' encoding='us-ascii'?>
<svg xmlns="http://www.w3.org/2000/svg" width="880" height="340" viewBox="-440,-170,880,340" style="max-width: 100%; height: auto; font: 10px sans-serif;">
    <line x1="-400" y1="140" x2="400" y2="140" stroke="black" stroke-width="2" id="line_1" />
    <line x1="-400" y1="140" x2="-400" y2="-140" stroke="black" stroke-width="2" id="line" />
    <path d="M-380,100 C-360,70 -340,50 -320,20 C-300,-10 -280,-40 -260,-60 C-240,-80 -220,-100 -200,-120 C-180,-140 -160,-120 -140,-100 C-120,-80 -100,-60 -80,-40 C-60,-20 -40,0 -20,20 C0,40 20,60 40,80 C60,100 80,120 100,140 C120,160 140,140 160,120 C180,100 200,80 220,60 C240,40 260,20 280,0 C300,-20 320,-40 340,-60 C360,-80 380,-100 400,-120" fill="none" stroke="blue" stroke-width="2" id="path_3" />
    <path d="M-380,120 C-360,90 -340,70 -320,40 C-300,10 -280,-20 -260,-40 C-240,-60 -220,-80 -200,-100 C-180,-120 -160,-100 -140,-80 C-120,-60 -100,-40 -80,-20 C-60,0 -40,20 -20,40 C0,60 20,80 40,100 C60,120 80,140 100,160 C120,180 140,160 160,140 C180,120 200,100 220,80 C240,60 260,40 280,20 C300,0 320,-20 340,-40 C360,-60 380,-80 400,-100" fill="none" stroke="green" stroke-width="2" id="path_2" />
    <path d="M-380,140 C-360,110 -340,90 -320,60 C-300,30 -280,0 -260,-20 C-240,-40 -220,-60 -200,-80 C-180,-100 -160,-80 -140,-60 C-120,-40 -100,-20 -80,0 C-60,20 -40,40 -20,60 C0,80 20,100 40,120 C60,140 80,160 100,180 C120,200 140,180 160,160 C180,140 200,120 220,100 C240,80 260,60 280,40 C300,20 320,0 340,-20 C360,-40 380,-60 400,-80" fill="none" stroke="red" stroke-width="2" id="path_1" />
    <path d="M-380,160 C-360,130 -340,110 -320,80 C-300,50 -280,20 -260,0 C-240,-20 -220,-40 -200,-60 C-180,-80 -160,-60 -140,-40 C-120,-20 -100,0 -80,20 C-60,40 -40,60 -20,80 C0,100 20,120 40,140 C60,160 80,180 100,200 C120,220 140,200 160,180 C180,160 200,140 220,120 C240,100 260,80 280,60 C300,40 320,20 340,0 C360,-20 380,-40 400,-60" fill="none" stroke="purple" stroke-width="2" id="path" />
</svg>