<?xml version='1.0' encoding='us-ascii'?>
<svg xmlns="http://www.w3.org/2000/svg" width="880" height="340" viewBox="-440,-170,880,340" style="max-width: 100%; height: auto; font: 10px sans-serif;">
    <line x1="-400" y1="150" x2="400" y2="150" stroke="black" stroke-width="2" id="line_1" />
    <line x1="-400" y1="150" x2="-400" y2="-150" stroke="black" stroke-width="2" id="line" />
    <path d="M-380,150 L-360,100 L-340,80 L-320,60 L-300,40 L-280,20 L-260,0 L-240,-20 L-220,-40 L-200,-60 L-180,-80 L-160,-100 L-140,-120 L-120,-100 L-100,-80 L-80,-60 L-60,-40 L-40,-20 L-20,0 L0,20 L20,40 L40,60 L60,80 L80,100 L100,120 L120,150 Z" fill="skyblue" fill-opacity="0.5" stroke="skyblue" stroke-width="2" id="path_1" />
    <path d="M-380,150 L-360,120 L-340,100 L-320,80 L-300,60 L-280,40 L-260,20 L-240,0 L-220,-20 L-200,-40 L-180,-60 L-160,-80 L-140,-60 L-120,-40 L-100,-20 L-80,0 L-60,20 L-40,40 L-20,60 L0,80 L20,100 L40,120 L60,150 Z" fill="lightgreen" fill-opacity="0.5" stroke="lightgreen" stroke-width="2" id="path" />
</svg>