<?xml version='1.0' encoding='UTF-8'?>
<svg xmlns="http://www.w3.org/2000/svg" width="900" height="340" viewBox="-20,-30,1000,340" style="max-width: 100%; height: auto; font: 10px sans-serif;" id="svg">
  <g>
    <g fill="#fee08b">
      <rect x="371" y="45" width="104" height="30">
      </rect>
      <rect x="425" y="237" width="50" height="30">
      </rect>
      <rect x="309" y="109" width="166" height="30">
      </rect>
      <rect x="401" y="205" width="74" height="30">
      </rect>
      <rect x="350" y="77" width="125" height="30">
      </rect>
      <rect x="309" y="141" width="166" height="30">
      </rect>
      <rect x="437" y="301" width="38" height="30">
      </rect>
      <rect x="360" y="173" width="115" height="30">
      </rect>
      <rect x="433" y="269" width="42" height="30">
      </rect>
    </g>
    <g fill="#fc8d59">
      <rect x="157" y="45" width="214" height="30">
      </rect>
      <rect x="388" y="237" width="37" height="30">
      </rect>
      <rect x="239" y="109" width="70" height="30">
      </rect>
      <rect x="364" y="205" width="37" height="30">
      </rect>
      <rect x="194" y="77" width="156" height="30">
      </rect>
      <rect x="275" y="141" width="34" height="30">
      </rect>
      <rect x="398" y="301" width="39" height="30">
      </rect>
      <rect x="321" y="173" width="39" height="30">
      </rect>
      <rect x="392" y="269" width="41" height="30">
      </rect>
    </g>
    <g fill="#d53e4f">
      <rect x="80" y="45" width="77" height="30">
      </rect>
      <rect x="225" y="109" width="14" height="30">
      </rect>
    </g>
    <g fill="#e6f598">
      <rect x="475" y="45" width="58" height="30">
      </rect>
      <rect x="475" y="237" width="188" height="30">
      </rect>
      <rect x="475" y="109" width="70" height="30">
      </rect>
      <rect x="475" y="205" width="130" height="30">
      </rect>
      <rect x="475" y="77" width="63" height="30">
      </rect>
      <rect x="475" y="141" width="133" height="30">
      </rect>
      <rect x="475" y="301" width="115" height="30">
      </rect>
      <rect x="475" y="173" width="77" height="30">
      </rect>
      <rect x="475" y="269" width="125" height="30">
      </rect>
    </g>
    <g fill="#99d594">
      <rect x="533" y="45" width="27" height="30">
      </rect>
      <rect x="663" y="237" width="162" height="30">
      </rect>
      <rect x="545" y="109" width="124" height="30">
      </rect>
      <rect x="605" y="205" width="129" height="30">
      </rect>
      <rect x="538" y="77" width="156" height="30">
      </rect>
      <rect x="608" y="141" width="67" height="30">
      </rect>
      <rect x="590" y="301" width="154" height="30">
      </rect>
      <rect x="552" y="173" width="154" height="30">
      </rect>
      <rect x="600" y="269" width="167" height="30">
      </rect>
    </g>
    <g fill="#3288bd">
      <rect x="560" y="45" width="60" height="30">
      </rect>
      <rect x="825" y="237" width="62" height="30">
      </rect>
      <rect x="669" y="109" width="56" height="30">
      </rect>
      <rect x="734" y="205" width="130" height="30">
      </rect>

      <rect x="675" y="141" width="100" height="30">
      </rect>
      <rect x="744" y="301" width="154" height="30">
      </rect>
      <rect x="706" y="173" width="115" height="30">
      </rect>
      <rect x="767" y="269" width="125" height="30">
      </rect>
    </g>
  </g>
  <g transform="translate(0,40)" font-size="10" font-family="sans-serif" text-anchor="middle" fill="none">
    <g transform="translate(125,0)" opacity="1">
      <line y2="-6" stroke="currentColor"/>
      <text y="-9" dy="0em" fill="currentColor">70%</text>
    </g>
    <g transform="translate(175,0)" opacity="1">
      <line y2="-6" stroke="currentColor"/>
      <text y="-9" dy="0em" fill="currentColor">60%</text>
    </g>
    <g transform="translate(225,0)" opacity="1">
      <line y2="-6" stroke="currentColor"/>
      <text y="-9" dy="0em" fill="currentColor">50%</text>
    </g>
    <g transform="translate(275,0)" opacity="1">
      <line y2="-6" stroke="currentColor"/>
      <text y="-9" dy="0em" fill="currentColor">40%</text>
    </g>
    <g transform="translate(325,0)" opacity="1">
      <line y2="-6" stroke="currentColor"/>
      <text y="-9" dy="0em" fill="currentColor">30%</text>
    </g>
    <g transform="translate(375,0)" opacity="1">
      <line y2="-6" stroke="currentColor"/>
      <text y="-9" dy="0em" fill="currentColor">20%</text>
    </g>
    <g transform="translate(425,0)" opacity="1">
      <line y2="-6" stroke="currentColor"/>
      <text y="-9" dy="0em" fill="currentColor">10%</text>
    </g>
    <g transform="translate(475,0)" opacity="1">
      <line y2="-6" stroke="currentColor"/>
      <text y="-9" dy="0em" fill="currentColor">0%</text>
    </g>
    <g transform="translate(525,0)" opacity="1">
      <line y2="-6" stroke="currentColor"/>
      <text y="-9" dy="0em" fill="currentColor">10%</text>
    </g>
    <g transform="translate(575,0)" opacity="1">
      <line y2="-6" stroke="currentColor"/>
      <text y="-9" dy="0em" fill="currentColor">20%</text>
    </g>
    <g transform="translate(625,0)" opacity="1">
      <line y2="-6" stroke="currentColor"/>
      <text y="-9" dy="0em" fill="currentColor">30%</text>
    </g>
    <g transform="translate(675,0)" opacity="1">
      <line y2="-6" stroke="currentColor"/>
      <text y="-9" dy="0em" fill="currentColor">40%</text>
    </g>
    <g transform="translate(725,0)" opacity="1">
      <line y2="-6" stroke="currentColor"/>
      <text y="-9" dy="0em" fill="currentColor">50%</text>
    </g>
    <g transform="translate(775,0)" opacity="1">
      <line y2="-6" stroke="currentColor"/>
      <text y="-9" dy="0em" fill="currentColor">60%</text>
    </g>
    <g transform="translate(825,0)" opacity="1">
      <line y2="-6" stroke="currentColor"/>
      <text y="-9" dy="0em" fill="currentColor">70%</text>
    </g>
    <g transform="translate(875,0)" opacity="1">
      <line y2="-6" stroke="currentColor"/>
      <text y="-9" dy="0em" fill="currentColor">80%</text>
    </g>
    <text x="495" y="-24" text-anchor="start" fill="currentColor">More truths →</text>
    <text x="455" y="-24" text-anchor="end" fill="currentColor">← More falsehoods</text>
  </g>
  <g font-size="10" font-family="sans-serif" text-anchor="end" fill="none">
    <g transform="translate(80,60)" opacity="1">
      <line x2="-6" stroke="currentColor"/>
      <text x="-9" dy="0.32em" fill="currentColor">Donald Trump</text>
    </g>
    <g transform="translate(194,92)" opacity="1">
      <line x2="-6" stroke="currentColor"/>
      <text x="-9" dy="0.32em" fill="currentColor">Kamala Harris</text>
    </g>
    <g transform="translate(225,124)" opacity="1">
      <line x2="-6" stroke="currentColor"/>
      <text x="-9" dy="0.32em" fill="currentColor">Joe Biden</text>
    </g>
    <g transform="translate(275,156)" opacity="1">
      <line x2="-6" stroke="currentColor"/>
      <text x="-9" dy="0.32em" fill="currentColor">Pete Buttigieg</text>
    </g>
    <g transform="translate(321,188)" opacity="1">
      <line x2="-6" stroke="currentColor"/>
      <text x="-9" dy="0.32em" fill="currentColor">Beto O'Rourke</text>
    </g>
    <g transform="translate(364,220)" opacity="1">
      <line x2="-6" stroke="currentColor"/>
      <text x="-9" dy="0.32em" fill="currentColor">Elizabeth Warren</text>
    </g>
    <g transform="translate(388,252)" opacity="1">
      <line x2="-6" stroke="currentColor"/>
      <text x="-9" dy="0.32em" fill="currentColor">Bernie Sanders</text>
    </g>
    <g transform="translate(392,284)" opacity="1">
      <line x2="-6" stroke="currentColor"/>
      <text x="-9" dy="0.32em" fill="currentColor">Michael Bloomberg</text>
    </g>
    <g transform="translate(398,316)" opacity="1">
      <line x2="-6" stroke="currentColor"/>
      <text x="-9" dy="0.32em" fill="currentColor">Amy Klobuchar</text>
    </g>
  </g>
</svg>
