<?xml version='1.0' encoding='UTF-8'?>
<svg xmlns="http://www.w3.org/2000/svg" width="900" height="340" viewBox="-70,-30,880,340" style="max-width: 100%; height: auto; font: 10px sans-serif;">
  <g id="Layer_1">
</g>
  <g id="Layer_2">
    <line x1="87.5" y1="275.5" x2="87.5" y2="21.5" fill="none" stroke="#1A1A1A"/>
    <line x1="180.4" y1="275.5" x2="180.4" y2="21.5" fill="none" stroke="#808080" stroke-width="0.5"/>
    <line x1="134" y1="275.5" x2="134" y2="21.5" fill="none" stroke="#808080" stroke-width="0.5"/>
    <line x1="226.9" y1="275.5" x2="226.9" y2="21.5" fill="none" stroke="#808080" stroke-width="0.5"/>
    <line x1="273.3" y1="275.5" x2="273.3" y2="21.5" fill="none" stroke="#808080" stroke-width="0.5"/>
    <line x1="319.8" y1="275.5" x2="319.8" y2="21.5" fill="none" stroke="#808080" stroke-width="0.5"/>
    <line x1="366.3" y1="275.5" x2="366.3" y2="21.5" fill="none" stroke="#808080" stroke-width="0.5"/>
    <line x1="412.7" y1="275.5" x2="412.7" y2="21.5" fill="none" stroke="#808080" stroke-width="0.5"/>
    <line x1="459.2" y1="275.5" x2="459.2" y2="21.5" fill="none" stroke="#808080" stroke-width="0.5"/>
    <line x1="505.7" y1="275.5" x2="505.7" y2="21.5" fill="none" stroke="#808080" stroke-width="0.5"/>
    <line x1="552.1" y1="275.5" x2="552.1" y2="21.5" fill="none" stroke="#808080" stroke-width="0.5"/>
    <line x1="598.6" y1="275.5" x2="598.6" y2="21.5" fill="none" stroke="#808080" stroke-width="0.5"/>
    <line x1="645" y1="275.5" x2="645" y2="21.5" fill="none" stroke="#808080" stroke-width="0.5"/>
    <line x1="691.5" y1="275.5" x2="691.5" y2="21.5" fill="none" stroke="#808080" stroke-width="0.5"/>
    <g>
      <path d="M32.7,39v3.4h3.9V39h1.1V47h-1.1v-3.8h-3.9V47h-1V39H32.7z" fill="#333333"/>
      <path d="M42.6,47l-0.1-0.7h0c-0.3,0.5-0.9,0.9-1.8,0.9c-1.2,0-1.8-0.8-1.8-1.7c0-1.4,1.2-2.2,3.5-2.2v-0.1    c0-0.5-0.1-1.3-1.3-1.3c-0.5,0-1.1,0.2-1.5,0.4l-0.2-0.7c0.5-0.3,1.2-0.5,1.9-0.5c1.8,0,2.2,1.2,2.2,2.4v2.2c0,0.5,0,1,0.1,1.4    H42.6z M42.5,44.1c-1.2,0-2.5,0.2-2.5,1.3c0,0.7,0.5,1,1,1c0.8,0,1.2-0.5,1.4-1c0-0.1,0.1-0.2,0.1-0.3V44.1z" fill="#333333"/>
      <path d="M45.2,42.8c0-0.6,0-1.1,0-1.6h0.9l0,0.9h0c0.3-0.6,0.9-1.1,1.8-1.1c0.8,0,1.4,0.5,1.6,1.2h0    c0.2-0.3,0.4-0.6,0.6-0.8c0.3-0.3,0.7-0.4,1.3-0.4c0.8,0,1.9,0.5,1.9,2.5V47h-1v-3.3c0-1.1-0.4-1.8-1.3-1.8c-0.6,0-1.1,0.4-1.2,1    c0,0.1-0.1,0.3-0.1,0.5V47h-1v-3.5c0-0.9-0.4-1.6-1.2-1.6c-0.7,0-1.1,0.5-1.3,1.1c-0.1,0.2-0.1,0.3-0.1,0.5V47h-1V42.8z" fill="#333333"/>
      <path d="M56.4,39.6c0,0.4-0.3,0.6-0.7,0.6c-0.4,0-0.6-0.3-0.6-0.6c0-0.4,0.3-0.7,0.7-0.7    C56.1,38.9,56.4,39.2,56.4,39.6z M55.2,47v-5.8h1.1V47H55.2z" fill="#333333"/>
      <path d="M58,38.5h1.1V47H58V38.5z" fill="#333333"/>
      <path d="M62.1,39.6v1.7h1.5V42h-1.5v3.1c0,0.7,0.2,1.1,0.8,1.1c0.3,0,0.5,0,0.6-0.1l0,0.8c-0.2,0.1-0.5,0.1-0.9,0.1    c-0.5,0-0.9-0.2-1.1-0.4c-0.3-0.3-0.4-0.8-0.4-1.5V42h-0.9v-0.8h0.9v-1.4L62.1,39.6z" fill="#333333"/>
      <path d="M70,44.1c0,2.1-1.5,3.1-2.9,3.1c-1.6,0-2.8-1.2-2.8-3c0-1.9,1.3-3.1,2.9-3.1C68.9,41.1,70,42.3,70,44.1z     M65.4,44.2c0,1.3,0.7,2.2,1.8,2.2c1,0,1.8-0.9,1.8-2.3c0-1-0.5-2.2-1.7-2.2C65.9,41.9,65.4,43,65.4,44.2z" fill="#333333"/>
      <path d="M71.3,42.8c0-0.6,0-1.1,0-1.6h0.9l0.1,1h0c0.3-0.6,1-1.1,1.9-1.1c0.8,0,2.1,0.5,2.1,2.5V47h-1.1v-3.3    c0-0.9-0.3-1.7-1.3-1.7c-0.7,0-1.2,0.5-1.4,1.1c0,0.1-0.1,0.3-0.1,0.5V47h-1.1V42.8z" fill="#333333"/>
    </g>
    <g>
      <path d="M51.2,79.8h1v5.4c0,2.1-1.1,2.8-2.4,2.8c-0.4,0-0.9-0.1-1.1-0.2l0.2-0.9c0.2,0.1,0.5,0.2,0.9,0.2    c0.9,0,1.5-0.4,1.5-2V79.8z" fill="#333333"/>
      <path d="M59.2,84.9c0,2.1-1.5,3.1-2.9,3.1c-1.6,0-2.8-1.2-2.8-3c0-1.9,1.3-3.1,2.9-3.1C58.1,81.9,59.2,83.1,59.2,84.9    z M54.6,85c0,1.3,0.7,2.2,1.8,2.2c1,0,1.8-0.9,1.8-2.3c0-1-0.5-2.2-1.7-2.2C55.2,82.7,54.6,83.9,54.6,85z" fill="#333333"/>
      <path d="M60.6,83.6c0-0.6,0-1.1,0-1.6h0.9l0.1,1h0c0.3-0.6,1-1.1,1.9-1.1c0.8,0,2.1,0.5,2.1,2.5v3.5h-1.1v-3.3    c0-0.9-0.3-1.7-1.3-1.7c-0.7,0-1.2,0.5-1.4,1.1c0,0.1-0.1,0.3-0.1,0.5v3.5h-1.1V83.6z" fill="#333333"/>
      <path d="M67.8,85.1c0,1.4,0.9,2,2,2c0.8,0,1.2-0.1,1.6-0.3l0.2,0.8c-0.4,0.2-1,0.4-1.9,0.4c-1.8,0-2.9-1.2-2.9-2.9    c0-1.8,1-3.1,2.7-3.1c1.9,0,2.4,1.7,2.4,2.7c0,0.2,0,0.4,0,0.5H67.8z M70.9,84.4c0-0.7-0.3-1.7-1.5-1.7c-1.1,0-1.5,1-1.6,1.7H70.9    z" fill="#333333"/>
      <path d="M73.1,86.8c0.3,0.2,0.9,0.4,1.4,0.4c0.8,0,1.1-0.4,1.1-0.9c0-0.5-0.3-0.8-1.1-1.1c-1-0.4-1.5-0.9-1.5-1.6    c0-0.9,0.8-1.7,2-1.7c0.6,0,1.1,0.2,1.4,0.4L76.2,83c-0.2-0.1-0.6-0.3-1.2-0.3c-0.6,0-1,0.4-1,0.8c0,0.5,0.3,0.7,1.1,1    c1,0.4,1.5,0.9,1.5,1.8c0,1-0.8,1.7-2.2,1.7c-0.6,0-1.2-0.2-1.6-0.4L73.1,86.8z" fill="#333333"/>
    </g>
    <g>
      <path d="M28.2,127.4c0.5,0.3,1.2,0.5,1.9,0.5c1.1,0,1.7-0.6,1.7-1.4c0-0.8-0.4-1.2-1.5-1.6c-1.3-0.5-2.1-1.2-2.1-2.3    c0-1.3,1-2.2,2.6-2.2c0.8,0,1.4,0.2,1.8,0.4l-0.3,0.9c-0.3-0.1-0.8-0.4-1.5-0.4c-1.1,0-1.5,0.7-1.5,1.2c0,0.8,0.5,1.1,1.6,1.6    c1.4,0.5,2.1,1.2,2.1,2.4c0,1.2-0.9,2.3-2.8,2.3c-0.8,0-1.6-0.2-2.1-0.5L28.2,127.4z" fill="#333333"/>
      <path d="M35.4,121.2c0,0.4-0.3,0.6-0.7,0.6c-0.4,0-0.6-0.3-0.6-0.6c0-0.4,0.3-0.7,0.7-0.7    C35.2,120.6,35.4,120.8,35.4,121.2z M34.3,128.7v-5.8h1.1v5.8H34.3z" fill="#333333"/>
      <path d="M37.1,120.1h1.1v8.5h-1.1V120.1z" fill="#333333"/>
      <path d="M40.3,122.8l1.1,3.3c0.2,0.5,0.3,1,0.5,1.5h0c0.1-0.5,0.3-1,0.5-1.5l1.1-3.3h1.1l-2.3,5.8h-1l-2.2-5.8H40.3z" fill="#333333"/>
      <path d="M46.2,125.9c0,1.4,0.9,2,2,2c0.8,0,1.2-0.1,1.6-0.3l0.2,0.8c-0.4,0.2-1,0.4-1.9,0.4c-1.8,0-2.9-1.2-2.9-2.9    c0-1.8,1-3.1,2.7-3.1c1.9,0,2.4,1.7,2.4,2.7c0,0.2,0,0.4,0,0.5H46.2z M49.2,125.2c0-0.7-0.3-1.7-1.5-1.7c-1.1,0-1.5,1-1.6,1.7    H49.2z" fill="#333333"/>
      <path d="M51.6,124.7c0-0.7,0-1.3,0-1.8h0.9l0,1.1h0c0.3-0.8,0.9-1.3,1.6-1.3c0.1,0,0.2,0,0.3,0v1c-0.1,0-0.2,0-0.4,0    c-0.7,0-1.3,0.6-1.4,1.4c0,0.1,0,0.3,0,0.5v3.1h-1V124.7z" fill="#333333"/>
      <path d="M55.5,124.4c0-0.6,0-1.1,0-1.6h0.9l0,0.9h0c0.3-0.6,0.9-1.1,1.8-1.1c0.8,0,1.4,0.5,1.6,1.2h0    c0.2-0.3,0.4-0.6,0.6-0.8c0.3-0.3,0.7-0.4,1.3-0.4c0.8,0,1.9,0.5,1.9,2.5v3.4h-1v-3.3c0-1.1-0.4-1.8-1.3-1.8c-0.6,0-1.1,0.4-1.2,1    c0,0.1-0.1,0.3-0.1,0.5v3.6h-1v-3.5c0-0.9-0.4-1.6-1.2-1.6c-0.7,0-1.1,0.5-1.3,1.1c-0.1,0.2-0.1,0.3-0.1,0.5v3.5h-1V124.4z" fill="#333333"/>
      <path d="M68.8,128.7l-0.1-0.7h0c-0.3,0.5-0.9,0.9-1.8,0.9c-1.2,0-1.8-0.8-1.8-1.7c0-1.4,1.2-2.2,3.5-2.2v-0.1    c0-0.5-0.1-1.3-1.3-1.3c-0.5,0-1.1,0.2-1.5,0.4l-0.2-0.7c0.5-0.3,1.2-0.5,1.9-0.5c1.8,0,2.2,1.2,2.2,2.4v2.2c0,0.5,0,1,0.1,1.4    H68.8z M68.6,125.7c-1.2,0-2.5,0.2-2.5,1.3c0,0.7,0.5,1,1,1c0.8,0,1.2-0.5,1.4-1c0-0.1,0.1-0.2,0.1-0.3V125.7z" fill="#333333"/>
      <path d="M71.3,124.4c0-0.6,0-1.1,0-1.6h0.9l0.1,1h0c0.3-0.6,1-1.1,1.9-1.1c0.8,0,2.1,0.5,2.1,2.5v3.5h-1.1v-3.3    c0-0.9-0.3-1.7-1.3-1.7c-0.7,0-1.2,0.5-1.4,1.1c0,0.1-0.1,0.3-0.1,0.5v3.5h-1.1V124.4z" fill="#333333"/>
    </g>
    <g>
      <path d="M25.4,168.2c0.5,0.3,1.2,0.5,1.9,0.5c1.1,0,1.7-0.6,1.7-1.4c0-0.8-0.4-1.2-1.5-1.6c-1.3-0.5-2.1-1.2-2.1-2.3    c0-1.3,1-2.2,2.6-2.2c0.8,0,1.4,0.2,1.8,0.4l-0.3,0.9c-0.3-0.1-0.8-0.4-1.5-0.4c-1.1,0-1.5,0.7-1.5,1.2c0,0.8,0.5,1.1,1.6,1.6    c1.4,0.5,2.1,1.2,2.1,2.4c0,1.2-0.9,2.3-2.8,2.3c-0.8,0-1.6-0.2-2.1-0.5L25.4,168.2z" fill="#333333"/>
      <path d="M32.1,166.7c0,1.4,0.9,2,2,2c0.8,0,1.2-0.1,1.6-0.3l0.2,0.8c-0.4,0.2-1,0.4-1.9,0.4c-1.8,0-2.9-1.2-2.9-2.9    c0-1.8,1-3.1,2.7-3.1c1.9,0,2.4,1.7,2.4,2.7c0,0.2,0,0.4,0,0.5H32.1z M35.2,166c0-0.7-0.3-1.7-1.5-1.7c-1.1,0-1.5,1-1.6,1.7H35.2z    " fill="#333333"/>
      <path d="M37.5,165.5c0-0.7,0-1.3,0-1.9h0.9l0,1h0c0.4-0.7,1.1-1.1,2.1-1.1c1.4,0,2.5,1.2,2.5,3c0,2.1-1.3,3.1-2.6,3.1    c-0.8,0-1.4-0.3-1.8-0.9h0v3.2h-1V165.5z M38.6,167.1c0,0.2,0,0.3,0,0.4c0.2,0.7,0.8,1.2,1.6,1.2c1.1,0,1.8-0.9,1.8-2.2    c0-1.2-0.6-2.2-1.7-2.2c-0.7,0-1.4,0.5-1.6,1.3c0,0.1-0.1,0.3-0.1,0.4V167.1z" fill="#333333"/>
      <path d="M49.2,167.9c0,0.6,0,1.1,0,1.6h-0.9l-0.1-0.9h0c-0.3,0.5-0.9,1.1-1.9,1.1c-0.9,0-2-0.5-2-2.5v-3.4h1.1v3.2    c0,1.1,0.3,1.8,1.3,1.8c0.7,0,1.2-0.5,1.4-1c0.1-0.2,0.1-0.3,0.1-0.5v-3.6h1.1V167.9z" fill="#333333"/>
      <path d="M51,160.9H52v8.5H51V160.9z" fill="#333333"/>
      <path d="M54.2,163.7l1.1,3.3c0.2,0.5,0.3,1,0.5,1.5h0c0.1-0.5,0.3-1,0.5-1.5l1.1-3.3h1.1l-2.3,5.8h-1l-2.2-5.8H54.2z" fill="#333333"/>
      <path d="M60,166.7c0,1.4,0.9,2,2,2c0.8,0,1.2-0.1,1.6-0.3l0.2,0.8c-0.4,0.2-1,0.4-1.9,0.4c-1.8,0-2.9-1.2-2.9-2.9    c0-1.8,1-3.1,2.7-3.1c1.9,0,2.4,1.7,2.4,2.7c0,0.2,0,0.4,0,0.5H60z M63.1,166c0-0.7-0.3-1.7-1.5-1.7c-1.1,0-1.5,1-1.6,1.7H63.1z" fill="#333333"/>
      <path d="M70.5,160.9v7c0,0.5,0,1.1,0,1.5h-0.9l0-1h0c-0.3,0.6-1,1.1-2,1.1c-1.4,0-2.5-1.2-2.5-3    c0-1.9,1.2-3.1,2.6-3.1c0.9,0,1.5,0.4,1.8,0.9h0v-3.5H70.5z M69.4,166c0-0.1,0-0.3,0-0.4c-0.2-0.7-0.7-1.2-1.5-1.2    c-1.1,0-1.7,1-1.7,2.2c0,1.2,0.6,2.1,1.7,2.1c0.7,0,1.4-0.5,1.5-1.3c0-0.1,0-0.3,0-0.5V166z" fill="#333333"/>
      <path d="M75.4,169.5l-0.1-0.7h0c-0.3,0.5-0.9,0.9-1.8,0.9c-1.2,0-1.8-0.8-1.8-1.7c0-1.4,1.2-2.2,3.5-2.2v-0.1    c0-0.5-0.1-1.3-1.3-1.3c-0.5,0-1.1,0.2-1.5,0.4l-0.2-0.7c0.5-0.3,1.2-0.5,1.9-0.5c1.8,0,2.2,1.2,2.2,2.4v2.2c0,0.5,0,1,0.1,1.4    H75.4z M75.3,166.5c-1.2,0-2.5,0.2-2.5,1.3c0,0.7,0.5,1,1,1c0.8,0,1.2-0.5,1.4-1c0-0.1,0.1-0.2,0.1-0.3V166.5z" fill="#333333"/>
    </g>
    <g>
      <path d="M36.2,202.2h1v7.2h3.5v0.9h-4.5V202.2z" fill="#333333"/>
      <path d="M45.1,210.3l-0.1-0.7h0c-0.3,0.5-0.9,0.9-1.8,0.9c-1.2,0-1.8-0.8-1.8-1.7c0-1.4,1.2-2.2,3.5-2.2v-0.1    c0-0.5-0.1-1.3-1.3-1.3c-0.5,0-1.1,0.2-1.5,0.4l-0.2-0.7c0.5-0.3,1.2-0.5,1.9-0.5c1.8,0,2.2,1.2,2.2,2.4v2.2c0,0.5,0,1,0.1,1.4    H45.1z M44.9,207.3c-1.2,0-2.5,0.2-2.5,1.3c0,0.7,0.5,1,1,1c0.8,0,1.2-0.5,1.4-1c0-0.1,0.1-0.2,0.1-0.3V207.3z" fill="#333333"/>
      <path d="M47.7,206c0-0.6,0-1.1,0-1.6h0.9l0.1,1h0c0.3-0.6,1-1.1,1.9-1.1c0.8,0,2.1,0.5,2.1,2.5v3.5h-1.1v-3.3    c0-0.9-0.3-1.7-1.3-1.7c-0.7,0-1.2,0.5-1.4,1.1c0,0.1-0.1,0.3-0.1,0.5v3.5h-1.1V206z" fill="#333333"/>
      <path d="M59.3,204.5c0,0.4,0,0.9,0,1.6v3.4c0,1.3-0.3,2.1-0.8,2.7c-0.6,0.5-1.4,0.7-2.1,0.7c-0.7,0-1.5-0.2-1.9-0.5    l0.3-0.8c0.4,0.2,1,0.5,1.7,0.5c1.1,0,1.9-0.6,1.9-2v-0.6h0c-0.3,0.5-0.9,1-1.8,1c-1.4,0-2.5-1.2-2.5-2.8c0-2,1.3-3.1,2.6-3.1    c1,0,1.6,0.5,1.8,1h0l0-0.9H59.3z M58.2,206.7c0-0.2,0-0.3-0.1-0.5c-0.2-0.6-0.7-1.1-1.5-1.1c-1,0-1.7,0.9-1.7,2.2    c0,1.1,0.6,2.1,1.7,2.1c0.6,0,1.2-0.4,1.5-1.1c0.1-0.2,0.1-0.4,0.1-0.6V206.7z" fill="#333333"/>
      <path d="M61,201.7h1.1v8.5H61V201.7z" fill="#333333"/>
      <path d="M69.1,207.3c0,2.1-1.5,3.1-2.9,3.1c-1.6,0-2.8-1.2-2.8-3c0-1.9,1.3-3.1,2.9-3.1    C68,204.3,69.1,205.5,69.1,207.3z M64.5,207.4c0,1.3,0.7,2.2,1.8,2.2c1,0,1.8-0.9,1.8-2.3c0-1-0.5-2.2-1.7-2.2    C65,205.1,64.5,206.3,64.5,207.4z" fill="#333333"/>
      <path d="M71.6,202.8c0,0.4-0.3,0.6-0.7,0.6c-0.4,0-0.6-0.3-0.6-0.6c0-0.4,0.3-0.7,0.7-0.7    C71.4,202.2,71.6,202.5,71.6,202.8z M70.4,210.3v-5.8h1.1v5.8H70.4z" fill="#333333"/>
      <path d="M73.1,209.2c0.3,0.2,0.9,0.4,1.4,0.4c0.8,0,1.1-0.4,1.1-0.9c0-0.5-0.3-0.8-1.1-1.1c-1-0.4-1.5-0.9-1.5-1.6    c0-0.9,0.8-1.7,2-1.7c0.6,0,1.1,0.2,1.4,0.4l-0.3,0.8c-0.2-0.1-0.6-0.3-1.2-0.3c-0.6,0-1,0.4-1,0.8c0,0.5,0.3,0.7,1.1,1    c1,0.4,1.5,0.9,1.5,1.8c0,1-0.8,1.7-2.2,1.7c-0.6,0-1.2-0.2-1.6-0.4L73.1,209.2z" fill="#333333"/>
    </g>
    <g>
      <path d="M32.6,248.5l-0.8,2.5h-1.1l2.7-8.1h1.3l2.8,8.1h-1.1l-0.9-2.5H32.6z M35.3,247.7l-0.8-2.3    c-0.2-0.5-0.3-1-0.4-1.5h0c-0.1,0.5-0.3,1-0.4,1.5l-0.8,2.3H35.3z" fill="#333333"/>
      <path d="M38.4,250c0.3,0.2,0.9,0.4,1.4,0.4c0.8,0,1.1-0.4,1.1-0.9c0-0.5-0.3-0.8-1.1-1.1c-1-0.4-1.5-0.9-1.5-1.6    c0-0.9,0.8-1.7,2-1.7c0.6,0,1.1,0.2,1.4,0.4l-0.3,0.8c-0.2-0.1-0.6-0.3-1.2-0.3c-0.6,0-1,0.4-1,0.8c0,0.5,0.3,0.7,1.1,1    c1,0.4,1.5,0.9,1.5,1.8c0,1-0.8,1.7-2.2,1.7c-0.6,0-1.2-0.2-1.6-0.4L38.4,250z" fill="#333333"/>
      <path d="M48.2,249.5c0,0.6,0,1.1,0,1.6h-0.9l-0.1-0.9h0c-0.3,0.5-0.9,1.1-1.9,1.1c-0.9,0-2-0.5-2-2.5v-3.4h1.1v3.2    c0,1.1,0.3,1.8,1.3,1.8c0.7,0,1.2-0.5,1.4-1c0.1-0.2,0.1-0.3,0.1-0.5v-3.6h1.1V249.5z" fill="#333333"/>
      <path d="M49.9,246.8c0-0.6,0-1.1,0-1.6h0.9l0.1,1h0c0.3-0.6,1-1.1,1.9-1.1c0.8,0,2.1,0.5,2.1,2.5v3.5h-1.1v-3.3    c0-0.9-0.3-1.7-1.3-1.7c-0.7,0-1.2,0.5-1.4,1.1c0,0.1-0.1,0.3-0.1,0.5v3.5h-1.1V246.8z" fill="#333333"/>
      <path d="M60.7,250.8c-0.3,0.1-0.9,0.3-1.7,0.3c-1.8,0-2.9-1.2-2.9-3c0-1.8,1.2-3.1,3.1-3.1c0.6,0,1.2,0.2,1.5,0.3    l-0.2,0.8c-0.3-0.1-0.6-0.3-1.2-0.3c-1.3,0-2.1,1-2.1,2.2c0,1.3,0.9,2.2,2,2.2c0.6,0,1-0.2,1.3-0.3L60.7,250.8z" fill="#333333"/>
      <path d="M63.1,243.6c0,0.4-0.3,0.6-0.7,0.6c-0.4,0-0.6-0.3-0.6-0.6c0-0.4,0.3-0.7,0.7-0.7    C62.9,243,63.1,243.3,63.1,243.6z M61.9,251.1v-5.8H63v5.8H61.9z" fill="#333333"/>
      <path d="M70,248.1c0,2.1-1.5,3.1-2.9,3.1c-1.6,0-2.8-1.2-2.8-3c0-1.9,1.3-3.1,2.9-3.1C68.9,245.1,70,246.3,70,248.1z     M65.4,248.2c0,1.3,0.7,2.2,1.8,2.2c1,0,1.8-0.9,1.8-2.3c0-1-0.5-2.2-1.7-2.2C65.9,245.9,65.4,247.1,65.4,248.2z" fill="#333333"/>
      <path d="M71.3,246.8c0-0.6,0-1.1,0-1.6h0.9l0.1,1h0c0.3-0.6,1-1.1,1.9-1.1c0.8,0,2.1,0.5,2.1,2.5v3.5h-1.1v-3.3    c0-0.9-0.3-1.7-1.3-1.7c-0.7,0-1.2,0.5-1.4,1.1c0,0.1-0.1,0.3-0.1,0.5v3.5h-1.1V246.8z" fill="#333333"/>
    </g>
    <g>
      <path d="M40.2,293.4c0,0.6,0,1.1,0,1.4h-0.9c0-0.4,0.1-0.8,0.1-1.4v-3.7c0-0.4,0-1.2,0-1.5c-0.5,0.8-0.8,1.1-1.3,1.7    c-0.1-0.3-0.3-0.5-0.5-0.7c1-0.9,1.9-2.2,2.5-3.6c0.2-0.5,0.4-1.1,0.5-1.4l0.8,0.3c0,0.1,0,0.1-0.1,0.2c0,0,0,0.1-0.1,0.2    c-0.5,1.2-0.8,1.8-1.2,2.4V293.4z M45,284.5c0.5,0.8,0.9,1.4,1.4,2c0.6,0.7,1.2,1.2,2.6,2.1c-0.3,0.4-0.4,0.4-0.5,0.8    c-1.2-0.8-2-1.6-2.7-2.4c-0.4-0.5-0.9-1.2-1.2-1.7c-0.3,0.5-0.7,1.1-1.1,1.7c-0.6,0.8-1.6,1.6-2.7,2.4c-0.1-0.2-0.2-0.4-0.5-0.7    c1.1-0.7,1.8-1.3,2.6-2.1c0.6-0.8,0.9-1.1,1.5-2.6l0.7,0.3L45,284.5z M43.7,288.3c0,0.3-0.1,0.4-0.1,1.2c0,1.7-0.2,2.8-0.8,3.7    c-0.4,0.7-0.8,1.2-1.7,1.8c-0.2-0.3-0.4-0.5-0.6-0.7c0.8-0.4,1.2-0.9,1.6-1.5c0.5-0.8,0.7-1.9,0.7-3.4c0-0.5,0-0.8-0.1-1.1H43.7z     M45.8,294.8c0.1-0.4,0.1-0.7,0.1-1.3v-4.1c0-0.6,0-0.9-0.1-1.2h0.9c0,0.3-0.1,0.6-0.1,1.2v4.1c0,0.5,0,0.9,0.1,1.3H45.8z" fill="#333333"/>
      <path d="M51.9,293.5c0,0.6,0,1.1,0.1,1.5h-0.9c0-0.4,0.1-0.8,0.1-1.5v-3.7c0-0.5,0-0.8,0-1.4c-0.3,0.6-0.6,1-1,1.5    c-0.2-0.3-0.3-0.5-0.5-0.7c1-1.1,1.7-2.2,2.2-3.7c0.2-0.7,0.3-0.9,0.4-1.4l0.9,0.2c-0.1,0.2-0.1,0.4-0.2,0.6    c-0.2,0.6-0.3,0.8-0.4,1.1c-0.4,0.9-0.4,0.9-0.5,1.3V293.5z M56,287.1c0.2-0.7,0.2-0.7,0.3-1.2h-2c-0.4,0-0.7,0-1.2,0.1v-0.8    c0.3,0,0.7,0.1,1.2,0.1h2.1c0.1-0.7,0.1-0.8,0.1-1.1c0,0,0-0.1,0-0.1l0.8,0.1c0,0.1,0,0.1-0.1,0.6c0,0.2,0,0.2-0.1,0.3    c0,0.1,0,0.1,0,0.2h2.3c0.5,0,0.9,0,1.3-0.1v0.8c-0.4,0-0.7-0.1-1.3-0.1H57c0,0.2-0.1,0.6-0.3,1.2h2.1c0.4,0,0.6,0,0.9,0    c0,0.3,0,0.5,0,0.9v5.9h0.1c0.2,0,0.6,0,0.9-0.1v0.8c-0.4,0-0.7-0.1-1.3-0.1h-5.6c-0.5,0-0.8,0-1.2,0.1v-0.8c0.3,0,0.7,0.1,1,0.1    H54V288c0-0.4,0-0.7,0-0.9c0.3,0,0.5,0,0.9,0H56z M54.7,288.8h4.2v-1.1h-4.2V288.8z M54.7,290.5h4.2v-1.1h-4.2V290.5z M54.7,292.2    h4.2v-1.1h-4.2V292.2z M54.7,293.9h4.2v-1.1h-4.2V293.9z" fill="#333333"/>
      <path d="M64.5,296c-0.7-1.1-1-1.6-1.3-2.5c-0.3-1-0.5-2-0.5-3.1s0.2-2.1,0.5-3.1c0.3-0.9,0.6-1.4,1.3-2.5l0.8,0.5    c-0.7,1-0.9,1.6-1.2,2.4c-0.3,0.9-0.4,1.8-0.4,2.7s0.1,1.9,0.4,2.7c0.3,0.9,0.5,1.4,1.2,2.4L64.5,296z" fill="#333333"/>
      <path d="M69.2,294c-1.1-0.1-1.6-0.3-2.1-0.8c-0.4-0.4-0.6-0.9-0.8-1.8l1-0.2c0.1,0.7,0.2,1,0.5,1.4    c0.3,0.3,0.7,0.5,1.4,0.6v-3.5c-0.9-0.2-1.3-0.3-1.8-0.6c-0.6-0.4-0.9-1-0.9-1.8c0-0.8,0.4-1.5,1-1.9c0.4-0.3,0.8-0.4,1.7-0.5    v-0.6h0.6v0.6c1,0.1,1.4,0.3,1.9,0.8c0.4,0.4,0.6,0.8,0.7,1.5l-1,0.2c-0.1-0.6-0.2-0.9-0.6-1.2c-0.3-0.3-0.6-0.4-1.1-0.5v3.2    c1.1,0.3,1.6,0.4,2,0.7c0.6,0.4,0.9,1,0.9,1.8c0,0.9-0.4,1.6-1.1,2.1c-0.5,0.3-0.9,0.4-1.8,0.5v1h-0.6V294z M69.2,285.7    c-0.6,0.1-0.9,0.2-1.2,0.4c-0.3,0.3-0.6,0.7-0.6,1.2c0,0.6,0.3,1,0.9,1.3c0.2,0.1,0.4,0.2,0.9,0.3V285.7z M69.9,293.2    c0.6-0.1,0.9-0.2,1.3-0.4c0.4-0.3,0.6-0.8,0.6-1.3c0-0.5-0.2-0.9-0.6-1.2c-0.2-0.2-0.5-0.3-1.3-0.5V293.2z" fill="#333333"/>
      <path d="M74.5,284.7c0.7,1.1,1,1.6,1.3,2.5c0.3,1,0.5,2,0.5,3.1c0,1.1-0.2,2.1-0.5,3.1c-0.3,0.9-0.6,1.4-1.3,2.5    l-0.8-0.5c0.7-1,0.9-1.6,1.2-2.4c0.3-0.9,0.4-1.8,0.4-2.7c0-1-0.1-1.8-0.4-2.7c-0.3-0.9-0.5-1.4-1.2-2.4L74.5,284.7z" fill="#333333"/>
    </g>
    <g>
      <path d="M123.2,287.2L123.2,287.2l-1.4,0.7l-0.2-0.8l1.7-0.9h0.9v7.8h-1V287.2z" fill="#333333"/>
      <path d="M132.3,290.1c0,2.7-1,4.1-2.7,4.1c-1.5,0-2.6-1.4-2.6-4c0-2.6,1.1-4.1,2.7-4.1    C131.3,286.1,132.3,287.6,132.3,290.1z M128,290.2c0,2,0.6,3.2,1.6,3.2c1.1,0,1.6-1.3,1.6-3.2c0-1.9-0.5-3.2-1.6-3.2    C128.7,286.9,128,288.1,128,290.2z" fill="#333333"/>
      <path d="M138.4,290.1c0,2.7-1,4.1-2.7,4.1c-1.5,0-2.6-1.4-2.6-4c0-2.6,1.1-4.1,2.7-4.1    C137.5,286.1,138.4,287.6,138.4,290.1z M134.2,290.2c0,2,0.6,3.2,1.6,3.2c1.1,0,1.6-1.3,1.6-3.2c0-1.9-0.5-3.2-1.6-3.2    C134.9,286.9,134.2,288.1,134.2,290.2z" fill="#333333"/>
      <path d="M144.6,290.1c0,2.7-1,4.1-2.7,4.1c-1.5,0-2.6-1.4-2.6-4c0-2.6,1.1-4.1,2.7-4.1    C143.7,286.1,144.6,287.6,144.6,290.1z M140.4,290.2c0,2,0.6,3.2,1.6,3.2c1.1,0,1.6-1.3,1.6-3.2c0-1.9-0.5-3.2-1.6-3.2    C141,286.9,140.4,288.1,140.4,290.2z" fill="#333333"/>
    </g>
    <g>
      <path d="M170.2,287.2L170.2,287.2l-1.4,0.7l-0.2-0.8l1.7-0.9h0.9v7.8h-1V287.2z" fill="#333333"/>
      <path d="M178.8,287.2h-3l-0.3,2c0.2,0,0.3,0,0.6,0c0.6,0,1.2,0.1,1.7,0.4c0.6,0.3,1.1,1,1.1,2c0,1.5-1.2,2.7-2.9,2.7    c-0.9,0-1.6-0.2-1.9-0.5l0.3-0.8c0.3,0.2,1,0.4,1.7,0.4c1,0,1.8-0.6,1.8-1.7c0-1-0.7-1.7-2.2-1.7c-0.4,0-0.8,0-1.1,0.1l0.5-3.7    h3.7V287.2z" fill="#333333"/>
      <path d="M185.4,290.1c0,2.7-1,4.1-2.7,4.1c-1.5,0-2.6-1.4-2.6-4c0-2.6,1.1-4.1,2.7-4.1    C184.5,286.1,185.4,287.6,185.4,290.1z M181.2,290.2c0,2,0.6,3.2,1.6,3.2c1.1,0,1.6-1.3,1.6-3.2c0-1.9-0.5-3.2-1.6-3.2    C181.9,286.9,181.2,288.1,181.2,290.2z" fill="#333333"/>
      <path d="M191.6,290.1c0,2.7-1,4.1-2.7,4.1c-1.5,0-2.6-1.4-2.6-4c0-2.6,1.1-4.1,2.7-4.1    C190.7,286.1,191.6,287.6,191.6,290.1z M187.4,290.2c0,2,0.6,3.2,1.6,3.2c1.1,0,1.6-1.3,1.6-3.2c0-1.9-0.5-3.2-1.6-3.2    C188,286.9,187.4,288.1,187.4,290.2z" fill="#333333"/>
    </g>
    <g>
      <path d="M214.9,294.1v-0.6l0.8-0.8c2-1.9,2.9-2.9,2.9-4.1c0-0.8-0.4-1.5-1.5-1.5c-0.7,0-1.3,0.4-1.7,0.7l-0.3-0.7    c0.5-0.5,1.3-0.8,2.2-0.8c1.7,0,2.4,1.2,2.4,2.3c0,1.4-1,2.6-2.7,4.2l-0.6,0.6v0h3.5v0.9H214.9z" fill="#333333"/>
      <path d="M226.3,290.1c0,2.7-1,4.1-2.7,4.1c-1.5,0-2.6-1.4-2.6-4c0-2.6,1.1-4.1,2.7-4.1    C225.3,286.1,226.3,287.6,226.3,290.1z M222,290.2c0,2,0.6,3.2,1.6,3.2c1.1,0,1.6-1.3,1.6-3.2c0-1.9-0.5-3.2-1.6-3.2    C222.7,286.9,222,288.1,222,290.2z" fill="#333333"/>
      <path d="M232.4,290.1c0,2.7-1,4.1-2.7,4.1c-1.5,0-2.6-1.4-2.6-4c0-2.6,1.1-4.1,2.7-4.1    C231.5,286.1,232.4,287.6,232.4,290.1z M228.2,290.2c0,2,0.6,3.2,1.6,3.2c1.1,0,1.6-1.3,1.6-3.2c0-1.9-0.5-3.2-1.6-3.2    C228.9,286.9,228.2,288.1,228.2,290.2z" fill="#333333"/>
      <path d="M238.6,290.1c0,2.7-1,4.1-2.7,4.1c-1.5,0-2.6-1.4-2.6-4c0-2.6,1.1-4.1,2.7-4.1    C237.7,286.1,238.6,287.6,238.6,290.1z M234.4,290.2c0,2,0.6,3.2,1.6,3.2c1.1,0,1.6-1.3,1.6-3.2c0-1.9-0.5-3.2-1.6-3.2    C235,286.9,234.4,288.1,234.4,290.2z" fill="#333333"/>
    </g>
    <g>
      <path d="M261.4,294.1v-0.6l0.8-0.8c2-1.9,2.9-2.9,2.9-4.1c0-0.8-0.4-1.5-1.5-1.5c-0.7,0-1.3,0.4-1.7,0.7l-0.3-0.7    c0.5-0.5,1.3-0.8,2.2-0.8c1.7,0,2.4,1.2,2.4,2.3c0,1.4-1,2.6-2.7,4.2l-0.6,0.6v0h3.5v0.9H261.4z" fill="#333333"/>
      <path d="M272.3,287.2h-3l-0.3,2c0.2,0,0.3,0,0.6,0c0.6,0,1.2,0.1,1.7,0.4c0.6,0.3,1.1,1,1.1,2c0,1.5-1.2,2.7-2.9,2.7    c-0.9,0-1.6-0.2-1.9-0.5l0.3-0.8c0.3,0.2,1,0.4,1.7,0.4c1,0,1.8-0.6,1.8-1.7c0-1-0.7-1.7-2.2-1.7c-0.4,0-0.8,0-1.1,0.1l0.5-3.7    h3.7V287.2z" fill="#333333"/>
      <path d="M278.9,290.1c0,2.7-1,4.1-2.7,4.1c-1.5,0-2.6-1.4-2.6-4c0-2.6,1.1-4.1,2.7-4.1    C278,286.1,278.9,287.6,278.9,290.1z M274.7,290.2c0,2,0.6,3.2,1.6,3.2c1.1,0,1.6-1.3,1.6-3.2c0-1.9-0.5-3.2-1.6-3.2    C275.4,286.9,274.7,288.1,274.7,290.2z" fill="#333333"/>
      <path d="M285.1,290.1c0,2.7-1,4.1-2.7,4.1c-1.5,0-2.6-1.4-2.6-4c0-2.6,1.1-4.1,2.7-4.1    C284.2,286.1,285.1,287.6,285.1,290.1z M280.9,290.2c0,2,0.6,3.2,1.6,3.2c1.1,0,1.6-1.3,1.6-3.2c0-1.9-0.5-3.2-1.6-3.2    C281.5,286.9,280.9,288.1,280.9,290.2z" fill="#333333"/>
    </g>
    <g>
      <path d="M308.7,292.9c0.3,0.2,1,0.5,1.7,0.5c1.4,0,1.8-0.9,1.8-1.5c0-1.1-1-1.6-2-1.6h-0.6v-0.8h0.6    c0.8,0,1.7-0.4,1.7-1.3c0-0.6-0.4-1.2-1.4-1.2c-0.6,0-1.2,0.3-1.6,0.5l-0.3-0.8c0.4-0.3,1.2-0.6,2-0.6c1.5,0,2.2,0.9,2.2,1.9    c0,0.8-0.5,1.5-1.4,1.8v0c1,0.2,1.7,0.9,1.7,2c0,1.2-1,2.3-2.8,2.3c-0.9,0-1.6-0.3-2-0.5L308.7,292.9z" fill="#333333"/>
      <path d="M319.8,290.1c0,2.7-1,4.1-2.7,4.1c-1.5,0-2.6-1.4-2.6-4c0-2.6,1.1-4.1,2.7-4.1    C318.8,286.1,319.8,287.6,319.8,290.1z M315.5,290.2c0,2,0.6,3.2,1.6,3.2c1.1,0,1.6-1.3,1.6-3.2c0-1.9-0.5-3.2-1.6-3.2    C316.2,286.9,315.5,288.1,315.5,290.2z" fill="#333333"/>
      <path d="M325.9,290.1c0,2.7-1,4.1-2.7,4.1c-1.5,0-2.6-1.4-2.6-4c0-2.6,1.1-4.1,2.7-4.1    C325,286.1,325.9,287.6,325.9,290.1z M321.7,290.2c0,2,0.6,3.2,1.6,3.2c1.1,0,1.6-1.3,1.6-3.2c0-1.9-0.5-3.2-1.6-3.2    C322.4,286.9,321.7,288.1,321.7,290.2z" fill="#333333"/>
      <path d="M332.1,290.1c0,2.7-1,4.1-2.7,4.1c-1.5,0-2.6-1.4-2.6-4c0-2.6,1.1-4.1,2.7-4.1    C331.2,286.1,332.1,287.6,332.1,290.1z M327.9,290.2c0,2,0.6,3.2,1.6,3.2c1.1,0,1.6-1.3,1.6-3.2c0-1.9-0.5-3.2-1.6-3.2    C328.5,286.9,327.9,288.1,327.9,290.2z" fill="#333333"/>
    </g>
    <g>
      <path d="M354.7,292.9c0.3,0.2,1,0.5,1.7,0.5c1.4,0,1.8-0.9,1.8-1.5c0-1.1-1-1.6-2-1.6h-0.6v-0.8h0.6    c0.8,0,1.7-0.4,1.7-1.3c0-0.6-0.4-1.2-1.4-1.2c-0.6,0-1.2,0.3-1.6,0.5l-0.3-0.8c0.4-0.3,1.2-0.6,2-0.6c1.5,0,2.2,0.9,2.2,1.9    c0,0.8-0.5,1.5-1.4,1.8v0c1,0.2,1.7,0.9,1.7,2c0,1.2-1,2.3-2.8,2.3c-0.9,0-1.6-0.3-2-0.5L354.7,292.9z" fill="#333333"/>
      <path d="M365.3,287.2h-3l-0.3,2c0.2,0,0.3,0,0.6,0c0.6,0,1.2,0.1,1.7,0.4c0.6,0.3,1.1,1,1.1,2c0,1.5-1.2,2.7-2.9,2.7    c-0.9,0-1.6-0.2-1.9-0.5l0.3-0.8c0.3,0.2,1,0.4,1.7,0.4c1,0,1.8-0.6,1.8-1.7c0-1-0.7-1.7-2.2-1.7c-0.4,0-0.8,0-1.1,0.1l0.5-3.7    h3.7V287.2z" fill="#333333"/>
      <path d="M371.9,290.1c0,2.7-1,4.1-2.7,4.1c-1.5,0-2.6-1.4-2.6-4c0-2.6,1.1-4.1,2.7-4.1    C371,286.1,371.9,287.6,371.9,290.1z M367.7,290.2c0,2,0.6,3.2,1.6,3.2c1.1,0,1.6-1.3,1.6-3.2c0-1.9-0.5-3.2-1.6-3.2    C368.4,286.9,367.7,288.1,367.7,290.2z" fill="#333333"/>
      <path d="M378.1,290.1c0,2.7-1,4.1-2.7,4.1c-1.5,0-2.6-1.4-2.6-4c0-2.6,1.1-4.1,2.7-4.1    C377.2,286.1,378.1,287.6,378.1,290.1z M373.9,290.2c0,2,0.6,3.2,1.6,3.2c1.1,0,1.6-1.3,1.6-3.2c0-1.9-0.5-3.2-1.6-3.2    C374.5,286.9,373.9,288.1,373.9,290.2z" fill="#333333"/>
    </g>
    <g>
      <path d="M404.2,294.1v-2.1h-3.6v-0.7l3.5-5h1.1v4.8h1.1v0.8h-1.1v2.1H404.2z M404.2,291.1v-2.6c0-0.4,0-0.8,0-1.2h0    c-0.2,0.5-0.4,0.8-0.6,1.2l-1.9,2.7v0H404.2z" fill="#333333"/>
      <path d="M412.3,290.1c0,2.7-1,4.1-2.7,4.1c-1.5,0-2.6-1.4-2.6-4c0-2.6,1.1-4.1,2.7-4.1    C411.3,286.1,412.3,287.6,412.3,290.1z M408,290.2c0,2,0.6,3.2,1.6,3.2c1.1,0,1.6-1.3,1.6-3.2c0-1.9-0.5-3.2-1.6-3.2    C408.7,286.9,408,288.1,408,290.2z" fill="#333333"/>
      <path d="M418.4,290.1c0,2.7-1,4.1-2.7,4.1c-1.5,0-2.6-1.4-2.6-4c0-2.6,1.1-4.1,2.7-4.1    C417.5,286.1,418.4,287.6,418.4,290.1z M414.2,290.2c0,2,0.6,3.2,1.6,3.2c1.1,0,1.6-1.3,1.6-3.2c0-1.9-0.5-3.2-1.6-3.2    C414.9,286.9,414.2,288.1,414.2,290.2z" fill="#333333"/>
      <path d="M424.6,290.1c0,2.7-1,4.1-2.7,4.1c-1.5,0-2.6-1.4-2.6-4c0-2.6,1.1-4.1,2.7-4.1    C423.7,286.1,424.6,287.6,424.6,290.1z M420.4,290.2c0,2,0.6,3.2,1.6,3.2c1.1,0,1.6-1.3,1.6-3.2c0-1.9-0.5-3.2-1.6-3.2    C421,286.9,420.4,288.1,420.4,290.2z" fill="#333333"/>
    </g>
    <g>
      <path d="M451.2,294.1v-2.1h-3.6v-0.7l3.5-5h1.1v4.8h1.1v0.8h-1.1v2.1H451.2z M451.2,291.1v-2.6c0-0.4,0-0.8,0-1.2h0    c-0.2,0.5-0.4,0.8-0.6,1.2l-1.9,2.7v0H451.2z" fill="#333333"/>
      <path d="M458.8,287.2h-3l-0.3,2c0.2,0,0.3,0,0.6,0c0.6,0,1.2,0.1,1.7,0.4c0.6,0.3,1.1,1,1.1,2c0,1.5-1.2,2.7-2.9,2.7    c-0.9,0-1.6-0.2-1.9-0.5l0.3-0.8c0.3,0.2,1,0.4,1.7,0.4c1,0,1.8-0.6,1.8-1.7c0-1-0.7-1.7-2.2-1.7c-0.4,0-0.8,0-1.1,0.1l0.5-3.7    h3.7V287.2z" fill="#333333"/>
      <path d="M465.4,290.1c0,2.7-1,4.1-2.7,4.1c-1.5,0-2.6-1.4-2.6-4c0-2.6,1.1-4.1,2.7-4.1    C464.5,286.1,465.4,287.6,465.4,290.1z M461.2,290.2c0,2,0.6,3.2,1.6,3.2c1.1,0,1.6-1.3,1.6-3.2c0-1.9-0.5-3.2-1.6-3.2    C461.9,286.9,461.2,288.1,461.2,290.2z" fill="#333333"/>
      <path d="M471.6,290.1c0,2.7-1,4.1-2.7,4.1c-1.5,0-2.6-1.4-2.6-4c0-2.6,1.1-4.1,2.7-4.1    C470.7,286.1,471.6,287.6,471.6,290.1z M467.4,290.2c0,2,0.6,3.2,1.6,3.2c1.1,0,1.6-1.3,1.6-3.2c0-1.9-0.5-3.2-1.6-3.2    C468,286.9,467.4,288.1,467.4,290.2z" fill="#333333"/>
    </g>
    <g>
      <path d="M498.6,287.2h-3l-0.3,2c0.2,0,0.3,0,0.6,0c0.6,0,1.2,0.1,1.7,0.4c0.6,0.3,1.1,1,1.1,2c0,1.5-1.2,2.7-2.9,2.7    c-0.9,0-1.6-0.2-1.9-0.5l0.3-0.8c0.3,0.2,1,0.4,1.7,0.4c1,0,1.8-0.6,1.8-1.7c0-1-0.7-1.7-2.2-1.7c-0.4,0-0.8,0-1.1,0.1l0.5-3.7    h3.7V287.2z" fill="#333333"/>
      <path d="M505.3,290.1c0,2.7-1,4.1-2.7,4.1c-1.5,0-2.6-1.4-2.6-4c0-2.6,1.1-4.1,2.7-4.1    C504.3,286.1,505.3,287.6,505.3,290.1z M501,290.2c0,2,0.6,3.2,1.6,3.2c1.1,0,1.6-1.3,1.6-3.2c0-1.9-0.5-3.2-1.6-3.2    C501.7,286.9,501,288.1,501,290.2z" fill="#333333"/>
      <path d="M511.4,290.1c0,2.7-1,4.1-2.7,4.1c-1.5,0-2.6-1.4-2.6-4c0-2.6,1.1-4.1,2.7-4.1    C510.5,286.1,511.4,287.6,511.4,290.1z M507.2,290.2c0,2,0.6,3.2,1.6,3.2c1.1,0,1.6-1.3,1.6-3.2c0-1.9-0.5-3.2-1.6-3.2    C507.9,286.9,507.2,288.1,507.2,290.2z" fill="#333333"/>
      <path d="M517.6,290.1c0,2.7-1,4.1-2.7,4.1c-1.5,0-2.6-1.4-2.6-4c0-2.6,1.1-4.1,2.7-4.1    C516.7,286.1,517.6,287.6,517.6,290.1z M513.4,290.2c0,2,0.6,3.2,1.6,3.2c1.1,0,1.6-1.3,1.6-3.2c0-1.9-0.5-3.2-1.6-3.2    C514,286.9,513.4,288.1,513.4,290.2z" fill="#333333"/>
    </g>
    <g>
      <path d="M545.1,287.2h-3l-0.3,2c0.2,0,0.3,0,0.6,0c0.6,0,1.2,0.1,1.7,0.4c0.6,0.3,1.1,1,1.1,2c0,1.5-1.2,2.7-2.9,2.7    c-0.9,0-1.6-0.2-1.9-0.5l0.3-0.8c0.3,0.2,1,0.4,1.7,0.4c1,0,1.8-0.6,1.8-1.7c0-1-0.7-1.7-2.2-1.7c-0.4,0-0.8,0-1.1,0.1l0.5-3.7    h3.7V287.2z" fill="#333333"/>
      <path d="M551.3,287.2h-3l-0.3,2c0.2,0,0.3,0,0.6,0c0.6,0,1.2,0.1,1.7,0.4c0.6,0.3,1.1,1,1.1,2c0,1.5-1.2,2.7-2.9,2.7    c-0.9,0-1.6-0.2-1.9-0.5l0.3-0.8c0.3,0.2,1,0.4,1.7,0.4c1,0,1.8-0.6,1.8-1.7c0-1-0.7-1.7-2.2-1.7c-0.4,0-0.8,0-1.1,0.1l0.5-3.7    h3.7V287.2z" fill="#333333"/>
      <path d="M557.9,290.1c0,2.7-1,4.1-2.7,4.1c-1.5,0-2.6-1.4-2.6-4c0-2.6,1.1-4.1,2.7-4.1    C557,286.1,557.9,287.6,557.9,290.1z M553.7,290.2c0,2,0.6,3.2,1.6,3.2c1.1,0,1.6-1.3,1.6-3.2c0-1.9-0.5-3.2-1.6-3.2    C554.4,286.9,553.7,288.1,553.7,290.2z" fill="#333333"/>
      <path d="M564.1,290.1c0,2.7-1,4.1-2.7,4.1c-1.5,0-2.6-1.4-2.6-4c0-2.6,1.1-4.1,2.7-4.1    C563.2,286.1,564.1,287.6,564.1,290.1z M559.9,290.2c0,2,0.6,3.2,1.6,3.2c1.1,0,1.6-1.3,1.6-3.2c0-1.9-0.5-3.2-1.6-3.2    C560.5,286.9,559.9,288.1,559.9,290.2z" fill="#333333"/>
    </g>
    <g>
      <path d="M591.9,287c-0.2,0-0.5,0-0.8,0c-1.7,0.3-2.5,1.5-2.7,2.8h0c0.4-0.5,1-0.9,1.9-0.9c1.4,0,2.4,1,2.4,2.5    c0,1.4-1,2.7-2.6,2.7c-1.7,0-2.8-1.3-2.8-3.3c0-1.5,0.6-2.7,1.3-3.5c0.6-0.6,1.5-1,2.5-1.2c0.3,0,0.6-0.1,0.8-0.1V287z     M591.6,291.5c0-1.1-0.6-1.8-1.6-1.8c-0.6,0-1.2,0.4-1.5,1c-0.1,0.1-0.1,0.3-0.1,0.5c0,1.3,0.6,2.2,1.7,2.2    C591,293.4,591.6,292.6,591.6,291.5z" fill="#333333"/>
      <path d="M598.8,290.1c0,2.7-1,4.1-2.7,4.1c-1.5,0-2.6-1.4-2.6-4c0-2.6,1.1-4.1,2.7-4.1    C597.8,286.1,598.8,287.6,598.8,290.1z M594.5,290.2c0,2,0.6,3.2,1.6,3.2c1.1,0,1.6-1.3,1.6-3.2c0-1.9-0.5-3.2-1.6-3.2    C595.2,286.9,594.5,288.1,594.5,290.2z" fill="#333333"/>
      <path d="M604.9,290.1c0,2.7-1,4.1-2.7,4.1c-1.5,0-2.6-1.4-2.6-4c0-2.6,1.1-4.1,2.7-4.1    C604,286.1,604.9,287.6,604.9,290.1z M600.7,290.2c0,2,0.6,3.2,1.6,3.2c1.1,0,1.6-1.3,1.6-3.2c0-1.9-0.5-3.2-1.6-3.2    C601.4,286.9,600.7,288.1,600.7,290.2z" fill="#333333"/>
      <path d="M611.1,290.1c0,2.7-1,4.1-2.7,4.1c-1.5,0-2.6-1.4-2.6-4c0-2.6,1.1-4.1,2.7-4.1    C610.2,286.1,611.1,287.6,611.1,290.1z M606.9,290.2c0,2,0.6,3.2,1.6,3.2c1.1,0,1.6-1.3,1.6-3.2c0-1.9-0.5-3.2-1.6-3.2    C607.5,286.9,606.9,288.1,606.9,290.2z" fill="#333333"/>
    </g>
    <g>
      <path d="M637.9,287c-0.2,0-0.5,0-0.8,0c-1.7,0.3-2.5,1.5-2.7,2.8h0c0.4-0.5,1-0.9,1.9-0.9c1.4,0,2.4,1,2.4,2.5    c0,1.4-1,2.7-2.6,2.7c-1.7,0-2.8-1.3-2.8-3.3c0-1.5,0.6-2.7,1.3-3.5c0.6-0.6,1.5-1,2.5-1.2c0.3,0,0.6-0.1,0.8-0.1V287z     M637.6,291.5c0-1.1-0.6-1.8-1.6-1.8c-0.6,0-1.2,0.4-1.5,1c-0.1,0.1-0.1,0.3-0.1,0.5c0,1.3,0.6,2.2,1.7,2.2    C637,293.4,637.6,292.6,637.6,291.5z" fill="#333333"/>
      <path d="M644.3,287.2h-3l-0.3,2c0.2,0,0.3,0,0.6,0c0.6,0,1.2,0.1,1.7,0.4c0.6,0.3,1.1,1,1.1,2c0,1.5-1.2,2.7-2.9,2.7    c-0.9,0-1.6-0.2-1.9-0.5l0.3-0.8c0.3,0.2,1,0.4,1.7,0.4c1,0,1.8-0.6,1.8-1.7c0-1-0.7-1.7-2.2-1.7c-0.4,0-0.8,0-1.1,0.1l0.5-3.7    h3.7V287.2z" fill="#333333"/>
      <path d="M650.9,290.1c0,2.7-1,4.1-2.7,4.1c-1.5,0-2.6-1.4-2.6-4c0-2.6,1.1-4.1,2.7-4.1    C650,286.1,650.9,287.6,650.9,290.1z M646.7,290.2c0,2,0.6,3.2,1.6,3.2c1.1,0,1.6-1.3,1.6-3.2c0-1.9-0.5-3.2-1.6-3.2    C647.4,286.9,646.7,288.1,646.7,290.2z" fill="#333333"/>
      <path d="M657.1,290.1c0,2.7-1,4.1-2.7,4.1c-1.5,0-2.6-1.4-2.6-4c0-2.6,1.1-4.1,2.7-4.1    C656.2,286.1,657.1,287.6,657.1,290.1z M652.9,290.2c0,2,0.6,3.2,1.6,3.2c1.1,0,1.6-1.3,1.6-3.2c0-1.9-0.5-3.2-1.6-3.2    C653.5,286.9,652.9,288.1,652.9,290.2z" fill="#333333"/>
    </g>
    <g>
      <path d="M685,286.3v0.7l-3.4,7.1h-1.1l3.4-6.9v0h-3.8v-0.9H685z" fill="#333333"/>
      <path d="M691.3,290.1c0,2.7-1,4.1-2.7,4.1c-1.5,0-2.6-1.4-2.6-4c0-2.6,1.1-4.1,2.7-4.1    C690.3,286.1,691.3,287.6,691.3,290.1z M687.1,290.2c0,2,0.6,3.2,1.6,3.2c1.1,0,1.6-1.3,1.6-3.2c0-1.9-0.5-3.2-1.6-3.2    C687.7,286.9,687.1,288.1,687.1,290.2z" fill="#333333"/>
      <path d="M697.4,290.1c0,2.7-1,4.1-2.7,4.1c-1.5,0-2.6-1.4-2.6-4c0-2.6,1.1-4.1,2.7-4.1    C696.5,286.1,697.4,287.6,697.4,290.1z M693.2,290.2c0,2,0.6,3.2,1.6,3.2c1.1,0,1.6-1.3,1.6-3.2c0-1.9-0.5-3.2-1.6-3.2    C693.9,286.9,693.2,288.1,693.2,290.2z" fill="#333333"/>
      <path d="M703.6,290.1c0,2.7-1,4.1-2.7,4.1c-1.5,0-2.6-1.4-2.6-4c0-2.6,1.1-4.1,2.7-4.1    C702.7,286.1,703.6,287.6,703.6,290.1z M699.4,290.2c0,2,0.6,3.2,1.6,3.2c1.1,0,1.6-1.3,1.6-3.2c0-1.9-0.5-3.2-1.6-3.2    C700,286.9,699.4,288.1,699.4,290.2z" fill="#333333"/>
    </g>
    <rect x="111.5" y="29.5" width="158" height="28" fill="#FF0000"/>
    <rect x="342.5" y="191.5" width="135" height="28" fill="#FF0000"/>
    <rect x="382.5" y="233.5" width="271" height="28" fill="#FF0000"/>
    <rect x="245.5" y="70.5" width="273" height="28" fill="#FF0000"/>
    <rect x="536.5" y="151.5" width="129" height="28" fill="#FF0000"/>
    <rect x="493.5" y="110.5" width="51" height="28" fill="#FF0000"/>
    <g>
	</g>
    <g>
	</g>
    <g>
	</g>
    <g>
	</g>
    <g>
	</g>
    <g>
	</g>
    <g>
	</g>
    <g>
	</g>
    <g>
	</g>
    <g>
	</g>
  </g>
</svg>
