<?xml version='1.0' encoding='UTF-8'?>
<svg xmlns="http://www.w3.org/2000/svg" width="900" height="340" viewBox="-550,-100,900,300" style="max-width: 100%; height: auto; font: 10px sans-serif;" id="svg">
  <line x1="-400" y1="180" x2="250" y2="180" stroke="#000" stroke-width="2"/>
  <line x1="-400" y1="180" x2="-400" y2="-40" stroke="#000" stroke-width="2"/>
  <rect x="-350" y="80" width="20" height="100" fill="#3498db"/>
  <text x="-340" y="60" text-anchor="middle" fill="#000">20</text>
  <rect x="-325" y="100" width="20" height="80" fill="#e74c3c"/>
  <text x="-315" y="80" text-anchor="middle" fill="#000">18</text>
  <text x="-329.5" y="200" text-anchor="middle" fill="#333">Product A</text>
  <rect x="-250" y="30" width="20" height="150" fill="#3498db"/>
  <text x="-240" y="10" text-anchor="middle" fill="#000">35</text>
  <rect x="-225" y="60" width="20" height="120" fill="#e74c3c"/>
  <text x="-215" y="40" text-anchor="middle" fill="#000">32</text>
  <text x="-227.5" y="200" text-anchor="middle" fill="#333">Product B</text>
  <rect x="-150" y="-20" width="20" height="200" fill="#3498db"/>
  <text x="-140" y="-40" text-anchor="middle" fill="#000">50</text>
  <rect x="-125" y="20" width="20" height="160" fill="#e74c3c"/>
  <text x="-115" y="0" text-anchor="middle" fill="#000">45</text>
  <text x="-127.5" y="200" text-anchor="middle" fill="#333">Product C</text>
  <rect x="-50" y="50" width="20" height="130" fill="#3498db"/>
  <text x="-40" y="30" text-anchor="middle" fill="#000">28</text>
  <rect x="-25" y="70" width="20" height="110" fill="#e74c3c"/>
  <text x="-15" y="50" text-anchor="middle" fill="#000">22</text>
  <text x="-27.5" y="200" text-anchor="middle" fill="#333">Product D</text>
  <rect x="50" y="10" width="20" height="170" fill="#3498db"/>
  <text x="60" y="-10" text-anchor="middle" fill="#000">38</text>
  <rect x="75" y="40" width="20" height="140" fill="#e74c3c"/>
  <text x="85" y="20" text-anchor="middle" fill="#000">34</text>
  <text x="72.5" y="200" text-anchor="middle" fill="#333">Product E</text>
  <rect x="150" y="-30" width="20" height="210" fill="#3498db"/>
  <text x="160" y="-50" text-anchor="middle" fill="#000">42</text>
  <rect x="175" y="-10" width="20" height="190" fill="#e74c3c"/>
  <text x="185" y="-30" text-anchor="middle" fill="#000">40</text>
  <text x="172.5" y="200" text-anchor="middle" fill="#333">Product F</text>
</svg>
