<?xml version="1.0" encoding="utf-8"?>
<svg height="340" id="svg" viewBox="0,00,550,350" width="900" xmlns="http://www.w3.org/2000/svg">
<rect fill="#2caffe" height="17" stroke="#e6e6e6" width="19" x="426.5" y="245.5"/>
<rect fill="#2caffe" height="36" stroke="#e6e6e6" width="4" x="445.5" y="226.5"/>
<rect fill="#2caffe" height="19" stroke="#e6e6e6" width="19" x="426.5" y="226.5"/>
<rect fill="#2caffe" height="4" stroke="#e6e6e6" width="3" x="477.5" y="309.5"/>
<rect fill="#2caffe" height="4" stroke="#e6e6e6" width="3" x="477.5" y="301.5"/>
<rect fill="#2caffe" height="1" stroke="#e6e6e6" width="3" x="477.5" y="308.5"/>
<rect fill="#2caffe" height="3" stroke="#e6e6e6" width="3" x="477.5" y="305.5"/>
<rect fill="#2caffe" height="25" stroke="#e6e6e6" width="8" x="418.5" y="279.5"/>
<rect fill="#2caffe" height="12" stroke="#e6e6e6" width="8" x="418.5" y="304.5"/>
<rect fill="#2caffe" height="37" stroke="#e6e6e6" width="39" x="379.5" y="279.5"/>
<rect fill="#2caffe" height="39" stroke="#e6e6e6" width="3" x="453.5" y="187.5"/>
<rect fill="#2caffe" height="5" stroke="#e6e6e6" width="27" x="426.5" y="221.5"/>
<rect fill="#2caffe" height="34" stroke="#e6e6e6" width="27" x="426.5" y="187.5"/>
<rect fill="#2caffe" height="27" stroke="#e6e6e6" width="4" x="445.5" y="262.5"/>
<rect fill="#2caffe" height="9" stroke="#e6e6e6" width="19" x="426.5" y="280.5"/>
<rect fill="#2caffe" height="18" stroke="#e6e6e6" width="19" x="426.5" y="262.5"/>
<rect fill="#2caffe" height="1" stroke="#e6e6e6" width="8" x="468.5" y="310.5"/>
<rect fill="#2caffe" height="10" stroke="#e6e6e6" width="1" x="476.5" y="301.5"/>
<rect fill="#2caffe" height="9" stroke="#e6e6e6" width="8" x="468.5" y="301.5"/>
<rect fill="#2caffe" height="1" stroke="#e6e6e6" width="3" x="477.5" y="300.5"/>
<rect fill="#2caffe" height="10" stroke="#e6e6e6" width="0" x="480.5" y="291.5"/>
<rect fill="#2caffe" height="9" stroke="#e6e6e6" width="3" x="477.5" y="291.5"/>
<rect fill="#2caffe" height="12" stroke="#e6e6e6" width="0" x="477.5" y="277.5"/>
<rect fill="#2caffe" height="1" stroke="#e6e6e6" width="9" x="468.5" y="288.5"/>
<rect fill="#2caffe" height="11" stroke="#e6e6e6" width="9" x="468.5" y="277.5"/>
<rect fill="#2caffe" height="12" stroke="#e6e6e6" width="1" x="476.5" y="289.5"/>
<rect fill="#2caffe" height="2" stroke="#e6e6e6" width="8" x="468.5" y="299.5"/>
<rect fill="#2caffe" height="10" stroke="#e6e6e6" width="8" x="468.5" y="289.5"/>
<rect fill="#2caffe" height="4" stroke="#e6e6e6" width="21" x="426.5" y="312.5"/>
<rect fill="#2caffe" height="27" stroke="#e6e6e6" width="2" x="447.5" y="289.5"/>
<rect fill="#2caffe" height="23" stroke="#e6e6e6" width="21" x="426.5" y="289.5"/>
<rect fill="#2caffe" height="2" stroke="#e6e6e6" width="3" x="477.5" y="286.5"/>
<rect fill="#2caffe" height="3" stroke="#e6e6e6" width="3" x="477.5" y="288.5"/>
<rect fill="#2caffe" height="9" stroke="#e6e6e6" width="3" x="477.5" y="277.5"/>
<rect fill="#2caffe" height="35" stroke="#e6e6e6" width="43" x="379.5" y="244.5"/>
<rect fill="#2caffe" height="92" stroke="#e6e6e6" width="4" x="422.5" y="187.5"/>
<rect fill="#2caffe" height="57" stroke="#e6e6e6" width="43" x="379.5" y="187.5"/>
<rect fill="#2caffe" height="1" stroke="#e6e6e6" width="3" x="477.5" y="315.5"/>
<rect fill="#2caffe" height="2" stroke="#e6e6e6" width="3" x="477.5" y="313.5"/>
<rect fill="#2caffe" height="7" stroke="#e6e6e6" width="5" x="463.5" y="309.5"/>
<rect fill="#2caffe" height="9" stroke="#e6e6e6" width="5" x="463.5" y="300.5"/>
<rect fill="#2caffe" height="16" stroke="#e6e6e6" width="14" x="449.5" y="300.5"/>
<rect fill="#2caffe" height="16" stroke="#e6e6e6" width="18" x="449.5" y="257.5"/>
<rect fill="#2caffe" height="22" stroke="#e6e6e6" width="1" x="467.5" y="257.5"/>
<rect fill="#2caffe" height="6" stroke="#e6e6e6" width="18" x="449.5" y="273.5"/>
<rect fill="#2caffe" height="14" stroke="#e6e6e6" width="17" x="449.5" y="279.5"/>
<rect fill="#2caffe" height="21" stroke="#e6e6e6" width="2" x="466.5" y="279.5"/>
<rect fill="#2caffe" height="7" stroke="#e6e6e6" width="17" x="449.5" y="293.5"/>
<rect fill="#2caffe" height="16" stroke="#e6e6e6" width="21" x="456.5" y="210.5"/>
<rect fill="#2caffe" height="39" stroke="#e6e6e6" width="3" x="477.5" y="187.5"/>
<rect fill="#2caffe" height="23" stroke="#e6e6e6" width="21" x="456.5" y="187.5"/>
<rect fill="#2caffe" height="2" stroke="#e6e6e6" width="15" x="465.5" y="255.5"/>
<rect fill="#2caffe" height="14" stroke="#e6e6e6" width="15" x="465.5" y="241.5"/>
<rect fill="#2caffe" height="15" stroke="#e6e6e6" width="15" x="465.5" y="226.5"/>
<rect fill="#2caffe" height="2" stroke="#e6e6e6" width="11" x="468.5" y="275.5"/>
<rect fill="#2caffe" height="20" stroke="#e6e6e6" width="1" x="479.5" y="257.5"/>
<rect fill="#2caffe" height="18" stroke="#e6e6e6" width="11" x="468.5" y="257.5"/>
<rect fill="#2caffe" height="1" stroke="#e6e6e6" width="2" x="475.5" y="315.5"/>
<rect fill="#2caffe" height="4" stroke="#e6e6e6" width="2" x="475.5" y="311.5"/>
<rect fill="#2caffe" height="5" stroke="#e6e6e6" width="7" x="468.5" y="311.5"/>
<rect fill="#2caffe" height="9" stroke="#e6e6e6" width="14" x="449.5" y="248.5"/>
<rect fill="#2caffe" height="31" stroke="#e6e6e6" width="2" x="463.5" y="226.5"/>
<rect fill="#2caffe" height="22" stroke="#e6e6e6" width="14" x="449.5" y="226.5"/>
<rect fill="#544fc5" height="0" stroke="#e6e6e6" width="5" x="573.5" y="311.5"/>
<rect fill="#544fc5" height="5" stroke="#e6e6e6" width="0" x="578.5" y="306.5"/>
<rect fill="#544fc5" height="5" stroke="#e6e6e6" width="5" x="573.5" y="306.5"/>
<rect fill="#544fc5" height="1" stroke="#e6e6e6" width="5" x="573.5" y="305.5"/>
<rect fill="#544fc5" height="8" stroke="#e6e6e6" width="0" x="578.5" y="298.5"/>
<rect fill="#544fc5" height="7" stroke="#e6e6e6" width="5" x="573.5" y="298.5"/>
<rect fill="#544fc5" height="11" stroke="#e6e6e6" width="0" x="565.5" y="286.5"/>
<rect fill="#544fc5" height="0" stroke="#e6e6e6" width="10" x="555.5" y="297.5"/>
<rect fill="#544fc5" height="11" stroke="#e6e6e6" width="10" x="555.5" y="286.5"/>
<rect fill="#544fc5" height="1" stroke="#e6e6e6" width="9" x="555.5" y="306.5"/>
<rect fill="#544fc5" height="10" stroke="#e6e6e6" width="1" x="564.5" y="297.5"/>
<rect fill="#544fc5" height="9" stroke="#e6e6e6" width="9" x="555.5" y="297.5"/>
<rect fill="#544fc5" height="14" stroke="#e6e6e6" width="0" x="555.5" y="264.5"/>
<rect fill="#544fc5" height="1" stroke="#e6e6e6" width="13" x="542.5" y="277.5"/>
<rect fill="#544fc5" height="13" stroke="#e6e6e6" width="13" x="542.5" y="264.5"/>
<rect fill="#544fc5" height="0" stroke="#e6e6e6" width="12" x="555.5" y="243.5"/>
<rect fill="#544fc5" height="12" stroke="#e6e6e6" width="0" x="567.5" y="231.5"/>
<rect fill="#544fc5" height="12" stroke="#e6e6e6" width="12" x="555.5" y="231.5"/>
<rect fill="#544fc5" height="8" stroke="#e6e6e6" width="0" x="579.5" y="254.5"/>
<rect fill="#544fc5" height="1" stroke="#e6e6e6" width="6" x="573.5" y="261.5"/>
<rect fill="#544fc5" height="7" stroke="#e6e6e6" width="6" x="573.5" y="254.5"/>
<rect fill="#544fc5" height="0" stroke="#e6e6e6" width="12" x="567.5" y="243.5"/>
<rect fill="#544fc5" height="12" stroke="#e6e6e6" width="0" x="579.5" y="231.5"/>
<rect fill="#544fc5" height="12" stroke="#e6e6e6" width="12" x="567.5" y="231.5"/>
<rect fill="#544fc5" height="11" stroke="#e6e6e6" width="0" x="572.5" y="243.5"/>
<rect fill="#544fc5" height="1" stroke="#e6e6e6" width="7" x="565.5" y="253.5"/>
<rect fill="#544fc5" height="10" stroke="#e6e6e6" width="7" x="565.5" y="243.5"/>
<rect fill="#544fc5" height="7" stroke="#e6e6e6" width="1" x="578.5" y="296.5"/>
<rect fill="#544fc5" height="7" stroke="#e6e6e6" width="1" x="554.5" y="304.5"/>
<rect fill="#544fc5" height="5" stroke="#e6e6e6" width="1" x="554.5" y="311.5"/>
<rect fill="#544fc5" height="12" stroke="#e6e6e6" width="12" x="542.5" y="304.5"/>
<rect fill="#544fc5" height="0" stroke="#e6e6e6" width="7" x="565.5" y="262.5"/>
<rect fill="#544fc5" height="8" stroke="#e6e6e6" width="1" x="572.5" y="254.5"/>
<rect fill="#544fc5" height="8" stroke="#e6e6e6" width="7" x="565.5" y="254.5"/>
<rect fill="#544fc5" height="1" stroke="#e6e6e6" width="1" x="578.5" y="295.5"/>
<rect fill="#544fc5" height="14" stroke="#e6e6e6" width="1" x="578.5" y="281.5"/>
<rect fill="#544fc5" height="11" stroke="#e6e6e6" width="0" x="579.5" y="243.5"/>
<rect fill="#544fc5" height="1" stroke="#e6e6e6" width="7" x="572.5" y="253.5"/>
<rect fill="#544fc5" height="10" stroke="#e6e6e6" width="7" x="572.5" y="243.5"/>
<rect fill="#544fc5" height="2" stroke="#e6e6e6" width="23" x="518.5" y="244.5"/>
<rect fill="#544fc5" height="32" stroke="#e6e6e6" width="1" x="541.5" y="214.5"/>
<rect fill="#544fc5" height="30" stroke="#e6e6e6" width="23" x="518.5" y="214.5"/>
<rect fill="#544fc5" height="8" stroke="#e6e6e6" width="0" x="573.5" y="271.5"/>
<rect fill="#544fc5" height="0" stroke="#e6e6e6" width="8" x="565.5" y="279.5"/>
<rect fill="#544fc5" height="8" stroke="#e6e6e6" width="8" x="565.5" y="271.5"/>
<rect fill="#544fc5" height="17" stroke="#e6e6e6" width="3" x="515.5" y="260.5"/>
<rect fill="#544fc5" height="15" stroke="#e6e6e6" width="3" x="515.5" y="277.5"/>
<rect fill="#544fc5" height="32" stroke="#e6e6e6" width="35" x="480.5" y="260.5"/>
<rect fill="#544fc5" height="0" stroke="#e6e6e6" width="13" x="542.5" y="304.5"/>
<rect fill="#544fc5" height="13" stroke="#e6e6e6" width="0" x="555.5" y="291.5"/>
<rect fill="#544fc5" height="13" stroke="#e6e6e6" width="13" x="542.5" y="291.5"/>
<rect fill="#544fc5" height="13" stroke="#e6e6e6" width="0" x="555.5" y="278.5"/>
<rect fill="#544fc5" height="0" stroke="#e6e6e6" width="13" x="542.5" y="291.5"/>
<rect fill="#544fc5" height="13" stroke="#e6e6e6" width="13" x="542.5" y="278.5"/>
<rect fill="#544fc5" height="1" stroke="#e6e6e6" width="1" x="578.5" y="315.5"/>
<rect fill="#544fc5" height="0" stroke="#e6e6e6" width="5" x="573.5" y="290.5"/>
<rect fill="#544fc5" height="8" stroke="#e6e6e6" width="0" x="578.5" y="282.5"/>
<rect fill="#544fc5" height="8" stroke="#e6e6e6" width="5" x="573.5" y="282.5"/>
<rect fill="#544fc5" height="5" stroke="#e6e6e6" width="1" x="572.5" y="295.5"/>
<rect fill="#544fc5" height="2" stroke="#e6e6e6" width="1" x="572.5" y="300.5"/>
<rect fill="#544fc5" height="7" stroke="#e6e6e6" width="7" x="565.5" y="295.5"/>
<rect fill="#544fc5" height="15" stroke="#e6e6e6" width="3" x="547.5" y="187.5"/>
<rect fill="#544fc5" height="12" stroke="#e6e6e6" width="3" x="547.5" y="202.5"/>
<rect fill="#544fc5" height="27" stroke="#e6e6e6" width="29" x="518.5" y="187.5"/>
<rect fill="#544fc5" height="17" stroke="#e6e6e6" width="1" x="554.5" y="231.5"/>
<rect fill="#544fc5" height="2" stroke="#e6e6e6" width="12" x="542.5" y="246.5"/>
<rect fill="#544fc5" height="15" stroke="#e6e6e6" width="12" x="542.5" y="231.5"/>
<rect fill="#544fc5" height="1" stroke="#e6e6e6" width="5" x="573.5" y="281.5"/>
<rect fill="#544fc5" height="10" stroke="#e6e6e6" width="0" x="578.5" y="272.5"/>
<rect fill="#544fc5" height="9" stroke="#e6e6e6" width="5" x="573.5" y="272.5"/>
<rect fill="#544fc5" height="8" stroke="#e6e6e6" width="0" x="578.5" y="290.5"/>
<rect fill="#544fc5" height="1" stroke="#e6e6e6" width="5" x="573.5" y="297.5"/>
<rect fill="#544fc5" height="7" stroke="#e6e6e6" width="5" x="573.5" y="290.5"/>
<rect fill="#544fc5" height="1" stroke="#e6e6e6" width="1" x="572.5" y="308.5"/>
<rect fill="#544fc5" height="6" stroke="#e6e6e6" width="1" x="572.5" y="302.5"/>
<rect fill="#544fc5" height="7" stroke="#e6e6e6" width="7" x="565.5" y="302.5"/>
<rect fill="#544fc5" height="3" stroke="#e6e6e6" width="1" x="578.5" y="309.5"/>
<rect fill="#544fc5" height="3" stroke="#e6e6e6" width="1" x="578.5" y="312.5"/>
<rect fill="#544fc5" height="6" stroke="#e6e6e6" width="1" x="578.5" y="303.5"/>
<rect fill="#544fc5" height="1" stroke="#e6e6e6" width="12" x="542.5" y="263.5"/>
<rect fill="#544fc5" height="16" stroke="#e6e6e6" width="1" x="554.5" y="248.5"/>
<rect fill="#544fc5" height="15" stroke="#e6e6e6" width="12" x="542.5" y="248.5"/>
<rect fill="#544fc5" height="1" stroke="#e6e6e6" width="5" x="573.5" y="271.5"/>
<rect fill="#544fc5" height="10" stroke="#e6e6e6" width="0" x="578.5" y="262.5"/>
<rect fill="#544fc5" height="9" stroke="#e6e6e6" width="5" x="573.5" y="262.5"/>
<rect fill="#544fc5" height="8" stroke="#e6e6e6" width="2" x="540.5" y="308.5"/>
<rect fill="#544fc5" height="14" stroke="#e6e6e6" width="2" x="540.5" y="294.5"/>
<rect fill="#544fc5" height="22" stroke="#e6e6e6" width="22" x="518.5" y="294.5"/>
<rect fill="#544fc5" height="1" stroke="#e6e6e6" width="9" x="555.5" y="272.5"/>
<rect fill="#544fc5" height="14" stroke="#e6e6e6" width="1" x="564.5" y="259.5"/>
<rect fill="#544fc5" height="13" stroke="#e6e6e6" width="9" x="555.5" y="259.5"/>
<rect fill="#544fc5" height="4" stroke="#e6e6e6" width="1" x="572.5" y="287.5"/>
<rect fill="#544fc5" height="4" stroke="#e6e6e6" width="1" x="572.5" y="291.5"/>
<rect fill="#544fc5" height="8" stroke="#e6e6e6" width="7" x="565.5" y="287.5"/>
<rect fill="#544fc5" height="10" stroke="#e6e6e6" width="2" x="562.5" y="214.5"/>
<rect fill="#544fc5" height="7" stroke="#e6e6e6" width="2" x="562.5" y="224.5"/>
<rect fill="#544fc5" height="17" stroke="#e6e6e6" width="20" x="542.5" y="214.5"/>
<rect fill="#544fc5" height="73" stroke="#e6e6e6" width="2" x="516.5" y="187.5"/>
<rect fill="#544fc5" height="6" stroke="#e6e6e6" width="36" x="480.5" y="254.5"/>
<rect fill="#544fc5" height="67" stroke="#e6e6e6" width="36" x="480.5" y="187.5"/>
<rect fill="#544fc5" height="1" stroke="#e6e6e6" width="10" x="555.5" y="258.5"/>
<rect fill="#544fc5" height="16" stroke="#e6e6e6" width="0" x="565.5" y="243.5"/>
<rect fill="#544fc5" height="15" stroke="#e6e6e6" width="10" x="555.5" y="243.5"/>
<rect fill="#544fc5" height="9" stroke="#e6e6e6" width="1" x="572.5" y="262.5"/>
<rect fill="#544fc5" height="1" stroke="#e6e6e6" width="7" x="565.5" y="270.5"/>
<rect fill="#544fc5" height="8" stroke="#e6e6e6" width="7" x="565.5" y="262.5"/>
<rect fill="#544fc5" height="0" stroke="#e6e6e6" width="5" x="573.5" y="316.5"/>
<rect fill="#544fc5" height="5" stroke="#e6e6e6" width="0" x="578.5" y="311.5"/>
<rect fill="#544fc5" height="5" stroke="#e6e6e6" width="5" x="573.5" y="311.5"/>
<rect fill="#544fc5" height="12" stroke="#e6e6e6" width="2" x="540.5" y="272.5"/>
<rect fill="#544fc5" height="10" stroke="#e6e6e6" width="2" x="540.5" y="284.5"/>
<rect fill="#544fc5" height="22" stroke="#e6e6e6" width="22" x="518.5" y="272.5"/>
<rect fill="#544fc5" height="1" stroke="#e6e6e6" width="9" x="555.5" y="285.5"/>
<rect fill="#544fc5" height="13" stroke="#e6e6e6" width="1" x="564.5" y="273.5"/>
<rect fill="#544fc5" height="12" stroke="#e6e6e6" width="9" x="555.5" y="273.5"/>
<rect fill="#544fc5" height="9" stroke="#e6e6e6" width="1" x="564.5" y="307.5"/>
<rect fill="#544fc5" height="0" stroke="#e6e6e6" width="9" x="555.5" y="316.5"/>
<rect fill="#544fc5" height="9" stroke="#e6e6e6" width="9" x="555.5" y="307.5"/>
<rect fill="#544fc5" height="2" stroke="#e6e6e6" width="7" x="565.5" y="285.5"/>
<rect fill="#544fc5" height="8" stroke="#e6e6e6" width="1" x="572.5" y="279.5"/>
<rect fill="#544fc5" height="6" stroke="#e6e6e6" width="7" x="565.5" y="279.5"/>
<rect fill="#544fc5" height="1" stroke="#e6e6e6" width="1" x="578.5" y="280.5"/>
<rect fill="#544fc5" height="18" stroke="#e6e6e6" width="1" x="578.5" y="262.5"/>
<rect fill="#544fc5" height="26" stroke="#e6e6e6" width="1" x="541.5" y="246.5"/>
<rect fill="#544fc5" height="2" stroke="#e6e6e6" width="23" x="518.5" y="270.5"/>
<rect fill="#544fc5" height="24" stroke="#e6e6e6" width="23" x="518.5" y="246.5"/>
<rect fill="#544fc5" height="5" stroke="#e6e6e6" width="2" x="571.5" y="309.5"/>
<rect fill="#544fc5" height="2" stroke="#e6e6e6" width="2" x="571.5" y="314.5"/>
<rect fill="#544fc5" height="7" stroke="#e6e6e6" width="6" x="565.5" y="309.5"/>
<rect fill="#544fc5" height="8" stroke="#e6e6e6" width="4" x="514.5" y="308.5"/>
<rect fill="#544fc5" height="16" stroke="#e6e6e6" width="4" x="514.5" y="292.5"/>
<rect fill="#544fc5" height="24" stroke="#e6e6e6" width="34" x="480.5" y="292.5"/>
<rect fill="#544fc5" height="18" stroke="#e6e6e6" width="3" x="576.5" y="187.5"/>
<rect fill="#544fc5" height="9" stroke="#e6e6e6" width="3" x="576.5" y="205.5"/>
<rect fill="#544fc5" height="27" stroke="#e6e6e6" width="26" x="550.5" y="187.5"/>
<rect fill="#544fc5" height="2" stroke="#e6e6e6" width="14" x="564.5" y="229.5"/>
<rect fill="#544fc5" height="17" stroke="#e6e6e6" width="1" x="578.5" y="214.5"/>
<rect fill="#544fc5" height="15" stroke="#e6e6e6" width="14" x="564.5" y="214.5"/>
<rect fill="#00e272" height="4" stroke="#e6e6e6" width="13" x="328.5" y="277.5"/>
<rect fill="#00e272" height="20" stroke="#e6e6e6" width="2" x="341.5" y="261.5"/>
<rect fill="#00e272" height="16" stroke="#e6e6e6" width="13" x="328.5" y="261.5"/>
<rect fill="#00e272" height="18" stroke="#e6e6e6" width="17" x="308.5" y="245.5"/>
<rect fill="#00e272" height="26" stroke="#e6e6e6" width="3" x="325.5" y="245.5"/>
<rect fill="#00e272" height="8" stroke="#e6e6e6" width="17" x="308.5" y="263.5"/>
<rect fill="#00e272" height="8" stroke="#e6e6e6" width="9" x="356.5" y="266.5"/>
<rect fill="#00e272" height="14" stroke="#e6e6e6" width="1" x="365.5" y="266.5"/>
<rect fill="#00e272" height="6" stroke="#e6e6e6" width="9" x="356.5" y="274.5"/>
<rect fill="#00e272" height="4" stroke="#e6e6e6" width="3" x="374.5" y="295.5"/>
<rect fill="#00e272" height="6" stroke="#e6e6e6" width="1" x="377.5" y="295.5"/>
<rect fill="#00e272" height="2" stroke="#e6e6e6" width="3" x="374.5" y="299.5"/>
<rect fill="#00e272" height="11" stroke="#e6e6e6" width="11" x="343.5" y="252.5"/>
<rect fill="#00e272" height="18" stroke="#e6e6e6" width="2" x="354.5" y="252.5"/>
<rect fill="#00e272" height="7" stroke="#e6e6e6" width="11" x="343.5" y="263.5"/>
<rect fill="#00e272" height="9" stroke="#e6e6e6" width="10" x="368.5" y="252.5"/>
<rect fill="#00e272" height="14" stroke="#e6e6e6" width="1" x="378.5" y="252.5"/>
<rect fill="#00e272" height="5" stroke="#e6e6e6" width="10" x="368.5" y="261.5"/>
<rect fill="#00e272" height="15" stroke="#e6e6e6" width="13" x="364.5" y="214.5"/>
<rect fill="#00e272" height="24" stroke="#e6e6e6" width="2" x="377.5" y="214.5"/>
<rect fill="#00e272" height="9" stroke="#e6e6e6" width="13" x="364.5" y="229.5"/>
<rect fill="#00e272" height="1" stroke="#e6e6e6" width="1" x="378.5" y="312.5"/>
<rect fill="#00e272" height="2" stroke="#e6e6e6" width="1" x="378.5" y="310.5"/>
<rect fill="#00e272" height="8" stroke="#e6e6e6" width="8" x="366.5" y="266.5"/>
<rect fill="#00e272" height="2" stroke="#e6e6e6" width="5" x="374.5" y="272.5"/>
<rect fill="#00e272" height="6" stroke="#e6e6e6" width="5" x="374.5" y="266.5"/>
<rect fill="#00e272" height="13" stroke="#e6e6e6" width="13" x="328.5" y="281.5"/>
<rect fill="#00e272" height="18" stroke="#e6e6e6" width="2" x="341.5" y="281.5"/>
<rect fill="#00e272" height="5" stroke="#e6e6e6" width="13" x="328.5" y="294.5"/>
<rect fill="#00e272" height="3" stroke="#e6e6e6" width="1" x="378.5" y="303.5"/>
<rect fill="#00e272" height="2" stroke="#e6e6e6" width="1" x="378.5" y="308.5"/>
<rect fill="#00e272" height="2" stroke="#e6e6e6" width="1" x="378.5" y="306.5"/>
<rect fill="#00e272" height="4" stroke="#e6e6e6" width="7" x="366.5" y="296.5"/>
<rect fill="#00e272" height="7" stroke="#e6e6e6" width="1" x="373.5" y="296.5"/>
<rect fill="#00e272" height="3" stroke="#e6e6e6" width="7" x="366.5" y="300.5"/>
<rect fill="#00e272" height="14" stroke="#e6e6e6" width="16" x="346.5" y="214.5"/>
<rect fill="#00e272" height="24" stroke="#e6e6e6" width="2" x="362.5" y="214.5"/>
<rect fill="#00e272" height="10" stroke="#e6e6e6" width="16" x="346.5" y="228.5"/>
<rect fill="#00e272" height="22" stroke="#e6e6e6" width="31" x="273.5" y="284.5"/>
<rect fill="#00e272" height="32" stroke="#e6e6e6" width="4" x="304.5" y="284.5"/>
<rect fill="#00e272" height="10" stroke="#e6e6e6" width="31" x="273.5" y="306.5"/>
<rect fill="#00e272" height="4" stroke="#e6e6e6" width="1" x="378.5" y="294.5"/>
<rect fill="#00e272" height="1" stroke="#e6e6e6" width="1" x="378.5" y="302.5"/>
<rect fill="#00e272" height="4" stroke="#e6e6e6" width="1" x="378.5" y="298.5"/>
<rect fill="#00e272" height="4" stroke="#e6e6e6" width="7" x="366.5" y="303.5"/>
<rect fill="#00e272" height="7" stroke="#e6e6e6" width="1" x="373.5" y="303.5"/>
<rect fill="#00e272" height="3" stroke="#e6e6e6" width="7" x="366.5" y="307.5"/>
<rect fill="#00e272" height="27" stroke="#e6e6e6" width="20" x="308.5" y="187.5"/>
<rect fill="#00e272" height="6" stroke="#e6e6e6" width="20" x="328.5" y="208.5"/>
<rect fill="#00e272" height="21" stroke="#e6e6e6" width="20" x="328.5" y="187.5"/>
<rect fill="#00e272" height="3" stroke="#e6e6e6" width="3" x="374.5" y="307.5"/>
<rect fill="#00e272" height="5" stroke="#e6e6e6" width="1" x="377.5" y="307.5"/>
<rect fill="#00e272" height="2" stroke="#e6e6e6" width="3" x="374.5" y="310.5"/>
<rect fill="#00e272" height="4" stroke="#e6e6e6" width="3" x="374.5" y="301.5"/>
<rect fill="#00e272" height="6" stroke="#e6e6e6" width="1" x="377.5" y="301.5"/>
<rect fill="#00e272" height="2" stroke="#e6e6e6" width="3" x="374.5" y="305.5"/>
<rect fill="#00e272" height="12" stroke="#e6e6e6" width="13" x="328.5" y="238.5"/>
<rect fill="#00e272" height="23" stroke="#e6e6e6" width="2" x="341.5" y="238.5"/>
<rect fill="#00e272" height="11" stroke="#e6e6e6" width="13" x="328.5" y="250.5"/>
<rect fill="#00e272" height="10" stroke="#e6e6e6" width="11" x="343.5" y="302.5"/>
<rect fill="#00e272" height="14" stroke="#e6e6e6" width="2" x="354.5" y="302.5"/>
<rect fill="#00e272" height="4" stroke="#e6e6e6" width="11" x="343.5" y="312.5"/>
<rect fill="#00e272" height="5" stroke="#e6e6e6" width="3" x="374.5" y="282.5"/>
<rect fill="#00e272" height="7" stroke="#e6e6e6" width="1" x="377.5" y="282.5"/>
<rect fill="#00e272" height="2" stroke="#e6e6e6" width="3" x="374.5" y="287.5"/>
<rect fill="#00e272" height="15" stroke="#e6e6e6" width="17" x="308.5" y="271.5"/>
<rect fill="#00e272" height="24" stroke="#e6e6e6" width="3" x="325.5" y="271.5"/>
<rect fill="#00e272" height="9" stroke="#e6e6e6" width="17" x="308.5" y="286.5"/>
<rect fill="#00e272" height="6" stroke="#e6e6e6" width="5" x="374.5" y="274.5"/>
<rect fill="#00e272" height="8" stroke="#e6e6e6" width="0" x="379.5" y="274.5"/>
<rect fill="#00e272" height="2" stroke="#e6e6e6" width="5" x="374.5" y="280.5"/>
<rect fill="#00e272" height="5" stroke="#e6e6e6" width="7" x="366.5" y="288.5"/>
<rect fill="#00e272" height="8" stroke="#e6e6e6" width="1" x="373.5" y="288.5"/>
<rect fill="#00e272" height="3" stroke="#e6e6e6" width="7" x="366.5" y="293.5"/>
<rect fill="#00e272" height="14" stroke="#e6e6e6" width="8" x="362.5" y="238.5"/>
<rect fill="#00e272" height="3" stroke="#e6e6e6" width="9" x="370.5" y="249.5"/>
<rect fill="#00e272" height="11" stroke="#e6e6e6" width="9" x="370.5" y="238.5"/>
<rect fill="#00e272" height="11" stroke="#e6e6e6" width="12" x="343.5" y="270.5"/>
<rect fill="#00e272" height="17" stroke="#e6e6e6" width="1" x="355.5" y="270.5"/>
<rect fill="#00e272" height="6" stroke="#e6e6e6" width="12" x="343.5" y="281.5"/>
<rect fill="#00e272" height="11" stroke="#e6e6e6" width="13" x="328.5" y="299.5"/>
<rect fill="#00e272" height="17" stroke="#e6e6e6" width="2" x="341.5" y="299.5"/>
<rect fill="#00e272" height="6" stroke="#e6e6e6" width="13" x="328.5" y="310.5"/>
<rect fill="#00e272" height="4" stroke="#e6e6e6" width="7" x="366.5" y="310.5"/>
<rect fill="#00e272" height="6" stroke="#e6e6e6" width="1" x="373.5" y="310.5"/>
<rect fill="#00e272" height="2" stroke="#e6e6e6" width="7" x="366.5" y="314.5"/>
<rect fill="#00e272" height="2" stroke="#e6e6e6" width="1" x="378.5" y="292.5"/>
<rect fill="#00e272" height="12" stroke="#e6e6e6" width="0" x="379.5" y="282.5"/>
<rect fill="#00e272" height="10" stroke="#e6e6e6" width="1" x="378.5" y="282.5"/>
<rect fill="#00e272" height="15" stroke="#e6e6e6" width="16" x="328.5" y="214.5"/>
<rect fill="#00e272" height="24" stroke="#e6e6e6" width="2" x="344.5" y="214.5"/>
<rect fill="#00e272" height="9" stroke="#e6e6e6" width="16" x="328.5" y="229.5"/>
<rect fill="#00e272" height="3" stroke="#e6e6e6" width="3" x="374.5" y="289.5"/>
<rect fill="#00e272" height="6" stroke="#e6e6e6" width="1" x="377.5" y="289.5"/>
<rect fill="#00e272" height="3" stroke="#e6e6e6" width="3" x="374.5" y="292.5"/>
<rect fill="#00e272" height="14" stroke="#e6e6e6" width="12" x="343.5" y="238.5"/>
<rect fill="#00e272" height="4" stroke="#e6e6e6" width="7" x="355.5" y="248.5"/>
<rect fill="#00e272" height="10" stroke="#e6e6e6" width="7" x="355.5" y="238.5"/>
<rect fill="#00e272" height="70" stroke="#e6e6e6" width="32" x="273.5" y="187.5"/>
<rect fill="#00e272" height="97" stroke="#e6e6e6" width="3" x="305.5" y="187.5"/>
<rect fill="#00e272" height="27" stroke="#e6e6e6" width="32" x="273.5" y="257.5"/>
<rect fill="#00e272" height="4" stroke="#e6e6e6" width="9" x="356.5" y="312.5"/>
<rect fill="#00e272" height="10" stroke="#e6e6e6" width="1" x="365.5" y="306.5"/>
<rect fill="#00e272" height="6" stroke="#e6e6e6" width="9" x="356.5" y="306.5"/>
<rect fill="#00e272" height="1" stroke="#e6e6e6" width="1" x="378.5" y="313.5"/>
<rect fill="#00e272" height="1" stroke="#e6e6e6" width="1" x="378.5" y="314.5"/>
<rect fill="#00e272" height="7" stroke="#e6e6e6" width="9" x="356.5" y="280.5"/>
<rect fill="#00e272" height="13" stroke="#e6e6e6" width="1" x="365.5" y="280.5"/>
<rect fill="#00e272" height="6" stroke="#e6e6e6" width="9" x="356.5" y="287.5"/>
<rect fill="#00e272" height="1" stroke="#e6e6e6" width="1" x="378.5" y="315.5"/>
<rect fill="#00e272" height="9" stroke="#e6e6e6" width="9" x="356.5" y="293.5"/>
<rect fill="#00e272" height="13" stroke="#e6e6e6" width="1" x="365.5" y="293.5"/>
<rect fill="#00e272" height="4" stroke="#e6e6e6" width="9" x="356.5" y="302.5"/>
<rect fill="#00e272" height="23" stroke="#e6e6e6" width="16" x="363.5" y="187.5"/>
<rect fill="#00e272" height="4" stroke="#e6e6e6" width="16" x="363.5" y="210.5"/>
<rect fill="#00e272" height="27" stroke="#e6e6e6" width="15" x="348.5" y="187.5"/>
<rect fill="#00e272" height="2" stroke="#e6e6e6" width="3" x="374.5" y="312.5"/>
<rect fill="#00e272" height="4" stroke="#e6e6e6" width="1" x="377.5" y="312.5"/>
<rect fill="#00e272" height="2" stroke="#e6e6e6" width="3" x="374.5" y="314.5"/>
<rect fill="#00e272" height="8" stroke="#e6e6e6" width="7" x="366.5" y="274.5"/>
<rect fill="#00e272" height="14" stroke="#e6e6e6" width="1" x="373.5" y="274.5"/>
<rect fill="#00e272" height="6" stroke="#e6e6e6" width="7" x="366.5" y="282.5"/>
<rect fill="#00e272" height="13" stroke="#e6e6e6" width="17" x="308.5" y="295.5"/>
<rect fill="#00e272" height="21" stroke="#e6e6e6" width="3" x="325.5" y="295.5"/>
<rect fill="#00e272" height="8" stroke="#e6e6e6" width="17" x="308.5" y="308.5"/>
<rect fill="#00e272" height="19" stroke="#e6e6e6" width="17" x="308.5" y="214.5"/>
<rect fill="#00e272" height="31" stroke="#e6e6e6" width="3" x="325.5" y="214.5"/>
<rect fill="#00e272" height="12" stroke="#e6e6e6" width="17" x="308.5" y="233.5"/>
<rect fill="#00e272" height="10" stroke="#e6e6e6" width="11" x="343.5" y="287.5"/>
<rect fill="#00e272" height="15" stroke="#e6e6e6" width="2" x="354.5" y="287.5"/>
<rect fill="#00e272" height="5" stroke="#e6e6e6" width="11" x="343.5" y="297.5"/>
<rect fill="#00e272" height="9" stroke="#e6e6e6" width="12" x="356.5" y="252.5"/>
<rect fill="#00e272" height="5" stroke="#e6e6e6" width="12" x="356.5" y="261.5"/>
<rect fill="#fe6a35" height="4" stroke="#e6e6e6" width="21" x="557.5" y="26.5"/>
<rect fill="#fe6a35" height="31" stroke="#e6e6e6" width="1" x="578.5" y="-0.5"/>
<rect fill="#fe6a35" height="27" stroke="#e6e6e6" width="21" x="557.5" y="-0.5"/>
<rect fill="#fe6a35" height="4" stroke="#e6e6e6" width="1" x="578.5" y="176.5"/>
<rect fill="#fe6a35" height="6" stroke="#e6e6e6" width="1" x="578.5" y="170.5"/>
<rect fill="#fe6a35" height="2" stroke="#e6e6e6" width="1" x="578.5" y="180.5"/>
<rect fill="#fe6a35" height="5" stroke="#e6e6e6" width="6" x="571.5" y="112.5"/>
<rect fill="#fe6a35" height="19" stroke="#e6e6e6" width="1" x="577.5" y="98.5"/>
<rect fill="#fe6a35" height="14" stroke="#e6e6e6" width="6" x="571.5" y="98.5"/>
<rect fill="#fe6a35" height="9" stroke="#e6e6e6" width="44" x="506.5" y="153.5"/>
<rect fill="#fe6a35" height="53" stroke="#e6e6e6" width="7" x="550.5" y="109.5"/>
<rect fill="#fe6a35" height="44" stroke="#e6e6e6" width="44" x="506.5" y="109.5"/>
<rect fill="#fe6a35" height="38" stroke="#e6e6e6" width="1" x="570.5" y="30.5"/>
<rect fill="#fe6a35" height="3" stroke="#e6e6e6" width="13" x="557.5" y="65.5"/>
<rect fill="#fe6a35" height="35" stroke="#e6e6e6" width="13" x="557.5" y="30.5"/>
<rect fill="#fe6a35" height="1" stroke="#e6e6e6" width="13" x="557.5" y="172.5"/>
<rect fill="#fe6a35" height="16" stroke="#e6e6e6" width="1" x="570.5" y="157.5"/>
<rect fill="#fe6a35" height="15" stroke="#e6e6e6" width="13" x="557.5" y="157.5"/>
<rect fill="#fe6a35" height="37" stroke="#e6e6e6" width="2" x="569.5" y="68.5"/>
<rect fill="#fe6a35" height="7" stroke="#e6e6e6" width="12" x="557.5" y="98.5"/>
<rect fill="#fe6a35" height="30" stroke="#e6e6e6" width="12" x="557.5" y="68.5"/>
<rect fill="#fe6a35" height="3" stroke="#e6e6e6" width="1" x="577.5" y="181.5"/>
<rect fill="#fe6a35" height="3" stroke="#e6e6e6" width="1" x="577.5" y="184.5"/>
<rect fill="#fe6a35" height="6" stroke="#e6e6e6" width="6" x="571.5" y="181.5"/>
<rect fill="#fe6a35" height="1" stroke="#e6e6e6" width="13" x="557.5" y="186.5"/>
<rect fill="#fe6a35" height="14" stroke="#e6e6e6" width="1" x="570.5" y="173.5"/>
<rect fill="#fe6a35" height="13" stroke="#e6e6e6" width="13" x="557.5" y="173.5"/>
<rect fill="#fe6a35" height="3" stroke="#e6e6e6" width="6" x="571.5" y="131.5"/>
<rect fill="#fe6a35" height="17" stroke="#e6e6e6" width="1" x="577.5" y="117.5"/>
<rect fill="#fe6a35" height="14" stroke="#e6e6e6" width="6" x="571.5" y="117.5"/>
<rect fill="#fe6a35" height="4" stroke="#e6e6e6" width="6" x="571.5" y="94.5"/>
<rect fill="#fe6a35" height="23" stroke="#e6e6e6" width="1" x="577.5" y="75.5"/>
<rect fill="#fe6a35" height="19" stroke="#e6e6e6" width="6" x="571.5" y="75.5"/>
<rect fill="#fe6a35" height="11" stroke="#e6e6e6" width="1" x="577.5" y="134.5"/>
<rect fill="#fe6a35" height="2" stroke="#e6e6e6" width="6" x="571.5" y="143.5"/>
<rect fill="#fe6a35" height="9" stroke="#e6e6e6" width="6" x="571.5" y="134.5"/>
<rect fill="#fe6a35" height="2" stroke="#e6e6e6" width="1" x="578.5" y="182.5"/>
<rect fill="#fe6a35" height="7" stroke="#e6e6e6" width="6" x="571.5" y="68.5"/>
<rect fill="#fe6a35" height="23" stroke="#e6e6e6" width="1" x="577.5" y="52.5"/>
<rect fill="#fe6a35" height="16" stroke="#e6e6e6" width="6" x="571.5" y="52.5"/>
<rect fill="#fe6a35" height="2" stroke="#e6e6e6" width="1" x="578.5" y="159.5"/>
<rect fill="#fe6a35" height="2" stroke="#e6e6e6" width="1" x="578.5" y="161.5"/>
<rect fill="#fe6a35" height="8" stroke="#e6e6e6" width="1" x="578.5" y="151.5"/>
<rect fill="#fe6a35" height="8" stroke="#e6e6e6" width="7" x="571.5" y="44.5"/>
<rect fill="#fe6a35" height="22" stroke="#e6e6e6" width="1" x="578.5" y="30.5"/>
<rect fill="#fe6a35" height="14" stroke="#e6e6e6" width="7" x="571.5" y="30.5"/>
<rect fill="#fe6a35" height="10" stroke="#e6e6e6" width="1" x="577.5" y="145.5"/>
<rect fill="#fe6a35" height="3" stroke="#e6e6e6" width="6" x="571.5" y="152.5"/>
<rect fill="#fe6a35" height="7" stroke="#e6e6e6" width="6" x="571.5" y="145.5"/>
<rect fill="#fe6a35" height="3" stroke="#e6e6e6" width="1" x="578.5" y="119.5"/>
<rect fill="#fe6a35" height="4" stroke="#e6e6e6" width="1" x="578.5" y="122.5"/>
<rect fill="#fe6a35" height="29" stroke="#e6e6e6" width="1" x="578.5" y="90.5"/>
<rect fill="#fe6a35" height="12" stroke="#e6e6e6" width="11" x="546.5" y="175.5"/>
<rect fill="#fe6a35" height="13" stroke="#e6e6e6" width="11" x="546.5" y="162.5"/>
<rect fill="#fe6a35" height="25" stroke="#e6e6e6" width="40" x="506.5" y="162.5"/>
<rect fill="#fe6a35" height="1" stroke="#e6e6e6" width="7" x="571.5" y="180.5"/>
<rect fill="#fe6a35" height="8" stroke="#e6e6e6" width="0" x="578.5" y="173.5"/>
<rect fill="#fe6a35" height="7" stroke="#e6e6e6" width="7" x="571.5" y="173.5"/>
<rect fill="#fe6a35" height="6" stroke="#e6e6e6" width="1" x="578.5" y="80.5"/>
<rect fill="#fe6a35" height="4" stroke="#e6e6e6" width="1" x="578.5" y="86.5"/>
<rect fill="#fe6a35" height="28" stroke="#e6e6e6" width="1" x="578.5" y="52.5"/>
<rect fill="#fe6a35" height="1" stroke="#e6e6e6" width="7" x="571.5" y="163.5"/>
<rect fill="#fe6a35" height="9" stroke="#e6e6e6" width="0" x="578.5" y="155.5"/>
<rect fill="#fe6a35" height="8" stroke="#e6e6e6" width="7" x="571.5" y="155.5"/>
<rect fill="#fe6a35" height="6" stroke="#e6e6e6" width="12" x="557.5" y="151.5"/>
<rect fill="#fe6a35" height="25" stroke="#e6e6e6" width="2" x="569.5" y="132.5"/>
<rect fill="#fe6a35" height="19" stroke="#e6e6e6" width="12" x="557.5" y="132.5"/>
<rect fill="#fe6a35" height="2" stroke="#e6e6e6" width="1" x="578.5" y="184.5"/>
<rect fill="#fe6a35" height="1" stroke="#e6e6e6" width="1" x="578.5" y="186.5"/>
<rect fill="#fe6a35" height="2" stroke="#e6e6e6" width="1" x="578.5" y="168.5"/>
<rect fill="#fe6a35" height="5" stroke="#e6e6e6" width="1" x="578.5" y="163.5"/>
<rect fill="#fe6a35" height="2" stroke="#e6e6e6" width="1" x="578.5" y="147.5"/>
<rect fill="#fe6a35" height="2" stroke="#e6e6e6" width="1" x="578.5" y="149.5"/>
<rect fill="#fe6a35" height="21" stroke="#e6e6e6" width="1" x="578.5" y="126.5"/>
<rect fill="#fe6a35" height="110" stroke="#e6e6e6" width="3" x="554.5" y="-0.5"/>
<rect fill="#fe6a35" height="7" stroke="#e6e6e6" width="48" x="506.5" y="102.5"/>
<rect fill="#fe6a35" height="103" stroke="#e6e6e6" width="48" x="506.5" y="-0.5"/>
<rect fill="#fe6a35" height="0" stroke="#e6e6e6" width="7" x="571.5" y="173.5"/>
<rect fill="#fe6a35" height="9" stroke="#e6e6e6" width="0" x="578.5" y="164.5"/>
<rect fill="#fe6a35" height="9" stroke="#e6e6e6" width="7" x="571.5" y="164.5"/>
<rect fill="#fe6a35" height="27" stroke="#e6e6e6" width="2" x="569.5" y="105.5"/>
<rect fill="#fe6a35" height="6" stroke="#e6e6e6" width="12" x="557.5" y="126.5"/>
<rect fill="#fe6a35" height="21" stroke="#e6e6e6" width="12" x="557.5" y="105.5"/>
<rect fill="#6b8abc" height="30" stroke="#e6e6e6" width="0" x="506.5" y="72.5"/>
<rect fill="#6b8abc" height="2" stroke="#e6e6e6" width="17" x="489.5" y="100.5"/>
<rect fill="#6b8abc" height="28" stroke="#e6e6e6" width="17" x="489.5" y="72.5"/>
<rect fill="#6b8abc" height="10" stroke="#e6e6e6" width="0" x="506.5" y="130.5"/>
<rect fill="#6b8abc" height="8" stroke="#e6e6e6" width="12" x="489.5" y="154.5"/>
<rect fill="#6b8abc" height="23" stroke="#e6e6e6" width="2" x="501.5" y="139.5"/>
<rect fill="#6b8abc" height="15" stroke="#e6e6e6" width="12" x="489.5" y="139.5"/>
<rect fill="#6b8abc" height="188" stroke="#e6e6e6" width="7" x="440.5" y="-0.5"/>
<rect fill="#6b8abc" height="13" stroke="#e6e6e6" width="167" x="273.5" y="174.5"/>
<rect fill="#6b8abc" height="175" stroke="#e6e6e6" width="167" x="273.5" y="-0.5"/>
<rect fill="#6b8abc" height="1" stroke="#e6e6e6" width="3" x="503.5" y="183.5"/>
<rect fill="#6b8abc" height="5" stroke="#e6e6e6" width="3" x="503.5" y="178.5"/>
<rect fill="#6b8abc" height="10" stroke="#e6e6e6" width="56" x="447.5" y="62.5"/>
<rect fill="#6b8abc" height="73" stroke="#e6e6e6" width="3" x="503.5" y="-0.5"/>
<rect fill="#6b8abc" height="63" stroke="#e6e6e6" width="56" x="447.5" y="-0.5"/>
<rect fill="#6b8abc" height="9" stroke="#e6e6e6" width="0" x="506.5" y="140.5"/>
<rect fill="#6b8abc" height="9" stroke="#e6e6e6" width="6" x="497.5" y="176.5"/>
<rect fill="#6b8abc" height="2" stroke="#e6e6e6" width="6" x="497.5" y="185.5"/>
<rect fill="#6b8abc" height="11" stroke="#e6e6e6" width="8" x="489.5" y="176.5"/>
<rect fill="#6b8abc" height="8" stroke="#e6e6e6" width="13" x="489.5" y="131.5"/>
<rect fill="#6b8abc" height="37" stroke="#e6e6e6" width="1" x="502.5" y="102.5"/>
<rect fill="#6b8abc" height="29" stroke="#e6e6e6" width="13" x="489.5" y="102.5"/>
<rect fill="#6b8abc" height="10" stroke="#e6e6e6" width="0" x="506.5" y="149.5"/>
<rect fill="#6b8abc" height="2" stroke="#e6e6e6" width="3" x="503.5" y="176.5"/>
<rect fill="#6b8abc" height="20" stroke="#e6e6e6" width="0" x="506.5" y="158.5"/>
<rect fill="#6b8abc" height="18" stroke="#e6e6e6" width="3" x="503.5" y="158.5"/>
<rect fill="#6b8abc" height="28" stroke="#e6e6e6" width="0" x="506.5" y="102.5"/>
<rect fill="#6b8abc" height="2" stroke="#e6e6e6" width="3" x="503.5" y="128.5"/>
<rect fill="#6b8abc" height="26" stroke="#e6e6e6" width="3" x="503.5" y="102.5"/>
<rect fill="#6b8abc" height="6" stroke="#e6e6e6" width="13" x="489.5" y="170.5"/>
<rect fill="#6b8abc" height="14" stroke="#e6e6e6" width="1" x="502.5" y="162.5"/>
<rect fill="#6b8abc" height="8" stroke="#e6e6e6" width="13" x="489.5" y="162.5"/>
<rect fill="#6b8abc" height="14" stroke="#e6e6e6" width="40" x="447.5" y="110.5"/>
<rect fill="#6b8abc" height="52" stroke="#e6e6e6" width="2" x="487.5" y="72.5"/>
<rect fill="#6b8abc" height="38" stroke="#e6e6e6" width="40" x="447.5" y="72.5"/>
<rect fill="#6b8abc" height="9" stroke="#e6e6e6" width="9" x="480.5" y="178.5"/>
<rect fill="#6b8abc" height="12" stroke="#e6e6e6" width="9" x="480.5" y="166.5"/>
<rect fill="#6b8abc" height="21" stroke="#e6e6e6" width="33" x="447.5" y="166.5"/>
<rect fill="#6b8abc" height="9" stroke="#e6e6e6" width="0" x="506.5" y="159.5"/>
<rect fill="#6b8abc" height="6" stroke="#e6e6e6" width="3" x="503.5" y="151.5"/>
<rect fill="#6b8abc" height="1" stroke="#e6e6e6" width="3" x="503.5" y="157.5"/>
<rect fill="#6b8abc" height="21" stroke="#e6e6e6" width="3" x="503.5" y="130.5"/>
<rect fill="#6b8abc" height="3" stroke="#e6e6e6" width="1" x="505.5" y="184.5"/>
<rect fill="#6b8abc" height="3" stroke="#e6e6e6" width="2" x="503.5" y="184.5"/>
<rect fill="#6b8abc" height="10" stroke="#e6e6e6" width="0" x="506.5" y="168.5"/>
<rect fill="#6b8abc" height="9" stroke="#e6e6e6" width="0" x="506.5" y="178.5"/>
<rect fill="#6b8abc" height="6" stroke="#e6e6e6" width="38" x="447.5" y="160.5"/>
<rect fill="#6b8abc" height="42" stroke="#e6e6e6" width="4" x="485.5" y="124.5"/>
<rect fill="#6b8abc" height="36" stroke="#e6e6e6" width="38" x="447.5" y="124.5"/>
<rect fill="#d568fb" height="31" stroke="#e6e6e6" width="45" x="225.5" y="81.5"/>
<rect fill="#d568fb" height="113" stroke="#e6e6e6" width="3" x="270.5" y="-0.5"/>
<rect fill="#d568fb" height="82" stroke="#e6e6e6" width="45" x="225.5" y="-0.5"/>
<rect fill="#d568fb" height="15" stroke="#e6e6e6" width="0" x="273.5" y="270.5"/>
<rect fill="#d568fb" height="16" stroke="#e6e6e6" width="0" x="273.5" y="285.5"/>
<rect fill="#d568fb" height="47" stroke="#e6e6e6" width="0" x="273.5" y="223.5"/>
<rect fill="#d568fb" height="5" stroke="#e6e6e6" width="35" x="225.5" y="311.5"/>
<rect fill="#d568fb" height="39" stroke="#e6e6e6" width="3" x="260.5" y="277.5"/>
<rect fill="#d568fb" height="34" stroke="#e6e6e6" width="35" x="225.5" y="277.5"/>
<rect fill="#d568fb" height="84" stroke="#e6e6e6" width="201" x="-0.5" y="181.5"/>
<rect fill="#d568fb" height="266" stroke="#e6e6e6" width="25" x="200.5" y="-0.5"/>
<rect fill="#d568fb" height="182" stroke="#e6e6e6" width="201" x="-0.5" y="-0.5"/>
<rect fill="#d568fb" height="51" stroke="#e6e6e6" width="48" x="164.5" y="265.5"/>
<rect fill="#d568fb" height="51" stroke="#e6e6e6" width="13" x="212.5" y="265.5"/>
<rect fill="#d568fb" height="51" stroke="#e6e6e6" width="165" x="-0.5" y="265.5"/>
<rect fill="#d568fb" height="15" stroke="#e6e6e6" width="0" x="273.5" y="301.5"/>
<rect fill="#d568fb" height="18" stroke="#e6e6e6" width="35" x="225.5" y="259.5"/>
<rect fill="#d568fb" height="72" stroke="#e6e6e6" width="3" x="260.5" y="205.5"/>
<rect fill="#d568fb" height="54" stroke="#e6e6e6" width="35" x="225.5" y="205.5"/>
<rect fill="#d568fb" height="27" stroke="#e6e6e6" width="10" x="263.5" y="184.5"/>
<rect fill="#d568fb" height="12" stroke="#e6e6e6" width="10" x="263.5" y="211.5"/>
<rect fill="#d568fb" height="72" stroke="#e6e6e6" width="10" x="263.5" y="112.5"/>
<rect fill="#d568fb" height="7" stroke="#e6e6e6" width="10" x="263.5" y="304.5"/>
<rect fill="#d568fb" height="11" stroke="#e6e6e6" width="10" x="263.5" y="293.5"/>
<rect fill="#d568fb" height="70" stroke="#e6e6e6" width="10" x="263.5" y="223.5"/>
<rect fill="#d568fb" height="19" stroke="#e6e6e6" width="34" x="225.5" y="186.5"/>
<rect fill="#d568fb" height="93" stroke="#e6e6e6" width="4" x="259.5" y="112.5"/>
<rect fill="#d568fb" height="74" stroke="#e6e6e6" width="34" x="225.5" y="112.5"/>
<rect fill="#d568fb" height="5" stroke="#e6e6e6" width="4" x="263.5" y="311.5"/>
<rect fill="#d568fb" height="5" stroke="#e6e6e6" width="1" x="272.5" y="311.5"/>
<rect fill="#d568fb" height="5" stroke="#e6e6e6" width="5" x="267.5" y="311.5"/>
</svg>