<?xml version="1.0" encoding="utf-8"?>
<svg height="340" id="svg" viewBox="0,0,750,300" width="900" xmlns="http://www.w3.org/2000/svg">
<g id="Layer_2">
<rect fill="#94ABF5" height="23" stroke="#FFFFFF" stroke-width="0.5" width="54.2" x="55" y="12.1"/>
<rect fill="#7F9BF5" height="23" stroke="#FFFFFF" stroke-width="0.5" width="54.2" x="55" y="35.1"/>
<rect fill="#7F9BF5" height="23" stroke="#FFFFFF" stroke-width="0.5" width="54.2" x="55" y="58.1"/>
<rect fill="#A0ACE1" height="23" stroke="#FFFFFF" stroke-width="0.5" width="54.2" x="55" y="81.1"/>
<rect fill="#94ABF5" height="23" stroke="#FFFFFF" stroke-width="0.5" width="54.2" x="55" y="104.1"/>
<rect fill="#6E8EF5" height="23" stroke="#FFFFFF" stroke-width="0.5" width="54.2" x="55" y="127.1"/>
<rect fill="#6383EB" height="23" stroke="#FFFFFF" stroke-width="0.5" width="54.2" x="55" y="150.1"/>
<rect fill="#7F9BF5" height="23" stroke="#FFFFFF" stroke-width="0.5" width="54.2" x="55" y="173.1"/>
<rect fill="#94ABF5" height="23" stroke="#FFFFFF" stroke-width="0.5" width="54.2" x="55" y="196.1"/>
<rect fill="#6C8AEB" height="23" stroke="#FFFFFF" stroke-width="0.5" width="54.2" x="55" y="219.1"/>
<rect fill="#94ABF5" height="23" stroke="#FFFFFF" stroke-width="0.5" width="54.2" x="55" y="242.1"/>
<rect fill="#94ABF5" height="23" stroke="#FFFFFF" stroke-width="0.5" width="54.2" x="55" y="265.1"/>
<rect fill="#A0ACE1" height="23" stroke="#FFFFFF" stroke-width="0.5" width="54.2" x="109.2" y="12.1"/>
<rect fill="#7F9BF5" height="23" stroke="#FFFFFF" stroke-width="0.5" width="54.2" x="109.2" y="35.1"/>
<rect fill="#94ABF5" height="23" stroke="#FFFFFF" stroke-width="0.5" width="54.2" x="109.2" y="58.1"/>
<rect fill="#ACADCE" height="23" stroke="#FFFFFF" stroke-width="0.5" width="54.2" x="109.2" y="81.1"/>
<rect fill="#A0ACE1" height="23" stroke="#FFFFFF" stroke-width="0.5" width="54.2" x="109.2" y="104.1"/>
<rect fill="#7F9BF5" height="23" stroke="#FFFFFF" stroke-width="0.5" width="54.2" x="109.2" y="127.1"/>
<rect fill="#6E8EF5" height="23" stroke="#FFFFFF" stroke-width="0.5" width="54.2" x="109.2" y="150.1"/>
<rect fill="#94ABF5" height="23" stroke="#FFFFFF" stroke-width="0.5" width="54.2" x="109.2" y="173.1"/>
<rect fill="#94ABF5" height="23" stroke="#FFFFFF" stroke-width="0.5" width="54.2" x="109.2" y="196.1"/>
<rect fill="#7F9BF5" height="23" stroke="#FFFFFF" stroke-width="0.5" width="54.2" x="109.2" y="219.1"/>
<rect fill="#A0ACE1" height="23" stroke="#FFFFFF" stroke-width="0.5" width="54.2" x="109.2" y="242.1"/>
<rect fill="#A0ACE1" height="23" stroke="#FFFFFF" stroke-width="0.5" width="54.2" x="109.2" y="265.1"/>
<rect fill="#A0ACE1" height="23" stroke="#FFFFFF" stroke-width="0.5" width="54.2" x="163.3" y="12.1"/>
<rect fill="#94ABF5" height="23" stroke="#FFFFFF" stroke-width="0.5" width="54.2" x="163.3" y="35.1"/>
<rect fill="#A0ACE1" height="23" stroke="#FFFFFF" stroke-width="0.5" width="54.2" x="163.3" y="58.1"/>
<rect fill="#ACADCE" height="23" stroke="#FFFFFF" stroke-width="0.5" width="54.2" x="163.3" y="81.1"/>
<rect fill="#ACADCE" height="23" stroke="#FFFFFF" stroke-width="0.5" width="54.2" x="163.3" y="104.1"/>
<rect fill="#849FF5" height="23" stroke="#FFFFFF" stroke-width="0.5" width="54.2" x="163.3" y="127.1"/>
<rect fill="#94ABF5" height="23" stroke="#FFFFFF" stroke-width="0.5" width="54.2" x="163.3" y="150.1"/>
<rect fill="#ACADCE" height="23" stroke="#FFFFFF" stroke-width="0.5" width="54.2" x="163.3" y="173.1"/>
<rect fill="#A0ACE1" height="23" stroke="#FFFFFF" stroke-width="0.5" width="54.2" x="163.3" y="196.1"/>
<rect fill="#94ABF5" height="23" stroke="#FFFFFF" stroke-width="0.5" width="54.2" x="163.3" y="219.1"/>
<rect fill="#B8AEBA" height="23" stroke="#FFFFFF" stroke-width="0.5" width="54.2" x="163.3" y="242.1"/>
<rect fill="#A0ACE1" height="23" stroke="#FFFFFF" stroke-width="0.5" width="54.2" x="163.3" y="265.1"/>
<rect fill="#B8AEBA" height="23" stroke="#FFFFFF" stroke-width="0.5" width="54.2" x="217.5" y="12.1"/>
<rect fill="#A0ACE1" height="23" stroke="#FFFFFF" stroke-width="0.5" width="54.2" x="217.5" y="35.1"/>
<rect fill="#B8AEBA" height="23" stroke="#FFFFFF" stroke-width="0.5" width="54.2" x="217.5" y="58.1"/>
<rect fill="#C4AFA7" height="23" stroke="#FFFFFF" stroke-width="0.5" width="54.2" x="217.5" y="81.1"/>
<rect fill="#ACADCE" height="23" stroke="#FFFFFF" stroke-width="0.5" width="54.2" x="217.5" y="104.1"/>
<rect fill="#94ABF5" height="23" stroke="#FFFFFF" stroke-width="0.5" width="54.2" x="217.5" y="127.1"/>
<rect fill="#A0ACE1" height="23" stroke="#FFFFFF" stroke-width="0.5" width="54.2" x="217.5" y="150.1"/>
<rect fill="#C4AFA7" height="23" stroke="#FFFFFF" stroke-width="0.5" width="54.2" x="217.5" y="173.1"/>
<rect fill="#ACADCE" height="23" stroke="#FFFFFF" stroke-width="0.5" width="54.2" x="217.5" y="196.1"/>
<rect fill="#A0ACE1" height="23" stroke="#FFFFFF" stroke-width="0.5" width="54.2" x="217.5" y="219.1"/>
<rect fill="#DBB080" height="23" stroke="#FFFFFF" stroke-width="0.5" width="54.2" x="217.5" y="242.1"/>
<rect fill="#B8AEBA" height="23" stroke="#FFFFFF" stroke-width="0.5" width="54.2" x="217.5" y="265.1"/>
<rect fill="#B8AEBA" height="23" stroke="#FFFFFF" stroke-width="0.5" width="54.2" x="271.7" y="12.1"/>
<rect fill="#ACADCE" height="23" stroke="#FFFFFF" stroke-width="0.5" width="54.2" x="271.7" y="35.1"/>
<rect fill="#C4AFA7" height="23" stroke="#FFFFFF" stroke-width="0.5" width="54.2" x="271.7" y="58.1"/>
<rect fill="#C4AFA7" height="23" stroke="#FFFFFF" stroke-width="0.5" width="54.2" x="271.7" y="81.1"/>
<rect fill="#ACADCE" height="23" stroke="#FFFFFF" stroke-width="0.5" width="54.2" x="271.7" y="104.1"/>
<rect fill="#A0ACE1" height="23" stroke="#FFFFFF" stroke-width="0.5" width="54.2" x="271.7" y="127.1"/>
<rect fill="#B8AEBA" height="23" stroke="#FFFFFF" stroke-width="0.5" width="54.2" x="271.7" y="150.1"/>
<rect fill="#C4AFA7" height="23" stroke="#FFFFFF" stroke-width="0.5" width="54.2" x="271.7" y="173.1"/>
<rect fill="#C4AFA7" height="23" stroke="#FFFFFF" stroke-width="0.5" width="54.2" x="271.7" y="196.1"/>
<rect fill="#A0ACE1" height="23" stroke="#FFFFFF" stroke-width="0.5" width="54.2" x="271.7" y="219.1"/>
<rect fill="#E7B16C" height="23" stroke="#FFFFFF" stroke-width="0.5" width="54.2" x="271.7" y="242.1"/>
<rect fill="#B8AEBA" height="23" stroke="#FFFFFF" stroke-width="0.5" width="54.2" x="271.7" y="265.1"/>
<rect fill="#C4AFA7" height="23" stroke="#FFFFFF" stroke-width="0.5" width="54.2" x="325.8" y="12.1"/>
<rect fill="#B8AEBA" height="23" stroke="#FFFFFF" stroke-width="0.5" width="54.2" x="325.8" y="35.1"/>
<rect fill="#CFAF93" height="23" stroke="#FFFFFF" stroke-width="0.5" width="54.2" x="325.8" y="58.1"/>
<rect fill="#E7B16C" height="23" stroke="#FFFFFF" stroke-width="0.5" width="54.2" x="325.8" y="81.1"/>
<rect fill="#C4AFA7" height="23" stroke="#FFFFFF" stroke-width="0.5" width="54.2" x="325.8" y="104.1"/>
<rect fill="#B8AEBA" height="23" stroke="#FFFFFF" stroke-width="0.5" width="54.2" x="325.8" y="127.1"/>
<rect fill="#CFAF93" height="23" stroke="#FFFFFF" stroke-width="0.5" width="54.2" x="325.8" y="150.1"/>
<rect fill="#E7B16C" height="23" stroke="#FFFFFF" stroke-width="0.5" width="54.2" x="325.8" y="173.1"/>
<rect fill="#C4AFA7" height="23" stroke="#FFFFFF" stroke-width="0.5" width="54.2" x="325.8" y="196.1"/>
<rect fill="#ACADCE" height="23" stroke="#FFFFFF" stroke-width="0.5" width="54.2" x="325.8" y="219.1"/>
<rect fill="#E7B16C" height="23" stroke="#FFFFFF" stroke-width="0.5" width="54.2" x="325.8" y="242.1"/>
<rect fill="#C4AFA7" height="23" stroke="#FFFFFF" stroke-width="0.5" width="54.2" x="325.8" y="265.1"/>
<rect fill="#E7B16C" height="23" stroke="#FFFFFF" stroke-width="0.5" width="54.2" x="380" y="12.1"/>
<rect fill="#DBB080" height="23" stroke="#FFFFFF" stroke-width="0.5" width="54.2" x="380" y="35.1"/>
<rect fill="#F3B259" height="23" stroke="#FFFFFF" stroke-width="0.5" width="54.2" x="380" y="58.1"/>
<rect fill="#FFB345" height="23" stroke="#FFFFFF" stroke-width="0.5" width="54.2" x="380" y="81.1"/>
<rect fill="#CFAF93" height="23" stroke="#FFFFFF" stroke-width="0.5" width="54.2" x="380" y="104.1"/>
<rect fill="#B8AEBA" height="23" stroke="#FFFFFF" stroke-width="0.5" width="54.2" x="380" y="127.1"/>
<rect fill="#DBB080" height="23" stroke="#FFFFFF" stroke-width="0.5" width="54.2" x="380" y="150.1"/>
<rect fill="#F3B259" height="23" stroke="#FFFFFF" stroke-width="0.5" width="54.2" x="380" y="173.1"/>
<rect fill="#CFAF93" height="23" stroke="#FFFFFF" stroke-width="0.5" width="54.2" x="380" y="196.1"/>
<rect fill="#B8AEBA" height="23" stroke="#FFFFFF" stroke-width="0.5" width="54.2" x="380" y="219.1"/>
<rect fill="#FFB345" height="23" stroke="#FFFFFF" stroke-width="0.5" width="54.2" x="380" y="242.1"/>
<rect fill="#DBB080" height="23" stroke="#FFFFFF" stroke-width="0.5" width="54.2" x="380" y="265.1"/>
<rect fill="#C4AFA7" height="23" stroke="#FFFFFF" stroke-width="0.5" width="54.2" x="434.2" y="12.1"/>
<rect fill="#CFAF93" height="23" stroke="#FFFFFF" stroke-width="0.5" width="54.2" x="434.2" y="35.1"/>
<rect fill="#DBB080" height="23" stroke="#FFFFFF" stroke-width="0.5" width="54.2" x="434.2" y="58.1"/>
<rect fill="#F3B259" height="23" stroke="#FFFFFF" stroke-width="0.5" width="54.2" x="434.2" y="81.1"/>
<rect fill="#CFAF93" height="23" stroke="#FFFFFF" stroke-width="0.5" width="54.2" x="434.2" y="104.1"/>
<rect fill="#B8AEBA" height="23" stroke="#FFFFFF" stroke-width="0.5" width="54.2" x="434.2" y="127.1"/>
<rect fill="#C4AFA7" height="23" stroke="#FFFFFF" stroke-width="0.5" width="54.2" x="434.2" y="150.1"/>
<rect fill="#DBB080" height="23" stroke="#FFFFFF" stroke-width="0.5" width="54.2" x="434.2" y="173.1"/>
<rect fill="#C4AFA7" height="23" stroke="#FFFFFF" stroke-width="0.5" width="54.2" x="434.2" y="196.1"/>
<rect fill="#ACADCE" height="23" stroke="#FFFFFF" stroke-width="0.5" width="54.2" x="434.2" y="219.1"/>
<rect fill="#F3B259" height="23" stroke="#FFFFFF" stroke-width="0.5" width="54.2" x="434.2" y="242.1"/>
<rect fill="#CFAF93" height="23" stroke="#FFFFFF" stroke-width="0.5" width="54.2" x="434.2" y="265.1"/>
<rect fill="#B8AEBA" height="23" stroke="#FFFFFF" stroke-width="0.5" width="54.2" x="488.3" y="12.1"/>
<rect fill="#B8AEBA" height="23" stroke="#FFFFFF" stroke-width="0.5" width="54.2" x="488.3" y="35.1"/>
<rect fill="#C4AFA7" height="23" stroke="#FFFFFF" stroke-width="0.5" width="54.2" x="488.3" y="58.1"/>
<rect fill="#DBB080" height="23" stroke="#FFFFFF" stroke-width="0.5" width="54.2" x="488.3" y="81.1"/>
<rect fill="#B8AEBA" height="23" stroke="#FFFFFF" stroke-width="0.5" width="54.2" x="488.3" y="104.1"/>
<rect fill="#ACADCE" height="23" stroke="#FFFFFF" stroke-width="0.5" width="54.2" x="488.3" y="127.1"/>
<rect fill="#B8AEBA" height="23" stroke="#FFFFFF" stroke-width="0.5" width="54.2" x="488.3" y="150.1"/>
<rect fill="#C4AFA7" height="23" stroke="#FFFFFF" stroke-width="0.5" width="54.2" x="488.3" y="173.1"/>
<rect fill="#B8AEBA" height="23" stroke="#FFFFFF" stroke-width="0.5" width="54.2" x="488.3" y="196.1"/>
<rect fill="#ACADCE" height="23" stroke="#FFFFFF" stroke-width="0.5" width="54.2" x="488.3" y="219.1"/>
<rect fill="#DBB080" height="23" stroke="#FFFFFF" stroke-width="0.5" width="54.2" x="488.3" y="242.1"/>
<rect fill="#B8AEBA" height="23" stroke="#FFFFFF" stroke-width="0.5" width="54.2" x="488.3" y="265.1"/>
<rect fill="#ACADCE" height="23" stroke="#FFFFFF" stroke-width="0.5" width="54.2" x="542.5" y="12.1"/>
<rect fill="#A0ACE1" height="23" stroke="#FFFFFF" stroke-width="0.5" width="54.2" x="542.5" y="35.1"/>
<rect fill="#ACADCE" height="23" stroke="#FFFFFF" stroke-width="0.5" width="54.2" x="542.5" y="58.1"/>
<rect fill="#C4AFA7" height="23" stroke="#FFFFFF" stroke-width="0.5" width="54.2" x="542.5" y="81.1"/>
<rect fill="#ACADCE" height="23" stroke="#FFFFFF" stroke-width="0.5" width="54.2" x="542.5" y="104.1"/>
<rect fill="#A0ACE1" height="23" stroke="#FFFFFF" stroke-width="0.5" width="54.2" x="542.5" y="127.1"/>
<rect fill="#94ABF5" height="23" stroke="#FFFFFF" stroke-width="0.5" width="54.2" x="542.5" y="150.1"/>
<rect fill="#ACADCE" height="23" stroke="#FFFFFF" stroke-width="0.5" width="54.2" x="542.5" y="173.1"/>
<rect fill="#A0ACE1" height="23" stroke="#FFFFFF" stroke-width="0.5" width="54.2" x="542.5" y="196.1"/>
<rect fill="#94ABF5" height="23" stroke="#FFFFFF" stroke-width="0.5" width="54.2" x="542.5" y="219.1"/>
<rect fill="#C4AFA7" height="23" stroke="#FFFFFF" stroke-width="0.5" width="54.2" x="542.5" y="242.1"/>
<rect fill="#B8AEBA" height="23" stroke="#FFFFFF" stroke-width="0.5" width="54.2" x="542.5" y="265.1"/>
<rect fill="#A0ACE1" height="23" stroke="#FFFFFF" stroke-width="0.5" width="54.2" x="596.7" y="12.1"/>
<rect fill="#94ABF5" height="23" stroke="#FFFFFF" stroke-width="0.5" width="54.2" x="596.7" y="35.1"/>
<rect fill="#ACADCE" height="23" stroke="#FFFFFF" stroke-width="0.5" width="54.2" x="596.7" y="58.1"/>
<rect fill="#ACADCE" height="23" stroke="#FFFFFF" stroke-width="0.5" width="54.2" x="596.7" y="81.1"/>
<rect fill="#A0ACE1" height="23" stroke="#FFFFFF" stroke-width="0.5" width="54.2" x="596.7" y="104.1"/>
<rect fill="#94ABF5" height="23" stroke="#FFFFFF" stroke-width="0.5" width="54.2" x="596.7" y="127.1"/>
<rect fill="#849FF5" height="23" stroke="#FFFFFF" stroke-width="0.5" width="54.2" x="596.7" y="150.1"/>
<rect fill="#A0ACE1" height="23" stroke="#FFFFFF" stroke-width="0.5" width="54.2" x="596.7" y="173.1"/>
<rect fill="#94ABF5" height="23" stroke="#FFFFFF" stroke-width="0.5" width="54.2" x="596.7" y="196.1"/>
<rect fill="#94ABF5" height="23" stroke="#FFFFFF" stroke-width="0.5" width="54.2" x="596.7" y="219.1"/>
<rect fill="#ACADCE" height="23" stroke="#FFFFFF" stroke-width="0.5" width="54.2" x="596.7" y="242.1"/>
<rect fill="#A0ACE1" height="23" stroke="#FFFFFF" stroke-width="0.5" width="54.2" x="596.7" y="265.1"/>
<rect fill="#A0ACE1" height="23" stroke="#FFFFFF" stroke-width="0.5" width="54.2" x="650.8" y="12.1"/>
<rect fill="#7F9BF5" height="23" stroke="#FFFFFF" stroke-width="0.5" width="54.2" x="650.8" y="35.1"/>
<rect fill="#94ABF5" height="23" stroke="#FFFFFF" stroke-width="0.5" width="54.2" x="650.8" y="58.1"/>
<rect fill="#ACADCE" height="23" stroke="#FFFFFF" stroke-width="0.5" width="54.2" x="650.8" y="81.1"/>
<rect fill="#A0ACE1" height="23" stroke="#FFFFFF" stroke-width="0.5" width="54.2" x="650.8" y="104.1"/>
<rect fill="#849FF5" height="23" stroke="#FFFFFF" stroke-width="0.5" width="54.2" x="650.8" y="127.1"/>
<rect fill="#7F9BF5" height="23" stroke="#FFFFFF" stroke-width="0.5" width="54.2" x="650.8" y="150.1"/>
<rect fill="#94ABF5" height="23" stroke="#FFFFFF" stroke-width="0.5" width="54.2" x="650.8" y="173.1"/>
<rect fill="#94ABF5" height="23" stroke="#FFFFFF" stroke-width="0.5" width="54.2" x="650.8" y="196.1"/>
<rect fill="#7F9BF5" height="23" stroke="#FFFFFF" stroke-width="0.5" width="54.2" x="650.8" y="219.1"/>
<rect fill="#94ABF5" height="23" stroke="#FFFFFF" stroke-width="0.5" width="54.2" x="650.8" y="242.1"/>
<rect fill="#94ABF5" height="23" stroke="#FFFFFF" stroke-width="0.5" width="54.2" x="650.8" y="265.1"/>
</g>
</svg>