<?xml version="1.0" encoding="utf-8"?>
<svg height="340" id="svg" viewBox="0,0,750,300" width="900" xmlns="http://www.w3.org/2000/svg">
<rect fill="#ef2f1a" height="53.3" stroke="#FFFFFF" width="131.3" x="509.6" y="22.5"/>
<rect fill="#ef2f1a" height="67.3" stroke="#FFFFFF" width="66.6" x="640.9" y="22.5"/>
<rect fill="#f02f6d" height="27.5" stroke="#FFFFFF" width="196.9" x="312.7" y="73.6"/>
<rect fill="#ef2f1a" height="52.5" opacity="1" stroke="#FFFFFF" width="196.9" x="312.7" y="22.4"/>
<rect fill="#d4c8e9" height="78.3" stroke="#FFFFFF" width="66.6" x="640.9" y="154"/>
<rect fill="#f02f6d" height="65.5" stroke="#FFFFFF" width="66.6" x="640.9" y="88.5"/>
<rect fill="#ef2f1a" height="13.6" stroke="#FFFFFF" width="262.5" x="50.1" y="22.5"/>
<rect fill="#d4c8e9" height="78.3" stroke="#FFFFFF" width="131.3" x="509.6" y="127.9"/>
<rect fill="#f02f6d" height="52.2" stroke="#FFFFFF" width="131.3" x="509.6" y="75.7"/>
<rect fill="#d4c8e9" height="78.3" stroke="#FFFFFF" width="196.9" x="312.7" y="101.8"/>
<rect fill="#d4c8e9" height="64.9" stroke="#FFFFFF" width="262.5" x="50.1" y="63"/>
<rect fill="#f02f6d" height="27.2" stroke="#FFFFFF" width="262.5" x="50.1" y="35.8"/>
<rect fill="#328ce0" height="52.2" stroke="#FFFFFF" width="67.5" x="640" y="232.3"/>
<rect fill="#328ce0" height="104.4" stroke="#FFFFFF" width="196.9" x="312.7" y="180.1"/>
<rect fill="#328ce0" height="78.3" stroke="#FFFFFF" width="131.3" x="509.6" y="206.2"/>
<rect fill="#328ce0" height="156.6" stroke="#FFFFFF" width="262.5" x="50.1" y="127.9"/>
</svg>