<?xml version="1.0" encoding="utf-8"?>
<svg height="340" id="svg" viewBox="0,0,750,300" width="900" xmlns="http://www.w3.org/2000/svg">
<polygon fill="#FFCD21" opacity="0.7" points="707.3,88 480.3,115.7 480.3,110.7 707.3,83  "/>
<polygon fill="#FFCD21" opacity="0.7" points="707.3,176.2 480.3,119.5 480.3,116 707.3,172.8  "/>
<polygon fill="#FFCD21" opacity="0.7" points="707.5,98.5 480.5,175.9 480.5,164.7 707.5,87.3  "/>
<rect fill="#FFCD21" height="6.5" opacity="0.7" width="227" x="480.5" y="176.1"/>
<polygon fill="#FFCD21" opacity="0.7" points="707.5,252.2 480.5,189.3 480.5,182.7 707.5,245.7  "/>
<polygon fill="#FFCD21" opacity="0.7" points="707.2,106.2 480.2,198.3 480.2,190.4 707.2,98.3  "/>
<polygon fill="#FFCD21" opacity="0.7" points="707.2,186.8 480.2,202.9 480.2,198.4 707.2,182.3  "/>
<polygon fill="#FFCD21" opacity="0.7" points="707.2,255.5 480.2,206.7 480.2,203.3 707.2,252.1  "/>
<polygon fill="#FFCD21" opacity="0.7" points="707.2,119.2 480.2,256.6 480.2,244.1 707.2,106.7  "/>
<polygon fill="#FFCD21" opacity="0.7" points="707.2,212.5 480.2,281.3 480.2,256.1 707.2,187.3  "/>
<rect fill="#FFCD21" height="6.5" opacity="0.7" width="227" x="479.8" y="296.1"/>
<polygon fill="#FFCD21" opacity="0.7" points="706.8,258.8 479.8,296.9 479.8,294.6 706.8,255.5  "/>
<polygon fill="#FFCD21" opacity="0.7" points="479,120 252,163.7 252,153.8 479,110.2  "/>
<rect fill="#FFCD21" height="27" opacity="0.7" width="227" x="24.5" y="276"/>
<rect fill="#FFCD21" height="7.5" opacity="0.7" width="227" x="251.5" y="294.7"/>
<rect fill="#FFCD21" height="26" opacity="0.7" width="227" x="252.5" y="164.5"/>
<polygon fill="#FFCD21" opacity="0.7" points="479.5,283 252.5,230.5 252.5,191.5 479.5,244  "/>
<polygon fill="#FFCD21" opacity="0.7" points="479.5,207.5 252.5,294 252.5,276 479.5,189.5  "/>
<polygon fill="#FFCD21" opacity="0.7" points="251.5,232.5 24.5,276.5 24.5,197.5 251.5,153.5  "/>
<rect fill="#FF0000" height="138" opacity="0.6" width="227" x="24.5" y="15.5"/>
<polygon fill="#FF0000" opacity="0.6" points="479,161 252,141.5 252,110.5 479,130  "/>
<polygon fill="#FF0000" opacity="0.6" points="251.5,277.5 24.5,185.5 24.5,153.5 251.5,245.5  "/>
<rect fill="#FF0000" height="94.5" opacity="0.6" width="227" x="252" y="15.5"/>
<rect fill="#FF0000" height="57.5" opacity="0.6" width="227" x="480" y="15.5"/>
<polygon fill="#FF0000" opacity="0.6" points="707,82.5 480,284.7 480,281 707,78.8  "/>
<polygon fill="#FF0000" opacity="0.6" points="707,172.2 480,288.4 480,284.7 707,168.5  "/>
<polygon fill="#FF0000" opacity="0.6" points="707,245.5 480,292.2 480,288.4 707,241.8  "/>
<polygon fill="#FF0000" opacity="0.6" points="707,295.7 480,296 480,292.3 707,291.9  "/>
<polygon fill="#FF0000" opacity="0.6" points="707,79.2 480,234.7 480,232 707,76.5  "/>
<polygon fill="#FF0000" opacity="0.6" points="707,169.5 480,237.5 480,234.8 707,166.8  "/>
<polygon fill="#FF0000" opacity="0.6" points="707,243 480,240.2 480,237.5 707,240.2  "/>
<polygon fill="#FF0000" opacity="0.6" points="707,291.2 480,243 480,240.3 707,288.5  "/>
<polygon fill="#FF0000" opacity="0.6" points="707,77 480,213 480,208 707,72  "/>
<polygon fill="#FF0000" opacity="0.6" points="707,166.5 480,217 480,212.8 707,162.3  "/>
<polygon fill="#FF0000" opacity="0.6" points="707,289 480,221 480,216.8 707,284.8  "/>
<polygon fill="#FF0000" opacity="0.6" points="707,284.5 480,160.5 480,154 707,278  "/>
<polygon fill="#FF0000" opacity="0.6" points="707,240.5 480,153.5 480,147 707,234  "/>
<polygon fill="#FF0000" opacity="0.6" points="707,162.5 480,147 480,129.5 707,145  "/>
<polygon fill="#FF0000" opacity="0.6" points="707,145 480,88 480,73 707,130  "/>
<polygon fill="#FF0000" opacity="0.6" points="707,234.5 480,99 480,88 707,223.5  "/>
<polygon fill="#FF0000" opacity="0.6" points="707,278.5 480,108.4 480,99.1 707,269.1  "/>
<polygon fill="#FF0000" opacity="0.6" points="479,295.5 252,277 252,259.5 479,281.8  "/>
<polygon fill="#FF0000" opacity="0.6" points="479,243.5 252,153 252,141.5 479,232  "/>
<polygon fill="#FF0000" opacity="0.6" points="479,222 252,259.5 252,247 479,209.5  "/>
</svg>