<?xml version='1.0' encoding='UTF-8'?>
<svg xmlns="http://www.w3.org/2000/svg" width="900" height="340" viewBox="-70,-30,880,340" style="max-width: 100%; height: auto; font: 10px sans-serif;">
  <g id="Layer_1">
    <line x1="147.7" y1="244.5" x2="147.7" y2="250.5" fill="none" stroke="#666666"/>
    <polyline points="96.5,250.5 96.5,244.5 98.5,244.5 688.5,244.5  " fill="none" stroke="#666666"/>
    <line x1="196.8" y1="244.5" x2="196.8" y2="250.5" fill="none" stroke="#666666"/>
    <line x1="246" y1="244.5" x2="246" y2="250.5" fill="none" stroke="#666666"/>
    <line x1="295.2" y1="244.5" x2="295.2" y2="250.5" fill="none" stroke="#666666"/>
    <line x1="344.3" y1="244.5" x2="344.3" y2="250.5" fill="none" stroke="#666666"/>
    <line x1="393.5" y1="244.5" x2="393.5" y2="250.5" fill="none" stroke="#666666"/>
    <line x1="442.7" y1="244.5" x2="442.7" y2="250.5" fill="none" stroke="#666666"/>
    <line x1="491.8" y1="244.5" x2="491.8" y2="250.5" fill="none" stroke="#666666"/>
    <line x1="541" y1="244.5" x2="541" y2="250.5" fill="none" stroke="#666666"/>
    <line x1="590.2" y1="244.5" x2="590.2" y2="250.5" fill="none" stroke="#666666"/>
    <line x1="639.3" y1="244.5" x2="639.3" y2="250.5" fill="none" stroke="#666666"/>
    <line x1="688.5" y1="244.5" x2="688.5" y2="250.5" fill="none" stroke="#666666"/>
  </g>
  <g id="Layer_2">
    <line x1="185.5" y1="56.2" x2="580" y2="56.2" fill="none" stroke="#333333" stroke-width="2"/>
    <line x1="135.5" y1="131.4" x2="604.8" y2="131.4" fill="none" stroke="#333333" stroke-width="2"/>
    <line x1="369.5" y1="206.5" x2="662.8" y2="206.5" fill="none" stroke="#333333" stroke-width="2"/>
    <rect x="241.2" y="40" width="120.7" height="32" fill="#ff6363" stroke="#333333" stroke-width="2"/>
    <rect x="361.7" y="40" width="81.7" height="32" fill="#e1a3a3" stroke="#333333" stroke-width="2"/>
    <rect x="157.2" y="115.5" width="244.7" height="32" fill="#ff6363" stroke="#333333" stroke-width="2"/>
    <rect x="402.2" y="115.5" width="130.7" height="32" fill="#e1a3a3" stroke="#333333" stroke-width="2"/>
    <rect x="483.2" y="191.5" width="81.7" height="32" fill="#ff6363" stroke="#333333" stroke-width="2"/>
    <rect x="565.2" y="191.5" width="51.7" height="32" fill="#e1a3a3" stroke="#333333" stroke-width="2"/>
    <line x1="185" y1="47.5" x2="185" y2="65" fill="none" stroke="#333333" stroke-width="2"/>
    <line x1="134.5" y1="122.6" x2="134.5" y2="140.1" fill="none" stroke="#333333" stroke-width="2"/>
    <line x1="368.5" y1="197.8" x2="368.5" y2="215.3" fill="none" stroke="#333333" stroke-width="2"/>
    <line x1="663.2" y1="197.7" x2="663.2" y2="215.2" fill="none" stroke="#333333" stroke-width="2"/>
    <line x1="605.7" y1="122.7" x2="605.7" y2="140.2" fill="none" stroke="#333333" stroke-width="2"/>
    <line x1="579.9" y1="47.2" x2="579.9" y2="64.7" fill="none" stroke="#333333" stroke-width="2"/>
  </g>
</svg>
