<?xml version="1.0" encoding="utf-8"?>
<svg height="340" id="svg" viewBox="0,0,750,300" width="900" xmlns="http://www.w3.org/2000/svg">
<rect fill="#e25959" height="11.2" width="34" x="63.2" y="273.2"/>
<rect fill="#e25959" height="19.7" width="34" x="99.7" y="264.8"/>
<rect fill="#e25959" height="16.9" width="34" x="136.4" y="267.6"/>
<rect fill="#e25959" height="37" width="34" x="173.2" y="247.5"/>
<rect fill="#e25959" height="84.4" width="34" x="210.4" y="200.1"/>
<rect fill="#e25959" height="113.4" width="34" x="246.7" y="171"/>
<rect fill="#e25959" height="105.9" width="34" x="283.8" y="178.5"/>
<rect fill="#e25959" height="219.4" width="34" x="320.5" y="65.1"/>
<rect fill="#e25959" height="253.5" width="34" x="357.3" y="31"/>
<rect fill="#e25959" height="206.3" width="34" x="394" y="78.2"/>
<rect fill="#e25959" height="195.9" width="34" x="430.7" y="88.5"/>
<rect fill="#e25959" height="135" width="34" x="467.7" y="149.5"/>
<rect fill="#e25959" height="75" width="34" x="504.2" y="209.5"/>
<rect fill="#e25959" height="31.9" width="34" x="541.2" y="252.6"/>
<rect fill="#e25959" height="21.6" width="34" x="578" y="262.9"/>
<rect fill="#e25959" height="23.4" width="34" x="614.7" y="261"/>
<rect fill="#e25959" height="15" width="34" x="651.4" y="269.5"/>
</svg>