<?xml version='1.0' encoding='UTF-8'?>
<svg xmlns="http://www.w3.org/2000/svg" width="900" height="340" viewBox="-370,-130,880,340" style="max-width: 100%; height: auto; font: 10px sans-serif;" id="svg">
  <line x1="0" y1="0" x2="100" y2="30" id="line_11" stroke="lightgray" stroke-width="1"/>
  <line x1="0" y1="0" x2="-80" y2="50" id="line_10" stroke="lightgray" stroke-width="1"/>
  <line x1="0" y1="0" x2="120" y2="-40" id="line_9" stroke="lightgray" stroke-width="1"/>
  <line x1="0" y1="0" x2="60" y2="80" id="line_8" stroke="lightgray" stroke-width="1"/>
  <line x1="100" y1="30" x2="150" y2="10" id="line_7" stroke="lightgray" stroke-width="1"/>
  <line x1="-80" y1="50" x2="-120" y2="90" id="line_6" stroke="lightgray" stroke-width="1"/>
  <line x1="-80" y1="50" x2="-50" y2="-30" id="line_5" stroke="lightgray" stroke-width="1"/>
  <line x1="120" y1="-40" x2="180" y2="-80" id="line_4" stroke="lightgray" stroke-width="1"/>
  <line x1="60" y1="80" x2="90" y2="140" id="line_3" stroke="lightgray" stroke-width="1"/>
  <line x1="60" y1="80" x2="30" y2="130" id="line_2" stroke="lightgray" stroke-width="1"/>
  <line x1="150" y1="10" x2="200" y2="40" id="line_1" stroke="lightgray" stroke-width="1"/>
  <line x1="200" y1="40" x2="250" y2="70" id="line" stroke="lightgray" stroke-width="1"/>
  <circle cx="0" cy="0" r="30" id="circle_12" fill="#ff0101"/>
  <circle cx="100" cy="30" r="20" id="circle_11" fill="skyblue"/>
  <circle cx="-80" cy="50" r="15" id="circle_10" fill="gold"/>
  <circle cx="120" cy="-40" r="25" id="circle_9" fill="skyblue"/>
  <circle cx="60" cy="80" r="10" id="circle_8" fill="gold"/>
  <circle cx="150" cy="10" r="25" id="circle_7" fill="skyblue"/>
  <circle cx="-120" cy="90" r="20" id="circle_6" fill="gold"/>
  <circle cx="-50" cy="-30" r="10" id="circle_5" fill="skyblue"/>
  <circle cx="180" cy="-80" r="15" id="circle_4" fill="gold"/>
  <circle cx="90" cy="140" r="20" id="circle_3" fill="skyblue"/>
  <circle cx="30" cy="130" r="15" id="circle_2" fill="gold"/>
  <circle cx="200" cy="40" r="20" id="circle_1" fill="skyblue"/>
  <circle cx="250" cy="70" r="15" id="circle" fill="#ff0000"/>
</svg>
