<?xml version='1.0' encoding='UTF-8'?>
<svg xmlns="http://www.w3.org/2000/svg" width="900" height="340" viewBox="-90,-30,880,340" style="max-width: 100%; height: auto; font: 10px sans-serif;">
  <g id="Layer_1">
</g>
  <g id="Layer_2">
    <polygon points="105.6,14.6 109.3,25.9 121.1,25.9 111.6,32.8 115.2,44.1 105.6,37.1 96,44.1 99.7,32.8 90.1,25.9    102,25.9  " fill="#FF0000"/>
    <polygon points="141.7,14.6 145.4,25.9 157.2,25.9 147.6,32.8 151.3,44.1 141.7,37.1 132.1,44.1 135.8,32.8    126.2,25.9 138,25.9  " fill="#FF0000"/>
    <polygon points="177,14.6 180.6,25.9 192.5,25.9 182.9,32.8 186.6,44.1 177,37.1 167.4,44.1 171.1,32.8 161.5,25.9    173.3,25.9  " fill="#FF0000"/>
    <polygon points="213.5,14.6 217.2,25.9 229,25.9 219.4,32.8 223.1,44.1 213.5,37.1 203.9,44.1 207.6,32.8 198,25.9    209.8,25.9  " fill="#FF0000"/>
    <polygon points="250.5,14.6 254.2,25.9 266,25.9 256.4,32.8 260.1,44.1 250.5,37.1 240.9,44.1 244.6,32.8 235,25.9    246.8,25.9  " fill="#FF0000"/>
    <polygon points="285.6,14.6 289.3,25.9 301.1,25.9 291.6,32.8 295.2,44.1 285.6,37.1 276,44.1 279.7,32.8 270.1,25.9    282,25.9  " fill="#FF0000"/>
    <polygon points="319.3,14.6 323,25.9 334.8,25.9 325.2,32.8 328.9,44.1 319.3,37.1 309.7,44.1 313.4,32.8 303.8,25.9    315.6,25.9  " fill="#FF0000"/>
    <polygon points="354.1,14.6 357.8,25.9 369.6,25.9 360,32.8 363.7,44.1 354.1,37.1 344.5,44.1 348.2,32.8 338.6,25.9    350.4,25.9  " fill="#FF0000"/>
    <circle cx="105.6" cy="75.2" r="13.2" fill="#FF0000"/>
    <circle cx="141.7" cy="75.2" r="13.2" fill="#FF0000"/>
    <circle cx="177" cy="75.2" r="13.2" fill="#FF0000"/>
    <circle cx="213.5" cy="75.2" r="13.2" fill="#FF0000"/>
    <circle cx="250.5" cy="75.2" r="13.2" fill="#FF0000"/>
    <circle cx="285.6" cy="75.2" r="13.2" fill="#FF0000"/>
    <circle cx="319.3" cy="75.2" r="13.2" fill="#FF0000"/>
    <ellipse cx="354.1" cy="75.2" rx="13.2" ry="13.2" fill="#FF0000"/>
    <circle cx="389.1" cy="75.2" r="13.2" fill="#FF0000"/>
    <circle cx="424.5" cy="75.2" r="13.2" fill="#FF0000"/>
    <circle cx="459.8" cy="75.2" r="13.2" fill="#FF0000"/>
    <circle cx="495.1" cy="75.2" r="13.2" fill="#FF0000"/>
    <circle cx="530.4" cy="75.2" r="13.2" fill="#FF0000"/>
    <circle cx="565.7" cy="75.2" r="13.2" fill="#FF0000"/>
    <circle cx="601" cy="75.2" r="13.2" fill="#FF0000"/>
    <circle cx="636.4" cy="75.2" r="13.2" fill="#FF0000"/>
    <circle cx="671.4" cy="75.2" r="13.2" fill="#FF0000"/>
    <polygon points="98.7,131.9 91.7,119.8 98.7,107.7 112.6,107.7 119.6,119.8 112.6,131.9  " fill="#FF0000"/>
    <polygon points="134.7,131.9 127.7,119.8 134.7,107.7 148.7,107.7 155.6,119.8 148.7,131.9  " fill="#FF0000"/>
    <polygon points="170,131.9 163,119.8 170,107.7 184,107.7 190.9,119.8 184,131.9  " fill="#FF0000"/>
    <polygon points="206.5,131.9 199.6,119.8 206.5,107.7 220.5,107.7 227.5,119.8 220.5,131.9  " fill="#FF0000"/>
    <polygon points="243.5,131.9 236.6,119.8 243.5,107.7 257.5,107.7 264.4,119.8 257.5,131.9  " fill="#FF0000"/>
    <polygon points="92.2,173.5 105.6,150.3 119.1,173.5  " opacity="0.9" fill="#FF0000"/>
    <polygon points="128.3,173.5 141.7,150.3 155.1,173.5  " opacity="0.9" fill="#FF0000"/>
    <polygon points="163.6,173.5 177,150.3 190.4,173.5  " opacity="0.9" fill="#FF0000"/>
    <polygon points="200.1,173.5 213.5,150.3 226.9,173.5  " opacity="0.9" fill="#FF0000"/>
    <polygon points="237.1,173.5 250.5,150.3 263.9,173.5  " opacity="0.9" fill="#FF0000"/>
    <polygon points="272.2,173.5 285.6,150.3 299,173.5  " opacity="0.9" fill="#FF0000"/>
    <polygon points="305.9,173.5 319.3,150.3 332.7,173.5  " opacity="0.9" fill="#FF0000"/>
    <polygon points="340.7,173.5 354.1,150.3 367.5,173.5  " opacity="0.9" fill="#FF0000"/>
    <polygon points="376.8,173.5 390.2,150.3 403.6,173.5  " opacity="0.9" fill="#FF0000"/>
    <polygon points="412.4,173.5 425.9,150.3 439.3,173.5  " opacity="0.9" fill="#FF0000"/>
    <polygon points="448.1,173.5 461.5,150.3 475,173.5  " opacity="0.9" fill="#FF0000"/>
    <polygon points="483.2,173.5 496.7,150.3 510.1,173.5  " opacity="0.9" fill="#FF0000"/>
    <rect x="92.4" y="192" width="26.5" height="26.5" fill="#FF0000"/>
    <rect x="128.4" y="192" width="26.5" height="26.5" fill="#FF0000"/>
    <rect x="163.7" y="192" width="26.5" height="26.5" fill="#FF0000"/>
    <rect x="200.3" y="192" width="26.5" height="26.5" fill="#FF0000"/>
    <rect x="237.2" y="192" width="26.5" height="26.5" fill="#FF0000"/>
    <rect x="272.4" y="192" width="26.5" height="26.5" fill="#FF0000"/>
    <rect x="306.1" y="192" width="26.5" height="26.5" fill="#FF0000"/>
    <rect x="340.8" y="192" width="26.5" height="26.5" fill="#FF0000"/>
    <rect x="376.9" y="192" width="26.5" height="26.5" fill="#FF0000"/>
    <rect x="412.6" y="192" width="26.5" height="26.5" fill="#FF0000"/>
    <polygon points="105.6,232.6 108.5,242.6 118.6,240.1 111.4,247.6 118.6,255.1 108.5,252.6 105.6,262.6 102.8,252.6    92.6,255.1 99.9,247.6 92.6,240.1 102.8,242.6  " fill="#FF0000"/>
    <polygon points="141.7,232.6 144.6,242.6 154.7,240.1 147.4,247.6 154.7,255.1 144.6,252.6 141.7,262.6 138.8,252.6    128.7,255.1 135.9,247.6 128.7,240.1 138.8,242.6  " fill="#FF0000"/>
    <polygon points="177,232.6 179.9,242.6 190,240.1 182.7,247.6 190,255.1 179.9,252.6 177,262.6 174.1,252.6 164,255.1    171.2,247.6 164,240.1 174.1,242.6  " fill="#FF0000"/>
    <polygon points="213.5,232.6 216.4,242.6 226.5,240.1 219.2,247.6 226.5,255.1 216.4,252.6 213.5,262.6 210.6,252.6    200.5,255.1 207.8,247.6 200.5,240.1 210.6,242.6  " fill="#FF0000"/>
    <polygon points="250.5,232.6 253.4,242.6 263.5,240.1 256.2,247.6 263.5,255.1 253.4,252.6 250.5,262.6 247.6,252.6    237.5,255.1 244.8,247.6 237.5,240.1 247.6,242.6  " fill="#FF0000"/>
    <polygon points="285.6,232.6 288.5,242.6 298.6,240.1 291.4,247.6 298.6,255.1 288.5,252.6 285.6,262.6 282.8,252.6    272.6,255.1 279.9,247.6 272.6,240.1 282.8,242.6  " fill="#FF0000"/>
    <polygon points="319.3,232.6 322.2,242.6 332.3,240.1 325.1,247.6 332.3,255.1 322.2,252.6 319.3,262.6 316.4,252.6    306.3,255.1 313.6,247.6 306.3,240.1 316.4,242.6  " fill="#FF0000"/>
    <polygon points="354.1,232.6 357,242.6 367.1,240.1 359.8,247.6 367.1,255.1 357,252.6 354.1,262.6 351.2,252.6    341.1,255.1 348.4,247.6 341.1,240.1 351.2,242.6  " fill="#FF0000"/>
    <polygon points="97.7,300.3 92.8,285.2 105.6,275.8 118.5,285.2 113.6,300.3  " fill="#FF0000"/>
    <polygon points="133.7,300.3 128.8,285.2 141.7,275.8 154.5,285.2 149.6,300.3  " fill="#FF0000"/>
    <polygon points="169,300.3 164.1,285.2 177,275.8 189.8,285.2 184.9,300.3  " fill="#FF0000"/>
    <polygon points="205.6,300.3 200.7,285.2 213.5,275.8 226.4,285.2 221.5,300.3  " fill="#FF0000"/>
    <polygon points="242.6,300.3 237.6,285.2 250.5,275.8 263.4,285.2 258.4,300.3  " fill="#FF0000"/>
    <polygon points="277.7,300.3 272.8,285.2 285.6,275.8 298.5,285.2 293.6,300.3  " fill="#FF0000"/>
    <polygon points="311.4,300.3 306.5,285.2 319.3,275.8 332.2,285.2 327.3,300.3  " fill="#FF0000"/>
    <polygon points="346.1,300.3 341.2,285.2 354.1,275.8 366.9,285.2 362,300.3  " fill="#FF0000"/>
    <polygon points="382.2,300.3 377.3,285.2 390.2,275.8 403,285.2 398.1,300.3  " fill="#FF0000"/>
    <polygon points="417.9,300.3 413,285.2 425.9,275.8 438.7,285.2 433.8,300.3  " fill="#FF0000"/>
    <polygon points="453.6,300.3 448.7,285.2 461.6,275.8 474.4,285.2 469.5,300.3  " fill="#FF0000"/>
    <polygon points="488.7,300.3 483.8,285.2 496.7,275.8 509.5,285.2 504.6,300.3  " fill="#FF0000"/>
    <polygon points="523.6,300.3 518.7,285.2 531.6,275.8 544.4,285.2 539.5,300.3  " fill="#FF0000"/>
    <polygon points="558.2,300.3 553.3,285.2 566.1,275.8 579,285.2 574.1,300.3  " fill="#FF0000"/>
    <g>
      <path d="M72,33.5v-0.3c0-0.5,0-0.9-0.1-1.3h1.2c-0.1,0.4-0.1,0.8-0.1,1.3v0.3h4.8c0.8,0,1.3,0,1.8-0.1v1.2    c-0.5-0.1-1.1-0.1-1.8-0.1H73v1.7h4c0.8,0,1.4,0,1.9-0.1v1.2c-0.6-0.1-1.1-0.1-1.9-0.1h-4v2h5.5c0.8,0,1.4,0,1.9-0.1v1.2    c-0.6-0.1-1.2-0.1-1.9-0.1H66.3c-0.7,0-1.3,0-1.9,0.1v-1.2c0.5,0.1,1,0.1,1.8,0.1H72v-2h-3.3c-0.8,0-1.2,0-1.7,0.1v-1.2    c0.5,0.1,0.8,0.1,1.7,0.1H72v-1.7h-4.3c-0.7,1-1.4,1.7-2.3,2.4c-0.3-0.4-0.5-0.5-0.9-0.8c0.9-0.6,1.7-1.3,2.2-2    c0.6-0.9,0.9-1.4,1.2-2.3l1.1,0.4c-0.3,0.6-0.5,1-0.7,1.3H72z M68.3,31.4c-0.8,0-1.4,0-1.8,0.1c0.1-0.4,0.1-0.9,0.1-1.6v-3    c0-0.7,0-1.2-0.1-1.7c0.5,0.1,1,0.1,1.7,0.1h8.3c0.8,0,1.3,0,1.8-0.1c-0.1,0.4-0.1,0.8-0.1,1.5v3.1c0,0.8,0,1.2,0.1,1.6    c-0.4-0.1-0.9-0.1-1.8-0.1H68.3z M67.7,27.9h9.5v-1.6h-9.5V27.9z M67.7,30.5h9.5v-1.6h-9.5V30.5z" fill="#4D4D4D"/>
    </g>
    <g>
      <path d="M378.1,32.5c0-1,0.6-1.7,1.5-2.1l0,0c-0.9-0.4-1.2-1.1-1.2-1.8c0-1.2,1-2.1,2.4-2.1c1.5,0,2.3,0.9,2.3,1.9    c0,0.7-0.3,1.4-1.3,1.8v0c1,0.4,1.6,1.1,1.6,2c0,1.4-1.2,2.3-2.7,2.3C379.1,34.6,378.1,33.7,378.1,32.5z M382.3,32.5    c0-0.9-0.7-1.4-1.7-1.7c-0.9,0.3-1.4,0.9-1.4,1.6c0,0.8,0.6,1.5,1.6,1.5C381.7,33.9,382.3,33.3,382.3,32.5z M379.4,28.6    c0,0.8,0.6,1.2,1.5,1.4c0.7-0.2,1.2-0.7,1.2-1.4c0-0.6-0.4-1.3-1.3-1.3C379.9,27.3,379.4,27.9,379.4,28.6z" fill="#4D4D4D"/>
    </g>
    <g>
      <path d="M696.5,71.7L696.5,71.7l-1.4,0.7l-0.2-0.8l1.7-0.9h0.9v7.8h-1V71.7z" fill="#4D4D4D"/>
      <path d="M705.7,70.7v0.7l-3.4,7.1h-1.1l3.4-6.9v0h-3.8v-0.9H705.7z" fill="#4D4D4D"/>
    </g>
    <g>
      <path d="M278.8,116.6h-3l-0.3,2c0.2,0,0.3,0,0.6,0c0.6,0,1.2,0.1,1.7,0.4c0.6,0.3,1.1,1,1.1,2c0,1.5-1.2,2.7-2.9,2.7    c-0.9,0-1.6-0.2-1.9-0.5l0.3-0.8c0.3,0.2,1,0.4,1.7,0.4c1,0,1.8-0.6,1.8-1.7c0-1-0.7-1.7-2.2-1.7c-0.4,0-0.8,0-1.1,0.1l0.5-3.7    h3.7V116.6z" fill="#4D4D4D"/>
    </g>
    <g>
      <path d="M521.5,159.7L521.5,159.7l-1.4,0.7l-0.2-0.8l1.7-0.9h0.9v7.8h-1V159.7z" fill="#4D4D4D"/>
      <path d="M525.6,166.5v-0.6l0.8-0.8c2-1.9,2.9-2.9,2.9-4.1c0-0.8-0.4-1.5-1.5-1.5c-0.7,0-1.3,0.4-1.7,0.7l-0.3-0.7    c0.5-0.5,1.3-0.8,2.2-0.8c1.7,0,2.4,1.2,2.4,2.3c0,1.4-1,2.6-2.7,4.2l-0.6,0.6v0h3.5v0.9H525.6z" fill="#4D4D4D"/>
    </g>
    <g>
      <path d="M451.5,202.7L451.5,202.7l-1.4,0.7l-0.2-0.8l1.7-0.9h0.9v7.8h-1V202.7z" fill="#4D4D4D"/>
      <path d="M460.8,205.5c0,2.7-1,4.1-2.7,4.1c-1.5,0-2.6-1.4-2.6-4c0-2.6,1.1-4.1,2.7-4.1    C459.9,201.6,460.8,203,460.8,205.5z M456.6,205.6c0,2,0.6,3.2,1.6,3.2c1.1,0,1.6-1.3,1.6-3.2c0-1.9-0.5-3.2-1.6-3.2    C457.3,202.4,456.6,203.5,456.6,205.6z" fill="#4D4D4D"/>
    </g>
    <g>
      <path d="M376.1,249.5c0-1,0.6-1.7,1.5-2.1l0,0c-0.9-0.4-1.2-1.1-1.2-1.8c0-1.2,1-2.1,2.4-2.1c1.5,0,2.3,0.9,2.3,1.9    c0,0.7-0.3,1.4-1.3,1.8v0c1,0.4,1.6,1.1,1.6,2c0,1.4-1.2,2.3-2.7,2.3C377.1,251.6,376.1,250.7,376.1,249.5z M380.3,249.5    c0-0.9-0.7-1.4-1.7-1.7c-0.9,0.3-1.4,0.9-1.4,1.6c0,0.8,0.6,1.5,1.6,1.5C379.7,250.9,380.3,250.3,380.3,249.5z M377.4,245.6    c0,0.8,0.6,1.2,1.5,1.4c0.7-0.2,1.2-0.7,1.2-1.4c0-0.6-0.4-1.3-1.3-1.3C377.9,244.3,377.4,244.9,377.4,245.6z" fill="#4D4D4D"/>
    </g>
    <g>
      <path d="M590.5,286.7L590.5,286.7l-1.4,0.7l-0.2-0.8l1.7-0.9h0.9v7.8h-1V286.7z" fill="#4D4D4D"/>
      <path d="M597.9,293.5v-2.1h-3.6v-0.7l3.5-5h1.1v4.8h1.1v0.8h-1.1v2.1H597.9z M597.9,290.6v-2.6c0-0.4,0-0.8,0-1.2h0    c-0.2,0.5-0.4,0.8-0.6,1.2l-1.9,2.7v0H597.9z" fill="#4D4D4D"/>
    </g>
    <g>
      <path d="M64.9,85.9c0.1-0.5,0.1-1,0.1-2.2V72.3c0-0.9,0-1.5-0.1-2.2c0.8,0.1,1.3,0.1,2.2,0.1H78c0.9,0,1.5,0,2.1-0.1    C80,70.8,80,71.4,80,72.3v11.4c0,1.1,0,1.6,0.1,2.1h-1.2V85H66.1v0.9H64.9z M66.1,84h12.7V71.2H66.1V84z M69.4,78.8    c-0.7,0.6-1.1,0.9-2.3,1.6c-0.2-0.3-0.4-0.6-0.7-0.8c1.7-0.8,2.6-1.4,3.6-2.7h-1.5c-0.8,0-1.2,0-1.6,0.1v-1.1    c0.5,0.1,1,0.1,1.6,0.1h2.2c0.3-0.4,0.4-0.7,0.6-1.2h-2.4c-0.6,0-0.9,0-1.3,0.1v-1c0.3,0.1,0.7,0.1,1.3,0.1h0.5    c-0.3-0.6-0.7-1.2-1-1.7l0.9-0.3c0.6,0.9,0.8,1.3,1.2,2h1.2c0.3-0.8,0.5-1.7,0.5-2.1c0,0,0-0.1,0-0.1l1.1,0.1    c-0.1,0.4-0.1,0.4-0.2,0.7c-0.2,0.8-0.2,0.8-0.4,1.4h1.6c0.6-0.6,1-1.2,1.3-2l1,0.4c-0.7,1.1-0.8,1.2-1.1,1.6h0.8    c0.7,0,1,0,1.4-0.1v1c-0.4-0.1-0.7-0.1-1.4-0.1h-3.9c-0.2,0.5-0.4,0.9-0.6,1.2h4.9c0.7,0,1.2,0,1.6-0.1v1.1    c-0.4-0.1-0.8-0.1-1.6-0.1h-1.4c0.9,1.1,2,1.9,3.4,2.5c-0.3,0.3-0.5,0.5-0.7,0.9c-1.2-0.7-1.9-1.2-2.7-2.1c0,0.1,0,0.1,0,0.2    c0,0.1,0,0.1,0,0.3c-0.1,2.3-0.3,2.6-1.7,2.6c-0.4,0-0.7,0-1.2-0.1c0-0.4-0.1-0.6-0.2-0.9c0.4,0.1,0.9,0.1,1.4,0.1    c0.6,0,0.7-0.2,0.7-1.4h-3.7v2.6c0,0.3,0,0.4,0.1,0.5c0.2,0.2,0.8,0.2,2.2,0.2c1.8,0,2.5-0.1,2.8-0.2c0.3-0.1,0.4-0.5,0.4-1.4    c0.3,0.2,0.5,0.3,1,0.4c-0.2,2-0.4,2.1-4,2.1c-2.1,0-2.8-0.1-3.1-0.3c-0.3-0.2-0.3-0.4-0.3-1.1v-2.3L69.4,78.8z M71.1,76.8    c-0.4,0.6-0.7,0.9-1,1.3c0.4,0,0.6,0,0.8,0h2.7c0.7,0,1.2,0,1.6-0.1c-0.3-0.3-0.5-0.5-1-1.3H71.1z" fill="#4D4D4D"/>
    </g>
    <g>
      <path d="M33.5,120.8c-0.1,0.2-0.1,0.2-0.2,0.5c-1.1,3.3-2.7,6.1-4.8,8.2c-0.3-0.4-0.6-0.6-1.1-0.9    c1.7-1.5,3.2-3.7,4.1-6.2c0.3-0.9,0.6-1.7,0.7-2.2L33.5,120.8z M41.5,117.2c0.9,0,1.5,0,2.1-0.1v1.4c-0.1,0-0.3,0-0.3,0    c-0.5-0.1-0.5-0.1-1.8-0.1H29.8c-0.9,0-1.5,0-2.1,0.1V117c0.6,0.1,1.3,0.1,2.1,0.1h5.6c-0.5-1.1-1-1.9-1.9-3.1l1.1-0.6    c1.1,1.5,1.4,2.1,2.2,3.7H41.5z M38.8,120.4c2.1,3.6,3.6,6.2,4.8,8.5l-1.2,0.8c-1.6-3.1-3.2-6.1-4.7-8.7L38.8,120.4z" fill="#4D4D4D"/>
      <path d="M48.5,121.8h-1.2c-0.6,0-0.9,0-1.3,0.1v-1.2c0.4,0.1,0.7,0.1,1.4,0.1h1c0.6,0,0.9,0,1.4-0.1    c-0.1,0.5-0.1,1-0.1,1.8v3.6c0.1,0.1,0.3,0.2,0.5,0.5c1.2,1.4,2.1,1.6,6.3,1.6c2.7,0,4.7-0.1,6.3-0.3c-0.3,0.6-0.3,0.7-0.4,1.3    c-1.8,0.1-3.7,0.1-6.3,0.1c-1.2,0-2.7-0.1-3.5-0.2c-0.8-0.1-1.5-0.3-2.1-0.8c-0.3-0.2-0.3-0.2-1-1c-0.1-0.2-0.3-0.3-0.5-0.3    c-0.4,0-1.4,1-2.4,2.3l-0.8-0.9c1.2-1.3,2.1-2,2.8-2.3V121.8z M47.6,114c1.3,1.2,1.8,1.8,2.9,3.2l-0.9,0.8c-1.1-1.5-1.5-2-2.8-3.3    L47.6,114z M59.9,116.8c1,0,1.4,0,1.8-0.1c-0.1,0.4-0.1,1-0.1,1.9c-0.1,2.8-0.3,5-0.5,6.1c-0.3,1.4-0.8,1.9-1.9,1.9    c-0.7,0-1.6-0.1-2.9-0.3c-0.1-0.6-0.1-0.9-0.3-1.3c1.2,0.3,2.3,0.4,2.9,0.4c0.8,0,1-0.4,1.2-2.6c0.1-1.2,0.2-2.6,0.3-5h-4.2    c-0.3,2.4-0.6,3.8-1.4,5.1c-0.7,1.4-1.6,2.3-3.3,3.5c-0.3-0.4-0.5-0.6-0.8-1c1.6-1,2.4-1.8,3.1-3.1c0.8-1.3,1.1-2.5,1.3-4.7h-1.9    c-0.8,0-1.4,0-1.9,0.1v-1.3c0.5,0.1,1.1,0.1,1.9,0.1h2c0.1-0.6,0.1-0.9,0.1-1.8c0-0.7,0-0.9-0.1-1.3h1.4c-0.1,0.5-0.1,0.8-0.1,2    c0,0.2,0,0.5-0.1,1H59.9z" fill="#4D4D4D"/>
      <path d="M72,119.9h0.6c0.8,0,1.1,0,1.6-0.1v1.3c-0.4-0.1-0.8-0.1-1.6-0.1H72v6.8c0,0.8,0,1.4,0.1,1.9l-1.3,0    c0.1-0.6,0.1-1.1,0.1-1.9V121h-2.7c-0.1,4.1-0.9,6.4-3,8.7c-0.3-0.4-0.5-0.5-1-0.8c2-1.9,2.7-4.1,2.8-7.9h-0.7    c-0.7,0-1.2,0-1.6,0.1v-1.3c0.5,0.1,0.9,0.1,1.6,0.1h0.7v-4.5h-0.5c-0.7,0-1.1,0-1.5,0.1v-1.2c0.5,0.1,1,0.1,1.6,0.1h5.7    c0.7,0,1.1,0,1.6-0.1v1.2c-0.5-0.1-0.8-0.1-1.5-0.1H72V119.9z M68.2,115.4v4.5h2.7v-4.5H68.2z M81.2,123.7    c-0.4,0.4-0.4,0.4-1.2,1.4c-0.8,0.9-1.9,1.9-3.1,2.8c-1,0.8-1.9,1.2-3.2,1.9c-0.2-0.4-0.4-0.6-0.7-1c2.2-0.9,4.1-2.2,5.9-4.1    c0.5-0.6,1-1.3,1.3-1.7L81.2,123.7z M79.9,114.4c-0.2,0.2-0.4,0.3-1,0.9c-1.7,1.6-3,2.5-4.7,3.4c-0.2-0.4-0.4-0.7-0.7-1    c1.6-0.7,2.8-1.5,4.2-2.8c0.7-0.7,1-1,1.2-1.3L79.9,114.4z M80.5,119c-0.3,0.2-0.4,0.3-0.8,0.7c-1.7,1.8-3.4,3.1-5.5,4.2    c-0.3-0.5-0.4-0.7-0.7-1.1c1.7-0.7,3.1-1.6,4.6-3.1c0.6-0.6,1.1-1.1,1.4-1.6L80.5,119z" fill="#4D4D4D"/>
    </g>
    <g>
      <path d="M43.4,171.5c-0.6-0.1-1.1-0.1-2.1-0.1H30.1c-1,0-1.6,0-2.2,0.1v-1.4c0.6,0.1,1.2,0.1,2.2,0.1h11.2    c0.9,0,1.5,0,2.1-0.1V171.5z M29.3,157.8c0.5,0.1,1.1,0.1,2.1,0.1h8.6c1,0,1.6,0,2.2-0.1v1.4c-0.6-0.1-1.2-0.1-2.2-0.1h-8.6    c-1,0-1.5,0-2.1,0.1V157.8z M30.4,163.6c0.5,0.1,1,0.1,1.9,0.1h6.9c0.9,0,1.4,0,1.9-0.1v1.4c-0.6-0.1-1-0.1-1.9-0.1h-6.9    c-0.9,0-1.4,0-1.9,0.1V163.6z" fill="#4D4D4D"/>
      <path d="M59.1,161c0.7,0,1.1,0,1.5-0.1c-0.1,0.5-0.1,0.9-0.1,1.6v8.6c0,1.1-0.5,1.4-2.3,1.4c-0.5,0-0.7,0-1.7-0.1    c0-0.5-0.1-0.7-0.3-1.2c0.8,0.1,1.7,0.2,2.3,0.2c0.7,0,0.9-0.1,0.9-0.6v-2.7h-4.4v2.5c0,0.6,0,1.2,0.1,1.8h-1.4    c0.1-0.6,0.1-1.1,0.1-1.8v-2.5h-4.4c-0.1,0.5-0.3,1.1-0.5,1.6c-0.5,1.2-0.9,1.9-1.8,2.9c-0.3-0.3-0.5-0.5-1.1-0.7    c1.2-1.2,1.7-2.1,2.1-3.5c0.3-1.2,0.5-3.1,0.5-5.6c0-0.5,0-0.7,0-1.3c-0.7,0.6-1.1,0.8-1.8,1.3c-0.2-0.4-0.3-0.5-0.7-0.9    c1.8-1,3.4-2.4,4.5-4c0.6-0.8,0.9-1.4,1-1.8l1.3,0.4c-0.1,0.2-0.2,0.3-0.4,0.6c-0.2,0.3-0.3,0.5-0.5,0.7h3.3c0.8,0,1.2,0,1.7-0.1    l0.6,0.6c-0.2,0.2-0.2,0.2-0.7,0.9c-0.5,0.6-1,1.3-1.5,1.7H59.1z M54.1,161c0.6-0.6,1.3-1.4,1.7-2.1h-4.6c-0.7,0.9-1.1,1.4-2,2.1    c0.3,0,0.5,0,0.9,0H54.1z M53.8,167.2V165h-4.1c0,0.7-0.1,1.4-0.2,2.2H53.8z M49.7,162v1.5c0,0.3,0,0.3,0,0.5h4.1v-2H49.7z     M54.9,164h4.4v-2h-4.4V164z M54.9,165v2.2h4.4V165H54.9z" fill="#4D4D4D"/>
      <path d="M72,162.9h0.6c0.8,0,1.1,0,1.6-0.1v1.3c-0.4-0.1-0.8-0.1-1.6-0.1H72v6.8c0,0.8,0,1.4,0.1,1.9l-1.3,0    c0.1-0.6,0.1-1.1,0.1-1.9V164h-2.7c-0.1,4.1-0.9,6.4-3,8.7c-0.3-0.4-0.5-0.5-1-0.8c2-1.9,2.7-4.1,2.8-7.9h-0.7    c-0.7,0-1.2,0-1.6,0.1v-1.3c0.5,0.1,0.9,0.1,1.6,0.1h0.7v-4.5h-0.5c-0.7,0-1.1,0-1.5,0.1v-1.2c0.5,0.1,1,0.1,1.6,0.1h5.7    c0.7,0,1.1,0,1.6-0.1v1.2c-0.5-0.1-0.8-0.1-1.5-0.1H72V162.9z M68.2,158.4v4.5h2.7v-4.5H68.2z M81.2,166.7    c-0.4,0.4-0.4,0.4-1.2,1.3c-0.8,0.9-1.9,1.9-3.1,2.8c-1,0.8-1.9,1.2-3.2,1.9c-0.2-0.4-0.4-0.6-0.7-1c2.2-0.9,4.1-2.2,5.9-4.1    c0.5-0.6,1-1.3,1.3-1.7L81.2,166.7z M79.9,157.4c-0.2,0.2-0.4,0.3-1,0.9c-1.7,1.6-3,2.5-4.7,3.4c-0.2-0.4-0.4-0.7-0.7-1    c1.6-0.7,2.8-1.5,4.2-2.8c0.7-0.7,1-1,1.2-1.3L79.9,157.4z M80.5,162c-0.3,0.2-0.4,0.3-0.8,0.7c-1.7,1.8-3.4,3.1-5.5,4.2    c-0.3-0.5-0.4-0.7-0.7-1.1c1.7-0.7,3.1-1.6,4.6-3.1c0.6-0.6,1.1-1.1,1.4-1.6L80.5,162z" fill="#4D4D4D"/>
    </g>
    <g>
      <path d="M41.5,212.8c0.9,0,1.5,0,2.1-0.1v1.4c-0.6-0.1-1.2-0.1-2.1-0.1H29.8c-0.8,0-1.5,0-2.1,0.1v-1.4    c0.6,0.1,1.1,0.1,2.1,0.1h0.9v-6.3c0-0.9,0-1.5-0.1-2.1H32c-0.1,0.6-0.1,1.2-0.1,2.1v6.3h3.6v-12.2h-5.1c-0.8,0-1.4,0-2,0.1v-1.3    c0.6,0.1,1.2,0.1,2,0.1H41c0.8,0,1.4,0,2-0.1v1.3c-0.6-0.1-1.2-0.1-2-0.1h-4.2v5.1h3.6c0.9,0,1.4,0,1.9-0.1v1.3    c-0.5-0.1-1-0.1-1.9-0.1h-3.6v5.9H41.5z" fill="#4D4D4D"/>
      <path d="M48.2,202.7c-0.9,0-1.5,0-2,0.1v-1.4c0.6,0.1,1.1,0.1,2,0.1h11.8c0.9,0,1.5,0,2.1-0.1v1.4    c-0.5-0.1-1-0.1-2-0.1h-6.8c-0.2,2.1-0.2,2.1-0.2,2.6h4.9c1,0,1.4,0,1.9-0.1c-0.1,0.4-0.1,0.6-0.1,1.3c-0.1,2.2-0.4,4.9-0.7,6.1    c-0.4,1.6-0.8,1.9-2.3,1.9c-0.6,0-1.5-0.1-2.5-0.2c-0.1-0.6-0.1-0.8-0.3-1.3c1,0.2,1.9,0.3,2.7,0.3c0.8,0,1-0.2,1.2-1.5    c0.3-1.5,0.5-3,0.6-5.5h-5.6c-0.3,1.4-0.7,2.6-1.2,3.7c-0.5,1.1-1.2,2-2.2,2.9c-0.8,0.8-1.3,1.2-2.6,1.8c-0.3-0.4-0.4-0.6-0.9-1    c1.5-0.7,2.3-1.3,3.2-2.4c1.3-1.5,2.1-3.2,2.4-5.5c0.1-0.9,0.2-1.4,0.3-3.2H48.2z M53.5,198.5c0.7,1,1,1.4,1.5,2.5l-1,0.5    c-0.5-0.9-0.9-1.7-1.4-2.4L53.5,198.5z" fill="#4D4D4D"/>
      <path d="M72,204.9h0.6c0.8,0,1.1,0,1.6-0.1v1.3c-0.4-0.1-0.8-0.1-1.6-0.1H72v6.8c0,0.8,0,1.4,0.1,1.9l-1.3,0    c0.1-0.6,0.1-1.1,0.1-1.9V206h-2.7c-0.1,4.1-0.9,6.4-3,8.7c-0.3-0.4-0.5-0.5-1-0.8c2-1.9,2.7-4.1,2.8-7.9h-0.7    c-0.7,0-1.2,0-1.6,0.1v-1.3c0.5,0.1,0.9,0.1,1.6,0.1h0.7v-4.5h-0.5c-0.7,0-1.1,0-1.5,0.1v-1.2c0.5,0.1,1,0.1,1.6,0.1h5.7    c0.7,0,1.1,0,1.6-0.1v1.2c-0.5-0.1-0.8-0.1-1.5-0.1H72V204.9z M68.2,200.4v4.5h2.7v-4.5H68.2z M81.2,208.7    c-0.4,0.4-0.4,0.4-1.2,1.4c-0.8,0.9-1.9,1.9-3.1,2.8c-1,0.8-1.9,1.2-3.2,1.9c-0.2-0.4-0.4-0.6-0.7-1c2.2-0.9,4.1-2.2,5.9-4.1    c0.5-0.6,1-1.3,1.3-1.7L81.2,208.7z M79.9,199.4c-0.2,0.2-0.4,0.3-1,0.9c-1.7,1.6-3,2.5-4.7,3.4c-0.2-0.4-0.4-0.7-0.7-1    c1.6-0.7,2.8-1.5,4.2-2.8c0.7-0.7,1-1,1.2-1.3L79.9,199.4z M80.5,204c-0.3,0.2-0.4,0.3-0.8,0.7c-1.7,1.8-3.4,3.1-5.5,4.2    c-0.3-0.5-0.4-0.7-0.7-1.1c1.7-0.7,3.1-1.6,4.6-3.1c0.6-0.6,1.1-1.1,1.4-1.6L80.5,204z" fill="#4D4D4D"/>
    </g>
    <g>
      <path d="M49,248.5v-0.3c0-0.5,0-0.9-0.1-1.3h1.2c-0.1,0.4-0.1,0.8-0.1,1.3v0.3h4.8c0.8,0,1.3,0,1.8-0.1v1.2    c-0.5-0.1-1.1-0.1-1.8-0.1h-4.8v1.7h4c0.8,0,1.4,0,1.9-0.1v1.2c-0.6-0.1-1.1-0.1-1.9-0.1h-4v2h5.5c0.8,0,1.4,0,1.9-0.1v1.2    c-0.6-0.1-1.2-0.1-1.9-0.1H43.4c-0.7,0-1.3,0-1.9,0.1v-1.2c0.5,0.1,1,0.1,1.8,0.1H49v-2h-3.3c-0.8,0-1.2,0-1.7,0.1v-1.2    c0.5,0.1,0.8,0.1,1.7,0.1H49v-1.7h-4.3c-0.7,1-1.4,1.7-2.3,2.4c-0.3-0.4-0.5-0.5-0.9-0.8c0.9-0.6,1.7-1.3,2.2-2    c0.6-0.9,0.9-1.4,1.2-2.3l1.1,0.4c-0.3,0.6-0.5,1-0.7,1.3H49z M45.3,246.4c-0.8,0-1.4,0-1.8,0.1c0.1-0.4,0.1-0.9,0.1-1.6v-3    c0-0.7,0-1.2-0.1-1.7c0.5,0.1,1,0.1,1.7,0.1h8.3c0.8,0,1.3,0,1.8-0.1c-0.1,0.4-0.1,0.8-0.1,1.5v3.1c0,0.8,0,1.2,0.1,1.6    c-0.4-0.1-0.9-0.1-1.8-0.1H45.3z M44.7,242.9h9.5v-1.6h-9.5V242.9z M44.7,245.5h9.5v-1.6h-9.5V245.5z" fill="#4D4D4D"/>
      <path d="M68.5,254.4c-1.1,0-1.4,0-2,0.1c0.2-1.4,0.3-1.7,0.5-2.4c0.5-1.1,1.2-2.1,2.3-3.1c0.6-0.5,0.7-0.6,2.8-2    c1.8-1.2,2.4-2,2.4-3.1c0-1.4-1.2-2.3-3-2.3c-1.2,0-2.1,0.4-2.6,1.2c-0.3,0.5-0.5,0.9-0.6,1.8l-1.5-0.3c0.3-1.3,0.5-1.9,1.1-2.6    c0.8-0.9,2-1.4,3.6-1.4c2.7,0,4.5,1.4,4.5,3.5c0,0.9-0.4,1.8-1.1,2.6c-0.5,0.6-1,1-3.1,2.3c-1.4,1-2,1.5-2.6,2.2    c-0.6,0.7-0.8,1.2-1,2.1H74c0.9,0,1.5,0,2.2-0.1v1.5c-0.7-0.1-1.3-0.1-2.2-0.1H68.5z" fill="#4D4D4D"/>
    </g>
    <g>
      <path d="M41.7,297.7c0.9,0,1.4,0,2-0.1v1.4c-0.6-0.1-1.2-0.1-2.1-0.1h-12c-0.8,0-1.4,0-2.1,0.1v-1.4    c0.6,0.1,1.1,0.1,2.1,0.1h2.1c0.8-2.4,1.3-4.1,1.7-6.5h-2.1c-0.8,0-1.4,0-1.8,0.1V290c0.4,0.1,1,0.1,1.8,0.1h2.2    c0.3-1.7,0.4-2.5,0.6-4.4h-3.5c-0.9,0-1.5,0-2,0.1v-1.3c0.6,0.1,1.1,0.1,2,0.1h10.2c0.9,0,1.4,0,2-0.1v1.3c-0.6-0.1-1.2-0.1-2-0.1    h-5.4c-0.2,1.8-0.3,2.9-0.6,4.4h3.6c0.9,0,1.4,0,2-0.1c-0.1,0.6-0.1,1.2-0.1,2v5.6H41.7z M39.2,291.2h-4.5c0,0.2,0,0.2-0.1,0.4    c-0.4,2-0.9,4-1.6,6h6.2V291.2z" fill="#4D4D4D"/>
      <path d="M48.5,291.8h-1.2c-0.6,0-0.9,0-1.3,0.1v-1.2c0.4,0.1,0.7,0.1,1.4,0.1h1c0.6,0,0.9,0,1.4-0.1    c-0.1,0.5-0.1,1-0.1,1.8v3.6c0.1,0.1,0.3,0.2,0.5,0.5c1.2,1.4,2.1,1.6,6.3,1.6c2.7,0,4.7-0.1,6.3-0.3c-0.3,0.6-0.3,0.7-0.4,1.3    c-1.8,0.1-3.7,0.1-6.3,0.1c-1.2,0-2.7-0.1-3.5-0.2c-0.8-0.1-1.5-0.3-2.1-0.8c-0.3-0.2-0.3-0.2-1-1c-0.1-0.2-0.3-0.3-0.5-0.3    c-0.4,0-1.4,1-2.4,2.3l-0.8-0.9c1.2-1.3,2.1-2,2.8-2.3V291.8z M47.6,284c1.3,1.2,1.8,1.8,2.9,3.2l-0.9,0.8c-1.1-1.5-1.5-2-2.8-3.3    L47.6,284z M59.9,286.8c1,0,1.4,0,1.8-0.1c-0.1,0.4-0.1,1-0.1,1.9c-0.1,2.8-0.3,5-0.5,6.1c-0.3,1.4-0.8,1.9-1.9,1.9    c-0.7,0-1.6-0.1-2.9-0.3c-0.1-0.6-0.1-0.9-0.3-1.3c1.2,0.3,2.3,0.4,2.9,0.4c0.8,0,1-0.4,1.2-2.6c0.1-1.2,0.2-2.6,0.3-5h-4.2    c-0.3,2.4-0.6,3.8-1.4,5.1c-0.7,1.4-1.6,2.3-3.3,3.5c-0.3-0.4-0.5-0.6-0.8-1c1.6-1,2.4-1.8,3.1-3.1c0.8-1.3,1.1-2.5,1.3-4.7h-1.9    c-0.8,0-1.4,0-1.9,0.1v-1.3c0.5,0.1,1.1,0.1,1.9,0.1h2c0.1-0.6,0.1-0.9,0.1-1.8c0-0.7,0-0.9-0.1-1.3h1.4c-0.1,0.5-0.1,0.8-0.1,2    c0,0.2,0,0.5-0.1,1H59.9z" fill="#4D4D4D"/>
      <path d="M72,289.9h0.6c0.8,0,1.1,0,1.6-0.1v1.3c-0.4-0.1-0.8-0.1-1.6-0.1H72v6.8c0,0.8,0,1.4,0.1,1.9l-1.3,0    c0.1-0.6,0.1-1.1,0.1-1.9V291h-2.7c-0.1,4.1-0.9,6.4-3,8.7c-0.3-0.4-0.5-0.5-1-0.8c2-1.9,2.7-4.1,2.8-7.9h-0.7    c-0.7,0-1.2,0-1.6,0.1v-1.3c0.5,0.1,0.9,0.1,1.6,0.1h0.7v-4.5h-0.5c-0.7,0-1.1,0-1.5,0.1v-1.2c0.5,0.1,1,0.1,1.6,0.1h5.7    c0.7,0,1.1,0,1.6-0.1v1.2c-0.5-0.1-0.8-0.1-1.5-0.1H72V289.9z M68.2,285.4v4.5h2.7v-4.5H68.2z M81.2,293.7    c-0.4,0.4-0.4,0.4-1.2,1.4c-0.8,0.9-1.9,1.9-3.1,2.8c-1,0.8-1.9,1.2-3.2,1.9c-0.2-0.4-0.4-0.6-0.7-1c2.2-0.9,4.1-2.2,5.9-4.1    c0.5-0.6,1-1.3,1.3-1.7L81.2,293.7z M79.9,284.4c-0.2,0.2-0.4,0.3-1,0.9c-1.7,1.6-3,2.5-4.7,3.4c-0.2-0.4-0.4-0.7-0.7-1    c1.6-0.7,2.8-1.5,4.2-2.8c0.7-0.7,1-1,1.2-1.3L79.9,284.4z M80.5,289c-0.3,0.2-0.4,0.3-0.8,0.7c-1.7,1.8-3.4,3.1-5.5,4.2    c-0.3-0.5-0.4-0.7-0.7-1.1c1.7-0.7,3.1-1.6,4.6-3.1c0.6-0.6,1.1-1.1,1.4-1.6L80.5,289z" fill="#4D4D4D"/>
    </g>
    <g>
	</g>
    <g>
	</g>
    <g>
	</g>
    <g>
	</g>
    <g>
	</g>
    <g>
	</g>
    <g>
	</g>
    <g>
	</g>
    <g>
	</g>
    <g>
	</g>
  </g>
</svg>
