<?xml version='1.0' encoding='UTF-8'?>
<svg xmlns="http://www.w3.org/2000/svg" width="900" height="auto" viewBox="-530,-100,880,340" max-width="100%" font="10px sans-serif">
  <line x1="-400" y1="180" x2="250" y2="180" stroke="#000" stroke-width="2"/>
  <line x1="-400" y1="180" x2="-400" y2="-40" stroke="#000" stroke-width="2"/>
  <rect x="-350" y="80" width="20" height="100" fill="hsl(185, 69%, 44%)"/>
  <text x="-340" y="60" text-anchor="middle" fill="hsl(17, 2%, 19%)">20</text>
  <rect x="-325" y="100" width="20" height="80" fill="hsl(356, 85%, 67%)"/>
  <text x="-315" y="80" text-anchor="middle" fill="hsl(17, 2%, 19%)">18</text>
  <text x="-337.5" y="200" text-anchor="middle" fill="hsl(351, 9%, 5%)">Product A</text>
  <rect x="-250" y="30" width="20" height="150" fill="hsl(185, 69%, 44%)"/>
  <text x="-240" y="10" text-anchor="middle" fill="hsl(17, 2%, 19%)">35</text>
  <rect x="-225" y="60" width="20" height="120" fill="hsl(356, 85%, 67%)"/>
  <text x="-215" y="40" text-anchor="middle" fill="hsl(17, 2%, 19%)">32</text>
  <text x="-237.5" y="200" text-anchor="middle" fill="hsl(351, 9%, 5%)">Product B</text>
  <rect x="-150" y="-20" width="20" height="200" fill="hsl(185, 69%, 44%)"/>
  <text x="-140" y="-40" text-anchor="middle" fill="hsl(17, 2%, 19%)">50</text>
  <rect x="-125" y="20" width="20" height="160" fill="hsl(356, 85%, 67%)"/>
  <text x="-115" y="0" text-anchor="middle" fill="hsl(17, 2%, 19%)">45</text>
  <text x="-137.5" y="200" text-anchor="middle" fill="hsl(351, 9%, 5%)">Product C</text>
  <rect x="-50" y="50" width="20" height="130" fill="hsl(185, 69%, 44%)"/>
  <text x="-40" y="30" text-anchor="middle" fill="hsl(17, 2%, 19%)">28</text>
  <rect x="-25" y="70" width="20" height="110" fill="hsl(356, 85%, 67%)"/>
  <text x="-15" y="50" text-anchor="middle" fill="hsl(17, 2%, 19%)">22</text>
  <text x="-37.5" y="200" text-anchor="middle" fill="hsl(351, 9%, 5%)">Product D</text>
  <rect x="50" y="10" width="20" height="170" fill="hsl(185, 69%, 44%)"/>
  <text x="60" y="-10" text-anchor="middle" fill="hsl(17, 2%, 19%)">38</text>
  <rect x="75" y="40" width="20" height="140" fill="hsl(356, 85%, 67%)"/>
  <text x="85" y="20" text-anchor="middle" fill="hsl(17, 2%, 19%)">34</text>
  <text x="62.5" y="200" text-anchor="middle" fill="hsl(351, 9%, 5%)">Product E</text>
  <rect x="150" y="-30" width="20" height="210" fill="hsl(185, 69%, 44%)"/>
  <text x="160" y="-50" text-anchor="middle" fill="hsl(17, 2%, 19%)">42</text>
  <rect x="175" y="-10" width="20" height="190" fill="hsl(356, 85%, 67%)"/>
  <text x="185" y="-30" text-anchor="middle" fill="hsl(17, 2%, 19%)">40</text>
  <text x="162.5" y="200" text-anchor="middle" fill="hsl(351, 9%, 5%)">Product F</text>
</svg>
