<svg width="928" height="600" viewBox="0,0,928,600" style="max-width: 100%; height: auto;" xmlns="http://www.w3.org/2000/svg" xmlns:xlink="http://www.w3.org/1999/xlink"><g><g transform="translate(42,0)"><rect x="4" y="101" width="13" height="479" fill="#d53e4f"/><rect x="18" y="89" width="13" height="491" fill="#f46d43"/><rect x="32" y="28" width="13" height="552" fill="#fdae61"/><rect x="46" y="71" width="13" height="509" fill="#fee08b"/><rect x="60" y="88" width="13" height="492" fill="#ffffbf"/><rect x="74" y="101" width="13" height="479" fill="#e6f598"/><rect x="88" y="225" width="13" height="355" fill="#abdda4"/><rect x="102" y="389" width="13" height="191" fill="#66c2a5"/><rect x="116" y="455" width="13" height="125" fill="#3288bd"/></g><g transform="translate(190,0)"><rect x="4" y="202" width="13" height="378" fill="#d53e4f"/><rect x="18" y="208" width="13" height="372" fill="#f46d43"/><rect x="32" y="205" width="13" height="375" fill="#fdae61"/><rect x="46" y="222" width="13" height="358" fill="#fee08b"/><rect x="60" y="243" width="13" height="337" fill="#ffffbf"/><rect x="74" y="262" width="13" height="318" fill="#e6f598"/><rect x="88" y="349" width="13" height="231" fill="#abdda4"/><rect x="102" y="457" width="13" height="123" fill="#66c2a5"/><rect x="116" y="510" width="13" height="70" fill="#3288bd"/></g><g transform="translate(338,0)"><rect x="4" y="370" width="13" height="210" fill="#d53e4f"/><rect x="18" y="359" width="13" height="221" fill="#f46d43"/><rect x="32" y="333" width="13" height="247" fill="#fdae61"/><rect x="46" y="350" width="13" height="230" fill="#fee08b"/><rect x="60" y="335" width="13" height="245" fill="#ffffbf"/><rect x="74" y="318" width="13" height="262" fill="#e6f598"/><rect x="88" y="352" width="13" height="228" fill="#abdda4"/><rect x="102" y="427" width="13" height="153" fill="#66c2a5"/><rect x="116" y="483" width="13" height="97" fill="#3288bd"/></g><g transform="translate(486,0)"><rect x="4" y="360" width="13" height="220" fill="#d53e4f"/><rect x="18" y="348" width="13" height="232" fill="#f46d43"/><rect x="32" y="305" width="13" height="275" fill="#fdae61"/><rect x="46" y="332" width="13" height="248" fill="#fee08b"/><rect x="60" y="331" width="13" height="249" fill="#ffffbf"/><rect x="74" y="318" width="13" height="262" fill="#e6f598"/><rect x="88" y="381" width="13" height="199" fill="#abdda4"/><rect x="102" y="470" width="13" height="110" fill="#66c2a5"/><rect x="116" y="504" width="13" height="76" fill="#3288bd"/></g><g transform="translate(634,0)"><rect x="4" y="426" width="13" height="154" fill="#d53e4f"/><rect x="18" y="417" width="13" height="163" fill="#f46d43"/><rect x="32" y="410" width="13" height="170" fill="#fdae61"/><rect x="46" y="416" width="13" height="164" fill="#fee08b"/><rect x="60" y="419" width="13" height="161" fill="#ffffbf"/><rect x="74" y="412" width="13" height="168" fill="#e6f598"/><rect x="88" y="454" width="13" height="126" fill="#abdda4"/><rect x="102" y="511" width="13" height="69" fill="#66c2a5"/><rect x="116" y="534" width="13" height="46" fill="#3288bd"/></g><g transform="translate(782,0)"><rect x="4" y="441" width="13" height="139" fill="#d53e4f"/><rect x="18" y="427" width="13" height="153" fill="#f46d43"/><rect x="32" y="417" width="13" height="163" fill="#fdae61"/><rect x="46" y="436" width="13" height="144" fill="#fee08b"/><rect x="60" y="424" width="13" height="156" fill="#ffffbf"/><rect x="74" y="401" width="13" height="179" fill="#e6f598"/><rect x="88" y="438" width="13" height="142" fill="#abdda4"/><rect x="102" y="499" width="13" height="81" fill="#66c2a5"/><rect x="116" y="522" width="13" height="58" fill="#3288bd"/></g></g><g transform="translate(0,580)" fill="none" font-size="10" font-family="sans-serif" text-anchor="middle"><g class="tick" opacity="1" transform="translate(109,0)"><line stroke="currentColor" y2="6"/><text fill="currentColor" y="9" dy="0.71em">CA</text></g><g class="tick" opacity="1" transform="translate(257,0)"><line stroke="currentColor" y2="6"/><text fill="currentColor" y="9" dy="0.71em">TX</text></g><g class="tick" opacity="1" transform="translate(405,0)"><line stroke="currentColor" y2="6"/><text fill="currentColor" y="9" dy="0.71em">FL</text></g><g class="tick" opacity="1" transform="translate(553,0)"><line stroke="currentColor" y2="6"/><text fill="currentColor" y="9" dy="0.71em">NY</text></g><g class="tick" opacity="1" transform="translate(701,0)"><line stroke="currentColor" y2="6"/><text fill="currentColor" y="9" dy="0.71em">IL</text></g><g class="tick" opacity="1" transform="translate(849,0)"><line stroke="currentColor" y2="6"/><text fill="currentColor" y="9" dy="0.71em">PA</text></g></g><g transform="translate(40,0)" fill="none" font-size="10" font-family="sans-serif" text-anchor="end"><g class="tick" opacity="1" transform="translate(0,580)"><line stroke="currentColor" x2="-6"/><text fill="currentColor" x="-9" dy="0.32em">0.0M</text></g><g class="tick" opacity="1" transform="translate(0,533)"><line stroke="currentColor" x2="-6"/><text fill="currentColor" x="-9" dy="0.32em">0.5M</text></g><g class="tick" opacity="1" transform="translate(0,485)"><line stroke="currentColor" x2="-6"/><text fill="currentColor" x="-9" dy="0.32em">1.0M</text></g><g class="tick" opacity="1" transform="translate(0,438)"><line stroke="currentColor" x2="-6"/><text fill="currentColor" x="-9" dy="0.32em">1.5M</text></g><g class="tick" opacity="1" transform="translate(0,390)"><line stroke="currentColor" x2="-6"/><text fill="currentColor" x="-9" dy="0.32em">2.0M</text></g><g class="tick" opacity="1" transform="translate(0,343)"><line stroke="currentColor" x2="-6"/><text fill="currentColor" x="-9" dy="0.32em">2.5M</text></g><g class="tick" opacity="1" transform="translate(0,295)"><line stroke="currentColor" x2="-6"/><text fill="currentColor" x="-9" dy="0.32em">3.0M</text></g><g class="tick" opacity="1" transform="translate(0,248)"><line stroke="currentColor" x2="-6"/><text fill="currentColor" x="-9" dy="0.32em">3.5M</text></g><g class="tick" opacity="1" transform="translate(0,200)"><line stroke="currentColor" x2="-6"/><text fill="currentColor" x="-9" dy="0.32em">4.0M</text></g><g class="tick" opacity="1" transform="translate(0,153)"><line stroke="currentColor" x2="-6"/><text fill="currentColor" x="-9" dy="0.32em">4.5M</text></g><g class="tick" opacity="1" transform="translate(0,105)"><line stroke="currentColor" x2="-6"/><text fill="currentColor" x="-9" dy="0.32em">5.0M</text></g><g class="tick" opacity="1" transform="translate(0,58)"><line stroke="currentColor" x2="-6"/><text fill="currentColor" x="-9" dy="0.32em">5.5M</text></g><g class="tick" opacity="1" transform="translate(0,10)"><line stroke="currentColor" x2="-6"/><text fill="currentColor" x="-9" dy="0.32em">6.0M</text></g></g></svg>