<svg viewBox="0,0,1152,480" font-family="sans-serif" font-size="10" xmlns="http://www.w3.org/2000/svg" xmlns:xlink="http://www.w3.org/1999/xlink"><g><rect fill="#377eb8" x="70" y="428" width="506" height="22"/><rect fill="#e41a1c" x="576" y="428" width="484" height="22"/><rect fill="#377eb8" x="55" y="404" width="521" height="22"/><rect fill="#e41a1c" x="576" y="404" width="499" height="22"/><rect fill="#377eb8" x="50" y="380" width="526" height="22"/><rect fill="#e41a1c" x="576" y="380" width="503" height="22"/><rect fill="#377eb8" x="32" y="356" width="544" height="22"/><rect fill="#e41a1c" x="576" y="356" width="518" height="22"/><rect fill="#377eb8" x="0" y="332" width="576" height="22"/><rect fill="#e41a1c" x="576" y="332" width="549" height="22"/><rect fill="#377eb8" x="29" y="308" width="547" height="22"/><rect fill="#e41a1c" x="576" y="308" width="533" height="22"/><rect fill="#377eb8" x="47" y="284" width="529" height="22"/><rect fill="#e41a1c" x="576" y="284" width="525" height="22"/><rect fill="#377eb8" x="83" y="260" width="493" height="22"/><rect fill="#e41a1c" x="576" y="260" width="495" height="22"/><rect fill="#377eb8" x="62" y="236" width="514" height="22"/><rect fill="#e41a1c" x="576" y="236" width="521" height="22"/><rect fill="#377eb8" x="50" y="212" width="526" height="22"/><rect fill="#e41a1c" x="576" y="212" width="537" height="22"/><rect fill="#377eb8" x="26" y="188" width="550" height="22"/><rect fill="#e41a1c" x="576" y="188" width="571" height="22"/><rect fill="#377eb8" x="70" y="164" width="506" height="22"/><rect fill="#e41a1c" x="576" y="164" width="539" height="22"/><rect fill="#377eb8" x="137" y="140" width="439" height="22"/><rect fill="#e41a1c" x="576" y="140" width="477" height="22"/><rect fill="#377eb8" x="234" y="116" width="342" height="22"/><rect fill="#e41a1c" x="576" y="116" width="382" height="22"/><rect fill="#377eb8" x="334" y="92" width="242" height="22"/><rect fill="#e41a1c" x="576" y="92" width="285" height="22"/><rect fill="#377eb8" x="406" y="68" width="170" height="22"/><rect fill="#e41a1c" x="576" y="68" width="215" height="22"/><rect fill="#377eb8" x="458" y="44" width="118" height="22"/><rect fill="#e41a1c" x="576" y="44" width="171" height="22"/><rect fill="#377eb8" x="476" y="20" width="100" height="22"/><rect fill="#e41a1c" x="576" y="20" width="196" height="22"/></g><g fill="white"><text text-anchor="start" x="74" y="439" dy="0.35em">10,175,713</text><text text-anchor="end" x="1056" y="439" dy="0.35em">9,736,305</text><text text-anchor="start" x="59" y="415" dy="0.35em">10,470,147</text><text text-anchor="end" x="1071" y="415" dy="0.35em">10,031,835</text><text text-anchor="start" x="54" y="391" dy="0.35em">10,561,873</text><text text-anchor="end" x="1075" y="391" dy="0.35em">10,117,913</text><text text-anchor="start" x="36" y="367" dy="0.35em">10,942,624</text><text text-anchor="end" x="1090" y="367" dy="0.35em">10,411,857</text><text text-anchor="start" x="4" y="343" dy="0.35em">11,576,412</text><text text-anchor="end" x="1121" y="343" dy="0.35em">11,027,820</text><text text-anchor="start" x="33" y="319" dy="0.35em">10,989,596</text><text text-anchor="end" x="1105" y="319" dy="0.35em">10,708,414</text><text text-anchor="start" x="51" y="295" dy="0.35em">10,625,791</text><text text-anchor="end" x="1097" y="295" dy="0.35em">10,557,848</text><text text-anchor="start" x="87" y="271" dy="0.35em">9,899,569</text><text text-anchor="end" x="1067" y="271" dy="0.35em">9,956,213</text><text text-anchor="start" x="66" y="247" dy="0.35em">10,330,986</text><text text-anchor="end" x="1093" y="247" dy="0.35em">10,465,142</text><text text-anchor="start" x="54" y="223" dy="0.35em">10,571,984</text><text text-anchor="end" x="1109" y="223" dy="0.35em">10,798,384</text><text text-anchor="start" x="30" y="199" dy="0.35em">11,051,409</text><text text-anchor="end" x="1143" y="199" dy="0.35em">11,474,081</text><text text-anchor="start" x="74" y="175" dy="0.35em">10,173,646</text><text text-anchor="end" x="1111" y="175" dy="0.35em">10,828,301</text><text text-anchor="start" x="141" y="151" dy="0.35em">8,824,852</text><text text-anchor="end" x="1049" y="151" dy="0.35em">9,590,829</text><text text-anchor="start" x="238" y="127" dy="0.35em">6,876,271</text><text text-anchor="end" x="954" y="127" dy="0.35em">7,671,175</text><text text-anchor="start" x="338" y="103" dy="0.35em">4,867,513</text><text text-anchor="end" x="857" y="103" dy="0.35em">5,720,208</text><text text-anchor="start" x="410" y="79" dy="0.35em">3,416,432</text><text text-anchor="end" x="787" y="79" dy="0.35em">4,313,697</text><text text-anchor="start" x="462" y="55" dy="0.35em">2,378,691</text><text text-anchor="end" x="743" y="55" dy="0.35em">3,432,738</text><text text-anchor="start" x="480" y="31" dy="0.35em">2,000,771</text><text text-anchor="end" x="768" y="31" dy="0.35em">3,937,981</text></g><text text-anchor="end" fill="white" dy="0.35em" x="572" y="439">Male</text><text text-anchor="start" fill="white" dy="0.35em" x="600" y="439">Female</text><g transform="translate(0,460)"><g fill="none" font-size="10" font-family="sans-serif" text-anchor="middle"><g class="tick" opacity="1" transform="translate(526,0)"><line stroke="currentColor" y2="6"/><text fill="currentColor" y="9" dy="0.71em">1M</text></g><g class="tick" opacity="1" transform="translate(476,0)"><line stroke="currentColor" y2="6"/><text fill="currentColor" y="9" dy="0.71em">2M</text></g><g class="tick" opacity="1" transform="translate(427,0)"><line stroke="currentColor" y2="6"/><text fill="currentColor" y="9" dy="0.71em">3M</text></g><g class="tick" opacity="1" transform="translate(377,0)"><line stroke="currentColor" y2="6"/><text fill="currentColor" y="9" dy="0.71em">4M</text></g><g class="tick" opacity="1" transform="translate(327,0)"><line stroke="currentColor" y2="6"/><text fill="currentColor" y="9" dy="0.71em">5M</text></g><g class="tick" opacity="1" transform="translate(277,0)"><line stroke="currentColor" y2="6"/><text fill="currentColor" y="9" dy="0.71em">6M</text></g><g class="tick" opacity="1" transform="translate(228,0)"><line stroke="currentColor" y2="6"/><text fill="currentColor" y="9" dy="0.71em">7M</text></g><g class="tick" opacity="1" transform="translate(178,0)"><line stroke="currentColor" y2="6"/><text fill="currentColor" y="9" dy="0.71em">8M</text></g><g class="tick" opacity="1" transform="translate(128,0)"><line stroke="currentColor" y2="6"/><text fill="currentColor" y="9" dy="0.71em">9M</text></g><g class="tick" opacity="1" transform="translate(78,0)"><line stroke="currentColor" y2="6"/><text fill="currentColor" y="9" dy="0.71em">10M</text></g><g class="tick" opacity="1" transform="translate(29,0)"><line stroke="currentColor" y2="6"/><text fill="currentColor" y="9" dy="0.71em">11M</text></g></g><g fill="none" font-size="10" font-family="sans-serif" text-anchor="middle"><g class="tick" opacity="1" transform="translate(626,0)"><line stroke="currentColor" y2="6"/><text fill="currentColor" y="9" dy="0.71em">1M</text></g><g class="tick" opacity="1" transform="translate(676,0)"><line stroke="currentColor" y2="6"/><text fill="currentColor" y="9" dy="0.71em">2M</text></g><g class="tick" opacity="1" transform="translate(725,0)"><line stroke="currentColor" y2="6"/><text fill="currentColor" y="9" dy="0.71em">3M</text></g><g class="tick" opacity="1" transform="translate(775,0)"><line stroke="currentColor" y2="6"/><text fill="currentColor" y="9" dy="0.71em">4M</text></g><g class="tick" opacity="1" transform="translate(825,0)"><line stroke="currentColor" y2="6"/><text fill="currentColor" y="9" dy="0.71em">5M</text></g><g class="tick" opacity="1" transform="translate(875,0)"><line stroke="currentColor" y2="6"/><text fill="currentColor" y="9" dy="0.71em">6M</text></g><g class="tick" opacity="1" transform="translate(924,0)"><line stroke="currentColor" y2="6"/><text fill="currentColor" y="9" dy="0.71em">7M</text></g><g class="tick" opacity="1" transform="translate(974,0)"><line stroke="currentColor" y2="6"/><text fill="currentColor" y="9" dy="0.71em">8M</text></g><g class="tick" opacity="1" transform="translate(1024,0)"><line stroke="currentColor" y2="6"/><text fill="currentColor" y="9" dy="0.71em">9M</text></g><g class="tick" opacity="1" transform="translate(1074,0)"><line stroke="currentColor" y2="6"/><text fill="currentColor" y="9" dy="0.71em">10M</text></g><g class="tick" opacity="1" transform="translate(1123,0)"><line stroke="currentColor" y2="6"/><text fill="currentColor" y="9" dy="0.71em">11M</text></g></g></g><g transform="translate(576,0)" fill="none" font-size="10" font-family="sans-serif" text-anchor="start"><path class="domain" stroke="currentColor" d="M0,460V10"/><g class="tick" opacity="1" transform="translate(0,439)"><line stroke="currentColor" x2="6"/><text fill="white" x="9" dy="0.32em">&lt;5</text></g><g class="tick" opacity="1" transform="translate(0,415)"><line stroke="currentColor" x2="6"/><text fill="white" x="9" dy="0.32em">5-9</text></g><g class="tick" opacity="1" transform="translate(0,391)"><line stroke="currentColor" x2="6"/><text fill="white" x="9" dy="0.32em">10-14</text></g><g class="tick" opacity="1" transform="translate(0,367)"><line stroke="currentColor" x2="6"/><text fill="white" x="9" dy="0.32em">15-19</text></g><g class="tick" opacity="1" transform="translate(0,343)"><line stroke="currentColor" x2="6"/><text fill="white" x="9" dy="0.32em">20-24</text></g><g class="tick" opacity="1" transform="translate(0,319)"><line stroke="currentColor" x2="6"/><text fill="white" x="9" dy="0.32em">25-29</text></g><g class="tick" opacity="1" transform="translate(0,295)"><line stroke="currentColor" x2="6"/><text fill="white" x="9" dy="0.32em">30-34</text></g><g class="tick" opacity="1" transform="translate(0,271)"><line stroke="currentColor" x2="6"/><text fill="white" x="9" dy="0.32em">35-39</text></g><g class="tick" opacity="1" transform="translate(0,247)"><line stroke="currentColor" x2="6"/><text fill="white" x="9" dy="0.32em">40-44</text></g><g class="tick" opacity="1" transform="translate(0,223)"><line stroke="currentColor" x2="6"/><text fill="white" x="9" dy="0.32em">45-49</text></g><g class="tick" opacity="1" transform="translate(0,199)"><line stroke="currentColor" x2="6"/><text fill="white" x="9" dy="0.32em">50-54</text></g><g class="tick" opacity="1" transform="translate(0,175)"><line stroke="currentColor" x2="6"/><text fill="white" x="9" dy="0.32em">55-59</text></g><g class="tick" opacity="1" transform="translate(0,151)"><line stroke="currentColor" x2="6"/><text fill="white" x="9" dy="0.32em">60-64</text></g><g class="tick" opacity="1" transform="translate(0,127)"><line stroke="currentColor" x2="6"/><text fill="white" x="9" dy="0.32em">65-69</text></g><g class="tick" opacity="1" transform="translate(0,103)"><line stroke="currentColor" x2="6"/><text fill="white" x="9" dy="0.32em">70-74</text></g><g class="tick" opacity="1" transform="translate(0,79)"><line stroke="currentColor" x2="6"/><text fill="white" x="9" dy="0.32em">75-79</text></g><g class="tick" opacity="1" transform="translate(0,55)"><line stroke="currentColor" x2="6"/><text fill="white" x="9" dy="0.32em">80-84</text></g><g class="tick" opacity="1" transform="translate(0,31)"><line stroke="currentColor" x2="6"/><text fill="white" x="9" dy="0.32em">≥85</text></g></g></svg>