<?xml version="1.0" encoding="utf-8"?>
<svg height="500" style="max-width: 100%; height: auto;" viewBox="0,0,928,500" width="928" xmlns="http://www.w3.org/2000/svg" xmlns:xlink="http://www.w3.org/1999/xlink"><g class="bars" fill="steelblue"><rect height="282.70384615384614" width="30.620689655172416" x="111.448275862069" y="187.29615384615383"/><rect height="51.64615384615388" width="30.620689655172416" x="689.8390804597702" y="418.3538461538461"/><rect height="96.30000000000001" width="30.620689655172416" x="417.65517241379314" y="373.7"/><rect height="147.21923076923076" width="30.620689655172416" x="349.60919540229895" y="322.78076923076924"/><rect height="439.6846153846153" width="30.620689655172416" x="43.40229885057474" y="30.31538461538467"/><rect height="79.19999999999999" width="30.620689655172416" x="553.7471264367816" y="390.8"/><rect height="69.75" width="30.620689655172416" x="587.7701149425288" y="400.25"/><rect height="210.9461538461539" width="30.620689655172416" x="281.56321839080465" y="259.0538461538461"/><rect height="241.13076923076923" width="30.620689655172416" x="179.49425287356325" y="228.86923076923077"/><rect height="5.296153846153857" width="30.620689655172416" x="791.9080459770116" y="464.70384615384614"/><rect height="26.723076923076917" width="30.620689655172416" x="757.8850574712645" y="443.2769230769231"/><rect height="139.3269230769231" width="30.620689655172416" x="383.63218390804604" y="330.6730769230769"/><rect height="83.28461538461539" width="30.620689655172416" x="485.70114942528744" y="386.7153846153846"/><rect height="233.61923076923074" width="30.620689655172416" x="213.51724137931038" y="236.38076923076926"/><rect height="259.85769230769233" width="30.620689655172416" x="145.47126436781613" y="210.1423076923077"/><rect height="66.77307692307693" width="30.620689655172416" x="655.8160919540231" y="403.2269230769231"/><rect height="3.288461538461604" width="30.620689655172416" x="859.9540229885059" y="466.7115384615384"/><rect height="207.2423076923077" width="30.620689655172416" x="315.58620689655174" y="262.7576923076923"/><rect height="219.0115384615385" width="30.620689655172416" x="247.54022988505753" y="250.9884615384615"/><rect height="313.4769230769231" width="30.620689655172416" x="77.42528735632186" y="156.5230769230769"/><rect height="95.46923076923076" width="30.620689655172416" x="451.67816091954035" y="374.53076923076924"/><rect height="33.85384615384618" width="30.620689655172416" x="723.8620689655173" y="436.1461538461538"/><rect height="81.69230769230774" width="30.620689655172416" x="519.7241379310345" y="388.30769230769226"/><rect height="5.192307692307679" width="30.620689655172416" x="825.9310344827587" y="464.8076923076923"/><rect height="68.33076923076925" width="30.620689655172416" x="621.7931034482759" y="401.66923076923075"/><rect height="2.5615384615384187" width="30.620689655172416" x="893.977011494253" y="467.4384615384616"/></g><g class="x-axis" fill="none" font-family="sans-serif" font-size="10" text-anchor="middle" transform="translate(0,470)"><path class="domain" d="M40.00000000000003,0H928" stroke="currentColor"/><g class="tick" opacity="1" transform="translate(58.712643678160944,0)"><line stroke="currentColor" y2="6"/><text dy="0.71em" fill="currentColor" y="9">E</text></g><g class="tick" opacity="1" transform="translate(92.73563218390807,0)"><line stroke="currentColor" y2="6"/><text dy="0.71em" fill="currentColor" y="9">T</text></g><g class="tick" opacity="1" transform="translate(126.7586206896552,0)"><line stroke="currentColor" y2="6"/><text dy="0.71em" fill="currentColor" y="9">A</text></g><g class="tick" opacity="1" transform="translate(160.78160919540235,0)"><line stroke="currentColor" y2="6"/><text dy="0.71em" fill="currentColor" y="9">O</text></g><g class="tick" opacity="1" transform="translate(194.80459770114948,0)"><line stroke="currentColor" y2="6"/><text dy="0.71em" fill="currentColor" y="9">I</text></g><g class="tick" opacity="1" transform="translate(228.8275862068966,0)"><line stroke="currentColor" y2="6"/><text dy="0.71em" fill="currentColor" y="9">N</text></g><g class="tick" opacity="1" transform="translate(262.8505747126437,0)"><line stroke="currentColor" y2="6"/><text dy="0.71em" fill="currentColor" y="9">S</text></g><g class="tick" opacity="1" transform="translate(296.87356321839087,0)"><line stroke="currentColor" y2="6"/><text dy="0.71em" fill="currentColor" y="9">H</text></g><g class="tick" opacity="1" transform="translate(330.89655172413796,0)"><line stroke="currentColor" y2="6"/><text dy="0.71em" fill="currentColor" y="9">R</text></g><g class="tick" opacity="1" transform="translate(364.9195402298852,0)"><line stroke="currentColor" y2="6"/><text dy="0.71em" fill="currentColor" y="9">D</text></g><g class="tick" opacity="1" transform="translate(398.94252873563227,0)"><line stroke="currentColor" y2="6"/><text dy="0.71em" fill="currentColor" y="9">L</text></g><g class="tick" opacity="1" transform="translate(432.96551724137936,0)"><line stroke="currentColor" y2="6"/><text dy="0.71em" fill="currentColor" y="9">C</text></g><g class="tick" opacity="1" transform="translate(466.98850574712657,0)"><line stroke="currentColor" y2="6"/><text dy="0.71em" fill="currentColor" y="9">U</text></g><g class="tick" opacity="1" transform="translate(501.01149425287366,0)"><line stroke="currentColor" y2="6"/><text dy="0.71em" fill="currentColor" y="9">M</text></g><g class="tick" opacity="1" transform="translate(535.0344827586207,0)"><line stroke="currentColor" y2="6"/><text dy="0.71em" fill="currentColor" y="9">W</text></g><g class="tick" opacity="1" transform="translate(569.0574712643678,0)"><line stroke="currentColor" y2="6"/><text dy="0.71em" fill="currentColor" y="9">F</text></g><g class="tick" opacity="1" transform="translate(603.080459770115,0)"><line stroke="currentColor" y2="6"/><text dy="0.71em" fill="currentColor" y="9">G</text></g><g class="tick" opacity="1" transform="translate(637.1034482758621,0)"><line stroke="currentColor" y2="6"/><text dy="0.71em" fill="currentColor" y="9">Y</text></g><g class="tick" opacity="1" transform="translate(671.1264367816093,0)"><line stroke="currentColor" y2="6"/><text dy="0.71em" fill="currentColor" y="9">P</text></g><g class="tick" opacity="1" transform="translate(705.1494252873564,0)"><line stroke="currentColor" y2="6"/><text dy="0.71em" fill="currentColor" y="9">B</text></g><g class="tick" opacity="1" transform="translate(739.1724137931035,0)"><line stroke="currentColor" y2="6"/><text dy="0.71em" fill="currentColor" y="9">V</text></g><g class="tick" opacity="1" transform="translate(773.1954022988507,0)"><line stroke="currentColor" y2="6"/><text dy="0.71em" fill="currentColor" y="9">K</text></g><g class="tick" opacity="1" transform="translate(807.2183908045978,0)"><line stroke="currentColor" y2="6"/><text dy="0.71em" fill="currentColor" y="9">J</text></g><g class="tick" opacity="1" transform="translate(841.2413793103449,0)"><line stroke="currentColor" y2="6"/><text dy="0.71em" fill="currentColor" y="9">X</text></g><g class="tick" opacity="1" transform="translate(875.2643678160921,0)"><line stroke="currentColor" y2="6"/><text dy="0.71em" fill="currentColor" y="9">Q</text></g><g class="tick" opacity="1" transform="translate(909.2873563218392,0)"><line stroke="currentColor" y2="6"/><text dy="0.71em" fill="currentColor" y="9">Z</text></g></g><g class="y-axis" fill="none" font-family="sans-serif" font-size="10" text-anchor="end" transform="translate(40,0)"><g class="tick" opacity="1" transform="translate(0,470)"><line stroke="currentColor" x2="-6"/><text dy="0.32em" fill="currentColor" x="-9">0.00</text></g><g class="tick" opacity="1" transform="translate(0,435.3846153846154)"><line stroke="currentColor" x2="-6"/><text dy="0.32em" fill="currentColor" x="-9">0.01</text></g><g class="tick" opacity="1" transform="translate(0,400.7692307692308)"><line stroke="currentColor" x2="-6"/><text dy="0.32em" fill="currentColor" x="-9">0.02</text></g><g class="tick" opacity="1" transform="translate(0,366.1538461538462)"><line stroke="currentColor" x2="-6"/><text dy="0.32em" fill="currentColor" x="-9">0.03</text></g><g class="tick" opacity="1" transform="translate(0,331.5384615384615)"><line stroke="currentColor" x2="-6"/><text dy="0.32em" fill="currentColor" x="-9">0.04</text></g><g class="tick" opacity="1" transform="translate(0,296.9230769230769)"><line stroke="currentColor" x2="-6"/><text dy="0.32em" fill="currentColor" x="-9">0.05</text></g><g class="tick" opacity="1" transform="translate(0,262.3076923076924)"><line stroke="currentColor" x2="-6"/><text dy="0.32em" fill="currentColor" x="-9">0.06</text></g><g class="tick" opacity="1" transform="translate(0,227.69230769230765)"><line stroke="currentColor" x2="-6"/><text dy="0.32em" fill="currentColor" x="-9">0.07</text></g><g class="tick" opacity="1" transform="translate(0,193.07692307692307)"><line stroke="currentColor" x2="-6"/><text dy="0.32em" fill="currentColor" x="-9">0.08</text></g><g class="tick" opacity="1" transform="translate(0,158.46153846153845)"><line stroke="currentColor" x2="-6"/><text dy="0.32em" fill="currentColor" x="-9">0.09</text></g><g class="tick" opacity="1" transform="translate(0,123.84615384615383)"><line stroke="currentColor" x2="-6"/><text dy="0.32em" fill="currentColor" x="-9">0.10</text></g><g class="tick" opacity="1" transform="translate(0,89.23076923076923)"><line stroke="currentColor" x2="-6"/><text dy="0.32em" fill="currentColor" x="-9">0.11</text></g><g class="tick" opacity="1" transform="translate(0,54.61538461538464)"><line stroke="currentColor" x2="-6"/><text dy="0.32em" fill="currentColor" x="-9">0.12</text></g><g class="tick" opacity="1" transform="translate(0,20)"><line stroke="currentColor" x2="-6"/><text dy="0.32em" fill="currentColor" x="-9">0.13</text></g></g></svg>