<svg width="1152" height="500" viewBox="0,0,1152,500" style="max-width: 100%; height: auto; height: intrinsic;" xmlns="http://www.w3.org/2000/svg" xmlns:xlink="http://www.w3.org/1999/xlink"><g transform="translate(40,0)" fill="none" font-size="10" font-family="sans-serif" text-anchor="end"><g class="tick" opacity="1" transform="translate(0,470)"><line stroke="currentColor" x2="-6"/><line stroke="currentColor" x2="1112" stroke-opacity="0.1"/><text fill="currentColor" x="-9" dy="0.32em">0%</text></g><g class="tick" opacity="1" transform="translate(0,434.57250826641473)"><line stroke="currentColor" x2="-6"/><line stroke="currentColor" x2="1112" stroke-opacity="0.1"/><text fill="currentColor" x="-9" dy="0.32em">1%</text></g><g class="tick" opacity="1" transform="translate(0,399.14501653282946)"><line stroke="currentColor" x2="-6"/><line stroke="currentColor" x2="1112" stroke-opacity="0.1"/><text fill="currentColor" x="-9" dy="0.32em">2%</text></g><g class="tick" opacity="1" transform="translate(0,363.71752479924425)"><line stroke="currentColor" x2="-6"/><line stroke="currentColor" x2="1112" stroke-opacity="0.1"/><text fill="currentColor" x="-9" dy="0.32em">3%</text></g><g class="tick" opacity="1" transform="translate(0,328.290033065659)"><line stroke="currentColor" x2="-6"/><line stroke="currentColor" x2="1112" stroke-opacity="0.1"/><text fill="currentColor" x="-9" dy="0.32em">4%</text></g><g class="tick" opacity="1" transform="translate(0,292.86254133207365)"><line stroke="currentColor" x2="-6"/><line stroke="currentColor" x2="1112" stroke-opacity="0.1"/><text fill="currentColor" x="-9" dy="0.32em">5%</text></g><g class="tick" opacity="1" transform="translate(0,257.43504959848843)"><line stroke="currentColor" x2="-6"/><line stroke="currentColor" x2="1112" stroke-opacity="0.1"/><text fill="currentColor" x="-9" dy="0.32em">6%</text></g><g class="tick" opacity="1" transform="translate(0,222.00755786490313)"><line stroke="currentColor" x2="-6"/><line stroke="currentColor" x2="1112" stroke-opacity="0.1"/><text fill="currentColor" x="-9" dy="0.32em">7%</text></g><g class="tick" opacity="1" transform="translate(0,186.5800661313179)"><line stroke="currentColor" x2="-6"/><line stroke="currentColor" x2="1112" stroke-opacity="0.1"/><text fill="currentColor" x="-9" dy="0.32em">8%</text></g><g class="tick" opacity="1" transform="translate(0,151.15257439773262)"><line stroke="currentColor" x2="-6"/><line stroke="currentColor" x2="1112" stroke-opacity="0.1"/><text fill="currentColor" x="-9" dy="0.32em">9%</text></g><g class="tick" opacity="1" transform="translate(0,115.72508266414735)"><line stroke="currentColor" x2="-6"/><line stroke="currentColor" x2="1112" stroke-opacity="0.1"/><text fill="currentColor" x="-9" dy="0.32em">10%</text></g><g class="tick" opacity="1" transform="translate(0,80.29759093056211)"><line stroke="currentColor" x2="-6"/><line stroke="currentColor" x2="1112" stroke-opacity="0.1"/><text fill="currentColor" x="-9" dy="0.32em">11%</text></g><g class="tick" opacity="1" transform="translate(0,44.87009919697684)"><line stroke="currentColor" x2="-6"/><line stroke="currentColor" x2="1112" stroke-opacity="0.1"/><text fill="currentColor" x="-9" dy="0.32em">12%</text></g><text x="-40" y="10" fill="currentColor" text-anchor="start">↑ Frequency</text></g><g fill="steelblue"><rect x="129.47126436781605" y="180.66367501180912" height="289.3363249881909" width="38.344827586206904"><title>A
8.2%</title></rect><rect x="853.7624521072797" y="417.1421823334908" height="52.85781766650922" width="38.344827586206904"><title>B
1.5%</title></rect><rect x="512.9195402298851" y="371.44071799716585" height="98.55928200283415" width="38.344827586206904"><title>C
2.8%</title></rect><rect x="427.7088122605364" y="319.32687765706186" height="150.67312234293814" width="38.344827586206904"><title>D
4.3%</title></rect><rect x="44.260536398467366" y="20" height="450" width="38.344827586206904"><title>E
12.7%</title></rect><rect x="683.3409961685824" y="388.94189891355694" height="81.05810108644306" width="38.344827586206904"><title>F
2.3%</title></rect><rect x="725.9463601532567" y="398.61360415682566" height="71.38639584317434" width="38.344827586206904"><title>G
2.0%</title></rect><rect x="342.4980842911877" y="254.10486537553143" height="215.89513462446857" width="38.344827586206904"><title>H
6.1%</title></rect><rect x="214.6819923371647" y="223.21209258384505" height="246.78790741615495" width="38.344827586206904"><title>I
7.0%</title></rect><rect x="981.5785440613028" y="464.57959376476146" height="5.420406235238545" width="38.344827586206904"><title>J
0.2%</title></rect><rect x="938.9731800766284" y="442.64997638167216" height="27.35002361832784" width="38.344827586206904"><title>K
0.8%</title></rect><rect x="470.3141762452107" y="327.4043457723193" height="142.5956542276807" width="38.344827586206904"><title>L
4.0%</title></rect><rect x="598.1302681992337" y="384.76145488899385" height="85.23854511100615" width="38.344827586206904"><title>M
2.4%</title></rect><rect x="257.28735632183907" y="230.89985829003308" height="239.10014170996692" width="38.344827586206904"><title>N
6.7%</title></rect><rect x="172.07662835249036" y="204.0458195559754" height="265.9541804440246" width="38.344827586206904"><title>O
7.5%</title></rect><rect x="811.1570881226054" y="401.660368445914" height="68.339631554086" width="38.344827586206904"><title>P
1.9%</title></rect><rect x="1066.7892720306513" y="466.63438828530934" height="3.365611714690658" width="38.344827586206904"><title>Q
0.1%</title></rect><rect x="385.10344827586204" y="257.89560699102503" height="212.10439300897497" width="38.344827586206904"><title>R
6.0%</title></rect><rect x="299.89272030651335" y="245.850259801606" height="224.149740198394" width="38.344827586206904"><title>S
6.3%</title></rect><rect x="86.8659003831417" y="149.16863486065182" height="320.8313651393482" width="38.344827586206904"><title>T
9.1%</title></rect><rect x="555.5249042145593" y="372.2909777987718" height="97.70902220122821" width="38.344827586206904"><title>U
2.8%</title></rect><rect x="896.3678160919541" y="435.3519130845536" height="34.64808691544641" width="38.344827586206904"><title>V
1.0%</title></rect><rect x="640.735632183908" y="386.39111950873877" height="83.60888049126123" width="38.344827586206904"><title>W
2.4%</title></rect><rect x="1024.1839080459772" y="464.68587623996217" height="5.31412376003783" width="38.344827586206904"><title>X
0.1%</title></rect><rect x="768.551724137931" y="400.06613131790266" height="69.93386868209734" width="38.344827586206904"><title>Y
2.0%</title></rect><rect x="1109.3946360153257" y="467.3783656117147" height="2.6216343882853153" width="38.344827586206904"><title>Z
0.1%</title></rect></g><g transform="translate(0,470)" fill="none" font-size="10" font-family="sans-serif" text-anchor="middle"><path class="domain" stroke="currentColor" d="M40,0H1152"/><g class="tick" opacity="1" transform="translate(63.43295019157082,0)"><line stroke="currentColor" y2="6"/><text fill="currentColor" y="9" dy="0.71em">E</text></g><g class="tick" opacity="1" transform="translate(106.03831417624517,0)"><line stroke="currentColor" y2="6"/><text fill="currentColor" y="9" dy="0.71em">T</text></g><g class="tick" opacity="1" transform="translate(148.6436781609195,0)"><line stroke="currentColor" y2="6"/><text fill="currentColor" y="9" dy="0.71em">A</text></g><g class="tick" opacity="1" transform="translate(191.24904214559382,0)"><line stroke="currentColor" y2="6"/><text fill="currentColor" y="9" dy="0.71em">O</text></g><g class="tick" opacity="1" transform="translate(233.85440613026816,0)"><line stroke="currentColor" y2="6"/><text fill="currentColor" y="9" dy="0.71em">I</text></g><g class="tick" opacity="1" transform="translate(276.4597701149425,0)"><line stroke="currentColor" y2="6"/><text fill="currentColor" y="9" dy="0.71em">N</text></g><g class="tick" opacity="1" transform="translate(319.0651340996168,0)"><line stroke="currentColor" y2="6"/><text fill="currentColor" y="9" dy="0.71em">S</text></g><g class="tick" opacity="1" transform="translate(361.6704980842911,0)"><line stroke="currentColor" y2="6"/><text fill="currentColor" y="9" dy="0.71em">H</text></g><g class="tick" opacity="1" transform="translate(404.27586206896547,0)"><line stroke="currentColor" y2="6"/><text fill="currentColor" y="9" dy="0.71em">R</text></g><g class="tick" opacity="1" transform="translate(446.8812260536398,0)"><line stroke="currentColor" y2="6"/><text fill="currentColor" y="9" dy="0.71em">D</text></g><g class="tick" opacity="1" transform="translate(489.48659003831415,0)"><line stroke="currentColor" y2="6"/><text fill="currentColor" y="9" dy="0.71em">L</text></g><g class="tick" opacity="1" transform="translate(532.0919540229886,0)"><line stroke="currentColor" y2="6"/><text fill="currentColor" y="9" dy="0.71em">C</text></g><g class="tick" opacity="1" transform="translate(574.6973180076628,0)"><line stroke="currentColor" y2="6"/><text fill="currentColor" y="9" dy="0.71em">U</text></g><g class="tick" opacity="1" transform="translate(617.3026819923372,0)"><line stroke="currentColor" y2="6"/><text fill="currentColor" y="9" dy="0.71em">M</text></g><g class="tick" opacity="1" transform="translate(659.9080459770115,0)"><line stroke="currentColor" y2="6"/><text fill="currentColor" y="9" dy="0.71em">W</text></g><g class="tick" opacity="1" transform="translate(702.5134099616859,0)"><line stroke="currentColor" y2="6"/><text fill="currentColor" y="9" dy="0.71em">F</text></g><g class="tick" opacity="1" transform="translate(745.1187739463602,0)"><line stroke="currentColor" y2="6"/><text fill="currentColor" y="9" dy="0.71em">G</text></g><g class="tick" opacity="1" transform="translate(787.7241379310345,0)"><line stroke="currentColor" y2="6"/><text fill="currentColor" y="9" dy="0.71em">Y</text></g><g class="tick" opacity="1" transform="translate(830.3295019157089,0)"><line stroke="currentColor" y2="6"/><text fill="currentColor" y="9" dy="0.71em">P</text></g><g class="tick" opacity="1" transform="translate(872.9348659003832,0)"><line stroke="currentColor" y2="6"/><text fill="currentColor" y="9" dy="0.71em">B</text></g><g class="tick" opacity="1" transform="translate(915.5402298850576,0)"><line stroke="currentColor" y2="6"/><text fill="currentColor" y="9" dy="0.71em">V</text></g><g class="tick" opacity="1" transform="translate(958.1455938697319,0)"><line stroke="currentColor" y2="6"/><text fill="currentColor" y="9" dy="0.71em">K</text></g><g class="tick" opacity="1" transform="translate(1000.7509578544062,0)"><line stroke="currentColor" y2="6"/><text fill="currentColor" y="9" dy="0.71em">J</text></g><g class="tick" opacity="1" transform="translate(1043.3563218390807,0)"><line stroke="currentColor" y2="6"/><text fill="currentColor" y="9" dy="0.71em">X</text></g><g class="tick" opacity="1" transform="translate(1085.9616858237548,0)"><line stroke="currentColor" y2="6"/><text fill="currentColor" y="9" dy="0.71em">Q</text></g><g class="tick" opacity="1" transform="translate(1128.5670498084291,0)"><line stroke="currentColor" y2="6"/><text fill="currentColor" y="9" dy="0.71em">Z</text></g></g></svg>