<svg viewBox="0,0,1152,1343" style="max-width: 100%; height: auto; font: 10px sans-serif;" xmlns="http://www.w3.org/2000/svg" xmlns:xlink="http://www.w3.org/1999/xlink"><g><rect fill="#ef8a62" x="60" y="33" width="125" height="23"/><rect fill="#ef8a62" x="148" y="58" width="37" height="23"/><rect fill="#ef8a62" x="171" y="83" width="14" height="23"/><rect fill="#ef8a62" x="183" y="108" width="2" height="23"/><rect fill="#ef8a62" x="185" y="133" width="0" height="23"/><rect fill="#67a9cf" x="185" y="158" width="2" height="23"/><rect fill="#67a9cf" x="185" y="183" width="2" height="23"/><rect fill="#67a9cf" x="185" y="208" width="4" height="23"/><rect fill="#67a9cf" x="185" y="233" width="4" height="23"/><rect fill="#67a9cf" x="185" y="258" width="5" height="23"/><rect fill="#67a9cf" x="185" y="283" width="9" height="23"/><rect fill="#67a9cf" x="185" y="308" width="10" height="23"/><rect fill="#67a9cf" x="185" y="333" width="13" height="23"/><rect fill="#67a9cf" x="185" y="358" width="14" height="23"/><rect fill="#67a9cf" x="185" y="383" width="17" height="23"/><rect fill="#67a9cf" x="185" y="408" width="18" height="23"/><rect fill="#67a9cf" x="185" y="433" width="18" height="23"/><rect fill="#67a9cf" x="185" y="458" width="19" height="23"/><rect fill="#67a9cf" x="185" y="483" width="21" height="23"/><rect fill="#67a9cf" x="185" y="508" width="22" height="23"/><rect fill="#67a9cf" x="185" y="533" width="24" height="23"/><rect fill="#67a9cf" x="185" y="558" width="24" height="23"/><rect fill="#67a9cf" x="185" y="583" width="25" height="23"/><rect fill="#67a9cf" x="185" y="608" width="25" height="23"/><rect fill="#67a9cf" x="185" y="633" width="26" height="23"/><rect fill="#67a9cf" x="185" y="658" width="26" height="23"/><rect fill="#67a9cf" x="185" y="683" width="27" height="23"/><rect fill="#67a9cf" x="185" y="708" width="29" height="23"/><rect fill="#67a9cf" x="185" y="733" width="31" height="23"/><rect fill="#67a9cf" x="185" y="758" width="32" height="23"/><rect fill="#67a9cf" x="185" y="783" width="35" height="23"/><rect fill="#67a9cf" x="185" y="808" width="36" height="23"/><rect fill="#67a9cf" x="185" y="833" width="49" height="23"/><rect fill="#67a9cf" x="185" y="858" width="52" height="23"/><rect fill="#67a9cf" x="185" y="883" width="59" height="23"/><rect fill="#67a9cf" x="185" y="908" width="64" height="23"/><rect fill="#67a9cf" x="185" y="933" width="79" height="23"/><rect fill="#67a9cf" x="185" y="958" width="90" height="23"/><rect fill="#67a9cf" x="185" y="983" width="91" height="23"/><rect fill="#67a9cf" x="185" y="1008" width="95" height="23"/><rect fill="#67a9cf" x="185" y="1033" width="104" height="23"/><rect fill="#67a9cf" x="185" y="1058" width="115" height="23"/><rect fill="#67a9cf" x="185" y="1083" width="124" height="23"/><rect fill="#67a9cf" x="185" y="1108" width="126" height="23"/><rect fill="#67a9cf" x="185" y="1133" width="172" height="23"/><rect fill="#67a9cf" x="185" y="1158" width="209" height="23"/><rect fill="#67a9cf" x="185" y="1183" width="210" height="23"/><rect fill="#67a9cf" x="185" y="1208" width="219" height="23"/><rect fill="#67a9cf" x="185" y="1233" width="225" height="23"/><rect fill="#67a9cf" x="185" y="1258" width="532" height="23"/><rect fill="#67a9cf" x="185" y="1283" width="631" height="23"/><rect fill="#67a9cf" x="185" y="1308" width="907" height="23"/></g><g font-family="sans-serif" font-size="10"><text text-anchor="end" x="56" y="44.5" dy="0.35em">−532,095</text><text text-anchor="end" x="144" y="69.5" dy="0.35em">−158,811</text><text text-anchor="end" x="167" y="94.5" dy="0.35em">−60,929</text><text text-anchor="end" x="179" y="119.5" dy="0.35em">−8,810</text><text text-anchor="end" x="181" y="144.5" dy="0.35em">−1,752</text><text text-anchor="start" x="191" y="169.5" dy="0.35em">+6,794</text><text text-anchor="start" x="191" y="194.5" dy="0.35em">+8,852</text><text text-anchor="start" x="193" y="219.5" dy="0.35em">+15,133</text><text text-anchor="start" x="193" y="244.5" dy="0.35em">+15,851</text><text text-anchor="start" x="194" y="269.5" dy="0.35em">+21,314</text><text text-anchor="start" x="198" y="294.5" dy="0.35em">+37,650</text><text text-anchor="start" x="199" y="319.5" dy="0.35em">+43,241</text><text text-anchor="start" x="202" y="344.5" dy="0.35em">+55,571</text><text text-anchor="start" x="203" y="369.5" dy="0.35em">+60,196</text><text text-anchor="start" x="206" y="394.5" dy="0.35em">+70,479</text><text text-anchor="start" x="207" y="419.5" dy="0.35em">+75,459</text><text text-anchor="start" x="207" y="444.5" dy="0.35em">+75,830</text><text text-anchor="start" x="208" y="469.5" dy="0.35em">+79,363</text><text text-anchor="start" x="210" y="494.5" dy="0.35em">+89,471</text><text text-anchor="start" x="211" y="519.5" dy="0.35em">+90,296</text><text text-anchor="start" x="213" y="544.5" dy="0.35em">+99,610</text><text text-anchor="start" x="213" y="569.5" dy="0.35em">+101,907</text><text text-anchor="start" x="214" y="594.5" dy="0.35em">+103,217</text><text text-anchor="start" x="214" y="619.5" dy="0.35em">+104,026</text><text text-anchor="start" x="215" y="644.5" dy="0.35em">+108,067</text><text text-anchor="start" x="215" y="669.5" dy="0.35em">+108,715</text><text text-anchor="start" x="216" y="694.5" dy="0.35em">+115,422</text><text text-anchor="start" x="218" y="719.5" dy="0.35em">+123,449</text><text text-anchor="start" x="220" y="744.5" dy="0.35em">+128,306</text><text text-anchor="start" x="221" y="769.5" dy="0.35em">+135,448</text><text text-anchor="start" x="224" y="794.5" dy="0.35em">+148,501</text><text text-anchor="start" x="225" y="819.5" dy="0.35em">+152,596</text><text text-anchor="start" x="238" y="844.5" dy="0.35em">+205,620</text><text text-anchor="start" x="241" y="869.5" dy="0.35em">+219,565</text><text text-anchor="start" x="248" y="894.5" dy="0.35em">+248,417</text><text text-anchor="start" x="253" y="919.5" dy="0.35em">+272,128</text><text text-anchor="start" x="268" y="944.5" dy="0.35em">+335,707</text><text text-anchor="start" x="279" y="969.5" dy="0.35em">+379,605</text><text text-anchor="start" x="280" y="994.5" dy="0.35em">+386,663</text><text text-anchor="start" x="284" y="1019.5" dy="0.35em">+401,874</text><text text-anchor="start" x="293" y="1044.5" dy="0.35em">+442,073</text><text text-anchor="start" x="304" y="1069.5" dy="0.35em">+487,069</text><text text-anchor="start" x="313" y="1094.5" dy="0.35em">+523,350</text><text text-anchor="start" x="315" y="1119.5" dy="0.35em">+534,495</text><text text-anchor="start" x="361" y="1144.5" dy="0.35em">+729,540</text><text text-anchor="start" x="398" y="1169.5" dy="0.35em">+886,700</text><text text-anchor="start" x="399" y="1194.5" dy="0.35em">+890,353</text><text text-anchor="start" x="408" y="1219.5" dy="0.35em">+929,770</text><text text-anchor="start" x="414" y="1244.5" dy="0.35em">+952,601</text><text text-anchor="start" x="721" y="1269.5" dy="0.35em">+2,257,700</text><text text-anchor="start" x="820" y="1294.5" dy="0.35em">+2,676,427</text><text text-anchor="start" x="1096" y="1319.5" dy="0.35em">+3,850,320</text></g><g transform="translate(0,30)" fill="none" font-size="10" font-family="sans-serif" text-anchor="middle"><g class="tick" opacity="1" transform="translate(91,0)"><line stroke="currentColor" y2="-6"/><line stroke="currentColor" y2="1303" stroke-opacity="0.1"/><text fill="currentColor" y="-9" dy="0em">−0.4M</text></g><g class="tick" opacity="1" transform="translate(138,0)"><line stroke="currentColor" y2="-6"/><line stroke="currentColor" y2="1303" stroke-opacity="0.1"/><text fill="currentColor" y="-9" dy="0em">−0.2M</text></g><g class="tick" opacity="1" transform="translate(185,0)"><line stroke="currentColor" y2="-6"/><line stroke="currentColor" y2="1303" stroke-opacity="0.1"/><text fill="currentColor" y="-9" dy="0em">+0.0M</text></g><g class="tick" opacity="1" transform="translate(232,0)"><line stroke="currentColor" y2="-6"/><line stroke="currentColor" y2="1303" stroke-opacity="0.1"/><text fill="currentColor" y="-9" dy="0em">+0.2M</text></g><g class="tick" opacity="1" transform="translate(279,0)"><line stroke="currentColor" y2="-6"/><line stroke="currentColor" y2="1303" stroke-opacity="0.1"/><text fill="currentColor" y="-9" dy="0em">+0.4M</text></g><g class="tick" opacity="1" transform="translate(327,0)"><line stroke="currentColor" y2="-6"/><line stroke="currentColor" y2="1303" stroke-opacity="0.1"/><text fill="currentColor" y="-9" dy="0em">+0.6M</text></g><g class="tick" opacity="1" transform="translate(374,0)"><line stroke="currentColor" y2="-6"/><line stroke="currentColor" y2="1303" stroke-opacity="0.1"/><text fill="currentColor" y="-9" dy="0em">+0.8M</text></g><g class="tick" opacity="1" transform="translate(421,0)"><line stroke="currentColor" y2="-6"/><line stroke="currentColor" y2="1303" stroke-opacity="0.1"/><text fill="currentColor" y="-9" dy="0em">+1.0M</text></g><g class="tick" opacity="1" transform="translate(468,0)"><line stroke="currentColor" y2="-6"/><line stroke="currentColor" y2="1303" stroke-opacity="0.1"/><text fill="currentColor" y="-9" dy="0em">+1.2M</text></g><g class="tick" opacity="1" transform="translate(515,0)"><line stroke="currentColor" y2="-6"/><line stroke="currentColor" y2="1303" stroke-opacity="0.1"/><text fill="currentColor" y="-9" dy="0em">+1.4M</text></g><g class="tick" opacity="1" transform="translate(562,0)"><line stroke="currentColor" y2="-6"/><line stroke="currentColor" y2="1303" stroke-opacity="0.1"/><text fill="currentColor" y="-9" dy="0em">+1.6M</text></g><g class="tick" opacity="1" transform="translate(609,0)"><line stroke="currentColor" y2="-6"/><line stroke="currentColor" y2="1303" stroke-opacity="0.1"/><text fill="currentColor" y="-9" dy="0em">+1.8M</text></g><g class="tick" opacity="1" transform="translate(656,0)"><line stroke="currentColor" y2="-6"/><line stroke="currentColor" y2="1303" stroke-opacity="0.1"/><text fill="currentColor" y="-9" dy="0em">+2.0M</text></g><g class="tick" opacity="1" transform="translate(703,0)"><line stroke="currentColor" y2="-6"/><line stroke="currentColor" y2="1303" stroke-opacity="0.1"/><text fill="currentColor" y="-9" dy="0em">+2.2M</text></g><g class="tick" opacity="1" transform="translate(750,0)"><line stroke="currentColor" y2="-6"/><line stroke="currentColor" y2="1303" stroke-opacity="0.1"/><text fill="currentColor" y="-9" dy="0em">+2.4M</text></g><g class="tick" opacity="1" transform="translate(798,0)"><line stroke="currentColor" y2="-6"/><line stroke="currentColor" y2="1303" stroke-opacity="0.1"/><text fill="currentColor" y="-9" dy="0em">+2.6M</text></g><g class="tick" opacity="1" transform="translate(845,0)"><line stroke="currentColor" y2="-6"/><line stroke="currentColor" y2="1303" stroke-opacity="0.1"/><text fill="currentColor" y="-9" dy="0em">+2.8M</text></g><g class="tick" opacity="1" transform="translate(892,0)"><line stroke="currentColor" y2="-6"/><line stroke="currentColor" y2="1303" stroke-opacity="0.1"/><text fill="currentColor" y="-9" dy="0em">+3.0M</text></g><g class="tick" opacity="1" transform="translate(939,0)"><line stroke="currentColor" y2="-6"/><line stroke="currentColor" y2="1303" stroke-opacity="0.1"/><text fill="currentColor" y="-9" dy="0em">+3.2M</text></g><g class="tick" opacity="1" transform="translate(986,0)"><line stroke="currentColor" y2="-6"/><line stroke="currentColor" y2="1303" stroke-opacity="0.1"/><text fill="currentColor" y="-9" dy="0em">+3.4M</text></g><g class="tick" opacity="1" transform="translate(1033,0)"><line stroke="currentColor" y2="-6"/><line stroke="currentColor" y2="1303" stroke-opacity="0.1"/><text fill="currentColor" y="-9" dy="0em">+3.6M</text></g><g class="tick" opacity="1" transform="translate(1080,0)"><line stroke="currentColor" y2="-6"/><line stroke="currentColor" y2="1303" stroke-opacity="0.1"/><text fill="currentColor" y="-9" dy="0em">+3.8M</text></g></g><g transform="translate(185,0)" fill="none" font-size="10" font-family="sans-serif" text-anchor="end"><path class="domain" stroke="currentColor" d="M0,30V1333"/><g class="tick" opacity="1" transform="translate(0,45)"><line stroke="currentColor" x2="0"/><text fill="currentColor" x="6" dy="0.32em" text-anchor="start">Puerto Rico</text></g><g class="tick" opacity="1" transform="translate(0,70)"><line stroke="currentColor" x2="0"/><text fill="currentColor" x="6" dy="0.32em" text-anchor="start">Illinois</text></g><g class="tick" opacity="1" transform="translate(0,95)"><line stroke="currentColor" x2="0"/><text fill="currentColor" x="6" dy="0.32em" text-anchor="start">West Virginia</text></g><g class="tick" opacity="1" transform="translate(0,120)"><line stroke="currentColor" x2="0"/><text fill="currentColor" x="6" dy="0.32em" text-anchor="start">Connecticut</text></g><g class="tick" opacity="1" transform="translate(0,145)"><line stroke="currentColor" x2="0"/><text fill="currentColor" x="6" dy="0.32em" text-anchor="start">Vermont</text></g><g class="tick" opacity="1" transform="translate(0,170)"><line stroke="currentColor" x2="0"/><text fill="currentColor" x="-6" dy="0.32em">Rhode Island</text></g><g class="tick" opacity="1" transform="translate(0,195)"><line stroke="currentColor" x2="0"/><text fill="currentColor" x="-6" dy="0.32em">Mississippi</text></g><g class="tick" opacity="1" transform="translate(0,220)"><line stroke="currentColor" x2="0"/><text fill="currentColor" x="-6" dy="0.32em">Wyoming</text></g><g class="tick" opacity="1" transform="translate(0,245)"><line stroke="currentColor" x2="0"/><text fill="currentColor" x="-6" dy="0.32em">Maine</text></g><g class="tick" opacity="1" transform="translate(0,270)"><line stroke="currentColor" x2="0"/><text fill="currentColor" x="-6" dy="0.32em">Alaska</text></g><g class="tick" opacity="1" transform="translate(0,295)"><line stroke="currentColor" x2="0"/><text fill="currentColor" x="-6" dy="0.32em">New Mexico</text></g><g class="tick" opacity="1" transform="translate(0,320)"><line stroke="currentColor" x2="0"/><text fill="currentColor" x="-6" dy="0.32em">New Hampshire</text></g><g class="tick" opacity="1" transform="translate(0,345)"><line stroke="currentColor" x2="0"/><text fill="currentColor" x="-6" dy="0.32em">Hawaii</text></g><g class="tick" opacity="1" transform="translate(0,370)"><line stroke="currentColor" x2="0"/><text fill="currentColor" x="-6" dy="0.32em">Kansas</text></g><g class="tick" opacity="1" transform="translate(0,395)"><line stroke="currentColor" x2="0"/><text fill="currentColor" x="-6" dy="0.32em">South Dakota</text></g><g class="tick" opacity="1" transform="translate(0,420)"><line stroke="currentColor" x2="0"/><text fill="currentColor" x="-6" dy="0.32em">New York</text></g><g class="tick" opacity="1" transform="translate(0,445)"><line stroke="currentColor" x2="0"/><text fill="currentColor" x="-6" dy="0.32em">Delaware</text></g><g class="tick" opacity="1" transform="translate(0,470)"><line stroke="currentColor" x2="0"/><text fill="currentColor" x="-6" dy="0.32em">Montana</text></g><g class="tick" opacity="1" transform="translate(0,495)"><line stroke="currentColor" x2="0"/><text fill="currentColor" x="-6" dy="0.32em">North Dakota</text></g><g class="tick" opacity="1" transform="translate(0,520)"><line stroke="currentColor" x2="0"/><text fill="currentColor" x="-6" dy="0.32em">New Jersey</text></g><g class="tick" opacity="1" transform="translate(0,545)"><line stroke="currentColor" x2="0"/><text fill="currentColor" x="-6" dy="0.32em">Pennsylvania</text></g><g class="tick" opacity="1" transform="translate(0,570)"><line stroke="currentColor" x2="0"/><text fill="currentColor" x="-6" dy="0.32em">Arkansas</text></g><g class="tick" opacity="1" transform="translate(0,595)"><line stroke="currentColor" x2="0"/><text fill="currentColor" x="-6" dy="0.32em">Michigan</text></g><g class="tick" opacity="1" transform="translate(0,620)"><line stroke="currentColor" x2="0"/><text fill="currentColor" x="-6" dy="0.32em">District of Columbia</text></g><g class="tick" opacity="1" transform="translate(0,645)"><line stroke="currentColor" x2="0"/><text fill="currentColor" x="-6" dy="0.32em">Nebraska</text></g><g class="tick" opacity="1" transform="translate(0,670)"><line stroke="currentColor" x2="0"/><text fill="currentColor" x="-6" dy="0.32em">Iowa</text></g><g class="tick" opacity="1" transform="translate(0,695)"><line stroke="currentColor" x2="0"/><text fill="currentColor" x="-6" dy="0.32em">Louisiana</text></g><g class="tick" opacity="1" transform="translate(0,720)"><line stroke="currentColor" x2="0"/><text fill="currentColor" x="-6" dy="0.32em">Alabama</text></g><g class="tick" opacity="1" transform="translate(0,745)"><line stroke="currentColor" x2="0"/><text fill="currentColor" x="-6" dy="0.32em">Kentucky</text></g><g class="tick" opacity="1" transform="translate(0,770)"><line stroke="currentColor" x2="0"/><text fill="currentColor" x="-6" dy="0.32em">Wisconsin</text></g><g class="tick" opacity="1" transform="translate(0,795)"><line stroke="currentColor" x2="0"/><text fill="currentColor" x="-6" dy="0.32em">Missouri</text></g><g class="tick" opacity="1" transform="translate(0,820)"><line stroke="currentColor" x2="0"/><text fill="currentColor" x="-6" dy="0.32em">Ohio</text></g><g class="tick" opacity="1" transform="translate(0,845)"><line stroke="currentColor" x2="0"/><text fill="currentColor" x="-6" dy="0.32em">Oklahoma</text></g><g class="tick" opacity="1" transform="translate(0,870)"><line stroke="currentColor" x2="0"/><text fill="currentColor" x="-6" dy="0.32em">Idaho</text></g><g class="tick" opacity="1" transform="translate(0,895)"><line stroke="currentColor" x2="0"/><text fill="currentColor" x="-6" dy="0.32em">Indiana</text></g><g class="tick" opacity="1" transform="translate(0,920)"><line stroke="currentColor" x2="0"/><text fill="currentColor" x="-6" dy="0.32em">Maryland</text></g><g class="tick" opacity="1" transform="translate(0,945)"><line stroke="currentColor" x2="0"/><text fill="currentColor" x="-6" dy="0.32em">Minnesota</text></g><g class="tick" opacity="1" transform="translate(0,970)"><line stroke="currentColor" x2="0"/><text fill="currentColor" x="-6" dy="0.32em">Nevada</text></g><g class="tick" opacity="1" transform="translate(0,995)"><line stroke="currentColor" x2="0"/><text fill="currentColor" x="-6" dy="0.32em">Oregon</text></g><g class="tick" opacity="1" transform="translate(0,1020)"><line stroke="currentColor" x2="0"/><text fill="currentColor" x="-6" dy="0.32em">Massachusetts</text></g><g class="tick" opacity="1" transform="translate(0,1045)"><line stroke="currentColor" x2="0"/><text fill="currentColor" x="-6" dy="0.32em">Utah</text></g><g class="tick" opacity="1" transform="translate(0,1070)"><line stroke="currentColor" x2="0"/><text fill="currentColor" x="-6" dy="0.32em">Tennessee</text></g><g class="tick" opacity="1" transform="translate(0,1095)"><line stroke="currentColor" x2="0"/><text fill="currentColor" x="-6" dy="0.32em">South Carolina</text></g><g class="tick" opacity="1" transform="translate(0,1120)"><line stroke="currentColor" x2="0"/><text fill="currentColor" x="-6" dy="0.32em">Virginia</text></g><g class="tick" opacity="1" transform="translate(0,1145)"><line stroke="currentColor" x2="0"/><text fill="currentColor" x="-6" dy="0.32em">Colorado</text></g><g class="tick" opacity="1" transform="translate(0,1170)"><line stroke="currentColor" x2="0"/><text fill="currentColor" x="-6" dy="0.32em">Arizona</text></g><g class="tick" opacity="1" transform="translate(0,1195)"><line stroke="currentColor" x2="0"/><text fill="currentColor" x="-6" dy="0.32em">Washington</text></g><g class="tick" opacity="1" transform="translate(0,1220)"><line stroke="currentColor" x2="0"/><text fill="currentColor" x="-6" dy="0.32em">Georgia</text></g><g class="tick" opacity="1" transform="translate(0,1245)"><line stroke="currentColor" x2="0"/><text fill="currentColor" x="-6" dy="0.32em">North Carolina</text></g><g class="tick" opacity="1" transform="translate(0,1270)"><line stroke="currentColor" x2="0"/><text fill="currentColor" x="-6" dy="0.32em">California</text></g><g class="tick" opacity="1" transform="translate(0,1295)"><line stroke="currentColor" x2="0"/><text fill="currentColor" x="-6" dy="0.32em">Florida</text></g><g class="tick" opacity="1" transform="translate(0,1320)"><line stroke="currentColor" x2="0"/><text fill="currentColor" x="-6" dy="0.32em">Texas</text></g></g></svg>