<?xml version="1.0" encoding="utf-8"?>
<svg font-family="sans-serif" font-size="10" viewBox="0,0,1152,480" xmlns="http://www.w3.org/2000/svg" xmlns:xlink="http://www.w3.org/1999/xlink"><g><rect fill="#377eb8" height="22" width="506" x="70" y="428"/><rect fill="#e41a1c" height="22" width="484" x="576" y="428"/><rect fill="#377eb8" height="22" width="521" x="55" y="404"/><rect fill="#e41a1c" height="22" width="499" x="576" y="404"/><rect fill="#377eb8" height="22" width="526" x="50" y="380"/><rect fill="#e41a1c" height="22" width="503" x="576" y="380"/><rect fill="#377eb8" height="22" width="544" x="32" y="356"/><rect fill="#e41a1c" height="22" width="518" x="576" y="356"/><rect fill="#377eb8" height="22" width="576" x="0" y="332"/><rect fill="#e41a1c" height="22" width="549" x="576" y="332"/><rect fill="#377eb8" height="22" width="547" x="29" y="308"/><rect fill="#e41a1c" height="22" width="533" x="576" y="308"/><rect fill="#377eb8" height="22" width="529" x="47" y="284"/><rect fill="#e41a1c" height="22" width="525" x="576" y="284"/><rect fill="#377eb8" height="22" width="493" x="83" y="260"/><rect fill="#e41a1c" height="22" width="495" x="576" y="260"/><rect fill="#377eb8" height="22" width="514" x="62" y="236"/><rect fill="#e41a1c" height="22" width="521" x="576" y="236"/><rect fill="#377eb8" height="22" width="526" x="50" y="212"/><rect fill="#e41a1c" height="22" width="537" x="576" y="212"/><rect fill="#377eb8" height="22" width="550" x="26" y="188"/><rect fill="#e41a1c" height="22" width="571" x="576" y="188"/><rect fill="#377eb8" height="22" width="506" x="70" y="164"/><rect fill="#e41a1c" height="22" width="539" x="576" y="164"/><rect fill="#377eb8" height="22" width="439" x="137" y="140"/><rect fill="#e41a1c" height="22" width="477" x="576" y="140"/><rect fill="#377eb8" height="22" width="342" x="234" y="116"/><rect fill="#e41a1c" height="22" width="382" x="576" y="116"/><rect fill="#377eb8" height="22" width="242" x="334" y="92"/><rect fill="#e41a1c" height="22" width="285" x="576" y="92"/><rect fill="#377eb8" height="22" width="170" x="406" y="68"/><rect fill="#e41a1c" height="22" width="215" x="576" y="68"/><rect fill="#377eb8" height="22" width="118" x="458" y="44"/><rect fill="#e41a1c" height="22" width="171" x="576" y="44"/><rect fill="#377eb8" height="22" width="100" x="476" y="20"/><rect fill="#e41a1c" height="22" width="196" x="576" y="20"/></g><g fill="white"><text dy="0.35em" text-anchor="start" x="74" y="439">10,175,713</text><text dy="0.35em" text-anchor="end" x="1056" y="439">9,736,305</text><text dy="0.35em" text-anchor="start" x="59" y="415">10,470,147</text><text dy="0.35em" text-anchor="end" x="1071" y="415">10,031,835</text><text dy="0.35em" text-anchor="start" x="54" y="391">10,561,873</text><text dy="0.35em" text-anchor="end" x="1075" y="391">10,117,913</text><text dy="0.35em" text-anchor="start" x="36" y="367">10,942,624</text><text dy="0.35em" text-anchor="end" x="1090" y="367">10,411,857</text><text dy="0.35em" text-anchor="start" x="4" y="343">11,576,412</text><text dy="0.35em" text-anchor="end" x="1121" y="343">11,027,820</text><text dy="0.35em" text-anchor="start" x="33" y="319">10,989,596</text><text dy="0.35em" text-anchor="end" x="1105" y="319">10,708,414</text><text dy="0.35em" text-anchor="start" x="51" y="295">10,625,791</text><text dy="0.35em" text-anchor="end" x="1097" y="295">10,557,848</text><text dy="0.35em" text-anchor="start" x="87" y="271">9,899,569</text><text dy="0.35em" text-anchor="end" x="1067" y="271">9,956,213</text><text dy="0.35em" text-anchor="start" x="66" y="247">10,330,986</text><text dy="0.35em" text-anchor="end" x="1093" y="247">10,465,142</text><text dy="0.35em" text-anchor="start" x="54" y="223">10,571,984</text><text dy="0.35em" text-anchor="end" x="1109" y="223">10,798,384</text><text dy="0.35em" text-anchor="start" x="30" y="199">11,051,409</text><text dy="0.35em" text-anchor="end" x="1143" y="199">11,474,081</text><text dy="0.35em" text-anchor="start" x="74" y="175">10,173,646</text><text dy="0.35em" text-anchor="end" x="1111" y="175">10,828,301</text><text dy="0.35em" text-anchor="start" x="141" y="151">8,824,852</text><text dy="0.35em" text-anchor="end" x="1049" y="151">9,590,829</text><text dy="0.35em" text-anchor="start" x="238" y="127">6,876,271</text><text dy="0.35em" text-anchor="end" x="954" y="127">7,671,175</text><text dy="0.35em" text-anchor="start" x="338" y="103">4,867,513</text><text dy="0.35em" text-anchor="end" x="857" y="103">5,720,208</text><text dy="0.35em" text-anchor="start" x="410" y="79">3,416,432</text><text dy="0.35em" text-anchor="end" x="787" y="79">4,313,697</text><text dy="0.35em" text-anchor="start" x="462" y="55">2,378,691</text><text dy="0.35em" text-anchor="end" x="743" y="55">3,432,738</text><text dy="0.35em" text-anchor="start" x="480" y="31">2,000,771</text><text dy="0.35em" text-anchor="end" x="768" y="31">3,937,981</text></g><text dy="0.35em" fill="white" text-anchor="end" x="572" y="439">Male</text><text dy="0.35em" fill="white" text-anchor="start" x="600" y="439">Female</text><g transform="translate(0,460)"><g fill="none" font-family="sans-serif" font-size="10" text-anchor="middle"><g class="tick" opacity="1" transform="translate(526,0)"><line stroke="currentColor" y2="6"/><text dy="0.71em" fill="currentColor" y="9">1M</text></g><g class="tick" opacity="1" transform="translate(476,0)"><line stroke="currentColor" y2="6"/><text dy="0.71em" fill="currentColor" y="9">2M</text></g><g class="tick" opacity="1" transform="translate(427,0)"><line stroke="currentColor" y2="6"/><text dy="0.71em" fill="currentColor" y="9">3M</text></g><g class="tick" opacity="1" transform="translate(377,0)"><line stroke="currentColor" y2="6"/><text dy="0.71em" fill="currentColor" y="9">4M</text></g><g class="tick" opacity="1" transform="translate(327,0)"><line stroke="currentColor" y2="6"/><text dy="0.71em" fill="currentColor" y="9">5M</text></g><g class="tick" opacity="1" transform="translate(277,0)"><line stroke="currentColor" y2="6"/><text dy="0.71em" fill="currentColor" y="9">6M</text></g><g class="tick" opacity="1" transform="translate(228,0)"><line stroke="currentColor" y2="6"/><text dy="0.71em" fill="currentColor" y="9">7M</text></g><g class="tick" opacity="1" transform="translate(178,0)"><line stroke="currentColor" y2="6"/><text dy="0.71em" fill="currentColor" y="9">8M</text></g><g class="tick" opacity="1" transform="translate(128,0)"><line stroke="currentColor" y2="6"/><text dy="0.71em" fill="currentColor" y="9">9M</text></g><g class="tick" opacity="1" transform="translate(78,0)"><line stroke="currentColor" y2="6"/><text dy="0.71em" fill="currentColor" y="9">10M</text></g><g class="tick" opacity="1" transform="translate(29,0)"><line stroke="currentColor" y2="6"/><text dy="0.71em" fill="currentColor" y="9">11M</text></g></g><g fill="none" font-family="sans-serif" font-size="10" text-anchor="middle"><g class="tick" opacity="1" transform="translate(626,0)"><line stroke="currentColor" y2="6"/><text dy="0.71em" fill="currentColor" y="9">1M</text></g><g class="tick" opacity="1" transform="translate(676,0)"><line stroke="currentColor" y2="6"/><text dy="0.71em" fill="currentColor" y="9">2M</text></g><g class="tick" opacity="1" transform="translate(725,0)"><line stroke="currentColor" y2="6"/><text dy="0.71em" fill="currentColor" y="9">3M</text></g><g class="tick" opacity="1" transform="translate(775,0)"><line stroke="currentColor" y2="6"/><text dy="0.71em" fill="currentColor" y="9">4M</text></g><g class="tick" opacity="1" transform="translate(825,0)"><line stroke="currentColor" y2="6"/><text dy="0.71em" fill="currentColor" y="9">5M</text></g><g class="tick" opacity="1" transform="translate(875,0)"><line stroke="currentColor" y2="6"/><text dy="0.71em" fill="currentColor" y="9">6M</text></g><g class="tick" opacity="1" transform="translate(924,0)"><line stroke="currentColor" y2="6"/><text dy="0.71em" fill="currentColor" y="9">7M</text></g><g class="tick" opacity="1" transform="translate(974,0)"><line stroke="currentColor" y2="6"/><text dy="0.71em" fill="currentColor" y="9">8M</text></g><g class="tick" opacity="1" transform="translate(1024,0)"><line stroke="currentColor" y2="6"/><text dy="0.71em" fill="currentColor" y="9">9M</text></g><g class="tick" opacity="1" transform="translate(1074,0)"><line stroke="currentColor" y2="6"/><text dy="0.71em" fill="currentColor" y="9">10M</text></g><g class="tick" opacity="1" transform="translate(1123,0)"><line stroke="currentColor" y2="6"/><text dy="0.71em" fill="currentColor" y="9">11M</text></g></g></g><g fill="none" font-family="sans-serif" font-size="10" text-anchor="start" transform="translate(576,0)"><path class="domain" d="M0,460V10" stroke="currentColor"/><g class="tick" opacity="1" transform="translate(0,439)"><line stroke="currentColor" x2="6"/><text dy="0.32em" fill="white" x="9">&lt;5</text></g><g class="tick" opacity="1" transform="translate(0,415)"><line stroke="currentColor" x2="6"/><text dy="0.32em" fill="white" x="9">5-9</text></g><g class="tick" opacity="1" transform="translate(0,391)"><line stroke="currentColor" x2="6"/><text dy="0.32em" fill="white" x="9">10-14</text></g><g class="tick" opacity="1" transform="translate(0,367)"><line stroke="currentColor" x2="6"/><text dy="0.32em" fill="white" x="9">15-19</text></g><g class="tick" opacity="1" transform="translate(0,343)"><line stroke="currentColor" x2="6"/><text dy="0.32em" fill="white" x="9">20-24</text></g><g class="tick" opacity="1" transform="translate(0,319)"><line stroke="currentColor" x2="6"/><text dy="0.32em" fill="white" x="9">25-29</text></g><g class="tick" opacity="1" transform="translate(0,295)"><line stroke="currentColor" x2="6"/><text dy="0.32em" fill="white" x="9">30-34</text></g><g class="tick" opacity="1" transform="translate(0,271)"><line stroke="currentColor" x2="6"/><text dy="0.32em" fill="white" x="9">35-39</text></g><g class="tick" opacity="1" transform="translate(0,247)"><line stroke="currentColor" x2="6"/><text dy="0.32em" fill="white" x="9">40-44</text></g><g class="tick" opacity="1" transform="translate(0,223)"><line stroke="currentColor" x2="6"/><text dy="0.32em" fill="white" x="9">45-49</text></g><g class="tick" opacity="1" transform="translate(0,199)"><line stroke="currentColor" x2="6"/><text dy="0.32em" fill="white" x="9">50-54</text></g><g class="tick" opacity="1" transform="translate(0,175)"><line stroke="currentColor" x2="6"/><text dy="0.32em" fill="white" x="9">55-59</text></g><g class="tick" opacity="1" transform="translate(0,151)"><line stroke="currentColor" x2="6"/><text dy="0.32em" fill="white" x="9">60-64</text></g><g class="tick" opacity="1" transform="translate(0,127)"><line stroke="currentColor" x2="6"/><text dy="0.32em" fill="white" x="9">65-69</text></g><g class="tick" opacity="1" transform="translate(0,103)"><line stroke="currentColor" x2="6"/><text dy="0.32em" fill="white" x="9">70-74</text></g><g class="tick" opacity="1" transform="translate(0,79)"><line stroke="currentColor" x2="6"/><text dy="0.32em" fill="white" x="9">75-79</text></g><g class="tick" opacity="1" transform="translate(0,55)"><line stroke="currentColor" x2="6"/><text dy="0.32em" fill="white" x="9">80-84</text></g><g class="tick" opacity="1" transform="translate(0,31)"><line stroke="currentColor" x2="6"/><text dy="0.32em" fill="white" x="9">≥85</text></g></g></svg>