<svg width="928" height="1330" viewBox="0,0,928,1330" style="max-width: 100%; height: auto;" xmlns="http://www.w3.org/2000/svg" xmlns:xlink="http://www.w3.org/1999/xlink"><g><g fill="#d53e4f"><rect x="30" y="830.768049155146" height="22.96466973886329" width="108.54077325205259"><title>AL &lt;10
598,478</title></rect><rect x="30" y="81.92012288786484" height="22.96466973886329" width="127.18730007939143"><title>AK &lt;10
106,741</title></rect><rect x="30" y="381.45929339477726" height="22.96466973886329" width="116.40631800750737"><title>AZ &lt;10
892,083</title></rect><rect x="30" y="406.42089093702" height="22.96466973886329" width="115.99617783155776"><title>AR &lt;10
392,177</title></rect><rect x="30" y="481.3056835637481" height="22.96466973886329" width="114.44405749790849"><title>CA &lt;10
5,038,433</title></rect><rect x="30" y="556.1904761904763" height="22.96466973886329" width="113.17696450745851"><title>CO &lt;10
690,830</title></rect><rect x="30" y="1130.3072196620583" height="22.96466973886329" width="97.71189693944939"><title>CT &lt;10
399,369</title></rect><rect x="30" y="955.5760368663595" height="22.96466973886329" width="105.37277507636179"><title>DE &lt;10
112,177</title></rect><rect x="30" y="1080.3840245775732" height="22.96466973886329" width="99.0927377319581"><title>DC &lt;10
74,377</title></rect><rect x="30" y="1155.2688172043013" height="22.96466973886329" width="97.38259338067547"><title>FL &lt;10
2,211,012</title></rect><rect x="30" y="256.6513056835638" height="22.96466973886329" width="118.54936946249845"><title>GA &lt;10
1,363,631</title></rect><rect x="30" y="730.9216589861751" height="22.96466973886329" width="109.61018000626734"><title>HI &lt;10
176,484</title></rect><rect x="30" y="106.88172043010755" height="22.96466973886329" width="127.04853795484269"><title>ID &lt;10
236,658</title></rect><rect x="30" y="631.0752688172043" height="22.96466973886329" width="110.6532650507124"><title>IL &lt;10
1,619,682</title></rect><rect x="30" y="431.3824884792627" height="22.96466973886329" width="114.99058998922237"><title>IN &lt;10
863,029</title></rect><rect x="30" y="531.2288786482335" height="22.96466973886329" width="113.53389070778269"><title>IA &lt;10
401,712</title></rect><rect x="30" y="181.76651305683566" height="22.96466973886329" width="121.70525882140237"><title>KS &lt;10
401,751</title></rect><rect x="30" y="656.036866359447" height="22.96466973886329" width="110.56917186330244"><title>KY &lt;10
555,615</title></rect><rect x="30" y="331.5360983102919" height="22.96466973886329" width="117.56529370359925"><title>LA &lt;10
622,061</title></rect><rect x="30" y="1280.0768049155145" height="22.96466973886329" width="91.07565776364495"><title>ME &lt;10
137,954</title></rect><rect x="30" y="755.8832565284179" height="22.96466973886329" width="109.30277981080894"><title>MD &lt;10
741,952</title></rect><rect x="30" y="1205.1920122887864" height="22.96466973886329" width="96.07371780752794"><title>MA &lt;10
737,748</title></rect><rect x="30" y="980.5376344086021" height="22.96466973886329" width="104.67529183821745"><title>MI &lt;10
1,181,424</title></rect><rect x="30" y="456.3440860215054" height="22.96466973886329" width="114.62180188549783"><title>MN &lt;10
711,604</title></rect><rect x="30" y="306.5745007680492" height="22.96466973886329" width="117.57453653027304"><title>MS &lt;10
400,288</title></rect><rect x="30" y="606.1136712749616" height="22.96466973886329" width="110.69058993661514"><title>MO &lt;10
763,948</title></rect><rect x="30" y="855.7296466973886" height="22.96466973886329" width="108.11660450404585"><title>MT &lt;10
126,020</title></rect><rect x="30" y="156.80491551459295" height="22.96466973886329" width="122.98615129548881"><title>NE &lt;10
263,518</title></rect><rect x="30" y="506.2672811059908" height="22.96466973886329" width="114.22338484600436"><title>NV &lt;10
369,362</title></rect><rect x="30" y="1255.115207373272" height="22.96466973886329" width="91.77609090148947"><title>NH &lt;10
138,762</title></rect><rect x="30" y="930.6144393241168" height="22.96466973886329" width="106.27402658932976"><title>NJ &lt;10
1,079,136</title></rect><rect x="30" y="356.4976958525346" height="22.96466973886329" width="116.55183997072984"><title>NM &lt;10
276,468</title></rect><rect x="30" y="1030.4608294930877" height="22.96466973886329" width="103.40988230105032"><title>NY &lt;10
2,319,945</title></rect><rect x="30" y="680.9984639016898" height="22.96466973886329" width="110.42959841976946"><title>NC &lt;10
1,250,298</title></rect><rect x="30" y="231.68970814132106" height="22.96466973886329" width="118.64345891257628"><title>ND &lt;10
99,477</title></rect><rect x="30" y="880.6912442396314" height="22.96466973886329" width="107.81549366653371"><title>OH &lt;10
1,422,838</title></rect><rect x="30" y="206.72811059907835" height="22.96466973886329" width="121.08464494042065"><title>OK &lt;10
534,481</title></rect><rect x="30" y="1005.4992319508449" height="22.96466973886329" width="104.60684027464757"><title>OR &lt;10
474,456</title></rect><rect x="30" y="1055.4224270353302" height="22.96466973886329" width="100.19897704759634"><title>PA &lt;10
1,458,931</title></rect><rect x="30" y="1230.1536098310294" height="22.96466973886329" width="92.73574264740046"><title>RI &lt;10
111,377</title></rect><rect x="30" y="805.8064516129033" height="22.96466973886329" width="108.89015710694045"><title>SC &lt;10
599,591</title></rect><rect x="30" y="131.84331797235023" height="22.96466973886329" width="124.17643450857636"><title>SD &lt;10
120,366</title></rect><rect x="30" y="705.9600614439324" height="22.96466973886329" width="109.73697684288459"><title>TN &lt;10
818,404</title></rect><rect x="30" y="56.958525345622135" height="22.96466973886329" width="129.73354592326467"><title>TX &lt;10
3,983,091</title></rect><rect x="30" y="31.996927803379435" height="22.96466973886329" width="152.91752856692736"><title>UT &lt;10
513,515</title></rect><rect x="30" y="1305.0384024577575" height="22.96466973886329" width="89.40262419580708"><title>VT &lt;10
63,768</title></rect><rect x="30" y="780.8448540706605" height="22.96466973886329" width="109.20498090261711"><title>VA &lt;10
1,033,629</title></rect><rect x="30" y="581.1520737327189" height="22.96466973886329" width="111.19572818092541"><title>WA &lt;10
895,790</title></rect><rect x="30" y="1105.3456221198157" height="22.96466973886329" width="98.45713323062986"><title>WV &lt;10
207,017</title></rect><rect x="30" y="905.652841781874" height="22.96466973886329" width="107.65954669477537"><title>WI &lt;10
705,648</title></rect><rect x="30" y="281.61290322580646" height="22.96466973886329" width="117.78921117131395"><title>WY &lt;10
78,217</title></rect><rect x="30" y="1180.2304147465438" height="22.96466973886329" width="96.87744012058755"><title>PR &lt;10
389,428</title></rect></g><g fill="#f46d43"><rect x="138.5407732520526" y="830.768049155146" height="22.96466973886329" width="115.85163031039639"><title>AL 10-19
638,789</title></rect><rect x="157.18730007939143" y="81.92012288786484" height="22.96466973886329" width="119.06688290097776"><title>AK 10-19
99,926</title></rect><rect x="146.40631800750737" y="381.45929339477726" height="22.96466973886329" width="119.10116061687336"><title>AZ 10-19
912,735</title></rect><rect x="145.99617783155776" y="406.42089093702" height="22.96466973886329" width="117.47741935918549"><title>AR 10-19
397,185</title></rect><rect x="144.4440574979085" y="481.3056835637481" height="22.96466973886329" width="117.4402443552973"><title>CA 10-19
5,170,341</title></rect><rect x="143.1769645074585" y="556.1904761904763" height="22.96466973886329" width="114.2610111964353"><title>CO 10-19
697,447</title></rect><rect x="127.71189693944939" y="1130.3072196620583" height="22.96466973886329" width="117.70010617042442"><title>CT 10-19
481,065</title></rect><rect x="135.3727750763618" y="955.5760368663595" height="22.96466973886329" width="110.70543011356642"><title>DE 10-19
117,854</title></rect><rect x="129.0927377319581" y="1080.3840245775732" height="22.96466973886329" width="83.64601090425168"><title>DC 10-19
62,783</title></rect><rect x="127.38259338067547" y="1155.2688172043013" height="22.96466973886329" width="102.67187975229413"><title>FL 10-19
2,331,102</title></rect><rect x="148.54936946249845" y="256.6513056835638" height="22.96466973886329" width="123.58525583900698"><title>GA 10-19
1,421,557</title></rect><rect x="139.61018000626734" y="730.9216589861751" height="22.96466973886329" width="101.58275782306089"><title>HI 10-19
163,559</title></rect><rect x="157.0485379548427" y="106.88172043010755" height="22.96466973886329" width="128.57908153126624"><title>ID 10-19
239,509</title></rect><rect x="140.6532650507124" y="631.0752688172043" height="22.96466973886329" width="117.23241498935076"><title>IL 10-19
1,715,984</title></rect><rect x="144.99058998922237" y="431.3824884792627" height="22.96466973886329" width="120.66198047887133"><title>IN 10-19
905,594</title></rect><rect x="143.5338907077827" y="531.2288786482335" height="22.96466973886329" width="118.32579913210276"><title>IA 10-19
418,667</title></rect><rect x="151.70525882140237" y="181.76651305683566" height="22.96466973886329" width="121.808560352097"><title>KS 10-19
402,092</title></rect><rect x="140.56917186330244" y="656.036866359447" height="22.96466973886329" width="114.5991859907175"><title>KY 10-19
575,866</title></rect><rect x="147.56529370359925" y="331.5360983102919" height="22.96466973886329" width="115.97245908555703"><title>LA 10-19
613,633</title></rect><rect x="121.07565776364495" y="1280.0768049155145" height="22.96466973886329" width="102.84021856904494"><title>ME 10-19
155,774</title></rect><rect x="139.30277981080894" y="755.8832565284179" height="22.96466973886329" width="112.65838599359518"><title>MD 10-19
764,730</title></rect><rect x="126.07371780752794" y="1205.1920122887864" height="22.96466973886329" width="112.30282982725225"><title>MA 10-19
862,371</title></rect><rect x="134.67529183821745" y="980.5376344086021" height="22.96466973886329" width="117.31395192540563"><title>MI 10-19
1,324,071</title></rect><rect x="144.62180188549783" y="456.3440860215054" height="22.96466973886329" width="115.07200724728611"><title>MN 10-19
714,399</title></rect><rect x="147.57453653027304" y="306.5745007680492" height="22.96466973886329" width="123.75480129747436"><title>MS 10-19
421,329</title></rect><rect x="140.69058993661514" y="606.1136712749616" height="22.96466973886329" width="114.89059848496225"><title>MO 10-19
792,935</title></rect><rect x="138.11660450404585" y="855.7296466973886" height="22.96466973886329" width="108.35167790218986"><title>MT 10-19
126,294</title></rect><rect x="152.9861512954888" y="156.80491551459295" height="22.96466973886329" width="120.22883611453818"><title>NE 10-19
257,610</title></rect><rect x="144.22338484600436" y="506.2672811059908" height="22.96466973886329" width="111.40956377422714"><title>NV 10-19
360,263</title></rect><rect x="121.77609090148947" y="1255.115207373272" height="22.96466973886329" width="110.77987017731785"><title>NH 10-19
167,495</title></rect><rect x="136.27402658932976" y="930.6144393241168" height="22.96466973886329" width="113.60975254658874"><title>NJ 10-19
1,153,625</title></rect><rect x="146.55183997072984" y="356.4976958525346" height="22.96466973886329" width="119.16307200039947"><title>NM 10-19
282,662</title></rect><rect x="133.40988230105032" y="1030.4608294930877" height="22.96466973886329" width="109.01046251808037"><title>NY 10-19
2,445,591</title></rect><rect x="140.42959841976946" y="680.9984639016898" height="22.96466973886329" width="115.73778803938663"><title>NC 10-19
1,310,398</title></rect><rect x="148.64345891257628" y="231.68970814132106" height="22.96466973886329" width="108.61547050785018"><title>ND 10-19
91,069</title></rect><rect x="137.8154936665337" y="880.6912442396314" height="22.96466973886329" width="115.95569460481414"><title>OH 10-19
1,530,264</title></rect><rect x="151.08464494042065" y="206.72811059907835" height="22.96466973886329" width="118.3210077229551"><title>OK 10-19
522,282</title></rect><rect x="134.60684027464757" y="1005.4992319508449" height="22.96466973886329" width="107.00761902705165"><title>OR 10-19
485,345</title></rect><rect x="130.19897704759634" y="1055.4224270353302" height="22.96466973886329" width="110.438230919846"><title>PA 10-19
1,608,018</title></rect><rect x="122.73574264740046" y="1230.1536098310294" height="22.96466973886329" width="113.97444833573732"><title>RI 10-19
136,885</title></rect><rect x="138.89015710694045" y="805.8064516129033" height="22.96466973886329" width="112.44112642087615"><title>SC 10-19
619,144</title></rect><rect x="154.17643450857636" y="131.84331797235023" height="22.96466973886329" width="116.97237321075644"><title>SD 10-19
113,383</title></rect><rect x="139.7369768428846" y="705.9600614439324" height="22.96466973886329" width="113.01794087332496"><title>TN 10-19
842,873</title></rect><rect x="159.73354592326467" y="56.958525345622135" height="22.96466973886329" width="127.37009118601924"><title>TX 10-19
3,910,528</title></rect><rect x="182.91752856692736" y="31.996927803379435" height="22.96466973886329" width="142.6769691092911"><title>UT 10-19
479,126</title></rect><rect x="119.40262419580708" y="1305.0384024577575" height="22.96466973886329" width="111.24996287419219"><title>VT 10-19
79,351</title></rect><rect x="139.2049809026171" y="780.8448540706605" height="22.96466973886329" width="112.56809566825558"><title>VA 10-19
1,065,461</title></rect><rect x="141.1957281809254" y="581.1520737327189" height="22.96466973886329" width="109.58474998253959"><title>WA 10-19
882,812</title></rect><rect x="128.45713323062986" y="1105.3456221198157" height="22.96466973886329" width="103.94079276655765"><title>WV 10-19
218,547</title></rect><rect x="137.65954669477537" y="905.652841781874" height="22.96466973886329" width="115.22327490904112"><title>WI 10-19
755,224</title></rect><rect x="147.78921117131395" y="281.61290322580646" height="22.96466973886329" width="113.75031087647434"><title>WY 10-19
75,535</title></rect><rect x="126.87744012058755" y="1180.2304147465438" height="22.96466973886329" width="119.34646461068994"><title>PR 10-19
479,749</title></rect></g><g fill="#fdae61"><rect x="254.39240356244898" y="830.768049155146" height="22.96466973886329" width="120.0006337318876"><title>AL 20-29
661,666</title></rect><rect x="276.2541829803692" y="81.92012288786484" height="22.96466973886329" width="143.78917426087895"><title>AK 20-29
120,674</title></rect><rect x="265.5074786243807" y="381.45929339477726" height="22.96466973886329" width="122.6333460997771"><title>AZ 20-29
939,804</title></rect><rect x="263.47359719074325" y="406.42089093702" height="22.96466973886329" width="118.22070209858805"><title>AR 20-29
399,698</title></rect><rect x="261.8843018532058" y="481.3056835637481" height="22.96466973886329" width="131.9572180579779"><title>CA 20-29
5,809,455</title></rect><rect x="257.4379757038938" y="556.1904761904763" height="22.96466973886329" width="127.86868869879333"><title>CO 20-29
780,508</title></rect><rect x="245.4120031098738" y="1130.3072196620583" height="22.96466973886329" width="113.11458157427614"><title>CT 20-29
462,323</title></rect><rect x="246.0782051899282" y="955.5760368663595" height="22.96466973886329" width="119.81706545985583"><title>DE 20-29
127,554</title></rect><rect x="212.73874863620978" y="1080.3840245775732" height="22.96466973886329" width="182.49360479143678"><title>DC 20-29
136,976</title></rect><rect x="230.0544731329696" y="1155.2688172043013" height="22.96466973886329" width="114.41974198336342"><title>FL 20-29
2,597,830</title></rect><rect x="272.1346253015054" y="256.6513056835638" height="22.96466973886329" width="123.33653038026324"><title>GA 20-29
1,418,696</title></rect><rect x="241.19293782932823" y="730.9216589861751" height="22.96466973886329" width="126.90842082999387"><title>HI 20-29
204,336</title></rect><rect x="285.6276194861089" y="106.88172043010755" height="22.96466973886329" width="117.39929549863854"><title>ID 20-29
218,684</title></rect><rect x="257.88568004006316" y="631.0752688172043" height="22.96466973886329" width="122.27120134606486"><title>IL 20-29
1,789,739</title></rect><rect x="265.6525704680937" y="431.3824884792627" height="22.96466973886329" width="120.66144751606242"><title>IN 20-29
905,590</title></rect><rect x="261.85968983988545" y="531.2288786482335" height="22.96466973886329" width="118.54879032920024"><title>IA 20-29
419,456</title></rect><rect x="273.51381917349937" y="181.76651305683566" height="22.96466973886329" width="123.28204611543617"><title>KS 20-29
406,956</title></rect><rect x="255.16835785401994" y="656.036866359447" height="22.96466973886329" width="118.17189072774201"><title>KY 20-29
593,819</title></rect><rect x="263.5377527891563" y="331.5360983102919" height="22.96466973886329" width="129.19687967505223"><title>LA 20-29
683,606</title></rect><rect x="223.9158763326899" y="1280.0768049155145" height="22.96466973886329" width="103.22642889851517"><title>ME 20-29
156,359</title></rect><rect x="251.96116580440412" y="755.8832565284179" height="22.96466973886329" width="120.1150267235937"><title>MD 20-29
815,346</title></rect><rect x="238.3765476347802" y="1205.1920122887864" height="22.96466973886329" width="126.49338941639166"><title>MA 20-29
971,340</title></rect><rect x="251.98924376362308" y="980.5376344086021" height="22.96466973886329" width="118.56393416485022"><title>MI 20-29
1,338,179</title></rect><rect x="259.69380913278394" y="456.3440860215054" height="22.96466973886329" width="117.2985506161587"><title>MN 20-29
728,222</title></rect><rect x="271.3293378277474" y="306.5745007680492" height="22.96466973886329" width="121.65936815032285"><title>MS 20-29
414,195</title></rect><rect x="255.5811884215774" y="606.1136712749616" height="22.96466973886329" width="120.51099147459149"><title>MO 20-29
831,725</title></rect><rect x="246.46828240623572" y="855.7296466973886" height="22.96466973886329" width="116.97561147205707"><title>MT 20-29
136,346</title></rect><rect x="273.214987410027" y="156.80491551459295" height="22.96466973886329" width="121.64576382093048"><title>NE 20-29
260,646</title></rect><rect x="255.6329486202315" y="506.2672811059908" height="22.96466973886329" width="121.48198559298271"><title>NV 20-29
392,834</title></rect><rect x="232.55596107880731" y="1255.115207373272" height="22.96466973886329" width="110.81889231135446"><title>NH 20-29
167,554</title></rect><rect x="249.8837791359185" y="930.6144393241168" height="22.96466973886329" width="112.26076445220522"><title>NJ 20-29
1,139,927</title></rect><rect x="265.7149119711293" y="356.4976958525346" height="22.96466973886329" width="122.17269186798279"><title>NM 20-29
289,801</title></rect><rect x="242.4203448191307" y="1030.4608294930877" height="22.96466973886329" width="129.00982842607542"><title>NY 20-29
2,894,266</title></rect><rect x="256.1673864591561" y="680.9984639016898" height="22.96466973886329" width="119.25691461516084"><title>NC 20-29
1,350,242</title></rect><rect x="257.25892942042645" y="231.68970814132106" height="22.96466973886329" width="148.4984310518608"><title>ND 20-29
124,509</title></rect><rect x="253.77118827134785" y="880.6912442396314" height="22.96466973886329" width="116.35533174804283"><title>OH 20-29
1,535,538</title></rect><rect x="269.40565266337575" y="206.72811059907835" height="22.96466973886329" width="125.17312439476939"><title>OK 20-29
552,528</title></rect><rect x="241.6144593016992" y="1005.4992319508449" height="22.96466973886329" width="118.74826273577335"><title>OR 20-29
538,596</title></rect><rect x="240.63720796744235" y="1055.4224270353302" height="22.96466973886329" width="117.61045439928438"><title>PA 20-29
1,712,448</title></rect><rect x="236.71019098313778" y="1230.1536098310294" height="22.96466973886329" width="127.95346001056427"><title>RI 20-29
153,674</title></rect><rect x="251.3312835278166" y="805.8064516129033" height="22.96466973886329" width="121.22711038440565"><title>SC 20-29
667,523</title></rect><rect x="271.1488077193328" y="131.84331797235023" height="22.96466973886329" width="120.44389924070975"><title>SD 20-29
116,748</title></rect><rect x="252.75491771620955" y="705.9600614439324" height="22.96466973886329" width="120.0526581438724"><title>TN 20-29
895,337</title></rect><rect x="287.1036371092839" y="56.958525345622135" height="22.96466973886329" width="128.54001154084352"><title>TX 20-29
3,946,447</title></rect><rect x="325.59449767621845" y="31.996927803379435" height="22.96466973886329" width="138.5356605403491"><title>UT 20-29
465,219</title></rect><rect x="230.65258706999927" y="1305.0384024577575" height="22.96466973886329" width="114.63438664173518"><title>VT 20-29
81,765</title></rect><rect x="251.7730765708727" y="780.8448540706605" height="22.96466973886329" width="123.67983446086967"><title>VA 20-29
1,170,634</title></rect><rect x="250.780478163465" y="581.1520737327189" height="22.96466973886329" width="124.68112265744261"><title>WA 20-29
1,004,428</title></rect><rect x="232.3979259971875" y="1105.3456221198157" height="22.96466973886329" width="110.35187087100749"><title>WV 20-29
232,027</title></rect><rect x="252.8828216038165" y="905.652841781874" height="22.96466973886329" width="116.09855949765736"><title>WI 20-29
760,961</title></rect><rect x="261.5395220477883" y="281.61290322580646" height="22.96466973886329" width="124.83846258076352"><title>WY 20-29
82,898</title></rect><rect x="246.22390473127749" y="1180.2304147465438" height="22.96466973886329" width="119.45467893131521"><title>PR 20-29
480,184</title></rect></g><g fill="#fee08b"><rect x="374.3930372943366" y="830.768049155146" height="22.96466973886329" width="109.3632469381331"><title>AL 30-39
603,013</title></rect><rect x="420.04335724124815" y="81.92012288786484" height="22.96466973886329" width="121.54769120111825"><title>AK 30-39
102,008</title></rect><rect x="388.1408247241578" y="381.45929339477726" height="22.96466973886329" width="111.83544633583"><title>AZ 30-39
857,054</title></rect><rect x="381.6942992893313" y="406.42089093702" height="22.96466973886329" width="110.32350785185105"><title>AR 30-39
372,998</title></rect><rect x="393.8415199111837" y="481.3056835637481" height="22.96466973886329" width="121.61445861803497"><title>CA 30-39
5,354,112</title></rect><rect x="385.30666440268715" y="556.1904761904763" height="22.96466973886329" width="125.55446117446417"><title>CO 30-39
766,382</title></rect><rect x="358.52658468414995" y="1130.3072196620583" height="22.96466973886329" width="103.95601033280661"><title>CT 30-39
424,890</title></rect><rect x="365.89527064978404" y="955.5760368663595" height="22.96466973886329" width="107.14437757771248"><title>DE 30-39
114,063</title></rect><rect x="395.23235342764656" y="1080.3840245775732" height="22.96466973886329" width="161.9015218305061"><title>DC 30-39
121,520</title></rect><rect x="344.474215116333" y="1155.2688172043013" height="22.96466973886329" width="106.4189090534772"><title>FL 30-39
2,416,176</title></rect><rect x="395.47115568176866" y="256.6513056835638" height="22.96466973886329" width="117.9911498992011"><title>GA 30-39
1,357,210</title></rect><rect x="368.1013586593221" y="730.9216589861751" height="22.96466973886329" width="116.50786285088566"><title>HI 30-39
187,590</title></rect><rect x="403.02691498474746" y="106.88172043010755" height="22.96466973886329" width="112.46891591046801"><title>ID 30-39
209,500</title></rect><rect x="380.156881386128" y="631.0752688172043" height="22.96466973886329" width="117.64027282339026"><title>IL 30-39
1,721,954</title></rect><rect x="386.3140179841561" y="431.3824884792627" height="22.96466973886329" width="110.20151942962048"><title>IN 30-39
827,086</title></rect><rect x="380.4084801690857" y="531.2288786482335" height="22.96466973886329" width="108.42572480621027"><title>IA 30-39
383,638</title></rect><rect x="396.79586528893554" y="181.76651305683566" height="22.96466973886329" width="111.70258069235263"><title>KS 30-39
368,732</title></rect><rect x="373.34024858176195" y="656.036866359447" height="22.96466973886329" width="111.08379417990392"><title>KY 30-39
558,201</title></rect><rect x="392.7346324642085" y="331.5360983102919" height="22.96466973886329" width="116.3084889800611"><title>LA 30-39
615,411</title></rect><rect x="327.14230523120506" y="1280.0768049155145" height="22.96466973886329" width="97.50655489077184"><title>ME 30-39
147,695</title></rect><rect x="372.0761925279978" y="755.8832565284179" height="22.96466973886329" width="115.51149096075744"><title>MD 30-39
784,097</title></rect><rect x="364.86993705117186" y="1205.1920122887864" height="22.96466973886329" width="110.34098030848656"><title>MA 30-39
847,306</title></rect><rect x="370.5531779284733" y="980.5376344086021" height="22.96466973886329" width="102.97078671187535"><title>MI 30-39
1,162,186</title></rect><rect x="376.99235974894265" y="456.3440860215054" height="22.96466973886329" width="115.26272035939962"><title>MN 30-39
715,583</title></rect><rect x="392.98870597807024" y="306.5745007680492" height="22.96466973886329" width="110.06575422388391"><title>MS 30-39
374,724</title></rect><rect x="376.0921798961689" y="606.1136712749616" height="22.96466973886329" width="110.55352131665666"><title>MO 30-39
763,002</title></rect><rect x="363.4438938782928" y="855.7296466973886" height="22.96466973886329" width="107.24494548027093"><title>MT 30-39
125,004</title></rect><rect x="394.8607512309575" y="156.80491551459295" height="22.96466973886329" width="113.98707355021287"><title>NE 30-39
244,236</title></rect><rect x="377.1149342132142" y="506.2672811059908" height="22.96466973886329" width="120.68629797701584"><title>NV 30-39
390,261</title></rect><rect x="343.3748533901618" y="1255.115207373272" height="22.96466973886329" width="100.14071681947235"><title>NH 30-39
151,409</title></rect><rect x="362.1445435881237" y="930.6144393241168" height="22.96466973886329" width="112.60790878223168"><title>NJ 30-39
1,143,452</title></rect><rect x="387.8876038391121" y="356.4976958525346" height="22.96466973886329" width="109.85344382616728"><title>NM 30-39
260,579</title></rect><rect x="371.4301732452061" y="1030.4608294930877" height="22.96466973886329" width="116.13182808318868"><title>NY 30-39
2,605,355</title></rect><rect x="375.42430107431693" y="680.9984639016898" height="22.96466973886329" width="112.079288365114"><title>NC 30-39
1,268,976</title></rect><rect x="405.75736047228725" y="231.68970814132106" height="22.96466973886329" width="112.96156824177285"><title>ND 30-39
94,713</title></rect><rect x="370.1265200193907" y="880.6912442396314" height="22.96466973886329" width="105.98825626194173"><title>OH 30-39
1,398,724</title></rect><rect x="394.57877705814514" y="206.72811059907835" height="22.96466973886329" width="113.58845739318593"><title>OK 30-39
501,392</title></rect><rect x="360.36272203747257" y="1005.4992319508449" height="22.96466973886329" width="118.5654869449989"><title>OR 30-39
537,767</title></rect><rect x="358.24766236672673" y="1055.4224270353302" height="22.96466973886329" width="104.42126906204533"><title>PA 30-39
1,520,409</title></rect><rect x="364.66365099370205" y="1230.1536098310294" height="22.96466973886329" width="105.33009195905896"><title>RI 30-39
126,503</title></rect><rect x="372.55839391222224" y="805.8064516129033" height="22.96466973886329" width="108.32717419520316"><title>SC 30-39
596,491</title></rect><rect x="391.59270696004256" y="131.84331797235023" height="22.96466973886329" width="108.83878889570394"><title>SD 30-39
105,499</title></rect><rect x="372.80757586008195" y="705.9600614439324" height="22.96466973886329" width="112.27241960113378"><title>TN 30-39
837,313</title></rect><rect x="415.64364865012743" y="56.958525345622135" height="22.96466973886329" width="122.81033645584074"><title>TX 30-39
3,770,534</title></rect><rect x="464.13015821656757" y="31.996927803379435" height="22.96466973886329" width="129.83763206618312"><title>UT 30-39
436,010</title></rect><rect x="345.28697371173445" y="1305.0384024577575" height="22.96466973886329" width="98.26886110796181"><title>VT 30-39
70,092</title></rect><rect x="375.45291103174236" y="780.8448540706605" height="22.96466973886329" width="117.49676191030869"><title>VA 30-39
1,112,111</title></rect><rect x="375.4616008209076" y="581.1520737327189" height="22.96466973886329" width="120.48361704961269"><title>WA 30-39
970,613</title></rect><rect x="342.749796868195" y="1105.3456221198157" height="22.96466973886329" width="104.86678453728194"><title>WV 30-39
220,494</title></rect><rect x="368.98138110147386" y="905.652841781874" height="22.96466973886329" width="109.00687773923602"><title>WI 30-39
714,479</title></rect><rect x="386.3779846285518" y="281.61290322580646" height="22.96466973886329" width="115.82397445067062"><title>WY 30-39
76,912</title></rect><rect x="365.6785836625927" y="1180.2304147465438" height="22.96466973886329" width="109.91639506599597"><title>PR 30-39
441,842</title></rect></g><g fill="#ffffbf"><rect x="483.7562842324697" y="830.768049155146" height="22.96466973886329" width="113.45947420909516"><title>AL 40-49
625,599</title></rect><rect x="541.5910484423664" y="81.92012288786484" height="22.96466973886329" width="109.0733482164062"><title>AK 40-49
91,539</title></rect><rect x="499.9762710599878" y="381.45929339477726" height="22.96466973886329" width="108.73452440241084"><title>AZ 40-49
833,290</title></rect><rect x="492.01780714118235" y="406.42089093702" height="22.96466973886329" width="109.48321089099028"><title>AR 40-49
370,157</title></rect><rect x="515.4559785292187" y="481.3056835637481" height="22.96466973886329" width="117.64278702296974"><title>CA 40-49
5,179,258</title></rect><rect x="510.8611255771513" y="556.1904761904763" height="22.96466973886329" width="115.57212282585675"><title>CO 40-49
705,450</title></rect><rect x="462.48259501695657" y="1130.3072196620583" height="22.96466973886329" width="121.41902484833793"><title>CT 40-49
496,265</title></rect><rect x="473.0396482274965" y="955.5760368663595" height="22.96466973886329" width="110.45556464943104"><title>DE 40-49
117,588</title></rect><rect x="557.1338752581527" y="1080.3840245775732" height="22.96466973886329" width="107.34369333347502"><title>DC 40-49
80,570</title></rect><rect x="450.8931241698102" y="1155.2688172043013" height="22.96466973886329" width="113.43957894802315"><title>FL 40-49
2,575,576</title></rect><rect x="513.4623055809698" y="256.6513056835638" height="22.96466973886329" width="122.11959260623485"><title>GA 40-49
1,404,698</title></rect><rect x="484.60922151020776" y="730.9216589861751" height="22.96466973886329" width="109.87103240989956"><title>HI 40-49
176,904</title></rect><rect x="515.4958308952155" y="106.88172043010755" height="22.96466973886329" width="104.51180721536093"><title>ID 40-49
194,678</title></rect><rect x="497.7971542095183" y="631.0752688172043" height="22.96466973886329" width="115.94018200260763"><title>IL 40-49
1,697,069</title></rect><rect x="496.5155374137766" y="431.3824884792627" height="22.96466973886329" width="112.46301386826286"><title>IN 40-49
844,059</title></rect><rect x="488.83420497529596" y="531.2288786482335" height="22.96466973886329" width="104.77449125069325"><title>IA 40-49
370,719</title></rect><rect x="508.49844598128817" y="181.76651305683566" height="22.96466973886329" width="104.33969593125875"><title>KS 40-49
344,427</title></rect><rect x="484.4240427616659" y="656.036866359447" height="22.96466973886329" width="115.53191406415567"><title>KY 40-49
580,553</title></rect><rect x="509.0431214442696" y="331.5360983102919" height="22.96466973886329" width="108.10240460471795"><title>LA 40-49
571,991</title></rect><rect x="424.6488601219769" y="1280.0768049155145" height="22.96466973886329" width="116.79264438617872"><title>ME 40-49
176,908</title></rect><rect x="487.58768348875526" y="755.8832565284179" height="22.96466973886329" width="120.19295787078374"><title>MD 40-49
815,875</title></rect><rect x="475.2109173596584" y="1205.1920122887864" height="22.96466973886329" width="119.30050549209648"><title>MA 40-49
916,106</title></rect><rect x="473.52396464034865" y="980.5376344086021" height="22.96466973886329" width="113.68583151691297"><title>MI 40-49
1,283,122</title></rect><rect x="492.25508010834227" y="456.3440860215054" height="22.96466973886329" width="111.49645854568479"><title>MN 40-49
692,201</title></rect><rect x="503.05446020195416" y="306.5745007680492" height="22.96466973886329" width="110.78273660574496"><title>MS 40-49
377,165</title></rect><rect x="486.64570121282554" y="606.1136712749616" height="22.96466973886329" width="108.81292371458346"><title>MO 40-49
750,989</title></rect><rect x="470.6888393585637" y="855.7296466973886" height="22.96466973886329" width="99.95080668092652"><title>MT 40-49
116,502</title></rect><rect x="508.84782478117035" y="156.80491551459295" height="22.96466973886329" width="103.83289169646497"><title>NE 40-49
222,479</title></rect><rect x="497.80123219023005" y="506.2672811059908" height="22.96466973886329" width="119.76196440370643"><title>NV 40-49
387,272</title></rect><rect x="443.5155702096341" y="1255.115207373272" height="22.96466973886329" width="120.83832126933055"><title>NH 40-49
182,703</title></rect><rect x="474.7524523703554" y="930.6144393241168" height="22.96466973886329" width="123.55403425242628"><title>NJ 40-49
1,254,602</title></rect><rect x="497.7410476652794" y="356.4976958525346" height="22.96466973886329" width="103.01002607711536"><title>NM 40-49
244,346</title></rect><rect x="487.5620013283948" y="1030.4608294930877" height="22.96466973886329" width="116.66547138546866"><title>NY 40-49
2,617,327</title></rect><rect x="487.5035894394309" y="680.9984639016898" height="22.96466973886329" width="119.91968757532072"><title>NC 40-49
1,357,746</title></rect><rect x="518.7189287140601" y="231.68970814132106" height="22.96466973886329" width="95.8037850364459"><title>ND 40-49
80,327</title></rect><rect x="476.1147762813324" y="880.6912442396314" height="22.96466973886329" width="112.97735977079708"><title>OH 40-49
1,490,959</title></rect><rect x="508.16723445133107" y="206.72811059907835" height="22.96466973886329" width="106.3430565005732"><title>OK 40-49
469,410</title></rect><rect x="478.92820898247146" y="1005.4992319508449" height="22.96466973886329" width="111.96417216625605"><title>OR 40-49
507,826</title></rect><rect x="462.66893142877205" y="1055.4224270353302" height="22.96466973886329" width="112.99813023756218"><title>PA 40-49
1,645,291</title></rect><rect x="469.993742952761" y="1230.1536098310294" height="22.96466973886329" width="114.81290594229819"><title>RI 40-49
137,892</title></rect><rect x="480.8855681074254" y="805.8064516129033" height="22.96466973886329" width="112.55880801016843"><title>SC 40-49
619,792</title></rect><rect x="500.4314958557465" y="131.84331797235023" height="22.96466973886329" width="99.33619565294026"><title>SD 40-49
96,288</title></rect><rect x="485.07999546121573" y="705.9600614439324" height="22.96466973886329" width="116.16495243057841"><title>TN 40-49
866,343</title></rect><rect x="538.4539851059682" y="56.958525345622135" height="22.96466973886329" width="115.48875020009143"><title>TX 40-49
3,545,746</title></rect><rect x="593.9677902827507" y="31.996927803379435" height="22.96466973886329" width="97.84321673895931"><title>UT 40-49
328,569</title></rect><rect x="443.55583481969626" y="1305.0384024577575" height="22.96466973886329" width="112.13462376786237"><title>VT 40-49
79,982</title></rect><rect x="492.94967294205105" y="780.8448540706605" height="22.96466973886329" width="119.90742381052144"><title>VA 40-49
1,134,928</title></rect><rect x="495.9452178705203" y="581.1520737327189" height="22.96466973886329" width="114.35052945323059"><title>WA 40-49
921,205</title></rect><rect x="447.61658140547695" y="1105.3456221198157" height="22.96466973886329" width="113.29630592624858"><title>WV 40-49
238,218</title></rect><rect x="477.9882588407099" y="905.652841781874" height="22.96466973886329" width="111.72274682795108"><title>WI 40-49
732,280</title></rect><rect x="502.20195907922243" y="281.61290322580646" height="22.96466973886329" width="103.10189030048241"><title>WY 40-49
68,464</title></rect><rect x="475.59497872858867" y="1180.2304147465438" height="22.96466973886329" width="113.44069915863531"><title>PR 40-49
456,009</title></rect></g><g fill="#e6f598"><rect x="597.2157584415648" y="830.768049155146" height="22.96466973886329" width="122.21287938190073"><title>AL 50-59
673,864</title></rect><rect x="650.6643966587726" y="81.92012288786484" height="22.96466973886329" width="124.59925222737161"><title>AK 50-59
104,569</title></rect><rect x="608.7107954623987" y="381.45929339477726" height="22.96466973886329" width="108.9391299230133"><title>AZ 50-59
834,858</title></rect><rect x="601.5010180321726" y="406.42089093702" height="22.96466973886329" width="116.85185509582027"><title>AR 50-59
395,070</title></rect><rect x="633.0987655521884" y="481.3056835637481" height="22.96466973886329" width="114.52721424416268"><title>CA 50-59
5,042,094</title></rect><rect x="626.4332484030081" y="556.1904761904763" height="22.96466973886329" width="118.88324079939605"><title>CO 50-59
725,661</title></rect><rect x="583.9016198652945" y="1130.3072196620583" height="22.96466973886329" width="133.67579788049272"><title>CT 50-59
546,361</title></rect><rect x="583.4952128769276" y="955.5760368663595" height="22.96466973886329" width="125.24365488207377"><title>DE 50-59
133,331</title></rect><rect x="664.4775685916277" y="1080.3840245775732" height="22.96466973886329" width="99.6283237406468"><title>DC 50-59
74,779</title></rect><rect x="564.3327031178334" y="1155.2688172043013" height="22.96466973886329" width="121.6937990416692"><title>FL 50-59
2,762,983</title></rect><rect x="635.5818981872046" y="256.6513056835638" height="22.96466973886329" width="116.31979479806546"><title>GA 50-59
1,337,985</title></rect><rect x="594.4802539201073" y="730.9216589861751" height="22.96466973886329" width="117.03453627536203"><title>HI 50-59
188,438</title></rect><rect x="620.0076381105764" y="106.88172043010755" height="22.96466973886329" width="110.14437936682907"><title>ID 50-59
205,170</title></rect><rect x="613.7373362121259" y="631.0752688172043" height="22.96466973886329" width="121.1526324487902"><title>IL 50-59
1,773,366</title></rect><rect x="608.9785512820395" y="431.3824884792627" height="22.96466973886329" width="121.48594098134959"><title>IN 50-59
911,778</title></rect><rect x="593.6086962259892" y="531.2288786482335" height="22.96466973886329" width="120.83748831918217"><title>IA 50-59
427,554</title></rect><rect x="612.8381419125469" y="181.76651305683566" height="22.96466973886329" width="118.09515811381311"><title>KS 50-59
389,834</title></rect><rect x="599.9559568258215" y="656.036866359447" height="22.96466973886329" width="124.01164010155048"><title>KY 50-59
623,164</title></rect><rect x="617.1455260489876" y="331.5360983102919" height="22.96466973886329" width="119.4316014697556"><title>LA 50-59
631,936</title></rect><rect x="541.4415045081556" y="1280.0768049155145" height="22.96466973886329" width="142.46011686390875"><title>ME 50-59
215,787</title></rect><rect x="607.780641359539" y="755.8832565284179" height="22.96466973886329" width="127.1026073918664"><title>MD 50-59
862,778</title></rect><rect x="594.5114228517549" y="1205.1920122887864" height="22.96466973886329" width="127.5075868310712"><title>MA 50-59
979,128</title></rect><rect x="587.2097961572616" y="980.5376344086021" height="22.96466973886329" width="128.8667187373859"><title>MI 50-59
1,454,462</title></rect><rect x="603.7515386540271" y="456.3440860215054" height="22.96466973886329" width="126.06636044020865"><title>MN 50-59
782,655</title></rect><rect x="613.8371968076991" y="306.5745007680492" height="22.96466973886329" width="117.53811464770399"><title>MS 50-59
400,164</title></rect><rect x="595.458624927409" y="606.1136712749616" height="22.96466973886329" width="124.25053059986453"><title>MO 50-59
857,534</title></rect><rect x="570.6396460394902" y="855.7296466973886" height="22.96466973886329" width="128.51823008019403"><title>MT 50-59
149,800</title></rect><rect x="612.6807164776353" y="156.80491551459295" height="22.96466973886329" width="117.10235432760715"><title>NE 50-59
250,911</title></rect><rect x="617.5631965939365" y="506.2672811059908" height="22.96466973886329" width="115.5825170155241"><title>NV 50-59
373,757</title></rect><rect x="564.3538914789647" y="1255.115207373272" height="22.96466973886329" width="144.15040869964128"><title>NH 50-59
217,950</title></rect><rect x="598.3064866227817" y="930.6144393241168" height="22.96466973886329" width="128.74012434136853"><title>NJ 50-59
1,307,263</title></rect><rect x="600.7510737423947" y="356.4976958525346" height="22.96466973886329" width="118.19387238202512"><title>NM 50-59
280,363</title></rect><rect x="604.2274727138634" y="1030.4608294930877" height="22.96466973886329" width="122.82978254502598"><title>NY 50-59
2,755,620</title></rect><rect x="607.4232770147516" y="680.9984639016898" height="22.96466973886329" width="119.7758100230684"><title>NC 50-59
1,356,117</title></rect><rect x="614.522713750506" y="231.68970814132106" height="22.96466973886329" width="117.7024404954343"><title>ND 50-59
98,688</title></rect><rect x="589.0921360521295" y="880.6912442396314" height="22.96466973886329" width="127.13477457078625"><title>OH 50-59
1,677,794</title></rect><rect x="614.5102909519043" y="206.72811059907835" height="22.96466973886329" width="116.18422386893951"><title>OK 50-59
512,850</title></rect><rect x="590.8923811487275" y="1005.4992319508449" height="22.96466973886329" width="117.82776945895375"><title>OR 50-59
534,421</title></rect><rect x="575.6670616663342" y="1055.4224270353302" height="22.96466973886329" width="129.21252001626726"><title>PA 50-59
1,881,378</title></rect><rect x="584.8066488950592" y="1230.1536098310294" height="22.96466973886329" width="129.99589944342813"><title>RI 50-59
156,127</title></rect><rect x="593.4443761175938" y="805.8064516129033" height="22.96466973886329" width="120.47979597092194"><title>SC 50-59
663,408</title></rect><rect x="599.7676915086868" y="131.84331797235023" height="22.96466973886329" width="120.71625670635831"><title>SD 50-59
117,012</title></rect><rect x="601.2449478917941" y="705.9600614439324" height="22.96466973886329" width="121.25072155520866"><title>TN 50-59
904,272</title></rect><rect x="653.9427353060596" y="56.958525345622135" height="22.96466973886329" width="108.94795769544442"><title>TX 50-59
3,344,930</title></rect><rect x="691.81100702171" y="31.996927803379435" height="22.96466973886329" width="89.8110375464613"><title>UT 50-59
301,596</title></rect><rect x="555.6904585875586" y="1305.0384024577575" height="22.96466973886329" width="139.52826751020746"><title>VT 50-59
99,521</title></rect><rect x="612.8570967525725" y="780.8448540706605" height="22.96466973886329" width="122.77059326731955"><title>VA 50-59
1,162,028</title></rect><rect x="610.2957473237509" y="581.1520737327189" height="22.96466973886329" width="120.45804596709854"><title>WA 50-59
970,407</title></rect><rect x="560.9128873317255" y="1105.3456221198157" height="22.96466973886329" width="128.10075987545565"><title>WV 50-59
269,346</title></rect><rect x="589.711005668661" y="905.652841781874" height="22.96466973886329" width="129.48048150430293"><title>WI 50-59
848,672</title></rect><rect x="605.3038493797048" y="281.61290322580646" height="22.96466973886329" width="122.00731696021978"><title>WY 50-59
81,018</title></rect><rect x="589.035677887224" y="1180.2304147465438" height="22.96466973886329" width="112.56851661125086"><title>PR 50-59
452,503</title></rect></g><g fill="#abdda4"><rect x="719.4286378234656" y="830.768049155146" height="22.96466973886329" width="99.45420729394823"><title>AL 60-69
548,376</title></rect><rect x="775.2636488861442" y="81.92012288786484" height="22.96466973886329" width="83.97214377319824"><title>AK 60-69
70,473</title></rect><rect x="717.649925385412" y="381.45929339477726" height="22.96466973886329" width="96.2851657935995"><title>AZ 60-69
737,884</title></rect><rect x="718.3528731279929" y="406.42089093702" height="22.96466973886329" width="97.52709542148284"><title>AR 60-69
329,734</title></rect><rect x="747.6259797963511" y="481.3056835637481" height="22.96466973886329" width="84.89349795465989"><title>CA 60-69
3,737,461</title></rect><rect x="745.3164892024041" y="556.1904761904763" height="22.96466973886329" width="92.29649198262086"><title>CO 60-69
563,376</title></rect><rect x="717.5774177457872" y="1130.3072196620583" height="22.96466973886329" width="98.10972337170517"><title>CT 60-69
400,995</title></rect><rect x="708.7388677590013" y="955.5760368663595" height="22.96466973886329" width="104.09996415943169"><title>DE 60-69
110,822</title></rect><rect x="764.1058923322745" y="1080.3840245775732" height="22.96466973886329" width="75.91998288339005"><title>DC 60-69
56,984</title></rect><rect x="686.0265021595026" y="1155.2688172043013" height="22.96466973886329" width="105.91165023807264"><title>FL 60-69
2,404,659</title></rect><rect x="751.9016929852701" y="256.6513056835638" height="22.96466973886329" width="86.78466807666257"><title>GA 60-69
998,253</title></rect><rect x="711.5147901954693" y="730.9216589861751" height="22.96466973886329" width="102.45102368086532"><title>HI 60-69
164,957</title></rect><rect x="730.1520174774055" y="106.88172043010755" height="22.96466973886329" width="96.32546593269387"><title>ID 60-69
179,429</title></rect><rect x="734.8899686609161" y="631.0752688172043" height="22.96466973886329" width="90.5977954328788"><title>IL 60-69
1,326,121</title></rect><rect x="730.464492263389" y="431.3824884792627" height="22.96466973886329" width="93.87113924442497"><title>IN 60-69
704,523</title></rect><rect x="714.4461845451714" y="531.2288786482335" height="22.96466973886329" width="97.23348856253597"><title>IA 60-69
344,037</title></rect><rect x="730.93330002636" y="181.76651305683566" height="22.96466973886329" width="91.11104126154305"><title>KS 60-69
300,759</title></rect><rect x="723.967596927372" y="656.036866359447" height="22.96466973886329" width="98.65305829184967"><title>KY 60-69
495,736</title></rect><rect x="736.5771275187432" y="331.5360983102919" height="22.96466973886329" width="92.38856569665961"><title>LA 60-69
488,846</title></rect><rect x="683.9016213720644" y="1280.0768049155145" height="22.96466973886329" width="118.53026077449579"><title>ME 60-69
179,540</title></rect><rect x="734.8832487514054" y="755.8832565284179" height="22.96466973886329" width="93.73967927660556"><title>MD 60-69
636,309</title></rect><rect x="722.0190096828261" y="1205.1920122887864" height="22.96466973886329" width="96.08114066996211"><title>MA 60-69
737,805</title></rect><rect x="716.0765148946475" y="980.5376344086021" height="22.96466973886329" width="101.72550032291906"><title>MI 60-69
1,148,131</title></rect><rect x="729.8178990942357" y="456.3440860215054" height="22.96466973886329" width="92.99084366012903"><title>MN 60-69
577,313</title></rect><rect x="731.3753114554031" y="306.5745007680492" height="22.96466973886329" width="93.82835026990563"><title>MS 60-69
319,443</title></rect><rect x="719.7091555272735" y="606.1136712749616" height="22.96466973886329" width="96.91562830928706"><title>MO 60-69
668,878</title></rect><rect x="699.1578761196843" y="855.7296466973886" height="22.96466973886329" width="112.36937397338852"><title>MT 60-69
130,977</title></rect><rect x="729.7830708052425" y="156.80491551459295" height="22.96466973886329" width="91.33723214081635"><title>NE 60-69
195,705</title></rect><rect x="733.1457136094606" y="506.2672811059908" height="22.96466973886329" width="95.75805129101013"><title>NV 60-69
309,651</title></rect><rect x="708.504300178606" y="1255.115207373272" height="22.96466973886329" width="108.65812431308996"><title>NH 60-69
164,287</title></rect><rect x="727.0466109641502" y="930.6144393241168" height="22.96466973886329" width="93.20199909011933"><title>NJ 60-69
946,399</title></rect><rect x="718.9449461244199" y="356.4976958525346" height="22.96466973886329" width="100.77483844048197"><title>NM 60-69
239,044</title></rect><rect x="727.0572552588894" y="1030.4608294930877" height="22.96466973886329" width="93.39234734717263"><title>NY 60-69
2,095,207</title></rect><rect x="727.19908703782" y="680.9984639016898" height="22.96466973886329" width="96.74153501096691"><title>NC 60-69
1,095,320</title></rect><rect x="732.2251542459403" y="231.68970814132106" height="22.96466973886329" width="88.04902996894691"><title>ND 60-69
73,825</title></rect><rect x="716.2269106229157" y="880.6912442396314" height="22.96466973886329" width="100.0817496179535"><title>OH 60-69
1,320,776</title></rect><rect x="730.6945148208438" y="206.72811059907835" height="22.96466973886329" width="91.68415742742593"><title>OK 60-69
404,704</title></rect><rect x="708.7201506076813" y="1005.4992319508449" height="22.96466973886329" width="108.23104829485305"><title>OR 60-69
490,894</title></rect><rect x="704.8795816826015" y="1055.4224270353302" height="22.96466973886329" width="102.43827941805591"><title>PA 60-69
1,491,536</title></rect><rect x="714.8025483384873" y="1230.1536098310294" height="22.96466973886329" width="97.96132352006794"><title>RI 60-69
117,653</title></rect><rect x="713.9241720885158" y="805.8064516129033" height="22.96466973886329" width="105.30613524786406"><title>SC 60-69
579,856</title></rect><rect x="720.4839482150451" y="131.84331797235023" height="22.96466973886329" width="95.76253557336861"><title>SD 60-69
92,824</title></rect><rect x="722.4956694470028" y="705.9600614439324" height="22.96466973886329" width="99.36417466744467"><title>TN 60-69
741,045</title></rect><rect x="762.890693001504" y="56.958525345622135" height="22.96466973886329" width="79.19636747218237"><title>TX 60-69
2,431,494</title></rect><rect x="781.6220445681713" y="31.996927803379435" height="22.96466973886329" width="68.49284245463764"><title>UT 60-69
230,007</title></rect><rect x="695.2187260977661" y="1305.0384024577575" height="22.96466973886329" width="115.15452799126228"><title>VT 60-69
82,136</title></rect><rect x="735.627690019892" y="780.8448540706605" height="22.96466973886329" width="93.16003283154237"><title>VA 60-69
881,763</title></rect><rect x="730.7537932908494" y="581.1520737327189" height="22.96466973886329" width="97.34489066110041"><title>WA 60-69
784,208</title></rect><rect x="689.0136472071812" y="1105.3456221198157" height="22.96466973886329" width="115.62198633654236"><title>WV 60-69
243,108</title></rect><rect x="719.1914871729639" y="905.652841781874" height="22.96466973886329" width="98.40887030265878"><title>WI 60-69
645,015</title></rect><rect x="727.3111663399246" y="281.61290322580646" height="22.96466973886329" width="101.62608034934794"><title>WY 60-69
67,484</title></rect><rect x="701.6041944984748" y="1180.2304147465438" height="22.96466973886329" width="102.47373749250937"><title>PR 60-69
411,924</title></rect></g><g fill="#66c2a5"><rect x="818.8828451174138" y="830.768049155146" height="22.96466973886329" width="57.418638162227126"><title>AL 70-79
316,598</title></rect><rect x="859.2357926593425" y="81.92012288786484" height="22.96466973886329" width="33.866250483473664"><title>AK 70-79
28,422</title></rect><rect x="813.9350911790115" y="381.45929339477726" height="22.96466973886329" width="60.82747273309042"><title>AZ 70-79
466,153</title></rect><rect x="815.8799685494757" y="406.42089093702" height="22.96466973886329" width="58.55902632734967"><title>AR 70-79
197,985</title></rect><rect x="832.519477751011" y="481.3056835637481" height="22.96466973886329" width="45.69368942670826"><title>CA 70-79
2,011,678</title></rect><rect x="837.612981185025" y="556.1904761904763" height="22.96466973886329" width="44.96508365372688"><title>CO 70-79
274,466</title></rect><rect x="815.6871411174924" y="1130.3072196620583" height="22.96466973886329" width="53.29479597722775"><title>CT 70-79
217,827</title></rect><rect x="812.838831918433" y="955.5760368663595" height="22.96466973886329" width="61.403968139339554"><title>DE 70-79
65,369</title></rect><rect x="840.0258752156645" y="1080.3840245775732" height="22.96466973886329" width="41.78370249875195"><title>DC 70-79
31,362</title></rect><rect x="791.9381523975752" y="1155.2688172043013" height="22.96466973886329" width="71.15572262311116"><title>FL 70-79
1,615,547</title></rect><rect x="838.6863610619326" y="256.6513056835638" height="22.96466973886329" width="45.91188555269059"><title>GA 70-79
528,108</title></rect><rect x="813.9658138763347" y="730.9216589861751" height="22.96466973886329" width="53.00582949522277"><title>HI 70-79
85,345</title></rect><rect x="826.4774834100994" y="106.88172043010755" height="22.96466973886329" width="52.40729374747389"><title>ID 70-79
97,621</title></rect><rect x="825.4877640937949" y="631.0752688172043" height="22.96466973886329" width="49.79151666038479"><title>IL 70-79
728,821</title></rect><rect x="824.335631507814" y="431.3824884792627" height="22.96466973886329" width="51.26942332270744"><title>IN 70-79
384,788</title></rect><rect x="811.6796731077073" y="531.2288786482335" height="22.96466973886329" width="55.74016839691376"><title>IA 70-79
197,223</title></rect><rect x="822.0443412879031" y="181.76651305683566" height="22.96466973886329" width="50.31905411877062"><title>KS 70-79
166,104</title></rect><rect x="822.6206552192217" y="656.036866359447" height="22.96466973886329" width="54.519120061269405"><title>KY 70-79
273,961</title></rect><rect x="828.9656932154028" y="331.5360983102919" height="22.96466973886329" width="50.295435104086096"><title>LA 70-79
266,123</title></rect><rect x="802.4318821465602" y="1280.0768049155145" height="22.96466973886329" width="64.63180349539039"><title>ME 70-79
97,899</title></rect><rect x="828.622928028011" y="755.8832565284179" height="22.96466973886329" width="48.723319276055236"><title>MD 70-79
330,736</title></rect><rect x="818.1001503527882" y="1205.1920122887864" height="22.96466973886329" width="52.341728438569135"><title>MA 70-79
401,931</title></rect><rect x="817.8020152175666" y="980.5376344086021" height="22.96466973886329" width="54.90795955437159"><title>MI 70-79
619,722</title></rect><rect x="822.8087427543647" y="456.3440860215054" height="22.96466973886329" width="50.401416434960424"><title>MN 70-79
312,906</title></rect><rect x="825.2036617253087" y="306.5745007680492" height="22.96466973886329" width="53.221475903856344"><title>MS 70-79
181,195</title></rect><rect x="816.6247838365606" y="606.1136712749616" height="22.96466973886329" width="56.23087996321897"><title>MO 70-79
388,086</title></rect><rect x="811.5272500930728" y="855.7296466973886" height="22.96466973886329" width="60.50823585511296"><title>MT 70-79
70,528</title></rect><rect x="821.1203029460588" y="156.80491551459295" height="22.96466973886329" width="50.24119485939991"><title>NE 70-79
107,650</title></rect><rect x="828.9037649004707" y="506.2672811059908" height="22.96466973886329" width="53.65371382924309"><title>NV 70-79
173,499</title></rect><rect x="817.1624244916959" y="1255.115207373272" height="22.96466973886329" width="56.08009774742504"><title>NH 70-79
84,791</title></rect><rect x="820.2486100542695" y="930.6144393241168" height="22.96466973886329" width="51.56644371303048"><title>NJ 70-79
523,620</title></rect><rect x="819.7197845649018" y="356.4976958525346" height="22.96466973886329" width="56.91802874100483"><title>NM 70-79
135,013</title></rect><rect x="820.4496026060621" y="1030.4608294930877" height="22.96466973886329" width="51.708618528777606"><title>NY 70-79
1,160,055</title></rect><rect x="823.940622048787" y="680.9984639016898" height="22.96466973886329" width="53.80914467084631"><title>NC 70-79
609,234</title></rect><rect x="820.2741842148872" y="231.68970814132106" height="22.96466973886329" width="49.314612816200906"><title>ND 70-79
41,348</title></rect><rect x="816.3086602408692" y="880.6912442396314" height="22.96466973886329" width="55.1761439020014"><title>OH 70-79
728,158</title></rect><rect x="822.3786722482697" y="206.72811059907835" height="22.96466973886329" width="54.345490711218304"><title>OK 70-79
239,887</title></rect><rect x="816.9511989025343" y="1005.4992319508449" height="22.96466973886329" width="56.40011129339143"><title>OR 70-79
255,809</title></rect><rect x="807.3178611006574" y="1055.4224270353302" height="22.96466973886329" width="58.43937031488713"><title>PA 70-79
850,897</title></rect><rect x="812.7638718585553" y="1230.1536098310294" height="22.96466973886329" width="52.754553618760156"><title>RI 70-79
63,359</title></rect><rect x="819.2303073363798" y="805.8064516129033" height="22.96466973886329" width="58.490837203866704"><title>SC 70-79
322,073</title></rect><rect x="816.2464837884137" y="131.84331797235023" height="22.96466973886329" width="51.99345285515221"><title>SD 70-79
50,398</title></rect><rect x="821.8598441144475" y="705.9600614439324" height="22.96466973886329" width="55.6377430147088"><title>TN 70-79
414,939</title></rect><rect x="842.0870604736864" y="56.958525345622135" height="22.96466973886329" width="42.06508419974671"><title>TX 70-79
1,291,486</title></rect><rect x="850.114887022809" y="31.996927803379435" height="22.96466973886329" width="36.82837390920645"><title>UT 70-79
123,674</title></rect><rect x="810.3732540890284" y="1305.0384024577575" height="22.96466973886329" width="60.25508064683538"><title>VT 70-79
42,978</title></rect><rect x="828.7877228514344" y="780.8448540706605" height="22.96466973886329" width="50.19960143441244"><title>VA 70-79
475,141</title></rect><rect x="828.0986839519499" y="581.1520737327189" height="22.96466973886329" width="49.78838723249885"><title>WA 70-79
401,094</title></rect><rect x="804.6356335437235" y="1105.3456221198157" height="22.96466973886329" width="65.69642899703797"><title>WV 70-79
138,134</title></rect><rect x="817.6003574756227" y="905.652841781874" height="22.96466973886329" width="53.51670310582574"><title>WI 70-79
350,772</title></rect><rect x="828.9372466892726" y="281.61290322580646" height="22.96466973886329" width="49.4230681492686"><title>WY 70-79
32,819</title></rect><rect x="804.0779319909842" y="1180.2304147465438" height="22.96466973886329" width="66.8647580244151"><title>PR 70-79
268,783</title></rect></g><g fill="#3288bd"><rect x="876.3014832796409" y="830.768049155146" height="22.96466973886329" width="31.698516720359066"><title>AL 80
174,781</title></rect><rect x="893.1020431428161" y="81.92012288786484" height="22.96466973886329" width="14.897956857183544"><title>AK 80
12,503</title></rect><rect x="874.7625639121019" y="381.45929339477726" height="22.96466973886329" width="33.23743608789789"><title>AZ 80
254,716</title></rect><rect x="874.4389948768254" y="406.42089093702" height="22.96466973886329" width="33.56100512317437"><title>AR 80
113,468</title></rect><rect x="878.2131671777192" y="481.3056835637481" height="22.96466973886329" width="29.78683282228053"><title>CA 80
1,311,374</title></rect><rect x="882.5780648387519" y="556.1904761904763" height="22.96466973886329" width="25.421935161247802"><title>CO 80
155,175</title></rect><rect x="868.9819370947201" y="1130.3072196620583" height="22.96466973886329" width="39.018062905279635"><title>CT 80
159,475</title></rect><rect x="874.2428000577726" y="955.5760368663595" height="22.96466973886329" width="33.75719994222709"><title>DE 80
35,937</title></rect><rect x="881.8095777144165" y="1080.3840245775732" height="22.96466973886329" width="26.19042228558328"><title>DC 80
19,658</title></rect><rect x="863.0938750206864" y="1155.2688172043013" height="22.96466973886329" width="44.906124979313404"><title>FL 80
1,019,566</title></rect><rect x="884.5982466146232" y="256.6513056835638" height="22.96466973886329" width="23.401753385376423"><title>GA 80
269,182</title></rect><rect x="866.9716433715574" y="730.9216589861751" height="22.96466973886329" width="41.02835662844234"><title>HI 80
66,060</title></rect><rect x="878.8847771575732" y="106.88172043010755" height="22.96466973886329" width="29.115222842426306"><title>ID 80
54,234</title></rect><rect x="875.2792807541797" y="631.0752688172043" height="22.96466973886329" width="32.72071924582008"><title>IL 80
478,948</title></rect><rect x="875.6050548305215" y="431.3824884792627" height="22.96466973886329" width="32.394945169478206"><title>IN 80
243,131</title></rect><rect x="867.4198415046211" y="531.2288786482335" height="22.96466973886329" width="40.58015849537867"><title>IA 80
143,583</title></rect><rect x="872.3633954066737" y="181.76651305683566" height="22.96466973886329" width="35.636604593325956"><title>KS 80
117,637</title></rect><rect x="877.1397752804911" y="656.036866359447" height="22.96466973886329" width="30.86022471950855"><title>KY 80
155,074</title></rect><rect x="879.2611283194889" y="331.5360983102919" height="22.96466973886329" width="28.738871680511124"><title>LA 80
152,063</title></rect><rect x="867.0636856419505" y="1280.0768049155145" height="22.96466973886329" width="40.93631435804923"><title>ME 80
62,007</title></rect><rect x="877.3462473040662" y="755.8832565284179" height="22.96466973886329" width="30.653752695933576"><title>MD 80
208,079</title></rect><rect x="870.4418787913573" y="1205.1920122887864" height="22.96466973886329" width="37.55812120864243"><title>MA 80
288,408</title></rect><rect x="872.7099747719382" y="980.5376344086021" height="22.96466973886329" width="35.29002522806161"><title>MI 80
398,303</title></rect><rect x="873.2101591893252" y="456.3440860215054" height="22.96466973886329" width="34.789840810674605"><title>MN 80
215,985</title></rect><rect x="878.4251376291651" y="306.5745007680492" height="22.96466973886329" width="29.57486237083458"><title>MS 80
100,689</title></rect><rect x="872.8556637997796" y="606.1136712749616" height="22.96466973886329" width="35.144336200220096"><title>MO 80
242,554</title></rect><rect x="872.0354859481857" y="855.7296466973886" height="22.96466973886329" width="35.964514051814035"><title>MT 80
41,920</title></rect><rect x="871.3614978054587" y="156.80491551459295" height="22.96466973886329" width="36.63850219454093"><title>NE 80
78,504</title></rect><rect x="882.5574787297138" y="506.2672811059908" height="22.96466973886329" width="25.44252127028585"><title>NV 80
82,273</title></rect><rect x="873.242522239121" y="1255.115207373272" height="22.96466973886329" width="34.75747776087883"><title>NH 80
52,552</title></rect><rect x="871.8150537673" y="930.6144393241168" height="22.96466973886329" width="36.184946232699644"><title>NJ 80
367,432</title></rect><rect x="876.6378133059067" y="356.4976958525346" height="22.96466973886329" width="31.362186694092884"><title>NM 80
74,393</title></rect><rect x="872.1582211348397" y="1030.4608294930877" height="22.96466973886329" width="35.84177886516011"><title>NY 80
804,091</title></rect><rect x="877.7497667196333" y="680.9984639016898" height="22.96466973886329" width="30.2502332803665"><title>NC 80
342,497</title></rect><rect x="869.5887970310881" y="231.68970814132106" height="22.96466973886329" width="38.41120296891165"><title>ND 80
32,206</title></rect><rect x="871.4848041428706" y="880.6912442396314" height="22.96466973886329" width="36.51519585712913"><title>OH 80
481,890</title></rect><rect x="876.724162959488" y="206.72811059907835" height="22.96466973886329" width="31.27583704051176"><title>OK 80
138,055</title></rect><rect x="873.3513101959257" y="1005.4992319508449" height="22.96466973886329" width="34.64868980407391"><title>OR 80
157,153</title></rect><rect x="865.7572314155445" y="1055.4224270353302" height="22.96466973886329" width="42.24276858445546"><title>PA 80
615,069</title></rect><rect x="865.5184254773154" y="1230.1536098310294" height="22.96466973886329" width="42.481574522684355"><title>RI 80
51,021</title></rect><rect x="877.7211445402465" y="805.8064516129033" height="22.96466973886329" width="30.27885545975323"><title>SC 80
166,727</title></rect><rect x="868.2399366435659" y="131.84331797235023" height="22.96466973886329" width="39.760063356433875"><title>SD 80
38,540</title></rect><rect x="877.4975871291563" y="705.9600614439324" height="22.96466973886329" width="30.502412870843727"><title>TN 80
227,483</title></rect><rect x="884.1521446734331" y="56.958525345622135" height="22.96466973886329" width="23.847855326566673"><title>TX 80
732,179</title></rect><rect x="886.9432609320154" y="31.996927803379435" height="22.96466973886329" width="21.05673906798438"><title>UT 80
70,711</title></rect><rect x="870.6283347358637" y="1305.0384024577575" height="22.96466973886329" width="37.37166526413603"><title>VT 80
26,656</title></rect><rect x="878.9873242858469" y="780.8448540706605" height="22.96466973886329" width="29.01267571415292"><title>VA 80
274,606</title></rect><rect x="877.8870711844487" y="581.1520737327189" height="22.96466973886329" width="30.112928815551072"><title>WA 80
242,589</title></rect><rect x="870.3320625407615" y="1105.3456221198157" height="22.96466973886329" width="37.66793745923826"><title>WV 80
79,201</title></rect><rect x="871.1170605814484" y="905.652841781874" height="22.96466973886329" width="36.88293941855113"><title>WI 80
241,747</title></rect><rect x="878.3603148385412" y="281.61290322580646" height="22.96466973886329" width="29.639685161458488"><title>WY 80
19,682</title></rect><rect x="870.9426900153993" y="1180.2304147465438" height="22.96466973886329" width="37.05730998460069"><title>PR 80
148,963</title></rect></g></g><g transform="translate(0,30)" fill="none" font-size="10" font-family="sans-serif" text-anchor="middle"><g class="tick" opacity="1" transform="translate(30,0)"><line stroke="currentColor" y2="-6"/><text fill="currentColor" y="-9" dy="0em">0%</text></g><g class="tick" opacity="1" transform="translate(117.79999999999998,0)"><line stroke="currentColor" y2="-6"/><text fill="currentColor" y="-9" dy="0em">10%</text></g><g class="tick" opacity="1" transform="translate(205.59999999999997,0)"><line stroke="currentColor" y2="-6"/><text fill="currentColor" y="-9" dy="0em">20%</text></g><g class="tick" opacity="1" transform="translate(293.3999999999999,0)"><line stroke="currentColor" y2="-6"/><text fill="currentColor" y="-9" dy="0em">30%</text></g><g class="tick" opacity="1" transform="translate(381.19999999999993,0)"><line stroke="currentColor" y2="-6"/><text fill="currentColor" y="-9" dy="0em">40%</text></g><g class="tick" opacity="1" transform="translate(468.9999999999999,0)"><line stroke="currentColor" y2="-6"/><text fill="currentColor" y="-9" dy="0em">50%</text></g><g class="tick" opacity="1" transform="translate(556.7999999999998,0)"><line stroke="currentColor" y2="-6"/><text fill="currentColor" y="-9" dy="0em">60%</text></g><g class="tick" opacity="1" transform="translate(644.5999999999999,0)"><line stroke="currentColor" y2="-6"/><text fill="currentColor" y="-9" dy="0em">70%</text></g><g class="tick" opacity="1" transform="translate(732.3999999999999,0)"><line stroke="currentColor" y2="-6"/><text fill="currentColor" y="-9" dy="0em">80%</text></g><g class="tick" opacity="1" transform="translate(820.1999999999998,0)"><line stroke="currentColor" y2="-6"/><text fill="currentColor" y="-9" dy="0em">90%</text></g><g class="tick" opacity="1" transform="translate(907.9999999999998,0)"><line stroke="currentColor" y2="-6"/><text fill="currentColor" y="-9" dy="0em">100%</text></g></g><g transform="translate(30,0)" fill="none" font-size="10" font-family="sans-serif" text-anchor="end"><g class="tick" opacity="1" transform="translate(0,43.47926267281108)"><line stroke="currentColor" x2="-6"/><text fill="currentColor" x="-9" dy="0.32em">UT</text></g><g class="tick" opacity="1" transform="translate(0,68.44086021505377)"><line stroke="currentColor" x2="-6"/><text fill="currentColor" x="-9" dy="0.32em">TX</text></g><g class="tick" opacity="1" transform="translate(0,93.40245775729647)"><line stroke="currentColor" x2="-6"/><text fill="currentColor" x="-9" dy="0.32em">AK</text></g><g class="tick" opacity="1" transform="translate(0,118.36405529953919)"><line stroke="currentColor" x2="-6"/><text fill="currentColor" x="-9" dy="0.32em">ID</text></g><g class="tick" opacity="1" transform="translate(0,143.32565284178187)"><line stroke="currentColor" x2="-6"/><text fill="currentColor" x="-9" dy="0.32em">SD</text></g><g class="tick" opacity="1" transform="translate(0,168.2872503840246)"><line stroke="currentColor" x2="-6"/><text fill="currentColor" x="-9" dy="0.32em">NE</text></g><g class="tick" opacity="1" transform="translate(0,193.2488479262673)"><line stroke="currentColor" x2="-6"/><text fill="currentColor" x="-9" dy="0.32em">KS</text></g><g class="tick" opacity="1" transform="translate(0,218.21044546851)"><line stroke="currentColor" x2="-6"/><text fill="currentColor" x="-9" dy="0.32em">OK</text></g><g class="tick" opacity="1" transform="translate(0,243.1720430107527)"><line stroke="currentColor" x2="-6"/><text fill="currentColor" x="-9" dy="0.32em">ND</text></g><g class="tick" opacity="1" transform="translate(0,268.1336405529955)"><line stroke="currentColor" x2="-6"/><text fill="currentColor" x="-9" dy="0.32em">GA</text></g><g class="tick" opacity="1" transform="translate(0,293.09523809523813)"><line stroke="currentColor" x2="-6"/><text fill="currentColor" x="-9" dy="0.32em">WY</text></g><g class="tick" opacity="1" transform="translate(0,318.05683563748084)"><line stroke="currentColor" x2="-6"/><text fill="currentColor" x="-9" dy="0.32em">MS</text></g><g class="tick" opacity="1" transform="translate(0,343.01843317972356)"><line stroke="currentColor" x2="-6"/><text fill="currentColor" x="-9" dy="0.32em">LA</text></g><g class="tick" opacity="1" transform="translate(0,367.9800307219663)"><line stroke="currentColor" x2="-6"/><text fill="currentColor" x="-9" dy="0.32em">NM</text></g><g class="tick" opacity="1" transform="translate(0,392.94162826420893)"><line stroke="currentColor" x2="-6"/><text fill="currentColor" x="-9" dy="0.32em">AZ</text></g><g class="tick" opacity="1" transform="translate(0,417.90322580645164)"><line stroke="currentColor" x2="-6"/><text fill="currentColor" x="-9" dy="0.32em">AR</text></g><g class="tick" opacity="1" transform="translate(0,442.86482334869436)"><line stroke="currentColor" x2="-6"/><text fill="currentColor" x="-9" dy="0.32em">IN</text></g><g class="tick" opacity="1" transform="translate(0,467.8264208909371)"><line stroke="currentColor" x2="-6"/><text fill="currentColor" x="-9" dy="0.32em">MN</text></g><g class="tick" opacity="1" transform="translate(0,492.7880184331798)"><line stroke="currentColor" x2="-6"/><text fill="currentColor" x="-9" dy="0.32em">CA</text></g><g class="tick" opacity="1" transform="translate(0,517.7496159754224)"><line stroke="currentColor" x2="-6"/><text fill="currentColor" x="-9" dy="0.32em">NV</text></g><g class="tick" opacity="1" transform="translate(0,542.7112135176651)"><line stroke="currentColor" x2="-6"/><text fill="currentColor" x="-9" dy="0.32em">IA</text></g><g class="tick" opacity="1" transform="translate(0,567.6728110599079)"><line stroke="currentColor" x2="-6"/><text fill="currentColor" x="-9" dy="0.32em">CO</text></g><g class="tick" opacity="1" transform="translate(0,592.6344086021505)"><line stroke="currentColor" x2="-6"/><text fill="currentColor" x="-9" dy="0.32em">WA</text></g><g class="tick" opacity="1" transform="translate(0,617.5960061443932)"><line stroke="currentColor" x2="-6"/><text fill="currentColor" x="-9" dy="0.32em">MO</text></g><g class="tick" opacity="1" transform="translate(0,642.557603686636)"><line stroke="currentColor" x2="-6"/><text fill="currentColor" x="-9" dy="0.32em">IL</text></g><g class="tick" opacity="1" transform="translate(0,667.5192012288786)"><line stroke="currentColor" x2="-6"/><text fill="currentColor" x="-9" dy="0.32em">KY</text></g><g class="tick" opacity="1" transform="translate(0,692.4807987711214)"><line stroke="currentColor" x2="-6"/><text fill="currentColor" x="-9" dy="0.32em">NC</text></g><g class="tick" opacity="1" transform="translate(0,717.442396313364)"><line stroke="currentColor" x2="-6"/><text fill="currentColor" x="-9" dy="0.32em">TN</text></g><g class="tick" opacity="1" transform="translate(0,742.4039938556067)"><line stroke="currentColor" x2="-6"/><text fill="currentColor" x="-9" dy="0.32em">HI</text></g><g class="tick" opacity="1" transform="translate(0,767.3655913978495)"><line stroke="currentColor" x2="-6"/><text fill="currentColor" x="-9" dy="0.32em">MD</text></g><g class="tick" opacity="1" transform="translate(0,792.3271889400921)"><line stroke="currentColor" x2="-6"/><text fill="currentColor" x="-9" dy="0.32em">VA</text></g><g class="tick" opacity="1" transform="translate(0,817.2887864823349)"><line stroke="currentColor" x2="-6"/><text fill="currentColor" x="-9" dy="0.32em">SC</text></g><g class="tick" opacity="1" transform="translate(0,842.2503840245776)"><line stroke="currentColor" x2="-6"/><text fill="currentColor" x="-9" dy="0.32em">AL</text></g><g class="tick" opacity="1" transform="translate(0,867.2119815668202)"><line stroke="currentColor" x2="-6"/><text fill="currentColor" x="-9" dy="0.32em">MT</text></g><g class="tick" opacity="1" transform="translate(0,892.173579109063)"><line stroke="currentColor" x2="-6"/><text fill="currentColor" x="-9" dy="0.32em">OH</text></g><g class="tick" opacity="1" transform="translate(0,917.1351766513056)"><line stroke="currentColor" x2="-6"/><text fill="currentColor" x="-9" dy="0.32em">WI</text></g><g class="tick" opacity="1" transform="translate(0,942.0967741935484)"><line stroke="currentColor" x2="-6"/><text fill="currentColor" x="-9" dy="0.32em">NJ</text></g><g class="tick" opacity="1" transform="translate(0,967.0583717357911)"><line stroke="currentColor" x2="-6"/><text fill="currentColor" x="-9" dy="0.32em">DE</text></g><g class="tick" opacity="1" transform="translate(0,992.0199692780337)"><line stroke="currentColor" x2="-6"/><text fill="currentColor" x="-9" dy="0.32em">MI</text></g><g class="tick" opacity="1" transform="translate(0,1016.9815668202765)"><line stroke="currentColor" x2="-6"/><text fill="currentColor" x="-9" dy="0.32em">OR</text></g><g class="tick" opacity="1" transform="translate(0,1041.9431643625194)"><line stroke="currentColor" x2="-6"/><text fill="currentColor" x="-9" dy="0.32em">NY</text></g><g class="tick" opacity="1" transform="translate(0,1066.904761904762)"><line stroke="currentColor" x2="-6"/><text fill="currentColor" x="-9" dy="0.32em">PA</text></g><g class="tick" opacity="1" transform="translate(0,1091.866359447005)"><line stroke="currentColor" x2="-6"/><text fill="currentColor" x="-9" dy="0.32em">DC</text></g><g class="tick" opacity="1" transform="translate(0,1116.8279569892475)"><line stroke="currentColor" x2="-6"/><text fill="currentColor" x="-9" dy="0.32em">WV</text></g><g class="tick" opacity="1" transform="translate(0,1141.78955453149)"><line stroke="currentColor" x2="-6"/><text fill="currentColor" x="-9" dy="0.32em">CT</text></g><g class="tick" opacity="1" transform="translate(0,1166.751152073733)"><line stroke="currentColor" x2="-6"/><text fill="currentColor" x="-9" dy="0.32em">FL</text></g><g class="tick" opacity="1" transform="translate(0,1191.7127496159756)"><line stroke="currentColor" x2="-6"/><text fill="currentColor" x="-9" dy="0.32em">PR</text></g><g class="tick" opacity="1" transform="translate(0,1216.674347158218)"><line stroke="currentColor" x2="-6"/><text fill="currentColor" x="-9" dy="0.32em">MA</text></g><g class="tick" opacity="1" transform="translate(0,1241.635944700461)"><line stroke="currentColor" x2="-6"/><text fill="currentColor" x="-9" dy="0.32em">RI</text></g><g class="tick" opacity="1" transform="translate(0,1266.5975422427036)"><line stroke="currentColor" x2="-6"/><text fill="currentColor" x="-9" dy="0.32em">NH</text></g><g class="tick" opacity="1" transform="translate(0,1291.5591397849462)"><line stroke="currentColor" x2="-6"/><text fill="currentColor" x="-9" dy="0.32em">ME</text></g><g class="tick" opacity="1" transform="translate(0,1316.5207373271892)"><line stroke="currentColor" x2="-6"/><text fill="currentColor" x="-9" dy="0.32em">VT</text></g></g></svg>