<?xml version="1.0" encoding="utf-8"?>
<svg height="1330" style="max-width: 100%; height: auto;" viewBox="0,0,928,1330" width="928" xmlns="http://www.w3.org/2000/svg" xmlns:xlink="http://www.w3.org/1999/xlink"><g><g fill="#d53e4f"><rect height="22.96466973886329" width="13.74878749287982" x="30" y="581.1520737327189"><title>AL &lt;10
598,478</title></rect><rect height="22.96466973886329" width="2.452152503145456" x="30" y="1205.1920122887864"><title>AK &lt;10
106,741</title></rect><rect height="22.96466973886329" width="20.493751805430954" x="30" y="381.45929339477726"><title>AZ &lt;10
892,083</title></rect><rect height="22.96466973886329" width="9.009451028434" x="30" y="830.768049155146"><title>AR &lt;10
392,177</title></rect><rect height="22.96466973886329" width="115.74752056736077" x="30" y="31.996927803379435"><title>CA &lt;10
5,038,433</title></rect><rect height="22.96466973886329" width="15.870382643482579" x="30" y="556.1904761904763"><title>CO &lt;10
690,830</title></rect><rect height="22.96466973886329" width="9.174672272404194" x="30" y="730.9216589861751"><title>CT &lt;10
399,369</title></rect><rect height="22.96466973886329" width="2.5770332987825455" x="30" y="1155.2688172043013"><title>DE &lt;10
112,177</title></rect><rect height="22.96466973886329" width="1.7086569052795966" x="30" y="1255.115207373272"><title>DC &lt;10
74,377</title></rect><rect height="22.96466973886329" width="50.79340281882908" x="30" y="81.92012288786484"><title>FL &lt;10
2,211,012</title></rect><rect height="22.96466973886329" width="31.32658650393698" x="30" y="206.72811059907835"><title>GA &lt;10
1,363,631</title></rect><rect height="22.96466973886329" width="4.054352894999319" x="30" y="1030.4608294930877"><title>HI &lt;10
176,484</title></rect><rect height="22.96466973886329" width="5.436725410942344" x="30" y="1005.4992319508449"><title>ID &lt;10
236,658</title></rect><rect height="22.96466973886329" width="37.20882576141908" x="30" y="131.84331797235023"><title>IL &lt;10
1,619,682</title></rect><rect height="22.96466973886329" width="19.826296574297757" x="30" y="406.42089093702"><title>IN &lt;10
863,029</title></rect><rect height="22.96466973886329" width="9.228497825049104" x="30" y="780.8448540706605"><title>IA &lt;10
401,712</title></rect><rect height="22.96466973886329" width="9.229393768947162" x="30" y="880.6912442396314"><title>KS &lt;10
401,751</title></rect><rect height="22.96466973886329" width="12.764099203072497" x="30" y="656.036866359447"><title>KY &lt;10
555,615</title></rect><rect height="22.96466973886329" width="14.29055787615971" x="30" y="631.0752688172043"><title>LA &lt;10
622,061</title></rect><rect height="22.96466973886329" width="3.1692062695583516" x="30" y="1055.4224270353302"><title>ME &lt;10
137,954</title></rect><rect height="22.96466973886329" width="17.044804283394157" x="30" y="481.3056835637481"><title>MD &lt;10
741,952</title></rect><rect height="22.96466973886329" width="16.948226125767533" x="30" y="356.4976958525346"><title>MA &lt;10
737,748</title></rect><rect height="22.96466973886329" width="27.140759585127682" x="30" y="256.6513056835638"><title>MI &lt;10
1,181,424</title></rect><rect height="22.96466973886329" width="16.347622093181783" x="30" y="531.2288786482335"><title>MN &lt;10
711,604</title></rect><rect height="22.96466973886329" width="9.195784386309732" x="30" y="805.8064516129033"><title>MS &lt;10
400,288</title></rect><rect height="22.96466973886329" width="17.5501166418992" x="30" y="456.3440860215054"><title>MO &lt;10
763,948</title></rect><rect height="22.96466973886329" width="2.895047436752421" x="30" y="1130.3072196620583"><title>MT &lt;10
126,020</title></rect><rect height="22.96466973886329" width="6.053778054579624" x="30" y="955.5760368663595"><title>NE &lt;10
263,518</title></rect><rect height="22.96466973886329" width="8.485323848069733" x="30" y="905.652841781874"><title>NV &lt;10
369,362</title></rect><rect height="22.96466973886329" width="3.1877683892924864" x="30" y="1080.3840245775732"><title>NH &lt;10
138,762</title></rect><rect height="22.96466973886329" width="24.790905496804157" x="30" y="281.61290322580646"><title>NJ &lt;10
1,079,136</title></rect><rect height="22.96466973886329" width="6.351277374576" x="30" y="930.6144393241168"><title>NM &lt;10
276,468</title></rect><rect height="22.96466973886329" width="53.29591196362952" x="30" y="106.88172043010755"><title>NY &lt;10
2,319,945</title></rect><rect height="22.96466973886329" width="28.72299650909916" x="30" y="231.68970814132106"><title>NC &lt;10
1,250,298</title></rect><rect height="22.96466973886329" width="2.285277208901924" x="30" y="1230.1536098310294"><title>ND &lt;10
99,477</title></rect><rect height="22.96466973886329" width="32.68674420579225" x="30" y="181.76651305683566"><title>OH &lt;10
1,422,838</title></rect><rect height="22.96466973886329" width="12.278589502006582" x="30" y="705.9600614439324"><title>OK &lt;10
534,481</title></rect><rect height="22.96466973886329" width="10.89963995121255" x="30" y="680.9984639016898"><title>OR &lt;10
474,456</title></rect><rect height="22.96466973886329" width="33.51590582406478" x="30" y="156.80491551459295"><title>PA &lt;10
1,458,931</title></rect><rect height="22.96466973886329" width="2.558654962412106" x="30" y="1105.3456221198157"><title>RI &lt;10
111,377</title></rect><rect height="22.96466973886329" width="13.774356353355188" x="30" y="606.1136712749616"><title>SC &lt;10
599,591</title></rect><rect height="22.96466973886329" width="2.765158544454387" x="30" y="1180.2304147465438"><title>SD &lt;10
120,366</title></rect><rect height="22.96466973886329" width="18.801129998634565" x="30" y="431.3824884792627"><title>TN &lt;10
818,404</title></rect><rect height="22.96466973886329" width="91.50323274005422" x="30" y="56.958525345622135"><title>TX &lt;10
3,983,091</title></rect><rect height="22.96466973886329" width="11.796939251578465" x="30" y="855.7296466973886"><title>UT &lt;10
513,515</title></rect><rect height="22.96466973886329" width="1.464937192087195" x="30" y="1280.0768049155145"><title>VT &lt;10
63,768</title></rect><rect height="22.96466973886329" width="23.745476805292554" x="30" y="306.5745007680492"><title>VA &lt;10
1,033,629</title></rect><rect height="22.96466973886329" width="20.578912421587447" x="30" y="331.5360983102919"><title>WA &lt;10
895,790</title></rect><rect height="22.96466973886329" width="4.755785075497343" x="30" y="980.5376344086021"><title>WV &lt;10
207,017</title></rect><rect height="22.96466973886329" width="16.210795378903917" x="30" y="506.2672811059908"><title>WI &lt;10
705,648</title></rect><rect height="22.96466973886329" width="1.7968729198576767" x="30" y="1305.0384024577575"><title>WY &lt;10
78,217</title></rect><rect height="22.96466973886329" width="8.946298470081103" x="30" y="755.8832565284179"><title>PR &lt;10
389,428</title></rect></g><g fill="#f46d43"><rect height="22.96466973886329" width="14.674848889665455" x="43.74878749287982" y="581.1520737327189"><title>AL 10-19
638,789</title></rect><rect height="22.96466973886329" width="2.295592050189825" x="32.452152503145456" y="1205.1920122887864"><title>AK 10-19
99,926</title></rect><rect height="22.96466973886329" width="20.96818855883368" x="50.49375180543095" y="381.45929339477726"><title>AZ 10-19
912,735</title></rect><rect height="22.96466973886329" width="9.124499414112925" x="39.009451028434" y="830.768049155146"><title>AR 10-19
397,185</title></rect><rect height="22.96466973886329" width="118.77783255979955" x="145.74752056736077" y="31.996927803379435"><title>CA 10-19
5,170,341</title></rect><rect height="22.96466973886329" width="16.02239445818651" x="45.87038264348258" y="556.1904761904763"><title>CO 10-19
697,447</title></rect><rect height="22.96466973886329" width="11.051467982552794" x="39.174672272404194" y="730.9216589861751"><title>CT 10-19
481,065</title></rect><rect height="22.96466973886329" width="2.7074505682512253" x="32.577033298782546" y="1155.2688172043013"><title>DE 10-19
117,854</title></rect><rect height="22.96466973886329" width="1.4423088654311016" x="31.708656905279597" y="1255.115207373272"><title>DC 10-19
62,783</title></rect><rect height="22.96466973886329" width="53.55222083723568" x="80.79340281882908" y="81.92012288786484"><title>FL 10-19
2,331,102</title></rect><rect height="22.96466973886329" width="32.6573158946791" x="61.32658650393698" y="206.72811059907835"><title>GA 10-19
1,421,557</title></rect><rect height="22.96466973886329" width="3.7574278980145124" x="34.05435289499932" y="1030.4608294930877"><title>HI 10-19
163,559</title></rect><rect height="22.96466973886329" width="5.5022212071824725" x="35.436725410942344" y="1005.4992319508449"><title>ID 10-19
239,509</title></rect><rect height="22.96466973886329" width="39.42116394785084" x="67.20882576141908" y="131.84331797235023"><title>IL 10-19
1,715,984</title></rect><rect height="22.96466973886329" width="20.804138933807096" x="49.82629657429776" y="406.42089093702"><title>IN 10-19
905,594</title></rect><rect height="22.96466973886329" width="9.618003691499965" x="39.228497825049104" y="780.8448540706605"><title>IA 10-19
418,667</title></rect><rect height="22.96466973886329" width="9.23722753482506" x="39.22939376894716" y="880.6912442396314"><title>KS 10-19
402,092</title></rect><rect height="22.96466973886329" width="13.229323815369533" x="42.7640992030725" y="656.036866359447"><title>KY 10-19
575,866</title></rect><rect height="22.96466973886329" width="14.096942102497202" x="44.29055787615971" y="631.0752688172043"><title>LA 10-19
613,633</title></rect><rect height="22.96466973886329" width="3.578583712209735" x="33.16920626955835" y="1055.4224270353302"><title>ME 10-19
155,774</title></rect><rect height="22.96466973886329" width="17.568081465701297" x="47.04480428339416" y="481.3056835637481"><title>MD 10-19
764,730</title></rect><rect height="22.96466973886329" width="19.811180392633077" x="46.94822612576753" y="356.4976958525346"><title>MA 10-19
862,371</title></rect><rect height="22.96466973886329" width="30.417777770419093" x="57.14075958512768" y="256.6513056835638"><title>MI 10-19
1,324,071</title></rect><rect height="22.96466973886329" width="16.411831405875986" x="46.34762209318178" y="531.2288786482335"><title>MN 10-19
714,399</title></rect><rect height="22.96466973886329" width="9.67915760577258" x="39.19578438630973" y="805.8064516129033"><title>MS 10-19
421,329</title></rect><rect height="22.96466973886329" width="18.21603268736137" x="47.5501166418992" y="456.3440860215054"><title>MO 10-19
792,935</title></rect><rect height="22.96466973886329" width="2.9013420169592905" x="32.89504743675242" y="1130.3072196620583"><title>MT 10-19
126,294</title></rect><rect height="22.96466973886329" width="5.918054040483973" x="36.053778054579624" y="955.5760368663595"><title>NE 10-19
257,610</title></rect><rect height="22.96466973886329" width="8.276293244776518" x="38.48532384806973" y="905.652841781874"><title>NV 10-19
360,263</title></rect><rect height="22.96466973886329" width="3.8478493129570452" x="33.187768389292486" y="1080.3840245775732"><title>NH 10-19
167,495</title></rect><rect height="22.96466973886329" width="26.502135369175605" x="54.79090549680416" y="281.61290322580646"><title>NJ 10-19
1,153,625</title></rect><rect height="22.96466973886329" width="6.493571643924085" x="36.351277374576" y="930.6144393241168"><title>NM 10-19
282,662</title></rect><rect height="22.96466973886329" width="56.182367528128765" x="83.29591196362952" y="106.88172043010755"><title>NY 10-19
2,445,591</title></rect><rect height="22.96466973886329" width="30.103669028927925" x="58.72299650909916" y="231.68970814132106"><title>NC 10-19
1,310,398</title></rect><rect height="22.96466973886329" width="2.0921208936486764" x="32.285277208901924" y="1230.1536098310294"><title>ND 10-19
91,069</title></rect><rect height="22.96466973886329" width="35.154633159454875" x="62.68674420579225" y="181.76651305683566"><title>OH 10-19
1,530,264</title></rect><rect height="22.96466973886329" width="11.998342845277953" x="42.27858950200658" y="705.9600614439324"><title>OK 10-19
522,282</title></rect><rect height="22.96466973886329" width="11.14979208213461" x="40.89963995121255" y="680.9984639016898"><title>OR 10-19
485,345</title></rect><rect height="22.96466973886329" width="36.94086961713818" x="63.51590582406478" y="156.80491551459295"><title>PA 10-19
1,608,018</title></rect><rect height="22.96466973886329" width="3.1446482175833665" x="32.558654962412106" y="1105.3456221198157"><title>RI 10-19
136,885</title></rect><rect height="22.96466973886329" width="14.223545867169022" x="43.77435635335519" y="606.1136712749616"><title>SC 10-19
619,144</title></rect><rect height="22.96466973886329" width="2.6047386408609725" x="32.76515854445439" y="1180.2304147465438"><title>SD 10-19
113,383</title></rect><rect height="22.96466973886329" width="19.363254389444705" x="48.801129998634565" y="431.3824884792627"><title>TN 10-19
842,873</title></rect><rect height="22.96466973886329" width="89.83624871249458" x="121.50323274005422" y="56.958525345622135"><title>TX 10-19
3,910,528</title></rect><rect height="22.96466973886329" width="11.006923489774962" x="41.796939251578465" y="855.7296466973886"><title>UT 10-19
479,126</title></rect><rect height="22.96466973886329" width="1.8229242116627624" x="31.464937192087195" y="1280.0768049155145"><title>VT 10-19
79,351</title></rect><rect height="22.96466973886329" width="24.476750809472065" x="53.745476805292554" y="306.5745007680492"><title>VA 10-19
1,065,461</title></rect><rect height="22.96466973886329" width="20.280769859818108" x="50.57891242158745" y="331.5360983102919"><title>WA 10-19
882,812</title></rect><rect height="22.96466973886329" width="5.020662848436217" x="34.75578507549734" y="980.5376344086021"><title>WV 10-19
218,547</title></rect><rect height="22.96466973886329" width="17.349700883779626" x="46.21079537890392" y="506.2672811059908"><title>WI 10-19
755,224</title></rect><rect height="22.96466973886329" width="1.7352595471757937" x="31.796872919857677" y="1305.0384024577575"><title>WY 10-19
75,535</title></rect><rect height="22.96466973886329" width="11.021235619223432" x="38.9462984700811" y="755.8832565284179"><title>PR 10-19
479,749</title></rect></g><g fill="#fdae61"><rect height="22.96466973886329" width="15.200400391098448" x="58.423636382545276" y="581.1520737327189"><title>AL 20-29
661,666</title></rect><rect height="22.96466973886329" width="2.772234203957005" x="34.74774455333528" y="1205.1920122887864"><title>AK 20-29
120,674</title></rect><rect height="22.96466973886329" width="21.590042542847712" x="71.46194036426463" y="381.45929339477726"><title>AZ 20-29
939,804</title></rect><rect height="22.96466973886329" width="9.182230363236535" x="48.133950442546926" y="830.768049155146"><title>AR 20-29
399,698</title></rect><rect height="22.96466973886329" width="133.46014764861553" x="264.5253531271603" y="31.996927803379435"><title>CA 20-29
5,809,455</title></rect><rect height="22.96466973886329" width="17.93054820476717" x="61.89277710166909" y="556.1904761904763"><title>CO 20-29
780,508</title></rect><rect height="22.96466973886329" width="10.620909507234472" x="50.22614025495699" y="730.9216589861751"><title>CT 20-29
462,323</title></rect><rect height="22.96466973886329" width="2.930287896742726" x="35.28448386703377" y="1155.2688172043013"><title>DE 20-29
127,554</title></rect><rect height="22.96466973886329" width="3.1467387533454954" x="33.1509657707107" y="1255.115207373272"><title>DC 20-29
136,976</title></rect><rect height="22.96466973886329" width="59.67974196650164" x="134.34562365606476" y="81.92012288786484"><title>FL 20-29
2,597,830</title></rect><rect height="22.96466973886329" width="32.59159036923434" x="93.98390239861608" y="206.72811059907835"><title>GA 20-29
1,418,696</title></rect><rect height="22.96466973886329" width="4.694194675735936" x="37.81178079301383" y="1030.4608294930877"><title>HI 20-29
204,336</title></rect><rect height="22.96466973886329" width="5.023810138539645" x="40.93894661812482" y="1005.4992319508449"><title>ID 20-29
218,684</title></rect><rect height="22.96466973886329" width="41.11553169660246" x="106.62998970926992" y="131.84331797235023"><title>IL 20-29
1,789,739</title></rect><rect height="22.96466973886329" width="20.804047042125262" x="70.63043550810485" y="406.42089093702"><title>IN 20-29
905,590</title></rect><rect height="22.96466973886329" width="9.636129325745301" x="48.84650151654907" y="780.8448540706605"><title>IA 20-29
419,456</title></rect><rect height="22.96466973886329" width="9.348967819957288" x="48.46662130377222" y="880.6912442396314"><title>KS 20-29
406,956</title></rect><rect height="22.96466973886329" width="13.64175665644251" x="55.99342301844203" y="656.036866359447"><title>KY 20-29
593,819</title></rect><rect height="22.96466973886329" width="15.70442626605756" x="58.38749997865691" y="631.0752688172043"><title>LA 20-29
683,606</title></rect><rect height="22.96466973886329" width="3.5920228706806228" x="36.747789981768086" y="1055.4224270353302"><title>ME 20-29
156,359</title></rect><rect height="22.96466973886329" width="18.730878807858588" x="64.61288574909545" y="481.3056835637481"><title>MD 20-29
815,346</title></rect><rect height="22.96466973886329" width="22.31451656257019" x="66.75940651840061" y="356.4976958525346"><title>MA 20-29
971,340</title></rect><rect height="22.96466973886329" width="30.74187973231166" x="87.55853735554678" y="256.6513056835638"><title>MI 20-29
1,338,179</title></rect><rect height="22.96466973886329" width="16.7293860854366" x="62.75945349905777" y="531.2288786482335"><title>MN 20-29
728,222</title></rect><rect height="22.96466973886329" width="9.515268791189243" x="48.87494199208231" y="805.8064516129033"><title>MS 20-29
414,195</title></rect><rect height="22.96466973886329" width="19.107152272122732" x="65.76614932926057" y="456.3440860215054"><title>MO 20-29
831,725</title></rect><rect height="22.96466973886329" width="3.1322658134537846" x="35.79638945371171" y="1130.3072196620583"><title>MT 20-29
136,346</title></rect><rect height="22.96466973886329" width="5.987799827009773" x="41.9718320950636" y="955.5760368663595"><title>NE 20-29
260,646</title></rect><rect height="22.96466973886329" width="9.024544237178219" x="46.76161709284625" y="905.652841781874"><title>NV 20-29
392,834</title></rect><rect height="22.96466973886329" width="3.8492047152643565" x="37.03561770224953" y="1080.3840245775732"><title>NH 20-29
167,554</title></rect><rect height="22.96466973886329" width="26.187452304672874" x="81.29304086597976" y="281.61290322580646"><title>NJ 20-29
1,139,927</title></rect><rect height="22.96466973886329" width="6.657575323109725" x="42.844849018500085" y="930.6144393241168"><title>NM 20-29
289,801</title></rect><rect height="22.96466973886329" width="66.48974261688363" x="139.4782794917583" y="106.88172043010755"><title>NY 20-29
2,894,266</title></rect><rect height="22.96466973886329" width="31.019002071857344" x="88.82666553802709" y="231.68970814132106"><title>NC 20-29
1,350,242</title></rect><rect height="22.96466973886329" width="2.8603353539327614" x="34.3773981025506" y="1230.1536098310294"><title>ND 20-29
124,509</title></rect><rect height="22.96466973886329" width="35.27579234197697" x="97.84137736524713" y="181.76651305683566"><title>OH 20-29
1,535,538</title></rect><rect height="22.96466973886329" width="12.693181797603081" x="54.276932347284536" y="705.9600614439324"><title>OK 20-29
552,528</title></rect><rect height="22.96466973886329" width="12.373123069711994" x="52.04943203334716" y="680.9984639016898"><title>OR 20-29
538,596</title></rect><rect height="22.96466973886329" width="39.33993170109353" x="100.45677544120296" y="156.80491551459295"><title>PA 20-29
1,712,448</title></rect><rect height="22.96466973886329" width="3.530340579237354" x="35.70330317999547" y="1105.3456221198157"><title>RI 20-29
153,674</title></rect><rect height="22.96466973886329" width="15.334952786250469" x="57.99790222052421" y="606.1136712749616"><title>SC 20-29
667,523</title></rect><rect height="22.96466973886329" width="2.682042518219106" x="35.36989718531536" y="1180.2304147465438"><title>SD 20-29
116,748</title></rect><rect height="22.96466973886329" width="20.56850568861769" x="68.16438438807927" y="431.3824884792627"><title>TN 20-29
895,337</title></rect><rect height="22.96466973886329" width="90.66141304260657" x="211.3394814525488" y="56.958525345622135"><title>TX 20-29
3,946,447</title></rect><rect height="22.96466973886329" width="10.687439084895445" x="52.80386274135343" y="855.7296466973886"><title>UT 20-29
465,219</title></rect><rect height="22.96466973886329" width="1.8783808416605439" x="33.28786140374996" y="1280.0768049155145"><title>VT 20-29
81,765</title></rect><rect height="22.96466973886329" width="26.892881773331453" x="78.22222761476462" y="306.5745007680492"><title>VA 20-29
1,170,634</title></rect><rect height="22.96466973886329" width="23.07464455485129" x="70.85968228140555" y="331.5360983102919"><title>WA 20-29
1,004,428</title></rect><rect height="22.96466973886329" width="5.330337816277996" x="39.77644792393356" y="980.5376344086021"><title>WV 20-29
232,027</title></rect><rect height="22.96466973886329" width="17.481496528476114" x="63.56049626268354" y="506.2672811059908"><title>WI 20-29
760,961</title></rect><rect height="22.96466973886329" width="1.9044091605451712" x="33.53213246703347" y="1305.0384024577575"><title>WY 20-29
82,898</title></rect><rect height="22.96466973886329" width="11.031228839624852" x="49.967534089304536" y="755.8832565284179"><title>PR 20-29
480,184</title></rect></g><g fill="#fee08b"><rect height="22.96466973886329" width="13.852969687179709" x="73.62403677364372" y="581.1520737327189"><title>AL 30-39
603,013</title></rect><rect height="22.96466973886329" width="2.3434216705938837" x="37.519978757292286" y="1205.1920122887864"><title>AK 30-39
102,008</title></rect><rect height="22.96466973886329" width="19.689033374531107" x="93.05198290711235" y="381.45929339477726"><title>AZ 30-39
857,054</title></rect><rect height="22.96466973886329" width="8.568853386873343" x="57.31618080578346" y="830.768049155146"><title>AR 30-39
372,998</title></rect><rect height="22.96466973886329" width="122.99958912621304" x="397.98550077577585" y="31.996927803379435"><title>CA 30-39
5,354,112</title></rect><rect height="22.96466973886329" width="17.606032730306225" x="79.82332530643626" y="556.1904761904763"><title>CO 30-39
766,382</title></rect><rect height="22.96466973886329" width="9.760964175541474" x="60.84704976219146" y="730.9216589861751"><title>CT 30-39
424,890</title></rect><rect height="22.96466973886329" width="2.620360226775837" x="38.2147717637765" y="1155.2688172043013"><title>DE 30-39
114,063</title></rect><rect height="22.96466973886329" width="2.7916692946687363" x="36.29770452405619" y="1255.115207373272"><title>DC 30-39
121,520</title></rect><rect height="22.96466973886329" width="55.506619072708446" x="194.0253656225664" y="81.92012288786484"><title>FL 30-39
2,416,176</title></rect><rect height="22.96466973886329" width="31.179077381643793" x="126.57549276785042" y="206.72811059907835"><title>GA 30-39
1,357,210</title></rect><rect height="22.96466973886329" width="4.309490149661855" x="42.50597546874977" y="1030.4608294930877"><title>HI 30-39
187,590</title></rect><rect height="22.96466973886329" width="4.81282683700708" x="45.96275675666446" y="1005.4992319508449"><title>ID 30-39
209,500</title></rect><rect height="22.96466973886329" width="39.5583122830152" x="147.74552140587238" y="131.84331797235023"><title>IL 30-39
1,721,954</title></rect><rect height="22.96466973886329" width="19.000580894094668" x="91.43448255023011" y="406.42089093702"><title>IN 30-39
827,086</title></rect><rect height="22.96466973886329" width="8.813285260600097" x="58.48263084229437" y="780.8448540706605"><title>IA 30-39
383,638</title></rect><rect height="22.96466973886329" width="8.470850908178008" x="57.81558912372951" y="880.6912442396314"><title>KS 30-39
368,732</title></rect><rect height="22.96466973886329" width="12.82350717538992" x="69.63517967488454" y="656.036866359447"><title>KY 30-39
558,201</title></rect><rect height="22.96466973886329" width="14.137787955080498" x="74.09192624471447" y="631.0752688172043"><title>LA 30-39
615,411</title></rect><rect height="22.96466973886329" width="3.3929854877888346" x="40.33981285244871" y="1055.4224270353302"><title>ME 30-39
147,695</title></rect><rect height="22.96466973886329" width="18.012998016309012" x="83.34376455695404" y="481.3056835637481"><title>MD 30-39
784,097</title></rect><rect height="22.96466973886329" width="19.46509334585737" x="89.0739230809708" y="356.4976958525346"><title>MA 30-39
847,306</title></rect><rect height="22.96466973886329" width="26.698806541259685" x="118.30041708785843" y="256.6513056835638"><title>MI 30-39
1,162,186</title></rect><rect height="22.96466973886329" width="16.439031343704215" x="79.48883958449437" y="531.2288786482335"><title>MN 30-39
715,583</title></rect><rect height="22.96466973886329" width="8.608504647592554" x="58.390210783271556" y="805.8064516129033"><title>MS 30-39
374,724</title></rect><rect height="22.96466973886329" width="17.528384259141163" x="84.8733016013833" y="456.3440860215054"><title>MO 30-39
763,002</title></rect><rect height="22.96466973886329" width="2.8717069495619683" x="38.928655267165496" y="1130.3072196620583"><title>MT 30-39
125,004</title></rect><rect height="22.96466973886329" width="5.610814202211273" x="47.95963192207337" y="955.5760368663595"><title>NE 30-39
244,236</title></rect><rect height="22.96466973886329" width="8.965434912826822" x="55.78616133002447" y="905.652841781874"><title>NV 30-39
390,261</title></rect><rect height="22.96466973886329" width="3.4783069143885683" x="40.88482241751389" y="1080.3840245775732"><title>NH 30-39
151,409</title></rect><rect height="22.96466973886329" width="26.268431849305074" x="107.48049317065264" y="281.61290322580646"><title>NJ 30-39
1,143,452</title></rect><rect height="22.96466973886329" width="5.986260641338745" x="49.50242434160981" y="930.6144393241168"><title>NM 30-39
260,579</title></rect><rect height="22.96466973886329" width="59.85261319298607" x="205.96802210864192" y="106.88172043010755"><title>NY 30-39
2,605,355</title></rect><rect height="22.96466973886329" width="29.15208471750782" x="119.84566760988443" y="231.68970814132106"><title>NC 30-39
1,268,976</title></rect><rect height="22.96466973886329" width="2.1758342158160033" x="37.23773345648336" y="1230.1536098310294"><title>ND 30-39
94,713</title></rect><rect height="22.96466973886329" width="32.13277520174651" x="133.1171697072241" y="181.76651305683566"><title>OH 30-39
1,398,724</title></rect><rect height="22.96466973886329" width="11.518438536805036" x="66.97011414488762" y="705.9600614439324"><title>OK 30-39
501,392</title></rect><rect height="22.96466973886329" width="12.354078518648151" x="64.42255510305915" y="680.9984639016898"><title>OR 30-39
537,767</title></rect><rect height="22.96466973886329" width="34.928235028291624" x="139.7967071422965" y="156.80491551459295"><title>PA 30-39
1,520,409</title></rect><rect height="22.96466973886329" width="2.90614335733607" x="39.23364375923283" y="1105.3456221198157"><title>RI 30-39
126,503</title></rect><rect height="22.96466973886329" width="13.703140299919767" x="73.33285500677468" y="606.1136712749616"><title>SC 30-39
596,491</title></rect><rect height="22.96466973886329" width="2.4236201359303564" x="38.051939703534465" y="1180.2304147465438"><title>SD 30-39
105,499</title></rect><rect height="22.96466973886329" width="19.2355249516702" x="88.73289007669696" y="431.3824884792627"><title>TN 30-39
837,313</title></rect><rect height="22.96466973886329" width="86.6201776851916" x="302.00089449515536" y="56.958525345622135"><title>TX 30-39
3,770,534</title></rect><rect height="22.96466973886329" width="10.01642305109047" x="63.49130182624887" y="855.7296466973886"><title>UT 30-39
436,010</title></rect><rect height="22.96466973886329" width="1.6102179410954633" x="35.1662422454105" y="1280.0768049155145"><title>VT 30-39
70,092</title></rect><rect height="22.96466973886329" width="25.54843754907293" x="105.11510938809607" y="306.5745007680492"><title>VA 30-39
1,112,111</title></rect><rect height="22.96466973886329" width="22.29781524939355" x="93.93432683625684" y="331.5360983102919"><title>WA 30-39
970,613</title></rect><rect height="22.96466973886329" width="5.065391124577751" x="45.106785740211556" y="980.5376344086021"><title>WV 30-39
220,494</title></rect><rect height="22.96466973886329" width="16.413669239513013" x="81.04199279115966" y="506.2672811059908"><title>WI 30-39
714,479</title></rect><rect height="22.96466973886329" width="1.766893258653404" x="35.43654162757864" y="1305.0384024577575"><title>WY 30-39
76,912</title></rect><rect height="22.96466973886329" width="10.150401123230942" x="60.99876292892939" y="755.8832565284179"><title>PR 30-39
441,842</title></rect></g><g fill="#ffffbf"><rect height="22.96466973886329" width="14.371836068757943" x="87.47700646082343" y="581.1520737327189"><title>AL 40-49
625,599</title></rect><rect height="22.96466973886329" width="2.1029181662662992" x="39.86340042788617" y="1205.1920122887864"><title>AK 40-49
91,539</title></rect><rect height="22.96466973886329" width="19.143104892647386" x="112.74101628164345" y="381.45929339477726"><title>AZ 40-49
833,290</title></rect><rect height="22.96466973886329" width="8.503587319837848" x="65.8850341926568" y="830.768049155146"><title>AR 40-49
370,157</title></rect><rect height="22.96466973886329" width="118.98268209156856" x="520.9850899019889" y="31.996927803379435"><title>CA 40-49
5,179,258</title></rect><rect height="22.96466973886329" width="16.206246740652247" x="97.42935803674249" y="556.1904761904763"><title>CO 40-49
705,450</title></rect><rect height="22.96466973886329" width="11.40065637359102" x="70.60801393773293" y="730.9216589861751"><title>CT 40-49
496,265</title></rect><rect height="22.96466973886329" width="2.7013397714080654" x="40.835131990552334" y="1155.2688172043013"><title>DE 40-49
117,588</title></rect><rect height="22.96466973886329" width="1.8509282017072124" x="39.08937381872493" y="1255.115207373272"><title>DC 40-49
80,570</title></rect><rect height="22.96466973886329" width="59.168502594517065" x="249.53198469527484" y="81.92012288786484"><title>FL 40-49
2,575,576</title></rect><rect height="22.96466973886329" width="32.27001542859267" x="157.7545701494942" y="206.72811059907835"><title>GA 40-49
1,404,698</title></rect><rect height="22.96466973886329" width="4.064001521593788" x="46.81546561841162" y="1030.4608294930877"><title>HI 40-49
176,904</title></rect><rect height="22.96466973886329" width="4.472322209903879" x="50.77558359367154" y="1005.4992319508449"><title>ID 40-49
194,678</title></rect><rect height="22.96466973886329" width="38.986631157292436" x="187.30383368888758" y="131.84331797235023"><title>IL 40-49
1,697,069</title></rect><rect height="22.96466973886329" width="19.390500273113872" x="110.43506344432478" y="406.42089093702"><title>IN 40-49
844,059</title></rect><rect height="22.96466973886329" width="8.516498101138069" x="67.29591610289447" y="780.8448540706605"><title>IA 40-49
370,719</title></rect><rect height="22.96466973886329" width="7.91249407632381" x="66.28644003190752" y="880.6912442396314"><title>KS 40-49
344,427</title></rect><rect height="22.96466973886329" width="13.33699789357982" x="82.45868685027446" y="656.036866359447"><title>KY 40-49
580,553</title></rect><rect height="22.96466973886329" width="13.140303748575263" x="88.22971419979497" y="631.0752688172043"><title>LA 40-49
571,991</title></rect><rect height="22.96466973886329" width="4.06409341327565" x="43.732798340237544" y="1055.4224270353302"><title>ME 40-49
176,908</title></rect><rect height="22.96466973886329" width="18.743031482783508" x="101.35676257326305" y="481.3056835637481"><title>MD 40-49
815,875</title></rect><rect height="22.96466973886329" width="21.04563027371458" x="108.53901642682817" y="356.4976958525346"><title>MA 40-49
916,106</title></rect><rect height="22.96466973886329" width="29.477059650378038" x="144.99922362911812" y="256.6513056835638"><title>MI 40-49
1,283,122</title></rect><rect height="22.96466973886329" width="15.901878517437424" x="95.92787092819859" y="531.2288786482335"><title>MN 40-49
692,201</title></rect><rect height="22.96466973886329" width="8.664581546442832" x="66.99871543086411" y="805.8064516129033"><title>MS 40-49
377,165</title></rect><rect height="22.96466973886329" width="17.252410565618646" x="102.40168586052447" y="456.3440860215054"><title>MO 40-49
750,989</title></rect><rect height="22.96466973886329" width="2.676391179785199" x="41.800362216727464" y="1130.3072196620583"><title>MT 40-49
116,502</title></rect><rect height="22.96466973886329" width="5.110992371696881" x="53.57044612428464" y="955.5760368663595"><title>NE 40-49
222,479</title></rect><rect height="22.96466973886329" width="8.896768853562804" x="64.75159624285129" y="905.652841781874"><title>NV 40-49
387,272</title></rect><rect height="22.96466973886329" width="4.1972214873589735" x="44.363129331902456" y="1080.3840245775732"><title>NH 40-49
182,703</title></rect><rect height="22.96466973886329" width="28.821871958772107" x="133.7489250199577" y="281.61290322580646"><title>NJ 40-49
1,254,602</title></rect><rect height="22.96466973886329" width="5.613341223462207" x="55.488684982948556" y="930.6144393241168"><title>NM 40-49
244,346</title></rect><rect height="22.96466973886329" width="60.12764499676956" x="265.820635301628" y="106.88172043010755"><title>NY 40-49
2,617,327</title></rect><rect height="22.96466973886329" width="31.191390867012018" x="148.99775232739225" y="231.68970814132106"><title>NC 40-49
1,357,746</title></rect><rect height="22.96466973886329" width="1.8453457820346841" x="39.413567672299365" y="1230.1536098310294"><title>ND 40-49
80,327</title></rect><rect height="22.96466973886329" width="34.25168252065501" x="165.2499449089706" y="181.76651305683566"><title>OH 40-49
1,490,959</title></rect><rect height="22.96466973886329" width="10.78371859455605" x="78.48855268169265" y="705.9600614439324"><title>OK 40-49
469,410</title></rect><rect height="22.96466973886329" width="11.666246307064227" x="76.7766336217073" y="680.9984639016898"><title>OR 40-49
507,826</title></rect><rect height="22.96466973886329" width="37.797139281557065" x="174.72494217058812" y="156.80491551459295"><title>PA 40-49
1,645,291</title></rect><rect height="22.96466973886329" width="3.1677819484896332" x="42.1397871165689" y="1105.3456221198157"><title>RI 40-49
137,892</title></rect><rect height="22.96466973886329" width="14.238432319629055" x="87.03599530669445" y="606.1136712749616"><title>SC 40-49
619,792</title></rect><rect height="22.96466973886329" width="2.2120165655452837" x="40.47555983946482" y="1180.2304147465438"><title>SD 40-49
96,288</title></rect><rect height="22.96466973886329" width="19.902428832712275" x="107.96841502836716" y="431.3824884792627"><title>TN 40-49
866,343</title></rect><rect height="22.96466973886329" width="81.45614084014557" x="388.62107218034697" y="56.958525345622135"><title>TX 40-49
3,545,746</title></rect><rect height="22.96466973886329" width="7.548189503620904" x="73.50772487733934" y="855.7296466973886"><title>UT 40-49
328,569</title></rect><rect height="22.96466973886329" width="1.8374201244749457" x="36.776460186505965" y="1280.0768049155145"><title>VT 40-49
79,982</title></rect><rect height="22.96466973886329" width="26.072610675278156" x="130.663546937169" y="306.5745007680492"><title>VA 40-49
1,134,928</title></rect><rect height="22.96466973886329" width="21.162769195155647" x="116.2321420856504" y="331.5360983102919"><title>WA 40-49
921,205</title></rect><rect height="22.96466973886329" width="5.472563166864688" x="50.17217686478931" y="980.5376344086021"><title>WV 40-49
238,218</title></rect><rect height="22.96466973886329" width="16.822610196675626" x="97.45566203067267" y="506.2672811059908"><title>WI 40-49
732,280</title></rect><rect height="22.96466973886329" width="1.5728180265816363" x="37.203434886232046" y="1305.0384024577575"><title>WY 40-49
68,464</title></rect><rect height="22.96466973886329" width="10.475858487430827" x="71.14916405216033" y="755.8832565284179"><title>PR 40-49
456,009</title></rect></g><g fill="#e6f598"><rect height="22.96466973886329" width="15.480624074906629" x="101.84884252958138" y="581.1520737327189"><title>AL 50-59
673,864</title></rect><rect height="22.96466973886329" width="2.40225531989973" x="41.96631859415247" y="1205.1920122887864"><title>AK 50-59
104,569</title></rect><rect height="22.96466973886329" width="19.179126431933412" x="131.88412117429084" y="381.45929339477726"><title>AZ 50-59
834,858</title></rect><rect height="22.96466973886329" width="9.075911687333601" x="74.38862151249465" y="830.768049155146"><title>AR 50-59
395,070</title></rect><rect height="22.96466973886329" width="115.83162442917592" x="639.9677719935574" y="31.996927803379435"><title>CA 50-59
5,042,094</title></rect><rect height="22.96466973886329" width="16.670552436130762" x="113.63560477739473" y="556.1904761904763"><title>CO 50-59
725,661</title></rect><rect height="22.96466973886329" width="12.551507797107504" x="82.00867031132395" y="730.9216589861751"><title>CT 50-59
546,361</title></rect><rect height="22.96466973886329" width="3.0630024582577065" x="43.5364717619604" y="1155.2688172043013"><title>DE 50-59
133,331</title></rect><rect height="22.96466973886329" width="1.7178920193057365" x="40.94030202043214" y="1255.115207373272"><title>DC 50-59
74,779</title></rect><rect height="22.96466973886329" width="63.473788699734314" x="308.7004872897919" y="81.92012288786484"><title>FL 50-59
2,762,983</title></rect><rect height="22.96466973886329" width="30.73742298574186" x="190.02458557808689" y="206.72811059907835"><title>GA 50-59
1,337,985</title></rect><rect height="22.96466973886329" width="4.32897118621451" x="50.87946714000541" y="1030.4608294930877"><title>HI 50-59
188,438</title></rect><rect height="22.96466973886329" width="4.713354091402117" x="55.24790580357542" y="1005.4992319508449"><title>ID 50-59
205,170</title></rect><rect height="22.96466973886329" width="40.739396069861044" x="226.29046484618002" y="131.84331797235023"><title>IL 50-59
1,773,366</title></rect><rect height="22.96466973886329" width="20.94620347395056" x="129.82556371743865" y="406.42089093702"><title>IN 50-59
911,778</title></rect><rect height="22.96466973886329" width="9.822164035655007" x="75.81241420403254" y="780.8448540706605"><title>IA 50-59
427,554</title></rect><rect height="22.96466973886329" width="8.955625475789105" x="74.19893410823133" y="880.6912442396314"><title>KS 50-59
389,834</title></rect><rect height="22.96466973886329" width="14.315897007430436" x="95.79568474385428" y="656.036866359447"><title>KY 50-59
623,164</title></rect><rect height="22.96466973886329" width="14.517415465732228" x="101.37001794837023" y="631.0752688172043"><title>LA 50-59
631,936</title></rect><rect height="22.96466973886329" width="4.95725758795821" x="47.796891753513194" y="1055.4224270353302"><title>ME 50-59
215,787</title></rect><rect height="22.96466973886329" width="19.820530371261555" x="120.09979405604656" y="481.3056835637481"><title>MD 50-59
862,778</title></rect><rect height="22.96466973886329" width="22.493429667136354" x="129.58464670054275" y="356.4976958525346"><title>MA 50-59
979,128</title></rect><rect height="22.96466973886329" width="33.41323984251545" x="174.47628327949616" y="256.6513056835638"><title>MI 50-59
1,454,462</title></rect><rect height="22.96466973886329" width="17.97987106500132" x="111.82974944563601" y="531.2288786482335"><title>MN 50-59
782,655</title></rect><rect height="22.96466973886329" width="9.192935744172317" x="75.66329697730694" y="805.8064516129033"><title>MS 50-59
400,164</title></rect><rect height="22.96466973886329" width="19.700060376353335" x="119.65409642614311" y="456.3440860215054"><title>MO 50-59
857,534</title></rect><rect height="22.96466973886329" width="3.4413434853635323" x="44.47675339651266" y="1130.3072196620583"><title>MT 50-59
149,800</title></rect><rect height="22.96466973886329" width="5.764158446302062" x="58.681438495981524" y="955.5760368663595"><title>NE 50-59
250,911</title></rect><rect height="22.96466973886329" width="8.586289833504779" x="73.6483650964141" y="905.652841781874"><title>NV 50-59
373,757</title></rect><rect height="22.96466973886329" width="5.006948014919772" x="48.56035081926143" y="1080.3840245775732"><title>NH 50-59
217,950</title></rect><rect height="22.96466973886329" width="30.031648923276293" x="162.57079697872982" y="281.61290322580646"><title>NJ 50-59
1,307,263</title></rect><rect height="22.96466973886329" width="6.440756899779551" x="61.10202620641076" y="930.6144393241168"><title>NM 50-59
280,363</title></rect><rect height="22.96466973886329" width="63.30463908636489" x="325.94828029839755" y="106.88172043010755"><title>NY 50-59
2,755,620</title></rect><rect height="22.96466973886329" width="31.153967979577686" x="180.18914319440427" y="231.68970814132106"><title>NC 50-59
1,356,117</title></rect><rect height="22.96466973886329" width="2.2671515746565802" x="41.25891345433405" y="1230.1536098310294"><title>ND 50-59
98,688</title></rect><rect height="22.96466973886329" width="38.54382811536735" x="199.50162742962561" y="181.76651305683566"><title>OH 50-59
1,677,794</title></rect><rect height="22.96466973886329" width="11.781662259470536" x="89.2722712762487" y="705.9600614439324"><title>OK 50-59
512,850</title></rect><rect height="22.96466973886329" width="12.277211126778809" x="88.44287992877153" y="680.9984639016898"><title>OR 50-59
534,421</title></rect><rect height="22.96466973886329" width="43.220747154915074" x="212.5220814521452" y="156.80491551459295"><title>PA 50-59
1,881,378</title></rect><rect height="22.96466973886329" width="3.586693153133197" x="45.30756906505853" y="1105.3456221198157"><title>RI 50-59
156,127</title></rect><rect height="22.96466973886329" width="15.240419218545071" x="101.2744276263235" y="606.1136712749616"><title>SC 50-59
663,408</title></rect><rect height="22.96466973886329" width="2.688107369221342" x="42.687576405010105" y="1180.2304147465438"><title>SD 50-59
117,012</title></rect><rect height="22.96466973886329" width="20.773768732954977" x="127.87084386107944" y="431.3824884792627"><title>TN 50-59
904,272</title></rect><rect height="22.96466973886329" width="76.84281084443955" x="470.07721302049254" y="56.958525345622135"><title>TX 50-59
3,344,930</title></rect><rect height="22.96466973886329" width="6.928540919971297" x="81.05591438096025" y="855.7296466973886"><title>UT 50-59
301,596</title></rect><rect height="22.96466973886329" width="2.286288017402292" x="38.61388031098091" y="1280.0768049155145"><title>VT 50-59
99,521</title></rect><rect height="22.96466973886329" width="26.695176819826543" x="156.73615761244716" y="306.5745007680492"><title>VA 50-59
1,162,028</title></rect><rect height="22.96466973886329" width="22.293082827778164" x="137.39491128080604" y="331.5360983102919"><title>WA 50-59
970,407</title></rect><rect height="22.96466973886329" width="6.187664235038227" x="55.644740031653996" y="980.5376344086021"><title>WV 50-59
269,346</title></rect><rect height="22.96466973886329" width="19.496474355209884" x="114.2782722273483" y="506.2672811059908"><title>WI 50-59
848,672</title></rect><rect height="22.96466973886329" width="1.8612200700746513" x="38.77625291281368" y="1305.0384024577575"><title>WY 50-59
81,018</title></rect><rect height="22.96466973886329" width="10.395315428287418" x="81.62502253959116" y="755.8832565284179"><title>PR 50-59
452,503</title></rect></g><g fill="#abdda4"><rect height="22.96466973886329" width="12.597798231840557" x="117.329466604488" y="581.1520737327189"><title>AL 60-69
548,376</title></rect><rect height="22.96466973886329" width="1.6189706237918884" x="44.3685739140522" y="1205.1920122887864"><title>AK 60-69
70,473</title></rect><rect height="22.96466973886329" width="16.95135044295054" x="151.06324760622425" y="381.45929339477726"><title>AZ 60-69
737,884</title></rect><rect height="22.96466973886329" width="7.5749529559603275" x="83.46453319982825" y="830.768049155146"><title>AR 60-69
329,734</title></rect><rect height="22.96466973886329" width="85.86039428671756" x="755.7993964227334" y="31.996927803379435"><title>CA 60-69
3,737,461</title></rect><rect height="22.96466973886329" width="12.942392038786153" x="130.3061572135255" y="556.1904761904763"><title>CO 60-69
563,376</title></rect><rect height="22.96466973886329" width="9.212026241077112" x="94.56017810843146" y="730.9216589861751"><title>CT 60-69
400,995</title></rect><rect height="22.96466973886329" width="2.545904991555126" x="46.599474220218106" y="1155.2688172043013"><title>DE 60-69
110,822</title></rect><rect height="22.96466973886329" width="1.3090888996659231" x="42.65819403973788" y="1255.115207373272"><title>DC 60-69
56,984</title></rect><rect height="22.96466973886329" width="55.24203994773552" x="372.1742759895262" y="81.92012288786484"><title>FL 60-69
2,404,659</title></rect><rect height="22.96466973886329" width="22.93278677099198" x="220.76200856382874" y="206.72811059907835"><title>GA 60-69
998,253</title></rect><rect height="22.96466973886329" width="3.789544040821845" x="55.20843832621992" y="1030.4608294930877"><title>HI 60-69
164,957</title></rect><rect height="22.96466973886329" width="4.122008145762969" x="59.96125989497754" y="1005.4992319508449"><title>ID 60-69
179,429</title></rect><rect height="22.96466973886329" width="30.464872257368313" x="267.02986091604106" y="131.84331797235023"><title>IL 60-69
1,326,121</title></rect><rect height="22.96466973886329" width="16.18495084338298" x="150.77176719138922" y="406.42089093702"><title>IN 60-69
704,523</title></rect><rect height="22.96466973886329" width="7.903534637343228" x="85.63457823968754" y="780.8448540706605"><title>IA 60-69
344,037</title></rect><rect height="22.96466973886329" width="6.909312585543731" x="83.15455958402043" y="880.6912442396314"><title>KS 60-69
300,759</title></rect><rect height="22.96466973886329" width="11.388503698666057" x="110.11158175128472" y="656.036866359447"><title>KY 60-69
495,736</title></rect><rect height="22.96466973886329" width="11.230220276675723" x="115.88743341410246" y="631.0752688172043"><title>LA 60-69
488,846</title></rect><rect height="22.96466973886329" width="4.124558139934372" x="52.754149341471404" y="1055.4224270353302"><title>ME 60-69
179,540</title></rect><rect height="22.96466973886329" width="14.617876046917104" x="139.92032442730812" y="481.3056835637481"><title>MD 60-69
636,309</title></rect><rect height="22.96466973886329" width="16.94953558223392" x="152.0780763676791" y="356.4976958525346"><title>MA 60-69
737,805</title></rect><rect height="22.96466973886329" width="26.375922144151644" x="207.8895231220116" y="256.6513056835638"><title>MI 60-69
1,148,131</title></rect><rect height="22.96466973886329" width="13.262565631279557" x="129.80962051063733" y="531.2288786482335"><title>MN 60-69
577,313</title></rect><rect height="22.96466973886329" width="7.338538631475188" x="84.85623272147926" y="805.8064516129033"><title>MS 60-69
319,443</title></rect><rect height="22.96466973886329" width="15.36608109347793" x="139.35415680249645" y="456.3440860215054"><title>MO 60-69
668,878</title></rect><rect height="22.96466973886329" width="3.008924203487709" x="47.918096881876195" y="1130.3072196620583"><title>MT 60-69
130,977</title></rect><rect height="22.96466973886329" width="4.495915399219427" x="64.44559694228359" y="955.5760368663595"><title>NE 60-69
195,705</title></rect><rect height="22.96466973886329" width="7.113587794301097" x="82.23465492991888" y="905.652841781874"><title>NV 60-69
309,651</title></rect><rect height="22.96466973886329" width="3.774152184111607" x="53.5672988341812" y="1080.3840245775732"><title>NH 60-69
164,287</title></rect><rect height="22.96466973886329" width="21.741548953301503" x="192.6024459020061" y="281.61290322580646"><title>NJ 60-69
946,399</title></rect><rect height="22.96466973886329" width="5.491538799167159" x="67.54278310619031" y="930.6144393241168"><title>NM 60-69
239,044</title></rect><rect height="22.96466973886329" width="48.133023764606605" x="389.25291938476244" y="106.88172043010755"><title>NY 60-69
2,095,207</title></rect><rect height="22.96466973886329" width="25.162699241577997" x="211.34311117398195" y="231.68970814132106"><title>NC 60-69
1,095,320</title></rect><rect height="22.96466973886329" width="1.6959758531840023" x="43.52606502899063" y="1230.1536098310294"><title>ND 60-69
73,825</title></rect><rect height="22.96466973886329" width="30.342081997493352" x="238.04545554499296" y="181.76651305683566"><title>OH 60-69
1,320,776</title></rect><rect height="22.96466973886329" width="9.297232803074522" x="101.05393353571924" y="705.9600614439324"><title>OK 60-69
404,704</title></rect><rect height="22.96466973886329" width="11.27726881778402" x="100.72009105555034" y="680.9984639016898"><title>OR 60-69
490,894</title></rect><rect height="22.96466973886329" width="34.26493789576219" x="255.74282860706026" y="156.80491551459295"><title>PA 60-69
1,491,536</title></rect><rect height="22.96466973886329" width="2.7028330112381553" x="48.89426221819173" y="1105.3456221198157"><title>RI 60-69
117,653</title></rect><rect height="22.96466973886329" width="13.320985768017067" x="116.51484684486857" y="606.1136712749616"><title>SC 60-69
579,856</title></rect><rect height="22.96466973886329" width="2.132438369061319" x="45.37568377423145" y="1180.2304147465438"><title>SD 60-69
92,824</title></rect><rect height="22.96466973886329" width="17.023967844534155" x="148.6446125940344" y="431.3824884792627"><title>TN 60-69
741,045</title></rect><rect height="22.96466973886329" width="55.858518268361195" x="546.9200238649321" y="56.958525345622135"><title>TX 60-69
2,431,494</title></rect><rect height="22.96466973886329" width="5.28393251694267" x="87.98445530093154" y="855.7296466973886"><title>UT 60-69
230,007</title></rect><rect height="22.96466973886329" width="1.8869037951523353" x="40.9001683283832" y="1280.0768049155145"><title>VT 60-69
82,136</title></rect><rect height="22.96466973886329" width="20.25667126625234" x="183.4313344322737" y="306.5745007680492"><title>VA 60-69
881,763</title></rect><rect height="22.96466973886329" width="18.015548010480416" x="159.6879941085842" y="331.5360983102919"><title>WA 60-69
784,208</title></rect><rect height="22.96466973886329" width="5.584900747928955" x="61.83240426669222" y="980.5376344086021"><title>WV 60-69
243,108</title></rect><rect height="22.96466973886329" width="14.81787829246835" x="133.77474658255818" y="506.2672811059908"><title>WI 60-69
645,015</title></rect><rect height="22.96466973886329" width="1.550304564527849" x="40.63747298288833" y="1305.0384024577575"><title>WY 60-69
67,484</title></rect><rect height="22.96466973886329" width="9.463097288817679" x="92.02033796787858" y="755.8832565284179"><title>PR 60-69
411,924</title></rect></g><g fill="#66c2a5"><rect height="22.96466973886329" width="7.273180672757832" x="129.92726483632856" y="581.1520737327189"><title>AL 70-79
316,598</title></rect><rect height="22.96466973886329" width="0.6529363454005477" x="45.98754453784409" y="1205.1920122887864"><title>AK 70-79
28,422</title></rect><rect height="22.96466973886329" width="10.708895792607905" x="168.0145980491748" y="381.45929339477726"><title>AZ 70-79
466,153</title></rect><rect height="22.96466973886329" width="4.548293657875163" x="91.03948615578858" y="830.768049155146"><title>AR 70-79
197,985</title></rect><rect height="22.96466973886329" width="46.21411869124927" x="841.6597907094509" y="31.996927803379435"><title>CA 70-79
2,011,678</title></rect><rect height="22.96466973886329" width="6.30528558780901" x="143.24854925231165" y="556.1904761904763"><title>CO 70-79
274,466</title></rect><rect height="22.96466973886329" width="5.004122345702811" x="103.77220434950857" y="730.9216589861751"><title>CT 70-79
217,827</title></rect><rect height="22.96466973886329" width="1.5017168377485177" x="49.14537921177323" y="1155.2688172043013"><title>DE 70-79
65,369</title></rect><rect height="22.96466973886329" width="0.7204767315618881" x="43.9672829394038" y="1255.115207373272"><title>DC 70-79
31,362</title></rect><rect height="22.96466973886329" width="37.11383273530441" x="427.41631593726174" y="81.92012288786484"><title>FL 70-79
1,615,547</title></rect><rect height="22.96466973886329" width="12.132183079895668" x="243.69479533482072" y="206.72811059907835"><title>GA 70-79
528,108</title></rect><rect height="22.96466973886329" width="1.9606238969182286" x="58.997982367041764" y="1030.4608294930877"><title>HI 70-79
85,345</title></rect><rect height="22.96466973886329" width="2.242639468522526" x="64.0832680407405" y="1005.4992319508449"><title>ID 70-79
97,621</title></rect><rect height="22.96466973886329" width="16.743146864794028" x="297.4947331734094" y="131.84331797235023"><title>IL 70-79
728,821</title></rect><rect height="22.96466973886329" width="8.839704119132591" x="166.9567180347722" y="406.42089093702"><title>IN 70-79
384,788</title></rect><rect height="22.96466973886329" width="4.530788292482313" x="93.53811287703077" y="780.8448540706605"><title>IA 70-79
197,223</title></rect><rect height="22.96466973886329" width="3.8158939805929606" x="90.06387216956416" y="880.6912442396314"><title>KS 70-79
166,104</title></rect><rect height="22.96466973886329" width="6.293684262975162" x="121.50008544995077" y="656.036866359447"><title>KY 70-79
273,961</title></rect><rect height="22.96466973886329" width="6.113622512385859" x="127.11765369077818" y="631.0752688172043"><title>LA 70-79
266,123</title></rect><rect height="22.96466973886329" width="2.2490259404112436" x="56.878707481405776" y="1055.4224270353302"><title>ME 70-79
97,899</title></rect><rect height="22.96466973886329" width="7.597971822264327" x="154.53820047422522" y="481.3056835637481"><title>MD 70-79
330,736</title></rect><rect height="22.96466973886329" width="9.233528894630524" x="169.02761194991302" y="356.4976958525346"><title>MA 70-79
401,931</title></rect><rect height="22.96466973886329" width="14.236824215196663" x="234.26544526616325" y="256.6513056835638"><title>MI 70-79
619,722</title></rect><rect height="22.96466973886329" width="7.188364650408261" x="143.0721861419169" y="531.2288786482335"><title>MN 70-79
312,906</title></rect><rect height="22.96466973886329" width="4.162578323300707" x="92.19477135295445" y="805.8064516129033"><title>MS 70-79
181,195</title></rect><rect height="22.96466973886329" width="8.915468810819704" x="154.72023789597438" y="456.3440860215054"><title>MO 70-79
388,086</title></rect><rect height="22.96466973886329" width="1.620234134417359" x="50.927021085363904" y="1130.3072196620583"><title>MT 70-79
70,528</title></rect><rect height="22.96466973886329" width="2.4730348878463673" x="68.94151234150301" y="955.5760368663595"><title>NE 70-79
107,650</title></rect><rect height="22.96466973886329" width="3.9857787274171415" x="89.34824272421997" y="905.652841781874"><title>NV 70-79
173,499</title></rect><rect height="22.96466973886329" width="1.9478968989817034" x="57.34145101829281" y="1080.3840245775732"><title>NH 70-79
84,791</title></rect><rect height="22.96466973886329" width="12.029080612857484" x="214.3439948553076" y="281.61290322580646"><title>NJ 70-79
523,620</title></rect><rect height="22.96466973886329" width="3.101642910476542" x="73.03432190535747" y="930.6144393241168"><title>NM 70-79
135,013</title></rect><rect height="22.96466973886329" width="26.649851247752963" x="437.38594314936904" y="106.88172043010755"><title>NY 70-79
1,160,055</title></rect><rect height="22.96466973886329" width="13.995884225380308" x="236.50581041555995" y="231.68970814132106"><title>NC 70-79
609,234</title></rect><rect height="22.96466973886329" width="0.9498843153058161" x="45.22204088217463" y="1230.1536098310294"><title>ND 70-79
41,348</title></rect><rect height="22.96466973886329" width="16.72791581852698" x="268.3875375424863" y="181.76651305683566"><title>OH 70-79
728,158</title></rect><rect height="22.96466973886329" width="5.510904971117512" x="110.35116633879376" y="705.9600614439324"><title>OK 70-79
239,887</title></rect><rect height="22.96466973886329" width="5.876679810730039" x="111.99735987333436" y="680.9984639016898"><title>OR 70-79
255,809</title></rect><rect height="22.96466973886329" width="19.54758910324017" x="290.00776650282245" y="156.80491551459295"><title>PA 70-79
850,897</title></rect><rect height="22.96466973886329" width="1.4555412676178179" x="51.59709522942988" y="1105.3456221198157"><title>RI 70-79
63,359</title></rect><rect height="22.96466973886329" width="7.398957412292987" x="129.83583261288564" y="606.1136712749616"><title>SC 70-79
322,073</title></rect><rect height="22.96466973886329" width="1.1577892454963319" x="47.508122143292766" y="1180.2304147465438"><title>SD 70-79
50,398</title></rect><rect height="22.96466973886329" width="9.532360644013778" x="165.66858043856857" y="431.3824884792627"><title>TN 70-79
414,939</title></rect><rect height="22.96466973886329" width="29.669205157131046" x="602.7785421332933" y="56.958525345622135"><title>TX 70-79
1,291,486</title></rect><rect height="22.96466973886329" width="2.8411529653461116" x="93.26838781787421" y="855.7296466973886"><title>UT 70-79
123,674</title></rect><rect height="22.96466973886329" width="0.9873301756605741" x="42.78707212353554" y="1280.0768049155145"><title>VT 70-79
42,978</title></rect><rect height="22.96466973886329" width="10.915376401729759" x="203.68800569852604" y="306.5745007680492"><title>VA 70-79
475,141</title></rect><rect height="22.96466973886329" width="9.214300560202958" x="177.70354211906462" y="331.5360983102919"><title>WA 70-79
401,094</title></rect><rect height="22.96466973886329" width="3.1733413952416925" x="67.41730501462118" y="980.5376344086021"><title>WV 70-79
138,134</title></rect><rect height="22.96466973886329" width="8.05825725666179" x="148.59262487502653" y="506.2672811059908"><title>WI 70-79
350,772</title></rect><rect height="22.96466973886329" width="0.7539482766765389" x="42.18777754741618" y="1305.0384024577575"><title>WY 70-79
32,819</title></rect><rect height="22.96466973886329" width="6.174730480817544" x="101.48343525669625" y="755.8832565284179"><title>PR 70-79
268,783</title></rect></g><g fill="#3288bd"><rect height="22.96466973886329" width="4.015230011450768" x="137.2004455090864" y="581.1520737327189"><title>AL 80
174,781</title></rect><rect height="22.96466973886329" width="0.2872304245493993" x="46.640480883244635" y="1205.1920122887864"><title>AK 80
12,503</title></rect><rect height="22.96466973886329" width="5.851570408663946" x="178.7234938417827" y="381.45929339477726"><title>AZ 80
254,716</title></rect><rect height="22.96466973886329" width="2.606691339100337" x="95.58777981366374" y="830.768049155146"><title>AR 80
113,468</title></rect><rect height="22.96466973886329" width="30.1260905992998" x="887.8739094007002" y="31.996927803379435"><title>CA 80
1,311,374</title></rect><rect height="22.96466973886329" width="3.564822932852337" x="149.55383484012066" y="556.1904761904763"><title>CO 80
155,175</title></rect><rect height="22.96466973886329" width="3.663606490843449" x="108.77632669521138" y="730.9216589861751"><title>CT 80
159,475</title></rect><rect height="22.96466973886329" width="0.8255778426803033" x="50.64709604952175" y="1155.2688172043013"><title>DE 80
35,937</title></rect><rect height="22.96466973886329" width="0.451601670462459" x="44.68775967096569" y="1255.115207373272"><title>DC 80
19,658</title></rect><rect height="22.96466973886329" width="23.422408624820775" x="464.53014867256616" y="81.92012288786484"><title>FL 80
1,019,566</title></rect><rect height="22.96466973886329" width="6.18389667608227" x="255.8269784147164" y="206.72811059907835"><title>GA 80
269,182</title></rect><rect height="22.96466973886329" width="1.5175911257884849" x="60.95860626395999" y="1030.4608294930877"><title>HI 80
66,060</title></rect><rect height="22.96466973886329" width="1.2459133683925643" x="66.32590750926303" y="1005.4992319508449"><title>ID 80
54,234</title></rect><rect height="22.96466973886329" width="11.002834309932439" x="314.2378800382034" y="131.84331797235023"><title>IL 80
478,948</title></rect><rect height="22.96466973886329" width="5.585429125099608" x="175.79642215390479" y="406.42089093702"><title>IN 80
243,131</title></rect><rect height="22.96466973886329" width="3.298520838844823" x="98.06890116951308" y="780.8448540706605"><title>IA 80
143,583</title></rect><rect height="22.96466973886329" width="2.702465444510736" x="93.87976615015712" y="880.6912442396314"><title>KS 80
117,637</title></rect><rect height="22.96466973886329" width="3.5625026678856244" x="127.79376971292594" y="656.036866359447"><title>KY 80
155,074</title></rect><rect height="22.96466973886329" width="3.4933312043713727" x="133.23127620316404" y="631.0752688172043"><title>LA 80
152,063</title></rect><rect height="22.96466973886329" width="1.4244818791517773" x="59.12773342181702" y="1055.4224270353302"><title>ME 80
62,007</title></rect><rect height="22.96466973886329" width="4.780182317029073" x="162.13617229648955" y="481.3056835637481"><title>MD 80
208,079</title></rect><rect height="22.96466973886329" width="6.625574044904738" x="178.26114084454355" y="356.4976958525346"><title>MA 80
288,408</title></rect><rect height="22.96466973886329" width="9.15018313919063" x="248.50226948135992" y="256.6513056835638"><title>MI 80
398,303</title></rect><rect height="22.96466973886329" width="4.961806226209887" x="150.26055079232515" y="531.2288786482335"><title>MN 80
215,985</title></rect><rect height="22.96466973886329" width="2.313120388503137" x="96.35734967625515" y="805.8064516129033"><title>MS 80
100,689</title></rect><rect height="22.96466973886329" width="5.57217374999243" x="163.63570670679408" y="456.3440860215054"><title>MO 80
242,554</title></rect><rect height="22.96466973886329" width="0.9630248258106633" x="52.54725521978126" y="1130.3072196620583"><title>MT 80
41,920</title></rect><rect height="22.96466973886329" width="1.8034661480305658" x="71.41454722934938" y="955.5760368663595"><title>NE 80
78,504</title></rect><rect height="22.96466973886329" width="1.890051085255763" x="93.33402145163711" y="905.652841781874"><title>NV 80
82,273</title></rect><rect height="22.96466973886329" width="1.2072729161737357" x="59.28934791727451" y="1080.3840245775732"><title>NH 80
52,552</title></rect><rect height="22.96466973886329" width="8.440986111576052" x="226.3730754681651" y="281.61290322580646"><title>NJ 80
367,432</title></rect><rect height="22.96466973886329" width="1.7090244720070018" x="76.13596481583401" y="930.6144393241168"><title>NM 80
74,393</title></rect><rect height="22.96466973886329" width="18.472318588047017" x="464.035794397122" y="106.88172043010755"><title>NY 80
804,091</title></rect><rect height="22.96466973886329" width="7.868156339830108" x="250.50169464094026" y="231.68970814132106"><title>NC 80
342,497</title></rect><rect height="22.96466973886329" width="0.7398658764326953" x="46.17192519748045" y="1230.1536098310294"><title>ND 80
32,206</title></rect><rect height="22.96466973886329" width="11.070420641934788" x="285.1154533610133" y="181.76651305683566"><title>OH 80
481,890</title></rect><rect height="22.96466973886329" width="3.1715265345251282" x="115.86207130991127" y="705.9600614439324"><title>OK 80
138,055</title></rect><rect height="22.96466973886329" width="3.610263369528269" x="117.8740396840644" y="680.9984639016898"><title>OR 80
157,153</title></rect><rect height="22.96466973886329" width="14.129931216282102" x="309.5553556060626" y="156.80491551459295"><title>PA 80
615,069</title></rect><rect height="22.96466973886329" width="1.172101374944802" x="53.0526364970477" y="1105.3456221198157"><title>RI 80
51,021</title></rect><rect height="22.96466973886329" width="3.830206110041445" x="137.23479002517863" y="606.1136712749616"><title>SC 80
166,727</title></rect><rect height="22.96466973886329" width="0.8853763546456008" x="48.6659113887891" y="1180.2304147465438"><title>SD 80
38,540</title></rect><rect height="22.96466973886329" width="5.225948865693937" x="175.20094108258235" y="431.3824884792627"><title>TN 80
227,483</title></rect><rect height="22.96466973886329" width="16.82028993170877" x="632.4477472904243" y="56.958525345622135"><title>TX 80
732,179</title></rect><rect height="22.96466973886329" width="1.6244381788620785" x="96.10954078322033" y="855.7296466973886"><title>UT 80
70,711</title></rect><rect height="22.96466973886329" width="0.6123661678628167" x="43.77440229919611" y="1280.0768049155145"><title>VT 80
26,656</title></rect><rect height="22.96466973886329" width="6.3085017966738235" x="214.6033821002558" y="306.5745007680492"><title>VA 80
274,606</title></rect><rect height="22.96466973886329" width="5.572977802208612" x="186.91784267926758" y="331.5360983102919"><title>WA 80
242,589</title></rect><rect height="22.96466973886329" width="1.8194782735933046" x="70.59064640986287" y="980.5376344086021"><title>WV 80
79,201</title></rect><rect height="22.96466973886329" width="5.553634603178779" x="156.65088213168832" y="506.2672811059908"><title>WI 80
241,747</title></rect><rect height="22.96466973886329" width="0.4521530205535811" x="42.94172582409272" y="1305.0384024577575"><title>WY 80
19,682</title></rect><rect height="22.96466973886329" width="3.4221151509359657" x="107.6581657375138" y="755.8832565284179"><title>PR 80
148,963</title></rect></g></g><g fill="none" font-family="sans-serif" font-size="10" text-anchor="middle" transform="translate(0,30)"><g class="tick" opacity="1" transform="translate(30,0)"><line stroke="currentColor" y2="-6"/><text dy="0em" fill="currentColor" y="-9">0M</text></g><g class="tick" opacity="1" transform="translate(144.86460231520473,0)"><line stroke="currentColor" y2="-6"/><text dy="0em" fill="currentColor" y="-9">5M</text></g><g class="tick" opacity="1" transform="translate(259.72920463040947,0)"><line stroke="currentColor" y2="-6"/><text dy="0em" fill="currentColor" y="-9">10M</text></g><g class="tick" opacity="1" transform="translate(374.5938069456141,0)"><line stroke="currentColor" y2="-6"/><text dy="0em" fill="currentColor" y="-9">15M</text></g><g class="tick" opacity="1" transform="translate(489.45840926081894,0)"><line stroke="currentColor" y2="-6"/><text dy="0em" fill="currentColor" y="-9">20M</text></g><g class="tick" opacity="1" transform="translate(604.3230115760235,0)"><line stroke="currentColor" y2="-6"/><text dy="0em" fill="currentColor" y="-9">25M</text></g><g class="tick" opacity="1" transform="translate(719.1876138912282,0)"><line stroke="currentColor" y2="-6"/><text dy="0em" fill="currentColor" y="-9">30M</text></g><g class="tick" opacity="1" transform="translate(834.0522162064331,0)"><line stroke="currentColor" y2="-6"/><text dy="0em" fill="currentColor" y="-9">35M</text></g></g><g fill="none" font-family="sans-serif" font-size="10" text-anchor="end" transform="translate(30,0)"><g class="tick" opacity="1" transform="translate(0,43.47926267281108)"><line stroke="currentColor" x2="-6"/><text dy="0.32em" fill="currentColor" x="-9">CA</text></g><g class="tick" opacity="1" transform="translate(0,68.44086021505377)"><line stroke="currentColor" x2="-6"/><text dy="0.32em" fill="currentColor" x="-9">TX</text></g><g class="tick" opacity="1" transform="translate(0,93.40245775729647)"><line stroke="currentColor" x2="-6"/><text dy="0.32em" fill="currentColor" x="-9">FL</text></g><g class="tick" opacity="1" transform="translate(0,118.36405529953919)"><line stroke="currentColor" x2="-6"/><text dy="0.32em" fill="currentColor" x="-9">NY</text></g><g class="tick" opacity="1" transform="translate(0,143.32565284178187)"><line stroke="currentColor" x2="-6"/><text dy="0.32em" fill="currentColor" x="-9">IL</text></g><g class="tick" opacity="1" transform="translate(0,168.2872503840246)"><line stroke="currentColor" x2="-6"/><text dy="0.32em" fill="currentColor" x="-9">PA</text></g><g class="tick" opacity="1" transform="translate(0,193.2488479262673)"><line stroke="currentColor" x2="-6"/><text dy="0.32em" fill="currentColor" x="-9">OH</text></g><g class="tick" opacity="1" transform="translate(0,218.21044546851)"><line stroke="currentColor" x2="-6"/><text dy="0.32em" fill="currentColor" x="-9">GA</text></g><g class="tick" opacity="1" transform="translate(0,243.1720430107527)"><line stroke="currentColor" x2="-6"/><text dy="0.32em" fill="currentColor" x="-9">NC</text></g><g class="tick" opacity="1" transform="translate(0,268.1336405529955)"><line stroke="currentColor" x2="-6"/><text dy="0.32em" fill="currentColor" x="-9">MI</text></g><g class="tick" opacity="1" transform="translate(0,293.09523809523813)"><line stroke="currentColor" x2="-6"/><text dy="0.32em" fill="currentColor" x="-9">NJ</text></g><g class="tick" opacity="1" transform="translate(0,318.05683563748084)"><line stroke="currentColor" x2="-6"/><text dy="0.32em" fill="currentColor" x="-9">VA</text></g><g class="tick" opacity="1" transform="translate(0,343.01843317972356)"><line stroke="currentColor" x2="-6"/><text dy="0.32em" fill="currentColor" x="-9">WA</text></g><g class="tick" opacity="1" transform="translate(0,367.9800307219663)"><line stroke="currentColor" x2="-6"/><text dy="0.32em" fill="currentColor" x="-9">MA</text></g><g class="tick" opacity="1" transform="translate(0,392.94162826420893)"><line stroke="currentColor" x2="-6"/><text dy="0.32em" fill="currentColor" x="-9">AZ</text></g><g class="tick" opacity="1" transform="translate(0,417.90322580645164)"><line stroke="currentColor" x2="-6"/><text dy="0.32em" fill="currentColor" x="-9">IN</text></g><g class="tick" opacity="1" transform="translate(0,442.86482334869436)"><line stroke="currentColor" x2="-6"/><text dy="0.32em" fill="currentColor" x="-9">TN</text></g><g class="tick" opacity="1" transform="translate(0,467.8264208909371)"><line stroke="currentColor" x2="-6"/><text dy="0.32em" fill="currentColor" x="-9">MO</text></g><g class="tick" opacity="1" transform="translate(0,492.7880184331798)"><line stroke="currentColor" x2="-6"/><text dy="0.32em" fill="currentColor" x="-9">MD</text></g><g class="tick" opacity="1" transform="translate(0,517.7496159754224)"><line stroke="currentColor" x2="-6"/><text dy="0.32em" fill="currentColor" x="-9">WI</text></g><g class="tick" opacity="1" transform="translate(0,542.7112135176651)"><line stroke="currentColor" x2="-6"/><text dy="0.32em" fill="currentColor" x="-9">MN</text></g><g class="tick" opacity="1" transform="translate(0,567.6728110599079)"><line stroke="currentColor" x2="-6"/><text dy="0.32em" fill="currentColor" x="-9">CO</text></g><g class="tick" opacity="1" transform="translate(0,592.6344086021505)"><line stroke="currentColor" x2="-6"/><text dy="0.32em" fill="currentColor" x="-9">AL</text></g><g class="tick" opacity="1" transform="translate(0,617.5960061443932)"><line stroke="currentColor" x2="-6"/><text dy="0.32em" fill="currentColor" x="-9">SC</text></g><g class="tick" opacity="1" transform="translate(0,642.557603686636)"><line stroke="currentColor" x2="-6"/><text dy="0.32em" fill="currentColor" x="-9">LA</text></g><g class="tick" opacity="1" transform="translate(0,667.5192012288786)"><line stroke="currentColor" x2="-6"/><text dy="0.32em" fill="currentColor" x="-9">KY</text></g><g class="tick" opacity="1" transform="translate(0,692.4807987711214)"><line stroke="currentColor" x2="-6"/><text dy="0.32em" fill="currentColor" x="-9">OR</text></g><g class="tick" opacity="1" transform="translate(0,717.442396313364)"><line stroke="currentColor" x2="-6"/><text dy="0.32em" fill="currentColor" x="-9">OK</text></g><g class="tick" opacity="1" transform="translate(0,742.4039938556067)"><line stroke="currentColor" x2="-6"/><text dy="0.32em" fill="currentColor" x="-9">CT</text></g><g class="tick" opacity="1" transform="translate(0,767.3655913978495)"><line stroke="currentColor" x2="-6"/><text dy="0.32em" fill="currentColor" x="-9">PR</text></g><g class="tick" opacity="1" transform="translate(0,792.3271889400921)"><line stroke="currentColor" x2="-6"/><text dy="0.32em" fill="currentColor" x="-9">IA</text></g><g class="tick" opacity="1" transform="translate(0,817.2887864823349)"><line stroke="currentColor" x2="-6"/><text dy="0.32em" fill="currentColor" x="-9">MS</text></g><g class="tick" opacity="1" transform="translate(0,842.2503840245776)"><line stroke="currentColor" x2="-6"/><text dy="0.32em" fill="currentColor" x="-9">AR</text></g><g class="tick" opacity="1" transform="translate(0,867.2119815668202)"><line stroke="currentColor" x2="-6"/><text dy="0.32em" fill="currentColor" x="-9">UT</text></g><g class="tick" opacity="1" transform="translate(0,892.173579109063)"><line stroke="currentColor" x2="-6"/><text dy="0.32em" fill="currentColor" x="-9">KS</text></g><g class="tick" opacity="1" transform="translate(0,917.1351766513056)"><line stroke="currentColor" x2="-6"/><text dy="0.32em" fill="currentColor" x="-9">NV</text></g><g class="tick" opacity="1" transform="translate(0,942.0967741935484)"><line stroke="currentColor" x2="-6"/><text dy="0.32em" fill="currentColor" x="-9">NM</text></g><g class="tick" opacity="1" transform="translate(0,967.0583717357911)"><line stroke="currentColor" x2="-6"/><text dy="0.32em" fill="currentColor" x="-9">NE</text></g><g class="tick" opacity="1" transform="translate(0,992.0199692780337)"><line stroke="currentColor" x2="-6"/><text dy="0.32em" fill="currentColor" x="-9">WV</text></g><g class="tick" opacity="1" transform="translate(0,1016.9815668202765)"><line stroke="currentColor" x2="-6"/><text dy="0.32em" fill="currentColor" x="-9">ID</text></g><g class="tick" opacity="1" transform="translate(0,1041.9431643625194)"><line stroke="currentColor" x2="-6"/><text dy="0.32em" fill="currentColor" x="-9">HI</text></g><g class="tick" opacity="1" transform="translate(0,1066.904761904762)"><line stroke="currentColor" x2="-6"/><text dy="0.32em" fill="currentColor" x="-9">ME</text></g><g class="tick" opacity="1" transform="translate(0,1091.866359447005)"><line stroke="currentColor" x2="-6"/><text dy="0.32em" fill="currentColor" x="-9">NH</text></g><g class="tick" opacity="1" transform="translate(0,1116.8279569892475)"><line stroke="currentColor" x2="-6"/><text dy="0.32em" fill="currentColor" x="-9">RI</text></g><g class="tick" opacity="1" transform="translate(0,1141.78955453149)"><line stroke="currentColor" x2="-6"/><text dy="0.32em" fill="currentColor" x="-9">MT</text></g><g class="tick" opacity="1" transform="translate(0,1166.751152073733)"><line stroke="currentColor" x2="-6"/><text dy="0.32em" fill="currentColor" x="-9">DE</text></g><g class="tick" opacity="1" transform="translate(0,1191.7127496159756)"><line stroke="currentColor" x2="-6"/><text dy="0.32em" fill="currentColor" x="-9">SD</text></g><g class="tick" opacity="1" transform="translate(0,1216.674347158218)"><line stroke="currentColor" x2="-6"/><text dy="0.32em" fill="currentColor" x="-9">AK</text></g><g class="tick" opacity="1" transform="translate(0,1241.635944700461)"><line stroke="currentColor" x2="-6"/><text dy="0.32em" fill="currentColor" x="-9">ND</text></g><g class="tick" opacity="1" transform="translate(0,1266.5975422427036)"><line stroke="currentColor" x2="-6"/><text dy="0.32em" fill="currentColor" x="-9">DC</text></g><g class="tick" opacity="1" transform="translate(0,1291.5591397849462)"><line stroke="currentColor" x2="-6"/><text dy="0.32em" fill="currentColor" x="-9">VT</text></g><g class="tick" opacity="1" transform="translate(0,1316.5207373271892)"><line stroke="currentColor" x2="-6"/><text dy="0.32em" fill="currentColor" x="-9">WY</text></g></g></svg>