<?xml version="1.0" encoding="utf-8"?>
<svg style="max-width: 100%; height: auto; font: 10px sans-serif;" viewBox="0,0,1152,1343" xmlns="http://www.w3.org/2000/svg" xmlns:xlink="http://www.w3.org/1999/xlink"><g><rect fill="#ef8a62" height="23" width="125" x="60" y="33"/><rect fill="#ef8a62" height="23" width="37" x="148" y="58"/><rect fill="#ef8a62" height="23" width="14" x="171" y="83"/><rect fill="#ef8a62" height="23" width="2" x="183" y="108"/><rect fill="#ef8a62" height="23" width="0" x="185" y="133"/><rect fill="#67a9cf" height="23" width="2" x="185" y="158"/><rect fill="#67a9cf" height="23" width="2" x="185" y="183"/><rect fill="#67a9cf" height="23" width="4" x="185" y="208"/><rect fill="#67a9cf" height="23" width="4" x="185" y="233"/><rect fill="#67a9cf" height="23" width="5" x="185" y="258"/><rect fill="#67a9cf" height="23" width="9" x="185" y="283"/><rect fill="#67a9cf" height="23" width="10" x="185" y="308"/><rect fill="#67a9cf" height="23" width="13" x="185" y="333"/><rect fill="#67a9cf" height="23" width="14" x="185" y="358"/><rect fill="#67a9cf" height="23" width="17" x="185" y="383"/><rect fill="#67a9cf" height="23" width="18" x="185" y="408"/><rect fill="#67a9cf" height="23" width="18" x="185" y="433"/><rect fill="#67a9cf" height="23" width="19" x="185" y="458"/><rect fill="#67a9cf" height="23" width="21" x="185" y="483"/><rect fill="#67a9cf" height="23" width="22" x="185" y="508"/><rect fill="#67a9cf" height="23" width="24" x="185" y="533"/><rect fill="#67a9cf" height="23" width="24" x="185" y="558"/><rect fill="#67a9cf" height="23" width="25" x="185" y="583"/><rect fill="#67a9cf" height="23" width="25" x="185" y="608"/><rect fill="#67a9cf" height="23" width="26" x="185" y="633"/><rect fill="#67a9cf" height="23" width="26" x="185" y="658"/><rect fill="#67a9cf" height="23" width="27" x="185" y="683"/><rect fill="#67a9cf" height="23" width="29" x="185" y="708"/><rect fill="#67a9cf" height="23" width="31" x="185" y="733"/><rect fill="#67a9cf" height="23" width="32" x="185" y="758"/><rect fill="#67a9cf" height="23" width="35" x="185" y="783"/><rect fill="#67a9cf" height="23" width="36" x="185" y="808"/><rect fill="#67a9cf" height="23" width="49" x="185" y="833"/><rect fill="#67a9cf" height="23" width="52" x="185" y="858"/><rect fill="#67a9cf" height="23" width="59" x="185" y="883"/><rect fill="#67a9cf" height="23" width="64" x="185" y="908"/><rect fill="#67a9cf" height="23" width="79" x="185" y="933"/><rect fill="#67a9cf" height="23" width="90" x="185" y="958"/><rect fill="#67a9cf" height="23" width="91" x="185" y="983"/><rect fill="#67a9cf" height="23" width="95" x="185" y="1008"/><rect fill="#67a9cf" height="23" width="104" x="185" y="1033"/><rect fill="#67a9cf" height="23" width="115" x="185" y="1058"/><rect fill="#67a9cf" height="23" width="124" x="185" y="1083"/><rect fill="#67a9cf" height="23" width="126" x="185" y="1108"/><rect fill="#67a9cf" height="23" width="172" x="185" y="1133"/><rect fill="#67a9cf" height="23" width="209" x="185" y="1158"/><rect fill="#67a9cf" height="23" width="210" x="185" y="1183"/><rect fill="#67a9cf" height="23" width="219" x="185" y="1208"/><rect fill="#67a9cf" height="23" width="225" x="185" y="1233"/><rect fill="#67a9cf" height="23" width="532" x="185" y="1258"/><rect fill="#67a9cf" height="23" width="631" x="185" y="1283"/><rect fill="#67a9cf" height="23" width="907" x="185" y="1308"/></g><g font-family="sans-serif" font-size="10"><text dy="0.35em" text-anchor="end" x="56" y="44.5">−532,095</text><text dy="0.35em" text-anchor="end" x="144" y="69.5">−158,811</text><text dy="0.35em" text-anchor="end" x="167" y="94.5">−60,929</text><text dy="0.35em" text-anchor="end" x="179" y="119.5">−8,810</text><text dy="0.35em" text-anchor="end" x="181" y="144.5">−1,752</text><text dy="0.35em" text-anchor="start" x="191" y="169.5">+6,794</text><text dy="0.35em" text-anchor="start" x="191" y="194.5">+8,852</text><text dy="0.35em" text-anchor="start" x="193" y="219.5">+15,133</text><text dy="0.35em" text-anchor="start" x="193" y="244.5">+15,851</text><text dy="0.35em" text-anchor="start" x="194" y="269.5">+21,314</text><text dy="0.35em" text-anchor="start" x="198" y="294.5">+37,650</text><text dy="0.35em" text-anchor="start" x="199" y="319.5">+43,241</text><text dy="0.35em" text-anchor="start" x="202" y="344.5">+55,571</text><text dy="0.35em" text-anchor="start" x="203" y="369.5">+60,196</text><text dy="0.35em" text-anchor="start" x="206" y="394.5">+70,479</text><text dy="0.35em" text-anchor="start" x="207" y="419.5">+75,459</text><text dy="0.35em" text-anchor="start" x="207" y="444.5">+75,830</text><text dy="0.35em" text-anchor="start" x="208" y="469.5">+79,363</text><text dy="0.35em" text-anchor="start" x="210" y="494.5">+89,471</text><text dy="0.35em" text-anchor="start" x="211" y="519.5">+90,296</text><text dy="0.35em" text-anchor="start" x="213" y="544.5">+99,610</text><text dy="0.35em" text-anchor="start" x="213" y="569.5">+101,907</text><text dy="0.35em" text-anchor="start" x="214" y="594.5">+103,217</text><text dy="0.35em" text-anchor="start" x="214" y="619.5">+104,026</text><text dy="0.35em" text-anchor="start" x="215" y="644.5">+108,067</text><text dy="0.35em" text-anchor="start" x="215" y="669.5">+108,715</text><text dy="0.35em" text-anchor="start" x="216" y="694.5">+115,422</text><text dy="0.35em" text-anchor="start" x="218" y="719.5">+123,449</text><text dy="0.35em" text-anchor="start" x="220" y="744.5">+128,306</text><text dy="0.35em" text-anchor="start" x="221" y="769.5">+135,448</text><text dy="0.35em" text-anchor="start" x="224" y="794.5">+148,501</text><text dy="0.35em" text-anchor="start" x="225" y="819.5">+152,596</text><text dy="0.35em" text-anchor="start" x="238" y="844.5">+205,620</text><text dy="0.35em" text-anchor="start" x="241" y="869.5">+219,565</text><text dy="0.35em" text-anchor="start" x="248" y="894.5">+248,417</text><text dy="0.35em" text-anchor="start" x="253" y="919.5">+272,128</text><text dy="0.35em" text-anchor="start" x="268" y="944.5">+335,707</text><text dy="0.35em" text-anchor="start" x="279" y="969.5">+379,605</text><text dy="0.35em" text-anchor="start" x="280" y="994.5">+386,663</text><text dy="0.35em" text-anchor="start" x="284" y="1019.5">+401,874</text><text dy="0.35em" text-anchor="start" x="293" y="1044.5">+442,073</text><text dy="0.35em" text-anchor="start" x="304" y="1069.5">+487,069</text><text dy="0.35em" text-anchor="start" x="313" y="1094.5">+523,350</text><text dy="0.35em" text-anchor="start" x="315" y="1119.5">+534,495</text><text dy="0.35em" text-anchor="start" x="361" y="1144.5">+729,540</text><text dy="0.35em" text-anchor="start" x="398" y="1169.5">+886,700</text><text dy="0.35em" text-anchor="start" x="399" y="1194.5">+890,353</text><text dy="0.35em" text-anchor="start" x="408" y="1219.5">+929,770</text><text dy="0.35em" text-anchor="start" x="414" y="1244.5">+952,601</text><text dy="0.35em" text-anchor="start" x="721" y="1269.5">+2,257,700</text><text dy="0.35em" text-anchor="start" x="820" y="1294.5">+2,676,427</text><text dy="0.35em" text-anchor="start" x="1096" y="1319.5">+3,850,320</text></g><g fill="none" font-family="sans-serif" font-size="10" text-anchor="middle" transform="translate(0,30)"><g class="tick" opacity="1" transform="translate(91,0)"><line stroke="currentColor" y2="-6"/><line stroke="currentColor" stroke-opacity="0.1" y2="1303"/><text dy="0em" fill="currentColor" y="-9">−0.4M</text></g><g class="tick" opacity="1" transform="translate(138,0)"><line stroke="currentColor" y2="-6"/><line stroke="currentColor" stroke-opacity="0.1" y2="1303"/><text dy="0em" fill="currentColor" y="-9">−0.2M</text></g><g class="tick" opacity="1" transform="translate(185,0)"><line stroke="currentColor" y2="-6"/><line stroke="currentColor" stroke-opacity="0.1" y2="1303"/><text dy="0em" fill="currentColor" y="-9">+0.0M</text></g><g class="tick" opacity="1" transform="translate(232,0)"><line stroke="currentColor" y2="-6"/><line stroke="currentColor" stroke-opacity="0.1" y2="1303"/><text dy="0em" fill="currentColor" y="-9">+0.2M</text></g><g class="tick" opacity="1" transform="translate(279,0)"><line stroke="currentColor" y2="-6"/><line stroke="currentColor" stroke-opacity="0.1" y2="1303"/><text dy="0em" fill="currentColor" y="-9">+0.4M</text></g><g class="tick" opacity="1" transform="translate(327,0)"><line stroke="currentColor" y2="-6"/><line stroke="currentColor" stroke-opacity="0.1" y2="1303"/><text dy="0em" fill="currentColor" y="-9">+0.6M</text></g><g class="tick" opacity="1" transform="translate(374,0)"><line stroke="currentColor" y2="-6"/><line stroke="currentColor" stroke-opacity="0.1" y2="1303"/><text dy="0em" fill="currentColor" y="-9">+0.8M</text></g><g class="tick" opacity="1" transform="translate(421,0)"><line stroke="currentColor" y2="-6"/><line stroke="currentColor" stroke-opacity="0.1" y2="1303"/><text dy="0em" fill="currentColor" y="-9">+1.0M</text></g><g class="tick" opacity="1" transform="translate(468,0)"><line stroke="currentColor" y2="-6"/><line stroke="currentColor" stroke-opacity="0.1" y2="1303"/><text dy="0em" fill="currentColor" y="-9">+1.2M</text></g><g class="tick" opacity="1" transform="translate(515,0)"><line stroke="currentColor" y2="-6"/><line stroke="currentColor" stroke-opacity="0.1" y2="1303"/><text dy="0em" fill="currentColor" y="-9">+1.4M</text></g><g class="tick" opacity="1" transform="translate(562,0)"><line stroke="currentColor" y2="-6"/><line stroke="currentColor" stroke-opacity="0.1" y2="1303"/><text dy="0em" fill="currentColor" y="-9">+1.6M</text></g><g class="tick" opacity="1" transform="translate(609,0)"><line stroke="currentColor" y2="-6"/><line stroke="currentColor" stroke-opacity="0.1" y2="1303"/><text dy="0em" fill="currentColor" y="-9">+1.8M</text></g><g class="tick" opacity="1" transform="translate(656,0)"><line stroke="currentColor" y2="-6"/><line stroke="currentColor" stroke-opacity="0.1" y2="1303"/><text dy="0em" fill="currentColor" y="-9">+2.0M</text></g><g class="tick" opacity="1" transform="translate(703,0)"><line stroke="currentColor" y2="-6"/><line stroke="currentColor" stroke-opacity="0.1" y2="1303"/><text dy="0em" fill="currentColor" y="-9">+2.2M</text></g><g class="tick" opacity="1" transform="translate(750,0)"><line stroke="currentColor" y2="-6"/><line stroke="currentColor" stroke-opacity="0.1" y2="1303"/><text dy="0em" fill="currentColor" y="-9">+2.4M</text></g><g class="tick" opacity="1" transform="translate(798,0)"><line stroke="currentColor" y2="-6"/><line stroke="currentColor" stroke-opacity="0.1" y2="1303"/><text dy="0em" fill="currentColor" y="-9">+2.6M</text></g><g class="tick" opacity="1" transform="translate(845,0)"><line stroke="currentColor" y2="-6"/><line stroke="currentColor" stroke-opacity="0.1" y2="1303"/><text dy="0em" fill="currentColor" y="-9">+2.8M</text></g><g class="tick" opacity="1" transform="translate(892,0)"><line stroke="currentColor" y2="-6"/><line stroke="currentColor" stroke-opacity="0.1" y2="1303"/><text dy="0em" fill="currentColor" y="-9">+3.0M</text></g><g class="tick" opacity="1" transform="translate(939,0)"><line stroke="currentColor" y2="-6"/><line stroke="currentColor" stroke-opacity="0.1" y2="1303"/><text dy="0em" fill="currentColor" y="-9">+3.2M</text></g><g class="tick" opacity="1" transform="translate(986,0)"><line stroke="currentColor" y2="-6"/><line stroke="currentColor" stroke-opacity="0.1" y2="1303"/><text dy="0em" fill="currentColor" y="-9">+3.4M</text></g><g class="tick" opacity="1" transform="translate(1033,0)"><line stroke="currentColor" y2="-6"/><line stroke="currentColor" stroke-opacity="0.1" y2="1303"/><text dy="0em" fill="currentColor" y="-9">+3.6M</text></g><g class="tick" opacity="1" transform="translate(1080,0)"><line stroke="currentColor" y2="-6"/><line stroke="currentColor" stroke-opacity="0.1" y2="1303"/><text dy="0em" fill="currentColor" y="-9">+3.8M</text></g></g><g fill="none" font-family="sans-serif" font-size="10" text-anchor="end" transform="translate(185,0)"><path class="domain" d="M0,30V1333" stroke="currentColor"/><g class="tick" opacity="1" transform="translate(0,45)"><line stroke="currentColor" x2="0"/><text dy="0.32em" fill="currentColor" text-anchor="start" x="6">Puerto Rico</text></g><g class="tick" opacity="1" transform="translate(0,70)"><line stroke="currentColor" x2="0"/><text dy="0.32em" fill="currentColor" text-anchor="start" x="6">Illinois</text></g><g class="tick" opacity="1" transform="translate(0,95)"><line stroke="currentColor" x2="0"/><text dy="0.32em" fill="currentColor" text-anchor="start" x="6">West Virginia</text></g><g class="tick" opacity="1" transform="translate(0,120)"><line stroke="currentColor" x2="0"/><text dy="0.32em" fill="currentColor" text-anchor="start" x="6">Connecticut</text></g><g class="tick" opacity="1" transform="translate(0,145)"><line stroke="currentColor" x2="0"/><text dy="0.32em" fill="currentColor" text-anchor="start" x="6">Vermont</text></g><g class="tick" opacity="1" transform="translate(0,170)"><line stroke="currentColor" x2="0"/><text dy="0.32em" fill="currentColor" x="-6">Rhode Island</text></g><g class="tick" opacity="1" transform="translate(0,195)"><line stroke="currentColor" x2="0"/><text dy="0.32em" fill="currentColor" x="-6">Mississippi</text></g><g class="tick" opacity="1" transform="translate(0,220)"><line stroke="currentColor" x2="0"/><text dy="0.32em" fill="currentColor" x="-6">Wyoming</text></g><g class="tick" opacity="1" transform="translate(0,245)"><line stroke="currentColor" x2="0"/><text dy="0.32em" fill="currentColor" x="-6">Maine</text></g><g class="tick" opacity="1" transform="translate(0,270)"><line stroke="currentColor" x2="0"/><text dy="0.32em" fill="currentColor" x="-6">Alaska</text></g><g class="tick" opacity="1" transform="translate(0,295)"><line stroke="currentColor" x2="0"/><text dy="0.32em" fill="currentColor" x="-6">New Mexico</text></g><g class="tick" opacity="1" transform="translate(0,320)"><line stroke="currentColor" x2="0"/><text dy="0.32em" fill="currentColor" x="-6">New Hampshire</text></g><g class="tick" opacity="1" transform="translate(0,345)"><line stroke="currentColor" x2="0"/><text dy="0.32em" fill="currentColor" x="-6">Hawaii</text></g><g class="tick" opacity="1" transform="translate(0,370)"><line stroke="currentColor" x2="0"/><text dy="0.32em" fill="currentColor" x="-6">Kansas</text></g><g class="tick" opacity="1" transform="translate(0,395)"><line stroke="currentColor" x2="0"/><text dy="0.32em" fill="currentColor" x="-6">South Dakota</text></g><g class="tick" opacity="1" transform="translate(0,420)"><line stroke="currentColor" x2="0"/><text dy="0.32em" fill="currentColor" x="-6">New York</text></g><g class="tick" opacity="1" transform="translate(0,445)"><line stroke="currentColor" x2="0"/><text dy="0.32em" fill="currentColor" x="-6">Delaware</text></g><g class="tick" opacity="1" transform="translate(0,470)"><line stroke="currentColor" x2="0"/><text dy="0.32em" fill="currentColor" x="-6">Montana</text></g><g class="tick" opacity="1" transform="translate(0,495)"><line stroke="currentColor" x2="0"/><text dy="0.32em" fill="currentColor" x="-6">North Dakota</text></g><g class="tick" opacity="1" transform="translate(0,520)"><line stroke="currentColor" x2="0"/><text dy="0.32em" fill="currentColor" x="-6">New Jersey</text></g><g class="tick" opacity="1" transform="translate(0,545)"><line stroke="currentColor" x2="0"/><text dy="0.32em" fill="currentColor" x="-6">Pennsylvania</text></g><g class="tick" opacity="1" transform="translate(0,570)"><line stroke="currentColor" x2="0"/><text dy="0.32em" fill="currentColor" x="-6">Arkansas</text></g><g class="tick" opacity="1" transform="translate(0,595)"><line stroke="currentColor" x2="0"/><text dy="0.32em" fill="currentColor" x="-6">Michigan</text></g><g class="tick" opacity="1" transform="translate(0,620)"><line stroke="currentColor" x2="0"/><text dy="0.32em" fill="currentColor" x="-6">District of Columbia</text></g><g class="tick" opacity="1" transform="translate(0,645)"><line stroke="currentColor" x2="0"/><text dy="0.32em" fill="currentColor" x="-6">Nebraska</text></g><g class="tick" opacity="1" transform="translate(0,670)"><line stroke="currentColor" x2="0"/><text dy="0.32em" fill="currentColor" x="-6">Iowa</text></g><g class="tick" opacity="1" transform="translate(0,695)"><line stroke="currentColor" x2="0"/><text dy="0.32em" fill="currentColor" x="-6">Louisiana</text></g><g class="tick" opacity="1" transform="translate(0,720)"><line stroke="currentColor" x2="0"/><text dy="0.32em" fill="currentColor" x="-6">Alabama</text></g><g class="tick" opacity="1" transform="translate(0,745)"><line stroke="currentColor" x2="0"/><text dy="0.32em" fill="currentColor" x="-6">Kentucky</text></g><g class="tick" opacity="1" transform="translate(0,770)"><line stroke="currentColor" x2="0"/><text dy="0.32em" fill="currentColor" x="-6">Wisconsin</text></g><g class="tick" opacity="1" transform="translate(0,795)"><line stroke="currentColor" x2="0"/><text dy="0.32em" fill="currentColor" x="-6">Missouri</text></g><g class="tick" opacity="1" transform="translate(0,820)"><line stroke="currentColor" x2="0"/><text dy="0.32em" fill="currentColor" x="-6">Ohio</text></g><g class="tick" opacity="1" transform="translate(0,845)"><line stroke="currentColor" x2="0"/><text dy="0.32em" fill="currentColor" x="-6">Oklahoma</text></g><g class="tick" opacity="1" transform="translate(0,870)"><line stroke="currentColor" x2="0"/><text dy="0.32em" fill="currentColor" x="-6">Idaho</text></g><g class="tick" opacity="1" transform="translate(0,895)"><line stroke="currentColor" x2="0"/><text dy="0.32em" fill="currentColor" x="-6">Indiana</text></g><g class="tick" opacity="1" transform="translate(0,920)"><line stroke="currentColor" x2="0"/><text dy="0.32em" fill="currentColor" x="-6">Maryland</text></g><g class="tick" opacity="1" transform="translate(0,945)"><line stroke="currentColor" x2="0"/><text dy="0.32em" fill="currentColor" x="-6">Minnesota</text></g><g class="tick" opacity="1" transform="translate(0,970)"><line stroke="currentColor" x2="0"/><text dy="0.32em" fill="currentColor" x="-6">Nevada</text></g><g class="tick" opacity="1" transform="translate(0,995)"><line stroke="currentColor" x2="0"/><text dy="0.32em" fill="currentColor" x="-6">Oregon</text></g><g class="tick" opacity="1" transform="translate(0,1020)"><line stroke="currentColor" x2="0"/><text dy="0.32em" fill="currentColor" x="-6">Massachusetts</text></g><g class="tick" opacity="1" transform="translate(0,1045)"><line stroke="currentColor" x2="0"/><text dy="0.32em" fill="currentColor" x="-6">Utah</text></g><g class="tick" opacity="1" transform="translate(0,1070)"><line stroke="currentColor" x2="0"/><text dy="0.32em" fill="currentColor" x="-6">Tennessee</text></g><g class="tick" opacity="1" transform="translate(0,1095)"><line stroke="currentColor" x2="0"/><text dy="0.32em" fill="currentColor" x="-6">South Carolina</text></g><g class="tick" opacity="1" transform="translate(0,1120)"><line stroke="currentColor" x2="0"/><text dy="0.32em" fill="currentColor" x="-6">Virginia</text></g><g class="tick" opacity="1" transform="translate(0,1145)"><line stroke="currentColor" x2="0"/><text dy="0.32em" fill="currentColor" x="-6">Colorado</text></g><g class="tick" opacity="1" transform="translate(0,1170)"><line stroke="currentColor" x2="0"/><text dy="0.32em" fill="currentColor" x="-6">Arizona</text></g><g class="tick" opacity="1" transform="translate(0,1195)"><line stroke="currentColor" x2="0"/><text dy="0.32em" fill="currentColor" x="-6">Washington</text></g><g class="tick" opacity="1" transform="translate(0,1220)"><line stroke="currentColor" x2="0"/><text dy="0.32em" fill="currentColor" x="-6">Georgia</text></g><g class="tick" opacity="1" transform="translate(0,1245)"><line stroke="currentColor" x2="0"/><text dy="0.32em" fill="currentColor" x="-6">North Carolina</text></g><g class="tick" opacity="1" transform="translate(0,1270)"><line stroke="currentColor" x2="0"/><text dy="0.32em" fill="currentColor" x="-6">California</text></g><g class="tick" opacity="1" transform="translate(0,1295)"><line stroke="currentColor" x2="0"/><text dy="0.32em" fill="currentColor" x="-6">Florida</text></g><g class="tick" opacity="1" transform="translate(0,1320)"><line stroke="currentColor" x2="0"/><text dy="0.32em" fill="currentColor" x="-6">Texas</text></g></g></svg>