<svg viewBox="0,0,928,500" width="928" height="500" style="max-width: 100%; height: auto;" xmlns="http://www.w3.org/2000/svg" xmlns:xlink="http://www.w3.org/1999/xlink"><g class="bars" fill="steelblue"><rect x="111.448275862069" y="187.29615384615383" height="282.70384615384614" width="30.620689655172416"/><rect x="689.8390804597702" y="418.3538461538461" height="51.64615384615388" width="30.620689655172416"/><rect x="417.65517241379314" y="373.7" height="96.30000000000001" width="30.620689655172416"/><rect x="349.60919540229895" y="322.78076923076924" height="147.21923076923076" width="30.620689655172416"/><rect x="43.40229885057474" y="30.31538461538467" height="439.6846153846153" width="30.620689655172416"/><rect x="553.7471264367816" y="390.8" height="79.19999999999999" width="30.620689655172416"/><rect x="587.7701149425288" y="400.25" height="69.75" width="30.620689655172416"/><rect x="281.56321839080465" y="259.0538461538461" height="210.9461538461539" width="30.620689655172416"/><rect x="179.49425287356325" y="228.86923076923077" height="241.13076923076923" width="30.620689655172416"/><rect x="791.9080459770116" y="464.70384615384614" height="5.296153846153857" width="30.620689655172416"/><rect x="757.8850574712645" y="443.2769230769231" height="26.723076923076917" width="30.620689655172416"/><rect x="383.63218390804604" y="330.6730769230769" height="139.3269230769231" width="30.620689655172416"/><rect x="485.70114942528744" y="386.7153846153846" height="83.28461538461539" width="30.620689655172416"/><rect x="213.51724137931038" y="236.38076923076926" height="233.61923076923074" width="30.620689655172416"/><rect x="145.47126436781613" y="210.1423076923077" height="259.85769230769233" width="30.620689655172416"/><rect x="655.8160919540231" y="403.2269230769231" height="66.77307692307693" width="30.620689655172416"/><rect x="859.9540229885059" y="466.7115384615384" height="3.288461538461604" width="30.620689655172416"/><rect x="315.58620689655174" y="262.7576923076923" height="207.2423076923077" width="30.620689655172416"/><rect x="247.54022988505753" y="250.9884615384615" height="219.0115384615385" width="30.620689655172416"/><rect x="77.42528735632186" y="156.5230769230769" height="313.4769230769231" width="30.620689655172416"/><rect x="451.67816091954035" y="374.53076923076924" height="95.46923076923076" width="30.620689655172416"/><rect x="723.8620689655173" y="436.1461538461538" height="33.85384615384618" width="30.620689655172416"/><rect x="519.7241379310345" y="388.30769230769226" height="81.69230769230774" width="30.620689655172416"/><rect x="825.9310344827587" y="464.8076923076923" height="5.192307692307679" width="30.620689655172416"/><rect x="621.7931034482759" y="401.66923076923075" height="68.33076923076925" width="30.620689655172416"/><rect x="893.977011494253" y="467.4384615384616" height="2.5615384615384187" width="30.620689655172416"/></g><g class="x-axis" transform="translate(0,470)" fill="none" font-size="10" font-family="sans-serif" text-anchor="middle"><path class="domain" stroke="currentColor" d="M40.00000000000003,0H928"/><g class="tick" opacity="1" transform="translate(58.712643678160944,0)"><line stroke="currentColor" y2="6"/><text fill="currentColor" y="9" dy="0.71em">E</text></g><g class="tick" opacity="1" transform="translate(92.73563218390807,0)"><line stroke="currentColor" y2="6"/><text fill="currentColor" y="9" dy="0.71em">T</text></g><g class="tick" opacity="1" transform="translate(126.7586206896552,0)"><line stroke="currentColor" y2="6"/><text fill="currentColor" y="9" dy="0.71em">A</text></g><g class="tick" opacity="1" transform="translate(160.78160919540235,0)"><line stroke="currentColor" y2="6"/><text fill="currentColor" y="9" dy="0.71em">O</text></g><g class="tick" opacity="1" transform="translate(194.80459770114948,0)"><line stroke="currentColor" y2="6"/><text fill="currentColor" y="9" dy="0.71em">I</text></g><g class="tick" opacity="1" transform="translate(228.8275862068966,0)"><line stroke="currentColor" y2="6"/><text fill="currentColor" y="9" dy="0.71em">N</text></g><g class="tick" opacity="1" transform="translate(262.8505747126437,0)"><line stroke="currentColor" y2="6"/><text fill="currentColor" y="9" dy="0.71em">S</text></g><g class="tick" opacity="1" transform="translate(296.87356321839087,0)"><line stroke="currentColor" y2="6"/><text fill="currentColor" y="9" dy="0.71em">H</text></g><g class="tick" opacity="1" transform="translate(330.89655172413796,0)"><line stroke="currentColor" y2="6"/><text fill="currentColor" y="9" dy="0.71em">R</text></g><g class="tick" opacity="1" transform="translate(364.9195402298852,0)"><line stroke="currentColor" y2="6"/><text fill="currentColor" y="9" dy="0.71em">D</text></g><g class="tick" opacity="1" transform="translate(398.94252873563227,0)"><line stroke="currentColor" y2="6"/><text fill="currentColor" y="9" dy="0.71em">L</text></g><g class="tick" opacity="1" transform="translate(432.96551724137936,0)"><line stroke="currentColor" y2="6"/><text fill="currentColor" y="9" dy="0.71em">C</text></g><g class="tick" opacity="1" transform="translate(466.98850574712657,0)"><line stroke="currentColor" y2="6"/><text fill="currentColor" y="9" dy="0.71em">U</text></g><g class="tick" opacity="1" transform="translate(501.01149425287366,0)"><line stroke="currentColor" y2="6"/><text fill="currentColor" y="9" dy="0.71em">M</text></g><g class="tick" opacity="1" transform="translate(535.0344827586207,0)"><line stroke="currentColor" y2="6"/><text fill="currentColor" y="9" dy="0.71em">W</text></g><g class="tick" opacity="1" transform="translate(569.0574712643678,0)"><line stroke="currentColor" y2="6"/><text fill="currentColor" y="9" dy="0.71em">F</text></g><g class="tick" opacity="1" transform="translate(603.080459770115,0)"><line stroke="currentColor" y2="6"/><text fill="currentColor" y="9" dy="0.71em">G</text></g><g class="tick" opacity="1" transform="translate(637.1034482758621,0)"><line stroke="currentColor" y2="6"/><text fill="currentColor" y="9" dy="0.71em">Y</text></g><g class="tick" opacity="1" transform="translate(671.1264367816093,0)"><line stroke="currentColor" y2="6"/><text fill="currentColor" y="9" dy="0.71em">P</text></g><g class="tick" opacity="1" transform="translate(705.1494252873564,0)"><line stroke="currentColor" y2="6"/><text fill="currentColor" y="9" dy="0.71em">B</text></g><g class="tick" opacity="1" transform="translate(739.1724137931035,0)"><line stroke="currentColor" y2="6"/><text fill="currentColor" y="9" dy="0.71em">V</text></g><g class="tick" opacity="1" transform="translate(773.1954022988507,0)"><line stroke="currentColor" y2="6"/><text fill="currentColor" y="9" dy="0.71em">K</text></g><g class="tick" opacity="1" transform="translate(807.2183908045978,0)"><line stroke="currentColor" y2="6"/><text fill="currentColor" y="9" dy="0.71em">J</text></g><g class="tick" opacity="1" transform="translate(841.2413793103449,0)"><line stroke="currentColor" y2="6"/><text fill="currentColor" y="9" dy="0.71em">X</text></g><g class="tick" opacity="1" transform="translate(875.2643678160921,0)"><line stroke="currentColor" y2="6"/><text fill="currentColor" y="9" dy="0.71em">Q</text></g><g class="tick" opacity="1" transform="translate(909.2873563218392,0)"><line stroke="currentColor" y2="6"/><text fill="currentColor" y="9" dy="0.71em">Z</text></g></g><g class="y-axis" transform="translate(40,0)" fill="none" font-size="10" font-family="sans-serif" text-anchor="end"><g class="tick" opacity="1" transform="translate(0,470)"><line stroke="currentColor" x2="-6"/><text fill="currentColor" x="-9" dy="0.32em">0.00</text></g><g class="tick" opacity="1" transform="translate(0,435.3846153846154)"><line stroke="currentColor" x2="-6"/><text fill="currentColor" x="-9" dy="0.32em">0.01</text></g><g class="tick" opacity="1" transform="translate(0,400.7692307692308)"><line stroke="currentColor" x2="-6"/><text fill="currentColor" x="-9" dy="0.32em">0.02</text></g><g class="tick" opacity="1" transform="translate(0,366.1538461538462)"><line stroke="currentColor" x2="-6"/><text fill="currentColor" x="-9" dy="0.32em">0.03</text></g><g class="tick" opacity="1" transform="translate(0,331.5384615384615)"><line stroke="currentColor" x2="-6"/><text fill="currentColor" x="-9" dy="0.32em">0.04</text></g><g class="tick" opacity="1" transform="translate(0,296.9230769230769)"><line stroke="currentColor" x2="-6"/><text fill="currentColor" x="-9" dy="0.32em">0.05</text></g><g class="tick" opacity="1" transform="translate(0,262.3076923076924)"><line stroke="currentColor" x2="-6"/><text fill="currentColor" x="-9" dy="0.32em">0.06</text></g><g class="tick" opacity="1" transform="translate(0,227.69230769230765)"><line stroke="currentColor" x2="-6"/><text fill="currentColor" x="-9" dy="0.32em">0.07</text></g><g class="tick" opacity="1" transform="translate(0,193.07692307692307)"><line stroke="currentColor" x2="-6"/><text fill="currentColor" x="-9" dy="0.32em">0.08</text></g><g class="tick" opacity="1" transform="translate(0,158.46153846153845)"><line stroke="currentColor" x2="-6"/><text fill="currentColor" x="-9" dy="0.32em">0.09</text></g><g class="tick" opacity="1" transform="translate(0,123.84615384615383)"><line stroke="currentColor" x2="-6"/><text fill="currentColor" x="-9" dy="0.32em">0.10</text></g><g class="tick" opacity="1" transform="translate(0,89.23076923076923)"><line stroke="currentColor" x2="-6"/><text fill="currentColor" x="-9" dy="0.32em">0.11</text></g><g class="tick" opacity="1" transform="translate(0,54.61538461538464)"><line stroke="currentColor" x2="-6"/><text fill="currentColor" x="-9" dy="0.32em">0.12</text></g><g class="tick" opacity="1" transform="translate(0,20)"><line stroke="currentColor" x2="-6"/><text fill="currentColor" x="-9" dy="0.32em">0.13</text></g></g></svg>