<?xml version="1.0" encoding="utf-8"?>
<svg font="10px sans-serif" height="auto" id="svg" max-width="100%" tag_name="svg" viewBox="-70,-30,880,340" width="900" xmlns="http://www.w3.org/2000/svg" xmlns:xlink="http://www.w3.org/1999/xlink"><g id="g" tag_name="svg/g"><rect class="st3" fill="#ED454A" height="28.5" id="rect_55" tag_name="svg/g/rect_55" width="6.8" x="58" y="153.6"/><rect class="st4" fill="#8CC63F" height="12" id="rect_54" tag_name="svg/g/rect_54" width="6.8" x="69.7" y="170.1"/><rect class="st3" fill="#ED454A" height="50.4" id="rect_53" tag_name="svg/g/rect_53" width="6.8" x="81.3" y="174"/><rect class="st3" fill="#ED454A" height="77.6" id="rect_52" tag_name="svg/g/rect_52" width="6.8" x="197.9" y="92.6"/><rect class="st3" fill="#ED454A" height="38" id="rect_51" tag_name="svg/g/rect_51" width="6.8" x="104.7" y="225.6"/><rect class="st4" fill="#8CC63F" height="14.1" id="rect_50" tag_name="svg/g/rect_50" width="6.8" x="116.3" y="246.1"/><rect class="st4" fill="#8CC63F" height="9.4" id="rect_49" tag_name="svg/g/rect_49" width="6.8" x="128" y="222.9"/><rect class="st3" fill="#ED454A" height="14" id="rect_48" tag_name="svg/g/rect_48" width="6.8" x="139.6" y="216.2"/><rect class="st3" fill="#ED454A" height="21.4" id="rect_47" tag_name="svg/g/rect_47" width="6.8" x="221.2" y="174"/><rect class="st3" fill="#ED454A" height="21.4" id="rect_46" tag_name="svg/g/rect_46" width="6.8" x="279.5" y="149.4"/><rect class="st3" fill="#ED454A" height="7.4" id="rect_45" tag_name="svg/g/rect_45" width="6.8" x="326.2" y="145.8"/><rect class="st3" fill="#ED454A" height="7.4" id="rect_44" tag_name="svg/g/rect_44" width="6.8" x="384.4" y="169.3"/><rect class="st3" fill="#ED454A" height="25.7" id="rect_43" tag_name="svg/g/rect_43" width="6.8" x="407.8" y="168.3"/><rect class="st3" fill="#ED454A" height="9.1" id="rect_42" tag_name="svg/g/rect_42" width="6.8" x="431.1" y="183.6"/><rect class="st3" fill="#ED454A" height="8" id="rect_41" tag_name="svg/g/rect_41" width="6.8" x="454.4" y="186"/><rect class="st3" fill="#ED454A" height="8" id="rect_40" tag_name="svg/g/rect_40" width="6.8" x="547.7" y="266.7"/><rect class="st3" fill="#ED454A" height="6.2" id="rect_39" tag_name="svg/g/rect_39" width="6.8" x="629.3" y="125.9"/><rect class="st3" fill="#ED454A" height="16.3" id="rect_38" tag_name="svg/g/rect_38" width="6.8" x="699.2" y="65.6"/><rect class="st3" fill="#ED454A" height="11.6" id="rect_37" tag_name="svg/g/rect_37" width="6.8" x="524.3" y="225.1"/><rect class="st3" fill="#ED454A" height="24.6" id="rect_36" tag_name="svg/g/rect_36" width="6.8" x="477.7" y="200.6"/><rect class="st3" fill="#ED454A" height="30.9" id="rect_35" tag_name="svg/g/rect_35" width="6.8" x="489.4" y="225.7"/><rect class="st3" fill="#ED454A" height="27.3" id="rect_34" tag_name="svg/g/rect_34" width="6.8" x="536" y="241.2"/><rect class="st3" fill="#ED454A" height="25.8" id="rect_33" tag_name="svg/g/rect_33" width="6.8" x="582.6" y="199.2"/><rect class="st3" fill="#ED454A" height="58.7" id="rect_32" tag_name="svg/g/rect_32" width="6.8" x="640.9" y="136.2"/><rect class="st4" fill="#8CC63F" height="25.8" id="rect_31" tag_name="svg/g/rect_31" width="6.8" x="594.3" y="197"/><rect class="st4" fill="#8CC63F" height="38.8" id="rect_30" tag_name="svg/g/rect_30" width="6.8" x="605.9" y="160.1"/><rect class="st4" fill="#8CC63F" height="31.1" id="rect_29" tag_name="svg/g/rect_29" width="6.8" x="617.6" y="122.7"/><rect class="st4" fill="#8CC63F" height="55.4" id="rect_28" tag_name="svg/g/rect_28" width="6.8" x="652.6" y="98.4"/><rect class="st4" fill="#8CC63F" height="30.9" id="rect_27" tag_name="svg/g/rect_27" width="6.8" x="664.2" y="73.7"/><rect class="st4" fill="#8CC63F" height="31" id="rect_26" tag_name="svg/g/rect_26" width="6.8" x="687.5" y="42.7"/><rect class="st4" fill="#8CC63F" height="9.9" id="rect_25" tag_name="svg/g/rect_25" width="6.8" x="675.9" y="63.8"/><rect class="st3" fill="#ED454A" height="23.8" id="rect_24" tag_name="svg/g/rect_24" width="6.8" x="501" y="254.8"/><rect class="st4" fill="#8CC63F" height="48.9" id="rect_23" tag_name="svg/g/rect_23" width="6.8" x="512.7" y="223.2"/><rect class="st4" fill="#8CC63F" height="31.9" id="rect_22" tag_name="svg/g/rect_22" width="6.8" x="559.3" y="199"/><rect class="st4" fill="#8CC63F" height="7" id="rect_21" tag_name="svg/g/rect_21" width="6.8" x="571" y="195.1"/><rect class="st3" fill="#ED454A" height="4" id="rect_20" tag_name="svg/g/rect_20" width="6.8" x="466" y="195"/><rect class="st3" fill="#ED454A" height="10.4" id="rect_19" tag_name="svg/g/rect_19" width="6.8" x="349.5" y="107.4"/><rect class="st3" fill="#ED454A" height="67.6" id="rect_18" tag_name="svg/g/rect_18" width="6.8" x="361.1" y="112.6"/><rect class="st4" fill="#8CC63F" height="44.1" id="rect_17" tag_name="svg/g/rect_17" width="6.8" x="337.8" y="114.8"/><rect class="st3" fill="#ED454A" height="24.8" id="rect_16" tag_name="svg/g/rect_16" width="6.8" x="291.2" y="167.9"/><rect class="st4" fill="#8CC63F" height="44.3" id="rect_15" tag_name="svg/g/rect_15" width="6.8" x="314.5" y="143.2"/><rect class="st3" fill="#ED454A" height="1.1" id="rect_14" tag_name="svg/g/rect_14" width="6.8" x="302.8" y="190.7"/><rect class="st4" fill="#8CC63F" height="1.1" id="rect_13" tag_name="svg/g/rect_13" width="6.8" x="372.8" y="168.3"/><rect class="st4" fill="#8CC63F" height="2.2" id="rect_12" tag_name="svg/g/rect_12" width="6.8" x="396.1" y="175.8"/><rect class="st4" fill="#8CC63F" height="7" id="rect_11" tag_name="svg/g/rect_11" width="6.8" x="419.4" y="183.6"/><rect class="st4" fill="#8CC63F" height="9.6" id="rect_10" tag_name="svg/g/rect_10" width="6.8" x="442.7" y="182"/><rect class="st3" fill="#ED454A" height="28.4" id="rect_9" tag_name="svg/g/rect_9" width="6.8" x="232.9" y="192.7"/><rect class="st4" fill="#8CC63F" height="18.7" id="rect_8" tag_name="svg/g/rect_8" width="6.8" x="244.6" y="206.9"/><rect class="st3" fill="#ED454A" height="16.4" id="rect_7" tag_name="svg/g/rect_7" width="6.8" x="256.2" y="206.9"/><rect class="st3" fill="#ED454A" height="29.9" id="rect_6" tag_name="svg/g/rect_6" width="6.8" x="267.9" y="230.2"/><rect class="st4" fill="#8CC63F" height="69.7" id="rect_5" tag_name="svg/g/rect_5" width="6.8" x="151.3" y="164.5"/><rect class="st4" fill="#8CC63F" height="45.6" id="rect_4" tag_name="svg/g/rect_4" width="6.8" x="162.9" y="125.9"/><rect class="st4" fill="#8CC63F" height="14.8" id="rect_3" tag_name="svg/g/rect_3" width="6.8" x="174.6" y="100"/><rect class="st4" fill="#8CC63F" height="3.2" id="rect_2" tag_name="svg/g/rect_2" width="6.8" x="186.3" y="94.8"/><rect class="st3" fill="#ED454A" height="5.4" id="rect_1" tag_name="svg/g/rect_1" width="6.8" x="93" y="222.9"/><rect class="st3" fill="#ED454A" height="2.6" id="rect" tag_name="svg/g/rect" width="6.8" x="209.6" y="168.9"/></g></svg>