<?xml version="1.0" encoding="utf-8"?>
<svg height="340" id="svg" tag_name="svg" viewBox="0,0,750,300" width="900" xmlns="http://www.w3.org/2000/svg" xmlns:xlink="http://www.w3.org/1999/xlink"><g id="g" tag_name="svg/g"><rect fill="#3996c9" height="12.8" id="rect_37" tag_name="svg/g/rect_37" width="85" x="461.8" y="275.8"/><rect fill="#3996c9" height="12.8" id="rect_36" tag_name="svg/g/rect_36" width="88.1" x="458.8" y="261.8"/><rect fill="#3996c9" height="12.8" id="rect_35" tag_name="svg/g/rect_35" width="87.7" x="459.2" y="247.9"/><rect fill="#3996c9" height="12.8" id="rect_34" tag_name="svg/g/rect_34" width="86.3" x="460.5" y="234"/><rect fill="#3996c9" height="12.8" id="rect_33" tag_name="svg/g/rect_33" width="83" x="463.9" y="220.2"/><rect fill="#3996c9" height="13.5" id="rect_32" tag_name="svg/g/rect_32" width="102.2" x="444.6" y="191"/><rect fill="#3996c9" height="12.8" id="rect_31" tag_name="svg/g/rect_31" width="97.8" x="449" y="177.2"/><rect fill="#3996c9" height="13" id="rect_30" tag_name="svg/g/rect_30" width="100.3" x="446.7" y="162.9"/><rect fill="#3996c9" height="12.5" id="rect_29" tag_name="svg/g/rect_29" width="97.1" x="449.9" y="149.3"/><rect fill="#3996c9" height="13.2" id="rect_28" tag_name="svg/g/rect_28" width="87.7" x="459.3" y="134.7"/><rect fill="#3996c9" height="13" id="rect_27" tag_name="svg/g/rect_27" width="79.6" x="467.4" y="120.5"/><rect fill="#3996c9" height="12.8" id="rect_26" tag_name="svg/g/rect_26" width="78.4" x="468.6" y="106.7"/><rect fill="#3996c9" height="12.9" id="rect_25" tag_name="svg/g/rect_25" width="66.4" x="480.6" y="92.7"/><rect fill="#3996c9" height="12.9" id="rect_24" tag_name="svg/g/rect_24" width="49.7" x="497.3" y="78.7"/><rect fill="#3996c9" height="13.2" id="rect_23" tag_name="svg/g/rect_23" width="36" x="511" y="64.3"/><rect fill="#3996c9" height="13.2" id="rect_22" tag_name="svg/g/rect_22" width="23.6" x="523.4" y="50"/><rect fill="#3996c9" height="12.4" id="rect_21" tag_name="svg/g/rect_21" width="13.3" x="533.7" y="36.3"/><rect fill="#3996c9" height="13" id="rect_20" tag_name="svg/g/rect_20" width="5.7" x="541.3" y="22.1"/><rect fill="#3996c9" height="13.2" id="rect_19" tag_name="svg/g/rect_19" width="95.2" x="451.7" y="205.5"/><rect fill="#ed2d80" height="12.8" id="rect_18" tag_name="svg/g/rect_18" width="88.1" x="546.9" y="275.8"/><rect fill="#ed2d80" height="12.8" id="rect_17" tag_name="svg/g/rect_17" width="96.2" x="546.9" y="261.8"/><rect fill="#ed2d80" height="12.8" id="rect_16" tag_name="svg/g/rect_16" width="90.7" x="546.9" y="247.9"/><rect fill="#ed2d80" height="12.8" id="rect_15" tag_name="svg/g/rect_15" width="90.9" x="546.9" y="234"/><rect fill="#ed2d80" height="12.8" id="rect_14" tag_name="svg/g/rect_14" width="87.3" x="546.9" y="220.2"/><rect fill="#ed2d80" height="13.5" id="rect_13" tag_name="svg/g/rect_13" width="92.8" x="546.9" y="191"/><rect fill="#ed2d80" height="12.8" id="rect_12" tag_name="svg/g/rect_12" width="99.2" x="546.9" y="177.2"/><rect fill="#ed2d80" height="13" id="rect_11" tag_name="svg/g/rect_11" width="104.7" x="546.9" y="162.9"/><rect fill="#ed2d80" height="12.5" id="rect_10" tag_name="svg/g/rect_10" width="95.4" x="546.9" y="149.3"/><rect fill="#ed2d80" height="13.2" id="rect_9" tag_name="svg/g/rect_9" width="84" x="546.9" y="134.7"/><rect fill="#ed2d80" height="13" id="rect_8" tag_name="svg/g/rect_8" width="76.8" x="546.9" y="120.5"/><rect fill="#ed2d80" height="12.8" id="rect_7" tag_name="svg/g/rect_7" width="72.1" x="546.9" y="106.7"/><rect fill="#ed2d80" height="12.9" id="rect_6" tag_name="svg/g/rect_6" width="65.4" x="546.9" y="92.7"/><rect fill="#ed2d80" height="12.9" id="rect_5" tag_name="svg/g/rect_5" width="56.3" x="546.9" y="78.7"/><rect fill="#ed2d80" height="13.2" id="rect_4" tag_name="svg/g/rect_4" width="46.8" x="546.9" y="64.3"/><rect fill="#ed2d80" height="13.2" id="rect_3" tag_name="svg/g/rect_3" width="34.7" x="546.9" y="50"/><rect fill="#ed2d80" height="12.4" id="rect_2" tag_name="svg/g/rect_2" width="21.8" x="546.9" y="36.3"/><rect fill="#ed2d80" height="13" id="rect_1" tag_name="svg/g/rect_1" width="13.2" x="546.9" y="22.1"/><rect fill="#ed2d80" height="13.2" id="rect" tag_name="svg/g/rect" width="88.9" x="546.9" y="205.5"/></g></svg>