<?xml version="1.0" encoding="utf-8"?>
<svg height="340" id="svg" tag_name="svg" viewBox="0,0,550,300" width="900" xmlns="http://www.w3.org/2000/svg" xmlns:xlink="http://www.w3.org/1999/xlink"><g aria-hidden="false" class="highcharts-series-group" data-z-index="3" filter="none" id="g" tag_name="svg/g"><g id="g_10" tag_name="svg/g/g_10"><path d="M 4.9803921568583 222.39405 L 46.483660130715 215.6652 L 87.986928104572 192.139875 L 129.49019607843 168.396525 L 170.99346405229 125.196225 L 212.49673202614 82.104225 L 254 40.565475 L 295.50326797386 49.62705 L 337.00653594771 63.901275 L 378.50980392157 54.92805 L 420.01307189543 64.68075 L 461.51633986928 44.232 L 503.01960784314 40.52985" data-z-index="1" fill="none" id="path_61" stroke="#2caffe" stroke-width="2" tag_name="svg/g/g_10/path_61"/></g><g id="g_9" tag_name="svg/g/g_9"><path aria-label="x, 2010, 43,934. Installation &amp; Developers." d="M 4.5 226.39405 A 4 4 0 1 1 4.500199999999918 226.394049995 Z" fill="#2caffe" id="path_60" opacity="1" role="img" stroke="#ffffff" stroke-width="0" tabindex="-1" tag_name="svg/g/g_9/path_60"/><path aria-label="x, 2011, 48,656. Installation &amp; Developers." d="M 46.5 219.6652 A 4 4 0 1 1 46.500199999999914 219.665199995 Z" fill="#2caffe" id="path_59" opacity="1" role="img" stroke="#ffffff" stroke-width="0" tabindex="-1" tag_name="svg/g/g_9/path_59"/><path aria-label="x, 2012, 65,165. Installation &amp; Developers." d="M 87.5 196.139875 A 4 4 0 1 1 87.50019999999992 196.13987499499999 Z" fill="#2caffe" id="path_58" opacity="1" role="img" stroke="#ffffff" stroke-width="0" tabindex="-1" tag_name="svg/g/g_9/path_58"/><path aria-label="x, 2013, 81,827. Installation &amp; Developers." d="M 129.5 172.396525 A 4 4 0 1 1 129.50019999999992 172.396524995 Z" fill="#2caffe" id="path_57" opacity="1" role="img" stroke="#ffffff" stroke-width="0" tabindex="-1" tag_name="svg/g/g_9/path_57"/><path aria-label="x, 2014, 112,143. Installation &amp; Developers." d="M 170.5 129.196225 A 4 4 0 1 1 170.50019999999992 129.196224995 Z" fill="#2caffe" id="path_56" opacity="1" role="img" stroke="#ffffff" stroke-width="0" tabindex="-1" tag_name="svg/g/g_9/path_56"/><path aria-label="x, 2015, 142,383. Installation &amp; Developers." d="M 212.5 86.104225 A 4 4 0 1 1 212.50019999999992 86.104224995 Z" fill="#2caffe" id="path_55" opacity="1" role="img" stroke="#ffffff" stroke-width="0" tabindex="-1" tag_name="svg/g/g_9/path_55"/><path aria-label="x, 2016, 171,533. Installation &amp; Developers." d="M 254.5 44.565475 A 4 4 0 1 1 254.50019999999992 44.565474995 Z" fill="#2caffe" id="path_54" opacity="1" role="img" stroke="#ffffff" stroke-width="0" tabindex="-1" tag_name="svg/g/g_9/path_54"/><path aria-label="x, 2017, 165,174. Installation &amp; Developers." d="M 295.5 53.62705 A 4 4 0 1 1 295.5001999999999 53.627049995 Z" fill="#2caffe" id="path_53" opacity="1" role="img" stroke="#ffffff" stroke-width="0" tabindex="-1" tag_name="svg/g/g_9/path_53"/><path aria-label="x, 2018, 155,157. Installation &amp; Developers." d="M 337.5 67.901275 A 4 4 0 1 1 337.5001999999999 67.901274995 Z" fill="#2caffe" id="path_52" opacity="1" role="img" stroke="#ffffff" stroke-width="0" tabindex="-1" tag_name="svg/g/g_9/path_52"/><path aria-label="x, 2019, 161,454. Installation &amp; Developers." d="M 378.5 58.92805 A 4 4 0 1 1 378.5001999999999 58.928049995 Z" fill="#2caffe" id="path_51" opacity="1" role="img" stroke="#ffffff" stroke-width="0" tabindex="-1" tag_name="svg/g/g_9/path_51"/><path aria-label="x, 2020, 154,610. Installation &amp; Developers." d="M 420.5 68.68075 A 4 4 0 1 1 420.5001999999999 68.680749995 Z" fill="#2caffe" id="path_50" opacity="1" role="img" stroke="#ffffff" stroke-width="0" tabindex="-1" tag_name="svg/g/g_9/path_50"/><path aria-label="x, 2021, 168,960. Installation &amp; Developers." d="M 461.5 48.232 A 4 4 0 1 1 461.5001999999999 48.231999995 Z" fill="#2caffe" id="path_49" opacity="1" role="img" stroke="#ffffff" stroke-width="0" tabindex="-1" tag_name="svg/g/g_9/path_49"/><path aria-label="x, 2022, 171,558. Installation &amp; Developers." d="M 503.5 44.52985 A 4 4 0 1 1 503.5001999999999 44.529849995000006 Z" fill="#2caffe" id="path_48" opacity="1" role="img" stroke="#ffffff" stroke-width="0" tabindex="-1" tag_name="svg/g/g_9/path_48"/></g><g id="g_8" tag_name="svg/g/g_8"><path d="M 4.9803921568583 249.4947 L 46.483660130715 230.934075 L 87.986928104572 242.61765 L 129.49019607843 242.462325 L 170.99346405229 238.70175 L 212.49673202614 241.84815 L 254 230.677575 L 295.50326797386 232.438875 L 337.00653594771 236.94045 L 378.50980392157 236.203725 L 420.01307189543 240.75375 L 461.51633986928 237.833925 L 503.01960784314 237.300975" data-z-index="1" fill="none" filter="none" id="path_47" stroke="#544fc5" stroke-linecap="round" stroke-linejoin="round" stroke-width="2" tag_name="svg/g/g_8/path_47"/></g><g id="g_7" tag_name="svg/g/g_7"><path aria-label="x, 2010, 24,916. Manufacturing." d="M 4.5 245.4947 L 8.5 249.4947 L 4.5 253.4947 L 0.5 249.4947 Z" fill="#544fc5" id="path_46" opacity="1" stroke="#ffffff" stroke-width="0" tag_name="svg/g/g_7/path_46"/><path aria-label="x, 2011, 37,941. Manufacturing." d="M 46.5 226.934075 L 50.5 230.934075 L 46.5 234.934075 L 42.5 230.934075 Z" fill="#544fc5" id="path_45" opacity="1" stroke="#ffffff" stroke-width="0" tag_name="svg/g/g_7/path_45"/><path aria-label="x, 2012, 29,742. Manufacturing." d="M 87.5 238.61765 L 91.5 242.61765 L 87.5 246.61765 L 83.5 242.61765 Z" fill="#544fc5" id="path_44" opacity="1" stroke="#ffffff" stroke-width="0" tag_name="svg/g/g_7/path_44"/><path aria-label="x, 2013, 29,851. Manufacturing." d="M 129.5 238.462325 L 133.5 242.462325 L 129.5 246.462325 L 125.5 242.462325 Z" fill="#544fc5" id="path_43" opacity="1" stroke="#ffffff" stroke-width="0" tag_name="svg/g/g_7/path_43"/><path aria-label="x, 2014, 32,490. Manufacturing." d="M 170.5 234.70175 L 174.5 238.70175 L 170.5 242.70175 L 166.5 238.70175 Z" fill="#544fc5" id="path_42" opacity="1" stroke="#ffffff" stroke-width="0" tag_name="svg/g/g_7/path_42"/><path aria-label="x, 2015, 30,282. Manufacturing." d="M 212.5 237.84815 L 216.5 241.84815 L 212.5 245.84815 L 208.5 241.84815 Z" fill="#544fc5" id="path_41" opacity="1" stroke="#ffffff" stroke-width="0" tag_name="svg/g/g_7/path_41"/><path aria-label="x, 2016, 38,121. Manufacturing." d="M 254.5 226.677575 L 258.5 230.677575 L 254.5 234.677575 L 250.5 230.677575 Z" fill="#544fc5" id="path_40" opacity="1" stroke="#ffffff" stroke-width="0" tag_name="svg/g/g_7/path_40"/><path aria-label="x, 2017, 36,885. Manufacturing." d="M 295.5 228.438875 L 299.5 232.438875 L 295.5 236.438875 L 291.5 232.438875 Z" fill="#544fc5" id="path_39" opacity="1" stroke="#ffffff" stroke-width="0" tag_name="svg/g/g_7/path_39"/><path aria-label="x, 2018, 33,726. Manufacturing." d="M 337.5 232.94045 L 341.5 236.94045 L 337.5 240.94045 L 333.5 236.94045 Z" fill="#544fc5" id="path_38" opacity="1" stroke="#ffffff" stroke-width="0" tag_name="svg/g/g_7/path_38"/><path aria-label="x, 2019, 34,243. Manufacturing." d="M 378.5 232.203725 L 382.5 236.203725 L 378.5 240.203725 L 374.5 236.203725 Z" fill="#544fc5" id="path_37" opacity="1" stroke="#ffffff" stroke-width="0" tag_name="svg/g/g_7/path_37"/><path aria-label="x, 2020, 31,050. Manufacturing." d="M 420.5 236.75375 L 424.5 240.75375 L 420.5 244.75375 L 416.5 240.75375 Z" fill="#544fc5" id="path_36" opacity="1" stroke="#ffffff" stroke-width="0" tag_name="svg/g/g_7/path_36"/><path aria-label="x, 2021, 33,099. Manufacturing." d="M 461.5 233.833925 L 465.5 237.833925 L 461.5 241.833925 L 457.5 237.833925 Z" fill="#544fc5" id="path_35" opacity="1" stroke="#ffffff" stroke-width="0" tag_name="svg/g/g_7/path_35"/><path aria-label="x, 2022, 33,473. Manufacturing." d="M 503.5 233.300975 L 507.5 237.300975 L 503.5 241.300975 L 499.5 237.300975 Z" fill="#544fc5" id="path_34" opacity="1" stroke="#ffffff" stroke-width="0" tag_name="svg/g/g_7/path_34"/></g><g id="g_6" tag_name="svg/g/g_6"><path d="M 4.9803921568583 268.2648 L 46.483660130715 242.25 L 87.986928104572 262.192875 L 129.49019607843 256.826325 L 170.99346405229 256.236375 L 212.49673202614 250.262775 L 254 239.190525 L 295.50326797386 240.9504 L 337.00653594771 243.328725 L 378.50980392157 243.371475 L 420.01307189543 248.430225 L 461.51633986928 243.70635 L 503.01960784314 241.36935" data-z-index="1" fill="none" filter="none" id="path_33" stroke="#00e272" stroke-linecap="round" stroke-linejoin="round" stroke-width="2" tag_name="svg/g/g_6/path_33"/></g><g id="g_5" tag_name="svg/g/g_5"><path aria-label="x, 2010, 11,744. Sales &amp; Distribution." d="M 0.5 264.2648 L 8.5 264.2648 L 8.5 272.2648 L 0.5 272.2648 Z" fill="#00e272" id="path_32" opacity="1" role="img" stroke="#ffffff" stroke-width="0" tabindex="-1" tag_name="svg/g/g_5/path_32"/><path aria-label="x, 2011, 30,000. Sales &amp; Distribution." d="M 42.5 238.25 L 50.5 238.25 L 50.5 246.25 L 42.5 246.25 Z" fill="#00e272" id="path_31" opacity="1" role="img" stroke="#ffffff" stroke-width="0" tabindex="-1" tag_name="svg/g/g_5/path_31"/><path aria-label="x, 2012, 16,005. Sales &amp; Distribution." d="M 83.5 258.192875 L 91.5 258.192875 L 91.5 266.192875 L 83.5 266.192875 Z" fill="#00e272" id="path_30" opacity="1" role="img" stroke="#ffffff" stroke-width="0" tabindex="-1" tag_name="svg/g/g_5/path_30"/><path aria-label="x, 2013, 19,771. Sales &amp; Distribution." d="M 125.5 252.826325 L 133.5 252.826325 L 133.5 260.826325 L 125.5 260.826325 Z" fill="#00e272" id="path_29" opacity="1" role="img" stroke="#ffffff" stroke-width="0" tabindex="-1" tag_name="svg/g/g_5/path_29"/><path aria-label="x, 2014, 20,185. Sales &amp; Distribution." d="M 166.5 252.236375 L 174.5 252.236375 L 174.5 260.236375 L 166.5 260.236375 Z" fill="#00e272" id="path_28" opacity="1" role="img" stroke="#ffffff" stroke-width="0" tabindex="-1" tag_name="svg/g/g_5/path_28"/><path aria-label="x, 2015, 24,377. Sales &amp; Distribution." d="M 208.5 246.262775 L 216.5 246.262775 L 216.5 254.262775 L 208.5 254.262775 Z" fill="#00e272" id="path_27" opacity="1" role="img" stroke="#ffffff" stroke-width="0" tabindex="-1" tag_name="svg/g/g_5/path_27"/><path aria-label="x, 2016, 32,147. Sales &amp; Distribution." d="M 250.5 235.190525 L 258.5 235.190525 L 258.5 243.190525 L 250.5 243.190525 Z" fill="#00e272" id="path_26" opacity="1" role="img" stroke="#ffffff" stroke-width="0" tabindex="-1" tag_name="svg/g/g_5/path_26"/><path aria-label="x, 2017, 30,912. Sales &amp; Distribution." d="M 291.5 236.9504 L 299.5 236.9504 L 299.5 244.9504 L 291.5 244.9504 Z" fill="#00e272" id="path_25" opacity="1" role="img" stroke="#ffffff" stroke-width="0" tabindex="-1" tag_name="svg/g/g_5/path_25"/><path aria-label="x, 2018, 29,243. Sales &amp; Distribution." d="M 333.5 239.328725 L 341.5 239.328725 L 341.5 247.328725 L 333.5 247.328725 Z" fill="#00e272" id="path_24" opacity="1" role="img" stroke="#ffffff" stroke-width="0" tabindex="-1" tag_name="svg/g/g_5/path_24"/><path aria-label="x, 2019, 29,213. Sales &amp; Distribution." d="M 374.5 239.371475 L 382.5 239.371475 L 382.5 247.371475 L 374.5 247.371475 Z" fill="#00e272" id="path_23" opacity="1" role="img" stroke="#ffffff" stroke-width="0" tabindex="-1" tag_name="svg/g/g_5/path_23"/><path aria-label="x, 2020, 25,663. Sales &amp; Distribution." d="M 416.5 244.430225 L 424.5 244.430225 L 424.5 252.430225 L 416.5 252.430225 Z" fill="#00e272" id="path_22" opacity="1" role="img" stroke="#ffffff" stroke-width="0" tabindex="-1" tag_name="svg/g/g_5/path_22"/><path aria-label="x, 2021, 28,978. Sales &amp; Distribution." d="M 457.5 239.70635 L 465.5 239.70635 L 465.5 247.70635 L 457.5 247.70635 Z" fill="#00e272" id="path_21" opacity="1" role="img" stroke="#ffffff" stroke-width="0" tabindex="-1" tag_name="svg/g/g_5/path_21"/><path aria-label="x, 2022, 30,618. Sales &amp; Distribution." d="M 499.5 237.36935 L 507.5 237.36935 L 507.5 245.36935 L 499.5 245.36935 Z" fill="#00e272" id="path_20" opacity="1" role="img" stroke="#ffffff" stroke-width="0" tabindex="-1" tag_name="svg/g/g_5/path_20"/></g><g id="g_4" tag_name="svg/g/g_4"><path d="M 337.00653594771 269.0913 L 378.50980392157 269.01435 L 420.01307189543 270.640275 L 461.51633986928 267.14475 L 503.01960784314 261.366375" data-z-index="1" fill="none" filter="none" id="path_19" stroke="#fe6a35" stroke-linecap="round" stroke-linejoin="round" stroke-width="2" tag_name="svg/g/g_4/path_19"/></g><g id="g_3" tag_name="svg/g/g_3"><path aria-label="x, 2018, 11,164. Operations &amp; Maintenance." d="M 337.5 265.0913 L 341.5 273.0913 L 333.5 273.0913 Z" fill="#fe6a35" id="path_18" opacity="1" role="img" stroke="#ffffff" stroke-width="0" tabindex="-1" tag_name="svg/g/g_3/path_18"/><path aria-label="x, 2019, 11,218. Operations &amp; Maintenance." d="M 378.5 265.01435 L 382.5 273.01435 L 374.5 273.01435 Z" fill="#fe6a35" id="path_17" opacity="1" role="img" stroke="#ffffff" stroke-width="0" tabindex="-1" tag_name="svg/g/g_3/path_17"/><path aria-label="x, 2020, 10,077. Operations &amp; Maintenance." d="M 420.5 266.640275 L 424.5 274.640275 L 416.5 274.640275 Z" fill="#fe6a35" id="path_16" opacity="1" role="img" stroke="#ffffff" stroke-width="0" tabindex="-1" tag_name="svg/g/g_3/path_16"/><path aria-label="x, 2021, 12,530. Operations &amp; Maintenance." d="M 461.5 263.14475 L 465.5 271.14475 L 457.5 271.14475 Z" fill="#fe6a35" id="path_15" opacity="1" role="img" stroke="#ffffff" stroke-width="0" tabindex="-1" tag_name="svg/g/g_3/path_15"/><path aria-label="x, 2022, 16,585. Operations &amp; Maintenance." d="M 503.5 257.366375 L 507.5 265.366375 L 499.5 265.366375 Z" fill="#fe6a35" id="path_14" opacity="1" role="img" stroke="#ffffff" stroke-width="0" tabindex="-1" tag_name="svg/g/g_3/path_14"/></g><g id="g_2" tag_name="svg/g/g_2"><path d="M 4.9803921568583 253.7811 L 46.483660130715 277.0941 L 87.986928104572 273.450375 L 129.49019607843 268.9716 L 170.99346405229 272.190675 L 212.49673202614 268.1622 L 254 258.95955 L 295.50326797386 260.3475 L 337.00653594771 266.399475 L 378.50980392157 268.03395 L 420.01307189543 270.645975 L 461.51633986928 268.653825 L 503.01960784314 268.4016" data-z-index="1" fill="none" filter="none" id="path_13" stroke="#6b8abc" stroke-linecap="round" stroke-linejoin="round" stroke-width="2" tag_name="svg/g/g_2/path_13"/></g><g id="g_1" tag_name="svg/g/g_1"><path aria-label="x, 2010, 21,908. Other." d="M 0.5 249.7811 L 8.5 249.7811 L 4.5 257.78110000000004 Z" fill="#6b8abc" id="path_12" opacity="1" role="img" stroke="#ffffff" stroke-width="0" tabindex="-1" tag_name="svg/g/g_1/path_12"/><path aria-label="x, 2011, 5,548. Other." d="M 42.5 273.0941 L 50.5 273.0941 L 46.5 281.0941 Z" fill="#6b8abc" id="path_11" opacity="1" role="img" stroke="#ffffff" stroke-width="0" tabindex="-1" tag_name="svg/g/g_1/path_11"/><path aria-label="x, 2012, 8,105. Other." d="M 83.5 269.450375 L 91.5 269.450375 L 87.5 277.450375 Z" fill="#6b8abc" id="path_10" opacity="1" role="img" stroke="#ffffff" stroke-width="0" tabindex="-1" tag_name="svg/g/g_1/path_10"/><path aria-label="x, 2013, 11,248. Other." d="M 125.5 264.9716 L 133.5 264.9716 L 129.5 272.9716 Z" fill="#6b8abc" id="path_9" opacity="1" role="img" stroke="#ffffff" stroke-width="0" tabindex="-1" tag_name="svg/g/g_1/path_9"/><path aria-label="x, 2014, 8,989. Other." d="M 166.5 268.190675 L 174.5 268.190675 L 170.5 276.190675 Z" fill="#6b8abc" id="path_8" opacity="1" role="img" stroke="#ffffff" stroke-width="0" tabindex="-1" tag_name="svg/g/g_1/path_8"/><path aria-label="x, 2015, 11,816. Other." d="M 208.5 264.1622 L 216.5 264.1622 L 212.5 272.1622 Z" fill="#6b8abc" id="path_7" opacity="1" role="img" stroke="#ffffff" stroke-width="0" tabindex="-1" tag_name="svg/g/g_1/path_7"/><path aria-label="x, 2016, 18,274. Other." d="M 250.5 254.95954999999998 L 258.5 254.95954999999998 L 254.5 262.95955 Z" fill="#6b8abc" id="path_6" opacity="1" role="img" stroke="#ffffff" stroke-width="0" tabindex="-1" tag_name="svg/g/g_1/path_6"/><path aria-label="x, 2017, 17,300. Other." d="M 291.5 256.3475 L 299.5 256.3475 L 295.5 264.3475 Z" fill="#6b8abc" id="path_5" opacity="1" role="img" stroke="#ffffff" stroke-width="0" tabindex="-1" tag_name="svg/g/g_1/path_5"/><path aria-label="x, 2018, 13,053. Other." d="M 333.5 262.399475 L 341.5 262.399475 L 337.5 270.399475 Z" fill="#6b8abc" id="path_4" opacity="1" role="img" stroke="#ffffff" stroke-width="0" tabindex="-1" tag_name="svg/g/g_1/path_4"/><path aria-label="x, 2019, 11,906. Other." d="M 374.5 264.03395 L 382.5 264.03395 L 378.5 272.03395 Z" fill="#6b8abc" id="path_3" opacity="1" role="img" stroke="#ffffff" stroke-width="0" tabindex="-1" tag_name="svg/g/g_1/path_3"/><path aria-label="x, 2020, 10,073. Other." d="M 416.5 266.645975 L 424.5 266.645975 L 420.5 274.645975 Z" fill="#6b8abc" id="path_2" opacity="1" role="img" stroke="#ffffff" stroke-width="0" tabindex="-1" tag_name="svg/g/g_1/path_2"/><path aria-label="x, 2021, 11,471. Other." d="M 457.5 264.653825 L 465.5 264.653825 L 461.5 272.653825 Z" fill="#6b8abc" id="path_1" opacity="1" role="img" stroke="#ffffff" stroke-width="0" tabindex="-1" tag_name="svg/g/g_1/path_1"/><path aria-label="x, 2022, 11,648. Other." d="M 499.5 264.4016 L 507.5 264.4016 L 503.5 272.4016 Z" fill="#6b8abc" id="path" opacity="1" role="img" stroke="#ffffff" stroke-width="0" tabindex="-1" tag_name="svg/g/g_1/path"/></g></g></svg>