<?xml version="1.0" encoding="utf-8"?>
<svg height="340" id="svg" tag_name="svg" viewBox="50,0,800,400" width="900" xmlns="http://www.w3.org/2000/svg" xmlns:xlink="http://www.w3.org/1999/xlink"><rect fill="#3366cc" height="35" id="rect_24" tag_name="svg/rect_24" width="13" x="184" y="369"/><rect fill="#3366cc" height="29" id="rect_23" tag_name="svg/rect_23" width="14" x="299" y="375"/><rect fill="#3366cc" height="34" id="rect_22" tag_name="svg/rect_22" width="13" x="415" y="370"/><rect fill="#3366cc" height="30" id="rect_21" tag_name="svg/rect_21" width="14" x="530" y="374"/><rect fill="#3366cc" height="29" id="rect_20" tag_name="svg/rect_20" width="13" x="646" y="375"/><rect fill="#dc3912" height="205" id="rect_19" tag_name="svg/rect_19" width="14" x="198" y="199"/><rect fill="#dc3912" height="245" id="rect_18" tag_name="svg/rect_18" width="13" x="314" y="159"/><rect fill="#dc3912" height="256" id="rect_17" tag_name="svg/rect_17" width="14" x="429" y="148"/><rect fill="#dc3912" height="243" id="rect_16" tag_name="svg/rect_16" width="13" x="545" y="161"/><rect fill="#dc3912" height="151" id="rect_15" tag_name="svg/rect_15" width="14" x="660" y="253"/><rect fill="#ff9900" height="114" id="rect_14" tag_name="svg/rect_14" width="13" x="213" y="290"/><rect fill="#ff9900" height="131" id="rect_13" tag_name="svg/rect_13" width="14" x="328" y="273"/><rect fill="#ff9900" height="128" id="rect_12" tag_name="svg/rect_12" width="13" x="444" y="276"/><rect fill="#ff9900" height="134" id="rect_11" tag_name="svg/rect_11" width="14" x="559" y="270"/><rect fill="#ff9900" height="137" id="rect_10" tag_name="svg/rect_10" width="13" x="675" y="267"/><rect fill="#109618" height="219" id="rect_9" tag_name="svg/rect_9" width="14" x="227" y="185"/><rect fill="#109618" height="278" id="rect_8" tag_name="svg/rect_8" width="13" x="343" y="126"/><rect fill="#109618" height="177" id="rect_7" tag_name="svg/rect_7" width="14" x="458" y="227"/><rect fill="#109618" height="212" id="rect_6" tag_name="svg/rect_6" width="13" x="574" y="192"/><rect fill="#109618" height="225" id="rect_5" tag_name="svg/rect_5" width="14" x="689" y="179"/><rect fill="#990099" height="98" id="rect_4" tag_name="svg/rect_4" width="13" x="242" y="306"/><rect fill="#990099" height="62" id="rect_3" tag_name="svg/rect_3" width="14" x="357" y="342"/><rect fill="#990099" height="86" id="rect_2" tag_name="svg/rect_2" width="13" x="473" y="318"/><rect fill="#990099" height="46" id="rect_1" tag_name="svg/rect_1" width="14" x="588" y="358"/><rect fill="#990099" height="80" id="rect" tag_name="svg/rect" width="13" x="704" y="324"/></svg>