<?xml version="1.0" encoding="utf-8"?>
<svg height="340" id="svg" tag_name="svg" viewBox="0,0,1100,700" width="900" xmlns="http://www.w3.org/2000/svg" xmlns:xlink="http://www.w3.org/1999/xlink"><rect fill="#2ca02c" height="36.77777777777778" id="rect_166" tag_name="svg/rect_166" width="36.77777777777778" x="807.2092013888889" y="416.05555555555554"/><rect fill="#2ca02c" height="36.77777777777778" id="rect_165" tag_name="svg/rect_165" width="36.77777777777778" x="769.4314236111111" y="416.05555555555554"/><rect fill="#2ca02c" height="36.77777777777778" id="rect_164" tag_name="svg/rect_164" width="36.77777777777778" x="731.6536458333333" y="416.05555555555554"/><rect fill="#2ca02c" height="36.77777777777778" id="rect_163" tag_name="svg/rect_163" width="36.77777777777778" x="693.8758680555555" y="416.05555555555554"/><rect fill="#2ca02c" height="36.77777777777778" id="rect_162" tag_name="svg/rect_162" width="36.77777777777778" x="656.0980902777778" y="416.05555555555554"/><rect fill="#2ca02c" height="36.77777777777778" id="rect_161" tag_name="svg/rect_161" width="36.77777777777778" x="618.3203125" y="416.05555555555554"/><rect fill="#2ca02c" height="36.77777777777778" id="rect_160" tag_name="svg/rect_160" width="36.77777777777778" x="580.5425347222222" y="416.05555555555554"/><rect fill="#2ca02c" height="36.77777777777778" id="rect_159" tag_name="svg/rect_159" width="36.77777777777778" x="542.7647569444445" y="416.05555555555554"/><rect fill="#2ca02c" height="36.77777777777778" id="rect_158" tag_name="svg/rect_158" width="36.77777777777778" x="504.98697916666663" y="416.05555555555554"/><rect fill="#2ca02c" height="36.77777777777778" id="rect_157" tag_name="svg/rect_157" width="36.77777777777778" x="467.2092013888889" y="416.05555555555554"/><rect fill="#2ca02c" height="36.77777777777778" id="rect_156" tag_name="svg/rect_156" width="36.77777777777778" x="429.4314236111111" y="416.05555555555554"/><rect fill="#2ca02c" height="36.77777777777778" id="rect_155" tag_name="svg/rect_155" width="36.77777777777778" x="391.6536458333333" y="416.05555555555554"/><rect fill="#2ca02c" height="36.77777777777778" id="rect_154" tag_name="svg/rect_154" width="36.77777777777778" x="353.87586805555554" y="416.05555555555554"/><rect fill="#2ca02c" height="36.77777777777778" id="rect_153" tag_name="svg/rect_153" width="36.77777777777778" x="844.9869791666667" y="378.27777777777777"/><rect fill="#2ca02c" height="36.77777777777778" id="rect_152" tag_name="svg/rect_152" width="36.77777777777778" x="807.2092013888889" y="378.27777777777777"/><rect fill="#2ca02c" height="36.77777777777778" id="rect_151" tag_name="svg/rect_151" width="36.77777777777778" x="769.4314236111111" y="378.27777777777777"/><rect fill="#2ca02c" height="36.77777777777778" id="rect_150" tag_name="svg/rect_150" width="36.77777777777778" x="731.6536458333333" y="378.27777777777777"/><rect fill="#2ca02c" height="36.77777777777778" id="rect_149" tag_name="svg/rect_149" width="36.77777777777778" x="693.8758680555555" y="378.27777777777777"/><rect fill="#2ca02c" height="36.77777777777778" id="rect_148" tag_name="svg/rect_148" width="36.77777777777778" x="656.0980902777778" y="378.27777777777777"/><rect fill="#2ca02c" height="36.77777777777778" id="rect_147" tag_name="svg/rect_147" width="36.77777777777778" x="618.3203125" y="378.27777777777777"/><rect fill="#2ca02c" height="36.77777777777778" id="rect_146" tag_name="svg/rect_146" width="36.77777777777778" x="580.5425347222222" y="378.27777777777777"/><rect fill="#2ca02c" height="36.77777777777778" id="rect_145" tag_name="svg/rect_145" width="36.77777777777778" x="542.7647569444445" y="378.27777777777777"/><rect fill="#2ca02c" height="36.77777777777778" id="rect_144" tag_name="svg/rect_144" width="36.77777777777778" x="504.98697916666663" y="378.27777777777777"/><rect fill="#2ca02c" height="36.77777777777778" id="rect_143" tag_name="svg/rect_143" width="36.77777777777778" x="467.2092013888889" y="378.27777777777777"/><rect fill="#2ca02c" height="36.77777777777778" id="rect_142" tag_name="svg/rect_142" width="36.77777777777778" x="429.4314236111111" y="378.27777777777777"/><rect fill="#2ca02c" height="36.77777777777778" id="rect_141" tag_name="svg/rect_141" width="36.77777777777778" x="391.6536458333333" y="378.27777777777777"/><rect fill="#2ca02c" height="36.77777777777778" id="rect_140" tag_name="svg/rect_140" width="36.77777777777778" x="353.87586805555554" y="378.27777777777777"/><rect fill="#2ca02c" height="36.77777777777778" id="rect_139" tag_name="svg/rect_139" width="36.77777777777778" x="844.9869791666667" y="340.5"/><rect fill="#2ca02c" height="36.77777777777778" id="rect_138" tag_name="svg/rect_138" width="36.77777777777778" x="807.2092013888889" y="340.5"/><rect fill="#2ca02c" height="36.77777777777778" id="rect_137" tag_name="svg/rect_137" width="36.77777777777778" x="769.4314236111111" y="340.5"/><rect fill="#2ca02c" height="36.77777777777778" id="rect_136" tag_name="svg/rect_136" width="36.77777777777778" x="731.6536458333333" y="340.5"/><rect fill="#2ca02c" height="36.77777777777778" id="rect_135" tag_name="svg/rect_135" width="36.77777777777778" x="693.8758680555555" y="340.5"/><rect fill="#2ca02c" height="36.77777777777778" id="rect_134" tag_name="svg/rect_134" width="36.77777777777778" x="656.0980902777778" y="340.5"/><rect fill="#2ca02c" height="36.77777777777778" id="rect_133" tag_name="svg/rect_133" width="36.77777777777778" x="618.3203125" y="340.5"/><rect fill="#2ca02c" height="36.77777777777778" id="rect_132" tag_name="svg/rect_132" width="36.77777777777778" x="580.5425347222222" y="340.5"/><rect fill="#2ca02c" height="36.77777777777778" id="rect_131" tag_name="svg/rect_131" width="36.77777777777778" x="542.7647569444445" y="340.5"/><rect fill="#2ca02c" height="36.77777777777778" id="rect_130" tag_name="svg/rect_130" width="36.77777777777778" x="504.98697916666663" y="340.5"/><rect fill="#2ca02c" height="36.77777777777778" id="rect_129" tag_name="svg/rect_129" width="36.77777777777778" x="467.2092013888889" y="340.5"/><rect fill="#2ca02c" height="36.77777777777778" id="rect_128" tag_name="svg/rect_128" width="36.77777777777778" x="429.4314236111111" y="340.5"/><rect fill="#2ca02c" height="36.77777777777778" id="rect_127" tag_name="svg/rect_127" width="36.77777777777778" x="391.6536458333333" y="340.5"/><rect fill="#2ca02c" height="36.77777777777778" id="rect_126" tag_name="svg/rect_126" width="36.77777777777778" x="353.87586805555554" y="340.5"/><rect fill="#2ca02c" height="36.77777777777778" id="rect_125" tag_name="svg/rect_125" width="36.77777777777778" x="844.9869791666667" y="302.72222222222223"/><rect fill="#2ca02c" height="36.77777777777778" id="rect_124" tag_name="svg/rect_124" width="36.77777777777778" x="807.2092013888889" y="302.72222222222223"/><rect fill="#2ca02c" height="36.77777777777778" id="rect_123" tag_name="svg/rect_123" width="36.77777777777778" x="769.4314236111111" y="302.72222222222223"/><rect fill="#2ca02c" height="36.77777777777778" id="rect_122" tag_name="svg/rect_122" width="36.77777777777778" x="731.6536458333333" y="302.72222222222223"/><rect fill="#2ca02c" height="36.77777777777778" id="rect_121" tag_name="svg/rect_121" width="36.77777777777778" x="693.8758680555555" y="302.72222222222223"/><rect fill="#2ca02c" height="36.77777777777778" id="rect_120" tag_name="svg/rect_120" width="36.77777777777778" x="656.0980902777778" y="302.72222222222223"/><rect fill="#2ca02c" height="36.77777777777778" id="rect_119" tag_name="svg/rect_119" width="36.77777777777778" x="618.3203125" y="302.72222222222223"/><rect fill="#2ca02c" height="36.77777777777778" id="rect_118" tag_name="svg/rect_118" width="36.77777777777778" x="580.5425347222222" y="302.72222222222223"/><rect fill="#2ca02c" height="36.77777777777778" id="rect_117" tag_name="svg/rect_117" width="36.77777777777778" x="542.7647569444445" y="302.72222222222223"/><rect fill="#2ca02c" height="36.77777777777778" id="rect_116" tag_name="svg/rect_116" width="36.77777777777778" x="504.98697916666663" y="302.72222222222223"/><rect fill="#2ca02c" height="36.77777777777778" id="rect_115" tag_name="svg/rect_115" width="36.77777777777778" x="467.2092013888889" y="302.72222222222223"/><rect fill="#2ca02c" height="36.77777777777778" id="rect_114" tag_name="svg/rect_114" width="36.77777777777778" x="429.4314236111111" y="302.72222222222223"/><rect fill="#2ca02c" height="36.77777777777778" id="rect_113" tag_name="svg/rect_113" width="36.77777777777778" x="391.6536458333333" y="302.72222222222223"/><rect fill="#2ca02c" height="36.77777777777778" id="rect_112" tag_name="svg/rect_112" width="36.77777777777778" x="353.87586805555554" y="302.72222222222223"/><rect fill="#2ca02c" height="36.77777777777778" id="rect_111" tag_name="svg/rect_111" width="36.77777777777778" x="844.9869791666667" y="264.94444444444446"/><rect fill="#2ca02c" height="36.77777777777778" id="rect_110" tag_name="svg/rect_110" width="36.77777777777778" x="807.2092013888889" y="264.94444444444446"/><rect fill="#2ca02c" height="36.77777777777778" id="rect_109" tag_name="svg/rect_109" width="36.77777777777778" x="769.4314236111111" y="264.94444444444446"/><rect fill="#2ca02c" height="36.77777777777778" id="rect_108" tag_name="svg/rect_108" width="36.77777777777778" x="731.6536458333333" y="264.94444444444446"/><rect fill="#2ca02c" height="36.77777777777778" id="rect_107" tag_name="svg/rect_107" width="36.77777777777778" x="693.8758680555555" y="264.94444444444446"/><rect fill="#2ca02c" height="36.77777777777778" id="rect_106" tag_name="svg/rect_106" width="36.77777777777778" x="656.0980902777778" y="264.94444444444446"/><rect fill="#2ca02c" height="36.77777777777778" id="rect_105" tag_name="svg/rect_105" width="36.77777777777778" x="618.3203125" y="264.94444444444446"/><rect fill="#2ca02c" height="36.77777777777778" id="rect_104" tag_name="svg/rect_104" width="36.77777777777778" x="580.5425347222222" y="264.94444444444446"/><rect fill="#2ca02c" height="36.77777777777778" id="rect_103" tag_name="svg/rect_103" width="36.77777777777778" x="542.7647569444445" y="264.94444444444446"/><rect fill="#2ca02c" height="36.77777777777778" id="rect_102" tag_name="svg/rect_102" width="36.77777777777778" x="504.98697916666663" y="264.94444444444446"/><rect fill="#2ca02c" height="36.77777777777778" id="rect_101" tag_name="svg/rect_101" width="36.77777777777778" x="467.2092013888889" y="264.94444444444446"/><rect fill="#2ca02c" height="36.77777777777778" id="rect_100" tag_name="svg/rect_100" width="36.77777777777778" x="429.4314236111111" y="264.94444444444446"/><rect fill="#2ca02c" height="36.77777777777778" id="rect_99" tag_name="svg/rect_99" width="36.77777777777778" x="391.6536458333333" y="264.94444444444446"/><rect fill="#2ca02c" height="36.77777777777778" id="rect_98" tag_name="svg/rect_98" width="36.77777777777778" x="353.87586805555554" y="264.94444444444446"/><rect fill="#2ca02c" height="36.77777777777778" id="rect_97" tag_name="svg/rect_97" width="36.77777777777778" x="844.9869791666667" y="227.16666666666669"/><rect fill="#2ca02c" height="36.77777777777778" id="rect_96" tag_name="svg/rect_96" width="36.77777777777778" x="807.2092013888889" y="227.16666666666669"/><rect fill="#2ca02c" height="36.77777777777778" id="rect_95" tag_name="svg/rect_95" width="36.77777777777778" x="769.4314236111111" y="227.16666666666669"/><rect fill="#2ca02c" height="36.77777777777778" id="rect_94" tag_name="svg/rect_94" width="36.77777777777778" x="731.6536458333333" y="227.16666666666669"/><rect fill="#2ca02c" height="36.77777777777778" id="rect_93" tag_name="svg/rect_93" width="36.77777777777778" x="693.8758680555555" y="227.16666666666669"/><rect fill="#2ca02c" height="36.77777777777778" id="rect_92" tag_name="svg/rect_92" width="36.77777777777778" x="656.0980902777778" y="227.16666666666669"/><rect fill="#2ca02c" height="36.77777777777778" id="rect_91" tag_name="svg/rect_91" width="36.77777777777778" x="618.3203125" y="227.16666666666669"/><rect fill="#2ca02c" height="36.77777777777778" id="rect_90" tag_name="svg/rect_90" width="36.77777777777778" x="580.5425347222222" y="227.16666666666669"/><rect fill="#2ca02c" height="36.77777777777778" id="rect_89" tag_name="svg/rect_89" width="36.77777777777778" x="542.7647569444445" y="227.16666666666669"/><rect fill="#2ca02c" height="36.77777777777778" id="rect_88" tag_name="svg/rect_88" width="36.77777777777778" x="504.98697916666663" y="227.16666666666669"/><rect fill="#2ca02c" height="36.77777777777778" id="rect_87" tag_name="svg/rect_87" width="36.77777777777778" x="467.2092013888889" y="227.16666666666669"/><rect fill="#cccccc" height="36.77777777777778" id="rect_13" tag_name="svg/rect_13" width="36.77777777777778" x="844.9869791666667" y="0.5"/><rect fill="#cccccc" height="36.77777777777778" id="rect_12" tag_name="svg/rect_12" width="36.77777777777778" x="807.2092013888889" y="0.5"/><rect fill="#cccccc" height="36.77777777777778" id="rect_11" tag_name="svg/rect_11" width="36.77777777777778" x="769.4314236111111" y="0.5"/><rect fill="#cccccc" height="36.77777777777778" id="rect_10" tag_name="svg/rect_10" width="36.77777777777778" x="731.6536458333333" y="0.5"/><rect fill="#cccccc" height="36.77777777777778" id="rect_9" tag_name="svg/rect_9" width="36.77777777777778" x="693.8758680555555" y="0.5"/><rect fill="#cccccc" height="36.77777777777778" id="rect_8" tag_name="svg/rect_8" width="36.77777777777778" x="656.0980902777778" y="0.5"/><rect fill="#cccccc" height="36.77777777777778" id="rect_7" tag_name="svg/rect_7" width="36.77777777777778" x="618.3203125" y="0.5"/><rect fill="#cccccc" height="36.77777777777778" id="rect_6" tag_name="svg/rect_6" width="36.77777777777778" x="580.5425347222222" y="0.5"/><rect fill="#cccccc" height="36.77777777777778" id="rect_5" tag_name="svg/rect_5" width="36.77777777777778" x="542.7647569444445" y="0.5"/><rect fill="#cccccc" height="36.77777777777778" id="rect_4" tag_name="svg/rect_4" width="36.77777777777778" x="504.98697916666663" y="0.5"/><rect fill="#cccccc" height="36.77777777777778" id="rect_3" tag_name="svg/rect_3" width="36.77777777777778" x="467.2092013888889" y="0.5"/><rect fill="#cccccc" height="36.77777777777778" id="rect_2" tag_name="svg/rect_2" width="36.77777777777778" x="429.4314236111111" y="0.5"/><rect fill="#cccccc" height="36.77777777777778" id="rect_1" tag_name="svg/rect_1" width="36.77777777777778" x="391.6536458333333" y="0.5"/><rect fill="#cccccc" height="36.77777777777778" id="rect" tag_name="svg/rect" width="36.77777777777778" x="353.87586805555554" y="0.5"/></svg>