<?xml version="1.0" encoding="utf-8"?>
<svg height="340" id="svg" tag_name="svg" viewBox="0,0,1100,700" width="900" xmlns="http://www.w3.org/2000/svg" xmlns:xlink="http://www.w3.org/1999/xlink"><rect fill="#1f77b4" height="36.77777777777778" id="rect_251" tag_name="svg/rect_251" width="36.77777777777778" x="844.9869791666667" y="642.7222222222223"/><rect fill="#1f77b4" height="36.77777777777778" id="rect_250" tag_name="svg/rect_250" width="36.77777777777778" x="807.2092013888889" y="642.7222222222223"/><rect fill="#1f77b4" height="36.77777777777778" id="rect_249" tag_name="svg/rect_249" width="36.77777777777778" x="769.4314236111111" y="642.7222222222223"/><rect fill="#1f77b4" height="36.77777777777778" id="rect_248" tag_name="svg/rect_248" width="36.77777777777778" x="731.6536458333333" y="642.7222222222223"/><rect fill="#1f77b4" height="36.77777777777778" id="rect_247" tag_name="svg/rect_247" width="36.77777777777778" x="693.8758680555555" y="642.7222222222223"/><rect fill="#1f77b4" height="36.77777777777778" id="rect_246" tag_name="svg/rect_246" width="36.77777777777778" x="656.0980902777778" y="642.7222222222223"/><rect fill="#1f77b4" height="36.77777777777778" id="rect_245" tag_name="svg/rect_245" width="36.77777777777778" x="618.3203125" y="642.7222222222223"/><rect fill="#1f77b4" height="36.77777777777778" id="rect_244" tag_name="svg/rect_244" width="36.77777777777778" x="580.5425347222222" y="642.7222222222223"/><rect fill="#1f77b4" height="36.77777777777778" id="rect_243" tag_name="svg/rect_243" width="36.77777777777778" x="542.7647569444445" y="642.7222222222223"/><rect fill="#1f77b4" height="36.77777777777778" id="rect_242" tag_name="svg/rect_242" width="36.77777777777778" x="504.98697916666663" y="642.7222222222223"/><rect fill="#1f77b4" height="36.77777777777778" id="rect_241" tag_name="svg/rect_241" width="36.77777777777778" x="467.2092013888889" y="642.7222222222223"/><rect fill="#1f77b4" height="36.77777777777778" id="rect_240" tag_name="svg/rect_240" width="36.77777777777778" x="429.4314236111111" y="642.7222222222223"/><rect fill="#1f77b4" height="36.77777777777778" id="rect_239" tag_name="svg/rect_239" width="36.77777777777778" x="391.6536458333333" y="642.7222222222223"/><rect fill="#1f77b4" height="36.77777777777778" id="rect_238" tag_name="svg/rect_238" width="36.77777777777778" x="353.87586805555554" y="642.7222222222223"/><rect fill="#1f77b4" height="36.77777777777778" id="rect_237" tag_name="svg/rect_237" width="36.77777777777778" x="844.9869791666667" y="604.9444444444445"/><rect fill="#1f77b4" height="36.77777777777778" id="rect_236" tag_name="svg/rect_236" width="36.77777777777778" x="807.2092013888889" y="604.9444444444445"/><rect fill="#1f77b4" height="36.77777777777778" id="rect_235" tag_name="svg/rect_235" width="36.77777777777778" x="769.4314236111111" y="604.9444444444445"/><rect fill="#1f77b4" height="36.77777777777778" id="rect_234" tag_name="svg/rect_234" width="36.77777777777778" x="731.6536458333333" y="604.9444444444445"/><rect fill="#1f77b4" height="36.77777777777778" id="rect_233" tag_name="svg/rect_233" width="36.77777777777778" x="693.8758680555555" y="604.9444444444445"/><rect fill="#1f77b4" height="36.77777777777778" id="rect_232" tag_name="svg/rect_232" width="36.77777777777778" x="656.0980902777778" y="604.9444444444445"/><rect fill="#1f77b4" height="36.77777777777778" id="rect_231" tag_name="svg/rect_231" width="36.77777777777778" x="618.3203125" y="604.9444444444445"/><rect fill="#1f77b4" height="36.77777777777778" id="rect_230" tag_name="svg/rect_230" width="36.77777777777778" x="580.5425347222222" y="604.9444444444445"/><rect fill="#1f77b4" height="36.77777777777778" id="rect_229" tag_name="svg/rect_229" width="36.77777777777778" x="542.7647569444445" y="604.9444444444445"/><rect fill="#1f77b4" height="36.77777777777778" id="rect_228" tag_name="svg/rect_228" width="36.77777777777778" x="504.98697916666663" y="604.9444444444445"/><rect fill="#1f77b4" height="36.77777777777778" id="rect_227" tag_name="svg/rect_227" width="36.77777777777778" x="467.2092013888889" y="604.9444444444445"/><rect fill="#1f77b4" height="36.77777777777778" id="rect_226" tag_name="svg/rect_226" width="36.77777777777778" x="429.4314236111111" y="604.9444444444445"/><rect fill="#1f77b4" height="36.77777777777778" id="rect_225" tag_name="svg/rect_225" width="36.77777777777778" x="391.6536458333333" y="604.9444444444445"/><rect fill="#1f77b4" height="36.77777777777778" id="rect_224" tag_name="svg/rect_224" width="36.77777777777778" x="353.87586805555554" y="604.9444444444445"/><rect fill="#1f77b4" height="36.77777777777778" id="rect_223" tag_name="svg/rect_223" width="36.77777777777778" x="844.9869791666667" y="567.1666666666666"/><rect fill="#1f77b4" height="36.77777777777778" id="rect_222" tag_name="svg/rect_222" width="36.77777777777778" x="807.2092013888889" y="567.1666666666666"/><rect fill="#1f77b4" height="36.77777777777778" id="rect_221" tag_name="svg/rect_221" width="36.77777777777778" x="769.4314236111111" y="567.1666666666666"/><rect fill="#1f77b4" height="36.77777777777778" id="rect_220" tag_name="svg/rect_220" width="36.77777777777778" x="731.6536458333333" y="567.1666666666666"/><rect fill="#1f77b4" height="36.77777777777778" id="rect_219" tag_name="svg/rect_219" width="36.77777777777778" x="693.8758680555555" y="567.1666666666666"/><rect fill="#1f77b4" height="36.77777777777778" id="rect_218" tag_name="svg/rect_218" width="36.77777777777778" x="656.0980902777778" y="567.1666666666666"/><rect fill="#1f77b4" height="36.77777777777778" id="rect_217" tag_name="svg/rect_217" width="36.77777777777778" x="618.3203125" y="567.1666666666666"/><rect fill="#1f77b4" height="36.77777777777778" id="rect_216" tag_name="svg/rect_216" width="36.77777777777778" x="580.5425347222222" y="567.1666666666666"/><rect fill="#1f77b4" height="36.77777777777778" id="rect_215" tag_name="svg/rect_215" width="36.77777777777778" x="542.7647569444445" y="567.1666666666666"/><rect fill="#1f77b4" height="36.77777777777778" id="rect_214" tag_name="svg/rect_214" width="36.77777777777778" x="504.98697916666663" y="567.1666666666666"/><rect fill="#1f77b4" height="36.77777777777778" id="rect_213" tag_name="svg/rect_213" width="36.77777777777778" x="467.2092013888889" y="567.1666666666666"/><rect fill="#1f77b4" height="36.77777777777778" id="rect_212" tag_name="svg/rect_212" width="36.77777777777778" x="429.4314236111111" y="567.1666666666666"/><rect fill="#1f77b4" height="36.77777777777778" id="rect_211" tag_name="svg/rect_211" width="36.77777777777778" x="391.6536458333333" y="567.1666666666666"/><rect fill="#cccccc" height="36.77777777777778" id="rect_86" tag_name="svg/rect_86" width="36.77777777777778" x="429.4314236111111" y="227.16666666666669"/><rect fill="#cccccc" height="36.77777777777778" id="rect_85" tag_name="svg/rect_85" width="36.77777777777778" x="391.6536458333333" y="227.16666666666669"/><rect fill="#cccccc" height="36.77777777777778" id="rect_84" tag_name="svg/rect_84" width="36.77777777777778" x="353.87586805555554" y="227.16666666666669"/><rect fill="#cccccc" height="36.77777777777778" id="rect_83" tag_name="svg/rect_83" width="36.77777777777778" x="844.9869791666667" y="189.38888888888889"/><rect fill="#cccccc" height="36.77777777777778" id="rect_82" tag_name="svg/rect_82" width="36.77777777777778" x="807.2092013888889" y="189.38888888888889"/><rect fill="#cccccc" height="36.77777777777778" id="rect_81" tag_name="svg/rect_81" width="36.77777777777778" x="769.4314236111111" y="189.38888888888889"/><rect fill="#cccccc" height="36.77777777777778" id="rect_80" tag_name="svg/rect_80" width="36.77777777777778" x="731.6536458333333" y="189.38888888888889"/><rect fill="#cccccc" height="36.77777777777778" id="rect_79" tag_name="svg/rect_79" width="36.77777777777778" x="693.8758680555555" y="189.38888888888889"/><rect fill="#cccccc" height="36.77777777777778" id="rect_78" tag_name="svg/rect_78" width="36.77777777777778" x="656.0980902777778" y="189.38888888888889"/><rect fill="#cccccc" height="36.77777777777778" id="rect_77" tag_name="svg/rect_77" width="36.77777777777778" x="618.3203125" y="189.38888888888889"/><rect fill="#cccccc" height="36.77777777777778" id="rect_76" tag_name="svg/rect_76" width="36.77777777777778" x="580.5425347222222" y="189.38888888888889"/><rect fill="#cccccc" height="36.77777777777778" id="rect_75" tag_name="svg/rect_75" width="36.77777777777778" x="542.7647569444445" y="189.38888888888889"/><rect fill="#cccccc" height="36.77777777777778" id="rect_74" tag_name="svg/rect_74" width="36.77777777777778" x="504.98697916666663" y="189.38888888888889"/><rect fill="#cccccc" height="36.77777777777778" id="rect_73" tag_name="svg/rect_73" width="36.77777777777778" x="467.2092013888889" y="189.38888888888889"/><rect fill="#cccccc" height="36.77777777777778" id="rect_72" tag_name="svg/rect_72" width="36.77777777777778" x="429.4314236111111" y="189.38888888888889"/><rect fill="#cccccc" height="36.77777777777778" id="rect_71" tag_name="svg/rect_71" width="36.77777777777778" x="391.6536458333333" y="189.38888888888889"/><rect fill="#cccccc" height="36.77777777777778" id="rect_70" tag_name="svg/rect_70" width="36.77777777777778" x="353.87586805555554" y="189.38888888888889"/><rect fill="#cccccc" height="36.77777777777778" id="rect_69" tag_name="svg/rect_69" width="36.77777777777778" x="844.9869791666667" y="151.61111111111111"/><rect fill="#cccccc" height="36.77777777777778" id="rect_68" tag_name="svg/rect_68" width="36.77777777777778" x="807.2092013888889" y="151.61111111111111"/><rect fill="#cccccc" height="36.77777777777778" id="rect_67" tag_name="svg/rect_67" width="36.77777777777778" x="769.4314236111111" y="151.61111111111111"/><rect fill="#cccccc" height="36.77777777777778" id="rect_66" tag_name="svg/rect_66" width="36.77777777777778" x="731.6536458333333" y="151.61111111111111"/><rect fill="#cccccc" height="36.77777777777778" id="rect_65" tag_name="svg/rect_65" width="36.77777777777778" x="693.8758680555555" y="151.61111111111111"/><rect fill="#cccccc" height="36.77777777777778" id="rect_64" tag_name="svg/rect_64" width="36.77777777777778" x="656.0980902777778" y="151.61111111111111"/><rect fill="#cccccc" height="36.77777777777778" id="rect_63" tag_name="svg/rect_63" width="36.77777777777778" x="618.3203125" y="151.61111111111111"/><rect fill="#cccccc" height="36.77777777777778" id="rect_62" tag_name="svg/rect_62" width="36.77777777777778" x="580.5425347222222" y="151.61111111111111"/><rect fill="#cccccc" height="36.77777777777778" id="rect_61" tag_name="svg/rect_61" width="36.77777777777778" x="542.7647569444445" y="151.61111111111111"/><rect fill="#cccccc" height="36.77777777777778" id="rect_60" tag_name="svg/rect_60" width="36.77777777777778" x="504.98697916666663" y="151.61111111111111"/><rect fill="#cccccc" height="36.77777777777778" id="rect_59" tag_name="svg/rect_59" width="36.77777777777778" x="467.2092013888889" y="151.61111111111111"/><rect fill="#cccccc" height="36.77777777777778" id="rect_58" tag_name="svg/rect_58" width="36.77777777777778" x="429.4314236111111" y="151.61111111111111"/><rect fill="#cccccc" height="36.77777777777778" id="rect_57" tag_name="svg/rect_57" width="36.77777777777778" x="391.6536458333333" y="151.61111111111111"/><rect fill="#cccccc" height="36.77777777777778" id="rect_56" tag_name="svg/rect_56" width="36.77777777777778" x="353.87586805555554" y="151.61111111111111"/><rect fill="#cccccc" height="36.77777777777778" id="rect_55" tag_name="svg/rect_55" width="36.77777777777778" x="844.9869791666667" y="113.83333333333334"/><rect fill="#cccccc" height="36.77777777777778" id="rect_54" tag_name="svg/rect_54" width="36.77777777777778" x="807.2092013888889" y="113.83333333333334"/><rect fill="#cccccc" height="36.77777777777778" id="rect_53" tag_name="svg/rect_53" width="36.77777777777778" x="769.4314236111111" y="113.83333333333334"/><rect fill="#cccccc" height="36.77777777777778" id="rect_52" tag_name="svg/rect_52" width="36.77777777777778" x="731.6536458333333" y="113.83333333333334"/><rect fill="#cccccc" height="36.77777777777778" id="rect_51" tag_name="svg/rect_51" width="36.77777777777778" x="693.8758680555555" y="113.83333333333334"/><rect fill="#cccccc" height="36.77777777777778" id="rect_50" tag_name="svg/rect_50" width="36.77777777777778" x="656.0980902777778" y="113.83333333333334"/><rect fill="#cccccc" height="36.77777777777778" id="rect_49" tag_name="svg/rect_49" width="36.77777777777778" x="618.3203125" y="113.83333333333334"/><rect fill="#cccccc" height="36.77777777777778" id="rect_48" tag_name="svg/rect_48" width="36.77777777777778" x="580.5425347222222" y="113.83333333333334"/><rect fill="#cccccc" height="36.77777777777778" id="rect_47" tag_name="svg/rect_47" width="36.77777777777778" x="542.7647569444445" y="113.83333333333334"/><rect fill="#cccccc" height="36.77777777777778" id="rect_46" tag_name="svg/rect_46" width="36.77777777777778" x="504.98697916666663" y="113.83333333333334"/><rect fill="#cccccc" height="36.77777777777778" id="rect_45" tag_name="svg/rect_45" width="36.77777777777778" x="467.2092013888889" y="113.83333333333334"/><rect fill="#cccccc" height="36.77777777777778" id="rect_44" tag_name="svg/rect_44" width="36.77777777777778" x="429.4314236111111" y="113.83333333333334"/><rect fill="#cccccc" height="36.77777777777778" id="rect_43" tag_name="svg/rect_43" width="36.77777777777778" x="391.6536458333333" y="113.83333333333334"/><rect fill="#cccccc" height="36.77777777777778" id="rect_42" tag_name="svg/rect_42" width="36.77777777777778" x="353.87586805555554" y="113.83333333333334"/><rect fill="#cccccc" height="36.77777777777778" id="rect_41" tag_name="svg/rect_41" width="36.77777777777778" x="844.9869791666667" y="76.05555555555556"/><rect fill="#cccccc" height="36.77777777777778" id="rect_40" tag_name="svg/rect_40" width="36.77777777777778" x="807.2092013888889" y="76.05555555555556"/><rect fill="#cccccc" height="36.77777777777778" id="rect_39" tag_name="svg/rect_39" width="36.77777777777778" x="769.4314236111111" y="76.05555555555556"/><rect fill="#cccccc" height="36.77777777777778" id="rect_38" tag_name="svg/rect_38" width="36.77777777777778" x="731.6536458333333" y="76.05555555555556"/><rect fill="#cccccc" height="36.77777777777778" id="rect_37" tag_name="svg/rect_37" width="36.77777777777778" x="693.8758680555555" y="76.05555555555556"/><rect fill="#cccccc" height="36.77777777777778" id="rect_36" tag_name="svg/rect_36" width="36.77777777777778" x="656.0980902777778" y="76.05555555555556"/><rect fill="#cccccc" height="36.77777777777778" id="rect_35" tag_name="svg/rect_35" width="36.77777777777778" x="618.3203125" y="76.05555555555556"/><rect fill="#cccccc" height="36.77777777777778" id="rect_34" tag_name="svg/rect_34" width="36.77777777777778" x="580.5425347222222" y="76.05555555555556"/><rect fill="#cccccc" height="36.77777777777778" id="rect_33" tag_name="svg/rect_33" width="36.77777777777778" x="542.7647569444445" y="76.05555555555556"/><rect fill="#cccccc" height="36.77777777777778" id="rect_32" tag_name="svg/rect_32" width="36.77777777777778" x="504.98697916666663" y="76.05555555555556"/><rect fill="#cccccc" height="36.77777777777778" id="rect_31" tag_name="svg/rect_31" width="36.77777777777778" x="467.2092013888889" y="76.05555555555556"/><rect fill="#cccccc" height="36.77777777777778" id="rect_30" tag_name="svg/rect_30" width="36.77777777777778" x="429.4314236111111" y="76.05555555555556"/><rect fill="#cccccc" height="36.77777777777778" id="rect_29" tag_name="svg/rect_29" width="36.77777777777778" x="391.6536458333333" y="76.05555555555556"/><rect fill="#cccccc" height="36.77777777777778" id="rect_28" tag_name="svg/rect_28" width="36.77777777777778" x="353.87586805555554" y="76.05555555555556"/><rect fill="#cccccc" height="36.77777777777778" id="rect_27" tag_name="svg/rect_27" width="36.77777777777778" x="844.9869791666667" y="38.27777777777778"/><rect fill="#cccccc" height="36.77777777777778" id="rect_26" tag_name="svg/rect_26" width="36.77777777777778" x="807.2092013888889" y="38.27777777777778"/><rect fill="#cccccc" height="36.77777777777778" id="rect_25" tag_name="svg/rect_25" width="36.77777777777778" x="769.4314236111111" y="38.27777777777778"/><rect fill="#cccccc" height="36.77777777777778" id="rect_24" tag_name="svg/rect_24" width="36.77777777777778" x="731.6536458333333" y="38.27777777777778"/><rect fill="#cccccc" height="36.77777777777778" id="rect_23" tag_name="svg/rect_23" width="36.77777777777778" x="693.8758680555555" y="38.27777777777778"/><rect fill="#cccccc" height="36.77777777777778" id="rect_22" tag_name="svg/rect_22" width="36.77777777777778" x="656.0980902777778" y="38.27777777777778"/><rect fill="#cccccc" height="36.77777777777778" id="rect_21" tag_name="svg/rect_21" width="36.77777777777778" x="618.3203125" y="38.27777777777778"/><rect fill="#cccccc" height="36.77777777777778" id="rect_20" tag_name="svg/rect_20" width="36.77777777777778" x="580.5425347222222" y="38.27777777777778"/><rect fill="#cccccc" height="36.77777777777778" id="rect_19" tag_name="svg/rect_19" width="36.77777777777778" x="542.7647569444445" y="38.27777777777778"/><rect fill="#cccccc" height="36.77777777777778" id="rect_18" tag_name="svg/rect_18" width="36.77777777777778" x="504.98697916666663" y="38.27777777777778"/><rect fill="#cccccc" height="36.77777777777778" id="rect_17" tag_name="svg/rect_17" width="36.77777777777778" x="467.2092013888889" y="38.27777777777778"/><rect fill="#cccccc" height="36.77777777777778" id="rect_16" tag_name="svg/rect_16" width="36.77777777777778" x="429.4314236111111" y="38.27777777777778"/><rect fill="#cccccc" height="36.77777777777778" id="rect_15" tag_name="svg/rect_15" width="36.77777777777778" x="391.6536458333333" y="38.27777777777778"/><rect fill="#cccccc" height="36.77777777777778" id="rect_14" tag_name="svg/rect_14" width="36.77777777777778" x="353.87586805555554" y="38.27777777777778"/><rect fill="#cccccc" height="36.77777777777778" id="rect_13" tag_name="svg/rect_13" width="36.77777777777778" x="844.9869791666667" y="0.5"/><rect fill="#cccccc" height="36.77777777777778" id="rect_12" tag_name="svg/rect_12" width="36.77777777777778" x="807.2092013888889" y="0.5"/><rect fill="#cccccc" height="36.77777777777778" id="rect_11" tag_name="svg/rect_11" width="36.77777777777778" x="769.4314236111111" y="0.5"/><rect fill="#cccccc" height="36.77777777777778" id="rect_10" tag_name="svg/rect_10" width="36.77777777777778" x="731.6536458333333" y="0.5"/><rect fill="#cccccc" height="36.77777777777778" id="rect_9" tag_name="svg/rect_9" width="36.77777777777778" x="693.8758680555555" y="0.5"/><rect fill="#cccccc" height="36.77777777777778" id="rect_8" tag_name="svg/rect_8" width="36.77777777777778" x="656.0980902777778" y="0.5"/><rect fill="#cccccc" height="36.77777777777778" id="rect_7" tag_name="svg/rect_7" width="36.77777777777778" x="618.3203125" y="0.5"/><rect fill="#cccccc" height="36.77777777777778" id="rect_6" tag_name="svg/rect_6" width="36.77777777777778" x="580.5425347222222" y="0.5"/><rect fill="#cccccc" height="36.77777777777778" id="rect_5" tag_name="svg/rect_5" width="36.77777777777778" x="542.7647569444445" y="0.5"/><rect fill="#cccccc" height="36.77777777777778" id="rect_4" tag_name="svg/rect_4" width="36.77777777777778" x="504.98697916666663" y="0.5"/><rect fill="#cccccc" height="36.77777777777778" id="rect_3" tag_name="svg/rect_3" width="36.77777777777778" x="467.2092013888889" y="0.5"/><rect fill="#cccccc" height="36.77777777777778" id="rect_2" tag_name="svg/rect_2" width="36.77777777777778" x="429.4314236111111" y="0.5"/><rect fill="#cccccc" height="36.77777777777778" id="rect_1" tag_name="svg/rect_1" width="36.77777777777778" x="391.6536458333333" y="0.5"/><rect fill="#cccccc" height="36.77777777777778" id="rect" tag_name="svg/rect" width="36.77777777777778" x="353.87586805555554" y="0.5"/></svg>