<?xml version="1.0" encoding="utf-8"?>
<svg height="340" id="svg" tag_name="svg" viewBox="0,0,900,340" width="900" xmlns="http://www.w3.org/2000/svg" xmlns:xlink="http://www.w3.org/1999/xlink"><g id="g" tag_name="svg/g"><g fill="#fee08b" id="g_6" tag_name="svg/g/g_6"><rect height="30" id="rect_45" tag_name="svg/g/g_6/rect_45" width="104" x="371" y="45">
</rect><rect height="30" id="rect_44" tag_name="svg/g/g_6/rect_44" width="50" x="425" y="237">
</rect><rect height="30" id="rect_43" tag_name="svg/g/g_6/rect_43" width="166" x="309" y="109">
</rect><rect height="30" id="rect_42" tag_name="svg/g/g_6/rect_42" width="74" x="401" y="205">
</rect><rect height="30" id="rect_41" tag_name="svg/g/g_6/rect_41" width="125" x="350" y="77">
</rect><rect height="30" id="rect_40" tag_name="svg/g/g_6/rect_40" width="166" x="309" y="141">
</rect><rect height="30" id="rect_39" tag_name="svg/g/g_6/rect_39" width="38" x="437" y="301">
</rect><rect height="30" id="rect_38" tag_name="svg/g/g_6/rect_38" width="115" x="360" y="173">
</rect><rect height="30" id="rect_37" tag_name="svg/g/g_6/rect_37" width="42" x="433" y="269">
</rect></g><g fill="#fc8d59" id="g_5" tag_name="svg/g/g_5"><rect height="30" id="rect_36" tag_name="svg/g/g_5/rect_36" width="214" x="157" y="45">
</rect><rect height="30" id="rect_35" tag_name="svg/g/g_5/rect_35" width="37" x="388" y="237">
</rect><rect height="30" id="rect_34" tag_name="svg/g/g_5/rect_34" width="70" x="239" y="109">
</rect><rect height="30" id="rect_33" tag_name="svg/g/g_5/rect_33" width="37" x="364" y="205">
</rect><rect height="30" id="rect_32" tag_name="svg/g/g_5/rect_32" width="156" x="194" y="77">
</rect><rect height="30" id="rect_31" tag_name="svg/g/g_5/rect_31" width="34" x="275" y="141">
</rect><rect height="30" id="rect_30" tag_name="svg/g/g_5/rect_30" width="39" x="398" y="301">
</rect><rect height="30" id="rect_29" tag_name="svg/g/g_5/rect_29" width="39" x="321" y="173">
</rect><rect height="30" id="rect_28" tag_name="svg/g/g_5/rect_28" width="41" x="392" y="269">
</rect></g><g fill="#e6f598" id="g_3" tag_name="svg/g/g_3"><rect height="30" id="rect_25" tag_name="svg/g/g_3/rect_25" width="58" x="475" y="45">
</rect><rect height="30" id="rect_24" tag_name="svg/g/g_3/rect_24" width="188" x="475" y="237">
</rect><rect height="30" id="rect_23" tag_name="svg/g/g_3/rect_23" width="70" x="475" y="109">
</rect><rect height="30" id="rect_22" tag_name="svg/g/g_3/rect_22" width="130" x="475" y="205">
</rect><rect height="30" id="rect_21" tag_name="svg/g/g_3/rect_21" width="63" x="475" y="77">
</rect><rect height="30" id="rect_20" tag_name="svg/g/g_3/rect_20" width="133" x="475" y="141">
</rect><rect height="30" id="rect_19" tag_name="svg/g/g_3/rect_19" width="115" x="475" y="301">
</rect><rect height="30" id="rect_18" tag_name="svg/g/g_3/rect_18" width="77" x="475" y="173">
</rect><rect height="30" id="rect_17" tag_name="svg/g/g_3/rect_17" width="125" x="475" y="269">
</rect></g></g></svg>