<?xml version="1.0" encoding="utf-8"?>
<svg height="340" id="svg" style="max-width: 100%; height: auto; font: 10px sans-serif;" tag_name="svg" viewBox="-70,-30,880,340" width="900" xmlns="http://www.w3.org/2000/svg" xmlns:xlink="http://www.w3.org/1999/xlink"><g id="g_11" tag_name="svg/g_11"><g id="g_53" tag_name="svg/g_11/g_53"><path class="st0" d="M39.1,291.1c0,2.7-1,4.1-2.7,4.1c-1.5,0-2.6-1.4-2.6-4c0-2.6,1.1-4.1,2.7-4.1    C38.2,287.1,39.1,288.6,39.1,291.1z M34.9,291.2c0,2,0.6,3.2,1.6,3.2c1.1,0,1.6-1.3,1.6-3.2c0-1.9-0.5-3.2-1.6-3.2    C35.6,287.9,34.9,289.1,34.9,291.2z" fill="#808080" id="path_32" tag_name="svg/g_11/g_53/path_32"/></g><g id="g_52" tag_name="svg/g_11/g_52"><path class="st0" d="M32.3,217.4h-3l-0.3,2c0.2,0,0.3,0,0.6,0c0.6,0,1.2,0.1,1.7,0.4c0.6,0.3,1.1,1,1.1,2c0,1.5-1.2,2.7-2.9,2.7    c-0.9,0-1.6-0.2-1.9-0.5l0.3-0.8c0.3,0.2,1,0.4,1.7,0.4c1,0,1.8-0.6,1.8-1.7c0-1-0.7-1.7-2.2-1.7c-0.4,0-0.8,0-1.1,0.1l0.5-3.7    h3.7V217.4z" fill="#808080" id="path_31" tag_name="svg/g_11/g_52/path_31"/></g><g id="g_51" tag_name="svg/g_11/g_51"><path class="st0" d="M23.8,152.7L23.8,152.7l-1.4,0.7l-0.2-0.8l1.7-0.9h0.9v7.8h-1V152.7z" fill="#808080" id="path_30" tag_name="svg/g_11/g_51/path_30"/><path class="st0" d="M32.8,155.6c0,2.7-1,4.1-2.7,4.1c-1.5,0-2.6-1.4-2.6-4c0-2.6,1.1-4.1,2.7-4.1    C31.9,151.6,32.8,153.1,32.8,155.6z M28.6,155.7c0,2,0.6,3.2,1.6,3.2c1.1,0,1.6-1.3,1.6-3.2c0-1.9-0.5-3.2-1.6-3.2    C29.2,152.4,28.6,153.6,28.6,155.7z" fill="#808080" id="path_29" tag_name="svg/g_11/g_51/path_29"/></g><g id="g_50" tag_name="svg/g_11/g_50"><path class="st0" d="M23.8,89.7L23.8,89.7l-1.4,0.7l-0.2-0.8l1.7-0.9h0.9v7.8h-1V89.7z" fill="#808080" id="path_28" tag_name="svg/g_11/g_50/path_28"/><path class="st0" d="M32.3,89.6h-3l-0.3,2c0.2,0,0.3,0,0.6,0c0.6,0,1.2,0.1,1.7,0.4c0.6,0.3,1.1,1,1.1,2c0,1.5-1.2,2.7-2.9,2.7    c-0.9,0-1.6-0.2-1.9-0.5l0.3-0.8c0.3,0.2,1,0.4,1.7,0.4c1,0,1.8-0.6,1.8-1.7c0-1-0.7-1.7-2.2-1.7c-0.4,0-0.8,0-1.1,0.1l0.5-3.7    h3.7V89.6z" fill="#808080" id="path_27" tag_name="svg/g_11/g_50/path_27"/></g><g id="g_49" tag_name="svg/g_11/g_49"><path class="st0" d="M21.5,32.1v-0.6l0.8-0.8c2-1.9,2.9-2.9,2.9-4.1c0-0.8-0.4-1.5-1.5-1.5c-0.7,0-1.3,0.4-1.7,0.7l-0.3-0.7    c0.5-0.5,1.3-0.8,2.2-0.8c1.7,0,2.4,1.2,2.4,2.3c0,1.4-1,2.6-2.7,4.2l-0.6,0.6v0h3.5v0.9H21.5z" fill="#808080" id="path_26" tag_name="svg/g_11/g_49/path_26"/><path class="st0" d="M32.8,28.1c0,2.7-1,4.1-2.7,4.1c-1.5,0-2.6-1.4-2.6-4c0-2.6,1.1-4.1,2.7-4.1C31.9,24.1,32.8,25.6,32.8,28.1z     M28.6,28.2c0,2,0.6,3.2,1.6,3.2c1.1,0,1.6-1.3,1.6-3.2c0-1.9-0.5-3.2-1.6-3.2C29.2,24.9,28.6,26.1,28.6,28.2z" fill="#808080" id="path_25" tag_name="svg/g_11/g_49/path_25"/></g><line class="st1" fill="none" id="line_22" stroke="#666666" tag_name="svg/g_11/line_22" x1="43.2" x2="43.2" y1="285" y2="29"/><g id="g_47" tag_name="svg/g_11/g_47"><g id="g_48" tag_name="svg/g_11/g_47/g_48"><line class="st1" fill="none" id="line_21" stroke="#666666" tag_name="svg/g_11/g_47/g_48/line_21" x1="36.5" x2="42.9" y1="221" y2="221"/><line class="st1" fill="none" id="line_20" stroke="#666666" tag_name="svg/g_11/g_47/g_48/line_20" x1="36.5" x2="42.9" y1="157" y2="157"/><line class="st1" fill="none" id="line_19" stroke="#666666" tag_name="svg/g_11/g_47/g_48/line_19" x1="36.5" x2="42.9" y1="93" y2="93"/><line class="st1" fill="none" id="line_18" stroke="#666666" tag_name="svg/g_11/g_47/g_48/line_18" x1="36.5" x2="42.9" y1="29" y2="29"/></g></g><g id="g_46" tag_name="svg/g_11/g_46"><line class="st1" fill="none" id="line_17" stroke="#666666" tag_name="svg/g_11/g_46/line_17" x1="42.7" x2="701.5" y1="285" y2="285"/></g><line class="st1" fill="none" id="line_16" stroke="#666666" tag_name="svg/g_11/line_16" x1="80" x2="80" y1="285" y2="292.5"/><line class="st1" fill="none" id="line_15" stroke="#666666" tag_name="svg/g_11/line_15" x1="116.8" x2="116.8" y1="285" y2="292.5"/><line class="st1" fill="none" id="line_14" stroke="#666666" tag_name="svg/g_11/line_14" x1="153.6" x2="153.6" y1="285" y2="292.5"/><line class="st1" fill="none" id="line_13" stroke="#666666" tag_name="svg/g_11/line_13" x1="190.4" x2="190.4" y1="285" y2="292.5"/><line class="st1" fill="none" id="line_12" stroke="#666666" tag_name="svg/g_11/line_12" x1="227.2" x2="227.2" y1="285" y2="292.5"/><line class="st1" fill="none" id="line_11" stroke="#666666" tag_name="svg/g_11/line_11" x1="264" x2="264" y1="285" y2="292.5"/><line class="st1" fill="none" id="line_10" stroke="#666666" tag_name="svg/g_11/line_10" x1="300.8" x2="300.8" y1="285" y2="292.5"/><line class="st1" fill="none" id="line_9" stroke="#666666" tag_name="svg/g_11/line_9" x1="337.6" x2="337.6" y1="285" y2="292.5"/><line class="st1" fill="none" id="line_8" stroke="#666666" tag_name="svg/g_11/line_8" x1="374.4" x2="374.4" y1="285" y2="292.5"/><line class="st1" fill="none" id="line_7" stroke="#666666" tag_name="svg/g_11/line_7" x1="411.1" x2="411.1" y1="285" y2="292.5"/><line class="st1" fill="none" id="line_6" stroke="#666666" tag_name="svg/g_11/line_6" x1="447.9" x2="447.9" y1="285" y2="292.5"/><line class="st1" fill="none" id="line_5" stroke="#666666" tag_name="svg/g_11/line_5" x1="484.7" x2="484.7" y1="285" y2="292.5"/><line class="st1" fill="none" id="line_4" stroke="#666666" tag_name="svg/g_11/line_4" x1="521.5" x2="521.5" y1="285" y2="292.5"/><line class="st1" fill="none" id="line_3" stroke="#666666" tag_name="svg/g_11/line_3" x1="558.3" x2="558.3" y1="285" y2="292.5"/><line class="st1" fill="none" id="line_2" stroke="#666666" tag_name="svg/g_11/line_2" x1="595.1" x2="595.1" y1="285" y2="292.5"/><line class="st1" fill="none" id="line_1" stroke="#666666" tag_name="svg/g_11/line_1" x1="631.9" x2="631.9" y1="285" y2="292.5"/><line class="st1" fill="none" id="line" stroke="#666666" tag_name="svg/g_11/line" x1="668.7" x2="668.7" y1="285" y2="292.5"/><g id="g_44" tag_name="svg/g_11/g_44"><g id="g_45" tag_name="svg/g_11/g_44/g_45"><path class="st0" d="M80,300.2L80,300.2l-1.4,0.7l-0.2-0.8l1.7-0.9H81v7.8h-1V300.2z" fill="#808080" id="path_24" tag_name="svg/g_11/g_44/g_45/path_24"/></g></g><g id="g_42" tag_name="svg/g_11/g_42"><g id="g_43" tag_name="svg/g_11/g_42/g_43"><path class="st0" d="M114,307v-0.6l0.8-0.8c2-1.9,2.9-2.9,2.9-4.1c0-0.8-0.4-1.5-1.5-1.5c-0.7,0-1.3,0.4-1.7,0.7l-0.3-0.7     c0.5-0.5,1.3-0.8,2.2-0.8c1.7,0,2.4,1.2,2.4,2.3c0,1.4-1,2.6-2.7,4.2l-0.6,0.6v0h3.5v0.9H114z" fill="#808080" id="path_23" tag_name="svg/g_11/g_42/g_43/path_23"/></g></g><g id="g_40" tag_name="svg/g_11/g_40"><g id="g_41" tag_name="svg/g_11/g_40/g_41"><path class="st0" d="M151.6,305.8c0.3,0.2,1,0.5,1.7,0.5c1.4,0,1.8-0.9,1.8-1.5c0-1.1-1-1.6-2-1.6h-0.6v-0.8h0.6     c0.8,0,1.7-0.4,1.7-1.3c0-0.6-0.4-1.2-1.4-1.2c-0.6,0-1.2,0.3-1.6,0.5l-0.3-0.8c0.4-0.3,1.2-0.6,2-0.6c1.5,0,2.2,0.9,2.2,1.9     c0,0.8-0.5,1.5-1.4,1.8v0c1,0.2,1.7,0.9,1.7,2c0,1.2-1,2.3-2.8,2.3c-0.9,0-1.6-0.3-2-0.5L151.6,305.8z" fill="#808080" id="path_22" tag_name="svg/g_11/g_40/g_41/path_22"/></g></g><g id="g_38" tag_name="svg/g_11/g_38"><g id="g_39" tag_name="svg/g_11/g_38/g_39"><path class="st0" d="M190.6,307v-2.1H187v-0.7l3.5-5h1.1v4.8h1.1v0.8h-1.1v2.1H190.6z M190.6,304.1v-2.6c0-0.4,0-0.8,0-1.2h0     c-0.2,0.5-0.4,0.8-0.6,1.2l-1.9,2.7v0H190.6z" fill="#808080" id="path_21" tag_name="svg/g_11/g_38/g_39/path_21"/></g></g><g id="g_36" tag_name="svg/g_11/g_36"><g id="g_37" tag_name="svg/g_11/g_36/g_37"><path class="st0" d="M229.7,300.1h-3l-0.3,2c0.2,0,0.3,0,0.6,0c0.6,0,1.2,0.1,1.7,0.4c0.6,0.3,1.1,1,1.1,2c0,1.5-1.2,2.7-2.9,2.7     c-0.9,0-1.6-0.2-1.9-0.5l0.3-0.8c0.3,0.2,1,0.4,1.7,0.4c1,0,1.8-0.6,1.8-1.7c0-1-0.7-1.7-2.2-1.7c-0.4,0-0.8,0-1.1,0.1l0.5-3.7     h3.7V300.1z" fill="#808080" id="path_20" tag_name="svg/g_11/g_36/g_37/path_20"/></g></g><g id="g_34" tag_name="svg/g_11/g_34"><g id="g_35" tag_name="svg/g_11/g_34/g_35"><path class="st0" d="M265.5,300c-0.2,0-0.5,0-0.8,0c-1.7,0.3-2.5,1.5-2.7,2.8h0c0.4-0.5,1-0.9,1.9-0.9c1.4,0,2.4,1,2.4,2.5     c0,1.4-1,2.7-2.6,2.7c-1.7,0-2.8-1.3-2.8-3.3c0-1.5,0.6-2.7,1.3-3.5c0.6-0.6,1.5-1,2.5-1.2c0.3,0,0.6-0.1,0.8-0.1V300z      M265.2,304.5c0-1.1-0.6-1.8-1.6-1.8c-0.6,0-1.2,0.4-1.5,1c-0.1,0.1-0.1,0.3-0.1,0.5c0,1.3,0.6,2.2,1.7,2.2     C264.6,306.3,265.2,305.6,265.2,304.5z" fill="#808080" id="path_19" tag_name="svg/g_11/g_34/g_35/path_19"/></g></g><g id="g_32" tag_name="svg/g_11/g_32"><g id="g_33" tag_name="svg/g_11/g_32/g_33"><path class="st0" d="M303.1,299.2v0.7l-3.4,7.1h-1.1l3.4-6.9v0h-3.8v-0.9H303.1z" fill="#808080" id="path_18" tag_name="svg/g_11/g_32/g_33/path_18"/></g></g><g id="g_30" tag_name="svg/g_11/g_30"><g id="g_31" tag_name="svg/g_11/g_30/g_31"><path class="st0" d="M334.4,305c0-1,0.6-1.7,1.5-2.1l0,0c-0.9-0.4-1.2-1.1-1.2-1.8c0-1.2,1-2.1,2.4-2.1c1.5,0,2.3,0.9,2.3,1.9     c0,0.7-0.3,1.4-1.3,1.8v0c1,0.4,1.6,1.1,1.6,2c0,1.4-1.2,2.3-2.7,2.3C335.4,307.1,334.4,306.2,334.4,305z M338.6,305     c0-0.9-0.7-1.4-1.7-1.7c-0.9,0.3-1.4,0.9-1.4,1.6c0,0.8,0.6,1.5,1.6,1.5C338,306.4,338.6,305.8,338.6,305z M335.7,301.1     c0,0.8,0.6,1.2,1.5,1.4c0.7-0.2,1.2-0.7,1.2-1.4c0-0.6-0.4-1.3-1.3-1.3C336.2,299.8,335.7,300.4,335.7,301.1z" fill="#808080" id="path_17" tag_name="svg/g_11/g_30/g_31/path_17"/></g></g><g id="g_28" tag_name="svg/g_11/g_28"><g id="g_29" tag_name="svg/g_11/g_28/g_29"><path class="st0" d="M372.7,306.3c0.2,0,0.5,0,0.9,0c0.6-0.1,1.2-0.3,1.6-0.8c0.5-0.5,0.9-1.2,1-2.1h0c-0.4,0.5-1.1,0.8-1.8,0.8     c-1.4,0-2.3-1.1-2.3-2.4c0-1.5,1.1-2.8,2.7-2.8s2.6,1.3,2.6,3.3c0,1.7-0.6,2.9-1.3,3.7c-0.6,0.6-1.4,0.9-2.3,1     c-0.4,0.1-0.7,0.1-1,0.1V306.3z M373,301.8c0,1,0.6,1.7,1.5,1.7c0.7,0,1.3-0.3,1.5-0.8c0.1-0.1,0.1-0.2,0.1-0.4     c0-1.3-0.5-2.4-1.6-2.4C373.7,299.9,373,300.7,373,301.8z" fill="#808080" id="path_16" tag_name="svg/g_11/g_28/g_29/path_16"/></g></g><g id="g_26" tag_name="svg/g_11/g_26"><g id="g_27" tag_name="svg/g_11/g_26/g_27"><path class="st0" d="M407.3,300.2L407.3,300.2l-1.4,0.7l-0.2-0.8l1.7-0.9h0.9v7.8h-1V300.2z" fill="#808080" id="path_15" tag_name="svg/g_11/g_26/g_27/path_15"/><path class="st0" d="M416.4,303c0,2.7-1,4.1-2.7,4.1c-1.5,0-2.6-1.4-2.6-4c0-2.6,1.1-4.1,2.7-4.1     C415.4,299.1,416.4,300.5,416.4,303z M412.1,303.1c0,2,0.6,3.2,1.6,3.2c1.1,0,1.6-1.3,1.6-3.2c0-1.9-0.5-3.2-1.6-3.2     C412.8,299.9,412.1,301,412.1,303.1z" fill="#808080" id="path_14" tag_name="svg/g_11/g_26/g_27/path_14"/></g></g><g id="g_24" tag_name="svg/g_11/g_24"><g id="g_25" tag_name="svg/g_11/g_24/g_25"><path class="st0" d="M444.3,300.2L444.3,300.2l-1.4,0.7l-0.2-0.8l1.7-0.9h0.9v7.8h-1V300.2z" fill="#808080" id="path_13" tag_name="svg/g_11/g_24/g_25/path_13"/><path class="st0" d="M450.5,300.2L450.5,300.2l-1.4,0.7l-0.2-0.8l1.7-0.9h0.9v7.8h-1V300.2z" fill="#808080" id="path_12" tag_name="svg/g_11/g_24/g_25/path_12"/></g></g><g id="g_22" tag_name="svg/g_11/g_22"><g id="g_23" tag_name="svg/g_11/g_22/g_23"><path class="st0" d="M481.3,300.2L481.3,300.2l-1.4,0.7l-0.2-0.8l1.7-0.9h0.9v7.8h-1V300.2z" fill="#808080" id="path_11" tag_name="svg/g_11/g_22/g_23/path_11"/><path class="st0" d="M485.2,307v-0.6l0.8-0.8c2-1.9,2.9-2.9,2.9-4.1c0-0.8-0.4-1.5-1.5-1.5c-0.7,0-1.3,0.4-1.7,0.7l-0.3-0.7     c0.5-0.5,1.3-0.8,2.2-0.8c1.7,0,2.4,1.2,2.4,2.3c0,1.4-1,2.6-2.7,4.2l-0.6,0.6v0h3.5v0.9H485.2z" fill="#808080" id="path_10" tag_name="svg/g_11/g_22/g_23/path_10"/></g></g><g id="g_20" tag_name="svg/g_11/g_20"><g id="g_21" tag_name="svg/g_11/g_20/g_21"><path class="st0" d="M518.3,300.2L518.3,300.2l-1.4,0.7l-0.2-0.8l1.7-0.9h0.9v7.8h-1V300.2z" fill="#808080" id="path_9" tag_name="svg/g_11/g_20/g_21/path_9"/><path class="st0" d="M522.4,305.8c0.3,0.2,1,0.5,1.7,0.5c1.4,0,1.8-0.9,1.8-1.5c0-1.1-1-1.6-2-1.6h-0.6v-0.8h0.6     c0.8,0,1.7-0.4,1.7-1.3c0-0.6-0.4-1.2-1.4-1.2c-0.6,0-1.2,0.3-1.6,0.5l-0.3-0.8c0.4-0.3,1.2-0.6,2-0.6c1.5,0,2.2,0.9,2.2,1.9     c0,0.8-0.5,1.5-1.4,1.8v0c1,0.2,1.7,0.9,1.7,2c0,1.2-1,2.3-2.8,2.3c-0.9,0-1.6-0.3-2-0.5L522.4,305.8z" fill="#808080" id="path_8" tag_name="svg/g_11/g_20/g_21/path_8"/></g></g><g id="g_18" tag_name="svg/g_11/g_18"><g id="g_19" tag_name="svg/g_11/g_18/g_19"><path class="st0" d="M554.3,300.2L554.3,300.2l-1.4,0.7l-0.2-0.8l1.7-0.9h0.9v7.8h-1V300.2z" fill="#808080" id="path_7" tag_name="svg/g_11/g_18/g_19/path_7"/><path class="st0" d="M561.5,307v-2.1h-3.6v-0.7l3.5-5h1.1v4.8h1.1v0.8h-1.1v2.1H561.5z M561.5,304.1v-2.6c0-0.4,0-0.8,0-1.2h0     c-0.2,0.5-0.4,0.8-0.6,1.2l-1.9,2.7v0H561.5z" fill="#808080" id="path_6" tag_name="svg/g_11/g_18/g_19/path_6"/></g></g><g id="g_16" tag_name="svg/g_11/g_16"><g id="g_17" tag_name="svg/g_11/g_16/g_17"><path class="st0" d="M591.8,300.2L591.8,300.2l-1.4,0.7l-0.2-0.8l1.7-0.9h0.9v7.8h-1V300.2z" fill="#808080" id="path_5" tag_name="svg/g_11/g_16/g_17/path_5"/><path class="st0" d="M600.3,300.1h-3l-0.3,2c0.2,0,0.3,0,0.6,0c0.6,0,1.2,0.1,1.7,0.4c0.6,0.3,1.1,1,1.1,2c0,1.5-1.2,2.7-2.9,2.7     c-0.9,0-1.6-0.2-1.9-0.5l0.3-0.8c0.3,0.2,1,0.4,1.7,0.4c1,0,1.8-0.6,1.8-1.7c0-1-0.7-1.7-2.2-1.7c-0.4,0-0.8,0-1.1,0.1l0.5-3.7     h3.7V300.1z" fill="#808080" id="path_4" tag_name="svg/g_11/g_16/g_17/path_4"/></g></g><g id="g_14" tag_name="svg/g_11/g_14"><g id="g_15" tag_name="svg/g_11/g_14/g_15"><path class="st0" d="M628.8,300.2L628.8,300.2l-1.4,0.7l-0.2-0.8l1.7-0.9h0.9v7.8h-1V300.2z" fill="#808080" id="path_3" tag_name="svg/g_11/g_14/g_15/path_3"/><path class="st0" d="M637.1,300c-0.2,0-0.5,0-0.8,0c-1.7,0.3-2.5,1.5-2.7,2.8h0c0.4-0.5,1-0.9,1.9-0.9c1.4,0,2.4,1,2.4,2.5     c0,1.4-1,2.7-2.6,2.7c-1.7,0-2.8-1.3-2.8-3.3c0-1.5,0.6-2.7,1.3-3.5c0.6-0.6,1.5-1,2.5-1.2c0.3,0,0.6-0.1,0.8-0.1V300z      M636.8,304.5c0-1.1-0.6-1.8-1.6-1.8c-0.6,0-1.2,0.4-1.5,1c-0.1,0.1-0.1,0.3-0.1,0.5c0,1.3,0.6,2.2,1.7,2.2     C636.2,306.3,636.8,305.6,636.8,304.5z" fill="#808080" id="path_2" tag_name="svg/g_11/g_14/g_15/path_2"/></g></g><g id="g_12" tag_name="svg/g_11/g_12"><g id="g_13" tag_name="svg/g_11/g_12/g_13"><path class="st0" d="M664.8,300.2L664.8,300.2l-1.4,0.7l-0.2-0.8l1.7-0.9h0.9v7.8h-1V300.2z" fill="#808080" id="path_1" tag_name="svg/g_11/g_12/g_13/path_1"/><path class="st0" d="M673.8,299.2v0.7l-3.4,7.1h-1.1l3.4-6.9v0h-3.8v-0.9H673.8z" fill="#808080" id="path" tag_name="svg/g_11/g_12/g_13/path"/></g></g></g></svg>