<?xml version="1.0" encoding="utf-8"?>
<svg height="340" id="svg" style="max-width: 100%; height: auto; font: 10px sans-serif;" tag_name="svg" viewBox="-370,-130,880,340" width="900" xmlns="http://www.w3.org/2000/svg" xmlns:xlink="http://www.w3.org/1999/xlink"><line class="st1" id="line_11" stroke="lightgray" stroke-width="1" tag_name="svg/line_11" x1="0" x2="100" y1="0" y2="30"/><line class="st1" id="line_10" stroke="lightgray" stroke-width="1" tag_name="svg/line_10" x1="0" x2="-80" y1="0" y2="50"/><line class="st1" id="line_9" stroke="lightgray" stroke-width="1" tag_name="svg/line_9" x1="0" x2="120" y1="0" y2="-40"/><line class="st1" id="line_8" stroke="lightgray" stroke-width="1" tag_name="svg/line_8" x1="0" x2="60" y1="0" y2="80"/><line class="st1" id="line_7" stroke="lightgray" stroke-width="1" tag_name="svg/line_7" x1="100" x2="150" y1="30" y2="10"/><line class="st1" id="line_6" stroke="lightgray" stroke-width="1" tag_name="svg/line_6" x1="-80" x2="-120" y1="50" y2="90"/><line class="st1" id="line_5" stroke="lightgray" stroke-width="1" tag_name="svg/line_5" x1="-80" x2="-50" y1="50" y2="-30"/><line class="st1" id="line_4" stroke="lightgray" stroke-width="1" tag_name="svg/line_4" x1="120" x2="180" y1="-40" y2="-80"/><line class="st1" id="line_3" stroke="lightgray" stroke-width="1" tag_name="svg/line_3" x1="60" x2="90" y1="80" y2="140"/><line class="st1" id="line_2" stroke="lightgray" stroke-width="1" tag_name="svg/line_2" x1="60" x2="30" y1="80" y2="130"/><line class="st1" id="line_1" stroke="lightgray" stroke-width="1" tag_name="svg/line_1" x1="150" x2="200" y1="10" y2="40"/><line class="st1" id="line" stroke="lightgray" stroke-width="1" tag_name="svg/line" x1="200" x2="250" y1="40" y2="70"/><circle class="st2" cx="0" cy="0" fill="#ff0101" id="circle_12" r="30" tag_name="svg/circle_12"/><circle class="st3" cx="100" cy="30" fill="skyblue" id="circle_11" r="20" tag_name="svg/circle_11"/><circle class="st4" cx="-80" cy="50" fill="gold" id="circle_10" r="15" tag_name="svg/circle_10"/><circle class="st3" cx="120" cy="-40" fill="skyblue" id="circle_9" r="25" tag_name="svg/circle_9"/><circle class="st4" cx="60" cy="80" fill="gold" id="circle_8" r="10" tag_name="svg/circle_8"/><circle class="st3" cx="150" cy="10" fill="skyblue" id="circle_7" r="25" tag_name="svg/circle_7"/><circle class="st4" cx="-120" cy="90" fill="gold" id="circle_6" r="20" tag_name="svg/circle_6"/><circle class="st3" cx="-50" cy="-30" fill="skyblue" id="circle_5" r="10" tag_name="svg/circle_5"/><circle class="st4" cx="180" cy="-80" fill="gold" id="circle_4" r="15" tag_name="svg/circle_4"/><circle class="st3" cx="90" cy="140" fill="skyblue" id="circle_3" r="20" tag_name="svg/circle_3"/><circle class="st4" cx="30" cy="130" fill="gold" id="circle_2" r="15" tag_name="svg/circle_2"/><circle class="st3" cx="200" cy="40" fill="skyblue" id="circle_1" r="20" tag_name="svg/circle_1"/><circle class="st5" cx="250" cy="70" fill="#ff0000" id="circle" r="15" tag_name="svg/circle"/></svg>