<?xml version="1.0" encoding="utf-8"?>
<svg height="340" id="svg" tag_name="svg" viewBox="0,0,850,300" width="900" xmlns="http://www.w3.org/2000/svg" xmlns:xlink="http://www.w3.org/1999/xlink"><g clip-path="none" data-z-index="0.1" id="g_8" tag_name="svg/g_8" transform="translate(77,68) scale(1 1)"><path aria-label="x, 2012, 13,234. Ocean transport." d="M 6.5 63.213025 A 4 4 0 1 1 6.500199999999918 63.213024995000005 Z" fill="#2caffe" id="path_58" stroke="#666666" tag_name="svg/g_8/path_58"/><path aria-label="x, 2013, 12,729. Ocean transport." d="M 76.5 63.71725 A 4 4 0 1 1 76.50019999999992 63.717249995 Z" fill="#2caffe" id="path_57" stroke="#666666" tag_name="svg/g_8/path_57"/><path aria-label="x, 2014, 11,533. Ocean transport." d="M 146.5 69.7801 A 4 4 0 1 1 146.50019999999992 69.780099995 Z" fill="#2caffe" id="path_56" stroke="#666666" tag_name="svg/g_8/path_56"/><path aria-label="x, 2015, 17,798. Ocean transport." d="M 216.5 29.812675 A 4 4 0 1 1 216.50019999999992 29.812674995 Z" fill="#2caffe" id="path_55" stroke="#666666" tag_name="svg/g_8/path_55"/><path aria-label="x, 2016, 10,398. Ocean transport." d="M 286.5 78.7225 A 4 4 0 1 1 286.5001999999999 78.72249999499999 Z" fill="#2caffe" id="path_54" stroke="#666666" tag_name="svg/g_8/path_54"/><path aria-label="x, 2017, 12,811. Ocean transport." d="M 356.5 65.70377500000001 A 4 4 0 1 1 356.5001999999999 65.703774995 Z" fill="#2caffe" id="path_53" stroke="#666666" tag_name="svg/g_8/path_53"/><path aria-label="x, 2018, 15,483. Ocean transport." d="M 426.5 46.8409 A 4 4 0 1 1 426.5001999999999 46.840899995 Z" fill="#2caffe" id="path_52" stroke="#666666" tag_name="svg/g_8/path_52"/><path aria-label="x, 2019, 16,196. Ocean transport." d="M 496.5 43.42675 A 4 4 0 1 1 496.5001999999999 43.426749995 Z" fill="#2caffe" id="path_51" stroke="#666666" tag_name="svg/g_8/path_51"/><path aria-label="x, 2020, 15,060. Ocean transport." d="M 566.5 72.46525 A 4 4 0 1 1 566.5002 72.465249995 Z" fill="#2caffe" id="path_50" stroke="#666666" tag_name="svg/g_8/path_50">
</path><path aria-label="x, 2021, 13,365. Ocean transport." d="M 636.5 83.2423 A 4 4 0 1 1 636.5002 83.242299995 Z" fill="#2caffe" id="path_49" stroke="#666666" tag_name="svg/g_8/path_49">
</path><path aria-label="x, 2022, 13,301. Ocean transport." d="M 706.5 76.626625 A 4 4 0 1 1 706.5002 76.626624995 Z" fill="#2caffe" id="path_48" stroke="#666666" tag_name="svg/g_8/path_48">
</path></g></svg>