<?xml version="1.0" encoding="utf-8"?>
<svg baseProfile="full" height="100%" id="svg" preserveAspectRatio="xMidYMid meet" style="position: absolute; left: 0px; top: 0px; user-select: none;" tag_name="svg" version="1.1" viewBox="0 0 800 600" width="100%" xmlns="http://www.w3.org/2000/svg" xmlns:xlink="http://www.w3.org/1999/xlink"><rect fill="none" height="600" id="rect" tag_name="svg/rect" width="800" x="0" y="0"/><g id="g" tag_name="svg/g"><path d="M119.0371 520.5L673.9258 520.5" fill="none" id="path_42" stroke="#E0E6F1" tag_name="svg/g/path_42"/><path d="M119.0371 443.5L673.9258 443.5" fill="none" id="path_41" stroke="#E0E6F1" tag_name="svg/g/path_41"/><path d="M119.0371 366.5L673.9258 366.5" fill="none" id="path_40" stroke="#E0E6F1" tag_name="svg/g/path_40"/><path d="M119.0371 290.5L673.9258 290.5" fill="none" id="path_39" stroke="#E0E6F1" tag_name="svg/g/path_39"/><path d="M119.0371 213.5L673.9258 213.5" fill="none" id="path_38" stroke="#E0E6F1" tag_name="svg/g/path_38"/><path d="M119.0371 136.5L673.9258 136.5" fill="none" id="path_37" stroke="#E0E6F1" tag_name="svg/g/path_37"/><path d="M119.0371 60.5L673.9258 60.5" fill="none" id="path_36" stroke="#E0E6F1" tag_name="svg/g/path_36"/><path d="M119.0371 520.5L673.9258 520.5" fill="none" id="path_35" stroke="#E0E6F1" tag_name="svg/g/path_35"/><path d="M119.0371 443.5L673.9258 443.5" fill="none" id="path_34" stroke="#E0E6F1" tag_name="svg/g/path_34"/><path d="M119.0371 366.5L673.9258 366.5" fill="none" id="path_33" stroke="#E0E6F1" tag_name="svg/g/path_33"/><path d="M119.0371 290.5L673.9258 290.5" fill="none" id="path_32" stroke="#E0E6F1" tag_name="svg/g/path_32"/><path d="M119.0371 213.5L673.9258 213.5" fill="none" id="path_31" stroke="#E0E6F1" tag_name="svg/g/path_31"/><path d="M119.0371 136.5L673.9258 136.5" fill="none" id="path_30" stroke="#E0E6F1" tag_name="svg/g/path_30"/><path d="M119.0371 60.5L673.9258 60.5" fill="none" id="path_29" stroke="#E0E6F1" tag_name="svg/g/path_29"/><text dominant-baseline="central" fill="#6E7079" id="text_25" style="font-size: 12px; font-family: Arial, sans-serif;" tag_name="svg/g/text_25" text-anchor="middle" transform="translate(119.0371 45)" y="-6">
      销售额
    </text><text dominant-baseline="central" fill="#6E7079" id="text_24" style="font-size: 12px; font-family: Arial, sans-serif;" tag_name="svg/g/text_24" text-anchor="middle" transform="translate(673.9258 45)" y="-6">
      利润
    </text><path d="M119.0371 520.5L673.9258 520.5" fill="none" id="path_28" stroke="#6E7079" stroke-linecap="round" tag_name="svg/g/path_28"/><path d="M119.5 520L119.5 525" fill="none" id="path_27" stroke="#6E7079" tag_name="svg/g/path_27"/><path d="M211.5 520L211.5 525" fill="none" id="path_26" stroke="#6E7079" tag_name="svg/g/path_26"/><path d="M304.5 520L304.5 525" fill="none" id="path_25" stroke="#6E7079" tag_name="svg/g/path_25"/><path d="M396.5 520L396.5 525" fill="none" id="path_24" stroke="#6E7079" tag_name="svg/g/path_24"/><path d="M489.5 520L489.5 525" fill="none" id="path_23" stroke="#6E7079" tag_name="svg/g/path_23"/><path d="M581.5 520L581.5 525" fill="none" id="path_22" stroke="#6E7079" tag_name="svg/g/path_22"/><path d="M674.5 520L674.5 525" fill="none" id="path_21" stroke="#6E7079" tag_name="svg/g/path_21"/><text dominant-baseline="central" fill="#6E7079" id="text_23" style="font-size: 12px; font-family: Arial, sans-serif;" tag_name="svg/g/text_23" text-anchor="end" transform="translate(111.0371 520)">
      0
    </text><text dominant-baseline="central" fill="#6E7079" id="text_22" style="font-size: 12px; font-family: Arial, sans-serif;" tag_name="svg/g/text_22" text-anchor="end" transform="translate(111.0371 443.3333)">
      1,000
    </text><text dominant-baseline="central" fill="#6E7079" id="text_21" style="font-size: 12px; font-family: Arial, sans-serif;" tag_name="svg/g/text_21" text-anchor="end" transform="translate(111.0371 366.6667)">
      2,000
    </text><text dominant-baseline="central" fill="#6E7079" id="text_20" style="font-size: 12px; font-family: Arial, sans-serif;" tag_name="svg/g/text_20" text-anchor="end" transform="translate(111.0371 290)">
      3,000
    </text><text dominant-baseline="central" fill="#6E7079" id="text_19" style="font-size: 12px; font-family: Arial, sans-serif;" tag_name="svg/g/text_19" text-anchor="end" transform="translate(111.0371 213.3333)">
      4,000
    </text><text dominant-baseline="central" fill="#6E7079" id="text_18" style="font-size: 12px; font-family: Arial, sans-serif;" tag_name="svg/g/text_18" text-anchor="end" transform="translate(111.0371 136.6667)">
      5,000
    </text><text dominant-baseline="central" fill="#6E7079" id="text_17" style="font-size: 12px; font-family: Arial, sans-serif;" tag_name="svg/g/text_17" text-anchor="end" transform="translate(111.0371 60)">
      6,000
    </text><text dominant-baseline="central" fill="#6E7079" id="text_16" style="font-size: 12px; font-family: Arial, sans-serif;" tag_name="svg/g/text_16" text-anchor="start" transform="translate(681.9258 520)">
      0
    </text><text dominant-baseline="central" fill="#6E7079" id="text_15" style="font-size: 12px; font-family: Arial, sans-serif;" tag_name="svg/g/text_15" text-anchor="start" transform="translate(681.9258 443.3333)">
      2,000
    </text><text dominant-baseline="central" fill="#6E7079" id="text_14" style="font-size: 12px; font-family: Arial, sans-serif;" tag_name="svg/g/text_14" text-anchor="start" transform="translate(681.9258 366.6667)">
      4,000
    </text><text dominant-baseline="central" fill="#6E7079" id="text_13" style="font-size: 12px; font-family: Arial, sans-serif;" tag_name="svg/g/text_13" text-anchor="start" transform="translate(681.9258 290)">
      6,000
    </text><text dominant-baseline="central" fill="#6E7079" id="text_12" style="font-size: 12px; font-family: Arial, sans-serif;" tag_name="svg/g/text_12" text-anchor="start" transform="translate(681.9258 213.3333)">
      8,000
    </text><text dominant-baseline="central" fill="#6E7079" id="text_11" style="font-size: 12px; font-family: Arial, sans-serif;" tag_name="svg/g/text_11" text-anchor="start" transform="translate(681.9258 136.6667)">
      10,000
    </text><text dominant-baseline="central" fill="#6E7079" id="text_10" style="font-size: 12px; font-family: Arial, sans-serif;" tag_name="svg/g/text_10" text-anchor="start" transform="translate(681.9258 60)">
      12,000
    </text><text dominant-baseline="central" fill="#6E7079" id="text_9" style="font-size: 12px; font-family: Arial, sans-serif;" tag_name="svg/g/text_9" text-anchor="middle" transform="translate(165.2778 528)" y="6">
      一月
    </text><text dominant-baseline="central" fill="#6E7079" id="text_8" style="font-size: 12px; font-family: Arial, sans-serif;" tag_name="svg/g/text_8" text-anchor="middle" transform="translate(257.7593 528)" y="6">
      二月
    </text><text dominant-baseline="central" fill="#6E7079" id="text_7" style="font-size: 12px; font-family: Arial, sans-serif;" tag_name="svg/g/text_7" text-anchor="middle" transform="translate(350.2407 528)" y="6">
      三月
    </text><text dominant-baseline="central" fill="#6E7079" id="text_6" style="font-size: 12px; font-family: Arial, sans-serif;" tag_name="svg/g/text_6" text-anchor="middle" transform="translate(442.7222 528)" y="6">
      四月
    </text><text dominant-baseline="central" fill="#6E7079" id="text_5" style="font-size: 12px; font-family: Arial, sans-serif;" tag_name="svg/g/text_5" text-anchor="middle" transform="translate(535.2036 528)" y="6">
      五月
    </text><text dominant-baseline="central" fill="#6E7079" id="text_4" style="font-size: 12px; font-family: Arial, sans-serif;" tag_name="svg/g/text_4" text-anchor="middle" transform="translate(627.6851 528)" y="6">
      六月
    </text><path d="M133.3717 520l63.8122 0l0 -191.6667l-63.8122 0Z" fill="#91cc75" id="path_20" tag_name="svg/g/path_20"/><path d="M225.8532 520l63.8122 0l0 -260.6667l-63.8122 0Z" fill="#91cc75" id="path_19" tag_name="svg/g/path_19"/><path d="M318.3346 520l63.8122 0l0 -226.1667l-63.8122 0Z" fill="#91cc75" id="path_18" tag_name="svg/g/path_18"/><path d="M410.8161 520l63.8122 0l0 -310.5l-63.8122 0Z" fill="#91cc75" id="path_17" tag_name="svg/g/path_17"/><path d="M503.2975 520l63.8122 0l0 -368l-63.8122 0Z" fill="#91cc75" id="path_16" tag_name="svg/g/path_16"/><path d="M595.779 520l63.8122 0l0 -421.6667l-63.8122 0Z" fill="#91cc75" id="path_15" tag_name="svg/g/path_15"/><g clip-path="url(#zr4-c0)" id="g_1" tag_name="svg/g/g_1"><path d="M165.2778 297.6667L257.7593 251.6667L350.2407 274.6667L442.7222 205.6667L535.2036 152L627.6851 113.6667" fill="none" id="path_14" stroke="#5470c6" stroke-linejoin="bevel" stroke-width="2" tag_name="svg/g/g_1/path_14"/></g><path d="M1 0A1 1 0 1 1 1 -0.0001" fill="#fff" id="path_13" stroke="#5470c6" tag_name="svg/g/path_13" transform="matrix(2,0,0,2,165.2778,297.6667)"/><path d="M1 0A1 1 0 1 1 1 -0.0001" fill="#fff" id="path_12" stroke="#5470c6" tag_name="svg/g/path_12" transform="matrix(2,0,0,2,257.7593,251.6667)"/><path d="M1 0A1 1 0 1 1 1 -0.0001" fill="#fff" id="path_11" stroke="#5470c6" tag_name="svg/g/path_11" transform="matrix(2,0,0,2,350.2407,274.6667)"/><path d="M1 0A1 1 0 1 1 1 -0.0001" fill="#fff" id="path_10" stroke="#5470c6" tag_name="svg/g/path_10" transform="matrix(2,0,0,2,442.7222,205.6667)"/><path d="M1 0A1 1 0 1 1 1 -0.0001" fill="#fff" id="path_9" stroke="#5470c6" tag_name="svg/g/path_9" transform="matrix(2,0,0,2,535.2036,152)"/><path d="M1 0A1 1 0 1 1 1 -0.0001" fill="#fff" id="path_8" stroke="#5470c6" tag_name="svg/g/path_8" transform="matrix(2,0,0,2,627.6851,113.6667)"/><path d="M-5 -5l141 0l0 24l-141 0Z" fill="rgb(0,0,0)" fill-opacity="0" id="path_7" stroke="#ccc" stroke-width="0" tag_name="svg/g/path_7" transform="translate(334.5 5)"/><path d="M0 7L25 7" fill="#000" id="path_6" stroke="#5470c6" stroke-linecap="butt" stroke-miterlimit="10" stroke-width="2" tag_name="svg/g/path_6" transform="translate(335.5 5)"/><path d="M18.1 7A5.6 5.6 0 1 1 18.1 6.9994" fill="#fff" id="path_5" stroke="#5470c6" stroke-linecap="butt" stroke-miterlimit="10" stroke-width="2" tag_name="svg/g/path_5" transform="translate(335.5 5)"/><text dominant-baseline="central" fill="#333" id="text_3" style="font-size: 12px; font-family: Arial, sans-serif;" tag_name="svg/g/text_3" text-anchor="start" transform="translate(335.5 5)" x="30" y="7">
      销售额
    </text><path d="M-1 0.4l67 0l0 13.2l-67 0Z" fill="none" id="path_4" tag_name="svg/g/path_4" transform="translate(335.5 5)"/><path d="M3.5 0L21.5 0A3.5 3.5 0 0 1 25 3.5L25 10.5A3.5 3.5 0 0 1 21.5 14L3.5 14A3.5 3.5 0 0 1 0 10.5L0 3.5A3.5 3.5 0 0 1 3.5 0" fill="#91cc75" id="path_3" tag_name="svg/g/path_3" transform="translate(411.5 5)"/><text dominant-baseline="central" fill="#333" id="text_2" style="font-size: 12px; font-family: Arial, sans-serif;" tag_name="svg/g/text_2" text-anchor="start" transform="translate(411.5 5)" x="30" y="7">
      利润
    </text><path d="M0 0l54 0l0 14l-54 0Z" fill="none" id="path_2" tag_name="svg/g/path_2" transform="translate(411.5 5)"/><path d="M-5 -5l118 0l0 50l-118 0Z" fill="rgb(0,0,0)" fill-opacity="0" id="path_1" stroke="#ccc" stroke-width="0" tag_name="svg/g/path_1" transform="translate(5 5)"/><text dominant-baseline="central" fill="#464646" id="text_1" style="font-size: 18px; font-family: Arial, sans-serif; font-weight: bold;" tag_name="svg/g/text_1" text-anchor="start" transform="translate(5 5)" y="9">
      销售数据分析
    </text><text dominant-baseline="central" fill="#6E7079" id="text" style="font-size: 12px; font-family: Arial, sans-serif;" tag_name="svg/g/text" text-anchor="start" transform="translate(5 5)" y="34">
      虚拟数据
    </text></g></svg>