<?xml version="1.0" encoding="utf-8"?>
<svg id="svg" style="max-width: 100%; height: auto; font: 10px sans-serif;" tag_name="svg" viewBox="0,0,1152,1343" xmlns="http://www.w3.org/2000/svg" xmlns:xlink="http://www.w3.org/1999/xlink"><g id="g_77" tag_name="svg/g_77"><rect fill="#ef8a62" height="23" id="rect_51" tag_name="svg/g_77/rect_51" width="125" x="60" y="33"/><rect fill="#ef8a62" height="23" id="rect_50" tag_name="svg/g_77/rect_50" width="37" x="148" y="58"/><rect fill="#ef8a62" height="23" id="rect_49" tag_name="svg/g_77/rect_49" width="14" x="171" y="83"/><rect fill="#ef8a62" height="23" id="rect_48" tag_name="svg/g_77/rect_48" width="2" x="183" y="108"/><rect fill="#ef8a62" height="23" id="rect_47" tag_name="svg/g_77/rect_47" width="0" x="185" y="133"/><rect fill="#67a9cf" height="23" id="rect_46" tag_name="svg/g_77/rect_46" width="2" x="185" y="158"/><rect fill="#67a9cf" height="23" id="rect_45" tag_name="svg/g_77/rect_45" width="2" x="185" y="183"/><rect fill="#67a9cf" height="23" id="rect_44" tag_name="svg/g_77/rect_44" width="4" x="185" y="208"/><rect fill="#67a9cf" height="23" id="rect_43" tag_name="svg/g_77/rect_43" width="4" x="185" y="233"/><rect fill="#67a9cf" height="23" id="rect_42" tag_name="svg/g_77/rect_42" width="5" x="185" y="258"/><rect fill="#67a9cf" height="23" id="rect_41" tag_name="svg/g_77/rect_41" width="9" x="185" y="283"/><rect fill="#67a9cf" height="23" id="rect_40" tag_name="svg/g_77/rect_40" width="10" x="185" y="308"/><rect fill="#67a9cf" height="23" id="rect_39" tag_name="svg/g_77/rect_39" width="13" x="185" y="333"/><rect fill="#67a9cf" height="23" id="rect_38" tag_name="svg/g_77/rect_38" width="14" x="185" y="358"/><rect fill="#67a9cf" height="23" id="rect_37" tag_name="svg/g_77/rect_37" width="17" x="185" y="383"/><rect fill="#67a9cf" height="23" id="rect_36" tag_name="svg/g_77/rect_36" width="18" x="185" y="408"/><rect fill="#67a9cf" height="23" id="rect_35" tag_name="svg/g_77/rect_35" width="18" x="185" y="433"/><rect fill="#67a9cf" height="23" id="rect_34" tag_name="svg/g_77/rect_34" width="19" x="185" y="458"/><rect fill="#67a9cf" height="23" id="rect_33" tag_name="svg/g_77/rect_33" width="21" x="185" y="483"/><rect fill="#67a9cf" height="23" id="rect_32" tag_name="svg/g_77/rect_32" width="22" x="185" y="508"/><rect fill="#67a9cf" height="23" id="rect_31" tag_name="svg/g_77/rect_31" width="24" x="185" y="533"/><rect fill="#67a9cf" height="23" id="rect_30" tag_name="svg/g_77/rect_30" width="24" x="185" y="558"/><rect fill="#67a9cf" height="23" id="rect_29" tag_name="svg/g_77/rect_29" width="25" x="185" y="583"/><rect fill="#67a9cf" height="23" id="rect_28" tag_name="svg/g_77/rect_28" width="25" x="185" y="608"/><rect fill="#67a9cf" height="23" id="rect_27" tag_name="svg/g_77/rect_27" width="26" x="185" y="633"/><rect fill="#67a9cf" height="23" id="rect_26" tag_name="svg/g_77/rect_26" width="26" x="185" y="658"/><rect fill="#67a9cf" height="23" id="rect_25" tag_name="svg/g_77/rect_25" width="27" x="185" y="683"/><rect fill="#67a9cf" height="23" id="rect_24" tag_name="svg/g_77/rect_24" width="29" x="185" y="708"/><rect fill="#67a9cf" height="23" id="rect_23" tag_name="svg/g_77/rect_23" width="31" x="185" y="733"/><rect fill="#67a9cf" height="23" id="rect_22" tag_name="svg/g_77/rect_22" width="32" x="185" y="758"/><rect fill="#67a9cf" height="23" id="rect_21" tag_name="svg/g_77/rect_21" width="35" x="185" y="783"/><rect fill="#67a9cf" height="23" id="rect_20" tag_name="svg/g_77/rect_20" width="36" x="185" y="808"/><rect fill="#67a9cf" height="23" id="rect_19" tag_name="svg/g_77/rect_19" width="49" x="185" y="833"/><rect fill="#67a9cf" height="23" id="rect_18" tag_name="svg/g_77/rect_18" width="52" x="185" y="858"/><rect fill="#67a9cf" height="23" id="rect_17" tag_name="svg/g_77/rect_17" width="59" x="185" y="883"/><rect fill="#67a9cf" height="23" id="rect_16" tag_name="svg/g_77/rect_16" width="64" x="185" y="908"/><rect fill="#67a9cf" height="23" id="rect_15" tag_name="svg/g_77/rect_15" width="79" x="185" y="933"/><rect fill="#67a9cf" height="23" id="rect_14" tag_name="svg/g_77/rect_14" width="90" x="185" y="958"/><rect fill="#67a9cf" height="23" id="rect_13" tag_name="svg/g_77/rect_13" width="91" x="185" y="983"/><rect fill="#67a9cf" height="23" id="rect_12" tag_name="svg/g_77/rect_12" width="95" x="185" y="1008"/><rect fill="#67a9cf" height="23" id="rect_11" tag_name="svg/g_77/rect_11" width="104" x="185" y="1033"/><rect fill="#67a9cf" height="23" id="rect_10" tag_name="svg/g_77/rect_10" width="115" x="185" y="1058"/><rect fill="#67a9cf" height="23" id="rect_9" tag_name="svg/g_77/rect_9" width="124" x="185" y="1083"/><rect fill="#67a9cf" height="23" id="rect_8" tag_name="svg/g_77/rect_8" width="126" x="185" y="1108"/><rect fill="#67a9cf" height="23" id="rect_7" tag_name="svg/g_77/rect_7" width="172" x="185" y="1133"/><rect fill="#67a9cf" height="23" id="rect_6" tag_name="svg/g_77/rect_6" width="209" x="185" y="1158"/><rect fill="#67a9cf" height="23" id="rect_5" tag_name="svg/g_77/rect_5" width="210" x="185" y="1183"/><rect fill="#67a9cf" height="23" id="rect_4" tag_name="svg/g_77/rect_4" width="219" x="185" y="1208"/><rect fill="#67a9cf" height="23" id="rect_3" tag_name="svg/g_77/rect_3" width="225" x="185" y="1233"/><rect fill="#67a9cf" height="23" id="rect_2" tag_name="svg/g_77/rect_2" width="532" x="185" y="1258"/><rect fill="#67a9cf" height="23" id="rect_1" tag_name="svg/g_77/rect_1" width="631" x="185" y="1283"/><rect fill="#67a9cf" height="23" id="rect" tag_name="svg/g_77/rect" width="907" x="185" y="1308"/></g></svg>