<?xml version="1.0" encoding="utf-8"?>
<!-- Generator: Adobe Illustrator 21.0.0, SVG Export Plug-In . SVG Version: 6.00 Build 0)  --><svg height="340" id="svg" style="max-width: 100%; height: auto; font: 10px sans-serif;" tag_name="svg" viewBox="-70,-30,880,340" width="900" xmlns="http://www.w3.org/2000/svg" xmlns:xlink="http://www.w3.org/1999/xlink"><g id="g_33" tag_name="svg/g_33"><rect class="st0" fill="#ef2f1a" height="53.3" id="rect_15" stroke="#FFFFFF" tag_name="svg/g_33/rect_15" width="131.3" x="509.6" y="22.5"/><rect class="st0" fill="#ef2f1a" height="67.3" id="rect_14" stroke="#FFFFFF" tag_name="svg/g_33/rect_14" width="66.6" x="640.9" y="22.5"/><rect class="st1" fill="#f02f6d" height="52.5" id="rect_13" stroke="#FFFFFF" tag_name="svg/g_33/rect_13" width="196.9" x="312.7" y="49.6"/><rect class="st0" fill="#ef2f1a" height="52.5" id="rect_12" stroke="#FFFFFF" tag_name="svg/g_33/rect_12" width="196.9" x="312.7" y="22.4"/><rect class="st2" fill="#d4c8e9" height="78.3" id="rect_11" stroke="#FFFFFF" tag_name="svg/g_33/rect_11" width="66.6" x="640.9" y="154"/><rect class="st1" fill="#f02f6d" height="65.5" id="rect_10" stroke="#FFFFFF" tag_name="svg/g_33/rect_10" width="66.6" x="640.9" y="88.5"/><rect class="st0" fill="#ef2f1a" height="13.6" id="rect_9" stroke="#FFFFFF" tag_name="svg/g_33/rect_9" width="262.5" x="50.1" y="22.5"/><rect class="st2" fill="#d4c8e9" height="78.3" id="rect_8" stroke="#FFFFFF" tag_name="svg/g_33/rect_8" width="131.3" x="509.6" y="127.9"/><rect class="st1" fill="#f02f6d" height="52.2" id="rect_7" stroke="#FFFFFF" tag_name="svg/g_33/rect_7" width="131.3" x="509.6" y="75.7"/><rect class="st2" fill="#d4c8e9" height="78.3" id="rect_6" stroke="#FFFFFF" tag_name="svg/g_33/rect_6" width="196.9" x="312.7" y="101.8"/><rect class="st2" fill="#d4c8e9" height="64.9" id="rect_5" stroke="#FFFFFF" tag_name="svg/g_33/rect_5" width="262.5" x="50.1" y="63"/><rect class="st1" fill="#f02f6d" height="27.2" id="rect_4" stroke="#FFFFFF" tag_name="svg/g_33/rect_4" width="262.5" x="50.1" y="35.8"/><rect class="st3" fill="#328ce0" height="52.2" id="rect_3" stroke="#FFFFFF" tag_name="svg/g_33/rect_3" width="67.5" x="640" y="232.3"/><rect class="st3" fill="#328ce0" height="104.4" id="rect_2" stroke="#FFFFFF" tag_name="svg/g_33/rect_2" width="196.9" x="312.7" y="180.1"/><rect class="st3" fill="#328ce0" height="78.3" id="rect_1" stroke="#FFFFFF" tag_name="svg/g_33/rect_1" width="131.3" x="509.6" y="206.2"/><rect class="st3" fill="#328ce0" height="156.6" id="rect" stroke="#FFFFFF" tag_name="svg/g_33/rect" width="262.5" x="50.1" y="127.9"/></g></svg>