<?xml version="1.0" encoding="utf-8"?>
<svg height="340" id="svg" style="max-width: 100%; height: auto; font: 10px sans-serif;" tag_name="svg" viewBox="-90,-30,880,340" width="900" xmlns="http://www.w3.org/2000/svg" xmlns:xlink="http://www.w3.org/1999/xlink"><g id="g" tag_name="svg/g"><circle class="st0" cx="105.6" cy="75.2" fill="#FF0000" id="circle_15" r="13.2" tag_name="svg/g/circle_15"/><circle class="st0" cx="141.7" cy="75.2" fill="#FF0000" id="circle_14" r="13.2" tag_name="svg/g/circle_14"/><circle class="st0" cx="177" cy="75.2" fill="#FF0000" id="circle_13" r="13.2" tag_name="svg/g/circle_13"/><circle class="st0" cx="213.5" cy="75.2" fill="#FF0000" id="circle_12" r="13.2" tag_name="svg/g/circle_12"/><circle class="st0" cx="250.5" cy="75.2" fill="#FF0000" id="circle_11" r="13.2" tag_name="svg/g/circle_11"/><circle class="st0" cx="285.6" cy="75.2" fill="#FF0000" id="circle_10" r="13.2" tag_name="svg/g/circle_10"/><circle class="st0" cx="319.3" cy="75.2" fill="#FF0000" id="circle_9" r="13.2" tag_name="svg/g/circle_9"/><circle class="st0" cx="389.1" cy="75.2" fill="#FF0000" id="circle_8" r="13.2" tag_name="svg/g/circle_8"/><circle class="st0" cx="424.5" cy="75.2" fill="#FF0000" id="circle_7" r="13.2" tag_name="svg/g/circle_7"/><circle class="st0" cx="459.8" cy="75.2" fill="#FF0000" id="circle_6" r="13.2" tag_name="svg/g/circle_6"/><circle class="st0" cx="495.1" cy="75.2" fill="#FF0000" id="circle_5" r="13.2" tag_name="svg/g/circle_5"/><circle class="st0" cx="530.4" cy="75.2" fill="#FF0000" id="circle_4" r="13.2" tag_name="svg/g/circle_4"/><circle class="st0" cx="565.7" cy="75.2" fill="#FF0000" id="circle_3" r="13.2" tag_name="svg/g/circle_3"/><circle class="st0" cx="601" cy="75.2" fill="#FF0000" id="circle_2" r="13.2" tag_name="svg/g/circle_2"/><circle class="st0" cx="636.4" cy="75.2" fill="#FF0000" id="circle_1" r="13.2" tag_name="svg/g/circle_1"/><circle class="st0" cx="671.4" cy="75.2" fill="#FF0000" id="circle" r="13.2" tag_name="svg/g/circle"/><rect class="st0" fill="#FF0000" height="26.5" id="rect_9" tag_name="svg/g/rect_9" width="26.5" x="92.4" y="192"/><rect class="st0" fill="#FF0000" height="26.5" id="rect_8" tag_name="svg/g/rect_8" width="26.5" x="128.4" y="192"/><rect class="st0" fill="#FF0000" height="26.5" id="rect_7" tag_name="svg/g/rect_7" width="26.5" x="163.7" y="192"/><rect class="st0" fill="#FF0000" height="26.5" id="rect_6" tag_name="svg/g/rect_6" width="26.5" x="200.3" y="192"/><rect class="st0" fill="#FF0000" height="26.5" id="rect_5" tag_name="svg/g/rect_5" width="26.5" x="237.2" y="192"/><rect class="st0" fill="#FF0000" height="26.5" id="rect_4" tag_name="svg/g/rect_4" width="26.5" x="272.4" y="192"/><rect class="st0" fill="#FF0000" height="26.5" id="rect_3" tag_name="svg/g/rect_3" width="26.5" x="306.1" y="192"/><rect class="st0" fill="#FF0000" height="26.5" id="rect_2" tag_name="svg/g/rect_2" width="26.5" x="340.8" y="192"/><rect class="st0" fill="#FF0000" height="26.5" id="rect_1" tag_name="svg/g/rect_1" width="26.5" x="376.9" y="192"/><rect class="st0" fill="#FF0000" height="26.5" id="rect" tag_name="svg/g/rect" width="26.5" x="412.6" y="192"/></g></svg>