<?xml version="1.0" encoding="utf-8"?>
<svg height="340" id="svg" tag_name="svg" viewBox="0,0,550,300" width="900" xmlns="http://www.w3.org/2000/svg" xmlns:xlink="http://www.w3.org/1999/xlink"><g aria-hidden="false" class="highcharts-series-group" data-z-index="3" filter="none" id="g" tag_name="svg/g"><g id="g_10" tag_name="svg/g/g_10"><path d="M 4.9803921568583 222.39405 L 46.483660130715 215.6652 L 87.986928104572 192.139875 L 129.49019607843 168.396525 L 170.99346405229 125.196225 L 212.49673202614 82.104225 L 254 40.565475 L 295.50326797386 49.62705 L 337.00653594771 63.901275 L 378.50980392157 54.92805 L 420.01307189543 64.68075 L 461.51633986928 44.232 L 503.01960784314 40.52985" data-z-index="1" fill="none" id="path_61" stroke="#2caffe" stroke-width="2" tag_name="svg/g/g_10/path_61"/></g><g id="g_8" tag_name="svg/g/g_8"><path d="M 4.9803921568583 249.4947 L 46.483660130715 230.934075 L 87.986928104572 242.61765 L 129.49019607843 242.462325 L 170.99346405229 238.70175 L 212.49673202614 241.84815 L 254 230.677575 L 295.50326797386 232.438875 L 337.00653594771 236.94045 L 378.50980392157 236.203725 L 420.01307189543 240.75375 L 461.51633986928 237.833925 L 503.01960784314 237.300975" data-z-index="1" fill="none" filter="none" id="path_47" stroke="#544fc5" stroke-linecap="round" stroke-linejoin="round" stroke-width="2" tag_name="svg/g/g_8/path_47"/></g><g id="g_6" tag_name="svg/g/g_6"><path d="M 4.9803921568583 268.2648 L 46.483660130715 242.25 L 87.986928104572 262.192875 L 129.49019607843 256.826325 L 170.99346405229 256.236375 L 212.49673202614 250.262775 L 254 239.190525 L 295.50326797386 240.9504 L 337.00653594771 243.328725 L 378.50980392157 243.371475 L 420.01307189543 248.430225 L 461.51633986928 243.70635 L 503.01960784314 241.36935" data-z-index="1" fill="none" filter="none" id="path_33" stroke="#00e272" stroke-linecap="round" stroke-linejoin="round" stroke-width="2" tag_name="svg/g/g_6/path_33"/></g><g id="g_4" tag_name="svg/g/g_4"><path d="M 337.00653594771 269.0913 L 378.50980392157 269.01435 L 420.01307189543 270.640275 L 461.51633986928 267.14475 L 503.01960784314 261.366375" data-z-index="1" fill="none" filter="none" id="path_19" stroke="#fe6a35" stroke-linecap="round" stroke-linejoin="round" stroke-width="2" tag_name="svg/g/g_4/path_19"/></g><g id="g_2" tag_name="svg/g/g_2"><path d="M 4.9803921568583 253.7811 L 46.483660130715 277.0941 L 87.986928104572 273.450375 L 129.49019607843 268.9716 L 170.99346405229 272.190675 L 212.49673202614 268.1622 L 254 258.95955 L 295.50326797386 260.3475 L 337.00653594771 266.399475 L 378.50980392157 268.03395 L 420.01307189543 270.645975 L 461.51633986928 268.653825 L 503.01960784314 268.4016" data-z-index="1" fill="none" filter="none" id="path_13" stroke="#6b8abc" stroke-linecap="round" stroke-linejoin="round" stroke-width="2" tag_name="svg/g/g_2/path_13"/></g></g></svg>