<?xml version="1.0" encoding="utf-8"?>
<svg baseProfile="full" height="1105" id="svg" style="position: absolute; left: 0px; top: 0px; user-select: none;" tag_name="svg" version="1.1" width="1486" xmlns="http://www.w3.org/2000/svg" xmlns:xlink="http://www.w3.org/1999/xlink"><circle cx="145" cy="305" fill="#3498db" id="circle_37" r="5" tag_name="svg/circle_37"/><circle cx="162" cy="323" fill="#3498db" id="circle_36" r="5" tag_name="svg/circle_36"/><circle cx="176" cy="287" fill="#3498db" id="circle_35" r="5" tag_name="svg/circle_35"/><circle cx="195" cy="312" fill="#3498db" id="circle_34" r="5" tag_name="svg/circle_34"/><circle cx="213" cy="294" fill="#3498db" id="circle_33" r="5" tag_name="svg/circle_33"/><circle cx="229" cy="301" fill="#3498db" id="circle_32" r="5" tag_name="svg/circle_32"/><circle cx="243" cy="288" fill="#3498db" id="circle_31" r="5" tag_name="svg/circle_31"/><circle cx="264" cy="307" fill="#3498db" id="circle_30" r="5" tag_name="svg/circle_30"/><circle cx="275" cy="292" fill="#3498db" id="circle_29" r="5" tag_name="svg/circle_29"/><circle cx="290" cy="315" fill="#3498db" id="circle_28" r="5" tag_name="svg/circle_28"/><circle cx="312" cy="286" fill="#3498db" id="circle_27" r="5" tag_name="svg/circle_27"/><circle cx="327" cy="308" fill="#3498db" id="circle_26" r="5" tag_name="svg/circle_26"/><circle cx="345" cy="298" fill="#3498db" id="circle_25" r="5" tag_name="svg/circle_25"/><circle cx="362" cy="312" fill="#3498db" id="circle_24" r="5" tag_name="svg/circle_24"/><circle cx="374" cy="289" fill="#3498db" id="circle_23" r="5" tag_name="svg/circle_23"/><circle cx="392" cy="302" fill="#3498db" id="circle_22" r="5" tag_name="svg/circle_22"/><circle cx="407" cy="293" fill="#3498db" id="circle_21" r="5" tag_name="svg/circle_21"/><circle cx="424" cy="309" fill="#3498db" id="circle_20" r="5" tag_name="svg/circle_20"/><circle cx="437" cy="287" fill="#3498db" id="circle_19" r="5" tag_name="svg/circle_19"/><circle cx="452" cy="302" fill="#3498db" id="circle_18" r="5" tag_name="svg/circle_18"/><circle cx="468" cy="298" fill="#3498db" id="circle_17" r="5" tag_name="svg/circle_17"/><circle cx="481" cy="314" fill="#3498db" id="circle_16" r="5" tag_name="svg/circle_16"/><circle cx="497" cy="293" fill="#3498db" id="circle_15" r="5" tag_name="svg/circle_15"/><circle cx="514" cy="306" fill="#3498db" id="circle_14" r="5" tag_name="svg/circle_14"/><circle cx="527" cy="288" fill="#3498db" id="circle_13" r="5" tag_name="svg/circle_13"/><circle cx="539" cy="302" fill="#3498db" id="circle_12" r="5" tag_name="svg/circle_12"/><circle cx="553" cy="297" fill="#3498db" id="circle_11" r="5" tag_name="svg/circle_11"/><circle cx="573" cy="310" fill="#3498db" id="circle_10" r="5" tag_name="svg/circle_10"/><circle cx="591" cy="290" fill="#3498db" id="circle_9" r="5" tag_name="svg/circle_9"/><circle cx="608" cy="304" fill="#3498db" id="circle_8" r="5" tag_name="svg/circle_8"/><circle cx="624" cy="287" fill="#3498db" id="circle_7" r="5" tag_name="svg/circle_7"/><circle cx="644" cy="295" fill="#3498db" id="circle_6" r="5" tag_name="svg/circle_6"/><circle cx="658" cy="306" fill="#3498db" id="circle_5" r="5" tag_name="svg/circle_5"/><circle cx="280" cy="180" data-scale-factor="1.6099999999999999" fill="rgb(219, 155, 51)" id="circle_4" r="7" tag_name="svg/circle_4" transform="translate(280, 180) scale(1.6099999999999999) translate(-280, -180)"/><circle cx="310" cy="165" data-scale-factor="1.6099999999999999" fill="rgb(219, 155, 51)" id="circle_3" r="7" tag_name="svg/circle_3" transform="translate(310, 165) scale(1.6099999999999999) translate(-310, -165)"/><circle cx="295" cy="175" data-scale-factor="1.6099999999999999" fill="rgb(219, 155, 51)" id="circle_2" r="7" tag_name="svg/circle_2" transform="translate(295, 175) scale(1.6099999999999999) translate(-295, -175)"/><circle cx="325" cy="170" data-scale-factor="1.6099999999999999" fill="rgb(219, 155, 51)" id="circle_1" r="7" tag_name="svg/circle_1" transform="translate(325, 170) scale(1.6099999999999999) translate(-325, -170)"/><circle cx="340" cy="160" data-scale-factor="1.6099999999999999" fill="rgb(219, 155, 51)" id="circle" r="7" tag_name="svg/circle" transform="translate(340, 160) scale(1.6099999999999999) translate(-340, -160)"/></svg>