<?xml version="1.0" encoding="utf-8"?>
<svg height="340" id="svg" style="max-width: 100%; height: auto; font: 10px sans-serif;" tag_name="svg" viewBox="-100,-30,880,340" width="900" xmlns="http://www.w3.org/2000/svg" xmlns:xlink="http://www.w3.org/1999/xlink"><g id="g_53" tag_name="svg/g_53"><path class="st0" d="M462,283c-86.6-5.2-154.5-82.8-177.6-159.8c-31.5-105.1-89.8,14.9-104-15.4c-24.3-51.9-32.2-86.7-61.9-3.7   c-20.6,57.5-20.3,136.9-70,178.4" fill="#8CC63F" fill-opacity="0.5" id="path_39" stroke="#7EBA2E" stroke-width="1.5" tag_name="svg/g_53/path_39"/><path class="st1" d="M706,283c-197-10.4-147.5-48.3-180.5-110.1c-17.9-33.6-27.8-83.2-75.8-34.7c-13.4,13.6-22,50.4-42.9,56.4   c-19.6,5.7-43.2-16.2-54.6,5.9c-33.4,64.6-240.4,84-303.9,82" fill="#B160F0" fill-opacity="0.5" id="path_38" stroke="#B973F0" stroke-width="1.5" tag_name="svg/g_53/path_38"/></g><g id="g" tag_name="svg/g"><g id="g_52" tag_name="svg/g/g_52"><path class="st2" d="M44.1,289.1c0,2.7-1,4.1-2.7,4.1c-1.5,0-2.6-1.4-2.6-4c0-2.6,1.1-4.1,2.7-4.1    C43.2,285.1,44.1,286.6,44.1,289.1z M39.9,289.2c0,2,0.6,3.2,1.6,3.2c1.1,0,1.6-1.3,1.6-3.2c0-1.9-0.5-3.2-1.6-3.2    C40.6,285.9,39.9,287.1,39.9,289.2z" fill="#808080" id="path_37" tag_name="svg/g/g_52/path_37"/></g><g id="g_51" tag_name="svg/g/g_51"><path class="st2" d="M29.2,218.3c0,2.7-1,4.1-2.7,4.1c-1.5,0-2.6-1.4-2.6-4c0-2.6,1.1-4.1,2.7-4.1    C28.2,214.4,29.2,215.8,29.2,218.3z M24.9,218.4c0,2,0.6,3.2,1.6,3.2c1.1,0,1.6-1.3,1.6-3.2c0-1.9-0.5-3.2-1.6-3.2    C25.6,215.2,24.9,216.3,24.9,218.4z" fill="#808080" id="path_36" tag_name="svg/g/g_51/path_36"/><path class="st2" d="M30.2,221.7c0-0.4,0.3-0.8,0.7-0.8s0.7,0.3,0.7,0.8c0,0.4-0.3,0.8-0.7,0.8C30.5,222.4,30.2,222.1,30.2,221.7z    " fill="#808080" id="path_35" tag_name="svg/g/g_51/path_35"/><path class="st2" d="M34.9,215.5L34.9,215.5l-1.4,0.7l-0.2-0.8l1.7-0.9h0.9v7.8h-1V215.5z" fill="#808080" id="path_34" tag_name="svg/g/g_51/path_34"/></g><g id="g_50" tag_name="svg/g/g_50"><path class="st2" d="M29.2,153.6c0,2.7-1,4.1-2.7,4.1c-1.5,0-2.6-1.4-2.6-4c0-2.6,1.1-4.1,2.7-4.1    C28.2,149.6,29.2,151.1,29.2,153.6z M24.9,153.7c0,2,0.6,3.2,1.6,3.2c1.1,0,1.6-1.3,1.6-3.2c0-1.9-0.5-3.2-1.6-3.2    C25.6,150.5,24.9,151.6,24.9,153.7z" fill="#808080" id="path_33" tag_name="svg/g/g_50/path_33"/><path class="st2" d="M30.2,156.9c0-0.4,0.3-0.8,0.7-0.8s0.7,0.3,0.7,0.8c0,0.4-0.3,0.8-0.7,0.8C30.5,157.7,30.2,157.4,30.2,156.9z    " fill="#808080" id="path_32" tag_name="svg/g/g_50/path_32"/><path class="st2" d="M32.6,157.6v-0.6l0.8-0.8c2-1.9,2.9-2.9,2.9-4.1c0-0.8-0.4-1.5-1.5-1.5c-0.7,0-1.3,0.4-1.7,0.7l-0.3-0.7    c0.5-0.5,1.3-0.8,2.2-0.8c1.7,0,2.4,1.2,2.4,2.3c0,1.4-1,2.6-2.7,4.2l-0.6,0.6v0h3.5v0.9H32.6z" fill="#808080" id="path_31" tag_name="svg/g/g_50/path_31"/></g><g id="g_49" tag_name="svg/g/g_49"><path class="st2" d="M29.2,90.5c0,2.7-1,4.1-2.7,4.1c-1.5,0-2.6-1.4-2.6-4c0-2.6,1.1-4.1,2.7-4.1C28.2,86.5,29.2,88,29.2,90.5z     M24.9,90.6c0,2,0.6,3.2,1.6,3.2c1.1,0,1.6-1.3,1.6-3.2c0-1.9-0.5-3.2-1.6-3.2C25.6,87.4,24.9,88.5,24.9,90.6z" fill="#808080" id="path_30" tag_name="svg/g/g_49/path_30"/><path class="st2" d="M30.2,93.9c0-0.4,0.3-0.8,0.7-0.8s0.7,0.3,0.7,0.8c0,0.4-0.3,0.8-0.7,0.8C30.5,94.6,30.2,94.3,30.2,93.9z" fill="#808080" id="path_29" tag_name="svg/g/g_49/path_29"/><path class="st2" d="M32.9,93.3c0.3,0.2,1,0.5,1.7,0.5c1.4,0,1.8-0.9,1.8-1.5c0-1.1-1-1.6-2-1.6h-0.6v-0.8h0.6    c0.8,0,1.7-0.4,1.7-1.3c0-0.6-0.4-1.2-1.4-1.2c-0.6,0-1.2,0.3-1.6,0.5l-0.3-0.8c0.4-0.3,1.2-0.6,2-0.6c1.5,0,2.2,0.9,2.2,1.9    c0,0.8-0.5,1.5-1.4,1.8v0c1,0.2,1.7,0.9,1.7,2c0,1.2-1,2.3-2.8,2.3c-0.9,0-1.6-0.3-2-0.5L32.9,93.3z" fill="#808080" id="path_28" tag_name="svg/g/g_49/path_28"/></g><g id="g_48" tag_name="svg/g/g_48"><path class="st2" d="M29.2,26.1c0,2.7-1,4.1-2.7,4.1c-1.5,0-2.6-1.4-2.6-4c0-2.6,1.1-4.1,2.7-4.1C28.2,22.1,29.2,23.6,29.2,26.1z     M24.9,26.2c0,2,0.6,3.2,1.6,3.2c1.1,0,1.6-1.3,1.6-3.2c0-1.9-0.5-3.2-1.6-3.2C25.6,22.9,24.9,24.1,24.9,26.2z" fill="#808080" id="path_27" tag_name="svg/g/g_48/path_27"/><path class="st2" d="M30.2,29.4c0-0.4,0.3-0.8,0.7-0.8s0.7,0.3,0.7,0.8c0,0.4-0.3,0.8-0.7,0.8C30.5,30.2,30.2,29.9,30.2,29.4z" fill="#808080" id="path_26" tag_name="svg/g/g_48/path_26"/><path class="st2" d="M35.9,30.1v-2.1h-3.6v-0.7l3.5-5h1.1v4.8H38v0.8h-1.1v2.1H35.9z M35.9,27.1v-2.6c0-0.4,0-0.8,0-1.2h0    c-0.2,0.5-0.4,0.8-0.6,1.2l-1.9,2.7v0H35.9z" fill="#808080" id="path_25" tag_name="svg/g/g_48/path_25"/></g><g id="g_43" tag_name="svg/g/g_43"><g id="g_44" tag_name="svg/g/g_43/g_44"><path class="st2" d="M85,298.2L85,298.2l-1.4,0.7l-0.2-0.8l1.7-0.9H86v7.8h-1V298.2z" fill="#808080" id="path_24" tag_name="svg/g/g_43/g_44/path_24"/></g></g><g id="g_41" tag_name="svg/g/g_41"><g id="g_42" tag_name="svg/g/g_41/g_42"><path class="st2" d="M119,305v-0.6l0.8-0.8c2-1.9,2.9-2.9,2.9-4.1c0-0.8-0.4-1.5-1.5-1.5c-0.7,0-1.3,0.4-1.7,0.7l-0.3-0.7     c0.5-0.5,1.3-0.8,2.2-0.8c1.7,0,2.4,1.2,2.4,2.3c0,1.4-1,2.6-2.7,4.2l-0.6,0.6v0h3.5v0.9H119z" fill="#808080" id="path_23" tag_name="svg/g/g_41/g_42/path_23"/></g></g><g id="g_39" tag_name="svg/g/g_39"><g id="g_40" tag_name="svg/g/g_39/g_40"><path class="st2" d="M156.6,303.8c0.3,0.2,1,0.5,1.7,0.5c1.4,0,1.8-0.9,1.8-1.5c0-1.1-1-1.6-2-1.6h-0.6v-0.8h0.6     c0.8,0,1.7-0.4,1.7-1.3c0-0.6-0.4-1.2-1.4-1.2c-0.6,0-1.2,0.3-1.6,0.5l-0.3-0.8c0.4-0.3,1.2-0.6,2-0.6c1.5,0,2.2,0.9,2.2,1.9     c0,0.8-0.5,1.5-1.4,1.8v0c1,0.2,1.7,0.9,1.7,2c0,1.2-1,2.3-2.8,2.3c-0.9,0-1.6-0.3-2-0.5L156.6,303.8z" fill="#808080" id="path_22" tag_name="svg/g/g_39/g_40/path_22"/></g></g><g id="g_37" tag_name="svg/g/g_37"><g id="g_38" tag_name="svg/g/g_37/g_38"><path class="st2" d="M195.6,305v-2.1H192v-0.7l3.5-5h1.1v4.8h1.1v0.8h-1.1v2.1H195.6z M195.6,302.1v-2.6c0-0.4,0-0.8,0-1.2h0     c-0.2,0.5-0.4,0.8-0.6,1.2l-1.9,2.7v0H195.6z" fill="#808080" id="path_21" tag_name="svg/g/g_37/g_38/path_21"/></g></g><g id="g_35" tag_name="svg/g/g_35"><g id="g_36" tag_name="svg/g/g_35/g_36"><path class="st2" d="M234.7,298.1h-3l-0.3,2c0.2,0,0.3,0,0.6,0c0.6,0,1.2,0.1,1.7,0.4c0.6,0.3,1.1,1,1.1,2c0,1.5-1.2,2.7-2.9,2.7     c-0.9,0-1.6-0.2-1.9-0.5l0.3-0.8c0.3,0.2,1,0.4,1.7,0.4c1,0,1.8-0.6,1.8-1.7c0-1-0.7-1.7-2.2-1.7c-0.4,0-0.8,0-1.1,0.1l0.5-3.7     h3.7V298.1z" fill="#808080" id="path_20" tag_name="svg/g/g_35/g_36/path_20"/></g></g><g id="g_33" tag_name="svg/g/g_33"><g id="g_34" tag_name="svg/g/g_33/g_34"><path class="st2" d="M270.5,298c-0.2,0-0.5,0-0.8,0c-1.7,0.3-2.5,1.5-2.7,2.8h0c0.4-0.5,1-0.9,1.9-0.9c1.4,0,2.4,1,2.4,2.5     c0,1.4-1,2.7-2.6,2.7c-1.7,0-2.8-1.3-2.8-3.3c0-1.5,0.6-2.7,1.3-3.5c0.6-0.6,1.5-1,2.5-1.2c0.3,0,0.6-0.1,0.8-0.1V298z      M270.2,302.5c0-1.1-0.6-1.8-1.6-1.8c-0.6,0-1.2,0.4-1.5,1c-0.1,0.1-0.1,0.3-0.1,0.5c0,1.3,0.6,2.2,1.7,2.2     C269.6,304.3,270.2,303.6,270.2,302.5z" fill="#808080" id="path_19" tag_name="svg/g/g_33/g_34/path_19"/></g></g><g id="g_31" tag_name="svg/g/g_31"><g id="g_32" tag_name="svg/g/g_31/g_32"><path class="st2" d="M308.1,297.2v0.7l-3.4,7.1h-1.1l3.4-6.9v0h-3.8v-0.9H308.1z" fill="#808080" id="path_18" tag_name="svg/g/g_31/g_32/path_18"/></g></g><g id="g_29" tag_name="svg/g/g_29"><g id="g_30" tag_name="svg/g/g_29/g_30"><path class="st2" d="M339.4,303c0-1,0.6-1.7,1.5-2.1l0,0c-0.9-0.4-1.2-1.1-1.2-1.8c0-1.2,1-2.1,2.4-2.1c1.5,0,2.3,0.9,2.3,1.9     c0,0.7-0.3,1.4-1.3,1.8v0c1,0.4,1.6,1.1,1.6,2c0,1.4-1.2,2.3-2.7,2.3C340.4,305.1,339.4,304.2,339.4,303z M343.6,303     c0-0.9-0.7-1.4-1.7-1.7c-0.9,0.3-1.4,0.9-1.4,1.6c0,0.8,0.6,1.5,1.6,1.5C343,304.4,343.6,303.8,343.6,303z M340.7,299.1     c0,0.8,0.6,1.2,1.5,1.4c0.7-0.2,1.2-0.7,1.2-1.4c0-0.6-0.4-1.3-1.3-1.3C341.2,297.8,340.7,298.4,340.7,299.1z" fill="#808080" id="path_17" tag_name="svg/g/g_29/g_30/path_17"/></g></g><g id="g_27" tag_name="svg/g/g_27"><g id="g_28" tag_name="svg/g/g_27/g_28"><path class="st2" d="M377.7,304.3c0.2,0,0.5,0,0.9,0c0.6-0.1,1.2-0.3,1.6-0.8c0.5-0.5,0.9-1.2,1-2.1h0c-0.4,0.5-1.1,0.8-1.8,0.8     c-1.4,0-2.3-1.1-2.3-2.4c0-1.5,1.1-2.8,2.7-2.8s2.6,1.3,2.6,3.3c0,1.7-0.6,2.9-1.3,3.7c-0.6,0.6-1.4,0.9-2.3,1     c-0.4,0.1-0.7,0.1-1,0.1V304.3z M378,299.8c0,1,0.6,1.7,1.5,1.7c0.7,0,1.3-0.3,1.5-0.8c0.1-0.1,0.1-0.2,0.1-0.4     c0-1.3-0.5-2.4-1.6-2.4C378.7,297.9,378,298.7,378,299.8z" fill="#808080" id="path_16" tag_name="svg/g/g_27/g_28/path_16"/></g></g><g id="g_25" tag_name="svg/g/g_25"><g id="g_26" tag_name="svg/g/g_25/g_26"><path class="st2" d="M412.3,298.2L412.3,298.2l-1.4,0.7l-0.2-0.8l1.7-0.9h0.9v7.8h-1V298.2z" fill="#808080" id="path_15" tag_name="svg/g/g_25/g_26/path_15"/><path class="st2" d="M421.4,301c0,2.7-1,4.1-2.7,4.1c-1.5,0-2.6-1.4-2.6-4c0-2.6,1.1-4.1,2.7-4.1     C420.4,297.1,421.4,298.5,421.4,301z M417.1,301.1c0,2,0.6,3.2,1.6,3.2c1.1,0,1.6-1.3,1.6-3.2c0-1.9-0.5-3.2-1.6-3.2     C417.8,297.9,417.1,299,417.1,301.1z" fill="#808080" id="path_14" tag_name="svg/g/g_25/g_26/path_14"/></g></g><g id="g_23" tag_name="svg/g/g_23"><g id="g_24" tag_name="svg/g/g_23/g_24"><path class="st2" d="M449.3,298.2L449.3,298.2l-1.4,0.7l-0.2-0.8l1.7-0.9h0.9v7.8h-1V298.2z" fill="#808080" id="path_13" tag_name="svg/g/g_23/g_24/path_13"/><path class="st2" d="M455.5,298.2L455.5,298.2l-1.4,0.7l-0.2-0.8l1.7-0.9h0.9v7.8h-1V298.2z" fill="#808080" id="path_12" tag_name="svg/g/g_23/g_24/path_12"/></g></g><g id="g_21" tag_name="svg/g/g_21"><g id="g_22" tag_name="svg/g/g_21/g_22"><path class="st2" d="M486.3,298.2L486.3,298.2l-1.4,0.7l-0.2-0.8l1.7-0.9h0.9v7.8h-1V298.2z" fill="#808080" id="path_11" tag_name="svg/g/g_21/g_22/path_11"/><path class="st2" d="M490.2,305v-0.6l0.8-0.8c2-1.9,2.9-2.9,2.9-4.1c0-0.8-0.4-1.5-1.5-1.5c-0.7,0-1.3,0.4-1.7,0.7l-0.3-0.7     c0.5-0.5,1.3-0.8,2.2-0.8c1.7,0,2.4,1.2,2.4,2.3c0,1.4-1,2.6-2.7,4.2l-0.6,0.6v0h3.5v0.9H490.2z" fill="#808080" id="path_10" tag_name="svg/g/g_21/g_22/path_10"/></g></g><g id="g_19" tag_name="svg/g/g_19"><g id="g_20" tag_name="svg/g/g_19/g_20"><path class="st2" d="M523.3,298.2L523.3,298.2l-1.4,0.7l-0.2-0.8l1.7-0.9h0.9v7.8h-1V298.2z" fill="#808080" id="path_9" tag_name="svg/g/g_19/g_20/path_9"/><path class="st2" d="M527.4,303.8c0.3,0.2,1,0.5,1.7,0.5c1.4,0,1.8-0.9,1.8-1.5c0-1.1-1-1.6-2-1.6h-0.6v-0.8h0.6     c0.8,0,1.7-0.4,1.7-1.3c0-0.6-0.4-1.2-1.4-1.2c-0.6,0-1.2,0.3-1.6,0.5l-0.3-0.8c0.4-0.3,1.2-0.6,2-0.6c1.5,0,2.2,0.9,2.2,1.9     c0,0.8-0.5,1.5-1.4,1.8v0c1,0.2,1.7,0.9,1.7,2c0,1.2-1,2.3-2.8,2.3c-0.9,0-1.6-0.3-2-0.5L527.4,303.8z" fill="#808080" id="path_8" tag_name="svg/g/g_19/g_20/path_8"/></g></g><g id="g_17" tag_name="svg/g/g_17"><g id="g_18" tag_name="svg/g/g_17/g_18"><path class="st2" d="M559.3,298.2L559.3,298.2l-1.4,0.7l-0.2-0.8l1.7-0.9h0.9v7.8h-1V298.2z" fill="#808080" id="path_7" tag_name="svg/g/g_17/g_18/path_7"/><path class="st2" d="M566.5,305v-2.1h-3.6v-0.7l3.5-5h1.1v4.8h1.1v0.8h-1.1v2.1H566.5z M566.5,302.1v-2.6c0-0.4,0-0.8,0-1.2h0     c-0.2,0.5-0.4,0.8-0.6,1.2l-1.9,2.7v0H566.5z" fill="#808080" id="path_6" tag_name="svg/g/g_17/g_18/path_6"/></g></g><g id="g_15" tag_name="svg/g/g_15"><g id="g_16" tag_name="svg/g/g_15/g_16"><path class="st2" d="M596.8,298.2L596.8,298.2l-1.4,0.7l-0.2-0.8l1.7-0.9h0.9v7.8h-1V298.2z" fill="#808080" id="path_5" tag_name="svg/g/g_15/g_16/path_5"/><path class="st2" d="M605.3,298.1h-3l-0.3,2c0.2,0,0.3,0,0.6,0c0.6,0,1.2,0.1,1.7,0.4c0.6,0.3,1.1,1,1.1,2c0,1.5-1.2,2.7-2.9,2.7     c-0.9,0-1.6-0.2-1.9-0.5l0.3-0.8c0.3,0.2,1,0.4,1.7,0.4c1,0,1.8-0.6,1.8-1.7c0-1-0.7-1.7-2.2-1.7c-0.4,0-0.8,0-1.1,0.1l0.5-3.7     h3.7V298.1z" fill="#808080" id="path_4" tag_name="svg/g/g_15/g_16/path_4"/></g></g><g id="g_13" tag_name="svg/g/g_13"><g id="g_14" tag_name="svg/g/g_13/g_14"><path class="st2" d="M633.8,298.2L633.8,298.2l-1.4,0.7l-0.2-0.8l1.7-0.9h0.9v7.8h-1V298.2z" fill="#808080" id="path_3" tag_name="svg/g/g_13/g_14/path_3"/><path class="st2" d="M642.1,298c-0.2,0-0.5,0-0.8,0c-1.7,0.3-2.5,1.5-2.7,2.8h0c0.4-0.5,1-0.9,1.9-0.9c1.4,0,2.4,1,2.4,2.5     c0,1.4-1,2.7-2.6,2.7c-1.7,0-2.8-1.3-2.8-3.3c0-1.5,0.6-2.7,1.3-3.5c0.6-0.6,1.5-1,2.5-1.2c0.3,0,0.6-0.1,0.8-0.1V298z      M641.8,302.5c0-1.1-0.6-1.8-1.6-1.8c-0.6,0-1.2,0.4-1.5,1c-0.1,0.1-0.1,0.3-0.1,0.5c0,1.3,0.6,2.2,1.7,2.2     C641.2,304.3,641.8,303.6,641.8,302.5z" fill="#808080" id="path_2" tag_name="svg/g/g_13/g_14/path_2"/></g></g><g id="g_11" tag_name="svg/g/g_11"><g id="g_12" tag_name="svg/g/g_11/g_12"><path class="st2" d="M669.8,298.2L669.8,298.2l-1.4,0.7l-0.2-0.8l1.7-0.9h0.9v7.8h-1V298.2z" fill="#808080" id="path_1" tag_name="svg/g/g_11/g_12/path_1"/><path class="st2" d="M678.8,297.2v0.7l-3.4,7.1h-1.1l3.4-6.9v0h-3.8v-0.9H678.8z" fill="#808080" id="path" tag_name="svg/g/g_11/g_12/path"/></g></g></g></svg>