<?xml version="1.0" encoding="utf-8"?>
<svg font="10px sans-serif" height="auto" id="svg" max-width="100%" tag_name="svg" viewBox="-410,-100,600,200" width="900" xmlns="http://www.w3.org/2000/svg" xmlns:xlink="http://www.w3.org/1999/xlink"><line id="line_39" stroke="#000" stroke-width="1.5" tag_name="svg/line_39" x1="-380" x2="-380" y1="-40" y2="70"/><rect fill="#1f77b4" height="30" id="rect_9" opacity="0.7" stroke="#000" stroke-width="1.5" tag_name="svg/rect_9" width="40" x="-400" y="10"/><line id="line_38" stroke="#000" stroke-width="2" tag_name="svg/line_38" x1="-400" x2="-360" y1="20" y2="20"/><line id="line_37" stroke="#000" stroke-width="1.5" tag_name="svg/line_37" x1="-400" x2="-360" y1="-40" y2="-40"/><line id="line_36" stroke="#000" stroke-width="1.5" tag_name="svg/line_36" x1="-400" x2="-360" y1="70" y2="70"/><circle cx="-380" cy="80" fill="#1f77b4" id="circle_10" r="3" tag_name="svg/circle_10"/><line id="line_35" stroke="#000" stroke-width="1.5" tag_name="svg/line_35" x1="-330" x2="-330" y1="-30" y2="80"/><rect fill="#ff7f0e" height="50" id="rect_8" opacity="0.7" stroke="#000" stroke-width="1.5" tag_name="svg/rect_8" width="40" x="-350" y="5"/><line id="line_34" stroke="#000" stroke-width="2" tag_name="svg/line_34" x1="-350" x2="-310" y1="25" y2="25"/><line id="line_33" stroke="#000" stroke-width="1.5" tag_name="svg/line_33" x1="-350" x2="-310" y1="-30" y2="-30"/><line id="line_32" stroke="#000" stroke-width="1.5" tag_name="svg/line_32" x1="-350" x2="-310" y1="80" y2="80"/><circle cx="-330" cy="90" fill="#ff7f0e" id="circle_9" r="3" tag_name="svg/circle_9"/><line id="line_31" stroke="#000" stroke-width="1.5" tag_name="svg/line_31" x1="-260" x2="-260" y1="-50" y2="60"/><rect fill="#2ca02c" height="60" id="rect_7" opacity="0.7" stroke="#000" stroke-width="1.5" tag_name="svg/rect_7" width="40" x="-280" y="-5"/><line id="line_30" stroke="#000" stroke-width="2" tag_name="svg/line_30" x1="-280" x2="-240" y1="15" y2="15"/><line id="line_29" stroke="#000" stroke-width="1.5" tag_name="svg/line_29" x1="-280" x2="-240" y1="-50" y2="-50"/><line id="line_28" stroke="#000" stroke-width="1.5" tag_name="svg/line_28" x1="-280" x2="-240" y1="60" y2="60"/><circle cx="-260" cy="70" fill="#2ca02c" id="circle_8" r="3" tag_name="svg/circle_8"/><circle cx="-260" cy="80" fill="#2ca02c" id="circle_7" r="3" tag_name="svg/circle_7"/><line id="line_27" stroke="#000" stroke-width="1.5" tag_name="svg/line_27" x1="-210" x2="-210" y1="-60" y2="50"/><rect fill="#d62728" height="40" id="rect_6" opacity="0.7" stroke="#000" stroke-width="1.5" tag_name="svg/rect_6" width="40" x="-230" y="0"/><line id="line_26" stroke="#000" stroke-width="2" tag_name="svg/line_26" x1="-230" x2="-190" y1="20" y2="20"/><line id="line_25" stroke="#000" stroke-width="1.5" tag_name="svg/line_25" x1="-230" x2="-190" y1="-60" y2="-60"/><line id="line_24" stroke="#000" stroke-width="1.5" tag_name="svg/line_24" x1="-230" x2="-190" y1="50" y2="50"/><circle cx="-210" cy="-80" fill="#d62728" id="circle_6" r="3" tag_name="svg/circle_6"/><line id="line_23" stroke="#000" stroke-width="1.5" tag_name="svg/line_23" x1="-140" x2="-140" y1="-20" y2="80"/><rect fill="#9467bd" height="50" id="rect_5" opacity="0.7" stroke="#000" stroke-width="1.5" tag_name="svg/rect_5" width="40" x="-160" y="20"/><line id="line_22" stroke="#000" stroke-width="2" tag_name="svg/line_22" x1="-160" x2="-120" y1="40" y2="40"/><line id="line_21" stroke="#000" stroke-width="1.5" tag_name="svg/line_21" x1="-160" x2="-120" y1="-20" y2="-20"/><line id="line_20" stroke="#000" stroke-width="1.5" tag_name="svg/line_20" x1="-160" x2="-120" y1="80" y2="80"/><circle cx="-140" cy="90" fill="#9467bd" id="circle_5" r="3" tag_name="svg/circle_5"/><line id="line_19" stroke="#000" stroke-width="1.5" tag_name="svg/line_19" x1="-90" x2="-90" y1="-40" y2="70"/><rect fill="#8c564b" height="50" id="rect_4" opacity="0.7" stroke="#000" stroke-width="1.5" tag_name="svg/rect_4" width="40" x="-110" y="10"/><line id="line_18" stroke="#000" stroke-width="2" tag_name="svg/line_18" x1="-110" x2="-70" y1="30" y2="30"/><line id="line_17" stroke="#000" stroke-width="1.5" tag_name="svg/line_17" x1="-110" x2="-70" y1="-40" y2="-40"/><line id="line_16" stroke="#000" stroke-width="1.5" tag_name="svg/line_16" x1="-110" x2="-70" y1="70" y2="70"/><circle cx="-90" cy="80" fill="#8c564b" id="circle_4" r="3" tag_name="svg/circle_4"/><line id="line_15" stroke="#000" stroke-width="1.5" tag_name="svg/line_15" x1="-20" x2="-20" y1="-30" y2="60"/><rect fill="#e377c2" height="50" id="rect_3" opacity="0.7" stroke="#000" stroke-width="1.5" tag_name="svg/rect_3" width="40" x="-40" y="0"/><line id="line_14" stroke="#000" stroke-width="2" tag_name="svg/line_14" x1="-40" x2="0" y1="35" y2="35"/><line id="line_13" stroke="#000" stroke-width="1.5" tag_name="svg/line_13" x1="-40" x2="0" y1="-30" y2="-30"/><line id="line_12" stroke="#000" stroke-width="1.5" tag_name="svg/line_12" x1="-40" x2="0" y1="60" y2="60"/><circle cx="-20" cy="70" fill="#e377c2" id="circle_3" r="3" tag_name="svg/circle_3"/><line id="line_11" stroke="#000" stroke-width="1.5" tag_name="svg/line_11" x1="30" x2="30" y1="-50" y2="50"/><rect fill="#7f7f7f" height="40" id="rect_2" opacity="0.7" stroke="#000" stroke-width="1.5" tag_name="svg/rect_2" width="40" x="10" y="5"/><line id="line_10" stroke="#000" stroke-width="2" tag_name="svg/line_10" x1="10" x2="50" y1="25" y2="25"/><line id="line_9" stroke="#000" stroke-width="1.5" tag_name="svg/line_9" x1="10" x2="50" y1="-50" y2="-50"/><line id="line_8" stroke="#000" stroke-width="1.5" tag_name="svg/line_8" x1="10" x2="50" y1="50" y2="50"/><circle cx="30" cy="60" fill="#7f7f7f" id="circle_2" r="3" tag_name="svg/circle_2"/><line id="line_7" stroke="#000" stroke-width="1.5" tag_name="svg/line_7" x1="100" x2="100" y1="-30" y2="70"/><rect fill="#bcbd22" height="70" id="rect_1" opacity="0.7" stroke="#000" stroke-width="1.5" tag_name="svg/rect_1" width="40" x="80" y="0"/><line id="line_6" stroke="#000" stroke-width="2" tag_name="svg/line_6" x1="80" x2="120" y1="50" y2="50"/><line id="line_5" stroke="#000" stroke-width="1.5" tag_name="svg/line_5" x1="80" x2="120" y1="-30" y2="-30"/><line id="line_4" stroke="#000" stroke-width="1.5" tag_name="svg/line_4" x1="80" x2="120" y1="70" y2="70"/><circle cx="100" cy="80" fill="#bcbd22" id="circle_1" r="3" tag_name="svg/circle_1"/><line id="line_3" stroke="#000" stroke-width="1.5" tag_name="svg/line_3" x1="150" x2="150" y1="-40" y2="60"/><rect fill="#17becf" height="40" id="rect" opacity="0.7" stroke="#000" stroke-width="1.5" tag_name="svg/rect" width="40" x="130" y="0"/><line id="line_2" stroke="#000" stroke-width="2" tag_name="svg/line_2" x1="130" x2="170" y1="15" y2="15"/><line id="line_1" stroke="#000" stroke-width="1.5" tag_name="svg/line_1" x1="130" x2="170" y1="-40" y2="-40"/><line id="line" stroke="#000" stroke-width="1.5" tag_name="svg/line" x1="130" x2="170" y1="60" y2="60"/><circle cx="150" cy="70" fill="#17becf" id="circle" r="3" tag_name="svg/circle"/></svg>