<?xml version="1.0" encoding="utf-8"?>
<svg height="340" id="svg" tag_name="svg" viewBox="0,0,850,300" width="900" xmlns="http://www.w3.org/2000/svg" xmlns:xlink="http://www.w3.org/1999/xlink"><g aria-hidden="false" aria-label="Boys, bar series 1 of 2 with 6 bars." clip-path="url(#highcharts-nun5adp-13-)" data-z-index="0.1" id="g_1" opacity="1" outline="none" role="region" tabindex="-1" tag_name="svg/g_1" transform="translate(73,51) scale(1 1)"><path aria-label="x, 2018, 28,430. Boys." d="M 35.5 75.5 L 58.5 75.5 A 3 3 0 0 1 61.5 78.5 L 61.5 260.5 A 0 0 0 0 1 61.5 260.5 L 32.5 260.5 A 0 0 0 0 1 32.5 260.5 L 32.5 78.5 A 3 3 0 0 1 35.5 75.5 Z" fill="#2caffe" filter="none" id="path_11" opacity="1" outline="none" role="img" stroke="#ffffff" stroke-width="1" tabindex="-1" tag_name="svg/g_1/path_11"/><path aria-label="x, 2019, 28,042. Boys." d="M 153.5 77.5 L 176.5 77.5 A 3 3 0 0 1 179.5 80.5 L 179.5 260.5 A 0 0 0 0 1 179.5 260.5 L 150.5 260.5 A 0 0 0 0 1 150.5 260.5 L 150.5 80.5 A 3 3 0 0 1 153.5 77.5 Z" fill="#2caffe" filter="none" id="path_10" opacity="1" outline="none" role="img" stroke="#ffffff" stroke-width="1" tabindex="-1" tag_name="svg/g_1/path_10"/><path aria-label="x, 2020, 27,063. Boys." d="M 270.5 84.5 L 293.5 84.5 A 3 3 0 0 1 296.5 87.5 L 296.5 260.5 A 0 0 0 0 1 296.5 260.5 L 267.5 260.5 A 0 0 0 0 1 267.5 260.5 L 267.5 87.5 A 3 3 0 0 1 270.5 84.5 Z" fill="#2caffe" filter="none" id="path_9" opacity="1" outline="none" role="img" stroke="#ffffff" stroke-width="1" tabindex="-1" tag_name="svg/g_1/path_9"/><path aria-label="x, 2021, 28,684. Boys." d="M 388.5 73.5 L 411.5 73.5 A 3 3 0 0 1 414.5 76.5 L 414.5 260.5 A 0 0 0 0 1 414.5 260.5 L 385.5 260.5 A 0 0 0 0 1 385.5 260.5 L 385.5 76.5 A 3 3 0 0 1 388.5 73.5 Z" fill="rgb(44,175,254)" filter="none" id="path_8" opacity="1" outline="none" role="img" stroke="#ffffff" stroke-width="1" tabindex="-1" tag_name="svg/g_1/path_8"/><path aria-label="x, 2022, 26,445. Boys." d="M 506.5 88.5 L 529.5 88.5 A 3 3 0 0 1 532.5 91.5 L 532.5 260.5 A 0 0 0 0 1 532.5 260.5 L 503.5 260.5 A 0 0 0 0 1 503.5 260.5 L 503.5 91.5 A 3 3 0 0 1 506.5 88.5 Z" fill="#2caffe" filter="none" id="path_7" opacity="1" outline="none" role="img" stroke="#ffffff" stroke-width="1" tabindex="-1" tag_name="svg/g_1/path_7"/><path aria-label="x, 2023, 26,564. Boys." d="M 623.5 87.5 L 646.5 87.5 A 3 3 0 0 1 649.5 90.5 L 649.5 260.5 A 0 0 0 0 1 649.5 260.5 L 620.5 260.5 A 0 0 0 0 1 620.5 260.5 L 620.5 90.5 A 3 3 0 0 1 623.5 87.5 Z" fill="#2caffe" filter="none" id="path_6" opacity="1" outline="none" role="img" stroke="#ffffff" stroke-width="1" tabindex="-1" tag_name="svg/g_1/path_6"/></g><g aria-hidden="false" aria-label="Girls, bar series 2 of 2 with 6 bars." clip-path="url(#highcharts-nun5adp-13-)" data-z-index="0.1" id="g" opacity="1" outline="none" role="region" tabindex="-1" tag_name="svg/g" transform="translate(73,51) scale(1 1)"><path aria-label="x, 2018, 26,690. Girls." d="M 71.5 86.5 L 94.5 86.5 A 3 3 0 0 1 97.5 89.5 L 97.5 260.5 A 0 0 0 0 1 97.5 260.5 L 68.5 260.5 A 0 0 0 0 1 68.5 260.5 L 68.5 89.5 A 3 3 0 0 1 71.5 86.5 Z" fill="#544fc5" filter="none" id="path_5" opacity="1" outline="none" role="img" stroke="#ffffff" stroke-width="1" tabindex="-1" tag_name="svg/g/path_5"/><path aria-label="x, 2019, 26,453. Girls." d="M 188.5 88.5 L 211.5 88.5 A 3 3 0 0 1 214.5 91.5 L 214.5 260.5 A 0 0 0 0 1 214.5 260.5 L 185.5 260.5 A 0 0 0 0 1 185.5 260.5 L 185.5 91.5 A 3 3 0 0 1 188.5 88.5 Z" fill="#544fc5" filter="none" id="path_4" opacity="1" outline="none" role="img" stroke="#ffffff" stroke-width="1" tabindex="-1" tag_name="svg/g/path_4"/><path aria-label="x, 2020, 25,916. Girls." d="M 306.5 91.5 L 329.5 91.5 A 3 3 0 0 1 332.5 94.5 L 332.5 260.5 A 0 0 0 0 1 332.5 260.5 L 303.5 260.5 A 0 0 0 0 1 303.5 260.5 L 303.5 94.5 A 3 3 0 0 1 306.5 91.5 Z" fill="rgb(84,79,197)" filter="none" id="path_3" opacity="1" outline="none" role="img" stroke="#ffffff" stroke-width="1" tabindex="-1" tag_name="svg/g/path_3"/><path aria-label="x, 2021, 27,376. Girls." d="M 423.5 82.5 L 446.5 82.5 A 3 3 0 0 1 449.5 85.5 L 449.5 260.5 A 0 0 0 0 1 449.5 260.5 L 420.5 260.5 A 0 0 0 0 1 420.5 260.5 L 420.5 85.5 A 3 3 0 0 1 423.5 82.5 Z" fill="#544fc5" filter="none" id="path_2" opacity="1" outline="none" role="img" stroke="#ffffff" stroke-width="1" tabindex="-1" tag_name="svg/g/path_2"/><path aria-label="x, 2022, 25,035. Girls." d="M 541.5 97.5 L 564.5 97.5 A 3 3 0 0 1 567.5 100.5 L 567.5 260.5 A 0 0 0 0 1 567.5 260.5 L 538.5 260.5 A 0 0 0 0 1 538.5 260.5 L 538.5 100.5 A 3 3 0 0 1 541.5 97.5 Z" fill="#544fc5" filter="none" id="path_1" opacity="1" outline="none" role="img" stroke="#ffffff" stroke-width="1" tabindex="-1" tag_name="svg/g/path_1"/><path aria-label="x, 2023, 25,416. Girls." d="M 658.5 94.5 L 681.5 94.5 A 3 3 0 0 1 684.5 97.5 L 684.5 260.5 A 0 0 0 0 1 684.5 260.5 L 655.5 260.5 A 0 0 0 0 1 655.5 260.5 L 655.5 97.5 A 3 3 0 0 1 658.5 94.5 Z" fill="#544fc5" filter="none" id="path" opacity="1" outline="none" role="img" stroke="#ffffff" stroke-width="1" tabindex="-1" tag_name="svg/g/path"/></g></svg>