<?xml version="1.0" encoding="utf-8"?>
<svg height="340" id="svg" viewBox="0,0,800,300" width="900" xmlns="http://www.w3.org/2000/svg" xmlns:xlink="http://www.w3.org/1999/xlink"><line fill="none" stroke="#333333" stroke-width="2" x1="185.5" x2="580" y1="56.2" y2="56.2"/><line fill="none" stroke="#333333" stroke-width="2" x1="135.5" x2="604.8" y1="131.4" y2="131.4"/><line fill="none" stroke="#333333" stroke-width="2" x1="369.5" x2="662.8" y1="206.5" y2="206.5"/><rect fill="#ff6363" height="32" stroke="#333333" stroke-width="2" width="120.7" x="241.2" y="40"/><rect fill="#e1a3a3" height="32" stroke="#333333" stroke-width="2" width="81.7" x="361.7" y="40"/><rect fill="#ff6363" height="32" stroke="#333333" stroke-width="2" width="244.7" x="157.2" y="115.5"/><rect fill="#e1a3a3" height="32" stroke="#333333" stroke-width="2" width="130.7" x="402.2" y="115.5"/><rect fill="#ff6363" height="32" stroke="#333333" stroke-width="2" width="81.7" x="483.2" y="191.5"/><rect fill="#e1a3a3" height="32" stroke="#333333" stroke-width="2" width="51.7" x="565.2" y="191.5"/><line fill="none" stroke="#333333" stroke-width="2" x1="185" x2="185" y1="47.5" y2="65"/><line fill="none" stroke="#333333" stroke-width="2" x1="134.5" x2="134.5" y1="122.6" y2="140.1"/><line fill="none" stroke="#333333" stroke-width="2" x1="368.5" x2="368.5" y1="197.8" y2="215.3"/><line fill="none" stroke="#333333" stroke-width="2" x1="663.2" x2="663.2" y1="197.7" y2="215.2"/><line fill="none" stroke="#333333" stroke-width="2" x1="605.7" x2="605.7" y1="122.7" y2="140.2"/><line fill="none" stroke="#333333" stroke-width="2" x1="579.9" x2="579.9" y1="47.2" y2="64.7"/></svg>