<?xml version="1.0" encoding="utf-8"?>
<!-- Generator: Adobe Illustrator 21.0.0, SVG Export Plug-In . SVG Version: 6.00 Build 0)  --><svg height="340" id="svg" style="max-width: 100%; height: auto; font: 10px sans-serif;" tag_name="svg" viewBox="-70,-30,880,340" width="900" xmlns="http://www.w3.org/2000/svg" xmlns:xlink="http://www.w3.org/1999/xlink"><g id="g_11" tag_name="svg/g_11"><ellipse class="st0" cx="613" cy="323.5" fill="#0f77ff" fill-opacity="0.8" id="ellipse_50" opacity="0.25" rx="67.5" ry="67" stroke="#11b5f0" tag_name="svg/g_11/ellipse_50"/><ellipse class="st0" cx="302" cy="376" fill="#0f77ff" fill-opacity="0.8" id="ellipse_49" opacity="0.25" rx="100" ry="100" stroke="#11b5f0" tag_name="svg/g_11/ellipse_49"/></g><g id="g" tag_name="svg/g"><ellipse class="st1" cx="190" cy="213.4" fill="#ffffff" id="ellipse_48" rx="20.1" ry="19.8" stroke="#3da8ff" stroke-width="0.75" tag_name="svg/g/ellipse_48"/><ellipse class="st1" cx="651.8" cy="141.9" fill="#ffffff" id="ellipse_47" rx="10.7" ry="10.7" stroke="#3da8ff" stroke-width="0.75" tag_name="svg/g/ellipse_47" transform="matrix(0.9456 -0.3254 0.3254 0.9456 -10.7194 219.8014)"/><ellipse class="st1" cx="633.5" cy="225.7" fill="#ffffff" id="ellipse_46" rx="10.7" ry="10.7" stroke="#3da8ff" stroke-width="0.75" tag_name="svg/g/ellipse_46" transform="matrix(0.9456 -0.3254 0.3254 0.9456 -38.9636 218.4207)"/><ellipse class="st1" cx="664.9" cy="156.5" fill="#ffffff" id="ellipse_45" rx="8.3" ry="8.3" stroke="#3da8ff" stroke-width="0.75" tag_name="svg/g/ellipse_45" transform="matrix(0.9456 -0.3254 0.3254 0.9456 -14.7331 224.8499)"/><ellipse class="st1" cx="667.5" cy="172.2" fill="#ffffff" id="ellipse_44" rx="7.3" ry="7.3" stroke="#3da8ff" stroke-width="0.75" tag_name="svg/g/ellipse_44" transform="matrix(0.9456 -0.3254 0.3254 0.9456 -19.6964 226.5332)"/><ellipse class="st1" cx="666.7" cy="185.4" fill="#ffffff" id="ellipse_43" rx="6" ry="6" stroke="#3da8ff" stroke-width="0.75" tag_name="svg/g/ellipse_43" transform="matrix(0.9456 -0.3254 0.3254 0.9456 -24.058 227.0446)"/><ellipse class="st1" cx="657" cy="192" fill="#ffffff" id="ellipse_42" rx="5.7" ry="5.7" stroke="#3da8ff" stroke-width="0.75" tag_name="svg/g/ellipse_42" transform="matrix(0.9456 -0.3254 0.3254 0.9456 -26.7116 224.2084)"/><ellipse class="st1" cx="645" cy="192.9" fill="#ffffff" id="ellipse_41" rx="5.7" ry="5.7" stroke="#3da8ff" stroke-width="0.75" tag_name="svg/g/ellipse_41" transform="matrix(0.9456 -0.3254 0.3254 0.9456 -27.6757 220.3737)"/><ellipse class="st1" cx="629.1" cy="172.3" fill="#ffffff" id="ellipse_40" rx="5.7" ry="5.7" stroke="#3da8ff" stroke-width="0.75" tag_name="svg/g/ellipse_40" transform="matrix(0.9456 -0.3254 0.3254 0.9456 -21.8352 214.0583)"/><ellipse class="st1" cx="657.2" cy="166.5" fill="#ffffff" id="ellipse_39" rx="3.7" ry="3.7" stroke="#3da8ff" stroke-width="0.75" tag_name="svg/g/ellipse_39" transform="matrix(0.9456 -0.3254 0.3254 0.9456 -18.4122 222.9322)"/><ellipse class="st1" cx="642.7" cy="162.9" fill="#ffffff" id="ellipse_38" rx="2.8" ry="2.8" stroke="#3da8ff" stroke-width="0.75" tag_name="svg/g/ellipse_38" transform="matrix(0.9457 -0.3252 0.3252 0.9457 -18.0253 217.8466)"/><ellipse class="st1" cx="657.4" cy="172.8" fill="#ffffff" id="ellipse_37" rx="2.2" ry="2.2" stroke="#3da8ff" stroke-width="0.75" tag_name="svg/g/ellipse_37" transform="matrix(0.9456 -0.3254 0.3254 0.9456 -20.44 223.3492)"/><ellipse class="st1" cx="650" cy="179.2" fill="#ffffff" id="ellipse_36" rx="2.2" ry="2.2" stroke="#3da8ff" stroke-width="0.75" tag_name="svg/g/ellipse_36" transform="matrix(0.9456 -0.3254 0.3254 0.9456 -22.9456 221.2677)"/><ellipse class="st1" cx="644.6" cy="168.2" fill="#ffffff" id="ellipse_35" rx="2.2" ry="2.2" stroke="#3da8ff" stroke-width="0.75" tag_name="svg/g/ellipse_35" transform="matrix(0.9456 -0.3253 0.3253 0.9456 -19.657 218.8683)"/><ellipse class="st1" cx="639.5" cy="167.2" fill="#ffffff" id="ellipse_34" rx="2.2" ry="2.2" stroke="#3da8ff" stroke-width="0.75" tag_name="svg/g/ellipse_34" transform="matrix(0.9456 -0.3253 0.3253 0.9456 -19.5916 217.144)"/><ellipse class="st1" cx="637.8" cy="172.5" fill="#ffffff" id="ellipse_33" rx="2.2" ry="2.2" stroke="#3da8ff" stroke-width="0.75" tag_name="svg/g/ellipse_33" transform="matrix(0.9456 -0.3253 0.3253 0.9456 -21.4207 216.8854)"/><ellipse class="st1" cx="646.4" cy="174.6" fill="#ffffff" id="ellipse_32" rx="2.2" ry="2.2" stroke="#3da8ff" stroke-width="0.75" tag_name="svg/g/ellipse_32" transform="matrix(0.9456 -0.3253 0.3253 0.9456 -21.6425 219.8205)"/><ellipse class="st1" cx="642" cy="171.4" fill="#ffffff" id="ellipse_31" rx="1.3" ry="1.3" stroke="#3da8ff" stroke-width="0.75" tag_name="svg/g/ellipse_31" transform="matrix(0.9456 -0.3253 0.3253 0.9456 -20.8378 218.1895)"/><ellipse class="st1" cx="634.7" cy="167.6" fill="#ffffff" id="ellipse_30" rx="1.3" ry="1.3" stroke="#3da8ff" stroke-width="0.75" tag_name="svg/g/ellipse_30" transform="matrix(0.9456 -0.3255 0.3255 0.9456 -19.9836 215.683)"/><ellipse class="st1" cx="641.9" cy="175.7" fill="#ffffff" id="ellipse_29" rx="1.3" ry="1.3" stroke="#3da8ff" stroke-width="0.75" tag_name="svg/g/ellipse_29" transform="matrix(0.9456 -0.3253 0.3253 0.9456 -22.2335 218.3838)"/><ellipse class="st1" cx="656.1" cy="183.8" fill="#ffffff" id="ellipse_28" rx="1.3" ry="1.3" stroke="#3da8ff" stroke-width="0.75" tag_name="svg/g/ellipse_28" transform="matrix(0.9456 -0.3253 0.3253 0.9456 -24.1065 223.4406)"/><ellipse class="st1" cx="621.2" cy="228.1" fill="#ffffff" id="ellipse_27" rx="1.3" ry="1.3" stroke="#3da8ff" stroke-width="0.75" tag_name="svg/g/ellipse_27" transform="matrix(0.9456 -0.3253 0.3253 0.9456 -40.4007 214.5124)"/><ellipse class="st1" cx="658.9" cy="179.1" fill="#ffffff" id="ellipse_26" rx="3.7" ry="3.7" stroke="#3da8ff" stroke-width="0.75" tag_name="svg/g/ellipse_26" transform="matrix(0.9456 -0.3254 0.3254 0.9456 -22.4311 224.1639)"/><ellipse class="st1" cx="650.1" cy="185.2" fill="#ffffff" id="ellipse_25" rx="3.7" ry="3.7" stroke="#3da8ff" stroke-width="0.75" tag_name="svg/g/ellipse_25" transform="matrix(0.9456 -0.3254 0.3254 0.9456 -24.8797 221.592)"/><ellipse class="st1" cx="636.3" cy="179.3" fill="#ffffff" id="ellipse_24" rx="4.1" ry="4.1" stroke="#3da8ff" stroke-width="0.75" tag_name="svg/g/ellipse_24" transform="matrix(0.9456 -0.3253 0.3253 0.9456 -23.7008 216.7663)"/><ellipse class="st1" cx="631.4" cy="156.4" fill="#ffffff" id="ellipse_23" rx="3.7" ry="3.7" stroke="#3da8ff" stroke-width="0.75" tag_name="svg/g/ellipse_23" transform="matrix(0.9456 -0.3254 0.3254 0.9456 -16.5239 213.946)"/><ellipse class="st1" cx="628.9" cy="163.2" fill="#ffffff" id="ellipse_22" rx="3" ry="3" stroke="#3da8ff" stroke-width="0.75" tag_name="svg/g/ellipse_22" transform="matrix(0.9456 -0.3253 0.3253 0.9456 -18.8811 213.459)"/><ellipse class="st1" cx="635.7" cy="162.4" fill="#ffffff" id="ellipse_21" rx="3" ry="3" stroke="#3da8ff" stroke-width="0.75" tag_name="svg/g/ellipse_21" transform="matrix(0.9456 -0.3254 0.3254 0.9456 -18.2593 215.7272)"/><ellipse class="st1" cx="650.2" cy="167.7" fill="#ffffff" id="ellipse_20" rx="3" ry="3" stroke="#3da8ff" stroke-width="0.75" tag_name="svg/g/ellipse_20" transform="matrix(0.9456 -0.3254 0.3254 0.9456 -19.174 220.7362)"/><ellipse class="st1" cx="644.5" cy="180.2" fill="#ffffff" id="ellipse_19" rx="3" ry="3" stroke="#3da8ff" stroke-width="0.75" tag_name="svg/g/ellipse_19" transform="matrix(0.9456 -0.3253 0.3253 0.9456 -23.575 219.458)"/><ellipse class="st1" cx="652" cy="173.8" fill="#ffffff" id="ellipse_18" rx="3" ry="3" stroke="#3da8ff" stroke-width="0.75" tag_name="svg/g/ellipse_18" transform="matrix(0.9456 -0.3253 0.3253 0.9456 -21.07 221.5383)"/><ellipse class="st1" cx="640" cy="185.5" fill="#ffffff" id="ellipse_17" rx="3" ry="3" stroke="#3da8ff" stroke-width="0.75" tag_name="svg/g/ellipse_17" transform="matrix(0.9456 -0.3254 0.3254 0.9456 -25.5281 218.3741)"/><ellipse class="st1" cx="650.9" cy="158.8" fill="#ffffff" id="ellipse_16" rx="5.7" ry="5.7" stroke="#3da8ff" stroke-width="0.75" tag_name="svg/g/ellipse_16" transform="matrix(0.9456 -0.3253 0.3253 0.9456 -16.2607 220.3946)"/><ellipse class="st1" cx="640.7" cy="153.9" fill="#ffffff" id="ellipse_15" rx="5.7" ry="5.7" stroke="#3da8ff" stroke-width="0.75" tag_name="svg/g/ellipse_15" transform="matrix(0.9456 -0.3254 0.3254 0.9456 -15.1969 216.8449)"/><ellipse class="st1" cx="579.7" cy="279.9" fill="#ffffff" id="ellipse_14" rx="11.3" ry="11.3" stroke="#3da8ff" stroke-width="0.75" tag_name="svg/g/ellipse_14" transform="matrix(0.1342 -0.991 0.991 0.1342 224.5813 816.774)"/><ellipse class="st1" cx="588.8" cy="311.7" fill="#ffffff" id="ellipse_13" rx="7.4" ry="7.4" stroke="#3da8ff" stroke-width="0.75" tag_name="svg/g/ellipse_13" transform="matrix(0.1341 -0.991 0.991 0.1341 200.9651 853.4176)"/><ellipse class="st1" cx="581.3" cy="298.7" fill="#ffffff" id="ellipse_12" rx="7.4" ry="7.4" stroke="#3da8ff" stroke-width="0.75" tag_name="svg/g/ellipse_12" transform="matrix(0.1341 -0.991 0.991 0.1341 207.3081 834.6556)"/><ellipse class="st1" cx="595.6" cy="272.4" fill="#ffffff" id="ellipse_11" rx="6" ry="6" stroke="#3da8ff" stroke-width="0.75" tag_name="svg/g/ellipse_11" transform="matrix(0.1341 -0.991 0.991 0.1341 245.8303 826.0695)"/><ellipse class="st1" cx="650.3" cy="303.4" fill="#ffffff" id="ellipse_10" rx="6" ry="6" stroke="#3da8ff" stroke-width="0.75" tag_name="svg/g/ellipse_10" transform="matrix(0.1341 -0.991 0.991 0.1341 262.4406 907.0818)"/><ellipse class="st1" cx="605.2" cy="293" fill="#ffffff" id="ellipse_9" rx="17" ry="17" stroke="#3da8ff" stroke-width="0.75" tag_name="svg/g/ellipse_9" transform="matrix(0.1341 -0.991 0.991 0.1341 233.6314 853.4752)"/><ellipse class="st1" cx="579" cy="308.8" fill="#ffffff" id="ellipse_8" rx="2.4" ry="2.4" stroke="#3da8ff" stroke-width="0.75" tag_name="svg/g/ellipse_8" transform="matrix(0.1343 -0.9909 0.9909 0.1343 195.2586 841.0579)"/><ellipse class="st1" cx="573.6" cy="292.3" fill="#ffffff" id="ellipse_7" rx="2.4" ry="2.4" stroke="#3da8ff" stroke-width="0.75" tag_name="svg/g/ellipse_7" transform="matrix(0.1343 -0.9909 0.9909 0.1343 206.8778 821.4474)"/><ellipse class="st1" cx="605.2" cy="273" fill="#ffffff" id="ellipse_6" rx="2.4" ry="2.4" stroke="#3da8ff" stroke-width="0.75" tag_name="svg/g/ellipse_6" transform="matrix(0.1343 -0.9909 0.9909 0.1343 253.4523 836.0894)"/><ellipse class="st1" cx="598.6" cy="312" fill="#ffffff" id="ellipse_5" rx="2.4" ry="2.4" stroke="#3da8ff" stroke-width="0.75" tag_name="svg/g/ellipse_5" transform="matrix(0.1343 -0.9909 0.9909 0.1343 209.0235 863.2402)"/><ellipse class="st1" cx="337.2" cy="291.2" fill="#ffffff" id="ellipse_4" rx="3.3" ry="3.2" stroke="#3da8ff" stroke-width="0.75" tag_name="svg/g/ellipse_4"/><ellipse class="st1" cx="345.2" cy="291.5" fill="#ffffff" id="ellipse_3" rx="3.8" ry="4" stroke="#3da8ff" stroke-width="0.75" tag_name="svg/g/ellipse_3" transform="matrix(2.486900e-02 -0.9997 0.9997 2.486900e-02 45.1716 629.3943)"/><ellipse class="st1" cx="352.2" cy="304.3" fill="#ffffff" id="ellipse_2" rx="3.8" ry="3.8" stroke="#3da8ff" stroke-width="0.75" tag_name="svg/g/ellipse_2" transform="matrix(2.495031e-02 -0.9997 0.9997 2.495031e-02 39.196 648.7827)"/><ellipse class="st1" cx="345.8" cy="299.5" fill="#ffffff" id="ellipse_1" rx="3.5" ry="3.5" stroke="#3da8ff" stroke-width="0.75" tag_name="svg/g/ellipse_1" transform="matrix(2.492874e-02 -0.9997 0.9997 2.492874e-02 37.792 637.7217)"/><ellipse class="st1" cx="334.1" cy="304.7" fill="#ffffff" id="ellipse" rx="3.5" ry="3.5" stroke="#3da8ff" stroke-width="0.75" tag_name="svg/g/ellipse" transform="matrix(2.492877e-02 -0.9997 0.9997 2.492877e-02 21.2099 631.096)"/></g></svg>