<?xml version="1.0" encoding="utf-8"?>
<svg height="600" id="svg" tag_name="svg" version="1.1" width="800" xmlns="http://www.w3.org/2000/svg" xmlns:xlink="http://www.w3.org/1999/xlink">
<text font-family="Arial" font-size="20" font-weight="bold" id="text_18" tag_name="svg/text_18" text-anchor="middle" x="400" y="30">
    Monthly Sales Performance 2023
  </text>
<line id="line_24" stroke="black" stroke-width="2" tag_name="svg/line_24" x1="100" x2="700" y1="500" y2="500"/>
<line id="line_23" stroke="black" stroke-width="2" tag_name="svg/line_23" x1="100" x2="100" y1="500" y2="100"/>
<line id="line_22" stroke="black" stroke-width="2" tag_name="svg/line_22" x1="100" x2="100" y1="500" y2="505"/>
<text font-family="Arial" font-size="12" id="text_17" tag_name="svg/text_17" text-anchor="middle" x="100" y="525">
    2018
  </text>
<line id="line_21" stroke="black" stroke-width="2" tag_name="svg/line_21" x1="200" x2="200" y1="500" y2="505"/>
<text font-family="Arial" font-size="12" id="text_16" tag_name="svg/text_16" text-anchor="middle" x="200" y="525">
    2019
  </text>
<line id="line_20" stroke="black" stroke-width="2" tag_name="svg/line_20" x1="300" x2="300" y1="500" y2="505"/>
<text font-family="Arial" font-size="12" id="text_15" tag_name="svg/text_15" text-anchor="middle" x="300" y="525">
    2020
  </text>
<line id="line_19" stroke="black" stroke-width="2" tag_name="svg/line_19" x1="400" x2="400" y1="500" y2="505"/>
<text font-family="Arial" font-size="12" id="text_14" tag_name="svg/text_14" text-anchor="middle" x="400" y="525">
    2021
  </text>
<line id="line_18" stroke="black" stroke-width="2" tag_name="svg/line_18" x1="500" x2="500" y1="500" y2="505"/>
<text font-family="Arial" font-size="12" id="text_13" tag_name="svg/text_13" text-anchor="middle" x="500" y="525">
    2022
  </text>
<line id="line_17" stroke="black" stroke-width="2" tag_name="svg/line_17" x1="600" x2="600" y1="500" y2="505"/>
<text font-family="Arial" font-size="12" id="text_12" tag_name="svg/text_12" text-anchor="middle" x="600" y="525">
    2023
  </text>
<line id="line_16" stroke="black" stroke-width="2" tag_name="svg/line_16" x1="700" x2="700" y1="500" y2="505"/>
<text font-family="Arial" font-size="12" id="text_11" tag_name="svg/text_11" text-anchor="middle" x="700" y="525">
    2024
  </text>
<line id="line_15" stroke="black" stroke-width="2" tag_name="svg/line_15" x1="95" x2="100" y1="500" y2="500"/>
<text font-family="Arial" font-size="12" id="text_10" tag_name="svg/text_10" text-anchor="end" x="85" y="505">
    0
  </text>
<line id="line_14" stroke="black" stroke-width="2" tag_name="svg/line_14" x1="95" x2="100" y1="420" y2="420"/>
<text font-family="Arial" font-size="12" id="text_9" tag_name="svg/text_9" text-anchor="end" x="85" y="425">
    20
  </text>
<line id="line_13" stroke="black" stroke-width="2" tag_name="svg/line_13" x1="95" x2="100" y1="340" y2="340"/>
<text font-family="Arial" font-size="12" id="text_8" tag_name="svg/text_8" text-anchor="end" x="85" y="345">
    40
  </text>
<line id="line_12" stroke="black" stroke-width="2" tag_name="svg/line_12" x1="95" x2="100" y1="260" y2="260"/>
<text font-family="Arial" font-size="12" id="text_7" tag_name="svg/text_7" text-anchor="end" x="85" y="265">
    60
  </text>
<line id="line_11" stroke="black" stroke-width="2" tag_name="svg/line_11" x1="95" x2="100" y1="180" y2="180"/>
<text font-family="Arial" font-size="12" id="text_6" tag_name="svg/text_6" text-anchor="end" x="85" y="185">
    80
  </text>
<line id="line_10" stroke="black" stroke-width="2" tag_name="svg/line_10" x1="95" x2="100" y1="100" y2="100"/>
<text font-family="Arial" font-size="12" id="text_5" tag_name="svg/text_5" text-anchor="end" x="85" y="105">
    100
  </text>
<text font-family="Arial" font-size="16" id="text_4" tag_name="svg/text_4" text-anchor="middle" x="400" y="555">
    年份
  </text>
<text font-family="Arial" font-size="16" id="text_3" tag_name="svg/text_3" text-anchor="middle" transform="rotate(-90, 45, 300)" x="45" y="300">
    业绩指数
  </text>
<g id="g" stroke="#dddddd" stroke-dasharray="5,5" tag_name="svg/g">
<line id="line_9" tag_name="svg/g/line_9" x1="100" x2="700" y1="420" y2="420"/>
<line id="line_8" tag_name="svg/g/line_8" x1="100" x2="700" y1="340" y2="340"/>
<line id="line_7" tag_name="svg/g/line_7" x1="100" x2="700" y1="260" y2="260"/>
<line id="line_6" tag_name="svg/g/line_6" x1="100" x2="700" y1="180" y2="180"/>
<line id="line_5" tag_name="svg/g/line_5" x1="100" x2="700" y1="100" y2="100"/>
<line id="line_4" tag_name="svg/g/line_4" x1="200" x2="200" y1="100" y2="500"/>
<line id="line_3" tag_name="svg/g/line_3" x1="300" x2="300" y1="100" y2="500"/>
<line id="line_2" tag_name="svg/g/line_2" x1="400" x2="400" y1="100" y2="500"/>
<line id="line_1" tag_name="svg/g/line_1" x1="500" x2="500" y1="100" y2="500"/>
<line id="line" tag_name="svg/g/line" x1="600" x2="600" y1="100" y2="500"/>
</g>
<polyline fill="none" id="polyline" points="         100,350          125,340          150,325          175,300          200,280          225,260          250,245          275,235          300,230          325,240          350,260          375,280          400,270          425,250          450,220          475,190          500,180          525,200          550,230          575,240          600,210          625,190          650,180          675,170          700,165" stroke="#2196F3" stroke-width="2" tag_name="svg/polyline"/>
<circle cx="100" cy="350" fill="#2196F3" id="circle_24" r="4" tag_name="svg/circle_24"/>
<circle cx="125" cy="340" fill="#2196F3" id="circle_23" r="4" tag_name="svg/circle_23"/>
<circle cx="150" cy="325" fill="#2196F3" id="circle_22" r="4" tag_name="svg/circle_22"/>
<circle cx="175" cy="300" fill="#2196F3" id="circle_21" r="4" tag_name="svg/circle_21"/>
<circle cx="200" cy="280" fill="#2196F3" id="circle_20" r="4" tag_name="svg/circle_20"/>
<circle cx="225" cy="260" fill="#2196F3" id="circle_19" r="4" tag_name="svg/circle_19"/>
<circle cx="250" cy="245" fill="#2196F3" id="circle_18" r="4" tag_name="svg/circle_18"/>
<circle cx="275" cy="235" fill="#2196F3" id="circle_17" r="4" tag_name="svg/circle_17"/>
<circle cx="300" cy="230" fill="#2196F3" id="circle_16" r="4" tag_name="svg/circle_16"/>
<circle cx="325" cy="240" fill="#2196F3" id="circle_15" r="4" tag_name="svg/circle_15"/>
<circle cx="350" cy="260" fill="#2196F3" id="circle_14" r="4" tag_name="svg/circle_14"/>
<circle cx="375" cy="280" fill="#2196F3" id="circle_13" r="4" tag_name="svg/circle_13"/>
<circle cx="400" cy="270" fill="#2196F3" id="circle_12" r="4" tag_name="svg/circle_12"/>
<circle cx="425" cy="250" fill="#2196F3" id="circle_11" r="4" tag_name="svg/circle_11"/>
<circle cx="450" cy="220" fill="#2196F3" id="circle_10" r="4" tag_name="svg/circle_10"/>
<circle cx="475" cy="190" fill="#2196F3" id="circle_9" r="4" tag_name="svg/circle_9"/>
<circle cx="500" cy="180" fill="#2196F3" id="circle_8" r="4" tag_name="svg/circle_8"/>
<circle cx="525" cy="200" fill="#2196F3" id="circle_7" r="4" tag_name="svg/circle_7"/>
<circle cx="550" cy="230" fill="#2196F3" id="circle_6" r="4" tag_name="svg/circle_6"/>
<circle cx="575" cy="240" fill="#2196F3" id="circle_5" r="4" tag_name="svg/circle_5"/>
<circle cx="600" cy="210" fill="#2196F3" id="circle_4" r="4" tag_name="svg/circle_4"/>
<circle cx="625" cy="190" fill="#2196F3" id="circle_3" r="4" tag_name="svg/circle_3"/>
<circle cx="650" cy="180" fill="#2196F3" id="circle_2" r="4" tag_name="svg/circle_2"/>
<circle cx="675" cy="170" fill="#2196F3" id="circle_1" r="4" tag_name="svg/circle_1"/>
<circle cx="700" cy="165" fill="#2196F3" id="circle" r="4" tag_name="svg/circle"/>
<rect fill="#1a237e" height="20" id="rect_1" tag_name="svg/rect_1" width="20" x="580" y="50"/>
<text font-family="Arial" font-size="14" id="text_2" tag_name="svg/text_2" x="610" y="65">
    Target
  </text>
<rect fill="#4fc3f7" height="20" id="rect" tag_name="svg/rect" width="20" x="580" y="80"/>
<text font-family="Arial" font-size="14" id="text_1" tag_name="svg/text_1" x="610" y="95">
    Actual
  </text>
<text font-family="Arial" font-size="12" id="text" tag_name="svg/text" text-anchor="middle" x="400" y="550">
    Data Source: Sales Department Monthly Report 2023
  </text>
</svg>