<?xml version="1.0" encoding="utf-8"?>
<svg height="340" id="svg" tag_name="svg" viewBox="0,0,1400,750" width="900" xmlns="http://www.w3.org/2000/svg">
<g id="g" tag_name="svg/g" transform="translate(90,50)">
<g id="g_13" tag_name="svg/g/g_13" transform="translate(0,0)">
<g id="g_15" tag_name="svg/g/g_13/g_15" transform="translate(0,0)">
<rect fill="rgb(105, 72, 183)" height="60.8" id="rect_27" stroke="rgb(105, 72, 183)" stroke-width="0" tag_name="svg/g/g_13/g_15/rect_27" width="49" x="0" y="0"/>
<rect fill="rgb(33, 176, 213)" height="60.8" id="rect_26" stroke="rgb(33, 176, 213)" stroke-width="0" tag_name="svg/g/g_13/g_15/rect_26" width="445" x="49" y="0"/>
<rect fill="rgb(25, 210, 182)" height="60.8" id="rect_25" stroke="rgb(25, 210, 182)" stroke-width="0" tag_name="svg/g/g_13/g_15/rect_25" width="148" x="494" y="0"/>
<rect fill="rgba(175, 240, 91, 1)" height="60.8" id="rect_24" stroke="rgb(175, 240, 91)" stroke-width="0" tag_name="svg/g/g_13/g_15/rect_24" width="544" x="642" y="0"/>
</g>
<g id="g_14" tag_name="svg/g/g_13/g_14" transform="translate(0,24.32)">
<rect fill="rgb(186, 18, 134)" height="12.16" id="rect_23" stroke="rgb(186, 18, 134)" stroke-width="0" tag_name="svg/g/g_13/g_14/rect_23" width="850" x="0" y="0"/>
</g>
</g>
<g id="g_10" tag_name="svg/g/g_10" transform="translate(0,134.8)">
<g id="g_12" tag_name="svg/g/g_10/g_12" transform="translate(0,0)">
<rect fill="rgb(98, 83, 198)" height="60.8" id="rect_22" stroke="rgb(98, 83, 198)" stroke-width="0" tag_name="svg/g/g_10/g_12/rect_22" width="110" x="0" y="0"/>
<rect fill="rgb(95, 86, 201)" height="60.8" id="rect_21" stroke="rgb(95, 86, 201)" stroke-width="0" tag_name="svg/g/g_10/g_12/rect_21" width="15" x="110" y="0"/>
<rect fill="rgb(38, 166, 219)" height="60.8" id="rect_20" stroke="rgb(38, 166, 219)" stroke-width="0" tag_name="svg/g/g_10/g_12/rect_20" width="329" x="125" y="0"/>
<rect fill="rgb(175, 240, 91)" height="60.8" id="rect_19" stroke="rgb(175, 240, 91)" stroke-width="0" tag_name="svg/g/g_10/g_12/rect_19" width="732" x="454" y="0"/>
</g>
<g id="g_11" tag_name="svg/g/g_10/g_11" transform="translate(0,24.32)">
<rect fill="rgb(255, 246, 242)" height="12.16" id="rect_18" stroke="rgb(255, 246, 242)" stroke-width="0" tag_name="svg/g/g_10/g_11/rect_18" width="9" x="0" y="0"/>
<rect fill="rgb(94, 0, 111)" height="12.16" id="rect_17" stroke="rgb(94, 0, 111)" stroke-width="0" tag_name="svg/g/g_10/g_11/rect_17" width="1115" x="9" y="0"/>
</g>
</g>
<g id="g_7" tag_name="svg/g/g_7" transform="translate(0,269.6)">
<g id="g_9" tag_name="svg/g/g_7/g_9" transform="translate(0,0)">
<rect fill="rgb(106, 70, 181)" height="60.8" id="rect_16" stroke="rgb(106, 70, 181)" stroke-width="0" tag_name="svg/g/g_7/g_9/rect_16" width="40" x="0" y="0"/>
<rect fill="rgb(58, 135, 225)" height="60.8" id="rect_15" stroke="rgb(58, 135, 225)" stroke-width="0" tag_name="svg/g/g_7/g_9/rect_15" width="296" x="40" y="0"/>
<rect fill="rgb(54, 140, 225)" height="60.8" id="rect_14" stroke="rgb(54, 140, 225)" stroke-width="0" tag_name="svg/g/g_7/g_9/rect_14" width="20" x="336" y="0"/>
<rect fill="rgb(38, 166, 219)" height="60.8" id="rect_13" stroke="rgb(38, 166, 219)" stroke-width="0" tag_name="svg/g/g_7/g_9/rect_13" width="98" x="356" y="0"/>
<rect fill="rgb(33, 176, 213)" height="60.8" id="rect_12" stroke="rgb(33, 176, 213)" stroke-width="0" tag_name="svg/g/g_7/g_9/rect_12" width="40" x="454" y="0"/>
<rect fill="rgb(40, 234, 141)" height="60.8" id="rect_11" stroke="rgb(40, 234, 141)" stroke-width="0" tag_name="svg/g/g_7/g_9/rect_11" width="296" x="494" y="0"/>
<rect fill="rgb(175, 240, 91)" height="60.8" id="rect_10" stroke="rgb(175, 240, 91)" stroke-width="0" tag_name="svg/g/g_7/g_9/rect_10" width="396" x="790" y="0"/>
</g>
<g id="g_8" tag_name="svg/g/g_7/g_8" transform="translate(0,24.32)">
<rect fill="rgb(253, 225, 222)" height="12.16" id="rect_9" stroke="rgb(253, 225, 222)" stroke-width="0" tag_name="svg/g/g_7/g_8/rect_9" width="138" x="0" y="0"/>
</g>
</g>
<g id="g_4" tag_name="svg/g/g_4" transform="translate(0,404.4)">
<g id="g_6" tag_name="svg/g/g_4/g_6" transform="translate(0,0)">
<rect fill="rgb(98, 83, 198)" height="60.8" id="rect_8" stroke="rgb(98, 83, 198)" stroke-width="0" tag_name="svg/g/g_4/g_6/rect_8" width="109" x="0" y="0"/>
<rect fill="rgb(26, 198, 196)" height="60.8" id="rect_7" stroke="rgb(26, 198, 196)" stroke-width="0" tag_name="svg/g/g_4/g_6/rect_7" width="476" x="109" y="0"/>
<rect fill="rgb(69, 244, 111)" height="60.8" id="rect_6" stroke="rgb(69, 244, 111)" stroke-width="0" tag_name="svg/g/g_4/g_6/rect_6" width="323" x="585" y="0"/>
<rect fill="rgb(175, 240, 91)" height="60.8" id="rect_5" stroke="rgb(175, 240, 91)" stroke-width="0" tag_name="svg/g/g_4/g_6/rect_5" width="278" x="908" y="0"/>
</g>
<g id="g_5" tag_name="svg/g/g_4/g_5" transform="translate(0,24.32)">
<rect fill="rgb(250, 165, 183)" height="12.16" id="rect_4" stroke="rgb(250, 165, 183)" stroke-width="0" tag_name="svg/g/g_4/g_5/rect_4" width="414" x="0" y="0"/>
<rect fill="rgb(245, 113, 165)" height="12.16" id="rect_3" stroke="rgb(245, 113, 165)" stroke-width="0" tag_name="svg/g/g_4/g_5/rect_3" width="156" x="414" y="0"/>
</g>
</g>
<g id="g_1" tag_name="svg/g/g_1" transform="translate(0,539.2)">
<g id="g_3" tag_name="svg/g/g_1/g_3" transform="translate(0,0)">
<rect fill="rgb(90, 246, 99)" height="60.8" id="rect_2" stroke="rgb(90, 246, 99)" stroke-width="0" tag_name="svg/g/g_1/g_3/rect_2" width="970" x="0" y="0"/>
<rect fill="rgb(175, 240, 91)" height="60.8" id="rect_1" stroke="rgb(175, 240, 91)" stroke-width="0" tag_name="svg/g/g_1/g_3/rect_1" width="216" x="970" y="0"/>
</g>
<g id="g_2" tag_name="svg/g/g_1/g_2" transform="translate(0,24.32)">
<rect fill="rgb(253, 211, 208)" height="12.16" id="rect" stroke="rgb(253, 211, 208)" stroke-width="0" tag_name="svg/g/g_1/g_2/rect" width="216" x="0" y="0"/>
</g>
<line fill="none" id="line_1" stroke="rgb(84, 0, 109)" stroke-width="5" tag_name="svg/g/g_1/line_1" transform="rotate(0, 1151, 30.4)" x1="1151" x2="1151" y1="12.16" y2="48.64"/>
<line fill="none" id="line" stroke="rgb(223, 61, 151)" stroke-width="5" tag_name="svg/g/g_1/line" transform="rotate(0, 716, 30.4)" x1="716" x2="716" y1="12.16" y2="48.64"/>
</g>
</g>
</svg>