<?xml version="1.0" encoding="utf-8"?>
<svg aria-hidden="false" aria-label="Interactive chart" class="highcharts-root" height="400" style="font-family: -apple-system, BlinkMacSystemFont, " xmlns="http://www.w3.org/2000/svg" xmlns:xlink="http://www.w3.org/1999/xlink">Segoe UI", Roboto, Helvetica, Arial, "Apple Color Emoji", "Segoe UI Emoji", "Segoe UI Symbol", sans-serif; font-size: 1rem;" version="1.1" viewBox="0 0 600 400" width="600" id="svg" tag_name="svg"&gt;
  <desc aria-hidden="true" id="desc" tag_name="svg/desc">
    Created with Highcharts 12.1.2
  </desc>
<defs aria-hidden="true" id="defs" tag_name="svg/defs">
<filter id="filter" tag_name="svg/defs/filter">
<fedropshadow dx="1" dy="1" flood-color="#000000" flood-opacity="0.75" id="fedropshadow" stdDeviation="2.5" tag_name="svg/defs/filter/fedropshadow"/>
</filter>
<clippath id="clipPath" tag_name="svg/defs/clipPath">
<rect fill="none" height="285" id="rect_7" tag_name="svg/defs/clipPath/rect_7" width="443" x="0" y="0"/>
</clippath>
</defs>
<rect aria-hidden="true" class="highcharts-background" fill="#ffffff" filter="none" height="400" id="rect_6" rx="0" ry="0" tag_name="svg/rect_6" width="600" x="0" y="0"/>
<rect aria-hidden="true" class="highcharts-plot-background" fill="none" filter="none" height="285" id="rect_5" tag_name="svg/rect_5" width="443" x="66" y="68"/>
<g aria-hidden="true" class="highcharts-grid highcharts-xaxis-grid" data-z-index="1" id="g_18" tag_name="svg/g_18">
<path class="highcharts-grid-line" d="M 213.5 68 L 213.5 353" data-z-index="1" fill="none" id="path_21" opacity="1" stroke="#e6e6e6" stroke-dasharray="none" stroke-width="0" tag_name="svg/g_18/path_21"/>
<path class="highcharts-grid-line" d="M 361.5 68 L 361.5 353" data-z-index="1" fill="none" id="path_20" opacity="1" stroke="#e6e6e6" stroke-dasharray="none" stroke-width="0" tag_name="svg/g_18/path_20"/>
<path class="highcharts-grid-line" d="M 509.5 68 L 509.5 353" data-z-index="1" fill="none" id="path_19" opacity="1" stroke="#e6e6e6" stroke-dasharray="none" stroke-width="0" tag_name="svg/g_18/path_19"/>
<path class="highcharts-grid-line" d="M 66.5 68 L 66.5 353" data-z-index="1" fill="none" id="path_18" opacity="1" stroke="#e6e6e6" stroke-dasharray="none" stroke-width="0" tag_name="svg/g_18/path_18"/>
</g>
<g aria-hidden="true" class="highcharts-grid highcharts-yaxis-grid" data-z-index="1" id="g_17" tag_name="svg/g_17">
<path class="highcharts-grid-line" d="M 66 353.5 L 509 353.5" data-z-index="1" fill="none" id="path_17" opacity="1" stroke="#e6e6e6" stroke-dasharray="none" stroke-width="1" tag_name="svg/g_17/path_17"/>
<path class="highcharts-grid-line" d="M 66 305.5 L 509 305.5" data-z-index="1" fill="none" id="path_16" opacity="1" stroke="#e6e6e6" stroke-dasharray="none" stroke-width="1" tag_name="svg/g_17/path_16"/>
<path class="highcharts-grid-line" d="M 66 258.5 L 509 258.5" data-z-index="1" fill="none" id="path_15" opacity="1" stroke="#e6e6e6" stroke-dasharray="none" stroke-width="1" tag_name="svg/g_17/path_15"/>
<path class="highcharts-grid-line" d="M 66 210.5 L 509 210.5" data-z-index="1" fill="none" id="path_14" opacity="1" stroke="#e6e6e6" stroke-dasharray="none" stroke-width="1" tag_name="svg/g_17/path_14"/>
<path class="highcharts-grid-line" d="M 66 163.5 L 509 163.5" data-z-index="1" fill="none" id="path_13" opacity="1" stroke="#e6e6e6" stroke-dasharray="none" stroke-width="1" tag_name="svg/g_17/path_13"/>
<path class="highcharts-grid-line" d="M 66 115.5 L 509 115.5" data-z-index="1" fill="none" id="path_12" opacity="1" stroke="#e6e6e6" stroke-dasharray="none" stroke-width="1" tag_name="svg/g_17/path_12"/>
<path class="highcharts-grid-line" d="M 66 68.5 L 509 68.5" data-z-index="1" fill="none" id="path_11" opacity="1" stroke="#e6e6e6" stroke-dasharray="none" stroke-width="1" tag_name="svg/g_17/path_11"/>
</g>
<rect aria-hidden="true" class="highcharts-plot-border" data-z-index="1" fill="none" height="285" id="rect_4" stroke="#cccccc" stroke-width="0" tag_name="svg/rect_4" width="443" x="66" y="68"/>
<g aria-hidden="true" class="highcharts-axis highcharts-xaxis" data-z-index="2" id="g_16" tag_name="svg/g_16">
<path class="highcharts-axis-line" d="M 66 353.5 L 509 353.5" data-z-index="7" fill="none" id="path_10" stroke="#333333" stroke-width="1" tag_name="svg/g_16/path_10"/>
</g>
<g aria-hidden="true" class="highcharts-axis highcharts-yaxis" data-z-index="2" id="g_15" tag_name="svg/g_15">
<text class="highcharts-axis-title" data-z-index="7" id="text_17" style="color: rgb(102, 102, 102); font-size: 0.8em; fill: rgb(102, 102, 102);" tag_name="svg/g_15/text_17" text-anchor="middle" transform="translate(0,0) rotate(270 25.655563354492188 210.5)" x="25.655563354492188" y="210.5">
      Amount
    </text>
<path class="highcharts-axis-line" d="M 66 68 L 66 353" data-z-index="7" fill="none" id="path_9" stroke="#333333" stroke-width="0" tag_name="svg/g_15/path_9"/>
</g>
<g aria-hidden="false" class="highcharts-series-group" data-z-index="3" filter="none" id="g_8" tag_name="svg/g_8">
<g aria-hidden="false" aria-label="Ava, bar series 1 of 3 with 3 bars." class="highcharts-series highcharts-series-0 highcharts-column-series highcharts-color-0" clip-path="url(#highcharts-yqlyeno-36-)" data-z-index="0.1" id="g_14" opacity="1" role="region" style="outline: none;" tabindex="-1" tag_name="svg/g_8/g_14" transform="translate(66,68) scale(1 1)">
<path aria-label="2021, 34. Ava." class="highcharts-point highcharts-color-0" d="M 35.5 123.5 L 53.5 123.5 A 3 3 0 0 1 56.5 126.5 L 56.5 285.5 A 0 0 0 0 1 56.5 285.5 L 32.5 285.5 A 0 0 0 0 1 32.5 285.5 L 32.5 126.5 A 3 3 0 0 1 35.5 123.5 Z" fill="#2caffe" filter="none" id="path_8" opacity="1" role="img" stroke="#ffffff" stroke-width="1" style="outline: none;" tabindex="-1" tag_name="svg/g_8/g_14/path_8"/>
<path aria-label="2022, 39. Ava." class="highcharts-point highcharts-color-0" d="M 183.5 99.5 L 201.5 99.5 A 3 3 0 0 1 204.5 102.5 L 204.5 285.5 A 0 0 0 0 1 204.5 285.5 L 180.5 285.5 A 0 0 0 0 1 180.5 285.5 L 180.5 102.5 A 3 3 0 0 1 183.5 99.5 Z" fill="#2caffe" filter="none" id="path_7" opacity="1" role="img" stroke="#ffffff" stroke-width="1" style="outline: none;" tabindex="-1" tag_name="svg/g_8/g_14/path_7"/>
<path aria-label="2023, 53. Ava." class="highcharts-point highcharts-color-0" d="M 330.5 33.5 L 348.5 33.5 A 3 3 0 0 1 351.5 36.5 L 351.5 285.5 A 0 0 0 0 1 351.5 285.5 L 327.5 285.5 A 0 0 0 0 1 327.5 285.5 L 327.5 36.5 A 3 3 0 0 1 330.5 33.5 Z" fill="#2caffe" filter="none" id="path_6" opacity="1" role="img" stroke="#ffffff" stroke-width="1" style="outline: none;" tabindex="-1" tag_name="svg/g_8/g_14/path_6"/>
</g>
<g aria-hidden="true" class="highcharts-markers highcharts-series-0 highcharts-column-series highcharts-color-0" clip-path="none" data-z-index="0.1" id="g_13" opacity="1" tag_name="svg/g_8/g_13" transform="translate(66,68) scale(1 1)"/>
<g aria-hidden="false" aria-label="Dina, bar series 2 of 3 with 3 bars." class="highcharts-series highcharts-series-1 highcharts-column-series highcharts-color-1" clip-path="url(#highcharts-yqlyeno-36-)" data-z-index="0.1" id="g_12" opacity="1" role="region" style="outline: none;" tabindex="-1" tag_name="svg/g_8/g_12" transform="translate(66,68) scale(1 1)">
<path aria-label="2021, 27. Dina." class="highcharts-point highcharts-color-1" d="M 65.5 156.5 L 83.5 156.5 A 3 3 0 0 1 86.5 159.5 L 86.5 285.5 A 0 0 0 0 1 86.5 285.5 L 62.5 285.5 A 0 0 0 0 1 62.5 285.5 L 62.5 159.5 A 3 3 0 0 1 65.5 156.5 Z" fill="#544fc5" filter="none" id="path_5" opacity="1" role="img" stroke="#ffffff" stroke-width="1" style="outline: none;" tabindex="-1" tag_name="svg/g_8/g_12/path_5"/>
<path aria-label="2022, 21. Dina." class="highcharts-point highcharts-color-1" d="M 212.5 185.5 L 230.5 185.5 A 3 3 0 0 1 233.5 188.5 L 233.5 285.5 A 0 0 0 0 1 233.5 285.5 L 209.5 285.5 A 0 0 0 0 1 209.5 285.5 L 209.5 188.5 A 3 3 0 0 1 212.5 185.5 Z" fill="#544fc5" filter="none" id="path_4" opacity="1" role="img" stroke="#ffffff" stroke-width="1" style="outline: none;" tabindex="-1" tag_name="svg/g_8/g_12/path_4"/>
<path aria-label="2023, 22. Dina." class="highcharts-point highcharts-color-1" d="M 360.5 180.5 L 378.5 180.5 A 3 3 0 0 1 381.5 183.5 L 381.5 285.5 A 0 0 0 0 1 381.5 285.5 L 357.5 285.5 A 0 0 0 0 1 357.5 285.5 L 357.5 183.5 A 3 3 0 0 1 360.5 180.5 Z" fill="#544fc5" filter="none" id="path_3" opacity="1" role="img" stroke="#ffffff" stroke-width="1" style="outline: none;" tabindex="-1" tag_name="svg/g_8/g_12/path_3"/>
</g>
<g aria-hidden="true" class="highcharts-markers highcharts-series-1 highcharts-column-series highcharts-color-1" clip-path="none" data-z-index="0.1" id="g_11" opacity="1" tag_name="svg/g_8/g_11" transform="translate(66,68) scale(1 1)"/>
<g aria-hidden="false" aria-label="Malin, bar series 3 of 3 with 3 bars." class="highcharts-series highcharts-series-2 highcharts-column-series highcharts-color-2" clip-path="url(#highcharts-yqlyeno-36-)" data-z-index="0.1" id="g_10" opacity="1" role="region" style="outline: none;" tabindex="-1" tag_name="svg/g_8/g_10" transform="translate(66,68) scale(1 1)">
<path aria-label="2021, 41. Malin." class="highcharts-point highcharts-color-2" d="M 94.5 90.5 L 112.5 90.5 A 3 3 0 0 1 115.5 93.5 L 115.5 285.5 A 0 0 0 0 1 115.5 285.5 L 91.5 285.5 A 0 0 0 0 1 91.5 285.5 L 91.5 93.5 A 3 3 0 0 1 94.5 90.5 Z" fill="#00e272" filter="none" id="path_2" opacity="1" role="img" stroke="#ffffff" stroke-width="1" style="outline: none;" tabindex="-1" tag_name="svg/g_8/g_10/path_2"/>
<path aria-label="2022, 34. Malin." class="highcharts-point highcharts-color-2" d="M 242.5 123.5 L 260.5 123.5 A 3 3 0 0 1 263.5 126.5 L 263.5 285.5 A 0 0 0 0 1 263.5 285.5 L 239.5 285.5 A 0 0 0 0 1 239.5 285.5 L 239.5 126.5 A 3 3 0 0 1 242.5 123.5 Z" fill="#00e272" filter="none" id="path_1" opacity="1" role="img" stroke="#ffffff" stroke-width="1" style="outline: none;" tabindex="-1" tag_name="svg/g_8/g_10/path_1"/>
<path aria-label="2023, 32. Malin." class="highcharts-point highcharts-color-2" d="M 389.5 133.5 L 407.5 133.5 A 3 3 0 0 1 410.5 136.5 L 410.5 285.5 A 0 0 0 0 1 410.5 285.5 L 386.5 285.5 A 0 0 0 0 1 386.5 285.5 L 386.5 136.5 A 3 3 0 0 1 389.5 133.5 Z" fill="#00e272" filter="none" id="path" opacity="1" role="img" stroke="#ffffff" stroke-width="1" style="outline: none;" tabindex="-1" tag_name="svg/g_8/g_10/path"/>
</g>
<g aria-hidden="true" class="highcharts-markers highcharts-series-2 highcharts-column-series highcharts-color-2" clip-path="none" data-z-index="0.1" id="g_9" opacity="1" tag_name="svg/g_8/g_9" transform="translate(66,68) scale(1 1)"/>
</g>
<text aria-hidden="true" class="highcharts-title" data-z-index="4" id="text_16" style="font-size: 1.2em; color: rgb(51, 51, 51); font-weight: bold; fill: rgb(51, 51, 51);" tag_name="svg/text_16" text-anchor="middle" transform="translate(0,0) scale(1 1)" transform-origin="138.71951293945312 22" x="300" y="25">
    Born persons, by girls" name
  </text>
<text aria-hidden="true" class="highcharts-subtitle" data-z-index="4" id="text_15" style="color: rgb(102, 102, 102); font-size: 0.8em; fill: rgb(102, 102, 102);" tag_name="svg/text_15" text-anchor="middle" transform="translate(0,0) scale(1 1)" transform-origin="166.8012237548828 15" x="300" y="50">
    Resize the frame or click buttons to change appearance
  </text>
<text aria-hidden="true" class="highcharts-caption" data-z-index="4" id="text_14" style="color: rgb(102, 102, 102); font-size: 0.8em; fill: rgb(102, 102, 102);" tag_name="svg/text_14" text-anchor="start" transform="translate(0,0) scale(1 1)" transform-origin="10 15" x="10" y="397"/>
<g aria-hidden="true" class="highcharts-legend highcharts-no-tooltip" data-z-index="7" id="g_2" tag_name="svg/g_2" transform="translate(521,164)">
<rect class="highcharts-legend-box" fill="none" filter="none" height="68" id="rect_3" rx="0" ry="0" stroke="#999999" stroke-width="0" tag_name="svg/g_2/rect_3" width="69" x="0" y="0"/>
<g data-z-index="1" id="g_3" tag_name="svg/g_2/g_3">
<g id="g_4" tag_name="svg/g_2/g_3/g_4">
<g class="highcharts-legend-item highcharts-column-series highcharts-color-0 highcharts-series-0" data-z-index="1" id="g_7" tag_name="svg/g_2/g_3/g_4/g_7" transform="translate(8,3)">
<text data-z-index="2" id="text_13" style="color: rgb(51, 51, 51); cursor: pointer; font-size: 0.8em; text-decoration: none; fill: rgb(51, 51, 51);" tag_name="svg/g_2/g_3/g_4/g_7/text_13" text-anchor="start" x="21" y="17">
            Ava
          </text>
<rect class="highcharts-point" data-z-index="3" fill="#2caffe" height="12" id="rect_2" rx="6" ry="6" tag_name="svg/g_2/g_3/g_4/g_7/rect_2" width="12" x="2" y="6"/>
</g>
<g class="highcharts-legend-item highcharts-column-series highcharts-color-1 highcharts-series-1" data-z-index="1" id="g_6" tag_name="svg/g_2/g_3/g_4/g_6" transform="translate(8,22)">
<text data-z-index="2" id="text_12" style="color: rgb(51, 51, 51); cursor: pointer; font-size: 0.8em; text-decoration: none; fill: rgb(51, 51, 51);" tag_name="svg/g_2/g_3/g_4/g_6/text_12" text-anchor="start" x="21" y="17">
            Dina
          </text>
<rect class="highcharts-point" data-z-index="3" fill="#544fc5" height="12" id="rect_1" rx="6" ry="6" tag_name="svg/g_2/g_3/g_4/g_6/rect_1" width="12" x="2" y="6"/>
</g>
<g class="highcharts-legend-item highcharts-column-series highcharts-color-2 highcharts-series-2" data-z-index="1" id="g_5" tag_name="svg/g_2/g_3/g_4/g_5" transform="translate(8,41)">
<text data-z-index="2" id="text_11" style="color: rgb(51, 51, 51); cursor: pointer; font-size: 0.8em; text-decoration: none; fill: rgb(51, 51, 51);" tag_name="svg/g_2/g_3/g_4/g_5/text_11" text-anchor="start" x="21" y="17">
            Malin
          </text>
<rect class="highcharts-point" data-z-index="3" fill="#00e272" height="12" id="rect" rx="6" ry="6" tag_name="svg/g_2/g_3/g_4/g_5/rect" width="12" x="2" y="6"/>
</g>
</g>
</g>
</g>
<g aria-hidden="true" class="highcharts-axis-labels highcharts-xaxis-labels" data-z-index="7" id="g_1" tag_name="svg/g_1">
<text id="text_10" opacity="1" style="color: rgb(51, 51, 51); cursor: default; font-size: 0.8em; fill: rgb(51, 51, 51);" tag_name="svg/g_1/text_10" text-anchor="middle" transform="translate(0,0)" x="129.83333333333667" y="380">
      2021
    </text>
<text id="text_9" opacity="1" style="color: rgb(51, 51, 51); cursor: default; font-size: 0.8em; fill: rgb(51, 51, 51);" tag_name="svg/g_1/text_9" text-anchor="middle" transform="translate(0,0)" x="277.4999999999967" y="380">
      2022
    </text>
<text id="text_8" opacity="1" style="color: rgb(51, 51, 51); cursor: default; font-size: 0.8em; fill: rgb(51, 51, 51);" tag_name="svg/g_1/text_8" text-anchor="middle" transform="translate(0,0)" x="425.1666666666667" y="380">
      2023
    </text>
</g>
<g aria-hidden="true" class="highcharts-axis-labels highcharts-yaxis-labels" data-z-index="7" id="g" tag_name="svg/g">
<text id="text_7" opacity="1" style="color: rgb(51, 51, 51); cursor: default; font-size: 0.8em; fill: rgb(51, 51, 51);" tag_name="svg/g/text_7" text-anchor="end" transform="translate(0,0)" x="51" y="357">
      0
    </text>
<text id="text_6" opacity="1" style="color: rgb(51, 51, 51); cursor: default; font-size: 0.8em; fill: rgb(51, 51, 51);" tag_name="svg/g/text_6" text-anchor="end" transform="translate(0,0)" x="51" y="309">
      10
    </text>
<text id="text_5" opacity="1" style="color: rgb(51, 51, 51); cursor: default; font-size: 0.8em; fill: rgb(51, 51, 51);" tag_name="svg/g/text_5" text-anchor="end" transform="translate(0,0)" x="51" y="262">
      20
    </text>
<text id="text_4" opacity="1" style="color: rgb(51, 51, 51); cursor: default; font-size: 0.8em; fill: rgb(51, 51, 51);" tag_name="svg/g/text_4" text-anchor="end" transform="translate(0,0)" x="51" y="214">
      30
    </text>
<text id="text_3" opacity="1" style="color: rgb(51, 51, 51); cursor: default; font-size: 0.8em; fill: rgb(51, 51, 51);" tag_name="svg/g/text_3" text-anchor="end" transform="translate(0,0)" x="51" y="167">
      40
    </text>
<text id="text_2" opacity="1" style="color: rgb(51, 51, 51); cursor: default; font-size: 0.8em; fill: rgb(51, 51, 51);" tag_name="svg/g/text_2" text-anchor="end" transform="translate(0,0)" x="51" y="119">
      50
    </text>
<text id="text_1" opacity="1" style="color: rgb(51, 51, 51); cursor: default; font-size: 0.8em; fill: rgb(51, 51, 51);" tag_name="svg/g/text_1" text-anchor="end" transform="translate(0,0)" x="51" y="72">
      60
    </text>
</g>
<text aria-hidden="false" aria-label="Chart credits: Highcharts.com" class="highcharts-credits" data-z-index="8" id="text" style="cursor: pointer; color: rgb(153, 153, 153); font-size: 0.6em; fill: rgb(153, 153, 153);" tag_name="svg/text" text-anchor="end" x="590" y="395">
    Highcharts.com
  </text>
</svg>