<?xml version="1.0" encoding="utf-8"?>
<svg baseProfile="full" height="1105" id="svg" style="position: absolute; left: 0px; top: 0px; user-select: none;" tag_name="svg" version="1.1" width="1486" xmlns="http://www.w3.org/2000/svg" xmlns:xlink="http://www.w3.org/1999/xlink">
<text font-family="Arial" font-size="20" font-weight="bold" id="text_14" tag_name="svg/text_14" text-anchor="middle" x="400" y="30">
    Quality Control Data Analysis - Scatterplot of Product Dimensions
  </text>
<line id="line_22" stroke="black" stroke-width="2" tag_name="svg/line_22" x1="100" x2="700" y1="500" y2="500"/>
<line id="line_21" stroke="black" stroke-width="2" tag_name="svg/line_21" x1="100" x2="100" y1="500" y2="100"/>
<line id="line_20" stroke="black" stroke-width="2" tag_name="svg/line_20" x1="100" x2="100" y1="500" y2="505"/>
<text font-family="Arial" font-size="12" id="text_13" tag_name="svg/text_13" text-anchor="middle" x="100" y="525">
    0
  </text>
<line id="line_19" stroke="black" stroke-width="2" tag_name="svg/line_19" x1="220" x2="220" y1="500" y2="505"/>
<text font-family="Arial" font-size="12" id="text_12" tag_name="svg/text_12" text-anchor="middle" x="220" y="525">
    20
  </text>
<line id="line_18" stroke="black" stroke-width="2" tag_name="svg/line_18" x1="340" x2="340" y1="500" y2="505"/>
<text font-family="Arial" font-size="12" id="text_11" tag_name="svg/text_11" text-anchor="middle" x="340" y="525">
    40
  </text>
<line id="line_17" stroke="black" stroke-width="2" tag_name="svg/line_17" x1="460" x2="460" y1="500" y2="505"/>
<text font-family="Arial" font-size="12" id="text_10" tag_name="svg/text_10" text-anchor="middle" x="460" y="525">
    60
  </text>
<line id="line_16" stroke="black" stroke-width="2" tag_name="svg/line_16" x1="580" x2="580" y1="500" y2="505"/>
<text font-family="Arial" font-size="12" id="text_9" tag_name="svg/text_9" text-anchor="middle" x="580" y="525">
    80
  </text>
<line id="line_15" stroke="black" stroke-width="2" tag_name="svg/line_15" x1="700" x2="700" y1="500" y2="505"/>
<text font-family="Arial" font-size="12" id="text_8" tag_name="svg/text_8" text-anchor="middle" x="700" y="525">
    100
  </text>
<line id="line_14" stroke="black" stroke-width="2" tag_name="svg/line_14" x1="95" x2="100" y1="500" y2="500"/>
<text font-family="Arial" font-size="12" id="text_7" tag_name="svg/text_7" text-anchor="end" x="85" y="505">
    0
  </text>
<line id="line_13" stroke="black" stroke-width="2" tag_name="svg/line_13" x1="95" x2="100" y1="420" y2="420"/>
<text font-family="Arial" font-size="12" id="text_6" tag_name="svg/text_6" text-anchor="end" x="85" y="425">
    20
  </text>
<line id="line_12" stroke="black" stroke-width="2" tag_name="svg/line_12" x1="95" x2="100" y1="340" y2="340"/>
<text font-family="Arial" font-size="12" id="text_5" tag_name="svg/text_5" text-anchor="end" x="85" y="345">
    40
  </text>
<line id="line_11" stroke="black" stroke-width="2" tag_name="svg/line_11" x1="95" x2="100" y1="260" y2="260"/>
<text font-family="Arial" font-size="12" id="text_4" tag_name="svg/text_4" text-anchor="end" x="85" y="265">
    60
  </text>
<line id="line_10" stroke="black" stroke-width="2" tag_name="svg/line_10" x1="95" x2="100" y1="180" y2="180"/>
<text font-family="Arial" font-size="12" id="text_3" tag_name="svg/text_3" text-anchor="end" x="85" y="185">
    80
  </text>
<line id="line_9" stroke="black" stroke-width="2" tag_name="svg/line_9" x1="95" x2="100" y1="100" y2="100"/>
<text font-family="Arial" font-size="12" id="text_2" tag_name="svg/text_2" text-anchor="end" x="85" y="105">
    100
  </text>
<text font-family="Arial" font-size="16" id="text_1" tag_name="svg/text_1" text-anchor="middle" x="400" y="555">
    Length (mm)
  </text>
<text font-family="Arial" font-size="16" id="text" tag_name="svg/text" text-anchor="middle" transform="rotate(-90, 45, 300)" x="45" y="300">
    Diameter (mm)
  </text>
<g id="g" stroke="#dddddd" stroke-dasharray="5,5" tag_name="svg/g">
<line id="line_8" tag_name="svg/g/line_8" x1="100" x2="700" y1="420" y2="420"/>
<line id="line_7" tag_name="svg/g/line_7" x1="100" x2="700" y1="340" y2="340"/>
<line id="line_6" tag_name="svg/g/line_6" x1="100" x2="700" y1="260" y2="260"/>
<line id="line_5" tag_name="svg/g/line_5" x1="100" x2="700" y1="180" y2="180"/>
<line id="line_4" tag_name="svg/g/line_4" x1="100" x2="700" y1="100" y2="100"/>
<line id="line_3" tag_name="svg/g/line_3" x1="220" x2="220" y1="100" y2="500"/>
<line id="line_2" tag_name="svg/g/line_2" x1="340" x2="340" y1="100" y2="500"/>
<line id="line_1" tag_name="svg/g/line_1" x1="460" x2="460" y1="100" y2="500"/>
<line id="line" tag_name="svg/g/line" x1="580" x2="580" y1="100" y2="500"/>
</g>
<circle cx="145" cy="305" fill="#3498db" id="circle_37" r="5" tag_name="svg/circle_37"/>
<circle cx="162" cy="323" fill="#3498db" id="circle_36" r="5" tag_name="svg/circle_36"/>
<circle cx="176" cy="287" fill="#3498db" id="circle_35" r="5" tag_name="svg/circle_35"/>
<circle cx="195" cy="312" fill="#3498db" id="circle_34" r="5" tag_name="svg/circle_34"/>
<circle cx="213" cy="294" fill="#3498db" id="circle_33" r="5" tag_name="svg/circle_33"/>
<circle cx="229" cy="301" fill="#3498db" id="circle_32" r="5" tag_name="svg/circle_32"/>
<circle cx="243" cy="288" fill="#3498db" id="circle_31" r="5" tag_name="svg/circle_31"/>
<circle cx="264" cy="307" fill="#3498db" id="circle_30" r="5" tag_name="svg/circle_30"/>
<circle cx="275" cy="292" fill="#3498db" id="circle_29" r="5" tag_name="svg/circle_29"/>
<circle cx="290" cy="315" fill="#3498db" id="circle_28" r="5" tag_name="svg/circle_28"/>
<circle cx="312" cy="286" fill="#3498db" id="circle_27" r="5" tag_name="svg/circle_27"/>
<circle cx="327" cy="308" fill="#3498db" id="circle_26" r="5" tag_name="svg/circle_26"/>
<circle cx="345" cy="298" fill="#3498db" id="circle_25" r="5" tag_name="svg/circle_25"/>
<circle cx="362" cy="312" fill="#3498db" id="circle_24" r="5" tag_name="svg/circle_24"/>
<circle cx="374" cy="289" fill="#3498db" id="circle_23" r="5" tag_name="svg/circle_23"/>
<circle cx="392" cy="302" fill="#3498db" id="circle_22" r="5" tag_name="svg/circle_22"/>
<circle cx="407" cy="293" fill="#3498db" id="circle_21" r="5" tag_name="svg/circle_21"/>
<circle cx="424" cy="309" fill="#3498db" id="circle_20" r="5" tag_name="svg/circle_20"/>
<circle cx="437" cy="287" fill="#3498db" id="circle_19" r="5" tag_name="svg/circle_19"/>
<circle cx="452" cy="302" fill="#3498db" id="circle_18" r="5" tag_name="svg/circle_18"/>
<circle cx="468" cy="298" fill="#3498db" id="circle_17" r="5" tag_name="svg/circle_17"/>
<circle cx="481" cy="314" fill="#3498db" id="circle_16" r="5" tag_name="svg/circle_16"/>
<circle cx="497" cy="293" fill="#3498db" id="circle_15" r="5" tag_name="svg/circle_15"/>
<circle cx="514" cy="306" fill="#3498db" id="circle_14" r="5" tag_name="svg/circle_14"/>
<circle cx="527" cy="288" fill="#3498db" id="circle_13" r="5" tag_name="svg/circle_13"/>
<circle cx="539" cy="302" fill="#3498db" id="circle_12" r="5" tag_name="svg/circle_12"/>
<circle cx="553" cy="297" fill="#3498db" id="circle_11" r="5" tag_name="svg/circle_11"/>
<circle cx="573" cy="310" fill="#3498db" id="circle_10" r="5" tag_name="svg/circle_10"/>
<circle cx="591" cy="290" fill="#3498db" id="circle_9" r="5" tag_name="svg/circle_9"/>
<circle cx="608" cy="304" fill="#3498db" id="circle_8" r="5" tag_name="svg/circle_8"/>
<circle cx="624" cy="287" fill="#3498db" id="circle_7" r="5" tag_name="svg/circle_7"/>
<circle cx="644" cy="295" fill="#3498db" id="circle_6" r="5" tag_name="svg/circle_6"/>
<circle cx="658" cy="306" fill="#3498db" id="circle_5" r="5" tag_name="svg/circle_5"/>
<circle cx="280" cy="180" fill="#3498db" id="circle_4" r="5" tag_name="svg/circle_4"/>
<circle cx="310" cy="165" fill="#3498db" id="circle_3" r="5" tag_name="svg/circle_3"/>
<circle cx="295" cy="175" fill="#3498db" id="circle_2" r="5" tag_name="svg/circle_2"/>
<circle cx="325" cy="170" fill="#3498db" id="circle_1" r="5" tag_name="svg/circle_1"/>
<circle cx="340" cy="160" fill="#3498db" id="circle" r="5" tag_name="svg/circle"/>
</svg>