<?xml version="1.0" encoding="utf-8"?>
<svg height="340" id="svg" tag_name="svg" viewBox="0,0,750,400" width="900" xmlns="http://www.w3.org/2000/svg">
<g id="g" tag_name="svg/g">
<g id="g_1" tag_name="svg/g/g_1">
<g aria-hidden="false" id="g_2" stroke-width="2286.9024540372397" tag_name="svg/g/g_1/g_2" transform="translate(-1184.3677442797027,2661.3023476112016) scale(0.0004372726953152835 -0.0004372726953152835)">
<path aria-label="Schleswig-Holstein, value: 728. Random data." d="M 3457361.6953271437 6064537.317547328 L 3473831.103228151 6066454.707440001 L 3458254.275645572 6054378.880020157 L 3454292.4301971514 6059770.703105756 L 3454356.611798322 6084731.70348988 L 3457361.6953271437 6064537.317547328 L 3457361.6953271437 6064537.317547328 M 3588249.9672536696 5922981.087005143 L 3578686.4275546414 5933125.855133375 L 3577703.256039935 5938504.912898787 L 3580874.49823714 5945222.0506500695 L 3576943.630466254 5950819.015340128 L 3578862.693792757 5955081.549737349 L 3572137.6137213707 5954711.580675493 L 3570371.670824465 5950301.816274715 L 3554853.9405998117 5940794.914403472 L 3550830.3006076724 5944304.112501141 L 3549069.071208743 5937985.408826397 L 3536429.5426071933 5944772.404340459 L 3526016.680612234 5966561.873410404 L 3519393.374612669 5968304.841242294 L 3512239.2302019894 5970199.536577092 L 3500514.2646667375 5973331.857401446 L 3489082.291314546 5989366.3785155555 L 3499819.4056466105 5988660.667756906 L 3498517.17620364 6001512.941770139 L 3490893.039169824 5999239.265153822 L 3489548.127732695 6013751.90560546 L 3497601.9580049324 6020646.9336849805 L 3477324.318324554 6015942.557420373 L 3477174.6819570824 6030585.007640451 L 3490956.4413303267 6031361.247770027 L 3489931.1912721554 6043152.005285589 L 3499099.8590448922 6044205.255281692 L 3479952.203508892 6067179.778998814 L 3478240.994129442 6085109.244892622 L 3488727.8879079837 6086138.869687124 L 3529021.077297232 6075584.88439345 L 3537230.39703515 6081868.550847054 L 3553025.921348715 6069833.44448243 L 3558853.4378033783 6073742.248239722 L 3566668.012427186 6060682.931927251 L 3566001.9292511554 6046527.023016155 L 3557272.6619548667 6037087.27064464 L 3572862.569005841 6041055.569442112 L 3615633.3602376087 6021826.810432973 L 3636653.86664266 6031065.021078673 L 3630020.158986437 6039286.831431415 L 3637283.7395728445 6047018.166791664 L 3650216.120428445 6033819.97667134 L 3635081.4884479907 6025376.2926454805 L 3634893.8065267834 6007738.121709337 L 3614788.5216622 5991603.556040563 L 3625082.7900508232 5982662.9355227295 L 3625050.733768941 5979329.726915367 L 3628805.8970855772 5977389.317659033 L 3626024.1404369744 5976110.546467913 L 3623841.3356328616 5977945.140343358 L 3615980.348949628 5971721.3096266175 L 3615255.50181733 5969260.885608713 L 3616689.3777262997 5963752.756347593 L 3616154.1812646016 5958546.736402004 L 3619138.422199913 5958008.893666738 L 3623189.4327053195 5953513.343492741 L 3628029.411888342 5951954.038038394 L 3629467.0720780403 5938790.493465102 L 3621108.1006804346 5938712.261265011 L 3620734.103808559 5932842.580161592 L 3608645.990442897 5924805.589668289 L 3606560.234657931 5916586.270782394 L 3601710.25338207 5916543.22276526 L 3588249.9672536696 5922981.087005143 L 3588249.9672536696 5922981.087005143 Z" fill="rgb(63,88,255)" filter="none" id="path_15" opacity="1" outline="none" role="img" stroke="#e6e6e6" stroke-linecap="round" stroke-linejoin="round" tabindex="-1" tag_name="svg/g/g_1/g_2/path_15"/>
<path aria-label="Berlin, value: 710. Random data." d="M 3804566.4152815924 5843865.692704617 L 3804934.64337777 5840168.589985384 L 3809716.679845443 5835249.986511391 L 3815207.714945185 5832907.505403239 L 3814140.999409967 5827006.757523105 L 3816712.945713115 5827478.273147764 L 3822865.36789809 5823472.41719971 L 3820320.890532007 5814819.017183954 L 3816409.71801408 5810966.026667168 L 3815681.7293974063 5814709.150564796 L 3803208.3688719897 5818473.9252682505 L 3801245.3895061575 5814373.904004387 L 3792079.8344209795 5817614.5021004295 L 3782830.3462029067 5815037.879315465 L 3778418.5104975295 5817224.177563966 L 3780958.97441466 5829146.268900374 L 3781589.121700428 5837662.75379191 L 3785070.6277251416 5836354.512590441 L 3785707.312560183 5840767.7494266415 L 3791058.6585779274 5844454.843371944 L 3796466.9763708967 5841442.428394116 L 3802213.915613156 5845930.858216585 L 3804566.4152815924 5843865.692704617 L 3804566.4152815924 5843865.692704617 Z" fill="rgb(67,92,255)" filter="none" id="path_14" opacity="1" outline="none" role="img" stroke="#e6e6e6" stroke-linecap="round" stroke-linejoin="round" tabindex="-1" tag_name="svg/g/g_1/g_2/path_14"/>
<path aria-label="Mecklenburg-Vorpommern, value: 963. Random data." d="M 3765978.7018767856 6054368.379226681 L 3777435.613443361 6053854.901303824 L 3782368.591728467 6059205.16406429 L 3786974.612363453 6049178.295472766 L 3791952.703097935 6048995.307912183 L 3790982.149199931 6056628.761605925 L 3782166.0009250576 6062203.992261823 L 3776325.3208203837 6056130.655378838 L 3776858.0248962715 6065718.757550549 L 3774350.7781503876 6067627.875936462 L 3783033.491209996 6070747.65958957 L 3783858.278236475 6061451.222502646 L 3788686.5434686914 6058680.839187553 L 3799870.6040519727 6060388.050351731 L 3802580.907614783 6055519.69019473 L 3796496.4780506194 6047458.168620513 L 3799128.008343553 6041146.67384678 L 3809821.4347207304 6034166.535604206 L 3792493.440563279 6033025.5237083 L 3784186.8438639143 6023359.063165068 L 3778032.695945624 6022255.461374334 L 3767578.4113822468 6030737.7075944 L 3769494.970340945 6035222.803483646 L 3776065.5893489686 6036691.267982107 L 3769692.2806164096 6040765.054383525 L 3776060.2697977475 6045791.791431478 L 3765978.7018767856 6054368.379226681 L 3765978.7018767856 6054368.379226681 M 3858958.4675184065 5924746.690551776 L 3850096.896700303 5915716.214590638 L 3840283.643774234 5916498.35426272 L 3848470.2881636913 5929329.485559468 L 3848307.6588879293 5934358.784781568 L 3826929.8373607565 5932832.074253613 L 3822905.9499626607 5941589.950112168 L 3812528.0683271405 5937242.981162422 L 3801803.845142712 5927759.718601057 L 3793795.8883584146 5913641.643195576 L 3777112.0423970157 5910922.546598391 L 3767480.097804807 5900151.25451235 L 3763845.367036546 5903055.998006452 L 3728791.133983615 5909381.657182644 L 3712076.1365221734 5919807.300273018 L 3703941.6063928884 5918019.748343761 L 3700755.786590965 5911583.242706717 L 3683284.378220486 5901519.873612906 L 3680200.615861982 5905056.465334533 L 3669396.6476244526 5899831.108549145 L 3670935.660609803 5893318.19994 L 3660311.88007123 5888738.755857362 L 3652231.3320433423 5889511.357454797 L 3643302.495995843 5895374.819350563 L 3639785.069639627 5892100.171963231 L 3606560.234657931 5916586.270782394 L 3608645.990442897 5924805.589668289 L 3620734.103808559 5932842.580161592 L 3621108.1006804346 5938712.261265011 L 3629467.0720780403 5938790.493465102 L 3628029.411888342 5951954.038038394 L 3623189.4327053195 5953513.343492741 L 3619138.422199913 5958008.893666738 L 3616154.1812646016 5958546.736402004 L 3616689.3777262997 5963752.756347593 L 3615255.50181733 5969260.885608713 L 3615980.348949628 5971721.3096266175 L 3623841.3356328616 5977945.140343358 L 3626024.1404369744 5976110.546467913 L 3628805.8970855772 5977389.317659033 L 3625050.733768941 5979329.726915367 L 3625082.7900508232 5982662.9355227295 L 3642541.5708868173 5989491.916522112 L 3647245.366598227 5981531.200779448 L 3653174.0782078085 5983522.003375763 L 3661492.4592031753 5977652.875023127 L 3655820.8028928475 5985889.774302511 L 3663350.6954817097 5988433.076306088 L 3678217.7285471754 6006380.590366349 L 3702468.7811940378 6009068.5689904485 L 3707700.625652624 6017070.955872858 L 3717497.3602633895 6024278.781360007 L 3726955.90064206 6043652.838236841 L 3732879.1080247746 6041514.928178605 L 3751573.525605077 6042181.2297516 L 3751194.3818650926 6038592.526238175 L 3739667.4854723434 6039851.673754515 L 3729144.62592761 6032464.175018795 L 3724343.335160375 6034435.6926388405 L 3718792.911888601 6025039.034262742 L 3722354.2783105765 6018654.7492071465 L 3726227.3404115206 6027813.585451382 L 3738785.27984973 6035167.421028666 L 3751847.046683366 6032895.493669463 L 3761685.9547273475 6041061.5307539245 L 3767918.6873595146 6024278.387530592 L 3779544.7257449995 6019867.687643128 L 3791982.7664662367 6005478.756092967 L 3792719.491393076 6008509.805314486 L 3806813.9026390165 6012547.758306017 L 3813624.193368439 6008114.979048378 L 3814273.526042246 6015341.28071272 L 3826245.429889171 6004732.718245585 L 3841931.359348758 5991047.874779541 L 3841857.4827590617 5984285.026865625 L 3820735.1401745877 5978971.985800072 L 3823658.5330290105 6004032.5048946 L 3812743.7630230263 5998386.4246438835 L 3813388.7445945316 6005505.544981841 L 3810809.0447827573 5999782.887567883 L 3821994.1922710077 5990116.933645878 L 3816749.3601884744 5982489.271132641 L 3828446.727039618 5971682.015268697 L 3836719.1779422434 5968847.959240815 L 3844529.3000683878 5971131.581763549 L 3851718.736777379 5943706.140167311 L 3858958.4675184065 5924746.690551776 L 3858958.4675184065 5924746.690551776 Z" fill="rgb(9,41,255)" filter="none" id="path_13" opacity="1" outline="none" role="img" stroke="#e6e6e6" stroke-linecap="round" stroke-linejoin="round" tabindex="-1" tag_name="svg/g/g_1/g_2/path_13"/>
<path aria-label="Bremen, value: 541. Random data." d="M 3470648.273847517 5897758.264843376 L 3482994.359777835 5895366.568680605 L 3494135.47721026 5889523.418294046 L 3498339.9930427396 5889002.585637152 L 3498170.5207677865 5879865.409456553 L 3494265.479679691 5876757.59177478 L 3491011.2500537927 5879309.938417878 L 3480045.6539797694 5879745.469892544 L 3480079.7036048737 5882942.527007969 L 3473997.6676363903 5894121.777871532 L 3467459.372181015 5896352.760481637 L 3470648.273847517 5897758.264843376 L 3470648.273847517 5897758.264843376 M 3470633.9099116446 5931964.109596872 L 3471219.9106471892 5934938.258142623 L 3467778.8065959434 5942795.013693129 L 3475199.3643792034 5941403.546886262 L 3476062.7607371015 5931567.964386281 L 3473640.484591655 5928668.052108032 L 3470633.9099116446 5931964.109596872 L 3470633.9099116446 5931964.109596872 Z" fill="rgb(106,125,255)" filter="none" id="path_12" opacity="1" outline="none" role="img" stroke="#e6e6e6" stroke-linecap="round" stroke-linejoin="round" tabindex="-1" tag_name="svg/g/g_1/g_2/path_12"/>
<path aria-label="Hamburg, value: 622. Random data." d="M 3550632.9068574295 5935231.275175732 L 3554307.569858544 5936267.878442869 L 3549069.071208743 5937985.408826397 L 3550830.3006076724 5944304.112501141 L 3554853.9405998117 5940794.914403472 L 3570371.670824465 5950301.816274715 L 3572137.6137213707 5954711.580675493 L 3578862.693792757 5955081.549737349 L 3576943.630466254 5950819.015340128 L 3580874.49823714 5945222.0506500695 L 3577703.256039935 5938504.912898787 L 3578686.4275546414 5933125.855133375 L 3588249.9672536696 5922981.087005143 L 3578903.503742752 5919670.022071318 L 3571948.8982978156 5924735.963958457 L 3565509.551061643 5920653.881467809 L 3556965.7078730096 5922524.892838276 L 3550632.9068574295 5935231.275175732 L 3550632.9068574295 5935231.275175732 Z" fill="rgb(87,109,255)" filter="none" id="path_11" opacity="1" outline="none" role="img" stroke="#e6e6e6" stroke-linecap="round" stroke-linejoin="round" tabindex="-1" tag_name="svg/g/g_1/g_2/path_11"/>
<path aria-label="Rheinland-Pfalz, value: 866. Random data." d="M 3441413.1035388974 5424738.84492001 L 3421909.707234801 5433496.233940019 L 3400206.9816703415 5434171.874666106 L 3381263.1691697384 5448827.798153124 L 3375749.536002831 5453286.634099982 L 3382812.5808065045 5467779.951537424 L 3372832.7086474616 5480162.04844098 L 3377452.9388920865 5484425.935131481 L 3374726.165879679 5494845.43242121 L 3371185.6562408176 5493263.5940849595 L 3365049.947543317 5497693.063152396 L 3350931.1909566126 5500859.614452809 L 3334486.438566825 5492783.548776929 L 3326657.9711445286 5490789.701358679 L 3308089.903418949 5490864.744018699 L 3313667.5787480427 5506768.163354902 L 3319085.3295557285 5510024.622093949 L 3320036.2148178266 5520422.198419763 L 3313918.621959448 5521855.030481322 L 3300451.1426753607 5531427.512039582 L 3292075.331599589 5549727.940654646 L 3296390.085578852 5567982.122912283 L 3304168.46299545 5572448.580025338 L 3307664.7511126897 5578120.732418381 L 3312983.7700960236 5579512.676991503 L 3316745.7783426233 5580422.38335813 L 3314942.5281778327 5586140.845001608 L 3319084.6380793764 5581296.999313708 L 3328285.018370182 5585040.495027414 L 3330605.1985471123 5582020.31771647 L 3337596.2249325705 5580760.024887458 L 3343107.5339642386 5582155.468263117 L 3341011.504021596 5595025.005251895 L 3350093.4458034495 5595426.047952845 L 3350049.3700410733 5600448.520093602 L 3362065.5903108316 5607751.525530644 L 3369368.6827267488 5608763.730982788 L 3372459.6357410736 5612603.93168246 L 3378474.6462449804 5610514.452603731 L 3384825.518803886 5613016.215925059 L 3386058.875605038 5619783.126991286 L 3401137.3966407343 5622790.962612764 L 3408249.7846913603 5628022.5903055705 L 3406666.4940470285 5631204.342918709 L 3413201.597724913 5634040.796123299 L 3412628.251800774 5642375.64469213 L 3419827.9681884986 5643501.2928428715 L 3418700.2280780436 5639011.36474758 L 3425511.302979131 5633355.626293107 L 3433322.8712637313 5617549.71218087 L 3438838.0181758674 5616717.762588284 L 3440788.8477046415 5605767.403666913 L 3436698.9808041384 5599221.561436912 L 3429406.676030256 5598670.4881470185 L 3427486.3471034807 5584796.390766598 L 3432385.6108222404 5582006.698425275 L 3437471.8600296136 5571557.030202195 L 3423056.5161700593 5563089.112772788 L 3422876.6023717704 5552937.092066232 L 3418083.6548039587 5553784.511138806 L 3412023.655965697 5546950.898131174 L 3422434.0216260618 5537934.592380242 L 3440828.524627317 5545698.403705594 L 3444709.495428592 5544811.977188559 L 3452319.9802185413 5536002.36034329 L 3452586.3951217886 5528367.219321354 L 3458495.500473445 5514559.155320933 L 3453841.9804025455 5503159.669234588 L 3457830.881120634 5493673.069944316 L 3463300.0906483554 5478415.361526337 L 3462173.0401205476 5462228.335194915 L 3441413.1035388974 5424738.84492001 L 3441413.1035388974 5424738.84492001 Z" fill="rgb(31,61,255)" filter="none" id="path_10" opacity="1" outline="none" role="img" stroke="#e6e6e6" stroke-linecap="round" stroke-linejoin="round" tabindex="-1" tag_name="svg/g/g_1/g_2/path_10"/>
<path aria-label="Saarland, value: 398. Random data." d="M 3381263.1691697384 5448827.798153124 L 3373557.360647933 5442263.874895405 L 3342161.140718924 5454623.491862889 L 3340179.5116371857 5447601.538552361 L 3332385.342399545 5450840.392206418 L 3318304.2294849427 5480523.8351349905 L 3307562.3294992363 5483097.060511152 L 3308089.903418949 5490864.744018699 L 3326657.9711445286 5490789.701358679 L 3334486.438566825 5492783.548776929 L 3350931.1909566126 5500859.614452809 L 3365049.947543317 5497693.063152396 L 3371185.6562408176 5493263.5940849595 L 3374726.165879679 5494845.43242121 L 3377452.9388920865 5484425.935131481 L 3372832.7086474616 5480162.04844098 L 3382812.5808065045 5467779.951537424 L 3375749.536002831 5453286.634099982 L 3381263.1691697384 5448827.798153124 L 3381263.1691697384 5448827.798153124 Z" fill="rgb(138,154,255)" filter="none" id="path_9" opacity="1" outline="none" role="img" stroke="#e6e6e6" stroke-linecap="round" stroke-linejoin="round" tabindex="-1" tag_name="svg/g/g_1/g_2/path_9"/>
<path aria-label="Bayern, value: 785. Random data." d="M 3720854.929931188 5579802.167127892 L 3719631.2211950263 5571814.367020153 L 3732520.2786687785 5550332.235286885 L 3748749.2603212004 5542736.809619463 L 3753100.7648904314 5535668.008029172 L 3743829.341769675 5517178.98624104 L 3762324.3291879585 5492080.268798398 L 3764245.567389445 5483218.791022324 L 3775995.855328233 5472471.210996354 L 3790870.3988914737 5469570.813227099 L 3804947.7173350696 5450646.837827573 L 3813933.918440779 5448396.016205997 L 3828298.2930317265 5431829.475776442 L 3837496.0529524805 5433331.974635546 L 3853922.3040218116 5414298.728853318 L 3854027.9231568337 5397041.137897308 L 3848317.1758256047 5386640.727975281 L 3833446.584678509 5392755.726939713 L 3826289.951558597 5369140.387843039 L 3816994.2940813755 5360866.101875784 L 3799346.7957504704 5355056.062758225 L 3778767.496875479 5338084.622621601 L 3780201.377520426 5331942.028090048 L 3798665.6127939913 5308605.033115683 L 3791934.165031682 5294492.467850499 L 3801583.724717352 5293802.755029514 L 3806028.254126443 5283947.721467099 L 3804167.784218677 5269432.079157835 L 3797155.9113819273 5266557.908420881 L 3784369.5568754105 5275318.431105678 L 3782489.4718682836 5287708.879043885 L 3765869.815949883 5282967.668819505 L 3757000.8567382093 5289276.9764530305 L 3738359.055938921 5290070.135048935 L 3737999.89040919 5278714.787936546 L 3720699.45624005 5278787.460898208 L 3697068.2414810816 5275593.971279268 L 3692138.589013355 5266976.183274032 L 3681727.3248318103 5265798.139453448 L 3670484.2581564616 5253737.037446065 L 3649428.9658668973 5252031.102007917 L 3634830.263696249 5265638.650815295 L 3606391.2058383985 5271384.986212413 L 3609508.014510737 5256512.872617158 L 3598748.4894922166 5241134.824736037 L 3587417.993278845 5237698.059239308 L 3589919.3672567643 5249560.582582623 L 3571438.51553459 5265428.843340704 L 3545727.4155536136 5271763.94447061 L 3551119.350000499 5274925.337528155 L 3553760.0831742487 5274202.192414818 L 3564921.0598903387 5282095.23969066 L 3571596.29490433 5280467.069290322 L 3579419.406908934 5282654.313072208 L 3580805.818242721 5279501.641246543 L 3582086.3286339194 5282857.967795116 L 3584928.4473972623 5283809.521984327 L 3583494.2047532503 5292617.613166254 L 3580930.5669586663 5294773.395958767 L 3584580.1453866977 5298103.714569314 L 3582134.3343479666 5304897.827077326 L 3582885.100439836 5311565.590285705 L 3581170.5874427473 5314040.815402092 L 3584271.015190801 5322385.998268488 L 3584603.11742429 5330438.815983854 L 3582536.9707668643 5334936.909438697 L 3578187.61945069 5352316.366701669 L 3572624.432680374 5360747.412422052 L 3578955.505063383 5370940.394061079 L 3583771.9889397854 5372636.028100179 L 3585285.342993573 5370319.655634613 L 3592397.280395814 5374804.876739196 L 3597104.90080478 5377768.960425605 L 3596820.245967135 5386336.24696802 L 3598254.037412307 5388042.213263803 L 3594990.097056582 5390440.295578317 L 3593537.932608771 5394395.991784926 L 3595531.176295351 5396915.312890804 L 3601043.723790792 5392675.2968838485 L 3604817.538306969 5396914.406210381 L 3605494.6288470197 5393679.6094944 L 3610040.9729735483 5396732.756168958 L 3605288.9192014784 5404018.894093167 L 3607096.9641639437 5411585.856347066 L 3606859.6900644084 5423359.007330973 L 3599011.9484724626 5433669.21242262 L 3593147.1400163225 5435435.63895266 L 3592245.889149916 5443944.496307556 L 3583564.5297398535 5452545.675612805 L 3582413.875438883 5459974.41608993 L 3584382.777422816 5460337.636430472 L 3581463.7540525994 5470771.674960402 L 3585018.2661472317 5472469.5360561 L 3582846.707705689 5477603.56110787 L 3580825.872080544 5478633.7955291895 L 3581644.3427704326 5486557.884327598 L 3578523.3819369273 5490167.681398473 L 3577176.3558150646 5486245.68095422 L 3573881.959311906 5482987.114473159 L 3567840.6018891246 5483063.899400087 L 3566013.3375535863 5493864.103194167 L 3561886.18465429 5489700.410738895 L 3560708.049884516 5490710.2006405825 L 3563761.6499401266 5497211.0637214 L 3560208.8010403323 5502015.702430836 L 3560005.6028370573 5506214.90982583 L 3557139.2306370987 5509661.189508747 L 3552489.5273762518 5505757.585091226 L 3551176.5391815607 5509357.281497857 L 3548880.8715447127 5506083.055657176 L 3545480.2621061597 5506998.889493312 L 3546539.9080542442 5516416.342838714 L 3543354.899810525 5514967.372718607 L 3535345.8245763546 5517624.648559936 L 3525335.948467357 5516510.933784782 L 3522498.7099780627 5514265.612514454 L 3522607.3664702717 5510533.320966881 L 3530810.185565198 5507912.866511729 L 3529207.3879846265 5500329.325596306 L 3527193.732692711 5501474.023487358 L 3520685.2364013265 5498793.088785424 L 3518325.600151998 5493330.7812480545 L 3508004.7275028112 5493032.839273294 L 3505250.401014561 5497006.31859543 L 3508038.926390336 5500227.995168532 L 3509617.733065121 5506477.500841843 L 3510146.6536235306 5516639.213060622 L 3505048.32219943 5521439.477966377 L 3501918.832768963 5529980.579180215 L 3501924.545578764 5545078.593061509 L 3498323.6014661267 5546150.384096775 L 3500735.6345797917 5551049.781936525 L 3507714.830290556 5554233.606874474 L 3510910.190431479 5552779.339901406 L 3516350.8844319284 5556299.165610036 L 3523525.7989939875 5555823.076099055 L 3529102.3323403024 5550628.949971706 L 3536241.22631337 5552425.609856713 L 3537768.1315709203 5559166.687375015 L 3535646.79088356 5560063.080888144 L 3536454.111545061 5566675.526839624 L 3547168.369114308 5566552.85793483 L 3548486.4890143084 5571588.403918358 L 3553322.554148009 5574531.793817934 L 3554503.9289892185 5585281.316372206 L 3561061.385429161 5585008.105158094 L 3571078.944444881 5590634.69298593 L 3574817.4056062475 5598257.442070338 L 3579781.59930187 5603487.117561258 L 3584213.7888737433 5602032.775187917 L 3587805.4131642585 5597748.057573312 L 3593561.5613371767 5595872.324080699 L 3599433.8822761257 5588255.518217417 L 3599920.250670508 5585260.633164166 L 3603043.383824007 5585677.06236868 L 3606720.0805508858 5580673.113767929 L 3610451.0868479265 5581336.118197137 L 3613301.320426155 5577745.225159141 L 3615378.806168282 5566488.746700199 L 3623231.202534454 5565109.5173362065 L 3623502.865215389 5568663.640977269 L 3631250.605627325 5568820.599108696 L 3631003.506993749 5572109.528580066 L 3622115.8301066705 5577492.526248068 L 3622821.4798547197 5581827.247717467 L 3627205.3913595304 5584768.6555711 L 3638188.6970979096 5585165.100702959 L 3641467.2303942246 5581085.145821577 L 3645868.076992584 5580963.035756155 L 3650284.4903703765 5583030.593772362 L 3653432.929886797 5578485.113446983 L 3652087.566654791 5576864.6365224905 L 3656266.889733245 5572781.652331341 L 3660745.4664473836 5573283.530058335 L 3662238.810322443 5582653.184605444 L 3659605.2232868215 5595262.229100906 L 3664336.986479906 5597622.360687174 L 3666404.0989981135 5600603.844222999 L 3672121.9713641307 5600160.7438295 L 3671958.311179134 5592357.348135368 L 3675994.001566703 5590758.778758263 L 3676626.67844284 5587664.6132867765 L 3680049.047779332 5585432.810554866 L 3698749.364952929 5590010.143431294 L 3701124.6336581926 5587599.688829285 L 3706456.635733571 5590490.103557012 L 3712475.9410972646 5583643.9742964255 L 3720854.929931188 5579802.167127892 L 3720854.929931188 5579802.167127892 Z" fill="rgb(49,77,255)" filter="none" id="path_8" opacity="1" outline="none" role="img" stroke="#e6e6e6" stroke-linecap="round" stroke-linejoin="round" tabindex="-1" tag_name="svg/g/g_1/g_2/path_8"/>
<path aria-label="Sachsen, value: 223. Random data." d="M 3895729.9823607644 5727122.600773147 L 3913070.5398604777 5718259.530954159 L 3920360.2740866155 5695097.015687519 L 3917262.632453472 5675524.345881006 L 3906855.3511170237 5646619.459751413 L 3895163.1054948336 5649360.645048251 L 3896125.4075728473 5656567.481876774 L 3885322.918464528 5667742.816431994 L 3870722.8689866588 5668920.658955303 L 3867706.192504342 5662631.868164185 L 3876123.3069151207 5651812.811220924 L 3844935.620419005 5638502.496657353 L 3841262.871355694 5631926.33240279 L 3824931.316727367 5629596.810822538 L 3814830.689602342 5616161.017457154 L 3799673.1328355772 5613571.704937606 L 3795090.3541931743 5603831.530404132 L 3784445.669485666 5602760.942971395 L 3778486.0135767977 5592711.318792946 L 3771699.906899136 5596372.6104919445 L 3749573.2997890264 5589410.512530708 L 3737872.953389062 5574367.7266012 L 3734558.691427156 5563483.466750189 L 3730459.221046157 5574098.141054092 L 3720854.929931188 5579802.167127892 L 3712475.9410972646 5583643.9742964255 L 3706456.635733571 5590490.103557012 L 3707593.3788553113 5598689.827285567 L 3711847.435890186 5605288.310183126 L 3716102.61097975 5603841.316492241 L 3722819.9620642923 5607572.805945337 L 3725457.330858888 5614794.999065041 L 3730125.083180447 5614992.236780626 L 3734759.1665375163 5620512.144633972 L 3728832.100467012 5625615.079081848 L 3729672.779302678 5633487.713045458 L 3741232.331247753 5637557.604681298 L 3748218.9617048698 5643708.773661053 L 3756509.832149525 5646715.353460851 L 3748992.236348646 5654296.661228191 L 3744176.9108976396 5663770.876914456 L 3728697.3410449172 5665894.003271156 L 3725736.6071475316 5666344.961005715 L 3720493.426142237 5675145.045617311 L 3718449.003666432 5688621.377961444 L 3721730.6767142406 5692441.574940465 L 3719417.819173894 5706182.426245658 L 3724304.727691182 5719002.5429664785 L 3737782.7113693953 5720766.236273242 L 3738522.3460328085 5724031.957649255 L 3753662.7909530257 5724768.670716395 L 3761788.6117216963 5728031.828176886 L 3767113.543071694 5732917.282511556 L 3781244.7607806674 5727749.173669612 L 3789159.7458350016 5722743.071923468 L 3791429.4246440106 5702687.054199439 L 3806709.166008286 5707620.242515245 L 3814794.8146041944 5702036.238915632 L 3831961.931194351 5701008.763738908 L 3846067.657603694 5703199.092883993 L 3857862.632567814 5722744.221375691 L 3870467.4319547503 5721757.118328907 L 3881910.192487508 5727851.204191455 L 3895729.9823607644 5727122.600773147 L 3895729.9823607644 5727122.600773147 Z" fill="rgb(179,189,255)" filter="none" id="path_7" opacity="1" outline="none" role="img" stroke="#e6e6e6" stroke-linecap="round" stroke-linejoin="round" tabindex="-1" tag_name="svg/g/g_1/g_2/path_7"/>
<path aria-label="Sachsen-Anhalt, value: 605. Random data." d="M 3781244.7607806674 5727749.173669612 L 3767113.543071694 5732917.282511556 L 3761788.6117216963 5728031.828176886 L 3753662.7909530257 5724768.670716395 L 3738522.3460328085 5724031.957649255 L 3737782.7113693953 5720766.236273242 L 3724304.727691182 5719002.5429664785 L 3719417.819173894 5706182.426245658 L 3721730.6767142406 5692441.574940465 L 3718449.003666432 5688621.377961444 L 3720493.426142237 5675145.045617311 L 3725736.6071475316 5666344.961005715 L 3728697.3410449172 5665894.003271156 L 3729823.622919224 5657699.03474294 L 3724984.3058717526 5648366.587107756 L 3721967.7634851355 5650922.120966264 L 3711102.778670618 5650136.794659501 L 3700671.5497429045 5657917.829044472 L 3691711.4629774042 5657002.067227582 L 3688360.598657859 5665165.522876653 L 3670003.97100978 5665298.31771919 L 3669281.7923881463 5672052.186272954 L 3662981.389073545 5678154.152390896 L 3671078.403472946 5684562.721774775 L 3661128.375390556 5696690.098692731 L 3639072.4658529945 5698871.243489752 L 3632504.21722965 5716768.855606366 L 3634798.3906453014 5719458.087059684 L 3617510.685025478 5723772.319455457 L 3615012.185464152 5731490.691926933 L 3609394.947188708 5739233.36624851 L 3608880.397598335 5746675.8150769975 L 3612899.53152235 5751066.703387752 L 3610948.6257142145 5755584.021308049 L 3613030.801248 5759432.388380898 L 3607797.4707193407 5764671.333248193 L 3613361.9478737903 5768780.536562975 L 3626913.423267653 5769958.559449606 L 3634968.641020377 5771763.776092371 L 3633454.749544749 5775329.878029357 L 3639545.494019773 5779363.059643696 L 3638079.8541451683 5785463.393418401 L 3642306.939090368 5789843.217983228 L 3637457.8965149773 5796638.617811853 L 3636231.0192434615 5802737.378036592 L 3641160.67654408 5806181.383280382 L 3631772.143617977 5815934.18794198 L 3635920.4080108143 5820057.301913116 L 3632514.916406212 5825233.89307915 L 3633938.0988071673 5832809.371821166 L 3630000.110323209 5833404.790216582 L 3624130.26543882 5843359.720767441 L 3621666.099287462 5844655.127411945 L 3618514.561537239 5851704.869021708 L 3618718.1755545707 5857485.6109101465 L 3632019.5397876874 5860810.269305429 L 3635509.530877737 5866108.087427732 L 3648934.747327384 5864932.535072092 L 3651333.268487573 5862791.574747372 L 3662276.0322155575 5866329.145145593 L 3668159.916324182 5870732.066162907 L 3668261.3414150965 5877081.257549637 L 3671922.8545249584 5878200.70570627 L 3673094.947764945 5881900.728252357 L 3685470.527182492 5877043.117505904 L 3690394.3300075424 5869785.547441632 L 3699574.5929267807 5865363.214592156 L 3708117.6930525554 5866440.63402295 L 3715667.192854435 5863903.8374439515 L 3717929.500130215 5858476.429331329 L 3715469.8620647853 5849748.085141778 L 3718214.650892363 5844431.189156621 L 3711850.443610262 5829091.543895375 L 3717622.374930206 5827795.966662369 L 3723223.1986584924 5821704.599415708 L 3720737.934966553 5816927.271373965 L 3718959.61734682 5798644.475776101 L 3721757.2971702325 5795806.458117374 L 3718700.9173543877 5789151.686089993 L 3723228.6656669825 5782040.103537493 L 3734812.1546247685 5769569.3694657935 L 3737897.798730442 5770821.578853462 L 3747886.381236233 5765052.474715315 L 3751784.0961636314 5768485.252412545 L 3766349.840268464 5760146.177214226 L 3771836.83573714 5759778.760349869 L 3780081.764468115 5754179.044253616 L 3791815.5008474807 5755165.881729893 L 3787186.3117421567 5747485.4105568705 L 3788950.7222997635 5738608.6159806 L 3781244.7607806674 5727749.173669612 L 3781244.7607806674 5727749.173669612 Z" fill="rgb(91,113,255)" filter="none" id="path_6" opacity="1" outline="none" role="img" stroke="#e6e6e6" stroke-linecap="round" stroke-linejoin="round" tabindex="-1" tag_name="svg/g/g_1/g_2/path_6"/>
<path aria-label="Nordrhein-Westfalen, value: 237. Random data." d="M 3438838.0181758674 5616717.762588284 L 3433322.8712637313 5617549.71218087 L 3425511.302979131 5633355.626293107 L 3418700.2280780436 5639011.36474758 L 3419827.9681884986 5643501.2928428715 L 3412628.251800774 5642375.64469213 L 3413201.597724913 5634040.796123299 L 3406666.4940470285 5631204.342918709 L 3408249.7846913603 5628022.5903055705 L 3401137.3966407343 5622790.962612764 L 3386058.875605038 5619783.126991286 L 3384825.518803886 5613016.215925059 L 3378474.6462449804 5610514.452603731 L 3372459.6357410736 5612603.93168246 L 3369368.6827267488 5608763.730982788 L 3362065.5903108316 5607751.525530644 L 3350049.3700410733 5600448.520093602 L 3350093.4458034495 5595426.047952845 L 3341011.504021596 5595025.005251895 L 3343107.5339642386 5582155.468263117 L 3337596.2249325705 5580760.024887458 L 3330605.1985471123 5582020.31771647 L 3328285.018370182 5585040.495027414 L 3319084.6380793764 5581296.999313708 L 3314942.5281778327 5586140.845001608 L 3316745.7783426233 5580422.38335813 L 3312983.7700960236 5579512.676991503 L 3311015.0402032044 5597166.29592209 L 3301286.5663866308 5598571.7062137835 L 3300452.049559886 5612535.579933467 L 3286562.436867691 5631605.538145419 L 3293515.854042785 5645328.8087019995 L 3289593.120175536 5652859.977706095 L 3280490.641814036 5652305.535514021 L 3283946.8383823703 5659327.033316722 L 3300441.7297592955 5672312.375694558 L 3295054.930980491 5681365.46373648 L 3305673.785536045 5698330.392621049 L 3305185.743515231 5711900.558057077 L 3298151.4557415806 5721776.762281734 L 3299248.1908475813 5727184.30292344 L 3288593.345545322 5737357.14206855 L 3288166.3396910564 5745714.5100391265 L 3302277.8919111043 5755163.804615399 L 3319581.1853357637 5746810.072982605 L 3349540.1338124895 5760629.053238465 L 3340479.231191908 5769175.667836391 L 3365215.740523137 5791134.424559159 L 3384012.9715766446 5794350.67907946 L 3392025.975762448 5798862.550247635 L 3404900.1974876495 5809887.512425692 L 3405503.594528638 5816570.475944586 L 3420259.1575914957 5803751.527420644 L 3425492.757720896 5805288.420274702 L 3430006.2427960923 5797970.822235635 L 3424868.898425628 5786447.462684597 L 3432793.277117916 5782578.718144247 L 3430848.1481474047 5776941.421768443 L 3424043.0116273453 5773317.362990024 L 3429320.229406042 5767538.251228197 L 3443866.3179077418 5772309.655085896 L 3449806.276862137 5777869.535837054 L 3458464.1366839507 5775302.880153374 L 3465646.1563843205 5783918.488438864 L 3463355.0737599577 5785668.419641298 L 3461024.8513124967 5803711.840198222 L 3454665.838416915 5807279.496333883 L 3452513.9193353336 5813170.623598344 L 3462486.135893324 5813475.343014539 L 3465828.110588937 5819223.887342564 L 3475033.4589592386 5821106.070590851 L 3479867.173593628 5816213.7362615485 L 3480044.9075819287 5808105.862619354 L 3488204.8196057775 5806021.157810597 L 3497362.7964672055 5808264.466047473 L 3505512.7507341616 5818113.191433444 L 3508734.190689915 5808202.516151291 L 3501228.946667198 5800697.428670202 L 3498856.973077975 5792231.21404994 L 3504814.61660289 5789111.451989876 L 3499183.639501505 5783721.944245349 L 3499759.335649229 5777670.640562741 L 3509276.9756461484 5777434.945899787 L 3513012.1422050977 5771107.512573159 L 3511749.4542092225 5761204.084301241 L 3519653.320367996 5759759.983291808 L 3517560.304288995 5754143.800458757 L 3523025.290853254 5752320.439378936 L 3522181.9700715416 5746808.885911518 L 3531347.6256220187 5748185.852246471 L 3530138.6548991445 5737303.771619556 L 3525818.084766577 5723573.956877399 L 3530455.485966136 5723798.104780388 L 3528924.4766209414 5721351.52188742 L 3523070.5236526416 5719044.856240514 L 3524603.0147794806 5717491.227738889 L 3520561.9854983916 5709122.96443776 L 3515576.2447461095 5705707.691427573 L 3514925.121437385 5702549.667136711 L 3510983.0960355494 5700337.875420827 L 3507554.9044111446 5700780.036701719 L 3505875.656780965 5705238.82993127 L 3501068.9273003335 5708144.414527873 L 3493481.3893631604 5705006.789356312 L 3495486.2723003584 5695033.509695229 L 3487092.883024059 5693984.332700533 L 3478098.1711568064 5691979.956017888 L 3470564.1349909166 5682285.21688876 L 3472321.6289579044 5678561.793046659 L 3480242.9781700782 5681704.136517994 L 3482531.6234846874 5670756.368202678 L 3478703.4031630475 5666065.657626977 L 3479299.5390543016 5663197.624484734 L 3476066.6090996503 5661389.358788928 L 3466708.307876433 5661993.127825999 L 3468070.104050932 5653902.13122067 L 3460909.0517494865 5642310.59995 L 3455235.70669728 5636303.2577909315 L 3450712.3612730294 5638488.377223105 L 3443440.076195407 5632575.192871028 L 3439308.1902859993 5627939.390326878 L 3441783.7754965182 5623139.806256072 L 3438838.0181758674 5616717.762588284 L 3438838.0181758674 5616717.762588284 Z" fill="rgb(175,186,255)" filter="none" id="path_5" opacity="1" outline="none" role="img" stroke="#e6e6e6" stroke-linecap="round" stroke-linejoin="round" tabindex="-1" tag_name="svg/g/g_1/g_2/path_5"/>
<path aria-label="Baden-Württemberg, value: 157. Random data." d="M 3441413.1035388974 5424738.84492001 L 3462173.0401205476 5462228.335194915 L 3463300.0906483554 5478415.361526337 L 3457830.881120634 5493673.069944316 L 3463711.7080498426 5492955.396639328 L 3468596.589144559 5487801.583225355 L 3472314.7994839814 5489979.637665575 L 3471193.28598797 5497091.604174682 L 3476270.1188411755 5498354.395249831 L 3479600.3046743623 5489358.431664172 L 3492069.897185339 5485360.722180808 L 3489052.244724367 5482837.3566248845 L 3486398.288146274 5474042.180414257 L 3488841.551641139 5473151.66577015 L 3496055.133365324 5479681.46503026 L 3496946.013854425 5485085.715392454 L 3502541.211518977 5484821.100840423 L 3509069.49997 5486471.628875534 L 3505792.5326571916 5492886.3640927905 L 3508004.7275028112 5493032.839273294 L 3518325.600151998 5493330.7812480545 L 3520685.2364013265 5498793.088785424 L 3527193.732692711 5501474.023487358 L 3529207.3879846265 5500329.325596306 L 3530810.185565198 5507912.866511729 L 3522607.3664702717 5510533.320966881 L 3522498.7099780627 5514265.612514454 L 3525335.948467357 5516510.933784782 L 3535345.8245763546 5517624.648559936 L 3543354.899810525 5514967.372718607 L 3546539.9080542442 5516416.342838714 L 3545480.2621061597 5506998.889493312 L 3548880.8715447127 5506083.055657176 L 3551176.5391815607 5509357.281497857 L 3552489.5273762518 5505757.585091226 L 3557139.2306370987 5509661.189508747 L 3560005.6028370573 5506214.90982583 L 3560208.8010403323 5502015.702430836 L 3563761.6499401266 5497211.0637214 L 3560708.049884516 5490710.2006405825 L 3561886.18465429 5489700.410738895 L 3566013.3375535863 5493864.103194167 L 3567840.6018891246 5483063.899400087 L 3573881.959311906 5482987.114473159 L 3577176.3558150646 5486245.68095422 L 3578523.3819369273 5490167.681398473 L 3581644.3427704326 5486557.884327598 L 3580825.872080544 5478633.7955291895 L 3582846.707705689 5477603.56110787 L 3585018.2661472317 5472469.5360561 L 3581463.7540525994 5470771.674960402 L 3584382.777422816 5460337.636430472 L 3582413.875438883 5459974.41608993 L 3583564.5297398535 5452545.675612805 L 3592245.889149916 5443944.496307556 L 3593147.1400163225 5435435.63895266 L 3599011.9484724626 5433669.21242262 L 3606859.6900644084 5423359.007330973 L 3607096.9641639437 5411585.856347066 L 3605288.9192014784 5404018.894093167 L 3610040.9729735483 5396732.756168958 L 3605494.6288470197 5393679.6094944 L 3604817.538306969 5396914.406210381 L 3601043.723790792 5392675.2968838485 L 3595531.176295351 5396915.312890804 L 3593537.932608771 5394395.991784926 L 3594990.097056582 5390440.295578317 L 3598254.037412307 5388042.213263803 L 3596820.245967135 5386336.24696802 L 3597104.90080478 5377768.960425605 L 3592397.280395814 5374804.876739196 L 3585285.342993573 5370319.655634613 L 3583771.9889397854 5372636.028100179 L 3578955.505063383 5370940.394061079 L 3572624.432680374 5360747.412422052 L 3578187.61945069 5352316.366701669 L 3582536.9707668643 5334936.909438697 L 3584603.11742429 5330438.815983854 L 3584271.015190801 5322385.998268488 L 3581170.5874427473 5314040.815402092 L 3582885.100439836 5311565.590285705 L 3582134.3343479666 5304897.827077326 L 3584580.1453866977 5298103.714569314 L 3580930.5669586663 5294773.395958767 L 3583494.2047532503 5292617.613166254 L 3584928.4473972623 5283809.521984327 L 3582086.3286339194 5282857.967795116 L 3580805.818242721 5279501.641246543 L 3579419.406908934 5282654.313072208 L 3571596.29490433 5280467.069290322 L 3564921.0598903387 5282095.23969066 L 3553760.0831742487 5274202.192414818 L 3551119.350000499 5274925.337528155 L 3545727.4155536136 5271763.94447061 L 3538108.586976225 5278216.657163103 L 3524201.4871307504 5282560.200732233 L 3505381.264605338 5297500.559364138 L 3513744.3973849737 5281261.05497035 L 3501245.256457599 5282187.1291832635 L 3492954.4217438856 5279178.038286646 L 3470156.9156570975 5295126.922488031 L 3459797.2292908044 5291776.83056035 L 3454288.387275247 5280872.8088062005 L 3467574.511019954 5280502.119005845 L 3458547.4047226133 5271815.266894669 L 3438287.8564351345 5275499.038344627 L 3431325.8307742607 5270193.2645433815 L 3418142.735306166 5269604.711872451 L 3411241.1816176744 5273572.6100378 L 3400901.677740954 5268058.800202117 L 3389002.1904692957 5282303.478757852 L 3389551.242221249 5294829.8907658765 L 3396957.148895311 5319103.142872546 L 3393692.743573345 5329429.759538024 L 3407518.0857715937 5358145.58697383 L 3406601.006712587 5363861.662912702 L 3412357.687947 5376321.143464623 L 3412286.455256365 5386948.598105255 L 3424287.4372463357 5402595.574031087 L 3434119.715337595 5409591.547999708 L 3441413.1035388974 5424738.84492001 L 3441413.1035388974 5424738.84492001 Z" fill="rgb(194,202,255)" filter="none" id="path_4" opacity="1" outline="none" role="img" stroke="#e6e6e6" stroke-linecap="round" stroke-linejoin="round" tabindex="-1" tag_name="svg/g/g_1/g_2/path_4"/>
<path aria-label="Hessen, value: 134. Random data." d="M 3574817.4056062475 5598257.442070338 L 3571078.944444881 5590634.69298593 L 3561061.385429161 5585008.105158094 L 3554503.9289892185 5585281.316372206 L 3553322.554148009 5574531.793817934 L 3548486.4890143084 5571588.403918358 L 3547168.369114308 5566552.85793483 L 3536454.111545061 5566675.526839624 L 3535646.79088356 5560063.080888144 L 3537768.1315709203 5559166.687375015 L 3536241.22631337 5552425.609856713 L 3529102.3323403024 5550628.949971706 L 3523525.7989939875 5555823.076099055 L 3516350.8844319284 5556299.165610036 L 3510910.190431479 5552779.339901406 L 3507714.830290556 5554233.606874474 L 3500735.6345797917 5551049.781936525 L 3498323.6014661267 5546150.384096775 L 3501924.545578764 5545078.593061509 L 3501918.832768963 5529980.579180215 L 3505048.32219943 5521439.477966377 L 3510146.6536235306 5516639.213060622 L 3509617.733065121 5506477.500841843 L 3508038.926390336 5500227.995168532 L 3505250.401014561 5497006.31859543 L 3508004.7275028112 5493032.839273294 L 3505792.5326571916 5492886.3640927905 L 3509069.49997 5486471.628875534 L 3502541.211518977 5484821.100840423 L 3496946.013854425 5485085.715392454 L 3496055.133365324 5479681.46503026 L 3488841.551641139 5473151.66577015 L 3486398.288146274 5474042.180414257 L 3489052.244724367 5482837.3566248845 L 3492069.897185339 5485360.722180808 L 3479600.3046743623 5489358.431664172 L 3476270.1188411755 5498354.395249831 L 3471193.28598797 5497091.604174682 L 3472314.7994839814 5489979.637665575 L 3468596.589144559 5487801.583225355 L 3463711.7080498426 5492955.396639328 L 3457830.881120634 5493673.069944316 L 3453841.9804025455 5503159.669234588 L 3458495.500473445 5514559.155320933 L 3452586.3951217886 5528367.219321354 L 3452319.9802185413 5536002.36034329 L 3444709.495428592 5544811.977188559 L 3440828.524627317 5545698.403705594 L 3422434.0216260618 5537934.592380242 L 3412023.655965697 5546950.898131174 L 3418083.6548039587 5553784.511138806 L 3422876.6023717704 5552937.092066232 L 3423056.5161700593 5563089.112772788 L 3437471.8600296136 5571557.030202195 L 3432385.6108222404 5582006.698425275 L 3427486.3471034807 5584796.390766598 L 3429406.676030256 5598670.4881470185 L 3436698.9808041384 5599221.561436912 L 3440788.8477046415 5605767.403666913 L 3438838.0181758674 5616717.762588284 L 3441783.7754965182 5623139.806256072 L 3439308.1902859993 5627939.390326878 L 3443440.076195407 5632575.192871028 L 3450712.3612730294 5638488.377223105 L 3455235.70669728 5636303.2577909315 L 3460909.0517494865 5642310.59995 L 3468070.104050932 5653902.13122067 L 3466708.307876433 5661993.127825999 L 3476066.6090996503 5661389.358788928 L 3479299.5390543016 5663197.624484734 L 3478703.4031630475 5666065.657626977 L 3482531.6234846874 5670756.368202678 L 3480242.9781700782 5681704.136517994 L 3472321.6289579044 5678561.793046659 L 3470564.1349909166 5682285.21688876 L 3478098.1711568064 5691979.956017888 L 3487092.883024059 5693984.332700533 L 3495486.2723003584 5695033.509695229 L 3493481.3893631604 5705006.789356312 L 3501068.9273003335 5708144.414527873 L 3505875.656780965 5705238.82993127 L 3507554.9044111446 5700780.036701719 L 3510983.0960355494 5700337.875420827 L 3514925.121437385 5702549.667136711 L 3515576.2447461095 5705707.691427573 L 3520561.9854983916 5709122.96443776 L 3524603.0147794806 5717491.227738889 L 3523070.5236526416 5719044.856240514 L 3528924.4766209414 5721351.52188742 L 3530455.485966136 5723798.104780388 L 3534226.890506279 5721936.523026144 L 3538023.033833986 5722871.995377094 L 3543159.0281349747 5721711.628160789 L 3547558.9102820596 5715352.144276683 L 3544642.9489397793 5715322.754680851 L 3541427.053028989 5708583.377967434 L 3544378.4200985883 5703761.809016353 L 3544011.974893511 5696296.375946417 L 3540504.4158721655 5696031.611479966 L 3539668.6032787417 5689741.487435812 L 3547588.8435190055 5686762.122029556 L 3549624.278756638 5684174.2859604955 L 3553132.3127446934 5686190.034526996 L 3549697.477417597 5692215.009858356 L 3557474.369672111 5696424.548241173 L 3559629.6316318894 5693246.937864368 L 3560024.284379889 5697322.0626973845 L 3562896.1835305644 5698276.577285951 L 3566077.570271232 5694404.325983986 L 3564312.7318813005 5691987.170849813 L 3566034.6785900695 5685742.324481282 L 3573198.244919386 5682792.517834052 L 3575528.112770023 5676892.819484415 L 3586006.840596076 5672728.113702008 L 3583764.4426440145 5665075.652521369 L 3582117.5519434675 5668271.790017768 L 3578798.7772993003 5667248.247223345 L 3581851.2486287467 5665001.783790859 L 3580088.37677397 5658270.178964195 L 3583664.540527587 5657171.22150579 L 3583383.060423606 5651698.879988495 L 3573767.2356044655 5652811.952876147 L 3571869.175522495 5650014.132858675 L 3573185.653422052 5645450.484684265 L 3567177.623540556 5645472.646131222 L 3568515.624298518 5641517.58432445 L 3570742.782475883 5643197.435552885 L 3574302.524281817 5638981.32835175 L 3571762.6630286835 5633277.086199465 L 3566901.173459109 5631378.442594645 L 3566734.000873523 5627081.91278851 L 3564520.416972227 5617718.124040437 L 3562073.2358358465 5612230.211679842 L 3566738.0713194893 5610456.590357519 L 3567228.334389578 5614423.7075280305 L 3570507.0136910323 5615967.263415356 L 3574366.9579191515 5615279.073961292 L 3576134.996764885 5610012.602465867 L 3574029.230775029 5608145.700535274 L 3574817.4056062475 5598257.442070338 L 3574817.4056062475 5598257.442070338 Z" fill="rgb(199,206,255)" filter="none" id="path_3" opacity="1" outline="none" role="img" stroke="#e6e6e6" stroke-linecap="round" stroke-linejoin="round" tabindex="-1" tag_name="svg/g/g_1/g_2/path_3"/>
<path aria-label="Niedersachsen, value: 136. Random data." d="M 3550632.9068574295 5935231.275175732 L 3556965.7078730096 5922524.892838276 L 3565509.551061643 5920653.881467809 L 3571948.8982978156 5924735.963958457 L 3578903.503742752 5919670.022071318 L 3588249.9672536696 5922981.087005143 L 3601710.25338207 5916543.22276526 L 3606560.234657931 5916586.270782394 L 3639785.069639627 5892100.171963231 L 3643302.495995843 5895374.819350563 L 3652231.3320433423 5889511.357454797 L 3661924.261766889 5885747.273184882 L 3673094.947764945 5881900.728252357 L 3671922.8545249584 5878200.70570627 L 3668261.3414150965 5877081.257549637 L 3668159.916324182 5870732.066162907 L 3662276.0322155575 5866329.145145593 L 3651333.268487573 5862791.574747372 L 3648934.747327384 5864932.535072092 L 3635509.530877737 5866108.087427732 L 3632019.5397876874 5860810.269305429 L 3618718.1755545707 5857485.6109101465 L 3618514.561537239 5851704.869021708 L 3621666.099287462 5844655.127411945 L 3624130.26543882 5843359.720767441 L 3630000.110323209 5833404.790216582 L 3633938.0988071673 5832809.371821166 L 3632514.916406212 5825233.89307915 L 3635920.4080108143 5820057.301913116 L 3631772.143617977 5815934.18794198 L 3641160.67654408 5806181.383280382 L 3636231.0192434615 5802737.378036592 L 3637457.8965149773 5796638.617811853 L 3642306.939090368 5789843.217983228 L 3638079.8541451683 5785463.393418401 L 3639545.494019773 5779363.059643696 L 3633454.749544749 5775329.878029357 L 3634968.641020377 5771763.776092371 L 3626913.423267653 5769958.559449606 L 3613361.9478737903 5768780.536562975 L 3607797.4707193407 5764671.333248193 L 3613030.801248 5759432.388380898 L 3610948.6257142145 5755584.021308049 L 3612899.53152235 5751066.703387752 L 3608880.397598335 5746675.8150769975 L 3609394.947188708 5739233.36624851 L 3615012.185464152 5731490.691926933 L 3617510.685025478 5723772.319455457 L 3611631.774525279 5716427.201461882 L 3605003.1711668326 5714474.037060087 L 3598512.0890342994 5718303.086549769 L 3595277.3502693637 5717559.776445547 L 3594658.192867417 5712729.295726525 L 3586116.303551669 5704751.252352434 L 3582986.951447808 5705509.990262442 L 3579943.6412702766 5700165.618110456 L 3572713.6175525445 5700091.800792761 L 3566077.570271232 5694404.325983986 L 3562896.1835305644 5698276.577285951 L 3560024.284379889 5697322.0626973845 L 3559629.6316318894 5693246.937864368 L 3557474.369672111 5696424.548241173 L 3549697.477417597 5692215.009858356 L 3553132.3127446934 5686190.034526996 L 3549624.278756638 5684174.2859604955 L 3547588.8435190055 5686762.122029556 L 3539668.6032787417 5689741.487435812 L 3540504.4158721655 5696031.611479966 L 3544011.974893511 5696296.375946417 L 3544378.4200985883 5703761.809016353 L 3541427.053028989 5708583.377967434 L 3544642.9489397793 5715322.754680851 L 3547558.9102820596 5715352.144276683 L 3543159.0281349747 5721711.628160789 L 3538023.033833986 5722871.995377094 L 3534226.890506279 5721936.523026144 L 3530455.485966136 5723798.104780388 L 3525818.084766577 5723573.956877399 L 3530138.6548991445 5737303.771619556 L 3531347.6256220187 5748185.852246471 L 3522181.9700715416 5746808.885911518 L 3523025.290853254 5752320.439378936 L 3517560.304288995 5754143.800458757 L 3519653.320367996 5759759.983291808 L 3511749.4542092225 5761204.084301241 L 3513012.1422050977 5771107.512573159 L 3509276.9756461484 5777434.945899787 L 3499759.335649229 5777670.640562741 L 3499183.639501505 5783721.944245349 L 3504814.61660289 5789111.451989876 L 3498856.973077975 5792231.21404994 L 3501228.946667198 5800697.428670202 L 3508734.190689915 5808202.516151291 L 3505512.7507341616 5818113.191433444 L 3497362.7964672055 5808264.466047473 L 3488204.8196057775 5806021.157810597 L 3480044.9075819287 5808105.862619354 L 3479867.173593628 5816213.7362615485 L 3475033.4589592386 5821106.070590851 L 3465828.110588937 5819223.887342564 L 3462486.135893324 5813475.343014539 L 3452513.9193353336 5813170.623598344 L 3454665.838416915 5807279.496333883 L 3461024.8513124967 5803711.840198222 L 3463355.0737599577 5785668.419641298 L 3465646.1563843205 5783918.488438864 L 3458464.1366839507 5775302.880153374 L 3449806.276862137 5777869.535837054 L 3443866.3179077418 5772309.655085896 L 3429320.229406042 5767538.251228197 L 3424043.0116273453 5773317.362990024 L 3430848.1481474047 5776941.421768443 L 3432793.277117916 5782578.718144247 L 3424868.898425628 5786447.462684597 L 3430006.2427960923 5797970.822235635 L 3425492.757720896 5805288.420274702 L 3420259.1575914957 5803751.527420644 L 3405503.594528638 5816570.475944586 L 3404900.1974876495 5809887.512425692 L 3392025.975762448 5798862.550247635 L 3384012.9715766446 5794350.67907946 L 3365215.740523137 5791134.424559159 L 3362238.751258955 5814902.034163928 L 3343415.361510009 5818165.060886314 L 3349108.9968962353 5836405.5838817265 L 3367138.1978925127 5836588.691144314 L 3377978.593867038 5871789.238836073 L 3379497.54384608 5902801.045782374 L 3386958.4166595987 5912384.999383846 L 3368491.197631151 5917721.1951329885 L 3373321.425652491 5941022.199813655 L 3382766.266482048 5949643.712886514 L 3430791.1632321044 5954859.576002347 L 3444864.372777223 5935897.075498169 L 3437552.1160068554 5930291.004414215 L 3447162.874310244 5920011.860073218 L 3454923.702351417 5930895.0261556925 L 3450845.0647243 5941532.442913741 L 3470633.9099116446 5931964.109596872 L 3473640.484591655 5928668.052108032 L 3476062.7607371015 5931567.964386281 L 3475199.3643792034 5941403.546886262 L 3467778.8065959434 5942795.013693129 L 3471923.858467692 5969539.960083733 L 3512239.2302019894 5970199.536577092 L 3518067.5505578616 5970323.722268975 L 3519393.374612669 5968304.841242294 L 3537537.064510547 5940886.666424505 L 3550632.9068574295 5935231.275175732 L 3550632.9068574295 5935231.275175732 M 3470648.273847517 5897758.264843376 L 3467459.372181015 5896352.760481637 L 3473997.6676363903 5894121.777871532 L 3480079.7036048737 5882942.527007969 L 3480045.6539797694 5879745.469892544 L 3491011.2500537927 5879309.938417878 L 3494265.479679691 5876757.59177478 L 3498170.5207677865 5879865.409456553 L 3498339.9930427396 5889002.585637152 L 3494135.47721026 5889523.418294046 L 3482994.359777835 5895366.568680605 L 3470648.273847517 5897758.264843376 L 3470648.273847517 5897758.264843376 Z" fill="rgb(199,206,255)" filter="none" id="path_2" opacity="1" outline="none" role="img" stroke="#e6e6e6" stroke-linecap="round" stroke-linejoin="round" tabindex="-1" tag_name="svg/g/g_1/g_2/path_2"/>
<path aria-label="Thüringen, value: 704. Random data." d="M 3728697.3410449172 5665894.003271156 L 3744176.9108976396 5663770.876914456 L 3748992.236348646 5654296.661228191 L 3756509.832149525 5646715.353460851 L 3748218.9617048698 5643708.773661053 L 3741232.331247753 5637557.604681298 L 3729672.779302678 5633487.713045458 L 3728832.100467012 5625615.079081848 L 3734759.1665375163 5620512.144633972 L 3730125.083180447 5614992.236780626 L 3725457.330858888 5614794.999065041 L 3722819.9620642923 5607572.805945337 L 3716102.61097975 5603841.316492241 L 3711847.435890186 5605288.310183126 L 3707593.3788553113 5598689.827285567 L 3706456.635733571 5590490.103557012 L 3701124.6336581926 5587599.688829285 L 3698749.364952929 5590010.143431294 L 3680049.047779332 5585432.810554866 L 3676626.67844284 5587664.6132867765 L 3675994.001566703 5590758.778758263 L 3671958.311179134 5592357.348135368 L 3672121.9713641307 5600160.7438295 L 3666404.0989981135 5600603.844222999 L 3664336.986479906 5597622.360687174 L 3659605.2232868215 5595262.229100906 L 3662238.810322443 5582653.184605444 L 3660745.4664473836 5573283.530058335 L 3656266.889733245 5572781.652331341 L 3652087.566654791 5576864.6365224905 L 3653432.929886797 5578485.113446983 L 3650284.4903703765 5583030.593772362 L 3645868.076992584 5580963.035756155 L 3641467.2303942246 5581085.145821577 L 3638188.6970979096 5585165.100702959 L 3627205.3913595304 5584768.6555711 L 3622821.4798547197 5581827.247717467 L 3622115.8301066705 5577492.526248068 L 3631003.506993749 5572109.528580066 L 3631250.605627325 5568820.599108696 L 3623502.865215389 5568663.640977269 L 3623231.202534454 5565109.5173362065 L 3615378.806168282 5566488.746700199 L 3613301.320426155 5577745.225159141 L 3610451.0868479265 5581336.118197137 L 3606720.0805508858 5580673.113767929 L 3603043.383824007 5585677.06236868 L 3599920.250670508 5585260.633164166 L 3599433.8822761257 5588255.518217417 L 3593561.5613371767 5595872.324080699 L 3587805.4131642585 5597748.057573312 L 3584213.7888737433 5602032.775187917 L 3579781.59930187 5603487.117561258 L 3574817.4056062475 5598257.442070338 L 3574029.230775029 5608145.700535274 L 3576134.996764885 5610012.602465867 L 3574366.9579191515 5615279.073961292 L 3570507.0136910323 5615967.263415356 L 3567228.334389578 5614423.7075280305 L 3566738.0713194893 5610456.590357519 L 3562073.2358358465 5612230.211679842 L 3564520.416972227 5617718.124040437 L 3566734.000873523 5627081.91278851 L 3566901.173459109 5631378.442594645 L 3571762.6630286835 5633277.086199465 L 3574302.524281817 5638981.32835175 L 3570742.782475883 5643197.435552885 L 3568515.624298518 5641517.58432445 L 3567177.623540556 5645472.646131222 L 3573185.653422052 5645450.484684265 L 3571869.175522495 5650014.132858675 L 3573767.2356044655 5652811.952876147 L 3583383.060423606 5651698.879988495 L 3583664.540527587 5657171.22150579 L 3580088.37677397 5658270.178964195 L 3581851.2486287467 5665001.783790859 L 3578798.7772993003 5667248.247223345 L 3582117.5519434675 5668271.790017768 L 3583764.4426440145 5665075.652521369 L 3586006.840596076 5672728.113702008 L 3575528.112770023 5676892.819484415 L 3573198.244919386 5682792.517834052 L 3566034.6785900695 5685742.324481282 L 3564312.7318813005 5691987.170849813 L 3566077.570271232 5694404.325983986 L 3572713.6175525445 5700091.800792761 L 3579943.6412702766 5700165.618110456 L 3582986.951447808 5705509.990262442 L 3586116.303551669 5704751.252352434 L 3594658.192867417 5712729.295726525 L 3595277.3502693637 5717559.776445547 L 3598512.0890342994 5718303.086549769 L 3605003.1711668326 5714474.037060087 L 3611631.774525279 5716427.201461882 L 3617510.685025478 5723772.319455457 L 3634798.3906453014 5719458.087059684 L 3632504.21722965 5716768.855606366 L 3639072.4658529945 5698871.243489752 L 3661128.375390556 5696690.098692731 L 3671078.403472946 5684562.721774775 L 3662981.389073545 5678154.152390896 L 3669281.7923881463 5672052.186272954 L 3670003.97100978 5665298.31771919 L 3688360.598657859 5665165.522876653 L 3691711.4629774042 5657002.067227582 L 3700671.5497429045 5657917.829044472 L 3711102.778670618 5650136.794659501 L 3721967.7634851355 5650922.120966264 L 3724984.3058717526 5648366.587107756 L 3729823.622919224 5657699.03474294 L 3728697.3410449172 5665894.003271156 L 3728697.3410449172 5665894.003271156 Z" fill="rgb(68,93,255)" filter="none" id="path_1" opacity="1" outline="none" role="img" stroke="#e6e6e6" stroke-linecap="round" stroke-linejoin="round" tabindex="-1" tag_name="svg/g/g_1/g_2/path_1"/>
<path aria-label="Brandenburg, value: 361. Random data." d="M 3858958.4675184065 5924746.690551776 L 3863006.696338428 5915868.925644566 L 3858145.8362342203 5892787.848610762 L 3845536.6696635247 5881951.784979407 L 3845024.941279496 5869707.451376062 L 3882462.763382134 5841922.455894859 L 3876679.8774116514 5824138.593258542 L 3894793.9838867425 5786961.444958149 L 3885105.197024065 5755706.962166756 L 3895439.295541347 5742171.349603848 L 3895729.9823607644 5727122.600773147 L 3881910.192487508 5727851.204191455 L 3870467.4319547503 5721757.118328907 L 3857862.632567814 5722744.221375691 L 3846067.657603694 5703199.092883993 L 3831961.931194351 5701008.763738908 L 3814794.8146041944 5702036.238915632 L 3806709.166008286 5707620.242515245 L 3791429.4246440106 5702687.054199439 L 3789159.7458350016 5722743.071923468 L 3781244.7607806674 5727749.173669612 L 3788950.7222997635 5738608.6159806 L 3787186.3117421567 5747485.4105568705 L 3791815.5008474807 5755165.881729893 L 3780081.764468115 5754179.044253616 L 3771836.83573714 5759778.760349869 L 3766349.840268464 5760146.177214226 L 3751784.0961636314 5768485.252412545 L 3747886.381236233 5765052.474715315 L 3737897.798730442 5770821.578853462 L 3734812.1546247685 5769569.3694657935 L 3723228.6656669825 5782040.103537493 L 3718700.9173543877 5789151.686089993 L 3721757.2971702325 5795806.458117374 L 3718959.61734682 5798644.475776101 L 3720737.934966553 5816927.271373965 L 3723223.1986584924 5821704.599415708 L 3717622.374930206 5827795.966662369 L 3711850.443610262 5829091.543895375 L 3718214.650892363 5844431.189156621 L 3715469.8620647853 5849748.085141778 L 3717929.500130215 5858476.429331329 L 3715667.192854435 5863903.8374439515 L 3708117.6930525554 5866440.63402295 L 3699574.5929267807 5865363.214592156 L 3690394.3300075424 5869785.547441632 L 3685470.527182492 5877043.117505904 L 3673094.947764945 5881900.728252357 L 3661924.261766889 5885747.273184882 L 3652231.3320433423 5889511.357454797 L 3660311.88007123 5888738.755857362 L 3670935.660609803 5893318.19994 L 3669396.6476244526 5899831.108549145 L 3680200.615861982 5905056.465334533 L 3683284.378220486 5901519.873612906 L 3700755.786590965 5911583.242706717 L 3703941.6063928884 5918019.748343761 L 3712076.1365221734 5919807.300273018 L 3728791.133983615 5909381.657182644 L 3763845.367036546 5903055.998006452 L 3767480.097804807 5900151.25451235 L 3777112.0423970157 5910922.546598391 L 3793795.8883584146 5913641.643195576 L 3801803.845142712 5927759.718601057 L 3812528.0683271405 5937242.981162422 L 3822905.9499626607 5941589.950112168 L 3826929.8373607565 5932832.074253613 L 3848307.6588879293 5934358.784781568 L 3848470.2881636913 5929329.485559468 L 3840283.643774234 5916498.35426272 L 3850096.896700303 5915716.214590638 L 3858958.4675184065 5924746.690551776 L 3858958.4675184065 5924746.690551776 M 3804566.4152815924 5843865.692704617 L 3802213.915613156 5845930.858216585 L 3796466.9763708967 5841442.428394116 L 3791058.6585779274 5844454.843371944 L 3785707.312560183 5840767.7494266415 L 3785070.6277251416 5836354.512590441 L 3781589.121700428 5837662.75379191 L 3780958.97441466 5829146.268900374 L 3778418.5104975295 5817224.177563966 L 3782830.3462029067 5815037.879315465 L 3792079.8344209795 5817614.5021004295 L 3801245.3895061575 5814373.904004387 L 3803208.3688719897 5818473.9252682505 L 3815681.7293974063 5814709.150564796 L 3816409.71801408 5810966.026667168 L 3820320.890532007 5814819.017183954 L 3822865.36789809 5823472.41719971 L 3816712.945713115 5827478.273147764 L 3814140.999409967 5827006.757523105 L 3815207.714945185 5832907.505403239 L 3809716.679845443 5835249.986511391 L 3804934.64337777 5840168.589985384 L 3804566.4152815924 5843865.692704617 L 3804566.4152815924 5843865.692704617 Z" fill="rgb(147,161,255)" filter="none" id="path" opacity="1" outline="none" role="img" stroke="#e6e6e6" stroke-linecap="round" stroke-linejoin="round" tabindex="-1" tag_name="svg/g/g_1/g_2/path"/>
</g>
</g>
</g>
</svg>