<?xml version="1.0" encoding="utf-8"?>
<svg height="300" width="400">
<g fill="none" font-family="sans-serif" font-size="10" text-anchor="middle" transform="translate(0,270)">
<path class="domain" d="M40.5,6V0.5H380.5V6" stroke="currentColor"/>
<g class="tick" opacity="1" transform="translate(76.66666666666669,0)">
<line stroke="currentColor" y2="6"/>
<text dy="0.71em" fill="currentColor" y="9">
        A
      </text>
</g>
<g class="tick" opacity="1" transform="translate(143.33333333333334,0)">
<line stroke="currentColor" y2="6"/>
<text dy="0.71em" fill="currentColor" y="9">
        B
      </text>
</g>
<g class="tick" opacity="1" transform="translate(210,0)">
<line stroke="currentColor" y2="6"/>
<text dy="0.71em" fill="currentColor" y="9">
        C
      </text>
</g>
<g class="tick" opacity="1" transform="translate(276.66666666666663,0)">
<line stroke="currentColor" y2="6"/>
<text dy="0.71em" fill="currentColor" y="9">
        D
      </text>
</g>
<g class="tick" opacity="1" transform="translate(343.3333333333333,0)">
<line stroke="currentColor" y2="6"/>
<text dy="0.71em" fill="currentColor" y="9">
        E
      </text>
</g>
</g>
<g fill="none" font-family="sans-serif" font-size="10" text-anchor="end" transform="translate(40,0)">
<path class="domain" d="M-6,270.5H0.5V20.5H-6" stroke="currentColor"/>
<g class="tick" opacity="1" transform="translate(0,270.5)">
<line stroke="currentColor" x2="-6"/>
<text dy="0.32em" fill="currentColor" x="-9">
        0
      </text>
</g>
<g class="tick" opacity="1" transform="translate(0,249.66666666666666)">
<line stroke="currentColor" x2="-6"/>
<text dy="0.32em" fill="currentColor" x="-9">
        5
      </text>
</g>
<g class="tick" opacity="1" transform="translate(0,228.83333333333334)">
<line stroke="currentColor" x2="-6"/>
<text dy="0.32em" fill="currentColor" x="-9">
        10
      </text>
</g>
<g class="tick" opacity="1" transform="translate(0,208)">
<line stroke="currentColor" x2="-6"/>
<text dy="0.32em" fill="currentColor" x="-9">
        15
      </text>
</g>
<g class="tick" opacity="1" transform="translate(0,187.16666666666669)">
<line stroke="currentColor" x2="-6"/>
<text dy="0.32em" fill="currentColor" x="-9">
        20
      </text>
</g>
<g class="tick" opacity="1" transform="translate(0,166.33333333333331)">
<line stroke="currentColor" x2="-6"/>
<text dy="0.32em" fill="currentColor" x="-9">
        25
      </text>
</g>
<g class="tick" opacity="1" transform="translate(0,145.5)">
<line stroke="currentColor" x2="-6"/>
<text dy="0.32em" fill="currentColor" x="-9">
        30
      </text>
</g>
<g class="tick" opacity="1" transform="translate(0,124.66666666666666)">
<line stroke="currentColor" x2="-6"/>
<text dy="0.32em" fill="currentColor" x="-9">
        35
      </text>
</g>
<g class="tick" opacity="1" transform="translate(0,103.83333333333334)">
<line stroke="currentColor" x2="-6"/>
<text dy="0.32em" fill="currentColor" x="-9">
        40
      </text>
</g>
<g class="tick" opacity="1" transform="translate(0,83)">
<line stroke="currentColor" x2="-6"/>
<text dy="0.32em" fill="currentColor" x="-9">
        45
      </text>
</g>
<g class="tick" opacity="1" transform="translate(0,62.16666666666666)">
<line stroke="currentColor" x2="-6"/>
<text dy="0.32em" fill="currentColor" x="-9">
        50
      </text>
</g>
<g class="tick" opacity="1" transform="translate(0,41.33333333333334)">
<line stroke="currentColor" x2="-6"/>
<text dy="0.32em" fill="currentColor" x="-9">
        55
      </text>
</g>
<g class="tick" opacity="1" transform="translate(0,20.5)">
<line stroke="currentColor" x2="-6"/>
<text dy="0.32em" fill="currentColor" x="-9">
        60
      </text>
</g>
</g>
<rect fill="#4CAF50" height="125" width="59.99999999999999" x="46.666666666666686" y="145"/>
<rect fill="#4CAF50" height="187.5" width="59.99999999999999" x="113.33333333333334" y="82.5"/>
<rect fill="#4CAF50" height="104.16666666666669" width="59.99999999999999" x="180" y="165.83333333333331"/>
<rect fill="#4CAF50" height="250" width="59.99999999999999" x="246.66666666666666" y="20"/>
<rect fill="#4CAF50" height="145.83333333333334" width="59.99999999999999" x="313.3333333333333" y="124.16666666666666"/>
</svg>