<?xml version="1.0" encoding="utf-8"?>
<svg font="10px sans-serif" height="auto" id="svg" max-width="100%" tag_name="svg" viewBox="-70,-30,880,340" width="900" xmlns="http://www.w3.org/2000/svg">
<g id="g_1" tag_name="svg/g_1">
<line class="st2" fill="none" id="line_55" stroke="#333333" tag_name="svg/g_1/line_55" x1="61.4" x2="61.4" y1="186" y2="145.5"/>
<line class="st2" fill="none" id="line_54" stroke="#333333" tag_name="svg/g_1/line_54" x1="73.1" x2="73.1" y1="167.9" y2="196.4"/>
<line class="st2" fill="none" id="line_53" stroke="#333333" tag_name="svg/g_1/line_53" x1="84.7" x2="84.7" y1="167.9" y2="196.4"/>
<line class="st2" fill="none" id="line_52" stroke="#333333" tag_name="svg/g_1/line_52" x1="96.4" x2="96.4" y1="209.7" y2="241.5"/>
<line class="st2" fill="none" id="line_51" stroke="#333333" tag_name="svg/g_1/line_51" x1="131.4" x2="131.4" y1="189.5" y2="243.5"/>
<line class="st2" fill="none" id="line_50" stroke="#333333" tag_name="svg/g_1/line_50" x1="178" x2="178" y1="89.2" y2="133.4"/>
<line class="st2" fill="none" id="line_49" stroke="#333333" tag_name="svg/g_1/line_49" x1="213" x2="213" y1="157.4" y2="191.8"/>
<line class="st2" fill="none" id="line_48" stroke="#333333" tag_name="svg/g_1/line_48" x1="224.6" x2="224.6" y1="168.8" y2="206.9"/>
<line class="st2" fill="none" id="line_47" stroke="#333333" tag_name="svg/g_1/line_47" x1="248" x2="248" y1="200.6" y2="236"/>
<line class="st2" fill="none" id="line_46" stroke="#333333" tag_name="svg/g_1/line_46" x1="282.9" x2="282.9" y1="136.9" y2="175.9"/>
<line class="st2" fill="none" id="line_45" stroke="#333333" tag_name="svg/g_1/line_45" x1="294.6" x2="294.6" y1="164" y2="203.1"/>
<line class="st2" fill="none" id="line_44" stroke="#333333" tag_name="svg/g_1/line_44" x1="376.2" x2="376.2" y1="144.6" y2="191.2"/>
<line class="st2" fill="none" id="line_43" stroke="#333333" tag_name="svg/g_1/line_43" x1="387.8" x2="387.8" y1="165.1" y2="195"/>
<line class="st2" fill="none" id="line_42" stroke="#333333" tag_name="svg/g_1/line_42" x1="399.5" x2="399.5" y1="147.6" y2="184.3"/>
<line class="st2" fill="none" id="line_41" stroke="#333333" tag_name="svg/g_1/line_41" x1="306.2" x2="306.2" y1="146.5" y2="218.3"/>
<line class="st2" fill="none" id="line_40" stroke="#333333" tag_name="svg/g_1/line_40" x1="329.6" x2="329.6" y1="131.3" y2="194"/>
<line class="st2" fill="none" id="line_39" stroke="#333333" tag_name="svg/g_1/line_39" x1="352.9" x2="352.9" y1="78.3" y2="126.1"/>
<line class="st2" fill="none" id="line_38" stroke="#333333" tag_name="svg/g_1/line_38" x1="341.2" x2="341.2" y1="107.4" y2="184.5"/>
<line class="st2" fill="none" id="line_37" stroke="#333333" tag_name="svg/g_1/line_37" x1="364.5" x2="364.5" y1="95.8" y2="183.6"/>
<line class="st2" fill="none" id="line_36" stroke="#333333" tag_name="svg/g_1/line_36" x1="317.9" x2="317.9" y1="138" y2="199"/>
<line class="st2" fill="none" id="line_35" stroke="#333333" tag_name="svg/g_1/line_35" x1="259.6" x2="259.6" y1="200.6" y2="254.8"/>
<line class="st2" fill="none" id="line_34" stroke="#333333" tag_name="svg/g_1/line_34" x1="271.3" x2="271.3" y1="221.1" y2="280.7"/>
<line class="st2" fill="none" id="line_33" stroke="#333333" tag_name="svg/g_1/line_33" x1="236.3" x2="236.3" y1="187.8" y2="222.4"/>
<line class="st2" fill="none" id="line_32" stroke="#333333" tag_name="svg/g_1/line_32" x1="189.7" x2="189.7" y1="72.7" y2="111.3"/>
<line class="st2" fill="none" id="line_31" stroke="#333333" tag_name="svg/g_1/line_31" x1="201.3" x2="201.3" y1="86.5" y2="176.1"/>
<line class="st2" fill="none" id="line_30" stroke="#333333" tag_name="svg/g_1/line_30" x1="154.7" x2="154.7" y1="138.3" y2="253.1"/>
<line class="st2" fill="none" id="line_29" stroke="#333333" tag_name="svg/g_1/line_29" x1="166.3" x2="166.3" y1="120.9" y2="195.7"/>
<line class="st2" fill="none" id="line_28" stroke="#333333" tag_name="svg/g_1/line_28" x1="119.7" x2="119.7" y1="239.3" y2="265"/>
<line class="st2" fill="none" id="line_27" stroke="#333333" tag_name="svg/g_1/line_27" x1="143" x2="143" y1="213.4" y2="243.5"/>
<line class="st2" fill="none" id="line_26" stroke="#333333" tag_name="svg/g_1/line_26" x1="108.1" x2="108.1" y1="237.2" y2="269"/>
<line class="st2" fill="none" id="line_25" stroke="#333333" tag_name="svg/g_1/line_25" x1="411.2" x2="411.2" y1="166" y2="204.5"/>
<line class="st2" fill="none" id="line_24" stroke="#333333" tag_name="svg/g_1/line_24" x1="422.8" x2="422.8" y1="182" y2="204.5"/>
<line class="st2" fill="none" id="line_23" stroke="#333333" tag_name="svg/g_1/line_23" x1="434.5" x2="434.5" y1="202" y2="166"/>
<line class="st2" fill="none" id="line_22" stroke="#333333" tag_name="svg/g_1/line_22" x1="446.1" x2="446.1" y1="180" y2="204.5"/>
<line class="st2" fill="none" id="line_21" stroke="#333333" tag_name="svg/g_1/line_21" x1="457.8" x2="457.8" y1="158.2" y2="221.8"/>
<line class="st2" fill="none" id="line_20" stroke="#333333" tag_name="svg/g_1/line_20" x1="469.4" x2="469.4" y1="202" y2="163.8"/>
<line class="st2" fill="none" id="line_19" stroke="#333333" tag_name="svg/g_1/line_19" x1="481.1" x2="481.1" y1="236.7" y2="175.8"/>
<line class="st2" fill="none" id="line_18" stroke="#333333" tag_name="svg/g_1/line_18" x1="492.8" x2="492.8" y1="261.6" y2="218.9"/>
<line class="st2" fill="none" id="line_17" stroke="#333333" tag_name="svg/g_1/line_17" x1="504.4" x2="504.4" y1="252.2" y2="283.3"/>
<line class="st2" fill="none" id="line_16" stroke="#333333" tag_name="svg/g_1/line_16" x1="516.1" x2="516.1" y1="281.5" y2="218.9"/>
<line class="st2" fill="none" id="line_15" stroke="#333333" tag_name="svg/g_1/line_15" x1="527.7" x2="527.7" y1="243.8" y2="218.9"/>
<line class="st2" fill="none" id="line_14" stroke="#333333" tag_name="svg/g_1/line_14" x1="539.4" x2="539.4" y1="272.1" y2="233.1"/>
<line class="st2" fill="none" id="line_13" stroke="#333333" tag_name="svg/g_1/line_13" x1="551.1" x2="551.1" y1="278.6" y2="247.7"/>
<line class="st2" fill="none" id="line_12" stroke="#333333" tag_name="svg/g_1/line_12" x1="562.7" x2="562.7" y1="236.7" y2="193.3"/>
<line class="st2" fill="none" id="line_11" stroke="#333333" tag_name="svg/g_1/line_11" x1="574.4" x2="574.4" y1="192.3" y2="229.6"/>
<line class="st2" fill="none" id="line_10" stroke="#333333" tag_name="svg/g_1/line_10" x1="586" x2="586" y1="228.2" y2="175.8"/>
<line class="st2" fill="none" id="line_9" stroke="#333333" tag_name="svg/g_1/line_9" x1="597.7" x2="597.7" y1="194" y2="229.6"/>
<line class="st2" fill="none" id="line_8" stroke="#333333" tag_name="svg/g_1/line_8" x1="609.3" x2="609.3" y1="204.5" y2="152.2"/>
<line class="st2" fill="none" id="line_7" stroke="#333333" tag_name="svg/g_1/line_7" x1="621" x2="621" y1="156.5" y2="115.8"/>
<line class="st2" fill="none" id="line_6" stroke="#333333" tag_name="svg/g_1/line_6" x1="632.7" x2="632.7" y1="121.4" y2="155.5"/>
<line class="st2" fill="none" id="line_5" stroke="#333333" tag_name="svg/g_1/line_5" x1="644.3" x2="644.3" y1="132.2" y2="198.6"/>
<line class="st2" fill="none" id="line_4" stroke="#333333" tag_name="svg/g_1/line_4" x1="656" x2="656" y1="114.8" y2="90.6"/>
<line class="st2" fill="none" id="line_3" stroke="#333333" tag_name="svg/g_1/line_3" x1="667.6" x2="667.6" y1="67" y2="129.1"/>
<line class="st2" fill="none" id="line_2" stroke="#333333" tag_name="svg/g_1/line_2" x1="679.3" x2="679.3" y1="52.1" y2="94.2"/>
<line class="st2" fill="none" id="line_1" stroke="#333333" tag_name="svg/g_1/line_1" x1="690.9" x2="690.9" y1="36.6" y2="76.4"/>
<line class="st2" fill="none" id="line" stroke="#333333" tag_name="svg/g_1/line" x1="702.6" x2="702.6" y1="58.1" y2="110.1"/>
</g>
<g id="g" tag_name="svg/g">
<rect class="st3" fill="#ED454A" height="28.5" id="rect_55" tag_name="svg/g/rect_55" width="6.8" x="58" y="153.6"/>
<rect class="st4" fill="#8CC63F" height="12" id="rect_54" tag_name="svg/g/rect_54" width="6.8" x="69.7" y="170.1"/>
<rect class="st3" fill="#ED454A" height="50.4" id="rect_53" tag_name="svg/g/rect_53" width="6.8" x="81.3" y="174"/>
<rect class="st3" fill="#ED454A" height="77.6" id="rect_52" tag_name="svg/g/rect_52" width="6.8" x="197.9" y="92.6"/>
<rect class="st3" fill="#ED454A" height="38" id="rect_51" tag_name="svg/g/rect_51" width="6.8" x="104.7" y="225.6"/>
<rect class="st4" fill="#8CC63F" height="14.1" id="rect_50" tag_name="svg/g/rect_50" width="6.8" x="116.3" y="246.1"/>
<rect class="st4" fill="#8CC63F" height="9.4" id="rect_49" tag_name="svg/g/rect_49" width="6.8" x="128" y="222.9"/>
<rect class="st3" fill="#ED454A" height="14" id="rect_48" tag_name="svg/g/rect_48" width="6.8" x="139.6" y="216.2"/>
<rect class="st3" fill="#ED454A" height="21.4" id="rect_47" tag_name="svg/g/rect_47" width="6.8" x="221.2" y="174"/>
<rect class="st3" fill="#ED454A" height="21.4" id="rect_46" tag_name="svg/g/rect_46" width="6.8" x="279.5" y="149.4"/>
<rect class="st3" fill="#ED454A" height="7.4" id="rect_45" tag_name="svg/g/rect_45" width="6.8" x="326.2" y="145.8"/>
<rect class="st3" fill="#ED454A" height="7.4" id="rect_44" tag_name="svg/g/rect_44" width="6.8" x="384.4" y="169.3"/>
<rect class="st3" fill="#ED454A" height="25.7" id="rect_43" tag_name="svg/g/rect_43" width="6.8" x="407.8" y="168.3"/>
<rect class="st3" fill="#ED454A" height="9.1" id="rect_42" tag_name="svg/g/rect_42" width="6.8" x="431.1" y="183.6"/>
<rect class="st3" fill="#ED454A" height="8" id="rect_41" tag_name="svg/g/rect_41" width="6.8" x="454.4" y="186"/>
<rect class="st3" fill="#ED454A" height="8" id="rect_40" tag_name="svg/g/rect_40" width="6.8" x="547.7" y="266.7"/>
<rect class="st3" fill="#ED454A" height="6.2" id="rect_39" tag_name="svg/g/rect_39" width="6.8" x="629.3" y="125.9"/>
<rect class="st3" fill="#ED454A" height="16.3" id="rect_38" tag_name="svg/g/rect_38" width="6.8" x="699.2" y="65.6"/>
<rect class="st3" fill="#ED454A" height="11.6" id="rect_37" tag_name="svg/g/rect_37" width="6.8" x="524.3" y="225.1"/>
<rect class="st3" fill="#ED454A" height="24.6" id="rect_36" tag_name="svg/g/rect_36" width="6.8" x="477.7" y="200.6"/>
<rect class="st3" fill="#ED454A" height="30.9" id="rect_35" tag_name="svg/g/rect_35" width="6.8" x="489.4" y="225.7"/>
<rect class="st3" fill="#ED454A" height="27.3" id="rect_34" tag_name="svg/g/rect_34" width="6.8" x="536" y="241.2"/>
<rect class="st3" fill="#ED454A" height="25.8" id="rect_33" tag_name="svg/g/rect_33" width="6.8" x="582.6" y="199.2"/>
<rect class="st3" fill="#ED454A" height="58.7" id="rect_32" tag_name="svg/g/rect_32" width="6.8" x="640.9" y="136.2"/>
<rect class="st4" fill="#8CC63F" height="25.8" id="rect_31" tag_name="svg/g/rect_31" width="6.8" x="594.3" y="197"/>
<rect class="st4" fill="#8CC63F" height="38.8" id="rect_30" tag_name="svg/g/rect_30" width="6.8" x="605.9" y="160.1"/>
<rect class="st4" fill="#8CC63F" height="31.1" id="rect_29" tag_name="svg/g/rect_29" width="6.8" x="617.6" y="122.7"/>
<rect class="st4" fill="#8CC63F" height="55.4" id="rect_28" tag_name="svg/g/rect_28" width="6.8" x="652.6" y="98.4"/>
<rect class="st4" fill="#8CC63F" height="30.9" id="rect_27" tag_name="svg/g/rect_27" width="6.8" x="664.2" y="73.7"/>
<rect class="st4" fill="#8CC63F" height="31" id="rect_26" tag_name="svg/g/rect_26" width="6.8" x="687.5" y="42.7"/>
<rect class="st4" fill="#8CC63F" height="9.9" id="rect_25" tag_name="svg/g/rect_25" width="6.8" x="675.9" y="63.8"/>
<rect class="st3" fill="#ED454A" height="23.8" id="rect_24" tag_name="svg/g/rect_24" width="6.8" x="501" y="254.8"/>
<rect class="st4" fill="#8CC63F" height="48.9" id="rect_23" tag_name="svg/g/rect_23" width="6.8" x="512.7" y="223.2"/>
<rect class="st4" fill="#8CC63F" height="31.9" id="rect_22" tag_name="svg/g/rect_22" width="6.8" x="559.3" y="199"/>
<rect class="st4" fill="#8CC63F" height="7" id="rect_21" tag_name="svg/g/rect_21" width="6.8" x="571" y="195.1"/>
<rect class="st3" fill="#ED454A" height="4" id="rect_20" tag_name="svg/g/rect_20" width="6.8" x="466" y="195"/>
<rect class="st3" fill="#ED454A" height="10.4" id="rect_19" tag_name="svg/g/rect_19" width="6.8" x="349.5" y="107.4"/>
<rect class="st3" fill="#ED454A" height="67.6" id="rect_18" tag_name="svg/g/rect_18" width="6.8" x="361.1" y="112.6"/>
<rect class="st4" fill="#8CC63F" height="44.1" id="rect_17" tag_name="svg/g/rect_17" width="6.8" x="337.8" y="114.8"/>
<rect class="st3" fill="#ED454A" height="24.8" id="rect_16" tag_name="svg/g/rect_16" width="6.8" x="291.2" y="167.9"/>
<rect class="st4" fill="#8CC63F" height="44.3" id="rect_15" tag_name="svg/g/rect_15" width="6.8" x="314.5" y="143.2"/>
<rect class="st3" fill="#ED454A" height="1.1" id="rect_14" tag_name="svg/g/rect_14" width="6.8" x="302.8" y="190.7"/>
<rect class="st4" fill="#8CC63F" height="1.1" id="rect_13" tag_name="svg/g/rect_13" width="6.8" x="372.8" y="168.3"/>
<rect class="st4" fill="#8CC63F" height="2.2" id="rect_12" tag_name="svg/g/rect_12" width="6.8" x="396.1" y="175.8"/>
<rect class="st4" fill="#8CC63F" height="7" id="rect_11" tag_name="svg/g/rect_11" width="6.8" x="419.4" y="183.6"/>
<rect class="st4" fill="#8CC63F" height="9.6" id="rect_10" tag_name="svg/g/rect_10" width="6.8" x="442.7" y="182"/>
<rect class="st3" fill="#ED454A" height="28.4" id="rect_9" tag_name="svg/g/rect_9" width="6.8" x="232.9" y="192.7"/>
<rect class="st4" fill="#8CC63F" height="18.7" id="rect_8" tag_name="svg/g/rect_8" width="6.8" x="244.6" y="206.9"/>
<rect class="st3" fill="#ED454A" height="16.4" id="rect_7" tag_name="svg/g/rect_7" width="6.8" x="256.2" y="206.9"/>
<rect class="st3" fill="#ED454A" height="29.9" id="rect_6" tag_name="svg/g/rect_6" width="6.8" x="267.9" y="230.2"/>
<rect class="st4" fill="#8CC63F" height="69.7" id="rect_5" tag_name="svg/g/rect_5" width="6.8" x="151.3" y="164.5"/>
<rect class="st4" fill="#8CC63F" height="45.6" id="rect_4" tag_name="svg/g/rect_4" width="6.8" x="162.9" y="125.9"/>
<rect class="st4" fill="#8CC63F" height="14.8" id="rect_3" tag_name="svg/g/rect_3" width="6.8" x="174.6" y="100"/>
<rect class="st4" fill="#8CC63F" height="3.2" id="rect_2" tag_name="svg/g/rect_2" width="6.8" x="186.3" y="94.8"/>
<rect class="st3" fill="#ED454A" height="5.4" id="rect_1" tag_name="svg/g/rect_1" width="6.8" x="93" y="222.9"/>
<rect class="st3" fill="#ED454A" height="2.6" id="rect" tag_name="svg/g/rect" width="6.8" x="209.6" y="168.9"/>
</g>
</svg>