<?xml version="1.0" encoding="utf-8"?>
<svg height="340" id="svg" tag_name="svg" viewBox="0,0,750,300" width="900" xmlns="http://www.w3.org/2000/svg">
<g id="g" tag_name="svg/g">
<rect fill="#94ABF5" height="23" id="rect_143" stroke="#FFFFFF" stroke-width="0.5" tag_name="svg/g/rect_143" width="54.2" x="55" y="12.1"/>
<rect fill="#7F9BF5" height="23" id="rect_142" stroke="#FFFFFF" stroke-width="0.5" tag_name="svg/g/rect_142" width="54.2" x="55" y="35.1"/>
<rect fill="#7F9BF5" height="23" id="rect_141" stroke="#FFFFFF" stroke-width="0.5" tag_name="svg/g/rect_141" width="54.2" x="55" y="58.1"/>
<rect fill="#A0ACE1" height="23" id="rect_140" stroke="#FFFFFF" stroke-width="0.5" tag_name="svg/g/rect_140" width="54.2" x="55" y="81.1"/>
<rect fill="#94ABF5" height="23" id="rect_139" stroke="#FFFFFF" stroke-width="0.5" tag_name="svg/g/rect_139" width="54.2" x="55" y="104.1"/>
<rect fill="#6E8EF5" height="23" id="rect_138" stroke="#FFFFFF" stroke-width="0.5" tag_name="svg/g/rect_138" width="54.2" x="55" y="127.1"/>
<rect fill="#6383EB" height="23" id="rect_137" stroke="#FFFFFF" stroke-width="0.5" tag_name="svg/g/rect_137" width="54.2" x="55" y="150.1"/>
<rect fill="#7F9BF5" height="23" id="rect_136" stroke="#FFFFFF" stroke-width="0.5" tag_name="svg/g/rect_136" width="54.2" x="55" y="173.1"/>
<rect fill="#94ABF5" height="23" id="rect_135" stroke="#FFFFFF" stroke-width="0.5" tag_name="svg/g/rect_135" width="54.2" x="55" y="196.1"/>
<rect fill="#6C8AEB" height="23" id="rect_134" stroke="#FFFFFF" stroke-width="0.5" tag_name="svg/g/rect_134" width="54.2" x="55" y="219.1"/>
<rect fill="#94ABF5" height="23" id="rect_133" stroke="#FFFFFF" stroke-width="0.5" tag_name="svg/g/rect_133" width="54.2" x="55" y="242.1"/>
<rect fill="#94ABF5" height="23" id="rect_132" stroke="#FFFFFF" stroke-width="0.5" tag_name="svg/g/rect_132" width="54.2" x="55" y="265.1"/>
<rect fill="#A0ACE1" height="23" id="rect_131" stroke="#FFFFFF" stroke-width="0.5" tag_name="svg/g/rect_131" width="54.2" x="109.2" y="12.1"/>
<rect fill="#7F9BF5" height="23" id="rect_130" stroke="#FFFFFF" stroke-width="0.5" tag_name="svg/g/rect_130" width="54.2" x="109.2" y="35.1"/>
<rect fill="#94ABF5" height="23" id="rect_129" stroke="#FFFFFF" stroke-width="0.5" tag_name="svg/g/rect_129" width="54.2" x="109.2" y="58.1"/>
<rect fill="#ACADCE" height="23" id="rect_128" stroke="#FFFFFF" stroke-width="0.5" tag_name="svg/g/rect_128" width="54.2" x="109.2" y="81.1"/>
<rect fill="#A0ACE1" height="23" id="rect_127" stroke="#FFFFFF" stroke-width="0.5" tag_name="svg/g/rect_127" width="54.2" x="109.2" y="104.1"/>
<rect fill="#7F9BF5" height="23" id="rect_126" stroke="#FFFFFF" stroke-width="0.5" tag_name="svg/g/rect_126" width="54.2" x="109.2" y="127.1"/>
<rect fill="#6E8EF5" height="23" id="rect_125" stroke="#FFFFFF" stroke-width="0.5" tag_name="svg/g/rect_125" width="54.2" x="109.2" y="150.1"/>
<rect fill="#94ABF5" height="23" id="rect_124" stroke="#FFFFFF" stroke-width="0.5" tag_name="svg/g/rect_124" width="54.2" x="109.2" y="173.1"/>
<rect fill="#94ABF5" height="23" id="rect_123" stroke="#FFFFFF" stroke-width="0.5" tag_name="svg/g/rect_123" width="54.2" x="109.2" y="196.1"/>
<rect fill="#7F9BF5" height="23" id="rect_122" stroke="#FFFFFF" stroke-width="0.5" tag_name="svg/g/rect_122" width="54.2" x="109.2" y="219.1"/>
<rect fill="#A0ACE1" height="23" id="rect_121" stroke="#FFFFFF" stroke-width="0.5" tag_name="svg/g/rect_121" width="54.2" x="109.2" y="242.1"/>
<rect fill="#A0ACE1" height="23" id="rect_120" stroke="#FFFFFF" stroke-width="0.5" tag_name="svg/g/rect_120" width="54.2" x="109.2" y="265.1"/>
<rect fill="#A0ACE1" height="23" id="rect_119" stroke="#FFFFFF" stroke-width="0.5" tag_name="svg/g/rect_119" width="54.2" x="163.3" y="12.1"/>
<rect fill="#94ABF5" height="23" id="rect_118" stroke="#FFFFFF" stroke-width="0.5" tag_name="svg/g/rect_118" width="54.2" x="163.3" y="35.1"/>
<rect fill="#A0ACE1" height="23" id="rect_117" stroke="#FFFFFF" stroke-width="0.5" tag_name="svg/g/rect_117" width="54.2" x="163.3" y="58.1"/>
<rect fill="#ACADCE" height="23" id="rect_116" stroke="#FFFFFF" stroke-width="0.5" tag_name="svg/g/rect_116" width="54.2" x="163.3" y="81.1"/>
<rect fill="#ACADCE" height="23" id="rect_115" stroke="#FFFFFF" stroke-width="0.5" tag_name="svg/g/rect_115" width="54.2" x="163.3" y="104.1"/>
<rect fill="#849FF5" height="23" id="rect_114" stroke="#FFFFFF" stroke-width="0.5" tag_name="svg/g/rect_114" width="54.2" x="163.3" y="127.1"/>
<rect fill="#94ABF5" height="23" id="rect_113" stroke="#FFFFFF" stroke-width="0.5" tag_name="svg/g/rect_113" width="54.2" x="163.3" y="150.1"/>
<rect fill="#ACADCE" height="23" id="rect_112" stroke="#FFFFFF" stroke-width="0.5" tag_name="svg/g/rect_112" width="54.2" x="163.3" y="173.1"/>
<rect fill="#A0ACE1" height="23" id="rect_111" stroke="#FFFFFF" stroke-width="0.5" tag_name="svg/g/rect_111" width="54.2" x="163.3" y="196.1"/>
<rect fill="#94ABF5" height="23" id="rect_110" stroke="#FFFFFF" stroke-width="0.5" tag_name="svg/g/rect_110" width="54.2" x="163.3" y="219.1"/>
<rect fill="#B8AEBA" height="23" id="rect_109" stroke="#FFFFFF" stroke-width="0.5" tag_name="svg/g/rect_109" width="54.2" x="163.3" y="242.1"/>
<rect fill="#A0ACE1" height="23" id="rect_108" stroke="#FFFFFF" stroke-width="0.5" tag_name="svg/g/rect_108" width="54.2" x="163.3" y="265.1"/>
<rect fill="#B8AEBA" height="23" id="rect_107" stroke="#FFFFFF" stroke-width="0.5" tag_name="svg/g/rect_107" width="54.2" x="217.5" y="12.1"/>
<rect fill="#A0ACE1" height="23" id="rect_106" stroke="#FFFFFF" stroke-width="0.5" tag_name="svg/g/rect_106" width="54.2" x="217.5" y="35.1"/>
<rect fill="#B8AEBA" height="23" id="rect_105" stroke="#FFFFFF" stroke-width="0.5" tag_name="svg/g/rect_105" width="54.2" x="217.5" y="58.1"/>
<rect fill="#C4AFA7" height="23" id="rect_104" stroke="#FFFFFF" stroke-width="0.5" tag_name="svg/g/rect_104" width="54.2" x="217.5" y="81.1"/>
<rect fill="#ACADCE" height="23" id="rect_103" stroke="#FFFFFF" stroke-width="0.5" tag_name="svg/g/rect_103" width="54.2" x="217.5" y="104.1"/>
<rect fill="#94ABF5" height="23" id="rect_102" stroke="#FFFFFF" stroke-width="0.5" tag_name="svg/g/rect_102" width="54.2" x="217.5" y="127.1"/>
<rect fill="#A0ACE1" height="23" id="rect_101" stroke="#FFFFFF" stroke-width="0.5" tag_name="svg/g/rect_101" width="54.2" x="217.5" y="150.1"/>
<rect fill="#C4AFA7" height="23" id="rect_100" stroke="#FFFFFF" stroke-width="0.5" tag_name="svg/g/rect_100" width="54.2" x="217.5" y="173.1"/>
<rect fill="#ACADCE" height="23" id="rect_99" stroke="#FFFFFF" stroke-width="0.5" tag_name="svg/g/rect_99" width="54.2" x="217.5" y="196.1"/>
<rect fill="#A0ACE1" height="23" id="rect_98" stroke="#FFFFFF" stroke-width="0.5" tag_name="svg/g/rect_98" width="54.2" x="217.5" y="219.1"/>
<rect fill="#DBB080" height="23" id="rect_97" stroke="#FFFFFF" stroke-width="0.5" tag_name="svg/g/rect_97" width="54.2" x="217.5" y="242.1"/>
<rect fill="#B8AEBA" height="23" id="rect_96" stroke="#FFFFFF" stroke-width="0.5" tag_name="svg/g/rect_96" width="54.2" x="217.5" y="265.1"/>
<rect fill="#B8AEBA" height="23" id="rect_95" stroke="#FFFFFF" stroke-width="0.5" tag_name="svg/g/rect_95" width="54.2" x="271.7" y="12.1"/>
<rect fill="#ACADCE" height="23" id="rect_94" stroke="#FFFFFF" stroke-width="0.5" tag_name="svg/g/rect_94" width="54.2" x="271.7" y="35.1"/>
<rect fill="#C4AFA7" height="23" id="rect_93" stroke="#FFFFFF" stroke-width="0.5" tag_name="svg/g/rect_93" width="54.2" x="271.7" y="58.1"/>
<rect fill="#C4AFA7" height="23" id="rect_92" stroke="#FFFFFF" stroke-width="0.5" tag_name="svg/g/rect_92" width="54.2" x="271.7" y="81.1"/>
<rect fill="#ACADCE" height="23" id="rect_91" stroke="#FFFFFF" stroke-width="0.5" tag_name="svg/g/rect_91" width="54.2" x="271.7" y="104.1"/>
<rect fill="#A0ACE1" height="23" id="rect_90" stroke="#FFFFFF" stroke-width="0.5" tag_name="svg/g/rect_90" width="54.2" x="271.7" y="127.1"/>
<rect fill="#B8AEBA" height="23" id="rect_89" stroke="#FFFFFF" stroke-width="0.5" tag_name="svg/g/rect_89" width="54.2" x="271.7" y="150.1"/>
<rect fill="#C4AFA7" height="23" id="rect_88" stroke="#FFFFFF" stroke-width="0.5" tag_name="svg/g/rect_88" width="54.2" x="271.7" y="173.1"/>
<rect fill="#C4AFA7" height="23" id="rect_87" stroke="#FFFFFF" stroke-width="0.5" tag_name="svg/g/rect_87" width="54.2" x="271.7" y="196.1"/>
<rect fill="#A0ACE1" height="23" id="rect_86" stroke="#FFFFFF" stroke-width="0.5" tag_name="svg/g/rect_86" width="54.2" x="271.7" y="219.1"/>
<rect fill="#E7B16C" height="23" id="rect_85" stroke="#FFFFFF" stroke-width="0.5" tag_name="svg/g/rect_85" width="54.2" x="271.7" y="242.1"/>
<rect fill="#B8AEBA" height="23" id="rect_84" stroke="#FFFFFF" stroke-width="0.5" tag_name="svg/g/rect_84" width="54.2" x="271.7" y="265.1"/>
<rect fill="#C4AFA7" height="23" id="rect_83" stroke="#FFFFFF" stroke-width="0.5" tag_name="svg/g/rect_83" width="54.2" x="325.8" y="12.1"/>
<rect fill="#B8AEBA" height="23" id="rect_82" stroke="#FFFFFF" stroke-width="0.5" tag_name="svg/g/rect_82" width="54.2" x="325.8" y="35.1"/>
<rect fill="#CFAF93" height="23" id="rect_81" stroke="#FFFFFF" stroke-width="0.5" tag_name="svg/g/rect_81" width="54.2" x="325.8" y="58.1"/>
<rect fill="#E7B16C" height="23" id="rect_80" stroke="#FFFFFF" stroke-width="0.5" tag_name="svg/g/rect_80" width="54.2" x="325.8" y="81.1"/>
<rect fill="#C4AFA7" height="23" id="rect_79" stroke="#FFFFFF" stroke-width="0.5" tag_name="svg/g/rect_79" width="54.2" x="325.8" y="104.1"/>
<rect fill="#B8AEBA" height="23" id="rect_78" stroke="#FFFFFF" stroke-width="0.5" tag_name="svg/g/rect_78" width="54.2" x="325.8" y="127.1"/>
<rect fill="#CFAF93" height="23" id="rect_77" stroke="#FFFFFF" stroke-width="0.5" tag_name="svg/g/rect_77" width="54.2" x="325.8" y="150.1"/>
<rect fill="#E7B16C" height="23" id="rect_76" stroke="#FFFFFF" stroke-width="0.5" tag_name="svg/g/rect_76" width="54.2" x="325.8" y="173.1"/>
<rect fill="#C4AFA7" height="23" id="rect_75" stroke="#FFFFFF" stroke-width="0.5" tag_name="svg/g/rect_75" width="54.2" x="325.8" y="196.1"/>
<rect fill="#ACADCE" height="23" id="rect_74" stroke="#FFFFFF" stroke-width="0.5" tag_name="svg/g/rect_74" width="54.2" x="325.8" y="219.1"/>
<rect fill="#E7B16C" height="23" id="rect_73" stroke="#FFFFFF" stroke-width="0.5" tag_name="svg/g/rect_73" width="54.2" x="325.8" y="242.1"/>
<rect fill="#C4AFA7" height="23" id="rect_72" stroke="#FFFFFF" stroke-width="0.5" tag_name="svg/g/rect_72" width="54.2" x="325.8" y="265.1"/>
<rect fill="#E7B16C" height="23" id="rect_71" stroke="#FFFFFF" stroke-width="0.5" tag_name="svg/g/rect_71" width="54.2" x="380" y="12.1"/>
<rect fill="#DBB080" height="23" id="rect_70" stroke="#FFFFFF" stroke-width="0.5" tag_name="svg/g/rect_70" width="54.2" x="380" y="35.1"/>
<rect fill="#F3B259" height="23" id="rect_69" stroke="#FFFFFF" stroke-width="0.5" tag_name="svg/g/rect_69" width="54.2" x="380" y="58.1"/>
<rect fill="#FFB345" height="23" id="rect_68" stroke="#FFFFFF" stroke-width="0.5" tag_name="svg/g/rect_68" width="54.2" x="380" y="81.1"/>
<rect fill="#CFAF93" height="23" id="rect_67" stroke="#FFFFFF" stroke-width="0.5" tag_name="svg/g/rect_67" width="54.2" x="380" y="104.1"/>
<rect fill="#B8AEBA" height="23" id="rect_66" stroke="#FFFFFF" stroke-width="0.5" tag_name="svg/g/rect_66" width="54.2" x="380" y="127.1"/>
<rect fill="#DBB080" height="23" id="rect_65" stroke="#FFFFFF" stroke-width="0.5" tag_name="svg/g/rect_65" width="54.2" x="380" y="150.1"/>
<rect fill="#F3B259" height="23" id="rect_64" stroke="#FFFFFF" stroke-width="0.5" tag_name="svg/g/rect_64" width="54.2" x="380" y="173.1"/>
<rect fill="#CFAF93" height="23" id="rect_63" stroke="#FFFFFF" stroke-width="0.5" tag_name="svg/g/rect_63" width="54.2" x="380" y="196.1"/>
<rect fill="#B8AEBA" height="23" id="rect_62" stroke="#FFFFFF" stroke-width="0.5" tag_name="svg/g/rect_62" width="54.2" x="380" y="219.1"/>
<rect fill="#FFB345" height="23" id="rect_61" stroke="#FFFFFF" stroke-width="0.5" tag_name="svg/g/rect_61" width="54.2" x="380" y="242.1"/>
<rect fill="#DBB080" height="23" id="rect_60" stroke="#FFFFFF" stroke-width="0.5" tag_name="svg/g/rect_60" width="54.2" x="380" y="265.1"/>
<rect fill="#C4AFA7" height="23" id="rect_59" stroke="#FFFFFF" stroke-width="0.5" tag_name="svg/g/rect_59" width="54.2" x="434.2" y="12.1"/>
<rect fill="#CFAF93" height="23" id="rect_58" stroke="#FFFFFF" stroke-width="0.5" tag_name="svg/g/rect_58" width="54.2" x="434.2" y="35.1"/>
<rect fill="#DBB080" height="23" id="rect_57" stroke="#FFFFFF" stroke-width="0.5" tag_name="svg/g/rect_57" width="54.2" x="434.2" y="58.1"/>
<rect fill="#F3B259" height="23" id="rect_56" stroke="#FFFFFF" stroke-width="0.5" tag_name="svg/g/rect_56" width="54.2" x="434.2" y="81.1"/>
<rect fill="#CFAF93" height="23" id="rect_55" stroke="#FFFFFF" stroke-width="0.5" tag_name="svg/g/rect_55" width="54.2" x="434.2" y="104.1"/>
<rect fill="#B8AEBA" height="23" id="rect_54" stroke="#FFFFFF" stroke-width="0.5" tag_name="svg/g/rect_54" width="54.2" x="434.2" y="127.1"/>
<rect fill="#C4AFA7" height="23" id="rect_53" stroke="#FFFFFF" stroke-width="0.5" tag_name="svg/g/rect_53" width="54.2" x="434.2" y="150.1"/>
<rect fill="#DBB080" height="23" id="rect_52" stroke="#FFFFFF" stroke-width="0.5" tag_name="svg/g/rect_52" width="54.2" x="434.2" y="173.1"/>
<rect fill="#C4AFA7" height="23" id="rect_51" stroke="#FFFFFF" stroke-width="0.5" tag_name="svg/g/rect_51" width="54.2" x="434.2" y="196.1"/>
<rect fill="#ACADCE" height="23" id="rect_50" stroke="#FFFFFF" stroke-width="0.5" tag_name="svg/g/rect_50" width="54.2" x="434.2" y="219.1"/>
<rect fill="#F3B259" height="23" id="rect_49" stroke="#FFFFFF" stroke-width="0.5" tag_name="svg/g/rect_49" width="54.2" x="434.2" y="242.1"/>
<rect fill="#CFAF93" height="23" id="rect_48" stroke="#FFFFFF" stroke-width="0.5" tag_name="svg/g/rect_48" width="54.2" x="434.2" y="265.1"/>
<rect fill="#B8AEBA" height="23" id="rect_47" stroke="#FFFFFF" stroke-width="0.5" tag_name="svg/g/rect_47" width="54.2" x="488.3" y="12.1"/>
<rect fill="#B8AEBA" height="23" id="rect_46" stroke="#FFFFFF" stroke-width="0.5" tag_name="svg/g/rect_46" width="54.2" x="488.3" y="35.1"/>
<rect fill="#C4AFA7" height="23" id="rect_45" stroke="#FFFFFF" stroke-width="0.5" tag_name="svg/g/rect_45" width="54.2" x="488.3" y="58.1"/>
<rect fill="#DBB080" height="23" id="rect_44" stroke="#FFFFFF" stroke-width="0.5" tag_name="svg/g/rect_44" width="54.2" x="488.3" y="81.1"/>
<rect fill="#B8AEBA" height="23" id="rect_43" stroke="#FFFFFF" stroke-width="0.5" tag_name="svg/g/rect_43" width="54.2" x="488.3" y="104.1"/>
<rect fill="#ACADCE" height="23" id="rect_42" stroke="#FFFFFF" stroke-width="0.5" tag_name="svg/g/rect_42" width="54.2" x="488.3" y="127.1"/>
<rect fill="#B8AEBA" height="23" id="rect_41" stroke="#FFFFFF" stroke-width="0.5" tag_name="svg/g/rect_41" width="54.2" x="488.3" y="150.1"/>
<rect fill="#C4AFA7" height="23" id="rect_40" stroke="#FFFFFF" stroke-width="0.5" tag_name="svg/g/rect_40" width="54.2" x="488.3" y="173.1"/>
<rect fill="#B8AEBA" height="23" id="rect_39" stroke="#FFFFFF" stroke-width="0.5" tag_name="svg/g/rect_39" width="54.2" x="488.3" y="196.1"/>
<rect fill="#ACADCE" height="23" id="rect_38" stroke="#FFFFFF" stroke-width="0.5" tag_name="svg/g/rect_38" width="54.2" x="488.3" y="219.1"/>
<rect fill="#DBB080" height="23" id="rect_37" stroke="#FFFFFF" stroke-width="0.5" tag_name="svg/g/rect_37" width="54.2" x="488.3" y="242.1"/>
<rect fill="#B8AEBA" height="23" id="rect_36" stroke="#FFFFFF" stroke-width="0.5" tag_name="svg/g/rect_36" width="54.2" x="488.3" y="265.1"/>
<rect fill="#ACADCE" height="23" id="rect_35" stroke="#FFFFFF" stroke-width="0.5" tag_name="svg/g/rect_35" width="54.2" x="542.5" y="12.1"/>
<rect fill="#A0ACE1" height="23" id="rect_34" stroke="#FFFFFF" stroke-width="0.5" tag_name="svg/g/rect_34" width="54.2" x="542.5" y="35.1"/>
<rect fill="#ACADCE" height="23" id="rect_33" stroke="#FFFFFF" stroke-width="0.5" tag_name="svg/g/rect_33" width="54.2" x="542.5" y="58.1"/>
<rect fill="#C4AFA7" height="23" id="rect_32" stroke="#FFFFFF" stroke-width="0.5" tag_name="svg/g/rect_32" width="54.2" x="542.5" y="81.1"/>
<rect fill="#ACADCE" height="23" id="rect_31" stroke="#FFFFFF" stroke-width="0.5" tag_name="svg/g/rect_31" width="54.2" x="542.5" y="104.1"/>
<rect fill="#A0ACE1" height="23" id="rect_30" stroke="#FFFFFF" stroke-width="0.5" tag_name="svg/g/rect_30" width="54.2" x="542.5" y="127.1"/>
<rect fill="#94ABF5" height="23" id="rect_29" stroke="#FFFFFF" stroke-width="0.5" tag_name="svg/g/rect_29" width="54.2" x="542.5" y="150.1"/>
<rect fill="#ACADCE" height="23" id="rect_28" stroke="#FFFFFF" stroke-width="0.5" tag_name="svg/g/rect_28" width="54.2" x="542.5" y="173.1"/>
<rect fill="#A0ACE1" height="23" id="rect_27" stroke="#FFFFFF" stroke-width="0.5" tag_name="svg/g/rect_27" width="54.2" x="542.5" y="196.1"/>
<rect fill="#94ABF5" height="23" id="rect_26" stroke="#FFFFFF" stroke-width="0.5" tag_name="svg/g/rect_26" width="54.2" x="542.5" y="219.1"/>
<rect fill="#C4AFA7" height="23" id="rect_25" stroke="#FFFFFF" stroke-width="0.5" tag_name="svg/g/rect_25" width="54.2" x="542.5" y="242.1"/>
<rect fill="#B8AEBA" height="23" id="rect_24" stroke="#FFFFFF" stroke-width="0.5" tag_name="svg/g/rect_24" width="54.2" x="542.5" y="265.1"/>
<rect fill="#A0ACE1" height="23" id="rect_23" stroke="#FFFFFF" stroke-width="0.5" tag_name="svg/g/rect_23" width="54.2" x="596.7" y="12.1"/>
<rect fill="#94ABF5" height="23" id="rect_22" stroke="#FFFFFF" stroke-width="0.5" tag_name="svg/g/rect_22" width="54.2" x="596.7" y="35.1"/>
<rect fill="#ACADCE" height="23" id="rect_21" stroke="#FFFFFF" stroke-width="0.5" tag_name="svg/g/rect_21" width="54.2" x="596.7" y="58.1"/>
<rect fill="#ACADCE" height="23" id="rect_20" stroke="#FFFFFF" stroke-width="0.5" tag_name="svg/g/rect_20" width="54.2" x="596.7" y="81.1"/>
<rect fill="#A0ACE1" height="23" id="rect_19" stroke="#FFFFFF" stroke-width="0.5" tag_name="svg/g/rect_19" width="54.2" x="596.7" y="104.1"/>
<rect fill="#94ABF5" height="23" id="rect_18" stroke="#FFFFFF" stroke-width="0.5" tag_name="svg/g/rect_18" width="54.2" x="596.7" y="127.1"/>
<rect fill="#849FF5" height="23" id="rect_17" stroke="#FFFFFF" stroke-width="0.5" tag_name="svg/g/rect_17" width="54.2" x="596.7" y="150.1"/>
<rect fill="#A0ACE1" height="23" id="rect_16" stroke="#FFFFFF" stroke-width="0.5" tag_name="svg/g/rect_16" width="54.2" x="596.7" y="173.1"/>
<rect fill="#94ABF5" height="23" id="rect_15" stroke="#FFFFFF" stroke-width="0.5" tag_name="svg/g/rect_15" width="54.2" x="596.7" y="196.1"/>
<rect fill="#94ABF5" height="23" id="rect_14" stroke="#FFFFFF" stroke-width="0.5" tag_name="svg/g/rect_14" width="54.2" x="596.7" y="219.1"/>
<rect fill="#ACADCE" height="23" id="rect_13" stroke="#FFFFFF" stroke-width="0.5" tag_name="svg/g/rect_13" width="54.2" x="596.7" y="242.1"/>
<rect fill="#A0ACE1" height="23" id="rect_12" stroke="#FFFFFF" stroke-width="0.5" tag_name="svg/g/rect_12" width="54.2" x="596.7" y="265.1"/>
<rect fill="#A0ACE1" height="23" id="rect_11" stroke="#FFFFFF" stroke-width="0.5" tag_name="svg/g/rect_11" width="54.2" x="650.8" y="12.1"/>
<rect fill="#7F9BF5" height="23" id="rect_10" stroke="#FFFFFF" stroke-width="0.5" tag_name="svg/g/rect_10" width="54.2" x="650.8" y="35.1"/>
<rect fill="#94ABF5" height="23" id="rect_9" stroke="#FFFFFF" stroke-width="0.5" tag_name="svg/g/rect_9" width="54.2" x="650.8" y="58.1"/>
<rect fill="#ACADCE" height="23" id="rect_8" stroke="#FFFFFF" stroke-width="0.5" tag_name="svg/g/rect_8" width="54.2" x="650.8" y="81.1"/>
<rect fill="#A0ACE1" height="23" id="rect_7" stroke="#FFFFFF" stroke-width="0.5" tag_name="svg/g/rect_7" width="54.2" x="650.8" y="104.1"/>
<rect fill="#849FF5" height="23" id="rect_6" stroke="#FFFFFF" stroke-width="0.5" tag_name="svg/g/rect_6" width="54.2" x="650.8" y="127.1"/>
<rect fill="#7F9BF5" height="23" id="rect_5" stroke="#FFFFFF" stroke-width="0.5" tag_name="svg/g/rect_5" width="54.2" x="650.8" y="150.1"/>
<rect fill="#94ABF5" height="23" id="rect_4" stroke="#FFFFFF" stroke-width="0.5" tag_name="svg/g/rect_4" width="54.2" x="650.8" y="173.1"/>
<rect fill="#94ABF5" height="23" id="rect_3" stroke="#FFFFFF" stroke-width="0.5" tag_name="svg/g/rect_3" width="54.2" x="650.8" y="196.1"/>
<rect fill="#7F9BF5" height="23" id="rect_2" stroke="#FFFFFF" stroke-width="0.5" tag_name="svg/g/rect_2" width="54.2" x="650.8" y="219.1"/>
<rect fill="#94ABF5" height="23" id="rect_1" stroke="#FFFFFF" stroke-width="0.5" tag_name="svg/g/rect_1" width="54.2" x="650.8" y="242.1"/>
<rect fill="#94ABF5" height="23" id="rect" stroke="#FFFFFF" stroke-width="0.5" tag_name="svg/g/rect" width="54.2" x="650.8" y="265.1"/>
</g>
</svg>