<?xml version="1.0" encoding="utf-8"?>
<svg height="340" id="svg" tag_name="svg" viewBox="0,0,750,300" width="900" xmlns="http://www.w3.org/2000/svg">
<rect fill="#e25959" height="11.2" id="rect_16" tag_name="svg/rect_16" width="34" x="63.2" y="273.2"/>
<rect fill="#e25959" height="19.7" id="rect_15" tag_name="svg/rect_15" width="34" x="99.7" y="264.8"/>
<rect fill="#e25959" height="16.9" id="rect_14" tag_name="svg/rect_14" width="34" x="136.4" y="267.6"/>
<rect fill="#e25959" height="37" id="rect_13" tag_name="svg/rect_13" width="34" x="173.2" y="247.5"/>
<rect fill="#e25959" height="84.4" id="rect_12" tag_name="svg/rect_12" width="34" x="210.4" y="200.1"/>
<rect fill="#e25959" height="113.4" id="rect_11" tag_name="svg/rect_11" width="34" x="246.7" y="171"/>
<rect fill="#e25959" height="105.9" id="rect_10" tag_name="svg/rect_10" width="34" x="283.8" y="178.5"/>
<rect fill="#e25959" height="219.4" id="rect_9" tag_name="svg/rect_9" width="34" x="320.5" y="65.1"/>
<rect fill="#e25959" height="253.5" id="rect_8" tag_name="svg/rect_8" width="34" x="357.3" y="31"/>
<rect fill="#e25959" height="206.3" id="rect_7" tag_name="svg/rect_7" width="34" x="394" y="78.2"/>
<rect fill="#e25959" height="195.9" id="rect_6" tag_name="svg/rect_6" width="34" x="430.7" y="88.5"/>
<rect fill="#e25959" height="135" id="rect_5" tag_name="svg/rect_5" width="34" x="467.7" y="149.5"/>
<rect fill="#e25959" height="75" id="rect_4" tag_name="svg/rect_4" width="34" x="504.2" y="209.5"/>
<rect fill="#e25959" height="31.9" id="rect_3" tag_name="svg/rect_3" width="34" x="541.2" y="252.6"/>
<rect fill="#e25959" height="21.6" id="rect_2" tag_name="svg/rect_2" width="34" x="578" y="262.9"/>
<rect fill="#e25959" height="23.4" id="rect_1" tag_name="svg/rect_1" width="34" x="614.7" y="261"/>
<rect fill="#e25959" height="15" id="rect" tag_name="svg/rect" width="34" x="651.4" y="269.5"/>
</svg>