<?xml version="1.0" encoding="utf-8"?>
<svg fill="currentColor" font-family="system-ui, sans-serif" font-size="10" height="320" id="svg" tag_name="svg" text-anchor="middle" viewBox="0 0 1152 320" width="1152" xmlns="http://www.w3.org/2000/svg" xmlns:xlink="http://www.w3.org/1999/xlink">
<g aria-hidden="true" aria-label="y-axis tick" fill="none" id="g_7" stroke="currentColor" tag_name="svg/g_7" transform="translate(0,0.5)">
<path d="M0,0L-6,0" id="path_19" tag_name="svg/g_7/path_19" transform="translate(40,290)"/>
<path d="M0,0L-6,0" id="path_18" tag_name="svg/g_7/path_18" transform="translate(40,257.62589928057554)"/>
<path d="M0,0L-6,0" id="path_17" tag_name="svg/g_7/path_17" transform="translate(40,225.25179856115108)"/>
<path d="M0,0L-6,0" id="path_16" tag_name="svg/g_7/path_16" transform="translate(40,192.87769784172662)"/>
<path d="M0,0L-6,0" id="path_15" tag_name="svg/g_7/path_15" transform="translate(40,160.50359712230215)"/>
<path d="M0,0L-6,0" id="path_14" tag_name="svg/g_7/path_14" transform="translate(40,128.1294964028777)"/>
<path d="M0,0L-6,0" id="path_13" tag_name="svg/g_7/path_13" transform="translate(40,95.75539568345324)"/>
<path d="M0,0L-6,0" id="path_12" tag_name="svg/g_7/path_12" transform="translate(40,63.38129496402878)"/>
<path d="M0,0L-6,0" id="path_11" tag_name="svg/g_7/path_11" transform="translate(40,31.007194244604307)"/>
</g>
<g aria-label="y-axis tick label" font-variant="tabular-nums" id="g_6" tag_name="svg/g_6" text-anchor="end" transform="translate(-8.5,0.5)">
<text id="text_21" tag_name="svg/g_6/text_21" transform="translate(40,290)" y="0.32em">
      0
    </text>
<text id="text_20" tag_name="svg/g_6/text_20" transform="translate(40,257.62589928057554)" y="0.32em">
      100
    </text>
<text id="text_19" tag_name="svg/g_6/text_19" transform="translate(40,225.25179856115108)" y="0.32em">
      200
    </text>
<text id="text_18" tag_name="svg/g_6/text_18" transform="translate(40,192.87769784172662)" y="0.32em">
      300
    </text>
<text id="text_17" tag_name="svg/g_6/text_17" transform="translate(40,160.50359712230215)" y="0.32em">
      400
    </text>
<text id="text_16" tag_name="svg/g_6/text_16" transform="translate(40,128.1294964028777)" y="0.32em">
      500
    </text>
<text id="text_15" tag_name="svg/g_6/text_15" transform="translate(40,95.75539568345324)" y="0.32em">
      600
    </text>
<text id="text_14" tag_name="svg/g_6/text_14" transform="translate(40,63.38129496402878)" y="0.32em">
      700
    </text>
<text id="text_13" tag_name="svg/g_6/text_13" transform="translate(40,31.007194244604307)" y="0.32em">
      800
    </text>
</g>
<g aria-label="y-axis label" id="g_5" tag_name="svg/g_5" text-anchor="start" transform="translate(-36.5,-16.5)">
<text id="text_12" tag_name="svg/g_5/text_12" transform="translate(40,20)" y="0.71em">
      ↑ Frequency
    </text>
</g>
<g aria-hidden="true" aria-label="x-axis tick" fill="none" id="g_4" stroke="currentColor" tag_name="svg/g_4" transform="translate(0.5,0)">
<path d="M0,0L0,6" id="path_10" tag_name="svg/g_4/path_10" transform="translate(40,290)"/>
<path d="M0,0L0,6" id="path_9" tag_name="svg/g_4/path_9" transform="translate(147.05882352941182,290)"/>
<path d="M0,0L0,6" id="path_8" tag_name="svg/g_4/path_8" transform="translate(254.11764705882342,290)"/>
<path d="M0,0L0,6" id="path_7" tag_name="svg/g_4/path_7" transform="translate(361.17647058823525,290)"/>
<path d="M0,0L0,6" id="path_6" tag_name="svg/g_4/path_6" transform="translate(468.23529411764713,290)"/>
<path d="M0,0L0,6" id="path_5" tag_name="svg/g_4/path_5" transform="translate(575.2941176470587,290)"/>
<path d="M0,0L0,6" id="path_4" tag_name="svg/g_4/path_4" transform="translate(682.3529411764705,290)"/>
<path d="M0,0L0,6" id="path_3" tag_name="svg/g_4/path_3" transform="translate(789.4117647058821,290)"/>
<path d="M0,0L0,6" id="path_2" tag_name="svg/g_4/path_2" transform="translate(896.470588235294,290)"/>
<path d="M0,0L0,6" id="path_1" tag_name="svg/g_4/path_1" transform="translate(1003.5294117647059,290)"/>
<path d="M0,0L0,6" id="path" tag_name="svg/g_4/path" transform="translate(1110.5882352941176,290)"/>
</g>
<g aria-label="x-axis tick label" font-variant="tabular-nums" id="g_3" tag_name="svg/g_3" transform="translate(0.5,9.5)">
<text id="text_11" tag_name="svg/g_3/text_11" transform="translate(40,290)" y="0.71em">
      1.2
    </text>
<text id="text_10" tag_name="svg/g_3/text_10" transform="translate(147.05882352941182,290)" y="0.71em">
      1.3
    </text>
<text id="text_9" tag_name="svg/g_3/text_9" transform="translate(254.11764705882342,290)" y="0.71em">
      1.4
    </text>
<text id="text_8" tag_name="svg/g_3/text_8" transform="translate(361.17647058823525,290)" y="0.71em">
      1.5
    </text>
<text id="text_7" tag_name="svg/g_3/text_7" transform="translate(468.23529411764713,290)" y="0.71em">
      1.6
    </text>
<text id="text_6" tag_name="svg/g_3/text_6" transform="translate(575.2941176470587,290)" y="0.71em">
      1.7
    </text>
<text id="text_5" tag_name="svg/g_3/text_5" transform="translate(682.3529411764705,290)" y="0.71em">
      1.8
    </text>
<text id="text_4" tag_name="svg/g_3/text_4" transform="translate(789.4117647058821,290)" y="0.71em">
      1.9
    </text>
<text id="text_3" tag_name="svg/g_3/text_3" transform="translate(896.470588235294,290)" y="0.71em">
      2.0
    </text>
<text id="text_2" tag_name="svg/g_3/text_2" transform="translate(1003.5294117647059,290)" y="0.71em">
      2.1
    </text>
<text id="text_1" tag_name="svg/g_3/text_1" transform="translate(1110.5882352941176,290)" y="0.71em">
      2.2
    </text>
</g>
<g aria-label="x-axis label" id="g_2" tag_name="svg/g_2" text-anchor="end" transform="translate(17.5,27.5)">
<text id="text" tag_name="svg/g_2/text" transform="translate(1132,290)">
      height →
    </text>
</g>
<g aria-label="rect" fill="steelblue" id="g_1" tag_name="svg/g_1">
<rect height="0.3237410071942577" id="rect_36" tag_name="svg/g_1/rect_36" width="20.411764705882376" x="255.11764705882342" y="289.67625899280574"/>
<rect height="1.294964028776974" id="rect_35" tag_name="svg/g_1/rect_35" width="20.41176470588232" x="276.5294117647058" y="288.705035971223"/>
<rect height="3.561151079136721" id="rect_34" tag_name="svg/g_1/rect_34" width="20.411764705882376" x="297.9411764705881" y="286.4388489208633"/>
<rect height="2.26618705035969" id="rect_33" tag_name="svg/g_1/rect_33" width="20.411764705882376" x="319.3529411764705" y="287.7338129496403"/>
<rect height="4.2086330935251794" id="rect_32" tag_name="svg/g_1/rect_32" width="20.411764705882376" x="340.76470588235287" y="285.7913669064748"/>
<rect height="12.625899280575595" id="rect_31" tag_name="svg/g_1/rect_31" width="20.411764705882376" x="362.17647058823525" y="277.3741007194244"/>
<rect height="25.251798561151077" id="rect_30" tag_name="svg/g_1/rect_30" width="20.411764705882376" x="383.5882352941176" y="264.7482014388489"/>
<rect height="30.107913669064715" id="rect_29" tag_name="svg/g_1/rect_29" width="20.411764705882376" x="405" y="259.8920863309353"/>
<rect height="38.52517985611513" id="rect_28" tag_name="svg/g_1/rect_28" width="20.411764705882376" x="426.4117647058824" y="251.47482014388487"/>
<rect height="62.482014388489205" id="rect_27" tag_name="svg/g_1/rect_27" width="20.411764705882376" x="447.82352941176475" y="227.5179856115108"/>
<rect height="114.60431654676262" id="rect_26" tag_name="svg/g_1/rect_26" width="20.41176470588232" x="469.23529411764713" y="175.39568345323738"/>
<rect height="127.23021582733813" id="rect_25" tag_name="svg/g_1/rect_25" width="20.41176470588215" x="490.64705882352945" y="162.76978417266187"/>
<rect height="185.50359712230215" id="rect_24" tag_name="svg/g_1/rect_24" width="20.41176470588232" x="512.0588235294116" y="104.49640287769786"/>
<rect height="156.36690647482013" id="rect_23" tag_name="svg/g_1/rect_23" width="20.41176470588232" x="533.4705882352939" y="133.63309352517987"/>
<rect height="210.75539568345323" id="rect_22" tag_name="svg/g_1/rect_22" width="20.411764705882433" x="554.8823529411762" y="79.24460431654676"/>
<rect height="270" id="rect_21" tag_name="svg/g_1/rect_21" width="20.41176470588232" x="576.2941176470587" y="20"/>
<rect height="261.58273381294964" id="rect_20" tag_name="svg/g_1/rect_20" width="20.411764705882433" x="597.705882352941" y="28.417266187050366"/>
<rect fill="red" height="247.0143884892086" id="rect_19" tag_name="svg/g_1/rect_19" width="20.41176470588232" x="619.1176470588234" y="42.98561151079137"/>
<rect fill="red" height="202.98561151079136" id="rect_18" tag_name="svg/g_1/rect_18" width="20.411764705882433" x="640.5294117647057" y="87.01438848920864"/>
<rect height="209.7841726618705" id="rect_17" tag_name="svg/g_1/rect_17" width="20.41176470588232" x="661.9411764705882" y="80.21582733812949"/>
<rect height="269.67625899280574" id="rect_16" tag_name="svg/g_1/rect_16" width="20.411764705882433" x="683.3529411764705" y="20.323741007194243"/>
<rect height="217.55395683453236" id="rect_15" tag_name="svg/g_1/rect_15" width="20.41176470588232" x="704.7647058823529" y="72.44604316546763"/>
<rect height="187.12230215827338" id="rect_14" tag_name="svg/g_1/rect_14" width="20.411764705882433" x="726.1764705882352" y="102.87769784172662"/>
<rect height="161.2230215827338" id="rect_13" tag_name="svg/g_1/rect_13" width="20.411764705882092" x="747.5882352941177" y="128.7769784172662"/>
<rect height="127.87769784172662" id="rect_12" tag_name="svg/g_1/rect_12" width="20.41176470588232" x="768.9999999999998" y="162.12230215827338"/>
<rect height="137.58992805755395" id="rect_11" tag_name="svg/g_1/rect_11" width="20.411764705882433" x="790.4117647058821" y="152.41007194244605"/>
<rect height="90" id="rect_10" tag_name="svg/g_1/rect_10" width="20.411764705882433" x="811.8235294117645" y="200"/>
<rect height="76.07913669064749" id="rect_9" tag_name="svg/g_1/rect_9" width="20.41176470588232" x="833.235294117647" y="213.9208633093525"/>
<rect height="58.92086330935251" id="rect_8" tag_name="svg/g_1/rect_8" width="20.41176470588232" x="854.6470588235293" y="231.0791366906475"/>
<rect height="41.43884892086328" id="rect_7" tag_name="svg/g_1/rect_7" width="20.411764705882433" x="876.0588235294116" y="248.56115107913672"/>
<rect height="29.460431654676256" id="rect_6" tag_name="svg/g_1/rect_6" width="20.411764705882433" x="897.470588235294" y="260.53956834532374"/>
<rect height="22.33812949640287" id="rect_5" tag_name="svg/g_1/rect_5" width="20.411764705882206" x="918.8823529411765" y="267.66187050359713"/>
<rect height="13.920863309352512" id="rect_4" tag_name="svg/g_1/rect_4" width="20.41176470588232" x="940.2941176470587" y="276.0791366906475"/>
<rect height="9.388489208633132" id="rect_3" tag_name="svg/g_1/rect_3" width="20.411764705882433" x="961.705882352941" y="280.61151079136687"/>
<rect height="6.798561151079127" id="rect_2" tag_name="svg/g_1/rect_2" width="20.411764705882433" x="983.1176470588234" y="283.2014388489209"/>
<rect height="7.446043165467643" id="rect_1" tag_name="svg/g_1/rect_1" width="20.411764705882206" x="1004.5294117647059" y="282.55395683453236"/>
<rect height="0.9712230215827162" id="rect" tag_name="svg/g_1/rect" width="20.41176470588266" x="1025.941176470588" y="289.0287769784173"/>
</g>
<g aria-label="rule" id="g" stroke="currentColor" tag_name="svg/g" transform="translate(0,0.5)">
<line id="line" tag_name="svg/g/line" x1="40" x2="1132" y1="290" y2="290"/>
</g>
</svg>