<?xml version='1.0' encoding='UTF-8'?>
<svg xmlns="http://www.w3.org/2000/svg" xmlns:xlink="http://www.w3.org/1999/xlink" height="600" id="svg" tag_name="svg" version="1.1" width="800">
<text font-family="Arial" font-size="20" font-weight="bold" id="text_4" tag_name="svg/text_4" text-anchor="middle" x="400" y="30">
    社交网络影响力分析图
  </text>
<text font-family="Arial" font-size="14" id="text_3" tag_name="svg/text_3" text-anchor="middle" x="400" y="60">
    数据来源: 社交媒体互动数据 (2023年第四季度)
  </text>
<rect fill="#f9f9f9" height="450" id="rect_1" rx="5" ry="5" stroke="#e0e0e0" stroke-width="1" tag_name="svg/rect_1" width="700" x="50" y="80"/>
<line id="line_42" stroke="#cccccc" stroke-width="1" tag_name="svg/line_42" x1="200" x2="280" y1="200" y2="250"/>
<line id="line_41" stroke="#cccccc" stroke-width="1" tag_name="svg/line_41" x1="200" x2="150" y1="200" y2="300"/>
<line id="line_40" stroke="#cccccc" stroke-width="1" tag_name="svg/line_40" x1="200" x2="300" y1="200" y2="180"/>
<line id="line_39" stroke="#cccccc" stroke-width="1" tag_name="svg/line_39" x1="280" x2="350" y1="250" y2="220"/>
<line id="line_38" stroke="#cccccc" stroke-width="1" tag_name="svg/line_38" x1="280" x2="320" y1="250" y2="300"/>
<line id="line_37" stroke="#cccccc" stroke-width="1" tag_name="svg/line_37" x1="150" x2="100" y1="300" y2="350"/>
<line id="line_36" stroke="#cccccc" stroke-width="1" tag_name="svg/line_36" x1="150" x2="220" y1="300" y2="350"/>
<line id="line_35" stroke="#cccccc" stroke-width="1" tag_name="svg/line_35" x1="300" x2="350" y1="180" y2="150"/>
<line id="line_34" stroke="#cccccc" stroke-width="1" tag_name="svg/line_34" x1="300" x2="350" y1="180" y2="220"/>
<line id="line_33" stroke="#cccccc" stroke-width="1" tag_name="svg/line_33" x1="350" x2="400" y1="220" y2="180"/>
<line id="line_32" stroke="#cccccc" stroke-width="1" tag_name="svg/line_32" x1="350" x2="400" y1="220" y2="270"/>
<line id="line_31" stroke="#cccccc" stroke-width="1" tag_name="svg/line_31" x1="320" x2="400" y1="300" y2="270"/>
<line id="line_30" stroke="#cccccc" stroke-width="1" tag_name="svg/line_30" x1="320" x2="270" y1="300" y2="370"/>
<line id="line_29" stroke="#cccccc" stroke-width="1" tag_name="svg/line_29" x1="600" x2="650" y1="250" y2="200"/>
<line id="line_28" stroke="#cccccc" stroke-width="1" tag_name="svg/line_28" x1="600" x2="550" y1="250" y2="300"/>
<line id="line_27" stroke="#cccccc" stroke-width="1" tag_name="svg/line_27" x1="600" x2="670" y1="250" y2="300"/>
<line id="line_26" stroke="#cccccc" stroke-width="1" tag_name="svg/line_26" x1="650" x2="700" y1="200" y2="180"/>
<line id="line_25" stroke="#cccccc" stroke-width="1" tag_name="svg/line_25" x1="550" x2="500" y1="300" y2="350"/>
<line id="line_24" stroke="#cccccc" stroke-width="1" tag_name="svg/line_24" x1="670" x2="720" y1="300" y2="330"/>
<line id="line_23" stroke="#cccccc" stroke-width="1" tag_name="svg/line_23" x1="400" x2="450" y1="270" y2="250"/>
<line id="line_22" stroke="#cccccc" stroke-width="1" tag_name="svg/line_22" x1="400" x2="380" y1="270" y2="330"/>
<line id="line_21" stroke="#cccccc" stroke-width="1" tag_name="svg/line_21" x1="400" x2="450" y1="270" y2="320"/>
<line id="line_20" stroke="#cccccc" stroke-width="1" tag_name="svg/line_20" x1="450" x2="500" y1="250" y2="230"/>
<line id="line_19" stroke="#cccccc" stroke-width="1" tag_name="svg/line_19" x1="450" x2="450" y1="250" y2="190"/>
<line id="line_18" stroke="#cccccc" stroke-width="1" tag_name="svg/line_18" x1="450" x2="500" y1="250" y2="300"/>
<line id="line_17" stroke="#cccccc" stroke-width="1" tag_name="svg/line_17" x1="380" x2="450" y1="330" y2="320"/>
<line id="line_16" stroke="#cccccc" stroke-width="1" tag_name="svg/line_16" x1="380" x2="330" y1="330" y2="380"/>
<line id="line_15" stroke="#cccccc" stroke-width="1" tag_name="svg/line_15" x1="450" x2="500" y1="320" y2="300"/>
<line id="line_14" stroke="#cccccc" stroke-width="1" tag_name="svg/line_14" x1="450" x2="420" y1="320" y2="380"/>
<line id="line_13" stroke="#cccccc" stroke-width="1" tag_name="svg/line_13" x1="500" x2="550" y1="230" y2="200"/>
<line id="line_12" stroke="#cccccc" stroke-width="1" tag_name="svg/line_12" x1="500" x2="450" y1="230" y2="190"/>
<line id="line_11" stroke="#cccccc" stroke-width="1" tag_name="svg/line_11" x1="500" x2="550" y1="230" y2="280"/>
<line id="line_10" stroke="#cccccc" stroke-width="1" tag_name="svg/line_10" x1="500" x2="550" y1="300" y2="280"/>
<line id="line_9" stroke="#cccccc" stroke-width="1" tag_name="svg/line_9" x1="500" x2="550" y1="300" y2="350"/>
<line id="line_8" stroke="#cccccc" stroke-width="1" tag_name="svg/line_8" x1="550" x2="600" y1="200" y2="250"/>
<line id="line_7" stroke="#cccccc" stroke-width="1" tag_name="svg/line_7" x1="550" x2="550" y1="280" y2="350"/>
<line id="line_6" stroke="#cccccc" stroke-width="1" tag_name="svg/line_6" x1="550" x2="600" y1="280" y2="250"/>
<line id="line_5" stroke="#cccccc" stroke-width="1" tag_name="svg/line_5" x1="400" x2="450" y1="180" y2="190"/>
<line id="line_4" stroke="#cccccc" stroke-width="1" tag_name="svg/line_4" x1="550" x2="500" y1="350" y2="350"/>
<line id="line_3" stroke="#cccccc" stroke-width="1" tag_name="svg/line_3" x1="270" x2="330" y1="370" y2="380"/>
<line id="line_2" stroke="#cccccc" stroke-width="1" tag_name="svg/line_2" x1="330" x2="420" y1="380" y2="380"/>
<line id="line_1" stroke="#cccccc" stroke-width="1" tag_name="svg/line_1" x1="120" x2="200" y1="150" y2="200"/>
<line id="line" stroke="#cccccc" stroke-width="1" tag_name="svg/line" x1="120" x2="100" y1="150" y2="200"/>
<circle cx="200" cy="200" fill="#90caf9" id="circle_32" r="8" stroke="#64b5f6" stroke-width="1.5" tag_name="svg/circle_32"/>
<circle cx="150" cy="300" fill="#90caf9" id="circle_31" r="8" stroke="#64b5f6" stroke-width="1.5" tag_name="svg/circle_31"/>
<circle cx="280" cy="250" fill="#90caf9" id="circle_30" r="8" stroke="#64b5f6" stroke-width="1.5" tag_name="svg/circle_30"/>
<circle cx="300" cy="180" fill="#90caf9" id="circle_29" r="8" stroke="#64b5f6" stroke-width="1.5" tag_name="svg/circle_29"/>
<circle cx="350" cy="150" fill="#90caf9" id="circle_28" r="8" stroke="#64b5f6" stroke-width="1.5" tag_name="svg/circle_28"/>
<circle cx="350" cy="220" fill="#90caf9" id="circle_27" r="8" stroke="#64b5f6" stroke-width="1.5" tag_name="svg/circle_27"/>
<circle cx="400" cy="180" fill="#90caf9" id="circle_26" r="8" stroke="#64b5f6" stroke-width="1.5" tag_name="svg/circle_26"/>
<circle cx="320" cy="300" fill="#90caf9" id="circle_25" r="8" stroke="#64b5f6" stroke-width="1.5" tag_name="svg/circle_25"/>
<circle cx="100" cy="350" fill="#90caf9" id="circle_24" r="8" stroke="#64b5f6" stroke-width="1.5" tag_name="svg/circle_24"/>
<circle cx="220" cy="350" fill="#90caf9" id="circle_23" r="8" stroke="#64b5f6" stroke-width="1.5" tag_name="svg/circle_23"/>
<circle cx="270" cy="370" fill="#90caf9" id="circle_22" r="8" stroke="#64b5f6" stroke-width="1.5" tag_name="svg/circle_22"/>
<circle cx="330" cy="380" fill="#90caf9" id="circle_21" r="8" stroke="#64b5f6" stroke-width="1.5" tag_name="svg/circle_21"/>
<circle cx="420" cy="380" fill="#90caf9" id="circle_20" r="8" stroke="#64b5f6" stroke-width="1.5" tag_name="svg/circle_20"/>
<circle cx="600" cy="250" fill="#90caf9" id="circle_19" r="8" stroke="#64b5f6" stroke-width="1.5" tag_name="svg/circle_19"/>
<circle cx="650" cy="200" fill="#90caf9" id="circle_18" r="8" stroke="#64b5f6" stroke-width="1.5" tag_name="svg/circle_18"/>
<circle cx="550" cy="300" fill="#90caf9" id="circle_17" r="8" stroke="#64b5f6" stroke-width="1.5" tag_name="svg/circle_17"/>
<circle cx="670" cy="300" fill="#90caf9" id="circle_16" r="8" stroke="#64b5f6" stroke-width="1.5" tag_name="svg/circle_16"/>
<circle cx="700" cy="180" fill="#90caf9" id="circle_15" r="8" stroke="#64b5f6" stroke-width="1.5" tag_name="svg/circle_15"/>
<circle cx="500" cy="350" fill="#90caf9" id="circle_14" r="8" stroke="#64b5f6" stroke-width="1.5" tag_name="svg/circle_14"/>
<circle cx="720" cy="330" fill="#90caf9" id="circle_13" r="8" stroke="#64b5f6" stroke-width="1.5" tag_name="svg/circle_13"/>
<circle cx="120" cy="150" fill="#90caf9" id="circle_12" r="8" stroke="#64b5f6" stroke-width="1.5" tag_name="svg/circle_12"/>
<circle cx="100" cy="200" fill="#90caf9" id="circle_11" r="8" stroke="#64b5f6" stroke-width="1.5" tag_name="svg/circle_11"/>
<circle cx="400" cy="270" fill="#90caf9" id="circle_10" r="8" stroke="#64b5f6" stroke-width="1.5" tag_name="svg/circle_10"/>
<circle cx="450" cy="250" fill="#90caf9" id="circle_9" r="8" stroke="#64b5f6" stroke-width="1.5" tag_name="svg/circle_9"/>
<circle cx="380" cy="330" fill="#90caf9" id="circle_8" r="8" stroke="#64b5f6" stroke-width="1.5" tag_name="svg/circle_8"/>
<circle cx="450" cy="320" fill="#90caf9" id="circle_7" r="8" stroke="#64b5f6" stroke-width="1.5" tag_name="svg/circle_7"/>
<circle cx="500" cy="230" fill="#90caf9" id="circle_6" r="8" stroke="#64b5f6" stroke-width="1.5" tag_name="svg/circle_6"/>
<circle cx="450" cy="190" fill="#90caf9" id="circle_5" r="8" stroke="#64b5f6" stroke-width="1.5" tag_name="svg/circle_5"/>
<circle cx="500" cy="300" fill="#90caf9" id="circle_4" r="8" stroke="#64b5f6" stroke-width="1.5" tag_name="svg/circle_4"/>
<circle cx="550" cy="200" fill="#90caf9" id="circle_3" r="8" stroke="#64b5f6" stroke-width="1.5" tag_name="svg/circle_3"/>
<circle cx="550" cy="280" fill="#90caf9" id="circle_2" r="8" stroke="#64b5f6" stroke-width="1.5" tag_name="svg/circle_2"/>
<circle cx="550" cy="350" fill="#90caf9" id="circle_1" r="8" stroke="#64b5f6" stroke-width="1.5" tag_name="svg/circle_1"/>
<rect fill="white" height="60" id="rect" rx="3" ry="3" stroke="#e0e0e0" stroke-width="1" tag_name="svg/rect" width="150" x="580" y="400"/>
<text font-family="Arial" font-size="14" font-weight="bold" id="text_2" tag_name="svg/text_2" text-anchor="middle" x="655" y="420">
    图例
  </text>
<circle cx="600" cy="445" fill="#90caf9" id="circle" r="8" stroke="#64b5f6" stroke-width="1.5" tag_name="svg/circle"/>
<text font-family="Arial" font-size="12" id="text_1" tag_name="svg/text_1" text-anchor="start" x="620" y="449">
    社交网络用户
  </text>
<text font-family="Arial" font-size="14" id="text" tag_name="svg/text" text-anchor="start" x="210" y="550">
    注: 节点表示用户，连线表示互动关系，网络中心区域连接更密集
  </text>
</svg>