<?xml version='1.0' encoding='UTF-8'?>
<svg xmlns="http://www.w3.org/2000/svg" xmlns:xlink="http://www.w3.org/1999/xlink" height="340" id="svg" tag_name="svg" viewBox="0,0,750,300" width="900"><g id="g" tag_name="svg/g"><rect fill="#3996c9" height="12.8" id="rect_75" tag_name="svg/g/rect_75" width="109.2" x="116" y="275.8"/><rect fill="#3996c9" height="12.8" id="rect_74" tag_name="svg/g/rect_74" width="117" x="108.3" y="261.8"/><rect fill="#3996c9" height="12.8" id="rect_73" tag_name="svg/g/rect_73" width="114.2" x="111" y="247.9"/><rect fill="#3996c9" height="12.8" id="rect_72" tag_name="svg/g/rect_72" width="112.5" x="112.8" y="234"/><rect fill="#3996c9" height="12.8" id="rect_71" tag_name="svg/g/rect_71" width="96.2" x="129.1" y="220.2"/><rect fill="#3996c9" height="13.5" id="rect_70" tag_name="svg/g/rect_70" width="85.8" x="139.4" y="191"/><rect fill="#3996c9" height="12.8" id="rect_69" tag_name="svg/g/rect_69" width="78.1" x="147.1" y="177.2"/><rect fill="#3996c9" height="13" id="rect_68" tag_name="svg/g/rect_68" width="80.1" x="145.2" y="162.9"/><rect fill="#3996c9" height="12.5" id="rect_67" tag_name="svg/g/rect_67" width="75.1" x="150.2" y="149.3"/><rect fill="#3996c9" height="13.2" id="rect_66" tag_name="svg/g/rect_66" width="71.1" x="154.2" y="134.7"/><rect fill="#3996c9" height="13" id="rect_65" tag_name="svg/g/rect_65" width="67.5" x="157.9" y="120.5"/><rect fill="#3996c9" height="12.8" id="rect_64" tag_name="svg/g/rect_64" width="66.5" x="158.9" y="106.7"/><rect fill="#3996c9" height="12.9" id="rect_63" tag_name="svg/g/rect_63" width="55.8" x="169.6" y="92.7"/><rect fill="#3996c9" height="12.9" id="rect_62" tag_name="svg/g/rect_62" width="44.1" x="181.2" y="78.7"/><rect fill="#3996c9" height="13.2" id="rect_61" tag_name="svg/g/rect_61" width="34.8" x="190.6" y="64.3"/><rect fill="#3996c9" height="13.2" id="rect_60" tag_name="svg/g/rect_60" width="22.8" x="202.6" y="50"/><rect fill="#3996c9" height="12.4" id="rect_59" tag_name="svg/g/rect_59" width="15.8" x="209.6" y="36.3"/><rect fill="#3996c9" height="13" id="rect_58" tag_name="svg/g/rect_58" width="7.8" x="217.6" y="22.1"/><rect fill="#3996c9" height="13.2" id="rect_57" tag_name="svg/g/rect_57" width="90" x="135.2" y="205.5"/><rect fill="#ed2d80" height="12.8" id="rect_56" tag_name="svg/g/rect_56" width="123.9" x="225.2" y="275.8"/><rect fill="#ed2d80" height="12.8" id="rect_55" tag_name="svg/g/rect_55" width="114.7" x="225.2" y="261.8"/><rect fill="#ed2d80" height="12.8" id="rect_54" tag_name="svg/g/rect_54" width="110.4" x="225.2" y="247.9"/><rect fill="#ed2d80" height="12.8" id="rect_53" tag_name="svg/g/rect_53" width="104" x="225.2" y="234"/><rect fill="#ed2d80" height="12.8" id="rect_52" tag_name="svg/g/rect_52" width="94.7" x="225.2" y="220.2"/><rect fill="#ed2d80" height="13.5" id="rect_51" tag_name="svg/g/rect_51" width="83.8" x="225.2" y="191"/><rect fill="#ed2d80" height="12.8" id="rect_50" tag_name="svg/g/rect_50" width="80.1" x="225.2" y="177.2"/><rect fill="#ed2d80" height="13" id="rect_49" tag_name="svg/g/rect_49" width="82.6" x="225.2" y="162.9"/><rect fill="#ed2d80" height="12.5" id="rect_48" tag_name="svg/g/rect_48" width="73.1" x="225.2" y="149.3"/><rect fill="#ed2d80" height="13.2" id="rect_47" tag_name="svg/g/rect_47" width="68.1" x="225.2" y="134.7"/><rect fill="#ed2d80" height="13" id="rect_46" tag_name="svg/g/rect_46" width="65" x="225.2" y="120.5"/><rect fill="#ed2d80" height="12.8" id="rect_45" tag_name="svg/g/rect_45" width="61" x="225.2" y="106.7"/><rect fill="#ed2d80" height="12.9" id="rect_44" tag_name="svg/g/rect_44" width="55.8" x="225.2" y="92.7"/><rect fill="#ed2d80" height="12.9" id="rect_43" tag_name="svg/g/rect_43" width="50.3" x="225.2" y="78.7"/><rect fill="#ed2d80" height="13.2" id="rect_42" tag_name="svg/g/rect_42" width="39.3" x="225.2" y="64.3"/><rect fill="#ed2d80" height="13.2" id="rect_41" tag_name="svg/g/rect_41" width="29.1" x="225.2" y="50"/><rect fill="#ed2d80" height="12.4" id="rect_40" tag_name="svg/g/rect_40" width="18.3" x="225.2" y="36.3"/><rect fill="#ed2d80" height="13" id="rect_39" tag_name="svg/g/rect_39" width="11.1" x="225.3" y="22.1"/><rect fill="#ed2d80" height="13.2" id="rect_38" tag_name="svg/g/rect_38" width="87" x="225.2" y="205.5"/><rect fill="#3996c9" height="12.8" id="rect_37" tag_name="svg/g/rect_37" width="85" x="461.8" y="275.8"/><rect fill="#3996c9" height="12.8" id="rect_36" tag_name="svg/g/rect_36" width="88.1" x="458.8" y="261.8"/><rect fill="#3996c9" height="12.8" id="rect_35" tag_name="svg/g/rect_35" width="87.7" x="459.2" y="247.9"/><rect fill="#3996c9" height="12.8" id="rect_34" tag_name="svg/g/rect_34" width="86.3" x="460.5" y="234"/><rect fill="#3996c9" height="12.8" id="rect_33" tag_name="svg/g/rect_33" width="83" x="463.9" y="220.2"/><rect fill="#3996c9" height="13.5" id="rect_32" tag_name="svg/g/rect_32" width="102.2" x="444.6" y="191"/><rect fill="#3996c9" height="12.8" id="rect_31" tag_name="svg/g/rect_31" width="97.8" x="449" y="177.2"/><rect fill="#3996c9" height="13" id="rect_30" tag_name="svg/g/rect_30" width="100.3" x="446.7" y="162.9"/><rect fill="#3996c9" height="12.5" id="rect_29" tag_name="svg/g/rect_29" width="97.1" x="449.9" y="149.3"/><rect fill="#3996c9" height="13.2" id="rect_28" tag_name="svg/g/rect_28" width="87.7" x="459.3" y="134.7"/><rect fill="#3996c9" height="13" id="rect_27" tag_name="svg/g/rect_27" width="79.6" x="467.4" y="120.5"/><rect fill="#3996c9" height="12.8" id="rect_26" tag_name="svg/g/rect_26" width="78.4" x="468.6" y="106.7"/><rect fill="#3996c9" height="12.9" id="rect_25" tag_name="svg/g/rect_25" width="66.4" x="480.6" y="92.7"/><rect fill="#3996c9" height="12.9" id="rect_24" tag_name="svg/g/rect_24" width="49.7" x="497.3" y="78.7"/><rect fill="#3996c9" height="13.2" id="rect_23" tag_name="svg/g/rect_23" width="36" x="511" y="64.3"/><rect fill="#3996c9" height="13.2" id="rect_22" tag_name="svg/g/rect_22" width="23.6" x="523.4" y="50"/><rect fill="#3996c9" height="12.4" id="rect_21" tag_name="svg/g/rect_21" width="13.3" x="533.7" y="36.3"/><rect fill="#3996c9" height="13" id="rect_20" tag_name="svg/g/rect_20" width="5.7" x="541.3" y="22.1"/><rect fill="#3996c9" height="13.2" id="rect_19" tag_name="svg/g/rect_19" width="95.2" x="451.7" y="205.5"/><rect fill="#ed2d80" height="12.8" id="rect_18" tag_name="svg/g/rect_18" width="88.1" x="546.9" y="275.8"/><rect fill="#ed2d80" height="12.8" id="rect_17" tag_name="svg/g/rect_17" width="96.2" x="546.9" y="261.8"/><rect fill="#ed2d80" height="12.8" id="rect_16" tag_name="svg/g/rect_16" width="90.7" x="546.9" y="247.9"/><rect fill="#ed2d80" height="12.8" id="rect_15" tag_name="svg/g/rect_15" width="90.9" x="546.9" y="234"/><rect fill="#ed2d80" height="12.8" id="rect_14" tag_name="svg/g/rect_14" width="87.3" x="546.9" y="220.2"/><rect fill="#ed2d80" height="13.5" id="rect_13" tag_name="svg/g/rect_13" width="92.8" x="546.9" y="191"/><rect fill="#ed2d80" height="12.8" id="rect_12" tag_name="svg/g/rect_12" width="99.2" x="546.9" y="177.2"/><rect fill="#ed2d80" height="13" id="rect_11" tag_name="svg/g/rect_11" width="104.7" x="546.9" y="162.9"/><rect fill="#ed2d80" height="12.5" id="rect_10" tag_name="svg/g/rect_10" width="95.4" x="546.9" y="149.3"/><rect fill="#ed2d80" height="13.2" id="rect_9" tag_name="svg/g/rect_9" width="84" x="546.9" y="134.7"/><rect fill="#ed2d80" height="13" id="rect_8" tag_name="svg/g/rect_8" width="76.8" x="546.9" y="120.5"/><rect fill="#ed2d80" height="12.8" id="rect_7" tag_name="svg/g/rect_7" width="72.1" x="546.9" y="106.7"/><rect fill="#ed2d80" height="12.9" id="rect_6" tag_name="svg/g/rect_6" width="65.4" x="546.9" y="92.7"/><rect fill="#ed2d80" height="12.9" id="rect_5" tag_name="svg/g/rect_5" width="56.3" x="546.9" y="78.7"/><rect fill="#ed2d80" height="13.2" id="rect_4" tag_name="svg/g/rect_4" width="46.8" x="546.9" y="64.3"/><rect fill="#ed2d80" height="13.2" id="rect_3" tag_name="svg/g/rect_3" width="34.7" x="546.9" y="50"/><rect fill="#ed2d80" height="12.4" id="rect_2" tag_name="svg/g/rect_2" width="21.8" x="546.9" y="36.3"/><rect fill="#ed2d80" height="13" id="rect_1" tag_name="svg/g/rect_1" width="13.2" x="546.9" y="22.1"/><rect fill="#ed2d80" height="13.2" id="rect" tag_name="svg/g/rect" width="88.9" x="546.9" y="205.5"/></g></svg>