<?xml version='1.0' encoding='UTF-8'?>
<!-- Generator: Adobe Illustrator 21.0.0, SVG Export Plug-In . SVG Version: 6.00 Build 0)  --><svg xmlns="http://www.w3.org/2000/svg" xmlns:xlink="http://www.w3.org/1999/xlink" height="340" id="svg" style="max-width: 100%; height: auto; font: 10px sans-serif;" tag_name="svg" viewBox="-70,-30,880,340" width="900"><g id="g" tag_name="svg/g"><g id="g_13" tag_name="svg/g/g_13"><polygon class="st3" fill="#0b7017" id="polygon_12" points="656.7,177.3 646.8,177.3 646.8,165.4 642.5,165.4 642.5,176.7 639.5,176.7 639.5,162.4 649.8,162.4     649.8,174.3 653.7,174.3 653.7,150.5 663,150.5 663,171.9 660,171.9 660,153.5 656.7,153.5   " tag_name="svg/g/g_13/polygon_12"/></g><g id="g_12" tag_name="svg/g/g_12"><polygon class="st3" fill="#0b7017" id="polygon_11" points="589.5,126.2 579.5,126.2 579.5,100.4 576.1,100.4 576.1,108.6 573.1,108.6 573.1,97.4 582.5,97.4     582.5,123.2 586.5,123.2 586.5,102.2 596.5,102.2 596.5,116.4 599.8,116.4 599.8,104.5 609.7,104.5 609.7,118.8 606.7,118.8     606.7,107.5 602.8,107.5 602.8,119.4 593.5,119.4 593.5,105.2 589.5,105.2   " tag_name="svg/g/g_12/polygon_11"/></g><g id="g_11" tag_name="svg/g/g_11"><polygon class="st3" fill="#0b7017" id="polygon_10" points="549.7,136.2 539.6,136.2 539.6,119.8 536.3,119.8 536.3,133.1 533.3,133.1 533.3,116.8 542.6,116.8     542.6,133.2 546.7,133.2 546.7,77.8 555.9,77.8 555.9,121.5 559.2,121.5 559.2,106.7 569.1,106.7 569.1,123.7 566.1,123.7     566.1,109.7 562.2,109.7 562.2,124.5 552.9,124.5 552.9,80.8 549.7,80.8   " tag_name="svg/g/g_11/polygon_10"/></g><g id="g_10" tag_name="svg/g/g_10"><polygon class="st3" fill="#0b7017" id="polygon_9" points="482.5,100 473.2,100 473.2,73.5 469.1,73.5 469.1,94.2 466.1,94.2 466.1,70.5 476.2,70.5 476.2,97     479.5,97 479.5,73.4 489.7,73.4 489.7,94.3 492.9,94.3 492.9,73.3 501.8,73.3 501.8,96.5 498.8,96.5 498.8,76.3 495.9,76.3     495.9,97.3 486.7,97.3 486.7,76.4 482.5,76.4   " tag_name="svg/g/g_10/polygon_9"/></g><g id="g_9" tag_name="svg/g/g_9"><polygon class="st3" fill="#0b7017" id="polygon_8" points="429.5,77.8 419.3,77.8 419.3,46.8 416.1,46.8 416.1,67.6 413.1,67.6 413.1,43.8 422.3,43.8     422.3,74.8 426.5,74.8 426.5,48.8 435.6,48.8 435.6,76.8 432.6,76.8 432.6,51.8 429.5,51.8   " tag_name="svg/g/g_9/polygon_8"/></g><g id="g_8" tag_name="svg/g/g_8"><polygon class="st3" fill="#0b7017" id="polygon_7" points="375.5,84.7 372.5,84.7 372.5,41.5 382.5,41.5 382.5,53.7 386,53.7 386,31.7 395.5,31.7 395.5,55.8     392.5,55.8 392.5,34.7 389,34.7 389,56.7 379.5,56.7 379.5,44.5 375.5,44.5   " tag_name="svg/g/g_8/polygon_7"/></g><g id="g_7" tag_name="svg/g/g_7"><polygon class="st3" fill="#0b7017" id="polygon_6" points="363.1,116.6 353,116.6 353,82.8 348.8,82.8 348.8,87.1 345.8,87.1 345.8,79.8 356,79.8 356,113.6     360.1,113.6 360.1,82.7 369.2,82.7 369.2,115.9 366.2,115.9 366.2,85.7 363.1,85.7   " tag_name="svg/g/g_7/polygon_6"/></g><g id="g_6" tag_name="svg/g/g_6"><polygon class="st3" fill="#0b7017" id="polygon_5" points="322.3,154.8 319.3,154.8 319.3,58.3 328.7,58.3 328.7,111.5 332.8,111.5 332.8,85 342.4,85     342.4,113.6 339.4,113.6 339.4,88 335.8,88 335.8,114.5 325.7,114.5 325.7,61.3 322.3,61.3   " tag_name="svg/g/g_6/polygon_5"/></g><g id="g_5" tag_name="svg/g/g_5"><polygon class="st3" fill="#0b7017" id="polygon_4" points="282.6,177.4 272.6,177.4 272.6,139.1 268.4,139.1 268.4,173.6 265.4,173.6 265.4,136.1 275.6,136.1     275.6,174.4 279.6,174.4 279.6,145.5 288.7,145.5 288.7,176.5 285.7,176.5 285.7,148.5 282.6,148.5   " tag_name="svg/g/g_5/polygon_4"/></g><g id="g_4" tag_name="svg/g/g_4"><polygon class="st3" fill="#0b7017" id="polygon_3" points="208.4,193.1 205.4,193.1 205.4,160.2 202.1,160.2 202.1,178.8 199.1,178.8 199.1,157.2 208.4,157.2       " tag_name="svg/g/g_4/polygon_3"/></g><g id="g_3" tag_name="svg/g/g_3"><polygon class="st3" fill="#0b7017" id="polygon_2" points="148.4,204 139.1,204 139.1,155.8 135.1,155.8 135.1,173.8 132.1,173.8 132.1,152.8 142.1,152.8     142.1,201 145.4,201 145.4,174.2 155.3,174.2 155.3,198.7 159.2,198.7 159.2,184.4 168.6,184.4 168.6,196.1 172.7,196.1     172.7,176.8 182.6,176.8 182.6,188.6 185.9,188.6 185.9,176.8 195,176.8 195,191 192,191 192,179.8 188.9,179.8 188.9,191.6     179.6,191.6 179.6,179.8 175.7,179.8 175.7,199.1 165.6,199.1 165.6,187.4 162.2,187.4 162.2,201.7 152.3,201.7 152.3,177.2     148.4,177.2   " tag_name="svg/g/g_3/polygon_2"/></g><g id="g_2" tag_name="svg/g/g_2"><polygon class="st3" fill="#0b7017" id="polygon_1" points="81.9,266.9 71.9,266.9 71.9,250.2 68.5,250.2 68.5,266.2 65.5,266.2 65.5,247.2 74.9,247.2     74.9,263.9 78.9,263.9 78.9,234.4 88.1,234.4 88.1,253.7 92.2,253.7 92.2,171.6 101.9,171.6 101.9,191 105.4,191 105.4,174.3     115.4,174.3 115.4,186 119.3,186 119.3,171.7 128.5,171.7 128.5,188.3 125.5,188.3 125.5,174.7 122.3,174.7 122.3,189 112.4,189     112.4,177.3 108.4,177.3 108.4,194 98.9,194 98.9,174.6 95.2,174.6 95.2,256.7 85.1,256.7 85.1,237.4 81.9,237.4   " tag_name="svg/g/g_2/polygon_1"/></g><g id="g_1" tag_name="svg/g/g_1"><polygon class="st3" fill="#0b7017" id="polygon" points="42,269.7 32,269.7 32,216.4 28.7,216.4 28.7,236.8 25.7,236.8 25.7,213.4 35,213.4 35,266.7     39,266.7 39,242.4 48.3,242.4 48.3,269.2 45.3,269.2 45.3,245.4 42,245.4   " tag_name="svg/g/g_1/polygon"/></g></g></svg>