<?xml version="1.0" encoding="utf-8"?>
<svg height="340" viewBox="-70,-30,880,340" width="900" xmlns="http://www.w3.org/2000/svg">
<circle cx="141.9" cy="223.5" fill="#22B573" opacity="0.8" r="21.1"/>
<circle cx="188.6" cy="186.1" fill="#F15A24" opacity="0.8" r="33.9"/>
<circle cx="284.9" cy="171.8" fill="#F15A24" opacity="0.8" r="24.1"/>
<circle cx="431" cy="115.7" fill="#F15A24" opacity="0.8" r="36.5"/>
<circle cx="541.4" cy="160.7" fill="#22B573" opacity="0.8" r="25.4"/>
<circle cx="591.3" cy="106.8" fill="#F15A24" opacity="0.8" r="28.5"/>
<circle cx="630.5" cy="70.2" fill="#F15A24" opacity="0.8" r="24.1"/>
<circle cx="520.1" cy="106.8" fill="#F15A24" opacity="0.8" r="16.7"/>
<circle cx="342.8" cy="152.2" fill="#22B573" opacity="0.8" r="33.9"/>
<circle cx="237.6" cy="147.8" fill="#F15A24" opacity="0.8" r="12.9"/>
<circle cx="222.5" cy="208.3" fill="#F15A24" opacity="0.8" r="15.1"/>
<circle cx="90.6" cy="260.9" fill="#F15A24" opacity="0.8" r="8"/>
<circle cx="129.8" cy="252.9" fill="#F15A24" opacity="0.8" r="16"/>
<circle cx="178.8" cy="228.8" fill="#F15A24" opacity="0.8" r="12.7"/>
<circle cx="237.6" cy="171.8" fill="#22B573" opacity="0.8" r="21.4"/>
<circle cx="299.1" cy="115.7" fill="#F15A24" opacity="0.8" r="12.5"/>
<circle cx="348.1" cy="78.3" fill="#F15A24" opacity="0.8" r="11.8"/>
<circle cx="129.8" cy="123.8" fill="#F15A24" opacity="0.8" r="11.8"/>
<circle cx="414" cy="228.8" fill="#22B573" opacity="0.8" r="13"/>
<circle cx="474.9" cy="152.2" fill="#F15A24" opacity="0.8" r="28.5"/>
<circle cx="389.1" cy="152.2" fill="#F15A24" opacity="0.8" r="8.5"/>
<circle cx="394.4" cy="90.1" fill="#F15A24" opacity="0.8" r="13.1"/>
<circle cx="467.5" cy="94.3" fill="#22B573" opacity="0.8" r="12.5"/>
<circle cx="562.8" cy="163.8" fill="#F15A24" opacity="0.8" r="16.9"/>
<circle cx="573.5" cy="79.2" fill="#F15A24" opacity="0.8" r="18.7"/>
<circle cx="606.5" cy="118.4" fill="#22B573" opacity="0.8" r="9.8"/>
<circle cx="649.1" cy="54.9" fill="#22B573" opacity="0.8" r="11.7"/>
<circle cx="365" cy="208.3" fill="#F15A24" opacity="0.8" r="11.6"/>
<circle cx="320.5" cy="202.3" fill="#F15A24" opacity="0.8" r="6.3"/>
<circle cx="178.8" cy="118.4" fill="#22B573" opacity="0.8" r="5.4"/>
<circle cx="611.8" cy="208.3" fill="#F15A24" opacity="0.8" r="7.5"/>
<circle cx="280.4" cy="90.1" fill="#22B573" opacity="0.8" r="7.8"/>
<circle cx="363.9" cy="171.8" fill="#F15A24" opacity="0.8" r="17.5"/>
</svg>