<?xml version="1.0" encoding="utf-8"?>
<svg height="340" id="svg" viewBox="50,0,800,400" width="900" xmlns="http://www.w3.org/2000/svg">
<rect fill="#3366cc" height="35" width="13" x="184" y="369"/>
<rect fill="#3366cc" height="29" width="14" x="299" y="375"/>
<rect fill="#3366cc" height="34" width="13" x="415" y="370"/>
<rect fill="#3366cc" height="30" width="14" x="530" y="374"/>
<rect fill="#3366cc" height="29" width="13" x="646" y="375"/>
<rect fill="#dc3912" height="205" width="14" x="198" y="199"/>
<rect fill="#dc3912" height="245" width="13" x="314" y="159"/>
<rect fill="#dc3912" height="256" width="14" x="429" y="148"/>
<rect fill="#dc3912" height="243" width="13" x="545" y="161"/>
<rect fill="#dc3912" height="151" width="14" x="660" y="253"/>
<rect fill="#ff9900" height="114" width="13" x="213" y="290"/>
<rect fill="#ff9900" height="131" width="14" x="328" y="273"/>
<rect fill="#ff9900" height="128" width="13" x="444" y="276"/>
<rect fill="#ff9900" height="134" width="14" x="559" y="270"/>
<rect fill="#ff9900" height="137" width="13" x="675" y="267"/>
<rect fill="#109618" height="219" width="14" x="227" y="185"/>
<rect fill="#109618" height="278" width="13" x="343" y="126"/>
<rect fill="#109618" height="177" width="14" x="458" y="227"/>
<rect fill="#109618" height="212" width="13" x="574" y="192"/>
<rect fill="#109618" height="225" width="14" x="689" y="179"/>
<rect fill="#990099" height="98" width="13" x="242" y="306"/>
<rect fill="#990099" height="62" width="14" x="357" y="342"/>
<rect fill="#990099" height="86" width="13" x="473" y="318"/>
<rect fill="#990099" height="46" width="14" x="588" y="358"/>
<rect fill="#990099" height="80" width="13" x="704" y="324"/>
</svg>