<?xml version="1.0" encoding="utf-8"?>
<svg height="340" id="svg" viewBox="0,20,1100,300" width="900" xmlns="http://www.w3.org/2000/svg">
<rect fill="#c7e9c0" height="40" width="800" x="150" y="40"/>
<rect fill="#fdae6b" height="40" width="600" x="150" y="40"/>
<rect fill="#fb6a4a" height="40" width="400" x="150" y="40"/>
<rect fill="#c7e9c0" height="40" width="800" x="150" y="140"/>
<rect fill="#fdae6b" height="40" width="600" x="150" y="140"/>
<rect fill="#fb6a4a" height="40" width="400" x="150" y="140"/>
<rect fill="#c7e9c0" height="40" width="800" x="150" y="240"/>
<rect fill="#fdae6b" height="40" width="600" x="150" y="240"/>
<rect fill="#fb6a4a" height="40" width="400" x="150" y="240"/>
<rect fill="red" height="20" width="400" x="150" y="50"/>
<rect fill="red" height="20" width="600" x="150" y="150"/>
<rect fill="red" height="20" width="500" x="150" y="250"/>
<line stroke="#800000" stroke-width="2" x1="500" x2="500" y1="30" y2="90"/>
<line stroke="#800000" stroke-width="2" x1="800" x2="800" y1="130" y2="190"/>
<line stroke="#800000" stroke-width="2" x1="700" x2="700" y1="230" y2="290"/>
</svg>