<?xml version="1.0" encoding="utf-8"?>
<svg height="340" id="svg" viewBox="0,0,800,550" width="900" xmlns="http://www.w3.org/2000/svg">
<g>
<g>
<g transform="translate(32.68656716417905,59.85074626865668) scale(2.268656716417911 2.268656716417911)">
<path aria-label="Seat A1, Unavailable" d="M 31.2647 25.7168 L 35.7783 12.2811 L 33.7839 11.6513 L 36.0932 4.82847 L 21.8177 0 L 19.5084 6.82283 L 17.5141 6.19303 L 13.1055 19.7337 C 15.8346 21.5182 27.9058 25.5069 31.2647 25.7168 Z" fill="#ccc" filter="none" opacity="1" outline="none" role="img" stroke="#e6e6e6" stroke-linecap="round" stroke-linejoin="round" tabindex="-1"/>
<path aria-label="Seat A2, Unavailable" d="M 56.501 32.5397 L 60.2798 18.789 L 58.2854 18.2642 L 60.1748 11.3364 L 45.5844 7.34766 L 43.5901 14.3804 L 41.5957 13.8556 L 37.9219 27.6062 C 40.8609 29.2857 53.142 32.5397 56.501 32.5397 Z" fill="#ccc" filter="none" opacity="1" outline="none" role="img" stroke="#e6e6e6" stroke-linecap="round" stroke-linejoin="round" tabindex="-1"/>
<path aria-label="Seat A3, Available" d="M 93.4472 40.0975 L 95.4416 26.032 L 93.4472 25.7171 L 94.3919 18.5793 L 79.3817 16.585 L 78.437 23.7227 L 76.4426 23.4078 L 74.6582 37.4733 C 77.4923 38.8379 90.0883 40.5174 93.4472 40.0975 Z" fill="#2caffe" filter="none" opacity="1" outline="none" role="img" stroke="#e6e6e6" stroke-linecap="round" stroke-linejoin="round" tabindex="-1"/>
<path aria-label="Seat A4, Available" d="M 118.476 43.8763 L 120.051 29.7058 L 118.056 29.4959 L 118.896 22.3582 L 103.781 20.6787 L 103.046 27.8164 L 101.052 27.6065 L 99.582 41.777 C 102.521 43.0366 115.222 44.4012 118.476 43.8763 Z" fill="#2caffe" filter="none" opacity="1" outline="none" role="img" stroke="#e6e6e6" stroke-linecap="round" stroke-linejoin="round" tabindex="-1"/>
<path aria-label="Seat A5, Available" d="M 144.495 45.1353 L 145.019 30.9648 L 142.92 30.8598 L 143.13 23.6171 L 128.015 23.0923 L 127.805 30.335 L 125.706 30.23 L 125.391 44.5055 C 128.54 45.4502 141.241 45.8701 144.495 45.1353 Z" fill="#2caffe" filter="none" opacity="1" outline="none" role="img" stroke="#e6e6e6" stroke-linecap="round" stroke-linejoin="round" tabindex="-1"/>
<path aria-label="Seat A6, Available" d="M 170 45 L 170 31 L 168 31 L 168 23.5 L 153 23 L 153 30 L 151 30 L 151 45 C 163.5 46 166 46 170 45 Z" fill="#2caffe" filter="none" opacity="1" outline="none" role="img" stroke="#e6e6e6" stroke-linecap="round" stroke-linejoin="round" tabindex="-1"/>
<path aria-label="Seat A7, Available" d="M 196.332 44.7154 L 196.017 30.44 L 193.918 30.5449 L 193.708 23.3022 L 178.593 23.7221 L 178.802 30.9648 L 176.703 31.0698 L 177.123 45.2403 C 180.377 45.975 193.183 45.6601 196.332 44.7154 Z" fill="#2caffe" filter="none" opacity="1" outline="none" role="img" stroke="#e6e6e6" stroke-linecap="round" stroke-linejoin="round" tabindex="-1"/>
<path aria-label="Seat A8, Available" d="M 222.18 43.5353 L 221.222 29.3316 L 219.222 29.4844 L 218.692 22.3285 L 203.538 23.4698 L 204.068 30.6256 L 202.069 30.7784 L 203.237 44.9881 C 206.37 45.6029 219.105 44.6024 222.18 43.5353 Z" fill="#2caffe" filter="none" opacity="1" outline="none" role="img" stroke="#e6e6e6" stroke-linecap="round" stroke-linejoin="round" tabindex="-1"/>
<path aria-label="Seat A9, Available" d="M 248.162 39.1525 L 246.378 25.087 L 244.384 25.4019 L 243.439 18.2642 L 228.429 20.2585 L 229.373 27.3963 L 227.379 27.7112 L 229.268 41.7767 C 232.522 41.9866 245.118 40.4121 248.162 39.1525 Z" fill="#2caffe" filter="none" opacity="1" outline="none" role="img" stroke="#e6e6e6" stroke-linecap="round" stroke-linejoin="round" tabindex="-1"/>
<path aria-label="Seat A10, Available" d="M 283.324 30.0203 L 279.965 16.2696 L 277.971 16.7945 L 276.187 9.76172 L 261.491 13.3306 L 263.276 20.3634 L 261.281 20.8882 L 264.85 34.6388 C 267.999 34.6388 280.385 31.5948 283.324 30.0203 Z" fill="#2caffe" filter="none" opacity="1" outline="none" role="img" stroke="#e6e6e6" stroke-linecap="round" stroke-linejoin="round" tabindex="-1"/>
<path aria-label="Seat A11, Unavailable" d="M 310.092 22.4627 L 306.208 8.81703 L 304.214 9.34186 L 302.219 2.41406 L 287.629 6.61273 L 289.623 13.5405 L 287.629 14.0654 L 291.618 27.711 C 295.082 27.711 307.258 24.1422 310.092 22.4627 Z" fill="#ccc" filter="none" opacity="1" outline="none" role="img" stroke="#e6e6e6" stroke-linecap="round" stroke-linejoin="round" tabindex="-1"/>
<path aria-label="Seat B1, Unavailable" d="M 31.2647 51.0518 L 35.7783 37.6161 L 33.7839 36.9863 L 36.0932 30.1634 L 21.7127 25.335 L 19.4035 32.1578 L 17.5141 31.423 L 13.1055 44.9637 C 15.8346 46.7482 27.9058 50.8419 31.2647 51.0518 Z" fill="#ccc" filter="none" opacity="1" outline="none" role="img" stroke="#e6e6e6" stroke-linecap="round" stroke-linejoin="round" tabindex="-1"/>
<path aria-label="Seat B2, Available" d="M 56.4995 57.8746 L 60.2783 44.124 L 58.284 43.5991 L 60.1734 36.6713 L 45.583 32.6826 L 43.6936 39.6104 L 41.6992 39.0856 L 38.0254 52.8362 C 40.8595 54.5157 53.1406 57.8746 56.4995 57.8746 Z" fill="#2caffe" filter="none" opacity="1" outline="none" role="img" stroke="#e6e6e6" stroke-linecap="round" stroke-linejoin="round" tabindex="-1"/>
<path aria-label="Seat B3, Unavailable" d="M 93.4472 65.432 L 95.4416 51.3664 L 93.4472 51.0515 L 94.3919 43.9138 L 79.3817 41.9194 L 78.437 49.0572 L 76.4426 48.7423 L 74.6582 62.8078 C 77.4923 64.0674 90.0883 65.7469 93.4472 65.432 Z" fill="#ccc" filter="none" opacity="1" outline="none" role="img" stroke="#e6e6e6" stroke-linecap="round" stroke-linejoin="round" tabindex="-1"/>
<path aria-label="Seat B4, Unavailable" d="M 118.476 69.2113 L 120.05 55.0408 L 118.056 54.8309 L 118.895 47.6931 L 103.885 46.0137 L 103.15 53.1514 L 101.156 52.9415 L 99.4766 67.112 C 102.521 68.2666 115.222 69.6312 118.476 69.2113 Z" fill="#ccc" filter="none" opacity="1" outline="none" role="img" stroke="#e6e6e6" stroke-linecap="round" stroke-linejoin="round" tabindex="-1"/>
<path aria-label="Seat B5, Available" d="M 144.495 70.3658 L 145.019 56.1953 L 142.92 56.0903 L 143.13 48.8476 L 128.015 48.3228 L 127.805 55.5655 L 125.706 55.4605 L 125.391 69.736 C 128.54 70.6807 141.241 71.1005 144.495 70.3658 Z" fill="#2caffe" filter="none" opacity="1" outline="none" role="img" stroke="#e6e6e6" stroke-linecap="round" stroke-linejoin="round" tabindex="-1"/>
<path aria-label="Seat B6, Available" d="M 170 70.6808 L 170 56.5103 L 168 56.5103 L 168 49.2676 L 152.935 49.2676 L 152.935 56.5103 L 150.836 56.5103 L 150.836 70.6808 C 154.09 71.5205 166.791 71.5205 170 70.6808 Z" fill="#2caffe" filter="none" opacity="1" outline="none" role="img" stroke="#e6e6e6" stroke-linecap="round" stroke-linejoin="round" tabindex="-1"/>
<path aria-label="Seat B7, Available" d="M 196.332 69.9459 L 196.017 55.7754 L 193.918 55.8804 L 193.708 48.6377 L 178.593 49.0576 L 178.802 56.3003 L 176.703 56.4052 L 177.123 70.5757 C 180.377 71.2055 193.183 70.8906 196.332 69.9459 Z" fill="#2caffe" filter="none" opacity="1" outline="none" role="img" stroke="#e6e6e6" stroke-linecap="round" stroke-linejoin="round" tabindex="-1"/>
<path aria-label="Seat B8, Available" d="M 222.182 68.7668 L 221.119 54.5601 L 219.119 54.7129 L 218.589 47.557 L 203.435 48.6983 L 203.965 55.8541 L 201.965 56.0069 L 203.134 70.2166 C 206.371 70.8344 219.103 69.9388 222.182 68.7668 Z" fill="#2caffe" filter="none" opacity="1" outline="none" role="img" stroke="#e6e6e6" stroke-linecap="round" stroke-linejoin="round" tabindex="-1"/>
<path aria-label="Seat B9, Available" d="M 248.162 64.3825 L 246.378 50.317 L 244.384 50.6319 L 243.439 43.4941 L 228.429 45.4885 L 229.373 52.6262 L 227.379 52.9411 L 229.268 67.0067 C 232.522 67.3216 245.118 65.6421 248.162 64.3825 Z" fill="#2caffe" filter="none" opacity="1" outline="none" role="img" stroke="#e6e6e6" stroke-linecap="round" stroke-linejoin="round" tabindex="-1"/>
<path aria-label="Seat B10, Available" d="M 283.324 55.2508 L 279.965 41.5001 L 277.971 42.025 L 276.187 34.9922 L 261.491 38.666 L 263.276 45.6988 L 261.281 46.2236 L 264.85 59.9742 C 267.999 59.9742 280.385 56.8253 283.324 55.2508 Z" fill="#2caffe" filter="none" opacity="1" outline="none" role="img" stroke="#e6e6e6" stroke-linecap="round" stroke-linejoin="round" tabindex="-1"/>
<path aria-label="Seat B11, Available" d="M 310.092 47.7981 L 306.208 34.1525 L 304.214 34.6773 L 302.219 27.7495 L 287.629 31.9482 L 289.623 38.876 L 287.629 39.4008 L 291.618 53.0465 C 295.082 53.0465 307.258 49.4776 310.092 47.7981 Z" fill="#2caffe" filter="none" opacity="1" outline="none" role="img" stroke="#e6e6e6" stroke-linecap="round" stroke-linejoin="round" tabindex="-1"/>
<path aria-label="Seat C1, Available" d="M 31.2642 77.2271 L 35.7778 63.7913 L 33.7834 63.1616 L 36.0927 56.3387 L 21.7122 51.5103 L 19.403 58.3331 L 17.4086 57.7033 L 13 71.244 C 15.8341 72.9234 27.9053 77.0172 31.2642 77.2271 Z" fill="#2caffe" filter="none" opacity="1" outline="none" role="img" stroke="#e6e6e6" stroke-linecap="round" stroke-linejoin="round" tabindex="-1"/>
<path aria-label="Seat C2, Available" d="M 56.501 84.0499 L 60.2798 70.2993 L 58.2854 69.7744 L 60.1748 62.8466 L 45.5844 58.8579 L 43.695 65.7857 L 41.5957 65.2609 L 37.9219 79.0115 C 40.8609 80.691 53.142 84.0499 56.501 84.0499 Z" fill="#2caffe" filter="none" opacity="1" outline="none" role="img" stroke="#e6e6e6" stroke-linecap="round" stroke-linejoin="round" tabindex="-1"/>
<path aria-label="Seat C3, Available" d="M 93.4472 91.6073 L 95.4416 77.5417 L 93.4472 77.2268 L 94.3919 70.0891 L 79.3817 68.0947 L 78.437 75.2325 L 76.4426 74.9176 L 74.6582 88.9831 C 77.4923 90.2427 90.0883 91.9222 93.4472 91.6073 Z" fill="#2caffe" filter="none" opacity="1" outline="none" role="img" stroke="#e6e6e6" stroke-linecap="round" stroke-linejoin="round" tabindex="-1"/>
<path aria-label="Seat C4, Available" d="M 118.475 95.3861 L 120.049 81.2156 L 118.055 81.0057 L 118.894 73.8679 L 103.884 72.1885 L 103.149 79.3262 L 101.155 79.1163 L 99.6855 93.2868 C 102.52 94.4414 115.221 95.806 118.475 95.3861 Z" fill="#2caffe" filter="none" opacity="1" outline="none" role="img" stroke="#e6e6e6" stroke-linecap="round" stroke-linejoin="round" tabindex="-1"/>
<path aria-label="Seat C5, Unavailable" d="M 144.494 96.541 L 145.019 82.3705 L 142.92 82.2656 L 143.129 75.0229 L 128.014 74.498 L 127.804 81.7407 L 125.705 81.6358 L 125.285 95.8063 C 128.539 96.8559 141.24 97.2758 144.494 96.541 Z" fill="#ccc" filter="none" opacity="1" outline="none" role="img" stroke="#e6e6e6" stroke-linecap="round" stroke-linejoin="round" tabindex="-1"/>
<path aria-label="Seat C6, Unavailable" d="M 170.045 96.8561 L 170.15 82.6856 L 168.05 82.6856 L 168.05 75.4429 L 152.935 75.4429 L 152.935 82.6856 L 150.836 82.6856 L 150.836 96.8561 C 154.09 97.6958 166.791 97.6958 170.045 96.8561 Z" fill="#ccc" filter="none" opacity="1" outline="none" role="img" stroke="#e6e6e6" stroke-linecap="round" stroke-linejoin="round" tabindex="-1"/>
<path aria-label="Seat C7, Available" d="M 196.332 96.1207 L 196.017 81.9502 L 193.918 82.0552 L 193.708 74.8125 L 178.593 75.2324 L 178.802 82.4751 L 176.703 82.58 L 177.123 96.7505 C 180.377 97.3803 193.183 97.0654 196.332 96.1207 Z" fill="#2caffe" filter="none" opacity="1" outline="none" role="img" stroke="#e6e6e6" stroke-linecap="round" stroke-linejoin="round" tabindex="-1"/>
<path aria-label="Seat C8, Available" d="M 222.182 94.9421 L 221.119 80.7354 L 219.119 80.8881 L 218.589 73.7323 L 203.435 74.8736 L 203.965 82.0294 L 201.965 82.1822 L 203.134 96.3919 C 206.371 97.0097 219.103 96.1141 222.182 94.9421 Z" fill="#2caffe" filter="none" opacity="1" outline="none" role="img" stroke="#e6e6e6" stroke-linecap="round" stroke-linejoin="round" tabindex="-1"/>
<path aria-label="Seat C9, Available" d="M 248.162 90.5578 L 246.378 76.4923 L 244.384 76.8072 L 243.439 69.6694 L 228.429 71.5588 L 229.373 78.6966 L 227.379 79.0115 L 229.268 93.077 C 232.522 93.4969 245.118 91.8174 248.162 90.5578 Z" fill="#2caffe" filter="none" opacity="1" outline="none" role="img" stroke="#e6e6e6" stroke-linecap="round" stroke-linejoin="round" tabindex="-1"/>
<path aria-label="Seat C10, Available" d="M 283.324 81.4256 L 279.965 67.6749 L 277.971 68.1998 L 276.187 61.167 L 261.491 64.8408 L 263.276 71.8736 L 261.281 72.3984 L 264.85 86.1491 C 267.999 86.1491 280.385 83.0001 283.324 81.4256 Z" fill="#2caffe" filter="none" opacity="1" outline="none" role="img" stroke="#e6e6e6" stroke-linecap="round" stroke-linejoin="round" tabindex="-1"/>
<path aria-label="Seat C11, Available" d="M 310.092 73.973 L 306.208 60.3273 L 304.214 60.8521 L 302.219 53.9243 L 287.629 58.123 L 289.623 65.0508 L 287.629 65.5756 L 291.618 79.2213 C 295.082 79.2213 307.258 75.6524 310.092 73.973 Z" fill="#2caffe" filter="none" opacity="1" outline="none" role="img" stroke="#e6e6e6" stroke-linecap="round" stroke-linejoin="round" tabindex="-1"/>
<path aria-label="Seat D1, Available" d="M 31.2642 103.662 L 35.7778 90.2259 L 33.7834 89.5961 L 36.0927 82.7733 L 21.7122 77.9448 L 19.403 84.7677 L 17.4086 84.1379 L 13 97.6786 C 15.8341 99.463 27.9053 103.452 31.2642 103.662 Z" fill="#2caffe" filter="none" opacity="1" outline="none" role="img" stroke="#e6e6e6" stroke-linecap="round" stroke-linejoin="round" tabindex="-1"/>
<path aria-label="Seat D2, Available" d="M 56.4995 110.484 L 60.2783 96.7338 L 58.284 96.209 L 60.1734 89.2812 L 45.583 85.2925 L 43.6936 92.2203 L 41.6992 91.6954 L 38.0254 105.446 C 40.8595 107.231 53.1406 110.484 56.4995 110.484 Z" fill="#2caffe" filter="none" opacity="1" outline="none" role="img" stroke="#e6e6e6" stroke-linecap="round" stroke-linejoin="round" tabindex="-1"/>
<path aria-label="Seat D3, Available" d="M 93.4472 118.042 L 95.4416 103.977 L 93.4472 103.662 L 94.3919 96.5242 L 79.3817 94.5298 L 78.437 101.668 L 76.4426 101.353 L 74.6582 115.418 C 77.4923 116.783 90.0883 118.462 93.4472 118.042 Z" fill="#2caffe" filter="none" opacity="1" outline="none" role="img" stroke="#e6e6e6" stroke-linecap="round" stroke-linejoin="round" tabindex="-1"/>
<path aria-label="Seat D4, Available" d="M 118.475 121.821 L 120.049 107.651 L 118.055 107.441 L 118.894 100.303 L 103.884 98.6235 L 103.149 105.761 L 101.155 105.551 L 99.6855 119.722 C 102.52 120.981 115.221 122.346 118.475 121.821 Z" fill="#2caffe" filter="none" opacity="1" outline="none" role="img" stroke="#e6e6e6" stroke-linecap="round" stroke-linejoin="round" tabindex="-1"/>
<path aria-label="Seat D5, Available" d="M 144.494 123.081 L 145.019 108.91 L 142.92 108.805 L 143.129 101.562 L 128.014 101.038 L 127.804 108.28 L 125.705 108.175 L 125.285 122.346 C 128.539 123.396 141.24 123.815 144.494 123.081 Z" fill="#2caffe" filter="none" opacity="1" outline="none" role="img" stroke="#e6e6e6" stroke-linecap="round" stroke-linejoin="round" tabindex="-1"/>
<path aria-label="Seat D6, Available" d="M 170.045 123.396 L 170.15 109.225 L 168.05 109.225 L 168.05 101.982 L 152.935 101.982 L 152.935 109.225 L 150.836 109.225 L 150.836 123.396 C 154.09 124.13 166.791 124.235 170.045 123.396 Z" fill="#2caffe" filter="none" opacity="1" outline="none" role="img" stroke="#e6e6e6" stroke-linecap="round" stroke-linejoin="round" tabindex="-1"/>
<path aria-label="Seat D7, Unavailable" d="M 196.332 122.661 L 196.017 108.49 L 193.918 108.595 L 193.708 101.353 L 178.593 101.772 L 178.802 109.015 L 176.703 109.12 L 177.123 123.291 C 180.377 123.92 193.183 123.605 196.332 122.661 Z" fill="#ccc" filter="none" opacity="1" outline="none" role="img" stroke="#e6e6e6" stroke-linecap="round" stroke-linejoin="round" tabindex="-1"/>
<path aria-label="Seat D8, Unavailable" d="M 222.182 121.482 L 221.119 107.275 L 219.119 107.428 L 218.589 100.272 L 203.435 101.413 L 203.965 108.569 L 201.965 108.722 L 203.134 122.931 C 206.371 123.549 219.106 122.549 222.182 121.482 Z" fill="#ccc" filter="none" opacity="1" outline="none" role="img" stroke="#e6e6e6" stroke-linecap="round" stroke-linejoin="round" tabindex="-1"/>
<path aria-label="Seat D9, Available" d="M 248.162 117.097 L 246.378 103.032 L 244.384 103.347 L 243.439 96.209 L 228.429 98.2034 L 229.373 105.341 L 227.379 105.656 L 229.268 119.722 C 232.522 119.931 245.118 118.357 248.162 117.097 Z" fill="#2caffe" filter="none" opacity="1" outline="none" role="img" stroke="#e6e6e6" stroke-linecap="round" stroke-linejoin="round" tabindex="-1"/>
<path aria-label="Seat D10, Available" d="M 283.324 107.965 L 279.965 94.2145 L 277.971 94.7393 L 276.187 87.6016 L 261.491 91.2754 L 263.276 98.3082 L 261.281 98.833 L 264.85 112.584 C 267.999 112.689 280.385 109.54 283.324 107.965 Z" fill="#2caffe" filter="none" opacity="1" outline="none" role="img" stroke="#e6e6e6" stroke-linecap="round" stroke-linejoin="round" tabindex="-1"/>
<path aria-label="Seat D11, Available" d="M 310.092 100.408 L 306.208 86.7619 L 304.214 87.2867 L 302.219 80.3589 L 287.629 84.5576 L 289.623 91.4854 L 287.629 92.0102 L 291.618 105.656 C 295.082 105.656 307.258 102.192 310.092 100.408 Z" fill="#2caffe" filter="none" opacity="1" outline="none" role="img" stroke="#e6e6e6" stroke-linecap="round" stroke-linejoin="round" tabindex="-1"/>
<path aria-label="Seat E1, Available" d="M 31.2647 129.621 L 35.7783 116.185 L 33.7839 115.556 L 36.0932 108.733 L 21.7127 103.904 L 19.4035 110.727 L 17.4091 110.097 L 13.1055 123.638 C 15.8346 125.422 27.9058 129.411 31.2647 129.621 Z" fill="#2caffe" filter="none" opacity="1" outline="none" role="img" stroke="#e6e6e6" stroke-linecap="round" stroke-linejoin="round" tabindex="-1"/>
<path aria-label="Seat E2, Available" d="M 56.4995 136.444 L 60.2783 122.693 L 58.284 122.168 L 60.1734 115.241 L 45.583 111.252 L 43.6936 118.18 L 41.6992 117.655 L 38.0254 131.406 C 40.8595 133.19 53.1406 136.444 56.4995 136.444 Z" fill="#2caffe" filter="none" opacity="1" outline="none" role="img" stroke="#e6e6e6" stroke-linecap="round" stroke-linejoin="round" tabindex="-1"/>
<path aria-label="Seat E3, Available" d="M 93.4482 144.002 L 95.4425 129.936 L 93.4482 129.621 L 94.3929 122.484 L 79.2777 120.489 L 78.333 127.627 L 76.3386 127.312 L 74.4492 141.483 C 77.4933 142.742 90.0892 144.422 93.4482 144.002 Z" fill="#2caffe" filter="none" opacity="1" outline="none" role="img" stroke="#e6e6e6" stroke-linecap="round" stroke-linejoin="round" tabindex="-1"/>
<path aria-label="Seat E4, Available" d="M 118.475 147.781 L 120.049 133.61 L 118.055 133.4 L 118.894 126.262 L 103.884 124.583 L 103.149 131.721 L 101.155 131.511 L 99.6855 145.681 C 102.52 146.941 115.221 148.305 118.475 147.781 Z" fill="#2caffe" filter="none" opacity="1" outline="none" role="img" stroke="#e6e6e6" stroke-linecap="round" stroke-linejoin="round" tabindex="-1"/>
<path aria-label="Seat E5, Available" d="M 144.494 149.041 L 145.019 134.87 L 142.92 134.765 L 143.129 127.522 L 128.014 126.998 L 127.804 134.24 L 125.705 134.135 L 125.285 148.306 C 128.539 149.355 141.24 149.775 144.494 149.041 Z" fill="#2caffe" filter="none" opacity="1" outline="none" role="img" stroke="#e6e6e6" stroke-linecap="round" stroke-linejoin="round" tabindex="-1"/>
<path aria-label="Seat E6, Available" d="M 170.045 149.356 L 170.15 135.185 L 168.05 135.185 L 168.05 127.942 L 152.935 127.942 L 152.935 135.185 L 150.836 135.185 L 150.836 149.356 C 154.09 150.09 166.791 150.195 170.045 149.356 Z" fill="#2caffe" filter="none" opacity="1" outline="none" role="img" stroke="#e6e6e6" stroke-linecap="round" stroke-linejoin="round" tabindex="-1"/>
<path aria-label="Seat E7, Available" d="M 196.332 148.62 L 196.017 134.45 L 193.918 134.555 L 193.708 127.312 L 178.593 127.732 L 178.802 134.975 L 176.703 135.08 L 177.123 149.25 C 180.377 149.88 193.183 149.565 196.332 148.62 Z" fill="#2caffe" filter="none" opacity="1" outline="none" role="img" stroke="#e6e6e6" stroke-linecap="round" stroke-linejoin="round" tabindex="-1"/>
<path aria-label="Seat E8, Available" d="M 222.182 147.441 L 221.119 133.234 L 219.119 133.387 L 218.589 126.231 L 203.435 127.373 L 203.965 134.528 L 201.965 134.681 L 203.134 148.891 C 206.371 149.509 219.106 148.508 222.182 147.441 Z" fill="#2caffe" filter="none" opacity="1" outline="none" role="img" stroke="#e6e6e6" stroke-linecap="round" stroke-linejoin="round" tabindex="-1"/>
<path aria-label="Seat E9, Unavailable" d="M 248.162 143.057 L 246.378 128.991 L 244.384 129.306 L 243.439 122.168 L 228.429 124.163 L 229.373 131.301 L 227.379 131.615 L 229.268 145.681 C 232.522 145.891 245.118 144.316 248.162 143.057 Z" fill="#ccc" filter="none" opacity="1" outline="none" role="img" stroke="#e6e6e6" stroke-linecap="round" stroke-linejoin="round" tabindex="-1"/>
<path aria-label="Seat E10, Unavailable" d="M 283.324 133.925 L 279.965 120.174 L 277.971 120.699 L 276.187 113.667 L 261.491 117.34 L 263.276 124.373 L 261.281 124.898 L 264.85 138.649 C 267.999 138.649 280.385 135.5 283.324 133.925 Z" fill="#ccc" filter="none" opacity="1" outline="none" role="img" stroke="#e6e6e6" stroke-linecap="round" stroke-linejoin="round" tabindex="-1"/>
<path aria-label="Seat E11, Available" d="M 310.092 126.367 L 306.208 112.721 L 304.214 113.246 L 302.219 106.318 L 287.629 110.517 L 289.623 117.445 L 287.629 117.97 L 291.618 131.615 C 295.082 131.615 307.258 128.151 310.092 126.367 Z" fill="#2caffe" filter="none" opacity="1" outline="none" role="img" stroke="#e6e6e6" stroke-linecap="round" stroke-linejoin="round" tabindex="-1"/>
<path aria-label="Seat F1, Available" d="M 31.2642 155.741 L 35.7778 142.306 L 33.7834 141.676 L 36.0927 134.853 L 21.7122 130.024 L 19.403 136.847 L 17.4086 136.217 L 13 149.758 C 15.8341 151.543 27.9053 155.531 31.2642 155.741 Z" fill="#2caffe" filter="none" opacity="1" outline="none" role="img" stroke="#e6e6e6" stroke-linecap="round" stroke-linejoin="round" tabindex="-1"/>
<path aria-label="Seat F2, Available" d="M 56.4995 162.565 L 60.2783 148.814 L 58.284 148.289 L 60.1734 141.361 L 45.583 137.373 L 43.6936 144.3 L 41.6992 143.776 L 38.0254 157.526 C 40.8595 159.206 53.1406 162.565 56.4995 162.565 Z" fill="#2caffe" filter="none" opacity="1" outline="none" role="img" stroke="#e6e6e6" stroke-linecap="round" stroke-linejoin="round" tabindex="-1"/>
<path aria-label="Seat F3, Unavailable" d="M 93.4472 170.122 L 95.4416 156.056 L 93.4472 155.741 L 94.3919 148.604 L 79.3817 146.609 L 78.437 153.747 L 76.4426 153.432 L 74.6582 167.498 C 77.4923 168.757 90.0883 170.542 93.4472 170.122 Z" fill="#ccc" filter="none" opacity="1" outline="none" role="img" stroke="#e6e6e6" stroke-linecap="round" stroke-linejoin="round" tabindex="-1"/>
<path aria-label="Seat F4, Unavailable" d="M 118.475 173.9 L 120.049 159.73 L 118.055 159.52 L 118.894 152.382 L 103.884 150.703 L 103.149 157.84 L 101.155 157.63 L 99.6855 171.801 C 102.52 172.956 115.221 174.32 118.475 173.9 Z" fill="#ccc" filter="none" opacity="1" outline="none" role="img" stroke="#e6e6e6" stroke-linecap="round" stroke-linejoin="round" tabindex="-1"/>
<path aria-label="Seat F5, Unavailable" d="M 144.494 175.055 L 145.019 160.884 L 142.92 160.779 L 143.129 153.537 L 128.014 153.012 L 127.804 160.254 L 125.705 160.149 L 125.285 174.32 C 128.539 175.37 141.24 175.789 144.494 175.055 Z" fill="#ccc" filter="none" opacity="1" outline="none" role="img" stroke="#e6e6e6" stroke-linecap="round" stroke-linejoin="round" tabindex="-1"/>
<path aria-label="Seat F6, Available" d="M 170.045 175.37 L 170.15 161.2 L 168.05 161.2 L 168.05 153.957 L 152.935 153.957 L 152.935 161.2 L 150.836 161.2 L 150.836 175.37 C 154.09 176.21 166.791 176.21 170.045 175.37 Z" fill="#2caffe" filter="none" opacity="1" outline="none" role="img" stroke="#e6e6e6" stroke-linecap="round" stroke-linejoin="round" tabindex="-1"/>
<path aria-label="Seat F7, Available" d="M 196.332 174.635 L 196.017 160.464 L 193.918 160.569 L 193.708 153.327 L 178.593 153.747 L 178.802 160.989 L 176.703 161.094 L 177.123 175.265 C 180.377 175.894 193.183 175.58 196.332 174.635 Z" fill="#2caffe" filter="none" opacity="1" outline="none" role="img" stroke="#e6e6e6" stroke-linecap="round" stroke-linejoin="round" tabindex="-1"/>
<path aria-label="Seat F8, Available" d="M 222.182 173.456 L 221.119 159.25 L 219.119 159.402 L 218.589 152.246 L 203.435 153.388 L 203.965 160.544 L 201.965 160.696 L 203.134 174.906 C 206.371 175.524 219.103 174.628 222.182 173.456 Z" fill="#2caffe" filter="none" opacity="1" outline="none" role="img" stroke="#e6e6e6" stroke-linecap="round" stroke-linejoin="round" tabindex="-1"/>
<path aria-label="Seat F9, Available" d="M 248.162 169.072 L 246.378 155.006 L 244.384 155.321 L 243.439 148.184 L 228.429 150.178 L 229.373 157.316 L 227.379 157.631 L 229.268 171.696 C 232.522 172.011 245.118 170.332 248.162 169.072 Z" fill="#2caffe" filter="none" opacity="1" outline="none" role="img" stroke="#e6e6e6" stroke-linecap="round" stroke-linejoin="round" tabindex="-1"/>
<path aria-label="Seat F10, Unavailable" d="M 283.324 159.94 L 279.965 146.19 L 277.971 146.714 L 276.187 139.682 L 261.491 143.355 L 263.276 150.388 L 261.281 150.913 L 264.85 164.664 C 267.999 164.664 280.385 161.515 283.324 159.94 Z" fill="#ccc" filter="none" opacity="1" outline="none" role="img" stroke="#e6e6e6" stroke-linecap="round" stroke-linejoin="round" tabindex="-1"/>
<path aria-label="Seat F11, Unavailable" d="M 310.092 152.487 L 306.208 138.841 L 304.214 139.366 L 302.219 132.438 L 287.629 136.637 L 289.623 143.565 L 287.629 144.09 L 291.618 157.735 C 295.082 157.735 307.258 154.167 310.092 152.487" fill="#ccc" filter="none" opacity="1" outline="none" role="img" stroke="#e6e6e6" stroke-linecap="round" stroke-linejoin="round" tabindex="-1"/>
<path aria-label="Seat  , Unavailable" d="M 30 -12 C 30 15 295 15 295 -12 Z" fill="#ccc" filter="none" opacity="1" outline="none" role="img" stroke="#e6e6e6" stroke-linecap="round" stroke-linejoin="round" tabindex="-1"/>
</g>
</g>
</g>
</svg>