<?xml version="1.0" encoding="utf-8"?>
<svg font="10px sans-serif" height="auto" max-width="100%" viewBox="-410,-100,600,200" width="900" xmlns="http://www.w3.org/2000/svg">
<line stroke="#000" stroke-width="1.5" x1="-380" x2="-380" y1="-40" y2="70"/>
<rect fill="#1f77b4" height="30" opacity="0.7" stroke="#000" stroke-width="1.5" width="40" x="-400" y="10"/>
<line stroke="#000" stroke-width="2" x1="-400" x2="-360" y1="20" y2="20"/>
<line stroke="#000" stroke-width="1.5" x1="-400" x2="-360" y1="-40" y2="-40"/>
<line stroke="#000" stroke-width="1.5" x1="-400" x2="-360" y1="70" y2="70"/>
<circle cx="-380" cy="80" fill="#1f77b4" r="3"/>
<line stroke="#000" stroke-width="1.5" x1="-330" x2="-330" y1="-30" y2="80"/>
<rect fill="#ff7f0e" height="50" opacity="0.7" stroke="#000" stroke-width="1.5" width="40" x="-350" y="5"/>
<line stroke="#000" stroke-width="2" x1="-350" x2="-310" y1="25" y2="25"/>
<line stroke="#000" stroke-width="1.5" x1="-350" x2="-310" y1="-30" y2="-30"/>
<line stroke="#000" stroke-width="1.5" x1="-350" x2="-310" y1="80" y2="80"/>
<circle cx="-330" cy="90" fill="#ff7f0e" r="3"/>
<line stroke="#000" stroke-width="1.5" x1="-260" x2="-260" y1="-50" y2="60"/>
<rect fill="#2ca02c" height="60" opacity="0.7" stroke="#000" stroke-width="1.5" width="40" x="-280" y="-5"/>
<line stroke="#000" stroke-width="2" x1="-280" x2="-240" y1="15" y2="15"/>
<line stroke="#000" stroke-width="1.5" x1="-280" x2="-240" y1="-50" y2="-50"/>
<line stroke="#000" stroke-width="1.5" x1="-280" x2="-240" y1="60" y2="60"/>
<circle cx="-260" cy="70" fill="#2ca02c" r="3"/>
<circle cx="-260" cy="80" fill="#2ca02c" r="3"/>
<line stroke="#000" stroke-width="1.5" x1="-210" x2="-210" y1="-60" y2="50"/>
<rect fill="#d62728" height="40" opacity="0.7" stroke="#000" stroke-width="1.5" width="40" x="-230" y="0"/>
<line stroke="#000" stroke-width="2" x1="-230" x2="-190" y1="20" y2="20"/>
<line stroke="#000" stroke-width="1.5" x1="-230" x2="-190" y1="-60" y2="-60"/>
<line stroke="#000" stroke-width="1.5" x1="-230" x2="-190" y1="50" y2="50"/>
<circle cx="-210" cy="-80" fill="#d62728" r="3"/>
<line stroke="#000" stroke-width="1.5" x1="-140" x2="-140" y1="-20" y2="80"/>
<rect fill="#9467bd" height="50" opacity="0.7" stroke="#000" stroke-width="1.5" width="40" x="-160" y="20"/>
<line stroke="#000" stroke-width="2" x1="-160" x2="-120" y1="40" y2="40"/>
<line stroke="#000" stroke-width="1.5" x1="-160" x2="-120" y1="-20" y2="-20"/>
<line stroke="#000" stroke-width="1.5" x1="-160" x2="-120" y1="80" y2="80"/>
<circle cx="-140" cy="90" fill="#9467bd" r="3"/>
<line stroke="#000" stroke-width="1.5" x1="-90" x2="-90" y1="-40" y2="70"/>
<rect fill="#8c564b" height="50" opacity="0.7" stroke="#000" stroke-width="1.5" width="40" x="-110" y="10"/>
<line stroke="#000" stroke-width="2" x1="-110" x2="-70" y1="30" y2="30"/>
<line stroke="#000" stroke-width="1.5" x1="-110" x2="-70" y1="-40" y2="-40"/>
<line stroke="#000" stroke-width="1.5" x1="-110" x2="-70" y1="70" y2="70"/>
<circle cx="-90" cy="80" fill="#8c564b" r="3"/>
<line stroke="#000" stroke-width="1.5" x1="-20" x2="-20" y1="-30" y2="60"/>
<rect fill="#e377c2" height="50" opacity="0.7" stroke="#000" stroke-width="1.5" width="40" x="-40" y="0"/>
<line stroke="#000" stroke-width="2" x1="-40" x2="0" y1="35" y2="35"/>
<line stroke="#000" stroke-width="1.5" x1="-40" x2="0" y1="-30" y2="-30"/>
<line stroke="#000" stroke-width="1.5" x1="-40" x2="0" y1="60" y2="60"/>
<circle cx="-20" cy="70" fill="#e377c2" r="3"/>
<line stroke="#000" stroke-width="1.5" x1="30" x2="30" y1="-50" y2="50"/>
<rect fill="#7f7f7f" height="40" opacity="0.7" stroke="#000" stroke-width="1.5" width="40" x="10" y="5"/>
<line stroke="#000" stroke-width="2" x1="10" x2="50" y1="25" y2="25"/>
<line stroke="#000" stroke-width="1.5" x1="10" x2="50" y1="-50" y2="-50"/>
<line stroke="#000" stroke-width="1.5" x1="10" x2="50" y1="50" y2="50"/>
<circle cx="30" cy="60" fill="#7f7f7f" r="3"/>
<line stroke="#000" stroke-width="1.5" x1="100" x2="100" y1="-30" y2="70"/>
<rect fill="#bcbd22" height="70" opacity="0.7" stroke="#000" stroke-width="1.5" width="40" x="80" y="0"/>
<line stroke="#000" stroke-width="2" x1="80" x2="120" y1="50" y2="50"/>
<line stroke="#000" stroke-width="1.5" x1="80" x2="120" y1="-30" y2="-30"/>
<line stroke="#000" stroke-width="1.5" x1="80" x2="120" y1="70" y2="70"/>
<circle cx="100" cy="80" fill="#bcbd22" r="3"/>
<line stroke="#000" stroke-width="1.5" x1="150" x2="150" y1="-40" y2="60"/>
<rect fill="#17becf" height="40" opacity="0.7" stroke="#000" stroke-width="1.5" width="40" x="130" y="0"/>
<line stroke="#000" stroke-width="2" x1="130" x2="170" y1="15" y2="15"/>
<line stroke="#000" stroke-width="1.5" x1="130" x2="170" y1="-40" y2="-40"/>
<line stroke="#000" stroke-width="1.5" x1="130" x2="170" y1="60" y2="60"/>
<circle cx="150" cy="70" fill="#17becf" r="3"/>
</svg>