<?xml version="1.0" encoding="utf-8"?>
<svg xmlns="http://www.w3.org/2000/svg" width="900" height="340" viewBox="-70,-30,880,340"
	style="max-width: 100%; height: auto; font: 10px sans-serif;">
	<style type="text/css">
		.st0 {
			fill: #ef2f1a;
			stroke: #FFFFFF;
		}

		.st1 {
			fill: #f02f6d;
			stroke: #FFFFFF;
		}

		.st2 {
			fill: #d4c8e9;
			stroke: #FFFFFF;
		}

		.st3 {
			fill: #328ce0;
			stroke: #FFFFFF;
		}

		.st4 {
			fill: none;
			stroke: #333333;
			stroke-width: 2;
		}

		.st5 {
			fill: #4D4D4D;
		}
	</style>
	<g id="Layer_2">
		<rect x="509.6" y="22.5" class="st0" width="131.3" height="53.3" />
		<rect x="640.9" y="22.5" class="st0" width="66.6" height="67.3" />
		<rect x="312.7" y="49.6" class="st1" width="196.9" height="52.5" />
		<rect x="312.7" y="22.4" class="st0" width="196.9" height="52.5" />
		<rect x="640.9" y="154" class="st2" width="66.6" height="78.3" />
		<rect x="640.9" y="88.5" class="st1" width="66.6" height="65.5" />
		<rect x="50.1" y="22.5" class="st0" width="262.5" height="13.6" />
		<rect x="509.6" y="127.9" class="st2" width="131.3" height="78.3" />
		<rect x="509.6" y="75.7" class="st1" width="131.3" height="52.2" />
		<rect x="312.7" y="101.8" class="st2" width="196.9" height="78.3" />
		<rect x="50.1" y="63" class="st2" width="262.5" height="64.9" />
		<rect x="50.1" y="35.8" class="st1" width="262.5" height="27.2" />
		<rect x="640" y="232.3" class="st3" width="67.5" height="52.2" />
		<rect x="312.7" y="180.1" class="st3" width="196.9" height="104.4" />
		<rect x="509.6" y="206.2" class="st3" width="131.3" height="78.3" />
		<rect x="50.1" y="127.9" class="st3" width="262.5" height="156.6" />
	</g>
</svg>