<?xml version="1.0" encoding="utf-8"?>
<!-- Generator: Adobe Illustrator 21.0.0, SVG Export Plug-In . SVG Version: 6.00 Build 0)  --><svg height="340" style="max-width: 100%; height: auto; font: 10px sans-serif;" viewBox="-70,-30,880,340" width="900" xmlns="http://www.w3.org/2000/svg">

<g id="Layer_2">
<circle class="st0" cx="364.5" cy="350.5" fill="#0f77ff" fill-opacity="0.8" opacity="0.25" r="375" stroke="#11b5f0"/>
<circle class="st0" cx="270" cy="484" fill="#0f77ff" fill-opacity="0.8" opacity="0.25" r="212.5" stroke="#11b5f0"/>
<circle class="st0" cx="436.6" cy="282.6" fill="#0f77ff" fill-opacity="0.8" opacity="0.25" r="47.6" stroke="#11b5f0"/>
<circle class="st0" cx="219.6" cy="67.6" fill="#0f77ff" fill-opacity="0.8" opacity="0.25" r="57.4" stroke="#11b5f0"/>
<circle class="st0" cx="95.1" cy="231.6" fill="#0f77ff" fill-opacity="0.8" opacity="0.25" r="50.4" stroke="#11b5f0"/>
<circle class="st0" cx="187.6" cy="225.6" fill="#0f77ff" fill-opacity="0.8" opacity="0.25" r="42.4" stroke="#11b5f0"/>
<circle class="st0" cx="333.2" cy="176.7" fill="#0f77ff" fill-opacity="0.8" opacity="0.25" r="99.7" stroke="#11b5f0"/>
<circle class="st0" cx="134.5" cy="201.8" fill="#0f77ff" fill-opacity="0.8" opacity="0.25" r="100" stroke="#11b5f0"/>
<circle class="st0" cx="492.3" cy="87.3" fill="#0f77ff" fill-opacity="0.8" opacity="0.25" r="82.2" stroke="#11b5f0"/>
<circle class="st0" cx="478" cy="207" fill="#0f77ff" fill-opacity="0.8" opacity="0.25" r="37.5" stroke="#11b5f0"/>
<circle class="st0" cx="615.3" cy="183" fill="#0f77ff" fill-opacity="0.8" opacity="0.25" r="72.8" stroke="#11b5f0"/>
<circle class="st0" cx="533.6" cy="256.6" fill="#0f77ff" fill-opacity="0.8" opacity="0.25" r="35.9" stroke="#11b5f0"/>
<ellipse class="st0" cx="613" cy="323.5" fill="#0f77ff" fill-opacity="0.8" opacity="0.25" rx="67.5" ry="67" stroke="#11b5f0"/>
<circle class="st0" cx="509.5" cy="325.5" fill="#0f77ff" fill-opacity="0.8" opacity="0.25" r="36.2" stroke="#11b5f0"/>
<circle class="st0" cx="487.4" cy="254.1" fill="#0f77ff" fill-opacity="0.8" opacity="0.25" r="9.8" stroke="#11b5f0"/>
<ellipse class="st0" cx="302" cy="376" fill="#0f77ff" fill-opacity="0.8" opacity="0.25" rx="100" ry="100" stroke="#11b5f0"/>
<circle class="st0" cx="341.5" cy="308" fill="#0f77ff" fill-opacity="0.8" opacity="0.25" r="21" stroke="#11b5f0"/>
<circle class="st0" cx="282" cy="319" fill="#0f77ff" fill-opacity="0.8" opacity="0.25" r="39.5" stroke="#11b5f0"/>
<circle class="st0" cx="185.5" cy="321" fill="#0f77ff" fill-opacity="0.8" opacity="0.25" r="28.5" stroke="#11b5f0"/>
<circle class="st0" cx="513.6" cy="115.1" fill="#0f77ff" fill-opacity="0.8" opacity="0.25" r="47.6" stroke="#11b5f0"/>
<circle class="st0" cx="461" cy="53.2" fill="#0f77ff" fill-opacity="0.8" opacity="0.25" r="33.2" stroke="#11b5f0"/>
<circle class="st0" cx="342.5" cy="247" fill="#0f77ff" fill-opacity="0.8" opacity="0.25" r="29" stroke="#11b5f0"/>
<circle class="st0" cx="393.3" cy="216.2" fill="#0f77ff" fill-opacity="0.8" opacity="0.25" r="28.8" stroke="#11b5f0"/>
<circle class="st0" cx="649.5" cy="165.2" fill="#0f77ff" fill-opacity="0.8" opacity="0.25" r="35" stroke="#11b5f0"/>
<circle class="st0" cx="452" cy="279" fill="#0f77ff" fill-opacity="0.8" opacity="0.25" r="32" stroke="#11b5f0"/>
<circle class="st0" cx="598.5" cy="296.5" fill="#0f77ff" fill-opacity="0.8" opacity="0.25" r="37.5" stroke="#11b5f0"/>
<circle class="st0" cx="318" cy="151" fill="#0f77ff" fill-opacity="0.8" opacity="0.25" r="70" stroke="#11b5f0"/>
<circle class="st0" cx="656.8" cy="311.2" fill="#0f77ff" fill-opacity="0.8" opacity="0.25" r="21.8" stroke="#11b5f0"/>
</g>
<g id="Layer_3">
<circle class="st1" cx="346" cy="261.2" fill="#ffffff" r="14.3" stroke="#3da8ff" stroke-width="0.75"/>
<circle class="st1" cx="275.9" cy="295.8" fill="#ffffff" r="15.5" stroke="#3da8ff" stroke-width="0.75"/>
<circle class="st1" cx="260" cy="323.4" fill="#ffffff" r="16.1" stroke="#3da8ff" stroke-width="0.75"/>
<ellipse class="st1" cx="190" cy="213.4" fill="#ffffff" rx="20.1" ry="19.8" stroke="#3da8ff" stroke-width="0.75"/>
<circle class="st1" cx="328" cy="135.8" fill="#ffffff" r="14.3" stroke="#3da8ff" stroke-width="0.75"/>
<circle class="st1" cx="234" cy="40.8" fill="#ffffff" r="12.7" stroke="#3da8ff" stroke-width="0.75"/>
<circle class="st1" cx="256.2" cy="76.7" fill="#ffffff" r="10.8" stroke="#3da8ff" stroke-width="0.75"/>
<circle class="st1" cx="348.8" cy="154.3" fill="#ffffff" r="13.1" stroke="#3da8ff" stroke-width="0.75"/>
<circle class="st1" cx="321.6" cy="181" fill="#ffffff" r="11.7" stroke="#3da8ff" stroke-width="0.75"/>
<circle class="st1" cx="298.1" cy="167.2" fill="#ffffff" r="15.2" stroke="#3da8ff" stroke-width="0.75"/>
<circle class="st1" cx="178.6" cy="61" fill="#ffffff" r="15.7" stroke="#3da8ff" stroke-width="0.75"/>
<circle class="st1" cx="245.5" cy="100.2" fill="#ffffff" r="15.2" stroke="#3da8ff" stroke-width="0.75"/>
<circle class="st1" cx="273.7" cy="184.8" fill="#ffffff" r="14.3" stroke="#3da8ff" stroke-width="0.75"/>
<circle class="st1" cx="317.3" cy="206.5" fill="#ffffff" r="14.3" stroke="#3da8ff" stroke-width="0.75"/>
<circle class="st1" cx="368.3" cy="173.8" fill="#ffffff" r="14.3" stroke="#3da8ff" stroke-width="0.75"/>
<circle class="st1" cx="376.4" cy="149.3" fill="#ffffff" r="11.1" stroke="#3da8ff" stroke-width="0.75"/>
<circle class="st1" cx="291.7" cy="203.7" fill="#ffffff" r="11.1" stroke="#3da8ff" stroke-width="0.75"/>
<circle class="st1" cx="359.7" cy="123.2" fill="#ffffff" r="19.3" stroke="#3da8ff" stroke-width="0.75"/>
<circle class="st1" cx="346.5" cy="195.7" fill="#ffffff" r="16.5" stroke="#3da8ff" stroke-width="0.75"/>
<circle class="st1" cx="454.5" cy="291.3" fill="#ffffff" r="18.5" stroke="#3da8ff" stroke-width="0.75"/>
<circle class="st1" cx="468.5" cy="224" fill="#ffffff" r="18.5" stroke="#3da8ff" stroke-width="0.75"/>
<circle class="st1" cx="484.2" cy="190" fill="#ffffff" r="18.5" stroke="#3da8ff" stroke-width="0.75"/>
<circle class="st1" cx="544.5" cy="247.3" fill="#ffffff" r="18.5" stroke="#3da8ff" stroke-width="0.75"/>
<circle class="st1" cx="589.5" cy="157.3" fill="#ffffff" r="24.2" stroke="#3da8ff" stroke-width="0.75"/>
<circle class="st1" cx="569.2" cy="197" fill="#ffffff" r="19.8" stroke="#3da8ff" stroke-width="0.75"/>
<circle class="st1" cx="605.2" cy="194.7" fill="#ffffff" r="15.8" stroke="#3da8ff" stroke-width="0.75"/>
<circle class="st1" cx="444.8" cy="261.3" fill="#ffffff" r="12.5" stroke="#3da8ff" stroke-width="0.75"/>
<circle class="st1" cx="513.2" cy="253.3" fill="#ffffff" r="12.5" stroke="#3da8ff" stroke-width="0.75"/>
<circle class="st1" cx="499.7" cy="315.4" fill="#ffffff" r="12.5" stroke="#3da8ff" stroke-width="0.75"/>
<circle class="st1" cx="520.9" cy="309.7" fill="#ffffff" r="9" stroke="#3da8ff" stroke-width="0.75"/>
<circle class="st1" cx="267.3" cy="150.8" fill="#ffffff" r="19.3" stroke="#3da8ff" stroke-width="0.75"/>
<circle class="st1" cx="287.8" cy="114.3" fill="#ffffff" r="21.8" stroke="#3da8ff" stroke-width="0.75"/>
<circle class="st1" cx="203.7" cy="94.5" fill="#ffffff" r="26.3" stroke="#3da8ff" stroke-width="0.75"/>
<circle class="st1" cx="143.7" cy="180.5" fill="#ffffff" r="19.3" stroke="#3da8ff" stroke-width="0.75"/>
<circle class="st1" cx="74.7" cy="255.2" fill="#ffffff" r="18.3" stroke="#3da8ff" stroke-width="0.75"/>
<circle class="st1" cx="124" cy="233.5" fill="#ffffff" r="12" stroke="#3da8ff" stroke-width="0.75"/>
<circle class="st1" cx="178.7" cy="244.2" fill="#ffffff" r="12" stroke="#3da8ff" stroke-width="0.75"/>
<circle class="st1" cx="104.7" cy="248.5" fill="#ffffff" r="12" stroke="#3da8ff" stroke-width="0.75"/>
<circle class="st1" cx="203.7" cy="242.8" fill="#ffffff" r="12" stroke="#3da8ff" stroke-width="0.75"/>
<circle class="st1" cx="90.3" cy="211.2" fill="#ffffff" r="27.7" stroke="#3da8ff" stroke-width="0.75"/>
<circle class="st1" cx="391.8" cy="72.7" fill="#ffffff" r="19" stroke="#3da8ff" stroke-width="0.75"/>
<circle class="st1" cx="531.8" cy="136.3" fill="#ffffff" r="19" stroke="#3da8ff" stroke-width="0.75"/>
<circle class="st1" cx="496.8" cy="135.3" fill="#ffffff" r="15.7" stroke="#3da8ff" stroke-width="0.75"/>
<circle class="st1" cx="480.5" cy="111" fill="#ffffff" r="13.7" stroke="#3da8ff" stroke-width="0.75"/>
<circle class="st1" cx="491.2" cy="89" fill="#ffffff" r="10.7" stroke="#3da8ff" stroke-width="0.75"/>
<circle class="st1" cx="509.2" cy="81.3" fill="#ffffff" r="8.3" stroke="#3da8ff" stroke-width="0.75"/>
<circle class="st1" cx="524.8" cy="84" fill="#ffffff" r="7.3" stroke="#3da8ff" stroke-width="0.75"/>
<circle class="st1" cx="537.2" cy="89" fill="#ffffff" r="6" stroke="#3da8ff" stroke-width="0.75"/>
<circle class="st1" cx="540.2" cy="100.3" fill="#ffffff" r="5.7" stroke="#3da8ff" stroke-width="0.75"/>
<circle class="st1" cx="537.2" cy="112" fill="#ffffff" r="5.7" stroke="#3da8ff" stroke-width="0.75"/>
<circle class="st1" cx="512.5" cy="120.3" fill="#ffffff" r="5.7" stroke="#3da8ff" stroke-width="0.75"/>
<circle class="st1" cx="516.2" cy="91.8" fill="#ffffff" r="3.7" stroke="#3da8ff" stroke-width="0.75"/>
<circle class="st1" cx="508" cy="104.3" fill="#ffffff" r="2.8" stroke="#3da8ff" stroke-width="0.75"/>
<circle class="st1" cx="522.2" cy="93.7" fill="#ffffff" r="2.2" stroke="#3da8ff" stroke-width="0.75"/>
<circle class="st1" cx="525.8" cy="102.8" fill="#ffffff" r="2.2" stroke="#3da8ff" stroke-width="0.75"/>
<circle class="st1" cx="513.7" cy="104.3" fill="#ffffff" r="2.2" stroke="#3da8ff" stroke-width="0.75"/>
<circle class="st1" cx="511" cy="108.8" fill="#ffffff" r="2.2" stroke="#3da8ff" stroke-width="0.75"/>
<circle class="st1" cx="515.5" cy="112.2" fill="#ffffff" r="2.2" stroke="#3da8ff" stroke-width="0.75"/>
<circle class="st1" cx="520.3" cy="104.7" fill="#ffffff" r="2.2" stroke="#3da8ff" stroke-width="0.75"/>
<circle class="st1" cx="515.8" cy="107.8" fill="#ffffff" r="1.3" stroke="#3da8ff" stroke-width="0.75"/>
<circle class="st1" cx="509.8" cy="113.5" fill="#ffffff" r="1.3" stroke="#3da8ff" stroke-width="0.75"/>
<circle class="st1" cx="519.8" cy="109.3" fill="#ffffff" r="1.3" stroke="#3da8ff" stroke-width="0.75"/>
<circle class="st1" cx="532.2" cy="98.5" fill="#ffffff" r="1.3" stroke="#3da8ff" stroke-width="0.75"/>
<circle class="st1" cx="528.7" cy="94.3" fill="#ffffff" r="3.7" stroke="#3da8ff" stroke-width="0.75"/>
<circle class="st1" cx="531.5" cy="104.7" fill="#ffffff" r="3.7" stroke="#3da8ff" stroke-width="0.75"/>
<circle class="st1" cx="521.4" cy="115.8" fill="#ffffff" r="4.1" stroke="#3da8ff" stroke-width="0.75"/>
<circle class="st1" cx="498.2" cy="113" fill="#ffffff" r="3.7" stroke="#3da8ff" stroke-width="0.75"/>
<circle class="st1" cx="503.8" cy="117.5" fill="#ffffff" r="3" stroke="#3da8ff" stroke-width="0.75"/>
<circle class="st1" cx="505.3" cy="110.8" fill="#ffffff" r="3" stroke="#3da8ff" stroke-width="0.75"/>
<circle class="st1" cx="515" cy="98.8" fill="#ffffff" r="3" stroke="#3da8ff" stroke-width="0.75"/>
<circle class="st1" cx="525" cy="108.3" fill="#ffffff" r="3" stroke="#3da8ff" stroke-width="0.75"/>
<circle class="st1" cx="521.3" cy="99.2" fill="#ffffff" r="3" stroke="#3da8ff" stroke-width="0.75"/>
<circle class="st1" cx="528.5" cy="114.3" fill="#ffffff" r="3" stroke="#3da8ff" stroke-width="0.75"/>
<circle class="st1" cx="506.8" cy="95.3" fill="#ffffff" r="5.7" stroke="#3da8ff" stroke-width="0.75"/>
<circle class="st1" cx="498.8" cy="103.3" fill="#ffffff" r="5.7" stroke="#3da8ff" stroke-width="0.75"/>
<ellipse class="st1" cx="651.8" cy="141.9" fill="#ffffff" rx="10.7" ry="10.7" stroke="#3da8ff" stroke-width="0.75" transform="matrix(0.9456 -0.3254 0.3254 0.9456 -10.7194 219.8014)"/>
<ellipse class="st1" cx="633.5" cy="225.7" fill="#ffffff" rx="10.7" ry="10.7" stroke="#3da8ff" stroke-width="0.75" transform="matrix(0.9456 -0.3254 0.3254 0.9456 -38.9636 218.4207)"/>
<ellipse class="st1" cx="664.9" cy="156.5" fill="#ffffff" rx="8.3" ry="8.3" stroke="#3da8ff" stroke-width="0.75" transform="matrix(0.9456 -0.3254 0.3254 0.9456 -14.7331 224.8499)"/>
<ellipse class="st1" cx="667.5" cy="172.2" fill="#ffffff" rx="7.3" ry="7.3" stroke="#3da8ff" stroke-width="0.75" transform="matrix(0.9456 -0.3254 0.3254 0.9456 -19.6964 226.5332)"/>
<ellipse class="st1" cx="666.7" cy="185.4" fill="#ffffff" rx="6" ry="6" stroke="#3da8ff" stroke-width="0.75" transform="matrix(0.9456 -0.3254 0.3254 0.9456 -24.058 227.0446)"/>
<ellipse class="st1" cx="657" cy="192" fill="#ffffff" rx="5.7" ry="5.7" stroke="#3da8ff" stroke-width="0.75" transform="matrix(0.9456 -0.3254 0.3254 0.9456 -26.7116 224.2084)"/>
<ellipse class="st1" cx="645" cy="192.9" fill="#ffffff" rx="5.7" ry="5.7" stroke="#3da8ff" stroke-width="0.75" transform="matrix(0.9456 -0.3254 0.3254 0.9456 -27.6757 220.3737)"/>
<ellipse class="st1" cx="629.1" cy="172.3" fill="#ffffff" rx="5.7" ry="5.7" stroke="#3da8ff" stroke-width="0.75" transform="matrix(0.9456 -0.3254 0.3254 0.9456 -21.8352 214.0583)"/>
<ellipse class="st1" cx="657.2" cy="166.5" fill="#ffffff" rx="3.7" ry="3.7" stroke="#3da8ff" stroke-width="0.75" transform="matrix(0.9456 -0.3254 0.3254 0.9456 -18.4122 222.9322)"/>
<ellipse class="st1" cx="642.7" cy="162.9" fill="#ffffff" rx="2.8" ry="2.8" stroke="#3da8ff" stroke-width="0.75" transform="matrix(0.9457 -0.3252 0.3252 0.9457 -18.0253 217.8466)"/>
<ellipse class="st1" cx="657.4" cy="172.8" fill="#ffffff" rx="2.2" ry="2.2" stroke="#3da8ff" stroke-width="0.75" transform="matrix(0.9456 -0.3254 0.3254 0.9456 -20.44 223.3492)"/>
<ellipse class="st1" cx="650" cy="179.2" fill="#ffffff" rx="2.2" ry="2.2" stroke="#3da8ff" stroke-width="0.75" transform="matrix(0.9456 -0.3254 0.3254 0.9456 -22.9456 221.2677)"/>
<ellipse class="st1" cx="644.6" cy="168.2" fill="#ffffff" rx="2.2" ry="2.2" stroke="#3da8ff" stroke-width="0.75" transform="matrix(0.9456 -0.3253 0.3253 0.9456 -19.657 218.8683)"/>
<ellipse class="st1" cx="639.5" cy="167.2" fill="#ffffff" rx="2.2" ry="2.2" stroke="#3da8ff" stroke-width="0.75" transform="matrix(0.9456 -0.3253 0.3253 0.9456 -19.5916 217.144)"/>
<ellipse class="st1" cx="637.8" cy="172.5" fill="#ffffff" rx="2.2" ry="2.2" stroke="#3da8ff" stroke-width="0.75" transform="matrix(0.9456 -0.3253 0.3253 0.9456 -21.4207 216.8854)"/>
<ellipse class="st1" cx="646.4" cy="174.6" fill="#ffffff" rx="2.2" ry="2.2" stroke="#3da8ff" stroke-width="0.75" transform="matrix(0.9456 -0.3253 0.3253 0.9456 -21.6425 219.8205)"/>
<ellipse class="st1" cx="642" cy="171.4" fill="#ffffff" rx="1.3" ry="1.3" stroke="#3da8ff" stroke-width="0.75" transform="matrix(0.9456 -0.3253 0.3253 0.9456 -20.8378 218.1895)"/>
<ellipse class="st1" cx="634.7" cy="167.6" fill="#ffffff" rx="1.3" ry="1.3" stroke="#3da8ff" stroke-width="0.75" transform="matrix(0.9456 -0.3255 0.3255 0.9456 -19.9836 215.683)"/>
<ellipse class="st1" cx="641.9" cy="175.7" fill="#ffffff" rx="1.3" ry="1.3" stroke="#3da8ff" stroke-width="0.75" transform="matrix(0.9456 -0.3253 0.3253 0.9456 -22.2335 218.3838)"/>
<ellipse class="st1" cx="656.1" cy="183.8" fill="#ffffff" rx="1.3" ry="1.3" stroke="#3da8ff" stroke-width="0.75" transform="matrix(0.9456 -0.3253 0.3253 0.9456 -24.1065 223.4406)"/>
<ellipse class="st1" cx="621.2" cy="228.1" fill="#ffffff" rx="1.3" ry="1.3" stroke="#3da8ff" stroke-width="0.75" transform="matrix(0.9456 -0.3253 0.3253 0.9456 -40.4007 214.5124)"/>
<ellipse class="st1" cx="658.9" cy="179.1" fill="#ffffff" rx="3.7" ry="3.7" stroke="#3da8ff" stroke-width="0.75" transform="matrix(0.9456 -0.3254 0.3254 0.9456 -22.4311 224.1639)"/>
<ellipse class="st1" cx="650.1" cy="185.2" fill="#ffffff" rx="3.7" ry="3.7" stroke="#3da8ff" stroke-width="0.75" transform="matrix(0.9456 -0.3254 0.3254 0.9456 -24.8797 221.592)"/>
<ellipse class="st1" cx="636.3" cy="179.3" fill="#ffffff" rx="4.1" ry="4.1" stroke="#3da8ff" stroke-width="0.75" transform="matrix(0.9456 -0.3253 0.3253 0.9456 -23.7008 216.7663)"/>
<ellipse class="st1" cx="631.4" cy="156.4" fill="#ffffff" rx="3.7" ry="3.7" stroke="#3da8ff" stroke-width="0.75" transform="matrix(0.9456 -0.3254 0.3254 0.9456 -16.5239 213.946)"/>
<ellipse class="st1" cx="628.9" cy="163.2" fill="#ffffff" rx="3" ry="3" stroke="#3da8ff" stroke-width="0.75" transform="matrix(0.9456 -0.3253 0.3253 0.9456 -18.8811 213.459)"/>
<ellipse class="st1" cx="635.7" cy="162.4" fill="#ffffff" rx="3" ry="3" stroke="#3da8ff" stroke-width="0.75" transform="matrix(0.9456 -0.3254 0.3254 0.9456 -18.2593 215.7272)"/>
<ellipse class="st1" cx="650.2" cy="167.7" fill="#ffffff" rx="3" ry="3" stroke="#3da8ff" stroke-width="0.75" transform="matrix(0.9456 -0.3254 0.3254 0.9456 -19.174 220.7362)"/>
<ellipse class="st1" cx="644.5" cy="180.2" fill="#ffffff" rx="3" ry="3" stroke="#3da8ff" stroke-width="0.75" transform="matrix(0.9456 -0.3253 0.3253 0.9456 -23.575 219.458)"/>
<ellipse class="st1" cx="652" cy="173.8" fill="#ffffff" rx="3" ry="3" stroke="#3da8ff" stroke-width="0.75" transform="matrix(0.9456 -0.3253 0.3253 0.9456 -21.07 221.5383)"/>
<ellipse class="st1" cx="640" cy="185.5" fill="#ffffff" rx="3" ry="3" stroke="#3da8ff" stroke-width="0.75" transform="matrix(0.9456 -0.3254 0.3254 0.9456 -25.5281 218.3741)"/>
<ellipse class="st1" cx="650.9" cy="158.8" fill="#ffffff" rx="5.7" ry="5.7" stroke="#3da8ff" stroke-width="0.75" transform="matrix(0.9456 -0.3253 0.3253 0.9456 -16.2607 220.3946)"/>
<ellipse class="st1" cx="640.7" cy="153.9" fill="#ffffff" rx="5.7" ry="5.7" stroke="#3da8ff" stroke-width="0.75" transform="matrix(0.9456 -0.3254 0.3254 0.9456 -15.1969 216.8449)"/>
<circle class="st1" cx="447.3" cy="58.5" fill="#ffffff" r="15.8" stroke="#3da8ff" stroke-width="0.75"/>
<circle class="st1" cx="469.5" cy="41.7" fill="#ffffff" r="12" stroke="#3da8ff" stroke-width="0.75"/>
<circle class="st1" cx="327.3" cy="101.8" fill="#ffffff" r="19.3" stroke="#3da8ff" stroke-width="0.75"/>
<circle class="st1" cx="202.3" cy="34.8" fill="#ffffff" r="19.3" stroke="#3da8ff" stroke-width="0.75"/>
<circle class="st1" cx="399.7" cy="223.8" fill="#ffffff" r="9" stroke="#3da8ff" stroke-width="0.75"/>
<circle class="st1" cx="304.5" cy="142" fill="#ffffff" r="10" stroke="#3da8ff" stroke-width="0.75"/>
<circle class="st1" cx="303.3" cy="189.2" fill="#ffffff" r="6.8" stroke="#3da8ff" stroke-width="0.75"/>
<circle class="st1" cx="524.7" cy="212.3" fill="#ffffff" r="9" stroke="#3da8ff" stroke-width="0.75"/>
<circle class="st1" cx="495" cy="215.3" fill="#ffffff" r="9" stroke="#3da8ff" stroke-width="0.75"/>
<circle class="st1" cx="527.3" cy="269.3" fill="#ffffff" r="9" stroke="#3da8ff" stroke-width="0.75"/>
<circle class="st1" cx="591.3" cy="215.7" fill="#ffffff" r="9" stroke="#3da8ff" stroke-width="0.75"/>
<circle class="st1" cx="664.7" cy="307.7" fill="#ffffff" r="9" stroke="#3da8ff" stroke-width="0.75"/>
<circle class="st1" cx="608" cy="217.7" fill="#ffffff" r="7.3" stroke="#3da8ff" stroke-width="0.75"/>
<circle class="st1" cx="621.7" cy="211" fill="#ffffff" r="7.3" stroke="#3da8ff" stroke-width="0.75"/>
<circle class="st1" cx="578.7" cy="219.3" fill="#ffffff" r="4" stroke="#3da8ff" stroke-width="0.75"/>
<circle class="st1" cx="599.7" cy="225.3" fill="#ffffff" r="4" stroke="#3da8ff" stroke-width="0.75"/>
<circle class="st1" cx="618.7" cy="222.3" fill="#ffffff" r="4" stroke="#3da8ff" stroke-width="0.75"/>
<circle class="st1" cx="459.7" cy="198.7" fill="#ffffff" r="7.5" stroke="#3da8ff" stroke-width="0.75"/>
<circle class="st1" cx="390.3" cy="212.2" fill="#ffffff" r="5.3" stroke="#3da8ff" stroke-width="0.75"/>
<circle class="st1" cx="327.7" cy="241.2" fill="#ffffff" r="13" stroke="#3da8ff" stroke-width="0.75"/>
<circle class="st1" cx="178.2" cy="304.3" fill="#ffffff" r="10.8" stroke="#3da8ff" stroke-width="0.75"/>
<circle class="st1" cx="186.8" cy="326.7" fill="#ffffff" r="12.7" stroke="#3da8ff" stroke-width="0.75"/>
<circle class="st1" cx="347.7" cy="239.9" fill="#ffffff" r="6.8" stroke="#3da8ff" stroke-width="0.75"/>
<circle class="st1" cx="408.3" cy="311.3" fill="#ffffff" r="8.1" stroke="#3da8ff" stroke-width="0.75"/>
<circle class="st1" cx="425.3" cy="309.6" fill="#ffffff" r="8.1" stroke="#3da8ff" stroke-width="0.75"/>
<circle class="st1" cx="282.7" cy="317.7" fill="#ffffff" r="6.8" stroke="#3da8ff" stroke-width="0.75"/>
<circle class="st1" cx="300.2" cy="314.2" fill="#ffffff" r="6.2" stroke="#3da8ff" stroke-width="0.75"/>
<circle class="st1" cx="298.2" cy="292.2" fill="#ffffff" r="6.8" stroke="#3da8ff" stroke-width="0.75"/>
<circle class="st1" cx="196.3" cy="302.9" fill="#ffffff" r="6.8" stroke="#3da8ff" stroke-width="0.75"/>
<circle class="st1" cx="326.9" cy="258.9" fill="#ffffff" r="4.5" stroke="#3da8ff" stroke-width="0.75"/>
<circle class="st1" cx="357.7" cy="245.4" fill="#ffffff" r="4.5" stroke="#3da8ff" stroke-width="0.75"/>
<circle class="st1" cx="407.3" cy="296.1" fill="#ffffff" r="6.2" stroke="#3da8ff" stroke-width="0.75"/>
<circle class="st1" cx="461.7" cy="254.1" fill="#ffffff" r="4.8" stroke="#3da8ff" stroke-width="0.75"/>
<circle class="st1" cx="487.2" cy="249.3" fill="#ffffff" r="4.8" stroke="#3da8ff" stroke-width="0.75"/>
<circle class="st1" cx="469" cy="266.1" fill="#ffffff" r="4.8" stroke="#3da8ff" stroke-width="0.75"/>
<circle class="st1" cx="515.4" cy="322.4" fill="#ffffff" r="4.8" stroke="#3da8ff" stroke-width="0.75"/>
<circle class="st1" cx="541.4" cy="271.1" fill="#ffffff" r="4.8" stroke="#3da8ff" stroke-width="0.75"/>
<circle class="st1" cx="330.9" cy="296.9" fill="#ffffff" r="4.5" stroke="#3da8ff" stroke-width="0.75"/>
<circle class="st1" cx="356.9" cy="314.2" fill="#ffffff" r="4.5" stroke="#3da8ff" stroke-width="0.75"/>
<circle class="st1" cx="325.7" cy="304.7" fill="#ffffff" r="4.5" stroke="#3da8ff" stroke-width="0.75"/>
<circle class="st1" cx="352.9" cy="295.7" fill="#ffffff" r="4.5" stroke="#3da8ff" stroke-width="0.75"/>
<circle class="st1" cx="336.3" cy="322.3" fill="#ffffff" r="5.9" stroke="#3da8ff" stroke-width="0.75"/>
<circle class="st1" cx="341.4" cy="229.7" fill="#ffffff" r="4.5" stroke="#3da8ff" stroke-width="0.75"/>
<circle class="st1" cx="349.4" cy="229.7" fill="#ffffff" r="3.2" stroke="#3da8ff" stroke-width="0.75"/>
<circle class="st1" cx="164.1" cy="309.3" fill="#ffffff" r="3.8" stroke="#3da8ff" stroke-width="0.75"/>
<circle class="st1" cx="171.4" cy="229.3" fill="#ffffff" r="3.8" stroke="#3da8ff" stroke-width="0.75"/>
<circle class="st1" cx="209.8" cy="227.3" fill="#ffffff" r="3.8" stroke="#3da8ff" stroke-width="0.75"/>
<circle class="st1" cx="121.4" cy="250" fill="#ffffff" r="3.8" stroke="#3da8ff" stroke-width="0.75"/>
<circle class="st1" cx="96.1" cy="262.3" fill="#ffffff" r="3.8" stroke="#3da8ff" stroke-width="0.75"/>
<ellipse class="st1" cx="579.7" cy="279.9" fill="#ffffff" rx="11.3" ry="11.3" stroke="#3da8ff" stroke-width="0.75" transform="matrix(0.1342 -0.991 0.991 0.1342 224.5813 816.774)"/>
<ellipse class="st1" cx="588.8" cy="311.7" fill="#ffffff" rx="7.4" ry="7.4" stroke="#3da8ff" stroke-width="0.75" transform="matrix(0.1341 -0.991 0.991 0.1341 200.9651 853.4176)"/>
<ellipse class="st1" cx="581.3" cy="298.7" fill="#ffffff" rx="7.4" ry="7.4" stroke="#3da8ff" stroke-width="0.75" transform="matrix(0.1341 -0.991 0.991 0.1341 207.3081 834.6556)"/>
<ellipse class="st1" cx="595.6" cy="272.4" fill="#ffffff" rx="6" ry="6" stroke="#3da8ff" stroke-width="0.75" transform="matrix(0.1341 -0.991 0.991 0.1341 245.8303 826.0695)"/>
<ellipse class="st1" cx="650.3" cy="303.4" fill="#ffffff" rx="6" ry="6" stroke="#3da8ff" stroke-width="0.75" transform="matrix(0.1341 -0.991 0.991 0.1341 262.4406 907.0818)"/>
<ellipse class="st1" cx="605.2" cy="293" fill="#ffffff" rx="17" ry="17" stroke="#3da8ff" stroke-width="0.75" transform="matrix(0.1341 -0.991 0.991 0.1341 233.6314 853.4752)"/>
<ellipse class="st1" cx="579" cy="308.8" fill="#ffffff" rx="2.4" ry="2.4" stroke="#3da8ff" stroke-width="0.75" transform="matrix(0.1343 -0.9909 0.9909 0.1343 195.2586 841.0579)"/>
<ellipse class="st1" cx="573.6" cy="292.3" fill="#ffffff" rx="2.4" ry="2.4" stroke="#3da8ff" stroke-width="0.75" transform="matrix(0.1343 -0.9909 0.9909 0.1343 206.8778 821.4474)"/>
<ellipse class="st1" cx="605.2" cy="273" fill="#ffffff" rx="2.4" ry="2.4" stroke="#3da8ff" stroke-width="0.75" transform="matrix(0.1343 -0.9909 0.9909 0.1343 253.4523 836.0894)"/>
<ellipse class="st1" cx="598.6" cy="312" fill="#ffffff" rx="2.4" ry="2.4" stroke="#3da8ff" stroke-width="0.75" transform="matrix(0.1343 -0.9909 0.9909 0.1343 209.0235 863.2402)"/>
<circle class="st1" cx="190.8" cy="311.2" fill="#ffffff" r="3" stroke="#3da8ff" stroke-width="0.75"/>
<circle class="st1" cx="205.7" cy="305.3" fill="#ffffff" r="2.2" stroke="#3da8ff" stroke-width="0.75"/>
<circle class="st1" cx="189.3" cy="296.2" fill="#ffffff" r="2.2" stroke="#3da8ff" stroke-width="0.75"/>
<circle class="st1" cx="211.5" cy="221" fill="#ffffff" r="2.2" stroke="#3da8ff" stroke-width="0.75"/>
<circle class="st1" cx="357.6" cy="237.2" fill="#ffffff" r="3.2" stroke="#3da8ff" stroke-width="0.75"/>
<ellipse class="st1" cx="337.2" cy="291.2" fill="#ffffff" rx="3.3" ry="3.2" stroke="#3da8ff" stroke-width="0.75"/>
<ellipse class="st1" cx="345.2" cy="291.5" fill="#ffffff" rx="3.8" ry="4" stroke="#3da8ff" stroke-width="0.75" transform="matrix(2.486900e-02 -0.9997 0.9997 2.486900e-02 45.1716 629.3943)"/>
<ellipse class="st1" cx="352.2" cy="304.3" fill="#ffffff" rx="3.8" ry="3.8" stroke="#3da8ff" stroke-width="0.75" transform="matrix(2.495031e-02 -0.9997 0.9997 2.495031e-02 39.196 648.7827)"/>
<ellipse class="st1" cx="345.8" cy="299.5" fill="#ffffff" rx="3.5" ry="3.5" stroke="#3da8ff" stroke-width="0.75" transform="matrix(2.492874e-02 -0.9997 0.9997 2.492874e-02 37.792 637.7217)"/>
<ellipse class="st1" cx="334.1" cy="304.7" fill="#ffffff" rx="3.5" ry="3.5" stroke="#3da8ff" stroke-width="0.75" transform="matrix(2.492877e-02 -0.9997 0.9997 2.492877e-02 21.2099 631.096)"/>
<circle class="st1" cx="294.3" cy="301.9" fill="#ffffff" r="3.2" stroke="#3da8ff" stroke-width="0.75"/>
<circle class="st1" cx="305.3" cy="305.7" fill="#ffffff" r="3.2" stroke="#3da8ff" stroke-width="0.75"/>
<circle class="st1" cx="305.1" cy="299.7" fill="#ffffff" r="2.7" stroke="#3da8ff" stroke-width="0.75"/>
<circle class="st1" cx="308.8" cy="310.9" fill="#ffffff" r="2.7" stroke="#3da8ff" stroke-width="0.75"/>
<circle class="st1" cx="290.8" cy="309.2" fill="#ffffff" r="4.4" stroke="#3da8ff" stroke-width="0.75"/>
<circle class="st1" cx="399.6" cy="211.2" fill="#ffffff" r="3.2" stroke="#3da8ff" stroke-width="0.75"/>
<circle class="st1" cx="460.9" cy="262.5" fill="#ffffff" r="3.2" stroke="#3da8ff" stroke-width="0.75"/>
<circle class="st1" cx="491.7" cy="257.5" fill="#ffffff" r="3.2" stroke="#3da8ff" stroke-width="0.75"/>
<circle class="st1" cx="462" cy="187.8" fill="#ffffff" r="3.2" stroke="#3da8ff" stroke-width="0.75"/>
<circle class="st1" cx="501" cy="204.5" fill="#ffffff" r="3.2" stroke="#3da8ff" stroke-width="0.75"/>
<circle class="st1" cx="490" cy="226.2" fill="#ffffff" r="3.2" stroke="#3da8ff" stroke-width="0.75"/>
<circle class="st1" cx="416.2" cy="289.5" fill="#ffffff" r="4.2" stroke="#3da8ff" stroke-width="0.75"/>
<circle class="st1" cx="460.9" cy="269.8" fill="#ffffff" r="3.2" stroke="#3da8ff" stroke-width="0.75"/>
<circle class="st1" cx="523.4" cy="321.8" fill="#ffffff" r="3.2" stroke="#3da8ff" stroke-width="0.75"/>
<circle class="st1" cx="536.5" cy="278.3" fill="#ffffff" r="3.2" stroke="#3da8ff" stroke-width="0.75"/>
<circle class="st1" cx="550.5" cy="268.7" fill="#ffffff" r="3.2" stroke="#3da8ff" stroke-width="0.75"/>
<circle class="st1" cx="523.2" cy="240.7" fill="#ffffff" r="3.2" stroke="#3da8ff" stroke-width="0.75"/>
<circle class="st1" cx="292.6" cy="188.2" fill="#ffffff" r="3.9" stroke="#3da8ff" stroke-width="0.75"/>
<circle class="st1" cx="210.6" cy="58.2" fill="#ffffff" r="2.3" stroke="#3da8ff" stroke-width="0.75"/>
<circle class="st1" cx="223.9" cy="63.7" fill="#ffffff" r="2.3" stroke="#3da8ff" stroke-width="0.75"/>
<circle class="st1" cx="211.3" cy="65.5" fill="#ffffff" r="3.1" stroke="#3da8ff" stroke-width="0.75"/>
<circle class="st1" cx="223.2" cy="70.4" fill="#ffffff" r="3.8" stroke="#3da8ff" stroke-width="0.75"/>
<circle class="st1" cx="310.6" cy="128.4" fill="#ffffff" r="4.7" stroke="#3da8ff" stroke-width="0.75"/>
<circle class="st1" cx="467.9" cy="58.8" fill="#ffffff" r="4.7" stroke="#3da8ff" stroke-width="0.75"/>
<circle class="st1" cx="347.6" cy="173.7" fill="#ffffff" r="5.7" stroke="#3da8ff" stroke-width="0.75"/>
<circle class="st1" cx="335.8" cy="169.4" fill="#ffffff" r="5.9" stroke="#3da8ff" stroke-width="0.75"/>
<circle class="st1" cx="316.3" cy="154.2" fill="#ffffff" r="6.7" stroke="#3da8ff" stroke-width="0.75"/>
<circle class="st1" cx="480.3" cy="58.8" fill="#ffffff" r="7.7" stroke="#3da8ff" stroke-width="0.75"/>
<circle class="st1" cx="201.3" cy="61.2" fill="#ffffff" r="6.7" stroke="#3da8ff" stroke-width="0.75"/>
<circle class="st1" cx="219.7" cy="55.2" fill="#ffffff" r="6.7" stroke="#3da8ff" stroke-width="0.75"/>
<circle class="st1" cx="245" cy="62.8" fill="#ffffff" r="6.7" stroke="#3da8ff" stroke-width="0.75"/>
<circle class="st1" cx="232.3" cy="60.2" fill="#ffffff" r="6.3" stroke="#3da8ff" stroke-width="0.75"/>
<circle class="st1" cx="235.8" cy="77" fill="#ffffff" r="9.8" stroke="#3da8ff" stroke-width="0.75"/>
<circle class="st1" cx="291.1" cy="148.2" fill="#ffffff" r="4.7" stroke="#3da8ff" stroke-width="0.75"/>
<circle class="st1" cx="354" cy="233" fill="#ffffff" r="2" stroke="#3da8ff" stroke-width="0.75"/>
<circle class="st1" cx="421.7" cy="296.7" fill="#ffffff" r="2" stroke="#3da8ff" stroke-width="0.75"/>
<circle class="st1" cx="417" cy="299.7" fill="#ffffff" r="2.8" stroke="#3da8ff" stroke-width="0.75"/>
<circle class="st1" cx="261" cy="305" fill="#ffffff" r="2" stroke="#3da8ff" stroke-width="0.75"/>
<circle class="st1" cx="297" cy="306.3" fill="#ffffff" r="2" stroke="#3da8ff" stroke-width="0.75"/>
<circle class="st1" cx="323.6" cy="312.1" fill="#ffffff" r="2.4" stroke="#3da8ff" stroke-width="0.75"/>
<circle class="st1" cx="357.9" cy="301.1" fill="#ffffff" r="2.4" stroke="#3da8ff" stroke-width="0.75"/>
<circle class="st1" cx="358.9" cy="306.8" fill="#ffffff" r="2.7" stroke="#3da8ff" stroke-width="0.75"/>
<circle class="st1" cx="352.9" cy="320.9" fill="#ffffff" r="2.7" stroke="#3da8ff" stroke-width="0.75"/>
<circle class="st1" cx="349.5" cy="316.1" fill="#ffffff" r="2.7" stroke="#3da8ff" stroke-width="0.75"/>
<circle class="st1" cx="344.7" cy="319.3" fill="#ffffff" r="2.4" stroke="#3da8ff" stroke-width="0.75"/>
<circle class="st1" cx="340.8" cy="304" fill="#ffffff" r="2.4" stroke="#3da8ff" stroke-width="0.75"/>
<circle class="st1" cx="345.7" cy="305.8" fill="#ffffff" r="2.1" stroke="#3da8ff" stroke-width="0.75"/>
<circle class="st1" cx="333.6" cy="313.8" fill="#ffffff" r="2.3" stroke="#3da8ff" stroke-width="0.75"/>
<circle class="st1" cx="327.8" cy="317" fill="#ffffff" r="3.6" stroke="#3da8ff" stroke-width="0.75"/>
<circle class="st1" cx="299.8" cy="301" fill="#ffffff" r="2" stroke="#3da8ff" stroke-width="0.75"/>
<circle class="st1" cx="291.8" cy="316" fill="#ffffff" r="2" stroke="#3da8ff" stroke-width="0.75"/>
<circle class="st1" cx="300.5" cy="304.8" fill="#ffffff" r="1.2" stroke="#3da8ff" stroke-width="0.75"/>
<circle class="st1" cx="354.9" cy="308.5" fill="#ffffff" r="0.8" stroke="#3da8ff" stroke-width="0.75"/>
<circle class="st1" cx="340.6" cy="294.2" fill="#ffffff" r="0.6" stroke="#3da8ff" stroke-width="0.75"/>
<circle class="st1" cx="351.2" cy="312.4" fill="#ffffff" r="0.8" stroke="#3da8ff" stroke-width="0.75"/>
<circle class="st1" cx="348.9" cy="311.9" fill="#ffffff" r="0.8" stroke="#3da8ff" stroke-width="0.75"/>
<circle class="st1" cx="336.5" cy="309.1" fill="#ffffff" r="0.8" stroke="#3da8ff" stroke-width="0.75"/>
<circle class="st1" cx="339.2" cy="312.4" fill="#ffffff" r="0.8" stroke="#3da8ff" stroke-width="0.75"/>
<circle class="st1" cx="339" cy="310.2" fill="#ffffff" r="0.9" stroke="#3da8ff" stroke-width="0.75"/>
<circle class="st1" cx="336.9" cy="311.6" fill="#ffffff" r="1" stroke="#3da8ff" stroke-width="0.75"/>
<circle class="st1" cx="346.7" cy="312.9" fill="#ffffff" r="0.9" stroke="#3da8ff" stroke-width="0.75"/>
<circle class="st1" cx="342" cy="308.7" fill="#ffffff" r="1.7" stroke="#3da8ff" stroke-width="0.75"/>
<circle class="st1" cx="345.5" cy="309.9" fill="#ffffff" r="1.2" stroke="#3da8ff" stroke-width="0.75"/>
<circle class="st1" cx="330.1" cy="312.7" fill="#ffffff" r="0.7" stroke="#3da8ff" stroke-width="0.75"/>
<circle class="st1" cx="329.6" cy="308.7" fill="#ffffff" r="0.7" stroke="#3da8ff" stroke-width="0.75"/>
<circle class="st1" cx="331.3" cy="308.1" fill="#ffffff" r="0.7" stroke="#3da8ff" stroke-width="0.75"/>
<circle class="st1" cx="344.4" cy="312.4" fill="#ffffff" r="0.9" stroke="#3da8ff" stroke-width="0.75"/>
<circle class="st1" cx="341.6" cy="312.3" fill="#ffffff" r="1.2" stroke="#3da8ff" stroke-width="0.75"/>
<circle class="st1" cx="331.2" cy="310.4" fill="#ffffff" r="1.3" stroke="#3da8ff" stroke-width="0.75"/>
<circle class="st1" cx="334.1" cy="309.8" fill="#ffffff" r="0.9" stroke="#3da8ff" stroke-width="0.75"/>
<circle class="st1" cx="338.6" cy="307.6" fill="#ffffff" r="1.1" stroke="#3da8ff" stroke-width="0.75"/>
<circle class="st1" cx="336.2" cy="300.1" fill="#ffffff" r="0.9" stroke="#3da8ff" stroke-width="0.75"/>
<circle class="st1" cx="340.8" cy="298.8" fill="#ffffff" r="0.8" stroke="#3da8ff" stroke-width="0.75"/>
<circle class="st1" cx="352" cy="309.9" fill="#ffffff" r="1.3" stroke="#3da8ff" stroke-width="0.75"/>
<circle class="st1" cx="348.7" cy="309" fill="#ffffff" r="1.4" stroke="#3da8ff" stroke-width="0.75"/>
<circle class="st1" cx="337.7" cy="314.6" fill="#ffffff" r="1.3" stroke="#3da8ff" stroke-width="0.75"/>
<circle class="st1" cx="345" cy="315.1" fill="#ffffff" r="1.2" stroke="#3da8ff" stroke-width="0.75"/>
<circle class="st1" cx="338.8" cy="300.4" fill="#ffffff" r="1.1" stroke="#3da8ff" stroke-width="0.75"/>
<circle class="st1" cx="341.4" cy="315.7" fill="#ffffff" r="1.8" stroke="#3da8ff" stroke-width="0.75"/>
<circle class="st1" cx="341.7" cy="296.1" fill="#ffffff" r="1.1" stroke="#3da8ff" stroke-width="0.75"/>
<circle class="st1" cx="338" cy="296.8" fill="#ffffff" r="2" stroke="#3da8ff" stroke-width="0.75"/>
<circle class="st1" cx="308.2" cy="315.3" fill="#ffffff" r="1.2" stroke="#3da8ff" stroke-width="0.75"/>
<circle class="st1" cx="310" cy="306.5" fill="#ffffff" r="1.2" stroke="#3da8ff" stroke-width="0.75"/>
<circle class="st1" cx="327.9" cy="311" fill="#ffffff" r="1.6" stroke="#3da8ff" stroke-width="0.75"/>
<circle class="st1" cx="360.3" cy="251.8" fill="#ffffff" r="2" stroke="#3da8ff" stroke-width="0.75"/>
<circle class="st1" cx="346.5" cy="224.7" fill="#ffffff" r="2" stroke="#3da8ff" stroke-width="0.75"/>
<circle class="st1" cx="339.4" cy="177.3" fill="#ffffff" r="2.4" stroke="#3da8ff" stroke-width="0.75"/>
<circle class="st1" cx="334.7" cy="227.3" fill="#ffffff" r="2" stroke="#3da8ff" stroke-width="0.75"/>
<g>
</g>
<g>
</g>
<g>
</g>
<g>
</g>
<g>
</g>
<g>
</g>
<g>
</g>
<g>
</g>
<g>
</g>
<g>
</g>
</g>
</svg>