<?xml version='1.0' encoding='UTF-8'?>
<svg xmlns="http://www.w3.org/2000/svg" height="340" style="max-width: 100%; height: auto; font: 10px sans-serif;" viewBox="-420,-170,880,340" width="900">
  <line x1="-380" x2="-380" y1="-40" y2="70" stroke="hsl(0, 0%, 0%)" stroke-width="1.5"/>
  <rect height="30" width="40" x="-400" y="10" fill="hsl(223, 71%, 40%)" stroke="hsl(0, 0%, 0%)" stroke-width="1.5" opacity="0.7"/>
  <line x1="-400" x2="-360" y1="20" y2="20" stroke="hsl(0, 0%, 0%)" stroke-width="2"/>
  <line x1="-400" x2="-360" y1="-40" y2="-40" stroke="hsl(0, 0%, 0%)" stroke-width="1.5"/>
  <line x1="-400" x2="-360" y1="70" y2="70" stroke="hsl(0, 0%, 0%)" stroke-width="1.5"/>
  <circle cx="-380" cy="80" r="3" fill="hsl(213, 65%, 39%)"/>
  <line x1="-330" x2="-330" y1="-30" y2="80" stroke="hsl(0, 0%, 0%)" stroke-width="1.5"/>
  <rect height="50" width="40" x="-350" y="5" fill="hsl(29, 100%, 53%)" stroke="hsl(0, 0%, 0%)" stroke-width="1.5" opacity="0.7"/>
  <line x1="-350" x2="-310" y1="25" y2="25" stroke="hsl(0, 0%, 0%)" stroke-width="2"/>
  <line x1="-350" x2="-310" y1="-30" y2="-30" stroke="hsl(0, 0%, 0%)" stroke-width="1.5"/>
  <line x1="-350" x2="-310" y1="80" y2="80" stroke="hsl(0, 0%, 0%)" stroke-width="1.5"/>
  <circle cx="-330" cy="90" r="3" fill="hsl(30, 90%, 49%)"/>
  <line x1="-260" x2="-260" y1="-50" y2="60" stroke="hsl(0, 0%, 0%)" stroke-width="1.5"/>
  <rect height="60" width="40" x="-280" y="-5" fill="hsl(131, 62%, 38%)" stroke="hsl(0, 0%, 0%)" stroke-width="1.5" opacity="0.7"/>
  <line x1="-280" x2="-240" y1="15" y2="15" stroke="hsl(0, 0%, 0%)" stroke-width="2"/>
  <line x1="-280" x2="-240" y1="-50" y2="-50" stroke="hsl(0, 0%, 0%)" stroke-width="1.5"/>
  <line x1="-280" x2="-240" y1="60" y2="60" stroke="hsl(0, 0%, 0%)" stroke-width="1.5"/>
  <circle cx="-260" cy="70" r="3" fill="hsl(122, 58%, 39%)"/>
  <circle cx="-260" cy="80" r="3" fill="hsl(122, 58%, 39%)"/>
  <line x1="-210" x2="-210" y1="-60" y2="50" stroke="hsl(0, 0%, 0%)" stroke-width="1.5"/>
  <rect height="40" width="40" x="-230" y="0" fill="hsl(346, 68%, 52%)" stroke="hsl(0, 0%, 0%)" stroke-width="1.5" opacity="0.7"/>
  <line x1="-230" x2="-190" y1="20" y2="20" stroke="hsl(0, 0%, 0%)" stroke-width="2"/>
  <line x1="-230" x2="-190" y1="-60" y2="-60" stroke="hsl(0, 0%, 0%)" stroke-width="1.5"/>
  <line x1="-230" x2="-190" y1="50" y2="50" stroke="hsl(0, 0%, 0%)" stroke-width="1.5"/>
  <circle cx="-210" cy="-80" r="3" fill="hsl(346, 70%, 49%)"/>
  <line x1="-140" x2="-140" y1="-20" y2="80" stroke="hsl(0, 0%, 0%)" stroke-width="1.5"/>
  <rect height="50" width="40" x="-160" y="20" fill="hsl(259, 40%, 55%)" stroke="hsl(0, 0%, 0%)" stroke-width="1.5" opacity="0.7"/>
  <line x1="-160" x2="-120" y1="40" y2="40" stroke="hsl(0, 0%, 0%)" stroke-width="2"/>
  <line x1="-160" x2="-120" y1="-20" y2="-20" stroke="hsl(0, 0%, 0%)" stroke-width="1.5"/>
  <line x1="-160" x2="-120" y1="80" y2="80" stroke="hsl(0, 0%, 0%)" stroke-width="1.5"/>
  <circle cx="-140" cy="90" r="3" fill="hsl(281, 40%, 55%)"/>
  <line x1="-90" x2="-90" y1="-40" y2="70" stroke="hsl(0, 0%, 0%)" stroke-width="1.5"/>
  <rect height="50" width="40" x="-110" y="10" fill="hsl(10, 31%, 40%)" stroke="hsl(0, 0%, 0%)" stroke-width="1.5" opacity="0.7"/>
  <line x1="-110" x2="-70" y1="30" y2="30" stroke="hsl(0, 0%, 0%)" stroke-width="2"/>
  <line x1="-110" x2="-70" y1="-40" y2="-40" stroke="hsl(0, 0%, 0%)" stroke-width="1.5"/>
  <line x1="-110" x2="-70" y1="70" y2="70" stroke="hsl(0, 0%, 0%)" stroke-width="1.5"/>
  <circle cx="-90" cy="80" r="3" fill="hsl(10, 31%, 40%)"/>
  <line x1="-20" x2="-20" y1="-30" y2="60" stroke="hsl(0, 0%, 0%)" stroke-width="1.5"/>
  <rect height="50" width="40" x="-40" y="0" fill="hsl(288, 61%, 71%)" stroke="hsl(0, 0%, 0%)" stroke-width="1.5" opacity="0.7"/>
  <line x1="-40" x2="0" y1="35" y2="35" stroke="hsl(0, 0%, 0%)" stroke-width="2"/>
  <line x1="-40" x2="0" y1="-30" y2="-30" stroke="hsl(0, 0%, 0%)" stroke-width="1.5"/>
  <line x1="-40" x2="0" y1="60" y2="60" stroke="hsl(0, 0%, 0%)" stroke-width="1.5"/>
  <circle cx="-20" cy="70" r="3" fill="hsl(290, 64%, 66%)"/>
  <line x1="30" x2="30" y1="-50" y2="50" stroke="hsl(0, 0%, 0%)" stroke-width="1.5"/>
  <rect height="40" width="40" x="10" y="5" fill="hsl(0, 0%, 48%)" stroke="hsl(0, 0%, 0%)" stroke-width="1.5" opacity="0.7"/>
  <line x1="10" x2="50" y1="25" y2="25" stroke="hsl(0, 0%, 0%)" stroke-width="2"/>
  <line x1="10" x2="50" y1="-50" y2="-50" stroke="hsl(0, 0%, 0%)" stroke-width="1.5"/>
  <line x1="10" x2="50" y1="50" y2="50" stroke="hsl(0, 0%, 0%)" stroke-width="1.5"/>
  <circle cx="30" cy="60" r="3" fill="hsl(0, 0%, 53%)"/>
  <line x1="100" x2="100" y1="-30" y2="70" stroke="hsl(0, 0%, 0%)" stroke-width="1.5"/>
  <rect height="70" width="40" x="80" y="0" fill="hsl(62, 63%, 40%)" stroke="hsl(0, 0%, 0%)" stroke-width="1.5" opacity="0.7"/>
  <line x1="80" x2="120" y1="50" y2="50" stroke="hsl(0, 0%, 0%)" stroke-width="2"/>
  <line x1="80" x2="120" y1="-30" y2="-30" stroke="hsl(0, 0%, 0%)" stroke-width="1.5"/>
  <line x1="80" x2="120" y1="70" y2="70" stroke="hsl(0, 0%, 0%)" stroke-width="1.5"/>
  <circle cx="100" cy="80" r="3" fill="hsl(62, 76%, 41%)"/>
  <line x1="150" x2="150" y1="-40" y2="60" stroke="hsl(0, 0%, 0%)" stroke-width="1.5"/>
  <rect height="40" width="40" x="130" y="0" fill="hsl(191, 76%, 47%)" stroke="hsl(0, 0%, 0%)" stroke-width="1.5" opacity="0.7"/>
  <line x1="130" x2="170" y1="15" y2="15" stroke="hsl(0, 0%, 0%)" stroke-width="2"/>
  <line x1="130" x2="170" y1="-40" y2="-40" stroke="hsl(0, 0%, 0%)" stroke-width="1.5"/>
  <line x1="130" x2="170" y1="60" y2="60" stroke="hsl(0, 0%, 0%)" stroke-width="1.5"/>
  <circle cx="150" cy="70" r="3" fill="hsl(194, 84%, 44%)"/>
</svg>
