<?xml version='1.0' encoding='UTF-8'?>
<svg xmlns="http://www.w3.org/2000/svg" height="340" style="max-width: 100%; height: auto; font: 10px sans-serif;" viewBox="-70,-30,880,340" width="900">
  <g id="Layer_2">
    <line x1="70.9" x2="321.3" y1="261.6" y2="261.6" fill="none" stroke="hsl(0, 0%, 21%)" stroke-miterlimit="10"/>
    <g>
      <g>
        <line x1="112.9" x2="112.9" y1="261.6" y2="256.4" fill="none" stroke="hsl(0, 0%, 21%)" stroke-miterlimit="10"/>
        <line x1="154.5" x2="154.5" y1="261.6" y2="256.4" fill="none" stroke="hsl(0, 0%, 21%)" stroke-miterlimit="10"/>
        <line x1="196.1" x2="196.1" y1="261.6" y2="256.4" fill="none" stroke="hsl(0, 0%, 21%)" stroke-miterlimit="10"/>
        <line x1="237.6" x2="237.6" y1="261.6" y2="256.4" fill="none" stroke="hsl(0, 0%, 21%)" stroke-miterlimit="10"/>
        <line x1="279.2" x2="279.2" y1="261.6" y2="256.4" fill="none" stroke="hsl(0, 0%, 21%)" stroke-miterlimit="10"/>
        <line x1="320.8" x2="320.8" y1="261.6" y2="256.4" fill="none" stroke="hsl(0, 0%, 21%)" stroke-miterlimit="10"/>
      </g>
    </g>
    <line x1="71.3" x2="71.3" y1="261.6" y2="53.2" fill="none" stroke="hsl(0, 0%, 21%)" stroke-miterlimit="10"/>
    <g>
      <g>
        <line x1="71.3" x2="76.5" y1="220" y2="220" fill="none" stroke="hsl(0, 0%, 21%)" stroke-miterlimit="10"/>
        <line x1="71.3" x2="76.5" y1="178.4" y2="178.4" fill="none" stroke="hsl(0, 0%, 21%)" stroke-miterlimit="10"/>
        <line x1="71.3" x2="76.5" y1="136.9" y2="136.9" fill="none" stroke="hsl(0, 0%, 21%)" stroke-miterlimit="10"/>
        <line x1="71.3" x2="76.5" y1="95.3" y2="95.3" fill="none" stroke="hsl(0, 0%, 21%)" stroke-miterlimit="10"/>
        <line x1="71.3" x2="76.5" y1="53.7" y2="53.7" fill="none" stroke="hsl(0, 0%, 21%)" stroke-miterlimit="10"/>
      </g>
    </g>
    <line x1="423.1" x2="673.5" y1="261.6" y2="261.6" fill="none" stroke="hsl(0, 0%, 21%)" stroke-miterlimit="10"/>
    <g>
      <g>
        <line x1="465.1" x2="465.1" y1="261.6" y2="256.4" fill="none" stroke="hsl(0, 0%, 21%)" stroke-miterlimit="10"/>
        <line x1="506.7" x2="506.7" y1="261.6" y2="256.4" fill="none" stroke="hsl(0, 0%, 21%)" stroke-miterlimit="10"/>
        <line x1="548.3" x2="548.3" y1="261.6" y2="256.4" fill="none" stroke="hsl(0, 0%, 21%)" stroke-miterlimit="10"/>
        <line x1="589.9" x2="589.9" y1="261.6" y2="256.4" fill="none" stroke="hsl(0, 0%, 21%)" stroke-miterlimit="10"/>
        <line x1="631.5" x2="631.5" y1="261.6" y2="256.4" fill="none" stroke="hsl(0, 0%, 21%)" stroke-miterlimit="10"/>
        <line x1="673" x2="673" y1="261.6" y2="256.4" fill="none" stroke="hsl(0, 0%, 21%)" stroke-miterlimit="10"/>
      </g>
    </g>
    <line x1="423.6" x2="423.6" y1="261.6" y2="53.2" fill="none" stroke="hsl(0, 0%, 21%)" stroke-miterlimit="10"/>
    <g>
      <g>
        <line x1="423.6" x2="428.8" y1="220" y2="220" fill="none" stroke="hsl(0, 0%, 21%)" stroke-miterlimit="10"/>
        <line x1="423.6" x2="428.8" y1="178.4" y2="178.4" fill="none" stroke="hsl(0, 0%, 21%)" stroke-miterlimit="10"/>
        <line x1="423.6" x2="428.8" y1="136.9" y2="136.9" fill="none" stroke="hsl(0, 0%, 21%)" stroke-miterlimit="10"/>
        <line x1="423.6" x2="428.8" y1="95.3" y2="95.3" fill="none" stroke="hsl(0, 0%, 21%)" stroke-miterlimit="10"/>
        <line x1="423.6" x2="428.8" y1="53.7" y2="53.7" fill="none" stroke="hsl(0, 0%, 21%)" stroke-miterlimit="10"/>
      </g>
    </g>
  </g>
  <g id="Layer_1">
    <circle cx="112.9" cy="209.2" r="2.6" fill="hsl(0, 91%, 52%)"/>
    <circle cx="94.6" cy="229.9" r="2.6" fill="hsl(0, 91%, 52%)"/>
    <circle cx="142.1" cy="223.9" r="2.6" fill="hsl(0, 91%, 52%)"/>
    <circle cx="159.4" cy="185.9" r="2.6" fill="hsl(0, 91%, 52%)"/>
    <circle cx="158.5" cy="153.1" r="2.6" fill="hsl(0, 91%, 52%)"/>
    <circle cx="187.9" cy="183.3" r="2.6" fill="hsl(0, 91%, 52%)"/>
    <circle cx="454.4" cy="236.8" r="2.6" fill="hsl(0, 91%, 52%)"/>
    <circle cx="460.4" cy="167.7" r="2.6" fill="hsl(0, 91%, 52%)"/>
    <circle cx="516.6" cy="229.1" r="2.6" fill="hsl(0, 91%, 52%)"/>
    <circle cx="507.9" cy="149.6" r="2.6" fill="hsl(0, 91%, 52%)"/>
    <circle cx="577.9" cy="213.5" r="2.6" fill="hsl(0, 91%, 52%)"/>
    <circle cx="548.5" cy="95.2" r="2.6" fill="hsl(0, 91%, 52%)"/>
    <circle cx="599.5" cy="161.7" r="2.6" fill="hsl(0, 91%, 52%)"/>
    <circle cx="592.6" cy="102.1" r="2.6" fill="hsl(0, 91%, 52%)"/>
    <circle cx="626.3" cy="134" r="2.6" fill="hsl(0, 91%, 52%)"/>
    <circle cx="626.3" cy="126.3" r="2.6" fill="hsl(0, 91%, 52%)"/>
    <circle cx="626.3" cy="65.8" r="2.6" fill="hsl(0, 91%, 52%)"/>
    <circle cx="617.6" cy="236" r="2.6" fill="hsl(0, 91%, 52%)"/>
    <circle cx="539" cy="162.6" r="2.6" fill="hsl(0, 91%, 52%)"/>
    <circle cx="548.5" cy="134.9" r="2.6" fill="hsl(0, 91%, 52%)"/>
    <circle cx="614.2" cy="95.2" r="2.6" fill="hsl(0, 91%, 52%)"/>
    <circle cx="645.3" cy="77" r="2.6" fill="hsl(0, 91%, 52%)"/>
    <circle cx="500.1" cy="204" r="2.6" fill="hsl(0, 91%, 52%)"/>
    <circle cx="524.3" cy="202.3" r="2.6" fill="hsl(0, 91%, 52%)"/>
    <circle cx="564.9" cy="138.4" r="2.6" fill="hsl(0, 91%, 52%)"/>
    <circle cx="565.8" cy="179" r="2.6" fill="hsl(0, 91%, 52%)"/>
    <circle cx="495.8" cy="182.4" r="2.6" fill="hsl(0, 91%, 52%)"/>
    <circle cx="472.5" cy="217" r="2.6" fill="hsl(0, 91%, 52%)"/>
    <circle cx="179.2" cy="161.7" r="2.6" fill="hsl(0, 91%, 52%)"/>
    <circle cx="111" cy="226.5" r="2.6" fill="hsl(0, 91%, 52%)"/>
    <circle cx="85.9" cy="248.1" r="2.6" fill="hsl(0, 91%, 52%)"/>
    <circle cx="224.2" cy="156.5" r="2.6" fill="hsl(0, 91%, 52%)"/>
    <circle cx="256.1" cy="130.6" r="2.6" fill="hsl(0, 91%, 52%)"/>
    <circle cx="217.2" cy="132.3" r="2.6" fill="hsl(0, 91%, 52%)"/>
    <circle cx="258.7" cy="115.9" r="2.6" fill="hsl(0, 91%, 52%)"/>
    <circle cx="288.1" cy="112.5" r="2.6" fill="hsl(0, 91%, 52%)"/>
    <circle cx="302.8" cy="122" r="2.6" fill="hsl(0, 91%, 52%)"/>
    <circle cx="289.8" cy="90" r="2.6" fill="hsl(0, 91%, 52%)"/>
    <circle cx="313.1" cy="57.2" r="2.6" fill="hsl(0, 91%, 52%)"/>
    <circle cx="243.2" cy="162.6" r="2.6" fill="hsl(0, 91%, 52%)"/>
    <circle cx="199.1" cy="143.6" r="2.6" fill="hsl(0, 91%, 52%)"/>
    <circle cx="149" cy="198" r="2.6" fill="hsl(0, 91%, 52%)"/>
    <circle cx="126.5" cy="190.2" r="2.6" fill="hsl(0, 91%, 52%)"/>
    <circle cx="314.9" cy="80.5" r="2.6" fill="hsl(0, 91%, 52%)"/>
  </g>
</svg>
