<?xml version='1.0' encoding='UTF-8'?>
<svg xmlns="http://www.w3.org/2000/svg" height="340" style="max-width: 100%; height: auto; font: 10px sans-serif;" viewBox="-70,-30,880,340" width="900">
  <g id="Layer_2">
    <rect height="23" width="54.2" x="55" y="12.1" fill="hsl(217, 85%, 73%)" stroke="hsl(0, 0%, 100%)" stroke-width="0.5"/>
    <rect height="23" width="54.2" x="55" y="35.1" fill="hsl(217, 90%, 79%)" stroke="hsl(0, 0%, 90%)" stroke-width="0.5"/>
    <rect height="23" width="54.2" x="55" y="58.1" fill="hsl(217, 90%, 79%)" stroke="hsl(0, 0%, 90%)" stroke-width="0.5"/>
    <rect height="23" width="54.2" x="55" y="81.1" fill="hsl(228, 49%, 82%)" stroke="hsl(0, 0%, 98%)" stroke-width="0.5"/>
    <rect height="23" width="54.2" x="55" y="104.1" fill="hsl(217, 85%, 73%)" stroke="hsl(0, 0%, 100%)" stroke-width="0.5"/>
    <rect height="23" width="54.2" x="55" y="127.1" fill="hsl(231, 89%, 74%)" stroke="hsl(0, 0%, 99%)" stroke-width="0.5"/>
    <rect height="23" width="54.2" x="55" y="150.1" fill="hsl(206, 75%, 65%)" stroke="hsl(0, 0%, 100%)" stroke-width="0.5"/>
    <rect height="23" width="54.2" x="55" y="173.1" fill="hsl(217, 90%, 79%)" stroke="hsl(0, 0%, 90%)" stroke-width="0.5"/>
    <rect height="23" width="54.2" x="55" y="196.1" fill="hsl(217, 85%, 73%)" stroke="hsl(0, 0%, 100%)" stroke-width="0.5"/>
    <rect height="23" width="54.2" x="55" y="219.1" fill="hsl(213, 76%, 70%)" stroke="hsl(0, 0%, 100%)" stroke-width="0.5"/>
    <rect height="23" width="54.2" x="55" y="242.1" fill="hsl(217, 85%, 73%)" stroke="hsl(0, 0%, 100%)" stroke-width="0.5"/>
    <rect height="23" width="54.2" x="55" y="265.1" fill="hsl(217, 85%, 73%)" stroke="hsl(0, 0%, 100%)" stroke-width="0.5"/>
    <rect height="23" width="54.2" x="109.2" y="12.1" fill="hsl(228, 49%, 82%)" stroke="hsl(0, 0%, 98%)" stroke-width="0.5"/>
    <rect height="23" width="54.2" x="109.2" y="35.1" fill="hsl(217, 90%, 79%)" stroke="hsl(0, 0%, 90%)" stroke-width="0.5"/>
    <rect height="23" width="54.2" x="109.2" y="58.1" fill="hsl(217, 85%, 73%)" stroke="hsl(0, 0%, 100%)" stroke-width="0.5"/>
    <rect height="23" width="54.2" x="109.2" y="81.1" fill="hsl(254, 25%, 74%)" stroke="hsl(0, 0%, 100%)" stroke-width="0.5"/>
    <rect height="23" width="54.2" x="109.2" y="104.1" fill="hsl(228, 49%, 82%)" stroke="hsl(0, 0%, 98%)" stroke-width="0.5"/>
    <rect height="23" width="54.2" x="109.2" y="127.1" fill="hsl(217, 90%, 79%)" stroke="hsl(0, 0%, 90%)" stroke-width="0.5"/>
    <rect height="23" width="54.2" x="109.2" y="150.1" fill="hsl(231, 89%, 74%)" stroke="hsl(0, 0%, 99%)" stroke-width="0.5"/>
    <rect height="23" width="54.2" x="109.2" y="173.1" fill="hsl(217, 85%, 73%)" stroke="hsl(0, 0%, 100%)" stroke-width="0.5"/>
    <rect height="23" width="54.2" x="109.2" y="196.1" fill="hsl(217, 85%, 73%)" stroke="hsl(0, 0%, 100%)" stroke-width="0.5"/>
    <rect height="23" width="54.2" x="109.2" y="219.1" fill="hsl(217, 90%, 79%)" stroke="hsl(0, 0%, 90%)" stroke-width="0.5"/>
    <rect height="23" width="54.2" x="109.2" y="242.1" fill="hsl(228, 49%, 82%)" stroke="hsl(0, 0%, 98%)" stroke-width="0.5"/>
    <rect height="23" width="54.2" x="109.2" y="265.1" fill="hsl(228, 49%, 82%)" stroke="hsl(0, 0%, 98%)" stroke-width="0.5"/>
    <rect height="23" width="54.2" x="163.3" y="12.1" fill="hsl(228, 49%, 82%)" stroke="hsl(0, 0%, 98%)" stroke-width="0.5"/>
    <rect height="23" width="54.2" x="163.3" y="35.1" fill="hsl(217, 85%, 73%)" stroke="hsl(0, 0%, 100%)" stroke-width="0.5"/>
    <rect height="23" width="54.2" x="163.3" y="58.1" fill="hsl(228, 49%, 82%)" stroke="hsl(0, 0%, 98%)" stroke-width="0.5"/>
    <rect height="23" width="54.2" x="163.3" y="81.1" fill="hsl(254, 25%, 74%)" stroke="hsl(0, 0%, 100%)" stroke-width="0.5"/>
    <rect height="23" width="54.2" x="163.3" y="104.1" fill="hsl(254, 25%, 74%)" stroke="hsl(0, 0%, 100%)" stroke-width="0.5"/>
    <rect height="23" width="54.2" x="163.3" y="127.1" fill="hsl(240, 85%, 74%)" stroke="hsl(0, 0%, 100%)" stroke-width="0.5"/>
    <rect height="23" width="54.2" x="163.3" y="150.1" fill="hsl(217, 85%, 73%)" stroke="hsl(0, 0%, 100%)" stroke-width="0.5"/>
    <rect height="23" width="54.2" x="163.3" y="173.1" fill="hsl(254, 25%, 74%)" stroke="hsl(0, 0%, 100%)" stroke-width="0.5"/>
    <rect height="23" width="54.2" x="163.3" y="196.1" fill="hsl(228, 49%, 82%)" stroke="hsl(0, 0%, 98%)" stroke-width="0.5"/>
    <rect height="23" width="54.2" x="163.3" y="219.1" fill="hsl(217, 85%, 73%)" stroke="hsl(0, 0%, 100%)" stroke-width="0.5"/>
    <rect height="23" width="54.2" x="163.3" y="242.1" fill="hsl(313, 7%, 70%)" stroke="hsl(0, 0%, 97%)" stroke-width="0.5"/>
    <rect height="23" width="54.2" x="163.3" y="265.1" fill="hsl(228, 49%, 82%)" stroke="hsl(0, 0%, 98%)" stroke-width="0.5"/>
    <rect height="23" width="54.2" x="217.5" y="12.1" fill="hsl(313, 7%, 70%)" stroke="hsl(0, 0%, 97%)" stroke-width="0.5"/>
    <rect height="23" width="54.2" x="217.5" y="35.1" fill="hsl(228, 49%, 82%)" stroke="hsl(0, 0%, 98%)" stroke-width="0.5"/>
    <rect height="23" width="54.2" x="217.5" y="58.1" fill="hsl(313, 7%, 70%)" stroke="hsl(0, 0%, 97%)" stroke-width="0.5"/>
    <rect height="23" width="54.2" x="217.5" y="81.1" fill="hsl(16, 18%, 68%)" stroke="hsl(0, 0%, 100%)" stroke-width="0.5"/>
    <rect height="23" width="54.2" x="217.5" y="104.1" fill="hsl(254, 25%, 74%)" stroke="hsl(0, 0%, 100%)" stroke-width="0.5"/>
    <rect height="23" width="54.2" x="217.5" y="127.1" fill="hsl(217, 85%, 73%)" stroke="hsl(0, 0%, 100%)" stroke-width="0.5"/>
    <rect height="23" width="54.2" x="217.5" y="150.1" fill="hsl(228, 49%, 82%)" stroke="hsl(0, 0%, 98%)" stroke-width="0.5"/>
    <rect height="23" width="54.2" x="217.5" y="173.1" fill="hsl(16, 18%, 68%)" stroke="hsl(0, 0%, 100%)" stroke-width="0.5"/>
    <rect height="23" width="54.2" x="217.5" y="196.1" fill="hsl(254, 25%, 74%)" stroke="hsl(0, 0%, 100%)" stroke-width="0.5"/>
    <rect height="23" width="54.2" x="217.5" y="219.1" fill="hsl(228, 49%, 82%)" stroke="hsl(0, 0%, 98%)" stroke-width="0.5"/>
    <rect height="23" width="54.2" x="217.5" y="242.1" fill="hsl(32, 61%, 71%)" stroke="hsl(0, 0%, 97%)" stroke-width="0.5"/>
    <rect height="23" width="54.2" x="217.5" y="265.1" fill="hsl(313, 7%, 70%)" stroke="hsl(0, 0%, 97%)" stroke-width="0.5"/>
    <rect height="23" width="54.2" x="271.7" y="12.1" fill="hsl(313, 7%, 70%)" stroke="hsl(0, 0%, 97%)" stroke-width="0.5"/>
    <rect height="23" width="54.2" x="271.7" y="35.1" fill="hsl(254, 25%, 74%)" stroke="hsl(0, 0%, 100%)" stroke-width="0.5"/>
    <rect height="23" width="54.2" x="271.7" y="58.1" fill="hsl(16, 18%, 68%)" stroke="hsl(0, 0%, 100%)" stroke-width="0.5"/>
    <rect height="23" width="54.2" x="271.7" y="81.1" fill="hsl(16, 18%, 68%)" stroke="hsl(0, 0%, 100%)" stroke-width="0.5"/>
    <rect height="23" width="54.2" x="271.7" y="104.1" fill="hsl(254, 25%, 74%)" stroke="hsl(0, 0%, 100%)" stroke-width="0.5"/>
    <rect height="23" width="54.2" x="271.7" y="127.1" fill="hsl(228, 49%, 82%)" stroke="hsl(0, 0%, 98%)" stroke-width="0.5"/>
    <rect height="23" width="54.2" x="271.7" y="150.1" fill="hsl(313, 7%, 70%)" stroke="hsl(0, 0%, 97%)" stroke-width="0.5"/>
    <rect height="23" width="54.2" x="271.7" y="173.1" fill="hsl(16, 18%, 68%)" stroke="hsl(0, 0%, 100%)" stroke-width="0.5"/>
    <rect height="23" width="54.2" x="271.7" y="196.1" fill="hsl(16, 18%, 68%)" stroke="hsl(0, 0%, 100%)" stroke-width="0.5"/>
    <rect height="23" width="54.2" x="271.7" y="219.1" fill="hsl(228, 49%, 82%)" stroke="hsl(0, 0%, 98%)" stroke-width="0.5"/>
    <rect height="23" width="54.2" x="271.7" y="242.1" fill="hsl(34, 74%, 61%)" stroke="hsl(0, 0%, 100%)" stroke-width="0.5"/>
    <rect height="23" width="54.2" x="271.7" y="265.1" fill="hsl(313, 7%, 70%)" stroke="hsl(0, 0%, 97%)" stroke-width="0.5"/>
    <rect height="23" width="54.2" x="325.8" y="12.1" fill="hsl(16, 18%, 68%)" stroke="hsl(0, 0%, 100%)" stroke-width="0.5"/>
    <rect height="23" width="54.2" x="325.8" y="35.1" fill="hsl(313, 7%, 70%)" stroke="hsl(0, 0%, 97%)" stroke-width="0.5"/>
    <rect height="23" width="54.2" x="325.8" y="58.1" fill="hsl(30, 35%, 70%)" stroke="hsl(0, 0%, 100%)" stroke-width="0.5"/>
    <rect height="23" width="54.2" x="325.8" y="81.1" fill="hsl(34, 74%, 61%)" stroke="hsl(0, 0%, 100%)" stroke-width="0.5"/>
    <rect height="23" width="54.2" x="325.8" y="104.1" fill="hsl(16, 18%, 68%)" stroke="hsl(0, 0%, 100%)" stroke-width="0.5"/>
    <rect height="23" width="54.2" x="325.8" y="127.1" fill="hsl(313, 7%, 70%)" stroke="hsl(0, 0%, 97%)" stroke-width="0.5"/>
    <rect height="23" width="54.2" x="325.8" y="150.1" fill="hsl(30, 35%, 70%)" stroke="hsl(0, 0%, 100%)" stroke-width="0.5"/>
    <rect height="23" width="54.2" x="325.8" y="173.1" fill="hsl(34, 74%, 61%)" stroke="hsl(0, 0%, 100%)" stroke-width="0.5"/>
    <rect height="23" width="54.2" x="325.8" y="196.1" fill="hsl(16, 18%, 68%)" stroke="hsl(0, 0%, 100%)" stroke-width="0.5"/>
    <rect height="23" width="54.2" x="325.8" y="219.1" fill="hsl(254, 25%, 74%)" stroke="hsl(0, 0%, 100%)" stroke-width="0.5"/>
    <rect height="23" width="54.2" x="325.8" y="242.1" fill="hsl(34, 74%, 61%)" stroke="hsl(0, 0%, 100%)" stroke-width="0.5"/>
    <rect height="23" width="54.2" x="325.8" y="265.1" fill="hsl(16, 18%, 68%)" stroke="hsl(0, 0%, 100%)" stroke-width="0.5"/>
    <rect height="23" width="54.2" x="380" y="12.1" fill="hsl(34, 74%, 61%)" stroke="hsl(0, 0%, 100%)" stroke-width="0.5"/>
    <rect height="23" width="54.2" x="380" y="35.1" fill="hsl(32, 61%, 71%)" stroke="hsl(0, 0%, 97%)" stroke-width="0.5"/>
    <rect height="23" width="54.2" x="380" y="58.1" fill="hsl(32, 91%, 66%)" stroke="hsl(0, 0%, 93%)" stroke-width="0.5"/>
    <rect height="23" width="54.2" x="380" y="81.1" fill="hsl(33, 100%, 67%)" stroke="hsl(0, 0%, 100%)" stroke-width="0.5"/>
    <rect height="23" width="54.2" x="380" y="104.1" fill="hsl(30, 35%, 70%)" stroke="hsl(0, 0%, 100%)" stroke-width="0.5"/>
    <rect height="23" width="54.2" x="380" y="127.1" fill="hsl(313, 7%, 70%)" stroke="hsl(0, 0%, 97%)" stroke-width="0.5"/>
    <rect height="23" width="54.2" x="380" y="150.1" fill="hsl(32, 61%, 71%)" stroke="hsl(0, 0%, 97%)" stroke-width="0.5"/>
    <rect height="23" width="54.2" x="380" y="173.1" fill="hsl(32, 91%, 66%)" stroke="hsl(0, 0%, 93%)" stroke-width="0.5"/>
    <rect height="23" width="54.2" x="380" y="196.1" fill="hsl(30, 35%, 70%)" stroke="hsl(0, 0%, 100%)" stroke-width="0.5"/>
    <rect height="23" width="54.2" x="380" y="219.1" fill="hsl(313, 7%, 70%)" stroke="hsl(0, 0%, 97%)" stroke-width="0.5"/>
    <rect height="23" width="54.2" x="380" y="242.1" fill="hsl(33, 100%, 67%)" stroke="hsl(0, 0%, 100%)" stroke-width="0.5"/>
    <rect height="23" width="54.2" x="380" y="265.1" fill="hsl(32, 61%, 71%)" stroke="hsl(0, 0%, 97%)" stroke-width="0.5"/>
    <rect height="23" width="54.2" x="434.2" y="12.1" fill="hsl(16, 18%, 68%)" stroke="hsl(0, 0%, 100%)" stroke-width="0.5"/>
    <rect height="23" width="54.2" x="434.2" y="35.1" fill="hsl(30, 35%, 70%)" stroke="hsl(0, 0%, 100%)" stroke-width="0.5"/>
    <rect height="23" width="54.2" x="434.2" y="58.1" fill="hsl(32, 61%, 71%)" stroke="hsl(0, 0%, 97%)" stroke-width="0.5"/>
    <rect height="23" width="54.2" x="434.2" y="81.1" fill="hsl(32, 91%, 66%)" stroke="hsl(0, 0%, 93%)" stroke-width="0.5"/>
    <rect height="23" width="54.2" x="434.2" y="104.1" fill="hsl(30, 35%, 70%)" stroke="hsl(0, 0%, 100%)" stroke-width="0.5"/>
    <rect height="23" width="54.2" x="434.2" y="127.1" fill="hsl(313, 7%, 70%)" stroke="hsl(0, 0%, 97%)" stroke-width="0.5"/>
    <rect height="23" width="54.2" x="434.2" y="150.1" fill="hsl(16, 18%, 68%)" stroke="hsl(0, 0%, 100%)" stroke-width="0.5"/>
    <rect height="23" width="54.2" x="434.2" y="173.1" fill="hsl(32, 61%, 71%)" stroke="hsl(0, 0%, 97%)" stroke-width="0.5"/>
    <rect height="23" width="54.2" x="434.2" y="196.1" fill="hsl(16, 18%, 68%)" stroke="hsl(0, 0%, 100%)" stroke-width="0.5"/>
    <rect height="23" width="54.2" x="434.2" y="219.1" fill="hsl(254, 25%, 74%)" stroke="hsl(0, 0%, 100%)" stroke-width="0.5"/>
    <rect height="23" width="54.2" x="434.2" y="242.1" fill="hsl(32, 91%, 66%)" stroke="hsl(0, 0%, 93%)" stroke-width="0.5"/>
    <rect height="23" width="54.2" x="434.2" y="265.1" fill="hsl(30, 35%, 70%)" stroke="hsl(0, 0%, 100%)" stroke-width="0.5"/>
    <rect height="23" width="54.2" x="488.3" y="12.1" fill="hsl(313, 7%, 70%)" stroke="hsl(0, 0%, 97%)" stroke-width="0.5"/>
    <rect height="23" width="54.2" x="488.3" y="35.1" fill="hsl(313, 7%, 70%)" stroke="hsl(0, 0%, 97%)" stroke-width="0.5"/>
    <rect height="23" width="54.2" x="488.3" y="58.1" fill="hsl(16, 18%, 68%)" stroke="hsl(0, 0%, 100%)" stroke-width="0.5"/>
    <rect height="23" width="54.2" x="488.3" y="81.1" fill="hsl(32, 61%, 71%)" stroke="hsl(0, 0%, 97%)" stroke-width="0.5"/>
    <rect height="23" width="54.2" x="488.3" y="104.1" fill="hsl(313, 7%, 70%)" stroke="hsl(0, 0%, 97%)" stroke-width="0.5"/>
    <rect height="23" width="54.2" x="488.3" y="127.1" fill="hsl(254, 25%, 74%)" stroke="hsl(0, 0%, 100%)" stroke-width="0.5"/>
    <rect height="23" width="54.2" x="488.3" y="150.1" fill="hsl(313, 7%, 70%)" stroke="hsl(0, 0%, 97%)" stroke-width="0.5"/>
    <rect height="23" width="54.2" x="488.3" y="173.1" fill="hsl(16, 18%, 68%)" stroke="hsl(0, 0%, 100%)" stroke-width="0.5"/>
    <rect height="23" width="54.2" x="488.3" y="196.1" fill="hsl(313, 7%, 70%)" stroke="hsl(0, 0%, 97%)" stroke-width="0.5"/>
    <rect height="23" width="54.2" x="488.3" y="219.1" fill="hsl(254, 25%, 74%)" stroke="hsl(0, 0%, 100%)" stroke-width="0.5"/>
    <rect height="23" width="54.2" x="488.3" y="242.1" fill="hsl(32, 61%, 71%)" stroke="hsl(0, 0%, 97%)" stroke-width="0.5"/>
    <rect height="23" width="54.2" x="488.3" y="265.1" fill="hsl(313, 7%, 70%)" stroke="hsl(0, 0%, 97%)" stroke-width="0.5"/>
    <rect height="23" width="54.2" x="542.5" y="12.1" fill="hsl(254, 25%, 74%)" stroke="hsl(0, 0%, 100%)" stroke-width="0.5"/>
    <rect height="23" width="54.2" x="542.5" y="35.1" fill="hsl(228, 49%, 82%)" stroke="hsl(0, 0%, 98%)" stroke-width="0.5"/>
    <rect height="23" width="54.2" x="542.5" y="58.1" fill="hsl(254, 25%, 74%)" stroke="hsl(0, 0%, 100%)" stroke-width="0.5"/>
    <rect height="23" width="54.2" x="542.5" y="81.1" fill="hsl(16, 18%, 68%)" stroke="hsl(0, 0%, 100%)" stroke-width="0.5"/>
    <rect height="23" width="54.2" x="542.5" y="104.1" fill="hsl(254, 25%, 74%)" stroke="hsl(0, 0%, 100%)" stroke-width="0.5"/>
    <rect height="23" width="54.2" x="542.5" y="127.1" fill="hsl(228, 49%, 82%)" stroke="hsl(0, 0%, 98%)" stroke-width="0.5"/>
    <rect height="23" width="54.2" x="542.5" y="150.1" fill="hsl(217, 85%, 73%)" stroke="hsl(0, 0%, 100%)" stroke-width="0.5"/>
    <rect height="23" width="54.2" x="542.5" y="173.1" fill="hsl(254, 25%, 74%)" stroke="hsl(0, 0%, 100%)" stroke-width="0.5"/>
    <rect height="23" width="54.2" x="542.5" y="196.1" fill="hsl(228, 49%, 82%)" stroke="hsl(0, 0%, 98%)" stroke-width="0.5"/>
    <rect height="23" width="54.2" x="542.5" y="219.1" fill="hsl(217, 85%, 73%)" stroke="hsl(0, 0%, 100%)" stroke-width="0.5"/>
    <rect height="23" width="54.2" x="542.5" y="242.1" fill="hsl(16, 18%, 68%)" stroke="hsl(0, 0%, 100%)" stroke-width="0.5"/>
    <rect height="23" width="54.2" x="542.5" y="265.1" fill="hsl(313, 7%, 70%)" stroke="hsl(0, 0%, 97%)" stroke-width="0.5"/>
    <rect height="23" width="54.2" x="596.7" y="12.1" fill="hsl(228, 49%, 82%)" stroke="hsl(0, 0%, 98%)" stroke-width="0.5"/>
    <rect height="23" width="54.2" x="596.7" y="35.1" fill="hsl(217, 85%, 73%)" stroke="hsl(0, 0%, 100%)" stroke-width="0.5"/>
    <rect height="23" width="54.2" x="596.7" y="58.1" fill="hsl(254, 25%, 74%)" stroke="hsl(0, 0%, 100%)" stroke-width="0.5"/>
    <rect height="23" width="54.2" x="596.7" y="81.1" fill="hsl(254, 25%, 74%)" stroke="hsl(0, 0%, 100%)" stroke-width="0.5"/>
    <rect height="23" width="54.2" x="596.7" y="104.1" fill="hsl(228, 49%, 82%)" stroke="hsl(0, 0%, 98%)" stroke-width="0.5"/>
    <rect height="23" width="54.2" x="596.7" y="127.1" fill="hsl(217, 85%, 73%)" stroke="hsl(0, 0%, 100%)" stroke-width="0.5"/>
    <rect height="23" width="54.2" x="596.7" y="150.1" fill="hsl(240, 85%, 74%)" stroke="hsl(0, 0%, 100%)" stroke-width="0.5"/>
    <rect height="23" width="54.2" x="596.7" y="173.1" fill="hsl(228, 49%, 82%)" stroke="hsl(0, 0%, 98%)" stroke-width="0.5"/>
    <rect height="23" width="54.2" x="596.7" y="196.1" fill="hsl(217, 85%, 73%)" stroke="hsl(0, 0%, 100%)" stroke-width="0.5"/>
    <rect height="23" width="54.2" x="596.7" y="219.1" fill="hsl(217, 85%, 73%)" stroke="hsl(0, 0%, 100%)" stroke-width="0.5"/>
    <rect height="23" width="54.2" x="596.7" y="242.1" fill="hsl(254, 25%, 74%)" stroke="hsl(0, 0%, 100%)" stroke-width="0.5"/>
    <rect height="23" width="54.2" x="596.7" y="265.1" fill="hsl(228, 49%, 82%)" stroke="hsl(0, 0%, 98%)" stroke-width="0.5"/>
    <rect height="23" width="54.2" x="650.8" y="12.1" fill="hsl(228, 49%, 82%)" stroke="hsl(0, 0%, 98%)" stroke-width="0.5"/>
    <rect height="23" width="54.2" x="650.8" y="35.1" fill="hsl(217, 90%, 79%)" stroke="hsl(0, 0%, 90%)" stroke-width="0.5"/>
    <rect height="23" width="54.2" x="650.8" y="58.1" fill="hsl(217, 85%, 73%)" stroke="hsl(0, 0%, 100%)" stroke-width="0.5"/>
    <rect height="23" width="54.2" x="650.8" y="81.1" fill="hsl(254, 25%, 74%)" stroke="hsl(0, 0%, 100%)" stroke-width="0.5"/>
    <rect height="23" width="54.2" x="650.8" y="104.1" fill="hsl(228, 49%, 82%)" stroke="hsl(0, 0%, 98%)" stroke-width="0.5"/>
    <rect height="23" width="54.2" x="650.8" y="127.1" fill="hsl(240, 85%, 74%)" stroke="hsl(0, 0%, 100%)" stroke-width="0.5"/>
    <rect height="23" width="54.2" x="650.8" y="150.1" fill="hsl(217, 90%, 79%)" stroke="hsl(0, 0%, 90%)" stroke-width="0.5"/>
    <rect height="23" width="54.2" x="650.8" y="173.1" fill="hsl(217, 85%, 73%)" stroke="hsl(0, 0%, 100%)" stroke-width="0.5"/>
    <rect height="23" width="54.2" x="650.8" y="196.1" fill="hsl(217, 85%, 73%)" stroke="hsl(0, 0%, 100%)" stroke-width="0.5"/>
    <rect height="23" width="54.2" x="650.8" y="219.1" fill="hsl(217, 90%, 79%)" stroke="hsl(0, 0%, 90%)" stroke-width="0.5"/>
    <rect height="23" width="54.2" x="650.8" y="242.1" fill="hsl(217, 85%, 73%)" stroke="hsl(0, 0%, 100%)" stroke-width="0.5"/>
    <rect height="23" width="54.2" x="650.8" y="265.1" fill="hsl(217, 85%, 73%)" stroke="hsl(0, 0%, 100%)" stroke-width="0.5"/>
  </g>
</svg>
