<?xml version='1.0' encoding='UTF-8'?>
<svg xmlns="http://www.w3.org/2000/svg" height="340" style="max-width: 100%; height: auto; font: 10px sans-serif;" viewBox="-70,-30,880,340" width="900">
  <g id="Layer_1">
    <line x1="61.4" x2="61.4" y1="186" y2="145.5" fill="none" stroke="hsl(0, 0%, 18%)"/>
    <line x1="73.1" x2="73.1" y1="167.9" y2="196.4" fill="none" stroke="hsl(0, 0%, 18%)"/>
    <line x1="84.7" x2="84.7" y1="167.9" y2="196.4" fill="none" stroke="hsl(0, 0%, 18%)"/>
    <line x1="96.4" x2="96.4" y1="209.7" y2="241.5" fill="none" stroke="hsl(0, 0%, 18%)"/>
    <line x1="131.4" x2="131.4" y1="189.5" y2="243.5" fill="none" stroke="hsl(0, 0%, 18%)"/>
    <line x1="178" x2="178" y1="89.2" y2="133.4" fill="none" stroke="hsl(0, 0%, 18%)"/>
    <line x1="213" x2="213" y1="157.4" y2="191.8" fill="none" stroke="hsl(0, 0%, 18%)"/>
    <line x1="224.6" x2="224.6" y1="168.8" y2="206.9" fill="none" stroke="hsl(0, 0%, 18%)"/>
    <line x1="248" x2="248" y1="200.6" y2="236" fill="none" stroke="hsl(0, 0%, 18%)"/>
    <line x1="282.9" x2="282.9" y1="136.9" y2="175.9" fill="none" stroke="hsl(0, 0%, 18%)"/>
    <line x1="294.6" x2="294.6" y1="164" y2="203.1" fill="none" stroke="hsl(0, 0%, 18%)"/>
    <line x1="376.2" x2="376.2" y1="144.6" y2="191.2" fill="none" stroke="hsl(0, 0%, 18%)"/>
    <line x1="387.8" x2="387.8" y1="165.1" y2="195" fill="none" stroke="hsl(0, 0%, 18%)"/>
    <line x1="399.5" x2="399.5" y1="147.6" y2="184.3" fill="none" stroke="hsl(0, 0%, 18%)"/>
    <line x1="306.2" x2="306.2" y1="146.5" y2="218.3" fill="none" stroke="hsl(0, 0%, 18%)"/>
    <line x1="329.6" x2="329.6" y1="131.3" y2="194" fill="none" stroke="hsl(0, 0%, 18%)"/>
    <line x1="352.9" x2="352.9" y1="78.3" y2="126.1" fill="none" stroke="hsl(0, 0%, 18%)"/>
    <line x1="341.2" x2="341.2" y1="107.4" y2="184.5" fill="none" stroke="hsl(0, 0%, 18%)"/>
    <line x1="364.5" x2="364.5" y1="95.8" y2="183.6" fill="none" stroke="hsl(0, 0%, 18%)"/>
    <line x1="317.9" x2="317.9" y1="138" y2="199" fill="none" stroke="hsl(0, 0%, 18%)"/>
    <line x1="259.6" x2="259.6" y1="200.6" y2="254.8" fill="none" stroke="hsl(0, 0%, 18%)"/>
    <line x1="271.3" x2="271.3" y1="221.1" y2="280.7" fill="none" stroke="hsl(0, 0%, 18%)"/>
    <line x1="236.3" x2="236.3" y1="187.8" y2="222.4" fill="none" stroke="hsl(0, 0%, 18%)"/>
    <line x1="189.7" x2="189.7" y1="72.7" y2="111.3" fill="none" stroke="hsl(0, 0%, 18%)"/>
    <line x1="201.3" x2="201.3" y1="86.5" y2="176.1" fill="none" stroke="hsl(0, 0%, 18%)"/>
    <line x1="154.7" x2="154.7" y1="138.3" y2="253.1" fill="none" stroke="hsl(0, 0%, 18%)"/>
    <line x1="166.3" x2="166.3" y1="120.9" y2="195.7" fill="none" stroke="hsl(0, 0%, 18%)"/>
    <line x1="119.7" x2="119.7" y1="239.3" y2="265" fill="none" stroke="hsl(0, 0%, 18%)"/>
    <line x1="143" x2="143" y1="213.4" y2="243.5" fill="none" stroke="hsl(0, 0%, 18%)"/>
    <line x1="108.1" x2="108.1" y1="237.2" y2="269" fill="none" stroke="hsl(0, 0%, 18%)"/>
    <line x1="411.2" x2="411.2" y1="166" y2="204.5" fill="none" stroke="hsl(0, 0%, 18%)"/>
    <line x1="422.8" x2="422.8" y1="182" y2="204.5" fill="none" stroke="hsl(0, 0%, 18%)"/>
    <line x1="434.5" x2="434.5" y1="202" y2="166" fill="none" stroke="hsl(0, 0%, 18%)"/>
    <line x1="446.1" x2="446.1" y1="180" y2="204.5" fill="none" stroke="hsl(0, 0%, 18%)"/>
    <line x1="457.8" x2="457.8" y1="158.2" y2="221.8" fill="none" stroke="hsl(0, 0%, 18%)"/>
    <line x1="469.4" x2="469.4" y1="202" y2="163.8" fill="none" stroke="hsl(0, 0%, 18%)"/>
    <line x1="481.1" x2="481.1" y1="236.7" y2="175.8" fill="none" stroke="hsl(0, 0%, 18%)"/>
    <line x1="492.8" x2="492.8" y1="261.6" y2="218.9" fill="none" stroke="hsl(0, 0%, 18%)"/>
    <line x1="504.4" x2="504.4" y1="252.2" y2="283.3" fill="none" stroke="hsl(0, 0%, 18%)"/>
    <line x1="516.1" x2="516.1" y1="281.5" y2="218.9" fill="none" stroke="hsl(0, 0%, 18%)"/>
    <line x1="527.7" x2="527.7" y1="243.8" y2="218.9" fill="none" stroke="hsl(0, 0%, 18%)"/>
    <line x1="539.4" x2="539.4" y1="272.1" y2="233.1" fill="none" stroke="hsl(0, 0%, 18%)"/>
    <line x1="551.1" x2="551.1" y1="278.6" y2="247.7" fill="none" stroke="hsl(0, 0%, 18%)"/>
    <line x1="562.7" x2="562.7" y1="236.7" y2="193.3" fill="none" stroke="hsl(0, 0%, 18%)"/>
    <line x1="574.4" x2="574.4" y1="192.3" y2="229.6" fill="none" stroke="hsl(0, 0%, 18%)"/>
    <line x1="586" x2="586" y1="228.2" y2="175.8" fill="none" stroke="hsl(0, 0%, 18%)"/>
    <line x1="597.7" x2="597.7" y1="194" y2="229.6" fill="none" stroke="hsl(0, 0%, 18%)"/>
    <line x1="609.3" x2="609.3" y1="204.5" y2="152.2" fill="none" stroke="hsl(0, 0%, 18%)"/>
    <line x1="621" x2="621" y1="156.5" y2="115.8" fill="none" stroke="hsl(0, 0%, 18%)"/>
    <line x1="632.7" x2="632.7" y1="121.4" y2="155.5" fill="none" stroke="hsl(0, 0%, 18%)"/>
    <line x1="644.3" x2="644.3" y1="132.2" y2="198.6" fill="none" stroke="hsl(0, 0%, 18%)"/>
    <line x1="656" x2="656" y1="114.8" y2="90.6" fill="none" stroke="hsl(0, 0%, 18%)"/>
    <line x1="667.6" x2="667.6" y1="67" y2="129.1" fill="none" stroke="hsl(0, 0%, 18%)"/>
    <line x1="679.3" x2="679.3" y1="52.1" y2="94.2" fill="none" stroke="hsl(0, 0%, 18%)"/>
    <line x1="690.9" x2="690.9" y1="36.6" y2="76.4" fill="none" stroke="hsl(0, 0%, 18%)"/>
    <line x1="702.6" x2="702.6" y1="58.1" y2="110.1" fill="none" stroke="hsl(0, 0%, 18%)"/>
  </g>
  <g id="Layer_1">
    <rect height="28.5" width="6.8" x="58" y="153.6" fill="hsl(326, 78%, 57%)"/>
    <rect height="12" width="6.8" x="69.7" y="170.1" fill="hsl(88, 58%, 46%)"/>
    <rect height="50.4" width="6.8" x="81.3" y="174" fill="hsl(326, 78%, 57%)"/>
    <rect height="77.6" width="6.8" x="197.9" y="92.6" fill="hsl(326, 78%, 57%)"/>
    <rect height="38" width="6.8" x="104.7" y="225.6" fill="hsl(326, 78%, 57%)"/>
    <rect height="14.1" width="6.8" x="116.3" y="246.1" fill="hsl(88, 58%, 46%)"/>
    <rect height="9.4" width="6.8" x="128" y="222.9" fill="hsl(88, 58%, 46%)"/>
    <rect height="14" width="6.8" x="139.6" y="216.2" fill="hsl(326, 78%, 57%)"/>
    <rect height="21.4" width="6.8" x="221.2" y="174" fill="hsl(326, 78%, 57%)"/>
    <rect height="21.4" width="6.8" x="279.5" y="149.4" fill="hsl(326, 78%, 57%)"/>
    <rect height="7.4" width="6.8" x="326.2" y="145.8" fill="hsl(326, 78%, 57%)"/>
    <rect height="7.4" width="6.8" x="384.4" y="169.3" fill="hsl(326, 78%, 57%)"/>
    <rect height="25.7" width="6.8" x="407.8" y="168.3" fill="hsl(326, 78%, 57%)"/>
    <rect height="9.1" width="6.8" x="431.1" y="183.6" fill="hsl(326, 78%, 57%)"/>
    <rect height="8" width="6.8" x="454.4" y="186" fill="hsl(326, 78%, 57%)"/>
    <rect height="8" width="6.8" x="547.7" y="266.7" fill="hsl(326, 78%, 57%)"/>
    <rect height="6.2" width="6.8" x="629.3" y="125.9" fill="hsl(326, 78%, 57%)"/>
    <rect height="16.3" width="6.8" x="699.2" y="65.6" fill="hsl(326, 78%, 57%)"/>
    <rect height="11.6" width="6.8" x="524.3" y="225.1" fill="hsl(326, 78%, 57%)"/>
    <rect height="24.6" width="6.8" x="477.7" y="200.6" fill="hsl(326, 78%, 57%)"/>
    <rect height="30.9" width="6.8" x="489.4" y="225.7" fill="hsl(326, 78%, 57%)"/>
    <rect height="27.3" width="6.8" x="536" y="241.2" fill="hsl(326, 78%, 57%)"/>
    <rect height="25.8" width="6.8" x="582.6" y="199.2" fill="hsl(326, 78%, 57%)"/>
    <rect height="58.7" width="6.8" x="640.9" y="136.2" fill="hsl(326, 78%, 57%)"/>
    <rect height="25.8" width="6.8" x="594.3" y="197" fill="hsl(88, 58%, 46%)"/>
    <rect height="38.8" width="6.8" x="605.9" y="160.1" fill="hsl(88, 58%, 46%)"/>
    <rect height="31.1" width="6.8" x="617.6" y="122.7" fill="hsl(88, 58%, 46%)"/>
    <rect height="55.4" width="6.8" x="652.6" y="98.4" fill="hsl(88, 58%, 46%)"/>
    <rect height="30.9" width="6.8" x="664.2" y="73.7" fill="hsl(88, 58%, 46%)"/>
    <rect height="31" width="6.8" x="687.5" y="42.7" fill="hsl(88, 58%, 46%)"/>
    <rect height="9.9" width="6.8" x="675.9" y="63.8" fill="hsl(88, 58%, 46%)"/>
    <rect height="23.8" width="6.8" x="501" y="254.8" fill="hsl(326, 78%, 57%)"/>
    <rect height="48.9" width="6.8" x="512.7" y="223.2" fill="hsl(88, 58%, 46%)"/>
    <rect height="31.9" width="6.8" x="559.3" y="199" fill="hsl(88, 58%, 46%)"/>
    <rect height="7" width="6.8" x="571" y="195.1" fill="hsl(88, 58%, 46%)"/>
    <rect height="4" width="6.8" x="466" y="195" fill="hsl(326, 78%, 57%)"/>
    <rect height="10.4" width="6.8" x="349.5" y="107.4" fill="hsl(326, 78%, 57%)"/>
    <rect height="67.6" width="6.8" x="361.1" y="112.6" fill="hsl(326, 78%, 57%)"/>
    <rect height="44.1" width="6.8" x="337.8" y="114.8" fill="hsl(88, 58%, 46%)"/>
    <rect height="24.8" width="6.8" x="291.2" y="167.9" fill="hsl(326, 78%, 57%)"/>
    <rect height="44.3" width="6.8" x="314.5" y="143.2" fill="hsl(88, 58%, 46%)"/>
    <rect height="1.1" width="6.8" x="302.8" y="190.7" fill="hsl(326, 78%, 57%)"/>
    <rect height="1.1" width="6.8" x="372.8" y="168.3" fill="hsl(88, 58%, 46%)"/>
    <rect height="2.2" width="6.8" x="396.1" y="175.8" fill="hsl(88, 58%, 46%)"/>
    <rect height="7" width="6.8" x="419.4" y="183.6" fill="hsl(88, 58%, 46%)"/>
    <rect height="9.6" width="6.8" x="442.7" y="182" fill="hsl(88, 58%, 46%)"/>
    <rect height="28.4" width="6.8" x="232.9" y="192.7" fill="hsl(326, 78%, 57%)"/>
    <rect height="18.7" width="6.8" x="244.6" y="206.9" fill="hsl(88, 58%, 46%)"/>
    <rect height="16.4" width="6.8" x="256.2" y="206.9" fill="hsl(326, 78%, 57%)"/>
    <rect height="29.9" width="6.8" x="267.9" y="230.2" fill="hsl(326, 78%, 57%)"/>
    <rect height="69.7" width="6.8" x="151.3" y="164.5" fill="hsl(88, 58%, 46%)"/>
    <rect height="45.6" width="6.8" x="162.9" y="125.9" fill="hsl(88, 58%, 46%)"/>
    <rect height="14.8" width="6.8" x="174.6" y="100" fill="hsl(88, 58%, 46%)"/>
    <rect height="3.2" width="6.8" x="186.3" y="94.8" fill="hsl(88, 58%, 46%)"/>
    <rect height="5.4" width="6.8" x="93" y="222.9" fill="hsl(326, 78%, 57%)"/>
    <rect height="2.6" width="6.8" x="209.6" y="168.9" fill="hsl(326, 78%, 57%)"/>
  </g>
</svg>
