<?xml version='1.0' encoding='UTF-8'?>
<svg xmlns="http://www.w3.org/2000/svg" height="340" style="max-width: 100%; height: auto; font: 10px sans-serif;" viewBox="-70,-30,880,340" width="880">
  <g id="Layer_2">
    <path d="M-1.8,110.3c29.3-2.7,69.5,2.8,92.4-16.7c17.3-14.7,29.6-22.2,49.4-7.6c16.6,12.3,40.7,19.7,59.1,6.2   c11.4-9.4,32.2-81.5,52.1-51.7C259,52,264.5,65,272,76.8c12.1,19.2,28.1,3.5,44.4-1.4c16.5-4.9,34,2.6,50.3-5.6   c9.2-4.7,18.9-10.9,29.3-12.4c11.6-1.6,22.1,9.4,31.4,14.7c17.5,10,25.8-3.7,37.4-16.1c14.7-15.9,25.6-1.5,35.2,10.3   c6.6,8.2,18.8,27.2,29.8,14.6c10.1-11.6,16.1-26.7,26.1-38.5c25.4-30,63.8,2.3,90.9,10.6c26.5,8.1,52.7,18.6,79.9,24.6   c11.2,2.5,10.7,36,12.5,47.3c-89.3-2.1-178.6-4.8-268-5.6c-90.8-0.8-183.3-5.7-273.9,0.2c-39,2.5-78,5.1-117,7.6   c-17.6,1.1-35.5,0.3-53.1,0.4c-8.8,0.1-17.6,0.1-26.5,0.2C-4.2,127.8-1.8,114.5-1.8,110.3z" fill="hsl(8, 100%, 79%)"/>
    <path d="M-2.2,111.8c13.8,1.6,27.8,3.4,41.7,4.1c23.6,1.2,37.5-0.7,56.1-15.2c18.8-14.7,27-16.6,46.5-1   c12.3,9.2,24.5,14.3,40,11.5c17.8-3.2,27.2-15.6,36-30c4.4-7.2,14.3-24.9,25.3-20.8c15.1,5.6,20.4,24.4,34.8,31.5   c15.7,7.7,27.6-7.5,43.1-7.5c12,0,27.9-2.2,39.3,1.8c13.6,4.8,27.5,9.5,41.8,11.4c18.5,2.4,34.1-0.5,49.5-10.8   c18.2-12.2,25.6-25.3,45.5-8.8c18.4,15.3,27.4,19.9,49.6,5.3c18.8-12.3,34.7,4.8,53.9,0.5c13-2.9,26.3-9.2,38.4-14.6   c12.9-5.7,28.2-6,41.6-10.3c15.9-5.1,31.4,12.2,45.1,17.7c4.1,1.6,12.9,19.6,7.2,21.5c-26.9,8.7-53.8,17.5-80.6,26.2   c-38,12.3-81.3,12.4-121.1,9.9c-22-1.4-43.4-3.9-65.3-1.3c-26.5,3.1-53,6.2-79.4,9.3c-35.7,4.2-73.2,2.6-109.3,2.6   c-63.3,0-126.6,0-189.9,0c-25.3,0-50.5,0-75.8,0c-4.6,0-9.2,0-13.8,0C-2,144.7-2.1,115-2.2,111.8z" fill="hsl(11, 100%, 77%)"/>
    <path d="M-2.2,121.4c0,0,31.3,8,44.3,8s31-2.6,36-5.4c0,0,11.3-5.7,16.7-11.5c5.3-5.7,18-15.6,25-13.4   c7,2.2,20,12.8,29.7,23.9c0,0,6.3,5.7,15,5.7c0,0,7.7-0.6,14-5.1c6.3-4.5,21.7-9.9,21.7-9.9s25-5.1,39-0.3   c14,4.8,32.3,22.6,40.7,22.6c8.3,0,13,0.6,21.7-1.6c8.7-2.2,18.7-4.1,18.7-4.1s34.7-5.1,40-4.1c5.3,1,31.3,6.1,40.3,6.1   s34.3-8.6,39.7-11.8c5.3-3.2,29.3-25.2,40.7-25.2c11.3,0,29.7,17.5,40.3,21.4c0,0,11,1,16-0.3c5-1.3,20-2.6,24.7-1.3   c0,0,12.3,3.2,23.7,8c0,0,13,5.7,29.3-0.3c16.3-6.1,29-18.5,36.7-25.2c7.7-6.7,26.7-36.7,39.7-37c13-0.3,27.6,29.7,40.6,23.6v56.5   l-92.6,58.1l-77,12.8l-62.3-40.8L453.2,190l-80.7-5.1l-90-0.3l-35.7,24.9l-47-32.2l-98.3-10.8l-104.3,1.3L-2.2,121.4z" fill="hsl(18, 94%, 74%)"/>
    <path d="M-1.2,177.4c0,1.2-0.4,11.2,0.1,11.3c5.8,0.9,11.5,1.8,17.3,2.6c8,1.1,16,2.2,24,2.8c11,0.8,22.5-0.7,33.3,1.8   c7.8,1.8,15.4,7.8,21.6,12.8c7,5.6,14.4,14.9,24.2,14.9c10.6,0,19-7.7,27-13.5c9-6.6,20.3-8.7,31.2-8.2   c16.5,0.6,24.5,9.4,32.1,22.8c7.1,12.7,12.1,29.8,22.7,40.2c12.9,12.7,23.2-11.6,28.1-20.6c6.6-12.3,12.4-29.8,28.6-30.2   c6.3-0.1,12,3,17,6.4c6.5,4.4,15.1,5.7,22.8,6.1c12.3-0.1,24.8-2,36.4,3.5c11.2,5.3,19.6,15.4,32.1,18.4c5.2,1.2,9.7-2.1,13.9-4.9   c8.4-5.5,16.5-19.2,27.2-19.5c15.9-0.5,28.8,35.1,44.6,27c11.8-6.1,18.8-19.8,27.5-29.3c13.8-15.1,28,12.2,34.4,21.8   c7.8,11.7,17.4,22,30.5,27.6c12.9,5.6,25,6.2,36.6-1.4c10.9-7.1,18.1-15.7,30.9-19.6c17.9-5.5,39.1-3.4,57.6-2.1   c10.5,0.7,20.8,3.2,31.1,5.3c-0.9-5.9,0.3-19.3-5.5-22c-10.9-5-21.8-10-32.7-15c-5.6-2.6-7.5-0.8-13.5,1.4   c-11.4,4.2-22.8,8.4-34.3,12.6c-11.6,4.3-23.2,8.5-34.8,12.8c-3.2,1.2-8.6,4.9-11.6,2.7c-18.2-13.7-36.4-27.4-54.7-41.1   c-7.3-5.5-14.7-11.1-22-16.6c-3.3-2.5-12.1,6.7-15,8.7c-9.7,7-19.4,14-29.1,20.9c-4.7,3.4-18-6.2-22.9-8.4   c-16.5-7.6-36.5-7.2-54.3-9.4c-14.3-1.7-28.1-3.9-42.5-3.8c-27.8,0.2-55.6,0.5-83.4,0.7c-5.4,0-12.8-2.1-15.9,2.8   c-6.1,9.8-12.2,19.6-18.4,29.4c-12.1-16.2-24.3-32.4-36.4-48.6c-2.3-3.1-4.8-2.3-8.7-2.6c-9.4-0.7-18.8-1.4-28.2-2.1   c-26.7-2-53.3-4-80-5.9c-13.2-1-27.7-3.9-40.9-2.8c-10.6,0.8-21.2,1.7-31.8,2.5c-4.4,0.4-8.8,0.7-13.2,1.1   C-1.5,170.8-0.7,174.5-1.2,177.4z" fill="hsl(358, 100%, 54%)"/>
    <path d="M0,132.9c0,0,35.8,3.8,41.5,3.5c5.7-0.3,32-1,37.7-3.8c5.7-2.9,30.7-21.1,40.3-19.1c0,0,9.3-0.3,27,15   c0,0,13,11.8,31.7,0.6c0,0,18.3-12.4,34,0c0,0,22,16.3,27,17.9c5,1.6,18.7,6.4,40,5.7c21.3-0.6,67.7-9.3,75-10.8   c7.3-1.6,28.7,2.9,35.3,5.1c6.7,2.2,20-1.6,26.7-4.5c6.7-2.9,39-15.6,65-16.3c26-0.6,26.7,0.3,39.7,6.1c0,0,12.3,8.9,26,27.8   c0,0,10,10.5,12,11.8c2,1.3,11.3,6.4,31.3-3.2c20-9.6,43-23.9,51-34.8c0,0,30.3-38.9,36-50.1c0,0,5.7-10.2,15.3-8.9   c9.7,1.3,22,29.7,34.5,31.3l8.2,0V206h-170l-42.3-40.5h-94.3l-34.8,33.3h-84.5l-31.3-7.2l-34.3,23.3l-49.3-45.6l-73.7-0.3H43.2   H-2.2v-36.4L0,132.9z" fill="hsl(321, 100%, 66%)"/>
    <path d="M-1.8,134.8c0,0,30,6.1,43.3,5.7c13.3-0.3,33-3.5,36.7-3.8c3.7-0.3,33.7-4.1,41-4.1c7.3,0,28,8,39.7,6.1   c11.7-1.9,19-7.3,19-7.3s11.7-8.6,21.3-2.9c9.7,5.7,26,36,26,36s9.3,15,14,16c0,0,10.7,5.1,26-13.4c0,0,13-17.2,44.7-8   c0,0,18,2.2,36-8.9c0,0,16.7-9.6,42.7,5.4c0,0,16.7,5.7,39-9.3c0,0,18-9.9,53.3-11.5c0,0,28.3-4.6,45.7,10.4l11.7,16   c0,0,13.3,21.7,22,26.8c8.7,5.1,22.3,5.1,40.3-4.8c0,0,19-7.7,40.3-35.7c0,0,34.3-50.1,39.7-62.2c0,0,4.3-6.7,11.7-5.4   c0,0,4.4-0.7,11.3,7.3c7.9,9.1,18.8,27,23.5,27.5l3.8,0.6v94.4H549.2l-26-24.9h-179h-69.3L241,217.3l-46.8-44.8h-196L-1.8,134.8z" fill="hsl(2, 94%, 51%)"/>
    <path d="M728.2,122.4c-8.7-3.8-27-36.7-27-36.7c-12.3-13.4-20.7,2.7-20.7,2.7c-6,13.4-39.8,65.3-39.8,65.3   c-17.2,27.5-40,39.2-40,39.2c-22.5,11.2-40.2-1.7-40.2-1.7c-5-2.9-33-41.9-33-41.9c-5.2-8.6-19-10.8-31.2-2.6   c-12.2,8.1-26.2,4.3-26.2,4.3c-17.5-6.5-29.8-4.3-29.8-4.3c-5.5,0.7-13.2,6.5-13.2,6.5c-16.5,13.9-27.2,15.3-27.2,15.3   c-7.5-0.2-14-5.3-14-5.3c-21.2-14.6-26-12.7-26-12.7c-7-1.2-19.2,7.2-19.2,7.2c-7.5,5.5-20.8,10-20.8,10   c-6.2,1.7-32.5-4.1-32.5-4.1c-11.2-1.7-24,14.4-24,14.4c-13.5,17.7-24.1,14.1-24.1,14.1c-8.7-4.8-19-27.8-19-27.8   c-15.3-32.2-21-32.2-21-32.2c-9.7-7.7-20.3,0.6-20.3,0.6c-8,5.4-19.7,8-19.7,8c-13,0.6-34-1.9-40-2.2c-6-0.3-29.3-0.6-40.7-0.3   c-11.3,0.3-25.3,4.8-37,4.5C29.8,142.5,0,136.7,0,136.7l-2.5-0.6v41.5c0,0,0.3,0,6.7,0.6c0,0,32.8,4,37.6,3.7   c4.8-0.2,12.5-1,18.8-2.6s13.5-2.9,18.5,0c5,2.9,10.5,6.5,24.2,18.7c13.8,12.2,12.5,9.6,15.5,9.8c3,0.2,10.5-0.2,26.2-12.4   c0,0,10.2-6.5,20.8-9.8c0,0,22-7.7,33.2,0.5c0,0,6.5,1.7,19.5,29.7c0,0,11.5,26.1,21,28.2c0,0,7.2,6,24.8-28.2c0,0,10-20.6,23-16.5   s16.8,16,32,18.4s21.5-17.5,41-17s25.8,20.3,39.8,20.8s26.5-13.4,40-12.4s24.2,18.9,40.5,18.9c21.5-10.5,23.5-34.2,39.5-33.7   c0,0,7.5-2.4,25.5,23.4c0,0,10.5,13.6,14.8,16.7c4.2,3.1,15.2,18.2,40.2,23.7c0,0,7.5,1,21.8-9.3c0,0,11.8-8.4,19-11.2   c0,0,34.2-12.7,39.5-12.9c0,0,16.2-3.1,23.8,3.1s19.5,19.6,27,17.7L728.2,122.4z" fill="hsl(318, 91%, 72%)"/>
  </g>
</svg>
