<?xml version='1.0' encoding='utf-8'?>
<svg viewBox="0,0,1152,480" font-family="sans-serif" font-size="10" id="svg">
  <rect x="70" y="428" width="506" height="22" fill="#377eb8" id="rect_35" />
  <rect x="576" y="428" width="484" height="22" fill="#e41a1c" id="rect_34" />
  <rect x="55" y="404" width="521" height="22" fill="#377eb8" id="rect_33" />
  <rect x="576" y="404" width="499" height="22" fill="#e41a1c" id="rect_32" />
  <rect x="50" y="380" width="526" height="22" fill="#377eb8" id="rect_31" />
  <rect x="576" y="380" width="503" height="22" fill="#e41a1c" id="rect_30" />
  <rect x="32" y="356" width="544" height="22" fill="#377eb8" id="rect_29" />
  <rect x="576" y="356" width="518" height="22" fill="#e41a1c" id="rect_28" />
  <rect x="0" y="332" width="576" height="22" fill="#377eb8" id="rect_27" />
  <rect x="576" y="332" width="549" height="22" fill="#e41a1c" id="rect_26" />
  <rect x="29" y="308" width="547" height="22" fill="#377eb8" id="rect_25" />
  <rect x="576" y="308" width="533" height="22" fill="#e41a1c" id="rect_24" />
  <rect x="47" y="284" width="529" height="22" fill="#377eb8" id="rect_23" />
  <rect x="576" y="284" width="525" height="22" fill="#e41a1c" id="rect_22" />
  <rect x="83" y="260" width="493" height="22" fill="#377eb8" id="rect_21" />
  <rect x="576" y="260" width="495" height="22" fill="#e41a1c" id="rect_20" />
  <rect x="62" y="236" width="514" height="22" fill="#377eb8" id="rect_19" />
  <rect x="576" y="236" width="521" height="22" fill="#e41a1c" id="rect_18" />
  <rect x="50" y="212" width="526" height="22" fill="#377eb8" id="rect_17" />
  <rect x="576" y="212" width="537" height="22" fill="#e41a1c" id="rect_16" />
  <rect x="26" y="188" width="550" height="22" fill="#377eb8" id="rect_15" />
  <rect x="576" y="188" width="571" height="22" fill="#e41a1c" id="rect_14" />
  <rect x="70" y="164" width="506" height="22" fill="#377eb8" id="rect_13" />
  <rect x="576" y="164" width="539" height="22" fill="#e41a1c" id="rect_12" />
  <rect x="137" y="140" width="439" height="22" fill="#377eb8" id="rect_11" />
  <rect x="576" y="140" width="477" height="22" fill="#e41a1c" id="rect_10" />
  <rect x="234" y="116" width="342" height="22" fill="#377eb8" id="rect_9" />
  <rect x="576" y="116" width="382" height="22" fill="#e41a1c" id="rect_8" />
  <rect x="334" y="92" width="242" height="22" fill="#377eb8" id="rect_7" />
  <rect x="576" y="92" width="285" height="22" fill="#e41a1c" id="rect_6" />
  <rect x="406" y="68" width="170" height="22" fill="#377eb8" id="rect_5" />
  <rect x="576" y="68" width="215" height="22" fill="#e41a1c" id="rect_4" />
  <rect x="458" y="44" width="118" height="22" fill="#377eb8" id="rect_3" />
  <rect x="576" y="44" width="171" height="22" fill="#e41a1c" id="rect_2" />
  <rect x="476" y="20" width="100" height="22" fill="#377eb8" id="rect_1" />
  <rect x="576" y="20" width="196" height="22" fill="#e41a1c" id="rect" />
</svg>