<?xml version='1.0' encoding='utf-8'?>
<svg width="900" height="340" viewBox="-70,-30,880,340" style="max-width: 100%; height: auto; font: 10px sans-serif;" id="svg">
  <g id="g_12">
    <polyline points="48.9,25.4 48.9,281.7 694.2,281.7  " fill="none" stroke="#CCCCCC" id="polyline" />
    <line x1="49.4" y1="25.4" x2="43.1" y2="25.4" fill="none" stroke="#CCCCCC" id="line_179" />
    <line x1="48.9" y1="53.6" x2="43.1" y2="53.6" fill="none" stroke="#CCCCCC" id="line_178" />
    <line x1="48.9" y1="81.7" x2="43.1" y2="81.7" fill="none" stroke="#CCCCCC" id="line_177" />
    <line x1="48.9" y1="109.9" x2="43.1" y2="109.9" fill="none" stroke="#CCCCCC" id="line_176" />
    <line x1="48.9" y1="137.9" x2="43.1" y2="137.9" fill="none" stroke="#CCCCCC" id="line_175" />
    <line x1="48.9" y1="165.8" x2="43.1" y2="165.8" fill="none" stroke="#CCCCCC" id="line_174" />
    <line x1="48.9" y1="194" x2="43.1" y2="194" fill="none" stroke="#CCCCCC" id="line_173" />
    <line x1="48.9" y1="221.8" x2="43.1" y2="221.8" fill="none" stroke="#CCCCCC" id="line_172" />
    <line x1="48.9" y1="250.1" x2="43.1" y2="250.1" fill="none" stroke="#CCCCCC" id="line_171" />
    <line x1="93.1" y1="287.5" x2="93.1" y2="281.7" fill="none" stroke="#CCCCCC" id="line_170" />
    <line x1="439.4" y1="287.5" x2="439.4" y2="281.7" fill="none" stroke="#CCCCCC" id="line_169" />
    <line x1="48.9" y1="281.7" x2="43.1" y2="281.7" fill="none" stroke="#CCCCCC" id="line_168" />
    <g id="g_24">
      <path d="M29.8,278l1.9,3.5l1.9-3.5h1.2l-1.4,2.3h0.9v0.7H33l-0.7,1.1h1.8v0.7h-1.9v2.4h-1v-2.4h-1.9v-0.7h1.8    l-0.7-1.1h-1.3v-0.7H30l-1.4-2.3H29.8z" fill="#999999" id="path_32" />
      <path d="M39.9,279c0.3,0.6,0.5,1.4,0.5,2.5c0,1-0.1,1.8-0.4,2.5c-0.4,0.9-1.1,1.4-2.1,1.4c-0.9,0-1.5-0.4-2-1.2    c-0.4-0.6-0.5-1.5-0.5-2.6c0-0.8,0.1-1.6,0.3-2.2c0.4-1.1,1.1-1.7,2.2-1.7C38.8,277.8,39.5,278.2,39.9,279z M39,283.9    c0.3-0.4,0.4-1.2,0.4-2.4c0-0.8-0.1-1.5-0.3-2.1c-0.2-0.5-0.6-0.8-1.2-0.8c-0.5,0-0.9,0.3-1.2,0.8c-0.3,0.5-0.4,1.3-0.4,2.3    c0,0.8,0.1,1.4,0.2,1.8c0.2,0.7,0.7,1,1.3,1C38.3,284.6,38.7,284.4,39,283.9z" fill="#999999" id="path_31" />
    </g>
    <g id="g_23">
      <path d="M87.8,295.5c0,0.1,0,0.1-0.1,0.3c-0.6,2-1.6,3.6-2.8,4.8c-0.2-0.2-0.4-0.3-0.7-0.5c1-0.9,1.9-2.2,2.4-3.6    c0.2-0.5,0.3-1,0.4-1.3L87.8,295.5z M92.5,293.3c0.5,0,0.9,0,1.2-0.1v0.8c-0.1,0-0.1,0-0.2,0c-0.3,0-0.3,0-1.1,0h-6.8    c-0.6,0-0.9,0-1.2,0.1v-0.8c0.4,0,0.7,0.1,1.3,0.1H89c-0.3-0.7-0.6-1.1-1.1-1.8l0.6-0.4c0.6,0.9,0.8,1.2,1.3,2.2H92.5z M91,295.2    c1.2,2.1,2.1,3.6,2.8,5l-0.7,0.4c-0.9-1.8-1.9-3.6-2.8-5.1L91,295.2z" fill="#999999" id="path_30" />
      <path d="M97.6,297.3c-0.1,0.6-0.2,1.1-0.4,1.6c-0.3,0.7-0.6,1.2-1.2,1.8c-0.2-0.2-0.3-0.4-0.6-0.6    c0.7-0.7,1-1.2,1.2-2.1c0.3-1,0.4-2.3,0.4-4.7c0-0.9,0-1.3,0-1.7c0.4,0,0.7,0.1,1.1,0.1h4c0.5,0,0.7,0,1.1-0.1c0,0.3,0,0.5,0,1.1    v7c0,0.4-0.1,0.6-0.3,0.7c-0.2,0.1-0.4,0.1-0.9,0.1c-0.4,0-0.8,0-1.3,0c0-0.3-0.1-0.4-0.2-0.7c0.5,0.1,1,0.1,1.5,0.1    c0.3,0,0.4-0.1,0.4-0.3v-2.3H97.6z M102.5,294.8h-4.7c0,0.6,0,1-0.1,1.9h4.8V294.8z M102.5,292.4h-4.7l0,1.5v0.3h4.7V292.4z" fill="#999999" id="path_29" />
    </g>
    <g id="g_22">
      <path d="M433.4,299.1c0,0.2,0,0.3,0.2,0.4c0.2,0.1,0.8,0.1,1.6,0.1c0.6,0,1.3-0.1,1.5-0.1c0.2-0.1,0.3-0.2,0.3-0.3    c0.1-0.4,0.2-0.9,0.3-1.8c0.3,0.2,0.4,0.2,0.7,0.3c-0.1,1.2-0.3,1.9-0.6,2.2c-0.3,0.3-0.8,0.4-2.4,0.4c-1,0-1.7-0.1-2-0.2    c-0.3-0.1-0.4-0.3-0.4-0.8v-3.8l-2.1,0.4c-0.7,0.1-0.9,0.2-1.1,0.3l-0.1-0.8c0.3,0,0.7-0.1,1.2-0.1l2.3-0.4v-2.2    c0-0.4,0-0.9-0.1-1.1h0.8c0,0.3-0.1,0.7-0.1,1.1v2.1l3.9-0.7c0.4-0.1,0.8-0.2,1.1-0.3l0.1,0.8c-0.3,0-0.6,0-1.1,0.1l-4.1,0.8    V299.1z" fill="#999999" id="path_28" />
      <path d="M442.6,297.3c-0.1,0.6-0.2,1.1-0.4,1.6c-0.3,0.7-0.6,1.2-1.2,1.8c-0.2-0.2-0.3-0.4-0.6-0.6    c0.7-0.7,1-1.2,1.2-2.1c0.3-1,0.4-2.3,0.4-4.7c0-0.9,0-1.3,0-1.7c0.4,0,0.7,0.1,1.1,0.1h4c0.5,0,0.7,0,1.1-0.1c0,0.3,0,0.5,0,1.1    v7c0,0.4-0.1,0.6-0.3,0.7c-0.2,0.1-0.4,0.1-0.9,0.1c-0.4,0-0.8,0-1.3,0c0-0.3-0.1-0.4-0.2-0.7c0.5,0.1,1,0.1,1.5,0.1    c0.3,0,0.4-0.1,0.4-0.3v-2.3H442.6z M447.5,294.8h-4.7c0,0.6,0,1-0.1,1.9h4.8V294.8z M447.5,292.4h-4.7l0,1.5v0.3h4.7V292.4z" fill="#999999" id="path_27" />
    </g>
    <g id="g_21">
      <path d="M23.7,246.4l1.9,3.5l1.9-3.5h1.2l-1.4,2.3h0.9v0.7h-1.3l-0.7,1.1H28v0.7h-1.9v2.4h-1v-2.4h-1.9v-0.7h1.8    l-0.7-1.1H23v-0.7h0.9l-1.4-2.3H23.7z" fill="#999999" id="path_26" />
      <path d="M29.8,248.4v-0.7c0.7-0.1,1.1-0.2,1.4-0.3c0.3-0.2,0.5-0.5,0.6-1.1h0.7v7.4h-1v-5.2H29.8z" fill="#999999" id="path_25" />
      <path d="M39.9,247.4c0.3,0.6,0.5,1.4,0.5,2.5c0,1-0.1,1.8-0.4,2.5c-0.4,0.9-1.1,1.4-2.1,1.4c-0.9,0-1.5-0.4-2-1.2    c-0.4-0.6-0.5-1.5-0.5-2.6c0-0.8,0.1-1.6,0.3-2.2c0.4-1.1,1.1-1.7,2.2-1.7C38.8,246.2,39.5,246.6,39.9,247.4z M39,252.3    c0.3-0.4,0.4-1.2,0.4-2.4c0-0.8-0.1-1.5-0.3-2.1c-0.2-0.5-0.6-0.8-1.2-0.8c-0.5,0-0.9,0.3-1.2,0.8c-0.3,0.5-0.4,1.3-0.4,2.3    c0,0.8,0.1,1.4,0.2,1.8c0.2,0.7,0.7,1,1.3,1C38.3,253,38.7,252.8,39,252.3z" fill="#999999" id="path_24" />
    </g>
    <g id="g_20">
      <path d="M23.7,218.3l1.9,3.5l1.9-3.5h1.2l-1.4,2.3h0.9v0.7h-1.3l-0.7,1.1H28v0.7h-1.9v2.4h-1v-2.4h-1.9v-0.7h1.8    l-0.7-1.1H23v-0.7h0.9l-1.4-2.3H23.7z" fill="#999999" id="path_23" />
      <path d="M29.6,223.9c0.2-0.5,0.7-0.9,1.3-1.3l1-0.6c0.4-0.3,0.8-0.5,0.9-0.7c0.3-0.3,0.4-0.6,0.4-1    c0-0.4-0.1-0.8-0.4-1c-0.3-0.3-0.6-0.4-1-0.4c-0.6,0-1.1,0.2-1.3,0.7c-0.1,0.3-0.2,0.6-0.2,1.1h-0.9c0-0.6,0.1-1.2,0.4-1.6    c0.4-0.7,1.1-1.1,2.1-1.1c0.8,0,1.5,0.2,1.9,0.7c0.4,0.5,0.6,1,0.6,1.5c0,0.6-0.2,1.1-0.6,1.5c-0.2,0.2-0.7,0.5-1.3,0.9l-0.7,0.4    c-0.3,0.2-0.6,0.4-0.8,0.5c-0.3,0.3-0.6,0.6-0.7,1h4v0.9h-5.1C29.2,224.9,29.3,224.4,29.6,223.9z" fill="#999999" id="path_22" />
      <path d="M39.9,219.4c0.3,0.6,0.5,1.4,0.5,2.5c0,1-0.1,1.8-0.4,2.5c-0.4,0.9-1.1,1.4-2.1,1.4c-0.9,0-1.5-0.4-2-1.2    c-0.4-0.6-0.5-1.5-0.5-2.6c0-0.8,0.1-1.6,0.3-2.2c0.4-1.1,1.1-1.7,2.2-1.7C38.8,218.2,39.5,218.6,39.9,219.4z M39,224.3    c0.3-0.4,0.4-1.2,0.4-2.4c0-0.8-0.1-1.5-0.3-2.1c-0.2-0.5-0.6-0.8-1.2-0.8c-0.5,0-0.9,0.3-1.2,0.8c-0.3,0.5-0.4,1.3-0.4,2.3    c0,0.8,0.1,1.4,0.2,1.8c0.2,0.7,0.7,1,1.3,1C38.3,224.9,38.7,224.7,39,224.3z" fill="#999999" id="path_21" />
    </g>
    <g id="g_19">
      <path d="M23.7,190.2l1.9,3.5l1.9-3.5h1.2l-1.4,2.3h0.9v0.7h-1.3l-0.7,1.1H28v0.7h-1.9v2.4h-1v-2.4h-1.9v-0.7h1.8    l-0.7-1.1H23v-0.7h0.9l-1.4-2.3H23.7z" fill="#999999" id="path_20" />
      <path d="M29.7,197c-0.4-0.5-0.6-1.1-0.6-1.8h1c0,0.5,0.1,0.8,0.3,1c0.2,0.4,0.7,0.6,1.3,0.6c0.5,0,0.9-0.1,1.2-0.4    s0.4-0.6,0.4-1c0-0.5-0.2-0.9-0.5-1.1c-0.3-0.2-0.7-0.3-1.3-0.3c-0.1,0-0.1,0-0.2,0c-0.1,0-0.1,0-0.2,0v-0.8c0.1,0,0.2,0,0.2,0    c0.1,0,0.1,0,0.2,0c0.3,0,0.6-0.1,0.9-0.2c0.4-0.2,0.6-0.5,0.6-1c0-0.4-0.1-0.7-0.4-0.9s-0.6-0.3-0.9-0.3c-0.6,0-1,0.2-1.3,0.6    c-0.1,0.2-0.2,0.6-0.2,1h-0.9c0-0.6,0.1-1,0.3-1.4c0.4-0.7,1-1,2-1c0.8,0,1.3,0.2,1.8,0.5c0.4,0.3,0.6,0.8,0.6,1.5    c0,0.5-0.1,0.8-0.4,1.1c-0.2,0.2-0.3,0.3-0.6,0.4c0.4,0.1,0.7,0.3,0.9,0.6c0.2,0.3,0.3,0.7,0.3,1.1c0,0.7-0.2,1.3-0.7,1.7    s-1.1,0.7-2,0.7C30.7,197.7,30.1,197.5,29.7,197z" fill="#999999" id="path_19" />
      <path d="M39.9,191.3c0.3,0.6,0.5,1.4,0.5,2.5c0,1-0.1,1.8-0.4,2.5c-0.4,0.9-1.1,1.4-2.1,1.4c-0.9,0-1.5-0.4-2-1.2    c-0.4-0.6-0.5-1.5-0.5-2.6c0-0.8,0.1-1.6,0.3-2.2c0.4-1.1,1.1-1.7,2.2-1.7C38.8,190.1,39.5,190.5,39.9,191.3z M39,196.2    c0.3-0.4,0.4-1.2,0.4-2.4c0-0.8-0.1-1.5-0.3-2.1c-0.2-0.5-0.6-0.8-1.2-0.8c-0.5,0-0.9,0.3-1.2,0.8c-0.3,0.5-0.4,1.3-0.4,2.3    c0,0.8,0.1,1.4,0.2,1.8c0.2,0.7,0.7,1,1.3,1C38.3,196.9,38.7,196.6,39,196.2z" fill="#999999" id="path_18" />
    </g>
    <g id="g_18">
      <path d="M23.7,162.2l1.9,3.5l1.9-3.5h1.2l-1.4,2.3h0.9v0.7h-1.3l-0.7,1.1H28v0.7h-1.9v2.4h-1V167h-1.9v-0.7h1.8    l-0.7-1.1H23v-0.7h0.9l-1.4-2.3H23.7z" fill="#999999" id="path_17" />
      <path d="M32.3,169.4v-1.8h-3.2v-0.9l3.4-4.7h0.8v4.8h1.1v0.8h-1.1v1.8H32.3z M32.3,166.8v-3.4l-2.4,3.4H32.3z" fill="#999999" id="path_16" />
      <path d="M39.9,163.2c0.3,0.6,0.5,1.4,0.5,2.5c0,1-0.1,1.8-0.4,2.5c-0.4,0.9-1.1,1.4-2.1,1.4c-0.9,0-1.5-0.4-2-1.2    c-0.4-0.6-0.5-1.5-0.5-2.6c0-0.8,0.1-1.6,0.3-2.2c0.4-1.1,1.1-1.7,2.2-1.7C38.8,162,39.5,162.4,39.9,163.2z M39,168.1    c0.3-0.4,0.4-1.2,0.4-2.4c0-0.8-0.1-1.5-0.3-2.1c-0.2-0.5-0.6-0.8-1.2-0.8c-0.5,0-0.9,0.3-1.2,0.8c-0.3,0.5-0.4,1.3-0.4,2.3    c0,0.8,0.1,1.4,0.2,1.8c0.2,0.7,0.7,1,1.3,1C38.3,168.8,38.7,168.6,39,168.1z" fill="#999999" id="path_15" />
    </g>
    <g id="g_17">
      <path d="M23.7,134.1l1.9,3.5l1.9-3.5h1.2l-1.4,2.3h0.9v0.7h-1.3l-0.7,1.1H28v0.7h-1.9v2.4h-1v-2.4h-1.9v-0.7h1.8    l-0.7-1.1H23v-0.7h0.9l-1.4-2.3H23.7z" fill="#999999" id="path_14" />
      <path d="M30.1,139.5c0.1,0.5,0.3,0.9,0.7,1.1c0.2,0.1,0.5,0.2,0.8,0.2c0.6,0,1-0.2,1.2-0.5c0.3-0.4,0.4-0.7,0.4-1.2    c0-0.5-0.2-0.9-0.5-1.2s-0.7-0.4-1.1-0.4c-0.3,0-0.6,0.1-0.8,0.2s-0.4,0.3-0.6,0.5l-0.8,0l0.6-4h3.8v0.9h-3.1l-0.3,2.1    c0.2-0.1,0.3-0.2,0.5-0.3c0.3-0.1,0.6-0.2,1-0.2c0.7,0,1.3,0.2,1.7,0.7c0.5,0.4,0.7,1,0.7,1.7c0,0.7-0.2,1.3-0.6,1.8    s-1.1,0.8-2.1,0.8c-0.6,0-1.1-0.2-1.6-0.5c-0.5-0.3-0.7-0.9-0.8-1.6H30.1z" fill="#999999" id="path_13" />
      <path d="M39.9,135.1c0.3,0.6,0.5,1.4,0.5,2.5c0,1-0.1,1.8-0.4,2.5c-0.4,0.9-1.1,1.4-2.1,1.4c-0.9,0-1.5-0.4-2-1.2    c-0.4-0.6-0.5-1.5-0.5-2.6c0-0.8,0.1-1.6,0.3-2.2c0.4-1.1,1.1-1.7,2.2-1.7C38.8,134,39.5,134.4,39.9,135.1z M39,140.1    c0.3-0.4,0.4-1.2,0.4-2.4c0-0.8-0.1-1.5-0.3-2.1c-0.2-0.5-0.6-0.8-1.2-0.8c-0.5,0-0.9,0.3-1.2,0.8c-0.3,0.5-0.4,1.3-0.4,2.3    c0,0.8,0.1,1.4,0.2,1.8c0.2,0.7,0.7,1,1.3,1C38.3,140.7,38.7,140.5,39,140.1z" fill="#999999" id="path_12" />
    </g>
    <g id="g_16">
      <path d="M23.7,106l1.9,3.5l1.9-3.5h1.2l-1.4,2.3h0.9v0.7h-1.3l-0.7,1.1H28v0.7h-1.9v2.4h-1v-2.4h-1.9v-0.7h1.8    l-0.7-1.1H23v-0.7h0.9l-1.4-2.3H23.7z" fill="#999999" id="path_11" />
      <path d="M33.7,106.5c0.3,0.4,0.5,0.9,0.5,1.3h-0.9c-0.1-0.3-0.1-0.5-0.3-0.7c-0.2-0.3-0.6-0.5-1-0.5    c-0.5,0-0.9,0.2-1.2,0.7c-0.3,0.5-0.5,1.2-0.5,2.1c0.2-0.3,0.5-0.5,0.8-0.7c0.3-0.1,0.6-0.2,1-0.2c0.6,0,1.2,0.2,1.6,0.6    c0.5,0.4,0.7,1,0.7,1.8c0,0.7-0.2,1.3-0.7,1.8c-0.4,0.5-1.1,0.8-1.9,0.8c-0.7,0-1.3-0.3-1.8-0.8c-0.5-0.5-0.8-1.4-0.8-2.7    c0-0.9,0.1-1.7,0.3-2.3c0.4-1.2,1.2-1.8,2.4-1.8C32.8,105.9,33.3,106.1,33.7,106.5z M33,112.2c0.2-0.3,0.4-0.7,0.4-1.2    c0-0.4-0.1-0.7-0.3-1.1c-0.2-0.3-0.6-0.5-1.2-0.5c-0.4,0-0.8,0.1-1.1,0.4c-0.3,0.3-0.5,0.7-0.5,1.2c0,0.5,0.1,0.9,0.4,1.2    c0.3,0.3,0.7,0.5,1.1,0.5C32.4,112.7,32.7,112.5,33,112.2z" fill="#999999" id="path_10" />
      <path d="M39.9,107.1c0.3,0.6,0.5,1.4,0.5,2.5c0,1-0.1,1.8-0.4,2.5c-0.4,0.9-1.1,1.4-2.1,1.4c-0.9,0-1.5-0.4-2-1.2    c-0.4-0.6-0.5-1.5-0.5-2.6c0-0.8,0.1-1.6,0.3-2.2c0.4-1.1,1.1-1.7,2.2-1.7C38.8,105.9,39.5,106.3,39.9,107.1z M39,112    c0.3-0.4,0.4-1.2,0.4-2.4c0-0.8-0.1-1.5-0.3-2.1c-0.2-0.5-0.6-0.8-1.2-0.8c-0.5,0-0.9,0.3-1.2,0.8c-0.3,0.5-0.4,1.3-0.4,2.3    c0,0.8,0.1,1.4,0.2,1.8c0.2,0.7,0.7,1,1.3,1C38.3,112.6,38.7,112.4,39,112z" fill="#999999" id="path_9" />
    </g>
    <g id="g_15">
      <path d="M23.7,78l1.9,3.5l1.9-3.5h1.2l-1.4,2.3h0.9V81h-1.3l-0.7,1.1H28v0.7h-1.9v2.4h-1v-2.4h-1.9v-0.7h1.8L24.3,81    H23v-0.7h0.9L22.5,78H23.7z" fill="#999999" id="path_8" />
      <path d="M34.4,77.9v0.8c-0.2,0.2-0.6,0.6-0.9,1.2c-0.4,0.6-0.7,1.2-1,1.8c-0.3,0.6-0.5,1.2-0.7,1.8    c-0.1,0.3-0.2,0.9-0.4,1.6h-1c0.2-1.4,0.8-2.8,1.5-4.2c0.5-0.8,1-1.5,1.5-2.1h-4.1v-0.9H34.4z" fill="#999999" id="path_7" />
      <path d="M39.9,79c0.3,0.6,0.5,1.4,0.5,2.5c0,1-0.1,1.8-0.4,2.5c-0.4,0.9-1.1,1.4-2.1,1.4c-0.9,0-1.5-0.4-2-1.2    c-0.4-0.6-0.5-1.5-0.5-2.6c0-0.8,0.1-1.6,0.3-2.2c0.4-1.1,1.1-1.7,2.2-1.7C38.8,77.8,39.5,78.2,39.9,79z M39,83.9    c0.3-0.4,0.4-1.2,0.4-2.4c0-0.8-0.1-1.5-0.3-2.1c-0.2-0.5-0.6-0.8-1.2-0.8c-0.5,0-0.9,0.3-1.2,0.8c-0.3,0.5-0.4,1.3-0.4,2.3    c0,0.8,0.1,1.4,0.2,1.8c0.2,0.7,0.7,1,1.3,1C38.3,84.6,38.7,84.4,39,83.9z" fill="#999999" id="path_6" />
    </g>
    <g id="g_14">
      <path d="M23.7,49.9l1.9,3.5l1.9-3.5h1.2l-1.4,2.3h0.9v0.7h-1.3L26.2,54H28v0.7h-1.9v2.4h-1v-2.4h-1.9V54h1.8l-0.7-1.1    H23v-0.7h0.9l-1.4-2.3H23.7z" fill="#999999" id="path_5" />
      <path d="M29.8,52.8c-0.3-0.3-0.4-0.6-0.4-1.1c0-0.6,0.2-1,0.6-1.4s1-0.6,1.7-0.6c0.7,0,1.3,0.2,1.7,0.6    s0.6,0.8,0.6,1.3c0,0.5-0.1,0.8-0.4,1.1c-0.1,0.2-0.3,0.3-0.6,0.5c0.3,0.1,0.5,0.3,0.7,0.5c0.3,0.3,0.5,0.8,0.5,1.3    c0,0.7-0.2,1.2-0.7,1.7c-0.4,0.5-1.1,0.7-1.9,0.7c-0.7,0-1.3-0.2-1.8-0.6s-0.7-1-0.7-1.7c0-0.4,0.1-0.8,0.3-1.1s0.5-0.6,1-0.7    C30.2,53.1,30,53,29.8,52.8z M32.8,56.2c0.3-0.2,0.4-0.6,0.4-1c0-0.5-0.1-0.8-0.4-1.1c-0.3-0.2-0.7-0.4-1.1-0.4    c-0.4,0-0.8,0.1-1.1,0.4c-0.3,0.3-0.4,0.6-0.4,1.1c0,0.4,0.1,0.7,0.4,1c0.3,0.3,0.7,0.4,1.2,0.4C32.2,56.5,32.6,56.4,32.8,56.2z     M32.7,52.5c0.2-0.2,0.3-0.5,0.3-0.8c0-0.3-0.1-0.5-0.3-0.8c-0.2-0.2-0.6-0.3-1-0.3c-0.4,0-0.8,0.1-1,0.3    c-0.2,0.2-0.3,0.5-0.3,0.8c0,0.3,0.1,0.6,0.4,0.8c0.3,0.2,0.6,0.3,0.9,0.3C32.1,52.9,32.4,52.7,32.7,52.5z" fill="#999999" id="path_4" />
      <path d="M39.9,50.9c0.3,0.6,0.5,1.4,0.5,2.5c0,1-0.1,1.8-0.4,2.5c-0.4,0.9-1.1,1.4-2.1,1.4c-0.9,0-1.5-0.4-2-1.2    c-0.4-0.6-0.5-1.5-0.5-2.6c0-0.8,0.1-1.6,0.3-2.2c0.4-1.1,1.1-1.7,2.2-1.7C38.8,49.8,39.5,50.2,39.9,50.9z M39,55.9    c0.3-0.4,0.4-1.2,0.4-2.4c0-0.8-0.1-1.5-0.3-2.1c-0.2-0.5-0.6-0.8-1.2-0.8c-0.5,0-0.9,0.3-1.2,0.8c-0.3,0.5-0.4,1.3-0.4,2.3    c0,0.8,0.1,1.4,0.2,1.8c0.2,0.7,0.7,1,1.3,1C38.3,56.5,38.7,56.3,39,55.9z" fill="#999999" id="path_3" />
    </g>
    <g id="g_13">
      <path d="M23.7,21.8l1.9,3.5l1.9-3.5h1.2l-1.4,2.3h0.9v0.7h-1.3L26.2,26H28v0.7h-1.9v2.4h-1v-2.4h-1.9V26h1.8l-0.7-1.1    H23v-0.7h0.9l-1.4-2.3H23.7z" fill="#999999" id="path_2" />
      <path d="M30.2,27.3c0,0.5,0.2,0.9,0.6,1.1c0.2,0.1,0.4,0.2,0.6,0.2c0.4,0,0.8-0.2,1.1-0.6c0.3-0.4,0.5-1.1,0.7-2.3    c-0.2,0.3-0.5,0.6-0.8,0.7c-0.3,0.1-0.6,0.2-1,0.2c-0.7,0-1.3-0.2-1.7-0.7s-0.6-1-0.6-1.7c0-0.7,0.2-1.3,0.6-1.8    c0.4-0.5,1-0.8,1.8-0.8c1.1,0,1.8,0.5,2.2,1.5c0.2,0.5,0.3,1.2,0.3,2c0,0.9-0.1,1.7-0.4,2.4c-0.5,1.2-1.2,1.7-2.3,1.7    c-0.7,0-1.3-0.2-1.6-0.6s-0.6-0.9-0.6-1.4H30.2z M32.7,25.4c0.3-0.2,0.5-0.7,0.5-1.3c0-0.5-0.1-0.9-0.4-1.2s-0.6-0.4-1-0.4    c-0.5,0-0.8,0.2-1.1,0.5c-0.3,0.3-0.4,0.7-0.4,1.2c0,0.5,0.1,0.9,0.4,1.1s0.6,0.4,1.1,0.4C32,25.8,32.4,25.7,32.7,25.4z" fill="#999999" id="path_1" />
      <path d="M39.9,22.9c0.3,0.6,0.5,1.4,0.5,2.5c0,1-0.1,1.8-0.4,2.5c-0.4,0.9-1.1,1.4-2.1,1.4c-0.9,0-1.5-0.4-2-1.2    c-0.4-0.6-0.5-1.5-0.5-2.6c0-0.8,0.1-1.6,0.3-2.2c0.4-1.1,1.1-1.7,2.2-1.7C38.8,21.7,39.5,22.1,39.9,22.9z M39,27.8    c0.3-0.4,0.4-1.2,0.4-2.4c0-0.8-0.1-1.5-0.3-2.1c-0.2-0.5-0.6-0.8-1.2-0.8c-0.5,0-0.9,0.3-1.2,0.8c-0.3,0.5-0.4,1.3-0.4,2.3    c0,0.8,0.1,1.4,0.2,1.8c0.2,0.7,0.7,1,1.3,1C38.3,28.4,38.7,28.2,39,27.8z" fill="#999999" id="path" />
    </g>
  </g>
  <g id="g_11">
    <line x1="58.5" y1="183.8" x2="58.5" y2="143.7" fill="none" stroke="#ED454A" stroke-width="2" id="line_167" />
    <line x1="70" y1="165.8" x2="70" y2="194" fill="none" stroke="#39B54A" stroke-width="2" id="line_166" />
    <line x1="81.6" y1="165.8" x2="81.6" y2="221.1" fill="none" stroke="#ED454A" stroke-width="2" id="line_165" />
    <line x1="93.1" y1="207.2" x2="93.1" y2="238.7" fill="none" stroke="#ED454A" stroke-width="2" id="line_164" />
    <line x1="127.7" y1="187.2" x2="127.7" y2="240.6" fill="none" stroke="#39B54A" stroke-width="2" id="line_163" />
    <line x1="173.9" y1="87.9" x2="173.9" y2="131.7" fill="none" stroke="#39B54A" stroke-width="2" id="line_162" />
    <line x1="208.5" y1="155.5" x2="208.5" y2="189.5" fill="none" stroke="#ED454A" stroke-width="2" id="line_161" />
    <line x1="220.1" y1="166.7" x2="220.1" y2="204.4" fill="none" stroke="#ED454A" stroke-width="2" id="line_160" />
    <line x1="243.2" y1="198.2" x2="243.2" y2="233.3" fill="none" stroke="#39B54A" stroke-width="2" id="line_159" />
    <line x1="277.8" y1="135.1" x2="277.8" y2="173.8" fill="none" stroke="#ED454A" stroke-width="2" id="line_158" />
    <line x1="289.3" y1="162" x2="289.3" y2="200.7" fill="none" stroke="#ED454A" stroke-width="2" id="line_157" />
    <line x1="370.1" y1="142.7" x2="370.1" y2="188.9" fill="none" stroke="#ED454A" stroke-width="2" id="line_156" />
    <line x1="381.6" y1="163.1" x2="381.6" y2="192.6" fill="none" stroke="#ED454A" stroke-width="2" id="line_155" />
    <line x1="393.2" y1="145.8" x2="393.2" y2="182.1" fill="none" stroke="#39B54A" stroke-width="2" id="line_154" />
    <line x1="300.9" y1="144.6" x2="300.9" y2="215.7" fill="none" stroke="#39B54A" stroke-width="2" id="line_153" />
    <line x1="323.9" y1="129.6" x2="323.9" y2="191.7" fill="none" stroke="#ED454A" stroke-width="2" id="line_152" />
    <line x1="347" y1="77.1" x2="347" y2="124.5" fill="none" stroke="#ED454A" stroke-width="2" id="line_151" />
    <line x1="335.5" y1="106" x2="335.5" y2="182.3" fill="none" stroke="#39B54A" stroke-width="2" id="line_150" />
    <line x1="358.6" y1="94.4" x2="358.6" y2="181.3" fill="none" stroke="#ED454A" stroke-width="2" id="line_149" />
    <line x1="312.4" y1="136.3" x2="312.4" y2="196.6" fill="none" stroke="#39B54A" stroke-width="2" id="line_148" />
    <line x1="254.7" y1="198.2" x2="254.7" y2="251.9" fill="none" stroke="#ED454A" stroke-width="2" id="line_147" />
    <line x1="266.2" y1="218.5" x2="266.2" y2="277.5" fill="none" stroke="#ED454A" stroke-width="2" id="line_146" />
    <line x1="231.6" y1="185.6" x2="231.6" y2="219.8" fill="none" stroke="#ED454A" stroke-width="2" id="line_145" />
    <line x1="185.5" y1="71.6" x2="185.5" y2="109.8" fill="none" stroke="#39B54A" stroke-width="2" id="line_144" />
    <line x1="197" y1="85.2" x2="197" y2="174" fill="none" stroke="#ED454A" stroke-width="2" id="line_143" />
    <line x1="150.8" y1="136.6" x2="150.8" y2="250.2" fill="none" stroke="#39B54A" stroke-width="2" id="line_142" />
    <line x1="162.4" y1="119.3" x2="162.4" y2="193.4" fill="none" stroke="#39B54A" stroke-width="2" id="line_141" />
    <line x1="116.2" y1="236.5" x2="116.2" y2="262" fill="none" stroke="#39B54A" stroke-width="2" id="line_140" />
    <line x1="139.3" y1="210.9" x2="139.3" y2="240.6" fill="none" stroke="#ED454A" stroke-width="2" id="line_139" />
    <line x1="104.7" y1="220.5" x2="104.7" y2="266" fill="none" stroke="#ED454A" stroke-width="2" id="line_138" />
    <line x1="404.7" y1="163.9" x2="404.7" y2="202" fill="none" stroke="#ED454A" stroke-width="2" id="line_137" />
    <line x1="416.3" y1="179.8" x2="416.3" y2="202" fill="none" stroke="#39B54A" stroke-width="2" id="line_136" />
    <line x1="427.8" y1="199.6" x2="427.8" y2="163.9" fill="none" stroke="#ED454A" stroke-width="2" id="line_135" />
    <line x1="439.4" y1="177.9" x2="439.4" y2="202" fill="none" stroke="#39B54A" stroke-width="2" id="line_134" />
    <line x1="450.9" y1="156.2" x2="450.9" y2="219.2" fill="none" stroke="#ED454A" stroke-width="2" id="line_133" />
    <line x1="462.4" y1="199.6" x2="462.4" y2="161.7" fill="none" stroke="#ED454A" stroke-width="2" id="line_132" />
    <line x1="474" y1="233.9" x2="474" y2="173.6" fill="none" stroke="#ED454A" stroke-width="2" id="line_131" />
    <line x1="485.5" y1="258.6" x2="485.5" y2="216.3" fill="none" stroke="#ED454A" stroke-width="2" id="line_130" />
    <line x1="497.1" y1="249.3" x2="497.1" y2="280.1" fill="none" stroke="#ED454A" stroke-width="2" id="line_129" />
    <line x1="508.6" y1="278.3" x2="508.6" y2="216.3" fill="none" stroke="#39B54A" stroke-width="2" id="line_128" />
    <line x1="520.1" y1="241" x2="520.1" y2="216.3" fill="none" stroke="#ED454A" stroke-width="2" id="line_127" />
    <line x1="531.7" y1="269" x2="531.7" y2="230.4" fill="none" stroke="#ED454A" stroke-width="2" id="line_126" />
    <line x1="543.2" y1="275.4" x2="543.2" y2="244.8" fill="none" stroke="#ED454A" stroke-width="2" id="line_125" />
    <line x1="554.8" y1="233.9" x2="554.8" y2="190.9" fill="none" stroke="#39B54A" stroke-width="2" id="line_124" />
    <line x1="566.3" y1="189.9" x2="566.3" y2="226.9" fill="none" stroke="#39B54A" stroke-width="2" id="line_123" />
    <line x1="577.8" y1="225.6" x2="577.8" y2="173.6" fill="none" stroke="#ED454A" stroke-width="2" id="line_122" />
    <line x1="589.4" y1="191.7" x2="589.4" y2="226.9" fill="none" stroke="#39B54A" stroke-width="2" id="line_121" />
    <line x1="600.9" y1="202" x2="600.9" y2="150.3" fill="none" stroke="#39B54A" stroke-width="2" id="line_120" />
    <line x1="612.5" y1="154.5" x2="612.5" y2="114.3" fill="none" stroke="#39B54A" stroke-width="2" id="line_119" />
    <line x1="624" y1="119.8" x2="624" y2="153.6" fill="none" stroke="#ED454A" stroke-width="2" id="line_118" />
    <line x1="635.6" y1="130.5" x2="635.6" y2="196.2" fill="none" stroke="#ED454A" stroke-width="2" id="line_117" />
    <line x1="647.1" y1="151.9" x2="647.1" y2="89.4" fill="none" stroke="#39B54A" stroke-width="2" id="line_116" />
    <line x1="658.6" y1="65.9" x2="658.6" y2="127.4" fill="none" stroke="#39B54A" stroke-width="2" id="line_115" />
    <line x1="670.2" y1="51.2" x2="670.2" y2="92.9" fill="none" stroke="#39B54A" stroke-width="2" id="line_114" />
    <line x1="681.7" y1="35.8" x2="681.7" y2="75.2" fill="none" stroke="#39B54A" stroke-width="2" id="line_113" />
    <line x1="693.3" y1="57.2" x2="693.3" y2="108.6" fill="none" stroke="#ED454A" stroke-width="2" id="line_112" />
  </g>
  <g id="g">
    <line x1="58.5" y1="152.4" x2="53.9" y2="152.4" fill="none" stroke="#ED454A" stroke-width="2" id="line_111" />
    <line x1="63.1" y1="179" x2="58.5" y2="179" fill="none" stroke="#ED454A" stroke-width="2" id="line_110" />
    <line x1="70" y1="179" x2="65.5" y2="179" fill="none" stroke="#39B54A" stroke-width="2" id="line_109" />
    <line x1="74.6" y1="169" x2="70" y2="169" fill="none" stroke="#39B54A" stroke-width="2" id="line_108" />
    <line x1="81.7" y1="172.9" x2="77.1" y2="172.9" fill="none" stroke="#ED454A" stroke-width="2" id="line_107" />
    <line x1="86.1" y1="220.2" x2="81.6" y2="220.2" fill="none" stroke="#ED454A" stroke-width="2" id="line_106" />
    <line x1="93.1" y1="221.1" x2="88.6" y2="221.1" fill="none" stroke="#ED454A" stroke-width="2" id="line_105" />
    <line x1="97.7" y1="224.9" x2="93.1" y2="224.9" fill="none" stroke="#ED454A" stroke-width="2" id="line_104" />
    <line x1="104.7" y1="223.7" x2="100.1" y2="223.7" fill="none" stroke="#ED454A" stroke-width="2" id="line_103" />
    <line x1="116.2" y1="256.3" x2="111.6" y2="256.3" fill="none" stroke="#39B54A" stroke-width="2" id="line_102" />
    <line x1="120.8" y1="244" x2="116.2" y2="244" fill="none" stroke="#39B54A" stroke-width="2" id="line_101" />
    <line x1="128.1" y1="228.6" x2="123.5" y2="228.6" fill="none" stroke="#39B54A" stroke-width="2" id="line_100" />
    <line x1="139.3" y1="214.3" x2="134.7" y2="214.3" fill="none" stroke="#ED454A" stroke-width="2" id="line_99" />
    <line x1="143.9" y1="226.3" x2="139.3" y2="226.3" fill="none" stroke="#ED454A" stroke-width="2" id="line_98" />
    <line x1="150.8" y1="230.6" x2="146.3" y2="230.6" fill="none" stroke="#39B54A" stroke-width="2" id="line_97" />
    <line x1="132.3" y1="221.1" x2="127.7" y2="221.1" fill="none" stroke="#39B54A" stroke-width="2" id="line_96" />
    <line x1="109.2" y1="259.7" x2="104.7" y2="259.7" fill="none" stroke="#ED454A" stroke-width="2" id="line_95" />
    <line x1="155.4" y1="163.4" x2="150.8" y2="163.4" fill="none" stroke="#39B54A" stroke-width="2" id="line_94" />
    <line x1="162.4" y1="168.5" x2="157.8" y2="168.5" fill="none" stroke="#39B54A" stroke-width="2" id="line_93" />
    <line x1="166.9" y1="125.2" x2="162.4" y2="125.2" fill="none" stroke="#39B54A" stroke-width="2" id="line_92" />
    <line x1="173.9" y1="112.4" x2="169.3" y2="112.4" fill="none" stroke="#39B54A" stroke-width="2" id="line_91" />
    <line x1="178.5" y1="99.7" x2="173.9" y2="99.7" fill="none" stroke="#39B54A" stroke-width="2" id="line_90" />
    <line x1="185.5" y1="96" x2="180.9" y2="96" fill="none" stroke="#39B54A" stroke-width="2" id="line_89" />
    <line x1="197" y1="92.1" x2="192.4" y2="92.1" fill="none" stroke="#ED454A" stroke-width="2" id="line_88" />
    <line x1="190" y1="94.4" x2="185.5" y2="94.4" fill="none" stroke="#39B54A" stroke-width="2" id="line_87" />
    <line x1="201.6" y1="167.2" x2="197" y2="167.2" fill="none" stroke="#ED454A" stroke-width="2" id="line_86" />
    <line x1="208.5" y1="167.6" x2="204" y2="167.6" fill="none" stroke="#ED454A" stroke-width="2" id="line_85" />
    <line x1="213.1" y1="168.5" x2="208.5" y2="168.5" fill="none" stroke="#ED454A" stroke-width="2" id="line_84" />
    <line x1="220.6" y1="172.5" x2="216" y2="172.5" fill="none" stroke="#ED454A" stroke-width="2" id="line_83" />
    <line x1="224.6" y1="192.1" x2="220.1" y2="192.1" fill="none" stroke="#ED454A" stroke-width="2" id="line_82" />
    <line x1="231.6" y1="191" x2="227" y2="191" fill="none" stroke="#ED454A" stroke-width="2" id="line_81" />
    <line x1="236.2" y1="217.6" x2="231.6" y2="217.6" fill="none" stroke="#ED454A" stroke-width="2" id="line_80" />
    <line x1="243.2" y1="222.1" x2="238.6" y2="222.1" fill="none" stroke="#39B54A" stroke-width="2" id="line_79" />
    <line x1="247.7" y1="205.3" x2="243.2" y2="205.3" fill="none" stroke="#39B54A" stroke-width="2" id="line_78" />
    <line x1="254.7" y1="205.3" x2="250.1" y2="205.3" fill="none" stroke="#ED454A" stroke-width="2" id="line_77" />
    <line x1="259.3" y1="219.8" x2="254.7" y2="219.8" fill="none" stroke="#ED454A" stroke-width="2" id="line_76" />
    <line x1="266.2" y1="228.6" x2="261.7" y2="228.6" fill="none" stroke="#ED454A" stroke-width="2" id="line_75" />
    <line x1="270.8" y1="256.1" x2="266.2" y2="256.1" fill="none" stroke="#ED454A" stroke-width="2" id="line_74" />
    <line x1="277.8" y1="148.3" x2="273.2" y2="148.3" fill="none" stroke="#ED454A" stroke-width="2" id="line_73" />
    <line x1="282.3" y1="167.6" x2="277.8" y2="167.6" fill="none" stroke="#ED454A" stroke-width="2" id="line_72" />
    <line x1="289.3" y1="166.9" x2="284.8" y2="166.9" fill="none" stroke="#ED454A" stroke-width="2" id="line_71" />
    <line x1="293.9" y1="189" x2="289.3" y2="189" fill="none" stroke="#ED454A" stroke-width="2" id="line_70" />
    <line x1="300.9" y1="189" x2="296.3" y2="189" fill="none" stroke="#39B54A" stroke-width="2" id="line_69" />
    <line x1="305.4" y1="188" x2="300.9" y2="188" fill="none" stroke="#39B54A" stroke-width="2" id="line_68" />
    <line x1="312.4" y1="184.5" x2="307.8" y2="184.5" fill="none" stroke="#39B54A" stroke-width="2" id="line_67" />
    <line x1="317" y1="142.2" x2="312.4" y2="142.2" fill="none" stroke="#39B54A" stroke-width="2" id="line_66" />
    <line x1="323.9" y1="144.6" x2="319.4" y2="144.6" fill="none" stroke="#ED454A" stroke-width="2" id="line_65" />
    <line x1="328.5" y1="150.1" x2="323.9" y2="150.1" fill="none" stroke="#ED454A" stroke-width="2" id="line_64" />
    <line x1="335.5" y1="114.1" x2="330.9" y2="114.1" fill="none" stroke="#39B54A" stroke-width="2" id="line_63" />
    <line x1="340.1" y1="155.7" x2="335.5" y2="155.7" fill="none" stroke="#39B54A" stroke-width="2" id="line_62" />
    <line x1="347" y1="106.9" x2="342.5" y2="106.9" fill="none" stroke="#ED454A" stroke-width="2" id="line_61" />
    <line x1="351.6" y1="115.1" x2="347" y2="115.1" fill="none" stroke="#ED454A" stroke-width="2" id="line_60" />
    <line x1="358.6" y1="112" x2="354" y2="112" fill="none" stroke="#ED454A" stroke-width="2" id="line_59" />
    <line x1="363.6" y1="177.3" x2="359" y2="177.3" fill="none" stroke="#ED454A" stroke-width="2" id="line_58" />
    <line x1="370.1" y1="166.8" x2="365.5" y2="166.8" fill="none" stroke="#ED454A" stroke-width="2" id="line_57" />
    <line x1="374.7" y1="166.8" x2="370.1" y2="166.8" fill="none" stroke="#ED454A" stroke-width="2" id="line_56" />
    <line x1="381.6" y1="168.1" x2="377.1" y2="168.1" fill="none" stroke="#ED454A" stroke-width="2" id="line_55" />
    <line x1="386.2" y1="173.6" x2="381.6" y2="173.6" fill="none" stroke="#ED454A" stroke-width="2" id="line_54" />
    <line x1="393.2" y1="175.2" x2="388.6" y2="175.2" fill="none" stroke="#39B54A" stroke-width="2" id="line_53" />
    <line x1="397.8" y1="172.6" x2="393.2" y2="172.6" fill="none" stroke="#39B54A" stroke-width="2" id="line_52" />
    <line x1="404.7" y1="167.2" x2="400.2" y2="167.2" fill="none" stroke="#ED454A" stroke-width="2" id="line_51" />
    <line x1="409.3" y1="190.3" x2="404.7" y2="190.3" fill="none" stroke="#ED454A" stroke-width="2" id="line_50" />
    <line x1="416.3" y1="187.4" x2="411.7" y2="187.4" fill="none" stroke="#39B54A" stroke-width="2" id="line_49" />
    <line x1="420.7" y1="182.5" x2="416.1" y2="182.5" fill="none" stroke="#39B54A" stroke-width="2" id="line_48" />
    <line x1="427.8" y1="182.1" x2="423.2" y2="182.1" fill="none" stroke="#ED454A" stroke-width="2" id="line_47" />
    <line x1="432.4" y1="189.3" x2="427.8" y2="189.3" fill="none" stroke="#ED454A" stroke-width="2" id="line_46" />
    <line x1="439.4" y1="188.6" x2="434.8" y2="188.6" fill="none" stroke="#39B54A" stroke-width="2" id="line_45" />
    <line x1="443.9" y1="180.7" x2="439.4" y2="180.7" fill="none" stroke="#39B54A" stroke-width="2" id="line_44" />
    <line x1="450.9" y1="184.6" x2="446.3" y2="184.6" fill="none" stroke="#ED454A" stroke-width="2" id="line_43" />
    <line x1="455.5" y1="190.6" x2="450.9" y2="190.6" fill="none" stroke="#ED454A" stroke-width="2" id="line_42" />
    <line x1="462.4" y1="193.5" x2="457.9" y2="193.5" fill="none" stroke="#ED454A" stroke-width="2" id="line_41" />
    <line x1="467" y1="195.5" x2="462.4" y2="195.5" fill="none" stroke="#ED454A" stroke-width="2" id="line_40" />
    <line x1="474" y1="198.8" x2="469.4" y2="198.8" fill="none" stroke="#ED454A" stroke-width="2" id="line_39" />
    <line x1="478.5" y1="221.7" x2="474" y2="221.7" fill="none" stroke="#ED454A" stroke-width="2" id="line_38" />
    <line x1="485.5" y1="224" x2="481" y2="224" fill="none" stroke="#ED454A" stroke-width="2" id="line_37" />
    <line x1="490.1" y1="252.7" x2="485.5" y2="252.7" fill="none" stroke="#ED454A" stroke-width="2" id="line_36" />
    <line x1="497.1" y1="252.7" x2="492.5" y2="252.7" fill="none" stroke="#ED454A" stroke-width="2" id="line_35" />
    <line x1="501.6" y1="274.5" x2="497.1" y2="274.5" fill="none" stroke="#ED454A" stroke-width="2" id="line_34" />
    <line x1="508.6" y1="268.1" x2="504" y2="268.1" fill="none" stroke="#39B54A" stroke-width="2" id="line_33" />
    <line x1="513.2" y1="221.5" x2="508.6" y2="221.5" fill="none" stroke="#39B54A" stroke-width="2" id="line_32" />
    <line x1="520.1" y1="223.3" x2="515.6" y2="223.3" fill="none" stroke="#ED454A" stroke-width="2" id="line_31" />
    <line x1="524.7" y1="233" x2="520.1" y2="233" fill="none" stroke="#ED454A" stroke-width="2" id="line_30" />
    <line x1="531.7" y1="239" x2="527.1" y2="239" fill="none" stroke="#ED454A" stroke-width="2" id="line_29" />
    <line x1="536.3" y1="264.4" x2="531.7" y2="264.4" fill="none" stroke="#ED454A" stroke-width="2" id="line_28" />
    <line x1="543.2" y1="264.4" x2="538.7" y2="264.4" fill="none" stroke="#ED454A" stroke-width="2" id="line_27" />
    <line x1="547.8" y1="270.6" x2="543.2" y2="270.6" fill="none" stroke="#ED454A" stroke-width="2" id="line_26" />
    <line x1="554.8" y1="227.2" x2="550.2" y2="227.2" fill="none" stroke="#39B54A" stroke-width="2" id="line_25" />
    <line x1="559.3" y1="197.5" x2="554.8" y2="197.5" fill="none" stroke="#39B54A" stroke-width="2" id="line_24" />
    <line x1="566.3" y1="198.6" x2="561.7" y2="198.6" fill="none" stroke="#39B54A" stroke-width="2" id="line_23" />
    <line x1="570.9" y1="193.8" x2="566.3" y2="193.8" fill="none" stroke="#39B54A" stroke-width="2" id="line_22" />
    <line x1="577.8" y1="197.5" x2="573.3" y2="197.5" fill="none" stroke="#ED454A" stroke-width="2" id="line_21" />
    <line x1="582.4" y1="221.5" x2="577.8" y2="221.5" fill="none" stroke="#ED454A" stroke-width="2" id="line_20" />
    <line x1="589.4" y1="219.2" x2="584.8" y2="219.2" fill="none" stroke="#39B54A" stroke-width="2" id="line_19" />
    <line x1="594" y1="195.6" x2="589.4" y2="195.6" fill="none" stroke="#39B54A" stroke-width="2" id="line_18" />
    <line x1="600.9" y1="195.6" x2="596.4" y2="195.6" fill="none" stroke="#39B54A" stroke-width="2" id="line_17" />
    <line x1="605.5" y1="159.3" x2="600.9" y2="159.3" fill="none" stroke="#39B54A" stroke-width="2" id="line_16" />
    <line x1="612.5" y1="151" x2="607.9" y2="151" fill="none" stroke="#39B54A" stroke-width="2" id="line_15" />
    <line x1="617" y1="122.2" x2="612.5" y2="122.2" fill="none" stroke="#39B54A" stroke-width="2" id="line_14" />
    <line x1="624" y1="125.2" x2="619.4" y2="125.2" fill="none" stroke="#ED454A" stroke-width="2" id="line_13" />
    <line x1="628.6" y1="129.6" x2="624" y2="129.6" fill="none" stroke="#ED454A" stroke-width="2" id="line_12" />
    <line x1="635.6" y1="135.3" x2="631" y2="135.3" fill="none" stroke="#ED454A" stroke-width="2" id="line_11" />
    <line x1="640.1" y1="191.5" x2="635.6" y2="191.5" fill="none" stroke="#ED454A" stroke-width="2" id="line_10" />
    <line x1="647.1" y1="151" x2="642.5" y2="151" fill="none" stroke="#39B54A" stroke-width="2" id="line_9" />
    <line x1="651.7" y1="98" x2="647.1" y2="98" fill="none" stroke="#39B54A" stroke-width="2" id="line_8" />
    <line x1="658.6" y1="102" x2="654.1" y2="102" fill="none" stroke="#39B54A" stroke-width="2" id="line_7" />
    <line x1="663.2" y1="73.6" x2="658.6" y2="73.6" fill="none" stroke="#39B54A" stroke-width="2" id="line_6" />
    <line x1="670.2" y1="71.4" x2="665.6" y2="71.4" fill="none" stroke="#39B54A" stroke-width="2" id="line_5" />
    <line x1="674.7" y1="63.7" x2="670.2" y2="63.7" fill="none" stroke="#39B54A" stroke-width="2" id="line_4" />
    <line x1="681.7" y1="71.7" x2="677.1" y2="71.7" fill="none" stroke="#39B54A" stroke-width="2" id="line_3" />
    <line x1="686.3" y1="42.8" x2="681.7" y2="42.8" fill="none" stroke="#39B54A" stroke-width="2" id="line_2" />
    <line x1="693.3" y1="65.3" x2="688.7" y2="65.3" fill="none" stroke="#ED454A" stroke-width="2" id="line_1" />
    <line x1="697.8" y1="79.7" x2="693.3" y2="79.7" fill="none" stroke="#ED454A" stroke-width="2" id="line" />
    <g id="g_10">
	</g>
    <g id="g_9">
	</g>
    <g id="g_8">
	</g>
    <g id="g_7">
	</g>
    <g id="g_6">
	</g>
    <g id="g_5">
	</g>
    <g id="g_4">
	</g>
    <g id="g_3">
	</g>
    <g id="g_2">
	</g>
    <g id="g_1">
	</g>
  </g>
</svg>