<?xml version="1.0" encoding="utf-8"?>
<svg xmlns="http://www.w3.org/2000/svg" width="900" height="340" viewBox="-70,-30,880,340" style="max-width: 100%; height: auto; font: 10px sans-serif;">

<style type="text/css">
	.st0{fill:#f33c2b;}
	.st1{fill:#0e92ff;}
	.st2{fill:none;stroke:#FFFFFF;}
</style>
<g id="Layer_2">
</g>
<g id="Layer_3">
	<g>
		<polygon class="st0" points="714,149.2 693.5,102.9 611.1,102.9 611.1,45.1 596.1,34.2 581.5,45.1 581.5,74.7 531.1,74.7 
			531.1,22.8 520.8,15.1 511,22.8 511,55.3 456,55.3 456,55.2 353.5,55.2 353.5,251.2 352.8,251.2 352.8,259.7 353.5,259.7 
			353.5,259.7 456,259.7 456,259.7 462,259.7 462,299 466.3,302.1 470.5,299 470.5,252.1 500.5,252.1 500.5,285 505.9,289.2 
			511.1,285 511.1,242.2 541.5,242.2 541.5,270.6 551.2,278.1 560.6,270.6 560.6,224 600.7,224 600.7,254.3 614.1,263.9 
			627.2,254.3 627.2,198.2 693.5,198.2 		"/>
	</g>
</g>
<g id="Layer_1">
	<g>
		<polygon class="st1" points="184.2,55.1 184.2,21.2 178.8,23.8 173.5,21.2 173.5,64.7 136.3,64.7 136.3,36.6 127.6,40.8 
			119.4,36.6 119.4,81.1 26.6,81.1 58.4,137.3 26.6,190.3 71.2,190.3 71.2,300 97.9,286.8 124.2,300 124.2,242.8 160.8,242.8 
			160.7,284.6 167,281.4 173.5,284.6 173.5,255.1 206.7,255.1 206.7,274 209.4,271.6 212,274 212,274 212,259.7 362.2,259.7 
			400.9,156.4 362.2,55.1 		"/>
	</g>
</g>
<g id="Layer_4">
	<g>
	</g>
	<g>
	</g>
	<g>
	</g>
	<g>
	</g>
	<g>
	</g>
	<g>
	</g>
	<g>
	</g>
	<g>
	</g>
	<g>
	</g>
	<g>
	</g>
</g>
</svg>
