<?xml version="1.0" encoding="utf-8"?><svg xmlns="http://www.w3.org/2000/svg" height="340" id="svg" tag_name="svg" viewBox="0,0,850,300" width="900">
<g aria-hidden="true" class="highcharts-series highcharts-series-0 highcharts-area-series highcharts-color-0" clip-path="url(#highcharts-4v2vbvl-27-)" data-z-index="0.1" id="g_9" tag_name="svg/g_9" transform="translate(77,68) scale(1 1)">
<path d="M 6.9901960784251 59.213025 L 76.89215686274 59.71725 L 146.79411764706 65.7801 L 216.69607843137 25.812675 L 286.59803921568 74.7225 L 356.5 61.703775 L 426.40196078431 42.8409 L 496.30392156863 39.42675 L 566.20588235294 68.46525 L 636.10784313726 79.2423 L 706.00980392157 72.626625 L 706.00980392157 153.4302 L 636.10784313726 160.434675 L 566.20588235294 159.95475 L 496.30392156863 137.81745 L 426.40196078431 136.900125 L 356.5 139.5306 L 286.59803921568 137.89035 L 216.69607843137 133.935525 L 146.79411764706 135.843075 L 76.89215686274 137.045925 L 6.9901960784251 139.609575 Z" fill="#2caffe" fill-opacity="0.75" id="path_59" tag_name="svg/g_9/path_59"/>
</g>

<g aria-hidden="true" class="highcharts-series highcharts-series-1 highcharts-area-series highcharts-color-1" clip-path="url(#highcharts-4v2vbvl-27-)" data-z-index="0.1" id="g_7" tag_name="svg/g_7" transform="translate(77,68) scale(1 1)">
<path d="M 6.9901960784251 139.609575 L 76.89215686274 137.045925 L 146.79411764706 135.843075 L 216.69607843137 133.935525 L 286.59803921568 137.89035 L 356.5 139.5306 L 426.40196078431 136.900125 L 496.30392156863 137.81745 L 566.20588235294 159.95475 L 636.10784313726 160.434675 L 706.00980392157 153.4302 L 706.00980392157 183.7323 L 636.10784313726 191.344275 L 566.20588235294 190.809675 L 496.30392156863 168.43545 L 426.40196078431 170.98695 L 356.5 174.273525 L 286.59803921568 175.865175 L 216.69607843137 172.718325 L 146.79411764706 174.65625 L 76.89215686274 176.752125 L 6.9901960784251 180.227025 Z" fill="#544fc5" id="path_47" tag_name="svg/g_7/path_47">
</path>
</g>

<g aria-hidden="true" class="highcharts-series highcharts-series-2 highcharts-area-series " clip-path="url(#highcharts-4v2vbvl-27-)" data-z-index="0.1" id="g_5" tag_name="svg/g_5" transform="translate(77,68) scale(1 1)">
<path d="M 6.9901960784251 180.227025 L 76.89215686274 176.752125 L 146.79411764706 174.65625 L 216.69607843137 172.718325 L 286.59803921568 175.865175 L 356.5 174.273525 L 426.40196078431 170.98695 L 496.30392156863 168.43545 L 566.20588235294 190.809675 L 636.10784313726 191.344275 L 706.00980392157 183.7323 L 706.00980392157 213.712425 L 636.10784313726 222.180975 L 566.20588235294 221.2758 L 496.30392156863 198.83475 L 426.40196078431 201.635325 L 356.5 204.86115 L 286.59803921568 206.665425 L 216.69607843137 203.0994 L 146.79411764706 204.794325 L 76.89215686274 206.349525 L 6.9901960784251 209.459925 Z" fill="#00e272" id="path_35" tag_name="svg/g_5/path_35">
</path>
</g>

<g aria-hidden="true" class="highcharts-series highcharts-series-3 highcharts-area-series highcharts-color-3" clip-path="url(#highcharts-4v2vbvl-27-)" data-z-index="0.1" id="g_3" tag_name="svg/g_3" transform="translate(77,68) scale(1 1)">
<path d="M 6.9901960784251 209.459925 L 76.89215686274 206.349525 L 146.79411764706 204.794325 L 216.69607843137 203.0994 L 286.59803921568 206.665425 L 356.5 204.86115 L 426.40196078431 201.635325 L 496.30392156863 198.83475 L 566.20588235294 221.2758 L 636.10784313726 222.180975 L 706.00980392157 213.712425 L 706.00980392157 230.078475 L 636.10784313726 229.7565 L 566.20588235294 230.74065 L 496.30392156863 229.6593 L 426.40196078431 228.7359 L 356.5 229.28265 L 286.59803921568 229.762575 L 216.69607843137 229.531725 L 146.79411764706 229.93875 L 76.89215686274 229.701825 L 6.9901960784251 230.734575 Z" fill="#fe6a35" id="path_23" tag_name="svg/g_3/path_23">
</path>
</g>

<g aria-hidden="true" class="highcharts-series highcharts-series-4 highcharts-area-series highcharts-color-4" clip-path="url(#highcharts-4v2vbvl-27-)" data-z-index="0.1" id="g_1" tag_name="svg/g_1" transform="translate(77,68) scale(1 1)">
<path d="M 6.9901960784251 230.734575 L 76.89215686274 229.701825 L 146.79411764706 229.93875 L 216.69607843137 229.531725 L 286.59803921568 229.762575 L 356.5 229.28265 L 426.40196078431 228.7359 L 496.30392156863 229.6593 L 566.20588235294 230.74065 L 636.10784313726 229.7565 L 706.00980392157 230.078475 L 706.00980392157 243 L 636.10784313726 243 L 566.20588235294 243 L 496.30392156863 243 L 426.40196078431 243 L 356.5 243 L 286.59803921568 243 L 216.69607843137 243 L 146.79411764706 243 L 76.89215686274 243 L 6.9901960784251 243 Z" fill="#6b8abc" id="path_11" tag_name="svg/g_1/path_11">
</path>
</g>

</svg>