<?xml version='1.0' encoding='UTF-8'?>
<!-- Generator: Adobe Illustrator 21.0.0, SVG Export Plug-In . SVG Version: 6.00 Build 0)  -->
<svg xmlns="http://www.w3.org/2000/svg" width="900" height="auto" viewBox="-150,-30,1000,400" max-width="100%" font="10px sans-serif">
  <g id="Layer_2">
    <g>
      <path d="M515.4,145.1l-95.9-76c-6.1,7.7-11.4,16-15.9,24.9L513,149C513.7,147.6,514.5,146.3,515.4,145.1z" stroke-miterlimit="10" fill="#FF0000" stroke="#FFFFFF" stroke-width="0.5"/>
      <path d="M511.9,151.5c0.3-0.7,0.6-1.4,0.9-2.1l-109.4-55c-2.3,4.7-4.5,9.5-6.3,14.4L511.9,151.5z" stroke-miterlimit="10" fill="#FF0000" stroke="#FFFFFF" stroke-width="0.5"/>
      <path d="M419.8,68.7l95.9,76c0.2-0.3,0.5-0.6,0.8-0.9l-90.7-82.2C423.7,63.9,421.7,66.3,419.8,68.7z" stroke-miterlimit="10" fill="#FF7373" stroke="#FFFFFF" stroke-width="0.5"/>
      <path d="M516.4,176.2c-0.5-0.6-1-1.2-1.5-1.9l-102.2,68.3c3.1,4.6,6.5,9.1,10.1,13.3L516.4,176.2z" stroke-miterlimit="10" fill="#E6E6E6" stroke="#FFFFFF" stroke-width="0.5"/>
      <path d="M514.7,173.9c-0.3-0.4-0.5-0.8-0.8-1.2l-107.3,59.9c1.8,3.3,3.8,6.4,5.9,9.5L514.7,173.9z" stroke-miterlimit="10" fill="#FFA6A6" stroke="#FFFFFF" stroke-width="0.5"/>
      <path d="M513.4,171.8l-109.8,55.2c0.9,1.8,1.8,3.5,2.8,5.3l107.3-59.9C513.6,172.1,513.5,171.9,513.4,171.8z" stroke-miterlimit="10" fill="#FF0000" stroke="#FFFFFF" stroke-width="0.5"/>
      <path d="M520.1,140.4c0.6-0.5,1.3-1,2-1.4l-63-104.8c-4.7,2.9-9.3,6-13.7,9.4L520.1,140.4z" stroke-miterlimit="10" fill="#FF7373" stroke="#FFFFFF" stroke-width="0.5"/>
      <path d="M522.5,138.7c0.7-0.5,1.5-0.9,2.3-1.2L475.1,25.8c-5.4,2.4-10.6,5.1-15.6,8.1L522.5,138.7z" stroke-miterlimit="10" fill="#FFA6A6" stroke="#FFFFFF" stroke-width="0.5"/>
      <path d="M475.5,25.6l49.7,111.7c1.2-0.5,2.4-1,3.6-1.3L498.7,17.6C490.7,19.6,482.9,22.3,475.5,25.6z" stroke-miterlimit="10" fill="#FFA6A6" stroke="#FFFFFF" stroke-width="0.5"/>
      <path d="M517.7,177.5c-0.3-0.3-0.6-0.6-0.9-1l-93.6,79.7c2.3,2.7,4.6,5.2,7.1,7.7L517.7,177.5z" stroke-miterlimit="10" fill="#FF0000" stroke="#FFFFFF" stroke-width="0.5"/>
      <path d="M512.3,169.4c-0.1-0.3-0.2-0.5-0.3-0.8l-116.3,39.5c0.8,2.3,1.7,4.7,2.6,7L512.3,169.4z" stroke-miterlimit="10" fill="#FF0000" stroke="#FFFFFF" stroke-width="0.5"/>
      <path d="M512.4,169.9l-114,45.7c1.5,3.7,3.2,7.4,4.9,10.9l109.8-55.2C512.9,170.9,512.7,170.4,512.4,169.9z" stroke-miterlimit="10" fill="#FF0000" stroke="#FFFFFF" stroke-width="0.5"/>
      <path d="M670.6,101.9l-112.4,48.9c0.1,0.2,0.2,0.4,0.2,0.6L673,107.7C672.2,105.7,671.4,103.8,670.6,101.9z" stroke-miterlimit="10" fill="#FF7373" stroke="#FFFFFF" stroke-width="0.5"/>
      <path d="M550.7,140.7c0.3,0.2,0.5,0.4,0.8,0.6l79.9-92.7c-2.1-1.8-4.2-3.5-6.4-5.2L550.7,140.7z" stroke-miterlimit="10" fill="#E6E6E6" stroke="#FFFFFF" stroke-width="0.5"/>
      <path d="M544.8,13.3c-3.1-0.2-6.2-0.3-9.3-0.3v122.1c0.4,0,0.8,0,1.2,0L544.8,13.3z" stroke-miterlimit="10" fill="#FF0000" stroke="#FFFFFF" stroke-width="0.5"/>
      <path d="M538.6,184.7c-1.1,0.2-2.2,0.2-3.4,0.2c-0.8,0-1.6,0-2.4-0.1l-13.3,122.4c5.1,0.5,10.4,0.8,15.7,0.8    c7.3,0,14.4-0.5,21.4-1.6L538.6,184.7z" stroke-miterlimit="10" fill="#FFA6A6" stroke="#FFFFFF" stroke-width="0.5"/>
      <path d="M516.8,143.4c0.9-1,1.9-1.9,2.9-2.7L445,43.8c-6.8,5.3-13.1,11.1-18.9,17.4L516.8,143.4z" stroke-miterlimit="10" fill="#FF7373" stroke="#FFFFFF" stroke-width="0.5"/>
      <path d="M519.9,179.5c-0.7-0.5-1.3-1.1-1.9-1.7l-87.5,86.5c4.1,4.2,8.5,8.1,13.2,11.8L519.9,179.5z" stroke-miterlimit="10" fill="#FF7373" stroke="#FFFFFF" stroke-width="0.5"/>
      <path d="M549.5,139.7c0.3,0.2,0.6,0.4,0.8,0.6l74.2-97.2c-2.3-1.7-4.6-3.4-6.9-5L549.5,139.7z" stroke-miterlimit="10" fill="#FF0000" stroke="#FFFFFF" stroke-width="0.5"/>
      <path d="M529.8,184.3c-0.2-0.1-0.4-0.1-0.7-0.2L497,302.9c2.1,0.6,4.2,1.1,6.3,1.5L529.8,184.3z" stroke-miterlimit="10" fill="#FF7373" stroke="#FFFFFF" stroke-width="0.5"/>
      <path d="M530.6,184.5c-0.1,0-0.3,0-0.4-0.1l-26.4,120.2c1.6,0.3,3.1,0.7,4.7,0.9L530.6,184.5z" stroke-miterlimit="10" fill="#FFA6A6" stroke="#FFFFFF" stroke-width="0.5"/>
      <path d="M528.7,184c-0.4-0.1-0.8-0.2-1.1-0.4L487.3,300c3,1,6.1,2,9.3,2.8L528.7,184z" stroke-miterlimit="10" fill="#FF7373" stroke="#FFFFFF" stroke-width="0.5"/>
      <path d="M556.4,147.1c0.4,0.6,0.7,1.2,1.1,1.9l109.4-55.1c-2.3-4.5-4.8-8.9-7.5-13.1L556.4,147.1z" stroke-miterlimit="10" fill="#FFA6A6" stroke="#FFFFFF" stroke-width="0.5"/>
      <path d="M527.1,183.5c-0.2-0.1-0.5-0.2-0.7-0.3l-45.9,114.2c2.1,0.8,4.2,1.6,6.4,2.4L527.1,183.5z" stroke-miterlimit="10" fill="#FF0000" stroke="#FFFFFF" stroke-width="0.5"/>
      <path d="M558.1,150.3l112.3-48.9c-1-2.4-2.1-4.7-3.3-7l-109.4,55.1C557.8,149.7,557.9,150,558.1,150.3z" stroke-miterlimit="10" fill="#FF7373" stroke="#FFFFFF" stroke-width="0.5"/>
      <path d="M532.4,184.7c-0.4-0.1-0.8-0.1-1.3-0.2L509,305.6c3.3,0.6,6.7,1.1,10.1,1.4L532.4,184.7z" stroke-miterlimit="10" fill="#E6E6E6" stroke="#FFFFFF" stroke-width="0.5"/>
    </g>
    <g>
      <path d="M199.3,134.5l6.1-121.4c-2.1-0.1-4.3-0.2-6.4-0.2v121.5C199.1,134.5,199.2,134.5,199.3,134.5z" stroke-miterlimit="10" fill="#FF0000" stroke="#FFFFFF" stroke-width="0.5"/>
      <path d="M211.8,13.6c-2-0.2-4-0.3-6-0.4l-6.1,121.4c0.2,0,0.4,0,0.7,0.1L211.8,13.6z" stroke-miterlimit="10" fill="#FF0000" stroke="#FFFFFF" stroke-width="0.5"/>
      <path d="M218,14.3c-1.9-0.2-3.8-0.5-5.7-0.7l-11.4,121c0.2,0,0.4,0.1,0.6,0.1L218,14.3z" stroke-miterlimit="10" fill="#FF0000" stroke="#FFFFFF" stroke-width="0.5"/>
      <path d="M247.7,21.4c-2.8-1-5.6-1.9-8.5-2.7l-33.6,117c0.4,0.1,0.7,0.3,1.1,0.4L247.7,21.4z" stroke-miterlimit="10" fill="#FF0000" stroke="#FFFFFF" stroke-width="0.5"/>
      <path d="M253.9,23.8c-1.9-0.8-3.9-1.5-5.8-2.2l-41,114.7c0.2,0.1,0.4,0.2,0.6,0.3L253.9,23.8z" stroke-miterlimit="10" fill="#FF0000" stroke="#FFFFFF" stroke-width="0.5"/>
      <path d="M261.8,27.3c-2.4-1.2-4.9-2.2-7.4-3.3l-46.2,112.8c0.3,0.1,0.6,0.3,0.9,0.5L261.8,27.3z" stroke-miterlimit="10" fill="#FF0000" stroke="#FFFFFF" stroke-width="0.5"/>
      <path d="M269.7,31.4c-2.5-1.4-5-2.7-7.5-3.9l-52.7,110c0.3,0.2,0.6,0.4,0.9,0.5L269.7,31.4z" stroke-miterlimit="10" fill="#FF0000" stroke="#FFFFFF" stroke-width="0.5"/>
      <path d="M278.7,36.8c-2.8-1.8-5.6-3.5-8.5-5.1l-59.3,106.6c0.4,0.2,0.7,0.5,1.1,0.7L278.7,36.8z" stroke-miterlimit="10" fill="#FF0000" stroke="#FFFFFF" stroke-width="0.5"/>
      <path d="M283.1,39.8c-1.3-0.9-2.6-1.8-4-2.7l-66.7,102.2c0.1,0.1,0.2,0.2,0.3,0.3L283.1,39.8z" stroke-miterlimit="10" fill="#FF0000" stroke="#FFFFFF" stroke-width="0.5"/>
      <path d="M286.8,42.4c-1.1-0.8-2.2-1.6-3.3-2.4l-70.4,99.8c0.1,0.1,0.2,0.1,0.2,0.2L286.8,42.4z" stroke-miterlimit="10" fill="#FF0000" stroke="#FFFFFF" stroke-width="0.5"/>
      <path d="M291.6,46.2c-1.5-1.2-2.9-2.3-4.4-3.5l-73.5,97.6c0.1,0.1,0.3,0.2,0.4,0.4L291.6,46.2z" stroke-miterlimit="10" fill="#FF0000" stroke="#FFFFFF" stroke-width="0.5"/>
      <path d="M298,51.7c-2-1.8-4-3.5-6-5.2L214.5,141c0.2,0.2,0.5,0.4,0.7,0.7L298,51.7z" stroke-miterlimit="10" fill="#FF0000" stroke="#FFFFFF" stroke-width="0.5"/>
      <path d="M302.6,56.2c-1.4-1.4-2.8-2.8-4.3-4.1L215.6,142c0.1,0.1,0.3,0.3,0.4,0.4L302.6,56.2z" stroke-miterlimit="10" fill="#FF0000" stroke="#FFFFFF" stroke-width="0.5"/>
      <path d="M314.3,69.4c-3.5-4.5-7.3-8.8-11.4-12.8l-86.6,86.3c0.6,0.6,1.1,1.3,1.6,2L314.3,69.4z" stroke-miterlimit="10" fill="#FF0000" stroke="#FFFFFF" stroke-width="0.5"/>
      <path d="M317.8,73.9c-1-1.4-2.1-2.8-3.1-4.1l-96.4,75.4c0.1,0.1,0.2,0.3,0.3,0.4L317.8,73.9z" stroke-miterlimit="10" fill="#FF0000" stroke="#FFFFFF" stroke-width="0.5"/>
      <path d="M320.5,77.7c-0.8-1.2-1.6-2.3-2.4-3.4L218.8,146c0.1,0.1,0.1,0.2,0.2,0.3L320.5,77.7z" stroke-miterlimit="10" fill="#FF0000" stroke="#FFFFFF" stroke-width="0.5"/>
      <path d="M327.8,89.7c-2.2-4-4.5-7.9-7.1-11.6l-101.6,68.5c0.3,0.5,0.6,1.1,0.9,1.7L327.8,89.7z" stroke-miterlimit="10" fill="#FF0000" stroke="#FFFFFF" stroke-width="0.5"/>
      <path d="M329.8,93.5c-0.6-1.1-1.2-2.3-1.8-3.4l-107.7,58.6c0,0.1,0.1,0.1,0.1,0.2L329.8,93.5z" stroke-miterlimit="10" fill="#FF0000" stroke="#FFFFFF" stroke-width="0.5"/>
      <path d="M331.9,97.8c-0.6-1.3-1.2-2.6-1.9-3.8l-109.4,55.5c0,0.1,0.1,0.2,0.1,0.3L331.9,97.8z" stroke-miterlimit="10" fill="#FF0000" stroke="#FFFFFF" stroke-width="0.5"/>
      <path d="M333.4,101.1c-0.4-1-0.9-1.9-1.3-2.9L221,150.1c0,0,0,0.1,0,0.1L333.4,101.1z" stroke-miterlimit="10" fill="#FF0000" stroke="#FFFFFF" stroke-width="0.5"/>
      <path d="M337.4,111.2c-1.2-3.3-2.4-6.5-3.8-9.7l-112.4,49.2c0.2,0.4,0.3,0.8,0.5,1.3L337.4,111.2z" stroke-miterlimit="10" fill="#FF0000" stroke="#FFFFFF" stroke-width="0.5"/>
      <path d="M340.1,119.4c-0.8-2.6-1.6-5.2-2.5-7.7l-115.8,40.8c0.1,0.3,0.2,0.6,0.3,0.9L340.1,119.4z" stroke-miterlimit="10" fill="#FF0000" stroke="#FFFFFF" stroke-width="0.5"/>
      <path d="M342.6,129.3c-0.7-3.2-1.5-6.4-2.4-9.5l-118.1,34c0.1,0.3,0.1,0.6,0.2,1L342.6,129.3z" stroke-miterlimit="10" fill="#FF0000" stroke="#FFFFFF" stroke-width="0.5"/>
      <path d="M344.2,137.7c-0.4-2.7-0.9-5.3-1.5-7.9l-120.2,25.5c0.1,0.4,0.1,0.8,0.2,1.2L344.2,137.7z" stroke-miterlimit="10" fill="#FF0000" stroke="#FFFFFF" stroke-width="0.5"/>
      <path d="M345.1,144.4c-0.2-2.1-0.5-4.2-0.8-6.2l-121.5,18.8c0,0.2,0,0.4,0.1,0.6L345.1,144.4z" stroke-miterlimit="10" fill="#FF0000" stroke="#FFFFFF" stroke-width="0.5"/>
      <path d="M345.6,170.2c0.2-3.2,0.3-6.4,0.3-9.7c0-0.6,0-1.2,0-1.7l-123.1,1.4c0,0.5-0.1,1-0.1,1.6L345.6,170.2z" stroke-miterlimit="10" fill="#FF0000" stroke="#FFFFFF" stroke-width="0.5"/>
      <path d="M344.6,180.8c0.5-3.4,0.8-6.7,1.1-10.2l-122.9-8.5c-0.1,0.5-0.1,1-0.2,1.5L344.6,180.8z" stroke-miterlimit="10" fill="#FF0000" stroke="#FFFFFF" stroke-width="0.5"/>
      <path d="M343.4,188c0.4-2.2,0.8-4.5,1.1-6.8l-122.1-17.2c0,0.2-0.1,0.5-0.2,0.7L343.4,188z" stroke-miterlimit="10" fill="#FF0000" stroke="#FFFFFF" stroke-width="0.5"/>
      <path d="M341.9,194.9c0.5-2.1,1-4.2,1.4-6.4l-121.2-23.2c-0.1,0.2-0.1,0.4-0.2,0.6L341.9,194.9z" stroke-miterlimit="10" fill="#FF0000" stroke="#FFFFFF" stroke-width="0.5"/>
      <path d="M340.4,200.5c0.5-1.7,0.9-3.4,1.3-5.1l-120-29c0,0.1-0.1,0.3-0.2,0.4L340.4,200.5z" stroke-miterlimit="10" fill="#FF0000" stroke="#FFFFFF" stroke-width="0.5"/>
      <path d="M338.9,205.7c0.5-1.6,1-3.2,1.5-4.8l-118.9-33.6c0,0.1-0.1,0.3-0.2,0.4L338.9,205.7z" stroke-miterlimit="10" fill="#FF0000" stroke="#FFFFFF" stroke-width="0.5"/>
      <path d="M334.9,216.6c1.4-3.4,2.7-6.8,3.8-10.4l-117.6-38.1c-0.2,0.4-0.4,0.9-0.6,1.3L334.9,216.6z" stroke-miterlimit="10" fill="#FF0000" stroke="#FFFFFF" stroke-width="0.5"/>
      <path d="M329.7,227.9c1.8-3.5,3.5-7.2,5.1-10.9l-114.3-47.1c-0.3,0.6-0.6,1.1-0.9,1.6L329.7,227.9z" stroke-miterlimit="10" fill="#FF0000" stroke="#FFFFFF" stroke-width="0.5"/>
      <path d="M323.9,238c2-3.2,3.8-6.4,5.6-9.8l-110.2-56.4c-0.2,0.3-0.4,0.6-0.6,0.9L323.9,238z" stroke-miterlimit="10" fill="#FF0000" stroke="#FFFFFF" stroke-width="0.5"/>
      <path d="M286.9,278.5c3.4-2.6,6.8-5.3,9.9-8.2l-82.9-92c-0.4,0.4-0.9,0.7-1.3,1L286.9,278.5z" stroke-miterlimit="10" fill="#FF0000" stroke="#FFFFFF" stroke-width="0.5"/>
      <path d="M280.6,282.9c2-1.3,4-2.7,5.9-4.2l-74.3-99.2c-0.2,0.1-0.4,0.3-0.6,0.4L280.6,282.9z" stroke-miterlimit="10" fill="#FF0000" stroke="#FFFFFF" stroke-width="0.5"/>
      <path d="M275.7,286.1c1.5-0.9,3-1.9,4.5-2.9l-69-102.9c-0.1,0.1-0.3,0.2-0.4,0.2L275.7,286.1z" stroke-miterlimit="10" fill="#FF0000" stroke="#FFFFFF" stroke-width="0.5"/>
      <path d="M271.7,288.5c1.2-0.7,2.5-1.4,3.7-2.2l-64.9-105.6c0,0-0.1,0-0.1,0.1L271.7,288.5z" stroke-miterlimit="10" fill="#FF0000" stroke="#FFFFFF" stroke-width="0.5"/>
      <path d="M257.3,295.7c4.8-2.1,9.5-4.4,14-7L209.9,181c-0.7,0.4-1.5,0.8-2.3,1.1L257.3,295.7z" stroke-miterlimit="10" fill="#FF0000" stroke="#FFFFFF" stroke-width="0.5"/>
      <path d="M252.8,297.6c1.3-0.5,2.7-1.1,4-1.6l-49.6-113.5c0,0,0,0,0,0L252.8,297.6z" stroke-miterlimit="10" fill="#FF0000" stroke="#FFFFFF" stroke-width="0.5"/>
      <path d="M249.8,298.7c0.8-0.3,1.7-0.6,2.5-1l-45.6-115.2c0,0,0,0,0,0L249.8,298.7z" stroke-miterlimit="10" fill="#FF0000" stroke="#FFFFFF" stroke-width="0.5"/>
      <path d="M245.3,300.3c1.4-0.5,2.7-0.9,4.1-1.4l-43.1-116.1c-0.1,0-0.2,0.1-0.3,0.1L245.3,300.3z" stroke-miterlimit="10" fill="#FF0000" stroke="#FFFFFF" stroke-width="0.5"/>
      <path d="M241.1,301.6c1.2-0.4,2.5-0.8,3.7-1.2L205.5,183c-0.1,0-0.1,0-0.2,0.1L241.1,301.6z" stroke-miterlimit="10" fill="#FF0000" stroke="#FFFFFF" stroke-width="0.5"/>
      <path d="M221.8,306.1c6.4-1,12.7-2.5,18.9-4.3l-35.8-118.6c-0.9,0.3-1.7,0.5-2.6,0.6L221.8,306.1z" stroke-miterlimit="10" fill="#FFA6A6" stroke="#FFFFFF" stroke-width="0.5"/>
      <path d="M212.1,307.3c3.1-0.3,6.2-0.7,9.3-1.2l-19.6-122.2c-0.4,0.1-0.7,0.1-1.1,0.1L212.1,307.3z" stroke-miterlimit="10" fill="#FFA6A6" stroke="#FFFFFF" stroke-width="0.5"/>
      <path d="M200.9,307.9c3.6-0.1,7.1-0.3,10.7-0.6l-11.4-123.2c-0.4,0-0.9,0.1-1.3,0.1L200.9,307.9z" stroke-miterlimit="10" fill="#FFA6A6" stroke="#FFFFFF" stroke-width="0.5"/>
      <path d="M198.4,184.2c-0.1,0-0.3,0-0.4,0c-0.1,0-0.3,0-0.4,0l-4.8,123.6c1.9,0.1,3.8,0.1,5.7,0.1c0.7,0,1.3,0,1.9,0    L198.4,184.2z" stroke-miterlimit="10" fill="#FFA6A6" stroke="#FFFFFF" stroke-width="0.5"/>
      <path d="M184.3,307.3c2.6,0.3,5.3,0.4,8,0.6l4.8-123.6c-0.3,0-0.6,0-0.9-0.1L184.3,307.3z" stroke-miterlimit="10" fill="#FFA6A6" stroke="#FFFFFF" stroke-width="0.5"/>
      <path d="M176.9,306.4c2.3,0.3,4.6,0.6,6.9,0.8l11.9-123.1c-0.2,0-0.5-0.1-0.7-0.1L176.9,306.4z" stroke-miterlimit="10" fill="#FFA6A6" stroke="#FFFFFF" stroke-width="0.5"/>
      <path d="M170.1,305.2c2.1,0.4,4.2,0.8,6.3,1.1L194.5,184c-0.2,0-0.4-0.1-0.6-0.1L170.1,305.2z" stroke-miterlimit="10" fill="#FFA6A6" stroke="#FFFFFF" stroke-width="0.5"/>
      <path d="M164,303.9c1.9,0.4,3.7,0.9,5.6,1.2l23.8-121.3c-0.2,0-0.3-0.1-0.5-0.1L164,303.9z" stroke-miterlimit="10" fill="#FFA6A6" stroke="#FFFFFF" stroke-width="0.5"/>
      <path d="M152.5,300.6c3.6,1.2,7.3,2.2,11,3.1l28.9-120.2c-0.5-0.1-0.9-0.3-1.4-0.4L152.5,300.6z" stroke-miterlimit="10" fill="#FFA6A6" stroke="#FFFFFF" stroke-width="0.5"/>
      <path d="M142.1,296.8c3.3,1.4,6.6,2.6,10,3.7L190.6,183c-0.4-0.1-0.8-0.3-1.2-0.5L142.1,296.8z" stroke-miterlimit="10" fill="#FFA6A6" stroke="#FFFFFF" stroke-width="0.5"/>
      <path d="M132.5,292.4c3,1.5,6.1,2.9,9.2,4.2l47.2-114.1c-0.4-0.2-0.7-0.3-1.1-0.5L132.5,292.4z" stroke-miterlimit="10" fill="#FFA6A6" stroke="#FFFFFF" stroke-width="0.5"/>
      <path d="M124.4,287.9c2.5,1.5,5.1,2.9,7.7,4.2l55.3-110.4c-0.3-0.1-0.6-0.3-0.9-0.5L124.4,287.9z" stroke-miterlimit="10" fill="#FFA6A6" stroke="#FFFFFF" stroke-width="0.5"/>
      <path d="M116.8,283.2c2.3,1.6,4.7,3,7.1,4.5L186,181c-0.3-0.2-0.5-0.3-0.8-0.5L116.8,283.2z" stroke-miterlimit="10" fill="#FFA6A6" stroke="#FFFFFF" stroke-width="0.5"/>
      <path d="M92.2,262.7c3.6,3.8,7.4,7.3,11.4,10.7l79-94.6c-0.6-0.4-1.1-0.9-1.6-1.4L92.2,262.7z" stroke-miterlimit="10" fill="#FFA6A6" stroke="#FFFFFF" stroke-width="0.5"/>
      <path d="M84.6,254.1c2.3,2.8,4.8,5.6,7.3,8.2l88.8-85.3c-0.3-0.3-0.7-0.7-1-1L84.6,254.1z" stroke-miterlimit="10" fill="#FFA6A6" stroke="#FFFFFF" stroke-width="0.5"/>
      <path d="M64.5,222c1.5,3.3,3.1,6.5,4.9,9.6L177,172.5c-0.3-0.5-0.7-1.1-0.9-1.6L64.5,222z" stroke-miterlimit="10" fill="#FFA6A6" stroke="#FFFFFF" stroke-width="0.5"/>
      <path d="M61.3,214.5c0.9,2.4,1.9,4.7,3,7l111.6-51.1c-0.1-0.3-0.3-0.5-0.4-0.8L61.3,214.5z" stroke-miterlimit="10" fill="#FFA6A6" stroke="#FFFFFF" stroke-width="0.5"/>
      <path d="M58.1,205.7c0.9,2.9,1.9,5.7,3,8.4l114.2-44.8c-0.1-0.2-0.1-0.3-0.2-0.5L58.1,205.7z" stroke-miterlimit="10" fill="#FFA6A6" stroke="#FFFFFF" stroke-width="0.5"/>
      <path d="M55.9,198.1c0.6,2.4,1.3,4.8,2.1,7.1l116.9-36.9c-0.2-0.4-0.3-0.9-0.5-1.3L55.9,198.1z" stroke-miterlimit="10" fill="#FFA6A6" stroke="#FFFFFF" stroke-width="0.5"/>
      <path d="M54.3,191.4c0.4,2.1,0.9,4.1,1.4,6.2l117.4-30.8L54.3,191.4z" stroke-miterlimit="10" fill="#FFA6A6" stroke="#FFFFFF" stroke-width="0.5"/>
      <path d="M52.3,179.8c0.5,3.8,1.1,7.5,1.9,11.1l119.9-24.8c-0.2-0.7-0.4-1.4-0.5-2.2L52.3,179.8z" stroke-miterlimit="10" fill="#FFA6A6" stroke="#FFFFFF" stroke-width="0.5"/>
      <path d="M51.5,172.5c0.2,2.3,0.4,4.6,0.7,6.9l121.3-15.9c0-0.2-0.1-0.5-0.1-0.8L51.5,172.5z" stroke-miterlimit="10" fill="#FF7373" stroke="#FFFFFF" stroke-width="0.5"/>
      <path d="M51,158.1l122.1,1.8c0-0.2,0-0.3,0-0.5l-121.9-6.5C51.1,154.6,51.1,156.3,51,158.1z" stroke-miterlimit="10" fill="#FF7373" stroke="#FFFFFF" stroke-width="0.5"/>
      <path d="M51,158.5c0,0.6,0,1.3,0,1.9c0,3.9,0.2,7.7,0.5,11.5l121.9-9.8c-0.1-0.6-0.1-1.2-0.2-1.9L51,158.5z" stroke-miterlimit="10" fill="#FF7373" stroke="#FFFFFF" stroke-width="0.5"/>
      <path d="M188.4,136.4c0.2-0.1,0.4-0.1,0.5-0.2L142.3,24.1c-1.7,0.7-3.5,1.5-5.2,2.3L188.4,136.4z" stroke-miterlimit="10" fill="#FF7373" stroke="#FFFFFF" stroke-width="0.5"/>
      <path d="M185.9,137.7c0.3-0.2,0.6-0.4,1-0.5L130.1,29.8c-2.5,1.3-5,2.8-7.5,4.2L185.9,137.7z" stroke-miterlimit="10" fill="#FF7373" stroke="#FFFFFF" stroke-width="0.5"/>
      <path d="M187.3,137c0.2-0.1,0.5-0.2,0.7-0.3L136.7,26.5c-2.1,1-4.1,2-6.2,3L187.3,137z" stroke-miterlimit="10" fill="#FF7373" stroke="#FFFFFF" stroke-width="0.5"/>
      <path d="M182.6,139.9c0.4-0.3,0.8-0.6,1.2-0.9l-71.2-98.5c-3,2.1-5.8,4.4-8.6,6.7L182.6,139.9z" stroke-miterlimit="10" fill="#FF7373" stroke="#FFFFFF" stroke-width="0.5"/>
      <path d="M184.2,138.8c0.4-0.3,0.8-0.5,1.3-0.8L122.1,34.3c-3.1,1.9-6.1,3.9-9.1,6L184.2,138.8z" stroke-miterlimit="10" fill="#FF7373" stroke="#FFFFFF" stroke-width="0.5"/>
      <path d="M181,141.4c0.4-0.4,0.8-0.8,1.3-1.1l-78.6-92.7c-3.1,2.6-6,5.3-8.9,8.1L181,141.4z" stroke-miterlimit="10" fill="#FF7373" stroke="#FFFFFF" stroke-width="0.5"/>
      <path d="M183.8,13.7c-4.8,0.5-9.5,1.2-14.1,2.1l24.4,119c0.7-0.1,1.4-0.2,2-0.2L183.8,13.7z" stroke-miterlimit="10" fill="#FF7373" stroke="#FFFFFF" stroke-width="0.5"/>
      <path d="M193.3,134.9c0.1,0,0.2,0,0.3-0.1l-24.4-119c-1.4,0.3-2.8,0.6-4.2,0.9L193.3,134.9z" stroke-miterlimit="10" fill="#FF7373" stroke="#FFFFFF" stroke-width="0.5"/>
      <path d="M189.4,136.1c0.5-0.2,0.9-0.3,1.4-0.5l-38-115.4c-3.4,1.1-6.8,2.3-10,3.7L189.4,136.1z" stroke-miterlimit="10" fill="#FF7373" stroke="#FFFFFF" stroke-width="0.5"/>
      <path d="M191.3,135.4c0.1,0,0.3-0.1,0.4-0.1L157.9,18.6c-1.6,0.4-3.1,0.9-4.7,1.4L191.3,135.4z" stroke-miterlimit="10" fill="#FF7373" stroke="#FFFFFF" stroke-width="0.5"/>
      <path d="M192.2,135.2c0.2-0.1,0.5-0.1,0.7-0.2L164.6,16.9c-2.1,0.5-4.1,1-6.2,1.6L192.2,135.2z" stroke-miterlimit="10" fill="#FF7373" stroke="#FFFFFF" stroke-width="0.5"/>
      <path d="M175.2,149.5c0.1-0.3,0.3-0.7,0.5-1L67.5,92.7c-1.8,3.4-3.4,6.9-4.9,10.4L175.2,149.5z" stroke-miterlimit="10" fill="#FF7373" stroke="#FFFFFF" stroke-width="0.5"/>
      <path d="M173.5,155.2l-120-22c-0.3,1.7-0.6,3.5-0.9,5.2l120.8,17.3C173.4,155.5,173.5,155.3,173.5,155.2z" stroke-miterlimit="10" fill="#FF7373" stroke="#FFFFFF" stroke-width="0.5"/>
      <path d="M179.8,142.5c0.3-0.3,0.5-0.6,0.8-0.8L94.4,56c-2.1,2.1-4.2,4.3-6.2,6.6L179.8,142.5z" stroke-miterlimit="10" fill="#FF7373" stroke="#FFFFFF" stroke-width="0.5"/>
      <path d="M173.6,154.7c0.1-0.4,0.2-0.8,0.3-1.2L55.7,123.3c-0.8,3.1-1.5,6.2-2.1,9.4L173.6,154.7z" stroke-miterlimit="10" fill="#FF7373" stroke="#FFFFFF" stroke-width="0.5"/>
      <path d="M174,153c0.1-0.3,0.2-0.6,0.3-0.9L58.8,113.1c-1.1,3.2-2.1,6.5-2.9,9.8L174,153z" stroke-miterlimit="10" fill="#FF7373" stroke="#FFFFFF" stroke-width="0.5"/>
      <path d="M177.5,145.4c0.3-0.5,0.7-1,1.1-1.4L82.6,69.2c-2.6,3.2-5,6.6-7.3,10.1L177.5,145.4z" stroke-miterlimit="10" fill="#FF7373" stroke="#FFFFFF" stroke-width="0.5"/>
      <path d="M178.9,143.6c0.2-0.2,0.4-0.5,0.6-0.7l-91.6-80c-1.7,1.9-3.3,3.9-4.9,5.9L178.9,143.6z" stroke-miterlimit="10" fill="#FF7373" stroke="#FFFFFF" stroke-width="0.5"/>
      <path d="M175.9,148.1c0.4-0.8,0.9-1.6,1.4-2.3L75.1,79.7c-2.7,4.1-5.1,8.3-7.4,12.6L175.9,148.1z" stroke-miterlimit="10" fill="#FF7373" stroke="#FFFFFF" stroke-width="0.5"/>
      <path d="M174.4,151.6c0.2-0.5,0.4-1.1,0.6-1.6L62.4,103.6c-1.2,3-2.4,6-3.4,9.1L174.4,151.6z" stroke-miterlimit="10" fill="#FF7373" stroke="#FFFFFF" stroke-width="0.5"/>
      <g>
        <path d="M173.2,157.9c0-0.6,0.1-1.2,0.2-1.8L52.6,138.9c-0.4,2.5-0.7,5-0.9,7.6L173.2,157.9z" stroke-miterlimit="10" fill="#FF7373" stroke="#FFFFFF" stroke-width="0.5"/>
        <path d="M51.6,146.9c-0.2,1.8-0.3,3.6-0.4,5.5l121.9,6.5c0-0.2,0-0.3,0-0.5L51.6,146.9z" stroke-miterlimit="10" fill="#FF7373" stroke="#FFFFFF" stroke-width="0.5"/>
      </g>
    </g>
    <g>
      <path d="M201.4,135.4l13-95.2c-5.1-0.7-10.2-1-15.4-1v96C199.8,135.2,200.6,135.3,201.4,135.4z" stroke-miterlimit="10" fill="#FF0000" stroke="#FFFFFF" stroke-width="0.5"/>
      <path d="M204.9,136.2l26.4-92.5c-5.3-1.5-10.8-2.6-16.4-3.4l-13,95.2C202.9,135.7,203.9,135.9,204.9,136.2z" stroke-miterlimit="10" fill="#FF0000" stroke="#FFFFFF" stroke-width="0.5"/>
      <path d="M207.6,137L244,48c-4-1.6-8-3-12.2-4.2l-26.4,92.4C206.2,136.5,206.9,136.7,207.6,137z" stroke-miterlimit="10" fill="#FF0000" stroke="#FFFFFF" stroke-width="0.5"/>
      <path d="M257,54.2c-4-2.2-8.2-4.2-12.5-6l-36.4,89c0.8,0.3,1.5,0.7,2.2,1.1L257,54.2z" stroke-miterlimit="10" fill="#FF0000" stroke="#FFFFFF" stroke-width="0.5"/>
      <path d="M264.2,58.5c-2.2-1.4-4.5-2.8-6.8-4.1l-46.7,84.1c0.4,0.2,0.7,0.4,1.1,0.7L264.2,58.5z" stroke-miterlimit="10" fill="#FF0000" stroke="#FFFFFF" stroke-width="0.5"/>
      <path d="M275.2,66.6c-3.4-2.8-6.9-5.4-10.6-7.8l-52.5,80.7c0.6,0.4,1.3,0.9,1.9,1.4L275.2,66.6z" stroke-miterlimit="10" fill="#FF0000" stroke="#FFFFFF" stroke-width="0.5"/>
      <path d="M215.7,142.4L284.5,75c-2.8-2.8-5.8-5.5-8.9-8.1l-61.2,74.3C214.8,141.6,215.2,142,215.7,142.4z" stroke-miterlimit="10" fill="#FF0000" stroke="#FFFFFF" stroke-width="0.5"/>
      <path d="M293.9,85.6c-2.8-3.6-5.8-7-9-10.3L216,142.8c0.6,0.6,1.1,1.2,1.6,1.8L293.9,85.6z" stroke-miterlimit="10" fill="#FF0000" stroke="#FFFFFF" stroke-width="0.5"/>
      <path d="M298.7,92.2c-1.4-2.1-3-4.2-4.5-6.2l-76.3,58.9c0.2,0.3,0.5,0.6,0.7,0.9L298.7,92.2z" stroke-miterlimit="10" fill="#FF0000" stroke="#FFFFFF" stroke-width="0.5"/>
      <path d="M309.5,111.5c-2.9-6.6-6.4-12.9-10.5-18.9l-80.2,53.7c0.7,1.1,1.4,2.2,2,3.4L309.5,111.5z" stroke-miterlimit="10" fill="#FF0000" stroke="#FFFFFF" stroke-width="0.5"/>
      <path d="M317.1,134.8c-1.7-8-4.2-15.6-7.4-22.9L221,150.1c0.7,1.5,1.2,3.1,1.6,4.7L317.1,134.8z" stroke-miterlimit="10" fill="#FF0000" stroke="#FFFFFF" stroke-width="0.5"/>
      <path d="M319.1,147.3c-0.4-4.1-1.1-8.1-1.9-12.1l-94.5,20.1c0.1,0.5,0.2,1,0.3,1.6L319.1,147.3z" stroke-miterlimit="10" fill="#FF0000" stroke="#FFFFFF" stroke-width="0.5"/>
      <path d="M319.8,158.6c-0.1-3.6-0.3-7.2-0.6-10.7l-96.2,9.6c0.1,0.6,0.1,1.2,0.1,1.8L319.8,158.6z" stroke-miterlimit="10" fill="#FF0000" stroke="#FFFFFF" stroke-width="0.5"/>
      <path d="M223.1,161.3l96.5,7.1c0.2-2.6,0.3-5.3,0.3-8c0-0.5,0-0.9,0-1.4l-96.7,0.6c0,0.1,0,0.2,0,0.3    C223.1,160.5,223.1,160.9,223.1,161.3z" stroke-miterlimit="10" fill="#FF0000" stroke="#FFFFFF" stroke-width="0.5"/>
      <path d="M314,197.5c2.9-9.1,4.8-18.6,5.5-28.5l-96.5-7.1c-0.1,1.9-0.5,3.8-1.1,5.6L314,197.5z" stroke-miterlimit="10" fill="#FF0000" stroke="#FFFFFF" stroke-width="0.5"/>
      <path d="M306.4,216c3-5.8,5.5-11.8,7.5-18.1l-92.1-30c-0.4,1-0.8,2-1.3,3L306.4,216z" stroke-miterlimit="10" fill="#FF0000" stroke="#FFFFFF" stroke-width="0.5"/>
      <path d="M301.7,224.2c1.6-2.5,3.1-5.1,4.5-7.8l-85.8-45.1c-0.2,0.4-0.5,0.8-0.7,1.3L301.7,224.2z" stroke-miterlimit="10" fill="#FF0000" stroke="#FFFFFF" stroke-width="0.5"/>
      <path d="M279.6,250.6c8.4-7.6,15.7-16.3,21.8-26L219.3,173c-1.2,1.9-2.6,3.6-4.1,5L279.6,250.6z" stroke-miterlimit="10" fill="#FF0000" stroke="#FFFFFF" stroke-width="0.5"/>
      <path d="M258.7,265.8c7.4-4.2,14.3-9.2,20.6-14.9l-64.4-72.6c-1.2,1.1-2.5,2-3.9,2.9L258.7,265.8z" stroke-miterlimit="10" fill="#FF0000" stroke="#FFFFFF" stroke-width="0.5"/>
      <path d="M246.7,271.8c4-1.7,7.8-3.6,11.5-5.7l-47.7-84.5c-0.6,0.4-1.3,0.7-2,1L246.7,271.8z" stroke-miterlimit="10" fill="#FF0000" stroke="#FFFFFF" stroke-width="0.5"/>
      <path d="M240.6,274.2c1.9-0.7,3.8-1.5,5.7-2.3l-38.2-89.2c-0.3,0.1-0.5,0.2-0.8,0.3L240.6,274.2z" stroke-miterlimit="10" fill="#FF0000" stroke="#FFFFFF" stroke-width="0.5"/>
      <path d="M233.6,276.6c2.2-0.7,4.4-1.4,6.5-2.2l-33.3-91.1c-0.3,0.1-0.7,0.2-1,0.3L233.6,276.6z" stroke-miterlimit="10" fill="#FF0000" stroke="#FFFFFF" stroke-width="0.5"/>
      <path d="M217.7,280.3c5.3-0.8,10.5-2,15.5-3.5l-27.7-93c-1,0.3-2.1,0.6-3.1,0.8L217.7,280.3z" stroke-miterlimit="10" fill="#FFA6A6" stroke="#FFFFFF" stroke-width="0.5"/>
      <path d="M200.3,281.8c5.7-0.1,11.4-0.6,16.9-1.4l-15.3-95.7c-1,0.2-2,0.2-3,0.3L200.3,281.8z" stroke-miterlimit="10" fill="#FFA6A6" stroke="#FFFFFF" stroke-width="0.5"/>
      <path d="M198.4,184.9c0,0-0.1,0-0.1,0c-1.1,0-2.2-0.1-3.3-0.2l-14.1,95.9c5.8,0.8,11.6,1.3,17.6,1.3    c0.5,0,0.9,0,1.4,0L198.4,184.9z" stroke-miterlimit="10" fill="#FFA6A6" stroke="#FFFFFF" stroke-width="0.5"/>
      <path d="M170.2,278.5c3.3,0.8,6.7,1.5,10.1,2l14.1-95.9c-0.6-0.1-1.1-0.2-1.7-0.3L170.2,278.5z" stroke-miterlimit="10" fill="#FFA6A6" stroke="#FFFFFF" stroke-width="0.5"/>
      <path d="M144.2,269c8,4,16.6,7.2,25.6,9.4l22.6-94.2c-1.4-0.4-2.8-0.9-4.1-1.5L144.2,269z" stroke-miterlimit="10" fill="#FFA6A6" stroke="#FFFFFF" stroke-width="0.5"/>
      <path d="M131.1,261.3c4.1,2.7,8.3,5.2,12.7,7.5l44-86.3c-0.8-0.4-1.5-0.8-2.2-1.2L131.1,261.3z" stroke-miterlimit="10" fill="#FFA6A6" stroke="#FFFFFF" stroke-width="0.5"/>
      <path d="M121,253.8c3.1,2.6,6.3,5,9.7,7.3l54.5-80c-0.6-0.4-1.1-0.7-1.6-1.1L121,253.8z" stroke-miterlimit="10" fill="#FFA6A6" stroke="#FFFFFF" stroke-width="0.5"/>
      <path d="M180.1,176.9l-75.5,60.5c4.8,5.9,10.2,11.3,16,16.1l62.5-73.8C182,178.8,181,177.9,180.1,176.9z" stroke-miterlimit="10" fill="#FFA6A6" stroke="#FFFFFF" stroke-width="0.5"/>
      <path d="M96.9,226.7c2.3,3.5,4.8,6.9,7.5,10.2l75.5-60.4c-0.5-0.5-0.9-1.1-1.4-1.6L96.9,226.7z" stroke-miterlimit="10" fill="#FFA6A6" stroke="#FFFFFF" stroke-width="0.5"/>
      <path d="M92.5,219.5c1.3,2.3,2.7,4.6,4.1,6.8l81.5-51.9c-0.2-0.3-0.5-0.7-0.7-1L92.5,219.5z" stroke-miterlimit="10" fill="#FFA6A6" stroke="#FFFFFF" stroke-width="0.5"/>
      <path d="M83,197.6c2.4,7.5,5.5,14.7,9.3,21.4l84.9-46c-0.8-1.2-1.4-2.5-2-3.9L83,197.6z" stroke-miterlimit="10" fill="#FFA6A6" stroke="#FFFFFF" stroke-width="0.5"/>
      <path d="M79.9,186.2c0.8,3.7,1.8,7.4,2.9,11l92.2-28.4c-0.2-0.6-0.4-1.2-0.6-1.8L79.9,186.2z" stroke-miterlimit="10" fill="#FFA6A6" stroke="#FFFFFF" stroke-width="0.5"/>
      <path d="M78.2,176.2c0.4,3.2,1,6.4,1.6,9.5l94.4-19.2c-0.2-0.7-0.4-1.5-0.5-2.3L78.2,176.2z" stroke-miterlimit="10" fill="#FFA6A6" stroke="#FFFFFF" stroke-width="0.5"/>
      <path d="M77.2,158.9c0,0.5,0,1,0,1.6c0,5.2,0.3,10.2,1,15.2l95.5-12c-0.1-0.8-0.2-1.6-0.2-2.4L77.2,158.9z" stroke-miterlimit="10" fill="#FF7373" stroke="#FFFFFF" stroke-width="0.5"/>
      <path d="M173.4,159.3l-95.7-10.2c-0.3,3.1-0.5,6.2-0.5,9.4l96.2,2.4c0-0.3,0-0.6,0-0.8    C173.4,159.8,173.4,159.5,173.4,159.3z" stroke-miterlimit="10" fill="#FF7373" stroke="#FFFFFF" stroke-width="0.5"/>
      <path d="M78.5,142.4c-0.3,2-0.6,4.1-0.8,6.1l95.6,10.2c0-0.3,0-0.6,0.1-0.9L78.5,142.4z" stroke-miterlimit="10" fill="#FF7373" stroke="#FFFFFF" stroke-width="0.5"/>
      <path d="M79.3,137.8c-0.3,1.4-0.5,2.8-0.7,4.2l94.9,15.4c0-0.3,0.1-0.6,0.1-0.8L79.3,137.8z" stroke-miterlimit="10" fill="#FF7373" stroke="#FFFFFF" stroke-width="0.5"/>
      <path d="M83.7,121.2c-1.8,5.2-3.2,10.6-4.3,16.1l94.3,18.8c0.2-0.9,0.4-1.8,0.6-2.7L83.7,121.2z" stroke-miterlimit="10" fill="#FF7373" stroke="#FFFFFF" stroke-width="0.5"/>
      <path d="M90.8,104.7c-2.7,5.2-5,10.5-6.9,16.1l90.6,32.2c0.3-1.1,0.8-2.2,1.3-3.2L90.8,104.7z" stroke-miterlimit="10" fill="#FF7373" stroke="#FFFFFF" stroke-width="0.5"/>
      <path d="M107.7,80c-6.5,7.3-12.1,15.5-16.7,24.2l84.9,45c0.9-1.7,1.9-3.4,3.1-4.8L107.7,80z" stroke-miterlimit="10" fill="#FF7373" stroke="#FFFFFF" stroke-width="0.5"/>
      <path d="M112.9,74.5c-1.7,1.7-3.3,3.4-4.9,5.2l71.3,64.4c0.2-0.3,0.5-0.6,0.8-0.9L112.9,74.5z" stroke-miterlimit="10" fill="#FF7373" stroke="#FFFFFF" stroke-width="0.5"/>
      <path d="M128,61.7c-5.2,3.8-10.2,7.9-14.8,12.4l67.1,68.6c0.9-0.9,1.8-1.7,2.8-2.5L128,61.7z" stroke-miterlimit="10" fill="#FF7373" stroke="#FFFFFF" stroke-width="0.5"/>
      <path d="M142.2,53c-4.8,2.5-9.4,5.3-13.8,8.4l55.2,78.6c0.8-0.6,1.7-1.2,2.6-1.7L142.2,53z" stroke-miterlimit="10" fill="#FF7373" stroke="#FFFFFF" stroke-width="0.5"/>
      <path d="M152.6,48.2c-3.4,1.4-6.8,2.9-10,4.6l44,85.3c0.6-0.3,1.2-0.6,1.8-0.9L152.6,48.2z" stroke-miterlimit="10" fill="#FF7373" stroke="#FFFFFF" stroke-width="0.5"/>
      <path d="M165.4,43.8c-4.2,1.2-8.3,2.6-12.3,4.2l35.8,89c0.7-0.3,1.5-0.6,2.3-0.8L165.4,43.8z" stroke-miterlimit="10" fill="#FF7373" stroke="#FFFFFF" stroke-width="0.5"/>
      <path d="M174.4,41.6c-2.9,0.6-5.7,1.3-8.5,2l25.8,92.4c0.5-0.1,1-0.3,1.5-0.4L174.4,41.6z" stroke-miterlimit="10" fill="#FF7373" stroke="#FFFFFF" stroke-width="0.5"/>
      <g>
        <path d="M186.4,39.8c-3.9,0.4-7.8,1-11.6,1.7l18.8,94.1c0.7-0.1,1.4-0.3,2.1-0.3L186.4,39.8z" stroke-miterlimit="10" fill="#FF7373" stroke="#FFFFFF" stroke-width="0.5"/>
        <path d="M196.2,135.2c0.7-0.1,1.3-0.1,2-0.1c0.1,0,0.2,0,0.2,0v-96c-3.9,0-7.7,0.2-11.5,0.6L196.2,135.2z" stroke-miterlimit="10" fill="#FF7373" stroke="#FFFFFF" stroke-width="0.5"/>
      </g>
    </g>
    <g>
      <path d="M202.8,143.7l21.4-74.9c-8-2.2-16.4-3.5-25.2-3.5v77.8C200.3,143.1,201.5,143.4,202.8,143.7z" stroke-miterlimit="10" fill="#FF0000" stroke="#FFFFFF" stroke-width="0.5"/>
      <path d="M250,80.4c-7.8-5-16.3-8.9-25.4-11.5l-21.4,74.9c1.5,0.5,2.9,1.2,4.2,2.1L250,80.4z" stroke-miterlimit="10" fill="#FF0000" stroke="#FFFFFF" stroke-width="0.5"/>
      <path d="M212.1,150.7l64.8-44.1c-7.1-10.3-16.1-19.1-26.6-26l-42.6,65.5C209.5,147.4,211,149,212.1,150.7z" stroke-miterlimit="10" fill="#FF0000" stroke="#FFFFFF" stroke-width="0.5"/>
      <path d="M291.4,140.1c-2.6-12-7.5-23.2-14.2-33l-64.8,44.1c1.1,1.7,1.8,3.6,2.2,5.5L291.4,140.1z" stroke-miterlimit="10" fill="#FF0000" stroke="#FFFFFF" stroke-width="0.5"/>
      <path d="M214.9,161.3l78.5,5c0.1-1.9,0.2-3.9,0.2-5.9c0-6.8-0.7-13.5-2.1-19.9l-76.8,16.6c0.2,0.9,0.3,1.9,0.3,2.9    C215,160.4,215,160.9,214.9,161.3z" stroke-miterlimit="10" fill="#FF0000" stroke="#FFFFFF" stroke-width="0.5"/>
      <path d="M289.3,189.1c2.2-7.1,3.7-14.6,4.2-22.3l-78.5-5c-0.1,1.2-0.4,2.4-0.8,3.5L289.3,189.1z" stroke-miterlimit="10" fill="#FF0000" stroke="#FFFFFF" stroke-width="0.5"/>
      <path d="M279.7,210.1c3.9-6.4,7.1-13.3,9.4-20.5L214,165.7c-0.4,1.1-0.9,2.2-1.6,3.2L279.7,210.1z" stroke-miterlimit="10" fill="#FF0000" stroke="#FFFFFF" stroke-width="0.5"/>
      <path d="M212.1,169.3c-2.1,3.2-5.2,5.6-8.9,6.9l22.9,75.4c22.3-6.8,41.2-21.6,53.3-41L212.1,169.3z" stroke-miterlimit="10" fill="#FF0000" stroke="#FFFFFF" stroke-width="0.5"/>
      <path d="M199.8,255.6c9-0.1,17.6-1.5,25.8-3.9l-22.9-75.4c-1.3,0.4-2.7,0.6-4.1,0.7L199.8,255.6z" stroke-miterlimit="10" fill="#FFA6A6" stroke="#FFFFFF" stroke-width="0.5"/>
      <path d="M198.2,177c-0.1,0-0.2,0-0.2,0c-1.2,0-2.3-0.1-3.4-0.3l-18.2,76.4c7.1,1.7,14.5,2.6,22.1,2.6    c0.3,0,0.6,0,0.9,0L198.2,177z" stroke-miterlimit="10" fill="#FFA6A6" stroke="#FFFFFF" stroke-width="0.5"/>
      <path d="M137.7,233.7c10.9,9.1,24,15.8,38.2,19.3l18.2-76.4c-2.4-0.6-4.5-1.6-6.4-3.1L137.7,233.7z" stroke-miterlimit="10" fill="#FFA6A6" stroke="#FFFFFF" stroke-width="0.5"/>
      <path d="M185.4,171.3l-60.3,49.7c3.7,4.5,7.8,8.6,12.2,12.3l50.1-60.2C186.7,172.6,186,172,185.4,171.3z" stroke-miterlimit="10" fill="#FFA6A6" stroke="#FFFFFF" stroke-width="0.5"/>
      <path d="M115.5,207.1c2.7,4.8,5.8,9.4,9.3,13.6l60.3-49.7c-0.5-0.6-1-1.3-1.5-2L115.5,207.1z" stroke-miterlimit="10" fill="#FFA6A6" stroke="#FFFFFF" stroke-width="0.5"/>
      <path d="M108,189.9c1.9,5.9,4.4,11.5,7.3,16.8l68.1-38.2c-0.5-0.8-0.9-1.7-1.3-2.6L108,189.9z" stroke-miterlimit="10" fill="#FFA6A6" stroke="#FFFFFF" stroke-width="0.5"/>
      <path d="M104.1,172.8c0.7,5.7,2,11.3,3.7,16.6l74.1-24c-0.3-0.9-0.6-1.9-0.7-2.8L104.1,172.8z" stroke-miterlimit="10" fill="#FFA6A6" stroke="#FFFFFF" stroke-width="0.5"/>
      <path d="M181.2,157.5l-76.3-14.4c-1,5.6-1.6,11.5-1.6,17.4c0,4,0.3,8,0.8,11.9l77.1-10.2c-0.1-0.7-0.2-1.4-0.2-2.2    C181,159.2,181.1,158.3,181.2,157.5z" stroke-miterlimit="10" fill="#FF7373" stroke="#FFFFFF" stroke-width="0.5"/>
      <path d="M113.8,117c-4.1,7.9-7.1,16.5-8.8,25.5l76.3,14.4c0.3-1.5,0.8-3,1.4-4.3L113.8,117z" stroke-miterlimit="10" fill="#FF7373" stroke="#FFFFFF" stroke-width="0.5"/>
      <path d="M131.3,93.1c-6.9,6.9-12.7,14.8-17.2,23.5l68.9,35.7c0.8-1.5,1.7-2.8,2.9-4L131.3,93.1z" stroke-miterlimit="10" fill="#FF7373" stroke="#FFFFFF" stroke-width="0.5"/>
      <path d="M162.3,72.5c-11.5,4.8-21.9,11.7-30.6,20.3l54.6,55.1c1.5-1.5,3.3-2.7,5.3-3.6L162.3,72.5z" stroke-miterlimit="10" fill="#FF7373" stroke="#FFFFFF" stroke-width="0.5"/>
      <g>
        <path d="M180.3,67c-6.1,1.2-12,2.9-17.6,5.2l29.2,71.9c0.9-0.4,1.9-0.7,2.9-0.9L180.3,67z" stroke-miterlimit="10" fill="#FF7373" stroke="#FFFFFF" stroke-width="0.5"/>
        <path d="M180.8,67l14.4,76.3c0.9-0.2,1.8-0.3,2.8-0.3c0.2,0,0.3,0,0.5,0V65.3C192.4,65.3,186.5,65.9,180.8,67z" stroke-miterlimit="10" fill="#FF7373" stroke="#FFFFFF" stroke-width="0.5"/>
      </g>
    </g>
    <circle cx="198.5" cy="160.5" r="19.4" stroke-miterlimit="10" fill="#FFFFFF" stroke="#FFFFFF"/>
    <g>
      <path d="M235.3,103.4c-10.5-6.8-22.9-10.7-36.3-10.8v59.9c1.4,0.1,2.6,0.5,3.5,1.1L235.3,103.4z" stroke-miterlimit="10" fill="#FF0000" stroke="#FFFFFF" stroke-width="0.5"/>
      <path d="M205.8,158.6l59-12.8c-3.9-17.6-14.5-32.6-29.1-42.2l-32.8,50.1C204.5,155,205.4,156.7,205.8,158.6z" stroke-miterlimit="10" fill="#FF0000" stroke="#FFFFFF" stroke-width="0.5"/>
      <path d="M205,164.4l51.4,31.6c6.3-10.3,10-22.5,10-35.5c0-4.9-0.5-9.6-1.5-14.2l-59,12.8    C206.1,160.9,205.8,162.8,205,164.4z" stroke-miterlimit="10" fill="#FF0000" stroke="#FFFFFF" stroke-width="0.5"/>
      <path d="M200.3,168c-0.6,0.1-1.2,0.2-1.9,0.2c-0.6,0-1.1-0.1-1.6-0.2l-13.8,58.5c5,1.2,10.3,1.8,15.6,1.8    c6.6,0,13-1,19.1-2.7L200.3,168z" stroke-miterlimit="10" fill="#FFA6A6" stroke="#FFFFFF" stroke-width="0.5"/>
      <path d="M204.8,164.8c-0.9,1.4-2.2,2.6-4.1,3.1l17.3,57.6c16-4.8,29.4-15.3,38.1-29.1L204.8,164.8z" stroke-miterlimit="10" fill="#FF0000" stroke="#FFFFFF" stroke-width="0.5"/>
      <path d="M155.2,212.8c7.8,6.4,17,11.2,27.2,13.7l13.8-58.5c-1.1-0.3-2-0.8-2.8-1.4L155.2,212.8z" stroke-miterlimit="10" fill="#FFA6A6" stroke="#FFFFFF" stroke-width="0.5"/>
      <path d="M139.2,193.7c4,7.2,9.3,13.5,15.6,18.8l38.3-46.2c-0.6-0.5-1.1-1.2-1.4-1.9L139.2,193.7z" stroke-miterlimit="10" fill="#FFA6A6" stroke="#FFFFFF" stroke-width="0.5"/>
      <path d="M192.5,155l-42-42.6c-12.3,12.3-20,29.3-20,48.1c0,2.8,0.2,5.5,0.5,8.3l59.6-7.5    C190.5,159,191.1,156.7,192.5,155z" stroke-miterlimit="10" fill="#FF7373" stroke="#FFFFFF" stroke-width="0.5"/>
      <path d="M131.1,169.2c1.1,8.6,3.8,16.8,7.9,24.1l52.4-29.3c-0.3-0.7-0.6-1.5-0.7-2.3L131.1,169.2z" stroke-miterlimit="10" fill="#FFA6A6" stroke="#FFFFFF" stroke-width="0.5"/>
      <g>
        <path d="M172.3,97.8c-8.1,3.4-15.3,8.2-21.5,14.3l41.9,42.6c0.6-0.6,1.3-1.1,2.2-1.5L172.3,97.8z" stroke-miterlimit="10" fill="#FF7373" stroke="#FFFFFF" stroke-width="0.5"/>
        <path d="M172.8,97.6l22.6,55.3c0.9-0.3,1.8-0.5,2.9-0.5c0.1,0,0.1,0,0.2,0V92.6C189.4,92.6,180.7,94.3,172.8,97.6z" stroke-miterlimit="10" fill="#FF7373" stroke="#FFFFFF" stroke-width="0.5"/>
      </g>
    </g>
    <path d="M524.2,181.8c-0.6-0.3-1.3-0.7-1.9-1l-53.1,81.6c3.6,2.3,7.3,4.4,11.1,6.4L524.2,181.8z" stroke-miterlimit="10" fill="#FFA6A6" stroke="#FFFFFF" stroke-width="0.5"/>
    <path d="M522,180.5c-0.5-0.3-0.9-0.6-1.4-1l-60.2,76.4c2.7,2.2,5.6,4.2,8.5,6.1L522,180.5z" stroke-miterlimit="10" fill="#FF0000" stroke="#FFFFFF" stroke-width="0.5"/>
    <path d="M526,182.6c-0.4-0.2-0.9-0.4-1.3-0.6l-43.9,86.9c2.8,1.4,5.6,2.7,8.5,3.9L526,182.6z" stroke-miterlimit="10" fill="#FF7373" stroke="#FFFFFF" stroke-width="0.5"/>
    <path d="M516.7,175.9c-1.2-1.3-2.2-2.8-3.1-4.3l-86.7,43.5c4.3,8.5,9.6,16.5,15.7,23.7L516.7,175.9z" stroke-miterlimit="10" fill="#FF7373" stroke="#FFFFFF" stroke-width="0.5"/>
    <path d="M517,176.3l-74,62.9c5.1,6,10.8,11.5,17,16.4l60.2-76.4C519,178.3,518,177.4,517,176.3z" stroke-miterlimit="10" fill="#FF0000" stroke="#FFFFFF" stroke-width="0.5"/>
    <path d="M513.3,171.2c-0.5-0.8-0.8-1.7-1.2-2.6l-91.6,31.3c1.7,5.1,3.8,10,6.2,14.7L513.3,171.2z" stroke-miterlimit="10" fill="#FFA6A6" stroke="#FFFFFF" stroke-width="0.5"/>
    <path d="M528.8,183.5c-0.8-0.2-1.6-0.5-2.4-0.8L489.7,273c4.5,1.8,9.1,3.4,13.8,4.6L528.8,183.5z" stroke-miterlimit="10" fill="#FFA6A6" stroke="#FFFFFF" stroke-width="0.5"/>
    <path d="M421.5,118.3l90.2,33.2c1-2.9,2.6-5.6,4.5-7.9l-71.1-64.3C434.9,90.6,426.8,103.8,421.5,118.3z" stroke-miterlimit="10" fill="#E6E6E6" stroke="#FFFFFF" stroke-width="0.5"/>
    <path d="M511.4,166.6l-93.9,23c0.8,3.3,1.8,6.6,2.9,9.8l91.6-31.3C511.7,167.7,511.6,167.1,511.4,166.6z" stroke-miterlimit="10" fill="#FFA6A6" stroke="#FFFFFF" stroke-width="0.5"/>
    <path d="M553.5,142.7c1.1,1.2,2.1,2.5,2.9,3.9l80.8-51.9c-4.6-7.1-9.8-13.6-15.7-19.5L553.5,142.7z" stroke-miterlimit="10" fill="#FF0000" stroke="#FFFFFF" stroke-width="0.5"/>
    <path d="M553.1,142.4l68-67.6c-2.1-2.1-4.2-4.1-6.4-6l-62.6,72.6C552.4,141.7,552.8,142,553.1,142.4z" stroke-miterlimit="10" fill="#FF7373" stroke="#FFFFFF" stroke-width="0.5"/>
    <path d="M648.7,117.3l-89.8,34.4c0.4,1.1,0.7,2.2,0.9,3.4l94.3-19.9C652.6,129.1,650.9,123.1,648.7,117.3z" stroke-miterlimit="10" fill="#FF7373" stroke="#FFFFFF" stroke-width="0.5"/>
    <path d="M538.6,184.2c-1.1,0.2-2.2,0.2-3.3,0.2c-2,0-4-0.3-5.9-0.7L504,277.7c10,2.7,20.4,4.1,31.2,4.1   c6,0,12-0.4,17.8-1.3L538.6,184.2z" stroke-miterlimit="10" fill="#FF0000" stroke="#FFFFFF" stroke-width="0.5"/>
    <path d="M556.2,41c-6.7-1.2-13.6-1.8-20.7-1.8v95.5c1.4,0,2.7,0.2,4,0.4L556.2,41z" stroke-miterlimit="10" fill="#FF0000" stroke="#FFFFFF" stroke-width="0.5"/>
    <path d="M549.7,139.4c0.7,0.5,1.4,1.1,2,1.6l62.6-72.5c-3.6-3.1-7.4-6-11.3-8.6L549.7,139.4z" stroke-miterlimit="10" fill="#FFA6A6" stroke="#FFFFFF" stroke-width="0.5"/>
    <path d="M637.5,95.1L556.6,147c0.8,1.3,1.5,2.8,2,4.2l89.8-34.4C645.5,109.2,641.8,101.9,637.5,95.1z" stroke-miterlimit="10" fill="#FF7373" stroke="#FFFFFF" stroke-width="0.5"/>
    <path d="M546.4,137.4c1,0.5,2,1.1,2.9,1.7l53.3-79.5c-4.9-3.3-10.1-6.3-15.6-8.8L546.4,137.4z" stroke-miterlimit="10" fill="#E6E6E6" stroke="#FFFFFF" stroke-width="0.5"/>
    <g>
      <path d="M473.4,56.1l49,82.2c2-1.2,4.1-2.2,6.4-2.8l-23.3-92.7C494,45.8,483.2,50.3,473.4,56.1z" stroke-miterlimit="10" fill="#FFA6A6" stroke="#FFFFFF" stroke-width="0.5"/>
      <path d="M473,56.4c-10.3,6.2-19.5,13.8-27.5,22.6l71.1,64.3c1.6-1.8,3.4-3.4,5.4-4.6L473,56.4z" stroke-miterlimit="10" fill="#FF7373" stroke="#FFFFFF" stroke-width="0.5"/>
    </g>
    <g>
      <path d="M554.8,174.8c-0.7,0.9-1.5,1.8-2.3,2.6l68.8,68.8c4.5-4.6,8.7-9.5,12.5-14.7L554.8,174.8z" stroke-miterlimit="10" fill="#FF7373" stroke="#FFFFFF" stroke-width="0.5"/>
      <path d="M557,171.4c-0.6,1-1.2,2.1-1.9,3L634,231c3.8-5.4,7.2-11,10.2-17L557,171.4z" stroke-miterlimit="10" fill="#E6E6E6" stroke="#FFFFFF" stroke-width="0.5"/>
    </g>
    <g>
      <path d="M487,78.4l35.6,60.2c1.9-1.2,4-2.1,6.2-2.7l-17.1-67.6C502.9,70.5,494.6,74,487,78.4z" stroke-miterlimit="10" fill="#FFA6A6" stroke="#FFFFFF" stroke-width="0.5"/>
      <path d="M602.8,93.4l-49.4,49.3c3.2,3.4,5.5,7.7,6.5,12.4l68.5-14.3C624.5,122.5,615.5,106.2,602.8,93.4z" stroke-miterlimit="10" fill="#FF0000" stroke="#FFFFFF" stroke-width="0.5"/>
      <path d="M546.4,137.5c2.5,1.2,4.7,2.9,6.7,4.9l49.4-49.3c-7.6-7.6-16.5-13.9-26.3-18.6L546.4,137.5z" stroke-miterlimit="10" fill="#FF7373" stroke="#FFFFFF" stroke-width="0.5"/>
      <path d="M560.3,159.8c0,4-1,7.9-2.8,11.3l63.4,30.9c6.1-12.5,9.5-26.6,9.5-41.5c0-6.6-0.7-13-1.9-19.2L560,155.6    C560.2,156.9,560.3,158.3,560.3,159.8z" stroke-miterlimit="10" fill="#FF7373" stroke="#FFFFFF" stroke-width="0.5"/>
      <path d="M512,151.6c1-2.8,2.5-5.5,4.5-7.8L464.4,97c-7.9,8.8-14.1,19-18.3,30.3L512,151.6z" stroke-miterlimit="10" fill="#FF0000" stroke="#FFFFFF" stroke-width="0.5"/>
      <path d="M510.6,159.8c0-2.7,0.4-5.2,1.3-7.7l-66-24.3c-3.7,10.2-5.8,21.2-5.8,32.7c0,7.7,0.9,15.2,2.7,22.4l68.7-16.8    C510.9,164.1,510.6,161.9,510.6,159.8z" stroke-miterlimit="10" fill="#FF7373" stroke="#FFFFFF" stroke-width="0.5"/>
      <path d="M511.6,166.5l-68.7,16.8c5.1,20.8,17.1,38.9,33.4,51.8l43.9-55.9C516.1,176.1,513,171.6,511.6,166.5z" stroke-miterlimit="10" fill="#FF0000" stroke="#FFFFFF" stroke-width="0.5"/>
      <path d="M516.8,143.5c1.6-1.8,3.4-3.4,5.4-4.7l-35.6-60.2c-8.2,4.9-15.6,10.9-21.9,18L516.8,143.5z" stroke-miterlimit="10" fill="#FF0000" stroke="#FFFFFF" stroke-width="0.5"/>
      <path d="M529.2,135.7c1.9-0.5,3.8-0.8,5.8-0.8V65.3c-7.9,0-15.6,1-22.9,2.8L529.2,135.7z" stroke-miterlimit="10" fill="#FFA6A6" stroke="#FFFFFF" stroke-width="0.5"/>
      <path d="M538.6,184.4c-1,0.1-2,0.2-3.1,0.2c-2.2,0-4.3-0.3-6.3-0.8l-18.6,68.6c7.9,2.1,16.1,3.2,24.6,3.2    c4.6,0,9.2-0.3,13.7-1L538.6,184.4z" stroke-miterlimit="10" fill="#FF0000" stroke="#FFFFFF" stroke-width="0.5"/>
      <path d="M575.7,74.3c-12.2-5.8-25.9-9-40.2-9v69.6c3.7,0,7.3,0.9,10.5,2.4L575.7,74.3z" stroke-miterlimit="10" fill="#FF0000" stroke="#FFFFFF" stroke-width="0.5"/>
      <path d="M557.3,171.5c-1.2,2.3-2.8,4.3-4.6,6.1l50,50c7.3-7.3,13.4-15.8,18-25.2L557.3,171.5z" stroke-miterlimit="10" fill="#FFA6A6" stroke="#FFFFFF" stroke-width="0.5"/>
      <path d="M528.7,183.7c-1.4-0.4-2.8-1-4.1-1.6l-32.1,63.4c5.6,2.8,11.5,5.1,17.7,6.8L528.7,183.7z" stroke-miterlimit="10" fill="#FF0000" stroke="#FFFFFF" stroke-width="0.5"/>
      <path d="M524.1,181.9c-1.3-0.7-2.5-1.4-3.6-2.3l-43.9,55.9c4.8,3.7,9.9,7,15.3,9.8L524.1,181.9z" stroke-miterlimit="10" fill="#FF7373" stroke="#FFFFFF" stroke-width="0.5"/>
      <path d="M602.4,227.9l-50-50c-3.6,3.4-8.2,5.7-13.3,6.5l10.4,70.2C570,251.5,588.3,241.9,602.4,227.9z" stroke-miterlimit="10" fill="#FF7373" stroke="#FFFFFF" stroke-width="0.5"/>
    </g>
    <g>
      <path d="M552.6,142.8l30.5-30.5c-12.2-12.1-29-19.7-47.6-19.7v42.6C542.1,135.4,548.2,138.3,552.6,142.8z" stroke-miterlimit="10" fill="#FF0000" stroke="#FFFFFF" stroke-width="0.5"/>
      <path d="M583.5,112.6l-30.5,30.5c4.1,4.5,6.7,10.4,6.7,16.8c0,6.7-2.8,12.8-7.2,17.3l31,31    c12.2-12.3,19.7-29.2,19.7-47.9C603.2,141.8,595.6,124.9,583.5,112.6z" stroke-miterlimit="10" fill="#E6E6E6" stroke="#FFFFFF" stroke-width="0.5"/>
      <path d="M509.9,160c0-2.8,0.5-5.6,1.4-8.1l-39.8-14.7c-2.6,7.3-4.1,15.1-4.1,23.3c0,21.7,10.1,40.9,25.9,53.4l26.6-34    C513.8,175.2,509.9,168,509.9,160z" stroke-miterlimit="10" fill="#FFA6A6" stroke="#FFFFFF" stroke-width="0.5"/>
      <path d="M552.1,177.7c-4.5,4.4-10.7,7.2-17.4,7.2c-5.4,0-10.4-1.8-14.5-4.8l-26.6,34c11.5,8.9,25.9,14.3,41.6,14.3    c18.7,0,35.6-7.5,47.9-19.7L552.1,177.7z" stroke-miterlimit="10" fill="#FF7373" stroke="#FFFFFF" stroke-width="0.5"/>
      <path d="M511.4,151.4c3.6-9.4,12.8-16.3,23.3-16.3c0.1,0,0.2,0,0.3,0V92.6c-29.1,0.1-53.8,18.5-63.4,44.2L511.4,151.4    z" stroke-miterlimit="10" fill="#FF7373" stroke="#FFFFFF" stroke-width="0.5"/>
    </g>
    <circle cx="535.3" cy="160.5" r="41.8" stroke-miterlimit="10" fill="#FFFFFF" stroke="#FFFFFF" stroke-width="0.5"/>
    <path d="M196.1,161.8c-0.4,0-0.8-0.3-1-0.7l-38,4.7c2.6,20.6,20.2,36.5,41.5,36.5c4,0,7.8-0.6,11.4-1.6l-11.3-38.9   C197.7,161.8,196.9,161.9,196.1,161.8z" stroke-miterlimit="10" fill="#FFA6A6" stroke="#FFFFFF" stroke-width="0.75"/>
    <path d="M196.1,159.7c0.7,0.1,1.5,0,2.2-0.1v-40.9c-23,0.1-41.6,18.8-41.6,41.8c0,1.6,0.1,3.2,0.3,4.8l38-4.7   C195,160.1,195.5,159.6,196.1,159.7z" stroke-miterlimit="10" fill="#FF7373" stroke="#FFFFFF" stroke-width="0.75"/>
    <path d="M198.7,118.7v40.9c1.2,0,1.4,1.7,0.4,2.1l11.3,38.9c17.3-5.1,29.9-21.1,29.9-40.1   C240.3,137.5,221.7,118.8,198.7,118.7z" stroke-miterlimit="10" fill="#FF0000" stroke="#FFFFFF" stroke-width="0.75"/>
    <circle cx="198.2" cy="160.5" r="19.4" stroke-miterlimit="10" fill="#FFFFFF" stroke="#FFFFFF"/>
  </g>
</svg>
