<?xml version='1.0' encoding='UTF-8'?>
<svg xmlns="http://www.w3.org/2000/svg" width="900" height="340" viewBox="0,0,750,300" id="svg">
  <g id="Layer_2">
    <rect x="116" y="275.8" width="109.2" height="12.8" fill="#3996c9"/>
    <rect x="108.3" y="261.8" width="117" height="12.8" fill="#3996c9"/>
    <rect x="111" y="247.9" width="114.2" height="12.8" fill="#3996c9"/>
    <rect x="112.8" y="234" width="112.5" height="12.8" fill="#3996c9"/>
    <rect x="129.1" y="220.2" width="96.2" height="12.8" fill="#3996c9"/>
    <rect x="139.4" y="191" width="85.8" height="13.5" fill="#3996c9"/>
    <rect x="147.1" y="177.2" width="78.1" height="12.8" fill="#3996c9"/>
    <rect x="145.2" y="162.9" width="80.1" height="13" fill="#3996c9"/>
    <rect x="150.2" y="149.3" width="75.1" height="12.5" fill="#3996c9"/>
    <rect x="154.2" y="134.7" width="71.1" height="13.2" fill="#3996c9"/>
    <rect x="157.9" y="120.5" width="67.5" height="13" fill="#3996c9"/>
    <rect x="158.9" y="106.7" width="66.5" height="12.8" fill="#3996c9"/>
    <rect x="169.6" y="92.7" width="55.8" height="12.9" fill="#3996c9"/>
    <rect x="181.2" y="78.7" width="44.1" height="12.9" fill="#3996c9"/>
    <rect x="190.6" y="64.3" width="34.8" height="13.2" fill="#3996c9"/>
    <rect x="202.6" y="50" width="22.8" height="13.2" fill="#3996c9"/>
    <rect x="209.6" y="36.3" width="15.8" height="12.4" fill="#3996c9"/>
    <rect x="217.6" y="22.1" width="7.8" height="13" fill="#3996c9"/>
    <rect x="135.2" y="205.5" width="90" height="13.2" fill="#3996c9"/>
    <rect x="225.2" y="275.8" width="123.9" height="12.8" fill="#ed2d80"/>
    <rect x="225.2" y="261.8" width="114.7" height="12.8" fill="#ed2d80"/>
    <rect x="225.2" y="247.9" width="110.4" height="12.8" fill="#ed2d80"/>
    <rect x="225.2" y="234" width="104" height="12.8" fill="#ed2d80"/>
    <rect x="225.2" y="220.2" width="94.7" height="12.8" fill="#ed2d80"/>
    <rect x="225.2" y="191" width="83.8" height="13.5" fill="#ed2d80"/>
    <rect x="225.2" y="177.2" width="80.1" height="12.8" fill="#ed2d80"/>
    <rect x="225.2" y="162.9" width="82.6" height="13" fill="#ed2d80"/>
    <rect x="225.2" y="149.3" width="73.1" height="12.5" fill="#ed2d80"/>
    <rect x="225.2" y="134.7" width="68.1" height="13.2" fill="#ed2d80"/>
    <rect x="225.2" y="120.5" width="65" height="13" fill="#ed2d80"/>
    <rect x="225.2" y="106.7" width="61" height="12.8" fill="#ed2d80"/>
    <rect x="225.2" y="92.7" width="55.8" height="12.9" fill="#ed2d80"/>
    <rect x="225.2" y="78.7" width="50.3" height="12.9" fill="#ed2d80"/>
    <rect x="225.2" y="64.3" width="39.3" height="13.2" fill="#ed2d80"/>
    <rect x="225.2" y="50" width="29.1" height="13.2" fill="#ed2d80"/>
    <rect x="225.2" y="36.3" width="18.3" height="12.4" fill="#ed2d80"/>
    <rect x="225.3" y="22.1" width="11.1" height="13" fill="#ed2d80"/>
    <rect x="225.2" y="205.5" width="87" height="13.2" fill="#ed2d80"/>
    <rect x="461.8" y="275.8" width="85" height="12.8" fill="#3996c9"/>
    <rect x="458.8" y="261.8" width="88.1" height="12.8" fill="#3996c9"/>
    <rect x="459.2" y="247.9" width="87.7" height="12.8" fill="#3996c9"/>
    <rect x="460.5" y="234" width="86.3" height="12.8" fill="#3996c9"/>
    <rect x="463.9" y="220.2" width="83" height="12.8" fill="#3996c9"/>
    <rect x="444.6" y="191" width="102.2" height="13.5" fill="#3996c9"/>
    <rect x="449" y="177.2" width="97.8" height="12.8" fill="#3996c9"/>
    <rect x="446.7" y="162.9" width="100.3" height="13" fill="#3996c9"/>
    <rect x="449.9" y="149.3" width="97.1" height="12.5" fill="#3996c9"/>
    <rect x="459.3" y="134.7" width="87.7" height="13.2" fill="#3996c9"/>
    <rect x="467.4" y="120.5" width="79.6" height="13" fill="#3996c9"/>
    <rect x="468.6" y="106.7" width="78.4" height="12.8" fill="#3996c9"/>
    <rect x="480.6" y="92.7" width="66.4" height="12.9" fill="#3996c9"/>
    <rect x="497.3" y="78.7" width="49.7" height="12.9" fill="#3996c9"/>
    <rect x="511" y="64.3" width="36" height="13.2" fill="#3996c9"/>
    <rect x="523.4" y="50" width="23.6" height="13.2" fill="#3996c9"/>
    <rect x="533.7" y="36.3" width="13.3" height="12.4" fill="#3996c9"/>
    <rect x="541.3" y="22.1" width="5.7" height="13" fill="#3996c9"/>
    <rect x="451.7" y="205.5" width="95.2" height="13.2" fill="#3996c9"/>
    <rect x="546.9" y="275.8" width="88.1" height="12.8" fill="#ed2d80"/>
    <rect x="546.9" y="261.8" width="96.2" height="12.8" fill="#ed2d80"/>
    <rect x="546.9" y="247.9" width="90.7" height="12.8" fill="#ed2d80"/>
    <rect x="546.9" y="234" width="90.9" height="12.8" fill="#ed2d80"/>
    <rect x="546.9" y="220.2" width="87.3" height="12.8" fill="#ed2d80"/>
    <rect x="546.9" y="191" width="92.8" height="13.5" fill="#ed2d80"/>
    <rect x="546.9" y="177.2" width="99.2" height="12.8" fill="#ed2d80"/>
    <rect x="546.9" y="162.9" width="104.7" height="13" fill="#ed2d80"/>
    <rect x="546.9" y="149.3" width="95.4" height="12.5" fill="#ed2d80"/>
    <rect x="546.9" y="134.7" width="84" height="13.2" fill="#ed2d80"/>
    <rect x="546.9" y="120.5" width="76.8" height="13" fill="#ed2d80"/>
    <rect x="546.9" y="106.7" width="72.1" height="12.8" fill="#ed2d80"/>
    <rect x="546.9" y="92.7" width="65.4" height="12.9" fill="#ed2d80"/>
    <rect x="546.9" y="78.7" width="56.3" height="12.9" fill="#ed2d80"/>
    <rect x="546.9" y="64.3" width="46.8" height="13.2" fill="#ed2d80"/>
    <rect x="546.9" y="50" width="34.7" height="13.2" fill="#ed2d80"/>
    <rect x="546.9" y="36.3" width="21.8" height="12.4" fill="#ed2d80"/>
    <rect x="546.9" y="22.1" width="13.2" height="13" fill="#ed2d80"/>
    <rect x="546.9" y="205.5" width="88.9" height="13.2" fill="#ed2d80"/>
  </g>
</svg>
