<?xml version='1.0' encoding='UTF-8'?>
<svg xmlns="http://www.w3.org/2000/svg" width="900" height="340" viewBox="0,0,750,300" id="svg">
  <g data-z-index="0.1" transform="translate(32,51) rotate(90 260 498) scale(-1 1)" clip-path="url(#highcharts-5sh6i7x-14-)" aria-hidden="false" role="region" tabindex="-1" aria-label="Year 1990, bar series 1 of 3 with 4 bars." outline="none" opacity="1">
    <path d="M 223 662.5 L 223 662.5 A 6.5 6.5 0 0 1 229.5 669 L 229.5 757.5 A 0 0 0 0 1 229.5 757.5 L 216.5 757.5 A 0 0 0 0 1 216.5 757.5 L 216.5 669 A 6.5 6.5 0 0 1 223 662.5 Z" filter="none" tabindex="-1" role="img" aria-label="x, 0, 632. Year 1990." outline="none" fill="#2caffe" stroke="#ffffff" stroke-width="1" opacity="1"/>
    <path d="M 164 647.5 L 164 647.5 A 6.5 6.5 0 0 1 170.5 654 L 170.5 757.5 A 0 0 0 0 1 170.5 757.5 L 157.5 757.5 A 0 0 0 0 1 157.5 757.5 L 157.5 654 A 6.5 6.5 0 0 1 164 647.5 Z" filter="none" tabindex="-1" role="img" aria-label="x, 1, 727. Year 1990." outline="none" fill="#2caffe" stroke="#ffffff" stroke-width="1" opacity="1"/>
    <path d="M 106 272.5 L 106 272.5 A 6.5 6.5 0 0 1 112.5 279 L 112.5 757.5 A 0 0 0 0 1 112.5 757.5 L 99.5 757.5 A 0 0 0 0 1 99.5 757.5 L 99.5 279 A 6.5 6.5 0 0 1 106 272.5 Z" filter="none" tabindex="-1" role="img" aria-label="x, 2, 3,202. Year 1990." outline="none" fill="#2caffe" stroke="#ffffff" stroke-width="1" opacity="1"/>
    <path d="M 47 648.5 L 47 648.5 A 6.5 6.5 0 0 1 53.5 655 L 53.5 757.5 A 0 0 0 0 1 53.5 757.5 L 40.5 757.5 A 0 0 0 0 1 40.5 757.5 L 40.5 655 A 6.5 6.5 0 0 1 47 648.5 Z" filter="none" tabindex="-1" role="img" aria-label="x, 3, 721. Year 1990." outline="none" fill="#2caffe" stroke="#ffffff" stroke-width="1" opacity="1"/>
  </g>
  <g data-z-index="0.1" transform="translate(32,51) rotate(90 260 498) scale(-1 1)" clip-path="url(#highcharts-5sh6i7x-14-)" aria-hidden="false" role="region" tabindex="-1" aria-label="Year 2000, bar series 2 of 3 with 4 bars." outline="none" opacity="1">
    <path d="M 207 634.5 L 207 634.5 A 6.5 6.5 0 0 1 213.5 641 L 213.5 757.5 A 0 0 0 0 1 213.5 757.5 L 200.5 757.5 A 0 0 0 0 1 200.5 757.5 L 200.5 641 A 6.5 6.5 0 0 1 207 634.5 Z" filter="none" tabindex="-1" role="img" aria-label="x, 0, 814. Year 2000." outline="none" fill="#544fc5" stroke="#ffffff" stroke-width="1" opacity="1"/>
    <path d="M 149 630.5 L 149 630.5 A 6.5 6.5 0 0 1 155.5 637 L 155.5 757.5 A 0 0 0 0 1 155.5 757.5 L 142.5 757.5 A 0 0 0 0 1 142.5 757.5 L 142.5 637 A 6.5 6.5 0 0 1 149 630.5 Z" filter="none" tabindex="-1" role="img" aria-label="x, 1, 841. Year 2000." outline="none" fill="#544fc5" stroke="#ffffff" stroke-width="1" opacity="1"/>
    <path d="M 90 194.5 L 90 194.5 A 6.5 6.5 0 0 1 96.5 201 L 96.5 757.5 A 0 0 0 0 1 96.5 757.5 L 83.5 757.5 A 0 0 0 0 1 83.5 757.5 L 83.5 201 A 6.5 6.5 0 0 1 90 194.5 Z" filter="none" tabindex="-1" role="img" aria-label="x, 2, 3,714. Year 2000." outline="none" fill="#544fc5" stroke="#ffffff" stroke-width="1" opacity="1"/>
    <path d="M 31 647.5 L 31 647.5 A 6.5 6.5 0 0 1 37.5 654 L 37.5 757.5 A 0 0 0 0 1 37.5 757.5 L 24.5 757.5 A 0 0 0 0 1 24.5 757.5 L 24.5 654 A 6.5 6.5 0 0 1 31 647.5 Z" filter="none" tabindex="-1" role="img" aria-label="x, 3, 726. Year 2000." outline="none" fill="#544fc5" stroke="#ffffff" stroke-width="1" opacity="1"/>
  </g>
  <g data-z-index="0.1" transform="translate(32,51) rotate(90 260 498) scale(-1 1)" clip-path="url(#highcharts-5sh6i7x-14-)" aria-hidden="false" role="region" tabindex="-1" aria-label="Year 2021, bar series 3 of 3 with 4 bars." outline="none" opacity="1">
    <path d="M 192 546.5 L 192 546.5 A 6.5 6.5 0 0 1 198.5 553 L 198.5 757.5 A 0 0 0 0 1 198.5 757.5 L 185.5 757.5 A 0 0 0 0 1 185.5 757.5 L 185.5 553 A 6.5 6.5 0 0 1 192 546.5 Z" filter="none" tabindex="-1" role="img" aria-label="x, 0, 1,393. Year 2021." outline="none" fill="#00e272" stroke="#ffffff" stroke-width="1" opacity="1"/>
    <path d="M 133 601.5 L 133 601.5 A 6.5 6.5 0 0 1 139.5 608 L 139.5 757.5 A 0 0 0 0 1 139.5 757.5 L 126.5 757.5 A 0 0 0 0 1 126.5 757.5 L 126.5 608 A 6.5 6.5 0 0 1 133 601.5 Z" filter="none" tabindex="-1" role="img" aria-label="x, 1, 1,031. Year 2021." outline="none" fill="#00e272" stroke="#ffffff" stroke-width="1" opacity="1"/>
    <path d="M 74 46.5 L 74 46.5 A 6.5 6.5 0 0 1 80.5 53 L 80.5 757.5 A 0 0 0 0 1 80.5 757.5 L 67.5 757.5 A 0 0 0 0 1 67.5 757.5 L 67.5 53 A 6.5 6.5 0 0 1 74 46.5 Z" filter="none" tabindex="-1" role="img" aria-label="x, 2, 4,695. Year 2021." outline="none" fill="#00e272" stroke="#ffffff" stroke-width="1" opacity="1"/>
    <path d="M 16 645.5 L 16 645.5 A 6.5 6.5 0 0 1 22.5 652 L 22.5 757.5 A 0 0 0 0 1 22.5 757.5 L 9.5 757.5 A 0 0 0 0 1 9.5 757.5 L 9.5 652 A 6.5 6.5 0 0 1 16 645.5 Z" filter="none" tabindex="-1" role="img" aria-label="x, 3, 745. Year 2021." outline="none" fill="#00e272" stroke="#ffffff" stroke-width="1" opacity="1"/>
  </g>
</svg>
