<?xml version='1.0' encoding='UTF-8'?>
<svg xmlns="http://www.w3.org/2000/svg" width="900" height="auto" viewBox="-410,-100,600,200" max-width="100%" font="10px sans-serif">
  <line x1="-380" y1="-40" x2="-380" y2="70" stroke="#000" stroke-width="1.5"/>
  <rect x="-400" y="10" width="40" height="30" fill="#1f77b4" stroke="#000" stroke-width="1.5" opacity="0.7"/>
  <line x1="-400" y1="20" x2="-360" y2="20" stroke="#000" stroke-width="2"/>
  <line x1="-400" y1="-40" x2="-360" y2="-40" stroke="#000" stroke-width="1.5"/>
  <line x1="-400" y1="70" x2="-360" y2="70" stroke="#000" stroke-width="1.5"/>
  <circle cx="-380" cy="80" r="3" fill="#1f77b4"/>
  <line x1="-330" y1="-30" x2="-330" y2="80" stroke="#000" stroke-width="1.5"/>
  <rect x="-350" y="5" width="40" height="50" fill="#ff7f0e" stroke="#000" stroke-width="1.5" opacity="0.7"/>
  <line x1="-350" y1="25" x2="-310" y2="25" stroke="#000" stroke-width="2"/>
  <line x1="-350" y1="-30" x2="-310" y2="-30" stroke="#000" stroke-width="1.5"/>
  <line x1="-350" y1="80" x2="-310" y2="80" stroke="#000" stroke-width="1.5"/>
  <circle cx="-330" cy="90" r="3" fill="#ff7f0e"/>
  <line x1="-260" y1="-50" x2="-260" y2="60" stroke="#000" stroke-width="1.5"/>
  <rect x="-280" y="-5" width="40" height="60" fill="#2ca02c" stroke="#000" stroke-width="1.5" opacity="0.7"/>
  <line x1="-280" y1="15" x2="-240" y2="15" stroke="#000" stroke-width="2"/>
  <line x1="-280" y1="-50" x2="-240" y2="-50" stroke="#000" stroke-width="1.5"/>
  <line x1="-280" y1="60" x2="-240" y2="60" stroke="#000" stroke-width="1.5"/>
  <circle cx="-260" cy="70" r="3" fill="#2ca02c"/>
  <circle cx="-260" cy="80" r="3" fill="#2ca02c"/>
  <line x1="-210" y1="-60" x2="-210" y2="50" stroke="#000" stroke-width="1.5"/>
  <rect x="-230" y="0" width="40" height="40" fill="#d62728" stroke="#000" stroke-width="1.5" opacity="0.7"/>
  <line x1="-230" y1="20" x2="-190" y2="20" stroke="#000" stroke-width="2"/>
  <line x1="-230" y1="-60" x2="-190" y2="-60" stroke="#000" stroke-width="1.5"/>
  <line x1="-230" y1="50" x2="-190" y2="50" stroke="#000" stroke-width="1.5"/>
  <circle cx="-210" cy="-80" r="3" fill="#d62728"/>
  <line x1="-140" y1="-20" x2="-140" y2="80" stroke="#000" stroke-width="1.5"/>
  <rect x="-160" y="20" width="40" height="50" fill="#9467bd" stroke="#000" stroke-width="1.5" opacity="0.7"/>
  <line x1="-160" y1="40" x2="-120" y2="40" stroke="#000" stroke-width="2"/>
  <line x1="-160" y1="-20" x2="-120" y2="-20" stroke="#000" stroke-width="1.5"/>
  <line x1="-160" y1="80" x2="-120" y2="80" stroke="#000" stroke-width="1.5"/>
  <circle cx="-140" cy="90" r="3" fill="#9467bd"/>
  <line x1="-90" y1="-40" x2="-90" y2="70" stroke="#000" stroke-width="1.5"/>
  <rect x="-110" y="10" width="40" height="50" fill="#8c564b" stroke="#000" stroke-width="1.5" opacity="0.7"/>
  <line x1="-110" y1="30" x2="-70" y2="30" stroke="#000" stroke-width="2"/>
  <line x1="-110" y1="-40" x2="-70" y2="-40" stroke="#000" stroke-width="1.5"/>
  <line x1="-110" y1="70" x2="-70" y2="70" stroke="#000" stroke-width="1.5"/>
  <circle cx="-90" cy="80" r="3" fill="#8c564b"/>
  <line x1="-20" y1="-30" x2="-20" y2="60" stroke="#000" stroke-width="1.5"/>
  <rect x="-40" y="0" width="40" height="50" fill="#e377c2" stroke="#000" stroke-width="1.5" opacity="0.7"/>
  <line x1="-40" y1="35" x2="0" y2="35" stroke="#000" stroke-width="2"/>
  <line x1="-40" y1="-30" x2="0" y2="-30" stroke="#000" stroke-width="1.5"/>
  <line x1="-40" y1="60" x2="0" y2="60" stroke="#000" stroke-width="1.5"/>
  <circle cx="-20" cy="70" r="3" fill="#e377c2"/>
  <line x1="30" y1="-50" x2="30" y2="50" stroke="#000" stroke-width="1.5"/>
  <rect x="10" y="5" width="40" height="40" fill="#7f7f7f" stroke="#000" stroke-width="1.5" opacity="0.7"/>
  <line x1="10" y1="25" x2="50" y2="25" stroke="#000" stroke-width="2"/>
  <line x1="10" y1="-50" x2="50" y2="-50" stroke="#000" stroke-width="1.5"/>
  <line x1="10" y1="50" x2="50" y2="50" stroke="#000" stroke-width="1.5"/>
  <circle cx="30" cy="60" r="3" fill="#7f7f7f"/>
  <line x1="100" y1="-30" x2="100" y2="70" stroke="#000" stroke-width="1.5"/>
  <rect x="80" y="0" width="40" height="70" fill="#bcbd22" stroke="#000" stroke-width="1.5" opacity="0.7"/>
  <line x1="80" y1="50" x2="120" y2="50" stroke="#000" stroke-width="2"/>
  <line x1="80" y1="-30" x2="120" y2="-30" stroke="#000" stroke-width="1.5"/>
  <line x1="80" y1="70" x2="120" y2="70" stroke="#000" stroke-width="1.5"/>
  <circle cx="100" cy="80" r="3" fill="#bcbd22"/>
  <line x1="150" y1="-40" x2="150" y2="60" stroke="#000" stroke-width="1.5"/>
  <rect x="130" y="0" width="40" height="40" fill="#17becf" stroke="#000" stroke-width="1.5" opacity="0.7"/>
  <line x1="130" y1="15" x2="170" y2="15" stroke="#000" stroke-width="2"/>
  <line x1="130" y1="-40" x2="170" y2="-40" stroke="#000" stroke-width="1.5"/>
  <line x1="130" y1="60" x2="170" y2="60" stroke="#000" stroke-width="1.5"/>
  <circle cx="150" cy="70" r="3" fill="#17becf"/>
</svg>
