<?xml version="1.0" encoding="utf-8"?><svg xmlns="http://www.w3.org/2000/svg" height="340" id="svg" tag_name="svg" viewBox="0,0,1000,450" width="900">
<g class="highcharts-series-group" data-z-index="3" filter="none" id="g" tag_name="svg/g">
<g clip-path="url(#highcharts-yrw9eup-17-)" data-z-index="0.1" id="g_3" opacity="1" tag_name="svg/g/g_3" transform="translate(500,70) rotate(90 87.5 402.5) scale(-1 1)">
<path class="reveliogood" d="M 284.2721021611025 453.33038258927496 L 309.2151277013776 453.33038258927496 A 3 3 0 0 1 312.2151277013776 456.33038258927496 L 312.2151277013776 490 A 0 0 0 0 1 312.2151277013776 490 L 281.2721021611025 490 A 0 0 0 0 1 281.2721021611025 490 L 281.2721021611025 456.33038258927496 A 3 3 0 0 1 284.2721021611025 453.33038258927496 Z" fill="#ce4548" filter="none" id="path_19" opacity="1" stroke="#ffffff" stroke-width="0.1" tag_name="svg/g/g_3/path_19"/>
<path class="reveliogood" d="M 253.32907662082246 409.2589787136178 L 278.2721021610975 409.2589787136178 A 3 3 0 0 1 281.2721021610975 412.2589787136178 L 281.2721021610975 490 A 0 0 0 0 1 281.2721021610975 490 L 250.32907662082246 490 A 0 0 0 0 1 250.32907662082246 490 L 250.32907662082246 412.2589787136178 A 3 3 0 0 1 253.32907662082246 409.2589787136178 Z" fill="#ce4548" filter="none" id="path_18" opacity="1" stroke="#ffffff" stroke-width="0.1" tag_name="svg/g/g_3/path_18"/>
<path class="reveliogood" d="M 222.38605108055248 386.7819076075679 L 247.32907662082752 386.7819076075679 A 3 3 0 0 1 250.32907662082752 389.7819076075679 L 250.32907662082752 490 A 0 0 0 0 1 250.32907662082752 490 L 219.38605108055248 490 A 0 0 0 0 1 219.38605108055248 490 L 219.38605108055248 389.7819076075679 A 3 3 0 0 1 222.38605108055248 386.7819076075679 Z" fill="#ce4548" filter="none" id="path_17" opacity="1" stroke="#ffffff" stroke-width="0.1" tag_name="svg/g/g_3/path_17"/>
<path class="reveliogood" d="M 191.44302554027246 350.1446759093166 L 216.3860510805475 350.1446759093166 A 3 3 0 0 1 219.3860510805475 353.1446759093166 L 219.3860510805475 490 A 0 0 0 0 1 219.3860510805475 490 L 188.44302554027246 490 A 0 0 0 0 1 188.44302554027246 490 L 188.44302554027246 353.1446759093166 A 3 3 0 0 1 191.44302554027246 350.1446759093166 Z" fill="#ce4548" filter="none" id="path_16" opacity="1" stroke="#ffffff" stroke-width="0.1" tag_name="svg/g/g_3/path_16"/>
<path class="reveliogood" d="M 160.50000000000247 288.6261440935508 L 185.44302554027752 288.6261440935508 A 3 3 0 0 1 188.44302554027752 291.6261440935508 L 188.44302554027752 490 A 0 0 0 0 1 188.44302554027752 490 L 157.50000000000247 490 A 0 0 0 0 1 157.50000000000247 490 L 157.50000000000247 291.6261440935508 A 3 3 0 0 1 160.50000000000247 288.6261440935508 Z" fill="#ce4548" filter="none" id="path_15" opacity="1" stroke="#ffffff" stroke-width="0.1" tag_name="svg/g/g_3/path_15"/>
<path class="reveliogood" d="M 129.55697445972248 297.7778823435512 L 154.49999999999753 297.7778823435512 A 3 3 0 0 1 157.49999999999753 300.7778823435512 L 157.49999999999753 490 A 0 0 0 0 1 157.49999999999753 490 L 126.55697445972247 490 A 0 0 0 0 1 126.55697445972247 490 L 126.55697445972247 300.7778823435512 A 3 3 0 0 1 129.55697445972248 297.7778823435512 Z" fill="#ce4548" filter="none" id="path_14" opacity="1" stroke="#ffffff" stroke-width="0.1" tag_name="svg/g/g_3/path_14"/>
<path class="reveliogood" d="M 98.61375839719825 270.9451021282532 L 123.55716498198176 270.9451021282532 A 3 3 0 0 1 126.55697445972753 273.9451021222034 L 126.55697445972753 490.0000000060498 A 0 0 0 0 1 126.55697445972753 490.0000000060498 L 95.61394891945248 490.0000000060498 A 0 0 0 0 1 95.61394891945248 490.0000000060498 L 95.61394891945248 273.9451021222034 A 3 3 0 0 1 98.61375839719825 270.9451021282532 Z" fill="#ce4548" filter="none" id="path_13" opacity="1" stroke="#ffffff" stroke-width="0.1" tag_name="svg/g/g_3/path_13"/>
<path class="reveliogood" d="M 67.67092337917448 183.05809597654314 L 92.61394891944953 183.05809597654314 A 3 3 0 0 1 95.61394891944953 186.05809597654314 L 95.61394891944953 490 A 0 0 0 0 1 95.61394891944953 490 L 64.67092337917448 490 A 0 0 0 0 1 64.67092337917448 490 L 64.67092337917448 186.05809597654314 A 3 3 0 0 1 67.67092337917448 183.05809597654314 Z" fill="#ce4548" filter="none" id="path_12" opacity="1" stroke="#ffffff" stroke-width="0.1" tag_name="svg/g/g_3/path_12"/>
<path class="reveliogood" d="M 36.72789783889948 186.61331635239088 L 61.670923379174525 186.61331635239088 A 3 3 0 0 1 64.67092337917452 189.61331635239088 L 64.67092337917452 490 A 0 0 0 0 1 64.67092337917452 490 L 33.72789783889948 490 A 0 0 0 0 1 33.72789783889948 490 L 33.72789783889948 189.61331635239088 A 3 3 0 0 1 36.72789783889948 186.61331635239088 Z" fill="#ce4548" filter="none" id="path_11" opacity="1" stroke="#ffffff" stroke-width="0.1" tag_name="svg/g/g_3/path_11"/>
<path class="reveliogood" d="M 5.784872298624476 111.81408751119736 L 30.727897838899523 111.81408751119736 A 3 3 0 0 1 33.72789783889952 114.81408751119736 L 33.72789783889952 490 A 0 0 0 0 1 33.72789783889952 490 L 2.7848722986244763 490 A 0 0 0 0 1 2.7848722986244763 490 L 2.7848722986244763 114.81408751119736 A 3 3 0 0 1 5.784872298624476 111.81408751119736 Z" fill="#ce4548" filter="none" id="path_10" opacity="1" stroke="#ffffff" stroke-width="0.1" tag_name="svg/g/g_3/path_10"/>
</g>
<g clip-path="url(#highcharts-yrw9eup-28-)" data-z-index="0.1" id="g_2" opacity="1" tag_name="svg/g/g_2" transform="translate(10,70) rotate(90 87.5 402.5) scale(-1 1)">
<path class="reveliogood_2" d="M 281.2721021611025 0 L 312.2151277013776 0 A 0 0 0 0 1 312.2151277013776 0 L 312.2151277013776 33.04848448209962 A 3 3 0 0 1 309.2151277013776 36.04848448209962 L 284.2721021611025 36.04848448209962 A 3 3 0 0 1 281.2721021611025 33.04848448209962 L 281.2721021611025 0 A 0 0 0 0 1 281.2721021611025 0 Z" fill="#107db7" filter="none" id="path_9" opacity="1" stroke="#ffffff" stroke-width="0.1" tag_name="svg/g/g_2/path_9"/>
<path class="reveliogood_2" d="M 250.32907662082246 0 L 281.2721021610975 0 A 0 0 0 0 1 281.2721021610975 0 L 281.2721021610975 55.736114438677596 A 3 3 0 0 1 278.2721021610975 58.736114438677596 L 253.32907662082246 58.736114438677596 A 3 3 0 0 1 250.32907662082246 55.736114438677596 L 250.32907662082246 0 A 0 0 0 0 1 250.32907662082246 0 Z" fill="#107db7" filter="none" id="path_8" opacity="1" stroke="#ffffff" stroke-width="0.1" tag_name="svg/g/g_2/path_8"/>
<path class="reveliogood_2" d="M 219.38605108055248 0 L 250.32907662082752 0 A 0 0 0 0 1 250.32907662082752 0 L 250.32907662082752 120.31236100468726 A 3 3 0 0 1 247.32907662082752 123.31236100468726 L 222.38605108055248 123.31236100468726 A 3 3 0 0 1 219.38605108055248 120.31236100468726 L 219.38605108055248 0 A 0 0 0 0 1 219.38605108055248 0 Z" fill="#107db7" filter="none" id="path_7" opacity="1" stroke="#ffffff" stroke-width="0.1" tag_name="svg/g/g_2/path_7"/>
<path class="reveliogood_2" d="M 188.44302554027246 0 L 219.3860510805475 0 A 0 0 0 0 1 219.3860510805475 0 L 219.3860510805475 129.43086639228767 A 3 3 0 0 1 216.3860510805475 132.43086639228767 L 191.44302554027246 132.43086639228767 A 3 3 0 0 1 188.44302554027246 129.43086639228767 L 188.44302554027246 0 A 0 0 0 0 1 188.44302554027246 0 Z" fill="#107db7" filter="none" id="path_6" opacity="1" stroke="#ffffff" stroke-width="0.1" tag_name="svg/g/g_2/path_6"/>
<path class="reveliogood_2" d="M 157.50000000000247 0 L 188.44302554027752 0 A 0 0 0 0 1 188.44302554027752 0 L 188.44302554027752 166.28764949907332 A 3 3 0 0 1 185.44302554027752 169.28764949907332 L 160.50000000000247 169.28764949907332 A 3 3 0 0 1 157.50000000000247 166.28764949907332 L 157.50000000000247 0 A 0 0 0 0 1 157.50000000000247 0 Z" fill="#107db7" filter="none" id="path_5" opacity="1" stroke="#ffffff" stroke-width="0.1" tag_name="svg/g/g_2/path_5"/>
<path class="reveliogood_2" d="M 126.55697445972247 0 L 157.49999999999753 0 A 0 0 0 0 1 157.49999999999753 0 L 157.49999999999753 192.9298501753591 A 3 3 0 0 1 154.49999999999753 195.9298501753591 L 129.55697445972248 195.9298501753591 A 3 3 0 0 1 126.55697445972247 192.9298501753591 L 126.55697445972247 0 A 0 0 0 0 1 126.55697445972247 0 Z" fill="#107db7" filter="none" id="path_4" opacity="1" stroke="#ffffff" stroke-width="0.1" tag_name="svg/g/g_2/path_4"/>
<path class="reveliogood_2" d="M 95.61394891945248 0 L 126.55697445972753 0 A 0 0 0 0 1 126.55697445972753 0 L 126.55697445972753 228.60930930335545 A 3 3 0 0 1 123.55697445972753 231.60930930335545 L 98.61394891945248 231.60930930335545 A 3 3 0 0 1 95.61394891945248 228.60930930335545 L 95.61394891945248 0 A 0 0 0 0 1 95.61394891945248 0 Z" fill="#107db7" filter="none" id="path_3" opacity="1" stroke="#ffffff" stroke-width="0.1" tag_name="svg/g/g_2/path_3"/>
<path class="reveliogood_2" d="M 64.67092337917448 0 L 95.61394891944953 0 A 0 0 0 0 1 95.61394891944953 0 L 95.61394891944953 315.57222041660185 A 3 3 0 0 1 92.61394891944953 318.57222041660185 L 67.67092337917448 318.57222041660185 A 3 3 0 0 1 64.67092337917448 315.57222041660185 L 64.67092337917448 0 A 0 0 0 0 1 64.67092337917448 0 Z" fill="#107db7" filter="none" id="path_2" opacity="1" stroke="#ffffff" stroke-width="0.1" tag_name="svg/g/g_2/path_2"/>
<path class="reveliogood_2" d="M 33.72789783889948 0 L 64.67092337917452 0 A 0 0 0 0 1 64.67092337917452 0 L 64.67092337917452 279.71780705487595 A 3 3 0 0 1 61.670923379174525 282.71780705487595 L 36.72789783889948 282.71780705487595 A 3 3 0 0 1 33.72789783889948 279.71780705487595 L 33.72789783889948 0 A 0 0 0 0 1 33.72789783889948 0 Z" fill="#107db7" filter="none" id="path_1" opacity="1" stroke="#ffffff" stroke-width="0.1" tag_name="svg/g/g_2/path_1"/>
<path class="reveliogood_2" d="M 2.7848722986244763 0 L 33.72789783889952 0 A 0 0 0 0 1 33.72789783889952 0 L 33.72789783889952 409.27321701747707 A 3 3 0 0 1 30.727897838899523 412.27321701747707 L 5.784872298624476 412.27321701747707 A 3 3 0 0 1 2.7848722986244763 409.27321701747707 L 2.7848722986244763 0 A 0 0 0 0 1 2.7848722986244763 0 Z" fill="#107db7" filter="none" id="path" opacity="1" stroke="#ffffff" stroke-width="0.1" tag_name="svg/g/g_2/path"/>
</g>
<g clip-path="none" data-z-index="0.1" id="g_1" opacity="1" tag_name="svg/g/g_1" transform="translate(10,70) scale(1 1)"/>
</g>
</svg>