<?xml version="1.0" encoding="utf-8"?><svg xmlns="http://www.w3.org/2000/svg" font="10px sans-serif" height="auto" id="svg" max-width="100%" tag_name="svg" viewBox="-90,-30,880,340" width="900">
<g id="g_1" tag_name="svg/g_1">
<path d="M26,293.5c0-16.9,13.7-30.5,30.5-30.5c16.9,0,30.5,13.7,30.5,30.5" fill="none" id="path_20" opacity="0.6" stroke="#e5ff00" stroke-width="3" tag_name="svg/g_1/path_20"/>
<path d="M87.4,293.5c0-16.9,13.7-30.5,30.5-30.5c16.9,0,30.5,13.7,30.5,30.5" fill="none" id="path_19" opacity="0.6" stroke="#e5ff00" stroke-width="3" tag_name="svg/g_1/path_19"/>
<path d="M270.3,293.5c0-16.9,13.7-30.5,30.5-30.5s30.5,13.7,30.5,30.5" fill="none" id="path_18" opacity="0.6" stroke="#e5ff00" stroke-width="3" tag_name="svg/g_1/path_18"/>
<path d="M393.3,293.5c0-16.9,13.7-30.5,30.5-30.5c16.9,0,30.5,13.7,30.5,30.5" fill="none" id="path_17" opacity="0.6" stroke="#e5ff00" stroke-width="3" tag_name="svg/g_1/path_17"/>
<path d="M423.8,293.5c0-16.9,13.7-30.5,30.5-30.5c16.9,0,30.5,13.7,30.5,30.5" fill="none" id="path_16" opacity="0.6" stroke="#e5ff00" stroke-width="3" tag_name="svg/g_1/path_16"/>
<path d="M545.8,293.5c0-16.9,13.7-30.5,30.5-30.5c16.9,0,30.5,13.7,30.5,30.5" fill="none" id="path_15" opacity="0.6" stroke="#e5ff00" stroke-width="3" tag_name="svg/g_1/path_15"/>
<path d="M545.8,293.7c0-25.3,20.5-45.8,45.8-45.8c25.3,0,45.8,20.5,45.8,45.8" fill="none" id="path_14" opacity="0.6" stroke="#e5ff00" stroke-width="3" tag_name="svg/g_1/path_14"/>
<path d="M576.3,293.7c0-33.9,27.4-61.3,61.3-61.3c33.8,0,61.3,27.4,61.3,61.3" fill="none" id="path_13" opacity="0.6" stroke="#e5ff00" stroke-width="3" tag_name="svg/g_1/path_13"/>
<path d="M270.5,293.6c0-8.6,7-15.5,15.5-15.5c8.6,0,15.5,7,15.5,15.5" fill="none" id="path_12" opacity="0.6" stroke="#e5ff00" stroke-width="3" tag_name="svg/g_1/path_12"/>
<path d="M362.5,293.6c0-8.6,7-15.5,15.5-15.5c8.6,0,15.5,7,15.5,15.5" fill="none" id="path_11" opacity="0.6" stroke="#e5ff00" stroke-width="3" tag_name="svg/g_1/path_11"/>
<path d="M515,293.6c0-8.6,7-15.5,15.5-15.5s15.5,7,15.5,15.5" fill="none" id="path_10" opacity="0.6" stroke="#e5ff00" stroke-width="3" tag_name="svg/g_1/path_10"/>
<path d="M117.9,293.5c0-33.7,27.3-61,61-61c33.7,0,61,27.3,61,61" fill="none" id="path_9" opacity="0.6" stroke="#e5ff00" stroke-width="3" tag_name="svg/g_1/path_9"/>
<path d="M393.2,293.5c0-33.7,27.3-61,61-61c33.7,0,61,27.3,61,61" fill="none" id="path_8" opacity="0.6" stroke="#e5ff00" stroke-width="3" tag_name="svg/g_1/path_8"/>
<path d="M179,293.8c0-118.1,95.8-213.9,213.9-213.9c118.1,0,213.9,95.8,213.9,213.9" fill="none" id="path_7" opacity="0.6" stroke="#e5ff00" stroke-width="3" tag_name="svg/g_1/path_7"/>
<path d="M149,293.3C149,150,265.2,33.9,408.4,33.9S667.8,150,667.8,293.3" fill="none" id="path_6" opacity="0.6" stroke="#e5ff00" stroke-width="3" tag_name="svg/g_1/path_6"/>
<path d="M26,293.8c0-50.6,41-91.5,91.5-91.5c50.6,0,91.5,41,91.5,91.5" fill="none" id="path_5" opacity="0.6" stroke="#e5ff00" stroke-width="3" tag_name="svg/g_1/path_5"/>
<path class="reveliogood" d="M271.4,293.8c0-50.6,41-91.5,91.5-91.5c50.6,0,91.5,41,91.5,91.5" fill="none" id="path_4" opacity="0.6" stroke="#FF0000" stroke-width="3.1" tag_name="svg/g_1/path_4"/>
<path class="reveliogood" d="M483.9,293.5c0-59.3,48-107.3,107.3-107.3c59.3,0,107.3,48,107.3,107.3" fill="none" id="path_3" opacity="0.6" stroke="#FF0000" stroke-width="3.1" tag_name="svg/g_1/path_3"/>
<path class="reveliogood" d="M239.4,293.3c0-84.5,68.5-153,153-153c84.5,0,153,68.5,153,153" fill="none" id="path_2" opacity="0.6" stroke="#FF0000" stroke-width="3.1" tag_name="svg/g_1/path_2"/>
<path class="reveliogood" d="M56.7,293.6c0-58.9,47.8-106.7,106.7-106.7c58.9,0,106.7,47.8,106.7,106.7" fill="none" id="path_1" opacity="0.6" stroke="#FF0000" stroke-width="3.1" tag_name="svg/g_1/path_1"/>
</g>
<g id="g" tag_name="svg/g">
<path d="M698.5,290c-1.6,0-2.9,1.1-3.3,2.5h-23.9c-0.4-1.4-1.8-2.5-3.3-2.5s-2.9,1.1-3.3,2.5h-23.9   c-0.4-1.4-1.8-2.5-3.3-2.5s-2.9,1.1-3.3,2.5h-23.9c-0.4-1.4-1.8-2.5-3.3-2.5s-2.9,1.1-3.3,2.5h-23.9c-0.4-1.4-1.8-2.5-3.3-2.5   s-2.9,1.1-3.3,2.5H549c-0.4-1.4-1.8-2.5-3.3-2.5s-2.9,1.1-3.3,2.5h-23.9c-0.4-1.4-1.8-2.5-3.3-2.5c-1.6,0-2.9,1.1-3.3,2.5h-23.9   c-0.4-1.4-1.8-2.5-3.3-2.5c-1.6,0-2.9,1.1-3.3,2.5h-23.9c-0.4-1.4-1.8-2.5-3.3-2.5s-2.9,1.1-3.3,2.5h-23.9   c-0.4-1.4-1.8-2.5-3.3-2.5c-1.6,0-2.9,1.1-3.3,2.5h-23.9c-0.4-1.4-1.8-2.5-3.3-2.5c-1.6,0-2.9,1.1-3.3,2.5h-23.9   c-0.4-1.4-1.8-2.5-3.3-2.5s-2.9,1.1-3.3,2.5H335c-0.4-1.4-1.8-2.5-3.3-2.5s-2.9,1.1-3.3,2.5h-23.9c-0.4-1.4-1.8-2.5-3.3-2.5   s-2.9,1.1-3.3,2.5h-23.9c-0.4-1.4-1.8-2.5-3.3-2.5s-2.9,1.1-3.3,2.5h-23.9c-0.4-1.4-1.8-2.5-3.3-2.5s-2.9,1.1-3.3,2.5h-23.9   c-0.4-1.4-1.8-2.5-3.3-2.5s-2.9,1.1-3.3,2.5h-23.9c-0.4-1.4-1.8-2.5-3.3-2.5s-2.9,1.1-3.3,2.5h-23.9c-0.4-1.4-1.8-2.5-3.3-2.5   c-1.6,0-2.9,1.1-3.3,2.5H121c-0.4-1.4-1.8-2.5-3.3-2.5s-2.9,1.1-3.3,2.5H90.5c-0.4-1.4-1.8-2.5-3.3-2.5s-2.9,1.1-3.3,2.5H59.9   c-0.4-1.4-1.8-2.5-3.3-2.5s-2.9,1.1-3.3,2.5H29.3c-0.4-1.4-1.8-2.5-3.3-2.5c-1.9,0-3.5,1.6-3.5,3.5s1.6,3.5,3.5,3.5   c1.6,0,2.9-1.1,3.3-2.5h23.9c0.4,1.4,1.8,2.5,3.3,2.5s2.9-1.1,3.3-2.5h23.9c0.4,1.4,1.8,2.5,3.3,2.5s2.9-1.1,3.3-2.5h23.9   c0.4,1.4,1.8,2.5,3.3,2.5s2.9-1.1,3.3-2.5h23.9c0.4,1.4,1.8,2.5,3.3,2.5c1.6,0,2.9-1.1,3.3-2.5h23.9c0.4,1.4,1.8,2.5,3.3,2.5   s2.9-1.1,3.3-2.5h23.9c0.4,1.4,1.8,2.5,3.3,2.5s2.9-1.1,3.3-2.5h23.9c0.4,1.4,1.8,2.5,3.3,2.5s2.9-1.1,3.3-2.5h23.9   c0.4,1.4,1.8,2.5,3.3,2.5s2.9-1.1,3.3-2.5h23.9c0.4,1.4,1.8,2.5,3.3,2.5s2.9-1.1,3.3-2.5h23.9c0.4,1.4,1.8,2.5,3.3,2.5   s2.9-1.1,3.3-2.5h23.9c0.4,1.4,1.8,2.5,3.3,2.5s2.9-1.1,3.3-2.5h23.9c0.4,1.4,1.8,2.5,3.3,2.5c1.6,0,2.9-1.1,3.3-2.5H420   c0.4,1.4,1.8,2.5,3.3,2.5c1.6,0,2.9-1.1,3.3-2.5h23.9c0.4,1.4,1.8,2.5,3.3,2.5s2.9-1.1,3.3-2.5h23.9c0.4,1.4,1.8,2.5,3.3,2.5   c1.6,0,2.9-1.1,3.3-2.5h23.9c0.4,1.4,1.8,2.5,3.3,2.5c1.6,0,2.9-1.1,3.3-2.5h23.9c0.4,1.4,1.8,2.5,3.3,2.5s2.9-1.1,3.3-2.5h23.9   c0.4,1.4,1.8,2.5,3.3,2.5s2.9-1.1,3.3-2.5h23.9c0.4,1.4,1.8,2.5,3.3,2.5s2.9-1.1,3.3-2.5H634c0.4,1.4,1.8,2.5,3.3,2.5   s2.9-1.1,3.3-2.5h23.9c0.4,1.4,1.8,2.5,3.3,2.5s2.9-1.1,3.3-2.5h23.9c0.4,1.4,1.8,2.5,3.3,2.5c1.9,0,3.5-1.6,3.5-3.5   S700.4,290,698.5,290z" fill="#4D4D4D" id="path" tag_name="svg/g/path"/>
</g>
</svg>