<?xml version="1.0" encoding="UTF-8"?>
<svg width="800" height="600" xmlns="http://www.w3.org/2000/svg">
    <!-- 背景 -->
    <rect width="800" height="600" fill="#f8f9fa" />
    
    <!-- 标题 -->
    <text x="400" y="30" font-family="Arial" font-size="20" text-anchor="middle" font-weight="bold">质量监控数据分析 - 产品尺寸散点图</text>
    
    <!-- 图例 -->
    <rect x="600" y="60" width="15" height="15" fill="#3498db" rx="7.5" ry="7.5" />
    <text x="625" y="73" font-family="Arial" font-size="14">正常数据点</text>
    
    <rect x="600" y="90" width="20" height="20" fill="#e74c3c" rx="10" ry="10" />
    <text x="630" y="103" font-family="Arial" font-size="14" font-weight="bold">异常数据点</text>
    
    <!-- 坐标轴 -->
    <line x1="100" y1="500" x2="700" y2="500" stroke="black" stroke-width="2" />
    <line x1="100" y1="500" x2="100" y2="100" stroke="black" stroke-width="2" />
    
    <!-- X轴刻度 -->
    <line x1="100" y1="500" x2="100" y2="505" stroke="black" stroke-width="2" />
    <text x="100" y="525" font-family="Arial" font-size="12" text-anchor="middle">0</text>
    
    <line x1="220" y1="500" x2="220" y2="505" stroke="black" stroke-width="2" />
    <text x="220" y="525" font-family="Arial" font-size="12" text-anchor="middle">20</text>
    
    <line x1="340" y1="500" x2="340" y2="505" stroke="black" stroke-width="2" />
    <text x="340" y="525" font-family="Arial" font-size="12" text-anchor="middle">40</text>
    
    <line x1="460" y1="500" x2="460" y2="505" stroke="black" stroke-width="2" />
    <text x="460" y="525" font-family="Arial" font-size="12" text-anchor="middle">60</text>
    
    <line x1="580" y1="500" x2="580" y2="505" stroke="black" stroke-width="2" />
    <text x="580" y="525" font-family="Arial" font-size="12" text-anchor="middle">80</text>
    
    <line x1="700" y1="500" x2="700" y2="505" stroke="black" stroke-width="2" />
    <text x="700" y="525" font-family="Arial" font-size="12" text-anchor="middle">100</text>
    
    <!-- Y轴刻度 -->
    <line x1="95" y1="500" x2="100" y2="500" stroke="black" stroke-width="2" />
    <text x="85" y="505" font-family="Arial" font-size="12" text-anchor="end">0</text>
    
    <line x1="95" y1="420" x2="100" y2="420" stroke="black" stroke-width="2" />
    <text x="85" y="425" font-family="Arial" font-size="12" text-anchor="end">20</text>
    
    <line x1="95" y1="340" x2="100" y2="340" stroke="black" stroke-width="2" />
    <text x="85" y="345" font-family="Arial" font-size="12" text-anchor="end">40</text>
    
    <line x1="95" y1="260" x2="100" y2="260" stroke="black" stroke-width="2" />
    <text x="85" y="265" font-family="Arial" font-size="12" text-anchor="end">60</text>
    
    <line x1="95" y1="180" x2="100" y2="180" stroke="black" stroke-width="2" />
    <text x="85" y="185" font-family="Arial" font-size="12" text-anchor="end">80</text>
    
    <line x1="95" y1="100" x2="100" y2="100" stroke="black" stroke-width="2" />
    <text x="85" y="105" font-family="Arial" font-size="12" text-anchor="end">100</text>
    
    <!-- 轴标签 -->
    <text x="400" y="555" font-family="Arial" font-size="16" text-anchor="middle">长度 (mm)</text>
    <text x="45" y="300" font-family="Arial" font-size="16" text-anchor="middle" transform="rotate(-90, 45, 300)">直径 (mm)</text>
    
    <!-- 网格线 -->
    <g stroke="#dddddd" stroke-dasharray="5,5">
        <line x1="100" y1="420" x2="700" y2="420" />
        <line x1="100" y1="340" x2="700" y2="340" />
        <line x1="100" y1="260" x2="700" y2="260" />
        <line x1="100" y1="180" x2="700" y2="180" />
        <line x1="100" y1="100" x2="700" y2="100" />
        
        <line x1="220" y1="100" x2="220" y2="500" />
        <line x1="340" y1="100" x2="340" y2="500" />
        <line x1="460" y1="100" x2="460" y2="500" />
        <line x1="580" y1="100" x2="580" y2="500" />
    </g>
    
    <!-- 正常数据点 -->
    <circle cx="150" cy="300" r="6" fill="#3498db" />
    <circle cx="165" cy="320" r="6" fill="#3498db" />
    <circle cx="185" cy="290" r="6" fill="#3498db" />
    <circle cx="210" cy="310" r="6" fill="#3498db" />
    <circle cx="230" cy="300" r="6" fill="#3498db" />
    <circle cx="245" cy="285" r="6" fill="#3498db" />
    <circle cx="260" cy="305" r="6" fill="#3498db" />
    <circle cx="280" cy="295" r="6" fill="#3498db" />
    <circle cx="300" cy="310" r="6" fill="#3498db" />
    <circle cx="320" cy="290" r="6" fill="#3498db" />
    <circle cx="335" cy="300" r="6" fill="#3498db" />
    <circle cx="350" cy="315" r="6" fill="#3498db" />
    <circle cx="370" cy="295" r="6" fill="#3498db" />
    <circle cx="385" cy="305" r="6" fill="#3498db" />
    <circle cx="400" cy="290" r="6" fill="#3498db" />
    <circle cx="420" cy="300" r="6" fill="#3498db" />
    <circle cx="435" cy="310" r="6" fill="#3498db" />
    <circle cx="450" cy="295" r="6" fill="#3498db" />
    <circle cx="470" cy="305" r="6" fill="#3498db" />
    <circle cx="485" cy="290" r="6" fill="#3498db" />
    <circle cx="500" cy="300" r="6" fill="#3498db" />
    <circle cx="520" cy="310" r="6" fill="#3498db" />
    <circle cx="535" cy="295" r="6" fill="#3498db" />
    <circle cx="550" cy="305" r="6" fill="#3498db" />
    <circle cx="570" cy="290" r="6" fill="#3498db" />
    <circle cx="585" cy="300" r="6" fill="#3498db" />
    <circle cx="600" cy="285" r="6" fill="#3498db" />
    <circle cx="620" cy="305" r="6" fill="#3498db" />
    <circle cx="635" cy="295" r="6" fill="#3498db" />
    <circle cx="650" cy="310" r="6" fill="#3498db" />
    
    <!-- 异常数据点 (尺寸更大，颜色更鲜艳) -->
    <circle cx="280" cy="180" r="10" fill="#e74c3c" stroke="#c0392b" stroke-width="2" />
    <circle cx="310" cy="165" r="10" fill="#e74c3c" stroke="#c0392b" stroke-width="2" />
    <circle cx="295" cy="175" r="10" fill="#e74c3c" stroke="#c0392b" stroke-width="2" />
    <circle cx="325" cy="170" r="10" fill="#e74c3c" stroke="#c0392b" stroke-width="2" />
    <circle cx="340" cy="160" r="10" fill="#e74c3c" stroke="#c0392b" stroke-width="2" />
    
    <!-- 高亮区域 -->
    <path d="M270,150 Q305,130 350,150 Q370,170 330,190 Q290,200 270,150" fill="rgba(231, 76, 60, 0.1)" stroke="#e74c3c" stroke-width="2" stroke-dasharray="5,3" />
    
    <!-- 注释 -->
    <text x="320" y="140" font-family="Arial" font-size="14" text-anchor="middle" fill="#e74c3c" font-weight="bold">异常区域</text>
    <text x="400" y="420" font-family="Arial" font-size="14" text-anchor="middle">规格参数正常范围</text>
    
    <!-- 时间戳 -->
    <text x="680" y="580" font-family="Arial" font-size="12" text-anchor="end" fill="#666">数据更新: 2023-11-08</text>
</svg>
