<svg aria-hidden="false" aria-label="Interactive chart" viewBox="0 0 600 400" height="400" width="600" xmlns="http://www.w3.org/2000/svg" style="font-family: -apple-system, BlinkMacSystemFont, &quot;Segoe UI&quot;, Roboto, Helvetica, Arial, &quot;Apple Color Emoji&quot;, &quot;Segoe UI Emoji&quot;, &quot;Segoe UI Symbol&quot;, sans-serif; font-size: 1rem;" class="highcharts-root" version="1.1" xmlns:xlink="http://www.w3.org/1999/xlink">
    <g aria-hidden="true" data-z-index="1" class="highcharts-grid highcharts-yaxis-grid">
        <path opacity="1" d="M 59.5 68 L 59.5 311" class="highcharts-grid-line" data-z-index="1" stroke-dasharray="none" stroke-width="1" stroke="#e6e6e6" fill="none"></path>
        <path opacity="1" d="M 102.5 68 L 102.5 311" class="highcharts-grid-line" data-z-index="1" stroke-dasharray="none" stroke-width="1" stroke="#e6e6e6" fill="none"></path>
        <path opacity="1" d="M 146.5 68 L 146.5 311" class="highcharts-grid-line" data-z-index="1" stroke-dasharray="none" stroke-width="1" stroke="#e6e6e6" fill="none"></path>
        <path opacity="1" d="M 190.5 68 L 190.5 311" class="highcharts-grid-line" data-z-index="1" stroke-dasharray="none" stroke-width="1" stroke="#e6e6e6" fill="none"></path>
        <path opacity="1" d="M 234.5 68 L 234.5 311" class="highcharts-grid-line" data-z-index="1" stroke-dasharray="none" stroke-width="1" stroke="#e6e6e6" fill="none"></path>
        <path opacity="1" d="M 278.5 68 L 278.5 311" class="highcharts-grid-line" data-z-index="1" stroke-dasharray="none" stroke-width="1" stroke="#e6e6e6" fill="none"></path>
        <path opacity="1" d="M 321.5 68 L 321.5 311" class="highcharts-grid-line" data-z-index="1" stroke-dasharray="none" stroke-width="1" stroke="#e6e6e6" fill="none"></path>
        <path opacity="1" d="M 365.5 68 L 365.5 311" class="highcharts-grid-line" data-z-index="1" stroke-dasharray="none" stroke-width="1" stroke="#e6e6e6" fill="none"></path>
        <path opacity="1" d="M 409.5 68 L 409.5 311" class="highcharts-grid-line" data-z-index="1" stroke-dasharray="none" stroke-width="1" stroke="#e6e6e6" fill="none"></path>
        <path opacity="1" d="M 453.5 68 L 453.5 311" class="highcharts-grid-line" data-z-index="1" stroke-dasharray="none" stroke-width="1" stroke="#e6e6e6" fill="none"></path>
        <path opacity="1" d="M 497.5 68 L 497.5 311" class="highcharts-grid-line" data-z-index="1" stroke-dasharray="none" stroke-width="1" stroke="#e6e6e6" fill="none"></path>
        <path opacity="1" d="M 541.5 68 L 541.5 311" class="highcharts-grid-line" data-z-index="1" stroke-dasharray="none" stroke-width="1" stroke="#e6e6e6" fill="none"></path>
    </g>
    <g aria-hidden="true" data-z-index="1" class="highcharts-grid highcharts-xaxis-grid">
        <path opacity="1" d="M 59 297.5 L 541 297.5" class="highcharts-grid-line" data-z-index="1" stroke-dasharray="none" stroke-width="0" stroke="#e6e6e6" fill="none"></path>
        <path opacity="1" d="M 59 284.5 L 541 284.5" class="highcharts-grid-line" data-z-index="1" stroke-dasharray="none" stroke-width="0" stroke="#e6e6e6" fill="none"></path>
        <path opacity="1" d="M 59 270.5 L 541 270.5" class="highcharts-grid-line" data-z-index="1" stroke-dasharray="none" stroke-width="0" stroke="#e6e6e6" fill="none"></path>
        <path opacity="1" d="M 59 257.5 L 541 257.5" class="highcharts-grid-line" data-z-index="1" stroke-dasharray="none" stroke-width="0" stroke="#e6e6e6" fill="none"></path>
        <path opacity="1" d="M 59 243.5 L 541 243.5" class="highcharts-grid-line" data-z-index="1" stroke-dasharray="none" stroke-width="0" stroke="#e6e6e6" fill="none"></path>
        <path opacity="1" d="M 59 230.5 L 541 230.5" class="highcharts-grid-line" data-z-index="1" stroke-dasharray="none" stroke-width="0" stroke="#e6e6e6" fill="none"></path>
        <path opacity="1" d="M 59 216.5 L 541 216.5" class="highcharts-grid-line" data-z-index="1" stroke-dasharray="none" stroke-width="0" stroke="#e6e6e6" fill="none"></path>
        <path opacity="1" d="M 59 203.5 L 541 203.5" class="highcharts-grid-line" data-z-index="1" stroke-dasharray="none" stroke-width="0" stroke="#e6e6e6" fill="none"></path>
        <path opacity="1" d="M 59 189.5 L 541 189.5" class="highcharts-grid-line" data-z-index="1" stroke-dasharray="none" stroke-width="0" stroke="#e6e6e6" fill="none"></path>
        <path opacity="1" d="M 59 176.5 L 541 176.5" class="highcharts-grid-line" data-z-index="1" stroke-dasharray="none" stroke-width="0" stroke="#e6e6e6" fill="none"></path>
        <path opacity="1" d="M 59 162.5 L 541 162.5" class="highcharts-grid-line" data-z-index="1" stroke-dasharray="none" stroke-width="0" stroke="#e6e6e6" fill="none"></path>
        <path opacity="1" d="M 59 149.5 L 541 149.5" class="highcharts-grid-line" data-z-index="1" stroke-dasharray="none" stroke-width="0" stroke="#e6e6e6" fill="none"></path>
        <path opacity="1" d="M 59 135.5 L 541 135.5" class="highcharts-grid-line" data-z-index="1" stroke-dasharray="none" stroke-width="0" stroke="#e6e6e6" fill="none"></path>
        <path opacity="1" d="M 59 122.5 L 541 122.5" class="highcharts-grid-line" data-z-index="1" stroke-dasharray="none" stroke-width="0" stroke="#e6e6e6" fill="none"></path>
        <path opacity="1" d="M 59 108.5 L 541 108.5" class="highcharts-grid-line" data-z-index="1" stroke-dasharray="none" stroke-width="0" stroke="#e6e6e6" fill="none"></path>
        <path opacity="1" d="M 59 95.5 L 541 95.5" class="highcharts-grid-line" data-z-index="1" stroke-dasharray="none" stroke-width="0" stroke="#e6e6e6" fill="none"></path>
        <path opacity="1" d="M 59 81.5 L 541 81.5" class="highcharts-grid-line" data-z-index="1" stroke-dasharray="none" stroke-width="0" stroke="#e6e6e6" fill="none"></path>
        <path opacity="1" d="M 59 68.5 L 541 68.5" class="highcharts-grid-line" data-z-index="1" stroke-dasharray="none" stroke-width="0" stroke="#e6e6e6" fill="none"></path>
        <path opacity="1" d="M 59 311.5 L 541 311.5" class="highcharts-grid-line" data-z-index="1" stroke-dasharray="none" stroke-width="0" stroke="#e6e6e6" fill="none"></path>
    </g>
    <g aria-hidden="true" data-z-index="1" class="highcharts-grid highcharts-xaxis-grid">
        <path opacity="1" d="M 59 297.5 L 541 297.5" class="highcharts-grid-line" data-z-index="1" stroke-dasharray="none" stroke-width="0" stroke="#e6e6e6" fill="none"></path>
        <path opacity="1" d="M 59 284.5 L 541 284.5" class="highcharts-grid-line" data-z-index="1" stroke-dasharray="none" stroke-width="0" stroke="#e6e6e6" fill="none"></path>
        <path opacity="1" d="M 59 270.5 L 541 270.5" class="highcharts-grid-line" data-z-index="1" stroke-dasharray="none" stroke-width="0" stroke="#e6e6e6" fill="none"></path>
        <path opacity="1" d="M 59 257.5 L 541 257.5" class="highcharts-grid-line" data-z-index="1" stroke-dasharray="none" stroke-width="0" stroke="#e6e6e6" fill="none"></path>
        <path opacity="1" d="M 59 243.5 L 541 243.5" class="highcharts-grid-line" data-z-index="1" stroke-dasharray="none" stroke-width="0" stroke="#e6e6e6" fill="none"></path>
        <path opacity="1" d="M 59 230.5 L 541 230.5" class="highcharts-grid-line" data-z-index="1" stroke-dasharray="none" stroke-width="0" stroke="#e6e6e6" fill="none"></path>
        <path opacity="1" d="M 59 216.5 L 541 216.5" class="highcharts-grid-line" data-z-index="1" stroke-dasharray="none" stroke-width="0" stroke="#e6e6e6" fill="none"></path>
        <path opacity="1" d="M 59 203.5 L 541 203.5" class="highcharts-grid-line" data-z-index="1" stroke-dasharray="none" stroke-width="0" stroke="#e6e6e6" fill="none"></path>
        <path opacity="1" d="M 59 189.5 L 541 189.5" class="highcharts-grid-line" data-z-index="1" stroke-dasharray="none" stroke-width="0" stroke="#e6e6e6" fill="none"></path>
        <path opacity="1" d="M 59 176.5 L 541 176.5" class="highcharts-grid-line" data-z-index="1" stroke-dasharray="none" stroke-width="0" stroke="#e6e6e6" fill="none"></path>
        <path opacity="1" d="M 59 162.5 L 541 162.5" class="highcharts-grid-line" data-z-index="1" stroke-dasharray="none" stroke-width="0" stroke="#e6e6e6" fill="none"></path>
        <path opacity="1" d="M 59 149.5 L 541 149.5" class="highcharts-grid-line" data-z-index="1" stroke-dasharray="none" stroke-width="0" stroke="#e6e6e6" fill="none"></path>
        <path opacity="1" d="M 59 135.5 L 541 135.5" class="highcharts-grid-line" data-z-index="1" stroke-dasharray="none" stroke-width="0" stroke="#e6e6e6" fill="none"></path>
        <path opacity="1" d="M 59 122.5 L 541 122.5" class="highcharts-grid-line" data-z-index="1" stroke-dasharray="none" stroke-width="0" stroke="#e6e6e6" fill="none"></path>
        <path opacity="1" d="M 59 108.5 L 541 108.5" class="highcharts-grid-line" data-z-index="1" stroke-dasharray="none" stroke-width="0" stroke="#e6e6e6" fill="none"></path>
        <path opacity="1" d="M 59 95.5 L 541 95.5" class="highcharts-grid-line" data-z-index="1" stroke-dasharray="none" stroke-width="0" stroke="#e6e6e6" fill="none"></path>
        <path opacity="1" d="M 59 81.5 L 541 81.5" class="highcharts-grid-line" data-z-index="1" stroke-dasharray="none" stroke-width="0" stroke="#e6e6e6" fill="none"></path>
        <path opacity="1" d="M 59 68.5 L 541 68.5" class="highcharts-grid-line" data-z-index="1" stroke-dasharray="none" stroke-width="0" stroke="#e6e6e6" fill="none"></path>
        <path opacity="1" d="M 59 311.5 L 541 311.5" class="highcharts-grid-line" data-z-index="1" stroke-dasharray="none" stroke-width="0" stroke="#e6e6e6" fill="none"></path>
    </g>
    <rect aria-hidden="true" height="243" width="482" y="68" x="59" stroke-width="0" stroke="#cccccc" data-z-index="1" class="highcharts-plot-border" fill="none"></rect>
    <g aria-hidden="true" data-z-index="2" class="highcharts-axis highcharts-yaxis">
        <path d="M 59 311 L 541 311" data-z-index="7" stroke-width="0" stroke="#333333" class="highcharts-axis-line" fill="none"></path>
    </g>
    <g aria-hidden="true" data-z-index="2" class="highcharts-axis highcharts-xaxis">
        <path d="M 59.5 68 L 59.5 311" data-z-index="7" stroke-width="1" stroke="#333333" class="highcharts-axis-line" fill="none"></path>
    </g>
    <g aria-hidden="true" data-z-index="2" class="highcharts-axis highcharts-xaxis">
        <path d="M 541.5 68 L 541.5 311" data-z-index="7" stroke-width="1" stroke="#333333" class="highcharts-axis-line" fill="none"></path>
    </g>
    <g aria-hidden="false" filter="none" data-z-index="3" class="highcharts-series-group">
        <g style="outline: none;" aria-label="Male, bar series 1 of 2 with 18 bars. X axis, Age (male)." tabindex="-1" role="region" aria-hidden="false" clip-path="url(#highcharts-uudy8sb-116-)" transform="translate(59,68) rotate(90 119.5 362.5) scale(-1 1)" opacity="1" data-z-index="0.1" class="highcharts-series highcharts-series-0 highcharts-bar-series highcharts-color-0">
            <path style="outline: none;" aria-label="1. Age 0-4, -1.38%. Male." role="img" tabindex="-1" class="highcharts-point highcharts-negative highcharts-color-0" filter="none" opacity="1" stroke-width="1" stroke="#ffffff" d="M 3.5 219.5 L 10.5 219.5 A 0 0 0 0 1 10.5 219.5 L 10.5 276 A 3.5 3.5 0 0 1 7 279.5 L 7 279.5 A 3.5 3.5 0 0 1 3.5 276 L 3.5 219.5 A 0 0 0 0 1 3.5 219.5 Z" fill="#2caffe"></path>
            <path style="outline: none;" aria-label="2. Age 5-9, -2.09%. Male." role="img" tabindex="-1" class="highcharts-point highcharts-negative highcharts-color-0" filter="none" opacity="1" stroke-width="1" stroke="#ffffff" d="M 17.5 219.5 L 24.5 219.5 A 0 0 0 0 1 24.5 219.5 L 24.5 307 A 3.5 3.5 0 0 1 21 310.5 L 21 310.5 A 3.5 3.5 0 0 1 17.5 307 L 17.5 219.5 A 0 0 0 0 1 17.5 219.5 Z" fill="#2caffe"></path>
            <path style="outline: none;" aria-label="3. Age 10-14, -2.45%. Male." role="img" tabindex="-1" class="highcharts-point highcharts-negative highcharts-color-0" filter="none" opacity="1" stroke-width="1" stroke="#ffffff" d="M 30.5 219.5 L 37.5 219.5 A 0 0 0 0 1 37.5 219.5 L 37.5 323 A 3.5 3.5 0 0 1 34 326.5 L 34 326.5 A 3.5 3.5 0 0 1 30.5 323 L 30.5 219.5 A 0 0 0 0 1 30.5 219.5 Z" fill="#2caffe"></path>
            <path style="outline: none;" aria-label="4. Age 15-19, -2.71%. Male." role="img" tabindex="-1" class="highcharts-point highcharts-negative highcharts-color-0" filter="none" opacity="1" stroke-width="1" stroke="#ffffff" d="M 44.5 219.5 L 51.5 219.5 A 0 0 0 0 1 51.5 219.5 L 51.5 334 A 3.5 3.5 0 0 1 48 337.5 L 48 337.5 A 3.5 3.5 0 0 1 44.5 334 L 44.5 219.5 A 0 0 0 0 1 44.5 219.5 Z" fill="#2caffe"></path>
            <path style="outline: none;" aria-label="5. Age 20-24, -2.97%. Male." role="img" tabindex="-1" class="highcharts-point highcharts-negative highcharts-color-0" filter="none" opacity="1" stroke-width="1" stroke="#ffffff" d="M 57.5 219.5 L 64.5 219.5 A 0 0 0 0 1 64.5 219.5 L 64.5 346 A 3.5 3.5 0 0 1 61 349.5 L 61 349.5 A 3.5 3.5 0 0 1 57.5 346 L 57.5 219.5 A 0 0 0 0 1 57.5 219.5 Z" fill="#2caffe"></path>
            <path style="outline: none;" aria-label="6. Age 25-29, -3.69%. Male." role="img" tabindex="-1" class="highcharts-point highcharts-negative highcharts-color-0" filter="none" opacity="1" stroke-width="1" stroke="#ffffff" d="M 71.5 219.5 L 78.5 219.5 A 0 0 0 0 1 78.5 219.5 L 78.5 377 A 3.5 3.5 0 0 1 75 380.5 L 75 380.5 A 3.5 3.5 0 0 1 71.5 377 L 71.5 219.5 A 0 0 0 0 1 71.5 219.5 Z" fill="#2caffe"></path>
            <path style="outline: none;" aria-label="7. Age 30-34, -4.04%. Male." role="img" tabindex="-1" class="highcharts-point highcharts-negative highcharts-color-0" filter="none" opacity="1" stroke-width="1" stroke="#ffffff" d="M 84.5 219.5 L 91.5 219.5 A 0 0 0 0 1 91.5 219.5 L 91.5 393 A 3.5 3.5 0 0 1 88 396.5 L 88 396.5 A 3.5 3.5 0 0 1 84.5 393 L 84.5 219.5 A 0 0 0 0 1 84.5 219.5 Z" fill="#2caffe"></path>
            <path style="outline: none;" aria-label="8. Age 35-40, -3.81%. Male." role="img" tabindex="-1" class="highcharts-point highcharts-negative highcharts-color-0" filter="none" opacity="1" stroke-width="1" stroke="#ffffff" d="M 98.5 219.5 L 105.5 219.5 A 0 0 0 0 1 105.5 219.5 L 105.5 383 A 3.5 3.5 0 0 1 102 386.5 L 102 386.5 A 3.5 3.5 0 0 1 98.5 383 L 98.5 219.5 A 0 0 0 0 1 98.5 219.5 Z" fill="#2caffe"></path>
            <path style="outline: none;" aria-label="9. Age 40-45, -4.19%. Male." role="img" tabindex="-1" class="highcharts-point highcharts-negative highcharts-color-0" filter="none" opacity="1" stroke-width="1" stroke="#ffffff" d="M 111.5 219.5 L 118.5 219.5 A 0 0 0 0 1 118.5 219.5 L 118.5 399 A 3.5 3.5 0 0 1 115 402.5 L 115 402.5 A 3.5 3.5 0 0 1 111.5 399 L 111.5 219.5 A 0 0 0 0 1 111.5 219.5 Z" fill="#2caffe"></path>
            <path style="outline: none;" aria-label="10. Age 45-49, -4.61%. Male." role="img" tabindex="-1" class="highcharts-point highcharts-negative highcharts-color-0" filter="none" opacity="1" stroke-width="1" stroke="#ffffff" d="M 125.5 219.5 L 132.5 219.5 A 0 0 0 0 1 132.5 219.5 L 132.5 418 A 3.5 3.5 0 0 1 129 421.5 L 129 421.5 A 3.5 3.5 0 0 1 125.5 418 L 125.5 219.5 A 0 0 0 0 1 125.5 219.5 Z" fill="#2caffe"></path>
            <path style="outline: none;" aria-label="11. Age 50-54, -4.56%. Male." role="img" tabindex="-1" class="highcharts-point highcharts-negative highcharts-color-0" filter="none" opacity="1" stroke-width="1" stroke="#ffffff" d="M 138.5 219.5 L 145.5 219.5 A 0 0 0 0 1 145.5 219.5 L 145.5 415 A 3.5 3.5 0 0 1 142 418.5 L 142 418.5 A 3.5 3.5 0 0 1 138.5 415 L 138.5 219.5 A 0 0 0 0 1 138.5 219.5 Z" fill="#2caffe"></path>
            <path style="outline: none;" aria-label="12. Age 55-59, -4.21%. Male." role="img" tabindex="-1" class="highcharts-point highcharts-negative highcharts-color-0" filter="none" opacity="1" stroke-width="1" stroke="#ffffff" d="M 152.5 219.5 L 159.5 219.5 A 0 0 0 0 1 159.5 219.5 L 159.5 400 A 3.5 3.5 0 0 1 156 403.5 L 156 403.5 A 3.5 3.5 0 0 1 152.5 400 L 152.5 219.5 A 0 0 0 0 1 152.5 219.5 Z" fill="#2caffe"></path>
            <path style="outline: none;" aria-label="13. Age 60-64, -3.53%. Male." role="img" tabindex="-1" class="highcharts-point highcharts-negative highcharts-color-0" filter="none" opacity="1" stroke-width="1" stroke="#ffffff" d="M 165.5 219.5 L 172.5 219.5 A 0 0 0 0 1 172.5 219.5 L 172.5 370 A 3.5 3.5 0 0 1 169 373.5 L 169 373.5 A 3.5 3.5 0 0 1 165.5 370 L 165.5 219.5 A 0 0 0 0 1 165.5 219.5 Z" fill="#2caffe"></path>
            <path style="outline: none;" aria-label="14. Age 65-69, -2.55%. Male." role="img" tabindex="-1" class="highcharts-point highcharts-negative highcharts-color-0" filter="none" opacity="1" stroke-width="1" stroke="#ffffff" d="M 179.5 219.5 L 186.5 219.5 A 0 0 0 0 1 186.5 219.5 L 186.5 327 A 3.5 3.5 0 0 1 183 330.5 L 183 330.5 A 3.5 3.5 0 0 1 179.5 327 L 179.5 219.5 A 0 0 0 0 1 179.5 219.5 Z" fill="#2caffe"></path>
            <path style="outline: none;" aria-label="15. Age 70-74, -1.82%. Male." role="img" tabindex="-1" class="highcharts-point highcharts-negative highcharts-color-0" filter="none" opacity="1" stroke-width="1" stroke="#ffffff" d="M 192.5 219.5 L 199.5 219.5 A 0 0 0 0 1 199.5 219.5 L 199.5 295 A 3.5 3.5 0 0 1 196 298.5 L 196 298.5 A 3.5 3.5 0 0 1 192.5 295 L 192.5 219.5 A 0 0 0 0 1 192.5 219.5 Z" fill="#2caffe"></path>
            <path style="outline: none;" aria-label="16. Age 75-79, -1.46%. Male." role="img" tabindex="-1" class="highcharts-point highcharts-negative highcharts-color-0" filter="none" opacity="1" stroke-width="1" stroke="#ffffff" d="M 206.5 219.5 L 213.5 219.5 A 0 0 0 0 1 213.5 219.5 L 213.5 280 A 3.5 3.5 0 0 1 210 283.5 L 210 283.5 A 3.5 3.5 0 0 1 206.5 280 L 206.5 219.5 A 0 0 0 0 1 206.5 219.5 Z" fill="#2caffe"></path>
            <path style="outline: none;" aria-label="17. Age 80-84, -0.78%. Male." role="img" tabindex="-1" class="highcharts-point highcharts-negative highcharts-color-0" filter="none" opacity="1" stroke-width="1" stroke="#ffffff" d="M 219.5 219.5 L 226.5 219.5 A 0 0 0 0 1 226.5 219.5 L 226.5 250 A 3.5 3.5 0 0 1 223 253.5 L 223 253.5 A 3.5 3.5 0 0 1 219.5 250 L 219.5 219.5 A 0 0 0 0 1 219.5 219.5 Z" fill="#2caffe"></path>
            <path style="outline: none;" aria-label="18. Age 80+, -0.71%. Male." role="img" tabindex="-1" class="highcharts-point highcharts-negative highcharts-color-0" filter="none" opacity="1" stroke-width="1" stroke="#ffffff" d="M 233.5 219.5 L 240.5 219.5 A 0 0 0 0 1 240.5 219.5 L 240.5 247 A 3.5 3.5 0 0 1 237 250.5 L 237 250.5 A 3.5 3.5 0 0 1 233.5 247 L 233.5 219.5 A 0 0 0 0 1 233.5 219.5 Z" fill="#2caffe"></path>
        </g>
        <g aria-hidden="true" clip-path="none" transform="translate(59,68) scale(1 1)" opacity="1" data-z-index="0.1" class="highcharts-markers highcharts-series-0 highcharts-bar-series highcharts-color-0"></g>
        <g style="outline: none;" aria-label="Female, bar series 2 of 2 with 18 bars. X axis, Age (male)." tabindex="-1" role="region" aria-hidden="false" clip-path="url(#highcharts-uudy8sb-116-)" transform="translate(59,68) rotate(90 119.5 362.5) scale(-1 1)" opacity="1" data-z-index="0.1" class="highcharts-series highcharts-series-1 highcharts-bar-series highcharts-color-1">
            <path style="outline: none;" aria-label="1. Age 0-4, 1.35%. Female." role="img" tabindex="-1" class="highcharts-point highcharts-color-1" filter="none" opacity="1" stroke-width="1" stroke="#ffffff" d="M 7 159.5 L 7 159.5 A 3.5 3.5 0 0 1 10.5 163 L 10.5 219.5 A 0 0 0 0 1 10.5 219.5 L 3.5 219.5 A 0 0 0 0 1 3.5 219.5 L 3.5 163 A 3.5 3.5 0 0 1 7 159.5 Z" fill="#544fc5"></path>
            <path style="outline: none;" aria-label="2. Age 5-9, 1.98%. Female." role="img" tabindex="-1" class="highcharts-point highcharts-color-1" filter="none" opacity="1" stroke-width="1" stroke="#ffffff" d="M 21 132.5 L 21 132.5 A 3.5 3.5 0 0 1 24.5 136 L 24.5 219.5 A 0 0 0 0 1 24.5 219.5 L 17.5 219.5 A 0 0 0 0 1 17.5 219.5 L 17.5 136 A 3.5 3.5 0 0 1 21 132.5 Z" fill="#544fc5"></path>
            <path style="outline: none;" aria-label="3. Age 10-14, 2.43%. Female." role="img" tabindex="-1" class="highcharts-point highcharts-color-1" filter="none" opacity="1" stroke-width="1" stroke="#ffffff" d="M 34 112.5 L 34 112.5 A 3.5 3.5 0 0 1 37.5 116 L 37.5 219.5 A 0 0 0 0 1 37.5 219.5 L 30.5 219.5 A 0 0 0 0 1 30.5 219.5 L 30.5 116 A 3.5 3.5 0 0 1 34 112.5 Z" fill="#544fc5"></path>
            <path style="outline: none;" aria-label="4. Age 15-19, 2.39%. Female." role="img" tabindex="-1" class="highcharts-point highcharts-color-1" filter="none" opacity="1" stroke-width="1" stroke="#ffffff" d="M 48 114.5 L 48 114.5 A 3.5 3.5 0 0 1 51.5 118 L 51.5 219.5 A 0 0 0 0 1 51.5 219.5 L 44.5 219.5 A 0 0 0 0 1 44.5 219.5 L 44.5 118 A 3.5 3.5 0 0 1 48 114.5 Z" fill="#544fc5"></path>
            <path style="outline: none;" aria-label="5. Age 20-24, 2.71%. Female." role="img" tabindex="-1" class="highcharts-point highcharts-color-1" filter="none" opacity="1" stroke-width="1" stroke="#ffffff" d="M 61 100.5 L 61 100.5 A 3.5 3.5 0 0 1 64.5 104 L 64.5 219.5 A 0 0 0 0 1 64.5 219.5 L 57.5 219.5 A 0 0 0 0 1 57.5 219.5 L 57.5 104 A 3.5 3.5 0 0 1 61 100.5 Z" fill="#544fc5"></path>
            <path style="outline: none;" aria-label="6. Age 25-29, 3.02%. Female." role="img" tabindex="-1" class="highcharts-point highcharts-color-1" filter="none" opacity="1" stroke-width="1" stroke="#ffffff" d="M 75 86.5 L 75 86.5 A 3.5 3.5 0 0 1 78.5 90 L 78.5 219.5 A 0 0 0 0 1 78.5 219.5 L 71.5 219.5 A 0 0 0 0 1 71.5 219.5 L 71.5 90 A 3.5 3.5 0 0 1 75 86.5 Z" fill="#544fc5"></path>
            <path style="outline: none;" aria-label="7. Age 30-34, 3.5%. Female." role="img" tabindex="-1" class="highcharts-point highcharts-color-1" filter="none" opacity="1" stroke-width="1" stroke="#ffffff" d="M 88 65.5 L 88 65.5 A 3.5 3.5 0 0 1 91.5 69 L 91.5 219.5 A 0 0 0 0 1 91.5 219.5 L 84.5 219.5 A 0 0 0 0 1 84.5 219.5 L 84.5 69 A 3.5 3.5 0 0 1 88 65.5 Z" fill="#544fc5"></path>
            <path style="outline: none;" aria-label="8. Age 35-40, 3.52%. Female." role="img" tabindex="-1" class="highcharts-point highcharts-color-1" filter="none" opacity="1" stroke-width="1" stroke="#ffffff" d="M 102 64.5 L 102 64.5 A 3.5 3.5 0 0 1 105.5 68 L 105.5 219.5 A 0 0 0 0 1 105.5 219.5 L 98.5 219.5 A 0 0 0 0 1 98.5 219.5 L 98.5 68 A 3.5 3.5 0 0 1 102 64.5 Z" fill="#544fc5"></path>
            <path style="outline: none;" aria-label="9. Age 40-45, 4.03%. Female." role="img" tabindex="-1" class="highcharts-point highcharts-color-1" filter="none" opacity="1" stroke-width="1" stroke="#ffffff" d="M 115 42.5 L 115 42.5 A 3.5 3.5 0 0 1 118.5 46 L 118.5 219.5 A 0 0 0 0 1 118.5 219.5 L 111.5 219.5 A 0 0 0 0 1 111.5 219.5 L 111.5 46 A 3.5 3.5 0 0 1 115 42.5 Z" fill="#544fc5"></path>
            <path style="outline: none;" aria-label="10. Age 45-49, 4.4%. Female." role="img" tabindex="-1" class="highcharts-point highcharts-color-1" filter="none" opacity="1" stroke-width="1" stroke="#ffffff" d="M 129 26.5 L 129 26.5 A 3.5 3.5 0 0 1 132.5 30 L 132.5 219.5 A 0 0 0 0 1 132.5 219.5 L 125.5 219.5 A 0 0 0 0 1 125.5 219.5 L 125.5 30 A 3.5 3.5 0 0 1 129 26.5 Z" fill="#544fc5"></path>
            <path style="outline: none;" aria-label="11. Age 50-54, 4.17%. Female." role="img" tabindex="-1" class="highcharts-point highcharts-color-1" filter="none" opacity="1" stroke-width="1" stroke="#ffffff" d="M 142 36.5 L 142 36.5 A 3.5 3.5 0 0 1 145.5 40 L 145.5 219.5 A 0 0 0 0 1 145.5 219.5 L 138.5 219.5 A 0 0 0 0 1 138.5 219.5 L 138.5 40 A 3.5 3.5 0 0 1 142 36.5 Z" fill="#544fc5"></path>
            <path style="outline: none;" aria-label="12. Age 55-59, 3.88%. Female." role="img" tabindex="-1" class="highcharts-point highcharts-color-1" filter="none" opacity="1" stroke-width="1" stroke="#ffffff" d="M 156 49.5 L 156 49.5 A 3.5 3.5 0 0 1 159.5 53 L 159.5 219.5 A 0 0 0 0 1 159.5 219.5 L 152.5 219.5 A 0 0 0 0 1 152.5 219.5 L 152.5 53 A 3.5 3.5 0 0 1 156 49.5 Z" fill="#544fc5"></path>
            <path style="outline: none;" aria-label="13. Age 60-64, 3.29%. Female." role="img" tabindex="-1" class="highcharts-point highcharts-color-1" filter="none" opacity="1" stroke-width="1" stroke="#ffffff" d="M 169 74.5 L 169 74.5 A 3.5 3.5 0 0 1 172.5 78 L 172.5 219.5 A 0 0 0 0 1 172.5 219.5 L 165.5 219.5 A 0 0 0 0 1 165.5 219.5 L 165.5 78 A 3.5 3.5 0 0 1 169 74.5 Z" fill="#544fc5"></path>
            <path style="outline: none;" aria-label="14. Age 65-69, 2.42%. Female." role="img" tabindex="-1" class="highcharts-point highcharts-color-1" filter="none" opacity="1" stroke-width="1" stroke="#ffffff" d="M 183 113.5 L 183 113.5 A 3.5 3.5 0 0 1 186.5 117 L 186.5 219.5 A 0 0 0 0 1 186.5 219.5 L 179.5 219.5 A 0 0 0 0 1 179.5 219.5 L 179.5 117 A 3.5 3.5 0 0 1 183 113.5 Z" fill="#544fc5"></path>
            <path style="outline: none;" aria-label="15. Age 70-74, 1.8%. Female." role="img" tabindex="-1" class="highcharts-point highcharts-color-1" filter="none" opacity="1" stroke-width="1" stroke="#ffffff" d="M 196 140.5 L 196 140.5 A 3.5 3.5 0 0 1 199.5 144 L 199.5 219.5 A 0 0 0 0 1 199.5 219.5 L 192.5 219.5 A 0 0 0 0 1 192.5 219.5 L 192.5 144 A 3.5 3.5 0 0 1 196 140.5 Z" fill="#544fc5"></path>
            <path style="outline: none;" aria-label="16. Age 75-79, 1.39%. Female." role="img" tabindex="-1" class="highcharts-point highcharts-color-1" filter="none" opacity="1" stroke-width="1" stroke="#ffffff" d="M 210 158.5 L 210 158.5 A 3.5 3.5 0 0 1 213.5 162 L 213.5 219.5 A 0 0 0 0 1 213.5 219.5 L 206.5 219.5 A 0 0 0 0 1 206.5 219.5 L 206.5 162 A 3.5 3.5 0 0 1 210 158.5 Z" fill="#544fc5"></path>
            <path style="outline: none;" aria-label="17. Age 80-84, 0.99%. Female." role="img" tabindex="-1" class="highcharts-point highcharts-color-1" filter="none" opacity="1" stroke-width="1" stroke="#ffffff" d="M 223 175.5 L 223 175.5 A 3.5 3.5 0 0 1 226.5 179 L 226.5 219.5 A 0 0 0 0 1 226.5 219.5 L 219.5 219.5 A 0 0 0 0 1 219.5 219.5 L 219.5 179 A 3.5 3.5 0 0 1 223 175.5 Z" fill="#544fc5"></path>
            <path style="outline: none;" aria-label="18. Age 80+, 1.15%. Female." role="img" tabindex="-1" class="highcharts-point highcharts-color-1" filter="none" opacity="1" stroke-width="1" stroke="#ffffff" d="M 237 168.5 L 237 168.5 A 3.5 3.5 0 0 1 240.5 172 L 240.5 219.5 A 0 0 0 0 1 240.5 219.5 L 233.5 219.5 A 0 0 0 0 1 233.5 219.5 L 233.5 172 A 3.5 3.5 0 0 1 237 168.5 Z" fill="#544fc5"></path>
        </g>
        <g aria-hidden="true" clip-path="none" transform="translate(59,68) scale(1 1)" opacity="1" data-z-index="0.1" class="highcharts-markers highcharts-series-1 highcharts-bar-series highcharts-color-1"></g>
    </g><text aria-hidden="true" transform="translate(0,0) scale(1 1)" transform-origin="182.67361450195312 22" text-anchor="middle" y="25" style="font-size: 1.2em; color: rgb(51, 51, 51); font-weight: bold; fill: rgb(51, 51, 51);" data-z-index="4" class="highcharts-title" x="300">Population pyramid for Andorra, 2023</text><text aria-hidden="true" transform="translate(0,0) scale(1 1)" transform-origin="93.57218170166016 15" text-anchor="middle" y="50" style="color: rgb(102, 102, 102); font-size: 0.8em; fill: rgb(102, 102, 102);" data-z-index="4" class="highcharts-subtitle" x="300">Source: <a>
            <tspan>countryeconomy.com</tspan>
        </a></text><text aria-hidden="true" transform="translate(0,0) scale(1 1)" transform-origin="10 15" y="397" style="color: rgb(102, 102, 102); font-size: 0.8em; fill: rgb(102, 102, 102);" data-z-index="4" class="highcharts-caption" text-anchor="start" x="10"></text>
    <g aria-hidden="true" transform="translate(226,355)" data-z-index="7" class="highcharts-legend highcharts-no-tooltip">
        <rect height="30" width="148" y="0" x="0" filter="none" stroke-width="0" stroke="#999999" ry="0" rx="0" class="highcharts-legend-box" fill="none"></rect>
        <g data-z-index="1">
            <g>
                <g transform="translate(8,3)" data-z-index="1" class="highcharts-legend-item highcharts-bar-series highcharts-color-0 highcharts-series-0"><text y="17" style="color: rgb(51, 51, 51); cursor: pointer; font-size: 0.8em; text-decoration: none; fill: rgb(51, 51, 51);" data-z-index="2" text-anchor="start" x="21">Male</text>
                    <rect data-z-index="3" class="highcharts-point" fill="#2caffe" height="12" width="12" ry="6" rx="6" y="6" x="2"></rect>
                </g>
                <g transform="translate(77.8840103149414,3)" data-z-index="1" class="highcharts-legend-item highcharts-bar-series highcharts-color-1 highcharts-series-1"><text style="color: rgb(51, 51, 51); cursor: pointer; font-size: 0.8em; text-decoration: none; fill: rgb(51, 51, 51);" data-z-index="2" text-anchor="start" y="17" x="21">Female</text>
                    <rect data-z-index="3" class="highcharts-point" fill="#544fc5" height="12" width="12" ry="6" rx="6" y="6" x="2"></rect>
                </g>
            </g>
        </g>
    </g>
    <g aria-hidden="true" data-z-index="7" class="highcharts-axis-labels highcharts-yaxis-labels"><text opacity="1" y="338" transform="translate(0,0)" text-anchor="middle" style="color: rgb(51, 51, 51); cursor: default; font-size: 0.8em; fill: rgb(51, 51, 51);" x="59">6%</text><text opacity="1" y="338" transform="translate(0,0)" text-anchor="middle" style="color: rgb(51, 51, 51); cursor: default; font-size: 0.8em; fill: rgb(51, 51, 51);" x="102.81818181818">5%</text><text opacity="1" y="338" transform="translate(0,0)" text-anchor="middle" style="color: rgb(51, 51, 51); cursor: default; font-size: 0.8em; fill: rgb(51, 51, 51);" x="146.63636363636">4%</text><text opacity="1" y="338" transform="translate(0,0)" text-anchor="middle" style="color: rgb(51, 51, 51); cursor: default; font-size: 0.8em; fill: rgb(51, 51, 51);" x="190.45454545455">3%</text><text opacity="1" y="338" transform="translate(0,0)" text-anchor="middle" style="color: rgb(51, 51, 51); cursor: default; font-size: 0.8em; fill: rgb(51, 51, 51);" x="234.27272727273">2%</text><text opacity="1" y="338" transform="translate(0,0)" text-anchor="middle"
            style="color: rgb(51, 51, 51); cursor: default; font-size: 0.8em; fill: rgb(51, 51, 51);" x="278.09090909091">1%</text><text opacity="1" y="338" transform="translate(0,0)" text-anchor="middle" style="color: rgb(51, 51, 51); cursor: default; font-size: 0.8em; fill: rgb(51, 51, 51);" x="321.90909090909">0%</text><text opacity="1" y="338" transform="translate(0,0)" text-anchor="middle" style="color: rgb(51, 51, 51); cursor: default; font-size: 0.8em; fill: rgb(51, 51, 51);" x="365.72727272727">1%</text><text opacity="1" y="338" transform="translate(0,0)" text-anchor="middle" style="color: rgb(51, 51, 51); cursor: default; font-size: 0.8em; fill: rgb(51, 51, 51);" x="409.54545454545">2%</text><text opacity="1" y="338" transform="translate(0,0)" text-anchor="middle" style="color: rgb(51, 51, 51); cursor: default; font-size: 0.8em; fill: rgb(51, 51, 51);" x="453.36363636364">3%</text><text opacity="1" y="338" transform="translate(0,0)" text-anchor="middle" style="color: rgb(51, 51, 51); cursor: default; font-size: 0.8em; fill: rgb(51, 51, 51);" x="497.18181818182">4%</text><text opacity="1" y="338" transform="translate(0,0)" text-anchor="middle"
            style="color: rgb(51, 51, 51); cursor: default; font-size: 0.8em; fill: rgb(51, 51, 51);" x="541">5%</text></g>
    <g aria-hidden="true" data-z-index="7" class="highcharts-axis-labels highcharts-xaxis-labels"><text opacity="1" y="308" transform="translate(0,0)" text-anchor="end" style="color: rgb(51, 51, 51); cursor: default; font-size: 0.8em; fill: rgb(51, 51, 51);" x="44">0-4</text><text opacity="1" y="294" transform="translate(0,0)" text-anchor="end" style="color: rgb(51, 51, 51); cursor: default; font-size: 0.8em; fill: rgb(51, 51, 51);" x="44">5-9</text><text opacity="1" y="281" transform="translate(0,0)" text-anchor="end" style="color: rgb(51, 51, 51); cursor: default; font-size: 0.8em; fill: rgb(51, 51, 51);" x="44">10-14</text><text opacity="1" y="267" transform="translate(0,0)" text-anchor="end" style="color: rgb(51, 51, 51); cursor: default; font-size: 0.8em; fill: rgb(51, 51, 51);" x="44">15-19</text><text opacity="1" y="254" transform="translate(0,0)" text-anchor="end" style="color: rgb(51, 51, 51); cursor: default; font-size: 0.8em; fill: rgb(51, 51, 51);" x="44">20-24</text><text opacity="1" y="240" transform="translate(0,0)" text-anchor="end" style="color: rgb(51, 51, 51); cursor: default; font-size: 0.8em; fill: rgb(51, 51, 51);" x="44">25-29</text><text opacity="1" y="227"
            transform="translate(0,0)" text-anchor="end" style="color: rgb(51, 51, 51); cursor: default; font-size: 0.8em; fill: rgb(51, 51, 51);" x="44">30-34</text><text opacity="1" y="213" transform="translate(0,0)" text-anchor="end" style="color: rgb(51, 51, 51); cursor: default; font-size: 0.8em; fill: rgb(51, 51, 51);" x="44">35-40</text><text opacity="1" y="200" transform="translate(0,0)" text-anchor="end" style="color: rgb(51, 51, 51); cursor: default; font-size: 0.8em; fill: rgb(51, 51, 51);" x="44">40-45</text><text opacity="1" y="186" transform="translate(0,0)" text-anchor="end" style="color: rgb(51, 51, 51); cursor: default; font-size: 0.8em; fill: rgb(51, 51, 51);" x="44">45-49</text><text opacity="1" y="173" transform="translate(0,0)" text-anchor="end" style="color: rgb(51, 51, 51); cursor: default; font-size: 0.8em; fill: rgb(51, 51, 51);" x="44">50-54</text><text opacity="1" y="159" transform="translate(0,0)" text-anchor="end" style="color: rgb(51, 51, 51); cursor: default; font-size: 0.8em; fill: rgb(51, 51, 51);" x="44">55-59</text><text opacity="1" y="146" transform="translate(0,0)" text-anchor="end"
            style="color: rgb(51, 51, 51); cursor: default; font-size: 0.8em; fill: rgb(51, 51, 51);" x="44">60-64</text><text opacity="1" y="132" transform="translate(0,0)" text-anchor="end" style="color: rgb(51, 51, 51); cursor: default; font-size: 0.8em; fill: rgb(51, 51, 51);" x="44">65-69</text><text opacity="1" y="119" transform="translate(0,0)" text-anchor="end" style="color: rgb(51, 51, 51); cursor: default; font-size: 0.8em; fill: rgb(51, 51, 51);" x="44">70-74</text><text opacity="1" y="105" transform="translate(0,0)" text-anchor="end" style="color: rgb(51, 51, 51); cursor: default; font-size: 0.8em; fill: rgb(51, 51, 51);" x="44">75-79</text><text opacity="1" y="92" transform="translate(0,0)" text-anchor="end" style="color: rgb(51, 51, 51); cursor: default; font-size: 0.8em; fill: rgb(51, 51, 51);" x="44">80-84</text><text opacity="1" y="78" transform="translate(0,0)" text-anchor="end" style="color: rgb(51, 51, 51); cursor: default; font-size: 0.8em; fill: rgb(51, 51, 51);" x="44">80+</text></g>
    <g aria-hidden="true" data-z-index="7" class="highcharts-axis-labels highcharts-xaxis-labels"><text opacity="1" y="308" transform="translate(0,0)" text-anchor="start" style="color: rgb(51, 51, 51); cursor: default; font-size: 0.8em; fill: rgb(51, 51, 51);" x="556">0-4</text><text opacity="1" y="294" transform="translate(0,0)" text-anchor="start" style="color: rgb(51, 51, 51); cursor: default; font-size: 0.8em; fill: rgb(51, 51, 51);" x="556">5-9</text><text opacity="1" y="281" transform="translate(0,0)" text-anchor="start" style="color: rgb(51, 51, 51); cursor: default; font-size: 0.8em; fill: rgb(51, 51, 51);" x="556">10-14</text><text opacity="1" y="267" transform="translate(0,0)" text-anchor="start" style="color: rgb(51, 51, 51); cursor: default; font-size: 0.8em; fill: rgb(51, 51, 51);" x="556">15-19</text><text opacity="1" y="254" transform="translate(0,0)" text-anchor="start" style="color: rgb(51, 51, 51); cursor: default; font-size: 0.8em; fill: rgb(51, 51, 51);" x="556">20-24</text><text opacity="1" y="240" transform="translate(0,0)" text-anchor="start" style="color: rgb(51, 51, 51); cursor: default; font-size: 0.8em; fill: rgb(51, 51, 51);" x="556">25-29</text><text
            opacity="1" y="227" transform="translate(0,0)" text-anchor="start" style="color: rgb(51, 51, 51); cursor: default; font-size: 0.8em; fill: rgb(51, 51, 51);" x="556">30-34</text><text opacity="1" y="213" transform="translate(0,0)" text-anchor="start" style="color: rgb(51, 51, 51); cursor: default; font-size: 0.8em; fill: rgb(51, 51, 51);" x="556">35-40</text><text opacity="1" y="200" transform="translate(0,0)" text-anchor="start" style="color: rgb(51, 51, 51); cursor: default; font-size: 0.8em; fill: rgb(51, 51, 51);" x="556">40-45</text><text opacity="1" y="186" transform="translate(0,0)" text-anchor="start" style="color: rgb(51, 51, 51); cursor: default; font-size: 0.8em; fill: rgb(51, 51, 51);" x="556">45-49</text><text opacity="1" y="173" transform="translate(0,0)" text-anchor="start" style="color: rgb(51, 51, 51); cursor: default; font-size: 0.8em; fill: rgb(51, 51, 51);" x="556">50-54</text><text opacity="1" y="159" transform="translate(0,0)" text-anchor="start" style="color: rgb(51, 51, 51); cursor: default; font-size: 0.8em; fill: rgb(51, 51, 51);" x="556">55-59</text><text opacity="1" y="146" transform="translate(0,0)" text-anchor="start"
            style="color: rgb(51, 51, 51); cursor: default; font-size: 0.8em; fill: rgb(51, 51, 51);" x="556">60-64</text><text opacity="1" y="132" transform="translate(0,0)" text-anchor="start" style="color: rgb(51, 51, 51); cursor: default; font-size: 0.8em; fill: rgb(51, 51, 51);" x="556">65-69</text><text opacity="1" y="119" transform="translate(0,0)" text-anchor="start" style="color: rgb(51, 51, 51); cursor: default; font-size: 0.8em; fill: rgb(51, 51, 51);" x="556">70-74</text><text opacity="1" y="105" transform="translate(0,0)" text-anchor="start" style="color: rgb(51, 51, 51); cursor: default; font-size: 0.8em; fill: rgb(51, 51, 51);" x="556">75-79</text><text opacity="1" y="92" transform="translate(0,0)" text-anchor="start" style="color: rgb(51, 51, 51); cursor: default; font-size: 0.8em; fill: rgb(51, 51, 51);" x="556">80-84</text><text opacity="1" y="78" transform="translate(0,0)" text-anchor="start" style="color: rgb(51, 51, 51); cursor: default; font-size: 0.8em; fill: rgb(51, 51, 51);" x="556">80+</text></g><text aria-hidden="false" aria-label="Chart credits: Highcharts.com"
        style="cursor: pointer; color: rgb(153, 153, 153); font-size: 0.6em; fill: rgb(153, 153, 153);" y="395" data-z-index="8" text-anchor="end" class="highcharts-credits" x="590">Highcharts.com</text>
</svg>