<svg xmlns="http://www.w3.org/2000/svg" xmlns:xlink="http://www.w3.org/1999/xlink" version="1.1" baseProfile="full" width="1486" height="1274" style="position: absolute; left: 0px; top: 0px; user-select: none;">
    <g>
        <path d="M148.6 764.4l1188.8 0l0 -91l-1188.8 0Z" fill="rgb(250,250,250)" fill-opacity="0.2"></path>
        <path d="M148.6 673.4l1188.8 0l0 -91l-1188.8 0Z" fill="rgb(210,219,238)" fill-opacity="0.2"></path>
        <path d="M148.6 582.4l1188.8 0l0 -91l-1188.8 0Z" fill="rgb(250,250,250)" fill-opacity="0.2"></path>
        <path d="M148.6 491.4l1188.8 0l0 -91l-1188.8 0Z" fill="rgb(210,219,238)" fill-opacity="0.2"></path>
        <path d="M148.6 400.4l1188.8 0l0 -91l-1188.8 0Z" fill="rgb(250,250,250)" fill-opacity="0.2"></path>
        <path d="M148.6 309.4l1188.8 0l0 -91l-1188.8 0Z" fill="rgb(210,219,238)" fill-opacity="0.2"></path>
        <path d="M148.6 218.4l1188.8 0l0 -91l-1188.8 0Z" fill="rgb(250,250,250)" fill-opacity="0.2"></path>
        <path d="M148.6 127.4l49.5333 0l0 637l-49.5333 0Z" fill="rgb(250,250,250)" fill-opacity="0.2"></path>
        <path d="M198.1333 127.4l49.5333 0l0 637l-49.5333 0Z" fill="rgb(210,219,238)" fill-opacity="0.2"></path>
        <path d="M247.6667 127.4l49.5333 0l0 637l-49.5333 0Z" fill="rgb(250,250,250)" fill-opacity="0.2"></path>
        <path d="M297.2 127.4l49.5333 0l0 637l-49.5333 0Z" fill="rgb(210,219,238)" fill-opacity="0.2"></path>
        <path d="M346.7333 127.4l49.5333 0l0 637l-49.5333 0Z" fill="rgb(250,250,250)" fill-opacity="0.2"></path>
        <path d="M396.2667 127.4l49.5333 0l0 637l-49.5333 0Z" fill="rgb(210,219,238)" fill-opacity="0.2"></path>
        <path d="M445.8 127.4l49.5333 0l0 637l-49.5333 0Z" fill="rgb(250,250,250)" fill-opacity="0.2"></path>
        <path d="M495.3333 127.4l49.5333 0l0 637l-49.5333 0Z" fill="rgb(210,219,238)" fill-opacity="0.2"></path>
        <path d="M544.8667 127.4l49.5333 0l0 637l-49.5333 0Z" fill="rgb(250,250,250)" fill-opacity="0.2"></path>
        <path d="M594.4 127.4l49.5333 0l0 637l-49.5333 0Z" fill="rgb(210,219,238)" fill-opacity="0.2"></path>
        <path d="M643.9333 127.4l49.5333 0l0 637l-49.5333 0Z" fill="rgb(250,250,250)" fill-opacity="0.2"></path>
        <path d="M693.4667 127.4l49.5333 0l0 637l-49.5333 0Z" fill="rgb(210,219,238)" fill-opacity="0.2"></path>
        <path d="M743 127.4l49.5333 0l0 637l-49.5333 0Z" fill="rgb(250,250,250)" fill-opacity="0.2"></path>
        <path d="M792.5333 127.4l49.5333 0l0 637l-49.5333 0Z" fill="rgb(210,219,238)" fill-opacity="0.2"></path>
        <path d="M842.0667 127.4l49.5333 0l0 637l-49.5333 0Z" fill="rgb(250,250,250)" fill-opacity="0.2"></path>
        <path d="M891.6 127.4l49.5333 0l0 637l-49.5333 0Z" fill="rgb(210,219,238)" fill-opacity="0.2"></path>
        <path d="M941.1333 127.4l49.5333 0l0 637l-49.5333 0Z" fill="rgb(250,250,250)" fill-opacity="0.2"></path>
        <path d="M990.6667 127.4l49.5333 0l0 637l-49.5333 0Z" fill="rgb(210,219,238)" fill-opacity="0.2"></path>
        <path d="M1040.2 127.4l49.5333 0l0 637l-49.5333 0Z" fill="rgb(250,250,250)" fill-opacity="0.2"></path>
        <path d="M1089.7333 127.4l49.5333 0l0 637l-49.5333 0Z" fill="rgb(210,219,238)" fill-opacity="0.2"></path>
        <path d="M1139.2667 127.4l49.5333 0l0 637l-49.5333 0Z" fill="rgb(250,250,250)" fill-opacity="0.2"></path>
        <path d="M1188.8 127.4l49.5333 0l0 637l-49.5333 0Z" fill="rgb(210,219,238)" fill-opacity="0.2"></path>
        <path d="M1238.3333 127.4l49.5333 0l0 637l-49.5333 0Z" fill="rgb(250,250,250)" fill-opacity="0.2"></path>
        <path d="M1287.8667 127.4l49.5333 0l0 637l-49.5333 0Z" fill="rgb(210,219,238)" fill-opacity="0.2"></path>
        <path d="M148.5 764.4L148.5 127.4" fill="none" stroke="#6E7079" stroke-linecap="round"></path>
        <path d="M148.6 764.5L1337.4 764.5" fill="none" stroke="#6E7079" stroke-linecap="round"></path>
        <path d="M148.6 764.5L143.6 764.5" fill="none" stroke="#6E7079"></path>
        <path d="M148.6 673.5L143.6 673.5" fill="none" stroke="#6E7079"></path>
        <path d="M148.6 582.5L143.6 582.5" fill="none" stroke="#6E7079"></path>
        <path d="M148.6 491.5L143.6 491.5" fill="none" stroke="#6E7079"></path>
        <path d="M148.6 400.5L143.6 400.5" fill="none" stroke="#6E7079"></path>
        <path d="M148.6 309.5L143.6 309.5" fill="none" stroke="#6E7079"></path>
        <path d="M148.6 218.5L143.6 218.5" fill="none" stroke="#6E7079"></path>
        <path d="M148.6 127.5L143.6 127.5" fill="none" stroke="#6E7079"></path>
        <path d="M148.5 764.4L148.5 769.4" fill="none" stroke="#6E7079"></path>
        <path d="M198.5 764.4L198.5 769.4" fill="none" stroke="#6E7079"></path>
        <path d="M247.5 764.4L247.5 769.4" fill="none" stroke="#6E7079"></path>
        <path d="M297.5 764.4L297.5 769.4" fill="none" stroke="#6E7079"></path>
        <path d="M346.5 764.4L346.5 769.4" fill="none" stroke="#6E7079"></path>
        <path d="M396.5 764.4L396.5 769.4" fill="none" stroke="#6E7079"></path>
        <path d="M446.5 764.4L446.5 769.4" fill="none" stroke="#6E7079"></path>
        <path d="M495.5 764.4L495.5 769.4" fill="none" stroke="#6E7079"></path>
        <path d="M545.5 764.4L545.5 769.4" fill="none" stroke="#6E7079"></path>
        <path d="M594.5 764.4L594.5 769.4" fill="none" stroke="#6E7079"></path>
        <path d="M644.5 764.4L644.5 769.4" fill="none" stroke="#6E7079"></path>
        <path d="M693.5 764.4L693.5 769.4" fill="none" stroke="#6E7079"></path>
        <path d="M743.5 764.4L743.5 769.4" fill="none" stroke="#6E7079"></path>
        <path d="M792.5 764.4L792.5 769.4" fill="none" stroke="#6E7079"></path>
        <path d="M842.5 764.4L842.5 769.4" fill="none" stroke="#6E7079"></path>
        <path d="M891.5 764.4L891.5 769.4" fill="none" stroke="#6E7079"></path>
        <path d="M941.5 764.4L941.5 769.4" fill="none" stroke="#6E7079"></path>
        <path d="M990.5 764.4L990.5 769.4" fill="none" stroke="#6E7079"></path>
        <path d="M1040.5 764.4L1040.5 769.4" fill="none" stroke="#6E7079"></path>
        <path d="M1089.5 764.4L1089.5 769.4" fill="none" stroke="#6E7079"></path>
        <path d="M1139.5 764.4L1139.5 769.4" fill="none" stroke="#6E7079"></path>
        <path d="M1189.5 764.4L1189.5 769.4" fill="none" stroke="#6E7079"></path>
        <path d="M1238.5 764.4L1238.5 769.4" fill="none" stroke="#6E7079"></path>
        <path d="M1288.5 764.4L1288.5 769.4" fill="none" stroke="#6E7079"></path>
        <path d="M1337.5 764.4L1337.5 769.4" fill="none" stroke="#6E7079"></path><text dominant-baseline="central" text-anchor="end" transform="translate(140.6 718.9)" fill="#6E7079" style="font-size: 12px; font-family: &quot;Microsoft YaHei&quot;;">Saturday</text><text dominant-baseline="central" text-anchor="end" transform="translate(140.6 627.9)" fill="#6E7079" style="font-size: 12px; font-family: &quot;Microsoft YaHei&quot;;">Friday</text><text dominant-baseline="central" text-anchor="end" transform="translate(140.6 536.9)" fill="#6E7079" style="font-size: 12px; font-family: &quot;Microsoft YaHei&quot;;">Thursday</text><text dominant-baseline="central" text-anchor="end" transform="translate(140.6 445.9)" fill="#6E7079" style="font-size: 12px; font-family: &quot;Microsoft YaHei&quot;;">Wednesday</text><text dominant-baseline="central" text-anchor="end" transform="translate(140.6 354.9)" fill="#6E7079" style="font-size: 12px; font-family: &quot;Microsoft YaHei&quot;;">Tuesday</text><text dominant-baseline="central" text-anchor="end" transform="translate(140.6 263.9)" fill="#6E7079" style="font-size: 12px; font-family: &quot;Microsoft YaHei&quot;;">Monday</text><text
            dominant-baseline="central" text-anchor="end" transform="translate(140.6 172.9)" fill="#6E7079" style="font-size: 12px; font-family: &quot;Microsoft YaHei&quot;;">Sunday</text><text dominant-baseline="central" text-anchor="middle" y="6" transform="translate(173.3667 772.4)" fill="#6E7079" style="font-size: 12px; font-family: &quot;Microsoft YaHei&quot;;">12a</text><text dominant-baseline="central" text-anchor="middle" y="6" transform="translate(222.9 772.4)" fill="#6E7079" style="font-size: 12px; font-family: &quot;Microsoft YaHei&quot;;">1a</text><text dominant-baseline="central" text-anchor="middle" y="6" transform="translate(272.4333 772.4)" fill="#6E7079" style="font-size: 12px; font-family: &quot;Microsoft YaHei&quot;;">2a</text><text dominant-baseline="central" text-anchor="middle" y="6" transform="translate(321.9667 772.4)" fill="#6E7079" style="font-size: 12px; font-family: &quot;Microsoft YaHei&quot;;">3a</text><text dominant-baseline="central" text-anchor="middle" y="6" transform="translate(371.5 772.4)" fill="#6E7079" style="font-size: 12px; font-family: &quot;Microsoft YaHei&quot;;">4a</text><text dominant-baseline="central" text-anchor="middle" y="6"
            transform="translate(421.0333 772.4)" fill="#6E7079" style="font-size: 12px; font-family: &quot;Microsoft YaHei&quot;;">5a</text><text dominant-baseline="central" text-anchor="middle" y="6" transform="translate(470.5667 772.4)" fill="#6E7079" style="font-size: 12px; font-family: &quot;Microsoft YaHei&quot;;">6a</text><text dominant-baseline="central" text-anchor="middle" y="6" transform="translate(520.1 772.4)" fill="#6E7079" style="font-size: 12px; font-family: &quot;Microsoft YaHei&quot;;">7a</text><text dominant-baseline="central" text-anchor="middle" y="6" transform="translate(569.6333 772.4)" fill="#6E7079" style="font-size: 12px; font-family: &quot;Microsoft YaHei&quot;;">8a</text><text dominant-baseline="central" text-anchor="middle" y="6" transform="translate(619.1667 772.4)" fill="#6E7079" style="font-size: 12px; font-family: &quot;Microsoft YaHei&quot;;">9a</text><text dominant-baseline="central" text-anchor="middle" y="6" transform="translate(668.7 772.4)" fill="#6E7079" style="font-size: 12px; font-family: &quot;Microsoft YaHei&quot;;">10a</text><text dominant-baseline="central" text-anchor="middle" y="6" transform="translate(718.2333 772.4)" fill="#6E7079"
            style="font-size: 12px; font-family: &quot;Microsoft YaHei&quot;;">11a</text><text dominant-baseline="central" text-anchor="middle" y="6" transform="translate(767.7667 772.4)" fill="#6E7079" style="font-size: 12px; font-family: &quot;Microsoft YaHei&quot;;">12p</text><text dominant-baseline="central" text-anchor="middle" y="6" transform="translate(817.3 772.4)" fill="#6E7079" style="font-size: 12px; font-family: &quot;Microsoft YaHei&quot;;">1p</text><text dominant-baseline="central" text-anchor="middle" y="6" transform="translate(866.8333 772.4)" fill="#6E7079" style="font-size: 12px; font-family: &quot;Microsoft YaHei&quot;;">2p</text><text dominant-baseline="central" text-anchor="middle" y="6" transform="translate(916.3667 772.4)" fill="#6E7079" style="font-size: 12px; font-family: &quot;Microsoft YaHei&quot;;">3p</text><text dominant-baseline="central" text-anchor="middle" y="6" transform="translate(965.9 772.4)" fill="#6E7079" style="font-size: 12px; font-family: &quot;Microsoft YaHei&quot;;">4p</text><text dominant-baseline="central" text-anchor="middle" y="6" transform="translate(1015.4333 772.4)" fill="#6E7079"
            style="font-size: 12px; font-family: &quot;Microsoft YaHei&quot;;">5p</text><text dominant-baseline="central" text-anchor="middle" y="6" transform="translate(1064.9667 772.4)" fill="#6E7079" style="font-size: 12px; font-family: &quot;Microsoft YaHei&quot;;">6p</text><text dominant-baseline="central" text-anchor="middle" y="6" transform="translate(1114.5 772.4)" fill="#6E7079" style="font-size: 12px; font-family: &quot;Microsoft YaHei&quot;;">7p</text><text dominant-baseline="central" text-anchor="middle" y="6" transform="translate(1164.0333 772.4)" fill="#6E7079" style="font-size: 12px; font-family: &quot;Microsoft YaHei&quot;;">8p</text><text dominant-baseline="central" text-anchor="middle" y="6" transform="translate(1213.5667 772.4)" fill="#6E7079" style="font-size: 12px; font-family: &quot;Microsoft YaHei&quot;;">9p</text><text dominant-baseline="central" text-anchor="middle" y="6" transform="translate(1263.1 772.4)" fill="#6E7079" style="font-size: 12px; font-family: &quot;Microsoft YaHei&quot;;">10p</text><text dominant-baseline="central" text-anchor="middle" y="6" transform="translate(1312.6333 772.4)" fill="#6E7079"
            style="font-size: 12px; font-family: &quot;Microsoft YaHei&quot;;">11p</text>
        <path d="M148.35 673.15l50.0333 0l0 91.5l-50.0333 0Z" fill="rgb(216,130,115)"></path>
        <path d="M197.8833 673.15l50.0333 0l0 91.5l-50.0333 0Z" fill="rgb(240,217,156)"></path>
        <path d="M693.2167 673.15l50.0333 0l0 91.5l-50.0333 0Z" fill="rgb(234,195,146)"></path>
        <path d="M742.75 673.15l50.0333 0l0 91.5l-50.0333 0Z" fill="rgb(222,152,125)"></path>
        <path d="M792.2833 673.15l50.0333 0l0 91.5l-50.0333 0Z" fill="rgb(240,217,156)"></path>
        <path d="M841.8167 673.15l50.0333 0l0 91.5l-50.0333 0Z" fill="rgb(240,217,156)"></path>
        <path d="M891.35 673.15l50.0333 0l0 91.5l-50.0333 0Z" fill="rgb(228,174,135)"></path>
        <path d="M940.8833 673.15l50.0333 0l0 91.5l-50.0333 0Z" fill="rgb(222,152,125)"></path>
        <path d="M990.4167 673.15l50.0333 0l0 91.5l-50.0333 0Z" fill="rgb(211,118,107)"></path>
        <path d="M1039.95 673.15l50.0333 0l0 91.5l-50.0333 0Z" fill="rgb(222,152,125)"></path>
        <path d="M1089.4833 673.15l50.0333 0l0 91.5l-50.0333 0Z" fill="rgb(222,152,125)"></path>
        <path d="M1139.0167 673.15l50.0333 0l0 91.5l-50.0333 0Z" fill="rgb(228,174,135)"></path>
        <path d="M1188.55 673.15l50.0333 0l0 91.5l-50.0333 0Z" fill="rgb(228,174,135)"></path>
        <path d="M1238.0833 673.15l50.0333 0l0 91.5l-50.0333 0Z" fill="rgb(234,195,146)"></path>
        <path d="M1287.6167 673.15l50.0333 0l0 91.5l-50.0333 0Z" fill="rgb(216,130,115)"></path>
        <path d="M148.35 582.15l50.0333 0l0 91.5l-50.0333 0Z" fill="rgb(206,105,99)"></path>
        <path d="M643.6833 582.15l50.0333 0l0 91.5l-50.0333 0Z" fill="rgb(216,130,115)"></path>
        <path d="M693.2167 582.15l50.0333 0l0 91.5l-50.0333 0Z" fill="rgb(234,195,146)"></path>
        <path d="M742.75 582.15l50.0333 0l0 91.5l-50.0333 0Z" fill="rgb(234,195,146)"></path>
        <path d="M792.2833 582.15l50.0333 0l0 91.5l-50.0333 0Z" fill="rgb(211,118,107)"></path>
        <path d="M841.8167 582.15l50.0333 0l0 91.5l-50.0333 0Z" fill="rgb(196,80,84)"></path>
        <path d="M891.35 582.15l50.0333 0l0 91.5l-50.0333 0Z" fill="rgb(191,68,76)"></path>
        <path d="M940.8833 582.15l50.0333 0l0 91.5l-50.0333 0Z" fill="rgb(211,118,107)"></path>
        <path d="M990.4167 582.15l50.0333 0l0 91.5l-50.0333 0Z" fill="rgb(206,105,99)"></path>
        <path d="M1039.95 582.15l50.0333 0l0 91.5l-50.0333 0Z" fill="rgb(201,93,92)"></path>
        <path d="M1089.4833 582.15l50.0333 0l0 91.5l-50.0333 0Z" fill="rgb(191,68,76)"></path>
        <path d="M1139.0167 582.15l50.0333 0l0 91.5l-50.0333 0Z" fill="rgb(216,130,115)"></path>
        <path d="M1188.55 582.15l50.0333 0l0 91.5l-50.0333 0Z" fill="rgb(216,130,115)"></path>
        <path d="M1238.0833 582.15l50.0333 0l0 91.5l-50.0333 0Z" fill="rgb(206,105,99)"></path>
        <path d="M1287.6167 582.15l50.0333 0l0 91.5l-50.0333 0Z" fill="rgb(234,195,146)"></path>
        <path d="M148.35 491.15l50.0333 0l0 91.5l-50.0333 0Z" fill="rgb(240,217,156)"></path>
        <path d="M197.8833 491.15l50.0333 0l0 91.5l-50.0333 0Z" fill="rgb(240,217,156)"></path>
        <path d="M643.6833 491.15l50.0333 0l0 91.5l-50.0333 0Z" fill="rgb(228,174,135)"></path>
        <path d="M693.2167 491.15l50.0333 0l0 91.5l-50.0333 0Z" fill="rgb(234,195,146)"></path>
        <path d="M742.75 491.15l50.0333 0l0 91.5l-50.0333 0Z" fill="rgb(240,217,156)"></path>
        <path d="M792.2833 491.15l50.0333 0l0 91.5l-50.0333 0Z" fill="rgb(196,80,84)"></path>
        <path d="M841.8167 491.15l50.0333 0l0 91.5l-50.0333 0Z" fill="rgb(201,93,92)"></path>
        <path d="M891.35 491.15l50.0333 0l0 91.5l-50.0333 0Z" fill="rgb(191,68,76)"></path>
        <path d="M940.8833 491.15l50.0333 0l0 91.5l-50.0333 0Z" fill="rgb(211,118,107)"></path>
        <path d="M990.4167 491.15l50.0333 0l0 91.5l-50.0333 0Z" fill="rgb(216,130,115)"></path>
        <path d="M1039.95 491.15l50.0333 0l0 91.5l-50.0333 0Z" fill="rgb(216,130,115)"></path>
        <path d="M1089.4833 491.15l50.0333 0l0 91.5l-50.0333 0Z" fill="rgb(216,130,115)"></path>
        <path d="M1139.0167 491.15l50.0333 0l0 91.5l-50.0333 0Z" fill="rgb(206,105,99)"></path>
        <path d="M1188.55 491.15l50.0333 0l0 91.5l-50.0333 0Z" fill="rgb(222,152,125)"></path>
        <path d="M1238.0833 491.15l50.0333 0l0 91.5l-50.0333 0Z" fill="rgb(234,195,146)"></path>
        <path d="M1287.6167 491.15l50.0333 0l0 91.5l-50.0333 0Z" fill="rgb(222,152,125)"></path>
        <path d="M148.35 400.15l50.0333 0l0 91.5l-50.0333 0Z" fill="rgb(206,105,99)"></path>
        <path d="M197.8833 400.15l50.0333 0l0 91.5l-50.0333 0Z" fill="rgb(228,174,135)"></path>
        <path d="M544.6167 400.15l50.0333 0l0 91.5l-50.0333 0Z" fill="rgb(240,217,156)"></path>
        <path d="M643.6833 400.15l50.0333 0l0 91.5l-50.0333 0Z" fill="rgb(216,130,115)"></path>
        <path d="M693.2167 400.15l50.0333 0l0 91.5l-50.0333 0Z" fill="rgb(222,152,125)"></path>
        <path d="M742.75 400.15l50.0333 0l0 91.5l-50.0333 0Z" fill="rgb(206,105,99)"></path>
        <path d="M792.2833 400.15l50.0333 0l0 91.5l-50.0333 0Z" fill="rgb(191,68,76)"></path>
        <path d="M841.8167 400.15l50.0333 0l0 91.5l-50.0333 0Z" fill="rgb(191,68,76)"></path>
        <path d="M891.35 400.15l50.0333 0l0 91.5l-50.0333 0Z" fill="rgb(191,68,76)"></path>
        <path d="M940.8833 400.15l50.0333 0l0 91.5l-50.0333 0Z" fill="rgb(196,80,84)"></path>
        <path d="M990.4167 400.15l50.0333 0l0 91.5l-50.0333 0Z" fill="rgb(216,130,115)"></path>
        <path d="M1039.95 400.15l50.0333 0l0 91.5l-50.0333 0Z" fill="rgb(216,130,115)"></path>
        <path d="M1089.4833 400.15l50.0333 0l0 91.5l-50.0333 0Z" fill="rgb(191,68,76)"></path>
        <path d="M1139.0167 400.15l50.0333 0l0 91.5l-50.0333 0Z" fill="rgb(211,118,107)"></path>
        <path d="M1188.55 400.15l50.0333 0l0 91.5l-50.0333 0Z" fill="rgb(222,152,125)"></path>
        <path d="M1238.0833 400.15l50.0333 0l0 91.5l-50.0333 0Z" fill="rgb(222,152,125)"></path>
        <path d="M1287.6167 400.15l50.0333 0l0 91.5l-50.0333 0Z" fill="rgb(240,217,156)"></path>
        <path d="M148.35 309.15l50.0333 0l0 91.5l-50.0333 0Z" fill="rgb(240,217,156)"></path>
        <path d="M197.8833 309.15l50.0333 0l0 91.5l-50.0333 0Z" fill="rgb(228,174,135)"></path>
        <path d="M396.0167 309.15l50.0333 0l0 91.5l-50.0333 0Z" fill="rgb(240,217,156)"></path>
        <path d="M594.15 309.15l50.0333 0l0 91.5l-50.0333 0Z" fill="rgb(234,195,146)"></path>
        <path d="M643.6833 309.15l50.0333 0l0 91.5l-50.0333 0Z" fill="rgb(222,152,125)"></path>
        <path d="M693.2167 309.15l50.0333 0l0 91.5l-50.0333 0Z" fill="rgb(222,152,125)"></path>
        <path d="M742.75 309.15l50.0333 0l0 91.5l-50.0333 0Z" fill="rgb(234,195,146)"></path>
        <path d="M792.2833 309.15l50.0333 0l0 91.5l-50.0333 0Z" fill="rgb(222,152,125)"></path>
        <path d="M841.8167 309.15l50.0333 0l0 91.5l-50.0333 0Z" fill="rgb(222,152,125)"></path>
        <path d="M891.35 309.15l50.0333 0l0 91.5l-50.0333 0Z" fill="rgb(191,68,76)"></path>
        <path d="M940.8833 309.15l50.0333 0l0 91.5l-50.0333 0Z" fill="rgb(191,68,76)"></path>
        <path d="M990.4167 309.15l50.0333 0l0 91.5l-50.0333 0Z" fill="rgb(240,217,156)"></path>
        <path d="M1039.95 309.15l50.0333 0l0 91.5l-50.0333 0Z" fill="rgb(201,93,92)"></path>
        <path d="M1089.4833 309.15l50.0333 0l0 91.5l-50.0333 0Z" fill="rgb(216,130,115)"></path>
        <path d="M1139.0167 309.15l50.0333 0l0 91.5l-50.0333 0Z" fill="rgb(228,174,135)"></path>
        <path d="M1188.55 309.15l50.0333 0l0 91.5l-50.0333 0Z" fill="rgb(206,105,99)"></path>
        <path d="M1238.0833 309.15l50.0333 0l0 91.5l-50.0333 0Z" fill="rgb(228,174,135)"></path>
        <path d="M148.35 218.15l50.0333 0l0 91.5l-50.0333 0Z" fill="rgb(234,195,146)"></path>
        <path d="M197.8833 218.15l50.0333 0l0 91.5l-50.0333 0Z" fill="rgb(240,217,156)"></path>
        <path d="M296.95 218.15l50.0333 0l0 91.5l-50.0333 0Z" fill="rgb(228,174,135)"></path>
        <path d="M544.6167 218.15l50.0333 0l0 91.5l-50.0333 0Z" fill="rgb(234,195,146)"></path>
        <path d="M643.6833 218.15l50.0333 0l0 91.5l-50.0333 0Z" fill="rgb(222,152,125)"></path>
        <path d="M693.2167 218.15l50.0333 0l0 91.5l-50.0333 0Z" fill="rgb(240,217,156)"></path>
        <path d="M742.75 218.15l50.0333 0l0 91.5l-50.0333 0Z" fill="rgb(216,130,115)"></path>
        <path d="M792.2833 218.15l50.0333 0l0 91.5l-50.0333 0Z" fill="rgb(191,68,76)"></path>
        <path d="M841.8167 218.15l50.0333 0l0 91.5l-50.0333 0Z" fill="rgb(216,130,115)"></path>
        <path d="M891.35 218.15l50.0333 0l0 91.5l-50.0333 0Z" fill="rgb(206,105,99)"></path>
        <path d="M940.8833 218.15l50.0333 0l0 91.5l-50.0333 0Z" fill="rgb(191,68,76)"></path>
        <path d="M990.4167 218.15l50.0333 0l0 91.5l-50.0333 0Z" fill="rgb(211,118,107)"></path>
        <path d="M1089.4833 218.15l50.0333 0l0 91.5l-50.0333 0Z" fill="rgb(216,130,115)"></path>
        <path d="M1139.0167 218.15l50.0333 0l0 91.5l-50.0333 0Z" fill="rgb(228,174,135)"></path>
        <path d="M1188.55 218.15l50.0333 0l0 91.5l-50.0333 0Z" fill="rgb(222,152,125)"></path>
        <path d="M1238.0833 218.15l50.0333 0l0 91.5l-50.0333 0Z" fill="rgb(234,195,146)"></path>
        <path d="M148.35 127.15l50.0333 0l0 91.5l-50.0333 0Z" fill="rgb(240,217,156)"></path>
        <path d="M643.6833 127.15l50.0333 0l0 91.5l-50.0333 0Z" fill="rgb(240,217,156)"></path>
        <path d="M742.75 127.15l50.0333 0l0 91.5l-50.0333 0Z" fill="rgb(234,195,146)"></path>
        <path d="M792.2833 127.15l50.0333 0l0 91.5l-50.0333 0Z" fill="rgb(240,217,156)"></path>
        <path d="M841.8167 127.15l50.0333 0l0 91.5l-50.0333 0Z" fill="rgb(228,174,135)"></path>
        <path d="M891.35 127.15l50.0333 0l0 91.5l-50.0333 0Z" fill="rgb(222,152,125)"></path>
        <path d="M1139.0167 127.15l50.0333 0l0 91.5l-50.0333 0Z" fill="rgb(240,217,156)"></path>
        <path d="M1188.55 127.15l50.0333 0l0 91.5l-50.0333 0Z" fill="rgb(234,195,146)"></path>
        <path d="M1238.0833 127.15l50.0333 0l0 91.5l-50.0333 0Z" fill="rgb(234,195,146)"></path>
        <path d="M1287.6167 127.15l50.0333 0l0 91.5l-50.0333 0Z" fill="rgb(211,118,107)"></path>
        <text dominant-baseline="central" text-anchor="middle" transform="translate(173.3667 718.9)" fill="#333" style="font-size: 12px; font-family: &quot;Microsoft YaHei&quot;;">5</text><text dominant-baseline="central" text-anchor="middle" transform="translate(222.9 718.9)" fill="#333" style="font-size: 12px; font-family: &quot;Microsoft YaHei&quot;;">1</text><text dominant-baseline="central" text-anchor="middle" transform="translate(718.2333 718.9)" fill="#333" style="font-size: 12px; font-family: &quot;Microsoft YaHei&quot;;">2</text><text dominant-baseline="central" text-anchor="middle" transform="translate(767.7667 718.9)" fill="#333" style="font-size: 12px; font-family: &quot;Microsoft YaHei&quot;;">4</text><text dominant-baseline="central" text-anchor="middle" transform="translate(817.3 718.9)" fill="#333" style="font-size: 12px; font-family: &quot;Microsoft YaHei&quot;;">1</text><text dominant-baseline="central" text-anchor="middle" transform="translate(866.8333 718.9)" fill="#333" style="font-size: 12px; font-family: &quot;Microsoft YaHei&quot;;">1</text><text dominant-baseline="central" text-anchor="middle" transform="translate(916.3667 718.9)" fill="#333"
            style="font-size: 12px; font-family: &quot;Microsoft YaHei&quot;;">3</text><text dominant-baseline="central" text-anchor="middle" transform="translate(965.9 718.9)" fill="#333" style="font-size: 12px; font-family: &quot;Microsoft YaHei&quot;;">4</text><text dominant-baseline="central" text-anchor="middle" transform="translate(1015.4333 718.9)" fill="#333" style="font-size: 12px; font-family: &quot;Microsoft YaHei&quot;;">6</text><text dominant-baseline="central" text-anchor="middle" transform="translate(1064.9667 718.9)" fill="#333" style="font-size: 12px; font-family: &quot;Microsoft YaHei&quot;;">4</text><text dominant-baseline="central" text-anchor="middle" transform="translate(1114.5 718.9)" fill="#333" style="font-size: 12px; font-family: &quot;Microsoft YaHei&quot;;">4</text><text dominant-baseline="central" text-anchor="middle" transform="translate(1164.0333 718.9)" fill="#333" style="font-size: 12px; font-family: &quot;Microsoft YaHei&quot;;">3</text><text dominant-baseline="central" text-anchor="middle" transform="translate(1213.5667 718.9)" fill="#333" style="font-size: 12px; font-family: &quot;Microsoft YaHei&quot;;">3</text><text dominant-baseline="central"
            text-anchor="middle" transform="translate(1263.1 718.9)" fill="#333" style="font-size: 12px; font-family: &quot;Microsoft YaHei&quot;;">2</text><text dominant-baseline="central" text-anchor="middle" transform="translate(1312.6333 718.9)" fill="#333" style="font-size: 12px; font-family: &quot;Microsoft YaHei&quot;;">5</text><text dominant-baseline="central" text-anchor="middle" transform="translate(173.3667 627.9)" fill="#333" style="font-size: 12px; font-family: &quot;Microsoft YaHei&quot;;">7</text><text dominant-baseline="central" text-anchor="middle" transform="translate(668.7 627.9)" fill="#333" style="font-size: 12px; font-family: &quot;Microsoft YaHei&quot;;">5</text><text dominant-baseline="central" text-anchor="middle" transform="translate(718.2333 627.9)" fill="#333" style="font-size: 12px; font-family: &quot;Microsoft YaHei&quot;;">2</text><text dominant-baseline="central" text-anchor="middle" transform="translate(767.7667 627.9)" fill="#333" style="font-size: 12px; font-family: &quot;Microsoft YaHei&quot;;">2</text><text dominant-baseline="central" text-anchor="middle" transform="translate(817.3 627.9)" fill="#333"
            style="font-size: 12px; font-family: &quot;Microsoft YaHei&quot;;">6</text><text dominant-baseline="central" text-anchor="middle" transform="translate(866.8333 627.9)" fill="#eee" stroke="rgb(196,80,84)" stroke-width="2" paint-order="stroke" stroke-miterlimit="2" style="font-size: 12px; font-family: &quot;Microsoft YaHei&quot;;">9</text><text dominant-baseline="central" text-anchor="middle" transform="translate(916.3667 627.9)" fill="#eee" stroke="rgb(191,68,76)" stroke-width="2" paint-order="stroke" stroke-miterlimit="2" style="font-size: 12px; font-family: &quot;Microsoft YaHei&quot;;">11</text><text dominant-baseline="central" text-anchor="middle" transform="translate(965.9 627.9)" fill="#333" style="font-size: 12px; font-family: &quot;Microsoft YaHei&quot;;">6</text><text dominant-baseline="central" text-anchor="middle" transform="translate(1015.4333 627.9)" fill="#333" style="font-size: 12px; font-family: &quot;Microsoft YaHei&quot;;">7</text><text dominant-baseline="central" text-anchor="middle" transform="translate(1064.9667 627.9)" fill="#eee" stroke="rgb(201,93,92)" stroke-width="2" paint-order="stroke" stroke-miterlimit="2"
            style="font-size: 12px; font-family: &quot;Microsoft YaHei&quot;;">8</text><text dominant-baseline="central" text-anchor="middle" transform="translate(1114.5 627.9)" fill="#eee" stroke="rgb(191,68,76)" stroke-width="2" paint-order="stroke" stroke-miterlimit="2" style="font-size: 12px; font-family: &quot;Microsoft YaHei&quot;;">12</text><text dominant-baseline="central" text-anchor="middle" transform="translate(1164.0333 627.9)" fill="#333" style="font-size: 12px; font-family: &quot;Microsoft YaHei&quot;;">5</text><text dominant-baseline="central" text-anchor="middle" transform="translate(1213.5667 627.9)" fill="#333" style="font-size: 12px; font-family: &quot;Microsoft YaHei&quot;;">5</text><text dominant-baseline="central" text-anchor="middle" transform="translate(1263.1 627.9)" fill="#333" style="font-size: 12px; font-family: &quot;Microsoft YaHei&quot;;">7</text><text dominant-baseline="central" text-anchor="middle" transform="translate(1312.6333 627.9)" fill="#333" style="font-size: 12px; font-family: &quot;Microsoft YaHei&quot;;">2</text><text dominant-baseline="central" text-anchor="middle" transform="translate(173.3667 536.9)" fill="#333"
            style="font-size: 12px; font-family: &quot;Microsoft YaHei&quot;;">1</text><text dominant-baseline="central" text-anchor="middle" transform="translate(222.9 536.9)" fill="#333" style="font-size: 12px; font-family: &quot;Microsoft YaHei&quot;;">1</text><text dominant-baseline="central" text-anchor="middle" transform="translate(668.7 536.9)" fill="#333" style="font-size: 12px; font-family: &quot;Microsoft YaHei&quot;;">3</text><text dominant-baseline="central" text-anchor="middle" transform="translate(718.2333 536.9)" fill="#333" style="font-size: 12px; font-family: &quot;Microsoft YaHei&quot;;">2</text><text dominant-baseline="central" text-anchor="middle" transform="translate(767.7667 536.9)" fill="#333" style="font-size: 12px; font-family: &quot;Microsoft YaHei&quot;;">1</text><text dominant-baseline="central" text-anchor="middle" transform="translate(817.3 536.9)" fill="#eee" stroke="rgb(196,80,84)" stroke-width="2" paint-order="stroke" stroke-miterlimit="2" style="font-size: 12px; font-family: &quot;Microsoft YaHei&quot;;">9</text><text dominant-baseline="central" text-anchor="middle" transform="translate(866.8333 536.9)" fill="#eee" stroke="rgb(201,93,92)"
            stroke-width="2" paint-order="stroke" stroke-miterlimit="2" style="font-size: 12px; font-family: &quot;Microsoft YaHei&quot;;">8</text><text dominant-baseline="central" text-anchor="middle" transform="translate(916.3667 536.9)" fill="#eee" stroke="rgb(191,68,76)" stroke-width="2" paint-order="stroke" stroke-miterlimit="2" style="font-size: 12px; font-family: &quot;Microsoft YaHei&quot;;">10</text><text dominant-baseline="central" text-anchor="middle" transform="translate(965.9 536.9)" fill="#333" style="font-size: 12px; font-family: &quot;Microsoft YaHei&quot;;">6</text><text dominant-baseline="central" text-anchor="middle" transform="translate(1015.4333 536.9)" fill="#333" style="font-size: 12px; font-family: &quot;Microsoft YaHei&quot;;">5</text><text dominant-baseline="central" text-anchor="middle" transform="translate(1064.9667 536.9)" fill="#333" style="font-size: 12px; font-family: &quot;Microsoft YaHei&quot;;">5</text><text dominant-baseline="central" text-anchor="middle" transform="translate(1114.5 536.9)" fill="#333" style="font-size: 12px; font-family: &quot;Microsoft YaHei&quot;;">5</text><text dominant-baseline="central" text-anchor="middle"
            transform="translate(1164.0333 536.9)" fill="#333" style="font-size: 12px; font-family: &quot;Microsoft YaHei&quot;;">7</text><text dominant-baseline="central" text-anchor="middle" transform="translate(1213.5667 536.9)" fill="#333" style="font-size: 12px; font-family: &quot;Microsoft YaHei&quot;;">4</text><text dominant-baseline="central" text-anchor="middle" transform="translate(1263.1 536.9)" fill="#333" style="font-size: 12px; font-family: &quot;Microsoft YaHei&quot;;">2</text><text dominant-baseline="central" text-anchor="middle" transform="translate(1312.6333 536.9)" fill="#333" style="font-size: 12px; font-family: &quot;Microsoft YaHei&quot;;">4</text><text dominant-baseline="central" text-anchor="middle" transform="translate(173.3667 445.9)" fill="#333" style="font-size: 12px; font-family: &quot;Microsoft YaHei&quot;;">7</text><text dominant-baseline="central" text-anchor="middle" transform="translate(222.9 445.9)" fill="#333" style="font-size: 12px; font-family: &quot;Microsoft YaHei&quot;;">3</text><text dominant-baseline="central" text-anchor="middle" transform="translate(569.6333 445.9)" fill="#333"
            style="font-size: 12px; font-family: &quot;Microsoft YaHei&quot;;">1</text><text dominant-baseline="central" text-anchor="middle" transform="translate(668.7 445.9)" fill="#333" style="font-size: 12px; font-family: &quot;Microsoft YaHei&quot;;">5</text><text dominant-baseline="central" text-anchor="middle" transform="translate(718.2333 445.9)" fill="#333" style="font-size: 12px; font-family: &quot;Microsoft YaHei&quot;;">4</text><text dominant-baseline="central" text-anchor="middle" transform="translate(767.7667 445.9)" fill="#333" style="font-size: 12px; font-family: &quot;Microsoft YaHei&quot;;">7</text><text dominant-baseline="central" text-anchor="middle" transform="translate(817.3 445.9)" fill="#eee" stroke="rgb(191,68,76)" stroke-width="2" paint-order="stroke" stroke-miterlimit="2" style="font-size: 12px; font-family: &quot;Microsoft YaHei&quot;;">14</text><text dominant-baseline="central" text-anchor="middle" transform="translate(866.8333 445.9)" fill="#eee" stroke="rgb(191,68,76)" stroke-width="2" paint-order="stroke" stroke-miterlimit="2" style="font-size: 12px; font-family: &quot;Microsoft YaHei&quot;;">13</text><text dominant-baseline="central"
            text-anchor="middle" transform="translate(916.3667 445.9)" fill="#eee" stroke="rgb(191,68,76)" stroke-width="2" paint-order="stroke" stroke-miterlimit="2" style="font-size: 12px; font-family: &quot;Microsoft YaHei&quot;;">12</text><text dominant-baseline="central" text-anchor="middle" transform="translate(965.9 445.9)" fill="#eee" stroke="rgb(196,80,84)" stroke-width="2" paint-order="stroke" stroke-miterlimit="2" style="font-size: 12px; font-family: &quot;Microsoft YaHei&quot;;">9</text><text dominant-baseline="central" text-anchor="middle" transform="translate(1015.4333 445.9)" fill="#333" style="font-size: 12px; font-family: &quot;Microsoft YaHei&quot;;">5</text><text dominant-baseline="central" text-anchor="middle" transform="translate(1064.9667 445.9)" fill="#333" style="font-size: 12px; font-family: &quot;Microsoft YaHei&quot;;">5</text><text dominant-baseline="central" text-anchor="middle" transform="translate(1114.5 445.9)" fill="#eee" stroke="rgb(191,68,76)" stroke-width="2" paint-order="stroke" stroke-miterlimit="2" style="font-size: 12px; font-family: &quot;Microsoft YaHei&quot;;">10</text><text dominant-baseline="central" text-anchor="middle"
            transform="translate(1164.0333 445.9)" fill="#333" style="font-size: 12px; font-family: &quot;Microsoft YaHei&quot;;">6</text><text dominant-baseline="central" text-anchor="middle" transform="translate(1213.5667 445.9)" fill="#333" style="font-size: 12px; font-family: &quot;Microsoft YaHei&quot;;">4</text><text dominant-baseline="central" text-anchor="middle" transform="translate(1263.1 445.9)" fill="#333" style="font-size: 12px; font-family: &quot;Microsoft YaHei&quot;;">4</text><text dominant-baseline="central" text-anchor="middle" transform="translate(1312.6333 445.9)" fill="#333" style="font-size: 12px; font-family: &quot;Microsoft YaHei&quot;;">1</text><text dominant-baseline="central" text-anchor="middle" transform="translate(173.3667 354.9)" fill="#333" style="font-size: 12px; font-family: &quot;Microsoft YaHei&quot;;">1</text><text dominant-baseline="central" text-anchor="middle" transform="translate(222.9 354.9)" fill="#333" style="font-size: 12px; font-family: &quot;Microsoft YaHei&quot;;">3</text><text dominant-baseline="central" text-anchor="middle" transform="translate(421.0333 354.9)" fill="#333"
            style="font-size: 12px; font-family: &quot;Microsoft YaHei&quot;;">1</text><text dominant-baseline="central" text-anchor="middle" transform="translate(619.1667 354.9)" fill="#333" style="font-size: 12px; font-family: &quot;Microsoft YaHei&quot;;">2</text><text dominant-baseline="central" text-anchor="middle" transform="translate(668.7 354.9)" fill="#333" style="font-size: 12px; font-family: &quot;Microsoft YaHei&quot;;">4</text><text dominant-baseline="central" text-anchor="middle" transform="translate(718.2333 354.9)" fill="#333" style="font-size: 12px; font-family: &quot;Microsoft YaHei&quot;;">4</text><text dominant-baseline="central" text-anchor="middle" transform="translate(767.7667 354.9)" fill="#333" style="font-size: 12px; font-family: &quot;Microsoft YaHei&quot;;">2</text><text dominant-baseline="central" text-anchor="middle" transform="translate(817.3 354.9)" fill="#333" style="font-size: 12px; font-family: &quot;Microsoft YaHei&quot;;">4</text><text dominant-baseline="central" text-anchor="middle" transform="translate(866.8333 354.9)" fill="#333" style="font-size: 12px; font-family: &quot;Microsoft YaHei&quot;;">4</text><text dominant-baseline="central"
            text-anchor="middle" transform="translate(916.3667 354.9)" fill="#eee" stroke="rgb(191,68,76)" stroke-width="2" paint-order="stroke" stroke-miterlimit="2" style="font-size: 12px; font-family: &quot;Microsoft YaHei&quot;;">14</text><text dominant-baseline="central" text-anchor="middle" transform="translate(965.9 354.9)" fill="#eee" stroke="rgb(191,68,76)" stroke-width="2" paint-order="stroke" stroke-miterlimit="2" style="font-size: 12px; font-family: &quot;Microsoft YaHei&quot;;">12</text><text dominant-baseline="central" text-anchor="middle" transform="translate(1015.4333 354.9)" fill="#333" style="font-size: 12px; font-family: &quot;Microsoft YaHei&quot;;">1</text><text dominant-baseline="central" text-anchor="middle" transform="translate(1064.9667 354.9)" fill="#eee" stroke="rgb(201,93,92)" stroke-width="2" paint-order="stroke" stroke-miterlimit="2" style="font-size: 12px; font-family: &quot;Microsoft YaHei&quot;;">8</text><text dominant-baseline="central" text-anchor="middle" transform="translate(1114.5 354.9)" fill="#333" style="font-size: 12px; font-family: &quot;Microsoft YaHei&quot;;">5</text><text dominant-baseline="central" text-anchor="middle"
            transform="translate(1164.0333 354.9)" fill="#333" style="font-size: 12px; font-family: &quot;Microsoft YaHei&quot;;">3</text><text dominant-baseline="central" text-anchor="middle" transform="translate(1213.5667 354.9)" fill="#333" style="font-size: 12px; font-family: &quot;Microsoft YaHei&quot;;">7</text><text dominant-baseline="central" text-anchor="middle" transform="translate(1263.1 354.9)" fill="#333" style="font-size: 12px; font-family: &quot;Microsoft YaHei&quot;;">3</text><text dominant-baseline="central" text-anchor="middle" transform="translate(173.3667 263.9)" fill="#333" style="font-size: 12px; font-family: &quot;Microsoft YaHei&quot;;">2</text><text dominant-baseline="central" text-anchor="middle" transform="translate(222.9 263.9)" fill="#333" style="font-size: 12px; font-family: &quot;Microsoft YaHei&quot;;">1</text><text dominant-baseline="central" text-anchor="middle" transform="translate(321.9667 263.9)" fill="#333" style="font-size: 12px; font-family: &quot;Microsoft YaHei&quot;;">3</text><text dominant-baseline="central" text-anchor="middle" transform="translate(569.6333 263.9)" fill="#333"
            style="font-size: 12px; font-family: &quot;Microsoft YaHei&quot;;">2</text><text dominant-baseline="central" text-anchor="middle" transform="translate(668.7 263.9)" fill="#333" style="font-size: 12px; font-family: &quot;Microsoft YaHei&quot;;">4</text><text dominant-baseline="central" text-anchor="middle" transform="translate(718.2333 263.9)" fill="#333" style="font-size: 12px; font-family: &quot;Microsoft YaHei&quot;;">1</text><text dominant-baseline="central" text-anchor="middle" transform="translate(767.7667 263.9)" fill="#333" style="font-size: 12px; font-family: &quot;Microsoft YaHei&quot;;">5</text><text dominant-baseline="central" text-anchor="middle" transform="translate(817.3 263.9)" fill="#eee" stroke="rgb(191,68,76)" stroke-width="2" paint-order="stroke" stroke-miterlimit="2" style="font-size: 12px; font-family: &quot;Microsoft YaHei&quot;;">10</text><text dominant-baseline="central" text-anchor="middle" transform="translate(866.8333 263.9)" fill="#333" style="font-size: 12px; font-family: &quot;Microsoft YaHei&quot;;">5</text><text dominant-baseline="central" text-anchor="middle" transform="translate(916.3667 263.9)" fill="#333"
            style="font-size: 12px; font-family: &quot;Microsoft YaHei&quot;;">7</text><text dominant-baseline="central" text-anchor="middle" transform="translate(965.9 263.9)" fill="#eee" stroke="rgb(191,68,76)" stroke-width="2" paint-order="stroke" stroke-miterlimit="2" style="font-size: 12px; font-family: &quot;Microsoft YaHei&quot;;">11</text><text dominant-baseline="central" text-anchor="middle" transform="translate(1015.4333 263.9)" fill="#333" style="font-size: 12px; font-family: &quot;Microsoft YaHei&quot;;">6</text><text dominant-baseline="central" text-anchor="middle" transform="translate(1114.5 263.9)" fill="#333" style="font-size: 12px; font-family: &quot;Microsoft YaHei&quot;;">5</text><text dominant-baseline="central" text-anchor="middle" transform="translate(1164.0333 263.9)" fill="#333" style="font-size: 12px; font-family: &quot;Microsoft YaHei&quot;;">3</text><text dominant-baseline="central" text-anchor="middle" transform="translate(1213.5667 263.9)" fill="#333" style="font-size: 12px; font-family: &quot;Microsoft YaHei&quot;;">4</text><text dominant-baseline="central" text-anchor="middle" transform="translate(1263.1 263.9)" fill="#333"
            style="font-size: 12px; font-family: &quot;Microsoft YaHei&quot;;">2</text><text dominant-baseline="central" text-anchor="middle" transform="translate(173.3667 172.9)" fill="#333" style="font-size: 12px; font-family: &quot;Microsoft YaHei&quot;;">1</text><text dominant-baseline="central" text-anchor="middle" transform="translate(668.7 172.9)" fill="#333" style="font-size: 12px; font-family: &quot;Microsoft YaHei&quot;;">1</text><text dominant-baseline="central" text-anchor="middle" transform="translate(767.7667 172.9)" fill="#333" style="font-size: 12px; font-family: &quot;Microsoft YaHei&quot;;">2</text><text dominant-baseline="central" text-anchor="middle" transform="translate(817.3 172.9)" fill="#333" style="font-size: 12px; font-family: &quot;Microsoft YaHei&quot;;">1</text><text dominant-baseline="central" text-anchor="middle" transform="translate(866.8333 172.9)" fill="#333" style="font-size: 12px; font-family: &quot;Microsoft YaHei&quot;;">3</text><text dominant-baseline="central" text-anchor="middle" transform="translate(916.3667 172.9)" fill="#333" style="font-size: 12px; font-family: &quot;Microsoft YaHei&quot;;">4</text><text dominant-baseline="central"
            text-anchor="middle" transform="translate(1164.0333 172.9)" fill="#333" style="font-size: 12px; font-family: &quot;Microsoft YaHei&quot;;">1</text><text dominant-baseline="central" text-anchor="middle" transform="translate(1213.5667 172.9)" fill="#333" style="font-size: 12px; font-family: &quot;Microsoft YaHei&quot;;">2</text><text dominant-baseline="central" text-anchor="middle" transform="translate(1263.1 172.9)" fill="#333" style="font-size: 12px; font-family: &quot;Microsoft YaHei&quot;;">2</text><text dominant-baseline="central" text-anchor="middle" transform="translate(1312.6333 172.9)" fill="#333" style="font-size: 12px; font-family: &quot;Microsoft YaHei&quot;;">6</text>
        <path d="M-8.8966 -45l160.9337 0l0 53l-160.9337 0Z" transform="translate(671.4297 1074.9)" fill="rgb(0,0,0)" fill-opacity="0" stroke="#ccc" stroke-width="0"></path><text dominant-baseline="central" text-anchor="middle" x="2.0818995585505003e-15" y="-34" transform="translate(671.4297 1074.9)" fill="#333" style="font-size: 12px; font-family: &quot;Microsoft YaHei&quot;;">0</text><text dominant-baseline="central" text-anchor="middle" x="140" y="-33.99999999999999" transform="translate(671.4297 1074.9)" fill="#333" style="font-size: 12px; font-family: &quot;Microsoft YaHei&quot;;">10</text>
    </g>
</svg>