<svg xmlns="http://www.w3.org/2000/svg" xmlns:xlink="http://www.w3.org/1999/xlink" version="1.1" baseProfile="full" width="1486" height="1274" style="position: absolute; left: 0px; top: 0px; user-select: none;">
    <g>
        <path d="M100.5 70L100.5 65" fill="none" stroke="#929ABA"></path>
        <path d="M302.5 70L302.5 65" fill="none" stroke="#929ABA"></path>
        <path d="M504.5 70L504.5 65" fill="none" stroke="#929ABA"></path>
        <path d="M706.5 70L706.5 65" fill="none" stroke="#929ABA"></path>
        <path d="M908.5 70L908.5 65" fill="none" stroke="#929ABA"></path>
        <path d="M1110.5 70L1110.5 65" fill="none" stroke="#929ABA"></path>
        <path d="M1312.5 70L1312.5 65" fill="none" stroke="#929ABA"></path><text dominant-baseline="central" text-anchor="middle" y="-6" transform="translate(100 62)" fill="#929ABA" style="font: 12px &quot;Microsoft YaHei&quot;;">21:00</text><text dominant-baseline="central" text-anchor="middle" y="-6" transform="translate(302.071 62)" fill="#929ABA" style="font: 12px &quot;Microsoft YaHei&quot;;">22:00</text><text dominant-baseline="central" text-anchor="middle" y="-6" transform="translate(504.142 62)" fill="#929ABA" style="font: 12px &quot;Microsoft YaHei&quot;;">23:00</text><text dominant-baseline="central" text-anchor="middle" y="-6" transform="translate(908.284 62)" fill="#929ABA" style="font: 12px &quot;Microsoft YaHei&quot;;">01:00</text><text dominant-baseline="central" text-anchor="middle" y="-6" transform="translate(1110.355 62)" fill="#929ABA" style="font: 12px &quot;Microsoft YaHei&quot;;">02:00</text><text dominant-baseline="central" text-anchor="middle" y="-6" transform="translate(1312.426 62)" fill="#929ABA" style="font: 12px &quot;Microsoft YaHei&quot;;">03:00</text><text dominant-baseline="central" text-anchor="middle" y="-6" transform="translate(706.213 62)"
            fill="#929ABA" style="font-size: 12px; font-family: &quot;Microsoft YaHei&quot;; font-weight: bold;">8</text>
        <path d="M100 680.1595l1366 0l0 43.5828l-1366 0Z" fill="#5470c6"></path>
        <path d="M100 680.1595l1366 0l0 43.5828l-1366 0Z" fill="#ddb30b"></path>
        <path d="M100 680.1595l1366 0l0 43.5828l-1366 0Z" fill="none" stroke="none"></path>
        <path d="M100 607.5215l1366 0l0 43.5828l-1366 0Z" fill="#5470c6"></path>
        <path d="M100 607.5215l1366 0l0 43.5828l-1366 0Z" fill="#ddb30b"></path>
        <path d="M100 607.5215l1366 0l0 43.5828l-1366 0Z" fill="none" stroke="none"></path>
        <path d="M100 462.2454l1366 0l0 43.5828l-1366 0Z" fill="#5470c6"></path>
        <path d="M100 462.2454l976.6765 0l0 43.5828l-976.6765 0Z" fill="#ddb30b"></path>
        <path d="M100 462.2454l1366 0l0 43.5828l-1366 0Z" fill="none" stroke="none"></path>
        <path d="M100 316.9693l1366 0l0 43.5828l-1366 0Z" fill="#5470c6"></path>
        <path d="M100 316.9693l926.1588 0l0 43.5828l-926.1588 0Z" fill="#ddb30b"></path>
        <path d="M100 316.9693l1366 0l0 43.5828l-1366 0Z" fill="none" stroke="none"></path>
        <path d="M100 752.7975l1366 0l0 43.5828l-1366 0Z" fill="#5470c6"></path>
        <path d="M100 752.7975l1366 0l0 43.5828l-1366 0Z" fill="#ddb30b"></path>
        <path d="M100 752.7975l1366 0l0 43.5828l-1366 0Z" fill="none" stroke="none"></path>
        <path d="M100 752.7975l1366 0l0 43.5828l-1366 0Z" fill="#5470c6"></path>
        <path d="M100 752.7975l1366 0l0 43.5828l-1366 0Z" fill="#ddb30b"></path>
        <path d="M100 752.7975l1366 0l0 43.5828l-1366 0Z" fill="none" stroke="none"></path>
        <path d="M403.1065 389.6074l1062.8935 0l0 43.5828l-1062.8935 0Z" fill="#5470c6"></path>
        <path d="M403.1065 389.6074l597.7934 0l0 43.5828l-597.7934 0Z" fill="#ddb30b"></path>
        <path d="M403.1065 389.6074l1062.8935 0l0 43.5828l-1062.8935 0Z" fill="none" stroke="none"></path>
        <path d="M100 825.4356l1366 0l0 43.5828l-1366 0Z" fill="#5470c6"></path>
        <path d="M100 825.4356l892.4803 0l0 43.5828l-892.4803 0Z" fill="#ddb30b"></path>
        <path d="M100 825.4356l1366 0l0 43.5828l-1366 0Z" fill="none" stroke="none"></path>
        <path d="M100 898.0736l1366 0l0 43.5828l-1366 0Z" fill="#5470c6"></path>
        <path d="M100 898.0736l774.6055 0l0 43.5828l-774.6055 0Z" fill="#ddb30b"></path>
        <path d="M100 898.0736l1366 0l0 43.5828l-1366 0Z" fill="none" stroke="none"></path>
        <path d="M100 1188.6258l269.428 0l0 43.5828l-269.428 0Z" fill="#5470c6"></path>
        <path d="M100 1188.6258l134.714 0l0 43.5828l-134.714 0Z" fill="#ddb30b"></path>
        <path d="M100 1188.6258l269.428 0l0 43.5828l-269.428 0Z" fill="none" stroke="none"></path>
        <path d="M436.785 1115.9877l1029.215 0l0 43.5828l-1029.215 0Z" fill="#5470c6"></path>
        <path d="M436.785 1115.9877l656.7308 0l0 43.5828l-656.7308 0Z" fill="#ddb30b"></path>
        <path d="M436.785 1115.9877l1029.215 0l0 43.5828l-1029.215 0Z" fill="none" stroke="none"></path>
        <path d="M0 0L0 -20L38.5714 -20C54 -20 48.8571 -1 64.2857 -1L90 -1L90 0Z" transform="translate(10 1232.2086)" fill="#368c6c"></path><text dominant-baseline="central" text-anchor="middle" x="24" y="-9" transform="translate(10 1232.2086)" fill="#fff" style="font: 12px sans-serif;">681</text><text dominant-baseline="central" text-anchor="middle" x="75" y="-8" transform="translate(10 1232.2086)" fill="#000" style="font: 12px sans-serif;">X</text>
        <path d="M0 0L0 -20L38.5714 -20C54 -20 48.8571 -1 64.2857 -1L90 -1L90 0Z" transform="translate(10 1159.5706)" fill="#368c6c"></path><text dominant-baseline="central" text-anchor="middle" x="24" y="-9" transform="translate(10 1159.5706)" fill="#fff" style="font: 12px sans-serif;">682I</text><text dominant-baseline="central" text-anchor="middle" x="75" y="-8" transform="translate(10 1159.5706)" fill="#000" style="font: 12px sans-serif;">W</text>
        <path d="M0 0L0 -20L38.5714 -20C54 -20 48.8571 -1 64.2857 -1L90 -1L90 0Z" transform="translate(10 1086.9325)" fill="#368c6c"></path><text dominant-baseline="central" text-anchor="middle" x="24" y="-9" transform="translate(10 1086.9325)" fill="#fff" style="font: 12px sans-serif;">682O</text><text dominant-baseline="central" text-anchor="middle" x="75" y="-8" transform="translate(10 1086.9325)" fill="#000" style="font: 12px sans-serif;">W</text>
        <path d="M0 0L0 -20L38.5714 -20C54 -20 48.8571 -1 64.2857 -1L90 -1L90 0Z" transform="translate(10 1014.2945)" fill="#368c6c"></path><text dominant-baseline="central" text-anchor="middle" x="24" y="-9" transform="translate(10 1014.2945)" fill="#fff" style="font: 12px sans-serif;">682</text><text dominant-baseline="central" text-anchor="middle" x="75" y="-8" transform="translate(10 1014.2945)" fill="#000" style="font: 12px sans-serif;">X</text>
        <path d="M0 0L0 -20L38.5714 -20C54 -20 48.8571 -1 64.2857 -1L90 -1L90 0Z" transform="translate(10 941.6564)" fill="#368c6c"></path><text dominant-baseline="central" text-anchor="middle" x="24" y="-9" transform="translate(10 941.6564)" fill="#fff" style="font: 12px sans-serif;">683</text><text dominant-baseline="central" text-anchor="middle" x="75" y="-8" transform="translate(10 941.6564)" fill="#000" style="font: 12px sans-serif;">X</text>
        <path d="M0 0L0 -20L38.5714 -20C54 -20 48.8571 -1 64.2857 -1L90 -1L90 0Z" transform="translate(10 869.0184)" fill="#368c6c"></path><text dominant-baseline="central" text-anchor="middle" x="24" y="-9" transform="translate(10 869.0184)" fill="#fff" style="font: 12px sans-serif;">684</text><text dominant-baseline="central" text-anchor="middle" x="75" y="-8" transform="translate(10 869.0184)" fill="#000" style="font: 12px sans-serif;">W</text>
        <path d="M0 0L0 -20L38.5714 -20C54 -20 48.8571 -1 64.2857 -1L90 -1L90 0Z" transform="translate(10 796.3804)" fill="#368c6c"></path><text dominant-baseline="central" text-anchor="middle" x="24" y="-9" transform="translate(10 796.3804)" fill="#fff" style="font: 12px sans-serif;">685</text><text dominant-baseline="central" text-anchor="middle" x="75" y="-8" transform="translate(10 796.3804)" fill="#000" style="font: 12px sans-serif;">X</text>
        <path d="M0 0L0 -20L38.5714 -20C54 -20 48.8571 -1 64.2857 -1L90 -1L90 0Z" transform="translate(10 723.7423)" fill="#368c6c"></path><text dominant-baseline="central" text-anchor="middle" x="24" y="-9" transform="translate(10 723.7423)" fill="#fff" style="font: 12px sans-serif;">690</text><text dominant-baseline="central" text-anchor="middle" x="75" y="-8" transform="translate(10 723.7423)" fill="#000" style="font: 12px sans-serif;">X</text>
        <path d="M0 0L0 -20L38.5714 -20C54 -20 48.8571 -1 64.2857 -1L90 -1L90 0Z" transform="translate(10 651.1043)" fill="#368c6c"></path><text dominant-baseline="central" text-anchor="middle" x="24" y="-9" transform="translate(10 651.1043)" fill="#fff" style="font: 12px sans-serif;">691</text><text dominant-baseline="central" text-anchor="middle" x="75" y="-8" transform="translate(10 651.1043)" fill="#000" style="font: 12px sans-serif;">X</text>
        <path d="M0 0L0 -20L38.5714 -20C54 -20 48.8571 -1 64.2857 -1L90 -1L90 0Z" transform="translate(10 578.4663)" fill="#368c6c"></path><text dominant-baseline="central" text-anchor="middle" x="24" y="-9" transform="translate(10 578.4663)" fill="#fff" style="font: 12px sans-serif;">692</text><text dominant-baseline="central" text-anchor="middle" x="75" y="-8" transform="translate(10 578.4663)" fill="#000" style="font: 12px sans-serif;">X</text>
        <path d="M0 0L0 -20L38.5714 -20C54 -20 48.8571 -1 64.2857 -1L90 -1L90 0Z" transform="translate(10 505.8282)" fill="#368c6c"></path><text dominant-baseline="central" text-anchor="middle" x="24" y="-9" transform="translate(10 505.8282)" fill="#fff" style="font: 12px sans-serif;">693</text><text dominant-baseline="central" text-anchor="middle" x="75" y="-8" transform="translate(10 505.8282)" fill="#000" style="font: 12px sans-serif;">W</text>
        <path d="M0 0L0 -20L38.5714 -20C54 -20 48.8571 -1 64.2857 -1L90 -1L90 0Z" transform="translate(10 433.1902)" fill="#368c6c"></path><text dominant-baseline="central" text-anchor="middle" x="24" y="-9" transform="translate(10 433.1902)" fill="#fff" style="font: 12px sans-serif;">694</text><text dominant-baseline="central" text-anchor="middle" x="75" y="-8" transform="translate(10 433.1902)" fill="#000" style="font: 12px sans-serif;">W</text>
        <path d="M0 0L0 -20L38.5714 -20C54 -20 48.8571 -1 64.2857 -1L90 -1L90 0Z" transform="translate(10 360.5521)" fill="#368c6c"></path><text dominant-baseline="central" text-anchor="middle" x="24" y="-9" transform="translate(10 360.5521)" fill="#fff" style="font: 12px sans-serif;">695</text><text dominant-baseline="central" text-anchor="middle" x="75" y="-8" transform="translate(10 360.5521)" fill="#000" style="font: 12px sans-serif;">X</text>
        <path d="M0 0L0 -20L38.5714 -20C54 -20 48.8571 -1 64.2857 -1L90 -1L90 0Z" transform="translate(10 287.9141)" fill="#368c6c"></path><text dominant-baseline="central" text-anchor="middle" x="24" y="-9" transform="translate(10 287.9141)" fill="#fff" style="font: 12px sans-serif;">696</text><text dominant-baseline="central" text-anchor="middle" x="75" y="-8" transform="translate(10 287.9141)" fill="#000" style="font: 12px sans-serif;">X</text>
        <path d="M0 0L0 -20L38.5714 -20C54 -20 48.8571 -1 64.2857 -1L90 -1L90 0Z" transform="translate(10 215.2761)" fill="#368c6c"></path><text dominant-baseline="central" text-anchor="middle" x="24" y="-9" transform="translate(10 215.2761)" fill="#fff" style="font: 12px sans-serif;">697</text><text dominant-baseline="central" text-anchor="middle" x="75" y="-8" transform="translate(10 215.2761)" fill="#000" style="font: 12px sans-serif;">X</text>
        <path d="M0 0L0 -20L38.5714 -20C54 -20 48.8571 -1 64.2857 -1L90 -1L90 0Z" transform="translate(10 142.638)" fill="#368c6c"></path><text dominant-baseline="central" text-anchor="middle" x="24" y="-9" transform="translate(10 142.638)" fill="#fff" style="font: 12px sans-serif;">698</text><text dominant-baseline="central" text-anchor="middle" x="75" y="-8" transform="translate(10 142.638)" fill="#000" style="font: 12px sans-serif;">W</text><text dominant-baseline="central" text-anchor="middle" transform="translate(783 701.9509)" fill="#fff" style="font-size: 12px; font-family: &quot;Microsoft YaHei&quot;;">Y3683</text><text dominant-baseline="central" text-anchor="middle" transform="translate(783 629.3129)" fill="#fff" style="font-size: 12px; font-family: &quot;Microsoft YaHei&quot;;">EKXAD</text><text dominant-baseline="central" text-anchor="middle" transform="translate(783 484.0368)" fill="#fff" style="font-size: 12px; font-family: &quot;Microsoft YaHei&quot;;">Y4682</text><text dominant-baseline="central" text-anchor="middle" transform="translate(783 338.7607)" fill="#fff" style="font-size: 12px; font-family: &quot;Microsoft YaHei&quot;;">Y4393</text><text
            dominant-baseline="central" text-anchor="middle" transform="translate(783 774.589)" fill="#fff" style="font-size: 12px; font-family: &quot;Microsoft YaHei&quot;;">Y2238</text><text dominant-baseline="central" text-anchor="middle" transform="translate(783 774.589)" fill="#fff" style="font-size: 12px; font-family: &quot;Microsoft YaHei&quot;;">Y2238</text><text dominant-baseline="central" text-anchor="middle" transform="translate(934.5533 411.3988)" fill="#fff" style="font-size: 12px; font-family: &quot;Microsoft YaHei&quot;;">Y8192</text><text dominant-baseline="central" text-anchor="middle" transform="translate(783 847.227)" fill="#fff" style="font-size: 12px; font-family: &quot;Microsoft YaHei&quot;;">Y3887</text><text dominant-baseline="central" text-anchor="middle" transform="translate(783 919.865)" fill="#fff" style="font-size: 12px; font-family: &quot;Microsoft YaHei&quot;;">Y3086</text><text dominant-baseline="central" text-anchor="middle" transform="translate(234.714 1210.4172)" fill="#fff" style="font-size: 12px; font-family: &quot;Microsoft YaHei&quot;;">Y7421</text><text dominant-baseline="central" text-anchor="middle" transform="translate(951.3925 1137.7791)"
            fill="#fff" style="font-size: 12px; font-family: &quot;Microsoft YaHei&quot;;">Y4619</text>
        <path d="M0 0l1366 0l0 20l-1366 0Z" transform="matrix(1,0,0,-1,102.8,1280.5)" fill="rgb(47,69,84)" fill-opacity="0"></path>
        <path d="M0 0l1184 0l0 10l-1184 0Z" transform="matrix(0,-1,1,0,1466.5,1254)" fill="rgb(47,69,84)" fill-opacity="0"></path>
        <path d="M0 0l1366 0l0 20l-1366 0Z" transform="matrix(1,0,0,-1,102.8,1280.5)" fill="none"></path>
        <path d="M0 0l355.16 0l0 20l-355.16 0Z" transform="matrix(1,0,0,-1,102.8,1280.5)" fill="rgb(135,175,255)" fill-opacity="0.2"></path>
        <path d="M3.5 0.5L1362.5 0.5A3 3 0 0 1 1365.5 3.5L1365.5 16.5A3 3 0 0 1 1362.5 19.5L3.5 19.5A3 3 0 0 1 0.5 16.5L0.5 3.5A3 3 0 0 1 3.5 0.5" transform="matrix(1,0,0,-1,102.8,1280.5)" fill="rgb(0,0,0)" fill-opacity="0" stroke="#d2dbee"></path>
        <path d="M0 19.5L355.16 19.5L355.16 24.5A2 2 0 0 1 353.16 26.5L2 26.5A2 2 0 0 1 0 24.5L0 19.5" transform="matrix(1,0,0,-1,102.8,1280.5)" fill="#D2DBEE" fill-opacity="0.7"></path>
        <path d="M-2.2408 -1.6796C-1.8674 -1.6796 -1.6817 -1.4939 -1.6817 -1.1204L-1.6817 1.1204C-1.6817 1.4939 -1.8674 1.6796 -2.2408 1.6796C-2.6143 1.6796 -2.8 1.4939 -2.8 1.1204L-2.8 -1.1204C-2.8 -1.4939 -2.6143 -1.6796 -2.2408 -1.6796ZM0 -1.6796C0.3735 -1.6796 0.5592 -1.4939 0.5592 -1.1204L0.5592 1.1204C0.5592 1.4939 0.3735 1.6796 0 1.6796C-0.3735 1.6796 -0.5592 1.4939 -0.5592 1.1204L-0.5592 -1.1204C-0.5592 -1.4939 -0.3735 -1.6796 0 -1.6796ZM2.2408 -1.6796C2.6143 -1.6796 2.8 -1.4939 2.8 -1.1204L2.8 1.1204C2.8 1.4939 2.6143 1.6796 2.2408 1.6796C1.8674 1.6796 1.6817 1.4939 1.6817 1.1204L1.6817 -1.1204C1.6796 -1.4939 1.8674 -1.6796 2.2408 -1.6796Z" transform="matrix(1,0,0,-1,280.38,1257.5)" fill="#fff"></path>
        <path d="M0 0l1184 0l0 10l-1184 0Z" transform="matrix(0,-1,1,0,1466.5,1254)" fill="none"></path>
        <path d="M1124.8 0l59.2 0l0 10l-59.2 0Z" transform="matrix(0,-1,1,0,1466.5,1254)" fill="rgb(135,175,255)" fill-opacity="0.2"></path>
        <path d="M3.5 0.5L1180.5 0.5A3 3 0 0 1 1183.5 3.5L1183.5 6.5A3 3 0 0 1 1180.5 9.5L3.5 9.5A3 3 0 0 1 0.5 6.5L0.5 3.5A3 3 0 0 1 3.5 0.5" transform="matrix(0,-1,1,0,1466.5,1254)" fill="rgb(0,0,0)" fill-opacity="0" stroke="#d2dbee"></path>
        <path d="M1124.8 9.5L1184 9.5L1184 14.5A2 2 0 0 1 1182 16.5L1126.8 16.5A2 2 0 0 1 1124.8 14.5L1124.8 9.5" transform="matrix(0,-1,1,0,1466.5,1254)" fill="#D2DBEE" fill-opacity="0.7"></path>
        <path d="M-2.2408 -1.6796C-1.8674 -1.6796 -1.6817 -1.4939 -1.6817 -1.1204L-1.6817 1.1204C-1.6817 1.4939 -1.8674 1.6796 -2.2408 1.6796C-2.6143 1.6796 -2.8 1.4939 -2.8 1.1204L-2.8 -1.1204C-2.8 -1.4939 -2.6143 -1.6796 -2.2408 -1.6796ZM0 -1.6796C0.3735 -1.6796 0.5592 -1.4939 0.5592 -1.1204L0.5592 1.1204C0.5592 1.4939 0.3735 1.6796 0 1.6796C-0.3735 1.6796 -0.5592 1.4939 -0.5592 1.1204L-0.5592 -1.1204C-0.5592 -1.4939 -0.3735 -1.6796 0 -1.6796ZM2.2408 -1.6796C2.6143 -1.6796 2.8 -1.4939 2.8 -1.1204L2.8 1.1204C2.8 1.4939 2.6143 1.6796 2.2408 1.6796C1.8674 1.6796 1.6817 1.4939 1.6817 1.1204L1.6817 -1.1204C1.6796 -1.4939 1.8674 -1.6796 2.2408 -1.6796Z" transform="matrix(0,-1,1,0,1479.5,99.6)" fill="#fff"></path>
        <path d="M0.0793 0.0054L-0.0689 0.0054C-0.5873 0.0371 -1 0.471 -1 1C-1 1.529 -0.5873 1.9629 -0.0689 1.9946L0.0687 1.9946C0.5871 1.9629 0.9998 1.529 0.9998 1C1.0104 0.471 0.5977 0.0371 0.0793 0.0054ZM0.3544 1.328L-0.344 1.328L-0.344 1.1799L0.3544 1.1799L0.3544 1.328ZM0.3544 0.8201L-0.344 0.8201L-0.344 0.672L0.3544 0.672L0.3544 0.8201Z" transform="matrix(8,0,0,-8,103.8,1278.5)" fill="#fff" stroke="#ACB8D1" stroke-width="0.125"></path>
        <path d="M0.0793 0.0054L-0.0689 0.0054C-0.5873 0.0371 -1 0.471 -1 1C-1 1.529 -0.5873 1.9629 -0.0689 1.9946L0.0687 1.9946C0.5871 1.9629 0.9998 1.529 0.9998 1C1.0104 0.471 0.5977 0.0371 0.0793 0.0054ZM0.3544 1.328L-0.344 1.328L-0.344 1.1799L0.3544 1.1799L0.3544 1.328ZM0.3544 0.8201L-0.344 0.8201L-0.344 0.672L0.3544 0.672L0.3544 0.8201Z" transform="matrix(8,0,0,-8,456.96,1278.5)" fill="#fff" stroke="#ACB8D1" stroke-width="0.125"></path>
        <path d="M0 1.628L0 2M0 0L0 0.375M-0.1 0.375L0.1 0.375A0.1 0.1 0 0 1 0.2 0.475L0.2 1.525A0.1 0.1 0 0 1 0.1 1.625L-0.1 1.625A0.1 0.1 0 0 1 -0.2 1.525L-0.2 0.475A0.1 0.1 0 0 1 -0.1 0.375Z" transform="matrix(0,0,0,0,1471.5,128.2)" fill="#fff" stroke="#ACB8D1" stroke-width="0"></path>
        <path d="M0 1.628L0 2M0 0L0 0.375M-0.1 0.375L0.1 0.375A0.1 0.1 0 0 1 0.2 0.475L0.2 1.525A0.1 0.1 0 0 1 0.1 1.625L-0.1 1.625A0.1 0.1 0 0 1 -0.2 1.525L-0.2 0.475A0.1 0.1 0 0 1 -0.1 0.375Z" transform="matrix(0,0,0,0,1471.5,71)" fill="#fff" stroke="#ACB8D1" stroke-width="0"></path>
        <path d="M-17.5 -17.1619l35 0l0 34.3238l-35 0Z" transform="translate(37.5 17.1619)" fill="none" stroke="#ccc" stroke-width="0"></path>
        <path d="M-106.6631 -5l213.3262 0l0 28l-213.3262 0Z" transform="translate(743 5)" fill="rgb(0,0,0)" fill-opacity="0" stroke="#ccc" stroke-width="0"></path>
        <path
            d="M9.3466 -2.2385Q9.575 -2.2385 9.7349 -2.0785Q9.872 -1.9416 9.872 -1.7131L9.872 7.6746Q9.8492 8.5197 9.2894 9.0795Q8.7298 9.639 7.8847 9.6619L-8.0129 9.6619Q-8.858 9.639 -9.4289 9.068Q-9.9771 8.5197 -10 7.6746L-10 -7.6748Q-9.9771 -8.5199 -9.4289 -9.0908Q-8.858 -9.6619 -8.0129 -9.6619L2.1972 -9.6619Q2.4258 -9.6619 2.5627 -9.5248Q2.7226 -9.365 2.7226 -9.1594Q2.7226 -8.931 2.5742 -8.7826Q2.4258 -8.634 2.1972 -8.634L-7.9215 -8.634Q-8.3555 -8.6111 -8.6523 -8.3142Q-8.9492 -8.0174 -8.9492 -7.5834L-8.9492 7.5605Q-8.9492 8.0174 -8.6523 8.3142Q-8.3555 8.6111 -7.9215 8.6111L7.7933 8.6111Q8.2273 8.6111 8.5244 8.3142Q8.8213 8.0174 8.8441 7.5605L8.8441 -1.7131Q8.8441 -1.9416 8.9812 -2.0785Q9.141 -2.2385 9.3466 -2.2385ZM-0.361 4.4769L-3.6957 1.142L6.2631 -8.8168Q6.7199 -9.2736 7.3593 -9.2279Q7.999 -9.2051 8.5244 -8.7025L9.4607 -7.766Q9.9632 -7.2408 9.9976 -6.6012Q10.0318 -5.9615 9.575 -5.482L-0.361 4.4769ZM6.9939 -8.0859L5.8976 -6.9894L7.7476 -5.1164L8.8441 -6.2357Q9.0041 -6.4183 9.0041 -6.6469Q8.9812 -6.898 8.7984 -7.0808L7.8619 -8.0402Q7.6564 -8.2228 7.405 -8.2228Q7.1767 -8.2457 6.9939 -8.0859ZM6.9482 -4.3398L5.1209 -6.2129L-2.3026 1.2105L-0.4524 3.0607L6.9482 -4.3398ZM-3.6957 1.142L-2.942 1.9187L-3.6045 4.3627L-1.1604 3.7002L-0.4067 4.4541L-4.1525 5.4818Q-4.2668 5.5047 -4.3924 5.4818Q-4.5182 5.459 -4.6094 5.3678Q-4.7008 5.2764 -4.7236 5.1392Q-4.7693 5.025 -4.7236 4.9109L-3.6957 1.142Z"
            transform="translate(37.5 17.1619)" fill="none" stroke="#666"></path><text dominant-baseline="central" text-anchor="middle" xml:space="preserve" y="9" transform="translate(743 5)" fill="#464646" style="font-size: 18px; font-family: &quot;Microsoft YaHei&quot;; font-weight: bold;">Gantt of Airport Flight</text>
    </g>
</svg>