<?xml version='1.0' encoding='utf-8'?>
<svg height="340" style="max-width: 100%; height: auto; font: 10px sans-serif;" viewBox="-70,-30,880,340" width="900" xmlns="http://www.w3.org/2000/svg">
<style type="text/css">.st0 {
    fill: hsl(5, 94%, 53%);
    stroke: hsl(0, 0%, 90%);
}

.st1 {
    fill: hsl(327, 87%, 53%);
    stroke: hsl(0, 0%, 100%);
}

.st2 {
    fill: hsl(258, 45%, 77%);
    stroke: hsl(0, 0%, 100%);
}

.st3 {
    fill: hsl(217, 71%, 57%);
    stroke: hsl(0, 0%, 100%);
}

.st4 {
    fill: none;
    stroke: hsl(0, 0%, 18%);
    stroke-width: 2;
}

.st5 {
    fill: hsl(0, 0%, 31%);
}</style>
<g id="Layer_2">
<rect class="st0" height="53.3" width="131.3" x="509.6" y="22.5" />
<rect class="st0" height="67.3" width="66.6" x="640.9" y="22.5" />
<rect class="st1" height="52.5" width="196.9" x="312.7" y="49.6" />
<rect class="st0" height="52.5" width="196.9" x="312.7" y="22.4" />
<rect class="st2" height="78.3" width="66.6" x="640.9" y="154" />
<rect class="st1" height="65.5" width="66.6" x="640.9" y="88.5" />
<rect class="st0" height="13.6" width="262.5" x="50.1" y="22.5" />
<rect class="st2" height="78.3" width="131.3" x="509.6" y="127.9" />
<rect class="st1" height="52.2" width="131.3" x="509.6" y="75.7" />
<rect class="st2" height="78.3" width="196.9" x="312.7" y="101.8" />
<rect class="st2" height="64.9" width="262.5" x="50.1" y="63" />
<rect class="st1" height="27.2" width="262.5" x="50.1" y="35.8" />
<rect class="st3" height="52.2" width="67.5" x="640" y="232.3" />
<rect class="st3" height="104.4" width="196.9" x="312.7" y="180.1" />
<rect class="st3" height="78.3" width="131.3" x="509.6" y="206.2" />
<rect class="st3" height="156.6" width="262.5" x="50.1" y="127.9" />
</g>
</svg>