<?xml version='1.0' encoding='utf-8'?>
<svg height="340" style="max-width: 100%; height: auto; font: 10px sans-serif;" viewBox="-70,-30,880,340" width="900" xmlns="http://www.w3.org/2000/svg">
<style type="text/css">.st0 {
    fill-rule: evenodd;
    clip-rule: evenodd;
    fill: hsl(212, 60%, 71%);
}

.st1 {
    fill: none;
    stroke: hsl(0, 0%, 98%);
    stroke-width: 0.6737;
}

.st2 {
    fill-rule: evenodd;
    clip-rule: evenodd;
    fill: hsl(0, 0%, 54%);
}

.st3 {
    fill-rule: evenodd;
    clip-rule: evenodd;
    fill: hsl(0, 94%, 77%);
}

.st4 {
    fill: hsl(0, 0%, 19%);
}

.st5 {
    fill: hsl(0, 0%, 10%);
}</style>
<g id="Layer_1">
</g>
<g id="Layer_2">
<path class="st0" d="M33.1,166.2c0-20.4,5.4-40.4,15.6-58.1l100.6,58.1H33.1z" />
<path class="st1" d="M33.1,166.2c0-20.4,5.4-40.4,15.6-58.1l100.6,58.1H33.1z" />
<path class="st2" d="M109.2,166.2c0-7.1,1.9-14,5.4-20.1l34.8,20.1H109.2z" />
<path class="st1" d="M109.2,166.2c0-7,1.9-14,5.4-20.1l34.8,20.1H109.2z" />
<path class="st3" d="M112.5,166.2c0-6.5,1.7-12.8,4.9-18.4l31.9,18.4H112.5z" />
<path class="st1" d="M112.5,166.2c0-6.5,1.7-12.8,4.9-18.4l31.9,18.4H112.5z" />
<g>
<path class="st4" d="M31.1,139.9l-5-3.7l0.2-0.6l6.1-0.6l-0.1,0.5l-1.9,0.2l-0.7,2.5l1.6,1.1L31.1,139.9z M29.3,137.9l0.6-2.2    l-3.2,0.3L29.3,137.9z" />
</g>
<g>
<path class="st4" d="M34.7,132.8l-0.1,0.5l-5.6-1.5l0.1-0.5l0.7,0.2l0,0c-0.1-0.1-0.2-0.2-0.3-0.4c-0.1-0.1-0.1-0.3-0.2-0.4    c0-0.1-0.1-0.3,0-0.4c0-0.1,0-0.3,0.1-0.4c0.1-0.3,0.2-0.6,0.4-0.8c0.2-0.2,0.4-0.3,0.6-0.4c0.2-0.1,0.5-0.1,0.8-0.1    c0.3,0,0.6,0,0.9,0.1c0.3,0.1,0.5,0.2,0.8,0.3c0.2,0.1,0.4,0.3,0.6,0.5c0.2,0.2,0.3,0.4,0.3,0.7c0.1,0.3,0,0.5,0,0.8    c-0.1,0.3-0.2,0.5-0.4,0.8c-0.2,0.2-0.4,0.4-0.7,0.5L34.7,132.8z M31.2,131.9c0.2,0.1,0.4,0.1,0.7,0.1c0.2,0,0.4,0,0.6-0.1    c0.2-0.1,0.3-0.2,0.5-0.3c0.1-0.1,0.2-0.3,0.3-0.5c0.1-0.2,0.1-0.5,0-0.7c0-0.2-0.1-0.4-0.3-0.5c-0.1-0.2-0.3-0.3-0.5-0.4    s-0.4-0.2-0.7-0.3c-0.3-0.1-0.5-0.1-0.7-0.1c-0.2,0-0.4,0.1-0.6,0.2s-0.3,0.2-0.4,0.4c-0.1,0.1-0.2,0.3-0.2,0.5    c-0.1,0.2-0.1,0.4,0,0.6c0,0.2,0.1,0.4,0.2,0.5c0.1,0.2,0.3,0.3,0.5,0.4C30.7,131.7,30.9,131.8,31.2,131.9z" />
</g>
<g>
<path class="st4" d="M34.6,127l-0.1,0.5l-4-1.1l0.1-0.5l0.7,0.2l0,0c-0.3-0.2-0.5-0.4-0.5-0.7c-0.1-0.2-0.1-0.5,0-0.9l0.5,0.1    c-0.1,0.3-0.1,0.5-0.1,0.7c0,0.2,0.1,0.4,0.2,0.5c0.1,0.1,0.3,0.3,0.5,0.4c0.2,0.1,0.4,0.2,0.6,0.2L34.6,127z" />
</g>
<path class="st0" d="M50.3,109.1c10-17.4,24.5-31.8,41.8-41.8l57.2,99L50.3,109.1z" />
<path class="st1" d="M50.3,109.1c10-17.4,24.5-31.8,41.8-41.8l57.2,99L50.3,109.1z" />
<path class="st3" d="M118.6,148.5c3.1-5.4,7.6-9.9,13-13l17.8,30.7L118.6,148.5z" />
<path class="st1" d="M118.6,148.5c3.1-5.4,7.6-9.9,13-13l17.8,30.7L118.6,148.5z" />
<path class="st2" d="M122.6,150.8c2.7-4.7,6.6-8.6,11.3-11.3l15.4,26.7L122.6,150.8z" />
<path class="st1" d="M122.6,150.8c2.7-4.7,6.6-8.6,11.3-11.3l15.4,26.7L122.6,150.8z" />
<g>
<path class="st4" d="M59.3,87.4l-4.1-4l0.6-0.6l5,2.2l0,0L58.4,80l0.6-0.6l4.1,4l-0.4,0.4l-3.7-3.6l0,0l2.4,4.9L61,85.6l-5-2.2    l0,0l3.7,3.6L59.3,87.4z" />
</g>
<g>
<path class="st4" d="M64.8,78.3c0.1-0.1,0.1-0.2,0.2-0.3c0.1-0.1,0.1-0.2,0.2-0.3s0-0.2,0-0.2c0-0.1-0.1-0.1-0.2-0.2    c-0.2-0.2-0.4-0.3-0.6-0.3c-0.2,0-0.5,0.1-0.7,0.4c-0.1,0.1-0.2,0.2-0.3,0.4c-0.1,0.1-0.1,0.2-0.1,0.4c0,0.1,0,0.3,0,0.4    c0,0.1,0.1,0.3,0.2,0.4l-0.3,0.3c-0.2-0.2-0.3-0.4-0.3-0.6c-0.1-0.2-0.1-0.4,0-0.6c0-0.2,0.1-0.4,0.2-0.5c0.1-0.2,0.2-0.3,0.4-0.5    c0.1-0.1,0.3-0.3,0.5-0.4c0.2-0.1,0.3-0.2,0.5-0.2c0.2,0,0.3,0,0.5,0c0.2,0.1,0.3,0.2,0.5,0.3l1.6,1.6c0.1,0.1,0.2,0.2,0.3,0.2    c0.1,0,0.2-0.1,0.3-0.3l0.3,0.3c0,0,0,0.1-0.1,0.2c0,0.1-0.1,0.1-0.1,0.2c-0.1,0.1-0.1,0.1-0.2,0.1c-0.1,0.1-0.1,0.1-0.2,0.1    c-0.1,0-0.1,0-0.2,0c-0.1,0-0.1,0-0.2-0.1c-0.1,0-0.1-0.1-0.2-0.1c0,0.3,0,0.6-0.1,0.9c-0.1,0.3-0.3,0.5-0.5,0.7    c-0.1,0.1-0.3,0.2-0.4,0.3s-0.3,0.1-0.5,0.2c-0.2,0-0.3,0-0.5,0c-0.2,0-0.3-0.1-0.5-0.3c-0.5-0.5-0.5-1.1,0.1-1.9L64.8,78.3z     M65.5,77.9c-0.1,0.2-0.2,0.4-0.3,0.6c-0.1,0.2-0.3,0.3-0.4,0.5c-0.2,0.3-0.4,0.5-0.4,0.8s0,0.5,0.2,0.7c0.1,0.1,0.2,0.1,0.3,0.2    c0.1,0,0.2,0,0.3,0c0.1,0,0.2-0.1,0.3-0.1c0.1-0.1,0.2-0.1,0.3-0.2c0.1-0.1,0.2-0.3,0.3-0.5c0.1-0.2,0.2-0.3,0.2-0.5    c0-0.2,0-0.3,0-0.5c0-0.2-0.1-0.3-0.3-0.5L65.5,77.9z" />
</g>
<g>
<path class="st4" d="M69.9,78.1c0.1,0,0.1-0.1,0.2-0.1c0.1,0,0.1-0.1,0.2-0.1c0.1-0.1,0.1-0.2,0.1-0.3c0-0.1,0-0.2-0.1-0.4    s-0.1-0.2-0.2-0.4c-0.1-0.1-0.1-0.2-0.1-0.3l-4.1-1.8l0.4-0.4l3.5,1.5l-1.6-3.4l0.4-0.4l1.8,4c0.1,0.3,0.2,0.5,0.3,0.7    c0.1,0.2,0.1,0.4,0.2,0.6c0,0.2,0,0.3,0,0.5s-0.1,0.3-0.2,0.4c-0.1,0.1-0.1,0.1-0.2,0.2s-0.1,0.1-0.2,0.1L69.9,78.1z" />
</g>
<path class="st0" d="M80.7,47.4c20.9-12,44.5-18.4,68.6-18.4v137.2L80.7,47.4z" />
<path class="st1" d="M80.7,47.4c20.9-12,44.5-18.4,68.6-18.4v137.2L80.7,47.4z" />
<path class="st3" d="M114.3,105.6c10.6-6.1,22.7-9.4,35-9.4v70.1L114.3,105.6z" />
<path class="st1" d="M114.3,105.6c10.6-6.1,22.7-9.4,35-9.4v70.1L114.3,105.6z" />
<path class="st2" d="M135.8,142.9c4.1-2.4,8.8-3.6,13.5-3.6v27L135.8,142.9z" />
<path class="st1" d="M135.8,142.9c4.1-2.4,8.8-3.6,13.5-3.6v27L135.8,142.9z" />
<g>
<path class="st4" d="M104.4,29.9c0,0.2,0.1,0.3,0.2,0.5c0.1,0.2,0.1,0.3,0.2,0.4c0.1,0.1,0.2,0.2,0.4,0.2c0.2,0,0.4,0,0.6,0    c0.4-0.1,0.6-0.3,0.7-0.5c0.1-0.2,0.1-0.6,0-1l-1.1-4l0.5-0.1l1.1,4c0.1,0.5,0.1,1,0,1.3c-0.2,0.4-0.5,0.6-1.1,0.7    c-0.3,0.1-0.6,0.1-0.8,0c-0.2-0.1-0.4-0.2-0.6-0.3s-0.3-0.3-0.4-0.6c-0.1-0.2-0.2-0.5-0.2-0.7L104.4,29.9z" />
</g>
<g>
<path class="st4" d="M111.2,25.7l0.5-0.1l1.1,4l-0.5,0.1l-0.1-0.6c0,0.1-0.1,0.2-0.1,0.3c-0.1,0.1-0.1,0.2-0.2,0.3    c-0.1,0.1-0.2,0.2-0.3,0.3c-0.1,0.1-0.3,0.1-0.4,0.2c-0.3,0.1-0.5,0.1-0.7,0.1s-0.4-0.1-0.5-0.2c-0.1-0.1-0.3-0.2-0.4-0.4    c-0.1-0.2-0.2-0.4-0.2-0.6l-0.7-2.6l0.5-0.1l0.7,2.6c0.1,0.3,0.2,0.6,0.5,0.7c0.2,0.1,0.5,0.2,0.9,0.1c0.2-0.1,0.4-0.1,0.5-0.2    c0.1-0.1,0.2-0.3,0.3-0.4c0.1-0.2,0.1-0.3,0.1-0.5c0-0.2,0-0.4-0.1-0.6L111.2,25.7z" />
</g>
<g>
<path class="st4" d="M115.5,28.8l-0.5,0.1l-1.1-4l0.5-0.1l0.1,0.6c0.1-0.2,0.3-0.5,0.4-0.6c0.2-0.2,0.4-0.3,0.7-0.4    c0.2-0.1,0.5-0.1,0.7-0.1s0.5,0.1,0.7,0.3c0.1,0.1,0.2,0.2,0.3,0.4c0.1,0.1,0.1,0.3,0.2,0.5l0.7,2.6l-0.5,0.1l-0.7-2.6    c-0.1-0.4-0.2-0.6-0.5-0.7c-0.2-0.1-0.5-0.2-0.9-0.1c-0.1,0-0.3,0.1-0.4,0.2s-0.2,0.2-0.3,0.3c-0.1,0.1-0.1,0.2-0.2,0.3    c0,0.1-0.1,0.2-0.1,0.3c0,0.1,0,0.3,0,0.4c0,0.1,0.1,0.3,0.1,0.4L115.5,28.8z" />
</g>
<path class="st0" d="M149.3,75.8c15.9,0,31.5,4.2,45.2,12.1l-45.2,78.3V75.8z" />
<path class="st1" d="M149.3,75.8c15.9,0,31.5,4.2,45.2,12.1l-45.2,78.3V75.8z" />
<path class="st3" d="M149.3,112.7c9.4,0,18.6,2.5,26.8,7.2l-26.8,46.4V112.7z" />
<path class="st1" d="M149.3,112.7c9.4,0,18.6,2.5,26.8,7.2l-26.8,46.4V112.7z" />
<path class="st2" d="M149.3,139.7c4.7,0,9.2,1.2,13.3,3.6l-13.3,23V139.7z" />
<path class="st1" d="M149.3,139.7c4.7,0,9.2,1.2,13.3,3.6l-13.3,23V139.7z" />
<g>
<path class="st4" d="M168.6,72.2c0,0.2-0.1,0.4-0.1,0.5c0,0.2,0,0.3,0,0.5c0,0.2,0.1,0.3,0.2,0.4c0.1,0.1,0.3,0.2,0.6,0.2    c0.4,0.1,0.6,0,0.8-0.2c0.2-0.2,0.3-0.5,0.4-0.9l0.7-4.1l0.5,0.1l-0.7,4.1c-0.1,0.6-0.3,0.9-0.6,1.2s-0.7,0.3-1.3,0.2    c-0.3-0.1-0.6-0.2-0.7-0.3c-0.2-0.1-0.3-0.3-0.4-0.5c-0.1-0.2-0.1-0.4-0.1-0.7c0-0.2,0-0.5,0.1-0.7L168.6,72.2z" />
</g>
<g>
<path class="st4" d="M176.6,71.3l0.5,0.1l-0.7,4.1l-0.5-0.1l0.1-0.6c-0.1,0.1-0.2,0.1-0.3,0.2c-0.1,0.1-0.2,0.1-0.3,0.2    c-0.1,0-0.2,0.1-0.4,0.1c-0.1,0-0.3,0-0.5,0c-0.3,0-0.5-0.1-0.7-0.2c-0.2-0.1-0.3-0.2-0.4-0.4c-0.1-0.2-0.1-0.3-0.2-0.5    c0-0.2,0-0.4,0-0.6l0.5-2.7l0.5,0.1l-0.5,2.7c-0.1,0.4,0,0.6,0.1,0.9c0.1,0.2,0.4,0.4,0.8,0.4c0.2,0,0.4,0,0.5,0    c0.2,0,0.3-0.1,0.4-0.2c0.1-0.1,0.2-0.3,0.3-0.4s0.2-0.4,0.2-0.6L176.6,71.3z" />
</g>
<g>
<path class="st4" d="M178.7,75.9l1-5.7l0.5,0.1l-1,5.7L178.7,75.9z" />
</g>
<path class="st0" d="M199,80.1c15.1,8.7,27.7,21.3,36.4,36.4l-86.1,49.7L199,80.1z" />
<path class="st1" d="M199,80.1c15.1,8.7,27.7,21.3,36.4,36.4l-86.1,49.7L199,80.1z" />
<path class="st3" d="M178.3,116.1c8.8,5.1,16.1,12.4,21.2,21.2l-50.2,29L178.3,116.1z" />
<path class="st1" d="M178.3,116.1c8.8,5.1,16.1,12.4,21.2,21.2l-50.2,29L178.3,116.1z" />
<path class="st2" d="M160.6,146.6c3.4,2,6.3,4.8,8.3,8.3l-19.6,11.3L160.6,146.6z" />
<path class="st1" d="M160.6,146.6c3.4,2,6.3,4.8,8.3,8.3l-19.6,11.3L160.6,146.6z" />
<g>
<path class="st4" d="M216.5,86.5l5.7-2.5l0.4,0.4l-2.5,5.6l-0.4-0.4l0.8-1.7l-1.9-1.9l-1.8,0.8L216.5,86.5z M219.1,85.9l1.6,1.6    l1.3-2.9L219.1,85.9z" />
</g>
<g>
<path class="st4" d="M226.5,90.7l0.3,0.3l-2.9,2.9l-0.3-0.3l0.4-0.4c-0.1,0-0.2,0-0.3,0s-0.2,0-0.4,0c-0.1,0-0.2-0.1-0.4-0.1    c-0.1-0.1-0.3-0.2-0.4-0.3c-0.2-0.2-0.3-0.4-0.4-0.6c-0.1-0.2-0.1-0.4-0.1-0.5c0-0.2,0.1-0.4,0.2-0.5c0.1-0.2,0.2-0.3,0.4-0.5    l1.9-1.9l0.3,0.3L223,91c-0.3,0.3-0.4,0.5-0.4,0.8c0,0.3,0.1,0.5,0.4,0.8c0.1,0.1,0.3,0.2,0.5,0.3c0.2,0.1,0.3,0.1,0.5,0.1    c0.2,0,0.3-0.1,0.5-0.2s0.3-0.2,0.5-0.4L226.5,90.7z" />
</g>
<g>
<path class="st4" d="M230.8,95l0.3,0.3l-2.6,2.6c-0.2,0.2-0.4,0.4-0.6,0.5c-0.2,0.1-0.4,0.2-0.7,0.3c-0.2,0-0.5,0-0.7-0.1    c-0.3-0.1-0.5-0.3-0.8-0.6c-0.2-0.2-0.4-0.4-0.5-0.6c-0.1-0.2-0.2-0.4-0.2-0.6s0-0.3,0.1-0.5c0-0.2,0.1-0.3,0.2-0.4l0.4,0.4    c-0.1,0.1-0.1,0.3-0.1,0.4s0,0.2,0,0.4c0,0.1,0.1,0.2,0.2,0.3c0.1,0.1,0.2,0.2,0.3,0.3c0.2,0.2,0.5,0.4,0.7,0.4    c0.2,0.1,0.4,0.1,0.6,0s0.4-0.2,0.6-0.3c0.2-0.1,0.4-0.3,0.5-0.5c-0.3,0.1-0.6,0.1-0.9,0c-0.3-0.1-0.5-0.3-0.7-0.5    c-0.2-0.2-0.4-0.5-0.5-0.7c-0.1-0.2-0.1-0.5-0.1-0.7c0-0.2,0.1-0.5,0.3-0.7c0.1-0.2,0.3-0.5,0.5-0.7c0.2-0.2,0.4-0.4,0.7-0.5    c0.2-0.1,0.5-0.2,0.7-0.3c0.2,0,0.5,0,0.7,0.1c0.2,0.1,0.5,0.2,0.7,0.5c0.1,0.1,0.2,0.2,0.2,0.3c0.1,0.1,0.1,0.3,0.2,0.4    c0,0.1,0.1,0.3,0.1,0.4c0,0.2,0,0.3-0.1,0.4l0,0L230.8,95z M229.3,96.4c0.2-0.2,0.3-0.4,0.4-0.6c0.1-0.2,0.2-0.4,0.2-0.6    c0-0.2,0-0.4,0-0.6c-0.1-0.2-0.2-0.4-0.3-0.5c-0.1-0.1-0.3-0.2-0.5-0.3c-0.2-0.1-0.4-0.1-0.5-0.1c-0.2,0-0.4,0.1-0.6,0.1    c-0.2,0.1-0.4,0.2-0.6,0.4c-0.2,0.2-0.4,0.4-0.5,0.6c-0.1,0.2-0.2,0.4-0.2,0.6c0,0.2,0,0.4,0,0.6c0.1,0.2,0.2,0.4,0.4,0.6    c0.2,0.2,0.3,0.3,0.5,0.3s0.4,0.1,0.6,0c0.2,0,0.4-0.1,0.6-0.2C229,96.7,229.2,96.6,229.3,96.4z" />
</g>
<path class="st3" d="M212.2,129.9c6.4,11,9.7,23.6,9.7,36.3h-72.6L212.2,129.9z" />
<path class="st1" d="M212.2,129.9c6.4,11,9.7,23.6,9.7,36.3h-72.6L212.2,129.9z" />
<path class="st0" d="M201.4,136.2c5.3,9.1,8.1,19.5,8.1,30.1h-60.1L201.4,136.2z" />
<path class="st1" d="M201.4,136.2c5.3,9.1,8.1,19.5,8.1,30.1h-60.1L201.4,136.2z" />
<path class="st2" d="M166.3,156.5c1.7,3,2.6,6.3,2.6,9.8h-19.6L166.3,156.5z" />
<path class="st1" d="M166.3,156.5c1.7,3,2.6,6.3,2.6,9.8h-19.6L166.3,156.5z" />
<g>
<path class="st4" d="M224.4,135c-0.2,0.1-0.4,0.2-0.6,0.3c-0.1,0.1-0.3,0.3-0.3,0.5c-0.1,0.2-0.1,0.4-0.1,0.6c0,0.2,0,0.4,0.1,0.6    c0.1,0.2,0.2,0.5,0.3,0.6s0.2,0.3,0.4,0.4c0.1,0.1,0.3,0.1,0.4,0.2c0.2,0,0.3,0,0.5,0c0.2-0.1,0.4-0.2,0.5-0.3    c0.1-0.1,0.2-0.3,0.2-0.5c0-0.2,0.1-0.4,0.1-0.6c0-0.2,0-0.4,0-0.7c0-0.2,0-0.5,0-0.7c0-0.2,0.1-0.4,0.1-0.6    c0.1-0.2,0.2-0.4,0.3-0.5c0.2-0.1,0.4-0.3,0.6-0.3c0.2-0.1,0.4-0.1,0.6,0c0.2,0,0.4,0.1,0.6,0.2c0.2,0.1,0.3,0.3,0.5,0.5    c0.1,0.2,0.3,0.5,0.3,0.8c0.1,0.3,0.1,0.6,0.1,0.9c0,0.3-0.1,0.5-0.2,0.7c-0.1,0.2-0.3,0.4-0.4,0.5c-0.2,0.1-0.4,0.2-0.6,0.3    l-0.1-0.5c0.2-0.1,0.4-0.1,0.5-0.3c0.1-0.1,0.2-0.3,0.3-0.4c0.1-0.2,0.1-0.3,0.1-0.5c0-0.2,0-0.4-0.1-0.5    c-0.1-0.3-0.2-0.5-0.3-0.6s-0.3-0.3-0.4-0.4c-0.1-0.1-0.3-0.1-0.5-0.1c-0.2,0-0.3,0-0.4,0.1c-0.2,0.1-0.3,0.2-0.4,0.3    s-0.1,0.3-0.2,0.5c0,0.2,0,0.4,0,0.6c0,0.2,0,0.4,0,0.6c0,0.2,0,0.4,0,0.6c0,0.2-0.1,0.4-0.1,0.6c-0.1,0.2-0.2,0.3-0.3,0.5    c-0.2,0.1-0.4,0.2-0.6,0.3c-0.5,0.1-1,0.1-1.3-0.2c-0.4-0.3-0.7-0.7-0.8-1.4c-0.1-0.3-0.1-0.6-0.1-0.8c0-0.3,0.1-0.5,0.2-0.7    c0.1-0.2,0.3-0.4,0.5-0.6c0.2-0.2,0.4-0.3,0.8-0.4L224.4,135z" />
</g>
<g>
<path class="st4" d="M226.4,141.5c-0.2,0.1-0.4,0.1-0.6,0.2c-0.2,0.1-0.3,0.2-0.4,0.4c-0.1,0.1-0.2,0.3-0.2,0.5c0,0.2,0,0.4,0,0.6    c0.1,0.3,0.2,0.5,0.4,0.7c0.2,0.2,0.5,0.3,0.8,0.2l0.1,0.5c-0.2,0-0.4,0-0.6-0.1s-0.4-0.1-0.5-0.2c-0.2-0.1-0.3-0.2-0.4-0.4    c-0.1-0.2-0.2-0.4-0.3-0.6c-0.1-0.3-0.1-0.6-0.1-0.9c0-0.3,0.1-0.5,0.3-0.7c0.1-0.2,0.3-0.4,0.6-0.5c0.2-0.1,0.5-0.2,0.8-0.3    c0.3-0.1,0.6-0.1,0.9-0.1c0.3,0,0.5,0.1,0.8,0.2s0.4,0.3,0.6,0.5c0.2,0.2,0.3,0.4,0.4,0.7c0.1,0.6,0.1,1-0.2,1.5    c-0.3,0.4-0.8,0.7-1.5,0.9L226.4,141.5z M227.4,144c0.2-0.1,0.4-0.1,0.5-0.2c0.2-0.1,0.3-0.2,0.4-0.4c0.1-0.1,0.2-0.3,0.2-0.5    c0-0.2,0-0.4,0-0.6s-0.1-0.4-0.3-0.5c-0.1-0.1-0.3-0.2-0.4-0.3c-0.2-0.1-0.3-0.1-0.5-0.1c-0.2,0-0.4,0-0.6,0L227.4,144z" />
</g>
<g>
<path class="st4" d="M224.4,148.1l-0.1-0.5l5.6-1.5l0.1,0.5l-0.7,0.2l0,0c0.1,0,0.3,0.1,0.4,0.2c0.1,0.1,0.2,0.2,0.3,0.3    c0.1,0.1,0.2,0.2,0.3,0.3c0.1,0.1,0.1,0.2,0.2,0.4c0.1,0.3,0.1,0.6,0.1,0.9c0,0.3-0.1,0.5-0.3,0.7c-0.1,0.2-0.3,0.4-0.6,0.5    c-0.2,0.1-0.5,0.2-0.8,0.3c-0.3,0.1-0.6,0.1-0.8,0.1c-0.3,0-0.5-0.1-0.8-0.1c-0.2-0.1-0.4-0.2-0.6-0.4c-0.2-0.2-0.3-0.4-0.4-0.7    c-0.1-0.3-0.1-0.6,0-0.9c0.1-0.3,0.2-0.5,0.4-0.8L224.4,148.1z M228,147.1c-0.2,0.1-0.4,0.1-0.6,0.3c-0.2,0.1-0.3,0.3-0.5,0.4    c-0.1,0.2-0.2,0.3-0.2,0.5c0,0.2,0,0.4,0,0.6c0.1,0.2,0.2,0.4,0.3,0.6c0.1,0.2,0.3,0.3,0.5,0.3c0.2,0.1,0.4,0.1,0.6,0.1    c0.2,0,0.5,0,0.7-0.1c0.3-0.1,0.5-0.2,0.6-0.3c0.2-0.1,0.3-0.3,0.4-0.4c0.1-0.2,0.2-0.3,0.2-0.5c0-0.2,0-0.4,0-0.6    c-0.1-0.2-0.2-0.4-0.3-0.5c-0.1-0.1-0.3-0.3-0.5-0.3c-0.2-0.1-0.4-0.1-0.6-0.1C228.4,147,228.2,147.1,228,147.1z" />
</g>
<path class="st0" d="M199.3,166.2c0,8.8-2.3,17.4-6.7,25l-43.2-25H199.3z" />
<path class="st1" d="M199.3,166.2c0,8.8-2.3,17.4-6.7,25l-43.2-25H199.3z" />
<path class="st3" d="M181.5,166.2c0,5.6-1.5,11.2-4.3,16.1l-27.8-16.1H181.5z" />
<path class="st1" d="M181.5,166.2c0,5.6-1.5,11.2-4.3,16.1l-27.8-16.1H181.5z" />
<path class="st2" d="M168,166.2c0,3.3-0.9,6.5-2.5,9.4l-16.2-9.4H168z" />
<path class="st1" d="M168,166.2c0,3.3-0.9,6.5-2.5,9.4l-16.2-9.4H168z" />
<g>
<path class="st4" d="M208,173.7c0.4,0.1,0.8,0.3,1.1,0.5c0.3,0.2,0.6,0.5,0.8,0.7c0.2,0.3,0.3,0.6,0.4,1c0.1,0.4,0,0.8-0.1,1.2    c-0.1,0.4-0.3,0.8-0.5,1.1c-0.2,0.3-0.5,0.5-0.8,0.7c-0.3,0.1-0.7,0.2-1.1,0.2c-0.4,0-0.8,0-1.2-0.1c-0.4-0.1-0.8-0.3-1.1-0.5    c-0.3-0.2-0.6-0.5-0.8-0.7c-0.2-0.3-0.3-0.6-0.4-1c-0.1-0.4,0-0.8,0.1-1.2c0.1-0.4,0.3-0.8,0.5-1.1c0.2-0.3,0.5-0.5,0.8-0.6    c0.3-0.1,0.7-0.2,1.1-0.2C207.2,173.5,207.6,173.6,208,173.7z M204.8,175.6c-0.1,0.4-0.1,0.7,0,1c0.1,0.3,0.2,0.6,0.4,0.8    c0.2,0.2,0.4,0.4,0.7,0.6c0.3,0.2,0.6,0.3,0.9,0.4c0.4,0.1,0.7,0.1,1.1,0.1c0.3,0,0.6-0.1,0.9-0.2c0.3-0.1,0.5-0.3,0.7-0.5    c0.2-0.2,0.3-0.5,0.4-0.8c0.1-0.4,0.1-0.7,0-1c-0.1-0.3-0.2-0.6-0.4-0.8c-0.2-0.2-0.4-0.4-0.7-0.6c-0.3-0.2-0.6-0.3-0.9-0.4    c-0.3-0.1-0.7-0.1-1-0.1c-0.3,0-0.6,0.1-0.9,0.2c-0.3,0.1-0.5,0.3-0.7,0.5C205.1,175,204.9,175.3,204.8,175.6z" />
</g>
<g>
<path class="st4" d="M205.1,184.3c0.3,0,0.6-0.1,0.8-0.2c0.2-0.2,0.4-0.4,0.5-0.7c0.1-0.2,0.1-0.5,0-0.7c-0.1-0.2-0.1-0.4-0.3-0.5    c-0.1-0.2-0.3-0.3-0.5-0.4c-0.2-0.1-0.4-0.2-0.6-0.2c-0.2-0.1-0.4-0.1-0.6-0.1s-0.4,0-0.6,0.1c-0.2,0.1-0.4,0.2-0.5,0.3    c-0.1,0.1-0.2,0.3-0.3,0.6c-0.1,0.3-0.1,0.6,0.1,0.9c0.1,0.3,0.4,0.5,0.7,0.6l-0.1,0.5c-0.2-0.1-0.4-0.2-0.6-0.4    c-0.2-0.1-0.3-0.3-0.4-0.5s-0.2-0.4-0.2-0.6c0-0.2,0-0.4,0.1-0.7c0.1-0.3,0.2-0.6,0.4-0.8c0.2-0.2,0.4-0.4,0.6-0.5    c0.2-0.1,0.5-0.2,0.8-0.2c0.3,0,0.6,0,0.9,0.1c0.3,0.1,0.5,0.2,0.8,0.3c0.2,0.1,0.4,0.3,0.6,0.5c0.2,0.2,0.3,0.4,0.3,0.7    c0.1,0.3,0,0.5,0,0.8c-0.1,0.5-0.3,0.8-0.6,1c-0.3,0.2-0.7,0.3-1.2,0.3L205.1,184.3z" />
</g>
<g>
<path class="st4" d="M201.4,187c0-0.1,0-0.1,0-0.2c0-0.1,0-0.2,0-0.3c0.1-0.2,0.2-0.4,0.3-0.5s0.4-0.1,0.7,0l2.9,0.8l0.2-0.6    l0.4,0.1l-0.2,0.6l1.1,0.3l-0.1,0.5l-1.1-0.3l-0.2,0.8l-0.4-0.1l0.2-0.8l-2.7-0.7c-0.1,0-0.2,0-0.3-0.1c-0.1,0-0.1,0-0.2,0    c-0.1,0-0.1,0-0.1,0.1c0,0-0.1,0.1-0.1,0.2c0,0.1,0,0.1,0,0.2c0,0.1,0,0.1,0,0.2L201.4,187z" />
</g>
<path class="st0" d="M206.1,199c-5.7,10-14,18.2-24,24l-32.8-56.7L206.1,199z" />
<path class="st1" d="M206.1,199c-5.7,10-14,18.2-24,24l-32.8-56.7L206.1,199z" />
<path class="st3" d="M173.8,180.3c-2.5,4.3-6,7.8-10.3,10.3l-14.1-24.4L173.8,180.3z" />
<path class="st1" d="M173.8,180.3c-2.5,4.3-6,7.8-10.3,10.3l-14.1-24.4L173.8,180.3z" />
<path class="st2" d="M173.4,180.1c-2.4,4.2-5.9,7.7-10.2,10.2l-13.9-24.1L173.4,180.1z" />
<path class="st1" d="M173.4,180.1c-2.4,4.2-5.9,7.7-10.2,10.2l-13.9-24.1L173.4,180.1z" />
<g>
<path class="st4" d="M209.5,213.9L209.5,213.9l-3.5-3.6l0.4-0.4l4.1,4.1l-0.4,0.4l-5.9-1.2l0,0l3.6,3.6l-0.4,0.4l-4.1-4.1l0.4-0.4    L209.5,213.9z" />
</g>
<g>
<path class="st4" d="M200,216.1c0.2-0.2,0.4-0.3,0.6-0.4c0.2-0.1,0.5-0.1,0.7-0.1c0.3,0,0.5,0.1,0.8,0.2c0.3,0.1,0.5,0.3,0.8,0.6    c0.2,0.2,0.4,0.4,0.5,0.7c0.1,0.2,0.2,0.5,0.2,0.7c0,0.3,0,0.5-0.1,0.8c-0.1,0.3-0.2,0.5-0.5,0.7c-0.2,0.2-0.5,0.4-0.7,0.5    c-0.3,0.1-0.5,0.1-0.8,0.1c-0.3,0-0.5-0.1-0.7-0.2c-0.2-0.1-0.5-0.3-0.7-0.5c-0.2-0.2-0.4-0.5-0.5-0.7c-0.1-0.3-0.2-0.5-0.2-0.8    c0-0.3,0-0.5,0.1-0.7S199.8,216.3,200,216.1z M200.5,218.7c0.2,0.2,0.4,0.3,0.5,0.4c0.2,0.1,0.4,0.2,0.6,0.2c0.2,0,0.4,0,0.6,0    s0.4-0.2,0.6-0.4c0.2-0.2,0.3-0.4,0.4-0.6c0.1-0.2,0.1-0.4,0-0.6c0-0.2-0.1-0.4-0.2-0.6c-0.1-0.2-0.2-0.4-0.4-0.5    c-0.2-0.2-0.4-0.3-0.6-0.4c-0.2-0.1-0.4-0.2-0.6-0.2c-0.2,0-0.4,0-0.6,0.1c-0.2,0.1-0.4,0.2-0.5,0.3c-0.2,0.2-0.3,0.4-0.4,0.6    c-0.1,0.2-0.1,0.4,0,0.6c0,0.2,0.1,0.4,0.2,0.6C200.2,218.3,200.4,218.5,200.5,218.7z" />
</g>
<g>
<path class="st4" d="M200.5,221.7l-0.4,0.4l-3.5-1.6l1.6,3.5l-0.4,0.4l-1.8-4.1l0.4-0.4L200.5,221.7z" />
</g>
<path class="st0" d="M171.2,204.2c-6.7,3.8-14.2,5.9-21.9,5.9v-43.8L171.2,204.2z" />
<path class="st1" d="M171.2,204.2c-6.7,3.8-14.2,5.9-21.9,5.9v-43.8L171.2,204.2z" />
<path class="st2" d="M161.5,187.3c-3.7,2.1-7.9,3.3-12.2,3.3v-24.3L161.5,187.3z" />
<path class="st1" d="M161.5,187.3c-3.7,2.1-7.9,3.3-12.2,3.3v-24.3L161.5,187.3z" />
<path class="st3" d="M159.1,183.1c-3,1.7-6.3,2.6-9.7,2.6v-19.5L159.1,183.1z" />
<path class="st1" d="M159.1,183.1c-3,1.7-6.3,2.6-9.7,2.6v-19.5L159.1,183.1z" />
<g>
<path class="st4" d="M170.3,212l1.5,5.6l-1.9,0.5c-0.2,0-0.3,0.1-0.5,0.1c-0.2,0-0.3,0.1-0.5,0.1s-0.3,0-0.5,0    c-0.2,0-0.3-0.1-0.5-0.1c-0.2-0.1-0.4-0.2-0.6-0.4c-0.2-0.2-0.3-0.3-0.4-0.5c-0.1-0.2-0.2-0.4-0.3-0.6c-0.1-0.2-0.2-0.4-0.2-0.6    c0-0.2-0.1-0.4-0.1-0.6s0-0.4,0-0.6c0-0.2,0-0.4,0.1-0.6s0.1-0.4,0.2-0.5c0.1-0.2,0.2-0.3,0.3-0.5c0.1-0.1,0.3-0.2,0.4-0.3    s0.3-0.2,0.5-0.2c0.2-0.1,0.4-0.1,0.5-0.2L170.3,212z M169.9,212.6l-1.3,0.3c-0.2,0.1-0.5,0.1-0.7,0.2s-0.4,0.2-0.6,0.4    c-0.2,0.1-0.3,0.3-0.4,0.5c-0.1,0.2-0.1,0.4-0.1,0.6c0,0.2,0,0.4,0,0.6c0,0.2,0.1,0.4,0.1,0.6c0.1,0.2,0.1,0.4,0.2,0.6    c0.1,0.2,0.2,0.4,0.3,0.6c0.1,0.2,0.3,0.3,0.4,0.4c0.2,0.1,0.4,0.2,0.6,0.3c0.2,0,0.4,0,0.6,0s0.5-0.1,0.7-0.1l1.3-0.3    L169.9,212.6z" />
</g>
<g>
<path class="st4" d="M163.6,215.9c-0.1-0.2-0.1-0.4-0.2-0.6c-0.1-0.2-0.2-0.3-0.4-0.4c-0.1-0.1-0.3-0.2-0.5-0.2    c-0.2,0-0.4,0-0.6,0c-0.3,0.1-0.5,0.2-0.7,0.4c-0.2,0.2-0.3,0.5-0.3,0.8l-0.5,0.1c0-0.2,0-0.4,0.1-0.6c0-0.2,0.1-0.4,0.2-0.5    c0.1-0.2,0.2-0.3,0.4-0.4c0.2-0.1,0.4-0.2,0.6-0.3c0.3-0.1,0.6-0.1,0.9-0.1c0.3,0,0.5,0.1,0.7,0.3c0.2,0.1,0.4,0.3,0.5,0.6    c0.1,0.2,0.2,0.5,0.3,0.8c0.1,0.3,0.1,0.6,0.1,0.9c0,0.3-0.1,0.5-0.2,0.8c-0.1,0.2-0.3,0.4-0.5,0.6c-0.2,0.2-0.4,0.3-0.7,0.4    c-0.6,0.1-1,0.1-1.4-0.2c-0.4-0.3-0.7-0.8-0.9-1.5L163.6,215.9z M161,217c0.1,0.2,0.1,0.4,0.2,0.5c0.1,0.2,0.2,0.3,0.4,0.4    c0.1,0.1,0.3,0.2,0.5,0.2c0.2,0,0.4,0,0.6,0c0.2-0.1,0.4-0.1,0.5-0.3c0.1-0.1,0.2-0.3,0.3-0.4c0.1-0.2,0.1-0.3,0.1-0.5    c0-0.2,0-0.4,0-0.6L161,217z" />
</g>
<g>
<path class="st4" d="M155.8,218.9c0.2,0.3,0.4,0.5,0.6,0.6c0.2,0.1,0.5,0.1,0.8,0c0.2-0.1,0.4-0.2,0.6-0.3    c0.1-0.1,0.2-0.3,0.3-0.5c0.1-0.2,0.1-0.4,0.1-0.6c0-0.2,0-0.4-0.1-0.6c-0.1-0.2-0.1-0.4-0.2-0.6c-0.1-0.2-0.2-0.3-0.4-0.5    c-0.2-0.1-0.3-0.2-0.5-0.3c-0.2,0-0.4,0-0.7,0c-0.3,0.1-0.6,0.3-0.8,0.5c-0.2,0.2-0.2,0.5-0.2,0.9l-0.5,0.1c0-0.2,0-0.5,0-0.7    c0-0.2,0.1-0.4,0.2-0.6c0.1-0.2,0.2-0.3,0.4-0.4c0.2-0.1,0.4-0.2,0.6-0.3c0.3-0.1,0.6-0.1,0.9-0.1c0.3,0,0.5,0.1,0.7,0.3    c0.2,0.1,0.4,0.3,0.5,0.6c0.1,0.2,0.3,0.5,0.3,0.8c0.1,0.3,0.1,0.6,0.1,0.8c0,0.3-0.1,0.5-0.2,0.8c-0.1,0.2-0.3,0.4-0.5,0.6    c-0.2,0.2-0.4,0.3-0.7,0.4c-0.5,0.1-0.9,0.1-1.2,0c-0.3-0.1-0.6-0.4-0.8-0.9L155.8,218.9z" />
</g>
<path class="st2" d="M149.3,197.7c-5.5,0-11-1.5-15.7-4.2l15.7-27.3V197.7z" />
<path class="st1" d="M149.3,197.7c-5.5,0-11-1.5-15.7-4.2l15.7-27.3V197.7z" />
<path class="st0" d="M149.3,195.7c-5.2,0-10.2-1.4-14.7-3.9l14.7-25.5V195.7z" />
<path class="st1" d="M149.3,195.7c-5.2,0-10.2-1.4-14.7-3.9l14.7-25.5V195.7z" />
<path class="st3" d="M149.3,172.7c-1.1,0-2.2-0.3-3.2-0.9l3.2-5.6V172.7z" />
<path class="st1" d="M149.3,172.7c-1.1,0-2.2-0.3-3.2-0.9l3.2-5.6V172.7z" />
<g>
<path class="st4" d="M142.6,216.9c0-0.2,0.1-0.4,0.1-0.5c0-0.2,0-0.3,0-0.5c0-0.2-0.1-0.3-0.2-0.4c-0.1-0.1-0.3-0.2-0.5-0.3    c-0.4-0.1-0.6-0.1-0.8,0.1c-0.2,0.2-0.4,0.4-0.5,0.8l-1.1,4l-0.5-0.1l1.1-4c0.1-0.5,0.4-0.9,0.7-1.1c0.3-0.2,0.8-0.3,1.3-0.1    c0.3,0.1,0.6,0.2,0.7,0.4c0.2,0.2,0.3,0.3,0.3,0.5s0.1,0.4,0,0.7c0,0.2-0.1,0.5-0.1,0.7L142.6,216.9z" />
</g>
<g>
<path class="st4" d="M135.9,215.7c-0.1,0-0.2,0-0.3,0c-0.1,0-0.2,0-0.3,0c-0.1,0-0.2,0.1-0.2,0.1c0,0.1-0.1,0.2-0.1,0.2    c-0.1,0.2,0,0.5,0.1,0.6c0.1,0.2,0.3,0.3,0.7,0.4c0.2,0,0.3,0.1,0.5,0.1c0.1,0,0.3,0,0.4-0.1c0.1,0,0.2-0.1,0.3-0.2    c0.1-0.1,0.2-0.2,0.2-0.4l0.5,0.1c-0.1,0.2-0.2,0.4-0.3,0.6c-0.1,0.1-0.3,0.2-0.5,0.3c-0.2,0.1-0.4,0.1-0.6,0.1    c-0.2,0-0.4,0-0.6-0.1c-0.2-0.1-0.4-0.1-0.5-0.2c-0.2-0.1-0.3-0.2-0.4-0.3c-0.1-0.1-0.2-0.3-0.2-0.5s0-0.4,0-0.6l0.6-2.2    c0-0.2,0-0.3,0-0.4c-0.1-0.1-0.2-0.1-0.4-0.1l0.1-0.4c0,0,0.1,0,0.2,0c0.1,0,0.1,0,0.2,0c0.1,0,0.1,0,0.2,0.1    c0.1,0,0.1,0.1,0.2,0.1c0,0.1,0.1,0.1,0.1,0.2c0,0.1,0,0.1,0,0.2c0,0.1,0,0.1,0,0.2c0.3-0.2,0.5-0.3,0.8-0.3c0.3,0,0.6,0,0.9,0    c0.2,0,0.3,0.1,0.5,0.2c0.1,0.1,0.3,0.2,0.4,0.3c0.1,0.1,0.2,0.3,0.2,0.4c0,0.2,0,0.3,0,0.5c-0.2,0.7-0.8,1-1.7,0.8L135.9,215.7z     M135.2,215.3c0.2,0,0.4,0,0.6,0c0.2,0,0.4,0.1,0.6,0.1c0.4,0.1,0.7,0.1,0.9,0c0.2-0.1,0.4-0.3,0.5-0.5c0-0.1,0-0.2,0-0.3    c0-0.1-0.1-0.2-0.1-0.3c-0.1-0.1-0.1-0.2-0.2-0.2c-0.1-0.1-0.2-0.1-0.3-0.1c-0.2,0-0.4-0.1-0.6-0.1c-0.2,0-0.4,0-0.5,0.1    c-0.2,0.1-0.3,0.2-0.4,0.3c-0.1,0.1-0.2,0.3-0.3,0.5L135.2,215.3z" />
</g>
<g>
<path class="st4" d="M132.5,212.3l0.5,0.1l-1.1,4l-0.5-0.1l0.1-0.6c-0.2,0.1-0.5,0.3-0.7,0.3c-0.2,0.1-0.5,0.1-0.8,0    c-0.2-0.1-0.5-0.2-0.7-0.3c-0.2-0.1-0.3-0.3-0.4-0.6c-0.1-0.2-0.1-0.3-0.1-0.5c0-0.2,0.1-0.3,0.1-0.5l0.7-2.6l0.5,0.1l-0.7,2.6    c-0.1,0.4-0.1,0.7,0,0.9c0.1,0.2,0.4,0.4,0.7,0.5c0.1,0,0.3,0.1,0.4,0s0.3,0,0.4-0.1c0.1,0,0.2-0.1,0.3-0.2    c0.1-0.1,0.2-0.2,0.2-0.3c0.1-0.1,0.1-0.2,0.2-0.3c0-0.1,0.1-0.2,0.1-0.4L132.5,212.3z" />
</g>
<path class="st0" d="M138.1,185.7c-3.4-2-6.2-4.8-8.2-8.2l19.4-11.2L138.1,185.7z" />
<path class="st1" d="M138.1,185.7c-3.4-2-6.2-4.8-8.2-8.2l19.4-11.2L138.1,185.7z" />
<path class="st2" d="M139.3,183.5c-3-1.8-5.6-4.3-7.3-7.3l17.3-10L139.3,183.5z" />
<path class="st1" d="M139.3,183.5c-3-1.8-5.6-4.3-7.3-7.3l17.3-10L139.3,183.5z" />
<g>
<path class="st4" d="M119.5,206.1l-4.1,4.1l-2.6-2.6l0.3-0.3l2.2,2.2l1.5-1.5l-2-2l0.3-0.3l2,2l1.9-1.9L119.5,206.1z" />
</g>
<g>
<path class="st4" d="M113.6,203.9c0.2-0.2,0.3-0.3,0.4-0.5c0.1-0.2,0.2-0.4,0.2-0.6c0-0.2,0-0.4-0.1-0.6s-0.2-0.4-0.3-0.5    c-0.2-0.2-0.5-0.4-0.7-0.4c-0.3,0-0.5,0-0.8,0.2l-0.4-0.4c0.2-0.1,0.4-0.2,0.6-0.2c0.2-0.1,0.4-0.1,0.6-0.1c0.2,0,0.4,0.1,0.6,0.2    c0.2,0.1,0.4,0.2,0.6,0.4c0.2,0.2,0.4,0.5,0.5,0.7c0.1,0.2,0.1,0.5,0.1,0.7c0,0.2-0.1,0.5-0.2,0.7c-0.1,0.2-0.3,0.5-0.5,0.7    c-0.2,0.2-0.4,0.4-0.7,0.5c-0.3,0.1-0.5,0.2-0.8,0.2c-0.3,0-0.5,0-0.8-0.1c-0.2-0.1-0.5-0.2-0.7-0.4c-0.4-0.4-0.6-0.9-0.5-1.4    c0-0.5,0.3-1,0.9-1.5L113.6,203.9z M111.4,202.3c-0.1,0.1-0.3,0.3-0.3,0.5c-0.1,0.2-0.1,0.3-0.2,0.5c0,0.2,0,0.3,0.1,0.5    c0.1,0.2,0.2,0.3,0.3,0.5c0.2,0.2,0.3,0.3,0.5,0.3c0.2,0.1,0.3,0.1,0.5,0.1c0.2,0,0.4-0.1,0.5-0.1s0.3-0.2,0.5-0.3L111.4,202.3z" />
</g>
<g>
<path class="st4" d="M110.8,197.4l0.3,0.3l-4.1,4.1l-0.3-0.3l1.6-1.6c-0.3,0.1-0.6,0.1-0.9,0c-0.3-0.1-0.5-0.3-0.7-0.5    c-0.2-0.2-0.4-0.5-0.5-0.7s-0.1-0.5-0.1-0.7c0-0.2,0.1-0.5,0.3-0.7c0.1-0.2,0.3-0.5,0.5-0.7c0.2-0.2,0.4-0.4,0.7-0.5    c0.2-0.1,0.5-0.2,0.7-0.3c0.2,0,0.5,0,0.7,0.1c0.2,0.1,0.5,0.2,0.7,0.5c0.1,0.1,0.2,0.2,0.2,0.3c0.1,0.1,0.1,0.3,0.2,0.4    c0,0.1,0.1,0.3,0.1,0.4c0,0.2,0,0.3-0.1,0.4l0,0L110.8,197.4z M109.3,198.8c0.2-0.2,0.3-0.4,0.4-0.6s0.2-0.4,0.2-0.6    c0-0.2,0-0.4,0-0.6c-0.1-0.2-0.2-0.4-0.3-0.5c-0.1-0.1-0.3-0.2-0.5-0.3c-0.2-0.1-0.4-0.1-0.5-0.1c-0.2,0-0.4,0.1-0.6,0.1    c-0.2,0.1-0.4,0.2-0.6,0.4c-0.2,0.2-0.4,0.4-0.5,0.6c-0.1,0.2-0.2,0.4-0.2,0.6c0,0.2,0,0.4,0,0.6c0.1,0.2,0.2,0.4,0.4,0.6    c0.2,0.2,0.3,0.3,0.5,0.3c0.2,0.1,0.4,0.1,0.6,0c0.2,0,0.4-0.1,0.6-0.2C109,199.1,109.2,199,109.3,198.8z" />
</g>
<path class="st2" d="M126.5,179.4c-2.3-4-3.5-8.5-3.5-13.2h26.3L126.5,179.4z" />
<path class="st1" d="M126.5,179.4c-2.3-4-3.5-8.5-3.5-13.2h26.3L126.5,179.4z" />
<path class="st0" d="M134.4,174.8c-1.5-2.6-2.3-5.6-2.3-8.6h17.2L134.4,174.8z" />
<path class="st1" d="M134.4,174.8c-1.5-2.6-2.3-5.6-2.3-8.6h17.2L134.4,174.8z" />
<g>
<path class="st4" d="M107,186.5l-5.6,1.5l-0.2-0.8l4.4-3.1l0,0l-5.4-0.5l-0.2-0.8l5.6-1.5l0.1,0.5l-5,1.3l0,0l5.5,0.5l0.1,0.5    l-4.5,3.2l0,0l5-1.3L107,186.5z" />
</g>
<g>
<path class="st4" d="M102,177.4c0-0.1-0.1-0.2-0.1-0.3c-0.1-0.1-0.1-0.2-0.2-0.3c-0.1-0.1-0.1-0.1-0.2-0.1s-0.2,0-0.2,0    c-0.2,0.1-0.4,0.2-0.5,0.4c-0.1,0.2-0.1,0.5,0,0.8c0,0.2,0.1,0.3,0.2,0.4c0.1,0.1,0.1,0.2,0.2,0.3c0.1,0.1,0.2,0.1,0.3,0.2    c0.1,0,0.3,0,0.5,0l0.1,0.5c-0.2,0-0.5,0-0.7,0s-0.4-0.1-0.5-0.2c-0.1-0.1-0.3-0.3-0.4-0.4s-0.2-0.4-0.2-0.6    c-0.1-0.2-0.1-0.4-0.1-0.6c0-0.2,0-0.4,0.1-0.5c0.1-0.2,0.2-0.3,0.3-0.4c0.1-0.1,0.3-0.2,0.6-0.3l2.2-0.6c0.2,0,0.3-0.1,0.3-0.2    c0-0.1,0-0.2-0.1-0.4l0.4-0.1c0,0,0,0.1,0.1,0.1c0,0.1,0.1,0.1,0.1,0.2c0,0.1,0,0.1,0,0.2c0,0.1,0,0.1,0,0.2    c0,0.1-0.1,0.1-0.1,0.1c0,0-0.1,0.1-0.2,0.1c-0.1,0-0.1,0.1-0.2,0.1c0.3,0.1,0.5,0.3,0.7,0.5c0.2,0.2,0.3,0.5,0.4,0.8    c0,0.2,0.1,0.3,0.1,0.5c0,0.2,0,0.3-0.1,0.5c-0.1,0.2-0.2,0.3-0.3,0.4c-0.1,0.1-0.3,0.2-0.5,0.2c-0.7,0.2-1.2-0.2-1.6-1.1    L102,177.4z M102,176.5c0.1,0.2,0.2,0.4,0.3,0.6c0.1,0.2,0.2,0.4,0.2,0.6c0.1,0.3,0.3,0.6,0.5,0.8c0.2,0.2,0.4,0.2,0.7,0.1    c0.1,0,0.2-0.1,0.3-0.2c0.1-0.1,0.1-0.2,0.2-0.3c0-0.1,0.1-0.2,0.1-0.3c0-0.1,0-0.2,0-0.3c0-0.2-0.1-0.4-0.2-0.5    c-0.1-0.2-0.2-0.3-0.3-0.4c-0.1-0.1-0.3-0.2-0.5-0.2c-0.2,0-0.4,0-0.6,0L102,176.5z" />
</g>
<g>
<path class="st4" d="M103.2,172.4l0.1,0.5l-4,1.1l-0.1-0.5l0.7-0.2l0,0c-0.4,0-0.6-0.2-0.8-0.3c-0.2-0.2-0.3-0.4-0.4-0.8l0.5-0.1    c0.1,0.3,0.2,0.5,0.3,0.6c0.1,0.1,0.3,0.3,0.5,0.3c0.2,0.1,0.4,0.1,0.6,0.1c0.2,0,0.4-0.1,0.7-0.1L103.2,172.4z" />
</g>
<path class="st2" d="M520.9,149.2c0-4.1,1.1-8,3.1-11.5l20,11.5H520.9z" />
<path class="st1" d="M520.9,149.2c0-4.1,1.1-8,3.1-11.5l20,11.5H520.9z" />
<path class="st0" d="M533.7,149.2c0-1.8,0.5-3.6,1.4-5.2l8.9,5.2H533.7z" />
<path class="st1" d="M533.7,149.2c0-1.8,0.5-3.6,1.4-5.2l8.9,5.2H533.7z" />
<g>
<path class="st4" d="M483.8,136.8l-5.8-5.2l0.3-0.7l7.8-0.1l-0.2,0.7l-2.4,0l-1.2,3.1l1.8,1.6L483.8,136.8z M481.7,134.1l1-2.7    l-4.1,0L481.7,134.1z" />
</g>
<g>
<path class="st4" d="M488.6,130l-0.2,0.6l-6.9-2.6l0.2-0.6l0.9,0.3l0,0c-0.1-0.1-0.2-0.3-0.3-0.5c-0.1-0.2-0.1-0.4-0.2-0.5    c0-0.2,0-0.4,0-0.6c0-0.2,0.1-0.4,0.1-0.5c0.1-0.4,0.3-0.7,0.6-0.9c0.2-0.2,0.5-0.4,0.8-0.5c0.3-0.1,0.6-0.1,1-0.1    c0.3,0,0.7,0.1,1.1,0.3c0.3,0.1,0.7,0.3,0.9,0.5c0.3,0.2,0.5,0.4,0.7,0.7s0.3,0.6,0.3,0.9c0,0.3,0,0.7-0.2,1.1    c-0.1,0.3-0.3,0.7-0.6,0.9c-0.3,0.3-0.6,0.4-1,0.5L488.6,130z M484.2,128.3c0.3,0.1,0.6,0.2,0.8,0.2c0.3,0,0.5,0,0.8-0.1    c0.2-0.1,0.5-0.2,0.6-0.4c0.2-0.2,0.3-0.4,0.4-0.6c0.1-0.3,0.1-0.6,0.1-0.8c0-0.3-0.1-0.5-0.3-0.7c-0.2-0.2-0.3-0.4-0.6-0.6    c-0.2-0.2-0.5-0.3-0.8-0.4c-0.3-0.1-0.6-0.2-0.9-0.2c-0.3,0-0.5,0-0.7,0.1c-0.2,0.1-0.4,0.2-0.6,0.4s-0.3,0.4-0.4,0.6    c-0.1,0.3-0.1,0.5-0.1,0.8c0,0.2,0.1,0.5,0.2,0.7c0.1,0.2,0.3,0.4,0.5,0.6C483.6,128.1,483.9,128.2,484.2,128.3z" />
</g>
<g>
<path class="st4" d="M488.6,124l-0.2,0.6l-4.9-1.8l0.2-0.6l0.9,0.3l0,0c-0.3-0.3-0.5-0.6-0.6-0.9c-0.1-0.3,0-0.7,0.1-1.1l0.6,0.2    c-0.1,0.3-0.2,0.6-0.1,0.9c0,0.2,0.1,0.5,0.3,0.7c0.1,0.2,0.3,0.4,0.6,0.5c0.2,0.1,0.5,0.3,0.8,0.4L488.6,124z" />
</g>
<path class="st0" d="M525.2,138.4c1.9-3.3,4.6-6,7.9-7.9l10.8,18.8L525.2,138.4z" />
<path class="st1" d="M525.2,138.4c1.9-3.3,4.6-6,7.9-7.9l10.8,18.8L525.2,138.4z" />
<path class="st2" d="M527.8,139.8c1.6-2.9,4-5.2,6.9-6.9l9.4,16.2L527.8,139.8z" />
<path class="st1" d="M527.8,139.8c1.6-2.9,4-5.2,6.9-6.9l9.4,16.2L527.8,139.8z" />
<g>
<path class="st4" d="M497.6,111.6l-5.2-5.2l0.7-0.7l6.2,2.9l0,0l-2.9-6.2l0.7-0.7l5.2,5.2l-0.5,0.5l-4.6-4.6l0,0l2.9,6.3l-0.5,0.5    l-6.3-2.9l0,0l4.6,4.6L497.6,111.6z" />
</g>
<g>
<path class="st4" d="M503.1,101.8c0.1-0.1,0.2-0.2,0.2-0.3c0.1-0.1,0.2-0.2,0.2-0.4c0-0.1,0-0.2,0-0.3c-0.1-0.1-0.1-0.2-0.2-0.2    c-0.2-0.2-0.5-0.3-0.8-0.3c-0.3,0-0.6,0.2-0.9,0.5c-0.1,0.1-0.3,0.3-0.4,0.4s-0.2,0.3-0.2,0.5c0,0.2,0,0.3,0,0.5    c0,0.2,0.1,0.3,0.3,0.5l-0.4,0.4c-0.2-0.2-0.3-0.5-0.4-0.7s-0.1-0.5,0-0.7c0-0.2,0.1-0.5,0.3-0.7c0.1-0.2,0.3-0.4,0.5-0.6    c0.2-0.2,0.4-0.3,0.6-0.5c0.2-0.1,0.4-0.2,0.6-0.2c0.2,0,0.4,0,0.6,0.1c0.2,0.1,0.4,0.2,0.6,0.4l2,2c0.2,0.2,0.3,0.2,0.4,0.2    c0.1,0,0.2-0.1,0.3-0.4l0.3,0.3c0,0-0.1,0.1-0.1,0.2c0,0.1-0.1,0.2-0.2,0.2c-0.1,0.1-0.1,0.1-0.2,0.2c-0.1,0.1-0.2,0.1-0.2,0.1    c-0.1,0-0.2,0-0.2,0c-0.1,0-0.1-0.1-0.2-0.1c-0.1,0-0.1-0.1-0.2-0.2c0,0.4,0,0.7-0.2,1.1c-0.1,0.3-0.3,0.6-0.6,0.9    c-0.2,0.2-0.3,0.3-0.5,0.4c-0.2,0.1-0.4,0.2-0.6,0.2c-0.2,0-0.4,0-0.6-0.1c-0.2-0.1-0.4-0.2-0.6-0.4c-0.6-0.6-0.6-1.4,0.2-2.4    L503.1,101.8z M504,101.3c-0.1,0.3-0.2,0.5-0.4,0.7c-0.2,0.2-0.3,0.4-0.5,0.6c-0.3,0.4-0.5,0.7-0.5,1c-0.1,0.3,0,0.6,0.3,0.8    c0.1,0.1,0.2,0.2,0.4,0.2c0.1,0,0.3,0,0.4,0c0.1,0,0.3-0.1,0.4-0.1c0.1-0.1,0.2-0.2,0.3-0.3c0.2-0.2,0.3-0.4,0.4-0.6    c0.1-0.2,0.2-0.4,0.2-0.6c0-0.2,0-0.4,0-0.6c-0.1-0.2-0.2-0.4-0.4-0.6L504,101.3z" />
</g>
<g>
<path class="st4" d="M508.5,102.7c0.1,0,0.1-0.1,0.2-0.1c0.1-0.1,0.1-0.1,0.2-0.2c0.1-0.1,0.2-0.3,0.2-0.4c0-0.2,0-0.3-0.1-0.5    c-0.1-0.2-0.1-0.3-0.2-0.5c-0.1-0.2-0.1-0.3-0.2-0.4l-5.2-2.3l0.5-0.5l4.4,2l-2-4.4l0.5-0.5l2.3,5c0.1,0.3,0.3,0.6,0.4,0.9    c0.1,0.3,0.2,0.5,0.2,0.7c0,0.2,0,0.4,0,0.6c0,0.2-0.1,0.3-0.3,0.5c-0.1,0.1-0.2,0.1-0.2,0.2c-0.1,0.1-0.2,0.1-0.2,0.2    L508.5,102.7z" />
</g>
<path class="st0" d="M534.6,132.9c2.9-1.7,6.1-2.5,9.4-2.5v18.8L534.6,132.9z" />
<path class="st1" d="M534.6,132.9c2.9-1.7,6.1-2.5,9.4-2.5v18.8L534.6,132.9z" />
<path class="st2" d="M537.1,137.2c2.1-1.2,4.5-1.9,7-1.9v13.9L537.1,137.2z" />
<path class="st1" d="M537.1,137.2c2.1-1.2,4.5-1.9,7-1.9v13.9L537.1,137.2z" />
<g>
<path class="st5" d="M522.1,93.2c0,0.2,0.1,0.4,0.2,0.7c0.1,0.2,0.2,0.4,0.3,0.6c0.1,0.2,0.3,0.3,0.5,0.3c0.2,0.1,0.5,0.1,0.8,0    c0.5-0.1,0.8-0.3,0.9-0.6c0.1-0.3,0.2-0.7,0.1-1.2l-1-5.2l0.7-0.1l1,5.2c0.1,0.7,0.1,1.3-0.2,1.7c-0.3,0.4-0.7,0.7-1.4,0.9    c-0.4,0.1-0.7,0.1-1,0c-0.3-0.1-0.5-0.2-0.7-0.4s-0.3-0.4-0.4-0.7c-0.1-0.3-0.2-0.6-0.3-0.9L522.1,93.2z" />
</g>
<g>
<path class="st5" d="M529.8,88.7l0.6-0.1l1,5.2l-0.6,0.1l-0.1-0.7c-0.1,0.1-0.1,0.2-0.2,0.3c-0.1,0.1-0.2,0.2-0.3,0.3    c-0.1,0.1-0.2,0.2-0.4,0.3c-0.2,0.1-0.4,0.2-0.6,0.2c-0.3,0.1-0.6,0.1-0.9,0c-0.3,0-0.5-0.1-0.6-0.3c-0.2-0.1-0.3-0.3-0.4-0.5    c-0.1-0.2-0.2-0.5-0.2-0.7l-0.7-3.4l0.6-0.1l0.7,3.4c0.1,0.4,0.3,0.8,0.5,1c0.3,0.2,0.6,0.2,1.1,0.1c0.2,0,0.5-0.1,0.6-0.3    c0.2-0.1,0.3-0.3,0.4-0.5c0.1-0.2,0.2-0.4,0.2-0.7c0-0.3,0-0.5,0-0.8L529.8,88.7z" />
</g>
<g>
<path class="st5" d="M533.4,93.3l-0.6,0.1l-1-5.2l0.6-0.1l0.1,0.7c0.2-0.3,0.4-0.6,0.6-0.8s0.5-0.4,0.9-0.4c0.3-0.1,0.6-0.1,0.9,0    c0.3,0.1,0.6,0.2,0.8,0.4c0.2,0.2,0.3,0.3,0.3,0.5s0.1,0.4,0.2,0.6l0.7,3.4l-0.6,0.1l-0.7-3.4c-0.1-0.5-0.3-0.8-0.5-1    c-0.3-0.2-0.6-0.2-1.1-0.1c-0.2,0-0.3,0.1-0.5,0.2c-0.1,0.1-0.3,0.2-0.4,0.3c-0.1,0.1-0.2,0.2-0.2,0.4c-0.1,0.1-0.1,0.3-0.1,0.4    c0,0.2,0,0.3,0,0.5c0,0.2,0,0.3,0.1,0.5L533.4,93.3z" />
</g>
<path class="st0" d="M544,42.5c18.7,0,37.1,4.9,53.4,14.3L544,149.2V42.5z" />
<path class="st1" d="M544,42.5c18.7,0,37.1,4.9,53.4,14.3L544,149.2V42.5z" />
<path class="st2" d="M544,122.2c4.7,0,9.4,1.2,13.5,3.6L544,149.2V122.2z" />
<path class="st1" d="M544,122.2c4.7,0,9.4,1.2,13.5,3.6L544,149.2V122.2z" />
<g>
<path class="st4" d="M567.6,39.6c-0.1,0.2-0.1,0.4-0.2,0.7c0,0.2,0,0.4,0,0.6c0,0.2,0.1,0.4,0.3,0.5c0.1,0.2,0.4,0.3,0.7,0.4    c0.5,0.1,0.8,0.1,1.1-0.1c0.3-0.2,0.5-0.6,0.6-1.1l1.4-5.1l0.7,0.2l-1.4,5.1c-0.2,0.7-0.5,1.2-0.9,1.4c-0.4,0.3-1,0.3-1.7,0.1    c-0.4-0.1-0.7-0.3-0.9-0.5c-0.2-0.2-0.3-0.4-0.4-0.7c-0.1-0.3-0.1-0.5-0.1-0.8c0-0.3,0.1-0.6,0.2-0.9L567.6,39.6z" />
</g>
<g>
<path class="st4" d="M576.6,38.9l0.6,0.2l-1.4,5.1l-0.6-0.2l0.2-0.7c-0.1,0.1-0.2,0.1-0.3,0.2c-0.1,0.1-0.3,0.1-0.4,0.2    c-0.1,0-0.3,0.1-0.5,0.1c-0.2,0-0.4,0-0.6-0.1c-0.3-0.1-0.6-0.2-0.8-0.4s-0.4-0.3-0.4-0.5c-0.1-0.2-0.1-0.4-0.1-0.7    c0-0.2,0-0.5,0.1-0.8l0.9-3.3l0.6,0.2l-0.9,3.3c-0.1,0.4-0.1,0.8,0,1.1c0.1,0.3,0.4,0.5,0.9,0.6c0.2,0.1,0.5,0.1,0.7,0    c0.2,0,0.4-0.1,0.6-0.3c0.2-0.1,0.3-0.3,0.5-0.5c0.1-0.2,0.2-0.5,0.3-0.7L576.6,38.9z" />
</g>
<g>
<path class="st4" d="M577.3,44.5l1.9-7.1l0.6,0.2l-1.9,7.1L577.3,44.5z" />
</g>
<path class="st0" d="M623,12.3c24,13.9,44,33.8,57.9,57.9l-136.9,79L623,12.3z" />
<path class="st1" d="M623,12.3c24,13.9,44,33.8,57.9,57.9l-136.9,79L623,12.3z" />
<path class="st2" d="M559.1,123.2c4.6,2.6,8.4,6.4,11,11l-26.1,15L559.1,123.2z" />
<path class="st1" d="M559.1,123.2c4.6,2.6,8.4,6.4,11,11l-26.1,15L559.1,123.2z" />
<path class="st3" d="M546.8,144.5c0.8,0.5,1.5,1.2,2,2l-4.8,2.7L546.8,144.5z" />
<path class="st1" d="M546.8,144.5c0.8,0.5,1.5,1.2,2,2l-4.8,2.7L546.8,144.5z" />
<g>
<path class="st4" d="M653.7,27.1l7.2-3.1l0.6,0.6l-3.2,7.1l-0.5-0.5l1-2.2l-2.4-2.4l-2.2,1L653.7,27.1z M657,26.3l2,2l1.7-3.7    L657,26.3z" />
</g>
<g>
<path class="st4" d="M665.1,31.1l0.4,0.4l-3.7,3.7l-0.4-0.4l0.5-0.5c-0.1,0-0.3,0-0.4,0c-0.1,0-0.3,0-0.4,0    c-0.2,0-0.3-0.1-0.5-0.2c-0.2-0.1-0.3-0.2-0.5-0.4c-0.2-0.2-0.4-0.5-0.5-0.7s-0.1-0.5-0.1-0.7c0-0.2,0.1-0.4,0.2-0.7    c0.1-0.2,0.3-0.4,0.5-0.6l2.4-2.4L663,29l-2.4,2.4c-0.3,0.3-0.5,0.6-0.5,1c0,0.3,0.1,0.6,0.5,1c0.2,0.2,0.4,0.3,0.6,0.4    c0.2,0.1,0.4,0.1,0.6,0.1c0.2,0,0.4-0.1,0.7-0.2c0.2-0.1,0.4-0.3,0.6-0.5L665.1,31.1z" />
</g>
<g>
<path class="st4" d="M669.5,35.4l0.4,0.4l-3.4,3.4c-0.2,0.2-0.5,0.5-0.8,0.6c-0.3,0.2-0.6,0.3-0.9,0.3c-0.3,0-0.6,0-0.9-0.1    c-0.3-0.1-0.7-0.4-1-0.7c-0.3-0.3-0.5-0.5-0.6-0.8c-0.1-0.3-0.2-0.5-0.2-0.7s0-0.4,0.1-0.6c0.1-0.2,0.1-0.3,0.3-0.5l0.5,0.5    c-0.1,0.2-0.2,0.3-0.2,0.5c0,0.2,0,0.3,0,0.5c0,0.1,0.1,0.3,0.2,0.4c0.1,0.1,0.2,0.3,0.3,0.4c0.3,0.3,0.6,0.5,0.9,0.6    c0.3,0.1,0.5,0.1,0.8,0c0.3-0.1,0.5-0.2,0.7-0.4c0.2-0.2,0.5-0.4,0.7-0.6c-0.4,0.1-0.7,0.1-1.1-0.1s-0.7-0.3-0.9-0.6    c-0.3-0.3-0.5-0.6-0.6-0.9c-0.1-0.3-0.1-0.6-0.1-0.9c0-0.3,0.2-0.6,0.3-0.9c0.2-0.3,0.4-0.6,0.6-0.8c0.3-0.3,0.6-0.5,0.9-0.7    c0.3-0.2,0.6-0.3,0.9-0.3c0.3,0,0.6,0,0.9,0.1c0.3,0.1,0.6,0.3,0.9,0.6c0.1,0.1,0.2,0.3,0.3,0.4c0.1,0.2,0.2,0.3,0.2,0.5    c0.1,0.2,0.1,0.4,0.1,0.6c0,0.2,0,0.4-0.1,0.6l0,0L669.5,35.4z M667.6,37.3c0.2-0.2,0.4-0.5,0.5-0.7c0.1-0.2,0.2-0.5,0.3-0.7    c0-0.2,0-0.5-0.1-0.7c-0.1-0.2-0.2-0.5-0.4-0.7c-0.2-0.2-0.4-0.3-0.6-0.4c-0.2-0.1-0.4-0.1-0.7-0.1c-0.2,0-0.5,0.1-0.7,0.2    c-0.2,0.1-0.5,0.3-0.7,0.5c-0.2,0.2-0.4,0.5-0.6,0.7c-0.2,0.3-0.3,0.5-0.3,0.8c0,0.3,0,0.5,0,0.8c0.1,0.3,0.2,0.5,0.4,0.7    c0.2,0.2,0.4,0.3,0.7,0.4c0.2,0.1,0.5,0.1,0.7,0.1c0.2,0,0.5-0.1,0.7-0.2C667.2,37.7,667.4,37.5,667.6,37.3z" />
</g>
<path class="st0" d="M677.5,72.2c13.5,23.4,20.6,50,20.6,77H544L677.5,72.2z" />
<path class="st1" d="M677.5,72.2c13.5,23.4,20.6,50,20.6,77H544L677.5,72.2z" />
<path class="st3" d="M586.8,124.5c4.3,7.5,6.6,16,6.6,24.7H544L586.8,124.5z" />
<path class="st1" d="M586.8,124.5c4.3,7.5,6.6,16,6.6,24.7H544L586.8,124.5z" />
<path class="st2" d="M583.8,126.3c4,7,6.2,14.9,6.2,23H544L583.8,126.3z" />
<path class="st1" d="M583.8,126.3c4,7,6.2,14.9,6.2,23H544L583.8,126.3z" />
<g>
<path class="st4" d="M695.6,96.3c-0.3,0.1-0.5,0.3-0.7,0.5c-0.2,0.2-0.3,0.4-0.4,0.6c-0.1,0.2-0.1,0.5-0.1,0.7    c0,0.2,0.1,0.5,0.1,0.8c0.1,0.3,0.2,0.6,0.4,0.8c0.1,0.2,0.3,0.4,0.5,0.5c0.2,0.1,0.4,0.2,0.6,0.2c0.2,0,0.4,0,0.6-0.1    c0.3-0.1,0.5-0.2,0.6-0.4c0.1-0.2,0.2-0.4,0.3-0.6c0-0.2,0.1-0.5,0-0.8c0-0.3,0-0.6-0.1-0.8c0-0.3,0-0.6,0-0.9    c0-0.3,0-0.5,0.1-0.8c0.1-0.2,0.2-0.5,0.4-0.6c0.2-0.2,0.4-0.3,0.8-0.4c0.2-0.1,0.5-0.1,0.7-0.1c0.3,0,0.5,0.1,0.7,0.3    c0.2,0.1,0.5,0.3,0.6,0.6s0.4,0.6,0.5,1c0.1,0.4,0.2,0.8,0.2,1.1c0,0.3-0.1,0.6-0.2,0.9c-0.1,0.3-0.3,0.5-0.5,0.6    c-0.2,0.2-0.5,0.3-0.8,0.4l-0.2-0.6c0.3-0.1,0.5-0.2,0.6-0.4c0.2-0.2,0.3-0.3,0.4-0.5c0.1-0.2,0.1-0.4,0.1-0.6    c0-0.2,0-0.4-0.1-0.7c-0.1-0.3-0.2-0.6-0.4-0.8c-0.2-0.2-0.3-0.3-0.5-0.4s-0.4-0.1-0.6-0.1c-0.2,0-0.4,0.1-0.6,0.1    c-0.2,0.1-0.4,0.3-0.5,0.4s-0.1,0.4-0.2,0.6c0,0.2,0,0.5,0,0.7s0,0.5,0.1,0.8c0,0.3,0,0.5,0,0.8c0,0.3-0.1,0.5-0.1,0.7    s-0.2,0.4-0.4,0.6c-0.2,0.2-0.4,0.3-0.8,0.4c-0.6,0.2-1.2,0.1-1.7-0.2c-0.5-0.3-0.9-0.9-1.1-1.7c-0.1-0.4-0.2-0.7-0.2-1.1    c0-0.3,0.1-0.7,0.2-0.9c0.1-0.3,0.3-0.5,0.5-0.7c0.2-0.2,0.6-0.4,0.9-0.5L695.6,96.3z" />
</g>
<g>
<path class="st4" d="M697.9,102.7c-0.3,0.1-0.5,0.2-0.7,0.3c-0.2,0.1-0.4,0.3-0.5,0.5c-0.1,0.2-0.2,0.4-0.3,0.7    c0,0.2,0,0.5,0.1,0.8c0.1,0.4,0.3,0.7,0.6,0.9c0.3,0.2,0.6,0.3,1,0.3l0.2,0.6c-0.3,0-0.5,0-0.8-0.1c-0.2-0.1-0.5-0.1-0.7-0.3    c-0.2-0.1-0.4-0.3-0.5-0.5s-0.3-0.5-0.4-0.8c-0.1-0.4-0.2-0.8-0.1-1.1c0-0.3,0.2-0.6,0.3-0.9c0.2-0.3,0.4-0.5,0.7-0.7    c0.3-0.2,0.6-0.3,1-0.5c0.4-0.1,0.7-0.2,1.1-0.2c0.4,0,0.7,0.1,1,0.2c0.3,0.1,0.6,0.3,0.8,0.5c0.2,0.2,0.4,0.5,0.5,0.9    c0.2,0.7,0.1,1.3-0.2,1.8c-0.4,0.5-1,0.9-1.9,1.2L697.9,102.7z M699.4,105.8c0.2-0.1,0.5-0.2,0.7-0.3c0.2-0.1,0.4-0.3,0.5-0.5    c0.1-0.2,0.2-0.4,0.2-0.6c0-0.2,0-0.5-0.1-0.7s-0.2-0.5-0.4-0.6c-0.2-0.2-0.3-0.3-0.5-0.4c-0.2-0.1-0.4-0.1-0.7-0.2    c-0.2,0-0.5,0-0.7,0L699.4,105.8z" />
</g>
<g>
<path class="st4" d="M695.3,109.7l-0.2-0.6l7-2.2l0.2,0.6l-0.9,0.3l0,0c0.2,0,0.4,0.1,0.5,0.2c0.2,0.1,0.3,0.2,0.5,0.3    c0.1,0.1,0.2,0.3,0.3,0.4c0.1,0.2,0.2,0.3,0.2,0.5c0.1,0.4,0.2,0.8,0.1,1.1c0,0.3-0.2,0.6-0.3,0.9c-0.2,0.3-0.4,0.5-0.7,0.7    s-0.6,0.3-1,0.4c-0.3,0.1-0.7,0.2-1,0.2c-0.4,0-0.7,0-1-0.1c-0.3-0.1-0.6-0.3-0.8-0.5c-0.2-0.2-0.4-0.5-0.5-0.9    c-0.1-0.4-0.1-0.7-0.1-1.1c0.1-0.4,0.2-0.7,0.5-1L695.3,109.7z M699.7,108.4c-0.3,0.1-0.5,0.2-0.8,0.4c-0.2,0.2-0.4,0.3-0.6,0.5    c-0.1,0.2-0.2,0.4-0.3,0.7c0,0.2,0,0.5,0.1,0.8c0.1,0.3,0.2,0.5,0.4,0.7c0.2,0.2,0.4,0.3,0.7,0.4c0.3,0.1,0.5,0.1,0.8,0.1    c0.3,0,0.6-0.1,0.9-0.2c0.3-0.1,0.6-0.2,0.8-0.4c0.2-0.2,0.4-0.3,0.5-0.6c0.1-0.2,0.2-0.4,0.2-0.7c0-0.2,0-0.5-0.1-0.7    c-0.1-0.3-0.2-0.5-0.4-0.7c-0.2-0.2-0.4-0.3-0.6-0.4c-0.2-0.1-0.5-0.1-0.8-0.1C700.3,108.2,700,108.3,699.7,108.4z" />
</g>
<path class="st0" d="M666.4,149.2c0,21.5-5.7,42.6-16.4,61.2l-106-61.2H666.4z" />
<path class="st1" d="M666.4,149.2c0,21.5-5.7,42.6-16.4,61.2l-106-61.2H666.4z" />
<path class="st2" d="M605.8,149.2c0,10.8-2.9,21.5-8.3,30.9L544,149.2H605.8z" />
<path class="st1" d="M605.8,149.2c0,10.8-2.9,21.5-8.3,30.9L544,149.2H605.8z" />
<g>
<path class="st4" d="M671.6,173.6c0.5,0.1,1,0.3,1.4,0.6c0.4,0.3,0.8,0.6,1,0.9c0.3,0.4,0.4,0.8,0.5,1.2c0.1,0.5,0.1,1-0.1,1.5    c-0.1,0.5-0.4,1-0.7,1.4c-0.3,0.4-0.7,0.6-1.1,0.8c-0.4,0.2-0.9,0.3-1.4,0.3c-0.5,0-1,0-1.5-0.2c-0.5-0.1-1-0.3-1.4-0.6    c-0.4-0.3-0.7-0.6-1-0.9c-0.3-0.4-0.4-0.8-0.5-1.2c-0.1-0.5-0.1-1,0.1-1.5c0.1-0.5,0.4-1,0.7-1.4c0.3-0.4,0.7-0.6,1.1-0.8    c0.4-0.2,0.9-0.3,1.3-0.3C670.6,173.4,671.1,173.4,671.6,173.6z M667.6,176c-0.1,0.5-0.1,0.9-0.1,1.3c0.1,0.4,0.2,0.7,0.5,1    c0.2,0.3,0.5,0.5,0.9,0.7c0.4,0.2,0.7,0.4,1.1,0.5c0.5,0.1,0.9,0.2,1.4,0.2c0.4,0,0.8-0.1,1.1-0.3c0.3-0.2,0.6-0.4,0.8-0.7    c0.2-0.3,0.4-0.6,0.5-1c0.1-0.5,0.1-0.9,0.1-1.2c-0.1-0.4-0.3-0.7-0.5-1c-0.2-0.3-0.5-0.5-0.9-0.7c-0.4-0.2-0.7-0.4-1.1-0.5    c-0.4-0.1-0.8-0.2-1.2-0.2c-0.4,0-0.8,0.1-1.1,0.2c-0.3,0.1-0.6,0.3-0.9,0.6C667.9,175.2,667.7,175.6,667.6,176z" />
</g>
<g>
<path class="st4" d="M668.5,185c0.4,0,0.8-0.1,1-0.3c0.3-0.2,0.5-0.5,0.6-0.9c0.1-0.3,0.1-0.6,0-0.8c-0.1-0.2-0.2-0.5-0.4-0.7    s-0.4-0.4-0.6-0.5c-0.2-0.1-0.5-0.2-0.8-0.3c-0.3-0.1-0.5-0.1-0.8-0.1s-0.5,0-0.8,0.1c-0.2,0.1-0.4,0.2-0.6,0.4s-0.3,0.4-0.4,0.7    c-0.1,0.4-0.1,0.8,0.1,1.2c0.2,0.3,0.5,0.6,0.9,0.8l-0.2,0.6c-0.3-0.1-0.5-0.3-0.7-0.5c-0.2-0.2-0.4-0.4-0.5-0.6    c-0.1-0.2-0.2-0.5-0.2-0.7c0-0.3,0-0.6,0.1-0.9c0.1-0.4,0.3-0.7,0.5-1s0.5-0.4,0.8-0.6c0.3-0.1,0.6-0.2,1-0.2c0.4,0,0.7,0,1.1,0.1    c0.4,0.1,0.7,0.2,1,0.4c0.3,0.2,0.5,0.4,0.7,0.7c0.2,0.3,0.3,0.6,0.4,0.9c0.1,0.3,0.1,0.7,0,1.1c-0.2,0.6-0.4,1-0.8,1.3    s-0.9,0.4-1.5,0.3L668.5,185z" />
</g>
<g>
<path class="st4" d="M664.2,187.1c0-0.1,0-0.2,0-0.3c0-0.1,0-0.3,0.1-0.4c0.1-0.3,0.2-0.5,0.4-0.6c0.2-0.1,0.5-0.1,0.9,0l3.7,1    l0.2-0.7l0.5,0.1l-0.2,0.7l1.4,0.4l-0.2,0.6l-1.4-0.4l-0.3,1l-0.5-0.1l0.3-1l-3.5-0.9c-0.1,0-0.2-0.1-0.3-0.1c-0.1,0-0.2,0-0.2,0    s-0.1,0.1-0.2,0.1c0,0.1-0.1,0.2-0.1,0.3c0,0.1,0,0.2,0,0.2s0,0.2,0,0.3L664.2,187.1z" />
</g>
<path class="st0" d="M683.4,229.7c-14.1,24.5-34.4,44.8-58.9,58.9L544,149.2L683.4,229.7z" />
<path class="st1" d="M683.4,229.7c-14.1,24.5-34.4,44.8-58.9,58.9L544,149.2L683.4,229.7z" />
<path class="st3" d="M625.3,196.2c-8.2,14.3-20.1,26.1-34.4,34.4L544,149.2L625.3,196.2z" />
<path class="st1" d="M625.3,196.2c-8.2,14.3-20.1,26.1-34.4,34.4L544,149.2L625.3,196.2z" />
<path class="st2" d="M593.4,177.7c-5,8.7-12.2,15.9-20.9,20.9L544,149.2L593.4,177.7z" />
<path class="st1" d="M593.4,177.7c-5,8.7-12.2,15.9-20.9,20.9L544,149.2L593.4,177.7z" />
<g>
<path class="st4" d="M671.8,265.4L671.8,265.4l-4.5-4.5l0.5-0.5l5.2,5.2l-0.6,0.6l-7.5-1.5l0,0l4.5,4.5l-0.5,0.5l-5.2-5.2l0.6-0.6    L671.8,265.4z" />
</g>
<g>
<path class="st4" d="M661.1,266.9c0.2-0.2,0.5-0.4,0.8-0.5s0.6-0.2,0.9-0.2s0.6,0.1,1,0.2c0.3,0.2,0.7,0.4,1,0.7    c0.3,0.3,0.5,0.6,0.7,0.9c0.2,0.3,0.3,0.6,0.3,0.9s0,0.6-0.1,1c-0.1,0.3-0.3,0.6-0.6,0.9c-0.3,0.3-0.6,0.5-0.9,0.6    c-0.3,0.1-0.6,0.2-1,0.1c-0.3,0-0.6-0.1-0.9-0.3s-0.6-0.4-0.9-0.7c-0.3-0.3-0.5-0.6-0.7-0.9c-0.2-0.3-0.2-0.6-0.3-1    c0-0.3,0-0.6,0.1-0.9C660.7,267.5,660.9,267.2,661.1,266.9z M661.8,270.1c0.2,0.2,0.4,0.4,0.7,0.5s0.5,0.2,0.7,0.3    c0.2,0,0.5,0,0.7-0.1c0.2-0.1,0.5-0.2,0.7-0.5c0.2-0.2,0.4-0.5,0.4-0.7c0.1-0.2,0.1-0.5,0-0.7c0-0.2-0.1-0.5-0.3-0.7    s-0.3-0.5-0.5-0.7c-0.2-0.2-0.5-0.4-0.7-0.6c-0.2-0.1-0.5-0.2-0.7-0.3c-0.2,0-0.5,0-0.7,0.1c-0.2,0.1-0.5,0.2-0.7,0.4    c-0.2,0.2-0.4,0.5-0.4,0.7s-0.1,0.5,0,0.7c0,0.2,0.1,0.5,0.3,0.7S661.6,269.9,661.8,270.1z" />
</g>
<g>
<path class="st4" d="M662.8,272.9l-0.5,0.5l-4.4-2l2,4.4l-0.5,0.5l-2.3-5.2l0.5-0.5L662.8,272.9z" />
</g>
<path class="st0" d="M653.6,339c-33.3,19.2-71.1,29.4-109.6,29.4V149.2L653.6,339z" />
<path class="st1" d="M653.6,339c-33.3,19.2-71.1,29.4-109.6,29.4V149.2L653.6,339z" />
<path class="st2" d="M574.2,201.5c-9.2,5.3-19.6,8.1-30.2,8.1v-60.4L574.2,201.5z" />
<path class="st1" d="M574.2,201.5c-9.2,5.3-19.6,8.1-30.2,8.1v-60.4L574.2,201.5z" />
<path class="st3" d="M572.2,198c-8.6,4.9-18.3,7.5-28.2,7.5v-56.3L572.2,198z" />
<path class="st1" d="M572.2,198c-8.6,4.9-18.3,7.5-28.2,7.5v-56.3L572.2,198z" />
<path class="st0" d="M544,428.1c-49,0-97.1-12.9-139.5-37.4L544,149.2V428.1z" />
<path class="st1" d="M544,428.1c-49,0-97.1-12.9-139.5-37.4L544,149.2V428.1z" />
<path class="st2" d="M544,244.8c-16.8,0-33.2-4.4-47.8-12.8l47.8-82.7V244.8z" />
<path class="st1" d="M544,244.8c-16.8,0-33.2-4.4-47.8-12.8l47.8-82.7V244.8z" />
<path class="st3" d="M544,197.6c-8.5,0-16.8-2.2-24.2-6.5l24.2-41.9V197.6z" />
<path class="st1" d="M544,197.6c-8.5,0-16.8-2.2-24.2-6.5l24.2-41.9V197.6z" />
<path class="st0" d="M418.9,365.9c-38-22-69.6-53.5-91.6-91.6L544,149.2L418.9,365.9z" />
<path class="st1" d="M418.9,365.9c-38-22-69.6-53.5-91.6-91.6L544,149.2L418.9,365.9z" />
<path class="st2" d="M492.4,238.6c-15.7-9.1-28.7-22.1-37.8-37.8l89.4-51.6L492.4,238.6z" />
<path class="st1" d="M492.4,238.6c-15.7-9.1-28.7-22.1-37.8-37.8l89.4-51.6L492.4,238.6z" />
<path class="st3" d="M526.4,179.7c-5.4-3.1-9.8-7.5-12.9-12.9l30.5-17.6L526.4,179.7z" />
<path class="st1" d="M526.4,179.7c-5.4-3.1-9.8-7.5-12.9-12.9l30.5-17.6L526.4,179.7z" />
<path class="st0" d="M378.5,244.8c-16.8-29.1-25.6-62-25.6-95.6H544L378.5,244.8z" />
<path class="st1" d="M378.5,244.8c-16.8-29.1-25.6-62-25.6-95.6H544L378.5,244.8z" />
<path class="st2" d="M481.5,185.3c-6.3-11-9.7-23.4-9.7-36.1H544L481.5,185.3z" />
<path class="st1" d="M481.5,185.3c-6.3-11-9.7-23.4-9.7-36.1H544L481.5,185.3z" />
<path class="st3" d="M517,164.8c-2.7-4.7-4.2-10.1-4.2-15.6H544L517,164.8z" />
<path class="st1" d="M517,164.8c-2.7-4.7-4.2-10.1-4.2-15.6H544L517,164.8z" />
<g>
<path class="st4" d="M356.5,205.2l-7.1,1.9l-0.3-1l5.6-4l0,0l-6.8-0.6l-0.3-1l7.1-1.9l0.2,0.7l-6.3,1.7l0,0l6.9,0.6l0.2,0.6    l-5.7,4l0,0l6.3-1.7L356.5,205.2z" />
</g>
<g>
<path class="st4" d="M350.8,195.5c0-0.1-0.1-0.2-0.2-0.4c-0.1-0.1-0.1-0.3-0.2-0.3c-0.1-0.1-0.2-0.1-0.3-0.1c-0.1,0-0.2,0-0.3,0    c-0.3,0.1-0.5,0.2-0.7,0.5s-0.1,0.6,0,1.1c0.1,0.2,0.1,0.4,0.2,0.5c0.1,0.2,0.2,0.3,0.3,0.4c0.1,0.1,0.3,0.2,0.4,0.2    c0.2,0,0.4,0,0.6,0l0.2,0.6c-0.3,0.1-0.6,0.1-0.8,0c-0.2-0.1-0.5-0.2-0.6-0.3c-0.2-0.2-0.3-0.3-0.5-0.6c-0.1-0.2-0.2-0.5-0.3-0.8    c-0.1-0.3-0.1-0.5-0.1-0.7c0-0.2,0-0.5,0.1-0.7c0.1-0.2,0.2-0.4,0.4-0.5c0.2-0.1,0.4-0.3,0.7-0.3l2.8-0.7c0.2-0.1,0.4-0.1,0.4-0.2    c0-0.1,0-0.3-0.2-0.5l0.5-0.1c0,0,0.1,0.1,0.1,0.2c0,0.1,0.1,0.2,0.1,0.2c0,0.1,0,0.2,0,0.3c0,0.1,0,0.2,0,0.3    c0,0.1-0.1,0.1-0.1,0.2c-0.1,0.1-0.1,0.1-0.2,0.1c-0.1,0-0.2,0.1-0.3,0.1c0.3,0.2,0.6,0.4,0.9,0.7c0.2,0.3,0.4,0.6,0.5,1    c0.1,0.2,0.1,0.4,0.1,0.7c0,0.2,0,0.4-0.1,0.6c-0.1,0.2-0.2,0.4-0.4,0.5c-0.2,0.1-0.4,0.2-0.6,0.3c-0.9,0.2-1.5-0.2-2-1.4    L350.8,195.5z M350.8,194.4c0.2,0.2,0.3,0.5,0.4,0.7s0.2,0.5,0.3,0.7c0.2,0.4,0.3,0.8,0.6,1c0.2,0.2,0.5,0.3,0.9,0.2    c0.2,0,0.3-0.1,0.4-0.2c0.1-0.1,0.2-0.2,0.2-0.3c0-0.1,0.1-0.3,0.1-0.4c0-0.1,0-0.3-0.1-0.4c-0.1-0.2-0.2-0.5-0.3-0.7    c-0.1-0.2-0.3-0.4-0.4-0.5c-0.2-0.1-0.4-0.2-0.6-0.3c-0.2-0.1-0.4,0-0.7,0L350.8,194.4z" />
</g>
<g>
<path class="st4" d="M352.7,191l0.2,0.6l-5.1,1.4l-0.2-0.6l1-0.3l0,0c-0.4-0.1-0.8-0.2-1-0.4c-0.2-0.2-0.4-0.5-0.5-1l0.6-0.2    c0.1,0.3,0.2,0.6,0.4,0.8c0.2,0.2,0.4,0.3,0.6,0.4c0.2,0.1,0.5,0.1,0.7,0.1c0.3,0,0.5-0.1,0.8-0.1L352.7,191z" />
</g>
<g>
</g>
<g>
</g>
<g>
</g>
<g>
</g>
<g>
</g>
<g>
</g>
<g>
</g>
<g>
</g>
<g>
</g>
<g>
</g>
</g>
</svg>