<?xml version='1.0' encoding='utf-8'?>
<svg height="340" style="max-width: 100%; height: auto; font: 10px sans-serif;" viewBox="-70,-30,880,340" width="900" xmlns="http://www.w3.org/2000/svg">
<style type="text/css">.st0 {
    opacity: 0.8;
    fill: none;
    stroke: hsl(0, 0%, 90%);
}

.st1 {
    fill: hsl(0, 0%, 54%);
}

.st2 {
    fill: none;
    stroke: hsl(0, 0%, 9%);
}

.st3 {
    fill: hsl(0, 97%, 48%);
}

.st4 {
    fill: hsl(0, 92%, 71%);
}

.st5 {
    fill: hsl(0, 100%, 70%);
}

.st6 {
    fill: hsl(0, 100%, 77%);
}</style>
<g id="Layer_1">
<polyline class="st3" points="261.6,102.1 239.4,102.1 239.4,139.5 261.6,139.5 261.6,102.1  " />
<path class="st4" d="M207.2,139.5L207.2,139.5L207.2,139.5 M239.4,102.1h-32.2v37.3h32.2V102.1L239.4,102.1" />
<path class="st5" d="M126.8,139.5L126.8,139.5L126.8,139.5 M207.2,102.1h-80.3v37.3h80.3V102.1" />
<polyline class="st6" points="126.8,102.1 44,102.1 44,139.5 126.8,139.5 126.8,102.1  " />
<polyline class="st3" points="211.3,42 160.1,42 160.1,79.3 211.3,79.3 211.3,42  " />
<path class="st4" d="M107.7,79.3L107.7,79.3L107.7,79.3 M160.1,42h-52.4v37.3h52.4V42" />
<path class="st5" d="M71,79.3L71,79.3L71,79.3 M107.7,42H71v37.3h36.7V42" />
<polyline class="st6" points="71,42 44,42 44,79.3 71,79.3 71,42  " />
<polyline class="st3" points="317.6,222.3 208.9,222.3 208.9,259.7 317.6,259.7 317.6,222.3  " />
<path class="st4" d="M135,259.7L135,259.7L135,259.7 M208.9,222.3H135v37.3h73.9V222.3" />
<path class="st5" d="M95.1,259.7L95.1,259.7L95.1,259.7 M135,222.3H95.1v37.3H135V222.3" />
<polyline class="st6" points="95.1,222.3 44,222.3 44,259.7 95.1,259.7 95.1,222.3  " />
<path class="st3" d="M171.2,199.6L171.2,199.6L171.2,199.6 M240.9,162.2h-69.7v37.3h69.7V162.2" />
<path class="st4" d="M133.7,199.6L133.7,199.6L133.7,199.6 M171.2,162.2h-37.5v37.3h37.5L171.2,162.2L171.2,162.2L171.2,162.2" />
<path class="st5" d="M82,199.6L82,199.6L82,199.6 M133.6,162.2H82v37.3h51.6V162.2" />
<polyline class="st6" points="82,162.2 44,162.2 44,199.6 82,199.6 82,162.2  " />
<polyline class="st3" points="688.8,102.1 658.5,102.1 658.5,139.5 688.8,139.5 688.8,102.1  " />
<path class="st4" d="M614.6,139.5L614.6,139.5L614.6,139.5 M658.5,102.1h-43.9v37.3h43.9V102.1L658.5,102.1" />
<path class="st5" d="M505,139.5L505,139.5L505,139.5 M614.5,102.1H505v37.3h109.6V102.1" />
<polyline class="st6" points="504.9,102.1 392,102.1 392,139.5 504.9,139.5 504.9,102.1  " />
<polyline class="st3" points="688.8,42 597.9,42 597.9,79.3 688.8,79.3 688.8,42  " />
<path class="st4" d="M505,79.3L505,79.3L505,79.3 M597.9,42H505v37.3h92.9V42" />
<path class="st5" d="M439.9,79.3L439.9,79.3L439.9,79.3 M505,42h-65.1v37.3H505V42" />
<polyline class="st6" points="439.9,42 392,42 392,79.3 439.9,79.3 439.9,42  " />
<polyline class="st3" points="688.7,222.3 570.2,222.3 570.2,259.7 688.7,259.7 688.7,222.3  " />
<path class="st4" d="M490.3,259.7L490.3,259.7L490.3,259.7 M570.2,222.3h-79.8v37.3h79.8V222.3" />
<path class="st5" d="M447.2,259.7L447.2,259.7L447.2,259.7 M490.3,222.3h-43.1v37.3h43.1V222.3" />
<polyline class="st6" points="447.2,222.3 392,222.3 392,259.7 447.2,259.7 447.2,222.3  " />
<polyline class="st3" points="688.8,162.2 583.7,162.2 583.7,199.6 688.8,199.6 688.8,162.2  " />
<path class="st4" d="M527.2,199.6L527.2,199.6L527.2,199.6 M583.7,162.2h-56.6v37.3h56.6V162.2L583.7,162.2" />
<path class="st5" d="M449.3,199.6L449.3,199.6L449.3,199.6 M527.1,162.2h-77.8v37.3h77.8V162.2" />
<polyline class="st6" points="449.2,162.2 392,162.2 392,199.6 449.2,199.6 449.2,162.2  " />
<line class="st2" x1="43.5" x2="43.5" y1="282.5" y2="22.2" />
<line class="st2" x1="391.5" x2="391.5" y1="282.5" y2="22.2" />
</g>
</svg>