<?xml version='1.0' encoding='utf-8'?>
<svg height="340" style="max-width: 100%; height: auto; font: 10px sans-serif;" viewBox="-300,-30,880,340" width="900" xmlns="http://www.w3.org/2000/svg">
<g transform="rotate(-90 450.0 170.0)"><style type="text/css">.st0 {
    fill: hsl(0, 100%, 51%);
}

.st1 {
    fill: hsl(0, 100%, 80%);
}

.st2 {
    fill: hsl(0, 96%, 81%);
}

.st3 {
    fill: hsl(0, 0%, 31%);
}

.st4 {
    fill: none;
    stroke: hsl(0, 0%, 10%);
}

.st5 {
    fill: none;
    stroke: hsl(0, 0%, 10%);
    stroke-linecap: round;
    stroke-linejoin: round;
}

.st6 {
    fill: hsl(0, 0%, 19%);
}</style>
<g id="Layer_2">
<rect class="st0" height="17.3" width="149.6" x="71" y="75.2" />
<rect class="st1" height="17.3" width="220" x="71" y="93.7" />
<rect class="st2" height="17.3" width="185.1" x="71" y="112.2" />
<rect class="st0" height="17.3" width="113.1" x="71" y="153.2" />
<rect class="st1" height="17.3" width="100.8" x="71" y="171.7" />
<rect class="st2" height="17.3" width="132.7" x="71" y="190.2" />
</g>
<g id="Layer_1">
<g>
<path class="st3" d="M42.8,107.4c-0.1-0.6-0.3-1.1-0.5-1.6l-0.8-2.1h-5.6l-0.8,2.1c-0.2,0.6-0.4,1.1-0.5,1.6h-1.7    c0.3-0.5,0.4-0.8,0.9-1.8l3.6-8.8c0.3-0.8,0.4-1.1,0.5-1.5h1.6c0.1,0.3,0.1,0.5,0.5,1.5l3.6,8.8c0.4,1,0.6,1.4,0.8,1.8H42.8z     M39,97.3c0-0.1,0-0.1-0.4-1c-0.1,0.2-0.1,0.4-0.2,0.5c-0.1,0.3-0.1,0.4-0.2,0.5l-2,5.3h4.8L39,97.3z" />
<path class="st3" d="M50.6,106.7c-1.1,0.9-2.2,1.4-4.3,2c-0.2-0.4-0.4-0.6-0.7-0.9c2.2-0.6,3.2-1,4.3-1.8c0.7-0.5,1.3-1.2,1.6-2    h-4.1c-0.8,0-1.3,0-1.7,0.1v-1.1c0.5,0.1,1,0.1,1.7,0.1h4.4c0.1-0.5,0.2-0.9,0.2-1.4c0-0.2,0-0.3,0-0.5l1.1,0c0,0.2,0,0.2,0,0.4    c-0.1,0.6-0.1,0.9-0.2,1.4H58c0.7,0,1.2,0,1.7-0.1v1.1c-0.5-0.1-1.1-0.1-1.7-0.1h-4.6c1.2,1.8,3.1,2.9,6.3,3.6    c-0.3,0.4-0.4,0.6-0.7,1c-3.4-1-5.4-2.4-6.6-4.7C52.1,105.2,51.5,106,50.6,106.7z M53.1,99.5c0,0.8,0,1,0.1,1.5H52    c0.1-0.4,0.1-0.8,0.1-1.5v-1.3c-0.4,0.5-1.1,1.1-2,1.7c-1,0.7-2.1,1.3-3.8,2c-0.2-0.4-0.4-0.6-0.7-0.9c2.5-0.8,3.7-1.4,5.4-2.9    h-3.5c-0.6,0-1.2,0-1.6,0.1V97c0.5,0.1,1,0.1,1.6,0.1h4.6v-1.9c0-0.4,0-0.7-0.1-1.1h1.2c-0.1,0.4-0.1,0.6-0.1,1.1v1.9h5    c0.7,0,1.2,0,1.6-0.1V98c-0.5-0.1-1-0.1-1.6-0.1h-5v0.2c2.3,0.8,4.3,1.8,6,2.8l-0.6,0.9c-1.1-0.8-2-1.2-4-2.2    c-0.5-0.3-1.1-0.5-1.4-0.7V99.5z M48.9,94.5c0.6,0.7,0.9,1,1.4,1.9l-0.8,0.4c-0.5-0.8-0.8-1.3-1.4-1.9L48.9,94.5z M57.3,95    c-0.8,1-1.2,1.5-1.8,2l-0.8-0.4c0.7-0.7,1.3-1.4,1.6-2L57.3,95z" />
</g>
<g>
<path class="st3" d="M36.7,183.4c-0.7,0-1.2,0-1.8,0c0.1-0.6,0.1-1.1,0.1-2v-8.6c0-0.7,0-1.1-0.1-1.7c0.5,0,0.8,0,1.7,0h3.4    c2.3,0,3.6,1.1,3.6,2.9c0,0.9-0.3,1.6-0.9,2.1c-0.3,0.3-0.6,0.4-1.3,0.6c0.7,0.1,1.1,0.3,1.6,0.7c0.7,0.6,1,1.4,1,2.4    c0,2.1-1.4,3.4-3.9,3.4H36.7z M40.1,176.5c1.5,0,2.4-0.8,2.4-2.1c0-1.3-0.8-2-2.4-2h-3.8v4.1H40.1z M36.3,182.3h3.9    c1.7,0,2.7-0.8,2.7-2.4c0-1.6-0.9-2.4-2.7-2.4h-3.8V182.3z" />
<path class="st3" d="M51,182.7c-1.1,0.9-2.2,1.4-4.3,2c-0.2-0.4-0.4-0.6-0.7-0.9c2.2-0.6,3.2-1,4.3-1.8c0.7-0.5,1.3-1.2,1.6-2    h-4.1c-0.8,0-1.3,0-1.7,0.1v-1.1c0.5,0.1,1,0.1,1.7,0.1h4.4c0.1-0.5,0.2-0.9,0.2-1.4c0-0.2,0-0.3,0-0.5l1.1,0c0,0.2,0,0.2,0,0.4    c-0.1,0.6-0.1,0.9-0.2,1.4h5.2c0.7,0,1.2,0,1.7-0.1v1.1c-0.5-0.1-1.1-0.1-1.7-0.1h-4.6c1.2,1.8,3.1,2.9,6.3,3.6    c-0.3,0.4-0.4,0.6-0.7,1c-3.4-1-5.4-2.4-6.6-4.7C52.5,181.2,51.9,182,51,182.7z M53.5,175.5c0,0.8,0,1,0.1,1.5h-1.2    c0.1-0.4,0.1-0.8,0.1-1.5v-1.3c-0.4,0.5-1.1,1.1-2,1.7c-1,0.7-2.1,1.3-3.8,2c-0.2-0.4-0.4-0.6-0.7-0.9c2.5-0.8,3.7-1.4,5.4-2.9    h-3.5c-0.6,0-1.2,0-1.6,0.1V173c0.5,0.1,1,0.1,1.6,0.1h4.6v-1.9c0-0.4,0-0.7-0.1-1.1h1.2c-0.1,0.4-0.1,0.6-0.1,1.1v1.9h5    c0.7,0,1.2,0,1.6-0.1v1.1c-0.5-0.1-1-0.1-1.6-0.1h-5v0.2c2.3,0.8,4.3,1.8,6,2.8l-0.6,0.9c-1.1-0.8-2-1.2-4-2.2    c-0.5-0.3-1.1-0.5-1.4-0.7V175.5z M49.3,170.5c0.6,0.7,0.9,1,1.4,1.9l-0.8,0.4c-0.5-0.8-0.8-1.3-1.4-1.9L49.3,170.5z M57.7,170.9    c-0.8,1-1.2,1.5-1.8,2l-0.8-0.4c0.7-0.7,1.3-1.4,1.6-2L57.7,170.9z" />
</g>
<g>
<path class="st6" d="M118.2,28.6c-1.2,1.6-1.9,2.4-3.6,3.6c-0.3-0.4-0.4-0.5-0.7-0.8c1.7-1,2.4-1.6,3.4-3.3L118.2,28.6z     M125.2,19.9c-0.1,0.1-0.1,0.1-0.2,0.2c-1.1,1.2-2,2-3,2.6c1.9,1,3.7,1.5,6.4,1.9c-0.3,0.4-0.4,0.5-0.5,1c-2-0.4-3.3-0.7-4.9-1.4    c-0.6-0.2-1.1-0.5-1.9-1c-0.6,0.4-1.2,0.6-2,1c-1.6,0.7-2.6,1-4.7,1.5c-0.1-0.4-0.2-0.6-0.5-0.9c2.5-0.4,4.4-1,6.3-2.1    c-0.8-0.6-1.4-1.1-2.1-1.9c-0.9,0.8-1.9,1.5-3.1,2.1c-0.1-0.3-0.3-0.5-0.6-0.8c1.2-0.6,2.1-1.1,3-1.9c0.9-0.8,1.5-1.5,2-2.4    l1.1,0.3c-0.2,0.2-0.3,0.4-0.9,1.1h3.6c0.7,0,1.1,0,1.5-0.1L125.2,19.9z M126.2,26.5c0.9,0,1.4,0,1.8-0.1v1.1    c-0.6-0.1-1.1-0.1-1.8-0.1h-4.7v3.9c0,0.9-0.4,1.2-1.8,1.2c-0.4,0-1,0-1.6,0c-0.1-0.4-0.1-0.6-0.3-1.1c0.7,0.1,1.2,0.1,1.7,0.1    c0.7,0,0.8-0.1,0.8-0.4v-3.8h-4.7c-0.4,0-1,0-1.5,0.1v-1.1c0.5,0.1,0.9,0.1,1.8,0.1h4.4v-0.8c0-0.5,0-0.7-0.1-1.1h1.2    c0,0.4-0.1,0.6-0.1,1.1v0.8H126.2z M118.9,20.2c0,0,0,0.1-0.1,0.1c0.9,0.9,1.4,1.4,2.4,2c0.9-0.6,1.6-1.2,2.5-2.1H118.9z     M127,32.2c-0.9-1.1-1-1.2-1.6-1.8c-0.8-0.8-1.2-1.1-1.9-1.6l0.7-0.6c0.6,0.5,1,0.8,2,1.7c0.6,0.5,0.9,0.8,1.5,1.6L127,32.2z" />
<path class="st6" d="M136.5,23.8h0.5c0.7,0,1,0,1.4-0.1v1.1c-0.4-0.1-0.7-0.1-1.4-0.1h-0.5v6c0,0.8,0,1.2,0.1,1.7l-1.2,0    c0.1-0.5,0.1-0.9,0.1-1.7v-6h-2.4c-0.1,3.6-0.8,5.6-2.7,7.7c-0.3-0.3-0.4-0.4-0.8-0.7c1.7-1.7,2.4-3.6,2.5-7h-0.7    c-0.6,0-1,0-1.5,0.1v-1.2c0.4,0.1,0.8,0.1,1.5,0.1h0.7v-4h-0.4c-0.7,0-1,0-1.4,0.1v-1.1c0.5,0.1,0.9,0.1,1.5,0.1h5    c0.6,0,1,0,1.4-0.1V20c-0.4-0.1-0.7-0.1-1.4-0.1h-0.4V23.8z M133.1,19.9v4h2.4v-4H133.1z M144.7,27.2c-0.4,0.3-0.4,0.3-1.1,1.2    c-0.7,0.8-1.7,1.7-2.7,2.4c-0.9,0.7-1.7,1.1-2.8,1.7c-0.2-0.3-0.3-0.6-0.6-0.9c2-0.8,3.7-2,5.2-3.6c0.5-0.5,0.9-1.1,1.1-1.5    L144.7,27.2z M143.6,19c-0.2,0.2-0.4,0.3-0.9,0.8c-1.5,1.4-2.6,2.2-4.2,3c-0.2-0.4-0.3-0.6-0.6-0.9c1.4-0.6,2.5-1.4,3.7-2.5    c0.6-0.6,0.9-0.9,1.1-1.2L143.6,19z M144.1,23.1c-0.2,0.2-0.4,0.3-0.7,0.6c-1.5,1.6-3.1,2.7-4.9,3.7c-0.2-0.4-0.4-0.6-0.6-0.9    c1.6-0.7,2.8-1.4,4.1-2.7c0.5-0.5,1-1,1.2-1.4L144.1,23.1z" />
<path class="st6" d="M150.4,25.5v5.7c1.7-0.4,2.3-0.5,3.9-1l-0.1,1c-0.6,0.2-0.6,0.2-1.8,0.5c-0.6,0.2-0.6,0.2-1.9,0.5    c-0.7,0.2-0.8,0.2-1.2,0.4l-0.4-0.9c0.2-0.2,0.3-0.2,0.3-0.4c0.1-0.1,0.1-0.6,0.1-0.9l0-4.8h-1.9c-0.7,0-1.1,0-1.6,0.1v-1.1    c0.4,0.1,0.9,0.1,1.6,0.1h1.9V20c0-0.7,0-1-0.1-1.4h1.2c-0.1,0.4-0.1,0.8-0.1,1.4v4.6h8.2c0.7,0,1.1,0,1.6-0.1v1.1    c-0.4-0.1-0.9-0.1-1.5-0.1h-4.5c0.7,1.4,1.2,2.2,2.1,3.1c1.2,1.2,2.3,2,4.2,2.8c-0.3,0.2-0.6,0.6-0.8,0.9    c-2.4-1.3-3.8-2.4-4.9-3.9c-0.7-0.8-1.3-1.9-1.7-2.9H150.4z M158.5,19.8c-0.1,0.1-0.1,0.1-0.4,0.3c-0.6,0.4-1.9,1.3-2.6,1.7    c-0.9,0.5-1.9,1-3.2,1.5c-0.2-0.4-0.3-0.6-0.7-0.9c1.4-0.4,2.8-1.1,4.3-2c0.8-0.5,1.5-1,1.7-1.4L158.5,19.8z" />
<path class="st6" d="M164.2,23c-0.1,3-0.2,4.4-0.4,5.8c-0.3,1.4-0.6,2.4-1.3,3.7c-0.3-0.4-0.5-0.6-0.8-0.8c0.6-1,0.9-1.8,1.1-2.9    c0.3-1.6,0.5-3.8,0.5-7.4c0-1,0-1.5-0.1-2c0.5,0,1,0.1,1.6,0.1h4.6c-0.3-0.5-0.4-0.7-0.7-1.1l0.9-0.5c0.3,0.4,0.3,0.4,0.9,1.4    c0,0,0,0,0.1,0.2h3.9c0.8,0,1.3,0,1.7-0.1v1.1c-0.5-0.1-0.9-0.1-1.7-0.1h-10.2l0,1.7h2.9v-0.3c0-0.4,0-0.7-0.1-1h1.1    c0,0.3-0.1,0.6-0.1,1v0.3h3.7v-0.2c0-0.4,0-0.8-0.1-1.1h1.1c0,0.3-0.1,0.6-0.1,1.1v0.2h1.9c0.7,0,1.1,0,1.5-0.1v1    c-0.4-0.1-0.8-0.1-1.5-0.1h-1.9v1.6c0,0.4,0,0.7,0,1c-0.3,0-0.4,0-1,0h-3.6c-0.6,0-0.9,0-1.2,0c0-0.3,0-0.6,0-1V23H164.2z     M174.2,27.3c-0.2,0.2-0.3,0.3-0.5,0.6c-0.7,0.8-1.7,1.7-2.6,2.3c1.6,0.8,3.3,1.2,5.2,1.3c-0.2,0.4-0.4,0.6-0.5,1.1    c-2.4-0.4-4.1-0.9-5.7-1.8c-1.8,0.9-3.3,1.5-5.8,1.9c-0.1-0.4-0.2-0.6-0.4-1c2.3-0.3,3.9-0.7,5.4-1.5c-1.1-0.8-1.8-1.5-2.6-2.7    c-0.8,0-1.2,0-1.6,0.1v-1c0.4,0.1,0.8,0.1,1.6,0.1h5.8c0.5,0,0.8,0,1.1,0L174.2,27.3z M167.8,27.6c0.6,0.9,1.3,1.5,2.4,2.2    c1-0.7,1.6-1.1,2.6-2.2H167.8z M168.1,24.7h3.7V23h-3.7V24.7z" />
<path class="st6" d="M192,24.9V26h-8.8v-1.1H192z M192,28.1v1.1h-8.8v-1.1H192z" />
<path class="st6" d="M205.6,21.5c0.6,0,0.8,0,1.1-0.1v1c-0.3,0-0.5-0.1-1.1-0.1h-2.1v0.3c1.4,0.7,1.4,0.7,2.5,1.4l-0.5,0.8    c-0.7-0.6-0.9-0.7-1.6-1.2c-0.1-0.1-0.2-0.1-0.3-0.2v1c0,0.2,0,0.5,0.1,0.7h-1c0-0.2,0.1-0.4,0.1-0.7v-0.9c0-0.3,0-0.5,0.1-0.9    c-0.8,1.4-1.4,2-3,3.2c-0.2-0.3-0.4-0.5-0.7-0.8c1.1-0.7,1.7-1.1,2.4-1.8c0.2-0.2,0.3-0.3,0.6-0.8h-1.5c-0.6,0-0.9,0-1.3,0.1v-1    c0.3,0.1,0.7,0.1,1.3,0.1h2.1v-2.1c0-0.4,0-0.7-0.1-1.1h1.1c-0.1,0.4-0.1,0.6-0.1,1.1v2.1H205.6z M205.2,31.6    c-0.7-0.5-0.9-0.7-1.5-1c-0.9,0.8-2.1,1.4-4.1,2c-0.1-0.4-0.3-0.6-0.5-0.9c1.6-0.4,2.8-0.9,3.7-1.6c-0.8-0.4-1.2-0.6-2.6-1.1    c0.6-0.7,0.7-1,1.2-1.7h-1c-0.5,0-0.8,0-1.2,0.1v-1c0.3,0.1,0.6,0.1,1.2,0.1h1.4c0.2-0.4,0.3-0.6,0.5-1.3l1,0.2    c-0.3,0.6-0.3,0.8-0.4,1h2.2c0.1,0,0.5,0,1.2,0c-0.5,1.6-0.9,2.3-1.8,3.5c0.7,0.4,0.8,0.4,1.4,0.8L205.2,31.6z M200.5,18.6    c0.5,0.8,0.8,1.3,1.2,2.1l-0.9,0.4c-0.3-0.9-0.6-1.4-1.2-2.1L200.5,18.6z M202.3,27.3c-0.2,0.4-0.4,0.6-0.8,1.3    c0.9,0.4,1.2,0.5,2,0.8c0.6-0.7,1.1-1.5,1.4-2.2H202.3z M206.4,18.9c-0.5,1.1-0.8,1.6-1.4,2.3l-0.8-0.4c0.6-0.8,1-1.4,1.3-2.3    L206.4,18.9z M213.5,22.3c-0.4-0.1-0.6-0.1-1.4-0.1c-0.2,2.7-0.7,4.6-1.8,6.4c0.9,1.3,2,2.2,3.6,3c-0.3,0.3-0.4,0.5-0.6,1    c-1.5-0.8-2.6-1.9-3.6-3.2c-1.1,1.3-2.3,2.3-4.1,3.3c-0.2-0.4-0.4-0.6-0.7-0.9c1.9-0.9,3.2-1.9,4.1-3.3c-0.9-1.5-1.3-2.8-1.6-4.7    c-0.4,0.8-0.6,1.2-1.2,1.9c-0.3-0.3-0.4-0.4-0.8-0.6c0.8-1,1.4-2,2-3.5c0.4-1.2,0.8-2.4,0.8-3.4l1.1,0.2c-0.1,0.2-0.1,0.2-0.3,1    c-0.2,0.8-0.3,1-0.5,1.9h3.4c0.7,0,1.1,0,1.5-0.1V22.3z M208.3,22.2c0,0.1,0,0.1-0.1,0.2c0,0.1-0.1,0.1-0.1,0.2    c0.3,1.5,0.3,1.5,0.5,2.3c0.3,1.1,0.7,1.9,1.1,2.8c0.4-0.8,0.7-1.4,0.9-2.3c0.3-1,0.4-1.7,0.5-3.2H208.3z" />
<path class="st6" d="M217.6,30.7c0,0.8,0,1.4,0.1,1.9h-1.2c0.1-0.6,0.1-1.1,0.1-2v-5c0-0.6,0-1.1,0-1.9c-0.5,0.9-0.8,1.3-1.3,2    c-0.2-0.4-0.4-0.6-0.7-0.9c1.3-1.4,2.2-3,2.9-4.9c0.3-0.9,0.4-1.2,0.5-1.8l1.1,0.3c-0.1,0.3-0.2,0.5-0.3,0.9    c-0.3,0.8-0.4,1.1-0.5,1.4c-0.5,1.2-0.5,1.2-0.7,1.7V30.7z M223,22.2c0.2-0.9,0.3-0.9,0.4-1.6h-2.7c-0.5,0-1,0-1.5,0.1v-1.1    c0.4,0.1,0.9,0.1,1.5,0.1h2.9c0.1-0.9,0.1-1.1,0.1-1.4c0,0,0-0.1,0-0.2l1.1,0.1c0,0.2,0,0.2-0.1,0.8c0,0.2,0,0.2-0.1,0.5    c0,0.1,0,0.1,0,0.3h3.1c0.7,0,1.2,0,1.7-0.1v1.1c-0.5-0.1-1-0.1-1.7-0.1h-3.2c0,0.2-0.2,0.8-0.4,1.6h2.8c0.5,0,0.8,0,1.2,0    c0,0.4-0.1,0.7-0.1,1.2v7.9h0.2c0.3,0,0.8,0,1.2-0.1v1.1c-0.5-0.1-1-0.1-1.7-0.1h-7.4c-0.6,0-1,0-1.6,0.1v-1.1    c0.4,0.1,0.9,0.1,1.3,0.1h0.3v-7.9c0-0.5,0-0.9-0.1-1.2c0.3,0,0.7,0,1.2,0H223z M221.3,24.5h5.6V23h-5.6V24.5z M221.3,26.8h5.6    v-1.5h-5.6V26.8z M221.3,29h5.6v-1.5h-5.6V29z M221.3,31.3h5.6v-1.5h-5.6V31.3z" />
<path class="st6" d="M237.6,21.5c0.6,0,0.8,0,1.1-0.1v1c-0.3,0-0.5-0.1-1.1-0.1h-2.1v0.3c1.4,0.7,1.4,0.7,2.5,1.4l-0.5,0.8    c-0.7-0.6-0.9-0.7-1.6-1.2c-0.1-0.1-0.2-0.1-0.3-0.2v1c0,0.2,0,0.5,0.1,0.7h-1c0-0.2,0.1-0.4,0.1-0.7v-0.9c0-0.3,0-0.5,0.1-0.9    c-0.8,1.4-1.4,2-3,3.2c-0.2-0.3-0.4-0.5-0.7-0.8c1.1-0.7,1.7-1.1,2.4-1.8c0.2-0.2,0.3-0.3,0.6-0.8h-1.5c-0.6,0-0.9,0-1.3,0.1v-1    c0.3,0.1,0.7,0.1,1.3,0.1h2.1v-2.1c0-0.4,0-0.7-0.1-1.1h1.1c-0.1,0.4-0.1,0.6-0.1,1.1v2.1H237.6z M237.2,31.6    c-0.7-0.5-0.9-0.7-1.5-1c-0.9,0.8-2.1,1.4-4.1,2c-0.1-0.4-0.3-0.6-0.5-0.9c1.6-0.4,2.8-0.9,3.7-1.6c-0.8-0.4-1.2-0.6-2.6-1.1    c0.6-0.7,0.7-1,1.2-1.7h-1c-0.5,0-0.8,0-1.2,0.1v-1c0.3,0.1,0.6,0.1,1.2,0.1h1.4c0.2-0.4,0.3-0.6,0.5-1.3l1,0.2    c-0.3,0.6-0.3,0.8-0.4,1h2.2c0.1,0,0.5,0,1.2,0c-0.5,1.6-0.9,2.3-1.8,3.5c0.7,0.4,0.8,0.4,1.4,0.8L237.2,31.6z M232.5,18.6    c0.5,0.8,0.8,1.3,1.2,2.1l-0.9,0.4c-0.3-0.9-0.6-1.4-1.2-2.1L232.5,18.6z M234.3,27.3c-0.2,0.4-0.4,0.6-0.8,1.3    c0.9,0.4,1.2,0.5,2,0.8c0.6-0.7,1.1-1.5,1.4-2.2H234.3z M238.4,18.9c-0.5,1.1-0.8,1.6-1.4,2.3l-0.8-0.4c0.6-0.8,1-1.4,1.3-2.3    L238.4,18.9z M245.5,22.3c-0.4-0.1-0.6-0.1-1.4-0.1c-0.2,2.7-0.7,4.6-1.8,6.4c0.9,1.3,2,2.2,3.6,3c-0.3,0.3-0.4,0.5-0.6,1    c-1.5-0.8-2.6-1.9-3.6-3.2c-1.1,1.3-2.3,2.3-4.1,3.3c-0.2-0.4-0.4-0.6-0.7-0.9c1.9-0.9,3.2-1.9,4.1-3.3c-0.9-1.5-1.3-2.8-1.6-4.7    c-0.4,0.8-0.6,1.2-1.2,1.9c-0.3-0.3-0.4-0.4-0.8-0.6c0.8-1,1.4-2,2-3.5c0.4-1.2,0.8-2.4,0.8-3.4l1.1,0.2c-0.1,0.2-0.1,0.2-0.3,1    c-0.2,0.8-0.3,1-0.5,1.9h3.4c0.7,0,1.1,0,1.5-0.1V22.3z M240.3,22.2c0,0.1,0,0.1-0.1,0.2c0,0.1-0.1,0.1-0.1,0.2    c0.3,1.5,0.3,1.5,0.5,2.3c0.3,1.1,0.7,1.9,1.1,2.8c0.4-0.8,0.7-1.4,0.9-2.3c0.3-1,0.4-1.7,0.5-3.2H240.3z" />
<path class="st6" d="M247.1,23.2c0.4,0.1,0.9,0.1,1.6,0.1h11c0.7,0,1.2,0,1.6-0.1v0.9c-0.4-0.1-0.8-0.1-1.6-0.1h-11    c-0.8,0-1.2,0-1.6,0.1V23.2z M254.6,29.7h4.2c0.7,0,1,0,1.3-0.1v0.9c-0.4-0.1-0.8-0.1-1.4-0.1h-4.2v0.9h5.1c0.7,0,1.2,0,1.6-0.1v1    c-0.5-0.1-1-0.1-1.6-0.1h-10.9c-0.7,0-1.2,0-1.6,0.1v-1c0.5,0.1,0.9,0.1,1.6,0.1h4.9v-0.9h-3.9c-0.6,0-1,0-1.4,0.1v-0.9    c0.4,0.1,0.7,0.1,1.4,0.1h4v-0.9h-3.1c-0.7,0-1.1,0-1.5,0.1c0-0.4,0-0.6,0-1.3v-1.7c0-0.4,0-0.7,0-1.1c0.3,0,0.8,0.1,1.5,0.1h7.3    c0.6,0,1,0,1.5-0.1c0,0.3,0,0.6,0,1.1v1.8c0,0.6,0,1,0,1.3c-0.6,0-1-0.1-1.5-0.1h-3.3V29.7z M250.4,22.4c-0.9,0-1.2,0-1.6,0    c0-0.4,0.1-0.7,0.1-1.2v-1.5c0-0.5,0-0.8-0.1-1.2c0.5,0,0.9,0.1,1.6,0.1h7.7c0.7,0,1.1,0,1.6-0.1c0,0.4-0.1,0.7-0.1,1.2v1.5    c0,0.5,0,0.8,0.1,1.2c-0.4,0-0.7,0-1.6,0H250.4z M249.7,20.2h8.9v-0.8h-8.9V20.2z M249.7,21.7h8.9v-0.8h-8.9V21.7z M253.7,25.6    H250v0.9h3.6V25.6z M253.7,27.2H250v0.9h3.6V27.2z M258.4,26.5v-0.9h-3.8v0.9H258.4z M258.4,28.1v-0.9h-3.8v0.9H258.4z" />
</g>
<g>
<g>
<path class="st3" d="M174.7,269.5c-0.9-1.4-1.3-2.2-1.7-3.3c-0.4-1.3-0.7-2.7-0.7-4.2c0-1.5,0.2-2.9,0.7-4.2     c0.4-1.1,0.8-1.9,1.7-3.3l1,0.6c-0.9,1.4-1.2,2.1-1.6,3.2c-0.4,1.2-0.5,2.4-0.5,3.6s0.2,2.5,0.5,3.6c0.4,1.1,0.7,1.9,1.6,3.2     L174.7,269.5z" />
<path class="st3" d="M180.3,266.4c0,0.9,0,1.4,0.1,1.9h-1.2c0.1-0.4,0.1-1,0.1-1.9v-4.4c0-0.7,0-1.6,0.1-2.6     c-0.5,2.2-1.1,3.6-2.1,5.1c-0.2-0.4-0.4-0.6-0.6-0.9c0.8-0.9,1.4-2.1,1.9-3.6c0.2-0.6,0.5-1.7,0.6-2.3h-0.8c-0.5,0-0.9,0-1.3,0.1     v-1.1c0.4,0.1,0.7,0.1,1.3,0.1h1v-1.5c0-0.7,0-1.2-0.1-1.6h1.2c-0.1,0.4-0.1,0.9-0.1,1.6v1.5h0.9c0.4,0,0.7,0,1.1-0.1v1     c-0.3,0-0.7-0.1-1.1-0.1h-0.9v0.8c1,1.1,1.4,1.7,2.1,2.6l-0.8,0.7c-0.4-0.7-0.8-1.3-1.3-2.1V266.4z M184.9,261.1     c-0.6,2.3-1.2,3.5-2.5,5.3c-0.2-0.3-0.4-0.5-0.8-0.8c1.2-1.4,1.8-2.5,2.4-4.9L184.9,261.1z M183.9,259.3c-0.6,0-1,0-1.5,0.1v-1.2     c0.4,0.1,0.8,0.1,1.5,0.1h6.1c0.7,0,1,0,1.5-0.1v1.2c-0.5-0.1-0.9-0.1-1.5-0.1h-2.6v7.1c0,0.7,0,0.7-0.1,0.9     c-0.2,0.4-0.6,0.6-1.5,0.6c-0.4,0-0.7,0-1.4-0.1c0-0.4-0.1-0.6-0.3-1.1c0.8,0.1,1.2,0.1,1.7,0.1c0.4,0,0.5,0,0.5-0.4v-7.3H183.9z      M183.2,254.5c0.4,0.1,0.7,0.1,1.2,0.1h4.8c0.5,0,0.8,0,1.2-0.1v1.1c-0.4,0-0.7-0.1-1.2-0.1h-4.9c-0.5,0-0.9,0-1.2,0.1V254.5z      M190.8,266.3c-0.8-2.6-1.2-3.7-2.1-5.2l0.9-0.3c0.6,1,1.6,3.3,2.1,5L190.8,266.3z" />
<path class="st3" d="M201.3,260.2c0.4,1.7,1,2.8,2.1,4c1,1.1,2.3,2,4.1,2.9c-0.3,0.4-0.5,0.6-0.7,1c-2.2-1.2-3.6-2.3-4.7-3.8     c-0.6-0.8-1.2-1.9-1.5-2.9c-0.1-0.3-0.1-0.3-0.3-1.1h-3.9c-0.2,2.4-0.5,3.8-1.1,5.2c-0.4,1-0.9,1.8-1.6,2.8l-0.2-0.2     c-0.3-0.3-0.4-0.4-0.7-0.6c0.7-0.9,1.2-1.6,1.5-2.4c0.8-1.9,1.1-4.2,1.1-8.6c0-1,0-1.4-0.1-2c0.5,0.1,1,0.1,1.9,0.1h7     c0.7,0,1.2,0,1.7-0.1c0,0.4-0.1,0.8-0.1,1.4v3.2c0,0.6,0,1,0.1,1.4c-0.5-0.1-1-0.1-1.7-0.1H201.3z M204.9,259.3v-3.8h-8.4v2.3     c0,0.3,0,0.8,0,1.6H204.9z" />
<path class="st3" d="M209.6,254.5c0.9,1.4,1.3,2.2,1.7,3.3c0.4,1.3,0.7,2.7,0.7,4.2c0,1.5-0.2,2.9-0.7,4.2     c-0.4,1.2-0.8,1.9-1.7,3.3l-1-0.6c0.9-1.4,1.2-2.1,1.6-3.2c0.4-1.2,0.5-2.4,0.5-3.6c0-1.3-0.2-2.5-0.5-3.6     c-0.4-1.1-0.7-1.9-1.6-3.2L209.6,254.5z" />
</g>
</g>
<line class="st4" x1="67.9" x2="73" y1="59.7" y2="59.7" />
<g>
<path class="st3" d="M57.9,297.3c0.9,0,1.4,0,1.9-0.1v1.2c-0.6-0.1-1.1-0.1-1.9-0.1h-4.5v5.3c0,1.1-0.4,1.3-1.9,1.3    c-0.5,0-1,0-2-0.1c-0.1-0.5-0.1-0.7-0.3-1.1c1,0.1,1.6,0.2,2.3,0.2c0.6,0,0.8-0.1,0.8-0.5v-5.2h-4.8c-0.8,0-1.4,0-2,0.1v-1.2    c0.6,0.1,1.1,0.1,2,0.1h4.7v-1.1c0-0.4,0-0.7,0-1.1H53c1.5-0.8,2.4-1.4,3.6-2.6h-7.7c-0.6,0-1.2,0-1.6,0.1v-1.2    c0.5,0.1,1,0.1,1.6,0.1h7.6c0.7,0,1,0,1.2-0.1l0.7,0.7c-0.4,0.3-0.4,0.4-0.6,0.5c-1.8,1.6-2.4,2-4.4,3.2v1.3H57.9z" />
<path class="st3" d="M66.6,303.4c-1.1,0.9-2.2,1.4-4.3,2c-0.2-0.4-0.4-0.6-0.7-0.9c2.2-0.6,3.2-1,4.3-1.8c0.7-0.5,1.3-1.2,1.6-2    h-4.1c-0.8,0-1.3,0-1.7,0.1v-1.1c0.5,0.1,1,0.1,1.7,0.1h4.4c0.1-0.5,0.2-0.9,0.2-1.4c0-0.2,0-0.3,0-0.5l1.1,0c0,0.2,0,0.2,0,0.4    c-0.1,0.6-0.1,0.9-0.2,1.4H74c0.7,0,1.2,0,1.7-0.1v1.1c-0.5-0.1-1.1-0.1-1.7-0.1h-4.6c1.2,1.8,3.1,2.9,6.3,3.6    c-0.3,0.4-0.4,0.6-0.7,1c-3.4-1-5.4-2.4-6.6-4.7C68.1,301.8,67.5,302.7,66.6,303.4z M69.1,296.1c0,0.8,0,1,0.1,1.5H68    c0.1-0.4,0.1-0.8,0.1-1.5v-1.3c-0.4,0.5-1.1,1.1-2,1.7c-1,0.7-2.1,1.3-3.8,2c-0.2-0.4-0.4-0.6-0.7-0.9c2.5-0.8,3.7-1.4,5.4-2.9    h-3.5c-0.6,0-1.2,0-1.6,0.1v-1.1c0.5,0.1,1,0.1,1.6,0.1h4.6v-1.9c0-0.4,0-0.7-0.1-1.1h1.2c-0.1,0.4-0.1,0.6-0.1,1.1v1.9h5    c0.7,0,1.2,0,1.6-0.1v1.1c-0.5-0.1-1-0.1-1.6-0.1h-5v0.2c2.3,0.8,4.3,1.8,6,2.8l-0.6,0.9c-1.1-0.8-2-1.2-4-2.2    c-0.5-0.3-1.1-0.5-1.4-0.7V296.1z M64.9,291.2c0.6,0.7,0.9,1,1.4,1.9l-0.8,0.4c-0.5-0.8-0.8-1.3-1.4-1.9L64.9,291.2z M73.3,291.6    c-0.8,1-1.2,1.5-1.8,2l-0.8-0.4c0.7-0.7,1.3-1.4,1.6-2L73.3,291.6z" />
<path class="st3" d="M79.9,296.3c-0.8,0-1.3,0-1.8,0.1c0-0.5,0.1-0.8,0.1-1.5V293c0-0.7,0-1-0.1-1.5c0.5,0.1,0.9,0.1,1.8,0.1H83    c1,0,1.4,0,1.8-0.1c0,0.5-0.1,0.8-0.1,1.5v1.9c0,0.7,0,1,0.1,1.5c-0.5,0-1-0.1-1.8-0.1h-1.3c0,1.4,0,1.4-0.1,1.9    c0,0.1,0,0.1,0,0.2h1.7c0.7,0,1.1,0,1.5-0.1c0,0.3,0,0.4-0.1,1.6c-0.1,2.6-0.2,4.1-0.6,4.6c-0.2,0.4-0.6,0.5-1.4,0.5    c-0.4,0-0.9,0-1.6-0.1c0-0.4,0-0.6-0.2-1.1c0.8,0.2,1.3,0.2,1.8,0.2c0.5,0,0.6-0.1,0.7-0.6c0.2-1,0.3-2.3,0.3-4.2h-2.3    c-0.4,2.5-1.2,4.3-3.1,6c-0.2-0.4-0.4-0.6-0.8-0.8c1.1-0.9,1.6-1.6,2.2-2.7c0.3-0.7,0.6-1.6,0.7-2.4h-0.7c-0.5,0-1.3,0-1.9,0.1    v-1.1c0.6,0.1,1.2,0.1,1.9,0.1h0.8c0-0.5,0-0.5,0.1-2.1H79.9z M79.2,295.4h4.6v-2.9h-4.6V295.4z M87.8,291.7    c-0.1,0.4-0.1,0.9-0.1,1.8v6.2c0,1.1,0,1.4,0.1,1.9h-1.2c0.1-0.4,0.1-0.8,0.1-1.9v-6.2c0-0.9,0-1.4-0.1-1.8H87.8z M91.3,291    c-0.1,0.6-0.1,1.2-0.1,2v10.5c0,0.7-0.1,1.1-0.5,1.3c-0.3,0.1-0.6,0.2-1.3,0.2c-0.5,0-0.9,0-1.7-0.1c-0.1-0.4-0.2-0.7-0.3-1.1    c0.7,0.1,1.6,0.2,2.1,0.2c0.6,0,0.8-0.1,0.8-0.5v-10.5c0-0.9,0-1.4-0.1-2H91.3z" />
<path class="st3" d="M95.2,291.8c0.4,0.1,0.7,0.1,1.3,0.1h1c0.5,0,0.8,0,1.3-0.1c-0.1,1-0.1,1.8-0.1,2.7v7.8c0,0.8,0,1.2,0.1,1.8    h-1.5c0.1-0.6,0.1-1.1,0.1-1.8V293h-0.9c-0.5,0-0.9,0-1.4,0.1V291.8z" />
</g>
<rect class="st0" height="17" width="17" x="21" y="289.9" />
<g>
<path class="st3" d="M172.6,297.3c0.9,0,1.4,0,1.9-0.1v1.2c-0.6-0.1-1.1-0.1-1.9-0.1h-4.5v5.3c0,1.1-0.4,1.3-1.9,1.3    c-0.5,0-1,0-2-0.1c-0.1-0.5-0.1-0.7-0.3-1.1c1,0.1,1.6,0.2,2.3,0.2c0.6,0,0.8-0.1,0.8-0.5v-5.2h-4.8c-0.8,0-1.4,0-2,0.1v-1.2    c0.6,0.1,1.1,0.1,2,0.1h4.7v-1.1c0-0.4,0-0.7,0-1.1h0.7c1.5-0.8,2.4-1.4,3.6-2.6h-7.7c-0.6,0-1.2,0-1.6,0.1v-1.2    c0.5,0.1,1,0.1,1.6,0.1h7.6c0.7,0,1,0,1.2-0.1l0.7,0.7c-0.4,0.3-0.4,0.4-0.6,0.5c-1.8,1.6-2.4,2-4.4,3.2v1.3H172.6z" />
<path class="st3" d="M181.3,303.4c-1.1,0.9-2.2,1.4-4.3,2c-0.2-0.4-0.4-0.6-0.7-0.9c2.2-0.6,3.2-1,4.3-1.8c0.7-0.5,1.3-1.2,1.6-2    h-4.1c-0.8,0-1.3,0-1.7,0.1v-1.1c0.5,0.1,1,0.1,1.7,0.1h4.4c0.1-0.5,0.2-0.9,0.2-1.4c0-0.2,0-0.3,0-0.5l1.1,0c0,0.2,0,0.2,0,0.4    c-0.1,0.6-0.1,0.9-0.2,1.4h5.2c0.7,0,1.2,0,1.7-0.1v1.1c-0.5-0.1-1.1-0.1-1.7-0.1h-4.6c1.2,1.8,3.1,2.9,6.3,3.6    c-0.3,0.4-0.4,0.6-0.7,1c-3.4-1-5.4-2.4-6.6-4.7C182.8,301.8,182.2,302.7,181.3,303.4z M183.8,296.1c0,0.8,0,1,0.1,1.5h-1.2    c0.1-0.4,0.1-0.8,0.1-1.5v-1.3c-0.4,0.5-1.1,1.1-2,1.7c-1,0.7-2.1,1.3-3.8,2c-0.2-0.4-0.4-0.6-0.7-0.9c2.5-0.8,3.7-1.4,5.4-2.9    h-3.5c-0.6,0-1.2,0-1.6,0.1v-1.1c0.5,0.1,1,0.1,1.6,0.1h4.6v-1.9c0-0.4,0-0.7-0.1-1.1h1.2c-0.1,0.4-0.1,0.6-0.1,1.1v1.9h5    c0.7,0,1.2,0,1.6-0.1v1.1c-0.5-0.1-1-0.1-1.6-0.1h-5v0.2c2.3,0.8,4.3,1.8,6,2.8l-0.6,0.9c-1.1-0.8-2-1.2-4-2.2    c-0.5-0.3-1.1-0.5-1.4-0.7V296.1z M179.6,291.2c0.6,0.7,0.9,1,1.4,1.9l-0.8,0.4c-0.5-0.8-0.8-1.3-1.4-1.9L179.6,291.2z M188,291.6    c-0.8,1-1.2,1.5-1.8,2l-0.8-0.4c0.7-0.7,1.3-1.4,1.6-2L188,291.6z" />
<path class="st3" d="M194.6,296.3c-0.8,0-1.3,0-1.8,0.1c0-0.5,0.1-0.8,0.1-1.5V293c0-0.7,0-1-0.1-1.5c0.5,0.1,0.9,0.1,1.8,0.1h3.1    c1,0,1.4,0,1.8-0.1c0,0.5-0.1,0.8-0.1,1.5v1.9c0,0.7,0,1,0.1,1.5c-0.5,0-1-0.1-1.8-0.1h-1.3c0,1.4,0,1.4-0.1,1.9    c0,0.1,0,0.1,0,0.2h1.7c0.7,0,1.1,0,1.5-0.1c0,0.3,0,0.4-0.1,1.6c-0.1,2.6-0.2,4.1-0.6,4.6c-0.2,0.4-0.6,0.5-1.4,0.5    c-0.4,0-0.9,0-1.6-0.1c0-0.4,0-0.6-0.2-1.1c0.8,0.2,1.3,0.2,1.8,0.2c0.5,0,0.6-0.1,0.7-0.6c0.2-1,0.3-2.3,0.3-4.2h-2.3    c-0.4,2.5-1.2,4.3-3.1,6c-0.2-0.4-0.4-0.6-0.8-0.8c1.1-0.9,1.6-1.6,2.2-2.7c0.3-0.7,0.6-1.6,0.7-2.4h-0.7c-0.5,0-1.3,0-1.9,0.1    v-1.1c0.6,0.1,1.2,0.1,1.9,0.1h0.8c0-0.5,0-0.5,0.1-2.1H194.6z M193.9,295.4h4.6v-2.9h-4.6V295.4z M202.5,291.7    c-0.1,0.4-0.1,0.9-0.1,1.8v6.2c0,1.1,0,1.4,0.1,1.9h-1.2c0.1-0.4,0.1-0.8,0.1-1.9v-6.2c0-0.9,0-1.4-0.1-1.8H202.5z M206.1,291    c-0.1,0.6-0.1,1.2-0.1,2v10.5c0,0.7-0.1,1.1-0.5,1.3c-0.3,0.1-0.6,0.2-1.3,0.2c-0.5,0-0.9,0-1.7-0.1c-0.1-0.4-0.2-0.7-0.3-1.1    c0.7,0.1,1.6,0.2,2.1,0.2c0.6,0,0.8-0.1,0.8-0.5v-10.5c0-0.9,0-1.4-0.1-2H206.1z" />
<path class="st3" d="M210.1,304.1c-1,0-1.2,0-1.8,0.1c0.2-1.3,0.2-1.5,0.5-2.1c0.4-1,1.1-1.9,2.1-2.8c0.6-0.5,0.6-0.5,2.4-1.8    c1.6-1.1,2.1-1.8,2.1-2.8c0-1.2-1-2-2.7-2c-1.1,0-1.8,0.4-2.3,1c-0.3,0.4-0.4,0.8-0.6,1.6l-1.3-0.2c0.2-1.2,0.5-1.7,1-2.3    c0.7-0.8,1.8-1.2,3.2-1.2c2.4,0,4,1.2,4,3.1c0,0.8-0.3,1.6-0.9,2.3c-0.5,0.5-0.9,0.8-2.7,2.1c-1.3,0.8-1.8,1.3-2.3,2    c-0.5,0.7-0.7,1.1-0.9,1.9h5.1c0.8,0,1.3,0,2-0.1v1.3c-0.6-0.1-1.2-0.1-2-0.1H210.1z" />
</g>
<rect class="st1" height="17" width="17" x="136.3" y="289.9" />
<g>
<path class="st3" d="M287.4,297.3c0.9,0,1.4,0,1.9-0.1v1.2c-0.6-0.1-1.1-0.1-1.9-0.1h-4.5v5.3c0,1.1-0.4,1.3-1.9,1.3    c-0.5,0-1,0-2-0.1c-0.1-0.5-0.1-0.7-0.3-1.1c1,0.1,1.6,0.2,2.3,0.2c0.6,0,0.8-0.1,0.8-0.5v-5.2h-4.8c-0.8,0-1.4,0-2,0.1v-1.2    c0.6,0.1,1.1,0.1,2,0.1h4.7v-1.1c0-0.4,0-0.7,0-1.1h0.7c1.5-0.8,2.4-1.4,3.6-2.6h-7.7c-0.6,0-1.2,0-1.6,0.1v-1.2    c0.5,0.1,1,0.1,1.6,0.1h7.6c0.7,0,1,0,1.2-0.1l0.7,0.7c-0.4,0.3-0.4,0.4-0.6,0.5c-1.8,1.6-2.4,2-4.5,3.2v1.3H287.4z" />
<path class="st3" d="M296.1,303.4c-1.1,0.9-2.2,1.4-4.3,2c-0.2-0.4-0.4-0.6-0.7-0.9c2.2-0.6,3.2-1,4.3-1.8c0.7-0.5,1.3-1.2,1.6-2    h-4.1c-0.8,0-1.3,0-1.7,0.1v-1.1c0.5,0.1,1,0.1,1.7,0.1h4.4c0.1-0.5,0.2-0.9,0.2-1.4c0-0.2,0-0.3,0-0.5l1.1,0c0,0.2,0,0.2,0,0.4    c-0.1,0.6-0.1,0.9-0.2,1.4h5.2c0.7,0,1.2,0,1.7-0.1v1.1c-0.5-0.1-1.1-0.1-1.7-0.1h-4.6c1.2,1.8,3.1,2.9,6.3,3.6    c-0.3,0.4-0.4,0.6-0.7,1c-3.4-1-5.4-2.4-6.6-4.7C297.7,301.8,297.1,302.7,296.1,303.4z M298.7,296.1c0,0.8,0,1,0.1,1.5h-1.2    c0.1-0.4,0.1-0.8,0.1-1.5v-1.3c-0.4,0.5-1.1,1.1-2,1.7c-1,0.7-2.1,1.3-3.8,2c-0.2-0.4-0.4-0.6-0.7-0.9c2.5-0.8,3.7-1.4,5.4-2.9    h-3.5c-0.6,0-1.2,0-1.6,0.1v-1.1c0.5,0.1,1,0.1,1.6,0.1h4.6v-1.9c0-0.4,0-0.7-0.1-1.1h1.2c-0.1,0.4-0.1,0.6-0.1,1.1v1.9h5    c0.7,0,1.2,0,1.6-0.1v1.1c-0.5-0.1-1-0.1-1.6-0.1h-5v0.2c2.3,0.8,4.3,1.8,6,2.8l-0.6,0.9c-1.1-0.8-2-1.2-4-2.2    c-0.5-0.3-1.1-0.5-1.4-0.7V296.1z M294.5,291.2c0.6,0.7,0.9,1,1.4,1.9l-0.8,0.4c-0.5-0.8-0.8-1.3-1.4-1.9L294.5,291.2z     M302.8,291.6c-0.8,1-1.2,1.5-1.8,2l-0.8-0.4c0.7-0.7,1.3-1.4,1.6-2L302.8,291.6z" />
<path class="st3" d="M309.4,296.3c-0.8,0-1.3,0-1.8,0.1c0-0.5,0.1-0.8,0.1-1.5V293c0-0.7,0-1-0.1-1.5c0.5,0.1,0.9,0.1,1.8,0.1h3.1    c1,0,1.4,0,1.8-0.1c0,0.5-0.1,0.8-0.1,1.5v1.9c0,0.7,0,1,0.1,1.5c-0.5,0-1-0.1-1.8-0.1h-1.3c0,1.4,0,1.4-0.1,1.9    c0,0.1,0,0.1,0,0.2h1.7c0.7,0,1.1,0,1.5-0.1c0,0.3,0,0.4-0.1,1.6c-0.1,2.6-0.2,4.1-0.6,4.6c-0.2,0.4-0.6,0.5-1.4,0.5    c-0.4,0-0.9,0-1.6-0.1c0-0.4,0-0.6-0.2-1.1c0.8,0.2,1.3,0.2,1.8,0.2c0.5,0,0.6-0.1,0.7-0.6c0.2-1,0.3-2.3,0.3-4.2h-2.3    c-0.4,2.5-1.2,4.3-3.1,6c-0.2-0.4-0.4-0.6-0.8-0.8c1.1-0.9,1.6-1.6,2.2-2.7c0.3-0.7,0.6-1.6,0.7-2.4h-0.7c-0.5,0-1.3,0-1.9,0.1    v-1.1c0.6,0.1,1.2,0.1,1.9,0.1h0.8c0-0.5,0-0.5,0.1-2.1H309.4z M308.7,295.4h4.6v-2.9h-4.6V295.4z M317.3,291.7    c-0.1,0.4-0.1,0.9-0.1,1.8v6.2c0,1.1,0,1.4,0.1,1.9h-1.2c0.1-0.4,0.1-0.8,0.1-1.9v-6.2c0-0.9,0-1.4-0.1-1.8H317.3z M320.9,291    c-0.1,0.6-0.1,1.2-0.1,2v10.5c0,0.7-0.1,1.1-0.5,1.3c-0.3,0.1-0.6,0.2-1.3,0.2c-0.5,0-0.9,0-1.7-0.1c-0.1-0.4-0.2-0.7-0.3-1.1    c0.7,0.1,1.6,0.2,2.1,0.2c0.6,0,0.8-0.1,0.8-0.5v-10.5c0-0.9,0-1.4-0.1-2H320.9z" />
<path class="st3" d="M324.3,301.1c0.3,0.8,0.5,1.2,1,1.5c0.5,0.4,1.2,0.6,2.1,0.6c1.9,0,3-1,3-2.5c0-1.6-1.1-2.4-3.3-2.4    c-0.4,0-0.8,0-1.3,0.1v-1.3c0.4,0.1,0.8,0.1,1.2,0.1c1.1,0,1.8-0.2,2.3-0.7c0.4-0.4,0.6-1,0.6-1.6c0-1.4-1-2.2-2.6-2.2    c-1,0-1.7,0.3-2.1,0.8c-0.2,0.3-0.3,0.5-0.5,1.1l-1.3-0.3c0.3-0.8,0.5-1.2,0.9-1.6c0.7-0.8,1.8-1.2,3.2-1.2c2.3,0,3.8,1.2,3.8,3.1    c0,1-0.4,1.8-1.1,2.3c-0.4,0.3-0.8,0.4-1.5,0.6c0.9,0.1,1.4,0.3,2,0.7c0.7,0.5,1.1,1.4,1.1,2.4c0,2.2-1.7,3.5-4.3,3.5    c-1.6,0-2.8-0.4-3.6-1.3c-0.3-0.4-0.5-0.7-0.8-1.6L324.3,301.1z" />
</g>
<rect class="st2" height="17" width="17" x="251" y="289.9" />
<g>
</g>
<g>
</g>
<g>
</g>
<g>
</g>
<g>
</g>
<g>
</g>
<g>
</g>
<g>
</g>
<g>
</g>
<g>
</g>
</g>
</g></svg>