<?xml version='1.0' encoding='utf-8'?>
<svg height="340" id="svg" style="max-width: 100%; height: auto; font: 10px sans-serif;" viewBox="0,20,1100,300" width="900" xmlns="http://www.w3.org/2000/svg">
<style>.st0 {
    max-width: 100%;
    height: auto;
    font: 10px sans-serif;
}

.st1 {
    fill: hsl(114, 47%, 79%);
}

.st2 {
    fill: hsl(27, 97%, 77%);
}

.st3 {
    fill: hsl(11, 89%, 70%);
}

.st4 {
    fill: red;
}

.st5 {
    stroke: hsl(0, 100%, 22%);
    stroke-width: 2;
}</style>
<rect class="st1" height="40" width="800" x="150" y="40" />
<rect class="st2" height="40" width="600" x="150" y="40" />
<rect class="st3" height="40" width="400" x="150" y="40" />
<rect class="st1" height="40" width="800" x="150" y="140" />
<rect class="st2" height="40" width="600" x="150" y="140" />
<rect class="st3" height="40" width="400" x="150" y="140" />
<rect class="st1" height="40" width="800" x="150" y="240" />
<rect class="st2" height="40" width="600" x="150" y="240" />
<rect class="st3" height="40" width="400" x="150" y="240" />
<rect class="st4" height="20" width="400" x="150" y="50" />
<rect class="st4" height="20" width="600" x="150" y="150" />
<rect class="st4" height="20" width="500" x="150" y="250" />
<line class="st5" x1="500" x2="500" y1="30" y2="90" />
<line class="st5" x1="800" x2="800" y1="130" y2="190" />
<line class="st5" x1="700" x2="700" y1="230" y2="290" />
<text font-size="16" text-anchor="end" x="120" y="70">工人</text>
<text font-size="16" text-anchor="end" x="120" y="170">经理</text>
<text font-size="16" text-anchor="end" x="120" y="270">工程师</text>
<text font-size="12" x="150" y="350">0</text>
<text font-size="12" x="350" y="350">2000</text>
<text font-size="12" x="550" y="350">4000</text>
<text font-size="12" x="750" y="350">6000</text>
<text font-size="12" x="950" y="350">8000</text>
<text font-size="12" x="1150" y="350">10000</text>
</svg>