<?xml version='1.0' encoding='utf-8'?>
<svg height="340" style="max-width: 100%; height: auto; font: 10px sans-serif;" viewBox="-70,-30,880,340" width="900" xmlns="http://www.w3.org/2000/svg">
<g transform="rotate(-90 450.0 170.0)"><style type="text/css">.st0 {
    fill: hsl(0, 0%, 50%);
}

.st1 {
    fill: none;
    stroke: hsl(0, 0%, 56%);
    stroke-width: 0.5;
}

.st2 {
    fill: none;
    stroke: hsl(0, 0%, 42%);
}

.st3 {
    fill: hsl(0, 95%, 80%);
    stroke: hsl(0, 100%, 52%);
    stroke-width: 0.5;
    stroke-miterlimit: 10;
}

.st4 {
    fill: none;
    stroke: hsl(0, 0%, 0%);
    stroke-width: 0.5;
    stroke-miterlimit: 10;
}

.st5 {
    fill: hsl(0, 0%, 13%);
}

.st6 {
    fill: hsl(0, 0%, 98%);
}</style>
<g id="Layer_1">
<g>
<g>
<line class="st1" x1="43.5" x2="706" y1="219" y2="219" />
<line class="st1" x1="43.5" x2="706" y1="155" y2="155" />
<line class="st1" x1="43.5" x2="706" y1="91" y2="91" />
<line class="st1" x1="43.5" x2="706" y1="27" y2="27" />
</g>
</g>
<g>
<line class="st2" x1="47.7" x2="706.5" y1="283" y2="283" />
</g>
<line class="st2" x1="119.8" x2="119.8" y1="283" y2="290.5" />
<line class="st2" x1="223.1" x2="223.1" y1="283" y2="290.5" />
<line class="st2" x1="326.3" x2="326.3" y1="283" y2="290.5" />
<line class="st2" x1="429.5" x2="429.5" y1="283" y2="290.5" />
<line class="st2" x1="532.8" x2="532.8" y1="283" y2="290.5" />
<line class="st2" x1="636" x2="636" y1="283" y2="290.5" />
<g id="Layer_2">
<path class="st3" d="M222.6,243.6c0,0-0.2-0.4-0.5-0.7c-0.3-0.3-0.8-0.8-1.4-1.3c-0.3-0.3-0.6-0.6-1-0.9c-0.3-0.3-0.7-0.7-1.1-1.1   c-0.8-0.8-1.6-1.7-2.5-2.6c-1.7-2-3.8-4.4-5.6-7.1c-0.9-1.4-1.9-2.8-2.7-4.4c-0.9-1.5-1.2-3.2-1.3-4.8c-0.1-1.7,0-3.4-0.6-5.3   c-0.2-0.5-0.3-0.9-0.5-1.4c-0.3-0.5-0.8-0.9-1.4-1.4c-0.6-0.5-1.2-0.9-1.7-1.4c-0.5-0.5-0.7-1-0.7-1.4c0.2-1.9,1.8-3.9,3.8-5.9   c1-1,2-2,2.6-3.1c0.7-1,1-2.1,1.1-3.1c0.3-2.1,0.1-4.3-1.2-6.4c-0.3-0.5-0.7-1.1-1.1-1.6c-0.4-0.5-0.8-1.1-1.3-1.6   c-0.9-1.1-1.8-2.2-3.1-3.3c-4.6-4.4-13.1-8.9-18.7-13.4c-2.8-2.2-4.6-4.5-5.3-6.7c-0.8-2.2-0.2-4.5,0.5-6.7   c0.8-2.2,2.1-4.4,3.9-6.6c1.8-2.2,4.1-4.3,6.7-6.4c1.2-1.1,2.7-2.1,4-3.1c1.4-1,2.8-2.1,4.2-3.1c1.4-1,2.7-2,4-3   c1.3-1,2.6-2,3.8-2.9c1.1-1,2.4-1.9,3.4-2.9c1-0.9,2.1-1.9,2.9-2.8c0.4-0.5,0.9-0.9,1.3-1.4c0.4-0.4,0.8-0.9,1.2-1.3   c0.7-0.9,1.5-1.7,2-2.6c1-1.7,1-3.3,0.6-4.8c-0.4-1.5-0.7-3-0.4-4.4c0.7-2.7,1.7-5.1,2.6-7.1c0.9-2,1.8-3.5,2.5-4.6   c0.3-0.5,0.6-0.7,0.8-1c0.2-0.3,0.3-0.2,0.3-0.2h1c0,0,0.1-0.1,0.3,0.2c0.2,0.3,0.5,0.6,0.8,1.1c0.7,1.1,1.6,2.5,2.5,4.5   c0.9,2,1.9,4.3,2.6,7.1c0.3,1.4-0.1,2.8-0.4,4.4c-0.4,1.5-0.5,3.1,0.6,4.8c0.5,0.8,1.3,1.7,2,2.6c0.4,0.4,0.8,0.9,1.2,1.3   c0.4,0.4,0.9,0.9,1.3,1.4c0.9,0.9,1.9,1.8,2.9,2.8c1,0.9,2.2,1.9,3.4,2.9c1.2,1,2.5,1.9,3.8,2.9c1.3,1,2.6,2,4,3   c1.4,1,2.8,2,4.2,3.1c1.3,1,2.7,2.1,4,3.1c2.6,2.1,4.9,4.3,6.7,6.4c1.8,2.2,3.1,4.4,3.9,6.6c0.8,2.2,1.3,4.4,0.5,6.7   c-0.7,2.2-2.5,4.5-5.3,6.7c-5.6,4.5-14.1,9-18.7,13.4c-1.3,1.1-2.2,2.2-3.1,3.3c-0.4,0.5-0.9,1.1-1.3,1.6c-0.4,0.5-0.8,1.1-1.1,1.6   c-1.3,2.2-1.6,4.3-1.2,6.4c0.1,1.1,0.5,2.1,1.1,3.1c0.6,1,1.6,2.1,2.6,3.1c2,2,3.6,4,3.8,5.9c0,0.5-0.2,1-0.7,1.4   c-0.5,0.5-1.2,0.9-1.7,1.4c-0.6,0.5-1.1,0.9-1.4,1.4c-0.3,0.5-0.4,0.9-0.5,1.4c-0.6,1.8-0.5,3.6-0.6,5.3c-0.1,1.7-0.4,3.3-1.3,4.8   c-0.9,1.5-1.8,3-2.7,4.4c-1.9,2.7-3.9,5.1-5.6,7.1c-0.9,1-1.7,1.9-2.5,2.6c-0.4,0.4-0.7,0.7-1.1,1.1c-0.4,0.3-0.7,0.6-1,0.9   c-0.6,0.5-1.1,1.2-1.4,1.5c-0.3,0.3-0.5,0.7-0.5,0.7H222.6z" />
<path class="st3" d="M119.3,171.3c0,0-0.3-2-1.4-5.5c-1.1-3.5-3-8.4-6-14.4c-0.8-1.5-1.6-3-2.5-4.6c-0.4-0.8-0.9-1.6-1.4-2.4   c-0.3-0.4-0.5-0.8-0.9-1.3c-0.3-0.4-0.6-0.8-1-1.3c-0.4-0.4-0.7-0.9-1.1-1.3c-0.4-0.4-0.8-0.9-1.2-1.3c-0.9-0.9-1.8-1.8-2.7-2.7   c-1.9-1.8-3.9-3.6-5.5-5.5c-1.6-1.9-2.8-3.8-3.4-5.7c-0.7-1.9-0.5-3.9-0.5-5.8c0.1-3.9,0.5-7.9,1.3-11.8c0.8-4,2-7.9,3.5-11.8   c1.5-3.9,3.1-7.8,4.7-11.5c0.8-1.9,1.5-3.7,2.3-5.5c0.8-1.8,1.5-3.5,2.1-5.2c0.7-1.7,1.3-3.4,1.8-5c0.5-1.6,1.3-3.2,2.3-4.6   c1-1.5,2-2.9,3-4.3c0.9-1.4,1.6-2.6,2.2-3.9c1.2-2.4,2-4.5,2.7-6.3c0.7-1.7,1.1-3.1,1.3-4c0.3-0.9,0.3-1.4,0.3-1.4   c0-0.3,0.3-0.5,0.6-0.4c0.2,0,0.4,0.2,0.4,0.4c0,0,0.1,0.5,0.3,1.4c0.3,0.9,0.7,2.3,1.3,4c0.6,1.7,1.5,3.8,2.7,6.3   c0.5,1.2,1.3,2.5,2.2,3.9c1,1.4,2,2.8,3,4.3c1,1.5,1.7,3,2.3,4.6c0.6,1.6,1.2,3.3,1.8,5c0.6,1.7,1.4,3.5,2.1,5.2   c0.7,1.8,1.5,3.6,2.3,5.5c1.6,3.7,3.3,7.6,4.7,11.5c1.5,3.9,2.7,7.9,3.5,11.8c0.8,4,1.2,7.9,1.3,11.8c0,2,0.2,3.9-0.5,5.8   c-0.6,1.9-1.8,3.8-3.4,5.7c-1.6,1.9-3.7,3.7-5.5,5.5c-0.9,0.9-1.8,1.8-2.7,2.7c-0.4,0.4-0.8,0.9-1.2,1.3c-0.4,0.4-0.7,0.9-1.1,1.3   c-0.4,0.4-0.6,0.8-1,1.3c-0.3,0.4-0.6,0.8-0.9,1.3c-0.5,0.8-1,1.6-1.4,2.4c-0.9,1.6-1.7,3.2-2.5,4.6c-3,6-5,10.9-6,14.4   c-1.1,3.5-1.4,5.5-1.4,5.5c0,0.3-0.3,0.5-0.6,0.4C119.5,171.7,119.4,171.6,119.3,171.3z" />
<path class="st3" d="M326.8,58c0,0,0,0.5,0.1,1.4c0.1,0.9,0.4,2.3,1,4c0.6,1.7,1.5,3.8,2.8,6.2c0.7,1.2,1.4,2.5,2.4,3.8   c0.5,0.7,1,1.4,1.6,2.1c0.3,0.4,0.6,0.7,0.9,1.1c0.3,0.4,0.7,0.7,1,1.1c2.8,2.9,7,6.1,10.8,9.5c2,1.7,3.7,3.4,5.1,5.2   c1.4,1.8,2.3,3.6,2.8,5.4c0.2,0.9,0.5,1.8,0.2,2.8c-0.3,0.9-1.1,1.9-2.4,2.8c-0.6,0.5-1.3,0.9-2.1,1.4c-0.8,0.5-1.7,1-2.5,1.4   c-1.7,1-3.5,1.9-4.9,2.9c-1.4,1-2.4,1.9-3,2.9c-0.6,1-0.5,1.9-0.4,2.9c0.3,2,1.3,3.9,3.1,5.9c1.6,2,4,3.9,6.1,5.9   c2.2,2,4.2,3.9,5.3,5.8c1.2,1.9,1.6,3.8,1.3,5.7c-0.3,1.9-1,3.8-2.1,5.6c-2.2,3.7-6.2,7.2-10.1,10.6c-1,0.8-1.9,1.7-2.8,2.5   c-0.9,0.8-1.8,1.6-2.6,2.4c-0.4,0.4-0.8,0.8-1.1,1.2c-0.3,0.4-0.7,0.8-1,1.2c-0.7,0.8-1.3,1.5-1.8,2.3c-1.1,1.5-1.9,2.9-2.6,4.2   c-0.4,0.7-0.7,1.3-1,2c-0.3,0.6-0.6,1.3-0.9,1.8c-1.1,2.4-1.8,4.5-2.3,6.2c-1,3.4-0.8,5.4-0.8,5.4c0,0.3-0.2,0.5-0.5,0.5   c-0.3,0-0.5-0.2-0.5-0.5c0,0,0,0,0-0.1c0,0,0.1-2-0.8-5.4c-0.5-1.7-1.2-3.8-2.3-6.2c-0.3-0.6-0.6-1.2-0.9-1.8c-0.3-0.6-0.7-1.3-1-2   c-0.8-1.3-1.5-2.8-2.6-4.2c-0.6-0.7-1.1-1.5-1.8-2.3c-0.3-0.4-0.7-0.8-1-1.2c-0.4-0.4-0.8-0.8-1.1-1.2c-0.7-0.8-1.7-1.6-2.6-2.4   c-0.9-0.8-1.8-1.6-2.8-2.5c-3.9-3.4-7.9-6.9-10.1-10.6c-1.1-1.8-1.8-3.7-2.1-5.6c-0.3-1.9,0.1-3.8,1.3-5.7c1.1-1.9,3.1-3.9,5.3-5.8   c2.1-2,4.5-3.9,6.1-5.9c1.7-2,2.8-3.9,3.1-5.9c0.2-1,0.2-2-0.4-2.9c-0.6-1-1.6-1.9-3-2.9c-1.4-1-3.2-1.9-4.9-2.9   c-0.8-0.5-1.7-1-2.5-1.4c-0.8-0.5-1.5-1-2.1-1.4c-1.3-0.9-2-1.9-2.4-2.8c-0.4-0.9-0.1-1.9,0.2-2.8c0.5-1.8,1.5-3.6,2.8-5.4   c1.4-1.8,3.1-3.5,5.1-5.2c3.8-3.4,8-6.6,10.8-9.5c0.3-0.4,0.7-0.7,1-1.1c0.3-0.4,0.6-0.7,0.9-1.1c0.6-0.7,1.1-1.4,1.6-2.1   c0.9-1.3,1.7-2.6,2.4-3.8c1.4-2.4,2.2-4.5,2.8-6.2c0.6-1.7,0.9-3.1,1-4c0.1-0.9,0.1-1.4,0.1-1.4c0-0.3,0.2-0.5,0.5-0.5   C326.5,57.4,326.8,57.6,326.8,58C326.8,57.9,326.8,58,326.8,58z" />
<path class="st3" d="M429,272.4c0,0-0.3-0.2-0.9-0.5c-0.6-0.4-1.5-0.9-2.6-1.6c-0.5-0.3-1.1-0.7-1.8-1.2c-0.6-0.4-1.3-0.9-2-1.4   c-1.5-1-3-2.2-4.7-3.5c-3.4-2.6-7.3-5.7-11.1-9.4c-0.9-0.9-1.9-1.8-2.9-2.8c-0.9-1-1.9-1.9-2.9-3c-0.9-1-2-2.1-2.9-3.1   c-0.5-0.5-1-1.1-1.5-1.6c-0.5-0.5-0.9-1.1-1.4-1.7c-1.9-2.2-3.3-4.5-4.2-6.9c-0.4-1.2-0.7-2.4-0.9-3.7c-0.2-1.2-0.3-2.5-0.1-3.8   c0.2-1.3,0.8-2.6,1.6-3.9c0.4-0.7,0.9-1.3,1.4-2c0.5-0.7,1.1-1.3,1.6-2c1.1-1.3,2.1-2.7,2.9-4.1c0.7-1.4,1.2-2.7,1.2-4.1   c0-1.4-0.2-2.8-1.4-4.2c-1.2-1.4-3.2-2.8-5.6-4.3c-2.4-1.4-5-2.9-6.9-4.3c-1.9-1.4-3-2.9-3.1-4.4c0-0.4,0-0.7,0.1-1.1   c0.1-0.4,0.2-0.7,0.7-1.1c0.9-0.7,2.9-1.5,5.9-2.2l1-0.3l1.2-0.3l2.5-0.6l5.1-1.1l2.3-0.6l1.2-0.3l0.6-0.1l0.5-0.1   c0.7-0.2,1.4-0.4,1.9-0.6c0.6-0.2,1.2-0.4,1.6-0.6c2-0.7,2.9-1.5,3.1-2.2c0.2-0.7-0.6-1.5-1.7-2.2c-0.5-0.4-1.1-0.7-1.7-1.1   c-0.3-0.2-0.5-0.4-0.7-0.6c-0.2-0.2-0.4-0.4-0.5-0.6c-0.2-0.4-0.3-0.7-0.2-1.1c0.1-0.4,0.5-0.7,0.8-1.1c0.6-0.7,1.4-1.5,2.3-2.2   c0.9-0.7,1.9-1.5,3.1-2.2l1.7-1.1l1.9-1.1l3.7-2.2c2.5-1.5,4.5-3,6-4.4c0.8-0.7,1.4-1.5,1.9-2.2c0.5-0.7,0.4-1.5-0.3-2.2   c-0.6-0.7-1.7-1.5-2.6-2.2c-0.9-0.7-1.6-1.5-1.8-2.2c-0.2-0.7-0.2-1.4-0.1-2.2c0.2-0.7,0.5-1.4,0.6-2.2c0.3-1.4,0.1-2.9-1.5-4.3   c-0.7-0.7-1.6-1.4-2.2-2.1c-0.6-0.7-0.9-1.4-0.9-2.1c-0.1-1.4,0.3-2.8,0.9-4.1c0.6-1.4,1.5-2.7,2.1-4.1c0.6-1.3,0.8-2.7,0.7-4   c-0.1-0.7-0.2-1.3-0.6-2c-0.2-0.3-0.5-0.6-0.8-1c-0.3-0.3-0.7-0.6-1.1-1c-0.8-0.6-1.9-1.3-2.9-1.9c-0.5-0.3-1-0.6-1.5-0.9l-0.7-0.5   l-0.6-0.5c-1.7-1.2-2.2-2.5-1.9-3.7c0.3-1.2,1.3-2.4,2.9-3.5c0.4-0.3,0.8-0.6,1.3-0.9c0.5-0.3,0.9-0.6,1.4-0.9   c0.9-0.6,1.9-1.1,2.9-1.7c0.8-0.6,1.8-1.1,2.5-1.7c0.4-0.3,0.7-0.5,1-0.8c0.3-0.3,0.6-0.5,0.9-0.8c0.5-0.5,0.9-1.1,1.1-1.6   c0.2-0.5,0.3-1,0.1-1.5c-0.3-1-1.5-2-2.3-3c-0.8-1-1.2-1.9-0.9-2.8c0.2-0.9,0.8-1.8,1.6-2.6c0.8-0.8,1.7-1.7,2.6-2.4   c0.8-0.8,1.5-1.5,1.9-2.2c0.2-0.4,0.4-0.7,0.5-1.1c0-0.3-0.1-0.7-0.4-1c-0.3-0.3-0.6-0.6-0.8-0.9c-0.2-0.3-0.3-0.6-0.3-0.9   c0.1-0.6,0.2-1.1,0.4-1.6c0.3-1,0.7-1.9,1.1-2.6c0.4-0.7,0.8-1.2,1.1-1.6c0.3-0.4,0.5-0.5,0.5-0.5c0.3-0.3,0.7-0.3,1,0   c0,0,0.2,0.2,0.5,0.5c0.3,0.4,0.7,0.9,1.1,1.6c0.4,0.7,0.8,1.6,1.1,2.6c0.1,0.5,0.3,1,0.4,1.6c0,0.3-0.1,0.6-0.3,0.9   c-0.2,0.3-0.6,0.6-0.8,0.9c-0.3,0.3-0.4,0.7-0.4,1c0,0.3,0.3,0.7,0.5,1.1c0.4,0.7,1.1,1.5,1.9,2.2c0.8,0.8,1.8,1.6,2.6,2.4   c0.8,0.8,1.3,1.7,1.6,2.6c0.3,0.9-0.1,1.8-0.9,2.8c-0.8,1-1.9,1.9-2.3,3c-0.2,0.5-0.1,1,0.1,1.5c0.3,0.5,0.6,1,1.1,1.6   c0.2,0.3,0.5,0.5,0.9,0.8c0.3,0.3,0.7,0.5,1,0.8c0.7,0.5,1.7,1.1,2.5,1.7c0.9,0.6,1.9,1.1,2.9,1.7c0.5,0.3,0.9,0.6,1.4,0.9   c0.5,0.3,0.9,0.6,1.3,0.9c1.6,1.2,2.6,2.3,2.9,3.5c0.4,1.2-0.2,2.4-1.9,3.7l-0.6,0.5l-0.7,0.5c-0.5,0.3-1,0.6-1.5,0.9   c-1,0.6-2.1,1.3-2.9,1.9c-0.4,0.3-0.8,0.6-1.1,1c-0.3,0.3-0.6,0.6-0.8,1c-0.4,0.6-0.5,1.3-0.6,2c-0.2,1.3,0.1,2.6,0.7,4   c0.6,1.3,1.4,2.7,2.1,4.1c0.6,1.4,1,2.7,0.9,4.1c0,0.7-0.3,1.4-0.9,2.1c-0.6,0.7-1.5,1.4-2.2,2.1c-1.5,1.4-1.8,2.8-1.5,4.3   c0.2,0.7,0.5,1.4,0.6,2.2c0.2,0.7,0.1,1.4-0.1,2.2c-0.2,0.7-0.9,1.4-1.8,2.2c-0.8,0.7-2,1.5-2.6,2.2c-0.6,0.7-0.7,1.5-0.3,2.2   c0.5,0.7,1.1,1.5,1.9,2.2c1.5,1.5,3.6,2.9,6,4.4l3.7,2.2l1.9,1.1l1.7,1.1c1.2,0.7,2.2,1.5,3.1,2.2c0.9,0.7,1.7,1.5,2.3,2.2   c0.3,0.4,0.7,0.7,0.8,1.1c0.1,0.4,0.1,0.7-0.2,1.1c-0.1,0.2-0.3,0.4-0.5,0.6c-0.2,0.2-0.4,0.4-0.7,0.6c-0.5,0.4-1.1,0.7-1.7,1.1   c-1.1,0.7-1.9,1.5-1.7,2.2c0.2,0.7,1.2,1.5,3.1,2.2c0.4,0.2,1,0.4,1.6,0.6c0.5,0.2,1.3,0.4,1.9,0.6l0.5,0.1l0.6,0.1l1.2,0.3   l2.3,0.6l5.1,1.1l2.5,0.6l1.2,0.3l1,0.3c3,0.7,5,1.5,5.9,2.2c0.5,0.4,0.6,0.7,0.7,1.1c0.1,0.4,0.2,0.7,0.1,1.1   c-0.1,1.5-1.1,2.9-3.1,4.4c-1.9,1.4-4.5,2.9-6.9,4.3c-2.4,1.4-4.4,2.9-5.6,4.3c-1.2,1.4-1.4,2.8-1.4,4.2c0,1.4,0.4,2.8,1.2,4.1   c0.8,1.4,1.8,2.7,2.9,4.1c0.5,0.7,1.1,1.3,1.6,2c0.5,0.7,1,1.3,1.4,2c0.8,1.3,1.3,2.6,1.6,3.9c0.2,1.3,0.1,2.5-0.1,3.8   c-0.2,1.2-0.5,2.5-0.9,3.7c-0.9,2.4-2.3,4.7-4.2,6.9c-0.5,0.6-0.9,1.1-1.4,1.7c-0.5,0.5-1,1.1-1.5,1.6c-1,1.1-2,2.1-2.9,3.1   c-1,1-2,2-2.9,3c-1,1-2,1.9-2.9,2.8c-3.8,3.6-7.7,6.8-11.1,9.4c-1.7,1.3-3.2,2.5-4.7,3.5c-0.7,0.5-1.4,1-2,1.4   c-0.7,0.4-1.3,0.8-1.8,1.2c-1,0.7-2,1.2-2.6,1.6c-0.6,0.4-0.9,0.5-0.9,0.5C429.7,272.6,429.3,272.6,429,272.4z" />
<path class="st3" d="M533.3,50.3c0,0,0,0.3,0,1c0.1,0.6,0.2,1.6,0.6,2.8c0.4,1.2,1,2.6,1.9,4.3c0.2,0.4,0.5,0.8,0.7,1.3   c0.2,0.4,0.6,0.9,1,1.4c0.9,0.9,2.4,1.9,4.5,2.9c0.9,0.5,2.1,1,3.2,1.6c1.1,0.5,2.3,1.1,3.4,1.6c2.2,1.1,3.9,2.2,4.8,3.4   c0.5,0.6,0.6,1.2,0.9,1.8c0.2,0.6,0.4,1.2,0.6,1.8c0.4,1.2,0.8,2.5,1.1,3.8c0.6,2.6,1,5.2,0.9,7.9c0,2.7-0.4,5.4-1,8.1   c-0.6,2.7-1.4,5.5-2.1,8.1c-0.7,2.7-1.6,5.3-2.8,7.9c-1.2,2.6-2.7,5-4.3,7.4c-1.6,2.3-3.2,4.6-4.7,6.6c-1.4,2-2.7,3.9-3.7,5.6   c-1,1.7-1.9,3.1-2.6,4.3c-0.7,1.2-1.3,2.1-1.7,2.8c-0.4,0.6-0.6,1-0.6,1c-0.2,0.3-0.5,0.4-0.8,0.2c-0.1,0-0.1-0.1-0.2-0.2   c0,0-0.2-0.3-0.6-1c-0.4-0.6-1-1.6-1.7-2.8c-0.7-1.2-1.6-2.6-2.6-4.3c-1-1.7-2.3-3.5-3.7-5.6c-1.5-2-3-4.3-4.7-6.6   c-1.6-2.3-3.1-4.8-4.3-7.4c-1.2-2.6-2.1-5.2-2.8-7.9c-0.8-2.7-1.5-5.4-2.1-8.1c-0.6-2.7-1-5.5-1-8.1c0-2.7,0.3-5.3,0.9-7.9   c0.3-1.3,0.7-2.5,1.1-3.8c0.2-0.6,0.4-1.2,0.6-1.8c0.2-0.6,0.4-1.2,0.9-1.8c0.9-1.2,2.7-2.3,4.8-3.4c1.2-0.6,2.3-1.1,3.4-1.6   c1.1-0.5,2.3-1.1,3.2-1.6c2.1-1,3.5-2,4.5-2.9c0.5-0.5,0.8-0.9,1-1.4c0.3-0.4,0.5-0.9,0.7-1.3c0.9-1.7,1.5-3.1,1.9-4.3   c0.4-1.2,0.5-2.1,0.6-2.8c0-0.6,0-1,0-1c0-0.3,0.2-0.5,0.4-0.6c0.3,0,0.5,0.2,0.6,0.4C533.3,50.2,533.3,50.3,533.3,50.3z" />
<path class="st3" d="M635.5,231c0,0-1-0.6-2.5-1.7c-1.6-1.1-3.6-2.7-5.7-4.8c-2.1-2.1-4.3-4.6-6.3-7.5c-2-2.9-3.7-6.2-5-9.7   c-1.3-3.6-1.8-7.4-2.2-11.5c-0.2-2-0.4-4.1-0.7-6.3c-0.3-2.1-0.8-4.3-1.4-6.6c-0.6-2.2-1.3-4.5-2.1-6.8c-0.8-2.3-1.7-4.6-2.5-6.9   c-1.8-4.7-3.5-9.4-4.6-14.2c-0.3-1.2-0.5-2.4-0.8-3.6c-0.2-1.2-0.4-2.4-0.6-3.6c-0.4-2.4-0.9-4.7-1.4-7.1c-1-4.7-2.2-9.3-2-13.7   c0.1-4.5,1.3-8.8,3.3-12.8c1.9-4.1,4.3-7.9,7-11.5c2.7-3.6,5.7-6.8,8.7-9.7c3-2.9,6.1-5.4,8.8-7.5c2.8-2.1,5.2-3.7,7.1-4.8   c0.9-0.6,1.6-1,2.1-1.3c0.5-0.3,0.8-0.4,0.8-0.4c0.3-0.2,0.7-0.2,1,0c0,0,0.3,0.1,0.8,0.4c0.5,0.3,1.2,0.7,2.1,1.3   c1.8,1.1,4.3,2.7,7.1,4.8c2.7,2.1,5.8,4.6,8.8,7.5c3,2.9,6,6.2,8.7,9.7c2.7,3.6,5.1,7.4,7,11.5c1.9,4.1,3.2,8.4,3.3,12.8   c0.1,4.5-1,9.1-2,13.7c-0.5,2.3-1,4.7-1.4,7.1c-0.2,1.2-0.4,2.4-0.6,3.6c-0.2,1.2-0.5,2.4-0.8,3.6c-1.1,4.8-2.9,9.5-4.6,14.2   c-0.9,2.3-1.8,4.7-2.5,6.9c-0.8,2.3-1.5,4.6-2.1,6.8c-0.6,2.2-1.1,4.4-1.4,6.6c-0.3,2.1-0.5,4.2-0.7,6.3c-0.3,4.1-0.9,7.9-2.2,11.5   c-1.3,3.6-3,6.8-5,9.7c-2,2.9-4.2,5.4-6.3,7.5c-2.1,2.1-4.2,3.7-5.7,4.8c-1.5,1.1-2.5,1.7-2.5,1.7   C636.2,231.2,635.8,231.2,635.5,231z" />
</g>
<g id="Layer_3">
<line class="st4" x1="223.1" x2="223.1" y1="99.1" y2="239.2" />
<rect class="st5" height="50.2" width="8" x="219.1" y="147.2" />
<circle class="st6" cx="223.1" cy="171.6" r="2.6" />
<line class="st4" x1="326.3" x2="326.3" y1="66.5" y2="175" />
<rect class="st5" height="40.7" width="8" x="322.3" y="87.7" />
<circle class="st6" cx="326.3" cy="108" r="2.6" />
<line class="st4" x1="532.8" x2="532.8" y1="56.5" y2="137.9" />
<rect class="st5" height="30.9" width="8" x="528.8" y="78.9" />
<circle class="st6" cx="532.8" cy="94.3" r="2.6" />
<line class="st4" x1="636" x2="636" y1="78.9" y2="227.5" />
<rect class="st5" height="71.8" width="8" x="632" y="109.7" />
<circle class="st6" cx="636" cy="145.6" r="2.6" />
<line class="st4" x1="429.5" x2="429.5" y1="83.1" y2="272.4" />
<rect class="st5" height="71" width="8" x="425.5" y="183.5" />
<circle class="st6" cx="429.5" cy="219" r="2.6" />
<line class="st4" x1="119.8" x2="119.8" y1="48" y2="167" />
<rect class="st5" height="36.4" width="8" x="115.8" y="96.5" />
<circle class="st6" cx="119.8" cy="114" r="2.6" />
</g>
</g></g></svg>