<?xml version='1.0' encoding='utf-8'?>
<svg height="340" style="max-width: 100%; height: auto; font: 10px sans-serif;" viewBox="-420,-170,880,340" width="900" xmlns="http://www.w3.org/2000/svg">
<style>.st0 {
    max-width: 100%;
    height: auto;
    font: 10px sans-serif;
}

.st1 {
    stroke: hsl(0, 0%, 0%);
    stroke-width: 1.5;
}

.st2 {
    fill: hsl(203, 74%, 37%);
    stroke: hsl(0, 0%, 0%);
    stroke-width: 1.5;
    opacity: 0.7;
}

.st3 {
    stroke: hsl(0, 0%, 0%);
    stroke-width: 2;
}

.st4 {
    fill: hsl(208, 69%, 43%);
}

.st5 {
    fill: hsl(29, 100%, 47%);
    stroke: hsl(0, 0%, 0%);
    stroke-width: 1.5;
    opacity: 0.7;
}

.st6 {
    fill: hsl(28, 100%, 57%);
}

.st7 {
    fill: hsl(119, 54%, 37%);
    stroke: hsl(0, 0%, 0%);
    stroke-width: 1.5;
    opacity: 0.7;
}

.st8 {
    fill: hsl(122, 52%, 38%);
}

.st9 {
    fill: hsl(5, 70%, 45%);
    stroke: hsl(0, 0%, 0%);
    stroke-width: 1.5;
    opacity: 0.7;
}

.st10 {
    fill: hsl(7, 74%, 52%);
}

.st11 {
    fill: hsl(277, 40%, 56%);
    stroke: hsl(0, 0%, 0%);
    stroke-width: 1.5;
    opacity: 0.7;
}

.st12 {
    fill: hsl(270, 41%, 62%);
}

.st13 {
    fill: hsl(9, 29%, 38%);
    stroke: hsl(0, 0%, 0%);
    stroke-width: 1.5;
    opacity: 0.7;
}

.st14 {
    fill: hsl(10, 30%, 39%);
}

.st15 {
    fill: hsl(318, 66%, 66%);
    stroke: hsl(0, 0%, 0%);
    stroke-width: 1.5;
    opacity: 0.7;
}

.st16 {
    fill: hsl(331, 62%, 70%);
}

.st17 {
    fill: hsl(0, 0%, 54%);
    stroke: hsl(0, 0%, 0%);
    stroke-width: 1.5;
    opacity: 0.7;
}

.st18 {
    fill: hsl(0, 0%, 48%);
}

.st19 {
    fill: hsl(60, 71%, 40%);
    stroke: hsl(0, 0%, 0%);
    stroke-width: 1.5;
    opacity: 0.7;
}

.st20 {
    fill: hsl(59, 70%, 45%);
}

.st21 {
    fill: hsl(189, 75%, 43%);
    stroke: hsl(0, 0%, 0%);
    stroke-width: 1.5;
    opacity: 0.7;
}

.st22 {
    fill: hsl(182, 80%, 42%);
}

.st23 {
    fill: hsl(0, 0%, 0%);
}

.st24 {
    fill: hsl(202, 76%, 38%);
    opacity: 0.7;
}

.st25 {
    fill: hsl(29, 100%, 51%);
    opacity: 0.7;
}

.st26 {
    fill: hsl(124, 54%, 39%);
    opacity: 0.7;
}

.st27 {
    fill: hsl(11, 73%, 44%);
    opacity: 0.7;
}

.st28 {
    fill: hsl(279, 42%, 60%);
    opacity: 0.7;
}</style>
<line class="st1" x1="-380" x2="-380" y1="-40" y2="70" />
<rect class="st2" height="30" width="40" x="-400" y="10" />
<line class="st3" x1="-400" x2="-360" y1="20" y2="20" />
<line class="st1" x1="-400" x2="-360" y1="-40" y2="-40" />
<line class="st1" x1="-400" x2="-360" y1="70" y2="70" />
<circle class="st4" cx="-380" cy="80" r="3" />
<line class="st1" x1="-330" x2="-330" y1="-30" y2="80" />
<rect class="st5" height="50" width="40" x="-350" y="5" />
<line class="st3" x1="-350" x2="-310" y1="25" y2="25" />
<line class="st1" x1="-350" x2="-310" y1="-30" y2="-30" />
<line class="st1" x1="-350" x2="-310" y1="80" y2="80" />
<circle class="st6" cx="-330" cy="90" r="3" />
<line class="st1" x1="-260" x2="-260" y1="-50" y2="60" />
<rect class="st7" height="60" width="40" x="-280" y="-5" />
<line class="st3" x1="-280" x2="-240" y1="15" y2="15" />
<line class="st1" x1="-280" x2="-240" y1="-50" y2="-50" />
<line class="st1" x1="-280" x2="-240" y1="60" y2="60" />
<circle class="st8" cx="-260" cy="70" r="3" />
<circle class="st8" cx="-260" cy="80" r="3" />
<line class="st1" x1="-210" x2="-210" y1="-60" y2="50" />
<rect class="st9" height="40" width="40" x="-230" y="0" />
<line class="st3" x1="-230" x2="-190" y1="20" y2="20" />
<line class="st1" x1="-230" x2="-190" y1="-60" y2="-60" />
<line class="st1" x1="-230" x2="-190" y1="50" y2="50" />
<circle class="st10" cx="-210" cy="-80" r="3" />
<line class="st1" x1="-140" x2="-140" y1="-20" y2="80" />
<rect class="st11" height="50" width="40" x="-160" y="20" />
<line class="st3" x1="-160" x2="-120" y1="40" y2="40" />
<line class="st1" x1="-160" x2="-120" y1="-20" y2="-20" />
<line class="st1" x1="-160" x2="-120" y1="80" y2="80" />
<circle class="st12" cx="-140" cy="90" r="3" />
<line class="st1" x1="-90" x2="-90" y1="-40" y2="70" />
<rect class="st13" height="50" width="40" x="-110" y="10" />
<line class="st3" x1="-110" x2="-70" y1="30" y2="30" />
<line class="st1" x1="-110" x2="-70" y1="-40" y2="-40" />
<line class="st1" x1="-110" x2="-70" y1="70" y2="70" />
<circle class="st14" cx="-90" cy="80" r="3" />
<line class="st1" x1="-20" x2="-20" y1="-30" y2="60" />
<rect class="st15" height="50" width="40" x="-40" y="0" />
<line class="st3" x1="-40" x2="0" y1="35" y2="35" />
<line class="st1" x1="-40" x2="0" y1="-30" y2="-30" />
<line class="st1" x1="-40" x2="0" y1="60" y2="60" />
<circle class="st16" cx="-20" cy="70" r="3" />
<line class="st1" x1="30" x2="30" y1="-50" y2="50" />
<rect class="st17" height="40" width="40" x="10" y="5" />
<line class="st3" x1="10" x2="50" y1="25" y2="25" />
<line class="st1" x1="10" x2="50" y1="-50" y2="-50" />
<line class="st1" x1="10" x2="50" y1="50" y2="50" />
<circle class="st18" cx="30" cy="60" r="3" />
<line class="st1" x1="100" x2="100" y1="-30" y2="70" />
<rect class="st19" height="70" width="40" x="80" y="0" />
<line class="st3" x1="80" x2="120" y1="50" y2="50" />
<line class="st1" x1="80" x2="120" y1="-30" y2="-30" />
<line class="st1" x1="80" x2="120" y1="70" y2="70" />
<circle class="st20" cx="100" cy="80" r="3" />
<line class="st1" x1="150" x2="150" y1="-40" y2="60" />
<rect class="st21" height="40" width="40" x="130" y="0" />
<line class="st3" x1="130" x2="170" y1="15" y2="15" />
<line class="st1" x1="130" x2="170" y1="-40" y2="-40" />
<line class="st1" x1="130" x2="170" y1="60" y2="60" />
<circle class="st22" cx="150" cy="70" r="3" />
</svg>