<?xml version='1.0' encoding='utf-8'?>
<svg height="340" style="max-width: 100%; height: auto; font: 10px sans-serif;" viewBox="-70,-30,880,340" width="900" xmlns="http://www.w3.org/2000/svg">
<style type="text/css">.st0 {
    fill: none;
    stroke: hsl(0, 0%, 81%);
}

.st1 {
    fill: hsl(0, 0%, 95%);
}

.st2 {
    fill: hsl(0, 0%, 43%);
}

.st3 {
    fill: hsl(0, 0%, 54%);
}

.st4 {
    fill: hsl(0, 100%, 45%);
}

.st5 {
    fill: hsl(0, 93%, 73%);
}</style>
<g id="Layer_1">
<g>
<g>
<path class="st0" d="M523,33.7c-70.2,0-127,56.8-127,127s56.8,127,127,127c70.2,0,127-56.8,127-127S593.2,33.7,523,33.7z" />
<path class="st0" d="M628.9,160.7c0,58.5-47.4,105.8-105.9,105.8c-58.5,0-105.9-47.3-105.9-105.8S464.6,54.9,523,54.9     C581.5,54.9,628.9,102.2,628.9,160.7z" />
<path class="st0" d="M523,76c-46.8,0-84.6,38-84.6,84.7s37.8,84.7,84.6,84.7c46.8,0,84.6-38,84.6-84.7S569.9,76,523,76z" />
<path class="st0" d="M586.5,160.7c0,35.1-28.4,63.5-63.5,63.5c-35.1,0-63.5-28.4-63.5-63.5s28.4-63.5,63.5-63.5     C558.1,97.2,586.5,125.6,586.5,160.7z" />
<path class="st0" d="M523,118.4c-23.4,0-42.4,18.9-42.4,42.3c0,23.4,19,42.3,42.4,42.3c23.4,0,42.4-18.9,42.4-42.3     C565.4,137.3,546.4,118.4,523,118.4z" />
<path class="st0" d="M544.2,160.7c0,11.7-9.4,21.2-21.1,21.2c-11.7,0-21.1-9.5-21.1-21.2c0-11.7,9.4-21.2,21.1-21.2     C534.8,139.5,544.2,149,544.2,160.7z" />
</g>
<g>
<line class="st0" x1="523" x2="523" y1="160.7" y2="33.7" />
<line class="st0" x1="523" x2="643.8" y1="160.7" y2="121.5" />
<line class="st0" x1="523" x2="597.7" y1="160.7" y2="263.4" />
<line class="st0" x1="523" x2="448.4" y1="160.7" y2="263.4" />
<line class="st0" x1="523" x2="402.2" y1="160.7" y2="121.5" />
</g>
</g>
<g>
<g>
<path class="st0" d="M201.8,33.7c-70.2,0-127,56.8-127,127c0,70.2,56.8,127,127,127c70.2,0,127-56.8,127-127     C328.8,90.5,272,33.7,201.8,33.7z" />
<path class="st0" d="M307.7,160.7c0,58.5-47.4,105.8-105.9,105.8C143.3,266.5,96,219.2,96,160.7c0-58.5,47.4-105.8,105.9-105.8     C260.3,54.9,307.7,102.2,307.7,160.7z" />
<path class="st0" d="M201.8,76c-46.8,0-84.6,38-84.6,84.7c0,46.8,37.8,84.7,84.6,84.7c46.8,0,84.6-38,84.6-84.7     C286.5,114,248.6,76,201.8,76z" />
<path class="st0" d="M265.3,160.7c0,35.1-28.4,63.5-63.5,63.5c-35.1,0-63.5-28.4-63.5-63.5c0-35.1,28.4-63.5,63.5-63.5     C236.9,97.2,265.3,125.6,265.3,160.7z" />
<path class="st0" d="M201.8,118.4c-23.4,0-42.4,18.9-42.4,42.3c0,23.4,19,42.3,42.4,42.3s42.4-18.9,42.4-42.3     C244.2,137.3,225.2,118.4,201.8,118.4z" />
<path class="st0" d="M223,160.7c0,11.7-9.4,21.2-21.1,21.2c-11.7,0-21.1-9.6-21.1-21.2c0-11.7,9.4-21.2,21.1-21.2     C213.5,139.5,223,149,223,160.7z" />
</g>
<g>
<line class="st0" x1="201.8" x2="201.8" y1="160.7" y2="33.7" />
<line class="st0" x1="201.8" x2="276.5" y1="160.7" y2="58" />
<line class="st0" x1="201.8" x2="322.6" y1="160.7" y2="121.5" />
<line class="st0" x1="201.8" x2="322.6" y1="160.7" y2="199.9" />
<line class="st0" x1="201.8" x2="276.5" y1="160.7" y2="263.4" />
<line class="st0" x1="201.8" x2="201.8" y1="160.7" y2="287.7" />
<line class="st0" x1="201.8" x2="127.2" y1="160.7" y2="263.4" />
<line class="st0" x1="201.8" x2="81" y1="160.7" y2="199.9" />
<line class="st0" x1="201.8" x2="81" y1="160.7" y2="121.5" />
<line class="st0" x1="201.8" x2="127.2" y1="160.7" y2="58" />
</g>
</g>
</g>
<g id="Layer_2">
<rect class="st1" height="13.3" width="9.5" x="239.2" y="153.3" />
<rect class="st1" height="13.3" width="9.5" x="260.6" y="153.3" />
<rect class="st1" height="13.3" width="9.5" x="281.7" y="153.3" />
<rect class="st1" height="13.3" width="9.5" x="302.9" y="153.3" />
<rect class="st1" height="13.3" width="9.5" x="324.1" y="153.3" />
<rect class="st1" height="9.2" width="7.3" x="219.3" y="155.7" />
<g>
<path class="st2" d="M199.8,23.3l-1.1,3.4h-1.4l3.7-10.8h1.7l3.7,10.8h-1.5l-1.2-3.4H199.8z M203.3,22.2l-1.1-3.1    c-0.2-0.7-0.4-1.3-0.6-2h0c-0.2,0.6-0.3,1.3-0.5,2l-1.1,3.1H203.3z" />
</g>
<g>
<path class="st2" d="M279.7,42.9c0.6-0.1,1.6-0.2,2.5-0.2c1.4,0,2.3,0.2,3,0.8c0.6,0.4,0.9,1.1,0.9,1.9c0,1-0.7,2-1.8,2.4v0    c1,0.3,2.2,1.1,2.2,2.7c0,0.9-0.4,1.6-0.9,2.2c-0.8,0.7-2,1-3.7,1c-1,0-1.7-0.1-2.2-0.1V42.9z M281.1,47.3h1.3    c1.5,0,2.3-0.8,2.3-1.8c0-1.3-1-1.8-2.4-1.8c-0.6,0-1,0-1.2,0.1V47.3z M281.1,52.4c0.3,0,0.7,0.1,1.2,0.1c1.4,0,2.8-0.5,2.8-2.1    c0-1.5-1.3-2.1-2.8-2.1h-1.2V52.4z" />
</g>
<g>
<path class="st2" d="M336.9,124.2c-0.5,0.3-1.5,0.5-2.8,0.5c-3,0-5.3-1.9-5.3-5.5c0-3.4,2.3-5.7,5.6-5.7c1.3,0,2.2,0.3,2.6,0.5    l-0.3,1.1c-0.5-0.3-1.3-0.4-2.2-0.4c-2.5,0-4.2,1.6-4.2,4.4c0,2.6,1.5,4.3,4.1,4.3c0.8,0,1.7-0.2,2.3-0.4L336.9,124.2z" />
</g>
<g>
<path class="st2" d="M329.4,196.5c0.8-0.1,1.9-0.2,3-0.2c2,0,3.4,0.5,4.4,1.3c1,0.9,1.5,2.1,1.5,3.9c0,1.8-0.5,3.2-1.6,4.2    c-1,1-2.7,1.6-4.8,1.6c-1,0-1.8,0-2.5-0.1V196.5z M330.8,206.1c0.4,0.1,0.9,0.1,1.4,0.1c3,0,4.6-1.7,4.6-4.6    c0-2.5-1.4-4.2-4.4-4.2c-0.7,0-1.3,0.1-1.6,0.1V206.1z" />
</g>
<g>
<path class="st2" d="M285.3,273.1h-4.2v3.9h4.7v1.2h-6.1v-10.8h5.8v1.2h-4.4v3.4h4.2V273.1z" />
</g>
<g>
<path class="st2" d="M199.1,294.4h5.8v1.2h-4.4v3.6h4.1v1.2h-4.1v4.9h-1.4V294.4z" />
</g>
<g>
<path class="st2" d="M521.2,23.4l-1.1,3.4h-1.4l3.7-10.8h1.7l3.7,10.8h-1.5l-1.2-3.4H521.2z M524.8,22.4l-1.1-3.1    c-0.2-0.7-0.4-1.3-0.6-2h0c-0.2,0.6-0.3,1.3-0.5,2l-1.1,3.1H524.8z" />
</g>
<g>
<path class="st2" d="M650.2,113.9c0.6-0.1,1.6-0.2,2.5-0.2c1.4,0,2.3,0.2,3,0.8c0.6,0.4,0.9,1.1,0.9,1.9c0,1-0.7,2-1.8,2.4v0    c1,0.3,2.2,1.1,2.2,2.7c0,0.9-0.4,1.6-0.9,2.2c-0.8,0.7-2,1-3.7,1c-1,0-1.7-0.1-2.2-0.1V113.9z M651.6,118.3h1.3    c1.5,0,2.3-0.8,2.3-1.8c0-1.3-1-1.8-2.4-1.8c-0.6,0-1,0-1.2,0.1V118.3z M651.6,123.5c0.3,0,0.7,0.1,1.2,0.1c1.4,0,2.8-0.5,2.8-2.1    c0-1.5-1.3-2.1-2.8-2.1h-1.2V123.5z" />
</g>
<g>
<path class="st2" d="M607.5,276.8c-0.5,0.3-1.5,0.5-2.8,0.5c-3,0-5.3-1.9-5.3-5.5c0-3.4,2.3-5.7,5.6-5.7c1.3,0,2.2,0.3,2.6,0.5    l-0.3,1.1c-0.5-0.3-1.3-0.4-2.2-0.4c-2.5,0-4.2,1.6-4.2,4.5c0,2.6,1.5,4.3,4.1,4.3c0.8,0,1.7-0.2,2.3-0.4L607.5,276.8z" />
</g>
<g>
<path class="st2" d="M437.6,266.5c0.8-0.1,1.9-0.2,3-0.2c2,0,3.4,0.5,4.4,1.3c1,0.9,1.5,2.1,1.5,3.9c0,1.8-0.5,3.2-1.6,4.2    c-1,1-2.7,1.6-4.8,1.6c-1,0-1.8,0-2.5-0.1V266.5z M439,276.1c0.4,0.1,0.9,0.1,1.4,0.1c3,0,4.6-1.7,4.6-4.6c0-2.5-1.4-4.2-4.4-4.2    c-0.7,0-1.3,0.1-1.6,0.1V276.1z" />
</g>
<g>
<path class="st2" d="M396.1,117.4h-4.2v3.9h4.7v1.2h-6.1v-10.8h5.8v1.2h-4.4v3.4h4.2V117.4z" />
</g>
<g>
<path class="st2" d="M125.6,278.7c-0.6,0.2-1.9,0.6-3.3,0.6c-1.6,0-3-0.4-4-1.4c-0.9-0.9-1.5-2.3-1.5-4c0-3.2,2.2-5.6,5.8-5.6    c1.2,0,2.2,0.3,2.7,0.5l-0.3,1.1c-0.6-0.3-1.3-0.5-2.4-0.5c-2.6,0-4.3,1.6-4.3,4.3c0,2.7,1.6,4.4,4.2,4.4c0.9,0,1.5-0.1,1.9-0.3    v-3.2h-2.2v-1.1h3.6V278.7z" />
</g>
<g>
<path class="st2" d="M68.1,198.4v4.5h5.2v-4.5h1.4v10.8h-1.4v-5.1h-5.2v5.1h-1.4v-10.8H68.1z" />
</g>
<g>
<path class="st2" d="M72.8,112.1v10.8h-1.4v-10.8H72.8z" />
</g>
<g>
<path class="st2" d="M121.6,42.1h1.4v7.2c0,2.9-1.4,3.7-3.3,3.7c-0.5,0-1.1-0.1-1.5-0.3l0.2-1.1c0.3,0.1,0.7,0.2,1.2,0.2    c1.2,0,2-0.6,2-2.7V42.1z" />
</g>
<g>
<path class="st3" d="M220.8,163.5V163l0.7-0.7c1.7-1.6,2.4-2.4,2.4-3.4c0-0.7-0.3-1.3-1.3-1.3c-0.6,0-1.1,0.3-1.4,0.5l-0.3-0.6    c0.4-0.4,1.1-0.7,1.8-0.7c1.4,0,2,1,2,1.9c0,1.2-0.9,2.2-2.2,3.5l-0.5,0.5v0h2.9v0.7H220.8z" />
</g>
<g>
<path class="st3" d="M244.6,163.5v-1.8h-3v-0.6l2.9-4.1h0.9v4h0.9v0.7h-0.9v1.8H244.6z M244.6,161v-2.2c0-0.3,0-0.7,0-1h0    c-0.2,0.4-0.4,0.7-0.5,1l-1.6,2.2v0H244.6z" />
</g>
<g>
<path class="st3" d="M266.8,157.6c-0.2,0-0.4,0-0.7,0c-1.4,0.2-2.1,1.2-2.3,2.3h0c0.3-0.4,0.8-0.8,1.6-0.8c1.1,0,2,0.8,2,2.1    c0,1.2-0.8,2.3-2.2,2.3c-1.4,0-2.3-1.1-2.3-2.8c0-1.3,0.5-2.3,1.1-2.9c0.5-0.5,1.3-0.9,2.1-1c0.3,0,0.5,0,0.6,0V157.6z     M266.5,161.4c0-0.9-0.5-1.5-1.3-1.5c-0.5,0-1,0.3-1.3,0.8c-0.1,0.1-0.1,0.2-0.1,0.4c0,1.1,0.5,1.9,1.4,1.9    C266,162.9,266.5,162.3,266.5,161.4z" />
</g>
<g>
<path class="st3" d="M284.3,161.9c0-0.8,0.5-1.4,1.3-1.7l0,0c-0.7-0.3-1-0.9-1-1.5c0-1,0.9-1.7,2-1.7c1.3,0,1.9,0.8,1.9,1.6    c0,0.5-0.3,1.1-1.1,1.5v0c0.8,0.3,1.3,0.9,1.3,1.7c0,1.1-1,1.9-2.2,1.9C285.2,163.6,284.3,162.8,284.3,161.9z M287.8,161.8    c0-0.8-0.5-1.2-1.4-1.4c-0.8,0.2-1.2,0.7-1.2,1.3c0,0.7,0.5,1.2,1.3,1.2C287.3,163,287.8,162.5,287.8,161.8z M285.4,158.6    c0,0.6,0.5,1,1.2,1.2c0.6-0.2,1-0.6,1-1.2c0-0.5-0.3-1.1-1.1-1.1C285.8,157.5,285.4,158,285.4,158.6z" />
</g>
<g>
<path class="st3" d="M305.5,157.8L305.5,157.8l-1.1,0.6l-0.2-0.7l1.4-0.8h0.7v6.5h-0.8V157.8z" />
<path class="st3" d="M312.5,160.2c0,2.2-0.8,3.4-2.3,3.4c-1.3,0-2.1-1.2-2.1-3.3c0-2.2,0.9-3.4,2.3-3.4    C311.8,156.9,312.5,158.1,312.5,160.2z M309,160.3c0,1.7,0.5,2.6,1.3,2.6c0.9,0,1.3-1,1.3-2.7c0-1.6-0.4-2.6-1.3-2.6    C309.6,157.6,309,158.5,309,160.3z" />
</g>
<g>
<path class="st3" d="M326.5,157.8L326.5,157.8l-1.1,0.6l-0.2-0.7l1.4-0.8h0.7v6.5h-0.8V157.8z" />
<path class="st3" d="M329.2,163.5V163l0.7-0.7c1.7-1.6,2.4-2.4,2.4-3.4c0-0.7-0.3-1.3-1.3-1.3c-0.6,0-1.1,0.3-1.4,0.5l-0.3-0.6    c0.4-0.4,1.1-0.7,1.8-0.7c1.4,0,2,1,2,1.9c0,1.2-0.9,2.2-2.2,3.5l-0.5,0.5v0h2.9v0.7H329.2z" />
</g>
<rect class="st1" height="13.3" width="9.5" x="560.3" y="151.3" />
<rect class="st1" height="13.3" width="9.5" x="581.7" y="151.3" />
<rect class="st1" height="13.3" width="9.5" x="602.9" y="151.3" />
<rect class="st1" height="14.2" width="9.5" x="624.1" y="151.3" />
<rect class="st1" height="14.2" width="9.5" x="645.2" y="151.3" />
<polygon class="st1" points="539.6,163.7 546.9,163.7 547.8,153.7 540.5,155.7  " />
<g>
<path class="st3" d="M542.3,158.5v0.6h-2.5v-0.6H542.3z" />
<path class="st3" d="M543,161.5V161l0.7-0.7c1.7-1.6,2.4-2.4,2.4-3.4c0-0.7-0.3-1.3-1.3-1.3c-0.6,0-1.1,0.3-1.4,0.5l-0.3-0.6    c0.5-0.4,1.1-0.7,1.8-0.7c1.4,0,2,1,2,1.9c0,1.2-0.9,2.2-2.2,3.5l-0.5,0.5v0h2.9v0.7H543z" />
</g>
<g>
<path class="st3" d="M564.4,158.5v0.6h-2.5v-0.6H564.4z" />
<path class="st3" d="M567,155.8L567,155.8l-1.1,0.6l-0.2-0.7l1.4-0.8h0.7v6.5H567V155.8z" />
</g>
<g>
<path class="st3" d="M588.6,158.2c0,2.2-0.8,3.4-2.3,3.4c-1.3,0-2.1-1.2-2.1-3.3c0-2.2,0.9-3.4,2.3-3.4    C587.8,154.9,588.6,156.1,588.6,158.2z M585,158.3c0,1.7,0.5,2.6,1.3,2.6c0.9,0,1.3-1,1.3-2.7c0-1.6-0.4-2.6-1.3-2.6    C585.6,155.6,585,156.5,585,158.3z" />
</g>
<g>
<path class="st3" d="M607.5,155.8L607.5,155.8l-1.1,0.6l-0.2-0.7l1.4-0.8h0.8v6.5h-0.8V155.8z" />
</g>
<g>
<path class="st3" d="M626.8,161.5V161l0.7-0.7c1.7-1.6,2.4-2.4,2.4-3.4c0-0.7-0.3-1.3-1.3-1.3c-0.6,0-1.1,0.3-1.4,0.5l-0.3-0.6    c0.5-0.4,1.1-0.7,1.8-0.7c1.4,0,2,1,2,1.9c0,1.2-0.9,2.2-2.2,3.5l-0.5,0.5v0h2.9v0.7H626.8z" />
</g>
<g>
<path class="st3" d="M648,160.5c0.2,0.2,0.8,0.4,1.4,0.4c1.1,0,1.5-0.7,1.5-1.3c0-0.9-0.8-1.3-1.7-1.3h-0.5v-0.7h0.5    c0.6,0,1.4-0.3,1.4-1.1c0-0.5-0.3-1-1.1-1c-0.5,0-1,0.2-1.3,0.4l-0.2-0.6c0.3-0.2,1-0.5,1.7-0.5c1.3,0,1.9,0.8,1.9,1.5    c0,0.7-0.4,1.2-1.2,1.5v0c0.8,0.2,1.4,0.8,1.4,1.7c0,1-0.8,1.9-2.4,1.9c-0.7,0-1.4-0.2-1.7-0.4L648,160.5z" />
</g>
</g>
<g id="Layer_3">
<polygon class="st4" points="298.2,184.1 226.1,160.7 252.9,152 248.3,137.7 221.5,146.5 263.4,88.7 251.3,79.9 209.3,137.6    209.3,46.8 194.3,46.8 194.3,137.6 161.7,92.8 149.6,101.6 182.2,146.5 113.8,124.3 109.2,138.5 177.5,160.7 159.2,166.6    163.8,180.9 182.2,175 141.3,231.2 153.5,240 194.3,183.8 194.3,277.2 209.3,277.2 209.3,183.7 233.1,216.5 245.3,207.6 221.5,175    293.6,198.4  " />
<g>
<rect class="st5" height="10" transform="matrix(0.9516 -0.3074 0.3074 0.9516 -11.3274 193.6555)" width="53.8" x="582.1" y="127.8" />
</g>
<g>
<rect class="st4" height="10" transform="matrix(0.9506 -0.3104 0.3104 0.9506 -17.339 183.4059)" width="33.1" x="551.1" y="141.2" />
</g>
<g>
<rect class="st5" height="61.5" width="10" x="518" y="35.8" />
</g>
<g>
<rect class="st4" height="56.5" width="10" x="518" y="97.2" />
</g>
<g>
<rect class="st5" height="21.3" transform="matrix(0.8088 -0.588 0.588 0.8088 -21.4111 375.3483)" width="10" x="561.6" y="210" />
</g>
<g>
<rect class="st5" height="10" transform="matrix(0.5854 -0.8108 0.8108 0.5854 10.4029 478.6534)" width="42.3" x="452" y="224.2" />
</g>
<g>
<rect class="st5" height="28.8" transform="matrix(0.2873 -0.9578 0.9578 0.2873 188.7566 527.5117)" width="10" x="443.9" y="122.5" />
</g>
<g>
<rect class="st4" height="9.5" transform="matrix(0.3148 -0.9492 0.9492 0.3148 184.7875 541.059)" width="10" x="462.1" y="137.8" />
</g>
<g>
<rect class="st4" height="10" transform="matrix(0.5926 -0.8055 0.8055 0.5926 38.3921 479.3898)" width="25.5" x="480.4" y="196.7" />
</g>
<g>
<rect class="st4" height="44.3" transform="matrix(0.8088 -0.5881 0.5881 0.8088 -9.497 358.9578)" width="10" x="542.3" y="171.9" />
</g>
<g>
</g>
<g>
</g>
<g>
</g>
<g>
</g>
<g>
</g>
<g>
</g>
<g>
</g>
<g>
</g>
<g>
</g>
<g>
</g>
</g>
</svg>