<?xml version='1.0' encoding='utf-8'?>
<svg height="340" style="max-width: 100%; height: auto; font: 10px sans-serif;" viewBox="-300,-30,880,340" width="900" xmlns="http://www.w3.org/2000/svg">
<g transform="rotate(-90 450.0 170.0)"><style type="text/css">.st0 {
    opacity: 0.8;
    fill: hsl(87, 59%, 44%);
    enable-background: new;
}

.st1 {
    opacity: 0.75;
    fill: hsl(342, 81%, 49%);
    enable-background: new;
}

.st2 {
    fill: hsl(90, 44%, 49%);
}

.st3 {
    fill: hsl(0, 0%, 28%);
}

.st4 {
    fill: hsl(16, 91%, 51%);
}

.st5 {
    fill: hsl(0, 0%, 21%);
}

.st6 {
    fill: none;
    stroke: hsl(0, 0%, 19%);
    stroke-width: 2;
}

.st7 {
    fill: hsl(0, 0%, 99%);
}

.st8 {
    opacity: 0.9;
}</style>
<g id="Layer_2">
<circle class="st0" cx="113.4" cy="168.8" r="99.2" />
<circle class="st1" cx="239.6" cy="168.8" r="99.2" />
</g>
<g id="Layer_1">
<g>
<path class="st2" d="M108,38.2c-0.1-0.7-0.3-1.5-0.6-2.1l-0.8-2.2h-6.4l-0.8,2.2c-0.4,1-0.4,1.3-0.6,2.1h-3.3    c0.3-0.5,0.7-1.4,1.1-2.4l4.4-11.5c0.4-1,0.5-1.5,0.6-2h3.5c0.1,0.5,0.2,0.8,0.7,2l4.4,11.5c0.5,1.3,0.7,1.8,1,2.4H108z     M103.7,25.7c-0.1-0.2-0.1-0.5-0.4-1.1c-0.3,0.9-0.3,0.9-0.4,1.1l-2.1,5.9h5L103.7,25.7z" />
<path class="st2" d="M112.2,27.4c0.4-0.1,0.7-0.3,1.1-0.9c0.7-1.1,0.9-1.5,1.3-2.4c0.5-1.2,0.6-1.2,1.1-2.8l2.3,0.9    c-0.2,0.4-0.3,0.5-0.6,1.1c-1.2,2.3-2,3.6-2.4,4.2c0.2,0,0.2,0,0.4,0c0.6,0,0.9,0,1.5-0.1c0.1-0.1,0.1-0.1,0.2-0.3    c0.3-0.4,0.5-0.8,0.8-1.5l2,1c-0.7,1.3-1.1,1.9-2.2,3.2c-0.8,1-1.2,1.5-1.9,2.2c0.5-0.1,1-0.2,1.4-0.3c0.3-0.1,0.8-0.2,1.5-0.3    c0.5-0.1,0.6-0.1,1-0.2l-0.2,2.1c-0.8,0.1-0.9,0.1-2.4,0.4c-0.9,0.2-0.9,0.2-2.9,0.5c-0.5,0.1-0.8,0.1-1.2,0.3l-0.6-2.3    c0.6-0.2,0.8-0.3,1.1-0.6c0.1-0.2,0.1-0.2,0.4-0.4c0.5-0.5,1.2-1.4,1.7-1.9c-0.6,0-2.3,0.2-3,0.2L112.2,27.4z M119.8,36.9    c0.2,0,0.4,0,0.9,0h0.2V24c0-0.8,0-1.3-0.1-2c0.8,0,1.2,0.1,2,0.1h4.6c1,0,1.5,0,2.1-0.1c-0.1,0.7-0.1,1.2-0.1,2.2v12.8h0.2    c0.5,0,0.9,0,1.2-0.1v2.3c-0.7-0.1-1.3-0.1-2.1-0.1h-7.4c-0.8,0-1.4,0-2.1,0.1v-1.8c-0.7,0.2-1.9,0.6-4.8,1.3    c-0.7,0.2-1,0.3-1.4,0.5l-0.7-2.4c1.7-0.2,4.4-0.8,7.3-1.7L119.8,36.9L119.8,36.9z M123,26.9h4.4V24H123V26.9z M123,31.8h4.4v-2.9    H123V31.8z M123,36.9h4.4v-3.2H123V36.9z" />
<path class="st3" d="M91.7,51.7c0-0.8,0-1.4,0.1-2.4c-0.4,0.8-0.8,1.4-1.4,2.2c-0.1-0.1-0.1-0.1-0.3-0.5c-0.1-0.2-0.2-0.3-0.4-0.4    c1.2-1.3,2.1-2.9,2.8-4.7c0.3-0.9,0.5-1.5,0.6-2.1l1.1,0.3c-0.1,0.2-0.2,0.4-0.3,0.9c-0.3,1-0.8,2-1.2,2.9v8.5c0,0.9,0,1.5,0.1,2    h-1.1c0.1-0.6,0.1-1.1,0.1-2V51.7z M98.8,50.5c-0.1,0.2-0.3,0.3-0.4,0.5c0.8,0.7,1.2,1.3,1.6,2.2c1.2-0.7,2.2-1.6,2.8-2.4l0.9,0.6    c-0.6,0.6-1.1,1-1.9,1.7c0.5,1,0.8,1.3,1.2,1.8c0.6,0.7,1.2,1.2,2,1.7c-0.2,0.3-0.4,0.5-0.6,0.9c-1-0.8-1.5-1.3-2.2-2.2    c-0.5-0.6-0.7-0.9-1.1-1.8c-0.3,0.2-0.5,0.3-0.8,0.4c0,0.1,0,0.1,0,0.1c0.2,0.6,0.3,1.4,0.3,2c0,0.9-0.2,1.5-0.5,1.8    c-0.3,0.2-0.7,0.3-1.5,0.3c-0.4,0-0.7,0-1.2-0.1c0-0.3-0.1-0.5-0.3-0.9c0.7,0.1,1,0.1,1.5,0.1c0.9,0,1.1-0.2,1.1-1.3    c0-0.4,0-0.8-0.1-1.3c-1.6,1.3-3.2,2.2-5.8,3.2c-0.1-0.3-0.3-0.5-0.5-0.8c2.5-0.8,4.5-1.8,6.1-3.1c-0.1-0.4-0.2-0.6-0.4-1    c-1.4,1-3,1.8-5.1,2.6c-0.2-0.4-0.3-0.5-0.5-0.8c1.5-0.4,2.5-0.8,3.8-1.5c0.6-0.3,0.9-0.5,1.4-0.9c-0.3-0.4-0.4-0.5-0.7-0.8    c-1.2,0.8-2,1.2-3.9,1.7c-0.2-0.4-0.3-0.6-0.5-0.8c1.8-0.4,2.6-0.7,3.4-1.2c0.4-0.2,0.7-0.5,0.9-0.7h-1.7c-0.4,0-0.8,0-1.2,0    c0-0.3,0-0.7,0-1.2v-1.3c-0.4,0.3-0.7,0.6-0.8,0.7c-0.2-0.3-0.3-0.4-0.6-0.7c1.2-0.8,1.9-1.4,2.8-2.5c0.6-0.7,0.9-1.2,1.1-1.9    l1.1,0.2c-0.2,0.2-0.2,0.2-0.4,0.7c0,0.1-0.1,0.1-0.2,0.3h2.3c0.5,0,1,0,1.2,0l0.6,0.5c-0.1,0.1-0.2,0.2-0.4,0.5    c-0.3,0.4-0.9,1-1.1,1.3h2.5c0.6,0,0.9,0,1.2,0c0,0.3,0,0.6,0,1.2v1c0,0.7,0,0.8,0,1.2c-0.3,0-0.7,0-1.2,0H98.8z M98.3,49.8    c0.3-0.5,0.5-1,0.6-1.8h-3.2v1.8H98.3z M99.1,47.2c0.5-0.5,0.8-0.8,1.2-1.4h-3.2c-0.4,0.5-0.8,1-1.3,1.4H99.1z M103,49.8V48h-3.2    c-0.2,1-0.4,1.4-0.5,1.8H103z" />
<path class="st3" d="M107,46.3c0-0.7,0-1.2-0.1-1.7c0.6,0.1,1,0.1,1.9,0.1h9.4c0.9,0,1.3,0,1.8-0.1c0,0.5-0.1,1-0.1,1.7v10.5    c0,1-0.3,1.2-1.9,1.2c-0.6,0-1.1,0-2.1-0.1c0-0.4-0.1-0.7-0.3-1c1,0.2,1.7,0.2,2.5,0.2c0.7,0,0.8,0,0.8-0.4V45.6h-11v10.9    c0,0.9,0,1.4,0.1,1.9h-1.2c0.1-0.6,0.1-1.1,0.1-1.9V46.3z M113.1,54.3c-0.5-0.9-0.7-1.1-1.4-2.2c-0.6,1.7-1.3,2.9-2.7,4.3    c-0.3-0.3-0.5-0.5-0.8-0.7c1.5-1.3,2.2-2.5,2.8-4.5c-1.1-1.4-1.4-1.7-2.4-2.6l0.7-0.6c0.8,0.8,0.8,0.8,1.9,2.1    c0.3-1.2,0.4-2.1,0.5-3.6l1,0.1c-0.3,2.3-0.4,3-0.7,4.4c1,1.3,1.1,1.4,1.8,2.5L113.1,54.3z M117.6,54.4c-0.5-0.8-0.8-1.4-1.4-2.1    c-0.2,0.7-0.6,1.4-1,2.1c-0.4,0.7-0.8,1.2-1.6,2.1c-0.4-0.4-0.5-0.5-0.9-0.7c0.6-0.5,0.8-0.8,1.2-1.4c0.7-1,1-1.8,1.4-3.1    c-0.7-0.9-1.5-1.8-2.5-2.8l0.7-0.6c0.9,0.9,1.2,1.3,2.1,2.3c0.2-1.1,0.4-1.9,0.5-3.6l1.1,0.1c-0.3,2.2-0.5,3.3-0.8,4.4    c0.1,0.1,0.1,0.1,0.2,0.3c0.5,0.7,0.9,1.2,1.6,2.3L117.6,54.4z" />
<path class="st3" d="M123.5,45.8c-0.7,0-0.9,0-1.3,0.1v-1.1c0.4,0.1,0.8,0.1,1.4,0.1h2.4c0.6,0,0.9,0,1.3-0.1v1.1    c-0.4,0-0.7-0.1-1.3-0.1h-0.8v3.6h0.6c0.5,0,0.7,0,1.1-0.1v1c-0.4,0-0.6-0.1-1.1-0.1h-0.6v3.6c0.6-0.3,1.2-0.6,2-1.1l0,1    c-1.2,0.8-2.3,1.3-3.8,2c-0.5,0.2-0.7,0.3-1,0.5l-0.4-1.1c0.7-0.2,1.2-0.4,2.2-0.8v-4h-0.8c-0.4,0-0.7,0-1.1,0.1v-1    c0.4,0.1,0.6,0.1,1.1,0.1h0.8v-3.6H123.5z M130.6,53.9c-1.3,0.9-2.1,1.5-3.2,2.1c-0.2,0.1-0.5,0.3-0.6,0.4l-0.6-1    c1-0.4,2.4-1.2,4-2.4L130.6,53.9z M128.5,47.7c-0.6,0-1.1,0-1.5,0.1v-1.1c0.4,0.1,0.9,0.1,1.6,0.1h2.4v-1.2c0-0.6,0-1.1-0.1-1.6    h1.2c-0.1,0.5-0.1,1-0.1,1.5v1.3h3c0.6,0,1.1,0,1.6-0.1v1.1c-0.5-0.1-0.9-0.1-1.5-0.1H132c0,0.9,0.8,3.2,1.6,4.6    c0.9,1.7,2,2.8,3.4,3.8c-0.3,0.3-0.5,0.5-0.7,1c-1.2-0.9-2-1.8-2.8-3.1c-0.9-1.4-1.3-2.5-1.6-4.3c0.1,1.3,0.1,2.5,0.1,3.2v4.3    c0,0.9-0.3,1.1-1.7,1.1c-0.4,0-0.8,0-1.5-0.1c-0.1-0.4-0.1-0.7-0.3-1c0.8,0.1,1.4,0.2,1.9,0.2s0.6-0.1,0.6-0.4v-9.2H128.5z     M129.1,52c-0.5-1.3-0.9-2-1.7-2.9l0.8-0.4c0.8,1.1,1.2,1.7,1.7,2.9L129.1,52z M135.1,46.4c-0.8-0.8-1.4-1.2-2.3-1.7l0.7-0.6    c0.9,0.6,1.5,1,2.3,1.6L135.1,46.4z M133.5,51.4c0.8-0.9,1.2-1.7,1.8-2.9l0.9,0.6c-0.6,1.1-1.1,1.9-1.9,2.9L133.5,51.4z" />
</g>
<g>
<path class="st4" d="M226.1,38.2c-1.2,0-1.7,0-2.6,0.1c0.1-0.8,0.2-1.4,0.2-2.7V24.7c0-0.9-0.1-1.6-0.2-2.5c0.8,0,1.2,0,2.5,0h4.7    c3.1,0,4.8,1.4,4.8,3.9c0,1.2-0.4,2.1-1.1,2.8c-0.4,0.4-0.8,0.6-1.6,0.8c1,0.2,1.5,0.4,2,0.9c0.8,0.8,1.2,1.8,1.2,3.1    c0,2.8-1.9,4.4-5.2,4.4H226.1z M230.5,28.8c1.5,0,2.4-0.8,2.4-2.2c0-0.6-0.2-1.2-0.5-1.5c-0.4-0.4-1.1-0.6-1.9-0.6h-4.1v4.3H230.5    z M226.3,36h4.3c1.8,0,2.8-0.9,2.8-2.5c0-0.8-0.2-1.3-0.6-1.7c-0.5-0.4-1.3-0.7-2.2-0.7h-4.3V36z" />
<path class="st4" d="M237.9,27.4c0.4-0.1,0.7-0.3,1.1-0.9c0.7-1.1,0.9-1.5,1.3-2.4c0.5-1.2,0.6-1.2,1.1-2.8l2.3,0.9    c-0.2,0.4-0.3,0.5-0.6,1.1c-1.2,2.3-2,3.6-2.4,4.2c0.2,0,0.2,0,0.4,0c0.6,0,0.9,0,1.5-0.1c0.1-0.1,0.1-0.1,0.2-0.3    c0.3-0.4,0.5-0.8,0.8-1.5l2,1c-0.7,1.3-1.1,1.9-2.2,3.2c-0.8,1-1.2,1.5-1.9,2.2c0.5-0.1,1-0.2,1.4-0.3c0.3-0.1,0.8-0.2,1.5-0.3    c0.5-0.1,0.6-0.1,1-0.2l-0.2,2.1c-0.8,0.1-0.9,0.1-2.4,0.4c-0.9,0.2-0.9,0.2-2.9,0.5c-0.5,0.1-0.8,0.1-1.2,0.3l-0.6-2.3    c0.6-0.2,0.8-0.3,1.1-0.6c0.1-0.2,0.1-0.2,0.4-0.4c0.5-0.5,1.2-1.4,1.7-1.9c-0.6,0-2.3,0.2-3,0.2L237.9,27.4z M245.5,36.9    c0.2,0,0.4,0,0.9,0h0.2V24c0-0.8,0-1.3-0.1-2c0.8,0,1.2,0.1,2,0.1h4.6c1,0,1.5,0,2.1-0.1c-0.1,0.7-0.1,1.2-0.1,2.2v12.8h0.2    c0.5,0,0.9,0,1.2-0.1v2.3c-0.7-0.1-1.3-0.1-2.1-0.1H247c-0.8,0-1.4,0-2.1,0.1v-1.8c-0.7,0.2-1.9,0.6-4.8,1.3    c-0.7,0.2-1,0.3-1.4,0.5l-0.7-2.4c1.7-0.2,4.4-0.8,7.3-1.7L245.5,36.9L245.5,36.9z M248.7,26.9h4.4V24h-4.4V26.9z M248.7,31.8h4.4    v-2.9h-4.4V31.8z M248.7,36.9h4.4v-3.2h-4.4V36.9z" />
<path class="st3" d="M210.7,51.5c-0.2,0.5-0.4,0.9-0.6,1.3h3c0.9,0,1.4,0,1.8-0.1v1c-0.5-0.1-1-0.1-1.8-0.1h-10.8    c-0.8,0-1.3,0-1.8,0.1v-1c0.4,0.1,0.9,0.1,1.8,0.1h2.8c-0.1-0.4-0.3-0.8-0.5-1.3H204c-0.6,0-1,0-1.4,0c0-0.3,0-0.5,0-0.9v-0.9    c0-0.4,0-0.6,0-0.9c0.3,0,0.8,0,1.4,0h7.1c0.7,0,1,0,1.4,0c0,0.3,0,0.5,0,0.9v0.9c0,0.4,0,0.7,0,0.9c-0.4,0-0.8,0-1.4,0H210.7z     M212.8,45.1c0.9,0,1.4,0,1.8-0.1v1c-0.4-0.1-0.9-0.1-1.8-0.1H208v1.1h4c0.8,0,1.1,0,1.6-0.1v1c-0.4-0.1-0.8-0.1-1.6-0.1h-8.7    c-0.7,0-1.1,0-1.6,0.1v-1c0.4,0.1,0.8,0.1,1.6,0.1h3.8V46h-4.5c-0.9,0-1.4,0-1.8,0.1v-1c0.4,0.1,0.9,0.1,1.8,0.1h4.5    c0-0.6,0-0.9-0.1-1.3h1.2c-0.1,0.4-0.1,0.7-0.1,1.3H212.8z M202.4,55.7c0-0.5,0-0.8-0.1-1.3c0.4,0,0.8,0.1,1.5,0.1h7.5    c0.7,0,1.1,0,1.5-0.1c0,0.4-0.1,0.7-0.1,1.3V57c0,0.6,0,0.9,0.1,1.4h-1.1v-0.7h-8.4v0.7h-1.1c0.1-0.4,0.1-0.8,0.1-1.4V55.7z     M203.4,56.9h8.4v-1.6h-8.4V56.9z M203.6,50.7h8v-1.2h-8V50.7z M205.6,51.5c0,0,0,0,0.1,0.1c0.1,0.3,0.3,0.7,0.4,1.2h2.9    c0,0,0,0,0.1-0.1c0.2-0.3,0.4-0.8,0.5-1.2H205.6z" />
<path class="st3" d="M222.6,55.3c-0.6-1-0.7-1.2-1.8-2.6c-1,2.2-2,3.5-4,5.1c-0.3-0.5-0.3-0.5-0.7-0.9c1.2-0.9,1.8-1.6,2.6-2.6    c0.6-0.8,1-1.6,1.4-2.5c-0.8-0.9-2-2.2-3.1-3.3l0.7-0.7c0.8,0.8,1.9,1.9,2.8,3c0.5-1.6,0.7-2.6,1-4.7H218c-0.6,0-1,0-1.4,0.1v-1.1    c0.4,0.1,0.8,0.1,1.4,0.1h3.4c0.5,0,0.8,0,1.2,0c-0.1,0.4-0.1,0.5-0.1,1.1c-0.3,2-0.7,3.7-1.2,5.4c0.8,1,1.6,2,2.1,2.8L222.6,55.3    z M226.9,48.6c0,0.3,0,0.4,0,0.8c0,3.6,1.5,6.2,4.5,8.1c-0.3,0.3-0.5,0.6-0.8,1c-1.6-1.3-2.3-2-3-3.1c-0.7-1.1-1-2-1.2-3.2    c-0.2,1.4-0.5,2.4-1.2,3.5c-0.7,1.2-1.4,1.9-2.8,2.8c-0.3-0.3-0.4-0.5-0.8-0.8c1.5-1,2.4-1.9,3.1-3.2c0.7-1.3,1.1-3.1,1.1-5    c0-0.4,0-0.6-0.1-0.9H226.9z M225,47.3c-0.4,1.2-0.8,2-1.7,3.3c-0.2-0.3-0.4-0.5-0.8-0.7c1.1-1.4,1.7-2.9,2.1-4.7    c0.1-0.6,0.2-1.1,0.2-1.5l1.1,0.2c-0.1,0.2-0.1,0.4-0.4,1.8c0,0.2-0.1,0.4-0.2,0.6h3.7c0.7,0,1,0,1.4-0.1l0.5,0.6    c-0.1,0.2-0.1,0.2-0.5,1.3c-0.4,1-0.8,1.9-1.3,2.8c-0.3-0.3-0.4-0.3-0.9-0.5c0.7-1.1,1.1-1.9,1.5-3.3H225z" />
<path class="st3" d="M235.3,46.9c0.5,0,0.7,0,1.1-0.1v1c-0.3,0-0.6-0.1-1-0.1h-0.1v0.6c0.8,1,0.8,1.1,1.6,2.5l-0.7,0.6    c-0.3-0.7-0.4-0.9-0.8-1.7v6.8c0,0.8,0,1.4,0.1,1.9h-1.1c0.1-0.5,0.1-1.1,0.1-1.9v-4.4c0-0.6,0-1,0.1-2.5c-0.4,1.8-0.9,3-1.7,4.4    c-0.2-0.4-0.4-0.6-0.6-0.9c1-1.4,1.8-3.5,2.1-5.5h-0.5c-0.5,0-0.8,0-1.1,0.1v-1c0.3,0,0.6,0.1,1.1,0.1h0.6v-1.5    c0-0.8,0-1.3-0.1-1.6h1.1c-0.1,0.4-0.1,0.9-0.1,1.6L235.3,46.9L235.3,46.9z M240,45.3h-1.5c-0.7,0-0.9,0-1.5,0.1v-1    c0.4,0,1,0.1,1.4,0.1h1.3c0.5,0,0.9,0,1.3-0.1c-0.1,0.3-0.2,0.9-0.3,1.8l-0.1,0.9h0.3c0.5,0,0.8,0,1.1-0.1v1c-0.3,0-0.5,0-0.9-0.1    v7.3l0.7-0.2l0,0.8l-0.7,0.2v0.7c0,0.8,0,1.2,0.1,1.6h-1.1c0.1-0.4,0.1-1,0.1-1.6v-0.5c-0.8,0.2-1.4,0.3-2,0.4    c-0.4,0.1-0.7,0.1-0.8,0.1c-0.1,0-0.1,0-0.3,0.1c-0.2,0-0.2,0-0.5,0.1c-0.1,0-0.1,0-0.1,0l-0.2-1c0.1,0,0.1,0,0.3,0    c0.2,0,0.2,0,0.8-0.1v-8c-0.1,0-0.1,0-0.3,0c-0.2,0-0.4,0-0.5,0v-1c0.3,0,0.6,0.1,1.1,0.1h2.1L240,45.3z M238.3,48v1.8h2V48H238.3    z M238.3,50.6v2h2v-2H238.3z M238.3,53.5v2.3c1.1-0.2,1.2-0.2,2-0.4v-2H238.3z M247.1,47.7c-0.3,0-0.3,0-0.9-0.1    c0,2.8-0.4,4.9-1.3,6.7c0.6,1.1,1.4,2,2.4,2.9c-0.3,0.3-0.4,0.6-0.6,0.9c-1.1-1.1-1.6-1.7-2.4-2.9c-0.7,1.2-1.3,2-2.4,3    c-0.2-0.4-0.3-0.4-0.6-0.8c1.2-1,1.9-1.8,2.5-3.1c-0.6-1.3-1-2.6-1.3-4.2c-0.2,0.5-0.3,0.7-0.7,1.2c-0.2-0.4-0.3-0.5-0.6-0.8    c0.8-1.1,1.2-2,1.6-3.6c0.3-1.1,0.4-2.1,0.4-2.9l1,0.2c-0.1,0.2-0.1,0.3-0.3,1.3c-0.1,0.4-0.2,0.8-0.3,1.2h2c0.7,0,1,0,1.4-0.1    V47.7z M243.5,47.6c-0.1,0.3-0.2,0.5-0.3,0.9c0.2,1.9,0.5,3.2,1.1,4.6c0.6-1.6,0.9-3.2,0.9-5.6H243.5z" />
<path class="st3" d="M251.4,56.6c0,0.8,0,1.4,0.1,1.9h-1.1c0.1-0.5,0.1-1,0.1-1.9v-4.4c0-0.5,0-1.4,0.1-2.6    c-0.6,2.1-1.1,3.3-1.9,4.5c-0.2-0.4-0.4-0.5-0.7-0.8c0.8-1,1.3-2,1.8-3.4c0.2-0.7,0.5-1.5,0.6-2h-0.8c-0.4,0-0.9,0-1.1,0.1v-1    c0.3,0,0.6,0.1,1.2,0.1h0.9v-1.5c0-0.9,0-1.3-0.1-1.6h1.1c-0.1,0.4-0.1,0.8-0.1,1.6V47h0.5c0.5,0,0.7,0,1-0.1v1c-0.3,0-0.6,0-1,0    h-0.5v0.8c0.5,0.5,1.4,1.6,1.9,2.3l-0.7,0.7c-0.3-0.6-0.7-1.2-1.2-1.9V56.6z M258.2,52c0,0.3,0,0.4-0.1,0.9    c-0.1,1.9-0.2,2.6-0.9,3.3c-0.6,0.7-1.4,1.2-2.7,1.6c-0.5,0.2-0.8,0.2-1.8,0.5c-0.2-0.5-0.3-0.6-0.6-0.9c2.3-0.4,3.7-0.9,4.3-1.7    c0.5-0.7,0.7-1.3,0.7-2.7c0-0.4,0-0.7,0-1H258.2z M253.3,49.4c0.1-0.5,0.1-1,0.1-1.6v-2.1c0-0.6,0-1-0.1-1.5h1.1    c-0.1,0.4-0.1,0.8-0.1,1.5v2.1c0,0.6,0,1.1,0.1,1.6H253.3z M253.8,55.6c0-0.4,0-0.8,0-1.4v-2.2c0-0.6,0-1.1-0.1-1.5    c0.4,0,0.7,0,1.4,0h4.9c0.7,0,1.1,0,1.4-0.1c0,0.4,0,0.9,0,1.5V54c0,0.7,0,1.1,0,1.5h-1.1c0-0.4,0.1-0.9,0.1-1.5v-2.7h-5.7v2.8    c0,0.7,0,1.1,0,1.4H253.8z M256.7,43.9c-0.1,0.4-0.1,0.8-0.1,1.5v2.8c0,0.6,0,1.1,0.1,1.6h-1.1c0.1-0.5,0.1-1,0.1-1.6v-2.8    c0-0.6,0-1-0.1-1.5H256.7z M258.9,46.3c-0.5,0.9-0.7,1.2-1.2,1.9c-0.2-0.3-0.4-0.5-0.7-0.6c0.5-0.6,0.8-1,1.2-1.8    c0.4-0.8,0.6-1.5,0.6-2l1,0.2c-0.1,0.2-0.1,0.3-0.4,1.2c0,0,0,0.1-0.1,0.2h2.3c0.6,0,0.9,0,1.3-0.1v1.1c-0.4-0.1-0.8-0.1-1.3-0.1    H258.9z M259.1,55.3c0,0.3-0.1,0.7-0.1,1v0.6c0,0.4,0.2,0.5,1.3,0.5c1.2,0,1.4,0,1.6-0.3c0.1-0.2,0.2-0.6,0.2-1.3    c0.3,0.2,0.5,0.3,0.9,0.4c-0.1,0.9-0.2,1.3-0.4,1.6c-0.3,0.4-0.7,0.5-2.3,0.5c-1.8,0-2.2-0.2-2.2-1v-0.9c0-0.5,0-0.8-0.1-1H259.1z     M259.5,47.3c1,0.4,1.4,0.7,2.4,1.4l-0.5,0.9c-0.8-0.7-1.4-1.1-2.4-1.6L259.5,47.3z" />
<path class="st3" d="M265.7,45.8c-0.7,0-0.9,0-1.3,0.1v-1.1c0.4,0.1,0.8,0.1,1.4,0.1h2.4c0.6,0,0.9,0,1.3-0.1v1.1    c-0.4,0-0.7-0.1-1.3-0.1h-0.8v3.6h0.6c0.5,0,0.7,0,1.1-0.1v1c-0.4,0-0.6-0.1-1.1-0.1h-0.6v3.6c0.6-0.3,1.2-0.6,2-1.1l0,1    c-1.2,0.8-2.3,1.3-3.8,2c-0.5,0.2-0.7,0.3-1,0.5l-0.4-1.1c0.7-0.2,1.2-0.4,2.2-0.8v-4h-0.8c-0.4,0-0.7,0-1.1,0.1v-1    c0.4,0.1,0.6,0.1,1.1,0.1h0.8v-3.6H265.7z M272.8,53.9c-1.3,0.9-2.1,1.5-3.2,2.1c-0.2,0.1-0.5,0.3-0.6,0.4l-0.6-1    c1-0.4,2.4-1.2,4-2.4L272.8,53.9z M270.8,47.7c-0.6,0-1.1,0-1.5,0.1v-1.1c0.4,0.1,0.9,0.1,1.6,0.1h2.4v-1.2c0-0.6,0-1.1-0.1-1.6    h1.2c-0.1,0.5-0.1,1-0.1,1.5v1.3h3c0.6,0,1.1,0,1.6-0.1v1.1c-0.5-0.1-0.9-0.1-1.5-0.1h-3.1c0,0.9,0.8,3.2,1.6,4.6    c0.9,1.7,2,2.8,3.4,3.8c-0.3,0.3-0.5,0.5-0.7,1c-1.2-0.9-2-1.8-2.8-3.1c-0.9-1.4-1.3-2.5-1.6-4.3c0.1,1.3,0.1,2.5,0.1,3.2v4.3    c0,0.9-0.3,1.1-1.7,1.1c-0.4,0-0.8,0-1.5-0.1c-0.1-0.4-0.1-0.7-0.3-1c0.8,0.1,1.4,0.2,1.9,0.2s0.6-0.1,0.6-0.4v-9.2H270.8z     M271.4,52c-0.5-1.3-0.9-2-1.7-2.9l0.8-0.4c0.8,1.1,1.2,1.7,1.7,2.9L271.4,52z M277.3,46.4c-0.8-0.8-1.4-1.2-2.3-1.7l0.7-0.6    c0.9,0.6,1.5,1,2.3,1.6L277.3,46.4z M275.7,51.4c0.8-0.9,1.2-1.7,1.8-2.9l0.9,0.6c-0.6,1.1-1.1,1.9-1.9,2.9L275.7,51.4z" />
</g>
<g>
<path class="st5" d="M169.7,289.7c0.9,0,1.3,0,1.7-0.1l1.1,1.3c-1.7,2.8-2.1,3.4-3.2,4.5c1.3,0.9,2.2,1.3,4.2,2    c-0.4,0.8-0.7,1.3-0.9,2.2l-0.9-0.4c0,0.1,0,0.1,0,0.1c0,0.2,0,0.5,0,1v4.2c0,1,0,1.6,0.1,2.2h-2.2v-0.9h-3.9v1h-2.2    c0.1-0.5,0.1-1.1,0.1-2v-4.4c0-0.5,0-0.5,0-0.9l-0.7,0.3c-0.3-0.8-0.4-1-0.8-1.5v1.5c-0.4,0-0.8-0.1-1.4-0.1h-0.4v3.1    c1.1-0.3,1.2-0.3,2.3-0.7v1.9c-2,0.7-4.1,1.2-6.8,1.9c-0.4,0.1-0.6,0.1-0.9,0.3l-0.5-2.2c0.4,0,0.7-0.1,1.2-0.1v-4.9    c0-1,0-1.5-0.1-2h2.1c-0.1,0.5-0.1,0.9-0.1,2v4.6c0.1,0,0.1,0,0.4-0.1c0.2,0,0.3-0.1,0.5-0.1v-7.8h-1.1c-0.7,0-1.2,0-1.8,0.1    c0.1-0.6,0.1-1.2,0.1-2v-2.8c0-0.8,0-1.4-0.1-2c0.6,0.1,1.2,0.1,2,0.1h2.9c0.9,0,1.4,0,2-0.1c-0.1,0.6-0.1,1.1-0.1,2v2.1    c0.9-0.7,1.6-1.4,2.1-2.2c0.7-1,1.2-2,1.4-2.7l2.2,0.5l-0.3,0.6c-0.1,0.2-0.2,0.4-0.4,0.7H169.7z M157.6,293.6h2.7v-2.9h-2.7    V293.6z M162.2,297.7c1.5-0.6,2.8-1.3,4.1-2.3c-0.6-0.6-1.1-1.2-1.6-2c-0.7,0.7-0.9,0.9-1.6,1.4c-0.2-0.4-0.4-0.7-0.9-1.2    c0,1,0,1.4,0.1,1.9c-0.4,0-0.4,0-1.6-0.1h-0.4v2.3h0.4c0.8,0,1.1,0,1.4-0.1V297.7z M170.3,299c0.4,0,0.7,0,1.1,0    c-1.4-0.7-2.5-1.3-3.5-2.2c-1.1,0.9-2.2,1.6-3.4,2.2c0.4,0,0.5,0,0.6,0H170.3z M165.8,303.9h3.9v-3h-3.9V303.9z M166.3,291.5    c-0.3,0.4-0.3,0.4-0.3,0.5c0.5,0.9,1.1,1.5,1.8,2.2c0.8-0.8,1.3-1.4,2-2.6H166.3z" />
<path class="st5" d="M175.9,305.9c0.1-0.7,0.1-1.4,0.1-2.5v-11.5c0-0.9,0-1.5-0.1-2.2c0.7,0.1,1.3,0.1,2.2,0.1h11.3    c0.9,0,1.5,0,2.2-0.1c-0.1,0.7-0.1,1.3-0.1,2.2v11.5c0,1,0,1.8,0.1,2.5h-2.5v-1.5h-10.8v1.5H175.9z M178.4,302.2h10.8v-10.1h-10.8    V302.2z" />
<path class="st5" d="M198,293.8v2.9H195v-2.9H198z M198,302.3v2.9H195v-2.9H198z" />
<path class="st3" d="M123.6,318.5c-0.2,0.5-0.4,0.9-0.6,1.3h3c0.9,0,1.4,0,1.8-0.1v1c-0.5-0.1-1-0.1-1.8-0.1h-10.8    c-0.8,0-1.3,0-1.8,0.1v-1c0.4,0.1,0.9,0.1,1.8,0.1h2.8c-0.1-0.4-0.3-0.8-0.5-1.3h-0.6c-0.6,0-1,0-1.4,0c0-0.3,0-0.5,0-0.9v-0.9    c0-0.4,0-0.6,0-0.9c0.3,0,0.8,0,1.4,0h7.1c0.7,0,1,0,1.4,0c0,0.3,0,0.5,0,0.9v0.9c0,0.4,0,0.7,0,0.9c-0.4,0-0.8,0-1.4,0H123.6z     M125.6,312.1c0.9,0,1.4,0,1.8-0.1v1c-0.4-0.1-0.9-0.1-1.8-0.1h-4.8v1.1h4c0.8,0,1.1,0,1.6-0.1v1c-0.4-0.1-0.8-0.1-1.6-0.1h-8.7    c-0.7,0-1.1,0-1.6,0.1v-1c0.4,0.1,0.8,0.1,1.6,0.1h3.8V313h-4.5c-0.9,0-1.4,0-1.8,0.1v-1c0.4,0.1,0.9,0.1,1.8,0.1h4.4    c0-0.6,0-0.9-0.1-1.3h1.2c-0.1,0.4-0.1,0.7-0.1,1.3H125.6z M115.3,322.7c0-0.5,0-0.8-0.1-1.3c0.4,0,0.8,0.1,1.5,0.1h7.5    c0.7,0,1.1,0,1.5-0.1c0,0.4-0.1,0.7-0.1,1.3v1.3c0,0.6,0,0.9,0.1,1.4h-1.1v-0.7h-8.4v0.7h-1.1c0.1-0.4,0.1-0.8,0.1-1.4V322.7z     M116.3,323.9h8.4v-1.6h-8.4V323.9z M116.5,317.8h8v-1.2h-8V317.8z M118.5,318.5c0,0,0,0,0.1,0.1c0.1,0.3,0.3,0.7,0.4,1.2h2.9    c0,0,0,0,0.1-0.1c0.2-0.3,0.4-0.8,0.5-1.2H118.5z" />
<path class="st3" d="M135.4,322.3c-0.6-1-0.7-1.2-1.8-2.6c-1,2.2-2,3.5-4,5.1c-0.3-0.5-0.3-0.5-0.7-0.9c1.2-0.9,1.8-1.6,2.6-2.6    c0.6-0.8,1-1.6,1.4-2.5c-0.8-0.9-2-2.2-3.1-3.3l0.7-0.7c0.8,0.8,1.9,1.9,2.8,3c0.5-1.6,0.7-2.6,1-4.7h-3.5c-0.6,0-1,0-1.4,0.1    v-1.1c0.4,0.1,0.8,0.1,1.4,0.1h3.4c0.5,0,0.8,0,1.2,0c-0.1,0.4-0.1,0.5-0.1,1.1c-0.3,2-0.7,3.7-1.2,5.4c0.8,1,1.6,2,2.1,2.8    L135.4,322.3z M139.8,315.6c0,0.3,0,0.4,0,0.8c0,3.6,1.5,6.2,4.5,8.1c-0.3,0.3-0.5,0.6-0.8,1c-1.6-1.3-2.3-2-3-3.1    c-0.7-1.1-1-2-1.2-3.2c-0.2,1.4-0.5,2.4-1.2,3.5c-0.7,1.2-1.4,1.9-2.8,2.8c-0.3-0.3-0.4-0.5-0.8-0.8c1.5-1,2.4-1.9,3.1-3.2    c0.7-1.3,1.1-3.1,1.1-5c0-0.4,0-0.6-0.1-0.9H139.8z M137.8,314.3c-0.4,1.2-0.8,2-1.7,3.3c-0.2-0.3-0.4-0.5-0.8-0.7    c1.1-1.4,1.7-2.9,2.1-4.7c0.1-0.6,0.2-1.1,0.2-1.5l1.1,0.2c-0.1,0.2-0.1,0.4-0.4,1.8c0,0.2-0.1,0.4-0.2,0.6h3.7c0.7,0,1,0,1.4-0.1    l0.5,0.6c-0.1,0.2-0.1,0.2-0.5,1.3c-0.4,1-0.8,1.9-1.3,2.8c-0.3-0.3-0.4-0.3-0.9-0.5c0.7-1.1,1.1-1.9,1.5-3.3H137.8z" />
<path class="st3" d="M146.1,313.3c0-0.7,0-1.2-0.1-1.7c0.6,0.1,1,0.1,1.9,0.1h9.4c0.9,0,1.3,0,1.8-0.1c0,0.5-0.1,1-0.1,1.7v10.5    c0,1-0.3,1.2-1.9,1.2c-0.6,0-1.1,0-2.1-0.1c0-0.4-0.1-0.7-0.3-1c1,0.2,1.7,0.2,2.5,0.2c0.7,0,0.8,0,0.8-0.4v-11.1h-11v10.9    c0,0.9,0,1.4,0.1,1.9H146c0.1-0.6,0.1-1.1,0.1-1.9V313.3z M152.3,321.3c-0.5-0.9-0.7-1.1-1.4-2.2c-0.6,1.7-1.3,2.9-2.7,4.3    c-0.3-0.3-0.5-0.5-0.8-0.7c1.5-1.3,2.2-2.5,2.8-4.5c-1.1-1.4-1.4-1.7-2.4-2.6l0.7-0.6c0.8,0.8,0.8,0.8,1.9,2.1    c0.3-1.2,0.4-2.1,0.5-3.6l1,0.1c-0.3,2.3-0.4,3-0.7,4.4c1,1.3,1.1,1.4,1.8,2.5L152.3,321.3z M156.8,321.4    c-0.5-0.8-0.8-1.4-1.4-2.1c-0.2,0.7-0.6,1.4-1,2.1c-0.4,0.7-0.8,1.2-1.6,2.1c-0.4-0.4-0.5-0.5-0.9-0.7c0.6-0.5,0.8-0.8,1.2-1.4    c0.7-1,1-1.8,1.4-3.1c-0.7-0.9-1.5-1.8-2.5-2.8l0.7-0.6c0.9,0.9,1.2,1.3,2.1,2.3c0.2-1.1,0.4-1.9,0.5-3.6l1.1,0.1    c-0.3,2.2-0.5,3.3-0.8,4.4c0.1,0.1,0.1,0.1,0.2,0.3c0.5,0.7,0.9,1.2,1.6,2.3L156.8,321.4z" />
<path class="st3" d="M162.6,312.8c-0.7,0-0.9,0-1.3,0.1v-1.1c0.4,0.1,0.8,0.1,1.4,0.1h2.4c0.6,0,0.9,0,1.3-0.1v1.1    c-0.4,0-0.7-0.1-1.3-0.1h-0.8v3.6h0.6c0.5,0,0.7,0,1.1-0.1v1c-0.4,0-0.6-0.1-1.1-0.1h-0.6v3.6c0.6-0.3,1.2-0.6,2-1.1l0,1    c-1.2,0.8-2.3,1.3-3.8,2c-0.5,0.2-0.7,0.3-1,0.5l-0.4-1.1c0.7-0.2,1.2-0.4,2.2-0.8v-4h-0.8c-0.4,0-0.7,0-1.1,0.1v-1    c0.4,0.1,0.6,0.1,1.1,0.1h0.8v-3.6H162.6z M169.7,320.9c-1.3,0.9-2.1,1.5-3.2,2.1c-0.2,0.1-0.5,0.3-0.6,0.4l-0.6-1    c1-0.4,2.4-1.2,4-2.4L169.7,320.9z M167.7,314.7c-0.6,0-1.1,0-1.5,0.1v-1.1c0.4,0.1,0.9,0.1,1.6,0.1h2.4v-1.2c0-0.6,0-1.1-0.1-1.6    h1.2c-0.1,0.5-0.1,1-0.1,1.5v1.3h3c0.6,0,1.1,0,1.6-0.1v1.1c-0.5-0.1-0.9-0.1-1.5-0.1h-3.1c0,0.9,0.8,3.2,1.6,4.6    c0.9,1.7,2,2.8,3.4,3.8c-0.3,0.3-0.5,0.5-0.7,1c-1.2-0.9-2-1.8-2.8-3.1c-0.9-1.4-1.3-2.5-1.6-4.3c0.1,1.3,0.1,2.5,0.1,3.2v4.3    c0,0.9-0.3,1.1-1.7,1.1c-0.4,0-0.8,0-1.5-0.1c-0.1-0.4-0.1-0.7-0.3-1c0.8,0.1,1.4,0.2,1.9,0.2s0.6-0.1,0.6-0.4v-9.2H167.7z     M168.2,319c-0.5-1.3-0.9-2-1.7-2.9l0.8-0.4c0.8,1.1,1.2,1.7,1.7,2.9L168.2,319z M174.2,313.4c-0.8-0.8-1.4-1.2-2.3-1.7l0.7-0.6    c0.9,0.6,1.5,1,2.3,1.6L174.2,313.4z M172.6,318.4c0.8-0.9,1.2-1.7,1.8-2.9l0.9,0.6c-0.6,1.1-1.1,1.9-1.9,2.9L172.6,318.4z" />
<path class="st3" d="M180.3,313c-0.9,0.2-1.2,0.3-2.4,0.5c-0.1-0.3-0.2-0.6-0.4-0.9c1.9-0.3,3.5-0.6,4.9-1.2    c0.4-0.2,0.7-0.3,1-0.5l0.7,0.8c-0.1,0-0.1,0-0.4,0.1c-0.8,0.3-1.6,0.6-2.3,0.8v2.4h1.2c0.7,0,1,0,1.4-0.1v1.1    c-0.4-0.1-0.8-0.1-1.4-0.1h-1.2v0.5c1.5,1.5,1.9,1.9,2.6,3l-0.8,0.7c-0.6-1-1.2-1.9-1.8-2.7v5.8c0,1,0,1.5,0.1,2h-1.2    c0.1-0.5,0.1-1,0.1-2v-3.3c0-0.6,0-1.8,0.1-2.6c-0.4,1.2-0.7,2-1.3,3c-0.4,0.7-0.8,1.2-1.5,2c-0.2-0.4-0.4-0.6-0.7-0.9    c1.5-1.4,2.5-3.2,3.2-5.4H179c-0.6,0-1,0-1.5,0.1v-1.1c0.4,0.1,0.8,0.1,1.5,0.1h1.4V313z M185.6,324.8h-1.1c0-0.5,0.1-1,0.1-1.9    v-8.9c0-0.7,0-1.2-0.1-1.7c0.5,0.1,0.8,0.1,1.5,0.1h3.5c0.7,0,1.1,0,1.5-0.1c-0.1,0.4-0.1,0.9-0.1,1.7v8.8c0,0.8,0,1.5,0.1,2h-1.1    v-1.1h-4.3V324.8z M185.6,322.7h4.3v-9.3h-4.3V322.7z" />
<path class="st3" d="M196.2,313.9c0.5,0,0.7,0,1.1-0.1v1c-0.3,0-0.6-0.1-1-0.1h-0.1v0.6c0.8,1,0.8,1.1,1.6,2.5l-0.7,0.6    c-0.3-0.7-0.4-0.9-0.8-1.7v6.8c0,0.8,0,1.4,0.1,1.9h-1.1c0.1-0.5,0.1-1.1,0.1-1.9v-4.4c0-0.6,0-1,0.1-2.5c-0.4,1.8-0.9,3-1.7,4.4    c-0.2-0.4-0.4-0.6-0.6-0.9c1-1.4,1.8-3.5,2.1-5.5h-0.5c-0.5,0-0.8,0-1.1,0.1v-1c0.3,0,0.6,0.1,1.1,0.1h0.6v-1.5    c0-0.8,0-1.3-0.1-1.6h1.1c-0.1,0.4-0.1,0.9-0.1,1.6L196.2,313.9L196.2,313.9z M200.9,312.3h-1.5c-0.7,0-0.9,0-1.5,0.1v-1    c0.4,0,1,0.1,1.4,0.1h1.3c0.5,0,0.9,0,1.3-0.1c-0.1,0.3-0.2,0.9-0.3,1.8l-0.1,0.9h0.3c0.5,0,0.8,0,1.1-0.1v1c-0.3,0-0.5,0-0.9-0.1    v7.3l0.7-0.2l0,0.8l-0.7,0.2v0.7c0,0.8,0,1.2,0.1,1.6H201c0.1-0.4,0.1-1,0.1-1.6v-0.5c-0.8,0.2-1.4,0.3-2,0.4    c-0.4,0.1-0.7,0.1-0.8,0.1c-0.1,0-0.1,0-0.3,0.1c-0.2,0-0.2,0-0.5,0.1c-0.1,0-0.1,0-0.1,0l-0.2-1c0.1,0,0.1,0,0.3,0    c0.2,0,0.2,0,0.8-0.1v-8c-0.1,0-0.1,0-0.3,0c-0.2,0-0.4,0-0.5,0v-1c0.3,0,0.6,0.1,1.1,0.1h2.1L200.9,312.3z M199.2,315v1.8h2V315    H199.2z M199.2,317.6v2h2v-2H199.2z M199.2,320.5v2.3c1.1-0.2,1.2-0.2,2-0.4v-2H199.2z M207.9,314.7c-0.3,0-0.3,0-0.9-0.1    c0,2.8-0.4,4.9-1.3,6.7c0.6,1.1,1.4,2,2.4,2.9c-0.3,0.3-0.4,0.6-0.6,0.9c-1.1-1.1-1.6-1.7-2.4-2.9c-0.7,1.2-1.3,2-2.4,3    c-0.2-0.4-0.3-0.4-0.6-0.8c1.2-1,1.9-1.8,2.5-3.1c-0.6-1.3-1-2.6-1.3-4.2c-0.2,0.5-0.3,0.7-0.7,1.2c-0.2-0.4-0.3-0.5-0.6-0.8    c0.8-1.1,1.2-2,1.6-3.6c0.3-1.1,0.4-2.1,0.4-2.9l1,0.2c-0.1,0.2-0.1,0.3-0.3,1.3c-0.1,0.4-0.2,0.8-0.3,1.2h2c0.7,0,1,0,1.4-0.1    V314.7z M204.3,314.6c-0.1,0.3-0.2,0.5-0.3,0.9c0.2,1.9,0.5,3.2,1.1,4.6c0.6-1.6,0.9-3.2,0.9-5.6H204.3z" />
<path class="st3" d="M212.3,323.6c0,0.8,0,1.4,0.1,1.9h-1.1c0.1-0.5,0.1-1,0.1-1.9v-4.4c0-0.5,0-1.4,0.1-2.6    c-0.6,2.1-1.1,3.3-1.9,4.5c-0.2-0.4-0.4-0.5-0.7-0.8c0.8-1,1.3-2,1.8-3.4c0.2-0.7,0.5-1.5,0.6-2h-0.8c-0.4,0-0.9,0-1.1,0.1v-1    c0.3,0,0.6,0.1,1.2,0.1h0.9v-1.5c0-0.9,0-1.3-0.1-1.6h1.1c-0.1,0.4-0.1,0.8-0.1,1.6v1.5h0.5c0.5,0,0.7,0,1-0.1v1c-0.3,0-0.6,0-1,0    h-0.5v0.8c0.5,0.5,1.4,1.6,1.9,2.3l-0.7,0.7c-0.3-0.6-0.7-1.2-1.2-1.9V323.6z M219,319c0,0.3,0,0.4-0.1,0.9    c-0.1,1.9-0.2,2.6-0.9,3.3c-0.6,0.7-1.4,1.2-2.7,1.6c-0.5,0.2-0.8,0.2-1.8,0.5c-0.2-0.5-0.3-0.6-0.6-0.9c2.3-0.4,3.7-0.9,4.3-1.7    c0.5-0.7,0.7-1.3,0.7-2.7c0-0.4,0-0.7,0-1H219z M214.2,316.4c0.1-0.5,0.1-1,0.1-1.6v-2.1c0-0.6,0-1-0.1-1.5h1.1    c-0.1,0.4-0.1,0.8-0.1,1.5v2.1c0,0.6,0,1.1,0.1,1.6H214.2z M214.7,322.6c0-0.4,0-0.8,0-1.4v-2.2c0-0.6,0-1.1-0.1-1.5    c0.4,0,0.7,0,1.4,0h4.9c0.7,0,1.1,0,1.4-0.1c0,0.4,0,0.9,0,1.5v2.1c0,0.7,0,1.1,0,1.5h-1.1c0-0.4,0.1-0.9,0.1-1.5v-2.7h-5.6v2.8    c0,0.7,0,1.1,0,1.4H214.7z M217.5,310.9c-0.1,0.4-0.1,0.8-0.1,1.5v2.8c0,0.6,0,1.1,0.1,1.6h-1.1c0.1-0.5,0.1-1,0.1-1.6v-2.8    c0-0.6,0-1-0.1-1.5H217.5z M219.7,313.3c-0.5,0.9-0.7,1.2-1.2,1.9c-0.2-0.3-0.4-0.5-0.7-0.6c0.5-0.6,0.8-1,1.2-1.8    c0.4-0.8,0.6-1.5,0.6-2l1,0.2c-0.1,0.2-0.1,0.3-0.4,1.2c0,0,0,0.1-0.1,0.2h2.3c0.6,0,0.9,0,1.3-0.1v1.1c-0.4-0.1-0.8-0.1-1.3-0.1    H219.7z M220,322.3c0,0.3-0.1,0.7-0.1,1v0.6c0,0.4,0.2,0.5,1.3,0.5c1.2,0,1.4,0,1.6-0.3c0.1-0.2,0.2-0.6,0.2-1.3    c0.3,0.2,0.5,0.3,0.9,0.4c-0.1,0.9-0.2,1.3-0.4,1.6c-0.3,0.4-0.7,0.5-2.3,0.5c-1.8,0-2.2-0.2-2.2-1v-0.9c0-0.5,0-0.8-0.1-1H220z     M220.4,314.3c1,0.4,1.4,0.7,2.4,1.4l-0.5,0.9c-0.8-0.7-1.4-1.1-2.4-1.6L220.4,314.3z" />
<path class="st3" d="M226.6,312.8c-0.7,0-0.9,0-1.3,0.1v-1.1c0.4,0.1,0.8,0.1,1.4,0.1h2.4c0.6,0,0.9,0,1.3-0.1v1.1    c-0.4,0-0.7-0.1-1.3-0.1h-0.8v3.6h0.6c0.5,0,0.7,0,1.1-0.1v1c-0.4,0-0.6-0.1-1.1-0.1h-0.6v3.6c0.6-0.3,1.2-0.6,2-1.1l0,1    c-1.2,0.8-2.3,1.3-3.8,2c-0.5,0.2-0.7,0.3-1,0.5l-0.4-1.1c0.7-0.2,1.2-0.4,2.2-0.8v-4h-0.8c-0.4,0-0.7,0-1.1,0.1v-1    c0.4,0.1,0.6,0.1,1.1,0.1h0.8v-3.6H226.6z M233.7,320.9c-1.3,0.9-2.1,1.5-3.2,2.1c-0.2,0.1-0.5,0.3-0.6,0.4l-0.6-1    c1-0.4,2.4-1.2,4-2.4L233.7,320.9z M231.7,314.7c-0.6,0-1.1,0-1.5,0.1v-1.1c0.4,0.1,0.9,0.1,1.6,0.1h2.4v-1.2c0-0.6,0-1.1-0.1-1.6    h1.2c-0.1,0.5-0.1,1-0.1,1.5v1.3h3c0.6,0,1.1,0,1.6-0.1v1.1c-0.5-0.1-0.9-0.1-1.5-0.1h-3.1c0,0.9,0.8,3.2,1.6,4.6    c0.9,1.7,2,2.8,3.4,3.8c-0.3,0.3-0.5,0.5-0.7,1c-1.2-0.9-2-1.8-2.8-3.1c-0.9-1.4-1.3-2.5-1.6-4.3c0.1,1.3,0.1,2.5,0.1,3.2v4.3    c0,0.9-0.3,1.1-1.7,1.1c-0.4,0-0.8,0-1.5-0.1c-0.1-0.4-0.1-0.7-0.3-1c0.8,0.1,1.4,0.2,1.9,0.2c0.5,0,0.6-0.1,0.6-0.4v-9.2H231.7z     M232.2,319c-0.5-1.3-0.9-2-1.7-2.9l0.8-0.4c0.8,1.1,1.2,1.7,1.7,2.9L232.2,319z M238.2,313.4c-0.8-0.8-1.4-1.2-2.3-1.7l0.7-0.6    c0.9,0.6,1.5,1,2.3,1.6L238.2,313.4z M236.6,318.4c0.8-0.9,1.2-1.7,1.8-2.9l0.9,0.6c-0.6,1.1-1.1,1.9-1.9,2.9L236.6,318.4z" />
</g>
<line class="st6" x1="176.5" x2="176.5" y1="243.8" y2="285.7" />
<polygon class="st5" points="172.1,245.8 176.5,238.2 180.9,245.8  " />
<g>
<path class="st7" d="M49.6,147.1H53c0.8,0,1.2,0,1.7-0.1v1.1c-0.5,0-0.9-0.1-1.7-0.1h-3.3v5.1h4.8c0.8,0,1.3,0,1.8-0.1v1.2    c-0.5-0.1-1-0.1-1.8-0.1H44.1c-0.8,0-1.3,0-1.9,0.1V153c0.5,0.1,1,0.1,1.9,0.1h4.4V148h-3.1c-0.7,0-1.2,0-1.7,0.1V147    c0.4,0.1,0.9,0.1,1.7,0.1h3.1v-4.3h-3.9c-0.8,0-1.3,0-1.8,0.1v-1.2c0.5,0.1,1,0.1,1.8,0.1h9.2c0.8,0,1.4,0,1.9-0.1v1.2    c-0.5-0.1-1-0.1-1.9-0.1h-4.1V147.1z" />
<path class="st7" d="M59.7,148.5c0-0.8,0-1.4,0-2.4c-0.5,0.9-0.8,1.5-1.5,2.3c-0.2-0.4-0.3-0.6-0.6-0.9c1.3-1.4,2.2-3,2.8-5    c0.3-0.8,0.4-1.4,0.4-1.9l1.1,0.3c-0.1,0.2-0.1,0.3-0.2,0.4c-0.5,1.5-0.7,2.1-1.2,3.2v8.5c0,1,0,1.5,0.1,2h-1.1    c0.1-0.5,0.1-1.1,0.1-2V148.5z M67.4,153.3c0,0.7,0,1.2,0.1,1.8h-1.2c0.1-0.5,0.1-1.1,0.1-1.8v-3.4h-2.7c-0.8,0-1.3,0-1.8,0.1    v-1.2c0.5,0.1,1,0.1,1.8,0.1h2.7v-2.2h-1.8c-0.8,0-1.3,0-1.8,0.1v-1.2c0.5,0.1,1,0.1,1.8,0.1h1.8v-2h-2.5c-0.7,0-1.3,0-1.8,0.1    v-1.1c0.5,0.1,1,0.1,1.7,0.1h2.6v-0.4c0-0.8,0-1.2-0.1-1.7h1.2c-0.1,0.5-0.1,0.9-0.1,1.7v0.4h3c0.8,0,1.2,0,1.8-0.1v1.1    c-0.5,0-1.2-0.1-1.8-0.1h-2.9v2h2c0.8,0,1.3,0,1.9-0.1v1.2c-0.5-0.1-1.1-0.1-1.8-0.1h-2v2.2H71c0.5,0,0.9,0,1.2-0.1    c0,0.2,0,0.2-0.1,1.4c-0.3,3.1-0.5,3.5-2.1,3.5c-0.3,0-0.6,0-1.2,0c0-0.4-0.1-0.6-0.2-1c0.8,0.1,1.1,0.1,1.5,0.1    c0.5,0,0.7-0.1,0.8-0.5c0.1-0.3,0.2-1.2,0.3-2.4h-3.7V153.3z" />
</g>
<g>
<path class="st7" d="M95.6,163.4c-0.7,0-1,0-1.4,0.1v-1.1c0.4,0.1,0.9,0.1,1.5,0.1h2.2c-0.1-0.2-0.1-0.2-0.2-0.5    c-0.4-0.9-0.6-1.3-0.9-1.9l0.9-0.4c0.5,1,0.8,1.6,1.2,2.4l-0.7,0.4h2.4c0.6,0,1,0,1.5-0.1v1.1c-0.4,0-0.8-0.1-1.4-0.1h-0.1    c-0.1,1.6-0.2,1.7-0.4,2.6c-0.2,1.1-0.5,1.9-0.9,2.8c0.7,0.9,1.5,1.9,2.3,3.1l-0.8,0.8c-0.5-0.8-1.3-2.1-2-2.9    c-0.9,1.5-2.1,2.8-3.9,4c-0.2-0.4-0.4-0.6-0.8-0.8c1.3-0.9,2.1-1.5,2.9-2.5c0.4-0.5,0.8-1.1,1.1-1.6c-1.4-1.6-2-2.3-3.3-3.5    l0.7-0.7c0.8,0.7,1.9,1.9,3,3.2c0.6-1.4,0.8-2.4,1-4.5H95.6z M104.2,160.8c-0.1,0.5-0.1,0.9-0.1,1.8v6.2c0,1.1,0,1.4,0.1,1.9H103    c0.1-0.4,0.1-0.8,0.1-1.9v-6.2c0-0.9,0-1.3-0.1-1.8H104.2z M107.8,159.9c-0.1,0.5-0.1,1.1-0.1,2v10.5c0,1.2-0.4,1.4-1.9,1.4    c-0.5,0-1.1,0-1.6-0.1c-0.1-0.4-0.2-0.7-0.3-1.1c0.9,0.1,1.5,0.2,2.1,0.2c0.6,0,0.8-0.1,0.8-0.5v-10.5c0-0.9,0-1.5-0.1-2H107.8z" />
<path class="st7" d="M111.7,167.5c0-0.8,0-1.4,0-2.4c-0.5,0.9-0.8,1.5-1.5,2.3c-0.2-0.4-0.3-0.6-0.6-0.9c1.3-1.4,2.2-3,2.8-5    c0.3-0.8,0.4-1.4,0.4-1.9l1.1,0.3c-0.1,0.2-0.1,0.3-0.2,0.4c-0.5,1.5-0.7,2.1-1.2,3.2v8.5c0,1,0,1.5,0.1,2h-1.1    c0.1-0.5,0.1-1.1,0.1-2V167.5z M119.4,172.3c0,0.7,0,1.2,0.1,1.8h-1.2c0.1-0.5,0.1-1.1,0.1-1.8v-3.4h-2.7c-0.8,0-1.3,0-1.8,0.1    v-1.2c0.5,0.1,1,0.1,1.8,0.1h2.7v-2.2h-1.8c-0.8,0-1.3,0-1.8,0.1v-1.2c0.5,0.1,1,0.1,1.8,0.1h1.8v-2h-2.5c-0.7,0-1.3,0-1.8,0.1    v-1.1c0.5,0.1,1,0.1,1.7,0.1h2.6v-0.4c0-0.8,0-1.2-0.1-1.7h1.2c-0.1,0.5-0.1,0.9-0.1,1.7v0.4h3c0.8,0,1.2,0,1.8-0.1v1.1    c-0.5,0-1.2-0.1-1.8-0.1h-2.9v2h2c0.8,0,1.3,0,1.9-0.1v1.2c-0.5-0.1-1.1-0.1-1.8-0.1h-2v2.2h3.6c0.5,0,0.9,0,1.2-0.1    c0,0.2,0,0.2-0.1,1.4c-0.3,3.1-0.5,3.5-2.1,3.5c-0.3,0-0.6,0-1.2,0c0-0.4-0.1-0.6-0.2-1c0.8,0.1,1.1,0.1,1.5,0.1    c0.5,0,0.7-0.1,0.8-0.5c0.1-0.3,0.2-1.2,0.3-2.4h-3.7V172.3z" />
</g>
<g>
<path class="st7" d="M83.8,106.5c0.6,0,1,0,1.2,0c0,0.3,0,0.3-0.1,1.2c0,1.9-0.3,3.7-0.6,4.4c-0.3,0.7-0.7,0.9-1.8,0.9    c-0.5,0-0.9,0-1.6-0.1c0-0.5-0.1-0.7-0.2-1.1c0.8,0.1,1.3,0.2,1.9,0.2c0.5,0,0.7-0.1,0.9-0.7c0.2-0.7,0.3-2.1,0.4-3.8h-2.2    c-0.4,0-0.8,0-1.1,0c0.3-1.5,0.5-3,0.5-4.5c0.4,0,0.6,0.1,1.5,0.1H84v-2.6h-1.9c-0.6,0-1.1,0-1.5,0.1v-1.1    c0.3,0.1,0.8,0.1,1.5,0.1H84c0.4,0,0.7,0,1,0c0,0.3,0,0.7,0,1.1v2.1c0,0.5,0,0.8,0,1.2c-0.3,0-0.3,0-0.4,0h-0.1l-0.6,0h-1.8    c-0.1,1.1-0.2,1.8-0.3,2.6H83.8z M86.3,106c-0.6,0-0.8,0-1.3,0.1v-1c0.4,0,0.8,0.1,1.3,0.1H87v-4.5c0-0.8,0-1.2-0.1-1.7h1.2    c-0.1,0.5-0.1,0.9-0.1,1.7v4.5h5c0.7,0,1.2,0,1.6-0.1v1.1c-0.5-0.1-0.9-0.1-1.6-0.1h-2c0.1,0.5,0.3,1.1,0.5,1.7    c0.3,1,0.6,1.5,1.2,2.2c0.7,0.9,1.2,1.4,2.3,2.1c-0.4,0.4-0.4,0.5-0.8,1c-0.1-0.1-0.1-0.1-0.6-0.5c-1-0.8-1.9-1.9-2.5-3.1    c-0.5-1-0.8-2-1.1-3.3h-2v5.7c1.6-0.5,1.6-0.5,2.9-1.1l0,0.9c-0.7,0.2-0.9,0.3-1.7,0.7c-0.5,0.2-0.9,0.4-1.1,0.4    c-0.6,0.3-0.7,0.3-1.1,0.4l-0.4-0.8c0.3-0.2,0.4-0.4,0.4-0.9V106H86.3z M93.5,100.2c-0.6,0.7-0.9,1-1.3,1.4    c-0.7,0.6-1.7,1.5-2.4,2c-0.3-0.3-0.5-0.5-0.8-0.6c1.5-1,2.8-2.2,3.6-3.4L93.5,100.2z" />
<path class="st7" d="M98,106.5c0-0.8,0-1.4,0-2.4c-0.5,0.9-0.8,1.5-1.5,2.3c-0.2-0.4-0.3-0.6-0.6-0.9c1.3-1.4,2.2-3,2.8-5    c0.3-0.8,0.4-1.4,0.4-1.9l1.1,0.3c-0.1,0.2-0.1,0.3-0.2,0.4c-0.5,1.5-0.7,2.1-1.2,3.2v8.5c0,1,0,1.5,0.1,2h-1.1    c0.1-0.5,0.1-1.1,0.1-2V106.5z M105.7,111.3c0,0.7,0,1.2,0.1,1.8h-1.2c0.1-0.5,0.1-1.1,0.1-1.8v-3.4H102c-0.8,0-1.3,0-1.8,0.1    v-1.2c0.5,0.1,1,0.1,1.8,0.1h2.7v-2.2h-1.8c-0.8,0-1.3,0-1.8,0.1v-1.2c0.5,0.1,1,0.1,1.8,0.1h1.8v-2h-2.5c-0.7,0-1.3,0-1.8,0.1    v-1.1c0.5,0.1,1,0.1,1.7,0.1h2.6v-0.4c0-0.8,0-1.2-0.1-1.7h1.2c-0.1,0.5-0.1,0.9-0.1,1.7v0.4h3c0.8,0,1.2,0,1.8-0.1v1.1    c-0.5,0-1.2-0.1-1.8-0.1h-2.9v2h2c0.8,0,1.3,0,1.9-0.1v1.2c-0.5-0.1-1.1-0.1-1.8-0.1h-2v2.2h3.6c0.5,0,0.9,0,1.2-0.1    c0,0.2,0,0.2-0.1,1.4c-0.3,3.1-0.5,3.5-2.1,3.5c-0.3,0-0.6,0-1.2,0c0-0.4-0.1-0.6-0.2-1c0.8,0.1,1.1,0.1,1.5,0.1    c0.5,0,0.7-0.1,0.8-0.5c0.1-0.3,0.2-1.2,0.3-2.4h-3.7V111.3z" />
</g>
<g class="st8">
<path class="st7" d="M234.8,106.5c0.6,0,1,0,1.2,0c0,0.3,0,0.3-0.1,1.2c0,1.9-0.3,3.7-0.6,4.4c-0.3,0.7-0.7,0.9-1.8,0.9    c-0.5,0-0.9,0-1.6-0.1c0-0.5-0.1-0.7-0.2-1.1c0.8,0.1,1.3,0.2,1.9,0.2c0.5,0,0.7-0.1,0.9-0.7c0.2-0.7,0.3-2.1,0.4-3.8h-2.2    c-0.4,0-0.8,0-1.1,0c0.3-1.5,0.5-3,0.5-4.5c0.4,0,0.6,0.1,1.5,0.1h1.3v-2.6h-1.9c-0.6,0-1.1,0-1.5,0.1v-1.1    c0.3,0.1,0.8,0.1,1.5,0.1h1.9c0.4,0,0.7,0,1,0c0,0.3,0,0.7,0,1.1v2.1c0,0.5,0,0.8,0,1.2c-0.3,0-0.3,0-0.4,0h-0.1l-0.6,0h-1.8    c-0.1,1.1-0.2,1.8-0.3,2.6H234.8z M237.3,106c-0.6,0-0.8,0-1.3,0.1v-1c0.4,0,0.8,0.1,1.3,0.1h0.7v-4.5c0-0.8,0-1.2-0.1-1.7h1.2    c-0.1,0.5-0.1,0.9-0.1,1.7v4.5h5c0.7,0,1.2,0,1.6-0.1v1.1c-0.5-0.1-0.9-0.1-1.6-0.1h-2c0.1,0.5,0.3,1.1,0.5,1.7    c0.3,1,0.6,1.5,1.2,2.2c0.7,0.9,1.2,1.4,2.3,2.1c-0.4,0.4-0.4,0.5-0.8,1c-0.1-0.1-0.1-0.1-0.6-0.5c-1-0.8-1.9-1.9-2.5-3.1    c-0.5-1-0.8-2-1.1-3.3h-2v5.7c1.6-0.5,1.6-0.5,2.9-1.1l0,0.9c-0.7,0.2-0.9,0.3-1.7,0.7c-0.5,0.2-0.9,0.4-1.1,0.4    c-0.6,0.3-0.7,0.3-1.1,0.4l-0.4-0.8c0.3-0.2,0.4-0.4,0.4-0.9V106H237.3z M244.5,100.2c-0.6,0.7-0.9,1-1.3,1.4    c-0.7,0.6-1.7,1.5-2.4,2c-0.3-0.3-0.5-0.5-0.8-0.6c1.5-1,2.8-2.2,3.6-3.4L244.5,100.2z" />
<path class="st7" d="M253.9,100.5c-2,0.2-2.9,0.2-4.8,0.2c-0.1-0.4-0.2-0.6-0.4-0.9c0.6,0,1.1,0,1.3,0c3.6,0,7.3-0.4,9.3-1.1    l0.7,0.9c-0.1,0-0.1,0-0.2,0c-0.2,0-0.2,0-0.3,0c-0.2,0-0.6,0.1-1.3,0.2c-1,0.2-2,0.3-3.3,0.4v1.6h4.7c0.8,0,1.4,0,1.8-0.1v1.1    c-0.5-0.1-1-0.1-1.8-0.1h-3.8c1.3,1.2,3.6,2.3,6,2.8c-0.3,0.3-0.4,0.5-0.6,0.9c-1.5-0.4-2.4-0.8-3.5-1.4c-1.3-0.7-2.1-1.3-2.9-2.2    c0,0.4,0.1,0.7,0.1,0.9v0.6c0,0.5,0,0.8,0.1,1.2h-1.1c0.1-0.3,0.1-0.7,0.1-1.2V104c0-0.2,0-0.5,0.1-0.9c-0.7,0.8-1.5,1.5-2.6,2.1    c-1.1,0.6-2.2,1.1-3.5,1.5c-0.2-0.4-0.3-0.6-0.6-0.9c2.5-0.7,4.5-1.7,5.7-2.9h-3.7c-0.7,0-1.3,0-1.7,0.1V102    c0.4,0.1,1,0.1,1.8,0.1h4.5V100.5z M251.2,107.2c-0.7,0-1.1,0-1.5,0.1v-1c0.4,0.1,0.8,0.1,1.6,0.1h4.5c0.8,0,1.2,0,1.6-0.1    c-0.1,0.2-0.1,0.2-0.2,0.8c0,0.1-0.1,0.2-0.1,0.5c-0.1,0.2-0.1,0.5-0.3,0.8h2.3c0.4,0,0.8,0,1.2,0c0,0.2,0,0.2-0.1,0.4    c-0.2,1.5-0.4,2.7-0.6,3.3c-0.2,0.7-0.6,0.9-1.6,0.9c-0.6,0-1.3,0-2.1-0.1c-0.1-0.5-0.1-0.7-0.3-1.1c0.9,0.2,1.6,0.3,2.4,0.3    c0.4,0,0.6-0.1,0.8-0.4c0.2-0.4,0.3-1.3,0.5-2.4h-2.1c-0.9,0-1.1,0-1.5,0.1c0.3-0.6,0.4-1,0.6-2.1h-2.7c-0.3,1.8-0.6,2.5-1.4,3.6    c-0.4,0.6-1.2,1.2-2,1.7c-0.4,0.2-0.6,0.4-1.5,0.7c-0.3-0.5-0.4-0.6-0.7-0.9c2.8-1,4.2-2.5,4.5-5.1H251.2z" />
<path class="st7" d="M265.1,108.1c-0.7,0-1.2,0-1.8,0.1v-1.1c0.4,0.1,0.9,0.1,1.7,0.1h0.4V105c0-0.7,0-1.1-0.1-1.5    c0.4,0,0.8,0.1,1.6,0.1h3c0-0.7,0-1-0.1-1.4h1.2c-0.1,0.4-0.1,0.8-0.1,1.2c0,0.1,0,0.1,0,0.2h3.2c0.8,0,1.1,0,1.6-0.1    c-0.1,0.4-0.1,0.8-0.1,1.5v2.2h0.4c0.9,0,1.3,0,1.7-0.1v1.1c-0.6-0.1-1.1-0.1-1.8-0.1H271c0.7,1.1,1.2,1.6,2.2,2.3    c1.2,0.8,2.5,1.2,4.4,1.7c-0.3,0.4-0.4,0.6-0.6,1c-3.5-0.9-5.7-2.4-6.9-4.7c-0.5,1.3-1.3,2.3-2.4,3.1c-1.1,0.7-2.1,1.2-3.9,1.5    c-0.2-0.4-0.3-0.8-0.6-1c1.9-0.3,3-0.7,4.1-1.5c0.9-0.6,1.5-1.4,1.9-2.5H265.1z M272.2,100.3V100c0-0.4,0-0.7-0.1-1.1h1.2    c-0.1,0.4-0.1,0.7-0.1,1.1v0.3h2.5c0.8,0,1.3,0,1.8-0.1v1.1c-0.5-0.1-1-0.1-1.8-0.1h-2.5v0.5c0,0.4,0,0.7,0.1,1.1h-1.1    c0-0.3,0.1-0.6,0.1-1v-0.5h-3.8v0.5c0,0.4,0,0.7,0.1,1.1h-1.1c0-0.4,0.1-0.7,0.1-1v-0.5h-2.3c-0.8,0-1.3,0-1.8,0.1v-1.1    c0.4,0.1,1,0.1,1.8,0.1h2.3V100c0-0.4,0-0.8-0.1-1.1h1.2c-0.1,0.4-0.1,0.7-0.1,1.1v0.3H272.2z M269.5,107.2    c0.1-0.7,0.2-1.3,0.3-2.7h-3.4v2.7H269.5z M274.5,107.2v-2.7h-3.7c0,1.1-0.1,2-0.3,2.7H274.5z" />
</g>
<g class="st8">
<path class="st7" d="M262.9,145.1h3.3c0.8,0,1.2,0,1.7-0.1v1.1c-0.5,0-0.9-0.1-1.7-0.1h-3.3v5.1h4.8c0.8,0,1.3,0,1.8-0.1v1.2    c-0.5-0.1-1-0.1-1.8-0.1h-10.4c-0.8,0-1.3,0-1.9,0.1V151c0.5,0.1,1,0.1,1.9,0.1h4.4V146h-3.1c-0.7,0-1.2,0-1.7,0.1V145    c0.4,0.1,0.9,0.1,1.7,0.1h3.1v-4.3h-3.9c-0.8,0-1.3,0-1.8,0.1v-1.2c0.5,0.1,1,0.1,1.8,0.1h9.2c0.8,0,1.4,0,1.9-0.1v1.2    c-0.5-0.1-1-0.1-1.9-0.1h-4.1V145.1z" />
<path class="st7" d="M277.9,140.5c-2,0.2-2.9,0.2-4.8,0.2c-0.1-0.4-0.2-0.6-0.4-0.9c0.6,0,1.1,0,1.3,0c3.6,0,7.3-0.4,9.3-1.1    l0.7,0.9c-0.1,0-0.1,0-0.2,0c-0.2,0-0.2,0-0.3,0c-0.2,0-0.6,0.1-1.3,0.2c-1,0.2-2,0.3-3.3,0.4v1.6h4.7c0.8,0,1.4,0,1.8-0.1v1.1    c-0.5-0.1-1-0.1-1.8-0.1h-3.8c1.3,1.2,3.6,2.3,6,2.8c-0.3,0.3-0.4,0.5-0.6,0.9c-1.5-0.4-2.4-0.8-3.5-1.4c-1.3-0.7-2.1-1.3-2.9-2.2    c0,0.4,0.1,0.7,0.1,0.9v0.6c0,0.5,0,0.8,0.1,1.2h-1.1c0.1-0.3,0.1-0.7,0.1-1.2V144c0-0.2,0-0.5,0.1-0.9c-0.7,0.8-1.5,1.5-2.6,2.1    c-1.1,0.6-2.2,1.1-3.5,1.5c-0.2-0.4-0.3-0.6-0.6-0.9c2.5-0.7,4.5-1.7,5.7-2.9h-3.7c-0.7,0-1.3,0-1.7,0.1V142    c0.4,0.1,1,0.1,1.8,0.1h4.5V140.5z M275.2,147.2c-0.7,0-1.1,0-1.5,0.1v-1c0.4,0.1,0.8,0.1,1.6,0.1h4.5c0.8,0,1.2,0,1.6-0.1    c-0.1,0.2-0.1,0.2-0.2,0.8c0,0.1-0.1,0.2-0.1,0.5c-0.1,0.2-0.1,0.5-0.3,0.8h2.3c0.4,0,0.8,0,1.2,0c0,0.2,0,0.2-0.1,0.4    c-0.2,1.5-0.4,2.7-0.6,3.3c-0.2,0.7-0.6,0.9-1.6,0.9c-0.6,0-1.3,0-2.1-0.1c-0.1-0.5-0.1-0.7-0.3-1.1c0.9,0.2,1.6,0.3,2.4,0.3    c0.4,0,0.6-0.1,0.8-0.4c0.2-0.4,0.3-1.3,0.5-2.4h-2.1c-0.9,0-1.1,0-1.5,0.1c0.3-0.6,0.4-1,0.6-2.1h-2.7c-0.3,1.8-0.6,2.5-1.4,3.6    c-0.4,0.6-1.2,1.2-2,1.7c-0.4,0.2-0.6,0.4-1.5,0.7c-0.3-0.5-0.4-0.6-0.7-0.9c2.8-1,4.2-2.5,4.5-5.1H275.2z" />
<path class="st7" d="M289.1,148.1c-0.7,0-1.2,0-1.8,0.1v-1.1c0.4,0.1,0.9,0.1,1.7,0.1h0.4V145c0-0.7,0-1.1-0.1-1.5    c0.4,0,0.8,0.1,1.6,0.1h3c0-0.7,0-1-0.1-1.4h1.2c-0.1,0.4-0.1,0.8-0.1,1.2c0,0.1,0,0.1,0,0.2h3.2c0.8,0,1.1,0,1.6-0.1    c-0.1,0.4-0.1,0.8-0.1,1.5v2.2h0.4c0.9,0,1.3,0,1.7-0.1v1.1c-0.6-0.1-1.1-0.1-1.8-0.1H295c0.7,1.1,1.2,1.6,2.2,2.3    c1.2,0.8,2.5,1.2,4.4,1.7c-0.3,0.4-0.4,0.6-0.6,1c-3.5-0.9-5.7-2.4-6.9-4.7c-0.5,1.3-1.3,2.3-2.4,3.1c-1.1,0.7-2.1,1.2-3.9,1.5    c-0.2-0.4-0.3-0.8-0.6-1c1.9-0.3,3-0.7,4.1-1.5c0.9-0.6,1.5-1.4,1.9-2.5H289.1z M296.2,140.3V140c0-0.4,0-0.7-0.1-1.1h1.2    c-0.1,0.4-0.1,0.7-0.1,1.1v0.3h2.5c0.8,0,1.3,0,1.8-0.1v1.1c-0.5-0.1-1-0.1-1.8-0.1h-2.5v0.5c0,0.4,0,0.7,0.1,1.1h-1.1    c0-0.3,0.1-0.6,0.1-1v-0.5h-3.8v0.5c0,0.4,0,0.7,0.1,1.1h-1.1c0-0.4,0.1-0.7,0.1-1v-0.5h-2.3c-0.8,0-1.3,0-1.8,0.1v-1.1    c0.4,0.1,1,0.1,1.8,0.1h2.3V140c0-0.4,0-0.8-0.1-1.1h1.2c-0.1,0.4-0.1,0.7-0.1,1.1v0.3H296.2z M293.5,147.2    c0.1-0.7,0.2-1.3,0.3-2.7h-3.4v2.7H293.5z M298.5,147.2v-2.7h-3.7c0,1.1-0.1,2-0.3,2.7H298.5z" />
</g>
<g>
<path class="st7" d="M82.6,226.9c0.7,0,1.2,0,1.7-0.1v1.1c-0.5-0.1-0.9-0.1-1.7-0.1h-3.9c1.8,1.7,3.6,2.8,6.2,3.5    c-0.3,0.3-0.4,0.6-0.7,1c-2.6-0.9-4.7-2.3-6.3-4.2c0,0.3,0,0.6,0,0.9v0.7c0,0.7,0,1,0.1,1.4h-1.1c0.1-0.4,0.1-0.7,0.1-1.4v-0.7    c0-0.3,0-0.6,0-0.9c-1.5,1.8-3.6,3.2-6.2,4.2c-0.2-0.4-0.3-0.5-0.6-0.9c2.4-0.8,4.4-2,5.9-3.6h-3.7c-0.7,0-1.2,0-1.7,0.1v-1.1    c0.5,0.1,0.9,0.1,1.7,0.1H77v-0.5c0-0.6,0-0.8-0.1-1.1H78c0,0.3-0.1,0.6-0.1,1.1v0.5H82.6z M78.2,238.2c0,0.6-0.2,1-0.5,1.1    c-0.3,0.1-0.6,0.2-1.3,0.2c-0.5,0-0.9,0-1.8-0.1c-0.1-0.4-0.1-0.7-0.3-1c0.8,0.1,1.5,0.2,2.1,0.2c0.6,0,0.8-0.1,0.8-0.5v-2.5h-4.9    c-0.7,0-1.2,0-1.7,0.1v-1.1c0.4,0.1,0.9,0.1,1.7,0.1h4.9c0-0.4,0-0.5,0-0.9h0.7c0.8-0.4,1.4-0.7,2.3-1.4H75c-0.4,0-0.8,0-1.5,0.1    v-1c0.5,0,1,0.1,1.5,0.1h5c0.6,0,0.9,0,1.2-0.1l0.6,0.7c-0.4,0.3-0.6,0.5-0.7,0.5c-1.1,0.8-1.9,1.3-2.9,1.8v0.2h4.5    c0.7,0,1.2,0,1.7-0.1v1.1c-0.5-0.1-1-0.1-1.7-0.1h-4.5V238.2z" />
<path class="st7" d="M88,233c0-0.8,0-1.4,0-2.4c-0.5,0.9-0.8,1.5-1.5,2.3c-0.2-0.4-0.3-0.6-0.6-0.9c1.3-1.4,2.2-3,2.8-5    c0.3-0.8,0.4-1.4,0.4-1.9l1.1,0.3c-0.1,0.2-0.1,0.3-0.2,0.4c-0.5,1.5-0.7,2.1-1.2,3.2v8.5c0,1,0,1.5,0.1,2h-1.1    c0.1-0.5,0.1-1.1,0.1-2V233z M95.7,237.8c0,0.7,0,1.2,0.1,1.8h-1.2c0.1-0.5,0.1-1.1,0.1-1.8v-3.4H92c-0.8,0-1.3,0-1.8,0.1v-1.2    c0.5,0.1,1,0.1,1.8,0.1h2.7v-2.2h-1.8c-0.8,0-1.3,0-1.8,0.1v-1.2c0.5,0.1,1,0.1,1.8,0.1h1.8v-2h-2.5c-0.7,0-1.3,0-1.8,0.1v-1.1    c0.5,0.1,1,0.1,1.7,0.1h2.6v-0.4c0-0.8,0-1.2-0.1-1.7h1.2c-0.1,0.5-0.1,0.9-0.1,1.7v0.4h3c0.8,0,1.2,0,1.8-0.1v1.1    c-0.5,0-1.2-0.1-1.8-0.1h-2.9v2h2c0.8,0,1.3,0,1.9-0.1v1.2c-0.5-0.1-1.1-0.1-1.8-0.1h-2v2.2h3.6c0.5,0,0.9,0,1.2-0.1    c0,0.2,0,0.2-0.1,1.4c-0.3,3.1-0.5,3.5-2.1,3.5c-0.3,0-0.6,0-1.2,0c0-0.4-0.1-0.6-0.2-1c0.8,0.1,1.1,0.1,1.5,0.1    c0.5,0,0.7-0.1,0.8-0.5c0.1-0.3,0.2-1.2,0.3-2.4h-3.7V237.8z" />
</g>
<g class="st8">
<path class="st7" d="M286.8,198.5c0.6,0,1,0,1.2,0c0,0.3,0,0.3-0.1,1.2c0,1.9-0.3,3.7-0.6,4.4c-0.3,0.7-0.7,0.9-1.8,0.9    c-0.5,0-0.9,0-1.6-0.1c0-0.5-0.1-0.7-0.2-1.1c0.8,0.1,1.3,0.2,1.9,0.2c0.5,0,0.7-0.1,0.9-0.7c0.2-0.7,0.3-2.1,0.4-3.8h-2.2    c-0.4,0-0.8,0-1.1,0c0.3-1.5,0.5-3,0.5-4.5c0.4,0,0.6,0.1,1.5,0.1h1.3v-2.6h-1.9c-0.6,0-1.1,0-1.5,0.1v-1.1    c0.3,0.1,0.8,0.1,1.5,0.1h1.9c0.4,0,0.7,0,1,0c0,0.3,0,0.7,0,1.1v2.1c0,0.5,0,0.8,0,1.2c-0.3,0-0.3,0-0.4,0h-0.1l-0.6,0h-1.8    c-0.1,1.1-0.2,1.8-0.3,2.6H286.8z M289.3,198c-0.6,0-0.8,0-1.3,0.1v-1c0.4,0,0.8,0.1,1.3,0.1h0.7v-4.5c0-0.8,0-1.2-0.1-1.7h1.2    c-0.1,0.5-0.1,0.9-0.1,1.7v4.5h5c0.7,0,1.2,0,1.6-0.1v1.1c-0.5-0.1-0.9-0.1-1.6-0.1h-2c0.1,0.5,0.3,1.1,0.5,1.7    c0.3,1,0.6,1.5,1.2,2.2c0.7,0.9,1.2,1.4,2.3,2.1c-0.4,0.4-0.4,0.5-0.8,1c-0.1-0.1-0.1-0.1-0.6-0.5c-1-0.8-1.9-1.9-2.5-3.1    c-0.5-1-0.8-2-1.1-3.3h-2v5.7c1.6-0.5,1.6-0.5,2.9-1.1l0,0.9c-0.7,0.2-0.9,0.3-1.7,0.7c-0.5,0.2-0.9,0.4-1.1,0.4    c-0.6,0.3-0.7,0.3-1.1,0.4l-0.4-0.8c0.3-0.2,0.4-0.4,0.4-0.9V198H289.3z M296.5,192.2c-0.6,0.7-0.9,1-1.3,1.4    c-0.7,0.6-1.7,1.5-2.4,2c-0.3-0.3-0.5-0.5-0.8-0.6c1.5-1,2.8-2.2,3.6-3.4L296.5,192.2z" />
<path class="st7" d="M313.7,192.6c-0.5-0.1-0.9-0.1-1.6-0.1h-11.2c-0.7,0-1.1,0-1.6,0.1v-1.2c0.6,0.1,0.8,0.1,1.6,0.1h11.2    c0.7,0,1.2,0,1.6-0.1V192.6z M300.3,195.8c0-0.8,0-1.1,0-1.4c0.5,0,0.9,0.1,1.6,0.1h2.4c0.9,0,1.1,0,1.5-0.1c0,0.4,0,0.8,0,1.7    v7.6c0,1-0.3,1.2-1.4,1.2c-0.3,0-0.7,0-1.3-0.1c-0.1-0.5-0.1-0.6-0.2-1c0.6,0.1,1,0.2,1.4,0.2c0.5,0,0.6-0.1,0.6-0.4v-8.3h-3.3v8    c0,0.8,0,1.3,0.1,1.7h-1.2c0.1-0.4,0.1-0.9,0.1-1.7V195.8z M302.5,197.5c0.6,1,0.9,1.6,1.6,3.2l-0.9,0.4c-0.4-1.2-0.8-2-1.6-3.2    L302.5,197.5z M307.3,195.8c0-0.8,0-1.1,0-1.4c0.5,0,0.9,0.1,1.6,0.1h2.4c0.9,0,1.1,0,1.5-0.1c0,0.4,0,0.8,0,1.7v7.6    c0,1-0.3,1.2-1.4,1.2c-0.3,0-0.7,0-1.3-0.1c-0.1-0.5-0.1-0.6-0.2-1c0.6,0.1,1,0.2,1.4,0.2c0.5,0,0.6-0.1,0.6-0.4v-8.3h-3.5v8    c0,0.8,0,1.3,0.1,1.7h-1.2c0.1-0.4,0.1-0.9,0.1-1.7V195.8z M309.6,197.5c0.6,0.9,1.2,1.9,1.8,3.1l-0.9,0.5c-0.5-1.2-1-2.2-1.7-3.2    L309.6,197.5z" />
</g>
<g>
<path class="st7" d="M61.9,193.1h3.3c0.8,0,1.2,0,1.7-0.1v1.1c-0.5,0-0.9-0.1-1.7-0.1h-3.3v5.1h4.8c0.8,0,1.3,0,1.8-0.1v1.2    c-0.5-0.1-1-0.1-1.8-0.1H56.4c-0.8,0-1.3,0-1.9,0.1V199c0.5,0.1,1,0.1,1.9,0.1h4.4V194h-3.1c-0.7,0-1.2,0-1.7,0.1V193    c0.4,0.1,0.9,0.1,1.7,0.1h3.1v-4.3h-3.9c-0.8,0-1.3,0-1.8,0.1v-1.2c0.5,0.1,1,0.1,1.8,0.1h9.2c0.8,0,1.4,0,1.9-0.1v1.2    c-0.5-0.1-1-0.1-1.9-0.1h-4.1V193.1z" />
<path class="st7" d="M72.3,193c-0.8,0-1.3,0-1.8,0.1V192c0.4,0.1,1,0.1,1.8,0.1h5c-0.3-0.6-0.3-0.7-0.7-1.4l0.9-0.4    c0.4,0.7,0.4,0.7,0.9,1.8h4.4c0.8,0,1.4,0,1.8-0.1v1.1c-0.5,0-1-0.1-1.8-0.1h-6.6c-0.1,0.6-0.2,1.4-0.2,1.8h5c0.8,0,1.3,0,1.6-0.1    c0,0.1-0.1,1.2-0.2,2c-0.2,1.9-0.5,3-0.8,3.5c-0.3,0.5-0.8,0.6-2,0.6c-0.6,0-1.2,0-2.1-0.1c0-0.3-0.1-0.7-0.2-1.1    c1,0.2,1.7,0.3,2.5,0.3c0.7,0,0.9-0.1,1.1-0.6c0.2-0.4,0.4-1.6,0.5-3.6h-5.7c-0.3,1.2-0.6,1.7-1.1,2.5c-0.8,1.2-1.7,2-3.4,3    c-0.2-0.4-0.4-0.5-0.8-0.9c1.4-0.8,2.2-1.3,3-2.2c0.9-1.1,1.3-2.2,1.6-4.2c0-0.2,0-0.4,0.1-1H72.3z M74.4,187.9    c0-0.4,0-0.8-0.1-1.1h1.2c0,0.4-0.1,0.7-0.1,1.1v0.4h4v-0.4c0-0.4,0-0.8-0.1-1.1h1.2c0,0.4-0.1,0.7-0.1,1.1v0.4h2.3    c0.8,0,1.4,0,1.8-0.1v1.1c-0.4-0.1-1-0.1-1.8-0.1h-2.3v0.7c0,0.4,0,0.7,0.1,1h-1.1c0-0.3,0.1-0.6,0.1-1v-0.7h-4v0.7    c0,0.4,0,0.7,0.1,1h-1.1c0-0.3,0.1-0.7,0.1-1v-0.7h-2.2c-0.8,0-1.3,0-1.8,0.1v-1.1c0.4,0.1,1,0.1,1.8,0.1h2.2V187.9z" />
</g>
<g class="st8">
<path class="st7" d="M252.6,226.9c0.7,0,1.2,0,1.7-0.1v1.1c-0.5-0.1-0.9-0.1-1.7-0.1h-3.9c1.8,1.7,3.6,2.8,6.2,3.5    c-0.3,0.3-0.4,0.6-0.7,1c-2.6-0.9-4.7-2.3-6.3-4.2c0,0.3,0,0.6,0,0.9v0.7c0,0.7,0,1,0.1,1.4h-1.1c0.1-0.4,0.1-0.7,0.1-1.4v-0.7    c0-0.3,0-0.6,0-0.9c-1.5,1.8-3.6,3.2-6.2,4.2c-0.2-0.4-0.3-0.5-0.6-0.9c2.4-0.8,4.4-2,5.9-3.6h-3.7c-0.7,0-1.2,0-1.7,0.1v-1.1    c0.5,0.1,0.9,0.1,1.7,0.1h4.5v-0.5c0-0.6,0-0.8-0.1-1.1h1.1c0,0.3-0.1,0.6-0.1,1.1v0.5H252.6z M248.2,238.2c0,0.6-0.2,1-0.5,1.1    c-0.3,0.1-0.6,0.2-1.3,0.2c-0.5,0-0.9,0-1.8-0.1c-0.1-0.4-0.1-0.7-0.3-1c0.8,0.1,1.5,0.2,2.1,0.2c0.6,0,0.8-0.1,0.8-0.5v-2.5h-4.9    c-0.7,0-1.2,0-1.7,0.1v-1.1c0.4,0.1,0.9,0.1,1.7,0.1h4.9c0-0.4,0-0.5,0-0.9h0.7c0.8-0.4,1.4-0.7,2.3-1.4H245c-0.4,0-0.8,0-1.5,0.1    v-1c0.5,0,1,0.1,1.5,0.1h5c0.6,0,0.9,0,1.2-0.1l0.6,0.7c-0.4,0.3-0.6,0.5-0.7,0.5c-1.1,0.8-1.9,1.3-2.9,1.8v0.2h4.5    c0.7,0,1.2,0,1.7-0.1v1.1c-0.5-0.1-1-0.1-1.7-0.1h-4.5V238.2z" />
<path class="st7" d="M259.8,233c0.5,0,0.9,0,1.2,0c0,0.3,0,0.4,0,0.8c-0.1,2.5-0.3,3.9-0.6,4.7c-0.3,0.8-0.7,1-1.8,1    c-0.4,0-0.8,0-1.5-0.1c0-0.5-0.1-0.7-0.2-1.1c0.7,0.1,1.3,0.2,1.8,0.2c0.6,0,0.8-0.1,0.9-0.8c0.2-0.8,0.4-2,0.4-3.7h-2.1    c-0.5,0-0.8,0-1.1,0c0.3-1.3,0.5-2.7,0.5-4.5c0.4,0,0.7,0.1,1.5,0.1h1.2v-2.7h-1.9c-0.6,0-1.1,0-1.5,0.1v-1.1    c0.3,0.1,0.8,0.1,1.5,0.1h1.8c0.4,0,0.7,0,1.1,0c0,0.4,0,0.7,0,1.1v2.2c0,0.5,0,0.9,0,1.3c-0.3,0-0.7,0-1.1,0h-1.7    c-0.1,1.3-0.1,1.3-0.3,2.7H259.8z M265.4,229.7h-1.6c-0.4,0-0.8,0-1.2,0c0-0.4,0-0.7,0-1.1v-1.7c0-0.6,0-0.8,0-1.2    c0.5,0,0.8,0.1,1.4,0.1h4c0.6,0,1,0,1.5-0.1c0,0.4-0.1,0.7-0.1,1.3v1.4c0,0.6,0,1,0.1,1.4c-0.4,0-0.7,0-1.4,0h-1.7v1.4h2.4    c0.6,0,0.8,0,1.2-0.1c0,0.3-0.1,0.6-0.1,1.1v2c0,0.5,0,0.8,0.1,1.2c-0.4,0-0.8-0.1-1.3-0.1h-2.3v2.5c0.8-0.1,1.6-0.2,2.6-0.4    c-0.2-0.4-0.4-0.6-0.9-1.3l0.8-0.4c1.1,1.4,1.6,2.3,2.4,3.5l-0.9,0.5c-0.3-0.6-0.4-0.8-0.8-1.6c-1.9,0.4-4.4,0.8-7.4,1.1    c-0.2,0-0.3,0-0.6,0.1l-0.2-1.1c0.2,0,0.2,0,0.4,0c0.8,0,1.7-0.1,3.8-0.3v-2.6h-2.1c-0.6,0-1,0-1.4,0.1c0-0.4,0.1-0.7,0.1-1.3    v-1.8c0-0.5,0-0.8-0.1-1.2c0.4,0,0.8,0.1,1.4,0.1h2.1V229.7z M265.4,231.9H263v2.4h2.5V231.9z M263.6,226.7v2.2h4.8v-2.2H263.6z     M269,234.3v-2.4h-2.6v2.4H269z" />
</g>
<g class="st8">
<path class="st7" d="M163.6,137.4c0.7,0,1.2,0,1.7-0.1v1.1c-0.5-0.1-0.9-0.1-1.7-0.1h-3.9c1.8,1.7,3.6,2.8,6.2,3.5    c-0.3,0.3-0.4,0.6-0.7,1c-2.6-0.9-4.7-2.3-6.3-4.2c0,0.3,0,0.6,0,0.9v0.7c0,0.7,0,1,0.1,1.4h-1.1c0.1-0.4,0.1-0.7,0.1-1.4v-0.7    c0-0.3,0-0.6,0-0.9c-1.5,1.8-3.6,3.2-6.2,4.2c-0.2-0.4-0.3-0.5-0.6-0.9c2.4-0.8,4.4-2,5.9-3.6h-3.7c-0.7,0-1.2,0-1.7,0.1v-1.1    c0.5,0.1,0.9,0.1,1.7,0.1h4.5v-0.5c0-0.6,0-0.8-0.1-1.1h1.1c0,0.3-0.1,0.6-0.1,1.1v0.5H163.6z M159.2,148.7c0,0.6-0.2,1-0.5,1.1    c-0.3,0.1-0.6,0.2-1.3,0.2c-0.5,0-0.9,0-1.8-0.1c-0.1-0.4-0.1-0.7-0.3-1c0.8,0.1,1.5,0.2,2.1,0.2c0.6,0,0.8-0.1,0.8-0.5v-2.5h-4.9    c-0.7,0-1.2,0-1.7,0.1V145c0.4,0.1,0.9,0.1,1.7,0.1h4.9c0-0.4,0-0.5,0-0.9h0.7c0.8-0.4,1.4-0.7,2.3-1.4h-5.2c-0.4,0-0.8,0-1.5,0.1    v-1c0.5,0,1,0.1,1.5,0.1h5c0.6,0,0.9,0,1.2-0.1l0.6,0.7c-0.4,0.3-0.6,0.5-0.7,0.5c-1.1,0.8-1.9,1.3-2.9,1.8v0.2h4.5    c0.7,0,1.2,0,1.7-0.1v1.1c-0.5-0.1-1-0.1-1.7-0.1h-4.5V148.7z" />
<path class="st7" d="M173.9,137.5c-2,0.2-2.9,0.2-4.8,0.2c-0.1-0.4-0.2-0.6-0.4-0.9c0.6,0,1.1,0,1.3,0c3.6,0,7.3-0.4,9.3-1.1    l0.7,0.9c-0.1,0-0.1,0-0.2,0c-0.2,0-0.2,0-0.3,0c-0.2,0-0.6,0.1-1.3,0.2c-1,0.2-2,0.3-3.3,0.4v1.6h4.7c0.8,0,1.4,0,1.8-0.1v1.1    c-0.5-0.1-1-0.1-1.8-0.1h-3.8c1.3,1.2,3.6,2.3,6,2.8c-0.3,0.3-0.4,0.5-0.6,0.9c-1.5-0.4-2.4-0.8-3.5-1.4c-1.3-0.7-2.1-1.3-2.9-2.2    c0,0.4,0.1,0.7,0.1,0.9v0.6c0,0.5,0,0.8,0.1,1.2h-1.1c0.1-0.3,0.1-0.7,0.1-1.2V141c0-0.2,0-0.5,0.1-0.9c-0.7,0.8-1.5,1.5-2.6,2.1    c-1.1,0.6-2.2,1.1-3.5,1.5c-0.2-0.4-0.3-0.6-0.6-0.9c2.5-0.7,4.5-1.7,5.7-2.9h-3.7c-0.7,0-1.3,0-1.7,0.1V139    c0.4,0.1,1,0.1,1.8,0.1h4.5V137.5z M171.1,144.2c-0.7,0-1.1,0-1.5,0.1v-1c0.4,0.1,0.8,0.1,1.6,0.1h4.5c0.8,0,1.2,0,1.6-0.1    c-0.1,0.2-0.1,0.2-0.2,0.8c0,0.1-0.1,0.2-0.1,0.5c-0.1,0.2-0.1,0.5-0.3,0.8h2.3c0.4,0,0.8,0,1.2,0c0,0.2,0,0.2-0.1,0.4    c-0.2,1.5-0.4,2.7-0.6,3.3c-0.2,0.7-0.6,0.9-1.6,0.9c-0.6,0-1.3,0-2.1-0.1c-0.1-0.5-0.1-0.7-0.3-1.1c0.9,0.2,1.6,0.3,2.4,0.3    c0.4,0,0.6-0.1,0.8-0.4c0.2-0.4,0.3-1.3,0.5-2.4h-2.1c-0.9,0-1.1,0-1.5,0.1c0.3-0.6,0.4-1,0.6-2.1h-2.7c-0.3,1.8-0.6,2.5-1.4,3.6    c-0.4,0.6-1.2,1.2-2,1.7c-0.4,0.2-0.6,0.4-1.5,0.7c-0.3-0.5-0.4-0.6-0.7-0.9c2.8-1,4.2-2.5,4.5-5.1H171.1z" />
<path class="st7" d="M185.1,145.1c-0.7,0-1.2,0-1.8,0.1v-1.1c0.4,0.1,0.9,0.1,1.7,0.1h0.4V142c0-0.7,0-1.1-0.1-1.5    c0.4,0,0.8,0.1,1.6,0.1h3c0-0.7,0-1-0.1-1.4h1.2c-0.1,0.4-0.1,0.8-0.1,1.2c0,0.1,0,0.1,0,0.2h3.2c0.8,0,1.1,0,1.6-0.1    c-0.1,0.4-0.1,0.8-0.1,1.5v2.2h0.4c0.9,0,1.3,0,1.7-0.1v1.1c-0.6-0.1-1.1-0.1-1.8-0.1H191c0.7,1.1,1.2,1.6,2.2,2.3    c1.2,0.8,2.5,1.2,4.4,1.7c-0.3,0.4-0.4,0.6-0.6,1c-3.5-0.9-5.7-2.4-6.9-4.7c-0.5,1.3-1.3,2.3-2.4,3.1c-1.1,0.7-2.1,1.2-3.9,1.5    c-0.2-0.4-0.3-0.8-0.6-1c1.9-0.3,3-0.7,4.1-1.5c0.9-0.6,1.5-1.4,1.9-2.5H185.1z M192.2,137.3V137c0-0.4,0-0.7-0.1-1.1h1.2    c-0.1,0.4-0.1,0.7-0.1,1.1v0.3h2.5c0.8,0,1.3,0,1.8-0.1v1.1c-0.5-0.1-1-0.1-1.8-0.1h-2.5v0.5c0,0.4,0,0.7,0.1,1.1h-1.1    c0-0.3,0.1-0.6,0.1-1v-0.5h-3.8v0.5c0,0.4,0,0.7,0.1,1.1h-1.1c0-0.4,0.1-0.7,0.1-1v-0.5h-2.3c-0.8,0-1.3,0-1.8,0.1v-1.1    c0.4,0.1,1,0.1,1.8,0.1h2.3V137c0-0.4,0-0.8-0.1-1.1h1.2c-0.1,0.4-0.1,0.7-0.1,1.1v0.3H192.2z M189.5,144.2    c0.1-0.7,0.2-1.3,0.3-2.7h-3.4v2.7H189.5z M194.5,144.2v-2.7h-3.7c0,1.1-0.1,2-0.3,2.7H194.5z" />
</g>
<g class="st8">
<path class="st7" d="M171.6,187.4c0.7,0,1.2,0,1.7-0.1v1.1c-0.5-0.1-0.9-0.1-1.7-0.1h-3.9c1.8,1.7,3.6,2.8,6.2,3.5    c-0.3,0.3-0.4,0.6-0.7,1c-2.6-0.9-4.7-2.3-6.3-4.2c0,0.3,0,0.6,0,0.9v0.7c0,0.7,0,1,0.1,1.4h-1.1c0.1-0.4,0.1-0.7,0.1-1.4v-0.7    c0-0.3,0-0.6,0-0.9c-1.5,1.8-3.6,3.2-6.2,4.2c-0.2-0.4-0.3-0.5-0.6-0.9c2.4-0.8,4.4-2,5.9-3.6h-3.7c-0.7,0-1.2,0-1.7,0.1v-1.1    c0.5,0.1,0.9,0.1,1.7,0.1h4.5v-0.5c0-0.6,0-0.8-0.1-1.1h1.1c0,0.3-0.1,0.6-0.1,1.1v0.5H171.6z M167.2,198.7c0,0.6-0.2,1-0.5,1.1    c-0.3,0.1-0.6,0.2-1.3,0.2c-0.5,0-0.9,0-1.8-0.1c-0.1-0.4-0.1-0.7-0.3-1c0.8,0.1,1.5,0.2,2.1,0.2c0.6,0,0.8-0.1,0.8-0.5v-2.5h-4.9    c-0.7,0-1.2,0-1.7,0.1V195c0.4,0.1,0.9,0.1,1.7,0.1h4.9c0-0.4,0-0.5,0-0.9h0.7c0.8-0.4,1.4-0.7,2.3-1.4H164c-0.4,0-0.8,0-1.5,0.1    v-1c0.5,0,1,0.1,1.5,0.1h5c0.6,0,0.9,0,1.2-0.1l0.6,0.7c-0.4,0.3-0.6,0.5-0.7,0.5c-1.1,0.8-1.9,1.3-2.9,1.8v0.2h4.5    c0.7,0,1.2,0,1.7-0.1v1.1c-0.5-0.1-1-0.1-1.7-0.1h-4.5V198.7z" />
<path class="st7" d="M176.8,189c0.1-0.8,0.3-2.4,0.3-2.9c0-0.3,0-0.4,0-0.5l1.1,0.1c-0.1,0.3-0.1,0.6-0.1,1.1    c-0.1,0.9-0.1,0.9-0.3,2.3h0.6c0.7,0,1,0,1.4-0.1c0,0.3,0,0.4-0.1,0.8c-0.2,2.8-0.6,4.5-1.2,6.1c0.5,0.5,0.7,0.7,1.2,1.2l-0.6,0.9    c-0.5-0.6-0.7-0.8-1-1.2c-0.6,1.3-1.2,2.2-2.2,3.3c-0.3-0.4-0.4-0.5-0.8-0.8c1.1-1,1.7-1.9,2.3-3.3c-0.6-0.5-0.9-0.8-1.9-1.6    c0.5-1.6,0.8-2.8,1.1-4.5h-0.1c-0.6,0-0.9,0-1.3,0.1v-1c0.4,0.1,0.7,0.1,1.4,0.1H176.8z M177.6,189.9c-0.3,2-0.5,2.7-1,4.3    c0.6,0.4,0.7,0.6,1.2,1c0.5-1.4,0.8-2.9,0.9-5.2H177.6z M182,194.6c-0.2,1.1-0.5,1.9-0.9,2.8c-0.4,1.1-0.8,1.7-1.7,2.8    c-0.3-0.3-0.4-0.5-0.8-0.7c1.3-1.5,2-2.8,2.4-4.9c-0.7,0-0.8,0-1.1,0.1v-1c0.4,0.1,0.6,0.1,1.2,0.1h0c0.1-0.8,0.2-1.9,0.3-2.8    h-0.1c-0.5,0-0.9,0-1.2,0.1v-1c0.4,0.1,0.6,0.1,1.2,0.1h0.2c0-0.4,0-1.2,0-2.8h0c-0.7,0-1.1,0-1.5,0.1v-1.1    c0.4,0.1,0.9,0.1,1.5,0.1h1.8c0.7,0,1.1,0,1.5-0.1c0,0.4,0,0.6,0,1.4c0,4.4-0.3,8.9-0.6,10.8c-0.2,1.1-0.5,1.4-1.6,1.4    c-0.4,0-0.7,0-1.2-0.1c0-0.4-0.1-0.7-0.2-1.1c0.5,0.1,0.9,0.2,1.3,0.2s0.6-0.1,0.7-0.3c0.2-0.4,0.4-2,0.5-3.7c0-0.2,0-0.2,0-0.3    H182z M183.7,193.7c0-0.8,0-0.8,0.1-2.8h-1.5c-0.1,1.4-0.1,1.6-0.2,2.8H183.7z M183.9,190c0-0.1,0-1.1,0-2.8h-1.5    c0,1.1,0,2.1,0,2.5c0,0.2,0,0.2,0,0.3H183.9z M189.8,186.7c-0.1,0.2-0.1,0.2-0.4,1.4c-0.3,1-0.7,2.1-1.1,3.2c0.5,0.9,0.8,1.3,1,2    c0.2,0.8,0.4,1.6,0.4,2.3c0,1.4-0.4,2-1.6,2c-0.2,0-0.4,0-0.7,0c0-0.4-0.1-0.7-0.2-1c0.4,0.1,0.6,0.1,0.9,0.1c0.5,0,0.7-0.2,0.7-1    c0-0.8-0.2-1.7-0.4-2.4c-0.2-0.6-0.4-1-0.9-1.8c0.6-1.5,1-2.7,1.4-4.3h-2v11.4c0,0.8,0,1.2,0.1,1.6h-1.1c0.1-0.4,0.1-0.8,0.1-1.6    v-11c0-0.7,0-1,0-1.4c0.2,0,0.6,0,1,0h1.5c0.4,0,0.7,0,0.9,0L189.8,186.7z" />
</g>
<g>
<g>
<path class="st7" d="M233.6,182.4c0.6,0,1,0,1.2,0c0,0.3,0,0.3-0.1,1.2c0,1.9-0.3,3.7-0.6,4.4c-0.3,0.7-0.7,0.9-1.8,0.9     c-0.5,0-0.9,0-1.6-0.1c0-0.5-0.1-0.7-0.2-1.1c0.8,0.1,1.3,0.2,1.9,0.2c0.5,0,0.7-0.1,0.9-0.7c0.2-0.7,0.3-2.1,0.4-3.8h-2.2     c-0.4,0-0.8,0-1.1,0c0.3-1.5,0.5-3,0.5-4.5c0.4,0,0.6,0.1,1.5,0.1h1.3v-2.6h-1.9c-0.6,0-1.1,0-1.5,0.1v-1.1     c0.3,0.1,0.8,0.1,1.5,0.1h1.9c0.4,0,0.7,0,1,0c0,0.3,0,0.7,0,1.1v2.1c0,0.5,0,0.8,0,1.2c-0.3,0-0.3,0-0.4,0h-0.1l-0.6,0h-1.8     c-0.1,1.1-0.2,1.8-0.3,2.6H233.6z M236.1,181.9c-0.6,0-0.8,0-1.3,0.1v-1c0.4,0,0.8,0.1,1.3,0.1h0.7v-4.5c0-0.8,0-1.2-0.1-1.7h1.2     c-0.1,0.5-0.1,0.9-0.1,1.7v4.5h5c0.7,0,1.2,0,1.6-0.1v1.1c-0.5-0.1-0.9-0.1-1.6-0.1h-2c0.1,0.5,0.3,1.1,0.5,1.7     c0.3,1,0.6,1.5,1.2,2.2c0.7,0.9,1.2,1.4,2.3,2.1c-0.4,0.4-0.4,0.5-0.8,1c-0.1-0.1-0.1-0.1-0.6-0.5c-1-0.8-1.9-1.9-2.5-3.1     c-0.5-1-0.8-2-1.1-3.3h-2v5.7c1.6-0.5,1.6-0.5,2.9-1.1l0,0.9c-0.7,0.2-0.9,0.3-1.7,0.7c-0.5,0.2-0.9,0.4-1.1,0.4     c-0.6,0.3-0.7,0.3-1.1,0.4l-0.4-0.8c0.3-0.2,0.4-0.4,0.4-0.9v-5.4H236.1z M243.3,176.1c-0.6,0.7-0.9,1-1.3,1.4     c-0.7,0.6-1.7,1.5-2.4,2c-0.3-0.3-0.5-0.5-0.8-0.6c1.5-1,2.8-2.2,3.6-3.4L243.3,176.1z" />
<path class="st7" d="M251.6,175.9c0.5,0,0.8,0,1.2-0.1v0.9c-0.4,0-0.6-0.1-1.1-0.1h-1.5v1.1h1.1c0.5,0,0.8,0,1.1-0.1v0.9     c-0.4,0-0.6-0.1-1.1-0.1h-1.1v1.2h1.6c0.6,0,0.8,0,1.2-0.1v0.9c-0.4,0-0.6-0.1-1.2-0.1h-4.3c-0.6,0-0.9,0-1.3,0.1v-0.9     c0.4,0,0.7,0.1,1.3,0.1h1.9v-1.2H248c-0.5,0-0.8,0-1.1,0.1v-0.9c0.3,0,0.6,0.1,1.1,0.1h1.3v-1.1h-1.7c-0.5,0-0.8,0-1.2,0.1v-0.9     c0.4,0,0.6,0.1,1.2,0.1h1.7v-0.2c0-0.4,0-0.8-0.1-1.1h1.1c0,0.3-0.1,0.7-0.1,1.1v0.2H251.6z M247.9,186.1v1.4     c0,0.7,0,1.1,0.1,1.6h-1.1c0.1-0.4,0.1-1,0.1-1.6v-4.5c0-0.7,0-1.1-0.1-1.5c0.3,0,0.6,0,1.3,0h2.7c0.8,0,1,0,1.4-0.1     c0,0.4,0,0.8,0,1.5v4.9c0,0.9-0.3,1.1-1.3,1.1c-0.3,0-0.7,0-1,0c0-0.4-0.1-0.6-0.2-0.9c0.5,0.1,0.8,0.1,1.2,0.1     c0.3,0,0.4-0.1,0.4-0.4v-1.6H247.9z M251.4,182.3h-3.5v1.1h3.5V182.3z M251.4,184.1h-3.5v1.2h3.5V184.1z M258.4,178.6     c0.7,0,1.1,0,1.3-0.1c0,0.4-0.1,0.7-0.1,1.4v1.3c0.4,0,0.7,0,1-0.1v1.1c-0.3,0-0.6-0.1-1-0.1v2c0,0.6,0,1.1,0.1,1.6h-1v-0.7h-2     v2.8c0,1-0.3,1.2-1.5,1.2c-0.3,0-0.8,0-1.2,0c0-0.4-0.1-0.7-0.3-1c0.6,0.1,1,0.1,1.5,0.1c0.5,0,0.6,0,0.6-0.4v-2.6h-1     c-0.5,0-0.9,0-1.3,0.1v-1c0.4,0.1,0.8,0.1,1.3,0.1h1.1v-2h-1.5c-0.5,0-0.9,0-1.3,0.1v-1c0.4,0,0.8,0.1,1.3,0.1h1.5v-1.7h-0.8     c-0.5,0-0.9,0-1.3,0.1v-1c-0.3,0.3-0.4,0.4-0.6,0.6c-0.2-0.3-0.4-0.4-0.7-0.6c1-0.8,1.5-1.5,2.1-2.4c0.4-0.8,0.7-1.2,0.8-1.8     l1,0.3c-0.1,0.2-0.2,0.4-0.4,0.7c0,0.1-0.1,0.2-0.2,0.5h1.9c0.6,0,0.8,0,1,0l0.4,0.5c-0.1,0.2-0.1,0.2-0.4,0.6     c-0.5,0.9-0.8,1.2-1.2,1.8H258.4z M256.4,178.6c0.5-0.6,0.9-1.2,1.3-2h-2.4c-0.5,0.8-0.9,1.3-1.5,1.9c0.4,0.1,0.8,0.1,1.2,0.1     H256.4z M256.8,181.2h2v-1.7h-2V181.2z M256.8,182.1v2h2v-2H256.8z" />
</g>
</g>
<g>
</g>
<g>
</g>
<g>
</g>
<g>
</g>
<g>
</g>
<g>
</g>
<g>
</g>
<g>
</g>
<g>
</g>
<g>
</g>
</g>
</g></svg>