<?xml version='1.0' encoding='utf-8'?>
<svg height="340" style="max-width: 100%; height: auto; font: 10px sans-serif;" viewBox="-70,-30,880,340" width="900" xmlns="http://www.w3.org/2000/svg">
<style type="text/css">.st0 {
    opacity: 0.4;
    fill: none;
    stroke: hsl(0, 0%, 78%);
}

.st1 {
    fill: none;
    stroke: hsl(0, 0%, 41%);
}

.st2 {
    fill: hsl(0, 0%, 48%);
}

.st3 {
    opacity: 0.8;
    fill: hsl(152, 66%, 42%);
}

.st4 {
    opacity: 0.8;
    fill: hsl(15, 94%, 52%);
}

.st5 {
    fill: none;
    stroke: hsl(0, 0%, 0%);
    stroke-width: 0.5;
}</style>
<g id="Layer_3">
<circle class="st3" cx="141.9" cy="223.5" r="21.1" />
<circle class="st4" cx="188.6" cy="186.1" r="33.9" />
<circle class="st4" cx="284.9" cy="171.8" r="24.1" />
<circle class="st4" cx="431" cy="115.7" r="36.5" />
<circle class="st3" cx="541.4" cy="160.7" r="25.4" />
<circle class="st4" cx="591.3" cy="106.8" r="28.5" />
<circle class="st4" cx="630.5" cy="70.2" r="24.1" />
<circle class="st4" cx="520.1" cy="106.8" r="16.7" />
<circle class="st3" cx="342.8" cy="152.2" r="33.9" />
<circle class="st4" cx="237.6" cy="147.8" r="12.9" />
<circle class="st4" cx="222.5" cy="208.3" r="15.1" />
<circle class="st4" cx="90.6" cy="260.9" r="8" />
<circle class="st4" cx="129.8" cy="252.9" r="16" />
<circle class="st4" cx="178.8" cy="228.8" r="12.7" />
<circle class="st3" cx="237.6" cy="171.8" r="21.4" />
<circle class="st4" cx="299.1" cy="115.7" r="12.5" />
<circle class="st4" cx="348.1" cy="78.3" r="11.8" />
<circle class="st4" cx="129.8" cy="123.8" r="11.8" />
<circle class="st3" cx="414" cy="228.8" r="13" />
<circle class="st4" cx="474.9" cy="152.2" r="28.5" />
<circle class="st4" cx="389.1" cy="152.2" r="8.5" />
<circle class="st4" cx="394.4" cy="90.1" r="13.1" />
<circle class="st3" cx="467.5" cy="94.3" r="12.5" />
<circle class="st4" cx="562.8" cy="163.8" r="16.9" />
<circle class="st4" cx="573.5" cy="79.2" r="18.7" />
<circle class="st3" cx="606.5" cy="118.4" r="9.8" />
<circle class="st3" cx="649.1" cy="54.9" r="11.7" />
<circle class="st4" cx="365" cy="208.3" r="11.6" />
<circle class="st4" cx="320.5" cy="202.3" r="6.3" />
<circle class="st3" cx="178.8" cy="118.4" r="5.4" />
<circle class="st4" cx="611.8" cy="208.3" r="7.5" />
<circle class="st3" cx="280.4" cy="90.1" r="7.8" />
<circle class="st4" cx="363.9" cy="171.8" r="17.5" />
<g>
<line class="st5" x1="90.6" x2="90.6" y1="257.8" y2="264" />
<line class="st5" x1="87.5" x2="93.8" y1="260.9" y2="260.9" />
</g>
<g>
<line class="st5" x1="129.8" x2="129.8" y1="249.8" y2="256" />
<line class="st5" x1="126.7" x2="133" y1="252.9" y2="252.9" />
</g>
<g>
<line class="st5" x1="141.9" x2="141.9" y1="220.4" y2="226.6" />
<line class="st5" x1="138.7" x2="145" y1="223.5" y2="223.5" />
</g>
<g>
<line class="st5" x1="178.8" x2="178.8" y1="225.7" y2="231.9" />
<line class="st5" x1="175.7" x2="181.9" y1="228.8" y2="228.8" />
</g>
<g>
<line class="st5" x1="188.6" x2="188.6" y1="182.9" y2="189.2" />
<line class="st5" x1="185.5" x2="191.8" y1="186.1" y2="186.1" />
</g>
<g>
<line class="st5" x1="237.6" x2="237.6" y1="168.7" y2="174.9" />
<line class="st5" x1="234.5" x2="240.8" y1="171.8" y2="171.8" />
</g>
<g>
<line class="st5" x1="284.9" x2="284.9" y1="168.7" y2="174.9" />
<line class="st5" x1="281.7" x2="288" y1="171.8" y2="171.8" />
</g>
<g>
<line class="st5" x1="299.1" x2="299.1" y1="112.6" y2="118.8" />
<line class="st5" x1="296" x2="302.2" y1="115.7" y2="115.7" />
</g>
<g>
<line class="st5" x1="342.8" x2="342.8" y1="149.1" y2="155.3" />
<line class="st5" x1="339.7" x2="345.9" y1="152.2" y2="152.2" />
</g>
<g>
<line class="st5" x1="364" x2="364" y1="168.7" y2="174.9" />
<line class="st5" x1="360.9" x2="367.1" y1="171.8" y2="171.8" />
</g>
<g>
<line class="st5" x1="365" x2="365" y1="205.2" y2="211.5" />
<line class="st5" x1="361.9" x2="368.2" y1="208.3" y2="208.3" />
</g>
<g>
<line class="st5" x1="414" x2="414" y1="225.7" y2="231.9" />
<line class="st5" x1="410.9" x2="417.2" y1="228.8" y2="228.8" />
</g>
<g>
<line class="st5" x1="394.4" x2="394.4" y1="87" y2="93.2" />
<line class="st5" x1="391.3" x2="397.6" y1="90.1" y2="90.1" />
</g>
<g>
<line class="st5" x1="431" x2="431" y1="112.6" y2="118.8" />
<line class="st5" x1="427.9" x2="434.1" y1="115.7" y2="115.7" />
</g>
<g>
<line class="st5" x1="474.9" x2="474.9" y1="149.1" y2="155.3" />
<line class="st5" x1="471.8" x2="478" y1="152.2" y2="152.2" />
</g>
<g>
<line class="st5" x1="541.4" x2="541.4" y1="157.8" y2="164" />
<line class="st5" x1="538.3" x2="544.6" y1="160.9" y2="160.9" />
</g>
<g>
<line class="st5" x1="591.3" x2="591.3" y1="103.7" y2="109.9" />
<line class="st5" x1="588.2" x2="594.5" y1="106.8" y2="106.8" />
</g>
<g>
<line class="st5" x1="630.5" x2="630.5" y1="67.1" y2="73.4" />
<line class="st5" x1="627.4" x2="633.7" y1="70.2" y2="70.2" />
</g>
<g>
<line class="st5" x1="649.1" x2="649.1" y1="51.8" y2="58.1" />
<line class="st5" x1="646" x2="652.2" y1="54.9" y2="54.9" />
</g>
<g>
<line class="st5" x1="606.5" x2="606.5" y1="115.7" y2="121.9" />
<line class="st5" x1="603.4" x2="609.6" y1="118.8" y2="118.8" />
</g>
<g>
<line class="st5" x1="573.5" x2="573.5" y1="76" y2="82.3" />
<line class="st5" x1="570.4" x2="576.6" y1="79.2" y2="79.2" />
</g>
<g>
<line class="st5" x1="562.8" x2="562.8" y1="160.9" y2="167.1" />
<line class="st5" x1="559.7" x2="565.9" y1="164" y2="164" />
</g>
<g>
<line class="st5" x1="520.1" x2="520.1" y1="103.7" y2="109.9" />
<line class="st5" x1="516.9" x2="523.2" y1="106.8" y2="106.8" />
</g>
<g>
<line class="st5" x1="467.5" x2="467.5" y1="91.2" y2="97.4" />
<line class="st5" x1="464.4" x2="470.6" y1="94.3" y2="94.3" />
</g>
<g>
<line class="st5" x1="348.1" x2="348.1" y1="75.2" y2="81.4" />
<line class="st5" x1="345" x2="351.2" y1="78.3" y2="78.3" />
</g>
<g>
<line class="st5" x1="237.6" x2="237.6" y1="144.6" y2="150.9" />
<line class="st5" x1="234.5" x2="240.8" y1="147.8" y2="147.8" />
</g>
<g>
<line class="st5" x1="129.8" x2="129.8" y1="120.6" y2="126.9" />
<line class="st5" x1="126.7" x2="133" y1="123.8" y2="123.8" />
</g>
<g>
<line class="st5" x1="178.8" x2="178.8" y1="116.6" y2="120.1" />
<line class="st5" x1="177" x2="180.6" y1="118.4" y2="118.4" />
</g>
<g>
<line class="st5" x1="280.4" x2="280.4" y1="88.3" y2="91.9" />
<line class="st5" x1="278.6" x2="282.2" y1="90.1" y2="90.1" />
</g>
<g>
<line class="st5" x1="320.5" x2="320.5" y1="200.6" y2="204.1" />
<line class="st5" x1="318.7" x2="322.3" y1="202.3" y2="202.3" />
</g>
<g>
<line class="st5" x1="389.1" x2="389.1" y1="150.4" y2="154" />
<line class="st5" x1="387.3" x2="390.9" y1="152.2" y2="152.2" />
</g>
<circle class="st4" cx="551.6" cy="215.8" r="13.3" />
<g>
<line class="st5" x1="551.6" x2="551.6" y1="214.1" y2="217.6" />
<line class="st5" x1="549.8" x2="553.3" y1="215.8" y2="215.8" />
</g>
<g>
<line class="st5" x1="611.8" x2="611.8" y1="206.6" y2="210.1" />
<line class="st5" x1="610" x2="613.6" y1="208.3" y2="208.3" />
</g>
<g>
<line class="st5" x1="222.5" x2="222.5" y1="205.2" y2="211.5" />
<line class="st5" x1="219.4" x2="225.6" y1="208.3" y2="208.3" />
</g>
</g>
</svg>