<?xml version='1.0' encoding='utf-8'?>
<svg height="340" style="max-width: 100%; height: auto; font: 10px sans-serif;" viewBox="-70,-20,880,340" width="900" xmlns="http://www.w3.org/2000/svg">
<g transform="rotate(90 450.0 170.0)"><style type="text/css">.st0 {
    fill: none;
    stroke: hsl(0, 0%, 31%);
    stroke-width: 1.3;
}

.st1 {
    fill: hsl(0, 0%, 29%);
}

.st2 {
    fill: hsl(152, 63%, 49%);
}

.st3 {
    fill: hsl(206, 47%, 66%);
}

.st4 {
    fill: hsl(342, 82%, 67%);
}

.st5 {
    fill: hsl(0, 0%, 100%);
}

.st6 {
    fill: hsl(0, 0%, 10%);
}</style>
<g id="Layer_1">
</g>
<g id="Layer_2">
<g>
<g>
<line class="st0" x1="249.2" x2="249.2" y1="55.5" y2="81.9" />
<g>
<polygon class="st1" points="243.9,77.6 244.9,76.7 249.2,81.4 253.6,76.7 254.5,77.6 249.2,83.3     " />
</g>
</g>
</g>
<g>
<g>
<line class="st0" x1="249.2" x2="249.2" y1="127.6" y2="154" />
<g>
<polygon class="st1" points="243.9,149.7 244.9,148.8 249.2,153.5 253.6,148.8 254.5,149.7 249.2,155.4     " />
</g>
</g>
</g>
<g>
<g>
<line class="st0" x1="249.2" x2="249.2" y1="196.6" y2="223" />
<g>
<polygon class="st1" points="243.9,218.7 244.9,217.8 249.2,222.5 253.6,217.8 254.5,218.7 249.2,224.5     " />
</g>
</g>
</g>
<g>
<g>
<g>
<line class="st0" x1="491.8" x2="491.8" y1="253.2" y2="207.8" />
<g>
<polygon class="st1" points="497.1,212.1 496.1,213 491.8,208.3 487.4,213 486.5,212.1 491.8,206.4      " />
</g>
</g>
</g>
</g>
<g>
<g>
<g>
<line class="st0" x1="491.8" x2="491.8" y1="161.8" y2="135.3" />
<g>
<polygon class="st1" points="497.1,139.7 496.1,140.5 491.8,135.8 487.4,140.5 486.5,139.7 491.8,133.9      " />
</g>
</g>
</g>
</g>
<g>
<g>
<g>
<line class="st0" x1="491.8" x2="491.8" y1="89.5" y2="63" />
<g>
<polygon class="st1" points="497.1,67.3 496.1,68.2 491.8,63.5 487.4,68.2 486.5,67.3 491.8,61.6      " />
</g>
</g>
</g>
</g>
<g>
<g>
<polyline class="st0" points="177.3,264.1 137.6,264.1 137.6,177 173.2,177    " />
<g>
<polygon class="st1" points="168.9,182.3 168,181.3 172.7,177 168,172.6 168.9,171.7 174.6,177     " />
</g>
</g>
</g>
<g>
<g>
<line class="st0" x1="320.1" x2="417.4" y1="264.1" y2="264.1" />
<g>
<polygon class="st1" points="413.1,269.5 412.2,268.5 416.9,264.1 412.2,259.8 413.1,258.8 418.8,264.1     " />
</g>
</g>
</g>
<g>
<polygon class="st2" points="176.3,264.1 249.2,226 322.2,264.1 249.2,302.3   " />
</g>
<rect class="st3" height="47.5" width="145.9" x="418.8" y="157.5" />
<rect class="st3" height="39.3" width="145.9" x="418.8" y="244.5" />
<rect class="st3" height="48.7" width="145.9" x="176.3" y="84" />
<rect class="st3" height="47.7" width="145.9" x="176.3" y="157.3" />
<rect class="st3" height="48.7" width="145.9" x="418.8" y="84" />
<path class="st4" d="M566.4,40.6c0,10.4-7.3,18.9-15,18.9H432.2c-7.7,0-15-8.5-15-18.9l0,0c0-10.4,7.3-18.9,15-18.9h119.2   C559.1,21.7,566.4,30.2,566.4,40.6L566.4,40.6z" />
<path class="st4" d="M323.8,40.6c0,10.4-7.3,18.9-15,18.9H189.6c-7.7,0-15-8.5-15-18.9l0,0c0-10.4,7.3-18.9,15-18.9h119.2   C316.5,21.7,323.8,30.2,323.8,40.6L323.8,40.6z" />
<g>
<g>
<path class="st5" d="M465.9,46.6c0,1.2-0.6,1.7-2.4,1.7c-0.7,0-1.4,0-2.3-0.1c-0.1-0.6-0.2-1.1-0.5-1.8c0.9,0.1,1.9,0.2,2.5,0.2     c0.6,0,0.7-0.1,0.7-0.4v-1.5h-5.5c-0.8,0-1.4,0-1.9,0.1V43c0.4,0.1,0.9,0.1,1.9,0.1h5.6c0-0.4,0-0.5-0.1-0.8h0.9     c0.8-0.2,1.4-0.4,2.4-0.8c-0.6,0-1.2,0.1-1.9,0.1H460c-0.6,0-1.2,0-1.7,0.1V40c0.5,0.1,1.1,0.1,1.7,0.1h8.8c0.8,0,1.2,0,1.5-0.1     l0.8,0.9c-0.1,0.1-0.1,0.1-0.2,0.1c-1.6,1-3,1.6-4.7,2.1h5c0.9,0,1.5,0,1.9-0.1v1.9c-0.6-0.1-1.1-0.1-1.9-0.1h-5.3V46.6z      M463.6,32.9c-0.2-0.3-0.3-0.5-0.6-1l2-0.6c0.3,0.6,0.5,0.9,0.8,1.6h5.3c0.8,0,1.3,0,1.9-0.1v1.8c-0.5-0.1-1-0.1-1.9-0.1h-12.4     c-0.8,0-1.4,0-1.9,0.1v-1.8c0.6,0.1,1.1,0.1,1.9,0.1H463.6z M459,36.4c0-0.3,0-0.4,0-0.8c0-0.1,0-0.2,0-0.4c0.5,0,1,0.1,1.7,0.1     h8.3c0.8,0,1.2,0,1.7-0.1c0,0.3-0.1,0.6-0.1,1.1v1.8c0,0.5,0,0.8,0.1,1.1c-0.5,0-0.9-0.1-1.7-0.1h-8.4c-0.6,0-1.1,0-1.6,0.1     c0-0.3,0.1-0.8,0.1-1.1V36.4z M460.9,37.8h7.8v-1.1h-7.8V37.8z" />
<path class="st5" d="M483.9,45.6c0,1,0,1.6,0.1,2.1h-2.1c0.1-0.5,0.1-1.1,0.1-2.1v-3h-4.1c-0.3,2.5-0.8,4.1-1.8,5.7     c-0.8-0.7-1-0.9-1.7-1.4c1.5-2.2,1.8-4.4,1.8-12.1c0-1.3,0-1.8-0.1-2.5c0.6,0.1,1.1,0.1,2.1,0.1h10.1c1,0,1.5,0,2.1-0.1     c-0.1,0.6-0.1,1.1-0.1,2v11.8c0,1.5-0.5,1.9-2.6,1.9c-0.6,0-1.5,0-2-0.1c-0.1-0.7-0.2-1.1-0.5-1.9c0.9,0.1,1.7,0.1,2.3,0.1     c0.8,0,0.9-0.1,0.9-0.5v-3.2h-4.3V45.6z M482,38.4h-4l-0.1,2.5h4V38.4z M482,34.3h-3.9v1.9l0,0.5h3.9V34.3z M488.3,36.7v-2.4     h-4.3v2.4H488.3z M488.3,40.9v-2.5h-4.3v2.5H488.3z" />
<path class="st5" d="M502.7,39.9c0.5,0.6,1.3,1.6,2.1,2.2c1.2,1,2.8,2,4.6,2.7c-0.5,0.6-0.8,1-1.3,2c-1.9-1.1-3-1.9-4.1-2.9     c-1-0.9-1.6-1.7-2.3-3c0,0.2,0,0.3,0,0.4c0,0.4,0.1,0.8,0.1,1.3v3.3c0,0.8,0,1.5,0.1,2.3h-2.3c0.1-0.6,0.1-1.4,0.1-2.3v-3.3     c0-0.7,0-1.1,0.1-1.7c-0.8,1.4-1.5,2.3-2.9,3.5c-1,0.9-1.9,1.5-3.2,2.3c-0.3-0.7-0.7-1.3-1.3-1.9c2.5-1,4.8-2.9,6.2-5h-3.4     c-0.9,0-1.6,0-2.2,0.1v-2.1c0.5,0.1,1.2,0.1,2.2,0.1h4.6v-4.5c0-0.7,0-1.2-0.1-1.7h2.3c-0.1,0.5-0.1,1-0.1,1.7V38h4.9     c0.9,0,1.6,0,2.2-0.1V40c-0.6-0.1-1.3-0.1-2.2-0.1H502.7z M496.5,37.6c-0.6-1.5-1.2-2.4-2.4-4l1.7-1.1c1.2,1.7,1.7,2.6,2.4,4     L496.5,37.6z M503,36.6c1.2-1.5,1.8-2.4,2.5-4.1l1.9,1c-0.9,1.7-1.6,2.7-2.7,4.2L503,36.6z" />
<path class="st5" d="M513.4,36.1c-0.5,1.5-0.8,2.2-1.4,3.2c-1-0.9-1.3-1.1-1.7-1.3c0.6-0.8,1-1.5,1.4-2.8     c0.4-1.3,0.6-2.2,0.7-3.4l2.2,0.4c-0.1,0.3-0.1,0.3-0.2,0.6c0,0.1,0,0.1-0.1,0.2c-0.2,0.9-0.3,1.3-0.4,1.5l1.6,0h0.1     c0.3,0,0.6,0,0.9-0.1l1.2,0.9c-0.2,0.3-0.3,0.4-0.4,0.8c-0.3,0.8-0.7,1.7-0.9,2.2c-0.2-0.1-0.2-0.1-0.5-0.3     c-0.6-0.4-0.7-0.4-1-0.5c0.3-0.5,0.4-0.7,0.5-1.2L513.4,36.1z M514.6,43.9c0.5-0.3,1.3-0.9,1.8-1.4l0.1,2.2     c-0.8,0.6-1.1,0.9-1.7,1.3c-0.3,0.2-0.4,0.3-1.1,0.7c-0.4,0.2-0.4,0.2-0.7,0.4l-0.8-1.7c0.4-0.3,0.5-0.5,0.6-0.9l0-4.8v-0.1     c0-0.8,0-1.1-0.1-1.5h2c-0.1,0.6-0.1,1.2-0.1,1.6V43.9z M524.1,36.5c0.8,0,1.2,0,1.5-0.1l1,1c-0.1,0.4-0.1,0.4-0.6,1.9     c-0.5,1.9-1.1,3.2-1.9,4.5c1,1.1,1.8,1.7,3.4,2.5c-0.4,0.5-0.6,0.8-1,1.9c-1.6-1-2.4-1.6-3.5-3c-0.9,1.2-2,2-3.7,3.1     c-0.5-0.9-0.7-1.2-1.1-1.7c1.7-0.8,2.7-1.6,3.7-2.8c-1.2-1.9-1.6-3-2.1-5.6h-0.1c0,2.5-0.2,4.1-0.5,5.4c-0.2,1-0.6,2-1.1,3     c-0.3,0.5-0.5,0.9-1.1,1.7c-0.6-0.7-0.9-1-1.6-1.4c1-1.1,1.4-1.9,1.8-3.2c0.5-1.7,0.6-3.4,0.6-8.2c0-1.5,0-2-0.1-2.8     c2.1,0,2.7,0,4-0.2c1.6-0.2,3-0.5,3.8-0.8l1.3,1.7c-2.3,0.6-3.8,0.8-7,1l0,2.1H524.1z M521.4,38.3c0.3,1.7,0.7,2.7,1.5,4     c0.8-1.3,1.1-2.1,1.4-4H521.4z" />
</g>
</g>
<g>
<path class="st5" d="M205.8,104.2c0.5,0,0.8,0,1.1-0.1v1.1c-0.4,0-0.6-0.1-1.1-0.1h-0.6v3.1c0.1,0,0.1,0,0.2-0.1    c0.3-0.1,0.7-0.3,1.6-0.7v1c-0.6,0.3-0.6,0.3-1.8,0.8v4.9c0,0.9-0.4,1.1-2,1.1c-0.2,0-0.4,0-0.8,0c0-0.4-0.1-0.6-0.2-1    c0.5,0.1,1,0.1,1.3,0.1c0.6,0,0.7-0.1,0.7-0.4v-4.3c-0.1,0-0.7,0.3-0.9,0.3c-0.2,0.1-0.4,0.2-0.8,0.3c-0.1,0-0.1,0-0.2,0.1    l-0.3-1.1c0.7-0.1,0.8-0.1,2.2-0.7v-3.5h-0.9c-0.4,0-0.8,0-1.2,0.1v-1.1c0.4,0.1,0.8,0.1,1.2,0.1h0.9v-1.5c0-0.7,0-1.1-0.1-1.6    h1.2c-0.1,0.5-0.1,0.9-0.1,1.6v1.5H205.8z M207.5,103.4c0-0.8,0-1,0-1.5c0.5,0,0.8,0.1,1.5,0.1h5.5c0.7,0,1.1,0,1.5-0.1    c-0.1,0.4-0.1,0.8-0.1,1.4v3.8c0,0.6,0,1.1,0.1,1.5c-0.4,0-0.8-0.1-1.5-0.1h-5.9v4.8c0,0.4,0.1,0.6,0.5,0.7    c0.4,0.1,1.2,0.1,2.8,0.1c2.1,0,2.9-0.1,3.2-0.5c0.3-0.3,0.4-1.1,0.5-2.7c0.4,0.2,0.6,0.3,1.1,0.4c-0.2,2.1-0.4,2.8-0.9,3.2    c-0.5,0.4-1.6,0.5-4,0.5c-2,0-2.8-0.1-3.3-0.2c-0.6-0.2-0.8-0.5-0.8-1.2V103.4z M211.2,102.9h-2.7v4.8h2.7V102.9z M214.8,107.7    v-4.8h-2.7v4.8H214.8z" />
<path class="st5" d="M219.9,103.8c-0.5,0.9-0.8,1.4-1.5,2.1c-0.2-0.4-0.4-0.5-0.7-0.8c0.9-0.9,1.2-1.4,1.8-2.8    c0.1-0.3,0.3-0.9,0.4-1.2l1.1,0.3c-0.1,0.3-0.1,0.3-0.4,0.8c0,0-0.1,0.3-0.4,0.8h1.8c0.8,0,1.2,0,1.5-0.1v1.1    c-0.4-0.1-0.8-0.1-1.5-0.1H219.9z M219.6,109.8c-0.6,0-1.1,0-1.5,0.1v-1c0.4,0,0.9,0.1,1.5,0.1h0.8v-2.4h-0.5    c-0.3,0-0.8,0-1.1,0.1v-1c0.4,0,0.6,0.1,1.1,0.1h2.4c0.4,0,0.8,0,1.1-0.1v1c-0.4,0-0.7,0-1.1,0h-0.9v2.4h0.7c0.6,0,1,0,1.5-0.1v1    c-0.5-0.1-1-0.1-1.5-0.1h-0.7v3.8c0.6-0.3,1.5-0.8,2.1-1.3l0,1.1c-0.6,0.3-1.5,0.9-1.9,1.1c-0.7,0.4-0.7,0.4-1.1,0.6l-0.5-1    c0.3-0.2,0.4-0.3,0.4-0.6v-3.8H219.6z M230.1,112.7c-0.5-1.1-1.1-2.1-2.2-3.5c-0.5,1.6-1.1,2.6-2.2,3.6c-0.2-0.3-0.3-0.5-0.7-0.8    c1.3-1.1,1.9-2.4,2.2-4.2h-2.3v5.8c0,0.8,0,1.2,0.1,1.8h-1.1c0.1-0.5,0.1-1,0.1-1.8v-5.3c0-0.6,0-1,0-1.4c0.3,0,0.6,0,1.1,0h2.3    c0-0.2,0-0.5,0-0.9v-0.8h-1.5c-0.6,0-1,0-1.4,0c0-0.4,0.1-0.7,0.1-1.3v-1.3c0-0.5,0-0.9-0.1-1.3c0.4,0.1,0.9,0.1,1.4,0.1h4.2    c0.6,0,1,0,1.4-0.1c0,0.4-0.1,0.7-0.1,1.3v1.2c0,0.6,0,1,0.1,1.3c-0.4,0-0.4,0-1.5,0h-1.7v0.8c0,0.1,0,0.3-0.1,0.7    c0,0,0,0.1,0,0.2h2.5c0.7,0,1,0,1.3-0.1c0,0.4-0.1,0.8-0.1,1.4v5.8c0,0.9-0.4,1.2-1.7,1.2c-0.3,0-0.6,0-1.1,0c0-0.4-0.1-0.6-0.2-1    c0.7,0.1,1,0.1,1.5,0.1c0.5,0,0.6-0.1,0.6-0.4v-6.2h-2.9c0,0.2,0,0.2-0.1,0.4c1,1.1,2,2.4,2.9,3.9L230.1,112.7z M225.5,104.5h5v-2    h-5V104.5z" />
<path class="st5" d="M246.4,107.5c0.9,0,1.4,0,1.9-0.1v1.2c-0.6-0.1-1.1-0.1-1.9-0.1h-4.5v5.3c0,1.1-0.4,1.3-1.9,1.3    c-0.5,0-1,0-2-0.1c-0.1-0.5-0.1-0.7-0.3-1.1c1,0.1,1.6,0.2,2.3,0.2c0.6,0,0.8-0.1,0.8-0.5v-5.2h-4.8c-0.8,0-1.4,0-2,0.1v-1.2    c0.6,0.1,1.1,0.1,2,0.1h4.7v-1.1c0-0.4,0-0.7,0-1.1h0.7c1.5-0.8,2.4-1.4,3.6-2.6h-7.7c-0.6,0-1.2,0-1.6,0.1v-1.2    c0.5,0.1,1,0.1,1.6,0.1h7.6c0.7,0,1,0,1.2-0.1l0.7,0.7c-0.4,0.3-0.4,0.4-0.6,0.5c-1.8,1.6-2.4,2-4.4,3.2v1.3H246.4z" />
<path class="st5" d="M262.9,110.9c-0.8,0.7-1.4,1.1-2.3,1.7c1.2,0.8,2.6,1.3,4.3,1.8c-0.3,0.3-0.4,0.5-0.6,1    c-1.4-0.5-2.1-0.8-3.4-1.5c-1-0.5-1.4-0.9-2.1-1.6c-0.7-0.7-1.1-1.2-1.6-2.1c-0.7,0.6-1.9,1.3-2.8,1.8v2.4c1-0.2,2.8-0.6,4-1v0.9    c-1.2,0.3-1.2,0.3-2.9,0.7c-1.2,0.3-1.9,0.5-2.1,0.5l-0.4-1c0.3-0.1,0.4-0.3,0.4-0.6v-1.5c-0.8,0.3-1.7,0.7-2.8,1    c-0.2-0.4-0.2-0.5-0.6-0.9c1-0.3,2.4-0.7,3.4-1.1c0.9-0.4,1.6-0.8,2.5-1.4h-4.1c-0.7,0-1.2,0-1.7,0.1V109c0.5,0.1,1,0.1,1.7,0.1    h5.2c-0.4-0.4-0.7-0.7-1-0.9l0.7-0.6c0.7,0.7,0.7,0.7,1.4,1.5h4.4c0.8,0,1.3,0,1.7-0.1v1.1c-0.5-0.1-1-0.1-1.7-0.1H258    c0.5,0.8,1.1,1.5,1.8,2c1-0.6,1.5-1,2.2-1.7L262.9,110.9z M253.7,105.9c-0.6,0.3-1.5,0.7-2.5,1.1c-0.4,0.2-0.5,0.2-0.8,0.3l-0.4-1    c1-0.1,2.1-0.5,3.7-1.3v-2.7c0-0.6,0-0.9-0.1-1.3h1.2c-0.1,0.4-0.1,0.6-0.1,1.3v4.4c0,0.8,0,1,0.1,1.4h-1.2    c0.1-0.4,0.1-0.7,0.1-1.4V105.9z M251.2,101.8c0.9,0.8,1.2,1.3,1.9,2.2l-0.8,0.6c-0.5-0.9-1-1.4-1.8-2.2L251.2,101.8z M257,104    c-0.7,0-1.2,0-1.6,0.1V103c0.4,0.1,0.8,0.1,1.6,0.1h2v-0.7c0-0.6,0-0.9-0.1-1.3h1.2c-0.1,0.4-0.1,0.6-0.1,1.3v0.7h2.7    c0.8,0,1.2,0,1.6-0.1v1.1c-0.4-0.1-0.8-0.1-1.6-0.1H260v2.4h2.1c0.8,0,1.1,0,1.6-0.1v1c-0.4-0.1-0.8-0.1-1.5-0.1h-4.8    c-0.7,0-1.1,0-1.6,0.1v-1c0.4,0.1,0.8,0.1,1.5,0.1h1.7V104H257z" />
<path class="st5" d="M266.5,105.2c1.1,0.7,1.6,1.1,2.6,2l-0.6,0.8c-1.1-1-1.5-1.4-2.7-2.1L266.5,105.2z M269.4,110.2    c-0.4,1.1-0.5,1.4-1,2.5c-0.3,0.6-0.7,1.6-1.2,2.3c0,0,0,0.1-0.1,0.1c0,0,0,0,0,0c0,0,0,0.1-0.1,0.2l-0.9-0.8    c0.2-0.2,0.3-0.4,0.5-0.7c0.8-1.2,1.3-2.4,1.9-4.2L269.4,110.2z M267.2,101.2c1.2,0.8,1.6,1.2,2.5,2.1l-0.7,0.8    c-1-1.1-1.4-1.4-2.5-2.2L267.2,101.2z M278.6,102.2c0.8,0,1.4,0,1.9-0.1v1c-0.6,0-1.2-0.1-1.9-0.1h-1.2v0.4c0,0.3,0,0.7,0.1,0.9    h-1.1c0-0.1,0-0.1,0-0.2v-0.2c0-0.3,0-0.3,0-0.5v-0.4h-2.7v0.2c0,0.2,0,0.2,0,0.3s0,0.6,0.1,0.8h-1.1c0.1-0.3,0.1-0.7,0.1-1    c0,0,0,0,0-0.1v-0.2h-1.1c-0.9,0-1.3,0-1.9,0.1v-1c0.5,0.1,1.1,0.1,1.9,0.1h1.1v-0.4c0-0.6,0-0.7-0.1-1h1.1    c-0.1,0.4-0.1,0.4-0.1,1v0.4h2.7v-0.4c0-0.6,0-0.7-0.1-1h1.1c-0.1,0.4-0.1,0.5-0.1,1v0.4H278.6z M274.3,112.1    c-0.3-0.7-0.5-1.1-0.8-1.7c-0.3,1.1-0.8,1.9-1.6,2.9c-0.1-0.1-0.2-0.1-0.2-0.2c-0.1-0.1-0.2-0.1-0.3-0.2v1c0,0.7,0,1,0.1,1.4h-1.1    c0-0.5,0.1-1,0.1-1.4v-5.5c0-0.5,0-0.8,0-1.2c0.3,0,0.4,0,1.1,0h1.7c0-0.7,0-0.9,0.1-1.6l-2.1,0h0c-0.4,0-0.8,0-1.2,0.1v-1    c0.4,0.1,0.8,0.1,1.3,0.1h7.9c0.5,0,0.9,0,1.3-0.1v1c-0.4,0-0.8-0.1-1.3-0.1h-2l-0.1,1.6h1.9c0.4,0,0.6,0,0.9,0    c0,0.5-0.1,0.8-0.1,1.2v5.8c0,0.8-0.3,1-1.3,1c-0.4,0-0.9,0-1.6-0.1c0-0.3-0.1-0.5-0.2-1c0.7,0.1,1.2,0.2,1.8,0.2    c0.4,0,0.5-0.1,0.5-0.4v-6H277c-0.1,1-0.1,1-0.2,1.4c0.3,0.4,0.6,0.8,0.9,1.2c0,0,0.4,0.6,1,1.8L278,113c-0.5-1.1-0.6-1.4-1.4-2.6    c-0.4,1.6-0.9,2.5-1.8,3.5c-0.1,0-0.1-0.1-0.1-0.1c-0.2-0.2-0.2-0.2-0.3-0.2c-0.1-0.1-0.2-0.1-0.3-0.2c0.8-0.9,1.2-1.5,1.5-2.6    c0.3-0.8,0.4-1.4,0.5-2.6H274c-0.1,0.8-0.1,1-0.3,1.5c0.5,0.6,0.9,1.2,1.3,2.1L274.3,112.1z M271.4,112.7c0.6-0.8,1-1.3,1.3-2.2    c0.3-0.8,0.4-1.5,0.5-2.5h-1.7L271.4,112.7z M274.1,105.7c0,0.6,0,1.1-0.1,1.6h2.1c0-0.7,0-0.9,0-1.6L274.1,105.7z" />
<path class="st5" d="M287.9,105.6c-0.1,0.3-0.1,0.4-0.3,1c-0.9,2.9-2.5,5.3-4.8,7.1c-0.3-0.4-0.5-0.5-0.9-0.8    c1-0.7,1.8-1.4,2.7-2.5c1-1.3,1.6-2.6,2.1-4.3H284c-0.7,0-1.1,0-1.5,0.1V105c0.4,0.1,0.8,0.1,1.6,0.1h1.7c0.8,0,1.2,0,1.5-0.1    L287.9,105.6z M289.8,103.9c0.2,1,0.4,1.6,0.9,2.7c0.1,0.3,0.3,0.5,0.4,0.7c1.8-1.5,2.9-2.7,3.4-3.7l1,0.8    c-0.2,0.2-0.2,0.2-0.4,0.5c-0.4,0.4-1.5,1.6-2.1,2.1c-0.4,0.3-0.4,0.3-1.4,1.1c0.5,0.8,1.2,1.6,1.9,2.3c1,0.9,1.8,1.6,3.1,2.2    c-0.4,0.4-0.6,0.6-0.8,1c-1.3-0.8-2.4-1.7-3.4-2.9c-0.7-0.8-1.3-1.7-1.8-2.7c-0.4-0.7-0.5-1.1-0.8-2c0.1,1.4,0.1,2.3,0.1,3.1v4.7    c0,1-0.3,1.3-1.5,1.3c-0.6,0-1.2,0-2-0.1c0-0.5-0.1-0.7-0.3-1.1c0.9,0.2,1.5,0.2,2.1,0.2c0.4,0,0.5-0.1,0.5-0.5v-10.9    c0-0.6,0-1.1-0.1-1.6h1.3c-0.1,0.5-0.1,1-0.1,1.6V103.9z" />
</g>
<g>
<path class="st5" d="M197.6,175.6c0.8,0,1.3,0,1.7-0.1v1.1c-0.4,0-1-0.1-1.7-0.1h-6.9c-0.5,1.1-1.5,2.6-2.2,3.5v6.1    c0,0.7,0,1.2,0.1,1.6h-1.2c0.1-0.4,0.1-0.9,0.1-1.6v-4.9c-0.7,0.8-1,1.1-1.8,1.8c-0.2-0.3-0.4-0.5-0.8-0.8    c1.1-0.8,1.8-1.5,2.6-2.4c0-0.4,0-0.7-0.1-1h0.9c0.6-0.8,0.8-1.1,1.3-2.2h-2.5c-0.8,0-1.3,0-1.8,0.1v-1.1c0.4,0.1,0.9,0.1,1.8,0.1    h3c0.5-1,0.7-1.8,0.8-2.4l1.2,0.2c-0.1,0.2-0.2,0.3-0.3,0.7c-0.2,0.4-0.5,1.1-0.6,1.4H197.6z M197,180.6c0.8,0,1.1,0,1.5-0.1v1.1    c-0.4,0-0.8-0.1-1.5-0.1h-2.5v4.5h3.2c0.8,0,1.2,0,1.6-0.1v1.1c-0.6-0.1-1-0.1-1.6-0.1h-6.9c-0.6,0-1.1,0-1.6,0.1V186    c0.5,0,1,0.1,1.6,0.1h2.7v-4.5h-2.1c-0.7,0-1.1,0-1.5,0.1v-1.1c0.4,0.1,0.8,0.1,1.5,0.1h2.1v-1.4c0-0.9,0-1.3-0.1-1.7h1.2    c-0.1,0.4-0.1,0.8-0.1,1.7v1.3H197z" />
<path class="st5" d="M204.8,173.6c-0.1,0.4-0.1,0.7-0.1,1.2c0,1.8,0,3.1-0.1,3.7c0.8-0.8,1.2-1.5,1.7-2.3l0.8,0.7    c-0.2,0.2-0.2,0.2-0.4,0.6c-0.5,0.7-1.1,1.4-2.1,2.3c-0.1,1-0.1,1-0.2,2.1c1,1.3,1.3,1.8,2,2.9l-0.8,0.6c-0.5-1-0.8-1.5-1.4-2.4    c-0.5,1.7-1.2,3.1-2.5,4.6c-0.3-0.4-0.4-0.5-0.8-0.8c1.1-1.2,1.7-2.2,2.2-3.5c0.5-1.6,0.7-3.7,0.7-7.8c0-1.1,0-1.3-0.1-1.9H204.8z     M201.1,180.8c0.5-1.3,0.7-2.3,0.7-4.3l0.9,0.2c-0.1,2.2-0.2,2.9-0.8,4.5L201.1,180.8z M213.3,175.8c0.8,0,1.2,0,1.6-0.1    c0,0.2-0.1,0.8-0.1,1.5v2.8c0,0.9,0,1.5,0.1,2h-1.1v-0.6h-5.4c-0.1,1.6-0.2,2.7-0.6,3.7c-0.4,1.1-0.8,1.9-1.6,3    c-0.4-0.3-0.5-0.4-0.9-0.7c1.1-1.2,1.6-2.4,1.9-4c0.2-1,0.3-2.7,0.3-5.9c0-0.9,0-1.4-0.1-1.8c0.4,0,0.8,0.1,1.6,0.1h2    c-0.4-0.7-1-1.3-1.6-1.9l0.7-0.6c0.8,0.8,1.2,1.3,1.8,2l-0.6,0.5H213.3z M213.8,180.4v-3.7h-5.3v1c0,1.3,0,2,0,2.7H213.8z" />
<path class="st5" d="M228.5,178.5c0.7,0,1.2,0,1.7-0.1v1.2c-0.5-0.1-1-0.1-1.7-0.1h-4v6.5h5.2c0.8,0,1.2,0,1.8-0.1v1.2    c-0.6-0.1-1.1-0.1-1.8-0.1H219c-0.7,0-1.3,0-1.9,0.1v-1.2c0.5,0.1,1.1,0.1,1.9,0.1h4.3v-10.8c0-0.6,0-1.1-0.1-1.7h1.4    c-0.1,0.5-0.1,1.1-0.1,1.7v3.3H228.5z" />
<path class="st5" d="M236.8,176.5c0.5,0,0.8,0,1.1-0.1v1.1c-0.4,0-0.6-0.1-1.1-0.1h-0.6v3.1c0.1,0,0.1,0,0.2-0.1    c0.3-0.1,0.7-0.3,1.6-0.7v1c-0.6,0.3-0.6,0.3-1.8,0.8v4.9c0,0.9-0.4,1.1-2,1.1c-0.2,0-0.4,0-0.8,0c0-0.4-0.1-0.6-0.2-1    c0.5,0.1,1,0.1,1.3,0.1c0.6,0,0.7-0.1,0.7-0.4V182c-0.1,0-0.7,0.3-0.9,0.3c-0.2,0.1-0.4,0.2-0.8,0.3c-0.1,0-0.1,0-0.2,0.1    l-0.3-1.1c0.7-0.1,0.8-0.1,2.2-0.7v-3.5h-0.9c-0.4,0-0.8,0-1.2,0.1v-1.1c0.4,0.1,0.8,0.1,1.2,0.1h0.9V175c0-0.7,0-1.1-0.1-1.6h1.2    c-0.1,0.5-0.1,0.9-0.1,1.6v1.5H236.8z M238.5,175.7c0-0.8,0-1,0-1.5c0.5,0,0.8,0.1,1.5,0.1h5.5c0.7,0,1.1,0,1.5-0.1    c-0.1,0.4-0.1,0.8-0.1,1.4v3.8c0,0.6,0,1.1,0.1,1.5c-0.4,0-0.8-0.1-1.5-0.1h-5.9v4.8c0,0.4,0.1,0.6,0.5,0.7    c0.4,0.1,1.2,0.1,2.8,0.1c2.1,0,2.9-0.1,3.2-0.5c0.3-0.3,0.4-1.1,0.5-2.7c0.4,0.2,0.6,0.3,1.1,0.4c-0.2,2.1-0.4,2.8-0.9,3.2    c-0.5,0.4-1.6,0.5-4,0.5c-2,0-2.8-0.1-3.3-0.2c-0.6-0.2-0.8-0.5-0.8-1.2V175.7z M242.2,175.2h-2.7v4.8h2.7V175.2z M245.8,180v-4.8    h-2.7v4.8H245.8z" />
<path class="st5" d="M250.9,176.1c-0.5,0.9-0.8,1.4-1.5,2.1c-0.2-0.4-0.4-0.5-0.7-0.8c0.9-0.9,1.2-1.4,1.8-2.8    c0.1-0.3,0.3-0.9,0.4-1.2l1.1,0.3c-0.1,0.3-0.1,0.3-0.4,0.8c0,0-0.1,0.3-0.4,0.8h1.8c0.8,0,1.2,0,1.5-0.1v1.1    c-0.4-0.1-0.8-0.1-1.5-0.1H250.9z M250.6,182.1c-0.6,0-1.1,0-1.5,0.1v-1c0.4,0,0.9,0.1,1.5,0.1h0.8v-2.4h-0.5    c-0.3,0-0.8,0-1.1,0.1v-1c0.4,0,0.6,0.1,1.1,0.1h2.4c0.4,0,0.8,0,1.1-0.1v1c-0.4,0-0.7,0-1.1,0h-0.9v2.4h0.7c0.6,0,1,0,1.5-0.1v1    c-0.5-0.1-1-0.1-1.5-0.1h-0.7v3.8c0.6-0.3,1.5-0.8,2.1-1.3l0,1.1c-0.6,0.3-1.5,0.9-1.9,1.1c-0.7,0.4-0.7,0.4-1.1,0.6l-0.5-1    c0.3-0.2,0.4-0.3,0.4-0.6v-3.8H250.6z M261.1,185c-0.5-1.1-1.1-2.1-2.2-3.5c-0.5,1.6-1.1,2.6-2.2,3.6c-0.2-0.3-0.3-0.5-0.7-0.8    c1.3-1.1,1.9-2.4,2.2-4.2h-2.3v5.8c0,0.8,0,1.2,0.1,1.8h-1.1c0.1-0.5,0.1-1,0.1-1.8v-5.3c0-0.6,0-1,0-1.4c0.3,0,0.6,0,1.1,0h2.3    c0-0.2,0-0.5,0-0.9v-0.8h-1.5c-0.6,0-1,0-1.4,0c0-0.4,0.1-0.7,0.1-1.3v-1.3c0-0.5,0-0.9-0.1-1.3c0.4,0.1,0.9,0.1,1.4,0.1h4.2    c0.6,0,1,0,1.4-0.1c0,0.4-0.1,0.7-0.1,1.3v1.2c0,0.6,0,1,0.1,1.3c-0.4,0-0.4,0-1.5,0h-1.7v0.8c0,0.1,0,0.3-0.1,0.7    c0,0,0,0.1,0,0.2h2.5c0.7,0,1,0,1.3-0.1c0,0.4-0.1,0.8-0.1,1.4v5.8c0,0.9-0.4,1.2-1.7,1.2c-0.3,0-0.6,0-1.1,0c0-0.4-0.1-0.6-0.2-1    c0.7,0.1,1,0.1,1.5,0.1c0.5,0,0.6-0.1,0.6-0.4v-6.2h-2.9c0,0.2,0,0.2-0.1,0.4c1,1.1,2,2.4,2.9,3.9L261.1,185z M256.5,176.8h5v-2    h-5V176.8z" />
<path class="st5" d="M277.4,179.8c0.9,0,1.4,0,1.9-0.1v1.2c-0.6-0.1-1.1-0.1-1.9-0.1h-4.5v5.3c0,1.1-0.4,1.3-1.9,1.3    c-0.5,0-1,0-2-0.1c-0.1-0.5-0.1-0.7-0.3-1.1c1,0.1,1.6,0.2,2.3,0.2c0.6,0,0.8-0.1,0.8-0.5v-5.2h-4.8c-0.8,0-1.4,0-2,0.1v-1.2    c0.6,0.1,1.1,0.1,2,0.1h4.7v-1.1c0-0.4,0-0.7,0-1.1h0.7c1.5-0.8,2.4-1.4,3.6-2.6h-7.7c-0.6,0-1.2,0-1.6,0.1V174    c0.5,0.1,1,0.1,1.6,0.1h7.6c0.7,0,1,0,1.2-0.1l0.7,0.7c-0.4,0.3-0.4,0.4-0.6,0.5c-1.8,1.6-2.4,2-4.4,3.2v1.3H277.4z" />
<path class="st5" d="M285.7,185.7c-0.7-1.1-1.4-2-1.8-2.4c-0.4,1.6-1.2,3-2.4,4.4c-0.2-0.4-0.4-0.5-0.8-0.8c1.3-1.3,2-2.7,2.4-4.7    c0.3-1.4,0.4-3.6,0.4-6.1c0-1.6,0-2-0.1-2.6h1.2c-0.1,0.5-0.1,0.5-0.1,3c0,0.5,0,0.9,0,1.6c0.5-0.5,0.8-1,1.2-1.8l0.8,0.7    c-0.7,1-1.3,1.6-2,2.3c-0.1,1.6-0.2,2.1-0.3,2.9c0.8,0.8,1.5,1.7,2.3,2.9L285.7,185.7z M280.9,180.7c0.3-0.7,0.4-1.1,0.6-1.8    c0.2-0.9,0.2-1.5,0.2-2.5l1,0.1c-0.1,1.9-0.3,2.9-0.8,4.5L280.9,180.7z M287.1,182.5c-0.6,0-1,0-1.4,0.1v-1    c0.4,0.1,0.7,0.1,1.4,0.1h6.9c0.7,0,1,0,1.4-0.1v1c-0.4-0.1-0.8-0.1-1.4-0.1h-2v3.7c0,0.4,0.3,0.5,1.2,0.5c0.5,0,0.9-0.1,1-0.3    c0.1-0.2,0.2-0.7,0.2-1.6c0.3,0.2,0.6,0.3,0.9,0.4c-0.1,1.2-0.2,1.6-0.5,1.9c-0.3,0.3-0.8,0.5-1.8,0.5c-1.6,0-2.1-0.2-2.1-1.1v-4    h-1.6c-0.1,1.5-0.3,2.5-0.7,3.2c-0.6,0.9-1.5,1.6-3,2.1c-0.2-0.4-0.3-0.6-0.6-0.9c1.5-0.4,2.3-0.9,2.7-1.7    c0.3-0.5,0.5-1.3,0.5-2.2l0-0.4H287.1z M294,176.9c-0.2,0.2-0.2,0.2-0.5,0.5c-0.4,0.4-0.9,0.8-1.6,1.3c0.8,0.7,1.4,1.1,1.8,1.1    c0.3,0,0.4-0.2,0.6-0.6c0.1-0.3,0.1-0.6,0.2-1.2c0.3,0.3,0.5,0.4,0.9,0.6c-0.1,0.9-0.2,1.2-0.4,1.6c-0.2,0.4-0.6,0.6-1,0.6    c-0.8,0-1.8-0.5-2.8-1.6c-1.3,0.8-2.7,1.2-4.7,1.6c-0.1-0.3-0.2-0.5-0.5-0.9c1.4-0.2,1.9-0.3,2.8-0.6c0.7-0.2,1.2-0.5,1.8-0.8    c-0.6-0.8-1-1.5-1.4-2.4l-1.5,0.2c-0.6,0.1-1,0.1-1.4,0.2l-0.1-1c0.2,0,0.2,0,0.4,0c0.3,0,0.5,0,1-0.1l1.4-0.2    c-0.2-0.9-0.3-1-0.3-1.4c0-0.2,0-0.2-0.1-0.5l1.1-0.1c0,0,0,0.1,0,0.1c0,0.4,0.1,1.2,0.3,1.8l3.6-0.4c0.6-0.1,1.1-0.1,1.4-0.2    l0.1,1c-0.1,0-0.2,0-0.2,0c-0.3,0-0.7,0-1.2,0.1l-3.5,0.4c0.4,0.8,0.7,1.5,1.2,2.1c0.9-0.6,1.6-1.3,1.9-1.8L294,176.9z" />
<path class="st5" d="M297.2,187c1.1-0.9,1.6-1.5,2.1-2.7l0.9,0.4c-0.6,1.3-1.1,1.9-2.1,2.9L297.2,187z M300,174.6    c0-0.6,0-0.9-0.1-1.3h1.1c-0.1,0.4-0.1,0.6-0.1,1.3v1h1c0.5,0,0.6,0,1-0.1v1c-0.3,0-0.5-0.1-1-0.1h-1v2.5c0.7-0.1,1-0.2,1.9-0.4    v0.8c-1,0.2-1.4,0.3-1.9,0.4v2.8c0,0.8-0.4,1.1-1.4,1.1c-0.4,0-0.8,0-1.4,0c0-0.4-0.1-0.6-0.2-1c0.6,0.1,1.1,0.1,1.5,0.1    c0.4,0,0.5-0.1,0.5-0.4V180c-0.4,0.1-1.1,0.2-1.6,0.2c-0.4,0.1-0.7,0.1-1,0.2l-0.1-1c0.1,0,0.2,0,0.2,0c0.5,0,1.6-0.1,2.4-0.2    v-2.7h-1.3c-0.5,0-0.8,0-1.2,0.1v-1c0.4,0.1,0.6,0.1,1.2,0.1h1.3V174.6z M302,187.7c0-1.2-0.1-1.9-0.4-2.8l0.9-0.1    c0.2,0.9,0.4,1.7,0.5,2.9L302,187.7z M306.6,176.5c-0.1,1.7-0.2,2.4-0.5,3.5c0.7,0.6,1.4,1.2,2.3,2.1l-0.7,0.8    c-0.8-0.9-1.1-1.2-2-2c-0.2,0.5-0.6,1.1-1,1.6c-0.5,0.6-0.9,1-1.8,1.6c-0.2-0.3-0.4-0.5-0.7-0.7c0.9-0.6,1.4-0.9,1.9-1.6    c0.4-0.5,0.7-1,1-1.6c-0.5-0.5-0.9-0.7-1.8-1.4l0.6-0.7c0.7,0.6,0.8,0.6,1.5,1.2c0.2-0.8,0.3-1.9,0.4-2.9h-1.2    c-0.4,0-0.8,0-1.1,0.1v-1.1c0.3,0.1,0.7,0.1,1.1,0.1h1.2c0-0.3,0-0.4,0-0.5c0-0.9,0-1.3-0.1-1.7h1.1c-0.1,0.4-0.1,0.4-0.1,2.3h1.8    c0.5,0,0.9,0,1.3-0.1c-0.1,0.3-0.1,0.7-0.1,1.6c0,1.7,0.2,3.3,0.4,4.5c0.1,0.6,0.2,0.8,0.5,1.2c0.2-0.3,0.2-0.3,0.3-0.8    c0.1-0.6,0.1-0.9,0.2-1.5c0.3,0.3,0.5,0.4,0.8,0.5c-0.3,2.1-0.6,2.8-1.2,2.8c-0.5,0-1-0.6-1.3-1.6c-0.4-1.3-0.5-2.9-0.5-5.8H306.6    z M305.8,187.6c-0.3-1.3-0.5-2-0.9-2.8l0.9-0.2c0.4,0.9,0.6,1.5,1,2.8L305.8,187.6z M310.3,187.8c-0.7-1.2-1.1-1.9-2.1-3.1    l0.8-0.4c1.2,1.3,1.5,1.8,2.2,2.9L310.3,187.8z" />
</g>
<g>
<path class="st6" d="M367.6,255.2c0.9,0.1,1.7,0.2,2.9,0.2c1,0,1.9,0,3.5-0.2c-0.2,0.4-0.3,0.6-0.4,1.1c-1.2,0.1-1.8,0.1-2.6,0.1    c-2.6,0-4.4-0.3-5.6-0.8c-0.8-0.4-1.6-1-2.4-1.9c-0.6,1.2-1.3,2.1-2.5,3c-0.3-0.3-0.5-0.5-0.8-0.7c1.8-1.2,2.9-3,3.3-5.2l1.1,0.3    c-0.4,1.2-0.4,1.3-0.6,1.7c0.9,1.2,1.9,1.9,3,2.2v-4.8h-5c-0.6,0-1.1,0-1.6,0.1v-1.1c0.4,0.1,0.9,0.1,1.6,0.1h10.8    c0.7,0,1.2,0,1.6-0.1v1.1c-0.6-0.1-1.1-0.1-1.6-0.1h-4.7v1.8h3.4c0.8,0,1.1,0,1.5-0.1v1c-0.4-0.1-0.8-0.1-1.5-0.1h-3.4V255.2z     M363.7,248.2c-0.7,0-1.2,0-1.8,0.1c0-0.4,0.1-0.8,0.1-1.3v-2.7c0-0.6,0-0.9-0.1-1.3c0.5,0,1,0.1,1.8,0.1h6.5c0.8,0,1.2,0,1.8-0.1    c0,0.4-0.1,0.8-0.1,1.3v2.7c0,0.6,0,0.9,0.1,1.3c-0.5,0-1-0.1-1.7-0.1H363.7z M363,245.1h8v-1.3h-8V245.1z M363,247.3h8V246h-8    V247.3z" />
</g>
<g>
<path class="st6" d="M115.7,211.3c-0.6,0-1.2,0-1.7,0.1v-1.2c0.5,0.1,1,0.1,1.7,0.1h10.6c0.8,0,1.3,0,1.7-0.1v1.2    c-0.5-0.1-1.1-0.1-1.7-0.1h-4c-0.4,0.8-0.6,1.1-1,1.8v8.9c0,0.7,0,1.2,0.1,1.7h-1.3c0.1-0.5,0.1-1.1,0.1-1.7v-5.7    c0-0.6,0-1.2,0-1.8c-0.6,0.8-1.4,1.7-2.4,2.6c-1,0.9-2,1.6-3.5,2.5c-0.2-0.4-0.4-0.6-0.7-0.9c2.1-1.1,3.5-2.2,5-3.7    c1.1-1.2,1.9-2.3,2.5-3.6H115.7z M122.7,214c1.6,1.1,4,3,5.8,4.6l-0.7,0.9c-0.9-0.9-1.2-1.2-2.8-2.5c-1.1-0.9-1.7-1.4-2.9-2.3    L122.7,214z" />
</g>
<g>
<path class="st5" d="M464.4,260.3c-0.1,2-0.3,3.2-0.6,4.5c-0.3,1.2-0.6,2.2-1.2,3.2c-0.5,0.9-0.8,1.4-1.6,2.4    c-0.3-0.4-0.5-0.6-0.8-0.9c0.9-1,1.3-1.6,1.8-2.7c0.8-1.7,1.2-3.8,1.4-6.7h-1c-0.7,0-1.2,0-1.7,0.1v-1.2c0.4,0.1,1,0.1,1.8,0.1    h0.9c0-0.5,0-0.8,0-1.3c0-1,0-1.3-0.1-1.7h1.2c-0.1,0.4-0.1,0.4-0.1,3h1.7c0.8,0,1.2,0,1.7-0.1c-0.1,0.5-0.1,0.5-0.1,2    c0,2.6-0.2,5.2-0.5,6.8c-0.3,1.6-0.6,2-1.7,2c-0.5,0-1.2-0.1-1.9-0.2c0-0.5,0-0.6-0.2-1.1c0.8,0.2,1.4,0.3,1.9,0.3    c0.4,0,0.6-0.1,0.8-0.4c0.2-0.5,0.5-2.6,0.6-4.3c0.1-1.5,0.1-2.4,0.1-4.1H464.4z M470.2,270.3h-1.1c0.1-0.4,0.1-1.2,0.1-1.8V260    c0-0.7,0-1.2-0.1-1.7c0.5,0.1,0.8,0.1,1.4,0.1h2.7c0.6,0,0.9,0,1.4-0.1c-0.1,0.5-0.1,0.9-0.1,1.7v8.6c0,0.6,0,1.1,0.1,1.6h-1.1    V269h-3.3V270.3z M470.2,268.1h3.3v-8.8h-3.3V268.1z" />
<path class="st5" d="M481.6,256.6c0.8,0.5,1.4,1,2.1,1.6c0.7,0.7,1.2,1.5,1.7,3.1c0.7,2.1,0.9,2.5,1.4,3.5    c0.7,1.3,1.3,2.3,2.1,3.1c0.5,0.5,1.1,1,2.2,1.7c-0.4,0.3-0.6,0.5-0.9,0.9c-1.5-1.1-2.4-2-3.2-3.2c-0.4-0.7-1-1.6-1.4-2.5    c-0.3-0.6-0.4-0.8-1.1-2.8c-0.2-0.5-0.3-0.8-0.5-1.2c-0.1,0.3-0.1,0.3-0.3,0.8c-0.6,1.9-1.5,3.8-2.5,5.3c-1,1.5-1.9,2.3-3.8,3.7    c-0.2-0.4-0.4-0.5-0.8-0.9c1.7-1,2.5-1.7,3.5-3.1c0.9-1.2,1.9-3,2.5-4.8c0.1-0.3,0.3-1.1,0.7-2.3c-0.7-0.9-0.9-1.1-2.5-2    L481.6,256.6z" />
<path class="st5" d="M503.4,258.7c0.8,0,1.3,0,1.9-0.1c-0.1,0.6-0.1,1-0.1,2v8.2c0,1,0,1.4,0.1,1.9h-1.2v-0.9h-8.7v0.9h-1.2    c0.1-0.5,0.1-1,0.1-1.9v-8.1c0-0.9,0-1.5-0.1-2c0.5,0.1,1,0.1,1.8,0.1h2c0.4-0.8,0.8-1.6,1-2.4l1.2,0.2c0,0.1,0,0.1-0.1,0.3    c-0.3,0.6-0.6,1.4-0.9,1.9H503.4z M495.4,263.5h8.7v-3.9h-8.7V263.5z M495.4,268.7h8.7v-4.3h-8.7V268.7z" />
<path class="st5" d="M516.6,263.1c1.4,2.2,3.7,4,6.5,5.2c-0.3,0.4-0.4,0.6-0.7,1.1c-1.7-0.9-2.9-1.7-4.1-2.8    c-1-0.9-1.7-1.8-2.3-2.9c0,0.4,0,0.9,0.1,1.6v3.6c0,0.7,0,1.3,0.1,2H515c0.1-0.6,0.1-1.2,0.1-2v-3.6c0-0.7,0-1.2,0.1-1.6    c-0.8,1.3-1.4,2.2-2.6,3.3c-0.9,0.9-1.8,1.5-3.3,2.4c-0.2-0.5-0.4-0.7-0.8-1c1.7-0.8,3-1.7,4.2-2.9c0.8-0.7,1.4-1.6,1.9-2.4h-4    c-0.7,0-1.3,0-1.7,0.1V262c0.4,0.1,0.9,0.1,1.7,0.1h4.5V258c0-0.7,0-1.1-0.1-1.6h1.2c-0.1,0.4-0.1,0.9-0.1,1.6v4.1h4.8    c0.8,0,1.2,0,1.7-0.1v1.1c-0.4-0.1-1-0.1-1.7-0.1H516.6z M512.5,261.5c-0.6-1.4-1.2-2.3-2.1-3.6l0.9-0.5c1,1.3,1.5,2.1,2.2,3.6    L512.5,261.5z M517.9,261c1.1-1.2,1.7-2.2,2.3-3.7l1,0.6c-0.7,1.5-1.4,2.4-2.5,3.8L517.9,261z" />
</g>
<g>
<path class="st5" d="M455,98.6c-0.3,1.3-0.8,2.6-1.3,3.8c-0.1,0.3-0.2,0.3-0.2,0.5l-1-0.6c0.2-0.2,0.3-0.5,0.6-0.9    c0.5-1,0.8-1.7,1.2-3.3L455,98.6z M453.6,93.5c0.5,1.3,0.8,2.4,1.1,3.4l-0.9,0.4c-0.3-1.3-0.6-2.4-1.1-3.4L453.6,93.5z     M456.6,91.4c-0.1,0.5-0.1,0.9-0.1,1.6v11.1c0,0.7,0,1.3,0.1,1.8h-1.2c0.1-0.5,0.1-1,0.1-1.8V93c0-0.7,0-1.1-0.1-1.6H456.6z     M465.4,99.1c0.7,0,1.2,0,1.6-0.1v1.1c-0.4-0.1-1-0.1-1.6-0.1h-0.5v4.4c0,0.9-0.4,1.2-1.7,1.2c-0.6,0-1.2,0-2.1-0.1    c0-0.5-0.1-0.7-0.2-1.1c0.9,0.2,1.6,0.3,2.3,0.3c0.5,0,0.7-0.1,0.7-0.4V100h-5.2c-0.6,0-1.1,0-1.5,0.1V99c0.4,0.1,0.8,0.1,1.5,0.1    h5.2v-0.4c0-0.6,0-0.9-0.1-1.3h1.2c-0.1,0.4-0.1,0.7-0.1,1.3v0.4H465.4z M460.7,93.3c-1,0.8-1.6,1.2-2.9,1.8    c-0.1-0.3-0.2-0.4-0.6-0.8c1.4-0.5,2.6-1.3,3.5-2.2c0.3-0.3,0.4-0.5,0.6-0.9l1.1,0.3c-0.1,0.1-0.1,0.1-0.4,0.4    c-0.3,0.4-0.4,0.5-0.5,0.6h3.2c0.7,0,1.1,0,1.4-0.1l0.7,0.7c-0.1,0.1-0.1,0.1-0.2,0.3c-0.9,1.2-2,2.2-3.2,3    c-1.6,1-3.2,1.7-5.6,2.3c-0.2-0.4-0.3-0.6-0.6-0.9c1.8-0.4,3-0.7,4.5-1.5c-0.5-0.5-1.1-1-1.8-1.4l0.8-0.6c0.7,0.4,1,0.7,1.9,1.5    c1.3-0.8,2-1.4,2.9-2.5H460.7z M460.9,103.7c-0.7-1.1-1.3-1.7-2.2-2.6l0.7-0.6c1,0.9,1.6,1.6,2.3,2.5L460.9,103.7z" />
<path class="st5" d="M470.4,94.1c-0.5,0.9-0.8,1.4-1.5,2.1c-0.2-0.4-0.4-0.5-0.7-0.8c0.9-0.9,1.2-1.4,1.8-2.8    c0.1-0.3,0.3-0.9,0.4-1.2l1.1,0.3c-0.1,0.3-0.1,0.3-0.4,0.8c0,0-0.1,0.3-0.4,0.8h1.8c0.8,0,1.2,0,1.5-0.1v1.1    c-0.4-0.1-0.8-0.1-1.5-0.1H470.4z M470.2,100.1c-0.6,0-1.1,0-1.5,0.1v-1c0.4,0,0.9,0.1,1.5,0.1h0.8v-2.4h-0.5    c-0.3,0-0.8,0-1.1,0.1v-1c0.4,0,0.6,0.1,1.1,0.1h2.4c0.4,0,0.8,0,1.1-0.1v1c-0.4,0-0.7,0-1.1,0H472v2.4h0.7c0.6,0,1,0,1.5-0.1v1    c-0.5-0.1-1-0.1-1.5-0.1H472v3.8c0.6-0.3,1.5-0.8,2.1-1.3l0,1.1c-0.6,0.3-1.5,0.9-1.9,1.1c-0.7,0.4-0.7,0.4-1.1,0.6l-0.5-1    c0.3-0.2,0.4-0.3,0.4-0.6v-3.8H470.2z M480.7,103c-0.5-1.1-1.1-2.1-2.2-3.5c-0.5,1.6-1.1,2.6-2.2,3.6c-0.2-0.3-0.3-0.5-0.7-0.8    c1.3-1.1,1.9-2.4,2.2-4.2h-2.3v5.8c0,0.8,0,1.2,0.1,1.8h-1.1c0.1-0.5,0.1-1,0.1-1.8v-5.3c0-0.6,0-1,0-1.4c0.3,0,0.6,0,1.1,0h2.3    c0-0.2,0-0.5,0-0.9v-0.8h-1.5c-0.6,0-1,0-1.4,0c0-0.4,0.1-0.7,0.1-1.3v-1.3c0-0.5,0-0.9-0.1-1.3c0.4,0.1,0.9,0.1,1.4,0.1h4.2    c0.6,0,1,0,1.4-0.1c0,0.4-0.1,0.7-0.1,1.3v1.2c0,0.6,0,1,0.1,1.3c-0.4,0-0.4,0-1.5,0h-1.7v0.8c0,0.1,0,0.3-0.1,0.7    c0,0,0,0.1,0,0.2h2.5c0.7,0,1,0,1.3-0.1c0,0.4-0.1,0.8-0.1,1.4v5.8c0,0.9-0.4,1.2-1.7,1.2c-0.3,0-0.6,0-1.1,0c0-0.4-0.1-0.6-0.2-1    c0.7,0.1,1,0.1,1.5,0.1c0.5,0,0.6-0.1,0.6-0.4v-6.2h-2.9c0,0.2,0,0.2-0.1,0.4c1,1.1,2,2.4,2.9,3.9L480.7,103z M476,94.8h5v-2h-5    V94.8z" />
<path class="st5" d="M492.2,101h4.3c0.7,0,1,0,1.4-0.1v1.1c-0.5-0.1-0.8-0.1-1.4-0.1h-4.3v2.2h5c0.8,0,1.2,0,1.7-0.1v1.2    c-0.6-0.1-1.1-0.1-1.7-0.1h-10.7c-0.6,0-1.2,0-1.7,0.1v-1.2c0.4,0.1,1,0.1,1.7,0.1h4.7V102h-4.1c-0.6,0-1,0-1.5,0.1V101    c0.4,0.1,0.8,0.1,1.5,0.1h4.1v-1.9h-3.1c-0.9,0-1.5,0-1.9,0.1c0-0.5,0.1-0.8,0.1-1.7v-3.7c0-0.9,0-1.2-0.1-1.8    c0.4,0.1,0.9,0.1,1.8,0.1h7.5c0.9,0,1.4,0,1.8-0.1c0,0.5-0.1,0.8-0.1,1.7v3.8c0,1,0,1.3,0.1,1.7c-0.4-0.1-0.9-0.1-1.8-0.1h-3.3    V101z M491.2,93h-3.8v2.1h3.8V93z M491.2,96.1h-3.8v2.2h3.8V96.1z M496.2,95.2V93h-4v2.1H496.2z M496.2,98.2v-2.2h-4v2.2H496.2z" />
<path class="st5" d="M504.9,93.8c0.8,0,1.3,0,1.4,0c0,0.4,0,0.8,0,1.4v8.1c0,0.7,0,1.3,0.1,1.6h-1.1v-1h-3.1v1.4h-1.1    c0.1-0.4,0.1-1,0.1-2v-8.1c0-0.8,0-1.1-0.1-1.5c0.3,0,0.6,0,1.4,0h0.3c0.3-0.8,0.6-1.6,0.7-2.4l1.1,0.2c-0.3,0.9-0.6,1.7-0.8,2.2    H504.9z M502.2,98.2h3.1v-3.6h-3.1V98.2z M502.2,103h3.1v-3.9h-3.1V103z M513.3,93.8c0.6,0,1.1,0,1.4-0.1c0,0.3,0,0.4-0.1,1    c-0.1,6.3-0.4,8.5-0.9,9.8c-0.3,0.7-0.8,1-1.8,1c-0.6,0-1,0-2-0.1c0-0.5-0.1-0.7-0.3-1.1c1,0.2,1.7,0.3,2.3,0.3    c0.6,0,0.8-0.1,1-0.7c0.3-0.7,0.5-2.3,0.6-4.4c0.1-1.3,0.1-2.4,0.1-4.7H509c-0.5,1.1-1,1.8-1.8,2.9c-0.2-0.3-0.5-0.5-0.8-0.7    c1-1,1.8-2.4,2.4-4c0.2-0.6,0.4-1.2,0.4-1.6l1.1,0.2c0,0.1-0.1,0.3-0.2,0.6c-0.2,0.6-0.4,1-0.6,1.6H513.3z M510.7,101.3    c-0.9-1.9-1.5-2.9-2.4-4l0.8-0.5c1,1.2,1.7,2.3,2.5,4L510.7,101.3z" />
<path class="st5" d="M524.6,98c1.4,2.2,3.7,4,6.5,5.2c-0.3,0.4-0.4,0.6-0.7,1.1c-1.7-0.9-2.9-1.7-4.1-2.8c-1-0.9-1.7-1.8-2.3-2.9    c0,0.4,0,0.9,0.1,1.6v3.6c0,0.7,0,1.3,0.1,2H523c0.1-0.6,0.1-1.2,0.1-2v-3.6c0-0.7,0-1.2,0.1-1.6c-0.8,1.3-1.4,2.2-2.6,3.3    c-0.9,0.9-1.8,1.5-3.3,2.4c-0.2-0.5-0.4-0.7-0.8-1c1.7-0.8,3-1.7,4.2-2.9c0.8-0.7,1.4-1.6,1.9-2.4h-4c-0.7,0-1.3,0-1.7,0.1V97    c0.4,0.1,0.9,0.1,1.7,0.1h4.5V93c0-0.7,0-1.1-0.1-1.6h1.2c-0.1,0.4-0.1,0.9-0.1,1.6v4.1h4.8c0.8,0,1.2,0,1.7-0.1v1.1    c-0.4-0.1-1-0.1-1.7-0.1H524.6z M520.5,96.4c-0.6-1.4-1.2-2.3-2.1-3.6l0.9-0.5c1,1.3,1.5,2.1,2.2,3.6L520.5,96.4z M525.9,96    c1.1-1.2,1.7-2.2,2.3-3.7l1,0.6c-0.7,1.5-1.4,2.4-2.5,3.8L525.9,96z" />
<path class="st5" d="M454.6,114.1c-0.6,1.6-0.8,2-1.6,3.3c-0.3-0.4-0.5-0.6-0.8-0.7c0.9-1.2,1.4-2.4,1.9-4.3    c0.2-0.8,0.3-1.3,0.3-1.8l1.2,0.2c-0.1,0.2-0.1,0.2-0.2,0.9c-0.1,0.4-0.2,0.7-0.4,1.6h1.6c0.8,0,1.2,0,1.5-0.1l0.6,0.6    c-0.1,0.2-0.1,0.2-0.5,1.4c-0.2,0.5-0.4,0.9-0.8,1.7c-0.3-0.2-0.5-0.3-0.9-0.4c0.5-0.7,0.7-1.1,1-2.3H454.6z M454.7,117.8    c0-0.8,0-1.3-0.1-1.7h1.2c-0.1,0.4-0.1,0.8-0.1,1.7v4.9c0.7-0.4,1.4-0.8,2.1-1.2l0.1,1c-0.8,0.5-1.4,0.8-2.3,1.3    c-0.5,0.3-0.7,0.4-1,0.5l-0.4-1c0.3-0.1,0.4-0.2,0.4-0.6V117.8z M464.3,115c0.7,0,1.1,0,1.4-0.1l0.5,0.5c-0.1,0.3-0.1,0.3-0.3,1.1    c-0.4,2-1.1,3.5-1.9,4.8c0.9,1.1,1.8,1.8,3.4,2.6c-0.3,0.4-0.4,0.5-0.6,1c-1.3-0.8-2.4-1.6-3.3-2.8c-1,1.2-1.8,1.9-3.2,2.7    c-0.2-0.5-0.3-0.6-0.7-0.9c1.3-0.7,2.2-1.4,3.2-2.7c-1.1-1.6-1.6-3.1-2-5.4h-0.7v0.9c0,2-0.2,3.9-0.6,5.2    c-0.3,1.2-0.8,2.1-1.5,3.1c-0.4-0.3-0.5-0.5-0.9-0.7c0.7-0.9,1.2-1.9,1.5-3c0.4-1.6,0.5-3.2,0.5-7.4c0-1.2,0-1.9-0.1-2.4    c0.2,0,0.3,0,0.4,0c1.3,0,3-0.2,4.1-0.4c1-0.2,1.7-0.4,2.2-0.8l0.8,0.9c-0.1,0-0.1,0-0.3,0.1c-0.6,0.3-1.2,0.4-1.9,0.6    c-1.1,0.2-2.7,0.4-4.2,0.5l0,1.7v0.8H464.3z M461.7,115.9c0.3,1.8,0.9,3.2,1.7,4.5c0.4-0.7,0.8-1.3,1.1-2.2    c0.3-0.7,0.4-1.2,0.6-2.4H461.7z" />
<path class="st5" d="M471,123c0,1,0,1.4,0.1,2h-1.1c0.1-0.5,0.1-1.1,0.1-2v-4.8c0-0.9,0-1.6,0-2.4c-0.5,1-0.9,1.6-1.5,2.4    c-0.3-0.5-0.3-0.5-0.6-0.9c0.9-1,1.6-2.2,2.2-3.5c0.5-1.2,0.9-2.5,1.1-3.4l1,0.3c0,0.1-0.2,0.6-0.4,1.3c-0.1,0.4-0.2,0.5-0.8,2.1    V123z M474.5,117.9c0-0.5,0-0.8-0.1-1.1h1.1c-0.1,0.3-0.1,0.6-0.1,1.1v0.9h1.5c0.6,0,0.9,0,1.2-0.1v1c-0.3,0-0.7,0-1.2,0h-1.5v2.5    c1.4-0.3,1.7-0.4,3-0.7l0,0.9c-1.8,0.5-3,0.8-5.9,1.3c-0.3,0-0.6,0.1-0.8,0.2l-0.2-1.1h0c0.5,0,1.6-0.1,2.8-0.4c0,0,0.1,0,0.1,0    v-2.7h-1.4c-0.5,0-0.8,0-1.1,0.1v-1c0.3,0.1,0.6,0.1,1.2,0.1h1.4V117.9z M475,112.4c-0.1,0.2-0.1,0.2-0.2,0.4    c-0.5,1.2-0.9,2-1.4,2.8c0.8,0,2.7-0.2,3.6-0.4c-0.4-0.7-0.6-0.9-1.1-1.6l0.7-0.4c0.8,1.1,1.4,2.1,2,3.2l-0.8,0.5    c-0.2-0.5-0.3-0.7-0.4-0.9c-1.5,0.2-2.2,0.3-2.8,0.4c-0.6,0.1-2.4,0.3-2.6,0.3l-0.2-1c0.4,0,0.5-0.1,0.7-0.3    c0-0.1,0.1-0.1,0.1-0.2l0,0c0.4-0.6,1-1.8,1.4-2.8h-0.7c-0.5,0-0.8,0-1.1,0.1v-1c0.3,0.1,0.7,0.1,1.3,0.1h3.5c0.7,0,1,0,1.4-0.1v1    c-0.3,0-0.8,0-1.3,0H475z M479,121.2c0.1-0.4,0.1-0.9,0.1-1.6v-6.3c0-0.7,0-1.2-0.1-1.6h1.1c-0.1,0.4-0.1,0.8-0.1,1.6v6.3    c0,0.8,0,1.2,0.1,1.6H479z M482.6,123.6c0,1-0.4,1.2-2,1.2c-0.4,0-0.7,0-1.3,0c0-0.4-0.1-0.6-0.3-1c0.8,0.1,1.3,0.2,1.7,0.2    c0.7,0,0.8-0.1,0.8-0.4v-10.7c0-0.8,0-1.3-0.1-1.9h1.2c-0.1,0.5-0.1,1-0.1,1.9V123.6z" />
<path class="st5" d="M486.9,117.6h-1.1c-0.5,0-0.8,0-1.2,0.1v-1c0.4,0.1,0.6,0.1,1.2,0.1h0.9c0.5,0,0.8,0,1.2-0.1    c0,0.5-0.1,0.9-0.1,1.6v3.7c0.1,0.1,0.2,0.2,0.4,0.3c0.7,0.7,1.1,0.9,1.7,1.1c0.6,0.1,2,0.2,3.7,0.2c2.4,0,4.1-0.1,5.6-0.3    c-0.2,0.4-0.3,0.6-0.4,1.1c-1.6,0.1-3.3,0.1-5.6,0.1c-1.9,0-3.3-0.1-4-0.4c-0.6-0.2-0.6-0.3-1.6-1.1c-0.2-0.2-0.4-0.3-0.5-0.3    c-0.2,0-0.6,0.2-0.9,0.5c-0.5,0.5-0.9,0.9-1.3,1.3l-0.7-0.8c1.2-1.1,2-1.7,2.5-1.9V117.6z M485.8,110.9c1.1,1.1,1.7,1.7,2.7,2.9    l-0.8,0.7c-0.9-1.3-1.4-1.9-2.6-3L485.8,110.9z M491.2,114.2c-1.1,0-1.6,0-2,0.1v-1.1c0.6,0.1,1,0.1,2,0.1h0.4V112    c0-0.5,0-0.9-0.1-1.4h1.2c-0.1,0.4-0.1,0.6-0.1,1.4v1.2h2.8v-1.2c0-0.7,0-1-0.1-1.4h1.2c-0.1,0.5-0.1,0.8-0.1,1.4v1.2h0.3    c0.9,0,1.3,0,2-0.1v1.1c-0.6-0.1-1.2-0.1-2-0.1h-0.3v3.1h0.6c0.7,0,1.3,0,1.9-0.1v1.1c-0.7-0.1-1.1-0.1-1.9-0.1h-0.6v2.9    c0,0.6,0,1,0.1,1.5h-1.2c0.1-0.4,0.1-0.8,0.1-1.5v-2.9h-3c-0.3,2.1-0.9,3.2-2.8,4.5c-0.2-0.3-0.4-0.6-0.7-0.7    c0.9-0.6,1.4-1,1.8-1.6c0.4-0.7,0.6-1.2,0.7-2.1H491c-0.8,0-1.2,0-1.9,0.1v-1.1c0.6,0,1.2,0.1,1.9,0.1h0.5c0-0.4,0.1-1.7,0.1-2.3    v-0.8H491.2z M492.6,114.9c0,0.4,0,0.5-0.1,1.6c0,0.5,0,0.5,0,0.9h2.9v-3.1h-2.8L492.6,114.9z" />
<path class="st5" d="M506.3,111.8c0.7,0,1,0,1.4-0.1v1c-0.4,0-0.6,0-1.3,0h-1.1c0.2,0.4,0.4,0.8,0.6,1.2l-0.9,0.4    c-0.2-0.7-0.4-1.1-0.7-1.6h-1.4c-0.7,1-0.9,1.2-1.6,1.9c-0.3-0.3-0.5-0.4-0.8-0.6c0.9-0.8,1.4-1.3,1.9-2.2    c0.3-0.4,0.4-0.7,0.6-1.3l1.1,0.3c-0.4,0.6-0.5,0.9-0.6,1.1H506.3z M505.3,114.5c-0.1,0.4-0.1,0.8-0.1,1.5v1.6    c0,3.6-0.8,5.5-3.2,7.4c-0.3-0.3-0.4-0.5-0.8-0.8c1-0.7,1.6-1.3,2.1-2.1c0.6-0.9,0.8-2.4,0.8-4.2V116c0-0.7,0-1.1-0.1-1.5H505.3z     M501.2,120.6c0.1-0.5,0.1-0.9,0.1-1.6v-2.3c0-0.6,0-1-0.1-1.5h1.1c-0.1,0.4-0.1,0.8-0.1,1.5v2.3c0,0.8,0,1.2,0.1,1.6H501.2z     M510.8,117.2h2.1c0.5,0,0.9,0,1.2-0.1c0,0.3,0,0.7,0,1.2v4.1c0,0.8-0.3,1.1-1.1,1.1c-0.3,0-0.5,0-0.9-0.1c0-0.4-0.1-0.7-0.2-1    c0.4,0.1,0.8,0.2,1,0.2c0.2,0,0.3-0.1,0.3-0.4V118h-2.3v5.5c0,0.7,0,1.1,0.1,1.4h-1.1c0.1-0.4,0.1-0.8,0.1-1.4V118h-2.2v4.1    c0,0.7,0,1.1,0.1,1.5h-1.1c0.1-0.4,0.1-0.7,0.1-1.5v-3.8c0-0.4,0-0.8,0-1.2c0.4,0,0.8,0.1,1.3,0.1h1.9v-1.7h-2.5    c-0.6,0-1,0-1.4,0.1v-1c0.4,0.1,0.7,0.1,1.4,0.1h6.2c0.7,0,1,0,1.4-0.1v1c-0.4,0-0.8-0.1-1.4-0.1h-2.8V117.2z M513.4,111.8    c0.7,0,1,0,1.4-0.1v1c-0.4-0.1-0.7-0.1-1.4-0.1h-1.9c0.3,0.4,0.5,0.8,0.7,1.3l-0.9,0.4c-0.3-0.7-0.5-1.2-0.8-1.7H509    c-0.3,0.5-0.6,1-1.2,1.6c-0.3-0.2-0.5-0.4-0.8-0.6c1.1-1.1,1.6-1.9,2-3.3l1,0.3c-0.3,0.8-0.4,0.8-0.5,1.2H513.4z" />
<path class="st5" d="M529,117c0.9,0,1.4,0,1.9-0.1v1.2c-0.6-0.1-1.1-0.1-1.9-0.1h-4.5v5.3c0,1.1-0.4,1.3-1.9,1.3c-0.5,0-1,0-2-0.1    c-0.1-0.5-0.1-0.7-0.3-1.1c1,0.1,1.6,0.2,2.3,0.2c0.6,0,0.8-0.1,0.8-0.5V118h-4.8c-0.8,0-1.4,0-2,0.1v-1.2c0.6,0.1,1.1,0.1,2,0.1    h4.7v-1.1c0-0.4,0-0.7,0-1.1h0.7c1.5-0.8,2.4-1.4,3.6-2.6H520c-0.6,0-1.2,0-1.6,0.1v-1.2c0.5,0.1,1,0.1,1.6,0.1h7.6    c0.7,0,1,0,1.2-0.1l0.7,0.7c-0.4,0.3-0.4,0.4-0.6,0.5c-1.8,1.6-2.4,2-4.5,3.2v1.3H529z" />
</g>
<g>
<path class="st5" d="M209.6,261.1c-0.1,0.3-0.1,0.4-0.3,1c-0.9,2.9-2.5,5.3-4.8,7.1c-0.3-0.4-0.5-0.5-0.9-0.8    c1-0.7,1.8-1.4,2.7-2.5c1-1.3,1.6-2.6,2.1-4.3h-2.6c-0.7,0-1.1,0-1.5,0.1v-1.2c0.4,0.1,0.8,0.1,1.6,0.1h1.7c0.8,0,1.2,0,1.5-0.1    L209.6,261.1z M211.4,259.4c0.2,1,0.4,1.6,0.9,2.7c0.1,0.3,0.3,0.5,0.4,0.7c1.8-1.5,2.9-2.7,3.4-3.7l1,0.8    c-0.2,0.2-0.2,0.2-0.4,0.5c-0.4,0.4-1.5,1.6-2.1,2.1c-0.4,0.3-0.4,0.3-1.4,1.1c0.5,0.8,1.2,1.6,1.9,2.3c1,0.9,1.8,1.6,3.1,2.2    c-0.4,0.4-0.6,0.6-0.8,1c-1.3-0.8-2.4-1.7-3.4-2.9c-0.7-0.8-1.3-1.7-1.8-2.7c-0.4-0.7-0.5-1.1-0.8-2c0.1,1.4,0.1,2.3,0.1,3.1v4.7    c0,1-0.3,1.3-1.5,1.3c-0.6,0-1.2,0-2-0.1c0-0.5-0.1-0.7-0.3-1.1c0.9,0.2,1.5,0.2,2.1,0.2c0.4,0,0.5-0.1,0.5-0.5v-10.9    c0-0.6,0-1.1-0.1-1.6h1.3c-0.1,0.5-0.1,1-0.1,1.6V259.4z" />
<path class="st5" d="M228.1,260.3c0.9-0.6,1.5-1,2.4-1.8c0.8-0.7,1.2-1.1,1.6-1.7l0.9,0.6c-0.3,0.2-0.3,0.2-0.7,0.6    c-0.8,0.8-1.6,1.5-2.7,2.2h2.6c0.8,0,1.3,0,1.7-0.1v1.1c-0.5-0.1-1-0.1-1.7-0.1h-4c-1,0.6-1.3,0.7-2.4,1.2c0.4,0,1.1,0,1.7,0h2.7    c0.8,0,1.3,0,1.6-0.1c0,0.4-0.1,0.8-0.1,1.5v2.2c0,0.7,0,1.1,0.1,1.5c-0.3,0-0.8-0.1-1.6-0.1h-5.6c-0.8,0-1.2,0-1.6,0.1    c0-0.4,0.1-0.8,0.1-1.5v-1.4c0-0.5,0-0.7,0-1.1c-1.1,0.4-1.5,0.6-3,1c-0.1-0.3-0.3-0.6-0.6-0.9c2.5-0.6,5-1.5,7-2.5h-4.8    c-0.7,0-1.3,0-1.8,0.1v-1.1c0.4,0.1,0.9,0.1,1.8,0.1h4v-1.6h-2.4c-0.8,0-1.2,0-1.7,0.1v-1c0.4,0.1,0.9,0.1,1.7,0.1h2.4v-0.1    c0-0.7,0-1-0.1-1.4h1.2c-0.1,0.4-0.1,0.8-0.1,1.4v0.1h1.4c0.8,0,1.3,0,1.7-0.1v1c-0.4-0.1-0.9-0.1-1.7-0.1h-1.4v1.6H228.1z     M219.9,270.3c1.1-0.9,1.6-1.5,2.1-2.6l0.9,0.4c-0.6,1.2-1.1,1.9-2.1,2.8L219.9,270.3z M224.1,264.4h6.7v-1.2h-6.7V264.4z     M224.1,266.6h6.7v-1.3h-6.7V266.6z M224.7,271c0-1.3-0.1-1.6-0.3-2.8l0.9-0.1c0.3,1,0.4,1.6,0.4,2.8L224.7,271z M228.5,270.9    c-0.3-1.3-0.4-1.8-0.9-2.8l0.9-0.2c0.4,0.9,0.7,1.5,1,2.8L228.5,270.9z M233.1,271c-0.7-1.2-1.1-1.9-2-2.8l0.8-0.5    c1.1,1.2,1.4,1.6,2.1,2.6L233.1,271z" />
<path class="st5" d="M236.1,260.7c1.1,0.7,1.6,1.1,2.6,2l-0.6,0.9c-0.9-1-1.5-1.4-2.6-2.1L236.1,260.7z M238.9,265.8    c-0.7,2.2-1.1,3.2-2,4.8c-0.1,0.1-0.1,0.2-0.2,0.4l-0.9-0.8c0.3-0.3,0.4-0.5,0.8-1.1c0.7-1.2,1.1-2.3,1.6-3.9L238.9,265.8z     M236.8,256.8c1,0.7,1.5,1.2,2.4,2l-0.7,0.8c-0.8-0.8-1.4-1.4-2.4-2.1L236.8,256.8z M248,265.2c-0.3-0.4-0.5-0.6-0.6-0.8    c-0.9,0.1-0.9,0.1-2.3,0.2c0,0.1,0,0.1,0.2,0.4c0.3,0.8,0.8,1.6,1.3,2.2c1.2-0.8,1.8-1.3,2.3-2l0.8,0.7c-1,0.8-1.7,1.5-2.5,2    c1,0.9,1.8,1.4,3.2,2c-0.3,0.3-0.5,0.5-0.7,0.9c-1.9-1-3-1.9-4-3.2c-0.6-0.7-1.1-1.8-1.4-2.7c-0.7,0.9-1.3,1.5-2.3,2.1v2.7    c0.4-0.1,0.8-0.2,1.2-0.3c0,0,0.7-0.2,2.2-0.6l-0.1,0.9c-1.2,0.3-2.2,0.6-4.5,1.1l-0.3-0.8c0.3-0.2,0.4-0.3,0.4-0.9v-1.6    c-0.5,0.3-1.2,0.5-2,0.8c-0.2-0.3-0.3-0.5-0.6-0.9c2.2-0.6,3.9-1.6,4.9-2.9l-0.7,0c-1.6,0.1-1.6,0.1-2.4,0.1l-0.2-0.9    c0.4-0.1,0.6-0.2,1.2-0.7c1-1,1.7-1.8,2.4-2.9l1.1,0.4c-0.3,0.3-0.3,0.3-1,1.2c-0.7,0.8-1.2,1.3-2,2c3.6-0.1,3.6-0.1,4.9-0.2    c0,0,0-0.1-0.1-0.1c-0.5-0.5-0.7-0.8-1.3-1.3l0.8-0.5c1.1,1,1.7,1.6,2.8,2.9L248,265.2z M242.9,259.6c-0.1,0.1-0.2,0.2-0.4,0.4    c-0.8,1.1-1.6,1.8-3,2.6c-0.3-0.4-0.4-0.5-0.8-0.8c1.7-0.9,2.6-1.7,3.1-2.7L242.9,259.6z M248.3,257.8c0.8,0,1.2,0,1.7-0.1v1    c-0.4,0-1-0.1-1.7-0.1h-7.2c-0.7,0-1.2,0-1.7,0.1v-1c0.5,0.1,1,0.1,1.7,0.1h3c-0.2-0.4-0.3-0.5-0.6-1l0.9-0.5    c0.4,0.7,0.4,0.8,0.8,1.5H248.3z M246.5,259.1c1.5,1,2.5,1.9,3.4,2.8l-0.7,0.8c-1.3-1.3-2.1-2.1-3.3-2.9L246.5,259.1z" />
<path class="st5" d="M254.7,258.4c-0.7,0-1.3,0-2,0.1v-1.2c0.6,0.1,1.2,0.1,2,0.1h8.4c0.8,0,1.2,0,1.5-0.1l0.6,0.7    c-0.6,0.6-0.9,0.9-1.3,1.3c-1.3,1.2-2.5,2-4.3,2.9v7.2c0,0.5-0.2,0.9-0.5,1.1c-0.2,0.1-0.6,0.2-1.5,0.2c-0.6,0-1.1,0-2.2-0.1    c0-0.4-0.1-0.7-0.2-1.1c1,0.2,1.7,0.3,2.6,0.3c0.5,0,0.7-0.1,0.7-0.4v-6.5c0-0.7,0-1.1-0.1-1.6h0.9c1.6-0.8,2.7-1.6,4.1-2.9H254.7    z" />
<path class="st5" d="M271.1,267.8V267h-2v1.7h-1.1c0.1-0.6,0.1-1,0.1-1.7v-7.9c0-0.7,0-1-0.1-1.5c0.4,0,0.8,0,1.4,0h1.4    c0.5,0,0.9,0,1.3,0c0,0.3-0.1,0.6-0.1,1.4v7.3c0,0.8,0,1.1,0.1,1.4H271.1z M269.2,266.1h2v-7.6h-2V266.1z M279.3,267.5    c-0.5-0.1-1-0.1-1.7-0.1h-3.1c-0.7,0-1.2,0-1.7,0.1v-1.1c0.5,0.1,1,0.1,1.7,0.1h3.1c0.7,0,1.2,0,1.7-0.1V267.5z M280.3,263.2    c0.8,0,1.2,0,1.6-0.1c-0.1,0.8-0.1,0.8-0.1,1.2c-0.2,2.1-0.4,4-0.7,5c-0.3,1-0.8,1.4-1.6,1.4c-0.6,0-1.3,0-2-0.1    c0-0.4-0.1-0.6-0.3-1c0.8,0.2,1.5,0.2,2,0.2c0.5,0,0.7-0.2,0.9-1c0.3-0.9,0.5-2.6,0.6-4.7h-5.7c-0.8,0-1.2,0-1.5,0    c0.1-0.5,0.3-1.2,0.4-1.7l0.2-1.7c0-0.2,0.1-0.9,0.1-1.1c0-0.1,0-0.2,0-0.3h1.2c-0.1,0.4-0.2,0.9-0.3,1.4l-0.3,2.4h4.1l0.5-5.1    h-4.3c-0.8,0-1.3,0-1.8,0.1v-1.2c0.5,0.1,1,0.1,1.8,0.1h4.2c0.6,0,1,0,1.2-0.1l-0.6,6.1H280.3z" />
<path class="st5" d="M286.7,266.8c0.1-0.4,0.1-0.5,0.1-1c0-0.8,0.2-1.4,0.6-1.9c0.3-0.4,0.5-0.6,1.4-1.2c0.6-0.4,0.8-0.6,1.1-0.9    c0.4-0.4,0.5-0.8,0.5-1.3c0-1.2-1.1-2-2.6-2c-1,0-1.9,0.4-2.4,1c-0.3,0.4-0.4,0.6-0.6,1.3l-1.3-0.2c0.3-1.2,0.7-1.7,1.3-2.3    c0.7-0.6,1.8-0.9,3-0.9c2.3,0,3.8,1.2,3.8,3.1c0,0.7-0.2,1.3-0.6,1.8c-0.3,0.3-0.5,0.6-1.2,1.1c-0.9,0.7-1.2,0.9-1.4,1.2    c-0.3,0.4-0.4,0.8-0.4,1.5c0,0.3,0,0.5,0,0.9H286.7z M288.2,268.3v1.5h-1.6v-1.5H288.2z" />
</g>
<g>
<path class="st5" d="M456.3,167c0.5,0,0.8,0,1.1-0.1v1.1c-0.4,0-0.6-0.1-1.1-0.1h-0.6v3.1c0.1,0,0.1,0,0.2-0.1    c0.3-0.1,0.7-0.3,1.6-0.7v1c-0.6,0.3-0.6,0.3-1.8,0.8v4.9c0,0.9-0.4,1.1-2,1.1c-0.2,0-0.4,0-0.8,0c0-0.4-0.1-0.6-0.2-1    c0.5,0.1,1,0.1,1.3,0.1c0.6,0,0.7-0.1,0.7-0.4v-4.3c-0.1,0-0.7,0.3-0.9,0.3c-0.2,0.1-0.4,0.2-0.8,0.3c-0.1,0-0.1,0-0.2,0.1    l-0.3-1.1c0.7-0.1,0.8-0.1,2.2-0.7V168h-0.9c-0.4,0-0.8,0-1.2,0.1V167c0.4,0.1,0.8,0.1,1.2,0.1h0.9v-1.5c0-0.7,0-1.1-0.1-1.6h1.2    c-0.1,0.5-0.1,0.9-0.1,1.6v1.5H456.3z M458,166.2c0-0.8,0-1,0-1.5c0.5,0,0.8,0.1,1.5,0.1h5.5c0.7,0,1.1,0,1.5-0.1    c-0.1,0.4-0.1,0.8-0.1,1.4v3.8c0,0.6,0,1.1,0.1,1.5c-0.4,0-0.8-0.1-1.5-0.1H459v4.8c0,0.4,0.1,0.6,0.5,0.7    c0.4,0.1,1.2,0.1,2.8,0.1c2.1,0,2.9-0.1,3.2-0.5c0.3-0.3,0.4-1.1,0.5-2.7c0.4,0.2,0.6,0.3,1.1,0.4c-0.2,2.1-0.4,2.8-0.9,3.2    c-0.5,0.4-1.6,0.5-4,0.5c-2,0-2.8-0.1-3.3-0.2c-0.6-0.2-0.8-0.5-0.8-1.2V166.2z M461.7,165.7H459v4.8h2.7V165.7z M465.4,170.6    v-4.8h-2.7v4.8H465.4z" />
<path class="st5" d="M476.4,164.1c-0.1,0.4-0.1,0.8-0.1,2.4c0,2.1,0.2,3.5,0.7,4.9c0.7,1.8,1.8,3.4,3.3,4.5c0.8,0.6,1.6,1,2.6,1.4    c-0.4,0.3-0.5,0.6-0.8,1c-1.6-0.7-2.8-1.6-3.9-2.7c-0.9-0.9-1.5-1.9-2-3.2c-0.3-0.7-0.4-1.1-0.5-1.9c-0.2,1.3-0.5,2.1-1,3.1    c-0.8,1.5-2,2.8-3.5,3.7c-0.6,0.4-1.1,0.7-1.9,1c-0.2-0.4-0.4-0.7-0.8-1c2.1-0.8,3.6-1.8,4.7-3.4c0.8-1.2,1.4-2.5,1.6-4    c0.2-1,0.3-2.2,0.3-4c0-1,0-1.4-0.1-1.8H476.4z M469.3,171.4c0.7-0.8,0.9-1.2,1.3-2c0.4-0.9,0.6-1.4,0.8-2.6l1.1,0.3    c-0.3,1.2-0.5,1.8-0.9,2.6c-0.4,0.9-0.6,1.3-1.3,2.2L469.3,171.4z M478.3,170.9c1.2-1.4,1.9-2.5,2.6-4.3l1.1,0.5    c-0.9,1.8-1.6,2.9-2.7,4.3L478.3,170.9z" />
<path class="st5" d="M492.4,172.1c0.6,1.2,1.2,2,1.8,2.6c0.7,0.7,1.7,1.3,2.7,1.8c0.5,0.3,1,0.4,2.1,0.8c-0.3,0.3-0.4,0.4-0.6,1    c-1.7-0.7-2.1-0.9-2.8-1.4c-1.9-1.2-3-2.5-3.8-4.5c-0.4,1.4-1,2.5-2,3.4c-1,0.9-2.2,1.6-4.5,2.5c-0.2-0.4-0.4-0.7-0.7-0.9    c2.5-0.8,3.9-1.5,4.9-2.7c0.7-0.8,1.1-1.5,1.3-2.6h-4.6c-0.6,0-0.9,0-1.3,0.1V171c0.4,0.1,0.8,0.1,1.4,0.1h4.8    c0.1-0.7,0.1-1.1,0.2-3h-3.9c-0.5,0-1,0-1.4,0.1v-1.1c0.4,0.1,0.8,0.1,1.4,0.1h6c0.9-1.3,1.3-2.1,1.8-3.3l1.1,0.4    c-0.6,1.2-1.3,2.4-1.7,2.9h1.9c0.7,0,1.1,0,1.6-0.1v1.1c-0.5-0.1-1-0.1-1.6-0.1h-4.1c0,1.8-0.1,2.2-0.2,3h5.2c0.7,0,1.2,0,1.7-0.1    v1.1c-0.5-0.1-1-0.1-1.6-0.1H492.4z M489.3,167c-0.5-1.1-0.9-1.7-1.7-2.5l0.9-0.5c0.8,1,1.1,1.4,1.7,2.5L489.3,167z" />
<path class="st5" d="M504.5,167.9c-0.1,0.3-0.1,0.4-0.5,1.8c-0.3,1.1-0.5,1.8-1,2.9c-0.6,1.4-0.8,1.8-1.7,3.1    c-0.3-0.3-0.6-0.5-1-0.7c0.9-1.2,1.1-1.6,1.6-2.7c0.6-1.3,1.2-3.5,1.3-4.7L504.5,167.9z M508.4,164.1c-0.1,0.4-0.1,0.9-0.1,1.6v11    c0,1-0.4,1.3-1.7,1.3c-0.7,0-1.3,0-2.2-0.1c0-0.5-0.1-0.7-0.3-1.2c1,0.2,1.7,0.3,2.4,0.3c0.6,0,0.7-0.1,0.7-0.4v-10.9    c0-0.7,0-1.2-0.1-1.6H508.4z M514.1,175.7c-0.8-2.2-0.9-2.6-1.4-3.6c-1.5-3.3-1.5-3.3-2-4.1l1-0.4c1.2,2.2,2.4,5,3.4,7.6    L514.1,175.7z" />
<path class="st5" d="M519.2,177c0,1.2-0.2,1.6-1,2l-0.4-0.5c0.6-0.3,0.8-0.6,0.8-1.5h-0.9v-1.6h1.6V177z" />
<path class="st5" d="M450.5,186.9c0.9-0.6,1.5-1,2.4-1.8c0.8-0.7,1.2-1.1,1.6-1.7l0.9,0.6c-0.3,0.2-0.3,0.2-0.7,0.6    c-0.8,0.8-1.6,1.5-2.7,2.2h2.6c0.8,0,1.3,0,1.7-0.1v1.1c-0.5-0.1-1-0.1-1.7-0.1h-4c-1,0.6-1.3,0.7-2.4,1.2c0.4,0,1.1,0,1.7,0h2.7    c0.8,0,1.3,0,1.6-0.1c0,0.4-0.1,0.8-0.1,1.5v2.2c0,0.7,0,1.1,0.1,1.5c-0.3,0-0.8-0.1-1.6-0.1H447c-0.8,0-1.2,0-1.6,0.1    c0-0.4,0.1-0.8,0.1-1.5v-1.4c0-0.5,0-0.7,0-1.1c-1.1,0.4-1.5,0.6-3,1c-0.1-0.3-0.3-0.6-0.6-0.9c2.5-0.6,5-1.5,7-2.5h-4.8    c-0.7,0-1.3,0-1.8,0.1v-1.1c0.4,0.1,0.9,0.1,1.8,0.1h4v-1.6h-2.4c-0.8,0-1.2,0-1.7,0.1v-1c0.4,0.1,0.9,0.1,1.7,0.1h2.4v-0.1    c0-0.7,0-1-0.1-1.4h1.2c-0.1,0.4-0.1,0.8-0.1,1.4v0.1h1.4c0.8,0,1.3,0,1.7-0.1v1c-0.4-0.1-0.9-0.1-1.7-0.1h-1.4v1.6H450.5z     M442.3,196.9c1.1-0.9,1.6-1.5,2.1-2.6l0.9,0.4c-0.6,1.2-1.1,1.9-2.1,2.8L442.3,196.9z M446.5,191h6.7v-1.2h-6.7V191z     M446.5,193.1h6.7v-1.3h-6.7V193.1z M447.1,197.5c0-1.3-0.1-1.6-0.3-2.8l0.9-0.1c0.3,1,0.4,1.6,0.4,2.8L447.1,197.5z M450.9,197.5    c-0.3-1.3-0.4-1.8-0.9-2.8l0.9-0.2c0.4,0.9,0.7,1.5,1,2.8L450.9,197.5z M455.4,197.6c-0.7-1.2-1.1-1.9-2-2.8l0.8-0.5    c1.1,1.2,1.4,1.6,2.1,2.6L455.4,197.6z" />
<path class="st5" d="M464.7,191c0-0.5,0-0.9-0.1-1.4h1.2c-0.1,0.5-0.1,0.9-0.1,1.4v0.8h3.4c0.7,0,1.2,0,1.7-0.1v1.1    c-0.5,0-1-0.1-1.6-0.1h-3.4v3.2h5c0.7,0,1.2,0,1.7-0.1v1.1c-0.5-0.1-1-0.1-1.7-0.1H460c-0.7,0-1.2,0-1.7,0.1v-1.1    c0.5,0.1,0.9,0.1,1.7,0.1h4.7v-3.2h-3.2c-0.7,0-1.2,0-1.6,0.1v-1.1c0.5,0.1,0.9,0.1,1.6,0.1h3.2V191z M459.3,188.3    c0.5-0.1,0.6-0.2,0.9-0.4c0.1-0.1,0.1-0.1,0.3-0.2c0.3-0.3,0.8-0.8,1.3-1.2c0.4-0.4,0.6-0.7,1.2-1.5c0.1-0.1,0.1-0.1,0.2-0.3h-3    c-0.7,0-1.2,0-1.7,0.1v-1.1c0.4,0.1,0.9,0.1,1.7,0.1h10.2c0.8,0,1.2,0,1.7-0.1v1.1c-0.5-0.1-1-0.1-1.7-0.1h-6    c-1.5,2-1.5,2-3.5,3.6c0.3,0,0.3,0,1.8-0.1c1.7,0,4.6-0.2,6.1-0.4c-0.9-0.8-1.1-1-2-1.6l0.8-0.6c1.6,1.2,2.6,2.1,4,3.6L471,190    c-0.5-0.7-0.7-0.9-1.2-1.3c-2.5,0.3-5.5,0.5-8.5,0.6c-0.9,0-1.1,0-1.7,0.1L459.3,188.3z" />
<path class="st5" d="M478.2,185.8c-0.1,0.2-0.2,0.4-0.4,0.9c-0.9,2.4-1.6,3.5-3,5.1c-0.4-0.4-0.5-0.5-0.9-0.8    c1.2-1.2,1.9-2.3,2.6-3.9c0.3-0.6,0.4-1.2,0.6-1.8L478.2,185.8z M486.3,190.6c-0.1,0.1-0.1,0.1-0.2,0.3c-0.1,0.1-0.1,0.1-0.4,0.6    c-1.1,1.6-2.4,2.8-4,3.9c-1.6,1-3.4,1.7-6.2,2.3c-0.2-0.5-0.3-0.7-0.6-1.1c2.8-0.5,4.4-1,6.1-2c2-1.2,3.6-2.9,4.4-4.7L486.3,190.6    z M480.6,192.8c0.1-0.5,0.1-1,0.1-1.6v-6.8c0-0.6,0-1-0.1-1.4h1.3c-0.1,0.4-0.1,0.7-0.1,1.4v6.8c0,0.6,0,1.1,0.1,1.6H480.6z     M485,185.3c1.4,1.5,2.3,2.7,3.6,4.6l-1,0.7c-1.7-2.6-2-3-3.5-4.7L485,185.3z" />
<path class="st5" d="M491.8,184c0.4,0.1,0.7,0.1,1.3,0.1h1c0.5,0,0.8,0,1.3-0.1c-0.1,1-0.1,1.8-0.1,2.7v7.8c0,0.8,0,1.2,0.1,1.8    H494c0.1-0.6,0.1-1.1,0.1-1.8v-9.3h-0.9c-0.5,0-0.9,0-1.4,0.1V184z" />
<path class="st5" d="M502.6,188.7c0,0.3,0,0.3-0.1,0.7c0.8-0.7,1.7-1.1,2.8-1.1c1.2,0,2.2,0.4,2.9,1.1c0.7,0.7,1.1,1.6,1.1,2.8    c0,2.6-1.7,4.2-4.3,4.2c-1.2,0-2.3-0.4-3.1-1.1c-0.4-0.4-0.6-0.7-1-1.5l1.3-0.4c0.2,0.4,0.3,0.7,0.5,0.9c0.5,0.6,1.3,0.9,2.3,0.9    c1.8,0,3-1.2,3-3.1c0-1.8-1.1-2.9-2.8-2.9c-0.8,0-1.5,0.2-2.1,0.7c-0.4,0.3-0.6,0.5-0.7,1l-1.2-0.1c0.1-0.6,0.2-1,0.2-1.6l0.4-3.6    c0-0.5,0-0.7,0-1c0-0.2,0-0.3,0-0.7c0.5,0.1,0.8,0.1,1.7,0.1h3.3c0.9,0,1.2,0,1.9-0.1v1.4c-0.6-0.1-1.1-0.1-1.9-0.1h-3.8    L502.6,188.7z" />
<path class="st5" d="M517.1,183.5c-0.1,0.2-0.2,0.3-0.4,0.8c-1.2,2.5-2.8,4.3-5,6c-0.2-0.3-0.4-0.6-0.8-0.9    c1.9-1.3,3.3-2.8,4.4-4.7c0.4-0.7,0.6-1.2,0.7-1.7L517.1,183.5z M517.7,189.8c-0.1,1.7-0.5,3-1.2,4.2c-0.8,1.4-2.1,2.5-4,3.5    c-0.2-0.4-0.4-0.6-0.7-0.9c2-1,3.3-2,4-3.5c0.5-1,0.8-1.9,0.9-3.3h-1c-0.6,0-1.2,0-1.6,0.1v-1.1c0.5,0.1,1,0.1,1.7,0.1h5.3    c0.7,0,1.2,0,1.7-0.1c0,0.3,0,0.4-0.1,1.1c0,3.1-0.3,5.8-0.7,6.6c-0.3,0.5-0.6,0.6-1.6,0.6c-0.6,0-1.1,0-2.1-0.1    c0-0.4-0.1-0.7-0.3-1.1c0.9,0.2,1.6,0.3,2.3,0.3c0.5,0,0.7-0.1,0.8-0.4c0.3-1,0.5-3.1,0.5-5.9H517.7z M520.5,183.2    c0.1,0.4,0.3,0.7,0.6,1.3c1.2,2.1,2.5,3.5,4.7,5c-0.3,0.3-0.5,0.6-0.8,1c-2.5-1.9-3.9-3.5-5.4-6.4c-0.1-0.1-0.2-0.3-0.3-0.4    L520.5,183.2z" />
<path class="st5" d="M528.9,185.8c-0.5,1-0.8,1.4-1.5,2.1c-0.2-0.4-0.4-0.5-0.7-0.8c0.8-0.9,1.3-1.7,1.8-2.8    c0.2-0.4,0.3-0.8,0.4-1.2l1.1,0.3c-0.1,0.2-0.2,0.4-0.5,1.2c0,0.1-0.1,0.2-0.2,0.4h2c0.8,0,1.2,0,1.5-0.1v1.1    c-0.4-0.1-0.8-0.1-1.5-0.1H528.9z M529,188.6c-0.3,0-0.8,0-1.1,0.1v-1c0.3,0,0.6,0.1,1.1,0.1h2.5c0.4,0,0.8,0,1.1-0.1v1    c-0.4,0-0.7,0-1.1,0h-0.8v2.4h0.8c0.6,0,1,0,1.5-0.1v1c-0.5-0.1-1-0.1-1.5-0.1h-0.8v3.8c0.9-0.5,1.4-0.7,2.3-1.3l0,1.1    c-1.3,0.8-2.1,1.2-2.3,1.3c-0.8,0.4-0.8,0.4-1,0.5l-0.6-1c0.3-0.2,0.4-0.2,0.5-0.4v-3.9h-1c-0.6,0-1.1,0-1.5,0.1v-1    c0.4,0,0.9,0.1,1.5,0.1h1v-2.4H529z M536.7,184.9c0-0.8,0-1.2-0.1-1.8h1.2c-0.1,0.5-0.1,1-0.1,1.8v1.4h2c0.7,0,1.2,0,1.5-0.1    c-0.1,0.4-0.1,0.7-0.1,1.4v4c0,0.9,0,1.2,0.1,1.6h-1.1v-0.9h-2.5v3.2c0,0.8,0,1.5,0.1,2h-1.2c0.1-0.6,0.1-1.1,0.1-1.9v-3.2h-2.3    v0.9h-1c0-0.4,0.1-0.8,0.1-1.7v-4c0-0.6,0-0.9-0.1-1.3c0.4,0,0.8,0.1,1.5,0.1h1.8V184.9z M534.4,187.3v4.2h2.3v-4.2H534.4z     M540.2,191.5v-4.2h-2.5v4.2H540.2z" />
</g>
<g>
<path class="st5" d="M220.3,35.1c0.7,0,1.1,0,1.5-0.1c0,0.3,0,0.3-0.1,1.5c-0.2,2.8-0.7,4.8-1.8,6.8c0.8,0.6,1.2,1,2.3,2L221,47    c-1-1-1.4-1.4-2.1-2c-1,1.3-2.1,2.3-3.6,3.3c-0.4-0.8-0.7-1.1-1.3-1.7c1.5-0.9,2.5-1.7,3.4-2.8c-1-0.8-1.5-1.2-2.9-2.1    c0.8-1.6,1.1-2.6,1.7-4.8h-0.8c-0.5,0-0.8,0-1.3,0.1V35c0.5,0.1,0.9,0.1,1.6,0.1h0.9c0.3-1.7,0.4-2.6,0.4-3.5l2.1,0.2    c-0.1,0.3-0.1,0.5-0.2,1.1c-0.1,0.7-0.2,1.2-0.4,2.2H220.3z M218,36.9c-0.5,2.1-0.8,2.7-1.4,4.1c0.9,0.6,1.3,0.9,1.7,1.2    c0.3-0.5,0.4-0.8,0.6-1.4c0.5-1.3,0.7-2.2,0.8-3.9H218z M224.8,47.9h-2c0.1-0.6,0.1-1.2,0.1-2.1V35.1c0-0.7,0-1.3-0.1-1.9    c0.4,0.1,0.8,0.1,1.5,0.1h4.1c0.7,0,1.2,0,1.5-0.1c-0.1,0.6-0.1,1.1-0.1,1.9v10.8c0,0.8,0,1.4,0.1,2h-2v-1.3h-3.2V47.9z     M224.8,44.8h3.2v-9.7h-3.2V44.8z" />
<path class="st5" d="M235.9,46c0,1,0,1.7,0.1,2.3h-2.1C234,47.6,234,47,234,46v-5c0-0.9,0-1.3,0.1-2c-0.4,0.7-0.8,1.3-1.4,2    c-0.3-0.9-0.6-1.4-1-2c1.3-1.4,2.2-2.7,2.9-4.4c0.5-1.1,0.8-2.2,1-3l2,0.7c-0.8,2.2-0.8,2.3-1.6,4V46z M247.2,46.1    c0,1.5-0.6,1.9-3.2,1.9c-0.2,0-0.2,0-1.5,0c-0.1-1-0.2-1.4-0.5-2c0.8,0.1,1.5,0.1,2.2,0.1c0.8,0,1-0.1,1-0.5V34.5h-5.6    c-0.9,0-1.6,0-2.1,0.1v-2c0.6,0.1,1.2,0.1,2.1,0.1h6.8c0.7,0,1.4,0,2-0.1v2c-0.5-0.1-0.6-0.1-1.3-0.1V46.1z M243.6,42    c0,0.7,0,1,0.1,1.4c-0.4,0-0.7-0.1-1.4-0.1h-2.7v1.3h-1.9c0.1-0.5,0.1-0.9,0.1-1.4v-5.5c0-0.6,0-1-0.1-1.5    c0.4,0.1,0.8,0.1,1.4,0.1h3.1c0.7,0,1,0,1.4-0.1c0,0.4-0.1,0.7-0.1,1.4V42z M239.6,41.7h2.3v-3.6h-2.3V41.7z" />
<path class="st5" d="M261.7,34.2c1.2-1,1.8-1.6,2.2-2.3l1.7,1.1c-1.3,1.3-1.9,1.8-3.1,2.6h1.7c1,0,1.5,0,2.1-0.1v1.9    c-0.6-0.1-1.2-0.1-2.1-0.1h-4.3c-0.5,0.3-1,0.6-1.5,0.8c0.2,0,0.2,0,0.9,0h2.9c0.9,0,1.5,0,1.9-0.1c-0.1,0.4-0.1,0.9-0.1,1.7v2.9    c0,0.7,0,1.3,0.1,1.6c1.2,1.4,1.5,1.7,2.3,2.9l-1.7,1.2c-0.8-1.5-1.3-2.3-2.1-3.2l1.3-0.8c-0.4,0-0.9,0-1.5,0h-7.1    c-0.8,0-1.4,0-1.8,0.1c0.1-0.5,0.1-1,0.1-1.7v-1.5c0-0.4,0-0.4,0-0.7c-0.9,0.4-1.5,0.6-2.7,1c-0.2-0.5-0.5-1.1-1.1-1.7    c2.5-0.6,4.3-1.2,6.6-2.3h-4.1c-0.7,0-1.5,0-2.1,0.1v-1.9c0.5,0.1,1.1,0.1,2.2,0.1h4.1v-1.1h-2.5c-0.8,0-1.4,0-2,0.1v-1.8    c0.5,0.1,1.1,0.1,2,0.1h2.5c0-0.8,0-0.9-0.1-1.4h2.2c-0.1,0.4-0.1,0.8-0.1,1.4h1.4c0.9,0,1.4,0,1.9-0.1V34.2z M250,47.1    c1.2-1,1.7-1.6,2.3-2.8l1.7,0.8c-0.7,1.5-1.3,2.2-2.3,3.3L250,47.1z M255.4,48.3c0-0.3,0-0.4,0-0.6c0-0.8-0.1-1.9-0.3-2.8l1.8-0.2    c0.2,1.1,0.4,2.2,0.4,3.3L255.4,48.3z M255.5,40.5h6.7v-0.8h-6.7V40.5z M255.5,42.8h6.7v-0.8h-6.7V42.8z M259.5,35.7    c0.7-0.5,1.1-0.7,1.6-1.1c-0.4,0-0.7,0-1.3,0h-1.4v1.1H259.5z M259.6,48.3c-0.3-1.6-0.4-1.9-0.9-3.3l1.8-0.4    c0.5,1.2,0.7,1.9,1,3.2L259.6,48.3z" />
<path class="st5" d="M270.8,36.1c-0.5,1.5-0.8,2.2-1.4,3.2c-1-0.9-1.3-1.1-1.7-1.3c0.6-0.8,1-1.5,1.4-2.8c0.4-1.3,0.6-2.2,0.7-3.4    l2.2,0.4c-0.1,0.3-0.1,0.3-0.2,0.6c0,0.1,0,0.1-0.1,0.2c-0.2,0.9-0.3,1.3-0.4,1.5l1.6,0h0.1c0.3,0,0.6,0,0.9-0.1l1.2,0.9    c-0.2,0.3-0.3,0.4-0.4,0.8c-0.3,0.8-0.7,1.7-0.9,2.2c-0.2-0.1-0.2-0.1-0.5-0.3c-0.6-0.4-0.7-0.4-1-0.5c0.3-0.5,0.4-0.7,0.5-1.2    L270.8,36.1z M272.1,43.9c0.5-0.3,1.3-0.9,1.8-1.4l0.1,2.2c-0.8,0.6-1.1,0.9-1.7,1.3c-0.3,0.2-0.4,0.3-1.1,0.7    c-0.4,0.2-0.4,0.2-0.7,0.4l-0.8-1.7c0.4-0.3,0.5-0.5,0.6-0.9l0-4.8v-0.1c0-0.8,0-1.1-0.1-1.5h2c-0.1,0.6-0.1,1.2-0.1,1.6V43.9z     M281.6,36.5c0.8,0,1.2,0,1.5-0.1l1,1c-0.1,0.4-0.1,0.4-0.6,1.9c-0.5,1.9-1.1,3.2-1.9,4.5c1,1.1,1.8,1.7,3.4,2.5    c-0.4,0.5-0.6,0.8-1,1.9c-1.6-1-2.4-1.6-3.5-3c-0.9,1.2-2,2-3.7,3.1c-0.5-0.9-0.7-1.2-1.1-1.7c1.7-0.8,2.7-1.6,3.7-2.8    c-1.2-1.9-1.6-3-2.1-5.6H277c0,2.5-0.2,4.1-0.5,5.4c-0.2,1-0.6,2-1.1,3c-0.3,0.5-0.5,0.9-1.1,1.7c-0.6-0.7-0.9-1-1.6-1.4    c1-1.1,1.4-1.9,1.8-3.2c0.5-1.7,0.6-3.4,0.6-8.2c0-1.5,0-2-0.1-2.8c2.1,0,2.7,0,4-0.2c1.6-0.2,3-0.5,3.8-0.8l1.3,1.7    c-2.3,0.6-3.8,0.8-7,1l0,2.1H281.6z M278.8,38.3c0.3,1.7,0.7,2.7,1.5,4c0.8-1.3,1.1-2.1,1.4-4H278.8z" />
</g>
<g>
</g>
<g>
</g>
<g>
</g>
<g>
</g>
<g>
</g>
<g>
</g>
<g>
</g>
<g>
</g>
<g>
</g>
<g>
</g>
</g>
</g></svg>