<?xml version='1.0' encoding='utf-8'?>
<svg height="340" style="max-width: 100%; height: auto; font: 10px sans-serif;" viewBox="-70,-30,880,340" width="900" xmlns="http://www.w3.org/2000/svg">
<g transform="rotate(90 450.0 170.0)"><style type="text/css">.st0 {
    fill: none;
    stroke: hsl(0, 0%, 85%);
    stroke-width: 0.75;
}

.st1 {
    fill: hsl(0, 0%, 39%);
}

.st2 {
    fill: none;
    stroke: hsl(81, 51%, 52%);
    stroke-width: 3;
    stroke-linecap: round;
}

.st3 {
    fill: none;
    stroke: hsl(11, 91%, 50%);
    stroke-width: 3;
    stroke-linecap: round;
}

.st4 {
    fill: hsl(0, 0%, 100%);
    stroke: hsl(12, 91%, 58%);
    stroke-width: 3;
    stroke-linecap: round;
}</style>
<g id="Layer_2">
<g>
<path class="st1" d="M19.8,277.6c0.2-0.4,0.6-0.8,1.2-1.2l0.9-0.5c0.4-0.2,0.7-0.4,0.9-0.6c0.3-0.3,0.4-0.6,0.4-0.9    c0-0.4-0.1-0.7-0.4-1c-0.2-0.2-0.6-0.4-1-0.4c-0.6,0-1,0.2-1.2,0.7c-0.1,0.2-0.2,0.6-0.2,1h-0.9c0-0.6,0.1-1.1,0.3-1.5    c0.4-0.7,1-1,2-1c0.8,0,1.4,0.2,1.7,0.6c0.4,0.4,0.5,0.9,0.5,1.4c0,0.5-0.2,1-0.6,1.4c-0.2,0.2-0.6,0.5-1.2,0.8l-0.7,0.4    c-0.3,0.2-0.6,0.3-0.7,0.5c-0.3,0.3-0.5,0.6-0.6,0.9h3.7v0.8h-4.7C19.5,278.6,19.6,278.1,19.8,277.6z" />
<path class="st1" d="M25.3,277.6c0.2-0.4,0.6-0.8,1.2-1.2l0.9-0.5c0.4-0.2,0.7-0.4,0.9-0.6c0.3-0.3,0.4-0.6,0.4-0.9    c0-0.4-0.1-0.7-0.4-1c-0.2-0.2-0.6-0.4-1-0.4c-0.6,0-1,0.2-1.2,0.7c-0.1,0.2-0.2,0.6-0.2,1h-0.9c0-0.6,0.1-1.1,0.3-1.5    c0.4-0.7,1-1,2-1c0.8,0,1.4,0.2,1.7,0.6c0.4,0.4,0.5,0.9,0.5,1.4c0,0.5-0.2,1-0.6,1.4c-0.2,0.2-0.6,0.5-1.2,0.8l-0.7,0.4    c-0.3,0.2-0.6,0.3-0.7,0.5c-0.3,0.3-0.5,0.6-0.6,0.9h3.7v0.8h-4.7C25,278.6,25.1,278.1,25.3,277.6z" />
<path class="st1" d="M30.9,278.1h1v1h-1V278.1z" />
<path class="st1" d="M37.4,273.4c0.3,0.6,0.5,1.3,0.5,2.3c0,0.9-0.1,1.7-0.4,2.3c-0.4,0.9-1.1,1.3-2,1.3c-0.8,0-1.4-0.4-1.8-1.1    c-0.3-0.6-0.5-1.4-0.5-2.4c0-0.8,0.1-1.4,0.3-2c0.4-1,1.1-1.6,2-1.6C36.3,272.3,37,272.7,37.4,273.4z M36.5,278    c0.3-0.4,0.4-1.1,0.4-2.2c0-0.8-0.1-1.4-0.3-1.9c-0.2-0.5-0.6-0.8-1.1-0.8c-0.5,0-0.9,0.2-1.1,0.7c-0.2,0.5-0.4,1.2-0.4,2.1    c0,0.7,0.1,1.3,0.2,1.7c0.2,0.6,0.6,1,1.2,1C35.9,278.6,36.2,278.4,36.5,278z" />
<path class="st1" d="M42.8,273.4c0.3,0.6,0.5,1.3,0.5,2.3c0,0.9-0.1,1.7-0.4,2.3c-0.4,0.9-1.1,1.3-2,1.3c-0.8,0-1.4-0.4-1.8-1.1    c-0.3-0.6-0.5-1.4-0.5-2.4c0-0.8,0.1-1.4,0.3-2c0.4-1,1.1-1.6,2-1.6C41.8,272.3,42.4,272.7,42.8,273.4z M42,278    c0.3-0.4,0.4-1.1,0.4-2.2c0-0.8-0.1-1.4-0.3-1.9c-0.2-0.5-0.6-0.8-1.1-0.8c-0.5,0-0.9,0.2-1.1,0.7c-0.2,0.5-0.4,1.2-0.4,2.1    c0,0.7,0.1,1.3,0.2,1.7c0.2,0.6,0.6,1,1.2,1C41.3,278.6,41.7,278.4,42,278z" />
</g>
<g>
<path class="st1" d="M79.3,297.9c0.3,0.6,0.5,1.3,0.5,2.3c0,0.9-0.1,1.7-0.4,2.3c-0.4,0.9-1.1,1.3-2,1.3c-0.8,0-1.4-0.4-1.8-1.1    c-0.3-0.6-0.5-1.4-0.5-2.4c0-0.8,0.1-1.4,0.3-2c0.4-1,1.1-1.6,2-1.6C78.2,296.8,78.9,297.2,79.3,297.9z M78.4,302.5    c0.3-0.4,0.4-1.1,0.4-2.2c0-0.8-0.1-1.4-0.3-1.9c-0.2-0.5-0.6-0.8-1.1-0.8c-0.5,0-0.9,0.2-1.1,0.7c-0.2,0.5-0.4,1.2-0.4,2.1    c0,0.7,0.1,1.3,0.2,1.7c0.2,0.6,0.6,1,1.2,1C77.8,303.1,78.2,302.9,78.4,302.5z" />
<path class="st1" d="M80.9,303.2c-0.4-0.4-0.5-1-0.5-1.6h0.9c0,0.4,0.1,0.8,0.2,1c0.2,0.4,0.6,0.5,1.2,0.5c0.5,0,0.8-0.1,1.1-0.4    c0.3-0.2,0.4-0.6,0.4-0.9c0-0.5-0.1-0.8-0.4-1c-0.3-0.2-0.7-0.3-1.2-0.3c-0.1,0-0.1,0-0.2,0s-0.1,0-0.2,0v-0.8c0.1,0,0.2,0,0.2,0    c0.1,0,0.1,0,0.2,0c0.3,0,0.6-0.1,0.8-0.2c0.4-0.2,0.5-0.5,0.5-1c0-0.3-0.1-0.6-0.4-0.8c-0.2-0.2-0.5-0.3-0.8-0.3    c-0.6,0-1,0.2-1.2,0.6c-0.1,0.2-0.2,0.5-0.2,0.9h-0.9c0-0.5,0.1-0.9,0.3-1.3c0.4-0.6,1-1,1.9-1c0.7,0,1.2,0.2,1.6,0.5    c0.4,0.3,0.6,0.8,0.6,1.4c0,0.4-0.1,0.8-0.3,1c-0.1,0.2-0.3,0.3-0.5,0.4c0.4,0.1,0.6,0.3,0.8,0.6s0.3,0.6,0.3,1    c0,0.7-0.2,1.2-0.6,1.6c-0.4,0.4-1,0.6-1.8,0.6C81.9,303.9,81.3,303.7,80.9,303.2z" />
</g>
<g>
<path class="st1" d="M255.4,297.9c0.3,0.6,0.5,1.3,0.5,2.3c0,0.9-0.1,1.7-0.4,2.3c-0.4,0.9-1.1,1.3-2,1.3c-0.8,0-1.4-0.4-1.8-1.1    c-0.3-0.6-0.5-1.4-0.5-2.4c0-0.8,0.1-1.4,0.3-2c0.4-1,1.1-1.6,2-1.6C254.3,296.8,255,297.2,255.4,297.9z M254.5,302.5    c0.3-0.4,0.4-1.1,0.4-2.2c0-0.8-0.1-1.4-0.3-1.9c-0.2-0.5-0.6-0.8-1.1-0.8c-0.5,0-0.9,0.2-1.1,0.7c-0.2,0.5-0.4,1.2-0.4,2.1    c0,0.7,0.1,1.3,0.2,1.7c0.2,0.6,0.6,1,1.2,1C253.9,303.1,254.2,302.9,254.5,302.5z" />
<path class="st1" d="M261.4,296.9v0.8c-0.2,0.2-0.5,0.6-0.9,1.1c-0.4,0.5-0.7,1.1-1,1.7c-0.3,0.6-0.5,1.1-0.6,1.6    c-0.1,0.3-0.2,0.8-0.4,1.5h-1c0.2-1.3,0.7-2.6,1.4-3.9c0.4-0.8,0.9-1.4,1.4-2h-3.8v-0.9H261.4z" />
</g>
<g>
<path class="st1" d="M404.4,298.8v-0.7c0.6-0.1,1.1-0.2,1.3-0.3c0.2-0.1,0.4-0.5,0.5-1h0.7v6.8H406v-4.9H404.4z" />
<path class="st1" d="M409.7,303.2c-0.4-0.4-0.5-1-0.5-1.6h0.9c0,0.4,0.1,0.8,0.2,1c0.2,0.4,0.6,0.5,1.2,0.5c0.5,0,0.8-0.1,1.1-0.4    s0.4-0.6,0.4-0.9c0-0.5-0.1-0.8-0.4-1c-0.3-0.2-0.7-0.3-1.2-0.3c-0.1,0-0.1,0-0.2,0c-0.1,0-0.1,0-0.2,0v-0.8c0.1,0,0.2,0,0.2,0    s0.1,0,0.2,0c0.3,0,0.6-0.1,0.8-0.2c0.4-0.2,0.5-0.5,0.5-1c0-0.3-0.1-0.6-0.4-0.8c-0.2-0.2-0.5-0.3-0.8-0.3c-0.6,0-1,0.2-1.2,0.6    c-0.1,0.2-0.2,0.5-0.2,0.9h-0.9c0-0.5,0.1-0.9,0.3-1.3c0.4-0.6,1-1,1.9-1c0.7,0,1.2,0.2,1.6,0.5c0.4,0.3,0.6,0.8,0.6,1.4    c0,0.4-0.1,0.8-0.3,1c-0.1,0.2-0.3,0.3-0.5,0.4c0.4,0.1,0.6,0.3,0.8,0.6c0.2,0.3,0.3,0.6,0.3,1c0,0.7-0.2,1.2-0.6,1.6    c-0.4,0.4-1,0.6-1.8,0.6C410.6,303.9,410.1,303.7,409.7,303.2z" />
</g>
<g>
<path class="st1" d="M600.5,302.1c0.2-0.4,0.6-0.8,1.2-1.2l0.9-0.5c0.4-0.2,0.7-0.4,0.9-0.6c0.3-0.3,0.4-0.6,0.4-0.9    c0-0.4-0.1-0.7-0.4-1s-0.6-0.4-1-0.4c-0.6,0-1,0.2-1.2,0.7c-0.1,0.2-0.2,0.6-0.2,1h-0.9c0-0.6,0.1-1.1,0.3-1.5c0.4-0.7,1-1,2-1    c0.8,0,1.4,0.2,1.7,0.6c0.4,0.4,0.5,0.9,0.5,1.4c0,0.5-0.2,1-0.6,1.4c-0.2,0.2-0.6,0.5-1.2,0.8l-0.7,0.4c-0.3,0.2-0.6,0.3-0.7,0.5    c-0.3,0.3-0.5,0.6-0.6,0.9h3.7v0.8h-4.7C600.2,303.1,600.3,302.6,600.5,302.1z" />
<path class="st1" d="M608.5,303.7V302h-3v-0.8l3.1-4.4h0.7v4.4h1v0.8h-1v1.7H608.5z M608.5,301.3v-3.1l-2.2,3.1H608.5z" />
</g>
<g>
<path class="st1" d="M19.8,254.6c0.2-0.4,0.6-0.8,1.2-1.2l0.9-0.5c0.4-0.2,0.7-0.4,0.9-0.6c0.3-0.3,0.4-0.6,0.4-0.9    c0-0.4-0.1-0.7-0.4-1c-0.2-0.2-0.6-0.4-1-0.4c-0.6,0-1,0.2-1.2,0.7c-0.1,0.2-0.2,0.6-0.2,1h-0.9c0-0.6,0.1-1.1,0.3-1.5    c0.4-0.7,1-1,2-1c0.8,0,1.4,0.2,1.7,0.6c0.4,0.4,0.5,0.9,0.5,1.4c0,0.5-0.2,1-0.6,1.4c-0.2,0.2-0.6,0.5-1.2,0.8l-0.7,0.4    c-0.3,0.2-0.6,0.3-0.7,0.5c-0.3,0.3-0.5,0.6-0.6,0.9h3.7v0.8h-4.7C19.5,255.6,19.6,255,19.8,254.6z" />
<path class="st1" d="M27.9,256.1v-1.7h-3v-0.8l3.1-4.4h0.7v4.4h1v0.8h-1v1.7H27.9z M27.9,253.7v-3.1l-2.2,3.1H27.9z" />
<path class="st1" d="M30.9,255.1h1v1h-1V255.1z" />
<path class="st1" d="M37.4,250.4c0.3,0.6,0.5,1.3,0.5,2.3c0,0.9-0.1,1.7-0.4,2.3c-0.4,0.9-1.1,1.3-2,1.3c-0.8,0-1.4-0.4-1.8-1.1    c-0.3-0.6-0.5-1.4-0.5-2.4c0-0.8,0.1-1.4,0.3-2c0.4-1,1.1-1.6,2-1.6C36.3,249.3,37,249.7,37.4,250.4z M36.5,255    c0.3-0.4,0.4-1.1,0.4-2.2c0-0.8-0.1-1.4-0.3-1.9c-0.2-0.5-0.6-0.8-1.1-0.8c-0.5,0-0.9,0.2-1.1,0.7c-0.2,0.5-0.4,1.2-0.4,2.1    c0,0.7,0.1,1.3,0.2,1.7c0.2,0.6,0.6,1,1.2,1C35.9,255.5,36.2,255.4,36.5,255z" />
<path class="st1" d="M42.8,250.4c0.3,0.6,0.5,1.3,0.5,2.3c0,0.9-0.1,1.7-0.4,2.3c-0.4,0.9-1.1,1.3-2,1.3c-0.8,0-1.4-0.4-1.8-1.1    c-0.3-0.6-0.5-1.4-0.5-2.4c0-0.8,0.1-1.4,0.3-2c0.4-1,1.1-1.6,2-1.6C41.8,249.3,42.4,249.7,42.8,250.4z M42,255    c0.3-0.4,0.4-1.1,0.4-2.2c0-0.8-0.1-1.4-0.3-1.9c-0.2-0.5-0.6-0.8-1.1-0.8c-0.5,0-0.9,0.2-1.1,0.7c-0.2,0.5-0.4,1.2-0.4,2.1    c0,0.7,0.1,1.3,0.2,1.7c0.2,0.6,0.6,1,1.2,1C41.3,255.5,41.7,255.4,42,255z" />
</g>
<g>
<path class="st1" d="M19.8,233c0.2-0.4,0.6-0.8,1.2-1.2l0.9-0.5c0.4-0.2,0.7-0.4,0.9-0.6c0.3-0.3,0.4-0.6,0.4-0.9    c0-0.4-0.1-0.7-0.4-1c-0.2-0.2-0.6-0.4-1-0.4c-0.6,0-1,0.2-1.2,0.7c-0.1,0.2-0.2,0.6-0.2,1h-0.9c0-0.6,0.1-1.1,0.3-1.5    c0.4-0.7,1-1,2-1c0.8,0,1.4,0.2,1.7,0.6c0.4,0.4,0.5,0.9,0.5,1.4c0,0.5-0.2,1-0.6,1.4c-0.2,0.2-0.6,0.5-1.2,0.8l-0.7,0.4    c-0.3,0.2-0.6,0.3-0.7,0.5c-0.3,0.3-0.5,0.6-0.6,0.9h3.7v0.8h-4.7C19.5,234,19.6,233.5,19.8,233z" />
<path class="st1" d="M29.1,228.3c0.3,0.4,0.5,0.8,0.5,1.2h-0.9c-0.1-0.3-0.1-0.5-0.2-0.6c-0.2-0.3-0.5-0.4-0.9-0.4    c-0.5,0-0.9,0.2-1.1,0.7c-0.3,0.4-0.4,1.1-0.5,1.9c0.2-0.3,0.4-0.5,0.7-0.7c0.3-0.1,0.6-0.2,0.9-0.2c0.6,0,1.1,0.2,1.5,0.5    c0.4,0.4,0.6,0.9,0.6,1.6c0,0.6-0.2,1.2-0.6,1.7c-0.4,0.5-1,0.7-1.7,0.7c-0.6,0-1.2-0.2-1.7-0.7s-0.7-1.3-0.7-2.5    c0-0.9,0.1-1.6,0.3-2.2c0.4-1.1,1.1-1.7,2.2-1.7C28.3,227.7,28.8,227.9,29.1,228.3z M28.4,233.5c0.2-0.3,0.3-0.7,0.3-1.1    c0-0.4-0.1-0.7-0.3-1c-0.2-0.3-0.6-0.5-1.1-0.5c-0.4,0-0.7,0.1-1,0.4S26,232,26,232.5c0,0.4,0.1,0.8,0.4,1.1    c0.3,0.3,0.6,0.4,1.1,0.4C27.9,234,28.2,233.8,28.4,233.5z" />
<path class="st1" d="M30.9,233.5h1v1h-1V233.5z" />
<path class="st1" d="M37.4,228.8c0.3,0.6,0.5,1.3,0.5,2.3c0,0.9-0.1,1.7-0.4,2.3c-0.4,0.9-1.1,1.3-2,1.3c-0.8,0-1.4-0.4-1.8-1.1    c-0.3-0.6-0.5-1.4-0.5-2.4c0-0.8,0.1-1.4,0.3-2c0.4-1,1.1-1.6,2-1.6C36.3,227.7,37,228.1,37.4,228.8z M36.5,233.4    c0.3-0.4,0.4-1.1,0.4-2.2c0-0.8-0.1-1.4-0.3-1.9c-0.2-0.5-0.6-0.8-1.1-0.8c-0.5,0-0.9,0.2-1.1,0.7c-0.2,0.5-0.4,1.2-0.4,2.1    c0,0.7,0.1,1.3,0.2,1.7c0.2,0.6,0.6,1,1.2,1C35.9,234,36.2,233.8,36.5,233.4z" />
<path class="st1" d="M42.8,228.8c0.3,0.6,0.5,1.3,0.5,2.3c0,0.9-0.1,1.7-0.4,2.3c-0.4,0.9-1.1,1.3-2,1.3c-0.8,0-1.4-0.4-1.8-1.1    c-0.3-0.6-0.5-1.4-0.5-2.4c0-0.8,0.1-1.4,0.3-2c0.4-1,1.1-1.6,2-1.6C41.8,227.7,42.4,228.1,42.8,228.8z M42,233.4    c0.3-0.4,0.4-1.1,0.4-2.2c0-0.8-0.1-1.4-0.3-1.9c-0.2-0.5-0.6-0.8-1.1-0.8c-0.5,0-0.9,0.2-1.1,0.7c-0.2,0.5-0.4,1.2-0.4,2.1    c0,0.7,0.1,1.3,0.2,1.7c0.2,0.6,0.6,1,1.2,1C41.3,234,41.7,233.8,42,233.4z" />
</g>
<g>
<path class="st1" d="M19.8,211c0.2-0.4,0.6-0.8,1.2-1.2l0.9-0.5c0.4-0.2,0.7-0.4,0.9-0.6c0.3-0.3,0.4-0.6,0.4-0.9    c0-0.4-0.1-0.7-0.4-1c-0.2-0.2-0.6-0.4-1-0.4c-0.6,0-1,0.2-1.2,0.7c-0.1,0.2-0.2,0.6-0.2,1h-0.9c0-0.6,0.1-1.1,0.3-1.5    c0.4-0.7,1-1,2-1c0.8,0,1.4,0.2,1.7,0.6c0.4,0.4,0.5,0.9,0.5,1.4c0,0.5-0.2,1-0.6,1.4c-0.2,0.2-0.6,0.5-1.2,0.8l-0.7,0.4    c-0.3,0.2-0.6,0.3-0.7,0.5c-0.3,0.3-0.5,0.6-0.6,0.9h3.7v0.8h-4.7C19.5,211.9,19.6,211.4,19.8,211z" />
<path class="st1" d="M25.6,208.5c-0.3-0.3-0.4-0.6-0.4-1c0-0.5,0.2-0.9,0.6-1.3c0.4-0.4,0.9-0.6,1.6-0.6c0.7,0,1.2,0.2,1.5,0.5    c0.4,0.3,0.6,0.8,0.6,1.2c0,0.4-0.1,0.8-0.3,1c-0.1,0.1-0.3,0.3-0.6,0.4c0.3,0.1,0.5,0.3,0.7,0.4c0.3,0.3,0.5,0.7,0.5,1.2    c0,0.6-0.2,1.1-0.6,1.5c-0.4,0.4-1,0.6-1.7,0.6c-0.7,0-1.2-0.2-1.7-0.5c-0.5-0.4-0.7-0.9-0.7-1.6c0-0.4,0.1-0.8,0.3-1.1    c0.2-0.3,0.5-0.5,0.9-0.7C25.9,208.8,25.7,208.7,25.6,208.5z M28.3,211.6c0.3-0.2,0.4-0.5,0.4-1c0-0.4-0.1-0.8-0.4-1    c-0.3-0.2-0.6-0.3-1-0.3c-0.4,0-0.7,0.1-1,0.4c-0.3,0.2-0.4,0.6-0.4,1c0,0.4,0.1,0.7,0.4,0.9c0.2,0.3,0.6,0.4,1.1,0.4    C27.7,211.9,28.1,211.8,28.3,211.6z M28.2,208.2c0.2-0.2,0.3-0.5,0.3-0.8c0-0.3-0.1-0.5-0.3-0.7c-0.2-0.2-0.5-0.3-0.9-0.3    c-0.4,0-0.7,0.1-0.9,0.3c-0.2,0.2-0.3,0.5-0.3,0.8c0,0.3,0.1,0.6,0.4,0.8c0.2,0.2,0.5,0.3,0.8,0.3C27.7,208.5,28,208.4,28.2,208.2    z" />
<path class="st1" d="M30.9,211.5h1v1h-1V211.5z" />
<path class="st1" d="M37.4,206.8c0.3,0.6,0.5,1.3,0.5,2.3c0,0.9-0.1,1.7-0.4,2.3c-0.4,0.9-1.1,1.3-2,1.3c-0.8,0-1.4-0.4-1.8-1.1    c-0.3-0.6-0.5-1.4-0.5-2.4c0-0.8,0.1-1.4,0.3-2c0.4-1,1.1-1.6,2-1.6C36.3,205.7,37,206,37.4,206.8z M36.5,211.3    c0.3-0.4,0.4-1.1,0.4-2.2c0-0.8-0.1-1.4-0.3-1.9c-0.2-0.5-0.6-0.8-1.1-0.8c-0.5,0-0.9,0.2-1.1,0.7c-0.2,0.5-0.4,1.2-0.4,2.1    c0,0.7,0.1,1.3,0.2,1.7c0.2,0.6,0.6,1,1.2,1C35.9,211.9,36.2,211.7,36.5,211.3z" />
<path class="st1" d="M42.8,206.8c0.3,0.6,0.5,1.3,0.5,2.3c0,0.9-0.1,1.7-0.4,2.3c-0.4,0.9-1.1,1.3-2,1.3c-0.8,0-1.4-0.4-1.8-1.1    c-0.3-0.6-0.5-1.4-0.5-2.4c0-0.8,0.1-1.4,0.3-2c0.4-1,1.1-1.6,2-1.6C41.8,205.7,42.4,206,42.8,206.8z M42,211.3    c0.3-0.4,0.4-1.1,0.4-2.2c0-0.8-0.1-1.4-0.3-1.9c-0.2-0.5-0.6-0.8-1.1-0.8c-0.5,0-0.9,0.2-1.1,0.7c-0.2,0.5-0.4,1.2-0.4,2.1    c0,0.7,0.1,1.3,0.2,1.7c0.2,0.6,0.6,1,1.2,1C41.3,211.9,41.7,211.7,42,211.3z" />
</g>
<g>
<path class="st1" d="M19.9,190.5c-0.4-0.4-0.5-1-0.5-1.6h0.9c0,0.4,0.1,0.8,0.2,1c0.2,0.4,0.6,0.5,1.2,0.5c0.5,0,0.8-0.1,1.1-0.4    c0.3-0.2,0.4-0.6,0.4-0.9c0-0.5-0.1-0.8-0.4-1c-0.3-0.2-0.7-0.3-1.2-0.3c-0.1,0-0.1,0-0.2,0s-0.1,0-0.2,0V187c0.1,0,0.2,0,0.2,0    c0.1,0,0.1,0,0.2,0c0.3,0,0.6-0.1,0.8-0.2c0.4-0.2,0.5-0.5,0.5-1c0-0.3-0.1-0.6-0.4-0.8c-0.2-0.2-0.5-0.3-0.8-0.3    c-0.6,0-1,0.2-1.2,0.6c-0.1,0.2-0.2,0.5-0.2,0.9h-0.9c0-0.5,0.1-0.9,0.3-1.3c0.4-0.6,1-1,1.9-1c0.7,0,1.2,0.2,1.6,0.5    c0.4,0.3,0.6,0.8,0.6,1.4c0,0.4-0.1,0.8-0.3,1c-0.1,0.2-0.3,0.3-0.5,0.4c0.4,0.1,0.6,0.3,0.8,0.6s0.3,0.6,0.3,1    c0,0.7-0.2,1.2-0.6,1.6c-0.4,0.4-1,0.6-1.8,0.6C20.9,191.2,20.3,190.9,19.9,190.5z" />
<path class="st1" d="M29.2,185.2c0.3,0.6,0.5,1.3,0.5,2.3c0,0.9-0.1,1.7-0.4,2.3c-0.4,0.9-1.1,1.3-2,1.3c-0.8,0-1.4-0.4-1.8-1.1    c-0.3-0.6-0.5-1.4-0.5-2.4c0-0.8,0.1-1.4,0.3-2c0.4-1,1.1-1.6,2-1.6C28.2,184.1,28.8,184.5,29.2,185.2z M28.3,189.8    c0.3-0.4,0.4-1.1,0.4-2.2c0-0.8-0.1-1.4-0.3-1.9c-0.2-0.5-0.6-0.8-1.1-0.8c-0.5,0-0.9,0.2-1.1,0.7c-0.2,0.5-0.4,1.2-0.4,2.1    c0,0.7,0.1,1.3,0.2,1.7c0.2,0.6,0.6,1,1.2,1C27.7,190.4,28.1,190.2,28.3,189.8z" />
<path class="st1" d="M30.9,189.9h1v1h-1V189.9z" />
<path class="st1" d="M37.4,185.2c0.3,0.6,0.5,1.3,0.5,2.3c0,0.9-0.1,1.7-0.4,2.3c-0.4,0.9-1.1,1.3-2,1.3c-0.8,0-1.4-0.4-1.8-1.1    c-0.3-0.6-0.5-1.4-0.5-2.4c0-0.8,0.1-1.4,0.3-2c0.4-1,1.1-1.6,2-1.6C36.3,184.1,37,184.5,37.4,185.2z M36.5,189.8    c0.3-0.4,0.4-1.1,0.4-2.2c0-0.8-0.1-1.4-0.3-1.9c-0.2-0.5-0.6-0.8-1.1-0.8c-0.5,0-0.9,0.2-1.1,0.7c-0.2,0.5-0.4,1.2-0.4,2.1    c0,0.7,0.1,1.3,0.2,1.7c0.2,0.6,0.6,1,1.2,1C35.9,190.4,36.2,190.2,36.5,189.8z" />
<path class="st1" d="M42.8,185.2c0.3,0.6,0.5,1.3,0.5,2.3c0,0.9-0.1,1.7-0.4,2.3c-0.4,0.9-1.1,1.3-2,1.3c-0.8,0-1.4-0.4-1.8-1.1    c-0.3-0.6-0.5-1.4-0.5-2.4c0-0.8,0.1-1.4,0.3-2c0.4-1,1.1-1.6,2-1.6C41.8,184.1,42.4,184.5,42.8,185.2z M42,189.8    c0.3-0.4,0.4-1.1,0.4-2.2c0-0.8-0.1-1.4-0.3-1.9c-0.2-0.5-0.6-0.8-1.1-0.8c-0.5,0-0.9,0.2-1.1,0.7c-0.2,0.5-0.4,1.2-0.4,2.1    c0,0.7,0.1,1.3,0.2,1.7c0.2,0.6,0.6,1,1.2,1C41.3,190.4,41.7,190.2,42,189.8z" />
</g>
<g>
<path class="st1" d="M19.9,167.4c-0.4-0.4-0.5-1-0.5-1.6h0.9c0,0.4,0.1,0.8,0.2,1c0.2,0.4,0.6,0.5,1.2,0.5c0.5,0,0.8-0.1,1.1-0.4    c0.3-0.2,0.4-0.6,0.4-0.9c0-0.5-0.1-0.8-0.4-1c-0.3-0.2-0.7-0.3-1.2-0.3c-0.1,0-0.1,0-0.2,0s-0.1,0-0.2,0V164c0.1,0,0.2,0,0.2,0    c0.1,0,0.1,0,0.2,0c0.3,0,0.6-0.1,0.8-0.2c0.4-0.2,0.5-0.5,0.5-1c0-0.3-0.1-0.6-0.4-0.8c-0.2-0.2-0.5-0.3-0.8-0.3    c-0.6,0-1,0.2-1.2,0.6c-0.1,0.2-0.2,0.5-0.2,0.9h-0.9c0-0.5,0.1-0.9,0.3-1.3c0.4-0.6,1-1,1.9-1c0.7,0,1.2,0.2,1.6,0.5    c0.4,0.3,0.6,0.8,0.6,1.4c0,0.4-0.1,0.8-0.3,1c-0.1,0.2-0.3,0.3-0.5,0.4c0.4,0.1,0.6,0.3,0.8,0.6s0.3,0.6,0.3,1    c0,0.7-0.2,1.2-0.6,1.6c-0.4,0.4-1,0.6-1.8,0.6C20.9,168.1,20.3,167.9,19.9,167.4z" />
<path class="st1" d="M25.3,166.4c0.2-0.4,0.6-0.8,1.2-1.2l0.9-0.5c0.4-0.2,0.7-0.4,0.9-0.6c0.3-0.3,0.4-0.6,0.4-0.9    c0-0.4-0.1-0.7-0.4-1c-0.2-0.2-0.6-0.4-1-0.4c-0.6,0-1,0.2-1.2,0.7c-0.1,0.2-0.2,0.6-0.2,1h-0.9c0-0.6,0.1-1.1,0.3-1.5    c0.4-0.7,1-1,2-1c0.8,0,1.4,0.2,1.7,0.6c0.4,0.4,0.5,0.9,0.5,1.4c0,0.5-0.2,1-0.6,1.4c-0.2,0.2-0.6,0.5-1.2,0.8l-0.7,0.4    c-0.3,0.2-0.6,0.3-0.7,0.5c-0.3,0.3-0.5,0.6-0.6,0.9h3.7v0.8h-4.7C25,167.3,25.1,166.8,25.3,166.4z" />
<path class="st1" d="M30.9,166.9h1v1h-1V166.9z" />
<path class="st1" d="M37.4,162.2c0.3,0.6,0.5,1.3,0.5,2.3c0,0.9-0.1,1.7-0.4,2.3c-0.4,0.9-1.1,1.3-2,1.3c-0.8,0-1.4-0.4-1.8-1.1    c-0.3-0.6-0.5-1.4-0.5-2.4c0-0.8,0.1-1.4,0.3-2c0.4-1,1.1-1.6,2-1.6C36.3,161.1,37,161.4,37.4,162.2z M36.5,166.7    c0.3-0.4,0.4-1.1,0.4-2.2c0-0.8-0.1-1.4-0.3-1.9c-0.2-0.5-0.6-0.8-1.1-0.8c-0.5,0-0.9,0.2-1.1,0.7c-0.2,0.5-0.4,1.2-0.4,2.1    c0,0.7,0.1,1.3,0.2,1.7c0.2,0.6,0.6,1,1.2,1C35.9,167.3,36.2,167.1,36.5,166.7z" />
<path class="st1" d="M42.8,162.2c0.3,0.6,0.5,1.3,0.5,2.3c0,0.9-0.1,1.7-0.4,2.3c-0.4,0.9-1.1,1.3-2,1.3c-0.8,0-1.4-0.4-1.8-1.1    c-0.3-0.6-0.5-1.4-0.5-2.4c0-0.8,0.1-1.4,0.3-2c0.4-1,1.1-1.6,2-1.6C41.8,161.1,42.4,161.4,42.8,162.2z M42,166.7    c0.3-0.4,0.4-1.1,0.4-2.2c0-0.8-0.1-1.4-0.3-1.9c-0.2-0.5-0.6-0.8-1.1-0.8c-0.5,0-0.9,0.2-1.1,0.7c-0.2,0.5-0.4,1.2-0.4,2.1    c0,0.7,0.1,1.3,0.2,1.7c0.2,0.6,0.6,1,1.2,1C41.3,167.3,41.7,167.1,42,166.7z" />
</g>
<g>
<path class="st1" d="M19.9,145.9c-0.4-0.4-0.5-1-0.5-1.6h0.9c0,0.4,0.1,0.8,0.2,1c0.2,0.4,0.6,0.5,1.2,0.5c0.5,0,0.8-0.1,1.1-0.4    c0.3-0.2,0.4-0.6,0.4-0.9c0-0.5-0.1-0.8-0.4-1c-0.3-0.2-0.7-0.3-1.2-0.3c-0.1,0-0.1,0-0.2,0c-0.1,0-0.1,0-0.2,0v-0.8    c0.1,0,0.2,0,0.2,0c0.1,0,0.1,0,0.2,0c0.3,0,0.6-0.1,0.8-0.2c0.4-0.2,0.5-0.5,0.5-1c0-0.3-0.1-0.6-0.4-0.8s-0.5-0.3-0.8-0.3    c-0.6,0-1,0.2-1.2,0.6c-0.1,0.2-0.2,0.5-0.2,0.9h-0.9c0-0.5,0.1-0.9,0.3-1.3c0.4-0.6,1-1,1.9-1c0.7,0,1.2,0.2,1.6,0.5    s0.6,0.8,0.6,1.4c0,0.4-0.1,0.8-0.3,1c-0.1,0.2-0.3,0.3-0.5,0.4c0.4,0.1,0.6,0.3,0.8,0.6s0.3,0.6,0.3,1c0,0.7-0.2,1.2-0.6,1.6    s-1,0.6-1.8,0.6C20.9,146.6,20.3,146.3,19.9,145.9z" />
<path class="st1" d="M27.9,146.4v-1.7h-3v-0.8l3.1-4.4h0.7v4.4h1v0.8h-1v1.7H27.9z M27.9,143.9v-3.1l-2.2,3.1H27.9z" />
<path class="st1" d="M30.9,145.3h1v1h-1V145.3z" />
<path class="st1" d="M37.4,140.6c0.3,0.6,0.5,1.3,0.5,2.3c0,0.9-0.1,1.7-0.4,2.3c-0.4,0.9-1.1,1.3-2,1.3c-0.8,0-1.4-0.4-1.8-1.1    c-0.3-0.6-0.5-1.4-0.5-2.4c0-0.8,0.1-1.4,0.3-2c0.4-1,1.1-1.6,2-1.6C36.3,139.5,37,139.9,37.4,140.6z M36.5,145.2    c0.3-0.4,0.4-1.1,0.4-2.2c0-0.8-0.1-1.4-0.3-1.9s-0.6-0.8-1.1-0.8c-0.5,0-0.9,0.2-1.1,0.7c-0.2,0.5-0.4,1.2-0.4,2.1    c0,0.7,0.1,1.3,0.2,1.7c0.2,0.6,0.6,1,1.2,1C35.9,145.8,36.2,145.6,36.5,145.2z" />
<path class="st1" d="M42.8,140.6c0.3,0.6,0.5,1.3,0.5,2.3c0,0.9-0.1,1.7-0.4,2.3c-0.4,0.9-1.1,1.3-2,1.3c-0.8,0-1.4-0.4-1.8-1.1    c-0.3-0.6-0.5-1.4-0.5-2.4c0-0.8,0.1-1.4,0.3-2c0.4-1,1.1-1.6,2-1.6C41.8,139.5,42.4,139.9,42.8,140.6z M42,145.2    c0.3-0.4,0.4-1.1,0.4-2.2c0-0.8-0.1-1.4-0.3-1.9s-0.6-0.8-1.1-0.8c-0.5,0-0.9,0.2-1.1,0.7c-0.2,0.5-0.4,1.2-0.4,2.1    c0,0.7,0.1,1.3,0.2,1.7c0.2,0.6,0.6,1,1.2,1C41.3,145.8,41.7,145.6,42,145.2z" />
</g>
<g>
<path class="st1" d="M19.9,123.7c-0.4-0.4-0.5-1-0.5-1.6h0.9c0,0.4,0.1,0.8,0.2,1c0.2,0.4,0.6,0.5,1.2,0.5c0.5,0,0.8-0.1,1.1-0.4    c0.3-0.2,0.4-0.6,0.4-0.9c0-0.5-0.1-0.8-0.4-1c-0.3-0.2-0.7-0.3-1.2-0.3c-0.1,0-0.1,0-0.2,0c-0.1,0-0.1,0-0.2,0v-0.8    c0.1,0,0.2,0,0.2,0c0.1,0,0.1,0,0.2,0c0.3,0,0.6-0.1,0.8-0.2c0.4-0.2,0.5-0.5,0.5-1c0-0.3-0.1-0.6-0.4-0.8s-0.5-0.3-0.8-0.3    c-0.6,0-1,0.2-1.2,0.6c-0.1,0.2-0.2,0.5-0.2,0.9h-0.9c0-0.5,0.1-0.9,0.3-1.3c0.4-0.6,1-1,1.9-1c0.7,0,1.2,0.2,1.6,0.5    s0.6,0.8,0.6,1.4c0,0.4-0.1,0.8-0.3,1c-0.1,0.2-0.3,0.3-0.5,0.4c0.4,0.1,0.6,0.3,0.8,0.6s0.3,0.6,0.3,1c0,0.7-0.2,1.2-0.6,1.6    s-1,0.6-1.8,0.6C20.9,124.3,20.3,124.1,19.9,123.7z" />
<path class="st1" d="M29.1,117.9c0.3,0.4,0.5,0.8,0.5,1.2h-0.9c-0.1-0.3-0.1-0.5-0.2-0.6c-0.2-0.3-0.5-0.4-0.9-0.4    c-0.5,0-0.9,0.2-1.1,0.7c-0.3,0.4-0.4,1.1-0.5,1.9c0.2-0.3,0.4-0.5,0.7-0.7c0.3-0.1,0.6-0.2,0.9-0.2c0.6,0,1.1,0.2,1.5,0.6    c0.4,0.4,0.6,0.9,0.6,1.6c0,0.6-0.2,1.2-0.6,1.7c-0.4,0.5-1,0.7-1.7,0.7c-0.6,0-1.2-0.2-1.7-0.7c-0.5-0.5-0.7-1.3-0.7-2.5    c0-0.9,0.1-1.6,0.3-2.2c0.4-1.1,1.1-1.7,2.2-1.7C28.3,117.3,28.8,117.5,29.1,117.9z M28.4,123.1c0.2-0.3,0.3-0.7,0.3-1.1    c0-0.4-0.1-0.7-0.3-1c-0.2-0.3-0.6-0.5-1.1-0.5c-0.4,0-0.7,0.1-1,0.4S26,121.5,26,122c0,0.4,0.1,0.8,0.4,1.1    c0.3,0.3,0.6,0.4,1.1,0.4C27.9,123.6,28.2,123.4,28.4,123.1z" />
<path class="st1" d="M30.9,123.1h1v1h-1V123.1z" />
<path class="st1" d="M37.4,118.4c0.3,0.6,0.5,1.3,0.5,2.3c0,0.9-0.1,1.7-0.4,2.3c-0.4,0.9-1.1,1.3-2,1.3c-0.8,0-1.4-0.4-1.8-1.1    c-0.3-0.6-0.5-1.4-0.5-2.4c0-0.8,0.1-1.4,0.3-2c0.4-1,1.1-1.6,2-1.6C36.3,117.3,37,117.7,37.4,118.4z M36.5,123    c0.3-0.4,0.4-1.1,0.4-2.2c0-0.8-0.1-1.4-0.3-1.9s-0.6-0.8-1.1-0.8c-0.5,0-0.9,0.2-1.1,0.7c-0.2,0.5-0.4,1.2-0.4,2.1    c0,0.7,0.1,1.3,0.2,1.7c0.2,0.6,0.6,1,1.2,1C35.9,123.5,36.2,123.4,36.5,123z" />
<path class="st1" d="M42.8,118.4c0.3,0.6,0.5,1.3,0.5,2.3c0,0.9-0.1,1.7-0.4,2.3c-0.4,0.9-1.1,1.3-2,1.3c-0.8,0-1.4-0.4-1.8-1.1    c-0.3-0.6-0.5-1.4-0.5-2.4c0-0.8,0.1-1.4,0.3-2c0.4-1,1.1-1.6,2-1.6C41.8,117.3,42.4,117.7,42.8,118.4z M42,123    c0.3-0.4,0.4-1.1,0.4-2.2c0-0.8-0.1-1.4-0.3-1.9s-0.6-0.8-1.1-0.8c-0.5,0-0.9,0.2-1.1,0.7c-0.2,0.5-0.4,1.2-0.4,2.1    c0,0.7,0.1,1.3,0.2,1.7c0.2,0.6,0.6,1,1.2,1C41.3,123.5,41.7,123.4,42,123z" />
</g>
<g>
<path class="st1" d="M19.9,101.4c-0.4-0.4-0.5-1-0.5-1.6h0.9c0,0.4,0.1,0.8,0.2,1c0.2,0.4,0.6,0.5,1.2,0.5c0.5,0,0.8-0.1,1.1-0.4    c0.3-0.2,0.4-0.6,0.4-0.9c0-0.5-0.1-0.8-0.4-1c-0.3-0.2-0.7-0.3-1.2-0.3c-0.1,0-0.1,0-0.2,0c-0.1,0-0.1,0-0.2,0V98    c0.1,0,0.2,0,0.2,0c0.1,0,0.1,0,0.2,0c0.3,0,0.6-0.1,0.8-0.2c0.4-0.2,0.5-0.5,0.5-1c0-0.3-0.1-0.6-0.4-0.8s-0.5-0.3-0.8-0.3    c-0.6,0-1,0.2-1.2,0.6c-0.1,0.2-0.2,0.5-0.2,0.9h-0.9c0-0.5,0.1-0.9,0.3-1.3c0.4-0.6,1-1,1.9-1c0.7,0,1.2,0.2,1.6,0.5    s0.6,0.8,0.6,1.4c0,0.4-0.1,0.8-0.3,1c-0.1,0.2-0.3,0.3-0.5,0.4c0.4,0.1,0.6,0.3,0.8,0.6s0.3,0.6,0.3,1c0,0.7-0.2,1.2-0.6,1.6    s-1,0.6-1.8,0.6C20.9,102.1,20.3,101.9,19.9,101.4z" />
<path class="st1" d="M25.6,97.9c-0.3-0.3-0.4-0.6-0.4-1c0-0.5,0.2-0.9,0.6-1.3c0.4-0.4,0.9-0.6,1.6-0.6c0.7,0,1.2,0.2,1.5,0.5    c0.4,0.3,0.6,0.8,0.6,1.2c0,0.4-0.1,0.8-0.3,1c-0.1,0.1-0.3,0.3-0.6,0.4c0.3,0.1,0.5,0.3,0.7,0.5c0.3,0.3,0.5,0.7,0.5,1.2    c0,0.6-0.2,1.1-0.6,1.5s-1,0.6-1.7,0.6c-0.7,0-1.2-0.2-1.7-0.5c-0.5-0.4-0.7-0.9-0.7-1.6c0-0.4,0.1-0.8,0.3-1.1    c0.2-0.3,0.5-0.5,0.9-0.7C25.9,98.2,25.7,98.1,25.6,97.9z M28.3,101c0.3-0.2,0.4-0.5,0.4-1c0-0.4-0.1-0.8-0.4-1    c-0.3-0.2-0.6-0.3-1-0.3c-0.4,0-0.7,0.1-1,0.4c-0.3,0.2-0.4,0.6-0.4,1c0,0.4,0.1,0.7,0.4,0.9c0.2,0.3,0.6,0.4,1.1,0.4    C27.7,101.3,28.1,101.2,28.3,101z M28.2,97.6c0.2-0.2,0.3-0.5,0.3-0.8c0-0.3-0.1-0.5-0.3-0.7c-0.2-0.2-0.5-0.3-0.9-0.3    c-0.4,0-0.7,0.1-0.9,0.3s-0.3,0.5-0.3,0.8c0,0.3,0.1,0.6,0.4,0.8c0.2,0.2,0.5,0.3,0.8,0.3C27.7,97.9,28,97.8,28.2,97.6z" />
<path class="st1" d="M30.9,100.9h1v1h-1V100.9z" />
<path class="st1" d="M37.4,96.2c0.3,0.6,0.5,1.3,0.5,2.3c0,0.9-0.1,1.7-0.4,2.3c-0.4,0.9-1.1,1.3-2,1.3c-0.8,0-1.4-0.4-1.8-1.1    c-0.3-0.6-0.5-1.4-0.5-2.4c0-0.8,0.1-1.4,0.3-2c0.4-1,1.1-1.6,2-1.6C36.3,95.1,37,95.4,37.4,96.2z M36.5,100.7    c0.3-0.4,0.4-1.1,0.4-2.2c0-0.8-0.1-1.4-0.3-1.9s-0.6-0.8-1.1-0.8c-0.5,0-0.9,0.2-1.1,0.7C34.1,97,34,97.7,34,98.7    c0,0.7,0.1,1.3,0.2,1.7c0.2,0.6,0.6,1,1.2,1C35.9,101.3,36.2,101.1,36.5,100.7z" />
<path class="st1" d="M42.8,96.2c0.3,0.6,0.5,1.3,0.5,2.3c0,0.9-0.1,1.7-0.4,2.3c-0.4,0.9-1.1,1.3-2,1.3c-0.8,0-1.4-0.4-1.8-1.1    c-0.3-0.6-0.5-1.4-0.5-2.4c0-0.8,0.1-1.4,0.3-2c0.4-1,1.1-1.6,2-1.6C41.8,95.1,42.4,95.4,42.8,96.2z M42,100.7    c0.3-0.4,0.4-1.1,0.4-2.2c0-0.8-0.1-1.4-0.3-1.9s-0.6-0.8-1.1-0.8c-0.5,0-0.9,0.2-1.1,0.7c-0.2,0.5-0.4,1.2-0.4,2.1    c0,0.7,0.1,1.3,0.2,1.7c0.2,0.6,0.6,1,1.2,1C41.3,101.3,41.7,101.1,42,100.7z" />
</g>
<g>
<path class="st1" d="M22.4,79.7V78h-3v-0.8l3.1-4.4h0.7v4.4h1V78h-1v1.7H22.4z M22.4,77.3v-3.1l-2.2,3.1H22.4z" />
<path class="st1" d="M29.2,74c0.3,0.6,0.5,1.3,0.5,2.3c0,0.9-0.1,1.7-0.4,2.3c-0.4,0.9-1.1,1.3-2,1.3c-0.8,0-1.4-0.4-1.8-1.1    c-0.3-0.6-0.5-1.4-0.5-2.4c0-0.8,0.1-1.4,0.3-2c0.4-1,1.1-1.6,2-1.6C28.2,72.9,28.8,73.2,29.2,74z M28.3,78.5    c0.3-0.4,0.4-1.1,0.4-2.2c0-0.8-0.1-1.4-0.3-1.9s-0.6-0.8-1.1-0.8c-0.5,0-0.9,0.2-1.1,0.7c-0.2,0.5-0.4,1.2-0.4,2.1    c0,0.7,0.1,1.3,0.2,1.7c0.2,0.6,0.6,1,1.2,1C27.7,79.1,28.1,78.9,28.3,78.5z" />
<path class="st1" d="M30.9,78.7h1v1h-1V78.7z" />
<path class="st1" d="M37.4,74c0.3,0.6,0.5,1.3,0.5,2.3c0,0.9-0.1,1.7-0.4,2.3c-0.4,0.9-1.1,1.3-2,1.3c-0.8,0-1.4-0.4-1.8-1.1    c-0.3-0.6-0.5-1.4-0.5-2.4c0-0.8,0.1-1.4,0.3-2c0.4-1,1.1-1.6,2-1.6C36.3,72.9,37,73.2,37.4,74z M36.5,78.5    c0.3-0.4,0.4-1.1,0.4-2.2c0-0.8-0.1-1.4-0.3-1.9s-0.6-0.8-1.1-0.8c-0.5,0-0.9,0.2-1.1,0.7c-0.2,0.5-0.4,1.2-0.4,2.1    c0,0.7,0.1,1.3,0.2,1.7c0.2,0.6,0.6,1,1.2,1C35.9,79.1,36.2,78.9,36.5,78.5z" />
<path class="st1" d="M42.8,74c0.3,0.6,0.5,1.3,0.5,2.3c0,0.9-0.1,1.7-0.4,2.3c-0.4,0.9-1.1,1.3-2,1.3c-0.8,0-1.4-0.4-1.8-1.1    c-0.3-0.6-0.5-1.4-0.5-2.4c0-0.8,0.1-1.4,0.3-2c0.4-1,1.1-1.6,2-1.6C41.8,72.9,42.4,73.2,42.8,74z M42,78.5    c0.3-0.4,0.4-1.1,0.4-2.2c0-0.8-0.1-1.4-0.3-1.9s-0.6-0.8-1.1-0.8c-0.5,0-0.9,0.2-1.1,0.7c-0.2,0.5-0.4,1.2-0.4,2.1    c0,0.7,0.1,1.3,0.2,1.7c0.2,0.6,0.6,1,1.2,1C41.3,79.1,41.7,78.9,42,78.5z" />
</g>
<g>
<path class="st1" d="M22.4,58.1v-1.7h-3v-0.8l3.1-4.4h0.7v4.4h1v0.8h-1v1.7H22.4z M22.4,55.7v-3.1l-2.2,3.1H22.4z" />
<path class="st1" d="M25.3,56.6c0.2-0.4,0.6-0.8,1.2-1.2l0.9-0.5c0.4-0.2,0.7-0.4,0.9-0.6c0.3-0.3,0.4-0.6,0.4-0.9    c0-0.4-0.1-0.7-0.4-1c-0.2-0.2-0.6-0.4-1-0.4c-0.6,0-1,0.2-1.2,0.7C26,53,26,53.3,26,53.7h-0.9c0-0.6,0.1-1.1,0.3-1.5    c0.4-0.7,1-1,2-1c0.8,0,1.4,0.2,1.7,0.6c0.4,0.4,0.5,0.9,0.5,1.4c0,0.5-0.2,1-0.6,1.4c-0.2,0.2-0.6,0.5-1.2,0.8l-0.7,0.4    c-0.3,0.2-0.6,0.3-0.7,0.5c-0.3,0.3-0.5,0.6-0.6,0.9h3.7v0.8h-4.7C25,57.6,25.1,57,25.3,56.6z" />
<path class="st1" d="M30.9,57.1h1v1h-1V57.1z" />
<path class="st1" d="M37.4,52.4c0.3,0.6,0.5,1.3,0.5,2.3c0,0.9-0.1,1.7-0.4,2.3c-0.4,0.9-1.1,1.3-2,1.3c-0.8,0-1.4-0.4-1.8-1.1    c-0.3-0.6-0.5-1.4-0.5-2.4c0-0.8,0.1-1.4,0.3-2c0.4-1,1.1-1.6,2-1.6C36.3,51.3,37,51.7,37.4,52.4z M36.5,57    c0.3-0.4,0.4-1.1,0.4-2.2c0-0.8-0.1-1.4-0.3-1.9s-0.6-0.8-1.1-0.8c-0.5,0-0.9,0.2-1.1,0.7C34.1,53.3,34,54,34,54.9    c0,0.7,0.1,1.3,0.2,1.7c0.2,0.6,0.6,1,1.2,1C35.9,57.5,36.2,57.4,36.5,57z" />
<path class="st1" d="M42.8,52.4c0.3,0.6,0.5,1.3,0.5,2.3c0,0.9-0.1,1.7-0.4,2.3c-0.4,0.9-1.1,1.3-2,1.3c-0.8,0-1.4-0.4-1.8-1.1    c-0.3-0.6-0.5-1.4-0.5-2.4c0-0.8,0.1-1.4,0.3-2c0.4-1,1.1-1.6,2-1.6C41.8,51.3,42.4,51.7,42.8,52.4z M42,57    c0.3-0.4,0.4-1.1,0.4-2.2c0-0.8-0.1-1.4-0.3-1.9s-0.6-0.8-1.1-0.8c-0.5,0-0.9,0.2-1.1,0.7c-0.2,0.5-0.4,1.2-0.4,2.1    c0,0.7,0.1,1.3,0.2,1.7c0.2,0.6,0.6,1,1.2,1C41.3,57.5,41.7,57.4,42,57z" />
</g>
<g>
<path class="st1" d="M22.4,35.3v-1.7h-3v-0.8l3.1-4.4h0.7v4.4h1v0.8h-1v1.7H22.4z M22.4,32.8v-3.1l-2.2,3.1H22.4z" />
<path class="st1" d="M27.9,35.3v-1.7h-3v-0.8l3.1-4.4h0.7v4.4h1v0.8h-1v1.7H27.9z M27.9,32.8v-3.1l-2.2,3.1H27.9z" />
<path class="st1" d="M30.9,34.2h1v1h-1V34.2z" />
<path class="st1" d="M37.4,29.5c0.3,0.6,0.5,1.3,0.5,2.3c0,0.9-0.1,1.7-0.4,2.3c-0.4,0.9-1.1,1.3-2,1.3c-0.8,0-1.4-0.4-1.8-1.1    c-0.3-0.6-0.5-1.4-0.5-2.4c0-0.8,0.1-1.4,0.3-2c0.4-1,1.1-1.6,2-1.6C36.3,28.4,37,28.8,37.4,29.5z M36.5,34.1    c0.3-0.4,0.4-1.1,0.4-2.2c0-0.8-0.1-1.4-0.3-1.9s-0.6-0.8-1.1-0.8c-0.5,0-0.9,0.2-1.1,0.7C34.1,30.4,34,31.1,34,32    c0,0.7,0.1,1.3,0.2,1.7c0.2,0.6,0.6,1,1.2,1C35.9,34.7,36.2,34.5,36.5,34.1z" />
<path class="st1" d="M42.8,29.5c0.3,0.6,0.5,1.3,0.5,2.3c0,0.9-0.1,1.7-0.4,2.3c-0.4,0.9-1.1,1.3-2,1.3c-0.8,0-1.4-0.4-1.8-1.1    c-0.3-0.6-0.5-1.4-0.5-2.4c0-0.8,0.1-1.4,0.3-2c0.4-1,1.1-1.6,2-1.6C41.8,28.4,42.4,28.8,42.8,29.5z M42,34.1    c0.3-0.4,0.4-1.1,0.4-2.2c0-0.8-0.1-1.4-0.3-1.9s-0.6-0.8-1.1-0.8c-0.5,0-0.9,0.2-1.1,0.7c-0.2,0.5-0.4,1.2-0.4,2.1    c0,0.7,0.1,1.3,0.2,1.7c0.2,0.6,0.6,1,1.2,1C41.3,34.7,41.7,34.5,42,34.1z" />
</g>
<g>
<path class="st1" d="M688.3,277.6c0.2-0.4,0.6-0.8,1.2-1.2l0.9-0.5c0.4-0.2,0.7-0.4,0.9-0.6c0.3-0.3,0.4-0.6,0.4-0.9    c0-0.4-0.1-0.7-0.4-1s-0.6-0.4-1-0.4c-0.6,0-1,0.2-1.2,0.7c-0.1,0.2-0.2,0.6-0.2,1h-0.9c0-0.6,0.1-1.1,0.3-1.5c0.4-0.7,1-1,2-1    c0.8,0,1.4,0.2,1.7,0.6c0.4,0.4,0.5,0.9,0.5,1.4c0,0.5-0.2,1-0.6,1.4c-0.2,0.2-0.6,0.5-1.2,0.8l-0.7,0.4c-0.3,0.2-0.6,0.3-0.7,0.5    c-0.3,0.3-0.5,0.6-0.6,0.9h3.7v0.8H688C688,278.6,688.1,278.1,688.3,277.6z" />
<path class="st1" d="M693.8,277.6c0.2-0.4,0.6-0.8,1.2-1.2l0.9-0.5c0.4-0.2,0.7-0.4,0.9-0.6c0.3-0.3,0.4-0.6,0.4-0.9    c0-0.4-0.1-0.7-0.4-1s-0.6-0.4-1-0.4c-0.6,0-1,0.2-1.2,0.7c-0.1,0.2-0.2,0.6-0.2,1h-0.9c0-0.6,0.1-1.1,0.3-1.5c0.4-0.7,1-1,2-1    c0.8,0,1.4,0.2,1.7,0.6c0.4,0.4,0.5,0.9,0.5,1.4c0,0.5-0.2,1-0.6,1.4c-0.2,0.2-0.6,0.5-1.2,0.8l-0.7,0.4c-0.3,0.2-0.6,0.3-0.7,0.5    c-0.3,0.3-0.5,0.6-0.6,0.9h3.7v0.8h-4.7C693.5,278.6,693.6,278.1,693.8,277.6z" />
<path class="st1" d="M699.4,278.1h1v1h-1V278.1z" />
<path class="st1" d="M705.9,273.4c0.3,0.6,0.5,1.3,0.5,2.3c0,0.9-0.1,1.7-0.4,2.3c-0.4,0.9-1.1,1.3-2,1.3c-0.8,0-1.4-0.4-1.8-1.1    c-0.3-0.6-0.5-1.4-0.5-2.4c0-0.8,0.1-1.4,0.3-2c0.4-1,1.1-1.6,2-1.6C704.8,272.3,705.5,272.7,705.9,273.4z M705,278    c0.3-0.4,0.4-1.1,0.4-2.2c0-0.8-0.1-1.4-0.3-1.9c-0.2-0.5-0.6-0.8-1.1-0.8c-0.5,0-0.9,0.2-1.1,0.7c-0.2,0.5-0.4,1.2-0.4,2.1    c0,0.7,0.1,1.3,0.2,1.7c0.2,0.6,0.6,1,1.2,1C704.4,278.6,704.7,278.4,705,278z" />
<path class="st1" d="M711.3,273.4c0.3,0.6,0.5,1.3,0.5,2.3c0,0.9-0.1,1.7-0.4,2.3c-0.4,0.9-1.1,1.3-2,1.3c-0.8,0-1.4-0.4-1.8-1.1    c-0.3-0.6-0.5-1.4-0.5-2.4c0-0.8,0.1-1.4,0.3-2c0.4-1,1.1-1.6,2-1.6C710.3,272.3,710.9,272.7,711.3,273.4z M710.4,278    c0.3-0.4,0.4-1.1,0.4-2.2c0-0.8-0.1-1.4-0.3-1.9c-0.2-0.5-0.6-0.8-1.1-0.8c-0.5,0-0.9,0.2-1.1,0.7c-0.2,0.5-0.4,1.2-0.4,2.1    c0,0.7,0.1,1.3,0.2,1.7c0.2,0.6,0.6,1,1.2,1C709.8,278.6,710.2,278.4,710.4,278z" />
</g>
<g>
<path class="st1" d="M688.3,254.6c0.2-0.4,0.6-0.8,1.2-1.2l0.9-0.5c0.4-0.2,0.7-0.4,0.9-0.6c0.3-0.3,0.4-0.6,0.4-0.9    c0-0.4-0.1-0.7-0.4-1s-0.6-0.4-1-0.4c-0.6,0-1,0.2-1.2,0.7c-0.1,0.2-0.2,0.6-0.2,1h-0.9c0-0.6,0.1-1.1,0.3-1.5c0.4-0.7,1-1,2-1    c0.8,0,1.4,0.2,1.7,0.6c0.4,0.4,0.5,0.9,0.5,1.4c0,0.5-0.2,1-0.6,1.4c-0.2,0.2-0.6,0.5-1.2,0.8l-0.7,0.4c-0.3,0.2-0.6,0.3-0.7,0.5    c-0.3,0.3-0.5,0.6-0.6,0.9h3.7v0.8H688C688,255.6,688.1,255,688.3,254.6z" />
<path class="st1" d="M696.4,256.1v-1.7h-3v-0.8l3.1-4.4h0.7v4.4h1v0.8h-1v1.7H696.4z M696.4,253.7v-3.1l-2.2,3.1H696.4z" />
<path class="st1" d="M699.4,255.1h1v1h-1V255.1z" />
<path class="st1" d="M705.9,250.4c0.3,0.6,0.5,1.3,0.5,2.3c0,0.9-0.1,1.7-0.4,2.3c-0.4,0.9-1.1,1.3-2,1.3c-0.8,0-1.4-0.4-1.8-1.1    c-0.3-0.6-0.5-1.4-0.5-2.4c0-0.8,0.1-1.4,0.3-2c0.4-1,1.1-1.6,2-1.6C704.8,249.3,705.5,249.7,705.9,250.4z M705,255    c0.3-0.4,0.4-1.1,0.4-2.2c0-0.8-0.1-1.4-0.3-1.9c-0.2-0.5-0.6-0.8-1.1-0.8c-0.5,0-0.9,0.2-1.1,0.7c-0.2,0.5-0.4,1.2-0.4,2.1    c0,0.7,0.1,1.3,0.2,1.7c0.2,0.6,0.6,1,1.2,1C704.4,255.5,704.7,255.4,705,255z" />
<path class="st1" d="M711.3,250.4c0.3,0.6,0.5,1.3,0.5,2.3c0,0.9-0.1,1.7-0.4,2.3c-0.4,0.9-1.1,1.3-2,1.3c-0.8,0-1.4-0.4-1.8-1.1    c-0.3-0.6-0.5-1.4-0.5-2.4c0-0.8,0.1-1.4,0.3-2c0.4-1,1.1-1.6,2-1.6C710.3,249.3,710.9,249.7,711.3,250.4z M710.4,255    c0.3-0.4,0.4-1.1,0.4-2.2c0-0.8-0.1-1.4-0.3-1.9c-0.2-0.5-0.6-0.8-1.1-0.8c-0.5,0-0.9,0.2-1.1,0.7c-0.2,0.5-0.4,1.2-0.4,2.1    c0,0.7,0.1,1.3,0.2,1.7c0.2,0.6,0.6,1,1.2,1C709.8,255.5,710.2,255.4,710.4,255z" />
</g>
<g>
<path class="st1" d="M688.3,233c0.2-0.4,0.6-0.8,1.2-1.2l0.9-0.5c0.4-0.2,0.7-0.4,0.9-0.6c0.3-0.3,0.4-0.6,0.4-0.9    c0-0.4-0.1-0.7-0.4-1s-0.6-0.4-1-0.4c-0.6,0-1,0.2-1.2,0.7c-0.1,0.2-0.2,0.6-0.2,1h-0.9c0-0.6,0.1-1.1,0.3-1.5c0.4-0.7,1-1,2-1    c0.8,0,1.4,0.2,1.7,0.6c0.4,0.4,0.5,0.9,0.5,1.4c0,0.5-0.2,1-0.6,1.4c-0.2,0.2-0.6,0.5-1.2,0.8l-0.7,0.4c-0.3,0.2-0.6,0.3-0.7,0.5    c-0.3,0.3-0.5,0.6-0.6,0.9h3.7v0.8H688C688,234,688.1,233.5,688.3,233z" />
<path class="st1" d="M697.6,228.3c0.3,0.4,0.5,0.8,0.5,1.2h-0.9c-0.1-0.3-0.1-0.5-0.2-0.6c-0.2-0.3-0.5-0.4-0.9-0.4    c-0.5,0-0.9,0.2-1.1,0.7c-0.3,0.4-0.4,1.1-0.5,1.9c0.2-0.3,0.4-0.5,0.7-0.7c0.3-0.1,0.6-0.2,0.9-0.2c0.6,0,1.1,0.2,1.5,0.5    c0.4,0.4,0.6,0.9,0.6,1.6c0,0.6-0.2,1.2-0.6,1.7s-1,0.7-1.7,0.7c-0.6,0-1.2-0.2-1.7-0.7s-0.7-1.3-0.7-2.5c0-0.9,0.1-1.6,0.3-2.2    c0.4-1.1,1.1-1.7,2.2-1.7C696.7,227.7,697.3,227.9,697.6,228.3z M696.9,233.5c0.2-0.3,0.3-0.7,0.3-1.1c0-0.4-0.1-0.7-0.3-1    s-0.6-0.5-1.1-0.5c-0.4,0-0.7,0.1-1,0.4c-0.3,0.2-0.4,0.6-0.4,1.1c0,0.4,0.1,0.8,0.4,1.1c0.3,0.3,0.6,0.4,1.1,0.4    C696.4,234,696.7,233.8,696.9,233.5z" />
<path class="st1" d="M699.4,233.5h1v1h-1V233.5z" />
<path class="st1" d="M705.9,228.8c0.3,0.6,0.5,1.3,0.5,2.3c0,0.9-0.1,1.7-0.4,2.3c-0.4,0.9-1.1,1.3-2,1.3c-0.8,0-1.4-0.4-1.8-1.1    c-0.3-0.6-0.5-1.4-0.5-2.4c0-0.8,0.1-1.4,0.3-2c0.4-1,1.1-1.6,2-1.6C704.8,227.7,705.5,228.1,705.9,228.8z M705,233.4    c0.3-0.4,0.4-1.1,0.4-2.2c0-0.8-0.1-1.4-0.3-1.9c-0.2-0.5-0.6-0.8-1.1-0.8c-0.5,0-0.9,0.2-1.1,0.7c-0.2,0.5-0.4,1.2-0.4,2.1    c0,0.7,0.1,1.3,0.2,1.7c0.2,0.6,0.6,1,1.2,1C704.4,234,704.7,233.8,705,233.4z" />
<path class="st1" d="M711.3,228.8c0.3,0.6,0.5,1.3,0.5,2.3c0,0.9-0.1,1.7-0.4,2.3c-0.4,0.9-1.1,1.3-2,1.3c-0.8,0-1.4-0.4-1.8-1.1    c-0.3-0.6-0.5-1.4-0.5-2.4c0-0.8,0.1-1.4,0.3-2c0.4-1,1.1-1.6,2-1.6C710.3,227.7,710.9,228.1,711.3,228.8z M710.4,233.4    c0.3-0.4,0.4-1.1,0.4-2.2c0-0.8-0.1-1.4-0.3-1.9c-0.2-0.5-0.6-0.8-1.1-0.8c-0.5,0-0.9,0.2-1.1,0.7c-0.2,0.5-0.4,1.2-0.4,2.1    c0,0.7,0.1,1.3,0.2,1.7c0.2,0.6,0.6,1,1.2,1C709.8,234,710.2,233.8,710.4,233.4z" />
</g>
<g>
<path class="st1" d="M688.3,211c0.2-0.4,0.6-0.8,1.2-1.2l0.9-0.5c0.4-0.2,0.7-0.4,0.9-0.6c0.3-0.3,0.4-0.6,0.4-0.9    c0-0.4-0.1-0.7-0.4-1s-0.6-0.4-1-0.4c-0.6,0-1,0.2-1.2,0.7c-0.1,0.2-0.2,0.6-0.2,1h-0.9c0-0.6,0.1-1.1,0.3-1.5c0.4-0.7,1-1,2-1    c0.8,0,1.4,0.2,1.7,0.6c0.4,0.4,0.5,0.9,0.5,1.4c0,0.5-0.2,1-0.6,1.4c-0.2,0.2-0.6,0.5-1.2,0.8l-0.7,0.4c-0.3,0.2-0.6,0.3-0.7,0.5    c-0.3,0.3-0.5,0.6-0.6,0.9h3.7v0.8H688C688,211.9,688.1,211.4,688.3,211z" />
<path class="st1" d="M694,208.5c-0.3-0.3-0.4-0.6-0.4-1c0-0.5,0.2-0.9,0.6-1.3c0.4-0.4,0.9-0.6,1.6-0.6c0.7,0,1.2,0.2,1.5,0.5    c0.4,0.3,0.6,0.8,0.6,1.2c0,0.4-0.1,0.8-0.3,1c-0.1,0.1-0.3,0.3-0.6,0.4c0.3,0.1,0.5,0.3,0.7,0.4c0.3,0.3,0.5,0.7,0.5,1.2    c0,0.6-0.2,1.1-0.6,1.5c-0.4,0.4-1,0.6-1.7,0.6c-0.7,0-1.2-0.2-1.7-0.5c-0.5-0.4-0.7-0.9-0.7-1.6c0-0.4,0.1-0.8,0.3-1.1    c0.2-0.3,0.5-0.5,0.9-0.7C694.4,208.8,694.2,208.7,694,208.5z M696.8,211.6c0.3-0.2,0.4-0.5,0.4-1c0-0.4-0.1-0.8-0.4-1    c-0.3-0.2-0.6-0.3-1-0.3c-0.4,0-0.7,0.1-1,0.4c-0.3,0.2-0.4,0.6-0.4,1c0,0.4,0.1,0.7,0.4,0.9c0.2,0.3,0.6,0.4,1.1,0.4    C696.2,211.9,696.6,211.8,696.8,211.6z M696.7,208.2c0.2-0.2,0.3-0.5,0.3-0.8c0-0.3-0.1-0.5-0.3-0.7c-0.2-0.2-0.5-0.3-0.9-0.3    c-0.4,0-0.7,0.1-0.9,0.3c-0.2,0.2-0.3,0.5-0.3,0.8c0,0.3,0.1,0.6,0.4,0.8c0.2,0.2,0.5,0.3,0.8,0.3    C696.2,208.5,696.5,208.4,696.7,208.2z" />
<path class="st1" d="M699.4,211.5h1v1h-1V211.5z" />
<path class="st1" d="M705.9,206.8c0.3,0.6,0.5,1.3,0.5,2.3c0,0.9-0.1,1.7-0.4,2.3c-0.4,0.9-1.1,1.3-2,1.3c-0.8,0-1.4-0.4-1.8-1.1    c-0.3-0.6-0.5-1.4-0.5-2.4c0-0.8,0.1-1.4,0.3-2c0.4-1,1.1-1.6,2-1.6C704.8,205.7,705.5,206,705.9,206.8z M705,211.3    c0.3-0.4,0.4-1.1,0.4-2.2c0-0.8-0.1-1.4-0.3-1.9c-0.2-0.5-0.6-0.8-1.1-0.8c-0.5,0-0.9,0.2-1.1,0.7c-0.2,0.5-0.4,1.2-0.4,2.1    c0,0.7,0.1,1.3,0.2,1.7c0.2,0.6,0.6,1,1.2,1C704.4,211.9,704.7,211.7,705,211.3z" />
<path class="st1" d="M711.3,206.8c0.3,0.6,0.5,1.3,0.5,2.3c0,0.9-0.1,1.7-0.4,2.3c-0.4,0.9-1.1,1.3-2,1.3c-0.8,0-1.4-0.4-1.8-1.1    c-0.3-0.6-0.5-1.4-0.5-2.4c0-0.8,0.1-1.4,0.3-2c0.4-1,1.1-1.6,2-1.6C710.3,205.7,710.9,206,711.3,206.8z M710.4,211.3    c0.3-0.4,0.4-1.1,0.4-2.2c0-0.8-0.1-1.4-0.3-1.9c-0.2-0.5-0.6-0.8-1.1-0.8c-0.5,0-0.9,0.2-1.1,0.7c-0.2,0.5-0.4,1.2-0.4,2.1    c0,0.7,0.1,1.3,0.2,1.7c0.2,0.6,0.6,1,1.2,1C709.8,211.9,710.2,211.7,710.4,211.3z" />
</g>
<g>
<path class="st1" d="M688.4,190.5c-0.4-0.4-0.5-1-0.5-1.6h0.9c0,0.4,0.1,0.8,0.2,1c0.2,0.4,0.6,0.5,1.2,0.5c0.5,0,0.8-0.1,1.1-0.4    s0.4-0.6,0.4-0.9c0-0.5-0.1-0.8-0.4-1c-0.3-0.2-0.7-0.3-1.2-0.3c-0.1,0-0.1,0-0.2,0c-0.1,0-0.1,0-0.2,0V187c0.1,0,0.2,0,0.2,0    s0.1,0,0.2,0c0.3,0,0.6-0.1,0.8-0.2c0.4-0.2,0.5-0.5,0.5-1c0-0.3-0.1-0.6-0.4-0.8c-0.2-0.2-0.5-0.3-0.8-0.3c-0.6,0-1,0.2-1.2,0.6    c-0.1,0.2-0.2,0.5-0.2,0.9h-0.9c0-0.5,0.1-0.9,0.3-1.3c0.4-0.6,1-1,1.9-1c0.7,0,1.2,0.2,1.6,0.5c0.4,0.3,0.6,0.8,0.6,1.4    c0,0.4-0.1,0.8-0.3,1c-0.1,0.2-0.3,0.3-0.5,0.4c0.4,0.1,0.6,0.3,0.8,0.6c0.2,0.3,0.3,0.6,0.3,1c0,0.7-0.2,1.2-0.6,1.6    c-0.4,0.4-1,0.6-1.8,0.6C689.4,191.2,688.8,190.9,688.4,190.5z" />
<path class="st1" d="M697.7,185.2c0.3,0.6,0.5,1.3,0.5,2.3c0,0.9-0.1,1.7-0.4,2.3c-0.4,0.9-1.1,1.3-2,1.3c-0.8,0-1.4-0.4-1.8-1.1    c-0.3-0.6-0.5-1.4-0.5-2.4c0-0.8,0.1-1.4,0.3-2c0.4-1,1.1-1.6,2-1.6C696.7,184.1,697.3,184.5,697.7,185.2z M696.8,189.8    c0.3-0.4,0.4-1.1,0.4-2.2c0-0.8-0.1-1.4-0.3-1.9c-0.2-0.5-0.6-0.8-1.1-0.8c-0.5,0-0.9,0.2-1.1,0.7c-0.2,0.5-0.4,1.2-0.4,2.1    c0,0.7,0.1,1.3,0.2,1.7c0.2,0.6,0.6,1,1.2,1C696.2,190.4,696.6,190.2,696.8,189.8z" />
<path class="st1" d="M699.4,189.9h1v1h-1V189.9z" />
<path class="st1" d="M705.9,185.2c0.3,0.6,0.5,1.3,0.5,2.3c0,0.9-0.1,1.7-0.4,2.3c-0.4,0.9-1.1,1.3-2,1.3c-0.8,0-1.4-0.4-1.8-1.1    c-0.3-0.6-0.5-1.4-0.5-2.4c0-0.8,0.1-1.4,0.3-2c0.4-1,1.1-1.6,2-1.6C704.8,184.1,705.5,184.5,705.9,185.2z M705,189.8    c0.3-0.4,0.4-1.1,0.4-2.2c0-0.8-0.1-1.4-0.3-1.9c-0.2-0.5-0.6-0.8-1.1-0.8c-0.5,0-0.9,0.2-1.1,0.7c-0.2,0.5-0.4,1.2-0.4,2.1    c0,0.7,0.1,1.3,0.2,1.7c0.2,0.6,0.6,1,1.2,1C704.4,190.4,704.7,190.2,705,189.8z" />
<path class="st1" d="M711.3,185.2c0.3,0.6,0.5,1.3,0.5,2.3c0,0.9-0.1,1.7-0.4,2.3c-0.4,0.9-1.1,1.3-2,1.3c-0.8,0-1.4-0.4-1.8-1.1    c-0.3-0.6-0.5-1.4-0.5-2.4c0-0.8,0.1-1.4,0.3-2c0.4-1,1.1-1.6,2-1.6C710.3,184.1,710.9,184.5,711.3,185.2z M710.4,189.8    c0.3-0.4,0.4-1.1,0.4-2.2c0-0.8-0.1-1.4-0.3-1.9c-0.2-0.5-0.6-0.8-1.1-0.8c-0.5,0-0.9,0.2-1.1,0.7c-0.2,0.5-0.4,1.2-0.4,2.1    c0,0.7,0.1,1.3,0.2,1.7c0.2,0.6,0.6,1,1.2,1C709.8,190.4,710.2,190.2,710.4,189.8z" />
</g>
<g>
<path class="st1" d="M688.4,167.4c-0.4-0.4-0.5-1-0.5-1.6h0.9c0,0.4,0.1,0.8,0.2,1c0.2,0.4,0.6,0.5,1.2,0.5c0.5,0,0.8-0.1,1.1-0.4    s0.4-0.6,0.4-0.9c0-0.5-0.1-0.8-0.4-1c-0.3-0.2-0.7-0.3-1.2-0.3c-0.1,0-0.1,0-0.2,0c-0.1,0-0.1,0-0.2,0V164c0.1,0,0.2,0,0.2,0    s0.1,0,0.2,0c0.3,0,0.6-0.1,0.8-0.2c0.4-0.2,0.5-0.5,0.5-1c0-0.3-0.1-0.6-0.4-0.8c-0.2-0.2-0.5-0.3-0.8-0.3c-0.6,0-1,0.2-1.2,0.6    c-0.1,0.2-0.2,0.5-0.2,0.9h-0.9c0-0.5,0.1-0.9,0.3-1.3c0.4-0.6,1-1,1.9-1c0.7,0,1.2,0.2,1.6,0.5c0.4,0.3,0.6,0.8,0.6,1.4    c0,0.4-0.1,0.8-0.3,1c-0.1,0.2-0.3,0.3-0.5,0.4c0.4,0.1,0.6,0.3,0.8,0.6c0.2,0.3,0.3,0.6,0.3,1c0,0.7-0.2,1.2-0.6,1.6    c-0.4,0.4-1,0.6-1.8,0.6C689.4,168.1,688.8,167.9,688.4,167.4z" />
<path class="st1" d="M693.8,166.4c0.2-0.4,0.6-0.8,1.2-1.2l0.9-0.5c0.4-0.2,0.7-0.4,0.9-0.6c0.3-0.3,0.4-0.6,0.4-0.9    c0-0.4-0.1-0.7-0.4-1s-0.6-0.4-1-0.4c-0.6,0-1,0.2-1.2,0.7c-0.1,0.2-0.2,0.6-0.2,1h-0.9c0-0.6,0.1-1.1,0.3-1.5c0.4-0.7,1-1,2-1    c0.8,0,1.4,0.2,1.7,0.6c0.4,0.4,0.5,0.9,0.5,1.4c0,0.5-0.2,1-0.6,1.4c-0.2,0.2-0.6,0.5-1.2,0.8l-0.7,0.4c-0.3,0.2-0.6,0.3-0.7,0.5    c-0.3,0.3-0.5,0.6-0.6,0.9h3.7v0.8h-4.7C693.5,167.3,693.6,166.8,693.8,166.4z" />
<path class="st1" d="M699.4,166.9h1v1h-1V166.9z" />
<path class="st1" d="M705.9,162.2c0.3,0.6,0.5,1.3,0.5,2.3c0,0.9-0.1,1.7-0.4,2.3c-0.4,0.9-1.1,1.3-2,1.3c-0.8,0-1.4-0.4-1.8-1.1    c-0.3-0.6-0.5-1.4-0.5-2.4c0-0.8,0.1-1.4,0.3-2c0.4-1,1.1-1.6,2-1.6C704.8,161.1,705.5,161.4,705.9,162.2z M705,166.7    c0.3-0.4,0.4-1.1,0.4-2.2c0-0.8-0.1-1.4-0.3-1.9c-0.2-0.5-0.6-0.8-1.1-0.8c-0.5,0-0.9,0.2-1.1,0.7c-0.2,0.5-0.4,1.2-0.4,2.1    c0,0.7,0.1,1.3,0.2,1.7c0.2,0.6,0.6,1,1.2,1C704.4,167.3,704.7,167.1,705,166.7z" />
<path class="st1" d="M711.3,162.2c0.3,0.6,0.5,1.3,0.5,2.3c0,0.9-0.1,1.7-0.4,2.3c-0.4,0.9-1.1,1.3-2,1.3c-0.8,0-1.4-0.4-1.8-1.1    c-0.3-0.6-0.5-1.4-0.5-2.4c0-0.8,0.1-1.4,0.3-2c0.4-1,1.1-1.6,2-1.6C710.3,161.1,710.9,161.4,711.3,162.2z M710.4,166.7    c0.3-0.4,0.4-1.1,0.4-2.2c0-0.8-0.1-1.4-0.3-1.9c-0.2-0.5-0.6-0.8-1.1-0.8c-0.5,0-0.9,0.2-1.1,0.7c-0.2,0.5-0.4,1.2-0.4,2.1    c0,0.7,0.1,1.3,0.2,1.7c0.2,0.6,0.6,1,1.2,1C709.8,167.3,710.2,167.1,710.4,166.7z" />
</g>
<g>
<path class="st1" d="M688.4,145.9c-0.4-0.4-0.5-1-0.5-1.6h0.9c0,0.4,0.1,0.8,0.2,1c0.2,0.4,0.6,0.5,1.2,0.5c0.5,0,0.8-0.1,1.1-0.4    c0.3-0.2,0.4-0.6,0.4-0.9c0-0.5-0.1-0.8-0.4-1c-0.3-0.2-0.7-0.3-1.2-0.3c-0.1,0-0.1,0-0.2,0c-0.1,0-0.1,0-0.2,0v-0.8    c0.1,0,0.2,0,0.2,0c0.1,0,0.1,0,0.2,0c0.3,0,0.6-0.1,0.8-0.2c0.4-0.2,0.5-0.5,0.5-1c0-0.3-0.1-0.6-0.4-0.8    c-0.2-0.2-0.5-0.3-0.8-0.3c-0.6,0-1,0.2-1.2,0.6c-0.1,0.2-0.2,0.5-0.2,0.9h-0.9c0-0.5,0.1-0.9,0.3-1.3c0.4-0.6,1-1,1.9-1    c0.7,0,1.2,0.2,1.6,0.5s0.6,0.8,0.6,1.4c0,0.4-0.1,0.8-0.3,1c-0.1,0.2-0.3,0.3-0.5,0.4c0.4,0.1,0.6,0.3,0.8,0.6    c0.2,0.3,0.3,0.6,0.3,1c0,0.7-0.2,1.2-0.6,1.6s-1,0.6-1.8,0.6C689.4,146.6,688.8,146.3,688.4,145.9z" />
<path class="st1" d="M696.4,146.4v-1.7h-3v-0.8l3.1-4.4h0.7v4.4h1v0.8h-1v1.7H696.4z M696.4,143.9v-3.1l-2.2,3.1H696.4z" />
<path class="st1" d="M699.4,145.3h1v1h-1V145.3z" />
<path class="st1" d="M705.9,140.6c0.3,0.6,0.5,1.3,0.5,2.3c0,0.9-0.1,1.7-0.4,2.3c-0.4,0.9-1.1,1.3-2,1.3c-0.8,0-1.4-0.4-1.8-1.1    c-0.3-0.6-0.5-1.4-0.5-2.4c0-0.8,0.1-1.4,0.3-2c0.4-1,1.1-1.6,2-1.6C704.8,139.5,705.5,139.9,705.9,140.6z M705,145.2    c0.3-0.4,0.4-1.1,0.4-2.2c0-0.8-0.1-1.4-0.3-1.9c-0.2-0.5-0.6-0.8-1.1-0.8c-0.5,0-0.9,0.2-1.1,0.7c-0.2,0.5-0.4,1.2-0.4,2.1    c0,0.7,0.1,1.3,0.2,1.7c0.2,0.6,0.6,1,1.2,1C704.4,145.8,704.7,145.6,705,145.2z" />
<path class="st1" d="M711.3,140.6c0.3,0.6,0.5,1.3,0.5,2.3c0,0.9-0.1,1.7-0.4,2.3c-0.4,0.9-1.1,1.3-2,1.3c-0.8,0-1.4-0.4-1.8-1.1    c-0.3-0.6-0.5-1.4-0.5-2.4c0-0.8,0.1-1.4,0.3-2c0.4-1,1.1-1.6,2-1.6C710.3,139.5,710.9,139.9,711.3,140.6z M710.4,145.2    c0.3-0.4,0.4-1.1,0.4-2.2c0-0.8-0.1-1.4-0.3-1.9c-0.2-0.5-0.6-0.8-1.1-0.8c-0.5,0-0.9,0.2-1.1,0.7c-0.2,0.5-0.4,1.2-0.4,2.1    c0,0.7,0.1,1.3,0.2,1.7c0.2,0.6,0.6,1,1.2,1C709.8,145.8,710.2,145.6,710.4,145.2z" />
</g>
<g>
<path class="st1" d="M688.4,123.7c-0.4-0.4-0.5-1-0.5-1.6h0.9c0,0.4,0.1,0.8,0.2,1c0.2,0.4,0.6,0.5,1.2,0.5c0.5,0,0.8-0.1,1.1-0.4    c0.3-0.2,0.4-0.6,0.4-0.9c0-0.5-0.1-0.8-0.4-1c-0.3-0.2-0.7-0.3-1.2-0.3c-0.1,0-0.1,0-0.2,0c-0.1,0-0.1,0-0.2,0v-0.8    c0.1,0,0.2,0,0.2,0c0.1,0,0.1,0,0.2,0c0.3,0,0.6-0.1,0.8-0.2c0.4-0.2,0.5-0.5,0.5-1c0-0.3-0.1-0.6-0.4-0.8    c-0.2-0.2-0.5-0.3-0.8-0.3c-0.6,0-1,0.2-1.2,0.6c-0.1,0.2-0.2,0.5-0.2,0.9h-0.9c0-0.5,0.1-0.9,0.3-1.3c0.4-0.6,1-1,1.9-1    c0.7,0,1.2,0.2,1.6,0.5s0.6,0.8,0.6,1.4c0,0.4-0.1,0.8-0.3,1c-0.1,0.2-0.3,0.3-0.5,0.4c0.4,0.1,0.6,0.3,0.8,0.6    c0.2,0.3,0.3,0.6,0.3,1c0,0.7-0.2,1.2-0.6,1.6s-1,0.6-1.8,0.6C689.4,124.3,688.8,124.1,688.4,123.7z" />
<path class="st1" d="M697.6,117.9c0.3,0.4,0.5,0.8,0.5,1.2h-0.9c-0.1-0.3-0.1-0.5-0.2-0.6c-0.2-0.3-0.5-0.4-0.9-0.4    c-0.5,0-0.9,0.2-1.1,0.7c-0.3,0.4-0.4,1.1-0.5,1.9c0.2-0.3,0.4-0.5,0.7-0.7c0.3-0.1,0.6-0.2,0.9-0.2c0.6,0,1.1,0.2,1.5,0.6    c0.4,0.4,0.6,0.9,0.6,1.6c0,0.6-0.2,1.2-0.6,1.7c-0.4,0.5-1,0.7-1.7,0.7c-0.6,0-1.2-0.2-1.7-0.7c-0.5-0.5-0.7-1.3-0.7-2.5    c0-0.9,0.1-1.6,0.3-2.2c0.4-1.1,1.1-1.7,2.2-1.7C696.7,117.3,697.3,117.5,697.6,117.9z M696.9,123.1c0.2-0.3,0.3-0.7,0.3-1.1    c0-0.4-0.1-0.7-0.3-1c-0.2-0.3-0.6-0.5-1.1-0.5c-0.4,0-0.7,0.1-1,0.4c-0.3,0.2-0.4,0.6-0.4,1.1c0,0.4,0.1,0.8,0.4,1.1    c0.3,0.3,0.6,0.4,1.1,0.4C696.4,123.6,696.7,123.4,696.9,123.1z" />
<path class="st1" d="M699.4,123.1h1v1h-1V123.1z" />
<path class="st1" d="M705.9,118.4c0.3,0.6,0.5,1.3,0.5,2.3c0,0.9-0.1,1.7-0.4,2.3c-0.4,0.9-1.1,1.3-2,1.3c-0.8,0-1.4-0.4-1.8-1.1    c-0.3-0.6-0.5-1.4-0.5-2.4c0-0.8,0.1-1.4,0.3-2c0.4-1,1.1-1.6,2-1.6C704.8,117.3,705.5,117.7,705.9,118.4z M705,123    c0.3-0.4,0.4-1.1,0.4-2.2c0-0.8-0.1-1.4-0.3-1.9c-0.2-0.5-0.6-0.8-1.1-0.8c-0.5,0-0.9,0.2-1.1,0.7c-0.2,0.5-0.4,1.2-0.4,2.1    c0,0.7,0.1,1.3,0.2,1.7c0.2,0.6,0.6,1,1.2,1C704.4,123.5,704.7,123.4,705,123z" />
<path class="st1" d="M711.3,118.4c0.3,0.6,0.5,1.3,0.5,2.3c0,0.9-0.1,1.7-0.4,2.3c-0.4,0.9-1.1,1.3-2,1.3c-0.8,0-1.4-0.4-1.8-1.1    c-0.3-0.6-0.5-1.4-0.5-2.4c0-0.8,0.1-1.4,0.3-2c0.4-1,1.1-1.6,2-1.6C710.3,117.3,710.9,117.7,711.3,118.4z M710.4,123    c0.3-0.4,0.4-1.1,0.4-2.2c0-0.8-0.1-1.4-0.3-1.9c-0.2-0.5-0.6-0.8-1.1-0.8c-0.5,0-0.9,0.2-1.1,0.7c-0.2,0.5-0.4,1.2-0.4,2.1    c0,0.7,0.1,1.3,0.2,1.7c0.2,0.6,0.6,1,1.2,1C709.8,123.5,710.2,123.4,710.4,123z" />
</g>
<g>
<path class="st1" d="M688.4,101.4c-0.4-0.4-0.5-1-0.5-1.6h0.9c0,0.4,0.1,0.8,0.2,1c0.2,0.4,0.6,0.5,1.2,0.5c0.5,0,0.8-0.1,1.1-0.4    c0.3-0.2,0.4-0.6,0.4-0.9c0-0.5-0.1-0.8-0.4-1c-0.3-0.2-0.7-0.3-1.2-0.3c-0.1,0-0.1,0-0.2,0c-0.1,0-0.1,0-0.2,0V98    c0.1,0,0.2,0,0.2,0c0.1,0,0.1,0,0.2,0c0.3,0,0.6-0.1,0.8-0.2c0.4-0.2,0.5-0.5,0.5-1c0-0.3-0.1-0.6-0.4-0.8    c-0.2-0.2-0.5-0.3-0.8-0.3c-0.6,0-1,0.2-1.2,0.6c-0.1,0.2-0.2,0.5-0.2,0.9h-0.9c0-0.5,0.1-0.9,0.3-1.3c0.4-0.6,1-1,1.9-1    c0.7,0,1.2,0.2,1.6,0.5s0.6,0.8,0.6,1.4c0,0.4-0.1,0.8-0.3,1c-0.1,0.2-0.3,0.3-0.5,0.4c0.4,0.1,0.6,0.3,0.8,0.6    c0.2,0.3,0.3,0.6,0.3,1c0,0.7-0.2,1.2-0.6,1.6s-1,0.6-1.8,0.6C689.4,102.1,688.8,101.9,688.4,101.4z" />
<path class="st1" d="M694,97.9c-0.3-0.3-0.4-0.6-0.4-1c0-0.5,0.2-0.9,0.6-1.3c0.4-0.4,0.9-0.6,1.6-0.6c0.7,0,1.2,0.2,1.5,0.5    s0.6,0.8,0.6,1.2c0,0.4-0.1,0.8-0.3,1c-0.1,0.1-0.3,0.3-0.6,0.4c0.3,0.1,0.5,0.3,0.7,0.5c0.3,0.3,0.5,0.7,0.5,1.2    c0,0.6-0.2,1.1-0.6,1.5s-1,0.6-1.7,0.6c-0.7,0-1.2-0.2-1.7-0.5c-0.5-0.4-0.7-0.9-0.7-1.6c0-0.4,0.1-0.8,0.3-1.1    c0.2-0.3,0.5-0.5,0.9-0.7C694.4,98.2,694.2,98.1,694,97.9z M696.8,101c0.3-0.2,0.4-0.5,0.4-1c0-0.4-0.1-0.8-0.4-1    c-0.3-0.2-0.6-0.3-1-0.3c-0.4,0-0.7,0.1-1,0.4c-0.3,0.2-0.4,0.6-0.4,1c0,0.4,0.1,0.7,0.4,0.9c0.2,0.3,0.6,0.4,1.1,0.4    C696.2,101.3,696.6,101.2,696.8,101z M696.7,97.6c0.2-0.2,0.3-0.5,0.3-0.8c0-0.3-0.1-0.5-0.3-0.7s-0.5-0.3-0.9-0.3    c-0.4,0-0.7,0.1-0.9,0.3c-0.2,0.2-0.3,0.5-0.3,0.8c0,0.3,0.1,0.6,0.4,0.8c0.2,0.2,0.5,0.3,0.8,0.3    C696.2,97.9,696.5,97.8,696.7,97.6z" />
<path class="st1" d="M699.4,100.9h1v1h-1V100.9z" />
<path class="st1" d="M705.9,96.2c0.3,0.6,0.5,1.3,0.5,2.3c0,0.9-0.1,1.7-0.4,2.3c-0.4,0.9-1.1,1.3-2,1.3c-0.8,0-1.4-0.4-1.8-1.1    c-0.3-0.6-0.5-1.4-0.5-2.4c0-0.8,0.1-1.4,0.3-2c0.4-1,1.1-1.6,2-1.6C704.8,95.1,705.5,95.4,705.9,96.2z M705,100.7    c0.3-0.4,0.4-1.1,0.4-2.2c0-0.8-0.1-1.4-0.3-1.9c-0.2-0.5-0.6-0.8-1.1-0.8c-0.5,0-0.9,0.2-1.1,0.7c-0.2,0.5-0.4,1.2-0.4,2.1    c0,0.7,0.1,1.3,0.2,1.7c0.2,0.6,0.6,1,1.2,1C704.4,101.3,704.7,101.1,705,100.7z" />
<path class="st1" d="M711.3,96.2c0.3,0.6,0.5,1.3,0.5,2.3c0,0.9-0.1,1.7-0.4,2.3c-0.4,0.9-1.1,1.3-2,1.3c-0.8,0-1.4-0.4-1.8-1.1    c-0.3-0.6-0.5-1.4-0.5-2.4c0-0.8,0.1-1.4,0.3-2c0.4-1,1.1-1.6,2-1.6C710.3,95.1,710.9,95.4,711.3,96.2z M710.4,100.7    c0.3-0.4,0.4-1.1,0.4-2.2c0-0.8-0.1-1.4-0.3-1.9c-0.2-0.5-0.6-0.8-1.1-0.8c-0.5,0-0.9,0.2-1.1,0.7c-0.2,0.5-0.4,1.2-0.4,2.1    c0,0.7,0.1,1.3,0.2,1.7c0.2,0.6,0.6,1,1.2,1C709.8,101.3,710.2,101.1,710.4,100.7z" />
</g>
<g>
<path class="st1" d="M690.9,79.7V78h-3v-0.8l3.1-4.4h0.7v4.4h1V78h-1v1.7H690.9z M690.9,77.3v-3.1l-2.2,3.1H690.9z" />
<path class="st1" d="M697.7,74c0.3,0.6,0.5,1.3,0.5,2.3c0,0.9-0.1,1.7-0.4,2.3c-0.4,0.9-1.1,1.3-2,1.3c-0.8,0-1.4-0.4-1.8-1.1    c-0.3-0.6-0.5-1.4-0.5-2.4c0-0.8,0.1-1.4,0.3-2c0.4-1,1.1-1.6,2-1.6C696.7,72.9,697.3,73.2,697.7,74z M696.8,78.5    c0.3-0.4,0.4-1.1,0.4-2.2c0-0.8-0.1-1.4-0.3-1.9c-0.2-0.5-0.6-0.8-1.1-0.8c-0.5,0-0.9,0.2-1.1,0.7c-0.2,0.5-0.4,1.2-0.4,2.1    c0,0.7,0.1,1.3,0.2,1.7c0.2,0.6,0.6,1,1.2,1C696.2,79.1,696.6,78.9,696.8,78.5z" />
<path class="st1" d="M699.4,78.7h1v1h-1V78.7z" />
<path class="st1" d="M705.9,74c0.3,0.6,0.5,1.3,0.5,2.3c0,0.9-0.1,1.7-0.4,2.3c-0.4,0.9-1.1,1.3-2,1.3c-0.8,0-1.4-0.4-1.8-1.1    c-0.3-0.6-0.5-1.4-0.5-2.4c0-0.8,0.1-1.4,0.3-2c0.4-1,1.1-1.6,2-1.6C704.8,72.9,705.5,73.2,705.9,74z M705,78.5    c0.3-0.4,0.4-1.1,0.4-2.2c0-0.8-0.1-1.4-0.3-1.9c-0.2-0.5-0.6-0.8-1.1-0.8c-0.5,0-0.9,0.2-1.1,0.7c-0.2,0.5-0.4,1.2-0.4,2.1    c0,0.7,0.1,1.3,0.2,1.7c0.2,0.6,0.6,1,1.2,1C704.4,79.1,704.7,78.9,705,78.5z" />
<path class="st1" d="M711.3,74c0.3,0.6,0.5,1.3,0.5,2.3c0,0.9-0.1,1.7-0.4,2.3c-0.4,0.9-1.1,1.3-2,1.3c-0.8,0-1.4-0.4-1.8-1.1    c-0.3-0.6-0.5-1.4-0.5-2.4c0-0.8,0.1-1.4,0.3-2c0.4-1,1.1-1.6,2-1.6C710.3,72.9,710.9,73.2,711.3,74z M710.4,78.5    c0.3-0.4,0.4-1.1,0.4-2.2c0-0.8-0.1-1.4-0.3-1.9c-0.2-0.5-0.6-0.8-1.1-0.8c-0.5,0-0.9,0.2-1.1,0.7c-0.2,0.5-0.4,1.2-0.4,2.1    c0,0.7,0.1,1.3,0.2,1.7c0.2,0.6,0.6,1,1.2,1C709.8,79.1,710.2,78.9,710.4,78.5z" />
</g>
<g>
<path class="st1" d="M690.9,58.1v-1.7h-3v-0.8l3.1-4.4h0.7v4.4h1v0.8h-1v1.7H690.9z M690.9,55.7v-3.1l-2.2,3.1H690.9z" />
<path class="st1" d="M693.8,56.6c0.2-0.4,0.6-0.8,1.2-1.2l0.9-0.5c0.4-0.2,0.7-0.4,0.9-0.6c0.3-0.3,0.4-0.6,0.4-0.9    c0-0.4-0.1-0.7-0.4-1s-0.6-0.4-1-0.4c-0.6,0-1,0.2-1.2,0.7c-0.1,0.2-0.2,0.6-0.2,1h-0.9c0-0.6,0.1-1.1,0.3-1.5c0.4-0.7,1-1,2-1    c0.8,0,1.4,0.2,1.7,0.6c0.4,0.4,0.5,0.9,0.5,1.4c0,0.5-0.2,1-0.6,1.4c-0.2,0.2-0.6,0.5-1.2,0.8l-0.7,0.4c-0.3,0.2-0.6,0.3-0.7,0.5    c-0.3,0.3-0.5,0.6-0.6,0.9h3.7v0.8h-4.7C693.5,57.6,693.6,57,693.8,56.6z" />
<path class="st1" d="M699.4,57.1h1v1h-1V57.1z" />
<path class="st1" d="M705.9,52.4c0.3,0.6,0.5,1.3,0.5,2.3c0,0.9-0.1,1.7-0.4,2.3c-0.4,0.9-1.1,1.3-2,1.3c-0.8,0-1.4-0.4-1.8-1.1    c-0.3-0.6-0.5-1.4-0.5-2.4c0-0.8,0.1-1.4,0.3-2c0.4-1,1.1-1.6,2-1.6C704.8,51.3,705.5,51.7,705.9,52.4z M705,57    c0.3-0.4,0.4-1.1,0.4-2.2c0-0.8-0.1-1.4-0.3-1.9c-0.2-0.5-0.6-0.8-1.1-0.8c-0.5,0-0.9,0.2-1.1,0.7c-0.2,0.5-0.4,1.2-0.4,2.1    c0,0.7,0.1,1.3,0.2,1.7c0.2,0.6,0.6,1,1.2,1C704.4,57.5,704.7,57.4,705,57z" />
<path class="st1" d="M711.3,52.4c0.3,0.6,0.5,1.3,0.5,2.3c0,0.9-0.1,1.7-0.4,2.3c-0.4,0.9-1.1,1.3-2,1.3c-0.8,0-1.4-0.4-1.8-1.1    c-0.3-0.6-0.5-1.4-0.5-2.4c0-0.8,0.1-1.4,0.3-2c0.4-1,1.1-1.6,2-1.6C710.3,51.3,710.9,51.7,711.3,52.4z M710.4,57    c0.3-0.4,0.4-1.1,0.4-2.2c0-0.8-0.1-1.4-0.3-1.9c-0.2-0.5-0.6-0.8-1.1-0.8c-0.5,0-0.9,0.2-1.1,0.7c-0.2,0.5-0.4,1.2-0.4,2.1    c0,0.7,0.1,1.3,0.2,1.7c0.2,0.6,0.6,1,1.2,1C709.8,57.5,710.2,57.4,710.4,57z" />
</g>
<g>
<path class="st1" d="M690.9,35.3v-1.7h-3v-0.8l3.1-4.4h0.7v4.4h1v0.8h-1v1.7H690.9z M690.9,32.8v-3.1l-2.2,3.1H690.9z" />
<path class="st1" d="M696.4,35.3v-1.7h-3v-0.8l3.1-4.4h0.7v4.4h1v0.8h-1v1.7H696.4z M696.4,32.8v-3.1l-2.2,3.1H696.4z" />
<path class="st1" d="M699.4,34.2h1v1h-1V34.2z" />
<path class="st1" d="M705.9,29.5c0.3,0.6,0.5,1.3,0.5,2.3c0,0.9-0.1,1.7-0.4,2.3c-0.4,0.9-1.1,1.3-2,1.3c-0.8,0-1.4-0.4-1.8-1.1    c-0.3-0.6-0.5-1.4-0.5-2.4c0-0.8,0.1-1.4,0.3-2c0.4-1,1.1-1.6,2-1.6C704.8,28.4,705.5,28.8,705.9,29.5z M705,34.1    c0.3-0.4,0.4-1.1,0.4-2.2c0-0.8-0.1-1.4-0.3-1.9c-0.2-0.5-0.6-0.8-1.1-0.8c-0.5,0-0.9,0.2-1.1,0.7c-0.2,0.5-0.4,1.2-0.4,2.1    c0,0.7,0.1,1.3,0.2,1.7c0.2,0.6,0.6,1,1.2,1C704.4,34.7,704.7,34.5,705,34.1z" />
<path class="st1" d="M711.3,29.5c0.3,0.6,0.5,1.3,0.5,2.3c0,0.9-0.1,1.7-0.4,2.3c-0.4,0.9-1.1,1.3-2,1.3c-0.8,0-1.4-0.4-1.8-1.1    c-0.3-0.6-0.5-1.4-0.5-2.4c0-0.8,0.1-1.4,0.3-2c0.4-1,1.1-1.6,2-1.6C710.3,28.4,710.9,28.8,711.3,29.5z M710.4,34.1    c0.3-0.4,0.4-1.1,0.4-2.2c0-0.8-0.1-1.4-0.3-1.9c-0.2-0.5-0.6-0.8-1.1-0.8c-0.5,0-0.9,0.2-1.1,0.7c-0.2,0.5-0.4,1.2-0.4,2.1    c0,0.7,0.1,1.3,0.2,1.7c0.2,0.6,0.6,1,1.2,1C709.8,34.7,710.2,34.5,710.4,34.1z" />
</g>
</g>
<g id="Layer_3">
<g>
<line class="st2" x1="75.7" x2="86.2" y1="170" y2="158.7" />
<line class="st2" x1="75.8" x2="86.2" y1="158.7" y2="170" />
</g>
<g>
<line class="st2" x1="119.8" x2="130.3" y1="236.6" y2="225.4" />
<line class="st2" x1="119.9" x2="130.3" y1="225.4" y2="236.6" />
</g>
<g>
<line class="st2" x1="119.8" x2="130.3" y1="214.6" y2="203.3" />
<line class="st2" x1="119.9" x2="130.3" y1="203.3" y2="214.6" />
</g>
<g>
<line class="st2" x1="119.8" x2="130.3" y1="192" y2="180.8" />
<line class="st2" x1="119.9" x2="130.3" y1="180.8" y2="192" />
</g>
<g>
<line class="st2" x1="119.8" x2="130.3" y1="170.5" y2="159.2" />
<line class="st2" x1="119.9" x2="130.3" y1="159.2" y2="170.5" />
</g>
<g>
<line class="st2" x1="293.8" x2="304.3" y1="192" y2="180.8" />
<line class="st2" x1="293.9" x2="304.3" y1="180.8" y2="192" />
</g>
<g>
<line class="st2" x1="293.8" x2="304.3" y1="169.5" y2="158.2" />
<line class="st2" x1="293.9" x2="304.3" y1="158.2" y2="169.5" />
</g>
<g>
<line class="st2" x1="293.8" x2="304.3" y1="147.9" y2="136.6" />
<line class="st2" x1="293.9" x2="304.3" y1="136.6" y2="147.9" />
</g>
<g>
<line class="st2" x1="337.9" x2="348.4" y1="214.1" y2="202.8" />
<line class="st2" x1="338" x2="348.4" y1="202.8" y2="214.1" />
</g>
<g>
<line class="st2" x1="337.9" x2="348.4" y1="191.5" y2="180.3" />
<line class="st2" x1="338" x2="348.4" y1="180.3" y2="191.5" />
</g>
<g>
<line class="st2" x1="337.9" x2="348.4" y1="170" y2="158.7" />
<line class="st2" x1="338" x2="348.4" y1="158.7" y2="170" />
</g>
<g>
<line class="st2" x1="382.4" x2="392.8" y1="237" y2="225.7" />
<line class="st2" x1="382.4" x2="392.9" y1="225.7" y2="237" />
</g>
<g>
<line class="st2" x1="382.4" x2="392.8" y1="214.4" y2="203.1" />
<line class="st2" x1="382.4" x2="392.9" y1="203.1" y2="214.4" />
</g>
<g>
<line class="st2" x1="425.2" x2="435.6" y1="258.8" y2="247.6" />
<line class="st2" x1="425.2" x2="435.7" y1="247.6" y2="258.8" />
</g>
<g>
<line class="st2" x1="425.2" x2="435.6" y1="236.3" y2="225" />
<line class="st2" x1="425.2" x2="435.7" y1="225" y2="236.3" />
</g>
<g>
<line class="st2" x1="469.3" x2="479.7" y1="258.8" y2="247.6" />
<line class="st2" x1="469.3" x2="479.8" y1="247.6" y2="258.8" />
</g>
<g>
<line class="st2" x1="469.3" x2="479.7" y1="236.3" y2="225" />
<line class="st2" x1="469.3" x2="479.8" y1="225" y2="236.3" />
</g>
<g>
<line class="st2" x1="469.3" x2="479.7" y1="214.7" y2="203.5" />
<line class="st2" x1="469.3" x2="479.8" y1="203.5" y2="214.7" />
</g>
<g>
<line class="st2" x1="512.7" x2="523.2" y1="236.2" y2="224.9" />
<line class="st2" x1="512.8" x2="523.2" y1="224.9" y2="236.2" />
</g>
<g>
<line class="st2" x1="512.7" x2="523.2" y1="213.7" y2="202.4" />
<line class="st2" x1="512.8" x2="523.2" y1="202.4" y2="213.7" />
</g>
<g>
<line class="st2" x1="512.7" x2="523.2" y1="192.1" y2="180.8" />
<line class="st2" x1="512.8" x2="523.2" y1="180.8" y2="192.1" />
</g>
<g>
<line class="st2" x1="512.7" x2="523.2" y1="170.3" y2="159" />
<line class="st2" x1="512.8" x2="523.2" y1="159" y2="170.3" />
</g>
<g>
<line class="st2" x1="512.7" x2="523.2" y1="148" y2="136.7" />
<line class="st2" x1="512.8" x2="523.2" y1="136.7" y2="148" />
</g>
<g>
<line class="st2" x1="557.3" x2="567.8" y1="191.1" y2="179.9" />
<line class="st2" x1="557.4" x2="567.8" y1="179.9" y2="191.1" />
</g>
<g>
<line class="st2" x1="557.3" x2="567.8" y1="168.6" y2="157.3" />
<line class="st2" x1="557.4" x2="567.8" y1="157.3" y2="168.6" />
</g>
<g>
<line class="st2" x1="557.3" x2="567.8" y1="147" y2="135.7" />
<line class="st2" x1="557.4" x2="567.8" y1="135.7" y2="147" />
</g>
<g>
<line class="st2" x1="557.3" x2="567.8" y1="125.2" y2="113.9" />
<line class="st2" x1="557.4" x2="567.8" y1="113.9" y2="125.2" />
</g>
<g>
<line class="st2" x1="600.3" x2="610.8" y1="191.6" y2="180.3" />
<line class="st2" x1="600.3" x2="610.8" y1="180.3" y2="191.6" />
</g>
<g>
<line class="st2" x1="600.3" x2="610.8" y1="169.1" y2="157.8" />
<line class="st2" x1="600.3" x2="610.8" y1="157.8" y2="169.1" />
</g>
<g>
<line class="st2" x1="600.3" x2="610.8" y1="147.5" y2="136.2" />
<line class="st2" x1="600.3" x2="610.8" y1="136.2" y2="147.5" />
</g>
<g>
<line class="st2" x1="600.3" x2="610.8" y1="125.7" y2="114.4" />
<line class="st2" x1="600.3" x2="610.8" y1="114.4" y2="125.7" />
</g>
<g>
<line class="st2" x1="600.3" x2="610.8" y1="104" y2="92.7" />
<line class="st2" x1="600.3" x2="610.8" y1="92.7" y2="104" />
</g>
<g>
<line class="st2" x1="600.3" x2="610.8" y1="81.6" y2="70.3" />
<line class="st2" x1="600.3" x2="610.8" y1="70.3" y2="81.6" />
</g>
<g>
<line class="st2" x1="644.1" x2="654.5" y1="125" y2="113.7" />
<line class="st2" x1="644.1" x2="654.6" y1="113.7" y2="125" />
</g>
<g>
<line class="st2" x1="644.1" x2="654.5" y1="103.4" y2="92.1" />
<line class="st2" x1="644.1" x2="654.6" y1="92.1" y2="103.4" />
</g>
<g>
<line class="st2" x1="644.1" x2="654.5" y1="81.6" y2="70.3" />
<line class="st2" x1="644.1" x2="654.6" y1="70.3" y2="81.6" />
</g>
<g>
<line class="st2" x1="644.1" x2="654.5" y1="59.9" y2="48.6" />
<line class="st2" x1="644.1" x2="654.6" y1="48.6" y2="59.9" />
</g>
<g>
<line class="st2" x1="644.1" x2="654.5" y1="37.5" y2="26.2" />
<line class="st2" x1="644.1" x2="654.6" y1="26.2" y2="37.5" />
</g>
<g>
<line class="st2" x1="382.4" x2="392.8" y1="192.8" y2="181.6" />
<line class="st2" x1="382.4" x2="392.9" y1="181.6" y2="192.8" />
</g>
<g>
<line class="st2" x1="382.4" x2="392.8" y1="170" y2="158.7" />
<line class="st2" x1="382.4" x2="392.9" y1="158.7" y2="170" />
</g>
<g>
<line class="st2" x1="293.8" x2="304.3" y1="126.4" y2="115.1" />
<line class="st2" x1="293.9" x2="304.3" y1="115.1" y2="126.4" />
</g>
<g>
<line class="st2" x1="163.2" x2="173.7" y1="213.8" y2="202.6" />
<line class="st2" x1="163.2" x2="173.7" y1="202.6" y2="213.8" />
</g>
<g>
<line class="st2" x1="163.2" x2="173.7" y1="191.8" y2="180.5" />
<line class="st2" x1="163.2" x2="173.7" y1="180.5" y2="191.8" />
</g>
<g>
<line class="st2" x1="163.2" x2="173.7" y1="169.2" y2="158" />
<line class="st2" x1="163.2" x2="173.7" y1="158" y2="169.2" />
</g>
<g>
<line class="st2" x1="163.2" x2="173.7" y1="147.7" y2="136.4" />
<line class="st2" x1="163.2" x2="173.7" y1="136.4" y2="147.7" />
</g>
<g>
<line class="st2" x1="163.2" x2="173.7" y1="126.1" y2="114.8" />
<line class="st2" x1="163.2" x2="173.7" y1="114.8" y2="126.1" />
</g>
<g>
<line class="st2" x1="251" x2="261.4" y1="81.8" y2="70.6" />
<line class="st2" x1="251" x2="261.5" y1="70.6" y2="81.8" />
</g>
<g>
<line class="st2" x1="251" x2="261.4" y1="103.4" y2="92.1" />
<line class="st2" x1="251" x2="261.5" y1="92.1" y2="103.4" />
</g>
<g>
<line class="st2" x1="251" x2="261.4" y1="59.3" y2="48" />
<line class="st2" x1="251" x2="261.5" y1="48" y2="59.3" />
</g>
<g>
<line class="st2" x1="251" x2="261.4" y1="37" y2="25.7" />
<line class="st2" x1="251" x2="261.5" y1="25.7" y2="37" />
</g>
<g>
<line class="st2" x1="207.1" x2="217.5" y1="170" y2="158.7" />
<line class="st2" x1="207.1" x2="217.6" y1="158.7" y2="170" />
</g>
<g>
<line class="st2" x1="207.1" x2="217.5" y1="147.9" y2="136.6" />
<line class="st2" x1="207.1" x2="217.6" y1="136.6" y2="147.9" />
</g>
<g>
<line class="st2" x1="207.1" x2="217.5" y1="125.4" y2="114.1" />
<line class="st2" x1="207.1" x2="217.6" y1="114.1" y2="125.4" />
</g>
<g>
<line class="st2" x1="207.1" x2="217.5" y1="103.8" y2="92.5" />
<line class="st2" x1="207.1" x2="217.6" y1="92.5" y2="103.8" />
</g>
<g>
<line class="st2" x1="207.1" x2="217.5" y1="81.5" y2="70.2" />
<line class="st2" x1="207.1" x2="217.6" y1="70.2" y2="81.5" />
</g>
<g>
<line class="st2" x1="207.1" x2="217.5" y1="59.9" y2="48.7" />
<line class="st2" x1="207.1" x2="217.6" y1="48.7" y2="59.9" />
</g>
<g>
<line class="st2" x1="75.7" x2="86.2" y1="148.6" y2="137.3" />
<line class="st2" x1="75.8" x2="86.2" y1="137.3" y2="148.6" />
</g>
<g>
<line class="st2" x1="75.7" x2="86.2" y1="126.3" y2="115" />
<line class="st2" x1="75.8" x2="86.2" y1="115" y2="126.3" />
</g>
<g>
<line class="st2" x1="75.7" x2="86.2" y1="104.1" y2="92.8" />
<line class="st2" x1="75.8" x2="86.2" y1="92.8" y2="104.1" />
</g>
<circle class="st3" cx="59.2" cy="186.7" r="5.7" />
<circle class="st3" cx="59.2" cy="164.8" r="5.7" />
<circle class="st3" cx="59.2" cy="142.9" r="5.7" />
<circle class="st4" cx="102.8" cy="120.7" r="5.7" />
<circle class="st4" cx="102.8" cy="142.5" r="5.7" />
<circle class="st4" cx="102.8" cy="164.3" r="5.7" />
<circle class="st4" cx="102.8" cy="186.8" r="5.7" />
<circle class="st4" cx="102.8" cy="208.4" r="5.7" />
<circle class="st4" cx="102.8" cy="230.9" r="5.7" />
<circle class="st4" cx="146.6" cy="185.8" r="5.7" />
<circle class="st4" cx="146.6" cy="208.4" r="5.7" />
<circle class="st4" cx="146.6" cy="230.6" r="5.7" />
<circle class="st4" cx="190.4" cy="163.9" r="5.7" />
<circle class="st4" cx="190.4" cy="142.2" r="5.7" />
<circle class="st4" cx="190.4" cy="186.4" r="5.7" />
<circle class="st4" cx="234.1" cy="97.9" r="5.7" />
<circle class="st4" cx="234.1" cy="76.2" r="5.7" />
<circle class="st4" cx="234.1" cy="120.4" r="5.7" />
<circle class="st4" cx="277.5" cy="75.6" r="5.7" />
<circle class="st4" cx="277.5" cy="54" r="5.7" />
<circle class="st4" cx="277.8" cy="97.7" r="5.7" />
<circle class="st4" cx="277.8" cy="120" r="5.7" />
<circle class="st4" cx="277.8" cy="142.3" r="5.7" />
<circle class="st4" cx="277.8" cy="164.1" r="5.7" />
<circle class="st4" cx="277.8" cy="186.2" r="5.7" />
<circle class="st4" cx="277.8" cy="208.7" r="5.7" />
<circle class="st4" cx="320.9" cy="142.3" r="5.7" />
<circle class="st4" cx="320.9" cy="164.1" r="5.7" />
<circle class="st4" cx="320.9" cy="186.2" r="5.7" />
<circle class="st4" cx="320.9" cy="208.7" r="5.7" />
<circle class="st4" cx="320.9" cy="231.2" r="5.7" />
<circle class="st4" cx="365" cy="186.2" r="5.7" />
<circle class="st4" cx="365" cy="208.7" r="5.7" />
<circle class="st4" cx="365" cy="231.2" r="5.7" />
<circle class="st4" cx="365" cy="252.7" r="5.7" />
<circle class="st4" cx="409.1" cy="186.2" r="5.7" />
<circle class="st4" cx="409.1" cy="208.7" r="5.7" />
<circle class="st4" cx="409.1" cy="231.2" r="5.7" />
<circle class="st4" cx="540" cy="164.6" r="5.7" />
<circle class="st4" cx="540" cy="187.1" r="5.7" />
<circle class="st4" cx="540" cy="209.7" r="5.7" />
<circle class="st4" cx="583.8" cy="141.9" r="5.7" />
<circle class="st4" cx="583.8" cy="164.5" r="5.7" />
<circle class="st4" cx="583.8" cy="187" r="5.7" />
<circle class="st4" cx="627.6" cy="96.8" r="5.7" />
<circle class="st4" cx="627.6" cy="119.4" r="5.7" />
<circle class="st4" cx="627.6" cy="141.9" r="5.7" />
<circle class="st4" cx="583.8" cy="208.6" r="5.7" />
<circle class="st4" cx="671.3" cy="52.8" r="5.7" />
<circle class="st4" cx="671.3" cy="75.3" r="5.7" />
<circle class="st4" cx="671.3" cy="97.8" r="5.7" />
<circle class="st4" cx="671.3" cy="119.4" r="5.7" />
<circle class="st4" cx="409.1" cy="252.7" r="5.7" />
<circle class="st4" cx="496.4" cy="231.2" r="5.7" />
<circle class="st4" cx="496.4" cy="252.7" r="5.7" />
<circle class="st4" cx="409.1" cy="274.3" r="5.7" />
<circle class="st4" cx="452.6" cy="252.7" r="5.7" />
<circle class="st4" cx="452.6" cy="274.3" r="5.7" />
<circle class="st4" cx="102.8" cy="252.7" r="5.7" />
<g>
</g>
<g>
</g>
<g>
</g>
<g>
</g>
<g>
</g>
<g>
</g>
<g>
</g>
<g>
</g>
<g>
</g>
<g>
</g>
</g>
</g></svg>