<?xml version='1.0' encoding='utf-8'?>
<svg height="340" style="max-width: 100%; height: auto; font: 10px sans-serif;" viewBox="-70,-30,880,340" width="900" xmlns="http://www.w3.org/2000/svg">
<g transform="rotate(90 450.0 170.0)"><style type="text/css">.st0 {
    fill: hsl(0, 0%, 97%);
    stroke: hsl(0, 0%, 100%);
    stroke-width: 1.5;
}

.st1 {
    fill: hsl(2, 72%, 42%);
}</style>
<g id="Layer_1">
<g>
<g id="Australia:Victoria_State">
<path class="st0" d="M482.4,269.7l-0.3-0.1l0,0l-0.2-0.2l-0.1-0.1l0-0.1l0,0l-0.4-1l-0.2-0.2l-0.1-0.1l-0.1-0.2l-0.2-0.2     l-0.1-0.1l-0.2-0.2l-0.2-0.1l-0.1-0.1l-0.1-0.1l-0.1,0l-0.2-0.1l-0.2,0l-0.1,0l-0.1,0l-0.1,0l-0.1,0l0,0l0,0l-0.1,0.2l0,0l0,0.1     L478,267l-0.7-1.2l0.1-0.2l0.1,0l0,0l0-0.1l-0.2-0.4l0,0l-0.1,0l-0.2,0l-0.1,0l-0.2,0l-0.2,0l-0.1,0l-0.3,0.2l-0.1,0.1l-0.1,0.1     l-0.1,0.1l-0.1,0l-0.4,0l-0.1,0l-0.3-0.1l0,0l-0.1-0.1l-1.3-1.1l0-0.2l0.1-0.7l0.5-0.2l0.1,0l0.1,0l0.1,0l0,0l0.2-0.3l0.1-0.1     l0-0.1l0,0l-0.6-1.1l0,0l-0.3-0.2l-0.1,0l-1.6,0.1l-0.1,0l0,0l-0.4,1l-1.6,1.3l-0.1,0l-0.8,0.1l-0.3,0l0,0l-1.3-1.2l0.2,0     l0.2,0.1l0.1,0l0.2,0l0.3,0l0.1,0l0.2-0.1l0.3-0.1l0.4-0.1l0,0l0,0l1.2-1.5l0.1-0.1l0-0.1l0-0.1l0-0.1l-0.2-0.5l-0.1-0.2     l-0.1-0.1l-1.1-1.3l0,0l-0.2-0.1l-0.1,0l-0.1,0l-0.1,0l-0.1,0l-0.1,0l-0.7,0.2l0,0l0,0l-0.1,0.1l-0.6,0.5l-0.5,0.3l-0.1,0.1     l-0.2,0.1l-1.2,0.7l-1.2,0.1l-0.1,0l-0.1,0l0,0l0,0l-0.1,0.1l0,0.1l0,0l0,0.1l0.1,0.1l0.1,0l0.1,0l0.9,0.1l0.1,0l0.2,0l0.1,0     l0.3-0.1l0.1-0.1l0.1-0.1l0,0l0.1-0.1l0,0l0.1,0l0.1,0l0.2,0l0.1,0l0.2,0.1l0.1,0.1l0.1,0.1l0.1,0.1l0,0.1l-0.1,0.3l-0.5,0.6     l-0.2,0.1l-0.2,0l-0.1,0l-0.1,0l0,0l-0.1,0l-0.1,0l-0.1,0l-0.1,0l-1.3,0.2l-0.1,0l-0.2,0.1l-2.7,1.5l0,0l-0.5,0.4l0,0l0,0l0,0.1     l-0.7,0.8l0,0l-0.1,0.1l-0.5,0.4l0,0l-0.6,0.1l-0.3,0l-0.2,0l-0.1,0.1l-0.1,0.1l0,0l-0.1,0.1l-0.1,0.2l0,0.1l0,0l0,0l-1,0.6     l-0.1,0l-0.1,0L456,267l-0.1,0l0,0l-0.2-0.1l-0.3-0.3l-0.1-0.1l-0.1-0.1l0,0l-0.4-0.2l-0.4-0.1l-0.1,0l-0.1,0l-1.4-0.4l-0.4-0.3     l-0.1-0.1l-0.3-0.2l-0.4-0.2l-0.1,0l-0.2-0.1l-0.1,0l-0.2,0l-0.1,0l-0.1,0l-1-0.3l-0.5-0.2l-0.1,0l-0.4-0.3l-0.2-0.1l-1.2-0.7     L447,263l-1.3-0.4l-0.1,0l-0.9,0.1l-0.1,0l0,0l0,0l0,0l0,0.1l0,0l0,0l-0.1,0l-0.1,0l-0.1,0l-0.5,0l-0.1,0l-0.1,0l-0.1,0l-0.6-0.3     l-0.2-0.1l-0.6-0.4L442,262l-0.1-0.1l-0.1,0l-1.3-0.2l-0.6,0l-0.1,0l-0.2,0l-0.3,0.1l-0.1,0l-0.4,0.2l-0.1,0.1l-0.1,0.1l0,0     l0,0.1l0,0l0.1,0.1l0,0l0.1,0.1l0.1,0.1l0,0.1l0,0.1l0,0l-0.1,0l-0.7,0.1l-1.1-0.4l-0.5-0.4l-0.1-0.1l-0.1-0.1l-0.2-0.2l-0.7-0.6     l-0.5-0.3l-0.4-0.3l-0.4-0.2l-0.2-0.1l-0.2-0.1l-0.7-0.3l-0.2-0.1l-0.3-0.1l0-0.4l0-0.5l0-0.9l0-5.7l0-18.1l0-5l0-6.8l0,0     l0.1,0.1l0.2,0.2l0.3,0.2l0.1,0.1l0.1,0l0.2,0l0.2,0l0.3,0l0.3,0l0.9,0.1l1.5,0.6l0.1,0l1,0.5l0.1,0.1l0.1,0.1l0.1,0l0.1,0     l0.3-0.2l0.1-0.1l0,0l0.1-0.2l0.3-0.3l0.1,0l0.2-0.1l0.5-0.2l0.1,0l0.2,0l0.3,0.1l0.8,0.1l0.8-0.1l0.1,0l0,0l0.2-0.1l0,0l0.1,0     l0.1,0l0.1,0l1,0.4l0,0l0.7,0.4l0.1,0.1l1.2,1.8l0,0.2l0,1l0,0l0,0l0.1,0.1l0.2,0.1l0.3,0.2l0.1,0.1l0.1,0.1l0,0.1l0.5,1l0,0.1     l0,0.1l0.1,0.2l0.1,0.1l0.1,0.1l0.2,0.1l0.6,0.1l0.1,0l0.1,0l0,0l0.3-0.4l0.1-0.4l0.2-0.6l0-0.1l0.1-0.1l0.1-0.1l0.4-0.1l0.1,0     l0.1,0l0.4,0.3l0.1,0.1l0,0l0.1,0.2l1.1,0.4l0.5,0l0.4,0l0.1,0l0.1,0l0.1,0l0.1,0l0.1,0l1.2,0.5l0.1,0l0.7,0.3l0,0l0.1,0.1l0,0.1     l0,0.5l0,0.1l0,0.1l0,0l0,0l0,0.1l0,0.6l0,0.1l0.1,0.7l0.1,0.2l0,0.1l0.1,0.1l0.3,0.6l0.1,0.1l0.1,0.1l0.5,0.2l0.1,0l0.3,0     l0.4,0.1l0.1,0l0,0l0.3,0.4l0,0l0,0.1l0,0.1l-0.1,0.1l-0.1,0.1l0,0l0,0.1l0,0.1l0,0l0.1,0.1l0.1,0.1l0.1,0.1l0.3,0.2l0.2,0.1     l0.1,0l0.3-0.1l0.1,0l0.1,0l0.5,0.2l0.1,0.1l1.4,0.8l1.2,0.5l0.2,0.1l0.2,0.1l0.2,0.2l0.1,0.1l0.2,0.2l0.3,0.3l0.1,0.1l0.8,0.6     l0.1,0.1l0.3,0l0.1,0l0.1,0.1l0.1,0.1l0.1,0.2l0.1,0.2l0.1,0.2l0.1,0.1l0.1,0.2l1.7,1.7l0.2,0.2l0,0l1.1,0.5l0.1,0l0.3,0.1     l0.3-0.1l1.3-0.3l-0.1-0.7l0,0l0-0.1l0-0.1l0.3-0.9l0-0.1l0.1-0.1l0.1-0.1l0,0l0.1,0l0.9-0.2l0.2,0l1.1,0l0.1,0l0.1,0.1l0.1,0.1     l0.1,0l0.2,0l0.6,0l0.1,0l0.2-0.1l0.2-0.2l0.2-0.1l0.2,0l0.5-0.1l0.1,0l0.1,0l0.1,0l0.1,0l0.1,0.1l0.6,0.4l0.4,0.3l0.1,0.1     l0.1,0.1l0.4,0.3l0.1,0.1l0.6,0.2l2.6,0.4l1.9,0.1l0.9-0.3l0.1-0.1l0.2-0.2l0.2,0l0.5,0h0.1l0.8,0.1l0.1,0l0.5,0.4l0.3,0.2     l1.6,0.4l0.4,0.1l1.2,0.1l0.1,0l0.1,0l1.4-0.4l0.8-0.1l0.4-0.4l0-0.1l0.3-0.4l0.1-0.1l0.1,0l0.7-0.1l0.1,0l0.1,0l0,0l0.1,0.1     l1.1,0.1l0.5-0.2l0.1,0l0.1,0l0.1,0l1.5,0.5l0.2,0.1l0.8,0.4l0.1,0.1l0.2,1.5l0.2,1.5l0,0.1l0.1,0.1l0.1,0.1l0.1,0.1l0.1,0.1     l0.1,0.1l0,0l0.1,0.1l0.7,1.3l0,0l0,0.1l0,0.1l0,0.2L499,247l-0.1,0.1l-0.2,0.2l-0.2,0.2l-0.1,0.1l-0.3,0.5l0.4,0.1l0.1,0l0.3,0     l0.1,0l1,0.4l0.5,0.2l0.8,0.4l1.1,0.4l2.5,1l2.1,0.9l1.6,0.6l2.4,1l2,0.8l2.1,0.8l0.1,0l0,0.1l0,0l-0.6,0.2l-0.1,0l-0.7,0l-0.3,0     h-0.2l-0.3,0.4l-0.6,0.8l0,0l-0.1,0.1l-0.8,0.3l-0.1,0l-0.1,0L511,257l-0.4,0.2l-1.4,0.1l-0.5,0l-1.6,0l-2.3,0l-0.1,0l-0.3,0     l-0.2,0l-0.1,0l-0.9,0l-1.5,0l-1.7,0.1l-0.3,0l-0.7,0.1l-2.1,0.5l-0.2,0l-0.2,0.1l-0.8,0.3L495,259l-0.1,0l-0.2,0.1l-0.7,0.4     l-0.6,0.4l-0.4,0.3l-1,0.7l-0.5,0.4l-1.5,1.1l-0.2,0.2l-0.1,0.1l0,0l-0.6,0.6l-1.1,1l-0.1,0.1l-0.1,0.1l-0.9,0.6l-0.3,0.1l0,0     l-0.1,0l-0.1,0l-1.5,0.1l-0.1,0l-1.3,0.2l-0.6,0.2l-0.6-0.1l-0.1-0.1l-0.1,0l-0.1,0l-0.7,0.1l-0.2,0l-0.1,0l-0.1,0.1l-0.1,0.1     l-0.3,0.3l0,0l0,0l0.9,1.4l0,0l0.1,0l0.1,0l0.1,0l0.1,0l0.9-0.5l0,0l0,0l0-0.2l0.1-0.3l0,0l0.1,0l0.2,0l0,0l0,0l0,0l0,0.1     l0.1,2.4l0,0.1l-0.5,0.5l0,0l-0.1,0.1L482.4,269.7L482.4,269.7z" />
<path class="st0" d="M472.7,263.1l-0.4-0.2l0,0l-0.1-0.3l0-0.1l0.2-0.6l0,0l0.1,0l1.3,0.2l0.1,0l0,0l0.3,0.2l0.1,0.1l0,0l0,0.1     l0,0l-0.1,0l-0.2,0l-0.3,0l-0.1,0l-0.1,0.1l-0.4,0.4l-0.1,0.1L472.7,263.1z" />
<path class="st0" d="M472.7,264.2l-0.1-0.1l-0.1,0l-0.1,0l-0.2-0.1l-0.2,0l-0.1,0l-0.1,0l-0.4,0l-0.5,0l-0.1,0l0,0l0.1-0.1     l0.4-0.3l0.2-0.1l0.1,0l0.1,0l0.6-0.1l0.1,0l0.1,0l0.1,0l0.1,0.1l0,0l0.5,0.9l0,0l-0.1,0L472.7,264.2z" />
<path class="st0" d="M483.7,266.5l-0.4-0.2l-0.1,0l-0.1-0.1l-0.1-0.1l0,0l0,0l0.1,0l0.1,0l0.8,0l0.1,0l0.6,0.1l0.1,0l0,0l0,0.1     l0,0l-0.1,0l-0.1,0l-0.1,0l-0.2,0l-0.1,0l-0.1,0.1l-0.2,0.2L483.7,266.5z" />
</g>
<g id="Australia:South_Australia_State">
<path class="st0" d="M383.8,231.2l-0.2-0.3l-0.1-0.3l-0.2-0.2l-1-1.1l-1.3-1.1l-0.1-0.1l-0.7-0.4l-0.1,0l-0.2-0.1l-0.1,0l-0.1,0     l-0.1,0l-0.5,0.1l0,0l0,0l-0.1,0.1l-0.1,0.1l-0.1,0l-0.1,0l0,0l0-0.1l0.1-0.1l0.4-0.7l0.5-0.6l0,0l0.1,0l0,0l0,0.2l0,0.1l0,0.1     l0,0.2l0,0l0,0l1.2,1l0.4,0.3l0.1,0l0.1,0l0.1,0l0.8-0.2l0.1,0l0,0l0-0.1l0,0l-0.1,0l-0.1,0l-0.4,0l-0.1,0l-0.4-0.1l-0.1-0.1     l-0.1-0.2l0,0l0-0.1l0,0l0-0.1l0-0.1l0.1-0.1l0,0l0-0.1l0-0.1l-0.4-1.8l-0.4-0.9l-0.3-0.6l0-0.1l-0.1-0.9l0-0.1l0-0.1l-0.6-0.7     l-1.3-1.2l-0.2-0.2l-0.5-0.3l-0.4-0.2l-0.1-0.1l-0.8-0.5l0,0l0.1-0.3l0-0.1l0.1-0.2l0,0l0-0.1l0-0.1l0-0.1l0-0.4l0-0.2l-0.3-0.7     l-0.2-0.4l-0.9-1.6l0,0l-0.1-0.1l-0.1,0l-0.8-0.2l-1.6,0.2l-0.1,0l0,0l-0.1,0.1l-0.1,0.1l-0.5,0.2l-0.1,0l-0.1,0l0,0l-0.5-0.4     l0-0.1l0-0.1l0-0.1l0-0.1l0-0.1l-0.6-1.4l0-0.1l0,0l-0.1-0.1l-0.5-0.9l-0.5-1l0,0l0-0.1l0,0l0.1,0l0.1,0l0.6,0.1l0.4,0.2l0,0.1     l0,0.1l0,0.1l0,0.2l0,0.1l0,0l0,0l0.1,0l0,0l0.1-0.2l0.4-0.5l0.1-0.1l0.2-0.4l0,0l-0.1-0.7l0-0.1l-0.1-0.1l-0.5-0.5l-0.2-0.2     l-0.2-0.2l-0.4-0.3l-0.2,0l-0.1,0l-1.4,0.4l-0.4,0.4l0,0l-0.1,0l-0.1,0l-0.1,0l-0.2,0l-0.1,0l0,0l0-0.1l0-0.7l0-0.1l0.2-0.4l0,0     l0,0l0.1,0l0,0l0.1,0.1l0,0.1l0.1,0l0.2,0l0.1,0l0,0l0.1-0.1l0-0.1l0-0.1l0,0l-0.4-0.6l-0.3-0.3l-0.4-0.4l-0.6-0.3l-0.3-0.1     l-0.3-0.2l-0.3-0.2l0,0l0,0l0,0l0.1-0.2l0-0.1l0,0l0,0l0,0l-0.4-0.1l-0.1,0l-0.1,0l0,0l0,0l-0.1,0.1l0,0.1l0,0.3l0,0.1l0,0l0,0     l-0.1,0.1l-0.6,0.3l-0.1,0l-0.1,0l-0.6,0l-1.8-0.1l-0.5-0.1l-0.3,0l0,0l-0.4-0.4l-0.1-0.1l-0.1-0.1l-0.1-0.1l-0.1-0.1l-0.2-0.1     l-0.1,0l-0.4-0.1l-1-0.8l-0.2-0.2l0,0l-0.4-0.2l-0.1,0l-0.1,0l-1.6-0.1l-0.4,0l-0.3,0.1l-0.3,0.1l-0.2,0.1l-0.1,0.1l0,0l0,0     l-0.3,0.3l-0.8,0.2l-0.1,0l-0.5,0l-0.6-0.1l-0.1-0.1l-0.1-0.1l-0.1-0.1l-0.1-0.1l-0.2-0.2l-1-0.8l-1.9-1.2l-0.4-0.2l-0.9-0.5     l-1.6-0.7l-0.2-0.1l-1-0.4l-0.8-0.3l-0.9-0.3l-0.1,0l-0.1,0l-0.1,0l-0.2,0l-0.1,0l-0.1,0l-0.2,0.1l-0.2,0.2l-0.2,0.2l-0.1,0.1     l-0.2,0.1l-0.1,0l-1.4,0.5l-0.1,0l-0.4,0l-0.2,0l-0.2,0l-0.2,0l-0.3,0l-0.5,0l-3.5-0.3l-0.2,0l-0.8,0l-2,0.1l-0.3,0l-0.1,0     l-0.1,0l0,0l-0.1,0l-0.4,0.1l-1.3,0.1l-2.1,0.2L325,201l-1.6,0.2l-0.3,0l-0.3,0l0-1.2l0-1.9l0-3l0-4l0-8.6l0-1.3l0-7.4l0-3.7     l0-13.4l0-2.3l0.1-5.5l0.3,0l2.5,0l5.5,0l4.9,0l7.9,0l23.9,0l22,0l4.6,0l8.6,0h2.4h0.9l5.5,0l4.6,0l16.5,0l0,3l0,2.7l0,19.8     l0,1.8l0,0.3l0,0.9l0,3.4l0,4l0,5.8l0,0.2l0,12.2l0,19.2l0,0.5l-0.2-0.2l-0.1-0.1l0,0l0,0.2l0,7l0,5.2l0,18l0,5.4l0,1.3l0,0.4     l-0.2,0l-0.2,0l-0.7,0l-0.1,0l-0.1,0l-0.1,0l-0.4,0.1l-0.7,0l-0.2,0l-0.1,0l-0.8-0.3l-0.5-0.3l-1.6-1.2l0-0.1l-0.1-0.3l-0.1-0.1     l-0.9-1.3l-1-1.2l-0.1-0.1l-0.3-0.2l-0.2-0.1l-0.2-0.1l-0.1,0l-0.1,0l0,0l0,0.1l-0.2,0l-1.4-1.5l-0.2-0.3l-0.2-0.2l-0.4-0.7     l0-0.3h0.1l0.1,0l0,0l0,0l0,0l0,0l0-0.1l0-0.4l-0.4-0.8l0-0.1l0.2-0.8l0.3-0.2l0.1-0.1l0.2-0.1l0.1-0.1l0.1-0.2l0.1-0.1l0-0.1     l0.1-0.2l0-0.1l0-0.2l0-0.1l0-0.2l0-0.6l0-0.1l-0.1-0.2l-0.3-0.5l0-0.2l0-0.1l-1.3-2.7l-0.2-0.4l-1.3-1.4l-0.1-0.2l-0.6-0.6     l-0.1-0.1l-0.1-0.1L418,240l-0.4-0.4l-0.3-0.3l-0.9-0.8l-1-0.6l0,0l0,0l0.1,0l0.1,0l0,0l0,0l0.1,0.1l0.1,0l0.1,0l1.9,1.3l0.6,0.4     l0.6,0.6l0,0l0.9,1.1l0.1,0.1l0.2,0.3l0.3,0.5l0.1,0.2l0.1,0.2l0,0l0,0l0-0.2l0-0.2l-0.1-0.4l-0.4-1L420,241l-0.2-0.2l-0.1-0.1     l-0.2-0.2l-0.5-0.4l-0.4-0.3l-1.4-1l-1-0.9l-0.3-0.2l-0.2-0.2l-0.1,0l-0.2-0.1l0,0l0-0.1l0-0.1l0,0l-0.1-0.7l0.1-0.1l0.2-0.1l0,0     l0.1,0l0.1,0l0.1,0l0.6,0.4l0,0l0,0l0,0l0,0.1l0,0.2l0,0.1l0,0l-0.1,0.7l0,0.1l0,0l0,0.1l0,0l0.1,0l0.1,0l0.7,0l0.1,0l0,0l0,0     l0-0.1l0.2-0.7l0.1-1.2l0-0.1l0,0l-0.1-0.8l0,0l-1-0.4l-0.2-0.1l-0.1,0l-0.3,0l0,0l0,0.1l0.2,0.1l0,0.1l-0.5,0.3l-0.1,0l-0.4,0.1     l-0.1,0l-0.2,0l-0.2,0l-0.1,0l-0.2,0l-0.1,0l-0.1,0.1l-0.1,0.1l-0.1,0.1l0,0l0,0.1l0,0.1l0,0.1l0.1,0.1l0,0l0.1,0l0.1,0l0.1,0     l0.1,0l0.1,0l0.1,0.1l0,0.1l0,0.1l0,0l-0.3,0.3l0,0l-0.1,0l-0.2,0l-0.6-0.1l-0.6-0.1l-0.2-0.1l-0.1,0l-0.2,0l-0.6,0.1l-0.5,0.2     l-0.1,0l-0.1,0.1l-0.1,0.1l-0.1,0.1l-0.1,0.1l-0.1,0.1l-0.1,0.1l-0.3,0.2l-0.1,0.1l-0.1,0l-3,0.1l-0.2,0l-0.1,0l-0.1,0l-0.2-0.1     l0,0l-0.4-0.3l0,0l0,0l0.3-0.5l0.1-0.1l0.1-0.1l0.1,0l0.3-0.1l0.2-0.1l0.4-0.2l0.2-0.1l0.1-0.1l1.2-1.1l0.1-0.1l0,0l0-0.1     l0.2-0.9l0-0.2l0,0l0-0.1l0-0.1l0-0.1l0-0.1l0-0.1l0.1-0.5l0-0.1l0.1-0.2l0.1-0.2l0,0l0.1-0.2l0-0.1l0-0.1l0-0.2l-0.1-0.6     l-0.1-0.4l0-0.3l0-0.1l0.1-0.7l0-0.1l0.1-0.1l0,0l0.1,0l-0.2-0.4l-0.6-0.8l-0.1-0.1l-0.2-0.1l-1-1L408,227l-0.1-0.1l-0.1-0.1     l-0.1-0.1l-0.2-0.7l-0.1-0.2l-0.1-0.3l0-0.1l0-0.1l-0.6-0.9l-0.5-0.6l0,0l-0.1-0.1l-0.1,0l-0.1,0l-0.1,0.1l0,0l-0.5,0.9l0,0.1     l0,0.1l0,0.1l0,0l0,0l0,0l0.1,0l0,0l0,0l0,0.1l0,0.1l-0.1,0.3l0,0l-0.3,0.2l-0.2,0.1l-0.3,0.2l-0.1,0.1l-0.1,0.1l-0.1,0.1     l-0.3,0.8l0,0.1l0,0.6l0,0l0,0l0,0.5l-0.1,0.5l-0.4,1l-0.1,0.1l-0.1,0.1l-0.1,0.2l-0.6,1.6l0,0.4l0,0.1l0,0.2l0,0.1l-0.1,0.1     l-0.5,0.4l0,0l-0.1,0l-0.2,0l-0.1,0l-0.1,0l-0.1-0.1l-0.3-0.2l-0.2-0.1l-0.1,0l-0.3-0.1l-0.6-0.1l-0.2,0l-0.3,0.1l-1.7,0.5     l-0.1,0l-0.1,0.1l-0.1,0.1l0,0.1l-0.1,0.1l-0.1,0.1l-0.1,0.1l-0.1,0.1l-0.1,0l-0.1,0l-0.2,0l-0.2,0l-0.3-0.1l-0.1,0l-0.1,0     l-0.2,0l-0.1,0l-0.1,0.1l-0.3,0.2l-0.1,0.1l-0.1,0.1l-0.1,0.1l-0.4,0.1l-0.1,0l-0.3-0.1l-0.3-0.3l0-0.1l0.2-0.4l0.1,0l0.1,0     l0.1,0l0.1-0.1l0,0l0.4-0.4l0.2-0.4l0-0.1l0-0.1l0-0.2l0-0.1l0,0l-0.1-0.1l0.2-0.8l0.1-0.1l0.3-0.5l0,0l0.1,0l0.1,0l0.2,0.1     l0.2,0.1l0.2,0.1l0.1,0l0.1,0l0.1,0l0.4-0.1l0.1,0l0.7-0.1l0.1,0l0.1,0l0,0l0,0.1l0,0.1l0,0l0.7,0.3l0.2,0l0.2-0.1l0.1-0.1     l0.1-0.1l0.1-0.1l0-0.1l0.4-2.2l-0.2-1.7l0.1-1.7l-0.1-0.4l-0.1-0.4l0-0.1l-0.1-0.2l0-0.1l0,0l0-0.1l0,0l0.1,0l0.1,0l0.1,0     l0.2,0.1l0.1,0l0,0l0.2-0.4l0,0l0.1-0.3l0.4-1l0.1-0.6l0-0.1l0.3-0.3l1.3-1.4l0.1-0.1l0.9-0.8l0.1-0.1l0.1,0l0,0l0.2,0l0.1-0.2     l0-0.1l0-0.1l-0.1-0.4l-0.2-0.6l-0.6-1.1l-0.3-0.3l0,0l0-0.1l0.1-0.4l0.1-0.1l0.1-0.1l0,0l0.1-0.1l0.5-0.3l0.5-0.2l0.5,0l0.1,0     l0.1,0l0.1-0.1l0.1-0.1l0,0l0-0.1l-0.1-0.4l-0.2-0.4l0,0l-0.1-0.1l-0.1,0l-0.2,0l-0.1,0l-0.1-0.1l0-0.1l-0.5-2l-0.5-0.9l-0.1-0.5     l-0.1-0.5l0-0.1l0,0l-0.4-0.4l-0.1,0l0,0l0,0.1l0,0.1l0,0.2l0,1l0,0.1l0,0l0,0l0.1,0l0,0l0.1,0.1l0.1,0.1l0,0l0.1,0.1l0,0.9     l0,0.1l-0.2,1.2l0,0l0,0l-0.1,0l-0.4,0l-1.2,0.3l-1,0.9l-0.4,0.6l-0.5,0.9l-0.1,0.1l0,0.1l0,0.2l0,0.1l0,0.2l0,0.1l0,0.1     l-0.1,0.3l0,0.1l0,0.1l-0.7,1.1l-0.1,0.1l-0.4,0.7l-0.2,0.2l-0.4,0.3l-0.1,0.1l-0.1,0l-0.2,0l-0.9,0.1l-0.1,0l-0.1,0l0,0l0,0l0,0     l-0.3-0.1l0-0.1l0,0l0,0l-0.1,0l-0.1,0l-0.1,0l0,0l0,0l-0.5,0.6l0,0l0,0.1l0,0.1l0,0l0,0l0,0l0.1,0l0.1,0l-0.4,0.3l-1.9,0.8     l-0.7,0.4l-1.5,1l-0.1,0.1l-0.4,0.3l-0.1,0.1l0,0l0,0.1l0,0.1l0,0.1l0,0.1l-0.3,0.5l0,0.1l-0.1,0.1l-0.4,0.7l-0.1,0.1l-0.1,0.1     l-0.2,0.3l-0.1,0.1l0,0l-0.1,0l-0.1,0l-0.3,0.1l-0.1,0l-0.1,0.1l-0.1,0.1l0,0l-0.7,1.1l0,0l-0.6,0.3l-0.1,0l-0.2,0.1l0,0     l-0.1,0.1l-0.5,0.9l-0.7,1.6l0,0.1l0,0l0.1,0l0.1,0l0.3,0l0.2,0l0.1-0.1l0.1-0.1l0.4-0.3l0.3-0.3l0.1,0l0.1,0l0,0l0,0l0,0.1     l0,0.3l-0.1,1.8l0,0.1l-0.1,0l-0.3,0.1l0,0h-0.1l-0.1-0.1l-0.1-0.2l0-0.1l0-0.1l0,0l0,0l-0.7-0.6l-0.2-0.1l-0.2-0.1l-0.2-0.1     l-0.2,0l-0.1,0l-0.1,0l-0.1,0l0,0l-0.1,0.1l-0.1,0.1l0,0.1l0,0.2l-0.1,0.4l0,0l0,0l-0.1,0l-0.1,0L383.8,231.2z" />
<path class="st0" d="M364.6,207.1L364.6,207.1l-0.1-0.1l0-0.1l0,0l0.2-0.2l0,0l0.6-0.2l0.3-0.1l0.1,0l0,0l0,0l-0.4,0.3L365,207     l-0.2,0.1L364.6,207.1z" />
<path class="st0" d="M373,220.5L373,220.5l0.1-0.6l0,0l0.5-0.1l0.1,0l0,0.1l0.1,0.2l0,0l0,0.1l0,0l-0.6,0.3L373,220.5L373,220.5z     " />
<path class="st0" d="M399.4,227.4L399.4,227.4L399.4,227.4l-0.1-0.1l0-0.1l0-0.1l0,0l0.1-0.2l0,0l0,0l0,0l0,0.1l0,0l0,0.1l0,0.1     l-0.1,0.1l-0.1,0.1L399.4,227.4L399.4,227.4z" />
<path class="st0" d="M388.8,232.4l-0.3-0.1l0,0l-0.7-0.9l0-0.1l0-0.1l0.1-0.1l0.1,0l0,0l0,0l0.1,0.1l0.6,0.7l0,0l0,0l0.1,0.3     l0,0.1l0,0L388.8,232.4L388.8,232.4z" />
<path class="st0" d="M391.2,233.2l-0.1,0l0,0l0-0.1l0,0l0.2-0.2l0.1,0l0,0l0.1,0.1l0.1,0.2l0,0.1l0,0L391.2,233.2z" />
<path class="st0" d="M405.1,238.4l0.5,0.1l0.1,0l0.2,0.1l0.1,0.1l0.4,0.5l0,0.5l-0.6,0.5l0,0l-0.1,0l-0.1,0l-0.4-0.1l-0.1,0     l-0.2-0.1l-0.3-0.1l-0.1,0l-0.8-0.1l-0.3,0l-0.2,0l-0.1,0l-0.1,0l-1.2,0.5l-0.1,0.1l0,0l0,0.1l0,0.1l0,0.1l0.1,0.1l0,0l0,0.1     l0,0.1l0,0.1l0,0.1l-0.1,0.1l-0.2,0.1l-0.9,0.4l-0.2,0.1l-0.1,0l-0.1,0l0,0l-0.4-0.3l-0.1-0.1l-0.2-0.2l-0.1-0.1l0,0l-0.1,0     l-1.1-0.1l-0.1,0l-0.2,0l-0.1,0l0,0l0,0l0,0.1l0,0.1l0,0.2l0,0l-0.1,0.1l-0.1,0l-0.1,0l-1-0.1l-1.2,0.2l-1.4,0.1l-0.3,0l-0.3-0.3     l-0.1-0.1l-0.6-0.4l-0.3-0.2l-0.4-0.2l0,0l0,0l0-0.2l0-0.1l0.3-0.9l0,0l0,0l0,0l0.1,0l0.2,0l2.8-0.6l0.3-0.1l0.5,0l0.1,0l0.1,0     l0.1,0l0.3,0l0.5-0.1l1-0.3l0.8-0.3l0.1,0l0.1,0l0.1,0l1.7,0.1l0.5,0.4l0,0.7l0,0.1l0.1,0.1l0.1,0l0.8,0.1l0.8,0.4l0,0.1l0,0     l0.1,0l0.1,0l0.2,0l0.2,0l0,0l0.1-0.1l0.1-0.1l0.1-0.1l0.1-0.1l0.2-0.3L405.1,238.4z" />
</g>
<g id="Australia:Tasmania_State">
<path class="st0" d="M490.6,272.8L490.6,272.8l0.1-0.4l0,0l0.1,0l0.1,0l0,0l0,0.1l-0.1,0.3l0,0.1l0,0l-0.1,0L490.6,272.8     L490.6,272.8z" />
<path class="st0" d="M491.3,272.9L491.3,272.9L491.3,272.9l-0.1,0l-0.3-0.1l0-0.1l0.1-0.1l0.1-0.1l0.2-0.1l0.1,0l0.1,0l0.1,0.1     l0,0l0,0.1l0,0L491.3,272.9L491.3,272.9L491.3,272.9z" />
<path class="st0" d="M459.7,278.8l-0.2-0.1l0,0l0,0l-0.1-0.4l0.1-0.1l0.1,0l0,0l0-0.6l0-0.1l0-0.1l0,0l-0.1-0.1l-0.2-0.1L459,277     l0,0l0,0l0-0.1l0-0.5l0.2-1.5l0,0l0.1-0.1l0.3-0.1l0.2-0.1l0.1-0.1l0.1-0.1l0.1-0.1l0,0l0-0.1l0-0.1l-0.1-0.2l0-0.1l0-0.1l0,0     l0.1,0l0.3-0.1l0.1,0l0.1,0l0.7,0.3l0,0l0.4,0.4l0,0.1l0.1,1.3l0.2,1l0,0l0,0.1l-0.1,0.4l0,0l-0.3,0.4l0,0l-0.9,0.5l-0.5,0.2     L459.7,278.8L459.7,278.8z" />
<path class="st0" d="M498.2,280l-0.1,0l-0.3-0.1l-0.1-0.1l-0.1-0.1l0,0l-0.2-0.6l0-0.1l0-0.1l0,0l0-0.1l-1.1-1.5l-0.8-0.5l-0.1,0     l0,0l-0.3-0.2l-0.1-0.1l0,0l0,0l0.2-0.2l0.9-0.9l0.4-0.2l0.4-0.1l0,0.1l0.1,0.1l0.8,0.9l0.9,0.8l0.1,0.1l0.1,0.1l0,0l0.1,0     l0.3,0.1l0.1,0l0.3,0l0.1,0.3l0.4,1.8l0,0.2l0,0.1l-0.1,0.1l-0.1,0l-0.1,0l-0.1,0l-1.1,0.2l-0.4,0.2L498.2,280z" />
<path class="st0" d="M500.3,281.8l0-0.1l0-0.1l0,0l-0.1,0l-0.2,0l-1.5,0.1l-0.1,0l-0.1,0.1l-0.1,0l-0.1,0l-0.1,0l-0.6-0.2l0,0     l0-0.1l0-0.2l0-0.1l0.1-0.1l0,0l0.5-0.3l0.1,0l0.1,0l0.1,0l0.2,0l0.1,0l0.1,0l0.3,0.1l0.1,0l0.1,0l0.1,0l0.8-0.3l0.2-0.1l0.2-0.1     l0.1,0l0.1,0l0,0l0.1,0.1l1.1,1l0,0l0,0.1l0,0l-0.1,0l0,0l0,0l-0.4,0.2l-0.1,0l-0.4,0.2l-0.2,0.1L500.3,281.8z" />
<path class="st0" d="M468.5,281.9l-0.1,0l0,0l-0.1-0.1l-0.1-0.2l0.4-0.5l0,0l0.1,0l0.6,0.1l0.1,0l0.1,0.1l0,0l0,0.1l-0.1,0.4     l-0.1,0l-0.5,0.1L468.5,281.9z" />
<path class="st0" d="M467.3,283L467.3,283l-0.2-0.2l0-0.1l0-0.6l0.5-0.8l0,0l0.1,0l0,0l0,0.5l0,0.2l0,0.1l-0.2,0.6l-0.1,0.2l0,0     L467.3,283L467.3,283z" />
<path class="st0" d="M498.8,283l-0.5-0.2l0,0l-0.2-0.2l0,0l0,0l0.4-0.2l0,0l0.6,0l0.1,0.2l-0.2,0.6l0,0.1l0,0l-0.2,0L498.8,283z" />
<path class="st0" d="M468.6,284.2L468.6,284.2L468.6,284.2l-0.1-0.1l0-0.4l0-0.1l0.5-0.5l0,0l0.1,0l0.6,0.5l0.2,0.3l-0.8,0.2     L468.6,284.2L468.6,284.2z" />
<path class="st0" d="M486.8,310.9l-0.3,0.1l-0.1-0.2l0,0l0,0l-0.1,0l-0.1,0l-0.2,0l-0.1,0l-0.7-0.1l-0.8-0.4l-0.1-0.1l-0.7-0.1     l-2-0.1l-0.1,0l-0.1-0.1l-0.1-0.1l0-0.1l0-0.1l0,0l0,0l0,0l-0.2,0l-0.1,0l-1,0.2l-0.1,0l-0.6-0.2l-1-1.1l0,0l0-0.1l0,0l0.5-0.2     l0.9,0.1l0.1,0l0.1,0l0.1,0l0.4,0.2l0.6,0.1l0.1,0l0,0l0-0.1l0-0.5l0,0l-0.6-0.4l-0.1,0l-0.1,0.1l-0.1,0.2l0,0.1l-0.1,0.1l-0.1,0     l-0.1,0l-2.3-0.2l-0.1,0l-0.1-0.1l-0.1-0.1l-0.7-1l-0.3-0.5l-1.2-1.4l-0.1-0.1l-0.1,0l-0.1,0l-0.1,0l-0.1,0l-0.1,0l-0.2,0.1     l-0.1,0l-0.1,0l0,0l0,0l-0.3-0.5l-0.3-0.5l0,0l-0.2-0.6l-0.4-1l0,0l0,0l-0.4-0.3l-0.4-0.1l-0.1,0l0,0l0-0.1l-0.2-1.4l-0.3-1.3     l0-0.1l0.1-0.5l0.2-0.2l0.2,0.3l0.1,0.1l0.6,0.4l0.5,0.3l0.4,0.2l0.1,0.1l0.1,0.1l0,0.1l0,0.1l0,0.1l0,0.3l0,0.2l0.1,0.3l0,0.1     l0,0l0.1,0.1l0.1,0l0.7-1.5l0-0.1l0-0.1l-0.4-0.2l-0.1,0l-0.1,0l-0.1,0l0,0l-0.2,0l-1.6-1.3l-0.2-0.3l0-0.2l0-0.1l0-0.1l0-0.2     l0-0.1l-0.1-0.3l-0.1-0.1l-0.5-0.8l0,0l-1.2-0.8l-0.9-1.2l-0.9-1.5l-0.7-1.4l-0.5-0.8l-0.4-0.7l0,0l0-0.1l0,0l0,0l0-0.1l0-0.1     l0-0.1l-0.2-0.9l0-0.1l0,0l-0.1-0.2l-0.2-0.1l-0.2-0.9l0,0l0.2-0.2l0,0l0.2,0l0.1,0l0.1-0.1l0,0l0-0.1l0-0.2l0-0.3l-0.1-0.6     l0.6-0.3l2,0.2l0.1,0l0,0l0.4,0.3l0.3,0.2l0.1,0.1l0.2,0.1l0.2,0l1.4-0.2l0.5,0.3l0.2,0.1l1.8,0.4l1.9,0.9l1.1,0.5l2.7,1l0.2,0.1     l0.1,0l0.3,0l1.3,0.1l0.3,0l0.1,0l0.3,0l0.1,0l0.3-0.1l0.2-0.1l0.5,0.3l0.2,0.1l0-0.3l0-0.1l0,0l0.7-0.5l0,0l0.5-0.2l0.2,0l0.2,0     l0.1,0l0,0l0,0l0,0l0.1,0.2l0.1,0.2l0,0.1l-0.1,0.1l0,0.1l0,0l0.1,0l0.1,0l0.4,0l0.8,0l0,0l0,0l-0.2-0.2l-0.1-0.1l0,0l-0.1,0     l-0.1,0l-0.2,0l-0.2,0l-0.1,0l-0.1-0.1l0,0l0,0l0-0.1l0-0.3l0-0.1l0,0l0.3-0.2l0.1,0l0.1,0l1.3-0.4l0.1,0l0.6,0.1l0.2,0.1     l0.2,0.1l0.1,0l0.2,0l0.2,0l0.2-0.1l1.4-0.2l0.5,0.4l0.5-0.1l0.2-0.1l0,0l0.1-0.1l0.2-0.2l0.2-0.3l0.3-0.4l0-0.1l0.1-0.2l0,0     l0.2-0.1l0.1,0l0.5-0.1l0.1,0l0.1,0.2l0,0l0.1,0.1l0,0l0.8,0.2l0.1,0l0.2,0l0.1,0l0.2-0.1l0.2-0.1l0.1-0.1l0.1-0.1l0.1-0.2     l0.1-0.1l0.1-0.1l0.1-0.1l0-0.1l0-0.2l0-0.1l0.1-0.1l0,0l0,0l0.1,0l0.2,0l0.2,0l0.5,0.2l1.3,0.7l0,0l0.5,0.5l0.3,0.5l0.1,0.1     l0.1,0.1l0.1,0.1l0,0.1l-0.2,0.7l-0.1,0.3l-0.1,0.1l-0.1,0.1l-0.1,0.2l0,0.1l0,0.1l0,0.2l0,0.2l0,0l0.1,0.1l0.2,0.2l0.1,0.1     l0,0.1l0,0.6l-0.3,0.8l-0.1,0.2l0,0l0,0.1l0.1,0.6l0,0.1l0,0.1l0.1,0.1l0.1,0.1l0.1,0.1l0,0.1l0,0.1l0,0.1l-0.2,1l-0.2,0.4     l-0.1,0.1l0,0.2l0,0.1l0.3,2l0.1,0.2l0.1,0.1l0.1,0.1l0.1,0.1l0.1,0.1l0.1,0.1l0,0l0,0l0,0.9l0,0.1l0,0l-0.1,0.2l-0.1,0.1     l-0.1,0.1l-0.1,0l-0.1,0l-0.3-0.2l0-0.2l0.2-0.1l0.1-0.1l0,0l0-0.1l0.1-0.5l-0.6-1.3l0,0l-0.3-0.4l0,0l-0.1,0l-0.1,0l0,0     l-0.9,1.5l0,0l0,0.1l-0.7,3.7l0,0l-0.4,0.3l-0.1,0l-0.1,0.5l0.1,0.4l0,0.2l0,0.4l-0.2,0.2l-0.1,0.1l-0.1,0.1l-0.1,0.1l-0.1,0.1     l-0.1,0.1l-0.3,0.9l0,0.1l0,0l0.1,0.1l0.1,0l0.1,0l0.2,0l0.1,0l0,0l0,0l-0.1,0l-0.1,0l0,0l-0.1-0.1l0,0l0-0.1l0,0l0.1-0.1l0.1,0     l0.1,0l0.1,0l0.4,0.2l0.1,0l0,0l0.2,0.3l0,0l0.1,0.6l0,0l0,0l-0.2,0.1l-0.1,0l0,0l-0.1,0.1l0,0l-0.1,0.6l0,0.1l0,0l0.2,0.4     l0.2,0.4l-0.1,0.5l0,0.1l0,0l-0.1,0l-0.1,0l-0.1,0l-0.1,0l-0.5-0.3l0,0l0,0l0-0.1l0-0.1l-0.6,0.3l-0.3,0.4l-0.8-0.8l-0.6-0.9     l-0.1-0.4l0-0.1l0,0l0.5-0.6l0,0l0,0l0.1,0l0.2,0l0.1,0l0.1,0.1l0.1,0.1l0,0.1l0,0.1l-0.1,0.1l-0.1,0.1l0,0.1l0,0l0.4,0.2l0.1,0     l0.1,0.1l0.1,0l0.1,0l0.2,0l0.4-0.1l0.1,0l0.2-0.1l0,0l0,0l-0.7-0.8l-2-0.9l-0.1,0l-0.1,0l-0.1,0l-0.2,0l-0.4,0.2l-0.1,0.1l0,0     l0,0.1l0.2,0.5l0.1,0.1l0.1,0.1l0.1,0.2l0,0l0,0.1l-0.2,0.3l-0.1,0.1l-0.1,0l-0.3,0.1l-0.4,0.1l-0.1,0l-0.1,0l0,0l-0.1-0.3l0-0.1     l0-0.1l0,0l0.1,0l0.1,0l0.1,0l0,0l-0.2-1l-0.5-0.3l-0.3-0.1l0.3,0.5l-0.1,0.4l-0.1,0.5l-0.3,0.2l-0.2,0.3l-0.2,0.7l0,0.1l0,0.1     l0,0.1l0,0.1l0.2,0.3l0,0.1l0,0.1l0,0.2l-0.1,0.3l0,0.1l0,0l0,0l-0.2,0.1l-0.1,0l-0.1,0l-0.2,0l-0.1,0l-0.7-0.3l-0.5-0.4     l-0.1-0.1l-0.1-0.1l0,0l0-0.1l0-0.2l0-0.2l0,0l-0.1-0.1l0,0l-0.1,0l0,0l-0.1,0.1l-0.1,0.1l0,0l0,0.2l0,0.1l0,0.1l0,0.1l0,0     l0.2,0.1l0.1,0.1l0.1,0.1l0.2,0.1l0.3,0.2l0.3,0.2l0,0l0,0l0,0.1l0,0l-0.4,0.6l-0.5,0.5l0,0l-0.4,0.9l-0.1,0.6l0,0.1l-0.1,0.1     l-0.1,0.1L486.8,310.9z" />
<path class="st0" d="M499.5,298.9L499.5,298.9l-0.1-0.2l0-0.1l0,0l0.1,0l0.1,0l0.4,0.1l0.2,0.1l0,0l0.1,0.3l0,0l0,0l0,0l-0.1,0     L499.5,298.9z" />
<path class="st0" d="M497.3,302.6l0-0.7l0-0.2l0-0.1l0,0l0,0l0.5-0.3l0.1,0l0.4,0l0.1,0l0,0l0.4,0.6l0,0.1l0,0l0,0l-0.1,0l-0.1,0     l-0.5,0l-0.5,0.6l-0.3,0.2L497.3,302.6z" />
<path class="st0" d="M490.7,306.6l0-0.1l0.3-0.4l0,0l0.2-0.2l0.1,0l0.3,0.4l0,0l0.3,0.8l0,0.1l0,0.2l0,0.1l-0.6,0.1L490.7,306.6z     " />
<path class="st0" d="M490.2,309.6l-0.6,0.1l-0.5-0.7l0.6-0.6l0.9-0.8l0,0l0.1,0l0.1,0.1l0.5,1l0,0.1l0,0.1l-0.4,0.9l0,0l-0.1,0.1     l-0.1,0L490.2,309.6z" />
</g>
<g id="Australia:Queensland_State">
<path class="st0" d="M443.4,4L443.4,4L443,3.6l0,0l0-0.1l0.1-0.2l0.3-0.4l0,0l0,0l0.1,0l0.1,0l0,0l0.2,0.2l0.1,0.1l0.1,0.1l0,0.1     l0,0.1l0,0.4l0,0l0,0L443.7,4l0,0l0,0L443.4,4L443.4,4z" />
<path class="st0" d="M444.1,4.5L444.1,4.5L444,4.4l-0.1-0.2l0.2-0.4l0,0l0.1-0.1l0.1,0l0.5-0.1l0.1,0l0.3,0.1l0.1,0.2l0.1,0.2     l0,0.1l-0.4,0.5l-0.1,0.1l0,0L444.1,4.5z" />
<path class="st0" d="M444.9,7.3L444.9,7.3l-0.1-0.1l0,0L445,7l0.1,0.1l0,0.1l0,0l0,0.1l0,0l0,0L444.9,7.3L444.9,7.3z" />
<path class="st0" d="M444.3,7.2L444.3,7.2l-0.1,0.3L444,7.6l0,0l0,0l0-0.1l0-0.1l0.1-0.1l0,0l0.2-0.2l0.1,0L444.3,7.2L444.3,7.2z     " />
<path class="st0" d="M445.1,7.9L445.1,7.9l0,0.1L445,8.1l-0.1,0.1l-0.2,0.1l-0.1,0l-0.1,0l0,0l0,0L444.4,8l0-0.1l0-0.1l0-0.1     l0-0.1l0,0l0,0l0,0l0.1,0l0.2,0l0.1,0l0,0l0.1,0l0.1,0.1L445.1,7.9L445.1,7.9z" />
<path class="st0" d="M443.5,9.2l-0.3-0.3l0-0.1l0-0.1l0-0.4l0-0.1l0,0l0,0l0,0l0.5-0.2l0.4-0.1l0.4,0.7l0,0.4l-0.1,0L444.1,9l0,0     l0,0L444,9.1l-0.1,0.1l-0.1,0.1L443.5,9.2z" />
<path class="st0" d="M433,176.3l0-1.8l0-5.1l0-14.8l0-5.5l-12.2,0l-8.9,0l-3.7,0h-2.7l0-0.3l0-9.2l0-5.2l0-3.7l0-1.8l0-3.4l0-1.5     l0-1.8l0-3.1l0-0.9l0-3.1l0-1.8l0-8.3l0-4l0-1.5l0-4.3l0-25.1l0-0.9L406,63l0.5,0.4l0.3,0.2l0.4,0.3l0.1,0l0.8,0.3l1.3,0.3     l0.3,0.1l0.2,0l0.2,0l0.7,0l0.4,0l0.1,0l0.1,0l0.1,0.1l0.2,0.2l0.1,0.1l1.3,0.5l0.1,0l0.2,0l0.4,0l0.2,0l0.4,0l0.1,0l0.1,0     l0.1,0.1l0.1,0.1l0.1,0.1l1,1.4l0,0.4l0,0.1l0,0.1l0,0.1l0,0.1l0.1,0.3l0.4,0.7l0.1,0.1l0.1,0.1l0.2,0.2l0.1,0.1l0.2,0.1l0.4,0.1     l0.1,0l0.2,0l0.2,0l0.1,0l0.1,0l0.1,0l0.1,0l0.8,0.5l0,0l0.1,0.1L420,71L420,71l0.2,0.2l0.1,0.1l0.1,0.1l0.1,0l0.2,0l0.3,0.1     l0.5,0.1l0.3,0.1l0.3,0l0.6,0.4l0.6,0.4l0.1,0.2l0.1,0.1l0,0l0.1,0.1l0.1,0l0.2,0.1l0.3,0l0.1,0l0.6,0l2.2-0.4l0.2-0.1l0.9-0.3     l0.4-0.2l0.7-0.4l0.1-0.1l0.1-0.1l0.2-0.2l0.9-0.6l0.2-0.1l0.1,0l0.1,0l0.2,0l0.1,0l0,0l0.2-0.4l0.2-0.3l0.1-0.2l0.5-1.9l0.1-0.5     l0-0.2l0-0.1l0,0l-0.1-0.2l0-0.1l0-0.1l0-0.1l0.1-0.1l0.1-0.2l0.7-0.9l1.1-1.4l0.1-0.1l0.1-0.2l0.2-0.3l0-0.1l0.5-1.1l0.2-0.4     l0.1-0.2l0-0.2l0-0.1l0-0.1l0-0.1l0,0l0.2-0.7l0.1-0.2l0.2-0.7l0.6-1.4l0.1-0.2l0,0l0-0.1l0-0.1l-0.2-1.4l0.2-1.5l0.1-0.6l0-0.2     l0.2-1.1l0.1-0.3l0.9-2.1l0.6-1.2l0,0l0.3-1l0-0.2l0-0.1l0-0.1l-0.2-0.4l-0.1-0.2l-0.1-0.1l0-0.1l-0.1-0.1l-0.1-0.2l-0.3-0.9     l0-0.1l-0.4-2.5l0-0.1l0-0.2l0-0.1l0.1-0.4l0.1-0.2l0.2-0.5l0.2-0.4l0-0.1l0-0.1l0-0.2l0-0.5l0-0.4l0-0.2l0-0.2l0-0.1l-0.1-0.2     l-0.1-0.1l-0.2-0.2l-0.2-0.2l-0.1-0.1l-0.1-0.2l-0.2-0.3l0-0.1l0-0.1l0-0.2l0-0.1l0-0.2l0-0.2l0-0.4l0-0.3l0.1-0.3l0.2-0.8     l0.1-0.3l0.1-0.3l0-0.2l0.2-0.6l0.1-0.3l0-0.1l0.1-0.1l0.4-0.7l0.6-1.2l0-0.1l0-0.1l0-0.1l0-0.1l0-0.1l0-0.1l0,0l0,0l-0.2-0.1     l0,0l-0.2-0.3l0,0l-0.4-1.4l0-0.1l0-0.1l0.1-0.2l0.1-0.2l0-0.1l0.2-0.2l0,0l0,0l0,0l0.1,0l0.1,0l0.5-0.3l0.1-0.1l0.1-0.1l0.2-0.3     l0.1-0.2l0.1-0.1l0-0.1l0.2-0.5l0-0.1l0-0.2l0-0.1l0.2,0.1l0,0l0,0l0,0l0.2,0.1l0,0l0,0l0,0l0,0l0.1,0.2l0.2,0.3l0,0.2l0,0.2     l0,0.2l0,0.1l0,0.1l0,0.1l0.4,0.5l0.1,0.1l0.1-0.3l0-0.1l0-0.1l-0.5-1.4l-0.4-0.3l-0.6-0.9l-0.4-0.5l-0.1-0.2l0.2-0.1l0.1-0.1     l0,0l-0.1-0.1l-0.2-0.1l-0.6-0.1l-0.1,0l0,0.1l-0.1,0.4l0,0.1l0,0.1l0,0l0,0l0.1,0l0.1,0.2l-0.5,0.2l-0.1,0l-0.2-0.1l0,0l0,0     l0-0.1l0-0.1l0.1-0.2l0.1-0.2l0.4-0.7l0.1-0.2l0.2-0.5l0.6-0.8l0.2-0.3l-0.1-0.3l0.4-1.1l0.1-0.1l0-0.1l0.1-0.1l0.2-0.3l0.1-0.1     l0.2-0.1l0.2-0.1l0.1,0l0,0l0,0l0,0l-0.1,0.1l0,0.1l0,0.1l0.2,0.9l0.9-0.2l0.1,0l0,0l0,0l0-0.1l0-0.1l0-0.1l0,0l-0.4-0.5l-0.1,0     l-0.1,0l-0.1-0.1l0,0l0,0l0,0l0,0l0-0.1l0-0.3l0.1-0.7l0.1-0.4l0,0l0.8-2.3l0.2-0.6l0.2-0.4l0.2-0.6l0-0.1l0-0.3l0.3-1.7l0-0.5     l0-0.3l0-0.1l0-0.1l0-0.1l0-0.1l-0.1-0.4l0-0.1l0-0.1l0-0.1l0,0l0.2-0.2l0.1-0.1l0,0l0.1,0l0.1,0l0.1,0l0.1,0l0.1,0l0.7-0.2     l0.3-0.1l0.1-0.1l0.5-0.6l0.1-0.1l0.1-0.2l0,0l0-0.2l0-0.1l0-0.2l0-0.1l0.1-0.2l0,0l0.7,0l0.3,0.1l0.5,0.2l0,0l0,0l0,0.1     l-0.2,0.3l-0.1,0l-0.1,0l0,0l-0.5,0.4l-0.1,0.1l0,0l0,0.1l-0.1,0.8l0,0l0,0l0,0l0,0l0.1-0.1l0.1-0.1l0.1-0.3l0-0.1l0-0.1l0.1-0.1     l0,0l0.1,0l0.1,0l0,0l0.1,0l0.1,0.1l0.9,0.7l0,0l0.1,0.2l0.1,0.1l0.3,0.8l0.1,0.1l0.1,0.7l0.5,1.8l0.1,0.2l0,0.1l0,0.1l-0.2,1     l0,0l0.1,1l0.1,0.9l0,0.2l-0.1,0.3l0,0.3l0,0.2l0,0l0,0.1l0.1,0.1l0.1,0.1L451,20l0.1,0.1l0.1,0l0.1,0l0.1,0l0.1,0l0.2,0l0.2-0.1     l0,0l0.1-0.1l0.1-0.1l0.4,0.1l0,0l0.6,0.7l-0.3,0.5l-0.1,0.2l-0.4,0.7l-0.2,0.8l-0.1,0.6l0,0.2l0,0.2l0,0l0,0l0.4,0.1l0.1,0     l0.1-0.1l0.1,0l0.1,0l0.1,0l0.2,0.1l0.1,0.1l0.1,0.1l0,0l0,0l0.2,0l0.1,0l0,0l0.2,0.2l0,0.1l0,0.3l0,0.1l0,0.1l0,0.1l0,0.1l0,0.1     l0,0.2l0,0l0,0.1l0.3,0.3l0.1,0.1l0.1,0l0.1,0l0.2,0l0.1,0l0.1,0l0.4,0.2l0,0l0.1,0.2l0,0l-0.2,0.5l-0.2,0.3l-0.1,0.1l-0.1,0.1     l0,0.1l0,0.1l0,0.2l0,0.1l0,0.3l0,0.1l0,0.1l0,0.2l0.4,0.1l0.1,0l0.6-0.1l0.3,0l0.1,0.2l0,1.1l0,0.4l0,0.2l0,0l0,0l0,0.1l0,0.2     l0.2,1.6l0,0.3l0,0.3l0,0.1l0,0.1l0,0l0.1,0.1l0.1,0l0.1,0l0,0l0.2,0.4l0,0.1l0,0.1l-0.1,0.8l-0.1,0.3l-0.2,0.7l-0.2,1l0,0.1     l0.1,0.4l0.5,1.2l0.1,0.2l0.2,0.2l0.1,0.1l0.1,0.1l0.1,0.1l0.1,0.1l0,0l0,0l0,0.1l0,0.3l0.1,0.6l0,0.1l0,0.2l0,0.1l0,0.1l0,0.1     l0.1,0.4l0.2,0.7l0.1,0.1l0.3,0.6l0.1,0.2l0.1,0.2l0.2,0.2l0.3,0.2l0.1,0.1l0.1,0l0.2,0l0.3,0l0.3,0l0.3,0l0.1,0l0,0l0.6-0.4     l0.1-0.1l0.5-0.5l1.7-0.7l0.4-0.2l0.4-0.2l0.1-0.1l0.1-0.1l0.1-0.2l0.1-0.1l0-0.1l0-0.2l0,0l0.3,0.1l0,0l0,0l0.4,0.5l0.2,0.2l0,0     l0,0l0,0.1l-0.1,0.2l0,0.1l0,0.4l0.4,1.1l0,0.1l0.5,0.6l0,0l1,0.4l0.4,0.1l0.1,0l0.1,0l0.1,0l0.2,0l0.1,0l0.1,0l0,0l0,0l0.1,0.1     l0.2,0.5l0,0.1l0.1,0.3l0,0.1l0.1,0.1l0,0l0.1,0l0.3,0.1l0.7,0.3l1.2,0.5l1,0.8l0,0.5l-0.1,0.1l-0.2,0.2l-0.1,0.2l-0.2,0.2     l-0.1,0.2l-0.1,0.2l0,0.2l0,0.2l0,0.2l0.4,0.6l0.1,0.4l0,0.2l-0.4,1.1l0.3,0.4l0.3,0.6l0.5,1.6l0,0.1l0,0.2l0,0.5l0,0.6l0,0.2     l0,0.1l0,0.1l0,0l0.1,0l0,0l0.1,0.1l0.1,0.1l0.1,0.2l0.3,0.6l0.1,0.1l0.1,0.3l0,0.1l-0.1,1.8l-0.1,0.1l-0.2,0.2l-0.1,0.1l0,0.1     l0,0.1l0,0.9l0,0.1l0,0.2l0,0l0.1,0.1l0.1,0l0.4,0.2l0.4,0.5l1,1.3l0.5,0.4l0.6,0.7l0.4,0.6l0,0l0.3,0.2l0.3-0.2l0,0l0.7-0.1     l0.1,0l0.1,0l0,0l0.1,0.1l0.1,0.1l0,0l0,0.1l0,0l0,0l-0.4,0.6l-0.1,0.2l-0.2,0.4l0,0l0,0.2l0,0.1l0,0l0.6,1l0.7,1.6l0.5,1.7     l0.2,1.2l0,0.1l-0.1,0.8l0.1,0.9l-0.1,0.6l0,0.1l-0.1,0.2l0,0l-0.1,0.1l0,0l-0.1,0.1l0,0.1l-0.2,0.4l-0.3,0.7l0,0.1l0,0.1l0,0.2     l0.1,0.6l0.1,0.3l0,0l1.7,2l0.1,0.1l0.3,0.1l0.3,0l0.3,0.1l0.1,0.1l0,0l0,0.1l0,0.2l0,0.5l0,0.2l0,0.1l-0.2,0.2l0,0.1l-0.1,0.2     l-0.1,0.3l0,0.2l-0.1,0.8l0,0.2l0,0.2l0,0l0.1,0.1l0.5,0.6l0,0l0.4,0.3l0.4,0.3l0.2,0.3l0,0.1l0,0l1,0.6l0.6,0.3l0.2,0.1l0.3,0.1     l0.2,0l0,0l0.2-0.1l0,0l0.1,0l0.1,0l0,0l0.1,0.1l0.4,0.5l0.5,0.5l0.1,0l0.1,0l0.6,0l1.1,0.3l0.4,0.4l0.2,0.1l1,0.2l1.5-0.1l0.1,0     l0,0l0.1-0.2l0-0.1l0-0.1l0-0.1l0,0l-0.1-0.1l-0.1-0.1l-0.2-0.2l0,0l0-0.1l0,0l0.1,0l0.1,0l0.2,0.2l0.3,0.4l0,0.1l0.8,1.5l0,0     l0.1,0.4l0.1,0.4l0.1,0.5l0.1,0.5l0.2,0.4l0,0.1l0.4,0.4l0,0l0.4,0.1l0.1,0l0.4,0l0-0.2l0-0.1l0-0.1l-0.1-0.5l0-0.3l0.1-0.1     l0.4,0l0.1,0l0,0l0.2,0.2l0,0l0,0.1l0,0.1l0,0.5l0,0.2l0,0.1l0.1,0.1l0,0l0.1,0.1l0.4,0.3l0.2,0.1l0.1,0l0.2,0l0.1,0l0.2,0l0.1,0     l0.8-0.1l1.1,0.3l0.5,0.4l0.3,0.4l0,0.1l-0.1,0l-0.1,0l-0.1,0l-0.1,0l0,0.1l0.1,0.2l0.5,0.6l0.6,0.5l0.1,0.1l0,0l0.4-0.2l0,0l0,0     l0.1-0.4l0-0.1l0,0l-0.1-0.1l-0.1-0.1l-0.1-0.1l0,0l0-0.1l0-0.1l0-0.1l0.1-0.1l0.1,0l0.1,0l0.6,0.2l0.4,0.3l0.7,0.6l0.3,0.3     l0.7,0.2l0,0l0,0l0.1,0l0,0l0,0l0,0l0.2,0.4l0.3,0.9l0,0l0,0.1l0.1,0.1l0.2,0.3l0,0l0.1,0.1l0,0l0.1,0l0.1,0l0.1,0l0,0l0.3,0.7     l0,0l-0.2,0l-0.3-0.1l-0.2-0.1l-0.2-0.3l-0.4-0.2l-0.5,0.2l-0.7,0.8l0.2,0.6l0.3,0.8l0,0.1l0,0l1.1,1.1l0.7,0.4l1,0.3l1.2,0.9     l0.5,0.6l-0.1,0.7l0.3,1.1l0.5,0.4l0,0.2l0.3,0.9l0.5,0.9l0.5,0.5l0,0.4l-0.1,1.2l0,0.1l0,0.1l0.4,1.2l0.5,1.5l0.6,1.4l0.6,0.8     l0.4,0.3l0,0l0,0.2l0,0.1l0,0.5l0,0.1l0,0.1l-0.3,0.2l-0.1,0.1l0,0.1l0,0l0.1,0l0,0l0.3-0.2l0,0l0.2-0.1l0.4-0.3l0,0l0,0l0.1-0.3     l0,0l0,0l0.1,0l0,0l0.1,0.1l1.2,1.3l0,0l0.1,0.1l0,0.1l0,0.1l0,0.1l0.5,0.4l0.1,0.1l0-0.1l0-0.1l-0.3-0.9l-0.2-0.6l-0.3-0.6     l-0.3-0.5l0-0.1l0-0.4l0-0.1l0.3-0.8l0.1-0.2l0.1-0.1l0.1-0.1l0,0l0.3-0.1l0.2,0l0.2,0.1l0,0l0.7,1l0.3,0.6l0,0.1l0,0.1l-0.1,0.1     l0,0.1l0.1,0.1l0.1,0.1l0,0l0.2,0.1l0.1,0l0.1,0l0.7,0.2l0.6,0.3l0.1,0l0.1,0.1l0,0l0.1,0.1l0.5,0.3l0.7,0.4l0.3,0.1l-0.5-1.1     l0,0l0-0.1l0-0.5l0-0.1l0.1-0.1l0.1-0.3l0.1-0.1l0.1,0l0.6,0.1l0.1,0l0,0l0,0l0.6,0.9l-0.1,0.5l-0.1,0l-0.1,0l0,0l0,0l0,0l0,0     l0,0.1l0.1,0.3l0.5,0.7l0.7,0.9l-0.1,0.5l-0.1,0.7l-0.2,1.1l-0.2,1.3l0,0.1l0,0.1l0,0l0.5,0.9l-0.1,0.6l-0.1,0.3l0,0.3l0,0.1     l0,0.1l0.6,1.1l0.6,0.4l0.1-0.1l0.1,0l0.5,0.1l0.1,0l0,0l0.1,0.2l0.1,0.3l0.6,0.4l0.1,0.1l0.1,0.3l0.1,0.1l0.1,0.4l0,0.2l0,0.1     l0,0.1l0,0l0.1,0.1l0.5,0.3l0.2,0l0.2,0l0.1,0l0.4,0.3l0.7,0.8l0.3,0.3l0.3,0.2l0,0l0,0l0.1,0l0.1,0l0.1,0l0.1,0l0.4,0.3l0,0     l0,0.1l0,0l0,0l-0.1,0.1l0,0.1l0,0.1l0,0.1l0,0l0.1,0.1l0.1,0l0.1,0l0,0l0.4-0.4l0-0.4l0-0.1l0,0l0,0l0,0l0.2-0.2l0.1,0l0.4,0.1     l1,1l0.9,0.8l0.2,0.1l0.2,0.2l0.1,0.1l0.1,0.1l0.3,0.9l0,0.1l0.1,0.2l0.1,0.3l0,0.1l0.1,0.1l0.1,0.3l0.3,0.5l0.7,0.9l0.1,0.1     l0.6,0.5l0.1,0.1l0.6,0.4l0.3,0.2l0.3,0.1l0.1,0l0.3,0l0.1,0l0.2,0.1l0.2,0.2l0.1,0.1l0.2,0.2l0.2,0.2l0,0.1l0.1,0.2l0,0.2l0,0.2     l0,0.1l0,0.2l0,0.3l0,0.1l0.1,0.2l0.2,0.3l0.3,0.5l1,1.4l0.1,0l0.4,0.1l0.8,0.2l0.1,0l0.4,0l0.4,0l0.1,0l0,0l0,0l0.3,1.3     l-0.1,0.8l0,0l-0.3,0.3l0,0l0.1,1.1l0.2,0.5l0.1,0.1l0.2,0.2l0,0l0.1,0l0.1,0l0.1,0l0.1,0l0,0l0,0l0,0l0.3,0.5l0,0l0.1,0.4l0,0.1     l0.2,0.1l0.3,0.1l0.8,0.4l0,0.2l-0.4,0.9l-0.3,1l-0.1,0.4l-0.2,0.7l0,0.2l0,0.2l0,0.1l0,0.1l0.1,0.1l0.1,0.1l0.1,1.2l0.1,1.4     l0,0.1l0,0.1l0,0l0.1,0l0.1,0.4l0.1,2.1l0,1.2l-0.5,0.1l-0.1,0.1l-0.1,0.1l-0.1,0.1l-0.1,0.1l-0.1,0.2l0,0.1l0,0.1l0.2,1.1l0,0.1     l0,0l0.1,0.1l0.1,0.1l0.8,0.5l0.7,0.8l0.1,0.2l0,0.1l0.3,0.9l0.1,0.4l0,0.2l0,0l0.5,0.7l0.2,0.2l0.1,0.1l0.2,0.6l0,0.6l-0.1,0     l-0.1,0.6l0.3,0.8l0,0.1l0.1,0.1l0.2,0.4l0,0l0.1,0.1l-0.3,0.2l-0.2,0.2l-0.2,0.1l-1,0.3l-0.1,0l-0.3,0l-0.8,0.1l-0.1,0.1     l-0.1,0.1l-0.2,0.3l-0.2,0.3l0,0l-0.1,0.1l-0.1,0.1l-1.4-0.1l-1.2,0.1l-0.1,0l-0.1,0l-0.3,0l-0.1,0l-1.5-0.3l-0.5-0.5l0,0     l-0.1-0.1l0,0l-0.1,0l-0.1,0l-0.1,0l-0.1,0l-0.1,0l-0.5,0.4l0,0l-0.1,0.3l0,0l-0.1,0.1l-0.2,0.1l-0.1,0l-0.1,0l-0.8,0.2l-0.9,0.3     l0,0l-1,0.4l-0.8,0.5l-0.1,0.1l0,0l0,0.1l0,0.1l0,0.1l0.4,0.6l0.1,0.1l0.4,0.8l-0.2,1.4l0,0.1l0,0l-0.1,0.1l-1.6,0.7l-0.1,0     l-0.4-0.2l-0.1,0l-0.1-0.1l-0.1-0.2l-0.1-0.3l0,0l-1.5,0.6l-0.1,0.1l-0.1,0.2l-0.1,0.2l-0.1,0.1l-0.1,0.2l0,0.1l-0.4,0.6     l-0.1,0.1l-0.4,0.4l-0.5,0.1l-0.1,0l-0.1,0l0,0l-0.1-0.1l-0.1-0.1l-0.3-0.6l-0.1-0.6l0-0.2l0-0.1l-0.1-0.6l0,0l-0.6-0.4l-1.6-1.3     l0,0l0,0l-2.2-0.9l-0.1,0l-0.1,0l-0.1,0l-0.1,0l-0.2,0.1l-0.3,0.1l-0.5,0.1l-0.1,0l-1.3,0l-0.2,0l-0.1,0l-0.5-0.3l-0.1-0.1     l-0.1-0.1l-0.1-0.1l-0.5-0.4l-0.1-0.1l-0.1,0l-0.1,0l-1.1,0.1l-0.2,0l-0.1,0.1l-0.1,0.1l-0.1,0.1l-0.1,0l-0.7,0.2l-0.2,0l-0.1,0     l-0.9,0l-1.7,0.2l-0.7-0.1l-0.1,0l0,0l0-0.2l-0.1-0.1l-0.1-0.1l-0.2,0l-0.3,0l-0.2,0.1l-0.4,0.1l-0.1,0l-0.1,0.1l-1.3,1.1     l-0.6,0.4l-0.9,0.7l-0.8,0.9l-0.1,0.1l-0.1,0.1l-0.1,0.1l0,0l-0.6,0.3l0,0l-3.1,0l-0.3,0l-11.9,0l-0.3,0l-8.3,0l-3.7,0l-3,0l-1,0     l-0.5,0l-7.2,0l-9.1,0l-0.4,0l-4.5,0l-0.3,0l-8,0l-2.3,0l-3.6,0l-4.6,0l-1,0H433L433,176.3z" />
<path class="st0" d="M415.9,64.3L415.9,64.3l0-0.4l0.2-1l0-0.1l0.5-0.7l0.5-0.4l0.1-0.1l0.2-0.1l0.1,0l1.2-0.1l0.3,0l0.5-0.3     l1.8,0.3l0,0l0,0.1l0,0.2l0,0.1l0,0.1l0,0.1l0,0l-0.4,0.2l-0.6,0.1l-0.4-0.3l-0.8,0.3l0.1,0.3l-0.5,0.8l0,0l-0.1,0.1l-1,0.4     l-0.9,0.2l-0.4,0.1L415.9,64.3L415.9,64.3z" />
<path class="st0" d="M415.4,65L415.4,65L415.4,65l0.3-0.2l0.1,0l0.1,0l0.1,0.1l0,0l0,0l-0.4,0.3l-0.2,0L415.4,65z" />
<path class="st0" d="M418.5,67.8l-0.1-0.1l-0.1-0.1l-0.1-0.2l0,0l0.9-0.8l0.3,0.2l0.1,0.1l0,0l0,0l0.2,0.6l-0.1,0.1l-0.1,0     l-0.4,0l-0.4-0.1l-0.1,0l-0.1,0l-0.1,0l-0.1,0.1l-0.1,0.1l0,0.1L418.5,67.8L418.5,67.8L418.5,67.8z" />
<path class="st0" d="M481,80.1L481,80.1l-0.1-0.1l-0.1-0.1l-0.1-0.1l0-0.1l0-0.1l0-0.2l0-0.1l0-0.1l0-0.1l-0.1-0.1l-0.3-0.4l0,0     l0,0l0,0l-0.2-0.1l-0.1,0l-0.1-0.1l-0.1-0.2l-0.1-0.2l0,0l0,0l0.1,0l0.2,0l0.1,0l0.9,0.3l0.4,0.3l0.8,1l0,0.1l0,0l-0.3,0.5     l-0.2,0.1l-0.1,0L481,80.1z" />
<path class="st0" d="M486.3,86.5L486.3,86.5l-0.3-0.3l0,0l0-0.1l0,0l0,0l0,0l0.7-0.1l0,0l0,0l0,0.1l0,0.1l0,0.3l-0.4,0.2     L486.3,86.5z" />
<path class="st0" d="M501.4,94.4L501.4,94.4l-0.1-0.1l0-0.4l0-0.1l0-0.1l0,0l0.1,0l0.1,0.1l0.2,0.3l0,0l-0.1,0.3l0,0l0,0     L501.4,94.4L501.4,94.4z" />
<path class="st0" d="M505.3,95.5L505.3,95.5l0-0.1l0-0.1l0.3-0.6l0,0l0,0l0.4-0.1l0.1,0l0,0l0,0.1l0,0.1l0,0.1l-0.2,0.6l0,0     l-0.1,0.2l-0.1,0.1L505.3,95.5z" />
<path class="st0" d="M506,96.7l0-0.7l0-0.4l0.1-0.1l0,0l0,0l0,0l0.1,0.3l0.4,0.8l-0.3,0.4l-0.3,0.1L506,96.7z" />
<path class="st0" d="M506.8,98.9L506.8,98.9L506.8,98.9l-0.1-0.1l0-0.1l0-0.1l0,0l0,0l0.3-0.1l0.1,0.1l-0.1,0.2l0,0l0,0     L506.8,98.9L506.8,98.9z" />
<path class="st0" d="M517.8,109.4L517.8,109.4l0-0.3l0.1-0.1l0.3,0.1l0.1,0l0,0l0,0l0,0.1l0,0l-0.2,0.1l0,0L517.8,109.4z" />
<path class="st0" d="M518.2,110.1L518.2,110.1l0.2-0.1l0.4,0l0,0l-0.1,0.2l0,0.1l0,0l0,0l0,0l-0.1,0L518.2,110.1z" />
<path class="st0" d="M514.5,114.5L514.5,114.5l-0.1-0.1l0-0.3l0-0.1l0.1-0.7l0.1-0.3l0,0l0.1-0.1l0.1-0.1l0,0l0,0l0.1,0l0.1,0.7     l0,0.1l-0.1,0.5l0,0.1l0,0l-0.1,0.2l0,0l0,0L514.5,114.5z" />
<path class="st0" d="M519.9,115.6L519.9,115.6l-0.2-0.4l0-0.1l0.1-0.6l0-0.1l0,0l0,0l0.1,0l0.1,0l0.1,0.1l0.5,0.6l0,0l0,0.1l0,0     l0,0l-0.3,0.3l-0.1,0.1l-0.2,0L519.9,115.6L519.9,115.6z" />
<path class="st0" d="M512.9,116.4L512.9,116.4l-0.1-0.1l0-0.3l0-0.3l0,0l0,0l0.1,0l0,0l0,0l0.2,0.2l0,0l-0.1,0.4l-0.1,0.1     L512.9,116.4L512.9,116.4z" />
<path class="st0" d="M524.2,123.4v-0.1l0-0.1l0,0l0.2-0.2l0,0l0.1,0l0,0l0,0.1l0,0.2l0,0.1l0,0l0,0H524.2L524.2,123.4z" />
<path class="st0" d="M526.7,128.8L526.7,128.8l-0.4-0.3l-0.1-0.1l-0.1-0.3l-0.2-0.4l-0.6-0.5l-0.2-0.3l-0.1-0.2l-0.1-0.3     l-0.1-0.6l0,0l0.4-0.1l0.1,0l0.6,0.3l0.7,0.4l0.2,0.3l0.6,1l0,0l0.1,0.6l0,0.1l0,0l-0.2,0.2l-0.1,0L526.7,128.8L526.7,128.8z" />
<path class="st0" d="M528.1,129.7L528.1,129.7L528.1,129.7l-0.4-0.6l0,0l-0.1-0.3l0-0.1l0-0.1l0,0l0.1,0l0,0l0.4,0.7l0.1,0.2     l0,0.2l0,0.1l0,0l0,0L528.1,129.7L528.1,129.7z" />
<path class="st0" d="M543.8,147.2L543.8,147.2l-0.2,0l-0.1-0.1l0,0l-0.4-0.4l0-0.1l-0.4-1l-0.1-0.3l0-0.1l0-0.1l0.5-1l0-0.1     l0.1-0.2l0.1-0.1l0.1-0.1l0,0l0.2-0.3l0-0.1l0.1-0.1l0-0.1l0-0.8l0-0.1l0,0l-0.1,0l0.4-0.7l0.4-0.3l0.3-0.3l0.2-0.2l0.2-0.2     l0.1-0.1l0.1-0.2l0.1-0.1l0-0.1l0.1-0.3l0-0.1l0-0.1l0-0.1l-0.1-0.2l-0.1-0.1l-0.4-0.6l-0.1-0.1l-0.1-0.1l-0.1,0l-0.1,0l0.1-0.3     l0.1-0.2l0.1-0.1l0.2-0.2l0.2-0.1l0.1-0.1l0.3-0.1l0,0.2l0,0.3l0,0.2l0,0.2l0,0.1l0,0.3l0,0.1l0,0.2l0.1,0.2l0,0.1l0,0l0.2,0.2     l0.1,0.1l0.1,0.1l0.1,0.1l0.1,0l0,0l0,0l0,0l0.1,0.2l0,0.1l0,0.2l-0.6,1.3l-0.4,0.9l-0.2,0.3l-0.5,1l-0.5,1.2l-0.4,1.1l0,0.1     l0,0.2l0,0.1l0,0l0.1,0.2l0,0.2l0,0.2l0,0.2L543.8,147.2L543.8,147.2L543.8,147.2z" />
<path class="st0" d="M543,143L543,143l-0.3-0.3l0,0l0-0.1l0-0.1l0.1-0.1l0,0l0.1,0.1l0.2,0.2l0.1,0.1l0,0.1l0,0.1l0,0L543,143     L543,143z" />
<path class="st0" d="M546.8,161l-0.2-0.3l-0.1-0.2l-0.1-0.2l-0.1-0.2l0-0.1l0-1.2l0-0.1l0,0l0.1-0.1l0.7-0.3l0.1,0l0.1,0l0,0l0,0     l0,0.1l0,0.2l0,0.1l-0.1,0.2l-0.1,0.1l-0.2,0.6l0,0.1l0,0.1l0,0.1l0,0.1l0,0.2l0.1,1.1L546.8,161z" />
<path class="st0" d="M546.7,165L546.7,165l-0.1-0.2l0-0.1l0.1-0.8l0-0.1l0.1-0.7l0.2-1l0.4-0.1l0.6,0.1l0,0l0,0.1l-0.1,0.3     l-0.1,0.3l-0.2,0.6l-0.1,0.4l-0.1,0.4l0,0.3l0,0.3l0,0.1l0,0L546.7,165L546.7,165z" />
</g>
<g id="Australia:Northern_Territory_Territory">
<path class="st0" d="M391.7,15.6L391.7,15.6l0.1-0.4l0,0l1.2-1.8l0.8-1.5l0,0l0.1-0.1l0.2-0.1l0,0l0,0l0,0l0,0l0,0.1l0,0.1     l-0.4,1.4l0,0.1l-1.5,2.1l-0.1,0.1l-0.1,0.1l0,0L391.7,15.6L391.7,15.6z" />
<path class="st0" d="M355.8,14.6l-0.1-0.1l-0.1-0.1l-0.3-0.9l-0.2-0.7l-0.1-0.8l0.7-0.3l0.2,0.4l0.2,0.5l0.1,0.6l0,0.4l0,0.4     l0,0.1L355.8,14.6L355.8,14.6z" />
<path class="st0" d="M387.5,24.9l0.3-0.1l0.6-0.1l0,0l0,0l0,0l0,0.1l0,0.1l0,0l0.1,0l0.5,0l0,0l0.1-0.1l0.4-0.3l0.1-0.1l0.5-1.1     l0.1-0.4l0-0.1l0-0.1l-0.1-0.1l-0.2-0.2l-0.1,0l-0.1,0l-0.1,0.1l-0.1,0l-0.1,0l-0.3,0l-0.1,0l-0.1,0l-0.5-0.2l-0.1-0.1l0-0.2     l0-0.1l0.9-0.9l1.6-1l1-0.2l-0.2,0.7l0.5,1.5l0.1,0.1l0.1,0.2l0.5,0.7l0,0l0.1,0.1l0,0l0.3,0l0.1,0l0.1,0l0.2-0.1L394,23l0,0     l0-0.1l0-0.1l0,0l0,0l-0.1-0.1l-0.1-0.1l-0.1,0l-0.1,0l-0.1,0l-0.1,0l0,0l0-0.1l0-0.1l0.1-0.1l0,0l0.6-0.2l0.1,0l0.1,0l0.8,0.4     l0,0l0,0l0.5,0.5l0.5,0.5l0,0l0,0.1l0,0l-0.1,0.1l-0.1,0.1l-1.4,0.9l-0.5,0.6l-0.9,1.5l-0.2,1.1l-1.2-0.4l-0.1,0.6l0.6,1l0,0.9     l-0.2,0.9l-0.5,0.6l-0.2,0.4l0-0.2l0,0l0,0l-0.3,0.2l0,0l-0.4,0.1l0-0.7l0-0.8l0-0.1l0,0l-0.1-0.1l0,0l-0.1,0l-0.1,0l-0.1,0     l-0.1,0.1l-0.1,0.1l0,0.1l0,0.1l0,0.1l0,0l0,0l-0.2,0.5l-0.4,0.4l-0.4,0.3l-0.1,0.1l-0.3,0l0,0l-0.1-0.3l0-0.1l0-0.1l0-0.1     l-0.4-0.1l-0.9,0.4l0,0l-0.5,0.4l-0.1,0.1l0,0l-0.3,0.5l0,0l0,0.1l0.1,0.1l0,0l0.3,0.2l-0.2,0.5l-0.4,0.3l-0.2,0.8l0,0.1l0,0.2     l0.3,1.1l0,0l0.1,0.1l0.1,0.1l0.1,0.1l0.1,0l0.1,0l0.1,0l0.2,0l0.2-0.1l0.1-0.1l0.2-0.1l0,0l0.1-0.2l-0.1,0.7l-0.3,1l-0.6,0.9     l-0.2,1l-0.1,0.7l-0.2,0.5l-0.1,0l-0.6,0.3l-0.2,0.1l-0.1,0.1l-0.1,0.1l-1.2,1.5l0,0l-0.5,0.8L383,44l-0.1,0.2l-0.1,0.3l0,0.2     l0,0.1l0.1,0.2l-0.3,0.2l-0.9,0.6l-0.4,0l0.3,0.9l0.1,0.2l0.2,0.4l0,0.1l0.1,0.2l0.1,0.2l0.1,0.1l0.1,0.1l0.1,0.1l0.5,0.4l0,0     l0.3,0.1l0.2,0.1l0.1,0l0.6,0.2l1.7,1L386,50l0.2,0.2l0.1,0.1l0.1,0.2l0,0l0.1,0.1l1,0.5l1.4,0.7l0.3,0.2l0,0l0.1,0.5l0.1,0.5     l0,0.1l0.1,0.1l0.1,0.1l0,0l0.3,0.3l0.1,0.1l0.2,0.1l1.1,0.4l1,0.6l0.3,0.2l0.7,0.6l0.4,0.5l0,0.1l0.4,0.3l0.9,0.1l0.5-0.1l1,0.1     l1,0.5l1.3,0.8l0.1,0.1l0.1,0.1l0.1,0.1l0.3,0.2l0.2,0.2l0.1,0l0.6,0.2l0.4,0.2l0.2,0l0.1,0l0.1,0l0.2,0l0.1,0l0.4,0.1l0.6,0.2     l0.8,0.3l0,0l0.1,0.1l0.3,0.4l0.1,0.2l0.1,0.1l0.2,0.3l0,0.1l0.4,0.5l0,0l0.2,0.2l0.4,0.3l0.3,0.3l0.3,0.3l0,7.7l0,15.3l0,12.5     l0,3.1l0,4l0,6.7l0,3.4l0,3.1l0,0.9l0,3.1l0,1.8l0,1.5l0,3.4l0,1.8l0,1.2l0,4.3l0,5.8l0,7h-1.2l-9.8,0l-1.2,0l-3.7,0l-26.9,0     l-19.3,0l-8.6,0l-9.2,0l-0.6,0l-2.1,0l-0.1,0l0-0.1l0-7.4l0-2.4l0-3l0-5.1l0-4.4l0-3.1l0-4.5l0-1.4l0-5.2l0-0.4l0-0.3l0-12.5     l0-0.9l0-2.9l0-11l0-15.6l0-9.6l0-7.5l0-2.4l0-2.1l0-0.3l0.6,0.1l0.2,0.1l0.8,0.7l0,0l0,0l0,0l-0.1,1.6l0.2,0.2l0.6-0.7l-0.2-0.9     l0-0.1l-0.2-1.2l0-0.1l0-0.1l0.1,0l0.1,0l0.9,0.2l0.1,0l1.1,0.5l0.1,0.1l0.1,0.1l0.1,0.1l1.3,1.4l0.3,0.4l0,0.1l0,0.3l0,0l0,0     l0,0l0.1,0l0.1,0l0.4-0.1l0,0l0-0.1l0,0l-0.1-0.1l-0.3-0.4l-0.1-0.1l-0.2-0.2l-0.1,0l-0.1,0l0,0l-0.3-0.6l0,0l-0.1-0.6l0-0.1     l0-0.1l0.2-0.3l0.1-0.3l0-0.3l0,0l0,0l0.1,0l0.4,0.2l0.8,0.1l0.1,0l0.1,0l0.5-0.2l0.6-0.5l0.1-0.2l-1.3,0.4l-0.3,0.1l-0.1,0     l-0.1,0l-0.4-0.2l0,0l-0.3-0.2L329,46l0,0l-0.6-0.8l0-0.1l-0.1-0.3l0-0.1l0-0.1l0.2-0.1l0.1,0l0.1,0l0.1,0l0.1,0l0.2,0l0.3,0     l0.1,0l0.5-0.4l0.1-0.1L330,44l0-0.1l0,0l-0.1,0l-0.1,0l-0.5,0.2l-0.4,0.1l-0.1,0l0,0l0,0l-0.6,0l-0.4-0.2l0,0l-0.8-0.4l-0.9-0.7     l0-0.1l0-0.1l0.1-0.7l0.6-1l0.6-0.7l0.8-0.5l1-0.5l0.1-0.1l0,0l0.1-0.1l0.1-0.1l0.1-0.3l0.4-2l-0.1-0.3l0-0.2l0.1-0.2l0.4-1.4     l0,0l0.5-0.6l0.1-0.1l0,0l0,0l0,0l0,0.4l0,0.1l0.1,0.1l0.2,0.1l0.1,0l0.1,0l0.2,0l0.1,0l0.3-0.1l0.1,0l0.1-0.1l0.6-0.4l0.5-0.3     l0.9-1l-0.1-0.3l-0.5-0.7l-0.1-0.1l-0.1-0.1l-0.1-0.1l0,0l-0.1,0l-0.1,0l-0.1,0l0,0l0,0l0-0.1l0-0.1l0.1-1.5l0-0.1l0.1-0.3l0-0.1     l0,0l0.3-0.1l0,0l0.1,0l0,0l0,0.1l0,0.1l0,0l0.1,0.1l0,0l0.1,0l0.3-0.1l0.1-0.1l0.2-0.1l0.1-0.1l0.2-0.1l0.1-0.1l0.1-0.1l0.1-0.2     l0-0.2l0-0.1l0-0.7l0-0.2l-0.1-0.1l0-0.1l0-0.1l0.1-0.3l0-0.1l1.3-0.6l0.1,0l0.1,0l0.1,0.1l0.3,0.4l0,0l0,0.1l0.4,0.4l0.1,0     l0.2,0l0.4,0l0.2,0l0,0l0,0l0-0.1l0,0l-0.4-0.1l-0.4,0l-0.2-0.4l-0.1-0.4l0-0.1l0.1-0.1l0.1-0.2l0.1-0.2l0-0.2l0.1-0.6l0,0l0,0     l-0.1-0.1l-0.1-0.1l0,0l0-0.1l0.1-0.1l0,0l0.1,0l0.2,0l0.2,0l0.2,0l1,0.4l0.1,0l1.1,1.9l0-0.3l0.5-0.7l-0.9-0.7l0,0l0,0l-0.2,0     l-0.1-0.1l0.1-0.4l0.2-0.3l0,0l0.3-0.2l0.3-0.1l0.1,0l0.5,0.1l0.4,0l0.1-0.3l-0.1-0.7l0-0.1l0-0.1l-0.1-0.1l-0.1-0.1l0-0.1l0,0     l0-0.1l0-0.1l0.1-0.1l0-0.1l0.1-0.1l0.1,0l0.7,0l0.1,0l0.1,0.1l0.5,0.3l0.4,0.2l1.2,0.1l0.2,0.2l0.3,0.2l0.1,0.1l0.1,0l0.1,0     l0.1,0l0.1,0l0.2,0l1.7-0.1l0.5,0l0.2,0l0.2,0l0.1,0l1.3-0.1l0,0l0.4,0.2l0.7,0.2l0.1,0l0,0l0,0l1.4-1l1.2,0l0.1,0l0,0l0.1,0.2     l0.1,0.1l0.2,0.5l0.1,0.2l0,0.1l0,0l-0.1,0.1l0,0l-0.1,0.1l0,0.1l0,0.1l0,0.1l0.1,0l0.1-0.1l0.2-0.2l0,0l0.1-0.1l-0.1-0.5l0-0.1     l0-0.1l0-0.1l0-0.1l0-0.3l0-0.1l0.1-0.2l0.1-0.1l0,0l0.1,0l1.1-0.4l0,0l0.1,0.1l0.1,0.1l0,0l0.7,0.2l0.2,0l0.1,0l0.1,0l0.2,0     l0.1,0l0,0l-0.1,0l-0.3,0l-0.1,0l0,0l-0.5-0.4l-0.1-0.1l0,0l-0.1-0.1l0-0.2l0-0.2l0-2l0.1-0.6l0.1-0.2l0.4-0.6l0-0.1l-0.3-0.2     l0,0l-1.1-0.8l-0.5-0.6l-0.3-0.2l-0.1,0l-0.1,0l-0.4-0.1l-0.2,0l-1.3,0.2l-0.1,0l-0.5,0.2l0,0l-0.5,0.3l-0.2,0l-0.1,0l-0.1-0.1     l-0.1-0.1l-0.6-0.7l-0.2-0.5l0,0l0,0l0-0.1l0-0.1l0,0l0,0l0,0l-0.6-0.2l-0.3-0.1l-0.1,0l-0.3,0l-0.2,0.1l-0.2,0l-0.2,0l0,0l0,0     l0,0l0.1-0.1l0.9-1.1l0.9-0.5l0.1,0l0.1,0l0.1,0l0.1,0l0.8,0.9l0.6,1.5l0.1,0.1l0,0l0,0l0.2,0l0,0l0,0l0.3-0.5l-0.4-1.2l-0.2-0.3     l-0.2-0.3l0,0l0-0.1l0-0.1l0,0l0.1,0l0.2,0l0.1,0l0.8,0.3l0.1-0.1l0.5-0.3l0.1,0l1.1,0.8l0.4,0.4l0,0l0.1,0.4l0,0.1l1.2,1.6     l0.1,0.1l0.1,0.1l0,0l0,0l0.4,0.1l0.1,0l0,0l0.3-0.3l0.6-0.8l0.3-0.5l0-0.1l0-0.1l0,0l0.1,0l0.4,0.1l0.2,0.2l0.5,0.5l0.1,0.1     l0.5,0.7l0.2,0.4l0,0.1l0,0.1l0.2,0.4l0.4,0.7l0.1,0.1l0.1,0.1l0.1,0.1l0.2,0.1l0.2,0.1l0.3,0.1l0.1,0l0.5-0.3l0.3-0.1l0.1,0     l0.1,0.1l0,0.1l0,0.1l0,0l0.4,0.6l1.3,0.5l0.6,0l0.1,0l0.4-0.1l0.9-0.5l0.1,0l0.1-0.1l0.1-0.1l0.1-0.2l0,0l0.3,0l0.7,0.2l0.1,0.3     l-0.6,0.3l-0.1,0l-0.1,0.1l0,0l0,0l0,0.1l0,0l0,0.1l0.1,0.1l0.2,0.2l0.5,0.3l0.1,0l0.1,0l0.3-0.2l0.1,0l0,0l0.1-0.1l0-0.1l0,0     l0.1-0.1l0.1-0.1l0.1,0l0.1,0l1.2,0.9l-0.1,0.2l0.1,0.7l0.2,0.1l1.5-0.2l0.2,0.1l0.2,0.1l0.1,0l0.5,0.1l0.2,0l0.1,0l0.8-0.1     l0.6-0.4l0.1-0.1l0,0l0.9,0l0,0l0.3,0.4l0.5,0.7l0.1,0.1l0,0l0.2,0l0.2,0l0.8,0.5l0.8,0.6l1,0.1l0.4,0.2l0-0.2l0.1-0.5l0.2-0.5     l0.6-0.6l0.5-0.2l0.3,0l0.1,0.1l0,0l0,0.1l0,0l0.1,0l1.3-0.2l0.6-0.4l0,0l0,0l0,0l0-0.1l0-0.1l0,0l0,0l-0.1,0l-0.1,0l0,0     l-0.1,0.1l-0.1,0.1l-0.2,0.2l0,0l-0.1,0l0-0.1l0,0l0-0.1l0-0.1l0-0.1l0.2-0.5l0,0l0,0l0.8-0.2l0.2,0l0,0l0.2,0l0.1,0l0.1,0     l0.1-0.1l0.7-0.5l0.3-0.2l0.1-0.1l0-0.1l0,0l0-0.2l0-0.1l-0.1-0.1l-0.1-0.1l0,0l0,0l0-0.1l0,0l0,0l0,0l0,0l0.1,0l0.1,0l0.1,0     l0.1,0.1l0.1,0.1l0,0.1l-0.3,0.5l-0.6,0.4l-1,0.8l0,0l0,0l0,0.1l0,0l0.1,0l0.3,0.4l-1,1l-0.1,0.1l0,0l0,0.1l0,0.1l0,0.1l0,0.1     l0,0.1l0.1,0.1l0.1,0.1l0.4,0.4l0.4-0.1l0-0.1l0.1-0.2l0.1-0.1l0,0l0.7-0.5l0,0l1.3-0.4l-0.7,0.8l-0.1,0.1l0,0.1l0,0.1l0,0.1     l0.2,0.3l0,0l0,0l0.1,0l0.1,0l0.1,0l0,0l0.1-0.1l0-0.1l0.1-0.1l0.1-0.1l0.1,0l0.1,0l0.1,0l0.1,0.1l0,0.1l0,0.1l0,0l0,0l-0.6,0.8     l-0.1,0.1l0,0l0,0.1l0,0l0.3,0.5l0.2,0.2l0.1,0L387.5,24.9z" />
<path class="st0" d="M340.1,19.5l-0.1-0.1l-0.1-0.1l-0.2,0l-0.2,0l-1.2-0.6l-0.1-0.1l-1.5-1.1l-0.1-0.1l0-0.1l0-0.1l-0.6-1.7     l-0.5-1.8l0-0.3l0-0.1l0.1-0.3l0.1-0.1l0.1-0.1l0.1,0l0,0l1.2,1.1l0.4,0.6l1.2,0.4l1-0.2l0.2-0.1l0.1-0.1l0.1,0l0.1-0.1l0.2-0.3     l0,0l0.6,0.2l0.4,0.2l0.5-0.4l0,0l0.5-0.4l0.1,0l0.1,0l0.1,0l0.1,0l0.1,0.1l0,0.1l0,0.2l0,0.2l0.1,0.2l0,0.1l0.4,0.7l0.1,0l0,0     l0,0l0-0.1l0-0.1l-0.1-0.2l-0.2-0.5l0.1-0.4l0-0.1l0.2-0.2l0.2-0.1l0.1,0l0,0l0.1,0l0.1,0l1.2,0.5l0.1,0l0.1,0.1L346,15l0,0.1     l0,0l0,0.3l0,0.3l0,0.1l0,0.1l0,0l0,0l0,0l-0.5,0.7l-1.6,1.6l0,0l-0.3,0l0,0l-0.1,0l-1,0.7l-0.7,0.6L341,20l-0.1,0l-0.1,0     L340.1,19.5z" />
<path class="st0" d="M335.1,18.6L335.1,18.6l-0.1,0l-0.1,0l-0.7,0.1l-0.1,0l-0.2,0.1l-0.2,0.1l-0.1,0l-0.5,0.1l-0.3,0l-0.5-0.1     l0,0l-0.1-0.2l0-0.1l-0.1-0.1l0-0.1l0.5-0.9l0,0l0.1,0l0,0l0.1,0.1l0.1,0.1l0.1,0.1l0,0l0.3,0l0,0l0.1-0.1l0,0l0.1-0.1l0.1-0.1     l0-0.1l-0.1-1.2l-0.2-0.4l0.7-1.3l0,0l0.8-0.2l0,0l0.5,1l0,0.1l0,0.1l0.3,1l0.5,1.2l0.6,0.2l0.2,0.1l0.2,0.2l0.1,0.1l0.1,0.1     l0.1,0.1l0,0l0,0.1l-0.1,0.1l-0.1,0.3l0,0l-0.4,0.1l-0.7,0.1L335.1,18.6z" />
<path class="st0" d="M363.2,16.1l0.6-0.4l0,0l0.1,0l0,0l0.2,0.4l0,0l0,0l0,0l-0.4,0l0,0l0,0l-0.1,0l-0.1,0l0,0l-0.2,0.1l-0.2,0.2     L363.2,16.1z" />
<path class="st0" d="M388.7,17.8l0-0.4l0.1-0.1l0.8-0.6l0.1,0l0.1,0l0,0l0,0l0.5-0.1l0.6-0.4l0.1-0.1l0.2-0.2l0.3-0.2l0,0     l-0.1,0.3l0,0.1l0,0l0,0l-0.9,0.7l-0.3,0.2l-0.7,0.4l-0.6,0.3L388.7,17.8L388.7,17.8z" />
<path class="st0" d="M363,17.6L363,17.6L363,17.6l-0.1-0.4l0,0l0.1-0.1l0.4-0.3l0.1,0l0.5,0l0.1,0l0,0.1l0,0.2l-0.9,0.5H363z" />
<path class="st0" d="M355.5,18.1L355.5,18.1L355.5,18.1l-0.4-0.4l0,0l0,0l0-0.1l0-0.1l0.1-0.1l0,0l0,0l0.1,0l0.1,0l0.9,0.1l0,0     l0,0l0,0.2l0,0.1l-0.1,0.2l0,0l0,0l-0.1,0L355.5,18.1L355.5,18.1z" />
<path class="st0" d="M386.8,18.1L386.8,18.1l-0.2-0.1l0,0l0-0.1l0,0l0,0l0.1-0.1l0,0l0,0l0.4-0.2l0,0l0.2,0l0,0l0,0l0,0l-0.3,0.4     l-0.1,0.1l-0.1,0L386.8,18.1z" />
<path class="st0" d="M391.8,18.8L391.8,18.8L391.8,18.8l0.1-0.2l0,0l0,0l0.7-0.3l0,0l0.1,0l0,0l-0.1,0.1l-0.3,0.2L391.8,18.8     L391.8,18.8z" />
<path class="st0" d="M391.3,19.8L391.3,19.8l0.1-0.6l0-0.1l0-0.2l0-0.1l0,0l0,0l0.1,0l0,0l0,0.1l0,0.1l-0.2,0.7l0,0.1l0,0     L391.3,19.8L391.3,19.8L391.3,19.8z" />
<path class="st0" d="M378.4,20.2L378.4,20.2V20l0-0.1l0,0l0,0l0,0l0.4,0l0.1,0l0,0l0,0l0,0.1l0,0.1L379,20L378.4,20.2L378.4,20.2     z" />
<path class="st0" d="M388.5,21.3l0-0.3l1.1-0.5l0.1,0l0.1,0l0.1,0l0,0l0,0l0,0.1l0,0.1l0,0l0,0l-0.2,0.2l0,0l0,0l-0.8,0.4     L388.5,21.3z" />
<path class="st0" d="M377.4,21.2l-0.2-0.3l0,0l0,0l0.1,0l0.2,0l0.2,0l0,0l0.2,0.1l0,0l0,0.1l0,0L377.4,21.2L377.4,21.2z" />
<path class="st0" d="M376.9,21.8l-0.1-0.1l0-0.1l-0.1-0.4l0.1-0.1l0.3,0.1l0,0l0,0l0,0l0,0l0,0.2l0,0l0,0l-0.1,0.1l-0.1,0.1     L376.9,21.8L376.9,21.8z" />
<path class="st0" d="M354,21.9L354,21.9L354,21.9l-0.2-0.1l-0.3-0.2l0,0l0,0l0,0l0,0l0.4-0.2l0.1,0l0,0l0,0l0.1,0.2l0,0l0,0.1     l0,0.1l0,0l-0.1,0.1L354,21.9L354,21.9z" />
<path class="st0" d="M394.5,21.9L394.5,21.9L394.5,21.9l-0.1-0.4l0-0.1l0,0l0.2-0.2l0,0.1l0,0.3l0,0.1l0,0l0,0L394.5,21.9     L394.5,21.9L394.5,21.9z" />
<path class="st0" d="M388.2,34.3l-0.3-1.1l0,0l0.1,0l0.1,0l0.1,0l0.1,0.1l0.1,0.1l0.3,0.5l-0.1,0.1l-0.2,0.1l0,0l0,0.1l0.1,0.4     L388.2,34.3z" />
<path class="st0" d="M395.4,40.6l0.1-0.2l0.4,0l0.1,0l0,0l-0.3,1.1l-0.1,0.1l-0.2,0.1l-0.1,0l-0.1,0l0,0l0,0l0,0l0,0l0,0l-1-0.1     l-0.1,0l-0.1,0l-0.2,0l-0.1,0l-0.6,0.1l-2.3-0.6l0.3-1.6l-0.1-0.7l0-0.1L391,38l0.2-0.4l0.1,0l0.9-0.2l0.4-0.1l0.3-0.2l0,0l0-0.1     l0-0.1l-0.3-0.4l0.8-0.6l0.3-0.1l0,0l0,0l0,0l0,0.1l0,0.1l-0.1,0.2l-0.1,0.1l-0.2,0.1l0,0l-0.1,0.1l0,0.1l0,0.1l0,0l0.3,0.8l0,0     l0.7,0.1l0.1,0l0.1,0l0.2-0.1l0.1-0.1l0,0l0-0.1l0,0l0-0.1l0-0.1l0,0l0,0l-0.1,0l0-0.1l0.2-0.2l0.3-0.1l0.1,0l0.1,0.1l0.1,0.1     l0,0l0,0l0,0.1l0.1,0.2l0,0l-0.4,0.4l-0.5,0.5l-0.1,0l0,0l-0.1,0.1l-0.1,0.1l-0.1,0.1l0,0l-0.6,1.2l-0.1,0.4l0,0.1l0.1,0.4l0,0     l0.1,0.1l0.1,0.1l0.1,0l0.4,0.1l0.8,0.1l0.1,0l0.1-0.1l0,0l0.1-0.1L395.4,40.6L395.4,40.6z" />
<path class="st0" d="M389,37.4L389,37.4L389,37.4l-0.2-0.4l0-0.1l0,0l-0.1,0l-0.1,0l0,0l-0.1,0.1l0,0.1l0,0.1l0,0.1l0.1,0.1l0,0     l0,0.1l0,0l0,0l-0.1,0l-0.3,0l0,0l-0.1-0.1l0-0.1l0.1-0.7l0-0.1l0,0l0.6-0.5l0.1-0.1l0.1,0l0.3,0.1l0,0l0.3,0.3l0,0l0,0.1l0,0.1     l-0.1,0.5l0,0l-0.3,0.5l-0.3,0.1l0,0l-0.1,0L389,37.4z" />
<path class="st0" d="M328,47.5l-0.1-0.2l-0.2-0.4l-0.1-0.3l-0.1-0.2l0-0.1l0-0.1l0.1,0l0.1,0l0.1,0.1l0.3,0.4l0.1,0.2l0.1,0.3     l0,0.1l0,0.5L328,47.5z" />
<path class="st0" d="M328.5,47L328.5,47l-0.2-0.3l0-0.1l0-0.1l0-0.1l0,0l0.1,0l0,0l0.2,0.2l0.1,0.1l0.1,0.1l0.1,0.1l0,0l0,0.1     l0,0l0,0L328.5,47L328.5,47z" />
<path class="st0" d="M384.5,46.7L384.5,46.7L384.5,46.7l0.1-0.1l0.1,0l0.1,0l0.1,0l0.1,0.1l0.1,0.1l0,0.2l0,0.1l0,0l0,0l-0.6,0     L384.5,46.7z" />
<path class="st0" d="M394.8,53.9l-0.1-0.2l0-0.1l0.1-0.4l0-0.1l0.2-0.2l0.1-0.1l0,0l0,0l0,0.6l0,0.2l-0.1,0.3l0,0L394.8,53.9     L394.8,53.9L394.8,53.9z" />
<path class="st0" d="M391.8,54.1l-0.2-0.1l0.2-0.8l0.5-0.3l0,0l0.2,0.1l0,0l0,0.2l-0.1,0.6l0,0.1l-0.1,0.2l-0.5,0.1L391.8,54.1     L391.8,54.1z" />
<path class="st0" d="M396.6,55.8l-0.3-0.3l-0.1-0.1l-0.5-0.6l-0.1-0.2l0-0.1l0,0l0.2-0.3l0.4-0.5l0.1-0.1l0.1,0l0,0l0.4,0.5     l0.2,0.4l0.2,0.7l0,0.2l0,0l-0.2,0.4l-0.1,0L396.6,55.8z" />
<path class="st0" d="M393.8,55.1l0-0.1l0-0.8l0-0.1l0,0l0.2,0l0.3,0l0.1,0l0.2,0.2l0,0l0,0.1l0,0.1l0,0.1l-0.2,0.3l-0.3,0.2     l-0.2,0.1L393.8,55.1L393.8,55.1z" />
<path class="st0" d="M393,55.2L393,55.2l-0.2-0.3l0-0.1l0-0.1l0-0.2l0.1-0.2l0,0l0.3,0l0.4,0.2l0,0l0,0l0,0l-0.3,0.5l-0.1,0.1     l0,0L393,55.2z" />
</g>
<g id="Australia:Australian_Capital_Territory_Territory">
<path class="st0" d="M505.9,239.8L505.9,239.8l-0.2-0.1l0,0l-0.1-0.1l-1.2-1.4l0,0l-0.2-0.5l0-1.3l0-0.2l0.3-1.3l0,0l0-0.1l0-0.1     l0.1-0.1l0.2-0.1l0.3-0.2l2-1.1l1,0.3l0,0.1l0,0.1l0,0l0.1,0.1l0.4,0.4l0.5,0.2l0.1,0l0.1,0l0.1,0l0.1,0l0.5,0.2l0,0l0,0     l-0.1,0.1l-0.1,0.1l-0.2,0.1l0,0l-0.1,0l-0.1,0l-0.2-0.1l-0.4-0.1l-0.1,0l-0.1,0l-0.5,0.2l0,0l-0.1,0.1l-0.1,0.1l-0.3,0.4     l-0.1,0.1l-0.5,1.6l0,0.1l0,0.1l0,0.1l0.1,0.2l0.1,0.7l0,0.9l-0.1,0.2l0,0.1l-0.4,0.5l0,0l-0.1,0L505.9,239.8z" />
</g>
<g id="Australia:Western_Australia_State">
<path class="st0" d="M187,117.1l1.6-0.6l0.1-0.6l0-0.2l0-0.1l0.1-0.2l0.1-0.2l0.5-1.1l0.5-0.9l1-1.5l0,0l0-0.1l0-0.2l0-0.2l0-0.1     l0-0.1l0.1-0.1l0.1-0.1l0.4-0.2l0.4-0.1l0.9-0.5l0.8-0.5l0.1,0l0.1,0l0.1,0l0.2,0l0.3,0l0.1,0l0.1,0l0.2-0.1l1-0.5l0.8-0.4     l0.8-0.2l1-0.4l0.1-0.1l0.1-0.1l0.2-0.3l0.2-0.3l0.3-0.3l0.6-0.7l0.1-0.1l0.4-0.3l0.1,0l0.5-0.2l0.4-0.2l0.1,0l0.1,0l0.1-0.1     l0.1-0.1l0.1-0.3l0.2-0.4l0.1-0.2l0.3-0.3l0.1-0.1l0.1-0.1l0,0l0.2-0.1l0.3-0.1l0.2-0.1l1-0.4l0.1-0.1l0.2-0.1l0.1-0.1l0.1-0.1     l0.1-0.4l0.6-0.3l0.6-0.1l1.5-0.5l1-0.6l0.2-0.1l0.1-0.1l0.9-0.7l0.7,0l0,0.1l0,0.1l0,0l0.1,0.1l0.3,0.2l0.1,0l0.3,0.1l0.1,0     l0.2,0l0.1,0l0.2-0.1l0.1,0l0.1-0.1l0.1-0.1l0.1-0.1l0.3-0.2l0.4-0.2l0.1,0l0.2,0l0.8,0.2l0,0.1l0.1,0.1l0.1,0.2l0.1,0.1l0.1,0     l0.5,0.2l0.1,0l0.1,0l0.2,0l0.1,0l0.2,0l0.1,0l0.3,0l0.2,0l0.1,0l0.6-0.1l1.8-0.4l0,0l0.5-0.2l0.8-0.3l0.1,0l0.1-0.1l0.6-0.5     l0.1-0.1l0.1-0.1l0-0.1l0.6-0.5l0.6-0.5l0.6-0.4l0.1-0.1l0.2-0.1l0.1,0l0,0l0,0l0,0.1l0.1,0.1l0.4,0l1.5-0.2l1.4-0.2l0.9,0l0.1,0     l0.1,0l0.1,0l1.2-0.4l0.2-0.1l0,0l1.1-1.4l0.1-0.1l0.1-0.2l0.1-0.4l0-0.1l0,0l0,0l0,0l0.9-0.6l0,0l0.8-0.1l0.2,0l1.6,0.4l0.6,0.2     l1,0.4l0.1,0l0.2,0l0.1,0l0.2,0l0.8-0.4l0.3-0.2l0.6-0.2l2.2-0.4l1.2-0.1l0.1,0l0.3,0l0.3,0l0.1,0l0.8-0.2l0.1,0l2-0.8l2.9-1.2     l0.3-0.1l0.7-0.3l0.1-0.1l0.2-0.1l0.4-0.3l0.4-0.3l0.1-0.1l0.7-0.5l0.2-0.1l0.1-0.1l0.3-0.4l0.4-0.4l0.1-0.1l1.4-1.9l0.1-0.2     l0.5-0.9l0.8-1.6l1.2-1.4l0-0.1l0,0l0-0.1l0,0l0,0l-0.1-0.1l0-0.1l0,0l0,0l0.1-0.4l0.3-0.7l0.1-0.2l0,0l0,0l0.1,0l0.1,0l0,0     l0.1,0.1l0.1,0l0.3,0l0.1,0l0.4-0.2l0.5-0.3l0.1-0.1l0.1-0.1l0.1-0.1l0.1-0.2l0.2-0.3l0.2,0l0.1-0.1l0.1-0.1l0.2-0.1l1.7-1.2     l0.1-0.1l0.2-0.2l0.1-0.2l0-0.1l0.1-0.2l0-0.2l0-0.1l-0.1-0.3l0-0.1l0-0.1l-0.1-0.1l-0.1,0l-0.7-0.2l-0.4-0.5l0-0.1l-0.1-1.6     l0-0.1l0-0.1l-0.1-0.1l-0.1-0.1l0-0.1l-0.2-0.6l0-0.1l0-0.2l0-0.3l0-1.5l0.3-1.1l0.7-1.2l0.1-0.1l0.2-0.2l0.1-0.1l0.7-0.6     l0.2-0.1l0.2-0.1l0.4-0.2l0.1,0l0,0l0.7,0l0.5,0l-0.1-0.1l-0.4-0.7l-0.1-0.1l0-0.1l0,0l0.3-0.4l0.1-0.1l0.1-0.1l0.1,0l0.1,0l0,0     l0.1,0.1l0,0l0,0l0.1,0l0.1,0l0.3-0.1l0.7-0.2l0.1-0.3l-0.2-0.3l0,0l0-0.1l0.2-0.8l0-0.1l0.1-0.1l0.1-0.1l0,0l0.1,0l0.1,0l0.1,0     l0.1-0.1l0.1-0.1l0.4-0.4l0-0.1l0-0.1l0-0.2l0-0.1l0.1-0.1l0,0l0.1-0.2l0,0l0.6-0.2l0.6,0.5l0,0l0,0.1l0,0.1l-0.1,0.1l0,0l0,0     l-0.1,0l0,0l0,0l-0.1,0l-0.1,0l-0.1,0l0,0l0,0l0,0l-0.3,0.9l0,0l0.2,0.3l0.1,0.1l0.4,0.4l0.4,0.2l0.2,0.1l0.2,0.2l0.2,0.7     l0.8,1.5l0.9,1.7l0.6,1l0.6,0.9l0.4,0.6l0.5,0.8l0.2,0.2l0,0l0.2,0.7l0,0l0,0l0-0.1l0.1-0.6l0,0l-0.2-0.3l-0.1-0.2l0-0.1l0-0.7     l0.5-1.4l0-0.1l-0.4-1.1l0-0.2l0-0.2l0-0.1l0-0.1l0.1-0.2l0.1-0.1l0.5,0l0.1,0l0,0l0.6,0.6l0.3,0.4l0.1,0.2l0.1,0.1l0.6,0.5     l0.1,0.1l0.1,0.1l0.1,0l0.1,0l0.1,0l0.1,0l0,0l0-0.1l0,0l-0.2-0.1l-0.1,0l0,0l-0.3-0.4l-0.1-0.1l0,0l0-0.1l-0.2-0.8l-0.1-0.3     l0-0.2l0.4-0.4l0.5-0.5l-0.3-0.2l-0.7,0.2l-0.1,0l-0.1-0.1l-0.1-0.1l-0.3-0.7l-1-1.1l0.1-1l-0.6,0l0,0l-0.3,0l-0.1,0l-0.1,0     l-0.3-0.2l-0.3-0.3l0,0l0-0.1l0,0l0.6,0l0.6,0.2l0.4,0.1l0.1,0l0.2,0l0.6-0.9l0.1-0.5l0-0.3l0,0l0,0l-0.2-0.1l-0.1,0l-0.1,0     l-0.6-0.1l0,0l-0.1-0.1l-0.3-0.3l0-0.7l0-0.2L273,59l0,0l0,0l0.3-0.1l0,0l1.1-0.2l0.1,0l0.6,0.4l0,0l0,0l0,0l0,0.1l-0.2,0.4     l-0.4,0.1l0,0l0,0l1,1l0.5,0.1l0-0.3l0-0.1l0.6-0.8l1.1,0.1l0.1,0l0.2,0.1l0.2,0.1l0.2,0.1l0.1,0.1l0.1,0.3l0.1,0.3l0.1,0.1l0,0     l0,0l0.1,0.1l0.1,0l0.1,0l0.8,0l0.1,0l0-0.1l0-0.1l0.2-0.3l0.1-0.1l0,0l0.1,0l0.2,0.1l0.6,0.3l0.9,0.1l0.1,0l0.7-0.1l0.5-0.1     l0.2,0l0.1,0l0.2,0l0.1,0l0.6,0.3l0.1,0l0.4-0.1l0.1,0l0,0l0,0l0,0l-0.1,0l-0.3,0l0,0l-0.1,0l-0.1,0l-0.1,0l-0.6-0.2l-0.4-0.2     l-0.1-0.1l-0.1-0.1l-0.1,0l-0.6-0.1l-0.1,0l-0.4,0l-0.1,0l-0.4,0.1l-0.1,0l-0.2,0.1l-0.5,0l-0.1,0l0,0l-0.1-0.2l-0.2-0.4     l-0.1-0.6l0.1-0.4l0,0l0.3-0.6l0.4-0.1l0.3,0.5l0.1,0.2l0.1,0l0.6-0.5l-0.1-0.8l0.1-0.6l0.1-0.3l0.5-0.5l0.5-0.4l0,0l0,0     l-0.3-0.1l-0.2-0.1l-0.1,0l-0.4,0.1l-0.1,0l-0.1,0.1l-0.3,0.4l-0.2,0.2l-0.1,0.2l-0.1,0.3l-0.4,0l-0.8-0.6l0,0l0-0.1l-0.2-1.1     l-0.1-0.6l0-0.1l0.7-1.6l0.1-0.1l0.1,0l0.2-0.1l0,0l0.1,0l0.3,0.1l0.1,0.1l0,0.1l0,0l0.3,0.2l0,0l0.2-0.1l0.5-0.3l0.2-0.2l-0.1,0     l-0.1-1l0-0.6l0-0.2l0,0l0,0l0.3,0l0.1,0l1.9,0.9l0.3,0.2l0,0L286,52l0.1,0.1l0,0.1l1.7,0.7l0-0.1l0,0l-0.1-0.1l-0.5-0.4     l-0.2-0.1l-0.2-0.1l-0.1-0.1l0,0l0-0.1l0-0.1l0-0.1l0.1-0.4l0.1-0.1l0.1-0.1l0.1-0.1l0.1,0l0-0.1l-0.2-0.1l-0.1-0.1l-0.7,0     L286,51l-0.2,0.1l0,0l-0.3,0.1l0,0l0,0l-0.1,0l-0.1-0.1l-0.1-0.4l0,0l0,0l0,0l0.1-0.1l0.3-0.4l0.3-0.2l0,0l0.1,0l0.1,0.1l0,0     l0.1,0.1l0,0l0.1,0l0,0l0.3-0.5l0,0l0,0l0,0l-0.1,0l-0.3,0l-0.7,0.4l0,0l-0.3,0.2l0,0l-0.1,0.1l0,0l0,0l-0.2,0l-0.3-0.6l0-0.1     l0-0.1l0.3-0.3l0.4-0.2l0.1,0l0.5,0.1l0.2-0.1l0.4-0.2l0.1-0.1l0-0.1l0,0l-0.1-0.2l0.6-0.4l0.6,1.4l0.1,0.1l0,0l0.1-0.4l0-0.1     l-0.1-0.3l0-0.4l0.5,0.3l0.3,0.2l0.2,0.1l0,0l0,0l0,0.2l0,0.1l0,0l0.1,0.1l0.1,0.1l0.1,0l0.1,0l0.7,0l0.1-0.1l0.1-0.1l0,0l0-0.1     l0-0.1l0,0l-0.1,0l-0.1,0l0,0l-0.1,0l-0.1,0l0,0l-0.2-0.1l0,0l0-0.1l0.3-0.2l-0.2-0.2l-0.7-0.5l-0.1,0l-0.9-0.4l0-0.1l0,0     l0.3-0.3l0,0l0.2-0.1l-0.4-0.4l-0.1-0.1l-0.6-0.8l0,0l0-0.1l0-0.1l1-1.3l0.2-0.2l0.7-0.5l0.5,0.2l1.4,0.1l0.1,0l0.1,0l0.2-0.1     l0.1-0.5l0-0.6l-0.2-1l0-0.1l0-0.4l0.1-0.2l0.1-0.2l0.1,0l0.1,0l0.9,0.4l0,0l0,0.1l-0.1,0.5l0,0.1l0,0l0,0l0,0l-0.6,2.5l0,0.1     l0,0.1l0,0l0,0l0.1,0l0,0l0,0l0.1-0.2l0.4-1.1l0-0.1l0.1-0.3l0-0.1l0-0.1l0-0.1l0,0l0,0l0,0l0.1,0l0.9,0.5l0.1,0.1l0,0.1l-0.1,0     l-0.1,0.9l0,0.1l0.2,0.3l0,0l0.5,0.3l0.1,0l0.1-0.3l0.6-0.6l0.4-0.3l0,0l0,0l0.2-1.5l0.7-1.4l0-0.1l0-0.5l-0.5-1.4l0,0l0,0     l-0.1-0.1l-0.1-0.1l-0.2-0.1l-0.1-0.1l0,0l0,0l0,0l0,0l0.4,0l0.7,0.1l0.6,0.3l0,0.6l0,0.1l-0.1,0.1l-0.1,0l-0.1,0l0,0l-0.2,0.1     l0,0l0,0l0.3,0.9l0,0l0,0l0.1,0.1l0.2,0l0.1,0l0.3,0.2l0.1,0.1l0,0l0,0.1l0.2-0.4l-0.2-0.5l0-0.1l0.1-0.4l0,0l0.2-0.3l0,0     l0.9-0.7l0.7-0.1l-0.1,0.4l-0.3,0.5l0,0l0,0.1l0,0.1l0,0l1,1.3l0.3,0.1l0.9-1l0,0l0.8-1.4l-0.2-1.2l-0.2-0.4l0,0l1-0.4l0.1,0     l0.8-0.2l0,0l0.5,0.4l0.5,0.5l0,0l0,0l0,0.1l0,0.1l-0.1,0.2l0,0l0,0.1l0.5,0.6l0.1,0.1l0,0l0.1,0l0.1,0l0,0l0.1-0.4l0-0.3l0.8,0     l1,0.3l0.6,0.2l0,0l0,0l0.2,0.3l0,0.1l0,0l0.6,0.8l1.2,0.8l0.1,0.1l0.6,0.8l0.3,0.3l0.2,0.3l0.9,1.3l0.7,0.9l0.1,0.1l0,0l0.1,0     l0.1,0l0,0l0.1-0.1l0,0l0.1-0.1l0.1,0l0.3,0.2l0.8,0.6l0.1,0.1l0.4,0.4l0.1,0.4l0.1,0.5L315,47l-0.5,1.4l-0.2,0.6l0,0.1l0,0.2     l0,0.1l0,0l0.1,0.5l0,0l0,0l0,0.1l-0.1,1.6l0,0.1l-0.1,0.2l0,0.1l-0.1,0.1l-0.2,0.2l-0.1,0.1l-0.1,0.1l-0.1,0.1l0,0l0.1,0l0.1,0     l0.2-0.1l0.2-0.1l0.1-0.1l0.1-0.1l0.1-0.1l0,0l0.1-0.1l0.1-0.2l0.1-0.5l0-0.5l0.1-0.2l0-0.1l-0.1-0.1l0,0l0.1-0.3l0,0l0,0l0,0     l0,0l0.4,0.2l0.3,0.3l0.1,0.1l0.3,0.2l0,0.1l0,0.2l0,0.1l0,0.1l0.1,0.4l0,0l0,0l0-0.2l0-0.4l0-0.3l0-0.2l0-0.1l0-0.1l-0.3-0.4     l0,0l0,0l-0.1-0.1l-0.1-0.1l0-0.1l0-0.1l-0.3-1l0-0.1l0-0.1l0.1-0.2l0.1-0.2l0.1-0.1l0.7-0.8l0,0l0.1-0.1l0,0l0.1,0l0,0l0,0.1     l0,0.1l0,0.1l0,0.2l0.1,0.5l0,0.1l0,0.1l0,0.1l0,0l0.1,0l0.7,0l0.1,0l0,0l0,0l0.1-0.3l0,0l0-0.1l-0.2-0.2l-0.1-0.1l0-0.1     l-0.1-0.2l-0.1-0.2l0-0.1l-0.2-0.8l0-0.1l0.1-0.1l0.1,0l1-0.3l0.2,0l0.1,0l1.1,0.2l2.2,0.5l0.9,0.3l0,0.3l0,2.1l0,2.4l0,4.9     l0,12.2l0,0.6l0,22.3l0,5.2l0,2.2l0,8l0,4.8l0,0.4l0,5.2l0,1.4l0,3.2l0,2.8l0,2.7l0,8.5l0,3l0,2.4l0,1.3l0,6.2l0.1,0l-0.1,0.1     l0,7.6l0,2.3l0,14.7l0,3.7l0,5.1l0,8.6l0,4l0,3l0,1.9l0,1.2l-0.1,0l-0.2,0l-0.2,0l-1.5,0.6l-0.2,0.1l-0.6,0.3l-1.4,0.7l-3.4,1.3     l-1.5,0.5l-0.2,0l-0.5,0.1l-1.1,0.2l-0.8,0.1l-1,0.3l-0.8,0.3l-1.9,0.6l-0.6,0.1l-0.9,0.1l-0.4,0l-0.9,0l-0.3,0l-2.8,0.1l-0.4,0     l-0.6,0l-1.1-0.1l-0.5-0.1l-0.6-0.2l-0.2-0.1l-0.2-0.1l-0.2,0l-0.2,0l-0.3-0.1l-0.2,0l-0.1,0l-0.1,0l-0.2,0l-0.1,0l-0.1,0.1     l-0.2,0.2l-0.1,0.1l-0.1,0l-0.2,0l-0.1,0l-0.3-0.1l-0.3-0.1l-0.1,0l-0.1,0l-0.1,0l-1.4,0.7l0,0l-1.7,1.1l-0.2,0.2l-0.1,0.1l0,0     l0,0l-0.1,0.1l-0.1,0.1l-0.1,0.1l-0.2,0.1l-0.1,0.1l-0.5,0.2l-0.1,0l-0.4,0.1l-0.2,0l-0.4,0.1l-0.3,0.1l-0.1,0l-0.5,0.2l-2.3,1.1     l0,0l-0.5,0.3l0,0l-0.1,0.1l-0.1,0.1l-0.1,0.1l-0.1,0.1l-0.1,0.1l-0.1,0.1l-1.1,0.6l-0.1,0l-0.3,0.1l-0.4,0.1l-0.8,0.1l-0.8,0.1     l-0.4,0l-0.5,0l-0.5,0.1L280,213l-0.2,0.1l-0.2,0.1l-0.8,0.5l-0.1,0.1l-0.2,0.2l-0.1,0.1l0,0l-0.3,0.4l-0.1,0.2l0,0.1l-0.8,2.1     l-0.3,1.3l0,0.1l0,0.1l-0.1,0.1l-0.1,0.1l-0.2,0.1l-0.5,0.3l-0.6,0.6l-0.2,0.2l-0.2,0.2l-0.1,0.2l0,0.1l0,0l0,0.1l0,0.1l-0.4,0.4     l-0.4,0.2l-1,0.5l-0.6,0l0,0l-0.1,0l-0.1,0l-0.1,0l-0.2,0l-0.3,0l-0.1,0l-0.1,0l-0.1,0.1l0,0l-0.3,0.3l-0.1,0.2l0,0l0,0l-0.1,0.1     l-0.3,0.2l-0.6,0.2l-0.3-0.6l-0.3-0.5l-0.1-0.1l-0.1-0.1l-0.1,0l-0.4-0.1l-0.1,0l-0.1,0l-0.9,0.3l-0.6,0.2l-0.1,0l-0.1,0l-0.1,0     l-0.8-0.1l-1.1,0l-0.1,0l-0.1,0l0,0l-0.1,0.1l0,0.1l-1.2,0.1l-0.1,0l-0.4-0.1l-0.1,0l-0.2,0l-0.4,0.1l-0.1,0l0,0l-0.2,0.2l0,0.1     l0,0.1l0,0.3l0,0.1l0,0l0,0l0,0l-0.1,0l-1.1,0l-0.2-0.1l-0.1,0l0,0l0-0.1l0.1-0.2l0,0l0.1,0l0,0l0-0.1l-0.2-0.4l-0.1-0.3l0-0.1     l-0.2-0.2l-0.1-0.1l-0.2-0.2l-0.1-0.1l-0.1,0l-0.1,0l-0.6,0.1l-0.2,0.1l-0.1,0.1l-0.1,0.1l0,0.1l-0.2,0.1l-0.2,0.1l-0.1,0     l-0.4,0.1l-0.1,0l-0.1,0l-0.9-0.3l-1.3-0.3l-0.1,0l-0.5,0l-0.8,0l-0.3,0l-0.1,0l-1,0.2l-1.5,0.2l-1.1,0.1l-0.3,0l-0.1,0l-0.1,0     l-0.1,0l-0.2,0.1l-0.2,0.1l-0.1,0.1l-0.1,0l-0.1,0l-0.6,0l-0.3,0l-1.4,0.2l-0.5,0.3l-0.4,0.2l-0.2,0l-0.1,0h-0.1l-0.1,0l-0.4-0.1     l-0.7-0.2l-0.3-0.1l-0.2,0l-1.8-0.1l-0.1,0l-0.2,0l-0.2,0l-1.5,0.4l-0.1,0l-0.1,0.1l-0.1,0.1l-0.1,0.1l-0.1,0.2l-0.1,0.1     l-0.1,0.1l-0.2,0.1l-0.1,0.1l-0.3,0.1l-0.3,0.1l-0.3,0.1l-0.4,0.4l-0.1,0.1l-0.7,1l0,0.1l0,0.1l-0.1,0.4l0,0.1l-1.3,1l-1.1,0.5     l-0.2-0.1l-0.7-0.2l-0.3-0.1l-1.3-0.1l-0.1,0l-0.2,0l-0.2,0.1l-1.1,0.6l-0.1,0.1l-0.2,0.1l-0.2,0.2l0,0l0.3,0.3l-0.1,0.1     l-0.1,0.1l-0.1,0.1l-0.2,0.1l-0.5,0.2l-0.1,0l-0.1,0l-0.2,0l-0.2,0l-0.2,0l-0.5,0.1l-0.4,0.1l0,0l-0.2,0.1l-0.1,0.1l-0.1,0.1     l-0.2,0.2l-0.2,0.2l-0.1,0.2l0,0.1l0,0.1l-1,0.5l-1.8,0.8l-2.2,0.3l-0.1,0l0,0l0,0l0,0.1l0,0.1l0,0l0.1,0.1l0.1,0.1l0.2,0.1     l0.1,0l0.5,0.1l0.1,0l0.1,0l0.3-0.1l0.1,0l0.1,0.1l0,0l0,0l-0.5,0.2l-0.1,0l-0.1,0l-0.5-0.1l-0.1,0l-0.1,0l-0.1-0.1l-0.3-0.2     l-0.2-0.1l-0.3-0.1l-0.1,0l-0.1,0l-0.4,0l-0.1,0l-0.1,0l-0.1,0l-0.1,0.1l-0.1,0.1l-0.1,0.1l-0.1,0.2l-0.1,0.4l-0.5-0.4l-0.2-0.1     l-1.6-0.6l-0.2-0.1l-0.1,0l-1.4-0.1l-2.1,0h-0.1l-0.1,0l-0.2,0.1L212,232l0,0l-0.1,0.1l0,0l-0.1,0l-0.1,0l-0.3-0.1l-0.1,0     L211,232l-0.8-0.2l-0.6,0.1l-0.5,0l-1.3-0.3l-0.1,0l-0.8-0.5l-0.5-0.3l-0.5-0.3l-0.2-0.1l-0.3-0.1l-0.4-0.1l-0.8-0.1l-1.1-0.2     l-0.2-0.5l-0.1-0.2l-0.3-0.4l-0.1-0.1l-0.9-0.8l-0.2-0.2l-0.1-0.1l-1.2-1L199,226l-0.1,0l-0.9-0.4l-0.1,0l-0.6-0.2l-0.1,0     l-0.6-0.1l-0.1,0l-0.3,0l-0.2,0l-0.1,0l-0.1,0l-0.1,0.1l0,0l-0.1,0.1l0,0.2l0,0l-0.2,0.1l-0.1,0l-0.4-0.4l-0.5-0.5l-0.1-0.1l0,0     l0-0.2l0-0.2l0-0.1l0-0.1l0-0.1l0-0.1l-0.3-1.4l-0.2-1.4l0-1.6l0-0.1l0.3-1.5l0-0.1l0.1,0l0.1,0l0.2,0.1l0.1,0.1l0.2,0.2l0.1,0.1     l0,0l0,0.1l0,0.1l0,0.1l0,0l0,0l0.1,0.1l0.4,0.2l0.5,0.2l0.1,0l0.4,0l0.2,0l0.2,0l0.1,0l0.4-0.1l0.3-0.1l0.3-0.1l0,0l2.1-2.7     l0.1,0l0.1,0l0.1-0.1l0.1-0.1l0-0.1l0-0.1l0-0.1l0-0.1l0-0.1l-0.4-2.4l-0.2-0.5l-0.2-0.5l-0.1-0.5l0-0.1l-0.2-1.1l0-0.1l0-0.1     l0.2-0.5l0,0l0,0l0.5-0.6l0,0l0.1-0.1l0.1,0l0,0l0,0.2l0,0.1l0,0l-0.1,0l0,0l-0.3,0.3l-0.1,0.1l-0.1,0.1l0,0.2l0,0.1l0.3,0.8l0,0     l0.1,0.3l0.1,0.1l0.1,0l0.1,0l0,0l0,0l0-0.1l0-0.1l0-0.4l0.2-0.7l0.3-0.7l-0.2-1.1l-0.1-1.2l0-0.5l0.1-0.1l0.2-0.6l-0.2-0.9     l0.1-1.4l0-0.2l0-0.2l0-0.1l0-0.2l0,0l-0.3-1.3l0-0.1l-0.1-0.2l-0.1-0.2l-0.4-0.6l-0.7-1l-1.1-1.7l-0.1-0.2l0-0.1l-0.4-0.8     l-0.2-0.6l-0.1-0.2l-0.5-1l-0.1-0.1l-0.6-0.8l-0.3-0.3l0,0l-0.1-0.1l-0.3-0.6l-0.8-1.7l-0.3-0.7l0-0.1l0-0.1l0-0.1l0-0.1l0-0.1     l-0.3-1.8l-0.3-1.2l0,0l-0.2-0.5l0-0.1l0,0l-0.1-0.1l0,0l0,0l0-2.9l0-0.2l0-0.5l0-0.3l0-0.1l0.1-0.5l0-0.1l0.1-0.2l0,0l0-0.2     l0-0.2l0-0.1l-0.4-1.3l0-0.1l0-0.1l-0.2-0.3l0-0.3l0-0.1l0-0.1l-0.1-0.4l0-0.1l-0.4-0.9l-0.1-0.1l-1-1.1l-0.3-0.2l-0.2-0.2l0,0     l-0.1-0.1l-0.1-0.1l-0.2-0.3l-0.1-0.1l-0.1-0.2l0-0.2l0-0.2l0-0.2l0,0l0-0.1l0-0.3l0-0.1l0-0.4l0-0.4l-0.1-0.1l-0.5-0.9l-0.1-0.2     l-0.1-0.2l-1.2-1.5l-0.5-0.8l0,0l0,0l-0.1,0l-0.2-0.1l-0.1,0l-0.1-0.1l-0.2-0.1l-0.2-0.2l-0.1-0.1l-0.1-0.1l-0.4-0.5l-0.1-0.1     l0-0.1l-0.3-1.1l-0.2-0.8l0-0.1l0-0.2l0-0.1l0.1-0.3l0.1-0.3l0-0.1l0.1-0.1l0-0.1l0-0.1l-0.1-0.4l-0.1-0.5l-0.3-0.9l-0.2-0.5     l-0.4-0.8l-0.8-1.5l-1.3-2.1l-0.1-0.2l-0.9-1.2l-0.9-1.1l-0.5-0.5l-0.2-0.2l-0.1-0.1l-0.1-0.1l-0.4-0.3l-1.5-1.4l0-0.1l-0.5-1.4     l0.3-0.4l0.1-0.2l0-0.1l0-0.1l0-0.1l0-0.4l-0.1-0.2l0-0.2l0-0.1l0-0.1l0-0.1l0,0l0.1,0l0.1,0.1l0,0.1l0.1,0.8l0,0.4l0,0.5     l0.3,0.5l0.2-0.8l0.1-0.6l1.4,1.5l0,0l0.2,0.4l0,0.1l0,0.5l0.1,1l0.2,0.6l0.7,0.8l0,0l0.2,0l0.1,0l0-0.2l0.6-0.4l0.3,0l0,0l0,0     l0.1,0l0,0l0.2-0.3l0.4-0.6l0.1-0.2l0-0.2l0-1.1l0-0.1l-0.2-0.3l0-0.1l-0.1-0.1l-0.3-0.3l-0.4-0.2l-0.8-0.5l-0.9-0.8l0-0.1     l-0.2-0.7l-0.3-1.1l-0.1-0.1l-0.4-0.5l-0.3-0.5l-0.1-0.1l-0.1-0.1l0-0.1l0-0.2l0-0.1l0-0.2l0.1-0.2l0-0.1l0.1-0.1l0.5-0.6     l0.3,0.2l0.3,0.6l0.5,0.7l0.1,0.1l0.1,0.1l0.5,0.4l0.3,0.2l0.1,0l0,0l0,0l0.3,0.7l0,0.1l-0.2,1l0,0l0,0l-0.2,0.1l-0.1,0.2     l0.1,0.6l0,0.2l0.2,0.6l0,0l0.3,0.1l0.1,0l0.1-0.1l0.2-0.2l0.1-0.1l0.1-0.1l0.2-0.3l0.4-0.7l0,0l0.1-0.2l0.2,0.9l0.2,0.8l0,0.5     l0,0.1l0.2,0.6l1,1.2l0.1,0l1.1-0.8l0,0l0,0l0.2-0.6l0-0.1l0-0.2l-0.1-0.1l-0.1-0.1l-0.1-0.1l0,0l-0.1-0.2l-0.1-0.3l0-0.1     l0.2-1.4l0.1-0.4l0.3,0.1l0.2-0.3l0-1l0-0.1l0,0l-1.1-1l-0.8-0.7l-0.1-0.1l-0.1-0.1l-0.7-1.2l-0.3-0.5l-0.1-0.1l-0.4-0.9     l-0.3-0.7l-0.2-0.6l-0.1-0.1l0,0l-0.1-0.1l-0.4-0.2l-0.3-0.1l-0.1,0l0,0l0-0.1l-0.4-0.8l0-0.1l-0.3-1.1l-0.1-0.3l0-0.2l0.1-0.1     l0-0.2l0-0.4l0-0.1l-0.1-0.1l-0.3-0.4l-0.2-0.3l-0.4-0.5l-0.2-0.2l-0.2-0.2l-0.1-0.1l-0.3-0.3l0,0l-0.2-0.5l-0.1-0.2l0-0.2     l-0.1-1.7l0-0.1l0,0l0,0l0.3-0.8l0.2-1.1l0.4-1.2l0.4-1.1l0.6-1.1l0,0l0.3-0.3l0,0l0.2-0.1l0.1,0l0,0l0.1-0.1l0.5-0.4l0,0     l0.1-0.1l0.2-0.4l0-0.3l0.1-0.9l0-0.2l0-0.1l-0.2-1.1l0.2-0.8l0.2-0.2l0.1-0.2l0-0.1l0-0.2l-0.1-0.9l-0.1-0.2l-0.3-0.8l-0.1-0.1     l-0.1-0.1l0-0.1l0-0.1l-0.1-0.1l-0.1-0.1l-0.2-0.2l-0.1-0.1l-0.3-0.5l-0.1-0.7l0.2-0.5l0.1,0l0.1-0.1l0.3-0.5l0.6-1.3l0.2-0.5     l0.2-0.4l0.2-0.7l0.3-0.9l0-0.1l0.3-0.7l0.6-0.9l0.1-0.2l0.1-0.1l0.1-0.1l0.5-0.3l0.1,0l0.5-0.2l0.1,0l0.1,0.1l0,0l0,0.1l0,0.1     l-0.1,0.1l-0.1,0.1l-0.1,0.2l-0.1,0.1l-0.1,0.2l-0.5,2.3l0,0.2l0,0.1l0,0.1l0.3,0.7l0.2,0.3l-0.2,0.8l0,0l0,0l0,0.1l-0.1,0.7     l0,0.1l0.1,0.2l0.1,0.1l0.1,0.1l0.1,0L187,117.1z" />
<path class="st0" d="M300.7,38.1l-0.2,0l-0.1,0l-0.1,0l-0.1,0l-0.2,0.1l-0.1,0l0,0l-0.1-0.2l0-0.1l0,0l0,0l0.3,0l0.1,0l0.5,0.2     l0,0l0,0l-0.1,0.1L300.7,38.1z" />
<path class="st0" d="M287.4,44.9l-0.4-0.2l0,0l0-0.1l0-0.1L287,44l0.2-0.5l0,0l0.3-0.4l0,0l0,0l0.1,0l0.1,0.1l0.3,0.3l0,0l0,0.1     l-0.2,1l-0.3,0.1l0,0l0,0L287.4,44.9L287.4,44.9z" />
<path class="st0" d="M317.5,48.4l-0.5-0.6l-0.1-0.6l0-0.2l0-0.1l0,0l0.1,0l0,0l0.1,0.1l0.1,0.1l0.1,0.1l0.1,0.1l0.3,0.6l0.1,0.1     l0,0.3l0,0L317.5,48.4z" />
<path class="st0" d="M285.5,48.5l-0.1,0l0,0l-0.5-0.3l0,0l0-0.1l0.1-0.1l0.1-0.1l0,0l0.4-0.1l0,0l0,0l0.2,0.6l0,0.1l0,0     L285.5,48.5L285.5,48.5z" />
<path class="st0" d="M314.8,49.5L314.8,49.5L314.8,49.5l-0.1-0.1l0-0.1l0-0.7l0,0l0,0l0.1,0l0.1,0l0.1,0.1l0.4,0.6l0,0.1l0,0.4     l0,0.1l0,0l0,0l-0.1,0L314.8,49.5z" />
<path class="st0" d="M284.3,50.8L284.3,50.8l0-0.2l0-0.1l0,0l0,0l0.1,0l0.2,0l0.1,0l0,0l0,0l0,0.1l0,0l-0.1,0.1l-0.1,0.1l0,0     L284.3,50.8L284.3,50.8z" />
<path class="st0" d="M280.4,51.1l-0.2-0.1l-0.2-0.1l0,0l0-0.1l0,0l0,0l0.8-0.4l0,0l0.1,0l0,0l0,0l0,0.1l0,0.1l-0.1,0.3l-0.1,0.1     l0,0L280.4,51.1L280.4,51.1z" />
<path class="st0" d="M281.7,52l-0.5-0.4l0,0l0.1-0.4l0,0l0.2-0.3l0,0l0,0l0.4-0.2l0.2,0l0.8,1.3l0,0l-0.1,0.1l-0.1,0l-0.9,0.3     L281.7,52z" />
<path class="st0" d="M197.7,102L197.7,102l-0.2-0.1l-0.1,0l0,0l-0.1,0.2l0,0l-0.1,0l0,0l0,0l0-0.1l0-0.2l0-0.1l0,0l0.1-0.1     l0.3-0.3l0.6-0.7l0.1-0.1l0.2-0.1l0,0l0,0l0.1,0l0,0l0,0l0.1,0.6l0,0.2l0,0.1l0,0.1l-0.5,0.7l-0.2,0.2l-0.1,0L197.7,102z" />
<path class="st0" d="M177,139.6l0.1-0.9l0-0.1l0.2-0.9l0,0l0.1,0.1l0,0l0,0.2l0,0.1l-0.2,1.2l-0.2,0.6L177,139.6z" />
<path class="st0" d="M176.6,142.4L176.6,142.4l-0.1-0.2l0-0.1l0-0.1l0.3-1l0.2-0.2l-0.3,1.2L176.6,142.4L176.6,142.4z" />
<path class="st0" d="M177.6,150.2l-1.4-1.9l-0.7-1.2l0,0l-0.4-1.4l0-0.4l0-0.2l0.1-0.2l0-0.1l0,0l0.2-0.3l0.1-0.1l0.1,0l0.4,0.1     l0.1,0l0,0l0,0l-0.1,0.1l-0.1,0.1l0,0l0,0.1l0,0.2l0,0.1l0.4,0.8l0.5,1.2l0.2,0.6l0.1,0.2l0.5,0.9l0.2,0.2l0.1,0.1l0.1,0.1     l0.1,0.2l0.2,0.5l0,0.1l-0.2,0.3l0,0L177.6,150.2z" />
<path class="st0" d="M200.4,206.3l-0.1-0.5l0,0l0-0.1l0-0.1l0,0l0.1,0l0.2,0.6l0,0.1l-0.1,0.1L200.4,206.3z" />
<path class="st0" d="M269.4,223.6l0-0.2l0,0l0.3-0.1l0.1,0l0,0.1l0,0.1l0,0.1l0,0L269.4,223.6L269.4,223.6z" />
<path class="st0" d="M260.8,223.9L260.8,223.9L260.8,223.9l-0.1-0.3l0-0.1l0,0l0.1,0l0.1,0.1l0,0l0,0.1l-0.1,0.2L260.8,223.9     L260.8,223.9z" />
<path class="st0" d="M226.1,231.1L226.1,231.1l-0.2-0.1l-0.1-0.1l0,0l0-0.1l0,0l0.1,0l0.1,0l0.2,0.1l0.1,0l0,0l0,0l0,0.1l0,0l0,0     L226.1,231.1L226.1,231.1z" />
</g>
<g id="Australia:New_South_Wales_State">
<path class="st0" d="M536,209.9l-0.9,0.5l-0.1,0.4l0.2,0.4l-1.4,0.4l-0.4,0.1l0,0l-1,0.4l-0.2,0.1l-0.1,0.1l-0.1,0.1l0,0     l-1.3,1.6l-0.1,0.1l-0.3,0.8l-0.3,0.6l-0.2,0.3l-0.2,0.2l0-0.1l0,0l0,0l-0.1,0l-0.1,0l-0.2,0.1l-0.4,0.3l0,0l-0.1,0.3l0,0.1l0,0     l0,0l0,0l0.1,0l0.1,0l0,0.2l0,0l0,0l0,0l0,0l0,0l-0.3,0.9l0,0l-1,1.2l-0.4,2.5l-0.2,0.7l-0.2,0.2l0,0l0,0l0,0l0,0l0,0l-0.5,0     l-0.7,0.1l0,0l0,0l0,0.1l0,0l0.4,0.1l0.1,0l0,0l0-0.1l0,0l0.1,0l0.2,0.3l0,0l0.1,0l0,0l0,0l0,0l0,0l-0.7,0.9l-0.1,0.1l-0.2,0.1     l-0.1,0.1l-0.1,0.1l-0.2,0.2l-0.1,0.1l-0.1,0.1l-0.4,0.5l-0.2,0.2l-0.2,0.3l-0.9,2.1l0.3,0.2l0.1,0.1l-0.1,0.6l-0.3,1l0,0.1l0,0     l-0.1,0l-0.2,0l-0.1,0l-0.1,0l-0.1,0.1l-0.1,0.1l-0.1,0.1l-0.1,0.1l-0.1,0.3l0,0.1l0.3,0.7l0.5,0.5l0.1,0l0,0l0,0l0,0.1l-0.1,0.5     l0,0l0,0l-0.2,0.1l0,0l-0.1,0l-0.3-0.2l0,0l0-0.1l0,0l0,0l0-0.1l0,0l-0.1-0.3l0,0l0,0l-0.1,0l-0.1,0l-0.1,0l-0.1,0l-0.4,0.2l0,0     l0,0l0,0l0,0l0,0.1l0,0.2l0.2,0.5l-0.5,0.5l-0.3,0.1l-0.4,0.1l-0.1,0.1l0,0l0,0l-0.1,0.1l-0.5,0.7l0,0.1l0,0.3l0,0l-0.7,1.6     l-0.5,0.6l-0.7,1.3l-1,1.9l-0.2,1.6l0,1.2l0,0.1l0,0.1l0,0.5l0,0.1l0,0.1l-0.1,0.1l-0.2,0.1l-0.1,0.1l-0.1,0.2l0,0.1l-0.1,0.3     l-0.1,0.6l0,0.1l-0.3,1.1l-0.4,1.1l-0.1,0.1l-0.1,0.2l-0.3,0.6l-0.3,0.6l0,1.3l0.3,0.4l0.1,0l0.1,0l0.5,0.4l0,0.1l0.1,0.6l0,0.3     l-0.2-0.1l-0.1,0l-0.3,0.2l-0.1,0.1l0,0l0,0l0.1,0.9l0,0.2l0,0.2l0,0.1l0.2,0.3l0,0.1l0,0.2l0,0.1l0,0.1l-0.1,0l-2.1-0.8l-2-0.8     l-2.4-1l-1.6-0.6l-2.1-0.9l-2.5-1l-1.1-0.4l-0.8-0.4l-0.5-0.2l-1-0.4l-0.1,0l-0.3,0l-0.1,0l-0.4-0.1l0.3-0.5l0.1-0.1l0.2-0.2     l0.2-0.2l0.1-0.1l0.1-0.2l0-0.2l0-0.1l0-0.1l0,0l-0.7-1.3l-0.1-0.1l0,0l-0.1-0.1l-0.1-0.1l-0.1-0.1l-0.1-0.1l-0.1-0.1l0-0.1     l-0.2-1.5l-0.2-1.5l-0.1-0.1l-0.8-0.4l-0.2-0.1l-1.5-0.5l-0.1,0l-0.1,0l-0.1,0l-0.5,0.2l-1.1-0.1l-0.1-0.1l0,0l-0.1,0l-0.1,0     l-0.7,0.1l-0.1,0l-0.1,0.1l-0.3,0.4l0,0.1l-0.4,0.4l-0.8,0.1l-1.4,0.4l-0.1,0l-0.1,0l-1.2-0.1l-0.4-0.1l-1.6-0.4l-0.3-0.2     l-0.5-0.4l-0.1,0l-0.8-0.1h-0.1l-0.5,0l-0.2,0l-0.2,0.2l-0.1,0.1l-0.9,0.3l-1.9-0.1l-2.6-0.4l-0.6-0.2l-0.1-0.1l-0.4-0.3     l-0.1-0.1l-0.1-0.1l-0.4-0.3l-0.6-0.4l-0.1-0.1l-0.1,0l-0.1,0l-0.1,0l-0.1,0l-0.5,0.1l-0.2,0l-0.2,0.1l-0.2,0.2l-0.2,0.1l-0.1,0     l-0.6,0l-0.2,0l-0.1,0l-0.1-0.1l-0.1-0.1l-0.1,0l-1.1,0l-0.2,0l-0.9,0.2l-0.1,0l0,0l-0.1,0.1l-0.1,0.1l0,0.1l-0.3,0.9l0,0.1     l0,0.1l0,0l0.1,0.7l-1.3,0.3l-0.3,0.1l-0.3-0.1l-0.1,0l-1.1-0.5l0,0l-0.2-0.2l-1.7-1.7l-0.1-0.2l-0.1-0.1l-0.1-0.2l-0.1-0.2     l-0.1-0.2l-0.1-0.1l-0.1-0.1l-0.1,0l-0.3,0l-0.1-0.1l-0.8-0.6l-0.1-0.1l-0.3-0.3l-0.2-0.2l-0.1-0.1l-0.2-0.2l-0.2-0.1l-0.2-0.1     l-1.2-0.5l-1.4-0.8l-0.1-0.1l-0.5-0.2l-0.1,0l-0.1,0l-0.2,0.1l-0.1,0l-0.2-0.1l-0.3-0.2l-0.1-0.1l-0.1-0.1l-0.1-0.1l0,0l0-0.1     l0-0.1l0,0l0.1-0.1l0.1-0.1l0-0.1l0-0.1l0,0l-0.3-0.4l0,0l-0.1,0l-0.4-0.1l-0.3,0l-0.1,0l-0.5-0.2l-0.1-0.1l-0.1-0.1l-0.3-0.6     l-0.1-0.1l0-0.1l-0.1-0.2l-0.1-0.7l0-0.1l0-0.6l0-0.1l0,0l0,0l0-0.1l0-0.1l0-0.5l0-0.1l-0.1-0.1l0,0l-0.7-0.3l-0.1,0l-1.2-0.5     l-0.1,0l-0.1,0l-0.1,0l-0.1,0l-0.1,0l-0.4,0l-0.5,0l-1.1-0.4l-0.1-0.2l0,0l-0.1-0.1l-0.4-0.3l-0.1,0l-0.1,0l-0.4,0.1l-0.1,0.1     l-0.1,0.1l0,0.1l-0.2,0.6l-0.1,0.5l-0.3,0.4l0,0l-0.1,0l-0.1,0l-0.6-0.1l-0.2-0.1l-0.1-0.1l-0.1-0.1l-0.1-0.1l0-0.2l0-0.1l-0.5-1     l0-0.1l-0.1-0.1l-0.1-0.1l-0.3-0.2l-0.2-0.1l-0.1-0.1l0,0l0,0l0-1l0-0.2l-1.2-1.8l-0.1-0.1l-0.7-0.4l0,0l-1-0.4l-0.1,0l-0.1,0     l-0.1,0l0,0l-0.2,0.1l0,0l-0.1,0l-0.7,0.1l-0.8-0.1l-0.3-0.1l-0.2,0l-0.1,0l-0.5,0.2l-0.2,0.1l-0.1,0l-0.3,0.3l-0.1,0.2l0,0     l-0.1,0.1l-0.3,0.2l-0.1,0l-0.1,0l-0.1-0.1l-0.1-0.1l-1-0.5l-0.1,0l-1.5-0.6l-0.9-0.1l-0.3,0l-0.3,0l-0.2,0l-0.2,0l-0.1,0     l-0.1-0.1l-0.3-0.2l0-0.2l0-1l0-18.8l0-12.1l0-0.3l0-5.9l0-7l0-0.9h0.1l1,0l1.5,0l5.5,0l3.4,0l3.4,0l4.8,0l1.2,0l3.7,0l0.4,0     l13.4,0l3,0l1,0l1.4,0l2.2,0l4,0l7.7,0l0.4,0l11.7,0l0.6,0l2.6,0l0.6-0.3l0,0l0.1-0.1l0.1-0.1l0.1-0.1l0.8-0.9l0.9-0.7l0.6-0.4     l1.3-1.1l0.1-0.1l0.1,0l0.4-0.1l0.2-0.1l0.3,0l0.2,0l0.1,0.1l0.1,0.1l0,0.2l0,0l0.1,0l0.7,0.1l1.7-0.2l0.9,0l0.1,0l0.2,0l0.7-0.2     l0.1,0l0.1-0.1l0.1-0.1l0.1-0.1l0.2,0l1.1-0.1l0.1,0l0.1,0l0.1,0.1l0.5,0.4l0.1,0.1l0.1,0.1l0.1,0.1l0.5,0.3l0.1,0l0.2,0l1.3,0     l0.1,0l0.5-0.1l0.3-0.1l0.2-0.1l0.1,0l0.1,0l0.1,0l0.1,0l2.2,0.9l0,0l0,0l1.6,1.3l0.6,0.4l0,0l0.1,0.6l0,0.1l0,0.1l0.1,0.6     l0.3,0.6l0.1,0.1l0.1,0.1l0,0l0.1,0l0.1,0l0.5-0.1l0.4-0.4l0.1-0.1l0.4-0.6l0-0.1l0.1-0.2l0.1-0.1l0.1-0.2l0.1-0.2l0.1-0.1     l1.5-0.6l0,0l0.1,0.3l0.1,0.2l0.1,0.1l0.1,0l0.4,0.2l0.1,0l1.6-0.7l0.1-0.1l0,0l0-0.1l0.2-1.4l-0.4-0.8l-0.1-0.1l-0.4-0.6l0-0.1     l0-0.1l0-0.1l0,0l0.1-0.1l0.8-0.5l1-0.4l0,0l0.9-0.3l0.8-0.2l0.1,0l0.1,0l0.2-0.1l0.1-0.1l0,0l0.1-0.3l0,0l0.5-0.4l0.1,0l0.1,0     l0.1,0l0.1,0l0.1,0l0,0l0.1,0.1l0,0l0.5,0.5l1.5,0.3l0.1,0l0.3,0l0.1,0l0.1,0l1.2-0.1l1.4,0.1l0.1-0.1l0.1-0.1l0,0l0.2-0.3     l0.2-0.3l0.1-0.1l0.1-0.1l0.8-0.1l0.1,0l0.2,0l1-0.3l0.2-0.1l0.2-0.2l0.3-0.2l0.1,0.2l0,0l0,0l0.1,0l0.1,0l0.1,0l0.1,0l0,0     l0.1,0.2l0,0.1l0.1,0.5l0,0.1l-0.1,0.7l0,0.1l0,0.3l0,0.2l-0.1,0.2l-0.1,0.2l0,0.2l0,0.4l0.1,0.4l0,0.1l0,0.1l0,0.1l0.1,0.1     l0.1,0.1l0.1,0.1l0.1,0.1l0,0.1l-0.2,1.8l0,0.1l0,0.1l0,0l-0.2,0.2l-0.1,0.1l-0.1,0.1l-0.3,0.2l-0.1,0.1l-0.2,0.3l-0.1,0.1     l-0.1,0.1l-0.2,0.3l-0.1,0.1l-0.1,0.2l-0.7,1.8l-0.1,0.2l-0.1,0.1l0,0.1l0,0.2l0,0.1l0,0.1l0,0l0.1,0.1l0,0l0,0l0.1,0.1l0,0     l0,0.1l-0.2,1.2l-0.5,2.3l-0.4,1.6l-0.4,1.5l-0.3,0.8l-0.3,0.5l-1,2.3l0,0.1l-0.1,0.5l0,0.4l-0.1,1l0,0.5l0,0.1l0,0.3l0,0.1     l0.1,0.4l0,0.1l0,0l0.2,0l0.2,0l0.1,0.6l-0.2,0.8l-0.7,1.9l-0.2,1.1l-0.6,1.6l-0.2,0.6l-0.1,0.5l-0.2,0.4l-0.6,1l-0.7,0.7     l-0.2,0.2l-0.1,0.1l-0.2,0.2l-0.3,0.3l-0.3,0.4l-0.4,0.8l0,0.1l0,0l0.3,1.2l-0.1,1.3l-1.2,0.9l-0.2,0.1l-0.2,0.2l-0.3,0.2     l-0.4,0.4L536,209.9z" />
<path class="st0" d="M506.8,240.1L506.8,240.1l0.4-0.5l0-0.1l0.1-0.2l0-0.9l-0.1-0.7l-0.1-0.2l0-0.1l0-0.1l0-0.1l0.5-1.6l0.1-0.1     l0.3-0.4l0.1-0.1l0.1-0.1l0,0l0.5-0.2l0.1,0l0.1,0l0.4,0.1l0.2,0.1l0.1,0l0.1,0l0,0l0.2-0.1l0.1-0.1l0.1-0.1l0,0l0,0l-0.5-0.2     l-0.1,0l-0.1,0l-0.1,0l-0.1,0l-0.5-0.2l-0.4-0.4l-0.1-0.1l0,0l0-0.1l0-0.1l-1-0.3l-2,1.1l-0.3,0.2l-0.2,0.1l-0.1,0.1l0,0.1l0,0.1     l0,0l-0.3,1.3l0,0.2l0,1.3l0.2,0.5l0,0l1.2,1.4l0.1,0.1l0,0l0.1,0.1l0.1,0L506.8,240.1L506.8,240.1z" />
</g>
</g>
</g>
<g id="Layer_2">
<circle class="st1" cx="223.1" cy="122.9" r="2" />
<circle class="st1" cx="255.1" cy="156.9" r="2" />
<circle class="st1" cx="243.1" cy="162.9" r="2" />
<circle class="st1" cx="248.1" cy="128.9" r="2" />
<circle class="st1" cx="253.1" cy="138.9" r="2" />
<circle class="st1" cx="248.1" cy="141.9" r="2" />
<circle class="st1" cx="240.1" cy="134.9" r="2" />
<circle class="st1" cx="241.1" cy="121.9" r="2" />
<circle class="st1" cx="258.1" cy="118.9" r="2" />
<circle class="st1" cx="263.1" cy="132.9" r="2" />
<circle class="st1" cx="275.1" cy="154.9" r="2" />
<circle class="st1" cx="287.1" cy="179.9" r="2" />
<circle class="st1" cx="233.1" cy="205.9" r="2" />
<circle class="st1" cx="205.1" cy="175.9" r="2" />
<circle class="st1" cx="207.1" cy="198.9" r="2" />
<circle class="st1" cx="228.1" cy="177.9" r="2" />
<circle class="st1" cx="195.1" cy="140.9" r="2" />
<circle class="st1" cx="197.1" cy="151.9" r="2" />
<circle class="st1" cx="204.1" cy="142.9" r="2" />
<circle class="st1" cx="196.1" cy="127.9" r="2" />
<circle class="st1" cx="277.1" cy="128.9" r="2" />
<circle class="st1" cx="297.1" cy="159.9" r="2" />
<circle class="st1" cx="307.1" cy="108.9" r="2" />
<circle class="st1" cx="297.1" cy="93.9" r="2" />
<circle class="st1" cx="301.1" cy="61.9" r="2" />
<circle class="st1" cx="330.1" cy="105.9" r="2" />
<circle class="st1" cx="255.1" cy="192.9" r="2" />
<circle class="st1" cx="336.1" cy="161.9" r="2" />
<circle class="st1" cx="369.1" cy="162.9" r="2" />
<circle class="st1" cx="361.1" cy="121.9" r="2" />
<circle class="st1" cx="361.1" cy="84.9" r="2" />
<circle class="st1" cx="355.1" cy="91.9" r="2" />
<circle class="st1" cx="347.1" cy="73.9" r="2" />
<circle class="st1" cx="376.1" cy="79.9" r="2" />
<circle class="st1" cx="371.1" cy="127.9" r="2" />
<circle class="st1" cx="385.1" cy="167.9" r="2" />
<circle class="st1" cx="374.1" cy="190.9" r="2" />
<circle class="st1" cx="428.1" cy="184.9" r="2" />
<circle class="st1" cx="451.1" cy="190.9" r="2" />
<circle class="st1" cx="476.1" cy="108.9" r="2" />
<circle class="st1" cx="398.1" cy="187.9" r="2" />
<circle class="st1" cx="424.1" cy="108.9" r="2" />
<circle class="st1" cx="437.1" cy="132.9" r="2" />
<circle class="st1" cx="423.1" cy="132.9" r="2" />
<circle class="st1" cx="445.1" cy="82.9" r="2" />
<circle class="st1" cx="461.1" cy="138.9" r="2" />
<circle class="st1" cx="486.1" cy="188.9" r="2" />
<circle class="st1" cx="476.1" cy="181.9" r="2" />
<circle class="st1" cx="493.1" cy="179.9" r="2" />
<circle class="st1" cx="469.1" cy="205.9" r="2" />
<circle class="st1" cx="442.1" cy="207.9" r="2" />
<circle class="st1" cx="439.1" cy="181.9" r="2" />
<circle class="st1" cx="468.1" cy="197.9" r="2" />
<circle class="st1" cx="449.1" cy="211.9" r="2" />
<circle class="st1" cx="476.1" cy="223.9" r="2" />
<circle class="st1" cx="490.1" cy="207.9" r="2" />
<circle class="st1" cx="517.1" cy="201.9" r="2" />
<circle class="st1" cx="503.1" cy="227.9" r="2" />
<circle class="st1" cx="520.1" cy="215.9" r="2" />
<circle class="st1" cx="534.1" cy="195.9" r="2" />
<circle class="st1" cx="521.1" cy="190.9" r="2" />
<circle class="st1" cx="526.1" cy="162.9" r="2" />
<circle class="st1" cx="473.1" cy="168.9" r="2" />
<circle class="st1" cx="462.1" cy="164.9" r="2" />
<circle class="st1" cx="464.1" cy="156.9" r="2" />
<circle class="st1" cx="466.1" cy="165.9" r="2" />
<circle class="st1" cx="452.1" cy="160.9" r="2" />
<circle class="st1" cx="504.1" cy="187.9" r="2" />
<circle class="st1" cx="510.1" cy="168.9" r="2" />
<circle class="st1" cx="458.1" cy="171.9" r="2" />
<circle class="st1" cx="420.1" cy="177.9" r="2" />
<circle class="st1" cx="429.1" cy="232.9" r="2" />
<circle class="st1" cx="451.1" cy="233.9" r="2" />
<circle class="st1" cx="442.1" cy="250.9" r="2" />
<circle class="st1" cx="451.1" cy="250.9" r="2" />
<circle class="st1" cx="446.1" cy="243.9" r="2" />
<circle class="st1" cx="450.1" cy="245.9" r="2" />
<circle class="st1" cx="423.1" cy="214.9" r="2" />
<circle class="st1" cx="469.1" cy="232.9" r="2" />
<circle class="st1" cx="480.1" cy="294.9" r="2" />
<circle class="st1" cx="475.1" cy="291.9" r="2" />
<circle class="st1" cx="485.1" cy="301.9" r="2" />
<circle class="st1" cx="492.1" cy="292.9" r="2" />
<g>
</g>
<g>
</g>
<g>
</g>
<g>
</g>
<g>
</g>
<g>
</g>
<g>
</g>
<g>
</g>
<g>
</g>
<g>
</g>
</g>
</g></svg>