<?xml version='1.0' encoding='utf-8'?>
<svg height="340" style="max-width: 100%; height: auto; font: 10px sans-serif;" viewBox="-70,-30,880,340" width="900" xmlns="http://www.w3.org/2000/svg">
<style type="text/css">.st0 {
    fill: hsl(0, 0%, 51%);
}

.st1 {
    fill: hsl(215, 88%, 83%);
    stroke: hsl(0, 0%, 95%);
    stroke-width: 0.5;
}

.st2 {
    fill: hsl(229, 86%, 74%);
    stroke: hsl(0, 0%, 100%);
    stroke-width: 0.5;
}

.st3 {
    fill: hsl(219, 56%, 72%);
    stroke: hsl(0, 0%, 100%);
    stroke-width: 0.5;
}

.st4 {
    fill: hsl(231, 94%, 68%);
    stroke: hsl(0, 0%, 96%);
    stroke-width: 0.5;
}

.st5 {
    fill: hsl(236, 69%, 65%);
    stroke: hsl(0, 0%, 100%);
    stroke-width: 0.5;
}

.st6 {
    fill: hsl(216, 78%, 72%);
    stroke: hsl(0, 0%, 97%);
    stroke-width: 0.5;
}

.st7 {
    fill: hsl(239, 25%, 69%);
    stroke: hsl(0, 0%, 100%);
    stroke-width: 0.5;
}

.st8 {
    fill: hsl(235, 92%, 71%);
    stroke: hsl(0, 0%, 97%);
    stroke-width: 0.5;
}

.st9 {
    fill: hsl(297, 7%, 69%);
    stroke: hsl(0, 0%, 100%);
    stroke-width: 0.5;
}

.st10 {
    fill: hsl(15, 19%, 65%);
    stroke: hsl(0, 0%, 100%);
    stroke-width: 0.5;
}

.st11 {
    fill: hsl(32, 53%, 61%);
    stroke: hsl(0, 0%, 100%);
    stroke-width: 0.5;
}

.st12 {
    fill: hsl(32, 73%, 62%);
    stroke: hsl(0, 0%, 100%);
    stroke-width: 0.5;
}

.st13 {
    fill: hsl(26, 42%, 71%);
    stroke: hsl(0, 0%, 100%);
    stroke-width: 0.5;
}

.st14 {
    fill: hsl(34, 83%, 60%);
    stroke: hsl(0, 0%, 94%);
    stroke-width: 0.5;
}

.st15 {
    fill: hsl(34, 100%, 68%);
    stroke: hsl(0, 0%, 98%);
    stroke-width: 0.5;
}</style>
<g id="Layer_2">
<rect class="st1" height="23" width="54.2" x="55" y="12.1" />
<rect class="st2" height="23" width="54.2" x="55" y="35.1" />
<rect class="st2" height="23" width="54.2" x="55" y="58.1" />
<rect class="st3" height="23" width="54.2" x="55" y="81.1" />
<rect class="st1" height="23" width="54.2" x="55" y="104.1" />
<rect class="st4" height="23" width="54.2" x="55" y="127.1" />
<rect class="st5" height="23" width="54.2" x="55" y="150.1" />
<rect class="st2" height="23" width="54.2" x="55" y="173.1" />
<rect class="st1" height="23" width="54.2" x="55" y="196.1" />
<rect class="st6" height="23" width="54.2" x="55" y="219.1" />
<rect class="st1" height="23" width="54.2" x="55" y="242.1" />
<rect class="st1" height="23" width="54.2" x="55" y="265.1" />
<rect class="st3" height="23" width="54.2" x="109.2" y="12.1" />
<rect class="st2" height="23" width="54.2" x="109.2" y="35.1" />
<rect class="st1" height="23" width="54.2" x="109.2" y="58.1" />
<rect class="st7" height="23" width="54.2" x="109.2" y="81.1" />
<rect class="st3" height="23" width="54.2" x="109.2" y="104.1" />
<rect class="st2" height="23" width="54.2" x="109.2" y="127.1" />
<rect class="st4" height="23" width="54.2" x="109.2" y="150.1" />
<rect class="st1" height="23" width="54.2" x="109.2" y="173.1" />
<rect class="st1" height="23" width="54.2" x="109.2" y="196.1" />
<rect class="st2" height="23" width="54.2" x="109.2" y="219.1" />
<rect class="st3" height="23" width="54.2" x="109.2" y="242.1" />
<rect class="st3" height="23" width="54.2" x="109.2" y="265.1" />
<rect class="st3" height="23" width="54.2" x="163.3" y="12.1" />
<rect class="st1" height="23" width="54.2" x="163.3" y="35.1" />
<rect class="st3" height="23" width="54.2" x="163.3" y="58.1" />
<rect class="st7" height="23" width="54.2" x="163.3" y="81.1" />
<rect class="st7" height="23" width="54.2" x="163.3" y="104.1" />
<rect class="st8" height="23" width="54.2" x="163.3" y="127.1" />
<rect class="st1" height="23" width="54.2" x="163.3" y="150.1" />
<rect class="st7" height="23" width="54.2" x="163.3" y="173.1" />
<rect class="st3" height="23" width="54.2" x="163.3" y="196.1" />
<rect class="st1" height="23" width="54.2" x="163.3" y="219.1" />
<rect class="st9" height="23" width="54.2" x="163.3" y="242.1" />
<rect class="st3" height="23" width="54.2" x="163.3" y="265.1" />
<rect class="st9" height="23" width="54.2" x="217.5" y="12.1" />
<rect class="st3" height="23" width="54.2" x="217.5" y="35.1" />
<rect class="st9" height="23" width="54.2" x="217.5" y="58.1" />
<rect class="st10" height="23" width="54.2" x="217.5" y="81.1" />
<rect class="st7" height="23" width="54.2" x="217.5" y="104.1" />
<rect class="st1" height="23" width="54.2" x="217.5" y="127.1" />
<rect class="st3" height="23" width="54.2" x="217.5" y="150.1" />
<rect class="st10" height="23" width="54.2" x="217.5" y="173.1" />
<rect class="st7" height="23" width="54.2" x="217.5" y="196.1" />
<rect class="st3" height="23" width="54.2" x="217.5" y="219.1" />
<rect class="st11" height="23" width="54.2" x="217.5" y="242.1" />
<rect class="st9" height="23" width="54.2" x="217.5" y="265.1" />
<rect class="st9" height="23" width="54.2" x="271.7" y="12.1" />
<rect class="st7" height="23" width="54.2" x="271.7" y="35.1" />
<rect class="st10" height="23" width="54.2" x="271.7" y="58.1" />
<rect class="st10" height="23" width="54.2" x="271.7" y="81.1" />
<rect class="st7" height="23" width="54.2" x="271.7" y="104.1" />
<rect class="st3" height="23" width="54.2" x="271.7" y="127.1" />
<rect class="st9" height="23" width="54.2" x="271.7" y="150.1" />
<rect class="st10" height="23" width="54.2" x="271.7" y="173.1" />
<rect class="st10" height="23" width="54.2" x="271.7" y="196.1" />
<rect class="st3" height="23" width="54.2" x="271.7" y="219.1" />
<rect class="st12" height="23" width="54.2" x="271.7" y="242.1" />
<rect class="st9" height="23" width="54.2" x="271.7" y="265.1" />
<rect class="st10" height="23" width="54.2" x="325.8" y="12.1" />
<rect class="st9" height="23" width="54.2" x="325.8" y="35.1" />
<rect class="st13" height="23" width="54.2" x="325.8" y="58.1" />
<rect class="st12" height="23" width="54.2" x="325.8" y="81.1" />
<rect class="st10" height="23" width="54.2" x="325.8" y="104.1" />
<rect class="st9" height="23" width="54.2" x="325.8" y="127.1" />
<rect class="st13" height="23" width="54.2" x="325.8" y="150.1" />
<rect class="st12" height="23" width="54.2" x="325.8" y="173.1" />
<rect class="st10" height="23" width="54.2" x="325.8" y="196.1" />
<rect class="st7" height="23" width="54.2" x="325.8" y="219.1" />
<rect class="st12" height="23" width="54.2" x="325.8" y="242.1" />
<rect class="st10" height="23" width="54.2" x="325.8" y="265.1" />
<rect class="st12" height="23" width="54.2" x="380" y="12.1" />
<rect class="st11" height="23" width="54.2" x="380" y="35.1" />
<rect class="st14" height="23" width="54.2" x="380" y="58.1" />
<rect class="st15" height="23" width="54.2" x="380" y="81.1" />
<rect class="st13" height="23" width="54.2" x="380" y="104.1" />
<rect class="st9" height="23" width="54.2" x="380" y="127.1" />
<rect class="st11" height="23" width="54.2" x="380" y="150.1" />
<rect class="st14" height="23" width="54.2" x="380" y="173.1" />
<rect class="st13" height="23" width="54.2" x="380" y="196.1" />
<rect class="st9" height="23" width="54.2" x="380" y="219.1" />
<rect class="st15" height="23" width="54.2" x="380" y="242.1" />
<rect class="st11" height="23" width="54.2" x="380" y="265.1" />
<rect class="st10" height="23" width="54.2" x="434.2" y="12.1" />
<rect class="st13" height="23" width="54.2" x="434.2" y="35.1" />
<rect class="st11" height="23" width="54.2" x="434.2" y="58.1" />
<rect class="st14" height="23" width="54.2" x="434.2" y="81.1" />
<rect class="st13" height="23" width="54.2" x="434.2" y="104.1" />
<rect class="st9" height="23" width="54.2" x="434.2" y="127.1" />
<rect class="st10" height="23" width="54.2" x="434.2" y="150.1" />
<rect class="st11" height="23" width="54.2" x="434.2" y="173.1" />
<rect class="st10" height="23" width="54.2" x="434.2" y="196.1" />
<rect class="st7" height="23" width="54.2" x="434.2" y="219.1" />
<rect class="st14" height="23" width="54.2" x="434.2" y="242.1" />
<rect class="st13" height="23" width="54.2" x="434.2" y="265.1" />
<rect class="st9" height="23" width="54.2" x="488.3" y="12.1" />
<rect class="st9" height="23" width="54.2" x="488.3" y="35.1" />
<rect class="st10" height="23" width="54.2" x="488.3" y="58.1" />
<rect class="st11" height="23" width="54.2" x="488.3" y="81.1" />
<rect class="st9" height="23" width="54.2" x="488.3" y="104.1" />
<rect class="st7" height="23" width="54.2" x="488.3" y="127.1" />
<rect class="st9" height="23" width="54.2" x="488.3" y="150.1" />
<rect class="st10" height="23" width="54.2" x="488.3" y="173.1" />
<rect class="st9" height="23" width="54.2" x="488.3" y="196.1" />
<rect class="st7" height="23" width="54.2" x="488.3" y="219.1" />
<rect class="st11" height="23" width="54.2" x="488.3" y="242.1" />
<rect class="st9" height="23" width="54.2" x="488.3" y="265.1" />
<rect class="st7" height="23" width="54.2" x="542.5" y="12.1" />
<rect class="st3" height="23" width="54.2" x="542.5" y="35.1" />
<rect class="st7" height="23" width="54.2" x="542.5" y="58.1" />
<rect class="st10" height="23" width="54.2" x="542.5" y="81.1" />
<rect class="st7" height="23" width="54.2" x="542.5" y="104.1" />
<rect class="st3" height="23" width="54.2" x="542.5" y="127.1" />
<rect class="st1" height="23" width="54.2" x="542.5" y="150.1" />
<rect class="st7" height="23" width="54.2" x="542.5" y="173.1" />
<rect class="st3" height="23" width="54.2" x="542.5" y="196.1" />
<rect class="st1" height="23" width="54.2" x="542.5" y="219.1" />
<rect class="st10" height="23" width="54.2" x="542.5" y="242.1" />
<rect class="st9" height="23" width="54.2" x="542.5" y="265.1" />
<rect class="st3" height="23" width="54.2" x="596.7" y="12.1" />
<rect class="st1" height="23" width="54.2" x="596.7" y="35.1" />
<rect class="st7" height="23" width="54.2" x="596.7" y="58.1" />
<rect class="st7" height="23" width="54.2" x="596.7" y="81.1" />
<rect class="st3" height="23" width="54.2" x="596.7" y="104.1" />
<rect class="st1" height="23" width="54.2" x="596.7" y="127.1" />
<rect class="st8" height="23" width="54.2" x="596.7" y="150.1" />
<rect class="st3" height="23" width="54.2" x="596.7" y="173.1" />
<rect class="st1" height="23" width="54.2" x="596.7" y="196.1" />
<rect class="st1" height="23" width="54.2" x="596.7" y="219.1" />
<rect class="st7" height="23" width="54.2" x="596.7" y="242.1" />
<rect class="st3" height="23" width="54.2" x="596.7" y="265.1" />
<rect class="st3" height="23" width="54.2" x="650.8" y="12.1" />
<rect class="st2" height="23" width="54.2" x="650.8" y="35.1" />
<rect class="st1" height="23" width="54.2" x="650.8" y="58.1" />
<rect class="st7" height="23" width="54.2" x="650.8" y="81.1" />
<rect class="st3" height="23" width="54.2" x="650.8" y="104.1" />
<rect class="st8" height="23" width="54.2" x="650.8" y="127.1" />
<rect class="st2" height="23" width="54.2" x="650.8" y="150.1" />
<rect class="st1" height="23" width="54.2" x="650.8" y="173.1" />
<rect class="st1" height="23" width="54.2" x="650.8" y="196.1" />
<rect class="st2" height="23" width="54.2" x="650.8" y="219.1" />
<rect class="st1" height="23" width="54.2" x="650.8" y="242.1" />
<rect class="st1" height="23" width="54.2" x="650.8" y="265.1" />
</g>
</svg>