<?xml version='1.0' encoding='utf-8'?>
<svg height="340" style="max-width: 100%; height: auto; font: 10px sans-serif;" viewBox="-70,-30,880,340" width="900" xmlns="http://www.w3.org/2000/svg">
<style type="text/css">.st0 {
    fill: hsl(0, 0%, 50%);
}

.st1 {
    fill: hsl(217, 79%, 76%);
    stroke: hsl(0, 0%, 100%);
    stroke-width: 0.5;
}

.st2 {
    fill: hsl(232, 83%, 71%);
    stroke: hsl(0, 0%, 100%);
    stroke-width: 0.5;
}

.st3 {
    fill: hsl(231, 50%, 78%);
    stroke: hsl(0, 0%, 100%);
    stroke-width: 0.5;
}

.st4 {
    fill: hsl(226, 85%, 75%);
    stroke: hsl(0, 0%, 90%);
    stroke-width: 0.5;
}

.st5 {
    fill: hsl(226, 79%, 71%);
    stroke: hsl(0, 0%, 97%);
    stroke-width: 0.5;
}

.st6 {
    fill: hsl(223, 71%, 68%);
    stroke: hsl(0, 0%, 100%);
    stroke-width: 0.5;
}

.st7 {
    fill: hsl(234, 25%, 72%);
    stroke: hsl(0, 0%, 96%);
    stroke-width: 0.5;
}

.st8 {
    fill: hsl(231, 81%, 69%);
    stroke: hsl(0, 0%, 100%);
    stroke-width: 0.5;
}

.st9 {
    fill: hsl(288, 8%, 72%);
    stroke: hsl(0, 0%, 98%);
    stroke-width: 0.5;
}

.st10 {
    fill: hsl(16, 20%, 64%);
    stroke: hsl(0, 0%, 90%);
    stroke-width: 0.5;
}

.st11 {
    fill: hsl(31, 58%, 68%);
    stroke: hsl(0, 0%, 98%);
    stroke-width: 0.5;
}

.st12 {
    fill: hsl(33, 67%, 61%);
    stroke: hsl(0, 0%, 93%);
    stroke-width: 0.5;
}

.st13 {
    fill: hsl(28, 35%, 67%);
    stroke: hsl(0, 0%, 100%);
    stroke-width: 0.5;
}

.st14 {
    fill: hsl(35, 83%, 62%);
    stroke: hsl(0, 0%, 100%);
    stroke-width: 0.5;
}

.st15 {
    fill: hsl(37, 100%, 62%);
    stroke: hsl(0, 0%, 100%);
    stroke-width: 0.5;
}</style>
<g id="Layer_2">
<rect class="st1" height="23" width="54.2" x="55" y="12.1" />
<rect class="st2" height="23" width="54.2" x="55" y="35.1" />
<rect class="st2" height="23" width="54.2" x="55" y="58.1" />
<rect class="st3" height="23" width="54.2" x="55" y="81.1" />
<rect class="st1" height="23" width="54.2" x="55" y="104.1" />
<rect class="st4" height="23" width="54.2" x="55" y="127.1" />
<rect class="st5" height="23" width="54.2" x="55" y="150.1" />
<rect class="st2" height="23" width="54.2" x="55" y="173.1" />
<rect class="st1" height="23" width="54.2" x="55" y="196.1" />
<rect class="st6" height="23" width="54.2" x="55" y="219.1" />
<rect class="st1" height="23" width="54.2" x="55" y="242.1" />
<rect class="st1" height="23" width="54.2" x="55" y="265.1" />
<rect class="st3" height="23" width="54.2" x="109.2" y="12.1" />
<rect class="st2" height="23" width="54.2" x="109.2" y="35.1" />
<rect class="st1" height="23" width="54.2" x="109.2" y="58.1" />
<rect class="st7" height="23" width="54.2" x="109.2" y="81.1" />
<rect class="st3" height="23" width="54.2" x="109.2" y="104.1" />
<rect class="st2" height="23" width="54.2" x="109.2" y="127.1" />
<rect class="st4" height="23" width="54.2" x="109.2" y="150.1" />
<rect class="st1" height="23" width="54.2" x="109.2" y="173.1" />
<rect class="st1" height="23" width="54.2" x="109.2" y="196.1" />
<rect class="st2" height="23" width="54.2" x="109.2" y="219.1" />
<rect class="st3" height="23" width="54.2" x="109.2" y="242.1" />
<rect class="st3" height="23" width="54.2" x="109.2" y="265.1" />
<rect class="st3" height="23" width="54.2" x="163.3" y="12.1" />
<rect class="st1" height="23" width="54.2" x="163.3" y="35.1" />
<rect class="st3" height="23" width="54.2" x="163.3" y="58.1" />
<rect class="st7" height="23" width="54.2" x="163.3" y="81.1" />
<rect class="st7" height="23" width="54.2" x="163.3" y="104.1" />
<rect class="st8" height="23" width="54.2" x="163.3" y="127.1" />
<rect class="st1" height="23" width="54.2" x="163.3" y="150.1" />
<rect class="st7" height="23" width="54.2" x="163.3" y="173.1" />
<rect class="st3" height="23" width="54.2" x="163.3" y="196.1" />
<rect class="st1" height="23" width="54.2" x="163.3" y="219.1" />
<rect class="st9" height="23" width="54.2" x="163.3" y="242.1" />
<rect class="st3" height="23" width="54.2" x="163.3" y="265.1" />
<rect class="st9" height="23" width="54.2" x="217.5" y="12.1" />
<rect class="st3" height="23" width="54.2" x="217.5" y="35.1" />
<rect class="st9" height="23" width="54.2" x="217.5" y="58.1" />
<rect class="st10" height="23" width="54.2" x="217.5" y="81.1" />
<rect class="st7" height="23" width="54.2" x="217.5" y="104.1" />
<rect class="st1" height="23" width="54.2" x="217.5" y="127.1" />
<rect class="st3" height="23" width="54.2" x="217.5" y="150.1" />
<rect class="st10" height="23" width="54.2" x="217.5" y="173.1" />
<rect class="st7" height="23" width="54.2" x="217.5" y="196.1" />
<rect class="st3" height="23" width="54.2" x="217.5" y="219.1" />
<rect class="st11" height="23" width="54.2" x="217.5" y="242.1" />
<rect class="st9" height="23" width="54.2" x="217.5" y="265.1" />
<rect class="st9" height="23" width="54.2" x="271.7" y="12.1" />
<rect class="st7" height="23" width="54.2" x="271.7" y="35.1" />
<rect class="st10" height="23" width="54.2" x="271.7" y="58.1" />
<rect class="st10" height="23" width="54.2" x="271.7" y="81.1" />
<rect class="st7" height="23" width="54.2" x="271.7" y="104.1" />
<rect class="st3" height="23" width="54.2" x="271.7" y="127.1" />
<rect class="st9" height="23" width="54.2" x="271.7" y="150.1" />
<rect class="st10" height="23" width="54.2" x="271.7" y="173.1" />
<rect class="st10" height="23" width="54.2" x="271.7" y="196.1" />
<rect class="st3" height="23" width="54.2" x="271.7" y="219.1" />
<rect class="st12" height="23" width="54.2" x="271.7" y="242.1" />
<rect class="st9" height="23" width="54.2" x="271.7" y="265.1" />
<rect class="st10" height="23" width="54.2" x="325.8" y="12.1" />
<rect class="st9" height="23" width="54.2" x="325.8" y="35.1" />
<rect class="st13" height="23" width="54.2" x="325.8" y="58.1" />
<rect class="st12" height="23" width="54.2" x="325.8" y="81.1" />
<rect class="st10" height="23" width="54.2" x="325.8" y="104.1" />
<rect class="st9" height="23" width="54.2" x="325.8" y="127.1" />
<rect class="st13" height="23" width="54.2" x="325.8" y="150.1" />
<rect class="st12" height="23" width="54.2" x="325.8" y="173.1" />
<rect class="st10" height="23" width="54.2" x="325.8" y="196.1" />
<rect class="st7" height="23" width="54.2" x="325.8" y="219.1" />
<rect class="st12" height="23" width="54.2" x="325.8" y="242.1" />
<rect class="st10" height="23" width="54.2" x="325.8" y="265.1" />
<rect class="st12" height="23" width="54.2" x="380" y="12.1" />
<rect class="st11" height="23" width="54.2" x="380" y="35.1" />
<rect class="st14" height="23" width="54.2" x="380" y="58.1" />
<rect class="st15" height="23" width="54.2" x="380" y="81.1" />
<rect class="st13" height="23" width="54.2" x="380" y="104.1" />
<rect class="st9" height="23" width="54.2" x="380" y="127.1" />
<rect class="st11" height="23" width="54.2" x="380" y="150.1" />
<rect class="st14" height="23" width="54.2" x="380" y="173.1" />
<rect class="st13" height="23" width="54.2" x="380" y="196.1" />
<rect class="st9" height="23" width="54.2" x="380" y="219.1" />
<rect class="st15" height="23" width="54.2" x="380" y="242.1" />
<rect class="st11" height="23" width="54.2" x="380" y="265.1" />
<rect class="st10" height="23" width="54.2" x="434.2" y="12.1" />
<rect class="st13" height="23" width="54.2" x="434.2" y="35.1" />
<rect class="st11" height="23" width="54.2" x="434.2" y="58.1" />
<rect class="st14" height="23" width="54.2" x="434.2" y="81.1" />
<rect class="st13" height="23" width="54.2" x="434.2" y="104.1" />
<rect class="st9" height="23" width="54.2" x="434.2" y="127.1" />
<rect class="st10" height="23" width="54.2" x="434.2" y="150.1" />
<rect class="st11" height="23" width="54.2" x="434.2" y="173.1" />
<rect class="st10" height="23" width="54.2" x="434.2" y="196.1" />
<rect class="st7" height="23" width="54.2" x="434.2" y="219.1" />
<rect class="st14" height="23" width="54.2" x="434.2" y="242.1" />
<rect class="st13" height="23" width="54.2" x="434.2" y="265.1" />
<rect class="st9" height="23" width="54.2" x="488.3" y="12.1" />
<rect class="st9" height="23" width="54.2" x="488.3" y="35.1" />
<rect class="st10" height="23" width="54.2" x="488.3" y="58.1" />
<rect class="st11" height="23" width="54.2" x="488.3" y="81.1" />
<rect class="st9" height="23" width="54.2" x="488.3" y="104.1" />
<rect class="st7" height="23" width="54.2" x="488.3" y="127.1" />
<rect class="st9" height="23" width="54.2" x="488.3" y="150.1" />
<rect class="st10" height="23" width="54.2" x="488.3" y="173.1" />
<rect class="st9" height="23" width="54.2" x="488.3" y="196.1" />
<rect class="st7" height="23" width="54.2" x="488.3" y="219.1" />
<rect class="st11" height="23" width="54.2" x="488.3" y="242.1" />
<rect class="st9" height="23" width="54.2" x="488.3" y="265.1" />
<rect class="st7" height="23" width="54.2" x="542.5" y="12.1" />
<rect class="st3" height="23" width="54.2" x="542.5" y="35.1" />
<rect class="st7" height="23" width="54.2" x="542.5" y="58.1" />
<rect class="st10" height="23" width="54.2" x="542.5" y="81.1" />
<rect class="st7" height="23" width="54.2" x="542.5" y="104.1" />
<rect class="st3" height="23" width="54.2" x="542.5" y="127.1" />
<rect class="st1" height="23" width="54.2" x="542.5" y="150.1" />
<rect class="st7" height="23" width="54.2" x="542.5" y="173.1" />
<rect class="st3" height="23" width="54.2" x="542.5" y="196.1" />
<rect class="st1" height="23" width="54.2" x="542.5" y="219.1" />
<rect class="st10" height="23" width="54.2" x="542.5" y="242.1" />
<rect class="st9" height="23" width="54.2" x="542.5" y="265.1" />
<rect class="st3" height="23" width="54.2" x="596.7" y="12.1" />
<rect class="st1" height="23" width="54.2" x="596.7" y="35.1" />
<rect class="st7" height="23" width="54.2" x="596.7" y="58.1" />
<rect class="st7" height="23" width="54.2" x="596.7" y="81.1" />
<rect class="st3" height="23" width="54.2" x="596.7" y="104.1" />
<rect class="st1" height="23" width="54.2" x="596.7" y="127.1" />
<rect class="st8" height="23" width="54.2" x="596.7" y="150.1" />
<rect class="st3" height="23" width="54.2" x="596.7" y="173.1" />
<rect class="st1" height="23" width="54.2" x="596.7" y="196.1" />
<rect class="st1" height="23" width="54.2" x="596.7" y="219.1" />
<rect class="st7" height="23" width="54.2" x="596.7" y="242.1" />
<rect class="st3" height="23" width="54.2" x="596.7" y="265.1" />
<rect class="st3" height="23" width="54.2" x="650.8" y="12.1" />
<rect class="st2" height="23" width="54.2" x="650.8" y="35.1" />
<rect class="st1" height="23" width="54.2" x="650.8" y="58.1" />
<rect class="st7" height="23" width="54.2" x="650.8" y="81.1" />
<rect class="st3" height="23" width="54.2" x="650.8" y="104.1" />
<rect class="st8" height="23" width="54.2" x="650.8" y="127.1" />
<rect class="st2" height="23" width="54.2" x="650.8" y="150.1" />
<rect class="st1" height="23" width="54.2" x="650.8" y="173.1" />
<rect class="st1" height="23" width="54.2" x="650.8" y="196.1" />
<rect class="st2" height="23" width="54.2" x="650.8" y="219.1" />
<rect class="st1" height="23" width="54.2" x="650.8" y="242.1" />
<rect class="st1" height="23" width="54.2" x="650.8" y="265.1" />
</g>
</svg>