<?xml version='1.0' encoding='utf-8'?>
<svg height="340" style="max-width: 100%; height: auto; font: 10px sans-serif;" viewBox="-70,-30,880,340" width="900" xmlns="http://www.w3.org/2000/svg">
<style type="text/css">.st0 {
    fill: hsl(0, 0%, 49%);
}

.st1 {
    fill: hsl(221, 78%, 79%);
    stroke: hsl(0, 0%, 93%);
    stroke-width: 0.5;
}

.st2 {
    fill: hsl(230, 88%, 79%);
    stroke: hsl(0, 0%, 100%);
    stroke-width: 0.5;
}

.st3 {
    fill: hsl(221, 51%, 82%);
    stroke: hsl(0, 0%, 98%);
    stroke-width: 0.5;
}

.st4 {
    fill: hsl(219, 81%, 69%);
    stroke: hsl(0, 0%, 100%);
    stroke-width: 0.5;
}

.st5 {
    fill: hsl(221, 78%, 64%);
    stroke: hsl(0, 0%, 96%);
    stroke-width: 0.5;
}

.st6 {
    fill: hsl(234, 79%, 67%);
    stroke: hsl(0, 0%, 100%);
    stroke-width: 0.5;
}

.st7 {
    fill: hsl(229, 26%, 71%);
    stroke: hsl(0, 0%, 100%);
    stroke-width: 0.5;
}

.st8 {
    fill: hsl(225, 92%, 71%);
    stroke: hsl(0, 0%, 100%);
    stroke-width: 0.5;
}

.st9 {
    fill: hsl(290, 8%, 76%);
    stroke: hsl(0, 0%, 91%);
    stroke-width: 0.5;
}

.st10 {
    fill: hsl(16, 19%, 71%);
    stroke: hsl(0, 0%, 96%);
    stroke-width: 0.5;
}

.st11 {
    fill: hsl(30, 55%, 62%);
    stroke: hsl(0, 0%, 100%);
    stroke-width: 0.5;
}

.st12 {
    fill: hsl(32, 67%, 68%);
    stroke: hsl(0, 0%, 93%);
    stroke-width: 0.5;
}

.st13 {
    fill: hsl(27, 41%, 71%);
    stroke: hsl(0, 0%, 91%);
    stroke-width: 0.5;
}

.st14 {
    fill: hsl(35, 86%, 70%);
    stroke: hsl(0, 0%, 95%);
    stroke-width: 0.5;
}

.st15 {
    fill: hsl(36, 92%, 65%);
    stroke: hsl(0, 0%, 100%);
    stroke-width: 0.5;
}</style>
<g id="Layer_2">
<rect class="st1" height="23" width="54.2" x="55" y="12.1" />
<rect class="st2" height="23" width="54.2" x="55" y="35.1" />
<rect class="st2" height="23" width="54.2" x="55" y="58.1" />
<rect class="st3" height="23" width="54.2" x="55" y="81.1" />
<rect class="st1" height="23" width="54.2" x="55" y="104.1" />
<rect class="st4" height="23" width="54.2" x="55" y="127.1" />
<rect class="st5" height="23" width="54.2" x="55" y="150.1" />
<rect class="st2" height="23" width="54.2" x="55" y="173.1" />
<rect class="st1" height="23" width="54.2" x="55" y="196.1" />
<rect class="st6" height="23" width="54.2" x="55" y="219.1" />
<rect class="st1" height="23" width="54.2" x="55" y="242.1" />
<rect class="st1" height="23" width="54.2" x="55" y="265.1" />
<rect class="st3" height="23" width="54.2" x="109.2" y="12.1" />
<rect class="st2" height="23" width="54.2" x="109.2" y="35.1" />
<rect class="st1" height="23" width="54.2" x="109.2" y="58.1" />
<rect class="st7" height="23" width="54.2" x="109.2" y="81.1" />
<rect class="st3" height="23" width="54.2" x="109.2" y="104.1" />
<rect class="st2" height="23" width="54.2" x="109.2" y="127.1" />
<rect class="st4" height="23" width="54.2" x="109.2" y="150.1" />
<rect class="st1" height="23" width="54.2" x="109.2" y="173.1" />
<rect class="st1" height="23" width="54.2" x="109.2" y="196.1" />
<rect class="st2" height="23" width="54.2" x="109.2" y="219.1" />
<rect class="st3" height="23" width="54.2" x="109.2" y="242.1" />
<rect class="st3" height="23" width="54.2" x="109.2" y="265.1" />
<rect class="st3" height="23" width="54.2" x="163.3" y="12.1" />
<rect class="st1" height="23" width="54.2" x="163.3" y="35.1" />
<rect class="st3" height="23" width="54.2" x="163.3" y="58.1" />
<rect class="st7" height="23" width="54.2" x="163.3" y="81.1" />
<rect class="st7" height="23" width="54.2" x="163.3" y="104.1" />
<rect class="st8" height="23" width="54.2" x="163.3" y="127.1" />
<rect class="st1" height="23" width="54.2" x="163.3" y="150.1" />
<rect class="st7" height="23" width="54.2" x="163.3" y="173.1" />
<rect class="st3" height="23" width="54.2" x="163.3" y="196.1" />
<rect class="st1" height="23" width="54.2" x="163.3" y="219.1" />
<rect class="st9" height="23" width="54.2" x="163.3" y="242.1" />
<rect class="st3" height="23" width="54.2" x="163.3" y="265.1" />
<rect class="st9" height="23" width="54.2" x="217.5" y="12.1" />
<rect class="st3" height="23" width="54.2" x="217.5" y="35.1" />
<rect class="st9" height="23" width="54.2" x="217.5" y="58.1" />
<rect class="st10" height="23" width="54.2" x="217.5" y="81.1" />
<rect class="st7" height="23" width="54.2" x="217.5" y="104.1" />
<rect class="st1" height="23" width="54.2" x="217.5" y="127.1" />
<rect class="st3" height="23" width="54.2" x="217.5" y="150.1" />
<rect class="st10" height="23" width="54.2" x="217.5" y="173.1" />
<rect class="st7" height="23" width="54.2" x="217.5" y="196.1" />
<rect class="st3" height="23" width="54.2" x="217.5" y="219.1" />
<rect class="st11" height="23" width="54.2" x="217.5" y="242.1" />
<rect class="st9" height="23" width="54.2" x="217.5" y="265.1" />
<rect class="st9" height="23" width="54.2" x="271.7" y="12.1" />
<rect class="st7" height="23" width="54.2" x="271.7" y="35.1" />
<rect class="st10" height="23" width="54.2" x="271.7" y="58.1" />
<rect class="st10" height="23" width="54.2" x="271.7" y="81.1" />
<rect class="st7" height="23" width="54.2" x="271.7" y="104.1" />
<rect class="st3" height="23" width="54.2" x="271.7" y="127.1" />
<rect class="st9" height="23" width="54.2" x="271.7" y="150.1" />
<rect class="st10" height="23" width="54.2" x="271.7" y="173.1" />
<rect class="st10" height="23" width="54.2" x="271.7" y="196.1" />
<rect class="st3" height="23" width="54.2" x="271.7" y="219.1" />
<rect class="st12" height="23" width="54.2" x="271.7" y="242.1" />
<rect class="st9" height="23" width="54.2" x="271.7" y="265.1" />
<rect class="st10" height="23" width="54.2" x="325.8" y="12.1" />
<rect class="st9" height="23" width="54.2" x="325.8" y="35.1" />
<rect class="st13" height="23" width="54.2" x="325.8" y="58.1" />
<rect class="st12" height="23" width="54.2" x="325.8" y="81.1" />
<rect class="st10" height="23" width="54.2" x="325.8" y="104.1" />
<rect class="st9" height="23" width="54.2" x="325.8" y="127.1" />
<rect class="st13" height="23" width="54.2" x="325.8" y="150.1" />
<rect class="st12" height="23" width="54.2" x="325.8" y="173.1" />
<rect class="st10" height="23" width="54.2" x="325.8" y="196.1" />
<rect class="st7" height="23" width="54.2" x="325.8" y="219.1" />
<rect class="st12" height="23" width="54.2" x="325.8" y="242.1" />
<rect class="st10" height="23" width="54.2" x="325.8" y="265.1" />
<rect class="st12" height="23" width="54.2" x="380" y="12.1" />
<rect class="st11" height="23" width="54.2" x="380" y="35.1" />
<rect class="st14" height="23" width="54.2" x="380" y="58.1" />
<rect class="st15" height="23" width="54.2" x="380" y="81.1" />
<rect class="st13" height="23" width="54.2" x="380" y="104.1" />
<rect class="st9" height="23" width="54.2" x="380" y="127.1" />
<rect class="st11" height="23" width="54.2" x="380" y="150.1" />
<rect class="st14" height="23" width="54.2" x="380" y="173.1" />
<rect class="st13" height="23" width="54.2" x="380" y="196.1" />
<rect class="st9" height="23" width="54.2" x="380" y="219.1" />
<rect class="st15" height="23" width="54.2" x="380" y="242.1" />
<rect class="st11" height="23" width="54.2" x="380" y="265.1" />
<rect class="st10" height="23" width="54.2" x="434.2" y="12.1" />
<rect class="st13" height="23" width="54.2" x="434.2" y="35.1" />
<rect class="st11" height="23" width="54.2" x="434.2" y="58.1" />
<rect class="st14" height="23" width="54.2" x="434.2" y="81.1" />
<rect class="st13" height="23" width="54.2" x="434.2" y="104.1" />
<rect class="st9" height="23" width="54.2" x="434.2" y="127.1" />
<rect class="st10" height="23" width="54.2" x="434.2" y="150.1" />
<rect class="st11" height="23" width="54.2" x="434.2" y="173.1" />
<rect class="st10" height="23" width="54.2" x="434.2" y="196.1" />
<rect class="st7" height="23" width="54.2" x="434.2" y="219.1" />
<rect class="st14" height="23" width="54.2" x="434.2" y="242.1" />
<rect class="st13" height="23" width="54.2" x="434.2" y="265.1" />
<rect class="st9" height="23" width="54.2" x="488.3" y="12.1" />
<rect class="st9" height="23" width="54.2" x="488.3" y="35.1" />
<rect class="st10" height="23" width="54.2" x="488.3" y="58.1" />
<rect class="st11" height="23" width="54.2" x="488.3" y="81.1" />
<rect class="st9" height="23" width="54.2" x="488.3" y="104.1" />
<rect class="st7" height="23" width="54.2" x="488.3" y="127.1" />
<rect class="st9" height="23" width="54.2" x="488.3" y="150.1" />
<rect class="st10" height="23" width="54.2" x="488.3" y="173.1" />
<rect class="st9" height="23" width="54.2" x="488.3" y="196.1" />
<rect class="st7" height="23" width="54.2" x="488.3" y="219.1" />
<rect class="st11" height="23" width="54.2" x="488.3" y="242.1" />
<rect class="st9" height="23" width="54.2" x="488.3" y="265.1" />
<rect class="st7" height="23" width="54.2" x="542.5" y="12.1" />
<rect class="st3" height="23" width="54.2" x="542.5" y="35.1" />
<rect class="st7" height="23" width="54.2" x="542.5" y="58.1" />
<rect class="st10" height="23" width="54.2" x="542.5" y="81.1" />
<rect class="st7" height="23" width="54.2" x="542.5" y="104.1" />
<rect class="st3" height="23" width="54.2" x="542.5" y="127.1" />
<rect class="st1" height="23" width="54.2" x="542.5" y="150.1" />
<rect class="st7" height="23" width="54.2" x="542.5" y="173.1" />
<rect class="st3" height="23" width="54.2" x="542.5" y="196.1" />
<rect class="st1" height="23" width="54.2" x="542.5" y="219.1" />
<rect class="st10" height="23" width="54.2" x="542.5" y="242.1" />
<rect class="st9" height="23" width="54.2" x="542.5" y="265.1" />
<rect class="st3" height="23" width="54.2" x="596.7" y="12.1" />
<rect class="st1" height="23" width="54.2" x="596.7" y="35.1" />
<rect class="st7" height="23" width="54.2" x="596.7" y="58.1" />
<rect class="st7" height="23" width="54.2" x="596.7" y="81.1" />
<rect class="st3" height="23" width="54.2" x="596.7" y="104.1" />
<rect class="st1" height="23" width="54.2" x="596.7" y="127.1" />
<rect class="st8" height="23" width="54.2" x="596.7" y="150.1" />
<rect class="st3" height="23" width="54.2" x="596.7" y="173.1" />
<rect class="st1" height="23" width="54.2" x="596.7" y="196.1" />
<rect class="st1" height="23" width="54.2" x="596.7" y="219.1" />
<rect class="st7" height="23" width="54.2" x="596.7" y="242.1" />
<rect class="st3" height="23" width="54.2" x="596.7" y="265.1" />
<rect class="st3" height="23" width="54.2" x="650.8" y="12.1" />
<rect class="st2" height="23" width="54.2" x="650.8" y="35.1" />
<rect class="st1" height="23" width="54.2" x="650.8" y="58.1" />
<rect class="st7" height="23" width="54.2" x="650.8" y="81.1" />
<rect class="st3" height="23" width="54.2" x="650.8" y="104.1" />
<rect class="st8" height="23" width="54.2" x="650.8" y="127.1" />
<rect class="st2" height="23" width="54.2" x="650.8" y="150.1" />
<rect class="st1" height="23" width="54.2" x="650.8" y="173.1" />
<rect class="st1" height="23" width="54.2" x="650.8" y="196.1" />
<rect class="st2" height="23" width="54.2" x="650.8" y="219.1" />
<rect class="st1" height="23" width="54.2" x="650.8" y="242.1" />
<rect class="st1" height="23" width="54.2" x="650.8" y="265.1" />
</g>
</svg>