<?xml version='1.0' encoding='utf-8'?>
<svg height="340" style="max-width: 100%; height: auto; font: 10px sans-serif;" viewBox="-70,-30,880,340" width="900" xmlns="http://www.w3.org/2000/svg">
<g transform="rotate(-90 450.0 170.0)"><style type="text/css">.st0 {
    fill: hsl(0, 0%, 54%);
}

.st1 {
    fill: none;
    stroke: hsl(0, 0%, 42%);
}

.st2 {
    fill: hsl(0, 69%, 67%);
}</style>
<g id="Layer_1">
<line class="st1" x1="43.2" x2="43.2" y1="285" y2="29" />
<g>
<g>
<line class="st1" x1="36.5" x2="42.9" y1="221" y2="221" />
<line class="st1" x1="36.5" x2="42.9" y1="157" y2="157" />
<line class="st1" x1="36.5" x2="42.9" y1="93" y2="93" />
<line class="st1" x1="36.5" x2="42.9" y1="29" y2="29" />
</g>
</g>
<g>
<line class="st1" x1="42.7" x2="701.5" y1="285" y2="285" />
</g>
<line class="st1" x1="80" x2="80" y1="285" y2="292.5" />
<line class="st1" x1="116.8" x2="116.8" y1="285" y2="292.5" />
<line class="st1" x1="153.6" x2="153.6" y1="285" y2="292.5" />
<line class="st1" x1="190.4" x2="190.4" y1="285" y2="292.5" />
<line class="st1" x1="227.2" x2="227.2" y1="285" y2="292.5" />
<line class="st1" x1="264" x2="264" y1="285" y2="292.5" />
<line class="st1" x1="300.8" x2="300.8" y1="285" y2="292.5" />
<line class="st1" x1="337.6" x2="337.6" y1="285" y2="292.5" />
<line class="st1" x1="374.4" x2="374.4" y1="285" y2="292.5" />
<line class="st1" x1="411.1" x2="411.1" y1="285" y2="292.5" />
<line class="st1" x1="447.9" x2="447.9" y1="285" y2="292.5" />
<line class="st1" x1="484.7" x2="484.7" y1="285" y2="292.5" />
<line class="st1" x1="521.5" x2="521.5" y1="285" y2="292.5" />
<line class="st1" x1="558.3" x2="558.3" y1="285" y2="292.5" />
<line class="st1" x1="595.1" x2="595.1" y1="285" y2="292.5" />
<line class="st1" x1="631.9" x2="631.9" y1="285" y2="292.5" />
<line class="st1" x1="668.7" x2="668.7" y1="285" y2="292.5" />
</g>
<g id="Layer_2">
<rect class="st2" height="11.2" width="34" x="63.2" y="273.2" />
<rect class="st2" height="19.7" width="34" x="99.7" y="264.8" />
<rect class="st2" height="16.9" width="34" x="136.4" y="267.6" />
<rect class="st2" height="37" width="34" x="173.2" y="247.5" />
<rect class="st2" height="84.4" width="34" x="210.4" y="200.1" />
<rect class="st2" height="113.4" width="34" x="246.7" y="171" />
<rect class="st2" height="105.9" width="34" x="283.8" y="178.5" />
<rect class="st2" height="219.4" width="34" x="320.5" y="65.1" />
<rect class="st2" height="253.5" width="34" x="357.3" y="31" />
<rect class="st2" height="206.3" width="34" x="394" y="78.2" />
<rect class="st2" height="195.9" width="34" x="430.7" y="88.5" />
<rect class="st2" height="135" width="34" x="467.7" y="149.5" />
<rect class="st2" height="75" width="34" x="504.2" y="209.5" />
<rect class="st2" height="31.9" width="34" x="541.2" y="252.6" />
<rect class="st2" height="21.6" width="34" x="578" y="262.9" />
<rect class="st2" height="23.4" width="34" x="614.7" y="261" />
<rect class="st2" height="15" width="34" x="651.4" y="269.5" />
</g>
</g></svg>