<?xml version='1.0' encoding='utf-8'?>
<svg height="340" id="svg" style="max-width: 100%; height: auto; font: 10px sans-serif;" viewBox="-370,-130,880,340" width="900" xmlns="http://www.w3.org/2000/svg">
<g transform="rotate(90 450.0 170.0)"><style>.st0 {
    max-width: 100%;
    height: auto;
    font: 10px sans-serif;
}

.st1 {
    stroke: lightgray;
    stroke-width: 1;
}

.st2 {
    fill: hsl(0, 97%, 48%);
}

.st3 {
    fill: skyblue;
}

.st4 {
    fill: gold;
}

.st5 {
    fill: hsl(0, 92%, 45%);
}</style>
<line class="st1" id="line_11" x1="0" x2="100" y1="0" y2="30" />
<line class="st1" id="line_10" x1="0" x2="-80" y1="0" y2="50" />
<line class="st1" id="line_9" x1="0" x2="120" y1="0" y2="-40" />
<line class="st1" id="line_8" x1="0" x2="60" y1="0" y2="80" />
<line class="st1" id="line_7" x1="100" x2="150" y1="30" y2="10" />
<line class="st1" id="line_6" x1="-80" x2="-120" y1="50" y2="90" />
<line class="st1" id="line_5" x1="-80" x2="-50" y1="50" y2="-30" />
<line class="st1" id="line_4" x1="120" x2="180" y1="-40" y2="-80" />
<line class="st1" id="line_3" x1="60" x2="90" y1="80" y2="140" />
<line class="st1" id="line_2" x1="60" x2="30" y1="80" y2="130" />
<line class="st1" id="line_1" x1="150" x2="200" y1="10" y2="40" />
<line class="st1" id="line" x1="200" x2="250" y1="40" y2="70" />
<circle class="st2" cx="0" cy="0" id="circle_12" r="30" />
<circle class="st3" cx="100" cy="30" id="circle_11" r="20" />
<circle class="st4" cx="-80" cy="50" id="circle_10" r="15" />
<circle class="st3" cx="120" cy="-40" id="circle_9" r="25" />
<circle class="st4" cx="60" cy="80" id="circle_8" r="10" />
<circle class="st3" cx="150" cy="10" id="circle_7" r="25" />
<circle class="st4" cx="-120" cy="90" id="circle_6" r="20" />
<circle class="st3" cx="-50" cy="-30" id="circle_5" r="10" />
<circle class="st4" cx="180" cy="-80" id="circle_4" r="15" />
<circle class="st3" cx="90" cy="140" id="circle_3" r="20" />
<circle class="st4" cx="30" cy="130" id="circle_2" r="15" />
<circle class="st3" cx="200" cy="40" id="circle_1" r="20" />
<circle class="st5" cx="250" cy="70" id="circle" r="15" />
</g></svg>