<?xml version='1.0' encoding='utf-8'?>
<svg height="340" style="max-width: 100%; height: auto; font: 10px sans-serif;" viewBox="-70,-30,880,340" width="900" xmlns="http://www.w3.org/2000/svg">
<style type="text/css">.st0 {
    fill: hsl(0, 0%, 55%);
}

.st1 {
    fill: hsl(0, 0%, 31%);
}

.st2 {
    fill: none;
    stroke: hsl(0, 0%, 40%);
}

.st3 {
    fill: none;
    stroke: hsl(0, 0%, 18%);
    stroke-width: 2;
}

.st4 {
    fill: hsl(0, 100%, 67%);
    stroke: hsl(0, 0%, 18%);
    stroke-width: 2;
}

.st5 {
    fill: hsl(0, 53%, 80%);
    stroke: hsl(0, 0%, 19%);
    stroke-width: 2;
}</style>
<g id="Layer_1">
<line class="st2" x1="147.7" x2="147.7" y1="244.5" y2="250.5" />
<polyline class="st2" points="96.5,250.5 96.5,244.5 98.5,244.5 688.5,244.5  " />
<line class="st2" x1="196.8" x2="196.8" y1="244.5" y2="250.5" />
<line class="st2" x1="246" x2="246" y1="244.5" y2="250.5" />
<line class="st2" x1="295.2" x2="295.2" y1="244.5" y2="250.5" />
<line class="st2" x1="344.3" x2="344.3" y1="244.5" y2="250.5" />
<line class="st2" x1="393.5" x2="393.5" y1="244.5" y2="250.5" />
<line class="st2" x1="442.7" x2="442.7" y1="244.5" y2="250.5" />
<line class="st2" x1="491.8" x2="491.8" y1="244.5" y2="250.5" />
<line class="st2" x1="541" x2="541" y1="244.5" y2="250.5" />
<line class="st2" x1="590.2" x2="590.2" y1="244.5" y2="250.5" />
<line class="st2" x1="639.3" x2="639.3" y1="244.5" y2="250.5" />
<line class="st2" x1="688.5" x2="688.5" y1="244.5" y2="250.5" />
</g>
<g id="Layer_2">
<line class="st3" x1="185.5" x2="580" y1="56.2" y2="56.2" />
<line class="st3" x1="135.5" x2="604.8" y1="131.4" y2="131.4" />
<line class="st3" x1="369.5" x2="662.8" y1="206.5" y2="206.5" />
<rect class="st4" height="32" width="120.7" x="241.2" y="40" />
<rect class="st5" height="32" width="81.7" x="361.7" y="40" />
<rect class="st4" height="32" width="244.7" x="157.2" y="115.5" />
<rect class="st5" height="32" width="130.7" x="402.2" y="115.5" />
<rect class="st4" height="32" width="81.7" x="483.2" y="191.5" />
<rect class="st5" height="32" width="51.7" x="565.2" y="191.5" />
<line class="st3" x1="185" x2="185" y1="47.5" y2="65" />
<line class="st3" x1="134.5" x2="134.5" y1="122.6" y2="140.1" />
<line class="st3" x1="368.5" x2="368.5" y1="197.8" y2="215.3" />
<line class="st3" x1="663.2" x2="663.2" y1="197.7" y2="215.2" />
<line class="st3" x1="605.7" x2="605.7" y1="122.7" y2="140.2" />
<line class="st3" x1="579.9" x2="579.9" y1="47.2" y2="64.7" />
</g>
</svg>