<?xml version='1.0' encoding='utf-8'?>
<svg height="340" style="max-width: 100%; height: auto; font: 10px sans-serif;" viewBox="-70,-30,880,340" width="900" xmlns="http://www.w3.org/2000/svg">
<g transform="rotate(90 450.0 170.0)"><style type="text/css">.st0 {
    fill: none;
    stroke: hsl(0, 0%, 86%);
}

.st1 {
    fill: none;
    stroke: hsl(0, 0%, 92%);
}

.st2 {
    fill: hsl(0, 100%, 51%);
}

.st3 {
    fill: hsl(0, 100%, 72%);
}

.st4 {
    fill: hsl(0, 100%, 86%);
}</style>
<g id="Layer_3">
<line class="st0" x1="306.3" x2="264.8" y1="63" y2="135.4" />
<line class="st0" x1="306.3" x2="404.8" y1="63" y2="147" />
<line class="st0" x1="404.8" x2="482" y1="147" y2="78.5" />
<line class="st0" x1="482" x2="510" y1="78.5" y2="168.2" />
<line class="st0" x1="404.8" x2="363.3" y1="147" y2="250.3" />
<line class="st0" x1="363.3" x2="107.5" y1="250.3" y2="168.2" />
<line class="st0" x1="107.5" x2="136" y1="168.2" y2="65.9" />
<line class="st0" x1="107.5" x2="128.8" y1="168.2" y2="263.8" />
<line class="st0" x1="510" x2="556.3" y1="168.2" y2="252.2" />
<line class="st0" x1="556.3" x2="624.8" y1="252.2" y2="61.1" />
<line class="st0" x1="624.8" x2="588.9" y1="61.1" y2="80.7" />
<line class="st0" x1="624.8" x2="586" y1="61.1" y2="48.5" />
<line class="st0" x1="624.8" x2="606.6" y1="61.1" y2="24.6" />
<line class="st0" x1="624.8" x2="638" y1="61.1" y2="23" />
<line class="st0" x1="624.8" x2="659.3" y1="61.1" y2="40.8" />
<line class="st0" x1="624.8" x2="663.1" y1="61.1" y2="71.4" />
<line class="st0" x1="624.8" x2="645.8" y1="61.1" y2="96.2" />
<line class="st0" x1="482" x2="448.9" y1="78.5" y2="74.9" />
<line class="st0" x1="482" x2="466.6" y1="78.5" y2="48.2" />
<line class="st0" x1="482" x2="498.1" y1="78.5" y2="48.2" />
<line class="st0" x1="482" x2="515.8" y1="78.5" y2="71.4" />
<line class="st0" x1="482" x2="510.3" y1="78.5" y2="97.8" />
<line class="st0" x1="510" x2="542.5" y1="168.2" y2="163.1" />
<line class="st0" x1="510" x2="479.4" y1="168.2" y2="155.4" />
<line class="st0" x1="510" x2="488.1" y1="168.2" y2="193" />
<line class="st0" x1="556.3" x2="510.6" y1="252.2" y2="244.5" />
<line class="st0" x1="556.3" x2="515.5" y1="252.2" y2="274.4" />
<line class="st0" x1="556.3" x2="538" y1="252.2" y2="295" />
<line class="st0" x1="556.3" x2="562.8" y1="252.2" y2="298.2" />
<line class="st0" x1="556.3" x2="586.2" y1="252.2" y2="287.6" />
<line class="st0" x1="556.3" x2="600.7" y1="252.2" y2="266.7" />
<line class="st0" x1="555.7" x2="601.4" y1="252.9" y2="239.3" />
<line class="st0" x1="363.3" x2="344" y1="250.3" y2="214.9" />
<line class="st0" x1="363.3" x2="325" y1="250.3" y2="259.6" />
<line class="st0" x1="363.3" x2="345" y1="250.3" y2="285.7" />
<line class="st0" x1="363.3" x2="378.7" y1="250.3" y2="286.9" />
<line class="st0" x1="363.3" x2="401.3" y1="250.3" y2="263.5" />
<line class="st0" x1="363.3" x2="398" y1="250.3" y2="229.4" />
<line class="st0" x1="404.8" x2="430.5" y1="147" y2="167.7" />
<line class="st0" x1="404.8" x2="406.7" y1="147" y2="114.2" />
<line class="st0" x1="128.8" x2="160.3" y1="263.8" y2="277" />
<line class="st0" x1="128.8" x2="156.3" y1="263.8" y2="244.1" />
<line class="st0" x1="128.8" x2="134.6" y1="263.8" y2="296.9" />
<line class="st0" x1="128.8" x2="99.8" y1="263.8" y2="282.5" />
<line class="st0" x1="128.8" x2="96.6" y1="263.8" y2="251.9" />
<line class="st0" x1="107.5" x2="141.6" y1="168.2" y2="146.3" />
<line class="st0" x1="107.5" x2="83.5" y1="168.2" y2="134.9" />
<line class="st0" x1="107.5" x2="66.3" y1="168.2" y2="165.6" />
<line class="st0" x1="107.5" x2="77.6" y1="168.2" y2="196.2" />
<line class="st0" x1="136" x2="102.8" y1="65.9" y2="94.4" />
<line class="st0" x1="136" x2="92.2" y1="65.9" y2="64.2" />
<line class="st0" x1="136" x2="101" y1="65.9" y2="38.7" />
<line class="st0" x1="125.1" x2="136" y1="23.3" y2="65.9" />
<line class="st0" x1="136" x2="156.3" y1="65.9" y2="27.2" />
<line class="st0" x1="176" x2="136" y1="48.8" y2="65.9" />
<line class="st0" x1="178.5" x2="136" y1="76.1" y2="65.9" />
<line class="st0" x1="136" x2="157.9" y1="65.9" y2="103.4" />
<line class="st0" x1="264.8" x2="298.6" y1="135.4" y2="139.3" />
<line class="st0" x1="279.3" x2="264.8" y1="168.2" y2="135.4" />
<line class="st0" x1="264.8" x2="244.3" y1="135.4" y2="164.4" />
<line class="st0" x1="264.8" x2="228.2" y1="135.4" y2="134.1" />
<line class="st0" x1="247.5" x2="264.8" y1="104.5" y2="135.4" />
<line class="st0" x1="306.3" x2="271.6" y1="63" y2="64.5" />
<line class="st0" x1="287" x2="306.3" y1="33.1" y2="63" />
<line class="st0" x1="306.3" x2="323.7" y1="63" y2="32.1" />
<line class="st0" x1="342.1" x2="306.3" y1="58.4" y2="63" />
<line class="st1" x1="83.5" x2="81.5" y1="134.9" y2="108.8" />
<line class="st1" x1="92.2" x2="65.9" y1="64.2" y2="64.2" />
<line class="st1" x1="92.2" x2="71.4" y1="64.2" y2="48.3" />
<line class="st1" x1="81.9" x2="101" y1="24" y2="38.7" />
<line class="st1" x1="182.1" x2="156.3" y1="22.4" y2="27.2" />
<line class="st1" x1="200.3" x2="176" y1="37.2" y2="48.8" />
<line class="st1" x1="176" x2="201.7" y1="48.8" y2="56.6" />
<line class="st1" x1="178.5" x2="201.5" y1="76.1" y2="88" />
<line class="st1" x1="157.9" x2="182.6" y1="103.4" y2="112.8" />
<line class="st1" x1="157.9" x2="163.1" y1="103.4" y2="127.9" />
<line class="st1" x1="141.6" x2="166.6" y1="146.3" y2="158.1" />
<line class="st1" x1="77.6" x2="54.4" y1="196.2" y2="211.2" />
<line class="st1" x1="244.3" x2="228.8" y1="164.4" y2="180.4" />
<line class="st1" x1="244.3" x2="250.7" y1="164.4" y2="191.7" />
<line class="st1" x1="279.3" x2="296.1" y1="168.2" y2="191.1" />
<line class="st1" x1="298.6" x2="318.7" y1="139.3" y2="162.3" />
<line class="st1" x1="328.7" x2="298.6" y1="143.9" y2="139.3" />
<line class="st1" x1="298.6" x2="322.3" y1="139.3" y2="120.3" />
<line class="st1" x1="260.2" x2="287" y1="26.5" y2="33.1" />
<line class="st1" x1="342.1" x2="361.5" y1="58.4" y2="40.5" />
<line class="st1" x1="342.1" x2="369.7" y1="58.4" y2="66.6" />
<line class="st1" x1="406.7" x2="388.4" y1="114.2" y2="89.7" />
<line class="st1" x1="406.7" x2="410.7" y1="114.2" y2="84.4" />
<line class="st1" x1="406.7" x2="430.7" y1="114.2" y2="95.2" />
<line class="st1" x1="466.6" x2="445" y1="48.2" y2="39.1" />
<line class="st1" x1="465.1" x2="466.6" y1="24.9" y2="48.2" />
<line class="st1" x1="515.8" x2="537.5" y1="71.4" y2="62.5" />
<line class="st1" x1="510.3" x2="534.1" y1="97.8" y2="106.5" />
<line class="st1" x1="645.8" x2="650.1" y1="96.2" y2="126.6" />
<line class="st1" x1="650.1" x2="659.1" y1="126.6" y2="156.6" />
<line class="st1" x1="645.8" x2="669.6" y1="96.2" y2="114.8" />
<line class="st1" x1="542.5" x2="553.9" y1="163.1" y2="140.2" />
<line class="st1" x1="542.5" x2="565.5" y1="163.1" y2="163.4" />
<line class="st1" x1="488.1" x2="468" y1="193" y2="206.3" />
<line class="st1" x1="99.8" x2="73.7" y1="282.5" y2="286.9" />
<line class="st1" x1="73.7" x2="45.4" y1="286.9" y2="293.7" />
<line class="st1" x1="156.3" x2="151.8" y1="244.1" y2="221" />
<line class="st1" x1="156.3" x2="173.3" y1="244.1" y2="226.8" />
<line class="st1" x1="156.3" x2="180.2" y1="244.1" y2="246.7" />
<line class="st1" x1="160.3" x2="190.9" y1="277" y2="280.8" />
<line class="st1" x1="160.3" x2="179.9" y1="277" y2="300.3" />
<line class="st1" x1="180.2" x2="221.7" y1="246.7" y2="240.3" />
<line class="st1" x1="216.1" x2="180.2" y1="259.3" y2="246.7" />
<line class="st1" x1="325" x2="300.4" y1="259.6" y2="264.9" />
<line class="st1" x1="300.4" x2="280.6" y1="264.9" y2="288.5" />
<line class="st1" x1="328.1" x2="345" y1="297.1" y2="285.7" />
<line class="st1" x1="401.3" x2="429.9" y1="263.5" y2="260.4" />
<line class="st1" x1="421.7" x2="401.3" y1="282.1" y2="263.5" />
<line class="st1" x1="510.6" x2="484.9" y1="244.5" y2="241.6" />
<line class="st1" x1="515.5" x2="491.2" y1="274.4" y2="279.2" />
<line class="st1" x1="601.4" x2="627.3" y1="239.3" y2="231.4" />
<line class="st1" x1="627.3" x2="648.5" y1="231.4" y2="207.8" />
<line class="st1" x1="600.7" x2="640.3" y1="266.7" y2="271" />
<line class="st1" x1="600.7" x2="632.6" y1="266.7" y2="292.2" />
</g>
<g id="Layer_2">
<circle class="st2" cx="306.3" cy="63" r="7.7" />
<circle class="st2" cx="264.8" cy="135.4" r="7.7" />
<circle class="st2" cx="107.5" cy="168.2" r="7.7" />
<circle class="st2" cx="128.8" cy="263.8" r="7.7" />
<circle class="st2" cx="136" cy="65.9" r="7.7" />
<circle class="st2" cx="404.8" cy="147" r="7.7" />
<circle class="st2" cx="363.3" cy="250.3" r="7.7" />
<circle class="st2" cx="556.3" cy="252.2" r="7.7" />
<circle class="st2" cx="482" cy="78.5" r="7.7" />
<circle class="st2" cx="510" cy="168.2" r="7.7" />
<circle class="st2" cx="624.8" cy="61.1" r="7.7" />
<circle class="st3" cx="271.6" cy="64.5" r="7.7" />
<circle class="st3" cx="323.7" cy="32.1" r="7.7" />
<circle class="st3" cx="287" cy="33.1" r="7.7" />
<circle class="st3" cx="342.1" cy="58.4" r="7.7" />
<circle class="st3" cx="244.3" cy="164.4" r="7.7" />
<circle class="st3" cx="279.3" cy="168.2" r="7.7" />
<circle class="st3" cx="298.6" cy="139.3" r="7.7" />
<circle class="st3" cx="247.5" cy="104.5" r="7.7" />
<circle class="st3" cx="157.9" cy="103.4" r="7.7" />
<circle class="st3" cx="178.5" cy="76.1" r="7.7" />
<circle class="st3" cx="176" cy="48.8" r="7.7" />
<circle class="st3" cx="156.3" cy="27.2" r="7.7" />
<circle class="st3" cx="125.1" cy="23.3" r="7.7" />
<circle class="st3" cx="101" cy="38.7" r="7.7" />
<circle class="st3" cx="92.2" cy="64.2" r="7.7" />
<circle class="st4" cx="66.2" cy="64.6" r="4.3" />
<circle class="st4" cx="81.5" cy="108.8" r="4.3" />
<circle class="st4" cx="81.9" cy="24" r="4.3" />
<circle class="st4" cx="182.1" cy="22.4" r="4.3" />
<circle class="st4" cx="200.3" cy="37.2" r="4.3" />
<circle class="st4" cx="201.7" cy="56.6" r="4.3" />
<circle class="st4" cx="201.5" cy="88" r="4.3" />
<circle class="st4" cx="182.6" cy="112.8" r="4.3" />
<circle class="st4" cx="163.1" cy="127.9" r="4.3" />
<circle class="st4" cx="166.6" cy="158.1" r="4.3" />
<circle class="st4" cx="54.4" cy="211.2" r="4.3" />
<circle class="st4" cx="180.2" cy="246.7" r="4.3" />
<circle class="st4" cx="216.1" cy="259.3" r="4.3" />
<circle class="st4" cx="221.7" cy="240.3" r="4.3" />
<circle class="st4" cx="228.8" cy="180.4" r="4.3" />
<circle class="st4" cx="250.7" cy="191.7" r="4.3" />
<circle class="st4" cx="296.1" cy="191.1" r="4.3" />
<circle class="st4" cx="300.4" cy="264.9" r="4.3" />
<circle class="st4" cx="280.6" cy="288.5" r="4.3" />
<circle class="st4" cx="328.1" cy="297.1" r="4.3" />
<circle class="st4" cx="421.7" cy="282.1" r="4.3" />
<circle class="st4" cx="429.9" cy="260.4" r="4.3" />
<circle class="st4" cx="484.9" cy="241.6" r="4.3" />
<circle class="st4" cx="468" cy="206.3" r="4.3" />
<circle class="st4" cx="491.2" cy="279.2" r="4.3" />
<circle class="st4" cx="318.7" cy="162.3" r="4.3" />
<circle class="st4" cx="328.7" cy="143.9" r="4.3" />
<circle class="st4" cx="322.3" cy="120.3" r="4.3" />
<circle class="st4" cx="260.2" cy="26.5" r="4.3" />
<circle class="st4" cx="361.5" cy="40.5" r="4.3" />
<circle class="st4" cx="369.7" cy="66.6" r="4.3" />
<circle class="st4" cx="388.4" cy="89.7" r="4.3" />
<circle class="st4" cx="410.7" cy="84.4" r="4.3" />
<circle class="st4" cx="445" cy="39.1" r="4.3" />
<circle class="st4" cx="465.1" cy="24.9" r="4.3" />
<circle class="st4" cx="537.5" cy="62.5" r="4.3" />
<circle class="st4" cx="534.1" cy="106.5" r="4.3" />
<circle class="st4" cx="553.9" cy="140.2" r="4.3" />
<circle class="st4" cx="565.5" cy="163.4" r="4.3" />
<circle class="st4" cx="632.6" cy="292.2" r="4.3" />
<circle class="st4" cx="640.3" cy="271" r="4.3" />
<circle class="st4" cx="627.3" cy="231.4" r="4.3" />
<circle class="st4" cx="648.5" cy="207.8" r="4.3" />
<circle class="st4" cx="650.1" cy="126.6" r="4.3" />
<circle class="st4" cx="669.6" cy="114.8" r="4.3" />
<circle class="st4" cx="659.1" cy="156.6" r="4.3" />
<circle class="st4" cx="430.7" cy="95.2" r="4.3" />
<circle class="st4" cx="179.9" cy="300.3" r="4.3" />
<circle class="st4" cx="190.9" cy="280.8" r="4.3" />
<circle class="st4" cx="73.7" cy="286.9" r="4.3" />
<circle class="st4" cx="45.4" cy="293.7" r="4.3" />
<circle class="st4" cx="173.3" cy="226.8" r="4.3" />
<circle class="st4" cx="151.8" cy="221" r="4.3" />
<circle class="st4" cx="71.4" cy="48.3" r="4.3" />
<circle class="st3" cx="102.8" cy="94.4" r="7.7" />
<circle class="st3" cx="83.5" cy="134.9" r="7.7" />
<circle class="st3" cx="66.3" cy="165.6" r="7.7" />
<circle class="st3" cx="77.6" cy="196.2" r="7.7" />
<circle class="st3" cx="96.6" cy="251.9" r="7.7" />
<circle class="st3" cx="99.8" cy="282.5" r="7.7" />
<circle class="st3" cx="134.6" cy="296.9" r="7.7" />
<circle class="st3" cx="160.3" cy="277" r="7.7" />
<circle class="st3" cx="156.3" cy="244.1" r="7.7" />
<circle class="st3" cx="325" cy="259.6" r="7.7" />
<circle class="st3" cx="344" cy="214.9" r="7.7" />
<circle class="st3" cx="406.7" cy="114.2" r="7.7" />
<circle class="st3" cx="466.6" cy="48.2" r="7.7" />
<circle class="st3" cx="498.1" cy="48.2" r="7.7" />
<circle class="st3" cx="515.8" cy="71.4" r="7.7" />
<circle class="st3" cx="510.3" cy="97.8" r="7.7" />
<circle class="st3" cx="542.5" cy="163.1" r="7.7" />
<circle class="st3" cx="488.1" cy="193" r="7.7" />
<circle class="st3" cx="510.6" cy="244.5" r="7.7" />
<circle class="st3" cx="515.5" cy="274.4" r="7.7" />
<circle class="st3" cx="538" cy="295" r="7.7" />
<circle class="st3" cx="562.8" cy="298.2" r="7.7" />
<circle class="st3" cx="586.2" cy="287.6" r="7.7" />
<circle class="st3" cx="600.7" cy="266.7" r="7.7" />
<circle class="st3" cx="600.7" cy="239.3" r="7.7" />
<circle class="st3" cx="588.9" cy="80.7" r="7.7" />
<circle class="st3" cx="586" cy="48.5" r="7.7" />
<circle class="st3" cx="606.6" cy="24.6" r="7.7" />
<circle class="st3" cx="638" cy="23" r="7.7" />
<circle class="st3" cx="659.3" cy="40.8" r="7.7" />
<circle class="st3" cx="663.1" cy="71.4" r="7.7" />
<circle class="st3" cx="645.8" cy="96.2" r="7.7" />
<circle class="st3" cx="479.4" cy="155.4" r="7.7" />
<circle class="st3" cx="448.9" cy="74.9" r="7.7" />
<circle class="st3" cx="430.5" cy="167.7" r="7.7" />
<circle class="st3" cx="398" cy="229.4" r="7.7" />
<circle class="st3" cx="401.3" cy="263.5" r="7.7" />
<circle class="st3" cx="378.7" cy="286.9" r="7.7" />
<circle class="st3" cx="345" cy="285.7" r="7.7" />
<circle class="st3" cx="141.6" cy="146.3" r="7.7" />
<circle class="st3" cx="228.2" cy="134.1" r="7.7" />
</g>
<g id="Layer_4">
<g>
</g>
<g>
</g>
<g>
</g>
<g>
</g>
<g>
</g>
<g>
</g>
<g>
</g>
<g>
</g>
<g>
</g>
<g>
</g>
</g>
</g></svg>