<?xml version='1.0' encoding='utf-8'?>
<svg height="340" style="max-width: 100%; height: auto; font: 10px sans-serif;" viewBox="-70,-30,880,340" width="900" xmlns="http://www.w3.org/2000/svg">
<g transform="rotate(90 450.0 170.0)"><style type="text/css">.st0 {
    fill: none;
    stroke: hsl(0, 0%, 86%);
}

.st1 {
    fill: hsl(0, 0%, 63%);
}

.st2 {
    fill: none;
    stroke: hsl(7, 85%, 62%);
    stroke-width: 2;
}

.st3 {
    fill: none;
    stroke: hsl(128, 47%, 51%);
    stroke-width: 2;
}</style>
<g id="Layer_1">
<line class="st2" x1="58.5" x2="58.5" y1="183.8" y2="143.7" />
<line class="st3" x1="70" x2="70" y1="165.8" y2="194" />
<line class="st2" x1="81.6" x2="81.6" y1="165.8" y2="221.1" />
<line class="st2" x1="93.1" x2="93.1" y1="207.2" y2="238.7" />
<line class="st3" x1="127.7" x2="127.7" y1="187.2" y2="240.6" />
<line class="st3" x1="173.9" x2="173.9" y1="87.9" y2="131.7" />
<line class="st2" x1="208.5" x2="208.5" y1="155.5" y2="189.5" />
<line class="st2" x1="220.1" x2="220.1" y1="166.7" y2="204.4" />
<line class="st3" x1="243.2" x2="243.2" y1="198.2" y2="233.3" />
<line class="st2" x1="277.8" x2="277.8" y1="135.1" y2="173.8" />
<line class="st2" x1="289.3" x2="289.3" y1="162" y2="200.7" />
<line class="st2" x1="370.1" x2="370.1" y1="142.7" y2="188.9" />
<line class="st2" x1="381.6" x2="381.6" y1="163.1" y2="192.6" />
<line class="st3" x1="393.2" x2="393.2" y1="145.8" y2="182.1" />
<line class="st3" x1="300.9" x2="300.9" y1="144.6" y2="215.7" />
<line class="st2" x1="323.9" x2="323.9" y1="129.6" y2="191.7" />
<line class="st2" x1="347" x2="347" y1="77.1" y2="124.5" />
<line class="st3" x1="335.5" x2="335.5" y1="106" y2="182.3" />
<line class="st2" x1="358.6" x2="358.6" y1="94.4" y2="181.3" />
<line class="st3" x1="312.4" x2="312.4" y1="136.3" y2="196.6" />
<line class="st2" x1="254.7" x2="254.7" y1="198.2" y2="251.9" />
<line class="st2" x1="266.2" x2="266.2" y1="218.5" y2="277.5" />
<line class="st2" x1="231.6" x2="231.6" y1="185.6" y2="219.8" />
<line class="st3" x1="185.5" x2="185.5" y1="71.6" y2="109.8" />
<line class="st2" x1="197" x2="197" y1="85.2" y2="174" />
<line class="st3" x1="150.8" x2="150.8" y1="136.6" y2="250.2" />
<line class="st3" x1="162.4" x2="162.4" y1="119.3" y2="193.4" />
<line class="st3" x1="116.2" x2="116.2" y1="236.5" y2="262" />
<line class="st2" x1="139.3" x2="139.3" y1="210.9" y2="240.6" />
<line class="st2" x1="104.7" x2="104.7" y1="220.5" y2="266" />
<line class="st2" x1="404.7" x2="404.7" y1="163.9" y2="202" />
<line class="st3" x1="416.3" x2="416.3" y1="179.8" y2="202" />
<line class="st2" x1="427.8" x2="427.8" y1="199.6" y2="163.9" />
<line class="st3" x1="439.4" x2="439.4" y1="177.9" y2="202" />
<line class="st2" x1="450.9" x2="450.9" y1="156.2" y2="219.2" />
<line class="st2" x1="462.4" x2="462.4" y1="199.6" y2="161.7" />
<line class="st2" x1="474" x2="474" y1="233.9" y2="173.6" />
<line class="st2" x1="485.5" x2="485.5" y1="258.6" y2="216.3" />
<line class="st2" x1="497.1" x2="497.1" y1="249.3" y2="280.1" />
<line class="st3" x1="508.6" x2="508.6" y1="278.3" y2="216.3" />
<line class="st2" x1="520.1" x2="520.1" y1="241" y2="216.3" />
<line class="st2" x1="531.7" x2="531.7" y1="269" y2="230.4" />
<line class="st2" x1="543.2" x2="543.2" y1="275.4" y2="244.8" />
<line class="st3" x1="554.8" x2="554.8" y1="233.9" y2="190.9" />
<line class="st3" x1="566.3" x2="566.3" y1="189.9" y2="226.9" />
<line class="st2" x1="577.8" x2="577.8" y1="225.6" y2="173.6" />
<line class="st3" x1="589.4" x2="589.4" y1="191.7" y2="226.9" />
<line class="st3" x1="600.9" x2="600.9" y1="202" y2="150.3" />
<line class="st3" x1="612.5" x2="612.5" y1="154.5" y2="114.3" />
<line class="st2" x1="624" x2="624" y1="119.8" y2="153.6" />
<line class="st2" x1="635.6" x2="635.6" y1="130.5" y2="196.2" />
<line class="st3" x1="647.1" x2="647.1" y1="151.9" y2="89.4" />
<line class="st3" x1="658.6" x2="658.6" y1="65.9" y2="127.4" />
<line class="st3" x1="670.2" x2="670.2" y1="51.2" y2="92.9" />
<line class="st3" x1="681.7" x2="681.7" y1="35.8" y2="75.2" />
<line class="st2" x1="693.3" x2="693.3" y1="57.2" y2="108.6" />
</g>
<g id="Layer_5">
<line class="st2" x1="58.5" x2="53.9" y1="152.4" y2="152.4" />
<line class="st2" x1="63.1" x2="58.5" y1="179" y2="179" />
<line class="st3" x1="70" x2="65.5" y1="179" y2="179" />
<line class="st3" x1="74.6" x2="70" y1="169" y2="169" />
<line class="st2" x1="81.7" x2="77.1" y1="172.9" y2="172.9" />
<line class="st2" x1="86.1" x2="81.6" y1="220.2" y2="220.2" />
<line class="st2" x1="93.1" x2="88.6" y1="221.1" y2="221.1" />
<line class="st2" x1="97.7" x2="93.1" y1="224.9" y2="224.9" />
<line class="st2" x1="104.7" x2="100.1" y1="223.7" y2="223.7" />
<line class="st3" x1="116.2" x2="111.6" y1="256.3" y2="256.3" />
<line class="st3" x1="120.8" x2="116.2" y1="244" y2="244" />
<line class="st3" x1="128.1" x2="123.5" y1="228.6" y2="228.6" />
<line class="st2" x1="139.3" x2="134.7" y1="214.3" y2="214.3" />
<line class="st2" x1="143.9" x2="139.3" y1="226.3" y2="226.3" />
<line class="st3" x1="150.8" x2="146.3" y1="230.6" y2="230.6" />
<line class="st3" x1="132.3" x2="127.7" y1="221.1" y2="221.1" />
<line class="st2" x1="109.2" x2="104.7" y1="259.7" y2="259.7" />
<line class="st3" x1="155.4" x2="150.8" y1="163.4" y2="163.4" />
<line class="st3" x1="162.4" x2="157.8" y1="168.5" y2="168.5" />
<line class="st3" x1="166.9" x2="162.4" y1="125.2" y2="125.2" />
<line class="st3" x1="173.9" x2="169.3" y1="112.4" y2="112.4" />
<line class="st3" x1="178.5" x2="173.9" y1="99.7" y2="99.7" />
<line class="st3" x1="185.5" x2="180.9" y1="96" y2="96" />
<line class="st2" x1="197" x2="192.4" y1="92.1" y2="92.1" />
<line class="st3" x1="190" x2="185.5" y1="94.4" y2="94.4" />
<line class="st2" x1="201.6" x2="197" y1="167.2" y2="167.2" />
<line class="st2" x1="208.5" x2="204" y1="167.6" y2="167.6" />
<line class="st2" x1="213.1" x2="208.5" y1="168.5" y2="168.5" />
<line class="st2" x1="220.6" x2="216" y1="172.5" y2="172.5" />
<line class="st2" x1="224.6" x2="220.1" y1="192.1" y2="192.1" />
<line class="st2" x1="231.6" x2="227" y1="191" y2="191" />
<line class="st2" x1="236.2" x2="231.6" y1="217.6" y2="217.6" />
<line class="st3" x1="243.2" x2="238.6" y1="222.1" y2="222.1" />
<line class="st3" x1="247.7" x2="243.2" y1="205.3" y2="205.3" />
<line class="st2" x1="254.7" x2="250.1" y1="205.3" y2="205.3" />
<line class="st2" x1="259.3" x2="254.7" y1="219.8" y2="219.8" />
<line class="st2" x1="266.2" x2="261.7" y1="228.6" y2="228.6" />
<line class="st2" x1="270.8" x2="266.2" y1="256.1" y2="256.1" />
<line class="st2" x1="277.8" x2="273.2" y1="148.3" y2="148.3" />
<line class="st2" x1="282.3" x2="277.8" y1="167.6" y2="167.6" />
<line class="st2" x1="289.3" x2="284.8" y1="166.9" y2="166.9" />
<line class="st2" x1="293.9" x2="289.3" y1="189" y2="189" />
<line class="st3" x1="300.9" x2="296.3" y1="189" y2="189" />
<line class="st3" x1="305.4" x2="300.9" y1="188" y2="188" />
<line class="st3" x1="312.4" x2="307.8" y1="184.5" y2="184.5" />
<line class="st3" x1="317" x2="312.4" y1="142.2" y2="142.2" />
<line class="st2" x1="323.9" x2="319.4" y1="144.6" y2="144.6" />
<line class="st2" x1="328.5" x2="323.9" y1="150.1" y2="150.1" />
<line class="st3" x1="335.5" x2="330.9" y1="114.1" y2="114.1" />
<line class="st3" x1="340.1" x2="335.5" y1="155.7" y2="155.7" />
<line class="st2" x1="347" x2="342.5" y1="106.9" y2="106.9" />
<line class="st2" x1="351.6" x2="347" y1="115.1" y2="115.1" />
<line class="st2" x1="358.6" x2="354" y1="112" y2="112" />
<line class="st2" x1="363.6" x2="359" y1="177.3" y2="177.3" />
<line class="st2" x1="370.1" x2="365.5" y1="166.8" y2="166.8" />
<line class="st2" x1="374.7" x2="370.1" y1="166.8" y2="166.8" />
<line class="st2" x1="381.6" x2="377.1" y1="168.1" y2="168.1" />
<line class="st2" x1="386.2" x2="381.6" y1="173.6" y2="173.6" />
<line class="st3" x1="393.2" x2="388.6" y1="175.2" y2="175.2" />
<line class="st3" x1="397.8" x2="393.2" y1="172.6" y2="172.6" />
<line class="st2" x1="404.7" x2="400.2" y1="167.2" y2="167.2" />
<line class="st2" x1="409.3" x2="404.7" y1="190.3" y2="190.3" />
<line class="st3" x1="416.3" x2="411.7" y1="187.4" y2="187.4" />
<line class="st3" x1="420.7" x2="416.1" y1="182.5" y2="182.5" />
<line class="st2" x1="427.8" x2="423.2" y1="182.1" y2="182.1" />
<line class="st2" x1="432.4" x2="427.8" y1="189.3" y2="189.3" />
<line class="st3" x1="439.4" x2="434.8" y1="188.6" y2="188.6" />
<line class="st3" x1="443.9" x2="439.4" y1="180.7" y2="180.7" />
<line class="st2" x1="450.9" x2="446.3" y1="184.6" y2="184.6" />
<line class="st2" x1="455.5" x2="450.9" y1="190.6" y2="190.6" />
<line class="st2" x1="462.4" x2="457.9" y1="193.5" y2="193.5" />
<line class="st2" x1="467" x2="462.4" y1="195.5" y2="195.5" />
<line class="st2" x1="474" x2="469.4" y1="198.8" y2="198.8" />
<line class="st2" x1="478.5" x2="474" y1="221.7" y2="221.7" />
<line class="st2" x1="485.5" x2="481" y1="224" y2="224" />
<line class="st2" x1="490.1" x2="485.5" y1="252.7" y2="252.7" />
<line class="st2" x1="497.1" x2="492.5" y1="252.7" y2="252.7" />
<line class="st2" x1="501.6" x2="497.1" y1="274.5" y2="274.5" />
<line class="st3" x1="508.6" x2="504" y1="268.1" y2="268.1" />
<line class="st3" x1="513.2" x2="508.6" y1="221.5" y2="221.5" />
<line class="st2" x1="520.1" x2="515.6" y1="223.3" y2="223.3" />
<line class="st2" x1="524.7" x2="520.1" y1="233" y2="233" />
<line class="st2" x1="531.7" x2="527.1" y1="239" y2="239" />
<line class="st2" x1="536.3" x2="531.7" y1="264.4" y2="264.4" />
<line class="st2" x1="543.2" x2="538.7" y1="264.4" y2="264.4" />
<line class="st2" x1="547.8" x2="543.2" y1="270.6" y2="270.6" />
<line class="st3" x1="554.8" x2="550.2" y1="227.2" y2="227.2" />
<line class="st3" x1="559.3" x2="554.8" y1="197.5" y2="197.5" />
<line class="st3" x1="566.3" x2="561.7" y1="198.6" y2="198.6" />
<line class="st3" x1="570.9" x2="566.3" y1="193.8" y2="193.8" />
<line class="st2" x1="577.8" x2="573.3" y1="197.5" y2="197.5" />
<line class="st2" x1="582.4" x2="577.8" y1="221.5" y2="221.5" />
<line class="st3" x1="589.4" x2="584.8" y1="219.2" y2="219.2" />
<line class="st3" x1="594" x2="589.4" y1="195.6" y2="195.6" />
<line class="st3" x1="600.9" x2="596.4" y1="195.6" y2="195.6" />
<line class="st3" x1="605.5" x2="600.9" y1="159.3" y2="159.3" />
<line class="st3" x1="612.5" x2="607.9" y1="151" y2="151" />
<line class="st3" x1="617" x2="612.5" y1="122.2" y2="122.2" />
<line class="st2" x1="624" x2="619.4" y1="125.2" y2="125.2" />
<line class="st2" x1="628.6" x2="624" y1="129.6" y2="129.6" />
<line class="st2" x1="635.6" x2="631" y1="135.3" y2="135.3" />
<line class="st2" x1="640.1" x2="635.6" y1="191.5" y2="191.5" />
<line class="st3" x1="647.1" x2="642.5" y1="151" y2="151" />
<line class="st3" x1="651.7" x2="647.1" y1="98" y2="98" />
<line class="st3" x1="658.6" x2="654.1" y1="102" y2="102" />
<line class="st3" x1="663.2" x2="658.6" y1="73.6" y2="73.6" />
<line class="st3" x1="670.2" x2="665.6" y1="71.4" y2="71.4" />
<line class="st3" x1="674.7" x2="670.2" y1="63.7" y2="63.7" />
<line class="st3" x1="681.7" x2="677.1" y1="71.7" y2="71.7" />
<line class="st3" x1="686.3" x2="681.7" y1="42.8" y2="42.8" />
<line class="st2" x1="693.3" x2="688.7" y1="65.3" y2="65.3" />
<line class="st2" x1="697.8" x2="693.3" y1="79.7" y2="79.7" />
</g>
</g></svg>