<?xml version='1.0' encoding='utf-8'?>
<svg height="340" style="max-width: 100%; height: auto; font: 10px sans-serif;" viewBox="-70,-30,880,340" width="900" xmlns="http://www.w3.org/2000/svg">
<style type="text/css">.st0 {
    opacity: 0.7;
    fill: hsl(0, 91%, 54%);
}

.st1 {
    fill: hsl(0, 0%, 63%);
}

.st2 {
    fill: none;
    stroke: hsl(0, 0%, 83%);
    stroke-width: 2;
    stroke-miterlimit: 10;
}

.st3 {
    fill: hsl(0, 0%, 21%);
}

.st4 {
    fill: none;
    stroke: hsl(0, 0%, 19%);
    stroke-width: 2;
    stroke-miterlimit: 10;
}</style>
<g id="Layer_3">
<rect class="st0" height="126.1" width="42" x="438.7" y="143.4" />
<rect class="st0" height="172.6" width="42" x="484.9" y="97" />
<rect class="st0" height="73.2" width="42" x="531.1" y="196.3" />
<rect class="st0" height="109.6" width="42" x="577.3" y="160" />
<rect class="st0" height="94.1" width="42" x="623.6" y="175.4" />
</g>
<g id="Layer_2">
<line class="st2" x1="58.9" x2="337.8" y1="270.5" y2="270.5" />
<g>
<line class="st2" x1="105.7" x2="105.7" y1="270.5" y2="264.7" />
<line class="st2" x1="151.9" x2="151.9" y1="270.5" y2="264.7" />
<line class="st2" x1="198.1" x2="198.1" y1="270.5" y2="264.7" />
<line class="st2" x1="244.3" x2="244.3" y1="270.5" y2="264.7" />
<line class="st2" x1="290.6" x2="290.6" y1="270.5" y2="264.7" />
<line class="st2" x1="336.8" x2="336.8" y1="270.5" y2="264.7" />
</g>
<line class="st2" x1="59.4" x2="59.4" y1="270.5" y2="38.8" />
<g>
<line class="st2" x1="59.4" x2="65.2" y1="224.2" y2="224.2" />
<line class="st2" x1="59.4" x2="65.2" y1="178" y2="178" />
<line class="st2" x1="59.4" x2="65.2" y1="131.8" y2="131.8" />
<line class="st2" x1="59.4" x2="65.2" y1="85.6" y2="85.6" />
<line class="st2" x1="59.4" x2="65.2" y1="39.3" y2="39.3" />
</g>
<line class="st2" x1="412.9" x2="688.8" y1="270.5" y2="270.5" />
<g>
<line class="st2" x1="459.7" x2="459.7" y1="270.5" y2="264.7" />
<line class="st2" x1="505.9" x2="505.9" y1="270.5" y2="264.7" />
<line class="st2" x1="552.1" x2="552.1" y1="270.5" y2="264.7" />
<line class="st2" x1="598.3" x2="598.3" y1="270.5" y2="264.7" />
<line class="st2" x1="644.6" x2="644.6" y1="270.5" y2="264.7" />
</g>
<line class="st2" x1="413.4" x2="413.4" y1="270.5" y2="38.8" />
<g>
<line class="st2" x1="413.4" x2="419.2" y1="224.2" y2="224.2" />
<line class="st2" x1="413.4" x2="419.2" y1="178" y2="178" />
<line class="st2" x1="413.4" x2="419.2" y1="131.8" y2="131.8" />
<line class="st2" x1="413.4" x2="419.2" y1="85.6" y2="85.6" />
<line class="st2" x1="413.4" x2="419.2" y1="39.3" y2="39.3" />
</g>
</g>
<g id="Layer_1">
<circle class="st3" cx="105.3" cy="199.8" r="3.5" />
<circle class="st3" cx="184.5" cy="108" r="3.5" />
<circle class="st3" cx="282.3" cy="85" r="3.5" />
<circle class="st3" cx="228" cy="205.5" r="3.5" />
<circle class="st3" cx="119.5" cy="69.5" r="3.5" />
<circle class="st3" cx="297" cy="180.7" r="3.5" />
<g>
<g>
<line class="st4" x1="95" x2="144" y1="69.5" y2="69.5" />
<g>
<rect class="st3" height="13" width="2" x="94" y="63" />
</g>
<g>
<rect class="st3" height="13" width="2" x="143" y="63" />
</g>
</g>
</g>
<g>
<g>
<line class="st4" x1="119.5" x2="119.5" y1="50.4" y2="88.6" />
<g>
<rect class="st3" height="2" width="13" x="113" y="49.4" />
</g>
<g>
<rect class="st3" height="2" width="13" x="113" y="87.6" />
</g>
</g>
</g>
<g>
<g>
<line class="st4" x1="184.5" x2="184.5" y1="66.5" y2="149.5" />
<g>
<rect class="st3" height="2" width="13" x="178" y="65.5" />
</g>
<g>
<rect class="st3" height="2" width="13" x="178" y="148.5" />
</g>
</g>
</g>
<g>
<g>
<line class="st4" x1="162.5" x2="206.5" y1="108" y2="108" />
<g>
<rect class="st3" height="13" width="2" x="161.5" y="101.5" />
</g>
<g>
<rect class="st3" height="13" width="2" x="205.5" y="101.5" />
</g>
</g>
</g>
<g>
<g>
<line class="st4" x1="85.5" x2="125.2" y1="199.8" y2="199.8" />
<g>
<rect class="st3" height="13" width="2" x="84.5" y="193.3" />
</g>
<g>
<rect class="st3" height="13" width="2" x="124.2" y="193.3" />
</g>
</g>
</g>
<g>
<g>
<line class="st4" x1="105.3" x2="105.3" y1="176.4" y2="223.2" />
<g>
<rect class="st3" height="2" width="13" x="98.8" y="175.4" />
</g>
<g>
<rect class="st3" height="2" width="13" x="98.8" y="222.2" />
</g>
</g>
</g>
<g>
<g>
<line class="st4" x1="195" x2="261" y1="205.5" y2="205.5" />
<g>
<rect class="st3" height="13" width="2" x="194" y="199" />
</g>
<g>
<rect class="st3" height="13" width="2" x="260" y="199" />
</g>
</g>
</g>
<g>
<g>
<line class="st4" x1="228" x2="228" y1="167" y2="244" />
<g>
<rect class="st3" height="2" width="13" x="221.5" y="166" />
</g>
<g>
<rect class="st3" height="2" width="13" x="221.5" y="243" />
</g>
</g>
</g>
<g>
<g>
<line class="st4" x1="297" x2="297" y1="165.9" y2="195.5" />
<g>
<rect class="st3" height="2" width="13" x="290.5" y="164.9" />
</g>
<g>
<rect class="st3" height="2" width="13" x="290.5" y="194.5" />
</g>
</g>
</g>
<g>
<g>
<line class="st4" x1="284" x2="310" y1="180.7" y2="180.7" />
<g>
<rect class="st3" height="13" width="2" x="283" y="174.2" />
</g>
<g>
<rect class="st3" height="13" width="2" x="309" y="174.2" />
</g>
</g>
</g>
<g>
<g>
<line class="st4" x1="282.3" x2="282.3" y1="59.5" y2="110.5" />
<g>
<rect class="st3" height="2" width="13" x="275.8" y="58.5" />
</g>
<g>
<rect class="st3" height="2" width="13" x="275.8" y="109.5" />
</g>
</g>
</g>
<g>
<g>
<line class="st4" x1="459.7" x2="459.7" y1="117.9" y2="168.9" />
<g>
<rect class="st3" height="2" width="13" x="453.2" y="116.9" />
</g>
<g>
<rect class="st3" height="2" width="13" x="453.2" y="167.9" />
</g>
</g>
</g>
<g>
<g>
<line class="st4" x1="505.9" x2="505.9" y1="82.5" y2="111.5" />
<g>
<rect class="st3" height="2" width="13" x="499.4" y="81.5" />
</g>
<g>
<rect class="st3" height="2" width="13" x="499.4" y="110.5" />
</g>
</g>
</g>
<g>
<g>
<line class="st4" x1="552.1" x2="552.1" y1="151.5" y2="241.6" />
<g>
<rect class="st3" height="2" width="13" x="545.6" y="150.5" />
</g>
<g>
<rect class="st3" height="2" width="13" x="545.6" y="240.6" />
</g>
</g>
</g>
<g>
<g>
<line class="st4" x1="598.3" x2="598.3" y1="117.9" y2="202.1" />
<g>
<rect class="st3" height="2" width="13" x="591.8" y="116.9" />
</g>
<g>
<rect class="st3" height="2" width="13" x="591.8" y="201.1" />
</g>
</g>
</g>
<g>
<g>
<line class="st4" x1="644.6" x2="644.6" y1="161" y2="189.8" />
<g>
<rect class="st3" height="2" width="13" x="638.1" y="160" />
</g>
<g>
<rect class="st3" height="2" width="13" x="638.1" y="188.8" />
</g>
</g>
</g>
<g>
<g>
<line class="st4" x1="265.8" x2="298.8" y1="85" y2="85" />
<g>
<rect class="st3" height="13" width="2" x="264.8" y="78.5" />
</g>
<g>
<rect class="st3" height="13" width="2" x="297.8" y="78.5" />
</g>
</g>
</g>
</g>
</svg>