<?xml version='1.0' encoding='utf-8'?>
<svg height="340" style="max-width: 100%; height: auto; font: 10px sans-serif;" viewBox="-70,-30,880,340" width="900" xmlns="http://www.w3.org/2000/svg">
<style type="text/css">.st0 {
    fill: none;
    stroke: hsl(0, 0%, 81%);
    stroke-width: 0.5;
    stroke-miterlimit: 10;
}

.st1 {
    fill: none;
    stroke: hsl(0, 0%, 56%);
    stroke-miterlimit: 10;
}

.st2 {
    fill: hsl(0, 0%, 64%);
}

.st3 {
    fill: none;
    stroke: hsl(16, 93%, 48%);
    stroke-width: 3;
    stroke-linecap: round;
    stroke-miterlimit: 10;
}

.st4 {
    opacity: 0.6;
}

.st5 {
    fill: hsl(0, 100%, 54%);
}

.st6 {
    fill: hsl(0, 0%, 18%);
}

.st7 {
    fill: hsl(48, 98%, 51%);
}

.st8 {
    fill: none;
    stroke: hsl(47, 98%, 46%);
    stroke-width: 3;
    stroke-linecap: round;
    stroke-miterlimit: 10;
}

.st9 {
    fill: hsl(47, 100%, 54%);
}</style>
<circle class="st0" cx="193.1" cy="163.6" r="143" />
<g>
<g>
<line class="st1" x1="193" x2="193" y1="164.2" y2="11.6" />
<g>
<polygon class="st2" points="198,15.6 197.1,16.4 193,12 189,16.4 188.1,15.6 193,10.3    " />
</g>
</g>
</g>
<g>
<g>
<circle class="st0" cx="193.1" cy="163.6" r="28.6" />
<circle class="st0" cx="193.1" cy="163.6" r="57.2" />
<circle class="st0" cx="193.1" cy="163.6" r="85.8" />
<circle class="st0" cx="193.1" cy="163.6" r="114.4" />
</g>
</g>
<g>
<g>
<line class="st1" x1="193" x2="311.6" y1="164.2" y2="68.1" />
<g>
<polygon class="st2" points="311.6,74.5 310.4,74.3 311.3,68.4 305.4,68 305.4,66.8 312.6,67.3    " />
</g>
</g>
</g>
<g>
<g>
<line class="st1" x1="193" x2="342.3" y1="164.2" y2="195.9" />
<g>
<polygon class="st2" points="337.4,199.9 336.8,198.8 341.8,195.8 338.4,190.9 339.4,190.3 343.6,196.2    " />
</g>
</g>
</g>
<g>
<g>
<line class="st1" x1="193" x2="259.9" y1="164.2" y2="301.3" />
<g>
<polygon class="st2" points="253.8,299.9 254.2,298.8 259.7,300.9 261.4,295.2 262.6,295.6 260.5,302.5    " />
</g>
</g>
</g>
<g>
<g>
<line class="st1" x1="193" x2="128.6" y1="164.2" y2="302.4" />
<g>
<polygon class="st2" points="125.8,296.8 126.9,296.4 128.8,302 134.2,299.8 134.7,300.9 128,303.6    " />
</g>
</g>
</g>
<g>
<g>
<line class="st1" x1="193" x2="44.4" y1="164.2" y2="198.5" />
<g>
<polygon class="st2" points="47.1,192.8 48.1,193.5 44.8,198.4 50,201.3 49.4,202.4 43.1,198.8    " />
</g>
</g>
</g>
<g>
<g>
<line class="st1" x1="193" x2="72.8" y1="164.2" y2="70.2" />
<g>
<polygon class="st2" points="79,68.8 79.1,70 73.2,70.5 74.1,76.3 72.9,76.5 71.8,69.4    " />
</g>
</g>
</g>
<g>
<g>
<line class="st3" x1="226.4" x2="193.1" y1="136.7" y2="142.2" />
<line class="st3" x1="263" x2="226.4" y1="178.5" y2="136.7" />
<line class="st3" x1="218.1" x2="263" y1="215" y2="178.5" />
<line class="st3" x1="144.7" x2="218.1" y1="267.3" y2="215" />
<line class="st3" x1="158.2" x2="144.7" y1="171.7" y2="267.3" />
<line class="st3" x1="86" x2="158.2" y1="80" y2="171.7" />
<line class="st3" x1="193.1" x2="86" y1="142.2" y2="80" />
</g>
</g>
<g class="st4">
<g>
<polygon class="st5" points="158.2,170.4 144.7,266 218.1,213.8 263,177.2 226.4,135.4 193.1,140.9 86,78.8   " />
</g>
</g>
<g>
<circle class="st5" cx="193.1" cy="142.2" r="5.3" />
</g>
<g>
<circle class="st5" cx="226.4" cy="136.7" r="5.3" />
</g>
<g>
<circle class="st5" cx="263" cy="178.5" r="5.3" />
</g>
<g>
<circle class="st5" cx="218.1" cy="215" r="5.3" />
</g>
<g>
<circle class="st5" cx="144.7" cy="267.3" r="5.3" />
</g>
<g>
<circle class="st5" cx="158.2" cy="171.7" r="5.3" />
</g>
<g>
<circle class="st5" cx="86" cy="80" r="5.3" />
</g>
<circle class="st0" cx="536.9" cy="163.6" r="143" />
<g>
<g>
<line class="st1" x1="536.9" x2="536.9" y1="163.8" y2="12.8" />
<g>
<polygon class="st2" points="541.8,16.8 540.9,17.6 536.9,13.2 532.9,17.6 532,16.8 536.9,11.5    " />
</g>
</g>
</g>
<g>
<g>
<circle class="st0" cx="536.9" cy="163.6" r="28.6" />
<circle class="st0" cx="536.9" cy="163.6" r="57.2" />
<circle class="st0" cx="536.9" cy="163.6" r="85.8" />
<circle class="st0" cx="536.9" cy="163.6" r="114.4" />
</g>
</g>
<g>
<g>
<line class="st1" x1="536.9" x2="617" y1="163.8" y2="35.7" />
<g>
<polygon class="st2" points="619,41.7 617.8,41.9 616.7,36.1 611,37.7 610.7,36.5 617.6,34.6    " />
</g>
</g>
</g>
<g>
<g>
<line class="st1" x1="536.9" x2="673.8" y1="163.8" y2="100" />
<g>
<polygon class="st2" points="672.3,106.1 671.2,105.7 673.4,100.2 667.8,98.4 668.1,97.2 675,99.4    " />
</g>
</g>
</g>
<g>
<g>
<line class="st1" x1="536.9" x2="686.5" y1="163.8" y2="184.9" />
<g>
<polygon class="st2" points="681.9,189.2 681.2,188.2 686,184.8 682.3,180.2 683.2,179.4 687.8,185    " />
</g>
</g>
</g>
<g>
<g>
<line class="st1" x1="536.9" x2="652.6" y1="163.8" y2="260.9" />
<g>
<polygon class="st2" points="646.4,262.1 646.4,260.9 652.3,260.6 651.5,254.8 652.7,254.6 653.6,261.8    " />
</g>
</g>
</g>
<g>
<g>
<line class="st1" x1="536.9" x2="581.1" y1="163.8" y2="308.3" />
<g>
<polygon class="st2" points="575.2,305.9 575.8,304.9 580.9,307.8 583.5,302.5 584.6,303 581.4,309.5    " />
</g>
</g>
</g>
<g>
<g>
<line class="st1" x1="536.9" x2="495.3" y1="163.8" y2="309" />
<g>
<polygon class="st2" points="491.6,303.9 492.7,303.3 495.4,308.6 500.5,305.5 501.1,306.6 494.9,310.3    " />
</g>
</g>
</g>
<g>
<g>
<line class="st1" x1="536.9" x2="422.9" y1="163.8" y2="262.9" />
<g>
<polygon class="st2" points="422.7,256.6 423.9,256.7 423.2,262.6 429.2,262.8 429.1,264 421.9,263.8    " />
</g>
</g>
</g>
<g>
<g>
<line class="st1" x1="536.9" x2="387.7" y1="163.8" y2="187.5" />
<g>
<polygon class="st2" points="390.9,182 391.8,182.7 388.2,187.4 393.1,190.7 392.4,191.7 386.4,187.7    " />
</g>
</g>
</g>
<g>
<g>
<line class="st1" x1="536.9" x2="398.9" y1="163.8" y2="102.4" />
<g>
<polygon class="st2" points="404.5,99.5 404.9,100.7 399.3,102.6 401.7,108 400.5,108.5 397.7,101.9    " />
</g>
</g>
</g>
<g>
<g>
<line class="st1" x1="536.9" x2="454.6" y1="163.8" y2="37.1" />
<g>
<polygon class="st2" points="460.9,37.8 460.6,39 454.9,37.5 453.9,43.4 452.7,43.2 453.9,36.1    " />
</g>
</g>
</g>
<g>
<g>
<g>
<path class="st6" d="M546.9,137.9v-0.5l0.6-0.6c1.5-1.4,2.2-2.2,2.2-3.1c0-0.6-0.3-1.1-1.2-1.1c-0.5,0-1,0.3-1.2,0.5l-0.3-0.6     c0.4-0.3,1-0.6,1.7-0.6c1.3,0,1.8,0.9,1.8,1.7c0,1.1-0.8,2-2,3.1l-0.5,0.4v0h2.6v0.7H546.9z" />
</g>
<g>
<path class="st6" d="M549.3,109.3v-1.6h-2.7v-0.5l2.6-3.7h0.9v3.6h0.8v0.6h-0.8v1.6H549.3z M549.3,107.1v-2c0-0.3,0-0.6,0-0.9h0     c-0.2,0.3-0.3,0.6-0.5,0.9l-1.4,2v0H549.3z" />
</g>
<g>
<path class="st6" d="M550.2,75.5c-0.2,0-0.4,0-0.6,0c-1.2,0.2-1.9,1.1-2,2.1h0c0.3-0.4,0.8-0.7,1.4-0.7c1,0,1.8,0.7,1.8,1.9     c0,1.1-0.7,2.1-1.9,2.1c-1.3,0-2.1-1-2.1-2.5c0-1.2,0.4-2.1,1-2.6c0.5-0.5,1.1-0.8,1.9-0.9c0.2,0,0.4,0,0.6,0V75.5z M550,78.8     c0-0.8-0.5-1.3-1.2-1.3c-0.5,0-0.9,0.3-1.1,0.7c-0.1,0.1-0.1,0.2-0.1,0.4c0,1,0.5,1.7,1.3,1.7C549.6,80.2,550,79.7,550,78.8z" />
</g>
<g>
<path class="st6" d="M546.8,50.7c0-0.7,0.4-1.3,1.2-1.6l0,0c-0.6-0.3-0.9-0.8-0.9-1.3c0-0.9,0.8-1.6,1.8-1.6     c1.1,0,1.7,0.7,1.7,1.4c0,0.5-0.2,1-1,1.4v0c0.7,0.3,1.2,0.8,1.2,1.5c0,1-0.9,1.7-2,1.7C547.6,52.3,546.8,51.5,546.8,50.7z      M550,50.6c0-0.7-0.5-1.1-1.3-1.3c-0.7,0.2-1.1,0.6-1.1,1.2c0,0.6,0.4,1.1,1.2,1.1C549.5,51.7,550,51.2,550,50.6z M547.8,47.7     c0,0.6,0.4,0.9,1.1,1.1c0.5-0.2,0.9-0.5,0.9-1.1c0-0.5-0.3-1-1-1C548.2,46.8,547.8,47.2,547.8,47.7z" />
</g>
<g>
<path class="st6" d="M548.6,18.5L548.6,18.5l-1,0.5l-0.2-0.6l1.3-0.7h0.7v5.9h-0.8V18.5z" />
<path class="st6" d="M555.4,20.6c0,2-0.7,3.1-2,3.1c-1.1,0-1.9-1.1-1.9-3c0-2,0.8-3,2-3C554.7,17.6,555.4,18.7,555.4,20.6z      M552.2,20.7c0,1.5,0.5,2.4,1.2,2.4c0.8,0,1.2-0.9,1.2-2.4c0-1.4-0.4-2.4-1.2-2.4C552.7,18.2,552.2,19.1,552.2,20.7z" />
</g>
</g>
</g>
<g class="st4">
<g>
<polygon class="st7" points="432.9,117.1 466.7,174.8 515.8,182.4 501.9,287.3 562.4,245.7 614,228 572.7,168.6 641,115.3     560.1,127.3 537.3,27.8 510.1,121.7   " />
</g>
</g>
<g>
<g>
<polygon class="st8" points="432.4,117.1 466.3,174.8 515.3,182.4 501.5,287.3 562,245.7 613.6,228 572.3,168.6 640.6,115.3     559.6,127.3 536.9,27.8 509.7,121.7   " />
</g>
</g>
<g>
<circle class="st9" cx="536.9" cy="27.8" r="5.3" />
</g>
<g>
<circle class="st9" cx="559.6" cy="127.3" r="5.3" />
</g>
<g>
<circle class="st9" cx="640.6" cy="115.3" r="5.3" />
</g>
<g>
<circle class="st9" cx="572.3" cy="168.6" r="5.3" />
</g>
<g>
<circle class="st9" cx="613.6" cy="228" r="5.3" />
</g>
<g>
<circle class="st9" cx="562" cy="245.7" r="5.3" />
</g>
<g>
<circle class="st9" cx="501.5" cy="287.3" r="5.3" />
</g>
<g>
<circle class="st9" cx="515.3" cy="182.4" r="5.3" />
</g>
<g>
<circle class="st9" cx="466.3" cy="174.8" r="5.3" />
</g>
<g>
<circle class="st9" cx="432.4" cy="117.1" r="5.3" />
</g>
<g>
<circle class="st9" cx="509.7" cy="121.7" r="5.3" />
</g>
<g>
<g>
<path class="st6" d="M201,137.9v-0.5l0.6-0.6c1.5-1.4,2.2-2.2,2.2-3.1c0-0.6-0.3-1.1-1.2-1.1c-0.5,0-1,0.3-1.2,0.5l-0.3-0.6    c0.4-0.3,1-0.6,1.7-0.6c1.3,0,1.8,0.9,1.8,1.7c0,1.1-0.8,2-2,3.1l-0.5,0.4v0h2.6v0.7H201z" />
</g>
<g>
<path class="st6" d="M203.5,109.3v-1.6h-2.7v-0.5l2.6-3.7h0.9v3.6h0.8v0.6h-0.8v1.6H203.5z M203.5,107.1v-2c0-0.3,0-0.6,0-0.9h0    c-0.2,0.3-0.3,0.6-0.5,0.9l-1.4,2v0H203.5z" />
</g>
<g>
<path class="st6" d="M204.4,75.5c-0.2,0-0.4,0-0.6,0c-1.2,0.2-1.9,1.1-2,2.1h0c0.3-0.4,0.8-0.7,1.4-0.7c1,0,1.8,0.7,1.8,1.9    c0,1.1-0.7,2.1-1.9,2.1c-1.3,0-2.1-1-2.1-2.5c0-1.2,0.4-2.1,1-2.6c0.5-0.5,1.1-0.8,1.9-0.9c0.2,0,0.4,0,0.6,0V75.5z M204.2,78.8    c0-0.8-0.5-1.3-1.2-1.3c-0.5,0-0.9,0.3-1.1,0.7c-0.1,0.1-0.1,0.2-0.1,0.4c0,1,0.5,1.7,1.3,1.7C203.7,80.2,204.2,79.7,204.2,78.8z" />
</g>
<g>
<path class="st6" d="M201,50.7c0-0.7,0.4-1.3,1.2-1.6l0,0c-0.6-0.3-0.9-0.8-0.9-1.3c0-0.9,0.8-1.6,1.8-1.6c1.1,0,1.7,0.7,1.7,1.4    c0,0.5-0.2,1-1,1.4v0c0.7,0.3,1.2,0.8,1.2,1.5c0,1-0.9,1.7-2,1.7C201.7,52.3,201,51.5,201,50.7z M204.1,50.6    c0-0.7-0.5-1.1-1.3-1.3c-0.7,0.2-1.1,0.6-1.1,1.2c0,0.6,0.4,1.1,1.2,1.1C203.7,51.7,204.1,51.2,204.1,50.6z M201.9,47.7    c0,0.6,0.4,0.9,1.1,1.1c0.5-0.2,0.9-0.5,0.9-1.1c0-0.5-0.3-1-1-1C202.3,46.8,201.9,47.2,201.9,47.7z" />
</g>
<g>
<path class="st6" d="M202.8,18.5L202.8,18.5l-1,0.5l-0.2-0.6l1.3-0.7h0.7v5.9h-0.8V18.5z" />
<path class="st6" d="M209.5,20.6c0,2-0.7,3.1-2,3.1c-1.1,0-1.9-1.1-1.9-3c0-2,0.8-3,2-3C208.8,17.6,209.5,18.7,209.5,20.6z     M206.4,20.7c0,1.5,0.5,2.4,1.2,2.4c0.8,0,1.2-0.9,1.2-2.4c0-1.4-0.4-2.4-1.2-2.4C206.9,18.2,206.4,19.1,206.4,20.7z" />
</g>
</g>
</svg>