<?xml version='1.0' encoding='utf-8'?>
<svg height="340" style="max-width: 100%; height: auto; font: 10px sans-serif;" viewBox="-70,-30,880,340" width="900" xmlns="http://www.w3.org/2000/svg">
<style type="text/css">.st0 {
    fill: hsl(0, 0%, 54%);
}

.st1 {
    opacity: 1;
    fill: hsl(14, 84%, 63%);
}

.st4 {
    opacity: 0.6;
    fill: hsl(207, 90%, 53%);
}

.st2 {
    fill: none;
    stroke: hsl(343, 74%, 62%);
    stroke-width: 3;
    stroke-linecap: round;
    stroke-linejoin: round;
}

.st3 {
    fill: none;
    stroke: hsl(0, 0%, 38%);
}</style>
<g id="Layer_3">
<polygon class="st4" points="41.5,290.2 703.5,290.2 703.5,110 684.2,100 664.8,140 646,90 627.5,140 608,50          589.2,40 570.2,30 552.2,45 532.8,30 513.8,80 494.8,70 475.8,150 457.2,110 438,180 418.5,130 400.2,170          381,160 362.5,200 343.8,210 324.8,200 305.8,220 286.8,180 267.5,200 248.5,200 230.2,210 211,200 192.5,230          173.2,220 154.5,240 135.5,230 116.2,220 97.5,240 78.8,230 60,240 41.5,250 " />
<polygon class="st1" points="41.5,290.2 703.5,290.2 703.5,133.5 684.2,118.2 664.8,170.2 646,149.4 627.5,170.2 608,94.4    589.2,86.3 570.2,64.3 552.2,71.8 532.8,64 513.8,117 494.8,95.4 475.8,169.7 457.2,135.3 438,215.4 418.5,156.7 400.2,187    381,172 362.5,213.4 343.8,221.2 324.8,217.9 305.8,232.2 286.8,195.1 267.5,217.4 248.5,213.4 230.2,221.4 211,218.2 192.5,248.1    173.2,237.5 154.5,259.4 135.5,243.8 116.2,240.5 97.5,259.9 78.8,252.1 60,255.3 41.5,262.9  " />
</g>
<g id="Layer_1">
<g>
<g>
<polyline class="st2" points="78.9,251.2 60.4,254.7 42.5,262.2    " />
<line class="st2" x1="97.8" x2="78.9" y1="258.9" y2="251.2" />
<line class="st2" x1="116.7" x2="97.8" y1="239.8" y2="258.9" />
<line class="st2" x1="135.6" x2="116.7" y1="243.6" y2="239.8" />
<line class="st2" x1="154.5" x2="135.6" y1="258.9" y2="243.6" />
<line class="st2" x1="173.4" x2="154.5" y1="236" y2="258.9" />
<line class="st2" x1="192.3" x2="173.4" y1="247.4" y2="236" />
<line class="st2" x1="211.3" x2="192.3" y1="216.9" y2="247.4" />
<line class="st2" x1="230.2" x2="211.3" y1="220.7" y2="216.9" />
<line class="st2" x1="249.1" x2="230.2" y1="213" y2="220.7" />
<line class="st2" x1="268" x2="249.1" y1="216.9" y2="213" />
<line class="st2" x1="286.9" x2="268" y1="193.9" y2="216.9" />
<line class="st2" x1="305.8" x2="286.9" y1="232.1" y2="193.9" />
<line class="st2" x1="324.7" x2="305.8" y1="216.9" y2="232.1" />
<line class="st2" x1="343.7" x2="324.7" y1="220.7" y2="216.9" />
<line class="st2" x1="362.6" x2="343.7" y1="213" y2="220.7" />
<line class="st2" x1="381.5" x2="362.6" y1="171" y2="213" />
<line class="st2" x1="400.4" x2="381.5" y1="186.3" y2="171" />
<line class="st2" x1="419.3" x2="400.4" y1="155.7" y2="186.3" />
<line class="st2" x1="438.2" x2="419.3" y1="216.9" y2="155.7" />
<line class="st2" x1="457.1" x2="438.2" y1="132.8" y2="216.9" />
<line class="st2" x1="476" x2="457.1" y1="171" y2="132.8" />
<line class="st2" x1="495" x2="476" y1="94.6" y2="171" />
<line class="st2" x1="513.9" x2="495" y1="117.5" y2="94.6" />
<line class="st2" x1="532.8" x2="513.9" y1="64.1" y2="117.5" />
<line class="st2" x1="551.7" x2="532.8" y1="71.7" y2="64.1" />
<line class="st2" x1="570.6" x2="551.7" y1="64.1" y2="71.7" />
<line class="st2" x1="589.5" x2="570.6" y1="87" y2="64.1" />
<line class="st2" x1="608.4" x2="589.5" y1="94.6" y2="87" />
<line class="st2" x1="627.4" x2="608.4" y1="171" y2="94.6" />
<line class="st2" x1="646.3" x2="627.4" y1="148.1" y2="171" />
<line class="st2" x1="665.2" x2="646.3" y1="171" y2="148.1" />
<line class="st2" x1="684.1" x2="665.2" y1="117.5" y2="171" />
<line class="st2" x1="703" x2="684.1" y1="132.8" y2="117.5" />
</g>
</g>
<g>
<g>
<line class="st3" x1="60.4" x2="60.4" y1="294.2" y2="290.4" />
<line class="st3" x1="79.3" x2="79.3" y1="294.2" y2="290.4" />
<line class="st3" x1="98.2" x2="98.2" y1="294.2" y2="290.4" />
<line class="st3" x1="117.1" x2="117.1" y1="294.2" y2="290.4" />
<line class="st3" x1="136.1" x2="136.1" y1="294.2" y2="290.4" />
<line class="st3" x1="155" x2="155" y1="294.2" y2="290.4" />
<line class="st3" x1="173.9" x2="173.9" y1="294.2" y2="290.4" />
<line class="st3" x1="192.8" x2="192.8" y1="294.2" y2="290.4" />
<line class="st3" x1="211.7" x2="211.7" y1="294.2" y2="290.4" />
<line class="st3" x1="230.6" x2="230.6" y1="294.2" y2="290.4" />
<line class="st3" x1="249.5" x2="249.5" y1="294.2" y2="290.4" />
<line class="st3" x1="268.5" x2="268.5" y1="294.2" y2="290.4" />
<line class="st3" x1="287.4" x2="287.4" y1="294.2" y2="290.4" />
<line class="st3" x1="306.3" x2="306.3" y1="294.2" y2="290.4" />
<line class="st3" x1="325.2" x2="325.2" y1="294.2" y2="290.4" />
<line class="st3" x1="344.1" x2="344.1" y1="294.2" y2="290.4" />
<line class="st3" x1="363" x2="363" y1="294.2" y2="290.4" />
<line class="st3" x1="381.9" x2="381.9" y1="294.2" y2="290.4" />
<line class="st3" x1="400.9" x2="400.9" y1="294.2" y2="290.4" />
<line class="st3" x1="419.8" x2="419.8" y1="294.2" y2="290.4" />
<line class="st3" x1="438.7" x2="438.7" y1="294.2" y2="290.4" />
<line class="st3" x1="457.6" x2="457.6" y1="294.2" y2="290.4" />
<line class="st3" x1="476.5" x2="476.5" y1="294.2" y2="290.4" />
<line class="st3" x1="495.4" x2="495.4" y1="294.2" y2="290.4" />
<line class="st3" x1="514.3" x2="514.3" y1="294.2" y2="290.4" />
<line class="st3" x1="533.3" x2="533.3" y1="294.2" y2="290.4" />
<line class="st3" x1="552.2" x2="552.2" y1="294.2" y2="290.4" />
<line class="st3" x1="571.1" x2="571.1" y1="294.2" y2="290.4" />
<line class="st3" x1="590" x2="590" y1="294.2" y2="290.4" />
<line class="st3" x1="608.9" x2="608.9" y1="294.2" y2="290.4" />
<line class="st3" x1="627.8" x2="627.8" y1="294.2" y2="290.4" />
<line class="st3" x1="646.7" x2="646.7" y1="294.2" y2="290.4" />
<line class="st3" x1="665.7" x2="665.7" y1="294.2" y2="290.4" />
<line class="st3" x1="684.6" x2="684.6" y1="294.2" y2="290.4" />
<line class="st3" x1="703.5" x2="703.5" y1="294.2" y2="290.4" />
</g>
</g>
</g>
</svg>