<?xml version='1.0' encoding='UTF-8'?>
<svg xmlns="http://www.w3.org/2000/svg" width="900" height="340" viewBox="-70,-30,880,340" style="max-width: 100%; height: auto; font: 10px sans-serif;">
  <g id="Layer_1">
    <line x1="87.5" y1="275.5" x2="87.5" y2="21.5" fill="none" stroke="#1A1A1A"/>
    <line x1="180.4" y1="275.5" x2="180.4" y2="21.5" fill="none" stroke="#808080" stroke-width="0.5"/>
    <line x1="134" y1="275.5" x2="134" y2="21.5" fill="none" stroke="#808080" stroke-width="0.5"/>
    <line x1="226.9" y1="275.5" x2="226.9" y2="21.5" fill="none" stroke="#808080" stroke-width="0.5"/>
    <line x1="273.3" y1="275.5" x2="273.3" y2="21.5" fill="none" stroke="#808080" stroke-width="0.5"/>
    <line x1="319.8" y1="275.5" x2="319.8" y2="21.5" fill="none" stroke="#808080" stroke-width="0.5"/>
    <line x1="366.3" y1="275.5" x2="366.3" y2="21.5" fill="none" stroke="#808080" stroke-width="0.5"/>
    <line x1="412.7" y1="275.5" x2="412.7" y2="21.5" fill="none" stroke="#808080" stroke-width="0.5"/>
    <line x1="459.2" y1="275.5" x2="459.2" y2="21.5" fill="none" stroke="#808080" stroke-width="0.5"/>
    <line x1="505.7" y1="275.5" x2="505.7" y2="21.5" fill="none" stroke="#808080" stroke-width="0.5"/>
    <line x1="552.1" y1="275.5" x2="552.1" y2="21.5" fill="none" stroke="#808080" stroke-width="0.5"/>
    <line x1="598.6" y1="275.5" x2="598.6" y2="21.5" fill="none" stroke="#808080" stroke-width="0.5"/>
    <line x1="645" y1="275.5" x2="645" y2="21.5" fill="none" stroke="#808080" stroke-width="0.5"/>
    <line x1="691.5" y1="275.5" x2="691.5" y2="21.5" fill="none" stroke="#808080" stroke-width="0.5"/>
    <rect x="111.5" y="29.5" width="158" height="28" fill="#FF0000"/>
    <rect x="342.5" y="191.5" width="135" height="28" fill="#FF0000"/>
    <rect x="382.5" y="233.5" width="271" height="28" fill="#FF0000"/>
    <rect x="245.5" y="70.5" width="273" height="28" fill="#FF0000"/>
    <rect x="536.5" y="151.5" width="129" height="28" fill="#FF0000"/>
    <rect x="493.5" y="110.5" width="51" height="28" fill="#FF0000"/>
  </g>
</svg>
