<svg xmlns="http://www.w3.org/2000/svg" xmlns:xlink="http://www.w3.org/1999/xlink" height="600" id="svg" tag_name="svg" version="1.1" width="800">
  <text font-family="Arial" font-size="20" font-weight="bold" id="text_14" tag_name="svg/text_14" text-anchor="middle" x="400" y="30">
    Quarterly Product Sales Analysis 2025
  </text>
  <line id="line_12" stroke="black"  tag_name="svg/line_12" x1="100" x2="700" y1="500" y2="500" />
  <line id="line_11" stroke="black"  tag_name="svg/line_11" x1="100" x2="100" y1="500" y2="100" />
  <line id="line_10" stroke="black"  tag_name="svg/line_10" x1="95" x2="100" y1="500" y2="500" />
  <text font-family="Arial" font-size="12" id="text_13" tag_name="svg/text_13" text-anchor="end" x="85" y="505">
    0
  </text>
  <line id="line_9" stroke="black"  tag_name="svg/line_9" x1="95" x2="100" y1="420" y2="420" />
  <text font-family="Arial" font-size="12" id="text_12" tag_name="svg/text_12" text-anchor="end" x="85" y="425">
    200
  </text>
  <line id="line_8" stroke="black"  tag_name="svg/line_8" x1="95" x2="100" y1="340" y2="340" />
  <text font-family="Arial" font-size="12" id="text_11" tag_name="svg/text_11" text-anchor="end" x="85" y="345">
    400
  </text>
  <line id="line_7" stroke="black"  tag_name="svg/line_7" x1="95" x2="100" y1="260" y2="260" />
  <text font-family="Arial" font-size="12" id="text_10" tag_name="svg/text_10" text-anchor="end" x="85" y="265">
    600
  </text>
  <line id="line_6" stroke="black"  tag_name="svg/line_6" x1="95" x2="100" y1="180" y2="180" />
  <text font-family="Arial" font-size="12" id="text_9" tag_name="svg/text_9" text-anchor="end" x="85" y="185">
    800
  </text>
  <line id="line_5" stroke="black"  tag_name="svg/line_5" x1="95" x2="100" y1="100" y2="100" />
  <text font-family="Arial" font-size="12" id="text_8" tag_name="svg/text_8" text-anchor="end" x="85" y="105">
    1000
  </text>
  <g id="g" stroke="#dddddd" stroke-dasharray="5,5" tag_name="svg/g">
    <line id="line_4" tag_name="svg/g/line_4" x1="100" x2="700" y1="420" y2="420" />
    <line id="line_3" tag_name="svg/g/line_3" x1="100" x2="700" y1="340" y2="340" />
    <line id="line_2" tag_name="svg/g/line_2" x1="100" x2="700" y1="260" y2="260" />
    <line id="line_1" tag_name="svg/g/line_1" x1="100" x2="700" y1="180" y2="180" />
    <line id="line" tag_name="svg/g/line" x1="100" x2="700" y1="100" y2="100" />
  </g>
  <text font-family="Arial" font-size="16" id="text_7" tag_name="svg/text_7" text-anchor="middle" x="400" y="545">
    Year
  </text>
  <text font-family="Arial" font-size="16" id="text_6" tag_name="svg/text_6" text-anchor="middle" transform="rotate(-90, 45, 300)" x="45" y="300">
    Sales (pcs)
  </text>
  <rect class="reveliogood_2 reveliobad_1 reveliogood_3" fill="red" height="90" id="rect_11"  tag_name="svg/rect_11" width="30" x="130" y="410" />
  <rect class="reveliogood_2 reveliogood_4" fill="red" height="100" id="rect_10"  tag_name="svg/rect_10" width="30" x="230" y="400" />
  <rect class="reveliogood_2 reveliogood_5" fill="red" height="80" id="rect_9"  tag_name="svg/rect_9" width="30" x="330" y="420" />
  <rect class="reveliogood_2 reveliogood_6" fill="red" height="100" id="rect_8"  tag_name="svg/rect_8" width="30" x="430" y="400" />
  <rect class="reveliogood_2 reveliogood_7" fill="red" height="60" id="rect_7"  tag_name="svg/rect_7" width="30" x="530" y="440" />
  <rect class="reveliogood_2 reveliogood_8" fill="red" height="110" id="rect_6"  tag_name="svg/rect_6" width="30" x="630" y="390" />
  <rect class="reveliogood reveliogood_3 reveliobad_4" fill="steelblue" height="320" id="rect_5"  tag_name="svg/rect_5" width="30" x="170" y="180" />
  <rect class="reveliogood reveliogood_4" fill="steelblue" height="360" id="rect_4"  tag_name="svg/rect_4" width="30" x="270" y="140" />
  <rect class="reveliogood reveliogood_5" fill="steelblue" height="280" id="rect_3"  tag_name="svg/rect_3" width="30" x="370" y="220" />
  <rect class="reveliogood reveliogood_6" fill="steelblue" height="300" id="rect_2"  tag_name="svg/rect_2" width="30" x="470" y="200" />
  <rect class="reveliogood reveliogood_7 reveliobad_2 reveliobad_3" fill="steelblue" height="380" id="rect_1"  tag_name="svg/rect_1" width="30" x="570" y="120" />
  <rect class="reveliogood reveliogood_8 reveliobad_3" fill="steelblue" height="340" id="rect"  tag_name="svg/rect" width="30" x="670" y="160" />
  <text font-family="Arial" font-size="12" id="text_5" tag_name="svg/text_5" text-anchor="middle" x="165" y="520">
    2020
  </text>
  <text font-family="Arial" font-size="12" id="text_4" tag_name="svg/text_4" text-anchor="middle" x="265" y="520">
    2021
  </text>
  <text font-family="Arial" font-size="12" id="text_3" tag_name="svg/text_3" text-anchor="middle" x="365" y="520">
    2022
  </text>
  <text font-family="Arial" font-size="12" id="text_2" tag_name="svg/text_2" text-anchor="middle" x="465" y="520">
    2023
  </text>
  <text font-family="Arial" font-size="12" id="text_1" tag_name="svg/text_1" text-anchor="middle" x="565" y="520">
    2024
  </text>
  <text font-family="Arial" font-size="12" id="text" tag_name="svg/text" text-anchor="middle" x="665" y="520">
    2025
  </text>
</svg>