<?xml version='1.0' encoding='us-ascii'?>
<svg xmlns="http://www.w3.org/2000/svg" width="880" height="340" viewBox="-440,-170,880,340" style="max-width: 100%; height: auto; font: 10px sans-serif;">
    <polygon points="0,-100 87,-50 87,50 0,100 -87,50 -87,-50" fill="none" stroke="lightgray" stroke-width="1" id="polygon_4" />
    <polygon points="0,-60 52,-30 52,30 0,60 -52,30 -52,-30" fill="none" stroke="lightgray" stroke-width="1" id="polygon_3" />
    <polygon points="0,-20 17,-10 17,10 0,20 -17,10 -17,-10" fill="none" stroke="lightgray" stroke-width="1" id="polygon_2" />
    <polygon points="0,-80 65,-40 40,40 0,80 -65,40 -40,-40" fill="lightblue" fill-opacity="0.5" stroke="skyblue" stroke-width="2" id="polygon_1" />
    <polygon points="0,-40 30,-20 60,20 0,40 -30,20 -60,-20" fill="lightgreen" fill-opacity="0.5" stroke="green" stroke-width="2" id="polygon" />
</svg>