<?xml version="1.0" encoding="utf-8"?>
<svg xmlns="http://www.w3.org/2000/svg" width="900" height="340" viewBox="-70,-30,880,340" style="max-width: 100%; height: auto; font: 10px sans-serif;">

<style type="text/css">
	.st0{fill:#F2F2F2;}
	.st1{fill:none;stroke:#E6E6E6;stroke-width:0.75;}
	.st2{fill:#808080;}
	.st3{fill:#FFFFFF;stroke:#FF9999;stroke-linejoin:round;}
	.st4{fill:#FFFFFF;stroke:#FBC63B;stroke-linecap:round;stroke-linejoin:round;}
	.st5{fill:#FFFFFF;stroke:#FF0000;stroke-linejoin:round;}
	.st6{fill:#FF0000;stroke:#FF0000;stroke-linecap:round;stroke-linejoin:round;}
	.st7{fill:#FFFFFF;stroke:#FF0000;stroke-linecap:round;stroke-linejoin:round;}
	.st8{fill:#FBC63B;stroke:#FBC63B;stroke-linecap:round;stroke-linejoin:round;}
	.st9{fill:#FF9999;stroke:#FF9999;stroke-linejoin:round;}
	.st10{fill:#FF0000;stroke:#FF0000;stroke-linejoin:round;}
	.st11{fill:none;stroke:#4D4D4D;stroke-linejoin:round;stroke-dasharray:10,6;}
	.st12{fill:none;stroke:#808080;stroke-linejoin:round;}
</style>
<g id="Layer_2">
	<rect x="17.5" y="18.5" class="st0" width="695" height="31.4"/>
	<g>
		<line class="st1" x1="712.5" y1="301.5" x2="17.5" y2="301.5"/>
		<line class="st1" x1="17.5" y1="18.5" x2="712.5" y2="18.5"/>
		<line class="st1" x1="17.5" y1="270.1" x2="712.5" y2="270.1"/>
		<line class="st1" x1="17.5" y1="238.6" x2="712.5" y2="238.6"/>
		<line class="st1" x1="17.5" y1="207.2" x2="712.5" y2="207.2"/>
		<line class="st1" x1="17.5" y1="175.7" x2="712.5" y2="175.7"/>
		<line class="st1" x1="17.5" y1="144.3" x2="712.5" y2="144.3"/>
		<line class="st1" x1="17.5" y1="112.8" x2="712.5" y2="112.8"/>
		<line class="st1" x1="17.5" y1="81.4" x2="712.5" y2="81.4"/>
		<line class="st1" x1="17.5" y1="49.9" x2="712.5" y2="49.9"/>
		<line class="st1" x1="680.9" y1="18.5" x2="680.9" y2="301.5"/>
		<line class="st1" x1="649.3" y1="18.5" x2="649.3" y2="301.5"/>
		<line class="st1" x1="617.7" y1="18.5" x2="617.7" y2="301.5"/>
		<line class="st1" x1="586.1" y1="18.5" x2="586.1" y2="301.5"/>
		<line class="st1" x1="554.5" y1="18.5" x2="554.5" y2="301.5"/>
		<line class="st1" x1="523" y1="18.5" x2="523" y2="301.5"/>
		<line class="st1" x1="491.4" y1="18.5" x2="491.4" y2="301.5"/>
		<line class="st1" x1="459.8" y1="18.5" x2="459.8" y2="301.5"/>
		<line class="st1" x1="428.2" y1="18.5" x2="428.2" y2="301.5"/>
		<line class="st1" x1="396.6" y1="18.5" x2="396.6" y2="301.5"/>
		<line class="st1" x1="365" y1="18.5" x2="365" y2="301.5"/>
		<line class="st1" x1="333.4" y1="18.5" x2="333.4" y2="301.5"/>
		<line class="st1" x1="301.8" y1="18.5" x2="301.8" y2="301.5"/>
		<line class="st1" x1="270.2" y1="18.5" x2="270.2" y2="301.5"/>
		<line class="st1" x1="238.6" y1="18.5" x2="238.6" y2="301.5"/>
		<line class="st1" x1="207" y1="18.5" x2="207" y2="301.5"/>
		<line class="st1" x1="175.5" y1="18.5" x2="175.5" y2="301.5"/>
		<line class="st1" x1="143.9" y1="18.5" x2="143.9" y2="301.5"/>
		<line class="st1" x1="112.3" y1="18.5" x2="112.3" y2="301.5"/>
		<line class="st1" x1="80.7" y1="18.5" x2="80.7" y2="301.5"/>
	</g>
</g>
<g id="Layer_1">
	<g>
		<path class="st2" d="M28.1,35v-0.2c0-0.3,0-0.6,0-0.9h0.8c0,0.3-0.1,0.5-0.1,0.9V35h3.2c0.5,0,0.9,0,1.2-0.1v0.8
			c-0.4,0-0.7-0.1-1.2-0.1h-3.2v1.1h2.7c0.6,0,0.9,0,1.2-0.1v0.8c-0.4,0-0.7-0.1-1.2-0.1h-2.7v1.3h3.7c0.5,0,0.9,0,1.2-0.1v0.8
			c-0.4-0.1-0.8-0.1-1.3-0.1h-8.1c-0.4,0-0.9,0-1.2,0.1v-0.8c0.3,0,0.7,0.1,1.2,0.1h3.8v-1.3h-2.2c-0.5,0-0.8,0-1.1,0.1v-0.8
			c0.3,0,0.6,0.1,1.1,0.1h2.2v-1.1h-2.9c-0.5,0.7-0.9,1.1-1.5,1.6c-0.2-0.3-0.3-0.3-0.6-0.6c0.6-0.4,1.1-0.9,1.5-1.4
			c0.4-0.6,0.6-0.9,0.8-1.5l0.7,0.3c-0.2,0.4-0.3,0.6-0.5,0.9H28.1z M25.7,33.6c-0.6,0-0.9,0-1.2,0c0-0.3,0-0.6,0-1v-2
			c0-0.5,0-0.8,0-1.1c0.4,0,0.7,0.1,1.2,0.1h5.6c0.5,0,0.8,0,1.2-0.1c0,0.3,0,0.5,0,1v2.1c0,0.5,0,0.8,0,1.1c-0.3,0-0.6,0-1.2,0
			H25.7z M25.3,31.2h6.3v-1h-6.3V31.2z M25.3,33h6.3v-1.1h-6.3V33z"/>
		<path class="st2" d="M36.3,30.3c0-0.5,0-0.8-0.1-1.1h0.8c0,0.3-0.1,0.7-0.1,1.2v0.2h2.2v-0.2c0-0.5,0-0.9-0.1-1.1H40
			c0,0.3-0.1,0.6-0.1,1.2v0.2c0.4,0,0.8,0,1-0.1v0.8c-0.3,0-0.6,0-1,0v5.1c0.4,0,0.7,0,0.9-0.1V37c-0.3,0-0.6,0-1.1,0H36
			c-0.5,0-0.7,0-1,0.1v-0.8c0.2,0,0.5,0.1,1,0.1h0.3v-5.1h-0.1c-0.5,0-0.8,0-1,0.1v-0.8c0.2,0,0.5,0.1,1,0.1h0.1V30.3z M37.6,37.7
			c-0.6,0.9-0.9,1.3-1.9,2.1c-0.2-0.3-0.3-0.4-0.6-0.6c0.9-0.6,1.4-1.1,1.8-1.9L37.6,37.7z M39.2,32.4v-1.2H37v1.2H39.2z M39.2,34.3
			V33H37v1.3H39.2z M39.2,36.3v-1.4H37v1.4H39.2z M39.7,39.2c-0.5-0.6-0.7-0.9-1.2-1.3l0.5-0.5c0.6,0.5,0.7,0.6,1.2,1.3L39.7,39.2z
			 M42.1,36c-0.1,1.7-0.5,2.7-1.4,3.9c-0.3-0.3-0.3-0.4-0.6-0.6c0.7-0.8,1-1.5,1.2-2.7c0.1-0.9,0.2-3,0.2-5.6c0-0.8,0-1.1,0-1.4
			c0.3,0,0.6,0,1.2,0h1.7c0.6,0,0.8,0,1.1,0c0,0.3,0,0.6,0,1.2v8.1c0,0.4-0.1,0.7-0.3,0.8c-0.1,0.1-0.5,0.1-1,0.1
			c-0.2,0-0.4,0-0.9,0c0-0.3-0.1-0.5-0.2-0.9c0.6,0.1,0.9,0.2,1.3,0.2c0.3,0,0.4-0.1,0.4-0.3V36H42.1z M44.6,35.3v-2.2h-2.4
			c0,1.3,0,1.6-0.1,2.2H44.6z M44.6,32.5v-2.1h-2.4V32c0,0.3,0,0.3,0,0.5H44.6z"/>
		<path class="st2" d="M48.5,33.7h-1.2v-1.2h1.2V33.7z M47.3,38.9v-1.2h1.2v1.2H47.3z"/>
	</g>
	<g>
		<path class="st2" d="M23.4,63.2c0.9,0.5,1.4,0.7,2.2,1.4l-0.4,0.7c-0.8-0.7-1.3-1-2.2-1.5L23.4,63.2z M25.8,67.1
			c-0.4,0.8-1,2-1.3,2.4C24.2,70,24,70.3,24,70.4c-0.1,0.1-0.1,0.1-0.2,0.3L23.1,70c0.1-0.1,0.2-0.2,0.4-0.4c0.7-0.9,1.1-1.7,1.7-3
			L25.8,67.1z M24,60.2c0.9,0.6,1.4,1,2.1,1.6l-0.5,0.6c-0.7-0.6-1.1-1-2.1-1.7L24,60.2z M30.3,63.6h2.3c0.5,0,0.9,0,1.2-0.1v0.9
			c-0.3,0-0.7-0.1-1.2-0.1h-2.3v2h1.9c0.4,0,0.7,0,0.9,0c0,0.2,0,0.6,0,1.1v2.3c0,0.5,0,0.9,0.1,1.2h-0.8v-0.7h-4.6v0.7h-0.8
			c0-0.3,0.1-0.7,0.1-1.2v-2.3c0-0.4,0-0.8,0-1.1c0.2,0,0.5,0,0.9,0h1.8v-2h-2.3c-0.5,0-0.9,0-1.2,0.1v-0.9c0.3,0,0.7,0.1,1.2,0.1
			h2.3v-1.9c-1,0.2-1.8,0.3-2.7,0.3c-0.1-0.3-0.1-0.4-0.3-0.7c1.7,0,3.4-0.3,5.1-0.7c0.7-0.2,1-0.3,1.4-0.5l0.6,0.7
			c-0.1,0-0.1,0-0.4,0.1c-0.7,0.2-1.8,0.4-2.8,0.6V63.6z M27.7,69.5h4.6v-2.4h-4.6V69.5z"/>
		<path class="st2" d="M38.2,64.5c-0.1,0.3-0.4,1.5-0.6,2.1c-0.2,0.6-0.5,1.3-0.7,2c1.1-0.2,1.9-0.3,3-0.6c-0.4-1-0.4-1.2-0.8-2.1
			l0.7-0.2c0.5,1.1,0.9,2,1.3,3.4l-0.7,0.3c0-0.2-0.1-0.4-0.2-0.7c-0.6,0.1-0.9,0.2-1,0.3c-0.1,0-0.8,0.2-2.3,0.5
			c-0.2,0-0.2,0-0.5,0.1c0,0-0.1,0-0.1,0c-0.1,0-0.2,0-0.3,0.1l-0.3-0.8c0.3-0.1,0.4-0.2,0.6-0.5c0.5-1.2,0.9-2.6,1.1-3.7h-0.9
			c-0.5,0-0.7,0-1,0.1v-0.8c0.3,0,0.5,0.1,1,0.1h3.4c0.5,0,0.8,0,1-0.1v0.8c-0.3,0-0.5-0.1-1-0.1H38.2z M36,60.8
			c0.3,0,0.5,0.1,1,0.1h2.6c0.5,0,0.7,0,1-0.1v0.8c-0.3,0-0.5-0.1-1-0.1H37c-0.5,0-0.7,0-1,0.1V60.8z M44.9,62.7c0.5,0,0.8,0,1.1,0
			c0,0.3,0,0.3-0.1,1.6c0,2.3-0.2,3.9-0.4,5c-0.2,1.2-0.5,1.5-1.3,1.5c-0.4,0-0.8,0-1.3-0.1c0-0.3,0-0.5-0.1-0.8
			c0.6,0.1,1,0.2,1.3,0.2c0.4,0,0.5-0.1,0.6-0.7c0.3-1.2,0.4-2.6,0.4-5.9h-1.6c-0.1,1.9-0.2,2.7-0.5,3.7c-0.3,0.9-0.6,1.7-1.1,2.3
			c-0.3,0.5-0.6,0.8-1.3,1.5c-0.2-0.3-0.3-0.4-0.6-0.6c1.2-1.1,1.9-2.2,2.3-3.7c0.2-0.9,0.3-1.7,0.4-3.2H42c-0.5,0-0.8,0-1.1,0.1
			v-0.8c0.3,0,0.5,0.1,1.1,0.1h0.9c0-1.1,0-1.1,0-1.4c0-0.6,0-0.9-0.1-1.2h0.9c0,0.3-0.1,0.5-0.1,0.9c0,0.7,0,1.2,0,1.6
			c0,0.1,0,0.1,0,0.1H44.9z"/>
		<path class="st2" d="M54.8,69.9c-0.1-0.4-0.2-0.9-0.4-1.2l-0.6-1.5h-4.2L49,68.7c-0.2,0.5-0.3,0.8-0.4,1.2h-1.2
			c0.2-0.4,0.3-0.6,0.6-1.4l2.7-6.6c0.2-0.6,0.3-0.8,0.4-1.1h1.2c0,0.2,0.1,0.4,0.4,1.1l2.7,6.6c0.3,0.7,0.5,1.1,0.6,1.4H54.8z
			 M52,62.4c0-0.1,0-0.1-0.3-0.8c-0.1,0.2-0.1,0.3-0.1,0.4c-0.1,0.2-0.1,0.3-0.1,0.4l-1.5,4h3.6L52,62.4z"/>
	</g>
	<g>
		<path class="st2" d="M23.4,94.5c0.9,0.5,1.4,0.7,2.2,1.4l-0.4,0.7c-0.8-0.7-1.3-1-2.2-1.5L23.4,94.5z M25.8,98.4
			c-0.4,0.8-1,2-1.3,2.4c-0.3,0.5-0.5,0.8-0.6,0.9c-0.1,0.1-0.1,0.1-0.2,0.3l-0.7-0.6c0.1-0.1,0.2-0.2,0.4-0.4
			c0.7-0.9,1.1-1.7,1.7-3L25.8,98.4z M24,91.5c0.9,0.6,1.4,1,2.1,1.6l-0.5,0.6c-0.7-0.6-1.1-1-2.1-1.7L24,91.5z M30.3,95h2.3
			c0.5,0,0.9,0,1.2-0.1v0.9c-0.3,0-0.7-0.1-1.2-0.1h-2.3v2h1.9c0.4,0,0.7,0,0.9,0c0,0.2,0,0.6,0,1.1v2.3c0,0.5,0,0.9,0.1,1.2h-0.8
			v-0.7h-4.6v0.7h-0.8c0-0.3,0.1-0.7,0.1-1.2v-2.3c0-0.4,0-0.8,0-1.1c0.2,0,0.5,0,0.9,0h1.8v-2h-2.3c-0.5,0-0.9,0-1.2,0.1v-0.9
			c0.3,0,0.7,0.1,1.2,0.1h2.3V93c-1,0.2-1.8,0.3-2.7,0.3c-0.1-0.3-0.1-0.4-0.3-0.7c1.7,0,3.4-0.3,5.1-0.7c0.7-0.2,1-0.3,1.4-0.5
			l0.6,0.7c-0.1,0-0.1,0-0.4,0.1c-0.7,0.2-1.8,0.4-2.8,0.6V95z M27.7,100.8h4.6v-2.4h-4.6V100.8z"/>
		<path class="st2" d="M38.2,95.8c-0.1,0.3-0.4,1.5-0.6,2.1c-0.2,0.6-0.5,1.3-0.7,2c1.1-0.2,1.9-0.3,3-0.6c-0.4-1-0.4-1.2-0.8-2.1
			l0.7-0.2c0.5,1.1,0.9,2,1.3,3.4l-0.7,0.3c0-0.2-0.1-0.4-0.2-0.7c-0.6,0.1-0.9,0.2-1,0.3c-0.1,0-0.8,0.2-2.3,0.5
			c-0.2,0-0.2,0-0.5,0.1c0,0-0.1,0-0.1,0c-0.1,0-0.2,0-0.3,0.1l-0.3-0.8c0.3-0.1,0.4-0.2,0.6-0.5c0.5-1.2,0.9-2.6,1.1-3.7h-0.9
			c-0.5,0-0.7,0-1,0.1V95c0.3,0,0.5,0.1,1,0.1h3.4c0.5,0,0.8,0,1-0.1v0.8c-0.3,0-0.5-0.1-1-0.1H38.2z M36,92.2c0.3,0,0.5,0.1,1,0.1
			h2.6c0.5,0,0.7,0,1-0.1V93c-0.3,0-0.5-0.1-1-0.1H37c-0.5,0-0.7,0-1,0.1V92.2z M44.9,94c0.5,0,0.8,0,1.1,0c0,0.3,0,0.3-0.1,1.6
			c0,2.3-0.2,3.9-0.4,5c-0.2,1.2-0.5,1.5-1.3,1.5c-0.4,0-0.8,0-1.3-0.1c0-0.3,0-0.5-0.1-0.8c0.6,0.1,1,0.2,1.3,0.2
			c0.4,0,0.5-0.1,0.6-0.7c0.3-1.2,0.4-2.6,0.4-5.9h-1.6c-0.1,1.9-0.2,2.7-0.5,3.7c-0.3,0.9-0.6,1.7-1.1,2.3
			c-0.3,0.5-0.6,0.8-1.3,1.5c-0.2-0.3-0.3-0.4-0.6-0.6c1.2-1.1,1.9-2.2,2.3-3.7c0.2-0.9,0.3-1.7,0.4-3.2H42c-0.5,0-0.8,0-1.1,0.1V94
			c0.3,0,0.5,0.1,1.1,0.1h0.9c0-1.1,0-1.1,0-1.4c0-0.6,0-0.9-0.1-1.2h0.9c0,0.3-0.1,0.5-0.1,0.9c0,0.7,0,1.2,0,1.6
			c0,0.1,0,0.1,0,0.1H44.9z"/>
		<path class="st2" d="M49.5,101.3c-0.5,0-0.9,0-1.3,0c0.1-0.5,0.1-0.8,0.1-1.5v-6.4c0-0.5,0-0.8-0.1-1.3c0.4,0,0.6,0,1.3,0H52
			c1.7,0,2.7,0.8,2.7,2.2c0,0.7-0.2,1.2-0.6,1.6c-0.3,0.2-0.5,0.3-0.9,0.5c0.6,0.1,0.8,0.2,1.2,0.5c0.5,0.4,0.7,1,0.7,1.8
			c0,1.6-1.1,2.5-2.9,2.5H49.5z M52,96.1c1.1,0,1.8-0.6,1.8-1.6c0-1-0.6-1.5-1.8-1.5h-2.8v3.1H52z M49.2,100.4h2.9
			c1.3,0,2-0.6,2-1.8c0-1.2-0.7-1.8-2-1.8h-2.9V100.4z"/>
	</g>
	<g>
		<path class="st2" d="M23.4,125.2c0.9,0.5,1.4,0.7,2.2,1.4l-0.4,0.7c-0.8-0.7-1.3-1-2.2-1.5L23.4,125.2z M25.8,129.1
			c-0.4,0.8-1,2-1.3,2.4c-0.3,0.5-0.5,0.8-0.6,0.9c-0.1,0.1-0.1,0.1-0.2,0.3l-0.7-0.6c0.1-0.1,0.2-0.2,0.4-0.4
			c0.7-0.9,1.1-1.7,1.7-3L25.8,129.1z M24,122.2c0.9,0.6,1.4,1,2.1,1.6l-0.5,0.6c-0.7-0.6-1.1-1-2.1-1.7L24,122.2z M30.3,125.6h2.3
			c0.5,0,0.9,0,1.2-0.1v0.9c-0.3,0-0.7-0.1-1.2-0.1h-2.3v2h1.9c0.4,0,0.7,0,0.9,0c0,0.2,0,0.6,0,1.1v2.3c0,0.5,0,0.9,0.1,1.2h-0.8
			v-0.7h-4.6v0.7h-0.8c0-0.3,0.1-0.7,0.1-1.2v-2.3c0-0.4,0-0.8,0-1.1c0.2,0,0.5,0,0.9,0h1.8v-2h-2.3c-0.5,0-0.9,0-1.2,0.1v-0.9
			c0.3,0,0.7,0.1,1.2,0.1h2.3v-1.9c-1,0.2-1.8,0.3-2.7,0.3c-0.1-0.3-0.1-0.4-0.3-0.7c1.7,0,3.4-0.3,5.1-0.7c0.7-0.2,1-0.3,1.4-0.5
			l0.6,0.7c-0.1,0-0.1,0-0.4,0.1c-0.7,0.2-1.8,0.4-2.8,0.6V125.6z M27.7,131.5h4.6v-2.4h-4.6V131.5z"/>
		<path class="st2" d="M38.2,126.5c-0.1,0.3-0.4,1.5-0.6,2.1c-0.2,0.6-0.5,1.3-0.7,2c1.1-0.2,1.9-0.3,3-0.6c-0.4-1-0.4-1.2-0.8-2.1
			l0.7-0.2c0.5,1.1,0.9,2,1.3,3.4l-0.7,0.3c0-0.2-0.1-0.4-0.2-0.7c-0.6,0.1-0.9,0.2-1,0.3c-0.1,0-0.8,0.2-2.3,0.5
			c-0.2,0-0.2,0-0.5,0.1c0,0-0.1,0-0.1,0c-0.1,0-0.2,0-0.3,0.1l-0.3-0.8c0.3-0.1,0.4-0.2,0.6-0.5c0.5-1.2,0.9-2.6,1.1-3.7h-0.9
			c-0.5,0-0.7,0-1,0.1v-0.8c0.3,0,0.5,0.1,1,0.1h3.4c0.5,0,0.8,0,1-0.1v0.8c-0.3,0-0.5-0.1-1-0.1H38.2z M36,122.8
			c0.3,0,0.5,0.1,1,0.1h2.6c0.5,0,0.7,0,1-0.1v0.8c-0.3,0-0.5-0.1-1-0.1H37c-0.5,0-0.7,0-1,0.1V122.8z M44.9,124.7
			c0.5,0,0.8,0,1.1,0c0,0.3,0,0.3-0.1,1.6c0,2.3-0.2,3.9-0.4,5c-0.2,1.2-0.5,1.5-1.3,1.5c-0.4,0-0.8,0-1.3-0.1c0-0.3,0-0.5-0.1-0.8
			c0.6,0.1,1,0.2,1.3,0.2c0.4,0,0.5-0.1,0.6-0.7c0.3-1.2,0.4-2.6,0.4-5.9h-1.6c-0.1,1.9-0.2,2.7-0.5,3.7c-0.3,0.9-0.6,1.7-1.1,2.3
			c-0.3,0.5-0.6,0.8-1.3,1.5c-0.2-0.3-0.3-0.4-0.6-0.6c1.2-1.1,1.9-2.2,2.3-3.7c0.2-0.9,0.3-1.7,0.4-3.2H42c-0.5,0-0.8,0-1.1,0.1
			v-0.8c0.3,0,0.5,0.1,1.1,0.1h0.9c0-1.1,0-1.1,0-1.4c0-0.6,0-0.9-0.1-1.2h0.9c0,0.3-0.1,0.5-0.1,0.9c0,0.7,0,1.2,0,1.6
			c0,0.1,0,0.1,0,0.1H44.9z"/>
		<path class="st2" d="M54.6,125.4c-0.2-0.5-0.3-0.8-0.6-1.1c-0.5-0.6-1.2-0.9-2.1-0.9c-1.9,0-3.2,1.5-3.2,3.9
			c0,2.4,1.2,3.9,3.2,3.9c0.9,0,1.8-0.4,2.2-1c0.3-0.3,0.4-0.6,0.5-1.2l1,0.2c-0.2,0.7-0.4,1-0.6,1.4c-0.7,0.9-1.8,1.4-3.1,1.4
			c-1.2,0-2.1-0.4-2.8-1.1c-0.8-0.8-1.3-2.1-1.3-3.6c0-1.5,0.5-2.9,1.4-3.7c0.7-0.7,1.6-1,2.7-1c1.1,0,2,0.3,2.7,1
			c0.4,0.4,0.6,0.8,0.9,1.5L54.6,125.4z"/>
	</g>
	<g>
		<path class="st2" d="M23.4,157.5c0.9,0.5,1.4,0.7,2.2,1.4l-0.4,0.7c-0.8-0.7-1.3-1-2.2-1.5L23.4,157.5z M25.8,161.4
			c-0.4,0.8-1,2-1.3,2.4c-0.3,0.5-0.5,0.8-0.6,0.9c-0.1,0.1-0.1,0.1-0.2,0.3l-0.7-0.6c0.1-0.1,0.2-0.2,0.4-0.4
			c0.7-0.9,1.1-1.7,1.7-3L25.8,161.4z M24,154.5c0.9,0.6,1.4,1,2.1,1.6l-0.5,0.6c-0.7-0.6-1.1-1-2.1-1.7L24,154.5z M30.3,158h2.3
			c0.5,0,0.9,0,1.2-0.1v0.9c-0.3,0-0.7-0.1-1.2-0.1h-2.3v2h1.9c0.4,0,0.7,0,0.9,0c0,0.2,0,0.6,0,1.1v2.3c0,0.5,0,0.9,0.1,1.2h-0.8
			v-0.7h-4.6v0.7h-0.8c0-0.3,0.1-0.7,0.1-1.2v-2.3c0-0.4,0-0.8,0-1.1c0.2,0,0.5,0,0.9,0h1.8v-2h-2.3c-0.5,0-0.9,0-1.2,0.1v-0.9
			c0.3,0,0.7,0.1,1.2,0.1h2.3V156c-1,0.2-1.8,0.3-2.7,0.3c-0.1-0.3-0.1-0.4-0.3-0.7c1.7,0,3.4-0.3,5.1-0.7c0.7-0.2,1-0.3,1.4-0.5
			l0.6,0.7c-0.1,0-0.1,0-0.4,0.1c-0.7,0.2-1.8,0.4-2.8,0.6V158z M27.7,163.8h4.6v-2.4h-4.6V163.8z"/>
		<path class="st2" d="M38.2,158.8c-0.1,0.3-0.4,1.5-0.6,2.1c-0.2,0.6-0.5,1.3-0.7,2c1.1-0.2,1.9-0.3,3-0.6c-0.4-1-0.4-1.2-0.8-2.1
			l0.7-0.2c0.5,1.1,0.9,2,1.3,3.4l-0.7,0.3c0-0.2-0.1-0.4-0.2-0.7c-0.6,0.1-0.9,0.2-1,0.3c-0.1,0-0.8,0.2-2.3,0.5
			c-0.2,0-0.2,0-0.5,0.1c0,0-0.1,0-0.1,0c-0.1,0-0.2,0-0.3,0.1l-0.3-0.8c0.3-0.1,0.4-0.2,0.6-0.5c0.5-1.2,0.9-2.6,1.1-3.7h-0.9
			c-0.5,0-0.7,0-1,0.1V158c0.3,0,0.5,0.1,1,0.1h3.4c0.5,0,0.8,0,1-0.1v0.8c-0.3,0-0.5-0.1-1-0.1H38.2z M36,155.2
			c0.3,0,0.5,0.1,1,0.1h2.6c0.5,0,0.7,0,1-0.1v0.8c-0.3,0-0.5-0.1-1-0.1H37c-0.5,0-0.7,0-1,0.1V155.2z M44.9,157c0.5,0,0.8,0,1.1,0
			c0,0.3,0,0.3-0.1,1.6c0,2.3-0.2,3.9-0.4,5c-0.2,1.2-0.5,1.5-1.3,1.5c-0.4,0-0.8,0-1.3-0.1c0-0.3,0-0.5-0.1-0.8
			c0.6,0.1,1,0.2,1.3,0.2c0.4,0,0.5-0.1,0.6-0.7c0.3-1.2,0.4-2.6,0.4-5.9h-1.6c-0.1,1.9-0.2,2.7-0.5,3.7c-0.3,0.9-0.6,1.7-1.1,2.3
			c-0.3,0.5-0.6,0.8-1.3,1.5c-0.2-0.3-0.3-0.4-0.6-0.6c1.2-1.1,1.9-2.2,2.3-3.7c0.2-0.9,0.3-1.7,0.4-3.2H42c-0.5,0-0.8,0-1.1,0.1
			V157c0.3,0,0.5,0.1,1.1,0.1h0.9c0-1.1,0-1.1,0-1.4c0-0.6,0-0.9-0.1-1.2h0.9c0,0.3-0.1,0.5-0.1,0.9c0,0.7,0,1.2,0,1.6
			c0,0.1,0,0.1,0,0.1H44.9z"/>
		<path class="st2" d="M48.2,156.5c0-0.5,0-0.9-0.1-1.4c0.4,0,0.7,0,1.3,0h2c2.7,0,4.2,1.6,4.2,4.5c0,1.5-0.5,2.7-1.3,3.6
			c-0.7,0.7-1.7,1.1-2.9,1.1h-2c-0.6,0-0.9,0-1.3,0c0.1-0.5,0.1-0.8,0.1-1.4V156.5z M51.5,163.4c0.9,0,1.7-0.3,2.2-0.9
			c0.7-0.7,1-1.7,1-2.9c0-1.2-0.3-2.2-0.9-2.8c-0.5-0.6-1.3-0.8-2.3-0.8h-2.3v7.4H51.5z"/>
	</g>
	<g>
		<path class="st2" d="M23.4,187.9c0.9,0.5,1.4,0.7,2.2,1.4l-0.4,0.7c-0.8-0.7-1.3-1-2.2-1.5L23.4,187.9z M25.8,191.8
			c-0.4,0.8-1,2-1.3,2.4c-0.3,0.5-0.5,0.8-0.6,0.9c-0.1,0.1-0.1,0.1-0.2,0.3l-0.7-0.6c0.1-0.1,0.2-0.2,0.4-0.4
			c0.7-0.9,1.1-1.7,1.7-3L25.8,191.8z M24,184.9c0.9,0.6,1.4,1,2.1,1.6l-0.5,0.6c-0.7-0.6-1.1-1-2.1-1.7L24,184.9z M30.3,188.3h2.3
			c0.5,0,0.9,0,1.2-0.1v0.9c-0.3,0-0.7-0.1-1.2-0.1h-2.3v2h1.9c0.4,0,0.7,0,0.9,0c0,0.2,0,0.6,0,1.1v2.3c0,0.5,0,0.9,0.1,1.2h-0.8
			v-0.7h-4.6v0.7h-0.8c0-0.3,0.1-0.7,0.1-1.2v-2.3c0-0.4,0-0.8,0-1.1c0.2,0,0.5,0,0.9,0h1.8v-2h-2.3c-0.5,0-0.9,0-1.2,0.1v-0.9
			c0.3,0,0.7,0.1,1.2,0.1h2.3v-1.9c-1,0.2-1.8,0.3-2.7,0.3c-0.1-0.3-0.1-0.4-0.3-0.7c1.7,0,3.4-0.3,5.1-0.7c0.7-0.2,1-0.3,1.4-0.5
			l0.6,0.7c-0.1,0-0.1,0-0.4,0.1c-0.7,0.2-1.8,0.4-2.8,0.6V188.3z M27.7,194.2h4.6v-2.4h-4.6V194.2z"/>
		<path class="st2" d="M38.2,189.1c-0.1,0.3-0.4,1.5-0.6,2.1c-0.2,0.6-0.5,1.3-0.7,2c1.1-0.2,1.9-0.3,3-0.6c-0.4-1-0.4-1.2-0.8-2.1
			l0.7-0.2c0.5,1.1,0.9,2,1.3,3.4l-0.7,0.3c0-0.2-0.1-0.4-0.2-0.7c-0.6,0.1-0.9,0.2-1,0.3c-0.1,0-0.8,0.2-2.3,0.5
			c-0.2,0-0.2,0-0.5,0.1c0,0-0.1,0-0.1,0c-0.1,0-0.2,0-0.3,0.1l-0.3-0.8c0.3-0.1,0.4-0.2,0.6-0.5c0.5-1.2,0.9-2.6,1.1-3.7h-0.9
			c-0.5,0-0.7,0-1,0.1v-0.8c0.3,0,0.5,0.1,1,0.1h3.4c0.5,0,0.8,0,1-0.1v0.8c-0.3,0-0.5-0.1-1-0.1H38.2z M36,185.5
			c0.3,0,0.5,0.1,1,0.1h2.6c0.5,0,0.7,0,1-0.1v0.8c-0.3,0-0.5-0.1-1-0.1H37c-0.5,0-0.7,0-1,0.1V185.5z M44.9,187.4
			c0.5,0,0.8,0,1.1,0c0,0.3,0,0.3-0.1,1.6c0,2.3-0.2,3.9-0.4,5c-0.2,1.2-0.5,1.5-1.3,1.5c-0.4,0-0.8,0-1.3-0.1c0-0.3,0-0.5-0.1-0.8
			c0.6,0.1,1,0.2,1.3,0.2c0.4,0,0.5-0.1,0.6-0.7c0.3-1.2,0.4-2.6,0.4-5.9h-1.6c-0.1,1.9-0.2,2.7-0.5,3.7c-0.3,0.9-0.6,1.7-1.1,2.3
			c-0.3,0.5-0.6,0.8-1.3,1.5c-0.2-0.3-0.3-0.4-0.6-0.6c1.2-1.1,1.9-2.2,2.3-3.7c0.2-0.9,0.3-1.7,0.4-3.2H42c-0.5,0-0.8,0-1.1,0.1
			v-0.8c0.3,0,0.5,0.1,1.1,0.1h0.9c0-1.1,0-1.1,0-1.4c0-0.6,0-0.9-0.1-1.2h0.9c0,0.3-0.1,0.5-0.1,0.9c0,0.7,0,1.2,0,1.6
			c0,0.1,0,0.1,0,0.1H44.9z"/>
		<path class="st2" d="M54.3,194.7c-0.4-0.1-0.7-0.1-1.3-0.1h-3.5c-0.6,0-0.9,0-1.3,0c0.1-0.5,0.1-0.8,0.1-1.4v-6.4
			c0-0.5,0-0.8-0.1-1.4c0.4,0,0.7,0,1.3,0h3.4c0.5,0,0.9,0,1.3-0.1v1c-0.4-0.1-0.7-0.1-1.3-0.1h-3.7v3.1h3.2c0.5,0,0.9,0,1.3-0.1v1
			c-0.4-0.1-0.7-0.1-1.3-0.1h-3.2v3.5H53c0.6,0,0.9,0,1.3-0.1V194.7z"/>
	</g>
	<g>
		<path class="st2" d="M23.4,219.5c0.9,0.5,1.4,0.7,2.2,1.4l-0.4,0.7c-0.8-0.7-1.3-1-2.2-1.5L23.4,219.5z M25.8,223.4
			c-0.4,0.8-1,2-1.3,2.4c-0.3,0.5-0.5,0.8-0.6,0.9c-0.1,0.1-0.1,0.1-0.2,0.3l-0.7-0.6c0.1-0.1,0.2-0.2,0.4-0.4
			c0.7-0.9,1.1-1.7,1.7-3L25.8,223.4z M24,216.5c0.9,0.6,1.4,1,2.1,1.6l-0.5,0.6c-0.7-0.6-1.1-1-2.1-1.7L24,216.5z M30.3,220h2.3
			c0.5,0,0.9,0,1.2-0.1v0.9c-0.3,0-0.7-0.1-1.2-0.1h-2.3v2h1.9c0.4,0,0.7,0,0.9,0c0,0.2,0,0.6,0,1.1v2.3c0,0.5,0,0.9,0.1,1.2h-0.8
			v-0.7h-4.6v0.7h-0.8c0-0.3,0.1-0.7,0.1-1.2v-2.3c0-0.4,0-0.8,0-1.1c0.2,0,0.5,0,0.9,0h1.8v-2h-2.3c-0.5,0-0.9,0-1.2,0.1v-0.9
			c0.3,0,0.7,0.1,1.2,0.1h2.3V218c-1,0.2-1.8,0.3-2.7,0.3c-0.1-0.3-0.1-0.4-0.3-0.7c1.7,0,3.4-0.3,5.1-0.7c0.7-0.2,1-0.3,1.4-0.5
			l0.6,0.7c-0.1,0-0.1,0-0.4,0.1c-0.7,0.2-1.8,0.4-2.8,0.6V220z M27.7,225.8h4.6v-2.4h-4.6V225.8z"/>
		<path class="st2" d="M38.2,220.8c-0.1,0.3-0.4,1.5-0.6,2.1c-0.2,0.6-0.5,1.3-0.7,2c1.1-0.2,1.9-0.3,3-0.6c-0.4-1-0.4-1.2-0.8-2.1
			l0.7-0.2c0.5,1.1,0.9,2,1.3,3.4l-0.7,0.3c0-0.2-0.1-0.4-0.2-0.7c-0.6,0.1-0.9,0.2-1,0.3c-0.1,0-0.8,0.2-2.3,0.5
			c-0.2,0-0.2,0-0.5,0.1c0,0-0.1,0-0.1,0c-0.1,0-0.2,0-0.3,0.1l-0.3-0.8c0.3-0.1,0.4-0.2,0.6-0.5c0.5-1.2,0.9-2.6,1.1-3.7h-0.9
			c-0.5,0-0.7,0-1,0.1V220c0.3,0,0.5,0.1,1,0.1h3.4c0.5,0,0.8,0,1-0.1v0.8c-0.3,0-0.5-0.1-1-0.1H38.2z M36,217.2
			c0.3,0,0.5,0.1,1,0.1h2.6c0.5,0,0.7,0,1-0.1v0.8c-0.3,0-0.5-0.1-1-0.1H37c-0.5,0-0.7,0-1,0.1V217.2z M44.9,219c0.5,0,0.8,0,1.1,0
			c0,0.3,0,0.3-0.1,1.6c0,2.3-0.2,3.9-0.4,5c-0.2,1.2-0.5,1.5-1.3,1.5c-0.4,0-0.8,0-1.3-0.1c0-0.3,0-0.5-0.1-0.8
			c0.6,0.1,1,0.2,1.3,0.2c0.4,0,0.5-0.1,0.6-0.7c0.3-1.2,0.4-2.6,0.4-5.9h-1.6c-0.1,1.9-0.2,2.7-0.5,3.7c-0.3,0.9-0.6,1.7-1.1,2.3
			c-0.3,0.5-0.6,0.8-1.3,1.5c-0.2-0.3-0.3-0.4-0.6-0.6c1.2-1.1,1.9-2.2,2.3-3.7c0.2-0.9,0.3-1.7,0.4-3.2H42c-0.5,0-0.8,0-1.1,0.1
			V219c0.3,0,0.5,0.1,1.1,0.1h0.9c0-1.1,0-1.1,0-1.4c0-0.6,0-0.9-0.1-1.2h0.9c0,0.3-0.1,0.5-0.1,0.9c0,0.7,0,1.2,0,1.6
			c0,0.1,0,0.1,0,0.1H44.9z"/>
		<path class="st2" d="M49.2,224.9c0,0.6,0,1,0.1,1.4h-1.1c0.1-0.4,0.1-0.8,0.1-1.4v-6.4c0-0.5,0-0.9-0.1-1.4c0.4,0,0.7,0,1.3,0h3.2
			c0.6,0,0.9,0,1.4-0.1v1c-0.4-0.1-0.7-0.1-1.4-0.1h-3.5v3.1H52c0.6,0,0.9,0,1.4-0.1v1c-0.4-0.1-0.7-0.1-1.4-0.1h-2.8V224.9z"/>
	</g>
	<g>
		<path class="st2" d="M23.4,251.5c0.9,0.5,1.4,0.7,2.2,1.4l-0.4,0.7c-0.8-0.7-1.3-1-2.2-1.5L23.4,251.5z M25.8,255.4
			c-0.4,0.8-1,2-1.3,2.4c-0.3,0.5-0.5,0.8-0.6,0.9c-0.1,0.1-0.1,0.1-0.2,0.3l-0.7-0.6c0.1-0.1,0.2-0.2,0.4-0.4
			c0.7-0.9,1.1-1.7,1.7-3L25.8,255.4z M24,248.5c0.9,0.6,1.4,1,2.1,1.6l-0.5,0.6c-0.7-0.6-1.1-1-2.1-1.7L24,248.5z M30.3,252h2.3
			c0.5,0,0.9,0,1.2-0.1v0.9c-0.3,0-0.7-0.1-1.2-0.1h-2.3v2h1.9c0.4,0,0.7,0,0.9,0c0,0.2,0,0.6,0,1.1v2.3c0,0.5,0,0.9,0.1,1.2h-0.8
			v-0.7h-4.6v0.7h-0.8c0-0.3,0.1-0.7,0.1-1.2v-2.3c0-0.4,0-0.8,0-1.1c0.2,0,0.5,0,0.9,0h1.8v-2h-2.3c-0.5,0-0.9,0-1.2,0.1v-0.9
			c0.3,0,0.7,0.1,1.2,0.1h2.3V250c-1,0.2-1.8,0.3-2.7,0.3c-0.1-0.3-0.1-0.4-0.3-0.7c1.7,0,3.4-0.3,5.1-0.7c0.7-0.2,1-0.3,1.4-0.5
			l0.6,0.7c-0.1,0-0.1,0-0.4,0.1c-0.7,0.2-1.8,0.4-2.8,0.6V252z M27.7,257.8h4.6v-2.4h-4.6V257.8z"/>
		<path class="st2" d="M38.2,252.8c-0.1,0.3-0.4,1.5-0.6,2.1c-0.2,0.6-0.5,1.3-0.7,2c1.1-0.2,1.9-0.3,3-0.6c-0.4-1-0.4-1.2-0.8-2.1
			l0.7-0.2c0.5,1.1,0.9,2,1.3,3.4l-0.7,0.3c0-0.2-0.1-0.4-0.2-0.7c-0.6,0.1-0.9,0.2-1,0.3c-0.1,0-0.8,0.2-2.3,0.5
			c-0.2,0-0.2,0-0.5,0.1c0,0-0.1,0-0.1,0c-0.1,0-0.2,0-0.3,0.1l-0.3-0.8c0.3-0.1,0.4-0.2,0.6-0.5c0.5-1.2,0.9-2.6,1.1-3.7h-0.9
			c-0.5,0-0.7,0-1,0.1V252c0.3,0,0.5,0.1,1,0.1h3.4c0.5,0,0.8,0,1-0.1v0.8c-0.3,0-0.5-0.1-1-0.1H38.2z M36,249.2
			c0.3,0,0.5,0.1,1,0.1h2.6c0.5,0,0.7,0,1-0.1v0.8c-0.3,0-0.5-0.1-1-0.1H37c-0.5,0-0.7,0-1,0.1V249.2z M44.9,251c0.5,0,0.8,0,1.1,0
			c0,0.3,0,0.3-0.1,1.6c0,2.3-0.2,3.9-0.4,5c-0.2,1.2-0.5,1.5-1.3,1.5c-0.4,0-0.8,0-1.3-0.1c0-0.3,0-0.5-0.1-0.8
			c0.6,0.1,1,0.2,1.3,0.2c0.4,0,0.5-0.1,0.6-0.7c0.3-1.2,0.4-2.6,0.4-5.9h-1.6c-0.1,1.9-0.2,2.7-0.5,3.7c-0.3,0.9-0.6,1.7-1.1,2.3
			c-0.3,0.5-0.6,0.8-1.3,1.5c-0.2-0.3-0.3-0.4-0.6-0.6c1.2-1.1,1.9-2.2,2.3-3.7c0.2-0.9,0.3-1.7,0.4-3.2H42c-0.5,0-0.8,0-1.1,0.1
			V251c0.3,0,0.5,0.1,1.1,0.1h0.9c0-1.1,0-1.1,0-1.4c0-0.6,0-0.9-0.1-1.2h0.9c0,0.3-0.1,0.5-0.1,0.9c0,0.7,0,1.2,0,1.6
			c0,0.1,0,0.1,0,0.1H44.9z"/>
		<path class="st2" d="M53.8,254.5c-0.6,0-0.9,0-1.2,0.1v-1c0.4,0.1,0.7,0.1,1.3,0.1h0.3c0.6,0,0.9,0,1.3,0
			c-0.1,0.5-0.1,0.8-0.1,1.4v1.1c0,0.6,0,0.9,0.1,1.3c-0.7,0.4-1.1,0.6-1.6,0.7c-0.5,0.1-1.2,0.2-1.8,0.2c-1.1,0-2-0.3-2.7-0.9
			c-0.9-0.8-1.5-2.2-1.5-3.8c0-2.9,1.6-4.7,4.2-4.7c1.1,0,1.9,0.3,2.6,0.9c0.4,0.4,0.6,0.7,0.9,1.4l-0.9,0.3
			c-0.4-1.2-1.2-1.7-2.5-1.7c-2,0-3.2,1.5-3.2,3.9c0,1.3,0.3,2.3,1,3c0.5,0.6,1.3,0.9,2.2,0.9c0.9,0,1.7-0.2,2.4-0.7v-2.4H53.8z"/>
	</g>
	<g>
		<path class="st2" d="M23.4,283.5c0.9,0.5,1.4,0.7,2.2,1.4l-0.4,0.7c-0.8-0.7-1.3-1-2.2-1.5L23.4,283.5z M25.8,287.4
			c-0.4,0.8-1,2-1.3,2.4c-0.3,0.5-0.5,0.8-0.6,0.9c-0.1,0.1-0.1,0.1-0.2,0.3l-0.7-0.6c0.1-0.1,0.2-0.2,0.4-0.4
			c0.7-0.9,1.1-1.7,1.7-3L25.8,287.4z M24,280.5c0.9,0.6,1.4,1,2.1,1.6l-0.5,0.6c-0.7-0.6-1.1-1-2.1-1.7L24,280.5z M30.3,284h2.3
			c0.5,0,0.9,0,1.2-0.1v0.9c-0.3,0-0.7-0.1-1.2-0.1h-2.3v2h1.9c0.4,0,0.7,0,0.9,0c0,0.2,0,0.6,0,1.1v2.3c0,0.5,0,0.9,0.1,1.2h-0.8
			v-0.7h-4.6v0.7h-0.8c0-0.3,0.1-0.7,0.1-1.2v-2.3c0-0.4,0-0.8,0-1.1c0.2,0,0.5,0,0.9,0h1.8v-2h-2.3c-0.5,0-0.9,0-1.2,0.1v-0.9
			c0.3,0,0.7,0.1,1.2,0.1h2.3V282c-1,0.2-1.8,0.3-2.7,0.3c-0.1-0.3-0.1-0.4-0.3-0.7c1.7,0,3.4-0.3,5.1-0.7c0.7-0.2,1-0.3,1.4-0.5
			l0.6,0.7c-0.1,0-0.1,0-0.4,0.1c-0.7,0.2-1.8,0.4-2.8,0.6V284z M27.7,289.8h4.6v-2.4h-4.6V289.8z"/>
		<path class="st2" d="M38.2,284.8c-0.1,0.3-0.4,1.5-0.6,2.1c-0.2,0.6-0.5,1.3-0.7,2c1.1-0.2,1.9-0.3,3-0.6c-0.4-1-0.4-1.2-0.8-2.1
			l0.7-0.2c0.5,1.1,0.9,2,1.3,3.4l-0.7,0.3c0-0.2-0.1-0.4-0.2-0.7c-0.6,0.1-0.9,0.2-1,0.3c-0.1,0-0.8,0.2-2.3,0.5
			c-0.2,0-0.2,0-0.5,0.1c0,0-0.1,0-0.1,0c-0.1,0-0.2,0-0.3,0.1l-0.3-0.8c0.3-0.1,0.4-0.2,0.6-0.5c0.5-1.2,0.9-2.6,1.1-3.7h-0.9
			c-0.5,0-0.7,0-1,0.1V284c0.3,0,0.5,0.1,1,0.1h3.4c0.5,0,0.8,0,1-0.1v0.8c-0.3,0-0.5-0.1-1-0.1H38.2z M36,281.2
			c0.3,0,0.5,0.1,1,0.1h2.6c0.5,0,0.7,0,1-0.1v0.8c-0.3,0-0.5-0.1-1-0.1H37c-0.5,0-0.7,0-1,0.1V281.2z M44.9,283c0.5,0,0.8,0,1.1,0
			c0,0.3,0,0.3-0.1,1.6c0,2.3-0.2,3.9-0.4,5c-0.2,1.2-0.5,1.5-1.3,1.5c-0.4,0-0.8,0-1.3-0.1c0-0.3,0-0.5-0.1-0.8
			c0.6,0.1,1,0.2,1.3,0.2c0.4,0,0.5-0.1,0.6-0.7c0.3-1.2,0.4-2.6,0.4-5.9h-1.6c-0.1,1.9-0.2,2.7-0.5,3.7c-0.3,0.9-0.6,1.7-1.1,2.3
			c-0.3,0.5-0.6,0.8-1.3,1.5c-0.2-0.3-0.3-0.4-0.6-0.6c1.2-1.1,1.9-2.2,2.3-3.7c0.2-0.9,0.3-1.7,0.4-3.2H42c-0.5,0-0.8,0-1.1,0.1
			V283c0.3,0,0.5,0.1,1.1,0.1h0.9c0-1.1,0-1.1,0-1.4c0-0.6,0-0.9-0.1-1.2h0.9c0,0.3-0.1,0.5-0.1,0.9c0,0.7,0,1.2,0,1.6
			c0,0.1,0,0.1,0,0.1H44.9z"/>
		<path class="st2" d="M55.6,281.1c-0.1,0.5-0.1,0.8-0.1,1.3v6.5c0,0.6,0,0.9,0.1,1.3h-1.1c0.1-0.4,0.1-0.8,0.1-1.3v-3h-5.4v3
			c0,0.6,0,0.9,0.1,1.3h-1.1c0.1-0.4,0.1-0.8,0.1-1.3v-6.4c0-0.6,0-0.9-0.1-1.3h1.1c-0.1,0.4-0.1,0.8-0.1,1.3v2.6h5.4v-2.5
			c0-0.6,0-0.9-0.1-1.3H55.6z"/>
	</g>
	<g>
		<path class="st2" d="M94.4,29.8c0.3,0,0.5,0.1,1,0.1h0.8c0.4,0,0.6,0,1-0.1c-0.1,0.7-0.1,1.3-0.1,2v5.8c0,0.6,0,0.9,0.1,1.4H96
			c0.1-0.4,0.1-0.8,0.1-1.4v-6.9h-0.6c-0.4,0-0.7,0-1,0.1V29.8z"/>
	</g>
	<g>
		<path class="st2" d="M127,38.9c-0.8,0-0.9,0-1.3,0.1c0.1-0.9,0.2-1.1,0.3-1.6c0.3-0.8,0.8-1.4,1.6-2.1c0.4-0.4,0.4-0.4,1.8-1.3
			c1.2-0.8,1.6-1.3,1.6-2.1c0-0.9-0.8-1.5-2-1.5c-0.8,0-1.4,0.3-1.7,0.8c-0.2,0.3-0.3,0.6-0.4,1.2l-1-0.2c0.2-0.9,0.4-1.3,0.8-1.7
			c0.5-0.6,1.4-0.9,2.4-0.9c1.8,0,3,0.9,3,2.3c0,0.6-0.2,1.2-0.7,1.7c-0.4,0.4-0.7,0.6-2,1.5c-0.9,0.6-1.3,1-1.7,1.5
			c-0.4,0.5-0.5,0.8-0.7,1.4h3.8c0.6,0,1,0,1.5-0.1v1c-0.5,0-0.9-0.1-1.5-0.1H127z"/>
	</g>
	<g>
		<path class="st2" d="M157.5,36.7c0.2,0.6,0.4,0.9,0.7,1.1c0.4,0.3,0.9,0.4,1.5,0.4c1.4,0,2.3-0.7,2.3-1.9c0-1.2-0.9-1.8-2.4-1.8
			c-0.3,0-0.6,0-1,0.1v-0.9c0.3,0,0.6,0.1,0.9,0.1c0.8,0,1.4-0.2,1.8-0.6c0.3-0.3,0.5-0.7,0.5-1.2c0-1-0.7-1.6-1.9-1.6
			c-0.7,0-1.3,0.2-1.6,0.6c-0.2,0.2-0.3,0.4-0.4,0.9l-1-0.2c0.2-0.6,0.3-0.9,0.6-1.2c0.5-0.6,1.3-0.9,2.4-0.9c1.7,0,2.8,0.9,2.8,2.4
			c0,0.7-0.3,1.4-0.8,1.8c-0.3,0.2-0.6,0.3-1.1,0.4c0.7,0.1,1.1,0.2,1.5,0.5c0.5,0.4,0.8,1,0.8,1.8c0,1.6-1.2,2.6-3.2,2.6
			c-1.2,0-2.1-0.3-2.7-1c-0.3-0.3-0.4-0.6-0.6-1.2L157.5,36.7z"/>
	</g>
	<g>
		<path class="st2" d="M187.9,35.8c0.3-0.3,0.5-0.6,0.8-0.9l3-3.8c0.4-0.5,0.6-0.8,0.9-1.2h0.9c-0.1,0.7-0.1,1.1-0.1,2v3.9h0.5
			c0.5,0,0.8,0,1.2-0.1v1c-0.4-0.1-0.7-0.1-1.3-0.1h-0.4v1c0,0.6,0,0.9,0.1,1.3h-1.1c0.1-0.4,0.1-0.8,0.1-1.3v-1h-3.2
			c-0.7,0-1,0-1.4,0V35.8z M192.5,32.7c0-0.6,0-1,0.1-1.6c-0.3,0.4-0.6,0.8-0.9,1.2l-2.8,3.5h3.6V32.7z"/>
	</g>
	<g>
		<path class="st2" d="M221.6,33.3c0,0.2,0,0.2-0.1,0.5c0.6-0.6,1.3-0.8,2.1-0.8c0.9,0,1.6,0.3,2.2,0.8c0.5,0.5,0.8,1.2,0.8,2.1
			c0,1.9-1.3,3.2-3.2,3.2c-0.9,0-1.7-0.3-2.3-0.8c-0.3-0.3-0.5-0.6-0.8-1.1l1-0.3c0.1,0.3,0.2,0.5,0.4,0.7c0.4,0.5,1,0.7,1.7,0.7
			c1.3,0,2.2-0.9,2.2-2.3c0-1.3-0.8-2.2-2.1-2.2c-0.6,0-1.1,0.2-1.6,0.5c-0.3,0.2-0.4,0.4-0.6,0.7l-0.9-0.1c0.1-0.5,0.1-0.7,0.2-1.2
			l0.3-2.7c0-0.3,0-0.5,0-0.7c0-0.2,0-0.2,0-0.5c0.4,0,0.6,0.1,1.3,0.1h2.5c0.6,0,0.9,0,1.4-0.1v1c-0.5-0.1-0.8-0.1-1.4-0.1h-2.8
			L221.6,33.3z"/>
	</g>
	<g>
		<path class="st2" d="M257,31.8c-0.2-0.4-0.2-0.6-0.4-0.8c-0.4-0.4-0.8-0.6-1.4-0.6c-0.9,0-1.6,0.5-2.1,1.5
			c-0.3,0.7-0.4,1.3-0.5,2.6c0.2-0.4,0.3-0.5,0.6-0.8c0.6-0.5,1.2-0.7,2-0.7c1.9,0,3,1.2,3,3c0,1.9-1.2,3.1-3.1,3.1
			c-0.9,0-1.7-0.3-2.2-0.8c-0.8-0.7-1.2-2.1-1.2-3.8c0-1.5,0.3-2.8,0.9-3.6c0.6-0.9,1.5-1.3,2.5-1.3c0.7,0,1.4,0.2,1.8,0.5
			c0.4,0.3,0.7,0.6,1,1.3L257,31.8z M255.1,33.8c-0.6,0-1.2,0.3-1.7,0.7c-0.4,0.4-0.6,0.9-0.6,1.5c0,1.3,1,2.3,2.3,2.3
			c0.8,0,1.5-0.4,1.9-1c0.2-0.3,0.3-0.8,0.3-1.3C257.3,34.6,256.5,33.8,255.1,33.8z"/>
	</g>
	<g>
		<path class="st2" d="M289.1,30.6c-0.2,0.2-0.4,0.4-0.9,1.2c-1.1,1.7-1.6,2.7-2.1,4.1c-0.3,1-0.4,1.6-0.6,3h-1.1
			c0.4-2.2,0.7-3.3,1.5-4.8c0.6-1.2,1.1-2,2.2-3.5h-3.9c-0.6,0-0.9,0-1.4,0.1v-1c0.5,0.1,0.8,0.1,1.4,0.1h3.6c0.7,0,1,0,1.4-0.1
			V30.6z"/>
	</g>
	<g>
		<path class="st2" d="M321.4,34.7c0.6,0.4,0.9,1.1,0.9,1.9c0,1.6-1.2,2.6-3.3,2.6c-2.2,0-3.4-0.9-3.4-2.6c0-0.9,0.3-1.5,1.1-2
			c0.4-0.2,0.6-0.3,1.1-0.4c-1.1-0.2-1.7-1-1.7-2.2c0-1.5,1.1-2.4,3-2.4c1.8,0,3,0.9,3,2.4c0,1.1-0.7,2-1.7,2.2
			C320.7,34.2,321,34.4,321.4,34.7z M316.6,36.5c0,1.1,0.9,1.8,2.4,1.8c0.8,0,1.5-0.2,1.9-0.6c0.3-0.3,0.5-0.7,0.5-1.2
			c0-1.2-0.9-1.9-2.4-1.9C317.5,34.6,316.6,35.3,316.6,36.5z M316.9,32.1c0,1.1,0.8,1.7,2,1.7s2-0.6,2-1.7c0-1-0.8-1.6-2-1.6
			C317.7,30.4,316.9,31.1,316.9,32.1z"/>
	</g>
	<g>
		<path class="st2" d="M348.4,36.9c0.1,0.4,0.2,0.6,0.4,0.8c0.3,0.4,0.9,0.6,1.5,0.6c0.9,0,1.5-0.3,1.9-1.1c0.2-0.4,0.4-1,0.5-1.5
			c0-0.3,0.1-0.8,0.1-1.4c-0.2,0.3-0.3,0.4-0.5,0.7c-0.6,0.6-1.3,0.8-2.2,0.8c-0.9,0-1.6-0.3-2.2-0.8c-0.5-0.5-0.8-1.3-0.8-2.2
			c0-1.9,1.3-3.2,3.3-3.2c1.3,0,2.4,0.8,2.9,2c0.2,0.6,0.3,1.5,0.3,2.5c0,1.7-0.3,3-1,3.8c-0.6,0.8-1.4,1.1-2.5,1.1
			c-0.8,0-1.5-0.2-2-0.6c-0.3-0.3-0.5-0.6-0.8-1.2L348.4,36.9z M352.7,32.7c0-1.3-1-2.3-2.2-2.3c-0.8,0-1.5,0.4-1.9,1
			c-0.2,0.3-0.3,0.8-0.3,1.3c0,1.4,0.8,2.2,2.1,2.2C351.7,34.9,352.7,34,352.7,32.7z"/>
	</g>
	<g>
		<path class="st2" d="M374.4,29.8c0.3,0,0.5,0.1,1,0.1h0.8c0.4,0,0.6,0,1-0.1c-0.1,0.7-0.1,1.3-0.1,2v5.8c0,0.6,0,0.9,0.1,1.4H376
			c0.1-0.4,0.1-0.8,0.1-1.4v-6.9h-0.6c-0.4,0-0.7,0-1,0.1V29.8z"/>
		<path class="st2" d="M382.1,38.3c-0.3-0.3-0.6-0.7-0.7-1.1c-0.3-0.8-0.5-1.8-0.5-2.8c0-1.3,0.3-2.6,0.7-3.3c0.6-1,1.5-1.5,2.7-1.5
			c0.9,0,1.7,0.3,2.2,0.9c0.3,0.3,0.6,0.7,0.7,1.1c0.3,0.8,0.5,1.8,0.5,2.8c0,1.5-0.3,2.7-0.8,3.5c-0.6,0.8-1.4,1.3-2.5,1.3
			C383.4,39.1,382.7,38.8,382.1,38.3z M382.8,31.1c-0.3,0.3-0.4,0.6-0.5,0.9c-0.3,0.7-0.4,1.5-0.4,2.4c0,1.1,0.2,2.3,0.6,2.9
			c0.4,0.7,1,1,1.9,1c0.6,0,1.1-0.2,1.5-0.6c0.3-0.3,0.5-0.6,0.6-0.9c0.3-0.7,0.4-1.5,0.4-2.4c0-1-0.2-2.2-0.5-2.8
			c-0.4-0.7-1-1.1-1.9-1.1C383.7,30.5,383.2,30.7,382.8,31.1z"/>
	</g>
	<g>
		<path class="st2" d="M406.9,29.8c0.3,0,0.5,0.1,1,0.1h0.8c0.4,0,0.6,0,1-0.1c-0.1,0.7-0.1,1.3-0.1,2v5.8c0,0.6,0,0.9,0.1,1.4h-1.1
			c0.1-0.4,0.1-0.8,0.1-1.4v-6.9h-0.6c-0.4,0-0.7,0-1,0.1V29.8z"/>
		<path class="st2" d="M414.4,29.8c0.3,0,0.5,0.1,1,0.1h0.8c0.4,0,0.6,0,1-0.1c-0.1,0.7-0.1,1.3-0.1,2v5.8c0,0.6,0,0.9,0.1,1.4H416
			c0.1-0.4,0.1-0.8,0.1-1.4v-6.9h-0.6c-0.4,0-0.7,0-1,0.1V29.8z"/>
	</g>
	<g>
		<path class="st2" d="M437.9,29.8c0.3,0,0.5,0.1,1,0.1h0.8c0.4,0,0.6,0,1-0.1c-0.1,0.7-0.1,1.3-0.1,2v5.8c0,0.6,0,0.9,0.1,1.4h-1.1
			c0.1-0.4,0.1-0.8,0.1-1.4v-6.9h-0.6c-0.4,0-0.7,0-1,0.1V29.8z"/>
		<path class="st2" d="M445.5,38.9c-0.8,0-0.9,0-1.3,0.1c0.1-0.9,0.2-1.1,0.3-1.6c0.3-0.8,0.8-1.4,1.6-2.1c0.4-0.4,0.4-0.4,1.8-1.3
			c1.2-0.8,1.6-1.3,1.6-2.1c0-0.9-0.8-1.5-2-1.5c-0.8,0-1.4,0.3-1.7,0.8c-0.2,0.3-0.3,0.6-0.4,1.2l-1-0.2c0.2-0.9,0.4-1.3,0.8-1.7
			c0.5-0.6,1.4-0.9,2.4-0.9c1.8,0,3,0.9,3,2.3c0,0.6-0.2,1.2-0.7,1.7c-0.4,0.4-0.7,0.6-2,1.5c-0.9,0.6-1.3,1-1.7,1.5
			c-0.4,0.5-0.5,0.8-0.7,1.4h3.8c0.6,0,1,0,1.5-0.1v1c-0.5,0-0.9-0.1-1.5-0.1H445.5z"/>
	</g>
	<g>
		<path class="st2" d="M470.2,29.8c0.3,0,0.5,0.1,1,0.1h0.8c0.4,0,0.6,0,1-0.1c-0.1,0.7-0.1,1.3-0.1,2v5.8c0,0.6,0,0.9,0.1,1.4h-1.1
			c0.1-0.4,0.1-0.8,0.1-1.4v-6.9h-0.6c-0.4,0-0.7,0-1,0.1V29.8z"/>
		<path class="st2" d="M477.4,36.7c0.2,0.6,0.4,0.9,0.7,1.1c0.4,0.3,0.9,0.4,1.5,0.4c1.4,0,2.3-0.7,2.3-1.9c0-1.2-0.9-1.8-2.4-1.8
			c-0.3,0-0.6,0-1,0.1v-0.9c0.3,0,0.6,0.1,0.9,0.1c0.8,0,1.4-0.2,1.8-0.6c0.3-0.3,0.5-0.7,0.5-1.2c0-1-0.7-1.6-1.9-1.6
			c-0.7,0-1.3,0.2-1.6,0.6c-0.2,0.2-0.3,0.4-0.4,0.9l-1-0.2c0.2-0.6,0.3-0.9,0.6-1.2c0.5-0.6,1.3-0.9,2.4-0.9c1.7,0,2.8,0.9,2.8,2.4
			c0,0.7-0.3,1.4-0.8,1.8c-0.3,0.2-0.6,0.3-1.1,0.4c0.7,0.1,1.1,0.2,1.5,0.5c0.5,0.4,0.8,1,0.8,1.8c0,1.6-1.2,2.6-3.2,2.6
			c-1.2,0-2.1-0.3-2.7-1c-0.3-0.3-0.4-0.6-0.6-1.2L477.4,36.7z"/>
	</g>
	<g>
		<path class="st2" d="M501.8,29.8c0.3,0,0.5,0.1,1,0.1h0.8c0.4,0,0.6,0,1-0.1c-0.1,0.7-0.1,1.3-0.1,2v5.8c0,0.6,0,0.9,0.1,1.4h-1.1
			c0.1-0.4,0.1-0.8,0.1-1.4v-6.9h-0.6c-0.4,0-0.7,0-1,0.1V29.8z"/>
		<path class="st2" d="M507.9,35.8c0.3-0.3,0.5-0.6,0.8-0.9l3-3.8c0.4-0.5,0.6-0.8,0.9-1.2h0.9c-0.1,0.7-0.1,1.1-0.1,2v3.9h0.5
			c0.5,0,0.8,0,1.2-0.1v1c-0.4-0.1-0.7-0.1-1.3-0.1h-0.4v1c0,0.6,0,0.9,0.1,1.3h-1.1c0.1-0.4,0.1-0.8,0.1-1.3v-1h-3.2
			c-0.7,0-1,0-1.4,0V35.8z M512.5,32.7c0-0.6,0-1,0.1-1.6c-0.3,0.4-0.6,0.8-0.9,1.2l-2.8,3.5h3.6V32.7z"/>
	</g>
	<g>
		<path class="st2" d="M532.9,29.8c0.3,0,0.5,0.1,1,0.1h0.8c0.4,0,0.6,0,1-0.1c-0.1,0.7-0.1,1.3-0.1,2v5.8c0,0.6,0,0.9,0.1,1.4h-1.1
			c0.1-0.4,0.1-0.8,0.1-1.4v-6.9h-0.6c-0.4,0-0.7,0-1,0.1V29.8z"/>
		<path class="st2" d="M540.6,33.3c0,0.2,0,0.2-0.1,0.5c0.6-0.6,1.3-0.8,2.1-0.8c0.9,0,1.6,0.3,2.2,0.8c0.5,0.5,0.8,1.2,0.8,2.1
			c0,1.9-1.3,3.2-3.2,3.2c-0.9,0-1.7-0.3-2.3-0.8c-0.3-0.3-0.5-0.6-0.8-1.1l1-0.3c0.1,0.3,0.2,0.5,0.4,0.7c0.4,0.5,1,0.7,1.7,0.7
			c1.3,0,2.2-0.9,2.2-2.3c0-1.3-0.8-2.2-2.1-2.2c-0.6,0-1.1,0.2-1.6,0.5c-0.3,0.2-0.4,0.4-0.6,0.7l-0.9-0.1c0.1-0.5,0.1-0.7,0.2-1.2
			l0.3-2.7c0-0.3,0-0.5,0-0.7c0-0.2,0-0.2,0-0.5c0.4,0,0.6,0.1,1.3,0.1h2.5c0.6,0,0.9,0,1.4-0.1v1c-0.5-0.1-0.8-0.1-1.4-0.1h-2.8
			L540.6,33.3z"/>
	</g>
	<g>
		<path class="st2" d="M564.9,29.8c0.3,0,0.5,0.1,1,0.1h0.8c0.4,0,0.6,0,1-0.1c-0.1,0.7-0.1,1.3-0.1,2v5.8c0,0.6,0,0.9,0.1,1.4h-1.1
			c0.1-0.4,0.1-0.8,0.1-1.4v-6.9h-0.6c-0.4,0-0.7,0-1,0.1V29.8z"/>
		<path class="st2" d="M576.5,31.8c-0.2-0.4-0.2-0.6-0.4-0.8c-0.4-0.4-0.8-0.6-1.4-0.6c-0.9,0-1.6,0.5-2.1,1.5
			c-0.3,0.7-0.4,1.3-0.5,2.6c0.2-0.4,0.3-0.5,0.6-0.8c0.6-0.5,1.2-0.7,2-0.7c1.9,0,3,1.2,3,3c0,1.9-1.2,3.1-3.1,3.1
			c-0.9,0-1.7-0.3-2.2-0.8c-0.8-0.7-1.2-2.1-1.2-3.8c0-1.5,0.3-2.8,0.9-3.6c0.6-0.9,1.5-1.3,2.5-1.3c0.7,0,1.4,0.2,1.8,0.5
			c0.4,0.3,0.7,0.6,1,1.3L576.5,31.8z M574.6,33.8c-0.6,0-1.2,0.3-1.7,0.7c-0.4,0.4-0.6,0.9-0.6,1.5c0,1.3,1,2.3,2.3,2.3
			c0.8,0,1.5-0.4,1.9-1c0.2-0.3,0.3-0.8,0.3-1.3C576.8,34.6,576,33.8,574.6,33.8z"/>
	</g>
	<g>
		<path class="st2" d="M596.5,29.8c0.3,0,0.5,0.1,1,0.1h0.8c0.4,0,0.6,0,1-0.1c-0.1,0.7-0.1,1.3-0.1,2v5.8c0,0.6,0,0.9,0.1,1.4h-1.1
			c0.1-0.4,0.1-0.8,0.1-1.4v-6.9h-0.6c-0.4,0-0.7,0-1,0.1V29.8z"/>
		<path class="st2" d="M609.3,30.6c-0.2,0.2-0.4,0.4-0.9,1.2c-1.1,1.7-1.6,2.7-2.1,4.1c-0.3,1-0.4,1.6-0.6,3h-1.1
			c0.4-2.2,0.7-3.3,1.5-4.8c0.6-1.2,1.1-2,2.2-3.5h-3.9c-0.6,0-0.9,0-1.4,0.1v-1c0.5,0.1,0.8,0.1,1.4,0.1h3.6c0.7,0,1,0,1.4-0.1
			V30.6z"/>
	</g>
	<g>
		<path class="st2" d="M627.9,29.8c0.3,0,0.5,0.1,1,0.1h0.8c0.4,0,0.6,0,1-0.1c-0.1,0.7-0.1,1.3-0.1,2v5.8c0,0.6,0,0.9,0.1,1.4h-1.1
			c0.1-0.4,0.1-0.8,0.1-1.4v-6.9h-0.6c-0.4,0-0.7,0-1,0.1V29.8z"/>
		<path class="st2" d="M639.9,34.7c0.6,0.4,0.9,1.1,0.9,1.9c0,1.6-1.2,2.6-3.3,2.6c-2.2,0-3.4-0.9-3.4-2.6c0-0.9,0.3-1.5,1.1-2
			c0.4-0.2,0.6-0.3,1.1-0.4c-1.1-0.2-1.7-1-1.7-2.2c0-1.5,1.1-2.4,3-2.4c1.8,0,3,0.9,3,2.4c0,1.1-0.7,2-1.7,2.2
			C639.2,34.2,639.5,34.4,639.9,34.7z M635.1,36.5c0,1.1,0.9,1.8,2.4,1.8c0.8,0,1.5-0.2,1.9-0.6c0.3-0.3,0.5-0.7,0.5-1.2
			c0-1.2-0.9-1.9-2.4-1.9C636,34.6,635.1,35.3,635.1,36.5z M635.4,32.1c0,1.1,0.8,1.7,2,1.7c1.3,0,2-0.6,2-1.7c0-1-0.8-1.6-2-1.6
			C636.2,30.4,635.4,31.1,635.4,32.1z"/>
	</g>
	<g>
		<path class="st2" d="M659.2,29.8c0.3,0,0.5,0.1,1,0.1h0.8c0.4,0,0.6,0,1-0.1c-0.1,0.7-0.1,1.3-0.1,2v5.8c0,0.6,0,0.9,0.1,1.4h-1.1
			c0.1-0.4,0.1-0.8,0.1-1.4v-6.9h-0.6c-0.4,0-0.7,0-1,0.1V29.8z"/>
		<path class="st2" d="M666.6,36.9c0.1,0.4,0.2,0.6,0.4,0.8c0.3,0.4,0.9,0.6,1.5,0.6c0.9,0,1.5-0.3,1.9-1.1c0.2-0.4,0.4-1,0.5-1.5
			c0-0.3,0.1-0.8,0.1-1.4c-0.2,0.3-0.3,0.4-0.5,0.7c-0.6,0.6-1.3,0.8-2.2,0.8c-0.9,0-1.6-0.3-2.2-0.8s-0.8-1.3-0.8-2.2
			c0-1.9,1.3-3.2,3.2-3.2c1.3,0,2.4,0.8,2.9,2c0.2,0.6,0.3,1.5,0.3,2.5c0,1.7-0.3,3-1,3.8c-0.6,0.8-1.4,1.1-2.5,1.1
			c-0.8,0-1.5-0.2-2-0.6c-0.3-0.3-0.5-0.6-0.8-1.2L666.6,36.9z M670.9,32.7c0-1.3-1-2.3-2.2-2.3c-0.8,0-1.5,0.4-1.9,1
			c-0.2,0.3-0.3,0.8-0.3,1.3c0,1.4,0.8,2.2,2.1,2.2C669.9,34.9,670.9,34,670.9,32.7z"/>
	</g>
	<g>
		<path class="st2" d="M691.5,38.9c-0.8,0-0.9,0-1.3,0.1c0.1-0.9,0.2-1.1,0.3-1.6c0.3-0.8,0.8-1.4,1.6-2.1c0.4-0.4,0.4-0.4,1.8-1.3
			c1.2-0.8,1.6-1.3,1.6-2.1c0-0.9-0.8-1.5-2-1.5c-0.8,0-1.4,0.3-1.7,0.8c-0.2,0.3-0.3,0.6-0.4,1.2l-1-0.2c0.2-0.9,0.4-1.3,0.8-1.7
			c0.5-0.6,1.4-0.9,2.4-0.9c1.8,0,3,0.9,3,2.3c0,0.6-0.2,1.2-0.7,1.7c-0.4,0.4-0.7,0.6-2,1.5c-0.9,0.6-1.3,1-1.7,1.5
			c-0.4,0.5-0.5,0.8-0.7,1.4h3.8c0.6,0,1,0,1.5-0.1v1c-0.5,0-0.9-0.1-1.5-0.1H691.5z"/>
		<path class="st2" d="M699.1,38.3c-0.3-0.3-0.6-0.7-0.7-1.1c-0.3-0.8-0.5-1.8-0.5-2.8c0-1.3,0.3-2.6,0.7-3.3c0.6-1,1.5-1.5,2.7-1.5
			c0.9,0,1.7,0.3,2.2,0.9c0.3,0.3,0.6,0.7,0.7,1.1c0.3,0.8,0.5,1.8,0.5,2.8c0,1.5-0.3,2.7-0.8,3.5c-0.6,0.8-1.4,1.3-2.5,1.3
			C700.4,39.1,699.6,38.8,699.1,38.3z M699.8,31.1c-0.3,0.3-0.4,0.6-0.5,0.9c-0.3,0.7-0.4,1.5-0.4,2.4c0,1.1,0.2,2.3,0.6,2.9
			c0.4,0.7,1,1,1.9,1c0.6,0,1.1-0.2,1.5-0.6c0.3-0.3,0.5-0.6,0.6-0.9c0.3-0.7,0.4-1.5,0.4-2.4c0-1-0.2-2.2-0.5-2.8
			c-0.4-0.7-1-1.1-1.9-1.1C700.6,30.5,700.2,30.7,699.8,31.1z"/>
	</g>
</g>
<g id="Layer_3">
	<polyline class="st3" points="363.8,280.2 427.3,280.2 427.3,294.7 423.7,291 363.8,291 	"/>
	<polyline class="st4" points="174.8,123.8 206.2,123.8 206.2,138.2 202.5,134.6 174.8,134.6 	"/>
	<polyline class="st4" points="237.7,186.5 332.5,186.5 332.5,201 328.9,197.4 237.7,197.4 	"/>
	<polyline class="st3" points="364.7,154.8 396,154.8 396,169.2 392.4,165.6 364.7,165.6 	"/>
	<polyline class="st5" points="490,217.4 617.2,217.4 617.2,231.9 613.6,228.3 490,228.3 	"/>
	<polygon class="st6" points="171.5,70.9 175.1,74.5 175.1,60 81.7,60 81.7,74.5 85.3,70.9 	"/>
	<polygon class="st6" points="233.9,102.1 237.5,105.7 237.5,91.2 176.5,91.2 176.5,105.7 180.1,102.1 	"/>
	<polygon class="st7" points="707.9,260.1 711.5,263.7 711.5,249.2 618.8,249.2 618.8,263.7 622.4,260.1 	"/>
	<polyline class="st8" points="175.5,123.8 113.3,123.8 113.3,138.2 116.9,134.6 175.5,134.6 	"/>
	<polyline class="st8" points="238.5,186.4 176.3,186.4 176.3,200.9 179.9,197.3 238.5,197.3 	"/>
	<polyline class="st9" points="365.4,154.8 239.5,154.8 239.5,169.2 243.2,165.6 365.4,165.6 	"/>
	<polyline class="st10" points="491.5,217.4 397.6,217.4 397.6,231.9 401.2,228.3 491.5,228.3 	"/>
	<polyline class="st9" points="365.3,280.2 303.3,280.2 303.3,294.7 307,291 365.3,291 	"/>
</g>
<g id="Layer_4">
	<line class="st11" x1="491.4" y1="301.5" x2="491.4" y2="18.5"/>
	<g>
		<g>
			<polyline class="st12" points="175.8,66.8 183.5,66.8 183.5,87.9 			"/>
			<g>
				<polygon class="st2" points="178.6,84 179.5,83.2 183.5,87.5 187.5,83.2 188.4,84 183.5,89.2 				"/>
			</g>
		</g>
	</g>
	<g>
		<g>
			<polyline class="st12" points="617.8,223.8 625.5,223.8 625.5,245.9 			"/>
			<g>
				<polygon class="st2" points="620.6,242 621.5,241.2 625.5,245.5 629.5,241.2 630.4,242 625.5,247.2 				"/>
			</g>
		</g>
	</g>
	<g>
		<g>
			<polyline class="st12" points="238.2,97.2 246,97.2 246,151.7 			"/>
			<g>
				<polygon class="st2" points="241.1,147.7 242,146.9 246,151.2 250,146.9 250.9,147.7 246,153 				"/>
			</g>
		</g>
	</g>
	<g>
		<g>
			<polyline class="st12" points="396.2,161.2 405,161.2 405,213.7 			"/>
			<g>
				<polygon class="st2" points="400.1,209.7 401,208.9 405,213.2 409,208.9 409.9,209.7 405,215 				"/>
			</g>
		</g>
	</g>
	<g>
	</g>
	<g>
	</g>
	<g>
	</g>
	<g>
	</g>
	<g>
	</g>
	<g>
	</g>
	<g>
	</g>
	<g>
	</g>
	<g>
	</g>
	<g>
	</g>
</g>
</svg>
